<?xml version="1.0"?>
<!-- Created by MetaPost 1.999 on 2021.07.06:0015 -->
<svg version="1.1" xmlns="http://www.w3.org/2000/svg" xmlns:xlink="http://www.w3.org/1999/xlink" width="187.640930" height="190.584259" viewBox="0 0 187.640930 190.584259">
<!-- Original BoundingBox: -162.676300 -63.403076 24.964630 127.181183 -->
  <defs>
    <g transform="scale(0.009963,0.009963)" id="GLYPHcmr10_48">
      <path style="fill-rule: evenodd;" d="M460.000000 -320.000000C460.000000 -400.000000,455.000000 -480.000000,420.000000 -554.000000C374.000000 -650.000000,292.000000 -666.000000,250.000000 -666.000000C190.000000 -666.000000,117.000000 -640.000000,76.000000 -547.000000C44.000000 -478.000000,39.000000 -400.000000,39.000000 -320.000000C39.000000 -245.000000,43.000000 -155.000000,84.000000 -79.000000C127.000000 2.000000,200.000000 22.000000,249.000000 22.000000C303.000000 22.000000,379.000000 1.000000,423.000000 -94.000000C455.000000 -163.000000,460.000000 -241.000000,460.000000 -320.000000M249.000000 -0.000000C210.000000 -0.000000,151.000000 -25.000000,133.000000 -121.000000C122.000000 -181.000000,122.000000 -273.000000,122.000000 -332.000000C122.000000 -396.000000,122.000000 -462.000000,130.000000 -516.000000C149.000000 -635.000000,224.000000 -644.000000,249.000000 -644.000000C282.000000 -644.000000,348.000000 -626.000000,367.000000 -527.000000C377.000000 -471.000000,377.000000 -395.000000,377.000000 -332.000000C377.000000 -257.000000,377.000000 -189.000000,366.000000 -125.000000C351.000000 -30.000000,294.000000 -0.000000,249.000000 -0.000000"></path>
    </g>
    <g transform="scale(0.009963,0.009963)" id="GLYPHcmr10_49">
      <path style="fill-rule: evenodd;" d="M294.000000 -640.000000C294.000000 -664.000000,294.000000 -666.000000,271.000000 -666.000000C209.000000 -602.000000,121.000000 -602.000000,89.000000 -602.000000L89.000000 -571.000000C109.000000 -571.000000,168.000000 -571.000000,220.000000 -597.000000L220.000000 -79.000000C220.000000 -43.000000,217.000000 -31.000000,127.000000 -31.000000L95.000000 -31.000000L95.000000 -0.000000L257.000000 -0.000000L130.000000 -3.000000L217.000000 -3.000000L257.000000 -3.000000L297.000000 -3.000000L384.000000 -3.000000L419.000000 -0.000000L419.000000 -31.000000L387.000000 -31.000000C297.000000 -31.000000,294.000000 -42.000000,294.000000 -79.000000"></path>
    </g>
    <g transform="scale(0.009963,0.009963)" id="GLYPHcmr10_50">
      <path style="fill-rule: evenodd;" d="M127.000000 -77.000000L233.000000 -180.000000C389.000000 -318.000000,449.000000 -372.000000,449.000000 -472.000000C449.000000 -586.000000,359.000000 -666.000000,237.000000 -666.000000C124.000000 -666.000000,50.000000 -574.000000,50.000000 -485.000000C50.000000 -429.000000,100.000000 -429.000000,103.000000 -429.000000C120.000000 -429.000000,155.000000 -441.000000,155.000000 -482.000000C155.000000 -508.000000,137.000000 -534.000000,102.000000 -534.000000C94.000000 -534.000000,92.000000 -534.000000,89.000000 -533.000000C112.000000 -598.000000,166.000000 -635.000000,224.000000 -635.000000C315.000000 -635.000000,358.000000 -554.000000,358.000000 -472.000000C358.000000 -392.000000,308.000000 -313.000000,253.000000 -251.000000L61.000000 -37.000000C50.000000 -26.000000,50.000000 -24.000000,50.000000 -0.000000L421.000000 -0.000000L449.000000 -174.000000L424.000000 -174.000000C419.000000 -144.000000,412.000000 -100.000000,402.000000 -85.000000C395.000000 -77.000000,329.000000 -77.000000,307.000000 -77.000000"></path>
    </g>
    <g transform="scale(0.009963,0.009963)" id="GLYPHcmr10_51">
      <path style="fill-rule: evenodd;" d="M290.000000 -352.000000C372.000000 -379.000000,430.000000 -449.000000,430.000000 -528.000000C430.000000 -610.000000,342.000000 -666.000000,246.000000 -666.000000C145.000000 -666.000000,69.000000 -606.000000,69.000000 -530.000000C69.000000 -497.000000,91.000000 -478.000000,120.000000 -478.000000C151.000000 -478.000000,171.000000 -500.000000,171.000000 -529.000000C171.000000 -579.000000,124.000000 -579.000000,109.000000 -579.000000C140.000000 -628.000000,206.000000 -641.000000,242.000000 -641.000000C283.000000 -641.000000,338.000000 -619.000000,338.000000 -529.000000C338.000000 -517.000000,336.000000 -459.000000,310.000000 -415.000000C280.000000 -367.000000,246.000000 -364.000000,221.000000 -363.000000C213.000000 -362.000000,189.000000 -360.000000,182.000000 -360.000000C174.000000 -359.000000,167.000000 -358.000000,167.000000 -348.000000C167.000000 -337.000000,174.000000 -337.000000,191.000000 -337.000000L235.000000 -337.000000C317.000000 -337.000000,354.000000 -269.000000,354.000000 -171.000000C354.000000 -35.000000,285.000000 -6.000000,241.000000 -6.000000C198.000000 -6.000000,123.000000 -23.000000,88.000000 -82.000000C123.000000 -77.000000,154.000000 -99.000000,154.000000 -137.000000C154.000000 -173.000000,127.000000 -193.000000,98.000000 -193.000000C74.000000 -193.000000,42.000000 -179.000000,42.000000 -135.000000C42.000000 -44.000000,135.000000 22.000000,244.000000 22.000000C366.000000 22.000000,457.000000 -69.000000,457.000000 -171.000000C457.000000 -253.000000,394.000000 -331.000000,290.000000 -352.000000"></path>
    </g>
    <g transform="scale(0.009963,0.009963)" id="GLYPHcmr10_52">
      <path style="fill-rule: evenodd;" d="M294.000000 -165.000000L294.000000 -78.000000C294.000000 -42.000000,292.000000 -31.000000,218.000000 -31.000000L197.000000 -31.000000L197.000000 -0.000000L332.000000 -0.000000L238.000000 -3.000000L290.000000 -3.000000L332.000000 -3.000000L374.000000 -3.000000L427.000000 -3.000000L468.000000 -0.000000L468.000000 -31.000000L447.000000 -31.000000C373.000000 -31.000000,371.000000 -42.000000,371.000000 -78.000000L371.000000 -165.000000L471.000000 -165.000000L471.000000 -196.000000L371.000000 -196.000000L371.000000 -651.000000C371.000000 -671.000000,371.000000 -677.000000,355.000000 -677.000000C346.000000 -677.000000,343.000000 -677.000000,335.000000 -665.000000L28.000000 -196.000000L28.000000 -165.000000M300.000000 -196.000000L56.000000 -196.000000L300.000000 -569.000000"></path>
    </g>
    <g transform="scale(0.009963,0.009963)" id="GLYPHcmr10_53">
      <path style="fill-rule: evenodd;" d="M449.000000 -201.000000C449.000000 -320.000000,367.000000 -420.000000,259.000000 -420.000000C211.000000 -420.000000,168.000000 -404.000000,132.000000 -369.000000L132.000000 -564.000000C152.000000 -558.000000,185.000000 -551.000000,217.000000 -551.000000C340.000000 -551.000000,410.000000 -642.000000,410.000000 -655.000000C410.000000 -661.000000,407.000000 -666.000000,400.000000 -666.000000C399.000000 -666.000000,397.000000 -666.000000,392.000000 -663.000000C372.000000 -654.000000,323.000000 -634.000000,256.000000 -634.000000C216.000000 -634.000000,170.000000 -641.000000,123.000000 -662.000000C115.000000 -665.000000,113.000000 -665.000000,111.000000 -665.000000C101.000000 -665.000000,101.000000 -657.000000,101.000000 -641.000000L101.000000 -345.000000C101.000000 -327.000000,101.000000 -319.000000,115.000000 -319.000000C122.000000 -319.000000,124.000000 -322.000000,128.000000 -328.000000C139.000000 -344.000000,176.000000 -398.000000,257.000000 -398.000000C309.000000 -398.000000,334.000000 -352.000000,342.000000 -334.000000C358.000000 -297.000000,360.000000 -258.000000,360.000000 -208.000000C360.000000 -173.000000,360.000000 -113.000000,336.000000 -71.000000C312.000000 -32.000000,275.000000 -6.000000,229.000000 -6.000000C156.000000 -6.000000,99.000000 -59.000000,82.000000 -118.000000C85.000000 -117.000000,88.000000 -116.000000,99.000000 -116.000000C132.000000 -116.000000,149.000000 -141.000000,149.000000 -165.000000C149.000000 -189.000000,132.000000 -214.000000,99.000000 -214.000000C85.000000 -214.000000,50.000000 -207.000000,50.000000 -161.000000C50.000000 -75.000000,119.000000 22.000000,231.000000 22.000000C347.000000 22.000000,449.000000 -74.000000,449.000000 -201.000000"></path>
    </g>
    <g transform="scale(0.009963,0.009963)" id="GLYPHcmr10_54">
      <path style="fill-rule: evenodd;" d="M132.000000 -328.000000L132.000000 -352.000000C132.000000 -605.000000,256.000000 -641.000000,307.000000 -641.000000C331.000000 -641.000000,373.000000 -635.000000,395.000000 -601.000000C380.000000 -601.000000,340.000000 -601.000000,340.000000 -556.000000C340.000000 -525.000000,364.000000 -510.000000,386.000000 -510.000000C402.000000 -510.000000,432.000000 -519.000000,432.000000 -558.000000C432.000000 -618.000000,388.000000 -666.000000,305.000000 -666.000000C177.000000 -666.000000,42.000000 -537.000000,42.000000 -316.000000C42.000000 -49.000000,158.000000 22.000000,251.000000 22.000000C362.000000 22.000000,457.000000 -72.000000,457.000000 -204.000000C457.000000 -331.000000,368.000000 -427.000000,257.000000 -427.000000C189.000000 -427.000000,152.000000 -376.000000,132.000000 -328.000000M251.000000 -6.000000C188.000000 -6.000000,158.000000 -66.000000,152.000000 -81.000000C134.000000 -128.000000,134.000000 -208.000000,134.000000 -226.000000C134.000000 -304.000000,166.000000 -404.000000,256.000000 -404.000000C272.000000 -404.000000,318.000000 -404.000000,349.000000 -342.000000C367.000000 -305.000000,367.000000 -254.000000,367.000000 -205.000000C367.000000 -157.000000,367.000000 -107.000000,350.000000 -71.000000C320.000000 -11.000000,274.000000 -6.000000,251.000000 -6.000000"></path>
    </g>
    <g transform="scale(0.009963,0.009963)" id="GLYPHcmr10_55">
      <path style="fill-rule: evenodd;" d="M476.000000 -609.000000C485.000000 -621.000000,485.000000 -623.000000,485.000000 -644.000000L242.000000 -644.000000C120.000000 -644.000000,118.000000 -657.000000,114.000000 -676.000000L89.000000 -676.000000L56.000000 -470.000000L81.000000 -470.000000C84.000000 -486.000000,93.000000 -549.000000,106.000000 -561.000000C113.000000 -567.000000,191.000000 -567.000000,204.000000 -567.000000L411.000000 -567.000000C400.000000 -551.000000,321.000000 -442.000000,299.000000 -409.000000C209.000000 -274.000000,176.000000 -135.000000,176.000000 -33.000000C176.000000 -23.000000,176.000000 22.000000,222.000000 22.000000C268.000000 22.000000,268.000000 -23.000000,268.000000 -33.000000L268.000000 -84.000000C268.000000 -139.000000,271.000000 -194.000000,279.000000 -248.000000C283.000000 -271.000000,297.000000 -357.000000,341.000000 -419.000000"></path>
    </g>
    <g transform="scale(0.009963,0.009963)" id="GLYPHcmr10_56">
      <path style="fill-rule: evenodd;" d="M163.000000 -457.000000C117.000000 -487.000000,113.000000 -521.000000,113.000000 -538.000000C113.000000 -599.000000,178.000000 -641.000000,249.000000 -641.000000C322.000000 -641.000000,386.000000 -589.000000,386.000000 -517.000000C386.000000 -460.000000,347.000000 -412.000000,287.000000 -377.000000M309.000000 -362.000000C381.000000 -399.000000,430.000000 -451.000000,430.000000 -517.000000C430.000000 -609.000000,341.000000 -666.000000,250.000000 -666.000000C150.000000 -666.000000,69.000000 -592.000000,69.000000 -499.000000C69.000000 -481.000000,71.000000 -436.000000,113.000000 -389.000000C124.000000 -377.000000,161.000000 -352.000000,186.000000 -335.000000C128.000000 -306.000000,42.000000 -250.000000,42.000000 -151.000000C42.000000 -45.000000,144.000000 22.000000,249.000000 22.000000C362.000000 22.000000,457.000000 -61.000000,457.000000 -168.000000C457.000000 -204.000000,446.000000 -249.000000,408.000000 -291.000000C389.000000 -312.000000,373.000000 -322.000000,309.000000 -362.000000M209.000000 -320.000000L332.000000 -242.000000C360.000000 -223.000000,407.000000 -193.000000,407.000000 -132.000000C407.000000 -58.000000,332.000000 -6.000000,250.000000 -6.000000C164.000000 -6.000000,92.000000 -68.000000,92.000000 -151.000000C92.000000 -209.000000,124.000000 -273.000000,209.000000 -320.000000"></path>
    </g>
    <g transform="scale(0.009963,0.009963)" id="GLYPHcmr10_57">
      <path style="fill-rule: evenodd;" d="M367.000000 -318.000000L367.000000 -286.000000C367.000000 -52.000000,263.000000 -6.000000,205.000000 -6.000000C188.000000 -6.000000,134.000000 -8.000000,107.000000 -42.000000C151.000000 -42.000000,159.000000 -71.000000,159.000000 -88.000000C159.000000 -119.000000,135.000000 -134.000000,113.000000 -134.000000C97.000000 -134.000000,67.000000 -125.000000,67.000000 -86.000000C67.000000 -19.000000,121.000000 22.000000,206.000000 22.000000C335.000000 22.000000,457.000000 -114.000000,457.000000 -329.000000C457.000000 -598.000000,342.000000 -666.000000,253.000000 -666.000000C198.000000 -666.000000,149.000000 -648.000000,106.000000 -603.000000C65.000000 -558.000000,42.000000 -516.000000,42.000000 -441.000000C42.000000 -316.000000,130.000000 -218.000000,242.000000 -218.000000C303.000000 -218.000000,344.000000 -260.000000,367.000000 -318.000000M243.000000 -241.000000C227.000000 -241.000000,181.000000 -241.000000,150.000000 -304.000000C132.000000 -341.000000,132.000000 -391.000000,132.000000 -440.000000C132.000000 -494.000000,132.000000 -541.000000,153.000000 -578.000000C180.000000 -628.000000,218.000000 -641.000000,253.000000 -641.000000C299.000000 -641.000000,332.000000 -607.000000,349.000000 -562.000000C361.000000 -530.000000,365.000000 -467.000000,365.000000 -421.000000C365.000000 -338.000000,331.000000 -241.000000,243.000000 -241.000000"></path>
    </g>
  </defs>
  <path d="M141.306885 128.902618C141.306885 128.109924,140.991943 127.349777,140.431458 126.789307C139.870987 126.228821,139.110840 125.913879,138.318146 125.913879C137.525452 125.913879,136.765305 126.228821,136.204834 126.789307C135.644348 127.349777,135.329407 128.109924,135.329407 128.902618C135.329407 129.695312,135.644348 130.455460,136.204834 131.015930C136.765305 131.576416,137.525452 131.891357,138.318146 131.891357C139.110840 131.891357,139.870987 131.576416,140.431458 131.015930C140.991943 130.455460,141.306885 129.695312,141.306885 128.902618Z" style="fill: rgb(100.000000%,100.000000%,100.000000%);stroke: none;"></path>
  <path d="M132.754593 120.616852C132.754593 119.824158,132.439651 119.064011,131.879166 118.503540C131.318695 117.943054,130.558548 117.628113,129.765854 117.628113C128.973160 117.628113,128.213013 117.943054,127.652542 118.503540C127.092056 119.064011,126.777115 119.824158,126.777115 120.616852C126.777115 121.409546,127.092056 122.169693,127.652542 122.730164C128.213013 123.290649,128.973160 123.605591,129.765854 123.605591C130.558548 123.605591,131.318695 123.290649,131.879166 122.730164C132.439651 122.169693,132.754593 121.409546,132.754593 120.616852Z" style="fill: rgb(100.000000%,100.000000%,100.000000%);stroke: none;"></path>
  <path d="M179.092148 121.390121C179.092148 120.597427,178.777206 119.837280,178.216721 119.276810C177.656250 118.716324,176.896103 118.401382,176.103409 118.401382C175.310715 118.401382,174.550568 118.716324,173.990097 119.276810C173.429611 119.837280,173.114670 120.597427,173.114670 121.390121C173.114670 122.182816,173.429611 122.942963,173.990097 123.503433C174.550568 124.063919,175.310715 124.378860,176.103409 124.378860C176.896103 124.378860,177.656250 124.063919,178.216721 123.503433C178.777206 122.942963,179.092148 122.182816,179.092148 121.390121Z" style="fill: rgb(100.000000%,100.000000%,100.000000%);stroke: none;"></path>
  <path d="M153.924133 131.401138C153.924133 130.608444,153.609192 129.848297,153.048706 129.287827C152.488235 128.727341,151.728088 128.412399,150.935394 128.412399C150.142700 128.412399,149.382553 128.727341,148.822083 129.287827C148.261597 129.848297,147.946655 130.608444,147.946655 131.401138C147.946655 132.193832,148.261597 132.953979,148.822083 133.514450C149.382553 134.074936,150.142700 134.389877,150.935394 134.389877C151.728088 134.389877,152.488235 134.074936,153.048706 133.514450C153.609192 132.953979,153.924133 132.193832,153.924133 131.401138Z" style="fill: rgb(100.000000%,100.000000%,100.000000%);stroke: none;"></path>
  <path d="M185.662842 77.307419C185.662842 76.514725,185.347900 75.754578,184.787415 75.194107C184.226944 74.633621,183.466797 74.318680,182.674103 74.318680C181.881409 74.318680,181.121262 74.633621,180.560791 75.194107C180.000305 75.754578,179.685364 76.514725,179.685364 77.307419C179.685364 78.100113,180.000305 78.860260,180.560791 79.420731C181.121262 79.981216,181.881409 80.296158,182.674103 80.296158C183.466797 80.296158,184.226944 79.981216,184.787415 79.420731C185.347900 78.860260,185.662842 78.100113,185.662842 77.307419Z" style="fill: rgb(100.000000%,100.000000%,100.000000%);stroke: none;"></path>
  <path d="M186.964630 106.660217C186.964630 105.867523,186.649689 105.107376,186.089203 104.546906C185.528732 103.986420,184.768585 103.671478,183.975891 103.671478C183.183197 103.671478,182.423050 103.986420,181.862579 104.546906C181.302094 105.107376,180.987152 105.867523,180.987152 106.660217C180.987152 107.452911,181.302094 108.213058,181.862579 108.773529C182.423050 109.334015,183.183197 109.648956,183.975891 109.648956C184.768585 109.648956,185.528732 109.334015,186.089203 108.773529C186.649689 108.213058,186.964630 107.452911,186.964630 106.660217Z" style="fill: rgb(100.000000%,100.000000%,100.000000%);stroke: none;"></path>
  <path d="M154.494003 55.166580C154.494003 54.373886,154.179062 53.613739,153.618576 53.053268C153.058105 52.492783,152.297958 52.177841,151.505264 52.177841C150.712570 52.177841,149.952423 52.492783,149.391953 53.053268C148.831467 53.613739,148.516525 54.373886,148.516525 55.166580C148.516525 55.959274,148.831467 56.719421,149.391953 57.279892C149.952423 57.840378,150.712570 58.155319,151.505264 58.155319C152.297958 58.155319,153.058105 57.840378,153.618576 57.279892C154.179062 56.719421,154.494003 55.959274,154.494003 55.166580Z" style="fill: rgb(100.000000%,100.000000%,100.000000%);stroke: none;"></path>
  <path d="M177.930450 64.327942C177.930450 63.535248,177.615509 62.775101,177.055023 62.214630C176.494553 61.654144,175.734406 61.339203,174.941711 61.339203C174.149017 61.339203,173.388870 61.654144,172.828400 62.214630C172.267914 62.775101,171.952972 63.535248,171.952972 64.327942C171.952972 65.120636,172.267914 65.880783,172.828400 66.441254C173.388870 67.001740,174.149017 67.316681,174.941711 67.316681C175.734406 67.316681,176.494553 67.001740,177.055023 66.441254C177.615509 65.880783,177.930450 65.120636,177.930450 64.327942Z" style="fill: rgb(100.000000%,100.000000%,100.000000%);stroke: none;"></path>
  <path d="M138.760773 74.133087C138.760773 73.340393,138.445831 72.580246,137.885345 72.019775C137.324875 71.459290,136.564728 71.144348,135.772034 71.144348C134.979340 71.144348,134.219193 71.459290,133.658722 72.019775C133.098236 72.580246,132.783295 73.340393,132.783295 74.133087C132.783295 74.925781,133.098236 75.685928,133.658722 76.246399C134.219193 76.806885,134.979340 77.121826,135.772034 77.121826C136.564728 77.121826,137.324875 76.806885,137.885345 76.246399C138.445831 75.685928,138.760773 74.925781,138.760773 74.133087Z" style="fill: rgb(100.000000%,100.000000%,100.000000%);stroke: none;"></path>
  <path d="M142.448883 58.595261C142.448883 57.802567,142.133942 57.042419,141.573456 56.481949C141.012985 55.921463,140.252838 55.606522,139.460144 55.606522C138.667450 55.606522,137.907303 55.921463,137.346832 56.481949C136.786346 57.042419,136.471405 57.802567,136.471405 58.595261C136.471405 59.387955,136.786346 60.148102,137.346832 60.708572C137.907303 61.269058,138.667450 61.584000,139.460144 61.584000C140.252838 61.584000,141.012985 61.269058,141.573456 60.708572C142.133942 60.148102,142.448883 59.387955,142.448883 58.595261Z" style="fill: rgb(100.000000%,100.000000%,100.000000%);stroke: none;"></path>
  <path d="M146.859955 89.891632C146.859955 89.098938,146.545013 88.338791,145.984528 87.778320C145.424057 87.217834,144.663910 86.902893,143.871216 86.902893C143.078522 86.902893,142.318375 87.217834,141.757904 87.778320C141.197418 88.338791,140.882477 89.098938,140.882477 89.891632C140.882477 90.684326,141.197418 91.444473,141.757904 92.004944C142.318375 92.565430,143.078522 92.880371,143.871216 92.880371C144.663910 92.880371,145.424057 92.565430,145.984528 92.004944C146.545013 91.444473,146.859955 90.684326,146.859955 89.891632Z" style="fill: rgb(100.000000%,100.000000%,100.000000%);stroke: none;"></path>
  <path d="M141.873337 79.537643C141.873337 78.744949,141.558395 77.984802,140.997910 77.424332C140.437439 76.863846,139.677292 76.548904,138.884598 76.548904C138.091904 76.548904,137.331757 76.863846,136.771286 77.424332C136.210800 77.984802,135.895859 78.744949,135.895859 79.537643C135.895859 80.330338,136.210800 81.090485,136.771286 81.650955C137.331757 82.211441,138.091904 82.526382,138.884598 82.526382C139.677292 82.526382,140.437439 82.211441,140.997910 81.650955C141.558395 81.090485,141.873337 80.330338,141.873337 79.537643Z" style="fill: rgb(100.000000%,100.000000%,100.000000%);stroke: none;"></path>
  <path d="M156.348465 109.114395C156.348465 108.321701,156.033524 107.561554,155.473038 107.001083C154.912567 106.440598,154.152420 106.125656,153.359726 106.125656C152.567032 106.125656,151.806885 106.440598,151.246414 107.001083C150.685928 107.561554,150.370987 108.321701,150.370987 109.114395C150.370987 109.907089,150.685928 110.667236,151.246414 111.227707C151.806885 111.788193,152.567032 112.103134,153.359726 112.103134C154.152420 112.103134,154.912567 111.788193,155.473038 111.227707C156.033524 110.667236,156.348465 109.907089,156.348465 109.114395Z" style="fill: rgb(100.000000%,100.000000%,100.000000%);stroke: none;"></path>
  <path d="M148.768600 95.267242C148.768600 94.474548,148.453659 93.714401,147.893173 93.153931C147.332703 92.593445,146.572556 92.278503,145.779861 92.278503C144.987167 92.278503,144.227020 92.593445,143.666550 93.153931C143.106064 93.714401,142.791122 94.474548,142.791122 95.267242C142.791122 96.059937,143.106064 96.820084,143.666550 97.380554C144.227020 97.941040,144.987167 98.255981,145.779861 98.255981C146.572556 98.255981,147.332703 97.941040,147.893173 97.380554C148.453659 96.820084,148.768600 96.059937,148.768600 95.267242Z" style="fill: rgb(100.000000%,100.000000%,100.000000%);stroke: none;"></path>
  <path d="M166.997971 143.925842C166.997971 143.133148,166.683029 142.373001,166.122543 141.812531C165.562073 141.252045,164.801926 140.937103,164.009232 140.937103C163.216537 140.937103,162.456390 141.252045,161.895920 141.812531C161.335434 142.373001,161.020493 143.133148,161.020493 143.925842C161.020493 144.718536,161.335434 145.478683,161.895920 146.039154C162.456390 146.599640,163.216537 146.914581,164.009232 146.914581C164.801926 146.914581,165.562073 146.599640,166.122543 146.039154C166.683029 145.478683,166.997971 144.718536,166.997971 143.925842Z" style="fill: rgb(100.000000%,100.000000%,100.000000%);stroke: none;"></path>
  <path d="M163.789169 116.894775C163.789169 116.102081,163.474228 115.341934,162.913742 114.781464C162.353271 114.220978,161.593124 113.906036,160.800430 113.906036C160.007736 113.906036,159.247589 114.220978,158.687119 114.781464C158.126633 115.341934,157.811691 116.102081,157.811691 116.894775C157.811691 117.687469,158.126633 118.447617,158.687119 119.008087C159.247589 119.568573,160.007736 119.883514,160.800430 119.883514C161.593124 119.883514,162.353271 119.568573,162.913742 119.008087C163.474228 118.447617,163.789169 117.687469,163.789169 116.894775Z" style="fill: rgb(100.000000%,100.000000%,100.000000%);stroke: none;"></path>
  <path d="M122.302277 175.320602C122.302277 174.527908,121.987335 173.767761,121.426849 173.207291C120.866379 172.646805,120.106232 172.331863,119.313538 172.331863C118.520844 172.331863,117.760696 172.646805,117.200226 173.207291C116.639740 173.767761,116.324799 174.527908,116.324799 175.320602C116.324799 176.113297,116.639740 176.873444,117.200226 177.433914C117.760696 177.994400,118.520844 178.309341,119.313538 178.309341C120.106232 178.309341,120.866379 177.994400,121.426849 177.433914C121.987335 176.873444,122.302277 176.113297,122.302277 175.320602Z" style="fill: rgb(100.000000%,100.000000%,100.000000%);stroke: none;"></path>
  <path d="M152.596069 156.726562C152.596069 155.933868,152.281128 155.173721,151.720642 154.613251C151.160172 154.052765,150.400024 153.737823,149.607330 153.737823C148.814636 153.737823,148.054489 154.052765,147.494019 154.613251C146.933533 155.173721,146.618591 155.933868,146.618591 156.726562C146.618591 157.519257,146.933533 158.279404,147.494019 158.839874C148.054489 159.400360,148.814636 159.715302,149.607330 159.715302C150.400024 159.715302,151.160172 159.400360,151.720642 158.839874C152.281128 158.279404,152.596069 157.519257,152.596069 156.726562Z" style="fill: rgb(100.000000%,100.000000%,100.000000%);stroke: none;"></path>
  <path d="M80.127472 165.227615C80.127472 164.434921,79.812531 163.674774,79.252045 163.114304C78.691574 162.553818,77.931427 162.238876,77.138733 162.238876C76.346039 162.238876,75.585892 162.553818,75.025421 163.114304C74.464935 163.674774,74.149994 164.434921,74.149994 165.227615C74.149994 166.020309,74.464935 166.780457,75.025421 167.340927C75.585892 167.901413,76.346039 168.216354,77.138733 168.216354C77.931427 168.216354,78.691574 167.901413,79.252045 167.340927C79.812531 166.780457,80.127472 166.020309,80.127472 165.227615Z" style="fill: rgb(100.000000%,100.000000%,100.000000%);stroke: none;"></path>
  <path d="M103.967896 182.312805C103.967896 181.520111,103.652954 180.759964,103.092468 180.199493C102.531998 179.639008,101.771851 179.324066,100.979156 179.324066C100.186462 179.324066,99.426315 179.639008,98.865845 180.199493C98.305359 180.759964,97.990417 181.520111,97.990417 182.312805C97.990417 183.105499,98.305359 183.865646,98.865845 184.426117C99.426315 184.986603,100.186462 185.301544,100.979156 185.301544C101.771851 185.301544,102.531998 184.986603,103.092468 184.426117C103.652954 183.865646,103.967896 183.105499,103.967896 182.312805Z" style="fill: rgb(100.000000%,100.000000%,100.000000%);stroke: none;"></path>
  <path d="M52.844543 148.165131C52.844543 147.372437,52.529602 146.612289,51.969116 146.051819C51.408646 145.491333,50.648499 145.176392,49.855804 145.176392C49.063110 145.176392,48.302963 145.491333,47.742493 146.051819C47.182007 146.612289,46.867065 147.372437,46.867065 148.165131C46.867065 148.957825,47.182007 149.717972,47.742493 150.278442C48.302963 150.838928,49.063110 151.153870,49.855804 151.153870C50.648499 151.153870,51.408646 150.838928,51.969116 150.278442C52.529602 149.717972,52.844543 148.957825,52.844543 148.165131Z" style="fill: rgb(100.000000%,100.000000%,100.000000%);stroke: none;"></path>
  <path d="M75.819046 150.390961C75.819046 149.598267,75.504105 148.838120,74.943619 148.277649C74.383148 147.717163,73.623001 147.402222,72.830307 147.402222C72.037613 147.402222,71.277466 147.717163,70.716995 148.277649C70.156509 148.838120,69.841568 149.598267,69.841568 150.390961C69.841568 151.183655,70.156509 151.943802,70.716995 152.504272C71.277466 153.064758,72.037613 153.379700,72.830307 153.379700C73.623001 153.379700,74.383148 153.064758,74.943619 152.504272C75.504105 151.943802,75.819046 151.183655,75.819046 150.390961Z" style="fill: rgb(100.000000%,100.000000%,100.000000%);stroke: none;"></path>
  <path d="M25.175964 160.810593C25.175964 160.017899,24.861023 159.257751,24.300537 158.697281C23.740067 158.136795,22.979919 157.821854,22.187225 157.821854C21.394531 157.821854,20.634384 158.136795,20.073914 158.697281C19.513428 159.257751,19.198486 160.017899,19.198486 160.810593C19.198486 161.603287,19.513428 162.363434,20.073914 162.923904C20.634384 163.484390,21.394531 163.799332,22.187225 163.799332C22.979919 163.799332,23.740067 163.484390,24.300537 162.923904C24.861023 162.363434,25.175964 161.603287,25.175964 160.810593Z" style="fill: rgb(100.000000%,100.000000%,100.000000%);stroke: none;"></path>
  <path d="M45.194702 158.357651C45.194702 157.564957,44.879761 156.804810,44.319275 156.244339C43.758804 155.683853,42.998657 155.368912,42.205963 155.368912C41.413269 155.368912,40.653122 155.683853,40.092651 156.244339C39.532166 156.804810,39.217224 157.564957,39.217224 158.357651C39.217224 159.150345,39.532166 159.910492,40.092651 160.470963C40.653122 161.031448,41.413269 161.346390,42.205963 161.346390C42.998657 161.346390,43.758804 161.031448,44.319275 160.470963C44.879761 159.910492,45.194702 159.150345,45.194702 158.357651Z" style="fill: rgb(100.000000%,100.000000%,100.000000%);stroke: none;"></path>
  <path d="M7.978836 136.390854C7.978836 135.598160,7.663895 134.838013,7.103409 134.277542C6.542938 133.717056,5.782791 133.402115,4.990097 133.402115C4.197403 133.402115,3.437256 133.717056,2.876785 134.277542C2.316299 134.838013,2.001358 135.598160,2.001358 136.390854C2.001358 137.183548,2.316299 137.943695,2.876785 138.504166C3.437256 139.064651,4.197403 139.379593,4.990097 139.379593C5.782791 139.379593,6.542938 139.064651,7.103409 138.504166C7.663895 137.943695,7.978836 137.183548,7.978836 136.390854Z" style="fill: rgb(100.000000%,100.000000%,100.000000%);stroke: none;"></path>
  <path d="M16.455017 154.102585C16.455017 153.309891,16.140076 152.549744,15.579590 151.989273C15.019119 151.428787,14.258972 151.113846,13.466278 151.113846C12.673584 151.113846,11.913437 151.428787,11.352966 151.989273C10.792480 152.549744,10.477539 153.309891,10.477539 154.102585C10.477539 154.895279,10.792480 155.655426,11.352966 156.215897C11.913437 156.776382,12.673584 157.091324,13.466278 157.091324C14.258972 157.091324,15.019119 156.776382,15.579590 156.215897C16.140076 155.655426,16.455017 154.895279,16.455017 154.102585Z" style="fill: rgb(100.000000%,100.000000%,100.000000%);stroke: none;"></path>
  <path d="M20.458893 112.851990C20.458893 112.059296,20.143951 111.299149,19.583466 110.738678C19.022995 110.178192,18.262848 109.863251,17.470154 109.863251C16.677460 109.863251,15.917313 110.178192,15.356842 110.738678C14.796356 111.299149,14.481415 112.059296,14.481415 112.851990C14.481415 113.644684,14.796356 114.404831,15.356842 114.965302C15.917313 115.525787,16.677460 115.840729,17.470154 115.840729C18.262848 115.840729,19.022995 115.525787,19.583466 114.965302C20.143951 114.404831,20.458893 113.644684,20.458893 112.851990Z" style="fill: rgb(100.000000%,100.000000%,100.000000%);stroke: none;"></path>
  <path d="M7.940216 126.106537C7.940216 125.313843,7.625275 124.553696,7.064789 123.993225C6.504318 123.432739,5.744171 123.117798,4.951477 123.117798C4.158783 123.117798,3.398636 123.432739,2.838165 123.993225C2.277679 124.553696,1.962738 125.313843,1.962738 126.106537C1.962738 126.899231,2.277679 127.659378,2.838165 128.219849C3.398636 128.780334,4.158783 129.095276,4.951477 129.095276C5.744171 129.095276,6.504318 128.780334,7.064789 128.219849C7.625275 127.659378,7.940216 126.899231,7.940216 126.106537Z" style="fill: rgb(100.000000%,100.000000%,100.000000%);stroke: none;"></path>
  <path d="M37.666687 93.283920C37.666687 92.491226,37.351746 91.731079,36.791260 91.170609C36.230789 90.610123,35.470642 90.295181,34.677948 90.295181C33.885254 90.295181,33.125107 90.610123,32.564636 91.170609C32.004150 91.731079,31.689209 92.491226,31.689209 93.283920C31.689209 94.076614,32.004150 94.836761,32.564636 95.397232C33.125107 95.957718,33.885254 96.272659,34.677948 96.272659C35.470642 96.272659,36.230789 95.957718,36.791260 95.397232C37.351746 94.836761,37.666687 94.076614,37.666687 93.283920Z" style="fill: rgb(100.000000%,100.000000%,100.000000%);stroke: none;"></path>
  <path d="M31.617752 111.527130C31.617752 110.734436,31.302811 109.974289,30.742325 109.413818C30.181854 108.853333,29.421707 108.538391,28.629013 108.538391C27.836319 108.538391,27.076172 108.853333,26.515701 109.413818C25.955215 109.974289,25.640274 110.734436,25.640274 111.527130C25.640274 112.319824,25.955215 113.079971,26.515701 113.640442C27.076172 114.200928,27.836319 114.515869,28.629013 114.515869C29.421707 114.515869,30.181854 114.200928,30.742325 113.640442C31.302811 113.079971,31.617752 112.319824,31.617752 111.527130Z" style="fill: rgb(100.000000%,100.000000%,100.000000%);stroke: none;"></path>
  <path d="M24.651642 64.367889C24.651642 63.575195,24.336700 62.815048,23.776215 62.254578C23.215744 61.694092,22.455597 61.379150,21.662903 61.379150C20.870209 61.379150,20.110062 61.694092,19.549591 62.254578C18.989105 62.815048,18.674164 63.575195,18.674164 64.367889C18.674164 65.160583,18.989105 65.920731,19.549591 66.481201C20.110062 67.041687,20.870209 67.356628,21.662903 67.356628C22.455597 67.356628,23.215744 67.041687,23.776215 66.481201C24.336700 65.920731,24.651642 65.160583,24.651642 64.367889Z" style="fill: rgb(100.000000%,100.000000%,100.000000%);stroke: none;"></path>
  <path d="M28.161896 85.406174C28.161896 84.613480,27.846954 83.853333,27.286469 83.292862C26.725998 82.732376,25.965851 82.417435,25.173157 82.417435C24.380463 82.417435,23.620316 82.732376,23.059845 83.292862C22.499359 83.853333,22.184418 84.613480,22.184418 85.406174C22.184418 86.198868,22.499359 86.959015,23.059845 87.519485C23.620316 88.079971,24.380463 88.394913,25.173157 88.394913C25.965851 88.394913,26.725998 88.079971,27.286469 87.519485C27.846954 86.959015,28.161896 86.198868,28.161896 85.406174Z" style="fill: rgb(100.000000%,100.000000%,100.000000%);stroke: none;"></path>
  <path d="M46.230804 35.955933C46.230804 35.163239,45.915863 34.403091,45.355377 33.842621C44.794907 33.282135,44.034760 32.967194,43.242065 32.967194C42.449371 32.967194,41.689224 33.282135,41.128754 33.842621C40.568268 34.403091,40.253326 35.163239,40.253326 35.955933C40.253326 36.748627,40.568268 37.508774,41.128754 38.069244C41.689224 38.629730,42.449371 38.944672,43.242065 38.944672C44.034760 38.944672,44.794907 38.629730,45.355377 38.069244C45.915863 37.508774,46.230804 36.748627,46.230804 35.955933Z" style="fill: rgb(100.000000%,100.000000%,100.000000%);stroke: none;"></path>
  <path d="M34.080551 55.153900C34.080551 54.361206,33.765610 53.601059,33.205124 53.040588C32.644653 52.480103,31.884506 52.165161,31.091812 52.165161C30.299118 52.165161,29.538971 52.480103,28.978500 53.040588C28.418015 53.601059,28.103073 54.361206,28.103073 55.153900C28.103073 55.946594,28.418015 56.706741,28.978500 57.267212C29.538971 57.827698,30.299118 58.142639,31.091812 58.142639C31.884506 58.142639,32.644653 57.827698,33.205124 57.267212C33.765610 56.706741,34.080551 55.946594,34.080551 55.153900Z" style="fill: rgb(100.000000%,100.000000%,100.000000%);stroke: none;"></path>
  <path d="M68.326416 22.588440C68.326416 21.795746,68.011475 21.035599,67.450989 20.475128C66.890518 19.914642,66.130371 19.599701,65.337677 19.599701C64.544983 19.599701,63.784836 19.914642,63.224365 20.475128C62.663879 21.035599,62.348938 21.795746,62.348938 22.588440C62.348938 23.381134,62.663879 24.141281,63.224365 24.701752C63.784836 25.262238,64.544983 25.577179,65.337677 25.577179C66.130371 25.577179,66.890518 25.262238,67.450989 24.701752C68.011475 24.141281,68.326416 23.381134,68.326416 22.588440Z" style="fill: rgb(100.000000%,100.000000%,100.000000%);stroke: none;"></path>
  <path d="M51.035416 24.300171C51.035416 23.507477,50.720474 22.747330,50.159988 22.186859C49.599518 21.626373,48.839371 21.311432,48.046677 21.311432C47.253983 21.311432,46.493835 21.626373,45.933365 22.186859C45.372879 22.747330,45.057938 23.507477,45.057938 24.300171C45.057938 25.092865,45.372879 25.853012,45.933365 26.413483C46.493835 26.973969,47.253983 27.288910,48.046677 27.288910C48.839371 27.288910,49.599518 26.973969,50.159988 26.413483C50.720474 25.853012,51.035416 25.092865,51.035416 24.300171Z" style="fill: rgb(100.000000%,100.000000%,100.000000%);stroke: none;"></path>
  <path d="M87.762070 24.398285C87.762070 23.605591,87.447128 22.845444,86.886642 22.284973C86.326172 21.724487,85.566025 21.409546,84.773331 21.409546C83.980637 21.409546,83.220490 21.724487,82.660019 22.284973C82.099533 22.845444,81.784592 23.605591,81.784592 24.398285C81.784592 25.190979,82.099533 25.951126,82.660019 26.511597C83.220490 27.072083,83.980637 27.387024,84.773331 27.387024C85.566025 27.387024,86.326172 27.072083,86.886642 26.511597C87.447128 25.951126,87.762070 25.190979,87.762070 24.398285Z" style="fill: rgb(100.000000%,100.000000%,100.000000%);stroke: none;"></path>
  <path d="M74.412735 26.572189C74.412735 25.779495,74.097794 25.019348,73.537308 24.458878C72.976837 23.898392,72.216690 23.583450,71.423996 23.583450C70.631302 23.583450,69.871155 23.898392,69.310684 24.458878C68.750198 25.019348,68.435257 25.779495,68.435257 26.572189C68.435257 27.364883,68.750198 28.125031,69.310684 28.685501C69.871155 29.245987,70.631302 29.560928,71.423996 29.560928C72.216690 29.560928,72.976837 29.245987,73.537308 28.685501C74.097794 28.125031,74.412735 27.364883,74.412735 26.572189Z" style="fill: rgb(100.000000%,100.000000%,100.000000%);stroke: none;"></path>
  <path d="M111.833176 9.796188C111.833176 9.003494,111.518234 8.243347,110.957748 7.682877C110.397278 7.122391,109.637131 6.807449,108.844437 6.807449C108.051743 6.807449,107.291595 7.122391,106.731125 7.682877C106.170639 8.243347,105.855698 9.003494,105.855698 9.796188C105.855698 10.588882,106.170639 11.349030,106.731125 11.909500C107.291595 12.469986,108.051743 12.784927,108.844437 12.784927C109.637131 12.784927,110.397278 12.469986,110.957748 11.909500C111.518234 11.349030,111.833176 10.588882,111.833176 9.796188Z" style="fill: rgb(100.000000%,100.000000%,100.000000%);stroke: none;"></path>
  <path d="M92.236938 17.788651C92.236938 16.995956,91.921997 16.235809,91.361511 15.675339C90.801041 15.114853,90.040894 14.799911,89.248199 14.799911C88.455505 14.799911,87.695358 15.114853,87.134888 15.675339C86.574402 16.235809,86.259460 16.995956,86.259460 17.788651C86.259460 18.581345,86.574402 19.341492,87.134888 19.901962C87.695358 20.462448,88.455505 20.777390,89.248199 20.777390C90.040894 20.777390,90.801041 20.462448,91.361511 19.901962C91.921997 19.341492,92.236938 18.581345,92.236938 17.788651Z" style="fill: rgb(100.000000%,100.000000%,100.000000%);stroke: none;"></path>
  <path d="M147.810669 37.508804C147.810669 36.716110,147.495728 35.955963,146.935242 35.395493C146.374771 34.835007,145.614624 34.520065,144.821930 34.520065C144.029236 34.520065,143.269089 34.835007,142.708618 35.395493C142.148132 35.955963,141.833191 36.716110,141.833191 37.508804C141.833191 38.301498,142.148132 39.061646,142.708618 39.622116C143.269089 40.182602,144.029236 40.497543,144.821930 40.497543C145.614624 40.497543,146.374771 40.182602,146.935242 39.622116C147.495728 39.061646,147.810669 38.301498,147.810669 37.508804Z" style="fill: rgb(100.000000%,100.000000%,100.000000%);stroke: none;"></path>
  <path d="M124.190582 20.540787C124.190582 19.748093,123.875641 18.987946,123.315155 18.427475C122.754684 17.866989,121.994537 17.552048,121.201843 17.552048C120.409149 17.552048,119.649002 17.866989,119.088531 18.427475C118.528046 18.987946,118.213104 19.748093,118.213104 20.540787C118.213104 21.333481,118.528046 22.093628,119.088531 22.654099C119.649002 23.214584,120.409149 23.529526,121.201843 23.529526C121.994537 23.529526,122.754684 23.214584,123.315155 22.654099C123.875641 22.093628,124.190582 21.333481,124.190582 20.540787Z" style="fill: rgb(100.000000%,100.000000%,100.000000%);stroke: none;"></path>
  <path d="M166.451538 67.417770C166.451538 66.625076,166.136597 65.864929,165.576111 65.304459C165.015640 64.743973,164.255493 64.429031,163.462799 64.429031C162.670105 64.429031,161.909958 64.743973,161.349487 65.304459C160.789001 65.864929,160.474060 66.625076,160.474060 67.417770C160.474060 68.210464,160.789001 68.970612,161.349487 69.531082C161.909958 70.091568,162.670105 70.406509,163.462799 70.406509C164.255493 70.406509,165.015640 70.091568,165.576111 69.531082C166.136597 68.970612,166.451538 68.210464,166.451538 67.417770Z" style="fill: rgb(100.000000%,100.000000%,100.000000%);stroke: none;"></path>
  <path d="M162.392349 44.805374C162.392349 44.012680,162.077408 43.252533,161.516922 42.692062C160.956451 42.131577,160.196304 41.816635,159.403610 41.816635C158.610916 41.816635,157.850769 42.131577,157.290298 42.692062C156.729813 43.252533,156.414871 44.012680,156.414871 44.805374C156.414871 45.598068,156.729813 46.358215,157.290298 46.918686C157.850769 47.479172,158.610916 47.794113,159.403610 47.794113C160.196304 47.794113,160.956451 47.479172,161.516922 46.918686C162.077408 46.358215,162.392349 45.598068,162.392349 44.805374Z" style="fill: rgb(100.000000%,100.000000%,100.000000%);stroke: none;"></path>
  <path d="M152.823593 82.766830C152.823593 81.974136,152.508652 81.213989,151.948166 80.653519C151.387695 80.093033,150.627548 79.778091,149.834854 79.778091C149.042160 79.778091,148.282013 80.093033,147.721542 80.653519C147.161057 81.213989,146.846115 81.974136,146.846115 82.766830C146.846115 83.559525,147.161057 84.319672,147.721542 84.880142C148.282013 85.440628,149.042160 85.755569,149.834854 85.755569C150.627548 85.755569,151.387695 85.440628,151.948166 84.880142C152.508652 84.319672,152.823593 83.559525,152.823593 82.766830Z" style="fill: rgb(100.000000%,100.000000%,100.000000%);stroke: none;"></path>
  <path d="M163.239594 75.757980C163.239594 74.965286,162.924652 74.205139,162.364166 73.644669C161.803696 73.084183,161.043549 72.769241,160.250854 72.769241C159.458160 72.769241,158.698013 73.084183,158.137543 73.644669C157.577057 74.205139,157.262115 74.965286,157.262115 75.757980C157.262115 76.550674,157.577057 77.310822,158.137543 77.871292C158.698013 78.431778,159.458160 78.746719,160.250854 78.746719C161.043549 78.746719,161.803696 78.431778,162.364166 77.871292C162.924652 77.310822,163.239594 76.550674,163.239594 75.757980Z" style="fill: rgb(100.000000%,100.000000%,100.000000%);stroke: none;"></path>
  <path d="M138.123306 86.180252C138.123306 85.387558,137.808365 84.627411,137.247879 84.066940C136.687408 83.506454,135.927261 83.191513,135.134567 83.191513C134.341873 83.191513,133.581726 83.506454,133.021255 84.066940C132.460770 84.627411,132.145828 85.387558,132.145828 86.180252C132.145828 86.972946,132.460770 87.733093,133.021255 88.293564C133.581726 88.854050,134.341873 89.168991,135.134567 89.168991C135.927261 89.168991,136.687408 88.854050,137.247879 88.293564C137.808365 87.733093,138.123306 86.972946,138.123306 86.180252Z" style="fill: rgb(100.000000%,100.000000%,100.000000%);stroke: none;"></path>
  <path d="M148.591171 83.838196C148.591171 83.045502,148.276230 82.285355,147.715744 81.724884C147.155273 81.164398,146.395126 80.849457,145.602432 80.849457C144.809738 80.849457,144.049591 81.164398,143.489120 81.724884C142.928635 82.285355,142.613693 83.045502,142.613693 83.838196C142.613693 84.630890,142.928635 85.391037,143.489120 85.951508C144.049591 86.511993,144.809738 86.826935,145.602432 86.826935C146.395126 86.826935,147.155273 86.511993,147.715744 85.951508C148.276230 85.391037,148.591171 84.630890,148.591171 83.838196Z" style="fill: rgb(100.000000%,100.000000%,100.000000%);stroke: none;"></path>
  <path d="M120.616669 95.665924C120.616669 94.873230,120.301727 94.113083,119.741241 93.552612C119.180771 92.992126,118.420624 92.677185,117.627930 92.677185C116.835236 92.677185,116.075089 92.992126,115.514618 93.552612C114.954132 94.113083,114.639191 94.873230,114.639191 95.665924C114.639191 96.458618,114.954132 97.218765,115.514618 97.779236C116.075089 98.339722,116.835236 98.654663,117.627930 98.654663C118.420624 98.654663,119.180771 98.339722,119.741241 97.779236C120.301727 97.218765,120.616669 96.458618,120.616669 95.665924Z" style="fill: rgb(100.000000%,100.000000%,100.000000%);stroke: none;"></path>
  <path d="M131.639877 87.425537C131.639877 86.632843,131.324936 85.872696,130.764450 85.312225C130.203979 84.751740,129.443832 84.436798,128.651138 84.436798C127.858444 84.436798,127.098297 84.751740,126.537827 85.312225C125.977341 85.872696,125.662399 86.632843,125.662399 87.425537C125.662399 88.218231,125.977341 88.978378,126.537827 89.538849C127.098297 90.099335,127.858444 90.414276,128.651138 90.414276C129.443832 90.414276,130.203979 90.099335,130.764450 89.538849C131.324936 88.978378,131.639877 88.218231,131.639877 87.425537Z" style="fill: rgb(100.000000%,100.000000%,100.000000%);stroke: none;"></path>
  <path d="M108.366089 116.818710C108.366089 116.026016,108.051147 115.265869,107.490662 114.705399C106.930191 114.144913,106.170044 113.829971,105.377350 113.829971C104.584656 113.829971,103.824509 114.144913,103.264038 114.705399C102.703552 115.265869,102.388611 116.026016,102.388611 116.818710C102.388611 117.611404,102.703552 118.371552,103.264038 118.932022C103.824509 119.492508,104.584656 119.807449,105.377350 119.807449C106.170044 119.807449,106.930191 119.492508,107.490662 118.932022C108.051147 118.371552,108.366089 117.611404,108.366089 116.818710Z" style="fill: rgb(100.000000%,100.000000%,100.000000%);stroke: none;"></path>
  <path d="M117.552979 102.583862C117.552979 101.791168,117.238037 101.031021,116.677551 100.470551C116.117081 99.910065,115.356934 99.595123,114.564240 99.595123C113.771545 99.595123,113.011398 99.910065,112.450928 100.470551C111.890442 101.031021,111.575500 101.791168,111.575500 102.583862C111.575500 103.376556,111.890442 104.136703,112.450928 104.697174C113.011398 105.257660,113.771545 105.572601,114.564240 105.572601C115.356934 105.572601,116.117081 105.257660,116.677551 104.697174C117.238037 104.136703,117.552979 103.376556,117.552979 102.583862Z" style="fill: rgb(100.000000%,100.000000%,100.000000%);stroke: none;"></path>
  <path d="M93.569687 145.763153C93.569687 144.970459,93.254745 144.210312,92.694260 143.649841C92.133789 143.089355,91.373642 142.774414,90.580948 142.774414C89.788254 142.774414,89.028107 143.089355,88.467636 143.649841C87.907150 144.210312,87.592209 144.970459,87.592209 145.763153C87.592209 146.555847,87.907150 147.315994,88.467636 147.876465C89.028107 148.436951,89.788254 148.751892,90.580948 148.751892C91.373642 148.751892,92.133789 148.436951,92.694260 147.876465C93.254745 147.315994,93.569687 146.555847,93.569687 145.763153Z" style="fill: rgb(100.000000%,100.000000%,100.000000%);stroke: none;"></path>
  <path d="M101.305756 123.857544C101.305756 123.064850,100.990814 122.304703,100.430328 121.744232C99.869858 121.183746,99.109711 120.868805,98.317017 120.868805C97.524323 120.868805,96.764175 121.183746,96.203705 121.744232C95.643219 122.304703,95.328278 123.064850,95.328278 123.857544C95.328278 124.650238,95.643219 125.410385,96.203705 125.970856C96.764175 126.531342,97.524323 126.846283,98.317017 126.846283C99.109711 126.846283,99.869858 126.531342,100.430328 125.970856C100.990814 125.410385,101.305756 124.650238,101.305756 123.857544Z" style="fill: rgb(100.000000%,100.000000%,100.000000%);stroke: none;"></path>
  <path d="M82.800903 183.563950C82.800903 182.771255,82.485962 182.011108,81.925476 181.450638C81.365005 180.890152,80.604858 180.575211,79.812164 180.575211C79.019470 180.575211,78.259323 180.890152,77.698853 181.450638C77.138367 182.011108,76.823425 182.771255,76.823425 183.563950C76.823425 184.356644,77.138367 185.116791,77.698853 185.677261C78.259323 186.237747,79.019470 186.552689,79.812164 186.552689C80.604858 186.552689,81.365005 186.237747,81.925476 185.677261C82.485962 185.116791,82.800903 184.356644,82.800903 183.563950Z" style="fill: rgb(100.000000%,100.000000%,100.000000%);stroke: none;"></path>
  <path d="M97.288803 160.701920C97.288803 159.909225,96.973862 159.149078,96.413376 158.588608C95.852905 158.028122,95.092758 157.713181,94.300064 157.713181C93.507370 157.713181,92.747223 158.028122,92.186752 158.588608C91.626266 159.149078,91.311325 159.909225,91.311325 160.701920C91.311325 161.494614,91.626266 162.254761,92.186752 162.815231C92.747223 163.375717,93.507370 163.690659,94.300064 163.690659C95.092758 163.690659,95.852905 163.375717,96.413376 162.815231C96.973862 162.254761,97.288803 161.494614,97.288803 160.701920Z" style="fill: rgb(100.000000%,100.000000%,100.000000%);stroke: none;"></path>
  <path d="M44.052872 180.246536C44.052872 179.453842,43.737930 178.693695,43.177444 178.133224C42.616974 177.572739,41.856827 177.257797,41.064133 177.257797C40.271439 177.257797,39.511292 177.572739,38.950821 178.133224C38.390335 178.693695,38.075394 179.453842,38.075394 180.246536C38.075394 181.039230,38.390335 181.799377,38.950821 182.359848C39.511292 182.920334,40.271439 183.235275,41.064133 183.235275C41.856827 183.235275,42.616974 182.920334,43.177444 182.359848C43.737930 181.799377,44.052872 181.039230,44.052872 180.246536Z" style="fill: rgb(100.000000%,100.000000%,100.000000%);stroke: none;"></path>
  <path d="M68.447800 187.414337C68.447800 186.621643,68.132858 185.861496,67.572372 185.301025C67.011902 184.740540,66.251755 184.425598,65.459061 184.425598C64.666367 184.425598,63.906219 184.740540,63.345749 185.301025C62.785263 185.861496,62.470322 186.621643,62.470322 187.414337C62.470322 188.207031,62.785263 188.967178,63.345749 189.527649C63.906219 190.088135,64.666367 190.403076,65.459061 190.403076C66.251755 190.403076,67.011902 190.088135,67.572372 189.527649C68.132858 188.967178,68.447800 188.207031,68.447800 187.414337Z" style="fill: rgb(100.000000%,100.000000%,100.000000%);stroke: none;"></path>
  <path d="M35.098083 150.033234C35.098083 149.240540,34.783142 148.480392,34.222656 147.919922C33.662186 147.359436,32.902039 147.044495,32.109344 147.044495C31.316650 147.044495,30.556503 147.359436,29.996033 147.919922C29.435547 148.480392,29.120605 149.240540,29.120605 150.033234C29.120605 150.825928,29.435547 151.586075,29.996033 152.146545C30.556503 152.707031,31.316650 153.021973,32.109344 153.021973C32.902039 153.021973,33.662186 152.707031,34.222656 152.146545C34.783142 151.586075,35.098083 150.825928,35.098083 150.033234Z" style="fill: rgb(100.000000%,100.000000%,100.000000%);stroke: none;"></path>
  <path d="M34.897858 171.141708C34.897858 170.349014,34.582916 169.588867,34.022430 169.028397C33.461960 168.467911,32.701813 168.152969,31.909119 168.152969C31.116425 168.152969,30.356277 168.467911,29.795807 169.028397C29.235321 169.588867,28.920380 170.349014,28.920380 171.141708C28.920380 171.934402,29.235321 172.694550,29.795807 173.255020C30.356277 173.815506,31.116425 174.130447,31.909119 174.130447C32.701813 174.130447,33.461960 173.815506,34.022430 173.255020C34.582916 172.694550,34.897858 171.934402,34.897858 171.141708Z" style="fill: rgb(100.000000%,100.000000%,100.000000%);stroke: none;"></path>
  <path d="M32.488434 123.920227C32.488434 123.127533,32.173492 122.367386,31.613007 121.806915C31.052536 121.246429,30.292389 120.931488,29.499695 120.931488C28.707001 120.931488,27.946854 121.246429,27.386383 121.806915C26.825897 122.367386,26.510956 123.127533,26.510956 123.920227C26.510956 124.712921,26.825897 125.473068,27.386383 126.033539C27.946854 126.594025,28.707001 126.908966,29.499695 126.908966C30.292389 126.908966,31.052536 126.594025,31.613007 126.033539C32.173492 125.473068,32.488434 124.712921,32.488434 123.920227Z" style="fill: rgb(100.000000%,100.000000%,100.000000%);stroke: none;"></path>
  <path d="M42.272903 140.321808C42.272903 139.529114,41.957962 138.768967,41.397476 138.208496C40.837006 137.648010,40.076859 137.333069,39.284164 137.333069C38.491470 137.333069,37.731323 137.648010,37.170853 138.208496C36.610367 138.768967,36.295425 139.529114,36.295425 140.321808C36.295425 141.114502,36.610367 141.874649,37.170853 142.435120C37.731323 142.995605,38.491470 143.310547,39.284164 143.310547C40.076859 143.310547,40.837006 142.995605,41.397476 142.435120C41.957962 141.874649,42.272903 141.114502,42.272903 140.321808Z" style="fill: rgb(100.000000%,100.000000%,100.000000%);stroke: none;"></path>
  <path d="M7.035416 113.861816C7.035416 113.069122,6.720474 112.308975,6.159988 111.748505C5.599518 111.188019,4.839371 110.873077,4.046677 110.873077C3.253983 110.873077,2.493835 111.188019,1.933365 111.748505C1.372879 112.308975,1.057938 113.069122,1.057938 113.861816C1.057938 114.654510,1.372879 115.414658,1.933365 115.975128C2.493835 116.535614,3.253983 116.850555,4.046677 116.850555C4.839371 116.850555,5.599518 116.535614,6.159988 115.975128C6.720474 115.414658,7.035416 114.654510,7.035416 113.861816Z" style="fill: rgb(100.000000%,100.000000%,100.000000%);stroke: none;"></path>
  <path d="M21.431931 124.645920C21.431931 123.853226,21.116989 123.093079,20.556503 122.532608C19.996033 121.972122,19.235886 121.657181,18.443192 121.657181C17.650497 121.657181,16.890350 121.972122,16.329880 122.532608C15.769394 123.093079,15.454453 123.853226,15.454453 124.645920C15.454453 125.438614,15.769394 126.198761,16.329880 126.759232C16.890350 127.319717,17.650497 127.634659,18.443192 127.634659C19.235886 127.634659,19.996033 127.319717,20.556503 126.759232C21.116989 126.198761,21.431931 125.438614,21.431931 124.645920Z" style="fill: rgb(100.000000%,100.000000%,100.000000%);stroke: none;"></path>
  <path d="M10.319839 85.620743C10.319839 84.828049,10.004898 84.067902,9.444412 83.507431C8.883942 82.946945,8.123795 82.632004,7.331100 82.632004C6.538406 82.632004,5.778259 82.946945,5.217789 83.507431C4.657303 84.067902,4.342361 84.828049,4.342361 85.620743C4.342361 86.413437,4.657303 87.173584,5.217789 87.734055C5.778259 88.294540,6.538406 88.609482,7.331100 88.609482C8.123795 88.609482,8.883942 88.294540,9.444412 87.734055C10.004898 87.173584,10.319839 86.413437,10.319839 85.620743Z" style="fill: rgb(100.000000%,100.000000%,100.000000%);stroke: none;"></path>
  <path d="M5.301178 103.956909C5.301178 103.164215,4.986237 102.404068,4.425751 101.843597C3.865280 101.283112,3.105133 100.968170,2.312439 100.968170C1.519745 100.968170,0.759598 101.283112,0.199127 101.843597C-0.361359 102.404068,-0.676300 103.164215,-0.676300 103.956909C-0.676300 104.749603,-0.361359 105.509750,0.199127 106.070221C0.759598 106.630707,1.519745 106.945648,2.312439 106.945648C3.105133 106.945648,3.865280 106.630707,4.425751 106.070221C4.986237 105.509750,5.301178 104.749603,5.301178 103.956909Z" style="fill: rgb(100.000000%,100.000000%,100.000000%);stroke: none;"></path>
  <path d="M37.018906 74.027863C37.018906 73.235168,36.703964 72.475021,36.143478 71.914551C35.583008 71.354065,34.822861 71.039124,34.030167 71.039124C33.237473 71.039124,32.477325 71.354065,31.916855 71.914551C31.356369 72.475021,31.041428 73.235168,31.041428 74.027863C31.041428 74.820557,31.356369 75.580704,31.916855 76.141174C32.477325 76.701660,33.237473 77.016602,34.030167 77.016602C34.822861 77.016602,35.583008 76.701660,36.143478 76.141174C36.703964 75.580704,37.018906 74.820557,37.018906 74.027863Z" style="fill: rgb(100.000000%,100.000000%,100.000000%);stroke: none;"></path>
  <path d="M17.146805 77.750519C17.146805 76.957825,16.831863 76.197678,16.271378 75.637207C15.710907 75.076721,14.950760 74.761780,14.158066 74.761780C13.365372 74.761780,12.605225 75.076721,12.044754 75.637207C11.484268 76.197678,11.169327 76.957825,11.169327 77.750519C11.169327 78.543213,11.484268 79.303360,12.044754 79.863831C12.605225 80.424316,13.365372 80.739258,14.158066 80.739258C14.950760 80.739258,15.710907 80.424316,16.271378 79.863831C16.831863 79.303360,17.146805 78.543213,17.146805 77.750519Z" style="fill: rgb(100.000000%,100.000000%,100.000000%);stroke: none;"></path>
  <path d="M65.262085 79.009750C65.262085 78.217056,64.947144 77.456909,64.386658 76.896439C63.826187 76.335953,63.066040 76.021011,62.273346 76.021011C61.480652 76.021011,60.720505 76.335953,60.160034 76.896439C59.599548 77.456909,59.284607 78.217056,59.284607 79.009750C59.284607 79.802444,59.599548 80.562592,60.160034 81.123062C60.720505 81.683548,61.480652 81.998489,62.273346 81.998489C63.066040 81.998489,63.826187 81.683548,64.386658 81.123062C64.947144 80.562592,65.262085 79.802444,65.262085 79.009750Z" style="fill: rgb(100.000000%,100.000000%,100.000000%);stroke: none;"></path>
  <path d="M47.074127 80.578293C47.074127 79.785599,46.759186 79.025452,46.198700 78.464981C45.638229 77.904495,44.878082 77.589554,44.085388 77.589554C43.292694 77.589554,42.532547 77.904495,41.972076 78.464981C41.411591 79.025452,41.096649 79.785599,41.096649 80.578293C41.096649 81.370987,41.411591 82.131134,41.972076 82.691605C42.532547 83.252090,43.292694 83.567032,44.085388 83.567032C44.878082 83.567032,45.638229 83.252090,46.198700 82.691605C46.759186 82.131134,47.074127 81.370987,47.074127 80.578293Z" style="fill: rgb(100.000000%,100.000000%,100.000000%);stroke: none;"></path>
  <path d="M83.948318 70.370728C83.948318 69.578033,83.633377 68.817886,83.072891 68.257416C82.512421 67.696930,81.752274 67.381989,80.959579 67.381989C80.166885 67.381989,79.406738 67.696930,78.846268 68.257416C78.285782 68.817886,77.970840 69.578033,77.970840 70.370728C77.970840 71.163422,78.285782 71.923569,78.846268 72.484039C79.406738 73.044525,80.166885 73.359467,80.959579 73.359467C81.752274 73.359467,82.512421 73.044525,83.072891 72.484039C83.633377 71.923569,83.948318 71.163422,83.948318 70.370728Z" style="fill: rgb(100.000000%,100.000000%,100.000000%);stroke: none;"></path>
  <path d="M71.883286 74.499985C71.883286 73.707291,71.568344 72.947144,71.007858 72.386673C70.447388 71.826187,69.687241 71.511246,68.894547 71.511246C68.101852 71.511246,67.341705 71.826187,66.781235 72.386673C66.220749 72.947144,65.905807 73.707291,65.905807 74.499985C65.905807 75.292679,66.220749 76.052826,66.781235 76.613297C67.341705 77.173782,68.101852 77.488724,68.894547 77.488724C69.687241 77.488724,70.447388 77.173782,71.007858 76.613297C71.568344 76.052826,71.883286 75.292679,71.883286 74.499985Z" style="fill: rgb(100.000000%,100.000000%,100.000000%);stroke: none;"></path>
  <path d="M90.775970 59.210464C90.775970 58.417770,90.461029 57.657623,89.900543 57.097153C89.340073 56.536667,88.579926 56.221725,87.787231 56.221725C86.994537 56.221725,86.234390 56.536667,85.673920 57.097153C85.113434 57.657623,84.798492 58.417770,84.798492 59.210464C84.798492 60.003159,85.113434 60.763306,85.673920 61.323776C86.234390 61.884262,86.994537 62.199203,87.787231 62.199203C88.579926 62.199203,89.340073 61.884262,89.900543 61.323776C90.461029 60.763306,90.775970 60.003159,90.775970 59.210464Z" style="fill: rgb(100.000000%,100.000000%,100.000000%);stroke: none;"></path>
  <path d="M89.450455 68.683792C89.450455 67.891098,89.135513 67.130951,88.575027 66.570480C88.014557 66.009995,87.254410 65.695053,86.461716 65.695053C85.669022 65.695053,84.908875 66.009995,84.348404 66.570480C83.787918 67.130951,83.472977 67.891098,83.472977 68.683792C83.472977 69.476486,83.787918 70.236633,84.348404 70.797104C84.908875 71.357590,85.669022 71.672531,86.461716 71.672531C87.254410 71.672531,88.014557 71.357590,88.575027 70.797104C89.135513 70.236633,89.450455 69.476486,89.450455 68.683792Z" style="fill: rgb(100.000000%,100.000000%,100.000000%);stroke: none;"></path>
  <path d="M78.486145 50.236115C78.486145 49.443420,78.171204 48.683273,77.610718 48.122803C77.050247 47.562317,76.290100 47.247375,75.497406 47.247375C74.704712 47.247375,73.944565 47.562317,73.384094 48.122803C72.823608 48.683273,72.508667 49.443420,72.508667 50.236115C72.508667 51.028809,72.823608 51.788956,73.384094 52.349426C73.944565 52.909912,74.704712 53.224854,75.497406 53.224854C76.290100 53.224854,77.050247 52.909912,77.610718 52.349426C78.171204 51.788956,78.486145 51.028809,78.486145 50.236115Z" style="fill: rgb(100.000000%,100.000000%,100.000000%);stroke: none;"></path>
  <path d="M86.438461 56.067871C86.438461 55.275177,86.123520 54.515030,85.563034 53.954559C85.002563 53.394073,84.242416 53.079132,83.449722 53.079132C82.657028 53.079132,81.896881 53.394073,81.336411 53.954559C80.775925 54.515030,80.460983 55.275177,80.460983 56.067871C80.460983 56.860565,80.775925 57.620712,81.336411 58.181183C81.896881 58.741669,82.657028 59.056610,83.449722 59.056610C84.242416 59.056610,85.002563 58.741669,85.563034 58.181183C86.123520 57.620712,86.438461 56.860565,86.438461 56.067871Z" style="fill: rgb(100.000000%,100.000000%,100.000000%);stroke: none;"></path>
  <path d="M66.465012 37.217896C66.465012 36.425201,66.150070 35.665054,65.589584 35.104584C65.029114 34.544098,64.268967 34.229156,63.476273 34.229156C62.683578 34.229156,61.923431 34.544098,61.362961 35.104584C60.802475 35.665054,60.487534 36.425201,60.487534 37.217896C60.487534 38.010590,60.802475 38.770737,61.362961 39.331207C61.923431 39.891693,62.683578 40.206635,63.476273 40.206635C64.268967 40.206635,65.029114 39.891693,65.589584 39.331207C66.150070 38.770737,66.465012 38.010590,66.465012 37.217896Z" style="fill: rgb(100.000000%,100.000000%,100.000000%);stroke: none;"></path>
  <path d="M74.850342 46.657440C74.850342 45.864746,74.535400 45.104599,73.974915 44.544128C73.414444 43.983643,72.654297 43.668701,71.861603 43.668701C71.068909 43.668701,70.308762 43.983643,69.748291 44.544128C69.187805 45.104599,68.872864 45.864746,68.872864 46.657440C68.872864 47.450134,69.187805 48.210281,69.748291 48.770752C70.308762 49.331238,71.068909 49.646179,71.861603 49.646179C72.654297 49.646179,73.414444 49.331238,73.974915 48.770752C74.535400 48.210281,74.850342 47.450134,74.850342 46.657440Z" style="fill: rgb(100.000000%,100.000000%,100.000000%);stroke: none;"></path>
  <path d="M61.956665 14.628448C61.956665 13.835754,61.641724 13.075607,61.081238 12.515137C60.520767 11.954651,59.760620 11.639709,58.967926 11.639709C58.175232 11.639709,57.415085 11.954651,56.854614 12.515137C56.294128 13.075607,55.979187 13.835754,55.979187 14.628448C55.979187 15.421143,56.294128 16.181290,56.854614 16.741760C57.415085 17.302246,58.175232 17.617188,58.967926 17.617188C59.760620 17.617188,60.520767 17.302246,61.081238 16.741760C61.641724 16.181290,61.956665 15.421143,61.956665 14.628448Z" style="fill: rgb(100.000000%,100.000000%,100.000000%);stroke: none;"></path>
  <path d="M61.934006 30.750732C61.934006 29.958038,61.619064 29.197891,61.058578 28.637421C60.498108 28.076935,59.737961 27.761993,58.945267 27.761993C58.152573 27.761993,57.392426 28.076935,56.831955 28.637421C56.271469 29.197891,55.956528 29.958038,55.956528 30.750732C55.956528 31.543427,56.271469 32.303574,56.831955 32.864044C57.392426 33.424530,58.152573 33.739471,58.945267 33.739471C59.737961 33.739471,60.498108 33.424530,61.058578 32.864044C61.619064 32.303574,61.934006 31.543427,61.934006 30.750732Z" style="fill: rgb(100.000000%,100.000000%,100.000000%);stroke: none;"></path>
  <path d="M85.047470 2.807556C85.047470 2.014862,84.732529 1.254715,84.172043 0.694244C83.611572 0.133759,82.851425 -0.181183,82.058731 -0.181183C81.266037 -0.181183,80.505890 0.133759,79.945419 0.694244C79.384933 1.254715,79.069992 2.014862,79.069992 2.807556C79.069992 3.600250,79.384933 4.360397,79.945419 4.920868C80.505890 5.481354,81.266037 5.796295,82.058731 5.796295C82.851425 5.796295,83.611572 5.481354,84.172043 4.920868C84.732529 4.360397,85.047470 3.600250,85.047470 2.807556Z" style="fill: rgb(100.000000%,100.000000%,100.000000%);stroke: none;"></path>
  <path d="M67.837753 7.166992C67.837753 6.374298,67.522812 5.614151,66.962326 5.053680C66.401855 4.493195,65.641708 4.178253,64.849014 4.178253C64.056320 4.178253,63.296173 4.493195,62.735703 5.053680C62.175217 5.614151,61.860275 6.374298,61.860275 7.166992C61.860275 7.959686,62.175217 8.719833,62.735703 9.280304C63.296173 9.840790,64.056320 10.155731,64.849014 10.155731C65.641708 10.155731,66.401855 9.840790,66.962326 9.280304C67.522812 8.719833,67.837753 7.959686,67.837753 7.166992Z" style="fill: rgb(100.000000%,100.000000%,100.000000%);stroke: none;"></path>
  <path d="M103.425018 23.490326C103.425018 22.697632,103.110077 21.937485,102.549591 21.377014C101.989120 20.816528,101.228973 20.501587,100.436279 20.501587C99.643585 20.501587,98.883438 20.816528,98.322968 21.377014C97.762482 21.937485,97.447540 22.697632,97.447540 23.490326C97.447540 24.283020,97.762482 25.043167,98.322968 25.603638C98.883438 26.164124,99.643585 26.479065,100.436279 26.479065C101.228973 26.479065,101.989120 26.164124,102.549591 25.603638C103.110077 25.043167,103.425018 24.283020,103.425018 23.490326Z" style="fill: rgb(100.000000%,100.000000%,100.000000%);stroke: none;"></path>
  <path d="M94.213516 7.114899C94.213516 6.322205,93.898575 5.562057,93.338089 5.001587C92.777618 4.441101,92.017471 4.126160,91.224777 4.126160C90.432083 4.126160,89.671936 4.441101,89.111465 5.001587C88.550980 5.562057,88.236038 6.322205,88.236038 7.114899C88.236038 7.907593,88.550980 8.667740,89.111465 9.228210C89.671936 9.788696,90.432083 10.103638,91.224777 10.103638C92.017471 10.103638,92.777618 9.788696,93.338089 9.228210C93.898575 8.667740,94.213516 7.907593,94.213516 7.114899Z" style="fill: rgb(100.000000%,100.000000%,100.000000%);stroke: none;"></path>
  <path d="M92.979218 46.631470C92.979218 45.838776,92.664276 45.078629,92.103790 44.518158C91.543320 43.957672,90.783173 43.642731,89.990479 43.642731C89.197784 43.642731,88.437637 43.957672,87.877167 44.518158C87.316681 45.078629,87.001740 45.838776,87.001740 46.631470C87.001740 47.424164,87.316681 48.184311,87.877167 48.744781C88.437637 49.305267,89.197784 49.620209,89.990479 49.620209C90.783173 49.620209,91.543320 49.305267,92.103790 48.744781C92.664276 48.184311,92.979218 47.424164,92.979218 46.631470Z" style="fill: rgb(100.000000%,100.000000%,100.000000%);stroke: none;"></path>
  <path d="M102.134445 33.782669C102.134445 32.989975,101.819504 32.229828,101.259018 31.669357C100.698547 31.108871,99.938400 30.793930,99.145706 30.793930C98.353012 30.793930,97.592865 31.108871,97.032394 31.669357C96.471909 32.229828,96.156967 32.989975,96.156967 33.782669C96.156967 34.575363,96.471909 35.335510,97.032394 35.895981C97.592865 36.456467,98.353012 36.771408,99.145706 36.771408C99.938400 36.771408,100.698547 36.456467,101.259018 35.895981C101.819504 35.335510,102.134445 34.575363,102.134445 33.782669Z" style="fill: rgb(100.000000%,100.000000%,100.000000%);stroke: none;"></path>
  <path d="M79.145859 55.144440C79.145859 54.351746,78.830917 53.591599,78.270432 53.031128C77.709961 52.470642,76.949814 52.155701,76.157120 52.155701C75.364426 52.155701,74.604279 52.470642,74.043808 53.031128C73.483322 53.591599,73.168381 54.351746,73.168381 55.144440C73.168381 55.937134,73.483322 56.697281,74.043808 57.257751C74.604279 57.818237,75.364426 58.133179,76.157120 58.133179C76.949814 58.133179,77.709961 57.818237,78.270432 57.257751C78.830917 56.697281,79.145859 55.937134,79.145859 55.144440Z" style="fill: rgb(100.000000%,100.000000%,100.000000%);stroke: none;"></path>
  <path d="M87.947769 50.284012C87.947769 49.491318,87.632828 48.731171,87.072342 48.170700C86.511871 47.610214,85.751724 47.295273,84.959030 47.295273C84.166336 47.295273,83.406189 47.610214,82.845718 48.170700C82.285233 48.731171,81.970291 49.491318,81.970291 50.284012C81.970291 51.076706,82.285233 51.836853,82.845718 52.397324C83.406189 52.957809,84.166336 53.272751,84.959030 53.272751C85.751724 53.272751,86.511871 52.957809,87.072342 52.397324C87.632828 51.836853,87.947769 51.076706,87.947769 50.284012Z" style="fill: rgb(100.000000%,100.000000%,100.000000%);stroke: none;"></path>
  <path d="M73.550201 65.059433C73.550201 64.266739,73.235260 63.506592,72.674774 62.946121C72.114304 62.385635,71.354156 62.070694,70.561462 62.070694C69.768768 62.070694,69.008621 62.385635,68.448151 62.946121C67.887665 63.506592,67.572723 64.266739,67.572723 65.059433C67.572723 65.852127,67.887665 66.612274,68.448151 67.172745C69.008621 67.733231,69.768768 68.048172,70.561462 68.048172C71.354156 68.048172,72.114304 67.733231,72.674774 67.172745C73.235260 66.612274,73.550201 65.852127,73.550201 65.059433Z" style="fill: rgb(100.000000%,100.000000%,100.000000%);stroke: none;"></path>
  <path d="M75.359451 57.134094C75.359451 56.341400,75.044510 55.581253,74.484024 55.020782C73.923553 54.460297,73.163406 54.145355,72.370712 54.145355C71.578018 54.145355,70.817871 54.460297,70.257401 55.020782C69.696915 55.581253,69.381973 56.341400,69.381973 57.134094C69.381973 57.926788,69.696915 58.686935,70.257401 59.247406C70.817871 59.807892,71.578018 60.122833,72.370712 60.122833C73.163406 60.122833,73.923553 59.807892,74.484024 59.247406C75.044510 58.686935,75.359451 57.926788,75.359451 57.134094Z" style="fill: rgb(100.000000%,100.000000%,100.000000%);stroke: none;"></path>
  <path d="M84.101791 78.443253C84.101791 77.650558,83.786850 76.890411,83.226364 76.329941C82.665894 75.769455,81.905746 75.454514,81.113052 75.454514C80.320358 75.454514,79.560211 75.769455,78.999741 76.329941C78.439255 76.890411,78.124313 77.650558,78.124313 78.443253C78.124313 79.235947,78.439255 79.996094,78.999741 80.556564C79.560211 81.117050,80.320358 81.431992,81.113052 81.431992C81.905746 81.431992,82.665894 81.117050,83.226364 80.556564C83.786850 79.996094,84.101791 79.235947,84.101791 78.443253Z" style="fill: rgb(100.000000%,100.000000%,100.000000%);stroke: none;"></path>
  <path d="M76.540787 68.649673C76.540787 67.856979,76.225845 67.096832,75.665359 66.536362C75.104889 65.975876,74.344742 65.660934,73.552048 65.660934C72.759354 65.660934,71.999207 65.975876,71.438736 66.536362C70.878250 67.096832,70.563309 67.856979,70.563309 68.649673C70.563309 69.442368,70.878250 70.202515,71.438736 70.762985C71.999207 71.323471,72.759354 71.638412,73.552048 71.638412C74.344742 71.638412,75.104889 71.323471,75.665359 70.762985C76.225845 70.202515,76.540787 69.442368,76.540787 68.649673Z" style="fill: rgb(100.000000%,100.000000%,100.000000%);stroke: none;"></path>
  <path d="M98.473816 99.065521C98.473816 98.272827,98.158875 97.512680,97.598389 96.952209C97.037918 96.391724,96.277771 96.076782,95.485077 96.076782C94.692383 96.076782,93.932236 96.391724,93.371765 96.952209C92.811279 97.512680,92.496338 98.272827,92.496338 99.065521C92.496338 99.858215,92.811279 100.618362,93.371765 101.178833C93.932236 101.739319,94.692383 102.054260,95.485077 102.054260C96.277771 102.054260,97.037918 101.739319,97.598389 101.178833C98.158875 100.618362,98.473816 99.858215,98.473816 99.065521Z" style="fill: rgb(100.000000%,100.000000%,100.000000%);stroke: none;"></path>
  <path d="M87.683807 85.841171C87.683807 85.048477,87.368866 84.288330,86.808380 83.727859C86.247910 83.167374,85.487762 82.852432,84.695068 82.852432C83.902374 82.852432,83.142227 83.167374,82.581757 83.727859C82.021271 84.288330,81.706329 85.048477,81.706329 85.841171C81.706329 86.633865,82.021271 87.394012,82.581757 87.954483C83.142227 88.514969,83.902374 88.829910,84.695068 88.829910C85.487762 88.829910,86.247910 88.514969,86.808380 87.954483C87.368866 87.394012,87.683807 86.633865,87.683807 85.841171Z" style="fill: rgb(100.000000%,100.000000%,100.000000%);stroke: none;"></path>
  <path d="M120.219223 112.351181C120.219223 111.558487,119.904282 110.798340,119.343796 110.237869C118.783325 109.677383,118.023178 109.362442,117.230484 109.362442C116.437790 109.362442,115.677643 109.677383,115.117172 110.237869C114.556686 110.798340,114.241745 111.558487,114.241745 112.351181C114.241745 113.143875,114.556686 113.904022,115.117172 114.464493C115.677643 115.024979,116.437790 115.339920,117.230484 115.339920C118.023178 115.339920,118.783325 115.024979,119.343796 114.464493C119.904282 113.904022,120.219223 113.143875,120.219223 112.351181Z" style="fill: rgb(100.000000%,100.000000%,100.000000%);stroke: none;"></path>
  <path d="M105.769150 104.394653C105.769150 103.601959,105.454208 102.841812,104.893723 102.281342C104.333252 101.720856,103.573105 101.405914,102.780411 101.405914C101.987717 101.405914,101.227570 101.720856,100.667099 102.281342C100.106613 102.841812,99.791672 103.601959,99.791672 104.394653C99.791672 105.187347,100.106613 105.947495,100.667099 106.507965C101.227570 107.068451,101.987717 107.383392,102.780411 107.383392C103.573105 107.383392,104.333252 107.068451,104.893723 106.507965C105.454208 105.947495,105.769150 105.187347,105.769150 104.394653Z" style="fill: rgb(100.000000%,100.000000%,100.000000%);stroke: none;"></path>
  <path d="M129.765854 120.616852C138.318146 128.902618,150.935394 131.401138,162.000000 127.000000C176.103409 121.390121,183.975891 106.660217,183.295364 91.315659C182.674103 77.307419,174.941711 64.327942,162.000000 59.268997C151.505264 55.166580,139.460144 58.595261,137.117355 68.465347C135.772034 74.133087,138.884598 79.537643,141.407791 84.776688C143.871216 89.891632,145.779861 95.267242,148.506638 100.248596C153.359726 109.114395,160.800430 116.894775,162.000000 127.000000C164.009232 143.925842,149.607330 156.726562,134.583496 165.948044C119.313538 175.320602,100.979156 182.312805,86.968109 172.271820C77.138733 165.227615,72.830307 150.390961,60.286041 149.175644C49.855804 148.165131,42.205963 158.357651,32.018539 159.605942C22.187225 160.810593,13.466278 154.102585,9.093719 144.965714C4.990097 136.390854,4.951477 126.106537,11.349625 119.332291C17.470154 112.851990,28.629013 111.527130,31.536957 102.756943C34.677948 93.283920,25.173157 85.406174,23.600662 75.981628C21.662903 64.367889,31.091812 55.153900,37.349060 45.267151C43.242065 35.955933,48.046677 24.300171,58.955856 23.220215C65.337677 22.588440,71.423996 26.572189,77.775345 25.537888C84.773331 24.398285,89.248199 17.788651,95.739655 15.141068C108.844437 9.796188,121.201843 20.540787,132.906418 28.949036C144.821930 37.508804,159.403610 44.805374,162.000000 59.268997C163.462799 67.417770,160.250854 75.757980,153.406769 80.363312C149.834854 82.766830,145.602432 83.838196,141.407791 84.776688C135.134567 86.180252,128.651138 87.425537,123.488907 91.284561C117.627930 95.665924,114.564240 102.583862,110.612411 108.707123C105.377350 116.818710,98.317017 123.857544,95.091904 132.989838C90.580948 145.763153,94.300064 160.701920,86.968109 172.271820C79.812164 183.563950,65.459061 187.414337,52.417480 183.582413C41.064133 180.246536,31.909119 171.141708,32.018539 159.605942C32.109344 150.033234,39.284164 140.321808,34.189560 131.781784C29.499695 123.920227,18.443192 124.645920,11.349625 119.332291C4.046677 113.861816,2.312439 103.956909,4.768021 94.985229C7.331100 85.620743,14.158066 77.750519,23.600662 75.981628C34.030167 74.027863,44.085388 80.578293,54.599869 79.671524C62.273346 79.009750,68.894547 74.499985,76.151260 72.016373C80.959579 70.370728,86.461716 68.683792,87.144043 63.807297C87.787231 59.210464,83.449722 56.067871,79.598877 53.243896C75.497406 50.236115,71.861603 46.657440,68.484741 42.856033C63.476273 37.217896,58.945267 30.750732,58.955856 23.220215C58.967926 14.628448,64.849014 7.166992,73.186234 5.055069C82.058731 2.807556,91.224777 7.114899,95.739655 15.141068C100.436279 23.490326,99.145706 33.782669,93.546921 41.640213C89.990479 46.631470,84.959030 50.284012,79.598877 53.243896C76.157120 55.144440,72.370712 57.134094,71.500580 60.945679C70.561462 65.059433,73.552048 68.649673,76.151260 72.016373C81.113052 78.443253,84.695068 85.841171,89.829330 92.133774C95.485077 99.065521,102.780411 104.394653,110.612411 108.707123C117.230484 112.351181,124.327423 115.347916,129.765854 120.616852" style="stroke:rgb(0.000000%,0.000000%,0.000000%); stroke-width: 0.498138;stroke-linecap: round;stroke-linejoin: round;stroke-miterlimit: 10.000000;fill: none;"></path>
  <path d="M129.765854 120.616852C138.318146 128.902618,150.935394 131.401138,162.000000 127.000000" style="stroke:rgb(0.000000%,0.000000%,0.000000%); stroke-width: 1.494400;stroke-linecap: round;stroke-linejoin: round;stroke-miterlimit: 10.000000;fill: none;"></path>
  <path d="M76.151260 72.016373C81.113052 78.443253,84.695068 85.841171,89.829330 92.133774C95.485077 99.065521,102.780411 104.394653,110.612411 108.707123C117.230484 112.351181,124.327423 115.347916,129.765854 120.616852" style="stroke:rgb(0.000000%,0.000000%,0.000000%); stroke-width: 1.494400;stroke-linecap: round;stroke-linejoin: round;stroke-miterlimit: 10.000000;fill: none;"></path>
  <path d="M164.988739 127.000000C164.988739 126.207306,164.673798 125.447159,164.113312 124.886688C163.552841 124.326202,162.792694 124.011261,162.000000 124.011261C161.207306 124.011261,160.447159 124.326202,159.886688 124.886688C159.326202 125.447159,159.011261 126.207306,159.011261 127.000000C159.011261 127.792694,159.326202 128.552841,159.886688 129.113312C160.447159 129.673798,161.207306 129.988739,162.000000 129.988739C162.792694 129.988739,163.552841 129.673798,164.113312 129.113312C164.673798 128.552841,164.988739 127.792694,164.988739 127.000000Z" style="fill: rgb(100.000000%,100.000000%,100.000000%);stroke: none;"></path>
  <path d="M156.623398 113.159531C159.240158 117.475998,161.400223 121.947388,162.000000 127.000000C163.004623 135.462921,159.906448 142.894562,154.679138 149.363159" style="stroke:rgb(0.000000%,0.000000%,0.000000%); stroke-width: 0.498138;stroke-linecap: round;stroke-linejoin: round;stroke-miterlimit: 10.000000;fill: none;"></path>
  <path d="M144.396530 84.776688C144.396530 83.983994,144.081589 83.223846,143.521103 82.663376C142.960632 82.102890,142.200485 81.787949,141.407791 81.787949C140.615097 81.787949,139.854950 82.102890,139.294479 82.663376C138.733994 83.223846,138.419052 83.983994,138.419052 84.776688C138.419052 85.569382,138.733994 86.329529,139.294479 86.889999C139.854950 87.450485,140.615097 87.765427,141.407791 87.765427C142.200485 87.765427,142.960632 87.450485,143.521103 86.889999C144.081589 86.329529,144.396530 85.569382,144.396530 84.776688Z" style="fill: rgb(100.000000%,100.000000%,100.000000%);stroke: none;"></path>
  <path d="M147.640793 83.119400C145.611877 83.804993,143.505112 84.307449,141.407791 84.776688C138.271179 85.478470,135.082016 86.140686,132.031723 87.109833" style="stroke:rgb(0.000000%,0.000000%,0.000000%); stroke-width: 0.498138;stroke-linecap: round;stroke-linejoin: round;stroke-miterlimit: 10.000000;fill: none;"></path>
  <path d="M89.956848 172.271820C89.956848 171.479126,89.641907 170.718979,89.081421 170.158508C88.520950 169.598022,87.760803 169.283081,86.968109 169.283081C86.175415 169.283081,85.415268 169.598022,84.854797 170.158508C84.294312 170.718979,83.979370 171.479126,83.979370 172.271820C83.979370 173.064514,84.294312 173.824661,84.854797 174.385132C85.415268 174.945618,86.175415 175.260559,86.968109 175.260559C87.760803 175.260559,88.520950 174.945618,89.081421 174.385132C89.641907 173.824661,89.956848 173.064514,89.956848 172.271820Z" style="fill: rgb(100.000000%,100.000000%,100.000000%);stroke: none;"></path>
  <path d="M92.087875 153.082123C91.537292 159.859711,90.634079 166.486877,86.968109 172.271820C83.390137 177.917892,78.012863 181.703522,71.899887 183.598648" style="stroke:rgb(0.000000%,0.000000%,0.000000%); stroke-width: 0.498138;stroke-linecap: round;stroke-linejoin: round;stroke-miterlimit: 10.000000;fill: none;"></path>
  <path d="M14.338364 119.332291C14.338364 118.539597,14.023422 117.779449,13.462936 117.218979C12.902466 116.658493,12.142319 116.343552,11.349625 116.343552C10.556931 116.343552,9.796783 116.658493,9.236313 117.218979C8.675827 117.779449,8.360886 118.539597,8.360886 119.332291C8.360886 120.124985,8.675827 120.885132,9.236313 121.445602C9.796783 122.006088,10.556931 122.321030,11.349625 122.321030C12.142319 122.321030,12.902466 122.006088,13.462936 121.445602C14.023422 120.885132,14.338364 120.124985,14.338364 119.332291Z" style="fill: rgb(100.000000%,100.000000%,100.000000%);stroke: none;"></path>
  <path d="M23.670959 124.601562C19.433914 123.136093,14.896408 121.989105,11.349625 119.332291C7.698151 116.597046,5.438843 112.753204,4.399368 108.471710" style="stroke:rgb(0.000000%,0.000000%,0.000000%); stroke-width: 0.498138;stroke-linecap: round;stroke-linejoin: round;stroke-miterlimit: 10.000000;fill: none;"></path>
  <path d="M61.944595 23.220215C61.944595 22.427521,61.629654 21.667374,61.069168 21.106903C60.508698 20.546417,59.748550 20.231476,58.955856 20.231476C58.163162 20.231476,57.403015 20.546417,56.842545 21.106903C56.282059 21.667374,55.967117 22.427521,55.967117 23.220215C55.967117 24.012909,56.282059 24.773056,56.842545 25.333527C57.403015 25.894012,58.163162 26.208954,58.955856 26.208954C59.748550 26.208954,60.508698 25.894012,61.069168 25.333527C61.629654 24.773056,61.944595 24.012909,61.944595 23.220215Z" style="fill: rgb(100.000000%,100.000000%,100.000000%);stroke: none;"></path>
  <path d="M61.838135 33.747757C60.080658 30.484894,58.950562 26.985474,58.955856 23.220215C58.961899 18.924332,60.435196 14.911026,62.949127 11.707687" style="stroke:rgb(0.000000%,0.000000%,0.000000%); stroke-width: 0.498138;stroke-linecap: round;stroke-linejoin: round;stroke-miterlimit: 10.000000;fill: none;"></path>
  <path d="M164.988739 59.268997C164.988739 58.476303,164.673798 57.716156,164.113312 57.155685C163.552841 56.595200,162.792694 56.280258,162.000000 56.280258C161.207306 56.280258,160.447159 56.595200,159.886688 57.155685C159.326202 57.716156,159.011261 58.476303,159.011261 59.268997C159.011261 60.061691,159.326202 60.821838,159.886688 61.382309C160.447159 61.942795,161.207306 62.257736,162.000000 62.257736C162.792694 62.257736,163.552841 61.942795,164.113312 61.382309C164.673798 60.821838,164.988739 60.061691,164.988739 59.268997Z" style="fill: rgb(100.000000%,100.000000%,100.000000%);stroke: none;"></path>
  <path d="M177.267838 71.936325C173.639374 66.308060,168.470856 61.798462,162.000000 59.268997C156.752625 57.217789,151.117661 57.049347,146.501678 58.627487" style="stroke:rgb(0.000000%,0.000000%,0.000000%); stroke-width: 0.498138;stroke-linecap: round;stroke-linejoin: round;stroke-miterlimit: 10.000000;fill: none;"></path>
  <path d="M113.601151 108.707123C113.601151 107.914429,113.286209 107.154282,112.725723 106.593811C112.165253 106.033325,111.405106 105.718384,110.612411 105.718384C109.819717 105.718384,109.059570 106.033325,108.499100 106.593811C107.938614 107.154282,107.623672 107.914429,107.623672 108.707123C107.623672 109.499817,107.938614 110.259964,108.499100 110.820435C109.059570 111.380920,109.819717 111.695862,110.612411 111.695862C111.405106 111.695862,112.165253 111.380920,112.725723 110.820435C113.286209 110.259964,113.601151 109.499817,113.601151 108.707123Z" style="fill: rgb(100.000000%,100.000000%,100.000000%);stroke: none;"></path>
  <path d="M99.404785 101.402679C102.914581 104.140488,106.696411 106.550888,110.612411 108.707123C113.921448 110.529160,117.350204 112.189362,120.631516 114.052673" style="stroke:rgb(0.000000%,0.000000%,0.000000%); stroke-width: 1.494400;stroke-linecap: round;stroke-linejoin: round;stroke-miterlimit: 10.000000;fill: none;"></path>
  <path d="M35.007278 159.605942C35.007278 158.813248,34.692337 158.053101,34.131851 157.492630C33.571381 156.932144,32.811234 156.617203,32.018539 156.617203C31.225845 156.617203,30.465698 156.932144,29.905228 157.492630C29.344742 158.053101,29.029800 158.813248,29.029800 159.605942C29.029800 160.398636,29.344742 161.158783,29.905228 161.719254C30.465698 162.279739,31.225845 162.594681,32.018539 162.594681C32.811234 162.594681,33.571381 162.279739,34.131851 161.719254C34.692337 161.158783,35.007278 160.398636,35.007278 159.605942Z" style="fill: rgb(100.000000%,100.000000%,100.000000%);stroke: none;"></path>
  <path d="M46.061234 153.543747C41.571564 156.121597,37.112244 158.981796,32.018539 159.605942C27.102875 160.208267,22.464813 158.832428,18.509094 156.163895" style="stroke:rgb(0.000000%,0.000000%,0.000000%); stroke-width: 0.498138;stroke-linecap: round;stroke-linejoin: round;stroke-miterlimit: 10.000000;fill: none;"></path>
  <path d="M26.589401 75.981628C26.589401 75.188934,26.274460 74.428787,25.713974 73.868317C25.153503 73.307831,24.393356 72.992889,23.600662 72.992889C22.807968 72.992889,22.047821 73.307831,21.487350 73.868317C20.926865 74.428787,20.611923 75.188934,20.611923 75.981628C20.611923 76.774323,20.926865 77.534470,21.487350 78.094940C22.047821 78.655426,22.807968 78.970367,23.600662 78.970367C24.393356 78.970367,25.153503 78.655426,25.713974 78.094940C26.274460 77.534470,26.589401 76.774323,26.589401 75.981628Z" style="fill: rgb(100.000000%,100.000000%,100.000000%);stroke: none;"></path>
  <path d="M29.336349 89.351105C27.156219 85.019470,24.386902 80.693893,23.600662 75.981628C22.631775 70.174759,24.504578 64.967819,27.401749 59.976761" style="stroke:rgb(0.000000%,0.000000%,0.000000%); stroke-width: 0.498138;stroke-linecap: round;stroke-linejoin: round;stroke-miterlimit: 10.000000;fill: none;"></path>
  <path d="M82.587616 53.243896C82.587616 52.451202,82.272675 51.691055,81.712189 51.130585C81.151718 50.570099,80.391571 50.255157,79.598877 50.255157C78.806183 50.255157,78.046036 50.570099,77.485565 51.130585C76.925079 51.691055,76.610138 52.451202,76.610138 53.243896C76.610138 54.036591,76.925079 54.796738,77.485565 55.357208C78.046036 55.917694,78.806183 56.232635,79.598877 56.232635C80.391571 56.232635,81.151718 55.917694,81.712189 55.357208C82.272675 54.796738,82.587616 54.036591,82.587616 53.243896Z" style="fill: rgb(100.000000%,100.000000%,100.000000%);stroke: none;"></path>
  <path d="M87.249283 48.203827C84.876846 50.110855,82.278946 51.763962,79.598877 53.243896C77.877991 54.194168,76.070953 55.166718,74.585358 56.378159" style="stroke:rgb(0.000000%,0.000000%,0.000000%); stroke-width: 0.498138;stroke-linecap: round;stroke-linejoin: round;stroke-miterlimit: 10.000000;fill: none;"></path>
  <path d="M98.728394 15.141068C98.728394 14.348373,98.413452 13.588226,97.852966 13.027756C97.292496 12.467270,96.532349 12.152328,95.739655 12.152328C94.946960 12.152328,94.186813 12.467270,93.626343 13.027756C93.065857 13.588226,92.750916 14.348373,92.750916 15.141068C92.750916 15.933762,93.065857 16.693909,93.626343 17.254379C94.186813 17.814865,94.946960 18.129807,95.739655 18.129807C96.532349 18.129807,97.292496 17.814865,97.852966 17.254379C98.413452 16.693909,98.728394 15.933762,98.728394 15.141068Z" style="fill: rgb(100.000000%,100.000000%,100.000000%);stroke: none;"></path>
  <path d="M86.947464 20.904953C89.752350 18.779160,92.493927 16.464859,95.739655 15.141068C102.292053 12.468628,108.657608 13.818558,114.848129 16.887634" style="stroke:rgb(0.000000%,0.000000%,0.000000%); stroke-width: 0.498138;stroke-linecap: round;stroke-linejoin: round;stroke-miterlimit: 10.000000;fill: none;"></path>
  <path d="M79.139999 72.016373C79.139999 71.223679,78.825058 70.463531,78.264572 69.903061C77.704102 69.342575,76.943954 69.027634,76.151260 69.027634C75.358566 69.027634,74.598419 69.342575,74.037949 69.903061C73.477463 70.463531,73.162521 71.223679,73.162521 72.016373C73.162521 72.809067,73.477463 73.569214,74.037949 74.129684C74.598419 74.690170,75.358566 75.005112,76.151260 75.005112C76.943954 75.005112,77.704102 74.690170,78.264572 74.129684C78.825058 73.569214,79.139999 72.809067,79.139999 72.016373Z" style="fill: rgb(100.000000%,100.000000%,100.000000%);stroke: none;"></path>
  <path d="M65.531860 76.527130C69.053436 75.006516,72.522903 73.258179,76.151260 72.016373C78.555420 71.193542,81.133041 70.360397,83.194916 69.123398" style="stroke:rgb(0.000000%,0.000000%,0.000000%); stroke-width: 0.498138;stroke-linecap: round;stroke-linejoin: round;stroke-miterlimit: 10.000000;fill: none;"></path>
  <path d="M89.829330 92.133774C94.353943 97.679199,99.927902 102.198929,105.986511 105.992996" style="stroke:rgb(0.000000%,0.000000%,0.000000%); stroke-width: 0.498138;stroke-linecap: round;stroke-linejoin: round;stroke-miterlimit: 10.000000;fill: none;"></path>
  <path d="M101.082916 105.015793C102.704727 105.392349,104.340988 105.716003,105.986511 105.992996C105.018845 104.633545,104.090714 103.247665,103.210205 101.834610Z" style="stroke:rgb(0.000000%,0.000000%,0.000000%); stroke-width: 0.498138;fill: rgb(0.000000%,0.000000%,0.000000%);"></path>
  <path d="M89.829330 92.133774C94.353943 97.679199,99.927902 102.198929,105.986511 105.992996" style="stroke:rgb(0.000000%,0.000000%,0.000000%); stroke-width: 0.498138;stroke-linecap: round;stroke-linejoin: round;stroke-miterlimit: 10.000000;fill: none;"></path>
  <path d="M103.037247 105.442978C104.016251 105.643982,104.999710 105.826889,105.986511 105.992996C105.406204 105.177750,104.840134 104.352997,104.290024 103.518600Z" style="stroke:rgb(0.000000%,0.000000%,0.000000%); stroke-width: 0.498138;fill: rgb(0.000000%,0.000000%,0.000000%);"></path>
  <path d="M137.117355 68.465347C136.041092 72.999557,137.817902 77.365326,139.863571 81.612671" style="stroke:rgb(0.000000%,0.000000%,0.000000%); stroke-width: 0.498138;stroke-linecap: round;stroke-linejoin: round;stroke-miterlimit: 10.000000;fill: none;"></path>
  <path d="M137.668716 79.567490C138.375900 80.265518,139.115143 80.943893,139.863571 81.612671C139.807251 80.610550,139.764236 79.608139,139.757797 78.614517Z" style="stroke:rgb(0.000000%,0.000000%,0.000000%); stroke-width: 0.498138;fill: rgb(0.000000%,0.000000%,0.000000%);"></path>
  <path d="M148.506638 100.248596C152.389130 107.341263,157.927704 113.739258,160.601974 121.188644" style="stroke:rgb(0.000000%,0.000000%,0.000000%); stroke-width: 0.498138;stroke-linecap: round;stroke-linejoin: round;stroke-miterlimit: 10.000000;fill: none;"></path>
  <path d="M158.486191 119.061707C159.222519 119.742233,159.930115 120.448959,160.601974 121.188644C160.649963 120.190536,160.649368 119.190445,160.609909 118.188599Z" style="stroke:rgb(0.000000%,0.000000%,0.000000%); stroke-width: 0.498138;fill: rgb(0.000000%,0.000000%,0.000000%);"></path>
  <path d="M9.093719 144.965714C5.810806 138.105804,5.129517 130.151825,8.264206 123.776215" style="stroke:rgb(0.000000%,0.000000%,0.000000%); stroke-width: 0.498138;stroke-linecap: round;stroke-linejoin: round;stroke-miterlimit: 10.000000;fill: none;"></path>
  <path d="M8.312134 126.775742C8.217743 125.779709,8.199753 124.777985,8.264206 123.776215C7.510269 124.438995,6.814636 125.160019,6.177063 125.931046Z" style="stroke:rgb(0.000000%,0.000000%,0.000000%); stroke-width: 0.498138;fill: rgb(0.000000%,0.000000%,0.000000%);"></path>
  <path d="M31.536957 102.756943C34.049759 95.178497,28.469193 88.621033,25.331375 81.475800" style="stroke:rgb(0.000000%,0.000000%,0.000000%); stroke-width: 0.498138;stroke-linecap: round;stroke-linejoin: round;stroke-miterlimit: 10.000000;fill: none;"></path>
  <path d="M27.564438 83.479248C26.799698 82.827805,26.049057 82.163803,25.331375 81.475800C25.352341 82.469772,25.413589 83.470078,25.493698 84.471466Z" style="stroke:rgb(0.000000%,0.000000%,0.000000%); stroke-width: 0.498138;fill: rgb(0.000000%,0.000000%,0.000000%);"></path>
  <path d="M77.775345 25.537888C83.373749 24.626205,87.357361 20.213669,92.050507 17.129578" style="stroke:rgb(0.000000%,0.000000%,0.000000%); stroke-width: 0.498138;stroke-linecap: round;stroke-linejoin: round;stroke-miterlimit: 10.000000;fill: none;"></path>
  <path d="M90.458542 19.672318C90.967438 18.807968,91.490662 17.953720,92.050507 17.129578C91.071869 17.316452,90.097870 17.550491,89.126816 17.801834Z" style="stroke:rgb(0.000000%,0.000000%,0.000000%); stroke-width: 0.498138;fill: rgb(0.000000%,0.000000%,0.000000%);"></path>
  <path d="M153.406769 80.363312C150.549225 82.286133,147.268951 83.356369,143.923477 84.188065" style="stroke:rgb(0.000000%,0.000000%,0.000000%); stroke-width: 0.498138;stroke-linecap: round;stroke-linejoin: round;stroke-miterlimit: 10.000000;fill: none;"></path>
  <path d="M146.288208 82.342026C145.522003 82.980927,144.729141 83.592743,143.923477 84.188065C144.914108 84.336823,145.907379 84.464844,146.900940 84.554886Z" style="stroke:rgb(0.000000%,0.000000%,0.000000%); stroke-width: 0.498138;fill: rgb(0.000000%,0.000000%,0.000000%);"></path>
  <path d="M52.417480 183.582413C43.334763 180.913696,35.658997 174.552826,33.008057 166.208893" style="stroke:rgb(0.000000%,0.000000%,0.000000%); stroke-width: 0.498138;stroke-linecap: round;stroke-linejoin: round;stroke-miterlimit: 10.000000;fill: none;"></path>
  <path d="M35.095917 168.363098C34.352936 167.694580,33.654968 166.976410,33.008057 166.208893C32.922760 167.209045,32.908447 168.210388,32.961090 169.208496Z" style="stroke:rgb(0.000000%,0.000000%,0.000000%); stroke-width: 0.498138;fill: rgb(0.000000%,0.000000%,0.000000%);"></path>
  <path d="M4.768021 94.985229C6.818497 87.493607,11.597870 80.958328,18.262238 77.738235" style="stroke:rgb(0.000000%,0.000000%,0.000000%); stroke-width: 0.498138;stroke-linecap: round;stroke-linejoin: round;stroke-miterlimit: 10.000000;fill: none;"></path>
  <path d="M16.424332 80.109238C16.981796 79.279984,17.594345 78.487579,18.262238 77.738235C17.260086 77.795807,16.266647 77.922989,15.286087 78.115158Z" style="stroke:rgb(0.000000%,0.000000%,0.000000%); stroke-width: 0.498138;fill: rgb(0.000000%,0.000000%,0.000000%);"></path>
  <path d="M87.144043 63.807297C87.658600 60.129822,84.985489 57.383057,81.924011 54.985580" style="stroke:rgb(0.000000%,0.000000%,0.000000%); stroke-width: 0.498138;stroke-linecap: round;stroke-linejoin: round;stroke-miterlimit: 10.000000;fill: none;"></path>
  <path d="M84.771896 55.928619C83.866089 55.562973,82.902725 55.258194,81.924011 54.985580C82.423294 55.870407,82.888947 56.767136,83.270889 57.666199Z" style="stroke:rgb(0.000000%,0.000000%,0.000000%); stroke-width: 0.498138;fill: rgb(0.000000%,0.000000%,0.000000%);"></path>
  <path d="M68.484741 42.856033C64.477951 38.345505,60.776733 33.304398,59.461960 27.612732" style="stroke:rgb(0.000000%,0.000000%,0.000000%); stroke-width: 0.498138;stroke-linecap: round;stroke-linejoin: round;stroke-miterlimit: 10.000000;fill: none;"></path>
  <path d="M61.369125 29.928604C60.682251 29.198090,60.043396 28.427643,59.461960 27.612732C59.296844 28.600098,59.203796 29.596619,59.172897 30.598862Z" style="stroke:rgb(0.000000%,0.000000%,0.000000%); stroke-width: 0.498138;fill: rgb(0.000000%,0.000000%,0.000000%);"></path>
  <path d="M71.500580 60.945679C70.749283 64.236694,72.513016 67.192657,74.579361 69.967163" style="stroke:rgb(0.000000%,0.000000%,0.000000%); stroke-width: 0.498138;stroke-linecap: round;stroke-linejoin: round;stroke-miterlimit: 10.000000;fill: none;"></path>
  <path d="M72.075867 68.314117C72.859253 68.905884,73.710327 69.448654,74.579361 69.967163C74.331512 68.986008,74.113525 68.000427,73.978058 67.028046Z" style="stroke:rgb(0.000000%,0.000000%,0.000000%); stroke-width: 0.498138;fill: rgb(0.000000%,0.000000%,0.000000%);"></path>
  <path d="M126.775208 123.327057L132.756500 123.327057L132.756500 115.906662L126.775208 115.906662Z" style="fill: rgb(100.000000%,100.000000%,100.000000%);stroke: none;"></path>
  <path d="M126.775208 125.327057L132.756500 125.327057L132.756500 117.906662L126.775208 117.906662Z" style="fill: rgb(100.000000%,100.000000%,100.000000%);stroke: none;"></path>
  <g transform="translate(127.275208 123.827057)" style="fill: rgb(0.000000%,0.000000%,0.000000%);">
    <use xlink:href="#GLYPHcmr10_49"></use>
  </g>
  <path d="M180.304718 94.025864L186.286011 94.025864L186.286011 86.605469L180.304718 86.605469Z" style="fill: rgb(100.000000%,100.000000%,100.000000%);stroke: none;"></path>
  <path d="M180.304718 96.025864L186.286011 96.025864L186.286011 88.605469L180.304718 88.605469Z" style="fill: rgb(100.000000%,100.000000%,100.000000%);stroke: none;"></path>
  <g transform="translate(180.804718 94.525864)" style="fill: rgb(0.000000%,0.000000%,0.000000%);">
    <use xlink:href="#GLYPHcmr10_50"></use>
  </g>
  <path d="M131.592850 168.658249L137.574142 168.658249L137.574142 161.237854L131.592850 161.237854Z" style="fill: rgb(100.000000%,100.000000%,100.000000%);stroke: none;"></path>
  <path d="M131.592850 170.658249L137.574142 170.658249L137.574142 163.237854L131.592850 163.237854Z" style="fill: rgb(100.000000%,100.000000%,100.000000%);stroke: none;"></path>
  <g transform="translate(132.092850 169.158249)" style="fill: rgb(0.000000%,0.000000%,0.000000%);">
    <use xlink:href="#GLYPHcmr10_51"></use>
  </g>
  <path d="M57.295395 151.885849L63.276688 151.885849L63.276688 144.465454L57.295395 144.465454Z" style="fill: rgb(100.000000%,100.000000%,100.000000%);stroke: none;"></path>
  <path d="M57.295395 153.885849L63.276688 153.885849L63.276688 146.465454L57.295395 146.465454Z" style="fill: rgb(100.000000%,100.000000%,100.000000%);stroke: none;"></path>
  <g transform="translate(57.795395 152.385849)" style="fill: rgb(0.000000%,0.000000%,0.000000%);">
    <use xlink:href="#GLYPHcmr10_52"></use>
  </g>
  <path d="M34.358414 47.977356L40.339706 47.977356L40.339706 40.556961L34.358414 40.556961Z" style="fill: rgb(100.000000%,100.000000%,100.000000%);stroke: none;"></path>
  <path d="M34.358414 49.977356L40.339706 49.977356L40.339706 42.556961L34.358414 42.556961Z" style="fill: rgb(100.000000%,100.000000%,100.000000%);stroke: none;"></path>
  <g transform="translate(34.858414 48.477356)" style="fill: rgb(0.000000%,0.000000%,0.000000%);">
    <use xlink:href="#GLYPHcmr10_53"></use>
  </g>
  <path d="M129.915771 31.659241L135.897064 31.659241L135.897064 24.238846L129.915771 24.238846Z" style="fill: rgb(100.000000%,100.000000%,100.000000%);stroke: none;"></path>
  <path d="M129.915771 33.659241L135.897064 33.659241L135.897064 26.238846L129.915771 26.238846Z" style="fill: rgb(100.000000%,100.000000%,100.000000%);stroke: none;"></path>
  <g transform="translate(130.415771 32.159241)" style="fill: rgb(0.000000%,0.000000%,0.000000%);">
    <use xlink:href="#GLYPHcmr10_54"></use>
  </g>
  <path d="M120.498260 93.994766L126.479553 93.994766L126.479553 86.574371L120.498260 86.574371Z" style="fill: rgb(100.000000%,100.000000%,100.000000%);stroke: none;"></path>
  <path d="M120.498260 95.994766L126.479553 95.994766L126.479553 88.574371L120.498260 88.574371Z" style="fill: rgb(100.000000%,100.000000%,100.000000%);stroke: none;"></path>
  <g transform="translate(120.998260 94.494766)" style="fill: rgb(0.000000%,0.000000%,0.000000%);">
    <use xlink:href="#GLYPHcmr10_55"></use>
  </g>
  <path d="M92.101257 135.700043L98.082550 135.700043L98.082550 128.279648L92.101257 128.279648Z" style="fill: rgb(100.000000%,100.000000%,100.000000%);stroke: none;"></path>
  <path d="M92.101257 137.700043L98.082550 137.700043L98.082550 130.279648L92.101257 130.279648Z" style="fill: rgb(100.000000%,100.000000%,100.000000%);stroke: none;"></path>
  <g transform="translate(92.601257 136.200043)" style="fill: rgb(0.000000%,0.000000%,0.000000%);">
    <use xlink:href="#GLYPHcmr10_56"></use>
  </g>
  <path d="M31.198914 134.491989L37.180206 134.491989L37.180206 127.071594L31.198914 127.071594Z" style="fill: rgb(100.000000%,100.000000%,100.000000%);stroke: none;"></path>
  <path d="M31.198914 136.491989L37.180206 136.491989L37.180206 129.071594L31.198914 129.071594Z" style="fill: rgb(100.000000%,100.000000%,100.000000%);stroke: none;"></path>
  <g transform="translate(31.698914 134.991989)" style="fill: rgb(0.000000%,0.000000%,0.000000%);">
    <use xlink:href="#GLYPHcmr10_57"></use>
  </g>
  <path d="M49.118515 82.381729L60.081223 82.381729L60.081223 74.961334L49.118515 74.961334Z" style="fill: rgb(100.000000%,100.000000%,100.000000%);stroke: none;"></path>
  <path d="M49.118515 84.381729L60.081223 84.381729L60.081223 76.961334L49.118515 76.961334Z" style="fill: rgb(100.000000%,100.000000%,100.000000%);stroke: none;"></path>
  <g transform="translate(49.618515 82.881729)" style="fill: rgb(0.000000%,0.000000%,0.000000%);">
    <use xlink:href="#GLYPHcmr10_49"></use>
    <use xlink:href="#GLYPHcmr10_48" x="5.000095"></use>
  </g>
  <path d="M67.704880 7.765274L78.667587 7.765274L78.667587 0.344879L67.704880 0.344879Z" style="fill: rgb(100.000000%,100.000000%,100.000000%);stroke: none;"></path>
  <path d="M67.704880 9.765274L78.667587 9.765274L78.667587 2.344879L67.704880 2.344879Z" style="fill: rgb(100.000000%,100.000000%,100.000000%);stroke: none;"></path>
  <g transform="translate(68.204880 8.265274)" style="fill: rgb(0.000000%,0.000000%,0.000000%);">
    <use xlink:href="#GLYPHcmr10_49"></use>
    <use xlink:href="#GLYPHcmr10_49" x="5.000095"></use>
  </g>
  <path d="M88.065567 44.350418L99.028275 44.350418L99.028275 36.930023L88.065567 36.930023Z" style="fill: rgb(100.000000%,100.000000%,100.000000%);stroke: none;"></path>
  <path d="M88.065567 46.350418L99.028275 46.350418L99.028275 38.930023L88.065567 38.930023Z" style="fill: rgb(100.000000%,100.000000%,100.000000%);stroke: none;"></path>
  <g transform="translate(88.565567 44.850418)" style="fill: rgb(0.000000%,0.000000%,0.000000%);">
    <use xlink:href="#GLYPHcmr10_49"></use>
    <use xlink:href="#GLYPHcmr10_50" x="5.000095"></use>
  </g>
</svg>
