<?xml version="1.0"?>
<!-- Created by MetaPost 1.999 on 2021.07.06:0003 -->
<svg version="1.1" xmlns="http://www.w3.org/2000/svg" xmlns:xlink="http://www.w3.org/1999/xlink" width="187.630905" height="190.139679" viewBox="0 0 187.630905 190.139679">
<!-- Original BoundingBox: -164.234009 -85.703491 23.396896 104.436188 -->
  <defs>
    <g transform="scale(0.009963,0.009963)" id="GLYPHcmr10_48">
      <path style="fill-rule: evenodd;" d="M460.000000 -320.000000C460.000000 -400.000000,455.000000 -480.000000,420.000000 -554.000000C374.000000 -650.000000,292.000000 -666.000000,250.000000 -666.000000C190.000000 -666.000000,117.000000 -640.000000,76.000000 -547.000000C44.000000 -478.000000,39.000000 -400.000000,39.000000 -320.000000C39.000000 -245.000000,43.000000 -155.000000,84.000000 -79.000000C127.000000 2.000000,200.000000 22.000000,249.000000 22.000000C303.000000 22.000000,379.000000 1.000000,423.000000 -94.000000C455.000000 -163.000000,460.000000 -241.000000,460.000000 -320.000000M249.000000 -0.000000C210.000000 -0.000000,151.000000 -25.000000,133.000000 -121.000000C122.000000 -181.000000,122.000000 -273.000000,122.000000 -332.000000C122.000000 -396.000000,122.000000 -462.000000,130.000000 -516.000000C149.000000 -635.000000,224.000000 -644.000000,249.000000 -644.000000C282.000000 -644.000000,348.000000 -626.000000,367.000000 -527.000000C377.000000 -471.000000,377.000000 -395.000000,377.000000 -332.000000C377.000000 -257.000000,377.000000 -189.000000,366.000000 -125.000000C351.000000 -30.000000,294.000000 -0.000000,249.000000 -0.000000"></path>
    </g>
    <g transform="scale(0.009963,0.009963)" id="GLYPHcmr10_49">
      <path style="fill-rule: evenodd;" d="M294.000000 -640.000000C294.000000 -664.000000,294.000000 -666.000000,271.000000 -666.000000C209.000000 -602.000000,121.000000 -602.000000,89.000000 -602.000000L89.000000 -571.000000C109.000000 -571.000000,168.000000 -571.000000,220.000000 -597.000000L220.000000 -79.000000C220.000000 -43.000000,217.000000 -31.000000,127.000000 -31.000000L95.000000 -31.000000L95.000000 -0.000000L257.000000 -0.000000L130.000000 -3.000000L217.000000 -3.000000L257.000000 -3.000000L297.000000 -3.000000L384.000000 -3.000000L419.000000 -0.000000L419.000000 -31.000000L387.000000 -31.000000C297.000000 -31.000000,294.000000 -42.000000,294.000000 -79.000000"></path>
    </g>
    <g transform="scale(0.009963,0.009963)" id="GLYPHcmr10_50">
      <path style="fill-rule: evenodd;" d="M127.000000 -77.000000L233.000000 -180.000000C389.000000 -318.000000,449.000000 -372.000000,449.000000 -472.000000C449.000000 -586.000000,359.000000 -666.000000,237.000000 -666.000000C124.000000 -666.000000,50.000000 -574.000000,50.000000 -485.000000C50.000000 -429.000000,100.000000 -429.000000,103.000000 -429.000000C120.000000 -429.000000,155.000000 -441.000000,155.000000 -482.000000C155.000000 -508.000000,137.000000 -534.000000,102.000000 -534.000000C94.000000 -534.000000,92.000000 -534.000000,89.000000 -533.000000C112.000000 -598.000000,166.000000 -635.000000,224.000000 -635.000000C315.000000 -635.000000,358.000000 -554.000000,358.000000 -472.000000C358.000000 -392.000000,308.000000 -313.000000,253.000000 -251.000000L61.000000 -37.000000C50.000000 -26.000000,50.000000 -24.000000,50.000000 -0.000000L421.000000 -0.000000L449.000000 -174.000000L424.000000 -174.000000C419.000000 -144.000000,412.000000 -100.000000,402.000000 -85.000000C395.000000 -77.000000,329.000000 -77.000000,307.000000 -77.000000"></path>
    </g>
    <g transform="scale(0.009963,0.009963)" id="GLYPHcmr10_51">
      <path style="fill-rule: evenodd;" d="M290.000000 -352.000000C372.000000 -379.000000,430.000000 -449.000000,430.000000 -528.000000C430.000000 -610.000000,342.000000 -666.000000,246.000000 -666.000000C145.000000 -666.000000,69.000000 -606.000000,69.000000 -530.000000C69.000000 -497.000000,91.000000 -478.000000,120.000000 -478.000000C151.000000 -478.000000,171.000000 -500.000000,171.000000 -529.000000C171.000000 -579.000000,124.000000 -579.000000,109.000000 -579.000000C140.000000 -628.000000,206.000000 -641.000000,242.000000 -641.000000C283.000000 -641.000000,338.000000 -619.000000,338.000000 -529.000000C338.000000 -517.000000,336.000000 -459.000000,310.000000 -415.000000C280.000000 -367.000000,246.000000 -364.000000,221.000000 -363.000000C213.000000 -362.000000,189.000000 -360.000000,182.000000 -360.000000C174.000000 -359.000000,167.000000 -358.000000,167.000000 -348.000000C167.000000 -337.000000,174.000000 -337.000000,191.000000 -337.000000L235.000000 -337.000000C317.000000 -337.000000,354.000000 -269.000000,354.000000 -171.000000C354.000000 -35.000000,285.000000 -6.000000,241.000000 -6.000000C198.000000 -6.000000,123.000000 -23.000000,88.000000 -82.000000C123.000000 -77.000000,154.000000 -99.000000,154.000000 -137.000000C154.000000 -173.000000,127.000000 -193.000000,98.000000 -193.000000C74.000000 -193.000000,42.000000 -179.000000,42.000000 -135.000000C42.000000 -44.000000,135.000000 22.000000,244.000000 22.000000C366.000000 22.000000,457.000000 -69.000000,457.000000 -171.000000C457.000000 -253.000000,394.000000 -331.000000,290.000000 -352.000000"></path>
    </g>
    <g transform="scale(0.009963,0.009963)" id="GLYPHcmr10_52">
      <path style="fill-rule: evenodd;" d="M294.000000 -165.000000L294.000000 -78.000000C294.000000 -42.000000,292.000000 -31.000000,218.000000 -31.000000L197.000000 -31.000000L197.000000 -0.000000L332.000000 -0.000000L238.000000 -3.000000L290.000000 -3.000000L332.000000 -3.000000L374.000000 -3.000000L427.000000 -3.000000L468.000000 -0.000000L468.000000 -31.000000L447.000000 -31.000000C373.000000 -31.000000,371.000000 -42.000000,371.000000 -78.000000L371.000000 -165.000000L471.000000 -165.000000L471.000000 -196.000000L371.000000 -196.000000L371.000000 -651.000000C371.000000 -671.000000,371.000000 -677.000000,355.000000 -677.000000C346.000000 -677.000000,343.000000 -677.000000,335.000000 -665.000000L28.000000 -196.000000L28.000000 -165.000000M300.000000 -196.000000L56.000000 -196.000000L300.000000 -569.000000"></path>
    </g>
    <g transform="scale(0.009963,0.009963)" id="GLYPHcmr10_53">
      <path style="fill-rule: evenodd;" d="M449.000000 -201.000000C449.000000 -320.000000,367.000000 -420.000000,259.000000 -420.000000C211.000000 -420.000000,168.000000 -404.000000,132.000000 -369.000000L132.000000 -564.000000C152.000000 -558.000000,185.000000 -551.000000,217.000000 -551.000000C340.000000 -551.000000,410.000000 -642.000000,410.000000 -655.000000C410.000000 -661.000000,407.000000 -666.000000,400.000000 -666.000000C399.000000 -666.000000,397.000000 -666.000000,392.000000 -663.000000C372.000000 -654.000000,323.000000 -634.000000,256.000000 -634.000000C216.000000 -634.000000,170.000000 -641.000000,123.000000 -662.000000C115.000000 -665.000000,113.000000 -665.000000,111.000000 -665.000000C101.000000 -665.000000,101.000000 -657.000000,101.000000 -641.000000L101.000000 -345.000000C101.000000 -327.000000,101.000000 -319.000000,115.000000 -319.000000C122.000000 -319.000000,124.000000 -322.000000,128.000000 -328.000000C139.000000 -344.000000,176.000000 -398.000000,257.000000 -398.000000C309.000000 -398.000000,334.000000 -352.000000,342.000000 -334.000000C358.000000 -297.000000,360.000000 -258.000000,360.000000 -208.000000C360.000000 -173.000000,360.000000 -113.000000,336.000000 -71.000000C312.000000 -32.000000,275.000000 -6.000000,229.000000 -6.000000C156.000000 -6.000000,99.000000 -59.000000,82.000000 -118.000000C85.000000 -117.000000,88.000000 -116.000000,99.000000 -116.000000C132.000000 -116.000000,149.000000 -141.000000,149.000000 -165.000000C149.000000 -189.000000,132.000000 -214.000000,99.000000 -214.000000C85.000000 -214.000000,50.000000 -207.000000,50.000000 -161.000000C50.000000 -75.000000,119.000000 22.000000,231.000000 22.000000C347.000000 22.000000,449.000000 -74.000000,449.000000 -201.000000"></path>
    </g>
    <g transform="scale(0.009963,0.009963)" id="GLYPHcmr10_54">
      <path style="fill-rule: evenodd;" d="M132.000000 -328.000000L132.000000 -352.000000C132.000000 -605.000000,256.000000 -641.000000,307.000000 -641.000000C331.000000 -641.000000,373.000000 -635.000000,395.000000 -601.000000C380.000000 -601.000000,340.000000 -601.000000,340.000000 -556.000000C340.000000 -525.000000,364.000000 -510.000000,386.000000 -510.000000C402.000000 -510.000000,432.000000 -519.000000,432.000000 -558.000000C432.000000 -618.000000,388.000000 -666.000000,305.000000 -666.000000C177.000000 -666.000000,42.000000 -537.000000,42.000000 -316.000000C42.000000 -49.000000,158.000000 22.000000,251.000000 22.000000C362.000000 22.000000,457.000000 -72.000000,457.000000 -204.000000C457.000000 -331.000000,368.000000 -427.000000,257.000000 -427.000000C189.000000 -427.000000,152.000000 -376.000000,132.000000 -328.000000M251.000000 -6.000000C188.000000 -6.000000,158.000000 -66.000000,152.000000 -81.000000C134.000000 -128.000000,134.000000 -208.000000,134.000000 -226.000000C134.000000 -304.000000,166.000000 -404.000000,256.000000 -404.000000C272.000000 -404.000000,318.000000 -404.000000,349.000000 -342.000000C367.000000 -305.000000,367.000000 -254.000000,367.000000 -205.000000C367.000000 -157.000000,367.000000 -107.000000,350.000000 -71.000000C320.000000 -11.000000,274.000000 -6.000000,251.000000 -6.000000"></path>
    </g>
    <g transform="scale(0.009963,0.009963)" id="GLYPHcmr10_55">
      <path style="fill-rule: evenodd;" d="M476.000000 -609.000000C485.000000 -621.000000,485.000000 -623.000000,485.000000 -644.000000L242.000000 -644.000000C120.000000 -644.000000,118.000000 -657.000000,114.000000 -676.000000L89.000000 -676.000000L56.000000 -470.000000L81.000000 -470.000000C84.000000 -486.000000,93.000000 -549.000000,106.000000 -561.000000C113.000000 -567.000000,191.000000 -567.000000,204.000000 -567.000000L411.000000 -567.000000C400.000000 -551.000000,321.000000 -442.000000,299.000000 -409.000000C209.000000 -274.000000,176.000000 -135.000000,176.000000 -33.000000C176.000000 -23.000000,176.000000 22.000000,222.000000 22.000000C268.000000 22.000000,268.000000 -23.000000,268.000000 -33.000000L268.000000 -84.000000C268.000000 -139.000000,271.000000 -194.000000,279.000000 -248.000000C283.000000 -271.000000,297.000000 -357.000000,341.000000 -419.000000"></path>
    </g>
    <g transform="scale(0.009963,0.009963)" id="GLYPHcmr10_56">
      <path style="fill-rule: evenodd;" d="M163.000000 -457.000000C117.000000 -487.000000,113.000000 -521.000000,113.000000 -538.000000C113.000000 -599.000000,178.000000 -641.000000,249.000000 -641.000000C322.000000 -641.000000,386.000000 -589.000000,386.000000 -517.000000C386.000000 -460.000000,347.000000 -412.000000,287.000000 -377.000000M309.000000 -362.000000C381.000000 -399.000000,430.000000 -451.000000,430.000000 -517.000000C430.000000 -609.000000,341.000000 -666.000000,250.000000 -666.000000C150.000000 -666.000000,69.000000 -592.000000,69.000000 -499.000000C69.000000 -481.000000,71.000000 -436.000000,113.000000 -389.000000C124.000000 -377.000000,161.000000 -352.000000,186.000000 -335.000000C128.000000 -306.000000,42.000000 -250.000000,42.000000 -151.000000C42.000000 -45.000000,144.000000 22.000000,249.000000 22.000000C362.000000 22.000000,457.000000 -61.000000,457.000000 -168.000000C457.000000 -204.000000,446.000000 -249.000000,408.000000 -291.000000C389.000000 -312.000000,373.000000 -322.000000,309.000000 -362.000000M209.000000 -320.000000L332.000000 -242.000000C360.000000 -223.000000,407.000000 -193.000000,407.000000 -132.000000C407.000000 -58.000000,332.000000 -6.000000,250.000000 -6.000000C164.000000 -6.000000,92.000000 -68.000000,92.000000 -151.000000C92.000000 -209.000000,124.000000 -273.000000,209.000000 -320.000000"></path>
    </g>
    <g transform="scale(0.009963,0.009963)" id="GLYPHcmr10_57">
      <path style="fill-rule: evenodd;" d="M367.000000 -318.000000L367.000000 -286.000000C367.000000 -52.000000,263.000000 -6.000000,205.000000 -6.000000C188.000000 -6.000000,134.000000 -8.000000,107.000000 -42.000000C151.000000 -42.000000,159.000000 -71.000000,159.000000 -88.000000C159.000000 -119.000000,135.000000 -134.000000,113.000000 -134.000000C97.000000 -134.000000,67.000000 -125.000000,67.000000 -86.000000C67.000000 -19.000000,121.000000 22.000000,206.000000 22.000000C335.000000 22.000000,457.000000 -114.000000,457.000000 -329.000000C457.000000 -598.000000,342.000000 -666.000000,253.000000 -666.000000C198.000000 -666.000000,149.000000 -648.000000,106.000000 -603.000000C65.000000 -558.000000,42.000000 -516.000000,42.000000 -441.000000C42.000000 -316.000000,130.000000 -218.000000,242.000000 -218.000000C303.000000 -218.000000,344.000000 -260.000000,367.000000 -318.000000M243.000000 -241.000000C227.000000 -241.000000,181.000000 -241.000000,150.000000 -304.000000C132.000000 -341.000000,132.000000 -391.000000,132.000000 -440.000000C132.000000 -494.000000,132.000000 -541.000000,153.000000 -578.000000C180.000000 -628.000000,218.000000 -641.000000,253.000000 -641.000000C299.000000 -641.000000,332.000000 -607.000000,349.000000 -562.000000C361.000000 -530.000000,365.000000 -467.000000,365.000000 -421.000000C365.000000 -338.000000,331.000000 -241.000000,243.000000 -241.000000"></path>
    </g>
  </defs>
  <path d="M144.062958 103.233841C144.062958 102.441147,143.748016 101.681000,143.187531 101.120529C142.627060 100.560043,141.866913 100.245102,141.074219 100.245102C140.281525 100.245102,139.521378 100.560043,138.960907 101.120529C138.400421 101.681000,138.085480 102.441147,138.085480 103.233841C138.085480 104.026535,138.400421 104.786682,138.960907 105.347153C139.521378 105.907639,140.281525 106.222580,141.074219 106.222580C141.866913 106.222580,142.627060 105.907639,143.187531 105.347153C143.748016 104.786682,144.062958 104.026535,144.062958 103.233841Z" style="fill: rgb(100.000000%,100.000000%,100.000000%);stroke: none;"></path>
  <path d="M138.303619 93.250305C138.303619 92.457611,137.988678 91.697464,137.428192 91.136993C136.867722 90.576508,136.107574 90.261566,135.314880 90.261566C134.522186 90.261566,133.762039 90.576508,133.201569 91.136993C132.641083 91.697464,132.326141 92.457611,132.326141 93.250305C132.326141 94.042999,132.641083 94.803146,133.201569 95.363617C133.762039 95.924103,134.522186 96.239044,135.314880 96.239044C136.107574 96.239044,136.867722 95.924103,137.428192 95.363617C137.988678 94.803146,138.303619 94.042999,138.303619 93.250305Z" style="fill: rgb(100.000000%,100.000000%,100.000000%);stroke: none;"></path>
  <path d="M180.993164 99.196136C180.993164 98.403442,180.678223 97.643295,180.117737 97.082825C179.557266 96.522339,178.797119 96.207397,178.004425 96.207397C177.211731 96.207397,176.451584 96.522339,175.891113 97.082825C175.330627 97.643295,175.015686 98.403442,175.015686 99.196136C175.015686 99.988831,175.330627 100.748978,175.891113 101.309448C176.451584 101.869934,177.211731 102.184875,178.004425 102.184875C178.797119 102.184875,179.557266 101.869934,180.117737 101.309448C180.678223 100.748978,180.993164 99.988831,180.993164 99.196136Z" style="fill: rgb(100.000000%,100.000000%,100.000000%);stroke: none;"></path>
  <path d="M156.086655 107.739700C156.086655 106.947006,155.771713 106.186859,155.211227 105.626389C154.650757 105.065903,153.890610 104.750961,153.097916 104.750961C152.305222 104.750961,151.545074 105.065903,150.984604 105.626389C150.424118 106.186859,150.109177 106.947006,150.109177 107.739700C150.109177 108.532394,150.424118 109.292542,150.984604 109.853012C151.545074 110.413498,152.305222 110.728439,153.097916 110.728439C153.890610 110.728439,154.650757 110.413498,155.211227 109.853012C155.771713 109.292542,156.086655 108.532394,156.086655 107.739700Z" style="fill: rgb(100.000000%,100.000000%,100.000000%);stroke: none;"></path>
  <path d="M186.200546 54.957153C186.200546 54.164459,185.885605 53.404312,185.325119 52.843842C184.764648 52.283356,184.004501 51.968414,183.211807 51.968414C182.419113 51.968414,181.658966 52.283356,181.098495 52.843842C180.538010 53.404312,180.223068 54.164459,180.223068 54.957153C180.223068 55.749847,180.538010 56.509995,181.098495 57.070465C181.658966 57.630951,182.419113 57.945892,183.211807 57.945892C184.004501 57.945892,184.764648 57.630951,185.325119 57.070465C185.885605 56.509995,186.200546 55.749847,186.200546 54.957153Z" style="fill: rgb(100.000000%,100.000000%,100.000000%);stroke: none;"></path>
  <path d="M187.396896 83.820938C187.396896 83.028244,187.081955 82.268097,186.521469 81.707626C185.960999 81.147141,185.200851 80.832199,184.408157 80.832199C183.615463 80.832199,182.855316 81.147141,182.294846 81.707626C181.734360 82.268097,181.419418 83.028244,181.419418 83.820938C181.419418 84.613632,181.734360 85.373779,182.294846 85.934250C182.855316 86.494736,183.615463 86.809677,184.408157 86.809677C185.200851 86.809677,185.960999 86.494736,186.521469 85.934250C187.081955 85.373779,187.396896 84.613632,187.396896 83.820938Z" style="fill: rgb(100.000000%,100.000000%,100.000000%);stroke: none;"></path>
  <path d="M158.537277 36.991165C158.537277 36.198471,158.222336 35.438324,157.661850 34.877853C157.101379 34.317368,156.341232 34.002426,155.548538 34.002426C154.755844 34.002426,153.995697 34.317368,153.435226 34.877853C152.874741 35.438324,152.559799 36.198471,152.559799 36.991165C152.559799 37.783859,152.874741 38.544006,153.435226 39.104477C153.995697 39.664963,154.755844 39.979904,155.548538 39.979904C156.341232 39.979904,157.101379 39.664963,157.661850 39.104477C158.222336 38.544006,158.537277 37.783859,158.537277 36.991165Z" style="fill: rgb(100.000000%,100.000000%,100.000000%);stroke: none;"></path>
  <path d="M179.714767 41.620209C179.714767 40.827515,179.399826 40.067368,178.839340 39.506897C178.278870 38.946411,177.518723 38.631470,176.726028 38.631470C175.933334 38.631470,175.173187 38.946411,174.612717 39.506897C174.052231 40.067368,173.737289 40.827515,173.737289 41.620209C173.737289 42.412903,174.052231 43.173050,174.612717 43.733521C175.173187 44.294006,175.933334 44.608948,176.726028 44.608948C177.518723 44.608948,178.278870 44.294006,178.839340 43.733521C179.399826 43.173050,179.714767 42.412903,179.714767 41.620209Z" style="fill: rgb(100.000000%,100.000000%,100.000000%);stroke: none;"></path>
  <path d="M147.922256 54.085434C147.922256 53.292740,147.607315 52.532593,147.046829 51.972122C146.486359 51.411636,145.726212 51.096695,144.933517 51.096695C144.140823 51.096695,143.380676 51.411636,142.820206 51.972122C142.259720 52.532593,141.944778 53.292740,141.944778 54.085434C141.944778 54.878128,142.259720 55.638275,142.820206 56.198746C143.380676 56.759232,144.140823 57.074173,144.933517 57.074173C145.726212 57.074173,146.486359 56.759232,147.046829 56.198746C147.607315 55.638275,147.922256 54.878128,147.922256 54.085434Z" style="fill: rgb(100.000000%,100.000000%,100.000000%);stroke: none;"></path>
  <path d="M149.860825 41.419342C149.860825 40.626648,149.545883 39.866501,148.985397 39.306030C148.424927 38.745544,147.664780 38.430603,146.872086 38.430603C146.079391 38.430603,145.319244 38.745544,144.758774 39.306030C144.198288 39.866501,143.883347 40.626648,143.883347 41.419342C143.883347 42.212036,144.198288 42.972183,144.758774 43.532654C145.319244 44.093140,146.079391 44.408081,146.872086 44.408081C147.664780 44.408081,148.424927 44.093140,148.985397 43.532654C149.545883 42.972183,149.860825 42.212036,149.860825 41.419342Z" style="fill: rgb(100.000000%,100.000000%,100.000000%);stroke: none;"></path>
  <path d="M153.945648 67.199463C153.945648 66.406769,153.630707 65.646622,153.070221 65.086151C152.509750 64.525665,151.749603 64.210724,150.956909 64.210724C150.164215 64.210724,149.404068 64.525665,148.843597 65.086151C148.283112 65.646622,147.968170 66.406769,147.968170 67.199463C147.968170 67.992157,148.283112 68.752304,148.843597 69.312775C149.404068 69.873260,150.164215 70.188202,150.956909 70.188202C151.749603 70.188202,152.509750 69.873260,153.070221 69.312775C153.630707 68.752304,153.945648 67.992157,153.945648 67.199463Z" style="fill: rgb(100.000000%,100.000000%,100.000000%);stroke: none;"></path>
  <path d="M150.243652 58.376495C150.243652 57.583801,149.928711 56.823654,149.368225 56.263184C148.807755 55.702698,148.047607 55.387756,147.254913 55.387756C146.462219 55.387756,145.702072 55.702698,145.141602 56.263184C144.581116 56.823654,144.266174 57.583801,144.266174 58.376495C144.266174 59.169189,144.581116 59.929337,145.141602 60.489807C145.702072 61.050293,146.462219 61.365234,147.254913 61.365234C148.047607 61.365234,148.807755 61.050293,149.368225 60.489807C149.928711 59.929337,150.243652 59.169189,150.243652 58.376495Z" style="fill: rgb(100.000000%,100.000000%,100.000000%);stroke: none;"></path>
  <path d="M160.833038 85.659225C160.833038 84.866531,160.518097 84.106384,159.957611 83.545914C159.397141 82.985428,158.636993 82.670486,157.844299 82.670486C157.051605 82.670486,156.291458 82.985428,155.730988 83.545914C155.170502 84.106384,154.855560 84.866531,154.855560 85.659225C154.855560 86.451920,155.170502 87.212067,155.730988 87.772537C156.291458 88.333023,157.051605 88.647964,157.844299 88.647964C158.636993 88.647964,159.397141 88.333023,159.957611 87.772537C160.518097 87.212067,160.833038 86.451920,160.833038 85.659225Z" style="fill: rgb(100.000000%,100.000000%,100.000000%);stroke: none;"></path>
  <path d="M155.260223 71.988693C155.260223 71.195999,154.945282 70.435852,154.384796 69.875381C153.824326 69.314896,153.064178 68.999954,152.271484 68.999954C151.478790 68.999954,150.718643 69.314896,150.158173 69.875381C149.597687 70.435852,149.282745 71.195999,149.282745 71.988693C149.282745 72.781387,149.597687 73.541534,150.158173 74.102005C150.718643 74.662491,151.478790 74.977432,152.271484 74.977432C153.064178 74.977432,153.824326 74.662491,154.384796 74.102005C154.945282 73.541534,155.260223 72.781387,155.260223 71.988693Z" style="fill: rgb(100.000000%,100.000000%,100.000000%);stroke: none;"></path>
  <path d="M167.489548 122.924927C167.489548 122.132233,167.174606 121.372086,166.614120 120.811615C166.053650 120.251129,165.293503 119.936188,164.500809 119.936188C163.708115 119.936188,162.947968 120.251129,162.387497 120.811615C161.827011 121.372086,161.512070 122.132233,161.512070 122.924927C161.512070 123.717621,161.827011 124.477768,162.387497 125.038239C162.947968 125.598724,163.708115 125.913666,164.500809 125.913666C165.293503 125.913666,166.053650 125.598724,166.614120 125.038239C167.174606 124.477768,167.489548 123.717621,167.489548 122.924927Z" style="fill: rgb(100.000000%,100.000000%,100.000000%);stroke: none;"></path>
  <path d="M166.727661 94.134323C166.727661 93.341629,166.412720 92.581482,165.852234 92.021011C165.291763 91.460526,164.531616 91.145584,163.738922 91.145584C162.946228 91.145584,162.186081 91.460526,161.625610 92.021011C161.065125 92.581482,160.750183 93.341629,160.750183 94.134323C160.750183 94.927017,161.065125 95.687164,161.625610 96.247635C162.186081 96.808121,162.946228 97.123062,163.738922 97.123062C164.531616 97.123062,165.291763 96.808121,165.852234 96.247635C166.412720 95.687164,166.727661 94.927017,166.727661 94.134323Z" style="fill: rgb(100.000000%,100.000000%,100.000000%);stroke: none;"></path>
  <path d="M120.478867 159.420319C120.478867 158.627625,120.163925 157.867477,119.603439 157.307007C119.042969 156.746521,118.282822 156.431580,117.490128 156.431580C116.697433 156.431580,115.937286 156.746521,115.376816 157.307007C114.816330 157.867477,114.501389 158.627625,114.501389 159.420319C114.501389 160.213013,114.816330 160.973160,115.376816 161.533630C115.937286 162.094116,116.697433 162.409058,117.490128 162.409058C118.282822 162.409058,119.042969 162.094116,119.603439 161.533630C120.163925 160.973160,120.478867 160.213013,120.478867 159.420319Z" style="fill: rgb(100.000000%,100.000000%,100.000000%);stroke: none;"></path>
  <path d="M149.678741 134.779144C149.678741 133.986450,149.363800 133.226303,148.803314 132.665833C148.242844 132.105347,147.482697 131.790405,146.690002 131.790405C145.897308 131.790405,145.137161 132.105347,144.576691 132.665833C144.016205 133.226303,143.701263 133.986450,143.701263 134.779144C143.701263 135.571838,144.016205 136.331985,144.576691 136.892456C145.137161 137.452942,145.897308 137.767883,146.690002 137.767883C147.482697 137.767883,148.242844 137.452942,148.803314 136.892456C149.363800 136.331985,149.678741 135.571838,149.678741 134.779144Z" style="fill: rgb(100.000000%,100.000000%,100.000000%);stroke: none;"></path>
  <path d="M77.391724 162.337921C77.391724 161.545227,77.076782 160.785080,76.516296 160.224609C75.955826 159.664124,75.195679 159.349182,74.402985 159.349182C73.610291 159.349182,72.850143 159.664124,72.289673 160.224609C71.729187 160.785080,71.414246 161.545227,71.414246 162.337921C71.414246 163.130615,71.729187 163.890762,72.289673 164.451233C72.850143 165.011719,73.610291 165.326660,74.402985 165.326660C75.195679 165.326660,75.955826 165.011719,76.516296 164.451233C77.076782 163.890762,77.391724 163.130615,77.391724 162.337921Z" style="fill: rgb(100.000000%,100.000000%,100.000000%);stroke: none;"></path>
  <path d="M104.497498 174.231857C104.497498 173.439163,104.182556 172.679016,103.622070 172.118546C103.061600 171.558060,102.301453 171.243118,101.508759 171.243118C100.716064 171.243118,99.955917 171.558060,99.395447 172.118546C98.834961 172.679016,98.520020 173.439163,98.520020 174.231857C98.520020 175.024551,98.834961 175.784698,99.395447 176.345169C99.955917 176.905655,100.716064 177.220596,101.508759 177.220596C102.301453 177.220596,103.061600 176.905655,103.622070 176.345169C104.182556 175.784698,104.497498 175.024551,104.497498 174.231857Z" style="fill: rgb(100.000000%,100.000000%,100.000000%);stroke: none;"></path>
  <path d="M50.228149 153.980789C50.228149 153.188095,49.913208 152.427948,49.352722 151.867477C48.792252 151.306992,48.032104 150.992050,47.239410 150.992050C46.446716 150.992050,45.686569 151.306992,45.126099 151.867477C44.565613 152.427948,44.250671 153.188095,44.250671 153.980789C44.250671 154.773483,44.565613 155.533630,45.126099 156.094101C45.686569 156.654587,46.446716 156.969528,47.239410 156.969528C48.032104 156.969528,48.792252 156.654587,49.352722 156.094101C49.913208 155.533630,50.228149 154.773483,50.228149 153.980789Z" style="fill: rgb(100.000000%,100.000000%,100.000000%);stroke: none;"></path>
  <path d="M70.371414 149.617249C70.371414 148.824554,70.056473 148.064407,69.495987 147.503937C68.935516 146.943451,68.175369 146.628510,67.382675 146.628510C66.589981 146.628510,65.829834 146.943451,65.269363 147.503937C64.708878 148.064407,64.393936 148.824554,64.393936 149.617249C64.393936 150.409943,64.708878 151.170090,65.269363 151.730560C65.829834 152.291046,66.589981 152.605988,67.382675 152.605988C68.175369 152.605988,68.935516 152.291046,69.495987 151.730560C70.056473 151.170090,70.371414 150.409943,70.371414 149.617249Z" style="fill: rgb(100.000000%,100.000000%,100.000000%);stroke: none;"></path>
  <path d="M30.352371 169.930298C30.352371 169.137604,30.037430 168.377457,29.476944 167.816986C28.916473 167.256500,28.156326 166.941559,27.363632 166.941559C26.570938 166.941559,25.810791 167.256500,25.250320 167.816986C24.689835 168.377457,24.374893 169.137604,24.374893 169.930298C24.374893 170.722992,24.689835 171.483139,25.250320 172.043610C25.810791 172.604095,26.570938 172.919037,27.363632 172.919037C28.156326 172.919037,28.916473 172.604095,29.476944 172.043610C30.037430 171.483139,30.352371 170.722992,30.352371 169.930298Z" style="fill: rgb(100.000000%,100.000000%,100.000000%);stroke: none;"></path>
  <path d="M46.603409 164.624603C46.603409 163.831909,46.288467 163.071762,45.727982 162.511292C45.167511 161.950806,44.407364 161.635864,43.614670 161.635864C42.821976 161.635864,42.061829 161.950806,41.501358 162.511292C40.940872 163.071762,40.625931 163.831909,40.625931 164.624603C40.625931 165.417297,40.940872 166.177444,41.501358 166.737915C42.061829 167.298401,42.821976 167.613342,43.614670 167.613342C44.407364 167.613342,45.167511 167.298401,45.727982 166.737915C46.288467 166.177444,46.603409 165.417297,46.603409 164.624603Z" style="fill: rgb(100.000000%,100.000000%,100.000000%);stroke: none;"></path>
  <path d="M13.018372 150.877808C13.018372 150.085114,12.703430 149.324966,12.142944 148.764496C11.582474 148.204010,10.822327 147.889069,10.029633 147.889069C9.236938 147.889069,8.476791 148.204010,7.916321 148.764496C7.355835 149.324966,7.040894 150.085114,7.040894 150.877808C7.040894 151.670502,7.355835 152.430649,7.916321 152.991119C8.476791 153.551605,9.236938 153.866547,10.029633 153.866547C10.822327 153.866547,11.582474 153.551605,12.142944 152.991119C12.703430 152.430649,13.018372 151.670502,13.018372 150.877808Z" style="fill: rgb(100.000000%,100.000000%,100.000000%);stroke: none;"></path>
  <path d="M22.358261 165.186874C22.358261 164.394180,22.043320 163.634033,21.482834 163.073563C20.922363 162.513077,20.162216 162.198135,19.369522 162.198135C18.576828 162.198135,17.816681 162.513077,17.256210 163.073563C16.695724 163.634033,16.380783 164.394180,16.380783 165.186874C16.380783 165.979568,16.695724 166.739716,17.256210 167.300186C17.816681 167.860672,18.576828 168.175613,19.369522 168.175613C20.162216 168.175613,20.922363 167.860672,21.482834 167.300186C22.043320 166.739716,22.358261 165.979568,22.358261 165.186874Z" style="fill: rgb(100.000000%,100.000000%,100.000000%);stroke: none;"></path>
  <path d="M20.336060 128.220306C20.336060 127.427612,20.021118 126.667465,19.460632 126.106995C18.900162 125.546509,18.140015 125.231567,17.347321 125.231567C16.554626 125.231567,15.794479 125.546509,15.234009 126.106995C14.673523 126.667465,14.358582 127.427612,14.358582 128.220306C14.358582 129.013000,14.673523 129.773148,15.234009 130.333618C15.794479 130.894104,16.554626 131.209045,17.347321 131.209045C18.140015 131.209045,18.900162 130.894104,19.460632 130.333618C20.021118 129.773148,20.336060 129.013000,20.336060 128.220306Z" style="fill: rgb(100.000000%,100.000000%,100.000000%);stroke: none;"></path>
  <path d="M11.717590 141.750961C11.717590 140.958267,11.402649 140.198120,10.842163 139.637650C10.281693 139.077164,9.521545 138.762222,8.728851 138.762222C7.936157 138.762222,7.176010 139.077164,6.615540 139.637650C6.055054 140.198120,5.740112 140.958267,5.740112 141.750961C5.740112 142.543655,6.055054 143.303802,6.615540 143.864273C7.176010 144.424759,7.936157 144.739700,8.728851 144.739700C9.521545 144.739700,10.281693 144.424759,10.842163 143.864273C11.402649 143.303802,11.717590 142.543655,11.717590 141.750961Z" style="fill: rgb(100.000000%,100.000000%,100.000000%);stroke: none;"></path>
  <path d="M32.945175 108.594070C32.945175 107.801376,32.630234 107.041229,32.069748 106.480759C31.509277 105.920273,30.749130 105.605331,29.956436 105.605331C29.163742 105.605331,28.403595 105.920273,27.843124 106.480759C27.282639 107.041229,26.967697 107.801376,26.967697 108.594070C26.967697 109.386765,27.282639 110.146912,27.843124 110.707382C28.403595 111.267868,29.163742 111.582809,29.956436 111.582809C30.749130 111.582809,31.509277 111.267868,32.069748 110.707382C32.630234 110.146912,32.945175 109.386765,32.945175 108.594070Z" style="fill: rgb(100.000000%,100.000000%,100.000000%);stroke: none;"></path>
  <path d="M28.712341 124.965393C28.712341 124.172699,28.397400 123.412552,27.836914 122.852081C27.276443 122.291595,26.516296 121.976654,25.723602 121.976654C24.930908 121.976654,24.170761 122.291595,23.610291 122.852081C23.049805 123.412552,22.734863 124.172699,22.734863 124.965393C22.734863 125.758087,23.049805 126.518234,23.610291 127.078705C24.170761 127.639191,24.930908 127.954132,25.723602 127.954132C26.516296 127.954132,27.276443 127.639191,27.836914 127.078705C28.397400 126.518234,28.712341 125.758087,28.712341 124.965393Z" style="fill: rgb(100.000000%,100.000000%,100.000000%);stroke: none;"></path>
  <path d="M19.889267 80.932465C19.889267 80.139771,19.574326 79.379623,19.013840 78.819153C18.453369 78.258667,17.693222 77.943726,16.900528 77.943726C16.107834 77.943726,15.347687 78.258667,14.787216 78.819153C14.226730 79.379623,13.911789 80.139771,13.911789 80.932465C13.911789 81.725159,14.226730 82.485306,14.787216 83.045776C15.347687 83.606262,16.107834 83.921204,16.900528 83.921204C17.693222 83.921204,18.453369 83.606262,19.013840 83.045776C19.574326 82.485306,19.889267 81.725159,19.889267 80.932465Z" style="fill: rgb(100.000000%,100.000000%,100.000000%);stroke: none;"></path>
  <path d="M24.895218 101.288956C24.895218 100.496262,24.580276 99.736115,24.019791 99.175644C23.459320 98.615158,22.699173 98.300217,21.906479 98.300217C21.113785 98.300217,20.353638 98.615158,19.793167 99.175644C19.232681 99.736115,18.917740 100.496262,18.917740 101.288956C18.917740 102.081650,19.232681 102.841797,19.793167 103.402267C20.353638 103.962753,21.113785 104.277695,21.906479 104.277695C22.699173 104.277695,23.459320 103.962753,24.019791 103.402267C24.580276 102.841797,24.895218 102.081650,24.895218 101.288956Z" style="fill: rgb(100.000000%,100.000000%,100.000000%);stroke: none;"></path>
  <path d="M38.987442 48.722565C38.987442 47.929871,38.672501 47.169724,38.112015 46.609253C37.551544 46.048767,36.791397 45.733826,35.998703 45.733826C35.206009 45.733826,34.445862 46.048767,33.885391 46.609253C33.324905 47.169724,33.009964 47.929871,33.009964 48.722565C33.009964 49.515259,33.324905 50.275406,33.885391 50.835876C34.445862 51.396362,35.206009 51.711304,35.998703 51.711304C36.791397 51.711304,37.551544 51.396362,38.112015 50.835876C38.672501 50.275406,38.987442 49.515259,38.987442 48.722565Z" style="fill: rgb(100.000000%,100.000000%,100.000000%);stroke: none;"></path>
  <path d="M27.694122 70.255264C27.694122 69.462570,27.379181 68.702423,26.818695 68.141953C26.258224 67.581467,25.498077 67.266525,24.705383 67.266525C23.912689 67.266525,23.152542 67.581467,22.592072 68.141953C22.031586 68.702423,21.716644 69.462570,21.716644 70.255264C21.716644 71.047958,22.031586 71.808105,22.592072 72.368576C23.152542 72.929062,23.912689 73.244003,24.705383 73.244003C25.498077 73.244003,26.258224 72.929062,26.818695 72.368576C27.379181 71.808105,27.694122 71.047958,27.694122 70.255264Z" style="fill: rgb(100.000000%,100.000000%,100.000000%);stroke: none;"></path>
  <path d="M64.702255 33.033539C64.702255 32.240845,64.387314 31.480698,63.826828 30.920227C63.266357 30.359741,62.506210 30.044800,61.713516 30.044800C60.920822 30.044800,60.160675 30.359741,59.600204 30.920227C59.039719 31.480698,58.724777 32.240845,58.724777 33.033539C58.724777 33.826233,59.039719 34.586380,59.600204 35.146851C60.160675 35.707336,60.920822 36.022278,61.713516 36.022278C62.506210 36.022278,63.266357 35.707336,63.826828 35.146851C64.387314 34.586380,64.702255 33.826233,64.702255 33.033539Z" style="fill: rgb(100.000000%,100.000000%,100.000000%);stroke: none;"></path>
  <path d="M44.175278 35.882996C44.175278 35.090302,43.860336 34.330154,43.299850 33.769684C42.739380 33.209198,41.979233 32.894257,41.186539 32.894257C40.393845 32.894257,39.633698 33.209198,39.073227 33.769684C38.512741 34.330154,38.197800 35.090302,38.197800 35.882996C38.197800 36.675690,38.512741 37.435837,39.073227 37.996307C39.633698 38.556793,40.393845 38.871735,41.186539 38.871735C41.979233 38.871735,42.739380 38.556793,43.299850 37.996307C43.860336 37.435837,44.175278 36.675690,44.175278 35.882996Z" style="fill: rgb(100.000000%,100.000000%,100.000000%);stroke: none;"></path>
  <path d="M90.863083 32.185303C90.863083 31.392609,90.548141 30.632462,89.987656 30.071991C89.427185 29.511505,88.667038 29.196564,87.874344 29.196564C87.081650 29.196564,86.321503 29.511505,85.761032 30.071991C85.200546 30.632462,84.885605 31.392609,84.885605 32.185303C84.885605 32.977997,85.200546 33.738144,85.761032 34.298615C86.321503 34.859100,87.081650 35.174042,87.874344 35.174042C88.667038 35.174042,89.427185 34.859100,89.987656 34.298615C90.548141 33.738144,90.863083 32.977997,90.863083 32.185303Z" style="fill: rgb(100.000000%,100.000000%,100.000000%);stroke: none;"></path>
  <path d="M73.250061 39.070038C73.250061 38.277344,72.935120 37.517197,72.374634 36.956726C71.814163 36.396240,71.054016 36.081299,70.261322 36.081299C69.468628 36.081299,68.708481 36.396240,68.148010 36.956726C67.587524 37.517197,67.272583 38.277344,67.272583 39.070038C67.272583 39.862732,67.587524 40.622879,68.148010 41.183350C68.708481 41.743835,69.468628 42.058777,70.261322 42.058777C71.054016 42.058777,71.814163 41.743835,72.374634 41.183350C72.935120 40.622879,73.250061 39.862732,73.250061 39.070038Z" style="fill: rgb(100.000000%,100.000000%,100.000000%);stroke: none;"></path>
  <path d="M109.221329 3.667877C109.221329 2.875183,108.906387 2.115036,108.345901 1.554565C107.785431 0.994080,107.025284 0.679138,106.232590 0.679138C105.439896 0.679138,104.679749 0.994080,104.119278 1.554565C103.558792 2.115036,103.243851 2.875183,103.243851 3.667877C103.243851 4.460571,103.558792 5.220718,104.119278 5.781189C104.679749 6.341675,105.439896 6.656616,106.232590 6.656616C107.025284 6.656616,107.785431 6.341675,108.345901 5.781189C108.906387 5.220718,109.221329 4.460571,109.221329 3.667877Z" style="fill: rgb(100.000000%,100.000000%,100.000000%);stroke: none;"></path>
  <path d="M91.914001 19.845963C91.914001 19.053268,91.599060 18.293121,91.038574 17.732651C90.478104 17.172165,89.717957 16.857224,88.925262 16.857224C88.132568 16.857224,87.372421 17.172165,86.811951 17.732651C86.251465 18.293121,85.936523 19.053268,85.936523 19.845963C85.936523 20.638657,86.251465 21.398804,86.811951 21.959274C87.372421 22.519760,88.132568 22.834702,88.925262 22.834702C89.717957 22.834702,90.478104 22.519760,91.038574 21.959274C91.599060 21.398804,91.914001 20.638657,91.914001 19.845963Z" style="fill: rgb(100.000000%,100.000000%,100.000000%);stroke: none;"></path>
  <path d="M150.252197 19.201279C150.252197 18.408585,149.937256 17.648438,149.376770 17.087967C148.816299 16.527481,148.056152 16.212540,147.263458 16.212540C146.470764 16.212540,145.710617 16.527481,145.150146 17.087967C144.589661 17.648438,144.274719 18.408585,144.274719 19.201279C144.274719 19.993973,144.589661 20.754120,145.150146 21.314590C145.710617 21.875076,146.470764 22.190018,147.263458 22.190018C148.056152 22.190018,148.816299 21.875076,149.376770 21.314590C149.937256 20.754120,150.252197 19.993973,150.252197 19.201279Z" style="fill: rgb(100.000000%,100.000000%,100.000000%);stroke: none;"></path>
  <path d="M124.515198 8.075943C124.515198 7.283249,124.200256 6.523102,123.639771 5.962631C123.079300 5.402145,122.319153 5.087204,121.526459 5.087204C120.733765 5.087204,119.973618 5.402145,119.413147 5.962631C118.852661 6.523102,118.537720 7.283249,118.537720 8.075943C118.537720 8.868637,118.852661 9.628784,119.413147 10.189255C119.973618 10.749741,120.733765 11.064682,121.526459 11.064682C122.319153 11.064682,123.079300 10.749741,123.639771 10.189255C124.200256 9.628784,124.515198 8.868637,124.515198 8.075943Z" style="fill: rgb(100.000000%,100.000000%,100.000000%);stroke: none;"></path>
  <path d="M169.060516 46.182312C169.060516 45.389618,168.745575 44.629471,168.185089 44.069000C167.624619 43.508514,166.864471 43.193573,166.071777 43.193573C165.279083 43.193573,164.518936 43.508514,163.958466 44.069000C163.397980 44.629471,163.083038 45.389618,163.083038 46.182312C163.083038 46.975006,163.397980 47.735153,163.958466 48.295624C164.518936 48.856110,165.279083 49.171051,166.071777 49.171051C166.864471 49.171051,167.624619 48.856110,168.185089 48.295624C168.745575 47.735153,169.060516 46.975006,169.060516 46.182312Z" style="fill: rgb(100.000000%,100.000000%,100.000000%);stroke: none;"></path>
  <path d="M163.326950 25.858704C163.326950 25.066010,163.012009 24.305862,162.451523 23.745392C161.891052 23.184906,161.130905 22.869965,160.338211 22.869965C159.545517 22.869965,158.785370 23.184906,158.224899 23.745392C157.664413 24.305862,157.349472 25.066010,157.349472 25.858704C157.349472 26.651398,157.664413 27.411545,158.224899 27.972015C158.785370 28.532501,159.545517 28.847443,160.338211 28.847443C161.130905 28.847443,161.891052 28.532501,162.451523 27.972015C163.012009 27.411545,163.326950 26.651398,163.326950 25.858704Z" style="fill: rgb(100.000000%,100.000000%,100.000000%);stroke: none;"></path>
  <path d="M158.484039 60.715195C158.484039 59.922501,158.169098 59.162354,157.608612 58.601883C157.048141 58.041397,156.287994 57.726456,155.495300 57.726456C154.702606 57.726456,153.942459 58.041397,153.381989 58.601883C152.821503 59.162354,152.506561 59.922501,152.506561 60.715195C152.506561 61.507889,152.821503 62.268036,153.381989 62.828506C153.942459 63.388992,154.702606 63.703934,155.495300 63.703934C156.287994 63.703934,157.048141 63.388992,157.608612 62.828506C158.169098 62.268036,158.484039 61.507889,158.484039 60.715195Z" style="fill: rgb(100.000000%,100.000000%,100.000000%);stroke: none;"></path>
  <path d="M167.219025 54.239899C167.219025 53.447205,166.904083 52.687057,166.343597 52.126587C165.783127 51.566101,165.022980 51.251160,164.230286 51.251160C163.437592 51.251160,162.677444 51.566101,162.116974 52.126587C161.556488 52.687057,161.241547 53.447205,161.241547 54.239899C161.241547 55.032593,161.556488 55.792740,162.116974 56.353210C162.677444 56.913696,163.437592 57.228638,164.230286 57.228638C165.022980 57.228638,165.783127 56.913696,166.343597 56.353210C166.904083 55.792740,167.219025 55.032593,167.219025 54.239899Z" style="fill: rgb(100.000000%,100.000000%,100.000000%);stroke: none;"></path>
  <path d="M148.011139 63.845016C148.011139 63.052322,147.696198 62.292175,147.135712 61.731705C146.575241 61.171219,145.815094 60.856277,145.022400 60.856277C144.229706 60.856277,143.469559 61.171219,142.909088 61.731705C142.348602 62.292175,142.033661 63.052322,142.033661 63.845016C142.033661 64.637711,142.348602 65.397858,142.909088 65.958328C143.469559 66.518814,144.229706 66.833755,145.022400 66.833755C145.815094 66.833755,146.575241 66.518814,147.135712 65.958328C147.696198 65.397858,148.011139 64.637711,148.011139 63.845016Z" style="fill: rgb(100.000000%,100.000000%,100.000000%);stroke: none;"></path>
  <path d="M155.229568 61.676865C155.229568 60.884171,154.914627 60.124023,154.354141 59.563553C153.793671 59.003067,153.033524 58.688126,152.240829 58.688126C151.448135 58.688126,150.687988 59.003067,150.127518 59.563553C149.567032 60.124023,149.252090 60.884171,149.252090 61.676865C149.252090 62.469559,149.567032 63.229706,150.127518 63.790176C150.687988 64.350662,151.448135 64.665604,152.240829 64.665604C153.033524 64.665604,153.793671 64.350662,154.354141 63.790176C154.914627 63.229706,155.229568 62.469559,155.229568 61.676865Z" style="fill: rgb(100.000000%,100.000000%,100.000000%);stroke: none;"></path>
  <path d="M136.386520 69.256317C136.386520 68.463623,136.071579 67.703476,135.511093 67.143005C134.950623 66.582520,134.190475 66.267578,133.397781 66.267578C132.605087 66.267578,131.844940 66.582520,131.284470 67.143005C130.723984 67.703476,130.409042 68.463623,130.409042 69.256317C130.409042 70.049011,130.723984 70.809158,131.284470 71.369629C131.844940 71.930115,132.605087 72.245056,133.397781 72.245056C134.190475 72.245056,134.950623 71.930115,135.511093 71.369629C136.071579 70.809158,136.386520 70.049011,136.386520 69.256317Z" style="fill: rgb(100.000000%,100.000000%,100.000000%);stroke: none;"></path>
  <path d="M143.981918 65.099731C143.981918 64.307037,143.666977 63.546890,143.106491 62.986420C142.546021 62.425934,141.785873 62.110992,140.993179 62.110992C140.200485 62.110992,139.440338 62.425934,138.879868 62.986420C138.319382 63.546890,138.004440 64.307037,138.004440 65.099731C138.004440 65.892426,138.319382 66.652573,138.879868 67.213043C139.440338 67.773529,140.200485 68.088470,140.993179 68.088470C141.785873 68.088470,142.546021 67.773529,143.106491 67.213043C143.666977 66.652573,143.981918 65.892426,143.981918 65.099731Z" style="fill: rgb(100.000000%,100.000000%,100.000000%);stroke: none;"></path>
  <path d="M126.869522 78.571854C126.869522 77.779160,126.554581 77.019012,125.994095 76.458542C125.433624 75.898056,124.673477 75.583115,123.880783 75.583115C123.088089 75.583115,122.327942 75.898056,121.767471 76.458542C121.206985 77.019012,120.892044 77.779160,120.892044 78.571854C120.892044 79.364548,121.206985 80.124695,121.767471 80.685165C122.327942 81.245651,123.088089 81.560593,123.880783 81.560593C124.673477 81.560593,125.433624 81.245651,125.994095 80.685165C126.554581 80.124695,126.869522 79.364548,126.869522 78.571854Z" style="fill: rgb(100.000000%,100.000000%,100.000000%);stroke: none;"></path>
  <path d="M132.987579 72.184250C132.987579 71.391556,132.672638 70.631409,132.112152 70.070938C131.551682 69.510452,130.791534 69.195511,129.998840 69.195511C129.206146 69.195511,128.445999 69.510452,127.885529 70.070938C127.325043 70.631409,127.010101 71.391556,127.010101 72.184250C127.010101 72.976944,127.325043 73.737091,127.885529 74.297562C128.445999 74.858047,129.206146 75.172989,129.998840 75.172989C130.791534 75.172989,131.551682 74.858047,132.112152 74.297562C132.672638 73.737091,132.987579 72.976944,132.987579 72.184250Z" style="fill: rgb(100.000000%,100.000000%,100.000000%);stroke: none;"></path>
  <path d="M114.579956 79.396637C114.579956 78.603943,114.265015 77.843796,113.704529 77.283325C113.144058 76.722839,112.383911 76.407898,111.591217 76.407898C110.798523 76.407898,110.038376 76.722839,109.477905 77.283325C108.917419 77.843796,108.602478 78.603943,108.602478 79.396637C108.602478 80.189331,108.917419 80.949478,109.477905 81.509949C110.038376 82.070435,110.798523 82.385376,111.591217 82.385376C112.383911 82.385376,113.144058 82.070435,113.704529 81.509949C114.265015 80.949478,114.579956 80.189331,114.579956 79.396637Z" style="fill: rgb(100.000000%,100.000000%,100.000000%);stroke: none;"></path>
  <path d="M123.378494 82.003845C123.378494 81.211151,123.063553 80.451004,122.503067 79.890533C121.942596 79.330048,121.182449 79.015106,120.389755 79.015106C119.597061 79.015106,118.836914 79.330048,118.276443 79.890533C117.715958 80.451004,117.401016 81.211151,117.401016 82.003845C117.401016 82.796539,117.715958 83.556686,118.276443 84.117157C118.836914 84.677643,119.597061 84.992584,120.389755 84.992584C121.182449 84.992584,121.942596 84.677643,122.503067 84.117157C123.063553 83.556686,123.378494 82.796539,123.378494 82.003845Z" style="fill: rgb(100.000000%,100.000000%,100.000000%);stroke: none;"></path>
  <path d="M112.825455 60.751099C112.825455 59.958405,112.510513 59.198257,111.950027 58.637787C111.389557 58.077301,110.629410 57.762360,109.836716 57.762360C109.044022 57.762360,108.283875 58.077301,107.723404 58.637787C107.162918 59.198257,106.847977 59.958405,106.847977 60.751099C106.847977 61.543793,107.162918 62.303940,107.723404 62.864410C108.283875 63.424896,109.044022 63.739838,109.836716 63.739838C110.629410 63.739838,111.389557 63.424896,111.950027 62.864410C112.510513 62.303940,112.825455 61.543793,112.825455 60.751099Z" style="fill: rgb(100.000000%,100.000000%,100.000000%);stroke: none;"></path>
  <path d="M114.027786 73.575531C114.027786 72.782837,113.712845 72.022690,113.152359 71.462219C112.591888 70.901733,111.831741 70.586792,111.039047 70.586792C110.246353 70.586792,109.486206 70.901733,108.925735 71.462219C108.365250 72.022690,108.050308 72.782837,108.050308 73.575531C108.050308 74.368225,108.365250 75.128372,108.925735 75.688843C109.486206 76.249329,110.246353 76.564270,111.039047 76.564270C111.831741 76.564270,112.591888 76.249329,113.152359 75.688843C113.712845 75.128372,114.027786 74.368225,114.027786 73.575531Z" style="fill: rgb(100.000000%,100.000000%,100.000000%);stroke: none;"></path>
  <path d="M106.287628 34.507584C106.287628 33.714890,105.972687 32.954742,105.412201 32.394272C104.851730 31.833786,104.091583 31.518845,103.298889 31.518845C102.506195 31.518845,101.746048 31.833786,101.185577 32.394272C100.625092 32.954742,100.310150 33.714890,100.310150 34.507584C100.310150 35.300278,100.625092 36.060425,101.185577 36.620895C101.746048 37.181381,102.506195 37.496323,103.298889 37.496323C104.091583 37.496323,104.851730 37.181381,105.412201 36.620895C105.972687 36.060425,106.287628 35.300278,106.287628 34.507584Z" style="fill: rgb(100.000000%,100.000000%,100.000000%);stroke: none;"></path>
  <path d="M110.017303 53.449966C110.017303 52.657272,109.702362 51.897125,109.141876 51.336655C108.581406 50.776169,107.821259 50.461227,107.028564 50.461227C106.235870 50.461227,105.475723 50.776169,104.915253 51.336655C104.354767 51.897125,104.039825 52.657272,104.039825 53.449966C104.039825 54.242661,104.354767 55.002808,104.915253 55.563278C105.475723 56.123764,106.235870 56.438705,107.028564 56.438705C107.821259 56.438705,108.581406 56.123764,109.141876 55.563278C109.702362 55.002808,110.017303 54.242661,110.017303 53.449966Z" style="fill: rgb(100.000000%,100.000000%,100.000000%);stroke: none;"></path>
  <path d="M92.021759 4.933136C92.021759 4.140442,91.706818 3.380295,91.146332 2.819824C90.585861 2.259338,89.825714 1.944397,89.033020 1.944397C88.240326 1.944397,87.480179 2.259338,86.919708 2.819824C86.359222 3.380295,86.044281 4.140442,86.044281 4.933136C86.044281 5.725830,86.359222 6.485977,86.919708 7.046448C87.480179 7.606934,88.240326 7.921875,89.033020 7.921875C89.825714 7.921875,90.585861 7.606934,91.146332 7.046448C91.706818 6.485977,92.021759 5.725830,92.021759 4.933136Z" style="fill: rgb(100.000000%,100.000000%,100.000000%);stroke: none;"></path>
  <path d="M106.701981 21.991928C106.701981 21.199234,106.387039 20.439087,105.826553 19.878616C105.266083 19.318130,104.505936 19.003189,103.713242 19.003189C102.920547 19.003189,102.160400 19.318130,101.599930 19.878616C101.039444 20.439087,100.724503 21.199234,100.724503 21.991928C100.724503 22.784622,101.039444 23.544769,101.599930 24.105240C102.160400 24.665726,102.920547 24.980667,103.713242 24.980667C104.505936 24.980667,105.266083 24.665726,105.826553 24.105240C106.387039 23.544769,106.701981 22.784622,106.701981 21.991928Z" style="fill: rgb(100.000000%,100.000000%,100.000000%);stroke: none;"></path>
  <path d="M60.530579 12.118683C60.530579 11.325989,60.215637 10.565842,59.655151 10.005371C59.094681 9.444885,58.334534 9.129944,57.541840 9.129944C56.749146 9.129944,55.988998 9.444885,55.428528 10.005371C54.868042 10.565842,54.553101 11.325989,54.553101 12.118683C54.553101 12.911377,54.868042 13.671524,55.428528 14.231995C55.988998 14.792480,56.749146 15.107422,57.541840 15.107422C58.334534 15.107422,59.094681 14.792480,59.655151 14.231995C60.215637 13.671524,60.530579 12.911377,60.530579 12.118683Z" style="fill: rgb(100.000000%,100.000000%,100.000000%);stroke: none;"></path>
  <path d="M80.304489 2.552551C80.304489 1.759857,79.989548 0.999710,79.429062 0.439240C78.868591 -0.121246,78.108444 -0.436188,77.315750 -0.436188C76.523056 -0.436188,75.762909 -0.121246,75.202438 0.439240C74.641953 0.999710,74.327011 1.759857,74.327011 2.552551C74.327011 3.345245,74.641953 4.105392,75.202438 4.665863C75.762909 5.226349,76.523056 5.541290,77.315750 5.541290C78.108444 5.541290,78.868591 5.226349,79.429062 4.665863C79.989548 4.105392,80.304489 3.345245,80.304489 2.552551Z" style="fill: rgb(100.000000%,100.000000%,100.000000%);stroke: none;"></path>
  <path d="M57.170776 44.829086C57.170776 44.036392,56.855835 43.276245,56.295349 42.715775C55.734879 42.155289,54.974731 41.840347,54.182037 41.840347C53.389343 41.840347,52.629196 42.155289,52.068726 42.715775C51.508240 43.276245,51.193298 44.036392,51.193298 44.829086C51.193298 45.621780,51.508240 46.381927,52.068726 46.942398C52.629196 47.502884,53.389343 47.817825,54.182037 47.817825C54.974731 47.817825,55.734879 47.502884,56.295349 46.942398C56.855835 46.381927,57.170776 45.621780,57.170776 44.829086Z" style="fill: rgb(100.000000%,100.000000%,100.000000%);stroke: none;"></path>
  <path d="M55.170471 23.047348C55.170471 22.254654,54.855530 21.494507,54.295044 20.934036C53.734573 20.373550,52.974426 20.058609,52.181732 20.058609C51.389038 20.058609,50.628891 20.373550,50.068420 20.934036C49.507935 21.494507,49.192993 22.254654,49.192993 23.047348C49.192993 23.840042,49.507935 24.600189,50.068420 25.160660C50.628891 25.721146,51.389038 26.036087,52.181732 26.036087C52.974426 26.036087,53.734573 25.721146,54.295044 25.160660C54.855530 24.600189,55.170471 23.840042,55.170471 23.047348Z" style="fill: rgb(100.000000%,100.000000%,100.000000%);stroke: none;"></path>
  <path d="M70.892120 71.563126C70.892120 70.770432,70.577179 70.010284,70.016693 69.449814C69.456223 68.889328,68.696075 68.574387,67.903381 68.574387C67.110687 68.574387,66.350540 68.889328,65.790070 69.449814C65.229584 70.010284,64.914642 70.770432,64.914642 71.563126C64.914642 72.355820,65.229584 73.115967,65.790070 73.676437C66.350540 74.236923,67.110687 74.551865,67.903381 74.551865C68.696075 74.551865,69.456223 74.236923,70.016693 73.676437C70.577179 73.115967,70.892120 72.355820,70.892120 71.563126Z" style="fill: rgb(100.000000%,100.000000%,100.000000%);stroke: none;"></path>
  <path d="M63.713379 53.803040C63.713379 53.010345,63.398438 52.250198,62.837952 51.689728C62.277481 51.129242,61.517334 50.814301,60.724640 50.814301C59.931946 50.814301,59.171799 51.129242,58.611328 51.689728C58.050842 52.250198,57.735901 53.010345,57.735901 53.803040C57.735901 54.595734,58.050842 55.355881,58.611328 55.916351C59.171799 56.476837,59.931946 56.791779,60.724640 56.791779C61.517334 56.791779,62.277481 56.476837,62.837952 55.916351C63.398438 55.355881,63.713379 54.595734,63.713379 53.803040Z" style="fill: rgb(100.000000%,100.000000%,100.000000%);stroke: none;"></path>
  <path d="M76.953079 99.369217C76.953079 98.576523,76.638138 97.816376,76.077652 97.255905C75.517181 96.695419,74.757034 96.380478,73.964340 96.380478C73.171646 96.380478,72.411499 96.695419,71.851028 97.255905C71.290543 97.816376,70.975601 98.576523,70.975601 99.369217C70.975601 100.161911,71.290543 100.922058,71.851028 101.482529C72.411499 102.043015,73.171646 102.357956,73.964340 102.357956C74.757034 102.357956,75.517181 102.043015,76.077652 101.482529C76.638138 100.922058,76.953079 100.161911,76.953079 99.369217Z" style="fill: rgb(100.000000%,100.000000%,100.000000%);stroke: none;"></path>
  <path d="M72.400009 80.022964C72.400009 79.230270,72.085068 78.470123,71.524582 77.909653C70.964111 77.349167,70.203964 77.034225,69.411270 77.034225C68.618576 77.034225,67.858429 77.349167,67.297958 77.909653C66.737473 78.470123,66.422531 79.230270,66.422531 80.022964C66.422531 80.815659,66.737473 81.575806,67.297958 82.136276C67.858429 82.696762,68.618576 83.011703,69.411270 83.011703C70.203964 83.011703,70.964111 82.696762,71.524582 82.136276C72.085068 81.575806,72.400009 80.815659,72.400009 80.022964Z" style="fill: rgb(100.000000%,100.000000%,100.000000%);stroke: none;"></path>
  <path d="M88.674683 136.070953C88.674683 135.278259,88.359741 134.518112,87.799255 133.957642C87.238785 133.397156,86.478638 133.082214,85.685944 133.082214C84.893250 133.082214,84.133102 133.397156,83.572632 133.957642C83.012146 134.518112,82.697205 135.278259,82.697205 136.070953C82.697205 136.863647,83.012146 137.623795,83.572632 138.184265C84.133102 138.744751,84.893250 139.059692,85.685944 139.059692C86.478638 139.059692,87.238785 138.744751,87.799255 138.184265C88.359741 137.623795,88.674683 136.863647,88.674683 136.070953Z" style="fill: rgb(100.000000%,100.000000%,100.000000%);stroke: none;"></path>
  <path d="M80.355286 110.188232C80.355286 109.395538,80.040344 108.635391,79.479858 108.074921C78.919388 107.514435,78.159241 107.199493,77.366547 107.199493C76.573853 107.199493,75.813705 107.514435,75.253235 108.074921C74.692749 108.635391,74.377808 109.395538,74.377808 110.188232C74.377808 110.980927,74.692749 111.741074,75.253235 112.301544C75.813705 112.862030,76.573853 113.176971,77.366547 113.176971C78.159241 113.176971,78.919388 112.862030,79.479858 112.301544C80.040344 111.741074,80.355286 110.980927,80.355286 110.188232Z" style="fill: rgb(100.000000%,100.000000%,100.000000%);stroke: none;"></path>
  <path d="M82.742874 178.537918C82.742874 177.745224,82.427933 176.985077,81.867447 176.424606C81.306976 175.864120,80.546829 175.549179,79.754135 175.549179C78.961441 175.549179,78.201294 175.864120,77.640823 176.424606C77.080338 176.985077,76.765396 177.745224,76.765396 178.537918C76.765396 179.330612,77.080338 180.090759,77.640823 180.651230C78.201294 181.211716,78.961441 181.526657,79.754135 181.526657C80.546829 181.526657,81.306976 181.211716,81.867447 180.651230C82.427933 180.090759,82.742874 179.330612,82.742874 178.537918Z" style="fill: rgb(100.000000%,100.000000%,100.000000%);stroke: none;"></path>
  <path d="M93.532303 152.115234C93.532303 151.322540,93.217361 150.562393,92.656876 150.001923C92.096405 149.441437,91.336258 149.126495,90.543564 149.126495C89.750870 149.126495,88.990723 149.441437,88.430252 150.001923C87.869766 150.562393,87.554825 151.322540,87.554825 152.115234C87.554825 152.907928,87.869766 153.668076,88.430252 154.228546C88.990723 154.789032,89.750870 155.103973,90.543564 155.103973C91.336258 155.103973,92.096405 154.789032,92.656876 154.228546C93.217361 153.668076,93.532303 152.907928,93.532303 152.115234Z" style="fill: rgb(100.000000%,100.000000%,100.000000%);stroke: none;"></path>
  <path d="M48.603043 185.033600C48.603043 184.240906,48.288101 183.480759,47.727615 182.920288C47.167145 182.359802,46.406998 182.044861,45.614304 182.044861C44.821609 182.044861,44.061462 182.359802,43.500992 182.920288C42.940506 183.480759,42.625565 184.240906,42.625565 185.033600C42.625565 185.826294,42.940506 186.586441,43.500992 187.146912C44.061462 187.707397,44.821609 188.022339,45.614304 188.022339C46.406998 188.022339,47.167145 187.707397,47.727615 187.146912C48.288101 186.586441,48.603043 185.826294,48.603043 185.033600Z" style="fill: rgb(100.000000%,100.000000%,100.000000%);stroke: none;"></path>
  <path d="M71.587128 186.714752C71.587128 185.922058,71.272186 185.161911,70.711700 184.601440C70.151230 184.040955,69.391083 183.726013,68.598389 183.726013C67.805695 183.726013,67.045547 184.040955,66.485077 184.601440C65.924591 185.161911,65.609650 185.922058,65.609650 186.714752C65.609650 187.507446,65.924591 188.267593,66.485077 188.828064C67.045547 189.388550,67.805695 189.703491,68.598389 189.703491C69.391083 189.703491,70.151230 189.388550,70.711700 188.828064C71.272186 188.267593,71.587128 187.507446,71.587128 186.714752Z" style="fill: rgb(100.000000%,100.000000%,100.000000%);stroke: none;"></path>
  <path d="M36.955658 158.896149C36.955658 158.103455,36.640717 157.343307,36.080231 156.782837C35.519760 156.222351,34.759613 155.907410,33.966919 155.907410C33.174225 155.907410,32.414078 156.222351,31.853607 156.782837C31.293121 157.343307,30.978180 158.103455,30.978180 158.896149C30.978180 159.688843,31.293121 160.448990,31.853607 161.009460C32.414078 161.569946,33.174225 161.884888,33.966919 161.884888C34.759613 161.884888,35.519760 161.569946,36.080231 161.009460C36.640717 160.448990,36.955658 159.688843,36.955658 158.896149Z" style="fill: rgb(100.000000%,100.000000%,100.000000%);stroke: none;"></path>
  <path d="M39.661011 177.645691C39.661011 176.852997,39.346069 176.092850,38.785583 175.532379C38.225113 174.971893,37.464966 174.656952,36.672272 174.656952C35.879578 174.656952,35.119431 174.971893,34.558960 175.532379C33.998474 176.092850,33.683533 176.852997,33.683533 177.645691C33.683533 178.438385,33.998474 179.198532,34.558960 179.759003C35.119431 180.319489,35.879578 180.634430,36.672272 180.634430C37.464966 180.634430,38.225113 180.319489,38.785583 179.759003C39.346069 179.198532,39.661011 178.438385,39.661011 177.645691Z" style="fill: rgb(100.000000%,100.000000%,100.000000%);stroke: none;"></path>
  <path d="M30.637405 137.234970C30.637405 136.442276,30.322464 135.682129,29.761978 135.121658C29.201508 134.561172,28.441360 134.246231,27.648666 134.246231C26.855972 134.246231,26.095825 134.561172,25.535355 135.121658C24.974869 135.682129,24.659927 136.442276,24.659927 137.234970C24.659927 138.027664,24.974869 138.787811,25.535355 139.348282C26.095825 139.908768,26.855972 140.223709,27.648666 140.223709C28.441360 140.223709,29.201508 139.908768,29.761978 139.348282C30.322464 138.787811,30.637405 138.027664,30.637405 137.234970Z" style="fill: rgb(100.000000%,100.000000%,100.000000%);stroke: none;"></path>
  <path d="M41.299561 149.221924C41.299561 148.429230,40.984619 147.669083,40.424133 147.108612C39.863663 146.548126,39.103516 146.233185,38.310822 146.233185C37.518127 146.233185,36.757980 146.548126,36.197510 147.108612C35.637024 147.669083,35.322083 148.429230,35.322083 149.221924C35.322083 150.014618,35.637024 150.774765,36.197510 151.335236C36.757980 151.895721,37.518127 152.210663,38.310822 152.210663C39.103516 152.210663,39.863663 151.895721,40.424133 151.335236C40.984619 150.774765,41.299561 150.014618,41.299561 149.221924Z" style="fill: rgb(100.000000%,100.000000%,100.000000%);stroke: none;"></path>
  <path d="M9.161392 130.284515C9.161392 129.491821,8.846451 128.731674,8.285965 128.171204C7.725494 127.610718,6.965347 127.295776,6.172653 127.295776C5.379959 127.295776,4.619812 127.610718,4.059341 128.171204C3.498856 128.731674,3.183914 129.491821,3.183914 130.284515C3.183914 131.077209,3.498856 131.837357,4.059341 132.397827C4.619812 132.958313,5.379959 133.273254,6.172653 133.273254C6.965347 133.273254,7.725494 132.958313,8.285965 132.397827C8.846451 131.837357,9.161392 131.077209,9.161392 130.284515Z" style="fill: rgb(100.000000%,100.000000%,100.000000%);stroke: none;"></path>
  <path d="M22.264343 138.301346C22.264343 137.508652,21.949402 136.748505,21.388916 136.188034C20.828445 135.627548,20.068298 135.312607,19.275604 135.312607C18.482910 135.312607,17.722763 135.627548,17.162292 136.188034C16.601807 136.748505,16.286865 137.508652,16.286865 138.301346C16.286865 139.094040,16.601807 139.854187,17.162292 140.414658C17.722763 140.975143,18.482910 141.290085,19.275604 141.290085C20.068298 141.290085,20.828445 140.975143,21.388916 140.414658C21.949402 139.854187,22.264343 139.094040,22.264343 138.301346Z" style="fill: rgb(100.000000%,100.000000%,100.000000%);stroke: none;"></path>
  <path d="M9.474228 103.921112C9.474228 103.128418,9.159286 102.368271,8.598801 101.807800C8.038330 101.247314,7.278183 100.932373,6.485489 100.932373C5.692795 100.932373,4.932648 101.247314,4.372177 101.807800C3.811691 102.368271,3.496750 103.128418,3.496750 103.921112C3.496750 104.713806,3.811691 105.473953,4.372177 106.034424C4.932648 106.594910,5.692795 106.909851,6.485489 106.909851C7.278183 106.909851,8.038330 106.594910,8.598801 106.034424C9.159286 105.473953,9.474228 104.713806,9.474228 103.921112Z" style="fill: rgb(100.000000%,100.000000%,100.000000%);stroke: none;"></path>
  <path d="M7.076843 121.348862C7.076843 120.556168,6.761902 119.796021,6.201416 119.235550C5.640945 118.675064,4.880798 118.360123,4.088104 118.360123C3.295410 118.360123,2.535263 118.675064,1.974792 119.235550C1.414307 119.796021,1.099365 120.556168,1.099365 121.348862C1.099365 122.141556,1.414307 122.901703,1.974792 123.462173C2.535263 124.022659,3.295410 124.337601,4.088104 124.337601C4.880798 124.337601,5.640945 124.022659,6.201416 123.462173C6.761902 122.901703,7.076843 122.141556,7.076843 121.348862Z" style="fill: rgb(100.000000%,100.000000%,100.000000%);stroke: none;"></path>
  <path d="M32.052200 89.613281C32.052200 88.820587,31.737259 88.060440,31.176773 87.499969C30.616302 86.939484,29.856155 86.624542,29.063461 86.624542C28.270767 86.624542,27.510620 86.939484,26.950150 87.499969C26.389664 88.060440,26.074722 88.820587,26.074722 89.613281C26.074722 90.405975,26.389664 91.166122,26.950150 91.726593C27.510620 92.287079,28.270767 92.602020,29.063461 92.602020C29.856155 92.602020,30.616302 92.287079,31.176773 91.726593C31.737259 91.166122,32.052200 90.405975,32.052200 89.613281Z" style="fill: rgb(100.000000%,100.000000%,100.000000%);stroke: none;"></path>
  <path d="M14.278336 95.428085C14.278336 94.635391,13.963394 93.875244,13.402908 93.314774C12.842438 92.754288,12.082291 92.439346,11.289597 92.439346C10.496902 92.439346,9.736755 92.754288,9.176285 93.314774C8.615799 93.875244,8.300858 94.635391,8.300858 95.428085C8.300858 96.220779,8.615799 96.980927,9.176285 97.541397C9.736755 98.101883,10.496902 98.416824,11.289597 98.416824C12.082291 98.416824,12.842438 98.101883,13.402908 97.541397C13.963394 96.980927,14.278336 96.220779,14.278336 95.428085Z" style="fill: rgb(100.000000%,100.000000%,100.000000%);stroke: none;"></path>
  <path d="M59.325821 95.330780C59.325821 94.538086,59.010880 93.777939,58.450394 93.217468C57.889923 92.656982,57.129776 92.342041,56.337082 92.342041C55.544388 92.342041,54.784241 92.656982,54.223770 93.217468C53.663284 93.777939,53.348343 94.538086,53.348343 95.330780C53.348343 96.123474,53.663284 96.883621,54.223770 97.444092C54.784241 98.004578,55.544388 98.319519,56.337082 98.319519C57.129776 98.319519,57.889923 98.004578,58.450394 97.444092C59.010880 96.883621,59.325821 96.123474,59.325821 95.330780Z" style="fill: rgb(100.000000%,100.000000%,100.000000%);stroke: none;"></path>
  <path d="M41.502914 95.093033C41.502914 94.300339,41.187973 93.540192,40.627487 92.979721C40.067017 92.419235,39.306870 92.104294,38.514175 92.104294C37.721481 92.104294,36.961334 92.419235,36.400864 92.979721C35.840378 93.540192,35.525436 94.300339,35.525436 95.093033C35.525436 95.885727,35.840378 96.645874,36.400864 97.206345C36.961334 97.766830,37.721481 98.081772,38.514175 98.081772C39.306870 98.081772,40.067017 97.766830,40.627487 97.206345C41.187973 96.645874,41.502914 95.885727,41.502914 95.093033Z" style="fill: rgb(100.000000%,100.000000%,100.000000%);stroke: none;"></path>
  <path d="M81.477325 85.205383C81.477325 84.412689,81.162384 83.652542,80.601898 83.092072C80.041428 82.531586,79.281281 82.216644,78.488586 82.216644C77.695892 82.216644,76.935745 82.531586,76.375275 83.092072C75.814789 83.652542,75.499847 84.412689,75.499847 85.205383C75.499847 85.998077,75.814789 86.758224,76.375275 87.318695C76.935745 87.879181,77.695892 88.194122,78.488586 88.194122C79.281281 88.194122,80.041428 87.879181,80.601898 87.318695C81.162384 86.758224,81.477325 85.998077,81.477325 85.205383Z" style="fill: rgb(100.000000%,100.000000%,100.000000%);stroke: none;"></path>
  <path d="M66.876129 91.625565C66.876129 90.832870,66.561188 90.072723,66.000702 89.512253C65.440231 88.951767,64.680084 88.636826,63.887390 88.636826C63.094696 88.636826,62.334549 88.951767,61.774078 89.512253C61.213593 90.072723,60.898651 90.832870,60.898651 91.625565C60.898651 92.418259,61.213593 93.178406,61.774078 93.738876C62.334549 94.299362,63.094696 94.614304,63.887390 94.614304C64.680084 94.614304,65.440231 94.299362,66.000702 93.738876C66.561188 93.178406,66.876129 92.418259,66.876129 91.625565Z" style="fill: rgb(100.000000%,100.000000%,100.000000%);stroke: none;"></path>
  <path d="M101.991470 76.040695C101.991470 75.248001,101.676529 74.487854,101.116043 73.927383C100.555573 73.366898,99.795425 73.051956,99.002731 73.051956C98.210037 73.051956,97.449890 73.366898,96.889420 73.927383C96.328934 74.487854,96.013992 75.248001,96.013992 76.040695C96.013992 76.833389,96.328934 77.593536,96.889420 78.154007C97.449890 78.714493,98.210037 79.029434,99.002731 79.029434C99.795425 79.029434,100.555573 78.714493,101.116043 78.154007C101.676529 77.593536,101.991470 76.833389,101.991470 76.040695Z" style="fill: rgb(100.000000%,100.000000%,100.000000%);stroke: none;"></path>
  <path d="M88.747391 82.413254C88.747391 81.620560,88.432449 80.860413,87.871964 80.299942C87.311493 79.739456,86.551346 79.424515,85.758652 79.424515C84.965958 79.424515,84.205811 79.739456,83.645340 80.299942C83.084854 80.860413,82.769913 81.620560,82.769913 82.413254C82.769913 83.205948,83.084854 83.966095,83.645340 84.526566C84.205811 85.087051,84.965958 85.401993,85.758652 85.401993C86.551346 85.401993,87.311493 85.087051,87.871964 84.526566C88.432449 83.966095,88.747391 83.205948,88.747391 82.413254Z" style="fill: rgb(100.000000%,100.000000%,100.000000%);stroke: none;"></path>
  <path d="M116.900955 65.931961C116.900955 65.139267,116.586014 64.379120,116.025528 63.818649C115.465057 63.258163,114.704910 62.943222,113.912216 62.943222C113.119522 62.943222,112.359375 63.258163,111.798904 63.818649C111.238419 64.379120,110.923477 65.139267,110.923477 65.931961C110.923477 66.724655,111.238419 67.484802,111.798904 68.045273C112.359375 68.605759,113.119522 68.920700,113.912216 68.920700C114.704910 68.920700,115.465057 68.605759,116.025528 68.045273C116.586014 67.484802,116.900955 66.724655,116.900955 65.931961Z" style="fill: rgb(100.000000%,100.000000%,100.000000%);stroke: none;"></path>
  <path d="M108.006500 72.587326C108.006500 71.794632,107.691559 71.034485,107.131073 70.474014C106.570602 69.913528,105.810455 69.598587,105.017761 69.598587C104.225067 69.598587,103.464920 69.913528,102.904449 70.474014C102.343964 71.034485,102.029022 71.794632,102.029022 72.587326C102.029022 73.380020,102.343964 74.140167,102.904449 74.700638C103.464920 75.261124,104.225067 75.576065,105.017761 75.576065C105.810455 75.576065,106.570602 75.261124,107.131073 74.700638C107.691559 74.140167,108.006500 73.380020,108.006500 72.587326Z" style="fill: rgb(100.000000%,100.000000%,100.000000%);stroke: none;"></path>
  <path d="M128.347412 66.487915C128.347412 65.695221,128.032471 64.935074,127.471985 64.374603C126.911514 63.814117,126.151367 63.499176,125.358673 63.499176C124.565979 63.499176,123.805832 63.814117,123.245361 64.374603C122.684875 64.935074,122.369934 65.695221,122.369934 66.487915C122.369934 67.280609,122.684875 68.040756,123.245361 68.601227C123.805832 69.161713,124.565979 69.476654,125.358673 69.476654C126.151367 69.476654,126.911514 69.161713,127.471985 68.601227C128.032471 68.040756,128.347412 67.280609,128.347412 66.487915Z" style="fill: rgb(100.000000%,100.000000%,100.000000%);stroke: none;"></path>
  <path d="M120.698013 63.261398C120.698013 62.468704,120.383072 61.708557,119.822586 61.148087C119.262115 60.587601,118.501968 60.272659,117.709274 60.272659C116.916580 60.272659,116.156433 60.587601,115.595963 61.148087C115.035477 61.708557,114.720535 62.468704,114.720535 63.261398C114.720535 64.054092,115.035477 64.814240,115.595963 65.374710C116.156433 65.935196,116.916580 66.250137,117.709274 66.250137C118.501968 66.250137,119.262115 65.935196,119.822586 65.374710C120.383072 64.814240,120.698013 64.054092,120.698013 63.261398Z" style="fill: rgb(100.000000%,100.000000%,100.000000%);stroke: none;"></path>
  <path d="M131.412704 81.851456C131.412704 81.058762,131.097763 80.298615,130.537277 79.738144C129.976807 79.177658,129.216660 78.862717,128.423965 78.862717C127.631271 78.862717,126.871124 79.177658,126.310654 79.738144C125.750168 80.298615,125.435226 81.058762,125.435226 81.851456C125.435226 82.644150,125.750168 83.404297,126.310654 83.964767C126.871124 84.525253,127.631271 84.840195,128.423965 84.840195C129.216660 84.840195,129.976807 84.525253,130.537277 83.964767C131.097763 83.404297,131.412704 82.644150,131.412704 81.851456Z" style="fill: rgb(100.000000%,100.000000%,100.000000%);stroke: none;"></path>
  <path d="M128.937271 71.255966C128.937271 70.463272,128.622330 69.703125,128.061844 69.142654C127.501373 68.582169,126.741226 68.267227,125.948532 68.267227C125.155838 68.267227,124.395691 68.582169,123.835220 69.142654C123.274734 69.703125,122.959793 70.463272,122.959793 71.255966C122.959793 72.048660,123.274734 72.808807,123.835220 73.369278C124.395691 73.929764,125.155838 74.244705,125.948532 74.244705C126.741226 74.244705,127.501373 73.929764,128.061844 73.369278C128.622330 72.808807,128.937271 72.048660,128.937271 71.255966Z" style="fill: rgb(100.000000%,100.000000%,100.000000%);stroke: none;"></path>
  <path d="M135.314880 93.250305C141.074219 103.233841,153.097916 107.739700,164.000000 104.000000C178.004425 99.196136,184.408157 83.820938,183.774689 68.537415C183.211807 54.957153,176.726028 41.620209,164.000000 38.838516C155.548538 36.991165,146.872086 41.419342,145.635391 49.499542C144.933517 54.085434,147.254913 58.376495,149.042755 62.637451C150.956909 67.199463,152.271484 71.988693,154.138962 76.569748C157.844299 85.659225,163.738922 94.134323,164.000000 104.000000C164.500809 122.924927,146.690002 134.779144,132.119720 147.074707C117.490128 159.420319,101.508759 174.231857,84.550949 166.790817C74.402985 162.337921,67.382675 149.617249,56.005508 152.081833C47.239410 153.980789,43.614670 164.624603,35.190323 167.375015C27.363632 169.930298,19.369522 165.186874,14.712891 158.052734C10.029633 150.877808,8.728851 141.750961,13.267532 134.625412C17.347321 128.220306,25.723602 124.965393,27.661896 117.468658C29.956436 108.594070,21.906479 101.288956,19.781982 92.649765C16.900528 80.932465,24.705383 70.255264,30.294571 59.598495C35.998703 48.722565,41.186539 35.882996,53.207245 34.214340C61.713516 33.033539,70.261322 39.070038,78.417068 35.882050C87.874344 32.185303,88.925262 19.845963,96.097244 13.141937C106.232590 3.667877,121.526459 8.075943,134.772125 13.801651C147.263458 19.201279,160.338211 25.858704,164.000000 38.838516C166.071777 46.182312,164.230286 54.239899,158.182724 58.722992C155.495300 60.715195,152.240829 61.676865,149.042755 62.637451C145.022400 63.845016,140.993179 65.099731,137.308167 67.116364C133.397781 69.256317,129.998840 72.184250,126.917114 75.401749C123.880783 78.571854,120.389755 82.003845,116.309692 80.794830C111.591217 79.396637,111.039047 73.575531,110.557755 68.441971C109.836716 60.751099,107.028564 53.449966,105.537674 45.877991C103.298889 34.507584,103.713242 21.991928,96.097244 13.141937C89.033020 4.933136,77.315750 2.552551,67.558975 7.272644C57.541840 12.118683,52.181732 23.047348,53.207245 34.214340C54.182037 44.829086,60.724640 53.803040,64.700348 63.638870C67.903381 71.563126,69.411270 80.022964,71.367813 88.336411C73.964340 99.369217,77.366547 110.188232,80.834549 120.977631C85.685944 136.070953,90.543564 152.115234,84.550949 166.790817C79.754135 178.537918,68.598389 186.714752,56.091980 185.799988C45.614304 185.033600,36.672272 177.645691,35.190323 167.375015C33.966919 158.896149,38.310822 149.221924,32.426743 142.606735C27.648666 137.234970,19.275604 138.301346,13.267532 134.625412C6.172653 130.284515,4.088104 121.348862,5.247345 112.921783C6.485489 103.921112,11.289597 95.428085,19.781982 92.649765C29.063461 89.613281,38.514175 95.093033,48.143127 95.221481C56.337082 95.330780,63.887390 91.625565,71.367813 88.336411C78.488586 85.205383,85.758652 82.413254,92.768784 79.040237C99.002731 76.040695,105.017761 72.587326,110.557755 68.441971C113.912216 65.931961,117.709274 63.261398,121.478607 64.851303C125.358673 66.487915,125.948532 71.255966,126.917114 75.401749C128.423965 81.851456,132.011230 87.523590,135.314880 93.250305" style="stroke:rgb(0.000000%,0.000000%,0.000000%); stroke-width: 0.498138;stroke-linecap: round;stroke-linejoin: round;stroke-miterlimit: 10.000000;fill: none;"></path>
  <path d="M135.314880 93.250305C141.074219 103.233841,153.097916 107.739700,164.000000 104.000000" style="stroke:rgb(0.000000%,0.000000%,0.000000%); stroke-width: 1.494400;stroke-linecap: round;stroke-linejoin: round;stroke-miterlimit: 10.000000;fill: none;"></path>
  <path d="M110.557755 68.441971C113.912216 65.931961,117.709274 63.261398,121.478607 64.851303C125.358673 66.487915,125.948532 71.255966,126.917114 75.401749C128.423965 81.851456,132.011230 87.523590,135.314880 93.250305" style="stroke:rgb(0.000000%,0.000000%,0.000000%); stroke-width: 1.494400;stroke-linecap: round;stroke-linejoin: round;stroke-miterlimit: 10.000000;fill: none;"></path>
  <path d="M166.988739 104.000000C166.988739 103.207306,166.673798 102.447159,166.113312 101.886688C165.552841 101.326202,164.792694 101.011261,164.000000 101.011261C163.207306 101.011261,162.447159 101.326202,161.886688 101.886688C161.326202 102.447159,161.011261 103.207306,161.011261 104.000000C161.011261 104.792694,161.326202 105.552841,161.886688 106.113312C162.447159 106.673798,163.207306 106.988739,164.000000 106.988739C164.792694 106.988739,165.552841 106.673798,166.113312 106.113312C166.673798 105.552841,166.988739 104.792694,166.988739 104.000000Z" style="fill: rgb(100.000000%,100.000000%,100.000000%);stroke: none;"></path>
  <path d="M160.361084 89.993805C162.330536 94.481979,163.869461 99.067169,164.000000 104.000000C164.250412 113.462463,159.922897 121.157257,153.711502 128.023376" style="stroke:rgb(0.000000%,0.000000%,0.000000%); stroke-width: 0.498138;stroke-linecap: round;stroke-linejoin: round;stroke-miterlimit: 10.000000;fill: none;"></path>
  <path d="M152.031494 62.637451C152.031494 61.844757,151.716553 61.084610,151.156067 60.524139C150.595596 59.963654,149.835449 59.648712,149.042755 59.648712C148.250061 59.648712,147.489914 59.963654,146.929443 60.524139C146.368958 61.084610,146.054016 61.844757,146.054016 62.637451C146.054016 63.430145,146.368958 64.190292,146.929443 64.750763C147.489914 65.311249,148.250061 65.626190,149.042755 65.626190C149.835449 65.626190,150.595596 65.311249,151.156067 64.750763C151.716553 64.190292,152.031494 63.430145,152.031494 62.637451Z" style="fill: rgb(100.000000%,100.000000%,100.000000%);stroke: none;"></path>
  <path d="M153.804214 61.067093C152.254913 61.676605,150.641785 62.157166,149.042755 62.637451C147.032578 63.241241,145.020172 63.856812,143.049698 64.573517" style="stroke:rgb(0.000000%,0.000000%,0.000000%); stroke-width: 0.498138;stroke-linecap: round;stroke-linejoin: round;stroke-miterlimit: 10.000000;fill: none;"></path>
  <path d="M87.539688 166.790817C87.539688 165.998123,87.224747 165.237976,86.664261 164.677505C86.103790 164.117020,85.343643 163.802078,84.550949 163.802078C83.758255 163.802078,82.998108 164.117020,82.437637 164.677505C81.877151 165.237976,81.562210 165.998123,81.562210 166.790817C81.562210 167.583511,81.877151 168.343658,82.437637 168.904129C82.998108 169.464615,83.758255 169.779556,84.550949 169.779556C85.343643 169.779556,86.103790 169.464615,86.664261 168.904129C87.224747 168.343658,87.539688 167.583511,87.539688 166.790817Z" style="fill: rgb(100.000000%,100.000000%,100.000000%);stroke: none;"></path>
  <path d="M86.759262 144.040894C87.831009 151.773071,87.547256 159.453033,84.550949 166.790817C82.152542 172.664368,78.164398 177.645355,73.212555 181.043610" style="stroke:rgb(0.000000%,0.000000%,0.000000%); stroke-width: 0.498138;stroke-linecap: round;stroke-linejoin: round;stroke-miterlimit: 10.000000;fill: none;"></path>
  <path d="M16.256271 134.625412C16.256271 133.832718,15.941330 133.072571,15.380844 132.512100C14.820374 131.951614,14.060226 131.636673,13.267532 131.636673C12.474838 131.636673,11.714691 131.951614,11.154221 132.512100C10.593735 133.072571,10.278793 133.832718,10.278793 134.625412C10.278793 135.418106,10.593735 136.178253,11.154221 136.738724C11.714691 137.299210,12.474838 137.614151,13.267532 137.614151C14.060226 137.614151,14.820374 137.299210,15.380844 136.738724C15.941330 136.178253,16.256271 135.418106,16.256271 134.625412Z" style="fill: rgb(100.000000%,100.000000%,100.000000%);stroke: none;"></path>
  <path d="M23.308365 137.980133C19.866837 137.115768,16.271561 136.463379,13.267532 134.625412C9.720093 132.454956,7.425232 129.135818,6.162140 125.305908" style="stroke:rgb(0.000000%,0.000000%,0.000000%); stroke-width: 0.498138;stroke-linecap: round;stroke-linejoin: round;stroke-miterlimit: 10.000000;fill: none;"></path>
  <path d="M56.195984 34.214340C56.195984 33.421646,55.881042 32.661499,55.320557 32.101028C54.760086 31.540543,53.999939 31.225601,53.207245 31.225601C52.414551 31.225601,51.654404 31.540543,51.093933 32.101028C50.533447 32.661499,50.218506 33.421646,50.218506 34.214340C50.218506 35.007034,50.533447 35.767181,51.093933 36.327652C51.654404 36.888138,52.414551 37.203079,53.207245 37.203079C53.999939 37.203079,54.760086 36.888138,55.320557 36.327652C55.881042 35.767181,56.195984 35.007034,56.195984 34.214340Z" style="fill: rgb(100.000000%,100.000000%,100.000000%);stroke: none;"></path>
  <path d="M56.242111 18.373138C53.778137 23.106934,52.694489 28.630844,53.207245 34.214340C53.694641 39.521713,55.573990 44.418900,57.828461 49.218719" style="stroke:rgb(0.000000%,0.000000%,0.000000%); stroke-width: 0.498138;stroke-linecap: round;stroke-linejoin: round;stroke-miterlimit: 10.000000;fill: none;"></path>
  <path d="M166.988739 38.838516C166.988739 38.045822,166.673798 37.285675,166.113312 36.725204C165.552841 36.164719,164.792694 35.849777,164.000000 35.849777C163.207306 35.849777,162.447159 36.164719,161.886688 36.725204C161.326202 37.285675,161.011261 38.045822,161.011261 38.838516C161.011261 39.631210,161.326202 40.391357,161.886688 40.951828C162.447159 41.512314,163.207306 41.827255,164.000000 41.827255C164.792694 41.827255,165.552841 41.512314,166.113312 40.951828C166.673798 40.391357,166.988739 39.631210,166.988739 38.838516Z" style="fill: rgb(100.000000%,100.000000%,100.000000%);stroke: none;"></path>
  <path d="M178.448517 49.638489C175.165955 44.259018,170.363007 40.229355,164.000000 38.838516C159.774261 37.914841,155.492279 38.560059,152.112152 40.446213" style="stroke:rgb(0.000000%,0.000000%,0.000000%); stroke-width: 0.498138;stroke-linecap: round;stroke-linejoin: round;stroke-miterlimit: 10.000000;fill: none;"></path>
  <path d="M129.905853 75.401749C129.905853 74.609055,129.590912 73.848907,129.030426 73.288437C128.469955 72.727951,127.709808 72.413010,126.917114 72.413010C126.124420 72.413010,125.364273 72.727951,124.803802 73.288437C124.243317 73.848907,123.928375 74.609055,123.928375 75.401749C123.928375 76.194443,124.243317 76.954590,124.803802 77.515060C125.364273 78.075546,126.124420 78.390488,126.917114 78.390488C127.709808 78.390488,128.469955 78.075546,129.030426 77.515060C129.590912 76.954590,129.905853 76.194443,129.905853 75.401749Z" style="fill: rgb(100.000000%,100.000000%,100.000000%);stroke: none;"></path>
  <path d="M125.289688 69.185593C126.043228 71.100403,126.432831 73.328857,126.917114 75.401749C127.670547 78.626602,128.944077 81.657074,130.442215 84.597168" style="stroke:rgb(0.000000%,0.000000%,0.000000%); stroke-width: 1.494400;stroke-linecap: round;stroke-linejoin: round;stroke-miterlimit: 10.000000;fill: none;"></path>
  <path d="M99.085983 13.141937C99.085983 12.349243,98.771042 11.589096,98.210556 11.028625C97.650085 10.468140,96.889938 10.153198,96.097244 10.153198C95.304550 10.153198,94.544403 10.468140,93.983932 11.028625C93.423447 11.589096,93.108505 12.349243,93.108505 13.141937C93.108505 13.934631,93.423447 14.694778,93.983932 15.255249C94.544403 15.815735,95.304550 16.130676,96.097244 16.130676C96.889938 16.130676,97.650085 15.815735,98.210556 15.255249C98.771042 14.694778,99.085983 13.934631,99.085983 13.141937Z" style="fill: rgb(100.000000%,100.000000%,100.000000%);stroke: none;"></path>
  <path d="M88.114151 25.639709C90.455536 21.254776,92.511261 16.493942,96.097244 13.141937C101.164917 8.404907,107.522232 7.138412,114.268326 7.771896" style="stroke:rgb(0.000000%,0.000000%,0.000000%); stroke-width: 0.498138;stroke-linecap: round;stroke-linejoin: round;stroke-miterlimit: 10.000000;fill: none;"></path>
  <path d="M74.356552 88.336411C74.356552 87.543716,74.041611 86.783569,73.481125 86.223099C72.920654 85.662613,72.160507 85.347672,71.367813 85.347672C70.575119 85.347672,69.814972 85.662613,69.254501 86.223099C68.694016 86.783569,68.379074 87.543716,68.379074 88.336411C68.379074 89.129105,68.694016 89.889252,69.254501 90.449722C69.814972 91.010208,70.575119 91.325150,71.367813 91.325150C72.160507 91.325150,72.920654 91.010208,73.481125 90.449722C74.041611 89.889252,74.356552 89.129105,74.356552 88.336411Z" style="fill: rgb(100.000000%,100.000000%,100.000000%);stroke: none;"></path>
  <path d="M60.023056 93.053360C63.869934 91.729568,67.627609 89.980988,71.367813 88.336411C74.928207 86.770889,78.525925 85.290100,82.109802 83.779053" style="stroke:rgb(0.000000%,0.000000%,0.000000%); stroke-width: 0.498138;stroke-linecap: round;stroke-linejoin: round;stroke-miterlimit: 10.000000;fill: none;"></path>
  <path d="M38.179062 167.375015C38.179062 166.582321,37.864120 165.822174,37.303635 165.261703C36.743164 164.701218,35.983017 164.386276,35.190323 164.386276C34.397629 164.386276,33.637482 164.701218,33.077011 165.261703C32.516525 165.822174,32.201584 166.582321,32.201584 167.375015C32.201584 168.167709,32.516525 168.927856,33.077011 169.488327C33.637482 170.048813,34.397629 170.363754,35.190323 170.363754C35.983017 170.363754,36.743164 170.048813,37.303635 169.488327C37.864120 168.927856,38.179062 168.167709,38.179062 167.375015Z" style="fill: rgb(100.000000%,100.000000%,100.000000%);stroke: none;"></path>
  <path d="M45.469742 159.409134C42.414764 162.651260,39.402496 165.999817,35.190323 167.375015C31.276978 168.652664,27.321777 168.105621,23.762833 166.347397" style="stroke:rgb(0.000000%,0.000000%,0.000000%); stroke-width: 0.498138;stroke-linecap: round;stroke-linejoin: round;stroke-miterlimit: 10.000000;fill: none;"></path>
  <path d="M22.770721 92.649765C22.770721 91.857071,22.455780 91.096924,21.895294 90.536453C21.334824 89.975967,20.574677 89.661026,19.781982 89.661026C18.989288 89.661026,18.229141 89.975967,17.668671 90.536453C17.108185 91.096924,16.793243 91.857071,16.793243 92.649765C16.793243 93.442459,17.108185 94.202606,17.668671 94.763077C18.229141 95.323563,18.989288 95.638504,19.781982 95.638504C20.574677 95.638504,21.334824 95.323563,21.895294 94.763077C22.455780 94.202606,22.770721 93.442459,22.770721 92.649765Z" style="fill: rgb(100.000000%,100.000000%,100.000000%);stroke: none;"></path>
  <path d="M25.379074 104.970932C23.387833 100.955429,20.844223 96.969360,19.781982 92.649765C18.341248 86.791107,19.572113 81.192474,21.861801 75.726410" style="stroke:rgb(0.000000%,0.000000%,0.000000%); stroke-width: 0.498138;stroke-linecap: round;stroke-linejoin: round;stroke-miterlimit: 10.000000;fill: none;"></path>
  <path d="M113.546494 68.441971C113.546494 67.649277,113.231552 66.889130,112.671066 66.328659C112.110596 65.768173,111.350449 65.453232,110.557755 65.453232C109.765060 65.453232,109.004913 65.768173,108.444443 66.328659C107.883957 66.889130,107.569016 67.649277,107.569016 68.441971C107.569016 69.234665,107.883957 69.994812,108.444443 70.555283C109.004913 71.115768,109.765060 71.430710,110.557755 71.430710C111.350449 71.430710,112.110596 71.115768,112.671066 70.555283C113.231552 69.994812,113.546494 69.234665,113.546494 68.441971Z" style="fill: rgb(100.000000%,100.000000%,100.000000%);stroke: none;"></path>
  <path d="M111.844772 76.019150C111.056763 73.747406,110.798401 71.008743,110.557755 68.441971C110.197235 64.596527,109.314926 60.848526,108.336395 57.115387" style="stroke:rgb(0.000000%,0.000000%,0.000000%); stroke-width: 0.498138;stroke-linecap: round;stroke-linejoin: round;stroke-miterlimit: 10.000000;fill: none;"></path>
  <path d="M121.478607 64.851303C124.582672 66.160599,125.580994 69.474030,126.352081 72.869675" style="stroke:rgb(0.000000%,0.000000%,0.000000%); stroke-width: 0.498138;stroke-linecap: round;stroke-linejoin: round;stroke-miterlimit: 10.000000;fill: none;"></path>
  <path d="M123.106110 69.066528C124.313232 70.091507,125.354584 71.460556,126.352081 72.869675C126.643158 71.167953,126.874908 69.463547,126.746155 67.885193Z" style="stroke:rgb(0.000000%,0.000000%,0.000000%); stroke-width: 0.498138;fill: rgb(0.000000%,0.000000%,0.000000%);"></path>
  <path d="M121.478607 64.851303C124.582672 66.160599,125.580994 69.474030,126.352081 72.869675" style="stroke:rgb(0.000000%,0.000000%,0.000000%); stroke-width: 0.498138;stroke-linecap: round;stroke-linejoin: round;stroke-miterlimit: 10.000000;fill: none;"></path>
  <path d="M124.524841 70.490372C125.165497 71.228622,125.766357 72.042236,126.352081 72.869675C126.523010 71.870422,126.673462 70.870224,126.742493 69.895187Z" style="stroke:rgb(0.000000%,0.000000%,0.000000%); stroke-width: 0.498138;fill: rgb(0.000000%,0.000000%,0.000000%);"></path>
  <path d="M145.635391 49.499542C145.073883 53.168274,146.447296 56.648300,147.934494 60.075195" style="stroke:rgb(0.000000%,0.000000%,0.000000%); stroke-width: 0.498138;stroke-linecap: round;stroke-linejoin: round;stroke-miterlimit: 10.000000;fill: none;"></path>
  <path d="M145.820541 57.946640C146.498001 58.673462,147.213196 59.377655,147.934494 60.075195C147.917694 59.071930,147.909958 58.068268,147.944870 57.075272Z" style="stroke:rgb(0.000000%,0.000000%,0.000000%); stroke-width: 0.498138;fill: rgb(0.000000%,0.000000%,0.000000%);"></path>
  <path d="M154.138962 76.569748C157.103241 83.841354,161.468674 90.719757,163.229919 98.231522" style="stroke:rgb(0.000000%,0.000000%,0.000000%); stroke-width: 0.498138;stroke-linecap: round;stroke-linejoin: round;stroke-miterlimit: 10.000000;fill: none;"></path>
  <path d="M161.378799 95.870834C162.027344 96.634796,162.646790 97.419891,163.229919 98.231522C163.391510 97.245270,163.508667 96.252136,163.590286 95.253342Z" style="stroke:rgb(0.000000%,0.000000%,0.000000%); stroke-width: 0.498138;fill: rgb(0.000000%,0.000000%,0.000000%);"></path>
  <path d="M14.712891 158.052734C10.966263 152.312775,9.384445 145.323578,11.225433 139.109207" style="stroke:rgb(0.000000%,0.000000%,0.000000%); stroke-width: 0.498138;stroke-linecap: round;stroke-linejoin: round;stroke-miterlimit: 10.000000;fill: none;"></path>
  <path d="M11.782089 142.057098C11.518311 141.092163,11.330368 140.107819,11.225433 139.109207C10.593491 139.889526,10.030334 140.718445,9.534531 141.587250Z" style="stroke:rgb(0.000000%,0.000000%,0.000000%); stroke-width: 0.498138;fill: rgb(0.000000%,0.000000%,0.000000%);"></path>
  <path d="M27.661896 117.468658C29.497528 110.368958,24.712646 104.273727,21.637543 97.696350" style="stroke:rgb(0.000000%,0.000000%,0.000000%); stroke-width: 0.498138;stroke-linecap: round;stroke-linejoin: round;stroke-miterlimit: 10.000000;fill: none;"></path>
  <path d="M23.903168 99.662674C23.133972 99.020096,22.372620 98.368561,21.637543 97.696350C21.681976 98.691467,21.759613 99.690506,21.849121 100.688797Z" style="stroke:rgb(0.000000%,0.000000%,0.000000%); stroke-width: 0.498138;fill: rgb(0.000000%,0.000000%,0.000000%);"></path>
  <path d="M78.417068 35.882050C85.982910 32.924637,88.168655 24.435928,92.412415 17.726303" style="stroke:rgb(0.000000%,0.000000%,0.000000%); stroke-width: 0.498138;stroke-linecap: round;stroke-linejoin: round;stroke-miterlimit: 10.000000;fill: none;"></path>
  <path d="M92.006531 20.698593C92.113983 19.699524,92.242935 18.706192,92.412415 17.726303C91.599686 18.299332,90.806091 18.910522,90.023651 19.540970Z" style="stroke:rgb(0.000000%,0.000000%,0.000000%); stroke-width: 0.498138;fill: rgb(0.000000%,0.000000%,0.000000%);"></path>
  <path d="M137.308167 67.116364C134.179840 68.828339,131.378845 71.044617,128.805740 73.510010" style="stroke:rgb(0.000000%,0.000000%,0.000000%); stroke-width: 0.498138;stroke-linecap: round;stroke-linejoin: round;stroke-miterlimit: 10.000000;fill: none;"></path>
  <path d="M130.090561 70.798996C129.635345 71.688477,129.208481 72.593613,128.805740 73.510010C129.738510 73.146805,130.680389 72.808655,131.631241 72.501602Z" style="stroke:rgb(0.000000%,0.000000%,0.000000%); stroke-width: 0.498138;fill: rgb(0.000000%,0.000000%,0.000000%);"></path>
  <path d="M116.309692 80.794830C112.534897 79.676270,111.426559 75.727020,110.887787 71.563690" style="stroke:rgb(0.000000%,0.000000%,0.000000%); stroke-width: 0.498138;stroke-linecap: round;stroke-linejoin: round;stroke-miterlimit: 10.000000;fill: none;"></path>
  <path d="M112.501007 74.093063C111.928223 73.305008,111.394943 72.446579,110.887787 71.563690C110.622086 72.546585,110.392151 73.530685,110.239929 74.492935Z" style="stroke:rgb(0.000000%,0.000000%,0.000000%); stroke-width: 0.498138;fill: rgb(0.000000%,0.000000%,0.000000%);"></path>
  <path d="M67.558975 7.272644C59.545242 11.149490,54.512024 18.919250,53.344376 27.589600" style="stroke:rgb(0.000000%,0.000000%,0.000000%); stroke-width: 0.498138;stroke-linecap: round;stroke-linejoin: round;stroke-miterlimit: 10.000000;fill: none;"></path>
  <path d="M52.728073 24.653534C52.881485 25.637634,53.087082 26.617874,53.344376 27.589600C53.849564 26.720566,54.397354 25.882050,54.984756 25.077728Z" style="stroke:rgb(0.000000%,0.000000%,0.000000%); stroke-width: 0.498138;fill: rgb(0.000000%,0.000000%,0.000000%);"></path>
  <path d="M56.091980 185.799988C47.709808 185.186874,40.310455 180.335953,36.927261 173.161499" style="stroke:rgb(0.000000%,0.000000%,0.000000%); stroke-width: 0.498138;stroke-linecap: round;stroke-linejoin: round;stroke-miterlimit: 10.000000;fill: none;"></path>
  <path d="M39.289291 175.011276C38.461395 174.454727,37.671646 173.837723,36.927261 173.161499C36.975449 174.166031,37.097565 175.160751,37.289413 176.139694Z" style="stroke:rgb(0.000000%,0.000000%,0.000000%); stroke-width: 0.498138;fill: rgb(0.000000%,0.000000%,0.000000%);"></path>
  <path d="M32.426743 142.606735C28.604263 138.309311,22.480988 138.132324,17.108429 136.351318" style="stroke:rgb(0.000000%,0.000000%,0.000000%); stroke-width: 0.498138;stroke-linecap: round;stroke-linejoin: round;stroke-miterlimit: 10.000000;fill: none;"></path>
  <path d="M20.088562 136.005966C19.095001 136.152359,18.100494 136.279175,17.108429 136.351318C17.860931 137.001801,18.653809 137.615372,19.459869 138.214432Z" style="stroke:rgb(0.000000%,0.000000%,0.000000%); stroke-width: 0.498138;fill: rgb(0.000000%,0.000000%,0.000000%);"></path>
  <path d="M92.768784 79.040237C97.755966 76.640594,102.603027 73.950500,107.178848 70.848007" style="stroke:rgb(0.000000%,0.000000%,0.000000%); stroke-width: 0.498138;stroke-linecap: round;stroke-linejoin: round;stroke-miterlimit: 10.000000;fill: none;"></path>
  <path d="M105.489624 73.327362C106.065399 72.509750,106.628799 71.683411,107.178848 70.848007C106.199173 71.049774,105.216492 71.235672,104.231201 71.406647Z" style="stroke:rgb(0.000000%,0.000000%,0.000000%); stroke-width: 0.498138;fill: rgb(0.000000%,0.000000%,0.000000%);"></path>
  <path d="M132.324234 95.960510L138.305527 95.960510L138.305527 88.540115L132.324234 88.540115Z" style="fill: rgb(100.000000%,100.000000%,100.000000%);stroke: none;"></path>
  <path d="M132.324234 97.960510L138.305527 97.960510L138.305527 90.540115L132.324234 90.540115Z" style="fill: rgb(100.000000%,100.000000%,100.000000%);stroke: none;"></path>
  <g transform="translate(132.824234 96.460510)" style="fill: rgb(0.000000%,0.000000%,0.000000%);">
    <use xlink:href="#GLYPHcmr10_49"></use>
  </g>
  <path d="M180.784042 71.247620L186.765335 71.247620L186.765335 63.827225L180.784042 63.827225Z" style="fill: rgb(100.000000%,100.000000%,100.000000%);stroke: none;"></path>
  <path d="M180.784042 73.247620L186.765335 73.247620L186.765335 65.827225L180.784042 65.827225Z" style="fill: rgb(100.000000%,100.000000%,100.000000%);stroke: none;"></path>
  <g transform="translate(181.284042 71.747620)" style="fill: rgb(0.000000%,0.000000%,0.000000%);">
    <use xlink:href="#GLYPHcmr10_50"></use>
  </g>
  <path d="M129.129074 149.784912L135.110367 149.784912L135.110367 142.364517L129.129074 142.364517Z" style="fill: rgb(100.000000%,100.000000%,100.000000%);stroke: none;"></path>
  <path d="M129.129074 151.784912L135.110367 151.784912L135.110367 144.364517L129.129074 144.364517Z" style="fill: rgb(100.000000%,100.000000%,100.000000%);stroke: none;"></path>
  <g transform="translate(129.629074 150.284912)" style="fill: rgb(0.000000%,0.000000%,0.000000%);">
    <use xlink:href="#GLYPHcmr10_51"></use>
  </g>
  <path d="M53.014862 154.792038L58.996155 154.792038L58.996155 147.371643L53.014862 147.371643Z" style="fill: rgb(100.000000%,100.000000%,100.000000%);stroke: none;"></path>
  <path d="M53.014862 156.792038L58.996155 156.792038L58.996155 149.371643L53.014862 149.371643Z" style="fill: rgb(100.000000%,100.000000%,100.000000%);stroke: none;"></path>
  <g transform="translate(53.514862 155.292038)" style="fill: rgb(0.000000%,0.000000%,0.000000%);">
    <use xlink:href="#GLYPHcmr10_52"></use>
  </g>
  <path d="M27.303925 62.308701L33.285217 62.308701L33.285217 54.888306L27.303925 54.888306Z" style="fill: rgb(100.000000%,100.000000%,100.000000%);stroke: none;"></path>
  <path d="M27.303925 64.308701L33.285217 64.308701L33.285217 56.888306L27.303925 56.888306Z" style="fill: rgb(100.000000%,100.000000%,100.000000%);stroke: none;"></path>
  <g transform="translate(27.803925 62.808701)" style="fill: rgb(0.000000%,0.000000%,0.000000%);">
    <use xlink:href="#GLYPHcmr10_53"></use>
  </g>
  <path d="M131.781479 16.511856L137.762772 16.511856L137.762772 9.091461L131.781479 9.091461Z" style="fill: rgb(100.000000%,100.000000%,100.000000%);stroke: none;"></path>
  <path d="M131.781479 18.511856L137.762772 18.511856L137.762772 11.091461L131.781479 11.091461Z" style="fill: rgb(100.000000%,100.000000%,100.000000%);stroke: none;"></path>
  <g transform="translate(132.281479 17.011856)" style="fill: rgb(0.000000%,0.000000%,0.000000%);">
    <use xlink:href="#GLYPHcmr10_54"></use>
  </g>
  <path d="M155.192078 61.433197L161.173370 61.433197L161.173370 54.012802L155.192078 54.012802Z" style="fill: rgb(100.000000%,100.000000%,100.000000%);stroke: none;"></path>
  <path d="M155.192078 63.433197L161.173370 63.433197L161.173370 56.012802L155.192078 56.012802Z" style="fill: rgb(100.000000%,100.000000%,100.000000%);stroke: none;"></path>
  <g transform="translate(155.692078 61.933197)" style="fill: rgb(0.000000%,0.000000%,0.000000%);">
    <use xlink:href="#GLYPHcmr10_55"></use>
  </g>
  <path d="M102.547028 48.588196L108.528320 48.588196L108.528320 41.167801L102.547028 41.167801Z" style="fill: rgb(100.000000%,100.000000%,100.000000%);stroke: none;"></path>
  <path d="M102.547028 50.588196L108.528320 50.588196L108.528320 43.167801L102.547028 43.167801Z" style="fill: rgb(100.000000%,100.000000%,100.000000%);stroke: none;"></path>
  <g transform="translate(103.047028 49.088196)" style="fill: rgb(0.000000%,0.000000%,0.000000%);">
    <use xlink:href="#GLYPHcmr10_56"></use>
  </g>
  <path d="M61.709702 66.349075L67.690994 66.349075L67.690994 58.928680L61.709702 58.928680Z" style="fill: rgb(100.000000%,100.000000%,100.000000%);stroke: none;"></path>
  <path d="M61.709702 68.349075L67.690994 68.349075L67.690994 60.928680L61.709702 60.928680Z" style="fill: rgb(100.000000%,100.000000%,100.000000%);stroke: none;"></path>
  <g transform="translate(62.209702 66.849075)" style="fill: rgb(0.000000%,0.000000%,0.000000%);">
    <use xlink:href="#GLYPHcmr10_57"></use>
  </g>
  <path d="M75.353195 123.687836L86.315903 123.687836L86.315903 116.267441L75.353195 116.267441Z" style="fill: rgb(100.000000%,100.000000%,100.000000%);stroke: none;"></path>
  <path d="M75.353195 125.687836L86.315903 125.687836L86.315903 118.267441L75.353195 118.267441Z" style="fill: rgb(100.000000%,100.000000%,100.000000%);stroke: none;"></path>
  <g transform="translate(75.853195 124.187836)" style="fill: rgb(0.000000%,0.000000%,0.000000%);">
    <use xlink:href="#GLYPHcmr10_49"></use>
    <use xlink:href="#GLYPHcmr10_48" x="5.000095"></use>
  </g>
  <path d="M-0.234009 115.631989L10.728699 115.631989L10.728699 108.211594L-0.234009 108.211594Z" style="fill: rgb(100.000000%,100.000000%,100.000000%);stroke: none;"></path>
  <path d="M-0.234009 117.631989L10.728699 117.631989L10.728699 110.211594L-0.234009 110.211594Z" style="fill: rgb(100.000000%,100.000000%,100.000000%);stroke: none;"></path>
  <g transform="translate(0.265991 116.131989)" style="fill: rgb(0.000000%,0.000000%,0.000000%);">
    <use xlink:href="#GLYPHcmr10_49"></use>
    <use xlink:href="#GLYPHcmr10_49" x="5.000095"></use>
  </g>
  <path d="M42.661774 97.931686L53.624481 97.931686L53.624481 90.511292L42.661774 90.511292Z" style="fill: rgb(100.000000%,100.000000%,100.000000%);stroke: none;"></path>
  <path d="M42.661774 99.931686L53.624481 99.931686L53.624481 92.511292L42.661774 92.511292Z" style="fill: rgb(100.000000%,100.000000%,100.000000%);stroke: none;"></path>
  <g transform="translate(43.161774 98.431686)" style="fill: rgb(0.000000%,0.000000%,0.000000%);">
    <use xlink:href="#GLYPHcmr10_49"></use>
    <use xlink:href="#GLYPHcmr10_50" x="5.000095"></use>
  </g>
</svg>
