<?xml version="1.0"?>
<!-- Created by MetaPost 1.999 on 2021.07.05:2353 -->
<svg version="1.1" xmlns="http://www.w3.org/2000/svg" xmlns:xlink="http://www.w3.org/1999/xlink" width="202.430069" height="198.663284" viewBox="0 0 202.430069 198.663284">
<!-- Original BoundingBox: -85.685181 -15.425751 116.744888 183.237534 -->
  <defs>
    <g transform="scale(0.009963,0.009963)" id="GLYPHcmr10_48">
      <path style="fill-rule: evenodd;" d="M460.000000 -320.000000C460.000000 -400.000000,455.000000 -480.000000,420.000000 -554.000000C374.000000 -650.000000,292.000000 -666.000000,250.000000 -666.000000C190.000000 -666.000000,117.000000 -640.000000,76.000000 -547.000000C44.000000 -478.000000,39.000000 -400.000000,39.000000 -320.000000C39.000000 -245.000000,43.000000 -155.000000,84.000000 -79.000000C127.000000 2.000000,200.000000 22.000000,249.000000 22.000000C303.000000 22.000000,379.000000 1.000000,423.000000 -94.000000C455.000000 -163.000000,460.000000 -241.000000,460.000000 -320.000000M249.000000 -0.000000C210.000000 -0.000000,151.000000 -25.000000,133.000000 -121.000000C122.000000 -181.000000,122.000000 -273.000000,122.000000 -332.000000C122.000000 -396.000000,122.000000 -462.000000,130.000000 -516.000000C149.000000 -635.000000,224.000000 -644.000000,249.000000 -644.000000C282.000000 -644.000000,348.000000 -626.000000,367.000000 -527.000000C377.000000 -471.000000,377.000000 -395.000000,377.000000 -332.000000C377.000000 -257.000000,377.000000 -189.000000,366.000000 -125.000000C351.000000 -30.000000,294.000000 -0.000000,249.000000 -0.000000"></path>
    </g>
    <g transform="scale(0.009963,0.009963)" id="GLYPHcmr10_49">
      <path style="fill-rule: evenodd;" d="M294.000000 -640.000000C294.000000 -664.000000,294.000000 -666.000000,271.000000 -666.000000C209.000000 -602.000000,121.000000 -602.000000,89.000000 -602.000000L89.000000 -571.000000C109.000000 -571.000000,168.000000 -571.000000,220.000000 -597.000000L220.000000 -79.000000C220.000000 -43.000000,217.000000 -31.000000,127.000000 -31.000000L95.000000 -31.000000L95.000000 -0.000000L257.000000 -0.000000L130.000000 -3.000000L217.000000 -3.000000L257.000000 -3.000000L297.000000 -3.000000L384.000000 -3.000000L419.000000 -0.000000L419.000000 -31.000000L387.000000 -31.000000C297.000000 -31.000000,294.000000 -42.000000,294.000000 -79.000000"></path>
    </g>
    <g transform="scale(0.009963,0.009963)" id="GLYPHcmr10_50">
      <path style="fill-rule: evenodd;" d="M127.000000 -77.000000L233.000000 -180.000000C389.000000 -318.000000,449.000000 -372.000000,449.000000 -472.000000C449.000000 -586.000000,359.000000 -666.000000,237.000000 -666.000000C124.000000 -666.000000,50.000000 -574.000000,50.000000 -485.000000C50.000000 -429.000000,100.000000 -429.000000,103.000000 -429.000000C120.000000 -429.000000,155.000000 -441.000000,155.000000 -482.000000C155.000000 -508.000000,137.000000 -534.000000,102.000000 -534.000000C94.000000 -534.000000,92.000000 -534.000000,89.000000 -533.000000C112.000000 -598.000000,166.000000 -635.000000,224.000000 -635.000000C315.000000 -635.000000,358.000000 -554.000000,358.000000 -472.000000C358.000000 -392.000000,308.000000 -313.000000,253.000000 -251.000000L61.000000 -37.000000C50.000000 -26.000000,50.000000 -24.000000,50.000000 -0.000000L421.000000 -0.000000L449.000000 -174.000000L424.000000 -174.000000C419.000000 -144.000000,412.000000 -100.000000,402.000000 -85.000000C395.000000 -77.000000,329.000000 -77.000000,307.000000 -77.000000"></path>
    </g>
    <g transform="scale(0.009963,0.009963)" id="GLYPHcmr10_51">
      <path style="fill-rule: evenodd;" d="M290.000000 -352.000000C372.000000 -379.000000,430.000000 -449.000000,430.000000 -528.000000C430.000000 -610.000000,342.000000 -666.000000,246.000000 -666.000000C145.000000 -666.000000,69.000000 -606.000000,69.000000 -530.000000C69.000000 -497.000000,91.000000 -478.000000,120.000000 -478.000000C151.000000 -478.000000,171.000000 -500.000000,171.000000 -529.000000C171.000000 -579.000000,124.000000 -579.000000,109.000000 -579.000000C140.000000 -628.000000,206.000000 -641.000000,242.000000 -641.000000C283.000000 -641.000000,338.000000 -619.000000,338.000000 -529.000000C338.000000 -517.000000,336.000000 -459.000000,310.000000 -415.000000C280.000000 -367.000000,246.000000 -364.000000,221.000000 -363.000000C213.000000 -362.000000,189.000000 -360.000000,182.000000 -360.000000C174.000000 -359.000000,167.000000 -358.000000,167.000000 -348.000000C167.000000 -337.000000,174.000000 -337.000000,191.000000 -337.000000L235.000000 -337.000000C317.000000 -337.000000,354.000000 -269.000000,354.000000 -171.000000C354.000000 -35.000000,285.000000 -6.000000,241.000000 -6.000000C198.000000 -6.000000,123.000000 -23.000000,88.000000 -82.000000C123.000000 -77.000000,154.000000 -99.000000,154.000000 -137.000000C154.000000 -173.000000,127.000000 -193.000000,98.000000 -193.000000C74.000000 -193.000000,42.000000 -179.000000,42.000000 -135.000000C42.000000 -44.000000,135.000000 22.000000,244.000000 22.000000C366.000000 22.000000,457.000000 -69.000000,457.000000 -171.000000C457.000000 -253.000000,394.000000 -331.000000,290.000000 -352.000000"></path>
    </g>
    <g transform="scale(0.009963,0.009963)" id="GLYPHcmr10_52">
      <path style="fill-rule: evenodd;" d="M294.000000 -165.000000L294.000000 -78.000000C294.000000 -42.000000,292.000000 -31.000000,218.000000 -31.000000L197.000000 -31.000000L197.000000 -0.000000L332.000000 -0.000000L238.000000 -3.000000L290.000000 -3.000000L332.000000 -3.000000L374.000000 -3.000000L427.000000 -3.000000L468.000000 -0.000000L468.000000 -31.000000L447.000000 -31.000000C373.000000 -31.000000,371.000000 -42.000000,371.000000 -78.000000L371.000000 -165.000000L471.000000 -165.000000L471.000000 -196.000000L371.000000 -196.000000L371.000000 -651.000000C371.000000 -671.000000,371.000000 -677.000000,355.000000 -677.000000C346.000000 -677.000000,343.000000 -677.000000,335.000000 -665.000000L28.000000 -196.000000L28.000000 -165.000000M300.000000 -196.000000L56.000000 -196.000000L300.000000 -569.000000"></path>
    </g>
    <g transform="scale(0.009963,0.009963)" id="GLYPHcmr10_53">
      <path style="fill-rule: evenodd;" d="M449.000000 -201.000000C449.000000 -320.000000,367.000000 -420.000000,259.000000 -420.000000C211.000000 -420.000000,168.000000 -404.000000,132.000000 -369.000000L132.000000 -564.000000C152.000000 -558.000000,185.000000 -551.000000,217.000000 -551.000000C340.000000 -551.000000,410.000000 -642.000000,410.000000 -655.000000C410.000000 -661.000000,407.000000 -666.000000,400.000000 -666.000000C399.000000 -666.000000,397.000000 -666.000000,392.000000 -663.000000C372.000000 -654.000000,323.000000 -634.000000,256.000000 -634.000000C216.000000 -634.000000,170.000000 -641.000000,123.000000 -662.000000C115.000000 -665.000000,113.000000 -665.000000,111.000000 -665.000000C101.000000 -665.000000,101.000000 -657.000000,101.000000 -641.000000L101.000000 -345.000000C101.000000 -327.000000,101.000000 -319.000000,115.000000 -319.000000C122.000000 -319.000000,124.000000 -322.000000,128.000000 -328.000000C139.000000 -344.000000,176.000000 -398.000000,257.000000 -398.000000C309.000000 -398.000000,334.000000 -352.000000,342.000000 -334.000000C358.000000 -297.000000,360.000000 -258.000000,360.000000 -208.000000C360.000000 -173.000000,360.000000 -113.000000,336.000000 -71.000000C312.000000 -32.000000,275.000000 -6.000000,229.000000 -6.000000C156.000000 -6.000000,99.000000 -59.000000,82.000000 -118.000000C85.000000 -117.000000,88.000000 -116.000000,99.000000 -116.000000C132.000000 -116.000000,149.000000 -141.000000,149.000000 -165.000000C149.000000 -189.000000,132.000000 -214.000000,99.000000 -214.000000C85.000000 -214.000000,50.000000 -207.000000,50.000000 -161.000000C50.000000 -75.000000,119.000000 22.000000,231.000000 22.000000C347.000000 22.000000,449.000000 -74.000000,449.000000 -201.000000"></path>
    </g>
    <g transform="scale(0.009963,0.009963)" id="GLYPHcmr10_54">
      <path style="fill-rule: evenodd;" d="M132.000000 -328.000000L132.000000 -352.000000C132.000000 -605.000000,256.000000 -641.000000,307.000000 -641.000000C331.000000 -641.000000,373.000000 -635.000000,395.000000 -601.000000C380.000000 -601.000000,340.000000 -601.000000,340.000000 -556.000000C340.000000 -525.000000,364.000000 -510.000000,386.000000 -510.000000C402.000000 -510.000000,432.000000 -519.000000,432.000000 -558.000000C432.000000 -618.000000,388.000000 -666.000000,305.000000 -666.000000C177.000000 -666.000000,42.000000 -537.000000,42.000000 -316.000000C42.000000 -49.000000,158.000000 22.000000,251.000000 22.000000C362.000000 22.000000,457.000000 -72.000000,457.000000 -204.000000C457.000000 -331.000000,368.000000 -427.000000,257.000000 -427.000000C189.000000 -427.000000,152.000000 -376.000000,132.000000 -328.000000M251.000000 -6.000000C188.000000 -6.000000,158.000000 -66.000000,152.000000 -81.000000C134.000000 -128.000000,134.000000 -208.000000,134.000000 -226.000000C134.000000 -304.000000,166.000000 -404.000000,256.000000 -404.000000C272.000000 -404.000000,318.000000 -404.000000,349.000000 -342.000000C367.000000 -305.000000,367.000000 -254.000000,367.000000 -205.000000C367.000000 -157.000000,367.000000 -107.000000,350.000000 -71.000000C320.000000 -11.000000,274.000000 -6.000000,251.000000 -6.000000"></path>
    </g>
    <g transform="scale(0.009963,0.009963)" id="GLYPHcmr10_55">
      <path style="fill-rule: evenodd;" d="M476.000000 -609.000000C485.000000 -621.000000,485.000000 -623.000000,485.000000 -644.000000L242.000000 -644.000000C120.000000 -644.000000,118.000000 -657.000000,114.000000 -676.000000L89.000000 -676.000000L56.000000 -470.000000L81.000000 -470.000000C84.000000 -486.000000,93.000000 -549.000000,106.000000 -561.000000C113.000000 -567.000000,191.000000 -567.000000,204.000000 -567.000000L411.000000 -567.000000C400.000000 -551.000000,321.000000 -442.000000,299.000000 -409.000000C209.000000 -274.000000,176.000000 -135.000000,176.000000 -33.000000C176.000000 -23.000000,176.000000 22.000000,222.000000 22.000000C268.000000 22.000000,268.000000 -23.000000,268.000000 -33.000000L268.000000 -84.000000C268.000000 -139.000000,271.000000 -194.000000,279.000000 -248.000000C283.000000 -271.000000,297.000000 -357.000000,341.000000 -419.000000"></path>
    </g>
    <g transform="scale(0.009963,0.009963)" id="GLYPHcmr10_56">
      <path style="fill-rule: evenodd;" d="M163.000000 -457.000000C117.000000 -487.000000,113.000000 -521.000000,113.000000 -538.000000C113.000000 -599.000000,178.000000 -641.000000,249.000000 -641.000000C322.000000 -641.000000,386.000000 -589.000000,386.000000 -517.000000C386.000000 -460.000000,347.000000 -412.000000,287.000000 -377.000000M309.000000 -362.000000C381.000000 -399.000000,430.000000 -451.000000,430.000000 -517.000000C430.000000 -609.000000,341.000000 -666.000000,250.000000 -666.000000C150.000000 -666.000000,69.000000 -592.000000,69.000000 -499.000000C69.000000 -481.000000,71.000000 -436.000000,113.000000 -389.000000C124.000000 -377.000000,161.000000 -352.000000,186.000000 -335.000000C128.000000 -306.000000,42.000000 -250.000000,42.000000 -151.000000C42.000000 -45.000000,144.000000 22.000000,249.000000 22.000000C362.000000 22.000000,457.000000 -61.000000,457.000000 -168.000000C457.000000 -204.000000,446.000000 -249.000000,408.000000 -291.000000C389.000000 -312.000000,373.000000 -322.000000,309.000000 -362.000000M209.000000 -320.000000L332.000000 -242.000000C360.000000 -223.000000,407.000000 -193.000000,407.000000 -132.000000C407.000000 -58.000000,332.000000 -6.000000,250.000000 -6.000000C164.000000 -6.000000,92.000000 -68.000000,92.000000 -151.000000C92.000000 -209.000000,124.000000 -273.000000,209.000000 -320.000000"></path>
    </g>
    <g transform="scale(0.009963,0.009963)" id="GLYPHcmr10_57">
      <path style="fill-rule: evenodd;" d="M367.000000 -318.000000L367.000000 -286.000000C367.000000 -52.000000,263.000000 -6.000000,205.000000 -6.000000C188.000000 -6.000000,134.000000 -8.000000,107.000000 -42.000000C151.000000 -42.000000,159.000000 -71.000000,159.000000 -88.000000C159.000000 -119.000000,135.000000 -134.000000,113.000000 -134.000000C97.000000 -134.000000,67.000000 -125.000000,67.000000 -86.000000C67.000000 -19.000000,121.000000 22.000000,206.000000 22.000000C335.000000 22.000000,457.000000 -114.000000,457.000000 -329.000000C457.000000 -598.000000,342.000000 -666.000000,253.000000 -666.000000C198.000000 -666.000000,149.000000 -648.000000,106.000000 -603.000000C65.000000 -558.000000,42.000000 -516.000000,42.000000 -441.000000C42.000000 -316.000000,130.000000 -218.000000,242.000000 -218.000000C303.000000 -218.000000,344.000000 -260.000000,367.000000 -318.000000M243.000000 -241.000000C227.000000 -241.000000,181.000000 -241.000000,150.000000 -304.000000C132.000000 -341.000000,132.000000 -391.000000,132.000000 -440.000000C132.000000 -494.000000,132.000000 -541.000000,153.000000 -578.000000C180.000000 -628.000000,218.000000 -641.000000,253.000000 -641.000000C299.000000 -641.000000,332.000000 -607.000000,349.000000 -562.000000C361.000000 -530.000000,365.000000 -467.000000,365.000000 -421.000000C365.000000 -338.000000,331.000000 -241.000000,243.000000 -241.000000"></path>
    </g>
  </defs>
  <path d="M44.328369 189.720261C44.328369 188.927567,44.013428 188.167419,43.452942 187.606949C42.892471 187.046463,42.132324 186.731522,41.339630 186.731522C40.546936 186.731522,39.786789 187.046463,39.226318 187.606949C38.665833 188.167419,38.350891 188.927567,38.350891 189.720261C38.350891 190.512955,38.665833 191.273102,39.226318 191.833572C39.786789 192.394058,40.546936 192.709000,41.339630 192.709000C42.132324 192.709000,42.892471 192.394058,43.452942 191.833572C44.013428 191.273102,44.328369 190.512955,44.328369 189.720261Z" style="fill: rgb(100.000000%,100.000000%,100.000000%);stroke: none;"></path>
  <path d="M33.017059 170.508072C33.017059 169.715378,32.702118 168.955231,32.141632 168.394760C31.581161 167.834274,30.821014 167.519333,30.028320 167.519333C29.235626 167.519333,28.475479 167.834274,27.915009 168.394760C27.354523 168.955231,27.039581 169.715378,27.039581 170.508072C27.039581 171.300766,27.354523 172.060913,27.915009 172.621384C28.475479 173.181870,29.235626 173.496811,30.028320 173.496811C30.821014 173.496811,31.581161 173.181870,32.141632 172.621384C32.702118 172.060913,33.017059 171.300766,33.017059 170.508072Z" style="fill: rgb(100.000000%,100.000000%,100.000000%);stroke: none;"></path>
  <path d="M98.133743 176.181046C98.133743 175.388351,97.818802 174.628204,97.258316 174.067734C96.697845 173.507248,95.937698 173.192307,95.145004 173.192307C94.352310 173.192307,93.592163 173.507248,93.031693 174.067734C92.471207 174.628204,92.156265 175.388351,92.156265 176.181046C92.156265 176.973740,92.471207 177.733887,93.031693 178.294357C93.592163 178.854843,94.352310 179.169785,95.145004 179.169785C95.937698 179.169785,96.697845 178.854843,97.258316 178.294357C97.818802 177.733887,98.133743 176.973740,98.133743 176.181046Z" style="fill: rgb(100.000000%,100.000000%,100.000000%);stroke: none;"></path>
  <path d="M69.485367 195.437012C69.485367 194.644318,69.170425 193.884171,68.609940 193.323700C68.049469 192.763214,67.289322 192.448273,66.496628 192.448273C65.703934 192.448273,64.943787 192.763214,64.383316 193.323700C63.822830 193.884171,63.507889 194.644318,63.507889 195.437012C63.507889 196.229706,63.822830 196.989853,64.383316 197.550323C64.943787 198.110809,65.703934 198.425751,66.496628 198.425751C67.289322 198.425751,68.049469 198.110809,68.609940 197.550323C69.170425 196.989853,69.485367 196.229706,69.485367 195.437012Z" style="fill: rgb(100.000000%,100.000000%,100.000000%);stroke: none;"></path>
  <path d="M95.083817 150.686081C95.083817 149.893387,94.768875 149.133240,94.208389 148.572769C93.647919 148.012283,92.887772 147.697342,92.095078 147.697342C91.302383 147.697342,90.542236 148.012283,89.981766 148.572769C89.421280 149.133240,89.106339 149.893387,89.106339 150.686081C89.106339 151.478775,89.421280 152.238922,89.981766 152.799393C90.542236 153.359879,91.302383 153.674820,92.095078 153.674820C92.887772 153.674820,93.647919 153.359879,94.208389 152.799393C94.768875 152.238922,95.083817 151.478775,95.083817 150.686081Z" style="fill: rgb(100.000000%,100.000000%,100.000000%);stroke: none;"></path>
  <path d="M103.554657 163.788498C103.554657 162.995804,103.239716 162.235657,102.679230 161.675186C102.118759 161.114700,101.358612 160.799759,100.565918 160.799759C99.773224 160.799759,99.013077 161.114700,98.452606 161.675186C97.892120 162.235657,97.577179 162.995804,97.577179 163.788498C97.577179 164.581192,97.892120 165.341339,98.452606 165.901810C99.013077 166.462296,99.773224 166.777237,100.565918 166.777237C101.358612 166.777237,102.118759 166.462296,102.679230 165.901810C103.239716 165.341339,103.554657 164.581192,103.554657 163.788498Z" style="fill: rgb(100.000000%,100.000000%,100.000000%);stroke: none;"></path>
  <path d="M87.005493 145.210907C87.005493 144.418213,86.690552 143.658066,86.130066 143.097595C85.569595 142.537109,84.809448 142.222168,84.016754 142.222168C83.224060 142.222168,82.463913 142.537109,81.903442 143.097595C81.342957 143.658066,81.028015 144.418213,81.028015 145.210907C81.028015 146.003601,81.342957 146.763748,81.903442 147.324219C82.463913 147.884705,83.224060 148.199646,84.016754 148.199646C84.809448 148.199646,85.569595 147.884705,86.130066 147.324219C86.690552 146.763748,87.005493 146.003601,87.005493 145.210907Z" style="fill: rgb(100.000000%,100.000000%,100.000000%);stroke: none;"></path>
  <path d="M91.370911 148.451599C91.370911 147.658905,91.055969 146.898758,90.495483 146.338287C89.935013 145.777802,89.174866 145.462860,88.382172 145.462860C87.589478 145.462860,86.829330 145.777802,86.268860 146.338287C85.708374 146.898758,85.393433 147.658905,85.393433 148.451599C85.393433 149.244293,85.708374 150.004440,86.268860 150.564911C86.829330 151.125397,87.589478 151.440338,88.382172 151.440338C89.174866 151.440338,89.935013 151.125397,90.495483 150.564911C91.055969 150.004440,91.370911 149.244293,91.370911 148.451599Z" style="fill: rgb(100.000000%,100.000000%,100.000000%);stroke: none;"></path>
  <path d="M83.574768 144.914246C83.574768 144.121552,83.259827 143.361404,82.699341 142.800934C82.138870 142.240448,81.378723 141.925507,80.586029 141.925507C79.793335 141.925507,79.033188 142.240448,78.472717 142.800934C77.912231 143.361404,77.597290 144.121552,77.597290 144.914246C77.597290 145.706940,77.912231 146.467087,78.472717 147.027557C79.033188 147.588043,79.793335 147.902985,80.586029 147.902985C81.378723 147.902985,82.138870 147.588043,82.699341 147.027557C83.259827 146.467087,83.574768 145.706940,83.574768 144.914246Z" style="fill: rgb(100.000000%,100.000000%,100.000000%);stroke: none;"></path>
  <path d="M85.930939 144.442551C85.930939 143.649857,85.615997 142.889709,85.055511 142.329239C84.495041 141.768753,83.734894 141.453812,82.942200 141.453812C82.149506 141.453812,81.389359 141.768753,80.828888 142.329239C80.268402 142.889709,79.953461 143.649857,79.953461 144.442551C79.953461 145.235245,80.268402 145.995392,80.828888 146.555862C81.389359 147.116348,82.149506 147.431290,82.942200 147.431290C83.734894 147.431290,84.495041 147.116348,85.055511 146.555862C85.615997 145.995392,85.930939 145.235245,85.930939 144.442551Z" style="fill: rgb(100.000000%,100.000000%,100.000000%);stroke: none;"></path>
  <path d="M80.358276 150.080078C80.358276 149.287384,80.043335 148.527237,79.482849 147.966766C78.922379 147.406281,78.162231 147.091339,77.369537 147.091339C76.576843 147.091339,75.816696 147.406281,75.256226 147.966766C74.695740 148.527237,74.380798 149.287384,74.380798 150.080078C74.380798 150.872772,74.695740 151.632919,75.256226 152.193390C75.816696 152.753876,76.576843 153.068817,77.369537 153.068817C78.162231 153.068817,78.922379 152.753876,79.482849 152.193390C80.043335 151.632919,80.358276 150.872772,80.358276 150.080078Z" style="fill: rgb(100.000000%,100.000000%,100.000000%);stroke: none;"></path>
  <path d="M82.879852 145.990631C82.879852 145.197937,82.564911 144.437790,82.004425 143.877319C81.443954 143.316833,80.683807 143.001892,79.891113 143.001892C79.098419 143.001892,78.338272 143.316833,77.777802 143.877319C77.217316 144.437790,76.902374 145.197937,76.902374 145.990631C76.902374 146.783325,77.217316 147.543472,77.777802 148.103943C78.338272 148.664429,79.098419 148.979370,79.891113 148.979370C80.683807 148.979370,81.443954 148.664429,82.004425 148.103943C82.564911 147.543472,82.879852 146.783325,82.879852 145.990631Z" style="fill: rgb(100.000000%,100.000000%,100.000000%);stroke: none;"></path>
  <path d="M73.756866 166.531845C73.756866 165.739151,73.441925 164.979004,72.881439 164.418533C72.320969 163.858047,71.560822 163.543106,70.768127 163.543106C69.975433 163.543106,69.215286 163.858047,68.654816 164.418533C68.094330 164.979004,67.779388 165.739151,67.779388 166.531845C67.779388 167.324539,68.094330 168.084686,68.654816 168.645157C69.215286 169.205643,69.975433 169.520584,70.768127 169.520584C71.560822 169.520584,72.320969 169.205643,72.881439 168.645157C73.441925 168.084686,73.756866 167.324539,73.756866 166.531845Z" style="fill: rgb(100.000000%,100.000000%,100.000000%);stroke: none;"></path>
  <path d="M78.224472 153.053467C78.224472 152.260773,77.909531 151.500626,77.349045 150.940155C76.788574 150.379669,76.028427 150.064728,75.235733 150.064728C74.443039 150.064728,73.682892 150.379669,73.122421 150.940155C72.561935 151.500626,72.246994 152.260773,72.246994 153.053467C72.246994 153.846161,72.561935 154.606308,73.122421 155.166779C73.682892 155.727264,74.443039 156.042206,75.235733 156.042206C76.028427 156.042206,76.788574 155.727264,77.349045 155.166779C77.909531 154.606308,78.224472 153.846161,78.224472 153.053467Z" style="fill: rgb(100.000000%,100.000000%,100.000000%);stroke: none;"></path>
  <path d="M106.811157 195.005585C106.811157 194.212891,106.496216 193.452744,105.935730 192.892273C105.375259 192.331787,104.615112 192.016846,103.822418 192.016846C103.029724 192.016846,102.269577 192.331787,101.709106 192.892273C101.148621 193.452744,100.833679 194.212891,100.833679 195.005585C100.833679 195.798279,101.148621 196.558426,101.709106 197.118896C102.269577 197.679382,103.029724 197.994324,103.822418 197.994324C104.615112 197.994324,105.375259 197.679382,105.935730 197.118896C106.496216 196.558426,106.811157 195.798279,106.811157 195.005585Z" style="fill: rgb(100.000000%,100.000000%,100.000000%);stroke: none;"></path>
  <path d="M78.888550 177.195587C78.888550 176.402893,78.573608 175.642746,78.013123 175.082275C77.452652 174.521790,76.692505 174.206848,75.899811 174.206848C75.107117 174.206848,74.346970 174.521790,73.786499 175.082275C73.226013 175.642746,72.911072 176.402893,72.911072 177.195587C72.911072 177.988281,73.226013 178.748428,73.786499 179.308899C74.346970 179.869385,75.107117 180.184326,75.899811 180.184326C76.692505 180.184326,77.452652 179.869385,78.013123 179.308899C78.573608 178.748428,78.888550 177.988281,78.888550 177.195587Z" style="fill: rgb(100.000000%,100.000000%,100.000000%);stroke: none;"></path>
  <path d="M168.615753 153.802383C168.615753 153.009689,168.300812 152.249542,167.740326 151.689072C167.179855 151.128586,166.419708 150.813644,165.627014 150.813644C164.834320 150.813644,164.074173 151.128586,163.513702 151.689072C162.953217 152.249542,162.638275 153.009689,162.638275 153.802383C162.638275 154.595078,162.953217 155.355225,163.513702 155.915695C164.074173 156.476181,164.834320 156.791122,165.627014 156.791122C166.419708 156.791122,167.179855 156.476181,167.740326 155.915695C168.300812 155.355225,168.615753 154.595078,168.615753 153.802383Z" style="fill: rgb(100.000000%,100.000000%,100.000000%);stroke: none;"></path>
  <path d="M130.081299 184.290222C130.081299 183.497528,129.766357 182.737381,129.205872 182.176910C128.645401 181.616425,127.885254 181.301483,127.092560 181.301483C126.299866 181.301483,125.539719 181.616425,124.979248 182.176910C124.418762 182.737381,124.103821 183.497528,124.103821 184.290222C124.103821 185.082916,124.418762 185.843063,124.979248 186.403534C125.539719 186.964020,126.299866 187.278961,127.092560 187.278961C127.885254 187.278961,128.645401 186.964020,129.205872 186.403534C129.766357 185.843063,130.081299 185.082916,130.081299 184.290222Z" style="fill: rgb(100.000000%,100.000000%,100.000000%);stroke: none;"></path>
  <path d="M169.239319 95.574280C169.239319 94.781586,168.924377 94.021439,168.363892 93.460968C167.803421 92.900482,167.043274 92.585541,166.250580 92.585541C165.457886 92.585541,164.697739 92.900482,164.137268 93.460968C163.576782 94.021439,163.261841 94.781586,163.261841 95.574280C163.261841 96.366974,163.576782 97.127121,164.137268 97.687592C164.697739 98.248077,165.457886 98.563019,166.250580 98.563019C167.043274 98.563019,167.803421 98.248077,168.363892 97.687592C168.924377 97.127121,169.239319 96.366974,169.239319 95.574280Z" style="fill: rgb(100.000000%,100.000000%,100.000000%);stroke: none;"></path>
  <path d="M185.187241 130.944519C185.187241 130.151825,184.872299 129.391678,184.311813 128.831207C183.751343 128.270721,182.991196 127.955780,182.198502 127.955780C181.405807 127.955780,180.645660 128.270721,180.085190 128.831207C179.524704 129.391678,179.209763 130.151825,179.209763 130.944519C179.209763 131.737213,179.524704 132.497360,180.085190 133.057831C180.645660 133.618317,181.405807 133.933258,182.198502 133.933258C182.991196 133.933258,183.751343 133.618317,184.311813 133.057831C184.872299 132.497360,185.187241 131.737213,185.187241 130.944519Z" style="fill: rgb(100.000000%,100.000000%,100.000000%);stroke: none;"></path>
  <path d="M146.684799 60.599487C146.684799 59.806793,146.369858 59.046646,145.809372 58.486176C145.248901 57.925690,144.488754 57.610748,143.696060 57.610748C142.903366 57.610748,142.143219 57.925690,141.582748 58.486176C141.022263 59.046646,140.707321 59.806793,140.707321 60.599487C140.707321 61.392181,141.022263 62.152328,141.582748 62.712799C142.143219 63.273285,142.903366 63.588226,143.696060 63.588226C144.488754 63.588226,145.248901 63.273285,145.809372 62.712799C146.369858 62.152328,146.684799 61.392181,146.684799 60.599487Z" style="fill: rgb(100.000000%,100.000000%,100.000000%);stroke: none;"></path>
  <path d="M153.695358 88.203690C153.695358 87.410995,153.380417 86.650848,152.819931 86.090378C152.259460 85.529892,151.499313 85.214951,150.706619 85.214951C149.913925 85.214951,149.153778 85.529892,148.593307 86.090378C148.032822 86.650848,147.717880 87.410995,147.717880 88.203690C147.717880 88.996384,148.032822 89.756531,148.593307 90.317001C149.153778 90.877487,149.913925 91.192429,150.706619 91.192429C151.499313 91.192429,152.259460 90.877487,152.819931 90.317001C153.380417 89.756531,153.695358 88.996384,153.695358 88.203690Z" style="fill: rgb(100.000000%,100.000000%,100.000000%);stroke: none;"></path>
  <path d="M148.724167 14.317200C148.724167 13.524506,148.409225 12.764359,147.848740 12.203888C147.288269 11.643402,146.528122 11.328461,145.735428 11.328461C144.942734 11.328461,144.182587 11.643402,143.622116 12.203888C143.061630 12.764359,142.746689 13.524506,142.746689 14.317200C142.746689 15.109894,143.061630 15.870041,143.622116 16.430511C144.182587 16.990997,144.942734 17.305939,145.735428 17.305939C146.528122 17.305939,147.288269 16.990997,147.848740 16.430511C148.409225 15.870041,148.724167 15.109894,148.724167 14.317200Z" style="fill: rgb(100.000000%,100.000000%,100.000000%);stroke: none;"></path>
  <path d="M155.202225 47.188354C155.202225 46.395660,154.887283 45.635513,154.326797 45.075043C153.766327 44.514557,153.006180 44.199615,152.213486 44.199615C151.420792 44.199615,150.660645 44.514557,150.100174 45.075043C149.539688 45.635513,149.224747 46.395660,149.224747 47.188354C149.224747 47.981049,149.539688 48.741196,150.100174 49.301666C150.660645 49.862152,151.420792 50.177094,152.213486 50.177094C153.006180 50.177094,153.766327 49.862152,154.326797 49.301666C154.887283 48.741196,155.202225 47.981049,155.202225 47.188354Z" style="fill: rgb(100.000000%,100.000000%,100.000000%);stroke: none;"></path>
  <path d="M87.811508 3.114578C87.811508 2.321884,87.496567 1.561737,86.936081 1.001266C86.375610 0.440781,85.615463 0.125839,84.822769 0.125839C84.030075 0.125839,83.269928 0.440781,82.709457 1.001266C82.148972 1.561737,81.834030 2.321884,81.834030 3.114578C81.834030 3.907272,82.148972 4.667419,82.709457 5.227890C83.269928 5.788376,84.030075 6.103317,84.822769 6.103317C85.615463 6.103317,86.375610 5.788376,86.936081 5.227890C87.496567 4.667419,87.811508 3.907272,87.811508 3.114578Z" style="fill: rgb(100.000000%,100.000000%,100.000000%);stroke: none;"></path>
  <path d="M127.275696 6.011353C127.275696 5.218658,126.960754 4.458511,126.400269 3.898041C125.839798 3.337555,125.079651 3.022614,124.286957 3.022614C123.494263 3.022614,122.734116 3.337555,122.173645 3.898041C121.613159 4.458511,121.298218 5.218658,121.298218 6.011353C121.298218 6.804047,121.613159 7.564194,122.173645 8.124664C122.734116 8.685150,123.494263 9.000092,124.286957 9.000092C125.079651 9.000092,125.839798 8.685150,126.400269 8.124664C126.960754 7.564194,127.275696 6.804047,127.275696 6.011353Z" style="fill: rgb(100.000000%,100.000000%,100.000000%);stroke: none;"></path>
  <path d="M52.946899 31.088058C52.946899 30.295364,52.631958 29.535217,52.071472 28.974747C51.511002 28.414261,50.750854 28.099319,49.958160 28.099319C49.165466 28.099319,48.405319 28.414261,47.844849 28.974747C47.284363 29.535217,46.969421 30.295364,46.969421 31.088058C46.969421 31.880753,47.284363 32.640900,47.844849 33.201370C48.405319 33.761856,49.165466 34.076797,49.958160 34.076797C50.750854 34.076797,51.511002 33.761856,52.071472 33.201370C52.631958 32.640900,52.946899 31.880753,52.946899 31.088058Z" style="fill: rgb(100.000000%,100.000000%,100.000000%);stroke: none;"></path>
  <path d="M67.982529 6.242569C67.982529 5.449875,67.667587 4.689728,67.107101 4.129257C66.546631 3.568771,65.786484 3.253830,64.993790 3.253830C64.201096 3.253830,63.440948 3.568771,62.880478 4.129257C62.319992 4.689728,62.005051 5.449875,62.005051 6.242569C62.005051 7.035263,62.319992 7.795410,62.880478 8.355881C63.440948 8.916367,64.201096 9.231308,64.993790 9.231308C65.786484 9.231308,66.546631 8.916367,67.107101 8.355881C67.667587 7.795410,67.982529 7.035263,67.982529 6.242569Z" style="fill: rgb(100.000000%,100.000000%,100.000000%);stroke: none;"></path>
  <path d="M66.314362 51.908997C66.314362 51.116302,65.999420 50.356155,65.438934 49.795685C64.878464 49.235199,64.118317 48.920258,63.325623 48.920258C62.532928 48.920258,61.772781 49.235199,61.212311 49.795685C60.651825 50.356155,60.336884 51.116302,60.336884 51.908997C60.336884 52.701691,60.651825 53.461838,61.212311 54.022308C61.772781 54.582794,62.532928 54.897736,63.325623 54.897736C64.118317 54.897736,64.878464 54.582794,65.438934 54.022308C65.999420 53.461838,66.314362 52.701691,66.314362 51.908997Z" style="fill: rgb(100.000000%,100.000000%,100.000000%);stroke: none;"></path>
  <path d="M53.637070 43.238770C53.637070 42.446075,53.322128 41.685928,52.761642 41.125458C52.201172 40.564972,51.441025 40.250031,50.648331 40.250031C49.855637 40.250031,49.095490 40.564972,48.535019 41.125458C47.974533 41.685928,47.659592 42.446075,47.659592 43.238770C47.659592 44.031464,47.974533 44.791611,48.535019 45.352081C49.095490 45.912567,49.855637 46.227509,50.648331 46.227509C51.441025 46.227509,52.201172 45.912567,52.761642 45.352081C53.322128 44.791611,53.637070 44.031464,53.637070 43.238770Z" style="fill: rgb(100.000000%,100.000000%,100.000000%);stroke: none;"></path>
  <path d="M80.976562 53.337906C80.976562 52.545212,80.661621 51.785065,80.101135 51.224594C79.540665 50.664108,78.780518 50.349167,77.987823 50.349167C77.195129 50.349167,76.434982 50.664108,75.874512 51.224594C75.314026 51.785065,74.999084 52.545212,74.999084 53.337906C74.999084 54.130600,75.314026 54.890747,75.874512 55.451218C76.434982 56.011703,77.195129 56.326645,77.987823 56.326645C78.780518 56.326645,79.540665 56.011703,80.101135 55.451218C80.661621 54.890747,80.976562 54.130600,80.976562 53.337906Z" style="fill: rgb(100.000000%,100.000000%,100.000000%);stroke: none;"></path>
  <path d="M71.392136 52.328964C71.392136 51.536270,71.077194 50.776123,70.516708 50.215652C69.956238 49.655167,69.196091 49.340225,68.403397 49.340225C67.610703 49.340225,66.850555 49.655167,66.290085 50.215652C65.729599 50.776123,65.414658 51.536270,65.414658 52.328964C65.414658 53.121658,65.729599 53.881805,66.290085 54.442276C66.850555 55.002762,67.610703 55.317703,68.403397 55.317703C69.196091 55.317703,69.956238 55.002762,70.516708 54.442276C71.077194 53.881805,71.392136 53.121658,71.392136 52.328964Z" style="fill: rgb(100.000000%,100.000000%,100.000000%);stroke: none;"></path>
  <path d="M93.721298 59.311798C93.721298 58.519104,93.406357 57.758957,92.845871 57.198486C92.285400 56.638000,91.525253 56.323059,90.732559 56.323059C89.939865 56.323059,89.179718 56.638000,88.619247 57.198486C88.058762 57.758957,87.743820 58.519104,87.743820 59.311798C87.743820 60.104492,88.058762 60.864639,88.619247 61.425110C89.179718 61.985596,89.939865 62.300537,90.732559 62.300537C91.525253 62.300537,92.285400 61.985596,92.845871 61.425110C93.406357 60.864639,93.721298 60.104492,93.721298 59.311798Z" style="fill: rgb(100.000000%,100.000000%,100.000000%);stroke: none;"></path>
  <path d="M85.762192 54.025558C85.762192 53.232864,85.447250 52.472717,84.886765 51.912247C84.326294 51.351761,83.566147 51.036819,82.773453 51.036819C81.980759 51.036819,81.220612 51.351761,80.660141 51.912247C80.099655 52.472717,79.784714 53.232864,79.784714 54.025558C79.784714 54.818253,80.099655 55.578400,80.660141 56.138870C81.220612 56.699356,81.980759 57.014297,82.773453 57.014297C83.566147 57.014297,84.326294 56.699356,84.886765 56.138870C85.447250 55.578400,85.762192 54.818253,85.762192 54.025558Z" style="fill: rgb(100.000000%,100.000000%,100.000000%);stroke: none;"></path>
  <path d="M101.954636 72.166458C101.954636 71.373764,101.639694 70.613617,101.079208 70.053146C100.518738 69.492661,99.758591 69.177719,98.965897 69.177719C98.173203 69.177719,97.413055 69.492661,96.852585 70.053146C96.292099 70.613617,95.977158 71.373764,95.977158 72.166458C95.977158 72.959152,96.292099 73.719299,96.852585 74.279770C97.413055 74.840256,98.173203 75.155197,98.965897 75.155197C99.758591 75.155197,100.518738 74.840256,101.079208 74.279770C101.639694 73.719299,101.954636 72.959152,101.954636 72.166458Z" style="fill: rgb(100.000000%,100.000000%,100.000000%);stroke: none;"></path>
  <path d="M96.221069 63.586884C96.221069 62.794189,95.906128 62.034042,95.345642 61.473572C94.785172 60.913086,94.025024 60.598145,93.232330 60.598145C92.439636 60.598145,91.679489 60.913086,91.119019 61.473572C90.558533 62.034042,90.243591 62.794189,90.243591 63.586884C90.243591 64.379578,90.558533 65.139725,91.119019 65.700195C91.679489 66.260681,92.439636 66.575623,93.232330 66.575623C94.025024 66.575623,94.785172 66.260681,95.345642 65.700195C95.906128 65.139725,96.221069 64.379578,96.221069 63.586884Z" style="fill: rgb(100.000000%,100.000000%,100.000000%);stroke: none;"></path>
  <path d="M106.635727 88.119324C106.635727 87.326630,106.320786 86.566483,105.760300 86.006012C105.199829 85.445526,104.439682 85.130585,103.646988 85.130585C102.854294 85.130585,102.094147 85.445526,101.533676 86.006012C100.973190 86.566483,100.658249 87.326630,100.658249 88.119324C100.658249 88.912018,100.973190 89.672165,101.533676 90.232635C102.094147 90.793121,102.854294 91.108063,103.646988 91.108063C104.439682 91.108063,105.199829 90.793121,105.760300 90.232635C106.320786 89.672165,106.635727 88.912018,106.635727 88.119324Z" style="fill: rgb(100.000000%,100.000000%,100.000000%);stroke: none;"></path>
  <path d="M105.429565 76.709717C105.429565 75.917023,105.114624 75.156876,104.554138 74.596405C103.993668 74.035919,103.233521 73.720978,102.440826 73.720978C101.648132 73.720978,100.887985 74.035919,100.327515 74.596405C99.767029 75.156876,99.452087 75.917023,99.452087 76.709717C99.452087 77.502411,99.767029 78.262558,100.327515 78.823029C100.887985 79.383514,101.648132 79.698456,102.440826 79.698456C103.233521 79.698456,103.993668 79.383514,104.554138 78.823029C105.114624 78.262558,105.429565 77.502411,105.429565 76.709717Z" style="fill: rgb(100.000000%,100.000000%,100.000000%);stroke: none;"></path>
  <path d="M98.049896 104.844498C98.049896 104.051804,97.734955 103.291656,97.174469 102.731186C96.613998 102.170700,95.853851 101.855759,95.061157 101.855759C94.268463 101.855759,93.508316 102.170700,92.947845 102.731186C92.387360 103.291656,92.072418 104.051804,92.072418 104.844498C92.072418 105.637192,92.387360 106.397339,92.947845 106.957809C93.508316 107.518295,94.268463 107.833237,95.061157 107.833237C95.853851 107.833237,96.613998 107.518295,97.174469 106.957809C97.734955 106.397339,98.049896 105.637192,98.049896 104.844498Z" style="fill: rgb(100.000000%,100.000000%,100.000000%);stroke: none;"></path>
  <path d="M103.774582 93.619873C103.774582 92.827179,103.459641 92.067032,102.899155 91.506561C102.338684 90.946075,101.578537 90.631134,100.785843 90.631134C99.993149 90.631134,99.233002 90.946075,98.672531 91.506561C98.112045 92.067032,97.797104 92.827179,97.797104 93.619873C97.797104 94.412567,98.112045 95.172714,98.672531 95.733185C99.233002 96.293671,99.993149 96.608612,100.785843 96.608612C101.578537 96.608612,102.338684 96.293671,102.899155 95.733185C103.459641 95.172714,103.774582 94.412567,103.774582 93.619873Z" style="fill: rgb(100.000000%,100.000000%,100.000000%);stroke: none;"></path>
  <path d="M88.564453 121.773529C88.564453 120.980835,88.249512 120.220688,87.689026 119.660217C87.128555 119.099731,86.368408 118.784790,85.575714 118.784790C84.783020 118.784790,84.022873 119.099731,83.462402 119.660217C82.901917 120.220688,82.586975 120.980835,82.586975 121.773529C82.586975 122.566223,82.901917 123.326370,83.462402 123.886841C84.022873 124.447327,84.783020 124.762268,85.575714 124.762268C86.368408 124.762268,87.128555 124.447327,87.689026 123.886841C88.249512 123.326370,88.564453 122.566223,88.564453 121.773529Z" style="fill: rgb(100.000000%,100.000000%,100.000000%);stroke: none;"></path>
  <path d="M95.179169 110.864258C95.179169 110.071564,94.864227 109.311417,94.303741 108.750946C93.743271 108.190460,92.983124 107.875519,92.190430 107.875519C91.397736 107.875519,90.637589 108.190460,90.077118 108.750946C89.516632 109.311417,89.201691 110.071564,89.201691 110.864258C89.201691 111.656952,89.516632 112.417099,90.077118 112.977570C90.637589 113.538055,91.397736 113.852997,92.190430 113.852997C92.983124 113.852997,93.743271 113.538055,94.303741 112.977570C94.864227 112.417099,95.179169 111.656952,95.179169 110.864258Z" style="fill: rgb(100.000000%,100.000000%,100.000000%);stroke: none;"></path>
  <path d="M78.885254 134.313248C78.885254 133.520554,78.570312 132.760406,78.009827 132.199936C77.449356 131.639450,76.689209 131.324509,75.896515 131.324509C75.103821 131.324509,74.343674 131.639450,73.783203 132.199936C73.222717 132.760406,72.907776 133.520554,72.907776 134.313248C72.907776 135.105942,73.222717 135.866089,73.783203 136.426559C74.343674 136.987045,75.103821 137.301987,75.896515 137.301987C76.689209 137.301987,77.449356 136.987045,78.009827 136.426559C78.570312 135.866089,78.885254 135.105942,78.885254 134.313248Z" style="fill: rgb(100.000000%,100.000000%,100.000000%);stroke: none;"></path>
  <path d="M84.935669 126.681717C84.935669 125.889023,84.620728 125.128876,84.060242 124.568405C83.499771 124.007919,82.739624 123.692978,81.946930 123.692978C81.154236 123.692978,80.394089 124.007919,79.833618 124.568405C79.273132 125.128876,78.958191 125.889023,78.958191 126.681717C78.958191 127.474411,79.273132 128.234558,79.833618 128.795029C80.394089 129.355515,81.154236 129.670456,81.946930 129.670456C82.739624 129.670456,83.499771 129.355515,84.060242 128.795029C84.620728 128.234558,84.935669 127.474411,84.935669 126.681717Z" style="fill: rgb(100.000000%,100.000000%,100.000000%);stroke: none;"></path>
  <path d="M78.111572 143.552628C78.111572 142.759933,77.796631 141.999786,77.236145 141.439316C76.675674 140.878830,75.915527 140.563889,75.122833 140.563889C74.330139 140.563889,73.569992 140.878830,73.009521 141.439316C72.449036 141.999786,72.134094 142.759933,72.134094 143.552628C72.134094 144.345322,72.449036 145.105469,73.009521 145.665939C73.569992 146.226425,74.330139 146.541367,75.122833 146.541367C75.915527 146.541367,76.675674 146.226425,77.236145 145.665939C77.796631 145.105469,78.111572 144.345322,78.111572 143.552628Z" style="fill: rgb(100.000000%,100.000000%,100.000000%);stroke: none;"></path>
  <path d="M76.557022 137.518173C76.557022 136.725479,76.242081 135.965332,75.681595 135.404861C75.121124 134.844376,74.360977 134.529434,73.568283 134.529434C72.775589 134.529434,72.015442 134.844376,71.454971 135.404861C70.894485 135.965332,70.579544 136.725479,70.579544 137.518173C70.579544 138.310867,70.894485 139.071014,71.454971 139.631485C72.015442 140.191971,72.775589 140.506912,73.568283 140.506912C74.360977 140.506912,75.121124 140.191971,75.681595 139.631485C76.242081 139.071014,76.557022 138.310867,76.557022 137.518173Z" style="fill: rgb(100.000000%,100.000000%,100.000000%);stroke: none;"></path>
  <path d="M83.193863 147.892487C83.193863 147.099792,82.878922 146.339645,82.318436 145.779175C81.757965 145.218689,80.997818 144.903748,80.205124 144.903748C79.412430 144.903748,78.652283 145.218689,78.091812 145.779175C77.531326 146.339645,77.216385 147.099792,77.216385 147.892487C77.216385 148.685181,77.531326 149.445328,78.091812 150.005798C78.652283 150.566284,79.412430 150.881226,80.205124 150.881226C80.997818 150.881226,81.757965 150.566284,82.318436 150.005798C82.878922 149.445328,83.193863 148.685181,83.193863 147.892487Z" style="fill: rgb(100.000000%,100.000000%,100.000000%);stroke: none;"></path>
  <path d="M80.351669 145.204803C80.351669 144.412109,80.036728 143.651962,79.476242 143.091492C78.915771 142.531006,78.155624 142.216064,77.362930 142.216064C76.570236 142.216064,75.810089 142.531006,75.249619 143.091492C74.689133 143.651962,74.374191 144.412109,74.374191 145.204803C74.374191 145.997498,74.689133 146.757645,75.249619 147.318115C75.810089 147.878601,76.570236 148.193542,77.362930 148.193542C78.155624 148.193542,78.915771 147.878601,79.476242 147.318115C80.036728 146.757645,80.351669 145.997498,80.351669 145.204803Z" style="fill: rgb(100.000000%,100.000000%,100.000000%);stroke: none;"></path>
  <path d="M86.766083 148.424545C86.766083 147.631851,86.451141 146.871704,85.890656 146.311234C85.330185 145.750748,84.570038 145.435806,83.777344 145.435806C82.984650 145.435806,82.224503 145.750748,81.664032 146.311234C81.103546 146.871704,80.788605 147.631851,80.788605 148.424545C80.788605 149.217239,81.103546 149.977386,81.664032 150.537857C82.224503 151.098343,82.984650 151.413284,83.777344 151.413284C84.570038 151.413284,85.330185 151.098343,85.890656 150.537857C86.451141 149.977386,86.766083 149.217239,86.766083 148.424545Z" style="fill: rgb(100.000000%,100.000000%,100.000000%);stroke: none;"></path>
  <path d="M84.225815 148.865372C84.225815 148.072678,83.910873 147.312531,83.350388 146.752060C82.789917 146.191574,82.029770 145.876633,81.237076 145.876633C80.444382 145.876633,79.684235 146.191574,79.123764 146.752060C78.563278 147.312531,78.248337 148.072678,78.248337 148.865372C78.248337 149.658066,78.563278 150.418213,79.123764 150.978683C79.684235 151.539169,80.444382 151.854111,81.237076 151.854111C82.029770 151.854111,82.789917 151.539169,83.350388 150.978683C83.910873 150.418213,84.225815 149.658066,84.225815 148.865372Z" style="fill: rgb(100.000000%,100.000000%,100.000000%);stroke: none;"></path>
  <path d="M89.299835 143.280746C89.299835 142.488052,88.984894 141.727905,88.424408 141.167435C87.863937 140.606949,87.103790 140.292007,86.311096 140.292007C85.518402 140.292007,84.758255 140.606949,84.197784 141.167435C83.637299 141.727905,83.322357 142.488052,83.322357 143.280746C83.322357 144.073441,83.637299 144.833588,84.197784 145.394058C84.758255 145.954544,85.518402 146.269485,86.311096 146.269485C87.103790 146.269485,87.863937 145.954544,88.424408 145.394058C88.984894 144.833588,89.299835 144.073441,89.299835 143.280746Z" style="fill: rgb(100.000000%,100.000000%,100.000000%);stroke: none;"></path>
  <path d="M87.405869 147.123413C87.405869 146.330719,87.090927 145.570572,86.530441 145.010101C85.969971 144.449615,85.209824 144.134674,84.417130 144.134674C83.624435 144.134674,82.864288 144.449615,82.303818 145.010101C81.743332 145.570572,81.428391 146.330719,81.428391 147.123413C81.428391 147.916107,81.743332 148.676254,82.303818 149.236725C82.864288 149.797211,83.624435 150.112152,84.417130 150.112152C85.209824 150.112152,85.969971 149.797211,86.530441 149.236725C87.090927 148.676254,87.405869 147.916107,87.405869 147.123413Z" style="fill: rgb(100.000000%,100.000000%,100.000000%);stroke: none;"></path>
  <path d="M89.395493 133.859253C89.395493 133.066559,89.080551 132.306412,88.520065 131.745941C87.959595 131.185455,87.199448 130.870514,86.406754 130.870514C85.614059 130.870514,84.853912 131.185455,84.293442 131.745941C83.732956 132.306412,83.418015 133.066559,83.418015 133.859253C83.418015 134.651947,83.732956 135.412094,84.293442 135.972565C84.853912 136.533051,85.614059 136.847992,86.406754 136.847992C87.199448 136.847992,87.959595 136.533051,88.520065 135.972565C89.080551 135.412094,89.395493 134.651947,89.395493 133.859253Z" style="fill: rgb(100.000000%,100.000000%,100.000000%);stroke: none;"></path>
  <path d="M91.090347 140.589081C91.090347 139.796387,90.775406 139.036240,90.214920 138.475769C89.654449 137.915283,88.894302 137.600342,88.101608 137.600342C87.308914 137.600342,86.548767 137.915283,85.988297 138.475769C85.427811 139.036240,85.112869 139.796387,85.112869 140.589081C85.112869 141.381775,85.427811 142.141922,85.988297 142.702393C86.548767 143.262878,87.308914 143.577820,88.101608 143.577820C88.894302 143.577820,89.654449 143.262878,90.214920 142.702393C90.775406 142.141922,91.090347 141.381775,91.090347 140.589081Z" style="fill: rgb(100.000000%,100.000000%,100.000000%);stroke: none;"></path>
  <path d="M74.222397 129.471756C74.222397 128.679062,73.907455 127.918915,73.346970 127.358444C72.786499 126.797958,72.026352 126.483017,71.233658 126.483017C70.440964 126.483017,69.680817 126.797958,69.120346 127.358444C68.559860 127.918915,68.244919 128.679062,68.244919 129.471756C68.244919 130.264450,68.559860 131.024597,69.120346 131.585068C69.680817 132.145554,70.440964 132.460495,71.233658 132.460495C72.026352 132.460495,72.786499 132.145554,73.346970 131.585068C73.907455 131.024597,74.222397 130.264450,74.222397 129.471756Z" style="fill: rgb(100.000000%,100.000000%,100.000000%);stroke: none;"></path>
  <path d="M85.054428 132.579468C85.054428 131.786774,84.739487 131.026627,84.179001 130.466156C83.618530 129.905670,82.858383 129.590729,82.065689 129.590729C81.272995 129.590729,80.512848 129.905670,79.952377 130.466156C79.391891 131.026627,79.076950 131.786774,79.076950 132.579468C79.076950 133.372162,79.391891 134.132309,79.952377 134.692780C80.512848 135.253265,81.272995 135.568207,82.065689 135.568207C82.858383 135.568207,83.618530 135.253265,84.179001 134.692780C84.739487 134.132309,85.054428 133.372162,85.054428 132.579468Z" style="fill: rgb(100.000000%,100.000000%,100.000000%);stroke: none;"></path>
  <path d="M47.479065 120.241669C47.479065 119.448975,47.164124 118.688828,46.603638 118.128357C46.043167 117.567871,45.283020 117.252930,44.490326 117.252930C43.697632 117.252930,42.937485 117.567871,42.377014 118.128357C41.816528 118.688828,41.501587 119.448975,41.501587 120.241669C41.501587 121.034363,41.816528 121.794510,42.377014 122.354980C42.937485 122.915466,43.697632 123.230408,44.490326 123.230408C45.283020 123.230408,46.043167 122.915466,46.603638 122.354980C47.164124 121.794510,47.479065 121.034363,47.479065 120.241669Z" style="fill: rgb(100.000000%,100.000000%,100.000000%);stroke: none;"></path>
  <path d="M67.727341 126.217987C67.727341 125.425293,67.412399 124.665146,66.851913 124.104675C66.291443 123.544189,65.531296 123.229248,64.738602 123.229248C63.945908 123.229248,63.185760 123.544189,62.625290 124.104675C62.064804 124.665146,61.749863 125.425293,61.749863 126.217987C61.749863 127.010681,62.064804 127.770828,62.625290 128.331299C63.185760 128.891785,63.945908 129.206726,64.738602 129.206726C65.531296 129.206726,66.291443 128.891785,66.851913 128.331299C67.412399 127.770828,67.727341 127.010681,67.727341 126.217987Z" style="fill: rgb(100.000000%,100.000000%,100.000000%);stroke: none;"></path>
  <path d="M5.292297 98.065964C5.292297 97.273270,4.977356 96.513123,4.416870 95.952652C3.856400 95.392166,3.096252 95.077225,2.303558 95.077225C1.510864 95.077225,0.750717 95.392166,0.190247 95.952652C-0.370239 96.513123,-0.685181 97.273270,-0.685181 98.065964C-0.685181 98.858658,-0.370239 99.618805,0.190247 100.179276C0.750717 100.739761,1.510864 101.054703,2.303558 101.054703C3.096252 101.054703,3.856400 100.739761,4.416870 100.179276C4.977356 99.618805,5.292297 98.858658,5.292297 98.065964Z" style="fill: rgb(100.000000%,100.000000%,100.000000%);stroke: none;"></path>
  <path d="M32.420868 120.622101C32.420868 119.829407,32.105927 119.069260,31.545441 118.508789C30.984970 117.948303,30.224823 117.633362,29.432129 117.633362C28.639435 117.633362,27.879288 117.948303,27.318817 118.508789C26.758331 119.069260,26.443390 119.829407,26.443390 120.622101C26.443390 121.414795,26.758331 122.174942,27.318817 122.735413C27.879288 123.295898,28.639435 123.610840,29.432129 123.610840C30.224823 123.610840,30.984970 123.295898,31.545441 122.735413C32.105927 122.174942,32.420868 121.414795,32.420868 120.622101Z" style="fill: rgb(100.000000%,100.000000%,100.000000%);stroke: none;"></path>
  <path d="M25.398438 36.307816C25.398438 35.515121,25.083496 34.754974,24.523010 34.194504C23.962540 33.634018,23.202393 33.319077,22.409698 33.319077C21.617004 33.319077,20.856857 33.634018,20.296387 34.194504C19.735901 34.754974,19.420959 35.515121,19.420959 36.307816C19.420959 37.100510,19.735901 37.860657,20.296387 38.421127C20.856857 38.981613,21.617004 39.296555,22.409698 39.296555C23.202393 39.296555,23.962540 38.981613,24.523010 38.421127C25.083496 37.860657,25.398438 37.100510,25.398438 36.307816Z" style="fill: rgb(100.000000%,100.000000%,100.000000%);stroke: none;"></path>
  <path d="M7.087006 73.703964C7.087006 72.911270,6.772064 72.151123,6.211578 71.590652C5.651108 71.030167,4.890961 70.715225,4.098267 70.715225C3.305573 70.715225,2.545425 71.030167,1.984955 71.590652C1.424469 72.151123,1.109528 72.911270,1.109528 73.703964C1.109528 74.496658,1.424469 75.256805,1.984955 75.817276C2.545425 76.377762,3.305573 76.692703,4.098267 76.692703C4.890961 76.692703,5.651108 76.377762,6.211578 75.817276C6.772064 75.256805,7.087006 74.496658,7.087006 73.703964Z" style="fill: rgb(100.000000%,100.000000%,100.000000%);stroke: none;"></path>
  <path d="M69.569717 21.961487C69.569717 21.168793,69.254776 20.408646,68.694290 19.848175C68.133820 19.287689,67.373672 18.972748,66.580978 18.972748C65.788284 18.972748,65.028137 19.287689,64.467667 19.848175C63.907181 20.408646,63.592239 21.168793,63.592239 21.961487C63.592239 22.754181,63.907181 23.514328,64.467667 24.074799C65.028137 24.635284,65.788284 24.950226,66.580978 24.950226C67.373672 24.950226,68.133820 24.635284,68.694290 24.074799C69.254776 23.514328,69.569717 22.754181,69.569717 21.961487Z" style="fill: rgb(100.000000%,100.000000%,100.000000%);stroke: none;"></path>
  <path d="M39.812653 21.302338C39.812653 20.509644,39.497711 19.749496,38.937225 19.189026C38.376755 18.628540,37.616608 18.313599,36.823914 18.313599C36.031219 18.313599,35.271072 18.628540,34.710602 19.189026C34.150116 19.749496,33.835175 20.509644,33.835175 21.302338C33.835175 22.095032,34.150116 22.855179,34.710602 23.415649C35.271072 23.976135,36.031219 24.291077,36.823914 24.291077C37.616608 24.291077,38.376755 23.976135,38.937225 23.415649C39.497711 22.855179,39.812653 22.095032,39.812653 21.302338Z" style="fill: rgb(100.000000%,100.000000%,100.000000%);stroke: none;"></path>
  <path d="M80.563797 43.923553C80.563797 43.130859,80.248856 42.370712,79.688370 41.810242C79.127899 41.249756,78.367752 40.934814,77.575058 40.934814C76.782364 40.934814,76.022217 41.249756,75.461746 41.810242C74.901260 42.370712,74.586319 43.130859,74.586319 43.923553C74.586319 44.716248,74.901260 45.476395,75.461746 46.036865C76.022217 46.597351,76.782364 46.912292,77.575058 46.912292C78.367752 46.912292,79.127899 46.597351,79.688370 46.036865C80.248856 45.476395,80.563797 44.716248,80.563797 43.923553Z" style="fill: rgb(100.000000%,100.000000%,100.000000%);stroke: none;"></path>
  <path d="M79.659836 28.680496C79.659836 27.887802,79.344894 27.127655,78.784409 26.567184C78.223938 26.006699,77.463791 25.691757,76.671097 25.691757C75.878403 25.691757,75.118256 26.006699,74.557785 26.567184C73.997299 27.127655,73.682358 27.887802,73.682358 28.680496C73.682358 29.473190,73.997299 30.233337,74.557785 30.793808C75.118256 31.354294,75.878403 31.669235,76.671097 31.669235C77.463791 31.669235,78.223938 31.354294,78.784409 30.793808C79.344894 30.233337,79.659836 29.473190,79.659836 28.680496Z" style="fill: rgb(100.000000%,100.000000%,100.000000%);stroke: none;"></path>
  <path d="M74.323792 57.070587C74.323792 56.277893,74.008850 55.517746,73.448364 54.957275C72.887894 54.396790,72.127747 54.081848,71.335052 54.081848C70.542358 54.081848,69.782211 54.396790,69.221741 54.957275C68.661255 55.517746,68.346313 56.277893,68.346313 57.070587C68.346313 57.863281,68.661255 58.623428,69.221741 59.183899C69.782211 59.744385,70.542358 60.059326,71.335052 60.059326C72.127747 60.059326,72.887894 59.744385,73.448364 59.183899C74.008850 58.623428,74.323792 57.863281,74.323792 57.070587Z" style="fill: rgb(100.000000%,100.000000%,100.000000%);stroke: none;"></path>
  <path d="M78.338242 48.435837C78.338242 47.643143,78.023300 46.882996,77.462814 46.322525C76.902344 45.762039,76.142197 45.447098,75.349503 45.447098C74.556808 45.447098,73.796661 45.762039,73.236191 46.322525C72.675705 46.882996,72.360764 47.643143,72.360764 48.435837C72.360764 49.228531,72.675705 49.988678,73.236191 50.549149C73.796661 51.109634,74.556808 51.424576,75.349503 51.424576C76.142197 51.424576,76.902344 51.109634,77.462814 50.549149C78.023300 49.988678,78.338242 49.228531,78.338242 48.435837Z" style="fill: rgb(100.000000%,100.000000%,100.000000%);stroke: none;"></path>
  <path d="M72.921722 70.908005C72.921722 70.115311,72.606781 69.355164,72.046295 68.794693C71.485825 68.234207,70.725677 67.919266,69.932983 67.919266C69.140289 67.919266,68.380142 68.234207,67.819672 68.794693C67.259186 69.355164,66.944244 70.115311,66.944244 70.908005C66.944244 71.700699,67.259186 72.460846,67.819672 73.021317C68.380142 73.581802,69.140289 73.896744,69.932983 73.896744C70.725677 73.896744,71.485825 73.581802,72.046295 73.021317C72.606781 72.460846,72.921722 71.700699,72.921722 70.908005Z" style="fill: rgb(100.000000%,100.000000%,100.000000%);stroke: none;"></path>
  <path d="M72.476913 61.479675C72.476913 60.686981,72.161972 59.926834,71.601486 59.366364C71.041016 58.805878,70.280869 58.490936,69.488174 58.490936C68.695480 58.490936,67.935333 58.805878,67.374863 59.366364C66.814377 59.926834,66.499435 60.686981,66.499435 61.479675C66.499435 62.272369,66.814377 63.032516,67.374863 63.592987C67.935333 64.153473,68.695480 64.468414,69.488174 64.468414C70.280869 64.468414,71.041016 64.153473,71.601486 63.592987C72.161972 63.032516,72.476913 62.272369,72.476913 61.479675Z" style="fill: rgb(100.000000%,100.000000%,100.000000%);stroke: none;"></path>
  <path d="M79.679321 84.072464C79.679321 83.279770,79.364380 82.519623,78.803894 81.959152C78.243423 81.398666,77.483276 81.083725,76.690582 81.083725C75.897888 81.083725,75.137741 81.398666,74.577271 81.959152C74.016785 82.519623,73.701843 83.279770,73.701843 84.072464C73.701843 84.865158,74.016785 85.625305,74.577271 86.185776C75.137741 86.746262,75.897888 87.061203,76.690582 87.061203C77.483276 87.061203,78.243423 86.746262,78.803894 86.185776C79.364380 85.625305,79.679321 84.865158,79.679321 84.072464Z" style="fill: rgb(100.000000%,100.000000%,100.000000%);stroke: none;"></path>
  <path d="M75.272141 75.192612C75.272141 74.399918,74.957199 73.639771,74.396713 73.079300C73.836243 72.518814,73.076096 72.203873,72.283401 72.203873C71.490707 72.203873,70.730560 72.518814,70.170090 73.079300C69.609604 73.639771,69.294662 74.399918,69.294662 75.192612C69.294662 75.985306,69.609604 76.745453,70.170090 77.305923C70.730560 77.866409,71.490707 78.181351,72.283401 78.181351C73.076096 78.181351,73.836243 77.866409,74.396713 77.305923C74.957199 76.745453,75.272141 75.985306,75.272141 75.192612Z" style="fill: rgb(100.000000%,100.000000%,100.000000%);stroke: none;"></path>
  <path d="M90.017426 95.976898C90.017426 95.184204,89.702484 94.424057,89.141998 93.863586C88.581528 93.303101,87.821381 92.988159,87.028687 92.988159C86.235992 92.988159,85.475845 93.303101,84.915375 93.863586C84.354889 94.424057,84.039948 95.184204,84.039948 95.976898C84.039948 96.769592,84.354889 97.529739,84.915375 98.090210C85.475845 98.650696,86.235992 98.965637,87.028687 98.965637C87.821381 98.965637,88.581528 98.650696,89.141998 98.090210C89.702484 97.529739,90.017426 96.769592,90.017426 95.976898Z" style="fill: rgb(100.000000%,100.000000%,100.000000%);stroke: none;"></path>
  <path d="M81.814087 88.916077C81.814087 88.123383,81.499146 87.363235,80.938660 86.802765C80.378189 86.242279,79.618042 85.927338,78.825348 85.927338C78.032654 85.927338,77.272507 86.242279,76.712036 86.802765C76.151550 87.363235,75.836609 88.123383,75.836609 88.916077C75.836609 89.708771,76.151550 90.468918,76.712036 91.029388C77.272507 91.589874,78.032654 91.904816,78.825348 91.904816C79.618042 91.904816,80.378189 91.589874,80.938660 91.029388C81.499146 90.468918,81.814087 89.708771,81.814087 88.916077Z" style="fill: rgb(100.000000%,100.000000%,100.000000%);stroke: none;"></path>
  <path d="M110.172684 101.662430C110.172684 100.869736,109.857742 100.109589,109.297256 99.549118C108.736786 98.988632,107.976639 98.673691,107.183945 98.673691C106.391251 98.673691,105.631104 98.988632,105.070633 99.549118C104.510147 100.109589,104.195206 100.869736,104.195206 101.662430C104.195206 102.455124,104.510147 103.215271,105.070633 103.775742C105.631104 104.336227,106.391251 104.651169,107.183945 104.651169C107.976639 104.651169,108.736786 104.336227,109.297256 103.775742C109.857742 103.215271,110.172684 102.455124,110.172684 101.662430Z" style="fill: rgb(100.000000%,100.000000%,100.000000%);stroke: none;"></path>
  <path d="M95.681931 97.280991C95.681931 96.488297,95.366989 95.728149,94.806503 95.167679C94.246033 94.607193,93.485886 94.292252,92.693192 94.292252C91.900497 94.292252,91.140350 94.607193,90.579880 95.167679C90.019394 95.728149,89.704453 96.488297,89.704453 97.280991C89.704453 98.073685,90.019394 98.833832,90.579880 99.394302C91.140350 99.954788,91.900497 100.269730,92.693192 100.269730C93.485886 100.269730,94.246033 99.954788,94.806503 99.394302C95.366989 98.833832,95.681931 98.073685,95.681931 97.280991Z" style="fill: rgb(100.000000%,100.000000%,100.000000%);stroke: none;"></path>
  <path d="M143.495300 113.876801C143.495300 113.084106,143.180359 112.323959,142.619873 111.763489C142.059402 111.203003,141.299255 110.888062,140.506561 110.888062C139.713867 110.888062,138.953720 111.203003,138.393250 111.763489C137.832764 112.323959,137.517822 113.084106,137.517822 113.876801C137.517822 114.669495,137.832764 115.429642,138.393250 115.990112C138.953720 116.550598,139.713867 116.865540,140.506561 116.865540C141.299255 116.865540,142.059402 116.550598,142.619873 115.990112C143.180359 115.429642,143.495300 114.669495,143.495300 113.876801Z" style="fill: rgb(100.000000%,100.000000%,100.000000%);stroke: none;"></path>
  <path d="M118.869644 105.568604C118.869644 104.775909,118.554703 104.015762,117.994217 103.455292C117.433746 102.894806,116.673599 102.579865,115.880905 102.579865C115.088211 102.579865,114.328064 102.894806,113.767593 103.455292C113.207108 104.015762,112.892166 104.775909,112.892166 105.568604C112.892166 106.361298,113.207108 107.121445,113.767593 107.681915C114.328064 108.242401,115.088211 108.557343,115.880905 108.557343C116.673599 108.557343,117.433746 108.242401,117.994217 107.681915C118.554703 107.121445,118.869644 106.361298,118.869644 105.568604Z" style="fill: rgb(100.000000%,100.000000%,100.000000%);stroke: none;"></path>
  <path d="M193.146545 99.835541C193.146545 99.042847,192.831604 98.282700,192.271118 97.722229C191.710648 97.161743,190.950500 96.846802,190.157806 96.846802C189.365112 96.846802,188.604965 97.161743,188.044495 97.722229C187.484009 98.282700,187.169067 99.042847,187.169067 99.835541C187.169067 100.628235,187.484009 101.388382,188.044495 101.948853C188.604965 102.509338,189.365112 102.824280,190.157806 102.824280C190.950500 102.824280,191.710648 102.509338,192.271118 101.948853C192.831604 101.388382,193.146545 100.628235,193.146545 99.835541Z" style="fill: rgb(100.000000%,100.000000%,100.000000%);stroke: none;"></path>
  <path d="M160.603485 116.358047C160.603485 115.565353,160.288544 114.805206,159.728058 114.244736C159.167587 113.684250,158.407440 113.369308,157.614746 113.369308C156.822052 113.369308,156.061905 113.684250,155.501434 114.244736C154.940948 114.805206,154.626007 115.565353,154.626007 116.358047C154.626007 117.150742,154.940948 117.910889,155.501434 118.471359C156.061905 119.031845,156.822052 119.346786,157.614746 119.346786C158.407440 119.346786,159.167587 119.031845,159.728058 118.471359C160.288544 117.910889,160.603485 117.150742,160.603485 116.358047Z" style="fill: rgb(100.000000%,100.000000%,100.000000%);stroke: none;"></path>
  <path d="M189.431625 41.824402C189.431625 41.031708,189.116684 40.271561,188.556198 39.711090C187.995728 39.150604,187.235580 38.835663,186.442886 38.835663C185.650192 38.835663,184.890045 39.150604,184.329575 39.711090C183.769089 40.271561,183.454147 41.031708,183.454147 41.824402C183.454147 42.617096,183.769089 43.377243,184.329575 43.937714C184.890045 44.498199,185.650192 44.813141,186.442886 44.813141C187.235580 44.813141,187.995728 44.498199,188.556198 43.937714C189.116684 43.377243,189.431625 42.617096,189.431625 41.824402Z" style="fill: rgb(100.000000%,100.000000%,100.000000%);stroke: none;"></path>
  <path d="M201.744888 79.059433C201.744888 78.266739,201.429947 77.506592,200.869461 76.946121C200.308990 76.385635,199.548843 76.070694,198.756149 76.070694C197.963455 76.070694,197.203308 76.385635,196.642838 76.946121C196.082352 77.506592,195.767410 78.266739,195.767410 79.059433C195.767410 79.852127,196.082352 80.612274,196.642838 81.172745C197.203308 81.733231,197.963455 82.048172,198.756149 82.048172C199.548843 82.048172,200.308990 81.733231,200.869461 81.172745C201.429947 80.612274,201.744888 79.852127,201.744888 79.059433Z" style="fill: rgb(100.000000%,100.000000%,100.000000%);stroke: none;"></path>
  <path d="M139.109879 36.294815C139.109879 35.502121,138.794937 34.741974,138.234451 34.181503C137.673981 33.621017,136.913834 33.306076,136.121140 33.306076C135.328445 33.306076,134.568298 33.621017,134.007828 34.181503C133.447342 34.741974,133.132401 35.502121,133.132401 36.294815C133.132401 37.087509,133.447342 37.847656,134.007828 38.408127C134.568298 38.968613,135.328445 39.283554,136.121140 39.283554C136.913834 39.283554,137.673981 38.968613,138.234451 38.408127C138.794937 37.847656,139.109879 37.087509,139.109879 36.294815Z" style="fill: rgb(100.000000%,100.000000%,100.000000%);stroke: none;"></path>
  <path d="M171.286209 30.397217C171.286209 29.604523,170.971268 28.844376,170.410782 28.283905C169.850311 27.723419,169.090164 27.408478,168.297470 27.408478C167.504776 27.408478,166.744629 27.723419,166.184158 28.283905C165.623672 28.844376,165.308731 29.604523,165.308731 30.397217C165.308731 31.189911,165.623672 31.950058,166.184158 32.510529C166.744629 33.071014,167.504776 33.385956,168.297470 33.385956C169.090164 33.385956,169.850311 33.071014,170.410782 32.510529C170.971268 31.950058,171.286209 31.189911,171.286209 30.397217Z" style="fill: rgb(100.000000%,100.000000%,100.000000%);stroke: none;"></path>
  <path d="M111.919037 59.232956C111.919037 58.440262,111.604095 57.680115,111.043610 57.119644C110.483139 56.559158,109.722992 56.244217,108.930298 56.244217C108.137604 56.244217,107.377457 56.559158,106.816986 57.119644C106.256500 57.680115,105.941559 58.440262,105.941559 59.232956C105.941559 60.025650,106.256500 60.785797,106.816986 61.346268C107.377457 61.906754,108.137604 62.221695,108.930298 62.221695C109.722992 62.221695,110.483139 61.906754,111.043610 61.346268C111.604095 60.785797,111.919037 60.025650,111.919037 59.232956Z" style="fill: rgb(100.000000%,100.000000%,100.000000%);stroke: none;"></path>
  <path d="M128.881302 46.253418C128.881302 45.460724,128.566360 44.700577,128.005875 44.140106C127.445404 43.579620,126.685257 43.264679,125.892563 43.264679C125.099869 43.264679,124.339722 43.579620,123.779251 44.140106C123.218765 44.700577,122.903824 45.460724,122.903824 46.253418C122.903824 47.046112,123.218765 47.806259,123.779251 48.366730C124.339722 48.927216,125.099869 49.242157,125.892563 49.242157C126.685257 49.242157,127.445404 48.927216,128.005875 48.366730C128.566360 47.806259,128.881302 47.046112,128.881302 46.253418Z" style="fill: rgb(100.000000%,100.000000%,100.000000%);stroke: none;"></path>
  <path d="M95.423508 69.796844C95.423508 69.004150,95.108566 68.244003,94.548080 67.683533C93.987610 67.123047,93.227463 66.808105,92.434769 66.808105C91.642075 66.808105,90.881927 67.123047,90.321457 67.683533C89.760971 68.244003,89.446030 69.004150,89.446030 69.796844C89.446030 70.589539,89.760971 71.349686,90.321457 71.910156C90.881927 72.470642,91.642075 72.785583,92.434769 72.785583C93.227463 72.785583,93.987610 72.470642,94.548080 71.910156C95.108566 71.349686,95.423508 70.589539,95.423508 69.796844Z" style="fill: rgb(100.000000%,100.000000%,100.000000%);stroke: none;"></path>
  <path d="M105.428528 63.449753C105.428528 62.657059,105.113586 61.896912,104.553101 61.336441C103.992630 60.775955,103.232483 60.461014,102.439789 60.461014C101.647095 60.461014,100.886948 60.775955,100.326477 61.336441C99.765991 61.896912,99.451050 62.657059,99.451050 63.449753C99.451050 64.242447,99.765991 65.002594,100.326477 65.563065C100.886948 66.123550,101.647095 66.438492,102.439789 66.438492C103.232483 66.438492,103.992630 66.123550,104.553101 65.563065C105.113586 65.002594,105.428528 64.242447,105.428528 63.449753Z" style="fill: rgb(100.000000%,100.000000%,100.000000%);stroke: none;"></path>
  <path d="M84.750671 75.927963C84.750671 75.135269,84.435730 74.375122,83.875244 73.814651C83.314774 73.254166,82.554626 72.939224,81.761932 72.939224C80.969238 72.939224,80.209091 73.254166,79.648621 73.814651C79.088135 74.375122,78.773193 75.135269,78.773193 75.927963C78.773193 76.720657,79.088135 77.480804,79.648621 78.041275C80.209091 78.601761,80.969238 78.916702,81.761932 78.916702C82.554626 78.916702,83.314774 78.601761,83.875244 78.041275C84.435730 77.480804,84.750671 76.720657,84.750671 75.927963Z" style="fill: rgb(100.000000%,100.000000%,100.000000%);stroke: none;"></path>
  <path d="M91.934799 71.981979C91.934799 71.189285,91.619858 70.429138,91.059372 69.868668C90.498901 69.308182,89.738754 68.993240,88.946060 68.993240C88.153366 68.993240,87.393219 69.308182,86.832748 69.868668C86.272263 70.429138,85.957321 71.189285,85.957321 71.981979C85.957321 72.774673,86.272263 73.534821,86.832748 74.095291C87.393219 74.655777,88.153366 74.970718,88.946060 74.970718C89.738754 74.970718,90.498901 74.655777,91.059372 74.095291C91.619858 73.534821,91.934799 72.774673,91.934799 71.981979Z" style="fill: rgb(100.000000%,100.000000%,100.000000%);stroke: none;"></path>
  <path d="M70.551865 82.733551C70.551865 81.940857,70.236923 81.180710,69.676437 80.620239C69.115967 80.059753,68.355820 79.744812,67.563126 79.744812C66.770432 79.744812,66.010284 80.059753,65.449814 80.620239C64.889328 81.180710,64.574387 81.940857,64.574387 82.733551C64.574387 83.526245,64.889328 84.286392,65.449814 84.846863C66.010284 85.407349,66.770432 85.722290,67.563126 85.722290C68.355820 85.722290,69.115967 85.407349,69.676437 84.846863C70.236923 84.286392,70.551865 83.526245,70.551865 82.733551Z" style="fill: rgb(100.000000%,100.000000%,100.000000%);stroke: none;"></path>
  <path d="M81.066086 77.687195C81.066086 76.894501,80.751144 76.134354,80.190659 75.573883C79.630188 75.013397,78.870041 74.698456,78.077347 74.698456C77.284653 74.698456,76.524506 75.013397,75.964035 75.573883C75.403549 76.134354,75.088608 76.894501,75.088608 77.687195C75.088608 78.479889,75.403549 79.240036,75.964035 79.800507C76.524506 80.360992,77.284653 80.675934,78.077347 80.675934C78.870041 80.675934,79.630188 80.360992,80.190659 79.800507C80.751144 79.240036,81.066086 78.479889,81.066086 77.687195Z" style="fill: rgb(100.000000%,100.000000%,100.000000%);stroke: none;"></path>
  <path d="M43.448883 94.439392C43.448883 93.646698,43.133942 92.886551,42.573456 92.326080C42.012985 91.765594,41.252838 91.450653,40.460144 91.450653C39.667450 91.450653,38.907303 91.765594,38.346832 92.326080C37.786346 92.886551,37.471405 93.646698,37.471405 94.439392C37.471405 95.232086,37.786346 95.992233,38.346832 96.552704C38.907303 97.113190,39.667450 97.428131,40.460144 97.428131C41.252838 97.428131,42.012985 97.113190,42.573456 96.552704C43.133942 95.992233,43.448883 95.232086,43.448883 94.439392Z" style="fill: rgb(100.000000%,100.000000%,100.000000%);stroke: none;"></path>
  <path d="M63.726334 86.041306C63.726334 85.248611,63.411392 84.488464,62.850906 83.927994C62.290436 83.367508,61.530289 83.052567,60.737595 83.052567C59.944901 83.052567,59.184753 83.367508,58.624283 83.927994C58.063797 84.488464,57.748856 85.248611,57.748856 86.041306C57.748856 86.834000,58.063797 87.594147,58.624283 88.154617C59.184753 88.715103,59.944901 89.030045,60.737595 89.030045C61.530289 89.030045,62.290436 88.715103,62.850906 88.154617C63.411392 87.594147,63.726334 86.834000,63.726334 86.041306Z" style="fill: rgb(100.000000%,100.000000%,100.000000%);stroke: none;"></path>
  <path d="M10.935318 130.119003C10.935318 129.326309,10.620377 128.566162,10.059891 128.005692C9.499420 127.445206,8.739273 127.130264,7.946579 127.130264C7.153885 127.130264,6.393738 127.445206,5.833267 128.005692C5.272781 128.566162,4.957840 129.326309,4.957840 130.119003C4.957840 130.911697,5.272781 131.671844,5.833267 132.232315C6.393738 132.792801,7.153885 133.107742,7.946579 133.107742C8.739273 133.107742,9.499420 132.792801,10.059891 132.232315C10.620377 131.671844,10.935318 130.911697,10.935318 130.119003Z" style="fill: rgb(100.000000%,100.000000%,100.000000%);stroke: none;"></path>
  <path d="M28.852066 99.191467C28.852066 98.398773,28.537125 97.638626,27.976639 97.078156C27.416168 96.517670,26.656021 96.202728,25.863327 96.202728C25.070633 96.202728,24.310486 96.517670,23.750015 97.078156C23.189529 97.638626,22.874588 98.398773,22.874588 99.191467C22.874588 99.984161,23.189529 100.744308,23.750015 101.304779C24.310486 101.865265,25.070633 102.180206,25.863327 102.180206C26.656021 102.180206,27.416168 101.865265,27.976639 101.304779C28.537125 100.744308,28.852066 99.984161,28.852066 99.191467Z" style="fill: rgb(100.000000%,100.000000%,100.000000%);stroke: none;"></path>
  <path d="M30.028320 170.508072C41.339630 189.720261,66.496628 195.437012,85.000000 183.000000C95.145004 176.181046,100.565918 163.788498,94.389221 154.234589C92.095078 150.686081,88.382172 148.451599,85.000000 145.940826C84.016754 145.210907,82.942200 144.442551,81.748245 144.681580C80.586029 144.914246,79.891113 145.990631,79.266006 147.004425C77.369537 150.080078,75.235733 153.053467,74.097076 156.488693C70.768127 166.531845,75.899811 177.195587,85.000000 183.000000C103.822418 195.005585,127.092560 184.290222,145.444260 169.770645C165.627014 153.802383,182.198502 130.944519,172.267395 108.918716C166.250580 95.574280,150.706619 88.203690,147.060562 73.847260C143.696060 60.599487,152.213486 47.188354,149.580475 33.827850C145.735428 14.317200,124.286957 6.011353,103.324554 4.472656C84.822769 3.114578,64.993790 6.242569,55.628067 21.718872C49.958160 31.088058,50.648331 43.238770,59.250626 49.122025C63.325623 51.908997,68.403397 52.328964,73.299881 52.844406C77.987823 53.337906,82.773453 54.025558,86.707565 56.638504C90.732559 59.311798,93.232330 63.586884,95.909302 67.592636C98.965897 72.166458,102.440826 76.709717,103.021103 82.198807C103.646988 88.119324,100.785843 93.619873,98.086884 98.911835C95.061157 104.844498,92.190430 110.864258,88.736923 116.559937C85.575714 121.773529,81.946930 126.681717,78.159576 131.458801C75.896515 134.313248,73.568283 137.518173,74.466492 141.004837C75.122833 143.552628,77.362930 145.204803,79.266006 147.004425C80.205124 147.892487,81.237076 148.865372,82.495239 148.647034C83.777344 148.424545,84.417130 147.123413,85.000000 145.940826C86.311096 143.280746,88.101608 140.589081,87.375443 137.705658C86.406754 133.859253,82.065689 132.579468,78.159576 131.458801C71.233658 129.471756,64.738602 126.217987,57.828384 124.178421C44.490326 120.241669,29.432129 120.622101,18.644409 111.652618C2.303558 98.065964,4.098267 73.703964,13.931778 53.621674C22.409698 36.307816,36.823914 21.302338,55.628067 21.718872C66.580978 21.961487,76.671097 28.680496,77.286469 39.057144C77.575058 43.923553,75.349503 48.435837,73.299881 52.844406C71.335052 57.070587,69.488174 61.479675,69.708221 66.143890C69.932983 70.908005,72.283401 75.192612,74.397949 79.453140C76.690582 84.072464,78.825348 88.916077,82.744492 92.289383C87.028687 95.976898,92.693192 97.280991,98.086884 98.911835C107.183945 101.662430,115.880905 105.568604,124.884720 108.606308C140.506561 113.876801,157.614746 116.358047,172.267395 108.918716C190.157806 99.835541,198.756149 79.059433,192.459122 60.017380C186.442886 41.824402,168.297470 30.397217,149.580475 33.827850C136.121140 36.294815,125.892563 46.253418,115.072891 54.532639C108.930298 59.232956,102.439789 63.449753,95.909302 67.592636C92.434769 69.796844,88.946060 71.981979,85.339325 73.963028C81.761932 75.927963,78.077347 77.687195,74.397949 79.453140C67.563126 82.733551,60.737595 86.041306,53.732803 88.942398C40.460144 94.439392,25.863327 99.191467,18.644409 111.652618C7.946579 130.119003,18.920044 151.640747,30.028320 170.508072" style="stroke:rgb(0.000000%,0.000000%,0.000000%); stroke-width: 0.498138;stroke-linecap: round;stroke-linejoin: round;stroke-miterlimit: 10.000000;fill: none;"></path>
  <path d="M30.028320 170.508072C41.339630 189.720261,66.496628 195.437012,85.000000 183.000000" style="stroke:rgb(0.000000%,0.000000%,0.000000%); stroke-width: 1.494400;stroke-linecap: round;stroke-linejoin: round;stroke-miterlimit: 10.000000;fill: none;"></path>
  <path d="M74.397949 79.453140C67.563126 82.733551,60.737595 86.041306,53.732803 88.942398C40.460144 94.439392,25.863327 99.191467,18.644409 111.652618C7.946579 130.119003,18.920044 151.640747,30.028320 170.508072" style="stroke:rgb(0.000000%,0.000000%,0.000000%); stroke-width: 1.494400;stroke-linecap: round;stroke-linejoin: round;stroke-miterlimit: 10.000000;fill: none;"></path>
  <path d="M87.988739 183.000000C87.988739 182.207306,87.673798 181.447159,87.113312 180.886688C86.552841 180.326202,85.792694 180.011261,85.000000 180.011261C84.207306 180.011261,83.447159 180.326202,82.886688 180.886688C82.326202 181.447159,82.011261 182.207306,82.011261 183.000000C82.011261 183.792694,82.326202 184.552841,82.886688 185.113312C83.447159 185.673798,84.207306 185.988739,85.000000 185.988739C85.792694 185.988739,86.552841 185.673798,87.113312 185.113312C87.673798 184.552841,87.988739 183.792694,87.988739 183.000000Z" style="fill: rgb(100.000000%,100.000000%,100.000000%);stroke: none;"></path>
  <path d="M74.887619 171.333878C76.891937 175.980759,80.449905 180.097794,85.000000 183.000000C94.411209 189.002792,104.934357 189.325348,115.398666 186.332245" style="stroke:rgb(0.000000%,0.000000%,0.000000%); stroke-width: 0.498138;stroke-linecap: round;stroke-linejoin: round;stroke-miterlimit: 10.000000;fill: none;"></path>
  <path d="M82.254745 147.004425C82.254745 146.211731,81.939804 145.451584,81.379318 144.891113C80.818848 144.330627,80.058701 144.015686,79.266006 144.015686C78.473312 144.015686,77.713165 144.330627,77.152695 144.891113C76.592209 145.451584,76.277267 146.211731,76.277267 147.004425C76.277267 147.797119,76.592209 148.557266,77.152695 149.117737C77.713165 149.678223,78.473312 149.993164,79.266006 149.993164C80.058701 149.993164,80.818848 149.678223,81.379318 149.117737C81.939804 148.557266,82.254745 147.797119,82.254745 147.004425Z" style="fill: rgb(100.000000%,100.000000%,100.000000%);stroke: none;"></path>
  <path d="M76.398743 144.285202C77.278687 145.241669,78.314468 146.104614,79.266006 147.004425C79.735565 147.448456,80.228333 147.913696,80.760986 148.240631" style="stroke:rgb(0.000000%,0.000000%,0.000000%); stroke-width: 0.498138;stroke-linecap: round;stroke-linejoin: round;stroke-miterlimit: 10.000000;fill: none;"></path>
  <path d="M175.256134 108.918716C175.256134 108.126022,174.941193 107.365875,174.380707 106.805405C173.820236 106.244919,173.060089 105.929977,172.267395 105.929977C171.474701 105.929977,170.714554 106.244919,170.154083 106.805405C169.593597 107.365875,169.278656 108.126022,169.278656 108.918716C169.278656 109.711411,169.593597 110.471558,170.154083 111.032028C170.714554 111.592514,171.474701 111.907455,172.267395 111.907455C173.060089 111.907455,173.820236 111.592514,174.380707 111.032028C174.941193 110.471558,175.256134 109.711411,175.256134 108.918716Z" style="fill: rgb(100.000000%,100.000000%,100.000000%);stroke: none;"></path>
  <path d="M148.939514 113.528702C157.000870 113.877899,164.941071 112.638382,172.267395 108.918716C181.212601 104.377121,187.834793 96.912292,191.433563 88.202606" style="stroke:rgb(0.000000%,0.000000%,0.000000%); stroke-width: 0.498138;stroke-linecap: round;stroke-linejoin: round;stroke-miterlimit: 10.000000;fill: none;"></path>
  <path d="M58.616806 21.718872C58.616806 20.926178,58.301865 20.166031,57.741379 19.605560C57.180908 19.045074,56.420761 18.730133,55.628067 18.730133C54.835373 18.730133,54.075226 19.045074,53.514755 19.605560C52.954269 20.166031,52.639328 20.926178,52.639328 21.718872C52.639328 22.511566,52.954269 23.271713,53.514755 23.832184C54.075226 24.392670,54.835373 24.707611,55.628067 24.707611C56.420761 24.707611,57.180908 24.392670,57.741379 23.832184C58.301865 23.271713,58.616806 22.511566,58.616806 21.718872Z" style="fill: rgb(100.000000%,100.000000%,100.000000%);stroke: none;"></path>
  <path d="M30.907593 31.021362C37.921402 25.157837,46.225998 21.510605,55.628067 21.718872C61.104523 21.840179,66.365280 23.580597,70.333847 26.587753" style="stroke:rgb(0.000000%,0.000000%,0.000000%); stroke-width: 0.498138;stroke-linecap: round;stroke-linejoin: round;stroke-miterlimit: 10.000000;fill: none;"></path>
  <path d="M98.898041 67.592636C98.898041 66.799942,98.583099 66.039795,98.022614 65.479324C97.462143 64.918839,96.701996 64.603897,95.909302 64.603897C95.116608 64.603897,94.356461 64.918839,93.795990 65.479324C93.235504 66.039795,92.920563 66.799942,92.920563 67.592636C92.920563 68.385330,93.235504 69.145477,93.795990 69.705948C94.356461 70.266434,95.116608 70.581375,95.909302 70.581375C96.701996 70.581375,97.462143 70.266434,98.022614 69.705948C98.583099 69.145477,98.898041 68.385330,98.898041 67.592636Z" style="fill: rgb(100.000000%,100.000000%,100.000000%);stroke: none;"></path>
  <path d="M105.636551 61.271683C102.429794 63.431274,99.174545 65.521194,95.909302 67.592636C94.172028 68.694748,92.431213 69.792084,90.673874 70.861526" style="stroke:rgb(0.000000%,0.000000%,0.000000%); stroke-width: 0.498138;stroke-linecap: round;stroke-linejoin: round;stroke-miterlimit: 10.000000;fill: none;"></path>
  <path d="M81.148315 131.458801C81.148315 130.666107,80.833374 129.905960,80.272888 129.345490C79.712418 128.785004,78.952271 128.470062,78.159576 128.470062C77.366882 128.470062,76.606735 128.785004,76.046265 129.345490C75.485779 129.905960,75.170837 130.666107,75.170837 131.458801C75.170837 132.251495,75.485779 133.011642,76.046265 133.572113C76.606735 134.132599,77.366882 134.447540,78.159576 134.447540C78.952271 134.447540,79.712418 134.132599,80.272888 133.572113C80.833374 133.011642,81.148315 132.251495,81.148315 131.458801Z" style="fill: rgb(100.000000%,100.000000%,100.000000%);stroke: none;"></path>
  <path d="M83.869034 133.560074C82.174423 132.619247,80.112625 132.019135,78.159576 131.458801C74.696609 130.465271,71.341370 129.155060,67.988083 127.838287" style="stroke:rgb(0.000000%,0.000000%,0.000000%); stroke-width: 0.498138;stroke-linecap: round;stroke-linejoin: round;stroke-miterlimit: 10.000000;fill: none;"></path>
  <path d="M87.988739 145.940826C87.988739 145.148132,87.673798 144.387985,87.113312 143.827515C86.552841 143.267029,85.792694 142.952087,85.000000 142.952087C84.207306 142.952087,83.447159 143.267029,82.886688 143.827515C82.326202 144.387985,82.011261 145.148132,82.011261 145.940826C82.011261 146.733521,82.326202 147.493668,82.886688 148.054138C83.447159 148.614624,84.207306 148.929565,85.000000 148.929565C85.792694 148.929565,86.552841 148.614624,87.113312 148.054138C87.673798 147.493668,87.988739 146.733521,87.988739 145.940826Z" style="fill: rgb(100.000000%,100.000000%,100.000000%);stroke: none;"></path>
  <path d="M90.102600 149.698547C88.464844 148.382523,86.691086 147.196213,85.000000 145.940826C84.508377 145.575867,83.993927 145.201294,83.453125 144.947845" style="stroke:rgb(0.000000%,0.000000%,0.000000%); stroke-width: 0.498138;stroke-linecap: round;stroke-linejoin: round;stroke-miterlimit: 10.000000;fill: none;"></path>
  <path d="M21.633148 111.652618C21.633148 110.859924,21.318207 110.099777,20.757721 109.539307C20.197250 108.978821,19.437103 108.663879,18.644409 108.663879C17.851715 108.663879,17.091568 108.978821,16.531097 109.539307C15.970612 110.099777,15.655670 110.859924,15.655670 111.652618C15.655670 112.445312,15.970612 113.205460,16.531097 113.765930C17.091568 114.326416,17.851715 114.641357,18.644409 114.641357C19.437103 114.641357,20.197250 114.326416,20.757721 113.765930C21.318207 113.205460,21.633148 112.445312,21.633148 111.652618Z" style="fill: rgb(100.000000%,100.000000%,100.000000%);stroke: none;"></path>
  <path d="M33.918442 97.685959C27.707794 101.118744,22.253860 105.422043,18.644409 111.652618C13.295486 120.885818,13.364410 130.882858,16.159088 140.930008" style="stroke:rgb(0.000000%,0.000000%,0.000000%); stroke-width: 1.494400;stroke-linecap: round;stroke-linejoin: round;stroke-miterlimit: 10.000000;fill: none;"></path>
  <path d="M76.288620 52.844406C76.288620 52.051712,75.973679 51.291565,75.413193 50.731094C74.852722 50.170609,74.092575 49.855667,73.299881 49.855667C72.507187 49.855667,71.747040 50.170609,71.186569 50.731094C70.626083 51.291565,70.311142 52.051712,70.311142 52.844406C70.311142 53.637100,70.626083 54.397247,71.186569 54.957718C71.747040 55.518204,72.507187 55.833145,73.299881 55.833145C74.092575 55.833145,74.852722 55.518204,75.413193 54.957718C75.973679 54.397247,76.288620 53.637100,76.288620 52.844406Z" style="fill: rgb(100.000000%,100.000000%,100.000000%);stroke: none;"></path>
  <path d="M65.967209 51.835052C68.358078 52.352844,70.851639 52.586685,73.299881 52.844406C75.643860 53.091156,78.012253 53.386444,80.286423 53.946671" style="stroke:rgb(0.000000%,0.000000%,0.000000%); stroke-width: 0.498138;stroke-linecap: round;stroke-linejoin: round;stroke-miterlimit: 10.000000;fill: none;"></path>
  <path d="M101.075623 98.911835C101.075623 98.119141,100.760681 97.358994,100.200195 96.798523C99.639725 96.238037,98.879578 95.923096,98.086884 95.923096C97.294189 95.923096,96.534042 96.238037,95.973572 96.798523C95.413086 97.358994,95.098145 98.119141,95.098145 98.911835C95.098145 99.704529,95.413086 100.464676,95.973572 101.025146C96.534042 101.585632,97.294189 101.900574,98.086884 101.900574C98.879578 101.900574,99.639725 101.585632,100.200195 101.025146C100.760681 100.464676,101.075623 99.704529,101.075623 98.911835Z" style="fill: rgb(100.000000%,100.000000%,100.000000%);stroke: none;"></path>
  <path d="M101.800797 90.791046C100.826385 93.567734,99.436356 96.265854,98.086884 98.911835C96.574020 101.878174,95.099899 104.866287,93.572311 107.824768" style="stroke:rgb(0.000000%,0.000000%,0.000000%); stroke-width: 0.498138;stroke-linecap: round;stroke-linejoin: round;stroke-miterlimit: 10.000000;fill: none;"></path>
  <path d="M152.569214 33.827850C152.569214 33.035156,152.254272 32.275009,151.693787 31.714539C151.133316 31.154053,150.373169 30.839111,149.580475 30.839111C148.787781 30.839111,148.027634 31.154053,147.467163 31.714539C146.906677 32.275009,146.591736 33.035156,146.591736 33.827850C146.591736 34.620544,146.906677 35.380692,147.467163 35.941162C148.027634 36.501648,148.787781 36.816589,149.580475 36.816589C150.373169 36.816589,151.133316 36.501648,151.693787 35.941162C152.254272 35.380692,152.569214 34.620544,152.569214 33.827850Z" style="fill: rgb(100.000000%,100.000000%,100.000000%);stroke: none;"></path>
  <path d="M148.046219 53.879822C149.425873 47.201004,150.896973 40.508102,149.580475 33.827850C147.657944 24.072525,141.334564 17.118393,132.871506 12.410767" style="stroke:rgb(0.000000%,0.000000%,0.000000%); stroke-width: 0.498138;stroke-linecap: round;stroke-linejoin: round;stroke-miterlimit: 10.000000;fill: none;"></path>
  <path d="M77.386688 79.453140C77.386688 78.660446,77.071747 77.900299,76.511261 77.339828C75.950790 76.779343,75.190643 76.464401,74.397949 76.464401C73.605255 76.464401,72.845108 76.779343,72.284637 77.339828C71.724152 77.900299,71.409210 78.660446,71.409210 79.453140C71.409210 80.245834,71.724152 81.005981,72.284637 81.566452C72.845108 82.126938,73.605255 82.441879,74.397949 82.441879C75.190643 82.441879,75.950790 82.126938,76.511261 81.566452C77.071747 81.005981,77.386688 80.245834,77.386688 79.453140Z" style="fill: rgb(100.000000%,100.000000%,100.000000%);stroke: none;"></path>
  <path d="M71.344421 72.987366C72.224442 75.186600,73.340683 77.322876,74.397949 79.453140C75.544266 81.762802,76.651123 84.128540,77.961288 86.338531" style="stroke:rgb(0.000000%,0.000000%,0.000000%); stroke-width: 0.498138;stroke-linecap: round;stroke-linejoin: round;stroke-miterlimit: 10.000000;fill: none;"></path>
  <path d="M53.732803 88.942398C43.114639 93.340012,31.649002 97.260880,23.791397 105.033478" style="stroke:rgb(0.000000%,0.000000%,0.000000%); stroke-width: 0.498138;stroke-linecap: round;stroke-linejoin: round;stroke-miterlimit: 10.000000;fill: none;"></path>
  <path d="M26.037354 100.566422C25.192627 102.011185,24.437378 103.497589,23.791397 105.033478C25.334229 104.404236,26.919312 103.887253,28.538239 103.462997Z" style="stroke:rgb(0.000000%,0.000000%,0.000000%); stroke-width: 0.498138;fill: rgb(0.000000%,0.000000%,0.000000%);"></path>
  <path d="M53.732803 88.942398C43.114639 93.340012,31.649002 97.260880,23.791397 105.033478" style="stroke:rgb(0.000000%,0.000000%,0.000000%); stroke-width: 0.498138;stroke-linecap: round;stroke-linejoin: round;stroke-miterlimit: 10.000000;fill: none;"></path>
  <path d="M25.068832 102.318832C24.606491 103.206985,24.179245 104.111313,23.791397 105.033478C24.717728 104.655685,25.659286 104.318344,26.614243 104.017258Z" style="stroke:rgb(0.000000%,0.000000%,0.000000%); stroke-width: 0.498138;fill: rgb(0.000000%,0.000000%,0.000000%);"></path>
  <path d="M81.748245 144.681580C80.818466 144.867706,80.187759 145.593826,79.652618 146.395889" style="stroke:rgb(0.000000%,0.000000%,0.000000%); stroke-width: 0.498138;stroke-linecap: round;stroke-linejoin: round;stroke-miterlimit: 10.000000;fill: none;"></path>
  <path d="M79.652618 146.395889Z" style="stroke:rgb(0.000000%,0.000000%,0.000000%); stroke-width: 0.498138;fill: rgb(0.000000%,0.000000%,0.000000%);"></path>
  <path d="M74.097076 156.488693C71.433914 164.523239,74.185577 172.954971,80.052109 178.978134" style="stroke:rgb(0.000000%,0.000000%,0.000000%); stroke-width: 0.498138;stroke-linecap: round;stroke-linejoin: round;stroke-miterlimit: 10.000000;fill: none;"></path>
  <path d="M77.366211 177.641296C78.229797 178.133957,79.126923 178.580551,80.052109 178.978134C79.679047 178.042801,79.360504 177.092636,79.098236 176.133636Z" style="stroke:rgb(0.000000%,0.000000%,0.000000%); stroke-width: 0.498138;fill: rgb(0.000000%,0.000000%,0.000000%);"></path>
  <path d="M147.060562 73.847260C144.368958 63.249008,149.281830 52.546204,150.006500 41.848404" style="stroke:rgb(0.000000%,0.000000%,0.000000%); stroke-width: 0.498138;stroke-linecap: round;stroke-linejoin: round;stroke-miterlimit: 10.000000;fill: none;"></path>
  <path d="M150.870331 44.721329C150.610001 43.752243,150.324982 42.793365,150.006500 41.848404C149.563477 42.741791,149.086990 43.621353,148.585815 44.490646Z" style="stroke:rgb(0.000000%,0.000000%,0.000000%); stroke-width: 0.498138;fill: rgb(0.000000%,0.000000%,0.000000%);"></path>
  <path d="M86.707565 56.638504C89.927567 58.777145,92.171417 61.940933,94.310776 65.171860" style="stroke:rgb(0.000000%,0.000000%,0.000000%); stroke-width: 0.498138;stroke-linecap: round;stroke-linejoin: round;stroke-miterlimit: 10.000000;fill: none;"></path>
  <path d="M91.797668 63.533615C92.645142 64.058853,93.480331 64.611938,94.310776 65.171860C94.119492 64.188721,93.920044 63.207047,93.692200 62.236404Z" style="stroke:rgb(0.000000%,0.000000%,0.000000%); stroke-width: 0.498138;fill: rgb(0.000000%,0.000000%,0.000000%);"></path>
  <path d="M103.021103 82.198807C103.521820 86.935242,101.790802 91.402893,99.696487 95.709976" style="stroke:rgb(0.000000%,0.000000%,0.000000%); stroke-width: 0.498138;stroke-linecap: round;stroke-linejoin: round;stroke-miterlimit: 10.000000;fill: none;"></path>
  <path d="M99.808060 92.712097C99.799088 93.708038,99.756485 94.709213,99.696487 95.709976C100.446579 95.044754,101.184647 94.366974,101.895248 93.669098Z" style="stroke:rgb(0.000000%,0.000000%,0.000000%); stroke-width: 0.498138;fill: rgb(0.000000%,0.000000%,0.000000%);"></path>
  <path d="M82.495239 148.647034C83.520920 148.469040,84.135529 147.600708,84.638763 146.655014" style="stroke:rgb(0.000000%,0.000000%,0.000000%); stroke-width: 0.498138;stroke-linecap: round;stroke-linejoin: round;stroke-miterlimit: 10.000000;fill: none;"></path>
  <path d="M84.638763 146.655014Z" style="stroke:rgb(0.000000%,0.000000%,0.000000%); stroke-width: 0.498138;fill: rgb(0.000000%,0.000000%,0.000000%);"></path>
  <path d="M87.375443 137.705658C86.600494 134.628525,83.667191 133.194031,80.524948 132.169556" style="stroke:rgb(0.000000%,0.000000%,0.000000%); stroke-width: 0.498138;stroke-linecap: round;stroke-linejoin: round;stroke-miterlimit: 10.000000;fill: none;"></path>
  <path d="M83.524536 132.118896C82.554108 132.055283,81.541245 132.090607,80.524948 132.169556C81.299393 132.832367,82.040558 133.523605,82.681763 134.254791Z" style="stroke:rgb(0.000000%,0.000000%,0.000000%); stroke-width: 0.498138;fill: rgb(0.000000%,0.000000%,0.000000%);"></path>
  <path d="M77.286469 39.057144C77.517334 42.950287,76.139145 46.616791,74.529221 50.184860" style="stroke:rgb(0.000000%,0.000000%,0.000000%); stroke-width: 0.498138;stroke-linecap: round;stroke-linejoin: round;stroke-miterlimit: 10.000000;fill: none;"></path>
  <path d="M74.551132 47.184875C74.575134 48.180435,74.560440 49.182709,74.529221 50.184860C75.259933 49.498322,75.979065 48.800003,76.666061 48.079071Z" style="stroke:rgb(0.000000%,0.000000%,0.000000%); stroke-width: 0.498138;fill: rgb(0.000000%,0.000000%,0.000000%);"></path>
  <path d="M69.708221 66.143890C69.888031 69.955200,71.428268 73.459625,73.119827 76.890320" style="stroke:rgb(0.000000%,0.000000%,0.000000%); stroke-width: 0.498138;stroke-linecap: round;stroke-linejoin: round;stroke-miterlimit: 10.000000;fill: none;"></path>
  <path d="M70.901688 74.870392C71.621109 75.560471,72.366623 76.229721,73.119827 76.890320C73.054367 75.890610,73.000443 74.890213,72.979721 73.893555Z" style="stroke:rgb(0.000000%,0.000000%,0.000000%); stroke-width: 0.498138;fill: rgb(0.000000%,0.000000%,0.000000%);"></path>
  <path d="M124.884720 108.606308C137.382248 112.822723,150.831024 115.253998,163.212814 112.248856" style="stroke:rgb(0.000000%,0.000000%,0.000000%); stroke-width: 0.498138;stroke-linecap: round;stroke-linejoin: round;stroke-miterlimit: 10.000000;fill: none;"></path>
  <path d="M160.732437 113.935913C161.577087 113.401199,162.404404 112.839264,163.212814 112.248856C162.223709 112.094696,161.241364 111.907028,160.266006 111.687836Z" style="stroke:rgb(0.000000%,0.000000%,0.000000%); stroke-width: 0.498138;fill: rgb(0.000000%,0.000000%,0.000000%);"></path>
  <path d="M85.339325 73.963028C82.477402 75.534988,79.546875 76.975296,76.605270 78.392700" style="stroke:rgb(0.000000%,0.000000%,0.000000%); stroke-width: 0.498138;stroke-linecap: round;stroke-linejoin: round;stroke-miterlimit: 10.000000;fill: none;"></path>
  <path d="M78.595779 76.148254C77.935867 76.899490,77.271454 77.646896,76.605270 78.392700C77.603699 78.336411,78.602005 78.277756,79.599838 78.213196Z" style="stroke:rgb(0.000000%,0.000000%,0.000000%); stroke-width: 0.498138;fill: rgb(0.000000%,0.000000%,0.000000%);"></path>
  <path d="M27.037674 173.218277L33.018967 173.218277L33.018967 165.797882L27.037674 165.797882Z" style="fill: rgb(100.000000%,100.000000%,100.000000%);stroke: none;"></path>
  <path d="M27.037674 175.218277L33.018967 175.218277L33.018967 167.797882L27.037674 167.797882Z" style="fill: rgb(100.000000%,100.000000%,100.000000%);stroke: none;"></path>
  <g transform="translate(27.537674 173.718277)" style="fill: rgb(0.000000%,0.000000%,0.000000%);">
    <use xlink:href="#GLYPHcmr10_49"></use>
  </g>
  <path d="M91.398575 156.944794L97.379868 156.944794L97.379868 149.524399L91.398575 149.524399Z" style="fill: rgb(100.000000%,100.000000%,100.000000%);stroke: none;"></path>
  <path d="M91.398575 158.944794L97.379868 158.944794L97.379868 151.524399L91.398575 151.524399Z" style="fill: rgb(100.000000%,100.000000%,100.000000%);stroke: none;"></path>
  <g transform="translate(91.898575 157.444794)" style="fill: rgb(0.000000%,0.000000%,0.000000%);">
    <use xlink:href="#GLYPHcmr10_50"></use>
  </g>
  <path d="M142.453613 172.480850L148.434906 172.480850L148.434906 165.060455L142.453613 165.060455Z" style="fill: rgb(100.000000%,100.000000%,100.000000%);stroke: none;"></path>
  <path d="M142.453613 174.480850L148.434906 174.480850L148.434906 167.060455L142.453613 167.060455Z" style="fill: rgb(100.000000%,100.000000%,100.000000%);stroke: none;"></path>
  <g transform="translate(142.953613 172.980850)" style="fill: rgb(0.000000%,0.000000%,0.000000%);">
    <use xlink:href="#GLYPHcmr10_51"></use>
  </g>
  <path d="M100.333908 7.182861L106.315201 7.182861L106.315201 -0.237534L100.333908 -0.237534Z" style="fill: rgb(100.000000%,100.000000%,100.000000%);stroke: none;"></path>
  <path d="M100.333908 9.182861L106.315201 9.182861L106.315201 1.762466L100.333908 1.762466Z" style="fill: rgb(100.000000%,100.000000%,100.000000%);stroke: none;"></path>
  <g transform="translate(100.833908 7.682861)" style="fill: rgb(0.000000%,0.000000%,0.000000%);">
    <use xlink:href="#GLYPHcmr10_52"></use>
  </g>
  <path d="M56.259979 51.832230L62.241272 51.832230L62.241272 44.411835L56.259979 44.411835Z" style="fill: rgb(100.000000%,100.000000%,100.000000%);stroke: none;"></path>
  <path d="M56.259979 53.832230L62.241272 53.832230L62.241272 46.411835L56.259979 46.411835Z" style="fill: rgb(100.000000%,100.000000%,100.000000%);stroke: none;"></path>
  <g transform="translate(56.759979 52.332230)" style="fill: rgb(0.000000%,0.000000%,0.000000%);">
    <use xlink:href="#GLYPHcmr10_53"></use>
  </g>
  <path d="M85.746277 119.270142L91.727570 119.270142L91.727570 111.849747L85.746277 111.849747Z" style="fill: rgb(100.000000%,100.000000%,100.000000%);stroke: none;"></path>
  <path d="M85.746277 121.270142L91.727570 121.270142L91.727570 113.849747L85.746277 113.849747Z" style="fill: rgb(100.000000%,100.000000%,100.000000%);stroke: none;"></path>
  <g transform="translate(86.246277 119.770142)" style="fill: rgb(0.000000%,0.000000%,0.000000%);">
    <use xlink:href="#GLYPHcmr10_54"></use>
  </g>
  <path d="M71.475845 143.715042L77.457138 143.715042L77.457138 136.294647L71.475845 136.294647Z" style="fill: rgb(100.000000%,100.000000%,100.000000%);stroke: none;"></path>
  <path d="M71.475845 145.715042L77.457138 145.715042L77.457138 138.294647L71.475845 138.294647Z" style="fill: rgb(100.000000%,100.000000%,100.000000%);stroke: none;"></path>
  <g transform="translate(71.975845 144.215042)" style="fill: rgb(0.000000%,0.000000%,0.000000%);">
    <use xlink:href="#GLYPHcmr10_55"></use>
  </g>
  <path d="M54.837738 126.888626L60.819031 126.888626L60.819031 119.468231L54.837738 119.468231Z" style="fill: rgb(100.000000%,100.000000%,100.000000%);stroke: none;"></path>
  <path d="M54.837738 128.888626L60.819031 128.888626L60.819031 121.468231L54.837738 121.468231Z" style="fill: rgb(100.000000%,100.000000%,100.000000%);stroke: none;"></path>
  <g transform="translate(55.337738 127.388626)" style="fill: rgb(0.000000%,0.000000%,0.000000%);">
    <use xlink:href="#GLYPHcmr10_56"></use>
  </g>
  <path d="M10.941132 56.331879L16.922424 56.331879L16.922424 48.911484L10.941132 48.911484Z" style="fill: rgb(100.000000%,100.000000%,100.000000%);stroke: none;"></path>
  <path d="M10.941132 58.331879L16.922424 58.331879L16.922424 50.911484L10.941132 50.911484Z" style="fill: rgb(100.000000%,100.000000%,100.000000%);stroke: none;"></path>
  <g transform="translate(11.441132 56.831879)" style="fill: rgb(0.000000%,0.000000%,0.000000%);">
    <use xlink:href="#GLYPHcmr10_57"></use>
  </g>
  <path d="M77.263138 94.999588L88.225845 94.999588L88.225845 87.579193L77.263138 87.579193Z" style="fill: rgb(100.000000%,100.000000%,100.000000%);stroke: none;"></path>
  <path d="M77.263138 96.999588L88.225845 96.999588L88.225845 89.579193L77.263138 89.579193Z" style="fill: rgb(100.000000%,100.000000%,100.000000%);stroke: none;"></path>
  <g transform="translate(77.763138 95.499588)" style="fill: rgb(0.000000%,0.000000%,0.000000%);">
    <use xlink:href="#GLYPHcmr10_49"></use>
    <use xlink:href="#GLYPHcmr10_48" x="5.000095"></use>
  </g>
  <path d="M186.977768 62.727585L197.940475 62.727585L197.940475 55.307190L186.977768 55.307190Z" style="fill: rgb(100.000000%,100.000000%,100.000000%);stroke: none;"></path>
  <path d="M186.977768 64.727585L197.940475 64.727585L197.940475 57.307190L186.977768 57.307190Z" style="fill: rgb(100.000000%,100.000000%,100.000000%);stroke: none;"></path>
  <g transform="translate(187.477768 63.227585)" style="fill: rgb(0.000000%,0.000000%,0.000000%);">
    <use xlink:href="#GLYPHcmr10_49"></use>
    <use xlink:href="#GLYPHcmr10_49" x="5.000095"></use>
  </g>
  <path d="M109.591537 57.242844L120.554245 57.242844L120.554245 49.822449L109.591537 49.822449Z" style="fill: rgb(100.000000%,100.000000%,100.000000%);stroke: none;"></path>
  <path d="M109.591537 59.242844L120.554245 59.242844L120.554245 51.822449L109.591537 51.822449Z" style="fill: rgb(100.000000%,100.000000%,100.000000%);stroke: none;"></path>
  <g transform="translate(110.091537 57.742844)" style="fill: rgb(0.000000%,0.000000%,0.000000%);">
    <use xlink:href="#GLYPHcmr10_49"></use>
    <use xlink:href="#GLYPHcmr10_50" x="5.000095"></use>
  </g>
</svg>
