<?xml version="1.0"?>
<!-- Created by MetaPost 1.999 on 2021.07.05:2354 -->
<svg version="1.1" xmlns="http://www.w3.org/2000/svg" xmlns:xlink="http://www.w3.org/1999/xlink" width="194.664932" height="195.152588" viewBox="0 0 194.664932 195.152588">
<!-- Original BoundingBox: -158.806107 -58.737778 35.858826 136.414810 -->
  <defs>
    <g transform="scale(0.009963,0.009963)" id="GLYPHcmr10_48">
      <path style="fill-rule: evenodd;" d="M460.000000 -320.000000C460.000000 -400.000000,455.000000 -480.000000,420.000000 -554.000000C374.000000 -650.000000,292.000000 -666.000000,250.000000 -666.000000C190.000000 -666.000000,117.000000 -640.000000,76.000000 -547.000000C44.000000 -478.000000,39.000000 -400.000000,39.000000 -320.000000C39.000000 -245.000000,43.000000 -155.000000,84.000000 -79.000000C127.000000 2.000000,200.000000 22.000000,249.000000 22.000000C303.000000 22.000000,379.000000 1.000000,423.000000 -94.000000C455.000000 -163.000000,460.000000 -241.000000,460.000000 -320.000000M249.000000 -0.000000C210.000000 -0.000000,151.000000 -25.000000,133.000000 -121.000000C122.000000 -181.000000,122.000000 -273.000000,122.000000 -332.000000C122.000000 -396.000000,122.000000 -462.000000,130.000000 -516.000000C149.000000 -635.000000,224.000000 -644.000000,249.000000 -644.000000C282.000000 -644.000000,348.000000 -626.000000,367.000000 -527.000000C377.000000 -471.000000,377.000000 -395.000000,377.000000 -332.000000C377.000000 -257.000000,377.000000 -189.000000,366.000000 -125.000000C351.000000 -30.000000,294.000000 -0.000000,249.000000 -0.000000"></path>
    </g>
    <g transform="scale(0.009963,0.009963)" id="GLYPHcmr10_49">
      <path style="fill-rule: evenodd;" d="M294.000000 -640.000000C294.000000 -664.000000,294.000000 -666.000000,271.000000 -666.000000C209.000000 -602.000000,121.000000 -602.000000,89.000000 -602.000000L89.000000 -571.000000C109.000000 -571.000000,168.000000 -571.000000,220.000000 -597.000000L220.000000 -79.000000C220.000000 -43.000000,217.000000 -31.000000,127.000000 -31.000000L95.000000 -31.000000L95.000000 -0.000000L257.000000 -0.000000L130.000000 -3.000000L217.000000 -3.000000L257.000000 -3.000000L297.000000 -3.000000L384.000000 -3.000000L419.000000 -0.000000L419.000000 -31.000000L387.000000 -31.000000C297.000000 -31.000000,294.000000 -42.000000,294.000000 -79.000000"></path>
    </g>
    <g transform="scale(0.009963,0.009963)" id="GLYPHcmr10_50">
      <path style="fill-rule: evenodd;" d="M127.000000 -77.000000L233.000000 -180.000000C389.000000 -318.000000,449.000000 -372.000000,449.000000 -472.000000C449.000000 -586.000000,359.000000 -666.000000,237.000000 -666.000000C124.000000 -666.000000,50.000000 -574.000000,50.000000 -485.000000C50.000000 -429.000000,100.000000 -429.000000,103.000000 -429.000000C120.000000 -429.000000,155.000000 -441.000000,155.000000 -482.000000C155.000000 -508.000000,137.000000 -534.000000,102.000000 -534.000000C94.000000 -534.000000,92.000000 -534.000000,89.000000 -533.000000C112.000000 -598.000000,166.000000 -635.000000,224.000000 -635.000000C315.000000 -635.000000,358.000000 -554.000000,358.000000 -472.000000C358.000000 -392.000000,308.000000 -313.000000,253.000000 -251.000000L61.000000 -37.000000C50.000000 -26.000000,50.000000 -24.000000,50.000000 -0.000000L421.000000 -0.000000L449.000000 -174.000000L424.000000 -174.000000C419.000000 -144.000000,412.000000 -100.000000,402.000000 -85.000000C395.000000 -77.000000,329.000000 -77.000000,307.000000 -77.000000"></path>
    </g>
    <g transform="scale(0.009963,0.009963)" id="GLYPHcmr10_51">
      <path style="fill-rule: evenodd;" d="M290.000000 -352.000000C372.000000 -379.000000,430.000000 -449.000000,430.000000 -528.000000C430.000000 -610.000000,342.000000 -666.000000,246.000000 -666.000000C145.000000 -666.000000,69.000000 -606.000000,69.000000 -530.000000C69.000000 -497.000000,91.000000 -478.000000,120.000000 -478.000000C151.000000 -478.000000,171.000000 -500.000000,171.000000 -529.000000C171.000000 -579.000000,124.000000 -579.000000,109.000000 -579.000000C140.000000 -628.000000,206.000000 -641.000000,242.000000 -641.000000C283.000000 -641.000000,338.000000 -619.000000,338.000000 -529.000000C338.000000 -517.000000,336.000000 -459.000000,310.000000 -415.000000C280.000000 -367.000000,246.000000 -364.000000,221.000000 -363.000000C213.000000 -362.000000,189.000000 -360.000000,182.000000 -360.000000C174.000000 -359.000000,167.000000 -358.000000,167.000000 -348.000000C167.000000 -337.000000,174.000000 -337.000000,191.000000 -337.000000L235.000000 -337.000000C317.000000 -337.000000,354.000000 -269.000000,354.000000 -171.000000C354.000000 -35.000000,285.000000 -6.000000,241.000000 -6.000000C198.000000 -6.000000,123.000000 -23.000000,88.000000 -82.000000C123.000000 -77.000000,154.000000 -99.000000,154.000000 -137.000000C154.000000 -173.000000,127.000000 -193.000000,98.000000 -193.000000C74.000000 -193.000000,42.000000 -179.000000,42.000000 -135.000000C42.000000 -44.000000,135.000000 22.000000,244.000000 22.000000C366.000000 22.000000,457.000000 -69.000000,457.000000 -171.000000C457.000000 -253.000000,394.000000 -331.000000,290.000000 -352.000000"></path>
    </g>
    <g transform="scale(0.009963,0.009963)" id="GLYPHcmr10_52">
      <path style="fill-rule: evenodd;" d="M294.000000 -165.000000L294.000000 -78.000000C294.000000 -42.000000,292.000000 -31.000000,218.000000 -31.000000L197.000000 -31.000000L197.000000 -0.000000L332.000000 -0.000000L238.000000 -3.000000L290.000000 -3.000000L332.000000 -3.000000L374.000000 -3.000000L427.000000 -3.000000L468.000000 -0.000000L468.000000 -31.000000L447.000000 -31.000000C373.000000 -31.000000,371.000000 -42.000000,371.000000 -78.000000L371.000000 -165.000000L471.000000 -165.000000L471.000000 -196.000000L371.000000 -196.000000L371.000000 -651.000000C371.000000 -671.000000,371.000000 -677.000000,355.000000 -677.000000C346.000000 -677.000000,343.000000 -677.000000,335.000000 -665.000000L28.000000 -196.000000L28.000000 -165.000000M300.000000 -196.000000L56.000000 -196.000000L300.000000 -569.000000"></path>
    </g>
    <g transform="scale(0.009963,0.009963)" id="GLYPHcmr10_53">
      <path style="fill-rule: evenodd;" d="M449.000000 -201.000000C449.000000 -320.000000,367.000000 -420.000000,259.000000 -420.000000C211.000000 -420.000000,168.000000 -404.000000,132.000000 -369.000000L132.000000 -564.000000C152.000000 -558.000000,185.000000 -551.000000,217.000000 -551.000000C340.000000 -551.000000,410.000000 -642.000000,410.000000 -655.000000C410.000000 -661.000000,407.000000 -666.000000,400.000000 -666.000000C399.000000 -666.000000,397.000000 -666.000000,392.000000 -663.000000C372.000000 -654.000000,323.000000 -634.000000,256.000000 -634.000000C216.000000 -634.000000,170.000000 -641.000000,123.000000 -662.000000C115.000000 -665.000000,113.000000 -665.000000,111.000000 -665.000000C101.000000 -665.000000,101.000000 -657.000000,101.000000 -641.000000L101.000000 -345.000000C101.000000 -327.000000,101.000000 -319.000000,115.000000 -319.000000C122.000000 -319.000000,124.000000 -322.000000,128.000000 -328.000000C139.000000 -344.000000,176.000000 -398.000000,257.000000 -398.000000C309.000000 -398.000000,334.000000 -352.000000,342.000000 -334.000000C358.000000 -297.000000,360.000000 -258.000000,360.000000 -208.000000C360.000000 -173.000000,360.000000 -113.000000,336.000000 -71.000000C312.000000 -32.000000,275.000000 -6.000000,229.000000 -6.000000C156.000000 -6.000000,99.000000 -59.000000,82.000000 -118.000000C85.000000 -117.000000,88.000000 -116.000000,99.000000 -116.000000C132.000000 -116.000000,149.000000 -141.000000,149.000000 -165.000000C149.000000 -189.000000,132.000000 -214.000000,99.000000 -214.000000C85.000000 -214.000000,50.000000 -207.000000,50.000000 -161.000000C50.000000 -75.000000,119.000000 22.000000,231.000000 22.000000C347.000000 22.000000,449.000000 -74.000000,449.000000 -201.000000"></path>
    </g>
    <g transform="scale(0.009963,0.009963)" id="GLYPHcmr10_54">
      <path style="fill-rule: evenodd;" d="M132.000000 -328.000000L132.000000 -352.000000C132.000000 -605.000000,256.000000 -641.000000,307.000000 -641.000000C331.000000 -641.000000,373.000000 -635.000000,395.000000 -601.000000C380.000000 -601.000000,340.000000 -601.000000,340.000000 -556.000000C340.000000 -525.000000,364.000000 -510.000000,386.000000 -510.000000C402.000000 -510.000000,432.000000 -519.000000,432.000000 -558.000000C432.000000 -618.000000,388.000000 -666.000000,305.000000 -666.000000C177.000000 -666.000000,42.000000 -537.000000,42.000000 -316.000000C42.000000 -49.000000,158.000000 22.000000,251.000000 22.000000C362.000000 22.000000,457.000000 -72.000000,457.000000 -204.000000C457.000000 -331.000000,368.000000 -427.000000,257.000000 -427.000000C189.000000 -427.000000,152.000000 -376.000000,132.000000 -328.000000M251.000000 -6.000000C188.000000 -6.000000,158.000000 -66.000000,152.000000 -81.000000C134.000000 -128.000000,134.000000 -208.000000,134.000000 -226.000000C134.000000 -304.000000,166.000000 -404.000000,256.000000 -404.000000C272.000000 -404.000000,318.000000 -404.000000,349.000000 -342.000000C367.000000 -305.000000,367.000000 -254.000000,367.000000 -205.000000C367.000000 -157.000000,367.000000 -107.000000,350.000000 -71.000000C320.000000 -11.000000,274.000000 -6.000000,251.000000 -6.000000"></path>
    </g>
    <g transform="scale(0.009963,0.009963)" id="GLYPHcmr10_55">
      <path style="fill-rule: evenodd;" d="M476.000000 -609.000000C485.000000 -621.000000,485.000000 -623.000000,485.000000 -644.000000L242.000000 -644.000000C120.000000 -644.000000,118.000000 -657.000000,114.000000 -676.000000L89.000000 -676.000000L56.000000 -470.000000L81.000000 -470.000000C84.000000 -486.000000,93.000000 -549.000000,106.000000 -561.000000C113.000000 -567.000000,191.000000 -567.000000,204.000000 -567.000000L411.000000 -567.000000C400.000000 -551.000000,321.000000 -442.000000,299.000000 -409.000000C209.000000 -274.000000,176.000000 -135.000000,176.000000 -33.000000C176.000000 -23.000000,176.000000 22.000000,222.000000 22.000000C268.000000 22.000000,268.000000 -23.000000,268.000000 -33.000000L268.000000 -84.000000C268.000000 -139.000000,271.000000 -194.000000,279.000000 -248.000000C283.000000 -271.000000,297.000000 -357.000000,341.000000 -419.000000"></path>
    </g>
    <g transform="scale(0.009963,0.009963)" id="GLYPHcmr10_56">
      <path style="fill-rule: evenodd;" d="M163.000000 -457.000000C117.000000 -487.000000,113.000000 -521.000000,113.000000 -538.000000C113.000000 -599.000000,178.000000 -641.000000,249.000000 -641.000000C322.000000 -641.000000,386.000000 -589.000000,386.000000 -517.000000C386.000000 -460.000000,347.000000 -412.000000,287.000000 -377.000000M309.000000 -362.000000C381.000000 -399.000000,430.000000 -451.000000,430.000000 -517.000000C430.000000 -609.000000,341.000000 -666.000000,250.000000 -666.000000C150.000000 -666.000000,69.000000 -592.000000,69.000000 -499.000000C69.000000 -481.000000,71.000000 -436.000000,113.000000 -389.000000C124.000000 -377.000000,161.000000 -352.000000,186.000000 -335.000000C128.000000 -306.000000,42.000000 -250.000000,42.000000 -151.000000C42.000000 -45.000000,144.000000 22.000000,249.000000 22.000000C362.000000 22.000000,457.000000 -61.000000,457.000000 -168.000000C457.000000 -204.000000,446.000000 -249.000000,408.000000 -291.000000C389.000000 -312.000000,373.000000 -322.000000,309.000000 -362.000000M209.000000 -320.000000L332.000000 -242.000000C360.000000 -223.000000,407.000000 -193.000000,407.000000 -132.000000C407.000000 -58.000000,332.000000 -6.000000,250.000000 -6.000000C164.000000 -6.000000,92.000000 -68.000000,92.000000 -151.000000C92.000000 -209.000000,124.000000 -273.000000,209.000000 -320.000000"></path>
    </g>
    <g transform="scale(0.009963,0.009963)" id="GLYPHcmr10_57">
      <path style="fill-rule: evenodd;" d="M367.000000 -318.000000L367.000000 -286.000000C367.000000 -52.000000,263.000000 -6.000000,205.000000 -6.000000C188.000000 -6.000000,134.000000 -8.000000,107.000000 -42.000000C151.000000 -42.000000,159.000000 -71.000000,159.000000 -88.000000C159.000000 -119.000000,135.000000 -134.000000,113.000000 -134.000000C97.000000 -134.000000,67.000000 -125.000000,67.000000 -86.000000C67.000000 -19.000000,121.000000 22.000000,206.000000 22.000000C335.000000 22.000000,457.000000 -114.000000,457.000000 -329.000000C457.000000 -598.000000,342.000000 -666.000000,253.000000 -666.000000C198.000000 -666.000000,149.000000 -648.000000,106.000000 -603.000000C65.000000 -558.000000,42.000000 -516.000000,42.000000 -441.000000C42.000000 -316.000000,130.000000 -218.000000,242.000000 -218.000000C303.000000 -218.000000,344.000000 -260.000000,367.000000 -318.000000M243.000000 -241.000000C227.000000 -241.000000,181.000000 -241.000000,150.000000 -304.000000C132.000000 -341.000000,132.000000 -391.000000,132.000000 -440.000000C132.000000 -494.000000,132.000000 -541.000000,153.000000 -578.000000C180.000000 -628.000000,218.000000 -641.000000,253.000000 -641.000000C299.000000 -641.000000,332.000000 -607.000000,349.000000 -562.000000C361.000000 -530.000000,365.000000 -467.000000,365.000000 -421.000000C365.000000 -338.000000,331.000000 -241.000000,243.000000 -241.000000"></path>
    </g>
  </defs>
  <path d="M129.666824 134.682083C129.666824 133.889389,129.351883 133.129242,128.791397 132.568771C128.230927 132.008286,127.470779 131.693344,126.678085 131.693344C125.885391 131.693344,125.125244 132.008286,124.564774 132.568771C124.004288 133.129242,123.689346 133.889389,123.689346 134.682083C123.689346 135.474777,124.004288 136.234924,124.564774 136.795395C125.125244 137.355881,125.885391 137.670822,126.678085 137.670822C127.470779 137.670822,128.230927 137.355881,128.791397 136.795395C129.351883 136.234924,129.666824 135.474777,129.666824 134.682083Z" style="fill: rgb(100.000000%,100.000000%,100.000000%);stroke: none;"></path>
  <path d="M120.444702 121.947739C120.444702 121.155045,120.129761 120.394897,119.569275 119.834427C119.008804 119.273941,118.248657 118.959000,117.455963 118.959000C116.663269 118.959000,115.903122 119.273941,115.342651 119.834427C114.782166 120.394897,114.467224 121.155045,114.467224 121.947739C114.467224 122.740433,114.782166 123.500580,115.342651 124.061050C115.903122 124.621536,116.663269 124.936478,117.455963 124.936478C118.248657 124.936478,119.008804 124.621536,119.569275 124.061050C120.129761 123.500580,120.444702 122.740433,120.444702 121.947739Z" style="fill: rgb(100.000000%,100.000000%,100.000000%);stroke: none;"></path>
  <path d="M182.116135 129.999100C182.116135 129.206406,181.801193 128.446259,181.240707 127.885788C180.680237 127.325302,179.920090 127.010361,179.127396 127.010361C178.334702 127.010361,177.574554 127.325302,177.014084 127.885788C176.453598 128.446259,176.138657 129.206406,176.138657 129.999100C176.138657 130.791794,176.453598 131.551941,177.014084 132.112411C177.574554 132.672897,178.334702 132.987839,179.127396 132.987839C179.920090 132.987839,180.680237 132.672897,181.240707 132.112411C181.801193 131.551941,182.116135 130.791794,182.116135 129.999100Z" style="fill: rgb(100.000000%,100.000000%,100.000000%);stroke: none;"></path>
  <path d="M145.864044 140.295929C145.864044 139.503235,145.549103 138.743088,144.988617 138.182617C144.428146 137.622131,143.667999 137.307190,142.875305 137.307190C142.082611 137.307190,141.322464 137.622131,140.761993 138.182617C140.201508 138.743088,139.886566 139.503235,139.886566 140.295929C139.886566 141.088623,140.201508 141.848770,140.761993 142.409241C141.322464 142.969727,142.082611 143.284668,142.875305 143.284668C143.667999 143.284668,144.428146 142.969727,144.988617 142.409241C145.549103 141.848770,145.864044 141.088623,145.864044 140.295929Z" style="fill: rgb(100.000000%,100.000000%,100.000000%);stroke: none;"></path>
  <path d="M192.298264 65.051987C192.298264 64.259293,191.983322 63.499146,191.422836 62.938675C190.862366 62.378189,190.102219 62.063248,189.309525 62.063248C188.516830 62.063248,187.756683 62.378189,187.196213 62.938675C186.635727 63.499146,186.320786 64.259293,186.320786 65.051987C186.320786 65.844681,186.635727 66.604828,187.196213 67.165298C187.756683 67.725784,188.516830 68.040726,189.309525 68.040726C190.102219 68.040726,190.862366 67.725784,191.422836 67.165298C191.983322 66.604828,192.298264 65.844681,192.298264 65.051987Z" style="fill: rgb(100.000000%,100.000000%,100.000000%);stroke: none;"></path>
  <path d="M193.858826 108.295563C193.858826 107.502869,193.543884 106.742722,192.983398 106.182251C192.422928 105.621765,191.662781 105.306824,190.870087 105.306824C190.077393 105.306824,189.317245 105.621765,188.756775 106.182251C188.196289 106.742722,187.881348 107.502869,187.881348 108.295563C187.881348 109.088257,188.196289 109.848404,188.756775 110.408875C189.317245 110.969360,190.077393 111.284302,190.870087 111.284302C191.662781 111.284302,192.422928 110.969360,192.983398 110.408875C193.543884 109.848404,193.858826 109.088257,193.858826 108.295563Z" style="fill: rgb(100.000000%,100.000000%,100.000000%);stroke: none;"></path>
  <path d="M147.446091 38.272385C147.446091 37.479691,147.131149 36.719543,146.570663 36.159073C146.010193 35.598587,145.250046 35.283646,144.457352 35.283646C143.664658 35.283646,142.904510 35.598587,142.344040 36.159073C141.783554 36.719543,141.468613 37.479691,141.468613 38.272385C141.468613 39.065079,141.783554 39.825226,142.344040 40.385696C142.904510 40.946182,143.664658 41.261124,144.457352 41.261124C145.250046 41.261124,146.010193 40.946182,146.570663 40.385696C147.131149 39.825226,147.446091 39.065079,147.446091 38.272385Z" style="fill: rgb(100.000000%,100.000000%,100.000000%);stroke: none;"></path>
  <path d="M180.682693 45.568375C180.682693 44.775681,180.367752 44.015533,179.807266 43.455063C179.246796 42.894577,178.486649 42.579636,177.693954 42.579636C176.901260 42.579636,176.141113 42.894577,175.580643 43.455063C175.020157 44.015533,174.705215 44.775681,174.705215 45.568375C174.705215 46.361069,175.020157 47.121216,175.580643 47.681686C176.141113 48.242172,176.901260 48.557114,177.693954 48.557114C178.486649 48.557114,179.246796 48.242172,179.807266 47.681686C180.367752 47.121216,180.682693 46.361069,180.682693 45.568375Z" style="fill: rgb(100.000000%,100.000000%,100.000000%);stroke: none;"></path>
  <path d="M130.838425 64.782791C130.838425 63.990097,130.523483 63.229950,129.962997 62.669479C129.402527 62.108994,128.642380 61.794052,127.849686 61.794052C127.056992 61.794052,126.296844 62.108994,125.736374 62.669479C125.175888 63.229950,124.860947 63.990097,124.860947 64.782791C124.860947 65.575485,125.175888 66.335632,125.736374 66.896103C126.296844 67.456589,127.056992 67.771530,127.849686 67.771530C128.642380 67.771530,129.402527 67.456589,129.962997 66.896103C130.523483 66.335632,130.838425 65.575485,130.838425 64.782791Z" style="fill: rgb(100.000000%,100.000000%,100.000000%);stroke: none;"></path>
  <path d="M133.449509 44.987961C133.449509 44.195267,133.134567 43.435120,132.574081 42.874649C132.013611 42.314163,131.253464 41.999222,130.460770 41.999222C129.668076 41.999222,128.907928 42.314163,128.347458 42.874649C127.786972 43.435120,127.472031 44.195267,127.472031 44.987961C127.472031 45.780655,127.786972 46.540802,128.347458 47.101273C128.907928 47.661758,129.668076 47.976700,130.460770 47.976700C131.253464 47.976700,132.013611 47.661758,132.574081 47.101273C133.134567 46.540802,133.449509 45.780655,133.449509 44.987961Z" style="fill: rgb(100.000000%,100.000000%,100.000000%);stroke: none;"></path>
  <path d="M140.892807 84.155075C140.892807 83.362381,140.577866 82.602234,140.017380 82.041763C139.456909 81.481277,138.696762 81.166336,137.904068 81.166336C137.111374 81.166336,136.351227 81.481277,135.790756 82.041763C135.230270 82.602234,134.915329 83.362381,134.915329 84.155075C134.915329 84.947769,135.230270 85.707916,135.790756 86.268387C136.351227 86.828873,137.111374 87.143814,137.904068 87.143814C138.696762 87.143814,139.456909 86.828873,140.017380 86.268387C140.577866 85.707916,140.892807 84.947769,140.892807 84.155075Z" style="fill: rgb(100.000000%,100.000000%,100.000000%);stroke: none;"></path>
  <path d="M134.685654 71.213013C134.685654 70.420319,134.370712 69.660172,133.810226 69.099701C133.249756 68.539215,132.489609 68.224274,131.696915 68.224274C130.904221 68.224274,130.144073 68.539215,129.583603 69.099701C129.023117 69.660172,128.708176 70.420319,128.708176 71.213013C128.708176 72.005707,129.023117 72.765854,129.583603 73.326324C130.144073 73.886810,130.904221 74.201752,131.696915 74.201752C132.489609 74.201752,133.249756 73.886810,133.810226 73.326324C134.370712 72.765854,134.685654 72.005707,134.685654 71.213013Z" style="fill: rgb(100.000000%,100.000000%,100.000000%);stroke: none;"></path>
  <path d="M152.123154 110.238678C152.123154 109.445984,151.808212 108.685837,151.247726 108.125366C150.687256 107.564880,149.927109 107.249939,149.134415 107.249939C148.341721 107.249939,147.581573 107.564880,147.021103 108.125366C146.460617 108.685837,146.145676 109.445984,146.145676 110.238678C146.145676 111.031372,146.460617 111.791519,147.021103 112.351990C147.581573 112.912476,148.341721 113.227417,149.134415 113.227417C149.927109 113.227417,150.687256 112.912476,151.247726 112.351990C151.808212 111.791519,152.123154 111.031372,152.123154 110.238678Z" style="fill: rgb(100.000000%,100.000000%,100.000000%);stroke: none;"></path>
  <path d="M143.238251 91.070343C143.238251 90.277649,142.923309 89.517502,142.362823 88.957031C141.802353 88.396545,141.042206 88.081604,140.249512 88.081604C139.456818 88.081604,138.696671 88.396545,138.136200 88.957031C137.575714 89.517502,137.260773 90.277649,137.260773 91.070343C137.260773 91.863037,137.575714 92.623184,138.136200 93.183655C138.696671 93.744141,139.456818 94.059082,140.249512 94.059082C141.042206 94.059082,141.802353 93.744141,142.362823 93.183655C142.923309 92.623184,143.238251 91.863037,143.238251 91.070343Z" style="fill: rgb(100.000000%,100.000000%,100.000000%);stroke: none;"></path>
  <path d="M161.659637 159.704391C161.659637 158.911697,161.344696 158.151550,160.784210 157.591080C160.223740 157.030594,159.463593 156.715652,158.670898 156.715652C157.878204 156.715652,157.118057 157.030594,156.557587 157.591080C155.997101 158.151550,155.682159 158.911697,155.682159 159.704391C155.682159 160.497086,155.997101 161.257233,156.557587 161.817703C157.118057 162.378189,157.878204 162.693130,158.670898 162.693130C159.463593 162.693130,160.223740 162.378189,160.784210 161.817703C161.344696 161.257233,161.659637 160.497086,161.659637 159.704391Z" style="fill: rgb(100.000000%,100.000000%,100.000000%);stroke: none;"></path>
  <path d="M160.594849 122.082870C160.594849 121.290176,160.279907 120.530029,159.719421 119.969559C159.158951 119.409073,158.398804 119.094131,157.606110 119.094131C156.813416 119.094131,156.053268 119.409073,155.492798 119.969559C154.932312 120.530029,154.617371 121.290176,154.617371 122.082870C154.617371 122.875565,154.932312 123.635712,155.492798 124.196182C156.053268 124.756668,156.813416 125.071609,157.606110 125.071609C158.398804 125.071609,159.158951 124.756668,159.719421 124.196182C160.279907 123.635712,160.594849 122.875565,160.594849 122.082870Z" style="fill: rgb(100.000000%,100.000000%,100.000000%);stroke: none;"></path>
  <path d="M97.972214 191.749039C97.972214 190.956345,97.657272 190.196198,97.096786 189.635727C96.536316 189.075241,95.776169 188.760300,94.983475 188.760300C94.190781 188.760300,93.430634 189.075241,92.870163 189.635727C92.309677 190.196198,91.994736 190.956345,91.994736 191.749039C91.994736 192.541733,92.309677 193.301880,92.870163 193.862350C93.430634 194.422836,94.190781 194.737778,94.983475 194.737778C95.776169 194.737778,96.536316 194.422836,97.096786 193.862350C97.657272 193.301880,97.972214 192.541733,97.972214 191.749039Z" style="fill: rgb(100.000000%,100.000000%,100.000000%);stroke: none;"></path>
  <path d="M141.399841 177.271912C141.399841 176.479218,141.084900 175.719070,140.524414 175.158600C139.963943 174.598114,139.203796 174.283173,138.411102 174.283173C137.618408 174.283173,136.858261 174.598114,136.297791 175.158600C135.737305 175.719070,135.422363 176.479218,135.422363 177.271912C135.422363 178.064606,135.737305 178.824753,136.297791 179.385223C136.858261 179.945709,137.618408 180.260651,138.411102 180.260651C139.203796 180.260651,139.963943 179.945709,140.524414 179.385223C141.084900 178.824753,141.399841 178.064606,141.399841 177.271912Z" style="fill: rgb(100.000000%,100.000000%,100.000000%);stroke: none;"></path>
  <path d="M53.755829 166.960953C53.755829 166.168259,53.440887 165.408112,52.880402 164.847641C52.319931 164.287155,51.559784 163.972214,50.767090 163.972214C49.974396 163.972214,49.214249 164.287155,48.653778 164.847641C48.093292 165.408112,47.778351 166.168259,47.778351 166.960953C47.778351 167.753647,48.093292 168.513794,48.653778 169.074265C49.214249 169.634750,49.974396 169.949692,50.767090 169.949692C51.559784 169.949692,52.319931 169.634750,52.880402 169.074265C53.440887 168.513794,53.755829 167.753647,53.755829 166.960953Z" style="fill: rgb(100.000000%,100.000000%,100.000000%);stroke: none;"></path>
  <path d="M75.106232 191.385071C75.106232 190.592377,74.791290 189.832230,74.230804 189.271759C73.670334 188.711273,72.910187 188.396332,72.117493 188.396332C71.324799 188.396332,70.564651 188.711273,70.004181 189.271759C69.443695 189.832230,69.128754 190.592377,69.128754 191.385071C69.128754 192.177765,69.443695 192.937912,70.004181 193.498383C70.564651 194.058868,71.324799 194.373810,72.117493 194.373810C72.910187 194.373810,73.670334 194.058868,74.230804 193.498383C74.791290 192.937912,75.106232 192.177765,75.106232 191.385071Z" style="fill: rgb(100.000000%,100.000000%,100.000000%);stroke: none;"></path>
  <path d="M62.619537 142.446884C62.619537 141.654190,62.304596 140.894043,61.744110 140.333572C61.183640 139.773087,60.423492 139.458145,59.630798 139.458145C58.838104 139.458145,58.077957 139.773087,57.517487 140.333572C56.957001 140.894043,56.642059 141.654190,56.642059 142.446884C56.642059 143.239578,56.957001 143.999725,57.517487 144.560196C58.077957 145.120682,58.838104 145.435623,59.630798 145.435623C60.423492 145.435623,61.183640 145.120682,61.744110 144.560196C62.304596 143.999725,62.619537 143.239578,62.619537 142.446884Z" style="fill: rgb(100.000000%,100.000000%,100.000000%);stroke: none;"></path>
  <path d="M51.742645 153.995193C51.742645 153.202499,51.427704 152.442352,50.867218 151.881882C50.306747 151.321396,49.546600 151.006454,48.753906 151.006454C47.961212 151.006454,47.201065 151.321396,46.640594 151.881882C46.080109 152.442352,45.765167 153.202499,45.765167 153.995193C45.765167 154.787888,46.080109 155.548035,46.640594 156.108505C47.201065 156.668991,47.961212 156.983932,48.753906 156.983932C49.546600 156.983932,50.306747 156.668991,50.867218 156.108505C51.427704 155.548035,51.742645 154.787888,51.742645 153.995193Z" style="fill: rgb(100.000000%,100.000000%,100.000000%);stroke: none;"></path>
  <path d="M74.808136 138.040726C74.808136 137.248032,74.493195 136.487885,73.932709 135.927414C73.372238 135.366928,72.612091 135.051987,71.819397 135.051987C71.026703 135.051987,70.266556 135.366928,69.706085 135.927414C69.145599 136.487885,68.830658 137.248032,68.830658 138.040726C68.830658 138.833420,69.145599 139.593567,69.706085 140.154037C70.266556 140.714523,71.026703 141.029465,71.819397 141.029465C72.612091 141.029465,73.372238 140.714523,73.932709 140.154037C74.493195 139.593567,74.808136 138.833420,74.808136 138.040726Z" style="fill: rgb(100.000000%,100.000000%,100.000000%);stroke: none;"></path>
  <path d="M66.962692 140.730194C66.962692 139.937500,66.647751 139.177353,66.087265 138.616882C65.526794 138.056396,64.766647 137.741455,63.973953 137.741455C63.181259 137.741455,62.421112 138.056396,61.860641 138.616882C61.300156 139.177353,60.985214 139.937500,60.985214 140.730194C60.985214 141.522888,61.300156 142.283035,61.860641 142.843506C62.421112 143.403992,63.181259 143.718933,63.973953 143.718933C64.766647 143.718933,65.526794 143.403992,66.087265 142.843506C66.647751 142.283035,66.962692 141.522888,66.962692 140.730194Z" style="fill: rgb(100.000000%,100.000000%,100.000000%);stroke: none;"></path>
  <path d="M80.291779 129.131912C80.291779 128.339218,79.976837 127.579071,79.416351 127.018600C78.855881 126.458115,78.095734 126.143173,77.303040 126.143173C76.510345 126.143173,75.750198 126.458115,75.189728 127.018600C74.629242 127.579071,74.314301 128.339218,74.314301 129.131912C74.314301 129.924606,74.629242 130.684753,75.189728 131.245224C75.750198 131.805710,76.510345 132.120651,77.303040 132.120651C78.095734 132.120651,78.855881 131.805710,79.416351 131.245224C79.976837 130.684753,80.291779 129.924606,80.291779 129.131912Z" style="fill: rgb(100.000000%,100.000000%,100.000000%);stroke: none;"></path>
  <path d="M78.618927 136.502701C78.618927 135.710007,78.303986 134.949860,77.743500 134.389389C77.183029 133.828903,76.422882 133.513962,75.630188 133.513962C74.837494 133.513962,74.077347 133.828903,73.516876 134.389389C72.956390 134.949860,72.641449 135.710007,72.641449 136.502701C72.641449 137.295395,72.956390 138.055542,73.516876 138.616013C74.077347 139.176498,74.837494 139.491440,75.630188 139.491440C76.422882 139.491440,77.183029 139.176498,77.743500 138.616013C78.303986 138.055542,78.618927 137.295395,78.618927 136.502701Z" style="fill: rgb(100.000000%,100.000000%,100.000000%);stroke: none;"></path>
  <path d="M70.692764 119.364227C70.692764 118.571533,70.377823 117.811386,69.817337 117.250916C69.256866 116.690430,68.496719 116.375488,67.704025 116.375488C66.911331 116.375488,66.151184 116.690430,65.590714 117.250916C65.030228 117.811386,64.715286 118.571533,64.715286 119.364227C64.715286 120.156921,65.030228 120.917068,65.590714 121.477539C66.151184 122.038025,66.911331 122.352966,67.704025 122.352966C68.496719 122.352966,69.256866 122.038025,69.817337 121.477539C70.377823 120.917068,70.692764 120.156921,70.692764 119.364227Z" style="fill: rgb(100.000000%,100.000000%,100.000000%);stroke: none;"></path>
  <path d="M77.127533 126.043106C77.127533 125.250412,76.812592 124.490265,76.252106 123.929794C75.691635 123.369308,74.931488 123.054367,74.138794 123.054367C73.346100 123.054367,72.585953 123.369308,72.025482 123.929794C71.464996 124.490265,71.150055 125.250412,71.150055 126.043106C71.150055 126.835800,71.464996 127.595947,72.025482 128.156418C72.585953 128.716904,73.346100 129.031845,74.138794 129.031845C74.931488 129.031845,75.691635 128.716904,76.252106 128.156418C76.812592 127.595947,77.127533 126.835800,77.127533 126.043106Z" style="fill: rgb(100.000000%,100.000000%,100.000000%);stroke: none;"></path>
  <path d="M60.676224 106.457306C60.676224 105.664612,60.361282 104.904465,59.800797 104.343994C59.240326 103.783508,58.480179 103.468567,57.687485 103.468567C56.894791 103.468567,56.134644 103.783508,55.574173 104.343994C55.013687 104.904465,54.698746 105.664612,54.698746 106.457306C54.698746 107.250000,55.013687 108.010147,55.574173 108.570618C56.134644 109.131104,56.894791 109.446045,57.687485 109.446045C58.480179 109.446045,59.240326 109.131104,59.800797 108.570618C60.361282 108.010147,60.676224 107.250000,60.676224 106.457306Z" style="fill: rgb(100.000000%,100.000000%,100.000000%);stroke: none;"></path>
  <path d="M67.739029 114.919296C67.739029 114.126602,67.424088 113.366455,66.863602 112.805984C66.303131 112.245499,65.542984 111.930557,64.750290 111.930557C63.957596 111.930557,63.197449 112.245499,62.636978 112.805984C62.076492 113.366455,61.761551 114.126602,61.761551 114.919296C61.761551 115.711990,62.076492 116.472137,62.636978 117.032608C63.197449 117.593094,63.957596 117.908035,64.750290 117.908035C65.542984 117.908035,66.303131 117.593094,66.863602 117.032608C67.424088 116.472137,67.739029 115.711990,67.739029 114.919296Z" style="fill: rgb(100.000000%,100.000000%,100.000000%);stroke: none;"></path>
  <path d="M49.754456 93.092422C49.754456 92.299728,49.439514 91.539581,48.879028 90.979111C48.318558 90.418625,47.558411 90.103683,46.765717 90.103683C45.973022 90.103683,45.212875 90.418625,44.652405 90.979111C44.091919 91.539581,43.776978 92.299728,43.776978 93.092422C43.776978 93.885117,44.091919 94.645264,44.652405 95.205734C45.212875 95.766220,45.973022 96.081161,46.765717 96.081161C47.558411 96.081161,48.318558 95.766220,48.879028 95.205734C49.439514 94.645264,49.754456 93.885117,49.754456 93.092422Z" style="fill: rgb(100.000000%,100.000000%,100.000000%);stroke: none;"></path>
  <path d="M56.497833 102.502380C56.497833 101.709686,56.182892 100.949539,55.622406 100.389069C55.061935 99.828583,54.301788 99.513641,53.509094 99.513641C52.716400 99.513641,51.956253 99.828583,51.395782 100.389069C50.835297 100.949539,50.520355 101.709686,50.520355 102.502380C50.520355 103.295074,50.835297 104.055222,51.395782 104.615692C51.956253 105.176178,52.716400 105.491119,53.509094 105.491119C54.301788 105.491119,55.061935 105.176178,55.622406 104.615692C56.182892 104.055222,56.497833 103.295074,56.497833 102.502380Z" style="fill: rgb(100.000000%,100.000000%,100.000000%);stroke: none;"></path>
  <path d="M31.989258 79.577713C31.989258 78.785019,31.674316 78.024872,31.113831 77.464401C30.553360 76.903915,29.793213 76.588974,29.000519 76.588974C28.207825 76.588974,27.447678 76.903915,26.887207 77.464401C26.326721 78.024872,26.011780 78.785019,26.011780 79.577713C26.011780 80.370407,26.326721 81.130554,26.887207 81.691025C27.447678 82.251511,28.207825 82.566452,29.000519 82.566452C29.793213 82.566452,30.553360 82.251511,31.113831 81.691025C31.674316 81.130554,31.989258 80.370407,31.989258 79.577713Z" style="fill: rgb(100.000000%,100.000000%,100.000000%);stroke: none;"></path>
  <path d="M47.073914 87.501343C47.073914 86.708649,46.758972 85.948502,46.198486 85.388031C45.638016 84.827545,44.877869 84.512604,44.085175 84.512604C43.292480 84.512604,42.532333 84.827545,41.971863 85.388031C41.411377 85.948502,41.096436 86.708649,41.096436 87.501343C41.096436 88.294037,41.411377 89.054184,41.971863 89.614655C42.532333 90.175140,43.292480 90.490082,44.085175 90.490082C44.877869 90.490082,45.638016 90.175140,46.198486 89.614655C46.758972 89.054184,47.073914 88.294037,47.073914 87.501343Z" style="fill: rgb(100.000000%,100.000000%,100.000000%);stroke: none;"></path>
  <path d="M5.171371 113.024643C5.171371 112.231949,4.856430 111.471802,4.295944 110.911331C3.735474 110.350845,2.975327 110.035904,2.182632 110.035904C1.389938 110.035904,0.629791 110.350845,0.069321 110.911331C-0.491165 111.471802,-0.806107 112.231949,-0.806107 113.024643C-0.806107 113.817337,-0.491165 114.577484,0.069321 115.137955C0.629791 115.698441,1.389938 116.013382,2.182632 116.013382C2.975327 116.013382,3.735474 115.698441,4.295944 115.137955C4.856430 114.577484,5.171371 113.817337,5.171371 113.024643Z" style="fill: rgb(100.000000%,100.000000%,100.000000%);stroke: none;"></path>
  <path d="M20.447372 86.100647C20.447372 85.307953,20.132431 84.547806,19.571945 83.987335C19.011475 83.426849,18.251328 83.111908,17.458633 83.111908C16.665939 83.111908,15.905792 83.426849,15.345322 83.987335C14.784836 84.547806,14.469894 85.307953,14.469894 86.100647C14.469894 86.893341,14.784836 87.653488,15.345322 88.213959C15.905792 88.774445,16.665939 89.089386,17.458633 89.089386C18.251328 89.089386,19.011475 88.774445,19.571945 88.213959C20.132431 87.653488,20.447372 86.893341,20.447372 86.100647Z" style="fill: rgb(100.000000%,100.000000%,100.000000%);stroke: none;"></path>
  <path d="M27.480591 166.595444C27.480591 165.802750,27.165649 165.042603,26.605164 164.482132C26.044693 163.921646,25.284546 163.606705,24.491852 163.606705C23.699158 163.606705,22.939011 163.921646,22.378540 164.482132C21.818054 165.042603,21.503113 165.802750,21.503113 166.595444C21.503113 167.388138,21.818054 168.148285,22.378540 168.708755C22.939011 169.269241,23.699158 169.584183,24.491852 169.584183C25.284546 169.584183,26.044693 169.269241,26.605164 168.708755C27.165649 168.148285,27.480591 167.388138,27.480591 166.595444Z" style="fill: rgb(100.000000%,100.000000%,100.000000%);stroke: none;"></path>
  <path d="M8.789825 133.117599C8.789825 132.324905,8.474884 131.564758,7.914398 131.004288C7.353928 130.443802,6.593781 130.128860,5.801086 130.128860C5.008392 130.128860,4.248245 130.443802,3.687775 131.004288C3.127289 131.564758,2.812347 132.324905,2.812347 133.117599C2.812347 133.910294,3.127289 134.670441,3.687775 135.230911C4.248245 135.791397,5.008392 136.106339,5.801086 136.106339C6.593781 136.106339,7.353928 135.791397,7.914398 135.230911C8.474884 134.670441,8.789825 133.910294,8.789825 133.117599Z" style="fill: rgb(100.000000%,100.000000%,100.000000%);stroke: none;"></path>
  <path d="M73.305862 173.279236C73.305862 172.486542,72.990921 171.726395,72.430435 171.165924C71.869965 170.605438,71.109818 170.290497,70.317123 170.290497C69.524429 170.290497,68.764282 170.605438,68.203812 171.165924C67.643326 171.726395,67.328384 172.486542,67.328384 173.279236C67.328384 174.071930,67.643326 174.832077,68.203812 175.392548C68.764282 175.953033,69.524429 176.267975,70.317123 176.267975C71.109818 176.267975,71.869965 175.953033,72.430435 175.392548C72.990921 174.832077,73.305862 174.071930,73.305862 173.279236Z" style="fill: rgb(100.000000%,100.000000%,100.000000%);stroke: none;"></path>
  <path d="M43.599136 179.890350C43.599136 179.097656,43.284195 178.337509,42.723709 177.777039C42.163239 177.216553,41.403091 176.901611,40.610397 176.901611C39.817703 176.901611,39.057556 177.216553,38.497086 177.777039C37.936600 178.337509,37.621658 179.097656,37.621658 179.890350C37.621658 180.683044,37.936600 181.443192,38.497086 182.003662C39.057556 182.564148,39.817703 182.879089,40.610397 182.879089C41.403091 182.879089,42.163239 182.564148,42.723709 182.003662C43.284195 181.443192,43.599136 180.683044,43.599136 179.890350Z" style="fill: rgb(100.000000%,100.000000%,100.000000%);stroke: none;"></path>
  <path d="M78.063904 146.731110C78.063904 145.938416,77.748962 145.178268,77.188477 144.617798C76.628006 144.057312,75.867859 143.742371,75.075165 143.742371C74.282471 143.742371,73.522324 144.057312,72.961853 144.617798C72.401367 145.178268,72.086426 145.938416,72.086426 146.731110C72.086426 147.523804,72.401367 148.283951,72.961853 148.844421C73.522324 149.404907,74.282471 149.719849,75.075165 149.719849C75.867859 149.719849,76.628006 149.404907,77.188477 148.844421C77.748962 148.283951,78.063904 147.523804,78.063904 146.731110Z" style="fill: rgb(100.000000%,100.000000%,100.000000%);stroke: none;"></path>
  <path d="M81.812653 162.779984C81.812653 161.987289,81.497711 161.227142,80.937225 160.666672C80.376755 160.106186,79.616608 159.791245,78.823914 159.791245C78.031219 159.791245,77.271072 160.106186,76.710602 160.666672C76.150116 161.227142,75.835175 161.987289,75.835175 162.779984C75.835175 163.572678,76.150116 164.332825,76.710602 164.893295C77.271072 165.453781,78.031219 165.768723,78.823914 165.768723C79.616608 165.768723,80.376755 165.453781,80.937225 164.893295C81.497711 164.332825,81.812653 163.572678,81.812653 162.779984Z" style="fill: rgb(100.000000%,100.000000%,100.000000%);stroke: none;"></path>
  <path d="M68.697388 136.602875C68.697388 135.810181,68.382446 135.050034,67.821960 134.489563C67.261490 133.929077,66.501343 133.614136,65.708649 133.614136C64.915955 133.614136,64.155807 133.929077,63.595337 134.489563C63.034851 135.050034,62.719910 135.810181,62.719910 136.602875C62.719910 137.395569,63.034851 138.155716,63.595337 138.716187C64.155807 139.276672,64.915955 139.591614,65.708649 139.591614C66.501343 139.591614,67.261490 139.276672,67.821960 138.716187C68.382446 138.155716,68.697388 137.395569,68.697388 136.602875Z" style="fill: rgb(100.000000%,100.000000%,100.000000%);stroke: none;"></path>
  <path d="M74.742599 142.825333C74.742599 142.032639,74.427658 141.272491,73.867172 140.712021C73.306702 140.151535,72.546555 139.836594,71.753860 139.836594C70.961166 139.836594,70.201019 140.151535,69.640549 140.712021C69.080063 141.272491,68.765121 142.032639,68.765121 142.825333C68.765121 143.618027,69.080063 144.378174,69.640549 144.938644C70.201019 145.499130,70.961166 145.814072,71.753860 145.814072C72.546555 145.814072,73.306702 145.499130,73.867172 144.938644C74.427658 144.378174,74.742599 143.618027,74.742599 142.825333Z" style="fill: rgb(100.000000%,100.000000%,100.000000%);stroke: none;"></path>
  <path d="M67.408676 126.481766C67.408676 125.689072,67.093735 124.928925,66.533249 124.368454C65.972778 123.807968,65.212631 123.493027,64.419937 123.493027C63.627243 123.493027,62.867096 123.807968,62.306625 124.368454C61.746140 124.928925,61.431198 125.689072,61.431198 126.481766C61.431198 127.274460,61.746140 128.034607,62.306625 128.595078C62.867096 129.155563,63.627243 129.470505,64.419937 129.470505C65.212631 129.470505,65.972778 129.155563,66.533249 128.595078C67.093735 128.034607,67.408676 127.274460,67.408676 126.481766Z" style="fill: rgb(100.000000%,100.000000%,100.000000%);stroke: none;"></path>
  <path d="M65.974152 133.603638C65.974152 132.810944,65.659210 132.050797,65.098724 131.490326C64.538254 130.929840,63.778107 130.614899,62.985413 130.614899C62.192719 130.614899,61.432571 130.929840,60.872101 131.490326C60.311615 132.050797,59.996674 132.810944,59.996674 133.603638C59.996674 134.396332,60.311615 135.156479,60.872101 135.716949C61.432571 136.277435,62.192719 136.592377,62.985413 136.592377C63.778107 136.592377,64.538254 136.277435,65.098724 135.716949C65.659210 135.156479,65.974152 134.396332,65.974152 133.603638Z" style="fill: rgb(100.000000%,100.000000%,100.000000%);stroke: none;"></path>
  <path d="M79.534653 120.685715C79.534653 119.893021,79.219711 119.132874,78.659225 118.572403C78.098755 118.011917,77.338608 117.696976,76.545914 117.696976C75.753220 117.696976,74.993073 118.011917,74.432602 118.572403C73.872116 119.132874,73.557175 119.893021,73.557175 120.685715C73.557175 121.478409,73.872116 122.238556,74.432602 122.799026C74.993073 123.359512,75.753220 123.674454,76.545914 123.674454C77.338608 123.674454,78.098755 123.359512,78.659225 122.799026C79.219711 122.238556,79.534653 121.478409,79.534653 120.685715Z" style="fill: rgb(100.000000%,100.000000%,100.000000%);stroke: none;"></path>
  <path d="M71.074417 124.787872C71.074417 123.995178,70.759476 123.235031,70.198990 122.674561C69.638519 122.114075,68.878372 121.799133,68.085678 121.799133C67.292984 121.799133,66.532837 122.114075,65.972366 122.674561C65.411880 123.235031,65.096939 123.995178,65.096939 124.787872C65.096939 125.580566,65.411880 126.340714,65.972366 126.901184C66.532837 127.461670,67.292984 127.776611,68.085678 127.776611C68.878372 127.776611,69.638519 127.461670,70.198990 126.901184C70.759476 126.340714,71.074417 125.580566,71.074417 124.787872Z" style="fill: rgb(100.000000%,100.000000%,100.000000%);stroke: none;"></path>
  <path d="M94.250992 110.060638C94.250992 109.267944,93.936050 108.507797,93.375565 107.947327C92.815094 107.386841,92.054947 107.071899,91.262253 107.071899C90.469559 107.071899,89.709412 107.386841,89.148941 107.947327C88.588455 108.507797,88.273514 109.267944,88.273514 110.060638C88.273514 110.853333,88.588455 111.613480,89.148941 112.173950C89.709412 112.734436,90.469559 113.049377,91.262253 113.049377C92.054947 113.049377,92.815094 112.734436,93.375565 112.173950C93.936050 111.613480,94.250992 110.853333,94.250992 110.060638Z" style="fill: rgb(100.000000%,100.000000%,100.000000%);stroke: none;"></path>
  <path d="M84.273804 117.431015C84.273804 116.638321,83.958862 115.878174,83.398376 115.317703C82.837906 114.757217,82.077759 114.442276,81.285065 114.442276C80.492371 114.442276,79.732224 114.757217,79.171753 115.317703C78.611267 115.878174,78.296326 116.638321,78.296326 117.431015C78.296326 118.223709,78.611267 118.983856,79.171753 119.544327C79.732224 120.104813,80.492371 120.419754,81.285065 120.419754C82.077759 120.419754,82.837906 120.104813,83.398376 119.544327C83.958862 118.983856,84.273804 118.223709,84.273804 117.431015Z" style="fill: rgb(100.000000%,100.000000%,100.000000%);stroke: none;"></path>
  <path d="M108.924133 95.645828C108.924133 94.853134,108.609192 94.092987,108.048706 93.532516C107.488235 92.972031,106.728088 92.657089,105.935394 92.657089C105.142700 92.657089,104.382553 92.972031,103.822083 93.532516C103.261597 94.092987,102.946655 94.853134,102.946655 95.645828C102.946655 96.438522,103.261597 97.198669,103.822083 97.759140C104.382553 98.319626,105.142700 98.634567,105.935394 98.634567C106.728088 98.634567,107.488235 98.319626,108.048706 97.759140C108.609192 97.198669,108.924133 96.438522,108.924133 95.645828Z" style="fill: rgb(100.000000%,100.000000%,100.000000%);stroke: none;"></path>
  <path d="M99.471756 105.870605C99.471756 105.077911,99.156815 104.317764,98.596329 103.757294C98.035858 103.196808,97.275711 102.881866,96.483017 102.881866C95.690323 102.881866,94.930176 103.196808,94.369705 103.757294C93.809219 104.317764,93.494278 105.077911,93.494278 105.870605C93.494278 106.663300,93.809219 107.423447,94.369705 107.983917C94.930176 108.544403,95.690323 108.859344,96.483017 108.859344C97.275711 108.859344,98.035858 108.544403,98.596329 107.983917C99.156815 107.423447,99.471756 106.663300,99.471756 105.870605Z" style="fill: rgb(100.000000%,100.000000%,100.000000%);stroke: none;"></path>
  <path d="M124.540802 81.359482C124.540802 80.566788,124.225861 79.806641,123.665375 79.246170C123.104904 78.685684,122.344757 78.370743,121.552063 78.370743C120.759369 78.370743,119.999222 78.685684,119.438751 79.246170C118.878265 79.806641,118.563324 80.566788,118.563324 81.359482C118.563324 82.152176,118.878265 82.912323,119.438751 83.472794C119.999222 84.033279,120.759369 84.348221,121.552063 84.348221C122.344757 84.348221,123.104904 84.033279,123.665375 83.472794C124.225861 82.912323,124.540802 82.152176,124.540802 81.359482Z" style="fill: rgb(100.000000%,100.000000%,100.000000%);stroke: none;"></path>
  <path d="M113.033936 89.489334C113.033936 88.696640,112.718994 87.936493,112.158508 87.376022C111.598038 86.815536,110.837891 86.500595,110.045197 86.500595C109.252502 86.500595,108.492355 86.815536,107.931885 87.376022C107.371399 87.936493,107.056458 88.696640,107.056458 89.489334C107.056458 90.282028,107.371399 91.042175,107.931885 91.602646C108.492355 92.163132,109.252502 92.478073,110.045197 92.478073C110.837891 92.478073,111.598038 92.163132,112.158508 91.602646C112.718994 91.042175,113.033936 90.282028,113.033936 89.489334Z" style="fill: rgb(100.000000%,100.000000%,100.000000%);stroke: none;"></path>
  <path d="M142.798508 76.110458C142.798508 75.317764,142.483566 74.557617,141.923080 73.997147C141.362610 73.436661,140.602463 73.121719,139.809769 73.121719C139.017075 73.121719,138.256927 73.436661,137.696457 73.997147C137.135971 74.557617,136.821030 75.317764,136.821030 76.110458C136.821030 76.903152,137.135971 77.663300,137.696457 78.223770C138.256927 78.784256,139.017075 79.099197,139.809769 79.099197C140.602463 79.099197,141.362610 78.784256,141.923080 78.223770C142.483566 77.663300,142.798508 76.903152,142.798508 76.110458Z" style="fill: rgb(100.000000%,100.000000%,100.000000%);stroke: none;"></path>
  <path d="M131.208176 79.508652C131.208176 78.715958,130.893234 77.955811,130.332748 77.395340C129.772278 76.834854,129.012131 76.519913,128.219437 76.519913C127.426743 76.519913,126.666595 76.834854,126.106125 77.395340C125.545639 77.955811,125.230698 78.715958,125.230698 79.508652C125.230698 80.301346,125.545639 81.061493,126.106125 81.621964C126.666595 82.182449,127.426743 82.497391,128.219437 82.497391C129.012131 82.497391,129.772278 82.182449,130.332748 81.621964C130.893234 81.061493,131.208176 80.301346,131.208176 79.508652Z" style="fill: rgb(100.000000%,100.000000%,100.000000%);stroke: none;"></path>
  <path d="M161.109238 64.408890C161.109238 63.616196,160.794296 62.856049,160.233810 62.295578C159.673340 61.735092,158.913193 61.420151,158.120499 61.420151C157.327805 61.420151,156.567657 61.735092,156.007187 62.295578C155.446701 62.856049,155.131760 63.616196,155.131760 64.408890C155.131760 65.201584,155.446701 65.961731,156.007187 66.522202C156.567657 67.082687,157.327805 67.397629,158.120499 67.397629C158.913193 67.397629,159.673340 67.082687,160.233810 66.522202C160.794296 65.961731,161.109238 65.201584,161.109238 64.408890Z" style="fill: rgb(100.000000%,100.000000%,100.000000%);stroke: none;"></path>
  <path d="M147.909027 74.519897C147.909027 73.727203,147.594086 72.967056,147.033600 72.406586C146.473129 71.846100,145.712982 71.531158,144.920288 71.531158C144.127594 71.531158,143.367447 71.846100,142.806976 72.406586C142.246490 72.967056,141.931549 73.727203,141.931549 74.519897C141.931549 75.312592,142.246490 76.072739,142.806976 76.633209C143.367447 77.193695,144.127594 77.508636,144.920288 77.508636C145.712982 77.508636,146.473129 77.193695,147.033600 76.633209C147.594086 76.072739,147.909027 75.312592,147.909027 74.519897Z" style="fill: rgb(100.000000%,100.000000%,100.000000%);stroke: none;"></path>
  <path d="M155.768173 21.699646C155.768173 20.906952,155.453232 20.146805,154.892746 19.586334C154.332275 19.025848,153.572128 18.710907,152.779434 18.710907C151.986740 18.710907,151.226593 19.025848,150.666122 19.586334C150.105637 20.146805,149.790695 20.906952,149.790695 21.699646C149.790695 22.492340,150.105637 23.252487,150.666122 23.812958C151.226593 24.373444,151.986740 24.688385,152.779434 24.688385C153.572128 24.688385,154.332275 24.373444,154.892746 23.812958C155.453232 23.252487,155.768173 22.492340,155.768173 21.699646Z" style="fill: rgb(100.000000%,100.000000%,100.000000%);stroke: none;"></path>
  <path d="M163.951721 52.338486C163.951721 51.545792,163.636780 50.785645,163.076294 50.225174C162.515823 49.664688,161.755676 49.349747,160.962982 49.349747C160.170288 49.349747,159.410141 49.664688,158.849670 50.225174C158.289185 50.785645,157.974243 51.545792,157.974243 52.338486C157.974243 53.131180,158.289185 53.891327,158.849670 54.451797C159.410141 55.012283,160.170288 55.327225,160.962982 55.327225C161.755676 55.327225,162.515823 55.012283,163.076294 54.451797C163.636780 53.891327,163.951721 53.131180,163.951721 52.338486Z" style="fill: rgb(100.000000%,100.000000%,100.000000%);stroke: none;"></path>
  <path d="M97.100128 2.573929C97.100128 1.781235,96.785187 1.021088,96.224701 0.460617C95.664230 -0.099869,94.904083 -0.414810,94.111389 -0.414810C93.318695 -0.414810,92.558548 -0.099869,91.998077 0.460617C91.437592 1.021088,91.122650 1.781235,91.122650 2.573929C91.122650 3.366623,91.437592 4.126770,91.998077 4.687241C92.558548 5.247726,93.318695 5.562668,94.111389 5.562668C94.904083 5.562668,95.664230 5.247726,96.224701 4.687241C96.785187 4.126770,97.100128 3.366623,97.100128 2.573929Z" style="fill: rgb(100.000000%,100.000000%,100.000000%);stroke: none;"></path>
  <path d="M136.461365 10.718002C136.461365 9.925308,136.146423 9.165161,135.585938 8.604691C135.025467 8.044205,134.265320 7.729263,133.472626 7.729263C132.679932 7.729263,131.919785 8.044205,131.359314 8.604691C130.798828 9.165161,130.483887 9.925308,130.483887 10.718002C130.483887 11.510696,130.798828 12.270844,131.359314 12.831314C131.919785 13.391800,132.679932 13.706741,133.472626 13.706741C134.265320 13.706741,135.025467 13.391800,135.585938 12.831314C136.146423 12.270844,136.461365 11.510696,136.461365 10.718002Z" style="fill: rgb(100.000000%,100.000000%,100.000000%);stroke: none;"></path>
  <path d="M56.472305 28.305573C56.472305 27.512878,56.157364 26.752731,55.596878 26.192261C55.036407 25.631775,54.276260 25.316833,53.483566 25.316833C52.690872 25.316833,51.930725 25.631775,51.370255 26.192261C50.809769 26.752731,50.494827 27.512878,50.494827 28.305573C50.494827 29.098267,50.809769 29.858414,51.370255 30.418884C51.930725 30.979370,52.690872 31.294312,53.483566 31.294312C54.276260 31.294312,55.036407 30.979370,55.596878 30.418884C56.157364 29.858414,56.472305 29.098267,56.472305 28.305573Z" style="fill: rgb(100.000000%,100.000000%,100.000000%);stroke: none;"></path>
  <path d="M76.200455 4.541733C76.200455 3.749039,75.885513 2.988892,75.325027 2.428421C74.764557 1.867935,74.004410 1.552994,73.211716 1.552994C72.419022 1.552994,71.658875 1.867935,71.098404 2.428421C70.537918 2.988892,70.222977 3.749039,70.222977 4.541733C70.222977 5.334427,70.537918 6.094574,71.098404 6.655045C71.658875 7.215530,72.419022 7.530472,73.211716 7.530472C74.004410 7.530472,74.764557 7.215530,75.325027 6.655045C75.885513 6.094574,76.200455 5.334427,76.200455 4.541733Z" style="fill: rgb(100.000000%,100.000000%,100.000000%);stroke: none;"></path>
  <path d="M65.253860 52.976135C65.253860 52.183441,64.938919 51.423294,64.378433 50.862823C63.817963 50.302338,63.057816 49.987396,62.265121 49.987396C61.472427 49.987396,60.712280 50.302338,60.151810 50.862823C59.591324 51.423294,59.276382 52.183441,59.276382 52.976135C59.276382 53.768829,59.591324 54.528976,60.151810 55.089447C60.712280 55.649933,61.472427 55.964874,62.265121 55.964874C63.057816 55.964874,63.817963 55.649933,64.378433 55.089447C64.938919 54.528976,65.253860 53.768829,65.253860 52.976135Z" style="fill: rgb(100.000000%,100.000000%,100.000000%);stroke: none;"></path>
  <path d="M54.566849 41.067795C54.566849 40.275101,54.251907 39.514954,53.691422 38.954483C53.130951 38.393997,52.370804 38.079056,51.578110 38.079056C50.785416 38.079056,50.025269 38.393997,49.464798 38.954483C48.904312 39.514954,48.589371 40.275101,48.589371 41.067795C48.589371 41.860489,48.904312 42.620636,49.464798 43.181107C50.025269 43.741592,50.785416 44.056534,51.578110 44.056534C52.370804 44.056534,53.130951 43.741592,53.691422 43.181107C54.251907 42.620636,54.566849 41.860489,54.566849 41.067795Z" style="fill: rgb(100.000000%,100.000000%,100.000000%);stroke: none;"></path>
  <path d="M78.143784 57.942062C78.143784 57.149368,77.828842 56.389221,77.268356 55.828751C76.707886 55.268265,75.947739 54.953323,75.155045 54.953323C74.362350 54.953323,73.602203 55.268265,73.041733 55.828751C72.481247 56.389221,72.166306 57.149368,72.166306 57.942062C72.166306 58.734756,72.481247 59.494904,73.041733 60.055374C73.602203 60.615860,74.362350 60.930801,75.155045 60.930801C75.947739 60.930801,76.707886 60.615860,77.268356 60.055374C77.828842 59.494904,78.143784 58.734756,78.143784 57.942062Z" style="fill: rgb(100.000000%,100.000000%,100.000000%);stroke: none;"></path>
  <path d="M69.748337 54.876633C69.748337 54.083939,69.433395 53.323792,68.872910 52.763321C68.312439 52.202835,67.552292 51.887894,66.759598 51.887894C65.966904 51.887894,65.206757 52.202835,64.646286 52.763321C64.085800 53.323792,63.770859 54.083939,63.770859 54.876633C63.770859 55.669327,64.085800 56.429474,64.646286 56.989944C65.206757 57.550430,65.966904 57.865372,66.759598 57.865372C67.552292 57.865372,68.312439 57.550430,68.872910 56.989944C69.433395 56.429474,69.748337 55.669327,69.748337 54.876633Z" style="fill: rgb(100.000000%,100.000000%,100.000000%);stroke: none;"></path>
  <path d="M83.685608 68.014908C83.685608 67.222214,83.370667 66.462067,82.810181 65.901596C82.249710 65.341110,81.489563 65.026169,80.696869 65.026169C79.904175 65.026169,79.144028 65.341110,78.583557 65.901596C78.023071 66.462067,77.708130 67.222214,77.708130 68.014908C77.708130 68.807602,78.023071 69.567749,78.583557 70.128220C79.144028 70.688705,79.904175 71.003647,80.696869 71.003647C81.489563 71.003647,82.249710 70.688705,82.810181 70.128220C83.370667 69.567749,83.685608 68.807602,83.685608 68.014908Z" style="fill: rgb(100.000000%,100.000000%,100.000000%);stroke: none;"></path>
  <path d="M82.372208 59.784882C82.372208 58.992188,82.057266 58.232040,81.496780 57.671570C80.936310 57.111084,80.176163 56.796143,79.383469 56.796143C78.590775 56.796143,77.830627 57.111084,77.270157 57.671570C76.709671 58.232040,76.394730 58.992188,76.394730 59.784882C76.394730 60.577576,76.709671 61.337723,77.270157 61.898193C77.830627 62.458679,78.590775 62.773621,79.383469 62.773621C80.176163 62.773621,80.936310 62.458679,81.496780 61.898193C82.057266 61.337723,82.372208 60.577576,82.372208 59.784882Z" style="fill: rgb(100.000000%,100.000000%,100.000000%);stroke: none;"></path>
  <path d="M72.512726 77.479416C72.512726 76.686722,72.197784 75.926575,71.637299 75.366104C71.076828 74.805618,70.316681 74.490677,69.523987 74.490677C68.731293 74.490677,67.971146 74.805618,67.410675 75.366104C66.850189 75.926575,66.535248 76.686722,66.535248 77.479416C66.535248 78.272110,66.850189 79.032257,67.410675 79.592728C67.971146 80.153214,68.731293 80.468155,69.523987 80.468155C70.316681 80.468155,71.076828 80.153214,71.637299 79.592728C72.197784 79.032257,72.512726 78.272110,72.512726 77.479416Z" style="fill: rgb(100.000000%,100.000000%,100.000000%);stroke: none;"></path>
  <path d="M79.898666 71.081085C79.898666 70.288391,79.583725 69.528244,79.023239 68.967773C78.462769 68.407288,77.702621 68.092346,76.909927 68.092346C76.117233 68.092346,75.357086 68.407288,74.796616 68.967773C74.236130 69.528244,73.921188 70.288391,73.921188 71.081085C73.921188 71.873779,74.236130 72.633926,74.796616 73.194397C75.357086 73.754883,76.117233 74.069824,76.909927 74.069824C77.702621 74.069824,78.462769 73.754883,79.023239 73.194397C79.583725 72.633926,79.898666 71.873779,79.898666 71.081085Z" style="fill: rgb(100.000000%,100.000000%,100.000000%);stroke: none;"></path>
  <path d="M61.302109 89.727600C61.302109 88.934906,60.987167 88.174759,60.426682 87.614288C59.866211 87.053802,59.106064 86.738861,58.313370 86.738861C57.520676 86.738861,56.760529 87.053802,56.200058 87.614288C55.639572 88.174759,55.324631 88.934906,55.324631 89.727600C55.324631 90.520294,55.639572 91.280441,56.200058 91.840912C56.760529 92.401398,57.520676 92.716339,58.313370 92.716339C59.106064 92.716339,59.866211 92.401398,60.426682 91.840912C60.987167 91.280441,61.302109 90.520294,61.302109 89.727600Z" style="fill: rgb(100.000000%,100.000000%,100.000000%);stroke: none;"></path>
  <path d="M69.116470 81.740341C69.116470 80.947647,68.801529 80.187500,68.241043 79.627029C67.680573 79.066544,66.920425 78.751602,66.127731 78.751602C65.335037 78.751602,64.574890 79.066544,64.014420 79.627029C63.453934 80.187500,63.138992 80.947647,63.138992 81.740341C63.138992 82.533035,63.453934 83.293182,64.014420 83.853653C64.574890 84.414139,65.335037 84.729080,66.127731 84.729080C66.920425 84.729080,67.680573 84.414139,68.241043 83.853653C68.801529 83.293182,69.116470 82.533035,69.116470 81.740341Z" style="fill: rgb(100.000000%,100.000000%,100.000000%);stroke: none;"></path>
  <path d="M49.471588 102.339981C49.471588 101.547287,49.156647 100.787140,48.596161 100.226669C48.035690 99.666183,47.275543 99.351242,46.482849 99.351242C45.690155 99.351242,44.930008 99.666183,44.369537 100.226669C43.809052 100.787140,43.494110 101.547287,43.494110 102.339981C43.494110 103.132675,43.809052 103.892822,44.369537 104.453293C44.930008 105.013779,45.690155 105.328720,46.482849 105.328720C47.275543 105.328720,48.035690 105.013779,48.596161 104.453293C49.156647 103.892822,49.471588 103.132675,49.471588 102.339981Z" style="fill: rgb(100.000000%,100.000000%,100.000000%);stroke: none;"></path>
  <path d="M56.828690 93.408707C56.828690 92.616013,56.513748 91.855865,55.953262 91.295395C55.392792 90.734909,54.632645 90.419968,53.839951 90.419968C53.047256 90.419968,52.287109 90.734909,51.726639 91.295395C51.166153 91.855865,50.851212 92.616013,50.851212 93.408707C50.851212 94.201401,51.166153 94.961548,51.726639 95.522018C52.287109 96.082504,53.047256 96.397446,53.839951 96.397446C54.632645 96.397446,55.392792 96.082504,55.953262 95.522018C56.513748 94.961548,56.828690 94.201401,56.828690 93.408707Z" style="fill: rgb(100.000000%,100.000000%,100.000000%);stroke: none;"></path>
  <path d="M30.912476 114.663849C30.912476 113.871155,30.597534 113.111008,30.037048 112.550537C29.476578 111.990051,28.716431 111.675110,27.923737 111.675110C27.131042 111.675110,26.370895 111.990051,25.810425 112.550537C25.249939 113.111008,24.934998 113.871155,24.934998 114.663849C24.934998 115.456543,25.249939 116.216690,25.810425 116.777161C26.370895 117.337646,27.131042 117.652588,27.923737 117.652588C28.716431 117.652588,29.476578 117.337646,30.037048 116.777161C30.597534 116.216690,30.912476 115.456543,30.912476 114.663849Z" style="fill: rgb(100.000000%,100.000000%,100.000000%);stroke: none;"></path>
  <path d="M46.447250 107.690262C46.447250 106.897568,46.132309 106.137421,45.571823 105.576950C45.011353 105.016464,44.251205 104.701523,43.458511 104.701523C42.665817 104.701523,41.905670 105.016464,41.345200 105.576950C40.784714 106.137421,40.469772 106.897568,40.469772 107.690262C40.469772 108.482956,40.784714 109.243103,41.345200 109.803574C41.905670 110.364059,42.665817 110.679001,43.458511 110.679001C44.251205 110.679001,45.011353 110.364059,45.571823 109.803574C46.132309 109.243103,46.447250 108.482956,46.447250 107.690262Z" style="fill: rgb(100.000000%,100.000000%,100.000000%);stroke: none;"></path>
  <path d="M6.437759 79.776123C6.437759 78.983429,6.122818 78.223282,5.562332 77.662811C5.001862 77.102325,4.241714 76.787384,3.449020 76.787384C2.656326 76.787384,1.896179 77.102325,1.335709 77.662811C0.775223 78.223282,0.460281 78.983429,0.460281 79.776123C0.460281 80.568817,0.775223 81.328964,1.335709 81.889435C1.896179 82.449921,2.656326 82.764862,3.449020 82.764862C4.241714 82.764862,5.001862 82.449921,5.562332 81.889435C6.122818 81.328964,6.437759 80.568817,6.437759 79.776123Z" style="fill: rgb(100.000000%,100.000000%,100.000000%);stroke: none;"></path>
  <path d="M19.752136 107.409912C19.752136 106.617218,19.437195 105.857071,18.876709 105.296600C18.316238 104.736115,17.556091 104.421173,16.763397 104.421173C15.970703 104.421173,15.210556 104.736115,14.650085 105.296600C14.089600 105.857071,13.774658 106.617218,13.774658 107.409912C13.774658 108.202606,14.089600 108.962753,14.650085 109.523224C15.210556 110.083710,15.970703 110.398651,16.763397 110.398651C17.556091 110.398651,18.316238 110.083710,18.876709 109.523224C19.437195 108.962753,19.752136 108.202606,19.752136 107.409912Z" style="fill: rgb(100.000000%,100.000000%,100.000000%);stroke: none;"></path>
  <path d="M30.879257 28.736679C30.879257 27.943985,30.564316 27.183838,30.003830 26.623367C29.443359 26.062881,28.683212 25.747940,27.890518 25.747940C27.097824 25.747940,26.337677 26.062881,25.777206 26.623367C25.216721 27.183838,24.901779 27.943985,24.901779 28.736679C24.901779 29.529373,25.216721 30.289520,25.777206 30.849991C26.337677 31.410477,27.097824 31.725418,27.890518 31.725418C28.683212 31.725418,29.443359 31.410477,30.003830 30.849991C30.564316 30.289520,30.879257 29.529373,30.879257 28.736679Z" style="fill: rgb(100.000000%,100.000000%,100.000000%);stroke: none;"></path>
  <path d="M11.234116 60.332794C11.234116 59.540100,10.919174 58.779953,10.358688 58.219482C9.798218 57.658997,9.038071 57.344055,8.245377 57.344055C7.452682 57.344055,6.692535 57.658997,6.132065 58.219482C5.571579 58.779953,5.256638 59.540100,5.256638 60.332794C5.256638 61.125488,5.571579 61.885635,6.132065 62.446106C6.692535 63.006592,7.452682 63.321533,8.245377 63.321533C9.038071 63.321533,9.798218 63.006592,10.358688 62.446106C10.919174 61.885635,11.234116 61.125488,11.234116 60.332794Z" style="fill: rgb(100.000000%,100.000000%,100.000000%);stroke: none;"></path>
  <path d="M76.148071 21.431686C76.148071 20.638992,75.833130 19.878845,75.272644 19.318375C74.712173 18.757889,73.952026 18.442947,73.159332 18.442947C72.366638 18.442947,71.606491 18.757889,71.046021 19.318375C70.485535 19.878845,70.170593 20.638992,70.170593 21.431686C70.170593 22.224380,70.485535 22.984528,71.046021 23.544998C71.606491 24.105484,72.366638 24.420425,73.159332 24.420425C73.952026 24.420425,74.712173 24.105484,75.272644 23.544998C75.833130 22.984528,76.148071 22.224380,76.148071 21.431686Z" style="fill: rgb(100.000000%,100.000000%,100.000000%);stroke: none;"></path>
  <path d="M46.365463 16.226776C46.365463 15.434082,46.050522 14.673935,45.490036 14.113464C44.929565 13.552979,44.169418 13.238037,43.376724 13.238037C42.584030 13.238037,41.823883 13.552979,41.263412 14.113464C40.702927 14.673935,40.387985 15.434082,40.387985 16.226776C40.387985 17.019470,40.702927 17.779617,41.263412 18.340088C41.823883 18.900574,42.584030 19.215515,43.376724 19.215515C44.169418 19.215515,44.929565 18.900574,45.490036 18.340088C46.050522 17.779617,46.365463 17.019470,46.365463 16.226776Z" style="fill: rgb(100.000000%,100.000000%,100.000000%);stroke: none;"></path>
  <path d="M81.902420 48.549667C81.902420 47.756973,81.587479 46.996826,81.026993 46.436356C80.466522 45.875870,79.706375 45.560928,78.913681 45.560928C78.120987 45.560928,77.360840 45.875870,76.800369 46.436356C76.239883 46.996826,75.924942 47.756973,75.924942 48.549667C75.924942 49.342361,76.239883 50.102509,76.800369 50.662979C77.360840 51.223465,78.120987 51.538406,78.913681 51.538406C79.706375 51.538406,80.466522 51.223465,81.026993 50.662979C81.587479 50.102509,81.902420 49.342361,81.902420 48.549667Z" style="fill: rgb(100.000000%,100.000000%,100.000000%);stroke: none;"></path>
  <path d="M85.441696 31.761063C85.441696 30.968369,85.126755 30.208221,84.566269 29.647751C84.005798 29.087265,83.245651 28.772324,82.452957 28.772324C81.660263 28.772324,80.900116 29.087265,80.339645 29.647751C79.779160 30.208221,79.464218 30.968369,79.464218 31.761063C79.464218 32.553757,79.779160 33.313904,80.339645 33.874374C80.900116 34.434860,81.660263 34.749802,82.452957 34.749802C83.245651 34.749802,84.005798 34.434860,84.566269 33.874374C85.126755 33.313904,85.441696 32.553757,85.441696 31.761063Z" style="fill: rgb(100.000000%,100.000000%,100.000000%);stroke: none;"></path>
  <path d="M71.430313 59.216949C71.430313 58.424255,71.115372 57.664108,70.554886 57.103638C69.994415 56.543152,69.234268 56.228210,68.441574 56.228210C67.648880 56.228210,66.888733 56.543152,66.328262 57.103638C65.767776 57.664108,65.452835 58.424255,65.452835 59.216949C65.452835 60.009644,65.767776 60.769791,66.328262 61.330261C66.888733 61.890747,67.648880 62.205688,68.441574 62.205688C69.234268 62.205688,69.994415 61.890747,70.554886 61.330261C71.115372 60.769791,71.430313 60.009644,71.430313 59.216949Z" style="fill: rgb(100.000000%,100.000000%,100.000000%);stroke: none;"></path>
  <path d="M78.120010 52.721817C78.120010 51.929123,77.805069 51.168976,77.244583 50.608505C76.684113 50.048019,75.923965 49.733078,75.131271 49.733078C74.338577 49.733078,73.578430 50.048019,73.017960 50.608505C72.457474 51.168976,72.142532 51.929123,72.142532 52.721817C72.142532 53.514511,72.457474 54.274658,73.017960 54.835129C73.578430 55.395615,74.338577 55.710556,75.131271 55.710556C75.923965 55.710556,76.684113 55.395615,77.244583 54.835129C77.805069 54.274658,78.120010 53.514511,78.120010 52.721817Z" style="fill: rgb(100.000000%,100.000000%,100.000000%);stroke: none;"></path>
  <path d="M69.568192 69.871017C69.568192 69.078323,69.253250 68.318176,68.692764 67.757706C68.132294 67.197220,67.372147 66.882278,66.579453 66.882278C65.786758 66.882278,65.026611 67.197220,64.466141 67.757706C63.905655 68.318176,63.590714 69.078323,63.590714 69.871017C63.590714 70.663712,63.905655 71.423859,64.466141 71.984329C65.026611 72.544815,65.786758 72.859756,66.579453 72.859756C67.372147 72.859756,68.132294 72.544815,68.692764 71.984329C69.253250 71.423859,69.568192 70.663712,69.568192 69.871017Z" style="fill: rgb(100.000000%,100.000000%,100.000000%);stroke: none;"></path>
  <path d="M68.479477 62.271774C68.479477 61.479080,68.164536 60.718933,67.604050 60.158463C67.043579 59.597977,66.283432 59.283035,65.490738 59.283035C64.698044 59.283035,63.937897 59.597977,63.377426 60.158463C62.816940 60.718933,62.501999 61.479080,62.501999 62.271774C62.501999 63.064468,62.816940 63.824615,63.377426 64.385086C63.937897 64.945572,64.698044 65.260513,65.490738 65.260513C66.283432 65.260513,67.043579 64.945572,67.604050 64.385086C68.164536 63.824615,68.479477 63.064468,68.479477 62.271774Z" style="fill: rgb(100.000000%,100.000000%,100.000000%);stroke: none;"></path>
  <path d="M81.788177 76.997940C81.788177 76.205246,81.473236 75.445099,80.912750 74.884628C80.352280 74.324142,79.592133 74.009201,78.799438 74.009201C78.006744 74.009201,77.246597 74.324142,76.686127 74.884628C76.125641 75.445099,75.810699 76.205246,75.810699 76.997940C75.810699 77.790634,76.125641 78.550781,76.686127 79.111252C77.246597 79.671738,78.006744 79.986679,78.799438 79.986679C79.592133 79.986679,80.352280 79.671738,80.912750 79.111252C81.473236 78.550781,81.788177 77.790634,81.788177 76.997940Z" style="fill: rgb(100.000000%,100.000000%,100.000000%);stroke: none;"></path>
  <path d="M73.274612 71.955139C73.274612 71.162445,72.959671 70.402298,72.399185 69.841827C71.838715 69.281342,71.078568 68.966400,70.285873 68.966400C69.493179 68.966400,68.733032 69.281342,68.172562 69.841827C67.612076 70.402298,67.297134 71.162445,67.297134 71.955139C67.297134 72.747833,67.612076 73.507980,68.172562 74.068451C68.733032 74.628937,69.493179 74.943878,70.285873 74.943878C71.078568 74.943878,71.838715 74.628937,72.399185 74.068451C72.959671 73.507980,73.274612 72.747833,73.274612 71.955139Z" style="fill: rgb(100.000000%,100.000000%,100.000000%);stroke: none;"></path>
  <path d="M95.552094 90.018005C95.552094 89.225311,95.237152 88.465164,94.676666 87.904694C94.116196 87.344208,93.356049 87.029266,92.563354 87.029266C91.770660 87.029266,91.010513 87.344208,90.450043 87.904694C89.889557 88.465164,89.574615 89.225311,89.574615 90.018005C89.574615 90.810699,89.889557 91.570847,90.450043 92.131317C91.010513 92.691803,91.770660 93.006744,92.563354 93.006744C93.356049 93.006744,94.116196 92.691803,94.676666 92.131317C95.237152 91.570847,95.552094 90.810699,95.552094 90.018005Z" style="fill: rgb(100.000000%,100.000000%,100.000000%);stroke: none;"></path>
  <path d="M86.488312 80.798111C86.488312 80.005417,86.173370 79.245270,85.612885 78.684799C85.052414 78.124313,84.292267 77.809372,83.499573 77.809372C82.706879 77.809372,81.946732 78.124313,81.386261 78.684799C80.825775 79.245270,80.510834 80.005417,80.510834 80.798111C80.510834 81.590805,80.825775 82.350952,81.386261 82.911423C81.946732 83.471909,82.706879 83.786850,83.499573 83.786850C84.292267 83.786850,85.052414 83.471909,85.612885 82.911423C86.173370 82.350952,86.488312 81.590805,86.488312 80.798111Z" style="fill: rgb(100.000000%,100.000000%,100.000000%);stroke: none;"></path>
  <path d="M109.513107 107.940216C109.513107 107.147522,109.198166 106.387375,108.637680 105.826904C108.077209 105.266418,107.317062 104.951477,106.524368 104.951477C105.731674 104.951477,104.971527 105.266418,104.411057 105.826904C103.850571 106.387375,103.535629 107.147522,103.535629 107.940216C103.535629 108.732910,103.850571 109.493057,104.411057 110.053528C104.971527 110.614014,105.731674 110.928955,106.524368 110.928955C107.317062 110.928955,108.077209 110.614014,108.637680 110.053528C109.198166 109.493057,109.513107 108.732910,109.513107 107.940216Z" style="fill: rgb(100.000000%,100.000000%,100.000000%);stroke: none;"></path>
  <path d="M99.719849 95.548370C99.719849 94.755676,99.404907 93.995529,98.844421 93.435059C98.283951 92.874573,97.523804 92.559631,96.731110 92.559631C95.938416 92.559631,95.178268 92.874573,94.617798 93.435059C94.057312 93.995529,93.742371 94.755676,93.742371 95.548370C93.742371 96.341064,94.057312 97.101212,94.617798 97.661682C95.178268 98.222168,95.938416 98.537109,96.731110 98.537109C97.523804 98.537109,98.283951 98.222168,98.844421 97.661682C99.404907 97.101212,99.719849 96.341064,99.719849 95.548370Z" style="fill: rgb(100.000000%,100.000000%,100.000000%);stroke: none;"></path>
  <path d="M117.455963 121.947739C126.678085 134.682083,142.875305 140.295929,158.000000 136.000000C179.127396 129.999100,190.870087 108.295563,190.057816 85.787186C189.309525 65.051987,177.693954 45.568375,158.000000 41.245224C144.457352 38.272385,130.460770 44.987961,128.778305 57.742859C127.849686 64.782791,131.696915 71.213013,134.756378 77.592072C137.904068 84.155075,140.249512 91.070343,143.310349 97.673813C149.134415 110.238678,157.606110 122.082870,158.000000 136.000000C158.670898 159.704391,138.411102 177.271912,115.044250 185.061539C94.983475 191.749039,72.117493 191.385071,58.574615 175.892487C50.767090 166.960953,48.753906 153.995193,56.501831 145.768997C59.630798 142.446884,63.973953 140.730194,68.283234 139.252945C71.819397 138.040726,75.630188 136.502701,76.440506 132.932358C77.303040 129.131912,74.138794 126.043106,71.387146 123.187073C67.704025 119.364227,64.750290 114.919296,61.350159 110.845581C57.687485 106.457306,53.509094 102.502380,50.178055 97.854126C46.765717 93.092422,44.085175 87.501343,38.869858 84.761856C29.000519 79.577713,17.458633 86.100647,11.530472 96.549042C2.182632 113.024643,5.801086 133.117599,15.142059 149.848618C24.491852 166.595444,40.610397 179.890350,58.574615 175.892487C70.317123 173.279236,78.823914 162.779984,76.209763 151.588470C75.075165 146.731110,71.753860 142.825333,68.283234 139.252945C65.708649 136.602875,62.985413 133.603638,63.703491 130.038666C64.419937 126.481766,68.085678 124.787872,71.387146 123.187073C76.545914 120.685715,81.285065 117.431015,85.894684 114.025787C91.262253 110.060638,96.483017 105.870605,101.014709 100.968597C105.935394 95.645828,110.045197 89.489334,115.978333 85.297440C121.552063 81.359482,128.219437 79.508652,134.756378 77.592072C139.809769 76.110458,144.920288 74.519897,149.108109 71.312134C158.120499 64.408890,160.962982 52.338486,158.000000 41.245224C152.779434 21.699646,133.472626 10.718002,113.251801 6.534195C94.111389 2.573929,73.211716 4.541733,60.960022 19.299698C53.483566 28.305573,51.578110 41.067795,59.080505 49.427582C62.265121 52.976135,66.759598 54.876633,71.230530 56.509109C75.155045 57.942062,79.383469 59.784882,80.024796 63.803619C80.696869 68.014908,76.909927 71.081085,73.620728 73.930466C69.523987 77.479416,66.127731 81.740341,62.339035 85.612854C58.313370 89.727600,53.839951 93.408707,50.178055 97.854126C46.482849 102.339981,43.458511 107.690262,38.126862 110.083649C27.923737 114.663849,16.763397 107.409912,11.530472 96.549042C3.449020 79.776123,8.245377 60.332794,18.183594 44.348724C27.890518 28.736679,43.376724 16.226776,60.960022 19.299698C73.159332 21.431686,82.452957 31.761063,80.036545 43.223358C78.913681 48.549667,75.131271 52.721817,71.230530 56.509109C68.441574 59.216949,65.490738 62.271774,66.034714 66.068695C66.579453 69.871017,70.285873 71.955139,73.620728 73.930466C78.799438 76.997940,83.499573 80.798111,87.718613 85.089813C92.563354 90.018005,96.731110 95.548370,101.014709 100.968597C106.524368 107.940216,112.243576 114.750229,117.455963 121.947739" style="stroke:rgb(0.000000%,0.000000%,0.000000%); stroke-width: 0.498138;stroke-linecap: round;stroke-linejoin: round;stroke-miterlimit: 10.000000;fill: none;"></path>
  <path d="M117.455963 121.947739C126.678085 134.682083,142.875305 140.295929,158.000000 136.000000" style="stroke:rgb(0.000000%,0.000000%,0.000000%); stroke-width: 1.494400;stroke-linecap: round;stroke-linejoin: round;stroke-miterlimit: 10.000000;fill: none;"></path>
  <path d="M73.620728 73.930466C78.799438 76.997940,83.499573 80.798111,87.718613 85.089813C92.563354 90.018005,96.731110 95.548370,101.014709 100.968597C106.524368 107.940216,112.243576 114.750229,117.455963 121.947739" style="stroke:rgb(0.000000%,0.000000%,0.000000%); stroke-width: 1.494400;stroke-linecap: round;stroke-linejoin: round;stroke-miterlimit: 10.000000;fill: none;"></path>
  <path d="M160.988739 136.000000C160.988739 135.207306,160.673798 134.447159,160.113312 133.886688C159.552841 133.326202,158.792694 133.011261,158.000000 133.011261C157.207306 133.011261,156.447159 133.326202,155.886688 133.886688C155.326202 134.447159,155.011261 135.207306,155.011261 136.000000C155.011261 136.792694,155.326202 137.552841,155.886688 138.113312C156.447159 138.673798,157.207306 138.988739,158.000000 138.988739C158.792694 138.988739,159.552841 138.673798,160.113312 138.113312C160.673798 137.552841,160.988739 136.792694,160.988739 136.000000Z" style="fill: rgb(100.000000%,100.000000%,100.000000%);stroke: none;"></path>
  <path d="M152.691498 116.329819C155.586670 122.601120,157.803055 129.041443,158.000000 136.000000C158.335449 147.852203,153.438217 158.170181,145.536270 166.498825" style="stroke:rgb(0.000000%,0.000000%,0.000000%); stroke-width: 0.498138;stroke-linecap: round;stroke-linejoin: round;stroke-miterlimit: 10.000000;fill: none;"></path>
  <path d="M137.745117 77.592072C137.745117 76.799377,137.430176 76.039230,136.869690 75.478760C136.309219 74.918274,135.549072 74.603333,134.756378 74.603333C133.963684 74.603333,133.203537 74.918274,132.643066 75.478760C132.082581 76.039230,131.767639 76.799377,131.767639 77.592072C131.767639 78.384766,132.082581 79.144913,132.643066 79.705383C133.203537 80.265869,133.963684 80.580811,134.756378 80.580811C135.549072 80.580811,136.309219 80.265869,136.869690 79.705383C137.430176 79.144913,137.745117 78.384766,137.745117 77.592072Z" style="fill: rgb(100.000000%,100.000000%,100.000000%);stroke: none;"></path>
  <path d="M125.006165 80.686722C128.186844 79.492203,131.487915 78.550354,134.756378 77.592072C137.283081 76.851257,139.824066 76.083206,142.256851 75.099396" style="stroke:rgb(0.000000%,0.000000%,0.000000%); stroke-width: 0.498138;stroke-linecap: round;stroke-linejoin: round;stroke-miterlimit: 10.000000;fill: none;"></path>
  <path d="M61.563354 175.892487C61.563354 175.099792,61.248413 174.339645,60.687927 173.779175C60.127457 173.218689,59.367310 172.903748,58.574615 172.903748C57.781921 172.903748,57.021774 173.218689,56.461304 173.779175C55.900818 174.339645,55.585876 175.099792,55.585876 175.892487C55.585876 176.685181,55.900818 177.445328,56.461304 178.005798C57.021774 178.566284,57.781921 178.881226,58.574615 178.881226C59.367310 178.881226,60.127457 178.566284,60.687927 178.005798C61.248413 177.445328,61.563354 176.685181,61.563354 175.892487Z" style="fill: rgb(100.000000%,100.000000%,100.000000%);stroke: none;"></path>
  <path d="M33.627945 170.649826C41.071823 175.567169,49.592514 177.891418,58.574615 175.892487C64.445877 174.585861,69.508209 171.307724,72.775955 166.957306" style="stroke:rgb(0.000000%,0.000000%,0.000000%); stroke-width: 0.498138;stroke-linecap: round;stroke-linejoin: round;stroke-miterlimit: 10.000000;fill: none;"></path>
  <path d="M74.375885 123.187073C74.375885 122.394379,74.060944 121.634232,73.500458 121.073761C72.939987 120.513275,72.179840 120.198334,71.387146 120.198334C70.594452 120.198334,69.834305 120.513275,69.273834 121.073761C68.713348 121.634232,68.398407 122.394379,68.398407 123.187073C68.398407 123.979767,68.713348 124.739914,69.273834 125.300385C69.834305 125.860870,70.594452 126.175812,71.387146 126.175812C72.179840 126.175812,72.939987 125.860870,73.500458 125.300385C74.060944 124.739914,74.375885 123.979767,74.375885 123.187073Z" style="fill: rgb(100.000000%,100.000000%,100.000000%);stroke: none;"></path>
  <path d="M66.575943 125.879318C67.994614 124.811142,69.736420 123.987473,71.387146 123.187073C73.966537 121.936386,76.441025 120.497375,78.846863 118.945374" style="stroke:rgb(0.000000%,0.000000%,0.000000%); stroke-width: 0.498138;stroke-linecap: round;stroke-linejoin: round;stroke-miterlimit: 10.000000;fill: none;"></path>
  <path d="M14.519211 96.549042C14.519211 95.756348,14.204269 94.996201,13.643784 94.435730C13.083313 93.875244,12.323166 93.560303,11.530472 93.560303C10.737778 93.560303,9.977631 93.875244,9.417160 94.435730C8.856674 94.996201,8.541733 95.756348,8.541733 96.549042C8.541733 97.341736,8.856674 98.101883,9.417160 98.662354C9.977631 99.222839,10.737778 99.537781,11.530472 99.537781C12.323166 99.537781,13.083313 99.222839,13.643784 98.662354C14.204269 98.101883,14.519211 97.341736,14.519211 96.549042Z" style="fill: rgb(100.000000%,100.000000%,100.000000%);stroke: none;"></path>
  <path d="M22.964828 109.106735C18.245239 106.508179,14.146927 101.979477,11.530472 96.549042C7.489746 88.162582,6.668472 79.108521,8.099670 70.153061" style="stroke:rgb(0.000000%,0.000000%,0.000000%); stroke-width: 0.498138;stroke-linecap: round;stroke-linejoin: round;stroke-miterlimit: 10.000000;fill: none;"></path>
  <path d="M71.271973 139.252945C71.271973 138.460251,70.957031 137.700104,70.396545 137.139633C69.836075 136.579147,69.075928 136.264206,68.283234 136.264206C67.490540 136.264206,66.730392 136.579147,66.169922 137.139633C65.609436 137.700104,65.294495 138.460251,65.294495 139.252945C65.294495 140.045639,65.609436 140.805786,66.169922 141.366257C66.730392 141.926743,67.490540 142.241684,68.283234 142.241684C69.075928 142.241684,69.836075 141.926743,70.396545 141.366257C70.957031 140.805786,71.271973 140.045639,71.271973 139.252945Z" style="fill: rgb(100.000000%,100.000000%,100.000000%);stroke: none;"></path>
  <path d="M61.949936 141.819138C63.965500 140.790039,66.128601 139.991562,68.283234 139.252945C70.051315 138.646835,71.888062 137.959274,73.384079 136.976944" style="stroke:rgb(0.000000%,0.000000%,0.000000%); stroke-width: 0.498138;stroke-linecap: round;stroke-linejoin: round;stroke-miterlimit: 10.000000;fill: none;"></path>
  <path d="M104.003448 100.968597C104.003448 100.175903,103.688507 99.415756,103.128021 98.855286C102.567551 98.294800,101.807404 97.979858,101.014709 97.979858C100.222015 97.979858,99.461868 98.294800,98.901398 98.855286C98.340912 99.415756,98.025970 100.175903,98.025970 100.968597C98.025970 101.761292,98.340912 102.521439,98.901398 103.081909C99.461868 103.642395,100.222015 103.957336,101.014709 103.957336C101.807404 103.957336,102.567551 103.642395,103.128021 103.081909C103.688507 102.521439,104.003448 101.761292,104.003448 100.968597Z" style="fill: rgb(100.000000%,100.000000%,100.000000%);stroke: none;"></path>
  <path d="M94.577103 92.844696C96.760071 95.520844,98.872910 98.258484,101.014709 100.968597C103.769547 104.454407,106.576767 107.899826,109.346832 111.373474" style="stroke:rgb(0.000000%,0.000000%,0.000000%); stroke-width: 1.494400;stroke-linecap: round;stroke-linejoin: round;stroke-miterlimit: 10.000000;fill: none;"></path>
  <path d="M160.988739 41.245224C160.988739 40.452530,160.673798 39.692383,160.113312 39.131912C159.552841 38.571426,158.792694 38.256485,158.000000 38.256485C157.207306 38.256485,156.447159 38.571426,155.886688 39.131912C155.326202 39.692383,155.011261 40.452530,155.011261 41.245224C155.011261 42.037918,155.326202 42.798065,155.886688 43.358536C156.447159 43.919022,157.207306 44.233963,158.000000 44.233963C158.792694 44.233963,159.552841 43.919022,160.113312 43.358536C160.673798 42.798065,160.988739 42.037918,160.988739 41.245224Z" style="fill: rgb(100.000000%,100.000000%,100.000000%);stroke: none;"></path>
  <path d="M181.133514 57.361679C175.674347 49.358490,167.846970 43.406799,158.000000 41.245224C151.228668 39.758804,144.343857 40.694489,138.941574 43.596146" style="stroke:rgb(0.000000%,0.000000%,0.000000%); stroke-width: 0.498138;stroke-linecap: round;stroke-linejoin: round;stroke-miterlimit: 10.000000;fill: none;"></path>
  <path d="M74.219269 56.509109C74.219269 55.716415,73.904327 54.956268,73.343842 54.395798C72.783371 53.835312,72.023224 53.520370,71.230530 53.520370C70.437836 53.520370,69.677689 53.835312,69.117218 54.395798C68.556732 54.956268,68.241791 55.716415,68.241791 56.509109C68.241791 57.301804,68.556732 58.061951,69.117218 58.622421C69.677689 59.182907,70.437836 59.497849,71.230530 59.497849C72.023224 59.497849,72.783371 59.182907,73.343842 58.622421C73.904327 58.061951,74.219269 57.301804,74.219269 56.509109Z" style="fill: rgb(100.000000%,100.000000%,100.000000%);stroke: none;"></path>
  <path d="M76.675232 50.443375C75.101685 52.625610,73.180893 54.615463,71.230530 56.509109C69.836044 57.863037,68.401093 59.303711,67.382767 60.880508" style="stroke:rgb(0.000000%,0.000000%,0.000000%); stroke-width: 0.498138;stroke-linecap: round;stroke-linejoin: round;stroke-miterlimit: 10.000000;fill: none;"></path>
  <path d="M53.166794 97.854126C53.166794 97.061432,52.851852 96.301285,52.291367 95.740814C51.730896 95.180328,50.970749 94.865387,50.178055 94.865387C49.385361 94.865387,48.625214 95.180328,48.064743 95.740814C47.504257 96.301285,47.189316 97.061432,47.189316 97.854126C47.189316 98.646820,47.504257 99.406967,48.064743 99.967438C48.625214 100.527924,49.385361 100.842865,50.178055 100.842865C50.970749 100.842865,51.730896 100.527924,52.291367 99.967438C52.851852 99.406967,53.166794 98.646820,53.166794 97.854126Z" style="fill: rgb(100.000000%,100.000000%,100.000000%);stroke: none;"></path>
  <path d="M55.639725 104.447342C53.720917 102.329041,51.843567 100.178253,50.178055 97.854126C48.471878 95.473267,46.948654 92.885071,45.200058 90.549652" style="stroke:rgb(0.000000%,0.000000%,0.000000%); stroke-width: 0.498138;stroke-linecap: round;stroke-linejoin: round;stroke-miterlimit: 10.000000;fill: none;"></path>
  <path d="M63.948761 19.299698C63.948761 18.507004,63.633820 17.746857,63.073334 17.186386C62.512863 16.625900,61.752716 16.310959,60.960022 16.310959C60.167328 16.310959,59.407181 16.625900,58.846710 17.186386C58.286224 17.746857,57.971283 18.507004,57.971283 19.299698C57.971283 20.092392,58.286224 20.852539,58.846710 21.413010C59.407181 21.973495,60.167328 22.288437,60.960022 22.288437C61.752716 22.288437,62.512863 21.973495,63.073334 21.413010C63.633820 20.852539,63.948761 20.092392,63.948761 19.299698Z" style="fill: rgb(100.000000%,100.000000%,100.000000%);stroke: none;"></path>
  <path d="M84.522629 5.897614C75.373703 7.739273,67.085861 11.920715,60.960022 19.299698C57.221786 23.802643,54.876312 29.244675,54.403198 34.605942" style="stroke:rgb(0.000000%,0.000000%,0.000000%); stroke-width: 0.498138;stroke-linecap: round;stroke-linejoin: round;stroke-miterlimit: 10.000000;fill: none;"></path>
  <path d="M76.609467 73.930466C76.609467 73.137772,76.294525 72.377625,75.734039 71.817154C75.173569 71.256668,74.413422 70.941727,73.620728 70.941727C72.828033 70.941727,72.067886 71.256668,71.507416 71.817154C70.946930 72.377625,70.631989 73.137772,70.631989 73.930466C70.631989 74.723160,70.946930 75.483307,71.507416 76.043777C72.067886 76.604263,72.828033 76.919205,73.620728 76.919205C74.413422 76.919205,75.173569 76.604263,75.734039 76.043777C76.294525 75.483307,76.609467 74.723160,76.609467 73.930466Z" style="fill: rgb(100.000000%,100.000000%,100.000000%);stroke: none;"></path>
  <path d="M78.308228 69.377777C77.034348 71.026901,75.265320 72.505783,73.620728 73.930466C71.572357 75.704941,69.699097 77.657410,67.864349 79.650330" style="stroke:rgb(0.000000%,0.000000%,0.000000%); stroke-width: 0.498138;stroke-linecap: round;stroke-linejoin: round;stroke-miterlimit: 10.000000;fill: none;"></path>
  <path d="M87.718613 85.089813C91.594421 89.032379,95.036957 93.360352,98.452148 97.708984" style="stroke:rgb(0.000000%,0.000000%,0.000000%); stroke-width: 0.498138;stroke-linecap: round;stroke-linejoin: round;stroke-miterlimit: 10.000000;fill: none;"></path>
  <path d="M94.082291 95.279022C95.544785 96.077347,96.999268 96.891815,98.452148 97.708984C98.002655 96.103790,97.550125 94.499405,97.080521 92.900757Z" style="stroke:rgb(0.000000%,0.000000%,0.000000%); stroke-width: 0.498138;fill: rgb(0.000000%,0.000000%,0.000000%);"></path>
  <path d="M87.718613 85.089813C91.594421 89.032379,95.036957 93.360352,98.452148 97.708984" style="stroke:rgb(0.000000%,0.000000%,0.000000%); stroke-width: 0.498138;stroke-linecap: round;stroke-linejoin: round;stroke-miterlimit: 10.000000;fill: none;"></path>
  <path d="M95.834122 96.244064C96.708298 96.729446,97.580521 97.218735,98.452148 97.708984C98.182480 96.745987,97.911728 95.783249,97.636826 94.821884Z" style="stroke:rgb(0.000000%,0.000000%,0.000000%); stroke-width: 0.498138;fill: rgb(0.000000%,0.000000%,0.000000%);"></path>
  <path d="M128.778305 57.742859C128.035400 63.374832,130.349075 68.616577,132.870697 73.754089" style="stroke:rgb(0.000000%,0.000000%,0.000000%); stroke-width: 0.498138;stroke-linecap: round;stroke-linejoin: round;stroke-miterlimit: 10.000000;fill: none;"></path>
  <path d="M130.642715 71.745209C131.371689 72.425079,132.118866 73.092285,132.870697 73.754089C132.807068 72.754486,132.750534 71.754364,132.715805 70.758179Z" style="stroke:rgb(0.000000%,0.000000%,0.000000%); stroke-width: 0.498138;fill: rgb(0.000000%,0.000000%,0.000000%);"></path>
  <path d="M143.310349 97.673813C147.969620 107.725739,154.323380 117.316437,156.880157 127.876236" style="stroke:rgb(0.000000%,0.000000%,0.000000%); stroke-width: 0.498138;stroke-linecap: round;stroke-linejoin: round;stroke-miterlimit: 10.000000;fill: none;"></path>
  <path d="M155.036179 125.509964C155.675064 126.280624,156.290894 127.068481,156.880157 127.876236C157.034668 126.888397,157.156326 125.895828,157.249527 124.899155Z" style="stroke:rgb(0.000000%,0.000000%,0.000000%); stroke-width: 0.498138;fill: rgb(0.000000%,0.000000%,0.000000%);"></path>
  <path d="M76.440506 132.932358C77.130539 129.891983,75.243408 127.307068,73.052109 124.932419" style="stroke:rgb(0.000000%,0.000000%,0.000000%); stroke-width: 0.498138;stroke-linecap: round;stroke-linejoin: round;stroke-miterlimit: 10.000000;fill: none;"></path>
  <path d="M75.701508 126.339828C74.880066 125.817047,73.976028 125.359314,73.052109 124.932419C73.403549 125.887604,73.719116 126.850525,73.930267 127.801041Z" style="stroke:rgb(0.000000%,0.000000%,0.000000%); stroke-width: 0.498138;fill: rgb(0.000000%,0.000000%,0.000000%);"></path>
  <path d="M61.350159 110.845581C58.420013 107.334946,55.159790 104.101654,52.267426 100.568848" style="stroke:rgb(0.000000%,0.000000%,0.000000%); stroke-width: 0.498138;stroke-linecap: round;stroke-linejoin: round;stroke-miterlimit: 10.000000;fill: none;"></path>
  <path d="M54.938797 101.934113C54.040512 101.493439,53.148560 101.041153,52.267426 100.568848C52.556488 101.525894,52.867355 102.476410,53.190933 103.423187Z" style="stroke:rgb(0.000000%,0.000000%,0.000000%); stroke-width: 0.498138;fill: rgb(0.000000%,0.000000%,0.000000%);"></path>
  <path d="M76.209763 151.588470C75.302078 147.702560,72.994888 144.425674,70.331360 141.441284" style="stroke:rgb(0.000000%,0.000000%,0.000000%); stroke-width: 0.498138;stroke-linecap: round;stroke-linejoin: round;stroke-miterlimit: 10.000000;fill: none;"></path>
  <path d="M72.987305 142.836212C72.124512 142.338379,71.234772 141.877060,70.331360 141.441284C70.662018 142.388229,70.964935 143.343597,71.222992 144.305695Z" style="stroke:rgb(0.000000%,0.000000%,0.000000%); stroke-width: 0.498138;fill: rgb(0.000000%,0.000000%,0.000000%);"></path>
  <path d="M63.703491 130.038666C64.276657 127.193130,66.737366 125.539932,69.389099 124.172867" style="stroke:rgb(0.000000%,0.000000%,0.000000%); stroke-width: 0.498138;stroke-linecap: round;stroke-linejoin: round;stroke-miterlimit: 10.000000;fill: none;"></path>
  <path d="M67.594070 126.576675C68.108597 125.748215,68.732224 124.949432,69.389099 124.172867C68.375504 124.257477,67.369705 124.381332,66.420059 124.603287Z" style="stroke:rgb(0.000000%,0.000000%,0.000000%); stroke-width: 0.498138;fill: rgb(0.000000%,0.000000%,0.000000%);"></path>
  <path d="M115.978333 85.297440C120.437332 82.147064,125.596268 80.332458,130.828415 78.751343" style="stroke:rgb(0.000000%,0.000000%,0.000000%); stroke-width: 0.498138;stroke-linecap: round;stroke-linejoin: round;stroke-miterlimit: 10.000000;fill: none;"></path>
  <path d="M128.527969 80.676819C129.285446 80.025513,130.054291 79.385284,130.828415 78.751343C129.832764 78.652222,128.836411 78.561249,127.840256 78.486145Z" style="stroke:rgb(0.000000%,0.000000%,0.000000%); stroke-width: 0.498138;fill: rgb(0.000000%,0.000000%,0.000000%);"></path>
  <path d="M59.080505 49.427582C61.628204 52.266434,65.014221 54.050522,68.555847 55.486435" style="stroke:rgb(0.000000%,0.000000%,0.000000%); stroke-width: 0.498138;stroke-linecap: round;stroke-linejoin: round;stroke-miterlimit: 10.000000;fill: none;"></path>
  <path d="M65.556671 55.413834C66.551331 55.475281,67.553238 55.493973,68.555847 55.486435C67.841568 54.782791,67.146362 54.061127,66.486481 53.314316Z" style="stroke:rgb(0.000000%,0.000000%,0.000000%); stroke-width: 0.498138;fill: rgb(0.000000%,0.000000%,0.000000%);"></path>
  <path d="M80.024796 63.803619C80.562454 67.172668,78.246323 69.808838,75.614288 72.187424" style="stroke:rgb(0.000000%,0.000000%,0.000000%); stroke-width: 0.498138;stroke-linecap: round;stroke-linejoin: round;stroke-miterlimit: 10.000000;fill: none;"></path>
  <path d="M76.766113 69.417358C76.453781 70.341980,76.050064 71.269516,75.614288 72.187424C76.571487 71.846512,77.512833 71.476135,78.387512 71.043213Z" style="stroke:rgb(0.000000%,0.000000%,0.000000%); stroke-width: 0.498138;fill: rgb(0.000000%,0.000000%,0.000000%);"></path>
  <path d="M38.126862 110.083649C29.964325 113.747818,21.189178 109.838089,15.326370 102.566818" style="stroke:rgb(0.000000%,0.000000%,0.000000%); stroke-width: 0.498138;stroke-linecap: round;stroke-linejoin: round;stroke-miterlimit: 10.000000;fill: none;"></path>
  <path d="M18.029816 103.867203C17.116348 103.485245,16.213150 103.050720,15.326370 102.566818C15.611252 103.536041,15.942612 104.481949,16.318451 105.397964Z" style="stroke:rgb(0.000000%,0.000000%,0.000000%); stroke-width: 0.498138;fill: rgb(0.000000%,0.000000%,0.000000%);"></path>
  <path d="M66.034714 66.068695C66.470505 69.110565,68.929794 71.052765,71.603516 72.719345" style="stroke:rgb(0.000000%,0.000000%,0.000000%); stroke-width: 0.498138;stroke-linecap: round;stroke-linejoin: round;stroke-miterlimit: 10.000000;fill: none;"></path>
  <path d="M68.675247 72.067123C69.611557 72.351791,70.602722 72.553024,71.603516 72.719345C71.013458 71.894058,70.454910 71.050888,69.994156 70.187515Z" style="stroke:rgb(0.000000%,0.000000%,0.000000%); stroke-width: 0.498138;fill: rgb(0.000000%,0.000000%,0.000000%);"></path>
  <path d="M114.465317 124.657944L120.446609 124.657944L120.446609 117.237549L114.465317 117.237549Z" style="fill: rgb(100.000000%,100.000000%,100.000000%);stroke: none;"></path>
  <path d="M114.465317 126.657944L120.446609 126.657944L120.446609 119.237549L114.465317 119.237549Z" style="fill: rgb(100.000000%,100.000000%,100.000000%);stroke: none;"></path>
  <g transform="translate(114.965317 125.157944)" style="fill: rgb(0.000000%,0.000000%,0.000000%);">
    <use xlink:href="#GLYPHcmr10_49"></use>
  </g>
  <path d="M187.067169 88.497391L193.048462 88.497391L193.048462 81.076996L187.067169 81.076996Z" style="fill: rgb(100.000000%,100.000000%,100.000000%);stroke: none;"></path>
  <path d="M187.067169 90.497391L193.048462 90.497391L193.048462 83.076996L187.067169 83.076996Z" style="fill: rgb(100.000000%,100.000000%,100.000000%);stroke: none;"></path>
  <g transform="translate(187.567169 88.997391)" style="fill: rgb(0.000000%,0.000000%,0.000000%);">
    <use xlink:href="#GLYPHcmr10_50"></use>
  </g>
  <path d="M112.053604 187.771744L118.034897 187.771744L118.034897 180.351349L112.053604 180.351349Z" style="fill: rgb(100.000000%,100.000000%,100.000000%);stroke: none;"></path>
  <path d="M112.053604 189.771744L118.034897 189.771744L118.034897 182.351349L112.053604 182.351349Z" style="fill: rgb(100.000000%,100.000000%,100.000000%);stroke: none;"></path>
  <g transform="translate(112.553604 188.271744)" style="fill: rgb(0.000000%,0.000000%,0.000000%);">
    <use xlink:href="#GLYPHcmr10_51"></use>
  </g>
  <path d="M53.511185 148.479202L59.492477 148.479202L59.492477 141.058807L53.511185 141.058807Z" style="fill: rgb(100.000000%,100.000000%,100.000000%);stroke: none;"></path>
  <path d="M53.511185 150.479202L59.492477 150.479202L59.492477 143.058807L53.511185 143.058807Z" style="fill: rgb(100.000000%,100.000000%,100.000000%);stroke: none;"></path>
  <g transform="translate(54.011185 148.979202)" style="fill: rgb(0.000000%,0.000000%,0.000000%);">
    <use xlink:href="#GLYPHcmr10_52"></use>
  </g>
  <path d="M35.879211 87.472061L41.860504 87.472061L41.860504 80.051666L35.879211 80.051666Z" style="fill: rgb(100.000000%,100.000000%,100.000000%);stroke: none;"></path>
  <path d="M35.879211 89.472061L41.860504 89.472061L41.860504 82.051666L35.879211 82.051666Z" style="fill: rgb(100.000000%,100.000000%,100.000000%);stroke: none;"></path>
  <g transform="translate(36.379211 87.972061)" style="fill: rgb(0.000000%,0.000000%,0.000000%);">
    <use xlink:href="#GLYPHcmr10_53"></use>
  </g>
  <path d="M12.151413 152.558823L18.132706 152.558823L18.132706 145.138428L12.151413 145.138428Z" style="fill: rgb(100.000000%,100.000000%,100.000000%);stroke: none;"></path>
  <path d="M12.151413 154.558823L18.132706 154.558823L18.132706 147.138428L12.151413 147.138428Z" style="fill: rgb(100.000000%,100.000000%,100.000000%);stroke: none;"></path>
  <g transform="translate(12.651413 153.058823)" style="fill: rgb(0.000000%,0.000000%,0.000000%);">
    <use xlink:href="#GLYPHcmr10_54"></use>
  </g>
  <path d="M82.904037 116.735992L88.885330 116.735992L88.885330 109.315598L82.904037 109.315598Z" style="fill: rgb(100.000000%,100.000000%,100.000000%);stroke: none;"></path>
  <path d="M82.904037 118.735992L88.885330 118.735992L88.885330 111.315598L82.904037 111.315598Z" style="fill: rgb(100.000000%,100.000000%,100.000000%);stroke: none;"></path>
  <g transform="translate(83.404037 117.235992)" style="fill: rgb(0.000000%,0.000000%,0.000000%);">
    <use xlink:href="#GLYPHcmr10_55"></use>
  </g>
  <path d="M146.117462 74.022339L152.098755 74.022339L152.098755 66.601944L146.117462 66.601944Z" style="fill: rgb(100.000000%,100.000000%,100.000000%);stroke: none;"></path>
  <path d="M146.117462 76.022339L152.098755 76.022339L152.098755 68.601944L146.117462 68.601944Z" style="fill: rgb(100.000000%,100.000000%,100.000000%);stroke: none;"></path>
  <g transform="translate(146.617462 74.522339)" style="fill: rgb(0.000000%,0.000000%,0.000000%);">
    <use xlink:href="#GLYPHcmr10_56"></use>
  </g>
  <path d="M110.261154 9.244400L116.242447 9.244400L116.242447 1.824005L110.261154 1.824005Z" style="fill: rgb(100.000000%,100.000000%,100.000000%);stroke: none;"></path>
  <path d="M110.261154 11.244400L116.242447 11.244400L116.242447 3.824005L110.261154 3.824005Z" style="fill: rgb(100.000000%,100.000000%,100.000000%);stroke: none;"></path>
  <g transform="translate(110.761154 9.744400)" style="fill: rgb(0.000000%,0.000000%,0.000000%);">
    <use xlink:href="#GLYPHcmr10_57"></use>
  </g>
  <path d="M56.857681 88.323059L67.820389 88.323059L67.820389 80.902664L56.857681 80.902664Z" style="fill: rgb(100.000000%,100.000000%,100.000000%);stroke: none;"></path>
  <path d="M56.857681 90.323059L67.820389 90.323059L67.820389 82.902664L56.857681 82.902664Z" style="fill: rgb(100.000000%,100.000000%,100.000000%);stroke: none;"></path>
  <g transform="translate(57.357681 88.823059)" style="fill: rgb(0.000000%,0.000000%,0.000000%);">
    <use xlink:href="#GLYPHcmr10_49"></use>
    <use xlink:href="#GLYPHcmr10_48" x="5.000095"></use>
  </g>
  <path d="M12.702240 47.058929L23.664948 47.058929L23.664948 39.638535L12.702240 39.638535Z" style="fill: rgb(100.000000%,100.000000%,100.000000%);stroke: none;"></path>
  <path d="M12.702240 49.058929L23.664948 49.058929L23.664948 41.638535L12.702240 41.638535Z" style="fill: rgb(100.000000%,100.000000%,100.000000%);stroke: none;"></path>
  <g transform="translate(13.202240 47.558929)" style="fill: rgb(0.000000%,0.000000%,0.000000%);">
    <use xlink:href="#GLYPHcmr10_49"></use>
    <use xlink:href="#GLYPHcmr10_49" x="5.000095"></use>
  </g>
  <path d="M74.555191 45.933563L85.517899 45.933563L85.517899 38.513168L74.555191 38.513168Z" style="fill: rgb(100.000000%,100.000000%,100.000000%);stroke: none;"></path>
  <path d="M74.555191 47.933563L85.517899 47.933563L85.517899 40.513168L74.555191 40.513168Z" style="fill: rgb(100.000000%,100.000000%,100.000000%);stroke: none;"></path>
  <g transform="translate(75.055191 46.433563)" style="fill: rgb(0.000000%,0.000000%,0.000000%);">
    <use xlink:href="#GLYPHcmr10_49"></use>
    <use xlink:href="#GLYPHcmr10_50" x="5.000095"></use>
  </g>
</svg>
