<?xml version="1.0"?>
<!-- Created by MetaPost 1.999 on 2021.07.06:0012 -->
<svg version="1.1" xmlns="http://www.w3.org/2000/svg" xmlns:xlink="http://www.w3.org/1999/xlink" width="196.120193" height="194.335876" viewBox="0 0 196.120193 194.335876">
<!-- Original BoundingBox: -160.300491 -60.640305 35.819702 133.695572 -->
  <defs>
    <g transform="scale(0.009963,0.009963)" id="GLYPHcmr10_49">
      <path style="fill-rule: evenodd;" d="M294.000000 -640.000000C294.000000 -664.000000,294.000000 -666.000000,271.000000 -666.000000C209.000000 -602.000000,121.000000 -602.000000,89.000000 -602.000000L89.000000 -571.000000C109.000000 -571.000000,168.000000 -571.000000,220.000000 -597.000000L220.000000 -79.000000C220.000000 -43.000000,217.000000 -31.000000,127.000000 -31.000000L95.000000 -31.000000L95.000000 -0.000000L257.000000 -0.000000L130.000000 -3.000000L217.000000 -3.000000L257.000000 -3.000000L297.000000 -3.000000L384.000000 -3.000000L419.000000 -0.000000L419.000000 -31.000000L387.000000 -31.000000C297.000000 -31.000000,294.000000 -42.000000,294.000000 -79.000000"></path>
    </g>
    <g transform="scale(0.009963,0.009963)" id="GLYPHcmr10_50">
      <path style="fill-rule: evenodd;" d="M127.000000 -77.000000L233.000000 -180.000000C389.000000 -318.000000,449.000000 -372.000000,449.000000 -472.000000C449.000000 -586.000000,359.000000 -666.000000,237.000000 -666.000000C124.000000 -666.000000,50.000000 -574.000000,50.000000 -485.000000C50.000000 -429.000000,100.000000 -429.000000,103.000000 -429.000000C120.000000 -429.000000,155.000000 -441.000000,155.000000 -482.000000C155.000000 -508.000000,137.000000 -534.000000,102.000000 -534.000000C94.000000 -534.000000,92.000000 -534.000000,89.000000 -533.000000C112.000000 -598.000000,166.000000 -635.000000,224.000000 -635.000000C315.000000 -635.000000,358.000000 -554.000000,358.000000 -472.000000C358.000000 -392.000000,308.000000 -313.000000,253.000000 -251.000000L61.000000 -37.000000C50.000000 -26.000000,50.000000 -24.000000,50.000000 -0.000000L421.000000 -0.000000L449.000000 -174.000000L424.000000 -174.000000C419.000000 -144.000000,412.000000 -100.000000,402.000000 -85.000000C395.000000 -77.000000,329.000000 -77.000000,307.000000 -77.000000"></path>
    </g>
    <g transform="scale(0.009963,0.009963)" id="GLYPHcmr10_51">
      <path style="fill-rule: evenodd;" d="M290.000000 -352.000000C372.000000 -379.000000,430.000000 -449.000000,430.000000 -528.000000C430.000000 -610.000000,342.000000 -666.000000,246.000000 -666.000000C145.000000 -666.000000,69.000000 -606.000000,69.000000 -530.000000C69.000000 -497.000000,91.000000 -478.000000,120.000000 -478.000000C151.000000 -478.000000,171.000000 -500.000000,171.000000 -529.000000C171.000000 -579.000000,124.000000 -579.000000,109.000000 -579.000000C140.000000 -628.000000,206.000000 -641.000000,242.000000 -641.000000C283.000000 -641.000000,338.000000 -619.000000,338.000000 -529.000000C338.000000 -517.000000,336.000000 -459.000000,310.000000 -415.000000C280.000000 -367.000000,246.000000 -364.000000,221.000000 -363.000000C213.000000 -362.000000,189.000000 -360.000000,182.000000 -360.000000C174.000000 -359.000000,167.000000 -358.000000,167.000000 -348.000000C167.000000 -337.000000,174.000000 -337.000000,191.000000 -337.000000L235.000000 -337.000000C317.000000 -337.000000,354.000000 -269.000000,354.000000 -171.000000C354.000000 -35.000000,285.000000 -6.000000,241.000000 -6.000000C198.000000 -6.000000,123.000000 -23.000000,88.000000 -82.000000C123.000000 -77.000000,154.000000 -99.000000,154.000000 -137.000000C154.000000 -173.000000,127.000000 -193.000000,98.000000 -193.000000C74.000000 -193.000000,42.000000 -179.000000,42.000000 -135.000000C42.000000 -44.000000,135.000000 22.000000,244.000000 22.000000C366.000000 22.000000,457.000000 -69.000000,457.000000 -171.000000C457.000000 -253.000000,394.000000 -331.000000,290.000000 -352.000000"></path>
    </g>
    <g transform="scale(0.009963,0.009963)" id="GLYPHcmr10_52">
      <path style="fill-rule: evenodd;" d="M294.000000 -165.000000L294.000000 -78.000000C294.000000 -42.000000,292.000000 -31.000000,218.000000 -31.000000L197.000000 -31.000000L197.000000 -0.000000L332.000000 -0.000000L238.000000 -3.000000L290.000000 -3.000000L332.000000 -3.000000L374.000000 -3.000000L427.000000 -3.000000L468.000000 -0.000000L468.000000 -31.000000L447.000000 -31.000000C373.000000 -31.000000,371.000000 -42.000000,371.000000 -78.000000L371.000000 -165.000000L471.000000 -165.000000L471.000000 -196.000000L371.000000 -196.000000L371.000000 -651.000000C371.000000 -671.000000,371.000000 -677.000000,355.000000 -677.000000C346.000000 -677.000000,343.000000 -677.000000,335.000000 -665.000000L28.000000 -196.000000L28.000000 -165.000000M300.000000 -196.000000L56.000000 -196.000000L300.000000 -569.000000"></path>
    </g>
    <g transform="scale(0.009963,0.009963)" id="GLYPHcmr10_53">
      <path style="fill-rule: evenodd;" d="M449.000000 -201.000000C449.000000 -320.000000,367.000000 -420.000000,259.000000 -420.000000C211.000000 -420.000000,168.000000 -404.000000,132.000000 -369.000000L132.000000 -564.000000C152.000000 -558.000000,185.000000 -551.000000,217.000000 -551.000000C340.000000 -551.000000,410.000000 -642.000000,410.000000 -655.000000C410.000000 -661.000000,407.000000 -666.000000,400.000000 -666.000000C399.000000 -666.000000,397.000000 -666.000000,392.000000 -663.000000C372.000000 -654.000000,323.000000 -634.000000,256.000000 -634.000000C216.000000 -634.000000,170.000000 -641.000000,123.000000 -662.000000C115.000000 -665.000000,113.000000 -665.000000,111.000000 -665.000000C101.000000 -665.000000,101.000000 -657.000000,101.000000 -641.000000L101.000000 -345.000000C101.000000 -327.000000,101.000000 -319.000000,115.000000 -319.000000C122.000000 -319.000000,124.000000 -322.000000,128.000000 -328.000000C139.000000 -344.000000,176.000000 -398.000000,257.000000 -398.000000C309.000000 -398.000000,334.000000 -352.000000,342.000000 -334.000000C358.000000 -297.000000,360.000000 -258.000000,360.000000 -208.000000C360.000000 -173.000000,360.000000 -113.000000,336.000000 -71.000000C312.000000 -32.000000,275.000000 -6.000000,229.000000 -6.000000C156.000000 -6.000000,99.000000 -59.000000,82.000000 -118.000000C85.000000 -117.000000,88.000000 -116.000000,99.000000 -116.000000C132.000000 -116.000000,149.000000 -141.000000,149.000000 -165.000000C149.000000 -189.000000,132.000000 -214.000000,99.000000 -214.000000C85.000000 -214.000000,50.000000 -207.000000,50.000000 -161.000000C50.000000 -75.000000,119.000000 22.000000,231.000000 22.000000C347.000000 22.000000,449.000000 -74.000000,449.000000 -201.000000"></path>
    </g>
    <g transform="scale(0.009963,0.009963)" id="GLYPHcmr10_54">
      <path style="fill-rule: evenodd;" d="M132.000000 -328.000000L132.000000 -352.000000C132.000000 -605.000000,256.000000 -641.000000,307.000000 -641.000000C331.000000 -641.000000,373.000000 -635.000000,395.000000 -601.000000C380.000000 -601.000000,340.000000 -601.000000,340.000000 -556.000000C340.000000 -525.000000,364.000000 -510.000000,386.000000 -510.000000C402.000000 -510.000000,432.000000 -519.000000,432.000000 -558.000000C432.000000 -618.000000,388.000000 -666.000000,305.000000 -666.000000C177.000000 -666.000000,42.000000 -537.000000,42.000000 -316.000000C42.000000 -49.000000,158.000000 22.000000,251.000000 22.000000C362.000000 22.000000,457.000000 -72.000000,457.000000 -204.000000C457.000000 -331.000000,368.000000 -427.000000,257.000000 -427.000000C189.000000 -427.000000,152.000000 -376.000000,132.000000 -328.000000M251.000000 -6.000000C188.000000 -6.000000,158.000000 -66.000000,152.000000 -81.000000C134.000000 -128.000000,134.000000 -208.000000,134.000000 -226.000000C134.000000 -304.000000,166.000000 -404.000000,256.000000 -404.000000C272.000000 -404.000000,318.000000 -404.000000,349.000000 -342.000000C367.000000 -305.000000,367.000000 -254.000000,367.000000 -205.000000C367.000000 -157.000000,367.000000 -107.000000,350.000000 -71.000000C320.000000 -11.000000,274.000000 -6.000000,251.000000 -6.000000"></path>
    </g>
    <g transform="scale(0.009963,0.009963)" id="GLYPHcmr10_55">
      <path style="fill-rule: evenodd;" d="M476.000000 -609.000000C485.000000 -621.000000,485.000000 -623.000000,485.000000 -644.000000L242.000000 -644.000000C120.000000 -644.000000,118.000000 -657.000000,114.000000 -676.000000L89.000000 -676.000000L56.000000 -470.000000L81.000000 -470.000000C84.000000 -486.000000,93.000000 -549.000000,106.000000 -561.000000C113.000000 -567.000000,191.000000 -567.000000,204.000000 -567.000000L411.000000 -567.000000C400.000000 -551.000000,321.000000 -442.000000,299.000000 -409.000000C209.000000 -274.000000,176.000000 -135.000000,176.000000 -33.000000C176.000000 -23.000000,176.000000 22.000000,222.000000 22.000000C268.000000 22.000000,268.000000 -23.000000,268.000000 -33.000000L268.000000 -84.000000C268.000000 -139.000000,271.000000 -194.000000,279.000000 -248.000000C283.000000 -271.000000,297.000000 -357.000000,341.000000 -419.000000"></path>
    </g>
  </defs>
  <path d="M143.052094 182.320847C143.052094 181.528152,142.737152 180.768005,142.176666 180.207535C141.616196 179.647049,140.856049 179.332108,140.063354 179.332108C139.270660 179.332108,138.510513 179.647049,137.950043 180.207535C137.389557 180.768005,137.074615 181.528152,137.074615 182.320847C137.074615 183.113541,137.389557 183.873688,137.950043 184.434158C138.510513 184.994644,139.270660 185.309586,140.063354 185.309586C140.856049 185.309586,141.616196 184.994644,142.176666 184.434158C142.737152 183.873688,143.052094 183.113541,143.052094 182.320847Z" style="fill: rgb(100.000000%,100.000000%,100.000000%);stroke: none;"></path>
  <path d="M116.301056 183.918350C116.301056 183.125656,115.986115 182.365509,115.425629 181.805038C114.865158 181.244553,114.105011 180.929611,113.312317 180.929611C112.519623 180.929611,111.759476 181.244553,111.199005 181.805038C110.638519 182.365509,110.323578 183.125656,110.323578 183.918350C110.323578 184.711044,110.638519 185.471191,111.199005 186.031662C111.759476 186.592148,112.519623 186.907089,113.312317 186.907089C114.105011 186.907089,114.865158 186.592148,115.425629 186.031662C115.986115 185.471191,116.301056 184.711044,116.301056 183.918350Z" style="fill: rgb(100.000000%,100.000000%,100.000000%);stroke: none;"></path>
  <path d="M162.578186 117.790878C162.578186 116.998184,162.263245 116.238037,161.702759 115.677567C161.142288 115.117081,160.382141 114.802139,159.589447 114.802139C158.796753 114.802139,158.036606 115.117081,157.476135 115.677567C156.915649 116.238037,156.600708 116.998184,156.600708 117.790878C156.600708 118.583572,156.915649 119.343719,157.476135 119.904190C158.036606 120.464676,158.796753 120.779617,159.589447 120.779617C160.382141 120.779617,161.142288 120.464676,161.702759 119.904190C162.263245 119.343719,162.578186 118.583572,162.578186 117.790878Z" style="fill: rgb(100.000000%,100.000000%,100.000000%);stroke: none;"></path>
  <path d="M163.711884 159.788940C163.711884 158.996246,163.396942 158.236099,162.836456 157.675629C162.275986 157.115143,161.515839 156.800201,160.723145 156.800201C159.930450 156.800201,159.170303 157.115143,158.609833 157.675629C158.049347 158.236099,157.734406 158.996246,157.734406 159.788940C157.734406 160.581635,158.049347 161.341782,158.609833 161.902252C159.170303 162.462738,159.930450 162.777679,160.723145 162.777679C161.515839 162.777679,162.275986 162.462738,162.836456 161.902252C163.396942 161.341782,163.711884 160.581635,163.711884 159.788940Z" style="fill: rgb(100.000000%,100.000000%,100.000000%);stroke: none;"></path>
  <path d="M155.603455 74.099487C155.603455 73.306793,155.288513 72.546646,154.728027 71.986176C154.167557 71.425690,153.407410 71.110748,152.614716 71.110748C151.822021 71.110748,151.061874 71.425690,150.501404 71.986176C149.940918 72.546646,149.625977 73.306793,149.625977 74.099487C149.625977 74.892181,149.940918 75.652328,150.501404 76.212799C151.061874 76.773285,151.822021 77.088226,152.614716 77.088226C153.407410 77.088226,154.167557 76.773285,154.728027 76.212799C155.288513 75.652328,155.603455 74.892181,155.603455 74.099487Z" style="fill: rgb(100.000000%,100.000000%,100.000000%);stroke: none;"></path>
  <path d="M154.589737 103.610458C154.589737 102.817764,154.274796 102.057617,153.714310 101.497147C153.153839 100.936661,152.393692 100.621719,151.600998 100.621719C150.808304 100.621719,150.048157 100.936661,149.487686 101.497147C148.927200 102.057617,148.612259 102.817764,148.612259 103.610458C148.612259 104.403152,148.927200 105.163300,149.487686 105.723770C150.048157 106.284256,150.808304 106.599197,151.600998 106.599197C152.393692 106.599197,153.153839 106.284256,153.714310 105.723770C154.274796 105.163300,154.589737 104.403152,154.589737 103.610458Z" style="fill: rgb(100.000000%,100.000000%,100.000000%);stroke: none;"></path>
  <path d="M162.122955 25.216583C162.122955 24.423889,161.808014 23.663742,161.247528 23.103271C160.687057 22.542786,159.926910 22.227844,159.134216 22.227844C158.341522 22.227844,157.581375 22.542786,157.020905 23.103271C156.460419 23.663742,156.145477 24.423889,156.145477 25.216583C156.145477 26.009277,156.460419 26.769424,157.020905 27.329895C157.581375 27.890381,158.341522 28.205322,159.134216 28.205322C159.926910 28.205322,160.687057 27.890381,161.247528 27.329895C161.808014 26.769424,162.122955 26.009277,162.122955 25.216583Z" style="fill: rgb(100.000000%,100.000000%,100.000000%);stroke: none;"></path>
  <path d="M163.568069 60.910324C163.568069 60.117630,163.253128 59.357483,162.692642 58.797012C162.132172 58.236526,161.372025 57.921585,160.579330 57.921585C159.786636 57.921585,159.026489 58.236526,158.466019 58.797012C157.905533 59.357483,157.590591 60.117630,157.590591 60.910324C157.590591 61.703018,157.905533 62.463165,158.466019 63.023636C159.026489 63.584122,159.786636 63.899063,160.579330 63.899063C161.372025 63.899063,162.132172 63.584122,162.692642 63.023636C163.253128 62.463165,163.568069 61.703018,163.568069 60.910324Z" style="fill: rgb(100.000000%,100.000000%,100.000000%);stroke: none;"></path>
  <path d="M103.246872 2.293167C103.246872 1.500473,102.931931 0.740326,102.371445 0.179855C101.810974 -0.380630,101.050827 -0.695572,100.258133 -0.695572C99.465439 -0.695572,98.705292 -0.380630,98.144821 0.179855C97.584335 0.740326,97.269394 1.500473,97.269394 2.293167C97.269394 3.085861,97.584335 3.846008,98.144821 4.406479C98.705292 4.966965,99.465439 5.281906,100.258133 5.281906C101.050827 5.281906,101.810974 4.966965,102.371445 4.406479C102.931931 3.846008,103.246872 3.085861,103.246872 2.293167Z" style="fill: rgb(100.000000%,100.000000%,100.000000%);stroke: none;"></path>
  <path d="M144.486618 8.789658C144.486618 7.996964,144.171677 7.236816,143.611191 6.676346C143.050720 6.115860,142.290573 5.800919,141.497879 5.800919C140.705185 5.800919,139.945038 6.115860,139.384567 6.676346C138.824081 7.236816,138.509140 7.996964,138.509140 8.789658C138.509140 9.582352,138.824081 10.342499,139.384567 10.902969C139.945038 11.463455,140.705185 11.778397,141.497879 11.778397C142.290573 11.778397,143.050720 11.463455,143.611191 10.902969C144.171677 10.342499,144.486618 9.582352,144.486618 8.789658Z" style="fill: rgb(100.000000%,100.000000%,100.000000%);stroke: none;"></path>
  <path d="M67.824280 41.768234C67.824280 40.975540,67.509338 40.215393,66.948853 39.654922C66.388382 39.094437,65.628235 38.779495,64.835541 38.779495C64.042847 38.779495,63.282700 39.094437,62.722229 39.654922C62.161743 40.215393,61.846802 40.975540,61.846802 41.768234C61.846802 42.560928,62.161743 43.321075,62.722229 43.881546C63.282700 44.442032,64.042847 44.756973,64.835541 44.756973C65.628235 44.756973,66.388382 44.442032,66.948853 43.881546C67.509338 43.321075,67.824280 42.560928,67.824280 41.768234Z" style="fill: rgb(100.000000%,100.000000%,100.000000%);stroke: none;"></path>
  <path d="M83.149277 10.538544C83.149277 9.745850,82.834335 8.985703,82.273849 8.425232C81.713379 7.864746,80.953232 7.549805,80.160538 7.549805C79.367844 7.549805,78.607697 7.864746,78.047226 8.425232C77.486740 8.985703,77.171799 9.745850,77.171799 10.538544C77.171799 11.331238,77.486740 12.091385,78.047226 12.651855C78.607697 13.212341,79.367844 13.527283,80.160538 13.527283C80.953232 13.527283,81.713379 13.212341,82.273849 12.651855C82.834335 12.091385,83.149277 11.331238,83.149277 10.538544Z" style="fill: rgb(100.000000%,100.000000%,100.000000%);stroke: none;"></path>
  <path d="M72.460999 81.610565C72.460999 80.817871,72.146057 80.057724,71.585571 79.497253C71.025101 78.936768,70.264954 78.621826,69.472260 78.621826C68.679565 78.621826,67.919418 78.936768,67.358948 79.497253C66.798462 80.057724,66.483521 80.817871,66.483521 81.610565C66.483521 82.403259,66.798462 83.163406,67.358948 83.723877C67.919418 84.284363,68.679565 84.599304,69.472260 84.599304C70.264954 84.599304,71.025101 84.284363,71.585571 83.723877C72.146057 83.163406,72.460999 82.403259,72.460999 81.610565Z" style="fill: rgb(100.000000%,100.000000%,100.000000%);stroke: none;"></path>
  <path d="M70.242783 57.429504C70.242783 56.636810,69.927841 55.876663,69.367355 55.316193C68.806885 54.755707,68.046738 54.440765,67.254044 54.440765C66.461349 54.440765,65.701202 54.755707,65.140732 55.316193C64.580246 55.876663,64.265305 56.636810,64.265305 57.429504C64.265305 58.222198,64.580246 58.982346,65.140732 59.542816C65.701202 60.103302,66.461349 60.418243,67.254044 60.418243C68.046738 60.418243,68.806885 60.103302,69.367355 59.542816C69.927841 58.982346,70.242783 58.222198,70.242783 57.429504Z" style="fill: rgb(100.000000%,100.000000%,100.000000%);stroke: none;"></path>
  <path d="M74.382706 110.339279C74.382706 109.546585,74.067764 108.786438,73.507278 108.225967C72.946808 107.665482,72.186661 107.350540,71.393967 107.350540C70.601273 107.350540,69.841125 107.665482,69.280655 108.225967C68.720169 108.786438,68.405228 109.546585,68.405228 110.339279C68.405228 111.131973,68.720169 111.892120,69.280655 112.452591C69.841125 113.013077,70.601273 113.328018,71.393967 113.328018C72.186661 113.328018,72.946808 113.013077,73.507278 112.452591C74.067764 111.892120,74.382706 111.131973,74.382706 110.339279Z" style="fill: rgb(100.000000%,100.000000%,100.000000%);stroke: none;"></path>
  <path d="M72.853928 90.775452C72.853928 89.982758,72.538986 89.222610,71.978500 88.662140C71.418030 88.101654,70.657883 87.786713,69.865189 87.786713C69.072495 87.786713,68.312347 88.101654,67.751877 88.662140C67.191391 89.222610,66.876450 89.982758,66.876450 90.775452C66.876450 91.568146,67.191391 92.328293,67.751877 92.888763C68.312347 93.449249,69.072495 93.764191,69.865189 93.764191C70.657883 93.764191,71.418030 93.449249,71.978500 92.888763C72.538986 92.328293,72.853928 91.568146,72.853928 90.775452Z" style="fill: rgb(100.000000%,100.000000%,100.000000%);stroke: none;"></path>
  <path d="M75.969070 148.011215C75.969070 147.218521,75.654129 146.458374,75.093643 145.897903C74.533173 145.337418,73.773026 145.022476,72.980331 145.022476C72.187637 145.022476,71.427490 145.337418,70.867020 145.897903C70.306534 146.458374,69.991592 147.218521,69.991592 148.011215C69.991592 148.803909,70.306534 149.564056,70.867020 150.124527C71.427490 150.685013,72.187637 150.999954,72.980331 150.999954C73.773026 150.999954,74.533173 150.685013,75.093643 150.124527C75.654129 149.564056,75.969070 148.803909,75.969070 148.011215Z" style="fill: rgb(100.000000%,100.000000%,100.000000%);stroke: none;"></path>
  <path d="M75.615158 120.738358C75.615158 119.945663,75.300217 119.185516,74.739731 118.625046C74.179260 118.064560,73.419113 117.749619,72.626419 117.749619C71.833725 117.749619,71.073578 118.064560,70.513107 118.625046C69.952621 119.185516,69.637680 119.945663,69.637680 120.738358C69.637680 121.531052,69.952621 122.291199,70.513107 122.851669C71.073578 123.412155,71.833725 123.727097,72.626419 123.727097C73.419113 123.727097,74.179260 123.412155,74.739731 122.851669C75.300217 122.291199,75.615158 121.531052,75.615158 120.738358Z" style="fill: rgb(100.000000%,100.000000%,100.000000%);stroke: none;"></path>
  <path d="M43.567902 180.838852C43.567902 180.046158,43.252960 179.286011,42.692474 178.725540C42.132004 178.165054,41.371857 177.850113,40.579163 177.850113C39.786469 177.850113,39.026321 178.165054,38.465851 178.725540C37.905365 179.286011,37.590424 180.046158,37.590424 180.838852C37.590424 181.631546,37.905365 182.391693,38.465851 182.952164C39.026321 183.512650,39.786469 183.827591,40.579163 183.827591C41.371857 183.827591,42.132004 183.512650,42.692474 182.952164C43.252960 182.391693,43.567902 181.631546,43.567902 180.838852Z" style="fill: rgb(100.000000%,100.000000%,100.000000%);stroke: none;"></path>
  <path d="M72.151123 165.815842C72.151123 165.023148,71.836182 164.263000,71.275696 163.702530C70.715225 163.142044,69.955078 162.827103,69.162384 162.827103C68.369690 162.827103,67.609543 163.142044,67.049072 163.702530C66.488586 164.263000,66.173645 165.023148,66.173645 165.815842C66.173645 166.608536,66.488586 167.368683,67.049072 167.929153C67.609543 168.489639,68.369690 168.804581,69.162384 168.804581C69.955078 168.804581,70.715225 168.489639,71.275696 167.929153C71.836182 167.368683,72.151123 166.608536,72.151123 165.815842Z" style="fill: rgb(100.000000%,100.000000%,100.000000%);stroke: none;"></path>
  <path d="M5.676987 145.753448C5.676987 144.960754,5.362045 144.200607,4.801559 143.640137C4.241089 143.079651,3.480942 142.764709,2.688248 142.764709C1.895554 142.764709,1.135406 143.079651,0.574936 143.640137C0.014450 144.200607,-0.300491 144.960754,-0.300491 145.753448C-0.300491 146.546143,0.014450 147.306290,0.574936 147.866760C1.135406 148.427246,1.895554 148.742188,2.688248 148.742188C3.480942 148.742188,4.241089 148.427246,4.801559 147.866760C5.362045 147.306290,5.676987 146.546143,5.676987 145.753448Z" style="fill: rgb(100.000000%,100.000000%,100.000000%);stroke: none;"></path>
  <path d="M26.475082 174.829651C26.475082 174.036957,26.160141 173.276810,25.599655 172.716339C25.039185 172.155853,24.279037 171.840912,23.486343 171.840912C22.693649 171.840912,21.933502 172.155853,21.373032 172.716339C20.812546 173.276810,20.497604 174.036957,20.497604 174.829651C20.497604 175.622345,20.812546 176.382492,21.373032 176.942963C21.933502 177.503448,22.693649 177.818390,23.486343 177.818390C24.279037 177.818390,25.039185 177.503448,25.599655 176.942963C26.160141 176.382492,26.475082 175.622345,26.475082 174.829651Z" style="fill: rgb(100.000000%,100.000000%,100.000000%);stroke: none;"></path>
  <path d="M30.431671 104.778015C30.431671 103.985321,30.116730 103.225174,29.556244 102.664703C28.995773 102.104218,28.235626 101.789276,27.442932 101.789276C26.650238 101.789276,25.890091 102.104218,25.329620 102.664703C24.769135 103.225174,24.454193 103.985321,24.454193 104.778015C24.454193 105.570709,24.769135 106.330856,25.329620 106.891327C25.890091 107.451813,26.650238 107.766754,27.442932 107.766754C28.235626 107.766754,28.995773 107.451813,29.556244 106.891327C30.116730 106.330856,30.431671 105.570709,30.431671 104.778015Z" style="fill: rgb(100.000000%,100.000000%,100.000000%);stroke: none;"></path>
  <path d="M7.274582 123.973404C7.274582 123.180710,6.959641 122.420563,6.399155 121.860092C5.838684 121.299606,5.078537 120.984665,4.285843 120.984665C3.493149 120.984665,2.733002 121.299606,2.172531 121.860092C1.612045 122.420563,1.297104 123.180710,1.297104 123.973404C1.297104 124.766098,1.612045 125.526245,2.172531 126.086716C2.733002 126.647202,3.493149 126.962143,4.285843 126.962143C5.078537 126.962143,5.838684 126.647202,6.399155 126.086716C6.959641 125.526245,7.274582 124.766098,7.274582 123.973404Z" style="fill: rgb(100.000000%,100.000000%,100.000000%);stroke: none;"></path>
  <path d="M59.535889 100.849670C59.535889 100.056976,59.220947 99.296829,58.660461 98.736359C58.099991 98.175873,57.339844 97.860931,56.547150 97.860931C55.754456 97.860931,54.994308 98.175873,54.433838 98.736359C53.873352 99.296829,53.558411 100.056976,53.558411 100.849670C53.558411 101.642365,53.873352 102.402512,54.433838 102.962982C54.994308 103.523468,55.754456 103.838409,56.547150 103.838409C57.339844 103.838409,58.099991 103.523468,58.660461 102.962982C59.220947 102.402512,59.535889 101.642365,59.535889 100.849670Z" style="fill: rgb(100.000000%,100.000000%,100.000000%);stroke: none;"></path>
  <path d="M41.645493 102.913879C41.645493 102.121185,41.330551 101.361038,40.770065 100.800568C40.209595 100.240082,39.449448 99.925140,38.656754 99.925140C37.864059 99.925140,37.103912 100.240082,36.543442 100.800568C35.982956 101.361038,35.668015 102.121185,35.668015 102.913879C35.668015 103.706573,35.982956 104.466721,36.543442 105.027191C37.103912 105.587677,37.864059 105.902618,38.656754 105.902618C39.449448 105.902618,40.209595 105.587677,40.770065 105.027191C41.330551 104.466721,41.645493 103.706573,41.645493 102.913879Z" style="fill: rgb(100.000000%,100.000000%,100.000000%);stroke: none;"></path>
  <path d="M80.693893 99.609650C80.693893 98.816956,80.378952 98.056808,79.818466 97.496338C79.257996 96.935852,78.497849 96.620911,77.705154 96.620911C76.912460 96.620911,76.152313 96.935852,75.591843 97.496338C75.031357 98.056808,74.716415 98.816956,74.716415 99.609650C74.716415 100.402344,75.031357 101.162491,75.591843 101.722961C76.152313 102.283447,76.912460 102.598389,77.705154 102.598389C78.497849 102.598389,79.257996 102.283447,79.818466 101.722961C80.378952 101.162491,80.693893 100.402344,80.693893 99.609650Z" style="fill: rgb(100.000000%,100.000000%,100.000000%);stroke: none;"></path>
  <path d="M66.542374 100.219360C66.542374 99.426666,66.227432 98.666519,65.666946 98.106049C65.106476 97.545563,64.346329 97.230621,63.553635 97.230621C62.760941 97.230621,62.000793 97.545563,61.440323 98.106049C60.879837 98.666519,60.564896 99.426666,60.564896 100.219360C60.564896 101.012054,60.879837 101.772202,61.440323 102.332672C62.000793 102.893158,62.760941 103.208099,63.553635 103.208099C64.346329 103.208099,65.106476 102.893158,65.666946 102.332672C66.227432 101.772202,66.542374 101.012054,66.542374 100.219360Z" style="fill: rgb(100.000000%,100.000000%,100.000000%);stroke: none;"></path>
  <path d="M101.759308 93.718948C101.759308 92.926254,101.444366 92.166107,100.883881 91.605637C100.323410 91.045151,99.563263 90.730209,98.770569 90.730209C97.977875 90.730209,97.217728 91.045151,96.657257 91.605637C96.096771 92.166107,95.781830 92.926254,95.781830 93.718948C95.781830 94.511642,96.096771 95.271790,96.657257 95.832260C97.217728 96.392746,97.977875 96.707687,98.770569 96.707687C99.563263 96.707687,100.323410 96.392746,100.883881 95.832260C101.444366 95.271790,101.759308 94.511642,101.759308 93.718948Z" style="fill: rgb(100.000000%,100.000000%,100.000000%);stroke: none;"></path>
  <path d="M87.981293 99.604141C87.981293 98.811447,87.666351 98.051300,87.105865 97.490829C86.545395 96.930344,85.785248 96.615402,84.992554 96.615402C84.199860 96.615402,83.439713 96.930344,82.879242 97.490829C82.318756 98.051300,82.003815 98.811447,82.003815 99.604141C82.003815 100.396835,82.318756 101.156982,82.879242 101.717453C83.439713 102.277939,84.199860 102.592880,84.992554 102.592880C85.785248 102.592880,86.545395 102.277939,87.105865 101.717453C87.666351 101.156982,87.981293 100.396835,87.981293 99.604141Z" style="fill: rgb(100.000000%,100.000000%,100.000000%);stroke: none;"></path>
  <path d="M118.619644 76.545242C118.619644 75.752548,118.304703 74.992401,117.744217 74.431931C117.183746 73.871445,116.423599 73.556503,115.630905 73.556503C114.838211 73.556503,114.078064 73.871445,113.517593 74.431931C112.957108 74.992401,112.642166 75.752548,112.642166 76.545242C112.642166 77.337936,112.957108 78.098083,113.517593 78.658554C114.078064 79.219040,114.838211 79.533981,115.630905 79.533981C116.423599 79.533981,117.183746 79.219040,117.744217 78.658554C118.304703 78.098083,118.619644 77.337936,118.619644 76.545242Z" style="fill: rgb(100.000000%,100.000000%,100.000000%);stroke: none;"></path>
  <path d="M107.087677 87.729248C107.087677 86.936554,106.772736 86.176407,106.212250 85.615936C105.651779 85.055450,104.891632 84.740509,104.098938 84.740509C103.306244 84.740509,102.546097 85.055450,101.985626 85.615936C101.425140 86.176407,101.110199 86.936554,101.110199 87.729248C101.110199 88.521942,101.425140 89.282089,101.985626 89.842560C102.546097 90.403046,103.306244 90.717987,104.098938 90.717987C104.891632 90.717987,105.651779 90.403046,106.212250 89.842560C106.772736 89.282089,107.087677 88.521942,107.087677 87.729248Z" style="fill: rgb(100.000000%,100.000000%,100.000000%);stroke: none;"></path>
  <path d="M140.486221 56.870728C140.486221 56.078033,140.171280 55.317886,139.610794 54.757416C139.050323 54.196930,138.290176 53.881989,137.497482 53.881989C136.704788 53.881989,135.944641 54.196930,135.384171 54.757416C134.823685 55.317886,134.508743 56.078033,134.508743 56.870728C134.508743 57.663422,134.823685 58.423569,135.384171 58.984039C135.944641 59.544525,136.704788 59.859467,137.497482 59.859467C138.290176 59.859467,139.050323 59.544525,139.610794 58.984039C140.171280 58.423569,140.486221 57.663422,140.486221 56.870728Z" style="fill: rgb(100.000000%,100.000000%,100.000000%);stroke: none;"></path>
  <path d="M125.019928 71.314621C125.019928 70.521927,124.704987 69.761780,124.144501 69.201309C123.584030 68.640823,122.823883 68.325882,122.031189 68.325882C121.238495 68.325882,120.478348 68.640823,119.917877 69.201309C119.357391 69.761780,119.042450 70.521927,119.042450 71.314621C119.042450 72.107315,119.357391 72.867462,119.917877 73.427933C120.478348 73.988419,121.238495 74.303360,122.031189 74.303360C122.823883 74.303360,123.584030 73.988419,124.144501 73.427933C124.704987 72.867462,125.019928 72.107315,125.019928 71.314621Z" style="fill: rgb(100.000000%,100.000000%,100.000000%);stroke: none;"></path>
  <path d="M182.687531 46.329636C182.687531 45.536942,182.372589 44.776794,181.812103 44.216324C181.251633 43.655838,180.491486 43.340897,179.698792 43.340897C178.906097 43.340897,178.145950 43.655838,177.585480 44.216324C177.024994 44.776794,176.710052 45.536942,176.710052 46.329636C176.710052 47.122330,177.024994 47.882477,177.585480 48.442947C178.145950 49.003433,178.906097 49.318375,179.698792 49.318375C180.491486 49.318375,181.251633 49.003433,181.812103 48.442947C182.372589 47.882477,182.687531 47.122330,182.687531 46.329636Z" style="fill: rgb(100.000000%,100.000000%,100.000000%);stroke: none;"></path>
  <path d="M150.083191 46.779007C150.083191 45.986313,149.768250 45.226166,149.207764 44.665695C148.647293 44.105209,147.887146 43.790268,147.094452 43.790268C146.301758 43.790268,145.541611 44.105209,144.981140 44.665695C144.420654 45.226166,144.105713 45.986313,144.105713 46.779007C144.105713 47.571701,144.420654 48.331848,144.981140 48.892319C145.541611 49.452805,146.301758 49.767746,147.094452 49.767746C147.887146 49.767746,148.647293 49.452805,149.207764 48.892319C149.768250 48.331848,150.083191 47.571701,150.083191 46.779007Z" style="fill: rgb(100.000000%,100.000000%,100.000000%);stroke: none;"></path>
  <path d="M195.819702 110.064651C195.819702 109.271957,195.504761 108.511810,194.944275 107.951340C194.383804 107.390854,193.623657 107.075912,192.830963 107.075912C192.038269 107.075912,191.278122 107.390854,190.717651 107.951340C190.157166 108.511810,189.842224 109.271957,189.842224 110.064651C189.842224 110.857346,190.157166 111.617493,190.717651 112.177963C191.278122 112.738449,192.038269 113.053391,192.830963 113.053391C193.623657 113.053391,194.383804 112.738449,194.944275 112.177963C195.504761 111.617493,195.819702 110.857346,195.819702 110.064651Z" style="fill: rgb(100.000000%,100.000000%,100.000000%);stroke: none;"></path>
  <path d="M195.193710 66.418579C195.193710 65.625885,194.878769 64.865738,194.318283 64.305267C193.757812 63.744781,192.997665 63.429840,192.204971 63.429840C191.412277 63.429840,190.652130 63.744781,190.091660 64.305267C189.531174 64.865738,189.216232 65.625885,189.216232 66.418579C189.216232 67.211273,189.531174 67.971420,190.091660 68.531891C190.652130 69.092377,191.412277 69.407318,192.204971 69.407318C192.997665 69.407318,193.757812 69.092377,194.318283 68.531891C194.878769 67.971420,195.193710 67.211273,195.193710 66.418579Z" style="fill: rgb(100.000000%,100.000000%,100.000000%);stroke: none;"></path>
  <path d="M147.673553 134.231735C147.673553 133.439041,147.358612 132.678894,146.798126 132.118423C146.237656 131.557938,145.477509 131.242996,144.684814 131.242996C143.892120 131.242996,143.131973 131.557938,142.571503 132.118423C142.011017 132.678894,141.696075 133.439041,141.696075 134.231735C141.696075 135.024429,142.011017 135.784576,142.571503 136.345047C143.131973 136.905533,143.892120 137.220474,144.684814 137.220474C145.477509 137.220474,146.237656 136.905533,146.798126 136.345047C147.358612 135.784576,147.673553 135.024429,147.673553 134.231735Z" style="fill: rgb(100.000000%,100.000000%,100.000000%);stroke: none;"></path>
  <path d="M183.696564 131.334549C183.696564 130.541855,183.381622 129.781708,182.821136 129.221237C182.260666 128.660751,181.500519 128.345810,180.707825 128.345810C179.915131 128.345810,179.154984 128.660751,178.594513 129.221237C178.034027 129.781708,177.719086 130.541855,177.719086 131.334549C177.719086 132.127243,178.034027 132.887390,178.594513 133.447861C179.154984 134.008347,179.915131 134.323288,180.707825 134.323288C181.500519 134.323288,182.260666 134.008347,182.821136 133.447861C183.381622 132.887390,183.696564 132.127243,183.696564 131.334549Z" style="fill: rgb(100.000000%,100.000000%,100.000000%);stroke: none;"></path>
  <path d="M121.172470 101.135635C121.172470 100.342941,120.857529 99.582794,120.297043 99.022324C119.736572 98.461838,118.976425 98.146896,118.183731 98.146896C117.391037 98.146896,116.630890 98.461838,116.070419 99.022324C115.509933 99.582794,115.194992 100.342941,115.194992 101.135635C115.194992 101.928329,115.509933 102.688477,116.070419 103.248947C116.630890 103.809433,117.391037 104.124374,118.183731 104.124374C118.976425 104.124374,119.736572 103.809433,120.297043 103.248947C120.857529 102.688477,121.172470 101.928329,121.172470 101.135635Z" style="fill: rgb(100.000000%,100.000000%,100.000000%);stroke: none;"></path>
  <path d="M134.943665 123.183960C134.943665 122.391266,134.628723 121.631119,134.068237 121.070648C133.507767 120.510162,132.747620 120.195221,131.954926 120.195221C131.162231 120.195221,130.402084 120.510162,129.841614 121.070648C129.281128 121.631119,128.966187 122.391266,128.966187 123.183960C128.966187 123.976654,129.281128 124.736801,129.841614 125.297272C130.402084 125.857758,131.162231 126.172699,131.954926 126.172699C132.747620 126.172699,133.507767 125.857758,134.068237 125.297272C134.628723 124.736801,134.943665 123.976654,134.943665 123.183960Z" style="fill: rgb(100.000000%,100.000000%,100.000000%);stroke: none;"></path>
  <path d="M108.730362 74.358932C108.730362 73.566238,108.415421 72.806091,107.854935 72.245621C107.294464 71.685135,106.534317 71.370193,105.741623 71.370193C104.948929 71.370193,104.188782 71.685135,103.628311 72.245621C103.067825 72.806091,102.752884 73.566238,102.752884 74.358932C102.752884 75.151627,103.067825 75.911774,103.628311 76.472244C104.188782 77.032730,104.948929 77.347672,105.741623 77.347672C106.534317 77.347672,107.294464 77.032730,107.854935 76.472244C108.415421 75.911774,108.730362 75.151627,108.730362 74.358932Z" style="fill: rgb(100.000000%,100.000000%,100.000000%);stroke: none;"></path>
  <path d="M117.305191 91.518433C117.305191 90.725739,116.990250 89.965591,116.429764 89.405121C115.869293 88.844635,115.109146 88.529694,114.316452 88.529694C113.523758 88.529694,112.763611 88.844635,112.203140 89.405121C111.642654 89.965591,111.327713 90.725739,111.327713 91.518433C111.327713 92.311127,111.642654 93.071274,112.203140 93.631744C112.763611 94.192230,113.523758 94.507172,114.316452 94.507172C115.109146 94.507172,115.869293 94.192230,116.429764 93.631744C116.990250 93.071274,117.305191 92.311127,117.305191 91.518433Z" style="fill: rgb(100.000000%,100.000000%,100.000000%);stroke: none;"></path>
  <path d="M93.961853 46.264191C93.961853 45.471497,93.646912 44.711349,93.086426 44.150879C92.525955 43.590393,91.765808 43.275452,90.973114 43.275452C90.180420 43.275452,89.420273 43.590393,88.859802 44.150879C88.299316 44.711349,87.984375 45.471497,87.984375 46.264191C87.984375 47.056885,88.299316 47.817032,88.859802 48.377502C89.420273 48.937988,90.180420 49.252930,90.973114 49.252930C91.765808 49.252930,92.525955 48.937988,93.086426 48.377502C93.646912 47.817032,93.961853 47.056885,93.961853 46.264191Z" style="fill: rgb(100.000000%,100.000000%,100.000000%);stroke: none;"></path>
  <path d="M104.215302 66.713974C104.215302 65.921280,103.900360 65.161133,103.339874 64.600662C102.779404 64.040176,102.019257 63.725235,101.226562 63.725235C100.433868 63.725235,99.673721 64.040176,99.113251 64.600662C98.552765 65.161133,98.237823 65.921280,98.237823 66.713974C98.237823 67.506668,98.552765 68.266815,99.113251 68.827286C99.673721 69.387772,100.433868 69.702713,101.226562 69.702713C102.019257 69.702713,102.779404 69.387772,103.339874 68.827286C103.900360 68.266815,104.215302 67.506668,104.215302 66.713974Z" style="fill: rgb(100.000000%,100.000000%,100.000000%);stroke: none;"></path>
  <path d="M56.746429 22.652832C56.746429 21.860138,56.431488 21.099991,55.871002 20.539520C55.310532 19.979034,54.550385 19.664093,53.757690 19.664093C52.964996 19.664093,52.204849 19.979034,51.644379 20.539520C51.083893 21.099991,50.768951 21.860138,50.768951 22.652832C50.768951 23.445526,51.083893 24.205673,51.644379 24.766144C52.204849 25.326630,52.964996 25.641571,53.757690 25.641571C54.550385 25.641571,55.310532 25.326630,55.871002 24.766144C56.431488 24.205673,56.746429 23.445526,56.746429 22.652832Z" style="fill: rgb(100.000000%,100.000000%,100.000000%);stroke: none;"></path>
  <path d="M87.842773 32.290207C87.842773 31.497513,87.527832 30.737366,86.967346 30.176895C86.406876 29.616409,85.646729 29.301468,84.854034 29.301468C84.061340 29.301468,83.301193 29.616409,82.740723 30.176895C82.180237 30.737366,81.865295 31.497513,81.865295 32.290207C81.865295 33.082901,82.180237 33.843048,82.740723 34.403519C83.301193 34.964005,84.061340 35.278946,84.854034 35.278946C85.646729 35.278946,86.406876 34.964005,86.967346 34.403519C87.527832 33.843048,87.842773 33.082901,87.842773 32.290207Z" style="fill: rgb(100.000000%,100.000000%,100.000000%);stroke: none;"></path>
  <path d="M17.979248 71.921463C17.979248 71.128769,17.664307 70.368622,17.103821 69.808151C16.543350 69.247665,15.783203 68.932724,14.990509 68.932724C14.197815 68.932724,13.437668 69.247665,12.877197 69.808151C12.316711 70.368622,12.001770 71.128769,12.001770 71.921463C12.001770 72.714157,12.316711 73.474304,12.877197 74.034775C13.437668 74.595261,14.197815 74.910202,14.990509 74.910202C15.783203 74.910202,16.543350 74.595261,17.103821 74.034775C17.664307 73.474304,17.979248 72.714157,17.979248 71.921463Z" style="fill: rgb(100.000000%,100.000000%,100.000000%);stroke: none;"></path>
  <path d="M40.721130 37.115173C40.721130 36.322479,40.406189 35.562332,39.845703 35.001862C39.285233 34.441376,38.525085 34.126434,37.732391 34.126434C36.939697 34.126434,36.179550 34.441376,35.619080 35.001862C35.058594 35.562332,34.743652 36.322479,34.743652 37.115173C34.743652 37.907867,35.058594 38.668015,35.619080 39.228485C36.179550 39.788971,36.939697 40.103912,37.732391 40.103912C38.525085 40.103912,39.285233 39.788971,39.845703 39.228485C40.406189 38.668015,40.721130 37.907867,40.721130 37.115173Z" style="fill: rgb(100.000000%,100.000000%,100.000000%);stroke: none;"></path>
  <path d="M28.281662 120.966522C28.281662 120.173828,27.966721 119.413681,27.406235 118.853210C26.845764 118.292725,26.085617 117.977783,25.292923 117.977783C24.500229 117.977783,23.740082 118.292725,23.179611 118.853210C22.619125 119.413681,22.304184 120.173828,22.304184 120.966522C22.304184 121.759216,22.619125 122.519363,23.179611 123.079834C23.740082 123.640320,24.500229 123.955261,25.292923 123.955261C26.085617 123.955261,26.845764 123.640320,27.406235 123.079834C27.966721 122.519363,28.281662 121.759216,28.281662 120.966522Z" style="fill: rgb(100.000000%,100.000000%,100.000000%);stroke: none;"></path>
  <path d="M10.004318 94.410507C10.004318 93.617813,9.689377 92.857666,9.128891 92.297195C8.568420 91.736710,7.808273 91.421768,7.015579 91.421768C6.222885 91.421768,5.462738 91.736710,4.902267 92.297195C4.341782 92.857666,4.026840 93.617813,4.026840 94.410507C4.026840 95.203201,4.341782 95.963348,4.902267 96.523819C5.462738 97.084305,6.222885 97.399246,7.015579 97.399246C7.808273 97.399246,8.568420 97.084305,9.128891 96.523819C9.689377 95.963348,10.004318 95.203201,10.004318 94.410507Z" style="fill: rgb(100.000000%,100.000000%,100.000000%);stroke: none;"></path>
  <path d="M52.235580 146.968353C52.235580 146.175659,51.920639 145.415512,51.360153 144.855042C50.799683 144.294556,50.039536 143.979614,49.246841 143.979614C48.454147 143.979614,47.694000 144.294556,47.133530 144.855042C46.573044 145.415512,46.258102 146.175659,46.258102 146.968353C46.258102 147.761047,46.573044 148.521194,47.133530 149.081665C47.694000 149.642151,48.454147 149.957092,49.246841 149.957092C50.039536 149.957092,50.799683 149.642151,51.360153 149.081665C51.920639 148.521194,52.235580 147.761047,52.235580 146.968353Z" style="fill: rgb(100.000000%,100.000000%,100.000000%);stroke: none;"></path>
  <path d="M39.407196 125.819199C39.407196 125.026505,39.092255 124.266357,38.531769 123.705887C37.971298 123.145401,37.211151 122.830460,36.418457 122.830460C35.625763 122.830460,34.865616 123.145401,34.305145 123.705887C33.744659 124.266357,33.429718 125.026505,33.429718 125.819199C33.429718 126.611893,33.744659 127.372040,34.305145 127.932510C34.865616 128.492996,35.625763 128.807938,36.418457 128.807938C37.211151 128.807938,37.971298 128.492996,38.531769 127.932510C39.092255 127.372040,39.407196 126.611893,39.407196 125.819199Z" style="fill: rgb(100.000000%,100.000000%,100.000000%);stroke: none;"></path>
  <path d="M70.270508 190.651566C70.270508 189.858871,69.955566 189.098724,69.395081 188.538254C68.834610 187.977768,68.074463 187.662827,67.281769 187.662827C66.489075 187.662827,65.728928 187.977768,65.168457 188.538254C64.607971 189.098724,64.293030 189.858871,64.293030 190.651566C64.293030 191.444260,64.607971 192.204407,65.168457 192.764877C65.728928 193.325363,66.489075 193.640305,67.281769 193.640305C68.074463 193.640305,68.834610 193.325363,69.395081 192.764877C69.955566 192.204407,70.270508 191.444260,70.270508 190.651566Z" style="fill: rgb(100.000000%,100.000000%,100.000000%);stroke: none;"></path>
  <path d="M49.560242 162.438324C49.560242 161.645630,49.245300 160.885483,48.684814 160.325012C48.124344 159.764526,47.364197 159.449585,46.571503 159.449585C45.778809 159.449585,45.018661 159.764526,44.458191 160.325012C43.897705 160.885483,43.582764 161.645630,43.582764 162.438324C43.582764 163.231018,43.897705 163.991165,44.458191 164.551636C45.018661 165.112122,45.778809 165.427063,46.571503 165.427063C47.364197 165.427063,48.124344 165.112122,48.684814 164.551636C49.245300 163.991165,49.560242 163.231018,49.560242 162.438324Z" style="fill: rgb(100.000000%,100.000000%,100.000000%);stroke: none;"></path>
  <path d="M113.312317 183.918350C140.063354 182.320847,160.723145 159.788940,160.000000 133.000000C159.589447 117.790878,151.600998 103.610458,152.124283 88.376938C152.614716 74.099487,160.579330 60.910324,160.000000 46.601135C159.134216 25.216583,141.497879 8.789658,119.923203 5.391006C100.258133 2.293167,80.160538 10.538544,71.515198 28.156235C64.835541 41.768234,67.254044 57.429504,68.634644 72.479630C69.472260 81.610565,69.865189 90.775452,70.579514 99.916656C71.393967 110.339279,72.626419 120.738358,72.762100 131.193802C72.980331 148.011215,69.162384 165.815842,54.649933 173.443420C40.579163 180.838852,23.486343 174.829651,13.985352 161.547043C2.688248 145.753448,4.285843 123.973404,18.979538 111.793503C27.442932 104.778015,38.656754 102.913879,49.561310 101.655701C56.547150 100.849670,63.553635 100.219360,70.579514 99.916656C77.705154 99.609650,84.992554 99.604141,91.567245 96.795807C98.770569 93.718948,104.098938 87.729248,109.705704 82.291656C115.630905 76.545242,122.031189 71.314621,128.063324 65.681244C137.497482 56.870728,147.094452 46.779007,160.000000 46.601135C179.698792 46.329636,192.204971 66.418579,192.512695 87.874023C192.830963 110.064651,180.707825 131.334549,160.000000 133.000000C144.684814 134.231735,131.954926 123.183960,123.650558 109.888275C118.183731 101.135635,114.316452 91.518433,109.705704 82.291656C105.741623 74.358932,101.226562 66.713974,97.251816 58.786621C90.973114 46.264191,84.854034 32.290207,71.515198 28.156235C53.757690 22.652832,37.732391 37.115173,26.966049 53.592987C14.990509 71.921463,7.015579 94.410507,18.979538 111.793503C25.292923 120.966522,36.418457 125.819199,42.206024 135.360703C49.246841 146.968353,46.571503 162.438324,54.649933 173.443420C67.281769 190.651566,91.712799 185.208221,113.312317 183.918350" style="stroke:rgb(0.000000%,0.000000%,0.000000%); stroke-width: 0.498138;stroke-linecap: round;stroke-linejoin: round;stroke-miterlimit: 10.000000;fill: none;"></path>
  <path d="M113.312317 183.918350C140.063354 182.320847,160.723145 159.788940,160.000000 133.000000" style="stroke:rgb(0.000000%,0.000000%,0.000000%); stroke-width: 1.494400;stroke-linecap: round;stroke-linejoin: round;stroke-miterlimit: 10.000000;fill: none;"></path>
  <path d="M18.979538 111.793503C25.292923 120.966522,36.418457 125.819199,42.206024 135.360703C49.246841 146.968353,46.571503 162.438324,54.649933 173.443420C67.281769 190.651566,91.712799 185.208221,113.312317 183.918350" style="stroke:rgb(0.000000%,0.000000%,0.000000%); stroke-width: 1.494400;stroke-linecap: round;stroke-linejoin: round;stroke-miterlimit: 10.000000;fill: none;"></path>
  <path d="M162.988739 133.000000C162.988739 132.207306,162.673798 131.447159,162.113312 130.886688C161.552841 130.326202,160.792694 130.011261,160.000000 130.011261C159.207306 130.011261,158.447159 130.326202,157.886688 130.886688C157.326202 131.447159,157.011261 132.207306,157.011261 133.000000C157.011261 133.792694,157.326202 134.552841,157.886688 135.113312C158.447159 135.673798,159.207306 135.988739,160.000000 135.988739C160.792694 135.988739,161.552841 135.673798,162.113312 135.113312C162.673798 134.552841,162.988739 133.792694,162.988739 133.000000Z" style="fill: rgb(100.000000%,100.000000%,100.000000%);stroke: none;"></path>
  <path d="M184.141129 118.133957C178.561646 126.433441,170.353912 132.167282,160.000000 133.000000C152.342407 133.615875,145.331131 131.161850,139.196213 126.891907" style="stroke:rgb(0.000000%,0.000000%,0.000000%); stroke-width: 0.498138;stroke-linecap: round;stroke-linejoin: round;stroke-miterlimit: 10.000000;fill: none;"></path>
  <path d="M74.503937 28.156235C74.503937 27.363541,74.188995 26.603394,73.628510 26.042923C73.068039 25.482437,72.307892 25.167496,71.515198 25.167496C70.722504 25.167496,69.962357 25.482437,69.401886 26.042923C68.841400 26.603394,68.526459 27.363541,68.526459 28.156235C68.526459 28.948929,68.841400 29.709076,69.401886 30.269547C69.962357 30.830032,70.722504 31.144974,71.515198 31.144974C72.307892 31.144974,73.068039 30.830032,73.628510 30.269547C74.188995 29.709076,74.503937 28.948929,74.503937 28.156235Z" style="fill: rgb(100.000000%,100.000000%,100.000000%);stroke: none;"></path>
  <path d="M87.031052 40.325745C83.049088 34.750198,78.184616 30.223221,71.515198 28.156235C62.636444 25.404526,54.190735 27.644272,46.618927 32.631668" style="stroke:rgb(0.000000%,0.000000%,0.000000%); stroke-width: 0.498138;stroke-linecap: round;stroke-linejoin: round;stroke-miterlimit: 10.000000;fill: none;"></path>
  <path d="M57.638672 173.443420C57.638672 172.650726,57.323730 171.890579,56.763245 171.330109C56.202774 170.769623,55.442627 170.454681,54.649933 170.454681C53.857239 170.454681,53.097092 170.769623,52.536621 171.330109C51.976135 171.890579,51.661194 172.650726,51.661194 173.443420C51.661194 174.236115,51.976135 174.996262,52.536621 175.556732C53.097092 176.117218,53.857239 176.432159,54.649933 176.432159C55.442627 176.432159,56.202774 176.117218,56.763245 175.556732C57.323730 174.996262,57.638672 174.236115,57.638672 173.443420Z" style="fill: rgb(100.000000%,100.000000%,100.000000%);stroke: none;"></path>
  <path d="M48.038879 154.628036C49.259949 161.322113,50.610718 167.940872,54.649933 173.443420C60.965851 182.047501,70.231567 184.988693,80.618256 185.617645" style="stroke:rgb(0.000000%,0.000000%,0.000000%); stroke-width: 1.494400;stroke-linecap: round;stroke-linejoin: round;stroke-miterlimit: 10.000000;fill: none;"></path>
  <path d="M73.568253 99.916656C73.568253 99.123962,73.253311 98.363815,72.692825 97.803345C72.132355 97.242859,71.372208 96.927917,70.579514 96.927917C69.786819 96.927917,69.026672 97.242859,68.466202 97.803345C67.905716 98.363815,67.590775 99.123962,67.590775 99.916656C67.590775 100.709351,67.905716 101.469498,68.466202 102.029968C69.026672 102.590454,69.786819 102.905396,70.579514 102.905396C71.372208 102.905396,72.132355 102.590454,72.692825 102.029968C73.253311 101.469498,73.568253 100.709351,73.568253 99.916656Z" style="fill: rgb(100.000000%,100.000000%,100.000000%);stroke: none;"></path>
  <path d="M69.653320 86.194305C69.945541 90.769531,70.222351 95.346054,70.579514 99.916656C70.986740 105.127975,71.498474 110.333405,71.925354 115.542938" style="stroke:rgb(0.000000%,0.000000%,0.000000%); stroke-width: 0.498138;stroke-linecap: round;stroke-linejoin: round;stroke-miterlimit: 10.000000;fill: none;"></path>
  <path d="M162.988739 46.601135C162.988739 45.808441,162.673798 45.048294,162.113312 44.487823C161.552841 43.927338,160.792694 43.612396,160.000000 43.612396C159.207306 43.612396,158.447159 43.927338,157.886688 44.487823C157.326202 45.048294,157.011261 45.808441,157.011261 46.601135C157.011261 47.393829,157.326202 48.153976,157.886688 48.714447C158.447159 49.274933,159.207306 49.589874,160.000000 49.589874C160.792694 49.589874,161.552841 49.274933,162.113312 48.714447C162.673798 48.153976,162.988739 47.393829,162.988739 46.601135Z" style="fill: rgb(100.000000%,100.000000%,100.000000%);stroke: none;"></path>
  <path d="M156.463318 67.500931C158.443344 60.630310,160.289658 53.755722,160.000000 46.601135C159.567108 35.908859,154.941574 26.455978,147.727432 19.251343" style="stroke:rgb(0.000000%,0.000000%,0.000000%); stroke-width: 0.498138;stroke-linecap: round;stroke-linejoin: round;stroke-miterlimit: 10.000000;fill: none;"></path>
  <path d="M112.694443 82.291656C112.694443 81.498962,112.379501 80.738815,111.819016 80.178345C111.258545 79.617859,110.498398 79.302917,109.705704 79.302917C108.913010 79.302917,108.152863 79.617859,107.592392 80.178345C107.031906 80.738815,106.716965 81.498962,106.716965 82.291656C106.716965 83.084351,107.031906 83.844498,107.592392 84.404968C108.152863 84.965454,108.913010 85.280396,109.705704 85.280396C110.498398 85.280396,111.258545 84.965454,111.819016 84.404968C112.379501 83.844498,112.694443 83.084351,112.694443 82.291656Z" style="fill: rgb(100.000000%,100.000000%,100.000000%);stroke: none;"></path>
  <path d="M101.235199 90.428986C104.168549 87.867264,106.902328 85.010452,109.705704 82.291656C112.668304 79.418442,115.749680 76.674179,118.844421 73.944046" style="stroke:rgb(0.000000%,0.000000%,0.000000%); stroke-width: 0.498138;stroke-linecap: round;stroke-linejoin: round;stroke-miterlimit: 10.000000;fill: none;"></path>
  <path d="M21.968277 111.793503C21.968277 111.000809,21.653336 110.240662,21.092850 109.680191C20.532379 109.119705,19.772232 108.804764,18.979538 108.804764C18.186844 108.804764,17.426697 109.119705,16.866226 109.680191C16.305740 110.240662,15.990799 111.000809,15.990799 111.793503C15.990799 112.586197,16.305740 113.346344,16.866226 113.906815C17.426697 114.467300,18.186844 114.782242,18.979538 114.782242C19.772232 114.782242,20.532379 114.467300,21.092850 113.906815C21.653336 113.346344,21.968277 112.586197,21.968277 111.793503Z" style="fill: rgb(100.000000%,100.000000%,100.000000%);stroke: none;"></path>
  <path d="M6.735901 135.315125C7.559875 126.373428,11.632690 117.883453,18.979538 111.793503C23.211243 108.285751,28.130554 106.065842,33.355011 104.565598" style="stroke:rgb(0.000000%,0.000000%,0.000000%); stroke-width: 0.498138;stroke-linecap: round;stroke-linejoin: round;stroke-miterlimit: 10.000000;fill: none;"></path>
  <path d="M42.206024 135.360703C47.838699 144.646866,47.252991 156.404922,50.929611 166.371307" style="stroke:rgb(0.000000%,0.000000%,0.000000%); stroke-width: 0.498138;stroke-linecap: round;stroke-linejoin: round;stroke-miterlimit: 10.000000;fill: none;"></path>
  <path d="M47.758209 162.505951C48.756454 163.854385,49.803360 165.152924,50.929611 166.371307C50.994797 164.713409,51.172745 163.054916,51.420410 161.395569Z" style="stroke:rgb(0.000000%,0.000000%,0.000000%); stroke-width: 0.498138;fill: rgb(0.000000%,0.000000%,0.000000%);"></path>
  <path d="M42.206024 135.360703C47.838699 144.646866,47.252991 156.404922,50.929611 166.371307" style="stroke:rgb(0.000000%,0.000000%,0.000000%); stroke-width: 0.498138;stroke-linecap: round;stroke-linejoin: round;stroke-miterlimit: 10.000000;fill: none;"></path>
  <path d="M48.977646 164.093445C49.604050 164.877319,50.252487 165.638809,50.929611 166.371307C50.968796 165.374557,51.048752 164.377594,51.160110 163.380371Z" style="stroke:rgb(0.000000%,0.000000%,0.000000%); stroke-width: 0.498138;fill: rgb(0.000000%,0.000000%,0.000000%);"></path>
  <path d="M152.124283 88.376938C152.516632 76.954941,157.692490 66.229431,159.450485 55.069778" style="stroke:rgb(0.000000%,0.000000%,0.000000%); stroke-width: 0.498138;stroke-linecap: round;stroke-linejoin: round;stroke-miterlimit: 10.000000;fill: none;"></path>
  <path d="M160.080093 58.003082C159.892517 57.019196,159.684509 56.040939,159.450485 55.069778C158.929230 55.921951,158.384583 56.760773,157.821487 57.589111Z" style="stroke:rgb(0.000000%,0.000000%,0.000000%); stroke-width: 0.498138;fill: rgb(0.000000%,0.000000%,0.000000%);"></path>
  <path d="M68.634644 72.479630C69.304733 79.784409,69.690231 87.110916,70.183365 94.429626" style="stroke:rgb(0.000000%,0.000000%,0.000000%); stroke-width: 0.498138;stroke-linecap: round;stroke-linejoin: round;stroke-miterlimit: 10.000000;fill: none;"></path>
  <path d="M68.856079 91.739304L70.183365 94.429626L71.147217 91.588760Z" style="stroke:rgb(0.000000%,0.000000%,0.000000%); stroke-width: 0.498138;fill: rgb(0.000000%,0.000000%,0.000000%);"></path>
  <path d="M49.561310 101.655701C55.150009 101.010880,60.751907 100.478500,66.366394 100.136368" style="stroke:rgb(0.000000%,0.000000%,0.000000%); stroke-width: 0.498138;stroke-linecap: round;stroke-linejoin: round;stroke-miterlimit: 10.000000;fill: none;"></path>
  <path d="M63.677597 101.466690C64.571304 101.018112,65.467514 100.574539,66.366394 100.136368C65.420975 99.810593,64.473587 99.490494,63.524460 99.175735Z" style="stroke:rgb(0.000000%,0.000000%,0.000000%); stroke-width: 0.498138;fill: rgb(0.000000%,0.000000%,0.000000%);"></path>
  <path d="M91.567245 96.795807C97.329926 94.334305,101.892624 90.008575,106.357880 85.592697" style="stroke:rgb(0.000000%,0.000000%,0.000000%); stroke-width: 0.498138;stroke-linecap: round;stroke-linejoin: round;stroke-miterlimit: 10.000000;fill: none;"></path>
  <path d="M105.177643 88.350647C105.578796 87.435776,105.969925 86.514816,106.357880 85.592697C105.431503 85.970383,104.503723 86.345016,103.573151 86.708252Z" style="stroke:rgb(0.000000%,0.000000%,0.000000%); stroke-width: 0.498138;fill: rgb(0.000000%,0.000000%,0.000000%);"></path>
  <path d="M123.650558 109.888275C119.277084 102.886139,115.927322 95.330673,112.401642 87.864441" style="stroke:rgb(0.000000%,0.000000%,0.000000%); stroke-width: 0.498138;stroke-linecap: round;stroke-linejoin: round;stroke-miterlimit: 10.000000;fill: none;"></path>
  <path d="M114.619095 89.885117C113.880798 89.210602,113.142166 88.536423,112.401642 87.864441C112.450089 88.863235,112.495636 89.862244,112.540726 90.861252Z" style="stroke:rgb(0.000000%,0.000000%,0.000000%); stroke-width: 0.498138;fill: rgb(0.000000%,0.000000%,0.000000%);"></path>
  <path d="M97.251816 58.786621C92.228836 48.768631,87.308014 37.821655,78.711075 31.727020" style="stroke:rgb(0.000000%,0.000000%,0.000000%); stroke-width: 0.498138;stroke-linecap: round;stroke-linejoin: round;stroke-miterlimit: 10.000000;fill: none;"></path>
  <path d="M81.597031 32.547150C80.648193 32.224564,79.686569 31.949249,78.711075 31.727020C79.243698 32.573944,79.728973 33.448593,80.171799 34.347656Z" style="stroke:rgb(0.000000%,0.000000%,0.000000%); stroke-width: 0.498138;fill: rgb(0.000000%,0.000000%,0.000000%);"></path>
  <path d="M110.321671 186.628555L116.302963 186.628555L116.302963 179.208160L110.321671 179.208160Z" style="fill: rgb(100.000000%,100.000000%,100.000000%);stroke: none;"></path>
  <path d="M110.321671 188.628555L116.302963 188.628555L116.302963 181.208160L110.321671 181.208160Z" style="fill: rgb(100.000000%,100.000000%,100.000000%);stroke: none;"></path>
  <g transform="translate(110.821671 187.128555)" style="fill: rgb(0.000000%,0.000000%,0.000000%);">
    <use xlink:href="#GLYPHcmr10_49"></use>
  </g>
  <path d="M116.932556 8.101212L122.913849 8.101212L122.913849 0.680817L116.932556 0.680817Z" style="fill: rgb(100.000000%,100.000000%,100.000000%);stroke: none;"></path>
  <path d="M116.932556 10.101212L122.913849 10.101212L122.913849 2.680817L116.932556 2.680817Z" style="fill: rgb(100.000000%,100.000000%,100.000000%);stroke: none;"></path>
  <g transform="translate(117.432556 8.601212)" style="fill: rgb(0.000000%,0.000000%,0.000000%);">
    <use xlink:href="#GLYPHcmr10_50"></use>
  </g>
  <path d="M69.771454 133.904007L75.752747 133.904007L75.752747 126.483612L69.771454 126.483612Z" style="fill: rgb(100.000000%,100.000000%,100.000000%);stroke: none;"></path>
  <path d="M69.771454 135.904007L75.752747 135.904007L75.752747 128.483612L69.771454 128.483612Z" style="fill: rgb(100.000000%,100.000000%,100.000000%);stroke: none;"></path>
  <g transform="translate(70.271454 134.404007)" style="fill: rgb(0.000000%,0.000000%,0.000000%);">
    <use xlink:href="#GLYPHcmr10_51"></use>
  </g>
  <path d="M10.994705 164.257248L16.975998 164.257248L16.975998 156.836853L10.994705 156.836853Z" style="fill: rgb(100.000000%,100.000000%,100.000000%);stroke: none;"></path>
  <path d="M10.994705 166.257248L16.975998 166.257248L16.975998 158.836853L10.994705 158.836853Z" style="fill: rgb(100.000000%,100.000000%,100.000000%);stroke: none;"></path>
  <g transform="translate(11.494705 164.757248)" style="fill: rgb(0.000000%,0.000000%,0.000000%);">
    <use xlink:href="#GLYPHcmr10_52"></use>
  </g>
  <path d="M125.072678 68.391449L131.053970 68.391449L131.053970 60.971054L125.072678 60.971054Z" style="fill: rgb(100.000000%,100.000000%,100.000000%);stroke: none;"></path>
  <path d="M125.072678 70.391449L131.053970 70.391449L131.053970 62.971054L125.072678 62.971054Z" style="fill: rgb(100.000000%,100.000000%,100.000000%);stroke: none;"></path>
  <g transform="translate(125.572678 68.891449)" style="fill: rgb(0.000000%,0.000000%,0.000000%);">
    <use xlink:href="#GLYPHcmr10_53"></use>
  </g>
  <path d="M189.522049 90.584229L195.503342 90.584229L195.503342 83.163834L189.522049 83.163834Z" style="fill: rgb(100.000000%,100.000000%,100.000000%);stroke: none;"></path>
  <path d="M189.522049 92.584229L195.503342 92.584229L195.503342 85.163834L189.522049 85.163834Z" style="fill: rgb(100.000000%,100.000000%,100.000000%);stroke: none;"></path>
  <g transform="translate(190.022049 91.084229)" style="fill: rgb(0.000000%,0.000000%,0.000000%);">
    <use xlink:href="#GLYPHcmr10_54"></use>
  </g>
  <path d="M23.975403 56.303192L29.956696 56.303192L29.956696 48.882797L23.975403 48.882797Z" style="fill: rgb(100.000000%,100.000000%,100.000000%);stroke: none;"></path>
  <path d="M23.975403 58.303192L29.956696 58.303192L29.956696 50.882797L23.975403 50.882797Z" style="fill: rgb(100.000000%,100.000000%,100.000000%);stroke: none;"></path>
  <g transform="translate(24.475403 56.803192)" style="fill: rgb(0.000000%,0.000000%,0.000000%);">
    <use xlink:href="#GLYPHcmr10_55"></use>
  </g>
</svg>
