<?xml version="1.0"?>
<!-- Created by MetaPost 1.999 on 2021.07.06:0008 -->
<svg version="1.1" xmlns="http://www.w3.org/2000/svg" xmlns:xlink="http://www.w3.org/1999/xlink" width="197.647980" height="205.499222" viewBox="0 0 197.647980 205.499222">
<!-- Original BoundingBox: -127.294052 -34.547302 70.353928 170.951920 -->
  <defs>
    <g transform="scale(0.009963,0.009963)" id="GLYPHcmr10_48">
      <path style="fill-rule: evenodd;" d="M460.000000 -320.000000C460.000000 -400.000000,455.000000 -480.000000,420.000000 -554.000000C374.000000 -650.000000,292.000000 -666.000000,250.000000 -666.000000C190.000000 -666.000000,117.000000 -640.000000,76.000000 -547.000000C44.000000 -478.000000,39.000000 -400.000000,39.000000 -320.000000C39.000000 -245.000000,43.000000 -155.000000,84.000000 -79.000000C127.000000 2.000000,200.000000 22.000000,249.000000 22.000000C303.000000 22.000000,379.000000 1.000000,423.000000 -94.000000C455.000000 -163.000000,460.000000 -241.000000,460.000000 -320.000000M249.000000 -0.000000C210.000000 -0.000000,151.000000 -25.000000,133.000000 -121.000000C122.000000 -181.000000,122.000000 -273.000000,122.000000 -332.000000C122.000000 -396.000000,122.000000 -462.000000,130.000000 -516.000000C149.000000 -635.000000,224.000000 -644.000000,249.000000 -644.000000C282.000000 -644.000000,348.000000 -626.000000,367.000000 -527.000000C377.000000 -471.000000,377.000000 -395.000000,377.000000 -332.000000C377.000000 -257.000000,377.000000 -189.000000,366.000000 -125.000000C351.000000 -30.000000,294.000000 -0.000000,249.000000 -0.000000"></path>
    </g>
    <g transform="scale(0.009963,0.009963)" id="GLYPHcmr10_49">
      <path style="fill-rule: evenodd;" d="M294.000000 -640.000000C294.000000 -664.000000,294.000000 -666.000000,271.000000 -666.000000C209.000000 -602.000000,121.000000 -602.000000,89.000000 -602.000000L89.000000 -571.000000C109.000000 -571.000000,168.000000 -571.000000,220.000000 -597.000000L220.000000 -79.000000C220.000000 -43.000000,217.000000 -31.000000,127.000000 -31.000000L95.000000 -31.000000L95.000000 -0.000000L257.000000 -0.000000L130.000000 -3.000000L217.000000 -3.000000L257.000000 -3.000000L297.000000 -3.000000L384.000000 -3.000000L419.000000 -0.000000L419.000000 -31.000000L387.000000 -31.000000C297.000000 -31.000000,294.000000 -42.000000,294.000000 -79.000000"></path>
    </g>
    <g transform="scale(0.009963,0.009963)" id="GLYPHcmr10_50">
      <path style="fill-rule: evenodd;" d="M127.000000 -77.000000L233.000000 -180.000000C389.000000 -318.000000,449.000000 -372.000000,449.000000 -472.000000C449.000000 -586.000000,359.000000 -666.000000,237.000000 -666.000000C124.000000 -666.000000,50.000000 -574.000000,50.000000 -485.000000C50.000000 -429.000000,100.000000 -429.000000,103.000000 -429.000000C120.000000 -429.000000,155.000000 -441.000000,155.000000 -482.000000C155.000000 -508.000000,137.000000 -534.000000,102.000000 -534.000000C94.000000 -534.000000,92.000000 -534.000000,89.000000 -533.000000C112.000000 -598.000000,166.000000 -635.000000,224.000000 -635.000000C315.000000 -635.000000,358.000000 -554.000000,358.000000 -472.000000C358.000000 -392.000000,308.000000 -313.000000,253.000000 -251.000000L61.000000 -37.000000C50.000000 -26.000000,50.000000 -24.000000,50.000000 -0.000000L421.000000 -0.000000L449.000000 -174.000000L424.000000 -174.000000C419.000000 -144.000000,412.000000 -100.000000,402.000000 -85.000000C395.000000 -77.000000,329.000000 -77.000000,307.000000 -77.000000"></path>
    </g>
    <g transform="scale(0.009963,0.009963)" id="GLYPHcmr10_51">
      <path style="fill-rule: evenodd;" d="M290.000000 -352.000000C372.000000 -379.000000,430.000000 -449.000000,430.000000 -528.000000C430.000000 -610.000000,342.000000 -666.000000,246.000000 -666.000000C145.000000 -666.000000,69.000000 -606.000000,69.000000 -530.000000C69.000000 -497.000000,91.000000 -478.000000,120.000000 -478.000000C151.000000 -478.000000,171.000000 -500.000000,171.000000 -529.000000C171.000000 -579.000000,124.000000 -579.000000,109.000000 -579.000000C140.000000 -628.000000,206.000000 -641.000000,242.000000 -641.000000C283.000000 -641.000000,338.000000 -619.000000,338.000000 -529.000000C338.000000 -517.000000,336.000000 -459.000000,310.000000 -415.000000C280.000000 -367.000000,246.000000 -364.000000,221.000000 -363.000000C213.000000 -362.000000,189.000000 -360.000000,182.000000 -360.000000C174.000000 -359.000000,167.000000 -358.000000,167.000000 -348.000000C167.000000 -337.000000,174.000000 -337.000000,191.000000 -337.000000L235.000000 -337.000000C317.000000 -337.000000,354.000000 -269.000000,354.000000 -171.000000C354.000000 -35.000000,285.000000 -6.000000,241.000000 -6.000000C198.000000 -6.000000,123.000000 -23.000000,88.000000 -82.000000C123.000000 -77.000000,154.000000 -99.000000,154.000000 -137.000000C154.000000 -173.000000,127.000000 -193.000000,98.000000 -193.000000C74.000000 -193.000000,42.000000 -179.000000,42.000000 -135.000000C42.000000 -44.000000,135.000000 22.000000,244.000000 22.000000C366.000000 22.000000,457.000000 -69.000000,457.000000 -171.000000C457.000000 -253.000000,394.000000 -331.000000,290.000000 -352.000000"></path>
    </g>
    <g transform="scale(0.009963,0.009963)" id="GLYPHcmr10_52">
      <path style="fill-rule: evenodd;" d="M294.000000 -165.000000L294.000000 -78.000000C294.000000 -42.000000,292.000000 -31.000000,218.000000 -31.000000L197.000000 -31.000000L197.000000 -0.000000L332.000000 -0.000000L238.000000 -3.000000L290.000000 -3.000000L332.000000 -3.000000L374.000000 -3.000000L427.000000 -3.000000L468.000000 -0.000000L468.000000 -31.000000L447.000000 -31.000000C373.000000 -31.000000,371.000000 -42.000000,371.000000 -78.000000L371.000000 -165.000000L471.000000 -165.000000L471.000000 -196.000000L371.000000 -196.000000L371.000000 -651.000000C371.000000 -671.000000,371.000000 -677.000000,355.000000 -677.000000C346.000000 -677.000000,343.000000 -677.000000,335.000000 -665.000000L28.000000 -196.000000L28.000000 -165.000000M300.000000 -196.000000L56.000000 -196.000000L300.000000 -569.000000"></path>
    </g>
    <g transform="scale(0.009963,0.009963)" id="GLYPHcmr10_53">
      <path style="fill-rule: evenodd;" d="M449.000000 -201.000000C449.000000 -320.000000,367.000000 -420.000000,259.000000 -420.000000C211.000000 -420.000000,168.000000 -404.000000,132.000000 -369.000000L132.000000 -564.000000C152.000000 -558.000000,185.000000 -551.000000,217.000000 -551.000000C340.000000 -551.000000,410.000000 -642.000000,410.000000 -655.000000C410.000000 -661.000000,407.000000 -666.000000,400.000000 -666.000000C399.000000 -666.000000,397.000000 -666.000000,392.000000 -663.000000C372.000000 -654.000000,323.000000 -634.000000,256.000000 -634.000000C216.000000 -634.000000,170.000000 -641.000000,123.000000 -662.000000C115.000000 -665.000000,113.000000 -665.000000,111.000000 -665.000000C101.000000 -665.000000,101.000000 -657.000000,101.000000 -641.000000L101.000000 -345.000000C101.000000 -327.000000,101.000000 -319.000000,115.000000 -319.000000C122.000000 -319.000000,124.000000 -322.000000,128.000000 -328.000000C139.000000 -344.000000,176.000000 -398.000000,257.000000 -398.000000C309.000000 -398.000000,334.000000 -352.000000,342.000000 -334.000000C358.000000 -297.000000,360.000000 -258.000000,360.000000 -208.000000C360.000000 -173.000000,360.000000 -113.000000,336.000000 -71.000000C312.000000 -32.000000,275.000000 -6.000000,229.000000 -6.000000C156.000000 -6.000000,99.000000 -59.000000,82.000000 -118.000000C85.000000 -117.000000,88.000000 -116.000000,99.000000 -116.000000C132.000000 -116.000000,149.000000 -141.000000,149.000000 -165.000000C149.000000 -189.000000,132.000000 -214.000000,99.000000 -214.000000C85.000000 -214.000000,50.000000 -207.000000,50.000000 -161.000000C50.000000 -75.000000,119.000000 22.000000,231.000000 22.000000C347.000000 22.000000,449.000000 -74.000000,449.000000 -201.000000"></path>
    </g>
    <g transform="scale(0.009963,0.009963)" id="GLYPHcmr10_54">
      <path style="fill-rule: evenodd;" d="M132.000000 -328.000000L132.000000 -352.000000C132.000000 -605.000000,256.000000 -641.000000,307.000000 -641.000000C331.000000 -641.000000,373.000000 -635.000000,395.000000 -601.000000C380.000000 -601.000000,340.000000 -601.000000,340.000000 -556.000000C340.000000 -525.000000,364.000000 -510.000000,386.000000 -510.000000C402.000000 -510.000000,432.000000 -519.000000,432.000000 -558.000000C432.000000 -618.000000,388.000000 -666.000000,305.000000 -666.000000C177.000000 -666.000000,42.000000 -537.000000,42.000000 -316.000000C42.000000 -49.000000,158.000000 22.000000,251.000000 22.000000C362.000000 22.000000,457.000000 -72.000000,457.000000 -204.000000C457.000000 -331.000000,368.000000 -427.000000,257.000000 -427.000000C189.000000 -427.000000,152.000000 -376.000000,132.000000 -328.000000M251.000000 -6.000000C188.000000 -6.000000,158.000000 -66.000000,152.000000 -81.000000C134.000000 -128.000000,134.000000 -208.000000,134.000000 -226.000000C134.000000 -304.000000,166.000000 -404.000000,256.000000 -404.000000C272.000000 -404.000000,318.000000 -404.000000,349.000000 -342.000000C367.000000 -305.000000,367.000000 -254.000000,367.000000 -205.000000C367.000000 -157.000000,367.000000 -107.000000,350.000000 -71.000000C320.000000 -11.000000,274.000000 -6.000000,251.000000 -6.000000"></path>
    </g>
    <g transform="scale(0.009963,0.009963)" id="GLYPHcmr10_55">
      <path style="fill-rule: evenodd;" d="M476.000000 -609.000000C485.000000 -621.000000,485.000000 -623.000000,485.000000 -644.000000L242.000000 -644.000000C120.000000 -644.000000,118.000000 -657.000000,114.000000 -676.000000L89.000000 -676.000000L56.000000 -470.000000L81.000000 -470.000000C84.000000 -486.000000,93.000000 -549.000000,106.000000 -561.000000C113.000000 -567.000000,191.000000 -567.000000,204.000000 -567.000000L411.000000 -567.000000C400.000000 -551.000000,321.000000 -442.000000,299.000000 -409.000000C209.000000 -274.000000,176.000000 -135.000000,176.000000 -33.000000C176.000000 -23.000000,176.000000 22.000000,222.000000 22.000000C268.000000 22.000000,268.000000 -23.000000,268.000000 -33.000000L268.000000 -84.000000C268.000000 -139.000000,271.000000 -194.000000,279.000000 -248.000000C283.000000 -271.000000,297.000000 -357.000000,341.000000 -419.000000"></path>
    </g>
    <g transform="scale(0.009963,0.009963)" id="GLYPHcmr10_56">
      <path style="fill-rule: evenodd;" d="M163.000000 -457.000000C117.000000 -487.000000,113.000000 -521.000000,113.000000 -538.000000C113.000000 -599.000000,178.000000 -641.000000,249.000000 -641.000000C322.000000 -641.000000,386.000000 -589.000000,386.000000 -517.000000C386.000000 -460.000000,347.000000 -412.000000,287.000000 -377.000000M309.000000 -362.000000C381.000000 -399.000000,430.000000 -451.000000,430.000000 -517.000000C430.000000 -609.000000,341.000000 -666.000000,250.000000 -666.000000C150.000000 -666.000000,69.000000 -592.000000,69.000000 -499.000000C69.000000 -481.000000,71.000000 -436.000000,113.000000 -389.000000C124.000000 -377.000000,161.000000 -352.000000,186.000000 -335.000000C128.000000 -306.000000,42.000000 -250.000000,42.000000 -151.000000C42.000000 -45.000000,144.000000 22.000000,249.000000 22.000000C362.000000 22.000000,457.000000 -61.000000,457.000000 -168.000000C457.000000 -204.000000,446.000000 -249.000000,408.000000 -291.000000C389.000000 -312.000000,373.000000 -322.000000,309.000000 -362.000000M209.000000 -320.000000L332.000000 -242.000000C360.000000 -223.000000,407.000000 -193.000000,407.000000 -132.000000C407.000000 -58.000000,332.000000 -6.000000,250.000000 -6.000000C164.000000 -6.000000,92.000000 -68.000000,92.000000 -151.000000C92.000000 -209.000000,124.000000 -273.000000,209.000000 -320.000000"></path>
    </g>
    <g transform="scale(0.009963,0.009963)" id="GLYPHcmr10_57">
      <path style="fill-rule: evenodd;" d="M367.000000 -318.000000L367.000000 -286.000000C367.000000 -52.000000,263.000000 -6.000000,205.000000 -6.000000C188.000000 -6.000000,134.000000 -8.000000,107.000000 -42.000000C151.000000 -42.000000,159.000000 -71.000000,159.000000 -88.000000C159.000000 -119.000000,135.000000 -134.000000,113.000000 -134.000000C97.000000 -134.000000,67.000000 -125.000000,67.000000 -86.000000C67.000000 -19.000000,121.000000 22.000000,206.000000 22.000000C335.000000 22.000000,457.000000 -114.000000,457.000000 -329.000000C457.000000 -598.000000,342.000000 -666.000000,253.000000 -666.000000C198.000000 -666.000000,149.000000 -648.000000,106.000000 -603.000000C65.000000 -558.000000,42.000000 -516.000000,42.000000 -441.000000C42.000000 -316.000000,130.000000 -218.000000,242.000000 -218.000000C303.000000 -218.000000,344.000000 -260.000000,367.000000 -318.000000M243.000000 -241.000000C227.000000 -241.000000,181.000000 -241.000000,150.000000 -304.000000C132.000000 -341.000000,132.000000 -391.000000,132.000000 -440.000000C132.000000 -494.000000,132.000000 -541.000000,153.000000 -578.000000C180.000000 -628.000000,218.000000 -641.000000,253.000000 -641.000000C299.000000 -641.000000,332.000000 -607.000000,349.000000 -562.000000C361.000000 -530.000000,365.000000 -467.000000,365.000000 -421.000000C365.000000 -338.000000,331.000000 -241.000000,243.000000 -241.000000"></path>
    </g>
  </defs>
  <path d="M97.022720 201.558563C97.022720 200.765869,96.707779 200.005722,96.147293 199.445251C95.586823 198.884766,94.826675 198.569824,94.033981 198.569824C93.241287 198.569824,92.481140 198.884766,91.920670 199.445251C91.360184 200.005722,91.045242 200.765869,91.045242 201.558563C91.045242 202.351257,91.360184 203.111404,91.920670 203.671875C92.481140 204.232361,93.241287 204.547302,94.033981 204.547302C94.826675 204.547302,95.586823 204.232361,96.147293 203.671875C96.707779 203.111404,97.022720 202.351257,97.022720 201.558563Z" style="fill: rgb(100.000000%,100.000000%,100.000000%);stroke: none;"></path>
  <path d="M75.240417 194.280716C75.240417 193.488022,74.925476 192.727875,74.364990 192.167404C73.804520 191.606918,73.044373 191.291977,72.251678 191.291977C71.458984 191.291977,70.698837 191.606918,70.138367 192.167404C69.577881 192.727875,69.262939 193.488022,69.262939 194.280716C69.262939 195.073410,69.577881 195.833557,70.138367 196.394028C70.698837 196.954514,71.458984 197.269455,72.251678 197.269455C73.044373 197.269455,73.804520 196.954514,74.364990 196.394028C74.925476 195.833557,75.240417 195.073410,75.240417 194.280716Z" style="fill: rgb(100.000000%,100.000000%,100.000000%);stroke: none;"></path>
  <path d="M136.634583 154.853409C136.634583 154.060715,136.319641 153.300568,135.759155 152.740097C135.198685 152.179611,134.438538 151.864670,133.645844 151.864670C132.853149 151.864670,132.093002 152.179611,131.532532 152.740097C130.972046 153.300568,130.657104 154.060715,130.657104 154.853409C130.657104 155.646103,130.972046 156.406250,131.532532 156.966721C132.093002 157.527206,132.853149 157.842148,133.645844 157.842148C134.438538 157.842148,135.198685 157.527206,135.759155 156.966721C136.319641 156.406250,136.634583 155.646103,136.634583 154.853409Z" style="fill: rgb(100.000000%,100.000000%,100.000000%);stroke: none;"></path>
  <path d="M120.761169 191.030640C120.761169 190.237946,120.446228 189.477798,119.885742 188.917328C119.325272 188.356842,118.565125 188.041901,117.772430 188.041901C116.979736 188.041901,116.219589 188.356842,115.659119 188.917328C115.098633 189.477798,114.783691 190.237946,114.783691 191.030640C114.783691 191.823334,115.098633 192.583481,115.659119 193.143951C116.219589 193.704437,116.979736 194.019379,117.772430 194.019379C118.565125 194.019379,119.325272 193.704437,119.885742 193.143951C120.446228 192.583481,120.761169 191.823334,120.761169 191.030640Z" style="fill: rgb(100.000000%,100.000000%,100.000000%);stroke: none;"></path>
  <path d="M131.690002 114.001740C131.690002 113.209045,131.375061 112.448898,130.814575 111.888428C130.254105 111.327942,129.493958 111.013000,128.701263 111.013000C127.908569 111.013000,127.148422 111.327942,126.587952 111.888428C126.027466 112.448898,125.712524 113.209045,125.712524 114.001740C125.712524 114.794434,126.027466 115.554581,126.587952 116.115051C127.148422 116.675537,127.908569 116.990479,128.701263 116.990479C129.493958 116.990479,130.254105 116.675537,130.814575 116.115051C131.375061 115.554581,131.690002 114.794434,131.690002 114.001740Z" style="fill: rgb(100.000000%,100.000000%,100.000000%);stroke: none;"></path>
  <path d="M133.679199 137.874374C133.679199 137.081680,133.364258 136.321533,132.803772 135.761063C132.243301 135.200577,131.483154 134.885635,130.690460 134.885635C129.897766 134.885635,129.137619 135.200577,128.577148 135.761063C128.016663 136.321533,127.701721 137.081680,127.701721 137.874374C127.701721 138.667068,128.016663 139.427216,128.577148 139.987686C129.137619 140.548172,129.897766 140.863113,130.690460 140.863113C131.483154 140.863113,132.243301 140.548172,132.803772 139.987686C133.364258 139.427216,133.679199 138.667068,133.679199 137.874374Z" style="fill: rgb(100.000000%,100.000000%,100.000000%);stroke: none;"></path>
  <path d="M129.574539 97.038422C129.574539 96.245728,129.259598 95.485580,128.699112 94.925110C128.138641 94.364624,127.378494 94.049683,126.585800 94.049683C125.793106 94.049683,125.032959 94.364624,124.472488 94.925110C123.912003 95.485580,123.597061 96.245728,123.597061 97.038422C123.597061 97.831116,123.912003 98.591263,124.472488 99.151733C125.032959 99.712219,125.793106 100.027161,126.585800 100.027161C127.378494 100.027161,128.138641 99.712219,128.699112 99.151733C129.259598 98.591263,129.574539 97.831116,129.574539 97.038422Z" style="fill: rgb(100.000000%,100.000000%,100.000000%);stroke: none;"></path>
  <path d="M131.423431 106.501144C131.423431 105.708450,131.108490 104.948303,130.548004 104.387833C129.987534 103.827347,129.227386 103.512405,128.434692 103.512405C127.641998 103.512405,126.881851 103.827347,126.321381 104.387833C125.760895 104.948303,125.445953 105.708450,125.445953 106.501144C125.445953 107.293839,125.760895 108.053986,126.321381 108.614456C126.881851 109.174942,127.641998 109.489883,128.434692 109.489883C129.227386 109.489883,129.987534 109.174942,130.548004 108.614456C131.108490 108.053986,131.423431 107.293839,131.423431 106.501144Z" style="fill: rgb(100.000000%,100.000000%,100.000000%);stroke: none;"></path>
  <path d="M130.605316 91.170990C130.605316 90.378296,130.290375 89.618149,129.729889 89.057678C129.169418 88.497192,128.409271 88.182251,127.616577 88.182251C126.823883 88.182251,126.063736 88.497192,125.503265 89.057678C124.942780 89.618149,124.627838 90.378296,124.627838 91.170990C124.627838 91.963684,124.942780 92.723831,125.503265 93.284302C126.063736 93.844788,126.823883 94.159729,127.616577 94.159729C128.409271 94.159729,129.169418 93.844788,129.729889 93.284302C130.290375 92.723831,130.605316 91.963684,130.605316 91.170990Z" style="fill: rgb(100.000000%,100.000000%,100.000000%);stroke: none;"></path>
  <path d="M129.080811 94.828445C129.080811 94.035751,128.765869 93.275604,128.205383 92.715134C127.644913 92.154648,126.884766 91.839706,126.092072 91.839706C125.299377 91.839706,124.539230 92.154648,123.978760 92.715134C123.418274 93.275604,123.103333 94.035751,123.103333 94.828445C123.103333 95.621140,123.418274 96.381287,123.978760 96.941757C124.539230 97.502243,125.299377 97.817184,126.092072 97.817184C126.884766 97.817184,127.644913 97.502243,128.205383 96.941757C128.765869 96.381287,129.080811 95.621140,129.080811 94.828445Z" style="fill: rgb(100.000000%,100.000000%,100.000000%);stroke: none;"></path>
  <path d="M136.606262 86.319458C136.606262 85.526764,136.291321 84.766617,135.730835 84.206146C135.170364 83.645660,134.410217 83.330719,133.617523 83.330719C132.824829 83.330719,132.064682 83.645660,131.504211 84.206146C130.943726 84.766617,130.628784 85.526764,130.628784 86.319458C130.628784 87.112152,130.943726 87.872299,131.504211 88.432770C132.064682 88.993256,132.824829 89.308197,133.617523 89.308197C134.410217 89.308197,135.170364 88.993256,135.730835 88.432770C136.291321 87.872299,136.606262 87.112152,136.606262 86.319458Z" style="fill: rgb(100.000000%,100.000000%,100.000000%);stroke: none;"></path>
  <path d="M132.073990 90.037491C132.073990 89.244797,131.759048 88.484650,131.198563 87.924179C130.638092 87.363693,129.877945 87.048752,129.085251 87.048752C128.292557 87.048752,127.532410 87.363693,126.971939 87.924179C126.411453 88.484650,126.096512 89.244797,126.096512 90.037491C126.096512 90.830185,126.411453 91.590332,126.971939 92.150803C127.532410 92.711288,128.292557 93.026230,129.085251 93.026230C129.877945 93.026230,130.638092 92.711288,131.198563 92.150803C131.759048 91.590332,132.073990 90.830185,132.073990 90.037491Z" style="fill: rgb(100.000000%,100.000000%,100.000000%);stroke: none;"></path>
  <path d="M145.905029 77.238174C145.905029 76.445480,145.590088 75.685333,145.029602 75.124863C144.469131 74.564377,143.708984 74.249435,142.916290 74.249435C142.123596 74.249435,141.363449 74.564377,140.802979 75.124863C140.242493 75.685333,139.927551 76.445480,139.927551 77.238174C139.927551 78.030869,140.242493 78.791016,140.802979 79.351486C141.363449 79.911972,142.123596 80.226913,142.916290 80.226913C143.708984 80.226913,144.469131 79.911972,145.029602 79.351486C145.590088 78.791016,145.905029 78.030869,145.905029 77.238174Z" style="fill: rgb(100.000000%,100.000000%,100.000000%);stroke: none;"></path>
  <path d="M139.504715 83.456589C139.504715 82.663895,139.189774 81.903748,138.629288 81.343277C138.068817 80.782791,137.308670 80.467850,136.515976 80.467850C135.723282 80.467850,134.963135 80.782791,134.402664 81.343277C133.842178 81.903748,133.527237 82.663895,133.527237 83.456589C133.527237 84.249283,133.842178 85.009430,134.402664 85.569901C134.963135 86.130386,135.723282 86.445328,136.515976 86.445328C137.308670 86.445328,138.068817 86.130386,138.629288 85.569901C139.189774 85.009430,139.504715 84.249283,139.504715 83.456589Z" style="fill: rgb(100.000000%,100.000000%,100.000000%);stroke: none;"></path>
  <path d="M155.538681 66.893204C155.538681 66.100510,155.223740 65.340363,154.663254 64.779892C154.102783 64.219406,153.342636 63.904465,152.549942 63.904465C151.757248 63.904465,150.997101 64.219406,150.436630 64.779892C149.876144 65.340363,149.561203 66.100510,149.561203 66.893204C149.561203 67.685898,149.876144 68.446045,150.436630 69.006516C150.997101 69.567001,151.757248 69.881943,152.549942 69.881943C153.342636 69.881943,154.102783 69.567001,154.663254 69.006516C155.223740 68.446045,155.538681 67.685898,155.538681 66.893204Z" style="fill: rgb(100.000000%,100.000000%,100.000000%);stroke: none;"></path>
  <path d="M149.423859 73.886047C149.423859 73.093353,149.108917 72.333206,148.548431 71.772736C147.987961 71.212250,147.227814 70.897308,146.435120 70.897308C145.642426 70.897308,144.882278 71.212250,144.321808 71.772736C143.761322 72.333206,143.446381 73.093353,143.446381 73.886047C143.446381 74.678741,143.761322 75.438889,144.321808 75.999359C144.882278 76.559845,145.642426 76.874786,146.435120 76.874786C147.227814 76.874786,147.987961 76.559845,148.548431 75.999359C149.108917 75.438889,149.423859 74.678741,149.423859 73.886047Z" style="fill: rgb(100.000000%,100.000000%,100.000000%);stroke: none;"></path>
  <path d="M170.763962 58.257751C170.763962 57.465057,170.449020 56.704910,169.888535 56.144440C169.328064 55.583954,168.567917 55.269012,167.775223 55.269012C166.982529 55.269012,166.222382 55.583954,165.661911 56.144440C165.101425 56.704910,164.786484 57.465057,164.786484 58.257751C164.786484 59.050446,165.101425 59.810593,165.661911 60.371063C166.222382 60.931549,166.982529 61.246490,167.775223 61.246490C168.567917 61.246490,169.328064 60.931549,169.888535 60.371063C170.449020 59.810593,170.763962 59.050446,170.763962 58.257751Z" style="fill: rgb(100.000000%,100.000000%,100.000000%);stroke: none;"></path>
  <path d="M158.320587 63.219009C158.320587 62.426315,158.005646 61.666168,157.445160 61.105698C156.884689 60.545212,156.124542 60.230270,155.331848 60.230270C154.539154 60.230270,153.779007 60.545212,153.218536 61.105698C152.658051 61.666168,152.343109 62.426315,152.343109 63.219009C152.343109 64.011703,152.658051 64.771851,153.218536 65.332321C153.779007 65.892807,154.539154 66.207748,155.331848 66.207748C156.124542 66.207748,156.884689 65.892807,157.445160 65.332321C158.005646 64.771851,158.320587 64.011703,158.320587 63.219009Z" style="fill: rgb(100.000000%,100.000000%,100.000000%);stroke: none;"></path>
  <path d="M197.353928 90.684647C197.353928 89.891953,197.038986 89.131805,196.478500 88.571335C195.918030 88.010849,195.157883 87.695908,194.365189 87.695908C193.572495 87.695908,192.812347 88.010849,192.251877 88.571335C191.691391 89.131805,191.376450 89.891953,191.376450 90.684647C191.376450 91.477341,191.691391 92.237488,192.251877 92.797958C192.812347 93.358444,193.572495 93.673386,194.365189 93.673386C195.157883 93.673386,195.918030 93.358444,196.478500 92.797958C197.038986 92.237488,197.353928 91.477341,197.353928 90.684647Z" style="fill: rgb(100.000000%,100.000000%,100.000000%);stroke: none;"></path>
  <path d="M179.523682 63.665131C179.523682 62.872437,179.208740 62.112289,178.648254 61.551819C178.087784 60.991333,177.327637 60.676392,176.534943 60.676392C175.742249 60.676392,174.982101 60.991333,174.421631 61.551819C173.861145 62.112289,173.546204 62.872437,173.546204 63.665131C173.546204 64.457825,173.861145 65.217972,174.421631 65.778442C174.982101 66.338928,175.742249 66.653870,176.534943 66.653870C177.327637 66.653870,178.087784 66.338928,178.648254 65.778442C179.208740 65.217972,179.523682 64.457825,179.523682 63.665131Z" style="fill: rgb(100.000000%,100.000000%,100.000000%);stroke: none;"></path>
  <path d="M170.048828 158.022156C170.048828 157.229462,169.733887 156.469315,169.173401 155.908844C168.612930 155.348358,167.852783 155.033417,167.060089 155.033417C166.267395 155.033417,165.507248 155.348358,164.946777 155.908844C164.386292 156.469315,164.071350 157.229462,164.071350 158.022156C164.071350 158.814850,164.386292 159.574997,164.946777 160.135468C165.507248 160.695953,166.267395 161.010895,167.060089 161.010895C167.852783 161.010895,168.612930 160.695953,169.173401 160.135468C169.733887 159.574997,170.048828 158.814850,170.048828 158.022156Z" style="fill: rgb(100.000000%,100.000000%,100.000000%);stroke: none;"></path>
  <path d="M191.173889 115.135056C191.173889 114.342361,190.858948 113.582214,190.298462 113.021744C189.737991 112.461258,188.977844 112.146317,188.185150 112.146317C187.392456 112.146317,186.632309 112.461258,186.071838 113.021744C185.511353 113.582214,185.196411 114.342361,185.196411 115.135056C185.196411 115.927750,185.511353 116.687897,186.071838 117.248367C186.632309 117.808853,187.392456 118.123795,188.185150 118.123795C188.977844 118.123795,189.737991 117.808853,190.298462 117.248367C190.858948 116.687897,191.173889 115.927750,191.173889 115.135056Z" style="fill: rgb(100.000000%,100.000000%,100.000000%);stroke: none;"></path>
  <path d="M114.611664 164.909637C114.611664 164.116943,114.296722 163.356796,113.736237 162.796326C113.175766 162.235840,112.415619 161.920898,111.622925 161.920898C110.830231 161.920898,110.070084 162.235840,109.509613 162.796326C108.949127 163.356796,108.634186 164.116943,108.634186 164.909637C108.634186 165.702332,108.949127 166.462479,109.509613 167.022949C110.070084 167.583435,110.830231 167.898376,111.622925 167.898376C112.415619 167.898376,113.175766 167.583435,113.736237 167.022949C114.296722 166.462479,114.611664 165.702332,114.611664 164.909637Z" style="fill: rgb(100.000000%,100.000000%,100.000000%);stroke: none;"></path>
  <path d="M151.220764 177.028549C151.220764 176.235855,150.905823 175.475708,150.345337 174.915237C149.784866 174.354752,149.024719 174.039810,148.232025 174.039810C147.439331 174.039810,146.679184 174.354752,146.118713 174.915237C145.558228 175.475708,145.243286 176.235855,145.243286 177.028549C145.243286 177.821243,145.558228 178.581390,146.118713 179.141861C146.679184 179.702347,147.439331 180.017288,148.232025 180.017288C149.024719 180.017288,149.784866 179.702347,150.345337 179.141861C150.905823 178.581390,151.220764 177.821243,151.220764 177.028549Z" style="fill: rgb(100.000000%,100.000000%,100.000000%);stroke: none;"></path>
  <path d="M95.796280 125.665634C95.796280 124.872940,95.481339 124.112793,94.920853 123.552322C94.360382 122.991837,93.600235 122.676895,92.807541 122.676895C92.014847 122.676895,91.254700 122.991837,90.694229 123.552322C90.133743 124.112793,89.818802 124.872940,89.818802 125.665634C89.818802 126.458328,90.133743 127.218475,90.694229 127.778946C91.254700 128.339432,92.014847 128.654373,92.807541 128.654373C93.600235 128.654373,94.360382 128.339432,94.920853 127.778946C95.481339 127.218475,95.796280 126.458328,95.796280 125.665634Z" style="fill: rgb(100.000000%,100.000000%,100.000000%);stroke: none;"></path>
  <path d="M108.790146 147.924149C108.790146 147.131454,108.475204 146.371307,107.914719 145.810837C107.354248 145.250351,106.594101 144.935410,105.801407 144.935410C105.008713 144.935410,104.248566 145.250351,103.688095 145.810837C103.127609 146.371307,102.812668 147.131454,102.812668 147.924149C102.812668 148.716843,103.127609 149.476990,103.688095 150.037460C104.248566 150.597946,105.008713 150.912888,105.801407 150.912888C106.594101 150.912888,107.354248 150.597946,107.914719 150.037460C108.475204 149.476990,108.790146 148.716843,108.790146 147.924149Z" style="fill: rgb(100.000000%,100.000000%,100.000000%);stroke: none;"></path>
  <path d="M79.131195 101.889633C79.131195 101.096939,78.816254 100.336792,78.255768 99.776321C77.695297 99.215836,76.935150 98.900894,76.142456 98.900894C75.349762 98.900894,74.589615 99.215836,74.029144 99.776321C73.468658 100.336792,73.153717 101.096939,73.153717 101.889633C73.153717 102.682327,73.468658 103.442474,74.029144 104.002945C74.589615 104.563431,75.349762 104.878372,76.142456 104.878372C76.935150 104.878372,77.695297 104.563431,78.255768 104.002945C78.816254 103.442474,79.131195 102.682327,79.131195 101.889633Z" style="fill: rgb(100.000000%,100.000000%,100.000000%);stroke: none;"></path>
  <path d="M89.635834 118.174744C89.635834 117.382050,89.320892 116.621902,88.760406 116.061432C88.199936 115.500946,87.439789 115.186005,86.647095 115.186005C85.854401 115.186005,85.094254 115.500946,84.533783 116.061432C83.973297 116.621902,83.658356 117.382050,83.658356 118.174744C83.658356 118.967438,83.973297 119.727585,84.533783 120.288055C85.094254 120.848541,85.854401 121.163483,86.647095 121.163483C87.439789 121.163483,88.199936 120.848541,88.760406 120.288055C89.320892 119.727585,89.635834 118.967438,89.635834 118.174744Z" style="fill: rgb(100.000000%,100.000000%,100.000000%);stroke: none;"></path>
  <path d="M60.695038 73.998001C60.695038 73.205307,60.380096 72.445160,59.819611 71.884689C59.259140 71.324203,58.498993 71.009262,57.706299 71.009262C56.913605 71.009262,56.153458 71.324203,55.592987 71.884689C55.032501 72.445160,54.717560 73.205307,54.717560 73.998001C54.717560 74.790695,55.032501 75.550842,55.592987 76.111313C56.153458 76.671799,56.913605 76.986740,57.706299 76.986740C58.498993 76.986740,59.259140 76.671799,59.819611 76.111313C60.380096 75.550842,60.695038 74.790695,60.695038 73.998001Z" style="fill: rgb(100.000000%,100.000000%,100.000000%);stroke: none;"></path>
  <path d="M74.815384 93.106369C74.815384 92.313675,74.500443 91.553528,73.939957 90.993057C73.379486 90.432571,72.619339 90.117630,71.826645 90.117630C71.033951 90.117630,70.273804 90.432571,69.713333 90.993057C69.152847 91.553528,68.837906 92.313675,68.837906 93.106369C68.837906 93.899063,69.152847 94.659210,69.713333 95.219681C70.273804 95.780167,71.033951 96.095108,71.826645 96.095108C72.619339 96.095108,73.379486 95.780167,73.939957 95.219681C74.500443 94.659210,74.815384 93.899063,74.815384 93.106369Z" style="fill: rgb(100.000000%,100.000000%,100.000000%);stroke: none;"></path>
  <path d="M16.869827 68.952652C16.869827 68.159958,16.554886 67.399811,15.994400 66.839340C15.433929 66.278854,14.673782 65.963913,13.881088 65.963913C13.088394 65.963913,12.328247 66.278854,11.767776 66.839340C11.207291 67.399811,10.892349 68.159958,10.892349 68.952652C10.892349 69.745346,11.207291 70.505493,11.767776 71.065964C12.328247 71.626450,13.088394 71.941391,13.881088 71.941391C14.673782 71.941391,15.433929 71.626450,15.994400 71.065964C16.554886 70.505493,16.869827 69.745346,16.869827 68.952652Z" style="fill: rgb(100.000000%,100.000000%,100.000000%);stroke: none;"></path>
  <path d="M48.701401 64.920090C48.701401 64.127396,48.386459 63.367249,47.825974 62.806778C47.265503 62.246292,46.505356 61.931351,45.712662 61.931351C44.919968 61.931351,44.159821 62.246292,43.599350 62.806778C43.038864 63.367249,42.723923 64.127396,42.723923 64.920090C42.723923 65.712784,43.038864 66.472931,43.599350 67.033401C44.159821 67.593887,44.919968 67.908829,45.712662 67.908829C46.505356 67.908829,47.265503 67.593887,47.825974 67.033401C48.386459 66.472931,48.701401 65.712784,48.701401 64.920090Z" style="fill: rgb(100.000000%,100.000000%,100.000000%);stroke: none;"></path>
  <path d="M5.683426 126.992386C5.683426 126.199692,5.368484 125.439545,4.807999 124.879074C4.247528 124.318588,3.487381 124.003647,2.694687 124.003647C1.901993 124.003647,1.141846 124.318588,0.581375 124.879074C0.020889 125.439545,-0.294052 126.199692,-0.294052 126.992386C-0.294052 127.785080,0.020889 128.545227,0.581375 129.105698C1.141846 129.666183,1.901993 129.981125,2.694687 129.981125C3.487381 129.981125,4.247528 129.666183,4.807999 129.105698C5.368484 128.545227,5.683426 127.785080,5.683426 126.992386Z" style="fill: rgb(100.000000%,100.000000%,100.000000%);stroke: none;"></path>
  <path d="M6.653198 87.558640C6.653198 86.765945,6.338257 86.005798,5.777771 85.445328C5.217300 84.884842,4.457153 84.569901,3.664459 84.569901C2.871765 84.569901,2.111618 84.884842,1.551147 85.445328C0.990662 86.005798,0.675720 86.765945,0.675720 87.558640C0.675720 88.351334,0.990662 89.111481,1.551147 89.671951C2.111618 90.232437,2.871765 90.547379,3.664459 90.547379C4.457153 90.547379,5.217300 90.232437,5.777771 89.671951C6.338257 89.111481,6.653198 88.351334,6.653198 87.558640Z" style="fill: rgb(100.000000%,100.000000%,100.000000%);stroke: none;"></path>
  <path d="M47.697586 148.136215C47.697586 147.343521,47.382645 146.583374,46.822159 146.022903C46.261688 145.462418,45.501541 145.147476,44.708847 145.147476C43.916153 145.147476,43.156006 145.462418,42.595535 146.022903C42.035049 146.583374,41.720108 147.343521,41.720108 148.136215C41.720108 148.928909,42.035049 149.689056,42.595535 150.249527C43.156006 150.810013,43.916153 151.124954,44.708847 151.124954C45.501541 151.124954,46.261688 150.810013,46.822159 150.249527C47.382645 149.689056,47.697586 148.928909,47.697586 148.136215Z" style="fill: rgb(100.000000%,100.000000%,100.000000%);stroke: none;"></path>
  <path d="M16.243225 146.463104C16.243225 145.670410,15.928284 144.910263,15.367798 144.349792C14.807327 143.789307,14.047180 143.474365,13.254486 143.474365C12.461792 143.474365,11.701645 143.789307,11.141174 144.349792C10.580688 144.910263,10.265747 145.670410,10.265747 146.463104C10.265747 147.255798,10.580688 148.015945,11.141174 148.576416C11.701645 149.136902,12.461792 149.451843,13.254486 149.451843C14.047180 149.451843,14.807327 149.136902,15.367798 148.576416C15.928284 148.015945,16.243225 147.255798,16.243225 146.463104Z" style="fill: rgb(100.000000%,100.000000%,100.000000%);stroke: none;"></path>
  <path d="M72.842926 122.764252C72.842926 121.971558,72.527985 121.211411,71.967499 120.650940C71.407028 120.090454,70.646881 119.775513,69.854187 119.775513C69.061493 119.775513,68.301346 120.090454,67.740875 120.650940C67.180389 121.211411,66.865448 121.971558,66.865448 122.764252C66.865448 123.556946,67.180389 124.317093,67.740875 124.877563C68.301346 125.438049,69.061493 125.752991,69.854187 125.752991C70.646881 125.752991,71.407028 125.438049,71.967499 124.877563C72.527985 124.317093,72.842926 123.556946,72.842926 122.764252Z" style="fill: rgb(100.000000%,100.000000%,100.000000%);stroke: none;"></path>
  <path d="M57.790100 138.310623C57.790100 137.517929,57.475159 136.757782,56.914673 136.197311C56.354202 135.636826,55.594055 135.321884,54.801361 135.321884C54.008667 135.321884,53.248520 135.636826,52.688049 136.197311C52.127563 136.757782,51.812622 137.517929,51.812622 138.310623C51.812622 139.103317,52.127563 139.863464,52.688049 140.423935C53.248520 140.984421,54.008667 141.299362,54.801361 141.299362C55.594055 141.299362,56.354202 140.984421,56.914673 140.423935C57.475159 139.863464,57.790100 139.103317,57.790100 138.310623Z" style="fill: rgb(100.000000%,100.000000%,100.000000%);stroke: none;"></path>
  <path d="M89.403915 104.065201C89.403915 103.272507,89.088974 102.512360,88.528488 101.951889C87.968018 101.391403,87.207870 101.076462,86.415176 101.076462C85.622482 101.076462,84.862335 101.391403,84.301865 101.951889C83.741379 102.512360,83.426437 103.272507,83.426437 104.065201C83.426437 104.857895,83.741379 105.618042,84.301865 106.178513C84.862335 106.738998,85.622482 107.053940,86.415176 107.053940C87.207870 107.053940,87.968018 106.738998,88.528488 106.178513C89.088974 105.618042,89.403915 104.857895,89.403915 104.065201Z" style="fill: rgb(100.000000%,100.000000%,100.000000%);stroke: none;"></path>
  <path d="M78.905060 116.665405C78.905060 115.872711,78.590118 115.112564,78.029633 114.552094C77.469162 113.991608,76.709015 113.676666,75.916321 113.676666C75.123627 113.676666,74.363480 113.991608,73.803009 114.552094C73.242523 115.112564,72.927582 115.872711,72.927582 116.665405C72.927582 117.458099,73.242523 118.218246,73.803009 118.778717C74.363480 119.339203,75.123627 119.654144,75.916321 119.654144C76.709015 119.654144,77.469162 119.339203,78.029633 118.778717C78.590118 118.218246,78.905060 117.458099,78.905060 116.665405Z" style="fill: rgb(100.000000%,100.000000%,100.000000%);stroke: none;"></path>
  <path d="M105.333969 89.209229C105.333969 88.416534,105.019028 87.656387,104.458542 87.095917C103.898071 86.535431,103.137924 86.220490,102.345230 86.220490C101.552536 86.220490,100.792389 86.535431,100.231918 87.095917C99.671432 87.656387,99.356491 88.416534,99.356491 89.209229C99.356491 90.001923,99.671432 90.762070,100.231918 91.322540C100.792389 91.883026,101.552536 92.197968,102.345230 92.197968C103.137924 92.197968,103.898071 91.883026,104.458542 91.322540C105.019028 90.762070,105.333969 90.001923,105.333969 89.209229Z" style="fill: rgb(100.000000%,100.000000%,100.000000%);stroke: none;"></path>
  <path d="M93.988770 97.607224C93.988770 96.814529,93.673828 96.054382,93.113342 95.493912C92.552872 94.933426,91.792725 94.618484,91.000031 94.618484C90.207336 94.618484,89.447189 94.933426,88.886719 95.493912C88.326233 96.054382,88.011292 96.814529,88.011292 97.607224C88.011292 98.399918,88.326233 99.160065,88.886719 99.720535C89.447189 100.281021,90.207336 100.595963,91.000031 100.595963C91.792725 100.595963,92.552872 100.281021,93.113342 99.720535C93.673828 99.160065,93.988770 98.399918,93.988770 97.607224Z" style="fill: rgb(100.000000%,100.000000%,100.000000%);stroke: none;"></path>
  <path d="M120.094940 82.258286C120.094940 81.465591,119.779999 80.705444,119.219513 80.144974C118.659042 79.584488,117.898895 79.269547,117.106201 79.269547C116.313507 79.269547,115.553360 79.584488,114.992889 80.144974C114.432404 80.705444,114.117462 81.465591,114.117462 82.258286C114.117462 83.050980,114.432404 83.811127,114.992889 84.371597C115.553360 84.932083,116.313507 85.247025,117.106201 85.247025C117.898895 85.247025,118.659042 84.932083,119.219513 84.371597C119.779999 83.811127,120.094940 83.050980,120.094940 82.258286Z" style="fill: rgb(100.000000%,100.000000%,100.000000%);stroke: none;"></path>
  <path d="M111.224838 86.845078C111.224838 86.052383,110.909897 85.292236,110.349411 84.731766C109.788940 84.171280,109.028793 83.856339,108.236099 83.856339C107.443405 83.856339,106.683258 84.171280,106.122787 84.731766C105.562302 85.292236,105.247360 86.052383,105.247360 86.845078C105.247360 87.637772,105.562302 88.397919,106.122787 88.958389C106.683258 89.518875,107.443405 89.833817,108.236099 89.833817C109.028793 89.833817,109.788940 89.518875,110.349411 88.958389C110.909897 88.397919,111.224838 87.637772,111.224838 86.845078Z" style="fill: rgb(100.000000%,100.000000%,100.000000%);stroke: none;"></path>
  <path d="M130.115387 83.031601C130.115387 82.238907,129.800446 81.478760,129.239960 80.918289C128.679489 80.357803,127.919342 80.042862,127.126648 80.042862C126.333954 80.042862,125.573807 80.357803,125.013336 80.918289C124.452850 81.478760,124.137909 82.238907,124.137909 83.031601C124.137909 83.824295,124.452850 84.584442,125.013336 85.144913C125.573807 85.705399,126.333954 86.020340,127.126648 86.020340C127.919342 86.020340,128.679489 85.705399,129.239960 85.144913C129.800446 84.584442,130.115387 83.824295,130.115387 83.031601Z" style="fill: rgb(100.000000%,100.000000%,100.000000%);stroke: none;"></path>
  <path d="M123.668152 80.414062C123.668152 79.621368,123.353210 78.861221,122.792725 78.300751C122.232254 77.740265,121.472107 77.425323,120.679413 77.425323C119.886719 77.425323,119.126572 77.740265,118.566101 78.300751C118.005615 78.861221,117.690674 79.621368,117.690674 80.414062C117.690674 81.206757,118.005615 81.966904,118.566101 82.527374C119.126572 83.087860,119.886719 83.402802,120.679413 83.402802C121.472107 83.402802,122.232254 83.087860,122.792725 82.527374C123.353210 81.966904,123.668152 81.206757,123.668152 80.414062Z" style="fill: rgb(100.000000%,100.000000%,100.000000%);stroke: none;"></path>
  <path d="M135.328491 91.300659C135.328491 90.507965,135.013550 89.747818,134.453064 89.187347C133.892593 88.626862,133.132446 88.311920,132.339752 88.311920C131.547058 88.311920,130.786911 88.626862,130.226440 89.187347C129.665955 89.747818,129.351013 90.507965,129.351013 91.300659C129.351013 92.093353,129.665955 92.853500,130.226440 93.413971C130.786911 93.974457,131.547058 94.289398,132.339752 94.289398C133.132446 94.289398,133.892593 93.974457,134.453064 93.413971C135.013550 92.853500,135.328491 92.093353,135.328491 91.300659Z" style="fill: rgb(100.000000%,100.000000%,100.000000%);stroke: none;"></path>
  <path d="M131.460464 86.333496C131.460464 85.540802,131.145523 84.780655,130.585037 84.220184C130.024567 83.659698,129.264420 83.344757,128.471725 83.344757C127.679031 83.344757,126.918884 83.659698,126.358414 84.220184C125.797928 84.780655,125.482986 85.540802,125.482986 86.333496C125.482986 87.126190,125.797928 87.886337,126.358414 88.446808C126.918884 89.007294,127.679031 89.322235,128.471725 89.322235C129.264420 89.322235,130.024567 89.007294,130.585037 88.446808C131.145523 87.886337,131.460464 87.126190,131.460464 86.333496Z" style="fill: rgb(100.000000%,100.000000%,100.000000%);stroke: none;"></path>
  <path d="M135.583862 98.858200C135.583862 98.065506,135.268921 97.305359,134.708435 96.744888C134.147964 96.184402,133.387817 95.869461,132.595123 95.869461C131.802429 95.869461,131.042282 96.184402,130.481812 96.744888C129.921326 97.305359,129.606384 98.065506,129.606384 98.858200C129.606384 99.650894,129.921326 100.411041,130.481812 100.971512C131.042282 101.531998,131.802429 101.846939,132.595123 101.846939C133.387817 101.846939,134.147964 101.531998,134.708435 100.971512C135.268921 100.411041,135.583862 99.650894,135.583862 98.858200Z" style="fill: rgb(100.000000%,100.000000%,100.000000%);stroke: none;"></path>
  <path d="M137.806519 93.796921C137.806519 93.004227,137.491577 92.244080,136.931091 91.683609C136.370621 91.123123,135.610474 90.808182,134.817780 90.808182C134.025085 90.808182,133.264938 91.123123,132.704468 91.683609C132.143982 92.244080,131.829041 93.004227,131.829041 93.796921C131.829041 94.589615,132.143982 95.349762,132.704468 95.910233C133.264938 96.470718,134.025085 96.785660,134.817780 96.785660C135.610474 96.785660,136.370621 96.470718,136.931091 95.910233C137.491577 95.349762,137.806519 94.589615,137.806519 93.796921Z" style="fill: rgb(100.000000%,100.000000%,100.000000%);stroke: none;"></path>
  <path d="M126.790695 99.122772C126.790695 98.330078,126.475754 97.569931,125.915268 97.009460C125.354797 96.448975,124.594650 96.134033,123.801956 96.134033C123.009262 96.134033,122.249115 96.448975,121.688644 97.009460C121.128159 97.569931,120.813217 98.330078,120.813217 99.122772C120.813217 99.915466,121.128159 100.675613,121.688644 101.236084C122.249115 101.796570,123.009262 102.111511,123.801956 102.111511C124.594650 102.111511,125.354797 101.796570,125.915268 101.236084C126.475754 100.675613,126.790695 99.915466,126.790695 99.122772Z" style="fill: rgb(100.000000%,100.000000%,100.000000%);stroke: none;"></path>
  <path d="M132.655975 99.187973C132.655975 98.395279,132.341034 97.635132,131.780548 97.074661C131.220078 96.514175,130.459930 96.199234,129.667236 96.199234C128.874542 96.199234,128.114395 96.514175,127.553925 97.074661C126.993439 97.635132,126.678497 98.395279,126.678497 99.187973C126.678497 99.980667,126.993439 100.740814,127.553925 101.301285C128.114395 101.861771,128.874542 102.176712,129.667236 102.176712C130.459930 102.176712,131.220078 101.861771,131.780548 101.301285C132.341034 100.740814,132.655975 99.980667,132.655975 99.187973Z" style="fill: rgb(100.000000%,100.000000%,100.000000%);stroke: none;"></path>
  <path d="M117.127289 94.074890C117.127289 93.282196,116.812347 92.522049,116.251862 91.961578C115.691391 91.401093,114.931244 91.086151,114.138550 91.086151C113.345856 91.086151,112.585709 91.401093,112.025238 91.961578C111.464752 92.522049,111.149811 93.282196,111.149811 94.074890C111.149811 94.867584,111.464752 95.627731,112.025238 96.188202C112.585709 96.748688,113.345856 97.063629,114.138550 97.063629C114.931244 97.063629,115.691391 96.748688,116.251862 96.188202C116.812347 95.627731,117.127289 94.867584,117.127289 94.074890Z" style="fill: rgb(100.000000%,100.000000%,100.000000%);stroke: none;"></path>
  <path d="M123.437866 98.999802C123.437866 98.207108,123.122925 97.446960,122.562439 96.886490C122.001968 96.326004,121.241821 96.011063,120.449127 96.011063C119.656433 96.011063,118.896286 96.326004,118.335815 96.886490C117.775330 97.446960,117.460388 98.207108,117.460388 98.999802C117.460388 99.792496,117.775330 100.552643,118.335815 101.113113C118.896286 101.673599,119.656433 101.988541,120.449127 101.988541C121.241821 101.988541,122.001968 101.673599,122.562439 101.113113C123.122925 100.552643,123.437866 99.792496,123.437866 98.999802Z" style="fill: rgb(100.000000%,100.000000%,100.000000%);stroke: none;"></path>
  <path d="M116.408371 75.259109C116.408371 74.466415,116.093430 73.706268,115.532944 73.145798C114.972473 72.585312,114.212326 72.270370,113.419632 72.270370C112.626938 72.270370,111.866791 72.585312,111.306320 73.145798C110.745834 73.706268,110.430893 74.466415,110.430893 75.259109C110.430893 76.051804,110.745834 76.811951,111.306320 77.372421C111.866791 77.932907,112.626938 78.247849,113.419632 78.247849C114.212326 78.247849,114.972473 77.932907,115.532944 77.372421C116.093430 76.811951,116.408371 76.051804,116.408371 75.259109Z" style="fill: rgb(100.000000%,100.000000%,100.000000%);stroke: none;"></path>
  <path d="M117.029968 88.789597C117.029968 87.996902,116.715027 87.236755,116.154541 86.676285C115.594070 86.115799,114.833923 85.800858,114.041229 85.800858C113.248535 85.800858,112.488388 86.115799,111.927917 86.676285C111.367432 87.236755,111.052490 87.996902,111.052490 88.789597C111.052490 89.582291,111.367432 90.342438,111.927917 90.902908C112.488388 91.463394,113.248535 91.778336,114.041229 91.778336C114.833923 91.778336,115.594070 91.463394,116.154541 90.902908C116.715027 90.342438,117.029968 89.582291,117.029968 88.789597Z" style="fill: rgb(100.000000%,100.000000%,100.000000%);stroke: none;"></path>
  <path d="M112.310745 42.145081C112.310745 41.352386,111.995804 40.592239,111.435318 40.031769C110.874847 39.471283,110.114700 39.156342,109.322006 39.156342C108.529312 39.156342,107.769165 39.471283,107.208694 40.031769C106.648209 40.592239,106.333267 41.352386,106.333267 42.145081C106.333267 42.937775,106.648209 43.697922,107.208694 44.258392C107.769165 44.818878,108.529312 45.133820,109.322006 45.133820C110.114700 45.133820,110.874847 44.818878,111.435318 44.258392C111.995804 43.697922,112.310745 42.937775,112.310745 42.145081Z" style="fill: rgb(100.000000%,100.000000%,100.000000%);stroke: none;"></path>
  <path d="M114.576508 66.700989C114.576508 65.908295,114.261566 65.148148,113.701080 64.587677C113.140610 64.027191,112.380463 63.712250,111.587769 63.712250C110.795074 63.712250,110.034927 64.027191,109.474457 64.587677C108.913971 65.148148,108.599030 65.908295,108.599030 66.700989C108.599030 67.493683,108.913971 68.253830,109.474457 68.814301C110.034927 69.374786,110.795074 69.689728,111.587769 69.689728C112.380463 69.689728,113.140610 69.374786,113.701080 68.814301C114.261566 68.253830,114.576508 67.493683,114.576508 66.700989Z" style="fill: rgb(100.000000%,100.000000%,100.000000%);stroke: none;"></path>
  <path d="M140.955765 5.464981C140.955765 4.672287,140.640823 3.912140,140.080338 3.351669C139.519867 2.791183,138.759720 2.476242,137.967026 2.476242C137.174332 2.476242,136.414185 2.791183,135.853714 3.351669C135.293228 3.912140,134.978287 4.672287,134.978287 5.464981C134.978287 6.257675,135.293228 7.017822,135.853714 7.578293C136.414185 8.138779,137.174332 8.453720,137.967026 8.453720C138.759720 8.453720,139.519867 8.138779,140.080338 7.578293C140.640823 7.017822,140.955765 6.257675,140.955765 5.464981Z" style="fill: rgb(100.000000%,100.000000%,100.000000%);stroke: none;"></path>
  <path d="M114.949097 25.282578C114.949097 24.489883,114.634155 23.729736,114.073669 23.169266C113.513199 22.608780,112.753052 22.293839,111.960358 22.293839C111.167664 22.293839,110.407516 22.608780,109.847046 23.169266C109.286560 23.729736,108.971619 24.489883,108.971619 25.282578C108.971619 26.075272,109.286560 26.835419,109.847046 27.395889C110.407516 27.956375,111.167664 28.271317,111.960358 28.271317C112.753052 28.271317,113.513199 27.956375,114.073669 27.395889C114.634155 26.835419,114.949097 26.075272,114.949097 25.282578Z" style="fill: rgb(100.000000%,100.000000%,100.000000%);stroke: none;"></path>
  <path d="M187.618805 32.500977C187.618805 31.708282,187.303864 30.948135,186.743378 30.387665C186.182907 29.827179,185.422760 29.512238,184.630066 29.512238C183.837372 29.512238,183.077225 29.827179,182.516754 30.387665C181.956268 30.948135,181.641327 31.708282,181.641327 32.500977C181.641327 33.293671,181.956268 34.053818,182.516754 34.614288C183.077225 35.174774,183.837372 35.489716,184.630066 35.489716C185.422760 35.489716,186.182907 35.174774,186.743378 34.614288C187.303864 34.053818,187.618805 33.293671,187.618805 32.500977Z" style="fill: rgb(100.000000%,100.000000%,100.000000%);stroke: none;"></path>
  <path d="M159.910583 8.086304C159.910583 7.293610,159.595642 6.533463,159.035156 5.972992C158.474686 5.412506,157.714539 5.097565,156.921844 5.097565C156.129150 5.097565,155.369003 5.412506,154.808533 5.972992C154.248047 6.533463,153.933105 7.293610,153.933105 8.086304C153.933105 8.878998,154.248047 9.639145,154.808533 10.199615C155.369003 10.760101,156.129150 11.075043,156.921844 11.075043C157.714539 11.075043,158.474686 10.760101,159.035156 10.199615C159.595642 9.639145,159.910583 8.878998,159.910583 8.086304Z" style="fill: rgb(100.000000%,100.000000%,100.000000%);stroke: none;"></path>
  <path d="M180.226242 82.274216C180.226242 81.481522,179.911301 80.721375,179.350815 80.160904C178.790344 79.600418,178.030197 79.285477,177.237503 79.285477C176.444809 79.285477,175.684662 79.600418,175.124191 80.160904C174.563705 80.721375,174.248764 81.481522,174.248764 82.274216C174.248764 83.066910,174.563705 83.827057,175.124191 84.387527C175.684662 84.948013,176.444809 85.262955,177.237503 85.262955C178.030197 85.262955,178.790344 84.948013,179.350815 84.387527C179.911301 83.827057,180.226242 83.066910,180.226242 82.274216Z" style="fill: rgb(100.000000%,100.000000%,100.000000%);stroke: none;"></path>
  <path d="M192.240692 53.418991C192.240692 52.626297,191.925751 51.866150,191.365265 51.305679C190.804794 50.745193,190.044647 50.430252,189.251953 50.430252C188.459259 50.430252,187.699112 50.745193,187.138641 51.305679C186.578156 51.866150,186.263214 52.626297,186.263214 53.418991C186.263214 54.211685,186.578156 54.971832,187.138641 55.532303C187.699112 56.092789,188.459259 56.407730,189.251953 56.407730C190.044647 56.407730,190.804794 56.092789,191.365265 55.532303C191.925751 54.971832,192.240692 54.211685,192.240692 53.418991Z" style="fill: rgb(100.000000%,100.000000%,100.000000%);stroke: none;"></path>
  <path d="M156.176880 81.619308C156.176880 80.826614,155.861938 80.066467,155.301453 79.505997C154.740982 78.945511,153.980835 78.630569,153.188141 78.630569C152.395447 78.630569,151.635300 78.945511,151.074829 79.505997C150.514343 80.066467,150.199402 80.826614,150.199402 81.619308C150.199402 82.412003,150.514343 83.172150,151.074829 83.732620C151.635300 84.293106,152.395447 84.608047,153.188141 84.608047C153.980835 84.608047,154.740982 84.293106,155.301453 83.732620C155.861938 83.172150,156.176880 82.412003,156.176880 81.619308Z" style="fill: rgb(100.000000%,100.000000%,100.000000%);stroke: none;"></path>
  <path d="M169.867157 89.653198C169.867157 88.860504,169.552216 88.100357,168.991730 87.539886C168.431259 86.979401,167.671112 86.664459,166.878418 86.664459C166.085724 86.664459,165.325577 86.979401,164.765106 87.539886C164.204620 88.100357,163.889679 88.860504,163.889679 89.653198C163.889679 90.445892,164.204620 91.206039,164.765106 91.766510C165.325577 92.326996,166.085724 92.641937,166.878418 92.641937C167.671112 92.641937,168.431259 92.326996,168.991730 91.766510C169.552216 91.206039,169.867157 90.445892,169.867157 89.653198Z" style="fill: rgb(100.000000%,100.000000%,100.000000%);stroke: none;"></path>
  <path d="M149.974762 63.927399C149.974762 63.134705,149.659821 62.374557,149.099335 61.814087C148.538864 61.253601,147.778717 60.938660,146.986023 60.938660C146.193329 60.938660,145.433182 61.253601,144.872711 61.814087C144.312225 62.374557,143.997284 63.134705,143.997284 63.927399C143.997284 64.720093,144.312225 65.480240,144.872711 66.040710C145.433182 66.601196,146.193329 66.916138,146.986023 66.916138C147.778717 66.916138,148.538864 66.601196,149.099335 66.040710C149.659821 65.480240,149.974762 64.720093,149.974762 63.927399Z" style="fill: rgb(100.000000%,100.000000%,100.000000%);stroke: none;"></path>
  <path d="M154.835190 75.510544C154.835190 74.717850,154.520248 73.957703,153.959763 73.397232C153.399292 72.836746,152.639145 72.521805,151.846451 72.521805C151.053757 72.521805,150.293610 72.836746,149.733139 73.397232C149.172653 73.957703,148.857712 74.717850,148.857712 75.510544C148.857712 76.303238,149.172653 77.063385,149.733139 77.623856C150.293610 78.184341,151.053757 78.499283,151.846451 78.499283C152.639145 78.499283,153.399292 78.184341,153.959763 77.623856C154.520248 77.063385,154.835190 76.303238,154.835190 75.510544Z" style="fill: rgb(100.000000%,100.000000%,100.000000%);stroke: none;"></path>
  <path d="M137.219437 40.101105C137.219437 39.308411,136.904495 38.548264,136.344009 37.987793C135.783539 37.427307,135.023392 37.112366,134.230698 37.112366C133.438004 37.112366,132.677856 37.427307,132.117386 37.987793C131.556900 38.548264,131.241959 39.308411,131.241959 40.101105C131.241959 40.893799,131.556900 41.653946,132.117386 42.214417C132.677856 42.774902,133.438004 43.089844,134.230698 43.089844C135.023392 43.089844,135.783539 42.774902,136.344009 42.214417C136.904495 41.653946,137.219437 40.893799,137.219437 40.101105Z" style="fill: rgb(100.000000%,100.000000%,100.000000%);stroke: none;"></path>
  <path d="M145.668091 58.476608C145.668091 57.683914,145.353149 56.923767,144.792664 56.363297C144.232193 55.802811,143.472046 55.487869,142.679352 55.487869C141.886658 55.487869,141.126511 55.802811,140.566040 56.363297C140.005554 56.923767,139.690613 57.683914,139.690613 58.476608C139.690613 59.269302,140.005554 60.029449,140.566040 60.589920C141.126511 61.150406,141.886658 61.465347,142.679352 61.465347C143.472046 61.465347,144.232193 61.150406,144.792664 60.589920C145.353149 60.029449,145.668091 59.269302,145.668091 58.476608Z" style="fill: rgb(100.000000%,100.000000%,100.000000%);stroke: none;"></path>
  <path d="M113.417938 2.036819C113.417938 1.244125,113.102997 0.483978,112.542511 -0.076492C111.982040 -0.636978,111.221893 -0.951920,110.429199 -0.951920C109.636505 -0.951920,108.876358 -0.636978,108.315887 -0.076492C107.755402 0.483978,107.440460 1.244125,107.440460 2.036819C107.440460 2.829514,107.755402 3.589661,108.315887 4.150131C108.876358 4.710617,109.636505 5.025558,110.429199 5.025558C111.221893 5.025558,111.982040 4.710617,112.542511 4.150131C113.102997 3.589661,113.417938 2.829514,113.417938 2.036819Z" style="fill: rgb(100.000000%,100.000000%,100.000000%);stroke: none;"></path>
  <path d="M137.145706 25.223999C137.145706 24.431305,136.830765 23.671158,136.270279 23.110687C135.709808 22.550201,134.949661 22.235260,134.156967 22.235260C133.364273 22.235260,132.604126 22.550201,132.043655 23.110687C131.483170 23.671158,131.168228 24.431305,131.168228 25.223999C131.168228 26.016693,131.483170 26.776840,132.043655 27.337311C132.604126 27.897797,133.364273 28.212738,134.156967 28.212738C134.949661 28.212738,135.709808 27.897797,136.270279 27.337311C136.830765 26.776840,137.145706 26.016693,137.145706 25.223999Z" style="fill: rgb(100.000000%,100.000000%,100.000000%);stroke: none;"></path>
  <path d="M53.445297 28.315018C53.445297 27.522324,53.130356 26.762177,52.569870 26.201706C52.009399 25.641220,51.249252 25.326279,50.456558 25.326279C49.663864 25.326279,48.903717 25.641220,48.343246 26.201706C47.782761 26.762177,47.467819 27.522324,47.467819 28.315018C47.467819 29.107712,47.782761 29.867859,48.343246 30.428329C48.903717 30.988815,49.663864 31.303757,50.456558 31.303757C51.249252 31.303757,52.009399 30.988815,52.569870 30.428329C53.130356 29.867859,53.445297 29.107712,53.445297 28.315018Z" style="fill: rgb(100.000000%,100.000000%,100.000000%);stroke: none;"></path>
  <path d="M91.401291 7.430161C91.401291 6.637466,91.086349 5.877319,90.525864 5.316849C89.965393 4.756363,89.205246 4.441422,88.412552 4.441422C87.619858 4.441422,86.859711 4.756363,86.299240 5.316849C85.738754 5.877319,85.423813 6.637466,85.423813 7.430161C85.423813 8.222855,85.738754 8.983002,86.299240 9.543472C86.859711 10.103958,87.619858 10.418900,88.412552 10.418900C89.205246 10.418900,89.965393 10.103958,90.525864 9.543472C91.086349 8.983002,91.401291 8.222855,91.401291 7.430161Z" style="fill: rgb(100.000000%,100.000000%,100.000000%);stroke: none;"></path>
  <path d="M34.924774 80.520065C34.924774 79.727371,34.609833 78.967224,34.049347 78.406754C33.488876 77.846268,32.728729 77.531326,31.936035 77.531326C31.143341 77.531326,30.383194 77.846268,29.822723 78.406754C29.262238 78.967224,28.947296 79.727371,28.947296 80.520065C28.947296 81.312759,29.262238 82.072906,29.822723 82.633377C30.383194 83.193863,31.143341 83.508804,31.936035 83.508804C32.728729 83.508804,33.488876 83.193863,34.049347 82.633377C34.609833 82.072906,34.924774 81.312759,34.924774 80.520065Z" style="fill: rgb(100.000000%,100.000000%,100.000000%);stroke: none;"></path>
  <path d="M35.182968 44.493958C35.182968 43.701263,34.868027 42.941116,34.307541 42.380646C33.747070 41.820160,32.986923 41.505219,32.194229 41.505219C31.401535 41.505219,30.641388 41.820160,30.080917 42.380646C29.520432 42.941116,29.205490 43.701263,29.205490 44.493958C29.205490 45.286652,29.520432 46.046799,30.080917 46.607269C30.641388 47.167755,31.401535 47.482697,32.194229 47.482697C32.986923 47.482697,33.747070 47.167755,34.307541 46.607269C34.868027 46.046799,35.182968 45.286652,35.182968 44.493958Z" style="fill: rgb(100.000000%,100.000000%,100.000000%);stroke: none;"></path>
  <path d="M42.842651 120.947418C42.842651 120.154724,42.527710 119.394577,41.967224 118.834106C41.406754 118.273621,40.646606 117.958679,39.853912 117.958679C39.061218 117.958679,38.301071 118.273621,37.740601 118.834106C37.180115 119.394577,36.865173 120.154724,36.865173 120.947418C36.865173 121.740112,37.180115 122.500259,37.740601 123.060730C38.301071 123.621216,39.061218 123.936157,39.853912 123.936157C40.646606 123.936157,41.406754 123.621216,41.967224 123.060730C42.527710 122.500259,42.842651 121.740112,42.842651 120.947418Z" style="fill: rgb(100.000000%,100.000000%,100.000000%);stroke: none;"></path>
  <path d="M42.934418 93.225952C42.934418 92.433258,42.619476 91.673111,42.058990 91.112640C41.498520 90.552155,40.738373 90.237213,39.945679 90.237213C39.152985 90.237213,38.392838 90.552155,37.832367 91.112640C37.271881 91.673111,36.956940 92.433258,36.956940 93.225952C36.956940 94.018646,37.271881 94.778793,37.832367 95.339264C38.392838 95.899750,39.152985 96.214691,39.945679 96.214691C40.738373 96.214691,41.498520 95.899750,42.058990 95.339264C42.619476 94.778793,42.934418 94.018646,42.934418 93.225952Z" style="fill: rgb(100.000000%,100.000000%,100.000000%);stroke: none;"></path>
  <path d="M34.745651 169.936066C34.745651 169.143372,34.430710 168.383224,33.870224 167.822754C33.309753 167.262268,32.549606 166.947327,31.756912 166.947327C30.964218 166.947327,30.204071 167.262268,29.643600 167.822754C29.083115 168.383224,28.768173 169.143372,28.768173 169.936066C28.768173 170.728760,29.083115 171.488907,29.643600 172.049377C30.204071 172.609863,30.964218 172.924805,31.756912 172.924805C32.549606 172.924805,33.309753 172.609863,33.870224 172.049377C34.430710 171.488907,34.745651 170.728760,34.745651 169.936066Z" style="fill: rgb(100.000000%,100.000000%,100.000000%);stroke: none;"></path>
  <path d="M34.760696 133.590485C34.760696 132.797791,34.445755 132.037643,33.885269 131.477173C33.324799 130.916687,32.564651 130.601746,31.771957 130.601746C30.979263 130.601746,30.219116 130.916687,29.658646 131.477173C29.098160 132.037643,28.783218 132.797791,28.783218 133.590485C28.783218 134.383179,29.098160 135.143326,29.658646 135.703796C30.219116 136.264282,30.979263 136.579224,31.771957 136.579224C32.564651 136.579224,33.324799 136.264282,33.885269 135.703796C34.445755 135.143326,34.760696 134.383179,34.760696 133.590485Z" style="fill: rgb(100.000000%,100.000000%,100.000000%);stroke: none;"></path>
  <path d="M72.251678 194.280716C94.033981 201.558563,117.772430 191.030640,127.000000 170.000000C133.645844 154.853409,130.690460 137.874374,129.322250 121.454315C128.701263 114.001740,128.434692 106.501144,127.000000 99.158325C126.585800 97.038422,126.092072 94.828445,126.925079 92.829956C127.616577 91.170990,129.085251 90.037491,130.470917 88.900772C133.617523 86.319458,136.515976 83.456589,139.434555 80.620956C142.916290 77.238174,146.435120 73.886047,149.631134 70.231110C152.549942 66.893204,155.331848 63.219009,159.464874 61.571136C167.775223 58.257751,176.534943 63.665131,181.716446 71.517059C194.365189 90.684647,188.185150 115.135056,177.840439 136.136398C167.060089 158.022156,148.232025 177.028549,127.000000 170.000000C111.622925 164.909637,105.801407 147.924149,97.674088 134.002029C92.807541 125.665634,86.647095 118.174744,81.415955 110.065018C76.142456 101.889633,71.826645 93.106369,66.042679 85.279205C57.706299 73.998001,45.712662 64.920090,32.035416 66.652786C13.881088 68.952652,3.664459 87.558640,3.189102 106.888000C2.694687 126.992386,13.254486 146.463104,31.766220 147.447769C44.708847 148.136215,54.801361 138.310623,63.878830 128.935532C69.854187 122.764252,75.916321 116.665405,81.415955 110.065018C86.415176 104.065201,91.000031 97.607224,97.287750 92.952896C102.345230 89.209229,108.236099 86.845078,113.819260 83.957993C117.106201 82.258286,120.679413 80.414062,124.083588 81.796143C127.126648 83.031601,128.471725 86.333496,130.470917 88.900772C132.339752 91.300659,134.817780 93.796921,133.624634 96.513885C132.595123 98.858200,129.667236 99.187973,127.000000 99.158325C123.801956 99.122772,120.449127 98.999802,117.925781 97.030533C114.138550 94.074890,114.041229 88.789597,113.819260 83.957993C113.419632 75.259109,111.587769 66.700989,110.787888 58.032074C109.322006 42.145081,111.960358 25.282578,124.465546 15.753372C137.967026 5.464981,156.921844 8.086304,169.941803 19.558640C184.630066 32.500977,189.251953 53.418991,181.716446 71.517059C177.237503 82.274216,166.878418 89.653198,158.153625 84.533218C153.188141 81.619308,151.846451 75.510544,149.631134 70.231110C146.986023 63.927399,142.679352 58.476608,139.824677 52.267792C134.230698 40.101105,134.156967 25.223999,124.465546 15.753372C110.429199 2.036819,88.412552 7.430161,70.280106 17.407333C50.456558 28.315018,32.194229 44.493958,32.035416 66.652786C31.936035 80.520065,39.945679 93.225952,39.899780 107.091629C39.853912 120.947418,31.771957 133.590485,31.766220 147.447769C31.756912 169.936066,50.287567 186.942123,72.251678 194.280716" style="stroke:rgb(0.000000%,0.000000%,0.000000%); stroke-width: 0.498138;stroke-linecap: round;stroke-linejoin: round;stroke-miterlimit: 10.000000;fill: none;"></path>
  <path d="M72.251678 194.280716C94.033981 201.558563,117.772430 191.030640,127.000000 170.000000C133.645844 154.853409,130.690460 137.874374,129.322250 121.454315C128.701263 114.001740,128.434692 106.501144,127.000000 99.158325" style="stroke:rgb(0.000000%,0.000000%,0.000000%); stroke-width: 1.494400;stroke-linecap: round;stroke-linejoin: round;stroke-miterlimit: 10.000000;fill: none;"></path>
  <path d="M31.766220 147.447769C31.756912 169.936066,50.287567 186.942123,72.251678 194.280716" style="stroke:rgb(0.000000%,0.000000%,0.000000%); stroke-width: 1.494400;stroke-linecap: round;stroke-linejoin: round;stroke-miterlimit: 10.000000;fill: none;"></path>
  <path d="M129.988739 170.000000C129.988739 169.207306,129.673798 168.447159,129.113312 167.886688C128.552841 167.326202,127.792694 167.011261,127.000000 167.011261C126.207306 167.011261,125.447159 167.326202,124.886688 167.886688C124.326202 168.447159,124.011261 169.207306,124.011261 170.000000C124.011261 170.792694,124.326202 171.552841,124.886688 172.113312C125.447159 172.673798,126.207306 172.988739,127.000000 172.988739C127.792694 172.988739,128.552841 172.673798,129.113312 172.113312C129.673798 171.552841,129.988739 170.792694,129.988739 170.000000Z" style="fill: rgb(100.000000%,100.000000%,100.000000%);stroke: none;"></path>
  <path d="M104.333878 192.756027C114.144714 188.404953,122.386215 180.515320,127.000000 170.000000C130.322922 162.426697,131.245544 154.395294,131.166397 146.204697" style="stroke:rgb(0.000000%,0.000000%,0.000000%); stroke-width: 1.494400;stroke-linecap: round;stroke-linejoin: round;stroke-miterlimit: 10.000000;fill: none;"></path>
  <path d="M133.459656 88.900772C133.459656 88.108078,133.144714 87.347931,132.584229 86.787460C132.023758 86.226974,131.263611 85.912033,130.470917 85.912033C129.678223 85.912033,128.918076 86.226974,128.357605 86.787460C127.797119 87.347931,127.482178 88.108078,127.482178 88.900772C127.482178 89.693466,127.797119 90.453613,128.357605 91.014084C128.918076 91.574570,129.678223 91.889511,130.470917 91.889511C131.263611 91.889511,132.023758 91.574570,132.584229 91.014084C133.144714 90.453613,133.459656 89.693466,133.459656 88.900772Z" style="fill: rgb(100.000000%,100.000000%,100.000000%);stroke: none;"></path>
  <path d="M128.437698 90.669510C129.064514 90.036682,129.778091 89.469131,130.470917 88.900772C132.044220 87.610107,133.555496 86.249054,135.038254 84.856216" style="stroke:rgb(0.000000%,0.000000%,0.000000%); stroke-width: 0.498138;stroke-linecap: round;stroke-linejoin: round;stroke-miterlimit: 10.000000;fill: none;"></path>
  <path d="M184.705185 71.517059C184.705185 70.724365,184.390244 69.964218,183.829758 69.403748C183.269287 68.843262,182.509140 68.528320,181.716446 68.528320C180.923752 68.528320,180.163605 68.843262,179.603134 69.403748C179.042648 69.964218,178.727707 70.724365,178.727707 71.517059C178.727707 72.309753,179.042648 73.069901,179.603134 73.630371C180.163605 74.190857,180.923752 74.505798,181.716446 74.505798C182.509140 74.505798,183.269287 74.190857,183.829758 73.630371C184.390244 73.069901,184.705185 72.309753,184.705185 71.517059Z" style="fill: rgb(100.000000%,100.000000%,100.000000%);stroke: none;"></path>
  <path d="M171.763992 62.357117C175.640396 64.276276,179.125702 67.591095,181.716446 71.517059C188.040817 81.100861,189.657990 92.005356,188.400970 103.139084" style="stroke:rgb(0.000000%,0.000000%,0.000000%); stroke-width: 0.498138;stroke-linecap: round;stroke-linejoin: round;stroke-miterlimit: 10.000000;fill: none;"></path>
  <path d="M84.404694 110.065018C84.404694 109.272324,84.089752 108.512177,83.529266 107.951706C82.968796 107.391220,82.208649 107.076279,81.415955 107.076279C80.623260 107.076279,79.863113 107.391220,79.302643 107.951706C78.742157 108.512177,78.427216 109.272324,78.427216 110.065018C78.427216 110.857712,78.742157 111.617859,79.302643 112.178329C79.863113 112.738815,80.623260 113.053757,81.415955 113.053757C82.208649 113.053757,82.968796 112.738815,83.529266 112.178329C84.089752 111.617859,84.404694 110.857712,84.404694 110.065018Z" style="fill: rgb(100.000000%,100.000000%,100.000000%);stroke: none;"></path>
  <path d="M89.681732 121.948502C86.879410 118.020020,84.031525 114.119873,81.415955 110.065018C78.779205 105.977325,76.381866 101.737656,73.920731 97.541519" style="stroke:rgb(0.000000%,0.000000%,0.000000%); stroke-width: 0.498138;stroke-linecap: round;stroke-linejoin: round;stroke-miterlimit: 10.000000;fill: none;"></path>
  <path d="M34.754959 147.447769C34.754959 146.655075,34.440018 145.894928,33.879532 145.334457C33.319061 144.773972,32.558914 144.459030,31.766220 144.459030C30.973526 144.459030,30.213379 144.773972,29.652908 145.334457C29.092422 145.894928,28.777481 146.655075,28.777481 147.447769C28.777481 148.240463,29.092422 149.000610,29.652908 149.561081C30.213379 150.121567,30.973526 150.436508,31.766220 150.436508C32.558914 150.436508,33.319061 150.121567,33.879532 149.561081C34.440018 149.000610,34.754959 148.240463,34.754959 147.447769Z" style="fill: rgb(100.000000%,100.000000%,100.000000%);stroke: none;"></path>
  <path d="M10.350372 134.337799C15.242477 141.841599,22.510361 146.955444,31.766220 147.447769C38.237534 147.791992,43.996323 145.507706,49.271973 141.965469" style="stroke:rgb(0.000000%,0.000000%,0.000000%); stroke-width: 0.498138;stroke-linecap: round;stroke-linejoin: round;stroke-miterlimit: 10.000000;fill: none;"></path>
  <path d="M116.807999 83.957993C116.807999 83.165298,116.493057 82.405151,115.932571 81.844681C115.372101 81.284195,114.611954 80.969254,113.819260 80.969254C113.026566 80.969254,112.266418 81.284195,111.705948 81.844681C111.145462 82.405151,110.830521 83.165298,110.830521 83.957993C110.830521 84.750687,111.145462 85.510834,111.705948 86.071304C112.266418 86.631790,113.026566 86.946732,113.819260 86.946732C114.611954 86.946732,115.372101 86.631790,115.932571 86.071304C116.493057 85.510834,116.807999 84.750687,116.807999 83.957993Z" style="fill: rgb(100.000000%,100.000000%,100.000000%);stroke: none;"></path>
  <path d="M105.356384 88.134216C108.159180 86.714340,111.027679 85.401535,113.819260 83.957993C115.462738 83.108139,117.177780 82.222153,118.907471 81.721390" style="stroke:rgb(0.000000%,0.000000%,0.000000%); stroke-width: 0.498138;stroke-linecap: round;stroke-linejoin: round;stroke-miterlimit: 10.000000;fill: none;"></path>
  <path d="M129.988739 99.158325C129.988739 98.365631,129.673798 97.605484,129.113312 97.045013C128.552841 96.484528,127.792694 96.169586,127.000000 96.169586C126.207306 96.169586,125.447159 96.484528,124.886688 97.045013C124.326202 97.605484,124.011261 98.365631,124.011261 99.158325C124.011261 99.951019,124.326202 100.711166,124.886688 101.271637C125.447159 101.832123,126.207306 102.147064,127.000000 102.147064C127.792694 102.147064,128.552841 101.832123,129.113312 101.271637C129.673798 100.711166,129.988739 99.951019,129.988739 99.158325Z" style="fill: rgb(100.000000%,100.000000%,100.000000%);stroke: none;"></path>
  <path d="M130.926453 98.726349C129.732391 99.098114,128.333618 99.173141,127.000000 99.158325C125.400970 99.140549,123.763245 99.100906,122.209869 98.819565" style="stroke:rgb(0.000000%,0.000000%,0.000000%); stroke-width: 0.498138;stroke-linecap: round;stroke-linejoin: round;stroke-miterlimit: 10.000000;fill: none;"></path>
  <path d="M127.454285 15.753372C127.454285 14.960678,127.139343 14.200531,126.578857 13.640060C126.018387 13.079575,125.258240 12.764633,124.465546 12.764633C123.672852 12.764633,122.912704 13.079575,122.352234 13.640060C121.791748 14.200531,121.476807 14.960678,121.476807 15.753372C121.476807 16.546066,121.791748 17.306213,122.352234 17.866684C122.912704 18.427170,123.672852 18.742111,124.465546 18.742111C125.258240 18.742111,126.018387 18.427170,126.578857 17.866684C127.139343 17.306213,127.454285 16.546066,127.454285 15.753372Z" style="fill: rgb(100.000000%,100.000000%,100.000000%);stroke: none;"></path>
  <path d="M112.387573 34.508545C114.427078 27.115891,118.212952 20.517975,124.465546 15.753372C131.216293 10.609177,139.330368 8.692413,147.384262 9.495743" style="stroke:rgb(0.000000%,0.000000%,0.000000%); stroke-width: 0.498138;stroke-linecap: round;stroke-linejoin: round;stroke-miterlimit: 10.000000;fill: none;"></path>
  <path d="M152.619873 70.231110C152.619873 69.438416,152.304932 68.678268,151.744446 68.117798C151.183975 67.557312,150.423828 67.242371,149.631134 67.242371C148.838440 67.242371,148.078293 67.557312,147.517822 68.117798C146.957336 68.678268,146.642395 69.438416,146.642395 70.231110C146.642395 71.023804,146.957336 71.783951,147.517822 72.344421C148.078293 72.904907,148.838440 73.219849,149.631134 73.219849C150.423828 73.219849,151.183975 72.904907,151.744446 72.344421C152.304932 71.783951,152.619873 71.023804,152.619873 70.231110Z" style="fill: rgb(100.000000%,100.000000%,100.000000%);stroke: none;"></path>
  <path d="M152.861053 78.269226C151.628036 75.717865,150.738785 72.870819,149.631134 70.231110C148.308578 67.079254,146.570633 64.140625,144.806488 61.213852" style="stroke:rgb(0.000000%,0.000000%,0.000000%); stroke-width: 0.498138;stroke-linecap: round;stroke-linejoin: round;stroke-miterlimit: 10.000000;fill: none;"></path>
  <path d="M35.024155 66.652786C35.024155 65.860092,34.709213 65.099945,34.148727 64.539474C33.588257 63.978989,32.828110 63.664047,32.035416 63.664047C31.242722 63.664047,30.482574 63.978989,29.922104 64.539474C29.361618 65.099945,29.046677 65.860092,29.046677 66.652786C29.046677 67.445480,29.361618 68.205627,29.922104 68.766098C30.482574 69.326584,31.242722 69.641525,32.035416 69.641525C32.828110 69.641525,33.588257 69.326584,34.148727 68.766098C34.709213 68.205627,35.024155 67.445480,35.024155 66.652786Z" style="fill: rgb(100.000000%,100.000000%,100.000000%);stroke: none;"></path>
  <path d="M43.783478 37.810898C36.720108 45.988937,32.114822 55.573380,32.035416 66.652786C31.985718 73.586426,33.963287 80.229721,35.947540 86.872818" style="stroke:rgb(0.000000%,0.000000%,0.000000%); stroke-width: 0.498138;stroke-linecap: round;stroke-linejoin: round;stroke-miterlimit: 10.000000;fill: none;"></path>
  <path d="M129.322250 121.454315C128.825455 115.492233,128.555496 109.499420,127.732819 103.581238" style="stroke:rgb(0.000000%,0.000000%,0.000000%); stroke-width: 0.498138;stroke-linecap: round;stroke-linejoin: round;stroke-miterlimit: 10.000000;fill: none;"></path>
  <path d="M130.165863 107.949249C129.382507 106.477142,128.576401 105.018295,127.732819 103.581238C127.313156 105.193893,126.851562 106.795441,126.364502 108.390289Z" style="stroke:rgb(0.000000%,0.000000%,0.000000%); stroke-width: 0.498138;fill: rgb(0.000000%,0.000000%,0.000000%);"></path>
  <path d="M129.322250 121.454315C128.825455 115.492233,128.555496 109.499420,127.732819 103.581238" style="stroke:rgb(0.000000%,0.000000%,0.000000%); stroke-width: 0.498138;stroke-linecap: round;stroke-linejoin: round;stroke-miterlimit: 10.000000;fill: none;"></path>
  <path d="M129.214218 106.190063C128.731796 105.313843,128.239059 104.443619,127.732819 103.581238C127.480972 104.548996,127.214035 105.512756,126.935562 106.473450Z" style="stroke:rgb(0.000000%,0.000000%,0.000000%); stroke-width: 0.498138;fill: rgb(0.000000%,0.000000%,0.000000%);"></path>
  <path d="M126.925079 92.829956C127.478287 91.502777,128.528870 90.511902,129.636444 89.586639" style="stroke:rgb(0.000000%,0.000000%,0.000000%); stroke-width: 0.498138;stroke-linecap: round;stroke-linejoin: round;stroke-miterlimit: 10.000000;fill: none;"></path>
  <path d="M128.517593 92.370209C128.733734 91.404251,129.165863 90.485855,129.636444 89.586639C128.667847 89.889725,127.712891 90.233536,126.876999 90.763733Z" style="stroke:rgb(0.000000%,0.000000%,0.000000%); stroke-width: 0.498138;fill: rgb(0.000000%,0.000000%,0.000000%);"></path>
  <path d="M159.464874 61.571136C166.113174 58.920425,173.049072 61.851028,178.210434 67.149521" style="stroke:rgb(0.000000%,0.000000%,0.000000%); stroke-width: 0.498138;stroke-linecap: round;stroke-linejoin: round;stroke-miterlimit: 10.000000;fill: none;"></path>
  <path d="M175.393036 66.119171C176.340515 66.405457,177.282318 66.750748,178.210434 67.149521C177.836151 66.211258,177.414368 65.301147,176.946838 64.428711Z" style="stroke:rgb(0.000000%,0.000000%,0.000000%); stroke-width: 0.498138;fill: rgb(0.000000%,0.000000%,0.000000%);"></path>
  <path d="M66.042679 85.279205C59.373550 76.254211,50.363770 68.639328,40.023819 66.841568" style="stroke:rgb(0.000000%,0.000000%,0.000000%); stroke-width: 0.498138;stroke-linecap: round;stroke-linejoin: round;stroke-miterlimit: 10.000000;fill: none;"></path>
  <path d="M42.982010 66.341614C41.988373 66.456772,41.001556 66.622360,40.023819 66.841568C40.870178 67.377945,41.685028 67.958664,42.469070 68.579834Z" style="stroke:rgb(0.000000%,0.000000%,0.000000%); stroke-width: 0.498138;fill: rgb(0.000000%,0.000000%,0.000000%);"></path>
  <path d="M63.878830 128.935532C68.659134 123.998489,73.494980 119.107803,78.053925 113.969604" style="stroke:rgb(0.000000%,0.000000%,0.000000%); stroke-width: 0.498138;stroke-linecap: round;stroke-linejoin: round;stroke-miterlimit: 10.000000;fill: none;"></path>
  <path d="M77.052185 116.797531C77.392654 115.857193,77.727005 114.914703,78.053925 113.969604C77.154465 114.406708,76.251602 114.836716,75.345917 115.260849Z" style="stroke:rgb(0.000000%,0.000000%,0.000000%); stroke-width: 0.498138;fill: rgb(0.000000%,0.000000%,0.000000%);"></path>
  <path d="M124.083588 81.796143C126.518051 82.784515,127.865784 85.095413,129.331100 87.294693" style="stroke:rgb(0.000000%,0.000000%,0.000000%); stroke-width: 0.498138;stroke-linecap: round;stroke-linejoin: round;stroke-miterlimit: 10.000000;fill: none;"></path>
  <path d="M126.822464 85.649384C127.669846 86.153656,128.495697 86.734894,129.331100 87.294693C129.136230 86.308136,128.963272 85.313171,128.720688 84.357391Z" style="stroke:rgb(0.000000%,0.000000%,0.000000%); stroke-width: 0.498138;fill: rgb(0.000000%,0.000000%,0.000000%);"></path>
  <path d="M133.624634 96.513885C132.801025 98.389343,130.762436 98.975494,128.614319 99.119751" style="stroke:rgb(0.000000%,0.000000%,0.000000%); stroke-width: 0.498138;stroke-linecap: round;stroke-linejoin: round;stroke-miterlimit: 10.000000;fill: none;"></path>
  <path d="M131.086700 97.420441C130.430588 98.101639,129.554535 98.654205,128.614319 99.119751C129.608337 99.455414,130.618515 99.684158,131.564148 99.666443Z" style="stroke:rgb(0.000000%,0.000000%,0.000000%); stroke-width: 0.498138;fill: rgb(0.000000%,0.000000%,0.000000%);"></path>
  <path d="M110.787888 58.032074C109.615173 45.322433,111.069199 31.988464,118.100433 22.284317" style="stroke:rgb(0.000000%,0.000000%,0.000000%); stroke-width: 0.498138;stroke-linecap: round;stroke-linejoin: round;stroke-miterlimit: 10.000000;fill: none;"></path>
  <path d="M117.537323 25.231155C117.681015 24.241455,117.867859 23.258621,118.100433 22.284317C117.247040 22.808792,116.419937 23.371613,115.618500 23.969833Z" style="stroke:rgb(0.000000%,0.000000%,0.000000%); stroke-width: 0.498138;fill: rgb(0.000000%,0.000000%,0.000000%);"></path>
  <path d="M158.153625 84.533218C154.181229 82.202087,152.528076 77.826233,150.891449 73.466064" style="stroke:rgb(0.000000%,0.000000%,0.000000%); stroke-width: 0.498138;stroke-linecap: round;stroke-linejoin: round;stroke-miterlimit: 10.000000;fill: none;"></path>
  <path d="M152.962158 75.636734C152.262024 74.931320,151.576248 74.198517,150.891449 73.466064C150.857742 74.468201,150.824463 75.471298,150.820709 76.465164Z" style="stroke:rgb(0.000000%,0.000000%,0.000000%); stroke-width: 0.498138;fill: rgb(0.000000%,0.000000%,0.000000%);"></path>
  <path d="M39.899780 107.091629C39.863083 118.176300,34.683258 128.484818,32.609879 139.259811" style="stroke:rgb(0.000000%,0.000000%,0.000000%); stroke-width: 0.498138;stroke-linecap: round;stroke-linejoin: round;stroke-miterlimit: 10.000000;fill: none;"></path>
  <path d="M32.076630 136.307617C32.233200 137.296951,32.408905 138.281525,32.609879 139.259811C33.159546 138.425964,33.731522 137.605515,34.320374 136.795258Z" style="stroke:rgb(0.000000%,0.000000%,0.000000%); stroke-width: 0.498138;fill: rgb(0.000000%,0.000000%,0.000000%);"></path>
  <path d="M69.261032 196.990921L75.242325 196.990921L75.242325 189.570526L69.261032 189.570526Z" style="fill: rgb(100.000000%,100.000000%,100.000000%);stroke: none;"></path>
  <path d="M69.261032 198.990921L75.242325 198.990921L75.242325 191.570526L69.261032 191.570526Z" style="fill: rgb(100.000000%,100.000000%,100.000000%);stroke: none;"></path>
  <g transform="translate(69.761032 197.490921)" style="fill: rgb(0.000000%,0.000000%,0.000000%);">
    <use xlink:href="#GLYPHcmr10_49"></use>
  </g>
  <path d="M136.443909 83.331161L142.425201 83.331161L142.425201 75.910767L136.443909 75.910767Z" style="fill: rgb(100.000000%,100.000000%,100.000000%);stroke: none;"></path>
  <path d="M136.443909 85.331161L142.425201 85.331161L142.425201 77.910767L136.443909 77.910767Z" style="fill: rgb(100.000000%,100.000000%,100.000000%);stroke: none;"></path>
  <g transform="translate(136.943909 83.831161)" style="fill: rgb(0.000000%,0.000000%,0.000000%);">
    <use xlink:href="#GLYPHcmr10_50"></use>
  </g>
  <path d="M174.849792 138.846603L180.831085 138.846603L180.831085 131.426208L174.849792 131.426208Z" style="fill: rgb(100.000000%,100.000000%,100.000000%);stroke: none;"></path>
  <path d="M174.849792 140.846603L180.831085 140.846603L180.831085 133.426208L174.849792 133.426208Z" style="fill: rgb(100.000000%,100.000000%,100.000000%);stroke: none;"></path>
  <g transform="translate(175.349792 139.346603)" style="fill: rgb(0.000000%,0.000000%,0.000000%);">
    <use xlink:href="#GLYPHcmr10_51"></use>
  </g>
  <path d="M94.683441 136.712234L100.664734 136.712234L100.664734 129.291840L94.683441 129.291840Z" style="fill: rgb(100.000000%,100.000000%,100.000000%);stroke: none;"></path>
  <path d="M94.683441 138.712234L100.664734 138.712234L100.664734 131.291840L94.683441 131.291840Z" style="fill: rgb(100.000000%,100.000000%,100.000000%);stroke: none;"></path>
  <g transform="translate(95.183441 137.212234)" style="fill: rgb(0.000000%,0.000000%,0.000000%);">
    <use xlink:href="#GLYPHcmr10_52"></use>
  </g>
  <path d="M0.198456 109.598206L6.179749 109.598206L6.179749 102.177811L0.198456 102.177811Z" style="fill: rgb(100.000000%,100.000000%,100.000000%);stroke: none;"></path>
  <path d="M0.198456 111.598206L6.179749 111.598206L6.179749 104.177811L0.198456 104.177811Z" style="fill: rgb(100.000000%,100.000000%,100.000000%);stroke: none;"></path>
  <g transform="translate(0.698456 110.098206)" style="fill: rgb(0.000000%,0.000000%,0.000000%);">
    <use xlink:href="#GLYPHcmr10_53"></use>
  </g>
  <path d="M94.297104 95.663101L100.278397 95.663101L100.278397 88.242706L94.297104 88.242706Z" style="fill: rgb(100.000000%,100.000000%,100.000000%);stroke: none;"></path>
  <path d="M94.297104 97.663101L100.278397 97.663101L100.278397 90.242706L94.297104 90.242706Z" style="fill: rgb(100.000000%,100.000000%,100.000000%);stroke: none;"></path>
  <g transform="translate(94.797104 96.163101)" style="fill: rgb(0.000000%,0.000000%,0.000000%);">
    <use xlink:href="#GLYPHcmr10_54"></use>
  </g>
  <path d="M114.935135 99.740738L120.916428 99.740738L120.916428 92.320343L114.935135 92.320343Z" style="fill: rgb(100.000000%,100.000000%,100.000000%);stroke: none;"></path>
  <path d="M114.935135 101.740738L120.916428 101.740738L120.916428 94.320343L114.935135 94.320343Z" style="fill: rgb(100.000000%,100.000000%,100.000000%);stroke: none;"></path>
  <g transform="translate(115.435135 100.240738)" style="fill: rgb(0.000000%,0.000000%,0.000000%);">
    <use xlink:href="#GLYPHcmr10_55"></use>
  </g>
  <path d="M166.951157 22.268845L172.932449 22.268845L172.932449 14.848450L166.951157 14.848450Z" style="fill: rgb(100.000000%,100.000000%,100.000000%);stroke: none;"></path>
  <path d="M166.951157 24.268845L172.932449 24.268845L172.932449 16.848450L166.951157 16.848450Z" style="fill: rgb(100.000000%,100.000000%,100.000000%);stroke: none;"></path>
  <g transform="translate(167.451157 22.768845)" style="fill: rgb(0.000000%,0.000000%,0.000000%);">
    <use xlink:href="#GLYPHcmr10_56"></use>
  </g>
  <path d="M136.834030 54.977997L142.815323 54.977997L142.815323 47.557602L136.834030 47.557602Z" style="fill: rgb(100.000000%,100.000000%,100.000000%);stroke: none;"></path>
  <path d="M136.834030 56.977997L142.815323 56.977997L142.815323 49.557602L136.834030 49.557602Z" style="fill: rgb(100.000000%,100.000000%,100.000000%);stroke: none;"></path>
  <g transform="translate(137.334030 55.477997)" style="fill: rgb(0.000000%,0.000000%,0.000000%);">
    <use xlink:href="#GLYPHcmr10_57"></use>
  </g>
  <path d="M64.798752 20.117538L75.761459 20.117538L75.761459 12.697144L64.798752 12.697144Z" style="fill: rgb(100.000000%,100.000000%,100.000000%);stroke: none;"></path>
  <path d="M64.798752 22.117538L75.761459 22.117538L75.761459 14.697144L64.798752 14.697144Z" style="fill: rgb(100.000000%,100.000000%,100.000000%);stroke: none;"></path>
  <g transform="translate(65.298752 20.617538)" style="fill: rgb(0.000000%,0.000000%,0.000000%);">
    <use xlink:href="#GLYPHcmr10_49"></use>
    <use xlink:href="#GLYPHcmr10_48" x="5.000095"></use>
  </g>
</svg>
