<?xml version="1.0"?>
<!-- Created by MetaPost 1.999 on 2021.07.06:0015 -->
<svg version="1.1" xmlns="http://www.w3.org/2000/svg" xmlns:xlink="http://www.w3.org/1999/xlink" width="194.515396" height="195.680359" viewBox="0 0 194.515396 195.680359">
<!-- Original BoundingBox: -53.374725 -133.586975 141.140671 62.093384 -->
  <defs>
    <g transform="scale(0.009963,0.009963)" id="GLYPHcmr10_48">
      <path style="fill-rule: evenodd;" d="M460.000000 -320.000000C460.000000 -400.000000,455.000000 -480.000000,420.000000 -554.000000C374.000000 -650.000000,292.000000 -666.000000,250.000000 -666.000000C190.000000 -666.000000,117.000000 -640.000000,76.000000 -547.000000C44.000000 -478.000000,39.000000 -400.000000,39.000000 -320.000000C39.000000 -245.000000,43.000000 -155.000000,84.000000 -79.000000C127.000000 2.000000,200.000000 22.000000,249.000000 22.000000C303.000000 22.000000,379.000000 1.000000,423.000000 -94.000000C455.000000 -163.000000,460.000000 -241.000000,460.000000 -320.000000M249.000000 -0.000000C210.000000 -0.000000,151.000000 -25.000000,133.000000 -121.000000C122.000000 -181.000000,122.000000 -273.000000,122.000000 -332.000000C122.000000 -396.000000,122.000000 -462.000000,130.000000 -516.000000C149.000000 -635.000000,224.000000 -644.000000,249.000000 -644.000000C282.000000 -644.000000,348.000000 -626.000000,367.000000 -527.000000C377.000000 -471.000000,377.000000 -395.000000,377.000000 -332.000000C377.000000 -257.000000,377.000000 -189.000000,366.000000 -125.000000C351.000000 -30.000000,294.000000 -0.000000,249.000000 -0.000000"></path>
    </g>
    <g transform="scale(0.009963,0.009963)" id="GLYPHcmr10_49">
      <path style="fill-rule: evenodd;" d="M294.000000 -640.000000C294.000000 -664.000000,294.000000 -666.000000,271.000000 -666.000000C209.000000 -602.000000,121.000000 -602.000000,89.000000 -602.000000L89.000000 -571.000000C109.000000 -571.000000,168.000000 -571.000000,220.000000 -597.000000L220.000000 -79.000000C220.000000 -43.000000,217.000000 -31.000000,127.000000 -31.000000L95.000000 -31.000000L95.000000 -0.000000L257.000000 -0.000000L130.000000 -3.000000L217.000000 -3.000000L257.000000 -3.000000L297.000000 -3.000000L384.000000 -3.000000L419.000000 -0.000000L419.000000 -31.000000L387.000000 -31.000000C297.000000 -31.000000,294.000000 -42.000000,294.000000 -79.000000"></path>
    </g>
    <g transform="scale(0.009963,0.009963)" id="GLYPHcmr10_50">
      <path style="fill-rule: evenodd;" d="M127.000000 -77.000000L233.000000 -180.000000C389.000000 -318.000000,449.000000 -372.000000,449.000000 -472.000000C449.000000 -586.000000,359.000000 -666.000000,237.000000 -666.000000C124.000000 -666.000000,50.000000 -574.000000,50.000000 -485.000000C50.000000 -429.000000,100.000000 -429.000000,103.000000 -429.000000C120.000000 -429.000000,155.000000 -441.000000,155.000000 -482.000000C155.000000 -508.000000,137.000000 -534.000000,102.000000 -534.000000C94.000000 -534.000000,92.000000 -534.000000,89.000000 -533.000000C112.000000 -598.000000,166.000000 -635.000000,224.000000 -635.000000C315.000000 -635.000000,358.000000 -554.000000,358.000000 -472.000000C358.000000 -392.000000,308.000000 -313.000000,253.000000 -251.000000L61.000000 -37.000000C50.000000 -26.000000,50.000000 -24.000000,50.000000 -0.000000L421.000000 -0.000000L449.000000 -174.000000L424.000000 -174.000000C419.000000 -144.000000,412.000000 -100.000000,402.000000 -85.000000C395.000000 -77.000000,329.000000 -77.000000,307.000000 -77.000000"></path>
    </g>
    <g transform="scale(0.009963,0.009963)" id="GLYPHcmr10_51">
      <path style="fill-rule: evenodd;" d="M290.000000 -352.000000C372.000000 -379.000000,430.000000 -449.000000,430.000000 -528.000000C430.000000 -610.000000,342.000000 -666.000000,246.000000 -666.000000C145.000000 -666.000000,69.000000 -606.000000,69.000000 -530.000000C69.000000 -497.000000,91.000000 -478.000000,120.000000 -478.000000C151.000000 -478.000000,171.000000 -500.000000,171.000000 -529.000000C171.000000 -579.000000,124.000000 -579.000000,109.000000 -579.000000C140.000000 -628.000000,206.000000 -641.000000,242.000000 -641.000000C283.000000 -641.000000,338.000000 -619.000000,338.000000 -529.000000C338.000000 -517.000000,336.000000 -459.000000,310.000000 -415.000000C280.000000 -367.000000,246.000000 -364.000000,221.000000 -363.000000C213.000000 -362.000000,189.000000 -360.000000,182.000000 -360.000000C174.000000 -359.000000,167.000000 -358.000000,167.000000 -348.000000C167.000000 -337.000000,174.000000 -337.000000,191.000000 -337.000000L235.000000 -337.000000C317.000000 -337.000000,354.000000 -269.000000,354.000000 -171.000000C354.000000 -35.000000,285.000000 -6.000000,241.000000 -6.000000C198.000000 -6.000000,123.000000 -23.000000,88.000000 -82.000000C123.000000 -77.000000,154.000000 -99.000000,154.000000 -137.000000C154.000000 -173.000000,127.000000 -193.000000,98.000000 -193.000000C74.000000 -193.000000,42.000000 -179.000000,42.000000 -135.000000C42.000000 -44.000000,135.000000 22.000000,244.000000 22.000000C366.000000 22.000000,457.000000 -69.000000,457.000000 -171.000000C457.000000 -253.000000,394.000000 -331.000000,290.000000 -352.000000"></path>
    </g>
    <g transform="scale(0.009963,0.009963)" id="GLYPHcmr10_52">
      <path style="fill-rule: evenodd;" d="M294.000000 -165.000000L294.000000 -78.000000C294.000000 -42.000000,292.000000 -31.000000,218.000000 -31.000000L197.000000 -31.000000L197.000000 -0.000000L332.000000 -0.000000L238.000000 -3.000000L290.000000 -3.000000L332.000000 -3.000000L374.000000 -3.000000L427.000000 -3.000000L468.000000 -0.000000L468.000000 -31.000000L447.000000 -31.000000C373.000000 -31.000000,371.000000 -42.000000,371.000000 -78.000000L371.000000 -165.000000L471.000000 -165.000000L471.000000 -196.000000L371.000000 -196.000000L371.000000 -651.000000C371.000000 -671.000000,371.000000 -677.000000,355.000000 -677.000000C346.000000 -677.000000,343.000000 -677.000000,335.000000 -665.000000L28.000000 -196.000000L28.000000 -165.000000M300.000000 -196.000000L56.000000 -196.000000L300.000000 -569.000000"></path>
    </g>
    <g transform="scale(0.009963,0.009963)" id="GLYPHcmr10_53">
      <path style="fill-rule: evenodd;" d="M449.000000 -201.000000C449.000000 -320.000000,367.000000 -420.000000,259.000000 -420.000000C211.000000 -420.000000,168.000000 -404.000000,132.000000 -369.000000L132.000000 -564.000000C152.000000 -558.000000,185.000000 -551.000000,217.000000 -551.000000C340.000000 -551.000000,410.000000 -642.000000,410.000000 -655.000000C410.000000 -661.000000,407.000000 -666.000000,400.000000 -666.000000C399.000000 -666.000000,397.000000 -666.000000,392.000000 -663.000000C372.000000 -654.000000,323.000000 -634.000000,256.000000 -634.000000C216.000000 -634.000000,170.000000 -641.000000,123.000000 -662.000000C115.000000 -665.000000,113.000000 -665.000000,111.000000 -665.000000C101.000000 -665.000000,101.000000 -657.000000,101.000000 -641.000000L101.000000 -345.000000C101.000000 -327.000000,101.000000 -319.000000,115.000000 -319.000000C122.000000 -319.000000,124.000000 -322.000000,128.000000 -328.000000C139.000000 -344.000000,176.000000 -398.000000,257.000000 -398.000000C309.000000 -398.000000,334.000000 -352.000000,342.000000 -334.000000C358.000000 -297.000000,360.000000 -258.000000,360.000000 -208.000000C360.000000 -173.000000,360.000000 -113.000000,336.000000 -71.000000C312.000000 -32.000000,275.000000 -6.000000,229.000000 -6.000000C156.000000 -6.000000,99.000000 -59.000000,82.000000 -118.000000C85.000000 -117.000000,88.000000 -116.000000,99.000000 -116.000000C132.000000 -116.000000,149.000000 -141.000000,149.000000 -165.000000C149.000000 -189.000000,132.000000 -214.000000,99.000000 -214.000000C85.000000 -214.000000,50.000000 -207.000000,50.000000 -161.000000C50.000000 -75.000000,119.000000 22.000000,231.000000 22.000000C347.000000 22.000000,449.000000 -74.000000,449.000000 -201.000000"></path>
    </g>
    <g transform="scale(0.009963,0.009963)" id="GLYPHcmr10_54">
      <path style="fill-rule: evenodd;" d="M132.000000 -328.000000L132.000000 -352.000000C132.000000 -605.000000,256.000000 -641.000000,307.000000 -641.000000C331.000000 -641.000000,373.000000 -635.000000,395.000000 -601.000000C380.000000 -601.000000,340.000000 -601.000000,340.000000 -556.000000C340.000000 -525.000000,364.000000 -510.000000,386.000000 -510.000000C402.000000 -510.000000,432.000000 -519.000000,432.000000 -558.000000C432.000000 -618.000000,388.000000 -666.000000,305.000000 -666.000000C177.000000 -666.000000,42.000000 -537.000000,42.000000 -316.000000C42.000000 -49.000000,158.000000 22.000000,251.000000 22.000000C362.000000 22.000000,457.000000 -72.000000,457.000000 -204.000000C457.000000 -331.000000,368.000000 -427.000000,257.000000 -427.000000C189.000000 -427.000000,152.000000 -376.000000,132.000000 -328.000000M251.000000 -6.000000C188.000000 -6.000000,158.000000 -66.000000,152.000000 -81.000000C134.000000 -128.000000,134.000000 -208.000000,134.000000 -226.000000C134.000000 -304.000000,166.000000 -404.000000,256.000000 -404.000000C272.000000 -404.000000,318.000000 -404.000000,349.000000 -342.000000C367.000000 -305.000000,367.000000 -254.000000,367.000000 -205.000000C367.000000 -157.000000,367.000000 -107.000000,350.000000 -71.000000C320.000000 -11.000000,274.000000 -6.000000,251.000000 -6.000000"></path>
    </g>
    <g transform="scale(0.009963,0.009963)" id="GLYPHcmr10_55">
      <path style="fill-rule: evenodd;" d="M476.000000 -609.000000C485.000000 -621.000000,485.000000 -623.000000,485.000000 -644.000000L242.000000 -644.000000C120.000000 -644.000000,118.000000 -657.000000,114.000000 -676.000000L89.000000 -676.000000L56.000000 -470.000000L81.000000 -470.000000C84.000000 -486.000000,93.000000 -549.000000,106.000000 -561.000000C113.000000 -567.000000,191.000000 -567.000000,204.000000 -567.000000L411.000000 -567.000000C400.000000 -551.000000,321.000000 -442.000000,299.000000 -409.000000C209.000000 -274.000000,176.000000 -135.000000,176.000000 -33.000000C176.000000 -23.000000,176.000000 22.000000,222.000000 22.000000C268.000000 22.000000,268.000000 -23.000000,268.000000 -33.000000L268.000000 -84.000000C268.000000 -139.000000,271.000000 -194.000000,279.000000 -248.000000C283.000000 -271.000000,297.000000 -357.000000,341.000000 -419.000000"></path>
    </g>
    <g transform="scale(0.009963,0.009963)" id="GLYPHcmr10_56">
      <path style="fill-rule: evenodd;" d="M163.000000 -457.000000C117.000000 -487.000000,113.000000 -521.000000,113.000000 -538.000000C113.000000 -599.000000,178.000000 -641.000000,249.000000 -641.000000C322.000000 -641.000000,386.000000 -589.000000,386.000000 -517.000000C386.000000 -460.000000,347.000000 -412.000000,287.000000 -377.000000M309.000000 -362.000000C381.000000 -399.000000,430.000000 -451.000000,430.000000 -517.000000C430.000000 -609.000000,341.000000 -666.000000,250.000000 -666.000000C150.000000 -666.000000,69.000000 -592.000000,69.000000 -499.000000C69.000000 -481.000000,71.000000 -436.000000,113.000000 -389.000000C124.000000 -377.000000,161.000000 -352.000000,186.000000 -335.000000C128.000000 -306.000000,42.000000 -250.000000,42.000000 -151.000000C42.000000 -45.000000,144.000000 22.000000,249.000000 22.000000C362.000000 22.000000,457.000000 -61.000000,457.000000 -168.000000C457.000000 -204.000000,446.000000 -249.000000,408.000000 -291.000000C389.000000 -312.000000,373.000000 -322.000000,309.000000 -362.000000M209.000000 -320.000000L332.000000 -242.000000C360.000000 -223.000000,407.000000 -193.000000,407.000000 -132.000000C407.000000 -58.000000,332.000000 -6.000000,250.000000 -6.000000C164.000000 -6.000000,92.000000 -68.000000,92.000000 -151.000000C92.000000 -209.000000,124.000000 -273.000000,209.000000 -320.000000"></path>
    </g>
    <g transform="scale(0.009963,0.009963)" id="GLYPHcmr10_57">
      <path style="fill-rule: evenodd;" d="M367.000000 -318.000000L367.000000 -286.000000C367.000000 -52.000000,263.000000 -6.000000,205.000000 -6.000000C188.000000 -6.000000,134.000000 -8.000000,107.000000 -42.000000C151.000000 -42.000000,159.000000 -71.000000,159.000000 -88.000000C159.000000 -119.000000,135.000000 -134.000000,113.000000 -134.000000C97.000000 -134.000000,67.000000 -125.000000,67.000000 -86.000000C67.000000 -19.000000,121.000000 22.000000,206.000000 22.000000C335.000000 22.000000,457.000000 -114.000000,457.000000 -329.000000C457.000000 -598.000000,342.000000 -666.000000,253.000000 -666.000000C198.000000 -666.000000,149.000000 -648.000000,106.000000 -603.000000C65.000000 -558.000000,42.000000 -516.000000,42.000000 -441.000000C42.000000 -316.000000,130.000000 -218.000000,242.000000 -218.000000C303.000000 -218.000000,344.000000 -260.000000,367.000000 -318.000000M243.000000 -241.000000C227.000000 -241.000000,181.000000 -241.000000,150.000000 -304.000000C132.000000 -341.000000,132.000000 -391.000000,132.000000 -440.000000C132.000000 -494.000000,132.000000 -541.000000,153.000000 -578.000000C180.000000 -628.000000,218.000000 -641.000000,253.000000 -641.000000C299.000000 -641.000000,332.000000 -607.000000,349.000000 -562.000000C361.000000 -530.000000,365.000000 -467.000000,365.000000 -421.000000C365.000000 -338.000000,331.000000 -241.000000,243.000000 -241.000000"></path>
    </g>
  </defs>
  <path d="M59.476685 69.157928C59.476685 68.365234,59.161743 67.605087,58.601257 67.044617C58.040787 66.484131,57.280640 66.169189,56.487946 66.169189C55.695251 66.169189,54.935104 66.484131,54.374634 67.044617C53.814148 67.605087,53.499207 68.365234,53.499207 69.157928C53.499207 69.950623,53.814148 70.710770,54.374634 71.271240C54.935104 71.831726,55.695251 72.146667,56.487946 72.146667C57.280640 72.146667,58.040787 71.831726,58.601257 71.271240C59.161743 70.710770,59.476685 69.950623,59.476685 69.157928Z" style="fill: rgb(100.000000%,100.000000%,100.000000%);stroke: none;"></path>
  <path d="M61.787689 72.399811C61.787689 71.607117,61.472748 70.846970,60.912262 70.286499C60.351791 69.726013,59.591644 69.411072,58.798950 69.411072C58.006256 69.411072,57.246109 69.726013,56.685638 70.286499C56.125153 70.846970,55.810211 71.607117,55.810211 72.399811C55.810211 73.192505,56.125153 73.952652,56.685638 74.513123C57.246109 75.073608,58.006256 75.388550,58.798950 75.388550C59.591644 75.388550,60.351791 75.073608,60.912262 74.513123C61.472748 73.952652,61.787689 73.192505,61.787689 72.399811Z" style="fill: rgb(100.000000%,100.000000%,100.000000%);stroke: none;"></path>
  <path d="M55.056656 59.783173C55.056656 58.990479,54.741714 58.230331,54.181229 57.669861C53.620758 57.109375,52.860611 56.794434,52.067917 56.794434C51.275223 56.794434,50.515076 57.109375,49.954605 57.669861C49.394119 58.230331,49.079178 58.990479,49.079178 59.783173C49.079178 60.575867,49.394119 61.336014,49.954605 61.896484C50.515076 62.456970,51.275223 62.771912,52.067917 62.771912C52.860611 62.771912,53.620758 62.456970,54.181229 61.896484C54.741714 61.336014,55.056656 60.575867,55.056656 59.783173Z" style="fill: rgb(100.000000%,100.000000%,100.000000%);stroke: none;"></path>
  <path d="M57.531845 65.670059C57.531845 64.877365,57.216904 64.117218,56.656418 63.556747C56.095947 62.996262,55.335800 62.681320,54.543106 62.681320C53.750412 62.681320,52.990265 62.996262,52.429794 63.556747C51.869308 64.117218,51.554367 64.877365,51.554367 65.670059C51.554367 66.462753,51.869308 67.222900,52.429794 67.783371C52.990265 68.343857,53.750412 68.658798,54.543106 68.658798C55.335800 68.658798,56.095947 68.343857,56.656418 67.783371C57.216904 67.222900,57.531845 66.462753,57.531845 65.670059Z" style="fill: rgb(100.000000%,100.000000%,100.000000%);stroke: none;"></path>
  <path d="M54.389282 52.808777C54.389282 52.016083,54.074341 51.255936,53.513855 50.695465C52.953384 50.134979,52.193237 49.820038,51.400543 49.820038C50.607849 49.820038,49.847702 50.134979,49.287231 50.695465C48.726746 51.255936,48.411804 52.016083,48.411804 52.808777C48.411804 53.601471,48.726746 54.361618,49.287231 54.922089C49.847702 55.482574,50.607849 55.797516,51.400543 55.797516C52.193237 55.797516,52.953384 55.482574,53.513855 54.922089C54.074341 54.361618,54.389282 53.601471,54.389282 52.808777Z" style="fill: rgb(100.000000%,100.000000%,100.000000%);stroke: none;"></path>
  <path d="M54.267838 57.468277C54.267838 56.675583,53.952896 55.915436,53.392410 55.354965C52.831940 54.794479,52.071793 54.479538,51.279099 54.479538C50.486404 54.479538,49.726257 54.794479,49.165787 55.354965C48.605301 55.915436,48.290359 56.675583,48.290359 57.468277C48.290359 58.260971,48.605301 59.021118,49.165787 59.581589C49.726257 60.142075,50.486404 60.457016,51.279099 60.457016C52.071793 60.457016,52.831940 60.142075,53.392410 59.581589C53.952896 59.021118,54.267838 58.260971,54.267838 57.468277Z" style="fill: rgb(100.000000%,100.000000%,100.000000%);stroke: none;"></path>
  <path d="M56.952042 46.025940C56.952042 45.233246,56.637100 44.473099,56.076614 43.912628C55.516144 43.352142,54.755997 43.037201,53.963303 43.037201C53.170609 43.037201,52.410461 43.352142,51.849991 43.912628C51.289505 44.473099,50.974564 45.233246,50.974564 46.025940C50.974564 46.818634,51.289505 47.578781,51.849991 48.139252C52.410461 48.699738,53.170609 49.014679,53.963303 49.014679C54.755997 49.014679,55.516144 48.699738,56.076614 48.139252C56.637100 47.578781,56.952042 46.818634,56.952042 46.025940Z" style="fill: rgb(100.000000%,100.000000%,100.000000%);stroke: none;"></path>
  <path d="M55.192001 50.672318C55.192001 49.879623,54.877060 49.119476,54.316574 48.559006C53.756104 47.998520,52.995956 47.683578,52.203262 47.683578C51.410568 47.683578,50.650421 47.998520,50.089951 48.559006C49.529465 49.119476,49.214523 49.879623,49.214523 50.672318C49.214523 51.465012,49.529465 52.225159,50.089951 52.785629C50.650421 53.346115,51.410568 53.661057,52.203262 53.661057C52.995956 53.661057,53.756104 53.346115,54.316574 52.785629C54.877060 52.225159,55.192001 51.465012,55.192001 50.672318Z" style="fill: rgb(100.000000%,100.000000%,100.000000%);stroke: none;"></path>
  <path d="M62.051895 39.289139C62.051895 38.496445,61.736954 37.736298,61.176468 37.175827C60.615997 36.615341,59.855850 36.300400,59.063156 36.300400C58.270462 36.300400,57.510315 36.615341,56.949844 37.175827C56.389359 37.736298,56.074417 38.496445,56.074417 39.289139C56.074417 40.081833,56.389359 40.841980,56.949844 41.402451C57.510315 41.962936,58.270462 42.277878,59.063156 42.277878C59.855850 42.277878,60.615997 41.962936,61.176468 41.402451C61.736954 40.841980,62.051895 40.081833,62.051895 39.289139Z" style="fill: rgb(100.000000%,100.000000%,100.000000%);stroke: none;"></path>
  <path d="M57.950409 43.431091C57.950409 42.638397,57.635468 41.878250,57.074982 41.317780C56.514511 40.757294,55.754364 40.442352,54.961670 40.442352C54.168976 40.442352,53.408829 40.757294,52.848358 41.317780C52.287872 41.878250,51.972931 42.638397,51.972931 43.431091C51.972931 44.223785,52.287872 44.983932,52.848358 45.544403C53.408829 46.104889,54.168976 46.419830,54.961670 46.419830C55.754364 46.419830,56.514511 46.104889,57.074982 45.544403C57.635468 44.983932,57.950409 44.223785,57.950409 43.431091Z" style="fill: rgb(100.000000%,100.000000%,100.000000%);stroke: none;"></path>
  <path d="M72.148773 36.389587C72.148773 35.596893,71.833832 34.836746,71.273346 34.276276C70.712875 33.715790,69.952728 33.400848,69.160034 33.400848C68.367340 33.400848,67.607193 33.715790,67.046722 34.276276C66.486237 34.836746,66.171295 35.596893,66.171295 36.389587C66.171295 37.182281,66.486237 37.942429,67.046722 38.502899C67.607193 39.063385,68.367340 39.378326,69.160034 39.378326C69.952728 39.378326,70.712875 39.063385,71.273346 38.502899C71.833832 37.942429,72.148773 37.182281,72.148773 36.389587Z" style="fill: rgb(100.000000%,100.000000%,100.000000%);stroke: none;"></path>
  <path d="M65.072174 38.272781C65.072174 37.480087,64.757233 36.719940,64.196747 36.159470C63.636276 35.598984,62.876129 35.284042,62.083435 35.284042C61.290741 35.284042,60.530594 35.598984,59.970123 36.159470C59.409637 36.719940,59.094696 37.480087,59.094696 38.272781C59.094696 39.065475,59.409637 39.825623,59.970123 40.386093C60.530594 40.946579,61.290741 41.261520,62.083435 41.261520C62.876129 41.261520,63.636276 40.946579,64.196747 40.386093C64.757233 39.825623,65.072174 39.065475,65.072174 38.272781Z" style="fill: rgb(100.000000%,100.000000%,100.000000%);stroke: none;"></path>
  <path d="M84.805634 25.749710C84.805634 24.957016,84.490692 24.196869,83.930206 23.636398C83.369736 23.075912,82.609589 22.760971,81.816895 22.760971C81.024200 22.760971,80.264053 23.075912,79.703583 23.636398C79.143097 24.196869,78.828156 24.957016,78.828156 25.749710C78.828156 26.542404,79.143097 27.302551,79.703583 27.863022C80.264053 28.423508,81.024200 28.738449,81.816895 28.738449C82.609589 28.738449,83.369736 28.423508,83.930206 27.863022C84.490692 27.302551,84.805634 26.542404,84.805634 25.749710Z" style="fill: rgb(100.000000%,100.000000%,100.000000%);stroke: none;"></path>
  <path d="M76.515869 35.481033C76.515869 34.688339,76.200928 33.928192,75.640442 33.367722C75.079971 32.807236,74.319824 32.492294,73.527130 32.492294C72.734436 32.492294,71.974289 32.807236,71.413818 33.367722C70.853333 33.928192,70.538391 34.688339,70.538391 35.481033C70.538391 36.273727,70.853333 37.033875,71.413818 37.594345C71.974289 38.154831,72.734436 38.469772,73.527130 38.469772C74.319824 38.469772,75.079971 38.154831,75.640442 37.594345C76.200928 37.033875,76.515869 36.273727,76.515869 35.481033Z" style="fill: rgb(100.000000%,100.000000%,100.000000%);stroke: none;"></path>
  <path d="M61.264603 2.895355C61.264603 2.102661,60.949661 1.342514,60.389175 0.782043C59.828705 0.221558,59.068558 -0.093384,58.275864 -0.093384C57.483170 -0.093384,56.723022 0.221558,56.162552 0.782043C55.602066 1.342514,55.287125 2.102661,55.287125 2.895355C55.287125 3.688049,55.602066 4.448196,56.162552 5.008667C56.723022 5.569153,57.483170 5.884094,58.275864 5.884094C59.068558 5.884094,59.828705 5.569153,60.389175 5.008667C60.949661 4.448196,61.264603 3.688049,61.264603 2.895355Z" style="fill: rgb(100.000000%,100.000000%,100.000000%);stroke: none;"></path>
  <path d="M81.171951 15.867493C81.171951 15.074799,80.857010 14.314651,80.296524 13.754181C79.736053 13.193695,78.975906 12.878754,78.183212 12.878754C77.390518 12.878754,76.630371 13.193695,76.069901 13.754181C75.509415 14.314651,75.194473 15.074799,75.194473 15.867493C75.194473 16.660187,75.509415 17.420334,76.069901 17.980804C76.630371 18.541290,77.390518 18.856232,78.183212 18.856232C78.975906 18.856232,79.736053 18.541290,80.296524 17.980804C80.857010 17.420334,81.171951 16.660187,81.171951 15.867493Z" style="fill: rgb(100.000000%,100.000000%,100.000000%);stroke: none;"></path>
  <path d="M21.680801 22.684601C21.680801 21.891907,21.365860 21.131760,20.805374 20.571289C20.244904 20.010803,19.484756 19.695862,18.692062 19.695862C17.899368 19.695862,17.139221 20.010803,16.578751 20.571289C16.018265 21.131760,15.703323 21.891907,15.703323 22.684601C15.703323 23.477295,16.018265 24.237442,16.578751 24.797913C17.139221 25.358398,17.899368 25.673340,18.692062 25.673340C19.484756 25.673340,20.244904 25.358398,20.805374 24.797913C21.365860 24.237442,21.680801 23.477295,21.680801 22.684601Z" style="fill: rgb(100.000000%,100.000000%,100.000000%);stroke: none;"></path>
  <path d="M45.806442 5.917419C45.806442 5.124725,45.491501 4.364578,44.931015 3.804108C44.370544 3.243622,43.610397 2.928680,42.817703 2.928680C42.025009 2.928680,41.264862 3.243622,40.704391 3.804108C40.143906 4.364578,39.828964 5.124725,39.828964 5.917419C39.828964 6.710114,40.143906 7.470261,40.704391 8.030731C41.264862 8.591217,42.025009 8.906158,42.817703 8.906158C43.610397 8.906158,44.370544 8.591217,44.931015 8.030731C45.491501 7.470261,45.806442 6.710114,45.806442 5.917419Z" style="fill: rgb(100.000000%,100.000000%,100.000000%);stroke: none;"></path>
  <path d="M22.088730 59.492249C22.088730 58.699554,21.773788 57.939407,21.213303 57.378937C20.652832 56.818451,19.892685 56.503510,19.099991 56.503510C18.307297 56.503510,17.547150 56.818451,16.986679 57.378937C16.426193 57.939407,16.111252 58.699554,16.111252 59.492249C16.111252 60.284943,16.426193 61.045090,16.986679 61.605560C17.547150 62.166046,18.307297 62.480988,19.099991 62.480988C19.892685 62.480988,20.652832 62.166046,21.213303 61.605560C21.773788 61.045090,22.088730 60.284943,22.088730 59.492249Z" style="fill: rgb(100.000000%,100.000000%,100.000000%);stroke: none;"></path>
  <path d="M13.613495 36.680008C13.613495 35.887314,13.298553 35.127167,12.738068 34.566696C12.177597 34.006210,11.417450 33.691269,10.624756 33.691269C9.832062 33.691269,9.071915 34.006210,8.511444 34.566696C7.950958 35.127167,7.636017 35.887314,7.636017 36.680008C7.636017 37.472702,7.950958 38.232849,8.511444 38.793320C9.071915 39.353806,9.832062 39.668747,10.624756 39.668747C11.417450 39.668747,12.177597 39.353806,12.738068 38.793320C13.298553 38.232849,13.613495 37.472702,13.613495 36.680008Z" style="fill: rgb(100.000000%,100.000000%,100.000000%);stroke: none;"></path>
  <path d="M46.605347 64.997131C46.605347 64.204437,46.290405 63.444290,45.729919 62.883820C45.169449 62.323334,44.409302 62.008392,43.616608 62.008392C42.823914 62.008392,42.063766 62.323334,41.503296 62.883820C40.942810 63.444290,40.627869 64.204437,40.627869 64.997131C40.627869 65.789825,40.942810 66.549973,41.503296 67.110443C42.063766 67.670929,42.823914 67.985870,43.616608 67.985870C44.409302 67.985870,45.169449 67.670929,45.729919 67.110443C46.290405 66.549973,46.605347 65.789825,46.605347 64.997131Z" style="fill: rgb(100.000000%,100.000000%,100.000000%);stroke: none;"></path>
  <path d="M31.531876 65.280029C31.531876 64.487335,31.216934 63.727188,30.656448 63.166718C30.095978 62.606232,29.335831 62.291290,28.543137 62.291290C27.750443 62.291290,26.990295 62.606232,26.429825 63.166718C25.869339 63.727188,25.554398 64.487335,25.554398 65.280029C25.554398 66.072723,25.869339 66.832870,26.429825 67.393341C26.990295 67.953827,27.750443 68.268768,28.543137 68.268768C29.335831 68.268768,30.095978 67.953827,30.656448 67.393341C31.216934 66.832870,31.531876 66.072723,31.531876 65.280029Z" style="fill: rgb(100.000000%,100.000000%,100.000000%);stroke: none;"></path>
  <path d="M58.370483 61.242966C58.370483 60.450272,58.055542 59.690125,57.495056 59.129654C56.934586 58.569168,56.174438 58.254227,55.381744 58.254227C54.589050 58.254227,53.828903 58.569168,53.268433 59.129654C52.707947 59.690125,52.393005 60.450272,52.393005 61.242966C52.393005 62.035660,52.707947 62.795807,53.268433 63.356277C53.828903 63.916763,54.589050 64.231705,55.381744 64.231705C56.174438 64.231705,56.934586 63.916763,57.495056 63.356277C58.055542 62.795807,58.370483 62.035660,58.370483 61.242966Z" style="fill: rgb(100.000000%,100.000000%,100.000000%);stroke: none;"></path>
  <path d="M51.321381 63.483505C51.321381 62.690811,51.006439 61.930664,50.445953 61.370193C49.885483 60.809708,49.125336 60.494766,48.332642 60.494766C47.539948 60.494766,46.779800 60.809708,46.219330 61.370193C45.658844 61.930664,45.343903 62.690811,45.343903 63.483505C45.343903 64.276199,45.658844 65.036346,46.219330 65.596817C46.779800 66.157303,47.539948 66.472244,48.332642 66.472244C49.125336 66.472244,49.885483 66.157303,50.445953 65.596817C51.006439 65.036346,51.321381 64.276199,51.321381 63.483505Z" style="fill: rgb(100.000000%,100.000000%,100.000000%);stroke: none;"></path>
  <path d="M64.682404 57.671722C64.682404 56.879028,64.367462 56.118881,63.806976 55.558411C63.246506 54.997925,62.486359 54.682983,61.693665 54.682983C60.900970 54.682983,60.140823 54.997925,59.580353 55.558411C59.019867 56.118881,58.704926 56.879028,58.704926 57.671722C58.704926 58.464417,59.019867 59.224564,59.580353 59.785034C60.140823 60.345520,60.900970 60.660461,61.693665 60.660461C62.486359 60.660461,63.246506 60.345520,63.806976 59.785034C64.367462 59.224564,64.682404 58.464417,64.682404 57.671722Z" style="fill: rgb(100.000000%,100.000000%,100.000000%);stroke: none;"></path>
  <path d="M60.783875 60.476120C60.783875 59.683426,60.468933 58.923279,59.908447 58.362808C59.347977 57.802322,58.587830 57.487381,57.795135 57.487381C57.002441 57.487381,56.242294 57.802322,55.681824 58.362808C55.121338 58.923279,54.806396 59.683426,54.806396 60.476120C54.806396 61.268814,55.121338 62.028961,55.681824 62.589432C56.242294 63.149918,57.002441 63.464859,57.795135 63.464859C58.587830 63.464859,59.347977 63.149918,59.908447 62.589432C60.468933 62.028961,60.783875 61.268814,60.783875 60.476120Z" style="fill: rgb(100.000000%,100.000000%,100.000000%);stroke: none;"></path>
  <path d="M69.659607 51.738297C69.659607 50.945602,69.344666 50.185455,68.784180 49.624985C68.223709 49.064499,67.463562 48.749557,66.670868 48.749557C65.878174 48.749557,65.118027 49.064499,64.557556 49.624985C63.997070 50.185455,63.682129 50.945602,63.682129 51.738297C63.682129 52.530991,63.997070 53.291138,64.557556 53.851608C65.118027 54.412094,65.878174 54.727036,66.670868 54.727036C67.463562 54.727036,68.223709 54.412094,68.784180 53.851608C69.344666 53.291138,69.659607 52.530991,69.659607 51.738297Z" style="fill: rgb(100.000000%,100.000000%,100.000000%);stroke: none;"></path>
  <path d="M66.099075 55.830505C66.099075 55.037811,65.784134 54.277664,65.223648 53.717194C64.663177 53.156708,63.903030 52.841766,63.110336 52.841766C62.317642 52.841766,61.557495 53.156708,60.997025 53.717194C60.436539 54.277664,60.121597 55.037811,60.121597 55.830505C60.121597 56.623199,60.436539 57.383347,60.997025 57.943817C61.557495 58.504303,62.317642 58.819244,63.110336 58.819244C63.903030 58.819244,64.663177 58.504303,65.223648 57.943817C65.784134 57.383347,66.099075 56.623199,66.099075 55.830505Z" style="fill: rgb(100.000000%,100.000000%,100.000000%);stroke: none;"></path>
  <path d="M72.474136 42.876831C72.474136 42.084137,72.159195 41.323990,71.598709 40.763519C71.038239 40.203033,70.278091 39.888092,69.485397 39.888092C68.692703 39.888092,67.932556 40.203033,67.372086 40.763519C66.811600 41.323990,66.496658 42.084137,66.496658 42.876831C66.496658 43.669525,66.811600 44.429672,67.372086 44.990143C67.932556 45.550629,68.692703 45.865570,69.485397 45.865570C70.278091 45.865570,71.038239 45.550629,71.598709 44.990143C72.159195 44.429672,72.474136 43.669525,72.474136 42.876831Z" style="fill: rgb(100.000000%,100.000000%,100.000000%);stroke: none;"></path>
  <path d="M71.977859 49.359222C71.977859 48.566528,71.662918 47.806381,71.102432 47.245911C70.541962 46.685425,69.781815 46.370483,68.989120 46.370483C68.196426 46.370483,67.436279 46.685425,66.875809 47.245911C66.315323 47.806381,66.000381 48.566528,66.000381 49.359222C66.000381 50.151917,66.315323 50.912064,66.875809 51.472534C67.436279 52.033020,68.196426 52.347961,68.989120 52.347961C69.781815 52.347961,70.541962 52.033020,71.102432 51.472534C71.662918 50.912064,71.977859 50.151917,71.977859 49.359222Z" style="fill: rgb(100.000000%,100.000000%,100.000000%);stroke: none;"></path>
  <path d="M65.800644 34.856094C65.800644 34.063400,65.485703 33.303253,64.925217 32.742783C64.364746 32.182297,63.604599 31.867355,62.811905 31.867355C62.019211 31.867355,61.259064 32.182297,60.698593 32.742783C60.138107 33.303253,59.823166 34.063400,59.823166 34.856094C59.823166 35.648788,60.138107 36.408936,60.698593 36.969406C61.259064 37.529892,62.019211 37.844833,62.811905 37.844833C63.604599 37.844833,64.364746 37.529892,64.925217 36.969406C65.485703 36.408936,65.800644 35.648788,65.800644 34.856094Z" style="fill: rgb(100.000000%,100.000000%,100.000000%);stroke: none;"></path>
  <path d="M70.277054 40.030365C70.277054 39.237671,69.962112 38.477524,69.401627 37.917053C68.841156 37.356567,68.081009 37.041626,67.288315 37.041626C66.495621 37.041626,65.735474 37.356567,65.175003 37.917053C64.614517 38.477524,64.299576 39.237671,64.299576 40.030365C64.299576 40.823059,64.614517 41.583206,65.175003 42.143677C65.735474 42.704163,66.495621 43.019104,67.288315 43.019104C68.081009 43.019104,68.841156 42.704163,69.401627 42.143677C69.962112 41.583206,70.277054 40.823059,70.277054 40.030365Z" style="fill: rgb(100.000000%,100.000000%,100.000000%);stroke: none;"></path>
  <path d="M60.502182 21.300888C60.502182 20.508194,60.187241 19.748047,59.626755 19.187576C59.066284 18.627090,58.306137 18.312149,57.513443 18.312149C56.720749 18.312149,55.960602 18.627090,55.400131 19.187576C54.839645 19.748047,54.524704 20.508194,54.524704 21.300888C54.524704 22.093582,54.839645 22.853729,55.400131 23.414200C55.960602 23.974686,56.720749 24.289627,57.513443 24.289627C58.306137 24.289627,59.066284 23.974686,59.626755 23.414200C60.187241 22.853729,60.502182 22.093582,60.502182 21.300888Z" style="fill: rgb(100.000000%,100.000000%,100.000000%);stroke: none;"></path>
  <path d="M63.426224 32.199524C63.426224 31.406830,63.111282 30.646683,62.550797 30.086212C61.990326 29.525726,61.230179 29.210785,60.437485 29.210785C59.644791 29.210785,58.884644 29.525726,58.324173 30.086212C57.763687 30.646683,57.448746 31.406830,57.448746 32.199524C57.448746 32.992218,57.763687 33.752365,58.324173 34.312836C58.884644 34.873322,59.644791 35.188263,60.437485 35.188263C61.230179 35.188263,61.990326 34.873322,62.550797 34.312836C63.111282 33.752365,63.426224 32.992218,63.426224 32.199524Z" style="fill: rgb(100.000000%,100.000000%,100.000000%);stroke: none;"></path>
  <path d="M88.346024 3.869247C88.346024 3.076553,88.031082 2.316406,87.470596 1.755936C86.910126 1.195450,86.149979 0.880508,85.357285 0.880508C84.564590 0.880508,83.804443 1.195450,83.243973 1.755936C82.683487 2.316406,82.368546 3.076553,82.368546 3.869247C82.368546 4.661942,82.683487 5.422089,83.243973 5.982559C83.804443 6.543045,84.564590 6.857986,85.357285 6.857986C86.149979 6.857986,86.910126 6.543045,87.470596 5.982559C88.031082 5.422089,88.346024 4.661942,88.346024 3.869247Z" style="fill: rgb(100.000000%,100.000000%,100.000000%);stroke: none;"></path>
  <path d="M65.789658 14.048721C65.789658 13.256027,65.474716 12.495880,64.914230 11.935410C64.353760 11.374924,63.593613 11.059982,62.800919 11.059982C62.008224 11.059982,61.248077 11.374924,60.687607 11.935410C60.127121 12.495880,59.812180 13.256027,59.812180 14.048721C59.812180 14.841415,60.127121 15.601562,60.687607 16.162033C61.248077 16.722519,62.008224 17.037460,62.800919 17.037460C63.593613 17.037460,64.353760 16.722519,64.914230 16.162033C65.474716 15.601562,65.789658 14.841415,65.789658 14.048721Z" style="fill: rgb(100.000000%,100.000000%,100.000000%);stroke: none;"></path>
  <path d="M136.108124 29.281128C136.108124 28.488434,135.793182 27.728287,135.232697 27.167816C134.672226 26.607330,133.912079 26.292389,133.119385 26.292389C132.326691 26.292389,131.566544 26.607330,131.006073 27.167816C130.445587 27.728287,130.130646 28.488434,130.130646 29.281128C130.130646 30.073822,130.445587 30.833969,131.006073 31.394440C131.566544 31.954926,132.326691 32.269867,133.119385 32.269867C133.912079 32.269867,134.672226 31.954926,135.232697 31.394440C135.793182 30.833969,136.108124 30.073822,136.108124 29.281128Z" style="fill: rgb(100.000000%,100.000000%,100.000000%);stroke: none;"></path>
  <path d="M104.598236 12.343063C104.598236 11.550369,104.283295 10.790222,103.722809 10.229752C103.162338 9.669266,102.402191 9.354324,101.609497 9.354324C100.816803 9.354324,100.056656 9.669266,99.496185 10.229752C98.935699 10.790222,98.620758 11.550369,98.620758 12.343063C98.620758 13.135757,98.935699 13.895905,99.496185 14.456375C100.056656 15.016861,100.816803 15.331802,101.609497 15.331802C102.402191 15.331802,103.162338 15.016861,103.722809 14.456375C104.283295 13.895905,104.598236 13.135757,104.598236 12.343063Z" style="fill: rgb(100.000000%,100.000000%,100.000000%);stroke: none;"></path>
  <path d="M154.476898 71.974106C154.476898 71.181412,154.161957 70.421265,153.601471 69.860794C153.041000 69.300308,152.280853 68.985367,151.488159 68.985367C150.695465 68.985367,149.935318 69.300308,149.374847 69.860794C148.814362 70.421265,148.499420 71.181412,148.499420 71.974106C148.499420 72.766800,148.814362 73.526947,149.374847 74.087418C149.935318 74.647903,150.695465 74.962845,151.488159 74.962845C152.280853 74.962845,153.041000 74.647903,153.601471 74.087418C154.161957 73.526947,154.476898 72.766800,154.476898 71.974106Z" style="fill: rgb(100.000000%,100.000000%,100.000000%);stroke: none;"></path>
  <path d="M154.195755 40.071686C154.195755 39.278992,153.880814 38.518845,153.320328 37.958374C152.759857 37.397888,151.999710 37.082947,151.207016 37.082947C150.414322 37.082947,149.654175 37.397888,149.093704 37.958374C148.533218 38.518845,148.218277 39.278992,148.218277 40.071686C148.218277 40.864380,148.533218 41.624527,149.093704 42.184998C149.654175 42.745483,150.414322 43.060425,151.207016 43.060425C151.999710 43.060425,152.759857 42.745483,153.320328 42.184998C153.880814 41.624527,154.195755 40.864380,154.195755 40.071686Z" style="fill: rgb(100.000000%,100.000000%,100.000000%);stroke: none;"></path>
  <path d="M155.904221 108.954742C155.904221 108.162048,155.589279 107.401901,155.028793 106.841431C154.468323 106.280945,153.708176 105.966003,152.915482 105.966003C152.122787 105.966003,151.362640 106.280945,150.802170 106.841431C150.241684 107.401901,149.926743 108.162048,149.926743 108.954742C149.926743 109.747437,150.241684 110.507584,150.802170 111.068054C151.362640 111.628540,152.122787 111.943481,152.915482 111.943481C153.708176 111.943481,154.468323 111.628540,155.028793 111.068054C155.589279 110.507584,155.904221 109.747437,155.904221 108.954742Z" style="fill: rgb(100.000000%,100.000000%,100.000000%);stroke: none;"></path>
  <path d="M143.280594 85.148483C143.280594 84.355789,142.965652 83.595642,142.405167 83.035172C141.844696 82.474686,141.084549 82.159744,140.291855 82.159744C139.499161 82.159744,138.739014 82.474686,138.178543 83.035172C137.618057 83.595642,137.303116 84.355789,137.303116 85.148483C137.303116 85.941177,137.618057 86.701324,138.178543 87.261795C138.739014 87.822281,139.499161 88.137222,140.291855 88.137222C141.084549 88.137222,141.844696 87.822281,142.405167 87.261795C142.965652 86.701324,143.280594 85.941177,143.280594 85.148483Z" style="fill: rgb(100.000000%,100.000000%,100.000000%);stroke: none;"></path>
  <path d="M189.465668 125.626205C189.465668 124.833511,189.150726 124.073364,188.590240 123.512894C188.029770 122.952408,187.269623 122.637466,186.476929 122.637466C185.684235 122.637466,184.924088 122.952408,184.363617 123.512894C183.803131 124.073364,183.488190 124.833511,183.488190 125.626205C183.488190 126.418900,183.803131 127.179047,184.363617 127.739517C184.924088 128.300003,185.684235 128.614944,186.476929 128.614944C187.269623 128.614944,188.029770 128.300003,188.590240 127.739517C189.150726 127.179047,189.465668 126.418900,189.465668 125.626205Z" style="fill: rgb(100.000000%,100.000000%,100.000000%);stroke: none;"></path>
  <path d="M171.933044 108.418488C171.933044 107.625793,171.618103 106.865646,171.057617 106.305176C170.497147 105.744690,169.737000 105.429749,168.944305 105.429749C168.151611 105.429749,167.391464 105.744690,166.830994 106.305176C166.270508 106.865646,165.955566 107.625793,165.955566 108.418488C165.955566 109.211182,166.270508 109.971329,166.830994 110.531799C167.391464 111.092285,168.151611 111.407227,168.944305 111.407227C169.737000 111.407227,170.497147 111.092285,171.057617 110.531799C171.618103 109.971329,171.933044 109.211182,171.933044 108.418488Z" style="fill: rgb(100.000000%,100.000000%,100.000000%);stroke: none;"></path>
  <path d="M177.475616 160.697861C177.475616 159.905167,177.160675 159.145020,176.600189 158.584549C176.039719 158.024063,175.279572 157.709122,174.486877 157.709122C173.694183 157.709122,172.934036 158.024063,172.373566 158.584549C171.813080 159.145020,171.498138 159.905167,171.498138 160.697861C171.498138 161.490555,171.813080 162.250702,172.373566 162.811172C172.934036 163.371658,173.694183 163.686600,174.486877 163.686600C175.279572 163.686600,176.039719 163.371658,176.600189 162.811172C177.160675 162.250702,177.475616 161.490555,177.475616 160.697861Z" style="fill: rgb(100.000000%,100.000000%,100.000000%);stroke: none;"></path>
  <path d="M189.534225 139.088852C189.534225 138.296158,189.219284 137.536011,188.658798 136.975540C188.098328 136.415054,187.338181 136.100113,186.545486 136.100113C185.752792 136.100113,184.992645 136.415054,184.432175 136.975540C183.871689 137.536011,183.556747 138.296158,183.556747 139.088852C183.556747 139.881546,183.871689 140.641693,184.432175 141.202164C184.992645 141.762650,185.752792 142.077591,186.545486 142.077591C187.338181 142.077591,188.098328 141.762650,188.658798 141.202164C189.219284 140.641693,189.534225 139.881546,189.534225 139.088852Z" style="fill: rgb(100.000000%,100.000000%,100.000000%);stroke: none;"></path>
  <path d="M142.520859 163.627991C142.520859 162.835297,142.205917 162.075150,141.645432 161.514679C141.084961 160.954193,140.324814 160.639252,139.532120 160.639252C138.739426 160.639252,137.979279 160.954193,137.418808 161.514679C136.858322 162.075150,136.543381 162.835297,136.543381 163.627991C136.543381 164.420685,136.858322 165.180832,137.418808 165.741302C137.979279 166.301788,138.739426 166.616730,139.532120 166.616730C140.324814 166.616730,141.084961 166.301788,141.645432 165.741302C142.205917 165.180832,142.520859 164.420685,142.520859 163.627991Z" style="fill: rgb(100.000000%,100.000000%,100.000000%);stroke: none;"></path>
  <path d="M165.984589 167.778046C165.984589 166.985352,165.669647 166.225204,165.109161 165.664734C164.548691 165.104248,163.788544 164.789307,162.995850 164.789307C162.203156 164.789307,161.443008 165.104248,160.882538 165.664734C160.322052 166.225204,160.007111 166.985352,160.007111 167.778046C160.007111 168.570740,160.322052 169.330887,160.882538 169.891357C161.443008 170.451843,162.203156 170.766785,162.995850 170.766785C163.788544 170.766785,164.548691 170.451843,165.109161 169.891357C165.669647 169.330887,165.984589 168.570740,165.984589 167.778046Z" style="fill: rgb(100.000000%,100.000000%,100.000000%);stroke: none;"></path>
  <path d="M109.553482 158.056717C109.553482 157.264023,109.238541 156.503876,108.678055 155.943405C108.117584 155.382919,107.357437 155.067978,106.564743 155.067978C105.772049 155.067978,105.011902 155.382919,104.451431 155.943405C103.890945 156.503876,103.576004 157.264023,103.576004 158.056717C103.576004 158.849411,103.890945 159.609558,104.451431 160.170029C105.011902 160.730515,105.772049 161.045456,106.564743 161.045456C107.357437 161.045456,108.117584 160.730515,108.678055 160.170029C109.238541 159.609558,109.553482 158.849411,109.553482 158.056717Z" style="fill: rgb(100.000000%,100.000000%,100.000000%);stroke: none;"></path>
  <path d="M133.084030 152.966415C133.084030 152.173721,132.769089 151.413574,132.208603 150.853104C131.648132 150.292618,130.887985 149.977676,130.095291 149.977676C129.302597 149.977676,128.542450 150.292618,127.981979 150.853104C127.421494 151.413574,127.106552 152.173721,127.106552 152.966415C127.106552 153.759109,127.421494 154.519257,127.981979 155.079727C128.542450 155.640213,129.302597 155.955154,130.095291 155.955154C130.887985 155.955154,131.648132 155.640213,132.208603 155.079727C132.769089 154.519257,133.084030 153.759109,133.084030 152.966415Z" style="fill: rgb(100.000000%,100.000000%,100.000000%);stroke: none;"></path>
  <path d="M84.962769 188.319260C84.962769 187.526566,84.647827 186.766418,84.087341 186.205948C83.526871 185.645462,82.766724 185.330521,81.974030 185.330521C81.181335 185.330521,80.421188 185.645462,79.860718 186.205948C79.300232 186.766418,78.985291 187.526566,78.985291 188.319260C78.985291 189.111954,79.300232 189.872101,79.860718 190.432571C80.421188 190.993057,81.181335 191.307999,81.974030 191.307999C82.766724 191.307999,83.526871 190.993057,84.087341 190.432571C84.647827 189.872101,84.962769 189.111954,84.962769 188.319260Z" style="fill: rgb(100.000000%,100.000000%,100.000000%);stroke: none;"></path>
  <path d="M105.553452 171.910004C105.553452 171.117310,105.238510 170.357162,104.678024 169.796692C104.117554 169.236206,103.357407 168.921265,102.564713 168.921265C101.772018 168.921265,101.011871 169.236206,100.451401 169.796692C99.890915 170.357162,99.575974 171.117310,99.575974 171.910004C99.575974 172.702698,99.890915 173.462845,100.451401 174.023315C101.011871 174.583801,101.772018 174.898743,102.564713 174.898743C103.357407 174.898743,104.117554 174.583801,104.678024 174.023315C105.238510 173.462845,105.553452 172.702698,105.553452 171.910004Z" style="fill: rgb(100.000000%,100.000000%,100.000000%);stroke: none;"></path>
  <path d="M43.545456 169.509079C43.545456 168.716385,43.230515 167.956238,42.670029 167.395767C42.109558 166.835281,41.349411 166.520340,40.556717 166.520340C39.764023 166.520340,39.003876 166.835281,38.443405 167.395767C37.882919 167.956238,37.567978 168.716385,37.567978 169.509079C37.567978 170.301773,37.882919 171.061920,38.443405 171.622391C39.003876 172.182877,39.764023 172.497818,40.556717 172.497818C41.349411 172.497818,42.109558 172.182877,42.670029 171.622391C43.230515 171.061920,43.545456 170.301773,43.545456 169.509079Z" style="fill: rgb(100.000000%,100.000000%,100.000000%);stroke: none;"></path>
  <path d="M68.864395 186.606445C68.864395 185.813751,68.549454 185.053604,67.988968 184.493134C67.428497 183.932648,66.668350 183.617706,65.875656 183.617706C65.082962 183.617706,64.322815 183.932648,63.762344 184.493134C63.201859 185.053604,62.886917 185.813751,62.886917 186.606445C62.886917 187.399139,63.201859 188.159286,63.762344 188.719757C64.322815 189.280243,65.082962 189.595184,65.875656 189.595184C66.668350 189.595184,67.428497 189.280243,67.988968 188.719757C68.549454 188.159286,68.864395 187.399139,68.864395 186.606445Z" style="fill: rgb(100.000000%,100.000000%,100.000000%);stroke: none;"></path>
  <path d="M45.344925 124.868851C45.344925 124.076157,45.029984 123.316010,44.469498 122.755539C43.909027 122.195053,43.148880 121.880112,42.356186 121.880112C41.563492 121.880112,40.803345 122.195053,40.242874 122.755539C39.682388 123.316010,39.367447 124.076157,39.367447 124.868851C39.367447 125.661545,39.682388 126.421692,40.242874 126.982162C40.803345 127.542648,41.563492 127.857590,42.356186 127.857590C43.148880 127.857590,43.909027 127.542648,44.469498 126.982162C45.029984 126.421692,45.344925 125.661545,45.344925 124.868851Z" style="fill: rgb(100.000000%,100.000000%,100.000000%);stroke: none;"></path>
  <path d="M35.836334 154.236343C35.836334 153.443649,35.521393 152.683502,34.960907 152.123032C34.400436 151.562546,33.640289 151.247604,32.847595 151.247604C32.054901 151.247604,31.294754 151.562546,30.734283 152.123032C30.173798 152.683502,29.858856 153.443649,29.858856 154.236343C29.858856 155.029037,30.173798 155.789185,30.734283 156.349655C31.294754 156.910141,32.054901 157.225082,32.847595 157.225082C33.640289 157.225082,34.400436 156.910141,34.960907 156.349655C35.521393 155.789185,35.836334 155.029037,35.836334 154.236343Z" style="fill: rgb(100.000000%,100.000000%,100.000000%);stroke: none;"></path>
  <path d="M74.405991 95.875183C74.405991 95.082489,74.091049 94.322342,73.530563 93.761871C72.970093 93.201385,72.209946 92.886444,71.417252 92.886444C70.624557 92.886444,69.864410 93.201385,69.303940 93.761871C68.743454 94.322342,68.428513 95.082489,68.428513 95.875183C68.428513 96.667877,68.743454 97.428024,69.303940 97.988495C69.864410 98.548981,70.624557 98.863922,71.417252 98.863922C72.209946 98.863922,72.970093 98.548981,73.530563 97.988495C74.091049 97.428024,74.405991 96.667877,74.405991 95.875183Z" style="fill: rgb(100.000000%,100.000000%,100.000000%);stroke: none;"></path>
  <path d="M61.511032 117.728226C61.511032 116.935532,61.196091 116.175385,60.635605 115.614914C60.075134 115.054428,59.314987 114.739487,58.522293 114.739487C57.729599 114.739487,56.969452 115.054428,56.408981 115.614914C55.848495 116.175385,55.533554 116.935532,55.533554 117.728226C55.533554 118.520920,55.848495 119.281067,56.408981 119.841537C56.969452 120.402023,57.729599 120.716965,58.522293 120.716965C59.314987 120.716965,60.075134 120.402023,60.635605 119.841537C61.196091 119.281067,61.511032 118.520920,61.511032 117.728226Z" style="fill: rgb(100.000000%,100.000000%,100.000000%);stroke: none;"></path>
  <path d="M78.342712 70.876251C78.342712 70.083557,78.027771 69.323410,77.467285 68.762939C76.906815 68.202454,76.146667 67.887512,75.353973 67.887512C74.561279 67.887512,73.801132 68.202454,73.240662 68.762939C72.680176 69.323410,72.365234 70.083557,72.365234 70.876251C72.365234 71.668945,72.680176 72.429092,73.240662 72.989563C73.801132 73.550049,74.561279 73.864990,75.353973 73.864990C76.146667 73.864990,76.906815 73.550049,77.467285 72.989563C78.027771 72.429092,78.342712 71.668945,78.342712 70.876251Z" style="fill: rgb(100.000000%,100.000000%,100.000000%);stroke: none;"></path>
  <path d="M75.381378 85.664307C75.381378 84.871613,75.066437 84.111465,74.505951 83.550995C73.945480 82.990509,73.185333 82.675568,72.392639 82.675568C71.599945 82.675568,70.839798 82.990509,70.279327 83.550995C69.718842 84.111465,69.403900 84.871613,69.403900 85.664307C69.403900 86.457001,69.718842 87.217148,70.279327 87.777618C70.839798 88.338104,71.599945 88.653046,72.392639 88.653046C73.185333 88.653046,73.945480 88.338104,74.505951 87.777618C75.066437 87.217148,75.381378 86.457001,75.381378 85.664307Z" style="fill: rgb(100.000000%,100.000000%,100.000000%);stroke: none;"></path>
  <path d="M74.838394 57.779861C74.838394 56.987167,74.523453 56.227020,73.962967 55.666550C73.402496 55.106064,72.642349 54.791122,71.849655 54.791122C71.056961 54.791122,70.296814 55.106064,69.736343 55.666550C69.175858 56.227020,68.860916 56.987167,68.860916 57.779861C68.860916 58.572556,69.175858 59.332703,69.736343 59.893173C70.296814 60.453659,71.056961 60.768600,71.849655 60.768600C72.642349 60.768600,73.402496 60.453659,73.962967 59.893173C74.523453 59.332703,74.838394 58.572556,74.838394 57.779861Z" style="fill: rgb(100.000000%,100.000000%,100.000000%);stroke: none;"></path>
  <path d="M79.511536 65.551712C79.511536 64.759018,79.196594 63.998871,78.636108 63.438400C78.075638 62.877914,77.315491 62.562973,76.522797 62.562973C75.730103 62.562973,74.969955 62.877914,74.409485 63.438400C73.848999 63.998871,73.534058 64.759018,73.534058 65.551712C73.534058 66.344406,73.848999 67.104553,74.409485 67.665024C74.969955 68.225510,75.730103 68.540451,76.522797 68.540451C77.315491 68.540451,78.075638 68.225510,78.636108 67.665024C79.196594 67.104553,79.511536 66.344406,79.511536 65.551712Z" style="fill: rgb(100.000000%,100.000000%,100.000000%);stroke: none;"></path>
  <path d="M65.747681 53.012527C65.747681 52.219833,65.432739 51.459686,64.872253 50.899216C64.311783 50.338730,63.551636 50.023788,62.758942 50.023788C61.966248 50.023788,61.206100 50.338730,60.645630 50.899216C60.085144 51.459686,59.770203 52.219833,59.770203 53.012527C59.770203 53.805222,60.085144 54.565369,60.645630 55.125839C61.206100 55.686325,61.966248 56.001266,62.758942 56.001266C63.551636 56.001266,64.311783 55.686325,64.872253 55.125839C65.432739 54.565369,65.747681 53.805222,65.747681 53.012527Z" style="fill: rgb(100.000000%,100.000000%,100.000000%);stroke: none;"></path>
  <path d="M71.027863 56.097549C71.027863 55.304855,70.712921 54.544708,70.152435 53.984238C69.591965 53.423752,68.831818 53.108810,68.039124 53.108810C67.246429 53.108810,66.486282 53.423752,65.925812 53.984238C65.365326 54.544708,65.050385 55.304855,65.050385 56.097549C65.050385 56.890244,65.365326 57.650391,65.925812 58.210861C66.486282 58.771347,67.246429 59.086288,68.039124 59.086288C68.831818 59.086288,69.591965 58.771347,70.152435 58.210861C70.712921 57.650391,71.027863 56.890244,71.027863 56.097549Z" style="fill: rgb(100.000000%,100.000000%,100.000000%);stroke: none;"></path>
  <path d="M60.093597 49.901581C60.093597 49.108887,59.778656 48.348740,59.218170 47.788269C58.657700 47.227783,57.897552 46.912842,57.104858 46.912842C56.312164 46.912842,55.552017 47.227783,54.991547 47.788269C54.431061 48.348740,54.116119 49.108887,54.116119 49.901581C54.116119 50.694275,54.431061 51.454422,54.991547 52.014893C55.552017 52.575378,56.312164 52.890320,57.104858 52.890320C57.897552 52.890320,58.657700 52.575378,59.218170 52.014893C59.778656 51.454422,60.093597 50.694275,60.093597 49.901581Z" style="fill: rgb(100.000000%,100.000000%,100.000000%);stroke: none;"></path>
  <path d="M63.965286 51.792572C63.965286 50.999878,63.650345 50.239731,63.089859 49.679260C62.529388 49.118774,61.769241 48.803833,60.976547 48.803833C60.183853 48.803833,59.423706 49.118774,58.863235 49.679260C58.302750 50.239731,57.987808 50.999878,57.987808 51.792572C57.987808 52.585266,58.302750 53.345413,58.863235 53.905884C59.423706 54.466370,60.183853 54.781311,60.976547 54.781311C61.769241 54.781311,62.529388 54.466370,63.089859 53.905884C63.650345 53.345413,63.965286 52.585266,63.965286 51.792572Z" style="fill: rgb(100.000000%,100.000000%,100.000000%);stroke: none;"></path>
  <path d="M52.136536 47.294800C52.136536 46.502106,51.821594 45.741959,51.261108 45.181488C50.700638 44.621002,49.940491 44.306061,49.147797 44.306061C48.355103 44.306061,47.594955 44.621002,47.034485 45.181488C46.473999 45.741959,46.159058 46.502106,46.159058 47.294800C46.159058 48.087494,46.473999 48.847641,47.034485 49.408112C47.594955 49.968597,48.355103 50.283539,49.147797 50.283539C49.940491 50.283539,50.700638 49.968597,51.261108 49.408112C51.821594 48.847641,52.136536 48.087494,52.136536 47.294800Z" style="fill: rgb(100.000000%,100.000000%,100.000000%);stroke: none;"></path>
  <path d="M58.034531 49.245682C58.034531 48.452988,57.719589 47.692841,57.159103 47.132370C56.598633 46.571884,55.838486 46.256943,55.045792 46.256943C54.253098 46.256943,53.492950 46.571884,52.932480 47.132370C52.371994 47.692841,52.057053 48.452988,52.057053 49.245682C52.057053 50.038376,52.371994 50.798523,52.932480 51.358994C53.492950 51.919479,54.253098 52.234421,55.045792 52.234421C55.838486 52.234421,56.598633 51.919479,57.159103 51.358994C57.719589 50.798523,58.034531 50.038376,58.034531 49.245682Z" style="fill: rgb(100.000000%,100.000000%,100.000000%);stroke: none;"></path>
  <path d="M35.312927 43.243912C35.312927 42.451218,34.997986 41.691071,34.437500 41.130600C33.877029 40.570114,33.116882 40.255173,32.324188 40.255173C31.531494 40.255173,30.771347 40.570114,30.210876 41.130600C29.650391 41.691071,29.335449 42.451218,29.335449 43.243912C29.335449 44.036606,29.650391 44.796753,30.210876 45.357224C30.771347 45.917709,31.531494 46.232651,32.324188 46.232651C33.116882 46.232651,33.877029 45.917709,34.437500 45.357224C34.997986 44.796753,35.312927 44.036606,35.312927 43.243912Z" style="fill: rgb(100.000000%,100.000000%,100.000000%);stroke: none;"></path>
  <path d="M48.302292 45.936203C48.302292 45.143509,47.987350 44.383362,47.426865 43.822891C46.866394 43.262405,46.106247 42.947464,45.313553 42.947464C44.520859 42.947464,43.760712 43.262405,43.200241 43.822891C42.639755 44.383362,42.324814 45.143509,42.324814 45.936203C42.324814 46.728897,42.639755 47.489044,43.200241 48.049515C43.760712 48.610001,44.520859 48.924942,45.313553 48.924942C46.106247 48.924942,46.866394 48.610001,47.426865 48.049515C47.987350 47.489044,48.302292 46.728897,48.302292 45.936203Z" style="fill: rgb(100.000000%,100.000000%,100.000000%);stroke: none;"></path>
  <path d="M5.602753 60.507889C5.602753 59.715195,5.287811 58.955048,4.727325 58.394577C4.166855 57.834091,3.406708 57.519150,2.614014 57.519150C1.821320 57.519150,1.061172 57.834091,0.500702 58.394577C-0.059784 58.955048,-0.374725 59.715195,-0.374725 60.507889C-0.374725 61.300583,-0.059784 62.060730,0.500702 62.621201C1.061172 63.181686,1.821320 63.496628,2.614014 63.496628C3.406708 63.496628,4.166855 63.181686,4.727325 62.621201C5.287811 62.060730,5.602753 61.300583,5.602753 60.507889Z" style="fill: rgb(100.000000%,100.000000%,100.000000%);stroke: none;"></path>
  <path d="M25.699478 44.258255C25.699478 43.465561,25.384537 42.705414,24.824051 42.144943C24.263580 41.584457,23.503433 41.269516,22.710739 41.269516C21.918045 41.269516,21.157898 41.584457,20.597427 42.144943C20.036942 42.705414,19.722000 43.465561,19.722000 44.258255C19.722000 45.050949,20.036942 45.811096,20.597427 46.371567C21.157898 46.932053,21.918045 47.246994,22.710739 47.246994C23.503433 47.246994,24.263580 46.932053,24.824051 46.371567C25.384537 45.811096,25.699478 45.050949,25.699478 44.258255Z" style="fill: rgb(100.000000%,100.000000%,100.000000%);stroke: none;"></path>
  <path d="M14.805130 114.976044C14.805130 114.183350,14.490189 113.423203,13.929703 112.862732C13.369232 112.302246,12.609085 111.987305,11.816391 111.987305C11.023697 111.987305,10.263550 112.302246,9.703079 112.862732C9.142593 113.423203,8.827652 114.183350,8.827652 114.976044C8.827652 115.768738,9.142593 116.528885,9.703079 117.089355C10.263550 117.649841,11.023697 117.964783,11.816391 117.964783C12.609085 117.964783,13.369232 117.649841,13.929703 117.089355C14.490189 116.528885,14.805130 115.768738,14.805130 114.976044Z" style="fill: rgb(100.000000%,100.000000%,100.000000%);stroke: none;"></path>
  <path d="M6.921387 79.267960C6.921387 78.475266,6.606445 77.715118,6.045959 77.154648C5.485489 76.594162,4.725342 76.279221,3.932648 76.279221C3.139954 76.279221,2.379807 76.594162,1.819336 77.154648C1.258850 77.715118,0.943909 78.475266,0.943909 79.267960C0.943909 80.060654,1.258850 80.820801,1.819336 81.381271C2.379807 81.941757,3.139954 82.256699,3.932648 82.256699C4.725342 82.256699,5.485489 81.941757,6.045959 81.381271C6.606445 80.820801,6.921387 80.060654,6.921387 79.267960Z" style="fill: rgb(100.000000%,100.000000%,100.000000%);stroke: none;"></path>
  <path d="M54.725845 143.492538C54.725845 142.699844,54.410904 141.939697,53.850418 141.379227C53.289948 140.818741,52.529800 140.503799,51.737106 140.503799C50.944412 140.503799,50.184265 140.818741,49.623795 141.379227C49.063309 141.939697,48.748367 142.699844,48.748367 143.492538C48.748367 144.285233,49.063309 145.045380,49.623795 145.605850C50.184265 146.166336,50.944412 146.481277,51.737106 146.481277C52.529800 146.481277,53.289948 146.166336,53.850418 145.605850C54.410904 145.045380,54.725845 144.285233,54.725845 143.492538Z" style="fill: rgb(100.000000%,100.000000%,100.000000%);stroke: none;"></path>
  <path d="M22.364456 134.728882C22.364456 133.936188,22.049515 133.176041,21.489029 132.615570C20.928558 132.055084,20.168411 131.740143,19.375717 131.740143C18.583023 131.740143,17.822876 132.055084,17.262405 132.615570C16.701920 133.176041,16.386978 133.936188,16.386978 134.728882C16.386978 135.521576,16.701920 136.281723,17.262405 136.842194C17.822876 137.402679,18.583023 137.717621,19.375717 137.717621C20.168411 137.717621,20.928558 137.402679,21.489029 136.842194C22.049515 136.281723,22.364456 135.521576,22.364456 134.728882Z" style="fill: rgb(100.000000%,100.000000%,100.000000%);stroke: none;"></path>
  <path d="M92.152237 154.410263C92.152237 153.617569,91.837296 152.857422,91.276810 152.296951C90.716339 151.736465,89.956192 151.421524,89.163498 151.421524C88.370804 151.421524,87.610657 151.736465,87.050186 152.296951C86.489700 152.857422,86.174759 153.617569,86.174759 154.410263C86.174759 155.202957,86.489700 155.963104,87.050186 156.523575C87.610657 157.084061,88.370804 157.399002,89.163498 157.399002C89.956192 157.399002,90.716339 157.084061,91.276810 156.523575C91.837296 155.963104,92.152237 155.202957,92.152237 154.410263Z" style="fill: rgb(100.000000%,100.000000%,100.000000%);stroke: none;"></path>
  <path d="M71.778687 135.587479C71.778687 134.794785,71.463745 134.034637,70.903259 133.474167C70.342789 132.913681,69.582642 132.598740,68.789948 132.598740C67.997253 132.598740,67.237106 132.913681,66.676636 133.474167C66.116150 134.034637,65.801208 134.794785,65.801208 135.587479C65.801208 136.380173,66.116150 137.140320,66.676636 137.700790C67.237106 138.261276,67.997253 138.576218,68.789948 138.576218C69.582642 138.576218,70.342789 138.261276,70.903259 137.700790C71.463745 137.140320,71.778687 136.380173,71.778687 135.587479Z" style="fill: rgb(100.000000%,100.000000%,100.000000%);stroke: none;"></path>
  <path d="M103.550705 190.048737C103.550705 189.256042,103.235764 188.495895,102.675278 187.935425C102.114807 187.374939,101.354660 187.059998,100.561966 187.059998C99.769272 187.059998,99.009125 187.374939,98.448654 187.935425C97.888168 188.495895,97.573227 189.256042,97.573227 190.048737C97.573227 190.841431,97.888168 191.601578,98.448654 192.162048C99.009125 192.722534,99.769272 193.037476,100.561966 193.037476C101.354660 193.037476,102.114807 192.722534,102.675278 192.162048C103.235764 191.601578,103.550705 190.841431,103.550705 190.048737Z" style="fill: rgb(100.000000%,100.000000%,100.000000%);stroke: none;"></path>
  <path d="M89.556351 169.119934C89.556351 168.327240,89.241409 167.567093,88.680923 167.006622C88.120453 166.446136,87.360306 166.131195,86.567612 166.131195C85.774918 166.131195,85.014771 166.446136,84.454300 167.006622C83.893814 167.567093,83.578873 168.327240,83.578873 169.119934C83.578873 169.912628,83.893814 170.672775,84.454300 171.233246C85.014771 171.793732,85.774918 172.108673,86.567612 172.108673C87.360306 172.108673,88.120453 171.793732,88.680923 171.233246C89.241409 170.672775,89.556351 169.912628,89.556351 169.119934Z" style="fill: rgb(100.000000%,100.000000%,100.000000%);stroke: none;"></path>
  <path d="M142.675186 186.069839C142.675186 185.277145,142.360245 184.516998,141.799759 183.956528C141.239288 183.396042,140.479141 183.081100,139.686447 183.081100C138.893753 183.081100,138.133606 183.396042,137.573135 183.956528C137.012650 184.516998,136.697708 185.277145,136.697708 186.069839C136.697708 186.862534,137.012650 187.622681,137.573135 188.183151C138.133606 188.743637,138.893753 189.058578,139.686447 189.058578C140.479141 189.058578,141.239288 188.743637,141.799759 188.183151C142.360245 187.622681,142.675186 186.862534,142.675186 186.069839Z" style="fill: rgb(100.000000%,100.000000%,100.000000%);stroke: none;"></path>
  <path d="M117.780304 192.598236C117.780304 191.805542,117.465363 191.045395,116.904877 190.484924C116.344406 189.924438,115.584259 189.609497,114.791565 189.609497C113.998871 189.609497,113.238724 189.924438,112.678253 190.484924C112.117767 191.045395,111.802826 191.805542,111.802826 192.598236C111.802826 193.390930,112.117767 194.151077,112.678253 194.711548C113.238724 195.272034,113.998871 195.586975,114.791565 195.586975C115.584259 195.586975,116.344406 195.272034,116.904877 194.711548C117.465363 194.151077,117.780304 193.390930,117.780304 192.598236Z" style="fill: rgb(100.000000%,100.000000%,100.000000%);stroke: none;"></path>
  <path d="M154.579895 154.842239C154.579895 154.049545,154.264954 153.289398,153.704468 152.728928C153.143997 152.168442,152.383850 151.853500,151.591156 151.853500C150.798462 151.853500,150.038315 152.168442,149.477844 152.728928C148.917358 153.289398,148.602417 154.049545,148.602417 154.842239C148.602417 155.634933,148.917358 156.395081,149.477844 156.955551C150.038315 157.516037,150.798462 157.830978,151.591156 157.830978C152.383850 157.830978,153.143997 157.516037,153.704468 156.955551C154.264954 156.395081,154.579895 155.634933,154.579895 154.842239Z" style="fill: rgb(100.000000%,100.000000%,100.000000%);stroke: none;"></path>
  <path d="M153.225647 177.663452C153.225647 176.870758,152.910706 176.110611,152.350220 175.550140C151.789749 174.989655,151.029602 174.674713,150.236908 174.674713C149.444214 174.674713,148.684067 174.989655,148.123596 175.550140C147.563110 176.110611,147.248169 176.870758,147.248169 177.663452C147.248169 178.456146,147.563110 179.216293,148.123596 179.776764C148.684067 180.337250,149.444214 180.652191,150.236908 180.652191C151.029602 180.652191,151.789749 180.337250,152.350220 179.776764C152.910706 179.216293,153.225647 178.456146,153.225647 177.663452Z" style="fill: rgb(100.000000%,100.000000%,100.000000%);stroke: none;"></path>
  <path d="M155.842606 122.806152C155.842606 122.013458,155.527664 121.253311,154.967178 120.692841C154.406708 120.132355,153.646561 119.817413,152.853867 119.817413C152.061172 119.817413,151.301025 120.132355,150.740555 120.692841C150.180069 121.253311,149.865128 122.013458,149.865128 122.806152C149.865128 123.598846,150.180069 124.358994,150.740555 124.919464C151.301025 125.479950,152.061172 125.794891,152.853867 125.794891C153.646561 125.794891,154.406708 125.479950,154.967178 124.919464C155.527664 124.358994,155.842606 123.598846,155.842606 122.806152Z" style="fill: rgb(100.000000%,100.000000%,100.000000%);stroke: none;"></path>
  <path d="M145.908813 144.230057C145.908813 143.437363,145.593872 142.677216,145.033386 142.116745C144.472916 141.556259,143.712769 141.241318,142.920074 141.241318C142.127380 141.241318,141.367233 141.556259,140.806763 142.116745C140.246277 142.677216,139.931335 143.437363,139.931335 144.230057C139.931335 145.022751,140.246277 145.782898,140.806763 146.343369C141.367233 146.903854,142.127380 147.218796,142.920074 147.218796C143.712769 147.218796,144.472916 146.903854,145.033386 146.343369C145.593872 145.782898,145.908813 145.022751,145.908813 144.230057Z" style="fill: rgb(100.000000%,100.000000%,100.000000%);stroke: none;"></path>
  <path d="M191.769730 109.639359C191.769730 108.846664,191.454788 108.086517,190.894302 107.526047C190.333832 106.965561,189.573685 106.650620,188.780991 106.650620C187.988297 106.650620,187.228149 106.965561,186.667679 107.526047C186.107193 108.086517,185.792252 108.846664,185.792252 109.639359C185.792252 110.432053,186.107193 111.192200,186.667679 111.752670C187.228149 112.313156,187.988297 112.628098,188.780991 112.628098C189.573685 112.628098,190.333832 112.313156,190.894302 111.752670C191.454788 111.192200,191.769730 110.432053,191.769730 109.639359Z" style="fill: rgb(100.000000%,100.000000%,100.000000%);stroke: none;"></path>
  <path d="M171.125000 123.973953C171.125000 123.181259,170.810059 122.421112,170.249573 121.860641C169.689102 121.300156,168.928955 120.985214,168.136261 120.985214C167.343567 120.985214,166.583420 121.300156,166.022949 121.860641C165.462463 122.421112,165.147522 123.181259,165.147522 123.973953C165.147522 124.766647,165.462463 125.526794,166.022949 126.087265C166.583420 126.647751,167.343567 126.962692,168.136261 126.962692C168.928955 126.962692,169.689102 126.647751,170.249573 126.087265C170.810059 125.526794,171.125000 124.766647,171.125000 123.973953Z" style="fill: rgb(100.000000%,100.000000%,100.000000%);stroke: none;"></path>
  <path d="M183.483810 67.842743C183.483810 67.050049,183.168869 66.289902,182.608383 65.729431C182.047913 65.168945,181.287766 64.854004,180.495071 64.854004C179.702377 64.854004,178.942230 65.168945,178.381760 65.729431C177.821274 66.289902,177.506332 67.050049,177.506332 67.842743C177.506332 68.635437,177.821274 69.395584,178.381760 69.956055C178.942230 70.516541,179.702377 70.831482,180.495071 70.831482C181.287766 70.831482,182.047913 70.516541,182.608383 69.956055C183.168869 69.395584,183.483810 68.635437,183.483810 67.842743Z" style="fill: rgb(100.000000%,100.000000%,100.000000%);stroke: none;"></path>
  <path d="M194.140671 94.908051C194.140671 94.115356,193.825729 93.355209,193.265244 92.794739C192.704773 92.234253,191.944626 91.919312,191.151932 91.919312C190.359238 91.919312,189.599091 92.234253,189.038620 92.794739C188.478134 93.355209,188.163193 94.115356,188.163193 94.908051C188.163193 95.700745,188.478134 96.460892,189.038620 97.021362C189.599091 97.581848,190.359238 97.896790,191.151932 97.896790C191.944626 97.896790,192.704773 97.581848,193.265244 97.021362C193.825729 96.460892,194.140671 95.700745,194.140671 94.908051Z" style="fill: rgb(100.000000%,100.000000%,100.000000%);stroke: none;"></path>
  <path d="M138.343109 59.070999C138.343109 58.278305,138.028168 57.518158,137.467682 56.957687C136.907211 56.397202,136.147064 56.082260,135.354370 56.082260C134.561676 56.082260,133.801529 56.397202,133.241058 56.957687C132.680573 57.518158,132.365631 58.278305,132.365631 59.070999C132.365631 59.863693,132.680573 60.623840,133.241058 61.184311C133.801529 61.744797,134.561676 62.059738,135.354370 62.059738C136.147064 62.059738,136.907211 61.744797,137.467682 61.184311C138.028168 60.623840,138.343109 59.863693,138.343109 59.070999Z" style="fill: rgb(100.000000%,100.000000%,100.000000%);stroke: none;"></path>
  <path d="M169.751862 58.072678C169.751862 57.279984,169.436920 56.519836,168.876434 55.959366C168.315964 55.398880,167.555817 55.083939,166.763123 55.083939C165.970428 55.083939,165.210281 55.398880,164.649811 55.959366C164.089325 56.519836,163.774384 57.279984,163.774384 58.072678C163.774384 58.865372,164.089325 59.625519,164.649811 60.185989C165.210281 60.746475,165.970428 61.061417,166.763123 61.061417C167.555817 61.061417,168.315964 60.746475,168.876434 60.185989C169.436920 59.625519,169.751862 58.865372,169.751862 58.072678Z" style="fill: rgb(100.000000%,100.000000%,100.000000%);stroke: none;"></path>
  <path d="M99.202805 76.719193C99.202805 75.926498,98.887863 75.166351,98.327377 74.605881C97.766907 74.045395,97.006760 73.730453,96.214066 73.730453C95.421371 73.730453,94.661224 74.045395,94.100754 74.605881C93.540268 75.166351,93.225327 75.926498,93.225327 76.719193C93.225327 77.511887,93.540268 78.272034,94.100754 78.832504C94.661224 79.392990,95.421371 79.707932,96.214066 79.707932C97.006760 79.707932,97.766907 79.392990,98.327377 78.832504C98.887863 78.272034,99.202805 77.511887,99.202805 76.719193Z" style="fill: rgb(100.000000%,100.000000%,100.000000%);stroke: none;"></path>
  <path d="M125.372070 70.919846C125.372070 70.127151,125.057129 69.367004,124.496643 68.806534C123.936172 68.246048,123.176025 67.931107,122.383331 67.931107C121.590637 67.931107,120.830490 68.246048,120.270020 68.806534C119.709534 69.367004,119.394592 70.127151,119.394592 70.919846C119.394592 71.712540,119.709534 72.472687,120.270020 73.033157C120.830490 73.593643,121.590637 73.908585,122.383331 73.908585C123.176025 73.908585,123.936172 73.593643,124.496643 73.033157C125.057129 72.472687,125.372070 71.712540,125.372070 70.919846Z" style="fill: rgb(100.000000%,100.000000%,100.000000%);stroke: none;"></path>
  <path d="M71.551788 76.365555C71.551788 75.572861,71.236847 74.812714,70.676361 74.252243C70.115891 73.691757,69.355743 73.376816,68.563049 73.376816C67.770355 73.376816,67.010208 73.691757,66.449738 74.252243C65.889252 74.812714,65.574310 75.572861,65.574310 76.365555C65.574310 77.158249,65.889252 77.918396,66.449738 78.478867C67.010208 79.039352,67.770355 79.354294,68.563049 79.354294C69.355743 79.354294,70.115891 79.039352,70.676361 78.478867C71.236847 77.918396,71.551788 77.158249,71.551788 76.365555Z" style="fill: rgb(100.000000%,100.000000%,100.000000%);stroke: none;"></path>
  <path d="M88.179779 74.942978C88.179779 74.150284,87.864838 73.390137,87.304352 72.829666C86.743881 72.269180,85.983734 71.954239,85.191040 71.954239C84.398346 71.954239,83.638199 72.269180,83.077728 72.829666C82.517242 73.390137,82.202301 74.150284,82.202301 74.942978C82.202301 75.735672,82.517242 76.495819,83.077728 77.056290C83.638199 77.616776,84.398346 77.931717,85.191040 77.931717C85.983734 77.931717,86.743881 77.616776,87.304352 77.056290C87.864838 76.495819,88.179779 75.735672,88.179779 74.942978Z" style="fill: rgb(100.000000%,100.000000%,100.000000%);stroke: none;"></path>
  <path d="M58.798950 72.399811C56.487946 69.157928,54.543106 65.670059,53.000000 62.000000C52.067917 59.783173,51.279099 57.468277,51.341843 55.060944C51.400543 52.808777,52.203262 50.672318,53.000000 48.569000C53.963303 46.025940,54.961670 43.431091,56.879181 41.494659C59.063156 39.289139,62.083435 38.272781,65.078293 37.475800C69.160034 36.389587,73.527130 35.481033,76.273514 32.257065C81.816895 25.749710,78.183212 15.867493,70.240036 10.691513C58.275864 2.895355,42.817703 5.917419,30.843887 14.239151C18.692062 22.684601,10.624756 36.680008,15.581787 50.022522C19.099991 59.492249,28.543137 65.280029,38.713226 65.089157C43.616608 64.997131,48.332642 63.483505,53.000000 62.000000C55.381744 61.242966,57.795135 60.476120,59.827072 59.014450C61.693665 57.671722,63.110336 55.830505,64.617432 54.098373C66.670868 51.738297,68.989120 49.359222,69.228455 46.233002C69.485397 42.876831,67.288315 40.030365,65.078293 37.475800C62.811905 34.856094,60.437485 32.199524,59.537567 28.845322C57.513443 21.300888,62.800919 14.048721,70.240036 10.691513C85.357285 3.869247,101.609497 12.343063,116.381989 20.283981C133.119385 29.281128,151.207016 40.071686,151.369965 58.561951C151.488159 71.974106,140.291855 85.148483,146.849792 97.515778C152.915482 108.954742,168.944305 108.418488,177.891830 117.200211C186.476929 125.626205,186.545486 139.088852,180.541046 149.848801C174.486877 160.697861,162.995850 167.778046,150.949951 165.647476C139.532120 163.627991,130.095291 152.966415,118.433655 155.489151C106.564743 158.056717,102.564713 171.910004,93.345779 179.256805C81.974030 188.319260,65.875656 186.606445,53.549530 178.282867C40.556717 169.509079,32.847595 154.236343,37.568542 139.655609C42.356186 124.868851,58.522293 117.728226,66.325790 104.503662C71.417252 95.875183,72.392639 85.664307,74.353943 75.870132C75.353973 70.876251,76.522797 65.551712,73.900650 61.190842C71.849655 57.779861,68.039124 56.097549,64.617432 54.098373C62.758942 53.012527,60.976547 51.792572,59.041840 50.847626C57.104858 49.901581,55.045792 49.245682,53.000000 48.569000C49.147797 47.294800,45.313553 45.936203,41.339142 45.112427C32.324188 43.243912,22.710739 44.258255,15.581787 50.022522C2.614014 60.507889,3.932648 79.267960,7.638916 96.054886C11.816391 114.976044,19.375717 134.728882,37.568542 139.655609C51.737106 143.492538,68.789948 135.587479,80.023788 145.966232C89.163498 154.410263,86.567612 169.119934,93.345779 179.256805C100.561966 190.048737,114.791565 192.598236,127.678223 189.218857C139.686447 186.069839,150.236908 177.663452,150.949951 165.647476C151.591156 154.842239,142.920074 144.230057,147.632248 134.067459C152.853867 122.806152,168.136261 123.973953,177.891830 117.200211C188.780991 109.639359,191.151932 94.908051,186.166260 82.245911C180.495071 67.842743,166.763123 58.072678,151.369965 58.561951C135.354370 59.070999,122.383331 70.919846,106.852493 74.361618C96.214066 76.719193,85.191040 74.942978,74.353943 75.870132C68.563049 76.365555,62.095795 77.024628,58.798950 72.399811" style="stroke:rgb(0.000000%,0.000000%,0.000000%); stroke-width: 0.498138;stroke-linecap: round;stroke-linejoin: round;stroke-miterlimit: 10.000000;fill: none;"></path>
  <path d="M58.798950 72.399811C56.487946 69.157928,54.543106 65.670059,53.000000 62.000000" style="stroke:rgb(0.000000%,0.000000%,0.000000%); stroke-width: 1.494400;stroke-linecap: round;stroke-linejoin: round;stroke-miterlimit: 10.000000;fill: none;"></path>
  <path d="M151.369965 58.561951C135.354370 59.070999,122.383331 70.919846,106.852493 74.361618C96.214066 76.719193,85.191040 74.942978,74.353943 75.870132C68.563049 76.365555,62.095795 77.024628,58.798950 72.399811" style="stroke:rgb(0.000000%,0.000000%,0.000000%); stroke-width: 1.494400;stroke-linecap: round;stroke-linejoin: round;stroke-miterlimit: 10.000000;fill: none;"></path>
  <path d="M55.988739 62.000000C55.988739 61.207306,55.673798 60.447159,55.113312 59.886688C54.552841 59.326202,53.792694 59.011261,53.000000 59.011261C52.207306 59.011261,51.447159 59.326202,50.886688 59.886688C50.326202 60.447159,50.011261 61.207306,50.011261 62.000000C50.011261 62.792694,50.326202 63.552841,50.886688 64.113312C51.447159 64.673798,52.207306 64.988739,53.000000 64.988739C53.792694 64.988739,54.552841 64.673798,55.113312 64.113312C55.673798 63.552841,55.988739 62.792694,55.988739 62.000000Z" style="fill: rgb(100.000000%,100.000000%,100.000000%);stroke: none;"></path>
  <path d="M45.945129 64.066376C48.320480 63.491028,50.666321 62.741745,53.000000 62.000000C54.190872 61.621475,55.389664 61.240509,56.544724 60.771454" style="stroke:rgb(0.000000%,0.000000%,0.000000%); stroke-width: 0.498138;stroke-linecap: round;stroke-linejoin: round;stroke-miterlimit: 10.000000;fill: none;"></path>
  <path d="M68.067032 37.475800C68.067032 36.683105,67.752090 35.922958,67.191605 35.362488C66.631134 34.802002,65.870987 34.487061,65.078293 34.487061C64.285599 34.487061,63.525452 34.802002,62.964981 35.362488C62.404495 35.922958,62.089554 36.683105,62.089554 37.475800C62.089554 38.268494,62.404495 39.028641,62.964981 39.589111C63.525452 40.149597,64.285599 40.464539,65.078293 40.464539C65.870987 40.464539,66.631134 40.149597,67.191605 39.589111C67.752090 39.028641,68.067032 38.268494,68.067032 37.475800Z" style="fill: rgb(100.000000%,100.000000%,100.000000%);stroke: none;"></path>
  <path d="M68.078476 41.553787C67.285080 40.103333,66.183304 38.753082,65.078293 37.475800C63.945099 36.165939,62.784897 34.846863,61.795502 33.435974" style="stroke:rgb(0.000000%,0.000000%,0.000000%); stroke-width: 0.498138;stroke-linecap: round;stroke-linejoin: round;stroke-miterlimit: 10.000000;fill: none;"></path>
  <path d="M18.570526 50.022522C18.570526 49.229828,18.255585 48.469681,17.695099 47.909210C17.134628 47.348724,16.374481 47.033783,15.581787 47.033783C14.789093 47.033783,14.028946 47.348724,13.468475 47.909210C12.907990 48.469681,12.593048 49.229828,12.593048 50.022522C12.593048 50.815216,12.907990 51.575363,13.468475 52.135834C14.028946 52.696320,14.789093 53.011261,15.581787 53.011261C16.374481 53.011261,17.134628 52.696320,17.695099 52.135834C18.255585 51.575363,18.570526 50.815216,18.570526 50.022522Z" style="fill: rgb(100.000000%,100.000000%,100.000000%);stroke: none;"></path>
  <path d="M27.753204 44.705185C23.331848 45.445740,19.146255 47.140396,15.581787 50.022522C9.097900 55.265213,6.185608 62.576569,5.357574 70.675629" style="stroke:rgb(0.000000%,0.000000%,0.000000%); stroke-width: 0.498138;stroke-linecap: round;stroke-linejoin: round;stroke-miterlimit: 10.000000;fill: none;"></path>
  <path d="M67.606171 54.098373C67.606171 53.305679,67.291229 52.545532,66.730743 51.985062C66.170273 51.424576,65.410126 51.109634,64.617432 51.109634C63.824738 51.109634,63.064590 51.424576,62.504120 51.985062C61.943634 52.545532,61.628693 53.305679,61.628693 54.098373C61.628693 54.891068,61.943634 55.651215,62.504120 56.211685C63.064590 56.772171,63.824738 57.087112,64.617432 57.087112C65.410126 57.087112,66.170273 56.772171,66.730743 56.211685C67.291229 55.651215,67.606171 54.891068,67.606171 54.098373Z" style="fill: rgb(100.000000%,100.000000%,100.000000%);stroke: none;"></path>
  <path d="M69.773041 57.115173C68.136322 56.018326,66.328278 55.097961,64.617432 54.098373C63.688187 53.555450,62.777954 52.978989,61.858200 52.420151" style="stroke:rgb(0.000000%,0.000000%,0.000000%); stroke-width: 0.498138;stroke-linecap: round;stroke-linejoin: round;stroke-miterlimit: 10.000000;fill: none;"></path>
  <path d="M73.228775 10.691513C73.228775 9.898819,72.913834 9.138672,72.353348 8.578201C71.792877 8.017715,71.032730 7.702774,70.240036 7.702774C69.447342 7.702774,68.687195 8.017715,68.126724 8.578201C67.566238 9.138672,67.251297 9.898819,67.251297 10.691513C67.251297 11.484207,67.566238 12.244354,68.126724 12.804825C68.687195 13.365311,69.447342 13.680252,70.240036 13.680252C71.032730 13.680252,71.792877 13.365311,72.353348 12.804825C72.913834 12.244354,73.228775 11.484207,73.228775 10.691513Z" style="fill: rgb(100.000000%,100.000000%,100.000000%);stroke: none;"></path>
  <path d="M78.314224 20.975006C77.105835 17.044037,74.211624 13.279495,70.240036 10.691513C64.257950 6.793427,57.402359 5.599899,50.545563 6.421127" style="stroke:rgb(0.000000%,0.000000%,0.000000%); stroke-width: 0.498138;stroke-linecap: round;stroke-linejoin: round;stroke-miterlimit: 10.000000;fill: none;"></path>
  <path d="M180.880569 117.200211C180.880569 116.407516,180.565628 115.647369,180.005142 115.086899C179.444672 114.526413,178.684525 114.211472,177.891830 114.211472C177.099136 114.211472,176.338989 114.526413,175.778519 115.086899C175.218033 115.647369,174.903091 116.407516,174.903091 117.200211C174.903091 117.992905,175.218033 118.753052,175.778519 119.313522C176.338989 119.874008,177.099136 120.188950,177.891830 120.188950C178.684525 120.188950,179.444672 119.874008,180.005142 119.313522C180.565628 118.753052,180.880569 117.992905,180.880569 117.200211Z" style="fill: rgb(100.000000%,100.000000%,100.000000%);stroke: none;"></path>
  <path d="M161.061813 123.950989C166.754562 121.988571,173.014053 120.587082,177.891830 117.200211C183.336411 113.419785,186.651443 107.846741,187.982117 101.636032" style="stroke:rgb(0.000000%,0.000000%,0.000000%); stroke-width: 0.498138;stroke-linecap: round;stroke-linejoin: round;stroke-miterlimit: 10.000000;fill: none;"></path>
  <path d="M96.334518 179.256805C96.334518 178.464111,96.019577 177.703964,95.459091 177.143494C94.898621 176.583008,94.138474 176.268066,93.345779 176.268066C92.553085 176.268066,91.792938 176.583008,91.232468 177.143494C90.671982 177.703964,90.357040 178.464111,90.357040 179.256805C90.357040 180.049500,90.671982 180.809647,91.232468 181.370117C91.792938 181.930603,92.553085 182.245544,93.345779 182.245544C94.138474 182.245544,94.898621 181.930603,95.459091 181.370117C96.019577 180.809647,96.334518 180.049500,96.334518 179.256805Z" style="fill: rgb(100.000000%,100.000000%,100.000000%);stroke: none;"></path>
  <path d="M87.570374 161.976715C88.911133 167.976746,89.956696 174.188370,93.345779 179.256805C96.953873 184.652771,102.315323 187.988129,108.385590 189.552078" style="stroke:rgb(0.000000%,0.000000%,0.000000%); stroke-width: 0.498138;stroke-linecap: round;stroke-linejoin: round;stroke-miterlimit: 10.000000;fill: none;"></path>
  <path d="M77.342682 75.870132C77.342682 75.077438,77.027740 74.317291,76.467255 73.756821C75.906784 73.196335,75.146637 72.881393,74.353943 72.881393C73.561249 72.881393,72.801102 73.196335,72.240631 73.756821C71.680145 74.317291,71.365204 75.077438,71.365204 75.870132C71.365204 76.662827,71.680145 77.422974,72.240631 77.983444C72.801102 78.543930,73.561249 78.858871,74.353943 78.858871C75.146637 78.858871,75.906784 78.543930,76.467255 77.983444C77.027740 77.422974,77.342682 76.662827,77.342682 75.870132Z" style="fill: rgb(100.000000%,100.000000%,100.000000%);stroke: none;"></path>
  <path d="M90.677704 75.652283C85.237518 75.618820,79.772491 75.406555,74.353943 75.870132C71.458496 76.117844,68.393951 76.406479,65.641174 76.055069" style="stroke:rgb(0.000000%,0.000000%,0.000000%); stroke-width: 1.494400;stroke-linecap: round;stroke-linejoin: round;stroke-miterlimit: 10.000000;fill: none;"></path>
  <path d="M55.988739 48.569000C55.988739 47.776306,55.673798 47.016159,55.113312 46.455688C54.552841 45.895203,53.792694 45.580261,53.000000 45.580261C52.207306 45.580261,51.447159 45.895203,50.886688 46.455688C50.326202 47.016159,50.011261 47.776306,50.011261 48.569000C50.011261 49.361694,50.326202 50.121841,50.886688 50.682312C51.447159 51.242798,52.207306 51.557739,53.000000 51.557739C53.792694 51.557739,54.552841 51.242798,55.113312 50.682312C55.673798 50.121841,55.988739 49.361694,55.988739 48.569000Z" style="fill: rgb(100.000000%,100.000000%,100.000000%);stroke: none;"></path>
  <path d="M51.894180 51.759140C52.201782 50.680588,52.601639 49.620651,53.000000 48.569000C53.481659 47.297470,53.972076 46.012985,54.581772 44.804337" style="stroke:rgb(0.000000%,0.000000%,0.000000%); stroke-width: 0.498138;stroke-linecap: round;stroke-linejoin: round;stroke-miterlimit: 10.000000;fill: none;"></path>
  <path d="M40.557281 139.655609C40.557281 138.862915,40.242340 138.102768,39.681854 137.542297C39.121384 136.981812,38.361237 136.666870,37.568542 136.666870C36.775848 136.666870,36.015701 136.981812,35.455231 137.542297C34.894745 138.102768,34.579803 138.862915,34.579803 139.655609C34.579803 140.448303,34.894745 141.208450,35.455231 141.768921C36.015701 142.329407,36.775848 142.644348,37.568542 142.644348C38.361237 142.644348,39.121384 142.329407,39.681854 141.768921C40.242340 141.208450,40.557281 140.448303,40.557281 139.655609Z" style="fill: rgb(100.000000%,100.000000%,100.000000%);stroke: none;"></path>
  <path d="M38.916367 161.146835C35.955109 154.409332,35.208069 146.945969,37.568542 139.655609C39.962372 132.262222,45.200806 126.780380,50.816223 121.493805" style="stroke:rgb(0.000000%,0.000000%,0.000000%); stroke-width: 0.498138;stroke-linecap: round;stroke-linejoin: round;stroke-miterlimit: 10.000000;fill: none;"></path>
  <path d="M153.938690 165.647476C153.938690 164.854782,153.623749 164.094635,153.063263 163.534164C152.502792 162.973679,151.742645 162.658737,150.949951 162.658737C150.157257 162.658737,149.397110 162.973679,148.836639 163.534164C148.276154 164.094635,147.961212 164.854782,147.961212 165.647476C147.961212 166.440170,148.276154 167.200317,148.836639 167.760788C149.397110 168.321274,150.157257 168.636215,150.949951 168.636215C151.742645 168.636215,152.502792 168.321274,153.063263 167.760788C153.623749 167.200317,153.938690 166.440170,153.938690 165.647476Z" style="fill: rgb(100.000000%,100.000000%,100.000000%);stroke: none;"></path>
  <path d="M167.992386 162.615509C162.857132 165.475357,156.972900 166.712753,150.949951 165.647476C145.241028 164.637726,140.027359 161.467453,134.783218 158.864960" style="stroke:rgb(0.000000%,0.000000%,0.000000%); stroke-width: 0.498138;stroke-linecap: round;stroke-linejoin: round;stroke-miterlimit: 10.000000;fill: none;"></path>
  <path d="M154.358704 58.561951C154.358704 57.769257,154.043762 57.009109,153.483276 56.448639C152.922806 55.888153,152.162659 55.573212,151.369965 55.573212C150.577271 55.573212,149.817123 55.888153,149.256653 56.448639C148.696167 57.009109,148.381226 57.769257,148.381226 58.561951C148.381226 59.354645,148.696167 60.114792,149.256653 60.675262C149.817123 61.235748,150.577271 61.550690,151.369965 61.550690C152.162659 61.550690,152.922806 61.235748,153.483276 60.675262C154.043762 60.114792,154.358704 59.354645,154.358704 58.561951Z" style="fill: rgb(100.000000%,100.000000%,100.000000%);stroke: none;"></path>
  <path d="M140.091415 35.863052C146.725861 41.996613,151.288498 49.316818,151.369965 58.561951C151.429062 65.268036,148.659531 71.914673,146.694962 78.430695" style="stroke:rgb(0.000000%,0.000000%,0.000000%); stroke-width: 0.498138;stroke-linecap: round;stroke-linejoin: round;stroke-miterlimit: 10.000000;fill: none;"></path>
  <path d="M58.798950 72.399811C56.950134 69.806290,55.335678 67.055359,53.973770 64.179626" style="stroke:rgb(0.000000%,0.000000%,0.000000%); stroke-width: 0.498138;stroke-linecap: round;stroke-linejoin: round;stroke-miterlimit: 10.000000;fill: none;"></path>
  <path d="M57.831879 67.360062C56.497665 66.360382,55.210220 65.299118,53.973770 64.179626C54.056442 65.845535,54.216354 67.506317,54.452881 69.156631Z" style="stroke:rgb(0.000000%,0.000000%,0.000000%); stroke-width: 0.498138;fill: rgb(0.000000%,0.000000%,0.000000%);"></path>
  <path d="M58.798950 72.399811C56.950134 69.806290,55.335678 67.055359,53.973770 64.179626" style="stroke:rgb(0.000000%,0.000000%,0.000000%); stroke-width: 0.498138;stroke-linecap: round;stroke-linejoin: round;stroke-miterlimit: 10.000000;fill: none;"></path>
  <path d="M56.252823 66.130524C55.475403 65.501663,54.715408 64.851120,53.973770 64.179626C54.023361 65.178848,54.100739 66.176254,54.205765 67.170654Z" style="stroke:rgb(0.000000%,0.000000%,0.000000%); stroke-width: 0.498138;fill: rgb(0.000000%,0.000000%,0.000000%);"></path>
  <path d="M51.341843 55.060944C51.388809 53.259201,51.911942 51.531525,52.527252 49.835602" style="stroke:rgb(0.000000%,0.000000%,0.000000%); stroke-width: 0.498138;stroke-linecap: round;stroke-linejoin: round;stroke-miterlimit: 10.000000;fill: none;"></path>
  <path d="M52.816269 52.821655C52.647110 51.840546,52.572098 50.838989,52.527252 49.835602C51.849442 50.576813,51.194260 51.338043,50.620132 52.151398Z" style="stroke:rgb(0.000000%,0.000000%,0.000000%); stroke-width: 0.498138;fill: rgb(0.000000%,0.000000%,0.000000%);"></path>
  <path d="M76.273514 32.257065C80.708237 27.051163,79.269592 19.685333,74.449814 14.297134" style="stroke:rgb(0.000000%,0.000000%,0.000000%); stroke-width: 0.498138;stroke-linecap: round;stroke-linejoin: round;stroke-miterlimit: 10.000000;fill: none;"></path>
  <path d="M77.048096 15.796997C76.236069 15.240585,75.366364 14.737976,74.449814 14.297134C74.786163 15.256958,75.045731 16.227341,75.226471 17.194977Z" style="stroke:rgb(0.000000%,0.000000%,0.000000%); stroke-width: 0.498138;fill: rgb(0.000000%,0.000000%,0.000000%);"></path>
  <path d="M59.827072 59.014450C61.320358 57.940262,62.525681 56.547043,63.719711 55.145859" style="stroke:rgb(0.000000%,0.000000%,0.000000%); stroke-width: 0.498138;stroke-linecap: round;stroke-linejoin: round;stroke-miterlimit: 10.000000;fill: none;"></path>
  <path d="M62.721222 57.974854C63.098358 57.052277,63.411041 56.099533,63.719711 55.145859C62.827087 55.601913,61.932281 56.054504,61.013245 56.440155Z" style="stroke:rgb(0.000000%,0.000000%,0.000000%); stroke-width: 0.498138;fill: rgb(0.000000%,0.000000%,0.000000%);"></path>
  <path d="M69.228455 46.233002C69.434006 43.548050,68.068970 41.189331,66.383209 39.045288" style="stroke:rgb(0.000000%,0.000000%,0.000000%); stroke-width: 0.498138;stroke-linecap: round;stroke-linejoin: round;stroke-miterlimit: 10.000000;fill: none;"></path>
  <path d="M68.887787 40.696701C68.120483 40.082047,67.266632 39.541504,66.383209 39.045288C66.656982 40.020844,66.878510 41.006821,66.986420 41.984024Z" style="stroke:rgb(0.000000%,0.000000%,0.000000%); stroke-width: 0.498138;fill: rgb(0.000000%,0.000000%,0.000000%);"></path>
  <path d="M146.849792 97.515778C151.702362 106.666977,162.931381 108.153992,171.810013 112.879044" style="stroke:rgb(0.000000%,0.000000%,0.000000%); stroke-width: 0.498138;stroke-linecap: round;stroke-linejoin: round;stroke-miterlimit: 10.000000;fill: none;"></path>
  <path d="M168.815933 112.693146C169.820572 112.725693,170.819855 112.783340,171.810013 112.879044C171.177551 112.111221,170.511734 111.363846,169.824356 110.630432Z" style="stroke:rgb(0.000000%,0.000000%,0.000000%); stroke-width: 0.498138;fill: rgb(0.000000%,0.000000%,0.000000%);"></path>
  <path d="M180.541046 149.848801C175.697693 158.528076,167.374725 164.795258,158.071747 165.864075" style="stroke:rgb(0.000000%,0.000000%,0.000000%); stroke-width: 0.498138;stroke-linecap: round;stroke-linejoin: round;stroke-miterlimit: 10.000000;fill: none;"></path>
  <path d="M160.602814 164.253387C159.793396 164.838257,158.949203 165.376617,158.071747 165.864075C159.036880 166.139862,160.014496 166.356140,161.000397 166.514923Z" style="stroke:rgb(0.000000%,0.000000%,0.000000%); stroke-width: 0.498138;fill: rgb(0.000000%,0.000000%,0.000000%);"></path>
  <path d="M53.549530 178.282867C43.155243 171.263809,36.142532 160.085403,36.170410 148.429443" style="stroke:rgb(0.000000%,0.000000%,0.000000%); stroke-width: 0.498138;stroke-linecap: round;stroke-linejoin: round;stroke-miterlimit: 10.000000;fill: none;"></path>
  <path d="M37.452820 151.141479C36.980560 150.261566,36.552078 149.357101,36.170410 148.429443C35.784317 149.355270,35.447754 150.297791,35.159454 151.253937Z" style="stroke:rgb(0.000000%,0.000000%,0.000000%); stroke-width: 0.498138;fill: rgb(0.000000%,0.000000%,0.000000%);"></path>
  <path d="M59.041840 50.847626C57.492249 50.090790,55.864517 49.519638,54.227966 48.974991" style="stroke:rgb(0.000000%,0.000000%,0.000000%); stroke-width: 0.498138;stroke-linecap: round;stroke-linejoin: round;stroke-miterlimit: 10.000000;fill: none;"></path>
  <path d="M57.224121 48.822739C56.225159 48.841492,55.226212 48.903549,54.227966 48.974991C54.984329 49.630356,55.734558 50.292847,56.454193 50.985977Z" style="stroke:rgb(0.000000%,0.000000%,0.000000%); stroke-width: 0.498138;fill: rgb(0.000000%,0.000000%,0.000000%);"></path>
  <path d="M41.339142 45.112427C34.127151 43.617615,26.532120 43.967834,20.132553 47.119049" style="stroke:rgb(0.000000%,0.000000%,0.000000%); stroke-width: 0.498138;stroke-linecap: round;stroke-linejoin: round;stroke-miterlimit: 10.000000;fill: none;"></path>
  <path d="M22.240662 44.984543C21.498352 45.654495,20.793961 46.365723,20.132553 47.119049C21.132919 47.054077,22.133911 47.049271,23.132538 47.100449Z" style="stroke:rgb(0.000000%,0.000000%,0.000000%); stroke-width: 0.498138;fill: rgb(0.000000%,0.000000%,0.000000%);"></path>
  <path d="M127.678223 189.218857C137.284836 186.699631,145.958481 180.815674,149.408707 172.410629" style="stroke:rgb(0.000000%,0.000000%,0.000000%); stroke-width: 0.498138;stroke-linecap: round;stroke-linejoin: round;stroke-miterlimit: 10.000000;fill: none;"></path>
  <path d="M149.211533 175.403976C149.344543 174.412369,149.411896 173.413513,149.408707 172.410629C148.701813 173.122009,147.947876 173.780685,147.152634 174.387772Z" style="stroke:rgb(0.000000%,0.000000%,0.000000%); stroke-width: 0.498138;fill: rgb(0.000000%,0.000000%,0.000000%);"></path>
  <path d="M147.632248 134.067459C151.809555 125.058380,162.425812 124.003998,171.500076 120.474396" style="stroke:rgb(0.000000%,0.000000%,0.000000%); stroke-width: 0.498138;stroke-linecap: round;stroke-linejoin: round;stroke-miterlimit: 10.000000;fill: none;"></path>
  <path d="M169.280899 122.493423C170.037308 121.833466,170.781082 121.162796,171.500076 120.474396C170.504898 120.452744,169.504745 120.401031,168.503220 120.332809Z" style="stroke:rgb(0.000000%,0.000000%,0.000000%); stroke-width: 0.498138;fill: rgb(0.000000%,0.000000%,0.000000%);"></path>
  <path d="M103.861847 77.071823L109.843140 77.071823L109.843140 69.651428L103.861847 69.651428Z" style="fill: rgb(100.000000%,100.000000%,100.000000%);stroke: none;"></path>
  <path d="M103.861847 79.071823L109.843140 79.071823L109.843140 71.651428L103.861847 71.651428Z" style="fill: rgb(100.000000%,100.000000%,100.000000%);stroke: none;"></path>
  <g transform="translate(104.361847 77.571823)" style="fill: rgb(0.000000%,0.000000%,0.000000%);">
    <use xlink:href="#GLYPHcmr10_49"></use>
  </g>
  <path d="M53.888535 44.204865L59.869827 44.204865L59.869827 36.784470L53.888535 36.784470Z" style="fill: rgb(100.000000%,100.000000%,100.000000%);stroke: none;"></path>
  <path d="M53.888535 46.204865L59.869827 46.204865L59.869827 38.784470L53.888535 38.784470Z" style="fill: rgb(100.000000%,100.000000%,100.000000%);stroke: none;"></path>
  <g transform="translate(54.388535 44.704865)" style="fill: rgb(0.000000%,0.000000%,0.000000%);">
    <use xlink:href="#GLYPHcmr10_50"></use>
  </g>
  <path d="M27.853241 16.949356L33.834534 16.949356L33.834534 9.528961L27.853241 9.528961Z" style="fill: rgb(100.000000%,100.000000%,100.000000%);stroke: none;"></path>
  <path d="M27.853241 18.949356L33.834534 18.949356L33.834534 11.528961L27.853241 11.528961Z" style="fill: rgb(100.000000%,100.000000%,100.000000%);stroke: none;"></path>
  <g transform="translate(28.353241 17.449356)" style="fill: rgb(0.000000%,0.000000%,0.000000%);">
    <use xlink:href="#GLYPHcmr10_51"></use>
  </g>
  <path d="M35.722580 67.799362L41.703873 67.799362L41.703873 60.378967L35.722580 60.378967Z" style="fill: rgb(100.000000%,100.000000%,100.000000%);stroke: none;"></path>
  <path d="M35.722580 69.799362L41.703873 69.799362L41.703873 62.378967L35.722580 62.378967Z" style="fill: rgb(100.000000%,100.000000%,100.000000%);stroke: none;"></path>
  <g transform="translate(36.222580 68.299362)" style="fill: rgb(0.000000%,0.000000%,0.000000%);">
    <use xlink:href="#GLYPHcmr10_52"></use>
  </g>
  <path d="M56.546921 31.555527L62.528214 31.555527L62.528214 24.135132L56.546921 24.135132Z" style="fill: rgb(100.000000%,100.000000%,100.000000%);stroke: none;"></path>
  <path d="M56.546921 33.555527L62.528214 33.555527L62.528214 26.135132L56.546921 26.135132Z" style="fill: rgb(100.000000%,100.000000%,100.000000%);stroke: none;"></path>
  <g transform="translate(57.046921 32.055527)" style="fill: rgb(0.000000%,0.000000%,0.000000%);">
    <use xlink:href="#GLYPHcmr10_53"></use>
  </g>
  <path d="M113.391342 22.994186L119.372635 22.994186L119.372635 15.573792L113.391342 15.573792Z" style="fill: rgb(100.000000%,100.000000%,100.000000%);stroke: none;"></path>
  <path d="M113.391342 24.994186L119.372635 24.994186L119.372635 17.573792L113.391342 17.573792Z" style="fill: rgb(100.000000%,100.000000%,100.000000%);stroke: none;"></path>
  <g transform="translate(113.891342 23.494186)" style="fill: rgb(0.000000%,0.000000%,0.000000%);">
    <use xlink:href="#GLYPHcmr10_54"></use>
  </g>
  <path d="M115.443008 158.199356L121.424301 158.199356L121.424301 150.778961L115.443008 150.778961Z" style="fill: rgb(100.000000%,100.000000%,100.000000%);stroke: none;"></path>
  <path d="M115.443008 160.199356L121.424301 160.199356L121.424301 152.778961L115.443008 152.778961Z" style="fill: rgb(100.000000%,100.000000%,100.000000%);stroke: none;"></path>
  <g transform="translate(115.943008 158.699356)" style="fill: rgb(0.000000%,0.000000%,0.000000%);">
    <use xlink:href="#GLYPHcmr10_55"></use>
  </g>
  <path d="M63.335144 107.213867L69.316437 107.213867L69.316437 99.793472L63.335144 99.793472Z" style="fill: rgb(100.000000%,100.000000%,100.000000%);stroke: none;"></path>
  <path d="M63.335144 109.213867L69.316437 109.213867L69.316437 101.793472L63.335144 101.793472Z" style="fill: rgb(100.000000%,100.000000%,100.000000%);stroke: none;"></path>
  <g transform="translate(63.835144 107.713867)" style="fill: rgb(0.000000%,0.000000%,0.000000%);">
    <use xlink:href="#GLYPHcmr10_56"></use>
  </g>
  <path d="M70.910004 63.901047L76.891296 63.901047L76.891296 56.480652L70.910004 56.480652Z" style="fill: rgb(100.000000%,100.000000%,100.000000%);stroke: none;"></path>
  <path d="M70.910004 65.901047L76.891296 65.901047L76.891296 58.480652L70.910004 58.480652Z" style="fill: rgb(100.000000%,100.000000%,100.000000%);stroke: none;"></path>
  <g transform="translate(71.410004 64.401047)" style="fill: rgb(0.000000%,0.000000%,0.000000%);">
    <use xlink:href="#GLYPHcmr10_57"></use>
  </g>
  <path d="M2.157562 98.765091L13.120270 98.765091L13.120270 91.344696L2.157562 91.344696Z" style="fill: rgb(100.000000%,100.000000%,100.000000%);stroke: none;"></path>
  <path d="M2.157562 100.765091L13.120270 100.765091L13.120270 93.344696L2.157562 93.344696Z" style="fill: rgb(100.000000%,100.000000%,100.000000%);stroke: none;"></path>
  <g transform="translate(2.657562 99.265091)" style="fill: rgb(0.000000%,0.000000%,0.000000%);">
    <use xlink:href="#GLYPHcmr10_49"></use>
    <use xlink:href="#GLYPHcmr10_48" x="5.000095"></use>
  </g>
  <path d="M74.542435 148.676437L85.505142 148.676437L85.505142 141.256042L74.542435 141.256042Z" style="fill: rgb(100.000000%,100.000000%,100.000000%);stroke: none;"></path>
  <path d="M74.542435 150.676437L85.505142 150.676437L85.505142 143.256042L74.542435 143.256042Z" style="fill: rgb(100.000000%,100.000000%,100.000000%);stroke: none;"></path>
  <g transform="translate(75.042435 149.176437)" style="fill: rgb(0.000000%,0.000000%,0.000000%);">
    <use xlink:href="#GLYPHcmr10_49"></use>
    <use xlink:href="#GLYPHcmr10_49" x="5.000095"></use>
  </g>
  <path d="M180.684906 84.956116L191.647614 84.956116L191.647614 77.535721L180.684906 77.535721Z" style="fill: rgb(100.000000%,100.000000%,100.000000%);stroke: none;"></path>
  <path d="M180.684906 86.956116L191.647614 86.956116L191.647614 79.535721L180.684906 79.535721Z" style="fill: rgb(100.000000%,100.000000%,100.000000%);stroke: none;"></path>
  <g transform="translate(181.184906 85.456116)" style="fill: rgb(0.000000%,0.000000%,0.000000%);">
    <use xlink:href="#GLYPHcmr10_49"></use>
    <use xlink:href="#GLYPHcmr10_50" x="5.000095"></use>
  </g>
</svg>
