<?xml version="1.0"?>
<!-- Created by MetaPost 1.999 on 2021.07.06:0001 -->
<svg version="1.1" xmlns="http://www.w3.org/2000/svg" xmlns:xlink="http://www.w3.org/1999/xlink" width="194.666946" height="203.445465" viewBox="0 0 194.666946 203.445465">
<!-- Original BoundingBox: -78.450623 -150.440308 116.216324 53.005157 -->
  <defs>
    <g transform="scale(0.009963,0.009963)" id="GLYPHcmr10_48">
      <path style="fill-rule: evenodd;" d="M460.000000 -320.000000C460.000000 -400.000000,455.000000 -480.000000,420.000000 -554.000000C374.000000 -650.000000,292.000000 -666.000000,250.000000 -666.000000C190.000000 -666.000000,117.000000 -640.000000,76.000000 -547.000000C44.000000 -478.000000,39.000000 -400.000000,39.000000 -320.000000C39.000000 -245.000000,43.000000 -155.000000,84.000000 -79.000000C127.000000 2.000000,200.000000 22.000000,249.000000 22.000000C303.000000 22.000000,379.000000 1.000000,423.000000 -94.000000C455.000000 -163.000000,460.000000 -241.000000,460.000000 -320.000000M249.000000 -0.000000C210.000000 -0.000000,151.000000 -25.000000,133.000000 -121.000000C122.000000 -181.000000,122.000000 -273.000000,122.000000 -332.000000C122.000000 -396.000000,122.000000 -462.000000,130.000000 -516.000000C149.000000 -635.000000,224.000000 -644.000000,249.000000 -644.000000C282.000000 -644.000000,348.000000 -626.000000,367.000000 -527.000000C377.000000 -471.000000,377.000000 -395.000000,377.000000 -332.000000C377.000000 -257.000000,377.000000 -189.000000,366.000000 -125.000000C351.000000 -30.000000,294.000000 -0.000000,249.000000 -0.000000"></path>
    </g>
    <g transform="scale(0.009963,0.009963)" id="GLYPHcmr10_49">
      <path style="fill-rule: evenodd;" d="M294.000000 -640.000000C294.000000 -664.000000,294.000000 -666.000000,271.000000 -666.000000C209.000000 -602.000000,121.000000 -602.000000,89.000000 -602.000000L89.000000 -571.000000C109.000000 -571.000000,168.000000 -571.000000,220.000000 -597.000000L220.000000 -79.000000C220.000000 -43.000000,217.000000 -31.000000,127.000000 -31.000000L95.000000 -31.000000L95.000000 -0.000000L257.000000 -0.000000L130.000000 -3.000000L217.000000 -3.000000L257.000000 -3.000000L297.000000 -3.000000L384.000000 -3.000000L419.000000 -0.000000L419.000000 -31.000000L387.000000 -31.000000C297.000000 -31.000000,294.000000 -42.000000,294.000000 -79.000000"></path>
    </g>
    <g transform="scale(0.009963,0.009963)" id="GLYPHcmr10_50">
      <path style="fill-rule: evenodd;" d="M127.000000 -77.000000L233.000000 -180.000000C389.000000 -318.000000,449.000000 -372.000000,449.000000 -472.000000C449.000000 -586.000000,359.000000 -666.000000,237.000000 -666.000000C124.000000 -666.000000,50.000000 -574.000000,50.000000 -485.000000C50.000000 -429.000000,100.000000 -429.000000,103.000000 -429.000000C120.000000 -429.000000,155.000000 -441.000000,155.000000 -482.000000C155.000000 -508.000000,137.000000 -534.000000,102.000000 -534.000000C94.000000 -534.000000,92.000000 -534.000000,89.000000 -533.000000C112.000000 -598.000000,166.000000 -635.000000,224.000000 -635.000000C315.000000 -635.000000,358.000000 -554.000000,358.000000 -472.000000C358.000000 -392.000000,308.000000 -313.000000,253.000000 -251.000000L61.000000 -37.000000C50.000000 -26.000000,50.000000 -24.000000,50.000000 -0.000000L421.000000 -0.000000L449.000000 -174.000000L424.000000 -174.000000C419.000000 -144.000000,412.000000 -100.000000,402.000000 -85.000000C395.000000 -77.000000,329.000000 -77.000000,307.000000 -77.000000"></path>
    </g>
    <g transform="scale(0.009963,0.009963)" id="GLYPHcmr10_51">
      <path style="fill-rule: evenodd;" d="M290.000000 -352.000000C372.000000 -379.000000,430.000000 -449.000000,430.000000 -528.000000C430.000000 -610.000000,342.000000 -666.000000,246.000000 -666.000000C145.000000 -666.000000,69.000000 -606.000000,69.000000 -530.000000C69.000000 -497.000000,91.000000 -478.000000,120.000000 -478.000000C151.000000 -478.000000,171.000000 -500.000000,171.000000 -529.000000C171.000000 -579.000000,124.000000 -579.000000,109.000000 -579.000000C140.000000 -628.000000,206.000000 -641.000000,242.000000 -641.000000C283.000000 -641.000000,338.000000 -619.000000,338.000000 -529.000000C338.000000 -517.000000,336.000000 -459.000000,310.000000 -415.000000C280.000000 -367.000000,246.000000 -364.000000,221.000000 -363.000000C213.000000 -362.000000,189.000000 -360.000000,182.000000 -360.000000C174.000000 -359.000000,167.000000 -358.000000,167.000000 -348.000000C167.000000 -337.000000,174.000000 -337.000000,191.000000 -337.000000L235.000000 -337.000000C317.000000 -337.000000,354.000000 -269.000000,354.000000 -171.000000C354.000000 -35.000000,285.000000 -6.000000,241.000000 -6.000000C198.000000 -6.000000,123.000000 -23.000000,88.000000 -82.000000C123.000000 -77.000000,154.000000 -99.000000,154.000000 -137.000000C154.000000 -173.000000,127.000000 -193.000000,98.000000 -193.000000C74.000000 -193.000000,42.000000 -179.000000,42.000000 -135.000000C42.000000 -44.000000,135.000000 22.000000,244.000000 22.000000C366.000000 22.000000,457.000000 -69.000000,457.000000 -171.000000C457.000000 -253.000000,394.000000 -331.000000,290.000000 -352.000000"></path>
    </g>
    <g transform="scale(0.009963,0.009963)" id="GLYPHcmr10_52">
      <path style="fill-rule: evenodd;" d="M294.000000 -165.000000L294.000000 -78.000000C294.000000 -42.000000,292.000000 -31.000000,218.000000 -31.000000L197.000000 -31.000000L197.000000 -0.000000L332.000000 -0.000000L238.000000 -3.000000L290.000000 -3.000000L332.000000 -3.000000L374.000000 -3.000000L427.000000 -3.000000L468.000000 -0.000000L468.000000 -31.000000L447.000000 -31.000000C373.000000 -31.000000,371.000000 -42.000000,371.000000 -78.000000L371.000000 -165.000000L471.000000 -165.000000L471.000000 -196.000000L371.000000 -196.000000L371.000000 -651.000000C371.000000 -671.000000,371.000000 -677.000000,355.000000 -677.000000C346.000000 -677.000000,343.000000 -677.000000,335.000000 -665.000000L28.000000 -196.000000L28.000000 -165.000000M300.000000 -196.000000L56.000000 -196.000000L300.000000 -569.000000"></path>
    </g>
    <g transform="scale(0.009963,0.009963)" id="GLYPHcmr10_53">
      <path style="fill-rule: evenodd;" d="M449.000000 -201.000000C449.000000 -320.000000,367.000000 -420.000000,259.000000 -420.000000C211.000000 -420.000000,168.000000 -404.000000,132.000000 -369.000000L132.000000 -564.000000C152.000000 -558.000000,185.000000 -551.000000,217.000000 -551.000000C340.000000 -551.000000,410.000000 -642.000000,410.000000 -655.000000C410.000000 -661.000000,407.000000 -666.000000,400.000000 -666.000000C399.000000 -666.000000,397.000000 -666.000000,392.000000 -663.000000C372.000000 -654.000000,323.000000 -634.000000,256.000000 -634.000000C216.000000 -634.000000,170.000000 -641.000000,123.000000 -662.000000C115.000000 -665.000000,113.000000 -665.000000,111.000000 -665.000000C101.000000 -665.000000,101.000000 -657.000000,101.000000 -641.000000L101.000000 -345.000000C101.000000 -327.000000,101.000000 -319.000000,115.000000 -319.000000C122.000000 -319.000000,124.000000 -322.000000,128.000000 -328.000000C139.000000 -344.000000,176.000000 -398.000000,257.000000 -398.000000C309.000000 -398.000000,334.000000 -352.000000,342.000000 -334.000000C358.000000 -297.000000,360.000000 -258.000000,360.000000 -208.000000C360.000000 -173.000000,360.000000 -113.000000,336.000000 -71.000000C312.000000 -32.000000,275.000000 -6.000000,229.000000 -6.000000C156.000000 -6.000000,99.000000 -59.000000,82.000000 -118.000000C85.000000 -117.000000,88.000000 -116.000000,99.000000 -116.000000C132.000000 -116.000000,149.000000 -141.000000,149.000000 -165.000000C149.000000 -189.000000,132.000000 -214.000000,99.000000 -214.000000C85.000000 -214.000000,50.000000 -207.000000,50.000000 -161.000000C50.000000 -75.000000,119.000000 22.000000,231.000000 22.000000C347.000000 22.000000,449.000000 -74.000000,449.000000 -201.000000"></path>
    </g>
    <g transform="scale(0.009963,0.009963)" id="GLYPHcmr10_54">
      <path style="fill-rule: evenodd;" d="M132.000000 -328.000000L132.000000 -352.000000C132.000000 -605.000000,256.000000 -641.000000,307.000000 -641.000000C331.000000 -641.000000,373.000000 -635.000000,395.000000 -601.000000C380.000000 -601.000000,340.000000 -601.000000,340.000000 -556.000000C340.000000 -525.000000,364.000000 -510.000000,386.000000 -510.000000C402.000000 -510.000000,432.000000 -519.000000,432.000000 -558.000000C432.000000 -618.000000,388.000000 -666.000000,305.000000 -666.000000C177.000000 -666.000000,42.000000 -537.000000,42.000000 -316.000000C42.000000 -49.000000,158.000000 22.000000,251.000000 22.000000C362.000000 22.000000,457.000000 -72.000000,457.000000 -204.000000C457.000000 -331.000000,368.000000 -427.000000,257.000000 -427.000000C189.000000 -427.000000,152.000000 -376.000000,132.000000 -328.000000M251.000000 -6.000000C188.000000 -6.000000,158.000000 -66.000000,152.000000 -81.000000C134.000000 -128.000000,134.000000 -208.000000,134.000000 -226.000000C134.000000 -304.000000,166.000000 -404.000000,256.000000 -404.000000C272.000000 -404.000000,318.000000 -404.000000,349.000000 -342.000000C367.000000 -305.000000,367.000000 -254.000000,367.000000 -205.000000C367.000000 -157.000000,367.000000 -107.000000,350.000000 -71.000000C320.000000 -11.000000,274.000000 -6.000000,251.000000 -6.000000"></path>
    </g>
    <g transform="scale(0.009963,0.009963)" id="GLYPHcmr10_55">
      <path style="fill-rule: evenodd;" d="M476.000000 -609.000000C485.000000 -621.000000,485.000000 -623.000000,485.000000 -644.000000L242.000000 -644.000000C120.000000 -644.000000,118.000000 -657.000000,114.000000 -676.000000L89.000000 -676.000000L56.000000 -470.000000L81.000000 -470.000000C84.000000 -486.000000,93.000000 -549.000000,106.000000 -561.000000C113.000000 -567.000000,191.000000 -567.000000,204.000000 -567.000000L411.000000 -567.000000C400.000000 -551.000000,321.000000 -442.000000,299.000000 -409.000000C209.000000 -274.000000,176.000000 -135.000000,176.000000 -33.000000C176.000000 -23.000000,176.000000 22.000000,222.000000 22.000000C268.000000 22.000000,268.000000 -23.000000,268.000000 -33.000000L268.000000 -84.000000C268.000000 -139.000000,271.000000 -194.000000,279.000000 -248.000000C283.000000 -271.000000,297.000000 -357.000000,341.000000 -419.000000"></path>
    </g>
    <g transform="scale(0.009963,0.009963)" id="GLYPHcmr10_56">
      <path style="fill-rule: evenodd;" d="M163.000000 -457.000000C117.000000 -487.000000,113.000000 -521.000000,113.000000 -538.000000C113.000000 -599.000000,178.000000 -641.000000,249.000000 -641.000000C322.000000 -641.000000,386.000000 -589.000000,386.000000 -517.000000C386.000000 -460.000000,347.000000 -412.000000,287.000000 -377.000000M309.000000 -362.000000C381.000000 -399.000000,430.000000 -451.000000,430.000000 -517.000000C430.000000 -609.000000,341.000000 -666.000000,250.000000 -666.000000C150.000000 -666.000000,69.000000 -592.000000,69.000000 -499.000000C69.000000 -481.000000,71.000000 -436.000000,113.000000 -389.000000C124.000000 -377.000000,161.000000 -352.000000,186.000000 -335.000000C128.000000 -306.000000,42.000000 -250.000000,42.000000 -151.000000C42.000000 -45.000000,144.000000 22.000000,249.000000 22.000000C362.000000 22.000000,457.000000 -61.000000,457.000000 -168.000000C457.000000 -204.000000,446.000000 -249.000000,408.000000 -291.000000C389.000000 -312.000000,373.000000 -322.000000,309.000000 -362.000000M209.000000 -320.000000L332.000000 -242.000000C360.000000 -223.000000,407.000000 -193.000000,407.000000 -132.000000C407.000000 -58.000000,332.000000 -6.000000,250.000000 -6.000000C164.000000 -6.000000,92.000000 -68.000000,92.000000 -151.000000C92.000000 -209.000000,124.000000 -273.000000,209.000000 -320.000000"></path>
    </g>
    <g transform="scale(0.009963,0.009963)" id="GLYPHcmr10_57">
      <path style="fill-rule: evenodd;" d="M367.000000 -318.000000L367.000000 -286.000000C367.000000 -52.000000,263.000000 -6.000000,205.000000 -6.000000C188.000000 -6.000000,134.000000 -8.000000,107.000000 -42.000000C151.000000 -42.000000,159.000000 -71.000000,159.000000 -88.000000C159.000000 -119.000000,135.000000 -134.000000,113.000000 -134.000000C97.000000 -134.000000,67.000000 -125.000000,67.000000 -86.000000C67.000000 -19.000000,121.000000 22.000000,206.000000 22.000000C335.000000 22.000000,457.000000 -114.000000,457.000000 -329.000000C457.000000 -598.000000,342.000000 -666.000000,253.000000 -666.000000C198.000000 -666.000000,149.000000 -648.000000,106.000000 -603.000000C65.000000 -558.000000,42.000000 -516.000000,42.000000 -441.000000C42.000000 -316.000000,130.000000 -218.000000,242.000000 -218.000000C303.000000 -218.000000,344.000000 -260.000000,367.000000 -318.000000M243.000000 -241.000000C227.000000 -241.000000,181.000000 -241.000000,150.000000 -304.000000C132.000000 -341.000000,132.000000 -391.000000,132.000000 -440.000000C132.000000 -494.000000,132.000000 -541.000000,153.000000 -578.000000C180.000000 -628.000000,218.000000 -641.000000,253.000000 -641.000000C299.000000 -641.000000,332.000000 -607.000000,349.000000 -562.000000C361.000000 -530.000000,365.000000 -467.000000,365.000000 -421.000000C365.000000 -338.000000,331.000000 -241.000000,243.000000 -241.000000"></path>
    </g>
  </defs>
  <path d="M79.437012 55.829147C79.437012 55.036453,79.122070 54.276306,78.561584 53.715836C78.001114 53.155350,77.240967 52.840408,76.448273 52.840408C75.655579 52.840408,74.895432 53.155350,74.334961 53.715836C73.774475 54.276306,73.459534 55.036453,73.459534 55.829147C73.459534 56.621841,73.774475 57.381989,74.334961 57.942459C74.895432 58.502945,75.655579 58.817886,76.448273 58.817886C77.240967 58.817886,78.001114 58.502945,78.561584 57.942459C79.122070 57.381989,79.437012 56.621841,79.437012 55.829147Z" style="fill: rgb(100.000000%,100.000000%,100.000000%);stroke: none;"></path>
  <path d="M78.766113 57.296417C78.766113 56.503723,78.451172 55.743576,77.890686 55.183105C77.330215 54.622620,76.570068 54.307678,75.777374 54.307678C74.984680 54.307678,74.224533 54.622620,73.664062 55.183105C73.103577 55.743576,72.788635 56.503723,72.788635 57.296417C72.788635 58.089111,73.103577 58.849258,73.664062 59.409729C74.224533 59.970215,74.984680 60.285156,75.777374 60.285156C76.570068 60.285156,77.330215 59.970215,77.890686 59.409729C78.451172 58.849258,78.766113 58.089111,78.766113 57.296417Z" style="fill: rgb(100.000000%,100.000000%,100.000000%);stroke: none;"></path>
  <path d="M83.177597 49.229385C83.177597 48.436691,82.862656 47.676544,82.302170 47.116074C81.741699 46.555588,80.981552 46.240646,80.188858 46.240646C79.396164 46.240646,78.636017 46.555588,78.075546 47.116074C77.515060 47.676544,77.200119 48.436691,77.200119 49.229385C77.200119 50.022079,77.515060 50.782227,78.075546 51.342697C78.636017 51.903183,79.396164 52.218124,80.188858 52.218124C80.981552 52.218124,81.741699 51.903183,82.302170 51.342697C82.862656 50.782227,83.177597 50.022079,83.177597 49.229385Z" style="fill: rgb(100.000000%,100.000000%,100.000000%);stroke: none;"></path>
  <path d="M80.178757 54.395325C80.178757 53.602631,79.863815 52.842484,79.303329 52.282013C78.742859 51.721527,77.982712 51.406586,77.190018 51.406586C76.397324 51.406586,75.637177 51.721527,75.076706 52.282013C74.516220 52.842484,74.201279 53.602631,74.201279 54.395325C74.201279 55.188019,74.516220 55.948166,75.076706 56.508636C75.637177 57.069122,76.397324 57.384064,77.190018 57.384064C77.982712 57.384064,78.742859 57.069122,79.303329 56.508636C79.863815 55.948166,80.178757 55.188019,80.178757 54.395325Z" style="fill: rgb(100.000000%,100.000000%,100.000000%);stroke: none;"></path>
  <path d="M91.242203 32.046829C91.242203 31.254135,90.927261 30.493988,90.366776 29.933517C89.806305 29.373032,89.046158 29.058090,88.253464 29.058090C87.460770 29.058090,86.700623 29.373032,86.140152 29.933517C85.579666 30.493988,85.264725 31.254135,85.264725 32.046829C85.264725 32.839523,85.579666 33.599670,86.140152 34.160141C86.700623 34.720627,87.460770 35.035568,88.253464 35.035568C89.046158 35.035568,89.806305 34.720627,90.366776 34.160141C90.927261 33.599670,91.242203 32.839523,91.242203 32.046829Z" style="fill: rgb(100.000000%,100.000000%,100.000000%);stroke: none;"></path>
  <path d="M85.868286 45.729050C85.868286 44.936356,85.553345 44.176208,84.992859 43.615738C84.432388 43.055252,83.672241 42.740311,82.879547 42.740311C82.086853 42.740311,81.326706 43.055252,80.766235 43.615738C80.205750 44.176208,79.890808 44.936356,79.890808 45.729050C79.890808 46.521744,80.205750 47.281891,80.766235 47.842361C81.326706 48.402847,82.086853 48.717789,82.879547 48.717789C83.672241 48.717789,84.432388 48.402847,84.992859 47.842361C85.553345 47.281891,85.868286 46.521744,85.868286 45.729050Z" style="fill: rgb(100.000000%,100.000000%,100.000000%);stroke: none;"></path>
  <path d="M68.866974 2.983582C68.866974 2.190887,68.552032 1.430740,67.991547 0.870270C67.431076 0.309784,66.670929 -0.005157,65.878235 -0.005157C65.085541 -0.005157,64.325394 0.309784,63.764923 0.870270C63.204437 1.430740,62.889496 2.190887,62.889496 2.983582C62.889496 3.776276,63.204437 4.536423,63.764923 5.096893C64.325394 5.657379,65.085541 5.972321,65.878235 5.972321C66.670929 5.972321,67.431076 5.657379,67.991547 5.096893C68.552032 4.536423,68.866974 3.776276,68.866974 2.983582Z" style="fill: rgb(100.000000%,100.000000%,100.000000%);stroke: none;"></path>
  <path d="M88.610107 21.111938C88.610107 20.319244,88.295166 19.559097,87.734680 18.998627C87.174210 18.438141,86.414062 18.123199,85.621368 18.123199C84.828674 18.123199,84.068527 18.438141,83.508057 18.998627C82.947571 19.559097,82.632629 20.319244,82.632629 21.111938C82.632629 21.904633,82.947571 22.664780,83.508057 23.225250C84.068527 23.785736,84.828674 24.100677,85.621368 24.100677C86.414062 24.100677,87.174210 23.785736,87.734680 23.225250C88.295166 22.664780,88.610107 21.904633,88.610107 21.111938Z" style="fill: rgb(100.000000%,100.000000%,100.000000%);stroke: none;"></path>
  <path d="M22.937622 23.838898C22.937622 23.046204,22.622681 22.286057,22.062195 21.725586C21.501724 21.165100,20.741577 20.850159,19.948883 20.850159C19.156189 20.850159,18.396042 21.165100,17.835571 21.725586C17.275085 22.286057,16.960144 23.046204,16.960144 23.838898C16.960144 24.631592,17.275085 25.391739,17.835571 25.952209C18.396042 26.512695,19.156189 26.827637,19.948883 26.827637C20.741577 26.827637,21.501724 26.512695,22.062195 25.952209C22.622681 25.391739,22.937622 24.631592,22.937622 23.838898Z" style="fill: rgb(100.000000%,100.000000%,100.000000%);stroke: none;"></path>
  <path d="M50.323441 5.171066C50.323441 4.378372,50.008499 3.618225,49.448013 3.057755C48.887543 2.497269,48.127396 2.182327,47.334702 2.182327C46.542007 2.182327,45.781860 2.497269,45.221390 3.057755C44.660904 3.618225,44.345963 4.378372,44.345963 5.171066C44.345963 5.963760,44.660904 6.723907,45.221390 7.284378C45.781860 7.844864,46.542007 8.159805,47.334702 8.159805C48.127396 8.159805,48.887543 7.844864,49.448013 7.284378C50.008499 6.723907,50.323441 5.963760,50.323441 5.171066Z" style="fill: rgb(100.000000%,100.000000%,100.000000%);stroke: none;"></path>
  <path d="M21.010803 64.617355C21.010803 63.824661,20.695862 63.064514,20.135376 62.504044C19.574905 61.943558,18.814758 61.628616,18.022064 61.628616C17.229370 61.628616,16.469223 61.943558,15.908752 62.504044C15.348267 63.064514,15.033325 63.824661,15.033325 64.617355C15.033325 65.410049,15.348267 66.170197,15.908752 66.730667C16.469223 67.291153,17.229370 67.606094,18.022064 67.606094C18.814758 67.606094,19.574905 67.291153,20.135376 66.730667C20.695862 66.170197,21.010803 65.410049,21.010803 64.617355Z" style="fill: rgb(100.000000%,100.000000%,100.000000%);stroke: none;"></path>
  <path d="M14.161758 38.907227C14.161758 38.114532,13.846817 37.354385,13.286331 36.793915C12.725861 36.233429,11.965714 35.918488,11.173019 35.918488C10.380325 35.918488,9.620178 36.233429,9.059708 36.793915C8.499222 37.354385,8.184280 38.114532,8.184280 38.907227C8.184280 39.699921,8.499222 40.460068,9.059708 41.020538C9.620178 41.581024,10.380325 41.895966,11.173019 41.895966C11.965714 41.895966,12.725861 41.581024,13.286331 41.020538C13.846817 40.460068,14.161758 39.699921,14.161758 38.907227Z" style="fill: rgb(100.000000%,100.000000%,100.000000%);stroke: none;"></path>
  <path d="M44.239182 66.647339C44.239182 65.854645,43.924240 65.094498,43.363754 64.534027C42.803284 63.973541,42.043137 63.658600,41.250443 63.658600C40.457748 63.658600,39.697601 63.973541,39.137131 64.534027C38.576645 65.094498,38.261703 65.854645,38.261703 66.647339C38.261703 67.440033,38.576645 68.200180,39.137131 68.760651C39.697601 69.321136,40.457748 69.636078,41.250443 69.636078C42.043137 69.636078,42.803284 69.321136,43.363754 68.760651C43.924240 68.200180,44.239182 67.440033,44.239182 66.647339Z" style="fill: rgb(100.000000%,100.000000%,100.000000%);stroke: none;"></path>
  <path d="M30.690460 71.999863C30.690460 71.207169,30.375519 70.447021,29.815033 69.886551C29.254562 69.326065,28.494415 69.011124,27.701721 69.011124C26.909027 69.011124,26.148880 69.326065,25.588409 69.886551C25.027924 70.447021,24.712982 71.207169,24.712982 71.999863C24.712982 72.792557,25.027924 73.552704,25.588409 74.113174C26.148880 74.673660,26.909027 74.988602,27.701721 74.988602C28.494415 74.988602,29.254562 74.673660,29.815033 74.113174C30.375519 73.552704,30.690460 72.792557,30.690460 71.999863Z" style="fill: rgb(100.000000%,100.000000%,100.000000%);stroke: none;"></path>
  <path d="M51.804123 56.292572C51.804123 55.499878,51.489182 54.739731,50.928696 54.179260C50.368225 53.618774,49.608078 53.303833,48.815384 53.303833C48.022690 53.303833,47.262543 53.618774,46.702072 54.179260C46.141586 54.739731,45.826645 55.499878,45.826645 56.292572C45.826645 57.085266,46.141586 57.845413,46.702072 58.405884C47.262543 58.966370,48.022690 59.281311,48.815384 59.281311C49.608078 59.281311,50.368225 58.966370,50.928696 58.405884C51.489182 57.845413,51.804123 57.085266,51.804123 56.292572Z" style="fill: rgb(100.000000%,100.000000%,100.000000%);stroke: none;"></path>
  <path d="M46.939026 62.680405C46.939026 61.887711,46.624084 61.127563,46.063599 60.567093C45.503128 60.006607,44.742981 59.691666,43.950287 59.691666C43.157593 59.691666,42.397446 60.006607,41.836975 60.567093C41.276489 61.127563,40.961548 61.887711,40.961548 62.680405C40.961548 63.473099,41.276489 64.233246,41.836975 64.793716C42.397446 65.354202,43.157593 65.669144,43.950287 65.669144C44.742981 65.669144,45.503128 65.354202,46.063599 64.793716C46.624084 64.233246,46.939026 63.473099,46.939026 62.680405Z" style="fill: rgb(100.000000%,100.000000%,100.000000%);stroke: none;"></path>
  <path d="M60.140717 50.853882C60.140717 50.061188,59.825775 49.301041,59.265289 48.740570C58.704819 48.180084,57.944672 47.865143,57.151978 47.865143C56.359283 47.865143,55.599136 48.180084,55.038666 48.740570C54.478180 49.301041,54.163239 50.061188,54.163239 50.853882C54.163239 51.646576,54.478180 52.406723,55.038666 52.967194C55.599136 53.527679,56.359283 53.842621,57.151978 53.842621C57.944672 53.842621,58.704819 53.527679,59.265289 52.967194C59.825775 52.406723,60.140717 51.646576,60.140717 50.853882Z" style="fill: rgb(100.000000%,100.000000%,100.000000%);stroke: none;"></path>
  <path d="M54.102188 53.614731C54.102188 52.822037,53.787247 52.061890,53.226761 51.501419C52.666290 50.940933,51.906143 50.625992,51.113449 50.625992C50.320755 50.625992,49.560608 50.940933,49.000137 51.501419C48.439651 52.061890,48.124710 52.822037,48.124710 53.614731C48.124710 54.407425,48.439651 55.167572,49.000137 55.728043C49.560608 56.288528,50.320755 56.603470,51.113449 56.603470C51.906143 56.603470,52.666290 56.288528,53.226761 55.728043C53.787247 55.167572,54.102188 54.407425,54.102188 53.614731Z" style="fill: rgb(100.000000%,100.000000%,100.000000%);stroke: none;"></path>
  <path d="M69.140808 50.521500C69.140808 49.728806,68.825867 48.968658,68.265381 48.408188C67.704910 47.847702,66.944763 47.532761,66.152069 47.532761C65.359375 47.532761,64.599228 47.847702,64.038757 48.408188C63.478271 48.968658,63.163330 49.728806,63.163330 50.521500C63.163330 51.314194,63.478271 52.074341,64.038757 52.634811C64.599228 53.195297,65.359375 53.510239,66.152069 53.510239C66.944763 53.510239,67.704910 53.195297,68.265381 52.634811C68.825867 52.074341,69.140808 51.314194,69.140808 50.521500Z" style="fill: rgb(100.000000%,100.000000%,100.000000%);stroke: none;"></path>
  <path d="M63.390869 50.770752C63.390869 49.978058,63.075928 49.217911,62.515442 48.657440C61.954971 48.096954,61.194824 47.782013,60.402130 47.782013C59.609436 47.782013,58.849289 48.096954,58.288818 48.657440C57.728333 49.217911,57.413391 49.978058,57.413391 50.770752C57.413391 51.563446,57.728333 52.323593,58.288818 52.884064C58.849289 53.444550,59.609436 53.759491,60.402130 53.759491C61.194824 53.759491,61.954971 53.444550,62.515442 52.884064C63.075928 52.323593,63.390869 51.563446,63.390869 50.770752Z" style="fill: rgb(100.000000%,100.000000%,100.000000%);stroke: none;"></path>
  <path d="M76.571915 51.319733C76.571915 50.527039,76.256973 49.766891,75.696487 49.206421C75.136017 48.645935,74.375870 48.330994,73.583176 48.330994C72.790482 48.330994,72.030334 48.645935,71.469864 49.206421C70.909378 49.766891,70.594437 50.527039,70.594437 51.319733C70.594437 52.112427,70.909378 52.872574,71.469864 53.433044C72.030334 53.993530,72.790482 54.308472,73.583176 54.308472C74.375870 54.308472,75.136017 53.993530,75.696487 53.433044C76.256973 52.872574,76.571915 52.112427,76.571915 51.319733Z" style="fill: rgb(100.000000%,100.000000%,100.000000%);stroke: none;"></path>
  <path d="M71.731125 50.364792C71.731125 49.572098,71.416183 48.811951,70.855698 48.251480C70.295227 47.690994,69.535080 47.376053,68.742386 47.376053C67.949692 47.376053,67.189545 47.690994,66.629074 48.251480C66.068588 48.811951,65.753647 49.572098,65.753647 50.364792C65.753647 51.157486,66.068588 51.917633,66.629074 52.478104C67.189545 53.038589,67.949692 53.353531,68.742386 53.353531C69.535080 53.353531,70.295227 53.038589,70.855698 52.478104C71.416183 51.917633,71.731125 51.157486,71.731125 50.364792Z" style="fill: rgb(100.000000%,100.000000%,100.000000%);stroke: none;"></path>
  <path d="M83.347198 53.722458C83.347198 52.929764,83.032257 52.169617,82.471771 51.609146C81.911301 51.048660,81.151154 50.733719,80.358459 50.733719C79.565765 50.733719,78.805618 51.048660,78.245148 51.609146C77.684662 52.169617,77.369720 52.929764,77.369720 53.722458C77.369720 54.515152,77.684662 55.275299,78.245148 55.835770C78.805618 56.396255,79.565765 56.711197,80.358459 56.711197C81.151154 56.711197,81.911301 56.396255,82.471771 55.835770C83.032257 55.275299,83.347198 54.515152,83.347198 53.722458Z" style="fill: rgb(100.000000%,100.000000%,100.000000%);stroke: none;"></path>
  <path d="M78.735275 52.309708C78.735275 51.517014,78.420334 50.756866,77.859848 50.196396C77.299377 49.635910,76.539230 49.320969,75.746536 49.320969C74.953842 49.320969,74.193695 49.635910,73.633224 50.196396C73.072739 50.756866,72.757797 51.517014,72.757797 52.309708C72.757797 53.102402,73.072739 53.862549,73.633224 54.423019C74.193695 54.983505,74.953842 55.298447,75.746536 55.298447C76.539230 55.298447,77.299377 54.983505,77.859848 54.423019C78.420334 53.862549,78.735275 53.102402,78.735275 52.309708Z" style="fill: rgb(100.000000%,100.000000%,100.000000%);stroke: none;"></path>
  <path d="M86.032562 59.280396C86.032562 58.487701,85.717621 57.727554,85.157135 57.167084C84.596664 56.606598,83.836517 56.291656,83.043823 56.291656C82.251129 56.291656,81.490982 56.606598,80.930511 57.167084C80.370026 57.727554,80.055084 58.487701,80.055084 59.280396C80.055084 60.073090,80.370026 60.833237,80.930511 61.393707C81.490982 61.954193,82.251129 62.269135,83.043823 62.269135C83.836517 62.269135,84.596664 61.954193,85.157135 61.393707C85.717621 60.833237,86.032562 60.073090,86.032562 59.280396Z" style="fill: rgb(100.000000%,100.000000%,100.000000%);stroke: none;"></path>
  <path d="M85.951492 54.688019C85.951492 53.895325,85.636551 53.135178,85.076065 52.574707C84.515594 52.014221,83.755447 51.699280,82.962753 51.699280C82.170059 51.699280,81.409912 52.014221,80.849442 52.574707C80.288956 53.135178,79.974014 53.895325,79.974014 54.688019C79.974014 55.480713,80.288956 56.240860,80.849442 56.801331C81.409912 57.361816,82.170059 57.676758,82.962753 57.676758C83.755447 57.676758,84.515594 57.361816,85.076065 56.801331C85.636551 56.240860,85.951492 55.480713,85.951492 54.688019Z" style="fill: rgb(100.000000%,100.000000%,100.000000%);stroke: none;"></path>
  <path d="M79.295364 62.076645C79.295364 61.283951,78.980423 60.523804,78.419937 59.963333C77.859467 59.402847,77.099319 59.087906,76.306625 59.087906C75.513931 59.087906,74.753784 59.402847,74.193314 59.963333C73.632828 60.523804,73.317886 61.283951,73.317886 62.076645C73.317886 62.869339,73.632828 63.629486,74.193314 64.189957C74.753784 64.750443,75.513931 65.065384,76.306625 65.065384C77.099319 65.065384,77.859467 64.750443,78.419937 64.189957C78.980423 63.629486,79.295364 62.869339,79.295364 62.076645Z" style="fill: rgb(100.000000%,100.000000%,100.000000%);stroke: none;"></path>
  <path d="M83.552338 60.339966C83.552338 59.547272,83.237396 58.787125,82.676910 58.226654C82.116440 57.666168,81.356293 57.351227,80.563599 57.351227C79.770905 57.351227,79.010757 57.666168,78.450287 58.226654C77.889801 58.787125,77.574860 59.547272,77.574860 60.339966C77.574860 61.132660,77.889801 61.892807,78.450287 62.453278C79.010757 63.013763,79.770905 63.328705,80.563599 63.328705C81.356293 63.328705,82.116440 63.013763,82.676910 62.453278C83.237396 61.892807,83.552338 61.132660,83.552338 60.339966Z" style="fill: rgb(100.000000%,100.000000%,100.000000%);stroke: none;"></path>
  <path d="M73.017075 64.901367C73.017075 64.108673,72.702133 63.348526,72.141647 62.788055C71.581177 62.227570,70.821030 61.912628,70.028336 61.912628C69.235641 61.912628,68.475494 62.227570,67.915024 62.788055C67.354538 63.348526,67.039597 64.108673,67.039597 64.901367C67.039597 65.694061,67.354538 66.454208,67.915024 67.014679C68.475494 67.575165,69.235641 67.890106,70.028336 67.890106C70.821030 67.890106,71.581177 67.575165,72.141647 67.014679C72.702133 66.454208,73.017075 65.694061,73.017075 64.901367Z" style="fill: rgb(100.000000%,100.000000%,100.000000%);stroke: none;"></path>
  <path d="M77.386917 63.228363C77.386917 62.435669,77.071976 61.675522,76.511490 61.115051C75.951019 60.554565,75.190872 60.239624,74.398178 60.239624C73.605484 60.239624,72.845337 60.554565,72.284866 61.115051C71.724380 61.675522,71.409439 62.435669,71.409439 63.228363C71.409439 64.021057,71.724380 64.781204,72.284866 65.341675C72.845337 65.902161,73.605484 66.217102,74.398178 66.217102C75.190872 66.217102,75.951019 65.902161,76.511490 65.341675C77.071976 64.781204,77.386917 64.021057,77.386917 63.228363Z" style="fill: rgb(100.000000%,100.000000%,100.000000%);stroke: none;"></path>
  <path d="M64.726547 66.682892C64.726547 65.890198,64.411606 65.130051,63.851120 64.569580C63.290649 64.009094,62.530502 63.694153,61.737808 63.694153C60.945114 63.694153,60.184967 64.009094,59.624496 64.569580C59.064011 65.130051,58.749069 65.890198,58.749069 66.682892C58.749069 67.475586,59.064011 68.235733,59.624496 68.796204C60.184967 69.356689,60.945114 69.671631,61.737808 69.671631C62.530502 69.671631,63.290649 69.356689,63.851120 68.796204C64.411606 68.235733,64.726547 67.475586,64.726547 66.682892Z" style="fill: rgb(100.000000%,100.000000%,100.000000%);stroke: none;"></path>
  <path d="M70.574295 65.316162C70.574295 64.523468,70.259354 63.763321,69.698868 63.202850C69.138397 62.642365,68.378250 62.327423,67.585556 62.327423C66.792862 62.327423,66.032715 62.642365,65.472244 63.202850C64.911758 63.763321,64.596817 64.523468,64.596817 65.316162C64.596817 66.108856,64.911758 66.869003,65.472244 67.429474C66.032715 67.989960,66.792862 68.304901,67.585556 68.304901C68.378250 68.304901,69.138397 67.989960,69.698868 67.429474C70.259354 66.869003,70.574295 66.108856,70.574295 65.316162Z" style="fill: rgb(100.000000%,100.000000%,100.000000%);stroke: none;"></path>
  <path d="M54.132233 65.551834C54.132233 64.759140,53.817291 63.998993,53.256805 63.438522C52.696335 62.878036,51.936188 62.563095,51.143494 62.563095C50.350800 62.563095,49.590652 62.878036,49.030182 63.438522C48.469696 63.998993,48.154755 64.759140,48.154755 65.551834C48.154755 66.344528,48.469696 67.104675,49.030182 67.665146C49.590652 68.225632,50.350800 68.540573,51.143494 68.540573C51.936188 68.540573,52.696335 68.225632,53.256805 67.665146C53.817291 67.104675,54.132233 66.344528,54.132233 65.551834Z" style="fill: rgb(100.000000%,100.000000%,100.000000%);stroke: none;"></path>
  <path d="M61.179642 67.781982C61.179642 66.989288,60.864700 66.229141,60.304214 65.668671C59.743744 65.108185,58.983597 64.793243,58.190903 64.793243C57.398209 64.793243,56.638062 65.108185,56.077591 65.668671C55.517105 66.229141,55.202164 66.989288,55.202164 67.781982C55.202164 68.574677,55.517105 69.334824,56.077591 69.895294C56.638062 70.455780,57.398209 70.770721,58.190903 70.770721C58.983597 70.770721,59.743744 70.455780,60.304214 69.895294C60.864700 69.334824,61.179642 68.574677,61.179642 67.781982Z" style="fill: rgb(100.000000%,100.000000%,100.000000%);stroke: none;"></path>
  <path d="M47.579590 55.696579C47.579590 54.903885,47.264648 54.143738,46.704163 53.583267C46.143692 53.022781,45.383545 52.707840,44.590851 52.707840C43.798157 52.707840,43.038010 53.022781,42.477539 53.583267C41.917053 54.143738,41.602112 54.903885,41.602112 55.696579C41.602112 56.489273,41.917053 57.249420,42.477539 57.809891C43.038010 58.370377,43.798157 58.685318,44.590851 58.685318C45.383545 58.685318,46.143692 58.370377,46.704163 57.809891C47.264648 57.249420,47.579590 56.489273,47.579590 55.696579Z" style="fill: rgb(100.000000%,100.000000%,100.000000%);stroke: none;"></path>
  <path d="M51.788773 62.264847C51.788773 61.472153,51.473831 60.712006,50.913345 60.151535C50.352875 59.591049,49.592728 59.276108,48.800034 59.276108C48.007339 59.276108,47.247192 59.591049,46.686722 60.151535C46.126236 60.712006,45.811295 61.472153,45.811295 62.264847C45.811295 63.057541,46.126236 63.817688,46.686722 64.378159C47.247192 64.938644,48.007339 65.253586,48.800034 65.253586C49.592728 65.253586,50.352875 64.938644,50.913345 64.378159C51.473831 63.817688,51.788773 63.057541,51.788773 62.264847Z" style="fill: rgb(100.000000%,100.000000%,100.000000%);stroke: none;"></path>
  <path d="M34.702499 44.954605C34.702499 44.161911,34.387558 43.401764,33.827072 42.841293C33.266602 42.280807,32.506454 41.965866,31.713760 41.965866C30.921066 41.965866,30.160919 42.280807,29.600449 42.841293C29.039963 43.401764,28.725021 44.161911,28.725021 44.954605C28.725021 45.747299,29.039963 46.507446,29.600449 47.067917C30.160919 47.628403,30.921066 47.943344,31.713760 47.943344C32.506454 47.943344,33.266602 47.628403,33.827072 47.067917C34.387558 46.507446,34.702499 45.747299,34.702499 44.954605Z" style="fill: rgb(100.000000%,100.000000%,100.000000%);stroke: none;"></path>
  <path d="M45.470123 52.228882C45.470123 51.436188,45.155182 50.676041,44.594696 50.115570C44.034225 49.555084,43.274078 49.240143,42.481384 49.240143C41.688690 49.240143,40.928543 49.555084,40.368073 50.115570C39.807587 50.676041,39.492645 51.436188,39.492645 52.228882C39.492645 53.021576,39.807587 53.781723,40.368073 54.342194C40.928543 54.902679,41.688690 55.217621,42.481384 55.217621C43.274078 55.217621,44.034225 54.902679,44.594696 54.342194C45.155182 53.781723,45.470123 53.021576,45.470123 52.228882Z" style="fill: rgb(100.000000%,100.000000%,100.000000%);stroke: none;"></path>
  <path d="M5.526855 66.917725C5.526855 66.125031,5.211914 65.364883,4.651428 64.804413C4.090958 64.243927,3.330811 63.928986,2.538116 63.928986C1.745422 63.928986,0.985275 64.243927,0.424805 64.804413C-0.135681 65.364883,-0.450623 66.125031,-0.450623 66.917725C-0.450623 67.710419,-0.135681 68.470566,0.424805 69.031036C0.985275 69.591522,1.745422 69.906464,2.538116 69.906464C3.330811 69.906464,4.090958 69.591522,4.651428 69.031036C5.211914 68.470566,5.526855 67.710419,5.526855 66.917725Z" style="fill: rgb(100.000000%,100.000000%,100.000000%);stroke: none;"></path>
  <path d="M24.752045 47.445740C24.752045 46.653046,24.437103 45.892899,23.876617 45.332428C23.316147 44.771942,22.556000 44.457001,21.763306 44.457001C20.970612 44.457001,20.210464 44.771942,19.649994 45.332428C19.089508 45.892899,18.774567 46.653046,18.774567 47.445740C18.774567 48.238434,19.089508 48.998581,19.649994 49.559052C20.210464 50.119537,20.970612 50.434479,21.763306 50.434479C22.556000 50.434479,23.316147 50.119537,23.876617 49.559052C24.437103 48.998581,24.752045 48.238434,24.752045 47.445740Z" style="fill: rgb(100.000000%,100.000000%,100.000000%);stroke: none;"></path>
  <path d="M18.397461 125.159348C18.397461 124.366653,18.082520 123.606506,17.522034 123.046036C16.961563 122.485550,16.201416 122.170609,15.408722 122.170609C14.616028 122.170609,13.855881 122.485550,13.295410 123.046036C12.734924 123.606506,12.419983 124.366653,12.419983 125.159348C12.419983 125.952042,12.734924 126.712189,13.295410 127.272659C13.855881 127.833145,14.616028 128.148087,15.408722 128.148087C16.201416 128.148087,16.961563 127.833145,17.522034 127.272659C18.082520 126.712189,18.397461 125.952042,18.397461 125.159348Z" style="fill: rgb(100.000000%,100.000000%,100.000000%);stroke: none;"></path>
  <path d="M8.656601 86.822708C8.656601 86.030014,8.341660 85.269867,7.781174 84.709396C7.220703 84.148911,6.460556 83.833969,5.667862 83.833969C4.875168 83.833969,4.115021 84.148911,3.554550 84.709396C2.994064 85.269867,2.679123 86.030014,2.679123 86.822708C2.679123 87.615402,2.994064 88.375549,3.554550 88.936020C4.115021 89.496506,4.875168 89.811447,5.667862 89.811447C6.460556 89.811447,7.220703 89.496506,7.781174 88.936020C8.341660 88.375549,8.656601 87.615402,8.656601 86.822708Z" style="fill: rgb(100.000000%,100.000000%,100.000000%);stroke: none;"></path>
  <path d="M60.841583 154.378555C60.841583 153.585861,60.526642 152.825714,59.966156 152.265244C59.405685 151.704758,58.645538 151.389816,57.852844 151.389816C57.060150 151.389816,56.300003 151.704758,55.739532 152.265244C55.179047 152.825714,54.864105 153.585861,54.864105 154.378555C54.864105 155.171249,55.179047 155.931396,55.739532 156.491867C56.300003 157.052353,57.060150 157.367294,57.852844 157.367294C58.645538 157.367294,59.405685 157.052353,59.966156 156.491867C60.526642 155.931396,60.841583 155.171249,60.841583 154.378555Z" style="fill: rgb(100.000000%,100.000000%,100.000000%);stroke: none;"></path>
  <path d="M26.641907 146.860748C26.641907 146.068054,26.326965 145.307907,25.766479 144.747437C25.206009 144.186951,24.445862 143.872009,23.653168 143.872009C22.860474 143.872009,22.100327 144.186951,21.539856 144.747437C20.979370 145.307907,20.664429 146.068054,20.664429 146.860748C20.664429 147.653442,20.979370 148.413589,21.539856 148.974060C22.100327 149.534546,22.860474 149.849487,23.653168 149.849487C24.445862 149.849487,25.206009 149.534546,25.766479 148.974060C26.326965 148.413589,26.641907 147.653442,26.641907 146.860748Z" style="fill: rgb(100.000000%,100.000000%,100.000000%);stroke: none;"></path>
  <path d="M100.423904 161.676849C100.423904 160.884155,100.108963 160.124008,99.548477 159.563538C98.988007 159.003052,98.227859 158.688110,97.435165 158.688110C96.642471 158.688110,95.882324 159.003052,95.321854 159.563538C94.761368 160.124008,94.446426 160.884155,94.446426 161.676849C94.446426 162.469543,94.761368 163.229691,95.321854 163.790161C95.882324 164.350647,96.642471 164.665588,97.435165 164.665588C98.227859 164.665588,98.988007 164.350647,99.548477 163.790161C100.108963 163.229691,100.423904 162.469543,100.423904 161.676849Z" style="fill: rgb(100.000000%,100.000000%,100.000000%);stroke: none;"></path>
  <path d="M76.781281 145.917236C76.781281 145.124542,76.466339 144.364395,75.905853 143.803925C75.345383 143.243439,74.585236 142.928497,73.792542 142.928497C72.999847 142.928497,72.239700 143.243439,71.679230 143.803925C71.118744 144.364395,70.803802 145.124542,70.803802 145.917236C70.803802 146.709930,71.118744 147.470078,71.679230 148.030548C72.239700 148.591034,72.999847 148.905975,73.792542 148.905975C74.585236 148.905975,75.345383 148.591034,75.905853 148.030548C76.466339 147.470078,76.781281 146.709930,76.781281 145.917236Z" style="fill: rgb(100.000000%,100.000000%,100.000000%);stroke: none;"></path>
  <path d="M119.619644 198.347702C119.619644 197.555008,119.304703 196.794861,118.744217 196.234390C118.183746 195.673904,117.423599 195.358963,116.630905 195.358963C115.838211 195.358963,115.078064 195.673904,114.517593 196.234390C113.957108 196.794861,113.642166 197.555008,113.642166 198.347702C113.642166 199.140396,113.957108 199.900543,114.517593 200.461014C115.078064 201.021500,115.838211 201.336441,116.630905 201.336441C117.423599 201.336441,118.183746 201.021500,118.744217 200.461014C119.304703 199.900543,119.619644 199.140396,119.619644 198.347702Z" style="fill: rgb(100.000000%,100.000000%,100.000000%);stroke: none;"></path>
  <path d="M100.443283 177.685959C100.443283 176.893265,100.128342 176.133118,99.567856 175.572647C99.007385 175.012161,98.247238 174.697220,97.454544 174.697220C96.661850 174.697220,95.901703 175.012161,95.341232 175.572647C94.780746 176.133118,94.465805 176.893265,94.465805 177.685959C94.465805 178.478653,94.780746 179.238800,95.341232 179.799271C95.901703 180.359756,96.661850 180.674698,97.454544 180.674698C98.247238 180.674698,99.007385 180.359756,99.567856 179.799271C100.128342 179.238800,100.443283 178.478653,100.443283 177.685959Z" style="fill: rgb(100.000000%,100.000000%,100.000000%);stroke: none;"></path>
  <path d="M163.324814 182.555771C163.324814 181.763077,163.009872 181.002930,162.449387 180.442459C161.888916 179.881973,161.128769 179.567032,160.336075 179.567032C159.543381 179.567032,158.783234 179.881973,158.222763 180.442459C157.662277 181.002930,157.347336 181.763077,157.347336 182.555771C157.347336 183.348465,157.662277 184.108612,158.222763 184.669083C158.783234 185.229568,159.543381 185.544510,160.336075 185.544510C161.128769 185.544510,161.888916 185.229568,162.449387 184.669083C163.009872 184.108612,163.324814 183.348465,163.324814 182.555771Z" style="fill: rgb(100.000000%,100.000000%,100.000000%);stroke: none;"></path>
  <path d="M136.595871 198.351410C136.595871 197.558716,136.280930 196.798569,135.720444 196.238098C135.159973 195.677612,134.399826 195.362671,133.607132 195.362671C132.814438 195.362671,132.054291 195.677612,131.493820 196.238098C130.933334 196.798569,130.618393 197.558716,130.618393 198.351410C130.618393 199.144104,130.933334 199.904251,131.493820 200.464722C132.054291 201.025208,132.814438 201.340149,133.607132 201.340149C134.399826 201.340149,135.159973 201.025208,135.720444 200.464722C136.280930 199.904251,136.595871 199.144104,136.595871 198.351410Z" style="fill: rgb(100.000000%,100.000000%,100.000000%);stroke: none;"></path>
  <path d="M162.266022 140.584366C162.266022 139.791672,161.951080 139.031525,161.390594 138.471054C160.830124 137.910568,160.069977 137.595627,159.277283 137.595627C158.484589 137.595627,157.724442 137.910568,157.163971 138.471054C156.603485 139.031525,156.288544 139.791672,156.288544 140.584366C156.288544 141.377060,156.603485 142.137207,157.163971 142.697678C157.724442 143.258163,158.484589 143.573105,159.277283 143.573105C160.069977 143.573105,160.830124 143.258163,161.390594 142.697678C161.951080 142.137207,162.266022 141.377060,162.266022 140.584366Z" style="fill: rgb(100.000000%,100.000000%,100.000000%);stroke: none;"></path>
  <path d="M171.513474 167.520630C171.513474 166.727936,171.198532 165.967789,170.638046 165.407318C170.077576 164.846832,169.317429 164.531891,168.524734 164.531891C167.732040 164.531891,166.971893 164.846832,166.411423 165.407318C165.850937 165.967789,165.535995 166.727936,165.535995 167.520630C165.535995 168.313324,165.850937 169.073471,166.411423 169.633942C166.971893 170.194427,167.732040 170.509369,168.524734 170.509369C169.317429 170.509369,170.077576 170.194427,170.638046 169.633942C171.198532 169.073471,171.513474 168.313324,171.513474 167.520630Z" style="fill: rgb(100.000000%,100.000000%,100.000000%);stroke: none;"></path>
  <path d="M144.340500 104.475784C144.340500 103.683090,144.025558 102.922943,143.465073 102.362473C142.904602 101.801987,142.144455 101.487045,141.351761 101.487045C140.559067 101.487045,139.798920 101.801987,139.238449 102.362473C138.677963 102.922943,138.363022 103.683090,138.363022 104.475784C138.363022 105.268478,138.677963 106.028625,139.238449 106.589096C139.798920 107.149582,140.559067 107.464523,141.351761 107.464523C142.144455 107.464523,142.904602 107.149582,143.465073 106.589096C144.025558 106.028625,144.340500 105.268478,144.340500 104.475784Z" style="fill: rgb(100.000000%,100.000000%,100.000000%);stroke: none;"></path>
  <path d="M147.828812 133.127548C147.828812 132.334854,147.513870 131.574707,146.953384 131.014236C146.392914 130.453751,145.632767 130.138809,144.840073 130.138809C144.047379 130.138809,143.287231 130.453751,142.726761 131.014236C142.166275 131.574707,141.851334 132.334854,141.851334 133.127548C141.851334 133.920242,142.166275 134.680389,142.726761 135.240860C143.287231 135.801346,144.047379 136.116287,144.840073 136.116287C145.632767 136.116287,146.392914 135.801346,146.953384 135.240860C147.513870 134.680389,147.828812 133.920242,147.828812 133.127548Z" style="fill: rgb(100.000000%,100.000000%,100.000000%);stroke: none;"></path>
  <path d="M167.690018 58.662598C167.690018 57.869904,167.375076 57.109756,166.814590 56.549286C166.254120 55.988800,165.493973 55.673859,164.701279 55.673859C163.908585 55.673859,163.148438 55.988800,162.587967 56.549286C162.027481 57.109756,161.712540 57.869904,161.712540 58.662598C161.712540 59.455292,162.027481 60.215439,162.587967 60.775909C163.148438 61.336395,163.908585 61.651337,164.701279 61.651337C165.493973 61.651337,166.254120 61.336395,166.814590 60.775909C167.375076 60.215439,167.690018 59.455292,167.690018 58.662598Z" style="fill: rgb(100.000000%,100.000000%,100.000000%);stroke: none;"></path>
  <path d="M159.309753 93.780914C159.309753 92.988220,158.994812 92.228073,158.434326 91.667603C157.873856 91.107117,157.113708 90.792175,156.321014 90.792175C155.528320 90.792175,154.768173 91.107117,154.207703 91.667603C153.647217 92.228073,153.332275 92.988220,153.332275 93.780914C153.332275 94.573608,153.647217 95.333755,154.207703 95.894226C154.768173 96.454712,155.528320 96.769653,156.321014 96.769653C157.113708 96.769653,157.873856 96.454712,158.434326 95.894226C158.994812 95.333755,159.309753 94.573608,159.309753 93.780914Z" style="fill: rgb(100.000000%,100.000000%,100.000000%);stroke: none;"></path>
  <path d="M117.092484 15.761215C117.092484 14.968521,116.777542 14.208374,116.217056 13.647903C115.656586 13.087418,114.896439 12.772476,114.103745 12.772476C113.311050 12.772476,112.550903 13.087418,111.990433 13.647903C111.429947 14.208374,111.115005 14.968521,111.115005 15.761215C111.115005 16.553909,111.429947 17.314056,111.990433 17.874527C112.550903 18.435013,113.311050 18.749954,114.103745 18.749954C114.896439 18.749954,115.656586 18.435013,116.217056 17.874527C116.777542 17.314056,117.092484 16.553909,117.092484 15.761215Z" style="fill: rgb(100.000000%,100.000000%,100.000000%);stroke: none;"></path>
  <path d="M150.564713 41.385986C150.564713 40.593292,150.249771 39.833145,149.689285 39.272675C149.128815 38.712189,148.368668 38.397247,147.575974 38.397247C146.783279 38.397247,146.023132 38.712189,145.462662 39.272675C144.902176 39.833145,144.587234 40.593292,144.587234 41.385986C144.587234 42.178680,144.902176 42.938828,145.462662 43.499298C146.023132 44.059784,146.783279 44.374725,147.575974 44.374725C148.368668 44.374725,149.128815 44.059784,149.689285 43.499298C150.249771 42.938828,150.564713 42.178680,150.564713 41.385986Z" style="fill: rgb(100.000000%,100.000000%,100.000000%);stroke: none;"></path>
  <path d="M72.436417 18.806992C72.436417 18.014297,72.121475 17.254150,71.560989 16.693680C71.000519 16.133194,70.240372 15.818253,69.447678 15.818253C68.654984 15.818253,67.894836 16.133194,67.334366 16.693680C66.773880 17.254150,66.458939 18.014297,66.458939 18.806992C66.458939 19.599686,66.773880 20.359833,67.334366 20.920303C67.894836 21.480789,68.654984 21.795731,69.447678 21.795731C70.240372 21.795731,71.000519 21.480789,71.560989 20.920303C72.121475 20.359833,72.436417 19.599686,72.436417 18.806992Z" style="fill: rgb(100.000000%,100.000000%,100.000000%);stroke: none;"></path>
  <path d="M97.908279 4.829361C97.908279 4.036667,97.593338 3.276520,97.032852 2.716049C96.472382 2.155563,95.712234 1.840622,94.919540 1.840622C94.126846 1.840622,93.366699 2.155563,92.806229 2.716049C92.245743 3.276520,91.930801 4.036667,91.930801 4.829361C91.930801 5.622055,92.245743 6.382202,92.806229 6.942673C93.366699 7.503159,94.126846 7.818100,94.919540 7.818100C95.712234 7.818100,96.472382 7.503159,97.032852 6.942673C97.593338 6.382202,97.908279 5.622055,97.908279 4.829361Z" style="fill: rgb(100.000000%,100.000000%,100.000000%);stroke: none;"></path>
  <path d="M65.871277 41.940125C65.871277 41.147430,65.556335 40.387283,64.995850 39.826813C64.435379 39.266327,63.675232 38.951385,62.882538 38.951385C62.089844 38.951385,61.329697 39.266327,60.769226 39.826813C60.208740 40.387283,59.893799 41.147430,59.893799 41.940125C59.893799 42.732819,60.208740 43.492966,60.769226 44.053436C61.329697 44.613922,62.089844 44.928864,62.882538 44.928864C63.675232 44.928864,64.435379 44.613922,64.995850 44.053436C65.556335 43.492966,65.871277 42.732819,65.871277 41.940125Z" style="fill: rgb(100.000000%,100.000000%,100.000000%);stroke: none;"></path>
  <path d="M67.471573 27.879379C67.471573 27.086685,67.156631 26.326538,66.596146 25.766068C66.035675 25.205582,65.275528 24.890640,64.482834 24.890640C63.690140 24.890640,62.929993 25.205582,62.369522 25.766068C61.809036 26.326538,61.494095 27.086685,61.494095 27.879379C61.494095 28.672073,61.809036 29.432220,62.369522 29.992691C62.929993 30.553177,63.690140 30.868118,64.482834 30.868118C65.275528 30.868118,66.035675 30.553177,66.596146 29.992691C67.156631 29.432220,67.471573 28.672073,67.471573 27.879379Z" style="fill: rgb(100.000000%,100.000000%,100.000000%);stroke: none;"></path>
  <path d="M66.821259 53.177017C66.821259 52.384323,66.506317 51.624176,65.945831 51.063705C65.385361 50.503220,64.625214 50.188278,63.832520 50.188278C63.039825 50.188278,62.279678 50.503220,61.719208 51.063705C61.158722 51.624176,60.843781 52.384323,60.843781 53.177017C60.843781 53.969711,61.158722 54.729858,61.719208 55.290329C62.279678 55.850815,63.039825 56.165756,63.832520 56.165756C64.625214 56.165756,65.385361 55.850815,65.945831 55.290329C66.506317 54.729858,66.821259 53.969711,66.821259 53.177017Z" style="fill: rgb(100.000000%,100.000000%,100.000000%);stroke: none;"></path>
  <path d="M66.144058 46.302063C66.144058 45.509369,65.829117 44.749222,65.268631 44.188751C64.708160 43.628265,63.948013 43.313324,63.155319 43.313324C62.362625 43.313324,61.602478 43.628265,61.042007 44.188751C60.481522 44.749222,60.166580 45.509369,60.166580 46.302063C60.166580 47.094757,60.481522 47.854904,61.042007 48.415375C61.602478 48.975861,62.362625 49.290802,63.155319 49.290802C63.948013 49.290802,64.708160 48.975861,65.268631 48.415375C65.829117 47.854904,66.144058 47.094757,66.144058 46.302063Z" style="fill: rgb(100.000000%,100.000000%,100.000000%);stroke: none;"></path>
  <path d="M67.703415 60.792297C67.703415 59.999603,67.388474 59.239456,66.827988 58.678986C66.267517 58.118500,65.507370 57.803558,64.714676 57.803558C63.921982 57.803558,63.161835 58.118500,62.601364 58.678986C62.040878 59.239456,61.725937 59.999603,61.725937 60.792297C61.725937 61.584991,62.040878 62.345139,62.601364 62.905609C63.161835 63.466095,63.921982 63.781036,64.714676 63.781036C65.507370 63.781036,66.267517 63.466095,66.827988 62.905609C67.388474 62.345139,67.703415 61.584991,67.703415 60.792297Z" style="fill: rgb(100.000000%,100.000000%,100.000000%);stroke: none;"></path>
  <path d="M67.124786 55.715469C67.124786 54.922775,66.809845 54.162628,66.249359 53.602158C65.688889 53.041672,64.928741 52.726730,64.136047 52.726730C63.343353 52.726730,62.583206 53.041672,62.022736 53.602158C61.462250 54.162628,61.147308 54.922775,61.147308 55.715469C61.147308 56.508163,61.462250 57.268311,62.022736 57.828781C62.583206 58.389267,63.343353 58.704208,64.136047 58.704208C64.928741 58.704208,65.688889 58.389267,66.249359 57.828781C66.809845 57.268311,67.124786 56.508163,67.124786 55.715469Z" style="fill: rgb(100.000000%,100.000000%,100.000000%);stroke: none;"></path>
  <path d="M68.491852 69.977051C68.491852 69.184357,68.176910 68.424210,67.616425 67.863739C67.055954 67.303253,66.295807 66.988312,65.503113 66.988312C64.710419 66.988312,63.950272 67.303253,63.389801 67.863739C62.829315 68.424210,62.514374 69.184357,62.514374 69.977051C62.514374 70.769745,62.829315 71.529892,63.389801 72.090363C63.950272 72.650848,64.710419 72.965790,65.503113 72.965790C66.295807 72.965790,67.055954 72.650848,67.616425 72.090363C68.176910 71.529892,68.491852 70.769745,68.491852 69.977051Z" style="fill: rgb(100.000000%,100.000000%,100.000000%);stroke: none;"></path>
  <path d="M67.978622 63.331085C67.978622 62.538391,67.663681 61.778244,67.103195 61.217773C66.542725 60.657288,65.782578 60.342346,64.989883 60.342346C64.197189 60.342346,63.437042 60.657288,62.876572 61.217773C62.316086 61.778244,62.001144 62.538391,62.001144 63.331085C62.001144 64.123779,62.316086 64.883926,62.876572 65.444397C63.437042 66.004883,64.197189 66.319824,64.989883 66.319824C65.782578 66.319824,66.542725 66.004883,67.103195 65.444397C67.663681 64.883926,67.978622 64.123779,67.978622 63.331085Z" style="fill: rgb(100.000000%,100.000000%,100.000000%);stroke: none;"></path>
  <path d="M74.358047 81.806732C74.358047 81.014038,74.043106 80.253891,73.482620 79.693420C72.922150 79.132935,72.162003 78.817993,71.369308 78.817993C70.576614 78.817993,69.816467 79.132935,69.255997 79.693420C68.695511 80.253891,68.380569 81.014038,68.380569 81.806732C68.380569 82.599426,68.695511 83.359573,69.255997 83.920044C69.816467 84.480530,70.576614 84.795471,71.369308 84.795471C72.162003 84.795471,72.922150 84.480530,73.482620 83.920044C74.043106 83.359573,74.358047 82.599426,74.358047 81.806732Z" style="fill: rgb(100.000000%,100.000000%,100.000000%);stroke: none;"></path>
  <path d="M68.684418 74.276291C68.684418 73.483597,68.369476 72.723450,67.808990 72.162979C67.248520 71.602493,66.488373 71.287552,65.695679 71.287552C64.902985 71.287552,64.142838 71.602493,63.582367 72.162979C63.021881 72.723450,62.706940 73.483597,62.706940 74.276291C62.706940 75.068985,63.021881 75.829132,63.582367 76.389603C64.142838 76.950089,64.902985 77.265030,65.695679 77.265030C66.488373 77.265030,67.248520 76.950089,67.808990 76.389603C68.369476 75.829132,68.684418 75.068985,68.684418 74.276291Z" style="fill: rgb(100.000000%,100.000000%,100.000000%);stroke: none;"></path>
  <path d="M95.266052 85.316513C95.266052 84.523819,94.951111 83.763672,94.390625 83.203201C93.830154 82.642715,93.070007 82.327774,92.277313 82.327774C91.484619 82.327774,90.724472 82.642715,90.164001 83.203201C89.603516 83.763672,89.288574 84.523819,89.288574 85.316513C89.288574 86.109207,89.603516 86.869354,90.164001 87.429825C90.724472 87.990311,91.484619 88.305252,92.277313 88.305252C93.070007 88.305252,93.830154 87.990311,94.390625 87.429825C94.951111 86.869354,95.266052 86.109207,95.266052 85.316513Z" style="fill: rgb(100.000000%,100.000000%,100.000000%);stroke: none;"></path>
  <path d="M79.945557 82.807907C79.945557 82.015213,79.630615 81.255066,79.070129 80.694595C78.509659 80.134109,77.749512 79.819168,76.956818 79.819168C76.164124 79.819168,75.403976 80.134109,74.843506 80.694595C74.283020 81.255066,73.968079 82.015213,73.968079 82.807907C73.968079 83.600601,74.283020 84.360748,74.843506 84.921219C75.403976 85.481705,76.164124 85.796646,76.956818 85.796646C77.749512 85.796646,78.509659 85.481705,79.070129 84.921219C79.630615 84.360748,79.945557 83.600601,79.945557 82.807907Z" style="fill: rgb(100.000000%,100.000000%,100.000000%);stroke: none;"></path>
  <path d="M131.579712 84.828537C131.579712 84.035843,131.264771 83.275696,130.704285 82.715225C130.143814 82.154739,129.383667 81.839798,128.590973 81.839798C127.798279 81.839798,127.038132 82.154739,126.477661 82.715225C125.917175 83.275696,125.602234 84.035843,125.602234 84.828537C125.602234 85.621231,125.917175 86.381378,126.477661 86.941849C127.038132 87.502335,127.798279 87.817276,128.590973 87.817276C129.383667 87.817276,130.143814 87.502335,130.704285 86.941849C131.264771 86.381378,131.579712 85.621231,131.579712 84.828537Z" style="fill: rgb(100.000000%,100.000000%,100.000000%);stroke: none;"></path>
  <path d="M105.390274 87.362579C105.390274 86.569885,105.075333 85.809738,104.514847 85.249268C103.954376 84.688782,103.194229 84.373840,102.401535 84.373840C101.608841 84.373840,100.848694 84.688782,100.288223 85.249268C99.727737 85.809738,99.412796 86.569885,99.412796 87.362579C99.412796 88.155273,99.727737 88.915421,100.288223 89.475891C100.848694 90.036377,101.608841 90.351318,102.401535 90.351318C103.194229 90.351318,103.954376 90.036377,104.514847 89.475891C105.075333 88.915421,105.390274 88.155273,105.390274 87.362579Z" style="fill: rgb(100.000000%,100.000000%,100.000000%);stroke: none;"></path>
  <path d="M180.078766 83.172287C180.078766 82.379593,179.763824 81.619446,179.203339 81.058975C178.642868 80.498489,177.882721 80.183548,177.090027 80.183548C176.297333 80.183548,175.537186 80.498489,174.976715 81.058975C174.416229 81.619446,174.101288 82.379593,174.101288 83.172287C174.101288 83.964981,174.416229 84.725128,174.976715 85.285599C175.537186 85.846085,176.297333 86.161026,177.090027 86.161026C177.882721 86.161026,178.642868 85.846085,179.203339 85.285599C179.763824 84.725128,180.078766 83.964981,180.078766 83.172287Z" style="fill: rgb(100.000000%,100.000000%,100.000000%);stroke: none;"></path>
  <path d="M146.875351 75.883438C146.875351 75.090744,146.560410 74.330597,145.999924 73.770126C145.439453 73.209641,144.679306 72.894699,143.886612 72.894699C143.093918 72.894699,142.333771 73.209641,141.773300 73.770126C141.212814 74.330597,140.897873 75.090744,140.897873 75.883438C140.897873 76.676132,141.212814 77.436279,141.773300 77.996750C142.333771 78.557236,143.093918 78.872177,143.886612 78.872177C144.679306 78.872177,145.439453 78.557236,145.999924 77.996750C146.560410 77.436279,146.875351 76.676132,146.875351 75.883438Z" style="fill: rgb(100.000000%,100.000000%,100.000000%);stroke: none;"></path>
  <path d="M192.076096 134.266602C192.076096 133.473907,191.761154 132.713760,191.200668 132.153290C190.640198 131.592804,189.880051 131.277863,189.087357 131.277863C188.294662 131.277863,187.534515 131.592804,186.974045 132.153290C186.413559 132.713760,186.098618 133.473907,186.098618 134.266602C186.098618 135.059296,186.413559 135.819443,186.974045 136.379913C187.534515 136.940399,188.294662 137.255341,189.087357 137.255341C189.880051 137.255341,190.640198 136.940399,191.200668 136.379913C191.761154 135.819443,192.076096 135.059296,192.076096 134.266602Z" style="fill: rgb(100.000000%,100.000000%,100.000000%);stroke: none;"></path>
  <path d="M191.344666 99.481445C191.344666 98.688751,191.029724 97.928604,190.469238 97.368134C189.908768 96.807648,189.148621 96.492706,188.355927 96.492706C187.563232 96.492706,186.803085 96.807648,186.242615 97.368134C185.682129 97.928604,185.367188 98.688751,185.367188 99.481445C185.367188 100.274139,185.682129 101.034286,186.242615 101.594757C186.803085 102.155243,187.563232 102.470184,188.355927 102.470184C189.148621 102.470184,189.908768 102.155243,190.469238 101.594757C191.029724 101.034286,191.344666 100.274139,191.344666 99.481445Z" style="fill: rgb(100.000000%,100.000000%,100.000000%);stroke: none;"></path>
  <path d="M153.953583 155.710449C153.953583 154.917755,153.638641 154.157608,153.078156 153.597137C152.517685 153.036652,151.757538 152.721710,150.964844 152.721710C150.172150 152.721710,149.412003 153.036652,148.851532 153.597137C148.291046 154.157608,147.976105 154.917755,147.976105 155.710449C147.976105 156.503143,148.291046 157.263290,148.851532 157.823761C149.412003 158.384247,150.172150 158.699188,150.964844 158.699188C151.757538 158.699188,152.517685 158.384247,153.078156 157.823761C153.638641 157.263290,153.953583 156.503143,153.953583 155.710449Z" style="fill: rgb(100.000000%,100.000000%,100.000000%);stroke: none;"></path>
  <path d="M182.546814 150.101074C182.546814 149.308380,182.231873 148.548233,181.671387 147.987762C181.110916 147.427277,180.350769 147.112335,179.558075 147.112335C178.765381 147.112335,178.005234 147.427277,177.444763 147.987762C176.884277 148.548233,176.569336 149.308380,176.569336 150.101074C176.569336 150.893768,176.884277 151.653915,177.444763 152.214386C178.005234 152.774872,178.765381 153.089813,179.558075 153.089813C180.350769 153.089813,181.110916 152.774872,181.671387 152.214386C182.231873 151.653915,182.546814 150.893768,182.546814 150.101074Z" style="fill: rgb(100.000000%,100.000000%,100.000000%);stroke: none;"></path>
  <path d="M117.561035 161.980560C117.561035 161.187866,117.246094 160.427719,116.685608 159.867249C116.125137 159.306763,115.364990 158.991821,114.572296 158.991821C113.779602 158.991821,113.019455 159.306763,112.458984 159.867249C111.898499 160.427719,111.583557 161.187866,111.583557 161.980560C111.583557 162.773254,111.898499 163.533401,112.458984 164.093872C113.019455 164.654358,113.779602 164.969299,114.572296 164.969299C115.364990 164.969299,116.125137 164.654358,116.685608 164.093872C117.246094 163.533401,117.561035 162.773254,117.561035 161.980560Z" style="fill: rgb(100.000000%,100.000000%,100.000000%);stroke: none;"></path>
  <path d="M140.048874 148.332336C140.048874 147.539642,139.733932 146.779495,139.173447 146.219025C138.612976 145.658539,137.852829 145.343597,137.060135 145.343597C136.267441 145.343597,135.507294 145.658539,134.946823 146.219025C134.386337 146.779495,134.071396 147.539642,134.071396 148.332336C134.071396 149.125031,134.386337 149.885178,134.946823 150.445648C135.507294 151.006134,136.267441 151.321075,137.060135 151.321075C137.852829 151.321075,138.612976 151.006134,139.173447 150.445648C139.733932 149.885178,140.048874 149.125031,140.048874 148.332336Z" style="fill: rgb(100.000000%,100.000000%,100.000000%);stroke: none;"></path>
  <path d="M99.361511 199.505814C99.361511 198.713120,99.046570 197.952972,98.486084 197.392502C97.925613 196.832016,97.165466 196.517075,96.372772 196.517075C95.580078 196.517075,94.819931 196.832016,94.259460 197.392502C93.698975 197.952972,93.384033 198.713120,93.384033 199.505814C93.384033 200.298508,93.698975 201.058655,94.259460 201.619125C94.819931 202.179611,95.580078 202.494553,96.372772 202.494553C97.165466 202.494553,97.925613 202.179611,98.486084 201.619125C99.046570 201.058655,99.361511 200.298508,99.361511 199.505814Z" style="fill: rgb(100.000000%,100.000000%,100.000000%);stroke: none;"></path>
  <path d="M117.519424 177.509537C117.519424 176.716843,117.204483 175.956696,116.643997 175.396225C116.083527 174.835739,115.323380 174.520798,114.530685 174.520798C113.737991 174.520798,112.977844 174.835739,112.417374 175.396225C111.856888 175.956696,111.541946 176.716843,111.541946 177.509537C111.541946 178.302231,111.856888 179.062378,112.417374 179.622849C112.977844 180.183334,113.737991 180.498276,114.530685 180.498276C115.323380 180.498276,116.083527 180.183334,116.643997 179.622849C117.204483 179.062378,117.519424 178.302231,117.519424 177.509537Z" style="fill: rgb(100.000000%,100.000000%,100.000000%);stroke: none;"></path>
  <path d="M52.127594 184.366791C52.127594 183.574097,51.812653 182.813950,51.252167 182.253479C50.691696 181.692993,49.931549 181.378052,49.138855 181.378052C48.346161 181.378052,47.586014 181.692993,47.025543 182.253479C46.465057 182.813950,46.150116 183.574097,46.150116 184.366791C46.150116 185.159485,46.465057 185.919632,47.025543 186.480103C47.586014 187.040588,48.346161 187.355530,49.138855 187.355530C49.931549 187.355530,50.691696 187.040588,51.252167 186.480103C51.812653 185.919632,52.127594 185.159485,52.127594 184.366791Z" style="fill: rgb(100.000000%,100.000000%,100.000000%);stroke: none;"></path>
  <path d="M81.490982 200.451569C81.490982 199.658875,81.176041 198.898727,80.615555 198.338257C80.055084 197.777771,79.294937 197.462830,78.502243 197.462830C77.709549 197.462830,76.949402 197.777771,76.388931 198.338257C75.828445 198.898727,75.513504 199.658875,75.513504 200.451569C75.513504 201.244263,75.828445 202.004410,76.388931 202.564880C76.949402 203.125366,77.709549 203.440308,78.502243 203.440308C79.294937 203.440308,80.055084 203.125366,80.615555 202.564880C81.176041 202.004410,81.490982 201.244263,81.490982 200.451569Z" style="fill: rgb(100.000000%,100.000000%,100.000000%);stroke: none;"></path>
  <path d="M50.056961 135.497330C50.056961 134.704636,49.742020 133.944489,49.181534 133.384018C48.621063 132.823532,47.860916 132.508591,47.068222 132.508591C46.275528 132.508591,45.515381 132.823532,44.954910 133.384018C44.394424 133.944489,44.079483 134.704636,44.079483 135.497330C44.079483 136.290024,44.394424 137.050171,44.954910 137.610641C45.515381 138.171127,46.275528 138.486069,47.068222 138.486069C47.860916 138.486069,48.621063 138.171127,49.181534 137.610641C49.742020 137.050171,50.056961 136.290024,50.056961 135.497330Z" style="fill: rgb(100.000000%,100.000000%,100.000000%);stroke: none;"></path>
  <path d="M43.029282 167.875702C43.029282 167.083008,42.714340 166.322861,42.153854 165.762390C41.593384 165.201904,40.833237 164.886963,40.040543 164.886963C39.247849 164.886963,38.487701 165.201904,37.927231 165.762390C37.366745 166.322861,37.051804 167.083008,37.051804 167.875702C37.051804 168.668396,37.366745 169.428543,37.927231 169.989014C38.487701 170.549500,39.247849 170.864441,40.040543 170.864441C40.833237 170.864441,41.593384 170.549500,42.153854 169.989014C42.714340 169.428543,43.029282 168.668396,43.029282 167.875702Z" style="fill: rgb(100.000000%,100.000000%,100.000000%);stroke: none;"></path>
  <path d="M78.633362 103.323105C78.633362 102.530411,78.318420 101.770264,77.757935 101.209793C77.197464 100.649307,76.437317 100.334366,75.644623 100.334366C74.851929 100.334366,74.091782 100.649307,73.531311 101.209793C72.970825 101.770264,72.655884 102.530411,72.655884 103.323105C72.655884 104.115799,72.970825 104.875946,73.531311 105.436417C74.091782 105.996902,74.851929 106.311844,75.644623 106.311844C76.437317 106.311844,77.197464 105.996902,77.757935 105.436417C78.318420 104.875946,78.633362 104.115799,78.633362 103.323105Z" style="fill: rgb(100.000000%,100.000000%,100.000000%);stroke: none;"></path>
  <path d="M64.173782 125.291748C64.173782 124.499054,63.858841 123.738907,63.298355 123.178436C62.737885 122.617950,61.977737 122.303009,61.185043 122.303009C60.392349 122.303009,59.632202 122.617950,59.071732 123.178436C58.511246 123.738907,58.196304 124.499054,58.196304 125.291748C58.196304 126.084442,58.511246 126.844589,59.071732 127.405060C59.632202 127.965546,60.392349 128.280487,61.185043 128.280487C61.977737 128.280487,62.737885 127.965546,63.298355 127.405060C63.858841 126.844589,64.173782 126.084442,64.173782 125.291748Z" style="fill: rgb(100.000000%,100.000000%,100.000000%);stroke: none;"></path>
  <path d="M86.685135 79.105865C86.685135 78.313171,86.370193 77.553024,85.809708 76.992554C85.249237 76.432068,84.489090 76.117126,83.696396 76.117126C82.903702 76.117126,82.143555 76.432068,81.583084 76.992554C81.022598 77.553024,80.707657 78.313171,80.707657 79.105865C80.707657 79.898560,81.022598 80.658707,81.583084 81.219177C82.143555 81.779663,82.903702 82.094604,83.696396 82.094604C84.489090 82.094604,85.249237 81.779663,85.809708 81.219177C86.370193 80.658707,86.685135 79.898560,86.685135 79.105865Z" style="fill: rgb(100.000000%,100.000000%,100.000000%);stroke: none;"></path>
  <path d="M81.983948 93.471802C81.983948 92.679108,81.669006 91.918961,81.108521 91.358490C80.548050 90.798004,79.787903 90.483063,78.995209 90.483063C78.202515 90.483063,77.442368 90.798004,76.881897 91.358490C76.321411 91.918961,76.006470 92.679108,76.006470 93.471802C76.006470 94.264496,76.321411 95.024643,76.881897 95.585114C77.442368 96.145599,78.202515 96.460541,78.995209 96.460541C79.787903 96.460541,80.548050 96.145599,81.108521 95.585114C81.669006 95.024643,81.983948 94.264496,81.983948 93.471802Z" style="fill: rgb(100.000000%,100.000000%,100.000000%);stroke: none;"></path>
  <path d="M86.370636 66.210541C86.370636 65.417847,86.055695 64.657700,85.495209 64.097229C84.934738 63.536743,84.174591 63.221802,83.381897 63.221802C82.589203 63.221802,81.829056 63.536743,81.268585 64.097229C80.708099 64.657700,80.393158 65.417847,80.393158 66.210541C80.393158 67.003235,80.708099 67.763382,81.268585 68.323853C81.829056 68.884338,82.589203 69.199280,83.381897 69.199280C84.174591 69.199280,84.934738 68.884338,85.495209 68.323853C86.055695 67.763382,86.370636 67.003235,86.370636 66.210541Z" style="fill: rgb(100.000000%,100.000000%,100.000000%);stroke: none;"></path>
  <path d="M88.156937 74.365005C88.156937 73.572311,87.841995 72.812164,87.281509 72.251694C86.721039 71.691208,85.960892 71.376266,85.168198 71.376266C84.375504 71.376266,83.615356 71.691208,83.054886 72.251694C82.494400 72.812164,82.179459 73.572311,82.179459 74.365005C82.179459 75.157700,82.494400 75.917847,83.054886 76.478317C83.615356 77.038803,84.375504 77.353745,85.168198 77.353745C85.960892 77.353745,86.721039 77.038803,87.281509 76.478317C87.841995 75.917847,88.156937 75.157700,88.156937 74.365005Z" style="fill: rgb(100.000000%,100.000000%,100.000000%);stroke: none;"></path>
  <path d="M79.744202 60.194443C79.744202 59.401749,79.429260 58.641602,78.868774 58.081131C78.308304 57.520645,77.548157 57.205704,76.755463 57.205704C75.962769 57.205704,75.202621 57.520645,74.642151 58.081131C74.081665 58.641602,73.766724 59.401749,73.766724 60.194443C73.766724 60.987137,74.081665 61.747284,74.642151 62.307755C75.202621 62.868240,75.962769 63.183182,76.755463 63.183182C77.548157 63.183182,78.308304 62.868240,78.868774 62.307755C79.429260 61.747284,79.744202 60.987137,79.744202 60.194443Z" style="fill: rgb(100.000000%,100.000000%,100.000000%);stroke: none;"></path>
  <path d="M84.306442 63.176208C84.306442 62.383514,83.991501 61.623367,83.431015 61.062897C82.870544 60.502411,82.110397 60.187469,81.317703 60.187469C80.525009 60.187469,79.764862 60.502411,79.204391 61.062897C78.643906 61.623367,78.328964 62.383514,78.328964 63.176208C78.328964 63.968903,78.643906 64.729050,79.204391 65.289520C79.764862 65.850006,80.525009 66.164948,81.317703 66.164948C82.110397 66.164948,82.870544 65.850006,83.431015 65.289520C83.991501 64.729050,84.306442 63.968903,84.306442 63.176208Z" style="fill: rgb(100.000000%,100.000000%,100.000000%);stroke: none;"></path>
  <path d="M75.777374 57.296417C76.448273 55.829147,77.190018 54.395325,78.000000 53.000000C80.188858 49.229385,82.879547 45.729050,84.475403 41.665909C88.253464 32.046829,85.621368 21.111938,78.000000 14.113922C65.878235 2.983582,47.334702 5.171066,33.232483 14.783997C19.948883 23.838898,11.173019 38.907227,15.214569 54.078537C18.022064 64.617355,27.701721 71.999863,36.972382 68.337418C41.250443 66.647339,43.950287 62.680405,46.728622 59.032471C48.815384 56.292572,51.113449 53.614731,54.250885 52.180283C57.151978 50.853882,60.402130 50.770752,63.581924 50.632919C66.152069 50.521500,68.742386 50.364792,71.269165 50.863251C73.583176 51.319733,75.746536 52.309708,78.000000 53.000000C80.358459 53.722458,82.962753 54.688019,83.003754 57.010498C83.043823 59.280396,80.563599 60.339966,78.356064 61.240555C76.306625 62.076645,74.398178 63.228363,72.330765 64.019882C70.028336 64.901367,67.585556 65.316162,65.186478 65.876877C61.737808 66.682892,58.190903 67.781982,54.802597 66.709747C51.143494 65.551834,48.800034 62.264847,46.728622 59.032471C44.590851 55.696579,42.481384 52.228882,39.190231 50.005478C31.713760 44.954605,21.763306 47.445740,15.214569 54.078537C2.538116 66.917725,5.667862 86.822708,10.207626 104.689636C15.408722 125.159348,23.653168 146.860748,43.647827 151.255997C57.852844 154.378555,73.792542 145.917236,86.263062 154.229782C97.435165 161.676849,97.454544 177.685959,106.415131 187.340622C116.630905 198.347702,133.607132 198.351410,146.921524 190.483185C160.336075 182.555771,168.524734 167.520630,163.618011 153.228165C159.277283 140.584366,144.840073 133.127548,143.195953 119.623367C141.351761 104.475784,156.321014 93.780914,159.760345 79.368057C164.701279 58.662598,147.575974 41.385986,130.025772 27.950378C114.103745 15.761215,94.919540 4.829361,78.000000 14.113922C69.447678 18.806992,64.482834 27.879379,63.374908 37.613968C62.882538 41.940125,63.155319 46.302063,63.581924 50.632919C63.832520 53.177017,64.136047 55.715469,64.425537 58.255402C64.714676 60.792297,64.989883 63.331085,65.186478 65.876877C65.503113 69.977051,65.695679 74.276291,68.176819 77.569427C71.369308 81.806732,76.956818 82.807907,82.203766 83.667053C92.277313 85.316513,102.401535 87.362579,112.576920 86.378036C128.590973 84.828537,143.886612 75.883438,159.760345 79.368057C177.090027 83.172287,188.355927 99.481445,188.734970 117.507950C189.087357 134.266602,179.558075 150.101074,163.618011 153.228165C150.964844 155.710449,137.060135 148.332336,125.745895 155.199127C114.572296 161.980560,114.530685 177.509537,106.415131 187.340622C96.372772 199.505814,78.502243 200.451569,64.244232 192.641266C49.138855 184.366791,40.040543 167.875702,43.647827 151.255997C47.068222 135.497330,61.185043 125.291748,69.966675 111.949692C75.644623 103.323105,78.995209 93.471802,82.203766 83.667053C83.696396 79.105865,85.168198 74.365005,84.139069 69.667007C83.381897 66.210541,81.317703 63.176208,78.356064 61.240555C76.755463 60.194443,75.059738 58.865891,75.777374 57.296417" style="stroke:rgb(0.000000%,0.000000%,0.000000%); stroke-width: 0.498138;stroke-linecap: round;stroke-linejoin: round;stroke-miterlimit: 10.000000;fill: none;"></path>
  <path d="M75.777374 57.296417C76.448273 55.829147,77.190018 54.395325,78.000000 53.000000" style="stroke:rgb(0.000000%,0.000000%,0.000000%); stroke-width: 1.494400;stroke-linecap: round;stroke-linejoin: round;stroke-miterlimit: 10.000000;fill: none;"></path>
  <path d="M82.203766 83.667053C83.696396 79.105865,85.168198 74.365005,84.139069 69.667007C83.381897 66.210541,81.317703 63.176208,78.356064 61.240555C76.755463 60.194443,75.059738 58.865891,75.777374 57.296417" style="stroke:rgb(0.000000%,0.000000%,0.000000%); stroke-width: 1.494400;stroke-linecap: round;stroke-linejoin: round;stroke-miterlimit: 10.000000;fill: none;"></path>
  <path d="M80.988739 53.000000C80.988739 52.207306,80.673798 51.447159,80.113312 50.886688C79.552841 50.326202,78.792694 50.011261,78.000000 50.011261C77.207306 50.011261,76.447159 50.326202,75.886688 50.886688C75.326202 51.447159,75.011261 52.207306,75.011261 53.000000C75.011261 53.792694,75.326202 54.552841,75.886688 55.113312C76.447159 55.673798,77.207306 55.988739,78.000000 55.988739C78.792694 55.988739,79.552841 55.673798,80.113312 55.113312C80.673798 54.552841,80.988739 53.792694,80.988739 53.000000Z" style="fill: rgb(100.000000%,100.000000%,100.000000%);stroke: none;"></path>
  <path d="M74.657303 51.843964C75.769073 52.234802,76.873276 52.654861,78.000000 53.000000C79.179230 53.361237,80.419922 53.783249,81.370941 54.405258" style="stroke:rgb(0.000000%,0.000000%,0.000000%); stroke-width: 0.498138;stroke-linecap: round;stroke-linejoin: round;stroke-miterlimit: 10.000000;fill: none;"></path>
  <path d="M18.203308 54.078537C18.203308 53.285843,17.888367 52.525696,17.327881 51.965225C16.767410 51.404739,16.007263 51.089798,15.214569 51.089798C14.421875 51.089798,13.661728 51.404739,13.101257 51.965225C12.540771 52.525696,12.225830 53.285843,12.225830 54.078537C12.225830 54.871231,12.540771 55.631378,13.101257 56.191849C13.661728 56.752335,14.421875 57.067276,15.214569 57.067276C16.007263 57.067276,16.767410 56.752335,17.327881 56.191849C17.888367 55.631378,18.203308 54.871231,18.203308 54.078537Z" style="fill: rgb(100.000000%,100.000000%,100.000000%);stroke: none;"></path>
  <path d="M26.854492 47.660645C22.613724 48.481171,18.488937 50.762146,15.214569 54.078537C8.876343 60.498138,6.489670 68.684189,6.255020 77.498703" style="stroke:rgb(0.000000%,0.000000%,0.000000%); stroke-width: 0.498138;stroke-linecap: round;stroke-linejoin: round;stroke-miterlimit: 10.000000;fill: none;"></path>
  <path d="M66.570663 50.632919C66.570663 49.840225,66.255722 49.080078,65.695236 48.519608C65.134766 47.959122,64.374619 47.644180,63.581924 47.644180C62.789230 47.644180,62.029083 47.959122,61.468613 48.519608C60.908127 49.080078,60.593185 49.840225,60.593185 50.632919C60.593185 51.425613,60.908127 52.185760,61.468613 52.746231C62.029083 53.306717,62.789230 53.621658,63.581924 53.621658C64.374619 53.621658,65.134766 53.306717,65.695236 52.746231C66.255722 52.185760,66.570663 51.425613,66.570663 50.632919Z" style="fill: rgb(100.000000%,100.000000%,100.000000%);stroke: none;"></path>
  <path d="M63.133804 44.121689C63.193787 46.294296,63.368622 48.467499,63.581924 50.632919C63.707230 51.904968,63.845764 53.175613,63.989151 54.445740" style="stroke:rgb(0.000000%,0.000000%,0.000000%); stroke-width: 0.498138;stroke-linecap: round;stroke-linejoin: round;stroke-miterlimit: 10.000000;fill: none;"></path>
  <path d="M81.344803 61.240555C81.344803 60.447861,81.029861 59.687714,80.469376 59.127243C79.908905 58.566757,79.148758 58.251816,78.356064 58.251816C77.563370 58.251816,76.803223 58.566757,76.242752 59.127243C75.682266 59.687714,75.367325 60.447861,75.367325 61.240555C75.367325 62.033249,75.682266 62.793396,76.242752 63.353867C76.803223 63.914352,77.563370 64.229294,78.356064 64.229294C79.148758 64.229294,79.908905 63.914352,80.469376 63.353867C81.029861 62.793396,81.344803 62.033249,81.344803 61.240555Z" style="fill: rgb(100.000000%,100.000000%,100.000000%);stroke: none;"></path>
  <path d="M82.074234 64.883469C81.093338 63.450867,79.836884 62.208374,78.356064 61.240555C77.555756 60.717499,76.731674 60.123825,76.197372 59.464737" style="stroke:rgb(0.000000%,0.000000%,0.000000%); stroke-width: 1.494400;stroke-linecap: round;stroke-linejoin: round;stroke-miterlimit: 10.000000;fill: none;"></path>
  <path d="M49.717361 59.032471C49.717361 58.239777,49.402420 57.479630,48.841934 56.919159C48.281464 56.358673,47.521317 56.043732,46.728622 56.043732C45.935928 56.043732,45.175781 56.358673,44.615311 56.919159C44.054825 57.479630,43.739883 58.239777,43.739883 59.032471C43.739883 59.825165,44.054825 60.585312,44.615311 61.145782C45.175781 61.706268,45.935928 62.021210,46.728622 62.021210C47.521317 62.021210,48.281464 61.706268,48.841934 61.145782C49.402420 60.585312,49.717361 59.825165,49.717361 59.032471Z" style="fill: rgb(100.000000%,100.000000%,100.000000%);stroke: none;"></path>
  <path d="M42.412918 64.419128C43.969925 62.760147,45.339462 60.856430,46.728622 59.032471C47.772003 57.662521,48.868210 56.308075,50.095764 55.116821" style="stroke:rgb(0.000000%,0.000000%,0.000000%); stroke-width: 0.498138;stroke-linecap: round;stroke-linejoin: round;stroke-miterlimit: 10.000000;fill: none;"></path>
  <path d="M46.636566 151.255997C46.636566 150.463303,46.321625 149.703156,45.761139 149.142685C45.200668 148.582199,44.440521 148.267258,43.647827 148.267258C42.855133 148.267258,42.094986 148.582199,41.534515 149.142685C40.974030 149.703156,40.659088 150.463303,40.659088 151.255997C40.659088 152.048691,40.974030 152.808838,41.534515 153.369308C42.094986 153.929794,42.855133 154.244736,43.647827 154.244736C44.440521 154.244736,45.200668 153.929794,45.761139 153.369308C46.321625 152.808838,46.636566 152.048691,46.636566 151.255997Z" style="fill: rgb(100.000000%,100.000000%,100.000000%);stroke: none;"></path>
  <path d="M46.928772 175.078079C43.216934 167.843536,41.844193 159.565842,43.647827 151.255997C45.358032 143.376663,49.742340 136.885590,54.796799 130.696594" style="stroke:rgb(0.000000%,0.000000%,0.000000%); stroke-width: 0.498138;stroke-linecap: round;stroke-linejoin: round;stroke-miterlimit: 10.000000;fill: none;"></path>
  <path d="M166.606750 153.228165C166.606750 152.435471,166.291809 151.675323,165.731323 151.114853C165.170853 150.554367,164.410706 150.239426,163.618011 150.239426C162.825317 150.239426,162.065170 150.554367,161.504700 151.114853C160.944214 151.675323,160.629272 152.435471,160.629272 153.228165C160.629272 154.020859,160.944214 154.781006,161.504700 155.341476C162.065170 155.901962,162.825317 156.216904,163.618011 156.216904C164.410706 156.216904,165.170853 155.901962,165.731323 155.341476C166.291809 154.781006,166.606750 154.020859,166.606750 153.228165Z" style="fill: rgb(100.000000%,100.000000%,100.000000%);stroke: none;"></path>
  <path d="M182.286148 140.479904C177.955368 146.924240,171.588043 151.664627,163.618011 153.228165C157.291428 154.469315,150.651947 153.245346,144.179840 152.569443" style="stroke:rgb(0.000000%,0.000000%,0.000000%); stroke-width: 0.498138;stroke-linecap: round;stroke-linejoin: round;stroke-miterlimit: 10.000000;fill: none;"></path>
  <path d="M80.988739 14.113922C80.988739 13.321228,80.673798 12.561081,80.113312 12.000610C79.552841 11.440125,78.792694 11.125183,78.000000 11.125183C77.207306 11.125183,76.447159 11.440125,75.886688 12.000610C75.326202 12.561081,75.011261 13.321228,75.011261 14.113922C75.011261 14.906616,75.326202 15.666763,75.886688 16.227234C76.447159 16.787720,77.207306 17.102661,78.000000 17.102661C78.792694 17.102661,79.552841 16.787720,80.113312 16.227234C80.673798 15.666763,80.988739 14.906616,80.988739 14.113922Z" style="fill: rgb(100.000000%,100.000000%,100.000000%);stroke: none;"></path>
  <path d="M85.512482 26.906998C84.374039 22.096146,81.810684 17.612930,78.000000 14.113922C71.939117 8.548752,64.272781 6.313034,56.358902 6.670242" style="stroke:rgb(0.000000%,0.000000%,0.000000%); stroke-width: 0.498138;stroke-linecap: round;stroke-linejoin: round;stroke-miterlimit: 10.000000;fill: none;"></path>
  <path d="M68.175217 65.876877C68.175217 65.084183,67.860275 64.324036,67.299789 63.763565C66.739319 63.203079,65.979172 62.888138,65.186478 62.888138C64.393784 62.888138,63.633636 63.203079,63.073166 63.763565C62.512680 64.324036,62.197739 65.084183,62.197739 65.876877C62.197739 66.669571,62.512680 67.429718,63.073166 67.990189C63.633636 68.550674,64.393784 68.865616,65.186478 68.865616C65.979172 68.865616,66.739319 68.550674,67.299789 67.990189C67.860275 67.429718,68.175217 66.669571,68.175217 65.876877Z" style="fill: rgb(100.000000%,100.000000%,100.000000%);stroke: none;"></path>
  <path d="M68.794861 65.068680C67.596481 65.352646,66.386017 65.596527,65.186478 65.876877C63.462143 66.279892,61.713242 66.756165,59.971893 66.997665" style="stroke:rgb(0.000000%,0.000000%,0.000000%); stroke-width: 0.498138;stroke-linecap: round;stroke-linejoin: round;stroke-miterlimit: 10.000000;fill: none;"></path>
  <path d="M162.749084 79.368057C162.749084 78.575363,162.434143 77.815216,161.873657 77.254745C161.313187 76.694260,160.553040 76.379318,159.760345 76.379318C158.967651 76.379318,158.207504 76.694260,157.647034 77.254745C157.086548 77.815216,156.771606 78.575363,156.771606 79.368057C156.771606 80.160751,157.086548 80.920898,157.647034 81.481369C158.207504 82.041855,158.967651 82.356796,159.760345 82.356796C160.553040 82.356796,161.313187 82.041855,161.873657 81.481369C162.434143 80.920898,162.749084 80.160751,162.749084 79.368057Z" style="fill: rgb(100.000000%,100.000000%,100.000000%);stroke: none;"></path>
  <path d="M149.496841 99.220184C153.438538 92.851410,158.040680 86.574478,159.760345 79.368057C162.230820 69.015320,159.184723 59.519806,153.327225 50.933014" style="stroke:rgb(0.000000%,0.000000%,0.000000%); stroke-width: 0.498138;stroke-linecap: round;stroke-linejoin: round;stroke-miterlimit: 10.000000;fill: none;"></path>
  <path d="M109.403870 187.340622C109.403870 186.547928,109.088928 185.787781,108.528442 185.227310C107.967972 184.666824,107.207825 184.351883,106.415131 184.351883C105.622437 184.351883,104.862289 184.666824,104.301819 185.227310C103.741333 185.787781,103.426392 186.547928,103.426392 187.340622C103.426392 188.133316,103.741333 188.893463,104.301819 189.453934C104.862289 190.014420,105.622437 190.329361,106.415131 190.329361C107.207825 190.329361,107.967972 190.014420,108.528442 189.453934C109.088928 188.893463,109.403870 188.133316,109.403870 187.340622Z" style="fill: rgb(100.000000%,100.000000%,100.000000%);stroke: none;"></path>
  <path d="M97.168427 169.957367C99.689850 176.097351,101.934845 182.513290,106.415131 187.340622C111.523026 192.844162,118.321030 195.596863,125.506363 195.990143" style="stroke:rgb(0.000000%,0.000000%,0.000000%); stroke-width: 0.498138;stroke-linecap: round;stroke-linejoin: round;stroke-miterlimit: 10.000000;fill: none;"></path>
  <path d="M85.192505 83.667053C85.192505 82.874359,84.877563 82.114212,84.317078 81.553741C83.756607 80.993256,82.996460 80.678314,82.203766 80.678314C81.411072 80.678314,80.650925 80.993256,80.090454 81.553741C79.529968 82.114212,79.215027 82.874359,79.215027 83.667053C79.215027 84.459747,79.529968 85.219894,80.090454 85.780365C80.650925 86.340851,81.411072 86.655792,82.203766 86.655792C82.996460 86.655792,83.756607 86.340851,84.317078 85.780365C84.877563 85.219894,85.192505 84.459747,85.192505 83.667053Z" style="fill: rgb(100.000000%,100.000000%,100.000000%);stroke: none;"></path>
  <path d="M74.419891 81.885071C76.871689 82.772415,79.580292 83.237488,82.203766 83.667053C87.240540 84.491791,92.289993 85.415680,97.352173 86.010315" style="stroke:rgb(0.000000%,0.000000%,0.000000%); stroke-width: 0.498138;stroke-linecap: round;stroke-linejoin: round;stroke-miterlimit: 10.000000;fill: none;"></path>
  <path d="M75.777374 57.296417C76.314102 56.122604,76.896164 54.970184,77.522232 53.841766" style="stroke:rgb(0.000000%,0.000000%,0.000000%); stroke-width: 0.498138;stroke-linecap: round;stroke-linejoin: round;stroke-miterlimit: 10.000000;fill: none;"></path>
  <path d="M77.522232 53.841766Z" style="stroke:rgb(0.000000%,0.000000%,0.000000%); stroke-width: 0.498138;fill: rgb(0.000000%,0.000000%,0.000000%);"></path>
  <path d="M75.777374 57.296417C76.314102 56.122604,76.896164 54.970184,77.522232 53.841766" style="stroke:rgb(0.000000%,0.000000%,0.000000%); stroke-width: 0.498138;stroke-linecap: round;stroke-linejoin: round;stroke-miterlimit: 10.000000;fill: none;"></path>
  <path d="M77.271347 56.831253C77.324966 55.832443,77.408615 54.835510,77.522232 53.841766C76.739212 54.464111,75.975082 55.109879,75.230911 55.778214Z" style="stroke:rgb(0.000000%,0.000000%,0.000000%); stroke-width: 0.498138;fill: rgb(0.000000%,0.000000%,0.000000%);"></path>
  <path d="M84.475403 41.665909C87.497864 33.970612,86.417801 25.433197,81.962692 18.743057" style="stroke:rgb(0.000000%,0.000000%,0.000000%); stroke-width: 0.498138;stroke-linecap: round;stroke-linejoin: round;stroke-miterlimit: 10.000000;fill: none;"></path>
  <path d="M84.351028 20.558701C83.594849 19.909485,82.797623 19.302811,81.962692 18.743057C82.157242 19.729263,82.291992 20.721954,82.367599 21.715744Z" style="stroke:rgb(0.000000%,0.000000%,0.000000%); stroke-width: 0.498138;fill: rgb(0.000000%,0.000000%,0.000000%);"></path>
  <path d="M54.250885 52.180283C56.571762 51.119156,59.116043 50.853745,61.668976 50.719437" style="stroke:rgb(0.000000%,0.000000%,0.000000%); stroke-width: 0.498138;stroke-linecap: round;stroke-linejoin: round;stroke-miterlimit: 10.000000;fill: none;"></path>
  <path d="M59.006714 52.102432C59.866943 51.601852,60.763474 51.151581,61.668976 50.719437C60.723129 50.384705,59.770782 50.069138,58.808563 49.814804Z" style="stroke:rgb(0.000000%,0.000000%,0.000000%); stroke-width: 0.498138;fill: rgb(0.000000%,0.000000%,0.000000%);"></path>
  <path d="M83.003754 57.010498C83.035812 58.826416,81.454865 59.867722,79.690948 60.672714" style="stroke:rgb(0.000000%,0.000000%,0.000000%); stroke-width: 0.498138;stroke-linecap: round;stroke-linejoin: round;stroke-miterlimit: 10.000000;fill: none;"></path>
  <path d="M81.385132 58.196869C81.070511 59.061722,80.420242 59.889786,79.690948 60.672714C80.760239 60.634811,81.805588 60.509109,82.639618 60.120056Z" style="stroke:rgb(0.000000%,0.000000%,0.000000%); stroke-width: 0.498138;fill: rgb(0.000000%,0.000000%,0.000000%);"></path>
  <path d="M72.330765 64.019882C70.488815 64.725067,68.557053 65.131577,66.629684 65.553070" style="stroke:rgb(0.000000%,0.000000%,0.000000%); stroke-width: 0.498138;stroke-linecap: round;stroke-linejoin: round;stroke-miterlimit: 10.000000;fill: none;"></path>
  <path d="M69.074448 63.814362C68.275009 64.412872,67.451096 64.981415,66.629684 65.553070C67.614731 65.729675,68.599350 65.910278,69.587845 66.052368Z" style="stroke:rgb(0.000000%,0.000000%,0.000000%); stroke-width: 0.498138;fill: rgb(0.000000%,0.000000%,0.000000%);"></path>
  <path d="M39.190231 50.005478C33.209030 45.964767,25.644470 46.750977,19.504944 50.623108" style="stroke:rgb(0.000000%,0.000000%,0.000000%); stroke-width: 0.498138;stroke-linecap: round;stroke-linejoin: round;stroke-miterlimit: 10.000000;fill: none;"></path>
  <path d="M21.392624 48.291351C20.718872 49.019058,20.087753 49.798782,19.504944 50.623108C20.499954 50.452347,21.497559 50.347275,22.488541 50.309143Z" style="stroke:rgb(0.000000%,0.000000%,0.000000%); stroke-width: 0.498138;fill: rgb(0.000000%,0.000000%,0.000000%);"></path>
  <path d="M146.921524 190.483185C157.653198 184.141235,165.040283 173.250305,165.053558 161.829834" style="stroke:rgb(0.000000%,0.000000%,0.000000%); stroke-width: 0.498138;stroke-linecap: round;stroke-linejoin: round;stroke-miterlimit: 10.000000;fill: none;"></path>
  <path d="M166.041336 164.662689C165.765244 163.702759,165.436478 162.757294,165.053558 161.829834C164.668503 162.756409,164.232407 163.657410,163.748856 164.531403Z" style="stroke:rgb(0.000000%,0.000000%,0.000000%); stroke-width: 0.498138;fill: rgb(0.000000%,0.000000%,0.000000%);"></path>
  <path d="M143.195953 119.623367C141.720596 107.505249,151.005920 98.236908,156.539978 87.634857" style="stroke:rgb(0.000000%,0.000000%,0.000000%); stroke-width: 0.498138;stroke-linecap: round;stroke-linejoin: round;stroke-miterlimit: 10.000000;fill: none;"></path>
  <path d="M156.202057 90.615585C156.336517 89.621262,156.452042 88.627335,156.539978 87.634857C155.775986 88.274460,154.991486 88.895554,154.193298 89.503555Z" style="stroke:rgb(0.000000%,0.000000%,0.000000%); stroke-width: 0.498138;fill: rgb(0.000000%,0.000000%,0.000000%);"></path>
  <path d="M64.425537 58.255402C64.656845 60.284927,64.879242 62.315659,65.059601 64.350220" style="stroke:rgb(0.000000%,0.000000%,0.000000%); stroke-width: 0.498138;stroke-linecap: round;stroke-linejoin: round;stroke-miterlimit: 10.000000;fill: none;"></path>
  <path d="M63.647858 61.703094C64.125076 62.581955,64.596832 63.463745,65.059601 64.350220C65.359222 63.396149,65.649185 62.439072,65.933197 61.480194Z" style="stroke:rgb(0.000000%,0.000000%,0.000000%); stroke-width: 0.498138;fill: rgb(0.000000%,0.000000%,0.000000%);"></path>
  <path d="M68.176819 77.569427C70.730820 80.959290,74.817657 82.278015,79.036667 83.109787" style="stroke:rgb(0.000000%,0.000000%,0.000000%); stroke-width: 0.498138;stroke-linecap: round;stroke-linejoin: round;stroke-miterlimit: 10.000000;fill: none;"></path>
  <path d="M76.076248 83.595810C77.060699 83.478241,78.050446 83.307709,79.036667 83.109787C78.199371 82.552368,77.378937 81.973083,76.599686 81.360092Z" style="stroke:rgb(0.000000%,0.000000%,0.000000%); stroke-width: 0.498138;fill: rgb(0.000000%,0.000000%,0.000000%);"></path>
  <path d="M125.745895 155.199127C116.806976 160.624298,114.992584 171.647934,110.469193 180.873901" style="stroke:rgb(0.000000%,0.000000%,0.000000%); stroke-width: 0.498138;stroke-linecap: round;stroke-linejoin: round;stroke-miterlimit: 10.000000;fill: none;"></path>
  <path d="M110.578674 177.875900C110.564926 178.879242,110.532059 179.879501,110.469193 180.873901C111.216812 180.215225,111.947342 179.531189,112.666534 178.831436Z" style="stroke:rgb(0.000000%,0.000000%,0.000000%); stroke-width: 0.498138;fill: rgb(0.000000%,0.000000%,0.000000%);"></path>
  <path d="M64.244232 192.641266C52.159882 186.021667,43.920090 174.143387,42.954529 161.147522" style="stroke:rgb(0.000000%,0.000000%,0.000000%); stroke-width: 0.498138;stroke-linecap: round;stroke-linejoin: round;stroke-miterlimit: 10.000000;fill: none;"></path>
  <path d="M44.418793 163.765991C43.894852 162.916565,43.406052 162.043350,42.954529 161.147522C42.640335 162.100235,42.368515 163.063324,42.138336 164.034454Z" style="stroke:rgb(0.000000%,0.000000%,0.000000%); stroke-width: 0.498138;fill: rgb(0.000000%,0.000000%,0.000000%);"></path>
  <path d="M81.148422 72.377213L87.129715 72.377213L87.129715 64.956818L81.148422 64.956818Z" style="fill: rgb(100.000000%,100.000000%,100.000000%);stroke: none;"></path>
  <path d="M81.148422 74.377213L87.129715 74.377213L87.129715 66.956818L81.148422 66.956818Z" style="fill: rgb(100.000000%,100.000000%,100.000000%);stroke: none;"></path>
  <g transform="translate(81.648422 72.877213)" style="fill: rgb(0.000000%,0.000000%,0.000000%);">
    <use xlink:href="#GLYPHcmr10_49"></use>
  </g>
  <path d="M30.241837 17.494202L36.223129 17.494202L36.223129 10.073807L30.241837 10.073807Z" style="fill: rgb(100.000000%,100.000000%,100.000000%);stroke: none;"></path>
  <path d="M30.241837 19.494202L36.223129 19.494202L36.223129 12.073807L30.241837 12.073807Z" style="fill: rgb(100.000000%,100.000000%,100.000000%);stroke: none;"></path>
  <g transform="translate(30.741837 17.994202)" style="fill: rgb(0.000000%,0.000000%,0.000000%);">
    <use xlink:href="#GLYPHcmr10_50"></use>
  </g>
  <path d="M33.981735 71.047623L39.963028 71.047623L39.963028 63.627228L33.981735 63.627228Z" style="fill: rgb(100.000000%,100.000000%,100.000000%);stroke: none;"></path>
  <path d="M33.981735 73.047623L39.963028 73.047623L39.963028 65.627228L33.981735 65.627228Z" style="fill: rgb(100.000000%,100.000000%,100.000000%);stroke: none;"></path>
  <g transform="translate(34.481735 71.547623)" style="fill: rgb(0.000000%,0.000000%,0.000000%);">
    <use xlink:href="#GLYPHcmr10_51"></use>
  </g>
  <path d="M68.278519 53.573456L74.259811 53.573456L74.259811 46.153061L68.278519 46.153061Z" style="fill: rgb(100.000000%,100.000000%,100.000000%);stroke: none;"></path>
  <path d="M68.278519 55.573456L74.259811 55.573456L74.259811 48.153061L68.278519 48.153061Z" style="fill: rgb(100.000000%,100.000000%,100.000000%);stroke: none;"></path>
  <g transform="translate(68.778519 54.073456)" style="fill: rgb(0.000000%,0.000000%,0.000000%);">
    <use xlink:href="#GLYPHcmr10_52"></use>
  </g>
  <path d="M51.811951 69.419952L57.793243 69.419952L57.793243 61.999557L51.811951 61.999557Z" style="fill: rgb(100.000000%,100.000000%,100.000000%);stroke: none;"></path>
  <path d="M51.811951 71.419952L57.793243 71.419952L57.793243 63.999557L51.811951 63.999557Z" style="fill: rgb(100.000000%,100.000000%,100.000000%);stroke: none;"></path>
  <g transform="translate(52.311951 69.919952)" style="fill: rgb(0.000000%,0.000000%,0.000000%);">
    <use xlink:href="#GLYPHcmr10_53"></use>
  </g>
  <path d="M7.216980 107.399841L13.198273 107.399841L13.198273 99.979446L7.216980 99.979446Z" style="fill: rgb(100.000000%,100.000000%,100.000000%);stroke: none;"></path>
  <path d="M7.216980 109.399841L13.198273 109.399841L13.198273 101.979446L7.216980 101.979446Z" style="fill: rgb(100.000000%,100.000000%,100.000000%);stroke: none;"></path>
  <g transform="translate(7.716980 107.899841)" style="fill: rgb(0.000000%,0.000000%,0.000000%);">
    <use xlink:href="#GLYPHcmr10_54"></use>
  </g>
  <path d="M83.272415 156.939987L89.253708 156.939987L89.253708 149.519592L83.272415 149.519592Z" style="fill: rgb(100.000000%,100.000000%,100.000000%);stroke: none;"></path>
  <path d="M83.272415 158.939987L89.253708 158.939987L89.253708 151.519592L83.272415 151.519592Z" style="fill: rgb(100.000000%,100.000000%,100.000000%);stroke: none;"></path>
  <g transform="translate(83.772415 157.439987)" style="fill: rgb(0.000000%,0.000000%,0.000000%);">
    <use xlink:href="#GLYPHcmr10_55"></use>
  </g>
  <path d="M127.035126 30.660583L133.016418 30.660583L133.016418 23.240189L127.035126 23.240189Z" style="fill: rgb(100.000000%,100.000000%,100.000000%);stroke: none;"></path>
  <path d="M127.035126 32.660583L133.016418 32.660583L133.016418 25.240189L127.035126 25.240189Z" style="fill: rgb(100.000000%,100.000000%,100.000000%);stroke: none;"></path>
  <g transform="translate(127.535126 31.160583)" style="fill: rgb(0.000000%,0.000000%,0.000000%);">
    <use xlink:href="#GLYPHcmr10_56"></use>
  </g>
  <path d="M60.384262 40.324173L66.365555 40.324173L66.365555 32.903778L60.384262 32.903778Z" style="fill: rgb(100.000000%,100.000000%,100.000000%);stroke: none;"></path>
  <path d="M60.384262 42.324173L66.365555 42.324173L66.365555 34.903778L60.384262 34.903778Z" style="fill: rgb(100.000000%,100.000000%,100.000000%);stroke: none;"></path>
  <g transform="translate(60.884262 40.824173)" style="fill: rgb(0.000000%,0.000000%,0.000000%);">
    <use xlink:href="#GLYPHcmr10_57"></use>
  </g>
  <path d="M107.095566 89.088242L118.058273 89.088242L118.058273 81.667847L107.095566 81.667847Z" style="fill: rgb(100.000000%,100.000000%,100.000000%);stroke: none;"></path>
  <path d="M107.095566 91.088242L118.058273 91.088242L118.058273 83.667847L107.095566 83.667847Z" style="fill: rgb(100.000000%,100.000000%,100.000000%);stroke: none;"></path>
  <g transform="translate(107.595566 89.588242)" style="fill: rgb(0.000000%,0.000000%,0.000000%);">
    <use xlink:href="#GLYPHcmr10_49"></use>
    <use xlink:href="#GLYPHcmr10_48" x="5.000095"></use>
  </g>
  <path d="M183.253616 120.218155L194.216324 120.218155L194.216324 112.797760L183.253616 112.797760Z" style="fill: rgb(100.000000%,100.000000%,100.000000%);stroke: none;"></path>
  <path d="M183.253616 122.218155L194.216324 122.218155L194.216324 114.797760L183.253616 114.797760Z" style="fill: rgb(100.000000%,100.000000%,100.000000%);stroke: none;"></path>
  <g transform="translate(183.753616 120.718155)" style="fill: rgb(0.000000%,0.000000%,0.000000%);">
    <use xlink:href="#GLYPHcmr10_49"></use>
    <use xlink:href="#GLYPHcmr10_49" x="5.000095"></use>
  </g>
  <path d="M64.485321 114.659897L75.448029 114.659897L75.448029 107.239502L64.485321 107.239502Z" style="fill: rgb(100.000000%,100.000000%,100.000000%);stroke: none;"></path>
  <path d="M64.485321 116.659897L75.448029 116.659897L75.448029 109.239502L64.485321 109.239502Z" style="fill: rgb(100.000000%,100.000000%,100.000000%);stroke: none;"></path>
  <g transform="translate(64.985321 115.159897)" style="fill: rgb(0.000000%,0.000000%,0.000000%);">
    <use xlink:href="#GLYPHcmr10_49"></use>
    <use xlink:href="#GLYPHcmr10_50" x="5.000095"></use>
  </g>
</svg>
