<?xml version="1.0"?>
<!-- Created by MetaPost 1.999 on 2021.07.06:0009 -->
<svg version="1.1" xmlns="http://www.w3.org/2000/svg" xmlns:xlink="http://www.w3.org/1999/xlink" width="190.352722" height="188.210617" viewBox="0 0 190.352722 188.210617">
<!-- Original BoundingBox: -104.959534 -86.693253 85.393188 101.517365 -->
  <defs>
    <g transform="scale(0.009963,0.009963)" id="GLYPHcmr10_48">
      <path style="fill-rule: evenodd;" d="M460.000000 -320.000000C460.000000 -400.000000,455.000000 -480.000000,420.000000 -554.000000C374.000000 -650.000000,292.000000 -666.000000,250.000000 -666.000000C190.000000 -666.000000,117.000000 -640.000000,76.000000 -547.000000C44.000000 -478.000000,39.000000 -400.000000,39.000000 -320.000000C39.000000 -245.000000,43.000000 -155.000000,84.000000 -79.000000C127.000000 2.000000,200.000000 22.000000,249.000000 22.000000C303.000000 22.000000,379.000000 1.000000,423.000000 -94.000000C455.000000 -163.000000,460.000000 -241.000000,460.000000 -320.000000M249.000000 -0.000000C210.000000 -0.000000,151.000000 -25.000000,133.000000 -121.000000C122.000000 -181.000000,122.000000 -273.000000,122.000000 -332.000000C122.000000 -396.000000,122.000000 -462.000000,130.000000 -516.000000C149.000000 -635.000000,224.000000 -644.000000,249.000000 -644.000000C282.000000 -644.000000,348.000000 -626.000000,367.000000 -527.000000C377.000000 -471.000000,377.000000 -395.000000,377.000000 -332.000000C377.000000 -257.000000,377.000000 -189.000000,366.000000 -125.000000C351.000000 -30.000000,294.000000 -0.000000,249.000000 -0.000000"></path>
    </g>
    <g transform="scale(0.009963,0.009963)" id="GLYPHcmr10_49">
      <path style="fill-rule: evenodd;" d="M294.000000 -640.000000C294.000000 -664.000000,294.000000 -666.000000,271.000000 -666.000000C209.000000 -602.000000,121.000000 -602.000000,89.000000 -602.000000L89.000000 -571.000000C109.000000 -571.000000,168.000000 -571.000000,220.000000 -597.000000L220.000000 -79.000000C220.000000 -43.000000,217.000000 -31.000000,127.000000 -31.000000L95.000000 -31.000000L95.000000 -0.000000L257.000000 -0.000000L130.000000 -3.000000L217.000000 -3.000000L257.000000 -3.000000L297.000000 -3.000000L384.000000 -3.000000L419.000000 -0.000000L419.000000 -31.000000L387.000000 -31.000000C297.000000 -31.000000,294.000000 -42.000000,294.000000 -79.000000"></path>
    </g>
    <g transform="scale(0.009963,0.009963)" id="GLYPHcmr10_50">
      <path style="fill-rule: evenodd;" d="M127.000000 -77.000000L233.000000 -180.000000C389.000000 -318.000000,449.000000 -372.000000,449.000000 -472.000000C449.000000 -586.000000,359.000000 -666.000000,237.000000 -666.000000C124.000000 -666.000000,50.000000 -574.000000,50.000000 -485.000000C50.000000 -429.000000,100.000000 -429.000000,103.000000 -429.000000C120.000000 -429.000000,155.000000 -441.000000,155.000000 -482.000000C155.000000 -508.000000,137.000000 -534.000000,102.000000 -534.000000C94.000000 -534.000000,92.000000 -534.000000,89.000000 -533.000000C112.000000 -598.000000,166.000000 -635.000000,224.000000 -635.000000C315.000000 -635.000000,358.000000 -554.000000,358.000000 -472.000000C358.000000 -392.000000,308.000000 -313.000000,253.000000 -251.000000L61.000000 -37.000000C50.000000 -26.000000,50.000000 -24.000000,50.000000 -0.000000L421.000000 -0.000000L449.000000 -174.000000L424.000000 -174.000000C419.000000 -144.000000,412.000000 -100.000000,402.000000 -85.000000C395.000000 -77.000000,329.000000 -77.000000,307.000000 -77.000000"></path>
    </g>
    <g transform="scale(0.009963,0.009963)" id="GLYPHcmr10_51">
      <path style="fill-rule: evenodd;" d="M290.000000 -352.000000C372.000000 -379.000000,430.000000 -449.000000,430.000000 -528.000000C430.000000 -610.000000,342.000000 -666.000000,246.000000 -666.000000C145.000000 -666.000000,69.000000 -606.000000,69.000000 -530.000000C69.000000 -497.000000,91.000000 -478.000000,120.000000 -478.000000C151.000000 -478.000000,171.000000 -500.000000,171.000000 -529.000000C171.000000 -579.000000,124.000000 -579.000000,109.000000 -579.000000C140.000000 -628.000000,206.000000 -641.000000,242.000000 -641.000000C283.000000 -641.000000,338.000000 -619.000000,338.000000 -529.000000C338.000000 -517.000000,336.000000 -459.000000,310.000000 -415.000000C280.000000 -367.000000,246.000000 -364.000000,221.000000 -363.000000C213.000000 -362.000000,189.000000 -360.000000,182.000000 -360.000000C174.000000 -359.000000,167.000000 -358.000000,167.000000 -348.000000C167.000000 -337.000000,174.000000 -337.000000,191.000000 -337.000000L235.000000 -337.000000C317.000000 -337.000000,354.000000 -269.000000,354.000000 -171.000000C354.000000 -35.000000,285.000000 -6.000000,241.000000 -6.000000C198.000000 -6.000000,123.000000 -23.000000,88.000000 -82.000000C123.000000 -77.000000,154.000000 -99.000000,154.000000 -137.000000C154.000000 -173.000000,127.000000 -193.000000,98.000000 -193.000000C74.000000 -193.000000,42.000000 -179.000000,42.000000 -135.000000C42.000000 -44.000000,135.000000 22.000000,244.000000 22.000000C366.000000 22.000000,457.000000 -69.000000,457.000000 -171.000000C457.000000 -253.000000,394.000000 -331.000000,290.000000 -352.000000"></path>
    </g>
    <g transform="scale(0.009963,0.009963)" id="GLYPHcmr10_52">
      <path style="fill-rule: evenodd;" d="M294.000000 -165.000000L294.000000 -78.000000C294.000000 -42.000000,292.000000 -31.000000,218.000000 -31.000000L197.000000 -31.000000L197.000000 -0.000000L332.000000 -0.000000L238.000000 -3.000000L290.000000 -3.000000L332.000000 -3.000000L374.000000 -3.000000L427.000000 -3.000000L468.000000 -0.000000L468.000000 -31.000000L447.000000 -31.000000C373.000000 -31.000000,371.000000 -42.000000,371.000000 -78.000000L371.000000 -165.000000L471.000000 -165.000000L471.000000 -196.000000L371.000000 -196.000000L371.000000 -651.000000C371.000000 -671.000000,371.000000 -677.000000,355.000000 -677.000000C346.000000 -677.000000,343.000000 -677.000000,335.000000 -665.000000L28.000000 -196.000000L28.000000 -165.000000M300.000000 -196.000000L56.000000 -196.000000L300.000000 -569.000000"></path>
    </g>
    <g transform="scale(0.009963,0.009963)" id="GLYPHcmr10_53">
      <path style="fill-rule: evenodd;" d="M449.000000 -201.000000C449.000000 -320.000000,367.000000 -420.000000,259.000000 -420.000000C211.000000 -420.000000,168.000000 -404.000000,132.000000 -369.000000L132.000000 -564.000000C152.000000 -558.000000,185.000000 -551.000000,217.000000 -551.000000C340.000000 -551.000000,410.000000 -642.000000,410.000000 -655.000000C410.000000 -661.000000,407.000000 -666.000000,400.000000 -666.000000C399.000000 -666.000000,397.000000 -666.000000,392.000000 -663.000000C372.000000 -654.000000,323.000000 -634.000000,256.000000 -634.000000C216.000000 -634.000000,170.000000 -641.000000,123.000000 -662.000000C115.000000 -665.000000,113.000000 -665.000000,111.000000 -665.000000C101.000000 -665.000000,101.000000 -657.000000,101.000000 -641.000000L101.000000 -345.000000C101.000000 -327.000000,101.000000 -319.000000,115.000000 -319.000000C122.000000 -319.000000,124.000000 -322.000000,128.000000 -328.000000C139.000000 -344.000000,176.000000 -398.000000,257.000000 -398.000000C309.000000 -398.000000,334.000000 -352.000000,342.000000 -334.000000C358.000000 -297.000000,360.000000 -258.000000,360.000000 -208.000000C360.000000 -173.000000,360.000000 -113.000000,336.000000 -71.000000C312.000000 -32.000000,275.000000 -6.000000,229.000000 -6.000000C156.000000 -6.000000,99.000000 -59.000000,82.000000 -118.000000C85.000000 -117.000000,88.000000 -116.000000,99.000000 -116.000000C132.000000 -116.000000,149.000000 -141.000000,149.000000 -165.000000C149.000000 -189.000000,132.000000 -214.000000,99.000000 -214.000000C85.000000 -214.000000,50.000000 -207.000000,50.000000 -161.000000C50.000000 -75.000000,119.000000 22.000000,231.000000 22.000000C347.000000 22.000000,449.000000 -74.000000,449.000000 -201.000000"></path>
    </g>
    <g transform="scale(0.009963,0.009963)" id="GLYPHcmr10_54">
      <path style="fill-rule: evenodd;" d="M132.000000 -328.000000L132.000000 -352.000000C132.000000 -605.000000,256.000000 -641.000000,307.000000 -641.000000C331.000000 -641.000000,373.000000 -635.000000,395.000000 -601.000000C380.000000 -601.000000,340.000000 -601.000000,340.000000 -556.000000C340.000000 -525.000000,364.000000 -510.000000,386.000000 -510.000000C402.000000 -510.000000,432.000000 -519.000000,432.000000 -558.000000C432.000000 -618.000000,388.000000 -666.000000,305.000000 -666.000000C177.000000 -666.000000,42.000000 -537.000000,42.000000 -316.000000C42.000000 -49.000000,158.000000 22.000000,251.000000 22.000000C362.000000 22.000000,457.000000 -72.000000,457.000000 -204.000000C457.000000 -331.000000,368.000000 -427.000000,257.000000 -427.000000C189.000000 -427.000000,152.000000 -376.000000,132.000000 -328.000000M251.000000 -6.000000C188.000000 -6.000000,158.000000 -66.000000,152.000000 -81.000000C134.000000 -128.000000,134.000000 -208.000000,134.000000 -226.000000C134.000000 -304.000000,166.000000 -404.000000,256.000000 -404.000000C272.000000 -404.000000,318.000000 -404.000000,349.000000 -342.000000C367.000000 -305.000000,367.000000 -254.000000,367.000000 -205.000000C367.000000 -157.000000,367.000000 -107.000000,350.000000 -71.000000C320.000000 -11.000000,274.000000 -6.000000,251.000000 -6.000000"></path>
    </g>
    <g transform="scale(0.009963,0.009963)" id="GLYPHcmr10_55">
      <path style="fill-rule: evenodd;" d="M476.000000 -609.000000C485.000000 -621.000000,485.000000 -623.000000,485.000000 -644.000000L242.000000 -644.000000C120.000000 -644.000000,118.000000 -657.000000,114.000000 -676.000000L89.000000 -676.000000L56.000000 -470.000000L81.000000 -470.000000C84.000000 -486.000000,93.000000 -549.000000,106.000000 -561.000000C113.000000 -567.000000,191.000000 -567.000000,204.000000 -567.000000L411.000000 -567.000000C400.000000 -551.000000,321.000000 -442.000000,299.000000 -409.000000C209.000000 -274.000000,176.000000 -135.000000,176.000000 -33.000000C176.000000 -23.000000,176.000000 22.000000,222.000000 22.000000C268.000000 22.000000,268.000000 -23.000000,268.000000 -33.000000L268.000000 -84.000000C268.000000 -139.000000,271.000000 -194.000000,279.000000 -248.000000C283.000000 -271.000000,297.000000 -357.000000,341.000000 -419.000000"></path>
    </g>
    <g transform="scale(0.009963,0.009963)" id="GLYPHcmr10_56">
      <path style="fill-rule: evenodd;" d="M163.000000 -457.000000C117.000000 -487.000000,113.000000 -521.000000,113.000000 -538.000000C113.000000 -599.000000,178.000000 -641.000000,249.000000 -641.000000C322.000000 -641.000000,386.000000 -589.000000,386.000000 -517.000000C386.000000 -460.000000,347.000000 -412.000000,287.000000 -377.000000M309.000000 -362.000000C381.000000 -399.000000,430.000000 -451.000000,430.000000 -517.000000C430.000000 -609.000000,341.000000 -666.000000,250.000000 -666.000000C150.000000 -666.000000,69.000000 -592.000000,69.000000 -499.000000C69.000000 -481.000000,71.000000 -436.000000,113.000000 -389.000000C124.000000 -377.000000,161.000000 -352.000000,186.000000 -335.000000C128.000000 -306.000000,42.000000 -250.000000,42.000000 -151.000000C42.000000 -45.000000,144.000000 22.000000,249.000000 22.000000C362.000000 22.000000,457.000000 -61.000000,457.000000 -168.000000C457.000000 -204.000000,446.000000 -249.000000,408.000000 -291.000000C389.000000 -312.000000,373.000000 -322.000000,309.000000 -362.000000M209.000000 -320.000000L332.000000 -242.000000C360.000000 -223.000000,407.000000 -193.000000,407.000000 -132.000000C407.000000 -58.000000,332.000000 -6.000000,250.000000 -6.000000C164.000000 -6.000000,92.000000 -68.000000,92.000000 -151.000000C92.000000 -209.000000,124.000000 -273.000000,209.000000 -320.000000"></path>
    </g>
    <g transform="scale(0.009963,0.009963)" id="GLYPHcmr10_57">
      <path style="fill-rule: evenodd;" d="M367.000000 -318.000000L367.000000 -286.000000C367.000000 -52.000000,263.000000 -6.000000,205.000000 -6.000000C188.000000 -6.000000,134.000000 -8.000000,107.000000 -42.000000C151.000000 -42.000000,159.000000 -71.000000,159.000000 -88.000000C159.000000 -119.000000,135.000000 -134.000000,113.000000 -134.000000C97.000000 -134.000000,67.000000 -125.000000,67.000000 -86.000000C67.000000 -19.000000,121.000000 22.000000,206.000000 22.000000C335.000000 22.000000,457.000000 -114.000000,457.000000 -329.000000C457.000000 -598.000000,342.000000 -666.000000,253.000000 -666.000000C198.000000 -666.000000,149.000000 -648.000000,106.000000 -603.000000C65.000000 -558.000000,42.000000 -516.000000,42.000000 -441.000000C42.000000 -316.000000,130.000000 -218.000000,242.000000 -218.000000C303.000000 -218.000000,344.000000 -260.000000,367.000000 -318.000000M243.000000 -241.000000C227.000000 -241.000000,181.000000 -241.000000,150.000000 -304.000000C132.000000 -341.000000,132.000000 -391.000000,132.000000 -440.000000C132.000000 -494.000000,132.000000 -541.000000,153.000000 -578.000000C180.000000 -628.000000,218.000000 -641.000000,253.000000 -641.000000C299.000000 -641.000000,332.000000 -607.000000,349.000000 -562.000000C361.000000 -530.000000,365.000000 -467.000000,365.000000 -421.000000C365.000000 -338.000000,331.000000 -241.000000,243.000000 -241.000000"></path>
    </g>
  </defs>
  <path d="M101.269287 119.106110C101.269287 118.313416,100.954346 117.553268,100.393860 116.992798C99.833389 116.432312,99.073242 116.117371,98.280548 116.117371C97.487854 116.117371,96.727707 116.432312,96.167236 116.992798C95.606750 117.553268,95.291809 118.313416,95.291809 119.106110C95.291809 119.898804,95.606750 120.658951,96.167236 121.219421C96.727707 121.779907,97.487854 122.094849,98.280548 122.094849C99.073242 122.094849,99.833389 121.779907,100.393860 121.219421C100.954346 120.658951,101.269287 119.898804,101.269287 119.106110Z" style="fill: rgb(100.000000%,100.000000%,100.000000%);stroke: none;"></path>
  <path d="M99.216217 128.375458C99.216217 127.582764,98.901276 126.822617,98.340790 126.262146C97.780319 125.701660,97.020172 125.386719,96.227478 125.386719C95.434784 125.386719,94.674637 125.701660,94.114166 126.262146C93.553680 126.822617,93.238739 127.582764,93.238739 128.375458C93.238739 129.168152,93.553680 129.928299,94.114166 130.488770C94.674637 131.049255,95.434784 131.364197,96.227478 131.364197C97.020172 131.364197,97.780319 131.049255,98.340790 130.488770C98.901276 129.928299,99.216217 129.168152,99.216217 128.375458Z" style="fill: rgb(100.000000%,100.000000%,100.000000%);stroke: none;"></path>
  <path d="M109.514557 93.751755C109.514557 92.959061,109.199615 92.198914,108.639130 91.638443C108.078659 91.077957,107.318512 90.763016,106.525818 90.763016C105.733124 90.763016,104.972977 91.077957,104.412506 91.638443C103.852020 92.198914,103.537079 92.959061,103.537079 93.751755C103.537079 94.544449,103.852020 95.304596,104.412506 95.865067C104.972977 96.425552,105.733124 96.740494,106.525818 96.740494C107.318512 96.740494,108.078659 96.425552,108.639130 95.865067C109.199615 95.304596,109.514557 94.544449,109.514557 93.751755Z" style="fill: rgb(100.000000%,100.000000%,100.000000%);stroke: none;"></path>
  <path d="M103.864594 109.965240C103.864594 109.172546,103.549652 108.412399,102.989166 107.851929C102.428696 107.291443,101.668549 106.976501,100.875854 106.976501C100.083160 106.976501,99.323013 107.291443,98.762543 107.851929C98.202057 108.412399,97.887115 109.172546,97.887115 109.965240C97.887115 110.757935,98.202057 111.518082,98.762543 112.078552C99.323013 112.639038,100.083160 112.953979,100.875854 112.953979C101.668549 112.953979,102.428696 112.639038,102.989166 112.078552C103.549652 111.518082,103.864594 110.757935,103.864594 109.965240Z" style="fill: rgb(100.000000%,100.000000%,100.000000%);stroke: none;"></path>
  <path d="M112.321075 71.512070C112.321075 70.719376,112.006134 69.959229,111.445648 69.398758C110.885178 68.838272,110.125031 68.523331,109.332336 68.523331C108.539642 68.523331,107.779495 68.838272,107.219025 69.398758C106.658539 69.959229,106.343597 70.719376,106.343597 71.512070C106.343597 72.304764,106.658539 73.064911,107.219025 73.625381C107.779495 74.185867,108.539642 74.500809,109.332336 74.500809C110.125031 74.500809,110.885178 74.185867,111.445648 73.625381C112.006134 73.064911,112.321075 72.304764,112.321075 71.512070Z" style="fill: rgb(100.000000%,100.000000%,100.000000%);stroke: none;"></path>
  <path d="M112.406693 86.477615C112.406693 85.684921,112.091751 84.924774,111.531265 84.364304C110.970795 83.803818,110.210648 83.488876,109.417953 83.488876C108.625259 83.488876,107.865112 83.803818,107.304642 84.364304C106.744156 84.924774,106.429214 85.684921,106.429214 86.477615C106.429214 87.270309,106.744156 88.030457,107.304642 88.590927C107.865112 89.151413,108.625259 89.466354,109.417953 89.466354C110.210648 89.466354,110.970795 89.151413,111.531265 88.590927C112.091751 88.030457,112.406693 87.270309,112.406693 86.477615Z" style="fill: rgb(100.000000%,100.000000%,100.000000%);stroke: none;"></path>
  <path d="M104.431198 51.402786C104.431198 50.610092,104.116257 49.849945,103.555771 49.289474C102.995300 48.728989,102.235153 48.414047,101.442459 48.414047C100.649765 48.414047,99.889618 48.728989,99.329147 49.289474C98.768661 49.849945,98.453720 50.610092,98.453720 51.402786C98.453720 52.195480,98.768661 52.955627,99.329147 53.516098C99.889618 54.076584,100.649765 54.391525,101.442459 54.391525C102.235153 54.391525,102.995300 54.076584,103.555771 53.516098C104.116257 52.955627,104.431198 52.195480,104.431198 51.402786Z" style="fill: rgb(100.000000%,100.000000%,100.000000%);stroke: none;"></path>
  <path d="M109.657547 64.623291C109.657547 63.830597,109.342606 63.070450,108.782120 62.509979C108.221649 61.949493,107.461502 61.634552,106.668808 61.634552C105.876114 61.634552,105.115967 61.949493,104.555496 62.509979C103.995010 63.070450,103.680069 63.830597,103.680069 64.623291C103.680069 65.415985,103.995010 66.176132,104.555496 66.736603C105.115967 67.297089,105.876114 67.612030,106.668808 67.612030C107.461502 67.612030,108.221649 67.297089,108.782120 66.736603C109.342606 66.176132,109.657547 65.415985,109.657547 64.623291Z" style="fill: rgb(100.000000%,100.000000%,100.000000%);stroke: none;"></path>
  <path d="M98.410141 29.000870C98.410141 28.208176,98.095200 27.448029,97.534714 26.887558C96.974243 26.327072,96.214096 26.012131,95.421402 26.012131C94.628708 26.012131,93.868561 26.327072,93.308090 26.887558C92.747604 27.448029,92.432663 28.208176,92.432663 29.000870C92.432663 29.793564,92.747604 30.553711,93.308090 31.114182C93.868561 31.674667,94.628708 31.989609,95.421402 31.989609C96.214096 31.989609,96.974243 31.674667,97.534714 31.114182C98.095200 30.553711,98.410141 29.793564,98.410141 29.000870Z" style="fill: rgb(100.000000%,100.000000%,100.000000%);stroke: none;"></path>
  <path d="M101.840714 44.918045C101.840714 44.125351,101.525772 43.365204,100.965286 42.804733C100.404816 42.244247,99.644669 41.929306,98.851974 41.929306C98.059280 41.929306,97.299133 42.244247,96.738663 42.804733C96.178177 43.365204,95.863235 44.125351,95.863235 44.918045C95.863235 45.710739,96.178177 46.470886,96.738663 47.031357C97.299133 47.591843,98.059280 47.906784,98.851974 47.906784C99.644669 47.906784,100.404816 47.591843,100.965286 47.031357C101.525772 46.470886,101.840714 45.710739,101.840714 44.918045Z" style="fill: rgb(100.000000%,100.000000%,100.000000%);stroke: none;"></path>
  <path d="M86.240540 4.746201C86.240540 3.953506,85.925598 3.193359,85.365112 2.632889C84.804642 2.072403,84.044495 1.757462,83.251801 1.757462C82.459106 1.757462,81.698959 2.072403,81.138489 2.632889C80.578003 3.193359,80.263062 3.953506,80.263062 4.746201C80.263062 5.538895,80.578003 6.299042,81.138489 6.859512C81.698959 7.419998,82.459106 7.734940,83.251801 7.734940C84.044495 7.734940,84.804642 7.419998,85.365112 6.859512C85.925598 6.299042,86.240540 5.538895,86.240540 4.746201Z" style="fill: rgb(100.000000%,100.000000%,100.000000%);stroke: none;"></path>
  <path d="M98.273636 19.047897C98.273636 18.255203,97.958694 17.495056,97.398209 16.934586C96.837738 16.374100,96.077591 16.059158,95.284897 16.059158C94.492203 16.059158,93.732056 16.374100,93.171585 16.934586C92.611099 17.495056,92.296158 18.255203,92.296158 19.047897C92.296158 19.840591,92.611099 20.600739,93.171585 21.161209C93.732056 21.721695,94.492203 22.036636,95.284897 22.036636C96.077591 22.036636,96.837738 21.721695,97.398209 21.161209C97.958694 20.600739,98.273636 19.840591,98.273636 19.047897Z" style="fill: rgb(100.000000%,100.000000%,100.000000%);stroke: none;"></path>
  <path d="M58.667191 9.795883C58.667191 9.003189,58.352249 8.243042,57.791763 7.682571C57.231293 7.122086,56.471146 6.807144,55.678452 6.807144C54.885757 6.807144,54.125610 7.122086,53.565140 7.682571C53.004654 8.243042,52.689713 9.003189,52.689713 9.795883C52.689713 10.588577,53.004654 11.348724,53.565140 11.909195C54.125610 12.469681,54.885757 12.784622,55.678452 12.784622C56.471146 12.784622,57.231293 12.469681,57.791763 11.909195C58.352249 11.348724,58.667191 10.588577,58.667191 9.795883Z" style="fill: rgb(100.000000%,100.000000%,100.000000%);stroke: none;"></path>
  <path d="M76.275772 2.471375C76.275772 1.678680,75.960831 0.918533,75.400345 0.358063C74.839874 -0.202423,74.079727 -0.517365,73.287033 -0.517365C72.494339 -0.517365,71.734192 -0.202423,71.173721 0.358063C70.613235 0.918533,70.298294 1.678680,70.298294 2.471375C70.298294 3.264069,70.613235 4.024216,71.173721 4.584686C71.734192 5.145172,72.494339 5.460114,73.287033 5.460114C74.079727 5.460114,74.839874 5.145172,75.400345 4.584686C75.960831 4.024216,76.275772 3.264069,76.275772 2.471375Z" style="fill: rgb(100.000000%,100.000000%,100.000000%);stroke: none;"></path>
  <path d="M54.388214 38.107452C54.388214 37.314758,54.073273 36.554611,53.512787 35.994141C52.952316 35.433655,52.192169 35.118713,51.399475 35.118713C50.606781 35.118713,49.846634 35.433655,49.286163 35.994141C48.725677 36.554611,48.410736 37.314758,48.410736 38.107452C48.410736 38.900146,48.725677 39.660294,49.286163 40.220764C49.846634 40.781250,50.606781 41.096191,51.399475 41.096191C52.192169 41.096191,52.952316 40.781250,53.512787 40.220764C54.073273 39.660294,54.388214 38.900146,54.388214 38.107452Z" style="fill: rgb(100.000000%,100.000000%,100.000000%);stroke: none;"></path>
  <path d="M53.213715 18.958130C53.213715 18.165436,52.898773 17.405289,52.338287 16.844818C51.777817 16.284332,51.017670 15.969391,50.224976 15.969391C49.432281 15.969391,48.672134 16.284332,48.111664 16.844818C47.551178 17.405289,47.236237 18.165436,47.236237 18.958130C47.236237 19.750824,47.551178 20.510971,48.111664 21.071442C48.672134 21.631927,49.432281 21.946869,50.224976 21.946869C51.017670 21.946869,51.777817 21.631927,52.338287 21.071442C52.898773 20.510971,53.213715 19.750824,53.213715 18.958130Z" style="fill: rgb(100.000000%,100.000000%,100.000000%);stroke: none;"></path>
  <path d="M68.618927 60.207291C68.618927 59.414597,68.303986 58.654449,67.743500 58.093979C67.183029 57.533493,66.422882 57.218552,65.630188 57.218552C64.837494 57.218552,64.077347 57.533493,63.516876 58.093979C62.956390 58.654449,62.641449 59.414597,62.641449 60.207291C62.641449 60.999985,62.956390 61.760132,63.516876 62.320602C64.077347 62.881088,64.837494 63.196030,65.630188 63.196030C66.422882 63.196030,67.183029 62.881088,67.743500 62.320602C68.303986 61.760132,68.618927 60.999985,68.618927 60.207291Z" style="fill: rgb(100.000000%,100.000000%,100.000000%);stroke: none;"></path>
  <path d="M60.446991 45.865479C60.446991 45.072784,60.132050 44.312637,59.571564 43.752167C59.011093 43.191681,58.250946 42.876740,57.458252 42.876740C56.665558 42.876740,55.905411 43.191681,55.344940 43.752167C54.784454 44.312637,54.469513 45.072784,54.469513 45.865479C54.469513 46.658173,54.784454 47.418320,55.344940 47.978790C55.905411 48.539276,56.665558 48.854218,57.458252 48.854218C58.250946 48.854218,59.011093 48.539276,59.571564 47.978790C60.132050 47.418320,60.446991 46.658173,60.446991 45.865479Z" style="fill: rgb(100.000000%,100.000000%,100.000000%);stroke: none;"></path>
  <path d="M76.739792 80.734238C76.739792 79.941544,76.424850 79.181396,75.864365 78.620926C75.303894 78.060440,74.543747 77.745499,73.751053 77.745499C72.958359 77.745499,72.198212 78.060440,71.637741 78.620926C71.077255 79.181396,70.762314 79.941544,70.762314 80.734238C70.762314 81.526932,71.077255 82.287079,71.637741 82.847549C72.198212 83.408035,72.958359 83.722977,73.751053 83.722977C74.543747 83.722977,75.303894 83.408035,75.864365 82.847549C76.424850 82.287079,76.739792 81.526932,76.739792 80.734238Z" style="fill: rgb(100.000000%,100.000000%,100.000000%);stroke: none;"></path>
  <path d="M71.364212 66.810852C71.364212 66.018158,71.049271 65.258011,70.488785 64.697540C69.928314 64.137054,69.168167 63.822113,68.375473 63.822113C67.582779 63.822113,66.822632 64.137054,66.262161 64.697540C65.701675 65.258011,65.386734 66.018158,65.386734 66.810852C65.386734 67.603546,65.701675 68.363693,66.262161 68.924164C66.822632 69.484650,67.582779 69.799591,68.375473 69.799591C69.168167 69.799591,69.928314 69.484650,70.488785 68.924164C71.049271 68.363693,71.364212 67.603546,71.364212 66.810852Z" style="fill: rgb(100.000000%,100.000000%,100.000000%);stroke: none;"></path>
  <path d="M91.451416 98.313919C91.451416 97.521225,91.136475 96.761078,90.575989 96.200607C90.015518 95.640121,89.255371 95.325180,88.462677 95.325180C87.669983 95.325180,86.909836 95.640121,86.349365 96.200607C85.788879 96.761078,85.473938 97.521225,85.473938 98.313919C85.473938 99.106613,85.788879 99.866760,86.349365 100.427231C86.909836 100.987717,87.669983 101.302658,88.462677 101.302658C89.255371 101.302658,90.015518 100.987717,90.575989 100.427231C91.136475 99.866760,91.451416 99.106613,91.451416 98.313919Z" style="fill: rgb(100.000000%,100.000000%,100.000000%);stroke: none;"></path>
  <path d="M79.517441 88.304230C79.517441 87.511536,79.202499 86.751389,78.642014 86.190918C78.081543 85.630432,77.321396 85.315491,76.528702 85.315491C75.736008 85.315491,74.975861 85.630432,74.415390 86.190918C73.854904 86.751389,73.539963 87.511536,73.539963 88.304230C73.539963 89.096924,73.854904 89.857071,74.415390 90.417542C74.975861 90.978027,75.736008 91.292969,76.528702 91.292969C77.321396 91.292969,78.081543 90.978027,78.642014 90.417542C79.202499 89.857071,79.517441 89.096924,79.517441 88.304230Z" style="fill: rgb(100.000000%,100.000000%,100.000000%);stroke: none;"></path>
  <path d="M115.301102 102.355164C115.301102 101.562469,114.986160 100.802322,114.425674 100.241852C113.865204 99.681366,113.105057 99.366425,112.312363 99.366425C111.519669 99.366425,110.759521 99.681366,110.199051 100.241852C109.638565 100.802322,109.323624 101.562469,109.323624 102.355164C109.323624 103.147858,109.638565 103.908005,110.199051 104.468475C110.759521 105.028961,111.519669 105.343903,112.312363 105.343903C113.105057 105.343903,113.865204 105.028961,114.425674 104.468475C114.986160 103.908005,115.301102 103.147858,115.301102 102.355164Z" style="fill: rgb(100.000000%,100.000000%,100.000000%);stroke: none;"></path>
  <path d="M99.338913 99.752853C99.338913 98.960159,99.023972 98.200012,98.463486 97.639542C97.903015 97.079056,97.142868 96.764114,96.350174 96.764114C95.557480 96.764114,94.797333 97.079056,94.236862 97.639542C93.676376 98.200012,93.361435 98.960159,93.361435 99.752853C93.361435 100.545547,93.676376 101.305695,94.236862 101.866165C94.797333 102.426651,95.557480 102.741592,96.350174 102.741592C97.142868 102.741592,97.903015 102.426651,98.463486 101.866165C99.023972 101.305695,99.338913 100.545547,99.338913 99.752853Z" style="fill: rgb(100.000000%,100.000000%,100.000000%);stroke: none;"></path>
  <path d="M141.712555 111.776657C141.712555 110.983963,141.397614 110.223816,140.837128 109.663345C140.276657 109.102859,139.516510 108.787918,138.723816 108.787918C137.931122 108.787918,137.170975 109.102859,136.610504 109.663345C136.050018 110.223816,135.735077 110.983963,135.735077 111.776657C135.735077 112.569351,136.050018 113.329498,136.610504 113.889969C137.170975 114.450455,137.931122 114.765396,138.723816 114.765396C139.516510 114.765396,140.276657 114.450455,140.837128 113.889969C141.397614 113.329498,141.712555 112.569351,141.712555 111.776657Z" style="fill: rgb(100.000000%,100.000000%,100.000000%);stroke: none;"></path>
  <path d="M123.704620 103.658295C123.704620 102.865601,123.389679 102.105453,122.829193 101.544983C122.268723 100.984497,121.508575 100.669556,120.715881 100.669556C119.923187 100.669556,119.163040 100.984497,118.602570 101.544983C118.042084 102.105453,117.727142 102.865601,117.727142 103.658295C117.727142 104.450989,118.042084 105.211136,118.602570 105.771606C119.163040 106.332092,119.923187 106.647034,120.715881 106.647034C121.508575 106.647034,122.268723 106.332092,122.829193 105.771606C123.389679 105.211136,123.704620 104.450989,123.704620 103.658295Z" style="fill: rgb(100.000000%,100.000000%,100.000000%);stroke: none;"></path>
  <path d="M173.613632 119.295685C173.613632 118.502991,173.298691 117.742844,172.738205 117.182373C172.177734 116.621887,171.417587 116.306946,170.624893 116.306946C169.832199 116.306946,169.072052 116.621887,168.511581 117.182373C167.951096 117.742844,167.636154 118.502991,167.636154 119.295685C167.636154 120.088379,167.951096 120.848526,168.511581 121.408997C169.072052 121.969482,169.832199 122.284424,170.624893 122.284424C171.417587 122.284424,172.177734 121.969482,172.738205 121.408997C173.298691 120.848526,173.613632 120.088379,173.613632 119.295685Z" style="fill: rgb(100.000000%,100.000000%,100.000000%);stroke: none;"></path>
  <path d="M150.835220 120.229080C150.835220 119.436386,150.520279 118.676239,149.959793 118.115768C149.399323 117.555283,148.639175 117.240341,147.846481 117.240341C147.053787 117.240341,146.293640 117.555283,145.733170 118.115768C145.172684 118.676239,144.857742 119.436386,144.857742 120.229080C144.857742 121.021774,145.172684 121.781921,145.733170 122.342392C146.293640 122.902878,147.053787 123.217819,147.846481 123.217819C148.639175 123.217819,149.399323 122.902878,149.959793 122.342392C150.520279 121.781921,150.835220 121.021774,150.835220 120.229080Z" style="fill: rgb(100.000000%,100.000000%,100.000000%);stroke: none;"></path>
  <path d="M189.393188 88.921326C189.393188 88.128632,189.078247 87.368484,188.517761 86.808014C187.957291 86.247528,187.197144 85.932587,186.404449 85.932587C185.611755 85.932587,184.851608 86.247528,184.291138 86.808014C183.730652 87.368484,183.415710 88.128632,183.415710 88.921326C183.415710 89.714020,183.730652 90.474167,184.291138 91.034637C184.851608 91.595123,185.611755 91.910065,186.404449 91.910065C187.197144 91.910065,187.957291 91.595123,188.517761 91.034637C189.078247 90.474167,189.393188 89.714020,189.393188 88.921326Z" style="fill: rgb(100.000000%,100.000000%,100.000000%);stroke: none;"></path>
  <path d="M182.547058 110.515900C182.547058 109.723206,182.232117 108.963058,181.671631 108.402588C181.111160 107.842102,180.351013 107.527161,179.558319 107.527161C178.765625 107.527161,178.005478 107.842102,177.445007 108.402588C176.884521 108.963058,176.569580 109.723206,176.569580 110.515900C176.569580 111.308594,176.884521 112.068741,177.445007 112.629211C178.005478 113.189697,178.765625 113.504639,179.558319 113.504639C180.351013 113.504639,181.111160 113.189697,181.671631 112.629211C182.232117 112.068741,182.547058 111.308594,182.547058 110.515900Z" style="fill: rgb(100.000000%,100.000000%,100.000000%);stroke: none;"></path>
  <path d="M170.923752 66.436172C170.923752 65.643478,170.608810 64.883331,170.048325 64.322861C169.487854 63.762375,168.727707 63.447433,167.935013 63.447433C167.142319 63.447433,166.382172 63.762375,165.821701 64.322861C165.261215 64.883331,164.946274 65.643478,164.946274 66.436172C164.946274 67.228867,165.261215 67.989014,165.821701 68.549484C166.382172 69.109970,167.142319 69.424911,167.935013 69.424911C168.727707 69.424911,169.487854 69.109970,170.048325 68.549484C170.608810 67.989014,170.923752 67.228867,170.923752 66.436172Z" style="fill: rgb(100.000000%,100.000000%,100.000000%);stroke: none;"></path>
  <path d="M187.260590 76.992157C187.260590 76.199463,186.945648 75.439316,186.385162 74.878845C185.824692 74.318359,185.064545 74.003418,184.271851 74.003418C183.479156 74.003418,182.719009 74.318359,182.158539 74.878845C181.598053 75.439316,181.283112 76.199463,181.283112 76.992157C181.283112 77.784851,181.598053 78.544998,182.158539 79.105469C182.719009 79.665955,183.479156 79.980896,184.271851 79.980896C185.064545 79.980896,185.824692 79.665955,186.385162 79.105469C186.945648 78.544998,187.260590 77.784851,187.260590 76.992157Z" style="fill: rgb(100.000000%,100.000000%,100.000000%);stroke: none;"></path>
  <path d="M148.884705 52.698135C148.884705 51.905441,148.569763 51.145294,148.009277 50.584824C147.448807 50.024338,146.688660 49.709396,145.895966 49.709396C145.103271 49.709396,144.343124 50.024338,143.782654 50.584824C143.222168 51.145294,142.907227 51.905441,142.907227 52.698135C142.907227 53.490829,143.222168 54.250977,143.782654 54.811447C144.343124 55.371933,145.103271 55.686874,145.895966 55.686874C146.688660 55.686874,147.448807 55.371933,148.009277 54.811447C148.569763 54.250977,148.884705 53.490829,148.884705 52.698135Z" style="fill: rgb(100.000000%,100.000000%,100.000000%);stroke: none;"></path>
  <path d="M160.495911 67.478653C160.495911 66.685959,160.180969 65.925812,159.620483 65.365341C159.060013 64.804855,158.299866 64.489914,157.507172 64.489914C156.714478 64.489914,155.954330 64.804855,155.393860 65.365341C154.833374 65.925812,154.518433 66.685959,154.518433 67.478653C154.518433 68.271347,154.833374 69.031494,155.393860 69.591965C155.954330 70.152451,156.714478 70.467392,157.507172 70.467392C158.299866 70.467392,159.060013 70.152451,159.620483 69.591965C160.180969 69.031494,160.495911 68.271347,160.495911 67.478653Z" style="fill: rgb(100.000000%,100.000000%,100.000000%);stroke: none;"></path>
  <path d="M147.717026 21.158630C147.717026 20.365936,147.402084 19.605789,146.841599 19.045319C146.281128 18.484833,145.520981 18.169891,144.728287 18.169891C143.935593 18.169891,143.175446 18.484833,142.614975 19.045319C142.054489 19.605789,141.739548 20.365936,141.739548 21.158630C141.739548 21.951324,142.054489 22.711472,142.614975 23.271942C143.175446 23.832428,143.935593 24.147369,144.728287 24.147369C145.520981 24.147369,146.281128 23.832428,146.841599 23.271942C147.402084 22.711472,147.717026 21.951324,147.717026 21.158630Z" style="fill: rgb(100.000000%,100.000000%,100.000000%);stroke: none;"></path>
  <path d="M153.892242 41.761032C153.892242 40.968338,153.577301 40.208191,153.016815 39.647720C152.456345 39.087234,151.696198 38.772293,150.903503 38.772293C150.110809 38.772293,149.350662 39.087234,148.790192 39.647720C148.229706 40.208191,147.914764 40.968338,147.914764 41.761032C147.914764 42.553726,148.229706 43.313873,148.790192 43.874344C149.350662 44.434830,150.110809 44.749771,150.903503 44.749771C151.696198 44.749771,152.456345 44.434830,153.016815 43.874344C153.577301 43.313873,153.892242 42.553726,153.892242 41.761032Z" style="fill: rgb(100.000000%,100.000000%,100.000000%);stroke: none;"></path>
  <path d="M113.106430 8.588226C113.106430 7.795532,112.791489 7.035385,112.231003 6.474915C111.670532 5.914429,110.910385 5.599487,110.117691 5.599487C109.324997 5.599487,108.564850 5.914429,108.004379 6.474915C107.443893 7.035385,107.128952 7.795532,107.128952 8.588226C107.128952 9.380920,107.443893 10.141068,108.004379 10.701538C108.564850 11.262024,109.324997 11.576965,110.117691 11.576965C110.910385 11.576965,111.670532 11.262024,112.231003 10.701538C112.791489 10.141068,113.106430 9.380920,113.106430 8.588226Z" style="fill: rgb(100.000000%,100.000000%,100.000000%);stroke: none;"></path>
  <path d="M135.314728 16.601196C135.314728 15.808502,134.999786 15.048355,134.439301 14.487885C133.878830 13.927399,133.118683 13.612457,132.325989 13.612457C131.533295 13.612457,130.773148 13.927399,130.212677 14.487885C129.652191 15.048355,129.337250 15.808502,129.337250 16.601196C129.337250 17.393890,129.652191 18.154037,130.212677 18.714508C130.773148 19.274994,131.533295 19.589935,132.325989 19.589935C133.118683 19.589935,133.878830 19.274994,134.439301 18.714508C134.999786 18.154037,135.314728 17.393890,135.314728 16.601196Z" style="fill: rgb(100.000000%,100.000000%,100.000000%);stroke: none;"></path>
  <path d="M85.965317 17.066345C85.965317 16.273651,85.650375 15.513504,85.089890 14.953033C84.529419 14.392548,83.769272 14.077606,82.976578 14.077606C82.183884 14.077606,81.423737 14.392548,80.863266 14.953033C80.302780 15.513504,79.987839 16.273651,79.987839 17.066345C79.987839 17.859039,80.302780 18.619186,80.863266 19.179657C81.423737 19.740143,82.183884 20.055084,82.976578 20.055084C83.769272 20.055084,84.529419 19.740143,85.089890 19.179657C85.650375 18.619186,85.965317 17.859039,85.965317 17.066345Z" style="fill: rgb(100.000000%,100.000000%,100.000000%);stroke: none;"></path>
  <path d="M100.928802 4.658432C100.928802 3.865738,100.613861 3.105591,100.053375 2.545120C99.492905 1.984634,98.732758 1.669693,97.940063 1.669693C97.147369 1.669693,96.387222 1.984634,95.826752 2.545120C95.266266 3.105591,94.951324 3.865738,94.951324 4.658432C94.951324 5.451126,95.266266 6.211273,95.826752 6.771744C96.387222 7.332230,97.147369 7.647171,97.940063 7.647171C98.732758 7.647171,99.492905 7.332230,100.053375 6.771744C100.613861 6.211273,100.928802 5.451126,100.928802 4.658432Z" style="fill: rgb(100.000000%,100.000000%,100.000000%);stroke: none;"></path>
  <path d="M69.403961 33.233292C69.403961 32.440598,69.089020 31.680450,68.528534 31.119980C67.968063 30.559494,67.207916 30.244553,66.415222 30.244553C65.622528 30.244553,64.862381 30.559494,64.301910 31.119980C63.741425 31.680450,63.426483 32.440598,63.426483 33.233292C63.426483 34.025986,63.741425 34.786133,64.301910 35.346603C64.862381 35.907089,65.622528 36.222031,66.415222 36.222031C67.207916 36.222031,67.968063 35.907089,68.528534 35.346603C69.089020 34.786133,69.403961 34.025986,69.403961 33.233292Z" style="fill: rgb(100.000000%,100.000000%,100.000000%);stroke: none;"></path>
  <path d="M84.482147 26.955475C84.482147 26.162781,84.167206 25.402634,83.606720 24.842163C83.046249 24.281677,82.286102 23.966736,81.493408 23.966736C80.700714 23.966736,79.940567 24.281677,79.380096 24.842163C78.819611 25.402634,78.504669 26.162781,78.504669 26.955475C78.504669 27.748169,78.819611 28.508316,79.380096 29.068787C79.940567 29.629272,80.700714 29.944214,81.493408 29.944214C82.286102 29.944214,83.046249 29.629272,83.606720 29.068787C84.167206 28.508316,84.482147 27.748169,84.482147 26.955475Z" style="fill: rgb(100.000000%,100.000000%,100.000000%);stroke: none;"></path>
  <path d="M42.087097 29.938339C42.087097 29.145645,41.772156 28.385498,41.211670 27.825027C40.651199 27.264542,39.891052 26.949600,39.098358 26.949600C38.305664 26.949600,37.545517 27.264542,36.985046 27.825027C36.424561 28.385498,36.109619 29.145645,36.109619 29.938339C36.109619 30.731033,36.424561 31.491180,36.985046 32.051651C37.545517 32.612137,38.305664 32.927078,39.098358 32.927078C39.891052 32.927078,40.651199 32.612137,41.211670 32.051651C41.772156 31.491180,42.087097 30.731033,42.087097 29.938339Z" style="fill: rgb(100.000000%,100.000000%,100.000000%);stroke: none;"></path>
  <path d="M61.585403 27.897552C61.585403 27.104858,61.270462 26.344711,60.709976 25.784241C60.149506 25.223755,59.389359 24.908813,58.596664 24.908813C57.803970 24.908813,57.043823 25.223755,56.483353 25.784241C55.922867 26.344711,55.607925 27.104858,55.607925 27.897552C55.607925 28.690247,55.922867 29.450394,56.483353 30.010864C57.043823 30.571350,57.803970 30.886292,58.596664 30.886292C59.389359 30.886292,60.149506 30.571350,60.709976 30.010864C61.270462 29.450394,61.585403 28.690247,61.585403 27.897552Z" style="fill: rgb(100.000000%,100.000000%,100.000000%);stroke: none;"></path>
  <path d="M25.493729 64.067261C25.493729 63.274567,25.178787 62.514420,24.618301 61.953949C24.057831 61.393463,23.297684 61.078522,22.504990 61.078522C21.712296 61.078522,20.952148 61.393463,20.391678 61.953949C19.831192 62.514420,19.516251 63.274567,19.516251 64.067261C19.516251 64.859955,19.831192 65.620102,20.391678 66.180573C20.952148 66.741058,21.712296 67.056000,22.504990 67.056000C23.297684 67.056000,24.057831 66.741058,24.618301 66.180573C25.178787 65.620102,25.493729 64.859955,25.493729 64.067261Z" style="fill: rgb(100.000000%,100.000000%,100.000000%);stroke: none;"></path>
  <path d="M36.550720 42.189255C36.550720 41.396561,36.235779 40.636414,35.675293 40.075943C35.114822 39.515457,34.354675 39.200516,33.561981 39.200516C32.769287 39.200516,32.009140 39.515457,31.448669 40.075943C30.888184 40.636414,30.573242 41.396561,30.573242 42.189255C30.573242 42.981949,30.888184 43.742096,31.448669 44.302567C32.009140 44.863052,32.769287 45.177994,33.561981 45.177994C34.354675 45.177994,35.114822 44.863052,35.675293 44.302567C36.235779 43.742096,36.550720 42.981949,36.550720 42.189255Z" style="fill: rgb(100.000000%,100.000000%,100.000000%);stroke: none;"></path>
  <path d="M25.802414 96.793304C25.802414 96.000610,25.487473 95.240463,24.926987 94.679993C24.366516 94.119507,23.606369 93.804565,22.813675 93.804565C22.020981 93.804565,21.260834 94.119507,20.700363 94.679993C20.139877 95.240463,19.824936 96.000610,19.824936 96.793304C19.824936 97.585999,20.139877 98.346146,20.700363 98.906616C21.260834 99.467102,22.020981 99.782043,22.813675 99.782043C23.606369 99.782043,24.366516 99.467102,24.926987 98.906616C25.487473 98.346146,25.802414 97.585999,25.802414 96.793304Z" style="fill: rgb(100.000000%,100.000000%,100.000000%);stroke: none;"></path>
  <path d="M18.158997 75.728912C18.158997 74.936218,17.844055 74.176071,17.283569 73.615601C16.723099 73.055115,15.962952 72.740173,15.170258 72.740173C14.377563 72.740173,13.617416 73.055115,13.056946 73.615601C12.496460 74.176071,12.181519 74.936218,12.181519 75.728912C12.181519 76.521606,12.496460 77.281754,13.056946 77.842224C13.617416 78.402710,14.377563 78.717651,15.170258 78.717651C15.962952 78.717651,16.723099 78.402710,17.283569 77.842224C17.844055 77.281754,18.158997 76.521606,18.158997 75.728912Z" style="fill: rgb(100.000000%,100.000000%,100.000000%);stroke: none;"></path>
  <path d="M34.420944 122.855606C34.420944 122.062912,34.106003 121.302765,33.545517 120.742294C32.985046 120.181808,32.224899 119.866867,31.432205 119.866867C30.639511 119.866867,29.879364 120.181808,29.318893 120.742294C28.758408 121.302765,28.443466 122.062912,28.443466 122.855606C28.443466 123.648300,28.758408 124.408447,29.318893 124.968918C29.879364 125.529404,30.639511 125.844345,31.432205 125.844345C32.224899 125.844345,32.985046 125.529404,33.545517 124.968918C34.106003 124.408447,34.420944 123.648300,34.420944 122.855606Z" style="fill: rgb(100.000000%,100.000000%,100.000000%);stroke: none;"></path>
  <path d="M36.437820 103.274017C36.437820 102.481323,36.122879 101.721176,35.562393 101.160706C35.001923 100.600220,34.241776 100.285278,33.449081 100.285278C32.656387 100.285278,31.896240 100.600220,31.335770 101.160706C30.775284 101.721176,30.460342 102.481323,30.460342 103.274017C30.460342 104.066711,30.775284 104.826859,31.335770 105.387329C31.896240 105.947815,32.656387 106.262756,33.449081 106.262756C34.241776 106.262756,35.001923 105.947815,35.562393 105.387329C36.122879 104.826859,36.437820 104.066711,36.437820 103.274017Z" style="fill: rgb(100.000000%,100.000000%,100.000000%);stroke: none;"></path>
  <path d="M15.573090 144.180832C15.573090 143.388138,15.258148 142.627991,14.697662 142.067520C14.137192 141.507034,13.377045 141.192093,12.584351 141.192093C11.791656 141.192093,11.031509 141.507034,10.471039 142.067520C9.910553 142.627991,9.595612 143.388138,9.595612 144.180832C9.595612 144.973526,9.910553 145.733673,10.471039 146.294144C11.031509 146.854630,11.791656 147.169571,12.584351 147.169571C13.377045 147.169571,14.137192 146.854630,14.697662 146.294144C15.258148 145.733673,15.573090 144.973526,15.573090 144.180832Z" style="fill: rgb(100.000000%,100.000000%,100.000000%);stroke: none;"></path>
  <path d="M24.188004 127.413742C24.188004 126.621048,23.873062 125.860901,23.312576 125.300430C22.752106 124.739944,21.991959 124.425003,21.199265 124.425003C20.406570 124.425003,19.646423 124.739944,19.085953 125.300430C18.525467 125.860901,18.210526 126.621048,18.210526 127.413742C18.210526 128.206436,18.525467 128.966583,19.085953 129.527054C19.646423 130.087540,20.406570 130.402481,21.199265 130.402481C21.991959 130.402481,22.752106 130.087540,23.312576 129.527054C23.873062 128.966583,24.188004 128.206436,24.188004 127.413742Z" style="fill: rgb(100.000000%,100.000000%,100.000000%);stroke: none;"></path>
  <path d="M31.361954 169.102081C31.361954 168.309387,31.047012 167.549240,30.486526 166.988770C29.926056 166.428284,29.165909 166.113342,28.373215 166.113342C27.580521 166.113342,26.820374 166.428284,26.259903 166.988770C25.699417 167.549240,25.384476 168.309387,25.384476 169.102081C25.384476 169.894775,25.699417 170.654922,26.259903 171.215393C26.820374 171.775879,27.580521 172.090820,28.373215 172.090820C29.165909 172.090820,29.926056 171.775879,30.486526 171.215393C31.047012 170.654922,31.361954 169.894775,31.361954 169.102081Z" style="fill: rgb(100.000000%,100.000000%,100.000000%);stroke: none;"></path>
  <path d="M18.337387 154.504135C18.337387 153.711441,18.022446 152.951294,17.461960 152.390823C16.901489 151.830338,16.141342 151.515396,15.348648 151.515396C14.555954 151.515396,13.795807 151.830338,13.235336 152.390823C12.674850 152.951294,12.359909 153.711441,12.359909 154.504135C12.359909 155.296829,12.674850 156.056976,13.235336 156.617447C13.795807 157.177933,14.555954 157.492874,15.348648 157.492874C16.141342 157.492874,16.901489 157.177933,17.461960 156.617447C18.022446 156.056976,18.337387 155.296829,18.337387 154.504135Z" style="fill: rgb(100.000000%,100.000000%,100.000000%);stroke: none;"></path>
  <path d="M58.330902 164.698563C58.330902 163.905869,58.015961 163.145721,57.455475 162.585251C56.895004 162.024765,56.134857 161.709824,55.342163 161.709824C54.549469 161.709824,53.789322 162.024765,53.228851 162.585251C52.668365 163.145721,52.353424 163.905869,52.353424 164.698563C52.353424 165.491257,52.668365 166.251404,53.228851 166.811874C53.789322 167.372360,54.549469 167.687302,55.342163 167.687302C56.134857 167.687302,56.895004 167.372360,57.455475 166.811874C58.015961 166.251404,58.330902 165.491257,58.330902 164.698563Z" style="fill: rgb(100.000000%,100.000000%,100.000000%);stroke: none;"></path>
  <path d="M41.204437 172.926010C41.204437 172.133316,40.889496 171.373169,40.329010 170.812698C39.768539 170.252213,39.008392 169.937271,38.215698 169.937271C37.423004 169.937271,36.662857 170.252213,36.102386 170.812698C35.541901 171.373169,35.226959 172.133316,35.226959 172.926010C35.226959 173.718704,35.541901 174.478851,36.102386 175.039322C36.662857 175.599808,37.423004 175.914749,38.215698 175.914749C39.008392 175.914749,39.768539 175.599808,40.329010 175.039322C40.889496 174.478851,41.204437 173.718704,41.204437 172.926010Z" style="fill: rgb(100.000000%,100.000000%,100.000000%);stroke: none;"></path>
  <path d="M82.870636 149.832809C82.870636 149.040115,82.555695 148.279968,81.995209 147.719498C81.434738 147.159012,80.674591 146.844070,79.881897 146.844070C79.089203 146.844070,78.329056 147.159012,77.768585 147.719498C77.208099 148.279968,76.893158 149.040115,76.893158 149.832809C76.893158 150.625504,77.208099 151.385651,77.768585 151.946121C78.329056 152.506607,79.089203 152.821548,79.881897 152.821548C80.674591 152.821548,81.434738 152.506607,81.995209 151.946121C82.555695 151.385651,82.870636 150.625504,82.870636 149.832809Z" style="fill: rgb(100.000000%,100.000000%,100.000000%);stroke: none;"></path>
  <path d="M61.973038 152.929169C61.973038 152.136475,61.658096 151.376328,61.097610 150.815857C60.537140 150.255371,59.776993 149.940430,58.984299 149.940430C58.191605 149.940430,57.431458 150.255371,56.870987 150.815857C56.310501 151.376328,55.995560 152.136475,55.995560 152.929169C55.995560 153.721863,56.310501 154.482010,56.870987 155.042480C57.431458 155.602966,58.191605 155.917908,58.984299 155.917908C59.776993 155.917908,60.537140 155.602966,61.097610 155.042480C61.658096 154.482010,61.973038 153.721863,61.973038 152.929169Z" style="fill: rgb(100.000000%,100.000000%,100.000000%);stroke: none;"></path>
  <path d="M112.609818 171.450348C112.609818 170.657654,112.294876 169.897507,111.734390 169.337036C111.173920 168.776550,110.413773 168.461609,109.621078 168.461609C108.828384 168.461609,108.068237 168.776550,107.507767 169.337036C106.947281 169.897507,106.632339 170.657654,106.632339 171.450348C106.632339 172.243042,106.947281 173.003189,107.507767 173.563660C108.068237 174.124146,108.828384 174.439087,109.621078 174.439087C110.413773 174.439087,111.173920 174.124146,111.734390 173.563660C112.294876 173.003189,112.609818 172.243042,112.609818 171.450348Z" style="fill: rgb(100.000000%,100.000000%,100.000000%);stroke: none;"></path>
  <path d="M89.302780 162.293182C89.302780 161.500488,88.987839 160.740341,88.427353 160.179871C87.866882 159.619385,87.106735 159.304443,86.314041 159.304443C85.521347 159.304443,84.761200 159.619385,84.200729 160.179871C83.640244 160.740341,83.325302 161.500488,83.325302 162.293182C83.325302 163.085876,83.640244 163.846024,84.200729 164.406494C84.761200 164.966980,85.521347 165.281921,86.314041 165.281921C87.106735 165.281921,87.866882 164.966980,88.427353 164.406494C88.987839 163.846024,89.302780 163.085876,89.302780 162.293182Z" style="fill: rgb(100.000000%,100.000000%,100.000000%);stroke: none;"></path>
  <path d="M148.965805 143.697479C148.965805 142.904785,148.650864 142.144638,148.090378 141.584167C147.529907 141.023682,146.769760 140.708740,145.977066 140.708740C145.184372 140.708740,144.424225 141.023682,143.863754 141.584167C143.303268 142.144638,142.988327 142.904785,142.988327 143.697479C142.988327 144.490173,143.303268 145.250320,143.863754 145.810791C144.424225 146.371277,145.184372 146.686218,145.977066 146.686218C146.769760 146.686218,147.529907 146.371277,148.090378 145.810791C148.650864 145.250320,148.965805 144.490173,148.965805 143.697479Z" style="fill: rgb(100.000000%,100.000000%,100.000000%);stroke: none;"></path>
  <path d="M125.549789 161.463669C125.549789 160.670975,125.234848 159.910828,124.674362 159.350357C124.113892 158.789871,123.353745 158.474930,122.561050 158.474930C121.768356 158.474930,121.008209 158.789871,120.447739 159.350357C119.887253 159.910828,119.572311 160.670975,119.572311 161.463669C119.572311 162.256363,119.887253 163.016510,120.447739 163.576981C121.008209 164.137466,121.768356 164.452408,122.561050 164.452408C123.353745 164.452408,124.113892 164.137466,124.674362 163.576981C125.234848 163.016510,125.549789 162.256363,125.549789 161.463669Z" style="fill: rgb(100.000000%,100.000000%,100.000000%);stroke: none;"></path>
  <path d="M162.265366 109.262909C162.265366 108.470215,161.950424 107.710068,161.389938 107.149597C160.829468 106.589111,160.069321 106.274170,159.276627 106.274170C158.483932 106.274170,157.723785 106.589111,157.163315 107.149597C156.602829 107.710068,156.287888 108.470215,156.287888 109.262909C156.287888 110.055603,156.602829 110.815750,157.163315 111.376221C157.723785 111.936707,158.483932 112.251648,159.276627 112.251648C160.069321 112.251648,160.829468 111.936707,161.389938 111.376221C161.950424 110.815750,162.265366 110.055603,162.265366 109.262909Z" style="fill: rgb(100.000000%,100.000000%,100.000000%);stroke: none;"></path>
  <path d="M162.264679 134.324768C162.264679 133.532074,161.949738 132.771927,161.389252 132.211456C160.828781 131.650970,160.068634 131.336029,159.275940 131.336029C158.483246 131.336029,157.723099 131.650970,157.162628 132.211456C156.602142 132.771927,156.287201 133.532074,156.287201 134.324768C156.287201 135.117462,156.602142 135.877609,157.162628 136.438080C157.723099 136.998566,158.483246 137.313507,159.275940 137.313507C160.068634 137.313507,160.828781 136.998566,161.389252 136.438080C161.949738 135.877609,162.264679 135.117462,162.264679 134.324768Z" style="fill: rgb(100.000000%,100.000000%,100.000000%);stroke: none;"></path>
  <path d="M162.159485 80.701599C162.159485 79.908905,161.844543 79.148758,161.284058 78.588287C160.723587 78.027802,159.963440 77.712860,159.170746 77.712860C158.378052 77.712860,157.617905 78.027802,157.057434 78.588287C156.496948 79.148758,156.182007 79.908905,156.182007 80.701599C156.182007 81.494293,156.496948 82.254440,157.057434 82.814911C157.617905 83.375397,158.378052 83.690338,159.170746 83.690338C159.963440 83.690338,160.723587 83.375397,161.284058 82.814911C161.844543 82.254440,162.159485 81.494293,162.159485 80.701599Z" style="fill: rgb(100.000000%,100.000000%,100.000000%);stroke: none;"></path>
  <path d="M154.258209 99.104050C154.258209 98.311356,153.943268 97.551208,153.382782 96.990738C152.822311 96.430252,152.062164 96.115311,151.269470 96.115311C150.476776 96.115311,149.716629 96.430252,149.156158 96.990738C148.595673 97.551208,148.280731 98.311356,148.280731 99.104050C148.280731 99.896744,148.595673 100.656891,149.156158 101.217361C149.716629 101.777847,150.476776 102.092789,151.269470 102.092789C152.062164 102.092789,152.822311 101.777847,153.382782 101.217361C153.943268 100.656891,154.258209 99.896744,154.258209 99.104050Z" style="fill: rgb(100.000000%,100.000000%,100.000000%);stroke: none;"></path>
  <path d="M184.589828 62.880432C184.589828 62.087738,184.274887 61.327591,183.714401 60.767120C183.153931 60.206635,182.393784 59.891693,181.601089 59.891693C180.808395 59.891693,180.048248 60.206635,179.487778 60.767120C178.927292 61.327591,178.612350 62.087738,178.612350 62.880432C178.612350 63.673126,178.927292 64.433273,179.487778 64.993744C180.048248 65.554230,180.808395 65.869171,181.601089 65.869171C182.393784 65.869171,183.153931 65.554230,183.714401 64.993744C184.274887 64.433273,184.589828 63.673126,184.589828 62.880432Z" style="fill: rgb(100.000000%,100.000000%,100.000000%);stroke: none;"></path>
  <path d="M172.666275 78.298859C172.666275 77.506165,172.351334 76.746017,171.790848 76.185547C171.230377 75.625061,170.470230 75.310120,169.677536 75.310120C168.884842 75.310120,168.124695 75.625061,167.564224 76.185547C167.003738 76.746017,166.688797 77.506165,166.688797 78.298859C166.688797 79.091553,167.003738 79.851700,167.564224 80.412170C168.124695 80.972656,168.884842 81.287598,169.677536 81.287598C170.470230 81.287598,171.230377 80.972656,171.790848 80.412170C172.351334 79.851700,172.666275 79.091553,172.666275 78.298859Z" style="fill: rgb(100.000000%,100.000000%,100.000000%);stroke: none;"></path>
  <path d="M170.873245 34.448334C170.873245 33.655640,170.558304 32.895493,169.997818 32.335022C169.437347 31.774536,168.677200 31.459595,167.884506 31.459595C167.091812 31.459595,166.331665 31.774536,165.771194 32.335022C165.210709 32.895493,164.895767 33.655640,164.895767 34.448334C164.895767 35.241028,165.210709 36.001175,165.771194 36.561646C166.331665 37.122131,167.091812 37.437073,167.884506 37.437073C168.677200 37.437073,169.437347 37.122131,169.997818 36.561646C170.558304 36.001175,170.873245 35.241028,170.873245 34.448334Z" style="fill: rgb(100.000000%,100.000000%,100.000000%);stroke: none;"></path>
  <path d="M183.255188 51.311188C183.255188 50.518494,182.940247 49.758347,182.379761 49.197876C181.819290 48.637390,181.059143 48.322449,180.266449 48.322449C179.473755 48.322449,178.713608 48.637390,178.153137 49.197876C177.592651 49.758347,177.277710 50.518494,177.277710 51.311188C177.277710 52.103882,177.592651 52.864029,178.153137 53.424500C178.713608 53.984985,179.473755 54.299927,180.266449 54.299927C181.059143 54.299927,181.819290 53.984985,182.379761 53.424500C182.940247 52.864029,183.255188 52.103882,183.255188 51.311188Z" style="fill: rgb(100.000000%,100.000000%,100.000000%);stroke: none;"></path>
  <path d="M141.399979 35.420731C141.399979 34.628036,141.085037 33.867889,140.524551 33.307419C139.964081 32.746933,139.203934 32.431992,138.411240 32.431992C137.618546 32.431992,136.858398 32.746933,136.297928 33.307419C135.737442 33.867889,135.422501 34.628036,135.422501 35.420731C135.422501 36.213425,135.737442 36.973572,136.297928 37.534042C136.858398 38.094528,137.618546 38.409470,138.411240 38.409470C139.203934 38.409470,139.964081 38.094528,140.524551 37.534042C141.085037 36.973572,141.399979 36.213425,141.399979 35.420731Z" style="fill: rgb(100.000000%,100.000000%,100.000000%);stroke: none;"></path>
  <path d="M160.814774 29.702332C160.814774 28.909637,160.499832 28.149490,159.939346 27.589020C159.378876 27.028534,158.618729 26.713593,157.826035 26.713593C157.033340 26.713593,156.273193 27.028534,155.712723 27.589020C155.152237 28.149490,154.837296 28.909637,154.837296 29.702332C154.837296 30.495026,155.152237 31.255173,155.712723 31.815643C156.273193 32.376129,157.033340 32.691071,157.826035 32.691071C158.618729 32.691071,159.378876 32.376129,159.939346 31.815643C160.499832 31.255173,160.814774 30.495026,160.814774 29.702332Z" style="fill: rgb(100.000000%,100.000000%,100.000000%);stroke: none;"></path>
  <path d="M121.398499 54.658463C121.398499 53.865768,121.083557 53.105621,120.523071 52.545151C119.962601 51.984665,119.202454 51.669724,118.409760 51.669724C117.617065 51.669724,116.856918 51.984665,116.296448 52.545151C115.735962 53.105621,115.421021 53.865768,115.421021 54.658463C115.421021 55.451157,115.735962 56.211304,116.296448 56.771774C116.856918 57.332260,117.617065 57.647202,118.409760 57.647202C119.202454 57.647202,119.962601 57.332260,120.523071 56.771774C121.083557 56.211304,121.398499 55.451157,121.398499 54.658463Z" style="fill: rgb(100.000000%,100.000000%,100.000000%);stroke: none;"></path>
  <path d="M135.958694 45.198181C135.958694 44.405487,135.643753 43.645340,135.083267 43.084869C134.522797 42.524384,133.762650 42.209442,132.969955 42.209442C132.177261 42.209442,131.417114 42.524384,130.856644 43.084869C130.296158 43.645340,129.981216 44.405487,129.981216 45.198181C129.981216 45.990875,130.296158 46.751022,130.856644 47.311493C131.417114 47.871979,132.177261 48.186920,132.969955 48.186920C133.762650 48.186920,134.522797 47.871979,135.083267 47.311493C135.643753 46.751022,135.958694 45.990875,135.958694 45.198181Z" style="fill: rgb(100.000000%,100.000000%,100.000000%);stroke: none;"></path>
  <path d="M101.110947 59.336990C101.110947 58.544296,100.796005 57.784149,100.235519 57.223679C99.675049 56.663193,98.914902 56.348251,98.122208 56.348251C97.329514 56.348251,96.569366 56.663193,96.008896 57.223679C95.448410 57.784149,95.133469 58.544296,95.133469 59.336990C95.133469 60.129684,95.448410 60.889832,96.008896 61.450302C96.569366 62.010788,97.329514 62.325729,98.122208 62.325729C98.914902 62.325729,99.675049 62.010788,100.235519 61.450302C100.796005 60.889832,101.110947 60.129684,101.110947 59.336990Z" style="fill: rgb(100.000000%,100.000000%,100.000000%);stroke: none;"></path>
  <path d="M114.084152 56.104187C114.084152 55.311493,113.769211 54.551346,113.208725 53.990875C112.648254 53.430389,111.888107 53.115448,111.095413 53.115448C110.302719 53.115448,109.542572 53.430389,108.982101 53.990875C108.421616 54.551346,108.106674 55.311493,108.106674 56.104187C108.106674 56.896881,108.421616 57.657028,108.982101 58.217499C109.542572 58.777985,110.302719 59.092926,111.095413 59.092926C111.888107 59.092926,112.648254 58.777985,113.208725 58.217499C113.769211 57.657028,114.084152 56.896881,114.084152 56.104187Z" style="fill: rgb(100.000000%,100.000000%,100.000000%);stroke: none;"></path>
  <path d="M84.139191 66.264587C84.139191 65.471893,83.824249 64.711746,83.263763 64.151276C82.703293 63.590790,81.943146 63.275848,81.150452 63.275848C80.357758 63.275848,79.597610 63.590790,79.037140 64.151276C78.476654 64.711746,78.161713 65.471893,78.161713 66.264587C78.161713 67.057281,78.476654 67.817429,79.037140 68.377899C79.597610 68.938385,80.357758 69.253326,81.150452 69.253326C81.943146 69.253326,82.703293 68.938385,83.263763 68.377899C83.824249 67.817429,84.139191 67.057281,84.139191 66.264587Z" style="fill: rgb(100.000000%,100.000000%,100.000000%);stroke: none;"></path>
  <path d="M95.285522 61.066132C95.285522 60.273438,94.970581 59.513290,94.410095 58.952820C93.849625 58.392334,93.089478 58.077393,92.296783 58.077393C91.504089 58.077393,90.743942 58.392334,90.183472 58.952820C89.622986 59.513290,89.308044 60.273438,89.308044 61.066132C89.308044 61.858826,89.622986 62.618973,90.183472 63.179443C90.743942 63.739929,91.504089 64.054871,92.296783 64.054871C93.089478 64.054871,93.849625 63.739929,94.410095 63.179443C94.970581 62.618973,95.285522 61.858826,95.285522 61.066132Z" style="fill: rgb(100.000000%,100.000000%,100.000000%);stroke: none;"></path>
  <path d="M67.456818 78.299866C67.456818 77.507172,67.141876 76.747025,66.581390 76.186554C66.020920 75.626068,65.260773 75.311127,64.468079 75.311127C63.675385 75.311127,62.915237 75.626068,62.354767 76.186554C61.794281 76.747025,61.479340 77.507172,61.479340 78.299866C61.479340 79.092560,61.794281 79.852707,62.354767 80.413177C62.915237 80.973663,63.675385 81.288605,64.468079 81.288605C65.260773 81.288605,66.020920 80.973663,66.581390 80.413177C67.141876 79.852707,67.456818 79.092560,67.456818 78.299866Z" style="fill: rgb(100.000000%,100.000000%,100.000000%);stroke: none;"></path>
  <path d="M78.933914 69.739044C78.933914 68.946350,78.618973 68.186203,78.058487 67.625732C77.498016 67.065247,76.737869 66.750305,75.945175 66.750305C75.152481 66.750305,74.392334 67.065247,73.831863 67.625732C73.271378 68.186203,72.956436 68.946350,72.956436 69.739044C72.956436 70.531738,73.271378 71.291885,73.831863 71.852356C74.392334 72.412842,75.152481 72.727783,75.945175 72.727783C76.737869 72.727783,77.498016 72.412842,78.058487 71.852356C78.618973 71.291885,78.933914 70.531738,78.933914 69.739044Z" style="fill: rgb(100.000000%,100.000000%,100.000000%);stroke: none;"></path>
  <path d="M43.012833 87.657745C43.012833 86.865051,42.697891 86.104904,42.137405 85.544434C41.576935 84.983948,40.816788 84.669006,40.024094 84.669006C39.231400 84.669006,38.471252 84.983948,37.910782 85.544434C37.350296 86.104904,37.035355 86.865051,37.035355 87.657745C37.035355 88.450439,37.350296 89.210587,37.910782 89.771057C38.471252 90.331543,39.231400 90.646484,40.024094 90.646484C40.816788 90.646484,41.576935 90.331543,42.137405 89.771057C42.697891 89.210587,43.012833 88.450439,43.012833 87.657745Z" style="fill: rgb(100.000000%,100.000000%,100.000000%);stroke: none;"></path>
  <path d="M61.081940 83.665604C61.081940 82.872910,60.766998 82.112762,60.206512 81.552292C59.646042 80.991806,58.885895 80.676865,58.093201 80.676865C57.300507 80.676865,56.540359 80.991806,55.979889 81.552292C55.419403 82.112762,55.104462 82.872910,55.104462 83.665604C55.104462 84.458298,55.419403 85.218445,55.979889 85.778915C56.540359 86.339401,57.300507 86.654343,58.093201 86.654343C58.885895 86.654343,59.646042 86.339401,60.206512 85.778915C60.766998 85.218445,61.081940 84.458298,61.081940 83.665604Z" style="fill: rgb(100.000000%,100.000000%,100.000000%);stroke: none;"></path>
  <path d="M12.923492 91.407501C12.923492 90.614807,12.608551 89.854660,12.048065 89.294189C11.487595 88.733704,10.727448 88.418762,9.934753 88.418762C9.142059 88.418762,8.381912 88.733704,7.821442 89.294189C7.260956 89.854660,6.946014 90.614807,6.946014 91.407501C6.946014 92.200195,7.260956 92.960342,7.821442 93.520813C8.381912 94.081299,9.142059 94.396240,9.934753 94.396240C10.727448 94.396240,11.487595 94.081299,12.048065 93.520813C12.608551 92.960342,12.923492 92.200195,12.923492 91.407501Z" style="fill: rgb(100.000000%,100.000000%,100.000000%);stroke: none;"></path>
  <path d="M32.094864 83.423691C32.094864 82.630997,31.779922 81.870850,31.219437 81.310379C30.658966 80.749893,29.898819 80.434952,29.106125 80.434952C28.313431 80.434952,27.553284 80.749893,26.992813 81.310379C26.432327 81.870850,26.117386 82.630997,26.117386 83.423691C26.117386 84.216385,26.432327 84.976532,26.992813 85.537003C27.553284 86.097488,28.313431 86.412430,29.106125 86.412430C29.898819 86.412430,30.658966 86.097488,31.219437 85.537003C31.779922 84.976532,32.094864 84.216385,32.094864 83.423691Z" style="fill: rgb(100.000000%,100.000000%,100.000000%);stroke: none;"></path>
  <path d="M7.100708 121.819138C7.100708 121.026443,6.785767 120.266296,6.225281 119.705826C5.664810 119.145340,4.904663 118.830399,4.111969 118.830399C3.319275 118.830399,2.559128 119.145340,1.998657 119.705826C1.438171 120.266296,1.123230 121.026443,1.123230 121.819138C1.123230 122.611832,1.438171 123.371979,1.998657 123.932449C2.559128 124.492935,3.319275 124.807877,4.111969 124.807877C4.904663 124.807877,5.664810 124.492935,6.225281 123.932449C6.785767 123.371979,7.100708 122.611832,7.100708 121.819138Z" style="fill: rgb(100.000000%,100.000000%,100.000000%);stroke: none;"></path>
  <path d="M7.940399 101.455124C7.940399 100.662430,7.625458 99.902283,7.064972 99.341812C6.504501 98.781326,5.744354 98.466385,4.951660 98.466385C4.158966 98.466385,3.398819 98.781326,2.838348 99.341812C2.277863 99.902283,1.962921 100.662430,1.962921 101.455124C1.962921 102.247818,2.277863 103.007965,2.838348 103.568436C3.398819 104.128922,4.158966 104.443863,4.951660 104.443863C5.744354 104.443863,6.504501 104.128922,7.064972 103.568436C7.625458 103.007965,7.940399 102.247818,7.940399 101.455124Z" style="fill: rgb(100.000000%,100.000000%,100.000000%);stroke: none;"></path>
  <path d="M27.943405 138.811478C27.943405 138.018784,27.628464 137.258636,27.067978 136.698166C26.507507 136.137680,25.747360 135.822739,24.954666 135.822739C24.161972 135.822739,23.401825 136.137680,22.841354 136.698166C22.280869 137.258636,21.965927 138.018784,21.965927 138.811478C21.965927 139.604172,22.280869 140.364319,22.841354 140.924789C23.401825 141.485275,24.161972 141.800217,24.954666 141.800217C25.747360 141.800217,26.507507 141.485275,27.067978 140.924789C27.628464 140.364319,27.943405 139.604172,27.943405 138.811478Z" style="fill: rgb(100.000000%,100.000000%,100.000000%);stroke: none;"></path>
  <path d="M11.045044 131.852219C11.045044 131.059525,10.730103 130.299377,10.169617 129.738907C9.609146 129.178421,8.848999 128.863480,8.056305 128.863480C7.263611 128.863480,6.503464 129.178421,5.942993 129.738907C5.382507 130.299377,5.067566 131.059525,5.067566 131.852219C5.067566 132.644913,5.382507 133.405060,5.942993 133.965530C6.503464 134.526016,7.263611 134.840958,8.056305 134.840958C8.848999 134.840958,9.609146 134.526016,10.169617 133.965530C10.730103 133.405060,11.045044 132.644913,11.045044 131.852219Z" style="fill: rgb(100.000000%,100.000000%,100.000000%);stroke: none;"></path>
  <path d="M51.507172 148.569916C51.507172 147.777222,51.192230 147.017075,50.631744 146.456604C50.071274 145.896118,49.311127 145.581177,48.518433 145.581177C47.725739 145.581177,46.965591 145.896118,46.405121 146.456604C45.844635 147.017075,45.529694 147.777222,45.529694 148.569916C45.529694 149.362610,45.844635 150.122757,46.405121 150.683228C46.965591 151.243713,47.725739 151.558655,48.518433 151.558655C49.311127 151.558655,50.071274 151.243713,50.631744 150.683228C51.192230 150.122757,51.507172 149.362610,51.507172 148.569916Z" style="fill: rgb(100.000000%,100.000000%,100.000000%);stroke: none;"></path>
  <path d="M38.091476 135.544159C38.091476 134.751465,37.776535 133.991318,37.216049 133.430847C36.655579 132.870361,35.895432 132.555420,35.102737 132.555420C34.310043 132.555420,33.549896 132.870361,32.989426 133.430847C32.428940 133.991318,32.113998 134.751465,32.113998 135.544159C32.113998 136.336853,32.428940 137.097000,32.989426 137.657471C33.549896 138.217957,34.310043 138.532898,35.102737 138.532898C35.895432 138.532898,36.655579 138.217957,37.216049 137.657471C37.776535 137.097000,38.091476 136.336853,38.091476 135.544159Z" style="fill: rgb(100.000000%,100.000000%,100.000000%);stroke: none;"></path>
  <path d="M52.566605 178.872208C52.566605 178.079514,52.251663 177.319366,51.691177 176.758896C51.130707 176.198410,50.370560 175.883469,49.577866 175.883469C48.785172 175.883469,48.025024 176.198410,47.464554 176.758896C46.904068 177.319366,46.589127 178.079514,46.589127 178.872208C46.589127 179.664902,46.904068 180.425049,47.464554 180.985519C48.025024 181.546005,48.785172 181.860947,49.577866 181.860947C50.370560 181.860947,51.130707 181.546005,51.691177 180.985519C52.251663 180.425049,52.566605 179.664902,52.566605 178.872208Z" style="fill: rgb(100.000000%,100.000000%,100.000000%);stroke: none;"></path>
  <path d="M47.075989 159.747665C47.075989 158.954971,46.761047 158.194824,46.200562 157.634354C45.640091 157.073868,44.879944 156.758926,44.087250 156.758926C43.294556 156.758926,42.534409 157.073868,41.973938 157.634354C41.413452 158.194824,41.098511 158.954971,41.098511 159.747665C41.098511 160.540359,41.413452 161.300507,41.973938 161.860977C42.534409 162.421463,43.294556 162.736404,44.087250 162.736404C44.879944 162.736404,45.640091 162.421463,46.200562 161.860977C46.761047 161.300507,47.075989 160.540359,47.075989 159.747665Z" style="fill: rgb(100.000000%,100.000000%,100.000000%);stroke: none;"></path>
  <path d="M85.044144 184.445740C85.044144 183.653046,84.729202 182.892899,84.168716 182.332428C83.608246 181.771942,82.848099 181.457001,82.055405 181.457001C81.262711 181.457001,80.502563 181.771942,79.942093 182.332428C79.381607 182.892899,79.066666 183.653046,79.066666 184.445740C79.066666 185.238434,79.381607 185.998581,79.942093 186.559052C80.502563 187.119537,81.262711 187.434479,82.055405 187.434479C82.848099 187.434479,83.608246 187.119537,84.168716 186.559052C84.729202 185.998581,85.044144 185.238434,85.044144 184.445740Z" style="fill: rgb(100.000000%,100.000000%,100.000000%);stroke: none;"></path>
  <path d="M62.633698 184.704514C62.633698 183.911819,62.318756 183.151672,61.758270 182.591202C61.197800 182.030716,60.437653 181.715775,59.644958 181.715775C58.852264 181.715775,58.092117 182.030716,57.531647 182.591202C56.971161 183.151672,56.656219 183.911819,56.656219 184.704514C56.656219 185.497208,56.971161 186.257355,57.531647 186.817825C58.092117 187.378311,58.852264 187.693253,59.644958 187.693253C60.437653 187.693253,61.197800 187.378311,61.758270 186.817825C62.318756 186.257355,62.633698 185.497208,62.633698 184.704514Z" style="fill: rgb(100.000000%,100.000000%,100.000000%);stroke: none;"></path>
  <path d="M103.102371 153.926224C103.102371 153.133530,102.787430 152.373383,102.226944 151.812912C101.666473 151.252426,100.906326 150.937485,100.113632 150.937485C99.320938 150.937485,98.560791 151.252426,98.000320 151.812912C97.439835 152.373383,97.124893 153.133530,97.124893 153.926224C97.124893 154.718918,97.439835 155.479065,98.000320 156.039536C98.560791 156.600021,99.320938 156.914963,100.113632 156.914963C100.906326 156.914963,101.666473 156.600021,102.226944 156.039536C102.787430 155.479065,103.102371 154.718918,103.102371 153.926224Z" style="fill: rgb(100.000000%,100.000000%,100.000000%);stroke: none;"></path>
  <path d="M95.751053 177.342850C95.751053 176.550156,95.436111 175.790009,94.875626 175.229538C94.315155 174.669052,93.555008 174.354111,92.762314 174.354111C91.969620 174.354111,91.209473 174.669052,90.649002 175.229538C90.088516 175.790009,89.773575 176.550156,89.773575 177.342850C89.773575 178.135544,90.088516 178.895691,90.649002 179.456161C91.209473 180.016647,91.969620 180.331589,92.762314 180.331589C93.555008 180.331589,94.315155 180.016647,94.875626 179.456161C95.436111 178.895691,95.751053 178.135544,95.751053 177.342850Z" style="fill: rgb(100.000000%,100.000000%,100.000000%);stroke: none;"></path>
  <path d="M96.227478 128.375458C98.280548 119.106110,100.875854 109.965240,104.000000 101.000000C106.525818 93.751755,109.417953 86.477615,109.373947 78.784698C109.332336 71.512070,106.668808 64.623291,104.000000 57.872299C101.442459 51.402786,98.851974 44.918045,97.385513 38.113937C95.421402 29.000870,95.284897 19.047897,89.244598 11.868820C83.251801 4.746201,73.287033 2.471375,64.673370 6.054337C55.678452 9.795883,50.224976 18.958130,50.823166 28.711166C51.399475 38.107452,57.458252 45.865479,62.096283 54.005264C65.630188 60.207291,68.375473 66.810852,70.945740 73.468140C73.751053 80.734238,76.528702 88.304230,82.511963 93.322723C88.462677 98.313919,96.350174 99.752853,104.000000 101.000000C112.312363 102.355164,120.715881 103.658295,128.403259 107.123932C138.723816 111.776657,147.846481 120.229080,159.276337 119.760712C170.624893 119.295685,179.558319 110.515900,183.049164 99.504837C186.404449 88.921326,184.271851 76.992157,175.214081 71.139511C167.935013 66.436172,157.507172 67.478653,152.025848 60.501190C145.895966 52.698135,150.903503 41.761032,148.143875 32.554092C144.728287 21.158630,132.325989 16.601196,120.995361 12.513000C110.117691 8.588226,97.940063 4.658432,89.244598 11.868820C82.976578 17.066345,81.493408 26.955475,73.790222 30.162704C66.415222 33.233292,58.596664 27.897552,50.823166 28.711166C39.098358 29.938339,33.561981 42.189255,28.146805 52.904022C22.504990 64.067261,15.170258 75.728912,19.425262 87.455231C22.813675 96.793304,33.449081 103.274017,32.394989 113.508072C31.432205 122.855606,21.199265 127.413742,17.021713 135.544449C12.584351 144.180832,15.348648 154.504135,21.924042 161.873840C28.373215 169.102081,38.215698 172.926010,46.700500 168.849960C55.342163 164.698563,58.984299 152.929169,68.782288 151.477417C79.881897 149.832809,86.314041 162.293182,96.260162 166.200943C109.621078 171.450348,122.561050 161.463669,134.245834 152.598190C145.977066 143.697479,159.275940 134.324768,159.276337 119.760712C159.276627 109.262909,151.269470 99.104050,155.536819 89.165192C159.170746 80.701599,169.677536 78.298859,175.214081 71.139511C181.601089 62.880432,180.266449 51.311188,173.953033 42.713013C167.884506 34.448334,157.826035 29.702332,148.143875 32.554092C138.411240 35.420731,132.969955 45.198181,124.555359 50.665451C118.409760 54.658463,111.095413 56.104187,104.000000 57.872299C98.122208 59.336990,92.296783 61.066132,86.804993 63.627411C81.150452 66.264587,75.945175 69.739044,70.945740 73.468140C64.468079 78.299866,58.093201 83.665604,50.178192 85.414322C40.024094 87.657745,29.106125 83.423691,19.425262 87.455231C9.934753 91.407501,4.951660 101.455124,4.521820 111.879410C4.111969 121.819138,8.056305 131.852219,17.021713 135.544449C24.954666 138.811478,35.102737 135.544159,41.449677 141.706619C48.518433 148.569916,44.087250 159.747665,46.700500 168.849960C49.577866 178.872208,59.644958 184.704514,70.282837 184.581680C82.055405 184.445740,92.762314 177.342850,96.260162 166.200943C100.113632 153.926224,93.459274 140.873550,96.227478 128.375458" style="stroke:rgb(0.000000%,0.000000%,0.000000%); stroke-width: 0.498138;stroke-linecap: round;stroke-linejoin: round;stroke-miterlimit: 10.000000;fill: none;"></path>
  <path d="M96.227478 128.375458C98.280548 119.106110,100.875854 109.965240,104.000000 101.000000" style="stroke:rgb(0.000000%,0.000000%,0.000000%); stroke-width: 1.494400;stroke-linecap: round;stroke-linejoin: round;stroke-miterlimit: 10.000000;fill: none;"></path>
  <path d="M46.700500 168.849960C49.577866 178.872208,59.644958 184.704514,70.282837 184.581680C82.055405 184.445740,92.762314 177.342850,96.260162 166.200943C100.113632 153.926224,93.459274 140.873550,96.227478 128.375458" style="stroke:rgb(0.000000%,0.000000%,0.000000%); stroke-width: 1.494400;stroke-linecap: round;stroke-linejoin: round;stroke-miterlimit: 10.000000;fill: none;"></path>
  <path d="M106.988739 101.000000C106.988739 100.207306,106.673798 99.447159,106.113312 98.886688C105.552841 98.326202,104.792694 98.011261,104.000000 98.011261C103.207306 98.011261,102.447159 98.326202,101.886688 98.886688C101.326202 99.447159,101.011261 100.207306,101.011261 101.000000C101.011261 101.792694,101.326202 102.552841,101.886688 103.113312C102.447159 103.673798,103.207306 103.988739,104.000000 103.988739C104.792694 103.988739,105.552841 103.673798,106.113312 103.113312C106.673798 102.552841,106.988739 101.792694,106.988739 101.000000Z" style="fill: rgb(100.000000%,100.000000%,100.000000%);stroke: none;"></path>
  <path d="M92.618835 98.565384C96.290771 99.704910,100.175095 100.376434,104.000000 101.000000C108.156189 101.677582,112.335159 102.342163,116.436005 103.270554" style="stroke:rgb(0.000000%,0.000000%,0.000000%); stroke-width: 0.498138;stroke-linecap: round;stroke-linejoin: round;stroke-miterlimit: 10.000000;fill: none;"></path>
  <path d="M92.233337 11.868820C92.233337 11.076126,91.918396 10.315979,91.357910 9.755508C90.797440 9.195023,90.037292 8.880081,89.244598 8.880081C88.451904 8.880081,87.691757 9.195023,87.131287 9.755508C86.570801 10.315979,86.255859 11.076126,86.255859 11.868820C86.255859 12.661514,86.570801 13.421661,87.131287 13.982132C87.691757 14.542618,88.451904 14.857559,89.244598 14.857559C90.037292 14.857559,90.797440 14.542618,91.357910 13.982132C91.918396 13.421661,92.233337 12.661514,92.233337 11.868820Z" style="fill: rgb(100.000000%,100.000000%,100.000000%);stroke: none;"></path>
  <path d="M104.301636 8.015213C98.810593 7.443481,93.592331 8.263626,89.244598 11.868820C86.110580 14.467590,84.172775 18.239258,82.055588 21.762131" style="stroke:rgb(0.000000%,0.000000%,0.000000%); stroke-width: 0.498138;stroke-linecap: round;stroke-linejoin: round;stroke-miterlimit: 10.000000;fill: none;"></path>
  <path d="M73.934479 73.468140C73.934479 72.675446,73.619537 71.915298,73.059052 71.354828C72.498581 70.794342,71.738434 70.479401,70.945740 70.479401C70.153046 70.479401,69.392899 70.794342,68.832428 71.354828C68.271942 71.915298,67.957001 72.675446,67.957001 73.468140C67.957001 74.260834,68.271942 75.020981,68.832428 75.581451C69.392899 76.141937,70.153046 76.456879,70.945740 76.456879C71.738434 76.456879,72.498581 76.141937,73.059052 75.581451C73.619537 75.020981,73.934479 74.260834,73.934479 73.468140Z" style="fill: rgb(100.000000%,100.000000%,100.000000%);stroke: none;"></path>
  <path d="M78.629684 68.138306C75.996628 69.802704,73.445450 71.603592,70.945740 73.468140C67.706909 75.884003,64.493774 78.433380,61.100967 80.597366" style="stroke:rgb(0.000000%,0.000000%,0.000000%); stroke-width: 0.498138;stroke-linecap: round;stroke-linejoin: round;stroke-miterlimit: 10.000000;fill: none;"></path>
  <path d="M162.265076 119.760712C162.265076 118.968018,161.950134 118.207870,161.389648 117.647400C160.829178 117.086914,160.069031 116.771973,159.276337 116.771973C158.483643 116.771973,157.723495 117.086914,157.163025 117.647400C156.602539 118.207870,156.287598 118.968018,156.287598 119.760712C156.287598 120.553406,156.602539 121.313553,157.163025 121.874023C157.723495 122.434509,158.483643 122.749451,159.276337 122.749451C160.069031 122.749451,160.829178 122.434509,161.389648 121.874023C161.950134 121.313553,162.265076 120.553406,162.265076 119.760712Z" style="fill: rgb(100.000000%,100.000000%,100.000000%);stroke: none;"></path>
  <path d="M151.160156 138.303192C155.951324 133.026932,159.276138 127.042740,159.276337 119.760712C159.276489 114.511810,157.274765 109.347641,155.806427 104.253342" style="stroke:rgb(0.000000%,0.000000%,0.000000%); stroke-width: 0.498138;stroke-linecap: round;stroke-linejoin: round;stroke-miterlimit: 10.000000;fill: none;"></path>
  <path d="M151.132614 32.554092C151.132614 31.761398,150.817673 31.001251,150.257187 30.440781C149.696716 29.880295,148.936569 29.565353,148.143875 29.565353C147.351181 29.565353,146.591034 29.880295,146.030563 30.440781C145.470078 31.001251,145.155136 31.761398,145.155136 32.554092C145.155136 33.346786,145.470078 34.106934,146.030563 34.667404C146.591034 35.227890,147.351181 35.542831,148.143875 35.542831C148.936569 35.542831,149.696716 35.227890,150.257187 34.667404C150.817673 34.106934,151.132614 33.346786,151.132614 32.554092Z" style="fill: rgb(100.000000%,100.000000%,100.000000%);stroke: none;"></path>
  <path d="M162.403549 33.464890C157.920105 31.601776,152.984955 31.128220,148.143875 32.554092C143.277557 33.987411,139.484070 37.148438,135.855347 40.634552" style="stroke:rgb(0.000000%,0.000000%,0.000000%); stroke-width: 0.498138;stroke-linecap: round;stroke-linejoin: round;stroke-miterlimit: 10.000000;fill: none;"></path>
  <path d="M53.811905 28.711166C53.811905 27.918472,53.496964 27.158325,52.936478 26.597855C52.376007 26.037369,51.615860 25.722427,50.823166 25.722427C50.030472 25.722427,49.270325 26.037369,48.709854 26.597855C48.149368 27.158325,47.834427 27.918472,47.834427 28.711166C47.834427 29.503860,48.149368 30.264008,48.709854 30.824478C49.270325 31.384964,50.030472 31.699905,50.823166 31.699905C51.615860 31.699905,52.376007 31.384964,52.936478 30.824478C53.496964 30.264008,53.811905 29.503860,53.811905 28.711166Z" style="fill: rgb(100.000000%,100.000000%,100.000000%);stroke: none;"></path>
  <path d="M54.150833 15.128448C51.737885 19.105835,50.524078 23.834656,50.823166 28.711166C51.111328 33.409317,52.770096 37.697891,54.936584 41.829407" style="stroke:rgb(0.000000%,0.000000%,0.000000%); stroke-width: 0.498138;stroke-linecap: round;stroke-linejoin: round;stroke-miterlimit: 10.000000;fill: none;"></path>
  <path d="M20.010452 135.544449C20.010452 134.751755,19.695511 133.991608,19.135025 133.431137C18.574554 132.870651,17.814407 132.555710,17.021713 132.555710C16.229019 132.555710,15.468872 132.870651,14.908401 133.431137C14.347916 133.991608,14.032974 134.751755,14.032974 135.544449C14.032974 136.337143,14.347916 137.097290,14.908401 137.657761C15.468872 138.218246,16.229019 138.533188,17.021713 138.533188C17.814407 138.533188,18.574554 138.218246,19.135025 137.657761C19.695511 137.097290,20.010452 136.337143,20.010452 135.544449Z" style="fill: rgb(100.000000%,100.000000%,100.000000%);stroke: none;"></path>
  <path d="M7.256058 126.054749C9.311584 130.267014,12.539017 133.698334,17.021713 135.544449C20.988190 137.177963,25.508453 137.177887,29.830460 137.539749" style="stroke:rgb(0.000000%,0.000000%,0.000000%); stroke-width: 0.498138;stroke-linecap: round;stroke-linejoin: round;stroke-miterlimit: 10.000000;fill: none;"></path>
  <path d="M99.248901 166.200943C99.248901 165.408249,98.933960 164.648102,98.373474 164.087631C97.813004 163.527145,97.052856 163.212204,96.260162 163.212204C95.467468 163.212204,94.707321 163.527145,94.146851 164.087631C93.586365 164.648102,93.271423 165.408249,93.271423 166.200943C93.271423 166.993637,93.586365 167.753784,94.146851 168.314255C94.707321 168.874741,95.467468 169.189682,96.260162 169.189682C97.052856 169.189682,97.813004 168.874741,98.373474 168.314255C98.933960 167.753784,99.248901 166.993637,99.248901 166.200943Z" style="fill: rgb(100.000000%,100.000000%,100.000000%);stroke: none;"></path>
  <path d="M86.374527 179.518539C90.960052 176.333084,94.511246 171.771896,96.260162 166.200943C98.186905 160.063583,97.486679 153.731735,96.650787 147.371964" style="stroke:rgb(0.000000%,0.000000%,0.000000%); stroke-width: 1.494400;stroke-linecap: round;stroke-linejoin: round;stroke-miterlimit: 10.000000;fill: none;"></path>
  <path d="M178.202820 71.139511C178.202820 70.346817,177.887878 69.586670,177.327393 69.026199C176.766922 68.465714,176.006775 68.150772,175.214081 68.150772C174.421387 68.150772,173.661240 68.465714,173.100769 69.026199C172.540283 69.586670,172.225342 70.346817,172.225342 71.139511C172.225342 71.932205,172.540283 72.692352,173.100769 73.252823C173.661240 73.813309,174.421387 74.128250,175.214081 74.128250C176.006775 74.128250,176.766922 73.813309,177.327393 73.252823C177.887878 72.692352,178.202820 71.932205,178.202820 71.139511Z" style="fill: rgb(100.000000%,100.000000%,100.000000%);stroke: none;"></path>
  <path d="M183.786514 83.548080C182.540558 78.511276,179.742966 74.065826,175.214081 71.139511C171.574539 68.787842,167.147812 67.872620,162.945801 66.673141" style="stroke:rgb(0.000000%,0.000000%,0.000000%); stroke-width: 0.498138;stroke-linecap: round;stroke-linejoin: round;stroke-miterlimit: 10.000000;fill: none;"></path>
  <path d="M106.988739 57.872299C106.988739 57.079605,106.673798 56.319458,106.113312 55.758987C105.552841 55.198502,104.792694 54.883560,104.000000 54.883560C103.207306 54.883560,102.447159 55.198502,101.886688 55.758987C101.326202 56.319458,101.011261 57.079605,101.011261 57.872299C101.011261 58.664993,101.326202 59.425140,101.886688 59.985611C102.447159 60.546097,103.207306 60.861038,104.000000 60.861038C104.792694 60.861038,105.552841 60.546097,106.113312 59.985611C106.673798 59.425140,106.988739 58.664993,106.988739 57.872299Z" style="fill: rgb(100.000000%,100.000000%,100.000000%);stroke: none;"></path>
  <path d="M107.672165 68.132874C106.667480 64.657730,105.334396 61.247787,104.000000 57.872299C102.721222 54.637543,101.434219 51.398972,100.283600 48.118576" style="stroke:rgb(0.000000%,0.000000%,0.000000%); stroke-width: 0.498138;stroke-linecap: round;stroke-linejoin: round;stroke-miterlimit: 10.000000;fill: none;"></path>
  <path d="M22.414001 87.455231C22.414001 86.662537,22.099060 85.902390,21.538574 85.341919C20.978104 84.781433,20.217957 84.466492,19.425262 84.466492C18.632568 84.466492,17.872421 84.781433,17.311951 85.341919C16.751465 85.902390,16.436523 86.662537,16.436523 87.455231C16.436523 88.247925,16.751465 89.008072,17.311951 89.568542C17.872421 90.129028,18.632568 90.443970,19.425262 90.443970C20.217957 90.443970,20.978104 90.129028,21.538574 89.568542C22.099060 89.008072,22.414001 88.247925,22.414001 87.455231Z" style="fill: rgb(100.000000%,100.000000%,100.000000%);stroke: none;"></path>
  <path d="M20.074722 69.968475C18.067688 75.745087,17.297760 81.592072,19.425262 87.455231C21.119476 92.124268,24.625427 96.078964,27.576065 100.145660" style="stroke:rgb(0.000000%,0.000000%,0.000000%); stroke-width: 0.498138;stroke-linecap: round;stroke-linejoin: round;stroke-miterlimit: 10.000000;fill: none;"></path>
  <path d="M49.689240 168.849960C49.689240 168.057266,49.374298 167.297119,48.813812 166.736649C48.253342 166.176163,47.493195 165.861221,46.700500 165.861221C45.907806 165.861221,45.147659 166.176163,44.587189 166.736649C44.026703 167.297119,43.711761 168.057266,43.711761 168.849960C43.711761 169.642654,44.026703 170.402802,44.587189 170.963272C45.147659 171.523758,45.907806 171.838699,46.700500 171.838699C47.493195 171.838699,48.253342 171.523758,48.813812 170.963272C49.374298 170.402802,49.689240 169.642654,49.689240 168.849960Z" style="fill: rgb(100.000000%,100.000000%,100.000000%);stroke: none;"></path>
  <path d="M33.548920 169.601013C37.876282 170.951019,42.458099 170.887985,46.700500 168.849960C51.021332 166.774261,54.092285 162.794052,57.307785 159.151306" style="stroke:rgb(0.000000%,0.000000%,0.000000%); stroke-width: 0.498138;stroke-linecap: round;stroke-linejoin: round;stroke-miterlimit: 10.000000;fill: none;"></path>
  <path d="M70.282837 184.581680C79.700928 184.472931,88.436996 179.905304,93.345566 172.377899" style="stroke:rgb(0.000000%,0.000000%,0.000000%); stroke-width: 0.498138;stroke-linecap: round;stroke-linejoin: round;stroke-miterlimit: 10.000000;fill: none;"></path>
  <path d="M91.945160 177.177612C92.564713 175.633255,93.036575 174.027725,93.345566 172.377899C91.960464 173.326004,90.491501 174.127579,88.961395 174.781494Z" style="stroke:rgb(0.000000%,0.000000%,0.000000%); stroke-width: 0.498138;fill: rgb(0.000000%,0.000000%,0.000000%);"></path>
  <path d="M70.282837 184.581680C79.700928 184.472931,88.436996 179.905304,93.345566 172.377899" style="stroke:rgb(0.000000%,0.000000%,0.000000%); stroke-width: 0.498138;stroke-linecap: round;stroke-linejoin: round;stroke-miterlimit: 10.000000;fill: none;"></path>
  <path d="M92.619156 175.288452C92.917450 174.336548,93.160675 173.365158,93.345566 172.377899C92.516724 172.945236,91.657867 173.460114,90.773819 173.922272Z" style="stroke:rgb(0.000000%,0.000000%,0.000000%); stroke-width: 0.498138;fill: rgb(0.000000%,0.000000%,0.000000%);"></path>
  <path d="M109.373947 78.784698C109.340652 72.966568,107.629333 67.394104,105.579697 61.941330" style="stroke:rgb(0.000000%,0.000000%,0.000000%); stroke-width: 0.498138;stroke-linecap: round;stroke-linejoin: round;stroke-miterlimit: 10.000000;fill: none;"></path>
  <path d="M107.601486 64.157913C106.939438 63.409836,106.263519 62.672043,105.579697 61.941330C105.546509 62.941544,105.502762 63.941208,105.441910 64.938309Z" style="stroke:rgb(0.000000%,0.000000%,0.000000%); stroke-width: 0.498138;fill: rgb(0.000000%,0.000000%,0.000000%);"></path>
  <path d="M64.673370 6.054337C57.477402 9.047592,52.547989 15.510101,51.170364 22.968964" style="stroke:rgb(0.000000%,0.000000%,0.000000%); stroke-width: 0.498138;stroke-linecap: round;stroke-linejoin: round;stroke-miterlimit: 10.000000;fill: none;"></path>
  <path d="M50.733795 20.000992C50.815277 20.993698,50.960617 21.985199,51.170364 22.968964C51.717697 22.125031,52.316010 21.321182,52.960388 20.561630Z" style="stroke:rgb(0.000000%,0.000000%,0.000000%); stroke-width: 0.498138;fill: rgb(0.000000%,0.000000%,0.000000%);"></path>
  <path d="M82.511963 93.322723C87.272552 97.315689,93.272705 99.035202,99.399063 100.201828" style="stroke:rgb(0.000000%,0.000000%,0.000000%); stroke-width: 0.498138;stroke-linecap: round;stroke-linejoin: round;stroke-miterlimit: 10.000000;fill: none;"></path>
  <path d="M96.451462 100.760452C97.435410 100.594223,98.418457 100.405243,99.399063 100.201828C98.561859 99.652252,97.733109 99.090744,96.919815 98.512527Z" style="stroke:rgb(0.000000%,0.000000%,0.000000%); stroke-width: 0.498138;fill: rgb(0.000000%,0.000000%,0.000000%);"></path>
  <path d="M152.025848 60.501190C147.121918 54.258728,149.345993 46.010452,149.018814 38.246872" style="stroke:rgb(0.000000%,0.000000%,0.000000%); stroke-width: 0.498138;stroke-linecap: round;stroke-linejoin: round;stroke-miterlimit: 10.000000;fill: none;"></path>
  <path d="M150.185852 41.010590C149.821243 40.074417,149.437820 39.148987,149.018814 38.246872C148.677200 39.181030,148.293930 40.106522,147.889740 41.026306Z" style="stroke:rgb(0.000000%,0.000000%,0.000000%); stroke-width: 0.498138;fill: rgb(0.000000%,0.000000%,0.000000%);"></path>
  <path d="M73.790222 30.162704C67.890198 32.619186,61.706299 29.695572,55.488678 28.844467" style="stroke:rgb(0.000000%,0.000000%,0.000000%); stroke-width: 0.498138;stroke-linecap: round;stroke-linejoin: round;stroke-miterlimit: 10.000000;fill: none;"></path>
  <path d="M58.419708 28.205276C57.431732 28.387939,56.450638 28.591995,55.488678 28.844467C56.347397 29.346176,57.185425 29.895630,58.013184 30.465073Z" style="stroke:rgb(0.000000%,0.000000%,0.000000%); stroke-width: 0.498138;fill: rgb(0.000000%,0.000000%,0.000000%);"></path>
  <path d="M32.394989 113.508072C31.624756 120.986130,24.921585 125.398956,20.132233 131.027908" style="stroke:rgb(0.000000%,0.000000%,0.000000%); stroke-width: 0.498138;stroke-linecap: round;stroke-linejoin: round;stroke-miterlimit: 10.000000;fill: none;"></path>
  <path d="M21.149307 128.205582C20.784241 129.140808,20.437973 130.080811,20.132233 131.027908C21.018143 130.574432,21.927673 130.154602,22.847122 129.751450Z" style="stroke:rgb(0.000000%,0.000000%,0.000000%); stroke-width: 0.498138;fill: rgb(0.000000%,0.000000%,0.000000%);"></path>
  <path d="M21.924042 161.873840C27.083405 167.656448,34.414505 171.260300,41.484802 170.383545" style="stroke:rgb(0.000000%,0.000000%,0.000000%); stroke-width: 0.498138;stroke-linecap: round;stroke-linejoin: round;stroke-miterlimit: 10.000000;fill: none;"></path>
  <path d="M38.757202 171.632614C39.699402 171.294266,40.611526 170.879028,41.484802 170.383545C40.516953 170.116394,39.578369 169.765030,38.672882 169.338028Z" style="stroke:rgb(0.000000%,0.000000%,0.000000%); stroke-width: 0.498138;fill: rgb(0.000000%,0.000000%,0.000000%);"></path>
  <path d="M155.536819 89.165192C158.443970 82.394287,165.749802 79.502365,171.390549 74.950821" style="stroke:rgb(0.000000%,0.000000%,0.000000%); stroke-width: 0.498138;stroke-linecap: round;stroke-linejoin: round;stroke-miterlimit: 10.000000;fill: none;"></path>
  <path d="M169.857819 77.529694C170.396408 76.682144,170.913986 75.824936,171.390549 74.950821C170.435471 75.231918,169.463333 75.472061,168.483185 75.690521Z" style="stroke:rgb(0.000000%,0.000000%,0.000000%); stroke-width: 0.498138;fill: rgb(0.000000%,0.000000%,0.000000%);"></path>
  <path d="M173.953033 42.713013C169.098190 36.101242,161.689758 31.741455,153.963303 31.722137" style="stroke:rgb(0.000000%,0.000000%,0.000000%); stroke-width: 0.498138;stroke-linecap: round;stroke-linejoin: round;stroke-miterlimit: 10.000000;fill: none;"></path>
  <path d="M156.812561 30.783203C155.843903 31.027954,154.892059 31.340149,153.963303 31.722137C154.890137 32.108765,155.783936 32.561096,156.641937 33.072998Z" style="stroke:rgb(0.000000%,0.000000%,0.000000%); stroke-width: 0.498138;fill: rgb(0.000000%,0.000000%,0.000000%);"></path>
  <path d="M86.804993 63.627411C82.281342 65.737167,78.045227 68.382767,73.972000 71.265930" style="stroke:rgb(0.000000%,0.000000%,0.000000%); stroke-width: 0.498138;stroke-linecap: round;stroke-linejoin: round;stroke-miterlimit: 10.000000;fill: none;"></path>
  <path d="M75.602325 68.747665C75.047958 69.579544,74.505127 70.419586,73.972000 71.265930C74.947449 71.044464,75.925278 70.834335,76.905518 70.638107Z" style="stroke:rgb(0.000000%,0.000000%,0.000000%); stroke-width: 0.498138;fill: rgb(0.000000%,0.000000%,0.000000%);"></path>
  <path d="M41.449677 141.706619C47.104706 147.197281,45.399719 155.449203,45.829529 163.190735" style="stroke:rgb(0.000000%,0.000000%,0.000000%); stroke-width: 0.498138;stroke-linecap: round;stroke-linejoin: round;stroke-miterlimit: 10.000000;fill: none;"></path>
  <path d="M44.607864 160.450684C44.996414 161.375885,45.398331 162.293915,45.829529 163.190735C46.158798 162.251709,46.523758 161.318359,46.903244 160.389404Z" style="stroke:rgb(0.000000%,0.000000%,0.000000%); stroke-width: 0.498138;fill: rgb(0.000000%,0.000000%,0.000000%);"></path>
  <path d="M93.236832 131.085663L99.218124 131.085663L99.218124 123.665268L93.236832 123.665268Z" style="fill: rgb(100.000000%,100.000000%,100.000000%);stroke: none;"></path>
  <path d="M93.236832 133.085663L99.218124 133.085663L99.218124 125.665268L93.236832 125.665268Z" style="fill: rgb(100.000000%,100.000000%,100.000000%);stroke: none;"></path>
  <g transform="translate(93.736832 131.585663)" style="fill: rgb(0.000000%,0.000000%,0.000000%);">
    <use xlink:href="#GLYPHcmr10_49"></use>
  </g>
  <path d="M94.394867 40.824142L100.376160 40.824142L100.376160 33.403748L94.394867 33.403748Z" style="fill: rgb(100.000000%,100.000000%,100.000000%);stroke: none;"></path>
  <path d="M94.394867 42.824142L100.376160 42.824142L100.376160 35.403748L94.394867 35.403748Z" style="fill: rgb(100.000000%,100.000000%,100.000000%);stroke: none;"></path>
  <g transform="translate(94.894867 41.324142)" style="fill: rgb(0.000000%,0.000000%,0.000000%);">
    <use xlink:href="#GLYPHcmr10_50"></use>
  </g>
  <path d="M59.105637 56.715469L65.086929 56.715469L65.086929 49.295074L59.105637 49.295074Z" style="fill: rgb(100.000000%,100.000000%,100.000000%);stroke: none;"></path>
  <path d="M59.105637 58.715469L65.086929 58.715469L65.086929 51.295074L59.105637 51.295074Z" style="fill: rgb(100.000000%,100.000000%,100.000000%);stroke: none;"></path>
  <g transform="translate(59.605637 57.215469)" style="fill: rgb(0.000000%,0.000000%,0.000000%);">
    <use xlink:href="#GLYPHcmr10_51"></use>
  </g>
  <path d="M125.412613 109.834137L131.393906 109.834137L131.393906 102.413742L125.412613 102.413742Z" style="fill: rgb(100.000000%,100.000000%,100.000000%);stroke: none;"></path>
  <path d="M125.412613 111.834137L131.393906 111.834137L131.393906 104.413742L125.412613 104.413742Z" style="fill: rgb(100.000000%,100.000000%,100.000000%);stroke: none;"></path>
  <g transform="translate(125.912613 110.334137)" style="fill: rgb(0.000000%,0.000000%,0.000000%);">
    <use xlink:href="#GLYPHcmr10_52"></use>
  </g>
  <path d="M180.058517 102.215042L186.039810 102.215042L186.039810 94.794647L180.058517 94.794647Z" style="fill: rgb(100.000000%,100.000000%,100.000000%);stroke: none;"></path>
  <path d="M180.058517 104.215042L186.039810 104.215042L186.039810 96.794647L180.058517 96.794647Z" style="fill: rgb(100.000000%,100.000000%,100.000000%);stroke: none;"></path>
  <g transform="translate(180.558517 102.715042)" style="fill: rgb(0.000000%,0.000000%,0.000000%);">
    <use xlink:href="#GLYPHcmr10_53"></use>
  </g>
  <path d="M118.004715 15.223206L123.986008 15.223206L123.986008 7.802811L118.004715 7.802811Z" style="fill: rgb(100.000000%,100.000000%,100.000000%);stroke: none;"></path>
  <path d="M118.004715 17.223206L123.986008 17.223206L123.986008 9.802811L118.004715 9.802811Z" style="fill: rgb(100.000000%,100.000000%,100.000000%);stroke: none;"></path>
  <g transform="translate(118.504715 15.723206)" style="fill: rgb(0.000000%,0.000000%,0.000000%);">
    <use xlink:href="#GLYPHcmr10_54"></use>
  </g>
  <path d="M25.156158 55.614227L31.137451 55.614227L31.137451 48.193832L25.156158 48.193832Z" style="fill: rgb(100.000000%,100.000000%,100.000000%);stroke: none;"></path>
  <path d="M25.156158 57.614227L31.137451 57.614227L31.137451 50.193832L25.156158 50.193832Z" style="fill: rgb(100.000000%,100.000000%,100.000000%);stroke: none;"></path>
  <g transform="translate(25.656158 56.114227)" style="fill: rgb(0.000000%,0.000000%,0.000000%);">
    <use xlink:href="#GLYPHcmr10_55"></use>
  </g>
  <path d="M65.791641 154.187622L71.772934 154.187622L71.772934 146.767227L65.791641 146.767227Z" style="fill: rgb(100.000000%,100.000000%,100.000000%);stroke: none;"></path>
  <path d="M65.791641 156.187622L71.772934 156.187622L71.772934 148.767227L65.791641 148.767227Z" style="fill: rgb(100.000000%,100.000000%,100.000000%);stroke: none;"></path>
  <g transform="translate(66.291641 154.687622)" style="fill: rgb(0.000000%,0.000000%,0.000000%);">
    <use xlink:href="#GLYPHcmr10_56"></use>
  </g>
  <path d="M131.255188 155.308395L137.236481 155.308395L137.236481 147.888000L131.255188 147.888000Z" style="fill: rgb(100.000000%,100.000000%,100.000000%);stroke: none;"></path>
  <path d="M131.255188 157.308395L137.236481 157.308395L137.236481 149.888000L131.255188 149.888000Z" style="fill: rgb(100.000000%,100.000000%,100.000000%);stroke: none;"></path>
  <g transform="translate(131.755188 155.808395)" style="fill: rgb(0.000000%,0.000000%,0.000000%);">
    <use xlink:href="#GLYPHcmr10_57"></use>
  </g>
  <path d="M119.074005 53.375656L130.036713 53.375656L130.036713 45.955261L119.074005 45.955261Z" style="fill: rgb(100.000000%,100.000000%,100.000000%);stroke: none;"></path>
  <path d="M119.074005 55.375656L130.036713 55.375656L130.036713 47.955261L119.074005 47.955261Z" style="fill: rgb(100.000000%,100.000000%,100.000000%);stroke: none;"></path>
  <g transform="translate(119.574005 53.875656)" style="fill: rgb(0.000000%,0.000000%,0.000000%);">
    <use xlink:href="#GLYPHcmr10_49"></use>
    <use xlink:href="#GLYPHcmr10_48" x="5.000095"></use>
  </g>
  <path d="M44.696838 88.124527L55.659546 88.124527L55.659546 80.704132L44.696838 80.704132Z" style="fill: rgb(100.000000%,100.000000%,100.000000%);stroke: none;"></path>
  <path d="M44.696838 90.124527L55.659546 90.124527L55.659546 82.704132L44.696838 82.704132Z" style="fill: rgb(100.000000%,100.000000%,100.000000%);stroke: none;"></path>
  <g transform="translate(45.196838 88.624527)" style="fill: rgb(0.000000%,0.000000%,0.000000%);">
    <use xlink:href="#GLYPHcmr10_49"></use>
    <use xlink:href="#GLYPHcmr10_49" x="5.000095"></use>
  </g>
  <path d="M-0.959534 114.589615L10.003174 114.589615L10.003174 107.169220L-0.959534 107.169220Z" style="fill: rgb(100.000000%,100.000000%,100.000000%);stroke: none;"></path>
  <path d="M-0.959534 116.589615L10.003174 116.589615L10.003174 109.169220L-0.959534 109.169220Z" style="fill: rgb(100.000000%,100.000000%,100.000000%);stroke: none;"></path>
  <g transform="translate(-0.459534 115.089615)" style="fill: rgb(0.000000%,0.000000%,0.000000%);">
    <use xlink:href="#GLYPHcmr10_49"></use>
    <use xlink:href="#GLYPHcmr10_50" x="5.000095"></use>
  </g>
</svg>
