<?xml version="1.0"?>
<!-- Created by MetaPost 1.999 on 2021.07.06:0011 -->
<svg version="1.1" xmlns="http://www.w3.org/2000/svg" xmlns:xlink="http://www.w3.org/1999/xlink" width="199.789841" height="195.662903" viewBox="0 0 199.789841 195.662903">
<!-- Original BoundingBox: -131.363235 -38.010574 68.426605 157.652328 -->
  <defs>
    <g transform="scale(0.009963,0.009963)" id="GLYPHcmr10_48">
      <path style="fill-rule: evenodd;" d="M460.000000 -320.000000C460.000000 -400.000000,455.000000 -480.000000,420.000000 -554.000000C374.000000 -650.000000,292.000000 -666.000000,250.000000 -666.000000C190.000000 -666.000000,117.000000 -640.000000,76.000000 -547.000000C44.000000 -478.000000,39.000000 -400.000000,39.000000 -320.000000C39.000000 -245.000000,43.000000 -155.000000,84.000000 -79.000000C127.000000 2.000000,200.000000 22.000000,249.000000 22.000000C303.000000 22.000000,379.000000 1.000000,423.000000 -94.000000C455.000000 -163.000000,460.000000 -241.000000,460.000000 -320.000000M249.000000 -0.000000C210.000000 -0.000000,151.000000 -25.000000,133.000000 -121.000000C122.000000 -181.000000,122.000000 -273.000000,122.000000 -332.000000C122.000000 -396.000000,122.000000 -462.000000,130.000000 -516.000000C149.000000 -635.000000,224.000000 -644.000000,249.000000 -644.000000C282.000000 -644.000000,348.000000 -626.000000,367.000000 -527.000000C377.000000 -471.000000,377.000000 -395.000000,377.000000 -332.000000C377.000000 -257.000000,377.000000 -189.000000,366.000000 -125.000000C351.000000 -30.000000,294.000000 -0.000000,249.000000 -0.000000"></path>
    </g>
    <g transform="scale(0.009963,0.009963)" id="GLYPHcmr10_49">
      <path style="fill-rule: evenodd;" d="M294.000000 -640.000000C294.000000 -664.000000,294.000000 -666.000000,271.000000 -666.000000C209.000000 -602.000000,121.000000 -602.000000,89.000000 -602.000000L89.000000 -571.000000C109.000000 -571.000000,168.000000 -571.000000,220.000000 -597.000000L220.000000 -79.000000C220.000000 -43.000000,217.000000 -31.000000,127.000000 -31.000000L95.000000 -31.000000L95.000000 -0.000000L257.000000 -0.000000L130.000000 -3.000000L217.000000 -3.000000L257.000000 -3.000000L297.000000 -3.000000L384.000000 -3.000000L419.000000 -0.000000L419.000000 -31.000000L387.000000 -31.000000C297.000000 -31.000000,294.000000 -42.000000,294.000000 -79.000000"></path>
    </g>
    <g transform="scale(0.009963,0.009963)" id="GLYPHcmr10_50">
      <path style="fill-rule: evenodd;" d="M127.000000 -77.000000L233.000000 -180.000000C389.000000 -318.000000,449.000000 -372.000000,449.000000 -472.000000C449.000000 -586.000000,359.000000 -666.000000,237.000000 -666.000000C124.000000 -666.000000,50.000000 -574.000000,50.000000 -485.000000C50.000000 -429.000000,100.000000 -429.000000,103.000000 -429.000000C120.000000 -429.000000,155.000000 -441.000000,155.000000 -482.000000C155.000000 -508.000000,137.000000 -534.000000,102.000000 -534.000000C94.000000 -534.000000,92.000000 -534.000000,89.000000 -533.000000C112.000000 -598.000000,166.000000 -635.000000,224.000000 -635.000000C315.000000 -635.000000,358.000000 -554.000000,358.000000 -472.000000C358.000000 -392.000000,308.000000 -313.000000,253.000000 -251.000000L61.000000 -37.000000C50.000000 -26.000000,50.000000 -24.000000,50.000000 -0.000000L421.000000 -0.000000L449.000000 -174.000000L424.000000 -174.000000C419.000000 -144.000000,412.000000 -100.000000,402.000000 -85.000000C395.000000 -77.000000,329.000000 -77.000000,307.000000 -77.000000"></path>
    </g>
    <g transform="scale(0.009963,0.009963)" id="GLYPHcmr10_51">
      <path style="fill-rule: evenodd;" d="M290.000000 -352.000000C372.000000 -379.000000,430.000000 -449.000000,430.000000 -528.000000C430.000000 -610.000000,342.000000 -666.000000,246.000000 -666.000000C145.000000 -666.000000,69.000000 -606.000000,69.000000 -530.000000C69.000000 -497.000000,91.000000 -478.000000,120.000000 -478.000000C151.000000 -478.000000,171.000000 -500.000000,171.000000 -529.000000C171.000000 -579.000000,124.000000 -579.000000,109.000000 -579.000000C140.000000 -628.000000,206.000000 -641.000000,242.000000 -641.000000C283.000000 -641.000000,338.000000 -619.000000,338.000000 -529.000000C338.000000 -517.000000,336.000000 -459.000000,310.000000 -415.000000C280.000000 -367.000000,246.000000 -364.000000,221.000000 -363.000000C213.000000 -362.000000,189.000000 -360.000000,182.000000 -360.000000C174.000000 -359.000000,167.000000 -358.000000,167.000000 -348.000000C167.000000 -337.000000,174.000000 -337.000000,191.000000 -337.000000L235.000000 -337.000000C317.000000 -337.000000,354.000000 -269.000000,354.000000 -171.000000C354.000000 -35.000000,285.000000 -6.000000,241.000000 -6.000000C198.000000 -6.000000,123.000000 -23.000000,88.000000 -82.000000C123.000000 -77.000000,154.000000 -99.000000,154.000000 -137.000000C154.000000 -173.000000,127.000000 -193.000000,98.000000 -193.000000C74.000000 -193.000000,42.000000 -179.000000,42.000000 -135.000000C42.000000 -44.000000,135.000000 22.000000,244.000000 22.000000C366.000000 22.000000,457.000000 -69.000000,457.000000 -171.000000C457.000000 -253.000000,394.000000 -331.000000,290.000000 -352.000000"></path>
    </g>
    <g transform="scale(0.009963,0.009963)" id="GLYPHcmr10_52">
      <path style="fill-rule: evenodd;" d="M294.000000 -165.000000L294.000000 -78.000000C294.000000 -42.000000,292.000000 -31.000000,218.000000 -31.000000L197.000000 -31.000000L197.000000 -0.000000L332.000000 -0.000000L238.000000 -3.000000L290.000000 -3.000000L332.000000 -3.000000L374.000000 -3.000000L427.000000 -3.000000L468.000000 -0.000000L468.000000 -31.000000L447.000000 -31.000000C373.000000 -31.000000,371.000000 -42.000000,371.000000 -78.000000L371.000000 -165.000000L471.000000 -165.000000L471.000000 -196.000000L371.000000 -196.000000L371.000000 -651.000000C371.000000 -671.000000,371.000000 -677.000000,355.000000 -677.000000C346.000000 -677.000000,343.000000 -677.000000,335.000000 -665.000000L28.000000 -196.000000L28.000000 -165.000000M300.000000 -196.000000L56.000000 -196.000000L300.000000 -569.000000"></path>
    </g>
    <g transform="scale(0.009963,0.009963)" id="GLYPHcmr10_53">
      <path style="fill-rule: evenodd;" d="M449.000000 -201.000000C449.000000 -320.000000,367.000000 -420.000000,259.000000 -420.000000C211.000000 -420.000000,168.000000 -404.000000,132.000000 -369.000000L132.000000 -564.000000C152.000000 -558.000000,185.000000 -551.000000,217.000000 -551.000000C340.000000 -551.000000,410.000000 -642.000000,410.000000 -655.000000C410.000000 -661.000000,407.000000 -666.000000,400.000000 -666.000000C399.000000 -666.000000,397.000000 -666.000000,392.000000 -663.000000C372.000000 -654.000000,323.000000 -634.000000,256.000000 -634.000000C216.000000 -634.000000,170.000000 -641.000000,123.000000 -662.000000C115.000000 -665.000000,113.000000 -665.000000,111.000000 -665.000000C101.000000 -665.000000,101.000000 -657.000000,101.000000 -641.000000L101.000000 -345.000000C101.000000 -327.000000,101.000000 -319.000000,115.000000 -319.000000C122.000000 -319.000000,124.000000 -322.000000,128.000000 -328.000000C139.000000 -344.000000,176.000000 -398.000000,257.000000 -398.000000C309.000000 -398.000000,334.000000 -352.000000,342.000000 -334.000000C358.000000 -297.000000,360.000000 -258.000000,360.000000 -208.000000C360.000000 -173.000000,360.000000 -113.000000,336.000000 -71.000000C312.000000 -32.000000,275.000000 -6.000000,229.000000 -6.000000C156.000000 -6.000000,99.000000 -59.000000,82.000000 -118.000000C85.000000 -117.000000,88.000000 -116.000000,99.000000 -116.000000C132.000000 -116.000000,149.000000 -141.000000,149.000000 -165.000000C149.000000 -189.000000,132.000000 -214.000000,99.000000 -214.000000C85.000000 -214.000000,50.000000 -207.000000,50.000000 -161.000000C50.000000 -75.000000,119.000000 22.000000,231.000000 22.000000C347.000000 22.000000,449.000000 -74.000000,449.000000 -201.000000"></path>
    </g>
    <g transform="scale(0.009963,0.009963)" id="GLYPHcmr10_54">
      <path style="fill-rule: evenodd;" d="M132.000000 -328.000000L132.000000 -352.000000C132.000000 -605.000000,256.000000 -641.000000,307.000000 -641.000000C331.000000 -641.000000,373.000000 -635.000000,395.000000 -601.000000C380.000000 -601.000000,340.000000 -601.000000,340.000000 -556.000000C340.000000 -525.000000,364.000000 -510.000000,386.000000 -510.000000C402.000000 -510.000000,432.000000 -519.000000,432.000000 -558.000000C432.000000 -618.000000,388.000000 -666.000000,305.000000 -666.000000C177.000000 -666.000000,42.000000 -537.000000,42.000000 -316.000000C42.000000 -49.000000,158.000000 22.000000,251.000000 22.000000C362.000000 22.000000,457.000000 -72.000000,457.000000 -204.000000C457.000000 -331.000000,368.000000 -427.000000,257.000000 -427.000000C189.000000 -427.000000,152.000000 -376.000000,132.000000 -328.000000M251.000000 -6.000000C188.000000 -6.000000,158.000000 -66.000000,152.000000 -81.000000C134.000000 -128.000000,134.000000 -208.000000,134.000000 -226.000000C134.000000 -304.000000,166.000000 -404.000000,256.000000 -404.000000C272.000000 -404.000000,318.000000 -404.000000,349.000000 -342.000000C367.000000 -305.000000,367.000000 -254.000000,367.000000 -205.000000C367.000000 -157.000000,367.000000 -107.000000,350.000000 -71.000000C320.000000 -11.000000,274.000000 -6.000000,251.000000 -6.000000"></path>
    </g>
    <g transform="scale(0.009963,0.009963)" id="GLYPHcmr10_55">
      <path style="fill-rule: evenodd;" d="M476.000000 -609.000000C485.000000 -621.000000,485.000000 -623.000000,485.000000 -644.000000L242.000000 -644.000000C120.000000 -644.000000,118.000000 -657.000000,114.000000 -676.000000L89.000000 -676.000000L56.000000 -470.000000L81.000000 -470.000000C84.000000 -486.000000,93.000000 -549.000000,106.000000 -561.000000C113.000000 -567.000000,191.000000 -567.000000,204.000000 -567.000000L411.000000 -567.000000C400.000000 -551.000000,321.000000 -442.000000,299.000000 -409.000000C209.000000 -274.000000,176.000000 -135.000000,176.000000 -33.000000C176.000000 -23.000000,176.000000 22.000000,222.000000 22.000000C268.000000 22.000000,268.000000 -23.000000,268.000000 -33.000000L268.000000 -84.000000C268.000000 -139.000000,271.000000 -194.000000,279.000000 -248.000000C283.000000 -271.000000,297.000000 -357.000000,341.000000 -419.000000"></path>
    </g>
    <g transform="scale(0.009963,0.009963)" id="GLYPHcmr10_56">
      <path style="fill-rule: evenodd;" d="M163.000000 -457.000000C117.000000 -487.000000,113.000000 -521.000000,113.000000 -538.000000C113.000000 -599.000000,178.000000 -641.000000,249.000000 -641.000000C322.000000 -641.000000,386.000000 -589.000000,386.000000 -517.000000C386.000000 -460.000000,347.000000 -412.000000,287.000000 -377.000000M309.000000 -362.000000C381.000000 -399.000000,430.000000 -451.000000,430.000000 -517.000000C430.000000 -609.000000,341.000000 -666.000000,250.000000 -666.000000C150.000000 -666.000000,69.000000 -592.000000,69.000000 -499.000000C69.000000 -481.000000,71.000000 -436.000000,113.000000 -389.000000C124.000000 -377.000000,161.000000 -352.000000,186.000000 -335.000000C128.000000 -306.000000,42.000000 -250.000000,42.000000 -151.000000C42.000000 -45.000000,144.000000 22.000000,249.000000 22.000000C362.000000 22.000000,457.000000 -61.000000,457.000000 -168.000000C457.000000 -204.000000,446.000000 -249.000000,408.000000 -291.000000C389.000000 -312.000000,373.000000 -322.000000,309.000000 -362.000000M209.000000 -320.000000L332.000000 -242.000000C360.000000 -223.000000,407.000000 -193.000000,407.000000 -132.000000C407.000000 -58.000000,332.000000 -6.000000,250.000000 -6.000000C164.000000 -6.000000,92.000000 -68.000000,92.000000 -151.000000C92.000000 -209.000000,124.000000 -273.000000,209.000000 -320.000000"></path>
    </g>
    <g transform="scale(0.009963,0.009963)" id="GLYPHcmr10_57">
      <path style="fill-rule: evenodd;" d="M367.000000 -318.000000L367.000000 -286.000000C367.000000 -52.000000,263.000000 -6.000000,205.000000 -6.000000C188.000000 -6.000000,134.000000 -8.000000,107.000000 -42.000000C151.000000 -42.000000,159.000000 -71.000000,159.000000 -88.000000C159.000000 -119.000000,135.000000 -134.000000,113.000000 -134.000000C97.000000 -134.000000,67.000000 -125.000000,67.000000 -86.000000C67.000000 -19.000000,121.000000 22.000000,206.000000 22.000000C335.000000 22.000000,457.000000 -114.000000,457.000000 -329.000000C457.000000 -598.000000,342.000000 -666.000000,253.000000 -666.000000C198.000000 -666.000000,149.000000 -648.000000,106.000000 -603.000000C65.000000 -558.000000,42.000000 -516.000000,42.000000 -441.000000C42.000000 -316.000000,130.000000 -218.000000,242.000000 -218.000000C303.000000 -218.000000,344.000000 -260.000000,367.000000 -318.000000M243.000000 -241.000000C227.000000 -241.000000,181.000000 -241.000000,150.000000 -304.000000C132.000000 -341.000000,132.000000 -391.000000,132.000000 -440.000000C132.000000 -494.000000,132.000000 -541.000000,153.000000 -578.000000C180.000000 -628.000000,218.000000 -641.000000,253.000000 -641.000000C299.000000 -641.000000,332.000000 -607.000000,349.000000 -562.000000C361.000000 -530.000000,365.000000 -467.000000,365.000000 -421.000000C365.000000 -338.000000,331.000000 -241.000000,243.000000 -241.000000"></path>
    </g>
  </defs>
  <path d="M107.590530 192.021835C107.590530 191.229141,107.275589 190.468994,106.715103 189.908524C106.154633 189.348038,105.394485 189.033096,104.601791 189.033096C103.809097 189.033096,103.048950 189.348038,102.488480 189.908524C101.927994 190.468994,101.613052 191.229141,101.613052 192.021835C101.613052 192.814529,101.927994 193.574677,102.488480 194.135147C103.048950 194.695633,103.809097 195.010574,104.601791 195.010574C105.394485 195.010574,106.154633 194.695633,106.715103 194.135147C107.275589 193.574677,107.590530 192.814529,107.590530 192.021835Z" style="fill: rgb(100.000000%,100.000000%,100.000000%);stroke: none;"></path>
  <path d="M87.405457 182.585205C87.405457 181.792511,87.090515 181.032364,86.530029 180.471893C85.969559 179.911407,85.209412 179.596466,84.416718 179.596466C83.624023 179.596466,82.863876 179.911407,82.303406 180.471893C81.742920 181.032364,81.427979 181.792511,81.427979 182.585205C81.427979 183.377899,81.742920 184.138046,82.303406 184.698517C82.863876 185.259003,83.624023 185.573944,84.416718 185.573944C85.209412 185.573944,85.969559 185.259003,86.530029 184.698517C87.090515 184.138046,87.405457 183.377899,87.405457 182.585205Z" style="fill: rgb(100.000000%,100.000000%,100.000000%);stroke: none;"></path>
  <path d="M135.705856 143.759644C135.705856 142.966949,135.390915 142.206802,134.830429 141.646332C134.269958 141.085846,133.509811 140.770905,132.717117 140.770905C131.924423 140.770905,131.164276 141.085846,130.603806 141.646332C130.043320 142.206802,129.728378 142.966949,129.728378 143.759644C129.728378 144.552338,130.043320 145.312485,130.603806 145.872955C131.164276 146.433441,131.924423 146.748383,132.717117 146.748383C133.509811 146.748383,134.269958 146.433441,134.830429 145.872955C135.390915 145.312485,135.705856 144.552338,135.705856 143.759644Z" style="fill: rgb(100.000000%,100.000000%,100.000000%);stroke: none;"></path>
  <path d="M131.123032 179.096939C131.123032 178.304245,130.808090 177.544098,130.247604 176.983627C129.687134 176.423141,128.926987 176.108200,128.134293 176.108200C127.341599 176.108200,126.581451 176.423141,126.020981 176.983627C125.460495 177.544098,125.145554 178.304245,125.145554 179.096939C125.145554 179.889633,125.460495 180.649780,126.020981 181.210251C126.581451 181.770737,127.341599 182.085678,128.134293 182.085678C128.926987 182.085678,129.687134 181.770737,130.247604 181.210251C130.808090 180.649780,131.123032 179.889633,131.123032 179.096939Z" style="fill: rgb(100.000000%,100.000000%,100.000000%);stroke: none;"></path>
  <path d="M128.715485 109.816895C128.715485 109.024200,128.400543 108.264053,127.840057 107.703583C127.279587 107.143097,126.519440 106.828156,125.726746 106.828156C124.934052 106.828156,124.173904 107.143097,123.613434 107.703583C123.052948 108.264053,122.738007 109.024200,122.738007 109.816895C122.738007 110.609589,123.052948 111.369736,123.613434 111.930206C124.173904 112.490692,124.934052 112.805634,125.726746 112.805634C126.519440 112.805634,127.279587 112.490692,127.840057 111.930206C128.400543 111.369736,128.715485 110.609589,128.715485 109.816895Z" style="fill: rgb(100.000000%,100.000000%,100.000000%);stroke: none;"></path>
  <path d="M128.212082 131.189728C128.212082 130.397034,127.897141 129.636887,127.336655 129.076416C126.776184 128.515930,126.016037 128.200989,125.223343 128.200989C124.430649 128.200989,123.670502 128.515930,123.110031 129.076416C122.549545 129.636887,122.234604 130.397034,122.234604 131.189728C122.234604 131.982422,122.549545 132.742569,123.110031 133.303040C123.670502 133.863525,124.430649 134.178467,125.223343 134.178467C126.016037 134.178467,126.776184 133.863525,127.336655 133.303040C127.897141 132.742569,128.212082 131.982422,128.212082 131.189728Z" style="fill: rgb(100.000000%,100.000000%,100.000000%);stroke: none;"></path>
  <path d="M135.194855 90.202484C135.194855 89.409790,134.879913 88.649643,134.319427 88.089172C133.758957 87.528687,132.998810 87.213745,132.206116 87.213745C131.413422 87.213745,130.653275 87.528687,130.092804 88.089172C129.532318 88.649643,129.217377 89.409790,129.217377 90.202484C129.217377 90.995178,129.532318 91.755325,130.092804 92.315796C130.653275 92.876282,131.413422 93.191223,132.206116 93.191223C132.998810 93.191223,133.758957 92.876282,134.319427 92.315796C134.879913 91.755325,135.194855 90.995178,135.194855 90.202484Z" style="fill: rgb(100.000000%,100.000000%,100.000000%);stroke: none;"></path>
  <path d="M131.777802 102.192383C131.777802 101.399689,131.462860 100.639542,130.902374 100.079071C130.341904 99.518585,129.581757 99.203644,128.789062 99.203644C127.996368 99.203644,127.236221 99.518585,126.675751 100.079071C126.115265 100.639542,125.800323 101.399689,125.800323 102.192383C125.800323 102.985077,126.115265 103.745224,126.675751 104.305695C127.236221 104.866180,127.996368 105.181122,128.789062 105.181122C129.581757 105.181122,130.341904 104.866180,130.902374 104.305695C131.462860 103.745224,131.777802 102.985077,131.777802 102.192383Z" style="fill: rgb(100.000000%,100.000000%,100.000000%);stroke: none;"></path>
  <path d="M138.544281 78.288162C138.544281 77.495468,138.229340 76.735321,137.668854 76.174850C137.108383 75.614365,136.348236 75.299423,135.555542 75.299423C134.762848 75.299423,134.002701 75.614365,133.442230 76.174850C132.881744 76.735321,132.566803 77.495468,132.566803 78.288162C132.566803 79.080856,132.881744 79.841003,133.442230 80.401474C134.002701 80.961960,134.762848 81.276901,135.555542 81.276901C136.348236 81.276901,137.108383 80.961960,137.668854 80.401474C138.229340 79.841003,138.544281 79.080856,138.544281 78.288162Z" style="fill: rgb(100.000000%,100.000000%,100.000000%);stroke: none;"></path>
  <path d="M136.151321 85.900864C136.151321 85.108170,135.836380 84.348022,135.275894 83.787552C134.715424 83.227066,133.955276 82.912125,133.162582 82.912125C132.369888 82.912125,131.609741 83.227066,131.049271 83.787552C130.488785 84.348022,130.173843 85.108170,130.173843 85.900864C130.173843 86.693558,130.488785 87.453705,131.049271 88.014175C131.609741 88.574661,132.369888 88.889603,133.162582 88.889603C133.955276 88.889603,134.715424 88.574661,135.275894 88.014175C135.836380 87.453705,136.151321 86.693558,136.151321 85.900864Z" style="fill: rgb(100.000000%,100.000000%,100.000000%);stroke: none;"></path>
  <path d="M142.208115 69.149292C142.208115 68.356598,141.893173 67.596451,141.332687 67.035980C140.772217 66.475494,140.012070 66.160553,139.219376 66.160553C138.426682 66.160553,137.666534 66.475494,137.106064 67.035980C136.545578 67.596451,136.230637 68.356598,136.230637 69.149292C136.230637 69.941986,136.545578 70.702133,137.106064 71.262604C137.666534 71.823090,138.426682 72.138031,139.219376 72.138031C140.012070 72.138031,140.772217 71.823090,141.332687 71.262604C141.893173 70.702133,142.208115 69.941986,142.208115 69.149292Z" style="fill: rgb(100.000000%,100.000000%,100.000000%);stroke: none;"></path>
  <path d="M139.853638 74.955002C139.853638 74.162308,139.538696 73.402161,138.978210 72.841690C138.417740 72.281204,137.657593 71.966263,136.864899 71.966263C136.072205 71.966263,135.312057 72.281204,134.751587 72.841690C134.191101 73.402161,133.876160 74.162308,133.876160 74.955002C133.876160 75.747696,134.191101 76.507843,134.751587 77.068314C135.312057 77.628799,136.072205 77.943741,136.864899 77.943741C137.657593 77.943741,138.417740 77.628799,138.978210 77.068314C139.538696 76.507843,139.853638 75.747696,139.853638 74.955002Z" style="fill: rgb(100.000000%,100.000000%,100.000000%);stroke: none;"></path>
  <path d="M139.620911 61.465027C139.620911 60.672333,139.305969 59.912186,138.745483 59.351715C138.185013 58.791229,137.424866 58.476288,136.632172 58.476288C135.839478 58.476288,135.079330 58.791229,134.518860 59.351715C133.958374 59.912186,133.643433 60.672333,133.643433 61.465027C133.643433 62.257721,133.958374 63.017868,134.518860 63.578339C135.079330 64.138824,135.839478 64.453766,136.632172 64.453766C137.424866 64.453766,138.185013 64.138824,138.745483 63.578339C139.305969 63.017868,139.620911 62.257721,139.620911 61.465027Z" style="fill: rgb(100.000000%,100.000000%,100.000000%);stroke: none;"></path>
  <path d="M143.120712 66.354492C143.120712 65.561798,142.805771 64.801651,142.245285 64.241180C141.684814 63.680695,140.924667 63.365753,140.131973 63.365753C139.339279 63.365753,138.579132 63.680695,138.018661 64.241180C137.458176 64.801651,137.143234 65.561798,137.143234 66.354492C137.143234 67.147186,137.458176 67.907333,138.018661 68.467804C138.579132 69.028290,139.339279 69.343231,140.131973 69.343231C140.924667 69.343231,141.684814 69.028290,142.245285 68.467804C142.805771 67.907333,143.120712 67.147186,143.120712 66.354492Z" style="fill: rgb(100.000000%,100.000000%,100.000000%);stroke: none;"></path>
  <path d="M127.054977 63.821716C127.054977 63.029022,126.740036 62.268875,126.179550 61.708405C125.619080 61.147919,124.858932 60.832977,124.066238 60.832977C123.273544 60.832977,122.513397 61.147919,121.952927 61.708405C121.392441 62.268875,121.077499 63.029022,121.077499 63.821716C121.077499 64.614410,121.392441 65.374557,121.952927 65.935028C122.513397 66.495514,123.273544 66.810455,124.066238 66.810455C124.858932 66.810455,125.619080 66.495514,126.179550 65.935028C126.740036 65.374557,127.054977 64.614410,127.054977 63.821716Z" style="fill: rgb(100.000000%,100.000000%,100.000000%);stroke: none;"></path>
  <path d="M135.733521 62.218170C135.733521 61.425476,135.418579 60.665329,134.858093 60.104858C134.297623 59.544373,133.537476 59.229431,132.744781 59.229431C131.952087 59.229431,131.191940 59.544373,130.631470 60.104858C130.070984 60.665329,129.756042 61.425476,129.756042 62.218170C129.756042 63.010864,130.070984 63.771011,130.631470 64.331482C131.191940 64.891968,131.952087 65.206909,132.744781 65.206909C133.537476 65.206909,134.297623 64.891968,134.858093 64.331482C135.418579 63.771011,135.733521 63.010864,135.733521 62.218170Z" style="fill: rgb(100.000000%,100.000000%,100.000000%);stroke: none;"></path>
  <path d="M110.194809 65.567047C110.194809 64.774353,109.879868 64.014206,109.319382 63.453735C108.758911 62.893250,107.998764 62.578308,107.206070 62.578308C106.413376 62.578308,105.653229 62.893250,105.092758 63.453735C104.532272 64.014206,104.217331 64.774353,104.217331 65.567047C104.217331 66.359741,104.532272 67.119888,105.092758 67.680359C105.653229 68.240845,106.413376 68.555786,107.206070 68.555786C107.998764 68.555786,108.758911 68.240845,109.319382 67.680359C109.879868 67.119888,110.194809 66.359741,110.194809 65.567047Z" style="fill: rgb(100.000000%,100.000000%,100.000000%);stroke: none;"></path>
  <path d="M121.662369 63.451904C121.662369 62.659210,121.347427 61.899063,120.786942 61.338593C120.226471 60.778107,119.466324 60.463165,118.673630 60.463165C117.880936 60.463165,117.120789 60.778107,116.560318 61.338593C115.999832 61.899063,115.684891 62.659210,115.684891 63.451904C115.684891 64.244598,115.999832 65.004745,116.560318 65.565216C117.120789 66.125702,117.880936 66.440643,118.673630 66.440643C119.466324 66.440643,120.226471 66.125702,120.786942 65.565216C121.347427 65.004745,121.662369 64.244598,121.662369 63.451904Z" style="fill: rgb(100.000000%,100.000000%,100.000000%);stroke: none;"></path>
  <path d="M90.364365 75.998001C90.364365 75.205307,90.049423 74.445160,89.488937 73.884689C88.928467 73.324203,88.168320 73.009262,87.375626 73.009262C86.582932 73.009262,85.822784 73.324203,85.262314 73.884689C84.701828 74.445160,84.386887 75.205307,84.386887 75.998001C84.386887 76.790695,84.701828 77.550842,85.262314 78.111313C85.822784 78.671799,86.582932 78.986740,87.375626 78.986740C88.168320 78.986740,88.928467 78.671799,89.488937 78.111313C90.049423 77.550842,90.364365 76.790695,90.364365 75.998001Z" style="fill: rgb(100.000000%,100.000000%,100.000000%);stroke: none;"></path>
  <path d="M104.513702 68.526810C104.513702 67.734116,104.198761 66.973969,103.638275 66.413498C103.077805 65.853012,102.317657 65.538071,101.524963 65.538071C100.732269 65.538071,99.972122 65.853012,99.411652 66.413498C98.851166 66.973969,98.536224 67.734116,98.536224 68.526810C98.536224 69.319504,98.851166 70.079651,99.411652 70.640121C99.972122 71.200607,100.732269 71.515549,101.524963 71.515549C102.317657 71.515549,103.077805 71.200607,103.638275 70.640121C104.198761 70.079651,104.513702 69.319504,104.513702 68.526810Z" style="fill: rgb(100.000000%,100.000000%,100.000000%);stroke: none;"></path>
  <path d="M57.547028 85.952209C57.547028 85.159515,57.232086 84.399368,56.671600 83.838898C56.111130 83.278412,55.350983 82.963470,54.558289 82.963470C53.765594 82.963470,53.005447 83.278412,52.444977 83.838898C51.884491 84.399368,51.569550 85.159515,51.569550 85.952209C51.569550 86.744904,51.884491 87.505051,52.444977 88.065521C53.005447 88.626007,53.765594 88.940948,54.558289 88.940948C55.350983 88.940948,56.111130 88.626007,56.671600 88.065521C57.232086 87.505051,57.547028 86.744904,57.547028 85.952209Z" style="fill: rgb(100.000000%,100.000000%,100.000000%);stroke: none;"></path>
  <path d="M81.748138 80.593292C81.748138 79.800598,81.433197 79.040451,80.872711 78.479980C80.312241 77.919495,79.552094 77.604553,78.759399 77.604553C77.966705 77.604553,77.206558 77.919495,76.646088 78.479980C76.085602 79.040451,75.770660 79.800598,75.770660 80.593292C75.770660 81.385986,76.085602 82.146133,76.646088 82.706604C77.206558 83.267090,77.966705 83.582031,78.759399 83.582031C79.552094 83.582031,80.312241 83.267090,80.872711 82.706604C81.433197 82.146133,81.748138 81.385986,81.748138 80.593292Z" style="fill: rgb(100.000000%,100.000000%,100.000000%);stroke: none;"></path>
  <path d="M13.738083 96.485840C13.738083 95.693146,13.423141 94.932999,12.862656 94.372528C12.302185 93.812042,11.542038 93.497101,10.749344 93.497101C9.956650 93.497101,9.196503 93.812042,8.636032 94.372528C8.075546 94.932999,7.760605 95.693146,7.760605 96.485840C7.760605 97.278534,8.075546 98.038681,8.636032 98.599152C9.196503 99.159637,9.956650 99.474579,10.749344 99.474579C11.542038 99.474579,12.302185 99.159637,12.862656 98.599152C13.423141 98.038681,13.738083 97.278534,13.738083 96.485840Z" style="fill: rgb(100.000000%,100.000000%,100.000000%);stroke: none;"></path>
  <path d="M41.562378 82.944916C41.562378 82.152222,41.247437 81.392075,40.686951 80.831604C40.126480 80.271118,39.366333 79.956177,38.573639 79.956177C37.780945 79.956177,37.020798 80.271118,36.460327 80.831604C35.899841 81.392075,35.584900 82.152222,35.584900 82.944916C35.584900 83.737610,35.899841 84.497757,36.460327 85.058228C37.020798 85.618713,37.780945 85.933655,38.573639 85.933655C39.366333 85.933655,40.126480 85.618713,40.686951 85.058228C41.247437 84.497757,41.562378 83.737610,41.562378 82.944916Z" style="fill: rgb(100.000000%,100.000000%,100.000000%);stroke: none;"></path>
  <path d="M13.284241 144.476288C13.284241 143.683594,12.969299 142.923447,12.408813 142.362976C11.848343 141.802490,11.088196 141.487549,10.295502 141.487549C9.502808 141.487549,8.742661 141.802490,8.182190 142.362976C7.621704 142.923447,7.306763 143.683594,7.306763 144.476288C7.306763 145.268982,7.621704 146.029129,8.182190 146.589600C8.742661 147.150085,9.502808 147.465027,10.295502 147.465027C11.088196 147.465027,11.848343 147.150085,12.408813 146.589600C12.969299 146.029129,13.284241 145.268982,13.284241 144.476288Z" style="fill: rgb(100.000000%,100.000000%,100.000000%);stroke: none;"></path>
  <path d="M5.614243 111.864197C5.614243 111.071503,5.299301 110.311356,4.738815 109.750885C4.178345 109.190399,3.418198 108.875458,2.625504 108.875458C1.832809 108.875458,1.072662 109.190399,0.512192 109.750885C-0.048294 110.311356,-0.363235 111.071503,-0.363235 111.864197C-0.363235 112.656891,-0.048294 113.417038,0.512192 113.977509C1.072662 114.537994,1.832809 114.852936,2.625504 114.852936C3.418198 114.852936,4.178345 114.537994,4.738815 113.977509C5.299301 113.417038,5.614243 112.656891,5.614243 111.864197Z" style="fill: rgb(100.000000%,100.000000%,100.000000%);stroke: none;"></path>
  <path d="M63.560379 150.077286C63.560379 149.284592,63.245438 148.524445,62.684952 147.963974C62.124481 147.403488,61.364334 147.088547,60.571640 147.088547C59.778946 147.088547,59.018799 147.403488,58.458328 147.963974C57.897842 148.524445,57.582901 149.284592,57.582901 150.077286C57.582901 150.869980,57.897842 151.630127,58.458328 152.190598C59.018799 152.751083,59.778946 153.066025,60.571640 153.066025C61.364334 153.066025,62.124481 152.751083,62.684952 152.190598C63.245438 151.630127,63.560379 150.869980,63.560379 150.077286Z" style="fill: rgb(100.000000%,100.000000%,100.000000%);stroke: none;"></path>
  <path d="M30.756119 155.061554C30.756119 154.268860,30.441177 153.508713,29.880692 152.948242C29.320221 152.387756,28.560074 152.072815,27.767380 152.072815C26.974686 152.072815,26.214539 152.387756,25.654068 152.948242C25.093582 153.508713,24.778641 154.268860,24.778641 155.061554C24.778641 155.854248,25.093582 156.614395,25.654068 157.174866C26.214539 157.735352,26.974686 158.050293,27.767380 158.050293C28.560074 158.050293,29.320221 157.735352,29.880692 157.174866C30.441177 156.614395,30.756119 155.854248,30.756119 155.061554Z" style="fill: rgb(100.000000%,100.000000%,100.000000%);stroke: none;"></path>
  <path d="M107.016663 139.998428C107.016663 139.205734,106.701721 138.445587,106.141235 137.885117C105.580765 137.324631,104.820618 137.009689,104.027924 137.009689C103.235229 137.009689,102.475082 137.324631,101.914612 137.885117C101.354126 138.445587,101.039185 139.205734,101.039185 139.998428C101.039185 140.791122,101.354126 141.551270,101.914612 142.111740C102.475082 142.672226,103.235229 142.987167,104.027924 142.987167C104.820618 142.987167,105.580765 142.672226,106.141235 142.111740C106.701721 141.551270,107.016663 140.791122,107.016663 139.998428Z" style="fill: rgb(100.000000%,100.000000%,100.000000%);stroke: none;"></path>
  <path d="M76.105759 138.648529C76.105759 137.855835,75.790817 137.095688,75.230331 136.535217C74.669861 135.974731,73.909714 135.659790,73.117020 135.659790C72.324326 135.659790,71.564178 135.974731,71.003708 136.535217C70.443222 137.095688,70.128281 137.855835,70.128281 138.648529C70.128281 139.441223,70.443222 140.201370,71.003708 140.761841C71.564178 141.322327,72.324326 141.637268,73.117020 141.637268C73.909714 141.637268,74.669861 141.322327,75.230331 140.761841C75.790817 140.201370,76.105759 139.441223,76.105759 138.648529Z" style="fill: rgb(100.000000%,100.000000%,100.000000%);stroke: none;"></path>
  <path d="M154.963730 161.881531C154.963730 161.088837,154.648788 160.328690,154.088303 159.768219C153.527832 159.207733,152.767685 158.892792,151.974991 158.892792C151.182297 158.892792,150.422150 159.207733,149.861679 159.768219C149.301193 160.328690,148.986252 161.088837,148.986252 161.881531C148.986252 162.674225,149.301193 163.434372,149.861679 163.994843C150.422150 164.555328,151.182297 164.870270,151.974991 164.870270C152.767685 164.870270,153.527832 164.555328,154.088303 163.994843C154.648788 163.434372,154.963730 162.674225,154.963730 161.881531Z" style="fill: rgb(100.000000%,100.000000%,100.000000%);stroke: none;"></path>
  <path d="M118.764267 153.456802C118.764267 152.664108,118.449326 151.903961,117.888840 151.343491C117.328369 150.783005,116.568222 150.468063,115.775528 150.468063C114.982834 150.468063,114.222687 150.783005,113.662216 151.343491C113.101730 151.903961,112.786789 152.664108,112.786789 153.456802C112.786789 154.249496,113.101730 155.009644,113.662216 155.570114C114.222687 156.130600,114.982834 156.445541,115.775528 156.445541C116.568222 156.445541,117.328369 156.130600,117.888840 155.570114C118.449326 155.009644,118.764267 154.249496,118.764267 153.456802Z" style="fill: rgb(100.000000%,100.000000%,100.000000%);stroke: none;"></path>
  <path d="M196.172043 114.908371C196.172043 114.115677,195.857101 113.355530,195.296616 112.795059C194.736145 112.234573,193.975998 111.919632,193.183304 111.919632C192.390610 111.919632,191.630463 112.234573,191.069992 112.795059C190.509506 113.355530,190.194565 114.115677,190.194565 114.908371C190.194565 115.701065,190.509506 116.461212,191.069992 117.021683C191.630463 117.582169,192.390610 117.897110,193.183304 117.897110C193.975998 117.897110,194.736145 117.582169,195.296616 117.021683C195.857101 116.461212,196.172043 115.701065,196.172043 114.908371Z" style="fill: rgb(100.000000%,100.000000%,100.000000%);stroke: none;"></path>
  <path d="M175.024200 148.697540C175.024200 147.904846,174.709259 147.144699,174.148773 146.584229C173.588303 146.023743,172.828156 145.708801,172.035461 145.708801C171.242767 145.708801,170.482620 146.023743,169.922150 146.584229C169.361664 147.144699,169.046722 147.904846,169.046722 148.697540C169.046722 149.490234,169.361664 150.250381,169.922150 150.810852C170.482620 151.371338,171.242767 151.686279,172.035461 151.686279C172.828156 151.686279,173.588303 151.371338,174.148773 150.810852C174.709259 150.250381,175.024200 149.490234,175.024200 148.697540Z" style="fill: rgb(100.000000%,100.000000%,100.000000%);stroke: none;"></path>
  <path d="M180.038376 75.603333C180.038376 74.810638,179.723434 74.050491,179.162949 73.490021C178.602478 72.929535,177.842331 72.614594,177.049637 72.614594C176.256943 72.614594,175.496796 72.929535,174.936325 73.490021C174.375839 74.050491,174.060898 74.810638,174.060898 75.603333C174.060898 76.396027,174.375839 77.156174,174.936325 77.716644C175.496796 78.277130,176.256943 78.592072,177.049637 78.592072C177.842331 78.592072,178.602478 78.277130,179.162949 77.716644C179.723434 77.156174,180.038376 76.396027,180.038376 75.603333Z" style="fill: rgb(100.000000%,100.000000%,100.000000%);stroke: none;"></path>
  <path d="M199.426605 95.810196C199.426605 95.017502,199.111664 94.257355,198.551178 93.696884C197.990707 93.136398,197.230560 92.821457,196.437866 92.821457C195.645172 92.821457,194.885025 93.136398,194.324554 93.696884C193.764069 94.257355,193.449127 95.017502,193.449127 95.810196C193.449127 96.602890,193.764069 97.363037,194.324554 97.923508C194.885025 98.483994,195.645172 98.798935,196.437866 98.798935C197.230560 98.798935,197.990707 98.483994,198.551178 97.923508C199.111664 97.363037,199.426605 96.602890,199.426605 95.810196Z" style="fill: rgb(100.000000%,100.000000%,100.000000%);stroke: none;"></path>
  <path d="M152.024734 72.009857C152.024734 71.217163,151.709793 70.457016,151.149307 69.896545C150.588837 69.336060,149.828690 69.021118,149.035995 69.021118C148.243301 69.021118,147.483154 69.336060,146.922684 69.896545C146.362198 70.457016,146.047256 71.217163,146.047256 72.009857C146.047256 72.802551,146.362198 73.562698,146.922684 74.123169C147.483154 74.683655,148.243301 74.998596,149.035995 74.998596C149.828690 74.998596,150.588837 74.683655,151.149307 74.123169C151.709793 73.562698,152.024734 72.802551,152.024734 72.009857Z" style="fill: rgb(100.000000%,100.000000%,100.000000%);stroke: none;"></path>
  <path d="M168.379349 74.254028C168.379349 73.461334,168.064407 72.701187,167.503922 72.140717C166.943451 71.580231,166.183304 71.265289,165.390610 71.265289C164.597916 71.265289,163.837769 71.580231,163.277298 72.140717C162.716812 72.701187,162.401871 73.461334,162.401871 74.254028C162.401871 75.046722,162.716812 75.806870,163.277298 76.367340C163.837769 76.927826,164.597916 77.242767,165.390610 77.242767C166.183304 77.242767,166.943451 76.927826,167.503922 76.367340C168.064407 75.806870,168.379349 75.046722,168.379349 74.254028Z" style="fill: rgb(100.000000%,100.000000%,100.000000%);stroke: none;"></path>
  <path d="M138.151367 71.917847C138.151367 71.125153,137.836426 70.365005,137.275940 69.804535C136.715469 69.244049,135.955322 68.929108,135.162628 68.929108C134.369934 68.929108,133.609787 69.244049,133.049316 69.804535C132.488831 70.365005,132.173889 71.125153,132.173889 71.917847C132.173889 72.710541,132.488831 73.470688,133.049316 74.031158C133.609787 74.591644,134.369934 74.906586,135.162628 74.906586C135.955322 74.906586,136.715469 74.591644,137.275940 74.031158C137.836426 73.470688,138.151367 72.710541,138.151367 71.917847Z" style="fill: rgb(100.000000%,100.000000%,100.000000%);stroke: none;"></path>
  <path d="M146.614883 71.142303C146.614883 70.349609,146.299942 69.589462,145.739456 69.028992C145.178986 68.468506,144.418839 68.153564,143.626144 68.153564C142.833450 68.153564,142.073303 68.468506,141.512833 69.028992C140.952347 69.589462,140.637405 70.349609,140.637405 71.142303C140.637405 71.934998,140.952347 72.695145,141.512833 73.255615C142.073303 73.816101,142.833450 74.131042,143.626144 74.131042C144.418839 74.131042,145.178986 73.816101,145.739456 73.255615C146.299942 72.695145,146.614883 71.934998,146.614883 71.142303Z" style="fill: rgb(100.000000%,100.000000%,100.000000%);stroke: none;"></path>
  <path d="M131.250656 68.084229C131.250656 67.291534,130.935715 66.531387,130.375229 65.970917C129.814758 65.410431,129.054611 65.095490,128.261917 65.095490C127.469223 65.095490,126.709076 65.410431,126.148605 65.970917C125.588120 66.531387,125.273178 67.291534,125.273178 68.084229C125.273178 68.876923,125.588120 69.637070,126.148605 70.197540C126.709076 70.758026,127.469223 71.072968,128.261917 71.072968C129.054611 71.072968,129.814758 70.758026,130.375229 70.197540C130.935715 69.637070,131.250656 68.876923,131.250656 68.084229Z" style="fill: rgb(100.000000%,100.000000%,100.000000%);stroke: none;"></path>
  <path d="M134.769165 72.365372C134.769165 71.572678,134.454224 70.812531,133.893738 70.252060C133.333267 69.691574,132.573120 69.376633,131.780426 69.376633C130.987732 69.376633,130.227585 69.691574,129.667114 70.252060C129.106628 70.812531,128.791687 71.572678,128.791687 72.365372C128.791687 73.158066,129.106628 73.918213,129.667114 74.478683C130.227585 75.039169,130.987732 75.354111,131.780426 75.354111C132.573120 75.354111,133.333267 75.039169,133.893738 74.478683C134.454224 73.918213,134.769165 73.158066,134.769165 72.365372Z" style="fill: rgb(100.000000%,100.000000%,100.000000%);stroke: none;"></path>
  <path d="M133.312149 57.814651C133.312149 57.021957,132.997208 56.261810,132.436722 55.701340C131.876251 55.140854,131.116104 54.825912,130.323410 54.825912C129.530716 54.825912,128.770569 55.140854,128.210098 55.701340C127.649612 56.261810,127.334671 57.021957,127.334671 57.814651C127.334671 58.607346,127.649612 59.367493,128.210098 59.927963C128.770569 60.488449,129.530716 60.803391,130.323410 60.803391C131.116104 60.803391,131.876251 60.488449,132.436722 59.927963C132.997208 59.367493,133.312149 58.607346,133.312149 57.814651Z" style="fill: rgb(100.000000%,100.000000%,100.000000%);stroke: none;"></path>
  <path d="M131.778870 65.355804C131.778870 64.563110,131.463928 63.802963,130.903442 63.242493C130.342972 62.682007,129.582825 62.367065,128.790131 62.367065C127.997437 62.367065,127.237289 62.682007,126.676819 63.242493C126.116333 63.802963,125.801392 64.563110,125.801392 65.355804C125.801392 66.148499,126.116333 66.908646,126.676819 67.469116C127.237289 68.029602,127.997437 68.344543,128.790131 68.344543C129.582825 68.344543,130.342972 68.029602,130.903442 67.469116C131.463928 66.908646,131.778870 66.148499,131.778870 65.355804Z" style="fill: rgb(100.000000%,100.000000%,100.000000%);stroke: none;"></path>
  <path d="M137.598572 38.983856C137.598572 38.191162,137.283630 37.431015,136.723145 36.870544C136.162674 36.310059,135.402527 35.995117,134.609833 35.995117C133.817139 35.995117,133.056992 36.310059,132.496521 36.870544C131.936035 37.431015,131.621094 38.191162,131.621094 38.983856C131.621094 39.776550,131.936035 40.536697,132.496521 41.097168C133.056992 41.657654,133.817139 41.972595,134.609833 41.972595C135.402527 41.972595,136.162674 41.657654,136.723145 41.097168C137.283630 40.536697,137.598572 39.776550,137.598572 38.983856Z" style="fill: rgb(100.000000%,100.000000%,100.000000%);stroke: none;"></path>
  <path d="M133.803085 52.666580C133.803085 51.873886,133.488144 51.113739,132.927658 50.553268C132.367188 49.992783,131.607040 49.677841,130.814346 49.677841C130.021652 49.677841,129.261505 49.992783,128.701035 50.553268C128.140549 51.113739,127.825607 51.873886,127.825607 52.666580C127.825607 53.459274,128.140549 54.219421,128.701035 54.779892C129.261505 55.340378,130.021652 55.655319,130.814346 55.655319C131.607040 55.655319,132.367188 55.340378,132.927658 54.779892C133.488144 54.219421,133.803085 53.459274,133.803085 52.666580Z" style="fill: rgb(100.000000%,100.000000%,100.000000%);stroke: none;"></path>
  <path d="M137.647949 8.972931C137.647949 8.180237,137.333008 7.420090,136.772522 6.859619C136.212051 6.299133,135.451904 5.984192,134.659210 5.984192C133.866516 5.984192,133.106369 6.299133,132.545898 6.859619C131.985413 7.420090,131.670471 8.180237,131.670471 8.972931C131.670471 9.765625,131.985413 10.525772,132.545898 11.086243C133.106369 11.646729,133.866516 11.961670,134.659210 11.961670C135.451904 11.961670,136.212051 11.646729,136.772522 11.086243C137.333008 10.525772,137.647949 9.765625,137.647949 8.972931Z" style="fill: rgb(100.000000%,100.000000%,100.000000%);stroke: none;"></path>
  <path d="M142.683334 30.528824C142.683334 29.736130,142.368393 28.975983,141.807907 28.415512C141.247437 27.855026,140.487289 27.540085,139.694595 27.540085C138.901901 27.540085,138.141754 27.855026,137.581284 28.415512C137.020798 28.975983,136.705856 29.736130,136.705856 30.528824C136.705856 31.321518,137.020798 32.081665,137.581284 32.642136C138.141754 33.202621,138.901901 33.517563,139.694595 33.517563C140.487289 33.517563,141.247437 33.202621,141.807907 32.642136C142.368393 32.081665,142.683334 31.321518,142.683334 30.528824Z" style="fill: rgb(100.000000%,100.000000%,100.000000%);stroke: none;"></path>
  <path d="M96.528992 4.786789C96.528992 3.994095,96.214050 3.233948,95.653564 2.673477C95.093094 2.112991,94.332947 1.798050,93.540253 1.798050C92.747559 1.798050,91.987411 2.112991,91.426941 2.673477C90.866455 3.233948,90.551514 3.994095,90.551514 4.786789C90.551514 5.579483,90.866455 6.339630,91.426941 6.900101C91.987411 7.460587,92.747559 7.775528,93.540253 7.775528C94.332947 7.775528,95.093094 7.460587,95.653564 6.900101C96.214050 6.339630,96.528992 5.579483,96.528992 4.786789Z" style="fill: rgb(100.000000%,100.000000%,100.000000%);stroke: none;"></path>
  <path d="M123.682297 3.311752C123.682297 2.519058,123.367355 1.758911,122.806870 1.198441C122.246399 0.637955,121.486252 0.323013,120.693558 0.323013C119.900864 0.323013,119.140717 0.637955,118.580246 1.198441C118.019760 1.758911,117.704819 2.519058,117.704819 3.311752C117.704819 4.104446,118.019760 4.864594,118.580246 5.425064C119.140717 5.985550,119.900864 6.300491,120.693558 6.300491C121.486252 6.300491,122.246399 5.985550,122.806870 5.425064C123.367355 4.864594,123.682297 4.104446,123.682297 3.311752Z" style="fill: rgb(100.000000%,100.000000%,100.000000%);stroke: none;"></path>
  <path d="M78.654678 34.072052C78.654678 33.279358,78.339737 32.519211,77.779251 31.958740C77.218781 31.398254,76.458633 31.083313,75.665939 31.083313C74.873245 31.083313,74.113098 31.398254,73.552628 31.958740C72.992142 32.519211,72.677200 33.279358,72.677200 34.072052C72.677200 34.864746,72.992142 35.624893,73.552628 36.185364C74.113098 36.745850,74.873245 37.060791,75.665939 37.060791C76.458633 37.060791,77.218781 36.745850,77.779251 36.185364C78.339737 35.624893,78.654678 34.864746,78.654678 34.072052Z" style="fill: rgb(100.000000%,100.000000%,100.000000%);stroke: none;"></path>
  <path d="M83.444855 11.393539C83.444855 10.600845,83.129913 9.840698,82.569427 9.280228C82.008957 8.719742,81.248810 8.404800,80.456116 8.404800C79.663422 8.404800,78.903275 8.719742,78.342804 9.280228C77.782318 9.840698,77.467377 10.600845,77.467377 11.393539C77.467377 12.186234,77.782318 12.946381,78.342804 13.506851C78.903275 14.067337,79.663422 14.382278,80.456116 14.382278C81.248810 14.382278,82.008957 14.067337,82.569427 13.506851C83.129913 12.946381,83.444855 12.186234,83.444855 11.393539Z" style="fill: rgb(100.000000%,100.000000%,100.000000%);stroke: none;"></path>
  <path d="M92.910202 58.634369C92.910202 57.841675,92.595261 57.081528,92.034775 56.521057C91.474304 55.960571,90.714157 55.645630,89.921463 55.645630C89.128769 55.645630,88.368622 55.960571,87.808151 56.521057C87.247665 57.081528,86.932724 57.841675,86.932724 58.634369C86.932724 59.427063,87.247665 60.187210,87.808151 60.747681C88.368622 61.308167,89.128769 61.623108,89.921463 61.623108C90.714157 61.623108,91.474304 61.308167,92.034775 60.747681C92.595261 60.187210,92.910202 59.427063,92.910202 58.634369Z" style="fill: rgb(100.000000%,100.000000%,100.000000%);stroke: none;"></path>
  <path d="M84.696915 43.346161C84.696915 42.553467,84.381973 41.793320,83.821487 41.232849C83.261017 40.672363,82.500870 40.357422,81.708176 40.357422C80.915482 40.357422,80.155334 40.672363,79.594864 41.232849C79.034378 41.793320,78.719437 42.553467,78.719437 43.346161C78.719437 44.138855,79.034378 44.899002,79.594864 45.459473C80.155334 46.019958,80.915482 46.334900,81.708176 46.334900C82.500870 46.334900,83.261017 46.019958,83.821487 45.459473C84.381973 44.899002,84.696915 44.138855,84.696915 43.346161Z" style="fill: rgb(100.000000%,100.000000%,100.000000%);stroke: none;"></path>
  <path d="M102.140625 77.852737C102.140625 77.060043,101.825684 76.299896,101.265198 75.739426C100.704727 75.178940,99.944580 74.863998,99.151886 74.863998C98.359192 74.863998,97.599045 75.178940,97.038574 75.739426C96.478088 76.299896,96.163147 77.060043,96.163147 77.852737C96.163147 78.645432,96.478088 79.405579,97.038574 79.966049C97.599045 80.526535,98.359192 80.841476,99.151886 80.841476C99.944580 80.841476,100.704727 80.526535,101.265198 79.966049C101.825684 79.405579,102.140625 78.645432,102.140625 77.852737Z" style="fill: rgb(100.000000%,100.000000%,100.000000%);stroke: none;"></path>
  <path d="M95.712265 65.158157C95.712265 64.365463,95.397324 63.605316,94.836838 63.044846C94.276367 62.484360,93.516220 62.169418,92.723526 62.169418C91.930832 62.169418,91.170685 62.484360,90.610214 63.044846C90.049728 63.605316,89.734787 64.365463,89.734787 65.158157C89.734787 65.950851,90.049728 66.710999,90.610214 67.271469C91.170685 67.831955,91.930832 68.146896,92.723526 68.146896C93.516220 68.146896,94.276367 67.831955,94.836838 67.271469C95.397324 66.710999,95.712265 65.950851,95.712265 65.158157Z" style="fill: rgb(100.000000%,100.000000%,100.000000%);stroke: none;"></path>
  <path d="M118.239426 92.612961C118.239426 91.820267,117.924484 91.060120,117.363998 90.499649C116.803528 89.939163,116.043381 89.624222,115.250687 89.624222C114.457993 89.624222,113.697845 89.939163,113.137375 90.499649C112.576889 91.060120,112.261948 91.820267,112.261948 92.612961C112.261948 93.405655,112.576889 94.165802,113.137375 94.726273C113.697845 95.286758,114.457993 95.601700,115.250687 95.601700C116.043381 95.601700,116.803528 95.286758,117.363998 94.726273C117.924484 94.165802,118.239426 93.405655,118.239426 92.612961Z" style="fill: rgb(100.000000%,100.000000%,100.000000%);stroke: none;"></path>
  <path d="M105.885788 84.136810C105.885788 83.344116,105.570847 82.583969,105.010361 82.023499C104.449890 81.463013,103.689743 81.148071,102.897049 81.148071C102.104355 81.148071,101.344208 81.463013,100.783737 82.023499C100.223251 82.583969,99.908310 83.344116,99.908310 84.136810C99.908310 84.929504,100.223251 85.689651,100.783737 86.250122C101.344208 86.810608,102.104355 87.125549,102.897049 87.125549C103.689743 87.125549,104.449890 86.810608,105.010361 86.250122C105.570847 85.689651,105.885788 84.929504,105.885788 84.136810Z" style="fill: rgb(100.000000%,100.000000%,100.000000%);stroke: none;"></path>
  <path d="M141.178238 95.156281C141.178238 94.363586,140.863297 93.603439,140.302811 93.042969C139.742340 92.482483,138.982193 92.167542,138.189499 92.167542C137.396805 92.167542,136.636658 92.482483,136.076187 93.042969C135.515701 93.603439,135.200760 94.363586,135.200760 95.156281C135.200760 95.948975,135.515701 96.709122,136.076187 97.269592C136.636658 97.830078,137.396805 98.145020,138.189499 98.145020C138.982193 98.145020,139.742340 97.830078,140.302811 97.269592C140.863297 96.709122,141.178238 95.948975,141.178238 95.156281Z" style="fill: rgb(100.000000%,100.000000%,100.000000%);stroke: none;"></path>
  <path d="M126.212418 93.653885C126.212418 92.861191,125.897476 92.101044,125.336990 91.540573C124.776520 90.980087,124.016373 90.665146,123.223679 90.665146C122.430984 90.665146,121.670837 90.980087,121.110367 91.540573C120.549881 92.101044,120.234940 92.861191,120.234940 93.653885C120.234940 94.446579,120.549881 95.206726,121.110367 95.767197C121.670837 96.327682,122.430984 96.642624,123.223679 96.642624C124.016373 96.642624,124.776520 96.327682,125.336990 95.767197C125.897476 95.206726,126.212418 94.446579,126.212418 93.653885Z" style="fill: rgb(100.000000%,100.000000%,100.000000%);stroke: none;"></path>
  <path d="M167.908920 95.824371C167.908920 95.031677,167.593979 94.271530,167.033493 93.711060C166.473022 93.150574,165.712875 92.835632,164.920181 92.835632C164.127487 92.835632,163.367340 93.150574,162.806870 93.711060C162.246384 94.271530,161.931442 95.031677,161.931442 95.824371C161.931442 96.617065,162.246384 97.377213,162.806870 97.937683C163.367340 98.498169,164.127487 98.813110,164.920181 98.813110C165.712875 98.813110,166.473022 98.498169,167.033493 97.937683C167.593979 97.377213,167.908920 96.617065,167.908920 95.824371Z" style="fill: rgb(100.000000%,100.000000%,100.000000%);stroke: none;"></path>
  <path d="M148.386795 95.730621C148.386795 94.937927,148.071854 94.177780,147.511368 93.617310C146.950897 93.056824,146.190750 92.741882,145.398056 92.741882C144.605362 92.741882,143.845215 93.056824,143.284744 93.617310C142.724258 94.177780,142.409317 94.937927,142.409317 95.730621C142.409317 96.523315,142.724258 97.283463,143.284744 97.843933C143.845215 98.404419,144.605362 98.719360,145.398056 98.719360C146.190750 98.719360,146.950897 98.404419,147.511368 97.843933C148.071854 97.283463,148.386795 96.523315,148.386795 95.730621Z" style="fill: rgb(100.000000%,100.000000%,100.000000%);stroke: none;"></path>
  <path d="M196.076324 71.197876C196.076324 70.405182,195.761383 69.645035,195.200897 69.084564C194.640427 68.524078,193.880280 68.209137,193.087585 68.209137C192.294891 68.209137,191.534744 68.524078,190.974274 69.084564C190.413788 69.645035,190.098846 70.405182,190.098846 71.197876C190.098846 71.990570,190.413788 72.750717,190.974274 73.311188C191.534744 73.871674,192.294891 74.186615,193.087585 74.186615C193.880280 74.186615,194.640427 73.871674,195.200897 73.311188C195.761383 72.750717,196.076324 71.990570,196.076324 71.197876Z" style="fill: rgb(100.000000%,100.000000%,100.000000%);stroke: none;"></path>
  <path d="M180.942871 93.648239C180.942871 92.855545,180.627930 92.095398,180.067444 91.534927C179.506973 90.974442,178.746826 90.659500,177.954132 90.659500C177.161438 90.659500,176.401291 90.974442,175.840820 91.534927C175.280334 92.095398,174.965393 92.855545,174.965393 93.648239C174.965393 94.440933,175.280334 95.201080,175.840820 95.761551C176.401291 96.322037,177.161438 96.636978,177.954132 96.636978C178.746826 96.636978,179.506973 96.322037,180.067444 95.761551C180.627930 95.201080,180.942871 94.440933,180.942871 93.648239Z" style="fill: rgb(100.000000%,100.000000%,100.000000%);stroke: none;"></path>
  <path d="M170.873337 29.372910C170.873337 28.580215,170.558395 27.820068,169.997910 27.259598C169.437439 26.699112,168.677292 26.384171,167.884598 26.384171C167.091904 26.384171,166.331757 26.699112,165.771286 27.259598C165.210800 27.820068,164.895859 28.580215,164.895859 29.372910C164.895859 30.165604,165.210800 30.925751,165.771286 31.486221C166.331757 32.046707,167.091904 32.361649,167.884598 32.361649C168.677292 32.361649,169.437439 32.046707,169.997910 31.486221C170.558395 30.925751,170.873337 30.165604,170.873337 29.372910Z" style="fill: rgb(100.000000%,100.000000%,100.000000%);stroke: none;"></path>
  <path d="M190.201187 55.238342C190.201187 54.445648,189.886246 53.685501,189.325760 53.125031C188.765289 52.564545,188.005142 52.249603,187.212448 52.249603C186.419754 52.249603,185.659607 52.564545,185.099136 53.125031C184.538651 53.685501,184.223709 54.445648,184.223709 55.238342C184.223709 56.031036,184.538651 56.791183,185.099136 57.351654C185.659607 57.912140,186.419754 58.227081,187.212448 58.227081C188.005142 58.227081,188.765289 57.912140,189.325760 57.351654C189.886246 56.791183,190.201187 56.031036,190.201187 55.238342Z" style="fill: rgb(100.000000%,100.000000%,100.000000%);stroke: none;"></path>
  <path d="M130.368652 23.696396C130.368652 22.903702,130.053711 22.143555,129.493225 21.583084C128.932755 21.022598,128.172607 20.707657,127.379913 20.707657C126.587219 20.707657,125.827072 21.022598,125.266602 21.583084C124.706116 22.143555,124.391174 22.903702,124.391174 23.696396C124.391174 24.489090,124.706116 25.249237,125.266602 25.809708C125.827072 26.370193,126.587219 26.685135,127.379913 26.685135C128.172607 26.685135,128.932755 26.370193,129.493225 25.809708C130.053711 25.249237,130.368652 24.489090,130.368652 23.696396Z" style="fill: rgb(100.000000%,100.000000%,100.000000%);stroke: none;"></path>
  <path d="M156.545120 18.421173C156.545120 17.628479,156.230179 16.868332,155.669693 16.307861C155.109222 15.747375,154.349075 15.432434,153.556381 15.432434C152.763687 15.432434,152.003540 15.747375,151.443069 16.307861C150.882584 16.868332,150.567642 17.628479,150.567642 18.421173C150.567642 19.213867,150.882584 19.974014,151.443069 20.534485C152.003540 21.094971,152.763687 21.409912,153.556381 21.409912C154.349075 21.409912,155.109222 21.094971,155.669693 20.534485C156.230179 19.974014,156.545120 19.213867,156.545120 18.421173Z" style="fill: rgb(100.000000%,100.000000%,100.000000%);stroke: none;"></path>
  <path d="M100.750504 33.072083C100.750504 32.279388,100.435562 31.519241,99.875076 30.958771C99.314606 30.398285,98.554459 30.083344,97.761765 30.083344C96.969070 30.083344,96.208923 30.398285,95.648453 30.958771C95.087967 31.519241,94.773026 32.279388,94.773026 33.072083C94.773026 33.864777,95.087967 34.624924,95.648453 35.185394C96.208923 35.745880,96.969070 36.060822,97.761765 36.060822C98.554459 36.060822,99.314606 35.745880,99.875076 35.185394C100.435562 34.624924,100.750504 33.864777,100.750504 33.072083Z" style="fill: rgb(100.000000%,100.000000%,100.000000%);stroke: none;"></path>
  <path d="M122.104034 31.944626C122.104034 31.151932,121.789093 30.391785,121.228607 29.831314C120.668137 29.270828,119.907990 28.955887,119.115295 28.955887C118.322601 28.955887,117.562454 29.270828,117.001984 29.831314C116.441498 30.391785,116.126556 31.151932,116.126556 31.944626C116.126556 32.737320,116.441498 33.497467,117.001984 34.057938C117.562454 34.618423,118.322601 34.933365,119.115295 34.933365C119.907990 34.933365,120.668137 34.618423,121.228607 34.057938C121.789093 33.497467,122.104034 32.737320,122.104034 31.944626Z" style="fill: rgb(100.000000%,100.000000%,100.000000%);stroke: none;"></path>
  <path d="M64.434265 22.123230C64.434265 21.330536,64.119324 20.570389,63.558838 20.009918C62.998367 19.449432,62.238220 19.134491,61.445526 19.134491C60.652832 19.134491,59.892685 19.449432,59.332214 20.009918C58.771729 20.570389,58.456787 21.330536,58.456787 22.123230C58.456787 22.915924,58.771729 23.676071,59.332214 24.236542C59.892685 24.797028,60.652832 25.111969,61.445526 25.111969C62.238220 25.111969,62.998367 24.797028,63.558838 24.236542C64.119324 23.676071,64.434265 22.915924,64.434265 22.123230Z" style="fill: rgb(100.000000%,100.000000%,100.000000%);stroke: none;"></path>
  <path d="M91.493561 25.252884C91.493561 24.460190,91.178619 23.700043,90.618134 23.139572C90.057663 22.579086,89.297516 22.264145,88.504822 22.264145C87.712128 22.264145,86.951981 22.579086,86.391510 23.139572C85.831024 23.700043,85.516083 24.460190,85.516083 25.252884C85.516083 26.045578,85.831024 26.805725,86.391510 27.366196C86.951981 27.926682,87.712128 28.241623,88.504822 28.241623C89.297516 28.241623,90.057663 27.926682,90.618134 27.366196C91.178619 26.805725,91.493561 26.045578,91.493561 25.252884Z" style="fill: rgb(100.000000%,100.000000%,100.000000%);stroke: none;"></path>
  <path d="M28.947250 59.713821C28.947250 58.921127,28.632309 58.160980,28.071823 57.600510C27.511353 57.040024,26.751205 56.725082,25.958511 56.725082C25.165817 56.725082,24.405670 57.040024,23.845200 57.600510C23.284714 58.160980,22.969772 58.921127,22.969772 59.713821C22.969772 60.506516,23.284714 61.266663,23.845200 61.827133C24.405670 62.387619,25.165817 62.702560,25.958511 62.702560C26.751205 62.702560,27.511353 62.387619,28.071823 61.827133C28.632309 61.266663,28.947250 60.506516,28.947250 59.713821Z" style="fill: rgb(100.000000%,100.000000%,100.000000%);stroke: none;"></path>
  <path d="M51.121674 34.334335C51.121674 33.541641,50.806732 32.781494,50.246246 32.221024C49.685776 31.660538,48.925629 31.345596,48.132935 31.345596C47.340240 31.345596,46.580093 31.660538,46.019623 32.221024C45.459137 32.781494,45.144196 33.541641,45.144196 34.334335C45.144196 35.127029,45.459137 35.887177,46.019623 36.447647C46.580093 37.008133,47.340240 37.323074,48.132935 37.323074C48.925629 37.323074,49.685776 37.008133,50.246246 36.447647C50.806732 35.887177,51.121674 35.127029,51.121674 34.334335Z" style="fill: rgb(100.000000%,100.000000%,100.000000%);stroke: none;"></path>
  <path d="M34.970459 101.153381C34.970459 100.360687,34.655518 99.600540,34.095032 99.040070C33.534561 98.479584,32.774414 98.164642,31.981720 98.164642C31.189026 98.164642,30.428879 98.479584,29.868408 99.040070C29.307922 99.600540,28.992981 100.360687,28.992981 101.153381C28.992981 101.946075,29.307922 102.706223,29.868408 103.266693C30.428879 103.827179,31.189026 104.142120,31.981720 104.142120C32.774414 104.142120,33.534561 103.827179,34.095032 103.266693C34.655518 102.706223,34.970459 101.946075,34.970459 101.153381Z" style="fill: rgb(100.000000%,100.000000%,100.000000%);stroke: none;"></path>
  <path d="M19.503799 75.908035C19.503799 75.115341,19.188858 74.355194,18.628372 73.794724C18.067902 73.234238,17.307755 72.919296,16.515060 72.919296C15.722366 72.919296,14.962219 73.234238,14.401749 73.794724C13.841263 74.355194,13.526321 75.115341,13.526321 75.908035C13.526321 76.700729,13.841263 77.460876,14.401749 78.021347C14.962219 78.581833,15.722366 78.896774,16.515060 78.896774C17.307755 78.896774,18.067902 78.581833,18.628372 78.021347C19.188858 77.460876,19.503799 76.700729,19.503799 75.908035Z" style="fill: rgb(100.000000%,100.000000%,100.000000%);stroke: none;"></path>
  <path d="M60.097275 129.073990C60.097275 128.281296,59.782333 127.521149,59.221848 126.960678C58.661377 126.400192,57.901230 126.085251,57.108536 126.085251C56.315842 126.085251,55.555695 126.400192,54.995224 126.960678C54.434738 127.521149,54.119797 128.281296,54.119797 129.073990C54.119797 129.866684,54.434738 130.626831,54.995224 131.187302C55.555695 131.747787,56.315842 132.062729,57.108536 132.062729C57.901230 132.062729,58.661377 131.747787,59.221848 131.187302C59.782333 130.626831,60.097275 129.866684,60.097275 129.073990Z" style="fill: rgb(100.000000%,100.000000%,100.000000%);stroke: none;"></path>
  <path d="M53.038483 103.073715C53.038483 102.281021,52.723541 101.520874,52.163055 100.960403C51.602585 100.399918,50.842438 100.084976,50.049744 100.084976C49.257050 100.084976,48.496902 100.399918,47.936432 100.960403C47.375946 101.520874,47.061005 102.281021,47.061005 103.073715C47.061005 103.866409,47.375946 104.626556,47.936432 105.187027C48.496902 105.747513,49.257050 106.062454,50.049744 106.062454C50.842438 106.062454,51.602585 105.747513,52.163055 105.187027C52.723541 104.626556,53.038483 103.866409,53.038483 103.073715Z" style="fill: rgb(100.000000%,100.000000%,100.000000%);stroke: none;"></path>
  <path d="M50.011139 170.096008C50.011139 169.303314,49.696198 168.543167,49.135712 167.982697C48.575241 167.422211,47.815094 167.107269,47.022400 167.107269C46.229706 167.107269,45.469559 167.422211,44.909088 167.982697C44.348602 168.543167,44.033661 169.303314,44.033661 170.096008C44.033661 170.888702,44.348602 171.648849,44.909088 172.209320C45.469559 172.769806,46.229706 173.084747,47.022400 173.084747C47.815094 173.084747,48.575241 172.769806,49.135712 172.209320C49.696198 171.648849,50.011139 170.888702,50.011139 170.096008Z" style="fill: rgb(100.000000%,100.000000%,100.000000%);stroke: none;"></path>
  <path d="M47.811310 139.839050C47.811310 139.046356,47.496368 138.286209,46.935883 137.725739C46.375412 137.165253,45.615265 136.850311,44.822571 136.850311C44.029877 136.850311,43.269730 137.165253,42.709259 137.725739C42.148773 138.286209,41.833832 139.046356,41.833832 139.839050C41.833832 140.631744,42.148773 141.391891,42.709259 141.952362C43.269730 142.512848,44.029877 142.827789,44.822571 142.827789C45.615265 142.827789,46.375412 142.512848,46.935883 141.952362C47.496368 141.391891,47.811310 140.631744,47.811310 139.839050Z" style="fill: rgb(100.000000%,100.000000%,100.000000%);stroke: none;"></path>
  <path d="M84.416718 182.585205C104.601791 192.021835,128.134293 179.096939,131.000000 157.000000C132.717117 143.759644,125.223343 131.189728,125.536392 117.898727C125.726746 109.816895,128.789062 102.192383,131.000000 94.434540C132.206116 90.202484,133.162582 85.900864,134.482285 81.702499C135.555542 78.288162,136.864899 74.955002,138.209839 71.638626C139.219376 69.149292,140.131973 66.354492,138.598572 64.212204C136.632172 61.465027,132.744781 62.218170,129.298615 62.854919C124.066238 63.821716,118.673630 63.451904,113.440964 64.417038C107.206070 65.567047,101.524963 68.526810,95.926346 71.483017C87.375626 75.998001,78.759399 80.593292,69.306839 82.686401C54.558289 85.952209,38.573639 82.944916,24.902359 89.598160C10.749344 96.485840,2.625504 111.864197,6.198029 127.054230C10.295502 144.476288,27.767380 155.061554,45.730881 152.332184C60.571640 150.077286,73.117020 138.648529,88.255661 139.309647C104.027924 139.998428,115.775528 153.456802,131.000000 157.000000C151.974991 161.881531,172.035461 148.697540,183.769775 129.948929C193.183304 114.908371,196.437866 95.810196,184.725372 83.603149C177.049637 75.603333,165.390610 74.254028,154.418564 72.748444C149.035995 72.009857,143.626144 71.142303,138.209839 71.638626C135.162628 71.917847,131.780426 72.365372,129.867859 70.038254C128.261917 68.084229,128.790131 65.355804,129.298615 62.854919C130.323410 57.814651,130.814346 52.666580,132.189713 47.708389C134.609833 38.983856,139.694595 30.528824,137.616669 21.633438C134.659210 8.972931,120.693558 3.311752,106.958786 4.057861C93.540253 4.786789,80.456116 11.393539,77.790482 24.013672C75.665939 34.072052,81.708176 43.346161,86.566025 52.388550C89.921463 58.634369,92.723526 65.158157,95.926346 71.483017C99.151886 77.852737,102.897049 84.136810,108.793472 88.182495C115.250687 92.612961,123.223679 93.653885,131.000000 94.434540C138.189499 95.156281,145.398056 95.730621,152.624329 95.765320C164.920181 95.824371,177.954132 93.648239,184.725372 83.603149C193.087585 71.197876,187.212448 55.238342,177.873184 42.740112C167.884598 29.372910,153.556381 18.421173,137.616669 21.633438C127.379913 23.696396,119.115295 31.944626,108.617538 32.498901C97.761765 33.072083,88.504822 25.252884,77.790482 24.013672C61.445526 22.123230,48.132935 34.334335,37.143829 46.911789C25.958511 59.713821,16.515060 75.908035,24.902359 89.598160C31.981720 101.153381,50.049744 103.073715,53.743683 116.679916C57.108536 129.073990,44.822571 139.839050,45.730881 152.332184C47.022400 170.096008,68.017685 174.918564,84.416718 182.585205" style="stroke:rgb(0.000000%,0.000000%,0.000000%); stroke-width: 0.498138;stroke-linecap: round;stroke-linejoin: round;stroke-miterlimit: 10.000000;fill: none;"></path>
  <path d="M84.416718 182.585205C104.601791 192.021835,128.134293 179.096939,131.000000 157.000000" style="stroke:rgb(0.000000%,0.000000%,0.000000%); stroke-width: 1.494400;stroke-linecap: round;stroke-linejoin: round;stroke-miterlimit: 10.000000;fill: none;"></path>
  <path d="M24.902359 89.598160C31.981720 101.153381,50.049744 103.073715,53.743683 116.679916C57.108536 129.073990,44.822571 139.839050,45.730881 152.332184C47.022400 170.096008,68.017685 174.918564,84.416718 182.585205" style="stroke:rgb(0.000000%,0.000000%,0.000000%); stroke-width: 1.494400;stroke-linecap: round;stroke-linejoin: round;stroke-miterlimit: 10.000000;fill: none;"></path>
  <path d="M133.988739 157.000000C133.988739 156.207306,133.673798 155.447159,133.113312 154.886688C132.552841 154.326202,131.792694 154.011261,131.000000 154.011261C130.207306 154.011261,129.447159 154.326202,128.886688 154.886688C128.326202 155.447159,128.011261 156.207306,128.011261 157.000000C128.011261 157.792694,128.326202 158.552841,128.886688 159.113312C129.447159 159.673798,130.207306 159.988739,131.000000 159.988739C131.792694 159.988739,132.552841 159.673798,133.113312 159.113312C133.673798 158.552841,133.988739 157.792694,133.988739 157.000000Z" style="fill: rgb(100.000000%,100.000000%,100.000000%);stroke: none;"></path>
  <path d="M109.833267 147.084427C116.644760 150.978012,123.387772 155.228409,131.000000 157.000000C141.487503 159.440765,151.746368 157.365143,160.850159 152.335754" style="stroke:rgb(0.000000%,0.000000%,0.000000%); stroke-width: 0.498138;stroke-linecap: round;stroke-linejoin: round;stroke-miterlimit: 10.000000;fill: none;"></path>
  <path d="M141.198578 71.638626C141.198578 70.845932,140.883636 70.085785,140.323151 69.525314C139.762680 68.964828,139.002533 68.649887,138.209839 68.649887C137.417145 68.649887,136.656998 68.964828,136.096527 69.525314C135.536041 70.085785,135.221100 70.845932,135.221100 71.638626C135.221100 72.431320,135.536041 73.191467,136.096527 73.751938C136.656998 74.312424,137.417145 74.627365,138.209839 74.627365C139.002533 74.627365,139.762680 74.312424,140.323151 73.751938C140.883636 73.191467,141.198578 72.431320,141.198578 71.638626Z" style="fill: rgb(100.000000%,100.000000%,100.000000%);stroke: none;"></path>
  <path d="M146.326843 71.730438C143.624527 71.483276,140.917984 71.390472,138.209839 71.638626C136.686234 71.778244,135.078873 71.959930,133.613342 71.815811" style="stroke:rgb(0.000000%,0.000000%,0.000000%); stroke-width: 0.498138;stroke-linecap: round;stroke-linejoin: round;stroke-miterlimit: 10.000000;fill: none;"></path>
  <path d="M98.915085 71.483017C98.915085 70.690323,98.600143 69.930176,98.039658 69.369705C97.479187 68.809219,96.719040 68.494278,95.926346 68.494278C95.133652 68.494278,94.373505 68.809219,93.813034 69.369705C93.252548 69.930176,92.937607 70.690323,92.937607 71.483017C92.937607 72.275711,93.252548 73.035858,93.813034 73.596329C94.373505 74.156815,95.133652 74.471756,95.926346 74.471756C96.719040 74.471756,97.479187 74.156815,98.039658 73.596329C98.600143 73.035858,98.915085 72.275711,98.915085 71.483017Z" style="fill: rgb(100.000000%,100.000000%,100.000000%);stroke: none;"></path>
  <path d="M91.303421 61.906158C92.823715 65.108429,94.324936 68.320587,95.926346 71.483017C97.539124 74.667877,99.281799 77.831329,101.358337 80.704285" style="stroke:rgb(0.000000%,0.000000%,0.000000%); stroke-width: 0.498138;stroke-linecap: round;stroke-linejoin: round;stroke-miterlimit: 10.000000;fill: none;"></path>
  <path d="M48.719620 152.332184C48.719620 151.539490,48.404678 150.779343,47.844193 150.218872C47.283722 149.658386,46.523575 149.343445,45.730881 149.343445C44.938187 149.343445,44.178040 149.658386,43.617569 150.218872C43.057083 150.779343,42.742142 151.539490,42.742142 152.332184C42.742142 153.124878,43.057083 153.885025,43.617569 154.445496C44.178040 155.005981,44.938187 155.320923,45.730881 155.320923C46.523575 155.320923,47.283722 155.005981,47.844193 154.445496C48.404678 153.885025,48.719620 153.124878,48.719620 152.332184Z" style="fill: rgb(100.000000%,100.000000%,100.000000%);stroke: none;"></path>
  <path d="M50.658478 134.468918C48.121140 140.271072,45.276733 146.085617,45.730881 152.332184C46.376648 161.214096,51.948349 166.860703,59.408493 171.245148" style="stroke:rgb(0.000000%,0.000000%,0.000000%); stroke-width: 1.494400;stroke-linecap: round;stroke-linejoin: round;stroke-miterlimit: 10.000000;fill: none;"></path>
  <path d="M187.714111 83.603149C187.714111 82.810455,187.399170 82.050308,186.838684 81.489838C186.278214 80.929352,185.518066 80.614410,184.725372 80.614410C183.932678 80.614410,183.172531 80.929352,182.612061 81.489838C182.051575 82.050308,181.736633 82.810455,181.736633 83.603149C181.736633 84.395844,182.051575 85.155991,182.612061 85.716461C183.172531 86.276947,183.932678 86.591888,184.725372 86.591888C185.518066 86.591888,186.278214 86.276947,186.838684 85.716461C187.399170 85.155991,187.714111 84.395844,187.714111 83.603149Z" style="fill: rgb(100.000000%,100.000000%,100.000000%);stroke: none;"></path>
  <path d="M170.746597 93.473267C176.388458 91.680984,181.339752 88.625687,184.725372 83.603149C188.906479 77.400513,189.528244 70.309311,187.937317 63.206482" style="stroke:rgb(0.000000%,0.000000%,0.000000%); stroke-width: 0.498138;stroke-linecap: round;stroke-linejoin: round;stroke-miterlimit: 10.000000;fill: none;"></path>
  <path d="M132.287354 62.854919C132.287354 62.062225,131.972412 61.302078,131.411926 60.741608C130.851456 60.181122,130.091309 59.866180,129.298615 59.866180C128.505920 59.866180,127.745773 60.181122,127.185303 60.741608C126.624817 61.302078,126.309875 62.062225,126.309875 62.854919C126.309875 63.647614,126.624817 64.407761,127.185303 64.968231C127.745773 65.528717,128.505920 65.843658,129.298615 65.843658C130.091309 65.843658,130.851456 65.528717,131.411926 64.968231C131.972412 64.407761,132.287354 63.647614,132.287354 62.854919Z" style="fill: rgb(100.000000%,100.000000%,100.000000%);stroke: none;"></path>
  <path d="M134.503494 62.264587C132.855087 62.189072,131.021698 62.536545,129.298615 62.854919C126.682419 63.338318,124.026169 63.487564,121.369888 63.636612" style="stroke:rgb(0.000000%,0.000000%,0.000000%); stroke-width: 0.498138;stroke-linecap: round;stroke-linejoin: round;stroke-miterlimit: 10.000000;fill: none;"></path>
  <path d="M80.779221 24.013672C80.779221 23.220978,80.464279 22.460831,79.903793 21.900360C79.343323 21.339874,78.583176 21.024933,77.790482 21.024933C76.997787 21.024933,76.237640 21.339874,75.677170 21.900360C75.116684 22.460831,74.801743 23.220978,74.801743 24.013672C74.801743 24.806366,75.116684 25.566513,75.677170 26.126984C76.237640 26.687469,76.997787 27.002411,77.790482 27.002411C78.583176 27.002411,79.343323 26.687469,79.903793 26.126984C80.464279 25.566513,80.779221 24.806366,80.779221 24.013672Z" style="fill: rgb(100.000000%,100.000000%,100.000000%);stroke: none;"></path>
  <path d="M93.150955 28.935928C88.140457 26.897873,83.147644 24.633270,77.790482 24.013672C69.617996 23.068451,62.203613 25.648621,55.458710 30.037277" style="stroke:rgb(0.000000%,0.000000%,0.000000%); stroke-width: 0.498138;stroke-linecap: round;stroke-linejoin: round;stroke-miterlimit: 10.000000;fill: none;"></path>
  <path d="M133.988739 94.434540C133.988739 93.641846,133.673798 92.881699,133.113312 92.321228C132.552841 91.760742,131.792694 91.445801,131.000000 91.445801C130.207306 91.445801,129.447159 91.760742,128.886688 92.321228C128.326202 92.881699,128.011261 93.641846,128.011261 94.434540C128.011261 95.227234,128.326202 95.987381,128.886688 96.547852C129.447159 97.108337,130.207306 97.423279,131.000000 97.423279C131.792694 97.423279,132.552841 97.108337,133.113312 96.547852C133.673798 95.987381,133.988739 95.227234,133.988739 94.434540Z" style="fill: rgb(100.000000%,100.000000%,100.000000%);stroke: none;"></path>
  <path d="M127.510483 106.045120C128.576218 102.159042,129.894531 98.313461,131.000000 94.434540C131.603058 92.318512,132.143707 90.185089,132.698563 88.055878" style="stroke:rgb(0.000000%,0.000000%,0.000000%); stroke-width: 0.498138;stroke-linecap: round;stroke-linejoin: round;stroke-miterlimit: 10.000000;fill: none;"></path>
  <path d="M140.605408 21.633438C140.605408 20.840744,140.290466 20.080597,139.729980 19.520126C139.169510 18.959641,138.409363 18.644699,137.616669 18.644699C136.823975 18.644699,136.063828 18.959641,135.503357 19.520126C134.942871 20.080597,134.627930 20.840744,134.627930 21.633438C134.627930 22.426132,134.942871 23.186279,135.503357 23.746750C136.063828 24.307236,136.823975 24.622177,137.616669 24.622177C138.409363 24.622177,139.169510 24.307236,139.729980 23.746750C140.290466 23.186279,140.605408 22.426132,140.605408 21.633438Z" style="fill: rgb(100.000000%,100.000000%,100.000000%);stroke: none;"></path>
  <path d="M136.589966 34.734970C137.903931 30.418732,138.655624 26.081131,137.616669 21.633438C136.137939 15.303177,131.907150 10.722748,126.329208 7.818161" style="stroke:rgb(0.000000%,0.000000%,0.000000%); stroke-width: 0.498138;stroke-linecap: round;stroke-linejoin: round;stroke-miterlimit: 10.000000;fill: none;"></path>
  <path d="M27.891098 89.598160C27.891098 88.805466,27.576157 88.045319,27.015671 87.484848C26.455200 86.924362,25.695053 86.609421,24.902359 86.609421C24.109665 86.609421,23.349518 86.924362,22.789047 87.484848C22.228561 88.045319,21.913620 88.805466,21.913620 89.598160C21.913620 90.390854,22.228561 91.151001,22.789047 91.711472C23.349518 92.271957,24.109665 92.586899,24.902359 92.586899C25.695053 92.586899,26.455200 92.271957,27.015671 91.711472C27.576157 91.151001,27.891098 90.390854,27.891098 89.598160Z" style="fill: rgb(100.000000%,100.000000%,100.000000%);stroke: none;"></path>
  <path d="M46.700607 84.872009C39.151978 85.360062,31.737991 86.271545,24.902359 89.598160C17.825851 93.042007,12.256638 98.608521,8.903107 105.212830" style="stroke:rgb(0.000000%,0.000000%,0.000000%); stroke-width: 0.498138;stroke-linecap: round;stroke-linejoin: round;stroke-miterlimit: 10.000000;fill: none;"></path>
  <path d="M53.743683 116.679916C56.435577 126.595215,49.110870 135.467926,46.538422 145.016907" style="stroke:rgb(0.000000%,0.000000%,0.000000%); stroke-width: 0.498138;stroke-linecap: round;stroke-linejoin: round;stroke-miterlimit: 10.000000;fill: none;"></path>
  <path d="M46.220734 140.026825C46.241470 141.710831,46.325195 143.380493,46.538422 145.016907C47.544800 143.709045,48.666245 142.469223,49.842377 141.263794Z" style="stroke:rgb(0.000000%,0.000000%,0.000000%); stroke-width: 0.498138;fill: rgb(0.000000%,0.000000%,0.000000%);"></path>
  <path d="M53.743683 116.679916C56.435577 126.595215,49.110870 135.467926,46.538422 145.016907" style="stroke:rgb(0.000000%,0.000000%,0.000000%); stroke-width: 0.498138;stroke-linecap: round;stroke-linejoin: round;stroke-miterlimit: 10.000000;fill: none;"></path>
  <path d="M46.279541 142.027908C46.328568 143.033554,46.410004 144.031250,46.538422 145.016907C47.144592 144.229156,47.792496 143.466080,48.468933 142.720352Z" style="stroke:rgb(0.000000%,0.000000%,0.000000%); stroke-width: 0.498138;fill: rgb(0.000000%,0.000000%,0.000000%);"></path>
  <path d="M134.482285 81.702499C135.340897 78.971024,136.350601 76.291504,137.408752 73.630966" style="stroke:rgb(0.000000%,0.000000%,0.000000%); stroke-width: 0.498138;stroke-linecap: round;stroke-linejoin: round;stroke-miterlimit: 10.000000;fill: none;"></path>
  <path d="M137.474884 76.630203C137.443420 75.630829,137.422928 74.630966,137.408752 73.630966C136.711655 74.348068,136.019135 75.069580,135.334686 75.798477Z" style="stroke:rgb(0.000000%,0.000000%,0.000000%); stroke-width: 0.498138;fill: rgb(0.000000%,0.000000%,0.000000%);"></path>
  <path d="M138.598572 64.212204C137.025452 62.014450,134.222870 62.056931,131.400330 62.487839" style="stroke:rgb(0.000000%,0.000000%,0.000000%); stroke-width: 0.498138;stroke-linecap: round;stroke-linejoin: round;stroke-miterlimit: 10.000000;fill: none;"></path>
  <path d="M134.076782 61.132706C133.180481 61.468552,132.281937 61.954330,131.400330 62.487839C132.400955 62.733994,133.379822 63.025894,134.251068 63.422195Z" style="stroke:rgb(0.000000%,0.000000%,0.000000%); stroke-width: 0.498138;fill: rgb(0.000000%,0.000000%,0.000000%);"></path>
  <path d="M6.198029 127.054230C9.476013 140.991928,21.313690 150.554047,35.114990 152.423889" style="stroke:rgb(0.000000%,0.000000%,0.000000%); stroke-width: 0.498138;stroke-linecap: round;stroke-linejoin: round;stroke-miterlimit: 10.000000;fill: none;"></path>
  <path d="M32.185593 153.070618C33.166092 152.895813,34.143478 152.680298,35.114990 152.423889C34.246719 151.918213,33.403244 151.379486,32.586319 150.809753Z" style="stroke:rgb(0.000000%,0.000000%,0.000000%); stroke-width: 0.498138;fill: rgb(0.000000%,0.000000%,0.000000%);"></path>
  <path d="M88.255661 139.309647C100.873520 139.860672,110.915573 148.584305,122.222656 153.865799" style="stroke:rgb(0.000000%,0.000000%,0.000000%); stroke-width: 0.498138;stroke-linecap: round;stroke-linejoin: round;stroke-miterlimit: 10.000000;fill: none;"></path>
  <path d="M119.229141 153.669235C120.227631 153.754028,121.225616 153.821625,122.222656 153.865799C121.548889 153.129547,120.891022 152.376038,120.244949 151.610031Z" style="stroke:rgb(0.000000%,0.000000%,0.000000%); stroke-width: 0.498138;fill: rgb(0.000000%,0.000000%,0.000000%);"></path>
  <path d="M129.867859 70.038254C128.583099 68.475021,128.664215 66.416168,129.008392 64.374710" style="stroke:rgb(0.000000%,0.000000%,0.000000%); stroke-width: 0.498138;stroke-linecap: round;stroke-linejoin: round;stroke-miterlimit: 10.000000;fill: none;"></path>
  <path d="M129.985458 67.211105C129.530685 66.359924,129.238693 65.377777,129.008392 64.374710C128.461960 65.246826,127.973923 66.147766,127.693588 67.071213Z" style="stroke:rgb(0.000000%,0.000000%,0.000000%); stroke-width: 0.498138;fill: rgb(0.000000%,0.000000%,0.000000%);"></path>
  <path d="M132.189713 47.708389C134.125809 40.728729,137.767303 33.921555,138.082520 26.923416" style="stroke:rgb(0.000000%,0.000000%,0.000000%); stroke-width: 0.498138;stroke-linecap: round;stroke-linejoin: round;stroke-miterlimit: 10.000000;fill: none;"></path>
  <path d="M138.925430 29.802444C138.699158 28.823547,138.422806 27.862350,138.082520 26.923416C137.659195 27.827957,137.174927 28.703033,136.642715 29.555191Z" style="stroke:rgb(0.000000%,0.000000%,0.000000%); stroke-width: 0.498138;fill: rgb(0.000000%,0.000000%,0.000000%);"></path>
  <path d="M108.793472 88.182495C113.959259 91.726883,120.095154 93.101944,126.324371 93.909897" style="stroke:rgb(0.000000%,0.000000%,0.000000%); stroke-width: 0.498138;stroke-linecap: round;stroke-linejoin: round;stroke-miterlimit: 10.000000;fill: none;"></path>
  <path d="M123.415405 94.642868C124.387863 94.417664,125.357788 94.170898,126.324371 93.909897C125.456360 93.410950,124.596024 92.899597,123.749176 92.371201Z" style="stroke:rgb(0.000000%,0.000000%,0.000000%); stroke-width: 0.498138;fill: rgb(0.000000%,0.000000%,0.000000%);"></path>
  <path d="M152.624329 95.765320C162.461044 95.812561,172.770157 94.429276,179.967194 88.730942" style="stroke:rgb(0.000000%,0.000000%,0.000000%); stroke-width: 0.498138;stroke-linecap: round;stroke-linejoin: round;stroke-miterlimit: 10.000000;fill: none;"></path>
  <path d="M178.348999 91.257004C178.938431 90.447128,179.479752 89.605667,179.967194 88.730942C179.003983 89.004776,178.026199 89.216995,177.036743 89.372849Z" style="stroke:rgb(0.000000%,0.000000%,0.000000%); stroke-width: 0.498138;fill: rgb(0.000000%,0.000000%,0.000000%);"></path>
  <path d="M108.617538 32.498901C99.932892 32.957443,92.271500 28.044830,84.068558 25.426987" style="stroke:rgb(0.000000%,0.000000%,0.000000%); stroke-width: 0.498138;stroke-linecap: round;stroke-linejoin: round;stroke-miterlimit: 10.000000;fill: none;"></path>
  <path d="M87.063812 25.258270C86.061859 25.291229,85.062668 25.343491,84.068558 25.426987C84.830521 26.070908,85.574005 26.740509,86.305786 27.425690Z" style="stroke:rgb(0.000000%,0.000000%,0.000000%); stroke-width: 0.498138;fill: rgb(0.000000%,0.000000%,0.000000%);"></path>
  <path d="M81.426071 185.295410L87.407364 185.295410L87.407364 177.875015L81.426071 177.875015Z" style="fill: rgb(100.000000%,100.000000%,100.000000%);stroke: none;"></path>
  <path d="M81.426071 187.295410L87.407364 187.295410L87.407364 179.875015L81.426071 179.875015Z" style="fill: rgb(100.000000%,100.000000%,100.000000%);stroke: none;"></path>
  <g transform="translate(81.926071 185.795410)" style="fill: rgb(0.000000%,0.000000%,0.000000%);">
    <use xlink:href="#GLYPHcmr10_49"></use>
  </g>
  <path d="M122.545746 120.608932L128.527039 120.608932L128.527039 113.188538L122.545746 113.188538Z" style="fill: rgb(100.000000%,100.000000%,100.000000%);stroke: none;"></path>
  <path d="M122.545746 122.608932L128.527039 122.608932L128.527039 115.188538L122.545746 115.188538Z" style="fill: rgb(100.000000%,100.000000%,100.000000%);stroke: none;"></path>
  <g transform="translate(123.045746 121.108932)" style="fill: rgb(0.000000%,0.000000%,0.000000%);">
    <use xlink:href="#GLYPHcmr10_50"></use>
  </g>
  <path d="M110.450317 67.127243L116.431610 67.127243L116.431610 59.706848L110.450317 59.706848Z" style="fill: rgb(100.000000%,100.000000%,100.000000%);stroke: none;"></path>
  <path d="M110.450317 69.127243L116.431610 69.127243L116.431610 61.706848L110.450317 61.706848Z" style="fill: rgb(100.000000%,100.000000%,100.000000%);stroke: none;"></path>
  <g transform="translate(110.950317 67.627243)" style="fill: rgb(0.000000%,0.000000%,0.000000%);">
    <use xlink:href="#GLYPHcmr10_51"></use>
  </g>
  <path d="M66.316193 85.396606L72.297485 85.396606L72.297485 77.976212L66.316193 77.976212Z" style="fill: rgb(100.000000%,100.000000%,100.000000%);stroke: none;"></path>
  <path d="M66.316193 87.396606L72.297485 87.396606L72.297485 79.976212L66.316193 79.976212Z" style="fill: rgb(100.000000%,100.000000%,100.000000%);stroke: none;"></path>
  <g transform="translate(66.816193 85.896606)" style="fill: rgb(0.000000%,0.000000%,0.000000%);">
    <use xlink:href="#GLYPHcmr10_52"></use>
  </g>
  <path d="M180.779129 132.659134L186.760422 132.659134L186.760422 125.238739L180.779129 125.238739Z" style="fill: rgb(100.000000%,100.000000%,100.000000%);stroke: none;"></path>
  <path d="M180.779129 134.659134L186.760422 134.659134L186.760422 127.238739L180.779129 127.238739Z" style="fill: rgb(100.000000%,100.000000%,100.000000%);stroke: none;"></path>
  <g transform="translate(181.279129 133.159134)" style="fill: rgb(0.000000%,0.000000%,0.000000%);">
    <use xlink:href="#GLYPHcmr10_53"></use>
  </g>
  <path d="M151.427917 75.458649L157.409210 75.458649L157.409210 68.038254L151.427917 68.038254Z" style="fill: rgb(100.000000%,100.000000%,100.000000%);stroke: none;"></path>
  <path d="M151.427917 77.458649L157.409210 77.458649L157.409210 70.038254L151.427917 70.038254Z" style="fill: rgb(100.000000%,100.000000%,100.000000%);stroke: none;"></path>
  <g transform="translate(151.927917 75.958649)" style="fill: rgb(0.000000%,0.000000%,0.000000%);">
    <use xlink:href="#GLYPHcmr10_54"></use>
  </g>
  <path d="M103.968140 6.768066L109.949432 6.768066L109.949432 -0.652328L103.968140 -0.652328Z" style="fill: rgb(100.000000%,100.000000%,100.000000%);stroke: none;"></path>
  <path d="M103.968140 8.768066L109.949432 8.768066L109.949432 1.347672L103.968140 1.347672Z" style="fill: rgb(100.000000%,100.000000%,100.000000%);stroke: none;"></path>
  <g transform="translate(104.468140 7.268066)" style="fill: rgb(0.000000%,0.000000%,0.000000%);">
    <use xlink:href="#GLYPHcmr10_55"></use>
  </g>
  <path d="M83.575378 55.098755L89.556671 55.098755L89.556671 47.678360L83.575378 47.678360Z" style="fill: rgb(100.000000%,100.000000%,100.000000%);stroke: none;"></path>
  <path d="M83.575378 57.098755L89.556671 57.098755L89.556671 49.678360L83.575378 49.678360Z" style="fill: rgb(100.000000%,100.000000%,100.000000%);stroke: none;"></path>
  <g transform="translate(84.075378 55.598755)" style="fill: rgb(0.000000%,0.000000%,0.000000%);">
    <use xlink:href="#GLYPHcmr10_56"></use>
  </g>
  <path d="M174.882538 45.450317L180.863831 45.450317L180.863831 38.029922L174.882538 38.029922Z" style="fill: rgb(100.000000%,100.000000%,100.000000%);stroke: none;"></path>
  <path d="M174.882538 47.450317L180.863831 47.450317L180.863831 40.029922L174.882538 40.029922Z" style="fill: rgb(100.000000%,100.000000%,100.000000%);stroke: none;"></path>
  <g transform="translate(175.382538 45.950317)" style="fill: rgb(0.000000%,0.000000%,0.000000%);">
    <use xlink:href="#GLYPHcmr10_57"></use>
  </g>
  <path d="M31.662476 49.621994L42.625183 49.621994L42.625183 42.201599L31.662476 42.201599Z" style="fill: rgb(100.000000%,100.000000%,100.000000%);stroke: none;"></path>
  <path d="M31.662476 51.621994L42.625183 51.621994L42.625183 44.201599L31.662476 44.201599Z" style="fill: rgb(100.000000%,100.000000%,100.000000%);stroke: none;"></path>
  <g transform="translate(32.162476 50.121994)" style="fill: rgb(0.000000%,0.000000%,0.000000%);">
    <use xlink:href="#GLYPHcmr10_49"></use>
    <use xlink:href="#GLYPHcmr10_48" x="5.000095"></use>
  </g>
</svg>
