<?xml version="1.0"?>
<!-- Created by MetaPost 1.999 on 2021.07.06:0003 -->
<svg version="1.1" xmlns="http://www.w3.org/2000/svg" xmlns:xlink="http://www.w3.org/1999/xlink" width="196.904282" height="203.354813" viewBox="0 0 196.904282 203.354813">
<!-- Original BoundingBox: -70.525223 -42.468399 126.379059 160.886414 -->
  <defs>
    <g transform="scale(0.009963,0.009963)" id="GLYPHcmr10_48">
      <path style="fill-rule: evenodd;" d="M460.000000 -320.000000C460.000000 -400.000000,455.000000 -480.000000,420.000000 -554.000000C374.000000 -650.000000,292.000000 -666.000000,250.000000 -666.000000C190.000000 -666.000000,117.000000 -640.000000,76.000000 -547.000000C44.000000 -478.000000,39.000000 -400.000000,39.000000 -320.000000C39.000000 -245.000000,43.000000 -155.000000,84.000000 -79.000000C127.000000 2.000000,200.000000 22.000000,249.000000 22.000000C303.000000 22.000000,379.000000 1.000000,423.000000 -94.000000C455.000000 -163.000000,460.000000 -241.000000,460.000000 -320.000000M249.000000 -0.000000C210.000000 -0.000000,151.000000 -25.000000,133.000000 -121.000000C122.000000 -181.000000,122.000000 -273.000000,122.000000 -332.000000C122.000000 -396.000000,122.000000 -462.000000,130.000000 -516.000000C149.000000 -635.000000,224.000000 -644.000000,249.000000 -644.000000C282.000000 -644.000000,348.000000 -626.000000,367.000000 -527.000000C377.000000 -471.000000,377.000000 -395.000000,377.000000 -332.000000C377.000000 -257.000000,377.000000 -189.000000,366.000000 -125.000000C351.000000 -30.000000,294.000000 -0.000000,249.000000 -0.000000"></path>
    </g>
    <g transform="scale(0.009963,0.009963)" id="GLYPHcmr10_49">
      <path style="fill-rule: evenodd;" d="M294.000000 -640.000000C294.000000 -664.000000,294.000000 -666.000000,271.000000 -666.000000C209.000000 -602.000000,121.000000 -602.000000,89.000000 -602.000000L89.000000 -571.000000C109.000000 -571.000000,168.000000 -571.000000,220.000000 -597.000000L220.000000 -79.000000C220.000000 -43.000000,217.000000 -31.000000,127.000000 -31.000000L95.000000 -31.000000L95.000000 -0.000000L257.000000 -0.000000L130.000000 -3.000000L217.000000 -3.000000L257.000000 -3.000000L297.000000 -3.000000L384.000000 -3.000000L419.000000 -0.000000L419.000000 -31.000000L387.000000 -31.000000C297.000000 -31.000000,294.000000 -42.000000,294.000000 -79.000000"></path>
    </g>
    <g transform="scale(0.009963,0.009963)" id="GLYPHcmr10_50">
      <path style="fill-rule: evenodd;" d="M127.000000 -77.000000L233.000000 -180.000000C389.000000 -318.000000,449.000000 -372.000000,449.000000 -472.000000C449.000000 -586.000000,359.000000 -666.000000,237.000000 -666.000000C124.000000 -666.000000,50.000000 -574.000000,50.000000 -485.000000C50.000000 -429.000000,100.000000 -429.000000,103.000000 -429.000000C120.000000 -429.000000,155.000000 -441.000000,155.000000 -482.000000C155.000000 -508.000000,137.000000 -534.000000,102.000000 -534.000000C94.000000 -534.000000,92.000000 -534.000000,89.000000 -533.000000C112.000000 -598.000000,166.000000 -635.000000,224.000000 -635.000000C315.000000 -635.000000,358.000000 -554.000000,358.000000 -472.000000C358.000000 -392.000000,308.000000 -313.000000,253.000000 -251.000000L61.000000 -37.000000C50.000000 -26.000000,50.000000 -24.000000,50.000000 -0.000000L421.000000 -0.000000L449.000000 -174.000000L424.000000 -174.000000C419.000000 -144.000000,412.000000 -100.000000,402.000000 -85.000000C395.000000 -77.000000,329.000000 -77.000000,307.000000 -77.000000"></path>
    </g>
    <g transform="scale(0.009963,0.009963)" id="GLYPHcmr10_51">
      <path style="fill-rule: evenodd;" d="M290.000000 -352.000000C372.000000 -379.000000,430.000000 -449.000000,430.000000 -528.000000C430.000000 -610.000000,342.000000 -666.000000,246.000000 -666.000000C145.000000 -666.000000,69.000000 -606.000000,69.000000 -530.000000C69.000000 -497.000000,91.000000 -478.000000,120.000000 -478.000000C151.000000 -478.000000,171.000000 -500.000000,171.000000 -529.000000C171.000000 -579.000000,124.000000 -579.000000,109.000000 -579.000000C140.000000 -628.000000,206.000000 -641.000000,242.000000 -641.000000C283.000000 -641.000000,338.000000 -619.000000,338.000000 -529.000000C338.000000 -517.000000,336.000000 -459.000000,310.000000 -415.000000C280.000000 -367.000000,246.000000 -364.000000,221.000000 -363.000000C213.000000 -362.000000,189.000000 -360.000000,182.000000 -360.000000C174.000000 -359.000000,167.000000 -358.000000,167.000000 -348.000000C167.000000 -337.000000,174.000000 -337.000000,191.000000 -337.000000L235.000000 -337.000000C317.000000 -337.000000,354.000000 -269.000000,354.000000 -171.000000C354.000000 -35.000000,285.000000 -6.000000,241.000000 -6.000000C198.000000 -6.000000,123.000000 -23.000000,88.000000 -82.000000C123.000000 -77.000000,154.000000 -99.000000,154.000000 -137.000000C154.000000 -173.000000,127.000000 -193.000000,98.000000 -193.000000C74.000000 -193.000000,42.000000 -179.000000,42.000000 -135.000000C42.000000 -44.000000,135.000000 22.000000,244.000000 22.000000C366.000000 22.000000,457.000000 -69.000000,457.000000 -171.000000C457.000000 -253.000000,394.000000 -331.000000,290.000000 -352.000000"></path>
    </g>
    <g transform="scale(0.009963,0.009963)" id="GLYPHcmr10_52">
      <path style="fill-rule: evenodd;" d="M294.000000 -165.000000L294.000000 -78.000000C294.000000 -42.000000,292.000000 -31.000000,218.000000 -31.000000L197.000000 -31.000000L197.000000 -0.000000L332.000000 -0.000000L238.000000 -3.000000L290.000000 -3.000000L332.000000 -3.000000L374.000000 -3.000000L427.000000 -3.000000L468.000000 -0.000000L468.000000 -31.000000L447.000000 -31.000000C373.000000 -31.000000,371.000000 -42.000000,371.000000 -78.000000L371.000000 -165.000000L471.000000 -165.000000L471.000000 -196.000000L371.000000 -196.000000L371.000000 -651.000000C371.000000 -671.000000,371.000000 -677.000000,355.000000 -677.000000C346.000000 -677.000000,343.000000 -677.000000,335.000000 -665.000000L28.000000 -196.000000L28.000000 -165.000000M300.000000 -196.000000L56.000000 -196.000000L300.000000 -569.000000"></path>
    </g>
    <g transform="scale(0.009963,0.009963)" id="GLYPHcmr10_53">
      <path style="fill-rule: evenodd;" d="M449.000000 -201.000000C449.000000 -320.000000,367.000000 -420.000000,259.000000 -420.000000C211.000000 -420.000000,168.000000 -404.000000,132.000000 -369.000000L132.000000 -564.000000C152.000000 -558.000000,185.000000 -551.000000,217.000000 -551.000000C340.000000 -551.000000,410.000000 -642.000000,410.000000 -655.000000C410.000000 -661.000000,407.000000 -666.000000,400.000000 -666.000000C399.000000 -666.000000,397.000000 -666.000000,392.000000 -663.000000C372.000000 -654.000000,323.000000 -634.000000,256.000000 -634.000000C216.000000 -634.000000,170.000000 -641.000000,123.000000 -662.000000C115.000000 -665.000000,113.000000 -665.000000,111.000000 -665.000000C101.000000 -665.000000,101.000000 -657.000000,101.000000 -641.000000L101.000000 -345.000000C101.000000 -327.000000,101.000000 -319.000000,115.000000 -319.000000C122.000000 -319.000000,124.000000 -322.000000,128.000000 -328.000000C139.000000 -344.000000,176.000000 -398.000000,257.000000 -398.000000C309.000000 -398.000000,334.000000 -352.000000,342.000000 -334.000000C358.000000 -297.000000,360.000000 -258.000000,360.000000 -208.000000C360.000000 -173.000000,360.000000 -113.000000,336.000000 -71.000000C312.000000 -32.000000,275.000000 -6.000000,229.000000 -6.000000C156.000000 -6.000000,99.000000 -59.000000,82.000000 -118.000000C85.000000 -117.000000,88.000000 -116.000000,99.000000 -116.000000C132.000000 -116.000000,149.000000 -141.000000,149.000000 -165.000000C149.000000 -189.000000,132.000000 -214.000000,99.000000 -214.000000C85.000000 -214.000000,50.000000 -207.000000,50.000000 -161.000000C50.000000 -75.000000,119.000000 22.000000,231.000000 22.000000C347.000000 22.000000,449.000000 -74.000000,449.000000 -201.000000"></path>
    </g>
    <g transform="scale(0.009963,0.009963)" id="GLYPHcmr10_54">
      <path style="fill-rule: evenodd;" d="M132.000000 -328.000000L132.000000 -352.000000C132.000000 -605.000000,256.000000 -641.000000,307.000000 -641.000000C331.000000 -641.000000,373.000000 -635.000000,395.000000 -601.000000C380.000000 -601.000000,340.000000 -601.000000,340.000000 -556.000000C340.000000 -525.000000,364.000000 -510.000000,386.000000 -510.000000C402.000000 -510.000000,432.000000 -519.000000,432.000000 -558.000000C432.000000 -618.000000,388.000000 -666.000000,305.000000 -666.000000C177.000000 -666.000000,42.000000 -537.000000,42.000000 -316.000000C42.000000 -49.000000,158.000000 22.000000,251.000000 22.000000C362.000000 22.000000,457.000000 -72.000000,457.000000 -204.000000C457.000000 -331.000000,368.000000 -427.000000,257.000000 -427.000000C189.000000 -427.000000,152.000000 -376.000000,132.000000 -328.000000M251.000000 -6.000000C188.000000 -6.000000,158.000000 -66.000000,152.000000 -81.000000C134.000000 -128.000000,134.000000 -208.000000,134.000000 -226.000000C134.000000 -304.000000,166.000000 -404.000000,256.000000 -404.000000C272.000000 -404.000000,318.000000 -404.000000,349.000000 -342.000000C367.000000 -305.000000,367.000000 -254.000000,367.000000 -205.000000C367.000000 -157.000000,367.000000 -107.000000,350.000000 -71.000000C320.000000 -11.000000,274.000000 -6.000000,251.000000 -6.000000"></path>
    </g>
    <g transform="scale(0.009963,0.009963)" id="GLYPHcmr10_55">
      <path style="fill-rule: evenodd;" d="M476.000000 -609.000000C485.000000 -621.000000,485.000000 -623.000000,485.000000 -644.000000L242.000000 -644.000000C120.000000 -644.000000,118.000000 -657.000000,114.000000 -676.000000L89.000000 -676.000000L56.000000 -470.000000L81.000000 -470.000000C84.000000 -486.000000,93.000000 -549.000000,106.000000 -561.000000C113.000000 -567.000000,191.000000 -567.000000,204.000000 -567.000000L411.000000 -567.000000C400.000000 -551.000000,321.000000 -442.000000,299.000000 -409.000000C209.000000 -274.000000,176.000000 -135.000000,176.000000 -33.000000C176.000000 -23.000000,176.000000 22.000000,222.000000 22.000000C268.000000 22.000000,268.000000 -23.000000,268.000000 -33.000000L268.000000 -84.000000C268.000000 -139.000000,271.000000 -194.000000,279.000000 -248.000000C283.000000 -271.000000,297.000000 -357.000000,341.000000 -419.000000"></path>
    </g>
    <g transform="scale(0.009963,0.009963)" id="GLYPHcmr10_56">
      <path style="fill-rule: evenodd;" d="M163.000000 -457.000000C117.000000 -487.000000,113.000000 -521.000000,113.000000 -538.000000C113.000000 -599.000000,178.000000 -641.000000,249.000000 -641.000000C322.000000 -641.000000,386.000000 -589.000000,386.000000 -517.000000C386.000000 -460.000000,347.000000 -412.000000,287.000000 -377.000000M309.000000 -362.000000C381.000000 -399.000000,430.000000 -451.000000,430.000000 -517.000000C430.000000 -609.000000,341.000000 -666.000000,250.000000 -666.000000C150.000000 -666.000000,69.000000 -592.000000,69.000000 -499.000000C69.000000 -481.000000,71.000000 -436.000000,113.000000 -389.000000C124.000000 -377.000000,161.000000 -352.000000,186.000000 -335.000000C128.000000 -306.000000,42.000000 -250.000000,42.000000 -151.000000C42.000000 -45.000000,144.000000 22.000000,249.000000 22.000000C362.000000 22.000000,457.000000 -61.000000,457.000000 -168.000000C457.000000 -204.000000,446.000000 -249.000000,408.000000 -291.000000C389.000000 -312.000000,373.000000 -322.000000,309.000000 -362.000000M209.000000 -320.000000L332.000000 -242.000000C360.000000 -223.000000,407.000000 -193.000000,407.000000 -132.000000C407.000000 -58.000000,332.000000 -6.000000,250.000000 -6.000000C164.000000 -6.000000,92.000000 -68.000000,92.000000 -151.000000C92.000000 -209.000000,124.000000 -273.000000,209.000000 -320.000000"></path>
    </g>
    <g transform="scale(0.009963,0.009963)" id="GLYPHcmr10_57">
      <path style="fill-rule: evenodd;" d="M367.000000 -318.000000L367.000000 -286.000000C367.000000 -52.000000,263.000000 -6.000000,205.000000 -6.000000C188.000000 -6.000000,134.000000 -8.000000,107.000000 -42.000000C151.000000 -42.000000,159.000000 -71.000000,159.000000 -88.000000C159.000000 -119.000000,135.000000 -134.000000,113.000000 -134.000000C97.000000 -134.000000,67.000000 -125.000000,67.000000 -86.000000C67.000000 -19.000000,121.000000 22.000000,206.000000 22.000000C335.000000 22.000000,457.000000 -114.000000,457.000000 -329.000000C457.000000 -598.000000,342.000000 -666.000000,253.000000 -666.000000C198.000000 -666.000000,149.000000 -648.000000,106.000000 -603.000000C65.000000 -558.000000,42.000000 -516.000000,42.000000 -441.000000C42.000000 -316.000000,130.000000 -218.000000,242.000000 -218.000000C303.000000 -218.000000,344.000000 -260.000000,367.000000 -318.000000M243.000000 -241.000000C227.000000 -241.000000,181.000000 -241.000000,150.000000 -304.000000C132.000000 -341.000000,132.000000 -391.000000,132.000000 -440.000000C132.000000 -494.000000,132.000000 -541.000000,153.000000 -578.000000C180.000000 -628.000000,218.000000 -641.000000,253.000000 -641.000000C299.000000 -641.000000,332.000000 -607.000000,349.000000 -562.000000C361.000000 -530.000000,365.000000 -467.000000,365.000000 -421.000000C365.000000 -338.000000,331.000000 -241.000000,243.000000 -241.000000"></path>
    </g>
  </defs>
  <path d="M104.522720 199.479660C104.522720 198.686966,104.207779 197.926819,103.647293 197.366348C103.086823 196.805862,102.326675 196.490921,101.533981 196.490921C100.741287 196.490921,99.981140 196.805862,99.420670 197.366348C98.860184 197.926819,98.545242 198.686966,98.545242 199.479660C98.545242 200.272354,98.860184 201.032501,99.420670 201.592972C99.981140 202.153458,100.741287 202.468399,101.533981 202.468399C102.326675 202.468399,103.086823 202.153458,103.647293 201.592972C104.207779 201.032501,104.522720 200.272354,104.522720 199.479660Z" style="fill: rgb(100.000000%,100.000000%,100.000000%);stroke: none;"></path>
  <path d="M128.389999 190.320953C128.389999 189.528259,128.075058 188.768112,127.514572 188.207642C126.954102 187.647156,126.193954 187.332214,125.401260 187.332214C124.608566 187.332214,123.848419 187.647156,123.287949 188.207642C122.727463 188.768112,122.412521 189.528259,122.412521 190.320953C122.412521 191.113647,122.727463 191.873795,123.287949 192.434265C123.848419 192.994751,124.608566 193.309692,125.401260 193.309692C126.193954 193.309692,126.954102 192.994751,127.514572 192.434265C128.075058 191.873795,128.389999 191.113647,128.389999 190.320953Z" style="fill: rgb(100.000000%,100.000000%,100.000000%);stroke: none;"></path>
  <path d="M69.719437 144.105560C69.719437 143.312866,69.404495 142.552719,68.844009 141.992249C68.283539 141.431763,67.523392 141.116821,66.730698 141.116821C65.938004 141.116821,65.177856 141.431763,64.617386 141.992249C64.056900 142.552719,63.741959 143.312866,63.741959 144.105560C63.741959 144.898254,64.056900 145.658401,64.617386 146.218872C65.177856 146.779358,65.938004 147.094299,66.730698 147.094299C67.523392 147.094299,68.283539 146.779358,68.844009 146.218872C69.404495 145.658401,69.719437 144.898254,69.719437 144.105560Z" style="fill: rgb(100.000000%,100.000000%,100.000000%);stroke: none;"></path>
  <path d="M78.139160 185.040009C78.139160 184.247314,77.824219 183.487167,77.263733 182.926697C76.703262 182.366211,75.943115 182.051270,75.150421 182.051270C74.357727 182.051270,73.597580 182.366211,73.037109 182.926697C72.476624 183.487167,72.161682 184.247314,72.161682 185.040009C72.161682 185.832703,72.476624 186.592850,73.037109 187.153320C73.597580 187.713806,74.357727 188.028748,75.150421 188.028748C75.943115 188.028748,76.703262 187.713806,77.263733 187.153320C77.824219 186.592850,78.139160 185.832703,78.139160 185.040009Z" style="fill: rgb(100.000000%,100.000000%,100.000000%);stroke: none;"></path>
  <path d="M76.166275 103.642273C76.166275 102.849579,75.851334 102.089432,75.290848 101.528961C74.730377 100.968475,73.970230 100.653534,73.177536 100.653534C72.384842 100.653534,71.624695 100.968475,71.064224 101.528961C70.503738 102.089432,70.188797 102.849579,70.188797 103.642273C70.188797 104.434967,70.503738 105.195114,71.064224 105.755585C71.624695 106.316071,72.384842 106.631012,73.177536 106.631012C73.970230 106.631012,74.730377 106.316071,75.290848 105.755585C75.851334 105.195114,76.166275 104.434967,76.166275 103.642273Z" style="fill: rgb(100.000000%,100.000000%,100.000000%);stroke: none;"></path>
  <path d="M77.050751 128.234161C77.050751 127.441467,76.735809 126.681320,76.175323 126.120850C75.614853 125.560364,74.854706 125.245422,74.062012 125.245422C73.269318 125.245422,72.509171 125.560364,71.948700 126.120850C71.388214 126.681320,71.073273 127.441467,71.073273 128.234161C71.073273 129.026855,71.388214 129.787003,71.948700 130.347473C72.509171 130.907959,73.269318 131.222900,74.062012 131.222900C74.854706 131.222900,75.614853 130.907959,76.175323 130.347473C76.735809 129.787003,77.050751 129.026855,77.050751 128.234161Z" style="fill: rgb(100.000000%,100.000000%,100.000000%);stroke: none;"></path>
  <path d="M72.691849 83.351654C72.691849 82.558960,72.376907 81.798813,71.816422 81.238342C71.255951 80.677856,70.495804 80.362915,69.703110 80.362915C68.910416 80.362915,68.150269 80.677856,67.589798 81.238342C67.029312 81.798813,66.714371 82.558960,66.714371 83.351654C66.714371 84.144348,67.029312 84.904495,67.589798 85.464966C68.150269 86.025452,68.910416 86.340393,69.703110 86.340393C70.495804 86.340393,71.255951 86.025452,71.816422 85.464966C72.376907 84.904495,72.691849 84.144348,72.691849 83.351654Z" style="fill: rgb(100.000000%,100.000000%,100.000000%);stroke: none;"></path>
  <path d="M73.676941 95.426453C73.676941 94.633759,73.362000 93.873611,72.801514 93.313141C72.241043 92.752655,71.480896 92.437714,70.688202 92.437714C69.895508 92.437714,69.135361 92.752655,68.574890 93.313141C68.014404 93.873611,67.699463 94.633759,67.699463 95.426453C67.699463 96.219147,68.014404 96.979294,68.574890 97.539764C69.135361 98.100250,69.895508 98.415192,70.688202 98.415192C71.480896 98.415192,72.241043 98.100250,72.801514 97.539764C73.362000 96.979294,73.676941 96.219147,73.676941 95.426453Z" style="fill: rgb(100.000000%,100.000000%,100.000000%);stroke: none;"></path>
  <path d="M66.100159 77.360535C66.100159 76.567841,65.785217 75.807693,65.224731 75.247223C64.664261 74.686737,63.904114 74.371796,63.111420 74.371796C62.318726 74.371796,61.558578 74.686737,60.998108 75.247223C60.437622 75.807693,60.122681 76.567841,60.122681 77.360535C60.122681 78.153229,60.437622 78.913376,60.998108 79.473846C61.558578 80.034332,62.318726 80.349274,63.111420 80.349274C63.904114 80.349274,64.664261 80.034332,65.224731 79.473846C65.785217 78.913376,66.100159 78.153229,66.100159 77.360535Z" style="fill: rgb(100.000000%,100.000000%,100.000000%);stroke: none;"></path>
  <path d="M72.122650 79.307510C72.122650 78.514816,71.807709 77.754669,71.247223 77.194199C70.686752 76.633713,69.926605 76.318771,69.133911 76.318771C68.341217 76.318771,67.581070 76.633713,67.020599 77.194199C66.460114 77.754669,66.145172 78.514816,66.145172 79.307510C66.145172 80.100204,66.460114 80.860352,67.020599 81.420822C67.581070 81.981308,68.341217 82.296249,69.133911 82.296249C69.926605 82.296249,70.686752 81.981308,71.247223 81.420822C71.807709 80.860352,72.122650 80.100204,72.122650 79.307510Z" style="fill: rgb(100.000000%,100.000000%,100.000000%);stroke: none;"></path>
  <path d="M59.459976 82.689636C59.459976 81.896942,59.145035 81.136795,58.584549 80.576324C58.024078 80.015839,57.263931 79.700897,56.471237 79.700897C55.678543 79.700897,54.918396 80.015839,54.357925 80.576324C53.797440 81.136795,53.482498 81.896942,53.482498 82.689636C53.482498 83.482330,53.797440 84.242477,54.357925 84.802948C54.918396 85.363434,55.678543 85.678375,56.471237 85.678375C57.263931 85.678375,58.024078 85.363434,58.584549 84.802948C59.145035 84.242477,59.459976 83.482330,59.459976 82.689636Z" style="fill: rgb(100.000000%,100.000000%,100.000000%);stroke: none;"></path>
  <path d="M63.558151 79.265747C63.558151 78.473053,63.243210 77.712906,62.682724 77.152435C62.122253 76.591949,61.362106 76.277008,60.569412 76.277008C59.776718 76.277008,59.016571 76.591949,58.456100 77.152435C57.895615 77.712906,57.580673 78.473053,57.580673 79.265747C57.580673 80.058441,57.895615 80.818588,58.456100 81.379059C59.016571 81.939545,59.776718 82.254486,60.569412 82.254486C61.362106 82.254486,62.122253 81.939545,62.682724 81.379059C63.243210 80.818588,63.558151 80.058441,63.558151 79.265747Z" style="fill: rgb(100.000000%,100.000000%,100.000000%);stroke: none;"></path>
  <path d="M52.481705 82.637329C52.481705 81.844635,52.166763 81.084488,51.606277 80.524017C51.045807 79.963531,50.285660 79.648590,49.492966 79.648590C48.700272 79.648590,47.940125 79.963531,47.379654 80.524017C46.819168 81.084488,46.504227 81.844635,46.504227 82.637329C46.504227 83.430023,46.819168 84.190170,47.379654 84.750641C47.940125 85.311127,48.700272 85.626068,49.492966 85.626068C50.285660 85.626068,51.045807 85.311127,51.606277 84.750641C52.166763 84.190170,52.481705 83.430023,52.481705 82.637329Z" style="fill: rgb(100.000000%,100.000000%,100.000000%);stroke: none;"></path>
  <path d="M57.256638 84.193604C57.256638 83.400909,56.941696 82.640762,56.381210 82.080292C55.820740 81.519806,55.060593 81.204865,54.267899 81.204865C53.475204 81.204865,52.715057 81.519806,52.154587 82.080292C51.594101 82.640762,51.279160 83.400909,51.279160 84.193604C51.279160 84.986298,51.594101 85.746445,52.154587 86.306915C52.715057 86.867401,53.475204 87.182343,54.267899 87.182343C55.060593 87.182343,55.820740 86.867401,56.381210 86.306915C56.941696 85.746445,57.256638 84.986298,57.256638 84.193604Z" style="fill: rgb(100.000000%,100.000000%,100.000000%);stroke: none;"></path>
  <path d="M50.363663 72.896210C50.363663 72.103516,50.048721 71.343369,49.488235 70.782898C48.927765 70.222412,48.167618 69.907471,47.374924 69.907471C46.582230 69.907471,45.822083 70.222412,45.261612 70.782898C44.701126 71.343369,44.386185 72.103516,44.386185 72.896210C44.386185 73.688904,44.701126 74.449051,45.261612 75.009521C45.822083 75.570007,46.582230 75.884949,47.374924 75.884949C48.167618 75.884949,48.927765 75.570007,49.488235 75.009521C50.048721 74.449051,50.363663 73.688904,50.363663 72.896210Z" style="fill: rgb(100.000000%,100.000000%,100.000000%);stroke: none;"></path>
  <path d="M51.677185 79.788605C51.677185 78.995911,51.362244 78.235764,50.801758 77.675293C50.241287 77.114807,49.481140 76.799866,48.688446 76.799866C47.895752 76.799866,47.135605 77.114807,46.575134 77.675293C46.014648 78.235764,45.699707 78.995911,45.699707 79.788605C45.699707 80.581299,46.014648 81.341446,46.575134 81.901917C47.135605 82.462402,47.895752 82.777344,48.688446 82.777344C49.481140 82.777344,50.241287 82.462402,50.801758 81.901917C51.362244 81.341446,51.677185 80.581299,51.677185 79.788605Z" style="fill: rgb(100.000000%,100.000000%,100.000000%);stroke: none;"></path>
  <path d="M39.365540 57.645493C39.365540 56.852798,39.050598 56.092651,38.490112 55.532181C37.929642 54.971695,37.169495 54.656754,36.376801 54.656754C35.584106 54.656754,34.823959 54.971695,34.263489 55.532181C33.703003 56.092651,33.388062 56.852798,33.388062 57.645493C33.388062 58.438187,33.703003 59.198334,34.263489 59.758804C34.823959 60.319290,35.584106 60.634232,36.376801 60.634232C37.169495 60.634232,37.929642 60.319290,38.490112 59.758804C39.050598 59.198334,39.365540 58.438187,39.365540 57.645493Z" style="fill: rgb(100.000000%,100.000000%,100.000000%);stroke: none;"></path>
  <path d="M49.434418 68.508942C49.434418 67.716248,49.119476 66.956100,48.558990 66.395630C47.998520 65.835144,47.238373 65.520203,46.445679 65.520203C45.652985 65.520203,44.892838 65.835144,44.332367 66.395630C43.771881 66.956100,43.456940 67.716248,43.456940 68.508942C43.456940 69.301636,43.771881 70.061783,44.332367 70.622253C44.892838 71.182739,45.652985 71.497681,46.445679 71.497681C47.238373 71.497681,47.998520 71.182739,48.558990 70.622253C49.119476 70.061783,49.434418 69.301636,49.434418 68.508942Z" style="fill: rgb(100.000000%,100.000000%,100.000000%);stroke: none;"></path>
  <path d="M5.452255 83.845184C5.452255 83.052490,5.137314 82.292343,4.576828 81.731873C4.016357 81.171387,3.256210 80.856445,2.463516 80.856445C1.670822 80.856445,0.910675 81.171387,0.350204 81.731873C-0.210281 82.292343,-0.525223 83.052490,-0.525223 83.845184C-0.525223 84.637878,-0.210281 85.398026,0.350204 85.958496C0.910675 86.518982,1.670822 86.833923,2.463516 86.833923C3.256210 86.833923,4.016357 86.518982,4.576828 85.958496C5.137314 85.398026,5.452255 84.637878,5.452255 83.845184Z" style="fill: rgb(100.000000%,100.000000%,100.000000%);stroke: none;"></path>
  <path d="M26.888763 60.316284C26.888763 59.523590,26.573822 58.763443,26.013336 58.202972C25.452866 57.642487,24.692719 57.327545,23.900024 57.327545C23.107330 57.327545,22.347183 57.642487,21.786713 58.202972C21.226227 58.763443,20.911285 59.523590,20.911285 60.316284C20.911285 61.108978,21.226227 61.869125,21.786713 62.429596C22.347183 62.990082,23.107330 63.305023,23.900024 63.305023C24.692719 63.305023,25.452866 62.990082,26.013336 62.429596C26.573822 61.869125,26.888763 61.108978,26.888763 60.316284Z" style="fill: rgb(100.000000%,100.000000%,100.000000%);stroke: none;"></path>
  <path d="M28.831482 148.020996C28.831482 147.228302,28.516541 146.468155,27.956055 145.907684C27.395584 145.347198,26.635437 145.032257,25.842743 145.032257C25.050049 145.032257,24.289902 145.347198,23.729431 145.907684C23.168945 146.468155,22.854004 147.228302,22.854004 148.020996C22.854004 148.813690,23.168945 149.573837,23.729431 150.134308C24.289902 150.694794,25.050049 151.009735,25.842743 151.009735C26.635437 151.009735,27.395584 150.694794,27.956055 150.134308C28.516541 149.573837,28.831482 148.813690,28.831482 148.020996Z" style="fill: rgb(100.000000%,100.000000%,100.000000%);stroke: none;"></path>
  <path d="M8.444702 106.407928C8.444702 105.615234,8.129761 104.855087,7.569275 104.294617C7.008804 103.734131,6.248657 103.419189,5.455963 103.419189C4.663269 103.419189,3.903122 103.734131,3.342651 104.294617C2.782166 104.855087,2.467224 105.615234,2.467224 106.407928C2.467224 107.200623,2.782166 107.960770,3.342651 108.521240C3.903122 109.081726,4.663269 109.396667,5.455963 109.396667C6.248657 109.396667,7.008804 109.081726,7.569275 108.521240C8.129761 107.960770,8.444702 107.200623,8.444702 106.407928Z" style="fill: rgb(100.000000%,100.000000%,100.000000%);stroke: none;"></path>
  <path d="M88.771561 155.826416C88.771561 155.033722,88.456619 154.273575,87.896133 153.713104C87.335663 153.152618,86.575516 152.837677,85.782822 152.837677C84.990128 152.837677,84.229980 153.152618,83.669510 153.713104C83.109024 154.273575,82.794083 155.033722,82.794083 155.826416C82.794083 156.619110,83.109024 157.379257,83.669510 157.939728C84.229980 158.500214,84.990128 158.815155,85.782822 158.815155C86.575516 158.815155,87.335663 158.500214,87.896133 157.939728C88.456619 157.379257,88.771561 156.619110,88.771561 155.826416Z" style="fill: rgb(100.000000%,100.000000%,100.000000%);stroke: none;"></path>
  <path d="M49.846283 166.119751C49.846283 165.327057,49.531342 164.566910,48.970856 164.006439C48.410385 163.445953,47.650238 163.131012,46.857544 163.131012C46.064850 163.131012,45.304703 163.445953,44.744232 164.006439C44.183746 164.566910,43.868805 165.327057,43.868805 166.119751C43.868805 166.912445,44.183746 167.672592,44.744232 168.233063C45.304703 168.793549,46.064850 169.108490,46.857544 169.108490C47.650238 169.108490,48.410385 168.793549,48.970856 168.233063C49.531342 167.672592,49.846283 166.912445,49.846283 166.119751Z" style="fill: rgb(100.000000%,100.000000%,100.000000%);stroke: none;"></path>
  <path d="M121.398193 130.722870C121.398193 129.930176,121.083252 129.170029,120.522766 128.609558C119.962296 128.049072,119.202148 127.734131,118.409454 127.734131C117.616760 127.734131,116.856613 128.049072,116.296143 128.609558C115.735657 129.170029,115.420715 129.930176,115.420715 130.722870C115.420715 131.515564,115.735657 132.275711,116.296143 132.836182C116.856613 133.396667,117.616760 133.711609,118.409454 133.711609C119.202148 133.711609,119.962296 133.396667,120.522766 132.836182C121.083252 132.275711,121.398193 131.515564,121.398193 130.722870Z" style="fill: rgb(100.000000%,100.000000%,100.000000%);stroke: none;"></path>
  <path d="M98.465530 140.326172C98.465530 139.533478,98.150589 138.773331,97.590103 138.212860C97.029633 137.652374,96.269485 137.337433,95.476791 137.337433C94.684097 137.337433,93.923950 137.652374,93.363480 138.212860C92.802994 138.773331,92.488052 139.533478,92.488052 140.326172C92.488052 141.118866,92.802994 141.879013,93.363480 142.439484C93.923950 142.999969,94.684097 143.314911,95.476791 143.314911C96.269485 143.314911,97.029633 142.999969,97.590103 142.439484C98.150589 141.879013,98.465530 141.118866,98.465530 140.326172Z" style="fill: rgb(100.000000%,100.000000%,100.000000%);stroke: none;"></path>
  <path d="M142.341095 128.025940C142.341095 127.233246,142.026154 126.473099,141.465668 125.912628C140.905197 125.352142,140.145050 125.037201,139.352356 125.037201C138.559662 125.037201,137.799515 125.352142,137.239044 125.912628C136.678558 126.473099,136.363617 127.233246,136.363617 128.025940C136.363617 128.818634,136.678558 129.578781,137.239044 130.139252C137.799515 130.699738,138.559662 131.014679,139.352356 131.014679C140.145050 131.014679,140.905197 130.699738,141.465668 130.139252C142.026154 129.578781,142.341095 128.818634,142.341095 128.025940Z" style="fill: rgb(100.000000%,100.000000%,100.000000%);stroke: none;"></path>
  <path d="M130.184006 130.323196C130.184006 129.530502,129.869064 128.770355,129.308578 128.209885C128.748108 127.649399,127.987961 127.334457,127.195267 127.334457C126.402573 127.334457,125.642426 127.649399,125.081955 128.209885C124.521469 128.770355,124.206528 129.530502,124.206528 130.323196C124.206528 131.115891,124.521469 131.876038,125.081955 132.436508C125.642426 132.996994,126.402573 133.311935,127.195267 133.311935C127.987961 133.311935,128.748108 132.996994,129.308578 132.436508C129.869064 131.876038,130.184006 131.115891,130.184006 130.323196Z" style="fill: rgb(100.000000%,100.000000%,100.000000%);stroke: none;"></path>
  <path d="M150.799164 132.601578C150.799164 131.808884,150.484222 131.048737,149.923737 130.488266C149.363266 129.927780,148.603119 129.612839,147.810425 129.612839C147.017731 129.612839,146.257584 129.927780,145.697113 130.488266C145.136627 131.048737,144.821686 131.808884,144.821686 132.601578C144.821686 133.394272,145.136627 134.154419,145.697113 134.714890C146.257584 135.275375,147.017731 135.590317,147.810425 135.590317C148.603119 135.590317,149.363266 135.275375,149.923737 134.714890C150.484222 134.154419,150.799164 133.394272,150.799164 132.601578Z" style="fill: rgb(100.000000%,100.000000%,100.000000%);stroke: none;"></path>
  <path d="M146.441208 127.427734C146.441208 126.635040,146.126266 125.874893,145.565781 125.314423C145.005310 124.753937,144.245163 124.438995,143.452469 124.438995C142.659775 124.438995,141.899628 124.753937,141.339157 125.314423C140.778671 125.874893,140.463730 126.635040,140.463730 127.427734C140.463730 128.220428,140.778671 128.980576,141.339157 129.541046C141.899628 130.101532,142.659775 130.416473,143.452469 130.416473C144.245163 130.416473,145.005310 130.101532,145.565781 129.541046C146.126266 128.980576,146.441208 128.220428,146.441208 127.427734Z" style="fill: rgb(100.000000%,100.000000%,100.000000%);stroke: none;"></path>
  <path d="M148.606598 142.800598C148.606598 142.007904,148.291656 141.247757,147.731171 140.687286C147.170700 140.126801,146.410553 139.811859,145.617859 139.811859C144.825165 139.811859,144.065018 140.126801,143.504547 140.687286C142.944061 141.247757,142.629120 142.007904,142.629120 142.800598C142.629120 143.593292,142.944061 144.353439,143.504547 144.913910C144.065018 145.474396,144.825165 145.789337,145.617859 145.789337C146.410553 145.789337,147.170700 145.474396,147.731171 144.913910C148.291656 144.353439,148.606598 143.593292,148.606598 142.800598Z" style="fill: rgb(100.000000%,100.000000%,100.000000%);stroke: none;"></path>
  <path d="M150.111694 135.976151C150.111694 135.183456,149.796753 134.423309,149.236267 133.862839C148.675797 133.302353,147.915649 132.987411,147.122955 132.987411C146.330261 132.987411,145.570114 133.302353,145.009644 133.862839C144.449158 134.423309,144.134216 135.183456,144.134216 135.976151C144.134216 136.768845,144.449158 137.528992,145.009644 138.089462C145.570114 138.649948,146.330261 138.964890,147.122955 138.964890C147.915649 138.964890,148.675797 138.649948,149.236267 138.089462C149.796753 137.528992,150.111694 136.768845,150.111694 135.976151Z" style="fill: rgb(100.000000%,100.000000%,100.000000%);stroke: none;"></path>
  <path d="M152.076767 159.307144C152.076767 158.514450,151.761826 157.754303,151.201340 157.193832C150.640869 156.633347,149.880722 156.318405,149.088028 156.318405C148.295334 156.318405,147.535187 156.633347,146.974716 157.193832C146.414230 157.754303,146.099289 158.514450,146.099289 159.307144C146.099289 160.099838,146.414230 160.859985,146.974716 161.420456C147.535187 161.980942,148.295334 162.295883,149.088028 162.295883C149.880722 162.295883,150.640869 161.980942,151.201340 161.420456C151.761826 160.859985,152.076767 160.099838,152.076767 159.307144Z" style="fill: rgb(100.000000%,100.000000%,100.000000%);stroke: none;"></path>
  <path d="M148.025040 146.698013C148.025040 145.905319,147.710098 145.145172,147.149612 144.584702C146.589142 144.024216,145.828995 143.709274,145.036301 143.709274C144.243607 143.709274,143.483459 144.024216,142.922989 144.584702C142.362503 145.145172,142.047562 145.905319,142.047562 146.698013C142.047562 147.490707,142.362503 148.250854,142.922989 148.811325C143.483459 149.371811,144.243607 149.686752,145.036301 149.686752C145.828995 149.686752,146.589142 149.371811,147.149612 148.811325C147.710098 148.250854,148.025040 147.490707,148.025040 146.698013Z" style="fill: rgb(100.000000%,100.000000%,100.000000%);stroke: none;"></path>
  <path d="M189.512543 154.950378C189.512543 154.157684,189.197601 153.397537,188.637115 152.837067C188.076645 152.276581,187.316498 151.961639,186.523804 151.961639C185.731110 151.961639,184.970963 152.276581,184.410492 152.837067C183.850006 153.397537,183.535065 154.157684,183.535065 154.950378C183.535065 155.743073,183.850006 156.503220,184.410492 157.063690C184.970963 157.624176,185.731110 157.939117,186.523804 157.939117C187.316498 157.939117,188.076645 157.624176,188.637115 157.063690C189.197601 156.503220,189.512543 155.743073,189.512543 154.950378Z" style="fill: rgb(100.000000%,100.000000%,100.000000%);stroke: none;"></path>
  <path d="M162.531906 162.891968C162.531906 162.099274,162.216965 161.339127,161.656479 160.778656C161.096008 160.218170,160.335861 159.903229,159.543167 159.903229C158.750473 159.903229,157.990326 160.218170,157.429855 160.778656C156.869370 161.339127,156.554428 162.099274,156.554428 162.891968C156.554428 163.684662,156.869370 164.444809,157.429855 165.005280C157.990326 165.565765,158.750473 165.880707,159.543167 165.880707C160.335861 165.880707,161.096008 165.565765,161.656479 165.005280C162.216965 164.444809,162.531906 163.684662,162.531906 162.891968Z" style="fill: rgb(100.000000%,100.000000%,100.000000%);stroke: none;"></path>
  <path d="M196.013611 94.497711C196.013611 93.705017,195.698669 92.944870,195.138184 92.384399C194.577713 91.823914,193.817566 91.508972,193.024872 91.508972C192.232178 91.508972,191.472031 91.823914,190.911560 92.384399C190.351074 92.944870,190.036133 93.705017,190.036133 94.497711C190.036133 95.290405,190.351074 96.050552,190.911560 96.611023C191.472031 97.171509,192.232178 97.486450,193.024872 97.486450C193.817566 97.486450,194.577713 97.171509,195.138184 96.611023C195.698669 96.050552,196.013611 95.290405,196.013611 94.497711Z" style="fill: rgb(100.000000%,100.000000%,100.000000%);stroke: none;"></path>
  <path d="M196.379059 135.289291C196.379059 134.496597,196.064117 133.736450,195.503632 133.175980C194.943161 132.615494,194.183014 132.300552,193.390320 132.300552C192.597626 132.300552,191.837479 132.615494,191.277008 133.175980C190.716522 133.736450,190.401581 134.496597,190.401581 135.289291C190.401581 136.081985,190.716522 136.842133,191.277008 137.402603C191.837479 137.963089,192.597626 138.278030,193.390320 138.278030C194.183014 138.278030,194.943161 137.963089,195.503632 137.402603C196.064117 136.842133,196.379059 136.081985,196.379059 135.289291Z" style="fill: rgb(100.000000%,100.000000%,100.000000%);stroke: none;"></path>
  <path d="M152.960556 62.659531C152.960556 61.866837,152.645615 61.106689,152.085129 60.546219C151.524658 59.985733,150.764511 59.670792,149.971817 59.670792C149.179123 59.670792,148.418976 59.985733,147.858505 60.546219C147.298019 61.106689,146.983078 61.866837,146.983078 62.659531C146.983078 63.452225,147.298019 64.212372,147.858505 64.772842C148.418976 65.333328,149.179123 65.648270,149.971817 65.648270C150.764511 65.648270,151.524658 65.333328,152.085129 64.772842C152.645615 64.212372,152.960556 63.452225,152.960556 62.659531Z" style="fill: rgb(100.000000%,100.000000%,100.000000%);stroke: none;"></path>
  <path d="M187.309082 72.505249C187.309082 71.712555,186.994141 70.952408,186.433655 70.391937C185.873184 69.831451,185.113037 69.516510,184.320343 69.516510C183.527649 69.516510,182.767502 69.831451,182.207031 70.391937C181.646545 70.952408,181.331604 71.712555,181.331604 72.505249C181.331604 73.297943,181.646545 74.058090,182.207031 74.618561C182.767502 75.179047,183.527649 75.493988,184.320343 75.493988C185.113037 75.493988,185.873184 75.179047,186.433655 74.618561C186.994141 74.058090,187.309082 73.297943,187.309082 72.505249Z" style="fill: rgb(100.000000%,100.000000%,100.000000%);stroke: none;"></path>
  <path d="M115.164688 67.031006C115.164688 66.238312,114.849747 65.478165,114.289261 64.917694C113.728790 64.357208,112.968643 64.042267,112.175949 64.042267C111.383255 64.042267,110.623108 64.357208,110.062637 64.917694C109.502151 65.478165,109.187210 66.238312,109.187210 67.031006C109.187210 67.823700,109.502151 68.583847,110.062637 69.144318C110.623108 69.704803,111.383255 70.019745,112.175949 70.019745C112.968643 70.019745,113.728790 69.704803,114.289261 69.144318C114.849747 68.583847,115.164688 67.823700,115.164688 67.031006Z" style="fill: rgb(100.000000%,100.000000%,100.000000%);stroke: none;"></path>
  <path d="M138.074432 69.910095C138.074432 69.117401,137.759491 68.357254,137.199005 67.796783C136.638535 67.236298,135.878387 66.921356,135.085693 66.921356C134.292999 66.921356,133.532852 67.236298,132.972382 67.796783C132.411896 68.357254,132.096954 69.117401,132.096954 69.910095C132.096954 70.702789,132.411896 71.462936,132.972382 72.023407C133.532852 72.583893,134.292999 72.898834,135.085693 72.898834C135.878387 72.898834,136.638535 72.583893,137.199005 72.023407C137.759491 71.462936,138.074432 70.702789,138.074432 69.910095Z" style="fill: rgb(100.000000%,100.000000%,100.000000%);stroke: none;"></path>
  <path d="M95.192490 60.672913C95.192490 59.880219,94.877548 59.120071,94.317062 58.559601C93.756592 57.999115,92.996445 57.684174,92.203751 57.684174C91.411057 57.684174,90.650909 57.999115,90.090439 58.559601C89.529953 59.120071,89.215012 59.880219,89.215012 60.672913C89.215012 61.465607,89.529953 62.225754,90.090439 62.786224C90.650909 63.346710,91.411057 63.661652,92.203751 63.661652C92.996445 63.661652,93.756592 63.346710,94.317062 62.786224C94.877548 62.225754,95.192490 61.465607,95.192490 60.672913Z" style="fill: rgb(100.000000%,100.000000%,100.000000%);stroke: none;"></path>
  <path d="M107.613022 63.210831C107.613022 62.418137,107.298080 61.657990,106.737595 61.097519C106.177124 60.537033,105.416977 60.222092,104.624283 60.222092C103.831589 60.222092,103.071442 60.537033,102.510971 61.097519C101.950485 61.657990,101.635544 62.418137,101.635544 63.210831C101.635544 64.003525,101.950485 64.763672,102.510971 65.324142C103.071442 65.884628,103.831589 66.199570,104.624283 66.199570C105.416977 66.199570,106.177124 65.884628,106.737595 65.324142C107.298080 64.763672,107.613022 64.003525,107.613022 63.210831Z" style="fill: rgb(100.000000%,100.000000%,100.000000%);stroke: none;"></path>
  <path d="M88.093750 51.797089C88.093750 51.004395,87.778809 50.244247,87.218323 49.683777C86.657852 49.123291,85.897705 48.808350,85.105011 48.808350C84.312317 48.808350,83.552170 49.123291,82.991699 49.683777C82.431213 50.244247,82.116272 51.004395,82.116272 51.797089C82.116272 52.589783,82.431213 53.349930,82.991699 53.910400C83.552170 54.470886,84.312317 54.785828,85.105011 54.785828C85.897705 54.785828,86.657852 54.470886,87.218323 53.910400C87.778809 53.349930,88.093750 52.589783,88.093750 51.797089Z" style="fill: rgb(100.000000%,100.000000%,100.000000%);stroke: none;"></path>
  <path d="M90.322784 59.709122C90.322784 58.916428,90.007843 58.156281,89.447357 57.595810C88.886887 57.035324,88.126740 56.720383,87.334045 56.720383C86.541351 56.720383,85.781204 57.035324,85.220734 57.595810C84.660248 58.156281,84.345306 58.916428,84.345306 59.709122C84.345306 60.501816,84.660248 61.261963,85.220734 61.822433C85.781204 62.382919,86.541351 62.697861,87.334045 62.697861C88.126740 62.697861,88.886887 62.382919,89.447357 61.822433C90.007843 61.261963,90.322784 60.501816,90.322784 59.709122Z" style="fill: rgb(100.000000%,100.000000%,100.000000%);stroke: none;"></path>
  <path d="M97.151901 42.706436C97.151901 41.913742,96.836960 41.153595,96.276474 40.593124C95.716003 40.032639,94.955856 39.717697,94.163162 39.717697C93.370468 39.717697,92.610321 40.032639,92.049850 40.593124C91.489365 41.153595,91.174423 41.913742,91.174423 42.706436C91.174423 43.499130,91.489365 44.259277,92.049850 44.819748C92.610321 45.380234,93.370468 45.695175,94.163162 45.695175C94.955856 45.695175,95.716003 45.380234,96.276474 44.819748C96.836960 44.259277,97.151901 43.499130,97.151901 42.706436Z" style="fill: rgb(100.000000%,100.000000%,100.000000%);stroke: none;"></path>
  <path d="M91.166626 48.521530C91.166626 47.728836,90.851685 46.968689,90.291199 46.408218C89.730728 45.847733,88.970581 45.532791,88.177887 45.532791C87.385193 45.532791,86.625046 45.847733,86.064575 46.408218C85.504089 46.968689,85.189148 47.728836,85.189148 48.521530C85.189148 49.314224,85.504089 50.074371,86.064575 50.634842C86.625046 51.195328,87.385193 51.510269,88.177887 51.510269C88.970581 51.510269,89.730728 51.195328,90.291199 50.634842C90.851685 50.074371,91.166626 49.314224,91.166626 48.521530Z" style="fill: rgb(100.000000%,100.000000%,100.000000%);stroke: none;"></path>
  <path d="M104.218292 25.962891C104.218292 25.170197,103.903351 24.410049,103.342865 23.849579C102.782394 23.289093,102.022247 22.974152,101.229553 22.974152C100.436859 22.974152,99.676712 23.289093,99.116241 23.849579C98.555756 24.410049,98.240814 25.170197,98.240814 25.962891C98.240814 26.755585,98.555756 27.515732,99.116241 28.076202C99.676712 28.636688,100.436859 28.951630,101.229553 28.951630C102.022247 28.951630,102.782394 28.636688,103.342865 28.076202C103.903351 27.515732,104.218292 26.755585,104.218292 25.962891Z" style="fill: rgb(100.000000%,100.000000%,100.000000%);stroke: none;"></path>
  <path d="M100.077942 39.421890C100.077942 38.629196,99.763000 37.869049,99.202515 37.308578C98.642044 36.748093,97.881897 36.433151,97.089203 36.433151C96.296509 36.433151,95.536362 36.748093,94.975891 37.308578C94.415405 37.869049,94.100464 38.629196,94.100464 39.421890C94.100464 40.214584,94.415405 40.974731,94.975891 41.535202C95.536362 42.095688,96.296509 42.410629,97.089203 42.410629C97.881897 42.410629,98.642044 42.095688,99.202515 41.535202C99.763000 40.974731,100.077942 40.214584,100.077942 39.421890Z" style="fill: rgb(100.000000%,100.000000%,100.000000%);stroke: none;"></path>
  <path d="M73.468658 3.514984C73.468658 2.722290,73.153717 1.962143,72.593231 1.401672C72.032761 0.841187,71.272614 0.526245,70.479919 0.526245C69.687225 0.526245,68.927078 0.841187,68.366608 1.401672C67.806122 1.962143,67.491180 2.722290,67.491180 3.514984C67.491180 4.307678,67.806122 5.067825,68.366608 5.628296C68.927078 6.188782,69.687225 6.503723,70.479919 6.503723C71.272614 6.503723,72.032761 6.188782,72.593231 5.628296C73.153717 5.067825,73.468658 4.307678,73.468658 3.514984Z" style="fill: rgb(100.000000%,100.000000%,100.000000%);stroke: none;"></path>
  <path d="M98.463287 16.435333C98.463287 15.642639,98.148346 14.882492,97.587860 14.322021C97.027390 13.761536,96.267242 13.446594,95.474548 13.446594C94.681854 13.446594,93.921707 13.761536,93.361237 14.322021C92.800751 14.882492,92.485809 15.642639,92.485809 16.435333C92.485809 17.228027,92.800751 17.988174,93.361237 18.548645C93.921707 19.109131,94.681854 19.424072,95.474548 19.424072C96.267242 19.424072,97.027390 19.109131,97.587860 18.548645C98.148346 17.988174,98.463287 17.228027,98.463287 16.435333Z" style="fill: rgb(100.000000%,100.000000%,100.000000%);stroke: none;"></path>
  <path d="M25.488449 34.331848C25.488449 33.539154,25.173508 32.779007,24.613022 32.218536C24.052551 31.658051,23.292404 31.343109,22.499710 31.343109C21.707016 31.343109,20.946869 31.658051,20.386398 32.218536C19.825912 32.779007,19.510971 33.539154,19.510971 34.331848C19.510971 35.124542,19.825912 35.884689,20.386398 36.445160C20.946869 37.005646,21.707016 37.320587,22.499710 37.320587C23.292404 37.320587,24.052551 37.005646,24.613022 36.445160C25.173508 35.884689,25.488449 35.124542,25.488449 34.331848Z" style="fill: rgb(100.000000%,100.000000%,100.000000%);stroke: none;"></path>
  <path d="M54.878479 11.055435C54.878479 10.262741,54.563538 9.502594,54.003052 8.942123C53.442581 8.381638,52.682434 8.066696,51.889740 8.066696C51.097046 8.066696,50.336899 8.381638,49.776428 8.942123C49.215942 9.502594,48.901001 10.262741,48.901001 11.055435C48.901001 11.848129,49.215942 12.608276,49.776428 13.168747C50.336899 13.729233,51.097046 14.044174,51.889740 14.044174C52.682434 14.044174,53.442581 13.729233,54.003052 13.168747C54.563538 12.608276,54.878479 11.848129,54.878479 11.055435Z" style="fill: rgb(100.000000%,100.000000%,100.000000%);stroke: none;"></path>
  <path d="M22.251740 79.013474C22.251740 78.220779,21.936798 77.460632,21.376312 76.900162C20.815842 76.339676,20.055695 76.024734,19.263000 76.024734C18.470306 76.024734,17.710159 76.339676,17.149689 76.900162C16.589203 77.460632,16.274261 78.220779,16.274261 79.013474C16.274261 79.806168,16.589203 80.566315,17.149689 81.126785C17.710159 81.687271,18.470306 82.002213,19.263000 82.002213C20.055695 82.002213,20.815842 81.687271,21.376312 81.126785C21.936798 80.566315,22.251740 79.806168,22.251740 79.013474Z" style="fill: rgb(100.000000%,100.000000%,100.000000%);stroke: none;"></path>
  <path d="M13.824570 51.287949C13.824570 50.495255,13.509628 49.735107,12.949142 49.174637C12.388672 48.614151,11.628525 48.299210,10.835831 48.299210C10.043137 48.299210,9.282990 48.614151,8.722519 49.174637C8.162033 49.735107,7.847092 50.495255,7.847092 51.287949C7.847092 52.080643,8.162033 52.840790,8.722519 53.401260C9.282990 53.961746,10.043137 54.276688,10.835831 54.276688C11.628525 54.276688,12.388672 53.961746,12.949142 53.401260C13.509628 52.840790,13.824570 52.080643,13.824570 51.287949Z" style="fill: rgb(100.000000%,100.000000%,100.000000%);stroke: none;"></path>
  <path d="M45.172791 82.559509C45.172791 81.766815,44.857849 81.006668,44.297363 80.446198C43.736893 79.885712,42.976746 79.570770,42.184052 79.570770C41.391357 79.570770,40.631210 79.885712,40.070740 80.446198C39.510254 81.006668,39.195312 81.766815,39.195312 82.559509C39.195312 83.352203,39.510254 84.112350,40.070740 84.672821C40.631210 85.233307,41.391357 85.548248,42.184052 85.548248C42.976746 85.548248,43.736893 85.233307,44.297363 84.672821C44.857849 84.112350,45.172791 83.352203,45.172791 82.559509Z" style="fill: rgb(100.000000%,100.000000%,100.000000%);stroke: none;"></path>
  <path d="M31.600357 86.328812C31.600357 85.536118,31.285416 84.775970,30.724930 84.215500C30.164459 83.655014,29.404312 83.340073,28.611618 83.340073C27.818924 83.340073,27.058777 83.655014,26.498306 84.215500C25.937820 84.775970,25.622879 85.536118,25.622879 86.328812C25.622879 87.121506,25.937820 87.881653,26.498306 88.442123C27.058777 89.002609,27.818924 89.317551,28.611618 89.317551C29.404312 89.317551,30.164459 89.002609,30.724930 88.442123C31.285416 87.881653,31.600357 87.121506,31.600357 86.328812Z" style="fill: rgb(100.000000%,100.000000%,100.000000%);stroke: none;"></path>
  <path d="M53.339127 75.135788C53.339127 74.343094,53.024185 73.582947,52.463699 73.022476C51.903229 72.461990,51.143082 72.147049,50.350388 72.147049C49.557693 72.147049,48.797546 72.461990,48.237076 73.022476C47.676590 73.582947,47.361649 74.343094,47.361649 75.135788C47.361649 75.928482,47.676590 76.688629,48.237076 77.249100C48.797546 77.809586,49.557693 78.124527,50.350388 78.124527C51.143082 78.124527,51.903229 77.809586,52.463699 77.249100C53.024185 76.688629,53.339127 75.928482,53.339127 75.135788Z" style="fill: rgb(100.000000%,100.000000%,100.000000%);stroke: none;"></path>
  <path d="M48.247681 79.855850C48.247681 79.063156,47.932739 78.303009,47.372253 77.742538C46.811783 77.182053,46.051636 76.867111,45.258942 76.867111C44.466248 76.867111,43.706100 77.182053,43.145630 77.742538C42.585144 78.303009,42.270203 79.063156,42.270203 79.855850C42.270203 80.648544,42.585144 81.408691,43.145630 81.969162C43.706100 82.529648,44.466248 82.844589,45.258942 82.844589C46.051636 82.844589,46.811783 82.529648,47.372253 81.969162C47.932739 81.408691,48.247681 80.648544,48.247681 79.855850Z" style="fill: rgb(100.000000%,100.000000%,100.000000%);stroke: none;"></path>
  <path d="M60.907806 75.481094C60.907806 74.688400,60.592865 73.928253,60.032379 73.367783C59.471909 72.807297,58.711761 72.492355,57.919067 72.492355C57.126373 72.492355,56.366226 72.807297,55.805756 73.367783C55.245270 73.928253,54.930328 74.688400,54.930328 75.481094C54.930328 76.273788,55.245270 77.033936,55.805756 77.594406C56.366226 78.154892,57.126373 78.469833,57.919067 78.469833C58.711761 78.469833,59.471909 78.154892,60.032379 77.594406C60.592865 77.033936,60.907806 76.273788,60.907806 75.481094Z" style="fill: rgb(100.000000%,100.000000%,100.000000%);stroke: none;"></path>
  <path d="M55.974976 73.197876C55.974976 72.405182,55.660034 71.645035,55.099548 71.084564C54.539078 70.524078,53.778931 70.209137,52.986237 70.209137C52.193542 70.209137,51.433395 70.524078,50.872925 71.084564C50.312439 71.645035,49.997498 72.405182,49.997498 73.197876C49.997498 73.990570,50.312439 74.750717,50.872925 75.311188C51.433395 75.871674,52.193542 76.186615,52.986237 76.186615C53.778931 76.186615,54.539078 75.871674,55.099548 75.311188C55.660034 74.750717,55.974976 73.990570,55.974976 73.197876Z" style="fill: rgb(100.000000%,100.000000%,100.000000%);stroke: none;"></path>
  <path d="M61.374374 83.848251C61.374374 83.055557,61.059433 82.295410,60.498947 81.734940C59.938477 81.174454,59.178329 80.859512,58.385635 80.859512C57.592941 80.859512,56.832794 81.174454,56.272324 81.734940C55.711838 82.295410,55.396896 83.055557,55.396896 83.848251C55.396896 84.640945,55.711838 85.401093,56.272324 85.961563C56.832794 86.522049,57.592941 86.836990,58.385635 86.836990C59.178329 86.836990,59.938477 86.522049,60.498947 85.961563C61.059433 85.401093,61.374374 84.640945,61.374374 83.848251Z" style="fill: rgb(100.000000%,100.000000%,100.000000%);stroke: none;"></path>
  <path d="M61.302505 78.422989C61.302505 77.630295,60.987564 76.870148,60.427078 76.309677C59.866608 75.749191,59.106461 75.434250,58.313766 75.434250C57.521072 75.434250,56.760925 75.749191,56.200455 76.309677C55.639969 76.870148,55.325027 77.630295,55.325027 78.422989C55.325027 79.215683,55.639969 79.975830,56.200455 80.536301C56.760925 81.096786,57.521072 81.411728,58.313766 81.411728C59.106461 81.411728,59.866608 81.096786,60.427078 80.536301C60.987564 79.975830,61.302505 79.215683,61.302505 78.422989Z" style="fill: rgb(100.000000%,100.000000%,100.000000%);stroke: none;"></path>
  <path d="M66.505112 90.248245C66.505112 89.455551,66.190170 88.695404,65.629684 88.134933C65.069214 87.574448,64.309067 87.259506,63.516373 87.259506C62.723679 87.259506,61.963531 87.574448,61.403061 88.134933C60.842575 88.695404,60.527634 89.455551,60.527634 90.248245C60.527634 91.040939,60.842575 91.801086,61.403061 92.361557C61.963531 92.922043,62.723679 93.236984,63.516373 93.236984C64.309067 93.236984,65.069214 92.922043,65.629684 92.361557C66.190170 91.801086,66.505112 91.040939,66.505112 90.248245Z" style="fill: rgb(100.000000%,100.000000%,100.000000%);stroke: none;"></path>
  <path d="M61.558533 86.817581C61.558533 86.024887,61.243591 85.264740,60.683105 84.704269C60.122635 84.143784,59.362488 83.828842,58.569794 83.828842C57.777100 83.828842,57.016953 84.143784,56.456482 84.704269C55.895996 85.264740,55.581055 86.024887,55.581055 86.817581C55.581055 87.610275,55.895996 88.370422,56.456482 88.930893C57.016953 89.491379,57.777100 89.806320,58.569794 89.806320C59.362488 89.806320,60.122635 89.491379,60.683105 88.930893C61.243591 88.370422,61.558533 87.610275,61.558533 86.817581Z" style="fill: rgb(100.000000%,100.000000%,100.000000%);stroke: none;"></path>
  <path d="M78.620819 84.144867C78.620819 83.352173,78.305878 82.592026,77.745392 82.031555C77.184921 81.471069,76.424774 81.156128,75.632080 81.156128C74.839386 81.156128,74.079239 81.471069,73.518768 82.031555C72.958282 82.592026,72.643341 83.352173,72.643341 84.144867C72.643341 84.937561,72.958282 85.697708,73.518768 86.258179C74.079239 86.818665,74.839386 87.133606,75.632080 87.133606C76.424774 87.133606,77.184921 86.818665,77.745392 86.258179C78.305878 85.697708,78.620819 84.937561,78.620819 84.144867Z" style="fill: rgb(100.000000%,100.000000%,100.000000%);stroke: none;"></path>
  <path d="M69.932083 88.535492C69.932083 87.742798,69.617142 86.982651,69.056656 86.422180C68.496185 85.861694,67.736038 85.546753,66.943344 85.546753C66.150650 85.546753,65.390503 85.861694,64.830032 86.422180C64.269547 86.982651,63.954605 87.742798,63.954605 88.535492C63.954605 89.328186,64.269547 90.088333,64.830032 90.648804C65.390503 91.209290,66.150650 91.524231,66.943344 91.524231C67.736038 91.524231,68.496185 91.209290,69.056656 90.648804C69.617142 90.088333,69.932083 89.328186,69.932083 88.535492Z" style="fill: rgb(100.000000%,100.000000%,100.000000%);stroke: none;"></path>
  <path d="M94.273148 73.620377C94.273148 72.827682,93.958206 72.067535,93.397720 71.507065C92.837250 70.946579,92.077103 70.631638,91.284409 70.631638C90.491714 70.631638,89.731567 70.946579,89.171097 71.507065C88.610611 72.067535,88.295670 72.827682,88.295670 73.620377C88.295670 74.413071,88.610611 75.173218,89.171097 75.733688C89.731567 76.294174,90.491714 76.609116,91.284409 76.609116C92.077103 76.609116,92.837250 76.294174,93.397720 75.733688C93.958206 75.173218,94.273148 74.413071,94.273148 73.620377Z" style="fill: rgb(100.000000%,100.000000%,100.000000%);stroke: none;"></path>
  <path d="M84.970963 82.484787C84.970963 81.692093,84.656021 80.931946,84.095535 80.371475C83.535065 79.810989,82.774918 79.496048,81.982224 79.496048C81.189529 79.496048,80.429382 79.810989,79.868912 80.371475C79.308426 80.931946,78.993484 81.692093,78.993484 82.484787C78.993484 83.277481,79.308426 84.037628,79.868912 84.598099C80.429382 85.158585,81.189529 85.473526,81.982224 85.473526C82.774918 85.473526,83.535065 85.158585,84.095535 84.598099C84.656021 84.037628,84.970963 83.277481,84.970963 82.484787Z" style="fill: rgb(100.000000%,100.000000%,100.000000%);stroke: none;"></path>
  <path d="M101.506104 58.204468C101.506104 57.411774,101.191162 56.651627,100.630676 56.091156C100.070206 55.530670,99.310059 55.215729,98.517365 55.215729C97.724670 55.215729,96.964523 55.530670,96.404053 56.091156C95.843567 56.651627,95.528625 57.411774,95.528625 58.204468C95.528625 58.997162,95.843567 59.757309,96.404053 60.317780C96.964523 60.878265,97.724670 61.193207,98.517365 61.193207C99.310059 61.193207,100.070206 60.878265,100.630676 60.317780C101.191162 59.757309,101.506104 58.997162,101.506104 58.204468Z" style="fill: rgb(100.000000%,100.000000%,100.000000%);stroke: none;"></path>
  <path d="M96.212204 67.134827C96.212204 66.342133,95.897263 65.581985,95.336777 65.021515C94.776306 64.461029,94.016159 64.146088,93.223465 64.146088C92.430771 64.146088,91.670624 64.461029,91.110153 65.021515C90.549667 65.581985,90.234726 66.342133,90.234726 67.134827C90.234726 67.927521,90.549667 68.687668,91.110153 69.248138C91.670624 69.808624,92.430771 70.123566,93.223465 70.123566C94.016159 70.123566,94.776306 69.808624,95.336777 69.248138C95.897263 68.687668,96.212204 67.927521,96.212204 67.134827Z" style="fill: rgb(100.000000%,100.000000%,100.000000%);stroke: none;"></path>
  <path d="M101.237305 47.766556C101.237305 46.973862,100.922363 46.213715,100.361877 45.653244C99.801407 45.092758,99.041260 44.777817,98.248566 44.777817C97.455872 44.777817,96.695724 45.092758,96.135254 45.653244C95.574768 46.213715,95.259827 46.973862,95.259827 47.766556C95.259827 48.559250,95.574768 49.319397,96.135254 49.879868C96.695724 50.440353,97.455872 50.755295,98.248566 50.755295C99.041260 50.755295,99.801407 50.440353,100.361877 49.879868C100.922363 49.319397,101.237305 48.559250,101.237305 47.766556Z" style="fill: rgb(100.000000%,100.000000%,100.000000%);stroke: none;"></path>
  <path d="M103.953674 54.632050C103.953674 53.839355,103.638733 53.079208,103.078247 52.518738C102.517776 51.958252,101.757629 51.643311,100.964935 51.643311C100.172241 51.643311,99.412094 51.958252,98.851624 52.518738C98.291138 53.079208,97.976196 53.839355,97.976196 54.632050C97.976196 55.424744,98.291138 56.184891,98.851624 56.745361C99.412094 57.305847,100.172241 57.620789,100.964935 57.620789C101.757629 57.620789,102.517776 57.305847,103.078247 56.745361C103.638733 56.184891,103.953674 55.424744,103.953674 54.632050Z" style="fill: rgb(100.000000%,100.000000%,100.000000%);stroke: none;"></path>
  <path d="M89.302567 44.388138C89.302567 43.595444,88.987625 42.835297,88.427139 42.274826C87.866669 41.714340,87.106522 41.399399,86.313828 41.399399C85.521133 41.399399,84.760986 41.714340,84.200516 42.274826C83.640030 42.835297,83.325089 43.595444,83.325089 44.388138C83.325089 45.180832,83.640030 45.940979,84.200516 46.501450C84.760986 47.061935,85.521133 47.376877,86.313828 47.376877C87.106522 47.376877,87.866669 47.061935,88.427139 46.501450C88.987625 45.940979,89.302567 45.180832,89.302567 44.388138Z" style="fill: rgb(100.000000%,100.000000%,100.000000%);stroke: none;"></path>
  <path d="M97.510147 46.643784C97.510147 45.851089,97.195206 45.090942,96.634720 44.530472C96.074249 43.969986,95.314102 43.655045,94.521408 43.655045C93.728714 43.655045,92.968567 43.969986,92.408096 44.530472C91.847610 45.090942,91.532669 45.851089,91.532669 46.643784C91.532669 47.436478,91.847610 48.196625,92.408096 48.757095C92.968567 49.317581,93.728714 49.632523,94.521408 49.632523C95.314102 49.632523,96.074249 49.317581,96.634720 48.757095C97.195206 48.196625,97.510147 47.436478,97.510147 46.643784Z" style="fill: rgb(100.000000%,100.000000%,100.000000%);stroke: none;"></path>
  <path d="M74.991959 30.171249C74.991959 29.378555,74.677017 28.618408,74.116531 28.057938C73.556061 27.497452,72.795914 27.182510,72.003220 27.182510C71.210526 27.182510,70.450378 27.497452,69.889908 28.057938C69.329422 28.618408,69.014481 29.378555,69.014481 30.171249C69.014481 30.963943,69.329422 31.724091,69.889908 32.284561C70.450378 32.845047,71.210526 33.159988,72.003220 33.159988C72.795914 33.159988,73.556061 32.845047,74.116531 32.284561C74.677017 31.724091,74.991959 30.963943,74.991959 30.171249Z" style="fill: rgb(100.000000%,100.000000%,100.000000%);stroke: none;"></path>
  <path d="M84.445526 42.656784C84.445526 41.864090,84.130585 41.103943,83.570099 40.543472C83.009628 39.982986,82.249481 39.668045,81.456787 39.668045C80.664093 39.668045,79.903946 39.982986,79.343475 40.543472C78.782990 41.103943,78.468048 41.864090,78.468048 42.656784C78.468048 43.449478,78.782990 44.209625,79.343475 44.770096C79.903946 45.330582,80.664093 45.645523,81.456787 45.645523C82.249481 45.645523,83.009628 45.330582,83.570099 44.770096C84.130585 44.209625,84.445526 43.449478,84.445526 42.656784Z" style="fill: rgb(100.000000%,100.000000%,100.000000%);stroke: none;"></path>
  <path d="M104.712601 2.102325C104.712601 1.309631,104.397659 0.549484,103.837173 -0.010986C103.276703 -0.571472,102.516556 -0.886414,101.723862 -0.886414C100.931168 -0.886414,100.171021 -0.571472,99.610550 -0.010986C99.050064 0.549484,98.735123 1.309631,98.735123 2.102325C98.735123 2.895020,99.050064 3.655167,99.610550 4.215637C100.171021 4.776123,100.931168 5.091064,101.723862 5.091064C102.516556 5.091064,103.276703 4.776123,103.837173 4.215637C104.397659 3.655167,104.712601 2.895020,104.712601 2.102325Z" style="fill: rgb(100.000000%,100.000000%,100.000000%);stroke: none;"></path>
  <path d="M79.650848 18.051071C79.650848 17.258377,79.335907 16.498230,78.775421 15.937759C78.214951 15.377274,77.454803 15.062332,76.662109 15.062332C75.869415 15.062332,75.109268 15.377274,74.548798 15.937759C73.988312 16.498230,73.673370 17.258377,73.673370 18.051071C73.673370 18.843765,73.988312 19.603912,74.548798 20.164383C75.109268 20.724869,75.869415 21.039810,76.662109 21.039810C77.454803 21.039810,78.214951 20.724869,78.775421 20.164383C79.335907 19.603912,79.650848 18.843765,79.650848 18.051071Z" style="fill: rgb(100.000000%,100.000000%,100.000000%);stroke: none;"></path>
  <path d="M158.232361 28.125092C158.232361 27.332397,157.917419 26.572250,157.356934 26.011780C156.796463 25.451294,156.036316 25.136353,155.243622 25.136353C154.450928 25.136353,153.690781 25.451294,153.130310 26.011780C152.569824 26.572250,152.254883 27.332397,152.254883 28.125092C152.254883 28.917786,152.569824 29.677933,153.130310 30.238403C153.690781 30.798889,154.450928 31.113831,155.243622 31.113831C156.036316 31.113831,156.796463 30.798889,157.356934 30.238403C157.917419 29.677933,158.232361 28.917786,158.232361 28.125092Z" style="fill: rgb(100.000000%,100.000000%,100.000000%);stroke: none;"></path>
  <path d="M123.978729 7.161880C123.978729 6.369186,123.663788 5.609039,123.103302 5.048569C122.542831 4.488083,121.782684 4.173141,120.989990 4.173141C120.197296 4.173141,119.437149 4.488083,118.876678 5.048569C118.316193 5.609039,118.001251 6.369186,118.001251 7.161880C118.001251 7.954575,118.316193 8.714722,118.876678 9.275192C119.437149 9.835678,120.197296 10.150620,120.989990 10.150620C121.782684 10.150620,122.542831 9.835678,123.103302 9.275192C123.663788 8.714722,123.978729 7.954575,123.978729 7.161880Z" style="fill: rgb(100.000000%,100.000000%,100.000000%);stroke: none;"></path>
  <path d="M163.328094 81.321854C163.328094 80.529160,163.013153 79.769012,162.452667 79.208542C161.892197 78.648056,161.132050 78.333115,160.339355 78.333115C159.546661 78.333115,158.786514 78.648056,158.226044 79.208542C157.665558 79.769012,157.350616 80.529160,157.350616 81.321854C157.350616 82.114548,157.665558 82.874695,158.226044 83.435165C158.786514 83.995651,159.546661 84.310593,160.339355 84.310593C161.132050 84.310593,161.892197 83.995651,162.452667 83.435165C163.013153 82.874695,163.328094 82.114548,163.328094 81.321854Z" style="fill: rgb(100.000000%,100.000000%,100.000000%);stroke: none;"></path>
  <path d="M172.774704 46.766098C172.774704 45.973404,172.459763 45.213257,171.899277 44.652786C171.338806 44.092300,170.578659 43.777359,169.785965 43.777359C168.993271 43.777359,168.233124 44.092300,167.672653 44.652786C167.112167 45.213257,166.797226 45.973404,166.797226 46.766098C166.797226 47.558792,167.112167 48.318939,167.672653 48.879410C168.233124 49.439896,168.993271 49.754837,169.785965 49.754837C170.578659 49.754837,171.338806 49.439896,171.899277 48.879410C172.459763 48.318939,172.774704 47.558792,172.774704 46.766098Z" style="fill: rgb(100.000000%,100.000000%,100.000000%);stroke: none;"></path>
  <path d="M140.050690 111.859589C140.050690 111.066895,139.735748 110.306747,139.175262 109.746277C138.614792 109.185791,137.854645 108.870850,137.061951 108.870850C136.269257 108.870850,135.509109 109.185791,134.948639 109.746277C134.388153 110.306747,134.073212 111.066895,134.073212 111.859589C134.073212 112.652283,134.388153 113.412430,134.948639 113.972900C135.509109 114.533386,136.269257 114.848328,137.061951 114.848328C137.854645 114.848328,138.614792 114.533386,139.175262 113.972900C139.735748 113.412430,140.050690 112.652283,140.050690 111.859589Z" style="fill: rgb(100.000000%,100.000000%,100.000000%);stroke: none;"></path>
  <path d="M148.909470 90.200302C148.909470 89.407608,148.594528 88.647461,148.034042 88.086990C147.473572 87.526505,146.713425 87.211563,145.920731 87.211563C145.128036 87.211563,144.367889 87.526505,143.807419 88.086990C143.246933 88.647461,142.931992 89.407608,142.931992 90.200302C142.931992 90.992996,143.246933 91.753143,143.807419 92.313614C144.367889 92.874100,145.128036 93.189041,145.920731 93.189041C146.713425 93.189041,147.473572 92.874100,148.034042 92.313614C148.594528 91.753143,148.909470 90.992996,148.909470 90.200302Z" style="fill: rgb(100.000000%,100.000000%,100.000000%);stroke: none;"></path>
  <path d="M138.081207 132.453827C138.081207 131.661133,137.766266 130.900986,137.205780 130.340515C136.645309 129.780029,135.885162 129.465088,135.092468 129.465088C134.299774 129.465088,133.539627 129.780029,132.979156 130.340515C132.418671 130.900986,132.103729 131.661133,132.103729 132.453827C132.103729 133.246521,132.418671 134.006668,132.979156 134.567139C133.539627 135.127625,134.299774 135.442566,135.092468 135.442566C135.885162 135.442566,136.645309 135.127625,137.205780 134.567139C137.766266 134.006668,138.081207 133.246521,138.081207 132.453827Z" style="fill: rgb(100.000000%,100.000000%,100.000000%);stroke: none;"></path>
  <path d="M139.960266 120.431412C139.960266 119.638718,139.645325 118.878571,139.084839 118.318100C138.524368 117.757614,137.764221 117.442673,136.971527 117.442673C136.178833 117.442673,135.418686 117.757614,134.858215 118.318100C134.297729 118.878571,133.982788 119.638718,133.982788 120.431412C133.982788 121.224106,134.297729 121.984253,134.858215 122.544724C135.418686 123.105209,136.178833 123.420151,136.971527 123.420151C137.764221 123.420151,138.524368 123.105209,139.084839 122.544724C139.645325 121.984253,139.960266 121.224106,139.960266 120.431412Z" style="fill: rgb(100.000000%,100.000000%,100.000000%);stroke: none;"></path>
  <path d="M143.008484 140.776535C143.008484 139.983841,142.693542 139.223694,142.133057 138.663223C141.572586 138.102737,140.812439 137.787796,140.019745 137.787796C139.227051 137.787796,138.466904 138.102737,137.906433 138.663223C137.345947 139.223694,137.031006 139.983841,137.031006 140.776535C137.031006 141.569229,137.345947 142.329376,137.906433 142.889847C138.466904 143.450333,139.227051 143.765274,140.019745 143.765274C140.812439 143.765274,141.572586 143.450333,142.133057 142.889847C142.693542 142.329376,143.008484 141.569229,143.008484 140.776535Z" style="fill: rgb(100.000000%,100.000000%,100.000000%);stroke: none;"></path>
  <path d="M137.609146 136.617645C137.609146 135.824951,137.294205 135.064804,136.733719 134.504333C136.173248 133.943848,135.413101 133.628906,134.620407 133.628906C133.827713 133.628906,133.067566 133.943848,132.507095 134.504333C131.946609 135.064804,131.631668 135.824951,131.631668 136.617645C131.631668 137.410339,131.946609 138.170486,132.507095 138.730957C133.067566 139.291443,133.827713 139.606384,134.620407 139.606384C135.413101 139.606384,136.173248 139.291443,136.733719 138.730957C137.294205 138.170486,137.609146 137.410339,137.609146 136.617645Z" style="fill: rgb(100.000000%,100.000000%,100.000000%);stroke: none;"></path>
  <path d="M153.080078 138.047165C153.080078 137.254471,152.765137 136.494324,152.204651 135.933853C151.644180 135.373367,150.884033 135.058426,150.091339 135.058426C149.298645 135.058426,148.538498 135.373367,147.978027 135.933853C147.417542 136.494324,147.102600 137.254471,147.102600 138.047165C147.102600 138.839859,147.417542 139.600006,147.978027 140.160477C148.538498 140.720963,149.298645 141.035904,150.091339 141.035904C150.884033 141.035904,151.644180 140.720963,152.204651 140.160477C152.765137 139.600006,153.080078 138.839859,153.080078 138.047165Z" style="fill: rgb(100.000000%,100.000000%,100.000000%);stroke: none;"></path>
  <path d="M146.370789 139.902267C146.370789 139.109573,146.055847 138.349426,145.495361 137.788956C144.934891 137.228470,144.174744 136.913528,143.382050 136.913528C142.589355 136.913528,141.829208 137.228470,141.268738 137.788956C140.708252 138.349426,140.393311 139.109573,140.393311 139.902267C140.393311 140.694962,140.708252 141.455109,141.268738 142.015579C141.829208 142.576065,142.589355 142.891006,143.382050 142.891006C144.174744 142.891006,144.934891 142.576065,145.495361 142.015579C146.055847 141.455109,146.370789 140.694962,146.370789 139.902267Z" style="fill: rgb(100.000000%,100.000000%,100.000000%);stroke: none;"></path>
  <path d="M169.726410 140.414978C169.726410 139.622284,169.411469 138.862137,168.850983 138.301666C168.290512 137.741180,167.530365 137.426239,166.737671 137.426239C165.944977 137.426239,165.184830 137.741180,164.624359 138.301666C164.063873 138.862137,163.748932 139.622284,163.748932 140.414978C163.748932 141.207672,164.063873 141.967819,164.624359 142.528290C165.184830 143.088776,165.944977 143.403717,166.737671 143.403717C167.530365 143.403717,168.290512 143.088776,168.850983 142.528290C169.411469 141.967819,169.726410 141.207672,169.726410 140.414978Z" style="fill: rgb(100.000000%,100.000000%,100.000000%);stroke: none;"></path>
  <path d="M156.883698 137.279999C156.883698 136.487305,156.568756 135.727158,156.008270 135.166687C155.447800 134.606201,154.687653 134.291260,153.894958 134.291260C153.102264 134.291260,152.342117 134.606201,151.781647 135.166687C151.221161 135.727158,150.906219 136.487305,150.906219 137.279999C150.906219 138.072693,151.221161 138.832840,151.781647 139.393311C152.342117 139.953796,153.102264 140.268738,153.894958 140.268738C154.687653 140.268738,155.447800 139.953796,156.008270 139.393311C156.568756 138.832840,156.883698 138.072693,156.883698 137.279999Z" style="fill: rgb(100.000000%,100.000000%,100.000000%);stroke: none;"></path>
  <path d="M167.752258 178.548813C167.752258 177.756119,167.437317 176.995972,166.876831 176.435501C166.316360 175.875015,165.556213 175.560074,164.763519 175.560074C163.970825 175.560074,163.210678 175.875015,162.650208 176.435501C162.089722 176.995972,161.774780 177.756119,161.774780 178.548813C161.774780 179.341507,162.089722 180.101654,162.650208 180.662125C163.210678 181.222610,163.970825 181.537552,164.763519 181.537552C165.556213 181.537552,166.316360 181.222610,166.876831 180.662125C167.437317 180.101654,167.752258 179.341507,167.752258 178.548813Z" style="fill: rgb(100.000000%,100.000000%,100.000000%);stroke: none;"></path>
  <path d="M174.288940 150.480896C174.288940 149.688202,173.973999 148.928055,173.413513 148.367584C172.853043 147.807098,172.092896 147.492157,171.300201 147.492157C170.507507 147.492157,169.747360 147.807098,169.186890 148.367584C168.626404 148.928055,168.311462 149.688202,168.311462 150.480896C168.311462 151.273590,168.626404 152.033737,169.186890 152.594208C169.747360 153.154694,170.507507 153.469635,171.300201 153.469635C172.092896 153.469635,172.853043 153.154694,173.413513 152.594208C173.973999 152.033737,174.288940 151.273590,174.288940 150.480896Z" style="fill: rgb(100.000000%,100.000000%,100.000000%);stroke: none;"></path>
  <path d="M125.401260 190.320953C101.533981 199.479660,75.150421 185.040009,70.000000 160.000000C66.730698 144.105560,74.062012 128.234161,73.481888 112.104263C73.177536 103.642273,70.688202 95.426453,70.000000 86.990891C69.703110 83.351654,69.133911 79.307510,65.809784 78.232880C63.111420 77.360535,60.569412 79.265747,58.349503 81.120407C56.471237 82.689636,54.267899 84.193604,51.985870 83.449829C49.492966 82.637329,48.688446 79.788605,48.184402 77.143784C47.374924 72.896210,46.445679 68.508942,43.500641 65.331497C36.376801 57.645493,23.900024 60.316284,16.161652 68.809982C2.463516 83.845184,5.455963 106.407928,14.691986 125.260300C25.842743 148.020996,46.857544 166.119751,70.000000 160.000000C85.782822 155.826416,95.476791 140.326172,110.432465 134.063324C118.409454 130.722870,127.195267 130.323196,135.675949 128.720657C139.352356 128.025940,143.452469 127.427734,145.801392 130.216415C147.810425 132.601578,147.122955 135.976151,146.443771 139.055710C145.617859 142.800598,145.036301 146.698013,146.211258 150.354538C149.088028 159.307144,159.543167 162.891968,169.062347 160.090057C186.523804 154.950378,193.390320 135.289291,193.219330 116.203812C193.024872 94.497711,184.320343 72.505249,164.317032 66.771469C149.971817 62.659531,135.085693 69.910095,120.381577 68.062210C112.175949 67.031006,104.624283 63.210831,96.530045 61.556915C92.203751 60.672913,87.334045 59.709122,86.173065 55.588196C85.105011 51.797089,88.177887 48.521530,91.083160 45.698868C94.163162 42.706436,97.089203 39.421890,98.353760 35.311203C101.229553 25.962891,95.474548 16.435333,86.495056 11.793610C70.479919 3.514984,51.889740 11.055435,37.356598 22.565430C22.499710 34.331848,10.835831 51.287949,16.161652 68.809982C19.263000 79.013474,28.611618 86.328812,38.332520 83.629150C42.184052 82.559509,45.258942 79.855850,48.184402 77.143784C50.350388 75.135788,52.986237 73.197876,55.552231 74.385574C57.919067 75.481094,58.313766 78.422989,58.349503 81.120407C58.385635 83.848251,58.569794 86.817581,60.780136 88.350555C63.516373 90.248245,66.943344 88.535492,70.000000 86.990891C75.632080 84.144867,81.982224 82.484787,86.569565 78.113327C91.284409 73.620377,93.223465 67.134827,96.530045 61.556915C98.517365 58.204468,100.964935 54.632050,99.544876 51.042923C98.248566 47.766556,94.521408 46.643784,91.083160 45.698868C86.313828 44.388138,81.456787 42.656784,78.470093 38.712189C72.003220 30.171249,76.662109 18.051071,86.495056 11.793610C101.723862 2.102325,120.989990 7.161880,136.747910 16.805725C155.243622 28.125092,169.785965 46.766098,164.317032 66.771469C160.339355 81.321854,145.920731 90.200302,140.245529 104.075912C137.061951 111.859589,136.971527 120.431412,135.675949 128.720657C135.092468 132.453827,134.620407 136.617645,137.532944 138.861053C140.019745 140.776535,143.382050 139.902267,146.443771 139.055710C150.091339 138.047165,153.894958 137.279999,157.577026 138.178818C166.737671 140.414978,171.300201 150.480896,169.062347 160.090057C164.763519 178.548813,143.317337 183.445938,125.401260 190.320953" style="stroke:rgb(0.000000%,0.000000%,0.000000%); stroke-width: 0.498138;stroke-linecap: round;stroke-linejoin: round;stroke-miterlimit: 10.000000;fill: none;"></path>
  <path d="M125.401260 190.320953C101.533981 199.479660,75.150421 185.040009,70.000000 160.000000" style="stroke:rgb(0.000000%,0.000000%,0.000000%); stroke-width: 1.494400;stroke-linecap: round;stroke-linejoin: round;stroke-miterlimit: 10.000000;fill: none;"></path>
  <path d="M146.443771 139.055710C150.091339 138.047165,153.894958 137.279999,157.577026 138.178818C166.737671 140.414978,171.300201 150.480896,169.062347 160.090057C164.763519 178.548813,143.317337 183.445938,125.401260 190.320953" style="stroke:rgb(0.000000%,0.000000%,0.000000%); stroke-width: 1.494400;stroke-linecap: round;stroke-linejoin: round;stroke-miterlimit: 10.000000;fill: none;"></path>
  <path d="M72.988739 160.000000C72.988739 159.207306,72.673798 158.447159,72.113312 157.886688C71.552841 157.326202,70.792694 157.011261,70.000000 157.011261C69.207306 157.011261,68.447159 157.326202,67.886688 157.886688C67.326202 158.447159,67.011261 159.207306,67.011261 160.000000C67.011261 160.792694,67.326202 161.552841,67.886688 162.113312C68.447159 162.673798,69.207306 162.988739,70.000000 162.988739C70.792694 162.988739,71.552841 162.673798,72.113312 162.113312C72.673798 161.552841,72.988739 160.792694,72.988739 160.000000Z" style="fill: rgb(100.000000%,100.000000%,100.000000%);stroke: none;"></path>
  <path d="M37.849121 153.460327C47.389465 160.065125,58.428772 163.059875,70.000000 160.000000C77.891418 157.913208,84.260620 152.994751,90.526428 147.815125" style="stroke:rgb(0.000000%,0.000000%,0.000000%); stroke-width: 0.498138;stroke-linecap: round;stroke-linejoin: round;stroke-miterlimit: 10.000000;fill: none;"></path>
  <path d="M61.338242 81.120407C61.338242 80.327713,61.023300 79.567566,60.462814 79.007095C59.902344 78.446609,59.142197 78.131668,58.349503 78.131668C57.556808 78.131668,56.796661 78.446609,56.236191 79.007095C55.675705 79.567566,55.360764 80.327713,55.360764 81.120407C55.360764 81.913101,55.675705 82.673248,56.236191 83.233719C56.796661 83.794205,57.556808 84.109146,58.349503 84.109146C59.142197 84.109146,59.902344 83.794205,60.462814 83.233719C61.023300 82.673248,61.338242 81.913101,61.338242 81.120407Z" style="fill: rgb(100.000000%,100.000000%,100.000000%);stroke: none;"></path>
  <path d="M57.825043 77.152283C58.224030 78.361877,58.331635 79.771698,58.349503 81.120407C58.367569 82.484329,58.422653 83.908630,58.749512 85.183563" style="stroke:rgb(0.000000%,0.000000%,0.000000%); stroke-width: 0.498138;stroke-linecap: round;stroke-linejoin: round;stroke-miterlimit: 10.000000;fill: none;"></path>
  <path d="M19.150391 68.809982C19.150391 68.017288,18.835449 67.257141,18.274963 66.696671C17.714493 66.136185,16.954346 65.821243,16.161652 65.821243C15.368958 65.821243,14.608810 66.136185,14.048340 66.696671C13.487854 67.257141,13.172913 68.017288,13.172913 68.809982C13.172913 69.602676,13.487854 70.362823,14.048340 70.923294C14.608810 71.483780,15.368958 71.798721,16.161652 71.798721C16.954346 71.798721,17.714493 71.483780,18.274963 70.923294C18.835449 70.362823,19.150391 69.602676,19.150391 68.809982Z" style="fill: rgb(100.000000%,100.000000%,100.000000%);stroke: none;"></path>
  <path d="M19.190598 43.529358C15.083252 51.429443,13.498749 60.048965,16.161652 68.809982C17.712326 73.911728,20.824829 78.291443,24.764771 81.058258" style="stroke:rgb(0.000000%,0.000000%,0.000000%); stroke-width: 0.498138;stroke-linecap: round;stroke-linejoin: round;stroke-miterlimit: 10.000000;fill: none;"></path>
  <path d="M138.664688 128.720657C138.664688 127.927963,138.349747 127.167816,137.789261 126.607346C137.228790 126.046860,136.468643 125.731918,135.675949 125.731918C134.883255 125.731918,134.123108 126.046860,133.562637 126.607346C133.002151 127.167816,132.687210 127.927963,132.687210 128.720657C132.687210 129.513351,133.002151 130.273499,133.562637 130.833969C134.123108 131.394455,134.883255 131.709396,135.675949 131.709396C136.468643 131.709396,137.228790 131.394455,137.789261 130.833969C138.349747 130.273499,138.664688 129.513351,138.664688 128.720657Z" style="fill: rgb(100.000000%,100.000000%,100.000000%);stroke: none;"></path>
  <path d="M137.252731 116.208710C136.670227 120.360779,136.323730 124.576035,135.675949 128.720657C135.384201 130.587250,135.120316 132.561493,135.293442 134.349518" style="stroke:rgb(0.000000%,0.000000%,0.000000%); stroke-width: 0.498138;stroke-linecap: round;stroke-linejoin: round;stroke-miterlimit: 10.000000;fill: none;"></path>
  <path d="M172.051086 160.090057C172.051086 159.297363,171.736145 158.537216,171.175659 157.976746C170.615189 157.416260,169.855042 157.101318,169.062347 157.101318C168.269653 157.101318,167.509506 157.416260,166.949036 157.976746C166.388550 158.537216,166.073608 159.297363,166.073608 160.090057C166.073608 160.882751,166.388550 161.642899,166.949036 162.203369C167.509506 162.763855,168.269653 163.078796,169.062347 163.078796C169.855042 163.078796,170.615189 162.763855,171.175659 162.203369C171.736145 161.642899,172.051086 160.882751,172.051086 160.090057Z" style="fill: rgb(100.000000%,100.000000%,100.000000%);stroke: none;"></path>
  <path d="M167.594131 146.369568C169.600113 150.366714,170.181274 155.285477,169.062347 160.090057C166.912933 169.319443,160.476669 175.158417,152.338257 179.549423" style="stroke:rgb(0.000000%,0.000000%,0.000000%); stroke-width: 1.494400;stroke-linecap: round;stroke-linejoin: round;stroke-miterlimit: 10.000000;fill: none;"></path>
  <path d="M99.518784 61.556915C99.518784 60.764221,99.203842 60.004074,98.643356 59.443604C98.082886 58.883118,97.322739 58.568176,96.530045 58.568176C95.737350 58.568176,94.977203 58.883118,94.416733 59.443604C93.856247 60.004074,93.541306 60.764221,93.541306 61.556915C93.541306 62.349609,93.856247 63.109756,94.416733 63.670227C94.977203 64.230713,95.737350 64.545654,96.530045 64.545654C97.322739 64.545654,98.082886 64.230713,98.643356 63.670227C99.203842 63.109756,99.518784 62.349609,99.518784 61.556915Z" style="fill: rgb(100.000000%,100.000000%,100.000000%);stroke: none;"></path>
  <path d="M92.077911 70.241974C93.565353 67.361725,94.876755 64.345871,96.530045 61.556915C97.523712 59.880692,98.632431 58.149475,99.315231 56.388672" style="stroke:rgb(0.000000%,0.000000%,0.000000%); stroke-width: 0.498138;stroke-linecap: round;stroke-linejoin: round;stroke-miterlimit: 10.000000;fill: none;"></path>
  <path d="M89.483795 11.793610C89.483795 11.000916,89.168854 10.240768,88.608368 9.680298C88.047897 9.119812,87.287750 8.804871,86.495056 8.804871C85.702362 8.804871,84.942215 9.119812,84.381744 9.680298C83.821259 10.240768,83.506317 11.000916,83.506317 11.793610C83.506317 12.586304,83.821259 13.346451,84.381744 13.906921C84.942215 14.467407,85.702362 14.782349,86.495056 14.782349C87.287750 14.782349,88.047897 14.467407,88.608368 13.906921C89.168854 13.346451,89.483795 12.586304,89.483795 11.793610Z" style="fill: rgb(100.000000%,100.000000%,100.000000%);stroke: none;"></path>
  <path d="M76.370148 24.396576C77.955627 19.516739,81.578583 14.922333,86.495056 11.793610C94.109467 6.947968,102.733200 5.790039,111.423080 7.049011" style="stroke:rgb(0.000000%,0.000000%,0.000000%); stroke-width: 0.498138;stroke-linecap: round;stroke-linejoin: round;stroke-miterlimit: 10.000000;fill: none;"></path>
  <path d="M51.173141 77.143784C51.173141 76.351089,50.858200 75.590942,50.297714 75.030472C49.737244 74.469986,48.977097 74.155045,48.184402 74.155045C47.391708 74.155045,46.631561 74.469986,46.071091 75.030472C45.510605 75.590942,45.195663 76.351089,45.195663 77.143784C45.195663 77.936478,45.510605 78.696625,46.071091 79.257095C46.631561 79.817581,47.391708 80.132523,48.184402 80.132523C48.977097 80.132523,49.737244 79.817581,50.297714 79.257095C50.858200 78.696625,51.173141 77.936478,51.173141 77.143784Z" style="fill: rgb(100.000000%,100.000000%,100.000000%);stroke: none;"></path>
  <path d="M49.339294 80.983917C48.763550 79.839569,48.436417 78.466187,48.184402 77.143784C47.779663 75.019989,47.344971 72.861282,46.643341 70.836334" style="stroke:rgb(0.000000%,0.000000%,0.000000%); stroke-width: 0.498138;stroke-linecap: round;stroke-linejoin: round;stroke-miterlimit: 10.000000;fill: none;"></path>
  <path d="M72.988739 86.990891C72.988739 86.198196,72.673798 85.438049,72.113312 84.877579C71.552841 84.317093,70.792694 84.002151,70.000000 84.002151C69.207306 84.002151,68.447159 84.317093,67.886688 84.877579C67.326202 85.438049,67.011261 86.198196,67.011261 86.990891C67.011261 87.783585,67.326202 88.543732,67.886688 89.104202C68.447159 89.664688,69.207306 89.979630,70.000000 89.979630C70.792694 89.979630,71.552841 89.664688,72.113312 89.104202C72.673798 88.543732,72.988739 87.783585,72.988739 86.990891Z" style="fill: rgb(100.000000%,100.000000%,100.000000%);stroke: none;"></path>
  <path d="M71.884872 99.537659C71.138474 95.371506,70.344101 91.208664,70.000000 86.990891C69.851547 85.171265,69.635025 83.250412,69.040100 81.650146" style="stroke:rgb(0.000000%,0.000000%,0.000000%); stroke-width: 0.498138;stroke-linecap: round;stroke-linejoin: round;stroke-miterlimit: 10.000000;fill: none;"></path>
  <path d="M94.071899 45.698868C94.071899 44.906174,93.756958 44.146027,93.196472 43.585556C92.636002 43.025070,91.875854 42.710129,91.083160 42.710129C90.290466 42.710129,89.530319 43.025070,88.969849 43.585556C88.409363 44.146027,88.094421 44.906174,88.094421 45.698868C88.094421 46.491562,88.409363 47.251709,88.969849 47.812180C89.530319 48.372665,90.290466 48.687607,91.083160 48.687607C91.875854 48.687607,92.636002 48.372665,93.196472 47.812180C93.756958 47.251709,94.071899 46.491562,94.071899 45.698868Z" style="fill: rgb(100.000000%,100.000000%,100.000000%);stroke: none;"></path>
  <path d="M87.138123 50.280350C88.135986 48.634750,89.630524 47.110199,91.083160 45.698868C92.623169 44.202652,94.124680 42.633408,95.399261 40.924377" style="stroke:rgb(0.000000%,0.000000%,0.000000%); stroke-width: 0.498138;stroke-linecap: round;stroke-linejoin: round;stroke-miterlimit: 10.000000;fill: none;"></path>
  <path d="M167.305771 66.771469C167.305771 65.978775,166.990829 65.218628,166.430344 64.658157C165.869873 64.097672,165.109726 63.782730,164.317032 63.782730C163.524338 63.782730,162.764191 64.097672,162.203720 64.658157C161.643234 65.218628,161.328293 65.978775,161.328293 66.771469C161.328293 67.564163,161.643234 68.324310,162.203720 68.884781C162.764191 69.445267,163.524338 69.760208,164.317032 69.760208C165.109726 69.760208,165.869873 69.445267,166.430344 68.884781C166.990829 68.324310,167.305771 67.564163,167.305771 66.771469Z" style="fill: rgb(100.000000%,100.000000%,100.000000%);stroke: none;"></path>
  <path d="M186.196487 85.498016C181.495636 76.569916,174.318680 69.638351,164.317032 66.771469C157.144424 64.715500,149.836578 65.500168,142.483871 66.567825" style="stroke:rgb(0.000000%,0.000000%,0.000000%); stroke-width: 0.498138;stroke-linecap: round;stroke-linejoin: round;stroke-miterlimit: 10.000000;fill: none;"></path>
  <path d="M149.432510 139.055710C149.432510 138.263016,149.117569 137.502869,148.557083 136.942398C147.996613 136.381912,147.236465 136.066971,146.443771 136.066971C145.651077 136.066971,144.890930 136.381912,144.330460 136.942398C143.769974 137.502869,143.455032 138.263016,143.455032 139.055710C143.455032 139.848404,143.769974 140.608551,144.330460 141.169022C144.890930 141.729507,145.651077 142.044449,146.443771 142.044449C147.236465 142.044449,147.996613 141.729507,148.557083 141.169022C149.117569 140.608551,149.432510 139.848404,149.432510 139.055710Z" style="fill: rgb(100.000000%,100.000000%,100.000000%);stroke: none;"></path>
  <path d="M147.130661 134.375671C147.125015 135.902405,146.783356 137.515930,146.443771 139.055710C146.030807 140.928162,145.678940 142.838745,145.577179 144.738281" style="stroke:rgb(0.000000%,0.000000%,0.000000%); stroke-width: 0.498138;stroke-linecap: round;stroke-linejoin: round;stroke-miterlimit: 10.000000;fill: none;"></path>
  <path d="M157.577026 138.178818C164.905563 139.967758,169.291290 146.767776,169.606628 154.336121" style="stroke:rgb(0.000000%,0.000000%,0.000000%); stroke-width: 0.498138;stroke-linecap: round;stroke-linejoin: round;stroke-miterlimit: 10.000000;fill: none;"></path>
  <path d="M166.965729 150.090424C168.000641 151.365067,168.890976 152.793457,169.606628 154.336121C170.191452 152.739258,170.571930 151.099686,170.741455 149.466583Z" style="stroke:rgb(0.000000%,0.000000%,0.000000%); stroke-width: 0.498138;fill: rgb(0.000000%,0.000000%,0.000000%);"></path>
  <path d="M157.577026 138.178818C164.905563 139.967758,169.291290 146.767776,169.606628 154.336121" style="stroke:rgb(0.000000%,0.000000%,0.000000%); stroke-width: 0.498138;stroke-linecap: round;stroke-linejoin: round;stroke-miterlimit: 10.000000;fill: none;"></path>
  <path d="M168.150589 151.713058C168.693512 152.541443,169.180969 153.418564,169.606628 154.336121C169.954468 153.386337,170.230011 152.421417,170.431900 151.451767Z" style="stroke:rgb(0.000000%,0.000000%,0.000000%); stroke-width: 0.498138;fill: rgb(0.000000%,0.000000%,0.000000%);"></path>
  <path d="M65.809784 78.232880C63.651077 77.535004,61.592453 78.614761,59.718750 80.024185" style="stroke:rgb(0.000000%,0.000000%,0.000000%); stroke-width: 0.498138;stroke-linecap: round;stroke-linejoin: round;stroke-miterlimit: 10.000000;fill: none;"></path>
  <path d="M61.503479 77.612717C60.824188 78.293686,60.242752 79.136337,59.718750 80.024185C60.717087 79.766922,61.724060 79.582230,62.685913 79.581070Z" style="stroke:rgb(0.000000%,0.000000%,0.000000%); stroke-width: 0.498138;fill: rgb(0.000000%,0.000000%,0.000000%);"></path>
  <path d="M51.985870 83.449829C49.991547 82.799820,49.077789 80.846634,48.533981 78.737198" style="stroke:rgb(0.000000%,0.000000%,0.000000%); stroke-width: 0.498138;stroke-linecap: round;stroke-linejoin: round;stroke-miterlimit: 10.000000;fill: none;"></path>
  <path d="M50.624634 80.888794C49.847809 80.333084,49.158813 79.567673,48.533981 78.737198C48.388550 79.766251,48.334503 80.794662,48.490845 81.736908Z" style="stroke:rgb(0.000000%,0.000000%,0.000000%); stroke-width: 0.498138;fill: rgb(0.000000%,0.000000%,0.000000%);"></path>
  <path d="M110.432465 134.063324C116.814087 131.390945,123.713348 130.600693,130.559921 129.570984" style="stroke:rgb(0.000000%,0.000000%,0.000000%); stroke-width: 0.498138;stroke-linecap: round;stroke-linejoin: round;stroke-miterlimit: 10.000000;fill: none;"></path>
  <path d="M127.985291 131.111053C128.843735 130.598404,129.703293 130.086777,130.559921 129.570984C129.589462 129.329971,128.619919 129.083908,127.650391 128.839386Z" style="stroke:rgb(0.000000%,0.000000%,0.000000%); stroke-width: 0.498138;fill: rgb(0.000000%,0.000000%,0.000000%);"></path>
  <path d="M145.801392 130.216415C147.408630 132.124557,147.290085 134.665909,146.830627 137.182877" style="stroke:rgb(0.000000%,0.000000%,0.000000%); stroke-width: 0.498138;stroke-linecap: round;stroke-linejoin: round;stroke-miterlimit: 10.000000;fill: none;"></path>
  <path d="M145.964661 134.310593C146.348663 135.202530,146.615509 136.184097,146.830627 137.182877C147.384766 136.324509,147.890167 135.441757,148.249359 134.539566Z" style="stroke:rgb(0.000000%,0.000000%,0.000000%); stroke-width: 0.498138;fill: rgb(0.000000%,0.000000%,0.000000%);"></path>
  <path d="M120.381577 68.062210C113.817047 67.237244,107.671066 64.627319,101.330978 62.769547" style="stroke:rgb(0.000000%,0.000000%,0.000000%); stroke-width: 0.498138;stroke-linecap: round;stroke-linejoin: round;stroke-miterlimit: 10.000000;fill: none;"></path>
  <path d="M104.317932 62.491226C103.320724 62.572357,102.324615 62.662155,101.330978 62.769547C102.109528 63.396225,102.877365 64.037109,103.639832 64.684891Z" style="stroke:rgb(0.000000%,0.000000%,0.000000%); stroke-width: 0.498138;fill: rgb(0.000000%,0.000000%,0.000000%);"></path>
  <path d="M86.173065 55.588196C85.318619 52.555298,87.114395 49.852356,89.354385 47.447296" style="stroke:rgb(0.000000%,0.000000%,0.000000%); stroke-width: 0.498138;stroke-linecap: round;stroke-linejoin: round;stroke-miterlimit: 10.000000;fill: none;"></path>
  <path d="M88.496964 50.322174C88.691238 49.370010,88.997528 48.403580,89.354385 47.447296C88.425842 47.871140,87.525894 48.337906,86.715225 48.873810Z" style="stroke:rgb(0.000000%,0.000000%,0.000000%); stroke-width: 0.498138;fill: rgb(0.000000%,0.000000%,0.000000%);"></path>
  <path d="M38.332520 83.629150C41.413757 82.773438,43.997940 80.871948,46.406204 78.756989" style="stroke:rgb(0.000000%,0.000000%,0.000000%); stroke-width: 0.498138;stroke-linecap: round;stroke-linejoin: round;stroke-miterlimit: 10.000000;fill: none;"></path>
  <path d="M44.986115 81.399567C45.495987 80.544647,45.963058 79.657196,46.406204 78.756989C45.456314 79.080170,44.498489 79.377411,43.533447 79.621368Z" style="stroke:rgb(0.000000%,0.000000%,0.000000%); stroke-width: 0.498138;fill: rgb(0.000000%,0.000000%,0.000000%);"></path>
  <path d="M55.552231 74.385574C57.445709 75.261993,58.077011 77.320114,58.272095 79.489380" style="stroke:rgb(0.000000%,0.000000%,0.000000%); stroke-width: 0.498138;stroke-linecap: round;stroke-linejoin: round;stroke-miterlimit: 10.000000;fill: none;"></path>
  <path d="M56.532593 77.045166C57.221085 77.702301,57.787964 78.564880,58.272095 79.489380C58.583496 78.493347,58.792618 77.482574,58.770447 76.531067Z" style="stroke:rgb(0.000000%,0.000000%,0.000000%); stroke-width: 0.498138;fill: rgb(0.000000%,0.000000%,0.000000%);"></path>
  <path d="M99.544876 51.042923C98.507828 48.421814,95.915024 47.179016,93.158997 46.302948" style="stroke:rgb(0.000000%,0.000000%,0.000000%); stroke-width: 0.498138;stroke-linecap: round;stroke-linejoin: round;stroke-miterlimit: 10.000000;fill: none;"></path>
  <path d="M96.158661 46.257050C95.186203 46.179947,94.173248 46.216599,93.158997 46.302948C93.937225 46.959091,94.679398 47.649460,95.312500 48.391602Z" style="stroke:rgb(0.000000%,0.000000%,0.000000%); stroke-width: 0.498138;fill: rgb(0.000000%,0.000000%,0.000000%);"></path>
  <path d="M78.470093 38.712189C73.296570 31.879410,75.243591 22.755905,81.263870 16.176010" style="stroke:rgb(0.000000%,0.000000%,0.000000%); stroke-width: 0.498138;stroke-linecap: round;stroke-linejoin: round;stroke-miterlimit: 10.000000;fill: none;"></path>
  <path d="M80.411911 19.052612C80.633957 18.089035,80.918396 17.127411,81.263870 16.176010C80.346832 16.604462,79.465714 17.083267,78.627365 17.607605Z" style="stroke:rgb(0.000000%,0.000000%,0.000000%); stroke-width: 0.498138;fill: rgb(0.000000%,0.000000%,0.000000%);"></path>
  <path d="M137.532944 138.861053C139.522385 140.393448,142.072159 140.140381,144.580109 139.544418" style="stroke:rgb(0.000000%,0.000000%,0.000000%); stroke-width: 0.498138;stroke-linecap: round;stroke-linejoin: round;stroke-miterlimit: 10.000000;fill: none;"></path>
  <path d="M142.015854 141.101517C142.897110 140.694672,143.751968 140.143188,144.580109 139.544418C143.571121 139.382202,142.576706 139.167694,141.665878 138.832199Z" style="stroke:rgb(0.000000%,0.000000%,0.000000%); stroke-width: 0.498138;fill: rgb(0.000000%,0.000000%,0.000000%);"></path>
  <path d="M122.410614 193.031158L128.391907 193.031158L128.391907 185.610764L122.410614 185.610764Z" style="fill: rgb(100.000000%,100.000000%,100.000000%);stroke: none;"></path>
  <path d="M122.410614 195.031158L128.391907 195.031158L128.391907 187.610764L122.410614 187.610764Z" style="fill: rgb(100.000000%,100.000000%,100.000000%);stroke: none;"></path>
  <g transform="translate(122.910614 193.531158)" style="fill: rgb(0.000000%,0.000000%,0.000000%);">
    <use xlink:href="#GLYPHcmr10_49"></use>
  </g>
  <path d="M70.491241 114.814468L76.472534 114.814468L76.472534 107.394073L70.491241 107.394073Z" style="fill: rgb(100.000000%,100.000000%,100.000000%);stroke: none;"></path>
  <path d="M70.491241 116.814468L76.472534 116.814468L76.472534 109.394073L70.491241 109.394073Z" style="fill: rgb(100.000000%,100.000000%,100.000000%);stroke: none;"></path>
  <g transform="translate(70.991241 115.314468)" style="fill: rgb(0.000000%,0.000000%,0.000000%);">
    <use xlink:href="#GLYPHcmr10_50"></use>
  </g>
  <path d="M40.509995 68.041702L46.491287 68.041702L46.491287 60.621307L40.509995 60.621307Z" style="fill: rgb(100.000000%,100.000000%,100.000000%);stroke: none;"></path>
  <path d="M40.509995 70.041702L46.491287 70.041702L46.491287 62.621307L40.509995 62.621307Z" style="fill: rgb(100.000000%,100.000000%,100.000000%);stroke: none;"></path>
  <g transform="translate(41.009995 68.541702)" style="fill: rgb(0.000000%,0.000000%,0.000000%);">
    <use xlink:href="#GLYPHcmr10_51"></use>
  </g>
  <path d="M11.701340 127.970505L17.682632 127.970505L17.682632 120.550110L11.701340 120.550110Z" style="fill: rgb(100.000000%,100.000000%,100.000000%);stroke: none;"></path>
  <path d="M11.701340 129.970505L17.682632 129.970505L17.682632 122.550110L11.701340 122.550110Z" style="fill: rgb(100.000000%,100.000000%,100.000000%);stroke: none;"></path>
  <g transform="translate(12.201340 128.470505)" style="fill: rgb(0.000000%,0.000000%,0.000000%);">
    <use xlink:href="#GLYPHcmr10_52"></use>
  </g>
  <path d="M143.220612 153.064743L149.201904 153.064743L149.201904 145.644348L143.220612 145.644348Z" style="fill: rgb(100.000000%,100.000000%,100.000000%);stroke: none;"></path>
  <path d="M143.220612 155.064743L149.201904 155.064743L149.201904 147.644348L143.220612 147.644348Z" style="fill: rgb(100.000000%,100.000000%,100.000000%);stroke: none;"></path>
  <g transform="translate(143.720612 153.564743)" style="fill: rgb(0.000000%,0.000000%,0.000000%);">
    <use xlink:href="#GLYPHcmr10_53"></use>
  </g>
  <path d="M190.228683 118.914017L196.209976 118.914017L196.209976 111.493622L190.228683 111.493622Z" style="fill: rgb(100.000000%,100.000000%,100.000000%);stroke: none;"></path>
  <path d="M190.228683 120.914017L196.209976 120.914017L196.209976 113.493622L190.228683 113.493622Z" style="fill: rgb(100.000000%,100.000000%,100.000000%);stroke: none;"></path>
  <g transform="translate(190.728683 119.414017)" style="fill: rgb(0.000000%,0.000000%,0.000000%);">
    <use xlink:href="#GLYPHcmr10_54"></use>
  </g>
  <path d="M95.363113 38.021408L101.344406 38.021408L101.344406 30.601013L95.363113 30.601013Z" style="fill: rgb(100.000000%,100.000000%,100.000000%);stroke: none;"></path>
  <path d="M95.363113 40.021408L101.344406 40.021408L101.344406 32.601013L95.363113 32.601013Z" style="fill: rgb(100.000000%,100.000000%,100.000000%);stroke: none;"></path>
  <g transform="translate(95.863113 38.521408)" style="fill: rgb(0.000000%,0.000000%,0.000000%);">
    <use xlink:href="#GLYPHcmr10_55"></use>
  </g>
  <path d="M34.365952 25.275635L40.347244 25.275635L40.347244 17.855240L34.365952 17.855240Z" style="fill: rgb(100.000000%,100.000000%,100.000000%);stroke: none;"></path>
  <path d="M34.365952 27.275635L40.347244 27.275635L40.347244 19.855240L34.365952 19.855240Z" style="fill: rgb(100.000000%,100.000000%,100.000000%);stroke: none;"></path>
  <g transform="translate(34.865952 25.775635)" style="fill: rgb(0.000000%,0.000000%,0.000000%);">
    <use xlink:href="#GLYPHcmr10_56"></use>
  </g>
  <path d="M57.789490 91.060760L63.770782 91.060760L63.770782 83.640366L57.789490 83.640366Z" style="fill: rgb(100.000000%,100.000000%,100.000000%);stroke: none;"></path>
  <path d="M57.789490 93.060760L63.770782 93.060760L63.770782 85.640366L57.789490 85.640366Z" style="fill: rgb(100.000000%,100.000000%,100.000000%);stroke: none;"></path>
  <g transform="translate(58.289490 91.560760)" style="fill: rgb(0.000000%,0.000000%,0.000000%);">
    <use xlink:href="#GLYPHcmr10_57"></use>
  </g>
  <path d="M81.088211 80.823532L92.050919 80.823532L92.050919 73.403137L81.088211 73.403137Z" style="fill: rgb(100.000000%,100.000000%,100.000000%);stroke: none;"></path>
  <path d="M81.088211 82.823532L92.050919 82.823532L92.050919 75.403137L81.088211 75.403137Z" style="fill: rgb(100.000000%,100.000000%,100.000000%);stroke: none;"></path>
  <g transform="translate(81.588211 81.323532)" style="fill: rgb(0.000000%,0.000000%,0.000000%);">
    <use xlink:href="#GLYPHcmr10_49"></use>
    <use xlink:href="#GLYPHcmr10_48" x="5.000095"></use>
  </g>
  <path d="M131.266556 19.515930L142.229263 19.515930L142.229263 12.095535L131.266556 12.095535Z" style="fill: rgb(100.000000%,100.000000%,100.000000%);stroke: none;"></path>
  <path d="M131.266556 21.515930L142.229263 21.515930L142.229263 14.095535L131.266556 14.095535Z" style="fill: rgb(100.000000%,100.000000%,100.000000%);stroke: none;"></path>
  <g transform="translate(131.766556 20.015930)" style="fill: rgb(0.000000%,0.000000%,0.000000%);">
    <use xlink:href="#GLYPHcmr10_49"></use>
    <use xlink:href="#GLYPHcmr10_49" x="5.000095"></use>
  </g>
  <path d="M134.764175 106.786118L145.726883 106.786118L145.726883 99.365723L134.764175 99.365723Z" style="fill: rgb(100.000000%,100.000000%,100.000000%);stroke: none;"></path>
  <path d="M134.764175 108.786118L145.726883 108.786118L145.726883 101.365723L134.764175 101.365723Z" style="fill: rgb(100.000000%,100.000000%,100.000000%);stroke: none;"></path>
  <g transform="translate(135.264175 107.286118)" style="fill: rgb(0.000000%,0.000000%,0.000000%);">
    <use xlink:href="#GLYPHcmr10_49"></use>
    <use xlink:href="#GLYPHcmr10_50" x="5.000095"></use>
  </g>
</svg>
