<?xml version="1.0"?>
<!-- Created by MetaPost 1.999 on 2021.07.06:0015 -->
<svg version="1.1" xmlns="http://www.w3.org/2000/svg" xmlns:xlink="http://www.w3.org/1999/xlink" width="198.040176" height="206.198166" viewBox="0 0 198.040176 206.198166">
<!-- Original BoundingBox: -138.638046 -26.853668 59.402130 179.344498 -->
  <defs>
    <g transform="scale(0.009963,0.009963)" id="GLYPHcmr10_48">
      <path style="fill-rule: evenodd;" d="M460.000000 -320.000000C460.000000 -400.000000,455.000000 -480.000000,420.000000 -554.000000C374.000000 -650.000000,292.000000 -666.000000,250.000000 -666.000000C190.000000 -666.000000,117.000000 -640.000000,76.000000 -547.000000C44.000000 -478.000000,39.000000 -400.000000,39.000000 -320.000000C39.000000 -245.000000,43.000000 -155.000000,84.000000 -79.000000C127.000000 2.000000,200.000000 22.000000,249.000000 22.000000C303.000000 22.000000,379.000000 1.000000,423.000000 -94.000000C455.000000 -163.000000,460.000000 -241.000000,460.000000 -320.000000M249.000000 -0.000000C210.000000 -0.000000,151.000000 -25.000000,133.000000 -121.000000C122.000000 -181.000000,122.000000 -273.000000,122.000000 -332.000000C122.000000 -396.000000,122.000000 -462.000000,130.000000 -516.000000C149.000000 -635.000000,224.000000 -644.000000,249.000000 -644.000000C282.000000 -644.000000,348.000000 -626.000000,367.000000 -527.000000C377.000000 -471.000000,377.000000 -395.000000,377.000000 -332.000000C377.000000 -257.000000,377.000000 -189.000000,366.000000 -125.000000C351.000000 -30.000000,294.000000 -0.000000,249.000000 -0.000000"></path>
    </g>
    <g transform="scale(0.009963,0.009963)" id="GLYPHcmr10_49">
      <path style="fill-rule: evenodd;" d="M294.000000 -640.000000C294.000000 -664.000000,294.000000 -666.000000,271.000000 -666.000000C209.000000 -602.000000,121.000000 -602.000000,89.000000 -602.000000L89.000000 -571.000000C109.000000 -571.000000,168.000000 -571.000000,220.000000 -597.000000L220.000000 -79.000000C220.000000 -43.000000,217.000000 -31.000000,127.000000 -31.000000L95.000000 -31.000000L95.000000 -0.000000L257.000000 -0.000000L130.000000 -3.000000L217.000000 -3.000000L257.000000 -3.000000L297.000000 -3.000000L384.000000 -3.000000L419.000000 -0.000000L419.000000 -31.000000L387.000000 -31.000000C297.000000 -31.000000,294.000000 -42.000000,294.000000 -79.000000"></path>
    </g>
    <g transform="scale(0.009963,0.009963)" id="GLYPHcmr10_50">
      <path style="fill-rule: evenodd;" d="M127.000000 -77.000000L233.000000 -180.000000C389.000000 -318.000000,449.000000 -372.000000,449.000000 -472.000000C449.000000 -586.000000,359.000000 -666.000000,237.000000 -666.000000C124.000000 -666.000000,50.000000 -574.000000,50.000000 -485.000000C50.000000 -429.000000,100.000000 -429.000000,103.000000 -429.000000C120.000000 -429.000000,155.000000 -441.000000,155.000000 -482.000000C155.000000 -508.000000,137.000000 -534.000000,102.000000 -534.000000C94.000000 -534.000000,92.000000 -534.000000,89.000000 -533.000000C112.000000 -598.000000,166.000000 -635.000000,224.000000 -635.000000C315.000000 -635.000000,358.000000 -554.000000,358.000000 -472.000000C358.000000 -392.000000,308.000000 -313.000000,253.000000 -251.000000L61.000000 -37.000000C50.000000 -26.000000,50.000000 -24.000000,50.000000 -0.000000L421.000000 -0.000000L449.000000 -174.000000L424.000000 -174.000000C419.000000 -144.000000,412.000000 -100.000000,402.000000 -85.000000C395.000000 -77.000000,329.000000 -77.000000,307.000000 -77.000000"></path>
    </g>
    <g transform="scale(0.009963,0.009963)" id="GLYPHcmr10_51">
      <path style="fill-rule: evenodd;" d="M290.000000 -352.000000C372.000000 -379.000000,430.000000 -449.000000,430.000000 -528.000000C430.000000 -610.000000,342.000000 -666.000000,246.000000 -666.000000C145.000000 -666.000000,69.000000 -606.000000,69.000000 -530.000000C69.000000 -497.000000,91.000000 -478.000000,120.000000 -478.000000C151.000000 -478.000000,171.000000 -500.000000,171.000000 -529.000000C171.000000 -579.000000,124.000000 -579.000000,109.000000 -579.000000C140.000000 -628.000000,206.000000 -641.000000,242.000000 -641.000000C283.000000 -641.000000,338.000000 -619.000000,338.000000 -529.000000C338.000000 -517.000000,336.000000 -459.000000,310.000000 -415.000000C280.000000 -367.000000,246.000000 -364.000000,221.000000 -363.000000C213.000000 -362.000000,189.000000 -360.000000,182.000000 -360.000000C174.000000 -359.000000,167.000000 -358.000000,167.000000 -348.000000C167.000000 -337.000000,174.000000 -337.000000,191.000000 -337.000000L235.000000 -337.000000C317.000000 -337.000000,354.000000 -269.000000,354.000000 -171.000000C354.000000 -35.000000,285.000000 -6.000000,241.000000 -6.000000C198.000000 -6.000000,123.000000 -23.000000,88.000000 -82.000000C123.000000 -77.000000,154.000000 -99.000000,154.000000 -137.000000C154.000000 -173.000000,127.000000 -193.000000,98.000000 -193.000000C74.000000 -193.000000,42.000000 -179.000000,42.000000 -135.000000C42.000000 -44.000000,135.000000 22.000000,244.000000 22.000000C366.000000 22.000000,457.000000 -69.000000,457.000000 -171.000000C457.000000 -253.000000,394.000000 -331.000000,290.000000 -352.000000"></path>
    </g>
    <g transform="scale(0.009963,0.009963)" id="GLYPHcmr10_52">
      <path style="fill-rule: evenodd;" d="M294.000000 -165.000000L294.000000 -78.000000C294.000000 -42.000000,292.000000 -31.000000,218.000000 -31.000000L197.000000 -31.000000L197.000000 -0.000000L332.000000 -0.000000L238.000000 -3.000000L290.000000 -3.000000L332.000000 -3.000000L374.000000 -3.000000L427.000000 -3.000000L468.000000 -0.000000L468.000000 -31.000000L447.000000 -31.000000C373.000000 -31.000000,371.000000 -42.000000,371.000000 -78.000000L371.000000 -165.000000L471.000000 -165.000000L471.000000 -196.000000L371.000000 -196.000000L371.000000 -651.000000C371.000000 -671.000000,371.000000 -677.000000,355.000000 -677.000000C346.000000 -677.000000,343.000000 -677.000000,335.000000 -665.000000L28.000000 -196.000000L28.000000 -165.000000M300.000000 -196.000000L56.000000 -196.000000L300.000000 -569.000000"></path>
    </g>
    <g transform="scale(0.009963,0.009963)" id="GLYPHcmr10_53">
      <path style="fill-rule: evenodd;" d="M449.000000 -201.000000C449.000000 -320.000000,367.000000 -420.000000,259.000000 -420.000000C211.000000 -420.000000,168.000000 -404.000000,132.000000 -369.000000L132.000000 -564.000000C152.000000 -558.000000,185.000000 -551.000000,217.000000 -551.000000C340.000000 -551.000000,410.000000 -642.000000,410.000000 -655.000000C410.000000 -661.000000,407.000000 -666.000000,400.000000 -666.000000C399.000000 -666.000000,397.000000 -666.000000,392.000000 -663.000000C372.000000 -654.000000,323.000000 -634.000000,256.000000 -634.000000C216.000000 -634.000000,170.000000 -641.000000,123.000000 -662.000000C115.000000 -665.000000,113.000000 -665.000000,111.000000 -665.000000C101.000000 -665.000000,101.000000 -657.000000,101.000000 -641.000000L101.000000 -345.000000C101.000000 -327.000000,101.000000 -319.000000,115.000000 -319.000000C122.000000 -319.000000,124.000000 -322.000000,128.000000 -328.000000C139.000000 -344.000000,176.000000 -398.000000,257.000000 -398.000000C309.000000 -398.000000,334.000000 -352.000000,342.000000 -334.000000C358.000000 -297.000000,360.000000 -258.000000,360.000000 -208.000000C360.000000 -173.000000,360.000000 -113.000000,336.000000 -71.000000C312.000000 -32.000000,275.000000 -6.000000,229.000000 -6.000000C156.000000 -6.000000,99.000000 -59.000000,82.000000 -118.000000C85.000000 -117.000000,88.000000 -116.000000,99.000000 -116.000000C132.000000 -116.000000,149.000000 -141.000000,149.000000 -165.000000C149.000000 -189.000000,132.000000 -214.000000,99.000000 -214.000000C85.000000 -214.000000,50.000000 -207.000000,50.000000 -161.000000C50.000000 -75.000000,119.000000 22.000000,231.000000 22.000000C347.000000 22.000000,449.000000 -74.000000,449.000000 -201.000000"></path>
    </g>
    <g transform="scale(0.009963,0.009963)" id="GLYPHcmr10_54">
      <path style="fill-rule: evenodd;" d="M132.000000 -328.000000L132.000000 -352.000000C132.000000 -605.000000,256.000000 -641.000000,307.000000 -641.000000C331.000000 -641.000000,373.000000 -635.000000,395.000000 -601.000000C380.000000 -601.000000,340.000000 -601.000000,340.000000 -556.000000C340.000000 -525.000000,364.000000 -510.000000,386.000000 -510.000000C402.000000 -510.000000,432.000000 -519.000000,432.000000 -558.000000C432.000000 -618.000000,388.000000 -666.000000,305.000000 -666.000000C177.000000 -666.000000,42.000000 -537.000000,42.000000 -316.000000C42.000000 -49.000000,158.000000 22.000000,251.000000 22.000000C362.000000 22.000000,457.000000 -72.000000,457.000000 -204.000000C457.000000 -331.000000,368.000000 -427.000000,257.000000 -427.000000C189.000000 -427.000000,152.000000 -376.000000,132.000000 -328.000000M251.000000 -6.000000C188.000000 -6.000000,158.000000 -66.000000,152.000000 -81.000000C134.000000 -128.000000,134.000000 -208.000000,134.000000 -226.000000C134.000000 -304.000000,166.000000 -404.000000,256.000000 -404.000000C272.000000 -404.000000,318.000000 -404.000000,349.000000 -342.000000C367.000000 -305.000000,367.000000 -254.000000,367.000000 -205.000000C367.000000 -157.000000,367.000000 -107.000000,350.000000 -71.000000C320.000000 -11.000000,274.000000 -6.000000,251.000000 -6.000000"></path>
    </g>
    <g transform="scale(0.009963,0.009963)" id="GLYPHcmr10_55">
      <path style="fill-rule: evenodd;" d="M476.000000 -609.000000C485.000000 -621.000000,485.000000 -623.000000,485.000000 -644.000000L242.000000 -644.000000C120.000000 -644.000000,118.000000 -657.000000,114.000000 -676.000000L89.000000 -676.000000L56.000000 -470.000000L81.000000 -470.000000C84.000000 -486.000000,93.000000 -549.000000,106.000000 -561.000000C113.000000 -567.000000,191.000000 -567.000000,204.000000 -567.000000L411.000000 -567.000000C400.000000 -551.000000,321.000000 -442.000000,299.000000 -409.000000C209.000000 -274.000000,176.000000 -135.000000,176.000000 -33.000000C176.000000 -23.000000,176.000000 22.000000,222.000000 22.000000C268.000000 22.000000,268.000000 -23.000000,268.000000 -33.000000L268.000000 -84.000000C268.000000 -139.000000,271.000000 -194.000000,279.000000 -248.000000C283.000000 -271.000000,297.000000 -357.000000,341.000000 -419.000000"></path>
    </g>
    <g transform="scale(0.009963,0.009963)" id="GLYPHcmr10_56">
      <path style="fill-rule: evenodd;" d="M163.000000 -457.000000C117.000000 -487.000000,113.000000 -521.000000,113.000000 -538.000000C113.000000 -599.000000,178.000000 -641.000000,249.000000 -641.000000C322.000000 -641.000000,386.000000 -589.000000,386.000000 -517.000000C386.000000 -460.000000,347.000000 -412.000000,287.000000 -377.000000M309.000000 -362.000000C381.000000 -399.000000,430.000000 -451.000000,430.000000 -517.000000C430.000000 -609.000000,341.000000 -666.000000,250.000000 -666.000000C150.000000 -666.000000,69.000000 -592.000000,69.000000 -499.000000C69.000000 -481.000000,71.000000 -436.000000,113.000000 -389.000000C124.000000 -377.000000,161.000000 -352.000000,186.000000 -335.000000C128.000000 -306.000000,42.000000 -250.000000,42.000000 -151.000000C42.000000 -45.000000,144.000000 22.000000,249.000000 22.000000C362.000000 22.000000,457.000000 -61.000000,457.000000 -168.000000C457.000000 -204.000000,446.000000 -249.000000,408.000000 -291.000000C389.000000 -312.000000,373.000000 -322.000000,309.000000 -362.000000M209.000000 -320.000000L332.000000 -242.000000C360.000000 -223.000000,407.000000 -193.000000,407.000000 -132.000000C407.000000 -58.000000,332.000000 -6.000000,250.000000 -6.000000C164.000000 -6.000000,92.000000 -68.000000,92.000000 -151.000000C92.000000 -209.000000,124.000000 -273.000000,209.000000 -320.000000"></path>
    </g>
    <g transform="scale(0.009963,0.009963)" id="GLYPHcmr10_57">
      <path style="fill-rule: evenodd;" d="M367.000000 -318.000000L367.000000 -286.000000C367.000000 -52.000000,263.000000 -6.000000,205.000000 -6.000000C188.000000 -6.000000,134.000000 -8.000000,107.000000 -42.000000C151.000000 -42.000000,159.000000 -71.000000,159.000000 -88.000000C159.000000 -119.000000,135.000000 -134.000000,113.000000 -134.000000C97.000000 -134.000000,67.000000 -125.000000,67.000000 -86.000000C67.000000 -19.000000,121.000000 22.000000,206.000000 22.000000C335.000000 22.000000,457.000000 -114.000000,457.000000 -329.000000C457.000000 -598.000000,342.000000 -666.000000,253.000000 -666.000000C198.000000 -666.000000,149.000000 -648.000000,106.000000 -603.000000C65.000000 -558.000000,42.000000 -516.000000,42.000000 -441.000000C42.000000 -316.000000,130.000000 -218.000000,242.000000 -218.000000C303.000000 -218.000000,344.000000 -260.000000,367.000000 -318.000000M243.000000 -241.000000C227.000000 -241.000000,181.000000 -241.000000,150.000000 -304.000000C132.000000 -341.000000,132.000000 -391.000000,132.000000 -440.000000C132.000000 -494.000000,132.000000 -541.000000,153.000000 -578.000000C180.000000 -628.000000,218.000000 -641.000000,253.000000 -641.000000C299.000000 -641.000000,332.000000 -607.000000,349.000000 -562.000000C361.000000 -530.000000,365.000000 -467.000000,365.000000 -421.000000C365.000000 -338.000000,331.000000 -241.000000,243.000000 -241.000000"></path>
    </g>
  </defs>
  <path d="M100.954147 202.864929C100.954147 202.072235,100.639206 201.312088,100.078720 200.751617C99.518250 200.191132,98.758102 199.876190,97.965408 199.876190C97.172714 199.876190,96.412567 200.191132,95.852097 200.751617C95.291611 201.312088,94.976669 202.072235,94.976669 202.864929C94.976669 203.657623,95.291611 204.417770,95.852097 204.978241C96.412567 205.538727,97.172714 205.853668,97.965408 205.853668C98.758102 205.853668,99.518250 205.538727,100.078720 204.978241C100.639206 204.417770,100.954147 203.657623,100.954147 202.864929Z" style="fill: rgb(100.000000%,100.000000%,100.000000%);stroke: none;"></path>
  <path d="M82.444916 188.334030C82.444916 187.541336,82.129974 186.781189,81.569489 186.220718C81.009018 185.660233,80.248871 185.345291,79.456177 185.345291C78.663483 185.345291,77.903336 185.660233,77.342865 186.220718C76.782379 186.781189,76.467438 187.541336,76.467438 188.334030C76.467438 189.126724,76.782379 189.886871,77.342865 190.447342C77.903336 191.007828,78.663483 191.322769,79.456177 191.322769C80.248871 191.322769,81.009018 191.007828,81.569489 190.447342C82.129974 189.886871,82.444916 189.126724,82.444916 188.334030Z" style="fill: rgb(100.000000%,100.000000%,100.000000%);stroke: none;"></path>
  <path d="M147.974152 168.544907C147.974152 167.752213,147.659210 166.992065,147.098724 166.431595C146.538254 165.871109,145.778107 165.556168,144.985413 165.556168C144.192719 165.556168,143.432571 165.871109,142.872101 166.431595C142.311615 166.992065,141.996674 167.752213,141.996674 168.544907C141.996674 169.337601,142.311615 170.097748,142.872101 170.658218C143.432571 171.218704,144.192719 171.533646,144.985413 171.533646C145.778107 171.533646,146.538254 171.218704,147.098724 170.658218C147.659210 170.097748,147.974152 169.337601,147.974152 168.544907Z" style="fill: rgb(100.000000%,100.000000%,100.000000%);stroke: none;"></path>
  <path d="M127.915848 198.566254C127.915848 197.773560,127.600906 197.013412,127.040421 196.452942C126.479950 195.892456,125.719803 195.577515,124.927109 195.577515C124.134415 195.577515,123.374268 195.892456,122.813797 196.452942C122.253311 197.013412,121.938370 197.773560,121.938370 198.566254C121.938370 199.358948,122.253311 200.119095,122.813797 200.679565C123.374268 201.240051,124.134415 201.554993,124.927109 201.554993C125.719803 201.554993,126.479950 201.240051,127.040421 200.679565C127.600906 200.119095,127.915848 199.358948,127.915848 198.566254Z" style="fill: rgb(100.000000%,100.000000%,100.000000%);stroke: none;"></path>
  <path d="M144.447708 138.337631C144.447708 137.544937,144.132767 136.784790,143.572281 136.224319C143.011810 135.663834,142.251663 135.348892,141.458969 135.348892C140.666275 135.348892,139.906128 135.663834,139.345657 136.224319C138.785172 136.784790,138.470230 137.544937,138.470230 138.337631C138.470230 139.130325,138.785172 139.890472,139.345657 140.450943C139.906128 141.011429,140.666275 141.326370,141.458969 141.326370C142.251663 141.326370,143.011810 141.011429,143.572281 140.450943C144.132767 139.890472,144.447708 139.130325,144.447708 138.337631Z" style="fill: rgb(100.000000%,100.000000%,100.000000%);stroke: none;"></path>
  <path d="M149.227722 155.432709C149.227722 154.640015,148.912781 153.879868,148.352295 153.319397C147.791824 152.758911,147.031677 152.443970,146.238983 152.443970C145.446289 152.443970,144.686142 152.758911,144.125671 153.319397C143.565186 153.879868,143.250244 154.640015,143.250244 155.432709C143.250244 156.225403,143.565186 156.985550,144.125671 157.546021C144.686142 158.106506,145.446289 158.421448,146.238983 158.421448C147.031677 158.421448,147.791824 158.106506,148.352295 157.546021C148.912781 156.985550,149.227722 156.225403,149.227722 155.432709Z" style="fill: rgb(100.000000%,100.000000%,100.000000%);stroke: none;"></path>
  <path d="M140.101776 125.254425C140.101776 124.461731,139.786835 123.701584,139.226349 123.141113C138.665878 122.580627,137.905731 122.265686,137.113037 122.265686C136.320343 122.265686,135.560196 122.580627,134.999725 123.141113C134.439240 123.701584,134.124298 124.461731,134.124298 125.254425C134.124298 126.047119,134.439240 126.807266,134.999725 127.367737C135.560196 127.928223,136.320343 128.243164,137.113037 128.243164C137.905731 128.243164,138.665878 127.928223,139.226349 127.367737C139.786835 126.807266,140.101776 126.047119,140.101776 125.254425Z" style="fill: rgb(100.000000%,100.000000%,100.000000%);stroke: none;"></path>
  <path d="M142.298965 133.614883C142.298965 132.822189,141.984024 132.062042,141.423538 131.501572C140.863068 130.941086,140.102921 130.626144,139.310226 130.626144C138.517532 130.626144,137.757385 130.941086,137.196915 131.501572C136.636429 132.062042,136.321487 132.822189,136.321487 133.614883C136.321487 134.407578,136.636429 135.167725,137.196915 135.728195C137.757385 136.288681,138.517532 136.603622,139.310226 136.603622C140.102921 136.603622,140.863068 136.288681,141.423538 135.728195C141.984024 135.167725,142.298965 134.407578,142.298965 133.614883Z" style="fill: rgb(100.000000%,100.000000%,100.000000%);stroke: none;"></path>
  <path d="M132.277603 121.473358C132.277603 120.680664,131.962662 119.920517,131.402176 119.360046C130.841705 118.799561,130.081558 118.484619,129.288864 118.484619C128.496170 118.484619,127.736023 118.799561,127.175552 119.360046C126.615067 119.920517,126.300125 120.680664,126.300125 121.473358C126.300125 122.266052,126.615067 123.026199,127.175552 123.586670C127.736023 124.147156,128.496170 124.462097,129.288864 124.462097C130.081558 124.462097,130.841705 124.147156,131.402176 123.586670C131.962662 123.026199,132.277603 122.266052,132.277603 121.473358Z" style="fill: rgb(100.000000%,100.000000%,100.000000%);stroke: none;"></path>
  <path d="M138.767487 121.574890C138.767487 120.782196,138.452545 120.022049,137.892059 119.461578C137.331589 118.901093,136.571442 118.586151,135.778748 118.586151C134.986053 118.586151,134.225906 118.901093,133.665436 119.461578C133.104950 120.022049,132.790009 120.782196,132.790009 121.574890C132.790009 122.367584,133.104950 123.127731,133.665436 123.688202C134.225906 124.248688,134.986053 124.563629,135.778748 124.563629C136.571442 124.563629,137.331589 124.248688,137.892059 123.688202C138.452545 123.127731,138.767487 122.367584,138.767487 121.574890Z" style="fill: rgb(100.000000%,100.000000%,100.000000%);stroke: none;"></path>
  <path d="M127.693619 134.363831C127.693619 133.571136,127.378677 132.810989,126.818192 132.250519C126.257721 131.690033,125.497574 131.375092,124.704880 131.375092C123.912186 131.375092,123.152039 131.690033,122.591568 132.250519C122.031082 132.810989,121.716141 133.571136,121.716141 134.363831C121.716141 135.156525,122.031082 135.916672,122.591568 136.477142C123.152039 137.037628,123.912186 137.352570,124.704880 137.352570C125.497574 137.352570,126.257721 137.037628,126.818192 136.477142C127.378677 135.916672,127.693619 135.156525,127.693619 134.363831Z" style="fill: rgb(100.000000%,100.000000%,100.000000%);stroke: none;"></path>
  <path d="M130.843704 125.074890C130.843704 124.282196,130.528763 123.522049,129.968277 122.961578C129.407806 122.401093,128.647659 122.086151,127.854965 122.086151C127.062271 122.086151,126.302124 122.401093,125.741653 122.961578C125.181168 123.522049,124.866226 124.282196,124.866226 125.074890C124.866226 125.867584,125.181168 126.627731,125.741653 127.188202C126.302124 127.748688,127.062271 128.063629,127.854965 128.063629C128.647659 128.063629,129.407806 127.748688,129.968277 127.188202C130.528763 126.627731,130.843704 125.867584,130.843704 125.074890Z" style="fill: rgb(100.000000%,100.000000%,100.000000%);stroke: none;"></path>
  <path d="M119.035645 160.209106C119.035645 159.416412,118.720703 158.656265,118.160217 158.095795C117.599747 157.535309,116.839600 157.220367,116.046906 157.220367C115.254211 157.220367,114.494064 157.535309,113.933594 158.095795C113.373108 158.656265,113.058167 159.416412,113.058167 160.209106C113.058167 161.001801,113.373108 161.761948,113.933594 162.322418C114.494064 162.882904,115.254211 163.197845,116.046906 163.197845C116.839600 163.197845,117.599747 162.882904,118.160217 162.322418C118.720703 161.761948,119.035645 161.001801,119.035645 160.209106Z" style="fill: rgb(100.000000%,100.000000%,100.000000%);stroke: none;"></path>
  <path d="M123.995453 139.759628C123.995453 138.966934,123.680511 138.206787,123.120026 137.646317C122.559555 137.085831,121.799408 136.770889,121.006714 136.770889C120.214020 136.770889,119.453873 137.085831,118.893402 137.646317C118.332916 138.206787,118.017975 138.966934,118.017975 139.759628C118.017975 140.552322,118.332916 141.312469,118.893402 141.872940C119.453873 142.433426,120.214020 142.748367,121.006714 142.748367C121.799408 142.748367,122.559555 142.433426,123.120026 141.872940C123.680511 141.312469,123.995453 140.552322,123.995453 139.759628Z" style="fill: rgb(100.000000%,100.000000%,100.000000%);stroke: none;"></path>
  <path d="M159.539841 184.610443C159.539841 183.817749,159.224899 183.057602,158.664413 182.497131C158.103943 181.936646,157.343796 181.621704,156.551102 181.621704C155.758408 181.621704,154.998260 181.936646,154.437790 182.497131C153.877304 183.057602,153.562363 183.817749,153.562363 184.610443C153.562363 185.403137,153.877304 186.163284,154.437790 186.723755C154.998260 187.284241,155.758408 187.599182,156.551102 187.599182C157.343796 187.599182,158.103943 187.284241,158.664413 186.723755C159.224899 186.163284,159.539841 185.403137,159.539841 184.610443Z" style="fill: rgb(100.000000%,100.000000%,100.000000%);stroke: none;"></path>
  <path d="M127.033325 174.779434C127.033325 173.986740,126.718384 173.226593,126.157898 172.666122C125.597427 172.105637,124.837280 171.790695,124.044586 171.790695C123.251892 171.790695,122.491745 172.105637,121.931274 172.666122C121.370789 173.226593,121.055847 173.986740,121.055847 174.779434C121.055847 175.572128,121.370789 176.332275,121.931274 176.892746C122.491745 177.453232,123.251892 177.768173,124.044586 177.768173C124.837280 177.768173,125.597427 177.453232,126.157898 176.892746C126.718384 176.332275,127.033325 175.572128,127.033325 174.779434Z" style="fill: rgb(100.000000%,100.000000%,100.000000%);stroke: none;"></path>
  <path d="M197.402130 130.351181C197.402130 129.558487,197.087189 128.798340,196.526703 128.237869C195.966232 127.677383,195.206085 127.362442,194.413391 127.362442C193.620697 127.362442,192.860550 127.677383,192.300079 128.237869C191.739594 128.798340,191.424652 129.558487,191.424652 130.351181C191.424652 131.143875,191.739594 131.904022,192.300079 132.464493C192.860550 133.024979,193.620697 133.339920,194.413391 133.339920C195.206085 133.339920,195.966232 133.024979,196.526703 132.464493C197.087189 131.904022,197.402130 131.143875,197.402130 130.351181Z" style="fill: rgb(100.000000%,100.000000%,100.000000%);stroke: none;"></path>
  <path d="M177.033066 170.408310C177.033066 169.615616,176.718124 168.855469,176.157639 168.294998C175.597168 167.734512,174.837021 167.419571,174.044327 167.419571C173.251633 167.419571,172.491486 167.734512,171.931015 168.294998C171.370529 168.855469,171.055588 169.615616,171.055588 170.408310C171.055588 171.201004,171.370529 171.961151,171.931015 172.521622C172.491486 173.082108,173.251633 173.397049,174.044327 173.397049C174.837021 173.397049,175.597168 173.082108,176.157639 172.521622C176.718124 171.961151,177.033066 171.201004,177.033066 170.408310Z" style="fill: rgb(100.000000%,100.000000%,100.000000%);stroke: none;"></path>
  <path d="M168.674728 83.960464C168.674728 83.167770,168.359787 82.407623,167.799301 81.847153C167.238831 81.286667,166.478683 80.971725,165.685989 80.971725C164.893295 80.971725,164.133148 81.286667,163.572678 81.847153C163.012192 82.407623,162.697250 83.167770,162.697250 83.960464C162.697250 84.753159,163.012192 85.513306,163.572678 86.073776C164.133148 86.634262,164.893295 86.949203,165.685989 86.949203C166.478683 86.949203,167.238831 86.634262,167.799301 86.073776C168.359787 85.513306,168.674728 84.753159,168.674728 83.960464Z" style="fill: rgb(100.000000%,100.000000%,100.000000%);stroke: none;"></path>
  <path d="M197.396912 103.601410C197.396912 102.808716,197.081970 102.048569,196.521484 101.488098C195.961014 100.927612,195.200867 100.612671,194.408173 100.612671C193.615479 100.612671,192.855331 100.927612,192.294861 101.488098C191.734375 102.048569,191.419434 102.808716,191.419434 103.601410C191.419434 104.394104,191.734375 105.154251,192.294861 105.714722C192.855331 106.275208,193.615479 106.590149,194.408173 106.590149C195.200867 106.590149,195.961014 106.275208,196.521484 105.714722C197.081970 105.154251,197.396912 104.394104,197.396912 103.601410Z" style="fill: rgb(100.000000%,100.000000%,100.000000%);stroke: none;"></path>
  <path d="M138.089798 84.083893C138.089798 83.291199,137.774857 82.531052,137.214371 81.970581C136.653900 81.410095,135.893753 81.095154,135.101059 81.095154C134.308365 81.095154,133.548218 81.410095,132.987747 81.970581C132.427261 82.531052,132.112320 83.291199,132.112320 84.083893C132.112320 84.876587,132.427261 85.636734,132.987747 86.197205C133.548218 86.757690,134.308365 87.072632,135.101059 87.072632C135.893753 87.072632,136.653900 86.757690,137.214371 86.197205C137.774857 85.636734,138.089798 84.876587,138.089798 84.083893Z" style="fill: rgb(100.000000%,100.000000%,100.000000%);stroke: none;"></path>
  <path d="M156.256119 83.910263C156.256119 83.117569,155.941177 82.357422,155.380692 81.796951C154.820221 81.236465,154.060074 80.921524,153.267380 80.921524C152.474686 80.921524,151.714539 81.236465,151.154068 81.796951C150.593582 82.357422,150.278641 83.117569,150.278641 83.910263C150.278641 84.702957,150.593582 85.463104,151.154068 86.023575C151.714539 86.584061,152.474686 86.899002,153.267380 86.899002C154.060074 86.899002,154.820221 86.584061,155.380692 86.023575C155.941177 85.463104,156.256119 84.702957,156.256119 83.910263Z" style="fill: rgb(100.000000%,100.000000%,100.000000%);stroke: none;"></path>
  <path d="M121.565643 83.987091C121.565643 83.194397,121.250702 82.434250,120.690216 81.873779C120.129745 81.313293,119.369598 80.998352,118.576904 80.998352C117.784210 80.998352,117.024063 81.313293,116.463593 81.873779C115.903107 82.434250,115.588165 83.194397,115.588165 83.987091C115.588165 84.779785,115.903107 85.539932,116.463593 86.100403C117.024063 86.660889,117.784210 86.975830,118.576904 86.975830C119.369598 86.975830,120.129745 86.660889,120.690216 86.100403C121.250702 85.539932,121.565643 84.779785,121.565643 83.987091Z" style="fill: rgb(100.000000%,100.000000%,100.000000%);stroke: none;"></path>
  <path d="M131.807495 84.134201C131.807495 83.341507,131.492554 82.581360,130.932068 82.020889C130.371597 81.460403,129.611450 81.145462,128.818756 81.145462C128.026062 81.145462,127.265915 81.460403,126.705444 82.020889C126.144958 82.581360,125.830017 83.341507,125.830017 84.134201C125.830017 84.926895,126.144958 85.687042,126.705444 86.247513C127.265915 86.807999,128.026062 87.122940,128.818756 87.122940C129.611450 87.122940,130.371597 86.807999,130.932068 86.247513C131.492554 85.687042,131.807495 84.926895,131.807495 84.134201Z" style="fill: rgb(100.000000%,100.000000%,100.000000%);stroke: none;"></path>
  <path d="M112.549103 91.120132C112.549103 90.327438,112.234161 89.567291,111.673676 89.006821C111.113205 88.446335,110.353058 88.131393,109.560364 88.131393C108.767670 88.131393,108.007523 88.446335,107.447052 89.006821C106.886566 89.567291,106.571625 90.327438,106.571625 91.120132C106.571625 91.912827,106.886566 92.672974,107.447052 93.233444C108.007523 93.793930,108.767670 94.108871,109.560364 94.108871C110.353058 94.108871,111.113205 93.793930,111.673676 93.233444C112.234161 92.672974,112.549103 91.912827,112.549103 91.120132Z" style="fill: rgb(100.000000%,100.000000%,100.000000%);stroke: none;"></path>
  <path d="M117.238251 84.190659C117.238251 83.397964,116.923309 82.637817,116.362823 82.077347C115.802353 81.516861,115.042206 81.201920,114.249512 81.201920C113.456818 81.201920,112.696671 81.516861,112.136200 82.077347C111.575714 82.637817,111.260773 83.397964,111.260773 84.190659C111.260773 84.983353,111.575714 85.743500,112.136200 86.303970C112.696671 86.864456,113.456818 87.179398,114.249512 87.179398C115.042206 87.179398,115.802353 86.864456,116.362823 86.303970C116.923309 85.743500,117.238251 84.983353,117.238251 84.190659Z" style="fill: rgb(100.000000%,100.000000%,100.000000%);stroke: none;"></path>
  <path d="M117.829514 105.509369C117.829514 104.716675,117.514572 103.956528,116.954086 103.396057C116.393616 102.835571,115.633469 102.520630,114.840775 102.520630C114.048080 102.520630,113.287933 102.835571,112.727463 103.396057C112.166977 103.956528,111.852036 104.716675,111.852036 105.509369C111.852036 106.302063,112.166977 107.062210,112.727463 107.622681C113.287933 108.183167,114.048080 108.498108,114.840775 108.498108C115.633469 108.498108,116.393616 108.183167,116.954086 107.622681C117.514572 107.062210,117.829514 106.302063,117.829514 105.509369Z" style="fill: rgb(100.000000%,100.000000%,100.000000%);stroke: none;"></path>
  <path d="M114.834366 95.699326C114.834366 94.906631,114.519424 94.146484,113.958939 93.586014C113.398468 93.025528,112.638321 92.710587,111.845627 92.710587C111.052933 92.710587,110.292786 93.025528,109.732315 93.586014C109.171829 94.146484,108.856888 94.906631,108.856888 95.699326C108.856888 96.492020,109.171829 97.252167,109.732315 97.812637C110.292786 98.373123,111.052933 98.688065,111.845627 98.688065C112.638321 98.688065,113.398468 98.373123,113.958939 97.812637C114.519424 97.252167,114.834366 96.492020,114.834366 95.699326Z" style="fill: rgb(100.000000%,100.000000%,100.000000%);stroke: none;"></path>
  <path d="M122.374481 121.262695C122.374481 120.470001,122.059540 119.709854,121.499054 119.149384C120.938583 118.588898,120.178436 118.273956,119.385742 118.273956C118.593048 118.273956,117.832901 118.588898,117.272430 119.149384C116.711945 119.709854,116.397003 120.470001,116.397003 121.262695C116.397003 122.055389,116.711945 122.815536,117.272430 123.376007C117.832901 123.936493,118.593048 124.251434,119.385742 124.251434C120.178436 124.251434,120.938583 123.936493,121.499054 123.376007C122.059540 122.815536,122.374481 122.055389,122.374481 121.262695Z" style="fill: rgb(100.000000%,100.000000%,100.000000%);stroke: none;"></path>
  <path d="M117.539993 111.551651C117.539993 110.758957,117.225052 109.998810,116.664566 109.438339C116.104095 108.877853,115.343948 108.562912,114.551254 108.562912C113.758560 108.562912,112.998413 108.877853,112.437943 109.438339C111.877457 109.998810,111.562515 110.758957,111.562515 111.551651C111.562515 112.344345,111.877457 113.104492,112.437943 113.664963C112.998413 114.225449,113.758560 114.540390,114.551254 114.540390C115.343948 114.540390,116.104095 114.225449,116.664566 113.664963C117.225052 113.104492,117.539993 112.344345,117.539993 111.551651Z" style="fill: rgb(100.000000%,100.000000%,100.000000%);stroke: none;"></path>
  <path d="M131.294250 130.189682C131.294250 129.396988,130.979309 128.636841,130.418823 128.076370C129.858353 127.515884,129.098206 127.200943,128.305511 127.200943C127.512817 127.200943,126.752670 127.515884,126.192200 128.076370C125.631714 128.636841,125.316772 129.396988,125.316772 130.189682C125.316772 130.982376,125.631714 131.742523,126.192200 132.302994C126.752670 132.863480,127.512817 133.178421,128.305511 133.178421C129.098206 133.178421,129.858353 132.863480,130.418823 132.302994C130.979309 131.742523,131.294250 130.982376,131.294250 130.189682Z" style="fill: rgb(100.000000%,100.000000%,100.000000%);stroke: none;"></path>
  <path d="M126.500488 124.455948C126.500488 123.663254,126.185547 122.903107,125.625061 122.342636C125.064590 121.782150,124.304443 121.467209,123.511749 121.467209C122.719055 121.467209,121.958908 121.782150,121.398438 122.342636C120.837952 122.903107,120.523010 123.663254,120.523010 124.455948C120.523010 125.248642,120.837952 126.008789,121.398438 126.569260C121.958908 127.129745,122.719055 127.444687,123.511749 127.444687C124.304443 127.444687,125.064590 127.129745,125.625061 126.569260C126.185547 126.008789,126.500488 125.248642,126.500488 124.455948Z" style="fill: rgb(100.000000%,100.000000%,100.000000%);stroke: none;"></path>
  <path d="M137.699097 132.433136C137.699097 131.640442,137.384155 130.880295,136.823669 130.319824C136.263199 129.759338,135.503052 129.444397,134.710358 129.444397C133.917664 129.444397,133.157516 129.759338,132.597046 130.319824C132.036560 130.880295,131.721619 131.640442,131.721619 132.433136C131.721619 133.225830,132.036560 133.985977,132.597046 134.546448C133.157516 135.106934,133.917664 135.421875,134.710358 135.421875C135.503052 135.421875,136.263199 135.106934,136.823669 134.546448C137.384155 133.985977,137.699097 133.225830,137.699097 132.433136Z" style="fill: rgb(100.000000%,100.000000%,100.000000%);stroke: none;"></path>
  <path d="M132.905182 132.295181C132.905182 131.502487,132.590240 130.742340,132.029755 130.181870C131.469284 129.621384,130.709137 129.306442,129.916443 129.306442C129.123749 129.306442,128.363602 129.621384,127.803131 130.181870C127.242645 130.742340,126.927704 131.502487,126.927704 132.295181C126.927704 133.087875,127.242645 133.848022,127.803131 134.408493C128.363602 134.968979,129.123749 135.283920,129.916443 135.283920C130.709137 135.283920,131.469284 134.968979,132.029755 134.408493C132.590240 133.848022,132.905182 133.087875,132.905182 132.295181Z" style="fill: rgb(100.000000%,100.000000%,100.000000%);stroke: none;"></path>
  <path d="M144.730591 124.204117C144.730591 123.411423,144.415649 122.651276,143.855164 122.090805C143.294693 121.530319,142.534546 121.215378,141.741852 121.215378C140.949158 121.215378,140.189011 121.530319,139.628540 122.090805C139.068054 122.651276,138.753113 123.411423,138.753113 124.204117C138.753113 124.996811,139.068054 125.756958,139.628540 126.317429C140.189011 126.877914,140.949158 127.192856,141.741852 127.192856C142.534546 127.192856,143.294693 126.877914,143.855164 126.317429C144.415649 125.756958,144.730591 124.996811,144.730591 124.204117Z" style="fill: rgb(100.000000%,100.000000%,100.000000%);stroke: none;"></path>
  <path d="M139.433426 130.468765C139.433426 129.676071,139.118484 128.915924,138.557999 128.355453C137.997528 127.794968,137.237381 127.480026,136.444687 127.480026C135.651993 127.480026,134.891846 127.794968,134.331375 128.355453C133.770889 128.915924,133.455948 129.676071,133.455948 130.468765C133.455948 131.261459,133.770889 132.021606,134.331375 132.582077C134.891846 133.142563,135.651993 133.457504,136.444687 133.457504C137.237381 133.457504,137.997528 133.142563,138.557999 132.582077C139.118484 132.021606,139.433426 131.261459,139.433426 130.468765Z" style="fill: rgb(100.000000%,100.000000%,100.000000%);stroke: none;"></path>
  <path d="M162.510406 108.496277C162.510406 107.703583,162.195465 106.943436,161.634979 106.382965C161.074509 105.822479,160.314362 105.507538,159.521667 105.507538C158.728973 105.507538,157.968826 105.822479,157.408356 106.382965C156.847870 106.943436,156.532928 107.703583,156.532928 108.496277C156.532928 109.288971,156.847870 110.049118,157.408356 110.609589C157.968826 111.170074,158.728973 111.485016,159.521667 111.485016C160.314362 111.485016,161.074509 111.170074,161.634979 110.609589C162.195465 110.049118,162.510406 109.288971,162.510406 108.496277Z" style="fill: rgb(100.000000%,100.000000%,100.000000%);stroke: none;"></path>
  <path d="M148.885178 120.150238C148.885178 119.357544,148.570236 118.597397,148.009750 118.036926C147.449280 117.476440,146.689133 117.161499,145.896439 117.161499C145.103745 117.161499,144.343597 117.476440,143.783127 118.036926C143.222641 118.597397,142.907700 119.357544,142.907700 120.150238C142.907700 120.942932,143.222641 121.703079,143.783127 122.263550C144.343597 122.824036,145.103745 123.138977,145.896439 123.138977C146.689133 123.138977,147.449280 122.824036,148.009750 122.263550C148.570236 121.703079,148.885178 120.942932,148.885178 120.150238Z" style="fill: rgb(100.000000%,100.000000%,100.000000%);stroke: none;"></path>
  <path d="M188.725327 70.292938C188.725327 69.500244,188.410385 68.740097,187.849899 68.179626C187.289429 67.619141,186.529282 67.304199,185.736588 67.304199C184.943893 67.304199,184.183746 67.619141,183.623276 68.179626C183.062790 68.740097,182.747849 69.500244,182.747849 70.292938C182.747849 71.085632,183.062790 71.845779,183.623276 72.406250C184.183746 72.966736,184.943893 73.281677,185.736588 73.281677C186.529282 73.281677,187.289429 72.966736,187.849899 72.406250C188.410385 71.845779,188.725327 71.085632,188.725327 70.292938Z" style="fill: rgb(100.000000%,100.000000%,100.000000%);stroke: none;"></path>
  <path d="M173.038986 101.570145C173.038986 100.777451,172.724045 100.017303,172.163559 99.456833C171.603088 98.896347,170.842941 98.581406,170.050247 98.581406C169.257553 98.581406,168.497406 98.896347,167.936935 99.456833C167.376450 100.017303,167.061508 100.777451,167.061508 101.570145C167.061508 102.362839,167.376450 103.122986,167.936935 103.683456C168.497406 104.243942,169.257553 104.558884,170.050247 104.558884C170.842941 104.558884,171.603088 104.243942,172.163559 103.683456C172.724045 103.122986,173.038986 102.362839,173.038986 101.570145Z" style="fill: rgb(100.000000%,100.000000%,100.000000%);stroke: none;"></path>
  <path d="M147.062592 16.588745C147.062592 15.796051,146.747650 15.035904,146.187164 14.475433C145.626694 13.914948,144.866547 13.600006,144.073853 13.600006C143.281158 13.600006,142.521011 13.914948,141.960541 14.475433C141.400055 15.035904,141.085114 15.796051,141.085114 16.588745C141.085114 17.381439,141.400055 18.141586,141.960541 18.702057C142.521011 19.262543,143.281158 19.577484,144.073853 19.577484C144.866547 19.577484,145.626694 19.262543,146.187164 18.702057C146.747650 18.141586,147.062592 17.381439,147.062592 16.588745Z" style="fill: rgb(100.000000%,100.000000%,100.000000%);stroke: none;"></path>
  <path d="M178.893753 46.551849C178.893753 45.759155,178.578812 44.999008,178.018326 44.438538C177.457855 43.878052,176.697708 43.563110,175.905014 43.563110C175.112320 43.563110,174.352173 43.878052,173.791702 44.438538C173.231216 44.999008,172.916275 45.759155,172.916275 46.551849C172.916275 47.344543,173.231216 48.104691,173.791702 48.665161C174.352173 49.225647,175.112320 49.540588,175.905014 49.540588C176.697708 49.540588,177.457855 49.225647,178.018326 48.665161C178.578812 48.104691,178.893753 47.344543,178.893753 46.551849Z" style="fill: rgb(100.000000%,100.000000%,100.000000%);stroke: none;"></path>
  <path d="M97.115112 25.767044C97.115112 24.974350,96.800171 24.214203,96.239685 23.653732C95.679214 23.093246,94.919067 22.778305,94.126373 22.778305C93.333679 22.778305,92.573532 23.093246,92.013062 23.653732C91.452576 24.214203,91.137634 24.974350,91.137634 25.767044C91.137634 26.559738,91.452576 27.319885,92.013062 27.880356C92.573532 28.440842,93.333679 28.755783,94.126373 28.755783C94.919067 28.755783,95.679214 28.440842,96.239685 27.880356C96.800171 27.319885,97.115112 26.559738,97.115112 25.767044Z" style="fill: rgb(100.000000%,100.000000%,100.000000%);stroke: none;"></path>
  <path d="M126.656418 8.625793C126.656418 7.833099,126.341476 7.072952,125.780991 6.512482C125.220520 5.951996,124.460373 5.637054,123.667679 5.637054C122.874985 5.637054,122.114838 5.951996,121.554367 6.512482C120.993881 7.072952,120.678940 7.833099,120.678940 8.625793C120.678940 9.418488,120.993881 10.178635,121.554367 10.739105C122.114838 11.299591,122.874985 11.614532,123.667679 11.614532C124.460373 11.614532,125.220520 11.299591,125.780991 10.739105C126.341476 10.178635,126.656418 9.418488,126.656418 8.625793Z" style="fill: rgb(100.000000%,100.000000%,100.000000%);stroke: none;"></path>
  <path d="M86.153931 63.038895C86.153931 62.246201,85.838989 61.486053,85.278503 60.925583C84.718033 60.365097,83.957886 60.050156,83.165192 60.050156C82.372498 60.050156,81.612350 60.365097,81.051880 60.925583C80.491394 61.486053,80.176453 62.246201,80.176453 63.038895C80.176453 63.831589,80.491394 64.591736,81.051880 65.152206C81.612350 65.712692,82.372498 66.027634,83.165192 66.027634C83.957886 66.027634,84.718033 65.712692,85.278503 65.152206C85.838989 64.591736,86.153931 63.831589,86.153931 63.038895Z" style="fill: rgb(100.000000%,100.000000%,100.000000%);stroke: none;"></path>
  <path d="M92.568466 40.986771C92.568466 40.194077,92.253525 39.433929,91.693039 38.873459C91.132568 38.312973,90.372421 37.998032,89.579727 37.998032C88.787033 37.998032,88.026886 38.312973,87.466415 38.873459C86.905930 39.433929,86.590988 40.194077,86.590988 40.986771C86.590988 41.779465,86.905930 42.539612,87.466415 43.100082C88.026886 43.660568,88.787033 43.975510,89.579727 43.975510C90.372421 43.975510,91.132568 43.660568,91.693039 43.100082C92.253525 42.539612,92.568466 41.779465,92.568466 40.986771Z" style="fill: rgb(100.000000%,100.000000%,100.000000%);stroke: none;"></path>
  <path d="M77.921478 81.722519C77.921478 80.929825,77.606537 80.169678,77.046051 79.609207C76.485580 79.048721,75.725433 78.733780,74.932739 78.733780C74.140045 78.733780,73.379898 79.048721,72.819427 79.609207C72.258942 80.169678,71.944000 80.929825,71.944000 81.722519C71.944000 82.515213,72.258942 83.275360,72.819427 83.835831C73.379898 84.396317,74.140045 84.711258,74.932739 84.711258C75.725433 84.711258,76.485580 84.396317,77.046051 83.835831C77.606537 83.275360,77.921478 82.515213,77.921478 81.722519Z" style="fill: rgb(100.000000%,100.000000%,100.000000%);stroke: none;"></path>
  <path d="M83.750031 70.823120C83.750031 70.030426,83.435089 69.270279,82.874603 68.709808C82.314133 68.149323,81.553986 67.834381,80.761292 67.834381C79.968597 67.834381,79.208450 68.149323,78.647980 68.709808C78.087494 69.270279,77.772552 70.030426,77.772552 70.823120C77.772552 71.615814,78.087494 72.375961,78.647980 72.936432C79.208450 73.496918,79.968597 73.811859,80.761292 73.811859C81.553986 73.811859,82.314133 73.496918,82.874603 72.936432C83.435089 72.375961,83.750031 71.615814,83.750031 70.823120Z" style="fill: rgb(100.000000%,100.000000%,100.000000%);stroke: none;"></path>
  <path d="M78.478867 93.168991C78.478867 92.376297,78.163925 91.616150,77.603439 91.055679C77.042969 90.495193,76.282822 90.180252,75.490128 90.180252C74.697433 90.180252,73.937286 90.495193,73.376816 91.055679C72.816330 91.616150,72.501389 92.376297,72.501389 93.168991C72.501389 93.961685,72.816330 94.721832,73.376816 95.282303C73.937286 95.842789,74.697433 96.157730,75.490128 96.157730C76.282822 96.157730,77.042969 95.842789,77.603439 95.282303C78.163925 94.721832,78.478867 93.961685,78.478867 93.168991Z" style="fill: rgb(100.000000%,100.000000%,100.000000%);stroke: none;"></path>
  <path d="M75.587936 85.744553C75.587936 84.951859,75.272995 84.191711,74.712509 83.631241C74.152039 83.070755,73.391891 82.755814,72.599197 82.755814C71.806503 82.755814,71.046356 83.070755,70.485886 83.631241C69.925400 84.191711,69.610458 84.951859,69.610458 85.744553C69.610458 86.537247,69.925400 87.297394,70.485886 87.857864C71.046356 88.418350,71.806503 88.733292,72.599197 88.733292C73.391891 88.733292,74.152039 88.418350,74.712509 87.857864C75.272995 87.297394,75.587936 86.537247,75.587936 85.744553Z" style="fill: rgb(100.000000%,100.000000%,100.000000%);stroke: none;"></path>
  <path d="M90.559814 98.659256C90.559814 97.866562,90.244873 97.106415,89.684387 96.545944C89.123917 95.985458,88.363770 95.670517,87.571075 95.670517C86.778381 95.670517,86.018234 95.985458,85.457764 96.545944C84.897278 97.106415,84.582336 97.866562,84.582336 98.659256C84.582336 99.451950,84.897278 100.212097,85.457764 100.772568C86.018234 101.333054,86.778381 101.647995,87.571075 101.647995C88.363770 101.647995,89.123917 101.333054,89.684387 100.772568C90.244873 100.212097,90.559814 99.451950,90.559814 98.659256Z" style="fill: rgb(100.000000%,100.000000%,100.000000%);stroke: none;"></path>
  <path d="M82.241623 94.690292C82.241623 93.897598,81.926682 93.137451,81.366196 92.576981C80.805725 92.016495,80.045578 91.701553,79.252884 91.701553C78.460190 91.701553,77.700043 92.016495,77.139572 92.576981C76.579086 93.137451,76.264145 93.897598,76.264145 94.690292C76.264145 95.482986,76.579086 96.243134,77.139572 96.803604C77.700043 97.364090,78.460190 97.679031,79.252884 97.679031C80.045578 97.679031,80.805725 97.364090,81.366196 96.803604C81.926682 96.243134,82.241623 95.482986,82.241623 94.690292Z" style="fill: rgb(100.000000%,100.000000%,100.000000%);stroke: none;"></path>
  <path d="M105.950241 102.763855C105.950241 101.971161,105.635300 101.211014,105.074814 100.650543C104.514343 100.090057,103.754196 99.775116,102.961502 99.775116C102.168808 99.775116,101.408661 100.090057,100.848190 100.650543C100.287704 101.211014,99.972763 101.971161,99.972763 102.763855C99.972763 103.556549,100.287704 104.316696,100.848190 104.877167C101.408661 105.437653,102.168808 105.752594,102.961502 105.752594C103.754196 105.752594,104.514343 105.437653,105.074814 104.877167C105.635300 104.316696,105.950241 103.556549,105.950241 102.763855Z" style="fill: rgb(100.000000%,100.000000%,100.000000%);stroke: none;"></path>
  <path d="M95.260208 101.826721C95.260208 101.034027,94.945267 100.273880,94.384781 99.713409C93.824310 99.152924,93.064163 98.837982,92.271469 98.837982C91.478775 98.837982,90.718628 99.152924,90.158157 99.713409C89.597672 100.273880,89.282730 101.034027,89.282730 101.826721C89.282730 102.619415,89.597672 103.379562,90.158157 103.940033C90.718628 104.500519,91.478775 104.815460,92.271469 104.815460C93.064163 104.815460,93.824310 104.500519,94.384781 103.940033C94.945267 103.379562,95.260208 102.619415,95.260208 101.826721Z" style="fill: rgb(100.000000%,100.000000%,100.000000%);stroke: none;"></path>
  <path d="M119.651993 99.553101C119.651993 98.760406,119.337051 98.000259,118.776566 97.439789C118.216095 96.879303,117.455948 96.564362,116.663254 96.564362C115.870560 96.564362,115.110413 96.879303,114.549942 97.439789C113.989456 98.000259,113.674515 98.760406,113.674515 99.553101C113.674515 100.345795,113.989456 101.105942,114.549942 101.666412C115.110413 102.226898,115.870560 102.541840,116.663254 102.541840C117.455948 102.541840,118.216095 102.226898,118.776566 101.666412C119.337051 101.105942,119.651993 100.345795,119.651993 99.553101Z" style="fill: rgb(100.000000%,100.000000%,100.000000%);stroke: none;"></path>
  <path d="M110.964523 100.658493C110.964523 99.865799,110.649582 99.105652,110.089096 98.545181C109.528625 97.984695,108.768478 97.669754,107.975784 97.669754C107.183090 97.669754,106.422943 97.984695,105.862473 98.545181C105.301987 99.105652,104.987045 99.865799,104.987045 100.658493C104.987045 101.451187,105.301987 102.211334,105.862473 102.771805C106.422943 103.332291,107.183090 103.647232,107.975784 103.647232C108.768478 103.647232,109.528625 103.332291,110.089096 102.771805C110.649582 102.211334,110.964523 101.451187,110.964523 100.658493Z" style="fill: rgb(100.000000%,100.000000%,100.000000%);stroke: none;"></path>
  <path d="M128.850723 93.437149C128.850723 92.644455,128.535782 91.884308,127.975296 91.323837C127.414825 90.763351,126.654678 90.448410,125.861984 90.448410C125.069290 90.448410,124.309143 90.763351,123.748672 91.323837C123.188187 91.884308,122.873245 92.644455,122.873245 93.437149C122.873245 94.229843,123.188187 94.989990,123.748672 95.550461C124.309143 96.110947,125.069290 96.425888,125.861984 96.425888C126.654678 96.425888,127.414825 96.110947,127.975296 95.550461C128.535782 94.989990,128.850723 94.229843,128.850723 93.437149Z" style="fill: rgb(100.000000%,100.000000%,100.000000%);stroke: none;"></path>
  <path d="M123.524185 99.578979C123.524185 98.786285,123.209244 98.026138,122.648758 97.465668C122.088287 96.905182,121.328140 96.590240,120.535446 96.590240C119.742752 96.590240,118.982605 96.905182,118.422134 97.465668C117.861649 98.026138,117.546707 98.786285,117.546707 99.578979C117.546707 100.371674,117.861649 101.131821,118.422134 101.692291C118.982605 102.252777,119.742752 102.567719,120.535446 102.567719C121.328140 102.567719,122.088287 102.252777,122.648758 101.692291C123.209244 101.131821,123.524185 100.371674,123.524185 99.578979Z" style="fill: rgb(100.000000%,100.000000%,100.000000%);stroke: none;"></path>
  <path d="M122.780563 76.516068C122.780563 75.723373,122.465622 74.963226,121.905136 74.402756C121.344666 73.842270,120.584518 73.527328,119.791824 73.527328C118.999130 73.527328,118.238983 73.842270,117.678513 74.402756C117.118027 74.963226,116.803085 75.723373,116.803085 76.516068C116.803085 77.308762,117.118027 78.068909,117.678513 78.629379C118.238983 79.189865,118.999130 79.504807,119.791824 79.504807C120.584518 79.504807,121.344666 79.189865,121.905136 78.629379C122.465622 78.068909,122.780563 77.308762,122.780563 76.516068Z" style="fill: rgb(100.000000%,100.000000%,100.000000%);stroke: none;"></path>
  <path d="M127.141098 88.472549C127.141098 87.679855,126.826157 86.919708,126.265671 86.359238C125.705200 85.798752,124.945053 85.483810,124.152359 85.483810C123.359665 85.483810,122.599518 85.798752,122.039047 86.359238C121.478561 86.919708,121.163620 87.679855,121.163620 88.472549C121.163620 89.265244,121.478561 90.025391,122.039047 90.585861C122.599518 91.146347,123.359665 91.461288,124.152359 91.461288C124.945053 91.461288,125.705200 91.146347,126.265671 90.585861C126.826157 90.025391,127.141098 89.265244,127.141098 88.472549Z" style="fill: rgb(100.000000%,100.000000%,100.000000%);stroke: none;"></path>
  <path d="M119.038879 45.799164C119.038879 45.006470,118.723938 44.246323,118.163452 43.685852C117.602982 43.125366,116.842834 42.810425,116.050140 42.810425C115.257446 42.810425,114.497299 43.125366,113.936829 43.685852C113.376343 44.246323,113.061401 45.006470,113.061401 45.799164C113.061401 46.591858,113.376343 47.352005,113.936829 47.912476C114.497299 48.472961,115.257446 48.787903,116.050140 48.787903C116.842834 48.787903,117.602982 48.472961,118.163452 47.912476C118.723938 47.352005,119.038879 46.591858,119.038879 45.799164Z" style="fill: rgb(100.000000%,100.000000%,100.000000%);stroke: none;"></path>
  <path d="M121.307281 68.605881C121.307281 67.813187,120.992340 67.053040,120.431854 66.492569C119.871384 65.932083,119.111237 65.617142,118.318542 65.617142C117.525848 65.617142,116.765701 65.932083,116.205231 66.492569C115.644745 67.053040,115.329803 67.813187,115.329803 68.605881C115.329803 69.398575,115.644745 70.158722,116.205231 70.719193C116.765701 71.279678,117.525848 71.594620,118.318542 71.594620C119.111237 71.594620,119.871384 71.279678,120.431854 70.719193C120.992340 70.158722,121.307281 69.398575,121.307281 68.605881Z" style="fill: rgb(100.000000%,100.000000%,100.000000%);stroke: none;"></path>
  <path d="M98.137070 4.043823C98.137070 3.251129,97.822128 2.490982,97.261642 1.930511C96.701172 1.370026,95.941025 1.055084,95.148331 1.055084C94.355637 1.055084,93.595490 1.370026,93.035019 1.930511C92.474533 2.490982,92.159592 3.251129,92.159592 4.043823C92.159592 4.836517,92.474533 5.596664,93.035019 6.157135C93.595490 6.717621,94.355637 7.032562,95.148331 7.032562C95.941025 7.032562,96.701172 6.717621,97.261642 6.157135C97.822128 5.596664,98.137070 4.836517,98.137070 4.043823Z" style="fill: rgb(100.000000%,100.000000%,100.000000%);stroke: none;"></path>
  <path d="M119.481674 29.867325C119.481674 29.074631,119.166733 28.314484,118.606247 27.754013C118.045776 27.193527,117.285629 26.878586,116.492935 26.878586C115.700241 26.878586,114.940094 27.193527,114.379623 27.754013C113.819138 28.314484,113.504196 29.074631,113.504196 29.867325C113.504196 30.660019,113.819138 31.420166,114.379623 31.980637C114.940094 32.541122,115.700241 32.856064,116.492935 32.856064C117.285629 32.856064,118.045776 32.541122,118.606247 31.980637C119.166733 31.420166,119.481674 30.660019,119.481674 29.867325Z" style="fill: rgb(100.000000%,100.000000%,100.000000%);stroke: none;"></path>
  <path d="M43.160126 16.570923C43.160126 15.778229,42.845184 15.018082,42.284698 14.457611C41.724228 13.897125,40.964081 13.582184,40.171387 13.582184C39.378693 13.582184,38.618546 13.897125,38.058075 14.457611C37.497589 15.018082,37.182648 15.778229,37.182648 16.570923C37.182648 17.363617,37.497589 18.123764,38.058075 18.684235C38.618546 19.244720,39.378693 19.559662,40.171387 19.559662C40.964081 19.559662,41.724228 19.244720,42.284698 18.684235C42.845184 18.123764,43.160126 17.363617,43.160126 16.570923Z" style="fill: rgb(100.000000%,100.000000%,100.000000%);stroke: none;"></path>
  <path d="M77.470810 2.644241C77.470810 1.851547,77.155869 1.091400,76.595383 0.530930C76.034912 -0.029556,75.274765 -0.344498,74.482071 -0.344498C73.689377 -0.344498,72.929230 -0.029556,72.368759 0.530930C71.808273 1.091400,71.493332 1.851547,71.493332 2.644241C71.493332 3.436935,71.808273 4.197083,72.368759 4.757553C72.929230 5.318039,73.689377 5.632980,74.482071 5.632980C75.274765 5.632980,76.034912 5.318039,76.595383 4.757553C77.155869 4.197083,77.470810 3.436935,77.470810 2.644241Z" style="fill: rgb(100.000000%,100.000000%,100.000000%);stroke: none;"></path>
  <path d="M26.258301 57.934174C26.258301 57.141479,25.943359 56.381332,25.382874 55.820862C24.822403 55.260376,24.062256 54.945435,23.269562 54.945435C22.476868 54.945435,21.716721 55.260376,21.156250 55.820862C20.595764 56.381332,20.280823 57.141479,20.280823 57.934174C20.280823 58.726868,20.595764 59.487015,21.156250 60.047485C21.716721 60.607971,22.476868 60.922913,23.269562 60.922913C24.062256 60.922913,24.822403 60.607971,25.382874 60.047485C25.943359 59.487015,26.258301 58.726868,26.258301 57.934174Z" style="fill: rgb(100.000000%,100.000000%,100.000000%);stroke: none;"></path>
  <path d="M29.759979 30.302505C29.759979 29.509811,29.445038 28.749664,28.884552 28.189194C28.324081 27.628708,27.563934 27.313766,26.771240 27.313766C25.978546 27.313766,25.218399 27.628708,24.657928 28.189194C24.097443 28.749664,23.782501 29.509811,23.782501 30.302505C23.782501 31.095200,24.097443 31.855347,24.657928 32.415817C25.218399 32.976303,25.978546 33.291245,26.771240 33.291245C27.563934 33.291245,28.324081 32.976303,28.884552 32.415817C29.445038 31.855347,29.759979 31.095200,29.759979 30.302505Z" style="fill: rgb(100.000000%,100.000000%,100.000000%);stroke: none;"></path>
  <path d="M42.064865 74.098618C42.064865 73.305923,41.749924 72.545776,41.189438 71.985306C40.628967 71.424820,39.868820 71.109879,39.076126 71.109879C38.283432 71.109879,37.523285 71.424820,36.962814 71.985306C36.402328 72.545776,36.087387 73.305923,36.087387 74.098618C36.087387 74.891312,36.402328 75.651459,36.962814 76.211929C37.523285 76.772415,38.283432 77.087357,39.076126 77.087357C39.868820 77.087357,40.628967 76.772415,41.189438 76.211929C41.749924 75.651459,42.064865 74.891312,42.064865 74.098618Z" style="fill: rgb(100.000000%,100.000000%,100.000000%);stroke: none;"></path>
  <path d="M29.462799 68.358139C29.462799 67.565445,29.147858 66.805298,28.587372 66.244827C28.026901 65.684341,27.266754 65.369400,26.474060 65.369400C25.681366 65.369400,24.921219 65.684341,24.360748 66.244827C23.800262 66.805298,23.485321 67.565445,23.485321 68.358139C23.485321 69.150833,23.800262 69.910980,24.360748 70.471451C24.921219 71.031937,25.681366 71.346878,26.474060 71.346878C27.266754 71.346878,28.026901 71.031937,28.587372 70.471451C29.147858 69.910980,29.462799 69.150833,29.462799 68.358139Z" style="fill: rgb(100.000000%,100.000000%,100.000000%);stroke: none;"></path>
  <path d="M55.483780 73.879578C55.483780 73.086884,55.168839 72.326736,54.608353 71.766266C54.047882 71.205780,53.287735 70.890839,52.495041 70.890839C51.702347 70.890839,50.942200 71.205780,50.381729 71.766266C49.821243 72.326736,49.506302 73.086884,49.506302 73.879578C49.506302 74.672272,49.821243 75.432419,50.381729 75.992889C50.942200 76.553375,51.702347 76.868317,52.495041 76.868317C53.287735 76.868317,54.047882 76.553375,54.608353 75.992889C55.168839 75.432419,55.483780 74.672272,55.483780 73.879578Z" style="fill: rgb(100.000000%,100.000000%,100.000000%);stroke: none;"></path>
  <path d="M46.290131 74.158005C46.290131 73.365311,45.975189 72.605164,45.414703 72.044693C44.854233 71.484207,44.094086 71.169266,43.301392 71.169266C42.508698 71.169266,41.748550 71.484207,41.188080 72.044693C40.627594 72.605164,40.312653 73.365311,40.312653 74.158005C40.312653 74.950699,40.627594 75.710846,41.188080 76.271317C41.748550 76.831802,42.508698 77.146744,43.301392 77.146744C44.094086 77.146744,44.854233 76.831802,45.414703 76.271317C45.975189 75.710846,46.290131 74.950699,46.290131 74.158005Z" style="fill: rgb(100.000000%,100.000000%,100.000000%);stroke: none;"></path>
  <path d="M70.495255 74.863358C70.495255 74.070663,70.180313 73.310516,69.619827 72.750046C69.059357 72.189560,68.299210 71.874619,67.506516 71.874619C66.713821 71.874619,65.953674 72.189560,65.393204 72.750046C64.832718 73.310516,64.517776 74.070663,64.517776 74.863358C64.517776 75.656052,64.832718 76.416199,65.393204 76.976669C65.953674 77.537155,66.713821 77.852097,67.506516 77.852097C68.299210 77.852097,69.059357 77.537155,69.619827 76.976669C70.180313 76.416199,70.495255 75.656052,70.495255 74.863358Z" style="fill: rgb(100.000000%,100.000000%,100.000000%);stroke: none;"></path>
  <path d="M60.566391 73.482437C60.566391 72.689743,60.251450 71.929596,59.690964 71.369125C59.130493 70.808640,58.370346 70.493698,57.577652 70.493698C56.784958 70.493698,56.024811 70.808640,55.464340 71.369125C54.903854 71.929596,54.588913 72.689743,54.588913 73.482437C54.588913 74.275131,54.903854 75.035278,55.464340 75.595749C56.024811 76.156235,56.784958 76.471176,57.577652 76.471176C58.370346 76.471176,59.130493 76.156235,59.690964 75.595749C60.251450 75.035278,60.566391 74.275131,60.566391 73.482437Z" style="fill: rgb(100.000000%,100.000000%,100.000000%);stroke: none;"></path>
  <path d="M83.709213 79.097717C83.709213 78.305023,83.394272 77.544876,82.833786 76.984406C82.273315 76.423920,81.513168 76.108978,80.720474 76.108978C79.927780 76.108978,79.167633 76.423920,78.607162 76.984406C78.046677 77.544876,77.731735 78.305023,77.731735 79.097717C77.731735 79.890411,78.046677 80.650558,78.607162 81.211029C79.167633 81.771515,79.927780 82.086456,80.720474 82.086456C81.513168 82.086456,82.273315 81.771515,82.833786 81.211029C83.394272 80.650558,83.709213 79.890411,83.709213 79.097717Z" style="fill: rgb(100.000000%,100.000000%,100.000000%);stroke: none;"></path>
  <path d="M75.177155 76.570343C75.177155 75.777649,74.862213 75.017502,74.301727 74.457031C73.741257 73.896545,72.981110 73.581604,72.188416 73.581604C71.395721 73.581604,70.635574 73.896545,70.075104 74.457031C69.514618 75.017502,69.199677 75.777649,69.199677 76.570343C69.199677 77.363037,69.514618 78.123184,70.075104 78.683655C70.635574 79.244141,71.395721 79.559082,72.188416 79.559082C72.981110 79.559082,73.741257 79.244141,74.301727 78.683655C74.862213 78.123184,75.177155 77.363037,75.177155 76.570343Z" style="fill: rgb(100.000000%,100.000000%,100.000000%);stroke: none;"></path>
  <path d="M91.021881 88.198639C91.021881 87.405945,90.706940 86.645798,90.146454 86.085327C89.585983 85.524841,88.825836 85.209900,88.033142 85.209900C87.240448 85.209900,86.480301 85.524841,85.919830 86.085327C85.359344 86.645798,85.044403 87.405945,85.044403 88.198639C85.044403 88.991333,85.359344 89.751480,85.919830 90.311951C86.480301 90.872437,87.240448 91.187378,88.033142 91.187378C88.825836 91.187378,89.585983 90.872437,90.146454 90.311951C90.706940 89.751480,91.021881 88.991333,91.021881 88.198639Z" style="fill: rgb(100.000000%,100.000000%,100.000000%);stroke: none;"></path>
  <path d="M87.815109 80.371170C87.815109 79.578476,87.500168 78.818329,86.939682 78.257858C86.379211 77.697372,85.619064 77.382431,84.826370 77.382431C84.033676 77.382431,83.273529 77.697372,82.713058 78.257858C82.152573 78.818329,81.837631 79.578476,81.837631 80.371170C81.837631 81.163864,82.152573 81.924011,82.713058 82.484482C83.273529 83.044968,84.033676 83.359909,84.826370 83.359909C85.619064 83.359909,86.379211 83.044968,86.939682 82.484482C87.500168 81.924011,87.815109 81.163864,87.815109 80.371170Z" style="fill: rgb(100.000000%,100.000000%,100.000000%);stroke: none;"></path>
  <path d="M81.142746 103.440628C81.142746 102.647934,80.827805 101.887787,80.267319 101.327316C79.706848 100.766830,78.946701 100.451889,78.154007 100.451889C77.361313 100.451889,76.601166 100.766830,76.040695 101.327316C75.480209 101.887787,75.165268 102.647934,75.165268 103.440628C75.165268 104.233322,75.480209 104.993469,76.040695 105.553940C76.601166 106.114426,77.361313 106.429367,78.154007 106.429367C78.946701 106.429367,79.706848 106.114426,80.267319 105.553940C80.827805 104.993469,81.142746 104.233322,81.142746 103.440628Z" style="fill: rgb(100.000000%,100.000000%,100.000000%);stroke: none;"></path>
  <path d="M88.078888 92.402817C88.078888 91.610123,87.763947 90.849976,87.203461 90.289505C86.642990 89.729019,85.882843 89.414078,85.090149 89.414078C84.297455 89.414078,83.537308 89.729019,82.976837 90.289505C82.416351 90.849976,82.101410 91.610123,82.101410 92.402817C82.101410 93.195511,82.416351 93.955658,82.976837 94.516129C83.537308 95.076614,84.297455 95.391556,85.090149 95.391556C85.882843 95.391556,86.642990 95.076614,87.203461 94.516129C87.763947 93.955658,88.078888 93.195511,88.078888 92.402817Z" style="fill: rgb(100.000000%,100.000000%,100.000000%);stroke: none;"></path>
  <path d="M66.388382 131.392914C66.388382 130.600220,66.073441 129.840073,65.512955 129.279602C64.952484 128.719116,64.192337 128.404175,63.399643 128.404175C62.606949 128.404175,61.846802 128.719116,61.286331 129.279602C60.725845 129.840073,60.410904 130.600220,60.410904 131.392914C60.410904 132.185608,60.725845 132.945755,61.286331 133.506226C61.846802 134.066711,62.606949 134.381653,63.399643 134.381653C64.192337 134.381653,64.952484 134.066711,65.512955 133.506226C66.073441 132.945755,66.388382 132.185608,66.388382 131.392914Z" style="fill: rgb(100.000000%,100.000000%,100.000000%);stroke: none;"></path>
  <path d="M78.636414 111.637665C78.636414 110.844971,78.321472 110.084824,77.760986 109.524353C77.200516 108.963867,76.440369 108.648926,75.647675 108.648926C74.854980 108.648926,74.094833 108.963867,73.534363 109.524353C72.973877 110.084824,72.658936 110.844971,72.658936 111.637665C72.658936 112.430359,72.973877 113.190506,73.534363 113.750977C74.094833 114.311462,74.854980 114.626404,75.647675 114.626404C76.440369 114.626404,77.200516 114.311462,77.760986 113.750977C78.321472 113.190506,78.636414 112.430359,78.636414 111.637665Z" style="fill: rgb(100.000000%,100.000000%,100.000000%);stroke: none;"></path>
  <path d="M19.202148 133.592270C19.202148 132.799576,18.887207 132.039429,18.326721 131.478958C17.766251 130.918472,17.006104 130.603531,16.213409 130.603531C15.420715 130.603531,14.660568 130.918472,14.100098 131.478958C13.539612 132.039429,13.224670 132.799576,13.224670 133.592270C13.224670 134.384964,13.539612 135.145111,14.100098 135.705582C14.660568 136.266068,15.420715 136.581009,16.213409 136.581009C17.006104 136.581009,17.766251 136.266068,18.326721 135.705582C18.887207 135.145111,19.202148 134.384964,19.202148 133.592270Z" style="fill: rgb(100.000000%,100.000000%,100.000000%);stroke: none;"></path>
  <path d="M52.817978 139.924789C52.817978 139.132095,52.503036 138.371948,51.942551 137.811478C51.382080 137.250992,50.621933 136.936050,49.829239 136.936050C49.036545 136.936050,48.276398 137.250992,47.715927 137.811478C47.155441 138.371948,46.840500 139.132095,46.840500 139.924789C46.840500 140.717484,47.155441 141.477631,47.715927 142.038101C48.276398 142.598587,49.036545 142.913528,49.829239 142.913528C50.621933 142.913528,51.382080 142.598587,51.942551 142.038101C52.503036 141.477631,52.817978 140.717484,52.817978 139.924789Z" style="fill: rgb(100.000000%,100.000000%,100.000000%);stroke: none;"></path>
  <path d="M5.951447 73.784973C5.951447 72.992279,5.636505 72.232132,5.076019 71.671661C4.515549 71.111176,3.755402 70.796234,2.962708 70.796234C2.170013 70.796234,1.409866 71.111176,0.849396 71.671661C0.288910 72.232132,-0.026031 72.992279,-0.026031 73.784973C-0.026031 74.577667,0.288910 75.337814,0.849396 75.898285C1.409866 76.458771,2.170013 76.773712,2.962708 76.773712C3.755402 76.773712,4.515549 76.458771,5.076019 75.898285C5.636505 75.337814,5.951447 74.577667,5.951447 73.784973Z" style="fill: rgb(100.000000%,100.000000%,100.000000%);stroke: none;"></path>
  <path d="M9.884888 113.104294C9.884888 112.311600,9.569946 111.551453,9.009460 110.990982C8.448990 110.430496,7.688843 110.115555,6.896149 110.115555C6.103455 110.115555,5.343307 110.430496,4.782837 110.990982C4.222351 111.551453,3.907410 112.311600,3.907410 113.104294C3.907410 113.896988,4.222351 114.657135,4.782837 115.217606C5.343307 115.778091,6.103455 116.093033,6.896149 116.093033C7.688843 116.093033,8.448990 115.778091,9.009460 115.217606C9.569946 114.657135,9.884888 113.896988,9.884888 113.104294Z" style="fill: rgb(100.000000%,100.000000%,100.000000%);stroke: none;"></path>
  <path d="M36.789581 44.869919C36.789581 44.077225,36.474640 43.317078,35.914154 42.756607C35.353683 42.196121,34.593536 41.881180,33.800842 41.881180C33.008148 41.881180,32.248001 42.196121,31.687531 42.756607C31.127045 43.317078,30.812103 44.077225,30.812103 44.869919C30.812103 45.662613,31.127045 46.422760,31.687531 46.983231C32.248001 47.543716,33.008148 47.858658,33.800842 47.858658C34.593536 47.858658,35.353683 47.543716,35.914154 46.983231C36.474640 46.422760,36.789581 45.662613,36.789581 44.869919Z" style="fill: rgb(100.000000%,100.000000%,100.000000%);stroke: none;"></path>
  <path d="M10.679199 53.653381C10.679199 52.860687,10.364258 52.100540,9.803772 51.540070C9.243301 50.979584,8.483154 50.664642,7.690460 50.664642C6.897766 50.664642,6.137619 50.979584,5.577148 51.540070C5.016663 52.100540,4.701721 52.860687,4.701721 53.653381C4.701721 54.446075,5.016663 55.206223,5.577148 55.766693C6.137619 56.327179,6.897766 56.642120,7.690460 56.642120C8.483154 56.642120,9.243301 56.327179,9.803772 55.766693C10.364258 55.206223,10.679199 54.446075,10.679199 53.653381Z" style="fill: rgb(100.000000%,100.000000%,100.000000%);stroke: none;"></path>
  <path d="M52.682678 62.503708C52.682678 61.711014,52.367737 60.950867,51.807251 60.390396C51.246780 59.829910,50.486633 59.514969,49.693939 59.514969C48.901245 59.514969,48.141098 59.829910,47.580627 60.390396C47.020142 60.950867,46.705200 61.711014,46.705200 62.503708C46.705200 63.296402,47.020142 64.056549,47.580627 64.617020C48.141098 65.177505,48.901245 65.492447,49.693939 65.492447C50.486633 65.492447,51.246780 65.177505,51.807251 64.617020C52.367737 64.056549,52.682678 63.296402,52.682678 62.503708Z" style="fill: rgb(100.000000%,100.000000%,100.000000%);stroke: none;"></path>
  <path d="M47.159409 48.357361C47.159409 47.564667,46.844467 46.804520,46.283981 46.244049C45.723511 45.683563,44.963364 45.368622,44.170670 45.368622C43.377975 45.368622,42.617828 45.683563,42.057358 46.244049C41.496872 46.804520,41.181931 47.564667,41.181931 48.357361C41.181931 49.150055,41.496872 49.910202,42.057358 50.470673C42.617828 51.031158,43.377975 51.346100,44.170670 51.346100C44.963364 51.346100,45.723511 51.031158,46.283981 50.470673C46.844467 49.910202,47.159409 49.150055,47.159409 48.357361Z" style="fill: rgb(100.000000%,100.000000%,100.000000%);stroke: none;"></path>
  <path d="M49.425873 81.394470C49.425873 80.601776,49.110931 79.841629,48.550446 79.281158C47.989975 78.720673,47.229828 78.405731,46.437134 78.405731C45.644440 78.405731,44.884293 78.720673,44.323822 79.281158C43.763336 79.841629,43.448395 80.601776,43.448395 81.394470C43.448395 82.187164,43.763336 82.947311,44.323822 83.507782C44.884293 84.068268,45.644440 84.383209,46.437134 84.383209C47.229828 84.383209,47.989975 84.068268,48.550446 83.507782C49.110931 82.947311,49.425873 82.187164,49.425873 81.394470Z" style="fill: rgb(100.000000%,100.000000%,100.000000%);stroke: none;"></path>
  <path d="M51.189392 68.350937C51.189392 67.558243,50.874451 66.798096,50.313965 66.237625C49.753494 65.677139,48.993347 65.362198,48.200653 65.362198C47.407959 65.362198,46.647812 65.677139,46.087341 66.237625C45.526855 66.798096,45.211914 67.558243,45.211914 68.350937C45.211914 69.143631,45.526855 69.903778,46.087341 70.464249C46.647812 71.024734,47.407959 71.339676,48.200653 71.339676C48.993347 71.339676,49.753494 71.024734,50.313965 70.464249C50.874451 69.903778,51.189392 69.143631,51.189392 68.350937Z" style="fill: rgb(100.000000%,100.000000%,100.000000%);stroke: none;"></path>
  <path d="M45.839279 110.162994C45.839279 109.370300,45.524338 108.610153,44.963852 108.049683C44.403381 107.489197,43.643234 107.174255,42.850540 107.174255C42.057846 107.174255,41.297699 107.489197,40.737228 108.049683C40.176743 108.610153,39.861801 109.370300,39.861801 110.162994C39.861801 110.955688,40.176743 111.715836,40.737228 112.276306C41.297699 112.836792,42.057846 113.151733,42.850540 113.151733C43.643234 113.151733,44.403381 112.836792,44.963852 112.276306C45.524338 111.715836,45.839279 110.955688,45.839279 110.162994Z" style="fill: rgb(100.000000%,100.000000%,100.000000%);stroke: none;"></path>
  <path d="M49.725723 88.892197C49.725723 88.099503,49.410782 87.339355,48.850296 86.778885C48.289825 86.218399,47.529678 85.903458,46.736984 85.903458C45.944290 85.903458,45.184143 86.218399,44.623672 86.778885C44.063187 87.339355,43.748245 88.099503,43.748245 88.892197C43.748245 89.684891,44.063187 90.445038,44.623672 91.005508C45.184143 91.565994,45.944290 91.880936,46.736984 91.880936C47.529678 91.880936,48.289825 91.565994,48.850296 91.005508C49.410782 90.445038,49.725723 89.684891,49.725723 88.892197Z" style="fill: rgb(100.000000%,100.000000%,100.000000%);stroke: none;"></path>
  <path d="M40.268677 160.893539C40.268677 160.100845,39.953735 159.340698,39.393250 158.780228C38.832779 158.219742,38.072632 157.904800,37.279938 157.904800C36.487244 157.904800,35.727097 158.219742,35.166626 158.780228C34.606140 159.340698,34.291199 160.100845,34.291199 160.893539C34.291199 161.686234,34.606140 162.446381,35.166626 163.006851C35.727097 163.567337,36.487244 163.882278,37.279938 163.882278C38.072632 163.882278,38.832779 163.567337,39.393250 163.006851C39.953735 162.446381,40.268677 161.686234,40.268677 160.893539Z" style="fill: rgb(100.000000%,100.000000%,100.000000%);stroke: none;"></path>
  <path d="M37.470261 122.979385C37.470261 122.186691,37.155319 121.426544,36.594833 120.866074C36.034363 120.305588,35.274216 119.990646,34.481522 119.990646C33.688828 119.990646,32.928680 120.305588,32.368210 120.866074C31.807724 121.426544,31.492783 122.186691,31.492783 122.979385C31.492783 123.772079,31.807724 124.532227,32.368210 125.092697C32.928680 125.653183,33.688828 125.968124,34.481522 125.968124C35.274216 125.968124,36.034363 125.653183,36.594833 125.092697C37.155319 124.532227,37.470261 123.772079,37.470261 122.979385Z" style="fill: rgb(100.000000%,100.000000%,100.000000%);stroke: none;"></path>
  <path d="M79.456177 188.334030C97.965408 202.864929,124.927109 198.566254,138.000000 179.000000C144.985413 168.544907,146.238983 155.432709,142.846939 143.301514C141.458969 138.337631,139.310226 133.614883,138.000000 128.629379C137.113037 125.254425,135.778748 121.574890,132.522842 121.523956C129.288864 121.473358,127.854965 125.074890,126.750977 128.330322C124.704880 134.363831,121.006714 139.759628,119.503098 145.959091C116.046906 160.209106,124.044586 174.779434,138.000000 179.000000C156.551102 184.610443,174.044327 170.408310,183.370651 152.067474C194.413391 130.351181,194.408173 103.601410,175.512054 90.679779C165.685989 83.960464,153.267380 83.910263,141.382858 84.023849C135.101059 84.083893,128.818756 84.134201,122.537262 84.043976C118.576904 83.987091,114.249512 84.190659,112.068909 87.413086C109.560364 91.120132,111.845627 95.699326,113.158401 99.999054C114.840775 105.509369,114.551254 111.551651,117.127838 116.727234C119.385742 121.262695,123.511749 124.455948,126.750977 128.330322C128.305511 130.189682,129.916443 132.295181,132.325775 132.364517C134.710358 132.433136,136.444687 130.468765,138.000000 128.629379C141.741852 124.204117,145.896439 120.150238,150.300049 116.383728C159.521667 108.496277,170.050247 101.570145,175.512054 90.679779C185.736588 70.292938,175.905014 46.551849,158.718536 30.373993C144.073853 16.588745,123.667679 8.625793,106.952377 18.324799C94.126373 25.767044,89.579727 40.986771,85.429474 55.254654C83.165192 63.038895,80.761292 70.823120,76.935883 77.976639C74.932739 81.722519,72.599197 85.744553,74.130249 89.676559C75.490128 93.168991,79.252884 94.690292,82.637787 96.305374C87.571075 98.659256,92.271469 101.826721,97.738297 102.305969C102.961502 102.763855,107.975784 100.658493,113.158401 99.999054C116.663254 99.553101,120.535446 99.578979,122.855057 96.904327C125.861984 93.437149,124.152359 88.472549,122.537262 84.043976C119.791824 76.516068,118.318542 68.605881,117.525742 60.634979C116.050140 45.799164,116.492935 29.867325,106.952377 18.324799C95.148331 4.043823,74.482071 2.644241,56.836212 9.806686C40.171387 16.570923,26.771240 30.302505,24.529938 47.988632C23.269562 57.934174,26.474060 68.358139,35.308319 72.382309C39.076126 74.098618,43.301392 74.158005,47.432434 74.032898C52.495041 73.879578,57.577652 73.482437,62.598495 74.180740C67.506516 74.863358,72.188416 76.570343,76.935883 77.976639C80.720474 79.097717,84.826370 80.371170,86.308762 83.989578C88.033142 88.198639,85.090149 92.402817,82.637787 96.305374C78.154007 103.440628,75.647675 111.637665,71.207458 118.799423C63.399643 131.392914,49.829239 139.924789,35.533478 137.231766C16.213409 133.592270,6.896149 113.104294,4.843307 92.583801C2.962708 73.784973,7.690460 53.653381,24.529938 47.988632C33.800842 44.869919,44.170670 48.357361,47.599411 57.139145C49.693939 62.503708,48.200653 68.350937,47.432434 74.032898C46.437134 81.394470,46.736984 88.892197,45.401291 96.202560C42.850540 110.162994,34.481522 122.979385,35.533478 137.231766C37.279938 160.893539,60.779434 173.671631,79.456177 188.334030" style="stroke:rgb(0.000000%,0.000000%,0.000000%); stroke-width: 0.498138;stroke-linecap: round;stroke-linejoin: round;stroke-miterlimit: 10.000000;fill: none;"></path>
  <path d="M79.456177 188.334030C97.965408 202.864929,124.927109 198.566254,138.000000 179.000000" style="stroke:rgb(0.000000%,0.000000%,0.000000%); stroke-width: 1.494400;stroke-linecap: round;stroke-linejoin: round;stroke-miterlimit: 10.000000;fill: none;"></path>
  <path d="M35.533478 137.231766C37.279938 160.893539,60.779434 173.671631,79.456177 188.334030" style="stroke:rgb(0.000000%,0.000000%,0.000000%); stroke-width: 1.494400;stroke-linecap: round;stroke-linejoin: round;stroke-miterlimit: 10.000000;fill: none;"></path>
  <path d="M140.988739 179.000000C140.988739 178.207306,140.673798 177.447159,140.113312 176.886688C139.552841 176.326202,138.792694 176.011261,138.000000 176.011261C137.207306 176.011261,136.447159 176.326202,135.886688 176.886688C135.326202 177.447159,135.011261 178.207306,135.011261 179.000000C135.011261 179.792694,135.326202 180.552841,135.886688 181.113312C136.447159 181.673798,137.207306 181.988739,138.000000 181.988739C138.792694 181.988739,139.552841 181.673798,140.113312 181.113312C140.673798 180.552841,140.988739 179.792694,140.988739 179.000000Z" style="fill: rgb(100.000000%,100.000000%,100.000000%);stroke: none;"></path>
  <path d="M122.222198 166.240601C125.534027 172.192001,131.022293 176.889725,138.000000 179.000000C147.275558 181.805222,156.286636 179.657288,164.144623 174.515457" style="stroke:rgb(0.000000%,0.000000%,0.000000%); stroke-width: 0.498138;stroke-linecap: round;stroke-linejoin: round;stroke-miterlimit: 10.000000;fill: none;"></path>
  <path d="M129.739716 128.330322C129.739716 127.537628,129.424774 126.777481,128.864288 126.217010C128.303818 125.656525,127.543671 125.341583,126.750977 125.341583C125.958282 125.341583,125.198135 125.656525,124.637665 126.217010C124.077179 126.777481,123.762238 127.537628,123.762238 128.330322C123.762238 129.123016,124.077179 129.883163,124.637665 130.443634C125.198135 131.004120,125.958282 131.319061,126.750977 131.319061C127.543671 131.319061,128.303818 131.004120,128.864288 130.443634C129.424774 129.883163,129.739716 129.123016,129.739716 128.330322Z" style="fill: rgb(100.000000%,100.000000%,100.000000%);stroke: none;"></path>
  <path d="M121.571411 122.776703C123.290054 124.626236,125.131363 126.393143,126.750977 128.330322C127.528244 129.260010,128.319611 130.251221,129.217834 131.018692" style="stroke:rgb(0.000000%,0.000000%,0.000000%); stroke-width: 0.498138;stroke-linecap: round;stroke-linejoin: round;stroke-miterlimit: 10.000000;fill: none;"></path>
  <path d="M178.500793 90.679779C178.500793 89.887085,178.185852 89.126938,177.625366 88.566467C177.064896 88.005981,176.304749 87.691040,175.512054 87.691040C174.719360 87.691040,173.959213 88.005981,173.398743 88.566467C172.838257 89.126938,172.523315 89.887085,172.523315 90.679779C172.523315 91.472473,172.838257 92.232620,173.398743 92.793091C173.959213 93.353577,174.719360 93.668518,175.512054 93.668518C176.304749 93.668518,177.064896 93.353577,177.625366 92.793091C178.185852 92.232620,178.500793 91.472473,178.500793 90.679779Z" style="fill: rgb(100.000000%,100.000000%,100.000000%);stroke: none;"></path>
  <path d="M164.315994 104.657837C168.783569 100.579071,172.781158 96.124954,175.512054 90.679779C180.624329 80.486359,180.722565 69.454376,177.394424 58.948517" style="stroke:rgb(0.000000%,0.000000%,0.000000%); stroke-width: 0.498138;stroke-linecap: round;stroke-linejoin: round;stroke-miterlimit: 10.000000;fill: none;"></path>
  <path d="M116.147141 99.999054C116.147141 99.206360,115.832199 98.446213,115.271713 97.885742C114.711243 97.325256,113.951096 97.010315,113.158401 97.010315C112.365707 97.010315,111.605560 97.325256,111.045090 97.885742C110.484604 98.446213,110.169662 99.206360,110.169662 99.999054C110.169662 100.791748,110.484604 101.551895,111.045090 102.112366C111.605560 102.672852,112.365707 102.987793,113.158401 102.987793C113.951096 102.987793,114.711243 102.672852,115.271713 102.112366C115.832199 101.551895,116.147141 100.791748,116.147141 99.999054Z" style="fill: rgb(100.000000%,100.000000%,100.000000%);stroke: none;"></path>
  <path d="M105.463577 101.571487C108.017868 101.019958,110.567093 100.328766,113.158401 99.999054C114.910828 99.776077,116.755096 99.671051,118.451202 99.287445" style="stroke:rgb(0.000000%,0.000000%,0.000000%); stroke-width: 0.498138;stroke-linecap: round;stroke-linejoin: round;stroke-miterlimit: 10.000000;fill: none;"></path>
  <path d="M140.988739 128.629379C140.988739 127.836685,140.673798 127.076538,140.113312 126.516068C139.552841 125.955582,138.792694 125.640640,138.000000 125.640640C137.207306 125.640640,136.447159 125.955582,135.886688 126.516068C135.326202 127.076538,135.011261 127.836685,135.011261 128.629379C135.011261 129.422073,135.326202 130.182220,135.886688 130.742691C136.447159 131.303177,137.207306 131.618118,138.000000 131.618118C138.792694 131.618118,139.552841 131.303177,140.113312 130.742691C140.673798 130.182220,140.988739 129.422073,140.988739 128.629379Z" style="fill: rgb(100.000000%,100.000000%,100.000000%);stroke: none;"></path>
  <path d="M140.394302 135.973541C139.519852 133.549194,138.655106 131.122131,138.000000 128.629379C137.556519 126.941895,137.001205 125.178268,136.149765 123.830154" style="stroke:rgb(0.000000%,0.000000%,0.000000%); stroke-width: 0.498138;stroke-linecap: round;stroke-linejoin: round;stroke-miterlimit: 10.000000;fill: none;"></path>
  <path d="M109.941116 18.324799C109.941116 17.532104,109.626175 16.771957,109.065689 16.211487C108.505219 15.651001,107.745071 15.336060,106.952377 15.336060C106.159683 15.336060,105.399536 15.651001,104.839066 16.211487C104.278580 16.771957,103.963638 17.532104,103.963638 18.324799C103.963638 19.117493,104.278580 19.877640,104.839066 20.438110C105.399536 20.998596,106.159683 21.313538,106.952377 21.313538C107.745071 21.313538,108.505219 20.998596,109.065689 20.438110C109.626175 19.877640,109.941116 19.117493,109.941116 18.324799Z" style="fill: rgb(100.000000%,100.000000%,100.000000%);stroke: none;"></path>
  <path d="M115.263412 38.244888C113.997101 30.964645,111.722656 24.096054,106.952377 18.324799C101.050354 11.184311,92.932770 7.264160,84.084961 6.024445" style="stroke:rgb(0.000000%,0.000000%,0.000000%); stroke-width: 0.498138;stroke-linecap: round;stroke-linejoin: round;stroke-miterlimit: 10.000000;fill: none;"></path>
  <path d="M85.626526 96.305374C85.626526 95.512680,85.311584 94.752533,84.751099 94.192062C84.190628 93.631577,83.430481 93.316635,82.637787 93.316635C81.845093 93.316635,81.084946 93.631577,80.524475 94.192062C79.963989 94.752533,79.649048 95.512680,79.649048 96.305374C79.649048 97.098068,79.963989 97.858215,80.524475 98.418686C81.084946 98.979172,81.845093 99.294113,82.637787 99.294113C83.430481 99.294113,84.190628 98.979172,84.751099 98.418686C85.311584 97.858215,85.626526 97.098068,85.626526 96.305374Z" style="fill: rgb(100.000000%,100.000000%,100.000000%);stroke: none;"></path>
  <path d="M77.624649 93.694977C79.158432 94.713745,80.945343 95.497833,82.637787 96.305374C85.104431 97.482315,87.512863 98.862656,89.987976 100.008667" style="stroke:rgb(0.000000%,0.000000%,0.000000%); stroke-width: 0.498138;stroke-linecap: round;stroke-linejoin: round;stroke-miterlimit: 10.000000;fill: none;"></path>
  <path d="M125.526001 84.043976C125.526001 83.251282,125.211060 82.491135,124.650574 81.930664C124.090103 81.370178,123.329956 81.055237,122.537262 81.055237C121.744568 81.055237,120.984421 81.370178,120.423950 81.930664C119.863464 82.491135,119.548523 83.251282,119.548523 84.043976C119.548523 84.836670,119.863464 85.596817,120.423950 86.157288C120.984421 86.717773,121.744568 87.032715,122.537262 87.032715C123.329956 87.032715,124.090103 86.717773,124.650574 86.157288C125.211060 85.596817,125.526001 84.836670,125.526001 84.043976Z" style="fill: rgb(100.000000%,100.000000%,100.000000%);stroke: none;"></path>
  <path d="M131.959930 84.090271C128.818954 84.099060,125.678009 84.089081,122.537262 84.043976C120.557083 84.015533,118.485138 84.052216,116.635666 84.498810" style="stroke:rgb(0.000000%,0.000000%,0.000000%); stroke-width: 0.498138;stroke-linecap: round;stroke-linejoin: round;stroke-miterlimit: 10.000000;fill: none;"></path>
  <path d="M27.518677 47.988632C27.518677 47.195938,27.203735 46.435791,26.643250 45.875320C26.082779 45.314835,25.322632 44.999893,24.529938 44.999893C23.737244 44.999893,22.977097 45.314835,22.416626 45.875320C21.856140 46.435791,21.541199 47.195938,21.541199 47.988632C21.541199 48.781326,21.856140 49.541473,22.416626 50.101944C22.977097 50.662430,23.737244 50.977371,24.529938 50.977371C25.322632 50.977371,26.082779 50.662430,26.643250 50.101944C27.203735 49.541473,27.518677 48.781326,27.518677 47.988632Z" style="fill: rgb(100.000000%,100.000000%,100.000000%);stroke: none;"></path>
  <path d="M35.274246 24.801971C29.560944 31.291153,25.650589 39.145569,24.529938 47.988632C23.899750 52.961411,24.385788 58.053787,26.133652 62.405991" style="stroke:rgb(0.000000%,0.000000%,0.000000%); stroke-width: 0.498138;stroke-linecap: round;stroke-linejoin: round;stroke-miterlimit: 10.000000;fill: none;"></path>
  <path d="M79.924622 77.976639C79.924622 77.183945,79.609680 76.423798,79.049194 75.863327C78.488724 75.302841,77.728577 74.987900,76.935883 74.987900C76.143188 74.987900,75.383041 75.302841,74.822571 75.863327C74.262085 76.423798,73.947144 77.183945,73.947144 77.976639C73.947144 78.769333,74.262085 79.529480,74.822571 80.089951C75.383041 80.650436,76.143188 80.965378,76.935883 80.965378C77.728577 80.965378,78.488724 80.650436,79.049194 80.089951C79.609680 79.529480,79.924622 78.769333,79.924622 77.976639Z" style="fill: rgb(100.000000%,100.000000%,100.000000%);stroke: none;"></path>
  <path d="M69.827408 75.807327C72.204819 76.495178,74.562149 77.273499,76.935883 77.976639C78.828186 78.537186,80.800812 79.135818,82.485657 80.046616" style="stroke:rgb(0.000000%,0.000000%,0.000000%); stroke-width: 0.498138;stroke-linecap: round;stroke-linejoin: round;stroke-miterlimit: 10.000000;fill: none;"></path>
  <path d="M38.522217 137.231766C38.522217 136.439072,38.207275 135.678925,37.646790 135.118454C37.086319 134.557968,36.326172 134.243027,35.533478 134.243027C34.740784 134.243027,33.980637 134.557968,33.420166 135.118454C32.859680 135.678925,32.544739 136.439072,32.544739 137.231766C32.544739 138.024460,32.859680 138.784607,33.420166 139.345078C33.980637 139.905563,34.740784 140.220505,35.533478 140.220505C36.326172 140.220505,37.086319 139.905563,37.646790 139.345078C38.207275 138.784607,38.522217 138.024460,38.522217 137.231766Z" style="fill: rgb(100.000000%,100.000000%,100.000000%);stroke: none;"></path>
  <path d="M55.803436 133.748047C49.647888 137.118576,42.681351 138.578278,35.533478 137.231766C25.873444 135.412018,18.714111 129.380142,13.713181 121.238144" style="stroke:rgb(0.000000%,0.000000%,0.000000%); stroke-width: 0.498138;stroke-linecap: round;stroke-linejoin: round;stroke-miterlimit: 10.000000;fill: none;"></path>
  <path d="M50.421173 74.032898C50.421173 73.240204,50.106232 72.480057,49.545746 71.919586C48.985275 71.359100,48.225128 71.044159,47.432434 71.044159C46.639740 71.044159,45.879593 71.359100,45.319122 71.919586C44.758636 72.480057,44.443695 73.240204,44.443695 74.032898C44.443695 74.825592,44.758636 75.585739,45.319122 76.146210C45.879593 76.706696,46.639740 77.021637,47.432434 77.021637C48.225128 77.021637,48.985275 76.706696,49.545746 76.146210C50.106232 75.585739,50.421173 74.825592,50.421173 74.032898Z" style="fill: rgb(100.000000%,100.000000%,100.000000%);stroke: none;"></path>
  <path d="M48.589447 65.467010C48.381912 68.309631,47.816544 71.191925,47.432434 74.032898C46.934784 77.713684,46.760925 81.428513,46.544510 85.136948" style="stroke:rgb(0.000000%,0.000000%,0.000000%); stroke-width: 0.498138;stroke-linecap: round;stroke-linejoin: round;stroke-miterlimit: 10.000000;fill: none;"></path>
  <path d="M132.522842 121.523956C129.935654 121.483475,128.500519 123.780380,127.464706 126.367554" style="stroke:rgb(0.000000%,0.000000%,0.000000%); stroke-width: 0.498138;stroke-linecap: round;stroke-linejoin: round;stroke-miterlimit: 10.000000;fill: none;"></path>
  <path d="M127.705460 123.377258C127.506912 124.302277,127.452347 125.326859,127.464706 126.367554C128.191849 125.622940,128.954941 124.937042,129.749435 124.423370Z" style="stroke:rgb(0.000000%,0.000000%,0.000000%); stroke-width: 0.498138;fill: rgb(0.000000%,0.000000%,0.000000%);"></path>
  <path d="M119.503098 145.959091C116.738129 157.359146,121.303696 168.964203,130.385742 175.311127" style="stroke:rgb(0.000000%,0.000000%,0.000000%); stroke-width: 0.498138;stroke-linecap: round;stroke-linejoin: round;stroke-miterlimit: 10.000000;fill: none;"></path>
  <path d="M127.497177 174.501251C128.439911 174.823471,129.403931 175.094406,130.385742 175.311127C129.844757 174.463638,129.354675 173.590378,128.915939 172.695923Z" style="stroke:rgb(0.000000%,0.000000%,0.000000%); stroke-width: 0.498138;fill: rgb(0.000000%,0.000000%,0.000000%);"></path>
  <path d="M112.068909 87.413086C110.062057 90.378738,111.123276 93.902573,112.300171 97.394928" style="stroke:rgb(0.000000%,0.000000%,0.000000%); stroke-width: 0.498138;stroke-linecap: round;stroke-linejoin: round;stroke-miterlimit: 10.000000;fill: none;"></path>
  <path d="M110.388611 95.082687C110.978088 95.866989,111.635559 96.633728,112.300171 97.394928C112.368500 96.386719,112.445770 95.379654,112.583557 94.408249Z" style="stroke:rgb(0.000000%,0.000000%,0.000000%); stroke-width: 0.498138;fill: rgb(0.000000%,0.000000%,0.000000%);"></path>
  <path d="M132.325775 132.364517C134.233444 132.419418,135.724960 131.173187,137.041580 129.730728" style="stroke:rgb(0.000000%,0.000000%,0.000000%); stroke-width: 0.498138;stroke-linecap: round;stroke-linejoin: round;stroke-miterlimit: 10.000000;fill: none;"></path>
  <path d="M135.693649 132.410828C136.272797 131.640961,136.690277 130.701843,137.041580 129.730728C136.106476 130.168976,135.147217 130.537811,134.193314 130.672668Z" style="stroke:rgb(0.000000%,0.000000%,0.000000%); stroke-width: 0.498138;fill: rgb(0.000000%,0.000000%,0.000000%);"></path>
  <path d="M150.300049 116.383728C157.677368 110.073746,165.891159 104.379013,171.678009 96.777603" style="stroke:rgb(0.000000%,0.000000%,0.000000%); stroke-width: 0.498138;stroke-linecap: round;stroke-linejoin: round;stroke-miterlimit: 10.000000;fill: none;"></path>
  <path d="M170.819489 99.652237C171.135193 98.702332,171.422882 97.744522,171.678009 96.777603C170.813873 97.280899,169.933167 97.754730,169.038239 98.203171Z" style="stroke:rgb(0.000000%,0.000000%,0.000000%); stroke-width: 0.498138;fill: rgb(0.000000%,0.000000%,0.000000%);"></path>
  <path d="M74.130249 89.676559C75.218155 92.470520,77.843918 94.002930,80.583786 95.331070" style="stroke:rgb(0.000000%,0.000000%,0.000000%); stroke-width: 0.498138;stroke-linecap: round;stroke-linejoin: round;stroke-miterlimit: 10.000000;fill: none;"></path>
  <path d="M77.599792 95.020920C78.569260 95.186966,79.575027 95.271820,80.583786 95.331070C79.912399 94.575867,79.261215 93.804672,78.693146 93.001724Z" style="stroke:rgb(0.000000%,0.000000%,0.000000%); stroke-width: 0.498138;fill: rgb(0.000000%,0.000000%,0.000000%);"></path>
  <path d="M117.525742 60.634979C116.345261 48.766281,116.392548 36.196121,111.573868 25.733032" style="stroke:rgb(0.000000%,0.000000%,0.000000%); stroke-width: 0.498138;stroke-linecap: round;stroke-linejoin: round;stroke-miterlimit: 10.000000;fill: none;"></path>
  <path d="M113.695908 27.853455C113.014389 27.120087,112.308029 26.412201,111.573868 25.733032C111.612747 26.732422,111.611649 27.732422,111.574966 28.732910Z" style="stroke:rgb(0.000000%,0.000000%,0.000000%); stroke-width: 0.498138;fill: rgb(0.000000%,0.000000%,0.000000%);"></path>
  <path d="M86.308762 83.989578C87.688278 87.356842,86.080643 90.720978,84.126785 93.930054" style="stroke:rgb(0.000000%,0.000000%,0.000000%); stroke-width: 0.498138;stroke-linecap: round;stroke-linejoin: round;stroke-miterlimit: 10.000000;fill: none;"></path>
  <path d="M84.464066 90.949005C84.410248 91.928467,84.282272 92.929642,84.126785 93.930054C84.944138 93.332626,85.742584 92.715179,86.473221 92.060669Z" style="stroke:rgb(0.000000%,0.000000%,0.000000%); stroke-width: 0.498138;fill: rgb(0.000000%,0.000000%,0.000000%);"></path>
  <path d="M71.207458 118.799423C64.961182 128.874252,55.026825 136.349640,43.983475 137.557907" style="stroke:rgb(0.000000%,0.000000%,0.000000%); stroke-width: 0.498138;stroke-linecap: round;stroke-linejoin: round;stroke-miterlimit: 10.000000;fill: none;"></path>
  <path d="M46.536865 135.983139C45.714096 136.549652,44.862747 137.075638,43.983475 137.557907C44.946213 137.838638,45.920151 138.068726,46.902496 138.249954Z" style="stroke:rgb(0.000000%,0.000000%,0.000000%); stroke-width: 0.498138;fill: rgb(0.000000%,0.000000%,0.000000%);"></path>
  <path d="M47.599411 57.139145C49.275040 61.430817,48.654449 66.031387,47.945862 70.609131" style="stroke:rgb(0.000000%,0.000000%,0.000000%); stroke-width: 0.498138;stroke-linecap: round;stroke-linejoin: round;stroke-miterlimit: 10.000000;fill: none;"></path>
  <path d="M47.202026 67.702713C47.467072 68.663177,47.708572 69.635864,47.945862 70.609131C48.466293 69.753143,48.983337 68.894592,49.475067 68.028030Z" style="stroke:rgb(0.000000%,0.000000%,0.000000%); stroke-width: 0.498138;fill: rgb(0.000000%,0.000000%,0.000000%);"></path>
  <path d="M76.465530 191.044235L82.446823 191.044235L82.446823 183.623840L76.465530 183.623840Z" style="fill: rgb(100.000000%,100.000000%,100.000000%);stroke: none;"></path>
  <path d="M76.465530 193.044235L82.446823 193.044235L82.446823 185.623840L76.465530 185.623840Z" style="fill: rgb(100.000000%,100.000000%,100.000000%);stroke: none;"></path>
  <g transform="translate(76.965530 191.544235)" style="fill: rgb(0.000000%,0.000000%,0.000000%);">
    <use xlink:href="#GLYPHcmr10_49"></use>
  </g>
  <path d="M139.856293 146.011719L145.837585 146.011719L145.837585 138.591324L139.856293 138.591324Z" style="fill: rgb(100.000000%,100.000000%,100.000000%);stroke: none;"></path>
  <path d="M139.856293 148.011719L145.837585 148.011719L145.837585 140.591324L139.856293 140.591324Z" style="fill: rgb(100.000000%,100.000000%,100.000000%);stroke: none;"></path>
  <g transform="translate(140.356293 146.511719)" style="fill: rgb(0.000000%,0.000000%,0.000000%);">
    <use xlink:href="#GLYPHcmr10_50"></use>
  </g>
  <path d="M180.380005 154.777679L186.361298 154.777679L186.361298 147.357285L180.380005 147.357285Z" style="fill: rgb(100.000000%,100.000000%,100.000000%);stroke: none;"></path>
  <path d="M180.380005 156.777679L186.361298 156.777679L186.361298 149.357285L180.380005 149.357285Z" style="fill: rgb(100.000000%,100.000000%,100.000000%);stroke: none;"></path>
  <g transform="translate(180.880005 155.277679)" style="fill: rgb(0.000000%,0.000000%,0.000000%);">
    <use xlink:href="#GLYPHcmr10_51"></use>
  </g>
  <path d="M138.392212 86.734055L144.373505 86.734055L144.373505 79.313660L138.392212 79.313660Z" style="fill: rgb(100.000000%,100.000000%,100.000000%);stroke: none;"></path>
  <path d="M138.392212 88.734055L144.373505 88.734055L144.373505 81.313660L138.392212 81.313660Z" style="fill: rgb(100.000000%,100.000000%,100.000000%);stroke: none;"></path>
  <g transform="translate(138.892212 87.234055)" style="fill: rgb(0.000000%,0.000000%,0.000000%);">
    <use xlink:href="#GLYPHcmr10_52"></use>
  </g>
  <path d="M114.137192 119.437439L120.118484 119.437439L120.118484 112.017044L114.137192 112.017044Z" style="fill: rgb(100.000000%,100.000000%,100.000000%);stroke: none;"></path>
  <path d="M114.137192 121.437439L120.118484 121.437439L120.118484 114.017044L114.137192 114.017044Z" style="fill: rgb(100.000000%,100.000000%,100.000000%);stroke: none;"></path>
  <g transform="translate(114.637192 119.937439)" style="fill: rgb(0.000000%,0.000000%,0.000000%);">
    <use xlink:href="#GLYPHcmr10_53"></use>
  </g>
  <path d="M155.727890 33.084198L161.709183 33.084198L161.709183 25.663803L155.727890 25.663803Z" style="fill: rgb(100.000000%,100.000000%,100.000000%);stroke: none;"></path>
  <path d="M155.727890 35.084198L161.709183 35.084198L161.709183 27.663803L155.727890 27.663803Z" style="fill: rgb(100.000000%,100.000000%,100.000000%);stroke: none;"></path>
  <g transform="translate(156.227890 33.584198)" style="fill: rgb(0.000000%,0.000000%,0.000000%);">
    <use xlink:href="#GLYPHcmr10_54"></use>
  </g>
  <path d="M82.438828 57.964859L88.420120 57.964859L88.420120 50.544464L82.438828 50.544464Z" style="fill: rgb(100.000000%,100.000000%,100.000000%);stroke: none;"></path>
  <path d="M82.438828 59.964859L88.420120 59.964859L88.420120 52.544464L82.438828 52.544464Z" style="fill: rgb(100.000000%,100.000000%,100.000000%);stroke: none;"></path>
  <g transform="translate(82.938828 58.464859)" style="fill: rgb(0.000000%,0.000000%,0.000000%);">
    <use xlink:href="#GLYPHcmr10_55"></use>
  </g>
  <path d="M94.747650 105.016174L100.728943 105.016174L100.728943 97.595779L94.747650 97.595779Z" style="fill: rgb(100.000000%,100.000000%,100.000000%);stroke: none;"></path>
  <path d="M94.747650 107.016174L100.728943 107.016174L100.728943 99.595779L94.747650 99.595779Z" style="fill: rgb(100.000000%,100.000000%,100.000000%);stroke: none;"></path>
  <g transform="translate(95.247650 105.516174)" style="fill: rgb(0.000000%,0.000000%,0.000000%);">
    <use xlink:href="#GLYPHcmr10_56"></use>
  </g>
  <path d="M53.845566 12.516891L59.826859 12.516891L59.826859 5.096497L53.845566 5.096497Z" style="fill: rgb(100.000000%,100.000000%,100.000000%);stroke: none;"></path>
  <path d="M53.845566 14.516891L59.826859 14.516891L59.826859 7.096497L53.845566 7.096497Z" style="fill: rgb(100.000000%,100.000000%,100.000000%);stroke: none;"></path>
  <g transform="translate(54.345566 13.016891)" style="fill: rgb(0.000000%,0.000000%,0.000000%);">
    <use xlink:href="#GLYPHcmr10_57"></use>
  </g>
  <path d="M57.117142 76.890945L68.079849 76.890945L68.079849 69.470551L57.117142 69.470551Z" style="fill: rgb(100.000000%,100.000000%,100.000000%);stroke: none;"></path>
  <path d="M57.117142 78.890945L68.079849 78.890945L68.079849 71.470551L57.117142 71.470551Z" style="fill: rgb(100.000000%,100.000000%,100.000000%);stroke: none;"></path>
  <g transform="translate(57.617142 77.390945)" style="fill: rgb(0.000000%,0.000000%,0.000000%);">
    <use xlink:href="#GLYPHcmr10_49"></use>
    <use xlink:href="#GLYPHcmr10_48" x="5.000095"></use>
  </g>
  <path d="M-0.638046 95.294006L10.324661 95.294006L10.324661 87.873611L-0.638046 87.873611Z" style="fill: rgb(100.000000%,100.000000%,100.000000%);stroke: none;"></path>
  <path d="M-0.638046 97.294006L10.324661 97.294006L10.324661 89.873611L-0.638046 89.873611Z" style="fill: rgb(100.000000%,100.000000%,100.000000%);stroke: none;"></path>
  <g transform="translate(-0.138046 95.794006)" style="fill: rgb(0.000000%,0.000000%,0.000000%);">
    <use xlink:href="#GLYPHcmr10_49"></use>
    <use xlink:href="#GLYPHcmr10_49" x="5.000095"></use>
  </g>
  <path d="M39.919937 98.912766L50.882645 98.912766L50.882645 91.492371L39.919937 91.492371Z" style="fill: rgb(100.000000%,100.000000%,100.000000%);stroke: none;"></path>
  <path d="M39.919937 100.912766L50.882645 100.912766L50.882645 93.492371L39.919937 93.492371Z" style="fill: rgb(100.000000%,100.000000%,100.000000%);stroke: none;"></path>
  <g transform="translate(40.419937 99.412766)" style="fill: rgb(0.000000%,0.000000%,0.000000%);">
    <use xlink:href="#GLYPHcmr10_49"></use>
    <use xlink:href="#GLYPHcmr10_50" x="5.000095"></use>
  </g>
</svg>
