<?xml version="1.0"?>
<!-- Created by MetaPost 1.999 on 2021.07.06:0002 -->
<svg version="1.1" xmlns="http://www.w3.org/2000/svg" xmlns:xlink="http://www.w3.org/1999/xlink" width="199.275604" height="193.311859" viewBox="0 0 199.275604 193.311859">
<!-- Original BoundingBox: -47.464203 -38.339218 151.811401 154.972641 -->
  <defs>
    <g transform="scale(0.009963,0.009963)" id="GLYPHcmr10_48">
      <path style="fill-rule: evenodd;" d="M460.000000 -320.000000C460.000000 -400.000000,455.000000 -480.000000,420.000000 -554.000000C374.000000 -650.000000,292.000000 -666.000000,250.000000 -666.000000C190.000000 -666.000000,117.000000 -640.000000,76.000000 -547.000000C44.000000 -478.000000,39.000000 -400.000000,39.000000 -320.000000C39.000000 -245.000000,43.000000 -155.000000,84.000000 -79.000000C127.000000 2.000000,200.000000 22.000000,249.000000 22.000000C303.000000 22.000000,379.000000 1.000000,423.000000 -94.000000C455.000000 -163.000000,460.000000 -241.000000,460.000000 -320.000000M249.000000 -0.000000C210.000000 -0.000000,151.000000 -25.000000,133.000000 -121.000000C122.000000 -181.000000,122.000000 -273.000000,122.000000 -332.000000C122.000000 -396.000000,122.000000 -462.000000,130.000000 -516.000000C149.000000 -635.000000,224.000000 -644.000000,249.000000 -644.000000C282.000000 -644.000000,348.000000 -626.000000,367.000000 -527.000000C377.000000 -471.000000,377.000000 -395.000000,377.000000 -332.000000C377.000000 -257.000000,377.000000 -189.000000,366.000000 -125.000000C351.000000 -30.000000,294.000000 -0.000000,249.000000 -0.000000"></path>
    </g>
    <g transform="scale(0.009963,0.009963)" id="GLYPHcmr10_49">
      <path style="fill-rule: evenodd;" d="M294.000000 -640.000000C294.000000 -664.000000,294.000000 -666.000000,271.000000 -666.000000C209.000000 -602.000000,121.000000 -602.000000,89.000000 -602.000000L89.000000 -571.000000C109.000000 -571.000000,168.000000 -571.000000,220.000000 -597.000000L220.000000 -79.000000C220.000000 -43.000000,217.000000 -31.000000,127.000000 -31.000000L95.000000 -31.000000L95.000000 -0.000000L257.000000 -0.000000L130.000000 -3.000000L217.000000 -3.000000L257.000000 -3.000000L297.000000 -3.000000L384.000000 -3.000000L419.000000 -0.000000L419.000000 -31.000000L387.000000 -31.000000C297.000000 -31.000000,294.000000 -42.000000,294.000000 -79.000000"></path>
    </g>
    <g transform="scale(0.009963,0.009963)" id="GLYPHcmr10_50">
      <path style="fill-rule: evenodd;" d="M127.000000 -77.000000L233.000000 -180.000000C389.000000 -318.000000,449.000000 -372.000000,449.000000 -472.000000C449.000000 -586.000000,359.000000 -666.000000,237.000000 -666.000000C124.000000 -666.000000,50.000000 -574.000000,50.000000 -485.000000C50.000000 -429.000000,100.000000 -429.000000,103.000000 -429.000000C120.000000 -429.000000,155.000000 -441.000000,155.000000 -482.000000C155.000000 -508.000000,137.000000 -534.000000,102.000000 -534.000000C94.000000 -534.000000,92.000000 -534.000000,89.000000 -533.000000C112.000000 -598.000000,166.000000 -635.000000,224.000000 -635.000000C315.000000 -635.000000,358.000000 -554.000000,358.000000 -472.000000C358.000000 -392.000000,308.000000 -313.000000,253.000000 -251.000000L61.000000 -37.000000C50.000000 -26.000000,50.000000 -24.000000,50.000000 -0.000000L421.000000 -0.000000L449.000000 -174.000000L424.000000 -174.000000C419.000000 -144.000000,412.000000 -100.000000,402.000000 -85.000000C395.000000 -77.000000,329.000000 -77.000000,307.000000 -77.000000"></path>
    </g>
    <g transform="scale(0.009963,0.009963)" id="GLYPHcmr10_51">
      <path style="fill-rule: evenodd;" d="M290.000000 -352.000000C372.000000 -379.000000,430.000000 -449.000000,430.000000 -528.000000C430.000000 -610.000000,342.000000 -666.000000,246.000000 -666.000000C145.000000 -666.000000,69.000000 -606.000000,69.000000 -530.000000C69.000000 -497.000000,91.000000 -478.000000,120.000000 -478.000000C151.000000 -478.000000,171.000000 -500.000000,171.000000 -529.000000C171.000000 -579.000000,124.000000 -579.000000,109.000000 -579.000000C140.000000 -628.000000,206.000000 -641.000000,242.000000 -641.000000C283.000000 -641.000000,338.000000 -619.000000,338.000000 -529.000000C338.000000 -517.000000,336.000000 -459.000000,310.000000 -415.000000C280.000000 -367.000000,246.000000 -364.000000,221.000000 -363.000000C213.000000 -362.000000,189.000000 -360.000000,182.000000 -360.000000C174.000000 -359.000000,167.000000 -358.000000,167.000000 -348.000000C167.000000 -337.000000,174.000000 -337.000000,191.000000 -337.000000L235.000000 -337.000000C317.000000 -337.000000,354.000000 -269.000000,354.000000 -171.000000C354.000000 -35.000000,285.000000 -6.000000,241.000000 -6.000000C198.000000 -6.000000,123.000000 -23.000000,88.000000 -82.000000C123.000000 -77.000000,154.000000 -99.000000,154.000000 -137.000000C154.000000 -173.000000,127.000000 -193.000000,98.000000 -193.000000C74.000000 -193.000000,42.000000 -179.000000,42.000000 -135.000000C42.000000 -44.000000,135.000000 22.000000,244.000000 22.000000C366.000000 22.000000,457.000000 -69.000000,457.000000 -171.000000C457.000000 -253.000000,394.000000 -331.000000,290.000000 -352.000000"></path>
    </g>
    <g transform="scale(0.009963,0.009963)" id="GLYPHcmr10_52">
      <path style="fill-rule: evenodd;" d="M294.000000 -165.000000L294.000000 -78.000000C294.000000 -42.000000,292.000000 -31.000000,218.000000 -31.000000L197.000000 -31.000000L197.000000 -0.000000L332.000000 -0.000000L238.000000 -3.000000L290.000000 -3.000000L332.000000 -3.000000L374.000000 -3.000000L427.000000 -3.000000L468.000000 -0.000000L468.000000 -31.000000L447.000000 -31.000000C373.000000 -31.000000,371.000000 -42.000000,371.000000 -78.000000L371.000000 -165.000000L471.000000 -165.000000L471.000000 -196.000000L371.000000 -196.000000L371.000000 -651.000000C371.000000 -671.000000,371.000000 -677.000000,355.000000 -677.000000C346.000000 -677.000000,343.000000 -677.000000,335.000000 -665.000000L28.000000 -196.000000L28.000000 -165.000000M300.000000 -196.000000L56.000000 -196.000000L300.000000 -569.000000"></path>
    </g>
    <g transform="scale(0.009963,0.009963)" id="GLYPHcmr10_53">
      <path style="fill-rule: evenodd;" d="M449.000000 -201.000000C449.000000 -320.000000,367.000000 -420.000000,259.000000 -420.000000C211.000000 -420.000000,168.000000 -404.000000,132.000000 -369.000000L132.000000 -564.000000C152.000000 -558.000000,185.000000 -551.000000,217.000000 -551.000000C340.000000 -551.000000,410.000000 -642.000000,410.000000 -655.000000C410.000000 -661.000000,407.000000 -666.000000,400.000000 -666.000000C399.000000 -666.000000,397.000000 -666.000000,392.000000 -663.000000C372.000000 -654.000000,323.000000 -634.000000,256.000000 -634.000000C216.000000 -634.000000,170.000000 -641.000000,123.000000 -662.000000C115.000000 -665.000000,113.000000 -665.000000,111.000000 -665.000000C101.000000 -665.000000,101.000000 -657.000000,101.000000 -641.000000L101.000000 -345.000000C101.000000 -327.000000,101.000000 -319.000000,115.000000 -319.000000C122.000000 -319.000000,124.000000 -322.000000,128.000000 -328.000000C139.000000 -344.000000,176.000000 -398.000000,257.000000 -398.000000C309.000000 -398.000000,334.000000 -352.000000,342.000000 -334.000000C358.000000 -297.000000,360.000000 -258.000000,360.000000 -208.000000C360.000000 -173.000000,360.000000 -113.000000,336.000000 -71.000000C312.000000 -32.000000,275.000000 -6.000000,229.000000 -6.000000C156.000000 -6.000000,99.000000 -59.000000,82.000000 -118.000000C85.000000 -117.000000,88.000000 -116.000000,99.000000 -116.000000C132.000000 -116.000000,149.000000 -141.000000,149.000000 -165.000000C149.000000 -189.000000,132.000000 -214.000000,99.000000 -214.000000C85.000000 -214.000000,50.000000 -207.000000,50.000000 -161.000000C50.000000 -75.000000,119.000000 22.000000,231.000000 22.000000C347.000000 22.000000,449.000000 -74.000000,449.000000 -201.000000"></path>
    </g>
    <g transform="scale(0.009963,0.009963)" id="GLYPHcmr10_54">
      <path style="fill-rule: evenodd;" d="M132.000000 -328.000000L132.000000 -352.000000C132.000000 -605.000000,256.000000 -641.000000,307.000000 -641.000000C331.000000 -641.000000,373.000000 -635.000000,395.000000 -601.000000C380.000000 -601.000000,340.000000 -601.000000,340.000000 -556.000000C340.000000 -525.000000,364.000000 -510.000000,386.000000 -510.000000C402.000000 -510.000000,432.000000 -519.000000,432.000000 -558.000000C432.000000 -618.000000,388.000000 -666.000000,305.000000 -666.000000C177.000000 -666.000000,42.000000 -537.000000,42.000000 -316.000000C42.000000 -49.000000,158.000000 22.000000,251.000000 22.000000C362.000000 22.000000,457.000000 -72.000000,457.000000 -204.000000C457.000000 -331.000000,368.000000 -427.000000,257.000000 -427.000000C189.000000 -427.000000,152.000000 -376.000000,132.000000 -328.000000M251.000000 -6.000000C188.000000 -6.000000,158.000000 -66.000000,152.000000 -81.000000C134.000000 -128.000000,134.000000 -208.000000,134.000000 -226.000000C134.000000 -304.000000,166.000000 -404.000000,256.000000 -404.000000C272.000000 -404.000000,318.000000 -404.000000,349.000000 -342.000000C367.000000 -305.000000,367.000000 -254.000000,367.000000 -205.000000C367.000000 -157.000000,367.000000 -107.000000,350.000000 -71.000000C320.000000 -11.000000,274.000000 -6.000000,251.000000 -6.000000"></path>
    </g>
    <g transform="scale(0.009963,0.009963)" id="GLYPHcmr10_55">
      <path style="fill-rule: evenodd;" d="M476.000000 -609.000000C485.000000 -621.000000,485.000000 -623.000000,485.000000 -644.000000L242.000000 -644.000000C120.000000 -644.000000,118.000000 -657.000000,114.000000 -676.000000L89.000000 -676.000000L56.000000 -470.000000L81.000000 -470.000000C84.000000 -486.000000,93.000000 -549.000000,106.000000 -561.000000C113.000000 -567.000000,191.000000 -567.000000,204.000000 -567.000000L411.000000 -567.000000C400.000000 -551.000000,321.000000 -442.000000,299.000000 -409.000000C209.000000 -274.000000,176.000000 -135.000000,176.000000 -33.000000C176.000000 -23.000000,176.000000 22.000000,222.000000 22.000000C268.000000 22.000000,268.000000 -23.000000,268.000000 -33.000000L268.000000 -84.000000C268.000000 -139.000000,271.000000 -194.000000,279.000000 -248.000000C283.000000 -271.000000,297.000000 -357.000000,341.000000 -419.000000"></path>
    </g>
    <g transform="scale(0.009963,0.009963)" id="GLYPHcmr10_56">
      <path style="fill-rule: evenodd;" d="M163.000000 -457.000000C117.000000 -487.000000,113.000000 -521.000000,113.000000 -538.000000C113.000000 -599.000000,178.000000 -641.000000,249.000000 -641.000000C322.000000 -641.000000,386.000000 -589.000000,386.000000 -517.000000C386.000000 -460.000000,347.000000 -412.000000,287.000000 -377.000000M309.000000 -362.000000C381.000000 -399.000000,430.000000 -451.000000,430.000000 -517.000000C430.000000 -609.000000,341.000000 -666.000000,250.000000 -666.000000C150.000000 -666.000000,69.000000 -592.000000,69.000000 -499.000000C69.000000 -481.000000,71.000000 -436.000000,113.000000 -389.000000C124.000000 -377.000000,161.000000 -352.000000,186.000000 -335.000000C128.000000 -306.000000,42.000000 -250.000000,42.000000 -151.000000C42.000000 -45.000000,144.000000 22.000000,249.000000 22.000000C362.000000 22.000000,457.000000 -61.000000,457.000000 -168.000000C457.000000 -204.000000,446.000000 -249.000000,408.000000 -291.000000C389.000000 -312.000000,373.000000 -322.000000,309.000000 -362.000000M209.000000 -320.000000L332.000000 -242.000000C360.000000 -223.000000,407.000000 -193.000000,407.000000 -132.000000C407.000000 -58.000000,332.000000 -6.000000,250.000000 -6.000000C164.000000 -6.000000,92.000000 -68.000000,92.000000 -151.000000C92.000000 -209.000000,124.000000 -273.000000,209.000000 -320.000000"></path>
    </g>
    <g transform="scale(0.009963,0.009963)" id="GLYPHcmr10_57">
      <path style="fill-rule: evenodd;" d="M367.000000 -318.000000L367.000000 -286.000000C367.000000 -52.000000,263.000000 -6.000000,205.000000 -6.000000C188.000000 -6.000000,134.000000 -8.000000,107.000000 -42.000000C151.000000 -42.000000,159.000000 -71.000000,159.000000 -88.000000C159.000000 -119.000000,135.000000 -134.000000,113.000000 -134.000000C97.000000 -134.000000,67.000000 -125.000000,67.000000 -86.000000C67.000000 -19.000000,121.000000 22.000000,206.000000 22.000000C335.000000 22.000000,457.000000 -114.000000,457.000000 -329.000000C457.000000 -598.000000,342.000000 -666.000000,253.000000 -666.000000C198.000000 -666.000000,149.000000 -648.000000,106.000000 -603.000000C65.000000 -558.000000,42.000000 -516.000000,42.000000 -441.000000C42.000000 -316.000000,130.000000 -218.000000,242.000000 -218.000000C303.000000 -218.000000,344.000000 -260.000000,367.000000 -318.000000M243.000000 -241.000000C227.000000 -241.000000,181.000000 -241.000000,150.000000 -304.000000C132.000000 -341.000000,132.000000 -391.000000,132.000000 -440.000000C132.000000 -494.000000,132.000000 -541.000000,153.000000 -578.000000C180.000000 -628.000000,218.000000 -641.000000,253.000000 -641.000000C299.000000 -641.000000,332.000000 -607.000000,349.000000 -562.000000C361.000000 -530.000000,365.000000 -467.000000,365.000000 -421.000000C365.000000 -338.000000,331.000000 -241.000000,243.000000 -241.000000"></path>
    </g>
  </defs>
  <path d="M78.076813 189.350479C78.076813 188.557785,77.761871 187.797638,77.201385 187.237167C76.640915 186.676682,75.880768 186.361740,75.088074 186.361740C74.295380 186.361740,73.535233 186.676682,72.974762 187.237167C72.414276 187.797638,72.099335 188.557785,72.099335 189.350479C72.099335 190.143173,72.414276 190.903320,72.974762 191.463791C73.535233 192.024277,74.295380 192.339218,75.088074 192.339218C75.880768 192.339218,76.640915 192.024277,77.201385 191.463791C77.761871 190.903320,78.076813 190.143173,78.076813 189.350479Z" style="fill: rgb(100.000000%,100.000000%,100.000000%);stroke: none;"></path>
  <path d="M100.286224 184.475967C100.286224 183.683273,99.971283 182.923126,99.410797 182.362656C98.850327 181.802170,98.090179 181.487228,97.297485 181.487228C96.504791 181.487228,95.744644 181.802170,95.184174 182.362656C94.623688 182.923126,94.308746 183.683273,94.308746 184.475967C94.308746 185.268661,94.623688 186.028809,95.184174 186.589279C95.744644 187.149765,96.504791 187.464706,97.297485 187.464706C98.090179 187.464706,98.850327 187.149765,99.410797 186.589279C99.971283 186.028809,100.286224 185.268661,100.286224 184.475967Z" style="fill: rgb(100.000000%,100.000000%,100.000000%);stroke: none;"></path>
  <path d="M46.507996 141.185623C46.507996 140.392929,46.193054 139.632782,45.632568 139.072311C45.072098 138.511826,44.311951 138.196884,43.519257 138.196884C42.726562 138.196884,41.966415 138.511826,41.405945 139.072311C40.845459 139.632782,40.530518 140.392929,40.530518 141.185623C40.530518 141.978317,40.845459 142.738464,41.405945 143.298935C41.966415 143.859421,42.726562 144.174362,43.519257 144.174362C44.311951 144.174362,45.072098 143.859421,45.632568 143.298935C46.193054 142.738464,46.507996 141.978317,46.507996 141.185623Z" style="fill: rgb(100.000000%,100.000000%,100.000000%);stroke: none;"></path>
  <path d="M55.949051 175.942963C55.949051 175.150269,55.634109 174.390121,55.073624 173.829651C54.513153 173.269165,53.753006 172.954224,52.960312 172.954224C52.167618 172.954224,51.407471 173.269165,50.847000 173.829651C50.286514 174.390121,49.971573 175.150269,49.971573 175.942963C49.971573 176.735657,50.286514 177.495804,50.847000 178.056274C51.407471 178.616760,52.167618 178.931702,52.960312 178.931702C53.753006 178.931702,54.513153 178.616760,55.073624 178.056274C55.634109 177.495804,55.949051 176.735657,55.949051 175.942963Z" style="fill: rgb(100.000000%,100.000000%,100.000000%);stroke: none;"></path>
  <path d="M50.197632 107.689865C50.197632 106.897171,49.882690 106.137024,49.322205 105.576553C48.761734 105.016068,48.001587 104.701126,47.208893 104.701126C46.416199 104.701126,45.656052 105.016068,45.095581 105.576553C44.535095 106.137024,44.220154 106.897171,44.220154 107.689865C44.220154 108.482559,44.535095 109.242706,45.095581 109.803177C45.656052 110.363663,46.416199 110.678604,47.208893 110.678604C48.001587 110.678604,48.761734 110.363663,49.322205 109.803177C49.882690 109.242706,50.197632 108.482559,50.197632 107.689865Z" style="fill: rgb(100.000000%,100.000000%,100.000000%);stroke: none;"></path>
  <path d="M49.714386 127.819031C49.714386 127.026337,49.399445 126.266190,48.838959 125.705719C48.278488 125.145233,47.518341 124.830292,46.725647 124.830292C45.932953 124.830292,45.172806 125.145233,44.612335 125.705719C44.051849 126.266190,43.736908 127.026337,43.736908 127.819031C43.736908 128.611725,44.051849 129.371872,44.612335 129.932343C45.172806 130.492828,45.932953 130.807770,46.725647 130.807770C47.518341 130.807770,48.278488 130.492828,48.838959 129.932343C49.399445 129.371872,49.714386 128.611725,49.714386 127.819031Z" style="fill: rgb(100.000000%,100.000000%,100.000000%);stroke: none;"></path>
  <path d="M50.385834 87.451736C50.385834 86.659042,50.070892 85.898895,49.510406 85.338425C48.949936 84.777939,48.189789 84.462997,47.397095 84.462997C46.604401 84.462997,45.844254 84.777939,45.283783 85.338425C44.723297 85.898895,44.408356 86.659042,44.408356 87.451736C44.408356 88.244431,44.723297 89.004578,45.283783 89.565048C45.844254 90.125534,46.604401 90.440475,47.397095 90.440475C48.189789 90.440475,48.949936 90.125534,49.510406 89.565048C50.070892 89.004578,50.385834 88.244431,50.385834 87.451736Z" style="fill: rgb(100.000000%,100.000000%,100.000000%);stroke: none;"></path>
  <path d="M49.562408 100.775970C49.562408 99.983276,49.247467 99.223129,48.686981 98.662659C48.126511 98.102173,47.366364 97.787231,46.573669 97.787231C45.780975 97.787231,45.020828 98.102173,44.460358 98.662659C43.899872 99.223129,43.584930 99.983276,43.584930 100.775970C43.584930 101.568665,43.899872 102.328812,44.460358 102.889282C45.020828 103.449768,45.780975 103.764709,46.573669 103.764709C47.366364 103.764709,48.126511 103.449768,48.686981 102.889282C49.247467 102.328812,49.562408 101.568665,49.562408 100.775970Z" style="fill: rgb(100.000000%,100.000000%,100.000000%);stroke: none;"></path>
  <path d="M42.297150 67.035431C42.297150 66.242737,41.982208 65.482590,41.421722 64.922119C40.861252 64.361633,40.101105 64.046692,39.308411 64.046692C38.515717 64.046692,37.755569 64.361633,37.195099 64.922119C36.634613 65.482590,36.319672 66.242737,36.319672 67.035431C36.319672 67.828125,36.634613 68.588272,37.195099 69.148743C37.755569 69.709229,38.515717 70.024170,39.308411 70.024170C40.101105 70.024170,40.861252 69.709229,41.421722 69.148743C41.982208 68.588272,42.297150 67.828125,42.297150 67.035431Z" style="fill: rgb(100.000000%,100.000000%,100.000000%);stroke: none;"></path>
  <path d="M51.534836 80.622589C51.534836 79.829895,51.219894 79.069748,50.659409 78.509277C50.098938 77.948792,49.338791 77.633850,48.546097 77.633850C47.753403 77.633850,46.993256 77.948792,46.432785 78.509277C45.872299 79.069748,45.557358 79.829895,45.557358 80.622589C45.557358 81.415283,45.872299 82.175430,46.432785 82.735901C46.993256 83.296387,47.753403 83.611328,48.546097 83.611328C49.338791 83.611328,50.098938 83.296387,50.659409 82.735901C51.219894 82.175430,51.534836 81.415283,51.534836 80.622589Z" style="fill: rgb(100.000000%,100.000000%,100.000000%);stroke: none;"></path>
  <path d="M7.056396 84.373734C7.056396 83.581039,6.741455 82.820892,6.180969 82.260422C5.620499 81.699936,4.860352 81.384995,4.067657 81.384995C3.274963 81.384995,2.514816 81.699936,1.954346 82.260422C1.393860 82.820892,1.078918 83.581039,1.078918 84.373734C1.078918 85.166428,1.393860 85.926575,1.954346 86.487045C2.514816 87.047531,3.274963 87.362473,4.067657 87.362473C4.860352 87.362473,5.620499 87.047531,6.180969 86.487045C6.741455 85.926575,7.056396 85.166428,7.056396 84.373734Z" style="fill: rgb(100.000000%,100.000000%,100.000000%);stroke: none;"></path>
  <path d="M30.345718 67.224213C30.345718 66.431519,30.030777 65.671371,29.470291 65.110901C28.909821 64.550415,28.149673 64.235474,27.356979 64.235474C26.564285 64.235474,25.804138 64.550415,25.243668 65.110901C24.683182 65.671371,24.368240 66.431519,24.368240 67.224213C24.368240 68.016907,24.683182 68.777054,25.243668 69.337524C25.804138 69.898010,26.564285 70.212952,27.356979 70.212952C28.149673 70.212952,28.909821 69.898010,29.470291 69.337524C30.030777 68.777054,30.345718 68.016907,30.345718 67.224213Z" style="fill: rgb(100.000000%,100.000000%,100.000000%);stroke: none;"></path>
  <path d="M17.484314 140.938141C17.484314 140.145447,17.169373 139.385300,16.608887 138.824829C16.048416 138.264343,15.288269 137.949402,14.495575 137.949402C13.702881 137.949402,12.942734 138.264343,12.382263 138.824829C11.821777 139.385300,11.506836 140.145447,11.506836 140.938141C11.506836 141.730835,11.821777 142.490982,12.382263 143.051453C12.942734 143.611938,13.702881 143.926880,14.495575 143.926880C15.288269 143.926880,16.048416 143.611938,16.608887 143.051453C17.169373 142.490982,17.484314 141.730835,17.484314 140.938141Z" style="fill: rgb(100.000000%,100.000000%,100.000000%);stroke: none;"></path>
  <path d="M5.513275 104.756760C5.513275 103.964066,5.198334 103.203918,4.637848 102.643448C4.077377 102.082962,3.317230 101.768021,2.524536 101.768021C1.731842 101.768021,0.971695 102.082962,0.411224 102.643448C-0.149261 103.203918,-0.464203 103.964066,-0.464203 104.756760C-0.464203 105.549454,-0.149261 106.309601,0.411224 106.870071C0.971695 107.430557,1.731842 107.745499,2.524536 107.745499C3.317230 107.745499,4.077377 107.430557,4.637848 106.870071C5.198334 106.309601,5.513275 105.549454,5.513275 104.756760Z" style="fill: rgb(100.000000%,100.000000%,100.000000%);stroke: none;"></path>
  <path d="M64.328384 152.088913C64.328384 151.296219,64.013443 150.536072,63.452957 149.975601C62.892487 149.415115,62.132339 149.100174,61.339645 149.100174C60.546951 149.100174,59.786804 149.415115,59.226334 149.975601C58.665848 150.536072,58.350906 151.296219,58.350906 152.088913C58.350906 152.881607,58.665848 153.641754,59.226334 154.202225C59.786804 154.762711,60.546951 155.077652,61.339645 155.077652C62.132339 155.077652,62.892487 154.762711,63.452957 154.202225C64.013443 153.641754,64.328384 152.881607,64.328384 152.088913Z" style="fill: rgb(100.000000%,100.000000%,100.000000%);stroke: none;"></path>
  <path d="M31.880737 156.413300C31.880737 155.620605,31.565796 154.860458,31.005310 154.299988C30.444839 153.739502,29.684692 153.424561,28.891998 153.424561C28.099304 153.424561,27.339157 153.739502,26.778687 154.299988C26.218201 154.860458,25.903259 155.620605,25.903259 156.413300C25.903259 157.205994,26.218201 157.966141,26.778687 158.526611C27.339157 159.087097,28.099304 159.402039,28.891998 159.402039C29.684692 159.402039,30.444839 159.087097,31.005310 158.526611C31.565796 157.966141,31.880737 157.205994,31.880737 156.413300Z" style="fill: rgb(100.000000%,100.000000%,100.000000%);stroke: none;"></path>
  <path d="M81.606567 116.508850C81.606567 115.716156,81.291626 114.956009,80.731140 114.395538C80.170670 113.835052,79.410522 113.520111,78.617828 113.520111C77.825134 113.520111,77.064987 113.835052,76.504517 114.395538C75.944031 114.956009,75.629089 115.716156,75.629089 116.508850C75.629089 117.301544,75.944031 118.061691,76.504517 118.622162C77.064987 119.182648,77.825134 119.497589,78.617828 119.497589C79.410522 119.497589,80.170670 119.182648,80.731140 118.622162C81.291626 118.061691,81.606567 117.301544,81.606567 116.508850Z" style="fill: rgb(100.000000%,100.000000%,100.000000%);stroke: none;"></path>
  <path d="M73.674408 139.205353C73.674408 138.412659,73.359467 137.652512,72.798981 137.092041C72.238510 136.531555,71.478363 136.216614,70.685669 136.216614C69.892975 136.216614,69.132828 136.531555,68.572357 137.092041C68.011871 137.652512,67.696930 138.412659,67.696930 139.205353C67.696930 139.998047,68.011871 140.758194,68.572357 141.318665C69.132828 141.879150,69.892975 142.194092,70.685669 142.194092C71.478363 142.194092,72.238510 141.879150,72.798981 141.318665C73.359467 140.758194,73.674408 139.998047,73.674408 139.205353Z" style="fill: rgb(100.000000%,100.000000%,100.000000%);stroke: none;"></path>
  <path d="M86.064560 90.416412C86.064560 89.623718,85.749619 88.863571,85.189133 88.303101C84.628662 87.742615,83.868515 87.427673,83.075821 87.427673C82.283127 87.427673,81.522980 87.742615,80.962509 88.303101C80.402023 88.863571,80.087082 89.623718,80.087082 90.416412C80.087082 91.209106,80.402023 91.969254,80.962509 92.529724C81.522980 93.090210,82.283127 93.405151,83.075821 93.405151C83.868515 93.405151,84.628662 93.090210,85.189133 92.529724C85.749619 91.969254,86.064560 91.209106,86.064560 90.416412Z" style="fill: rgb(100.000000%,100.000000%,100.000000%);stroke: none;"></path>
  <path d="M83.226440 107.362747C83.226440 106.570053,82.911499 105.809906,82.351013 105.249435C81.790543 104.688950,81.030396 104.374008,80.237701 104.374008C79.445007 104.374008,78.684860 104.688950,78.124390 105.249435C77.563904 105.809906,77.248962 106.570053,77.248962 107.362747C77.248962 108.155441,77.563904 108.915588,78.124390 109.476059C78.684860 110.036545,79.445007 110.351486,80.237701 110.351486C81.030396 110.351486,81.790543 110.036545,82.351013 109.476059C82.911499 108.915588,83.226440 108.155441,83.226440 107.362747Z" style="fill: rgb(100.000000%,100.000000%,100.000000%);stroke: none;"></path>
  <path d="M91.074554 67.733307C91.074554 66.940613,90.759613 66.180466,90.199127 65.619995C89.638657 65.059509,88.878510 64.744568,88.085815 64.744568C87.293121 64.744568,86.532974 65.059509,85.972504 65.619995C85.412018 66.180466,85.097076 66.940613,85.097076 67.733307C85.097076 68.526001,85.412018 69.286148,85.972504 69.846619C86.532974 70.407104,87.293121 70.722046,88.085815 70.722046C88.878510 70.722046,89.638657 70.407104,90.199127 69.846619C90.759613 69.286148,91.074554 68.526001,91.074554 67.733307Z" style="fill: rgb(100.000000%,100.000000%,100.000000%);stroke: none;"></path>
  <path d="M87.314728 82.580673C87.314728 81.787979,86.999786 81.027832,86.439301 80.467361C85.878830 79.906876,85.118683 79.591934,84.325989 79.591934C83.533295 79.591934,82.773148 79.906876,82.212677 80.467361C81.652191 81.027832,81.337250 81.787979,81.337250 82.580673C81.337250 83.373367,81.652191 84.133514,82.212677 84.693985C82.773148 85.254471,83.533295 85.569412,84.325989 85.569412C85.118683 85.569412,85.878830 85.254471,86.439301 84.693985C86.999786 84.133514,87.314728 83.373367,87.314728 82.580673Z" style="fill: rgb(100.000000%,100.000000%,100.000000%);stroke: none;"></path>
  <path d="M99.065170 48.559464C99.065170 47.766769,98.750229 47.006622,98.189743 46.446152C97.629272 45.885666,96.869125 45.570724,96.076431 45.570724C95.283737 45.570724,94.523590 45.885666,93.963120 46.446152C93.402634 47.006622,93.087692 47.766769,93.087692 48.559464C93.087692 49.352158,93.402634 50.112305,93.963120 50.672775C94.523590 51.233261,95.283737 51.548203,96.076431 51.548203C96.869125 51.548203,97.629272 51.233261,98.189743 50.672775C98.750229 50.112305,99.065170 49.352158,99.065170 48.559464Z" style="fill: rgb(100.000000%,100.000000%,100.000000%);stroke: none;"></path>
  <path d="M93.485474 60.732697C93.485474 59.940002,93.170532 59.179855,92.610046 58.619385C92.049576 58.058899,91.289429 57.743958,90.496735 57.743958C89.704041 57.743958,88.943893 58.058899,88.383423 58.619385C87.822937 59.179855,87.507996 59.940002,87.507996 60.732697C87.507996 61.525391,87.822937 62.285538,88.383423 62.846008C88.943893 63.406494,89.704041 63.721436,90.496735 63.721436C91.289429 63.721436,92.049576 63.406494,92.610046 62.846008C93.170532 62.285538,93.485474 61.525391,93.485474 60.732697Z" style="fill: rgb(100.000000%,100.000000%,100.000000%);stroke: none;"></path>
  <path d="M103.437714 26.394119C103.437714 25.601425,103.122772 24.841278,102.562286 24.280807C102.001816 23.720322,101.241669 23.405380,100.448975 23.405380C99.656281 23.405380,98.896133 23.720322,98.335663 24.280807C97.775177 24.841278,97.460236 25.601425,97.460236 26.394119C97.460236 27.186813,97.775177 27.946960,98.335663 28.507431C98.896133 29.067917,99.656281 29.382858,100.448975 29.382858C101.241669 29.382858,102.001816 29.067917,102.562286 28.507431C103.122772 27.946960,103.437714 27.186813,103.437714 26.394119Z" style="fill: rgb(100.000000%,100.000000%,100.000000%);stroke: none;"></path>
  <path d="M102.032928 43.175949C102.032928 42.383255,101.717987 41.623108,101.157501 41.062637C100.597031 40.502151,99.836884 40.187210,99.044189 40.187210C98.251495 40.187210,97.491348 40.502151,96.930878 41.062637C96.370392 41.623108,96.055450 42.383255,96.055450 43.175949C96.055450 43.968643,96.370392 44.728790,96.930878 45.289261C97.491348 45.849747,98.251495 46.164688,99.044189 46.164688C99.836884 46.164688,100.597031 45.849747,101.157501 45.289261C101.717987 44.728790,102.032928 43.968643,102.032928 43.175949Z" style="fill: rgb(100.000000%,100.000000%,100.000000%);stroke: none;"></path>
  <path d="M71.326691 7.151627C71.326691 6.358932,71.011749 5.598785,70.451263 5.038315C69.890793 4.477829,69.130646 4.162888,68.337952 4.162888C67.545258 4.162888,66.785110 4.477829,66.224640 5.038315C65.664154 5.598785,65.349213 6.358932,65.349213 7.151627C65.349213 7.944321,65.664154 8.704468,66.224640 9.264938C66.785110 9.825424,67.545258 10.140366,68.337952 10.140366C69.130646 10.140366,69.890793 9.825424,70.451263 9.264938C71.011749 8.704468,71.326691 7.944321,71.326691 7.151627Z" style="fill: rgb(100.000000%,100.000000%,100.000000%);stroke: none;"></path>
  <path d="M96.671341 16.527191C96.671341 15.734497,96.356400 14.974350,95.795914 14.413879C95.235443 13.853394,94.475296 13.538452,93.682602 13.538452C92.889908 13.538452,92.129761 13.853394,91.569290 14.413879C91.008804 14.974350,90.693863 15.734497,90.693863 16.527191C90.693863 17.319885,91.008804 18.080032,91.569290 18.640503C92.129761 19.200989,92.889908 19.515930,93.682602 19.515930C94.475296 19.515930,95.235443 19.200989,95.795914 18.640503C96.356400 18.080032,96.671341 17.319885,96.671341 16.527191Z" style="fill: rgb(100.000000%,100.000000%,100.000000%);stroke: none;"></path>
  <path d="M30.457077 39.677155C30.457077 38.884460,30.142136 38.124313,29.581650 37.563843C29.021179 37.003357,28.261032 36.688416,27.468338 36.688416C26.675644 36.688416,25.915497 37.003357,25.355026 37.563843C24.794540 38.124313,24.479599 38.884460,24.479599 39.677155C24.479599 40.469849,24.794540 41.229996,25.355026 41.790466C25.915497 42.350952,26.675644 42.665894,27.468338 42.665894C28.261032 42.665894,29.021179 42.350952,29.581650 41.790466C30.142136 41.229996,30.457077 40.469849,30.457077 39.677155Z" style="fill: rgb(100.000000%,100.000000%,100.000000%);stroke: none;"></path>
  <path d="M55.702255 15.893402C55.702255 15.100708,55.387314 14.340561,54.826828 13.780090C54.266357 13.219604,53.506210 12.904663,52.713516 12.904663C51.920822 12.904663,51.160675 13.219604,50.600204 13.780090C50.039719 14.340561,49.724777 15.100708,49.724777 15.893402C49.724777 16.686096,50.039719 17.446243,50.600204 18.006714C51.160675 18.567200,51.920822 18.882141,52.713516 18.882141C53.506210 18.882141,54.266357 18.567200,54.826828 18.006714C55.387314 17.446243,55.702255 16.686096,55.702255 15.893402Z" style="fill: rgb(100.000000%,100.000000%,100.000000%);stroke: none;"></path>
  <path d="M22.694748 83.342316C22.694748 82.549622,22.379807 81.789474,21.819321 81.229004C21.258850 80.668518,20.498703 80.353577,19.706009 80.353577C18.913315 80.353577,18.153168 80.668518,17.592697 81.229004C17.032211 81.789474,16.717270 82.549622,16.717270 83.342316C16.717270 84.135010,17.032211 84.895157,17.592697 85.455627C18.153168 86.016113,18.913315 86.331055,19.706009 86.331055C20.498703 86.331055,21.258850 86.016113,21.819321 85.455627C22.379807 84.895157,22.694748 84.135010,22.694748 83.342316Z" style="fill: rgb(100.000000%,100.000000%,100.000000%);stroke: none;"></path>
  <path d="M19.868927 55.701950C19.868927 54.909256,19.553986 54.149109,18.993500 53.588638C18.433029 53.028152,17.672882 52.713211,16.880188 52.713211C16.087494 52.713211,15.327347 53.028152,14.766876 53.588638C14.206390 54.149109,13.891449 54.909256,13.891449 55.701950C13.891449 56.494644,14.206390 57.254791,14.766876 57.815262C15.327347 58.375748,16.087494 58.690689,16.880188 58.690689C17.672882 58.690689,18.433029 58.375748,18.993500 57.815262C19.553986 57.254791,19.868927 56.494644,19.868927 55.701950Z" style="fill: rgb(100.000000%,100.000000%,100.000000%);stroke: none;"></path>
  <path d="M41.518204 95.611984C41.518204 94.819290,41.203262 94.059143,40.642776 93.498672C40.082306 92.938187,39.322159 92.623245,38.529465 92.623245C37.736771 92.623245,36.976624 92.938187,36.416153 93.498672C35.855667 94.059143,35.540726 94.819290,35.540726 95.611984C35.540726 96.404678,35.855667 97.164825,36.416153 97.725296C36.976624 98.285782,37.736771 98.600723,38.529465 98.600723C39.322159 98.600723,40.082306 98.285782,40.642776 97.725296C41.203262 97.164825,41.518204 96.404678,41.518204 95.611984Z" style="fill: rgb(100.000000%,100.000000%,100.000000%);stroke: none;"></path>
  <path d="M28.050674 92.537018C28.050674 91.744324,27.735733 90.984177,27.175247 90.423706C26.614777 89.863220,25.854630 89.548279,25.061935 89.548279C24.269241 89.548279,23.509094 89.863220,22.948624 90.423706C22.388138 90.984177,22.073196 91.744324,22.073196 92.537018C22.073196 93.329712,22.388138 94.089859,22.948624 94.650330C23.509094 95.210815,24.269241 95.525757,25.061935 95.525757C25.854630 95.525757,26.614777 95.210815,27.175247 94.650330C27.735733 94.089859,28.050674 93.329712,28.050674 92.537018Z" style="fill: rgb(100.000000%,100.000000%,100.000000%);stroke: none;"></path>
  <path d="M55.593704 92.682678C55.593704 91.889984,55.278763 91.129837,54.718277 90.569366C54.157806 90.008881,53.397659 89.693939,52.604965 89.693939C51.812271 89.693939,51.052124 90.008881,50.491653 90.569366C49.931168 91.129837,49.616226 91.889984,49.616226 92.682678C49.616226 93.475372,49.931168 94.235519,50.491653 94.795990C51.052124 95.356476,51.812271 95.671417,52.604965 95.671417C53.397659 95.671417,54.157806 95.356476,54.718277 94.795990C55.278763 94.235519,55.593704 93.475372,55.593704 92.682678Z" style="fill: rgb(100.000000%,100.000000%,100.000000%);stroke: none;"></path>
  <path d="M45.808380 94.768356C45.808380 93.975662,45.493439 93.215515,44.932953 92.655045C44.372482 92.094559,43.612335 91.779617,42.819641 91.779617C42.026947 91.779617,41.266800 92.094559,40.706329 92.655045C40.145844 93.215515,39.830902 93.975662,39.830902 94.768356C39.830902 95.561050,40.145844 96.321198,40.706329 96.881668C41.266800 97.442154,42.026947 97.757095,42.819641 97.757095C43.612335 97.757095,44.372482 97.442154,44.932953 96.881668C45.493439 96.321198,45.808380 95.561050,45.808380 94.768356Z" style="fill: rgb(100.000000%,100.000000%,100.000000%);stroke: none;"></path>
  <path d="M73.259842 92.750381C73.259842 91.957687,72.944901 91.197540,72.384415 90.637070C71.823944 90.076584,71.063797 89.761642,70.271103 89.761642C69.478409 89.761642,68.718262 90.076584,68.157791 90.637070C67.597305 91.197540,67.282364 91.957687,67.282364 92.750381C67.282364 93.543076,67.597305 94.303223,68.157791 94.863693C68.718262 95.424179,69.478409 95.739120,70.271103 95.739120C71.063797 95.739120,71.823944 95.424179,72.384415 94.863693C72.944901 94.303223,73.259842 93.543076,73.259842 92.750381Z" style="fill: rgb(100.000000%,100.000000%,100.000000%);stroke: none;"></path>
  <path d="M61.267151 91.405411C61.267151 90.612717,60.952209 89.852570,60.391724 89.292099C59.831253 88.731613,59.071106 88.416672,58.278412 88.416672C57.485718 88.416672,56.725571 88.731613,56.165100 89.292099C55.604614 89.852570,55.289673 90.612717,55.289673 91.405411C55.289673 92.198105,55.604614 92.958252,56.165100 93.518723C56.725571 94.079208,57.485718 94.394150,58.278412 94.394150C59.071106 94.394150,59.831253 94.079208,60.391724 93.518723C60.952209 92.958252,61.267151 92.198105,61.267151 91.405411Z" style="fill: rgb(100.000000%,100.000000%,100.000000%);stroke: none;"></path>
  <path d="M91.085190 100.994019C91.085190 100.201324,90.770248 99.441177,90.209763 98.880707C89.649292 98.320221,88.889145 98.005280,88.096451 98.005280C87.303757 98.005280,86.543610 98.320221,85.983139 98.880707C85.422653 99.441177,85.107712 100.201324,85.107712 100.994019C85.107712 101.786713,85.422653 102.546860,85.983139 103.107330C86.543610 103.667816,87.303757 103.982758,88.096451 103.982758C88.889145 103.982758,89.649292 103.667816,90.209763 103.107330C90.770248 102.546860,91.085190 101.786713,91.085190 100.994019Z" style="fill: rgb(100.000000%,100.000000%,100.000000%);stroke: none;"></path>
  <path d="M78.968338 95.710144C78.968338 94.917450,78.653397 94.157303,78.092911 93.596832C77.532440 93.036346,76.772293 92.721405,75.979599 92.721405C75.186905 92.721405,74.426758 93.036346,73.866287 93.596832C73.305801 94.157303,72.990860 94.917450,72.990860 95.710144C72.990860 96.502838,73.305801 97.262985,73.866287 97.823456C74.426758 98.383942,75.186905 98.698883,75.979599 98.698883C76.772293 98.698883,77.532440 98.383942,78.092911 97.823456C78.653397 97.262985,78.968338 96.502838,78.968338 95.710144Z" style="fill: rgb(100.000000%,100.000000%,100.000000%);stroke: none;"></path>
  <path d="M111.143478 103.886765C111.143478 103.094070,110.828537 102.333923,110.268051 101.773453C109.707581 101.212967,108.947433 100.898026,108.154739 100.898026C107.362045 100.898026,106.601898 101.212967,106.041428 101.773453C105.480942 102.333923,105.166000 103.094070,105.166000 103.886765C105.166000 104.679459,105.480942 105.439606,106.041428 106.000076C106.601898 106.560562,107.362045 106.875504,108.154739 106.875504C108.947433 106.875504,109.707581 106.560562,110.268051 106.000076C110.828537 105.439606,111.143478 104.679459,111.143478 103.886765Z" style="fill: rgb(100.000000%,100.000000%,100.000000%);stroke: none;"></path>
  <path d="M97.687943 103.274155C97.687943 102.481461,97.373001 101.721313,96.812515 101.160843C96.252045 100.600357,95.491898 100.285416,94.699203 100.285416C93.906509 100.285416,93.146362 100.600357,92.585892 101.160843C92.025406 101.721313,91.710464 102.481461,91.710464 103.274155C91.710464 104.066849,92.025406 104.826996,92.585892 105.387466C93.146362 105.947952,93.906509 106.262894,94.699203 106.262894C95.491898 106.262894,96.252045 105.947952,96.812515 105.387466C97.373001 104.826996,97.687943 104.066849,97.687943 103.274155Z" style="fill: rgb(100.000000%,100.000000%,100.000000%);stroke: none;"></path>
  <path d="M129.123199 100.020645C129.123199 99.227951,128.808258 98.467804,128.247772 97.907333C127.687302 97.346848,126.927155 97.031906,126.134460 97.031906C125.341766 97.031906,124.581619 97.346848,124.021149 97.907333C123.460663 98.467804,123.145721 99.227951,123.145721 100.020645C123.145721 100.813339,123.460663 101.573486,124.021149 102.133957C124.581619 102.694443,125.341766 103.009384,126.134460 103.009384C126.927155 103.009384,127.687302 102.694443,128.247772 102.133957C128.808258 101.573486,129.123199 100.813339,129.123199 100.020645Z" style="fill: rgb(100.000000%,100.000000%,100.000000%);stroke: none;"></path>
  <path d="M117.586685 102.391327C117.586685 101.598633,117.271744 100.838486,116.711258 100.278015C116.150787 99.717529,115.390640 99.402588,114.597946 99.402588C113.805252 99.402588,113.045105 99.717529,112.484634 100.278015C111.924149 100.838486,111.609207 101.598633,111.609207 102.391327C111.609207 103.184021,111.924149 103.944168,112.484634 104.504639C113.045105 105.065125,113.805252 105.380066,114.597946 105.380066C115.390640 105.380066,116.150787 105.065125,116.711258 104.504639C117.271744 103.944168,117.586685 103.184021,117.586685 102.391327Z" style="fill: rgb(100.000000%,100.000000%,100.000000%);stroke: none;"></path>
  <path d="M142.803635 92.286819C142.803635 91.494125,142.488693 90.733978,141.928207 90.173508C141.367737 89.613022,140.607590 89.298080,139.814896 89.298080C139.022202 89.298080,138.262054 89.613022,137.701584 90.173508C137.141098 90.733978,136.826157 91.494125,136.826157 92.286819C136.826157 93.079514,137.141098 93.839661,137.701584 94.400131C138.262054 94.960617,139.022202 95.275558,139.814896 95.275558C140.607590 95.275558,141.367737 94.960617,141.928207 94.400131C142.488693 93.839661,142.803635 93.079514,142.803635 92.286819Z" style="fill: rgb(100.000000%,100.000000%,100.000000%);stroke: none;"></path>
  <path d="M134.416016 99.003174C134.416016 98.210480,134.101074 97.450333,133.540588 96.889862C132.980118 96.329376,132.219971 96.014435,131.427277 96.014435C130.634583 96.014435,129.874435 96.329376,129.313965 96.889862C128.753479 97.450333,128.438538 98.210480,128.438538 99.003174C128.438538 99.795868,128.753479 100.556015,129.313965 101.116486C129.874435 101.676971,130.634583 101.991913,131.427277 101.991913C132.219971 101.991913,132.980118 101.676971,133.540588 101.116486C134.101074 100.556015,134.416016 99.795868,134.416016 99.003174Z" style="fill: rgb(100.000000%,100.000000%,100.000000%);stroke: none;"></path>
  <path d="M149.443527 76.567154C149.443527 75.774460,149.128586 75.014313,148.568100 74.453842C148.007629 73.893356,147.247482 73.578415,146.454788 73.578415C145.662094 73.578415,144.901947 73.893356,144.341476 74.453842C143.780991 75.014313,143.466049 75.774460,143.466049 76.567154C143.466049 77.359848,143.780991 78.119995,144.341476 78.680466C144.901947 79.240952,145.662094 79.555893,146.454788 79.555893C147.247482 79.555893,148.007629 79.240952,148.568100 78.680466C149.128586 78.119995,149.443527 77.359848,149.443527 76.567154Z" style="fill: rgb(100.000000%,100.000000%,100.000000%);stroke: none;"></path>
  <path d="M144.948517 87.035370C144.948517 86.242676,144.633575 85.482529,144.073090 84.922058C143.512619 84.361572,142.752472 84.046631,141.959778 84.046631C141.167084 84.046631,140.406937 84.361572,139.846466 84.922058C139.285980 85.482529,138.971039 86.242676,138.971039 87.035370C138.971039 87.828064,139.285980 88.588211,139.846466 89.148682C140.406937 89.709167,141.167084 90.024109,141.959778 90.024109C142.752472 90.024109,143.512619 89.709167,144.073090 89.148682C144.633575 88.588211,144.948517 87.828064,144.948517 87.035370Z" style="fill: rgb(100.000000%,100.000000%,100.000000%);stroke: none;"></path>
  <path d="M158.027054 55.906601C158.027054 55.113907,157.712112 54.353760,157.151627 53.793289C156.591156 53.232803,155.831009 52.917862,155.038315 52.917862C154.245621 52.917862,153.485474 53.232803,152.925003 53.793289C152.364517 54.353760,152.049576 55.113907,152.049576 55.906601C152.049576 56.699295,152.364517 57.459442,152.925003 58.019913C153.485474 58.580399,154.245621 58.895340,155.038315 58.895340C155.831009 58.895340,156.591156 58.580399,157.151627 58.019913C157.712112 57.459442,158.027054 56.699295,158.027054 55.906601Z" style="fill: rgb(100.000000%,100.000000%,100.000000%);stroke: none;"></path>
  <path d="M151.936462 71.211594C151.936462 70.418900,151.621521 69.658752,151.061035 69.098282C150.500565 68.537796,149.740417 68.222855,148.947723 68.222855C148.155029 68.222855,147.394882 68.537796,146.834412 69.098282C146.273926 69.658752,145.958984 70.418900,145.958984 71.211594C145.958984 72.004288,146.273926 72.764435,146.834412 73.324905C147.394882 73.885391,148.155029 74.200333,148.947723 74.200333C149.740417 74.200333,150.500565 73.885391,151.061035 73.324905C151.621521 72.764435,151.936462 72.004288,151.936462 71.211594Z" style="fill: rgb(100.000000%,100.000000%,100.000000%);stroke: none;"></path>
  <path d="M154.889282 20.166321C154.889282 19.373627,154.574341 18.613480,154.013855 18.053009C153.453384 17.492523,152.693237 17.177582,151.900543 17.177582C151.107849 17.177582,150.347702 17.492523,149.787231 18.053009C149.226746 18.613480,148.911804 19.373627,148.911804 20.166321C148.911804 20.959015,149.226746 21.719162,149.787231 22.279633C150.347702 22.840118,151.107849 23.155060,151.900543 23.155060C152.693237 23.155060,153.453384 22.840118,154.013855 22.279633C154.574341 21.719162,154.889282 20.959015,154.889282 20.166321Z" style="fill: rgb(100.000000%,100.000000%,100.000000%);stroke: none;"></path>
  <path d="M160.929672 45.379562C160.929672 44.586868,160.614731 43.826721,160.054245 43.266251C159.493774 42.705765,158.733627 42.390823,157.940933 42.390823C157.148239 42.390823,156.388092 42.705765,155.827621 43.266251C155.267136 43.826721,154.952194 44.586868,154.952194 45.379562C154.952194 46.172256,155.267136 46.932404,155.827621 47.492874C156.388092 48.053360,157.148239 48.368301,157.940933 48.368301C158.733627 48.368301,159.493774 48.053360,160.054245 47.492874C160.614731 46.932404,160.929672 46.172256,160.929672 45.379562Z" style="fill: rgb(100.000000%,100.000000%,100.000000%);stroke: none;"></path>
  <path d="M112.700058 2.016098C112.700058 1.223404,112.385117 0.463257,111.824631 -0.097214C111.264160 -0.657700,110.504013 -0.972641,109.711319 -0.972641C108.918625 -0.972641,108.158478 -0.657700,107.598007 -0.097214C107.037521 0.463257,106.722580 1.223404,106.722580 2.016098C106.722580 2.808792,107.037521 3.568939,107.598007 4.129410C108.158478 4.689896,108.918625 5.004837,109.711319 5.004837C110.504013 5.004837,111.264160 4.689896,111.824631 4.129410C112.385117 3.568939,112.700058 2.808792,112.700058 2.016098Z" style="fill: rgb(100.000000%,100.000000%,100.000000%);stroke: none;"></path>
  <path d="M141.672714 10.144043C141.672714 9.351349,141.357773 8.591202,140.797287 8.030731C140.236816 7.470245,139.476669 7.155304,138.683975 7.155304C137.891281 7.155304,137.131134 7.470245,136.570663 8.030731C136.010178 8.591202,135.695236 9.351349,135.695236 10.144043C135.695236 10.936737,136.010178 11.696884,136.570663 12.257355C137.131134 12.817841,137.891281 13.132782,138.683975 13.132782C139.476669 13.132782,140.236816 12.817841,140.797287 12.257355C141.357773 11.696884,141.672714 10.936737,141.672714 10.144043Z" style="fill: rgb(100.000000%,100.000000%,100.000000%);stroke: none;"></path>
  <path d="M76.574631 21.450867C76.574631 20.658173,76.259689 19.898026,75.699203 19.337555C75.138733 18.777069,74.378586 18.462128,73.585892 18.462128C72.793198 18.462128,72.033051 18.777069,71.472580 19.337555C70.912094 19.898026,70.597153 20.658173,70.597153 21.450867C70.597153 22.243561,70.912094 23.003708,71.472580 23.564178C72.033051 24.124664,72.793198 24.439606,73.585892 24.439606C74.378586 24.439606,75.138733 24.124664,75.699203 23.564178C76.259689 23.003708,76.574631 22.243561,76.574631 21.450867Z" style="fill: rgb(100.000000%,100.000000%,100.000000%);stroke: none;"></path>
  <path d="M97.297699 3.209198C97.297699 2.416504,96.982758 1.656357,96.422272 1.095886C95.861801 0.535400,95.101654 0.220459,94.308960 0.220459C93.516266 0.220459,92.756119 0.535400,92.195648 1.095886C91.635162 1.656357,91.320221 2.416504,91.320221 3.209198C91.320221 4.001892,91.635162 4.762039,92.195648 5.322510C92.756119 5.882996,93.516266 6.197937,94.308960 6.197937C95.101654 6.197937,95.861801 5.882996,96.422272 5.322510C96.982758 4.762039,97.297699 4.001892,97.297699 3.209198Z" style="fill: rgb(100.000000%,100.000000%,100.000000%);stroke: none;"></path>
  <path d="M85.362915 49.778961C85.362915 48.986267,85.047974 48.226120,84.487488 47.665649C83.927017 47.105164,83.166870 46.790222,82.374176 46.790222C81.581482 46.790222,80.821335 47.105164,80.260864 47.665649C79.700378 48.226120,79.385437 48.986267,79.385437 49.778961C79.385437 50.571655,79.700378 51.331802,80.260864 51.892273C80.821335 52.452759,81.581482 52.767700,82.374176 52.767700C83.166870 52.767700,83.927017 52.452759,84.487488 51.892273C85.047974 51.331802,85.362915 50.571655,85.362915 49.778961Z" style="fill: rgb(100.000000%,100.000000%,100.000000%);stroke: none;"></path>
  <path d="M73.397446 35.802338C73.397446 35.009644,73.082504 34.249496,72.522018 33.689026C71.961548 33.128540,71.201401 32.813599,70.408707 32.813599C69.616013 32.813599,68.855865 33.128540,68.295395 33.689026C67.734909 34.249496,67.419968 35.009644,67.419968 35.802338C67.419968 36.595032,67.734909 37.355179,68.295395 37.915649C68.855865 38.476135,69.616013 38.791077,70.408707 38.791077C71.201401 38.791077,71.961548 38.476135,72.522018 37.915649C73.082504 37.355179,73.397446 36.595032,73.397446 35.802338Z" style="fill: rgb(100.000000%,100.000000%,100.000000%);stroke: none;"></path>
  <path d="M101.793503 56.156158C101.793503 55.363464,101.478561 54.603317,100.918076 54.042847C100.357605 53.482361,99.597458 53.167419,98.804764 53.167419C98.012070 53.167419,97.251923 53.482361,96.691452 54.042847C96.130966 54.603317,95.816025 55.363464,95.816025 56.156158C95.816025 56.948853,96.130966 57.709000,96.691452 58.269470C97.251923 58.829956,98.012070 59.144897,98.804764 59.144897C99.597458 59.144897,100.357605 58.829956,100.918076 58.269470C101.478561 57.709000,101.793503 56.948853,101.793503 56.156158Z" style="fill: rgb(100.000000%,100.000000%,100.000000%);stroke: none;"></path>
  <path d="M91.120605 51.787521C91.120605 50.994827,90.805664 50.234680,90.245178 49.674210C89.684708 49.113724,88.924561 48.798782,88.131866 48.798782C87.339172 48.798782,86.579025 49.113724,86.018555 49.674210C85.458069 50.234680,85.143127 50.994827,85.143127 51.787521C85.143127 52.580215,85.458069 53.340363,86.018555 53.900833C86.579025 54.461319,87.339172 54.776260,88.131866 54.776260C88.924561 54.776260,89.684708 54.461319,90.245178 53.900833C90.805664 53.340363,91.120605 52.580215,91.120605 51.787521Z" style="fill: rgb(100.000000%,100.000000%,100.000000%);stroke: none;"></path>
  <path d="M116.890091 63.345093C116.890091 62.552399,116.575150 61.792252,116.014664 61.231781C115.454193 60.671295,114.694046 60.356354,113.901352 60.356354C113.108658 60.356354,112.348511 60.671295,111.788040 61.231781C111.227554 61.792252,110.912613 62.552399,110.912613 63.345093C110.912613 64.137787,111.227554 64.897934,111.788040 65.458405C112.348511 66.018890,113.108658 66.333832,113.901352 66.333832C114.694046 66.333832,115.454193 66.018890,116.014664 65.458405C116.575150 64.897934,116.890091 64.137787,116.890091 63.345093Z" style="fill: rgb(100.000000%,100.000000%,100.000000%);stroke: none;"></path>
  <path d="M106.882568 58.617264C106.882568 57.824570,106.567627 57.064423,106.007141 56.503952C105.446671 55.943466,104.686523 55.628525,103.893829 55.628525C103.101135 55.628525,102.340988 55.943466,101.780518 56.503952C101.220032 57.064423,100.905090 57.824570,100.905090 58.617264C100.905090 59.409958,101.220032 60.170105,101.780518 60.730576C102.340988 61.291061,103.101135 61.606003,103.893829 61.606003C104.686523 61.606003,105.446671 61.291061,106.007141 60.730576C106.567627 60.170105,106.882568 59.409958,106.882568 58.617264Z" style="fill: rgb(100.000000%,100.000000%,100.000000%);stroke: none;"></path>
  <path d="M130.181595 70.118378C130.181595 69.325684,129.866653 68.565536,129.306168 68.005066C128.745697 67.444580,127.985550 67.129639,127.192856 67.129639C126.400162 67.129639,125.640015 67.444580,125.079544 68.005066C124.519058 68.565536,124.204117 69.325684,124.204117 70.118378C124.204117 70.911072,124.519058 71.671219,125.079544 72.231689C125.640015 72.792175,126.400162 73.107117,127.192856 73.107117C127.985550 73.107117,128.745697 72.792175,129.306168 72.231689C129.866653 71.671219,130.181595 70.911072,130.181595 70.118378Z" style="fill: rgb(100.000000%,100.000000%,100.000000%);stroke: none;"></path>
  <path d="M121.811554 65.617828C121.811554 64.825134,121.496613 64.064987,120.936127 63.504517C120.375656 62.944031,119.615509 62.629089,118.822815 62.629089C118.030121 62.629089,117.269974 62.944031,116.709503 63.504517C116.149017 64.064987,115.834076 64.825134,115.834076 65.617828C115.834076 66.410522,116.149017 67.170670,116.709503 67.731140C117.269974 68.291626,118.030121 68.606567,118.822815 68.606567C119.615509 68.606567,120.375656 68.291626,120.936127 67.731140C121.496613 67.170670,121.811554 66.410522,121.811554 65.617828Z" style="fill: rgb(100.000000%,100.000000%,100.000000%);stroke: none;"></path>
  <path d="M140.549454 76.821930C140.549454 76.029236,140.234512 75.269089,139.674026 74.708618C139.113556 74.148132,138.353409 73.833191,137.560715 73.833191C136.768021 73.833191,136.007874 74.148132,135.447403 74.708618C134.886917 75.269089,134.571976 76.029236,134.571976 76.821930C134.571976 77.614624,134.886917 78.374771,135.447403 78.935242C136.007874 79.495728,136.768021 79.810669,137.560715 79.810669C138.353409 79.810669,139.113556 79.495728,139.674026 78.935242C140.234512 78.374771,140.549454 77.614624,140.549454 76.821930Z" style="fill: rgb(100.000000%,100.000000%,100.000000%);stroke: none;"></path>
  <path d="M133.689072 72.216705C133.689072 71.424011,133.374130 70.663864,132.813644 70.103394C132.253174 69.542908,131.493027 69.227966,130.700333 69.227966C129.907639 69.227966,129.147491 69.542908,128.587021 70.103394C128.026535 70.663864,127.711594 71.424011,127.711594 72.216705C127.711594 73.009399,128.026535 73.769547,128.587021 74.330017C129.147491 74.890503,129.907639 75.205444,130.700333 75.205444C131.493027 75.205444,132.253174 74.890503,132.813644 74.330017C133.374130 73.769547,133.689072 73.009399,133.689072 72.216705Z" style="fill: rgb(100.000000%,100.000000%,100.000000%);stroke: none;"></path>
  <path d="M151.948273 85.981216C151.948273 85.188522,151.633331 84.428375,151.072845 83.867905C150.512375 83.307419,149.752228 82.992477,148.959534 82.992477C148.166840 82.992477,147.406693 83.307419,146.846222 83.867905C146.285736 84.428375,145.970795 85.188522,145.970795 85.981216C145.970795 86.773911,146.285736 87.534058,146.846222 88.094528C147.406693 88.655014,148.166840 88.969955,148.959534 88.969955C149.752228 88.969955,150.512375 88.655014,151.072845 88.094528C151.633331 87.534058,151.948273 86.773911,151.948273 85.981216Z" style="fill: rgb(100.000000%,100.000000%,100.000000%);stroke: none;"></path>
  <path d="M143.891479 79.333328C143.891479 78.540634,143.576538 77.780487,143.016052 77.220016C142.455582 76.659531,141.695435 76.344589,140.902740 76.344589C140.110046 76.344589,139.349899 76.659531,138.789429 77.220016C138.228943 77.780487,137.914001 78.540634,137.914001 79.333328C137.914001 80.126022,138.228943 80.886169,138.789429 81.446640C139.349899 82.007126,140.110046 82.322067,140.902740 82.322067C141.695435 82.322067,142.455582 82.007126,143.016052 81.446640C143.576538 80.886169,143.891479 80.126022,143.891479 79.333328Z" style="fill: rgb(100.000000%,100.000000%,100.000000%);stroke: none;"></path>
  <path d="M170.289413 98.903885C170.289413 98.111191,169.974472 97.351044,169.413986 96.790573C168.853516 96.230087,168.093369 95.915146,167.300674 95.915146C166.507980 95.915146,165.747833 96.230087,165.187363 96.790573C164.626877 97.351044,164.311935 98.111191,164.311935 98.903885C164.311935 99.696579,164.626877 100.456726,165.187363 101.017197C165.747833 101.577682,166.507980 101.892624,167.300674 101.892624C168.093369 101.892624,168.853516 101.577682,169.413986 101.017197C169.974472 100.456726,170.289413 99.696579,170.289413 98.903885Z" style="fill: rgb(100.000000%,100.000000%,100.000000%);stroke: none;"></path>
  <path d="M156.529037 90.312744C156.529037 89.520050,156.214096 88.759903,155.653610 88.199432C155.093140 87.638947,154.332993 87.324005,153.540298 87.324005C152.747604 87.324005,151.987457 87.638947,151.426987 88.199432C150.866501 88.759903,150.551559 89.520050,150.551559 90.312744C150.551559 91.105438,150.866501 91.865585,151.426987 92.426056C151.987457 92.986542,152.747604 93.301483,153.540298 93.301483C154.332993 93.301483,155.093140 92.986542,155.653610 92.426056C156.214096 91.865585,156.529037 91.105438,156.529037 90.312744Z" style="fill: rgb(100.000000%,100.000000%,100.000000%);stroke: none;"></path>
  <path d="M198.477402 119.924469C198.477402 119.131775,198.162460 118.371628,197.601974 117.811157C197.041504 117.250671,196.281357 116.935730,195.488663 116.935730C194.695969 116.935730,193.935822 117.250671,193.375351 117.811157C192.814865 118.371628,192.499924 119.131775,192.499924 119.924469C192.499924 120.717163,192.814865 121.477310,193.375351 122.037781C193.935822 122.598267,194.695969 122.913208,195.488663 122.913208C196.281357 122.913208,197.041504 122.598267,197.601974 122.037781C198.162460 121.477310,198.477402 120.717163,198.477402 119.924469Z" style="fill: rgb(100.000000%,100.000000%,100.000000%);stroke: none;"></path>
  <path d="M180.410385 101.538925C180.410385 100.746231,180.095444 99.986084,179.534958 99.425613C178.974487 98.865128,178.214340 98.550186,177.421646 98.550186C176.628952 98.550186,175.868805 98.865128,175.308334 99.425613C174.747849 99.986084,174.432907 100.746231,174.432907 101.538925C174.432907 102.331619,174.747849 103.091766,175.308334 103.652237C175.868805 104.212723,176.628952 104.527664,177.421646 104.527664C178.214340 104.527664,178.974487 104.212723,179.534958 103.652237C180.095444 103.091766,180.410385 102.331619,180.410385 101.538925Z" style="fill: rgb(100.000000%,100.000000%,100.000000%);stroke: none;"></path>
  <path d="M181.642838 163.509415C181.642838 162.716721,181.327896 161.956573,180.767410 161.396103C180.206940 160.835617,179.446793 160.520676,178.654099 160.520676C177.861404 160.520676,177.101257 160.835617,176.540787 161.396103C175.980301 161.956573,175.665359 162.716721,175.665359 163.509415C175.665359 164.302109,175.980301 165.062256,176.540787 165.622726C177.101257 166.183212,177.861404 166.498154,178.654099 166.498154C179.446793 166.498154,180.206940 166.183212,180.767410 165.622726C181.327896 165.062256,181.642838 164.302109,181.642838 163.509415Z" style="fill: rgb(100.000000%,100.000000%,100.000000%);stroke: none;"></path>
  <path d="M198.811401 137.619461C198.811401 136.826767,198.496460 136.066620,197.935974 135.506149C197.375504 134.945663,196.615356 134.630722,195.822662 134.630722C195.029968 134.630722,194.269821 134.945663,193.709351 135.506149C193.148865 136.066620,192.833923 136.826767,192.833923 137.619461C192.833923 138.412155,193.148865 139.172302,193.709351 139.732773C194.269821 140.293259,195.029968 140.608200,195.822662 140.608200C196.615356 140.608200,197.375504 140.293259,197.935974 139.732773C198.496460 139.172302,198.811401 138.412155,198.811401 137.619461Z" style="fill: rgb(100.000000%,100.000000%,100.000000%);stroke: none;"></path>
  <path d="M139.010742 158.883438C139.010742 158.090744,138.695801 157.330597,138.135315 156.770126C137.574844 156.209641,136.814697 155.894699,136.022003 155.894699C135.229309 155.894699,134.469162 156.209641,133.908691 156.770126C133.348206 157.330597,133.033264 158.090744,133.033264 158.883438C133.033264 159.676132,133.348206 160.436279,133.908691 160.996750C134.469162 161.557236,135.229309 161.872177,136.022003 161.872177C136.814697 161.872177,137.574844 161.557236,138.135315 160.996750C138.695801 160.436279,139.010742 159.676132,139.010742 158.883438Z" style="fill: rgb(100.000000%,100.000000%,100.000000%);stroke: none;"></path>
  <path d="M166.431427 170.058990C166.431427 169.266296,166.116486 168.506149,165.556000 167.945679C164.995529 167.385193,164.235382 167.070251,163.442688 167.070251C162.649994 167.070251,161.889847 167.385193,161.329376 167.945679C160.768890 168.506149,160.453949 169.266296,160.453949 170.058990C160.453949 170.851685,160.768890 171.611832,161.329376 172.172302C161.889847 172.732788,162.649994 173.047729,163.442688 173.047729C164.235382 173.047729,164.995529 172.732788,165.556000 172.172302C166.116486 171.611832,166.431427 170.851685,166.431427 170.058990Z" style="fill: rgb(100.000000%,100.000000%,100.000000%);stroke: none;"></path>
  <path d="M127.948120 119.553040C127.948120 118.760345,127.633179 118.000198,127.072693 117.439728C126.512222 116.879242,125.752075 116.564301,124.959381 116.564301C124.166687 116.564301,123.406540 116.879242,122.846069 117.439728C122.285583 118.000198,121.970642 118.760345,121.970642 119.553040C121.970642 120.345734,122.285583 121.105881,122.846069 121.666351C123.406540 122.226837,124.166687 122.541779,124.959381 122.541779C125.752075 122.541779,126.512222 122.226837,127.072693 121.666351C127.633179 121.105881,127.948120 120.345734,127.948120 119.553040Z" style="fill: rgb(100.000000%,100.000000%,100.000000%);stroke: none;"></path>
  <path d="M133.545334 143.488708C133.545334 142.696014,133.230392 141.935867,132.669907 141.375397C132.109436 140.814911,131.349289 140.499969,130.556595 140.499969C129.763901 140.499969,129.003754 140.814911,128.443283 141.375397C127.882797 141.935867,127.567856 142.696014,127.567856 143.488708C127.567856 144.281403,127.882797 145.041550,128.443283 145.602020C129.003754 146.162506,129.763901 146.477448,130.556595 146.477448C131.349289 146.477448,132.109436 146.162506,132.669907 145.602020C133.230392 145.041550,133.545334 144.281403,133.545334 143.488708Z" style="fill: rgb(100.000000%,100.000000%,100.000000%);stroke: none;"></path>
  <path d="M122.663559 95.315491C122.663559 94.522797,122.348618 93.762650,121.788132 93.202179C121.227661 92.641693,120.467514 92.326752,119.674820 92.326752C118.882126 92.326752,118.121979 92.641693,117.561508 93.202179C117.001022 93.762650,116.686081 94.522797,116.686081 95.315491C116.686081 96.108185,117.001022 96.868332,117.561508 97.428802C118.121979 97.989288,118.882126 98.304230,119.674820 98.304230C120.467514 98.304230,121.227661 97.989288,121.788132 97.428802C122.348618 96.868332,122.663559 96.108185,122.663559 95.315491Z" style="fill: rgb(100.000000%,100.000000%,100.000000%);stroke: none;"></path>
  <path d="M126.138962 110.276413C126.138962 109.483719,125.824020 108.723572,125.263535 108.163101C124.703064 107.602615,123.942917 107.287674,123.150223 107.287674C122.357529 107.287674,121.597382 107.602615,121.036911 108.163101C120.476425 108.723572,120.161484 109.483719,120.161484 110.276413C120.161484 111.069107,120.476425 111.829254,121.036911 112.389725C121.597382 112.950211,122.357529 113.265152,123.150223 113.265152C123.942917 113.265152,124.703064 112.950211,125.263535 112.389725C125.824020 111.829254,126.138962 111.069107,126.138962 110.276413Z" style="fill: rgb(100.000000%,100.000000%,100.000000%);stroke: none;"></path>
  <path d="M122.338348 78.210526C122.338348 77.417831,122.023407 76.657684,121.462921 76.097214C120.902451 75.536728,120.142303 75.221786,119.349609 75.221786C118.556915 75.221786,117.796768 75.536728,117.236298 76.097214C116.675812 76.657684,116.360870 77.417831,116.360870 78.210526C116.360870 79.003220,116.675812 79.763367,117.236298 80.323837C117.796768 80.884323,118.556915 81.199265,119.349609 81.199265C120.142303 81.199265,120.902451 80.884323,121.462921 80.323837C122.023407 79.763367,122.338348 79.003220,122.338348 78.210526Z" style="fill: rgb(100.000000%,100.000000%,100.000000%);stroke: none;"></path>
  <path d="M121.192627 89.491653C121.192627 88.698959,120.877686 87.938812,120.317200 87.378342C119.756729 86.817856,118.996582 86.502914,118.203888 86.502914C117.411194 86.502914,116.651047 86.817856,116.090576 87.378342C115.530090 87.938812,115.215149 88.698959,115.215149 89.491653C115.215149 90.284348,115.530090 91.044495,116.090576 91.604965C116.651047 92.165451,117.411194 92.480392,118.203888 92.480392C118.996582 92.480392,119.756729 92.165451,120.317200 91.604965C120.877686 91.044495,121.192627 90.284348,121.192627 89.491653Z" style="fill: rgb(100.000000%,100.000000%,100.000000%);stroke: none;"></path>
  <path d="M128.981247 62.174545C128.981247 61.381851,128.666306 60.621704,128.105820 60.061234C127.545349 59.500748,126.785202 59.185806,125.992508 59.185806C125.199814 59.185806,124.439667 59.500748,123.879196 60.061234C123.318710 60.621704,123.003769 61.381851,123.003769 62.174545C123.003769 62.967239,123.318710 63.727386,123.879196 64.287857C124.439667 64.848343,125.199814 65.163284,125.992508 65.163284C126.785202 65.163284,127.545349 64.848343,128.105820 64.287857C128.666306 63.727386,128.981247 62.967239,128.981247 62.174545Z" style="fill: rgb(100.000000%,100.000000%,100.000000%);stroke: none;"></path>
  <path d="M124.580170 73.206833C124.580170 72.414139,124.265228 71.653992,123.704742 71.093521C123.144272 70.533035,122.384125 70.218094,121.591431 70.218094C120.798737 70.218094,120.038589 70.533035,119.478119 71.093521C118.917633 71.653992,118.602692 72.414139,118.602692 73.206833C118.602692 73.999527,118.917633 74.759674,119.478119 75.320145C120.038589 75.880630,120.798737 76.195572,121.591431 76.195572C122.384125 76.195572,123.144272 75.880630,123.704742 75.320145C124.265228 74.759674,124.580170 73.999527,124.580170 73.206833Z" style="fill: rgb(100.000000%,100.000000%,100.000000%);stroke: none;"></path>
  <path d="M139.720612 41.619858C139.720612 40.827164,139.405670 40.067017,138.845184 39.506546C138.284714 38.946060,137.524567 38.631119,136.731873 38.631119C135.939178 38.631119,135.179031 38.946060,134.618561 39.506546C134.058075 40.067017,133.743134 40.827164,133.743134 41.619858C133.743134 42.412552,134.058075 43.172699,134.618561 43.733170C135.179031 44.293655,135.939178 44.608597,136.731873 44.608597C137.524567 44.608597,138.284714 44.293655,138.845184 43.733170C139.405670 43.172699,139.720612 42.412552,139.720612 41.619858Z" style="fill: rgb(100.000000%,100.000000%,100.000000%);stroke: none;"></path>
  <path d="M131.076096 56.009064C131.076096 55.216370,130.761154 54.456223,130.200668 53.895752C129.640198 53.335266,128.880051 53.020325,128.087357 53.020325C127.294662 53.020325,126.534515 53.335266,125.974045 53.895752C125.413559 54.456223,125.098618 55.216370,125.098618 56.009064C125.098618 56.801758,125.413559 57.561905,125.974045 58.122375C126.534515 58.682861,127.294662 58.997803,128.087357 58.997803C128.880051 58.997803,129.640198 58.682861,130.200668 58.122375C130.761154 57.561905,131.076096 56.801758,131.076096 56.009064Z" style="fill: rgb(100.000000%,100.000000%,100.000000%);stroke: none;"></path>
  <path d="M172.915176 35.662674C172.915176 34.869980,172.600235 34.109833,172.039749 33.549362C171.479279 32.988876,170.719131 32.673935,169.926437 32.673935C169.133743 32.673935,168.373596 32.988876,167.813126 33.549362C167.252640 34.109833,166.937698 34.869980,166.937698 35.662674C166.937698 36.455368,167.252640 37.215515,167.813126 37.775986C168.373596 38.336472,169.133743 38.651413,169.926437 38.651413C170.719131 38.651413,171.479279 38.336472,172.039749 37.775986C172.600235 37.215515,172.915176 36.455368,172.915176 35.662674Z" style="fill: rgb(100.000000%,100.000000%,100.000000%);stroke: none;"></path>
  <path d="M148.305527 34.697540C148.305527 33.904846,147.990585 33.144699,147.430099 32.584229C146.869629 32.023743,146.109482 31.708801,145.316788 31.708801C144.524094 31.708801,143.763947 32.023743,143.203476 32.584229C142.642990 33.144699,142.328049 33.904846,142.328049 34.697540C142.328049 35.490234,142.642990 36.250381,143.203476 36.810852C143.763947 37.371338,144.524094 37.686279,145.316788 37.686279C146.109482 37.686279,146.869629 37.371338,147.430099 36.810852C147.990585 36.250381,148.305527 35.490234,148.305527 34.697540Z" style="fill: rgb(100.000000%,100.000000%,100.000000%);stroke: none;"></path>
  <path d="M193.995041 78.748627C193.995041 77.955933,193.680099 77.195786,193.119614 76.635315C192.559143 76.074829,191.798996 75.759888,191.006302 75.759888C190.213608 75.759888,189.453461 76.074829,188.892990 76.635315C188.332504 77.195786,188.017563 77.955933,188.017563 78.748627C188.017563 79.541321,188.332504 80.301468,188.892990 80.861938C189.453461 81.422424,190.213608 81.737366,191.006302 81.737366C191.798996 81.737366,192.559143 81.422424,193.119614 80.861938C193.680099 80.301468,193.995041 79.541321,193.995041 78.748627Z" style="fill: rgb(100.000000%,100.000000%,100.000000%);stroke: none;"></path>
  <path d="M181.602448 49.532578C181.602448 48.739883,181.287506 47.979736,180.727020 47.419266C180.166550 46.858780,179.406403 46.543839,178.613708 46.543839C177.821014 46.543839,177.060867 46.858780,176.500397 47.419266C175.939911 47.979736,175.624969 48.739883,175.624969 49.532578C175.624969 50.325272,175.939911 51.085419,176.500397 51.645889C177.060867 52.206375,177.821014 52.521317,178.613708 52.521317C179.406403 52.521317,180.166550 52.206375,180.727020 51.645889C181.287506 51.085419,181.602448 50.325272,181.602448 49.532578Z" style="fill: rgb(100.000000%,100.000000%,100.000000%);stroke: none;"></path>
  <path d="M180.461578 116.389236C180.461578 115.596542,180.146637 114.836395,179.586151 114.275925C179.025681 113.715439,178.265533 113.400497,177.472839 113.400497C176.680145 113.400497,175.919998 113.715439,175.359528 114.275925C174.799042 114.836395,174.484100 115.596542,174.484100 116.389236C174.484100 117.181931,174.799042 117.942078,175.359528 118.502548C175.919998 119.063034,176.680145 119.377975,177.472839 119.377975C178.265533 119.377975,179.025681 119.063034,179.586151 118.502548C180.146637 117.942078,180.461578 117.181931,180.461578 116.389236Z" style="fill: rgb(100.000000%,100.000000%,100.000000%);stroke: none;"></path>
  <path d="M198.281097 96.607925C198.281097 95.815231,197.966156 95.055084,197.405670 94.494614C196.845200 93.934128,196.085052 93.619186,195.292358 93.619186C194.499664 93.619186,193.739517 93.934128,193.179047 94.494614C192.618561 95.055084,192.303619 95.815231,192.303619 96.607925C192.303619 97.400620,192.618561 98.160767,193.179047 98.721237C193.739517 99.281723,194.499664 99.596664,195.292358 99.596664C196.085052 99.596664,196.845200 99.281723,197.405670 98.721237C197.966156 98.160767,198.281097 97.400620,198.281097 96.607925Z" style="fill: rgb(100.000000%,100.000000%,100.000000%);stroke: none;"></path>
  <path d="M154.475540 137.471863C154.475540 136.679169,154.160599 135.919022,153.600113 135.358551C153.039642 134.798065,152.279495 134.483124,151.486801 134.483124C150.694107 134.483124,149.933960 134.798065,149.373489 135.358551C148.813004 135.919022,148.498062 136.679169,148.498062 137.471863C148.498062 138.264557,148.813004 139.024704,149.373489 139.585175C149.933960 140.145660,150.694107 140.460602,151.486801 140.460602C152.279495 140.460602,153.039642 140.145660,153.600113 139.585175C154.160599 139.024704,154.475540 138.264557,154.475540 137.471863Z" style="fill: rgb(100.000000%,100.000000%,100.000000%);stroke: none;"></path>
  <path d="M168.801315 118.351990C168.801315 117.559296,168.486374 116.799149,167.925888 116.238678C167.365417 115.678192,166.605270 115.363251,165.812576 115.363251C165.019882 115.363251,164.259735 115.678192,163.699265 116.238678C163.138779 116.799149,162.823837 117.559296,162.823837 118.351990C162.823837 119.144684,163.138779 119.904831,163.699265 120.465302C164.259735 121.025787,165.019882 121.340729,165.812576 121.340729C166.605270 121.340729,167.365417 121.025787,167.925888 120.465302C168.486374 119.904831,168.801315 119.144684,168.801315 118.351990Z" style="fill: rgb(100.000000%,100.000000%,100.000000%);stroke: none;"></path>
  <path d="M143.254547 182.153244C143.254547 181.360550,142.939606 180.600403,142.379120 180.039932C141.818649 179.479446,141.058502 179.164505,140.265808 179.164505C139.473114 179.164505,138.712967 179.479446,138.152496 180.039932C137.592010 180.600403,137.277069 181.360550,137.277069 182.153244C137.277069 182.945938,137.592010 183.706085,138.152496 184.266556C138.712967 184.827042,139.473114 185.141983,140.265808 185.141983C141.058502 185.141983,141.818649 184.827042,142.379120 184.266556C142.939606 183.706085,143.254547 182.945938,143.254547 182.153244Z" style="fill: rgb(100.000000%,100.000000%,100.000000%);stroke: none;"></path>
  <path d="M159.173630 152.845200C159.173630 152.052505,158.858688 151.292358,158.298203 150.731888C157.737732 150.171402,156.977585 149.856461,156.184891 149.856461C155.392197 149.856461,154.632050 150.171402,154.071579 150.731888C153.511093 151.292358,153.196152 152.052505,153.196152 152.845200C153.196152 153.637894,153.511093 154.398041,154.071579 154.958511C154.632050 155.518997,155.392197 155.833939,156.184891 155.833939C156.977585 155.833939,157.737732 155.518997,158.298203 154.958511C158.858688 154.398041,159.173630 153.637894,159.173630 152.845200Z" style="fill: rgb(100.000000%,100.000000%,100.000000%);stroke: none;"></path>
  <path d="M97.297485 184.475967C75.088074 189.350479,52.960312 175.942963,47.000000 154.000000C43.519257 141.185623,46.725647 127.819031,47.043045 114.598251C47.208893 107.689865,46.573669 100.775970,47.000000 93.877335C47.397095 87.451736,48.546097 80.622589,44.915649 75.282791C39.308411 67.035431,27.356979 67.224213,18.709198 73.592163C4.067657 84.373734,2.524536 104.756760,8.431915 122.611267C14.495575 140.938141,28.891998 156.413300,47.000000 154.000000C61.339645 152.088913,70.685669 139.205353,75.562576 125.250916C78.617828 116.508850,80.237701 107.362747,81.766602 98.233719C83.075821 90.416412,84.325989 82.580673,86.272034 74.895844C88.085815 67.733307,90.496735 60.732697,93.575516 54.015717C96.076431 48.559464,99.044189 43.175949,99.546219 37.178558C100.448975 26.394119,93.682602 16.527191,83.470779 12.749603C68.337952 7.151627,52.713516 15.893402,40.665070 27.244385C27.468338 39.677155,16.880188 55.701950,18.709198 73.592163C19.706009 83.342316,25.061935 92.537018,34.353851 94.658585C38.529465 95.611984,42.819641 94.768356,47.000000 93.877335C52.604965 92.682678,58.278412 91.405411,63.983414 92.045227C70.271103 92.750381,75.979599 95.710144,81.766602 98.233719C88.096451 100.994019,94.699203 103.274155,101.604660 103.588547C108.154739 103.886765,114.597946 102.391327,121.012329 101.073212C126.134460 100.020645,131.427277 99.003174,135.519470 95.726364C139.814896 92.286819,141.959778 87.035370,144.125244 81.992310C146.454788 76.567154,148.947723 71.211594,151.130859 65.725601C155.038315 55.906601,157.940933 45.379562,155.477280 35.096008C151.900543 20.166321,138.683975 10.144043,123.729095 5.948624C109.711319 2.016098,94.308960 3.209198,83.470779 12.749603C73.585892 21.450867,70.408707 35.802338,78.536774 45.296570C82.374176 49.778961,88.131866 51.787521,93.575516 54.015717C98.804764 56.156158,103.893829 58.617264,109.002380 61.030685C113.901352 63.345093,118.822815 65.617828,123.595200 68.183929C127.192856 70.118378,130.700333 72.216705,134.091858 74.493362C137.560715 76.821930,140.902740 79.333328,144.125244 81.992310C148.959534 85.981216,153.540298 90.312744,158.860336 93.634247C167.300674 98.903885,177.421646 101.538925,184.427795 108.668594C195.488663 119.924469,195.822662 137.619461,186.959259 150.985352C178.654099 163.509415,163.442688 170.058990,149.845093 164.517166C136.022003 158.883438,130.556595 143.488708,127.110764 128.753128C124.959381 119.553040,123.150223 110.276413,121.012329 101.073212C119.674820 95.315491,118.203888 89.491653,118.802261 83.599854C119.349609 78.210526,121.591431 73.206833,123.595200 68.183929C125.992508 62.174545,128.087357 56.009064,131.421921 50.458527C136.731873 41.619858,145.316788 34.697540,155.477280 35.096008C169.926437 35.662674,178.613708 49.532578,184.451309 63.294968C191.006302 78.748627,195.292358 96.607925,184.427795 108.668594C177.472839 116.389236,165.812576 118.351990,159.550537 126.709625C151.486801 137.471863,156.184891 152.845200,149.845093 164.517166C140.265808 182.153244,116.765518 180.203140,97.297485 184.475967" style="stroke:rgb(0.000000%,0.000000%,0.000000%); stroke-width: 0.498138;stroke-linecap: round;stroke-linejoin: round;stroke-miterlimit: 10.000000;fill: none;"></path>
  <path d="M97.297485 184.475967C75.088074 189.350479,52.960312 175.942963,47.000000 154.000000" style="stroke:rgb(0.000000%,0.000000%,0.000000%); stroke-width: 1.494400;stroke-linecap: round;stroke-linejoin: round;stroke-miterlimit: 10.000000;fill: none;"></path>
  <path d="M149.845093 164.517166C140.265808 182.153244,116.765518 180.203140,97.297485 184.475967" style="stroke:rgb(0.000000%,0.000000%,0.000000%); stroke-width: 1.494400;stroke-linecap: round;stroke-linejoin: round;stroke-miterlimit: 10.000000;fill: none;"></path>
  <path d="M49.988739 154.000000C49.988739 153.207306,49.673798 152.447159,49.113312 151.886688C48.552841 151.326202,47.792694 151.011261,47.000000 151.011261C46.207306 151.011261,45.447159 151.326202,44.886688 151.886688C44.326202 152.447159,44.011261 153.207306,44.011261 154.000000C44.011261 154.792694,44.326202 155.552841,44.886688 156.113312C45.447159 156.673798,46.207306 156.988739,47.000000 156.988739C47.792694 156.988739,48.552841 156.673798,49.113312 156.113312C49.673798 155.552841,49.988739 154.792694,49.988739 154.000000Z" style="fill: rgb(100.000000%,100.000000%,100.000000%);stroke: none;"></path>
  <path d="M23.199341 146.083206C29.819901 151.941193,37.945999 155.206650,47.000000 154.000000C54.169830 153.044449,60.091248 149.345779,64.829834 144.141693" style="stroke:rgb(0.000000%,0.000000%,0.000000%); stroke-width: 0.498138;stroke-linecap: round;stroke-linejoin: round;stroke-miterlimit: 10.000000;fill: none;"></path>
  <path d="M21.697937 73.592163C21.697937 72.799469,21.382996 72.039322,20.822510 71.478851C20.262039 70.918365,19.501892 70.603424,18.709198 70.603424C17.916504 70.603424,17.156357 70.918365,16.595886 71.478851C16.035400 72.039322,15.720459 72.799469,15.720459 73.592163C15.720459 74.384857,16.035400 75.145004,16.595886 75.705475C17.156357 76.265961,17.916504 76.580902,18.709198 76.580902C19.501892 76.580902,20.262039 76.265961,20.822510 75.705475C21.382996 75.145004,21.697937 74.384857,21.697937 73.592163Z" style="fill: rgb(100.000000%,100.000000%,100.000000%);stroke: none;"></path>
  <path d="M24.052460 48.371750C19.984467 56.168320,17.794693 64.647064,18.709198 73.592163C19.207611 78.467239,20.795792 83.203461,23.420868 86.986099" style="stroke:rgb(0.000000%,0.000000%,0.000000%); stroke-width: 0.498138;stroke-linecap: round;stroke-linejoin: round;stroke-miterlimit: 10.000000;fill: none;"></path>
  <path d="M84.755341 98.233719C84.755341 97.441025,84.440399 96.680878,83.879913 96.120407C83.319443 95.559921,82.559296 95.244980,81.766602 95.244980C80.973907 95.244980,80.213760 95.559921,79.653290 96.120407C79.092804 96.680878,78.777863 97.441025,78.777863 98.233719C78.777863 99.026413,79.092804 99.786560,79.653290 100.347031C80.213760 100.907516,80.973907 101.222458,81.766602 101.222458C82.559296 101.222458,83.319443 100.907516,83.879913 100.347031C84.440399 99.786560,84.755341 99.026413,84.755341 98.233719Z" style="fill: rgb(100.000000%,100.000000%,100.000000%);stroke: none;"></path>
  <path d="M73.062775 94.457581C75.999237 95.601105,78.873108 96.971939,81.766602 98.233719C84.931534 99.613876,88.164688 100.873993,91.469788 101.828369" style="stroke:rgb(0.000000%,0.000000%,0.000000%); stroke-width: 0.498138;stroke-linecap: round;stroke-linejoin: round;stroke-miterlimit: 10.000000;fill: none;"></path>
  <path d="M86.459518 12.749603C86.459518 11.956909,86.144577 11.196762,85.584091 10.636292C85.023621 10.075806,84.263474 9.760864,83.470779 9.760864C82.678085 9.760864,81.917938 10.075806,81.357468 10.636292C80.796982 11.196762,80.482040 11.956909,80.482040 12.749603C80.482040 13.542297,80.796982 14.302444,81.357468 14.862915C81.917938 15.423401,82.678085 15.738342,83.470779 15.738342C84.263474 15.738342,85.023621 15.423401,85.584091 14.862915C86.144577 14.302444,86.459518 13.542297,86.459518 12.749603Z" style="fill: rgb(100.000000%,100.000000%,100.000000%);stroke: none;"></path>
  <path d="M102.407578 4.296768C95.449997 5.296036,88.889862 7.979401,83.470779 12.749603C78.528336 17.100235,75.262817 22.863419,74.248917 28.725723" style="stroke:rgb(0.000000%,0.000000%,0.000000%); stroke-width: 0.498138;stroke-linecap: round;stroke-linejoin: round;stroke-miterlimit: 10.000000;fill: none;"></path>
  <path d="M49.988739 93.877335C49.988739 93.084641,49.673798 92.324493,49.113312 91.764023C48.552841 91.203537,47.792694 90.888596,47.000000 90.888596C46.207306 90.888596,45.447159 91.203537,44.886688 91.764023C44.326202 92.324493,44.011261 93.084641,44.011261 93.877335C44.011261 94.670029,44.326202 95.430176,44.886688 95.990646C45.447159 96.551132,46.207306 96.866074,47.000000 96.866074C47.792694 96.866074,48.552841 96.551132,49.113312 95.990646C49.673798 95.430176,49.988739 94.670029,49.988739 93.877335Z" style="fill: rgb(100.000000%,100.000000%,100.000000%);stroke: none;"></path>
  <path d="M46.923828 104.234116C46.839050 100.779770,46.786835 97.326645,47.000000 93.877335C47.198547 90.664536,47.585083 87.350845,47.468155 84.172882" style="stroke:rgb(0.000000%,0.000000%,0.000000%); stroke-width: 0.498138;stroke-linecap: round;stroke-linejoin: round;stroke-miterlimit: 10.000000;fill: none;"></path>
  <path d="M124.001068 101.073212C124.001068 100.280518,123.686127 99.520370,123.125641 98.959900C122.565170 98.399414,121.805023 98.084473,121.012329 98.084473C120.219635 98.084473,119.459488 98.399414,118.899017 98.959900C118.338531 99.520370,118.023590 100.280518,118.023590 101.073212C118.023590 101.865906,118.338531 102.626053,118.899017 103.186523C119.459488 103.747009,120.219635 104.061951,121.012329 104.061951C121.805023 104.061951,122.565170 103.747009,123.125641 103.186523C123.686127 102.626053,124.001068 101.865906,124.001068 101.073212Z" style="fill: rgb(100.000000%,100.000000%,100.000000%);stroke: none;"></path>
  <path d="M111.359390 102.936996C114.590744 102.435654,117.805145 101.732269,121.012329 101.073212C123.573395 100.546921,126.177139 100.029404,128.652130 99.233856" style="stroke:rgb(0.000000%,0.000000%,0.000000%); stroke-width: 0.498138;stroke-linecap: round;stroke-linejoin: round;stroke-miterlimit: 10.000000;fill: none;"></path>
  <path d="M158.466019 35.096008C158.466019 34.303314,158.151077 33.543167,157.590591 32.982697C157.030121 32.422211,156.269974 32.107269,155.477280 32.107269C154.684586 32.107269,153.924438 32.422211,153.363968 32.982697C152.803482 33.543167,152.488541 34.303314,152.488541 35.096008C152.488541 35.888702,152.803482 36.648849,153.363968 37.209320C153.924438 37.769806,154.684586 38.084747,155.477280 38.084747C156.269974 38.084747,157.030121 37.769806,157.590591 37.209320C158.151077 36.648849,158.466019 35.888702,158.466019 35.096008Z" style="fill: rgb(100.000000%,100.000000%,100.000000%);stroke: none;"></path>
  <path d="M155.693237 50.585007C156.599365 45.440430,156.709106 40.237778,155.477280 35.096008C153.688904 27.631165,149.490570 21.393173,143.869980 16.496964" style="stroke:rgb(0.000000%,0.000000%,0.000000%); stroke-width: 0.498138;stroke-linecap: round;stroke-linejoin: round;stroke-miterlimit: 10.000000;fill: none;"></path>
  <path d="M96.564255 54.015717C96.564255 53.223022,96.249313 52.462875,95.688828 51.902405C95.128357 51.341919,94.368210 51.026978,93.575516 51.026978C92.782822 51.026978,92.022675 51.341919,91.462204 51.902405C90.901718 52.462875,90.586777 53.223022,90.586777 54.015717C90.586777 54.808411,90.901718 55.568558,91.462204 56.129028C92.022675 56.689514,92.782822 57.004456,93.575516 57.004456C94.368210 57.004456,95.128357 56.689514,95.688828 56.129028C96.249313 55.568558,96.564255 54.808411,96.564255 54.015717Z" style="fill: rgb(100.000000%,100.000000%,100.000000%);stroke: none;"></path>
  <path d="M89.449417 64.288696C90.663712 60.803604,92.036133 57.374207,93.575516 54.015717C94.825974 51.287582,96.193146 48.577637,97.310455 45.800049" style="stroke:rgb(0.000000%,0.000000%,0.000000%); stroke-width: 0.498138;stroke-linecap: round;stroke-linejoin: round;stroke-miterlimit: 10.000000;fill: none;"></path>
  <path d="M147.113983 81.992310C147.113983 81.199615,146.799042 80.439468,146.238556 79.878998C145.678085 79.318512,144.917938 79.003571,144.125244 79.003571C143.332550 79.003571,142.572403 79.318512,142.011932 79.878998C141.451447 80.439468,141.136505 81.199615,141.136505 81.992310C141.136505 82.785004,141.451447 83.545151,142.011932 84.105621C142.572403 84.666107,143.332550 84.981049,144.125244 84.981049C144.917938 84.981049,145.678085 84.666107,146.238556 84.105621C146.799042 83.545151,147.113983 82.785004,147.113983 81.992310Z" style="fill: rgb(100.000000%,100.000000%,100.000000%);stroke: none;"></path>
  <path d="M139.200943 78.118942C140.872864 79.370239,142.513992 80.662827,144.125244 81.992310C146.542389 83.986771,148.896164 86.066879,151.310654 88.063568" style="stroke:rgb(0.000000%,0.000000%,0.000000%); stroke-width: 0.498138;stroke-linecap: round;stroke-linejoin: round;stroke-miterlimit: 10.000000;fill: none;"></path>
  <path d="M152.833832 164.517166C152.833832 163.724472,152.518890 162.964325,151.958405 162.403854C151.397934 161.843369,150.637787 161.528427,149.845093 161.528427C149.052399 161.528427,148.292252 161.843369,147.731781 162.403854C147.171295 162.964325,146.856354 163.724472,146.856354 164.517166C146.856354 165.309860,147.171295 166.070007,147.731781 166.630478C148.292252 167.190964,149.052399 167.505905,149.845093 167.505905C150.637787 167.505905,151.397934 167.190964,151.958405 166.630478C152.518890 166.070007,152.833832 165.309860,152.833832 164.517166Z" style="fill: rgb(100.000000%,100.000000%,100.000000%);stroke: none;"></path>
  <path d="M170.386826 164.525986C163.846130 167.036148,156.643890 167.288071,149.845093 164.517166C142.933548 161.700302,138.111420 156.443176,134.586441 150.048325" style="stroke:rgb(0.000000%,0.000000%,0.000000%); stroke-width: 0.498138;stroke-linecap: round;stroke-linejoin: round;stroke-miterlimit: 10.000000;fill: none;"></path>
  <path d="M126.583939 68.183929C126.583939 67.391235,126.268997 66.631088,125.708511 66.070618C125.148041 65.510132,124.387894 65.195190,123.595200 65.195190C122.802505 65.195190,122.042358 65.510132,121.481888 66.070618C120.921402 66.631088,120.606461 67.391235,120.606461 68.183929C120.606461 68.976624,120.921402 69.736771,121.481888 70.297241C122.042358 70.857727,122.802505 71.172668,123.595200 71.172668C124.387894 71.172668,125.148041 70.857727,125.708511 70.297241C126.268997 69.736771,126.583939 68.976624,126.583939 68.183929Z" style="fill: rgb(100.000000%,100.000000%,100.000000%);stroke: none;"></path>
  <path d="M120.652588 75.754471C121.531921 73.202026,122.593323 70.695374,123.595200 68.183929C124.793854 65.179230,125.916901 62.135513,127.157104 59.149155" style="stroke:rgb(0.000000%,0.000000%,0.000000%); stroke-width: 0.498138;stroke-linecap: round;stroke-linejoin: round;stroke-miterlimit: 10.000000;fill: none;"></path>
  <path d="M187.416534 108.668594C187.416534 107.875900,187.101593 107.115753,186.541107 106.555283C185.980637 105.994797,185.220490 105.679855,184.427795 105.679855C183.635101 105.679855,182.874954 105.994797,182.314484 106.555283C181.753998 107.115753,181.439056 107.875900,181.439056 108.668594C181.439056 109.461288,181.753998 110.221436,182.314484 110.781906C182.874954 111.342392,183.635101 111.657333,184.427795 111.657333C185.220490 111.657333,185.980637 111.342392,186.541107 110.781906C187.101593 110.221436,187.416534 109.461288,187.416534 108.668594Z" style="fill: rgb(100.000000%,100.000000%,100.000000%);stroke: none;"></path>
  <path d="M190.971893 87.254166C191.504700 95.158279,189.860077 102.638260,184.427795 108.668594C180.950317 112.528915,176.296509 114.949768,171.729309 117.450241" style="stroke:rgb(0.000000%,0.000000%,0.000000%); stroke-width: 0.498138;stroke-linecap: round;stroke-linejoin: round;stroke-miterlimit: 10.000000;fill: none;"></path>
  <path d="M44.915649 75.282791C40.429840 68.684875,31.883713 67.486145,24.217026 70.530975" style="stroke:rgb(0.000000%,0.000000%,0.000000%); stroke-width: 0.498138;stroke-linecap: round;stroke-linejoin: round;stroke-miterlimit: 10.000000;fill: none;"></path>
  <path d="M26.498322 68.582458C25.706268 69.174332,24.943298 69.825653,24.217026 70.530975C25.229309 70.545807,26.229370 70.624771,27.207947 70.766327Z" style="stroke:rgb(0.000000%,0.000000%,0.000000%); stroke-width: 0.498138;fill: rgb(0.000000%,0.000000%,0.000000%);"></path>
  <path d="M75.562576 125.250916C78.006790 118.257233,79.532349 111.004974,80.827606 103.709732" style="stroke:rgb(0.000000%,0.000000%,0.000000%); stroke-width: 0.498138;stroke-linecap: round;stroke-linejoin: round;stroke-miterlimit: 10.000000;fill: none;"></path>
  <path d="M81.459244 106.642487C81.254044 105.663925,81.042923 104.686386,80.827606 103.709732C80.289230 104.552567,79.747299 105.393082,79.200424 106.230103Z" style="stroke:rgb(0.000000%,0.000000%,0.000000%); stroke-width: 0.498138;fill: rgb(0.000000%,0.000000%,0.000000%);"></path>
  <path d="M99.546219 37.178558C100.268433 28.550980,96.082352 20.510605,89.150543 15.705444" style="stroke:rgb(0.000000%,0.000000%,0.000000%); stroke-width: 0.498138;stroke-linecap: round;stroke-linejoin: round;stroke-miterlimit: 10.000000;fill: none;"></path>
  <path d="M92.039276 16.514297C91.098251 16.189056,90.133636 15.918518,89.150543 15.705444C89.695007 16.551270,90.185776 17.424652,90.621185 18.320053Z" style="stroke:rgb(0.000000%,0.000000%,0.000000%); stroke-width: 0.498138;fill: rgb(0.000000%,0.000000%,0.000000%);"></path>
  <path d="M34.353851 94.658585C37.694351 95.421310,41.108185 95.033920,44.480438 94.392258" style="stroke:rgb(0.000000%,0.000000%,0.000000%); stroke-width: 0.498138;stroke-linecap: round;stroke-linejoin: round;stroke-miterlimit: 10.000000;fill: none;"></path>
  <path d="M41.925385 95.964539C42.792557 95.473587,43.642288 94.942276,44.480438 94.392258C43.498856 94.188492,42.522324 93.963333,41.561981 93.697266Z" style="stroke:rgb(0.000000%,0.000000%,0.000000%); stroke-width: 0.498138;fill: rgb(0.000000%,0.000000%,0.000000%);"></path>
  <path d="M63.983414 92.045227C69.013580 92.609360,73.673065 94.616440,78.298615 96.688782" style="stroke:rgb(0.000000%,0.000000%,0.000000%); stroke-width: 0.498138;stroke-linecap: round;stroke-linejoin: round;stroke-miterlimit: 10.000000;fill: none;"></path>
  <path d="M75.299347 96.622604C76.298248 96.634628,77.298553 96.660278,78.298615 96.688782C77.611633 95.961456,76.922455 95.235977,76.224640 94.521133Z" style="stroke:rgb(0.000000%,0.000000%,0.000000%); stroke-width: 0.498138;fill: rgb(0.000000%,0.000000%,0.000000%);"></path>
  <path d="M151.130859 65.725601C154.256836 57.870377,156.739700 49.561996,156.346405 41.287659" style="stroke:rgb(0.000000%,0.000000%,0.000000%); stroke-width: 0.498138;stroke-linecap: round;stroke-linejoin: round;stroke-miterlimit: 10.000000;fill: none;"></path>
  <path d="M157.513474 44.051514C157.160843 43.115219,156.772934 42.193176,156.346405 41.287659C156.007706 42.229553,155.629990 43.155838,155.217270 44.067230Z" style="stroke:rgb(0.000000%,0.000000%,0.000000%); stroke-width: 0.498138;fill: rgb(0.000000%,0.000000%,0.000000%);"></path>
  <path d="M134.091858 74.493362C136.866959 76.356216,139.560883 78.336090,142.177368 80.414948" style="stroke:rgb(0.000000%,0.000000%,0.000000%); stroke-width: 0.498138;stroke-linecap: round;stroke-linejoin: round;stroke-miterlimit: 10.000000;fill: none;"></path>
  <path d="M139.283859 79.622604C140.251328 79.875549,141.215866 80.139832,142.177368 80.414948C141.692032 79.540497,141.196884 78.671600,140.691666 77.808640Z" style="stroke:rgb(0.000000%,0.000000%,0.000000%); stroke-width: 0.498138;fill: rgb(0.000000%,0.000000%,0.000000%);"></path>
  <path d="M186.959259 150.985352C180.315109 161.004639,169.250916 167.200226,158.129028 166.440231" style="stroke:rgb(0.000000%,0.000000%,0.000000%); stroke-width: 0.498138;stroke-linecap: round;stroke-linejoin: round;stroke-miterlimit: 10.000000;fill: none;"></path>
  <path d="M160.915085 165.327744C160.009796 165.748291,159.080414 166.120224,158.129028 166.440231C159.028046 166.886703,159.948212 167.280884,160.885696 167.623672Z" style="stroke:rgb(0.000000%,0.000000%,0.000000%); stroke-width: 0.498138;fill: rgb(0.000000%,0.000000%,0.000000%);"></path>
  <path d="M118.802261 83.599854C119.240143 79.288376,120.762482 75.223694,122.379852 71.198563" style="stroke:rgb(0.000000%,0.000000%,0.000000%); stroke-width: 0.498138;stroke-linecap: round;stroke-linejoin: round;stroke-miterlimit: 10.000000;fill: none;"></path>
  <path d="M122.440414 74.197952C122.406616 73.199692,122.390488 72.199127,122.379852 71.198563C121.679855 71.913574,120.983734 72.632462,120.301743 73.362228Z" style="stroke:rgb(0.000000%,0.000000%,0.000000%); stroke-width: 0.498138;fill: rgb(0.000000%,0.000000%,0.000000%);"></path>
  <path d="M159.550537 126.709625C153.099518 135.319443,154.816132 146.880402,152.514786 157.136444" style="stroke:rgb(0.000000%,0.000000%,0.000000%); stroke-width: 0.498138;stroke-linecap: round;stroke-linejoin: round;stroke-miterlimit: 10.000000;fill: none;"></path>
  <path d="M151.900742 154.199905C152.135956 155.176193,152.344284 156.154816,152.514786 157.136444C153.088364 156.321777,153.633057 155.482468,154.157089 154.625839Z" style="stroke:rgb(0.000000%,0.000000%,0.000000%); stroke-width: 0.498138;fill: rgb(0.000000%,0.000000%,0.000000%);"></path>
  <path d="M94.306839 187.186172L100.288132 187.186172L100.288132 179.765778L94.306839 179.765778Z" style="fill: rgb(100.000000%,100.000000%,100.000000%);stroke: none;"></path>
  <path d="M94.306839 189.186172L100.288132 189.186172L100.288132 181.765778L94.306839 181.765778Z" style="fill: rgb(100.000000%,100.000000%,100.000000%);stroke: none;"></path>
  <g transform="translate(94.806839 187.686172)" style="fill: rgb(0.000000%,0.000000%,0.000000%);">
    <use xlink:href="#GLYPHcmr10_49"></use>
  </g>
  <path d="M44.052399 117.308456L50.033691 117.308456L50.033691 109.888062L44.052399 109.888062Z" style="fill: rgb(100.000000%,100.000000%,100.000000%);stroke: none;"></path>
  <path d="M44.052399 119.308456L50.033691 119.308456L50.033691 111.888062L44.052399 111.888062Z" style="fill: rgb(100.000000%,100.000000%,100.000000%);stroke: none;"></path>
  <g transform="translate(44.552399 117.808456)" style="fill: rgb(0.000000%,0.000000%,0.000000%);">
    <use xlink:href="#GLYPHcmr10_50"></use>
  </g>
  <path d="M5.441269 125.321472L11.422562 125.321472L11.422562 117.901077L5.441269 117.901077Z" style="fill: rgb(100.000000%,100.000000%,100.000000%);stroke: none;"></path>
  <path d="M5.441269 127.321472L11.422562 127.321472L11.422562 119.901077L5.441269 119.901077Z" style="fill: rgb(100.000000%,100.000000%,100.000000%);stroke: none;"></path>
  <g transform="translate(5.941269 125.821472)" style="fill: rgb(0.000000%,0.000000%,0.000000%);">
    <use xlink:href="#GLYPHcmr10_51"></use>
  </g>
  <path d="M83.281387 77.606049L89.262680 77.606049L89.262680 70.185654L83.281387 70.185654Z" style="fill: rgb(100.000000%,100.000000%,100.000000%);stroke: none;"></path>
  <path d="M83.281387 79.606049L89.262680 79.606049L89.262680 72.185654L83.281387 72.185654Z" style="fill: rgb(100.000000%,100.000000%,100.000000%);stroke: none;"></path>
  <g transform="translate(83.781387 78.106049)" style="fill: rgb(0.000000%,0.000000%,0.000000%);">
    <use xlink:href="#GLYPHcmr10_52"></use>
  </g>
  <path d="M37.674423 29.954590L43.655716 29.954590L43.655716 22.534195L37.674423 22.534195Z" style="fill: rgb(100.000000%,100.000000%,100.000000%);stroke: none;"></path>
  <path d="M37.674423 31.954590L43.655716 31.954590L43.655716 24.534195L37.674423 24.534195Z" style="fill: rgb(100.000000%,100.000000%,100.000000%);stroke: none;"></path>
  <g transform="translate(38.174423 30.454590)" style="fill: rgb(0.000000%,0.000000%,0.000000%);">
    <use xlink:href="#GLYPHcmr10_53"></use>
  </g>
  <path d="M98.614014 106.298752L104.595306 106.298752L104.595306 98.878357L98.614014 98.878357Z" style="fill: rgb(100.000000%,100.000000%,100.000000%);stroke: none;"></path>
  <path d="M98.614014 108.298752L104.595306 108.298752L104.595306 100.878357L98.614014 100.878357Z" style="fill: rgb(100.000000%,100.000000%,100.000000%);stroke: none;"></path>
  <g transform="translate(99.114014 106.798752)" style="fill: rgb(0.000000%,0.000000%,0.000000%);">
    <use xlink:href="#GLYPHcmr10_54"></use>
  </g>
  <path d="M120.738449 8.658829L126.719742 8.658829L126.719742 1.238434L120.738449 1.238434Z" style="fill: rgb(100.000000%,100.000000%,100.000000%);stroke: none;"></path>
  <path d="M120.738449 10.658829L126.719742 10.658829L126.719742 3.238434L120.738449 3.238434Z" style="fill: rgb(100.000000%,100.000000%,100.000000%);stroke: none;"></path>
  <g transform="translate(121.238449 9.158829)" style="fill: rgb(0.000000%,0.000000%,0.000000%);">
    <use xlink:href="#GLYPHcmr10_55"></use>
  </g>
  <path d="M106.011734 63.740891L111.993027 63.740891L111.993027 56.320496L106.011734 56.320496Z" style="fill: rgb(100.000000%,100.000000%,100.000000%);stroke: none;"></path>
  <path d="M106.011734 65.740891L111.993027 65.740891L111.993027 58.320496L106.011734 58.320496Z" style="fill: rgb(100.000000%,100.000000%,100.000000%);stroke: none;"></path>
  <g transform="translate(106.511734 64.240891)" style="fill: rgb(0.000000%,0.000000%,0.000000%);">
    <use xlink:href="#GLYPHcmr10_56"></use>
  </g>
  <path d="M155.869690 96.344452L161.850983 96.344452L161.850983 88.924057L155.869690 88.924057Z" style="fill: rgb(100.000000%,100.000000%,100.000000%);stroke: none;"></path>
  <path d="M155.869690 98.344452L161.850983 98.344452L161.850983 90.924057L155.869690 90.924057Z" style="fill: rgb(100.000000%,100.000000%,100.000000%);stroke: none;"></path>
  <g transform="translate(156.369690 96.844452)" style="fill: rgb(0.000000%,0.000000%,0.000000%);">
    <use xlink:href="#GLYPHcmr10_57"></use>
  </g>
  <path d="M121.629410 131.463333L132.592117 131.463333L132.592117 124.042938L121.629410 124.042938Z" style="fill: rgb(100.000000%,100.000000%,100.000000%);stroke: none;"></path>
  <path d="M121.629410 133.463333L132.592117 133.463333L132.592117 126.042938L121.629410 126.042938Z" style="fill: rgb(100.000000%,100.000000%,100.000000%);stroke: none;"></path>
  <g transform="translate(122.129410 131.963333)" style="fill: rgb(0.000000%,0.000000%,0.000000%);">
    <use xlink:href="#GLYPHcmr10_49"></use>
    <use xlink:href="#GLYPHcmr10_48" x="5.000095"></use>
  </g>
  <path d="M125.940567 53.168732L136.903275 53.168732L136.903275 45.748337L125.940567 45.748337Z" style="fill: rgb(100.000000%,100.000000%,100.000000%);stroke: none;"></path>
  <path d="M125.940567 55.168732L136.903275 55.168732L136.903275 47.748337L125.940567 47.748337Z" style="fill: rgb(100.000000%,100.000000%,100.000000%);stroke: none;"></path>
  <g transform="translate(126.440567 53.668732)" style="fill: rgb(0.000000%,0.000000%,0.000000%);">
    <use xlink:href="#GLYPHcmr10_49"></use>
    <use xlink:href="#GLYPHcmr10_49" x="5.000095"></use>
  </g>
  <path d="M178.969955 66.005173L189.932663 66.005173L189.932663 58.584778L178.969955 58.584778Z" style="fill: rgb(100.000000%,100.000000%,100.000000%);stroke: none;"></path>
  <path d="M178.969955 68.005173L189.932663 68.005173L189.932663 60.584778L178.969955 60.584778Z" style="fill: rgb(100.000000%,100.000000%,100.000000%);stroke: none;"></path>
  <g transform="translate(179.469955 66.505173)" style="fill: rgb(0.000000%,0.000000%,0.000000%);">
    <use xlink:href="#GLYPHcmr10_49"></use>
    <use xlink:href="#GLYPHcmr10_50" x="5.000095"></use>
  </g>
</svg>
