<?xml version="1.0"?>
<!-- Created by MetaPost 1.999 on 2021.07.06:0002 -->
<svg version="1.1" xmlns="http://www.w3.org/2000/svg" xmlns:xlink="http://www.w3.org/1999/xlink" width="203.272598" height="201.740662" viewBox="0 0 203.272598 201.740662">
<!-- Original BoundingBox: -148.729309 -23.306641 54.543289 178.434021 -->
  <defs>
    <g transform="scale(0.009963,0.009963)" id="GLYPHcmr10_48">
      <path style="fill-rule: evenodd;" d="M460.000000 -320.000000C460.000000 -400.000000,455.000000 -480.000000,420.000000 -554.000000C374.000000 -650.000000,292.000000 -666.000000,250.000000 -666.000000C190.000000 -666.000000,117.000000 -640.000000,76.000000 -547.000000C44.000000 -478.000000,39.000000 -400.000000,39.000000 -320.000000C39.000000 -245.000000,43.000000 -155.000000,84.000000 -79.000000C127.000000 2.000000,200.000000 22.000000,249.000000 22.000000C303.000000 22.000000,379.000000 1.000000,423.000000 -94.000000C455.000000 -163.000000,460.000000 -241.000000,460.000000 -320.000000M249.000000 -0.000000C210.000000 -0.000000,151.000000 -25.000000,133.000000 -121.000000C122.000000 -181.000000,122.000000 -273.000000,122.000000 -332.000000C122.000000 -396.000000,122.000000 -462.000000,130.000000 -516.000000C149.000000 -635.000000,224.000000 -644.000000,249.000000 -644.000000C282.000000 -644.000000,348.000000 -626.000000,367.000000 -527.000000C377.000000 -471.000000,377.000000 -395.000000,377.000000 -332.000000C377.000000 -257.000000,377.000000 -189.000000,366.000000 -125.000000C351.000000 -30.000000,294.000000 -0.000000,249.000000 -0.000000"></path>
    </g>
    <g transform="scale(0.009963,0.009963)" id="GLYPHcmr10_49">
      <path style="fill-rule: evenodd;" d="M294.000000 -640.000000C294.000000 -664.000000,294.000000 -666.000000,271.000000 -666.000000C209.000000 -602.000000,121.000000 -602.000000,89.000000 -602.000000L89.000000 -571.000000C109.000000 -571.000000,168.000000 -571.000000,220.000000 -597.000000L220.000000 -79.000000C220.000000 -43.000000,217.000000 -31.000000,127.000000 -31.000000L95.000000 -31.000000L95.000000 -0.000000L257.000000 -0.000000L130.000000 -3.000000L217.000000 -3.000000L257.000000 -3.000000L297.000000 -3.000000L384.000000 -3.000000L419.000000 -0.000000L419.000000 -31.000000L387.000000 -31.000000C297.000000 -31.000000,294.000000 -42.000000,294.000000 -79.000000"></path>
    </g>
    <g transform="scale(0.009963,0.009963)" id="GLYPHcmr10_50">
      <path style="fill-rule: evenodd;" d="M127.000000 -77.000000L233.000000 -180.000000C389.000000 -318.000000,449.000000 -372.000000,449.000000 -472.000000C449.000000 -586.000000,359.000000 -666.000000,237.000000 -666.000000C124.000000 -666.000000,50.000000 -574.000000,50.000000 -485.000000C50.000000 -429.000000,100.000000 -429.000000,103.000000 -429.000000C120.000000 -429.000000,155.000000 -441.000000,155.000000 -482.000000C155.000000 -508.000000,137.000000 -534.000000,102.000000 -534.000000C94.000000 -534.000000,92.000000 -534.000000,89.000000 -533.000000C112.000000 -598.000000,166.000000 -635.000000,224.000000 -635.000000C315.000000 -635.000000,358.000000 -554.000000,358.000000 -472.000000C358.000000 -392.000000,308.000000 -313.000000,253.000000 -251.000000L61.000000 -37.000000C50.000000 -26.000000,50.000000 -24.000000,50.000000 -0.000000L421.000000 -0.000000L449.000000 -174.000000L424.000000 -174.000000C419.000000 -144.000000,412.000000 -100.000000,402.000000 -85.000000C395.000000 -77.000000,329.000000 -77.000000,307.000000 -77.000000"></path>
    </g>
    <g transform="scale(0.009963,0.009963)" id="GLYPHcmr10_51">
      <path style="fill-rule: evenodd;" d="M290.000000 -352.000000C372.000000 -379.000000,430.000000 -449.000000,430.000000 -528.000000C430.000000 -610.000000,342.000000 -666.000000,246.000000 -666.000000C145.000000 -666.000000,69.000000 -606.000000,69.000000 -530.000000C69.000000 -497.000000,91.000000 -478.000000,120.000000 -478.000000C151.000000 -478.000000,171.000000 -500.000000,171.000000 -529.000000C171.000000 -579.000000,124.000000 -579.000000,109.000000 -579.000000C140.000000 -628.000000,206.000000 -641.000000,242.000000 -641.000000C283.000000 -641.000000,338.000000 -619.000000,338.000000 -529.000000C338.000000 -517.000000,336.000000 -459.000000,310.000000 -415.000000C280.000000 -367.000000,246.000000 -364.000000,221.000000 -363.000000C213.000000 -362.000000,189.000000 -360.000000,182.000000 -360.000000C174.000000 -359.000000,167.000000 -358.000000,167.000000 -348.000000C167.000000 -337.000000,174.000000 -337.000000,191.000000 -337.000000L235.000000 -337.000000C317.000000 -337.000000,354.000000 -269.000000,354.000000 -171.000000C354.000000 -35.000000,285.000000 -6.000000,241.000000 -6.000000C198.000000 -6.000000,123.000000 -23.000000,88.000000 -82.000000C123.000000 -77.000000,154.000000 -99.000000,154.000000 -137.000000C154.000000 -173.000000,127.000000 -193.000000,98.000000 -193.000000C74.000000 -193.000000,42.000000 -179.000000,42.000000 -135.000000C42.000000 -44.000000,135.000000 22.000000,244.000000 22.000000C366.000000 22.000000,457.000000 -69.000000,457.000000 -171.000000C457.000000 -253.000000,394.000000 -331.000000,290.000000 -352.000000"></path>
    </g>
    <g transform="scale(0.009963,0.009963)" id="GLYPHcmr10_52">
      <path style="fill-rule: evenodd;" d="M294.000000 -165.000000L294.000000 -78.000000C294.000000 -42.000000,292.000000 -31.000000,218.000000 -31.000000L197.000000 -31.000000L197.000000 -0.000000L332.000000 -0.000000L238.000000 -3.000000L290.000000 -3.000000L332.000000 -3.000000L374.000000 -3.000000L427.000000 -3.000000L468.000000 -0.000000L468.000000 -31.000000L447.000000 -31.000000C373.000000 -31.000000,371.000000 -42.000000,371.000000 -78.000000L371.000000 -165.000000L471.000000 -165.000000L471.000000 -196.000000L371.000000 -196.000000L371.000000 -651.000000C371.000000 -671.000000,371.000000 -677.000000,355.000000 -677.000000C346.000000 -677.000000,343.000000 -677.000000,335.000000 -665.000000L28.000000 -196.000000L28.000000 -165.000000M300.000000 -196.000000L56.000000 -196.000000L300.000000 -569.000000"></path>
    </g>
    <g transform="scale(0.009963,0.009963)" id="GLYPHcmr10_53">
      <path style="fill-rule: evenodd;" d="M449.000000 -201.000000C449.000000 -320.000000,367.000000 -420.000000,259.000000 -420.000000C211.000000 -420.000000,168.000000 -404.000000,132.000000 -369.000000L132.000000 -564.000000C152.000000 -558.000000,185.000000 -551.000000,217.000000 -551.000000C340.000000 -551.000000,410.000000 -642.000000,410.000000 -655.000000C410.000000 -661.000000,407.000000 -666.000000,400.000000 -666.000000C399.000000 -666.000000,397.000000 -666.000000,392.000000 -663.000000C372.000000 -654.000000,323.000000 -634.000000,256.000000 -634.000000C216.000000 -634.000000,170.000000 -641.000000,123.000000 -662.000000C115.000000 -665.000000,113.000000 -665.000000,111.000000 -665.000000C101.000000 -665.000000,101.000000 -657.000000,101.000000 -641.000000L101.000000 -345.000000C101.000000 -327.000000,101.000000 -319.000000,115.000000 -319.000000C122.000000 -319.000000,124.000000 -322.000000,128.000000 -328.000000C139.000000 -344.000000,176.000000 -398.000000,257.000000 -398.000000C309.000000 -398.000000,334.000000 -352.000000,342.000000 -334.000000C358.000000 -297.000000,360.000000 -258.000000,360.000000 -208.000000C360.000000 -173.000000,360.000000 -113.000000,336.000000 -71.000000C312.000000 -32.000000,275.000000 -6.000000,229.000000 -6.000000C156.000000 -6.000000,99.000000 -59.000000,82.000000 -118.000000C85.000000 -117.000000,88.000000 -116.000000,99.000000 -116.000000C132.000000 -116.000000,149.000000 -141.000000,149.000000 -165.000000C149.000000 -189.000000,132.000000 -214.000000,99.000000 -214.000000C85.000000 -214.000000,50.000000 -207.000000,50.000000 -161.000000C50.000000 -75.000000,119.000000 22.000000,231.000000 22.000000C347.000000 22.000000,449.000000 -74.000000,449.000000 -201.000000"></path>
    </g>
    <g transform="scale(0.009963,0.009963)" id="GLYPHcmr10_54">
      <path style="fill-rule: evenodd;" d="M132.000000 -328.000000L132.000000 -352.000000C132.000000 -605.000000,256.000000 -641.000000,307.000000 -641.000000C331.000000 -641.000000,373.000000 -635.000000,395.000000 -601.000000C380.000000 -601.000000,340.000000 -601.000000,340.000000 -556.000000C340.000000 -525.000000,364.000000 -510.000000,386.000000 -510.000000C402.000000 -510.000000,432.000000 -519.000000,432.000000 -558.000000C432.000000 -618.000000,388.000000 -666.000000,305.000000 -666.000000C177.000000 -666.000000,42.000000 -537.000000,42.000000 -316.000000C42.000000 -49.000000,158.000000 22.000000,251.000000 22.000000C362.000000 22.000000,457.000000 -72.000000,457.000000 -204.000000C457.000000 -331.000000,368.000000 -427.000000,257.000000 -427.000000C189.000000 -427.000000,152.000000 -376.000000,132.000000 -328.000000M251.000000 -6.000000C188.000000 -6.000000,158.000000 -66.000000,152.000000 -81.000000C134.000000 -128.000000,134.000000 -208.000000,134.000000 -226.000000C134.000000 -304.000000,166.000000 -404.000000,256.000000 -404.000000C272.000000 -404.000000,318.000000 -404.000000,349.000000 -342.000000C367.000000 -305.000000,367.000000 -254.000000,367.000000 -205.000000C367.000000 -157.000000,367.000000 -107.000000,350.000000 -71.000000C320.000000 -11.000000,274.000000 -6.000000,251.000000 -6.000000"></path>
    </g>
    <g transform="scale(0.009963,0.009963)" id="GLYPHcmr10_55">
      <path style="fill-rule: evenodd;" d="M476.000000 -609.000000C485.000000 -621.000000,485.000000 -623.000000,485.000000 -644.000000L242.000000 -644.000000C120.000000 -644.000000,118.000000 -657.000000,114.000000 -676.000000L89.000000 -676.000000L56.000000 -470.000000L81.000000 -470.000000C84.000000 -486.000000,93.000000 -549.000000,106.000000 -561.000000C113.000000 -567.000000,191.000000 -567.000000,204.000000 -567.000000L411.000000 -567.000000C400.000000 -551.000000,321.000000 -442.000000,299.000000 -409.000000C209.000000 -274.000000,176.000000 -135.000000,176.000000 -33.000000C176.000000 -23.000000,176.000000 22.000000,222.000000 22.000000C268.000000 22.000000,268.000000 -23.000000,268.000000 -33.000000L268.000000 -84.000000C268.000000 -139.000000,271.000000 -194.000000,279.000000 -248.000000C283.000000 -271.000000,297.000000 -357.000000,341.000000 -419.000000"></path>
    </g>
    <g transform="scale(0.009963,0.009963)" id="GLYPHcmr10_56">
      <path style="fill-rule: evenodd;" d="M163.000000 -457.000000C117.000000 -487.000000,113.000000 -521.000000,113.000000 -538.000000C113.000000 -599.000000,178.000000 -641.000000,249.000000 -641.000000C322.000000 -641.000000,386.000000 -589.000000,386.000000 -517.000000C386.000000 -460.000000,347.000000 -412.000000,287.000000 -377.000000M309.000000 -362.000000C381.000000 -399.000000,430.000000 -451.000000,430.000000 -517.000000C430.000000 -609.000000,341.000000 -666.000000,250.000000 -666.000000C150.000000 -666.000000,69.000000 -592.000000,69.000000 -499.000000C69.000000 -481.000000,71.000000 -436.000000,113.000000 -389.000000C124.000000 -377.000000,161.000000 -352.000000,186.000000 -335.000000C128.000000 -306.000000,42.000000 -250.000000,42.000000 -151.000000C42.000000 -45.000000,144.000000 22.000000,249.000000 22.000000C362.000000 22.000000,457.000000 -61.000000,457.000000 -168.000000C457.000000 -204.000000,446.000000 -249.000000,408.000000 -291.000000C389.000000 -312.000000,373.000000 -322.000000,309.000000 -362.000000M209.000000 -320.000000L332.000000 -242.000000C360.000000 -223.000000,407.000000 -193.000000,407.000000 -132.000000C407.000000 -58.000000,332.000000 -6.000000,250.000000 -6.000000C164.000000 -6.000000,92.000000 -68.000000,92.000000 -151.000000C92.000000 -209.000000,124.000000 -273.000000,209.000000 -320.000000"></path>
    </g>
    <g transform="scale(0.009963,0.009963)" id="GLYPHcmr10_57">
      <path style="fill-rule: evenodd;" d="M367.000000 -318.000000L367.000000 -286.000000C367.000000 -52.000000,263.000000 -6.000000,205.000000 -6.000000C188.000000 -6.000000,134.000000 -8.000000,107.000000 -42.000000C151.000000 -42.000000,159.000000 -71.000000,159.000000 -88.000000C159.000000 -119.000000,135.000000 -134.000000,113.000000 -134.000000C97.000000 -134.000000,67.000000 -125.000000,67.000000 -86.000000C67.000000 -19.000000,121.000000 22.000000,206.000000 22.000000C335.000000 22.000000,457.000000 -114.000000,457.000000 -329.000000C457.000000 -598.000000,342.000000 -666.000000,253.000000 -666.000000C198.000000 -666.000000,149.000000 -648.000000,106.000000 -603.000000C65.000000 -558.000000,42.000000 -516.000000,42.000000 -441.000000C42.000000 -316.000000,130.000000 -218.000000,242.000000 -218.000000C303.000000 -218.000000,344.000000 -260.000000,367.000000 -318.000000M243.000000 -241.000000C227.000000 -241.000000,181.000000 -241.000000,150.000000 -304.000000C132.000000 -341.000000,132.000000 -391.000000,132.000000 -440.000000C132.000000 -494.000000,132.000000 -541.000000,153.000000 -578.000000C180.000000 -628.000000,218.000000 -641.000000,253.000000 -641.000000C299.000000 -641.000000,332.000000 -607.000000,349.000000 -562.000000C361.000000 -530.000000,365.000000 -467.000000,365.000000 -421.000000C365.000000 -338.000000,331.000000 -241.000000,243.000000 -241.000000"></path>
    </g>
  </defs>
  <path d="M113.490143 198.317902C113.490143 197.525208,113.175201 196.765060,112.614716 196.204590C112.054245 195.644104,111.294098 195.329163,110.501404 195.329163C109.708710 195.329163,108.948563 195.644104,108.388092 196.204590C107.827606 196.765060,107.512665 197.525208,107.512665 198.317902C107.512665 199.110596,107.827606 199.870743,108.388092 200.431213C108.948563 200.991699,109.708710 201.306641,110.501404 201.306641C111.294098 201.306641,112.054245 200.991699,112.614716 200.431213C113.175201 199.870743,113.490143 199.110596,113.490143 198.317902Z" style="fill: rgb(100.000000%,100.000000%,100.000000%);stroke: none;"></path>
  <path d="M97.569611 183.783417C97.569611 182.990723,97.254669 182.230576,96.694183 181.670105C96.133713 181.109619,95.373566 180.794678,94.580872 180.794678C93.788177 180.794678,93.028030 181.109619,92.467560 181.670105C91.907074 182.230576,91.592133 182.990723,91.592133 183.783417C91.592133 184.576111,91.907074 185.336258,92.467560 185.896729C93.028030 186.457214,93.788177 186.772156,94.580872 186.772156C95.373566 186.772156,96.133713 186.457214,96.694183 185.896729C97.254669 185.336258,97.569611 184.576111,97.569611 183.783417Z" style="fill: rgb(100.000000%,100.000000%,100.000000%);stroke: none;"></path>
  <path d="M156.744049 169.855728C156.744049 169.063034,156.429108 168.302887,155.868622 167.742416C155.308151 167.181931,154.548004 166.866989,153.755310 166.866989C152.962616 166.866989,152.202469 167.181931,151.641998 167.742416C151.081512 168.302887,150.766571 169.063034,150.766571 169.855728C150.766571 170.648422,151.081512 171.408569,151.641998 171.969040C152.202469 172.529526,152.962616 172.844467,153.755310 172.844467C154.548004 172.844467,155.308151 172.529526,155.868622 171.969040C156.429108 171.408569,156.744049 170.648422,156.744049 169.855728Z" style="fill: rgb(100.000000%,100.000000%,100.000000%);stroke: none;"></path>
  <path d="M138.547775 195.605042C138.547775 194.812347,138.232834 194.052200,137.672348 193.491730C137.111877 192.931244,136.351730 192.616302,135.559036 192.616302C134.766342 192.616302,134.006195 192.931244,133.445724 193.491730C132.885239 194.052200,132.570297 194.812347,132.570297 195.605042C132.570297 196.397736,132.885239 197.157883,133.445724 197.718353C134.006195 198.278839,134.766342 198.593781,135.559036 198.593781C136.351730 198.593781,137.111877 198.278839,137.672348 197.718353C138.232834 197.157883,138.547775 196.397736,138.547775 195.605042Z" style="fill: rgb(100.000000%,100.000000%,100.000000%);stroke: none;"></path>
  <path d="M154.487305 145.919357C154.487305 145.126663,154.172363 144.366516,153.611877 143.806046C153.051407 143.245560,152.291260 142.930618,151.498566 142.930618C150.705872 142.930618,149.945724 143.245560,149.385254 143.806046C148.824768 144.366516,148.509827 145.126663,148.509827 145.919357C148.509827 146.712051,148.824768 147.472198,149.385254 148.032669C149.945724 148.593155,150.705872 148.908096,151.498566 148.908096C152.291260 148.908096,153.051407 148.593155,153.611877 148.032669C154.172363 147.472198,154.487305 146.712051,154.487305 145.919357Z" style="fill: rgb(100.000000%,100.000000%,100.000000%);stroke: none;"></path>
  <path d="M158.479095 159.531296C158.479095 158.738602,158.164154 157.978455,157.603668 157.417984C157.043198 156.857498,156.283051 156.542557,155.490356 156.542557C154.697662 156.542557,153.937515 156.857498,153.377045 157.417984C152.816559 157.978455,152.501617 158.738602,152.501617 159.531296C152.501617 160.323990,152.816559 161.084137,153.377045 161.644608C153.937515 162.205093,154.697662 162.520035,155.490356 162.520035C156.283051 162.520035,157.043198 162.205093,157.603668 161.644608C158.164154 161.084137,158.479095 160.323990,158.479095 159.531296Z" style="fill: rgb(100.000000%,100.000000%,100.000000%);stroke: none;"></path>
  <path d="M149.895081 135.417831C149.895081 134.625137,149.580139 133.864990,149.019653 133.304520C148.459183 132.744034,147.699036 132.429092,146.906342 132.429092C146.113647 132.429092,145.353500 132.744034,144.793030 133.304520C144.232544 133.864990,143.917603 134.625137,143.917603 135.417831C143.917603 136.210526,144.232544 136.970673,144.793030 137.531143C145.353500 138.091629,146.113647 138.406570,146.906342 138.406570C147.699036 138.406570,148.459183 138.091629,149.019653 137.531143C149.580139 136.970673,149.895081 136.210526,149.895081 135.417831Z" style="fill: rgb(100.000000%,100.000000%,100.000000%);stroke: none;"></path>
  <path d="M152.509369 142.168732C152.509369 141.376038,152.194427 140.615891,151.633942 140.055420C151.073471 139.494934,150.313324 139.179993,149.520630 139.179993C148.727936 139.179993,147.967789 139.494934,147.407318 140.055420C146.846832 140.615891,146.531891 141.376038,146.531891 142.168732C146.531891 142.961426,146.846832 143.721573,147.407318 144.282043C147.967789 144.842529,148.727936 145.157471,149.520630 145.157471C150.313324 145.157471,151.073471 144.842529,151.633942 144.282043C152.194427 143.721573,152.509369 142.961426,152.509369 142.168732Z" style="fill: rgb(100.000000%,100.000000%,100.000000%);stroke: none;"></path>
  <path d="M142.663071 132.524307C142.663071 131.731613,142.348129 130.971466,141.787643 130.410995C141.227173 129.850510,140.467026 129.535568,139.674332 129.535568C138.881638 129.535568,138.121490 129.850510,137.561020 130.410995C137.000534 130.971466,136.685593 131.731613,136.685593 132.524307C136.685593 133.317001,137.000534 134.077148,137.561020 134.637619C138.121490 135.198105,138.881638 135.513046,139.674332 135.513046C140.467026 135.513046,141.227173 135.198105,141.787643 134.637619C142.348129 134.077148,142.663071 133.317001,142.663071 132.524307Z" style="fill: rgb(100.000000%,100.000000%,100.000000%);stroke: none;"></path>
  <path d="M148.414505 132.372482C148.414505 131.579788,148.099564 130.819641,147.539078 130.259171C146.978607 129.698685,146.218460 129.383743,145.425766 129.383743C144.633072 129.383743,143.872925 129.698685,143.312454 130.259171C142.751968 130.819641,142.437027 131.579788,142.437027 132.372482C142.437027 133.165176,142.751968 133.925323,143.312454 134.485794C143.872925 135.046280,144.633072 135.361221,145.425766 135.361221C146.218460 135.361221,146.978607 135.046280,147.539078 134.485794C148.099564 133.925323,148.414505 133.165176,148.414505 132.372482Z" style="fill: rgb(100.000000%,100.000000%,100.000000%);stroke: none;"></path>
  <path d="M138.620407 143.178345C138.620407 142.385651,138.305466 141.625504,137.744980 141.065033C137.184509 140.504547,136.424362 140.189606,135.631668 140.189606C134.838974 140.189606,134.078827 140.504547,133.518356 141.065033C132.957870 141.625504,132.642929 142.385651,132.642929 143.178345C132.642929 143.971039,132.957870 144.731186,133.518356 145.291656C134.078827 145.852142,134.838974 146.167084,135.631668 146.167084C136.424362 146.167084,137.184509 145.852142,137.744980 145.291656C138.305466 144.731186,138.620407 143.971039,138.620407 143.178345Z" style="fill: rgb(100.000000%,100.000000%,100.000000%);stroke: none;"></path>
  <path d="M141.370605 135.669510C141.370605 134.876816,141.055664 134.116669,140.495178 133.556198C139.934708 132.995712,139.174561 132.680771,138.381866 132.680771C137.589172 132.680771,136.829025 132.995712,136.268555 133.556198C135.708069 134.116669,135.393127 134.876816,135.393127 135.669510C135.393127 136.462204,135.708069 137.222351,136.268555 137.782822C136.829025 138.343307,137.589172 138.658249,138.381866 138.658249C139.174561 138.658249,139.934708 138.343307,140.495178 137.782822C141.055664 137.222351,141.370605 136.462204,141.370605 135.669510Z" style="fill: rgb(100.000000%,100.000000%,100.000000%);stroke: none;"></path>
  <path d="M133.025467 163.583252C133.025467 162.790558,132.710526 162.030411,132.150040 161.469940C131.589569 160.909454,130.829422 160.594513,130.036728 160.594513C129.244034 160.594513,128.483887 160.909454,127.923416 161.469940C127.362930 162.030411,127.047989 162.790558,127.047989 163.583252C127.047989 164.375946,127.362930 165.136093,127.923416 165.696564C128.483887 166.257050,129.244034 166.571991,130.036728 166.571991C130.829422 166.571991,131.589569 166.257050,132.150040 165.696564C132.710526 165.136093,133.025467 164.375946,133.025467 163.583252Z" style="fill: rgb(100.000000%,100.000000%,100.000000%);stroke: none;"></path>
  <path d="M135.908829 147.496262C135.908829 146.703568,135.593887 145.943420,135.033401 145.382950C134.472931 144.822464,133.712784 144.507523,132.920090 144.507523C132.127396 144.507523,131.367249 144.822464,130.806778 145.382950C130.246292 145.943420,129.931351 146.703568,129.931351 147.496262C129.931351 148.288956,130.246292 149.049103,130.806778 149.609573C131.367249 150.170059,132.127396 150.485001,132.920090 150.485001C133.712784 150.485001,134.472931 150.170059,135.033401 149.609573C135.593887 149.049103,135.908829 148.288956,135.908829 147.496262Z" style="fill: rgb(100.000000%,100.000000%,100.000000%);stroke: none;"></path>
  <path d="M167.161392 183.540680C167.161392 182.747986,166.846451 181.987839,166.285965 181.427368C165.725494 180.866882,164.965347 180.551941,164.172653 180.551941C163.379959 180.551941,162.619812 180.866882,162.059341 181.427368C161.498856 181.987839,161.183914 182.747986,161.183914 183.540680C161.183914 184.333374,161.498856 185.093521,162.059341 185.653992C162.619812 186.214478,163.379959 186.529419,164.172653 186.529419C164.965347 186.529419,165.725494 186.214478,166.285965 185.653992C166.846451 185.093521,167.161392 184.333374,167.161392 183.540680Z" style="fill: rgb(100.000000%,100.000000%,100.000000%);stroke: none;"></path>
  <path d="M140.100494 174.269745C140.100494 173.477051,139.785553 172.716904,139.225067 172.156433C138.664597 171.595947,137.904449 171.281006,137.111755 171.281006C136.319061 171.281006,135.558914 171.595947,134.998444 172.156433C134.437958 172.716904,134.123016 173.477051,134.123016 174.269745C134.123016 175.062439,134.437958 175.822586,134.998444 176.383057C135.558914 176.943542,136.319061 177.258484,137.111755 177.258484C137.904449 177.258484,138.664597 176.943542,139.225067 176.383057C139.785553 175.822586,140.100494 175.062439,140.100494 174.269745Z" style="fill: rgb(100.000000%,100.000000%,100.000000%);stroke: none;"></path>
  <path d="M202.438461 140.899841C202.438461 140.107147,202.123520 139.347000,201.563034 138.786530C201.002563 138.226044,200.242416 137.911102,199.449722 137.911102C198.657028 137.911102,197.896881 138.226044,197.336411 138.786530C196.775925 139.347000,196.460983 140.107147,196.460983 140.899841C196.460983 141.692535,196.775925 142.452682,197.336411 143.013153C197.896881 143.573639,198.657028 143.888580,199.449722 143.888580C200.242416 143.888580,201.002563 143.573639,201.563034 143.013153C202.123520 142.452682,202.438461 141.692535,202.438461 140.899841Z" style="fill: rgb(100.000000%,100.000000%,100.000000%);stroke: none;"></path>
  <path d="M183.748856 173.182632C183.748856 172.389938,183.433914 171.629791,182.873428 171.069321C182.312958 170.508835,181.552811 170.193893,180.760117 170.193893C179.967422 170.193893,179.207275 170.508835,178.646805 171.069321C178.086319 171.629791,177.771378 172.389938,177.771378 173.182632C177.771378 173.975327,178.086319 174.735474,178.646805 175.295944C179.207275 175.856430,179.967422 176.171371,180.760117 176.171371C181.552811 176.171371,182.312958 175.856430,182.873428 175.295944C183.433914 174.735474,183.748856 173.975327,183.748856 173.182632Z" style="fill: rgb(100.000000%,100.000000%,100.000000%);stroke: none;"></path>
  <path d="M178.994034 99.906281C178.994034 99.113586,178.679092 98.353439,178.118607 97.792969C177.558136 97.232483,176.797989 96.917542,176.005295 96.917542C175.212601 96.917542,174.452454 97.232483,173.891983 97.792969C173.331497 98.353439,173.016556 99.113586,173.016556 99.906281C173.016556 100.698975,173.331497 101.459122,173.891983 102.019592C174.452454 102.580078,175.212601 102.895020,176.005295 102.895020C176.797989 102.895020,177.558136 102.580078,178.118607 102.019592C178.679092 101.459122,178.994034 100.698975,178.994034 99.906281Z" style="fill: rgb(100.000000%,100.000000%,100.000000%);stroke: none;"></path>
  <path d="M202.543289 119.496323C202.543289 118.703629,202.228348 117.943481,201.667862 117.383011C201.107391 116.822525,200.347244 116.507584,199.554550 116.507584C198.761856 116.507584,198.001709 116.822525,197.441238 117.383011C196.880753 117.943481,196.565811 118.703629,196.565811 119.496323C196.565811 120.289017,196.880753 121.049164,197.441238 121.609634C198.001709 122.170120,198.761856 122.485062,199.554550 122.485062C200.347244 122.485062,201.107391 122.170120,201.667862 121.609634C202.228348 121.049164,202.543289 120.289017,202.543289 119.496323Z" style="fill: rgb(100.000000%,100.000000%,100.000000%);stroke: none;"></path>
  <path d="M147.696259 98.729477C147.696259 97.936783,147.381317 97.176636,146.820831 96.616165C146.260361 96.055679,145.500214 95.740738,144.707520 95.740738C143.914825 95.740738,143.154678 96.055679,142.594208 96.616165C142.033722 97.176636,141.718781 97.936783,141.718781 98.729477C141.718781 99.522171,142.033722 100.282318,142.594208 100.842789C143.154678 101.403275,143.914825 101.718216,144.707520 101.718216C145.500214 101.718216,146.260361 101.403275,146.820831 100.842789C147.381317 100.282318,147.696259 99.522171,147.696259 98.729477Z" style="fill: rgb(100.000000%,100.000000%,100.000000%);stroke: none;"></path>
  <path d="M166.445374 99.255035C166.445374 98.462341,166.130432 97.702194,165.569946 97.141724C165.009476 96.581238,164.249329 96.266296,163.456635 96.266296C162.663940 96.266296,161.903793 96.581238,161.343323 97.141724C160.782837 97.702194,160.467896 98.462341,160.467896 99.255035C160.467896 100.047729,160.782837 100.807877,161.343323 101.368347C161.903793 101.928833,162.663940 102.243774,163.456635 102.243774C164.249329 102.243774,165.009476 101.928833,165.569946 101.368347C166.130432 100.807877,166.445374 100.047729,166.445374 99.255035Z" style="fill: rgb(100.000000%,100.000000%,100.000000%);stroke: none;"></path>
  <path d="M129.003754 97.024017C129.003754 96.231323,128.688812 95.471176,128.128326 94.910706C127.567856 94.350220,126.807709 94.035278,126.015015 94.035278C125.222321 94.035278,124.462173 94.350220,123.901703 94.910706C123.341217 95.471176,123.026276 96.231323,123.026276 97.024017C123.026276 97.816711,123.341217 98.576859,123.901703 99.137329C124.462173 99.697815,125.222321 100.012756,126.015015 100.012756C126.807709 100.012756,127.567856 99.697815,128.128326 99.137329C128.688812 98.576859,129.003754 97.816711,129.003754 97.024017Z" style="fill: rgb(100.000000%,100.000000%,100.000000%);stroke: none;"></path>
  <path d="M140.884338 98.548889C140.884338 97.756195,140.569397 96.996048,140.008911 96.435577C139.448441 95.875092,138.688293 95.560150,137.895599 95.560150C137.102905 95.560150,136.342758 95.875092,135.782288 96.435577C135.221802 96.996048,134.906860 97.756195,134.906860 98.548889C134.906860 99.341583,135.221802 100.101730,135.782288 100.662201C136.342758 101.222687,137.102905 101.537628,137.895599 101.537628C138.688293 101.537628,139.448441 101.222687,140.008911 100.662201C140.569397 100.101730,140.884338 99.341583,140.884338 98.548889Z" style="fill: rgb(100.000000%,100.000000%,100.000000%);stroke: none;"></path>
  <path d="M117.748856 105.104294C117.748856 104.311600,117.433914 103.551453,116.873428 102.990982C116.312958 102.430496,115.552811 102.115555,114.760117 102.115555C113.967422 102.115555,113.207275 102.430496,112.646805 102.990982C112.086319 103.551453,111.771378 104.311600,111.771378 105.104294C111.771378 105.896988,112.086319 106.657135,112.646805 107.217606C113.207275 107.778091,113.967422 108.093033,114.760117 108.093033C115.552811 108.093033,116.312958 107.778091,116.873428 107.217606C117.433914 106.657135,117.748856 105.896988,117.748856 105.104294Z" style="fill: rgb(100.000000%,100.000000%,100.000000%);stroke: none;"></path>
  <path d="M123.259079 96.586792C123.259079 95.794098,122.944138 95.033951,122.383652 94.473480C121.823181 93.912994,121.063034 93.598053,120.270340 93.598053C119.477646 93.598053,118.717499 93.912994,118.157028 94.473480C117.596542 95.033951,117.281601 95.794098,117.281601 96.586792C117.281601 97.379486,117.596542 98.139633,118.157028 98.700104C118.717499 99.260590,119.477646 99.575531,120.270340 99.575531C121.063034 99.575531,121.823181 99.260590,122.383652 98.700104C122.944138 98.139633,123.259079 97.379486,123.259079 96.586792Z" style="fill: rgb(100.000000%,100.000000%,100.000000%);stroke: none;"></path>
  <path d="M125.453293 119.780350C125.453293 118.987656,125.138351 118.227509,124.577866 117.667038C124.017395 117.106552,123.257248 116.791611,122.464554 116.791611C121.671860 116.791611,120.911713 117.106552,120.351242 117.667038C119.790756 118.227509,119.475815 118.987656,119.475815 119.780350C119.475815 120.573044,119.790756 121.333191,120.351242 121.893661C120.911713 122.454147,121.671860 122.769089,122.464554 122.769089C123.257248 122.769089,124.017395 122.454147,124.577866 121.893661C125.138351 121.333191,125.453293 120.573044,125.453293 119.780350Z" style="fill: rgb(100.000000%,100.000000%,100.000000%);stroke: none;"></path>
  <path d="M120.823364 110.232819C120.823364 109.440125,120.508423 108.679977,119.947937 108.119507C119.387466 107.559021,118.627319 107.244080,117.834625 107.244080C117.041931 107.244080,116.281784 107.559021,115.721313 108.119507C115.160828 108.679977,114.845886 109.440125,114.845886 110.232819C114.845886 111.025513,115.160828 111.785660,115.721313 112.346130C116.281784 112.906616,117.041931 113.221558,117.834625 113.221558C118.627319 113.221558,119.387466 112.906616,119.947937 112.346130C120.508423 111.785660,120.823364 111.025513,120.823364 110.232819Z" style="fill: rgb(100.000000%,100.000000%,100.000000%);stroke: none;"></path>
  <path d="M132.804749 133.064377C132.804749 132.271683,132.489807 131.511536,131.929321 130.951065C131.368851 130.390579,130.608704 130.075638,129.816010 130.075638C129.023315 130.075638,128.263168 130.390579,127.702698 130.951065C127.142212 131.511536,126.827271 132.271683,126.827271 133.064377C126.827271 133.857071,127.142212 134.617218,127.702698 135.177689C128.263168 135.738174,129.023315 136.053116,129.816010 136.053116C130.608704 136.053116,131.368851 135.738174,131.929321 135.177689C132.489807 134.617218,132.804749 133.857071,132.804749 133.064377Z" style="fill: rgb(100.000000%,100.000000%,100.000000%);stroke: none;"></path>
  <path d="M126.690887 125.163116C126.690887 124.370422,126.375946 123.610275,125.815460 123.049805C125.254990 122.489319,124.494843 122.174377,123.702148 122.174377C122.909454 122.174377,122.149307 122.489319,121.588837 123.049805C121.028351 123.610275,120.713409 124.370422,120.713409 125.163116C120.713409 125.955811,121.028351 126.715958,121.588837 127.276428C122.149307 127.836914,122.909454 128.151855,123.702148 128.151855C124.494843 128.151855,125.254990 127.836914,125.815460 127.276428C126.375946 126.715958,126.690887 125.955811,126.690887 125.163116Z" style="fill: rgb(100.000000%,100.000000%,100.000000%);stroke: none;"></path>
  <path d="M141.942047 139.910980C141.942047 139.118286,141.627106 138.358139,141.066620 137.797668C140.506149 137.237183,139.746002 136.922241,138.953308 136.922241C138.160614 136.922241,137.400467 137.237183,136.839996 137.797668C136.279510 138.358139,135.964569 139.118286,135.964569 139.910980C135.964569 140.703674,136.279510 141.463821,136.839996 142.024292C137.400467 142.584778,138.160614 142.899719,138.953308 142.899719C139.746002 142.899719,140.506149 142.584778,141.066620 142.024292C141.627106 141.463821,141.942047 140.703674,141.942047 139.910980Z" style="fill: rgb(100.000000%,100.000000%,100.000000%);stroke: none;"></path>
  <path d="M136.853775 135.480759C136.853775 134.688065,136.538834 133.927917,135.978348 133.367447C135.417877 132.806961,134.657730 132.492020,133.865036 132.492020C133.072342 132.492020,132.312195 132.806961,131.751724 133.367447C131.191238 133.927917,130.876297 134.688065,130.876297 135.480759C130.876297 136.273453,131.191238 137.033600,131.751724 137.594070C132.312195 138.154556,133.072342 138.469498,133.865036 138.469498C134.657730 138.469498,135.417877 138.154556,135.978348 137.594070C136.538834 137.033600,136.853775 136.273453,136.853775 135.480759Z" style="fill: rgb(100.000000%,100.000000%,100.000000%);stroke: none;"></path>
  <path d="M147.880966 141.426544C147.880966 140.633850,147.566025 139.873703,147.005539 139.313232C146.445068 138.752747,145.684921 138.437805,144.892227 138.437805C144.099533 138.437805,143.339386 138.752747,142.778915 139.313232C142.218430 139.873703,141.903488 140.633850,141.903488 141.426544C141.903488 142.219238,142.218430 142.979385,142.778915 143.539856C143.339386 144.100342,144.099533 144.415283,144.892227 144.415283C145.684921 144.415283,146.445068 144.100342,147.005539 143.539856C147.566025 142.979385,147.880966 142.219238,147.880966 141.426544Z" style="fill: rgb(100.000000%,100.000000%,100.000000%);stroke: none;"></path>
  <path d="M143.605011 141.493515C143.605011 140.700821,143.290070 139.940674,142.729584 139.380203C142.169113 138.819717,141.408966 138.504776,140.616272 138.504776C139.823578 138.504776,139.063431 138.819717,138.502960 139.380203C137.942474 139.940674,137.627533 140.700821,137.627533 141.493515C137.627533 142.286209,137.942474 143.046356,138.502960 143.606827C139.063431 144.167313,139.823578 144.482254,140.616272 144.482254C141.408966 144.482254,142.169113 144.167313,142.729584 143.606827C143.290070 143.046356,143.605011 142.286209,143.605011 141.493515Z" style="fill: rgb(100.000000%,100.000000%,100.000000%);stroke: none;"></path>
  <path d="M154.634323 134.441772C154.634323 133.649078,154.319382 132.888931,153.758896 132.328461C153.198425 131.767975,152.438278 131.453033,151.645584 131.453033C150.852890 131.453033,150.092743 131.767975,149.532272 132.328461C148.971786 132.888931,148.656845 133.649078,148.656845 134.441772C148.656845 135.234467,148.971786 135.994614,149.532272 136.555084C150.092743 137.115570,150.852890 137.430511,151.645584 137.430511C152.438278 137.430511,153.198425 137.115570,153.758896 136.555084C154.319382 135.994614,154.634323 135.234467,154.634323 134.441772Z" style="fill: rgb(100.000000%,100.000000%,100.000000%);stroke: none;"></path>
  <path d="M149.501831 139.791992C149.501831 138.999298,149.186890 138.239151,148.626404 137.678680C148.065933 137.118195,147.305786 136.803253,146.513092 136.803253C145.720398 136.803253,144.960251 137.118195,144.399780 137.678680C143.839294 138.239151,143.524353 138.999298,143.524353 139.791992C143.524353 140.584686,143.839294 141.344833,144.399780 141.905304C144.960251 142.465790,145.720398 142.780731,146.513092 142.780731C147.305786 142.780731,148.065933 142.465790,148.626404 141.905304C149.186890 141.344833,149.501831 140.584686,149.501831 139.791992Z" style="fill: rgb(100.000000%,100.000000%,100.000000%);stroke: none;"></path>
  <path d="M171.642944 121.339523C171.642944 120.546829,171.328003 119.786682,170.767517 119.226212C170.207047 118.665726,169.446899 118.350784,168.654205 118.350784C167.861511 118.350784,167.101364 118.665726,166.540894 119.226212C165.980408 119.786682,165.665466 120.546829,165.665466 121.339523C165.665466 122.132217,165.980408 122.892365,166.540894 123.452835C167.101364 124.013321,167.861511 124.328262,168.654205 124.328262C169.446899 124.328262,170.207047 124.013321,170.767517 123.452835C171.328003 122.892365,171.642944 122.132217,171.642944 121.339523Z" style="fill: rgb(100.000000%,100.000000%,100.000000%);stroke: none;"></path>
  <path d="M158.499268 130.846222C158.499268 130.053528,158.184326 129.293381,157.623840 128.732910C157.063370 128.172424,156.303223 127.857483,155.510529 127.857483C154.717834 127.857483,153.957687 128.172424,153.397217 128.732910C152.836731 129.293381,152.521790 130.053528,152.521790 130.846222C152.521790 131.638916,152.836731 132.399063,153.397217 132.959534C153.957687 133.520020,154.717834 133.834961,155.510529 133.834961C156.303223 133.834961,157.063370 133.520020,157.623840 132.959534C158.184326 132.399063,158.499268 131.638916,158.499268 130.846222Z" style="fill: rgb(100.000000%,100.000000%,100.000000%);stroke: none;"></path>
  <path d="M198.337067 91.167450C198.337067 90.374756,198.022125 89.614609,197.461639 89.054138C196.901169 88.493652,196.141022 88.178711,195.348328 88.178711C194.555634 88.178711,193.795486 88.493652,193.235016 89.054138C192.674530 89.614609,192.359589 90.374756,192.359589 91.167450C192.359589 91.960144,192.674530 92.720291,193.235016 93.280762C193.795486 93.841248,194.555634 94.156189,195.348328 94.156189C196.141022 94.156189,196.901169 93.841248,197.461639 93.280762C198.022125 92.720291,198.337067 91.960144,198.337067 91.167450Z" style="fill: rgb(100.000000%,100.000000%,100.000000%);stroke: none;"></path>
  <path d="M182.382782 116.924698C182.382782 116.132004,182.067841 115.371857,181.507355 114.811386C180.946884 114.250900,180.186737 113.935959,179.394043 113.935959C178.601349 113.935959,177.841202 114.250900,177.280731 114.811386C176.720245 115.371857,176.405304 116.132004,176.405304 116.924698C176.405304 117.717392,176.720245 118.477539,177.280731 119.038010C177.841202 119.598495,178.601349 119.913437,179.394043 119.913437C180.186737 119.913437,180.946884 119.598495,181.507355 119.038010C182.067841 118.477539,182.382782 117.717392,182.382782 116.924698Z" style="fill: rgb(100.000000%,100.000000%,100.000000%);stroke: none;"></path>
  <path d="M165.297607 39.674347C165.297607 38.881653,164.982666 38.121506,164.422180 37.561035C163.861710 37.000549,163.101562 36.685608,162.308868 36.685608C161.516174 36.685608,160.756027 37.000549,160.195557 37.561035C159.635071 38.121506,159.320129 38.881653,159.320129 39.674347C159.320129 40.467041,159.635071 41.227188,160.195557 41.787659C160.756027 42.348145,161.516174 42.663086,162.308868 42.663086C163.101562 42.663086,163.861710 42.348145,164.422180 41.787659C164.982666 41.227188,165.297607 40.467041,165.297607 39.674347Z" style="fill: rgb(100.000000%,100.000000%,100.000000%);stroke: none;"></path>
  <path d="M189.672043 71.026093C189.672043 70.233398,189.357101 69.473251,188.796616 68.912781C188.236145 68.352295,187.475998 68.037354,186.683304 68.037354C185.890610 68.037354,185.130463 68.352295,184.569992 68.912781C184.009506 69.473251,183.694565 70.233398,183.694565 71.026093C183.694565 71.818787,184.009506 72.578934,184.569992 73.139404C185.130463 73.699890,185.890610 74.014832,186.683304 74.014832C187.475998 74.014832,188.236145 73.699890,188.796616 73.139404C189.357101 72.578934,189.672043 71.818787,189.672043 71.026093Z" style="fill: rgb(100.000000%,100.000000%,100.000000%);stroke: none;"></path>
  <path d="M116.642654 35.307938C116.642654 34.515244,116.327713 33.755096,115.767227 33.194626C115.206757 32.634140,114.446609 32.319199,113.653915 32.319199C112.861221 32.319199,112.101074 32.634140,111.540604 33.194626C110.980118 33.755096,110.665176 34.515244,110.665176 35.307938C110.665176 36.100632,110.980118 36.860779,111.540604 37.421249C112.101074 37.981735,112.861221 38.296677,113.653915 38.296677C114.446609 38.296677,115.206757 37.981735,115.767227 37.421249C116.327713 36.860779,116.642654 36.100632,116.642654 35.307938Z" style="fill: rgb(100.000000%,100.000000%,100.000000%);stroke: none;"></path>
  <path d="M148.505127 26.454605C148.505127 25.661911,148.190186 24.901764,147.629700 24.341293C147.069229 23.780807,146.309082 23.465866,145.516388 23.465866C144.723694 23.465866,143.963547 23.780807,143.403076 24.341293C142.842590 24.901764,142.527649 25.661911,142.527649 26.454605C142.527649 27.247299,142.842590 28.007446,143.403076 28.567917C143.963547 29.128403,144.723694 29.443344,145.516388 29.443344C146.309082 29.443344,147.069229 29.128403,147.629700 28.567917C148.190186 28.007446,148.505127 27.247299,148.505127 26.454605Z" style="fill: rgb(100.000000%,100.000000%,100.000000%);stroke: none;"></path>
  <path d="M87.420151 58.193253C87.420151 57.400558,87.105209 56.640411,86.544724 56.079941C85.984253 55.519455,85.224106 55.204514,84.431412 55.204514C83.638718 55.204514,82.878571 55.519455,82.318100 56.079941C81.757614 56.640411,81.442673 57.400558,81.442673 58.193253C81.442673 58.985947,81.757614 59.746094,82.318100 60.306564C82.878571 60.867050,83.638718 61.181992,84.431412 61.181992C85.224106 61.181992,85.984253 60.867050,86.544724 60.306564C87.105209 59.746094,87.420151 58.985947,87.420151 58.193253Z" style="fill: rgb(100.000000%,100.000000%,100.000000%);stroke: none;"></path>
  <path d="M108.550232 49.004379C108.550232 48.211685,108.235291 47.451538,107.674805 46.891068C107.114334 46.330582,106.354187 46.015640,105.561493 46.015640C104.768799 46.015640,104.008652 46.330582,103.448181 46.891068C102.887695 47.451538,102.572754 48.211685,102.572754 49.004379C102.572754 49.797073,102.887695 50.557220,103.448181 51.117691C104.008652 51.678177,104.768799 51.993118,105.561493 51.993118C106.354187 51.993118,107.114334 51.678177,107.674805 51.117691C108.235291 50.557220,108.550232 49.797073,108.550232 49.004379Z" style="fill: rgb(100.000000%,100.000000%,100.000000%);stroke: none;"></path>
  <path d="M63.533905 59.244431C63.533905 58.451736,63.218964 57.691589,62.658478 57.131119C62.098007 56.570633,61.337860 56.255692,60.545166 56.255692C59.752472 56.255692,58.992325 56.570633,58.431854 57.131119C57.871368 57.691589,57.556427 58.451736,57.556427 59.244431C57.556427 60.037125,57.871368 60.797272,58.431854 61.357742C58.992325 61.918228,59.752472 62.233170,60.545166 62.233170C61.337860 62.233170,62.098007 61.918228,62.658478 61.357742C63.218964 60.797272,63.533905 60.037125,63.533905 59.244431Z" style="fill: rgb(100.000000%,100.000000%,100.000000%);stroke: none;"></path>
  <path d="M78.225845 58.040512C78.225845 57.247818,77.910904 56.487671,77.350418 55.927200C76.789948 55.366714,76.029800 55.051773,75.237106 55.051773C74.444412 55.051773,73.684265 55.366714,73.123795 55.927200C72.563309 56.487671,72.248367 57.247818,72.248367 58.040512C72.248367 58.833206,72.563309 59.593353,73.123795 60.153824C73.684265 60.714310,74.444412 61.029251,75.237106 61.029251C76.029800 61.029251,76.789948 60.714310,77.350418 60.153824C77.910904 59.593353,78.225845 58.833206,78.225845 58.040512Z" style="fill: rgb(100.000000%,100.000000%,100.000000%);stroke: none;"></path>
  <path d="M47.408325 57.330078C47.408325 56.537384,47.093384 55.777237,46.532898 55.216766C45.972427 54.656281,45.212280 54.341339,44.419586 54.341339C43.626892 54.341339,42.866745 54.656281,42.306274 55.216766C41.745789 55.777237,41.430847 56.537384,41.430847 57.330078C41.430847 58.122772,41.745789 58.882919,42.306274 59.443390C42.866745 60.003876,43.626892 60.318817,44.419586 60.318817C45.212280 60.318817,45.972427 60.003876,46.532898 59.443390C47.093384 58.882919,47.408325 58.122772,47.408325 57.330078Z" style="fill: rgb(100.000000%,100.000000%,100.000000%);stroke: none;"></path>
  <path d="M57.690842 60.090942C57.690842 59.298248,57.375900 58.538101,56.815414 57.977631C56.254944 57.417145,55.494797 57.102203,54.702103 57.102203C53.909409 57.102203,53.149261 57.417145,52.588791 57.977631C52.028305 58.538101,51.713364 59.298248,51.713364 60.090942C51.713364 60.883636,52.028305 61.643784,52.588791 62.204254C53.149261 62.764740,53.909409 63.079681,54.702103 63.079681C55.494797 63.079681,56.254944 62.764740,56.815414 62.204254C57.375900 61.643784,57.690842 60.883636,57.690842 60.090942Z" style="fill: rgb(100.000000%,100.000000%,100.000000%);stroke: none;"></path>
  <path d="M36.621948 49.945831C36.621948 49.153137,36.307007 48.392990,35.746521 47.832520C35.186050 47.272034,34.425903 46.957092,33.633209 46.957092C32.840515 46.957092,32.080368 47.272034,31.519897 47.832520C30.959412 48.392990,30.644470 49.153137,30.644470 49.945831C30.644470 50.738525,30.959412 51.498672,31.519897 52.059143C32.080368 52.619629,32.840515 52.934570,33.633209 52.934570C34.425903 52.934570,35.186050 52.619629,35.746521 52.059143C36.307007 51.498672,36.621948 50.738525,36.621948 49.945831Z" style="fill: rgb(100.000000%,100.000000%,100.000000%);stroke: none;"></path>
  <path d="M43.357269 54.530350C43.357269 53.737656,43.042328 52.977509,42.481842 52.417038C41.921371 51.856552,41.161224 51.541611,40.368530 51.541611C39.575836 51.541611,38.815689 51.856552,38.255219 52.417038C37.694733 52.977509,37.379791 53.737656,37.379791 54.530350C37.379791 55.323044,37.694733 56.083191,38.255219 56.643661C38.815689 57.204147,39.575836 57.519089,40.368530 57.519089C41.161224 57.519089,41.921371 57.204147,42.481842 56.643661C43.042328 56.083191,43.357269 55.323044,43.357269 54.530350Z" style="fill: rgb(100.000000%,100.000000%,100.000000%);stroke: none;"></path>
  <path d="M24.126694 46.257263C24.126694 45.464569,23.811752 44.704422,23.251266 44.143951C22.690796 43.583466,21.930649 43.268524,21.137955 43.268524C20.345261 43.268524,19.585114 43.583466,19.024643 44.143951C18.464157 44.704422,18.149216 45.464569,18.149216 46.257263C18.149216 47.049957,18.464157 47.810104,19.024643 48.370575C19.585114 48.931061,20.345261 49.246002,21.137955 49.246002C21.930649 49.246002,22.690796 48.931061,23.251266 48.370575C23.811752 47.810104,24.126694 47.049957,24.126694 46.257263Z" style="fill: rgb(100.000000%,100.000000%,100.000000%);stroke: none;"></path>
  <path d="M33.816345 48.082733C33.816345 47.290039,33.501404 46.529892,32.940918 45.969421C32.380447 45.408936,31.620300 45.093994,30.827606 45.093994C30.034912 45.093994,29.274765 45.408936,28.714294 45.969421C28.153809 46.529892,27.838867 47.290039,27.838867 48.082733C27.838867 48.875427,28.153809 49.635574,28.714294 50.196045C29.274765 50.756531,30.034912 51.071472,30.827606 51.071472C31.620300 51.071472,32.380447 50.756531,32.940918 50.196045C33.501404 49.635574,33.816345 48.875427,33.816345 48.082733Z" style="fill: rgb(100.000000%,100.000000%,100.000000%);stroke: none;"></path>
  <path d="M5.248169 68.185120C5.248169 67.392426,4.933228 66.632278,4.372742 66.071808C3.812271 65.511322,3.052124 65.196381,2.259430 65.196381C1.466736 65.196381,0.706589 65.511322,0.146118 66.071808C-0.414368 66.632278,-0.729309 67.392426,-0.729309 68.185120C-0.729309 68.977814,-0.414368 69.737961,0.146118 70.298431C0.706589 70.858917,1.466736 71.173859,2.259430 71.173859C3.052124 71.173859,3.812271 70.858917,4.372742 70.298431C4.933228 69.737961,5.248169 68.977814,5.248169 68.185120Z" style="fill: rgb(100.000000%,100.000000%,100.000000%);stroke: none;"></path>
  <path d="M17.953735 49.891068C17.953735 49.098373,17.638794 48.338226,17.078308 47.777756C16.517838 47.217270,15.757690 46.902328,14.964996 46.902328C14.172302 46.902328,13.412155 47.217270,12.851685 47.777756C12.291199 48.338226,11.976257 49.098373,11.976257 49.891068C11.976257 50.683762,12.291199 51.443909,12.851685 52.004379C13.412155 52.564865,14.172302 52.879807,14.964996 52.879807C15.757690 52.879807,16.517838 52.564865,17.078308 52.004379C17.638794 51.443909,17.953735 50.683762,17.953735 49.891068Z" style="fill: rgb(100.000000%,100.000000%,100.000000%);stroke: none;"></path>
  <path d="M24.999588 117.352020C24.999588 116.559326,24.684647 115.799179,24.124161 115.238708C23.563690 114.678223,22.803543 114.363281,22.010849 114.363281C21.218155 114.363281,20.458008 114.678223,19.897537 115.238708C19.337051 115.799179,19.022110 116.559326,19.022110 117.352020C19.022110 118.144714,19.337051 118.904861,19.897537 119.465332C20.458008 120.025818,21.218155 120.340759,22.010849 120.340759C22.803543 120.340759,23.563690 120.025818,24.124161 119.465332C24.684647 118.904861,24.999588 118.144714,24.999588 117.352020Z" style="fill: rgb(100.000000%,100.000000%,100.000000%);stroke: none;"></path>
  <path d="M10.105484 84.805237C10.105484 84.012543,9.790543 83.252396,9.230057 82.691925C8.669586 82.131439,7.909439 81.816498,7.116745 81.816498C6.324051 81.816498,5.563904 82.131439,5.003433 82.691925C4.442947 83.252396,4.128006 84.012543,4.128006 84.805237C4.128006 85.597931,4.442947 86.358078,5.003433 86.918549C5.563904 87.479034,6.324051 87.793976,7.116745 87.793976C7.909439 87.793976,8.669586 87.479034,9.230057 86.918549C9.790543 86.358078,10.105484 85.597931,10.105484 84.805237Z" style="fill: rgb(100.000000%,100.000000%,100.000000%);stroke: none;"></path>
  <path d="M71.565475 139.323547C71.565475 138.530853,71.250534 137.770706,70.690048 137.210236C70.129578 136.649750,69.369431 136.334808,68.576736 136.334808C67.784042 136.334808,67.023895 136.649750,66.463425 137.210236C65.902939 137.770706,65.587997 138.530853,65.587997 139.323547C65.587997 140.116241,65.902939 140.876389,66.463425 141.436859C67.023895 141.997345,67.784042 142.312286,68.576736 142.312286C69.369431 142.312286,70.129578 141.997345,70.690048 141.436859C71.250534 140.876389,71.565475 140.116241,71.565475 139.323547Z" style="fill: rgb(100.000000%,100.000000%,100.000000%);stroke: none;"></path>
  <path d="M36.883987 135.226181C36.883987 134.433487,36.569046 133.673340,36.008560 133.112869C35.448090 132.552383,34.687943 132.237442,33.895248 132.237442C33.102554 132.237442,32.342407 132.552383,31.781937 133.112869C31.221451 133.673340,30.906509 134.433487,30.906509 135.226181C30.906509 136.018875,31.221451 136.779022,31.781937 137.339493C32.342407 137.899979,33.102554 138.214920,33.895248 138.214920C34.687943 138.214920,35.448090 137.899979,36.008560 137.339493C36.569046 136.779022,36.883987 136.018875,36.883987 135.226181Z" style="fill: rgb(100.000000%,100.000000%,100.000000%);stroke: none;"></path>
  <path d="M106.507431 119.132156C106.507431 118.339462,106.192490 117.579315,105.632004 117.018845C105.071533 116.458359,104.311386 116.143417,103.518692 116.143417C102.725998 116.143417,101.965851 116.458359,101.405380 117.018845C100.844894 117.579315,100.529953 118.339462,100.529953 119.132156C100.529953 119.924850,100.844894 120.684998,101.405380 121.245468C101.965851 121.805954,102.725998 122.120895,103.518692 122.120895C104.311386 122.120895,105.071533 121.805954,105.632004 121.245468C106.192490 120.684998,106.507431 119.924850,106.507431 119.132156Z" style="fill: rgb(100.000000%,100.000000%,100.000000%);stroke: none;"></path>
  <path d="M85.040359 129.776932C85.040359 128.984238,84.725418 128.224091,84.164932 127.663620C83.604462 127.103134,82.844315 126.788193,82.051620 126.788193C81.258926 126.788193,80.498779 127.103134,79.938309 127.663620C79.377823 128.224091,79.062881 128.984238,79.062881 129.776932C79.062881 130.569626,79.377823 131.329773,79.938309 131.890244C80.498779 132.450729,81.258926 132.765671,82.051620 132.765671C82.844315 132.765671,83.604462 132.450729,84.164932 131.890244C84.725418 131.329773,85.040359 130.569626,85.040359 129.776932Z" style="fill: rgb(100.000000%,100.000000%,100.000000%);stroke: none;"></path>
  <path d="M127.263580 114.392776C127.263580 113.600082,126.948639 112.839935,126.388153 112.279465C125.827682 111.718979,125.067535 111.404037,124.274841 111.404037C123.482147 111.404037,122.722000 111.718979,122.161530 112.279465C121.601044 112.839935,121.286102 113.600082,121.286102 114.392776C121.286102 115.185471,121.601044 115.945618,122.161530 116.506088C122.722000 117.066574,123.482147 117.381516,124.274841 117.381516C125.067535 117.381516,125.827682 117.066574,126.388153 116.506088C126.948639 115.945618,127.263580 115.185471,127.263580 114.392776Z" style="fill: rgb(100.000000%,100.000000%,100.000000%);stroke: none;"></path>
  <path d="M114.613541 116.130875C114.613541 115.338181,114.298599 114.578033,113.738113 114.017563C113.177643 113.457077,112.417496 113.142136,111.624802 113.142136C110.832108 113.142136,110.071960 113.457077,109.511490 114.017563C108.951004 114.578033,108.636063 115.338181,108.636063 116.130875C108.636063 116.923569,108.951004 117.683716,109.511490 118.244186C110.071960 118.804672,110.832108 119.119614,111.624802 119.119614C112.417496 119.119614,113.177643 118.804672,113.738113 118.244186C114.298599 117.683716,114.613541 116.923569,114.613541 116.130875Z" style="fill: rgb(100.000000%,100.000000%,100.000000%);stroke: none;"></path>
  <path d="M136.929535 106.933533C136.929535 106.140839,136.614594 105.380692,136.054108 104.820221C135.493637 104.259735,134.733490 103.944794,133.940796 103.944794C133.148102 103.944794,132.387955 104.259735,131.827484 104.820221C131.266998 105.380692,130.952057 106.140839,130.952057 106.933533C130.952057 107.726227,131.266998 108.486374,131.827484 109.046844C132.387955 109.607330,133.148102 109.922272,133.940796 109.922272C134.733490 109.922272,135.493637 109.607330,136.054108 109.046844C136.614594 108.486374,136.929535 107.726227,136.929535 106.933533Z" style="fill: rgb(100.000000%,100.000000%,100.000000%);stroke: none;"></path>
  <path d="M131.804672 114.002258C131.804672 113.209564,131.489731 112.449417,130.929245 111.888947C130.368774 111.328461,129.608627 111.013519,128.815933 111.013519C128.023239 111.013519,127.263092 111.328461,126.702621 111.888947C126.142136 112.449417,125.827194 113.209564,125.827194 114.002258C125.827194 114.794952,126.142136 115.555099,126.702621 116.115570C127.263092 116.676056,128.023239 116.990997,128.815933 116.990997C129.608627 116.990997,130.368774 116.676056,130.929245 116.115570C131.489731 115.555099,131.804672 114.794952,131.804672 114.002258Z" style="fill: rgb(100.000000%,100.000000%,100.000000%);stroke: none;"></path>
  <path d="M131.694443 89.739517C131.694443 88.946823,131.379501 88.186676,130.819016 87.626205C130.258545 87.065720,129.498398 86.750778,128.705704 86.750778C127.913010 86.750778,127.152863 87.065720,126.592392 87.626205C126.031906 88.186676,125.716965 88.946823,125.716965 89.739517C125.716965 90.532211,126.031906 91.292358,126.592392 91.852829C127.152863 92.413315,127.913010 92.728256,128.705704 92.728256C129.498398 92.728256,130.258545 92.413315,130.819016 91.852829C131.379501 91.292358,131.694443 90.532211,131.694443 89.739517Z" style="fill: rgb(100.000000%,100.000000%,100.000000%);stroke: none;"></path>
  <path d="M135.487564 102.092209C135.487564 101.299515,135.172623 100.539368,134.612137 99.978897C134.051666 99.418411,133.291519 99.103470,132.498825 99.103470C131.706131 99.103470,130.945984 99.418411,130.385513 99.978897C129.825027 100.539368,129.510086 101.299515,129.510086 102.092209C129.510086 102.884903,129.825027 103.645050,130.385513 104.205521C130.945984 104.766006,131.706131 105.080948,132.498825 105.080948C133.291519 105.080948,134.051666 104.766006,134.612137 104.205521C135.172623 103.645050,135.487564 102.884903,135.487564 102.092209Z" style="fill: rgb(100.000000%,100.000000%,100.000000%);stroke: none;"></path>
  <path d="M130.537247 59.126938C130.537247 58.334244,130.222305 57.574097,129.661819 57.013626C129.101349 56.453140,128.341202 56.138199,127.548508 56.138199C126.755814 56.138199,125.995667 56.453140,125.435196 57.013626C124.874710 57.574097,124.559769 58.334244,124.559769 59.126938C124.559769 59.919632,124.874710 60.679779,125.435196 61.240250C125.995667 61.800735,126.755814 62.115677,127.548508 62.115677C128.341202 62.115677,129.101349 61.800735,129.661819 61.240250C130.222305 60.679779,130.537247 59.919632,130.537247 59.126938Z" style="fill: rgb(100.000000%,100.000000%,100.000000%);stroke: none;"></path>
  <path d="M130.164490 81.514816C130.164490 80.722122,129.849548 79.961975,129.289062 79.401505C128.728592 78.841019,127.968445 78.526077,127.175751 78.526077C126.383057 78.526077,125.622910 78.841019,125.062439 79.401505C124.501953 79.961975,124.187012 80.722122,124.187012 81.514816C124.187012 82.307510,124.501953 83.067657,125.062439 83.628128C125.622910 84.188614,126.383057 84.503555,127.175751 84.503555C127.968445 84.503555,128.728592 84.188614,129.289062 83.628128C129.849548 83.067657,130.164490 82.307510,130.164490 81.514816Z" style="fill: rgb(100.000000%,100.000000%,100.000000%);stroke: none;"></path>
  <path d="M124.081192 15.710022C124.081192 14.917328,123.766251 14.157181,123.205765 13.596710C122.645294 13.036224,121.885147 12.721283,121.092453 12.721283C120.299759 12.721283,119.539612 13.036224,118.979141 13.596710C118.418655 14.157181,118.103714 14.917328,118.103714 15.710022C118.103714 16.502716,118.418655 17.262863,118.979141 17.823334C119.539612 18.383820,120.299759 18.698761,121.092453 18.698761C121.885147 18.698761,122.645294 18.383820,123.205765 17.823334C123.766251 17.262863,124.081192 16.502716,124.081192 15.710022Z" style="fill: rgb(100.000000%,100.000000%,100.000000%);stroke: none;"></path>
  <path d="M135.456085 44.738861C135.456085 43.946167,135.141144 43.186020,134.580658 42.625549C134.020187 42.065063,133.260040 41.750122,132.467346 41.750122C131.674652 41.750122,130.914505 42.065063,130.354034 42.625549C129.793549 43.186020,129.478607 43.946167,129.478607 44.738861C129.478607 45.531555,129.793549 46.291702,130.354034 46.852173C130.914505 47.412659,131.674652 47.727600,132.467346 47.727600C133.260040 47.727600,134.020187 47.412659,134.580658 46.852173C135.141144 46.291702,135.456085 45.531555,135.456085 44.738861Z" style="fill: rgb(100.000000%,100.000000%,100.000000%);stroke: none;"></path>
  <path d="M75.408051 2.554718C75.408051 1.762024,75.093109 1.001877,74.532623 0.441406C73.972153 -0.119080,73.212006 -0.434021,72.419312 -0.434021C71.626617 -0.434021,70.866470 -0.119080,70.306000 0.441406C69.745514 1.001877,69.430573 1.762024,69.430573 2.554718C69.430573 3.347412,69.745514 4.107559,70.306000 4.668030C70.866470 5.228516,71.626617 5.543457,72.419312 5.543457C73.212006 5.543457,73.972153 5.228516,74.532623 4.668030C75.093109 4.107559,75.408051 3.347412,75.408051 2.554718Z" style="fill: rgb(100.000000%,100.000000%,100.000000%);stroke: none;"></path>
  <path d="M107.097763 8.370438C107.097763 7.577744,106.782822 6.817596,106.222336 6.257126C105.661865 5.696640,104.901718 5.381699,104.109024 5.381699C103.316330 5.381699,102.556183 5.696640,101.995712 6.257126C101.435226 6.817596,101.120285 7.577744,101.120285 8.370438C101.120285 9.163132,101.435226 9.923279,101.995712 10.483749C102.556183 11.044235,103.316330 11.359177,104.109024 11.359177C104.901718 11.359177,105.661865 11.044235,106.222336 10.483749C106.782822 9.923279,107.097763 9.163132,107.097763 8.370438Z" style="fill: rgb(100.000000%,100.000000%,100.000000%);stroke: none;"></path>
  <path d="M46.270813 22.216385C46.270813 21.423691,45.955872 20.663544,45.395386 20.103073C44.834915 19.542587,44.074768 19.227646,43.282074 19.227646C42.489380 19.227646,41.729233 19.542587,41.168762 20.103073C40.608276 20.663544,40.293335 21.423691,40.293335 22.216385C40.293335 23.009079,40.608276 23.769226,41.168762 24.329697C41.729233 24.890182,42.489380 25.205124,43.282074 25.205124C44.074768 25.205124,44.834915 24.890182,45.395386 24.329697C45.955872 23.769226,46.270813 23.009079,46.270813 22.216385Z" style="fill: rgb(100.000000%,100.000000%,100.000000%);stroke: none;"></path>
  <path d="M59.156845 3.397552C59.156845 2.604858,58.841904 1.844711,58.281418 1.284241C57.720947 0.723755,56.960800 0.408813,56.168106 0.408813C55.375412 0.408813,54.615265 0.723755,54.054794 1.284241C53.494308 1.844711,53.179367 2.604858,53.179367 3.397552C53.179367 4.190247,53.494308 4.950394,54.054794 5.510864C54.615265 6.071350,55.375412 6.386292,56.168106 6.386292C56.960800 6.386292,57.720947 6.071350,58.281418 5.510864C58.841904 4.950394,59.156845 4.190247,59.156845 3.397552Z" style="fill: rgb(100.000000%,100.000000%,100.000000%);stroke: none;"></path>
  <path d="M42.726303 43.311829C42.726303 42.519135,42.411362 41.758987,41.850876 41.198517C41.290405 40.638031,40.530258 40.323090,39.737564 40.323090C38.944870 40.323090,38.184723 40.638031,37.624252 41.198517C37.063766 41.758987,36.748825 42.519135,36.748825 43.311829C36.748825 44.104523,37.063766 44.864670,37.624252 45.425140C38.184723 45.985626,38.944870 46.300568,39.737564 46.300568C40.530258 46.300568,41.290405 45.985626,41.850876 45.425140C42.411362 44.864670,42.726303 44.104523,42.726303 43.311829Z" style="fill: rgb(100.000000%,100.000000%,100.000000%);stroke: none;"></path>
  <path d="M46.214386 30.958435C46.214386 30.165741,45.899445 29.405594,45.338959 28.845123C44.778488 28.284637,44.018341 27.969696,43.225647 27.969696C42.432953 27.969696,41.672806 28.284637,41.112335 28.845123C40.551849 29.405594,40.236908 30.165741,40.236908 30.958435C40.236908 31.751129,40.551849 32.511276,41.112335 33.071747C41.672806 33.632233,42.432953 33.947174,43.225647 33.947174C44.018341 33.947174,44.778488 33.632233,45.338959 33.071747C45.899445 32.511276,46.214386 31.751129,46.214386 30.958435Z" style="fill: rgb(100.000000%,100.000000%,100.000000%);stroke: none;"></path>
  <path d="M37.972946 55.899048C37.972946 55.106354,37.658005 54.346207,37.097519 53.785736C36.537048 53.225250,35.776901 52.910309,34.984207 52.910309C34.191513 52.910309,33.431366 53.225250,32.870895 53.785736C32.310410 54.346207,31.995468 55.106354,31.995468 55.899048C31.995468 56.691742,32.310410 57.451889,32.870895 58.012360C33.431366 58.572845,34.191513 58.887787,34.984207 58.887787C35.776901 58.887787,36.537048 58.572845,37.097519 58.012360C37.658005 57.451889,37.972946 56.691742,37.972946 55.899048Z" style="fill: rgb(100.000000%,100.000000%,100.000000%);stroke: none;"></path>
  <path d="M40.801849 47.474762C40.801849 46.682068,40.486908 45.921921,39.926422 45.361450C39.365952 44.800964,38.605804 44.486023,37.813110 44.486023C37.020416 44.486023,36.260269 44.800964,35.699799 45.361450C35.139313 45.921921,34.824371 46.682068,34.824371 47.474762C34.824371 48.267456,35.139313 49.027603,35.699799 49.588074C36.260269 50.148560,37.020416 50.463501,37.813110 50.463501C38.605804 50.463501,39.365952 50.148560,39.926422 49.588074C40.486908 49.027603,40.801849 48.267456,40.801849 47.474762Z" style="fill: rgb(100.000000%,100.000000%,100.000000%);stroke: none;"></path>
  <path d="M26.774780 67.270950C26.774780 66.478256,26.459839 65.718109,25.899353 65.157639C25.338882 64.597153,24.578735 64.282211,23.786041 64.282211C22.993347 64.282211,22.233200 64.597153,21.672729 65.157639C21.112244 65.718109,20.797302 66.478256,20.797302 67.270950C20.797302 68.063644,21.112244 68.823792,21.672729 69.384262C22.233200 69.944748,22.993347 70.259689,23.786041 70.259689C24.578735 70.259689,25.338882 69.944748,25.899353 69.384262C26.459839 68.823792,26.774780 68.063644,26.774780 67.270950Z" style="fill: rgb(100.000000%,100.000000%,100.000000%);stroke: none;"></path>
  <path d="M36.826385 60.361160C36.826385 59.568466,36.511444 58.808319,35.950958 58.247849C35.390488 57.687363,34.630341 57.372421,33.837646 57.372421C33.044952 57.372421,32.284805 57.687363,31.724335 58.247849C31.163849 58.808319,30.848907 59.568466,30.848907 60.361160C30.848907 61.153854,31.163849 61.914001,31.724335 62.474472C32.284805 63.034958,33.044952 63.349899,33.837646 63.349899C34.630341 63.349899,35.390488 63.034958,35.950958 62.474472C36.511444 61.914001,36.826385 61.153854,36.826385 60.361160Z" style="fill: rgb(100.000000%,100.000000%,100.000000%);stroke: none;"></path>
  <path d="M9.018631 45.064590C9.018631 44.271896,8.703690 43.511749,8.143204 42.951279C7.582733 42.390793,6.822586 42.075851,6.029892 42.075851C5.237198 42.075851,4.477051 42.390793,3.916580 42.951279C3.356094 43.511749,3.041153 44.271896,3.041153 45.064590C3.041153 45.857285,3.356094 46.617432,3.916580 47.177902C4.477051 47.738388,5.237198 48.053329,6.029892 48.053329C6.822586 48.053329,7.582733 47.738388,8.143204 47.177902C8.703690 46.617432,9.018631 45.857285,9.018631 45.064590Z" style="fill: rgb(100.000000%,100.000000%,100.000000%);stroke: none;"></path>
  <path d="M18.034393 63.119553C18.034393 62.326859,17.719452 61.566711,17.158966 61.006241C16.598495 60.445755,15.838348 60.130814,15.045654 60.130814C14.252960 60.130814,13.492813 60.445755,12.932343 61.006241C12.371857 61.566711,12.056915 62.326859,12.056915 63.119553C12.056915 63.912247,12.371857 64.672394,12.932343 65.232864C13.492813 65.793350,14.252960 66.108292,15.045654 66.108292C15.838348 66.108292,16.598495 65.793350,17.158966 65.232864C17.719452 64.672394,18.034393 63.912247,18.034393 63.119553Z" style="fill: rgb(100.000000%,100.000000%,100.000000%);stroke: none;"></path>
  <path d="M28.121826 15.109039C28.121826 14.316345,27.806885 13.556198,27.246399 12.995728C26.685928 12.435242,25.925781 12.120300,25.133087 12.120300C24.340393 12.120300,23.580246 12.435242,23.019775 12.995728C22.459290 13.556198,22.144348 14.316345,22.144348 15.109039C22.144348 15.901733,22.459290 16.661880,23.019775 17.222351C23.580246 17.782837,24.340393 18.097778,25.133087 18.097778C25.925781 18.097778,26.685928 17.782837,27.246399 17.222351C27.806885 16.661880,28.121826 15.901733,28.121826 15.109039Z" style="fill: rgb(100.000000%,100.000000%,100.000000%);stroke: none;"></path>
  <path d="M12.385773 32.883942C12.385773 32.091248,12.070831 31.331100,11.510345 30.770630C10.949875 30.210144,10.189728 29.895203,9.397034 29.895203C8.604340 29.895203,7.844193 30.210144,7.283722 30.770630C6.723236 31.331100,6.408295 32.091248,6.408295 32.883942C6.408295 33.676636,6.723236 34.436783,7.283722 34.997253C7.844193 35.557739,8.604340 35.872681,9.397034 35.872681C10.189728 35.872681,10.949875 35.557739,11.510345 34.997253C12.070831 34.436783,12.385773 33.676636,12.385773 32.883942Z" style="fill: rgb(100.000000%,100.000000%,100.000000%);stroke: none;"></path>
  <path d="M59.770294 19.481934C59.770294 18.689240,59.455353 17.929092,58.894867 17.368622C58.334396 16.808136,57.574249 16.493195,56.781555 16.493195C55.988861 16.493195,55.228714 16.808136,54.668243 17.368622C54.107758 17.929092,53.792816 18.689240,53.792816 19.481934C53.792816 20.274628,54.107758 21.034775,54.668243 21.595245C55.228714 22.155731,55.988861 22.470673,56.781555 22.470673C57.574249 22.470673,58.334396 22.155731,58.894867 21.595245C59.455353 21.034775,59.770294 20.274628,59.770294 19.481934Z" style="fill: rgb(100.000000%,100.000000%,100.000000%);stroke: none;"></path>
  <path d="M40.360306 10.372421C40.360306 9.579727,40.045364 8.819580,39.484879 8.259109C38.924408 7.698624,38.164261 7.383682,37.371567 7.383682C36.578873 7.383682,35.818726 7.698624,35.258255 8.259109C34.697769 8.819580,34.382828 9.579727,34.382828 10.372421C34.382828 11.165115,34.697769 11.925262,35.258255 12.485733C35.818726 13.046219,36.578873 13.361160,37.371567 13.361160C38.164261 13.361160,38.924408 13.046219,39.484879 12.485733C40.045364 11.925262,40.360306 11.165115,40.360306 10.372421Z" style="fill: rgb(100.000000%,100.000000%,100.000000%);stroke: none;"></path>
  <path d="M67.841415 45.173981C67.841415 44.381287,67.526474 43.621140,66.965988 43.060669C66.405518 42.500183,65.645370 42.185242,64.852676 42.185242C64.059982 42.185242,63.299835 42.500183,62.739365 43.060669C62.178879 43.621140,61.863937 44.381287,61.863937 45.173981C61.863937 45.966675,62.178879 46.726822,62.739365 47.287292C63.299835 47.847778,64.059982 48.162720,64.852676 48.162720C65.645370 48.162720,66.405518 47.847778,66.965988 47.287292C67.526474 46.726822,67.841415 45.966675,67.841415 45.173981Z" style="fill: rgb(100.000000%,100.000000%,100.000000%);stroke: none;"></path>
  <path d="M63.995117 28.990601C63.995117 28.197906,63.680176 27.437759,63.119690 26.877289C62.559219 26.316803,61.799072 26.001862,61.006378 26.001862C60.213684 26.001862,59.453537 26.316803,58.893066 26.877289C58.332581 27.437759,58.017639 28.197906,58.017639 28.990601C58.017639 29.783295,58.332581 30.543442,58.893066 31.103912C59.453537 31.664398,60.213684 31.979340,61.006378 31.979340C61.799072 31.979340,62.559219 31.664398,63.119690 31.103912C63.680176 30.543442,63.995117 29.783295,63.995117 28.990601Z" style="fill: rgb(100.000000%,100.000000%,100.000000%);stroke: none;"></path>
  <path d="M70.224518 69.128387C70.224518 68.335693,69.909576 67.575546,69.349091 67.015076C68.788620 66.454590,68.028473 66.139648,67.235779 66.139648C66.443085 66.139648,65.682938 66.454590,65.122467 67.015076C64.561981 67.575546,64.247040 68.335693,64.247040 69.128387C64.247040 69.921082,64.561981 70.681229,65.122467 71.241699C65.682938 71.802185,66.443085 72.117126,67.235779 72.117126C68.028473 72.117126,68.788620 71.802185,69.349091 71.241699C69.909576 70.681229,70.224518 69.921082,70.224518 69.128387Z" style="fill: rgb(100.000000%,100.000000%,100.000000%);stroke: none;"></path>
  <path d="M68.674530 51.967911C68.674530 51.175217,68.359589 50.415070,67.799103 49.854599C67.238632 49.294113,66.478485 48.979172,65.685791 48.979172C64.893097 48.979172,64.132950 49.294113,63.572479 49.854599C63.011993 50.415070,62.697052 51.175217,62.697052 51.967911C62.697052 52.760605,63.011993 53.520752,63.572479 54.081223C64.132950 54.641708,64.893097 54.956650,65.685791 54.956650C66.478485 54.956650,67.238632 54.641708,67.799103 54.081223C68.359589 53.520752,68.674530 52.760605,68.674530 51.967911Z" style="fill: rgb(100.000000%,100.000000%,100.000000%);stroke: none;"></path>
  <path d="M64.421402 105.966965C64.421402 105.174271,64.106461 104.414124,63.545975 103.853653C62.985504 103.293167,62.225357 102.978226,61.432663 102.978226C60.639969 102.978226,59.879822 103.293167,59.319351 103.853653C58.758865 104.414124,58.443924 105.174271,58.443924 105.966965C58.443924 106.759659,58.758865 107.519806,59.319351 108.080276C59.879822 108.640762,60.639969 108.955704,61.432663 108.955704C62.225357 108.955704,62.985504 108.640762,63.545975 108.080276C64.106461 107.519806,64.421402 106.759659,64.421402 105.966965Z" style="fill: rgb(100.000000%,100.000000%,100.000000%);stroke: none;"></path>
  <path d="M70.648804 79.622772C70.648804 78.830078,70.333862 78.069931,69.773376 77.509460C69.212906 76.948975,68.452759 76.634033,67.660065 76.634033C66.867371 76.634033,66.107224 76.948975,65.546753 77.509460C64.986267 78.069931,64.671326 78.830078,64.671326 79.622772C64.671326 80.415466,64.986267 81.175613,65.546753 81.736084C66.107224 82.296570,66.867371 82.611511,67.660065 82.611511C68.452759 82.611511,69.212906 82.296570,69.773376 81.736084C70.333862 81.175613,70.648804 80.415466,70.648804 79.622772Z" style="fill: rgb(100.000000%,100.000000%,100.000000%);stroke: none;"></path>
  <path d="M59.628220 158.930191C59.628220 158.137497,59.313278 157.377350,58.752792 156.816879C58.192322 156.256393,57.432175 155.941452,56.639481 155.941452C55.846786 155.941452,55.086639 156.256393,54.526169 156.816879C53.965683 157.377350,53.650742 158.137497,53.650742 158.930191C53.650742 159.722885,53.965683 160.483032,54.526169 161.043503C55.086639 161.603989,55.846786 161.918930,56.639481 161.918930C57.432175 161.918930,58.192322 161.603989,58.752792 161.043503C59.313278 160.483032,59.628220 159.722885,59.628220 158.930191Z" style="fill: rgb(100.000000%,100.000000%,100.000000%);stroke: none;"></path>
  <path d="M53.550262 120.865173C53.550262 120.072479,53.235321 119.312332,52.674835 118.751862C52.114365 118.191376,51.354218 117.876434,50.561523 117.876434C49.768829 117.876434,49.008682 118.191376,48.448212 118.751862C47.887726 119.312332,47.572784 120.072479,47.572784 120.865173C47.572784 121.657867,47.887726 122.418015,48.448212 122.978485C49.008682 123.538971,49.768829 123.853912,50.561523 123.853912C51.354218 123.853912,52.114365 123.538971,52.674835 122.978485C53.235321 122.418015,53.550262 121.657867,53.550262 120.865173Z" style="fill: rgb(100.000000%,100.000000%,100.000000%);stroke: none;"></path>
  <path d="M94.580872 183.783417C110.501404 198.317902,135.559036 195.605042,148.000000 178.000000C153.755310 169.855728,155.490356 159.531296,152.684158 149.962234C151.498566 145.919357,149.520630 142.168732,148.000000 138.242004C146.906342 135.417831,145.425766 132.372482,142.556305 132.448227C139.674332 132.524307,138.381866 135.669510,137.342163 138.508194C135.631668 143.178345,132.920090 147.496262,132.040726 152.402451C130.036728 163.583252,137.111755 174.269745,148.000000 178.000000C164.172653 183.540680,180.760117 173.182632,189.696503 157.746704C199.449722 140.899841,199.554550 119.496323,185.198441 107.553833C176.005295 99.906281,163.456635 99.255035,151.509781 98.920151C144.707520 98.729477,137.895599 98.548889,131.144714 97.682419C126.015015 97.024017,120.270340 96.586792,117.558701 100.778351C114.760117 105.104294,117.834625 110.232819,120.128220 114.962509C122.464554 119.780350,123.702148 125.163116,126.988373 129.410080C129.816010 133.064377,133.865036 135.480759,137.342163 138.508194C138.953308 139.910980,140.616272 141.493515,142.751770 141.460068C144.892227 141.426544,146.513092 139.791992,148.000000 138.242004C151.645584 134.441772,155.510529 130.846222,159.778427 127.759293C168.654205 121.339523,179.394043 116.924698,185.198441 107.553833C195.348328 91.167450,186.683304 71.026093,174.351318 55.164017C162.308868 39.674347,145.516388 26.454605,127.287445 31.519714C113.653915 35.307938,105.561493 49.004379,92.677841 54.607117C84.431412 58.193253,75.237106 58.040512,66.300430 58.772827C60.545166 59.244431,54.702103 60.090942,49.110992 58.589722C44.419586 57.330078,40.368530 54.530350,36.360046 51.801895C33.633209 49.945831,30.827606 48.082733,27.579514 47.470810C21.137955 46.257263,14.964996 49.891068,11.169159 55.356491C2.259430 68.185120,7.116745 84.805237,13.755203 99.311676C22.010849 117.352020,33.895248 135.226181,53.219116 137.509155C68.576736 139.323547,82.051620 129.776932,95.832962 122.943237C103.518692 119.132156,111.624802 116.130875,120.128220 114.962509C124.274841 114.392776,128.815933 114.002258,131.264862 110.624451C133.940796 106.933533,132.498825 102.092209,131.144714 97.682419C128.705704 89.739517,127.175751 81.514816,127.314133 73.203659C127.548508 59.126938,132.467346 44.738861,127.287445 31.519714C121.092453 15.710022,104.109024 8.370438,87.138916 5.256073C72.419312 2.554718,56.168106 3.397552,47.982239 15.352234C43.282074 22.216385,43.225647 30.958435,40.978241 38.917831C39.737564 43.311829,37.813110 47.474762,36.360046 51.801895C34.984207 55.899048,33.837646 60.361160,30.267197 62.815598C23.786041 67.270950,15.045654 63.119553,11.169159 55.356491C6.029892 45.064590,9.397034 32.883942,17.150620 24.125763C25.133087 15.109039,37.371567 10.372421,47.982239 15.352234C56.781555 19.481934,61.006378 28.990601,63.272446 38.525116C64.852676 45.173981,65.685791 51.967911,66.300430 58.772827C67.235779 69.128387,67.660065 79.622772,65.265533 89.752502C61.432663 105.966965,50.561523 120.865173,53.219116 137.509155C56.639481 158.930191,78.736816 169.318756,94.580872 183.783417" style="stroke:rgb(0.000000%,0.000000%,0.000000%); stroke-width: 0.498138;stroke-linecap: round;stroke-linejoin: round;stroke-miterlimit: 10.000000;fill: none;"></path>
  <path d="M94.580872 183.783417C110.501404 198.317902,135.559036 195.605042,148.000000 178.000000" style="stroke:rgb(0.000000%,0.000000%,0.000000%); stroke-width: 1.494400;stroke-linecap: round;stroke-linejoin: round;stroke-miterlimit: 10.000000;fill: none;"></path>
  <path d="M53.219116 137.509155C56.639481 158.930191,78.736816 169.318756,94.580872 183.783417" style="stroke:rgb(0.000000%,0.000000%,0.000000%); stroke-width: 1.494400;stroke-linecap: round;stroke-linejoin: round;stroke-miterlimit: 10.000000;fill: none;"></path>
  <path d="M150.988739 178.000000C150.988739 177.207306,150.673798 176.447159,150.113312 175.886688C149.552841 175.326202,148.792694 175.011261,148.000000 175.011261C147.207306 175.011261,146.447159 175.326202,145.886688 175.886688C145.326202 176.447159,145.011261 177.207306,145.011261 178.000000C145.011261 178.792694,145.326202 179.552841,145.886688 180.113312C146.447159 180.673798,147.207306 180.988739,148.000000 180.988739C148.792694 180.988739,149.552841 180.673798,150.113312 180.113312C150.673798 179.552841,150.988739 178.792694,150.988739 178.000000Z" style="fill: rgb(100.000000%,100.000000%,100.000000%);stroke: none;"></path>
  <path d="M135.185776 167.995193C138.065063 172.530685,142.555878 176.134872,148.000000 178.000000C156.086334 180.770340,164.276367 179.565994,171.561859 175.739563" style="stroke:rgb(0.000000%,0.000000%,0.000000%); stroke-width: 0.498138;stroke-linecap: round;stroke-linejoin: round;stroke-miterlimit: 10.000000;fill: none;"></path>
  <path d="M140.330902 138.508194C140.330902 137.715500,140.015961 136.955353,139.455475 136.394882C138.895004 135.834396,138.134857 135.519455,137.342163 135.519455C136.549469 135.519455,135.789322 135.834396,135.228851 136.394882C134.668365 136.955353,134.353424 137.715500,134.353424 138.508194C134.353424 139.300888,134.668365 140.061035,135.228851 140.621506C135.789322 141.181992,136.549469 141.496933,137.342163 141.496933C138.134857 141.496933,138.895004 141.181992,139.455475 140.621506C140.015961 140.061035,140.330902 139.300888,140.330902 138.508194Z" style="fill: rgb(100.000000%,100.000000%,100.000000%);stroke: none;"></path>
  <path d="M131.921722 134.194214C133.722076 135.633530,135.603607 136.994476,137.342163 138.508194C138.147736 139.209595,138.966263 139.955933,139.850342 140.522736" style="stroke:rgb(0.000000%,0.000000%,0.000000%); stroke-width: 0.498138;stroke-linecap: round;stroke-linejoin: round;stroke-miterlimit: 10.000000;fill: none;"></path>
  <path d="M188.187180 107.553833C188.187180 106.761139,187.872238 106.000992,187.311752 105.440521C186.751282 104.880035,185.991135 104.565094,185.198441 104.565094C184.405746 104.565094,183.645599 104.880035,183.085129 105.440521C182.524643 106.000992,182.209702 106.761139,182.209702 107.553833C182.209702 108.346527,182.524643 109.106674,183.085129 109.667145C183.645599 110.227631,184.405746 110.542572,185.198441 110.542572C185.991135 110.542572,186.751282 110.227631,187.311752 109.667145C187.872238 109.106674,188.187180 108.346527,188.187180 107.553833Z" style="fill: rgb(100.000000%,100.000000%,100.000000%);stroke: none;"></path>
  <path d="M173.640213 118.763214C178.160187 115.685684,182.296249 112.239258,185.198441 107.553833C190.273392 99.360641,190.644608 90.228699,188.205582 81.162292" style="stroke:rgb(0.000000%,0.000000%,0.000000%); stroke-width: 0.498138;stroke-linecap: round;stroke-linejoin: round;stroke-miterlimit: 10.000000;fill: none;"></path>
  <path d="M123.116959 114.962509C123.116959 114.169815,122.802017 113.409668,122.241531 112.849197C121.681061 112.288712,120.920914 111.973770,120.128220 111.973770C119.335526 111.973770,118.575378 112.288712,118.014908 112.849197C117.454422 113.409668,117.139481 114.169815,117.139481 114.962509C117.139481 115.755203,117.454422 116.515350,118.014908 117.075821C118.575378 117.636307,119.335526 117.951248,120.128220 117.951248C120.920914 117.951248,121.681061 117.636307,122.241531 117.075821C122.802017 116.515350,123.116959 115.755203,123.116959 114.962509Z" style="fill: rgb(100.000000%,100.000000%,100.000000%);stroke: none;"></path>
  <path d="M116.933899 107.719040C117.639404 110.133118,118.981430 112.597672,120.128220 114.962509C121.296387 117.371429,122.189880 119.921585,123.202103 122.400391" style="stroke:rgb(0.000000%,0.000000%,0.000000%); stroke-width: 0.498138;stroke-linecap: round;stroke-linejoin: round;stroke-miterlimit: 10.000000;fill: none;"></path>
  <path d="M150.988739 138.242004C150.988739 137.449310,150.673798 136.689163,150.113312 136.128693C149.552841 135.568207,148.792694 135.253265,148.000000 135.253265C147.207306 135.253265,146.447159 135.568207,145.886688 136.128693C145.326202 136.689163,145.011261 137.449310,145.011261 138.242004C145.011261 139.034698,145.326202 139.794846,145.886688 140.355316C146.447159 140.915802,147.207306 141.230743,148.000000 141.230743C148.792694 141.230743,149.552841 140.915802,150.113312 140.355316C150.673798 139.794846,150.988739 139.034698,150.988739 138.242004Z" style="fill: rgb(100.000000%,100.000000%,100.000000%);stroke: none;"></path>
  <path d="M150.467712 144.058548C149.634949 142.124695,148.760315 140.205368,148.000000 138.242004C147.453171 136.829910,146.809601 135.362534,145.944061 134.257645" style="stroke:rgb(0.000000%,0.000000%,0.000000%); stroke-width: 0.498138;stroke-linecap: round;stroke-linejoin: round;stroke-miterlimit: 10.000000;fill: none;"></path>
  <path d="M130.276184 31.519714C130.276184 30.727020,129.961243 29.966873,129.400757 29.406403C128.840286 28.845917,128.080139 28.530975,127.287445 28.530975C126.494751 28.530975,125.734604 28.845917,125.174133 29.406403C124.613647 29.966873,124.298706 30.727020,124.298706 31.519714C124.298706 32.312408,124.613647 33.072556,125.174133 33.633026C125.734604 34.193512,126.494751 34.508453,127.287445 34.508453C128.080139 34.508453,128.840286 34.193512,129.400757 33.633026C129.961243 33.072556,130.276184 32.312408,130.276184 31.519714Z" style="fill: rgb(100.000000%,100.000000%,100.000000%);stroke: none;"></path>
  <path d="M153.139313 35.633820C145.157272 31.025818,136.401917 28.987167,127.287445 31.519714C120.470673 33.413834,115.039185 37.785004,109.701431 42.382980" style="stroke:rgb(0.000000%,0.000000%,0.000000%); stroke-width: 0.498138;stroke-linecap: round;stroke-linejoin: round;stroke-miterlimit: 10.000000;fill: none;"></path>
  <path d="M39.348785 51.801895C39.348785 51.009201,39.033844 50.249054,38.473358 49.688583C37.912888 49.128098,37.152740 48.813156,36.360046 48.813156C35.567352 48.813156,34.807205 49.128098,34.246735 49.688583C33.686249 50.249054,33.371307 51.009201,33.371307 51.801895C33.371307 52.594589,33.686249 53.354736,34.246735 53.915207C34.807205 54.475693,35.567352 54.790634,36.360046 54.790634C37.152740 54.790634,37.912888 54.475693,38.473358 53.915207C39.033844 53.354736,39.348785 52.594589,39.348785 51.801895Z" style="fill: rgb(100.000000%,100.000000%,100.000000%);stroke: none;"></path>
  <path d="M42.479416 55.746597C40.379166 54.548157,38.364288 53.166122,36.360046 51.801895C34.996628 50.873856,33.613510 49.944061,32.165237 49.169785" style="stroke:rgb(0.000000%,0.000000%,0.000000%); stroke-width: 0.498138;stroke-linecap: round;stroke-linejoin: round;stroke-miterlimit: 10.000000;fill: none;"></path>
  <path d="M56.207855 137.509155C56.207855 136.716461,55.892914 135.956314,55.332428 135.395844C54.771957 134.835358,54.011810 134.520416,53.219116 134.520416C52.426422 134.520416,51.666275 134.835358,51.105804 135.395844C50.545319 135.956314,50.230377 136.716461,50.230377 137.509155C50.230377 138.301849,50.545319 139.061996,51.105804 139.622467C51.666275 140.182953,52.426422 140.497894,53.219116 140.497894C54.011810 140.497894,54.771957 140.182953,55.332428 139.622467C55.892914 139.061996,56.207855 138.301849,56.207855 137.509155Z" style="fill: rgb(100.000000%,100.000000%,100.000000%);stroke: none;"></path>
  <path d="M29.336594 124.319443C35.755127 131.328400,43.557190 136.367676,53.219116 137.509155C60.897934 138.416351,68.106064 136.483292,75.117157 133.469223" style="stroke:rgb(0.000000%,0.000000%,0.000000%); stroke-width: 0.498138;stroke-linecap: round;stroke-linejoin: round;stroke-miterlimit: 10.000000;fill: none;"></path>
  <path d="M134.133453 97.682419C134.133453 96.889725,133.818512 96.129578,133.258026 95.569107C132.697556 95.008621,131.937408 94.693680,131.144714 94.693680C130.352020 94.693680,129.591873 95.008621,129.031403 95.569107C128.470917 96.129578,128.155975 96.889725,128.155975 97.682419C128.155975 98.475113,128.470917 99.235260,129.031403 99.795731C129.591873 100.356216,130.352020 100.671158,131.144714 100.671158C131.937408 100.671158,132.697556 100.356216,133.258026 99.795731C133.818512 99.235260,134.133453 98.475113,134.133453 97.682419Z" style="fill: rgb(100.000000%,100.000000%,100.000000%);stroke: none;"></path>
  <path d="M132.716049 104.423004C132.520782 102.200089,131.821762 99.887314,131.144714 97.682419C129.925201 93.710968,128.932953 89.669067,128.262894 85.581131" style="stroke:rgb(0.000000%,0.000000%,0.000000%); stroke-width: 0.498138;stroke-linecap: round;stroke-linejoin: round;stroke-miterlimit: 10.000000;fill: none;"></path>
  <path d="M50.970978 15.352234C50.970978 14.559540,50.656036 13.799393,50.095551 13.238922C49.535080 12.678436,48.774933 12.363495,47.982239 12.363495C47.189545 12.363495,46.429398 12.678436,45.868927 13.238922C45.308441 13.799393,44.993500 14.559540,44.993500 15.352234C44.993500 16.144928,45.308441 16.905075,45.868927 17.465546C46.429398 18.026031,47.189545 18.340973,47.982239 18.340973C48.774933 18.340973,49.535080 18.026031,50.095551 17.465546C50.656036 16.905075,50.970978 16.144928,50.970978 15.352234Z" style="fill: rgb(100.000000%,100.000000%,100.000000%);stroke: none;"></path>
  <path d="M65.110413 4.808151C58.184433 6.175522,52.075165 9.374893,47.982239 15.352234C45.632156 18.784317,44.443008 22.685867,43.560455 26.724335" style="stroke:rgb(0.000000%,0.000000%,0.000000%); stroke-width: 0.498138;stroke-linecap: round;stroke-linejoin: round;stroke-miterlimit: 10.000000;fill: none;"></path>
  <path d="M14.157898 55.356491C14.157898 54.563797,13.842957 53.803650,13.282471 53.243179C12.722000 52.682693,11.961853 52.367752,11.169159 52.367752C10.376465 52.367752,9.616318 52.682693,9.055847 53.243179C8.495361 53.803650,8.180420 54.563797,8.180420 55.356491C8.180420 56.149185,8.495361 56.909332,9.055847 57.469803C9.616318 58.030289,10.376465 58.345230,11.169159 58.345230C11.961853 58.345230,12.722000 58.030289,13.282471 57.469803C13.842957 56.909332,14.157898 56.149185,14.157898 55.356491Z" style="fill: rgb(100.000000%,100.000000%,100.000000%);stroke: none;"></path>
  <path d="M19.741425 63.667938C16.261627 62.216629,13.107407 59.238022,11.169159 55.356491C8.599518 50.210541,8.156494 44.592392,9.325073 39.165970" style="stroke:rgb(0.000000%,0.000000%,0.000000%); stroke-width: 0.498138;stroke-linecap: round;stroke-linejoin: round;stroke-miterlimit: 10.000000;fill: none;"></path>
  <path d="M69.289169 58.772827C69.289169 57.980133,68.974228 57.219986,68.413742 56.659515C67.853271 56.099030,67.093124 55.784088,66.300430 55.784088C65.507736 55.784088,64.747589 56.099030,64.187119 56.659515C63.626633 57.219986,63.311691 57.980133,63.311691 58.772827C63.311691 59.565521,63.626633 60.325668,64.187119 60.886139C64.747589 61.446625,65.507736 61.761566,66.300430 61.761566C67.093124 61.761566,67.853271 61.446625,68.413742 60.886139C68.974228 60.325668,69.289169 59.565521,69.289169 58.772827Z" style="fill: rgb(100.000000%,100.000000%,100.000000%);stroke: none;"></path>
  <path d="M65.148544 48.590469C65.631180 51.970673,65.993118 55.370377,66.300430 58.772827C66.768112 63.950607,67.108017 69.163101,67.031677 74.347366" style="stroke:rgb(0.000000%,0.000000%,0.000000%); stroke-width: 0.498138;stroke-linecap: round;stroke-linejoin: round;stroke-miterlimit: 10.000000;fill: none;"></path>
  <path d="M142.556305 132.448227C140.250717 132.509094,138.962418 134.534210,138.006989 136.795227" style="stroke:rgb(0.000000%,0.000000%,0.000000%); stroke-width: 0.498138;stroke-linecap: round;stroke-linejoin: round;stroke-miterlimit: 10.000000;fill: none;"></path>
  <path d="M138.344910 133.814301C138.093811 134.723022,138.014404 135.750916,138.006989 136.795227C138.750671 136.062042,139.533691 135.391388,140.353790 134.926392Z" style="stroke:rgb(0.000000%,0.000000%,0.000000%); stroke-width: 0.498138;fill: rgb(0.000000%,0.000000%,0.000000%);"></path>
  <path d="M132.040726 152.402451C130.437515 161.347122,134.644943 169.975433,141.966858 174.978851" style="stroke:rgb(0.000000%,0.000000%,0.000000%); stroke-width: 0.498138;stroke-linecap: round;stroke-linejoin: round;stroke-miterlimit: 10.000000;fill: none;"></path>
  <path d="M139.073639 174.186111C140.015182 174.506927,140.981415 174.772156,141.966858 174.978851C141.416229 174.135864,140.920547 173.265076,140.481659 172.372452Z" style="stroke:rgb(0.000000%,0.000000%,0.000000%); stroke-width: 0.498138;fill: rgb(0.000000%,0.000000%,0.000000%);"></path>
  <path d="M117.558701 100.778351C115.319824 104.239120,116.839752 108.213531,118.711609 112.086487" style="stroke:rgb(0.000000%,0.000000%,0.000000%); stroke-width: 0.498138;stroke-linecap: round;stroke-linejoin: round;stroke-miterlimit: 10.000000;fill: none;"></path>
  <path d="M116.537109 110.019745C117.216751 110.727661,117.956253 111.413406,118.711609 112.086487C118.653458 111.076431,118.615463 110.068634,118.635468 109.087463Z" style="stroke:rgb(0.000000%,0.000000%,0.000000%); stroke-width: 0.498138;fill: rgb(0.000000%,0.000000%,0.000000%);"></path>
  <path d="M92.677841 54.607117C86.080673 57.476044,78.876862 57.952057,71.683624 58.402664" style="stroke:rgb(0.000000%,0.000000%,0.000000%); stroke-width: 0.498138;stroke-linecap: round;stroke-linejoin: round;stroke-miterlimit: 10.000000;fill: none;"></path>
  <path d="M74.374710 57.076477C73.480301 57.522537,72.581970 57.962875,71.683624 58.402664C72.629822 58.726913,73.576401 59.050797,74.524246 59.367828Z" style="stroke:rgb(0.000000%,0.000000%,0.000000%); stroke-width: 0.498138;fill: rgb(0.000000%,0.000000%,0.000000%);"></path>
  <path d="M27.579514 47.470810C22.426254 46.499969,17.444885 48.631454,13.714996 52.321198" style="stroke:rgb(0.000000%,0.000000%,0.000000%); stroke-width: 0.498138;stroke-linecap: round;stroke-linejoin: round;stroke-miterlimit: 10.000000;fill: none;"></path>
  <path d="M15.080444 49.649933C14.562378 50.496063,14.106247 51.390854,13.714996 52.321198C14.649521 51.940018,15.604767 51.629852,16.569397 51.397888Z" style="stroke:rgb(0.000000%,0.000000%,0.000000%); stroke-width: 0.498138;fill: rgb(0.000000%,0.000000%,0.000000%);"></path>
  <path d="M95.832962 122.943237C101.981567 119.894363,108.399216 117.363770,115.074112 115.875275" style="stroke:rgb(0.000000%,0.000000%,0.000000%); stroke-width: 0.498138;stroke-linecap: round;stroke-linejoin: round;stroke-miterlimit: 10.000000;fill: none;"></path>
  <path d="M112.658051 117.653763C113.450165 117.043457,114.255325 116.450119,115.074112 115.875275C114.088669 115.702774,113.099792 115.552979,112.108124 115.424393Z" style="stroke:rgb(0.000000%,0.000000%,0.000000%); stroke-width: 0.498138;fill: rgb(0.000000%,0.000000%,0.000000%);"></path>
  <path d="M131.264862 110.624451C133.405624 107.671707,132.910889 103.982697,131.934067 100.367371" style="stroke:rgb(0.000000%,0.000000%,0.000000%); stroke-width: 0.498138;stroke-linecap: round;stroke-linejoin: round;stroke-miterlimit: 10.000000;fill: none;"></path>
  <path d="M133.650040 102.828110C133.138718 101.988434,132.551605 101.168686,131.934067 100.367371C131.804108 101.370651,131.639572 102.365448,131.407394 103.320755Z" style="stroke:rgb(0.000000%,0.000000%,0.000000%); stroke-width: 0.498138;fill: rgb(0.000000%,0.000000%,0.000000%);"></path>
  <path d="M40.978241 38.917831C39.985703 42.433044,38.555527 45.800369,37.279190 49.222198" style="stroke:rgb(0.000000%,0.000000%,0.000000%); stroke-width: 0.498138;stroke-linecap: round;stroke-linejoin: round;stroke-miterlimit: 10.000000;fill: none;"></path>
  <path d="M37.195999 46.223282C37.220047 47.223038,37.243515 48.222931,37.279190 49.222198C37.960556 48.490387,38.651016 47.766769,39.340958 47.042862Z" style="stroke:rgb(0.000000%,0.000000%,0.000000%); stroke-width: 0.498138;fill: rgb(0.000000%,0.000000%,0.000000%);"></path>
  <path d="M30.267197 62.815598C25.082260 66.379898,18.451385 64.435822,14.021683 59.540909" style="stroke:rgb(0.000000%,0.000000%,0.000000%); stroke-width: 0.498138;stroke-linecap: round;stroke-linejoin: round;stroke-miterlimit: 10.000000;fill: none;"></path>
  <path d="M16.831772 60.591110C15.884186 60.328354,14.942169 59.977112,14.021683 59.540909C14.364105 60.500244,14.781830 61.414719,15.266068 62.270554Z" style="stroke:rgb(0.000000%,0.000000%,0.000000%); stroke-width: 0.498138;fill: rgb(0.000000%,0.000000%,0.000000%);"></path>
  <path d="M63.272446 38.525116C64.536636 43.844223,65.322662 49.256180,65.901199 54.692337" style="stroke:rgb(0.000000%,0.000000%,0.000000%); stroke-width: 0.498138;stroke-linecap: round;stroke-linejoin: round;stroke-miterlimit: 10.000000;fill: none;"></path>
  <path d="M64.446442 52.068771C64.938385 52.939209,65.422852 53.814056,65.901199 54.692337C66.183990 53.733063,66.460083 52.771881,66.727722 51.808548Z" style="stroke:rgb(0.000000%,0.000000%,0.000000%); stroke-width: 0.498138;fill: rgb(0.000000%,0.000000%,0.000000%);"></path>
  <path d="M91.590225 186.493622L97.571518 186.493622L97.571518 179.073227L91.590225 179.073227Z" style="fill: rgb(100.000000%,100.000000%,100.000000%);stroke: none;"></path>
  <path d="M91.590225 188.493622L97.571518 188.493622L97.571518 181.073227L91.590225 181.073227Z" style="fill: rgb(100.000000%,100.000000%,100.000000%);stroke: none;"></path>
  <g transform="translate(92.090225 186.993622)" style="fill: rgb(0.000000%,0.000000%,0.000000%);">
    <use xlink:href="#GLYPHcmr10_49"></use>
  </g>
  <path d="M149.693512 152.672440L155.674805 152.672440L155.674805 145.252045L149.693512 145.252045Z" style="fill: rgb(100.000000%,100.000000%,100.000000%);stroke: none;"></path>
  <path d="M149.693512 154.672440L155.674805 154.672440L155.674805 147.252045L149.693512 147.252045Z" style="fill: rgb(100.000000%,100.000000%,100.000000%);stroke: none;"></path>
  <g transform="translate(150.193512 153.172440)" style="fill: rgb(0.000000%,0.000000%,0.000000%);">
    <use xlink:href="#GLYPHcmr10_50"></use>
  </g>
  <path d="M186.705856 160.456909L192.687149 160.456909L192.687149 153.036514L186.705856 153.036514Z" style="fill: rgb(100.000000%,100.000000%,100.000000%);stroke: none;"></path>
  <path d="M186.705856 162.456909L192.687149 162.456909L192.687149 155.036514L186.705856 155.036514Z" style="fill: rgb(100.000000%,100.000000%,100.000000%);stroke: none;"></path>
  <g transform="translate(187.205856 160.956909)" style="fill: rgb(0.000000%,0.000000%,0.000000%);">
    <use xlink:href="#GLYPHcmr10_51"></use>
  </g>
  <path d="M148.519135 101.630356L154.500427 101.630356L154.500427 94.209961L148.519135 94.209961Z" style="fill: rgb(100.000000%,100.000000%,100.000000%);stroke: none;"></path>
  <path d="M148.519135 103.630356L154.500427 103.630356L154.500427 96.209961L148.519135 96.209961Z" style="fill: rgb(100.000000%,100.000000%,100.000000%);stroke: none;"></path>
  <g transform="translate(149.019135 102.130356)" style="fill: rgb(0.000000%,0.000000%,0.000000%);">
    <use xlink:href="#GLYPHcmr10_52"></use>
  </g>
  <path d="M123.997726 132.120285L129.979019 132.120285L129.979019 124.699890L123.997726 124.699890Z" style="fill: rgb(100.000000%,100.000000%,100.000000%);stroke: none;"></path>
  <path d="M123.997726 134.120285L129.979019 134.120285L129.979019 126.699890L123.997726 126.699890Z" style="fill: rgb(100.000000%,100.000000%,100.000000%);stroke: none;"></path>
  <g transform="translate(124.497726 132.620285)" style="fill: rgb(0.000000%,0.000000%,0.000000%);">
    <use xlink:href="#GLYPHcmr10_53"></use>
  </g>
  <path d="M171.360672 57.874222L177.341965 57.874222L177.341965 50.453827L171.360672 50.453827Z" style="fill: rgb(100.000000%,100.000000%,100.000000%);stroke: none;"></path>
  <path d="M171.360672 59.874222L177.341965 59.874222L177.341965 52.453827L171.360672 52.453827Z" style="fill: rgb(100.000000%,100.000000%,100.000000%);stroke: none;"></path>
  <g transform="translate(171.860672 58.374222)" style="fill: rgb(0.000000%,0.000000%,0.000000%);">
    <use xlink:href="#GLYPHcmr10_54"></use>
  </g>
  <path d="M46.120346 61.299927L52.101639 61.299927L52.101639 53.879532L46.120346 53.879532Z" style="fill: rgb(100.000000%,100.000000%,100.000000%);stroke: none;"></path>
  <path d="M46.120346 63.299927L52.101639 63.299927L52.101639 55.879532L46.120346 55.879532Z" style="fill: rgb(100.000000%,100.000000%,100.000000%);stroke: none;"></path>
  <g transform="translate(46.620346 61.799927)" style="fill: rgb(0.000000%,0.000000%,0.000000%);">
    <use xlink:href="#GLYPHcmr10_55"></use>
  </g>
  <path d="M10.764557 102.021881L16.745850 102.021881L16.745850 94.601486L10.764557 94.601486Z" style="fill: rgb(100.000000%,100.000000%,100.000000%);stroke: none;"></path>
  <path d="M10.764557 104.021881L16.745850 104.021881L16.745850 96.601486L10.764557 96.601486Z" style="fill: rgb(100.000000%,100.000000%,100.000000%);stroke: none;"></path>
  <g transform="translate(11.264557 102.521881)" style="fill: rgb(0.000000%,0.000000%,0.000000%);">
    <use xlink:href="#GLYPHcmr10_56"></use>
  </g>
  <path d="M124.323486 75.913864L130.304779 75.913864L130.304779 68.493469L124.323486 68.493469Z" style="fill: rgb(100.000000%,100.000000%,100.000000%);stroke: none;"></path>
  <path d="M124.323486 77.913864L130.304779 77.913864L130.304779 70.493469L124.323486 70.493469Z" style="fill: rgb(100.000000%,100.000000%,100.000000%);stroke: none;"></path>
  <g transform="translate(124.823486 76.413864)" style="fill: rgb(0.000000%,0.000000%,0.000000%);">
    <use xlink:href="#GLYPHcmr10_57"></use>
  </g>
  <path d="M81.657562 7.966278L92.620270 7.966278L92.620270 0.545883L81.657562 0.545883Z" style="fill: rgb(100.000000%,100.000000%,100.000000%);stroke: none;"></path>
  <path d="M81.657562 9.966278L92.620270 9.966278L92.620270 2.545883L81.657562 2.545883Z" style="fill: rgb(100.000000%,100.000000%,100.000000%);stroke: none;"></path>
  <g transform="translate(82.157562 8.466278)" style="fill: rgb(0.000000%,0.000000%,0.000000%);">
    <use xlink:href="#GLYPHcmr10_49"></use>
    <use xlink:href="#GLYPHcmr10_48" x="5.000095"></use>
  </g>
  <path d="M11.669266 26.835968L22.631973 26.835968L22.631973 19.415573L11.669266 19.415573Z" style="fill: rgb(100.000000%,100.000000%,100.000000%);stroke: none;"></path>
  <path d="M11.669266 28.835968L22.631973 28.835968L22.631973 21.415573L11.669266 21.415573Z" style="fill: rgb(100.000000%,100.000000%,100.000000%);stroke: none;"></path>
  <g transform="translate(12.169266 27.335968)" style="fill: rgb(0.000000%,0.000000%,0.000000%);">
    <use xlink:href="#GLYPHcmr10_49"></use>
    <use xlink:href="#GLYPHcmr10_49" x="5.000095"></use>
  </g>
  <path d="M59.784180 92.462708L70.746887 92.462708L70.746887 85.042313L59.784180 85.042313Z" style="fill: rgb(100.000000%,100.000000%,100.000000%);stroke: none;"></path>
  <path d="M59.784180 94.462708L70.746887 94.462708L70.746887 87.042313L59.784180 87.042313Z" style="fill: rgb(100.000000%,100.000000%,100.000000%);stroke: none;"></path>
  <g transform="translate(60.284180 92.962708)" style="fill: rgb(0.000000%,0.000000%,0.000000%);">
    <use xlink:href="#GLYPHcmr10_49"></use>
    <use xlink:href="#GLYPHcmr10_50" x="5.000095"></use>
  </g>
</svg>
