<?xml version="1.0"?>
<!-- Created by MetaPost 1.999 on 2021.07.06:0007 -->
<svg version="1.1" xmlns="http://www.w3.org/2000/svg" xmlns:xlink="http://www.w3.org/1999/xlink" width="194.924927" height="201.894592" viewBox="0 0 194.924927 201.894592">
<!-- Original BoundingBox: -55.199402 -37.955505 139.725525 163.939087 -->
  <defs>
    <g transform="scale(0.009963,0.009963)" id="GLYPHcmr10_48">
      <path style="fill-rule: evenodd;" d="M460.000000 -320.000000C460.000000 -400.000000,455.000000 -480.000000,420.000000 -554.000000C374.000000 -650.000000,292.000000 -666.000000,250.000000 -666.000000C190.000000 -666.000000,117.000000 -640.000000,76.000000 -547.000000C44.000000 -478.000000,39.000000 -400.000000,39.000000 -320.000000C39.000000 -245.000000,43.000000 -155.000000,84.000000 -79.000000C127.000000 2.000000,200.000000 22.000000,249.000000 22.000000C303.000000 22.000000,379.000000 1.000000,423.000000 -94.000000C455.000000 -163.000000,460.000000 -241.000000,460.000000 -320.000000M249.000000 -0.000000C210.000000 -0.000000,151.000000 -25.000000,133.000000 -121.000000C122.000000 -181.000000,122.000000 -273.000000,122.000000 -332.000000C122.000000 -396.000000,122.000000 -462.000000,130.000000 -516.000000C149.000000 -635.000000,224.000000 -644.000000,249.000000 -644.000000C282.000000 -644.000000,348.000000 -626.000000,367.000000 -527.000000C377.000000 -471.000000,377.000000 -395.000000,377.000000 -332.000000C377.000000 -257.000000,377.000000 -189.000000,366.000000 -125.000000C351.000000 -30.000000,294.000000 -0.000000,249.000000 -0.000000"></path>
    </g>
    <g transform="scale(0.009963,0.009963)" id="GLYPHcmr10_49">
      <path style="fill-rule: evenodd;" d="M294.000000 -640.000000C294.000000 -664.000000,294.000000 -666.000000,271.000000 -666.000000C209.000000 -602.000000,121.000000 -602.000000,89.000000 -602.000000L89.000000 -571.000000C109.000000 -571.000000,168.000000 -571.000000,220.000000 -597.000000L220.000000 -79.000000C220.000000 -43.000000,217.000000 -31.000000,127.000000 -31.000000L95.000000 -31.000000L95.000000 -0.000000L257.000000 -0.000000L130.000000 -3.000000L217.000000 -3.000000L257.000000 -3.000000L297.000000 -3.000000L384.000000 -3.000000L419.000000 -0.000000L419.000000 -31.000000L387.000000 -31.000000C297.000000 -31.000000,294.000000 -42.000000,294.000000 -79.000000"></path>
    </g>
    <g transform="scale(0.009963,0.009963)" id="GLYPHcmr10_50">
      <path style="fill-rule: evenodd;" d="M127.000000 -77.000000L233.000000 -180.000000C389.000000 -318.000000,449.000000 -372.000000,449.000000 -472.000000C449.000000 -586.000000,359.000000 -666.000000,237.000000 -666.000000C124.000000 -666.000000,50.000000 -574.000000,50.000000 -485.000000C50.000000 -429.000000,100.000000 -429.000000,103.000000 -429.000000C120.000000 -429.000000,155.000000 -441.000000,155.000000 -482.000000C155.000000 -508.000000,137.000000 -534.000000,102.000000 -534.000000C94.000000 -534.000000,92.000000 -534.000000,89.000000 -533.000000C112.000000 -598.000000,166.000000 -635.000000,224.000000 -635.000000C315.000000 -635.000000,358.000000 -554.000000,358.000000 -472.000000C358.000000 -392.000000,308.000000 -313.000000,253.000000 -251.000000L61.000000 -37.000000C50.000000 -26.000000,50.000000 -24.000000,50.000000 -0.000000L421.000000 -0.000000L449.000000 -174.000000L424.000000 -174.000000C419.000000 -144.000000,412.000000 -100.000000,402.000000 -85.000000C395.000000 -77.000000,329.000000 -77.000000,307.000000 -77.000000"></path>
    </g>
    <g transform="scale(0.009963,0.009963)" id="GLYPHcmr10_51">
      <path style="fill-rule: evenodd;" d="M290.000000 -352.000000C372.000000 -379.000000,430.000000 -449.000000,430.000000 -528.000000C430.000000 -610.000000,342.000000 -666.000000,246.000000 -666.000000C145.000000 -666.000000,69.000000 -606.000000,69.000000 -530.000000C69.000000 -497.000000,91.000000 -478.000000,120.000000 -478.000000C151.000000 -478.000000,171.000000 -500.000000,171.000000 -529.000000C171.000000 -579.000000,124.000000 -579.000000,109.000000 -579.000000C140.000000 -628.000000,206.000000 -641.000000,242.000000 -641.000000C283.000000 -641.000000,338.000000 -619.000000,338.000000 -529.000000C338.000000 -517.000000,336.000000 -459.000000,310.000000 -415.000000C280.000000 -367.000000,246.000000 -364.000000,221.000000 -363.000000C213.000000 -362.000000,189.000000 -360.000000,182.000000 -360.000000C174.000000 -359.000000,167.000000 -358.000000,167.000000 -348.000000C167.000000 -337.000000,174.000000 -337.000000,191.000000 -337.000000L235.000000 -337.000000C317.000000 -337.000000,354.000000 -269.000000,354.000000 -171.000000C354.000000 -35.000000,285.000000 -6.000000,241.000000 -6.000000C198.000000 -6.000000,123.000000 -23.000000,88.000000 -82.000000C123.000000 -77.000000,154.000000 -99.000000,154.000000 -137.000000C154.000000 -173.000000,127.000000 -193.000000,98.000000 -193.000000C74.000000 -193.000000,42.000000 -179.000000,42.000000 -135.000000C42.000000 -44.000000,135.000000 22.000000,244.000000 22.000000C366.000000 22.000000,457.000000 -69.000000,457.000000 -171.000000C457.000000 -253.000000,394.000000 -331.000000,290.000000 -352.000000"></path>
    </g>
    <g transform="scale(0.009963,0.009963)" id="GLYPHcmr10_52">
      <path style="fill-rule: evenodd;" d="M294.000000 -165.000000L294.000000 -78.000000C294.000000 -42.000000,292.000000 -31.000000,218.000000 -31.000000L197.000000 -31.000000L197.000000 -0.000000L332.000000 -0.000000L238.000000 -3.000000L290.000000 -3.000000L332.000000 -3.000000L374.000000 -3.000000L427.000000 -3.000000L468.000000 -0.000000L468.000000 -31.000000L447.000000 -31.000000C373.000000 -31.000000,371.000000 -42.000000,371.000000 -78.000000L371.000000 -165.000000L471.000000 -165.000000L471.000000 -196.000000L371.000000 -196.000000L371.000000 -651.000000C371.000000 -671.000000,371.000000 -677.000000,355.000000 -677.000000C346.000000 -677.000000,343.000000 -677.000000,335.000000 -665.000000L28.000000 -196.000000L28.000000 -165.000000M300.000000 -196.000000L56.000000 -196.000000L300.000000 -569.000000"></path>
    </g>
    <g transform="scale(0.009963,0.009963)" id="GLYPHcmr10_53">
      <path style="fill-rule: evenodd;" d="M449.000000 -201.000000C449.000000 -320.000000,367.000000 -420.000000,259.000000 -420.000000C211.000000 -420.000000,168.000000 -404.000000,132.000000 -369.000000L132.000000 -564.000000C152.000000 -558.000000,185.000000 -551.000000,217.000000 -551.000000C340.000000 -551.000000,410.000000 -642.000000,410.000000 -655.000000C410.000000 -661.000000,407.000000 -666.000000,400.000000 -666.000000C399.000000 -666.000000,397.000000 -666.000000,392.000000 -663.000000C372.000000 -654.000000,323.000000 -634.000000,256.000000 -634.000000C216.000000 -634.000000,170.000000 -641.000000,123.000000 -662.000000C115.000000 -665.000000,113.000000 -665.000000,111.000000 -665.000000C101.000000 -665.000000,101.000000 -657.000000,101.000000 -641.000000L101.000000 -345.000000C101.000000 -327.000000,101.000000 -319.000000,115.000000 -319.000000C122.000000 -319.000000,124.000000 -322.000000,128.000000 -328.000000C139.000000 -344.000000,176.000000 -398.000000,257.000000 -398.000000C309.000000 -398.000000,334.000000 -352.000000,342.000000 -334.000000C358.000000 -297.000000,360.000000 -258.000000,360.000000 -208.000000C360.000000 -173.000000,360.000000 -113.000000,336.000000 -71.000000C312.000000 -32.000000,275.000000 -6.000000,229.000000 -6.000000C156.000000 -6.000000,99.000000 -59.000000,82.000000 -118.000000C85.000000 -117.000000,88.000000 -116.000000,99.000000 -116.000000C132.000000 -116.000000,149.000000 -141.000000,149.000000 -165.000000C149.000000 -189.000000,132.000000 -214.000000,99.000000 -214.000000C85.000000 -214.000000,50.000000 -207.000000,50.000000 -161.000000C50.000000 -75.000000,119.000000 22.000000,231.000000 22.000000C347.000000 22.000000,449.000000 -74.000000,449.000000 -201.000000"></path>
    </g>
    <g transform="scale(0.009963,0.009963)" id="GLYPHcmr10_54">
      <path style="fill-rule: evenodd;" d="M132.000000 -328.000000L132.000000 -352.000000C132.000000 -605.000000,256.000000 -641.000000,307.000000 -641.000000C331.000000 -641.000000,373.000000 -635.000000,395.000000 -601.000000C380.000000 -601.000000,340.000000 -601.000000,340.000000 -556.000000C340.000000 -525.000000,364.000000 -510.000000,386.000000 -510.000000C402.000000 -510.000000,432.000000 -519.000000,432.000000 -558.000000C432.000000 -618.000000,388.000000 -666.000000,305.000000 -666.000000C177.000000 -666.000000,42.000000 -537.000000,42.000000 -316.000000C42.000000 -49.000000,158.000000 22.000000,251.000000 22.000000C362.000000 22.000000,457.000000 -72.000000,457.000000 -204.000000C457.000000 -331.000000,368.000000 -427.000000,257.000000 -427.000000C189.000000 -427.000000,152.000000 -376.000000,132.000000 -328.000000M251.000000 -6.000000C188.000000 -6.000000,158.000000 -66.000000,152.000000 -81.000000C134.000000 -128.000000,134.000000 -208.000000,134.000000 -226.000000C134.000000 -304.000000,166.000000 -404.000000,256.000000 -404.000000C272.000000 -404.000000,318.000000 -404.000000,349.000000 -342.000000C367.000000 -305.000000,367.000000 -254.000000,367.000000 -205.000000C367.000000 -157.000000,367.000000 -107.000000,350.000000 -71.000000C320.000000 -11.000000,274.000000 -6.000000,251.000000 -6.000000"></path>
    </g>
    <g transform="scale(0.009963,0.009963)" id="GLYPHcmr10_55">
      <path style="fill-rule: evenodd;" d="M476.000000 -609.000000C485.000000 -621.000000,485.000000 -623.000000,485.000000 -644.000000L242.000000 -644.000000C120.000000 -644.000000,118.000000 -657.000000,114.000000 -676.000000L89.000000 -676.000000L56.000000 -470.000000L81.000000 -470.000000C84.000000 -486.000000,93.000000 -549.000000,106.000000 -561.000000C113.000000 -567.000000,191.000000 -567.000000,204.000000 -567.000000L411.000000 -567.000000C400.000000 -551.000000,321.000000 -442.000000,299.000000 -409.000000C209.000000 -274.000000,176.000000 -135.000000,176.000000 -33.000000C176.000000 -23.000000,176.000000 22.000000,222.000000 22.000000C268.000000 22.000000,268.000000 -23.000000,268.000000 -33.000000L268.000000 -84.000000C268.000000 -139.000000,271.000000 -194.000000,279.000000 -248.000000C283.000000 -271.000000,297.000000 -357.000000,341.000000 -419.000000"></path>
    </g>
    <g transform="scale(0.009963,0.009963)" id="GLYPHcmr10_56">
      <path style="fill-rule: evenodd;" d="M163.000000 -457.000000C117.000000 -487.000000,113.000000 -521.000000,113.000000 -538.000000C113.000000 -599.000000,178.000000 -641.000000,249.000000 -641.000000C322.000000 -641.000000,386.000000 -589.000000,386.000000 -517.000000C386.000000 -460.000000,347.000000 -412.000000,287.000000 -377.000000M309.000000 -362.000000C381.000000 -399.000000,430.000000 -451.000000,430.000000 -517.000000C430.000000 -609.000000,341.000000 -666.000000,250.000000 -666.000000C150.000000 -666.000000,69.000000 -592.000000,69.000000 -499.000000C69.000000 -481.000000,71.000000 -436.000000,113.000000 -389.000000C124.000000 -377.000000,161.000000 -352.000000,186.000000 -335.000000C128.000000 -306.000000,42.000000 -250.000000,42.000000 -151.000000C42.000000 -45.000000,144.000000 22.000000,249.000000 22.000000C362.000000 22.000000,457.000000 -61.000000,457.000000 -168.000000C457.000000 -204.000000,446.000000 -249.000000,408.000000 -291.000000C389.000000 -312.000000,373.000000 -322.000000,309.000000 -362.000000M209.000000 -320.000000L332.000000 -242.000000C360.000000 -223.000000,407.000000 -193.000000,407.000000 -132.000000C407.000000 -58.000000,332.000000 -6.000000,250.000000 -6.000000C164.000000 -6.000000,92.000000 -68.000000,92.000000 -151.000000C92.000000 -209.000000,124.000000 -273.000000,209.000000 -320.000000"></path>
    </g>
    <g transform="scale(0.009963,0.009963)" id="GLYPHcmr10_57">
      <path style="fill-rule: evenodd;" d="M367.000000 -318.000000L367.000000 -286.000000C367.000000 -52.000000,263.000000 -6.000000,205.000000 -6.000000C188.000000 -6.000000,134.000000 -8.000000,107.000000 -42.000000C151.000000 -42.000000,159.000000 -71.000000,159.000000 -88.000000C159.000000 -119.000000,135.000000 -134.000000,113.000000 -134.000000C97.000000 -134.000000,67.000000 -125.000000,67.000000 -86.000000C67.000000 -19.000000,121.000000 22.000000,206.000000 22.000000C335.000000 22.000000,457.000000 -114.000000,457.000000 -329.000000C457.000000 -598.000000,342.000000 -666.000000,253.000000 -666.000000C198.000000 -666.000000,149.000000 -648.000000,106.000000 -603.000000C65.000000 -558.000000,42.000000 -516.000000,42.000000 -441.000000C42.000000 -316.000000,130.000000 -218.000000,242.000000 -218.000000C303.000000 -218.000000,344.000000 -260.000000,367.000000 -318.000000M243.000000 -241.000000C227.000000 -241.000000,181.000000 -241.000000,150.000000 -304.000000C132.000000 -341.000000,132.000000 -391.000000,132.000000 -440.000000C132.000000 -494.000000,132.000000 -541.000000,153.000000 -578.000000C180.000000 -628.000000,218.000000 -641.000000,253.000000 -641.000000C299.000000 -641.000000,332.000000 -607.000000,349.000000 -562.000000C361.000000 -530.000000,365.000000 -467.000000,365.000000 -421.000000C365.000000 -338.000000,331.000000 -241.000000,243.000000 -241.000000"></path>
    </g>
  </defs>
  <path d="M90.263306 197.966766C90.263306 197.174072,89.948364 196.413925,89.387878 195.853455C88.827408 195.292969,88.067261 194.978027,87.274567 194.978027C86.481873 194.978027,85.721725 195.292969,85.161255 195.853455C84.600769 196.413925,84.285828 197.174072,84.285828 197.966766C84.285828 198.759460,84.600769 199.519608,85.161255 200.080078C85.721725 200.640564,86.481873 200.955505,87.274567 200.955505C88.067261 200.955505,88.827408 200.640564,89.387878 200.080078C89.948364 199.519608,90.263306 198.759460,90.263306 197.966766Z" style="fill: rgb(100.000000%,100.000000%,100.000000%);stroke: none;"></path>
  <path d="M112.880524 189.945480C112.880524 189.152786,112.565582 188.392639,112.005096 187.832169C111.444626 187.271683,110.684479 186.956741,109.891785 186.956741C109.099091 186.956741,108.338943 187.271683,107.778473 187.832169C107.217987 188.392639,106.903046 189.152786,106.903046 189.945480C106.903046 190.738174,107.217987 191.498322,107.778473 192.058792C108.338943 192.619278,109.099091 192.934219,109.891785 192.934219C110.684479 192.934219,111.444626 192.619278,112.005096 192.058792C112.565582 191.498322,112.880524 190.738174,112.880524 189.945480Z" style="fill: rgb(100.000000%,100.000000%,100.000000%);stroke: none;"></path>
  <path d="M53.497528 149.324936C53.497528 148.532242,53.182587 147.772095,52.622101 147.211624C52.061630 146.651138,51.301483 146.336197,50.508789 146.336197C49.716095 146.336197,48.955948 146.651138,48.395477 147.211624C47.834991 147.772095,47.520050 148.532242,47.520050 149.324936C47.520050 150.117630,47.834991 150.877777,48.395477 151.438248C48.955948 151.998734,49.716095 152.313675,50.508789 152.313675C51.301483 152.313675,52.061630 151.998734,52.622101 151.438248C53.182587 150.877777,53.497528 150.117630,53.497528 149.324936Z" style="fill: rgb(100.000000%,100.000000%,100.000000%);stroke: none;"></path>
  <path d="M65.476608 185.799377C65.476608 185.006683,65.161667 184.246536,64.601181 183.686066C64.040710 183.125580,63.280563 182.810638,62.487869 182.810638C61.695175 182.810638,60.935028 183.125580,60.374557 183.686066C59.814072 184.246536,59.499130 185.006683,59.499130 185.799377C59.499130 186.592072,59.814072 187.352219,60.374557 187.912689C60.935028 188.473175,61.695175 188.788116,62.487869 188.788116C63.280563 188.788116,64.040710 188.473175,64.601181 187.912689C65.161667 187.352219,65.476608 186.592072,65.476608 185.799377Z" style="fill: rgb(100.000000%,100.000000%,100.000000%);stroke: none;"></path>
  <path d="M57.796051 112.908981C57.796051 112.116287,57.481110 111.356140,56.920624 110.795670C56.360153 110.235184,55.600006 109.920242,54.807312 109.920242C54.014618 109.920242,53.254471 110.235184,52.694000 110.795670C52.133514 111.356140,51.818573 112.116287,51.818573 112.908981C51.818573 113.701675,52.133514 114.461823,52.694000 115.022293C53.254471 115.582779,54.014618 115.897720,54.807312 115.897720C55.600006 115.897720,56.360153 115.582779,56.920624 115.022293C57.481110 114.461823,57.796051 113.701675,57.796051 112.908981Z" style="fill: rgb(100.000000%,100.000000%,100.000000%);stroke: none;"></path>
  <path d="M56.851456 134.750122C56.851456 133.957428,56.536514 133.197281,55.976028 132.636810C55.415558 132.076324,54.655411 131.761383,53.862717 131.761383C53.070023 131.761383,52.309875 132.076324,51.749405 132.636810C51.188919 133.197281,50.873978 133.957428,50.873978 134.750122C50.873978 135.542816,51.188919 136.302963,51.749405 136.863434C52.309875 137.423920,53.070023 137.738861,53.862717 137.738861C54.655411 137.738861,55.415558 137.423920,55.976028 136.863434C56.536514 136.302963,56.851456 135.542816,56.851456 134.750122Z" style="fill: rgb(100.000000%,100.000000%,100.000000%);stroke: none;"></path>
  <path d="M58.603027 90.684586C58.603027 89.891891,58.288086 89.131744,57.727600 88.571274C57.167130 88.010788,56.406982 87.695847,55.614288 87.695847C54.821594 87.695847,54.061447 88.010788,53.500977 88.571274C52.940491 89.131744,52.625549 89.891891,52.625549 90.684586C52.625549 91.477280,52.940491 92.237427,53.500977 92.797897C54.061447 93.358383,54.821594 93.673325,55.614288 93.673325C56.406982 93.673325,57.167130 93.358383,57.727600 92.797897C58.288086 92.237427,58.603027 91.477280,58.603027 90.684586Z" style="fill: rgb(100.000000%,100.000000%,100.000000%);stroke: none;"></path>
  <path d="M57.344894 105.357147C57.344894 104.564453,57.029953 103.804306,56.469467 103.243835C55.908997 102.683350,55.148849 102.368408,54.356155 102.368408C53.563461 102.368408,52.803314 102.683350,52.242844 103.243835C51.682358 103.804306,51.367416 104.564453,51.367416 105.357147C51.367416 106.149841,51.682358 106.909988,52.242844 107.470459C52.803314 108.030945,53.563461 108.345886,54.356155 108.345886C55.148849 108.345886,55.908997 108.030945,56.469467 107.470459C57.029953 106.909988,57.344894 106.149841,57.344894 105.357147Z" style="fill: rgb(100.000000%,100.000000%,100.000000%);stroke: none;"></path>
  <path d="M50.258499 66.956100C50.258499 66.163406,49.943558 65.403259,49.383072 64.842789C48.822601 64.282303,48.062454 63.967361,47.269760 63.967361C46.477066 63.967361,45.716919 64.282303,45.156448 64.842789C44.595963 65.403259,44.281021 66.163406,44.281021 66.956100C44.281021 67.748795,44.595963 68.508942,45.156448 69.069412C45.716919 69.629898,46.477066 69.944839,47.269760 69.944839C48.062454 69.944839,48.822601 69.629898,49.383072 69.069412C49.943558 68.508942,50.258499 67.748795,50.258499 66.956100Z" style="fill: rgb(100.000000%,100.000000%,100.000000%);stroke: none;"></path>
  <path d="M60.061310 83.125046C60.061310 82.332352,59.746368 81.572205,59.185883 81.011734C58.625412 80.451248,57.865265 80.136307,57.072571 80.136307C56.279877 80.136307,55.519730 80.451248,54.959259 81.011734C54.398773 81.572205,54.083832 82.332352,54.083832 83.125046C54.083832 83.917740,54.398773 84.677887,54.959259 85.238358C55.519730 85.798843,56.279877 86.113785,57.072571 86.113785C57.865265 86.113785,58.625412 85.798843,59.185883 85.238358C59.746368 84.677887,60.061310 83.917740,60.061310 83.125046Z" style="fill: rgb(100.000000%,100.000000%,100.000000%);stroke: none;"></path>
  <path d="M8.383957 85.378891C8.383957 84.586197,8.069016 83.826050,7.508530 83.265579C6.948059 82.705093,6.187912 82.390152,5.395218 82.390152C4.602524 82.390152,3.842377 82.705093,3.281906 83.265579C2.721420 83.826050,2.406479 84.586197,2.406479 85.378891C2.406479 86.171585,2.721420 86.931732,3.281906 87.492203C3.842377 88.052689,4.602524 88.367630,5.395218 88.367630C6.187912 88.367630,6.948059 88.052689,7.508530 87.492203C8.069016 86.931732,8.383957 86.171585,8.383957 85.378891Z" style="fill: rgb(100.000000%,100.000000%,100.000000%);stroke: none;"></path>
  <path d="M36.220795 66.471390C36.220795 65.678696,35.905853 64.918549,35.345367 64.358078C34.784897 63.797592,34.024750 63.482651,33.232056 63.482651C32.439362 63.482651,31.679214 63.797592,31.118744 64.358078C30.558258 64.918549,30.243317 65.678696,30.243317 66.471390C30.243317 67.264084,30.558258 68.024231,31.118744 68.584702C31.679214 69.145187,32.439362 69.460129,33.232056 69.460129C34.024750 69.460129,34.784897 69.145187,35.345367 68.584702C35.905853 68.024231,36.220795 67.264084,36.220795 66.471390Z" style="fill: rgb(100.000000%,100.000000%,100.000000%);stroke: none;"></path>
  <path d="M20.196823 150.421204C20.196823 149.628510,19.881882 148.868362,19.321396 148.307892C18.760925 147.747406,18.000778 147.432465,17.208084 147.432465C16.415390 147.432465,15.655243 147.747406,15.094772 148.307892C14.534286 148.868362,14.219345 149.628510,14.219345 150.421204C14.219345 151.213898,14.534286 151.974045,15.094772 152.534515C15.655243 153.095001,16.415390 153.409943,17.208084 153.409943C18.000778 153.409943,18.760925 153.095001,19.321396 152.534515C19.881882 151.974045,20.196823 151.213898,20.196823 150.421204Z" style="fill: rgb(100.000000%,100.000000%,100.000000%);stroke: none;"></path>
  <path d="M5.778076 109.050995C5.778076 108.258301,5.463135 107.498154,4.902649 106.937683C4.342178 106.377197,3.582031 106.062256,2.789337 106.062256C1.996643 106.062256,1.236496 106.377197,0.676025 106.937683C0.115540 107.498154,-0.199402 108.258301,-0.199402 109.050995C-0.199402 109.843689,0.115540 110.603836,0.676025 111.164307C1.236496 111.724792,1.996643 112.039734,2.789337 112.039734C3.582031 112.039734,4.342178 111.724792,4.902649 111.164307C5.463135 110.603836,5.778076 109.843689,5.778076 109.050995Z" style="fill: rgb(100.000000%,100.000000%,100.000000%);stroke: none;"></path>
  <path d="M72.903183 160.012848C72.903183 159.220154,72.588242 158.460007,72.027756 157.899536C71.467285 157.339050,70.707138 157.024109,69.914444 157.024109C69.121750 157.024109,68.361603 157.339050,67.801132 157.899536C67.240646 158.460007,66.925705 159.220154,66.925705 160.012848C66.925705 160.805542,67.240646 161.565689,67.801132 162.126160C68.361603 162.686646,69.121750 163.001587,69.914444 163.001587C70.707138 163.001587,71.467285 162.686646,72.027756 162.126160C72.588242 161.565689,72.903183 160.805542,72.903183 160.012848Z" style="fill: rgb(100.000000%,100.000000%,100.000000%);stroke: none;"></path>
  <path d="M37.673126 167.068939C37.673126 166.276245,37.358185 165.516098,36.797699 164.955627C36.237228 164.395142,35.477081 164.080200,34.684387 164.080200C33.891693 164.080200,33.131546 164.395142,32.571075 164.955627C32.010590 165.516098,31.695648 166.276245,31.695648 167.068939C31.695648 167.861633,32.010590 168.621780,32.571075 169.182251C33.131546 169.742737,33.891693 170.057678,34.684387 170.057678C35.477081 170.057678,36.237228 169.742737,36.797699 169.182251C37.358185 168.621780,37.673126 167.861633,37.673126 167.068939Z" style="fill: rgb(100.000000%,100.000000%,100.000000%);stroke: none;"></path>
  <path d="M90.984146 123.218460C90.984146 122.425766,90.669205 121.665619,90.108719 121.105148C89.548248 120.544662,88.788101 120.229721,87.995407 120.229721C87.202713 120.229721,86.442566 120.544662,85.882095 121.105148C85.321609 121.665619,85.006668 122.425766,85.006668 123.218460C85.006668 124.011154,85.321609 124.771301,85.882095 125.331772C86.442566 125.892258,87.202713 126.207199,87.995407 126.207199C88.788101 126.207199,89.548248 125.892258,90.108719 125.331772C90.669205 124.771301,90.984146 124.011154,90.984146 123.218460Z" style="fill: rgb(100.000000%,100.000000%,100.000000%);stroke: none;"></path>
  <path d="M82.196228 146.334518C82.196228 145.541824,81.881287 144.781677,81.320801 144.221207C80.760330 143.660721,80.000183 143.345779,79.207489 143.345779C78.414795 143.345779,77.654648 143.660721,77.094177 144.221207C76.533691 144.781677,76.218750 145.541824,76.218750 146.334518C76.218750 147.127213,76.533691 147.887360,77.094177 148.447830C77.654648 149.008316,78.414795 149.323257,79.207489 149.323257C80.000183 149.323257,80.760330 149.008316,81.320801 148.447830C81.881287 147.887360,82.196228 147.127213,82.196228 146.334518Z" style="fill: rgb(100.000000%,100.000000%,100.000000%);stroke: none;"></path>
  <path d="M98.065933 97.002136C98.065933 96.209442,97.750992 95.449295,97.190506 94.888824C96.630035 94.328339,95.869888 94.013397,95.077194 94.013397C94.284500 94.013397,93.524353 94.328339,92.963882 94.888824C92.403397 95.449295,92.088455 96.209442,92.088455 97.002136C92.088455 97.794830,92.403397 98.554977,92.963882 99.115448C93.524353 99.675934,94.284500 99.990875,95.077194 99.990875C95.869888 99.990875,96.630035 99.675934,97.190506 99.115448C97.750992 98.554977,98.065933 97.794830,98.065933 97.002136Z" style="fill: rgb(100.000000%,100.000000%,100.000000%);stroke: none;"></path>
  <path d="M93.216034 114.185120C93.216034 113.392426,92.901093 112.632278,92.340607 112.071808C91.780136 111.511322,91.019989 111.196381,90.227295 111.196381C89.434601 111.196381,88.674454 111.511322,88.113983 112.071808C87.553497 112.632278,87.238556 113.392426,87.238556 114.185120C87.238556 114.977814,87.553497 115.737961,88.113983 116.298431C88.674454 116.858917,89.434601 117.173859,90.227295 117.173859C91.019989 117.173859,91.780136 116.858917,92.340607 116.298431C92.901093 115.737961,93.216034 114.977814,93.216034 114.185120Z" style="fill: rgb(100.000000%,100.000000%,100.000000%);stroke: none;"></path>
  <path d="M106.125046 73.063446C106.125046 72.270752,105.810104 71.510605,105.249619 70.950134C104.689148 70.389648,103.929001 70.074707,103.136307 70.074707C102.343613 70.074707,101.583466 70.389648,101.022995 70.950134C100.462509 71.510605,100.147568 72.270752,100.147568 73.063446C100.147568 73.856140,100.462509 74.616287,101.022995 75.176758C101.583466 75.737244,102.343613 76.052185,103.136307 76.052185C103.929001 76.052185,104.689148 75.737244,105.249619 75.176758C105.810104 74.616287,106.125046 73.856140,106.125046 73.063446Z" style="fill: rgb(100.000000%,100.000000%,100.000000%);stroke: none;"></path>
  <path d="M100.644165 88.828400C100.644165 88.035706,100.329224 87.275558,99.768738 86.715088C99.208267 86.154602,98.448120 85.839661,97.655426 85.839661C96.862732 85.839661,96.102585 86.154602,95.542114 86.715088C94.981628 87.275558,94.666687 88.035706,94.666687 88.828400C94.666687 89.621094,94.981628 90.381241,95.542114 90.941711C96.102585 91.502197,96.862732 91.817139,97.655426 91.817139C98.448120 91.817139,99.208267 91.502197,99.768738 90.941711C100.329224 90.381241,100.644165 89.621094,100.644165 88.828400Z" style="fill: rgb(100.000000%,100.000000%,100.000000%);stroke: none;"></path>
  <path d="M115.964493 52.826843C115.964493 52.034149,115.649551 51.274002,115.089066 50.713531C114.528595 50.153046,113.768448 49.838104,112.975754 49.838104C112.183060 49.838104,111.422913 50.153046,110.862442 50.713531C110.301956 51.274002,109.987015 52.034149,109.987015 52.826843C109.987015 53.619537,110.301956 54.379684,110.862442 54.940155C111.422913 55.500641,112.183060 55.815582,112.975754 55.815582C113.768448 55.815582,114.528595 55.500641,115.089066 54.940155C115.649551 54.379684,115.964493 53.619537,115.964493 52.826843Z" style="fill: rgb(100.000000%,100.000000%,100.000000%);stroke: none;"></path>
  <path d="M109.011353 65.447891C109.011353 64.655197,108.696411 63.895050,108.135925 63.334579C107.575455 62.774094,106.815308 62.459152,106.022614 62.459152C105.229919 62.459152,104.469772 62.774094,103.909302 63.334579C103.348816 63.895050,103.033875 64.655197,103.033875 65.447891C103.033875 66.240585,103.348816 67.000732,103.909302 67.561203C104.469772 68.121689,105.229919 68.436630,106.022614 68.436630C106.815308 68.436630,107.575455 68.121689,108.135925 67.561203C108.696411 67.000732,109.011353 66.240585,109.011353 65.447891Z" style="fill: rgb(100.000000%,100.000000%,100.000000%);stroke: none;"></path>
  <path d="M123.528976 29.381805C123.528976 28.589111,123.214035 27.828964,122.653549 27.268494C122.093079 26.708008,121.332932 26.393066,120.540237 26.393066C119.747543 26.393066,118.987396 26.708008,118.426926 27.268494C117.866440 27.828964,117.551498 28.589111,117.551498 29.381805C117.551498 30.174500,117.866440 30.934647,118.426926 31.495117C118.987396 32.055603,119.747543 32.370544,120.540237 32.370544C121.332932 32.370544,122.093079 32.055603,122.653549 31.495117C123.214035 30.934647,123.528976 30.174500,123.528976 29.381805Z" style="fill: rgb(100.000000%,100.000000%,100.000000%);stroke: none;"></path>
  <path d="M119.636368 47.552872C119.636368 46.760178,119.321426 46.000031,118.760941 45.439560C118.200470 44.879074,117.440323 44.564133,116.647629 44.564133C115.854935 44.564133,115.094788 44.879074,114.534317 45.439560C113.973831 46.000031,113.658890 46.760178,113.658890 47.552872C113.658890 48.345566,113.973831 49.105713,114.534317 49.666183C115.094788 50.226669,115.854935 50.541611,116.647629 50.541611C117.440323 50.541611,118.200470 50.226669,118.760941 49.666183C119.321426 49.105713,119.636368 48.345566,119.636368 47.552872Z" style="fill: rgb(100.000000%,100.000000%,100.000000%);stroke: none;"></path>
  <path d="M89.645370 2.263550C89.645370 1.470856,89.330429 0.710709,88.769943 0.150238C88.209473 -0.410248,87.449326 -0.725189,86.656631 -0.725189C85.863937 -0.725189,85.103790 -0.410248,84.543320 0.150238C83.982834 0.710709,83.667892 1.470856,83.667892 2.263550C83.667892 3.056244,83.982834 3.816391,84.543320 4.376862C85.103790 4.937347,85.863937 5.252289,86.656631 5.252289C87.449326 5.252289,88.209473 4.937347,88.769943 4.376862C89.330429 3.816391,89.645370 3.056244,89.645370 2.263550Z" style="fill: rgb(100.000000%,100.000000%,100.000000%);stroke: none;"></path>
  <path d="M117.204727 17.379150C117.204727 16.586456,116.889786 15.826309,116.329300 15.265839C115.768829 14.705353,115.008682 14.390411,114.215988 14.390411C113.423294 14.390411,112.663147 14.705353,112.102676 15.265839C111.542191 15.826309,111.227249 16.586456,111.227249 17.379150C111.227249 18.171844,111.542191 18.931992,112.102676 19.492462C112.663147 20.052948,113.423294 20.367889,114.215988 20.367889C115.008682 20.367889,115.768829 20.052948,116.329300 19.492462C116.889786 18.931992,117.204727 18.171844,117.204727 17.379150Z" style="fill: rgb(100.000000%,100.000000%,100.000000%);stroke: none;"></path>
  <path d="M37.032730 33.860153C37.032730 33.067459,36.717789 32.307312,36.157303 31.746841C35.596832 31.186356,34.836685 30.871414,34.043991 30.871414C33.251297 30.871414,32.491150 31.186356,31.930679 31.746841C31.370193 32.307312,31.055252 33.067459,31.055252 33.860153C31.055252 34.652847,31.370193 35.412994,31.930679 35.973465C32.491150 36.533951,33.251297 36.848892,34.043991 36.848892C34.836685 36.848892,35.596832 36.533951,36.157303 35.973465C36.717789 35.412994,37.032730 34.652847,37.032730 33.860153Z" style="fill: rgb(100.000000%,100.000000%,100.000000%);stroke: none;"></path>
  <path d="M69.716751 9.219238C69.716751 8.426544,69.401810 7.666397,68.841324 7.105927C68.280853 6.545441,67.520706 6.230499,66.728012 6.230499C65.935318 6.230499,65.175171 6.545441,64.614700 7.105927C64.054214 7.666397,63.739273 8.426544,63.739273 9.219238C63.739273 10.011932,64.054214 10.772079,64.614700 11.332550C65.175171 11.893036,65.935318 12.207977,66.728012 12.207977C67.520706 12.207977,68.280853 11.893036,68.841324 11.332550C69.401810 10.772079,69.716751 10.011932,69.716751 9.219238Z" style="fill: rgb(100.000000%,100.000000%,100.000000%);stroke: none;"></path>
  <path d="M26.805969 84.803818C26.805969 84.011124,26.491028 83.250977,25.930542 82.690506C25.370071 82.130020,24.609924 81.815079,23.817230 81.815079C23.024536 81.815079,22.264389 82.130020,21.703918 82.690506C21.143433 83.250977,20.828491 84.011124,20.828491 84.803818C20.828491 85.596512,21.143433 86.356659,21.703918 86.917130C22.264389 87.477615,23.024536 87.792557,23.817230 87.792557C24.609924 87.792557,25.370071 87.477615,25.930542 86.917130C26.491028 86.356659,26.805969 85.596512,26.805969 84.803818Z" style="fill: rgb(100.000000%,100.000000%,100.000000%);stroke: none;"></path>
  <path d="M23.908096 52.491592C23.908096 51.698898,23.593155 50.938751,23.032669 50.378281C22.472198 49.817795,21.712051 49.502853,20.919357 49.502853C20.126663 49.502853,19.366516 49.817795,18.806046 50.378281C18.245560 50.938751,17.930618 51.698898,17.930618 52.491592C17.930618 53.284286,18.245560 54.044434,18.806046 54.604904C19.366516 55.165390,20.126663 55.480331,20.919357 55.480331C21.712051 55.480331,22.472198 55.165390,23.032669 54.604904C23.593155 54.044434,23.908096 53.284286,23.908096 52.491592Z" style="fill: rgb(100.000000%,100.000000%,100.000000%);stroke: none;"></path>
  <path d="M48.266693 99.412735C48.266693 98.620041,47.951752 97.859894,47.391266 97.299423C46.830795 96.738937,46.070648 96.423996,45.277954 96.423996C44.485260 96.423996,43.725113 96.738937,43.164642 97.299423C42.604156 97.859894,42.289215 98.620041,42.289215 99.412735C42.289215 100.205429,42.604156 100.965576,43.164642 101.526047C43.725113 102.086533,44.485260 102.401474,45.277954 102.401474C46.070648 102.401474,46.830795 102.086533,47.391266 101.526047C47.951752 100.965576,48.266693 100.205429,48.266693 99.412735Z" style="fill: rgb(100.000000%,100.000000%,100.000000%);stroke: none;"></path>
  <path d="M32.871994 95.446411C32.871994 94.653717,32.557053 93.893570,31.996567 93.333099C31.436096 92.772614,30.675949 92.457672,29.883255 92.457672C29.090561 92.457672,28.330414 92.772614,27.769943 93.333099C27.209457 93.893570,26.894516 94.653717,26.894516 95.446411C26.894516 96.239105,27.209457 96.999252,27.769943 97.559723C28.330414 98.120209,29.090561 98.435150,29.883255 98.435150C30.675949 98.435150,31.436096 98.120209,31.996567 97.559723C32.557053 96.999252,32.871994 96.239105,32.871994 95.446411Z" style="fill: rgb(100.000000%,100.000000%,100.000000%);stroke: none;"></path>
  <path d="M64.274704 96.773422C64.274704 95.980728,63.959763 95.220581,63.399277 94.660110C62.838806 94.099625,62.078659 93.784683,61.285965 93.784683C60.493271 93.784683,59.733124 94.099625,59.172653 94.660110C58.612167 95.220581,58.297226 95.980728,58.297226 96.773422C58.297226 97.566116,58.612167 98.326263,59.172653 98.886734C59.733124 99.447220,60.493271 99.762161,61.285965 99.762161C62.078659 99.762161,62.838806 99.447220,63.399277 98.886734C63.959763 98.326263,64.274704 97.566116,64.274704 96.773422Z" style="fill: rgb(100.000000%,100.000000%,100.000000%);stroke: none;"></path>
  <path d="M53.186356 98.669815C53.186356 97.877121,52.871414 97.116974,52.310928 96.556503C51.750458 95.996017,50.990311 95.681076,50.197617 95.681076C49.404922 95.681076,48.644775 95.996017,48.084305 96.556503C47.523819 97.116974,47.208878 97.877121,47.208878 98.669815C47.208878 99.462509,47.523819 100.222656,48.084305 100.783127C48.644775 101.343613,49.404922 101.658554,50.197617 101.658554C50.990311 101.658554,51.750458 101.343613,52.310928 100.783127C52.871414 100.222656,53.186356 99.462509,53.186356 98.669815Z" style="fill: rgb(100.000000%,100.000000%,100.000000%);stroke: none;"></path>
  <path d="M83.755325 98.045670C83.755325 97.252975,83.440384 96.492828,82.879898 95.932358C82.319427 95.371872,81.559280 95.056931,80.766586 95.056931C79.973892 95.056931,79.213745 95.371872,78.653275 95.932358C78.092789 96.492828,77.777847 97.252975,77.777847 98.045670C77.777847 98.838364,78.092789 99.598511,78.653275 100.158981C79.213745 100.719467,79.973892 101.034409,80.766586 101.034409C81.559280 101.034409,82.319427 100.719467,82.879898 100.158981C83.440384 99.598511,83.755325 98.838364,83.755325 98.045670Z" style="fill: rgb(100.000000%,100.000000%,100.000000%);stroke: none;"></path>
  <path d="M70.657639 95.578461C70.657639 94.785767,70.342697 94.025620,69.782211 93.465149C69.221741 92.904663,68.461594 92.589722,67.668900 92.589722C66.876205 92.589722,66.116058 92.904663,65.555588 93.465149C64.995102 94.025620,64.680161 94.785767,64.680161 95.578461C64.680161 96.371155,64.995102 97.131302,65.555588 97.691772C66.116058 98.252258,66.876205 98.567200,67.668900 98.567200C68.461594 98.567200,69.221741 98.252258,69.782211 97.691772C70.342697 97.131302,70.657639 96.371155,70.657639 95.578461Z" style="fill: rgb(100.000000%,100.000000%,100.000000%);stroke: none;"></path>
  <path d="M101.619614 108.403168C101.619614 107.610474,101.304672 106.850327,100.744186 106.289856C100.183716 105.729370,99.423569 105.414429,98.630875 105.414429C97.838181 105.414429,97.078033 105.729370,96.517563 106.289856C95.957077 106.850327,95.642136 107.610474,95.642136 108.403168C95.642136 109.195862,95.957077 109.956009,96.517563 110.516479C97.078033 111.076965,97.838181 111.391907,98.630875 111.391907C99.423569 111.391907,100.183716 111.076965,100.744186 110.516479C101.304672 109.956009,101.619614 109.195862,101.619614 108.403168Z" style="fill: rgb(100.000000%,100.000000%,100.000000%);stroke: none;"></path>
  <path d="M89.640289 101.978180C89.640289 101.185486,89.325348 100.425339,88.764862 99.864868C88.204391 99.304382,87.444244 98.989441,86.651550 98.989441C85.858856 98.989441,85.098709 99.304382,84.538239 99.864868C83.977753 100.425339,83.662811 101.185486,83.662811 101.978180C83.662811 102.770874,83.977753 103.531021,84.538239 104.091492C85.098709 104.651978,85.858856 104.966919,86.651550 104.966919C87.444244 104.966919,88.204391 104.651978,88.764862 104.091492C89.325348 103.531021,89.640289 102.770874,89.640289 101.978180Z" style="fill: rgb(100.000000%,100.000000%,100.000000%);stroke: none;"></path>
  <path d="M119.462067 114.409058C119.462067 113.616364,119.147125 112.856216,118.586639 112.295746C118.026169 111.735260,117.266022 111.420319,116.473328 111.420319C115.680634 111.420319,114.920486 111.735260,114.360016 112.295746C113.799530 112.856216,113.484589 113.616364,113.484589 114.409058C113.484589 115.201752,113.799530 115.961899,114.360016 116.522369C114.920486 117.082855,115.680634 117.397797,116.473328 117.397797C117.266022 117.397797,118.026169 117.082855,118.586639 116.522369C119.147125 115.961899,119.462067 115.201752,119.462067 114.409058Z" style="fill: rgb(100.000000%,100.000000%,100.000000%);stroke: none;"></path>
  <path d="M107.798141 110.972900C107.798141 110.180206,107.483200 109.420059,106.922714 108.859589C106.362244 108.299103,105.602097 107.984161,104.809402 107.984161C104.016708 107.984161,103.256561 108.299103,102.696091 108.859589C102.135605 109.420059,101.820663 110.180206,101.820663 110.972900C101.820663 111.765594,102.135605 112.525742,102.696091 113.086212C103.256561 113.646698,104.016708 113.961639,104.809402 113.961639C105.602097 113.961639,106.362244 113.646698,106.922714 113.086212C107.483200 112.525742,107.798141 111.765594,107.798141 110.972900Z" style="fill: rgb(100.000000%,100.000000%,100.000000%);stroke: none;"></path>
  <path d="M132.473068 117.304657C132.473068 116.511963,132.158127 115.751816,131.597641 115.191345C131.037170 114.630859,130.277023 114.315918,129.484329 114.315918C128.691635 114.315918,127.931488 114.630859,127.371017 115.191345C126.810532 115.751816,126.495590 116.511963,126.495590 117.304657C126.495590 118.097351,126.810532 118.857498,127.371017 119.417969C127.931488 119.978455,128.691635 120.293396,129.484329 120.293396C130.277023 120.293396,131.037170 119.978455,131.597641 119.417969C132.158127 118.857498,132.473068 118.097351,132.473068 117.304657Z" style="fill: rgb(100.000000%,100.000000%,100.000000%);stroke: none;"></path>
  <path d="M124.846359 115.488388C124.846359 114.695694,124.531418 113.935547,123.970932 113.375076C123.410461 112.814590,122.650314 112.499649,121.857620 112.499649C121.064926 112.499649,120.304779 112.814590,119.744308 113.375076C119.183823 113.935547,118.868881 114.695694,118.868881 115.488388C118.868881 116.281082,119.183823 117.041229,119.744308 117.601700C120.304779 118.162186,121.064926 118.477127,121.857620 118.477127C122.650314 118.477127,123.410461 118.162186,123.970932 117.601700C124.531418 117.041229,124.846359 116.281082,124.846359 115.488388Z" style="fill: rgb(100.000000%,100.000000%,100.000000%);stroke: none;"></path>
  <path d="M139.087952 115.231110C139.087952 114.438416,138.773010 113.678268,138.212524 113.117798C137.652054 112.557312,136.891907 112.242371,136.099213 112.242371C135.306519 112.242371,134.546371 112.557312,133.985901 113.117798C133.425415 113.678268,133.110474 114.438416,133.110474 115.231110C133.110474 116.023804,133.425415 116.783951,133.985901 117.344421C134.546371 117.904907,135.306519 118.219849,136.099213 118.219849C136.891907 118.219849,137.652054 117.904907,138.212524 117.344421C138.773010 116.783951,139.087952 116.023804,139.087952 115.231110Z" style="fill: rgb(100.000000%,100.000000%,100.000000%);stroke: none;"></path>
  <path d="M134.939728 117.831055C134.939728 117.038361,134.624786 116.278214,134.064301 115.717743C133.503830 115.157257,132.743683 114.842316,131.950989 114.842316C131.158295 114.842316,130.398148 115.157257,129.837677 115.717743C129.277191 116.278214,128.962250 117.038361,128.962250 117.831055C128.962250 118.623749,129.277191 119.383896,129.837677 119.944366C130.398148 120.504852,131.158295 120.819794,131.950989 120.819794C132.743683 120.819794,133.503830 120.504852,134.064301 119.944366C134.624786 119.383896,134.939728 118.623749,134.939728 117.831055Z" style="fill: rgb(100.000000%,100.000000%,100.000000%);stroke: none;"></path>
  <path d="M141.229752 105.655441C141.229752 104.862747,140.914810 104.102600,140.354324 103.542130C139.793854 102.981644,139.033707 102.666702,138.241013 102.666702C137.448318 102.666702,136.688171 102.981644,136.127701 103.542130C135.567215 104.102600,135.252274 104.862747,135.252274 105.655441C135.252274 106.448135,135.567215 107.208282,136.127701 107.768753C136.688171 108.329239,137.448318 108.644180,138.241013 108.644180C139.033707 108.644180,139.793854 108.329239,140.354324 107.768753C140.914810 107.208282,141.229752 106.448135,141.229752 105.655441Z" style="fill: rgb(100.000000%,100.000000%,100.000000%);stroke: none;"></path>
  <path d="M139.583664 112.506927C139.583664 111.714233,139.268723 110.954086,138.708237 110.393616C138.147766 109.833130,137.387619 109.518188,136.594925 109.518188C135.802231 109.518188,135.042084 109.833130,134.481613 110.393616C133.921127 110.954086,133.606186 111.714233,133.606186 112.506927C133.606186 113.299622,133.921127 114.059769,134.481613 114.620239C135.042084 115.180725,135.802231 115.495667,136.594925 115.495667C137.387619 115.495667,138.147766 115.180725,138.708237 114.620239C139.268723 114.059769,139.583664 113.299622,139.583664 112.506927Z" style="fill: rgb(100.000000%,100.000000%,100.000000%);stroke: none;"></path>
  <path d="M145.193832 92.790009C145.193832 91.997314,144.878891 91.237167,144.318405 90.676697C143.757935 90.116211,142.997787 89.801270,142.205093 89.801270C141.412399 89.801270,140.652252 90.116211,140.091782 90.676697C139.531296 91.237167,139.216354 91.997314,139.216354 92.790009C139.216354 93.582703,139.531296 94.342850,140.091782 94.903320C140.652252 95.463806,141.412399 95.778748,142.205093 95.778748C142.997787 95.778748,143.757935 95.463806,144.318405 94.903320C144.878891 94.342850,145.193832 93.582703,145.193832 92.790009Z" style="fill: rgb(100.000000%,100.000000%,100.000000%);stroke: none;"></path>
  <path d="M143.087982 101.521301C143.087982 100.728607,142.773041 99.968460,142.212555 99.407990C141.652084 98.847504,140.891937 98.532562,140.099243 98.532562C139.306549 98.532562,138.546402 98.847504,137.985931 99.407990C137.425446 99.968460,137.110504 100.728607,137.110504 101.521301C137.110504 102.313995,137.425446 103.074142,137.985931 103.634613C138.546402 104.195099,139.306549 104.510040,140.099243 104.510040C140.891937 104.510040,141.652084 104.195099,142.212555 103.634613C142.773041 103.074142,143.087982 102.313995,143.087982 101.521301Z" style="fill: rgb(100.000000%,100.000000%,100.000000%);stroke: none;"></path>
  <path d="M146.812866 81.504150C146.812866 80.711456,146.497925 79.951309,145.937439 79.390839C145.376968 78.830353,144.616821 78.515411,143.824127 78.515411C143.031433 78.515411,142.271286 78.830353,141.710815 79.390839C141.150330 79.951309,140.835388 80.711456,140.835388 81.504150C140.835388 82.296844,141.150330 83.056992,141.710815 83.617462C142.271286 84.177948,143.031433 84.492889,143.824127 84.492889C144.616821 84.492889,145.376968 84.177948,145.937439 83.617462C146.497925 83.056992,146.812866 82.296844,146.812866 81.504150Z" style="fill: rgb(100.000000%,100.000000%,100.000000%);stroke: none;"></path>
  <path d="M145.423935 88.275925C145.423935 87.483231,145.108994 86.723083,144.548508 86.162613C143.988037 85.602127,143.227890 85.287186,142.435196 85.287186C141.642502 85.287186,140.882355 85.602127,140.321884 86.162613C139.761398 86.723083,139.446457 87.483231,139.446457 88.275925C139.446457 89.068619,139.761398 89.828766,140.321884 90.389236C140.882355 90.949722,141.642502 91.264664,142.435196 91.264664C143.227890 91.264664,143.988037 90.949722,144.548508 90.389236C145.108994 89.828766,145.423935 89.068619,145.423935 88.275925Z" style="fill: rgb(100.000000%,100.000000%,100.000000%);stroke: none;"></path>
  <path d="M145.396545 74.825439C145.396545 74.032745,145.081604 73.272598,144.521118 72.712128C143.960648 72.151642,143.200500 71.836700,142.407806 71.836700C141.615112 71.836700,140.854965 72.151642,140.294495 72.712128C139.734009 73.272598,139.419067 74.032745,139.419067 74.825439C139.419067 75.618134,139.734009 76.378281,140.294495 76.938751C140.854965 77.499237,141.615112 77.814178,142.407806 77.814178C143.200500 77.814178,143.960648 77.499237,144.521118 76.938751C145.081604 76.378281,145.396545 75.618134,145.396545 74.825439Z" style="fill: rgb(100.000000%,100.000000%,100.000000%);stroke: none;"></path>
  <path d="M147.461609 79.005203C147.461609 78.212509,147.146667 77.452362,146.586182 76.891891C146.025711 76.331406,145.265564 76.016464,144.472870 76.016464C143.680176 76.016464,142.920029 76.331406,142.359558 76.891891C141.799072 77.452362,141.484131 78.212509,141.484131 79.005203C141.484131 79.797897,141.799072 80.558044,142.359558 81.118515C142.920029 81.679001,143.680176 81.993942,144.472870 81.993942C145.265564 81.993942,146.025711 81.679001,146.586182 81.118515C147.146667 80.558044,147.461609 79.797897,147.461609 79.005203Z" style="fill: rgb(100.000000%,100.000000%,100.000000%);stroke: none;"></path>
  <path d="M136.839310 70.877808C136.839310 70.085114,136.524368 69.324966,135.963882 68.764496C135.403412 68.204010,134.643265 67.889069,133.850571 67.889069C133.057877 67.889069,132.297729 68.204010,131.737259 68.764496C131.176773 69.324966,130.861832 70.085114,130.861832 70.877808C130.861832 71.670502,131.176773 72.430649,131.737259 72.991119C132.297729 73.551605,133.057877 73.866547,133.850571 73.866547C134.643265 73.866547,135.403412 73.551605,135.963882 72.991119C136.524368 72.430649,136.839310 71.670502,136.839310 70.877808Z" style="fill: rgb(100.000000%,100.000000%,100.000000%);stroke: none;"></path>
  <path d="M143.283188 73.793808C143.283188 73.001114,142.968246 72.240967,142.407761 71.680496C141.847290 71.120010,141.087143 70.805069,140.294449 70.805069C139.501755 70.805069,138.741608 71.120010,138.181137 71.680496C137.620651 72.240967,137.305710 73.001114,137.305710 73.793808C137.305710 74.586502,137.620651 75.346649,138.181137 75.907120C138.741608 76.467606,139.501755 76.782547,140.294449 76.782547C141.087143 76.782547,141.847290 76.467606,142.407761 75.907120C142.968246 75.346649,143.283188 74.586502,143.283188 73.793808Z" style="fill: rgb(100.000000%,100.000000%,100.000000%);stroke: none;"></path>
  <path d="M122.961655 64.073318C122.961655 63.280624,122.646713 62.520477,122.086227 61.960007C121.525757 61.399521,120.765610 61.084579,119.972916 61.084579C119.180222 61.084579,118.420074 61.399521,117.859604 61.960007C117.299118 62.520477,116.984177 63.280624,116.984177 64.073318C116.984177 64.866013,117.299118 65.626160,117.859604 66.186630C118.420074 66.747116,119.180222 67.062057,119.972916 67.062057C120.765610 67.062057,121.525757 66.747116,122.086227 66.186630C122.646713 65.626160,122.961655 64.866013,122.961655 64.073318Z" style="fill: rgb(100.000000%,100.000000%,100.000000%);stroke: none;"></path>
  <path d="M132.398926 68.942581C132.398926 68.149887,132.083984 67.389740,131.523499 66.829269C130.963028 66.268784,130.202881 65.953842,129.410187 65.953842C128.617493 65.953842,127.857346 66.268784,127.296875 66.829269C126.736389 67.389740,126.421448 68.149887,126.421448 68.942581C126.421448 69.735275,126.736389 70.495422,127.296875 71.055893C127.857346 71.616379,128.617493 71.931320,129.410187 71.931320C130.202881 71.931320,130.963028 71.616379,131.523499 71.055893C132.083984 70.495422,132.398926 69.735275,132.398926 68.942581Z" style="fill: rgb(100.000000%,100.000000%,100.000000%);stroke: none;"></path>
  <path d="M107.055542 55.231461C107.055542 54.438766,106.740601 53.678619,106.180115 53.118149C105.619644 52.557663,104.859497 52.242722,104.066803 52.242722C103.274109 52.242722,102.513962 52.557663,101.953491 53.118149C101.393005 53.678619,101.078064 54.438766,101.078064 55.231461C101.078064 56.024155,101.393005 56.784302,101.953491 57.344772C102.513962 57.905258,103.274109 58.220200,104.066803 58.220200C104.859497 58.220200,105.619644 57.905258,106.180115 57.344772C106.740601 56.784302,107.055542 56.024155,107.055542 55.231461Z" style="fill: rgb(100.000000%,100.000000%,100.000000%);stroke: none;"></path>
  <path d="M118.042053 61.028015C118.042053 60.235321,117.727112 59.475174,117.166626 58.914703C116.606155 58.354218,115.846008 58.039276,115.053314 58.039276C114.260620 58.039276,113.500473 58.354218,112.940002 58.914703C112.379517 59.475174,112.064575 60.235321,112.064575 61.028015C112.064575 61.820709,112.379517 62.580856,112.940002 63.141327C113.500473 63.701813,114.260620 64.016754,115.053314 64.016754C115.846008 64.016754,116.606155 63.701813,117.166626 63.141327C117.727112 62.580856,118.042053 61.820709,118.042053 61.028015Z" style="fill: rgb(100.000000%,100.000000%,100.000000%);stroke: none;"></path>
  <path d="M88.752121 35.484985C88.752121 34.692291,88.437180 33.932144,87.876694 33.371674C87.316223 32.811188,86.556076 32.496246,85.763382 32.496246C84.970688 32.496246,84.210541 32.811188,83.650070 33.371674C83.089584 33.932144,82.774643 34.692291,82.774643 35.484985C82.774643 36.277679,83.089584 37.037827,83.650070 37.598297C84.210541 38.158783,84.970688 38.473724,85.763382 38.473724C86.556076 38.473724,87.316223 38.158783,87.876694 37.598297C88.437180 37.037827,88.752121 36.277679,88.752121 35.484985Z" style="fill: rgb(100.000000%,100.000000%,100.000000%);stroke: none;"></path>
  <path d="M100.753296 52.427429C100.753296 51.634735,100.438354 50.874588,99.877869 50.314117C99.317398 49.753632,98.557251 49.438690,97.764557 49.438690C96.971863 49.438690,96.211716 49.753632,95.651245 50.314117C95.090759 50.874588,94.775818 51.634735,94.775818 52.427429C94.775818 53.220123,95.090759 53.980270,95.651245 54.540741C96.211716 55.101227,96.971863 55.416168,97.764557 55.416168C98.557251 55.416168,99.317398 55.101227,99.877869 54.540741C100.438354 53.980270,100.753296 53.220123,100.753296 52.427429Z" style="fill: rgb(100.000000%,100.000000%,100.000000%);stroke: none;"></path>
  <path d="M120.474945 2.049652C120.474945 1.256958,120.160004 0.496811,119.599518 -0.063660C119.039047 -0.624146,118.278900 -0.939087,117.486206 -0.939087C116.693512 -0.939087,115.933365 -0.624146,115.372894 -0.063660C114.812408 0.496811,114.497467 1.256958,114.497467 2.049652C114.497467 2.842346,114.812408 3.602493,115.372894 4.162964C115.933365 4.723450,116.693512 5.038391,117.486206 5.038391C118.278900 5.038391,119.039047 4.723450,119.599518 4.162964C120.160004 3.602493,120.474945 2.842346,120.474945 2.049652Z" style="fill: rgb(100.000000%,100.000000%,100.000000%);stroke: none;"></path>
  <path d="M93.947510 19.627228C93.947510 18.834534,93.632568 18.074387,93.072083 17.513916C92.511612 16.953430,91.751465 16.638489,90.958771 16.638489C90.166077 16.638489,89.405930 16.953430,88.845459 17.513916C88.284973 18.074387,87.970032 18.834534,87.970032 19.627228C87.970032 20.419922,88.284973 21.180069,88.845459 21.740540C89.405930 22.301025,90.166077 22.615967,90.958771 22.615967C91.751465 22.615967,92.511612 22.301025,93.072083 21.740540C93.632568 21.180069,93.947510 20.419922,93.947510 19.627228Z" style="fill: rgb(100.000000%,100.000000%,100.000000%);stroke: none;"></path>
  <path d="M169.041397 23.593628C169.041397 22.800934,168.726456 22.040787,168.165970 21.480316C167.605499 20.919830,166.845352 20.604889,166.052658 20.604889C165.259964 20.604889,164.499817 20.919830,163.939346 21.480316C163.378860 22.040787,163.063919 22.800934,163.063919 23.593628C163.063919 24.386322,163.378860 25.146469,163.939346 25.706940C164.499817 26.267426,165.259964 26.582367,166.052658 26.582367C166.845352 26.582367,167.605499 26.267426,168.165970 25.706940C168.726456 25.146469,169.041397 24.386322,169.041397 23.593628Z" style="fill: rgb(100.000000%,100.000000%,100.000000%);stroke: none;"></path>
  <path d="M138.858719 4.290726C138.858719 3.498032,138.543777 2.737885,137.983292 2.177414C137.422821 1.616928,136.662674 1.301987,135.869980 1.301987C135.077286 1.301987,134.317139 1.616928,133.756668 2.177414C133.196182 2.737885,132.881241 3.498032,132.881241 4.290726C132.881241 5.083420,133.196182 5.843567,133.756668 6.404037C134.317139 6.964523,135.077286 7.279465,135.869980 7.279465C136.662674 7.279465,137.422821 6.964523,137.983292 6.404037C138.543777 5.843567,138.858719 5.083420,138.858719 4.290726Z" style="fill: rgb(100.000000%,100.000000%,100.000000%);stroke: none;"></path>
  <path d="M175.639175 70.035416C175.639175 69.242722,175.324234 68.482574,174.763748 67.922104C174.203278 67.361618,173.443130 67.046677,172.650436 67.046677C171.857742 67.046677,171.097595 67.361618,170.537125 67.922104C169.976639 68.482574,169.661697 69.242722,169.661697 70.035416C169.661697 70.828110,169.976639 71.588257,170.537125 72.148727C171.097595 72.709213,171.857742 73.024155,172.650436 73.024155C173.443130 73.024155,174.203278 72.709213,174.763748 72.148727C175.324234 71.588257,175.639175 70.828110,175.639175 70.035416Z" style="fill: rgb(100.000000%,100.000000%,100.000000%);stroke: none;"></path>
  <path d="M179.116425 40.870667C179.116425 40.077972,178.801483 39.317825,178.240997 38.757355C177.680527 38.196869,176.920380 37.881927,176.127686 37.881927C175.334991 37.881927,174.574844 38.196869,174.014374 38.757355C173.453888 39.317825,173.138947 40.077972,173.138947 40.870667C173.138947 41.663361,173.453888 42.423508,174.014374 42.983978C174.574844 43.544464,175.334991 43.859406,176.127686 43.859406C176.920380 43.859406,177.680527 43.544464,178.240997 42.983978C178.801483 42.423508,179.116425 41.663361,179.116425 40.870667Z" style="fill: rgb(100.000000%,100.000000%,100.000000%);stroke: none;"></path>
  <path d="M155.044846 84.052826C155.044846 83.260132,154.729904 82.499985,154.169418 81.939514C153.608948 81.379028,152.848801 81.064087,152.056107 81.064087C151.263412 81.064087,150.503265 81.379028,149.942795 81.939514C149.382309 82.499985,149.067368 83.260132,149.067368 84.052826C149.067368 84.845520,149.382309 85.605667,149.942795 86.166138C150.503265 86.726624,151.263412 87.041565,152.056107 87.041565C152.848801 87.041565,153.608948 86.726624,154.169418 86.166138C154.729904 85.605667,155.044846 84.845520,155.044846 84.052826Z" style="fill: rgb(100.000000%,100.000000%,100.000000%);stroke: none;"></path>
  <path d="M169.535965 80.097092C169.535965 79.304398,169.221024 78.544250,168.660538 77.983780C168.100067 77.423294,167.339920 77.108353,166.547226 77.108353C165.754532 77.108353,164.994385 77.423294,164.433914 77.983780C163.873428 78.544250,163.558487 79.304398,163.558487 80.097092C163.558487 80.889786,163.873428 81.649933,164.433914 82.210403C164.994385 82.770889,165.754532 83.085831,166.547226 83.085831C167.339920 83.085831,168.100067 82.770889,168.660538 82.210403C169.221024 81.649933,169.535965 80.889786,169.535965 80.097092Z" style="fill: rgb(100.000000%,100.000000%,100.000000%);stroke: none;"></path>
  <path d="M143.485931 84.003281C143.485931 83.210587,143.170990 82.450439,142.610504 81.889969C142.050034 81.329483,141.289886 81.014542,140.497192 81.014542C139.704498 81.014542,138.944351 81.329483,138.383881 81.889969C137.823395 82.450439,137.508453 83.210587,137.508453 84.003281C137.508453 84.795975,137.823395 85.556122,138.383881 86.116592C138.944351 86.677078,139.704498 86.992020,140.497192 86.992020C141.289886 86.992020,142.050034 86.677078,142.610504 86.116592C143.170990 85.556122,143.485931 84.795975,143.485931 84.003281Z" style="fill: rgb(100.000000%,100.000000%,100.000000%);stroke: none;"></path>
  <path d="M150.651093 83.692993C150.651093 82.900299,150.336151 82.140152,149.775665 81.579681C149.215195 81.019196,148.455048 80.704254,147.662354 80.704254C146.869659 80.704254,146.109512 81.019196,145.549042 81.579681C144.988556 82.140152,144.673615 82.900299,144.673615 83.692993C144.673615 84.485687,144.988556 85.245834,145.549042 85.806305C146.109512 86.366791,146.869659 86.681732,147.662354 86.681732C148.455048 86.681732,149.215195 86.366791,149.775665 85.806305C150.336151 85.245834,150.651093 84.485687,150.651093 83.692993Z" style="fill: rgb(100.000000%,100.000000%,100.000000%);stroke: none;"></path>
  <path d="M137.059189 78.939163C137.059189 78.146469,136.744247 77.386322,136.183762 76.825851C135.623291 76.265366,134.863144 75.950424,134.070450 75.950424C133.277756 75.950424,132.517609 76.265366,131.957138 76.825851C131.396652 77.386322,131.081711 78.146469,131.081711 78.939163C131.081711 79.731857,131.396652 80.492004,131.957138 81.052475C132.517609 81.612961,133.277756 81.927902,134.070450 81.927902C134.863144 81.927902,135.623291 81.612961,136.183762 81.052475C136.744247 80.492004,137.059189 79.731857,137.059189 78.939163Z" style="fill: rgb(100.000000%,100.000000%,100.000000%);stroke: none;"></path>
  <path d="M140.331100 84.067734C140.331100 83.275040,140.016159 82.514893,139.455673 81.954422C138.895203 81.393936,138.135056 81.078995,137.342361 81.078995C136.549667 81.078995,135.789520 81.393936,135.229050 81.954422C134.668564 82.514893,134.353622 83.275040,134.353622 84.067734C134.353622 84.860428,134.668564 85.620575,135.229050 86.181046C135.789520 86.741531,136.549667 87.056473,137.342361 87.056473C138.135056 87.056473,138.895203 86.741531,139.455673 86.181046C140.016159 85.620575,140.331100 84.860428,140.331100 84.067734Z" style="fill: rgb(100.000000%,100.000000%,100.000000%);stroke: none;"></path>
  <path d="M144.143753 68.727966C144.143753 67.935272,143.828812 67.175125,143.268326 66.614655C142.707855 66.054169,141.947708 65.739227,141.155014 65.739227C140.362320 65.739227,139.602173 66.054169,139.041702 66.614655C138.481216 67.175125,138.166275 67.935272,138.166275 68.727966C138.166275 69.520660,138.481216 70.280807,139.041702 70.841278C139.602173 71.401764,140.362320 71.716705,141.155014 71.716705C141.947708 71.716705,142.707855 71.401764,143.268326 70.841278C143.828812 70.280807,144.143753 69.520660,144.143753 68.727966Z" style="fill: rgb(100.000000%,100.000000%,100.000000%);stroke: none;"></path>
  <path d="M139.268860 75.710907C139.268860 74.918213,138.953918 74.158066,138.393433 73.597595C137.832962 73.037109,137.072815 72.722168,136.280121 72.722168C135.487427 72.722168,134.727280 73.037109,134.166809 73.597595C133.606323 74.158066,133.291382 74.918213,133.291382 75.710907C133.291382 76.503601,133.606323 77.263748,134.166809 77.824219C134.727280 78.384705,135.487427 78.699646,136.280121 78.699646C137.072815 78.699646,137.832962 78.384705,138.393433 77.824219C138.953918 77.263748,139.268860 76.503601,139.268860 75.710907Z" style="fill: rgb(100.000000%,100.000000%,100.000000%);stroke: none;"></path>
  <path d="M157.078293 53.531921C157.078293 52.739227,156.763351 51.979080,156.202866 51.418610C155.642395 50.858124,154.882248 50.543182,154.089554 50.543182C153.296860 50.543182,152.536713 50.858124,151.976242 51.418610C151.415756 51.979080,151.100815 52.739227,151.100815 53.531921C151.100815 54.324615,151.415756 55.084763,151.976242 55.645233C152.536713 56.205719,153.296860 56.520660,154.089554 56.520660C154.882248 56.520660,155.642395 56.205719,156.202866 55.645233C156.763351 55.084763,157.078293 54.324615,157.078293 53.531921Z" style="fill: rgb(100.000000%,100.000000%,100.000000%);stroke: none;"></path>
  <path d="M146.059525 63.868713C146.059525 63.076019,145.744583 62.315872,145.184097 61.755402C144.623627 61.194916,143.863480 60.879974,143.070786 60.879974C142.278091 60.879974,141.517944 61.194916,140.957474 61.755402C140.396988 62.315872,140.082047 63.076019,140.082047 63.868713C140.082047 64.661407,140.396988 65.421555,140.957474 65.982025C141.517944 66.542511,142.278091 66.857452,143.070786 66.857452C143.863480 66.857452,144.623627 66.542511,145.184097 65.982025C145.744583 65.421555,146.059525 64.661407,146.059525 63.868713Z" style="fill: rgb(100.000000%,100.000000%,100.000000%);stroke: none;"></path>
  <path d="M193.039948 69.521118C193.039948 68.728424,192.725006 67.968277,192.164520 67.407806C191.604050 66.847321,190.843903 66.532379,190.051208 66.532379C189.258514 66.532379,188.498367 66.847321,187.937897 67.407806C187.377411 67.968277,187.062469 68.728424,187.062469 69.521118C187.062469 70.313812,187.377411 71.073959,187.937897 71.634430C188.498367 72.194916,189.258514 72.509857,190.051208 72.509857C190.843903 72.509857,191.604050 72.194916,192.164520 71.634430C192.725006 71.073959,193.039948 70.313812,193.039948 69.521118Z" style="fill: rgb(100.000000%,100.000000%,100.000000%);stroke: none;"></path>
  <path d="M168.302811 53.700287C168.302811 52.907593,167.987869 52.147446,167.427383 51.586975C166.866913 51.026489,166.106766 50.711548,165.314072 50.711548C164.521378 50.711548,163.761230 51.026489,163.200760 51.586975C162.640274 52.147446,162.325333 52.907593,162.325333 53.700287C162.325333 54.492981,162.640274 55.253128,163.200760 55.813599C163.761230 56.374084,164.521378 56.689026,165.314072 56.689026C166.106766 56.689026,166.866913 56.374084,167.427383 55.813599C167.987869 55.253128,168.302811 54.492981,168.302811 53.700287Z" style="fill: rgb(100.000000%,100.000000%,100.000000%);stroke: none;"></path>
  <path d="M188.167984 130.529800C188.167984 129.737106,187.853043 128.976959,187.292557 128.416489C186.732086 127.856003,185.971939 127.541061,185.179245 127.541061C184.386551 127.541061,183.626404 127.856003,183.065933 128.416489C182.505447 128.976959,182.190506 129.737106,182.190506 130.529800C182.190506 131.322495,182.505447 132.082642,183.065933 132.643112C183.626404 133.203598,184.386551 133.518539,185.179245 133.518539C185.971939 133.518539,186.732086 133.203598,187.292557 132.643112C187.853043 132.082642,188.167984 131.322495,188.167984 130.529800Z" style="fill: rgb(100.000000%,100.000000%,100.000000%);stroke: none;"></path>
  <path d="M194.725525 90.977493C194.725525 90.184799,194.410583 89.424652,193.850098 88.864182C193.289627 88.303696,192.529480 87.988754,191.736786 87.988754C190.944092 87.988754,190.183945 88.303696,189.623474 88.864182C189.062988 89.424652,188.748047 90.184799,188.748047 90.977493C188.748047 91.770187,189.062988 92.530334,189.623474 93.090805C190.183945 93.651291,190.944092 93.966232,191.736786 93.966232C192.529480 93.966232,193.289627 93.651291,193.850098 93.090805C194.410583 92.530334,194.725525 91.770187,194.725525 90.977493Z" style="fill: rgb(100.000000%,100.000000%,100.000000%);stroke: none;"></path>
  <path d="M147.236618 154.629211C147.236618 153.836517,146.921677 153.076370,146.361191 152.515900C145.800720 151.955414,145.040573 151.640472,144.247879 151.640472C143.455185 151.640472,142.695038 151.955414,142.134567 152.515900C141.574081 153.076370,141.259140 153.836517,141.259140 154.629211C141.259140 155.421906,141.574081 156.182053,142.134567 156.742523C142.695038 157.303009,143.455185 157.617950,144.247879 157.617950C145.040573 157.617950,145.800720 157.303009,146.361191 156.742523C146.921677 156.182053,147.236618 155.421906,147.236618 154.629211Z" style="fill: rgb(100.000000%,100.000000%,100.000000%);stroke: none;"></path>
  <path d="M178.698883 150.635910C178.698883 149.843216,178.383942 149.083069,177.823456 148.522598C177.262985 147.962112,176.502838 147.647171,175.710144 147.647171C174.917450 147.647171,174.157303 147.962112,173.596832 148.522598C173.036346 149.083069,172.721405 149.843216,172.721405 150.635910C172.721405 151.428604,173.036346 152.188751,173.596832 152.749222C174.157303 153.309708,174.917450 153.624649,175.710144 153.624649C176.502838 153.624649,177.262985 153.309708,177.823456 152.749222C178.383942 152.188751,178.698883 151.428604,178.698883 150.635910Z" style="fill: rgb(100.000000%,100.000000%,100.000000%);stroke: none;"></path>
  <path d="M130.394409 129.203201C130.394409 128.410507,130.079468 127.650360,129.518982 127.089890C128.958511 126.529404,128.198364 126.214462,127.405670 126.214462C126.612976 126.214462,125.852829 126.529404,125.292358 127.089890C124.731873 127.650360,124.416931 128.410507,124.416931 129.203201C124.416931 129.995895,124.731873 130.756042,125.292358 131.316513C125.852829 131.876999,126.612976 132.191940,127.405670 132.191940C128.198364 132.191940,128.958511 131.876999,129.518982 131.316513C130.079468 130.756042,130.394409 129.995895,130.394409 129.203201Z" style="fill: rgb(100.000000%,100.000000%,100.000000%);stroke: none;"></path>
  <path d="M135.523727 147.094894C135.523727 146.302200,135.208786 145.542053,134.648300 144.981583C134.087830 144.421097,133.327682 144.106155,132.534988 144.106155C131.742294 144.106155,130.982147 144.421097,130.421677 144.981583C129.861191 145.542053,129.546249 146.302200,129.546249 147.094894C129.546249 147.887589,129.861191 148.647736,130.421677 149.208206C130.982147 149.768692,131.742294 150.083633,132.534988 150.083633C133.327682 150.083633,134.087830 149.768692,134.648300 149.208206C135.208786 148.647736,135.523727 147.887589,135.523727 147.094894Z" style="fill: rgb(100.000000%,100.000000%,100.000000%);stroke: none;"></path>
  <path d="M129.548935 112.903336C129.548935 112.110641,129.233994 111.350494,128.673508 110.790024C128.113037 110.229538,127.352890 109.914597,126.560196 109.914597C125.767502 109.914597,125.007355 110.229538,124.446884 110.790024C123.886398 111.350494,123.571457 112.110641,123.571457 112.903336C123.571457 113.696030,123.886398 114.456177,124.446884 115.016647C125.007355 115.577133,125.767502 115.892075,126.560196 115.892075C127.352890 115.892075,128.113037 115.577133,128.673508 115.016647C129.233994 114.456177,129.548935 113.696030,129.548935 112.903336Z" style="fill: rgb(100.000000%,100.000000%,100.000000%);stroke: none;"></path>
  <path d="M131.184525 122.866013C131.184525 122.073318,130.869583 121.313171,130.309097 120.752701C129.748627 120.192215,128.988480 119.877274,128.195786 119.877274C127.403091 119.877274,126.642944 120.192215,126.082474 120.752701C125.521988 121.313171,125.207047 122.073318,125.207047 122.866013C125.207047 123.658707,125.521988 124.418854,126.082474 124.979324C126.642944 125.539810,127.403091 125.854752,128.195786 125.854752C128.988480 125.854752,129.748627 125.539810,130.309097 124.979324C130.869583 124.418854,131.184525 123.658707,131.184525 122.866013Z" style="fill: rgb(100.000000%,100.000000%,100.000000%);stroke: none;"></path>
  <path d="M135.119232 105.808792C135.119232 105.016098,134.804291 104.255951,134.243805 103.695480C133.683334 103.134995,132.923187 102.820053,132.130493 102.820053C131.337799 102.820053,130.577652 103.134995,130.017181 103.695480C129.456696 104.255951,129.141754 105.016098,129.141754 105.808792C129.141754 106.601486,129.456696 107.361633,130.017181 107.922104C130.577652 108.482590,131.337799 108.797531,132.130493 108.797531C132.923187 108.797531,133.683334 108.482590,134.243805 107.922104C134.804291 107.361633,135.119232 106.601486,135.119232 105.808792Z" style="fill: rgb(100.000000%,100.000000%,100.000000%);stroke: none;"></path>
  <path d="M129.068573 108.510773C129.068573 107.718079,128.753632 106.957932,128.193146 106.397461C127.632675 105.836975,126.872528 105.522034,126.079834 105.522034C125.287140 105.522034,124.526993 105.836975,123.966522 106.397461C123.406036 106.957932,123.091095 107.718079,123.091095 108.510773C123.091095 109.303467,123.406036 110.063614,123.966522 110.624084C124.526993 111.184570,125.287140 111.499512,126.079834 111.499512C126.872528 111.499512,127.632675 111.184570,128.193146 110.624084C128.753632 110.063614,129.068573 109.303467,129.068573 108.510773Z" style="fill: rgb(100.000000%,100.000000%,100.000000%);stroke: none;"></path>
  <path d="M143.884659 113.196396C143.884659 112.403702,143.569717 111.643555,143.009232 111.083084C142.448761 110.522598,141.688614 110.207657,140.895920 110.207657C140.103226 110.207657,139.343079 110.522598,138.782608 111.083084C138.222122 111.643555,137.907181 112.403702,137.907181 113.196396C137.907181 113.989090,138.222122 114.749237,138.782608 115.309708C139.343079 115.870193,140.103226 116.185135,140.895920 116.185135C141.688614 116.185135,142.448761 115.870193,143.009232 115.309708C143.569717 114.749237,143.884659 113.989090,143.884659 113.196396Z" style="fill: rgb(100.000000%,100.000000%,100.000000%);stroke: none;"></path>
  <path d="M137.820389 108.004303C137.820389 107.211609,137.505447 106.451462,136.944962 105.890991C136.384491 105.330505,135.624344 105.015564,134.831650 105.015564C134.038956 105.015564,133.278809 105.330505,132.718338 105.890991C132.157852 106.451462,131.842911 107.211609,131.842911 108.004303C131.842911 108.796997,132.157852 109.557144,132.718338 110.117615C133.278809 110.678101,134.038956 110.993042,134.831650 110.993042C135.624344 110.993042,136.384491 110.678101,136.944962 110.117615C137.505447 109.557144,137.820389 108.796997,137.820389 108.004303Z" style="fill: rgb(100.000000%,100.000000%,100.000000%);stroke: none;"></path>
  <path d="M160.584930 127.874176C160.584930 127.081482,160.269989 126.321335,159.709503 125.760864C159.149033 125.200378,158.388885 124.885437,157.596191 124.885437C156.803497 124.885437,156.043350 125.200378,155.482880 125.760864C154.922394 126.321335,154.607452 127.081482,154.607452 127.874176C154.607452 128.666870,154.922394 129.427017,155.482880 129.987488C156.043350 130.547974,156.803497 130.862915,157.596191 130.862915C158.388885 130.862915,159.149033 130.547974,159.709503 129.987488C160.269989 129.427017,160.584930 128.666870,160.584930 127.874176Z" style="fill: rgb(100.000000%,100.000000%,100.000000%);stroke: none;"></path>
  <path d="M148.148895 115.682175C148.148895 114.889481,147.833954 114.129333,147.273468 113.568863C146.712997 113.008377,145.952850 112.693436,145.160156 112.693436C144.367462 112.693436,143.607315 113.008377,143.046844 113.568863C142.486359 114.129333,142.171417 114.889481,142.171417 115.682175C142.171417 116.474869,142.486359 117.235016,143.046844 117.795486C143.607315 118.355972,144.367462 118.670914,145.160156 118.670914C145.952850 118.670914,146.712997 118.355972,147.273468 117.795486C147.833954 117.235016,148.148895 116.474869,148.148895 115.682175Z" style="fill: rgb(100.000000%,100.000000%,100.000000%);stroke: none;"></path>
  <path d="M153.283493 172.994049C153.283493 172.201355,152.968552 171.441208,152.408066 170.880737C151.847595 170.320251,151.087448 170.005310,150.294754 170.005310C149.502060 170.005310,148.741913 170.320251,148.181442 170.880737C147.620956 171.441208,147.306015 172.201355,147.306015 172.994049C147.306015 173.786743,147.620956 174.546890,148.181442 175.107361C148.741913 175.667847,149.502060 175.982788,150.294754 175.982788C151.087448 175.982788,151.847595 175.667847,152.408066 175.107361C152.968552 174.546890,153.283493 173.786743,153.283493 172.994049Z" style="fill: rgb(100.000000%,100.000000%,100.000000%);stroke: none;"></path>
  <path d="M163.374496 141.070358C163.374496 140.277664,163.059555 139.517517,162.499069 138.957047C161.938599 138.396561,161.178452 138.081619,160.385757 138.081619C159.593063 138.081619,158.832916 138.396561,158.272446 138.957047C157.711960 139.517517,157.397018 140.277664,157.397018 141.070358C157.397018 141.863052,157.711960 142.623199,158.272446 143.183670C158.832916 143.744156,159.593063 144.059097,160.385757 144.059097C161.178452 144.059097,161.938599 143.744156,162.499069 143.183670C163.059555 142.623199,163.374496 141.863052,163.374496 141.070358Z" style="fill: rgb(100.000000%,100.000000%,100.000000%);stroke: none;"></path>
  <path d="M109.891785 189.945480C87.274567 197.966766,62.487869 185.799377,55.000000 163.000000C50.508789 149.324936,53.862717 134.750122,54.481750 120.436569C54.807312 112.908981,54.356155 105.357147,55.000000 97.848480C55.614288 90.684586,57.072571 83.125046,53.332077 76.955399C47.269760 66.956100,33.232056 66.471390,22.808090 73.551620C5.395218 85.378891,2.789337 109.050995,9.973450 129.663605C17.208084 150.421204,34.684387 167.068939,55.000000 163.000000C69.914444 160.012848,79.207489 146.334518,84.694916 131.900177C87.995407 123.218460,90.227295 114.185120,92.749573 105.248795C95.077194 97.002136,97.655426 88.828400,100.469284 80.734756C103.136307 73.063446,106.022614 65.447891,109.942993 58.331772C112.975754 52.826843,116.647629 47.552872,117.967545 41.391403C120.540237 29.381805,114.215988 17.379150,103.347641 11.418137C86.656631 2.263550,66.728012 9.219238,51.127197 20.980896C34.043991 33.860153,20.919357 52.491592,22.808090 73.551620C23.817230 84.803818,29.883255 95.446411,40.550644 98.194778C45.277954 99.412735,50.197617 98.669815,55.000000 97.848480C61.285965 96.773422,67.668900 95.578461,73.948608 96.761368C80.766586 98.045670,86.651550 101.978180,92.749573 105.248795C98.630875 108.403168,104.809402 110.972900,111.211411 112.858917C116.473328 114.409058,121.857620 115.488388,127.193192 116.759033C129.484329 117.304657,131.950989 117.831055,133.939575 116.584686C136.099213 115.231110,136.594925 112.506927,137.191315 110.024597C138.241013 105.655441,140.099243 101.521301,141.152786 97.153091C142.205093 92.790009,142.435196 88.275925,143.336761 83.880310C143.824127 81.504150,144.472870 79.005203,143.396545 76.826691C142.407806 74.825439,140.294449 73.793808,138.260895 72.873581C133.850571 70.877808,129.410187 68.942581,125.107849 66.722748C119.972916 64.073318,115.053314 61.028015,109.942993 58.331772C104.066803 55.231461,97.764557 52.427429,93.911194 46.987518C85.763382 35.484985,90.958771 19.627228,103.347641 11.418137C117.486206 2.049652,135.869980 4.290726,150.357910 13.556274C166.052658 23.593628,176.127686 40.870667,173.940262 59.217239C172.650436 70.035416,166.547226 80.097092,156.241348 82.910355C152.056107 84.052826,147.662354 83.692993,143.336761 83.880310C140.497192 84.003281,137.342361 84.067734,135.850571 81.729416C134.070450 78.939163,136.280121 75.710907,138.260895 72.873581C141.155014 68.727966,143.070786 63.868713,146.769226 60.399185C154.089554 53.531921,165.314072 53.700287,173.940262 59.217239C190.051208 69.521118,191.736786 90.977493,188.500793 110.495621C185.179245 130.529800,175.710144 150.635910,156.595215 153.062042C144.247879 154.629211,132.534988 147.094894,129.114349 135.163284C127.405670 129.203201,128.195786 122.866013,127.193192 116.759033C126.560196 112.903336,126.079834 108.510773,129.394699 107.030487C132.130493 105.808792,134.831650 108.004303,137.191315 110.024597C140.895920 113.196396,145.160156 115.682175,148.644760 119.098404C157.596191 127.874176,160.385757 141.070358,156.595215 153.062042C150.294754 172.994049,129.816772 182.878998,109.891785 189.945480" style="stroke:rgb(0.000000%,0.000000%,0.000000%); stroke-width: 0.498138;stroke-linecap: round;stroke-linejoin: round;stroke-miterlimit: 10.000000;fill: none;"></path>
  <path d="M109.891785 189.945480C87.274567 197.966766,62.487869 185.799377,55.000000 163.000000" style="stroke:rgb(0.000000%,0.000000%,0.000000%); stroke-width: 1.494400;stroke-linecap: round;stroke-linejoin: round;stroke-miterlimit: 10.000000;fill: none;"></path>
  <path d="M137.191315 110.024597C140.895920 113.196396,145.160156 115.682175,148.644760 119.098404C157.596191 127.874176,160.385757 141.070358,156.595215 153.062042C150.294754 172.994049,129.816772 182.878998,109.891785 189.945480" style="stroke:rgb(0.000000%,0.000000%,0.000000%); stroke-width: 1.494400;stroke-linecap: round;stroke-linejoin: round;stroke-miterlimit: 10.000000;fill: none;"></path>
  <path d="M57.988739 163.000000C57.988739 162.207306,57.673798 161.447159,57.113312 160.886688C56.552841 160.326202,55.792694 160.011261,55.000000 160.011261C54.207306 160.011261,53.447159 160.326202,52.886688 160.886688C52.326202 161.447159,52.011261 162.207306,52.011261 163.000000C52.011261 163.792694,52.326202 164.552841,52.886688 165.113312C53.447159 165.673798,54.207306 165.988739,55.000000 165.988739C55.792694 165.988739,56.552841 165.673798,57.113312 165.113312C57.673798 164.552841,57.988739 163.792694,57.988739 163.000000Z" style="fill: rgb(100.000000%,100.000000%,100.000000%);stroke: none;"></path>
  <path d="M27.581375 155.641754C35.394226 161.889771,44.842194 165.034470,55.000000 163.000000C62.457230 161.506424,68.509109 157.340042,73.382599 151.742767" style="stroke:rgb(0.000000%,0.000000%,0.000000%); stroke-width: 0.498138;stroke-linecap: round;stroke-linejoin: round;stroke-miterlimit: 10.000000;fill: none;"></path>
  <path d="M25.796829 73.551620C25.796829 72.758926,25.481888 71.998779,24.921402 71.438309C24.360931 70.877823,23.600784 70.562881,22.808090 70.562881C22.015396 70.562881,21.255249 70.877823,20.694778 71.438309C20.134293 71.998779,19.819351 72.758926,19.819351 73.551620C19.819351 74.344315,20.134293 75.104462,20.694778 75.664932C21.255249 76.225418,22.015396 76.540359,22.808090 76.540359C23.600784 76.540359,24.360931 76.225418,24.921402 75.664932C25.481888 75.104462,25.796829 74.344315,25.796829 73.551620Z" style="fill: rgb(100.000000%,100.000000%,100.000000%);stroke: none;"></path>
  <path d="M29.853165 44.198471C24.672699 53.098740,21.863724 63.021606,22.808090 73.551620C23.312668 79.177719,25.081467 84.651428,28.057541 89.062149" style="stroke:rgb(0.000000%,0.000000%,0.000000%); stroke-width: 0.498138;stroke-linecap: round;stroke-linejoin: round;stroke-miterlimit: 10.000000;fill: none;"></path>
  <path d="M95.738312 105.248795C95.738312 104.456100,95.423370 103.695953,94.862885 103.135483C94.302414 102.574997,93.542267 102.260056,92.749573 102.260056C91.956879 102.260056,91.196732 102.574997,90.636261 103.135483C90.075775 103.695953,89.760834 104.456100,89.760834 105.248795C89.760834 106.041489,90.075775 106.801636,90.636261 107.362106C91.196732 107.922592,91.956879 108.237534,92.749573 108.237534C93.542267 108.237534,94.302414 107.922592,94.862885 107.362106C95.423370 106.801636,95.738312 106.041489,95.738312 105.248795Z" style="fill: rgb(100.000000%,100.000000%,100.000000%);stroke: none;"></path>
  <path d="M83.619080 100.260223C86.704819 101.812714,89.700562 103.613495,92.749573 105.248795C95.690231 106.825989,98.705185 108.257019,101.785233 109.529495" style="stroke:rgb(0.000000%,0.000000%,0.000000%); stroke-width: 0.498138;stroke-linecap: round;stroke-linejoin: round;stroke-miterlimit: 10.000000;fill: none;"></path>
  <path d="M106.336380 11.418137C106.336380 10.625443,106.021439 9.865295,105.460953 9.304825C104.900482 8.744339,104.140335 8.429398,103.347641 8.429398C102.554947 8.429398,101.794800 8.744339,101.234329 9.304825C100.673843 9.865295,100.358902 10.625443,100.358902 11.418137C100.358902 12.210831,100.673843 12.970978,101.234329 13.531448C101.794800 14.091934,102.554947 14.406876,103.347641 14.406876C104.140335 14.406876,104.900482 14.091934,105.460953 13.531448C106.021439 12.970978,106.336380 12.210831,106.336380 11.418137Z" style="fill: rgb(100.000000%,100.000000%,100.000000%);stroke: none;"></path>
  <path d="M115.697968 24.136536C113.079956 18.889557,108.781815 14.398636,103.347641 11.418137C95.002136 6.840836,85.847229 6.291107,76.828583 8.355927" style="stroke:rgb(0.000000%,0.000000%,0.000000%); stroke-width: 0.498138;stroke-linecap: round;stroke-linejoin: round;stroke-miterlimit: 10.000000;fill: none;"></path>
  <path d="M57.988739 97.848480C57.988739 97.055786,57.673798 96.295639,57.113312 95.735168C56.552841 95.174683,55.792694 94.859741,55.000000 94.859741C54.207306 94.859741,53.447159 95.174683,52.886688 95.735168C52.326202 96.295639,52.011261 97.055786,52.011261 97.848480C52.011261 98.641174,52.326202 99.401321,52.886688 99.961792C53.447159 100.522278,54.207306 100.837219,55.000000 100.837219C55.792694 100.837219,56.552841 100.522278,57.113312 99.961792C57.673798 99.401321,57.988739 98.641174,57.988739 97.848480Z" style="fill: rgb(100.000000%,100.000000%,100.000000%);stroke: none;"></path>
  <path d="M54.621521 109.135422C54.629913 105.367935,54.678085 101.602814,55.000000 97.848480C55.307144 94.266525,55.825287 90.585663,55.799072 87.029083" style="stroke:rgb(0.000000%,0.000000%,0.000000%); stroke-width: 0.498138;stroke-linecap: round;stroke-linejoin: round;stroke-miterlimit: 10.000000;fill: none;"></path>
  <path d="M130.181931 116.759033C130.181931 115.966339,129.866989 115.206192,129.306503 114.645721C128.746033 114.085236,127.985886 113.770294,127.193192 113.770294C126.400497 113.770294,125.640350 114.085236,125.079880 114.645721C124.519394 115.206192,124.204453 115.966339,124.204453 116.759033C124.204453 117.551727,124.519394 118.311874,125.079880 118.872345C125.640350 119.432831,126.400497 119.747772,127.193192 119.747772C127.985886 119.747772,128.746033 119.432831,129.306503 118.872345C129.866989 118.311874,130.181931 117.551727,130.181931 116.759033Z" style="fill: rgb(100.000000%,100.000000%,100.000000%);stroke: none;"></path>
  <path d="M127.888977 126.016235C127.747604 122.923553,127.694489 119.812515,127.193192 116.759033C126.876694 114.831177,126.598343 112.769104,126.813492 111.003967" style="stroke:rgb(0.000000%,0.000000%,0.000000%); stroke-width: 0.498138;stroke-linecap: round;stroke-linejoin: round;stroke-miterlimit: 10.000000;fill: none;"></path>
  <path d="M146.325500 83.880310C146.325500 83.087616,146.010559 82.327469,145.450073 81.766998C144.889603 81.206512,144.129456 80.891571,143.336761 80.891571C142.544067 80.891571,141.783920 81.206512,141.223450 81.766998C140.662964 82.327469,140.348022 83.087616,140.348022 83.880310C140.348022 84.673004,140.662964 85.433151,141.223450 85.993622C141.783920 86.554108,142.544067 86.869049,143.336761 86.869049C144.129456 86.869049,144.889603 86.554108,145.450073 85.993622C146.010559 85.433151,146.325500 84.673004,146.325500 83.880310Z" style="fill: rgb(100.000000%,100.000000%,100.000000%);stroke: none;"></path>
  <path d="M142.301315 90.528885C142.603073 88.305527,142.885986 86.078110,143.336761 83.880310C143.580444 82.692230,143.864471 81.473450,143.953033 80.279373" style="stroke:rgb(0.000000%,0.000000%,0.000000%); stroke-width: 0.498138;stroke-linecap: round;stroke-linejoin: round;stroke-miterlimit: 10.000000;fill: none;"></path>
  <path d="M112.931732 58.331772C112.931732 57.539078,112.616791 56.778931,112.056305 56.218460C111.495834 55.657974,110.735687 55.343033,109.942993 55.343033C109.150299 55.343033,108.390152 55.657974,107.829681 56.218460C107.269196 56.778931,106.954254 57.539078,106.954254 58.331772C106.954254 59.124466,107.269196 59.884613,107.829681 60.445084C108.390152 61.005569,109.150299 61.320511,109.942993 61.320511C110.735687 61.320511,111.495834 61.005569,112.056305 60.445084C112.616791 59.884613,112.931732 59.124466,112.931732 58.331772Z" style="fill: rgb(100.000000%,100.000000%,100.000000%);stroke: none;"></path>
  <path d="M117.516174 62.544800C115.005630 61.115265,112.498154 59.679886,109.942993 58.331772C107.004898 56.781616,103.960281 55.305527,101.168518 53.536987" style="stroke:rgb(0.000000%,0.000000%,0.000000%); stroke-width: 0.498138;stroke-linecap: round;stroke-linejoin: round;stroke-miterlimit: 10.000000;fill: none;"></path>
  <path d="M176.929001 59.217239C176.929001 58.424545,176.614059 57.664398,176.053574 57.103928C175.493103 56.543442,174.732956 56.228500,173.940262 56.228500C173.147568 56.228500,172.387421 56.543442,171.826950 57.103928C171.266464 57.664398,170.951523 58.424545,170.951523 59.217239C170.951523 60.009933,171.266464 60.770081,171.826950 61.330551C172.387421 61.891037,173.147568 62.205978,173.940262 62.205978C174.732956 62.205978,175.493103 61.891037,176.053574 61.330551C176.614059 60.770081,176.929001 60.009933,176.929001 59.217239Z" style="fill: rgb(100.000000%,100.000000%,100.000000%);stroke: none;"></path>
  <path d="M168.854904 33.270813C173.062073 41.138062,175.033966 50.043961,173.940262 59.217239C173.295349 64.626328,171.447083 69.846298,168.471817 74.065643" style="stroke:rgb(0.000000%,0.000000%,0.000000%); stroke-width: 0.498138;stroke-linecap: round;stroke-linejoin: round;stroke-miterlimit: 10.000000;fill: none;"></path>
  <path d="M141.249634 72.873581C141.249634 72.080887,140.934692 71.320740,140.374207 70.760269C139.813736 70.199783,139.053589 69.884842,138.260895 69.884842C137.468201 69.884842,136.708054 70.199783,136.147583 70.760269C135.587097 71.320740,135.272156 72.080887,135.272156 72.873581C135.272156 73.666275,135.587097 74.426422,136.147583 74.986893C136.708054 75.547379,137.468201 75.862320,138.260895 75.862320C139.053589 75.862320,139.813736 75.547379,140.374207 74.986893C140.934692 74.426422,141.249634 73.666275,141.249634 72.873581Z" style="fill: rgb(100.000000%,100.000000%,100.000000%);stroke: none;"></path>
  <path d="M135.645401 77.319138C136.222900 75.808624,137.270508 74.292236,138.260895 72.873581C139.707962 70.800766,140.910431 68.549545,142.213455 66.382843" style="stroke:rgb(0.000000%,0.000000%,0.000000%); stroke-width: 0.498138;stroke-linecap: round;stroke-linejoin: round;stroke-miterlimit: 10.000000;fill: none;"></path>
  <path d="M159.583954 153.062042C159.583954 152.269348,159.269012 151.509201,158.708527 150.948730C158.148056 150.388245,157.387909 150.073303,156.595215 150.073303C155.802521 150.073303,155.042374 150.388245,154.481903 150.948730C153.921417 151.509201,153.606476 152.269348,153.606476 153.062042C153.606476 153.854736,153.921417 154.614883,154.481903 155.175354C155.042374 155.735840,155.802521 156.050781,156.595215 156.050781C157.387909 156.050781,158.148056 155.735840,158.708527 155.175354C159.269012 154.614883,159.583954 153.854736,159.583954 153.062042Z" style="fill: rgb(100.000000%,100.000000%,100.000000%);stroke: none;"></path>
  <path d="M157.398239 134.874268C158.740723 140.769241,158.490479 147.066208,156.595215 153.062042C153.444977 163.028046,146.750366 170.482285,138.352692 176.328339" style="stroke:rgb(0.000000%,0.000000%,0.000000%); stroke-width: 1.494400;stroke-linecap: round;stroke-linejoin: round;stroke-miterlimit: 10.000000;fill: none;"></path>
  <path d="M140.180054 110.024597C140.180054 109.231903,139.865112 108.471756,139.304626 107.911285C138.744156 107.350800,137.984009 107.035858,137.191315 107.035858C136.398621 107.035858,135.638474 107.350800,135.078003 107.911285C134.517517 108.471756,134.202576 109.231903,134.202576 110.024597C134.202576 110.817291,134.517517 111.577438,135.078003 112.137909C135.638474 112.698395,136.398621 113.013336,137.191315 113.013336C137.984009 113.013336,138.744156 112.698395,139.304626 112.137909C139.865112 111.577438,140.180054 110.817291,140.180054 110.024597Z" style="fill: rgb(100.000000%,100.000000%,100.000000%);stroke: none;"></path>
  <path d="M136.151672 113.727921C136.620102 112.567383,136.893127 111.265762,137.191315 110.024597C137.716171 107.840012,138.443161 105.714188,139.170624 103.588470" style="stroke:rgb(0.000000%,0.000000%,0.000000%); stroke-width: 0.498138;stroke-linecap: round;stroke-linejoin: round;stroke-miterlimit: 10.000000;fill: none;"></path>
  <path d="M148.644760 119.098404C155.805939 126.119049,159.023483 135.968781,158.083267 145.767609" style="stroke:rgb(0.000000%,0.000000%,0.000000%); stroke-width: 0.498138;stroke-linecap: round;stroke-linejoin: round;stroke-miterlimit: 10.000000;fill: none;"></path>
  <path d="M156.280746 141.103653C156.989380 142.604980,157.592346 144.163879,158.083267 145.767609C158.870178 144.286469,159.546143 142.757812,160.106705 141.195145Z" style="stroke:rgb(0.000000%,0.000000%,0.000000%); stroke-width: 0.498138;fill: rgb(0.000000%,0.000000%,0.000000%);"></path>
  <path d="M148.644760 119.098404C155.805939 126.119049,159.023483 135.968781,158.083267 145.767609" style="stroke:rgb(0.000000%,0.000000%,0.000000%); stroke-width: 0.498138;stroke-linecap: round;stroke-linejoin: round;stroke-miterlimit: 10.000000;fill: none;"></path>
  <path d="M157.082932 142.939362C157.455597 143.864227,157.789505 144.807892,158.083267 145.767609C158.554184 144.881256,158.985352 143.977905,159.375839 143.060425Z" style="stroke:rgb(0.000000%,0.000000%,0.000000%); stroke-width: 0.498138;fill: rgb(0.000000%,0.000000%,0.000000%);"></path>
  <path d="M53.332077 76.955399C48.482208 68.955933,38.528046 67.045837,29.403305 70.226898" style="stroke:rgb(0.000000%,0.000000%,0.000000%); stroke-width: 0.498138;stroke-linecap: round;stroke-linejoin: round;stroke-miterlimit: 10.000000;fill: none;"></path>
  <path d="M31.749207 68.357056C30.941437 68.929932,30.157532 69.554443,29.403305 70.226898C30.412140 70.284729,31.408020 70.397461,32.384277 70.563568Z" style="stroke:rgb(0.000000%,0.000000%,0.000000%); stroke-width: 0.498138;fill: rgb(0.000000%,0.000000%,0.000000%);"></path>
  <path d="M84.694916 131.900177C87.335312 124.954773,89.291809 117.784332,91.260208 110.618561" style="stroke:rgb(0.000000%,0.000000%,0.000000%); stroke-width: 0.498138;stroke-linecap: round;stroke-linejoin: round;stroke-miterlimit: 10.000000;fill: none;"></path>
  <path d="M91.632034 113.595383L91.260208 110.618561L89.418167 112.986374Z" style="stroke:rgb(0.000000%,0.000000%,0.000000%); stroke-width: 0.498138;fill: rgb(0.000000%,0.000000%,0.000000%);"></path>
  <path d="M117.967545 41.391403C120.025711 31.783691,116.389786 22.180420,109.288452 15.671387" style="stroke:rgb(0.000000%,0.000000%,0.000000%); stroke-width: 0.498138;stroke-linecap: round;stroke-linejoin: round;stroke-miterlimit: 10.000000;fill: none;"></path>
  <path d="M112.052628 16.837662C111.155655 16.404846,110.233032 16.015320,109.288452 15.671387C109.713165 16.582520,110.090103 17.510345,110.418289 18.450668Z" style="stroke:rgb(0.000000%,0.000000%,0.000000%); stroke-width: 0.498138;fill: rgb(0.000000%,0.000000%,0.000000%);"></path>
  <path d="M111.211411 112.858917C115.420959 114.099030,119.708832 115.037827,123.987427 116.014313" style="stroke:rgb(0.000000%,0.000000%,0.000000%); stroke-width: 0.498138;stroke-linecap: round;stroke-linejoin: round;stroke-miterlimit: 10.000000;fill: none;"></path>
  <path d="M121.030228 116.518768C122.016022 116.351349,123.001587 116.181839,123.987427 116.014313L121.539688 114.279907Z" style="stroke:rgb(0.000000%,0.000000%,0.000000%); stroke-width: 0.498138;fill: rgb(0.000000%,0.000000%,0.000000%);"></path>
  <path d="M143.396545 76.826691C142.605545 75.225677,141.094803 74.245239,139.480957 73.445938" style="stroke:rgb(0.000000%,0.000000%,0.000000%); stroke-width: 0.498138;stroke-linecap: round;stroke-linejoin: round;stroke-miterlimit: 10.000000;fill: none;"></path>
  <path d="M142.435394 73.966675C141.507507 73.649094,140.498398 73.514359,139.480957 73.445938C140.151993 74.213760,140.770264 75.022598,141.201813 75.903290Z" style="stroke:rgb(0.000000%,0.000000%,0.000000%); stroke-width: 0.498138;fill: rgb(0.000000%,0.000000%,0.000000%);"></path>
  <path d="M125.107849 66.722748C120.999893 64.603195,117.029739 62.230286,112.989502 59.985428" style="stroke:rgb(0.000000%,0.000000%,0.000000%); stroke-width: 0.498138;stroke-linecap: round;stroke-linejoin: round;stroke-miterlimit: 10.000000;fill: none;"></path>
  <path d="M115.968109 60.344009C114.975647 60.220612,113.982956 60.099625,112.989502 59.985428C113.611221 60.768661,114.227600 61.556183,114.842102 62.345200Z" style="stroke:rgb(0.000000%,0.000000%,0.000000%); stroke-width: 0.498138;fill: rgb(0.000000%,0.000000%,0.000000%);"></path>
  <path d="M156.241348 82.910355C152.893143 83.824341,149.411484 83.776825,145.938049 83.817184" style="stroke:rgb(0.000000%,0.000000%,0.000000%); stroke-width: 0.498138;stroke-linecap: round;stroke-linejoin: round;stroke-miterlimit: 10.000000;fill: none;"></path>
  <path d="M148.694931 82.634018C147.781036 83.036514,146.857819 83.423599,145.938049 83.817184C146.866730 84.189285,147.793243 84.568375,148.724075 84.930008Z" style="stroke:rgb(0.000000%,0.000000%,0.000000%); stroke-width: 0.498138;fill: rgb(0.000000%,0.000000%,0.000000%);"></path>
  <path d="M135.850571 81.729416C134.426468 79.497208,135.555847 76.984680,137.078735 74.616241" style="stroke:rgb(0.000000%,0.000000%,0.000000%); stroke-width: 0.498138;stroke-linecap: round;stroke-linejoin: round;stroke-miterlimit: 10.000000;fill: none;"></path>
  <path d="M136.787445 77.602036C136.767502 76.649368,136.894897 75.633987,137.078735 74.616241C136.229065 75.205887,135.421005 75.833786,134.761444 76.521500Z" style="stroke:rgb(0.000000%,0.000000%,0.000000%); stroke-width: 0.498138;fill: rgb(0.000000%,0.000000%,0.000000%);"></path>
  <path d="M129.394699 107.030487C131.583344 106.053131,133.749817 107.262787,135.737015 108.820160" style="stroke:rgb(0.000000%,0.000000%,0.000000%); stroke-width: 0.498138;stroke-linecap: round;stroke-linejoin: round;stroke-miterlimit: 10.000000;fill: none;"></path>
  <path d="M132.783279 108.295227C133.734146 108.328781,134.738327 108.541595,135.737015 108.820160C135.227829 107.916992,134.668259 107.056442,134.019638 106.360352Z" style="stroke:rgb(0.000000%,0.000000%,0.000000%); stroke-width: 0.498138;fill: rgb(0.000000%,0.000000%,0.000000%);"></path>
  <path d="M106.901138 192.655685L112.882431 192.655685L112.882431 185.235291L106.901138 185.235291Z" style="fill: rgb(100.000000%,100.000000%,100.000000%);stroke: none;"></path>
  <path d="M106.901138 194.655685L112.882431 194.655685L112.882431 187.235291L106.901138 187.235291Z" style="fill: rgb(100.000000%,100.000000%,100.000000%);stroke: none;"></path>
  <g transform="translate(107.401138 193.155685)" style="fill: rgb(0.000000%,0.000000%,0.000000%);">
    <use xlink:href="#GLYPHcmr10_49"></use>
  </g>
  <path d="M51.491104 123.146774L57.472397 123.146774L57.472397 115.726379L51.491104 115.726379Z" style="fill: rgb(100.000000%,100.000000%,100.000000%);stroke: none;"></path>
  <path d="M51.491104 125.146774L57.472397 125.146774L57.472397 117.726379L51.491104 117.726379Z" style="fill: rgb(100.000000%,100.000000%,100.000000%);stroke: none;"></path>
  <g transform="translate(51.991104 123.646774)" style="fill: rgb(0.000000%,0.000000%,0.000000%);">
    <use xlink:href="#GLYPHcmr10_50"></use>
  </g>
  <path d="M6.982803 132.373810L12.964096 132.373810L12.964096 124.953415L6.982803 124.953415Z" style="fill: rgb(100.000000%,100.000000%,100.000000%);stroke: none;"></path>
  <path d="M6.982803 134.373810L12.964096 134.373810L12.964096 126.953415L6.982803 126.953415Z" style="fill: rgb(100.000000%,100.000000%,100.000000%);stroke: none;"></path>
  <g transform="translate(7.482803 132.873810)" style="fill: rgb(0.000000%,0.000000%,0.000000%);">
    <use xlink:href="#GLYPHcmr10_51"></use>
  </g>
  <path d="M97.478638 83.444962L103.459930 83.444962L103.459930 76.024567L97.478638 76.024567Z" style="fill: rgb(100.000000%,100.000000%,100.000000%);stroke: none;"></path>
  <path d="M97.478638 85.444962L103.459930 85.444962L103.459930 78.024567L97.478638 78.024567Z" style="fill: rgb(100.000000%,100.000000%,100.000000%);stroke: none;"></path>
  <g transform="translate(97.978638 83.944962)" style="fill: rgb(0.000000%,0.000000%,0.000000%);">
    <use xlink:href="#GLYPHcmr10_52"></use>
  </g>
  <path d="M48.136551 23.691101L54.117844 23.691101L54.117844 16.270706L48.136551 16.270706Z" style="fill: rgb(100.000000%,100.000000%,100.000000%);stroke: none;"></path>
  <path d="M48.136551 25.691101L54.117844 25.691101L54.117844 18.270706L48.136551 18.270706Z" style="fill: rgb(100.000000%,100.000000%,100.000000%);stroke: none;"></path>
  <g transform="translate(48.636551 24.191101)" style="fill: rgb(0.000000%,0.000000%,0.000000%);">
    <use xlink:href="#GLYPHcmr10_53"></use>
  </g>
  <path d="M70.957962 99.471573L76.939255 99.471573L76.939255 92.051178L70.957962 92.051178Z" style="fill: rgb(100.000000%,100.000000%,100.000000%);stroke: none;"></path>
  <path d="M70.957962 101.471573L76.939255 101.471573L76.939255 94.051178L70.957962 94.051178Z" style="fill: rgb(100.000000%,100.000000%,100.000000%);stroke: none;"></path>
  <g transform="translate(71.457962 99.971573)" style="fill: rgb(0.000000%,0.000000%,0.000000%);">
    <use xlink:href="#GLYPHcmr10_54"></use>
  </g>
  <path d="M138.162140 99.863297L144.143433 99.863297L144.143433 92.442902L138.162140 92.442902Z" style="fill: rgb(100.000000%,100.000000%,100.000000%);stroke: none;"></path>
  <path d="M138.162140 101.863297L144.143433 101.863297L144.143433 94.442902L138.162140 94.442902Z" style="fill: rgb(100.000000%,100.000000%,100.000000%);stroke: none;"></path>
  <g transform="translate(138.662140 100.363297)" style="fill: rgb(0.000000%,0.000000%,0.000000%);">
    <use xlink:href="#GLYPHcmr10_55"></use>
  </g>
  <path d="M90.920547 49.697723L96.901840 49.697723L96.901840 42.277328L90.920547 42.277328Z" style="fill: rgb(100.000000%,100.000000%,100.000000%);stroke: none;"></path>
  <path d="M90.920547 51.697723L96.901840 51.697723L96.901840 44.277328L90.920547 44.277328Z" style="fill: rgb(100.000000%,100.000000%,100.000000%);stroke: none;"></path>
  <g transform="translate(91.420547 50.197723)" style="fill: rgb(0.000000%,0.000000%,0.000000%);">
    <use xlink:href="#GLYPHcmr10_56"></use>
  </g>
  <path d="M147.367264 16.266479L153.348557 16.266479L153.348557 8.846085L147.367264 8.846085Z" style="fill: rgb(100.000000%,100.000000%,100.000000%);stroke: none;"></path>
  <path d="M147.367264 18.266479L153.348557 18.266479L153.348557 10.846085L147.367264 10.846085Z" style="fill: rgb(100.000000%,100.000000%,100.000000%);stroke: none;"></path>
  <g transform="translate(147.867264 16.766479)" style="fill: rgb(0.000000%,0.000000%,0.000000%);">
    <use xlink:href="#GLYPHcmr10_57"></use>
  </g>
  <path d="M141.287872 63.109390L152.250580 63.109390L152.250580 55.688995L141.287872 55.688995Z" style="fill: rgb(100.000000%,100.000000%,100.000000%);stroke: none;"></path>
  <path d="M141.287872 65.109390L152.250580 65.109390L152.250580 57.688995L141.287872 57.688995Z" style="fill: rgb(100.000000%,100.000000%,100.000000%);stroke: none;"></path>
  <g transform="translate(141.787872 63.609390)" style="fill: rgb(0.000000%,0.000000%,0.000000%);">
    <use xlink:href="#GLYPHcmr10_49"></use>
    <use xlink:href="#GLYPHcmr10_48" x="5.000095"></use>
  </g>
  <path d="M183.019440 113.205826L193.982147 113.205826L193.982147 105.785431L183.019440 105.785431Z" style="fill: rgb(100.000000%,100.000000%,100.000000%);stroke: none;"></path>
  <path d="M183.019440 115.205826L193.982147 115.205826L193.982147 107.785431L183.019440 107.785431Z" style="fill: rgb(100.000000%,100.000000%,100.000000%);stroke: none;"></path>
  <g transform="translate(183.519440 113.705826)" style="fill: rgb(0.000000%,0.000000%,0.000000%);">
    <use xlink:href="#GLYPHcmr10_49"></use>
    <use xlink:href="#GLYPHcmr10_49" x="5.000095"></use>
  </g>
  <path d="M123.632996 137.873489L134.595703 137.873489L134.595703 130.453094L123.632996 130.453094Z" style="fill: rgb(100.000000%,100.000000%,100.000000%);stroke: none;"></path>
  <path d="M123.632996 139.873489L134.595703 139.873489L134.595703 132.453094L123.632996 132.453094Z" style="fill: rgb(100.000000%,100.000000%,100.000000%);stroke: none;"></path>
  <g transform="translate(124.132996 138.373489)" style="fill: rgb(0.000000%,0.000000%,0.000000%);">
    <use xlink:href="#GLYPHcmr10_49"></use>
    <use xlink:href="#GLYPHcmr10_50" x="5.000095"></use>
  </g>
</svg>
