<?xml version="1.0"?>
<!-- Created by MetaPost 1.999 on 2021.07.05:2357 -->
<svg version="1.1" xmlns="http://www.w3.org/2000/svg" xmlns:xlink="http://www.w3.org/1999/xlink" width="196.984146" height="195.959732" viewBox="0 0 196.984146 195.959732">
<!-- Original BoundingBox: -43.597504 -43.884995 153.386642 152.074738 -->
  <defs>
    <g transform="scale(0.009963,0.009963)" id="GLYPHcmr10_48">
      <path style="fill-rule: evenodd;" d="M460.000000 -320.000000C460.000000 -400.000000,455.000000 -480.000000,420.000000 -554.000000C374.000000 -650.000000,292.000000 -666.000000,250.000000 -666.000000C190.000000 -666.000000,117.000000 -640.000000,76.000000 -547.000000C44.000000 -478.000000,39.000000 -400.000000,39.000000 -320.000000C39.000000 -245.000000,43.000000 -155.000000,84.000000 -79.000000C127.000000 2.000000,200.000000 22.000000,249.000000 22.000000C303.000000 22.000000,379.000000 1.000000,423.000000 -94.000000C455.000000 -163.000000,460.000000 -241.000000,460.000000 -320.000000M249.000000 -0.000000C210.000000 -0.000000,151.000000 -25.000000,133.000000 -121.000000C122.000000 -181.000000,122.000000 -273.000000,122.000000 -332.000000C122.000000 -396.000000,122.000000 -462.000000,130.000000 -516.000000C149.000000 -635.000000,224.000000 -644.000000,249.000000 -644.000000C282.000000 -644.000000,348.000000 -626.000000,367.000000 -527.000000C377.000000 -471.000000,377.000000 -395.000000,377.000000 -332.000000C377.000000 -257.000000,377.000000 -189.000000,366.000000 -125.000000C351.000000 -30.000000,294.000000 -0.000000,249.000000 -0.000000"></path>
    </g>
    <g transform="scale(0.009963,0.009963)" id="GLYPHcmr10_49">
      <path style="fill-rule: evenodd;" d="M294.000000 -640.000000C294.000000 -664.000000,294.000000 -666.000000,271.000000 -666.000000C209.000000 -602.000000,121.000000 -602.000000,89.000000 -602.000000L89.000000 -571.000000C109.000000 -571.000000,168.000000 -571.000000,220.000000 -597.000000L220.000000 -79.000000C220.000000 -43.000000,217.000000 -31.000000,127.000000 -31.000000L95.000000 -31.000000L95.000000 -0.000000L257.000000 -0.000000L130.000000 -3.000000L217.000000 -3.000000L257.000000 -3.000000L297.000000 -3.000000L384.000000 -3.000000L419.000000 -0.000000L419.000000 -31.000000L387.000000 -31.000000C297.000000 -31.000000,294.000000 -42.000000,294.000000 -79.000000"></path>
    </g>
    <g transform="scale(0.009963,0.009963)" id="GLYPHcmr10_50">
      <path style="fill-rule: evenodd;" d="M127.000000 -77.000000L233.000000 -180.000000C389.000000 -318.000000,449.000000 -372.000000,449.000000 -472.000000C449.000000 -586.000000,359.000000 -666.000000,237.000000 -666.000000C124.000000 -666.000000,50.000000 -574.000000,50.000000 -485.000000C50.000000 -429.000000,100.000000 -429.000000,103.000000 -429.000000C120.000000 -429.000000,155.000000 -441.000000,155.000000 -482.000000C155.000000 -508.000000,137.000000 -534.000000,102.000000 -534.000000C94.000000 -534.000000,92.000000 -534.000000,89.000000 -533.000000C112.000000 -598.000000,166.000000 -635.000000,224.000000 -635.000000C315.000000 -635.000000,358.000000 -554.000000,358.000000 -472.000000C358.000000 -392.000000,308.000000 -313.000000,253.000000 -251.000000L61.000000 -37.000000C50.000000 -26.000000,50.000000 -24.000000,50.000000 -0.000000L421.000000 -0.000000L449.000000 -174.000000L424.000000 -174.000000C419.000000 -144.000000,412.000000 -100.000000,402.000000 -85.000000C395.000000 -77.000000,329.000000 -77.000000,307.000000 -77.000000"></path>
    </g>
    <g transform="scale(0.009963,0.009963)" id="GLYPHcmr10_51">
      <path style="fill-rule: evenodd;" d="M290.000000 -352.000000C372.000000 -379.000000,430.000000 -449.000000,430.000000 -528.000000C430.000000 -610.000000,342.000000 -666.000000,246.000000 -666.000000C145.000000 -666.000000,69.000000 -606.000000,69.000000 -530.000000C69.000000 -497.000000,91.000000 -478.000000,120.000000 -478.000000C151.000000 -478.000000,171.000000 -500.000000,171.000000 -529.000000C171.000000 -579.000000,124.000000 -579.000000,109.000000 -579.000000C140.000000 -628.000000,206.000000 -641.000000,242.000000 -641.000000C283.000000 -641.000000,338.000000 -619.000000,338.000000 -529.000000C338.000000 -517.000000,336.000000 -459.000000,310.000000 -415.000000C280.000000 -367.000000,246.000000 -364.000000,221.000000 -363.000000C213.000000 -362.000000,189.000000 -360.000000,182.000000 -360.000000C174.000000 -359.000000,167.000000 -358.000000,167.000000 -348.000000C167.000000 -337.000000,174.000000 -337.000000,191.000000 -337.000000L235.000000 -337.000000C317.000000 -337.000000,354.000000 -269.000000,354.000000 -171.000000C354.000000 -35.000000,285.000000 -6.000000,241.000000 -6.000000C198.000000 -6.000000,123.000000 -23.000000,88.000000 -82.000000C123.000000 -77.000000,154.000000 -99.000000,154.000000 -137.000000C154.000000 -173.000000,127.000000 -193.000000,98.000000 -193.000000C74.000000 -193.000000,42.000000 -179.000000,42.000000 -135.000000C42.000000 -44.000000,135.000000 22.000000,244.000000 22.000000C366.000000 22.000000,457.000000 -69.000000,457.000000 -171.000000C457.000000 -253.000000,394.000000 -331.000000,290.000000 -352.000000"></path>
    </g>
    <g transform="scale(0.009963,0.009963)" id="GLYPHcmr10_52">
      <path style="fill-rule: evenodd;" d="M294.000000 -165.000000L294.000000 -78.000000C294.000000 -42.000000,292.000000 -31.000000,218.000000 -31.000000L197.000000 -31.000000L197.000000 -0.000000L332.000000 -0.000000L238.000000 -3.000000L290.000000 -3.000000L332.000000 -3.000000L374.000000 -3.000000L427.000000 -3.000000L468.000000 -0.000000L468.000000 -31.000000L447.000000 -31.000000C373.000000 -31.000000,371.000000 -42.000000,371.000000 -78.000000L371.000000 -165.000000L471.000000 -165.000000L471.000000 -196.000000L371.000000 -196.000000L371.000000 -651.000000C371.000000 -671.000000,371.000000 -677.000000,355.000000 -677.000000C346.000000 -677.000000,343.000000 -677.000000,335.000000 -665.000000L28.000000 -196.000000L28.000000 -165.000000M300.000000 -196.000000L56.000000 -196.000000L300.000000 -569.000000"></path>
    </g>
    <g transform="scale(0.009963,0.009963)" id="GLYPHcmr10_53">
      <path style="fill-rule: evenodd;" d="M449.000000 -201.000000C449.000000 -320.000000,367.000000 -420.000000,259.000000 -420.000000C211.000000 -420.000000,168.000000 -404.000000,132.000000 -369.000000L132.000000 -564.000000C152.000000 -558.000000,185.000000 -551.000000,217.000000 -551.000000C340.000000 -551.000000,410.000000 -642.000000,410.000000 -655.000000C410.000000 -661.000000,407.000000 -666.000000,400.000000 -666.000000C399.000000 -666.000000,397.000000 -666.000000,392.000000 -663.000000C372.000000 -654.000000,323.000000 -634.000000,256.000000 -634.000000C216.000000 -634.000000,170.000000 -641.000000,123.000000 -662.000000C115.000000 -665.000000,113.000000 -665.000000,111.000000 -665.000000C101.000000 -665.000000,101.000000 -657.000000,101.000000 -641.000000L101.000000 -345.000000C101.000000 -327.000000,101.000000 -319.000000,115.000000 -319.000000C122.000000 -319.000000,124.000000 -322.000000,128.000000 -328.000000C139.000000 -344.000000,176.000000 -398.000000,257.000000 -398.000000C309.000000 -398.000000,334.000000 -352.000000,342.000000 -334.000000C358.000000 -297.000000,360.000000 -258.000000,360.000000 -208.000000C360.000000 -173.000000,360.000000 -113.000000,336.000000 -71.000000C312.000000 -32.000000,275.000000 -6.000000,229.000000 -6.000000C156.000000 -6.000000,99.000000 -59.000000,82.000000 -118.000000C85.000000 -117.000000,88.000000 -116.000000,99.000000 -116.000000C132.000000 -116.000000,149.000000 -141.000000,149.000000 -165.000000C149.000000 -189.000000,132.000000 -214.000000,99.000000 -214.000000C85.000000 -214.000000,50.000000 -207.000000,50.000000 -161.000000C50.000000 -75.000000,119.000000 22.000000,231.000000 22.000000C347.000000 22.000000,449.000000 -74.000000,449.000000 -201.000000"></path>
    </g>
    <g transform="scale(0.009963,0.009963)" id="GLYPHcmr10_54">
      <path style="fill-rule: evenodd;" d="M132.000000 -328.000000L132.000000 -352.000000C132.000000 -605.000000,256.000000 -641.000000,307.000000 -641.000000C331.000000 -641.000000,373.000000 -635.000000,395.000000 -601.000000C380.000000 -601.000000,340.000000 -601.000000,340.000000 -556.000000C340.000000 -525.000000,364.000000 -510.000000,386.000000 -510.000000C402.000000 -510.000000,432.000000 -519.000000,432.000000 -558.000000C432.000000 -618.000000,388.000000 -666.000000,305.000000 -666.000000C177.000000 -666.000000,42.000000 -537.000000,42.000000 -316.000000C42.000000 -49.000000,158.000000 22.000000,251.000000 22.000000C362.000000 22.000000,457.000000 -72.000000,457.000000 -204.000000C457.000000 -331.000000,368.000000 -427.000000,257.000000 -427.000000C189.000000 -427.000000,152.000000 -376.000000,132.000000 -328.000000M251.000000 -6.000000C188.000000 -6.000000,158.000000 -66.000000,152.000000 -81.000000C134.000000 -128.000000,134.000000 -208.000000,134.000000 -226.000000C134.000000 -304.000000,166.000000 -404.000000,256.000000 -404.000000C272.000000 -404.000000,318.000000 -404.000000,349.000000 -342.000000C367.000000 -305.000000,367.000000 -254.000000,367.000000 -205.000000C367.000000 -157.000000,367.000000 -107.000000,350.000000 -71.000000C320.000000 -11.000000,274.000000 -6.000000,251.000000 -6.000000"></path>
    </g>
    <g transform="scale(0.009963,0.009963)" id="GLYPHcmr10_55">
      <path style="fill-rule: evenodd;" d="M476.000000 -609.000000C485.000000 -621.000000,485.000000 -623.000000,485.000000 -644.000000L242.000000 -644.000000C120.000000 -644.000000,118.000000 -657.000000,114.000000 -676.000000L89.000000 -676.000000L56.000000 -470.000000L81.000000 -470.000000C84.000000 -486.000000,93.000000 -549.000000,106.000000 -561.000000C113.000000 -567.000000,191.000000 -567.000000,204.000000 -567.000000L411.000000 -567.000000C400.000000 -551.000000,321.000000 -442.000000,299.000000 -409.000000C209.000000 -274.000000,176.000000 -135.000000,176.000000 -33.000000C176.000000 -23.000000,176.000000 22.000000,222.000000 22.000000C268.000000 22.000000,268.000000 -23.000000,268.000000 -33.000000L268.000000 -84.000000C268.000000 -139.000000,271.000000 -194.000000,279.000000 -248.000000C283.000000 -271.000000,297.000000 -357.000000,341.000000 -419.000000"></path>
    </g>
    <g transform="scale(0.009963,0.009963)" id="GLYPHcmr10_56">
      <path style="fill-rule: evenodd;" d="M163.000000 -457.000000C117.000000 -487.000000,113.000000 -521.000000,113.000000 -538.000000C113.000000 -599.000000,178.000000 -641.000000,249.000000 -641.000000C322.000000 -641.000000,386.000000 -589.000000,386.000000 -517.000000C386.000000 -460.000000,347.000000 -412.000000,287.000000 -377.000000M309.000000 -362.000000C381.000000 -399.000000,430.000000 -451.000000,430.000000 -517.000000C430.000000 -609.000000,341.000000 -666.000000,250.000000 -666.000000C150.000000 -666.000000,69.000000 -592.000000,69.000000 -499.000000C69.000000 -481.000000,71.000000 -436.000000,113.000000 -389.000000C124.000000 -377.000000,161.000000 -352.000000,186.000000 -335.000000C128.000000 -306.000000,42.000000 -250.000000,42.000000 -151.000000C42.000000 -45.000000,144.000000 22.000000,249.000000 22.000000C362.000000 22.000000,457.000000 -61.000000,457.000000 -168.000000C457.000000 -204.000000,446.000000 -249.000000,408.000000 -291.000000C389.000000 -312.000000,373.000000 -322.000000,309.000000 -362.000000M209.000000 -320.000000L332.000000 -242.000000C360.000000 -223.000000,407.000000 -193.000000,407.000000 -132.000000C407.000000 -58.000000,332.000000 -6.000000,250.000000 -6.000000C164.000000 -6.000000,92.000000 -68.000000,92.000000 -151.000000C92.000000 -209.000000,124.000000 -273.000000,209.000000 -320.000000"></path>
    </g>
    <g transform="scale(0.009963,0.009963)" id="GLYPHcmr10_57">
      <path style="fill-rule: evenodd;" d="M367.000000 -318.000000L367.000000 -286.000000C367.000000 -52.000000,263.000000 -6.000000,205.000000 -6.000000C188.000000 -6.000000,134.000000 -8.000000,107.000000 -42.000000C151.000000 -42.000000,159.000000 -71.000000,159.000000 -88.000000C159.000000 -119.000000,135.000000 -134.000000,113.000000 -134.000000C97.000000 -134.000000,67.000000 -125.000000,67.000000 -86.000000C67.000000 -19.000000,121.000000 22.000000,206.000000 22.000000C335.000000 22.000000,457.000000 -114.000000,457.000000 -329.000000C457.000000 -598.000000,342.000000 -666.000000,253.000000 -666.000000C198.000000 -666.000000,149.000000 -648.000000,106.000000 -603.000000C65.000000 -558.000000,42.000000 -516.000000,42.000000 -441.000000C42.000000 -316.000000,130.000000 -218.000000,242.000000 -218.000000C303.000000 -218.000000,344.000000 -260.000000,367.000000 -318.000000M243.000000 -241.000000C227.000000 -241.000000,181.000000 -241.000000,150.000000 -304.000000C132.000000 -341.000000,132.000000 -391.000000,132.000000 -440.000000C132.000000 -494.000000,132.000000 -541.000000,153.000000 -578.000000C180.000000 -628.000000,218.000000 -641.000000,253.000000 -641.000000C299.000000 -641.000000,332.000000 -607.000000,349.000000 -562.000000C361.000000 -530.000000,365.000000 -467.000000,365.000000 -421.000000C365.000000 -338.000000,331.000000 -241.000000,243.000000 -241.000000"></path>
    </g>
  </defs>
  <path d="M69.860367 190.719711C69.860367 189.927017,69.545425 189.166870,68.984940 188.606400C68.424469 188.045914,67.664322 187.730972,66.871628 187.730972C66.078934 187.730972,65.318787 188.045914,64.758316 188.606400C64.197830 189.166870,63.882889 189.927017,63.882889 190.719711C63.882889 191.512405,64.197830 192.272552,64.758316 192.833023C65.318787 193.393509,66.078934 193.708450,66.871628 193.708450C67.664322 193.708450,68.424469 193.393509,68.984940 192.833023C69.545425 192.272552,69.860367 191.512405,69.860367 190.719711Z" style="fill: rgb(100.000000%,100.000000%,100.000000%);stroke: none;"></path>
  <path d="M92.704315 191.174789C92.704315 190.382095,92.389374 189.621948,91.828888 189.061478C91.268417 188.500992,90.508270 188.186050,89.715576 188.186050C88.922882 188.186050,88.162735 188.500992,87.602264 189.061478C87.041779 189.621948,86.726837 190.382095,86.726837 191.174789C86.726837 191.967484,87.041779 192.727631,87.602264 193.288101C88.162735 193.848587,88.922882 194.163528,89.715576 194.163528C90.508270 194.163528,91.268417 193.848587,91.828888 193.288101C92.389374 192.727631,92.704315 191.967484,92.704315 191.174789Z" style="fill: rgb(100.000000%,100.000000%,100.000000%);stroke: none;"></path>
  <path d="M42.984909 136.796356C42.984909 136.003662,42.669968 135.243515,42.109482 134.683044C41.549011 134.122559,40.788864 133.807617,39.996170 133.807617C39.203476 133.807617,38.443329 134.122559,37.882858 134.683044C37.322372 135.243515,37.007431 136.003662,37.007431 136.796356C37.007431 137.589050,37.322372 138.349197,37.882858 138.909668C38.443329 139.470154,39.203476 139.785095,39.996170 139.785095C40.788864 139.785095,41.549011 139.470154,42.109482 138.909668C42.669968 138.349197,42.984909 137.589050,42.984909 136.796356Z" style="fill: rgb(100.000000%,100.000000%,100.000000%);stroke: none;"></path>
  <path d="M50.417358 174.415176C50.417358 173.622482,50.102417 172.862335,49.541931 172.301865C48.981461 171.741379,48.221313 171.426437,47.428619 171.426437C46.635925 171.426437,45.875778 171.741379,45.315308 172.301865C44.754822 172.862335,44.439880 173.622482,44.439880 174.415176C44.439880 175.207870,44.754822 175.968018,45.315308 176.528488C45.875778 177.088974,46.635925 177.403915,47.428619 177.403915C48.221313 177.403915,48.981461 177.088974,49.541931 176.528488C50.102417 175.968018,50.417358 175.207870,50.417358 174.415176Z" style="fill: rgb(100.000000%,100.000000%,100.000000%);stroke: none;"></path>
  <path d="M47.353851 98.036316C47.353851 97.243622,47.038910 96.483475,46.478424 95.923004C45.917953 95.362518,45.157806 95.047577,44.365112 95.047577C43.572418 95.047577,42.812271 95.362518,42.251801 95.923004C41.691315 96.483475,41.376373 97.243622,41.376373 98.036316C41.376373 98.829010,41.691315 99.589157,42.251801 100.149628C42.812271 100.710114,43.572418 101.025055,44.365112 101.025055C45.157806 101.025055,45.917953 100.710114,46.478424 100.149628C47.038910 99.589157,47.353851 98.829010,47.353851 98.036316Z" style="fill: rgb(100.000000%,100.000000%,100.000000%);stroke: none;"></path>
  <path d="M47.870682 121.373199C47.870682 120.580505,47.555740 119.820358,46.995255 119.259888C46.434784 118.699402,45.674637 118.384460,44.881943 118.384460C44.089249 118.384460,43.329102 118.699402,42.768631 119.259888C42.208145 119.820358,41.893204 120.580505,41.893204 121.373199C41.893204 122.165894,42.208145 122.926041,42.768631 123.486511C43.329102 124.046997,44.089249 124.361938,44.881943 124.361938C45.674637 124.361938,46.434784 124.046997,46.995255 123.486511C47.555740 122.926041,47.870682 122.165894,47.870682 121.373199Z" style="fill: rgb(100.000000%,100.000000%,100.000000%);stroke: none;"></path>
  <path d="M46.130127 76.265610C46.130127 75.472916,45.815186 74.712769,45.254700 74.152298C44.694229 73.591812,43.934082 73.276871,43.141388 73.276871C42.348694 73.276871,41.588547 73.591812,41.028076 74.152298C40.467590 74.712769,40.152649 75.472916,40.152649 76.265610C40.152649 77.058304,40.467590 77.818451,41.028076 78.378922C41.588547 78.939407,42.348694 79.254349,43.141388 79.254349C43.934082 79.254349,44.694229 78.939407,45.254700 78.378922C45.815186 77.818451,46.130127 77.058304,46.130127 76.265610Z" style="fill: rgb(100.000000%,100.000000%,100.000000%);stroke: none;"></path>
  <path d="M45.804001 90.210953C45.804001 89.418259,45.489059 88.658112,44.928574 88.097641C44.368103 87.537155,43.607956 87.222214,42.815262 87.222214C42.022568 87.222214,41.262421 87.537155,40.701950 88.097641C40.141464 88.658112,39.826523 89.418259,39.826523 90.210953C39.826523 91.003647,40.141464 91.763794,40.701950 92.324265C41.262421 92.884750,42.022568 93.199692,42.815262 93.199692C43.607956 93.199692,44.368103 92.884750,44.928574 92.324265C45.489059 91.763794,45.804001 91.003647,45.804001 90.210953Z" style="fill: rgb(100.000000%,100.000000%,100.000000%);stroke: none;"></path>
  <path d="M39.421722 58.179153C39.421722 57.386459,39.106781 56.626312,38.546295 56.065842C37.985825 55.505356,37.225677 55.190414,36.432983 55.190414C35.640289 55.190414,34.880142 55.505356,34.319672 56.065842C33.759186 56.626312,33.444244 57.386459,33.444244 58.179153C33.444244 58.971848,33.759186 59.731995,34.319672 60.292465C34.880142 60.852951,35.640289 61.167892,36.432983 61.167892C37.225677 61.167892,37.985825 60.852951,38.546295 60.292465C39.106781 59.731995,39.421722 58.971848,39.421722 58.179153Z" style="fill: rgb(100.000000%,100.000000%,100.000000%);stroke: none;"></path>
  <path d="M47.146576 69.853394C47.146576 69.060699,46.831635 68.300552,46.271149 67.740082C45.710678 67.179596,44.950531 66.864655,44.157837 66.864655C43.365143 66.864655,42.604996 67.179596,42.044525 67.740082C41.484039 68.300552,41.169098 69.060699,41.169098 69.853394C41.169098 70.646088,41.484039 71.406235,42.044525 71.966705C42.604996 72.527191,43.365143 72.842133,44.157837 72.842133C44.950531 72.842133,45.710678 72.527191,46.271149 71.966705C46.831635 71.406235,47.146576 70.646088,47.146576 69.853394Z" style="fill: rgb(100.000000%,100.000000%,100.000000%);stroke: none;"></path>
  <path d="M5.379974 69.521393C5.379974 68.728699,5.065033 67.968552,4.504547 67.408081C3.944077 66.847595,3.183929 66.532654,2.391235 66.532654C1.598541 66.532654,0.838394 66.847595,0.277924 67.408081C-0.282562 67.968552,-0.597504 68.728699,-0.597504 69.521393C-0.597504 70.314087,-0.282562 71.074234,0.277924 71.634705C0.838394 72.195190,1.598541 72.510132,2.391235 72.510132C3.183929 72.510132,3.944077 72.195190,4.504547 71.634705C5.065033 71.074234,5.379974 70.314087,5.379974 69.521393Z" style="fill: rgb(100.000000%,100.000000%,100.000000%);stroke: none;"></path>
  <path d="M30.396957 57.021164C30.396957 56.228470,30.082016 55.468323,29.521530 54.907852C28.961060 54.347366,28.200912 54.032425,27.408218 54.032425C26.615524 54.032425,25.855377 54.347366,25.294907 54.907852C24.734421 55.468323,24.419479 56.228470,24.419479 57.021164C24.419479 57.813858,24.734421 58.574005,25.294907 59.134476C25.855377 59.694962,26.615524 60.009903,27.408218 60.009903C28.200912 60.009903,28.961060 59.694962,29.521530 59.134476C30.082016 58.574005,30.396957 57.813858,30.396957 57.021164Z" style="fill: rgb(100.000000%,100.000000%,100.000000%);stroke: none;"></path>
  <path d="M17.410675 133.293152C17.410675 132.500458,17.095734 131.740311,16.535248 131.179840C15.974777 130.619354,15.214630 130.304413,14.421936 130.304413C13.629242 130.304413,12.869095 130.619354,12.308624 131.179840C11.748138 131.740311,11.433197 132.500458,11.433197 133.293152C11.433197 134.085846,11.748138 134.845993,12.308624 135.406464C12.869095 135.966949,13.629242 136.281891,14.421936 136.281891C15.214630 136.281891,15.974777 135.966949,16.535248 135.406464C17.095734 134.845993,17.410675 134.085846,17.410675 133.293152Z" style="fill: rgb(100.000000%,100.000000%,100.000000%);stroke: none;"></path>
  <path d="M6.640396 93.167892C6.640396 92.375198,6.325455 91.615051,5.764969 91.054581C5.204498 90.494095,4.444351 90.179153,3.651657 90.179153C2.858963 90.179153,2.098816 90.494095,1.538345 91.054581C0.977859 91.615051,0.662918 92.375198,0.662918 93.167892C0.662918 93.960587,0.977859 94.720734,1.538345 95.281204C2.098816 95.841690,2.858963 96.156631,3.651657 96.156631C4.444351 96.156631,5.204498 95.841690,5.764969 95.281204C6.325455 94.720734,6.640396 93.960587,6.640396 93.167892Z" style="fill: rgb(100.000000%,100.000000%,100.000000%);stroke: none;"></path>
  <path d="M60.741699 151.111679C60.741699 150.318985,60.426758 149.558838,59.866272 148.998367C59.305801 148.437881,58.545654 148.122940,57.752960 148.122940C56.960266 148.122940,56.200119 148.437881,55.639648 148.998367C55.079163 149.558838,54.764221 150.318985,54.764221 151.111679C54.764221 151.904373,55.079163 152.664520,55.639648 153.224991C56.200119 153.785477,56.960266 154.100418,57.752960 154.100418C58.545654 154.100418,59.305801 153.785477,59.866272 153.224991C60.426758 152.664520,60.741699 151.904373,60.741699 151.111679Z" style="fill: rgb(100.000000%,100.000000%,100.000000%);stroke: none;"></path>
  <path d="M27.476364 153.114700C27.476364 152.322006,27.161423 151.561859,26.600937 151.001389C26.040466 150.440903,25.280319 150.125961,24.487625 150.125961C23.694931 150.125961,22.934784 150.440903,22.374313 151.001389C21.813828 151.561859,21.498886 152.322006,21.498886 153.114700C21.498886 153.907394,21.813828 154.667542,22.374313 155.228012C22.934784 155.788498,23.694931 156.103439,24.487625 156.103439C25.280319 156.103439,26.040466 155.788498,26.600937 155.228012C27.161423 154.667542,27.476364 153.907394,27.476364 153.114700Z" style="fill: rgb(100.000000%,100.000000%,100.000000%);stroke: none;"></path>
  <path d="M74.374771 112.471008C74.374771 111.678314,74.059830 110.918167,73.499344 110.357697C72.938873 109.797211,72.178726 109.482269,71.386032 109.482269C70.593338 109.482269,69.833191 109.797211,69.272720 110.357697C68.712234 110.918167,68.397293 111.678314,68.397293 112.471008C68.397293 113.263702,68.712234 114.023849,69.272720 114.584320C69.833191 115.144806,70.593338 115.459747,71.386032 115.459747C72.178726 115.459747,72.938873 115.144806,73.499344 114.584320C74.059830 114.023849,74.374771 113.263702,74.374771 112.471008Z" style="fill: rgb(100.000000%,100.000000%,100.000000%);stroke: none;"></path>
  <path d="M69.549576 136.577942C69.549576 135.785248,69.234634 135.025101,68.674149 134.464630C68.113678 133.904144,67.353531 133.589203,66.560837 133.589203C65.768143 133.589203,65.007996 133.904144,64.447525 134.464630C63.887039 135.025101,63.572098 135.785248,63.572098 136.577942C63.572098 137.370636,63.887039 138.130783,64.447525 138.691254C65.007996 139.251740,65.768143 139.566681,66.560837 139.566681C67.353531 139.566681,68.113678 139.251740,68.674149 138.691254C69.234634 138.130783,69.549576 137.370636,69.549576 136.577942Z" style="fill: rgb(100.000000%,100.000000%,100.000000%);stroke: none;"></path>
  <path d="M79.486633 90.426361C79.486633 89.633667,79.171692 88.873520,78.611206 88.313049C78.050735 87.752563,77.290588 87.437622,76.497894 87.437622C75.705200 87.437622,74.945053 87.752563,74.384583 88.313049C73.824097 88.873520,73.509155 89.633667,73.509155 90.426361C73.509155 91.219055,73.824097 91.979202,74.384583 92.539673C74.945053 93.100159,75.705200 93.415100,76.497894 93.415100C77.290588 93.415100,78.050735 93.100159,78.611206 92.539673C79.171692 91.979202,79.486633 91.219055,79.486633 90.426361Z" style="fill: rgb(100.000000%,100.000000%,100.000000%);stroke: none;"></path>
  <path d="M74.754898 103.309128C74.754898 102.516434,74.439957 101.756287,73.879471 101.195816C73.319000 100.635330,72.558853 100.320389,71.766159 100.320389C70.973465 100.320389,70.213318 100.635330,69.652847 101.195816C69.092361 101.756287,68.777420 102.516434,68.777420 103.309128C68.777420 104.101822,69.092361 104.861969,69.652847 105.422440C70.213318 105.982925,70.973465 106.297867,71.766159 106.297867C72.558853 106.297867,73.319000 105.982925,73.879471 105.422440C74.439957 104.861969,74.754898 104.101822,74.754898 103.309128Z" style="fill: rgb(100.000000%,100.000000%,100.000000%);stroke: none;"></path>
  <path d="M76.942749 79.437332C76.942749 78.644638,76.627808 77.884491,76.067322 77.324020C75.506851 76.763535,74.746704 76.448593,73.954010 76.448593C73.161316 76.448593,72.401169 76.763535,71.840698 77.324020C71.280212 77.884491,70.965271 78.644638,70.965271 79.437332C70.965271 80.230026,71.280212 80.990173,71.840698 81.550644C72.401169 82.111130,73.161316 82.426071,73.954010 82.426071C74.746704 82.426071,75.506851 82.111130,76.067322 81.550644C76.627808 80.990173,76.942749 80.230026,76.942749 79.437332Z" style="fill: rgb(100.000000%,100.000000%,100.000000%);stroke: none;"></path>
  <path d="M81.542236 85.594315C81.542236 84.801620,81.227295 84.041473,80.666809 83.481003C80.106339 82.920517,79.346191 82.605576,78.553497 82.605576C77.760803 82.605576,77.000656 82.920517,76.440186 83.481003C75.879700 84.041473,75.564758 84.801620,75.564758 85.594315C75.564758 86.387009,75.879700 87.147156,76.440186 87.707626C77.000656 88.268112,77.760803 88.583054,78.553497 88.583054C79.346191 88.583054,80.106339 88.268112,80.666809 87.707626C81.227295 87.147156,81.542236 86.387009,81.542236 85.594315Z" style="fill: rgb(100.000000%,100.000000%,100.000000%);stroke: none;"></path>
  <path d="M66.570801 78.056488C66.570801 77.263794,66.255859 76.503647,65.695374 75.943176C65.134903 75.382690,64.374756 75.067749,63.582062 75.067749C62.789368 75.067749,62.029221 75.382690,61.468750 75.943176C60.908264 76.503647,60.593323 77.263794,60.593323 78.056488C60.593323 78.849182,60.908264 79.609329,61.468750 80.169800C62.029221 80.730286,62.789368 81.045227,63.582062 81.045227C64.374756 81.045227,65.134903 80.730286,65.695374 80.169800C66.255859 79.609329,66.570801 78.849182,66.570801 78.056488Z" style="fill: rgb(100.000000%,100.000000%,100.000000%);stroke: none;"></path>
  <path d="M73.696625 78.834854C73.696625 78.042160,73.381683 77.282013,72.821198 76.721542C72.260727 76.161057,71.500580 75.846115,70.707886 75.846115C69.915192 75.846115,69.155045 76.161057,68.594574 76.721542C68.034088 77.282013,67.719147 78.042160,67.719147 78.834854C67.719147 79.627548,68.034088 80.387695,68.594574 80.948166C69.155045 81.508652,69.915192 81.823593,70.707886 81.823593C71.500580 81.823593,72.260727 81.508652,72.821198 80.948166C73.381683 80.387695,73.696625 79.627548,73.696625 78.834854Z" style="fill: rgb(100.000000%,100.000000%,100.000000%);stroke: none;"></path>
  <path d="M54.154709 79.189713C54.154709 78.397018,53.839767 77.636871,53.279282 77.076401C52.718811 76.515915,51.958664 76.200974,51.165970 76.200974C50.373276 76.200974,49.613129 76.515915,49.052658 77.076401C48.492172 77.636871,48.177231 78.397018,48.177231 79.189713C48.177231 79.982407,48.492172 80.742554,49.052658 81.303024C49.613129 81.863510,50.373276 82.178452,51.165970 82.178452C51.958664 82.178452,52.718811 81.863510,53.279282 81.303024C53.839767 80.742554,54.154709 79.982407,54.154709 79.189713Z" style="fill: rgb(100.000000%,100.000000%,100.000000%);stroke: none;"></path>
  <path d="M62.479156 77.831970C62.479156 77.039276,62.164215 76.279129,61.603729 75.718658C61.043259 75.158173,60.283112 74.843231,59.490417 74.843231C58.697723 74.843231,57.937576 75.158173,57.377106 75.718658C56.816620 76.279129,56.501678 77.039276,56.501678 77.831970C56.501678 78.624664,56.816620 79.384811,57.377106 79.945282C57.937576 80.505768,58.697723 80.820709,59.490417 80.820709C60.283112 80.820709,61.043259 80.505768,61.603729 79.945282C62.164215 79.384811,62.479156 78.624664,62.479156 77.831970Z" style="fill: rgb(100.000000%,100.000000%,100.000000%);stroke: none;"></path>
  <path d="M42.614624 83.491028C42.614624 82.698334,42.299683 81.938187,41.739197 81.377716C41.178726 80.817230,40.418579 80.502289,39.625885 80.502289C38.833191 80.502289,38.073044 80.817230,37.512573 81.377716C36.952087 81.938187,36.637146 82.698334,36.637146 83.491028C36.637146 84.283722,36.952087 85.043869,37.512573 85.604340C38.073044 86.164825,38.833191 86.479767,39.625885 86.479767C40.418579 86.479767,41.178726 86.164825,41.739197 85.604340C42.299683 85.043869,42.614624 84.283722,42.614624 83.491028Z" style="fill: rgb(100.000000%,100.000000%,100.000000%);stroke: none;"></path>
  <path d="M50.101089 80.874054C50.101089 80.081360,49.786148 79.321213,49.225662 78.760742C48.665192 78.200256,47.905045 77.885315,47.112350 77.885315C46.319656 77.885315,45.559509 78.200256,44.999039 78.760742C44.438553 79.321213,44.123611 80.081360,44.123611 80.874054C44.123611 81.666748,44.438553 82.426895,44.999039 82.987366C45.559509 83.547852,46.319656 83.862793,47.112350 83.862793C47.905045 83.862793,48.665192 83.547852,49.225662 82.987366C49.786148 82.426895,50.101089 81.666748,50.101089 80.874054Z" style="fill: rgb(100.000000%,100.000000%,100.000000%);stroke: none;"></path>
  <path d="M26.149643 81.887222C26.149643 81.094528,25.834702 80.334381,25.274216 79.773911C24.713745 79.213425,23.953598 78.898483,23.160904 78.898483C22.368210 78.898483,21.608063 79.213425,21.047592 79.773911C20.487106 80.334381,20.172165 81.094528,20.172165 81.887222C20.172165 82.679916,20.487106 83.440063,21.047592 84.000534C21.608063 84.561020,22.368210 84.875961,23.160904 84.875961C23.953598 84.875961,24.713745 84.561020,25.274216 84.000534C25.834702 83.440063,26.149643 82.679916,26.149643 81.887222Z" style="fill: rgb(100.000000%,100.000000%,100.000000%);stroke: none;"></path>
  <path d="M39.077209 84.510559C39.077209 83.717865,38.762268 82.957718,38.201782 82.397247C37.641312 81.836761,36.881165 81.521820,36.088470 81.521820C35.295776 81.521820,34.535629 81.836761,33.975159 82.397247C33.414673 82.957718,33.099731 83.717865,33.099731 84.510559C33.099731 85.303253,33.414673 86.063400,33.975159 86.623871C34.535629 87.184357,35.295776 87.499298,36.088470 87.499298C36.881165 87.499298,37.641312 87.184357,38.201782 86.623871C38.762268 86.063400,39.077209 85.303253,39.077209 84.510559Z" style="fill: rgb(100.000000%,100.000000%,100.000000%);stroke: none;"></path>
  <path d="M23.597336 42.478485C23.597336 41.685791,23.282394 40.925644,22.721909 40.365173C22.161438 39.804688,21.401291 39.489746,20.608597 39.489746C19.815903 39.489746,19.055756 39.804688,18.495285 40.365173C17.934799 40.925644,17.619858 41.685791,17.619858 42.478485C17.619858 43.271179,17.934799 44.031326,18.495285 44.591797C19.055756 45.152283,19.815903 45.467224,20.608597 45.467224C21.401291 45.467224,22.161438 45.152283,22.721909 44.591797C23.282394 44.031326,23.597336 43.271179,23.597336 42.478485Z" style="fill: rgb(100.000000%,100.000000%,100.000000%);stroke: none;"></path>
  <path d="M22.740494 71.051498C22.740494 70.258804,22.425552 69.498657,21.865067 68.938187C21.304596 68.377701,20.544449 68.062759,19.751755 68.062759C18.959061 68.062759,18.198914 68.377701,17.638443 68.938187C17.077957 69.498657,16.763016 70.258804,16.763016 71.051498C16.763016 71.844193,17.077957 72.604340,17.638443 73.164810C18.198914 73.725296,18.959061 74.040237,19.751755 74.040237C20.544449 74.040237,21.304596 73.725296,21.865067 73.164810C22.425552 72.604340,22.740494 71.844193,22.740494 71.051498Z" style="fill: rgb(100.000000%,100.000000%,100.000000%);stroke: none;"></path>
  <path d="M58.443039 4.935837C58.443039 4.143143,58.128098 3.382996,57.567612 2.822525C57.007141 2.262039,56.246994 1.947098,55.454300 1.947098C54.661606 1.947098,53.901459 2.262039,53.340988 2.822525C52.780502 3.382996,52.465561 4.143143,52.465561 4.935837C52.465561 5.728531,52.780502 6.488678,53.340988 7.049149C53.901459 7.609634,54.661606 7.924576,55.454300 7.924576C56.246994 7.924576,57.007141 7.609634,57.567612 7.049149C58.128098 6.488678,58.443039 5.728531,58.443039 4.935837Z" style="fill: rgb(100.000000%,100.000000%,100.000000%);stroke: none;"></path>
  <path d="M30.951477 24.784241C30.951477 23.991547,30.636536 23.231400,30.076050 22.670929C29.515579 22.110443,28.755432 21.795502,27.962738 21.795502C27.170044 21.795502,26.409897 22.110443,25.849426 22.670929C25.288940 23.231400,24.973999 23.991547,24.973999 24.784241C24.973999 25.576935,25.288940 26.337082,25.849426 26.897552C26.409897 27.458038,27.170044 27.772980,27.962738 27.772980C28.755432 27.772980,29.515579 27.458038,30.076050 26.897552C30.636536 26.337082,30.951477 25.576935,30.951477 24.784241Z" style="fill: rgb(100.000000%,100.000000%,100.000000%);stroke: none;"></path>
  <path d="M98.794830 22.005035C98.794830 21.212341,98.479889 20.452194,97.919403 19.891724C97.358932 19.331238,96.598785 19.016296,95.806091 19.016296C95.013397 19.016296,94.253250 19.331238,93.692780 19.891724C93.132294 20.452194,92.817352 21.212341,92.817352 22.005035C92.817352 22.797729,93.132294 23.557877,93.692780 24.118347C94.253250 24.678833,95.013397 24.993774,95.806091 24.993774C96.598785 24.993774,97.358932 24.678833,97.919403 24.118347C98.479889 23.557877,98.794830 22.797729,98.794830 22.005035Z" style="fill: rgb(100.000000%,100.000000%,100.000000%);stroke: none;"></path>
  <path d="M75.542038 2.914001C75.542038 2.121307,75.227097 1.361160,74.666611 0.800690C74.106140 0.240204,73.345993 -0.074738,72.553299 -0.074738C71.760605 -0.074738,71.000458 0.240204,70.439987 0.800690C69.879501 1.361160,69.564560 2.121307,69.564560 2.914001C69.564560 3.706696,69.879501 4.466843,70.439987 5.027313C71.000458 5.587799,71.760605 5.902740,72.553299 5.902740C73.345993 5.902740,74.106140 5.587799,74.666611 5.027313C75.227097 4.466843,75.542038 3.706696,75.542038 2.914001Z" style="fill: rgb(100.000000%,100.000000%,100.000000%);stroke: none;"></path>
  <path d="M101.411469 60.409622C101.411469 59.616928,101.096527 58.856781,100.536041 58.296310C99.975571 57.735825,99.215424 57.420883,98.422729 57.420883C97.630035 57.420883,96.869888 57.735825,96.309418 58.296310C95.748932 58.856781,95.433990 59.616928,95.433990 60.409622C95.433990 61.202316,95.748932 61.962463,96.309418 62.522934C96.869888 63.083420,97.630035 63.398361,98.422729 63.398361C99.215424 63.398361,99.975571 63.083420,100.536041 62.522934C101.096527 61.962463,101.411469 61.202316,101.411469 60.409622Z" style="fill: rgb(100.000000%,100.000000%,100.000000%);stroke: none;"></path>
  <path d="M99.763336 37.978378C99.763336 37.185684,99.448395 36.425537,98.887909 35.865067C98.327438 35.304581,97.567291 34.989639,96.774597 34.989639C95.981903 34.989639,95.221756 35.304581,94.661285 35.865067C94.100800 36.425537,93.785858 37.185684,93.785858 37.978378C93.785858 38.771072,94.100800 39.531219,94.661285 40.091690C95.221756 40.652176,95.981903 40.967117,96.774597 40.967117C97.567291 40.967117,98.327438 40.652176,98.887909 40.091690C99.448395 39.531219,99.763336 38.771072,99.763336 37.978378Z" style="fill: rgb(100.000000%,100.000000%,100.000000%);stroke: none;"></path>
  <path d="M104.453369 78.140305C104.453369 77.347610,104.138428 76.587463,103.577942 76.026993C103.017471 75.466507,102.257324 75.151566,101.464630 75.151566C100.671936 75.151566,99.911789 75.466507,99.351318 76.026993C98.790833 76.587463,98.475891 77.347610,98.475891 78.140305C98.475891 78.932999,98.790833 79.693146,99.351318 80.253616C99.911789 80.814102,100.671936 81.129044,101.464630 81.129044C102.257324 81.129044,103.017471 80.814102,103.577942 80.253616C104.138428 79.693146,104.453369 78.932999,104.453369 78.140305Z" style="fill: rgb(100.000000%,100.000000%,100.000000%);stroke: none;"></path>
  <path d="M102.223099 68.066971C102.223099 67.274277,101.908157 66.514130,101.347672 65.953659C100.787201 65.393173,100.027054 65.078232,99.234360 65.078232C98.441666 65.078232,97.681519 65.393173,97.121048 65.953659C96.560562 66.514130,96.245621 67.274277,96.245621 68.066971C96.245621 68.859665,96.560562 69.619812,97.121048 70.180283C97.681519 70.740768,98.441666 71.055710,99.234360 71.055710C100.027054 71.055710,100.787201 70.740768,101.347672 70.180283C101.908157 69.619812,102.223099 68.859665,102.223099 68.066971Z" style="fill: rgb(100.000000%,100.000000%,100.000000%);stroke: none;"></path>
  <path d="M103.285904 85.134796C103.285904 84.342102,102.970963 83.581955,102.410477 83.021484C101.850006 82.460999,101.089859 82.146057,100.297165 82.146057C99.504471 82.146057,98.744324 82.460999,98.183853 83.021484C97.623367 83.581955,97.308426 84.342102,97.308426 85.134796C97.308426 85.927490,97.623367 86.687637,98.183853 87.248108C98.744324 87.808594,99.504471 88.123535,100.297165 88.123535C101.089859 88.123535,101.850006 87.808594,102.410477 87.248108C102.970963 86.687637,103.285904 85.927490,103.285904 85.134796Z" style="fill: rgb(100.000000%,100.000000%,100.000000%);stroke: none;"></path>
  <path d="M105.098770 80.827316C105.098770 80.034622,104.783829 79.274475,104.223343 78.714005C103.662872 78.153519,102.902725 77.838577,102.110031 77.838577C101.317337 77.838577,100.557190 78.153519,99.996719 78.714005C99.436234 79.274475,99.121292 80.034622,99.121292 80.827316C99.121292 81.620010,99.436234 82.380157,99.996719 82.940628C100.557190 83.501114,101.317337 83.816055,102.110031 83.816055C102.902725 83.816055,103.662872 83.501114,104.223343 82.940628C104.783829 82.380157,105.098770 81.620010,105.098770 80.827316Z" style="fill: rgb(100.000000%,100.000000%,100.000000%);stroke: none;"></path>
  <path d="M96.996078 90.807770C96.996078 90.015076,96.681137 89.254929,96.120651 88.694458C95.560181 88.133972,94.800034 87.819031,94.007339 87.819031C93.214645 87.819031,92.454498 88.133972,91.894028 88.694458C91.333542 89.254929,91.018600 90.015076,91.018600 90.807770C91.018600 91.600464,91.333542 92.360611,91.894028 92.921082C92.454498 93.481567,93.214645 93.796509,94.007339 93.796509C94.800034 93.796509,95.560181 93.481567,96.120651 92.921082C96.681137 92.360611,96.996078 91.600464,96.996078 90.807770Z" style="fill: rgb(100.000000%,100.000000%,100.000000%);stroke: none;"></path>
  <path d="M101.636917 86.438461C101.636917 85.645767,101.321976 84.885620,100.761490 84.325150C100.201019 83.764664,99.440872 83.449722,98.648178 83.449722C97.855484 83.449722,97.095337 83.764664,96.534866 84.325150C95.974380 84.885620,95.659439 85.645767,95.659439 86.438461C95.659439 87.231155,95.974380 87.991302,96.534866 88.551773C97.095337 89.112259,97.855484 89.427200,98.648178 89.427200C99.440872 89.427200,100.201019 89.112259,100.761490 88.551773C101.321976 87.991302,101.636917 87.231155,101.636917 86.438461Z" style="fill: rgb(100.000000%,100.000000%,100.000000%);stroke: none;"></path>
  <path d="M86.131241 97.135864C86.131241 96.343170,85.816299 95.583023,85.255814 95.022552C84.695343 94.462067,83.935196 94.147125,83.142502 94.147125C82.349808 94.147125,81.589661 94.462067,81.029190 95.022552C80.468704 95.583023,80.153763 96.343170,80.153763 97.135864C80.153763 97.928558,80.468704 98.688705,81.029190 99.249176C81.589661 99.809662,82.349808 100.124603,83.142502 100.124603C83.935196 100.124603,84.695343 99.809662,85.255814 99.249176C85.816299 98.688705,86.131241 97.928558,86.131241 97.135864Z" style="fill: rgb(100.000000%,100.000000%,100.000000%);stroke: none;"></path>
  <path d="M94.290756 94.517471C94.290756 93.724777,93.975815 92.964630,93.415329 92.404160C92.854858 91.843674,92.094711 91.528732,91.302017 91.528732C90.509323 91.528732,89.749176 91.843674,89.188705 92.404160C88.628220 92.964630,88.313278 93.724777,88.313278 94.517471C88.313278 95.310165,88.628220 96.070312,89.188705 96.630783C89.749176 97.191269,90.509323 97.506210,91.302017 97.506210C92.094711 97.506210,92.854858 97.191269,93.415329 96.630783C93.975815 96.070312,94.290756 95.310165,94.290756 94.517471Z" style="fill: rgb(100.000000%,100.000000%,100.000000%);stroke: none;"></path>
  <path d="M74.953644 94.076447C74.953644 93.283752,74.638702 92.523605,74.078217 91.963135C73.517746 91.402649,72.757599 91.087708,71.964905 91.087708C71.172211 91.087708,70.412064 91.402649,69.851593 91.963135C69.291107 92.523605,68.976166 93.283752,68.976166 94.076447C68.976166 94.869141,69.291107 95.629288,69.851593 96.189758C70.412064 96.750244,71.172211 97.065186,71.964905 97.065186C72.757599 97.065186,73.517746 96.750244,74.078217 96.189758C74.638702 95.629288,74.953644 94.869141,74.953644 94.076447Z" style="fill: rgb(100.000000%,100.000000%,100.000000%);stroke: none;"></path>
  <path d="M81.930862 95.864105C81.930862 95.071411,81.615921 94.311264,81.055435 93.750793C80.494965 93.190308,79.734818 92.875366,78.942123 92.875366C78.149429 92.875366,77.389282 93.190308,76.828812 93.750793C76.268326 94.311264,75.953384 95.071411,75.953384 95.864105C75.953384 96.656799,76.268326 97.416946,76.828812 97.977417C77.389282 98.537903,78.149429 98.852844,78.942123 98.852844C79.734818 98.852844,80.494965 98.537903,81.055435 97.977417C81.615921 97.416946,81.930862 96.656799,81.930862 95.864105Z" style="fill: rgb(100.000000%,100.000000%,100.000000%);stroke: none;"></path>
  <path d="M67.545670 87.313034C67.545670 86.520340,67.230728 85.760193,66.670242 85.199722C66.109772 84.639236,65.349625 84.324295,64.556931 84.324295C63.764236 84.324295,63.004089 84.639236,62.443619 85.199722C61.883133 85.760193,61.568192 86.520340,61.568192 87.313034C61.568192 88.105728,61.883133 88.865875,62.443619 89.426346C63.004089 89.986832,63.764236 90.301773,64.556931 90.301773C65.349625 90.301773,66.109772 89.986832,66.670242 89.426346C67.230728 88.865875,67.545670 88.105728,67.545670 87.313034Z" style="fill: rgb(100.000000%,100.000000%,100.000000%);stroke: none;"></path>
  <path d="M71.841522 93.323807C71.841522 92.531113,71.526581 91.770966,70.966095 91.210495C70.405624 90.650009,69.645477 90.335068,68.852783 90.335068C68.060089 90.335068,67.299942 90.650009,66.739471 91.210495C66.178986 91.770966,65.864044 92.531113,65.864044 93.323807C65.864044 94.116501,66.178986 94.876648,66.739471 95.437119C67.299942 95.997604,68.060089 96.312546,68.852783 96.312546C69.645477 96.312546,70.405624 95.997604,70.966095 95.437119C71.526581 94.876648,71.841522 94.116501,71.841522 93.323807Z" style="fill: rgb(100.000000%,100.000000%,100.000000%);stroke: none;"></path>
  <path d="M73.212204 70.568344C73.212204 69.775650,72.897263 69.015503,72.336777 68.455032C71.776306 67.894547,71.016159 67.579605,70.223465 67.579605C69.430771 67.579605,68.670624 67.894547,68.110153 68.455032C67.549667 69.015503,67.234726 69.775650,67.234726 70.568344C67.234726 71.361038,67.549667 72.121185,68.110153 72.681656C68.670624 73.242142,69.430771 73.557083,70.223465 73.557083C71.016159 73.557083,71.776306 73.242142,72.336777 72.681656C72.897263 72.121185,73.212204 71.361038,73.212204 70.568344Z" style="fill: rgb(100.000000%,100.000000%,100.000000%);stroke: none;"></path>
  <path d="M69.240433 82.708389C69.240433 81.915695,68.925491 81.155548,68.365005 80.595078C67.804535 80.034592,67.044388 79.719650,66.251694 79.719650C65.459000 79.719650,64.698853 80.034592,64.138382 80.595078C63.577896 81.155548,63.262955 81.915695,63.262955 82.708389C63.262955 83.501083,63.577896 84.261230,64.138382 84.821701C64.698853 85.382187,65.459000 85.697128,66.251694 85.697128C67.044388 85.697128,67.804535 85.382187,68.365005 84.821701C68.925491 84.261230,69.240433 83.501083,69.240433 82.708389Z" style="fill: rgb(100.000000%,100.000000%,100.000000%);stroke: none;"></path>
  <path d="M75.015350 38.668762C75.015350 37.876068,74.700409 37.115921,74.139923 36.555450C73.579453 35.994965,72.819305 35.680023,72.026611 35.680023C71.233917 35.680023,70.473770 35.994965,69.913300 36.555450C69.352814 37.115921,69.037872 37.876068,69.037872 38.668762C69.037872 39.461456,69.352814 40.221603,69.913300 40.782074C70.473770 41.342560,71.233917 41.657501,72.026611 41.657501C72.819305 41.657501,73.579453 41.342560,74.139923 40.782074C74.700409 40.221603,75.015350 39.461456,75.015350 38.668762Z" style="fill: rgb(100.000000%,100.000000%,100.000000%);stroke: none;"></path>
  <path d="M73.914444 62.199829C73.914444 61.407135,73.599503 60.646988,73.039017 60.086517C72.478546 59.526031,71.718399 59.211090,70.925705 59.211090C70.133011 59.211090,69.372864 59.526031,68.812393 60.086517C68.251907 60.646988,67.936966 61.407135,67.936966 62.199829C67.936966 62.992523,68.251907 63.752670,68.812393 64.313141C69.372864 64.873627,70.133011 65.188568,70.925705 65.188568C71.718399 65.188568,72.478546 64.873627,73.039017 64.313141C73.599503 63.752670,73.914444 62.992523,73.914444 62.199829Z" style="fill: rgb(100.000000%,100.000000%,100.000000%);stroke: none;"></path>
  <path d="M99.455185 2.915710C99.455185 2.123016,99.140244 1.362869,98.579758 0.802399C98.019287 0.241913,97.259140 -0.073029,96.466446 -0.073029C95.673752 -0.073029,94.913605 0.241913,94.353134 0.802399C93.792648 1.362869,93.477707 2.123016,93.477707 2.915710C93.477707 3.708405,93.792648 4.468552,94.353134 5.029022C94.913605 5.589508,95.673752 5.904449,96.466446 5.904449C97.259140 5.904449,98.019287 5.589508,98.579758 5.029022C99.140244 4.468552,99.455185 3.708405,99.455185 2.915710Z" style="fill: rgb(100.000000%,100.000000%,100.000000%);stroke: none;"></path>
  <path d="M75.623413 22.150009C75.623413 21.357315,75.308472 20.597168,74.747986 20.036697C74.187515 19.476212,73.427368 19.161270,72.634674 19.161270C71.841980 19.161270,71.081833 19.476212,70.521362 20.036697C69.960876 20.597168,69.645935 21.357315,69.645935 22.150009C69.645935 22.942703,69.960876 23.702850,70.521362 24.263321C71.081833 24.823807,71.841980 25.138748,72.634674 25.138748C73.427368 25.138748,74.187515 24.823807,74.747986 24.263321C75.308472 23.702850,75.623413 22.942703,75.623413 22.150009Z" style="fill: rgb(100.000000%,100.000000%,100.000000%);stroke: none;"></path>
  <path d="M147.088501 20.651962C147.088501 19.859268,146.773560 19.099121,146.213074 18.538651C145.652603 17.978165,144.892456 17.663223,144.099762 17.663223C143.307068 17.663223,142.546921 17.978165,141.986450 18.538651C141.425964 19.099121,141.111023 19.859268,141.111023 20.651962C141.111023 21.444656,141.425964 22.204803,141.986450 22.765274C142.546921 23.325760,143.307068 23.640701,144.099762 23.640701C144.892456 23.640701,145.652603 23.325760,146.213074 22.765274C146.773560 22.204803,147.088501 21.444656,147.088501 20.651962Z" style="fill: rgb(100.000000%,100.000000%,100.000000%);stroke: none;"></path>
  <path d="M116.393951 5.739380C116.393951 4.946686,116.079010 4.186539,115.518524 3.626068C114.958054 3.065582,114.197906 2.750641,113.405212 2.750641C112.612518 2.750641,111.852371 3.065582,111.291901 3.626068C110.731415 4.186539,110.416473 4.946686,110.416473 5.739380C110.416473 6.532074,110.731415 7.292221,111.291901 7.852692C111.852371 8.413177,112.612518 8.728119,113.405212 8.728119C114.197906 8.728119,114.958054 8.413177,115.518524 7.852692C116.079010 7.292221,116.393951 6.532074,116.393951 5.739380Z" style="fill: rgb(100.000000%,100.000000%,100.000000%);stroke: none;"></path>
  <path d="M165.575058 65.805969C165.575058 65.013275,165.260117 64.253128,164.699631 63.692657C164.139160 63.132172,163.379013 62.817230,162.586319 62.817230C161.793625 62.817230,161.033478 63.132172,160.473007 63.692657C159.912521 64.253128,159.597580 65.013275,159.597580 65.805969C159.597580 66.598663,159.912521 67.358810,160.473007 67.919281C161.033478 68.479767,161.793625 68.794708,162.586319 68.794708C163.379013 68.794708,164.139160 68.479767,164.699631 67.919281C165.260117 67.358810,165.575058 66.598663,165.575058 65.805969Z" style="fill: rgb(100.000000%,100.000000%,100.000000%);stroke: none;"></path>
  <path d="M161.311447 33.810104C161.311447 33.017410,160.996506 32.257263,160.436020 31.696793C159.875549 31.136307,159.115402 30.821365,158.322708 30.821365C157.530014 30.821365,156.769867 31.136307,156.209396 31.696793C155.648911 32.257263,155.333969 33.017410,155.333969 33.810104C155.333969 34.602798,155.648911 35.362946,156.209396 35.923416C156.769867 36.483902,157.530014 36.798843,158.322708 36.798843C159.115402 36.798843,159.875549 36.483902,160.436020 35.923416C160.996506 35.362946,161.311447 34.602798,161.311447 33.810104Z" style="fill: rgb(100.000000%,100.000000%,100.000000%);stroke: none;"></path>
  <path d="M168.027588 104.141006C168.027588 103.348312,167.712646 102.588165,167.152161 102.027695C166.591690 101.467209,165.831543 101.152267,165.038849 101.152267C164.246155 101.152267,163.486008 101.467209,162.925537 102.027695C162.365051 102.588165,162.050110 103.348312,162.050110 104.141006C162.050110 104.933701,162.365051 105.693848,162.925537 106.254318C163.486008 106.814804,164.246155 107.129745,165.038849 107.129745C165.831543 107.129745,166.591690 106.814804,167.152161 106.254318C167.712646 105.693848,168.027588 104.933701,168.027588 104.141006Z" style="fill: rgb(100.000000%,100.000000%,100.000000%);stroke: none;"></path>
  <path d="M159.017258 80.438583C159.017258 79.645889,158.702316 78.885742,158.141830 78.325272C157.581360 77.764786,156.821213 77.449844,156.028519 77.449844C155.235825 77.449844,154.475677 77.764786,153.915207 78.325272C153.354721 78.885742,153.039780 79.645889,153.039780 80.438583C153.039780 81.231277,153.354721 81.991425,153.915207 82.551895C154.475677 83.112381,155.235825 83.427322,156.028519 83.427322C156.821213 83.427322,157.581360 83.112381,158.141830 82.551895C158.702316 81.991425,159.017258 81.231277,159.017258 80.438583Z" style="fill: rgb(100.000000%,100.000000%,100.000000%);stroke: none;"></path>
  <path d="M193.338135 134.747574C193.338135 133.954880,193.023193 133.194733,192.462708 132.634262C191.902237 132.073776,191.142090 131.758835,190.349396 131.758835C189.556702 131.758835,188.796555 132.073776,188.236084 132.634262C187.675598 133.194733,187.360657 133.954880,187.360657 134.747574C187.360657 135.540268,187.675598 136.300415,188.236084 136.860886C188.796555 137.421371,189.556702 137.736313,190.349396 137.736313C191.142090 137.736313,191.902237 137.421371,192.462708 136.860886C193.023193 136.300415,193.338135 135.540268,193.338135 134.747574Z" style="fill: rgb(100.000000%,100.000000%,100.000000%);stroke: none;"></path>
  <path d="M177.749222 110.655823C177.749222 109.863129,177.434280 109.102982,176.873795 108.542511C176.313324 107.982025,175.553177 107.667084,174.760483 107.667084C173.967789 107.667084,173.207642 107.982025,172.647171 108.542511C172.086685 109.102982,171.771744 109.863129,171.771744 110.655823C171.771744 111.448517,172.086685 112.208664,172.647171 112.769135C173.207642 113.329620,173.967789 113.644562,174.760483 113.644562C175.553177 113.644562,176.313324 113.329620,176.873795 112.769135C177.434280 112.208664,177.749222 111.448517,177.749222 110.655823Z" style="fill: rgb(100.000000%,100.000000%,100.000000%);stroke: none;"></path>
  <path d="M171.232056 178.075958C171.232056 177.283264,170.917114 176.523117,170.356628 175.962646C169.796158 175.402161,169.036011 175.087219,168.243317 175.087219C167.450623 175.087219,166.690475 175.402161,166.130005 175.962646C165.569519 176.523117,165.254578 177.283264,165.254578 178.075958C165.254578 178.868652,165.569519 179.628799,166.130005 180.189270C166.690475 180.749756,167.450623 181.064697,168.243317 181.064697C169.036011 181.064697,169.796158 180.749756,170.356628 180.189270C170.917114 179.628799,171.232056 178.868652,171.232056 178.075958Z" style="fill: rgb(100.000000%,100.000000%,100.000000%);stroke: none;"></path>
  <path d="M192.180191 154.281662C192.180191 153.488968,191.865250 152.728821,191.304764 152.168350C190.744293 151.607864,189.984146 151.292923,189.191452 151.292923C188.398758 151.292923,187.638611 151.607864,187.078140 152.168350C186.517654 152.728821,186.202713 153.488968,186.202713 154.281662C186.202713 155.074356,186.517654 155.834503,187.078140 156.394974C187.638611 156.955460,188.398758 157.270401,189.191452 157.270401C189.984146 157.270401,190.744293 156.955460,191.304764 156.394974C191.865250 155.834503,192.180191 155.074356,192.180191 154.281662Z" style="fill: rgb(100.000000%,100.000000%,100.000000%);stroke: none;"></path>
  <path d="M128.671051 166.836975C128.671051 166.044281,128.356110 165.284134,127.795624 164.723663C127.235153 164.163177,126.475006 163.848236,125.682312 163.848236C124.889618 163.848236,124.129471 164.163177,123.569000 164.723663C123.008514 165.284134,122.693573 166.044281,122.693573 166.836975C122.693573 167.629669,123.008514 168.389816,123.569000 168.950287C124.129471 169.510773,124.889618 169.825714,125.682312 169.825714C126.475006 169.825714,127.235153 169.510773,127.795624 168.950287C128.356110 168.389816,128.671051 167.629669,128.671051 166.836975Z" style="fill: rgb(100.000000%,100.000000%,100.000000%);stroke: none;"></path>
  <path d="M156.519821 182.451080C156.519821 181.658386,156.204880 180.898239,155.644394 180.337769C155.083923 179.777283,154.323776 179.462341,153.531082 179.462341C152.738388 179.462341,151.978241 179.777283,151.417770 180.337769C150.857285 180.898239,150.542343 181.658386,150.542343 182.451080C150.542343 183.243774,150.857285 184.003922,151.417770 184.564392C151.978241 185.124878,152.738388 185.439819,153.531082 185.439819C154.323776 185.439819,155.083923 185.124878,155.644394 184.564392C156.204880 184.003922,156.519821 183.243774,156.519821 182.451080Z" style="fill: rgb(100.000000%,100.000000%,100.000000%);stroke: none;"></path>
  <path d="M124.604675 116.165894C124.604675 115.373199,124.289734 114.613052,123.729248 114.052582C123.168777 113.492096,122.408630 113.177155,121.615936 113.177155C120.823242 113.177155,120.063095 113.492096,119.502625 114.052582C118.942139 114.613052,118.627197 115.373199,118.627197 116.165894C118.627197 116.958588,118.942139 117.718735,119.502625 118.279205C120.063095 118.839691,120.823242 119.154633,121.615936 119.154633C122.408630 119.154633,123.168777 118.839691,123.729248 118.279205C124.289734 117.718735,124.604675 116.958588,124.604675 116.165894Z" style="fill: rgb(100.000000%,100.000000%,100.000000%);stroke: none;"></path>
  <path d="M129.247925 145.751358C129.247925 144.958664,128.932983 144.198517,128.372498 143.638046C127.812027 143.077560,127.051880 142.762619,126.259186 142.762619C125.466492 142.762619,124.706345 143.077560,124.145874 143.638046C123.585388 144.198517,123.270447 144.958664,123.270447 145.751358C123.270447 146.544052,123.585388 147.304199,124.145874 147.864670C124.706345 148.425156,125.466492 148.740097,126.259186 148.740097C127.051880 148.740097,127.812027 148.425156,128.372498 147.864670C128.932983 147.304199,129.247925 146.544052,129.247925 145.751358Z" style="fill: rgb(100.000000%,100.000000%,100.000000%);stroke: none;"></path>
  <path d="M118.953705 87.524277C118.953705 86.731583,118.638763 85.971436,118.078278 85.410965C117.517807 84.850479,116.757660 84.535538,115.964966 84.535538C115.172272 84.535538,114.412125 84.850479,113.851654 85.410965C113.291168 85.971436,112.976227 86.731583,112.976227 87.524277C112.976227 88.316971,113.291168 89.077118,113.851654 89.637589C114.412125 90.198074,115.172272 90.513016,115.964966 90.513016C116.757660 90.513016,117.517807 90.198074,118.078278 89.637589C118.638763 89.077118,118.953705 88.316971,118.953705 87.524277Z" style="fill: rgb(100.000000%,100.000000%,100.000000%);stroke: none;"></path>
  <path d="M120.636093 105.157532C120.636093 104.364838,120.321152 103.604691,119.760666 103.044220C119.200195 102.483734,118.440048 102.168793,117.647354 102.168793C116.854660 102.168793,116.094513 102.483734,115.534042 103.044220C114.973557 103.604691,114.658615 104.364838,114.658615 105.157532C114.658615 105.950226,114.973557 106.710373,115.534042 107.270844C116.094513 107.831329,116.854660 108.146271,117.647354 108.146271C118.440048 108.146271,119.200195 107.831329,119.760666 107.270844C120.321152 106.710373,120.636093 105.950226,120.636093 105.157532Z" style="fill: rgb(100.000000%,100.000000%,100.000000%);stroke: none;"></path>
  <path d="M110.835449 75.380692C110.835449 74.587997,110.520508 73.827850,109.960022 73.267380C109.399551 72.706894,108.639404 72.391953,107.846710 72.391953C107.054016 72.391953,106.293869 72.706894,105.733398 73.267380C105.172913 73.827850,104.857971 74.587997,104.857971 75.380692C104.857971 76.173386,105.172913 76.933533,105.733398 77.494003C106.293869 78.054489,107.054016 78.369431,107.846710 78.369431C108.639404 78.369431,109.399551 78.054489,109.960022 77.494003C110.520508 76.933533,110.835449 76.173386,110.835449 75.380692Z" style="fill: rgb(100.000000%,100.000000%,100.000000%);stroke: none;"></path>
  <path d="M118.703293 80.741943C118.703293 79.949249,118.388351 79.189102,117.827866 78.628632C117.267395 78.068146,116.507248 77.753204,115.714554 77.753204C114.921860 77.753204,114.161713 78.068146,113.601242 78.628632C113.040756 79.189102,112.725815 79.949249,112.725815 80.741943C112.725815 81.534637,113.040756 82.294785,113.601242 82.855255C114.161713 83.415741,114.921860 83.730682,115.714554 83.730682C116.507248 83.730682,117.267395 83.415741,117.827866 82.855255C118.388351 82.294785,118.703293 81.534637,118.703293 80.741943Z" style="fill: rgb(100.000000%,100.000000%,100.000000%);stroke: none;"></path>
  <path d="M101.361801 75.819046C101.361801 75.026352,101.046860 74.266205,100.486374 73.705734C99.925903 73.145248,99.165756 72.830307,98.373062 72.830307C97.580368 72.830307,96.820221 73.145248,96.259750 73.705734C95.699265 74.266205,95.384323 75.026352,95.384323 75.819046C95.384323 76.611740,95.699265 77.371887,96.259750 77.932358C96.820221 78.492844,97.580368 78.807785,98.373062 78.807785C99.165756 78.807785,99.925903 78.492844,100.486374 77.932358C101.046860 77.371887,101.361801 76.611740,101.361801 75.819046Z" style="fill: rgb(100.000000%,100.000000%,100.000000%);stroke: none;"></path>
  <path d="M107.284378 75.241898C107.284378 74.449203,106.969437 73.689056,106.408951 73.128586C105.848480 72.568100,105.088333 72.253159,104.295639 72.253159C103.502945 72.253159,102.742798 72.568100,102.182327 73.128586C101.621841 73.689056,101.306900 74.449203,101.306900 75.241898C101.306900 76.034592,101.621841 76.794739,102.182327 77.355209C102.742798 77.915695,103.502945 78.230637,104.295639 78.230637C105.088333 78.230637,105.848480 77.915695,106.408951 77.355209C106.969437 76.794739,107.284378 76.034592,107.284378 75.241898Z" style="fill: rgb(100.000000%,100.000000%,100.000000%);stroke: none;"></path>
  <path d="M96.127625 81.758667C96.127625 80.965973,95.812683 80.205826,95.252197 79.645355C94.691727 79.084869,93.931580 78.769928,93.138885 78.769928C92.346191 78.769928,91.586044 79.084869,91.025574 79.645355C90.465088 80.205826,90.150146 80.965973,90.150146 81.758667C90.150146 82.551361,90.465088 83.311508,91.025574 83.871979C91.586044 84.432465,92.346191 84.747406,93.138885 84.747406C93.931580 84.747406,94.691727 84.432465,95.252197 83.871979C95.812683 83.311508,96.127625 82.551361,96.127625 81.758667Z" style="fill: rgb(100.000000%,100.000000%,100.000000%);stroke: none;"></path>
  <path d="M98.701614 76.491257C98.701614 75.698563,98.386673 74.938416,97.826187 74.377945C97.265717 73.817459,96.505569 73.502518,95.712875 73.502518C94.920181 73.502518,94.160034 73.817459,93.599564 74.377945C93.039078 74.938416,92.724136 75.698563,92.724136 76.491257C92.724136 77.283951,93.039078 78.044098,93.599564 78.604568C94.160034 79.165054,94.920181 79.479996,95.712875 79.479996C96.505569 79.479996,97.265717 79.165054,97.826187 78.604568C98.386673 78.044098,98.701614 77.283951,98.701614 76.491257Z" style="fill: rgb(100.000000%,100.000000%,100.000000%);stroke: none;"></path>
  <path d="M102.269165 91.973846C102.269165 91.181152,101.954224 90.421005,101.393738 89.860535C100.833267 89.300049,100.073120 88.985107,99.280426 88.985107C98.487732 88.985107,97.727585 89.300049,97.167114 89.860535C96.606628 90.421005,96.291687 91.181152,96.291687 91.973846C96.291687 92.766541,96.606628 93.526688,97.167114 94.087158C97.727585 94.647644,98.487732 94.962585,99.280426 94.962585C100.073120 94.962585,100.833267 94.647644,101.393738 94.087158C101.954224 93.526688,102.269165 92.766541,102.269165 91.973846Z" style="fill: rgb(100.000000%,100.000000%,100.000000%);stroke: none;"></path>
  <path d="M98.618271 84.812057C98.618271 84.019363,98.303329 83.259216,97.742844 82.698746C97.182373 82.138260,96.422226 81.823318,95.629532 81.823318C94.836838 81.823318,94.076691 82.138260,93.516220 82.698746C92.955734 83.259216,92.640793 84.019363,92.640793 84.812057C92.640793 85.604752,92.955734 86.364899,93.516220 86.925369C94.076691 87.485855,94.836838 87.800797,95.629532 87.800797C96.422226 87.800797,97.182373 87.485855,97.742844 86.925369C98.303329 86.364899,98.618271 85.604752,98.618271 84.812057Z" style="fill: rgb(100.000000%,100.000000%,100.000000%);stroke: none;"></path>
  <path d="M111.776016 100.795349C111.776016 100.002655,111.461075 99.242508,110.900589 98.682037C110.340118 98.121552,109.579971 97.806610,108.787277 97.806610C107.994583 97.806610,107.234436 98.121552,106.673965 98.682037C106.113480 99.242508,105.798538 100.002655,105.798538 100.795349C105.798538 101.588043,106.113480 102.348190,106.673965 102.908661C107.234436 103.469147,107.994583 103.784088,108.787277 103.784088C109.579971 103.784088,110.340118 103.469147,110.900589 102.908661C111.461075 102.348190,111.776016 101.588043,111.776016 100.795349Z" style="fill: rgb(100.000000%,100.000000%,100.000000%);stroke: none;"></path>
  <path d="M102.849976 97.443359C102.849976 96.650665,102.535034 95.890518,101.974548 95.330048C101.414078 94.769562,100.653931 94.454620,99.861237 94.454620C99.068542 94.454620,98.308395 94.769562,97.747925 95.330048C97.187439 95.890518,96.872498 96.650665,96.872498 97.443359C96.872498 98.236053,97.187439 98.996201,97.747925 99.556671C98.308395 100.117157,99.068542 100.432098,99.861237 100.432098C100.653931 100.432098,101.414078 100.117157,101.974548 99.556671C102.535034 98.996201,102.849976 98.236053,102.849976 97.443359Z" style="fill: rgb(100.000000%,100.000000%,100.000000%);stroke: none;"></path>
  <path d="M125.405670 88.074738C125.405670 87.282043,125.090729 86.521896,124.530243 85.961426C123.969772 85.400940,123.209625 85.085999,122.416931 85.085999C121.624237 85.085999,120.864090 85.400940,120.303619 85.961426C119.743134 86.521896,119.428192 87.282043,119.428192 88.074738C119.428192 88.867432,119.743134 89.627579,120.303619 90.188049C120.864090 90.748535,121.624237 91.063477,122.416931 91.063477C123.209625 91.063477,123.969772 90.748535,124.530243 90.188049C125.090729 89.627579,125.405670 88.867432,125.405670 88.074738Z" style="fill: rgb(100.000000%,100.000000%,100.000000%);stroke: none;"></path>
  <path d="M115.926666 97.079224C115.926666 96.286530,115.611725 95.526382,115.051239 94.965912C114.490768 94.405426,113.730621 94.090485,112.937927 94.090485C112.145233 94.090485,111.385086 94.405426,110.824615 94.965912C110.264130 95.526382,109.949188 96.286530,109.949188 97.079224C109.949188 97.871918,110.264130 98.632065,110.824615 99.192535C111.385086 99.753021,112.145233 100.067963,112.937927 100.067963C113.730621 100.067963,114.490768 99.753021,115.051239 99.192535C115.611725 98.632065,115.926666 97.871918,115.926666 97.079224Z" style="fill: rgb(100.000000%,100.000000%,100.000000%);stroke: none;"></path>
  <path d="M145.589478 67.398254C145.589478 66.605560,145.274536 65.845413,144.714050 65.284943C144.153580 64.724457,143.393433 64.409515,142.600739 64.409515C141.808044 64.409515,141.047897 64.724457,140.487427 65.284943C139.926941 65.845413,139.612000 66.605560,139.612000 67.398254C139.612000 68.190948,139.926941 68.951096,140.487427 69.511566C141.047897 70.072052,141.808044 70.386993,142.600739 70.386993C143.393433 70.386993,144.153580 70.072052,144.714050 69.511566C145.274536 68.951096,145.589478 68.190948,145.589478 67.398254Z" style="fill: rgb(100.000000%,100.000000%,100.000000%);stroke: none;"></path>
  <path d="M132.230042 83.507370C132.230042 82.714676,131.915100 81.954529,131.354614 81.394058C130.794144 80.833572,130.033997 80.518631,129.241302 80.518631C128.448608 80.518631,127.688461 80.833572,127.127991 81.394058C126.567505 81.954529,126.252563 82.714676,126.252563 83.507370C126.252563 84.300064,126.567505 85.060211,127.127991 85.620682C127.688461 86.181168,128.448608 86.496109,129.241302 86.496109C130.033997 86.496109,130.794144 86.181168,131.354614 85.620682C131.915100 85.060211,132.230042 84.300064,132.230042 83.507370Z" style="fill: rgb(100.000000%,100.000000%,100.000000%);stroke: none;"></path>
  <path d="M176.864319 50.125687C176.864319 49.332993,176.549377 48.572845,175.988892 48.012375C175.428421 47.451889,174.668274 47.136948,173.875580 47.136948C173.082886 47.136948,172.322739 47.451889,171.762268 48.012375C171.201782 48.572845,170.886841 49.332993,170.886841 50.125687C170.886841 50.918381,171.201782 51.678528,171.762268 52.238998C172.322739 52.799484,173.082886 53.114426,173.875580 53.114426C174.668274 53.114426,175.428421 52.799484,175.988892 52.238998C176.549377 51.678528,176.864319 50.918381,176.864319 50.125687Z" style="fill: rgb(100.000000%,100.000000%,100.000000%);stroke: none;"></path>
  <path d="M150.787964 53.226044C150.787964 52.433350,150.473022 51.673203,149.912537 51.112732C149.352066 50.552246,148.591919 50.237305,147.799225 50.237305C147.006531 50.237305,146.246384 50.552246,145.685913 51.112732C145.125427 51.673203,144.810486 52.433350,144.810486 53.226044C144.810486 54.018738,145.125427 54.778885,145.685913 55.339355C146.246384 55.899841,147.006531 56.214783,147.799225 56.214783C148.591919 56.214783,149.352066 55.899841,149.912537 55.339355C150.473022 54.778885,150.787964 54.018738,150.787964 53.226044Z" style="fill: rgb(100.000000%,100.000000%,100.000000%);stroke: none;"></path>
  <path d="M196.057495 91.852493C196.057495 91.059799,195.742554 90.299652,195.182068 89.739182C194.621597 89.178696,193.861450 88.863754,193.068756 88.863754C192.276062 88.863754,191.515915 89.178696,190.955444 89.739182C190.394958 90.299652,190.080017 91.059799,190.080017 91.852493C190.080017 92.645187,190.394958 93.405334,190.955444 93.965805C191.515915 94.526291,192.276062 94.841232,193.068756 94.841232C193.861450 94.841232,194.621597 94.526291,195.182068 93.965805C195.742554 93.405334,196.057495 92.645187,196.057495 91.852493Z" style="fill: rgb(100.000000%,100.000000%,100.000000%);stroke: none;"></path>
  <path d="M186.191467 62.570786C186.191467 61.778091,185.876526 61.017944,185.316040 60.457474C184.755569 59.896988,183.995422 59.582047,183.202728 59.582047C182.410034 59.582047,181.649887 59.896988,181.089417 60.457474C180.528931 61.017944,180.213989 61.778091,180.213989 62.570786C180.213989 63.363480,180.528931 64.123627,181.089417 64.684097C181.649887 65.244583,182.410034 65.559525,183.202728 65.559525C183.995422 65.559525,184.755569 65.244583,185.316040 64.684097C185.876526 64.123627,186.191467 63.363480,186.191467 62.570786Z" style="fill: rgb(100.000000%,100.000000%,100.000000%);stroke: none;"></path>
  <path d="M176.059433 125.662003C176.059433 124.869308,175.744492 124.109161,175.184006 123.548691C174.623535 122.988205,173.863388 122.673264,173.070694 122.673264C172.278000 122.673264,171.517853 122.988205,170.957382 123.548691C170.396896 124.109161,170.081955 124.869308,170.081955 125.662003C170.081955 126.454697,170.396896 127.214844,170.957382 127.775314C171.517853 128.335800,172.278000 128.650742,173.070694 128.650742C173.863388 128.650742,174.623535 128.335800,175.184006 127.775314C175.744492 127.214844,176.059433 126.454697,176.059433 125.662003Z" style="fill: rgb(100.000000%,100.000000%,100.000000%);stroke: none;"></path>
  <path d="M196.386642 110.046936C196.386642 109.254242,196.071701 108.494095,195.511215 107.933624C194.950745 107.373138,194.190598 107.058197,193.397903 107.058197C192.605209 107.058197,191.845062 107.373138,191.284592 107.933624C190.724106 108.494095,190.409164 109.254242,190.409164 110.046936C190.409164 110.839630,190.724106 111.599777,191.284592 112.160248C191.845062 112.720734,192.605209 113.035675,193.397903 113.035675C194.190598 113.035675,194.950745 112.720734,195.511215 112.160248C196.071701 111.599777,196.386642 110.839630,196.386642 110.046936Z" style="fill: rgb(100.000000%,100.000000%,100.000000%);stroke: none;"></path>
  <path d="M146.954620 143.791306C146.954620 142.998611,146.639679 142.238464,146.079193 141.677994C145.518723 141.117508,144.758575 140.802567,143.965881 140.802567C143.173187 140.802567,142.413040 141.117508,141.852570 141.677994C141.292084 142.238464,140.977142 142.998611,140.977142 143.791306C140.977142 144.584000,141.292084 145.344147,141.852570 145.904617C142.413040 146.465103,143.173187 146.780045,143.965881 146.780045C144.758575 146.780045,145.518723 146.465103,146.079193 145.904617C146.639679 145.344147,146.954620 144.584000,146.954620 143.791306Z" style="fill: rgb(100.000000%,100.000000%,100.000000%);stroke: none;"></path>
  <path d="M165.287277 126.066513C165.287277 125.273819,164.972336 124.513672,164.411850 123.953201C163.851379 123.392715,163.091232 123.077774,162.298538 123.077774C161.505844 123.077774,160.745697 123.392715,160.185226 123.953201C159.624741 124.513672,159.309799 125.273819,159.309799 126.066513C159.309799 126.859207,159.624741 127.619354,160.185226 128.179825C160.745697 128.740311,161.505844 129.055252,162.298538 129.055252C163.091232 129.055252,163.851379 128.740311,164.411850 128.179825C164.972336 127.619354,165.287277 126.859207,165.287277 126.066513Z" style="fill: rgb(100.000000%,100.000000%,100.000000%);stroke: none;"></path>
  <path d="M134.603699 192.292725C134.603699 191.500031,134.288757 190.739883,133.728271 190.179413C133.167801 189.618927,132.407654 189.303986,131.614960 189.303986C130.822266 189.303986,130.062119 189.618927,129.501648 190.179413C128.941162 190.739883,128.626221 191.500031,128.626221 192.292725C128.626221 193.085419,128.941162 193.845566,129.501648 194.406036C130.062119 194.966522,130.822266 195.281464,131.614960 195.281464C132.407654 195.281464,133.167801 194.966522,133.728271 194.406036C134.288757 193.845566,134.603699 193.085419,134.603699 192.292725Z" style="fill: rgb(100.000000%,100.000000%,100.000000%);stroke: none;"></path>
  <path d="M152.654770 162.630264C152.654770 161.837570,152.339828 161.077423,151.779343 160.516953C151.218872 159.956467,150.458725 159.641525,149.666031 159.641525C148.873337 159.641525,148.113190 159.956467,147.552719 160.516953C146.992233 161.077423,146.677292 161.837570,146.677292 162.630264C146.677292 163.422958,146.992233 164.183105,147.552719 164.743576C148.113190 165.304062,148.873337 165.619003,149.666031 165.619003C150.458725 165.619003,151.218872 165.304062,151.779343 164.743576C152.339828 164.183105,152.654770 163.422958,152.654770 162.630264Z" style="fill: rgb(100.000000%,100.000000%,100.000000%);stroke: none;"></path>
  <path d="M89.715576 191.174789C66.871628 190.719711,47.428619 174.415176,43.000000 152.000000C39.996170 136.796356,44.881943 121.373199,44.539993 105.932968C44.365112 98.036316,42.815262 90.210953,43.000000 82.311569C43.141388 76.265610,44.157837 69.853394,40.805664 64.787399C36.432983 58.179153,27.408218 57.021164,20.062424 60.691635C2.391235 69.521393,3.651657 93.167892,9.207123 113.865082C14.421936 133.293152,24.487625 153.114700,43.000000 152.000000C57.752960 151.111679,66.560837 136.577942,69.614517 121.321594C71.386032 112.471008,71.766159 103.309128,74.882675 94.824020C76.497894 90.426361,78.553497 85.594315,75.798416 81.906296C73.954010 79.437332,70.707886 78.834854,67.628998 78.498535C63.582062 78.056488,59.490417 77.831970,55.469620 78.487778C51.165970 79.189713,47.112350 80.874054,43.000000 82.311569C39.625885 83.491028,36.088470 84.510559,32.579865 83.798569C23.160904 81.887222,19.751755 71.051498,20.062424 60.691635C20.608597 42.478485,27.962738 24.784241,42.682602 14.156769C55.454300 4.935837,72.553299 2.914001,84.408585 12.647446C95.806091 22.005035,96.774597 37.978378,97.859497 52.743973C98.422729 60.409622,99.234360 68.066971,100.896255 75.573166C101.464630 78.140305,102.110031 80.827316,101.088135 83.255417C100.297165 85.134796,98.648178 86.438461,97.168701 87.831375C94.007339 90.807770,91.302017 94.517471,87.144073 95.851761C83.142502 97.135864,78.942123 95.864105,74.882675 94.824020C71.964905 94.076447,68.852783 93.323807,67.100998 90.872711C64.556931 87.313034,66.251694 82.708389,67.628998 78.498535C70.223465 70.568344,70.925705 62.199829,71.315308 53.872330C72.026611 38.668762,72.634674 22.150009,84.408585 12.647446C96.466446 2.915710,113.405212 5.739380,127.703659 12.686111C144.099762 20.651962,158.322708 33.810104,160.705505 51.691544C162.586319 65.805969,156.028519 80.438583,161.141068 93.887558C165.038849 104.141006,174.760483 110.655823,180.685425 119.812469C190.349396 134.747574,189.191452 154.281662,177.466354 167.599823C168.243317 178.075958,153.531082 182.451080,141.655884 175.792953C125.682312 166.836975,126.259186 145.751358,123.407440 127.580811C121.615936 116.165894,117.647354 105.157532,116.549286 93.648651C115.964966 87.524277,115.714554 80.741943,110.667236 77.302643C107.846710 75.380692,104.295639 75.241898,100.896255 75.573166C98.373062 75.819046,95.712875 76.491257,94.620895 78.725876C93.138885 81.758667,95.629532 84.812057,97.168701 87.831375C99.280426 91.973846,99.861237 97.443359,104.283096 99.103897C108.787277 100.795349,112.937927 97.079224,116.549286 93.648651C122.416931 88.074738,129.241302 83.507370,134.413376 77.270767C142.600739 67.398254,147.799225 53.226044,160.705505 51.691544C173.875580 50.125687,183.202728 62.570786,187.734467 76.020676C193.068756 91.852493,193.397903 110.046936,180.685425 119.812469C173.070694 125.662003,162.298538 126.066513,155.357254 132.777634C143.965881 143.791306,149.666031 162.630264,141.655884 175.792953C131.614960 192.292725,109.495193 191.568817,89.715576 191.174789" style="stroke:rgb(0.000000%,0.000000%,0.000000%); stroke-width: 0.498138;stroke-linecap: round;stroke-linejoin: round;stroke-miterlimit: 10.000000;fill: none;"></path>
  <path d="M89.715576 191.174789C66.871628 190.719711,47.428619 174.415176,43.000000 152.000000" style="stroke:rgb(0.000000%,0.000000%,0.000000%); stroke-width: 1.494400;stroke-linecap: round;stroke-linejoin: round;stroke-miterlimit: 10.000000;fill: none;"></path>
  <path d="M141.655884 175.792953C131.614960 192.292725,109.495193 191.568817,89.715576 191.174789" style="stroke:rgb(0.000000%,0.000000%,0.000000%); stroke-width: 1.494400;stroke-linecap: round;stroke-linejoin: round;stroke-miterlimit: 10.000000;fill: none;"></path>
  <path d="M45.988739 152.000000C45.988739 151.207306,45.673798 150.447159,45.113312 149.886688C44.552841 149.326202,43.792694 149.011261,43.000000 149.011261C42.207306 149.011261,41.447159 149.326202,40.886688 149.886688C40.326202 150.447159,40.011261 151.207306,40.011261 152.000000C40.011261 152.792694,40.326202 153.552841,40.886688 154.113312C41.447159 154.673798,42.207306 154.988739,43.000000 154.988739C43.792694 154.988739,44.552841 154.673798,45.113312 154.113312C45.673798 153.552841,45.988739 152.792694,45.988739 152.000000Z" style="fill: rgb(100.000000%,100.000000%,100.000000%);stroke: none;"></path>
  <path d="M21.116989 140.636093C26.599304 147.880646,33.743820 152.557343,43.000000 152.000000C50.376480 151.555832,56.266693 147.700317,60.694504 142.048798" style="stroke:rgb(0.000000%,0.000000%,0.000000%); stroke-width: 0.498138;stroke-linecap: round;stroke-linejoin: round;stroke-miterlimit: 10.000000;fill: none;"></path>
  <path d="M23.051163 60.691635C23.051163 59.898941,22.736221 59.138794,22.175735 58.578323C21.615265 58.017838,20.855118 57.702896,20.062424 57.702896C19.269730 57.702896,18.509583 58.017838,17.949112 58.578323C17.388626 59.138794,17.073685 59.898941,17.073685 60.691635C17.073685 61.484329,17.388626 62.244476,17.949112 62.804947C18.509583 63.365433,19.269730 63.680374,20.062424 63.680374C20.855118 63.680374,21.615265 63.365433,22.175735 62.804947C22.736221 62.244476,23.051163 61.484329,23.051163 60.691635Z" style="fill: rgb(100.000000%,100.000000%,100.000000%);stroke: none;"></path>
  <path d="M22.672516 75.413284C20.681702 71.170456,19.907089 65.871567,20.062424 60.691635C20.335510 51.585052,22.310593 42.608200,26.057388 34.579559" style="stroke:rgb(0.000000%,0.000000%,0.000000%); stroke-width: 0.498138;stroke-linecap: round;stroke-linejoin: round;stroke-miterlimit: 10.000000;fill: none;"></path>
  <path d="M77.871414 94.824020C77.871414 94.031326,77.556473 93.271179,76.995987 92.710709C76.435516 92.150223,75.675369 91.835281,74.882675 91.835281C74.089981 91.835281,73.329834 92.150223,72.769363 92.710709C72.208878 93.271179,71.893936 94.031326,71.893936 94.824020C71.893936 95.616714,72.208878 96.376862,72.769363 96.937332C73.329834 97.497818,74.089981 97.812759,74.882675 97.812759C75.675369 97.812759,76.435516 97.497818,76.995987 96.937332C77.556473 96.376862,77.871414 95.616714,77.871414 94.824020Z" style="fill: rgb(100.000000%,100.000000%,100.000000%);stroke: none;"></path>
  <path d="M71.744232 107.935745C72.450256 103.478317,73.324417 99.066574,74.882675 94.824020C75.690292 92.625183,76.608002 90.317749,76.979416 88.099030" style="stroke:rgb(0.000000%,0.000000%,0.000000%); stroke-width: 0.498138;stroke-linecap: round;stroke-linejoin: round;stroke-miterlimit: 10.000000;fill: none;"></path>
  <path d="M45.988739 82.311569C45.988739 81.518875,45.673798 80.758728,45.113312 80.198257C44.552841 79.637772,43.792694 79.322830,43.000000 79.322830C42.207306 79.322830,41.447159 79.637772,40.886688 80.198257C40.326202 80.758728,40.011261 81.518875,40.011261 82.311569C40.011261 83.104263,40.326202 83.864410,40.886688 84.424881C41.447159 84.985367,42.207306 85.300308,43.000000 85.300308C43.792694 85.300308,44.552841 84.985367,45.113312 84.424881C45.673798 83.864410,45.988739 83.104263,45.988739 82.311569Z" style="fill: rgb(100.000000%,100.000000%,100.000000%);stroke: none;"></path>
  <path d="M43.635132 94.123276C43.248901 90.192444,42.907639 86.261261,43.000000 82.311569C43.070694 79.288589,43.360153 76.174042,43.212906 73.181992" style="stroke:rgb(0.000000%,0.000000%,0.000000%); stroke-width: 0.498138;stroke-linecap: round;stroke-linejoin: round;stroke-miterlimit: 10.000000;fill: none;"></path>
  <path d="M87.397324 12.647446C87.397324 11.854752,87.082382 11.094604,86.521896 10.534134C85.961426 9.973648,85.201279 9.658707,84.408585 9.658707C83.615891 9.658707,82.855743 9.973648,82.295273 10.534134C81.734787 11.094604,81.419846 11.854752,81.419846 12.647446C81.419846 13.440140,81.734787 14.200287,82.295273 14.760757C82.855743 15.321243,83.615891 15.636185,84.408585 15.636185C85.201279 15.636185,85.961426 15.321243,86.521896 14.760757C87.082382 14.200287,87.397324 13.440140,87.397324 12.647446Z" style="fill: rgb(100.000000%,100.000000%,100.000000%);stroke: none;"></path>
  <path d="M63.889252 6.294205C71.242371 5.852829,78.480942 7.780731,84.408585 12.647446C90.107346 17.326248,93.198853 23.658981,95.001282 30.667725" style="stroke:rgb(0.000000%,0.000000%,0.000000%); stroke-width: 0.498138;stroke-linecap: round;stroke-linejoin: round;stroke-miterlimit: 10.000000;fill: none;"></path>
  <path d="M100.157440 87.831375C100.157440 87.038681,99.842499 86.278534,99.282013 85.718063C98.721542 85.157578,97.961395 84.842636,97.168701 84.842636C96.376007 84.842636,95.615860 85.157578,95.055389 85.718063C94.494904 86.278534,94.179962 87.038681,94.179962 87.831375C94.179962 88.624069,94.494904 89.384216,95.055389 89.944687C95.615860 90.505173,96.376007 90.820114,97.168701 90.820114C97.961395 90.820114,98.721542 90.505173,99.282013 89.944687C99.842499 89.384216,100.157440 88.624069,100.157440 87.831375Z" style="fill: rgb(100.000000%,100.000000%,100.000000%);stroke: none;"></path>
  <path d="M99.386597 85.725830C98.690552 86.460785,97.908432 87.134918,97.168701 87.831375C95.588013 89.319580,94.121338 90.991104,92.530090 92.457367" style="stroke:rgb(0.000000%,0.000000%,0.000000%); stroke-width: 0.498138;stroke-linecap: round;stroke-linejoin: round;stroke-miterlimit: 10.000000;fill: none;"></path>
  <path d="M70.617737 78.498535C70.617737 77.705841,70.302795 76.945694,69.742310 76.385223C69.181839 75.824738,68.421692 75.509796,67.628998 75.509796C66.836304 75.509796,66.076157 75.824738,65.515686 76.385223C64.955200 76.945694,64.640259 77.705841,64.640259 78.498535C64.640259 79.291229,64.955200 80.051376,65.515686 80.611847C66.076157 81.172333,66.836304 81.487274,67.628998 81.487274C68.421692 81.487274,69.181839 81.172333,69.742310 80.611847C70.302795 80.051376,70.617737 79.291229,70.617737 78.498535Z" style="fill: rgb(100.000000%,100.000000%,100.000000%);stroke: none;"></path>
  <path d="M65.894485 84.929428C66.172333 82.807083,66.940353 80.603455,67.628998 78.498535C68.926239 74.533432,69.750412 70.458755,70.298981 66.334412" style="stroke:rgb(0.000000%,0.000000%,0.000000%); stroke-width: 0.498138;stroke-linecap: round;stroke-linejoin: round;stroke-miterlimit: 10.000000;fill: none;"></path>
  <path d="M163.694244 51.691544C163.694244 50.898849,163.379303 50.138702,162.818817 49.578232C162.258347 49.017746,161.498199 48.702805,160.705505 48.702805C159.912811 48.702805,159.152664 49.017746,158.592194 49.578232C158.031708 50.138702,157.716766 50.898849,157.716766 51.691544C157.716766 52.484238,158.031708 53.244385,158.592194 53.804855C159.152664 54.365341,159.912811 54.680283,160.705505 54.680283C161.498199 54.680283,162.258347 54.365341,162.818817 53.804855C163.379303 53.244385,163.694244 52.484238,163.694244 51.691544Z" style="fill: rgb(100.000000%,100.000000%,100.000000%);stroke: none;"></path>
  <path d="M149.459595 28.470490C155.362686 34.990936,159.514114 42.750824,160.705505 51.691544C161.645920 58.748764,160.476669 65.935532,159.711380 73.039108" style="stroke:rgb(0.000000%,0.000000%,0.000000%); stroke-width: 0.498138;stroke-linecap: round;stroke-linejoin: round;stroke-miterlimit: 10.000000;fill: none;"></path>
  <path d="M144.644623 175.792953C144.644623 175.000259,144.329681 174.240112,143.769196 173.679642C143.208725 173.119156,142.448578 172.804214,141.655884 172.804214C140.863190 172.804214,140.103043 173.119156,139.542572 173.679642C138.982086 174.240112,138.667145 175.000259,138.667145 175.792953C138.667145 176.585648,138.982086 177.345795,139.542572 177.906265C140.103043 178.466751,140.863190 178.781693,141.655884 178.781693C142.448578 178.781693,143.208725 178.466751,143.769196 177.906265C144.329681 177.345795,144.644623 176.585648,144.644623 175.792953Z" style="fill: rgb(100.000000%,100.000000%,100.000000%);stroke: none;"></path>
  <path d="M160.555664 178.121735C154.240326 179.692764,147.593475 179.122009,141.655884 175.792953C133.669098 171.314957,129.819916 163.804550,127.610962 155.142334" style="stroke:rgb(0.000000%,0.000000%,0.000000%); stroke-width: 0.498138;stroke-linecap: round;stroke-linejoin: round;stroke-miterlimit: 10.000000;fill: none;"></path>
  <path d="M103.884995 75.573166C103.884995 74.780472,103.570053 74.020325,103.009567 73.459854C102.449097 72.899368,101.688950 72.584427,100.896255 72.584427C100.103561 72.584427,99.343414 72.899368,98.782944 73.459854C98.222458 74.020325,97.907516 74.780472,97.907516 75.573166C97.907516 76.365860,98.222458 77.126007,98.782944 77.686478C99.343414 78.246964,100.103561 78.561905,100.896255 78.561905C101.688950 78.561905,102.449097 78.246964,103.009567 77.686478C103.570053 77.126007,103.884995 76.365860,103.884995 75.573166Z" style="fill: rgb(100.000000%,100.000000%,100.000000%);stroke: none;"></path>
  <path d="M105.998810 75.592941C104.333557 75.359421,102.595947 75.407532,100.896255 75.573166C99.634659 75.696106,98.338806 75.925629,97.221863 76.403748" style="stroke:rgb(0.000000%,0.000000%,0.000000%); stroke-width: 0.498138;stroke-linecap: round;stroke-linejoin: round;stroke-miterlimit: 10.000000;fill: none;"></path>
  <path d="M119.538025 93.648651C119.538025 92.855957,119.223083 92.095810,118.662598 91.535339C118.102127 90.974854,117.341980 90.659912,116.549286 90.659912C115.756592 90.659912,114.996445 90.974854,114.435974 91.535339C113.875488 92.095810,113.560547 92.855957,113.560547 93.648651C113.560547 94.441345,113.875488 95.201492,114.435974 95.761963C114.996445 96.322449,115.756592 96.637390,116.549286 96.637390C117.341980 96.637390,118.102127 96.322449,118.662598 95.761963C119.223083 95.201492,119.538025 94.441345,119.538025 93.648651Z" style="fill: rgb(100.000000%,100.000000%,100.000000%);stroke: none;"></path>
  <path d="M110.751007 98.297028C112.803116 97.150604,114.743607 95.363937,116.549286 93.648651C119.483109 90.861694,122.656113 88.326370,125.742172 85.708206" style="stroke:rgb(0.000000%,0.000000%,0.000000%); stroke-width: 0.498138;stroke-linecap: round;stroke-linejoin: round;stroke-miterlimit: 10.000000;fill: none;"></path>
  <path d="M183.674164 119.812469C183.674164 119.019775,183.359222 118.259628,182.798737 117.699158C182.238266 117.138672,181.478119 116.823730,180.685425 116.823730C179.892731 116.823730,179.132584 117.138672,178.572113 117.699158C178.011627 118.259628,177.696686 119.019775,177.696686 119.812469C177.696686 120.605164,178.011627 121.365311,178.572113 121.925781C179.132584 122.486267,179.892731 122.801208,180.685425 122.801208C181.478119 122.801208,182.238266 122.486267,182.798737 121.925781C183.359222 121.365311,183.674164 120.605164,183.674164 119.812469Z" style="fill: rgb(100.000000%,100.000000%,100.000000%);stroke: none;"></path>
  <path d="M190.977478 100.191437C190.137497 107.939713,187.041656 114.929703,180.685425 119.812469C176.878052 122.737244,172.281326 124.300751,167.768784 125.971970" style="stroke:rgb(0.000000%,0.000000%,0.000000%); stroke-width: 0.498138;stroke-linecap: round;stroke-linejoin: round;stroke-miterlimit: 10.000000;fill: none;"></path>
  <path d="M40.805664 64.787399C37.307510 59.500778,30.832001 57.702362,24.620667 59.073761" style="stroke:rgb(0.000000%,0.000000%,0.000000%); stroke-width: 0.498138;stroke-linecap: round;stroke-linejoin: round;stroke-miterlimit: 10.000000;fill: none;"></path>
  <path d="M27.208023 57.555450C26.316406 57.985886,25.450089 58.494034,24.620667 59.073761C25.617081 59.250351,26.588989 59.503616,27.523788 59.829742Z" style="stroke:rgb(0.000000%,0.000000%,0.000000%); stroke-width: 0.498138;fill: rgb(0.000000%,0.000000%,0.000000%);"></path>
  <path d="M69.614517 121.321594C71.031738 114.241104,71.558456 106.961380,73.308136 99.988312" style="stroke:rgb(0.000000%,0.000000%,0.000000%); stroke-width: 0.498138;stroke-linecap: round;stroke-linejoin: round;stroke-miterlimit: 10.000000;fill: none;"></path>
  <path d="M73.813583 102.945297C73.624832 101.962585,73.454422 100.977234,73.308136 99.988312C72.712296 100.791016,72.136032 101.608246,71.574600 102.436600Z" style="stroke:rgb(0.000000%,0.000000%,0.000000%); stroke-width: 0.498138;fill: rgb(0.000000%,0.000000%,0.000000%);"></path>
  <path d="M97.859497 52.743973C98.310089 58.876511,98.919647 65.003738,99.996353 71.052521" style="stroke:rgb(0.000000%,0.000000%,0.000000%); stroke-width: 0.498138;stroke-linecap: round;stroke-linejoin: round;stroke-miterlimit: 10.000000;fill: none;"></path>
  <path d="M98.410980 68.505554C98.929535 69.360672,99.457626 70.209930,99.996353 71.052521C100.211227 70.075775,100.438354 69.101852,100.676361 68.130524Z" style="stroke:rgb(0.000000%,0.000000%,0.000000%); stroke-width: 0.498138;fill: rgb(0.000000%,0.000000%,0.000000%);"></path>
  <path d="M101.088135 83.255417C100.455353 84.758926,99.273438 85.893982,98.068497 87.001022" style="stroke:rgb(0.000000%,0.000000%,0.000000%); stroke-width: 0.498138;stroke-linecap: round;stroke-linejoin: round;stroke-miterlimit: 10.000000;fill: none;"></path>
  <path d="M99.163620 84.208038C98.907303 85.163239,98.494003 86.085388,98.068497 87.001022C99.016830 86.654449,99.961136 86.294678,100.817825 85.800507Z" style="stroke:rgb(0.000000%,0.000000%,0.000000%); stroke-width: 0.498138;fill: rgb(0.000000%,0.000000%,0.000000%);"></path>
  <path d="M67.100998 90.872711C65.065735 88.024963,65.743347 84.508423,66.800980 81.060272" style="stroke:rgb(0.000000%,0.000000%,0.000000%); stroke-width: 0.498138;stroke-linecap: round;stroke-linejoin: round;stroke-miterlimit: 10.000000;fill: none;"></path>
  <path d="M67.220215 84.030777C67.023056 83.070328,66.897156 82.068542,66.800980 81.060272C66.156006 81.841217,65.536667 82.638596,64.996918 83.457138Z" style="stroke:rgb(0.000000%,0.000000%,0.000000%); stroke-width: 0.498138;fill: rgb(0.000000%,0.000000%,0.000000%);"></path>
  <path d="M161.141068 93.887558C164.259308 102.090347,171.104843 107.900391,176.751892 114.584534" style="stroke:rgb(0.000000%,0.000000%,0.000000%); stroke-width: 0.498138;stroke-linecap: round;stroke-linejoin: round;stroke-miterlimit: 10.000000;fill: none;"></path>
  <path d="M174.063980 113.252045C174.966736 113.684570,175.864349 114.126312,176.751892 114.584534C176.448334 113.632935,176.126007 112.685852,175.793503 111.741669Z" style="stroke:rgb(0.000000%,0.000000%,0.000000%); stroke-width: 0.498138;fill: rgb(0.000000%,0.000000%,0.000000%);"></path>
  <path d="M177.466354 167.599823C170.087891 175.980759,159.196320 180.457016,149.054718 178.503281" style="stroke:rgb(0.000000%,0.000000%,0.000000%); stroke-width: 0.498138;stroke-linecap: round;stroke-linejoin: round;stroke-miterlimit: 10.000000;fill: none;"></path>
  <path d="M151.952011 177.725037C151.004776 178.040848,150.038101 178.301483,149.054718 178.503281C149.892746 179.055969,150.760574 179.555222,151.653702 180.001709Z" style="stroke:rgb(0.000000%,0.000000%,0.000000%); stroke-width: 0.498138;fill: rgb(0.000000%,0.000000%,0.000000%);"></path>
  <path d="M94.620895 78.725876C93.435287 81.152115,94.792191 83.591537,96.170425 86.016159" style="stroke:rgb(0.000000%,0.000000%,0.000000%); stroke-width: 0.498138;stroke-linecap: round;stroke-linejoin: round;stroke-miterlimit: 10.000000;fill: none;"></path>
  <path d="M93.876114 84.083115C94.562790 84.760971,95.365662 85.390030,96.170425 86.016159C96.044128 85.004349,95.921249 83.991837,95.915024 83.026962Z" style="stroke:rgb(0.000000%,0.000000%,0.000000%); stroke-width: 0.498138;fill: rgb(0.000000%,0.000000%,0.000000%);"></path>
  <path d="M104.283096 99.103897C107.886459 100.457062,111.263550 98.349350,114.319275 95.695694" style="stroke:rgb(0.000000%,0.000000%,0.000000%); stroke-width: 0.498138;stroke-linecap: round;stroke-linejoin: round;stroke-miterlimit: 10.000000;fill: none;"></path>
  <path d="M112.845291 98.308640C113.379379 97.490555,113.865295 96.605148,114.319275 95.695694C113.355164 96.017746,112.385513 96.300217,111.429367 96.501022Z" style="stroke:rgb(0.000000%,0.000000%,0.000000%); stroke-width: 0.498138;fill: rgb(0.000000%,0.000000%,0.000000%);"></path>
  <path d="M155.357254 132.777634C146.244125 141.588608,148.069641 155.407806,145.063110 167.322342" style="stroke:rgb(0.000000%,0.000000%,0.000000%); stroke-width: 0.498138;stroke-linecap: round;stroke-linejoin: round;stroke-miterlimit: 10.000000;fill: none;"></path>
  <path d="M144.536865 164.368973C144.740280 165.352722,144.918747 166.337234,145.063110 167.322342C145.657608 166.523697,146.227585 165.701355,146.779388 164.861923Z" style="stroke:rgb(0.000000%,0.000000%,0.000000%); stroke-width: 0.498138;fill: rgb(0.000000%,0.000000%,0.000000%);"></path>
  <path d="M86.724930 193.884995L92.706223 193.884995L92.706223 186.464600L86.724930 186.464600Z" style="fill: rgb(100.000000%,100.000000%,100.000000%);stroke: none;"></path>
  <path d="M86.724930 195.884995L92.706223 195.884995L92.706223 188.464600L86.724930 188.464600Z" style="fill: rgb(100.000000%,100.000000%,100.000000%);stroke: none;"></path>
  <g transform="translate(87.224930 194.384995)" style="fill: rgb(0.000000%,0.000000%,0.000000%);">
    <use xlink:href="#GLYPHcmr10_49"></use>
  </g>
  <path d="M41.549347 108.643173L47.530640 108.643173L47.530640 101.222778L41.549347 101.222778Z" style="fill: rgb(100.000000%,100.000000%,100.000000%);stroke: none;"></path>
  <path d="M41.549347 110.643173L47.530640 110.643173L47.530640 103.222778L41.549347 103.222778Z" style="fill: rgb(100.000000%,100.000000%,100.000000%);stroke: none;"></path>
  <g transform="translate(42.049347 109.143173)" style="fill: rgb(0.000000%,0.000000%,0.000000%);">
    <use xlink:href="#GLYPHcmr10_50"></use>
  </g>
  <path d="M6.216476 116.575287L12.197769 116.575287L12.197769 109.154892L6.216476 109.154892Z" style="fill: rgb(100.000000%,100.000000%,100.000000%);stroke: none;"></path>
  <path d="M6.216476 118.575287L12.197769 118.575287L12.197769 111.154892L6.216476 111.154892Z" style="fill: rgb(100.000000%,100.000000%,100.000000%);stroke: none;"></path>
  <g transform="translate(6.716476 117.075287)" style="fill: rgb(0.000000%,0.000000%,0.000000%);">
    <use xlink:href="#GLYPHcmr10_51"></use>
  </g>
  <path d="M52.478973 81.197983L58.460266 81.197983L58.460266 73.777588L52.478973 73.777588Z" style="fill: rgb(100.000000%,100.000000%,100.000000%);stroke: none;"></path>
  <path d="M52.478973 83.197983L58.460266 83.197983L58.460266 75.777588L52.478973 75.777588Z" style="fill: rgb(100.000000%,100.000000%,100.000000%);stroke: none;"></path>
  <g transform="translate(52.978973 81.697983)" style="fill: rgb(0.000000%,0.000000%,0.000000%);">
    <use xlink:href="#GLYPHcmr10_52"></use>
  </g>
  <path d="M39.691956 16.866974L45.673248 16.866974L45.673248 9.446579L39.691956 9.446579Z" style="fill: rgb(100.000000%,100.000000%,100.000000%);stroke: none;"></path>
  <path d="M39.691956 18.866974L45.673248 18.866974L45.673248 11.446579L39.691956 11.446579Z" style="fill: rgb(100.000000%,100.000000%,100.000000%);stroke: none;"></path>
  <g transform="translate(40.191956 17.366974)" style="fill: rgb(0.000000%,0.000000%,0.000000%);">
    <use xlink:href="#GLYPHcmr10_53"></use>
  </g>
  <path d="M84.153427 98.561966L90.134720 98.561966L90.134720 91.141571L84.153427 91.141571Z" style="fill: rgb(100.000000%,100.000000%,100.000000%);stroke: none;"></path>
  <path d="M84.153427 100.561966L90.134720 100.561966L90.134720 93.141571L84.153427 93.141571Z" style="fill: rgb(100.000000%,100.000000%,100.000000%);stroke: none;"></path>
  <g transform="translate(84.653427 99.061966)" style="fill: rgb(0.000000%,0.000000%,0.000000%);">
    <use xlink:href="#GLYPHcmr10_54"></use>
  </g>
  <path d="M68.324661 56.582535L74.305954 56.582535L74.305954 49.162140L68.324661 49.162140Z" style="fill: rgb(100.000000%,100.000000%,100.000000%);stroke: none;"></path>
  <path d="M68.324661 58.582535L74.305954 58.582535L74.305954 51.162140L68.324661 51.162140Z" style="fill: rgb(100.000000%,100.000000%,100.000000%);stroke: none;"></path>
  <g transform="translate(68.824661 57.082535)" style="fill: rgb(0.000000%,0.000000%,0.000000%);">
    <use xlink:href="#GLYPHcmr10_55"></use>
  </g>
  <path d="M124.713013 15.396317L130.694305 15.396317L130.694305 7.975922L124.713013 7.975922Z" style="fill: rgb(100.000000%,100.000000%,100.000000%);stroke: none;"></path>
  <path d="M124.713013 17.396317L130.694305 17.396317L130.694305 9.975922L124.713013 9.975922Z" style="fill: rgb(100.000000%,100.000000%,100.000000%);stroke: none;"></path>
  <g transform="translate(125.213013 15.896317)" style="fill: rgb(0.000000%,0.000000%,0.000000%);">
    <use xlink:href="#GLYPHcmr10_56"></use>
  </g>
  <path d="M120.416794 130.291016L126.398087 130.291016L126.398087 122.870621L120.416794 122.870621Z" style="fill: rgb(100.000000%,100.000000%,100.000000%);stroke: none;"></path>
  <path d="M120.416794 132.291016L126.398087 132.291016L126.398087 124.870621L120.416794 124.870621Z" style="fill: rgb(100.000000%,100.000000%,100.000000%);stroke: none;"></path>
  <g transform="translate(120.916794 130.791016)" style="fill: rgb(0.000000%,0.000000%,0.000000%);">
    <use xlink:href="#GLYPHcmr10_57"></use>
  </g>
  <path d="M105.185883 80.012848L116.148590 80.012848L116.148590 72.592453L105.185883 72.592453Z" style="fill: rgb(100.000000%,100.000000%,100.000000%);stroke: none;"></path>
  <path d="M105.185883 82.012848L116.148590 82.012848L116.148590 74.592453L105.185883 74.592453Z" style="fill: rgb(100.000000%,100.000000%,100.000000%);stroke: none;"></path>
  <g transform="translate(105.685883 80.512848)" style="fill: rgb(0.000000%,0.000000%,0.000000%);">
    <use xlink:href="#GLYPHcmr10_49"></use>
    <use xlink:href="#GLYPHcmr10_48" x="5.000095"></use>
  </g>
  <path d="M128.932022 79.980972L139.894730 79.980972L139.894730 72.560577L128.932022 72.560577Z" style="fill: rgb(100.000000%,100.000000%,100.000000%);stroke: none;"></path>
  <path d="M128.932022 81.980972L139.894730 81.980972L139.894730 74.560577L128.932022 74.560577Z" style="fill: rgb(100.000000%,100.000000%,100.000000%);stroke: none;"></path>
  <g transform="translate(129.432022 80.480972)" style="fill: rgb(0.000000%,0.000000%,0.000000%);">
    <use xlink:href="#GLYPHcmr10_49"></use>
    <use xlink:href="#GLYPHcmr10_49" x="5.000095"></use>
  </g>
  <path d="M182.253113 78.730881L193.215820 78.730881L193.215820 71.310486L182.253113 71.310486Z" style="fill: rgb(100.000000%,100.000000%,100.000000%);stroke: none;"></path>
  <path d="M182.253113 80.730881L193.215820 80.730881L193.215820 73.310486L182.253113 73.310486Z" style="fill: rgb(100.000000%,100.000000%,100.000000%);stroke: none;"></path>
  <g transform="translate(182.753113 79.230881)" style="fill: rgb(0.000000%,0.000000%,0.000000%);">
    <use xlink:href="#GLYPHcmr10_49"></use>
    <use xlink:href="#GLYPHcmr10_50" x="5.000095"></use>
  </g>
</svg>
