<?xml version="1.0"?>
<!-- Created by MetaPost 1.999 on 2021.07.06:0010 -->
<svg version="1.1" xmlns="http://www.w3.org/2000/svg" xmlns:xlink="http://www.w3.org/1999/xlink" width="193.082062" height="188.007355" viewBox="0 0 193.082062 188.007355">
<!-- Original BoundingBox: -117.211563 -110.463394 75.870499 77.543961 -->
  <defs>
    <g transform="scale(0.009963,0.009963)" id="GLYPHcmr10_48">
      <path style="fill-rule: evenodd;" d="M460.000000 -320.000000C460.000000 -400.000000,455.000000 -480.000000,420.000000 -554.000000C374.000000 -650.000000,292.000000 -666.000000,250.000000 -666.000000C190.000000 -666.000000,117.000000 -640.000000,76.000000 -547.000000C44.000000 -478.000000,39.000000 -400.000000,39.000000 -320.000000C39.000000 -245.000000,43.000000 -155.000000,84.000000 -79.000000C127.000000 2.000000,200.000000 22.000000,249.000000 22.000000C303.000000 22.000000,379.000000 1.000000,423.000000 -94.000000C455.000000 -163.000000,460.000000 -241.000000,460.000000 -320.000000M249.000000 -0.000000C210.000000 -0.000000,151.000000 -25.000000,133.000000 -121.000000C122.000000 -181.000000,122.000000 -273.000000,122.000000 -332.000000C122.000000 -396.000000,122.000000 -462.000000,130.000000 -516.000000C149.000000 -635.000000,224.000000 -644.000000,249.000000 -644.000000C282.000000 -644.000000,348.000000 -626.000000,367.000000 -527.000000C377.000000 -471.000000,377.000000 -395.000000,377.000000 -332.000000C377.000000 -257.000000,377.000000 -189.000000,366.000000 -125.000000C351.000000 -30.000000,294.000000 -0.000000,249.000000 -0.000000"></path>
    </g>
    <g transform="scale(0.009963,0.009963)" id="GLYPHcmr10_49">
      <path style="fill-rule: evenodd;" d="M294.000000 -640.000000C294.000000 -664.000000,294.000000 -666.000000,271.000000 -666.000000C209.000000 -602.000000,121.000000 -602.000000,89.000000 -602.000000L89.000000 -571.000000C109.000000 -571.000000,168.000000 -571.000000,220.000000 -597.000000L220.000000 -79.000000C220.000000 -43.000000,217.000000 -31.000000,127.000000 -31.000000L95.000000 -31.000000L95.000000 -0.000000L257.000000 -0.000000L130.000000 -3.000000L217.000000 -3.000000L257.000000 -3.000000L297.000000 -3.000000L384.000000 -3.000000L419.000000 -0.000000L419.000000 -31.000000L387.000000 -31.000000C297.000000 -31.000000,294.000000 -42.000000,294.000000 -79.000000"></path>
    </g>
    <g transform="scale(0.009963,0.009963)" id="GLYPHcmr10_50">
      <path style="fill-rule: evenodd;" d="M127.000000 -77.000000L233.000000 -180.000000C389.000000 -318.000000,449.000000 -372.000000,449.000000 -472.000000C449.000000 -586.000000,359.000000 -666.000000,237.000000 -666.000000C124.000000 -666.000000,50.000000 -574.000000,50.000000 -485.000000C50.000000 -429.000000,100.000000 -429.000000,103.000000 -429.000000C120.000000 -429.000000,155.000000 -441.000000,155.000000 -482.000000C155.000000 -508.000000,137.000000 -534.000000,102.000000 -534.000000C94.000000 -534.000000,92.000000 -534.000000,89.000000 -533.000000C112.000000 -598.000000,166.000000 -635.000000,224.000000 -635.000000C315.000000 -635.000000,358.000000 -554.000000,358.000000 -472.000000C358.000000 -392.000000,308.000000 -313.000000,253.000000 -251.000000L61.000000 -37.000000C50.000000 -26.000000,50.000000 -24.000000,50.000000 -0.000000L421.000000 -0.000000L449.000000 -174.000000L424.000000 -174.000000C419.000000 -144.000000,412.000000 -100.000000,402.000000 -85.000000C395.000000 -77.000000,329.000000 -77.000000,307.000000 -77.000000"></path>
    </g>
    <g transform="scale(0.009963,0.009963)" id="GLYPHcmr10_51">
      <path style="fill-rule: evenodd;" d="M290.000000 -352.000000C372.000000 -379.000000,430.000000 -449.000000,430.000000 -528.000000C430.000000 -610.000000,342.000000 -666.000000,246.000000 -666.000000C145.000000 -666.000000,69.000000 -606.000000,69.000000 -530.000000C69.000000 -497.000000,91.000000 -478.000000,120.000000 -478.000000C151.000000 -478.000000,171.000000 -500.000000,171.000000 -529.000000C171.000000 -579.000000,124.000000 -579.000000,109.000000 -579.000000C140.000000 -628.000000,206.000000 -641.000000,242.000000 -641.000000C283.000000 -641.000000,338.000000 -619.000000,338.000000 -529.000000C338.000000 -517.000000,336.000000 -459.000000,310.000000 -415.000000C280.000000 -367.000000,246.000000 -364.000000,221.000000 -363.000000C213.000000 -362.000000,189.000000 -360.000000,182.000000 -360.000000C174.000000 -359.000000,167.000000 -358.000000,167.000000 -348.000000C167.000000 -337.000000,174.000000 -337.000000,191.000000 -337.000000L235.000000 -337.000000C317.000000 -337.000000,354.000000 -269.000000,354.000000 -171.000000C354.000000 -35.000000,285.000000 -6.000000,241.000000 -6.000000C198.000000 -6.000000,123.000000 -23.000000,88.000000 -82.000000C123.000000 -77.000000,154.000000 -99.000000,154.000000 -137.000000C154.000000 -173.000000,127.000000 -193.000000,98.000000 -193.000000C74.000000 -193.000000,42.000000 -179.000000,42.000000 -135.000000C42.000000 -44.000000,135.000000 22.000000,244.000000 22.000000C366.000000 22.000000,457.000000 -69.000000,457.000000 -171.000000C457.000000 -253.000000,394.000000 -331.000000,290.000000 -352.000000"></path>
    </g>
    <g transform="scale(0.009963,0.009963)" id="GLYPHcmr10_52">
      <path style="fill-rule: evenodd;" d="M294.000000 -165.000000L294.000000 -78.000000C294.000000 -42.000000,292.000000 -31.000000,218.000000 -31.000000L197.000000 -31.000000L197.000000 -0.000000L332.000000 -0.000000L238.000000 -3.000000L290.000000 -3.000000L332.000000 -3.000000L374.000000 -3.000000L427.000000 -3.000000L468.000000 -0.000000L468.000000 -31.000000L447.000000 -31.000000C373.000000 -31.000000,371.000000 -42.000000,371.000000 -78.000000L371.000000 -165.000000L471.000000 -165.000000L471.000000 -196.000000L371.000000 -196.000000L371.000000 -651.000000C371.000000 -671.000000,371.000000 -677.000000,355.000000 -677.000000C346.000000 -677.000000,343.000000 -677.000000,335.000000 -665.000000L28.000000 -196.000000L28.000000 -165.000000M300.000000 -196.000000L56.000000 -196.000000L300.000000 -569.000000"></path>
    </g>
    <g transform="scale(0.009963,0.009963)" id="GLYPHcmr10_53">
      <path style="fill-rule: evenodd;" d="M449.000000 -201.000000C449.000000 -320.000000,367.000000 -420.000000,259.000000 -420.000000C211.000000 -420.000000,168.000000 -404.000000,132.000000 -369.000000L132.000000 -564.000000C152.000000 -558.000000,185.000000 -551.000000,217.000000 -551.000000C340.000000 -551.000000,410.000000 -642.000000,410.000000 -655.000000C410.000000 -661.000000,407.000000 -666.000000,400.000000 -666.000000C399.000000 -666.000000,397.000000 -666.000000,392.000000 -663.000000C372.000000 -654.000000,323.000000 -634.000000,256.000000 -634.000000C216.000000 -634.000000,170.000000 -641.000000,123.000000 -662.000000C115.000000 -665.000000,113.000000 -665.000000,111.000000 -665.000000C101.000000 -665.000000,101.000000 -657.000000,101.000000 -641.000000L101.000000 -345.000000C101.000000 -327.000000,101.000000 -319.000000,115.000000 -319.000000C122.000000 -319.000000,124.000000 -322.000000,128.000000 -328.000000C139.000000 -344.000000,176.000000 -398.000000,257.000000 -398.000000C309.000000 -398.000000,334.000000 -352.000000,342.000000 -334.000000C358.000000 -297.000000,360.000000 -258.000000,360.000000 -208.000000C360.000000 -173.000000,360.000000 -113.000000,336.000000 -71.000000C312.000000 -32.000000,275.000000 -6.000000,229.000000 -6.000000C156.000000 -6.000000,99.000000 -59.000000,82.000000 -118.000000C85.000000 -117.000000,88.000000 -116.000000,99.000000 -116.000000C132.000000 -116.000000,149.000000 -141.000000,149.000000 -165.000000C149.000000 -189.000000,132.000000 -214.000000,99.000000 -214.000000C85.000000 -214.000000,50.000000 -207.000000,50.000000 -161.000000C50.000000 -75.000000,119.000000 22.000000,231.000000 22.000000C347.000000 22.000000,449.000000 -74.000000,449.000000 -201.000000"></path>
    </g>
    <g transform="scale(0.009963,0.009963)" id="GLYPHcmr10_54">
      <path style="fill-rule: evenodd;" d="M132.000000 -328.000000L132.000000 -352.000000C132.000000 -605.000000,256.000000 -641.000000,307.000000 -641.000000C331.000000 -641.000000,373.000000 -635.000000,395.000000 -601.000000C380.000000 -601.000000,340.000000 -601.000000,340.000000 -556.000000C340.000000 -525.000000,364.000000 -510.000000,386.000000 -510.000000C402.000000 -510.000000,432.000000 -519.000000,432.000000 -558.000000C432.000000 -618.000000,388.000000 -666.000000,305.000000 -666.000000C177.000000 -666.000000,42.000000 -537.000000,42.000000 -316.000000C42.000000 -49.000000,158.000000 22.000000,251.000000 22.000000C362.000000 22.000000,457.000000 -72.000000,457.000000 -204.000000C457.000000 -331.000000,368.000000 -427.000000,257.000000 -427.000000C189.000000 -427.000000,152.000000 -376.000000,132.000000 -328.000000M251.000000 -6.000000C188.000000 -6.000000,158.000000 -66.000000,152.000000 -81.000000C134.000000 -128.000000,134.000000 -208.000000,134.000000 -226.000000C134.000000 -304.000000,166.000000 -404.000000,256.000000 -404.000000C272.000000 -404.000000,318.000000 -404.000000,349.000000 -342.000000C367.000000 -305.000000,367.000000 -254.000000,367.000000 -205.000000C367.000000 -157.000000,367.000000 -107.000000,350.000000 -71.000000C320.000000 -11.000000,274.000000 -6.000000,251.000000 -6.000000"></path>
    </g>
    <g transform="scale(0.009963,0.009963)" id="GLYPHcmr10_55">
      <path style="fill-rule: evenodd;" d="M476.000000 -609.000000C485.000000 -621.000000,485.000000 -623.000000,485.000000 -644.000000L242.000000 -644.000000C120.000000 -644.000000,118.000000 -657.000000,114.000000 -676.000000L89.000000 -676.000000L56.000000 -470.000000L81.000000 -470.000000C84.000000 -486.000000,93.000000 -549.000000,106.000000 -561.000000C113.000000 -567.000000,191.000000 -567.000000,204.000000 -567.000000L411.000000 -567.000000C400.000000 -551.000000,321.000000 -442.000000,299.000000 -409.000000C209.000000 -274.000000,176.000000 -135.000000,176.000000 -33.000000C176.000000 -23.000000,176.000000 22.000000,222.000000 22.000000C268.000000 22.000000,268.000000 -23.000000,268.000000 -33.000000L268.000000 -84.000000C268.000000 -139.000000,271.000000 -194.000000,279.000000 -248.000000C283.000000 -271.000000,297.000000 -357.000000,341.000000 -419.000000"></path>
    </g>
    <g transform="scale(0.009963,0.009963)" id="GLYPHcmr10_56">
      <path style="fill-rule: evenodd;" d="M163.000000 -457.000000C117.000000 -487.000000,113.000000 -521.000000,113.000000 -538.000000C113.000000 -599.000000,178.000000 -641.000000,249.000000 -641.000000C322.000000 -641.000000,386.000000 -589.000000,386.000000 -517.000000C386.000000 -460.000000,347.000000 -412.000000,287.000000 -377.000000M309.000000 -362.000000C381.000000 -399.000000,430.000000 -451.000000,430.000000 -517.000000C430.000000 -609.000000,341.000000 -666.000000,250.000000 -666.000000C150.000000 -666.000000,69.000000 -592.000000,69.000000 -499.000000C69.000000 -481.000000,71.000000 -436.000000,113.000000 -389.000000C124.000000 -377.000000,161.000000 -352.000000,186.000000 -335.000000C128.000000 -306.000000,42.000000 -250.000000,42.000000 -151.000000C42.000000 -45.000000,144.000000 22.000000,249.000000 22.000000C362.000000 22.000000,457.000000 -61.000000,457.000000 -168.000000C457.000000 -204.000000,446.000000 -249.000000,408.000000 -291.000000C389.000000 -312.000000,373.000000 -322.000000,309.000000 -362.000000M209.000000 -320.000000L332.000000 -242.000000C360.000000 -223.000000,407.000000 -193.000000,407.000000 -132.000000C407.000000 -58.000000,332.000000 -6.000000,250.000000 -6.000000C164.000000 -6.000000,92.000000 -68.000000,92.000000 -151.000000C92.000000 -209.000000,124.000000 -273.000000,209.000000 -320.000000"></path>
    </g>
    <g transform="scale(0.009963,0.009963)" id="GLYPHcmr10_57">
      <path style="fill-rule: evenodd;" d="M367.000000 -318.000000L367.000000 -286.000000C367.000000 -52.000000,263.000000 -6.000000,205.000000 -6.000000C188.000000 -6.000000,134.000000 -8.000000,107.000000 -42.000000C151.000000 -42.000000,159.000000 -71.000000,159.000000 -88.000000C159.000000 -119.000000,135.000000 -134.000000,113.000000 -134.000000C97.000000 -134.000000,67.000000 -125.000000,67.000000 -86.000000C67.000000 -19.000000,121.000000 22.000000,206.000000 22.000000C335.000000 22.000000,457.000000 -114.000000,457.000000 -329.000000C457.000000 -598.000000,342.000000 -666.000000,253.000000 -666.000000C198.000000 -666.000000,149.000000 -648.000000,106.000000 -603.000000C65.000000 -558.000000,42.000000 -516.000000,42.000000 -441.000000C42.000000 -316.000000,130.000000 -218.000000,242.000000 -218.000000C303.000000 -218.000000,344.000000 -260.000000,367.000000 -318.000000M243.000000 -241.000000C227.000000 -241.000000,181.000000 -241.000000,150.000000 -304.000000C132.000000 -341.000000,132.000000 -391.000000,132.000000 -440.000000C132.000000 -494.000000,132.000000 -541.000000,153.000000 -578.000000C180.000000 -628.000000,218.000000 -641.000000,253.000000 -641.000000C299.000000 -641.000000,332.000000 -607.000000,349.000000 -562.000000C361.000000 -530.000000,365.000000 -467.000000,365.000000 -421.000000C365.000000 -338.000000,331.000000 -241.000000,243.000000 -241.000000"></path>
    </g>
  </defs>
  <path d="M113.130417 85.514404C113.130417 84.721710,112.815475 83.961563,112.254990 83.401093C111.694519 82.840607,110.934372 82.525665,110.141678 82.525665C109.348984 82.525665,108.588837 82.840607,108.028366 83.401093C107.467880 83.961563,107.152939 84.721710,107.152939 85.514404C107.152939 86.307098,107.467880 87.067245,108.028366 87.627716C108.588837 88.188202,109.348984 88.503143,110.141678 88.503143C110.934372 88.503143,111.694519 88.188202,112.254990 87.627716C112.815475 87.067245,113.130417 86.307098,113.130417 85.514404Z" style="fill: rgb(100.000000%,100.000000%,100.000000%);stroke: none;"></path>
  <path d="M109.871063 89.902985C109.871063 89.110291,109.556122 88.350143,108.995636 87.789673C108.435165 87.229187,107.675018 86.914246,106.882324 86.914246C106.089630 86.914246,105.329483 87.229187,104.769012 87.789673C104.208527 88.350143,103.893585 89.110291,103.893585 89.902985C103.893585 90.695679,104.208527 91.455826,104.769012 92.016296C105.329483 92.576782,106.089630 92.891724,106.882324 92.891724C107.675018 92.891724,108.435165 92.576782,108.995636 92.016296C109.556122 91.455826,109.871063 90.695679,109.871063 89.902985Z" style="fill: rgb(100.000000%,100.000000%,100.000000%);stroke: none;"></path>
  <path d="M122.503860 73.959915C122.503860 73.167221,122.188919 72.407074,121.628433 71.846603C121.067963 71.286118,120.307816 70.971176,119.515121 70.971176C118.722427 70.971176,117.962280 71.286118,117.401810 71.846603C116.841324 72.407074,116.526382 73.167221,116.526382 73.959915C116.526382 74.752609,116.841324 75.512756,117.401810 76.073227C117.962280 76.633713,118.722427 76.948654,119.515121 76.948654C120.307816 76.948654,121.067963 76.633713,121.628433 76.073227C122.188919 75.512756,122.503860 74.752609,122.503860 73.959915Z" style="fill: rgb(100.000000%,100.000000%,100.000000%);stroke: none;"></path>
  <path d="M116.504135 81.211945C116.504135 80.419250,116.189194 79.659103,115.628708 79.098633C115.068237 78.538147,114.308090 78.223206,113.515396 78.223206C112.722702 78.223206,111.962555 78.538147,111.402084 79.098633C110.841599 79.659103,110.526657 80.419250,110.526657 81.211945C110.526657 82.004639,110.841599 82.764786,111.402084 83.325256C111.962555 83.885742,112.722702 84.200684,113.515396 84.200684C114.308090 84.200684,115.068237 83.885742,115.628708 83.325256C116.189194 82.764786,116.504135 82.004639,116.504135 81.211945Z" style="fill: rgb(100.000000%,100.000000%,100.000000%);stroke: none;"></path>
  <path d="M124.256683 63.520187C124.256683 62.727493,123.941742 61.967346,123.381256 61.406876C122.820786 60.846390,122.060638 60.531448,121.267944 60.531448C120.475250 60.531448,119.715103 60.846390,119.154633 61.406876C118.594147 61.967346,118.279205 62.727493,118.279205 63.520187C118.279205 64.312881,118.594147 65.073029,119.154633 65.633499C119.715103 66.193985,120.475250 66.508926,121.267944 66.508926C122.060638 66.508926,122.820786 66.193985,123.381256 65.633499C123.941742 65.073029,124.256683 64.312881,124.256683 63.520187Z" style="fill: rgb(100.000000%,100.000000%,100.000000%);stroke: none;"></path>
  <path d="M125.127228 70.632248C125.127228 69.839554,124.812286 69.079407,124.251801 68.518936C123.691330 67.958450,122.931183 67.643509,122.138489 67.643509C121.345795 67.643509,120.585648 67.958450,120.025177 68.518936C119.464691 69.079407,119.149750 69.839554,119.149750 70.632248C119.149750 71.424942,119.464691 72.185089,120.025177 72.745560C120.585648 73.306046,121.345795 73.620987,122.138489 73.620987C122.931183 73.620987,123.691330 73.306046,124.251801 72.745560C124.812286 72.185089,125.127228 71.424942,125.127228 70.632248Z" style="fill: rgb(100.000000%,100.000000%,100.000000%);stroke: none;"></path>
  <path d="M118.470566 56.238876C118.470566 55.446182,118.155624 54.686035,117.595139 54.125565C117.034668 53.565079,116.274521 53.250137,115.481827 53.250137C114.689133 53.250137,113.928986 53.565079,113.368515 54.125565C112.808029 54.686035,112.493088 55.446182,112.493088 56.238876C112.493088 57.031570,112.808029 57.791718,113.368515 58.352188C113.928986 58.912674,114.689133 59.227615,115.481827 59.227615C116.274521 59.227615,117.034668 58.912674,117.595139 58.352188C118.155624 57.791718,118.470566 57.031570,118.470566 56.238876Z" style="fill: rgb(100.000000%,100.000000%,100.000000%);stroke: none;"></path>
  <path d="M121.798874 61.127625C121.798874 60.334930,121.483932 59.574783,120.923447 59.014313C120.362976 58.453827,119.602829 58.138885,118.810135 58.138885C118.017441 58.138885,117.257294 58.453827,116.696823 59.014313C116.136337 59.574783,115.821396 60.334930,115.821396 61.127625C115.821396 61.920319,116.136337 62.680466,116.696823 63.240936C117.257294 63.801422,118.017441 64.116364,118.810135 64.116364C119.602829 64.116364,120.362976 63.801422,120.923447 63.240936C121.483932 62.680466,121.798874 61.920319,121.798874 61.127625Z" style="fill: rgb(100.000000%,100.000000%,100.000000%);stroke: none;"></path>
  <path d="M111.817825 55.269272C111.817825 54.476578,111.502884 53.716431,110.942398 53.155960C110.381927 52.595474,109.621780 52.280533,108.829086 52.280533C108.036392 52.280533,107.276245 52.595474,106.715775 53.155960C106.155289 53.716431,105.840347 54.476578,105.840347 55.269272C105.840347 56.061966,106.155289 56.822113,106.715775 57.382584C107.276245 57.943069,108.036392 58.258011,108.829086 58.258011C109.621780 58.258011,110.381927 57.943069,110.942398 57.382584C111.502884 56.822113,111.817825 56.061966,111.817825 55.269272Z" style="fill: rgb(100.000000%,100.000000%,100.000000%);stroke: none;"></path>
  <path d="M116.668930 53.767731C116.668930 52.975037,116.353989 52.214890,115.793503 51.654419C115.233032 51.093933,114.472885 50.778992,113.680191 50.778992C112.887497 50.778992,112.127350 51.093933,111.566879 51.654419C111.006393 52.214890,110.691452 52.975037,110.691452 53.767731C110.691452 54.560425,111.006393 55.320572,111.566879 55.881042C112.127350 56.441528,112.887497 56.756470,113.680191 56.756470C114.472885 56.756470,115.233032 56.441528,115.793503 55.881042C116.353989 55.320572,116.668930 54.560425,116.668930 53.767731Z" style="fill: rgb(100.000000%,100.000000%,100.000000%);stroke: none;"></path>
  <path d="M111.459778 64.157944C111.459778 63.365250,111.144836 62.605103,110.584351 62.044632C110.023880 61.484146,109.263733 61.169205,108.471039 61.169205C107.678345 61.169205,106.918198 61.484146,106.357727 62.044632C105.797241 62.605103,105.482300 63.365250,105.482300 64.157944C105.482300 64.950638,105.797241 65.710785,106.357727 66.271255C106.918198 66.831741,107.678345 67.146683,108.471039 67.146683C109.263733 67.146683,110.023880 66.831741,110.584351 66.271255C111.144836 65.710785,111.459778 64.950638,111.459778 64.157944Z" style="fill: rgb(100.000000%,100.000000%,100.000000%);stroke: none;"></path>
  <path d="M111.777390 58.349945C111.777390 57.557251,111.462448 56.797104,110.901962 56.236633C110.341492 55.676147,109.581345 55.361206,108.788651 55.361206C107.995956 55.361206,107.235809 55.676147,106.675339 56.236633C106.114853 56.797104,105.799911 57.557251,105.799911 58.349945C105.799911 59.142639,106.114853 59.902786,106.675339 60.463257C107.235809 61.023743,107.995956 61.338684,108.788651 61.338684C109.581345 61.338684,110.341492 61.023743,110.901962 60.463257C111.462448 59.902786,111.777390 59.142639,111.777390 58.349945Z" style="fill: rgb(100.000000%,100.000000%,100.000000%);stroke: none;"></path>
  <path d="M112.828354 73.813263C112.828354 73.020569,112.513412 72.260422,111.952927 71.699951C111.392456 71.139465,110.632309 70.824524,109.839615 70.824524C109.046921 70.824524,108.286774 71.139465,107.726303 71.699951C107.165817 72.260422,106.850876 73.020569,106.850876 73.813263C106.850876 74.605957,107.165817 75.366104,107.726303 75.926575C108.286774 76.487061,109.046921 76.802002,109.839615 76.802002C110.632309 76.802002,111.392456 76.487061,111.952927 75.926575C112.513412 75.366104,112.828354 74.605957,112.828354 73.813263Z" style="fill: rgb(100.000000%,100.000000%,100.000000%);stroke: none;"></path>
  <path d="M110.346405 67.347427C110.346405 66.554733,110.031464 65.794586,109.470978 65.234116C108.910507 64.673630,108.150360 64.358688,107.357666 64.358688C106.564972 64.358688,105.804825 64.673630,105.244354 65.234116C104.683868 65.794586,104.368927 66.554733,104.368927 67.347427C104.368927 68.140121,104.683868 68.900269,105.244354 69.460739C105.804825 70.021225,106.564972 70.336166,107.357666 70.336166C108.150360 70.336166,108.910507 70.021225,109.470978 69.460739C110.031464 68.900269,110.346405 68.140121,110.346405 67.347427Z" style="fill: rgb(100.000000%,100.000000%,100.000000%);stroke: none;"></path>
  <path d="M126.142944 79.913910C126.142944 79.121216,125.828003 78.361069,125.267517 77.800598C124.707047 77.240112,123.946899 76.925171,123.154205 76.925171C122.361511 76.925171,121.601364 77.240112,121.040894 77.800598C120.480408 78.361069,120.165466 79.121216,120.165466 79.913910C120.165466 80.706604,120.480408 81.466751,121.040894 82.027222C121.601364 82.587708,122.361511 82.902649,123.154205 82.902649C123.946899 82.902649,124.707047 82.587708,125.267517 82.027222C125.828003 81.466751,126.142944 80.706604,126.142944 79.913910Z" style="fill: rgb(100.000000%,100.000000%,100.000000%);stroke: none;"></path>
  <path d="M116.582153 75.387039C116.582153 74.594345,116.267212 73.834198,115.706726 73.273727C115.146255 72.713242,114.386108 72.398300,113.593414 72.398300C112.800720 72.398300,112.040573 72.713242,111.480103 73.273727C110.919617 73.834198,110.604675 74.594345,110.604675 75.387039C110.604675 76.179733,110.919617 76.939880,111.480103 77.500351C112.040573 78.060837,112.800720 78.375778,113.593414 78.375778C114.386108 78.375778,115.146255 78.060837,115.706726 77.500351C116.267212 76.939880,116.582153 76.179733,116.582153 75.387039Z" style="fill: rgb(100.000000%,100.000000%,100.000000%);stroke: none;"></path>
  <path d="M148.975281 91.844528C148.975281 91.051834,148.660339 90.291687,148.099854 89.731216C147.539383 89.170731,146.779236 88.855789,145.986542 88.855789C145.193848 88.855789,144.433701 89.170731,143.873230 89.731216C143.312744 90.291687,142.997803 91.051834,142.997803 91.844528C142.997803 92.637222,143.312744 93.397369,143.873230 93.957840C144.433701 94.518326,145.193848 94.833267,145.986542 94.833267C146.779236 94.833267,147.539383 94.518326,148.099854 93.957840C148.660339 93.397369,148.975281 92.637222,148.975281 91.844528Z" style="fill: rgb(100.000000%,100.000000%,100.000000%);stroke: none;"></path>
  <path d="M131.776901 83.822601C131.776901 83.029907,131.461960 82.269760,130.901474 81.709290C130.341003 81.148804,129.580856 80.833862,128.788162 80.833862C127.995468 80.833862,127.235321 81.148804,126.674850 81.709290C126.114365 82.269760,125.799423 83.029907,125.799423 83.822601C125.799423 84.615295,126.114365 85.375443,126.674850 85.935913C127.235321 86.496399,127.995468 86.811340,128.788162 86.811340C129.580856 86.811340,130.341003 86.496399,130.901474 85.935913C131.461960 85.375443,131.776901 84.615295,131.776901 83.822601Z" style="fill: rgb(100.000000%,100.000000%,100.000000%);stroke: none;"></path>
  <path d="M186.484329 80.927444C186.484329 80.134750,186.169388 79.374603,185.608902 78.814133C185.048431 78.253647,184.288284 77.938705,183.495590 77.938705C182.702896 77.938705,181.942749 78.253647,181.382278 78.814133C180.821793 79.374603,180.506851 80.134750,180.506851 80.927444C180.506851 81.720139,180.821793 82.480286,181.382278 83.040756C181.942749 83.601242,182.702896 83.916183,183.495590 83.916183C184.288284 83.916183,185.048431 83.601242,185.608902 83.040756C186.169388 82.480286,186.484329 81.720139,186.484329 80.927444Z" style="fill: rgb(100.000000%,100.000000%,100.000000%);stroke: none;"></path>
  <path d="M161.675659 93.495636C161.675659 92.702942,161.360718 91.942795,160.800232 91.382324C160.239761 90.821838,159.479614 90.506897,158.686920 90.506897C157.894226 90.506897,157.134079 90.821838,156.573608 91.382324C156.013123 91.942795,155.698181 92.702942,155.698181 93.495636C155.698181 94.288330,156.013123 95.048477,156.573608 95.608948C157.134079 96.169434,157.894226 96.484375,158.686920 96.484375C159.479614 96.484375,160.239761 96.169434,160.800232 95.608948C161.360718 95.048477,161.675659 94.288330,161.675659 93.495636Z" style="fill: rgb(100.000000%,100.000000%,100.000000%);stroke: none;"></path>
  <path d="M183.855835 34.828491C183.855835 34.035797,183.540894 33.275650,182.980408 32.715179C182.419937 32.154694,181.659790 31.839752,180.867096 31.839752C180.074402 31.839752,179.314255 32.154694,178.753784 32.715179C178.193298 33.275650,177.878357 34.035797,177.878357 34.828491C177.878357 35.621185,178.193298 36.381332,178.753784 36.941803C179.314255 37.502289,180.074402 37.817230,180.867096 37.817230C181.659790 37.817230,182.419937 37.502289,182.980408 36.941803C183.540894 36.381332,183.855835 35.621185,183.855835 34.828491Z" style="fill: rgb(100.000000%,100.000000%,100.000000%);stroke: none;"></path>
  <path d="M192.870499 64.512589C192.870499 63.719894,192.555557 62.959747,191.995071 62.399277C191.434601 61.838791,190.674454 61.523849,189.881760 61.523849C189.089066 61.523849,188.328918 61.838791,187.768448 62.399277C187.207962 62.959747,186.893021 63.719894,186.893021 64.512589C186.893021 65.305283,187.207962 66.065430,187.768448 66.625900C188.328918 67.186386,189.089066 67.501328,189.881760 67.501328C190.674454 67.501328,191.434601 67.186386,191.995071 66.625900C192.555557 66.065430,192.870499 65.305283,192.870499 64.512589Z" style="fill: rgb(100.000000%,100.000000%,100.000000%);stroke: none;"></path>
  <path d="M145.071304 29.934845C145.071304 29.142151,144.756363 28.382004,144.195877 27.821533C143.635406 27.261047,142.875259 26.946106,142.082565 26.946106C141.289871 26.946106,140.529724 27.261047,139.969254 27.821533C139.408768 28.382004,139.093826 29.142151,139.093826 29.934845C139.093826 30.727539,139.408768 31.487686,139.969254 32.048157C140.529724 32.608643,141.289871 32.923584,142.082565 32.923584C142.875259 32.923584,143.635406 32.608643,144.195877 32.048157C144.756363 31.487686,145.071304 30.727539,145.071304 29.934845Z" style="fill: rgb(100.000000%,100.000000%,100.000000%);stroke: none;"></path>
  <path d="M170.052338 24.944656C170.052338 24.151962,169.737396 23.391815,169.176910 22.831345C168.616440 22.270859,167.856293 21.955917,167.063599 21.955917C166.270905 21.955917,165.510757 22.270859,164.950287 22.831345C164.389801 23.391815,164.074860 24.151962,164.074860 24.944656C164.074860 25.737350,164.389801 26.497498,164.950287 27.057968C165.510757 27.618454,166.270905 27.933395,167.063599 27.933395C167.856293 27.933395,168.616440 27.618454,169.176910 27.057968C169.737396 26.497498,170.052338 25.737350,170.052338 24.944656Z" style="fill: rgb(100.000000%,100.000000%,100.000000%);stroke: none;"></path>
  <path d="M126.876923 50.161072C126.876923 49.368378,126.561981 48.608231,126.001495 48.047760C125.441025 47.487274,124.680878 47.172333,123.888184 47.172333C123.095490 47.172333,122.335342 47.487274,121.774872 48.047760C121.214386 48.608231,120.899445 49.368378,120.899445 50.161072C120.899445 50.953766,121.214386 51.713913,121.774872 52.274384C122.335342 52.834869,123.095490 53.149811,123.888184 53.149811C124.680878 53.149811,125.441025 52.834869,126.001495 52.274384C126.561981 51.713913,126.876923 50.953766,126.876923 50.161072Z" style="fill: rgb(100.000000%,100.000000%,100.000000%);stroke: none;"></path>
  <path d="M137.729172 38.385437C137.729172 37.592743,137.414230 36.832596,136.853745 36.272125C136.293274 35.711639,135.533127 35.396698,134.740433 35.396698C133.947739 35.396698,133.187592 35.711639,132.627121 36.272125C132.066635 36.832596,131.751694 37.592743,131.751694 38.385437C131.751694 39.178131,132.066635 39.938278,132.627121 40.498749C133.187592 41.059235,133.947739 41.374176,134.740433 41.374176C135.533127 41.374176,136.293274 41.059235,136.853745 40.498749C137.414230 39.938278,137.729172 39.178131,137.729172 38.385437Z" style="fill: rgb(100.000000%,100.000000%,100.000000%);stroke: none;"></path>
  <path d="M118.996643 59.878922C118.996643 59.086227,118.681702 58.326080,118.121216 57.765610C117.560745 57.205124,116.800598 56.890182,116.007904 56.890182C115.215210 56.890182,114.455063 57.205124,113.894592 57.765610C113.334106 58.326080,113.019165 59.086227,113.019165 59.878922C113.019165 60.671616,113.334106 61.431763,113.894592 61.992233C114.455063 62.552719,115.215210 62.867661,116.007904 62.867661C116.800598 62.867661,117.560745 62.552719,118.121216 61.992233C118.681702 61.431763,118.996643 60.671616,118.996643 59.878922Z" style="fill: rgb(100.000000%,100.000000%,100.000000%);stroke: none;"></path>
  <path d="M123.098770 54.048462C123.098770 53.255768,122.783829 52.495621,122.223343 51.935150C121.662872 51.374664,120.902725 51.059723,120.110031 51.059723C119.317337 51.059723,118.557190 51.374664,117.996719 51.935150C117.436234 52.495621,117.121292 53.255768,117.121292 54.048462C117.121292 54.841156,117.436234 55.601303,117.996719 56.161774C118.557190 56.722260,119.317337 57.037201,120.110031 57.037201C120.902725 57.037201,121.662872 56.722260,122.223343 56.161774C122.783829 55.601303,123.098770 54.841156,123.098770 54.048462Z" style="fill: rgb(100.000000%,100.000000%,100.000000%);stroke: none;"></path>
  <path d="M114.736160 62.290222C114.736160 61.497528,114.421219 60.737381,113.860733 60.176910C113.300262 59.616425,112.540115 59.301483,111.747421 59.301483C110.954727 59.301483,110.194580 59.616425,109.634109 60.176910C109.073624 60.737381,108.758682 61.497528,108.758682 62.290222C108.758682 63.082916,109.073624 63.843063,109.634109 64.403534C110.194580 64.964020,110.954727 65.278961,111.747421 65.278961C112.540115 65.278961,113.300262 64.964020,113.860733 64.403534C114.421219 63.843063,114.736160 63.082916,114.736160 62.290222Z" style="fill: rgb(100.000000%,100.000000%,100.000000%);stroke: none;"></path>
  <path d="M117.973480 61.398911C117.973480 60.606216,117.658539 59.846069,117.098053 59.285599C116.537582 58.725113,115.777435 58.410172,114.984741 58.410172C114.192047 58.410172,113.431900 58.725113,112.871429 59.285599C112.310944 59.846069,111.996002 60.606216,111.996002 61.398911C111.996002 62.191605,112.310944 62.951752,112.871429 63.512222C113.431900 64.072708,114.192047 64.387650,114.984741 64.387650C115.777435 64.387650,116.537582 64.072708,117.098053 63.512222C117.658539 62.951752,117.973480 62.191605,117.973480 61.398911Z" style="fill: rgb(100.000000%,100.000000%,100.000000%);stroke: none;"></path>
  <path d="M107.963287 59.632874C107.963287 58.840179,107.648346 58.080032,107.087860 57.519562C106.527390 56.959076,105.767242 56.644135,104.974548 56.644135C104.181854 56.644135,103.421707 56.959076,102.861237 57.519562C102.300751 58.080032,101.985809 58.840179,101.985809 59.632874C101.985809 60.425568,102.300751 61.185715,102.861237 61.746185C103.421707 62.306671,104.181854 62.621613,104.974548 62.621613C105.767242 62.621613,106.527390 62.306671,107.087860 61.746185C107.648346 61.185715,107.963287 60.425568,107.963287 59.632874Z" style="fill: rgb(100.000000%,100.000000%,100.000000%);stroke: none;"></path>
  <path d="M113.153885 61.604980C113.153885 60.812286,112.838943 60.052139,112.278458 59.491669C111.717987 58.931183,110.957840 58.616241,110.165146 58.616241C109.372452 58.616241,108.612305 58.931183,108.051834 59.491669C107.491348 60.052139,107.176407 60.812286,107.176407 61.604980C107.176407 62.397675,107.491348 63.157822,108.051834 63.718292C108.612305 64.278778,109.372452 64.593719,110.165146 64.593719C110.957840 64.593719,111.717987 64.278778,112.278458 63.718292C112.838943 63.157822,113.153885 62.397675,113.153885 61.604980Z" style="fill: rgb(100.000000%,100.000000%,100.000000%);stroke: none;"></path>
  <path d="M95.875244 56.337387C95.875244 55.544693,95.560303 54.784546,94.999817 54.224075C94.439346 53.663589,93.679199 53.348648,92.886505 53.348648C92.093811 53.348648,91.333664 53.663589,90.773193 54.224075C90.212708 54.784546,89.897766 55.544693,89.897766 56.337387C89.897766 57.130081,90.212708 57.890228,90.773193 58.450699C91.333664 59.011185,92.093811 59.326126,92.886505 59.326126C93.679199 59.326126,94.439346 59.011185,94.999817 58.450699C95.560303 57.890228,95.875244 57.130081,95.875244 56.337387Z" style="fill: rgb(100.000000%,100.000000%,100.000000%);stroke: none;"></path>
  <path d="M104.092407 58.881744C104.092407 58.089050,103.777466 57.328903,103.216980 56.768433C102.656509 56.207947,101.896362 55.893005,101.103668 55.893005C100.310974 55.893005,99.550827 56.207947,98.990356 56.768433C98.429871 57.328903,98.114929 58.089050,98.114929 58.881744C98.114929 59.674438,98.429871 60.434586,98.990356 60.995056C99.550827 61.555542,100.310974 61.870483,101.103668 61.870483C101.896362 61.870483,102.656509 61.555542,103.216980 60.995056C103.777466 60.434586,104.092407 59.674438,104.092407 58.881744Z" style="fill: rgb(100.000000%,100.000000%,100.000000%);stroke: none;"></path>
  <path d="M82.328613 51.640305C82.328613 50.847610,82.013672 50.087463,81.453186 49.526993C80.892715 48.966507,80.132568 48.651566,79.339874 48.651566C78.547180 48.651566,77.787033 48.966507,77.226562 49.526993C76.666077 50.087463,76.351135 50.847610,76.351135 51.640305C76.351135 52.432999,76.666077 53.193146,77.226562 53.753616C77.787033 54.314102,78.547180 54.629044,79.339874 54.629044C80.132568 54.629044,80.892715 54.314102,81.453186 53.753616C82.013672 53.193146,82.328613 52.432999,82.328613 51.640305Z" style="fill: rgb(100.000000%,100.000000%,100.000000%);stroke: none;"></path>
  <path d="M91.601440 54.377045C91.601440 53.584351,91.286499 52.824203,90.726013 52.263733C90.165543 51.703247,89.405396 51.388306,88.612701 51.388306C87.820007 51.388306,87.059860 51.703247,86.499390 52.263733C85.938904 52.824203,85.623962 53.584351,85.623962 54.377045C85.623962 55.169739,85.938904 55.929886,86.499390 56.490356C87.059860 57.050842,87.820007 57.365784,88.612701 57.365784C89.405396 57.365784,90.165543 57.050842,90.726013 56.490356C91.286499 55.929886,91.601440 55.169739,91.601440 54.377045Z" style="fill: rgb(100.000000%,100.000000%,100.000000%);stroke: none;"></path>
  <path d="M65.212814 41.094147C65.212814 40.301453,64.897873 39.541306,64.337387 38.980835C63.776917 38.420349,63.016769 38.105408,62.224075 38.105408C61.431381 38.105408,60.671234 38.420349,60.110764 38.980835C59.550278 39.541306,59.235336 40.301453,59.235336 41.094147C59.235336 41.886841,59.550278 42.646988,60.110764 43.207458C60.671234 43.767944,61.431381 44.082886,62.224075 44.082886C63.016769 44.082886,63.776917 43.767944,64.337387 43.207458C64.897873 42.646988,65.212814 41.886841,65.212814 41.094147Z" style="fill: rgb(100.000000%,100.000000%,100.000000%);stroke: none;"></path>
  <path d="M77.191437 50.880676C77.191437 50.087982,76.876495 49.327835,76.316010 48.767365C75.755539 48.206879,74.995392 47.891937,74.202698 47.891937C73.410004 47.891937,72.649857 48.206879,72.089386 48.767365C71.528900 49.327835,71.213959 50.087982,71.213959 50.880676C71.213959 51.673370,71.528900 52.433517,72.089386 52.993988C72.649857 53.554474,73.410004 53.869415,74.202698 53.869415C74.995392 53.869415,75.755539 53.554474,76.316010 52.993988C76.876495 52.433517,77.191437 51.673370,77.191437 50.880676Z" style="fill: rgb(100.000000%,100.000000%,100.000000%);stroke: none;"></path>
  <path d="M81.772751 6.946060C81.772751 6.153366,81.457809 5.393219,80.897324 4.832748C80.336853 4.272263,79.576706 3.957321,78.784012 3.957321C77.991318 3.957321,77.231171 4.272263,76.670700 4.832748C76.110214 5.393219,75.795273 6.153366,75.795273 6.946060C75.795273 7.738754,76.110214 8.498901,76.670700 9.059372C77.231171 9.619858,77.991318 9.934799,78.784012 9.934799C79.576706 9.934799,80.336853 9.619858,80.897324 9.059372C81.457809 8.498901,81.772751 7.738754,81.772751 6.946060Z" style="fill: rgb(100.000000%,100.000000%,100.000000%);stroke: none;"></path>
  <path d="M65.786987 28.852127C65.786987 28.059433,65.472046 27.299286,64.911560 26.738815C64.351089 26.178329,63.590942 25.863388,62.798248 25.863388C62.005554 25.863388,61.245407 26.178329,60.684937 26.738815C60.124451 27.299286,59.809509 28.059433,59.809509 28.852127C59.809509 29.644821,60.124451 30.404968,60.684937 30.965439C61.245407 31.525925,62.005554 31.840866,62.798248 31.840866C63.590942 31.840866,64.351089 31.525925,64.911560 30.965439C65.472046 30.404968,65.786987 29.644821,65.786987 28.852127Z" style="fill: rgb(100.000000%,100.000000%,100.000000%);stroke: none;"></path>
  <path d="M133.168228 4.673859C133.168228 3.881165,132.853287 3.121017,132.292801 2.560547C131.732330 2.000061,130.972183 1.685120,130.179489 1.685120C129.386795 1.685120,128.626648 2.000061,128.066177 2.560547C127.505692 3.121017,127.190750 3.881165,127.190750 4.673859C127.190750 5.466553,127.505692 6.226700,128.066177 6.787170C128.626648 7.347656,129.386795 7.662598,130.179489 7.662598C130.972183 7.662598,131.732330 7.347656,132.292801 6.787170C132.853287 6.226700,133.168228 5.466553,133.168228 4.673859Z" style="fill: rgb(100.000000%,100.000000%,100.000000%);stroke: none;"></path>
  <path d="M98.832184 3.709610C98.832184 2.916916,98.517242 2.156769,97.956757 1.596298C97.396286 1.035812,96.636139 0.720871,95.843445 0.720871C95.050751 0.720871,94.290604 1.035812,93.730133 1.596298C93.169647 2.156769,92.854706 2.916916,92.854706 3.709610C92.854706 4.502304,93.169647 5.262451,93.730133 5.822922C94.290604 6.383408,95.050751 6.698349,95.843445 6.698349C96.636139 6.698349,97.396286 6.383408,97.956757 5.822922C98.517242 5.262451,98.832184 4.502304,98.832184 3.709610Z" style="fill: rgb(100.000000%,100.000000%,100.000000%);stroke: none;"></path>
  <path d="M157.842285 38.570786C157.842285 37.778091,157.527344 37.017944,156.966858 36.457474C156.406387 35.896988,155.646240 35.582047,154.853546 35.582047C154.060852 35.582047,153.300705 35.896988,152.740234 36.457474C152.179749 37.017944,151.864807 37.778091,151.864807 38.570786C151.864807 39.363480,152.179749 40.123627,152.740234 40.684097C153.300705 41.244583,154.060852 41.559525,154.853546 41.559525C155.646240 41.559525,156.406387 41.244583,156.966858 40.684097C157.527344 40.123627,157.842285 39.363480,157.842285 38.570786Z" style="fill: rgb(100.000000%,100.000000%,100.000000%);stroke: none;"></path>
  <path d="M151.856049 11.210373C151.856049 10.417679,151.541107 9.657532,150.980621 9.097061C150.420151 8.536575,149.660004 8.221634,148.867310 8.221634C148.074615 8.221634,147.314468 8.536575,146.753998 9.097061C146.193512 9.657532,145.878571 10.417679,145.878571 11.210373C145.878571 12.003067,146.193512 12.763214,146.753998 13.323685C147.314468 13.884171,148.074615 14.199112,148.867310 14.199112C149.660004 14.199112,150.420151 13.884171,150.980621 13.323685C151.541107 12.763214,151.856049 12.003067,151.856049 11.210373Z" style="fill: rgb(100.000000%,100.000000%,100.000000%);stroke: none;"></path>
  <path d="M157.196945 71.138474C157.196945 70.345779,156.882004 69.585632,156.321518 69.025162C155.761047 68.464676,155.000900 68.149734,154.208206 68.149734C153.415512 68.149734,152.655365 68.464676,152.094894 69.025162C151.534409 69.585632,151.219467 70.345779,151.219467 71.138474C151.219467 71.931168,151.534409 72.691315,152.094894 73.251785C152.655365 73.812271,153.415512 74.127213,154.208206 74.127213C155.000900 74.127213,155.761047 73.812271,156.321518 73.251785C156.882004 72.691315,157.196945 71.931168,157.196945 71.138474Z" style="fill: rgb(100.000000%,100.000000%,100.000000%);stroke: none;"></path>
  <path d="M151.565063 49.540802C151.565063 48.748108,151.250122 47.987961,150.689636 47.427490C150.129166 46.867004,149.369019 46.552063,148.576324 46.552063C147.783630 46.552063,147.023483 46.867004,146.463013 47.427490C145.902527 47.987961,145.587585 48.748108,145.587585 49.540802C145.587585 50.333496,145.902527 51.093643,146.463013 51.654114C147.023483 52.214600,147.783630 52.529541,148.576324 52.529541C149.369019 52.529541,150.129166 52.214600,150.689636 51.654114C151.250122 51.093643,151.565063 50.333496,151.565063 49.540802Z" style="fill: rgb(100.000000%,100.000000%,100.000000%);stroke: none;"></path>
  <path d="M179.474625 106.267685C179.474625 105.474991,179.159683 104.714844,178.599197 104.154373C178.038727 103.593887,177.278580 103.278946,176.485886 103.278946C175.693192 103.278946,174.933044 103.593887,174.372574 104.154373C173.812088 104.714844,173.497147 105.474991,173.497147 106.267685C173.497147 107.060379,173.812088 107.820526,174.372574 108.380997C174.933044 108.941483,175.693192 109.256424,176.485886 109.256424C177.278580 109.256424,178.038727 108.941483,178.599197 108.380997C179.159683 107.820526,179.474625 107.060379,179.474625 106.267685Z" style="fill: rgb(100.000000%,100.000000%,100.000000%);stroke: none;"></path>
  <path d="M168.444717 77.526520C168.444717 76.733826,168.129776 75.973679,167.569290 75.413208C167.008820 74.852722,166.248672 74.537781,165.455978 74.537781C164.663284 74.537781,163.903137 74.852722,163.342667 75.413208C162.782181 75.973679,162.467239 76.733826,162.467239 77.526520C162.467239 78.319214,162.782181 79.079361,163.342667 79.639832C163.903137 80.200317,164.663284 80.515259,165.455978 80.515259C166.248672 80.515259,167.008820 80.200317,167.569290 79.639832C168.129776 79.079361,168.444717 78.319214,168.444717 77.526520Z" style="fill: rgb(100.000000%,100.000000%,100.000000%);stroke: none;"></path>
  <path d="M136.574142 152.542099C136.574142 151.749405,136.259201 150.989258,135.698715 150.428787C135.138245 149.868301,134.378098 149.553360,133.585403 149.553360C132.792709 149.553360,132.032562 149.868301,131.472092 150.428787C130.911606 150.989258,130.596664 151.749405,130.596664 152.542099C130.596664 153.334793,130.911606 154.094940,131.472092 154.655411C132.032562 155.215897,132.792709 155.530838,133.585403 155.530838C134.378098 155.530838,135.138245 155.215897,135.698715 154.655411C136.259201 154.094940,136.574142 153.334793,136.574142 152.542099Z" style="fill: rgb(100.000000%,100.000000%,100.000000%);stroke: none;"></path>
  <path d="M164.416946 123.192108C164.416946 122.399414,164.102005 121.639267,163.541519 121.078796C162.981049 120.518311,162.220901 120.203369,161.428207 120.203369C160.635513 120.203369,159.875366 120.518311,159.314896 121.078796C158.754410 121.639267,158.439468 122.399414,158.439468 123.192108C158.439468 123.984802,158.754410 124.744949,159.314896 125.305420C159.875366 125.865906,160.635513 126.180847,161.428207 126.180847C162.220901 126.180847,162.981049 125.865906,163.541519 125.305420C164.102005 124.744949,164.416946 123.984802,164.416946 123.192108Z" style="fill: rgb(100.000000%,100.000000%,100.000000%);stroke: none;"></path>
  <path d="M90.408218 157.217239C90.408218 156.424545,90.093277 155.664398,89.532791 155.103928C88.972321 154.543442,88.212173 154.228500,87.419479 154.228500C86.626785 154.228500,85.866638 154.543442,85.306168 155.103928C84.745682 155.664398,84.430740 156.424545,84.430740 157.217239C84.430740 158.009933,84.745682 158.770081,85.306168 159.330551C85.866638 159.891037,86.626785 160.205978,87.419479 160.205978C88.212173 160.205978,88.972321 159.891037,89.532791 159.330551C90.093277 158.770081,90.408218 158.009933,90.408218 157.217239Z" style="fill: rgb(100.000000%,100.000000%,100.000000%);stroke: none;"></path>
  <path d="M120.262817 168.233459C120.262817 167.440765,119.947876 166.680618,119.387390 166.120148C118.826920 165.559662,118.066772 165.244720,117.274078 165.244720C116.481384 165.244720,115.721237 165.559662,115.160767 166.120148C114.600281 166.680618,114.285339 167.440765,114.285339 168.233459C114.285339 169.026154,114.600281 169.786301,115.160767 170.346771C115.721237 170.907257,116.481384 171.222198,117.274078 171.222198C118.066772 171.222198,118.826920 170.907257,119.387390 170.346771C119.947876 169.786301,120.262817 169.026154,120.262817 168.233459Z" style="fill: rgb(100.000000%,100.000000%,100.000000%);stroke: none;"></path>
  <path d="M59.167969 142.208801C59.167969 141.416107,58.853027 140.655960,58.292542 140.095490C57.732071 139.535004,56.971924 139.220062,56.179230 139.220062C55.386536 139.220062,54.626389 139.535004,54.065918 140.095490C53.505432 140.655960,53.190491 141.416107,53.190491 142.208801C53.190491 143.001495,53.505432 143.761642,54.065918 144.322113C54.626389 144.882599,55.386536 145.197540,56.179230 145.197540C56.971924 145.197540,57.732071 144.882599,58.292542 144.322113C58.853027 143.761642,59.167969 143.001495,59.167969 142.208801Z" style="fill: rgb(100.000000%,100.000000%,100.000000%);stroke: none;"></path>
  <path d="M83.428131 143.433701C83.428131 142.641006,83.113190 141.880859,82.552704 141.320389C81.992233 140.759903,81.232086 140.444962,80.439392 140.444962C79.646698 140.444962,78.886551 140.759903,78.326080 141.320389C77.765594 141.880859,77.450653 142.641006,77.450653 143.433701C77.450653 144.226395,77.765594 144.986542,78.326080 145.547012C78.886551 146.107498,79.646698 146.422440,80.439392 146.422440C81.232086 146.422440,81.992233 146.107498,82.552704 145.547012C83.113190 144.986542,83.428131 144.226395,83.428131 143.433701Z" style="fill: rgb(100.000000%,100.000000%,100.000000%);stroke: none;"></path>
  <path d="M25.672363 156.858536C25.672363 156.065842,25.357422 155.305695,24.796936 154.745224C24.236465 154.184738,23.476318 153.869797,22.683624 153.869797C21.890930 153.869797,21.130783 154.184738,20.570312 154.745224C20.009827 155.305695,19.694885 156.065842,19.694885 156.858536C19.694885 157.651230,20.009827 158.411377,20.570312 158.971848C21.130783 159.532333,21.890930 159.847275,22.683624 159.847275C23.476318 159.847275,24.236465 159.532333,24.796936 158.971848C25.357422 158.411377,25.672363 157.651230,25.672363 156.858536Z" style="fill: rgb(100.000000%,100.000000%,100.000000%);stroke: none;"></path>
  <path d="M50.780594 153.062469C50.780594 152.269775,50.465652 151.509628,49.905167 150.949158C49.344696 150.388672,48.584549 150.073730,47.791855 150.073730C46.999161 150.073730,46.239014 150.388672,45.678543 150.949158C45.118057 151.509628,44.803116 152.269775,44.803116 153.062469C44.803116 153.855164,45.118057 154.615311,45.678543 155.175781C46.239014 155.736267,46.999161 156.051208,47.791855 156.051208C48.584549 156.051208,49.344696 155.736267,49.905167 155.175781C50.465652 154.615311,50.780594 153.855164,50.780594 153.062469Z" style="fill: rgb(100.000000%,100.000000%,100.000000%);stroke: none;"></path>
  <path d="M5.765915 117.305893C5.765915 116.513199,5.450974 115.753052,4.890488 115.192581C4.330017 114.632095,3.569870 114.317154,2.777176 114.317154C1.984482 114.317154,1.224335 114.632095,0.663864 115.192581C0.103378 115.753052,-0.211563 116.513199,-0.211563 117.305893C-0.211563 118.098587,0.103378 118.858734,0.663864 119.419205C1.224335 119.979691,1.984482 120.294632,2.777176 120.294632C3.569870 120.294632,4.330017 119.979691,4.890488 119.419205C5.450974 118.858734,5.765915 118.098587,5.765915 117.305893Z" style="fill: rgb(100.000000%,100.000000%,100.000000%);stroke: none;"></path>
  <path d="M13.638107 145.949081C13.638107 145.156387,13.323166 144.396240,12.762680 143.835770C12.202209 143.275284,11.442062 142.960342,10.649368 142.960342C9.856674 142.960342,9.096527 143.275284,8.536057 143.835770C7.975571 144.396240,7.660629 145.156387,7.660629 145.949081C7.660629 146.741776,7.975571 147.501923,8.536057 148.062393C9.096527 148.622879,9.856674 148.937820,10.649368 148.937820C11.442062 148.937820,12.202209 148.622879,12.762680 148.062393C13.323166 147.501923,13.638107 146.741776,13.638107 145.949081Z" style="fill: rgb(100.000000%,100.000000%,100.000000%);stroke: none;"></path>
  <path d="M33.045105 86.718307C33.045105 85.925613,32.730164 85.165466,32.169678 84.604996C31.609207 84.044510,30.849060 83.729568,30.056366 83.729568C29.263672 83.729568,28.503525 84.044510,27.943054 84.604996C27.382568 85.165466,27.067627 85.925613,27.067627 86.718307C27.067627 87.511002,27.382568 88.271149,27.943054 88.831619C28.503525 89.392105,29.263672 89.707047,30.056366 89.707047C30.849060 89.707047,31.609207 89.392105,32.169678 88.831619C32.730164 88.271149,33.045105 87.511002,33.045105 86.718307Z" style="fill: rgb(100.000000%,100.000000%,100.000000%);stroke: none;"></path>
  <path d="M10.299225 101.576157C10.299225 100.783463,9.984283 100.023315,9.423798 99.462845C8.863327 98.902359,8.103180 98.587418,7.310486 98.587418C6.517792 98.587418,5.757645 98.902359,5.197174 99.462845C4.636688 100.023315,4.321747 100.783463,4.321747 101.576157C4.321747 102.368851,4.636688 103.128998,5.197174 103.689468C5.757645 104.249954,6.517792 104.564896,7.310486 104.564896C8.103180 104.564896,8.863327 104.249954,9.423798 103.689468C9.984283 103.128998,10.299225 102.368851,10.299225 101.576157Z" style="fill: rgb(100.000000%,100.000000%,100.000000%);stroke: none;"></path>
  <path d="M65.710129 87.592941C65.710129 86.800247,65.395187 86.040100,64.834702 85.479630C64.274231 84.919144,63.514084 84.604202,62.721390 84.604202C61.928696 84.604202,61.168549 84.919144,60.608078 85.479630C60.047592 86.040100,59.732651 86.800247,59.732651 87.592941C59.732651 88.385635,60.047592 89.145782,60.608078 89.706253C61.168549 90.266739,61.928696 90.581680,62.721390 90.581680C63.514084 90.581680,64.274231 90.266739,64.834702 89.706253C65.395187 89.145782,65.710129 88.385635,65.710129 87.592941Z" style="fill: rgb(100.000000%,100.000000%,100.000000%);stroke: none;"></path>
  <path d="M45.976669 87.482132C45.976669 86.689438,45.661728 85.929291,45.101242 85.368820C44.540771 84.808334,43.780624 84.493393,42.987930 84.493393C42.195236 84.493393,41.435089 84.808334,40.874619 85.368820C40.314133 85.929291,39.999191 86.689438,39.999191 87.482132C39.999191 88.274826,40.314133 89.034973,40.874619 89.595444C41.435089 90.155930,42.195236 90.470871,42.987930 90.470871C43.780624 90.470871,44.540771 90.155930,45.101242 89.595444C45.661728 89.034973,45.976669 88.274826,45.976669 87.482132Z" style="fill: rgb(100.000000%,100.000000%,100.000000%);stroke: none;"></path>
  <path d="M84.187164 84.575851C84.187164 83.783157,83.872223 83.023010,83.311737 82.462540C82.751266 81.902054,81.991119 81.587112,81.198425 81.587112C80.405731 81.587112,79.645584 81.902054,79.085114 82.462540C78.524628 83.023010,78.209686 83.783157,78.209686 84.575851C78.209686 85.368546,78.524628 86.128693,79.085114 86.689163C79.645584 87.249649,80.405731 87.564590,81.198425 87.564590C81.991119 87.564590,82.751266 87.249649,83.311737 86.689163C83.872223 86.128693,84.187164 85.368546,84.187164 84.575851Z" style="fill: rgb(100.000000%,100.000000%,100.000000%);stroke: none;"></path>
  <path d="M73.172714 87.295425C73.172714 86.502731,72.857773 85.742584,72.297287 85.182114C71.736816 84.621628,70.976669 84.306686,70.183975 84.306686C69.391281 84.306686,68.631134 84.621628,68.070663 85.182114C67.510178 85.742584,67.195236 86.502731,67.195236 87.295425C67.195236 88.088120,67.510178 88.848267,68.070663 89.408737C68.631134 89.969223,69.391281 90.284164,70.183975 90.284164C70.976669 90.284164,71.736816 89.969223,72.297287 89.408737C72.857773 88.848267,73.172714 88.088120,73.172714 87.295425Z" style="fill: rgb(100.000000%,100.000000%,100.000000%);stroke: none;"></path>
  <path d="M94.813141 88.059830C94.813141 87.267136,94.498199 86.506989,93.937714 85.946518C93.377243 85.386032,92.617096 85.071091,91.824402 85.071091C91.031708 85.071091,90.271561 85.386032,89.711090 85.946518C89.150604 86.506989,88.835663 87.267136,88.835663 88.059830C88.835663 88.852524,89.150604 89.612671,89.711090 90.173141C90.271561 90.733627,91.031708 91.048569,91.824402 91.048569C92.617096 91.048569,93.377243 90.733627,93.937714 90.173141C94.498199 89.612671,94.813141 88.852524,94.813141 88.059830Z" style="fill: rgb(100.000000%,100.000000%,100.000000%);stroke: none;"></path>
  <path d="M88.309479 83.384888C88.309479 82.592194,87.994537 81.832047,87.434052 81.271576C86.873581 80.711090,86.113434 80.396149,85.320740 80.396149C84.528046 80.396149,83.767899 80.711090,83.207428 81.271576C82.646942 81.832047,82.332001 82.592194,82.332001 83.384888C82.332001 84.177582,82.646942 84.937729,83.207428 85.498199C83.767899 86.058685,84.528046 86.373627,85.320740 86.373627C86.113434 86.373627,86.873581 86.058685,87.434052 85.498199C87.994537 84.937729,88.309479 84.177582,88.309479 83.384888Z" style="fill: rgb(100.000000%,100.000000%,100.000000%);stroke: none;"></path>
  <path d="M95.330399 105.055573C95.330399 104.262878,95.015457 103.502731,94.454971 102.942261C93.894501 102.381775,93.134354 102.066833,92.341660 102.066833C91.548965 102.066833,90.788818 102.381775,90.228348 102.942261C89.667862 103.502731,89.352921 104.262878,89.352921 105.055573C89.352921 105.848267,89.667862 106.608414,90.228348 107.168884C90.788818 107.729370,91.548965 108.044312,92.341660 108.044312C93.134354 108.044312,93.894501 107.729370,94.454971 107.168884C95.015457 106.608414,95.330399 105.848267,95.330399 105.055573Z" style="fill: rgb(100.000000%,100.000000%,100.000000%);stroke: none;"></path>
  <path d="M94.810394 92.654434C94.810394 91.861740,94.495453 91.101593,93.934967 90.541122C93.374496 89.980637,92.614349 89.665695,91.821655 89.665695C91.028961 89.665695,90.268814 89.980637,89.708344 90.541122C89.147858 91.101593,88.832916 91.861740,88.832916 92.654434C88.832916 93.447128,89.147858 94.207275,89.708344 94.767746C90.268814 95.328232,91.028961 95.643173,91.821655 95.643173C92.614349 95.643173,93.374496 95.328232,93.934967 94.767746C94.495453 94.207275,94.810394 93.447128,94.810394 92.654434Z" style="fill: rgb(100.000000%,100.000000%,100.000000%);stroke: none;"></path>
  <path d="M103.712463 134.375519C103.712463 133.582825,103.397522 132.822678,102.837036 132.262207C102.276566 131.701721,101.516418 131.386780,100.723724 131.386780C99.931030 131.386780,99.170883 131.701721,98.610413 132.262207C98.049927 132.822678,97.734985 133.582825,97.734985 134.375519C97.734985 135.168213,98.049927 135.928360,98.610413 136.488831C99.170883 137.049316,99.931030 137.364258,100.723724 137.364258C101.516418 137.364258,102.276566 137.049316,102.837036 136.488831C103.397522 135.928360,103.712463 135.168213,103.712463 134.375519Z" style="fill: rgb(100.000000%,100.000000%,100.000000%);stroke: none;"></path>
  <path d="M97.650848 113.030975C97.650848 112.238281,97.335907 111.478134,96.775421 110.917664C96.214951 110.357178,95.454803 110.042236,94.662109 110.042236C93.869415 110.042236,93.109268 110.357178,92.548798 110.917664C91.988312 111.478134,91.673370 112.238281,91.673370 113.030975C91.673370 113.823669,91.988312 114.583817,92.548798 115.144287C93.109268 115.704773,93.869415 116.019714,94.662109 116.019714C95.454803 116.019714,96.214951 115.704773,96.775421 115.144287C97.335907 114.583817,97.650848 113.823669,97.650848 113.030975Z" style="fill: rgb(100.000000%,100.000000%,100.000000%);stroke: none;"></path>
  <path d="M96.394211 175.811661C96.394211 175.018967,96.079269 174.258820,95.518784 173.698349C94.958313 173.137863,94.198166 172.822922,93.405472 172.822922C92.612778 172.822922,91.852631 173.137863,91.292160 173.698349C90.731674 174.258820,90.416733 175.018967,90.416733 175.811661C90.416733 176.604355,90.731674 177.364502,91.292160 177.924973C91.852631 178.485458,92.612778 178.800400,93.405472 178.800400C94.198166 178.800400,94.958313 178.485458,95.518784 177.924973C96.079269 177.364502,96.394211 176.604355,96.394211 175.811661Z" style="fill: rgb(100.000000%,100.000000%,100.000000%);stroke: none;"></path>
  <path d="M107.261032 148.565201C107.261032 147.772507,106.946091 147.012360,106.385605 146.451889C105.825134 145.891403,105.064987 145.576462,104.272293 145.576462C103.479599 145.576462,102.719452 145.891403,102.158981 146.451889C101.598495 147.012360,101.283554 147.772507,101.283554 148.565201C101.283554 149.357895,101.598495 150.118042,102.158981 150.678513C102.719452 151.238998,103.479599 151.553940,104.272293 151.553940C105.064987 151.553940,105.825134 151.238998,106.385605 150.678513C106.946091 150.118042,107.261032 149.357895,107.261032 148.565201Z" style="fill: rgb(100.000000%,100.000000%,100.000000%);stroke: none;"></path>
  <path d="M51.666748 180.961502C51.666748 180.168808,51.351807 179.408661,50.791321 178.848190C50.230850 178.287704,49.470703 177.972763,48.678009 177.972763C47.885315 177.972763,47.125168 178.287704,46.564697 178.848190C46.004211 179.408661,45.689270 180.168808,45.689270 180.961502C45.689270 181.754196,46.004211 182.514343,46.564697 183.074814C47.125168 183.635300,47.885315 183.950241,48.678009 183.950241C49.470703 183.950241,50.230850 183.635300,50.791321 183.074814C51.351807 182.514343,51.666748 181.754196,51.666748 180.961502Z" style="fill: rgb(100.000000%,100.000000%,100.000000%);stroke: none;"></path>
  <path d="M81.807510 184.474655C81.807510 183.681961,81.492569 182.921814,80.932083 182.361343C80.371613 181.800858,79.611465 181.485916,78.818771 181.485916C78.026077 181.485916,77.265930 181.800858,76.705460 182.361343C76.144974 182.921814,75.830032 183.681961,75.830032 184.474655C75.830032 185.267349,76.144974 186.027496,76.705460 186.587967C77.265930 187.148453,78.026077 187.463394,78.818771 187.463394C79.611465 187.463394,80.371613 187.148453,80.932083 186.587967C81.492569 186.027496,81.807510 185.267349,81.807510 184.474655Z" style="fill: rgb(100.000000%,100.000000%,100.000000%);stroke: none;"></path>
  <path d="M39.561020 143.110870C39.561020 142.318176,39.246078 141.558029,38.685593 140.997559C38.125122 140.437073,37.364975 140.122131,36.572281 140.122131C35.779587 140.122131,35.019440 140.437073,34.458969 140.997559C33.898483 141.558029,33.583542 142.318176,33.583542 143.110870C33.583542 143.903564,33.898483 144.663712,34.458969 145.224182C35.019440 145.784668,35.779587 146.099609,36.572281 146.099609C37.364975 146.099609,38.125122 145.784668,38.685593 145.224182C39.246078 144.663712,39.561020 143.903564,39.561020 143.110870Z" style="fill: rgb(100.000000%,100.000000%,100.000000%);stroke: none;"></path>
  <path d="M39.631104 169.406387C39.631104 168.613693,39.316162 167.853546,38.755676 167.293076C38.195206 166.732590,37.435059 166.417648,36.642365 166.417648C35.849670 166.417648,35.089523 166.732590,34.529053 167.293076C33.968567 167.853546,33.653625 168.613693,33.653625 169.406387C33.653625 170.199081,33.968567 170.959229,34.529053 171.519699C35.089523 172.080185,35.849670 172.395126,36.642365 172.395126C37.435059 172.395126,38.195206 172.080185,38.755676 171.519699C39.316162 170.959229,39.631104 170.199081,39.631104 169.406387Z" style="fill: rgb(100.000000%,100.000000%,100.000000%);stroke: none;"></path>
  <path d="M42.018188 109.025269C42.018188 108.232574,41.703247 107.472427,41.142761 106.911957C40.582291 106.351471,39.822144 106.036530,39.029449 106.036530C38.236755 106.036530,37.476608 106.351471,36.916138 106.911957C36.355652 107.472427,36.040710 108.232574,36.040710 109.025269C36.040710 109.817963,36.355652 110.578110,36.916138 111.138580C37.476608 111.699066,38.236755 112.014008,39.029449 112.014008C39.822144 112.014008,40.582291 111.699066,41.142761 111.138580C41.703247 110.578110,42.018188 109.817963,42.018188 109.025269Z" style="fill: rgb(100.000000%,100.000000%,100.000000%);stroke: none;"></path>
  <path d="M48.099762 132.303711C48.099762 131.511017,47.784821 130.750870,47.224335 130.190399C46.663864 129.629913,45.903717 129.314972,45.111023 129.314972C44.318329 129.314972,43.558182 129.629913,42.997711 130.190399C42.437225 130.750870,42.122284 131.511017,42.122284 132.303711C42.122284 133.096405,42.437225 133.856552,42.997711 134.417023C43.558182 134.977509,44.318329 135.292450,45.111023 135.292450C45.903717 135.292450,46.663864 134.977509,47.224335 134.417023C47.784821 133.856552,48.099762 133.096405,48.099762 132.303711Z" style="fill: rgb(100.000000%,100.000000%,100.000000%);stroke: none;"></path>
  <path d="M13.885681 78.000870C13.885681 77.208176,13.570740 76.448029,13.010254 75.887558C12.449783 75.327072,11.689636 75.012131,10.896942 75.012131C10.104248 75.012131,9.344101 75.327072,8.783630 75.887558C8.223145 76.448029,7.908203 77.208176,7.908203 78.000870C7.908203 78.793564,8.223145 79.553711,8.783630 80.114182C9.344101 80.674667,10.104248 80.989609,10.896942 80.989609C11.689636 80.989609,12.449783 80.674667,13.010254 80.114182C13.570740 79.553711,13.885681 78.793564,13.885681 78.000870Z" style="fill: rgb(100.000000%,100.000000%,100.000000%);stroke: none;"></path>
  <path d="M28.657822 103.889572C28.657822 103.096878,28.342880 102.336731,27.782394 101.776260C27.221924 101.215775,26.461777 100.900833,25.669083 100.900833C24.876389 100.900833,24.116241 101.215775,23.555771 101.776260C22.995285 102.336731,22.680344 103.096878,22.680344 103.889572C22.680344 104.682266,22.995285 105.442413,23.555771 106.002884C24.116241 106.563370,24.876389 106.878311,25.669083 106.878311C26.461777 106.878311,27.221924 106.563370,27.782394 106.002884C28.342880 105.442413,28.657822 104.682266,28.657822 103.889572Z" style="fill: rgb(100.000000%,100.000000%,100.000000%);stroke: none;"></path>
  <path d="M43.582108 31.698746C43.582108 30.906052,43.267166 30.145905,42.706680 29.585434C42.146210 29.024948,41.386063 28.710007,40.593369 28.710007C39.800674 28.710007,39.040527 29.024948,38.480057 29.585434C37.919571 30.145905,37.604630 30.906052,37.604630 31.698746C37.604630 32.491440,37.919571 33.251587,38.480057 33.812057C39.040527 34.372543,39.800674 34.687485,40.593369 34.687485C41.386063 34.687485,42.146210 34.372543,42.706680 33.812057C43.267166 33.251587,43.582108 32.491440,43.582108 31.698746Z" style="fill: rgb(100.000000%,100.000000%,100.000000%);stroke: none;"></path>
  <path d="M22.794540 59.868164C22.794540 59.075470,22.479599 58.315323,21.919113 57.754852C21.358643 57.194366,20.598495 56.879425,19.805801 56.879425C19.013107 56.879425,18.252960 57.194366,17.692490 57.754852C17.132004 58.315323,16.817062 59.075470,16.817062 59.868164C16.817062 60.660858,17.132004 61.421005,17.692490 61.981476C18.252960 62.541962,19.013107 62.856903,19.805801 62.856903C20.598495 62.856903,21.358643 62.541962,21.919113 61.981476C22.479599 61.421005,22.794540 60.660858,22.794540 59.868164Z" style="fill: rgb(100.000000%,100.000000%,100.000000%);stroke: none;"></path>
  <path d="M82.965118 20.614822C82.965118 19.822128,82.650177 19.061981,82.089691 18.501511C81.529221 17.941025,80.769073 17.626083,79.976379 17.626083C79.183685 17.626083,78.423538 17.941025,77.863068 18.501511C77.302582 19.061981,76.987640 19.822128,76.987640 20.614822C76.987640 21.407516,77.302582 22.167664,77.863068 22.728134C78.423538 23.288620,79.183685 23.603561,79.976379 23.603561C80.769073 23.603561,81.529221 23.288620,82.089691 22.728134C82.650177 22.167664,82.965118 21.407516,82.965118 20.614822Z" style="fill: rgb(100.000000%,100.000000%,100.000000%);stroke: none;"></path>
  <path d="M56.073807 18.876953C56.073807 18.084259,55.758865 17.324112,55.198380 16.763641C54.637909 16.203156,53.877762 15.888214,53.085068 15.888214C52.292374 15.888214,51.532227 16.203156,50.971756 16.763641C50.411270 17.324112,50.096329 18.084259,50.096329 18.876953C50.096329 19.669647,50.411270 20.429794,50.971756 20.990265C51.532227 21.550751,52.292374 21.865692,53.085068 21.865692C53.877762 21.865692,54.637909 21.550751,55.198380 20.990265C55.758865 20.429794,56.073807 19.669647,56.073807 18.876953Z" style="fill: rgb(100.000000%,100.000000%,100.000000%);stroke: none;"></path>
  <path d="M92.169922 43.654190C92.169922 42.861496,91.854980 42.101349,91.294495 41.540878C90.734024 40.980392,89.973877 40.665451,89.181183 40.665451C88.388489 40.665451,87.628342 40.980392,87.067871 41.540878C86.507385 42.101349,86.192444 42.861496,86.192444 43.654190C86.192444 44.446884,86.507385 45.207031,87.067871 45.767502C87.628342 46.327988,88.388489 46.642929,89.181183 46.642929C89.973877 46.642929,90.734024 46.327988,91.294495 45.767502C91.854980 45.207031,92.169922 44.446884,92.169922 43.654190Z" style="fill: rgb(100.000000%,100.000000%,100.000000%);stroke: none;"></path>
  <path d="M92.183517 28.144287C92.183517 27.351593,91.868576 26.591446,91.308090 26.030975C90.747620 25.470490,89.987473 25.155548,89.194778 25.155548C88.402084 25.155548,87.641937 25.470490,87.081467 26.030975C86.520981 26.591446,86.206039 27.351593,86.206039 28.144287C86.206039 28.936981,86.520981 29.697128,87.081467 30.257599C87.641937 30.818085,88.402084 31.133026,89.194778 31.133026C89.987473 31.133026,90.747620 30.818085,91.308090 30.257599C91.868576 29.697128,92.183517 28.936981,92.183517 28.144287Z" style="fill: rgb(100.000000%,100.000000%,100.000000%);stroke: none;"></path>
  <path d="M84.696701 58.100052C84.696701 57.307358,84.381760 56.547211,83.821274 55.986740C83.260803 55.426254,82.500656 55.111313,81.707962 55.111313C80.915268 55.111313,80.155121 55.426254,79.594650 55.986740C79.034164 56.547211,78.719223 57.307358,78.719223 58.100052C78.719223 58.892746,79.034164 59.652893,79.594650 60.213364C80.155121 60.773849,80.915268 61.088791,81.707962 61.088791C82.500656 61.088791,83.260803 60.773849,83.821274 60.213364C84.381760 59.652893,84.696701 58.892746,84.696701 58.100052Z" style="fill: rgb(100.000000%,100.000000%,100.000000%);stroke: none;"></path>
  <path d="M89.374298 48.326675C89.374298 47.533981,89.059357 46.773834,88.498871 46.213364C87.938400 45.652878,87.178253 45.337936,86.385559 45.337936C85.592865 45.337936,84.832718 45.652878,84.272247 46.213364C83.711761 46.773834,83.396820 47.533981,83.396820 48.326675C83.396820 49.119370,83.711761 49.879517,84.272247 50.439987C84.832718 51.000473,85.592865 51.315414,86.385559 51.315414C87.178253 51.315414,87.938400 51.000473,88.498871 50.439987C89.059357 49.879517,89.374298 49.119370,89.374298 48.326675Z" style="fill: rgb(100.000000%,100.000000%,100.000000%);stroke: none;"></path>
  <path d="M81.166763 74.440475C81.166763 73.647781,80.851822 72.887634,80.291336 72.327164C79.730865 71.766678,78.970718 71.451736,78.178024 71.451736C77.385330 71.451736,76.625183 71.766678,76.064713 72.327164C75.504227 72.887634,75.189285 73.647781,75.189285 74.440475C75.189285 75.233170,75.504227 75.993317,76.064713 76.553787C76.625183 77.114273,77.385330 77.429214,78.178024 77.429214C78.970718 77.429214,79.730865 77.114273,80.291336 76.553787C80.851822 75.993317,81.166763 75.233170,81.166763 74.440475Z" style="fill: rgb(100.000000%,100.000000%,100.000000%);stroke: none;"></path>
  <path d="M82.851013 63.417999C82.851013 62.625305,82.536072 61.865158,81.975586 61.304688C81.415115 60.744202,80.654968 60.429260,79.862274 60.429260C79.069580 60.429260,78.309433 60.744202,77.748962 61.304688C77.188477 61.865158,76.873535 62.625305,76.873535 63.417999C76.873535 64.210693,77.188477 64.970840,77.748962 65.531311C78.309433 66.091797,79.069580 66.406738,79.862274 66.406738C80.654968 66.406738,81.415115 66.091797,81.975586 65.531311C82.536072 64.970840,82.851013 64.210693,82.851013 63.417999Z" style="fill: rgb(100.000000%,100.000000%,100.000000%);stroke: none;"></path>
  <path d="M79.545731 90.384354C79.545731 89.591660,79.230789 88.831512,78.670303 88.271042C78.109833 87.710556,77.349686 87.395615,76.556992 87.395615C75.764297 87.395615,75.004150 87.710556,74.443680 88.271042C73.883194 88.831512,73.568253 89.591660,73.568253 90.384354C73.568253 91.177048,73.883194 91.937195,74.443680 92.497665C75.004150 93.058151,75.764297 93.373093,76.556992 93.373093C77.349686 93.373093,78.109833 93.058151,78.670303 92.497665C79.230789 91.937195,79.545731 91.177048,79.545731 90.384354Z" style="fill: rgb(100.000000%,100.000000%,100.000000%);stroke: none;"></path>
  <path d="M81.332581 80.041855C81.332581 79.249161,81.017639 78.489014,80.457153 77.928543C79.896683 77.368057,79.136536 77.053116,78.343842 77.053116C77.551147 77.053116,76.791000 77.368057,76.230530 77.928543C75.670044 78.489014,75.355103 79.249161,75.355103 80.041855C75.355103 80.834549,75.670044 81.594696,76.230530 82.155167C76.791000 82.715652,77.551147 83.030594,78.343842 83.030594C79.136536 83.030594,79.896683 82.715652,80.457153 82.155167C81.017639 81.594696,81.332581 80.834549,81.332581 80.041855Z" style="fill: rgb(100.000000%,100.000000%,100.000000%);stroke: none;"></path>
  <path d="M86.180481 101.119202C86.180481 100.326508,85.865540 99.566360,85.305054 99.005890C84.744583 98.445404,83.984436 98.130463,83.191742 98.130463C82.399048 98.130463,81.638901 98.445404,81.078430 99.005890C80.517944 99.566360,80.203003 100.326508,80.203003 101.119202C80.203003 101.911896,80.517944 102.672043,81.078430 103.232513C81.638901 103.792999,82.399048 104.107941,83.191742 104.107941C83.984436 104.107941,84.744583 103.792999,85.305054 103.232513C85.865540 102.672043,86.180481 101.911896,86.180481 101.119202Z" style="fill: rgb(100.000000%,100.000000%,100.000000%);stroke: none;"></path>
  <path d="M78.518387 95.886765C78.518387 95.094070,78.203445 94.333923,77.642960 93.773453C77.082489 93.212967,76.322342 92.898026,75.529648 92.898026C74.736954 92.898026,73.976807 93.212967,73.416336 93.773453C72.855850 94.333923,72.540909 95.094070,72.540909 95.886765C72.540909 96.679459,72.855850 97.439606,73.416336 98.000076C73.976807 98.560562,74.736954 98.875504,75.529648 98.875504C76.322342 98.875504,77.082489 98.560562,77.642960 98.000076C78.203445 97.439606,78.518387 96.679459,78.518387 95.886765Z" style="fill: rgb(100.000000%,100.000000%,100.000000%);stroke: none;"></path>
  <path d="M100.221466 94.793884C100.221466 94.001190,99.906525 93.241043,99.346039 92.680573C98.785568 92.120087,98.025421 91.805145,97.232727 91.805145C96.440033 91.805145,95.679886 92.120087,95.119415 92.680573C94.558929 93.241043,94.243988 94.001190,94.243988 94.793884C94.243988 95.586578,94.558929 96.346725,95.119415 96.907196C95.679886 97.467682,96.440033 97.782623,97.232727 97.782623C98.025421 97.782623,98.785568 97.467682,99.346039 96.907196C99.906525 96.346725,100.221466 95.586578,100.221466 94.793884Z" style="fill: rgb(100.000000%,100.000000%,100.000000%);stroke: none;"></path>
  <path d="M90.721207 98.456070C90.721207 97.663376,90.406265 96.903229,89.845779 96.342758C89.285309 95.782272,88.525162 95.467331,87.732468 95.467331C86.939774 95.467331,86.179626 95.782272,85.619156 96.342758C85.058670 96.903229,84.743729 97.663376,84.743729 98.456070C84.743729 99.248764,85.058670 100.008911,85.619156 100.569382C86.179626 101.129868,86.939774 101.444809,87.732468 101.444809C88.525162 101.444809,89.285309 101.129868,89.845779 100.569382C90.406265 100.008911,90.721207 99.248764,90.721207 98.456070Z" style="fill: rgb(100.000000%,100.000000%,100.000000%);stroke: none;"></path>
  <path d="M106.882324 89.902985C110.141678 85.514404,113.515396 81.211945,117.000000 77.000000C119.515121 73.959915,122.138489 70.632248,121.661240 66.733292C121.267944 63.520187,118.810135 61.127625,117.000000 58.468826C115.481827 56.238876,113.680191 53.767731,111.263016 54.515915C108.829086 55.269272,108.788651 58.349945,108.642288 61.026382C108.471039 64.157944,107.357666 67.347427,108.490662 70.299042C109.839615 73.813263,113.593414 75.387039,117.000000 77.000000C123.154205 79.913910,128.788162 83.822601,134.959335 86.701050C145.986542 91.844528,158.686920 93.495636,169.485046 88.025253C183.495590 80.927444,189.881760 64.512589,185.283127 49.369904C180.867096 34.828491,167.063599 24.944656,152.508408 27.852188C142.082565 29.934845,134.740433 38.385437,127.549255 46.188492C123.888184 50.161072,120.110031 54.048462,117.000000 58.468826C116.007904 59.878922,114.984741 61.398911,113.321457 61.856857C111.747421 62.290222,110.165146 61.604980,108.642288 61.026382C104.974548 59.632874,101.103668 58.881744,97.357010 57.721634C92.886505 56.337387,88.612701 54.377045,84.123871 53.052231C79.339874 51.640305,74.202698 50.880676,70.323471 47.711349C62.224075 41.094147,62.798248 28.852127,69.312271 19.925644C78.784012 6.946060,95.843445 3.709610,112.103256 4.166229C130.179489 4.673859,148.867310 11.210373,152.508408 27.852188C154.853546 38.570786,148.576324 49.540802,151.351776 60.184357C154.208206 71.138474,165.455978 77.526520,169.485046 88.025253C176.485886 106.267685,161.428207 123.192108,147.491714 137.883011C133.585403 152.542099,117.274078 168.233459,99.102234 161.528122C87.419479 157.217239,80.439392 143.433701,67.669067 142.788925C56.179230 142.208801,47.791855 153.062469,36.603317 154.754044C22.683624 156.858536,10.649368 145.949081,6.755783 131.782196C2.777176 117.305893,7.310486 101.576157,19.722717 93.468353C30.056366 86.718307,42.987930 87.482132,55.295288 87.551239C62.721390 87.592941,70.183975 87.295425,77.398407 85.514114C81.198425 84.575851,85.320740 83.384888,88.477463 85.653992C91.824402 88.059830,91.821655 92.654434,91.996017 96.812546C92.341660 105.055573,94.662109 113.030975,96.913681 120.959366C100.723724 134.375519,104.272293 148.565201,99.102234 161.528122C93.405472 175.811661,78.818771 184.474655,63.539825 182.693771C48.678009 180.961502,36.642365 169.406387,36.603317 154.754044C36.572281 143.110870,45.111023 132.303711,42.118332 120.848587C39.029449 109.025269,25.669083 103.889572,19.722717 93.468353C10.896942 78.000870,19.805801 59.868164,30.767899 45.013321C40.593369 31.698746,53.085068 18.876953,69.312271 19.925644C79.976379 20.614822,89.194778 28.144287,89.185791 38.395660C89.181183 43.654190,86.385559 48.326675,84.123871 53.052231C81.707962 58.100052,79.862274 63.417999,79.016708 68.951721C78.178024 74.440475,78.343842 80.041855,77.398407 85.514114C76.556992 90.384354,75.529648 95.886765,79.457855 98.569336C83.191742 101.119202,87.732468 98.456070,91.996017 96.812546C97.232727 94.793884,103.497131 94.460999,106.882324 89.902985" style="stroke:rgb(0.000000%,0.000000%,0.000000%); stroke-width: 0.498138;stroke-linecap: round;stroke-linejoin: round;stroke-miterlimit: 10.000000;fill: none;"></path>
  <path d="M106.882324 89.902985C110.141678 85.514404,113.515396 81.211945,117.000000 77.000000" style="stroke:rgb(0.000000%,0.000000%,0.000000%); stroke-width: 1.494400;stroke-linecap: round;stroke-linejoin: round;stroke-miterlimit: 10.000000;fill: none;"></path>
  <path d="M77.398407 85.514114C76.556992 90.384354,75.529648 95.886765,79.457855 98.569336C83.191742 101.119202,87.732468 98.456070,91.996017 96.812546C97.232727 94.793884,103.497131 94.460999,106.882324 89.902985" style="stroke:rgb(0.000000%,0.000000%,0.000000%); stroke-width: 1.494400;stroke-linecap: round;stroke-linejoin: round;stroke-miterlimit: 10.000000;fill: none;"></path>
  <path d="M119.988739 77.000000C119.988739 76.207306,119.673798 75.447159,119.113312 74.886688C118.552841 74.326202,117.792694 74.011261,117.000000 74.011261C116.207306 74.011261,115.447159 74.326202,114.886688 74.886688C114.326202 75.447159,114.011261 76.207306,114.011261 77.000000C114.011261 77.792694,114.326202 78.552841,114.886688 79.113312C115.447159 79.673798,116.207306 79.988739,117.000000 79.988739C117.792694 79.988739,118.552841 79.673798,119.113312 79.113312C119.673798 78.552841,119.988739 77.792694,119.988739 77.000000Z" style="fill: rgb(100.000000%,100.000000%,100.000000%);stroke: none;"></path>
  <path d="M111.973740 74.362503C113.506622 75.396851,115.296707 76.193527,117.000000 77.000000C120.077103 78.456955,123.024155 80.162613,125.973312 81.863831" style="stroke:rgb(0.000000%,0.000000%,0.000000%); stroke-width: 0.498138;stroke-linecap: round;stroke-linejoin: round;stroke-miterlimit: 10.000000;fill: none;"></path>
  <path d="M111.631027 61.026382C111.631027 60.233688,111.316086 59.473541,110.755600 58.913071C110.195129 58.352585,109.434982 58.037643,108.642288 58.037643C107.849594 58.037643,107.089447 58.352585,106.528976 58.913071C105.968491 59.473541,105.653549 60.233688,105.653549 61.026382C105.653549 61.819077,105.968491 62.579224,106.528976 63.139694C107.089447 63.700180,107.849594 64.015121,108.642288 64.015121C109.434982 64.015121,110.195129 63.700180,110.755600 63.139694C111.316086 62.579224,111.631027 61.819077,111.631027 61.026382Z" style="fill: rgb(100.000000%,100.000000%,100.000000%);stroke: none;"></path>
  <path d="M110.962677 61.821106C110.179993 61.631638,109.403717 61.315674,108.642288 61.026382C106.808411 60.329620,104.923752 59.793457,103.029236 59.286469" style="stroke:rgb(0.000000%,0.000000%,0.000000%); stroke-width: 0.498138;stroke-linecap: round;stroke-linejoin: round;stroke-miterlimit: 10.000000;fill: none;"></path>
  <path d="M172.473785 88.025253C172.473785 87.232559,172.158844 86.472412,171.598358 85.911942C171.037888 85.351456,170.277740 85.036514,169.485046 85.036514C168.692352 85.036514,167.932205 85.351456,167.371735 85.911942C166.811249 86.472412,166.496307 87.232559,166.496307 88.025253C166.496307 88.817947,166.811249 89.578094,167.371735 90.138565C167.932205 90.699051,168.692352 91.013992,169.485046 91.013992C170.277740 91.013992,171.037888 90.699051,171.598358 90.138565C172.158844 89.578094,172.473785 88.817947,172.473785 88.025253Z" style="fill: rgb(100.000000%,100.000000%,100.000000%);stroke: none;"></path>
  <path d="M159.978683 74.275589C163.651306 78.554199,167.470520 82.775894,169.485046 88.025253C172.985474 97.146469,170.971252 105.938187,166.339874 114.285965" style="stroke:rgb(0.000000%,0.000000%,0.000000%); stroke-width: 0.498138;stroke-linecap: round;stroke-linejoin: round;stroke-miterlimit: 10.000000;fill: none;"></path>
  <path d="M119.988739 58.468826C119.988739 57.676132,119.673798 56.915985,119.113312 56.355515C118.552841 55.795029,117.792694 55.480087,117.000000 55.480087C116.207306 55.480087,115.447159 55.795029,114.886688 56.355515C114.326202 56.915985,114.011261 57.676132,114.011261 58.468826C114.011261 59.261520,114.326202 60.021667,114.886688 60.582138C115.447159 61.142624,116.207306 61.457565,117.000000 61.457565C117.792694 61.457565,118.552841 61.142624,119.113312 60.582138C119.673798 60.021667,119.988739 59.261520,119.988739 58.468826Z" style="fill: rgb(100.000000%,100.000000%,100.000000%);stroke: none;"></path>
  <path d="M119.861923 62.393173C118.972046 61.061050,117.905060 59.798218,117.000000 58.468826C116.240906 57.353851,115.410950 56.178574,114.468628 55.375565" style="stroke:rgb(0.000000%,0.000000%,0.000000%); stroke-width: 0.498138;stroke-linecap: round;stroke-linejoin: round;stroke-miterlimit: 10.000000;fill: none;"></path>
  <path d="M87.112610 53.052231C87.112610 52.259537,86.797668 51.499390,86.237183 50.938919C85.676712 50.378433,84.916565 50.063492,84.123871 50.063492C83.331177 50.063492,82.571030 50.378433,82.010559 50.938919C81.450073 51.499390,81.135132 52.259537,81.135132 53.052231C81.135132 53.844925,81.450073 54.605072,82.010559 55.165543C82.571030 55.726028,83.331177 56.040970,84.123871 56.040970C84.916565 56.040970,85.676712 55.726028,86.237183 55.165543C86.797668 54.605072,87.112610 53.844925,87.112610 53.052231Z" style="fill: rgb(100.000000%,100.000000%,100.000000%);stroke: none;"></path>
  <path d="M90.747299 55.364639C88.558945 54.535919,86.368286 53.714630,84.123871 53.052231C81.731873 52.346268,79.251572 51.803375,76.884369 51.040802" style="stroke:rgb(0.000000%,0.000000%,0.000000%); stroke-width: 0.498138;stroke-linecap: round;stroke-linejoin: round;stroke-miterlimit: 10.000000;fill: none;"></path>
  <path d="M155.497147 27.852188C155.497147 27.059494,155.182205 26.299347,154.621719 25.738876C154.061249 25.178391,153.301102 24.863449,152.508408 24.863449C151.715714 24.863449,150.955566 25.178391,150.395096 25.738876C149.834610 26.299347,149.519669 27.059494,149.519669 27.852188C149.519669 28.644882,149.834610 29.405029,150.395096 29.965500C150.955566 30.525986,151.715714 30.840927,152.508408 30.840927C153.301102 30.840927,154.061249 30.525986,154.621719 29.965500C155.182205 29.405029,155.497147 28.644882,155.497147 27.852188Z" style="fill: rgb(100.000000%,100.000000%,100.000000%);stroke: none;"></path>
  <path d="M172.697937 32.067673C166.875671 28.142487,159.785995 26.398422,152.508408 27.852188C147.295486 28.893524,142.853485 31.526840,138.815826 34.875198" style="stroke:rgb(0.000000%,0.000000%,0.000000%); stroke-width: 0.498138;stroke-linecap: round;stroke-linejoin: round;stroke-miterlimit: 10.000000;fill: none;"></path>
  <path d="M102.090973 161.528122C102.090973 160.735428,101.776031 159.975281,101.215546 159.414810C100.655075 158.854324,99.894928 158.539383,99.102234 158.539383C98.309540 158.539383,97.549393 158.854324,96.988922 159.414810C96.428436 159.975281,96.113495 160.735428,96.113495 161.528122C96.113495 162.320816,96.428436 163.080963,96.988922 163.641434C97.549393 164.201920,98.309540 164.516861,99.102234 164.516861C99.894928 164.516861,100.655075 164.201920,101.215546 163.641434C101.776031 163.080963,102.090973 162.320816,102.090973 161.528122Z" style="fill: rgb(100.000000%,100.000000%,100.000000%);stroke: none;"></path>
  <path d="M101.375504 141.413712C102.092636 148.258514,101.687256 155.046661,99.102234 161.528122C96.253845 168.669891,91.182983 174.406525,84.914337 178.135117" style="stroke:rgb(0.000000%,0.000000%,0.000000%); stroke-width: 0.498138;stroke-linecap: round;stroke-linejoin: round;stroke-miterlimit: 10.000000;fill: none;"></path>
  <path d="M22.711456 93.468353C22.711456 92.675659,22.396515 91.915512,21.836029 91.355042C21.275558 90.794556,20.515411 90.479614,19.722717 90.479614C18.930023 90.479614,18.169876 90.794556,17.609406 91.355042C17.048920 91.915512,16.733978 92.675659,16.733978 93.468353C16.733978 94.261047,17.048920 95.021194,17.609406 95.581665C18.169876 96.142151,18.930023 96.457092,19.722717 96.457092C20.515411 96.457092,21.275558 96.142151,21.836029 95.581665C22.396515 95.021194,22.711456 94.261047,22.711456 93.468353Z" style="fill: rgb(100.000000%,100.000000%,100.000000%);stroke: none;"></path>
  <path d="M31.992065 106.632660C27.522568 102.568176,22.695892 98.678955,19.722717 93.468353C15.309830 85.734604,15.330612 77.334549,17.824875 69.011078" style="stroke:rgb(0.000000%,0.000000%,0.000000%); stroke-width: 0.498138;stroke-linecap: round;stroke-linejoin: round;stroke-miterlimit: 10.000000;fill: none;"></path>
  <path d="M94.984756 96.812546C94.984756 96.019852,94.669815 95.259705,94.109329 94.699234C93.548859 94.138748,92.788712 93.823807,91.996017 93.823807C91.203323 93.823807,90.443176 94.138748,89.882706 94.699234C89.322220 95.259705,89.007278 96.019852,89.007278 96.812546C89.007278 97.605240,89.322220 98.365387,89.882706 98.925858C90.443176 99.486343,91.203323 99.801285,91.996017 99.801285C92.788712 99.801285,93.548859 99.486343,94.109329 98.925858C94.669815 98.365387,94.984756 97.605240,94.984756 96.812546Z" style="fill: rgb(100.000000%,100.000000%,100.000000%);stroke: none;"></path>
  <path d="M85.528320 99.263458C87.663177 98.710968,89.864243 97.634308,91.996017 96.812546C94.614380 95.803207,97.489655 95.215317,100.133499 94.310013" style="stroke:rgb(0.000000%,0.000000%,0.000000%); stroke-width: 1.494400;stroke-linecap: round;stroke-linejoin: round;stroke-miterlimit: 10.000000;fill: none;"></path>
  <path d="M39.592056 154.754044C39.592056 153.961349,39.277115 153.201202,38.716629 152.640732C38.156158 152.080246,37.396011 151.765305,36.603317 151.765305C35.810623 151.765305,35.050476 152.080246,34.490005 152.640732C33.929520 153.201202,33.614578 153.961349,33.614578 154.754044C33.614578 155.546738,33.929520 156.306885,34.490005 156.867355C35.050476 157.427841,35.810623 157.742783,36.603317 157.742783C37.396011 157.742783,38.156158 157.427841,38.716629 156.867355C39.277115 156.306885,39.592056 155.546738,39.592056 154.754044Z" style="fill: rgb(100.000000%,100.000000%,100.000000%);stroke: none;"></path>
  <path d="M52.023193 147.919601C47.091553 150.771957,42.197586 153.908264,36.603317 154.754044C29.643463 155.806290,23.154968 153.605042,17.919739 149.369873" style="stroke:rgb(0.000000%,0.000000%,0.000000%); stroke-width: 0.498138;stroke-linecap: round;stroke-linejoin: round;stroke-miterlimit: 10.000000;fill: none;"></path>
  <path d="M72.301010 19.925644C72.301010 19.132950,71.986069 18.372803,71.425583 17.812332C70.865112 17.251846,70.104965 16.936905,69.312271 16.936905C68.519577 16.936905,67.759430 17.251846,67.198959 17.812332C66.638474 18.372803,66.323532 19.132950,66.323532 19.925644C66.323532 20.718338,66.638474 21.478485,67.198959 22.038956C67.759430 22.599442,68.519577 22.914383,69.312271 22.914383C70.104965 22.914383,70.865112 22.599442,71.425583 22.038956C71.986069 21.478485,72.301010 20.718338,72.301010 19.925644Z" style="fill: rgb(100.000000%,100.000000%,100.000000%);stroke: none;"></path>
  <path d="M47.639450 27.083252C54.018951 22.344574,61.198669 19.401306,69.312271 19.925644C74.644333 20.270233,79.614960 22.324905,83.251450 25.574844" style="stroke:rgb(0.000000%,0.000000%,0.000000%); stroke-width: 0.498138;stroke-linecap: round;stroke-linejoin: round;stroke-miterlimit: 10.000000;fill: none;"></path>
  <path d="M80.387146 85.514114C80.387146 84.721420,80.072205 83.961273,79.511719 83.400803C78.951248 82.840317,78.191101 82.525375,77.398407 82.525375C76.605713 82.525375,75.845566 82.840317,75.285095 83.400803C74.724609 83.961273,74.409668 84.721420,74.409668 85.514114C74.409668 86.306808,74.724609 87.066956,75.285095 87.627426C75.845566 88.187912,76.605713 88.502853,77.398407 88.502853C78.191101 88.502853,78.951248 88.187912,79.511719 87.627426C80.072205 87.066956,80.387146 86.306808,80.387146 85.514114Z" style="fill: rgb(100.000000%,100.000000%,100.000000%);stroke: none;"></path>
  <path d="M66.426239 87.216293C70.121948 86.924469,73.791199 86.404770,77.398407 85.514114C79.298416 85.044983,81.279007 84.512665,83.179184 84.381287" style="stroke:rgb(0.000000%,0.000000%,0.000000%); stroke-width: 0.498138;stroke-linecap: round;stroke-linejoin: round;stroke-miterlimit: 10.000000;fill: none;"></path>
  <path d="M79.457855 98.569336C82.444977 100.609238,85.948486 99.312790,89.413345 97.871140" style="stroke:rgb(0.000000%,0.000000%,0.000000%); stroke-width: 0.498138;stroke-linecap: round;stroke-linejoin: round;stroke-miterlimit: 10.000000;fill: none;"></path>
  <path d="M85.638687 101.150116C86.961823 100.286072,88.197205 99.091171,89.413345 97.871140C87.690704 97.873856,85.972229 97.845215,84.425674 97.520538Z" style="stroke:rgb(0.000000%,0.000000%,0.000000%); stroke-width: 0.498138;fill: rgb(0.000000%,0.000000%,0.000000%);"></path>
  <path d="M79.457855 98.569336C82.444977 100.609238,85.948486 99.312790,89.413345 97.871140" style="stroke:rgb(0.000000%,0.000000%,0.000000%); stroke-width: 0.498138;stroke-linecap: round;stroke-linejoin: round;stroke-miterlimit: 10.000000;fill: none;"></path>
  <path d="M87.235291 99.934113C87.977219 99.296509,88.698593 98.588165,89.413345 97.871140C88.400925 97.872742,87.389969 97.863495,86.414490 97.789703Z" style="stroke:rgb(0.000000%,0.000000%,0.000000%); stroke-width: 0.498138;fill: rgb(0.000000%,0.000000%,0.000000%);"></path>
  <path d="M111.263016 54.515915C109.315872 55.118607,108.900558 57.210785,108.737381 59.393890" style="stroke:rgb(0.000000%,0.000000%,0.000000%); stroke-width: 0.498138;stroke-linecap: round;stroke-linejoin: round;stroke-miterlimit: 10.000000;fill: none;"></path>
  <path d="M108.126083 56.456802C108.137299 57.378113,108.405975 58.387466,108.737381 59.393890C109.214722 58.447922,109.738464 57.544220,110.382004 56.884842Z" style="stroke:rgb(0.000000%,0.000000%,0.000000%); stroke-width: 0.498138;fill: rgb(0.000000%,0.000000%,0.000000%);"></path>
  <path d="M108.490662 70.299042C109.569824 73.110428,112.188110 74.679932,114.936432 76.021118" style="stroke:rgb(0.000000%,0.000000%,0.000000%); stroke-width: 0.498138;stroke-linecap: round;stroke-linejoin: round;stroke-miterlimit: 10.000000;fill: none;"></path>
  <path d="M111.953964 75.696732C112.922546 75.868835,113.927704 75.959213,114.936432 76.021118C114.266937 75.264053,113.620117 74.489380,113.056931 73.682785Z" style="stroke:rgb(0.000000%,0.000000%,0.000000%); stroke-width: 0.498138;fill: rgb(0.000000%,0.000000%,0.000000%);"></path>
  <path d="M127.549255 46.188492C124.620392 49.366562,121.616577 52.490128,118.939880 55.875656" style="stroke:rgb(0.000000%,0.000000%,0.000000%); stroke-width: 0.498138;stroke-linecap: round;stroke-linejoin: round;stroke-miterlimit: 10.000000;fill: none;"></path>
  <path d="M119.816895 53.006714C119.507034 53.957901,119.212646 54.913635,118.939880 55.875656C119.813019 55.388306,120.696976 54.920670,121.588684 54.467194Z" style="stroke:rgb(0.000000%,0.000000%,0.000000%); stroke-width: 0.498138;fill: rgb(0.000000%,0.000000%,0.000000%);"></path>
  <path d="M97.357010 57.721634C93.780594 56.614227,90.330063 55.138123,86.794632 53.913666" style="stroke:rgb(0.000000%,0.000000%,0.000000%); stroke-width: 0.498138;stroke-linecap: round;stroke-linejoin: round;stroke-miterlimit: 10.000000;fill: none;"></path>
  <path d="M89.791656 53.780197C88.791901 53.814102,87.792633 53.854431,86.794632 53.913666C87.542206 54.577484,88.277313 55.255569,89.008179 55.938553Z" style="stroke:rgb(0.000000%,0.000000%,0.000000%); stroke-width: 0.498138;fill: rgb(0.000000%,0.000000%,0.000000%);"></path>
  <path d="M151.351776 60.184357C153.636932 68.947678,161.292572 74.788696,166.326294 82.149963" style="stroke:rgb(0.000000%,0.000000%,0.000000%); stroke-width: 0.498138;stroke-linecap: round;stroke-linejoin: round;stroke-miterlimit: 10.000000;fill: none;"></path>
  <path d="M163.760559 80.595306C164.633514 81.090103,165.491409 81.604980,166.326294 82.149963C166.121323 81.174255,165.878784 80.203537,165.611389 79.236389Z" style="stroke:rgb(0.000000%,0.000000%,0.000000%); stroke-width: 0.498138;fill: rgb(0.000000%,0.000000%,0.000000%);"></path>
  <path d="M67.669067 142.788925C58.477158 142.324829,51.270844 149.178406,43.027435 152.804459" style="stroke:rgb(0.000000%,0.000000%,0.000000%); stroke-width: 0.498138;stroke-linecap: round;stroke-linejoin: round;stroke-miterlimit: 10.000000;fill: none;"></path>
  <path d="M45.022110 150.563690C44.377884 151.334473,43.716064 152.085266,43.027435 152.804459C44.022919 152.782867,45.021774 152.719971,46.022354 152.630493Z" style="stroke:rgb(0.000000%,0.000000%,0.000000%); stroke-width: 0.498138;fill: rgb(0.000000%,0.000000%,0.000000%);"></path>
  <path d="M88.477463 85.653992C91.155029 87.578674,91.688766 90.904175,91.884445 94.286346" style="stroke:rgb(0.000000%,0.000000%,0.000000%); stroke-width: 0.498138;stroke-linecap: round;stroke-linejoin: round;stroke-miterlimit: 10.000000;fill: none;"></path>
  <path d="M90.452026 91.650330C90.976074 92.478271,91.443268 93.374191,91.884445 94.286346C92.217499 93.329391,92.520660 92.365540,92.735565 91.409546Z" style="stroke:rgb(0.000000%,0.000000%,0.000000%); stroke-width: 0.498138;fill: rgb(0.000000%,0.000000%,0.000000%);"></path>
  <path d="M63.539825 182.693771C51.650330 181.307953,41.569595 173.635468,37.992935 163.119858" style="stroke:rgb(0.000000%,0.000000%,0.000000%); stroke-width: 0.498138;stroke-linecap: round;stroke-linejoin: round;stroke-miterlimit: 10.000000;fill: none;"></path>
  <path d="M40.097870 165.257812C39.358765 164.587692,38.655731 163.874680,37.992935 163.119858C37.927826 164.122269,37.920776 165.123550,37.969543 166.120026Z" style="stroke:rgb(0.000000%,0.000000%,0.000000%); stroke-width: 0.498138;fill: rgb(0.000000%,0.000000%,0.000000%);"></path>
  <path d="M42.118332 120.848587C39.647217 111.389893,30.602295 106.211319,24.038666 99.182526" style="stroke:rgb(0.000000%,0.000000%,0.000000%); stroke-width: 0.498138;stroke-linecap: round;stroke-linejoin: round;stroke-miterlimit: 10.000000;fill: none;"></path>
  <path d="M26.804291 100.344879C25.869888 99.979218,24.945770 99.595139,24.038666 99.182526C24.388306 100.115707,24.770157 101.040741,25.172302 101.960052Z" style="stroke:rgb(0.000000%,0.000000%,0.000000%); stroke-width: 0.498138;fill: rgb(0.000000%,0.000000%,0.000000%);"></path>
  <path d="M103.891678 92.613190L109.872971 92.613190L109.872971 85.192795L103.891678 85.192795Z" style="fill: rgb(100.000000%,100.000000%,100.000000%);stroke: none;"></path>
  <path d="M103.891678 94.613190L109.872971 94.613190L109.872971 87.192795L103.891678 87.192795Z" style="fill: rgb(100.000000%,100.000000%,100.000000%);stroke: none;"></path>
  <g transform="translate(104.391678 93.113190)" style="fill: rgb(0.000000%,0.000000%,0.000000%);">
    <use xlink:href="#GLYPHcmr10_49"></use>
  </g>
  <path d="M118.670593 69.443497L124.651886 69.443497L124.651886 62.023102L118.670593 62.023102Z" style="fill: rgb(100.000000%,100.000000%,100.000000%);stroke: none;"></path>
  <path d="M118.670593 71.443497L124.651886 71.443497L124.651886 64.023102L118.670593 64.023102Z" style="fill: rgb(100.000000%,100.000000%,100.000000%);stroke: none;"></path>
  <g transform="translate(119.170593 69.943497)" style="fill: rgb(0.000000%,0.000000%,0.000000%);">
    <use xlink:href="#GLYPHcmr10_50"></use>
  </g>
  <path d="M131.968689 89.411255L137.949982 89.411255L137.949982 81.990860L131.968689 81.990860Z" style="fill: rgb(100.000000%,100.000000%,100.000000%);stroke: none;"></path>
  <path d="M131.968689 91.411255L137.949982 91.411255L137.949982 83.990860L131.968689 83.990860Z" style="fill: rgb(100.000000%,100.000000%,100.000000%);stroke: none;"></path>
  <g transform="translate(132.468689 89.911255)" style="fill: rgb(0.000000%,0.000000%,0.000000%);">
    <use xlink:href="#GLYPHcmr10_51"></use>
  </g>
  <path d="M182.292480 52.080109L188.273773 52.080109L188.273773 44.659714L182.292480 44.659714Z" style="fill: rgb(100.000000%,100.000000%,100.000000%);stroke: none;"></path>
  <path d="M182.292480 54.080109L188.273773 54.080109L188.273773 46.659714L182.292480 46.659714Z" style="fill: rgb(100.000000%,100.000000%,100.000000%);stroke: none;"></path>
  <g transform="translate(182.792480 52.580109)" style="fill: rgb(0.000000%,0.000000%,0.000000%);">
    <use xlink:href="#GLYPHcmr10_52"></use>
  </g>
  <path d="M67.332825 50.421555L73.314117 50.421555L73.314117 43.001160L67.332825 43.001160Z" style="fill: rgb(100.000000%,100.000000%,100.000000%);stroke: none;"></path>
  <path d="M67.332825 52.421555L73.314117 52.421555L73.314117 45.001160L67.332825 45.001160Z" style="fill: rgb(100.000000%,100.000000%,100.000000%);stroke: none;"></path>
  <g transform="translate(67.832825 50.921555)" style="fill: rgb(0.000000%,0.000000%,0.000000%);">
    <use xlink:href="#GLYPHcmr10_53"></use>
  </g>
  <path d="M109.112610 6.876434L115.093903 6.876434L115.093903 -0.543961L109.112610 -0.543961Z" style="fill: rgb(100.000000%,100.000000%,100.000000%);stroke: none;"></path>
  <path d="M109.112610 8.876434L115.093903 8.876434L115.093903 1.456039L109.112610 1.456039Z" style="fill: rgb(100.000000%,100.000000%,100.000000%);stroke: none;"></path>
  <g transform="translate(109.612610 7.376434)" style="fill: rgb(0.000000%,0.000000%,0.000000%);">
    <use xlink:href="#GLYPHcmr10_54"></use>
  </g>
  <path d="M144.501068 140.593216L150.482361 140.593216L150.482361 133.172821L144.501068 133.172821Z" style="fill: rgb(100.000000%,100.000000%,100.000000%);stroke: none;"></path>
  <path d="M144.501068 142.593216L150.482361 142.593216L150.482361 135.172821L144.501068 135.172821Z" style="fill: rgb(100.000000%,100.000000%,100.000000%);stroke: none;"></path>
  <g transform="translate(145.001068 141.093216)" style="fill: rgb(0.000000%,0.000000%,0.000000%);">
    <use xlink:href="#GLYPHcmr10_55"></use>
  </g>
  <path d="M3.765137 134.492401L9.746429 134.492401L9.746429 127.072006L3.765137 127.072006Z" style="fill: rgb(100.000000%,100.000000%,100.000000%);stroke: none;"></path>
  <path d="M3.765137 136.492401L9.746429 136.492401L9.746429 129.072006L3.765137 129.072006Z" style="fill: rgb(100.000000%,100.000000%,100.000000%);stroke: none;"></path>
  <g transform="translate(4.265137 134.992401)" style="fill: rgb(0.000000%,0.000000%,0.000000%);">
    <use xlink:href="#GLYPHcmr10_56"></use>
  </g>
  <path d="M52.304642 90.261444L58.285934 90.261444L58.285934 82.841049L52.304642 82.841049Z" style="fill: rgb(100.000000%,100.000000%,100.000000%);stroke: none;"></path>
  <path d="M52.304642 92.261444L58.285934 92.261444L58.285934 84.841049L52.304642 84.841049Z" style="fill: rgb(100.000000%,100.000000%,100.000000%);stroke: none;"></path>
  <g transform="translate(52.804642 90.761444)" style="fill: rgb(0.000000%,0.000000%,0.000000%);">
    <use xlink:href="#GLYPHcmr10_57"></use>
  </g>
  <path d="M91.432327 123.669571L102.395035 123.669571L102.395035 116.249176L91.432327 116.249176Z" style="fill: rgb(100.000000%,100.000000%,100.000000%);stroke: none;"></path>
  <path d="M91.432327 125.669571L102.395035 125.669571L102.395035 118.249176L91.432327 118.249176Z" style="fill: rgb(100.000000%,100.000000%,100.000000%);stroke: none;"></path>
  <g transform="translate(91.932327 124.169571)" style="fill: rgb(0.000000%,0.000000%,0.000000%);">
    <use xlink:href="#GLYPHcmr10_49"></use>
    <use xlink:href="#GLYPHcmr10_48" x="5.000095"></use>
  </g>
  <path d="M25.286545 47.723526L36.249252 47.723526L36.249252 40.303131L25.286545 40.303131Z" style="fill: rgb(100.000000%,100.000000%,100.000000%);stroke: none;"></path>
  <path d="M25.286545 49.723526L36.249252 49.723526L36.249252 42.303131L25.286545 42.303131Z" style="fill: rgb(100.000000%,100.000000%,100.000000%);stroke: none;"></path>
  <g transform="translate(25.786545 48.223526)" style="fill: rgb(0.000000%,0.000000%,0.000000%);">
    <use xlink:href="#GLYPHcmr10_49"></use>
    <use xlink:href="#GLYPHcmr10_49" x="5.000095"></use>
  </g>
  <path d="M73.535355 71.661926L84.498062 71.661926L84.498062 64.241531L73.535355 64.241531Z" style="fill: rgb(100.000000%,100.000000%,100.000000%);stroke: none;"></path>
  <path d="M73.535355 73.661926L84.498062 73.661926L84.498062 66.241531L73.535355 66.241531Z" style="fill: rgb(100.000000%,100.000000%,100.000000%);stroke: none;"></path>
  <g transform="translate(74.035355 72.161926)" style="fill: rgb(0.000000%,0.000000%,0.000000%);">
    <use xlink:href="#GLYPHcmr10_49"></use>
    <use xlink:href="#GLYPHcmr10_50" x="5.000095"></use>
  </g>
</svg>
