<?xml version="1.0"?>
<!-- Created by MetaPost 1.999 on 2021.07.06:0009 -->
<svg version="1.1" xmlns="http://www.w3.org/2000/svg" xmlns:xlink="http://www.w3.org/1999/xlink" width="196.114594" height="203.558090" viewBox="0 0 196.114594 203.558090">
<!-- Original BoundingBox: -51.085327 -38.989899 145.029266 164.568192 -->
  <defs>
    <g transform="scale(0.009963,0.009963)" id="GLYPHcmr10_48">
      <path style="fill-rule: evenodd;" d="M460.000000 -320.000000C460.000000 -400.000000,455.000000 -480.000000,420.000000 -554.000000C374.000000 -650.000000,292.000000 -666.000000,250.000000 -666.000000C190.000000 -666.000000,117.000000 -640.000000,76.000000 -547.000000C44.000000 -478.000000,39.000000 -400.000000,39.000000 -320.000000C39.000000 -245.000000,43.000000 -155.000000,84.000000 -79.000000C127.000000 2.000000,200.000000 22.000000,249.000000 22.000000C303.000000 22.000000,379.000000 1.000000,423.000000 -94.000000C455.000000 -163.000000,460.000000 -241.000000,460.000000 -320.000000M249.000000 -0.000000C210.000000 -0.000000,151.000000 -25.000000,133.000000 -121.000000C122.000000 -181.000000,122.000000 -273.000000,122.000000 -332.000000C122.000000 -396.000000,122.000000 -462.000000,130.000000 -516.000000C149.000000 -635.000000,224.000000 -644.000000,249.000000 -644.000000C282.000000 -644.000000,348.000000 -626.000000,367.000000 -527.000000C377.000000 -471.000000,377.000000 -395.000000,377.000000 -332.000000C377.000000 -257.000000,377.000000 -189.000000,366.000000 -125.000000C351.000000 -30.000000,294.000000 -0.000000,249.000000 -0.000000"></path>
    </g>
    <g transform="scale(0.009963,0.009963)" id="GLYPHcmr10_49">
      <path style="fill-rule: evenodd;" d="M294.000000 -640.000000C294.000000 -664.000000,294.000000 -666.000000,271.000000 -666.000000C209.000000 -602.000000,121.000000 -602.000000,89.000000 -602.000000L89.000000 -571.000000C109.000000 -571.000000,168.000000 -571.000000,220.000000 -597.000000L220.000000 -79.000000C220.000000 -43.000000,217.000000 -31.000000,127.000000 -31.000000L95.000000 -31.000000L95.000000 -0.000000L257.000000 -0.000000L130.000000 -3.000000L217.000000 -3.000000L257.000000 -3.000000L297.000000 -3.000000L384.000000 -3.000000L419.000000 -0.000000L419.000000 -31.000000L387.000000 -31.000000C297.000000 -31.000000,294.000000 -42.000000,294.000000 -79.000000"></path>
    </g>
    <g transform="scale(0.009963,0.009963)" id="GLYPHcmr10_50">
      <path style="fill-rule: evenodd;" d="M127.000000 -77.000000L233.000000 -180.000000C389.000000 -318.000000,449.000000 -372.000000,449.000000 -472.000000C449.000000 -586.000000,359.000000 -666.000000,237.000000 -666.000000C124.000000 -666.000000,50.000000 -574.000000,50.000000 -485.000000C50.000000 -429.000000,100.000000 -429.000000,103.000000 -429.000000C120.000000 -429.000000,155.000000 -441.000000,155.000000 -482.000000C155.000000 -508.000000,137.000000 -534.000000,102.000000 -534.000000C94.000000 -534.000000,92.000000 -534.000000,89.000000 -533.000000C112.000000 -598.000000,166.000000 -635.000000,224.000000 -635.000000C315.000000 -635.000000,358.000000 -554.000000,358.000000 -472.000000C358.000000 -392.000000,308.000000 -313.000000,253.000000 -251.000000L61.000000 -37.000000C50.000000 -26.000000,50.000000 -24.000000,50.000000 -0.000000L421.000000 -0.000000L449.000000 -174.000000L424.000000 -174.000000C419.000000 -144.000000,412.000000 -100.000000,402.000000 -85.000000C395.000000 -77.000000,329.000000 -77.000000,307.000000 -77.000000"></path>
    </g>
    <g transform="scale(0.009963,0.009963)" id="GLYPHcmr10_51">
      <path style="fill-rule: evenodd;" d="M290.000000 -352.000000C372.000000 -379.000000,430.000000 -449.000000,430.000000 -528.000000C430.000000 -610.000000,342.000000 -666.000000,246.000000 -666.000000C145.000000 -666.000000,69.000000 -606.000000,69.000000 -530.000000C69.000000 -497.000000,91.000000 -478.000000,120.000000 -478.000000C151.000000 -478.000000,171.000000 -500.000000,171.000000 -529.000000C171.000000 -579.000000,124.000000 -579.000000,109.000000 -579.000000C140.000000 -628.000000,206.000000 -641.000000,242.000000 -641.000000C283.000000 -641.000000,338.000000 -619.000000,338.000000 -529.000000C338.000000 -517.000000,336.000000 -459.000000,310.000000 -415.000000C280.000000 -367.000000,246.000000 -364.000000,221.000000 -363.000000C213.000000 -362.000000,189.000000 -360.000000,182.000000 -360.000000C174.000000 -359.000000,167.000000 -358.000000,167.000000 -348.000000C167.000000 -337.000000,174.000000 -337.000000,191.000000 -337.000000L235.000000 -337.000000C317.000000 -337.000000,354.000000 -269.000000,354.000000 -171.000000C354.000000 -35.000000,285.000000 -6.000000,241.000000 -6.000000C198.000000 -6.000000,123.000000 -23.000000,88.000000 -82.000000C123.000000 -77.000000,154.000000 -99.000000,154.000000 -137.000000C154.000000 -173.000000,127.000000 -193.000000,98.000000 -193.000000C74.000000 -193.000000,42.000000 -179.000000,42.000000 -135.000000C42.000000 -44.000000,135.000000 22.000000,244.000000 22.000000C366.000000 22.000000,457.000000 -69.000000,457.000000 -171.000000C457.000000 -253.000000,394.000000 -331.000000,290.000000 -352.000000"></path>
    </g>
    <g transform="scale(0.009963,0.009963)" id="GLYPHcmr10_52">
      <path style="fill-rule: evenodd;" d="M294.000000 -165.000000L294.000000 -78.000000C294.000000 -42.000000,292.000000 -31.000000,218.000000 -31.000000L197.000000 -31.000000L197.000000 -0.000000L332.000000 -0.000000L238.000000 -3.000000L290.000000 -3.000000L332.000000 -3.000000L374.000000 -3.000000L427.000000 -3.000000L468.000000 -0.000000L468.000000 -31.000000L447.000000 -31.000000C373.000000 -31.000000,371.000000 -42.000000,371.000000 -78.000000L371.000000 -165.000000L471.000000 -165.000000L471.000000 -196.000000L371.000000 -196.000000L371.000000 -651.000000C371.000000 -671.000000,371.000000 -677.000000,355.000000 -677.000000C346.000000 -677.000000,343.000000 -677.000000,335.000000 -665.000000L28.000000 -196.000000L28.000000 -165.000000M300.000000 -196.000000L56.000000 -196.000000L300.000000 -569.000000"></path>
    </g>
    <g transform="scale(0.009963,0.009963)" id="GLYPHcmr10_53">
      <path style="fill-rule: evenodd;" d="M449.000000 -201.000000C449.000000 -320.000000,367.000000 -420.000000,259.000000 -420.000000C211.000000 -420.000000,168.000000 -404.000000,132.000000 -369.000000L132.000000 -564.000000C152.000000 -558.000000,185.000000 -551.000000,217.000000 -551.000000C340.000000 -551.000000,410.000000 -642.000000,410.000000 -655.000000C410.000000 -661.000000,407.000000 -666.000000,400.000000 -666.000000C399.000000 -666.000000,397.000000 -666.000000,392.000000 -663.000000C372.000000 -654.000000,323.000000 -634.000000,256.000000 -634.000000C216.000000 -634.000000,170.000000 -641.000000,123.000000 -662.000000C115.000000 -665.000000,113.000000 -665.000000,111.000000 -665.000000C101.000000 -665.000000,101.000000 -657.000000,101.000000 -641.000000L101.000000 -345.000000C101.000000 -327.000000,101.000000 -319.000000,115.000000 -319.000000C122.000000 -319.000000,124.000000 -322.000000,128.000000 -328.000000C139.000000 -344.000000,176.000000 -398.000000,257.000000 -398.000000C309.000000 -398.000000,334.000000 -352.000000,342.000000 -334.000000C358.000000 -297.000000,360.000000 -258.000000,360.000000 -208.000000C360.000000 -173.000000,360.000000 -113.000000,336.000000 -71.000000C312.000000 -32.000000,275.000000 -6.000000,229.000000 -6.000000C156.000000 -6.000000,99.000000 -59.000000,82.000000 -118.000000C85.000000 -117.000000,88.000000 -116.000000,99.000000 -116.000000C132.000000 -116.000000,149.000000 -141.000000,149.000000 -165.000000C149.000000 -189.000000,132.000000 -214.000000,99.000000 -214.000000C85.000000 -214.000000,50.000000 -207.000000,50.000000 -161.000000C50.000000 -75.000000,119.000000 22.000000,231.000000 22.000000C347.000000 22.000000,449.000000 -74.000000,449.000000 -201.000000"></path>
    </g>
    <g transform="scale(0.009963,0.009963)" id="GLYPHcmr10_54">
      <path style="fill-rule: evenodd;" d="M132.000000 -328.000000L132.000000 -352.000000C132.000000 -605.000000,256.000000 -641.000000,307.000000 -641.000000C331.000000 -641.000000,373.000000 -635.000000,395.000000 -601.000000C380.000000 -601.000000,340.000000 -601.000000,340.000000 -556.000000C340.000000 -525.000000,364.000000 -510.000000,386.000000 -510.000000C402.000000 -510.000000,432.000000 -519.000000,432.000000 -558.000000C432.000000 -618.000000,388.000000 -666.000000,305.000000 -666.000000C177.000000 -666.000000,42.000000 -537.000000,42.000000 -316.000000C42.000000 -49.000000,158.000000 22.000000,251.000000 22.000000C362.000000 22.000000,457.000000 -72.000000,457.000000 -204.000000C457.000000 -331.000000,368.000000 -427.000000,257.000000 -427.000000C189.000000 -427.000000,152.000000 -376.000000,132.000000 -328.000000M251.000000 -6.000000C188.000000 -6.000000,158.000000 -66.000000,152.000000 -81.000000C134.000000 -128.000000,134.000000 -208.000000,134.000000 -226.000000C134.000000 -304.000000,166.000000 -404.000000,256.000000 -404.000000C272.000000 -404.000000,318.000000 -404.000000,349.000000 -342.000000C367.000000 -305.000000,367.000000 -254.000000,367.000000 -205.000000C367.000000 -157.000000,367.000000 -107.000000,350.000000 -71.000000C320.000000 -11.000000,274.000000 -6.000000,251.000000 -6.000000"></path>
    </g>
    <g transform="scale(0.009963,0.009963)" id="GLYPHcmr10_55">
      <path style="fill-rule: evenodd;" d="M476.000000 -609.000000C485.000000 -621.000000,485.000000 -623.000000,485.000000 -644.000000L242.000000 -644.000000C120.000000 -644.000000,118.000000 -657.000000,114.000000 -676.000000L89.000000 -676.000000L56.000000 -470.000000L81.000000 -470.000000C84.000000 -486.000000,93.000000 -549.000000,106.000000 -561.000000C113.000000 -567.000000,191.000000 -567.000000,204.000000 -567.000000L411.000000 -567.000000C400.000000 -551.000000,321.000000 -442.000000,299.000000 -409.000000C209.000000 -274.000000,176.000000 -135.000000,176.000000 -33.000000C176.000000 -23.000000,176.000000 22.000000,222.000000 22.000000C268.000000 22.000000,268.000000 -23.000000,268.000000 -33.000000L268.000000 -84.000000C268.000000 -139.000000,271.000000 -194.000000,279.000000 -248.000000C283.000000 -271.000000,297.000000 -357.000000,341.000000 -419.000000"></path>
    </g>
    <g transform="scale(0.009963,0.009963)" id="GLYPHcmr10_56">
      <path style="fill-rule: evenodd;" d="M163.000000 -457.000000C117.000000 -487.000000,113.000000 -521.000000,113.000000 -538.000000C113.000000 -599.000000,178.000000 -641.000000,249.000000 -641.000000C322.000000 -641.000000,386.000000 -589.000000,386.000000 -517.000000C386.000000 -460.000000,347.000000 -412.000000,287.000000 -377.000000M309.000000 -362.000000C381.000000 -399.000000,430.000000 -451.000000,430.000000 -517.000000C430.000000 -609.000000,341.000000 -666.000000,250.000000 -666.000000C150.000000 -666.000000,69.000000 -592.000000,69.000000 -499.000000C69.000000 -481.000000,71.000000 -436.000000,113.000000 -389.000000C124.000000 -377.000000,161.000000 -352.000000,186.000000 -335.000000C128.000000 -306.000000,42.000000 -250.000000,42.000000 -151.000000C42.000000 -45.000000,144.000000 22.000000,249.000000 22.000000C362.000000 22.000000,457.000000 -61.000000,457.000000 -168.000000C457.000000 -204.000000,446.000000 -249.000000,408.000000 -291.000000C389.000000 -312.000000,373.000000 -322.000000,309.000000 -362.000000M209.000000 -320.000000L332.000000 -242.000000C360.000000 -223.000000,407.000000 -193.000000,407.000000 -132.000000C407.000000 -58.000000,332.000000 -6.000000,250.000000 -6.000000C164.000000 -6.000000,92.000000 -68.000000,92.000000 -151.000000C92.000000 -209.000000,124.000000 -273.000000,209.000000 -320.000000"></path>
    </g>
    <g transform="scale(0.009963,0.009963)" id="GLYPHcmr10_57">
      <path style="fill-rule: evenodd;" d="M367.000000 -318.000000L367.000000 -286.000000C367.000000 -52.000000,263.000000 -6.000000,205.000000 -6.000000C188.000000 -6.000000,134.000000 -8.000000,107.000000 -42.000000C151.000000 -42.000000,159.000000 -71.000000,159.000000 -88.000000C159.000000 -119.000000,135.000000 -134.000000,113.000000 -134.000000C97.000000 -134.000000,67.000000 -125.000000,67.000000 -86.000000C67.000000 -19.000000,121.000000 22.000000,206.000000 22.000000C335.000000 22.000000,457.000000 -114.000000,457.000000 -329.000000C457.000000 -598.000000,342.000000 -666.000000,253.000000 -666.000000C198.000000 -666.000000,149.000000 -648.000000,106.000000 -603.000000C65.000000 -558.000000,42.000000 -516.000000,42.000000 -441.000000C42.000000 -316.000000,130.000000 -218.000000,242.000000 -218.000000C303.000000 -218.000000,344.000000 -260.000000,367.000000 -318.000000M243.000000 -241.000000C227.000000 -241.000000,181.000000 -241.000000,150.000000 -304.000000C132.000000 -341.000000,132.000000 -391.000000,132.000000 -440.000000C132.000000 -494.000000,132.000000 -541.000000,153.000000 -578.000000C180.000000 -628.000000,218.000000 -641.000000,253.000000 -641.000000C299.000000 -641.000000,332.000000 -607.000000,349.000000 -562.000000C361.000000 -530.000000,365.000000 -467.000000,365.000000 -421.000000C365.000000 -338.000000,331.000000 -241.000000,243.000000 -241.000000"></path>
    </g>
  </defs>
  <path d="M84.491638 200.001160C84.491638 199.208466,84.176697 198.448318,83.616211 197.887848C83.055740 197.327362,82.295593 197.012421,81.502899 197.012421C80.710205 197.012421,79.950058 197.327362,79.389587 197.887848C78.829102 198.448318,78.514160 199.208466,78.514160 200.001160C78.514160 200.793854,78.829102 201.554001,79.389587 202.114471C79.950058 202.674957,80.710205 202.989899,81.502899 202.989899C82.295593 202.989899,83.055740 202.674957,83.616211 202.114471C84.176697 201.554001,84.491638 200.793854,84.491638 200.001160Z" style="fill: rgb(100.000000%,100.000000%,100.000000%);stroke: none;"></path>
  <path d="M107.263016 193.102753C107.263016 192.310059,106.948074 191.549911,106.387589 190.989441C105.827118 190.428955,105.066971 190.114014,104.274277 190.114014C103.481583 190.114014,102.721436 190.428955,102.160965 190.989441C101.600479 191.549911,101.285538 192.310059,101.285538 193.102753C101.285538 193.895447,101.600479 194.655594,102.160965 195.216064C102.721436 195.776550,103.481583 196.091492,104.274277 196.091492C105.066971 196.091492,105.827118 195.776550,106.387589 195.216064C106.948074 194.655594,107.263016 193.895447,107.263016 193.102753Z" style="fill: rgb(100.000000%,100.000000%,100.000000%);stroke: none;"></path>
  <path d="M49.830261 149.355240C49.830261 148.562546,49.515320 147.802399,48.954834 147.241928C48.394363 146.681442,47.634216 146.366501,46.841522 146.366501C46.048828 146.366501,45.288681 146.681442,44.728210 147.241928C44.167725 147.802399,43.852783 148.562546,43.852783 149.355240C43.852783 150.147934,44.167725 150.908081,44.728210 151.468552C45.288681 152.029037,46.048828 152.343979,46.841522 152.343979C47.634216 152.343979,48.394363 152.029037,48.954834 151.468552C49.515320 150.908081,49.830261 150.147934,49.830261 149.355240Z" style="fill: rgb(100.000000%,100.000000%,100.000000%);stroke: none;"></path>
  <path d="M60.488098 186.888474C60.488098 186.095779,60.173157 185.335632,59.612671 184.775162C59.052200 184.214676,58.292053 183.899734,57.499359 183.899734C56.706665 183.899734,55.946518 184.214676,55.386047 184.775162C54.825562 185.335632,54.510620 186.095779,54.510620 186.888474C54.510620 187.681168,54.825562 188.441315,55.386047 189.001785C55.946518 189.562271,56.706665 189.877213,57.499359 189.877213C58.292053 189.877213,59.052200 189.562271,59.612671 189.001785C60.173157 188.441315,60.488098 187.681168,60.488098 186.888474Z" style="fill: rgb(100.000000%,100.000000%,100.000000%);stroke: none;"></path>
  <path d="M54.714218 111.041931C54.714218 110.249237,54.399277 109.489090,53.838791 108.928619C53.278320 108.368134,52.518173 108.053192,51.725479 108.053192C50.932785 108.053192,50.172638 108.368134,49.612167 108.928619C49.051682 109.489090,48.736740 110.249237,48.736740 111.041931C48.736740 111.834625,49.051682 112.594772,49.612167 113.155243C50.172638 113.715729,50.932785 114.030670,51.725479 114.030670C52.518173 114.030670,53.278320 113.715729,53.838791 113.155243C54.399277 112.594772,54.714218 111.834625,54.714218 111.041931Z" style="fill: rgb(100.000000%,100.000000%,100.000000%);stroke: none;"></path>
  <path d="M54.531662 134.078888C54.531662 133.286194,54.216721 132.526047,53.656235 131.965576C53.095764 131.405090,52.335617 131.090149,51.542923 131.090149C50.750229 131.090149,49.990082 131.405090,49.429611 131.965576C48.869125 132.526047,48.554184 133.286194,48.554184 134.078888C48.554184 134.871582,48.869125 135.631729,49.429611 136.192200C49.990082 136.752686,50.750229 137.067627,51.542923 137.067627C52.335617 137.067627,53.095764 136.752686,53.656235 136.192200C54.216721 135.631729,54.531662 134.871582,54.531662 134.078888Z" style="fill: rgb(100.000000%,100.000000%,100.000000%);stroke: none;"></path>
  <path d="M54.399918 88.465851C54.399918 87.673157,54.084976 86.913010,53.524490 86.352539C52.964020 85.792053,52.203873 85.477112,51.411179 85.477112C50.618484 85.477112,49.858337 85.792053,49.297867 86.352539C48.737381 86.913010,48.422440 87.673157,48.422440 88.465851C48.422440 89.258545,48.737381 90.018692,49.297867 90.579163C49.858337 91.139648,50.618484 91.454590,51.411179 91.454590C52.203873 91.454590,52.964020 91.139648,53.524490 90.579163C54.084976 90.018692,54.399918 89.258545,54.399918 88.465851Z" style="fill: rgb(100.000000%,100.000000%,100.000000%);stroke: none;"></path>
  <path d="M53.512894 103.165237C53.512894 102.372543,53.197952 101.612396,52.637466 101.051926C52.076996 100.491440,51.316849 100.176498,50.524155 100.176498C49.731461 100.176498,48.971313 100.491440,48.410843 101.051926C47.850357 101.612396,47.535416 102.372543,47.535416 103.165237C47.535416 103.957932,47.850357 104.718079,48.410843 105.278549C48.971313 105.839035,49.731461 106.153976,50.524155 106.153976C51.316849 106.153976,52.076996 105.839035,52.637466 105.278549C53.197952 104.718079,53.512894 103.957932,53.512894 103.165237Z" style="fill: rgb(100.000000%,100.000000%,100.000000%);stroke: none;"></path>
  <path d="M47.351334 66.403748C47.351334 65.611053,47.036392 64.850906,46.475906 64.290436C45.915436 63.729950,45.155289 63.415009,44.362595 63.415009C43.569901 63.415009,42.809753 63.729950,42.249283 64.290436C41.688797 64.850906,41.373856 65.611053,41.373856 66.403748C41.373856 67.196442,41.688797 67.956589,42.249283 68.517059C42.809753 69.077545,43.569901 69.392487,44.362595 69.392487C45.155289 69.392487,45.915436 69.077545,46.475906 68.517059C47.036392 67.956589,47.351334 67.196442,47.351334 66.403748Z" style="fill: rgb(100.000000%,100.000000%,100.000000%);stroke: none;"></path>
  <path d="M55.931946 81.302963C55.931946 80.510269,55.617004 79.750122,55.056519 79.189651C54.496048 78.629166,53.735901 78.314224,52.943207 78.314224C52.150513 78.314224,51.390366 78.629166,50.829895 79.189651C50.269409 79.750122,49.954468 80.510269,49.954468 81.302963C49.954468 82.095657,50.269409 82.855804,50.829895 83.416275C51.390366 83.976761,52.150513 84.291702,52.943207 84.291702C53.735901 84.291702,54.496048 83.976761,55.056519 83.416275C55.617004 82.855804,55.931946 82.095657,55.931946 81.302963Z" style="fill: rgb(100.000000%,100.000000%,100.000000%);stroke: none;"></path>
  <path d="M7.026474 81.087921C7.026474 80.295227,6.711533 79.535080,6.151047 78.974609C5.590576 78.414124,4.830429 78.099182,4.037735 78.099182C3.245041 78.099182,2.484894 78.414124,1.924423 78.974609C1.363937 79.535080,1.048996 80.295227,1.048996 81.087921C1.048996 81.880615,1.363937 82.640762,1.924423 83.201233C2.484894 83.761719,3.245041 84.076660,4.037735 84.076660C4.830429 84.076660,5.590576 83.761719,6.151047 83.201233C6.711533 82.640762,7.026474 81.880615,7.026474 81.087921Z" style="fill: rgb(100.000000%,100.000000%,100.000000%);stroke: none;"></path>
  <path d="M35.231720 65.071838C35.231720 64.279144,34.916779 63.518997,34.356293 62.958527C33.795822 62.398041,33.035675 62.083099,32.242981 62.083099C31.450287 62.083099,30.690140 62.398041,30.129669 62.958527C29.569183 63.518997,29.254242 64.279144,29.254242 65.071838C29.254242 65.864532,29.569183 66.624680,30.129669 67.185150C30.690140 67.745636,31.450287 68.060577,32.242981 68.060577C33.035675 68.060577,33.795822 67.745636,34.356293 67.185150C34.916779 66.624680,35.231720 65.864532,35.231720 65.071838Z" style="fill: rgb(100.000000%,100.000000%,100.000000%);stroke: none;"></path>
  <path d="M19.317841 148.687576C19.317841 147.894882,19.002899 147.134735,18.442413 146.574265C17.881943 146.013779,17.121796 145.698837,16.329102 145.698837C15.536407 145.698837,14.776260 146.013779,14.215790 146.574265C13.655304 147.134735,13.340363 147.894882,13.340363 148.687576C13.340363 149.480270,13.655304 150.240417,14.215790 150.800888C14.776260 151.361374,15.536407 151.676315,16.329102 151.676315C17.121796 151.676315,17.881943 151.361374,18.442413 150.800888C19.002899 150.240417,19.317841 149.480270,19.317841 148.687576Z" style="fill: rgb(100.000000%,100.000000%,100.000000%);stroke: none;"></path>
  <path d="M5.892151 106.101578C5.892151 105.308884,5.577209 104.548737,5.016724 103.988266C4.456253 103.427780,3.696106 103.112839,2.903412 103.112839C2.110718 103.112839,1.350571 103.427780,0.790100 103.988266C0.229614 104.548737,-0.085327 105.308884,-0.085327 106.101578C-0.085327 106.894272,0.229614 107.654419,0.790100 108.214890C1.350571 108.775375,2.110718 109.090317,2.903412 109.090317C3.696106 109.090317,4.456253 108.775375,5.016724 108.214890C5.577209 107.654419,5.892151 106.894272,5.892151 106.101578Z" style="fill: rgb(100.000000%,100.000000%,100.000000%);stroke: none;"></path>
  <path d="M68.345505 161.571289C68.345505 160.778595,68.030563 160.018448,67.470078 159.457977C66.909607 158.897491,66.149460 158.582550,65.356766 158.582550C64.564072 158.582550,63.803925 158.897491,63.243454 159.457977C62.682968 160.018448,62.368027 160.778595,62.368027 161.571289C62.368027 162.363983,62.682968 163.124130,63.243454 163.684601C63.803925 164.245087,64.564072 164.560028,65.356766 164.560028C66.149460 164.560028,66.909607 164.245087,67.470078 163.684601C68.030563 163.124130,68.345505 162.363983,68.345505 161.571289Z" style="fill: rgb(100.000000%,100.000000%,100.000000%);stroke: none;"></path>
  <path d="M34.171646 167.352417C34.171646 166.559723,33.856705 165.799576,33.296219 165.239105C32.735748 164.678619,31.975601 164.363678,31.182907 164.363678C30.390213 164.363678,29.630066 164.678619,29.069595 165.239105C28.509109 165.799576,28.194168 166.559723,28.194168 167.352417C28.194168 168.145111,28.509109 168.905258,29.069595 169.465729C29.630066 170.026215,30.390213 170.341156,31.182907 170.341156C31.975601 170.341156,32.735748 170.026215,33.296219 169.465729C33.856705 168.905258,34.171646 168.145111,34.171646 167.352417Z" style="fill: rgb(100.000000%,100.000000%,100.000000%);stroke: none;"></path>
  <path d="M83.005508 125.997894C83.005508 125.205200,82.690567 124.445053,82.130081 123.884583C81.569611 123.324097,80.809464 123.009155,80.016769 123.009155C79.224075 123.009155,78.463928 123.324097,77.903458 123.884583C77.342972 124.445053,77.028030 125.205200,77.028030 125.997894C77.028030 126.790588,77.342972 127.550735,77.903458 128.111206C78.463928 128.671692,79.224075 128.986633,80.016769 128.986633C80.809464 128.986633,81.569611 128.671692,82.130081 128.111206C82.690567 127.550735,83.005508 126.790588,83.005508 125.997894Z" style="fill: rgb(100.000000%,100.000000%,100.000000%);stroke: none;"></path>
  <path d="M76.873459 147.867737C76.873459 147.075043,76.558517 146.314896,75.998032 145.754425C75.437561 145.193939,74.677414 144.878998,73.884720 144.878998C73.092026 144.878998,72.331879 145.193939,71.771408 145.754425C71.210922 146.314896,70.895981 147.075043,70.895981 147.867737C70.895981 148.660431,71.210922 149.420578,71.771408 149.981049C72.331879 150.541534,73.092026 150.856476,73.884720 150.856476C74.677414 150.856476,75.437561 150.541534,75.998032 149.981049C76.558517 149.420578,76.873459 148.660431,76.873459 147.867737Z" style="fill: rgb(100.000000%,100.000000%,100.000000%);stroke: none;"></path>
  <path d="M88.545334 107.549927C88.545334 106.757233,88.230392 105.997086,87.669907 105.436615C87.109436 104.876129,86.349289 104.561188,85.556595 104.561188C84.763901 104.561188,84.003754 104.876129,83.443283 105.436615C82.882797 105.997086,82.567856 106.757233,82.567856 107.549927C82.567856 108.342621,82.882797 109.102768,83.443283 109.663239C84.003754 110.223724,84.763901 110.538666,85.556595 110.538666C86.349289 110.538666,87.109436 110.223724,87.669907 109.663239C88.230392 109.102768,88.545334 108.342621,88.545334 107.549927Z" style="fill: rgb(100.000000%,100.000000%,100.000000%);stroke: none;"></path>
  <path d="M84.173096 118.237335C84.173096 117.444641,83.858154 116.684494,83.297668 116.124023C82.737198 115.563538,81.977051 115.248596,81.184357 115.248596C80.391663 115.248596,79.631516 115.563538,79.071045 116.124023C78.510559 116.684494,78.195618 117.444641,78.195618 118.237335C78.195618 119.030029,78.510559 119.790176,79.071045 120.350647C79.631516 120.911133,80.391663 121.226074,81.184357 121.226074C81.977051 121.226074,82.737198 120.911133,83.297668 120.350647C83.858154 119.790176,84.173096 119.030029,84.173096 118.237335Z" style="fill: rgb(100.000000%,100.000000%,100.000000%);stroke: none;"></path>
  <path d="M86.675491 98.294556C86.675491 97.501862,86.360550 96.741714,85.800064 96.181244C85.239594 95.620758,84.479446 95.305817,83.686752 95.305817C82.894058 95.305817,82.133911 95.620758,81.573441 96.181244C81.012955 96.741714,80.698013 97.501862,80.698013 98.294556C80.698013 99.087250,81.012955 99.847397,81.573441 100.407867C82.133911 100.968353,82.894058 101.283295,83.686752 101.283295C84.479446 101.283295,85.239594 100.968353,85.800064 100.407867C86.360550 99.847397,86.675491 99.087250,86.675491 98.294556Z" style="fill: rgb(100.000000%,100.000000%,100.000000%);stroke: none;"></path>
  <path d="M90.215012 103.720306C90.215012 102.927612,89.900070 102.167465,89.339584 101.606995C88.779114 101.046509,88.018967 100.731567,87.226273 100.731567C86.433578 100.731567,85.673431 101.046509,85.112961 101.606995C84.552475 102.167465,84.237534 102.927612,84.237534 103.720306C84.237534 104.513000,84.552475 105.273148,85.112961 105.833618C85.673431 106.394104,86.433578 106.709045,87.226273 106.709045C88.018967 106.709045,88.779114 106.394104,89.339584 105.833618C89.900070 105.273148,90.215012 104.513000,90.215012 103.720306Z" style="fill: rgb(100.000000%,100.000000%,100.000000%);stroke: none;"></path>
  <path d="M76.867767 95.729736C76.867767 94.937042,76.552826 94.176895,75.992340 93.616425C75.431870 93.055939,74.671722 92.740997,73.879028 92.740997C73.086334 92.740997,72.326187 93.055939,71.765717 93.616425C71.205231 94.176895,70.890289 94.937042,70.890289 95.729736C70.890289 96.522430,71.205231 97.282578,71.765717 97.843048C72.326187 98.403534,73.086334 98.718475,73.879028 98.718475C74.671722 98.718475,75.431870 98.403534,75.992340 97.843048C76.552826 97.282578,76.867767 96.522430,76.867767 95.729736Z" style="fill: rgb(100.000000%,100.000000%,100.000000%);stroke: none;"></path>
  <path d="M83.762848 97.671249C83.762848 96.878555,83.447906 96.118408,82.887421 95.557938C82.326950 94.997452,81.566803 94.682510,80.774109 94.682510C79.981415 94.682510,79.221268 94.997452,78.660797 95.557938C78.100311 96.118408,77.785370 96.878555,77.785370 97.671249C77.785370 98.463943,78.100311 99.224091,78.660797 99.784561C79.221268 100.345047,79.981415 100.659988,80.774109 100.659988C81.566803 100.659988,82.326950 100.345047,82.887421 99.784561C83.447906 99.224091,83.762848 98.463943,83.762848 97.671249Z" style="fill: rgb(100.000000%,100.000000%,100.000000%);stroke: none;"></path>
  <path d="M63.558609 92.875839C63.558609 92.083145,63.243668 91.322998,62.683182 90.762527C62.122711 90.202042,61.362564 89.887100,60.569870 89.887100C59.777176 89.887100,59.017029 90.202042,58.456558 90.762527C57.896072 91.322998,57.581131 92.083145,57.581131 92.875839C57.581131 93.668533,57.896072 94.428680,58.456558 94.989151C59.017029 95.549637,59.777176 95.864578,60.569870 95.864578C61.362564 95.864578,62.122711 95.549637,62.683182 94.989151C63.243668 94.428680,63.558609 93.668533,63.558609 92.875839Z" style="fill: rgb(100.000000%,100.000000%,100.000000%);stroke: none;"></path>
  <path d="M72.813553 93.829895C72.813553 93.037201,72.498611 92.277054,71.938126 91.716583C71.377655 91.156097,70.617508 90.841156,69.824814 90.841156C69.032120 90.841156,68.271973 91.156097,67.711502 91.716583C67.151016 92.277054,66.836075 93.037201,66.836075 93.829895C66.836075 94.622589,67.151016 95.382736,67.711502 95.943207C68.271973 96.503693,69.032120 96.818634,69.824814 96.818634C70.617508 96.818634,71.377655 96.503693,71.938126 95.943207C72.498611 95.382736,72.813553 94.622589,72.813553 93.829895Z" style="fill: rgb(100.000000%,100.000000%,100.000000%);stroke: none;"></path>
  <path d="M49.785294 96.234741C49.785294 95.442047,49.470352 94.681900,48.909866 94.121429C48.349396 93.560944,47.589249 93.246002,46.796555 93.246002C46.003860 93.246002,45.243713 93.560944,44.683243 94.121429C44.122757 94.681900,43.807816 95.442047,43.807816 96.234741C43.807816 97.027435,44.122757 97.787582,44.683243 98.348053C45.243713 98.908539,46.003860 99.223480,46.796555 99.223480C47.589249 99.223480,48.349396 98.908539,48.909866 98.348053C49.470352 97.787582,49.785294 97.027435,49.785294 96.234741Z" style="fill: rgb(100.000000%,100.000000%,100.000000%);stroke: none;"></path>
  <path d="M58.756638 94.196457C58.756638 93.403763,58.441696 92.643616,57.881210 92.083145C57.320740 91.522659,56.560593 91.207718,55.767899 91.207718C54.975204 91.207718,54.215057 91.522659,53.654587 92.083145C53.094101 92.643616,52.779160 93.403763,52.779160 94.196457C52.779160 94.989151,53.094101 95.749298,53.654587 96.309769C54.215057 96.870255,54.975204 97.185196,55.767899 97.185196C56.560593 97.185196,57.320740 96.870255,57.881210 96.309769C58.441696 95.749298,58.756638 94.989151,58.756638 94.196457Z" style="fill: rgb(100.000000%,100.000000%,100.000000%);stroke: none;"></path>
  <path d="M30.733841 93.227509C30.733841 92.434814,30.418900 91.674667,29.858414 91.114197C29.297943 90.553711,28.537796 90.238770,27.745102 90.238770C26.952408 90.238770,26.192261 90.553711,25.631790 91.114197C25.071304 91.674667,24.756363 92.434814,24.756363 93.227509C24.756363 94.020203,25.071304 94.780350,25.631790 95.340820C26.192261 95.901306,26.952408 96.216248,27.745102 96.216248C28.537796 96.216248,29.297943 95.901306,29.858414 95.340820C30.418900 94.780350,30.733841 94.020203,30.733841 93.227509Z" style="fill: rgb(100.000000%,100.000000%,100.000000%);stroke: none;"></path>
  <path d="M45.439423 97.003403C45.439423 96.210709,45.124481 95.450562,44.563995 94.890091C44.003525 94.329605,43.243378 94.014664,42.450684 94.014664C41.657990 94.014664,40.897842 94.329605,40.337372 94.890091C39.776886 95.450562,39.461945 96.210709,39.461945 97.003403C39.461945 97.796097,39.776886 98.556244,40.337372 99.116714C40.897842 99.677200,41.657990 99.992142,42.450684 99.992142C43.243378 99.992142,44.003525 99.677200,44.563995 99.116714C45.124481 98.556244,45.439423 97.796097,45.439423 97.003403Z" style="fill: rgb(100.000000%,100.000000%,100.000000%);stroke: none;"></path>
  <path d="M25.398270 49.475647C25.398270 48.682953,25.083328 47.922806,24.522842 47.362335C23.962372 46.801849,23.202225 46.486908,22.409531 46.486908C21.616837 46.486908,20.856689 46.801849,20.296219 47.362335C19.735733 47.922806,19.420792 48.682953,19.420792 49.475647C19.420792 50.268341,19.735733 51.028488,20.296219 51.588959C20.856689 52.149445,21.616837 52.464386,22.409531 52.464386C23.202225 52.464386,23.962372 52.149445,24.522842 51.588959C25.083328 51.028488,25.398270 50.268341,25.398270 49.475647Z" style="fill: rgb(100.000000%,100.000000%,100.000000%);stroke: none;"></path>
  <path d="M25.902054 81.823868C25.902054 81.031174,25.587112 80.271027,25.026627 79.710556C24.466156 79.150070,23.706009 78.835129,22.913315 78.835129C22.120621 78.835129,21.360474 79.150070,20.800003 79.710556C20.239517 80.271027,19.924576 81.031174,19.924576 81.823868C19.924576 82.616562,20.239517 83.376709,20.800003 83.937180C21.360474 84.497665,22.120621 84.812607,22.913315 84.812607C23.706009 84.812607,24.466156 84.497665,25.026627 83.937180C25.587112 83.376709,25.902054 82.616562,25.902054 81.823868Z" style="fill: rgb(100.000000%,100.000000%,100.000000%);stroke: none;"></path>
  <path d="M70.063583 6.820343C70.063583 6.027649,69.748642 5.267502,69.188156 4.707031C68.627686 4.146545,67.867538 3.831604,67.074844 3.831604C66.282150 3.831604,65.522003 4.146545,64.961533 4.707031C64.401047 5.267502,64.086105 6.027649,64.086105 6.820343C64.086105 7.613037,64.401047 8.373184,64.961533 8.933655C65.522003 9.494141,66.282150 9.809082,67.074844 9.809082C67.867538 9.809082,68.627686 9.494141,69.188156 8.933655C69.748642 8.373184,70.063583 7.613037,70.063583 6.820343Z" style="fill: rgb(100.000000%,100.000000%,100.000000%);stroke: none;"></path>
  <path d="M37.149139 30.551376C37.149139 29.758682,36.834198 28.998535,36.273712 28.438065C35.713242 27.877579,34.953094 27.562637,34.160400 27.562637C33.367706 27.562637,32.607559 27.877579,32.047089 28.438065C31.486603 28.998535,31.171661 29.758682,31.171661 30.551376C31.171661 31.344070,31.486603 32.104218,32.047089 32.664688C32.607559 33.225174,33.367706 33.540115,34.160400 33.540115C34.953094 33.540115,35.713242 33.225174,36.273712 32.664688C36.834198 32.104218,37.149139 31.344070,37.149139 30.551376Z" style="fill: rgb(100.000000%,100.000000%,100.000000%);stroke: none;"></path>
  <path d="M115.449905 23.614807C115.449905 22.822113,115.134964 22.061966,114.574478 21.501495C114.014008 20.941010,113.253860 20.626068,112.461166 20.626068C111.668472 20.626068,110.908325 20.941010,110.347855 21.501495C109.787369 22.061966,109.472427 22.822113,109.472427 23.614807C109.472427 24.407501,109.787369 25.167648,110.347855 25.728119C110.908325 26.288605,111.668472 26.603546,112.461166 26.603546C113.253860 26.603546,114.014008 26.288605,114.574478 25.728119C115.134964 25.167648,115.449905 24.407501,115.449905 23.614807Z" style="fill: rgb(100.000000%,100.000000%,100.000000%);stroke: none;"></path>
  <path d="M90.893677 2.420547C90.893677 1.627853,90.578735 0.867706,90.018250 0.307236C89.457779 -0.253250,88.697632 -0.568192,87.904938 -0.568192C87.112244 -0.568192,86.352097 -0.253250,85.791626 0.307236C85.231140 0.867706,84.916199 1.627853,84.916199 2.420547C84.916199 3.213242,85.231140 3.973389,85.791626 4.533859C86.352097 5.094345,87.112244 5.409286,87.904938 5.409286C88.697632 5.409286,89.457779 5.094345,90.018250 4.533859C90.578735 3.973389,90.893677 3.213242,90.893677 2.420547Z" style="fill: rgb(100.000000%,100.000000%,100.000000%);stroke: none;"></path>
  <path d="M119.894714 59.497986C119.894714 58.705292,119.579773 57.945145,119.019287 57.384674C118.458817 56.824188,117.698669 56.509247,116.905975 56.509247C116.113281 56.509247,115.353134 56.824188,114.792664 57.384674C114.232178 57.945145,113.917236 58.705292,113.917236 59.497986C113.917236 60.290680,114.232178 61.050827,114.792664 61.611298C115.353134 62.171783,116.113281 62.486725,116.905975 62.486725C117.698669 62.486725,118.458817 62.171783,119.019287 61.611298C119.579773 61.050827,119.894714 60.290680,119.894714 59.497986Z" style="fill: rgb(100.000000%,100.000000%,100.000000%);stroke: none;"></path>
  <path d="M116.876755 38.377350C116.876755 37.584656,116.561813 36.824509,116.001328 36.264038C115.440857 35.703552,114.680710 35.388611,113.888016 35.388611C113.095322 35.388611,112.335175 35.703552,111.774704 36.264038C111.214218 36.824509,110.899277 37.584656,110.899277 38.377350C110.899277 39.170044,111.214218 39.930191,111.774704 40.490662C112.335175 41.051147,113.095322 41.366089,113.888016 41.366089C114.680710 41.366089,115.440857 41.051147,116.001328 40.490662C116.561813 39.930191,116.876755 39.170044,116.876755 38.377350Z" style="fill: rgb(100.000000%,100.000000%,100.000000%);stroke: none;"></path>
  <path d="M123.504181 80.043289C123.504181 79.250595,123.189240 78.490448,122.628754 77.929977C122.068283 77.369492,121.308136 77.054550,120.515442 77.054550C119.722748 77.054550,118.962601 77.369492,118.402130 77.929977C117.841644 78.490448,117.526703 79.250595,117.526703 80.043289C117.526703 80.835983,117.841644 81.596130,118.402130 82.156601C118.962601 82.717087,119.722748 83.032028,120.515442 83.032028C121.308136 83.032028,122.068283 82.717087,122.628754 82.156601C123.189240 81.596130,123.504181 80.835983,123.504181 80.043289Z" style="fill: rgb(100.000000%,100.000000%,100.000000%);stroke: none;"></path>
  <path d="M121.292587 66.873016C121.292587 66.080322,120.977646 65.320175,120.417160 64.759705C119.856689 64.199219,119.096542 63.884277,118.303848 63.884277C117.511154 63.884277,116.751007 64.199219,116.190536 64.759705C115.630051 65.320175,115.315109 66.080322,115.315109 66.873016C115.315109 67.665710,115.630051 68.425858,116.190536 68.986328C116.751007 69.546814,117.511154 69.861755,118.303848 69.861755C119.096542 69.861755,119.856689 69.546814,120.417160 68.986328C120.977646 68.425858,121.292587 67.665710,121.292587 66.873016Z" style="fill: rgb(100.000000%,100.000000%,100.000000%);stroke: none;"></path>
  <path d="M120.311081 96.221985C120.311081 95.429291,119.996140 94.669144,119.435654 94.108673C118.875183 93.548187,118.115036 93.233246,117.322342 93.233246C116.529648 93.233246,115.769501 93.548187,115.209030 94.108673C114.648544 94.669144,114.333603 95.429291,114.333603 96.221985C114.333603 97.014679,114.648544 97.774826,115.209030 98.335297C115.769501 98.895782,116.529648 99.210724,117.322342 99.210724C118.115036 99.210724,118.875183 98.895782,119.435654 98.335297C119.996140 97.774826,120.311081 97.014679,120.311081 96.221985Z" style="fill: rgb(100.000000%,100.000000%,100.000000%);stroke: none;"></path>
  <path d="M124.347275 86.035965C124.347275 85.243271,124.032333 84.483124,123.471848 83.922653C122.911377 83.362167,122.151230 83.047226,121.358536 83.047226C120.565842 83.047226,119.805695 83.362167,119.245224 83.922653C118.684738 84.483124,118.369797 85.243271,118.369797 86.035965C118.369797 86.828659,118.684738 87.588806,119.245224 88.149277C119.805695 88.709763,120.565842 89.024704,121.358536 89.024704C122.151230 89.024704,122.911377 88.709763,123.471848 88.149277C124.032333 87.588806,124.347275 86.828659,124.347275 86.035965Z" style="fill: rgb(100.000000%,100.000000%,100.000000%);stroke: none;"></path>
  <path d="M109.180252 107.077301C109.180252 106.284607,108.865311 105.524460,108.304825 104.963989C107.744354 104.403503,106.984207 104.088562,106.191513 104.088562C105.398819 104.088562,104.638672 104.403503,104.078201 104.963989C103.517715 105.524460,103.202774 106.284607,103.202774 107.077301C103.202774 107.869995,103.517715 108.630142,104.078201 109.190613C104.638672 109.751099,105.398819 110.066040,106.191513 110.066040C106.984207 110.066040,107.744354 109.751099,108.304825 109.190613C108.865311 108.630142,109.180252 107.869995,109.180252 107.077301Z" style="fill: rgb(100.000000%,100.000000%,100.000000%);stroke: none;"></path>
  <path d="M116.449158 99.735291C116.449158 98.942596,116.134216 98.182449,115.573730 97.621979C115.013260 97.061493,114.253113 96.746552,113.460419 96.746552C112.667725 96.746552,111.907578 97.061493,111.347107 97.621979C110.786621 98.182449,110.471680 98.942596,110.471680 99.735291C110.471680 100.527985,110.786621 101.288132,111.347107 101.848602C111.907578 102.409088,112.667725 102.724030,113.460419 102.724030C114.253113 102.724030,115.013260 102.409088,115.573730 101.848602C116.134216 101.288132,116.449158 100.527985,116.449158 99.735291Z" style="fill: rgb(100.000000%,100.000000%,100.000000%);stroke: none;"></path>
  <path d="M95.964966 113.378174C95.964966 112.585480,95.650024 111.825333,95.089539 111.264862C94.529068 110.704376,93.768921 110.389435,92.976227 110.389435C92.183533 110.389435,91.423386 110.704376,90.862915 111.264862C90.302429 111.825333,89.987488 112.585480,89.987488 113.378174C89.987488 114.170868,90.302429 114.931015,90.862915 115.491486C91.423386 116.051971,92.183533 116.366913,92.976227 116.366913C93.768921 116.366913,94.529068 116.051971,95.089539 115.491486C95.650024 114.931015,95.964966 114.170868,95.964966 113.378174Z" style="fill: rgb(100.000000%,100.000000%,100.000000%);stroke: none;"></path>
  <path d="M105.485489 111.151260C105.485489 110.358566,105.170547 109.598419,104.610062 109.037949C104.049591 108.477463,103.289444 108.162521,102.496750 108.162521C101.704056 108.162521,100.943909 108.477463,100.383438 109.037949C99.822952 109.598419,99.508011 110.358566,99.508011 111.151260C99.508011 111.943954,99.822952 112.704102,100.383438 113.264572C100.943909 113.825058,101.704056 114.139999,102.496750 114.139999C103.289444 114.139999,104.049591 113.825058,104.610062 113.264572C105.170547 112.704102,105.485489 111.943954,105.485489 111.151260Z" style="fill: rgb(100.000000%,100.000000%,100.000000%);stroke: none;"></path>
  <path d="M84.194733 110.379745C84.194733 109.587051,83.879791 108.826904,83.319305 108.266434C82.758835 107.705948,81.998688 107.391006,81.205994 107.391006C80.413300 107.391006,79.653152 107.705948,79.092682 108.266434C78.532196 108.826904,78.217255 109.587051,78.217255 110.379745C78.217255 111.172440,78.532196 111.932587,79.092682 112.493057C79.653152 113.053543,80.413300 113.368484,81.205994 113.368484C81.998688 113.368484,82.758835 113.053543,83.319305 112.493057C83.879791 111.932587,84.194733 111.172440,84.194733 110.379745Z" style="fill: rgb(100.000000%,100.000000%,100.000000%);stroke: none;"></path>
  <path d="M91.505280 112.020706C91.505280 111.228012,91.190338 110.467865,90.629852 109.907394C90.069382 109.346909,89.309235 109.031967,88.516541 109.031967C87.723846 109.031967,86.963699 109.346909,86.403229 109.907394C85.842743 110.467865,85.527802 111.228012,85.527802 112.020706C85.527802 112.813400,85.842743 113.573547,86.403229 114.134018C86.963699 114.694504,87.723846 115.009445,88.516541 115.009445C89.309235 115.009445,90.069382 114.694504,90.629852 114.134018C91.190338 113.573547,91.505280 112.813400,91.505280 112.020706Z" style="fill: rgb(100.000000%,100.000000%,100.000000%);stroke: none;"></path>
  <path d="M77.875290 103.881561C77.875290 103.088867,77.560349 102.328720,76.999863 101.768250C76.439392 101.207764,75.679245 100.892822,74.886551 100.892822C74.093857 100.892822,73.333710 101.207764,72.773239 101.768250C72.212753 102.328720,71.897812 103.088867,71.897812 103.881561C71.897812 104.674255,72.212753 105.434402,72.773239 105.994873C73.333710 106.555359,74.093857 106.870300,74.886551 106.870300C75.679245 106.870300,76.439392 106.555359,76.999863 105.994873C77.560349 105.434402,77.875290 104.674255,77.875290 103.881561Z" style="fill: rgb(100.000000%,100.000000%,100.000000%);stroke: none;"></path>
  <path d="M81.019363 109.672073C81.019363 108.879379,80.704422 108.119232,80.143936 107.558762C79.583466 106.998276,78.823318 106.683334,78.030624 106.683334C77.237930 106.683334,76.477783 106.998276,75.917313 107.558762C75.356827 108.119232,75.041885 108.879379,75.041885 109.672073C75.041885 110.464767,75.356827 111.224915,75.917313 111.785385C76.477783 112.345871,77.237930 112.660812,78.030624 112.660812C78.823318 112.660812,79.583466 112.345871,80.143936 111.785385C80.704422 111.224915,81.019363 110.464767,81.019363 109.672073Z" style="fill: rgb(100.000000%,100.000000%,100.000000%);stroke: none;"></path>
  <path d="M82.779510 92.233551C82.779510 91.440857,82.464569 90.680710,81.904083 90.120239C81.343613 89.559753,80.583466 89.244812,79.790771 89.244812C78.998077 89.244812,78.237930 89.559753,77.677460 90.120239C77.116974 90.680710,76.802032 91.440857,76.802032 92.233551C76.802032 93.026245,77.116974 93.786392,77.677460 94.346863C78.237930 94.907349,78.998077 95.222290,79.790771 95.222290C80.583466 95.222290,81.343613 94.907349,81.904083 94.346863C82.464569 93.786392,82.779510 93.026245,82.779510 92.233551Z" style="fill: rgb(100.000000%,100.000000%,100.000000%);stroke: none;"></path>
  <path d="M79.879837 100.325073C79.879837 99.532379,79.564896 98.772232,79.004410 98.211761C78.443939 97.651276,77.683792 97.336334,76.891098 97.336334C76.098404 97.336334,75.338257 97.651276,74.777786 98.211761C74.217300 98.772232,73.902359 99.532379,73.902359 100.325073C73.902359 101.117767,74.217300 101.877914,74.777786 102.438385C75.338257 102.998871,76.098404 103.313812,76.891098 103.313812C77.683792 103.313812,78.443939 102.998871,79.004410 102.438385C79.564896 101.877914,79.879837 101.117767,79.879837 100.325073Z" style="fill: rgb(100.000000%,100.000000%,100.000000%);stroke: none;"></path>
  <path d="M88.076660 79.383270C88.076660 78.590576,87.761719 77.830429,87.201233 77.269958C86.640762 76.709473,85.880615 76.394531,85.087921 76.394531C84.295227 76.394531,83.535080 76.709473,82.974609 77.269958C82.414124 77.830429,82.099182 78.590576,82.099182 79.383270C82.099182 80.175964,82.414124 80.936111,82.974609 81.496582C83.535080 82.057068,84.295227 82.372009,85.087921 82.372009C85.880615 82.372009,86.640762 82.057068,87.201233 81.496582C87.761719 80.936111,88.076660 80.175964,88.076660 79.383270Z" style="fill: rgb(100.000000%,100.000000%,100.000000%);stroke: none;"></path>
  <path d="M82.778946 86.923721C82.778946 86.131027,82.464005 85.370880,81.903519 84.810410C81.343048 84.249924,80.582901 83.934982,79.790207 83.934982C78.997513 83.934982,78.237366 84.249924,77.676895 84.810410C77.116409 85.370880,76.801468 86.131027,76.801468 86.923721C76.801468 87.716415,77.116409 88.476562,77.676895 89.037033C78.237366 89.597519,78.997513 89.912460,79.790207 89.912460C80.582901 89.912460,81.343048 89.597519,81.903519 89.037033C82.464005 88.476562,82.778946 87.716415,82.778946 86.923721Z" style="fill: rgb(100.000000%,100.000000%,100.000000%);stroke: none;"></path>
  <path d="M97.552811 73.917160C97.552811 73.124466,97.237869 72.364319,96.677383 71.803848C96.116913 71.243362,95.356766 70.928421,94.564072 70.928421C93.771378 70.928421,93.011230 71.243362,92.450760 71.803848C91.890274 72.364319,91.575333 73.124466,91.575333 73.917160C91.575333 74.709854,91.890274 75.470001,92.450760 76.030472C93.011230 76.590958,93.771378 76.905899,94.564072 76.905899C95.356766 76.905899,96.116913 76.590958,96.677383 76.030472C97.237869 75.470001,97.552811 74.709854,97.552811 73.917160Z" style="fill: rgb(100.000000%,100.000000%,100.000000%);stroke: none;"></path>
  <path d="M92.013107 77.534790C92.013107 76.742096,91.698166 75.981949,91.137680 75.421478C90.577209 74.860992,89.817062 74.546051,89.024368 74.546051C88.231674 74.546051,87.471527 74.860992,86.911057 75.421478C86.350571 75.981949,86.035629 76.742096,86.035629 77.534790C86.035629 78.327484,86.350571 79.087631,86.911057 79.648102C87.471527 80.208588,88.231674 80.523529,89.024368 80.523529C89.817062 80.523529,90.577209 80.208588,91.137680 79.648102C91.698166 79.087631,92.013107 78.327484,92.013107 77.534790Z" style="fill: rgb(100.000000%,100.000000%,100.000000%);stroke: none;"></path>
  <path d="M104.483475 74.723679C104.483475 73.930984,104.168533 73.170837,103.608047 72.610367C103.047577 72.049881,102.287430 71.734940,101.494736 71.734940C100.702042 71.734940,99.941895 72.049881,99.381424 72.610367C98.820938 73.170837,98.505997 73.930984,98.505997 74.723679C98.505997 75.516373,98.820938 76.276520,99.381424 76.836990C99.941895 77.397476,100.702042 77.712418,101.494736 77.712418C102.287430 77.712418,103.047577 77.397476,103.608047 76.836990C104.168533 76.276520,104.483475 75.516373,104.483475 74.723679Z" style="fill: rgb(100.000000%,100.000000%,100.000000%);stroke: none;"></path>
  <path d="M99.830872 72.479050C99.830872 71.686356,99.515930 70.926208,98.955444 70.365738C98.394974 69.805252,97.634827 69.490311,96.842133 69.490311C96.049438 69.490311,95.289291 69.805252,94.728821 70.365738C94.168335 70.926208,93.853394 71.686356,93.853394 72.479050C93.853394 73.271744,94.168335 74.031891,94.728821 74.592361C95.289291 75.152847,96.049438 75.467789,96.842133 75.467789C97.634827 75.467789,98.394974 75.152847,98.955444 74.592361C99.515930 74.031891,99.830872 73.271744,99.830872 72.479050Z" style="fill: rgb(100.000000%,100.000000%,100.000000%);stroke: none;"></path>
  <path d="M104.424316 84.665710C104.424316 83.873016,104.109375 83.112869,103.548889 82.552399C102.988419 81.991913,102.228271 81.676971,101.435577 81.676971C100.642883 81.676971,99.882736 81.991913,99.322266 82.552399C98.761780 83.112869,98.446838 83.873016,98.446838 84.665710C98.446838 85.458405,98.761780 86.218552,99.322266 86.779022C99.882736 87.339508,100.642883 87.654449,101.435577 87.654449C102.228271 87.654449,102.988419 87.339508,103.548889 86.779022C104.109375 86.218552,104.424316 85.458405,104.424316 84.665710Z" style="fill: rgb(100.000000%,100.000000%,100.000000%);stroke: none;"></path>
  <path d="M104.396896 77.996170C104.396896 77.203476,104.081955 76.443329,103.521469 75.882858C102.960999 75.322372,102.200851 75.007431,101.408157 75.007431C100.615463 75.007431,99.855316 75.322372,99.294846 75.882858C98.734360 76.443329,98.419418 77.203476,98.419418 77.996170C98.419418 78.788864,98.734360 79.549011,99.294846 80.109482C99.855316 80.669968,100.615463 80.984909,101.408157 80.984909C102.200851 80.984909,102.960999 80.669968,103.521469 80.109482C104.081955 79.549011,104.396896 78.788864,104.396896 77.996170Z" style="fill: rgb(100.000000%,100.000000%,100.000000%);stroke: none;"></path>
  <path d="M108.426514 95.886749C108.426514 95.094055,108.111572 94.333908,107.551086 93.773438C106.990616 93.212952,106.230469 92.898010,105.437775 92.898010C104.645081 92.898010,103.884933 93.212952,103.324463 93.773438C102.763977 94.333908,102.449036 95.094055,102.449036 95.886749C102.449036 96.679443,102.763977 97.439590,103.324463 98.000061C103.884933 98.560547,104.645081 98.875488,105.437775 98.875488C106.230469 98.875488,106.990616 98.560547,107.551086 98.000061C108.111572 97.439590,108.426514 96.679443,108.426514 95.886749Z" style="fill: rgb(100.000000%,100.000000%,100.000000%);stroke: none;"></path>
  <path d="M105.372391 88.365204C105.372391 87.572510,105.057449 86.812363,104.496964 86.251892C103.936493 85.691406,103.176346 85.376465,102.383652 85.376465C101.590958 85.376465,100.830811 85.691406,100.270340 86.251892C99.709854 86.812363,99.394913 87.572510,99.394913 88.365204C99.394913 89.157898,99.709854 89.918045,100.270340 90.478516C100.830811 91.039001,101.590958 91.353943,102.383652 91.353943C103.176346 91.353943,103.936493 91.039001,104.496964 90.478516C105.057449 89.918045,105.372391 89.157898,105.372391 88.365204Z" style="fill: rgb(100.000000%,100.000000%,100.000000%);stroke: none;"></path>
  <path d="M117.231720 110.689392C117.231720 109.896698,116.916779 109.136551,116.356293 108.576080C115.795822 108.015594,115.035675 107.700653,114.242981 107.700653C113.450287 107.700653,112.690140 108.015594,112.129669 108.576080C111.569183 109.136551,111.254242 109.896698,111.254242 110.689392C111.254242 111.482086,111.569183 112.242233,112.129669 112.802704C112.690140 113.363190,113.450287 113.678131,114.242981 113.678131C115.035675 113.678131,115.795822 113.363190,116.356293 112.802704C116.916779 112.242233,117.231720 111.482086,117.231720 110.689392Z" style="fill: rgb(100.000000%,100.000000%,100.000000%);stroke: none;"></path>
  <path d="M110.663177 99.616760C110.663177 98.824066,110.348236 98.063919,109.787750 97.503448C109.227280 96.942963,108.467133 96.628021,107.674438 96.628021C106.881744 96.628021,106.121597 96.942963,105.561127 97.503448C105.000641 98.063919,104.685699 98.824066,104.685699 99.616760C104.685699 100.409454,105.000641 101.169601,105.561127 101.730072C106.121597 102.290558,106.881744 102.605499,107.674438 102.605499C108.467133 102.605499,109.227280 102.290558,109.787750 101.730072C110.348236 101.169601,110.663177 100.409454,110.663177 99.616760Z" style="fill: rgb(100.000000%,100.000000%,100.000000%);stroke: none;"></path>
  <path d="M132.948868 138.382370C132.948868 137.589676,132.633926 136.829529,132.073441 136.269058C131.512970 135.708572,130.752823 135.393631,129.960129 135.393631C129.167435 135.393631,128.407288 135.708572,127.846817 136.269058C127.286331 136.829529,126.971390 137.589676,126.971390 138.382370C126.971390 139.175064,127.286331 139.935211,127.846817 140.495682C128.407288 141.056168,129.167435 141.371109,129.960129 141.371109C130.752823 141.371109,131.512970 141.056168,132.073441 140.495682C132.633926 139.935211,132.948868 139.175064,132.948868 138.382370Z" style="fill: rgb(100.000000%,100.000000%,100.000000%);stroke: none;"></path>
  <path d="M121.515976 118.076233C121.515976 117.283539,121.201035 116.523392,120.640549 115.962921C120.080078 115.402435,119.319931 115.087494,118.527237 115.087494C117.734543 115.087494,116.974396 115.402435,116.413925 115.962921C115.853439 116.523392,115.538498 117.283539,115.538498 118.076233C115.538498 118.868927,115.853439 119.629074,116.413925 120.189545C116.974396 120.750031,117.734543 121.064972,118.527237 121.064972C119.319931 121.064972,120.080078 120.750031,120.640549 120.189545C121.201035 119.629074,121.515976 118.868927,121.515976 118.076233Z" style="fill: rgb(100.000000%,100.000000%,100.000000%);stroke: none;"></path>
  <path d="M173.694717 155.588867C173.694717 154.796173,173.379776 154.036026,172.819290 153.475555C172.258820 152.915070,171.498672 152.600128,170.705978 152.600128C169.913284 152.600128,169.153137 152.915070,168.592667 153.475555C168.032181 154.036026,167.717239 154.796173,167.717239 155.588867C167.717239 156.381561,168.032181 157.141708,168.592667 157.702179C169.153137 158.262665,169.913284 158.577606,170.705978 158.577606C171.498672 158.577606,172.258820 158.262665,172.819290 157.702179C173.379776 157.141708,173.694717 156.381561,173.694717 155.588867Z" style="fill: rgb(100.000000%,100.000000%,100.000000%);stroke: none;"></path>
  <path d="M141.483765 152.037094C141.483765 151.244400,141.168823 150.484253,140.608337 149.923782C140.047867 149.363297,139.287720 149.048355,138.495026 149.048355C137.702332 149.048355,136.942184 149.363297,136.381714 149.923782C135.821228 150.484253,135.506287 151.244400,135.506287 152.037094C135.506287 152.829788,135.821228 153.589935,136.381714 154.150406C136.942184 154.710892,137.702332 155.025833,138.495026 155.025833C139.287720 155.025833,140.047867 154.710892,140.608337 154.150406C141.168823 153.589935,141.483765 152.829788,141.483765 152.037094Z" style="fill: rgb(100.000000%,100.000000%,100.000000%);stroke: none;"></path>
  <path d="M196.029266 100.744766C196.029266 99.952072,195.714325 99.191925,195.153839 98.631454C194.593369 98.070969,193.833221 97.756027,193.040527 97.756027C192.247833 97.756027,191.487686 98.070969,190.927216 98.631454C190.366730 99.191925,190.051788 99.952072,190.051788 100.744766C190.051788 101.537460,190.366730 102.297607,190.927216 102.858078C191.487686 103.418564,192.247833 103.733505,193.040527 103.733505C193.833221 103.733505,194.593369 103.418564,195.153839 102.858078C195.714325 102.297607,196.029266 101.537460,196.029266 100.744766Z" style="fill: rgb(100.000000%,100.000000%,100.000000%);stroke: none;"></path>
  <path d="M186.882248 139.276825C186.882248 138.484131,186.567307 137.723984,186.006821 137.163513C185.446350 136.603027,184.686203 136.288086,183.893509 136.288086C183.100815 136.288086,182.340668 136.603027,181.780197 137.163513C181.219711 137.723984,180.904770 138.484131,180.904770 139.276825C180.904770 140.069519,181.219711 140.829666,181.780197 141.390137C182.340668 141.950623,183.100815 142.265564,183.893509 142.265564C184.686203 142.265564,185.446350 141.950623,186.006821 141.390137C186.567307 140.829666,186.882248 140.069519,186.882248 139.276825Z" style="fill: rgb(100.000000%,100.000000%,100.000000%);stroke: none;"></path>
  <path d="M162.646408 68.640945C162.646408 67.848251,162.331467 67.088104,161.770981 66.527634C161.210510 65.967148,160.450363 65.652206,159.657669 65.652206C158.864975 65.652206,158.104828 65.967148,157.544357 66.527634C156.983871 67.088104,156.668930 67.848251,156.668930 68.640945C156.668930 69.433640,156.983871 70.193787,157.544357 70.754257C158.104828 71.314743,158.864975 71.629684,159.657669 71.629684C160.450363 71.629684,161.210510 71.314743,161.770981 70.754257C162.331467 70.193787,162.646408 69.433640,162.646408 68.640945Z" style="fill: rgb(100.000000%,100.000000%,100.000000%);stroke: none;"></path>
  <path d="M190.860153 78.861038C190.860153 78.068344,190.545212 77.308197,189.984726 76.747726C189.424255 76.187241,188.664108 75.872299,187.871414 75.872299C187.078720 75.872299,186.318573 76.187241,185.758102 76.747726C185.197617 77.308197,184.882675 78.068344,184.882675 78.861038C184.882675 79.653732,185.197617 80.413879,185.758102 80.974350C186.318573 81.534836,187.078720 81.849777,187.871414 81.849777C188.664108 81.849777,189.424255 81.534836,189.984726 80.974350C190.545212 80.413879,190.860153 79.653732,190.860153 78.861038Z" style="fill: rgb(100.000000%,100.000000%,100.000000%);stroke: none;"></path>
  <path d="M134.860413 74.056824C134.860413 73.264130,134.545471 72.503983,133.984985 71.943512C133.424515 71.383026,132.664368 71.068085,131.871674 71.068085C131.078979 71.068085,130.318832 71.383026,129.758362 71.943512C129.197876 72.503983,128.882935 73.264130,128.882935 74.056824C128.882935 74.849518,129.197876 75.609665,129.758362 76.170135C130.318832 76.730621,131.078979 77.045563,131.871674 77.045563C132.664368 77.045563,133.424515 76.730621,133.984985 76.170135C134.545471 75.609665,134.860413 74.849518,134.860413 74.056824Z" style="fill: rgb(100.000000%,100.000000%,100.000000%);stroke: none;"></path>
  <path d="M151.725845 72.282242C151.725845 71.489548,151.410904 70.729401,150.850418 70.168930C150.289948 69.608444,149.529800 69.293503,148.737106 69.293503C147.944412 69.293503,147.184265 69.608444,146.623795 70.168930C146.063309 70.729401,145.748367 71.489548,145.748367 72.282242C145.748367 73.074936,146.063309 73.835083,146.623795 74.395554C147.184265 74.956039,147.944412 75.270981,148.737106 75.270981C149.529800 75.270981,150.289948 74.956039,150.850418 74.395554C151.410904 73.835083,151.725845 73.074936,151.725845 72.282242Z" style="fill: rgb(100.000000%,100.000000%,100.000000%);stroke: none;"></path>
  <path d="M118.995483 74.515564C118.995483 73.722870,118.680542 72.962723,118.120056 72.402252C117.559586 71.841766,116.799438 71.526825,116.006744 71.526825C115.214050 71.526825,114.453903 71.841766,113.893433 72.402252C113.332947 72.962723,113.018005 73.722870,113.018005 74.515564C113.018005 75.308258,113.332947 76.068405,113.893433 76.628876C114.453903 77.189362,115.214050 77.504303,116.006744 77.504303C116.799438 77.504303,117.559586 77.189362,118.120056 76.628876C118.680542 76.068405,118.995483 75.308258,118.995483 74.515564Z" style="fill: rgb(100.000000%,100.000000%,100.000000%);stroke: none;"></path>
  <path d="M128.680771 73.852615C128.680771 73.059921,128.365829 72.299774,127.805344 71.739304C127.244873 71.178818,126.484726 70.863876,125.692032 70.863876C124.899338 70.863876,124.139191 71.178818,123.578720 71.739304C123.018234 72.299774,122.703293 73.059921,122.703293 73.852615C122.703293 74.645309,123.018234 75.405457,123.578720 75.965927C124.139191 76.526413,124.899338 76.841354,125.692032 76.841354C126.484726 76.841354,127.244873 76.526413,127.805344 75.965927C128.365829 75.405457,128.680771 74.645309,128.680771 73.852615Z" style="fill: rgb(100.000000%,100.000000%,100.000000%);stroke: none;"></path>
  <path d="M109.320404 77.347458C109.320404 76.554764,109.005463 75.794617,108.444977 75.234146C107.884506 74.673660,107.124359 74.358719,106.331665 74.358719C105.538971 74.358719,104.778824 74.673660,104.218353 75.234146C103.657867 75.794617,103.342926 76.554764,103.342926 77.347458C103.342926 78.140152,103.657867 78.900299,104.218353 79.460770C104.778824 80.021255,105.538971 80.336197,106.331665 80.336197C107.124359 80.336197,107.884506 80.021255,108.444977 79.460770C109.005463 78.900299,109.320404 78.140152,109.320404 77.347458Z" style="fill: rgb(100.000000%,100.000000%,100.000000%);stroke: none;"></path>
  <path d="M115.447388 74.970734C115.447388 74.178040,115.132446 73.417892,114.571960 72.857422C114.011490 72.296936,113.251343 71.981995,112.458649 71.981995C111.665955 71.981995,110.905807 72.296936,110.345337 72.857422C109.784851 73.417892,109.469910 74.178040,109.469910 74.970734C109.469910 75.763428,109.784851 76.523575,110.345337 77.084045C110.905807 77.644531,111.665955 77.959473,112.458649 77.959473C113.251343 77.959473,114.011490 77.644531,114.571960 77.084045C115.132446 76.523575,115.447388 75.763428,115.447388 74.970734Z" style="fill: rgb(100.000000%,100.000000%,100.000000%);stroke: none;"></path>
  <path d="M102.626022 82.299698C102.626022 81.507004,102.311081 80.746857,101.750595 80.186386C101.190125 79.625900,100.429977 79.310959,99.637283 79.310959C98.844589 79.310959,98.084442 79.625900,97.523972 80.186386C96.963486 80.746857,96.648544 81.507004,96.648544 82.299698C96.648544 83.092392,96.963486 83.852539,97.523972 84.413010C98.084442 84.973495,98.844589 85.288437,99.637283 85.288437C100.429977 85.288437,101.190125 84.973495,101.750595 84.413010C102.311081 83.852539,102.626022 83.092392,102.626022 82.299698Z" style="fill: rgb(100.000000%,100.000000%,100.000000%);stroke: none;"></path>
  <path d="M106.772446 79.004578C106.772446 78.211884,106.457504 77.451736,105.897018 76.891266C105.336548 76.330780,104.576401 76.015839,103.783707 76.015839C102.991013 76.015839,102.230865 76.330780,101.670395 76.891266C101.109909 77.451736,100.794968 78.211884,100.794968 79.004578C100.794968 79.797272,101.109909 80.557419,101.670395 81.117889C102.230865 81.678375,102.991013 81.993317,103.783707 81.993317C104.576401 81.993317,105.336548 81.678375,105.897018 81.117889C106.457504 80.557419,106.772446 79.797272,106.772446 79.004578Z" style="fill: rgb(100.000000%,100.000000%,100.000000%);stroke: none;"></path>
  <path d="M95.600296 82.179367C95.600296 81.386673,95.285355 80.626526,94.724869 80.066055C94.164398 79.505569,93.404251 79.190628,92.611557 79.190628C91.818863 79.190628,91.058716 79.505569,90.498245 80.066055C89.937759 80.626526,89.622818 81.386673,89.622818 82.179367C89.622818 82.972061,89.937759 83.732208,90.498245 84.292679C91.058716 84.853165,91.818863 85.168106,92.611557 85.168106C93.404251 85.168106,94.164398 84.853165,94.724869 84.292679C95.285355 83.732208,95.600296 82.972061,95.600296 82.179367Z" style="fill: rgb(100.000000%,100.000000%,100.000000%);stroke: none;"></path>
  <path d="M100.633469 83.828751C100.633469 83.036057,100.318527 82.275909,99.758041 81.715439C99.197571 81.154953,98.437424 80.840012,97.644730 80.840012C96.852036 80.840012,96.091888 81.154953,95.531418 81.715439C94.970932 82.275909,94.655991 83.036057,94.655991 83.828751C94.655991 84.621445,94.970932 85.381592,95.531418 85.942062C96.091888 86.502548,96.852036 86.817490,97.644730 86.817490C98.437424 86.817490,99.197571 86.502548,99.758041 85.942062C100.318527 85.381592,100.633469 84.621445,100.633469 83.828751Z" style="fill: rgb(100.000000%,100.000000%,100.000000%);stroke: none;"></path>
  <path d="M95.619522 67.980927C95.619522 67.188232,95.304581 66.428085,94.744095 65.867615C94.183624 65.307129,93.423477 64.992188,92.630783 64.992188C91.838089 64.992188,91.077942 65.307129,90.517471 65.867615C89.956985 66.428085,89.642044 67.188232,89.642044 67.980927C89.642044 68.773621,89.956985 69.533768,90.517471 70.094238C91.077942 70.654724,91.838089 70.969666,92.630783 70.969666C93.423477 70.969666,94.183624 70.654724,94.744095 70.094238C95.304581 69.533768,95.619522 68.773621,95.619522 67.980927Z" style="fill: rgb(100.000000%,100.000000%,100.000000%);stroke: none;"></path>
  <path d="M95.474579 78.502487C95.474579 77.709793,95.159637 76.949646,94.599152 76.389175C94.038681 75.828690,93.278534 75.513748,92.485840 75.513748C91.693146 75.513748,90.932999 75.828690,90.372528 76.389175C89.812042 76.949646,89.497101 77.709793,89.497101 78.502487C89.497101 79.295181,89.812042 80.055328,90.372528 80.615799C90.932999 81.176285,91.693146 81.491226,92.485840 81.491226C93.278534 81.491226,94.038681 81.176285,94.599152 80.615799C95.159637 80.055328,95.474579 79.295181,95.474579 78.502487Z" style="fill: rgb(100.000000%,100.000000%,100.000000%);stroke: none;"></path>
  <path d="M89.412125 38.984329C89.412125 38.191635,89.097183 37.431488,88.536697 36.871017C87.976227 36.310532,87.216080 35.995590,86.423386 35.995590C85.630692 35.995590,84.870544 36.310532,84.310074 36.871017C83.749588 37.431488,83.434647 38.191635,83.434647 38.984329C83.434647 39.777023,83.749588 40.537170,84.310074 41.097641C84.870544 41.658127,85.630692 41.973068,86.423386 41.973068C87.216080 41.973068,87.976227 41.658127,88.536697 41.097641C89.097183 40.537170,89.412125 39.777023,89.412125 38.984329Z" style="fill: rgb(100.000000%,100.000000%,100.000000%);stroke: none;"></path>
  <path d="M93.129700 61.010162C93.129700 60.217468,92.814758 59.457321,92.254272 58.896851C91.693802 58.336365,90.933655 58.021423,90.140961 58.021423C89.348267 58.021423,88.588120 58.336365,88.027649 58.896851C87.467163 59.457321,87.152222 60.217468,87.152222 61.010162C87.152222 61.802856,87.467163 62.563004,88.027649 63.123474C88.588120 63.683960,89.348267 63.998901,90.140961 63.998901C90.933655 63.998901,91.693802 63.683960,92.254272 63.123474C92.814758 62.563004,93.129700 61.802856,93.129700 61.010162Z" style="fill: rgb(100.000000%,100.000000%,100.000000%);stroke: none;"></path>
  <path d="M118.804321 4.783829C118.804321 3.991135,118.489380 3.230988,117.928894 2.670517C117.368423 2.110031,116.608276 1.795090,115.815582 1.795090C115.022888 1.795090,114.262741 2.110031,113.702271 2.670517C113.141785 3.230988,112.826843 3.991135,112.826843 4.783829C112.826843 5.576523,113.141785 6.336670,113.702271 6.897141C114.262741 7.457626,115.022888 7.772568,115.815582 7.772568C116.608276 7.772568,117.368423 7.457626,117.928894 6.897141C118.489380 6.336670,118.804321 5.576523,118.804321 4.783829Z" style="fill: rgb(100.000000%,100.000000%,100.000000%);stroke: none;"></path>
  <path d="M92.868378 23.149414C92.868378 22.356720,92.553436 21.596573,91.992950 21.036102C91.432480 20.475616,90.672333 20.160675,89.879639 20.160675C89.086945 20.160675,88.326797 20.475616,87.766327 21.036102C87.205841 21.596573,86.890900 22.356720,86.890900 23.149414C86.890900 23.942108,87.205841 24.702255,87.766327 25.262726C88.326797 25.823212,89.086945 26.138153,89.879639 26.138153C90.672333 26.138153,91.432480 25.823212,91.992950 25.262726C92.553436 24.702255,92.868378 23.942108,92.868378 23.149414Z" style="fill: rgb(100.000000%,100.000000%,100.000000%);stroke: none;"></path>
  <path d="M169.021866 31.297211C169.021866 30.504517,168.706924 29.744370,168.146439 29.183899C167.585968 28.623413,166.825821 28.308472,166.033127 28.308472C165.240433 28.308472,164.480286 28.623413,163.919815 29.183899C163.359329 29.744370,163.044388 30.504517,163.044388 31.297211C163.044388 32.089905,163.359329 32.850052,163.919815 33.410522C164.480286 33.971008,165.240433 34.285950,166.033127 34.285950C166.825821 34.285950,167.585968 33.971008,168.146439 33.410522C168.706924 32.850052,169.021866 32.089905,169.021866 31.297211Z" style="fill: rgb(100.000000%,100.000000%,100.000000%);stroke: none;"></path>
  <path d="M137.318588 8.607452C137.318588 7.814758,137.003647 7.054611,136.443161 6.494141C135.882690 5.933655,135.122543 5.618713,134.329849 5.618713C133.537155 5.618713,132.777008 5.933655,132.216537 6.494141C131.656052 7.054611,131.341110 7.814758,131.341110 8.607452C131.341110 9.400146,131.656052 10.160294,132.216537 10.720764C132.777008 11.281250,133.537155 11.596191,134.329849 11.596191C135.122543 11.596191,135.882690 11.281250,136.443161 10.720764C137.003647 10.160294,137.318588 9.400146,137.318588 8.607452Z" style="fill: rgb(100.000000%,100.000000%,100.000000%);stroke: none;"></path>
  <path d="M168.675842 85.055206C168.675842 84.262512,168.360901 83.502365,167.800415 82.941895C167.239944 82.381409,166.479797 82.066467,165.687103 82.066467C164.894409 82.066467,164.134262 82.381409,163.573792 82.941895C163.013306 83.502365,162.698364 84.262512,162.698364 85.055206C162.698364 85.847900,163.013306 86.608047,163.573792 87.168518C164.134262 87.729004,164.894409 88.043945,165.687103 88.043945C166.479797 88.043945,167.239944 87.729004,167.800415 87.168518C168.360901 86.608047,168.675842 85.847900,168.675842 85.055206Z" style="fill: rgb(100.000000%,100.000000%,100.000000%);stroke: none;"></path>
  <path d="M179.464340 52.321228C179.464340 51.528534,179.149399 50.768387,178.588913 50.207916C178.028442 49.647430,177.268295 49.332489,176.475601 49.332489C175.682907 49.332489,174.922760 49.647430,174.362289 50.207916C173.801804 50.768387,173.486862 51.528534,173.486862 52.321228C173.486862 53.113922,173.801804 53.874069,174.362289 54.434540C174.922760 54.995026,175.682907 55.309967,176.475601 55.309967C177.268295 55.309967,178.028442 54.995026,178.588913 54.434540C179.149399 53.874069,179.464340 53.113922,179.464340 52.321228Z" style="fill: rgb(100.000000%,100.000000%,100.000000%);stroke: none;"></path>
  <path d="M150.934601 122.814163C150.934601 122.021469,150.619659 121.261322,150.059174 120.700851C149.498703 120.140366,148.738556 119.825424,147.945862 119.825424C147.153168 119.825424,146.393021 120.140366,145.832550 120.700851C145.272064 121.261322,144.957123 122.021469,144.957123 122.814163C144.957123 123.606857,145.272064 124.367004,145.832550 124.927475C146.393021 125.487961,147.153168 125.802902,147.945862 125.802902C148.738556 125.802902,149.498703 125.487961,150.059174 124.927475C150.619659 124.367004,150.934601 123.606857,150.934601 122.814163Z" style="fill: rgb(100.000000%,100.000000%,100.000000%);stroke: none;"></path>
  <path d="M157.604202 94.574066C157.604202 93.781372,157.289261 93.021225,156.728775 92.460754C156.168304 91.900269,155.408157 91.585327,154.615463 91.585327C153.822769 91.585327,153.062622 91.900269,152.502151 92.460754C151.941666 93.021225,151.626724 93.781372,151.626724 94.574066C151.626724 95.366760,151.941666 96.126907,152.502151 96.687378C153.062622 97.247864,153.822769 97.562805,154.615463 97.562805C155.408157 97.562805,156.168304 97.247864,156.728775 96.687378C157.289261 96.126907,157.604202 95.366760,157.604202 94.574066Z" style="fill: rgb(100.000000%,100.000000%,100.000000%);stroke: none;"></path>
  <path d="M151.508575 175.495743C151.508575 174.703049,151.193634 173.942902,150.633148 173.382431C150.072678 172.821945,149.312531 172.507004,148.519836 172.507004C147.727142 172.507004,146.966995 172.821945,146.406525 173.382431C145.846039 173.942902,145.531097 174.703049,145.531097 175.495743C145.531097 176.288437,145.846039 177.048584,146.406525 177.609055C146.966995 178.169540,147.727142 178.484482,148.519836 178.484482C149.312531 178.484482,150.072678 178.169540,150.633148 177.609055C151.193634 177.048584,151.508575 176.288437,151.508575 175.495743Z" style="fill: rgb(100.000000%,100.000000%,100.000000%);stroke: none;"></path>
  <path d="M159.061005 138.382263C159.061005 137.589569,158.746063 136.829422,158.185577 136.268951C157.625107 135.708466,156.864960 135.393524,156.072266 135.393524C155.279572 135.393524,154.519424 135.708466,153.958954 136.268951C153.398468 136.829422,153.083527 137.589569,153.083527 138.382263C153.083527 139.174957,153.398468 139.935104,153.958954 140.495575C154.519424 141.056061,155.279572 141.371002,156.072266 141.371002C156.864960 141.371002,157.625107 141.056061,158.185577 140.495575C158.746063 139.935104,159.061005 139.174957,159.061005 138.382263Z" style="fill: rgb(100.000000%,100.000000%,100.000000%);stroke: none;"></path>
  <path d="M104.274277 193.102753C81.502899 200.001160,57.499359 186.888474,51.000000 164.000000C46.841522 149.355240,51.542923 134.078888,51.662903 118.938385C51.725479 111.041931,50.524155 103.165237,51.000000 95.279724C51.411179 88.465851,52.943207 81.302963,49.518982 75.357193C44.362595 66.403748,32.242981 65.071838,22.736496 70.470001C4.037735 81.087921,2.903412 106.101578,9.782700 127.922531C16.329102 148.687576,31.182907 167.352417,51.000000 164.000000C65.356766 161.571289,73.884720 147.867737,77.917984 133.483185C80.016769 125.997894,81.184357 118.237335,84.130371 111.036163C85.556595 107.549927,87.226273 103.720306,85.199341 100.613220C83.686752 98.294556,80.774109 97.671249,78.110855 96.921341C73.879028 95.729736,69.824814 93.829895,65.443985 93.378296C60.569870 92.875839,55.767899 94.196457,51.000000 95.279724C46.796555 96.234741,42.450684 97.003403,38.268173 95.929474C27.745102 93.227509,22.913315 81.823868,22.736496 70.470001C22.409531 49.475647,34.160400 30.551376,51.267792 18.217087C67.074844 6.820343,87.904938 2.420547,101.987885 14.575409C112.461166 23.614807,113.888016 38.377350,115.844482 52.069336C116.905975 59.497986,118.303848 66.873016,119.546524 74.273270C120.515442 80.043289,121.358536 86.035965,119.199036 91.485825C117.322342 96.221985,113.460419 99.735291,109.886322 103.345337C106.191513 107.077301,102.496750 111.151260,97.368500 112.350800C92.976227 113.378174,88.516541 112.020706,84.130371 111.036163C81.205994 110.379745,78.030624 109.672073,76.609711 107.055161C74.886551 103.881561,76.891098 100.325073,78.110855 96.921341C79.790771 92.233551,79.790207 86.923721,82.670670 82.823853C85.087921 79.383270,89.024368 77.534790,92.530716 75.245010C94.564072 73.917160,96.842133 72.479050,98.981415 73.511139C101.494736 74.723679,101.408157 77.996170,101.420029 80.882965C101.435577 84.665710,102.383652 88.365204,103.806030 91.868179C105.437775 95.886749,107.674438 99.616760,109.886322 103.345337C114.242981 110.689392,118.527237 118.076233,122.716583 125.516998C129.960129 138.382370,138.495026 152.037094,152.968796 153.633057C170.705978 155.588867,183.893509 139.276825,188.310043 120.672058C193.040527 100.744766,187.871414 78.861038,169.876892 72.342743C159.657669 68.640945,148.737106 72.282242,137.998810 73.412125C131.871674 74.056824,125.692032 73.852615,119.546524 74.273270C116.006744 74.515564,112.458649 74.970734,109.147919 76.255005C106.331665 77.347458,103.783707 79.004578,101.420029 80.882965C99.637283 82.299698,97.644730 83.828751,95.518860 83.132095C92.611557 82.179367,92.485840 78.502487,92.530716 75.245010C92.630783 67.980927,90.140961 61.010162,88.934265 53.860779C86.423386 38.984329,89.879639 23.149414,101.987885 14.575409C115.815582 4.783829,134.329849 8.607452,148.497452 18.747086C166.033127 31.297211,176.475601 52.321228,169.876892 72.342743C165.687103 85.055206,154.615463 94.574066,151.529022 107.642548C147.945862 122.814163,156.072266 138.382263,152.968796 153.633057C148.519836 175.495743,126.175522 186.467941,104.274277 193.102753" style="stroke:rgb(0.000000%,0.000000%,0.000000%); stroke-width: 0.498138;stroke-linecap: round;stroke-linejoin: round;stroke-miterlimit: 10.000000;fill: none;"></path>
  <path d="M104.274277 193.102753C81.502899 200.001160,57.499359 186.888474,51.000000 164.000000" style="stroke:rgb(0.000000%,0.000000%,0.000000%); stroke-width: 1.494400;stroke-linecap: round;stroke-linejoin: round;stroke-miterlimit: 10.000000;fill: none;"></path>
  <path d="M152.968796 153.633057C148.519836 175.495743,126.175522 186.467941,104.274277 193.102753" style="stroke:rgb(0.000000%,0.000000%,0.000000%); stroke-width: 1.494400;stroke-linecap: round;stroke-linejoin: round;stroke-miterlimit: 10.000000;fill: none;"></path>
  <path d="M53.988739 164.000000C53.988739 163.207306,53.673798 162.447159,53.113312 161.886688C52.552841 161.326202,51.792694 161.011261,51.000000 161.011261C50.207306 161.011261,49.447159 161.326202,48.886688 161.886688C48.326202 162.447159,48.011261 163.207306,48.011261 164.000000C48.011261 164.792694,48.326202 165.552841,48.886688 166.113312C49.447159 166.673798,50.207306 166.988739,51.000000 166.988739C51.792694 166.988739,52.552841 166.673798,53.113312 166.113312C53.673798 165.552841,53.988739 164.792694,53.988739 164.000000Z" style="fill: rgb(100.000000%,100.000000%,100.000000%);stroke: none;"></path>
  <path d="M25.414856 155.005325C32.423737 161.848114,41.091461 165.676208,51.000000 164.000000C58.178391 162.785645,63.899567 158.752579,68.330307 153.225021" style="stroke:rgb(0.000000%,0.000000%,0.000000%); stroke-width: 0.498138;stroke-linecap: round;stroke-linejoin: round;stroke-miterlimit: 10.000000;fill: none;"></path>
  <path d="M25.725235 70.470001C25.725235 69.677307,25.410294 68.917160,24.849808 68.356689C24.289337 67.796204,23.529190 67.481262,22.736496 67.481262C21.943802 67.481262,21.183655 67.796204,20.623184 68.356689C20.062698 68.917160,19.747757 69.677307,19.747757 70.470001C19.747757 71.262695,20.062698 72.022842,20.623184 72.583313C21.183655 73.143799,21.943802 73.458740,22.736496 73.458740C23.529190 73.458740,24.289337 73.143799,24.849808 72.583313C25.410294 72.022842,25.725235 71.262695,25.725235 70.470001Z" style="fill: rgb(100.000000%,100.000000%,100.000000%);stroke: none;"></path>
  <path d="M26.622482 86.444183C24.077057 81.836304,22.824905 76.146927,22.736496 70.470001C22.573013 59.972824,25.429001 49.993164,30.464279 41.096008" style="stroke:rgb(0.000000%,0.000000%,0.000000%); stroke-width: 0.498138;stroke-linecap: round;stroke-linejoin: round;stroke-miterlimit: 10.000000;fill: none;"></path>
  <path d="M87.119110 111.036163C87.119110 110.243469,86.804169 109.483322,86.243683 108.922852C85.683212 108.362366,84.923065 108.047424,84.130371 108.047424C83.337677 108.047424,82.577530 108.362366,82.017059 108.922852C81.456573 109.483322,81.141632 110.243469,81.141632 111.036163C81.141632 111.828857,81.456573 112.589005,82.017059 113.149475C82.577530 113.709961,83.337677 114.024902,84.130371 114.024902C84.923065 114.024902,85.683212 113.709961,86.243683 113.149475C86.804169 112.589005,87.119110 111.828857,87.119110 111.036163Z" style="fill: rgb(100.000000%,100.000000%,100.000000%);stroke: none;"></path>
  <path d="M90.747131 112.447937C88.534912 112.113922,86.323456 111.528427,84.130371 111.036163C82.668182 110.707947,81.143234 110.366928,79.806229 109.780838" style="stroke:rgb(0.000000%,0.000000%,0.000000%); stroke-width: 0.498138;stroke-linecap: round;stroke-linejoin: round;stroke-miterlimit: 10.000000;fill: none;"></path>
  <path d="M53.988739 95.279724C53.988739 94.487030,53.673798 93.726883,53.113312 93.166412C52.552841 92.605927,51.792694 92.290985,51.000000 92.290985C50.207306 92.290985,49.447159 92.605927,48.886688 93.166412C48.326202 93.726883,48.011261 94.487030,48.011261 95.279724C48.011261 96.072418,48.326202 96.832565,48.886688 97.393036C49.447159 97.953522,50.207306 98.268463,51.000000 98.268463C51.792694 98.268463,52.552841 97.953522,53.113312 97.393036C53.673798 96.832565,53.988739 96.072418,53.988739 95.279724Z" style="fill: rgb(100.000000%,100.000000%,100.000000%);stroke: none;"></path>
  <path d="M51.176468 107.104935C50.943451 103.163025,50.762085 99.222473,51.000000 95.279724C51.205597 91.872787,51.691406 88.378586,51.697784 84.992905" style="stroke:rgb(0.000000%,0.000000%,0.000000%); stroke-width: 0.498138;stroke-linecap: round;stroke-linejoin: round;stroke-miterlimit: 10.000000;fill: none;"></path>
  <path d="M104.976624 14.575409C104.976624 13.782715,104.661682 13.022568,104.101196 12.462097C103.540726 11.901611,102.780579 11.586670,101.987885 11.586670C101.195190 11.586670,100.435043 11.901611,99.874573 12.462097C99.314087 13.022568,98.999146 13.782715,98.999146 14.575409C98.999146 15.368103,99.314087 16.128250,99.874573 16.688721C100.435043 17.249207,101.195190 17.564148,101.987885 17.564148C102.780579 17.564148,103.540726 17.249207,104.101196 16.688721C104.661682 16.128250,104.976624 15.368103,104.976624 14.575409Z" style="fill: rgb(100.000000%,100.000000%,100.000000%);stroke: none;"></path>
  <path d="M77.274384 7.564392C86.218155 6.559219,94.946411 8.497986,101.987885 14.575409C107.224533 19.095108,110.199570 25.045593,112.110001 31.577652" style="stroke:rgb(0.000000%,0.000000%,0.000000%); stroke-width: 0.498138;stroke-linecap: round;stroke-linejoin: round;stroke-miterlimit: 10.000000;fill: none;"></path>
  <path d="M112.875061 103.345337C112.875061 102.552643,112.560120 101.792496,111.999634 101.232025C111.439163 100.671539,110.679016 100.356598,109.886322 100.356598C109.093628 100.356598,108.333481 100.671539,107.773010 101.232025C107.212524 101.792496,106.897583 102.552643,106.897583 103.345337C106.897583 104.138031,107.212524 104.898178,107.773010 105.458649C108.333481 106.019135,109.093628 106.334076,109.886322 106.334076C110.679016 106.334076,111.439163 106.019135,111.999634 105.458649C112.560120 104.898178,112.875061 104.138031,112.875061 103.345337Z" style="fill: rgb(100.000000%,100.000000%,100.000000%);stroke: none;"></path>
  <path d="M115.179184 97.837875C113.532364 99.759476,111.673370 101.540314,109.886322 103.345337C108.038910 105.211319,106.191513 107.162811,104.164932 108.797745" style="stroke:rgb(0.000000%,0.000000%,0.000000%); stroke-width: 0.498138;stroke-linecap: round;stroke-linejoin: round;stroke-miterlimit: 10.000000;fill: none;"></path>
  <path d="M81.099594 96.921341C81.099594 96.128647,80.784653 95.368500,80.224167 94.808029C79.663696 94.247543,78.903549 93.932602,78.110855 93.932602C77.318161 93.932602,76.558014 94.247543,75.997543 94.808029C75.437057 95.368500,75.122116 96.128647,75.122116 96.921341C75.122116 97.714035,75.437057 98.474182,75.997543 99.034653C76.558014 99.595139,77.318161 99.910080,78.110855 99.910080C78.903549 99.910080,79.663696 99.595139,80.224167 99.034653C80.784653 98.474182,81.099594 97.714035,81.099594 96.921341Z" style="fill: rgb(100.000000%,100.000000%,100.000000%);stroke: none;"></path>
  <path d="M82.086578 98.178986C80.836441 97.639587,79.442474 97.296295,78.110855 96.921341C75.994934 96.325531,73.923416 95.552673,71.833282 94.872314" style="stroke:rgb(0.000000%,0.000000%,0.000000%); stroke-width: 0.498138;stroke-linecap: round;stroke-linejoin: round;stroke-miterlimit: 10.000000;fill: none;"></path>
  <path d="M104.408768 80.882965C104.408768 80.090271,104.093826 79.330124,103.533340 78.769653C102.972870 78.209167,102.212723 77.894226,101.420029 77.894226C100.627335 77.894226,99.867188 78.209167,99.306717 78.769653C98.746231 79.330124,98.431290 80.090271,98.431290 80.882965C98.431290 81.675659,98.746231 82.435806,99.306717 82.996277C99.867188 83.556763,100.627335 83.871704,101.420029 83.871704C102.212723 83.871704,102.972870 83.556763,103.533340 82.996277C104.093826 82.435806,104.408768 81.675659,104.408768 80.882965Z" style="fill: rgb(100.000000%,100.000000%,100.000000%);stroke: none;"></path>
  <path d="M101.138779 76.569214C101.432770 77.899750,101.414093 79.439575,101.420029 80.882965C101.427811 82.774338,101.668716 84.644897,102.085480 86.480499" style="stroke:rgb(0.000000%,0.000000%,0.000000%); stroke-width: 0.498138;stroke-linecap: round;stroke-linejoin: round;stroke-miterlimit: 10.000000;fill: none;"></path>
  <path d="M155.957535 153.633057C155.957535 152.840363,155.642593 152.080215,155.082108 151.519745C154.521637 150.959259,153.761490 150.644318,152.968796 150.644318C152.176102 150.644318,151.415955 150.959259,150.855484 151.519745C150.294998 152.080215,149.980057 152.840363,149.980057 153.633057C149.980057 154.425751,150.294998 155.185898,150.855484 155.746368C151.415955 156.306854,152.176102 156.621796,152.968796 156.621796C153.761490 156.621796,154.521637 156.306854,155.082108 155.746368C155.642593 155.185898,155.957535 154.425751,155.957535 153.633057Z" style="fill: rgb(100.000000%,100.000000%,100.000000%);stroke: none;"></path>
  <path d="M135.131363 143.801071C139.979752 149.022415,145.731918 152.835083,152.968796 153.633057C161.837387 154.610962,169.568573 151.021896,175.634674 144.862762" style="stroke:rgb(0.000000%,0.000000%,0.000000%); stroke-width: 0.498138;stroke-linecap: round;stroke-linejoin: round;stroke-miterlimit: 10.000000;fill: none;"></path>
  <path d="M122.535263 74.273270C122.535263 73.480576,122.220322 72.720428,121.659836 72.159958C121.099365 71.599472,120.339218 71.284531,119.546524 71.284531C118.753830 71.284531,117.993683 71.599472,117.433212 72.159958C116.872726 72.720428,116.557785 73.480576,116.557785 74.273270C116.557785 75.065964,116.872726 75.826111,117.433212 76.386581C117.993683 76.947067,118.753830 77.262009,119.546524 77.262009C120.339218 77.262009,121.099365 76.947067,121.659836 76.386581C122.220322 75.826111,122.535263 75.065964,122.535263 74.273270Z" style="fill: rgb(100.000000%,100.000000%,100.000000%);stroke: none;"></path>
  <path d="M128.779541 73.926727C125.700562 74.008835,122.619278 74.062943,119.546524 74.273270C117.776627 74.394424,116.004654 74.568787,114.261322 74.873398" style="stroke:rgb(0.000000%,0.000000%,0.000000%); stroke-width: 0.498138;stroke-linecap: round;stroke-linejoin: round;stroke-miterlimit: 10.000000;fill: none;"></path>
  <path d="M95.519455 75.245010C95.519455 74.452316,95.204514 73.692169,94.644028 73.131699C94.083557 72.571213,93.323410 72.256271,92.530716 72.256271C91.738022 72.256271,90.977875 72.571213,90.417404 73.131699C89.856918 73.692169,89.541977 74.452316,89.541977 75.245010C89.541977 76.037704,89.856918 76.797852,90.417404 77.358322C90.977875 77.918808,91.738022 78.233749,92.530716 78.233749C93.323410 78.233749,94.083557 77.918808,94.644028 77.358322C95.204514 76.797852,95.519455 76.037704,95.519455 75.245010Z" style="fill: rgb(100.000000%,100.000000%,100.000000%);stroke: none;"></path>
  <path d="M92.917709 80.052826C92.528488 78.607330,92.508286 76.873749,92.530716 75.245010C92.580750 71.612961,91.983307 68.054245,91.222519 64.509872" style="stroke:rgb(0.000000%,0.000000%,0.000000%); stroke-width: 0.498138;stroke-linecap: round;stroke-linejoin: round;stroke-miterlimit: 10.000000;fill: none;"></path>
  <path d="M172.865631 72.342743C172.865631 71.550049,172.550690 70.789902,171.990204 70.229431C171.429733 69.668945,170.669586 69.354004,169.876892 69.354004C169.084198 69.354004,168.324051 69.668945,167.763580 70.229431C167.203094 70.789902,166.888153 71.550049,166.888153 72.342743C166.888153 73.135437,167.203094 73.895584,167.763580 74.456055C168.324051 75.016541,169.084198 75.331482,169.876892 75.331482C170.669586 75.331482,171.429733 75.016541,171.990204 74.456055C172.550690 73.895584,172.865631 73.135437,172.865631 72.342743Z" style="fill: rgb(100.000000%,100.000000%,100.000000%);stroke: none;"></path>
  <path d="M168.237564 42.743149C172.215302 52.070602,173.176239 62.331985,169.876892 72.342743C167.781998 78.698975,163.966629 84.256805,160.289185 89.859146" style="stroke:rgb(0.000000%,0.000000%,0.000000%); stroke-width: 0.498138;stroke-linecap: round;stroke-linejoin: round;stroke-miterlimit: 10.000000;fill: none;"></path>
  <path d="M49.518982 75.357193C45.393860 68.194412,36.812241 65.909439,28.677261 68.045868" style="stroke:rgb(0.000000%,0.000000%,0.000000%); stroke-width: 0.498138;stroke-linecap: round;stroke-linejoin: round;stroke-miterlimit: 10.000000;fill: none;"></path>
  <path d="M31.175781 66.385391C30.317581 66.879684,29.482224 67.434525,28.677261 68.045868C29.678757 68.182785,30.661758 68.381180,31.618103 68.638504Z" style="stroke:rgb(0.000000%,0.000000%,0.000000%); stroke-width: 0.498138;fill: rgb(0.000000%,0.000000%,0.000000%);"></path>
  <path d="M77.917984 133.483185C79.597015 127.494934,80.680069 121.330505,82.554520 115.417252" style="stroke:rgb(0.000000%,0.000000%,0.000000%); stroke-width: 0.498138;stroke-linecap: round;stroke-linejoin: round;stroke-miterlimit: 10.000000;fill: none;"></path>
  <path d="M82.869797 118.400757C82.747253 117.407730,82.640137 116.413406,82.554520 115.417252C81.910645 116.182175,81.283295 116.960983,80.667740 117.749817Z" style="stroke:rgb(0.000000%,0.000000%,0.000000%); stroke-width: 0.498138;fill: rgb(0.000000%,0.000000%,0.000000%);"></path>
  <path d="M85.199341 100.613220C83.989258 98.758286,81.883148 97.988388,79.725510 97.370667" style="stroke:rgb(0.000000%,0.000000%,0.000000%); stroke-width: 0.498138;stroke-linecap: round;stroke-linejoin: round;stroke-miterlimit: 10.000000;fill: none;"></path>
  <path d="M82.722305 97.232910C81.747406 97.172562,80.735382 97.255173,79.725510 97.370667C80.521240 98.003098,81.295258 98.660324,81.941940 99.392365Z" style="stroke:rgb(0.000000%,0.000000%,0.000000%); stroke-width: 0.498138;fill: rgb(0.000000%,0.000000%,0.000000%);"></path>
  <path d="M115.844482 52.069336C116.693680 58.012283,117.758163 63.920898,118.786224 69.835587" style="stroke:rgb(0.000000%,0.000000%,0.000000%); stroke-width: 0.498138;stroke-linecap: round;stroke-linejoin: round;stroke-miterlimit: 10.000000;fill: none;"></path>
  <path d="M117.178802 67.302414L118.786224 69.835587L119.440887 66.907761Z" style="stroke:rgb(0.000000%,0.000000%,0.000000%); stroke-width: 0.498138;fill: rgb(0.000000%,0.000000%,0.000000%);"></path>
  <path d="M97.368500 112.350800C93.854675 113.172699,90.297699 112.468292,86.769730 111.649567" style="stroke:rgb(0.000000%,0.000000%,0.000000%); stroke-width: 0.498138;stroke-linecap: round;stroke-linejoin: round;stroke-miterlimit: 10.000000;fill: none;"></path>
  <path d="M89.719528 111.102692C88.746140 111.311981,87.758575 111.485229,86.769730 111.649567C87.585144 112.232605,88.405960 112.808411,89.242233 113.348724Z" style="stroke:rgb(0.000000%,0.000000%,0.000000%); stroke-width: 0.498138;fill: rgb(0.000000%,0.000000%,0.000000%);"></path>
  <path d="M98.981415 73.511139C100.992081 74.481171,101.338791 76.769577,101.403137 79.124207" style="stroke:rgb(0.000000%,0.000000%,0.000000%); stroke-width: 0.498138;stroke-linecap: round;stroke-linejoin: round;stroke-miterlimit: 10.000000;fill: none;"></path>
  <path d="M99.921494 76.515640C100.507416 77.254852,100.978317 78.172989,101.403137 79.124207C101.775375 78.151199,102.091644 77.169006,102.200027 76.232010Z" style="stroke:rgb(0.000000%,0.000000%,0.000000%); stroke-width: 0.498138;fill: rgb(0.000000%,0.000000%,0.000000%);"></path>
  <path d="M122.716583 125.516998C128.511444 135.809341,135.132767 146.606873,144.960129 151.331268" style="stroke:rgb(0.000000%,0.000000%,0.000000%); stroke-width: 0.498138;stroke-linecap: round;stroke-linejoin: round;stroke-miterlimit: 10.000000;fill: none;"></path>
  <path d="M141.978760 150.997604C142.966995 151.162827,143.960876 151.275848,144.960129 151.331268C144.292755 150.585480,143.669907 149.802780,143.087952 148.987137Z" style="stroke:rgb(0.000000%,0.000000%,0.000000%); stroke-width: 0.498138;fill: rgb(0.000000%,0.000000%,0.000000%);"></path>
  <path d="M109.147919 76.255005C106.894913 77.128967,104.813599 78.364319,102.861008 79.785248" style="stroke:rgb(0.000000%,0.000000%,0.000000%); stroke-width: 0.498138;stroke-linecap: round;stroke-linejoin: round;stroke-miterlimit: 10.000000;fill: none;"></path>
  <path d="M104.534698 77.295486C103.939041 78.097443,103.383682 78.930832,102.861008 79.785248C103.834763 79.550674,104.816757 79.354095,105.805023 79.208237Z" style="stroke:rgb(0.000000%,0.000000%,0.000000%); stroke-width: 0.498138;fill: rgb(0.000000%,0.000000%,0.000000%);"></path>
  <path d="M95.518860 83.132095C93.193008 82.369904,92.647385 79.864258,92.545151 77.224655" style="stroke:rgb(0.000000%,0.000000%,0.000000%); stroke-width: 0.498138;stroke-linecap: round;stroke-linejoin: round;stroke-miterlimit: 10.000000;fill: none;"></path>
  <path d="M94.063553 79.812027C93.475693 79.078140,92.982346 78.174393,92.545151 77.224655C92.182724 78.205368,91.892502 79.193253,91.789230 80.127853Z" style="stroke:rgb(0.000000%,0.000000%,0.000000%); stroke-width: 0.498138;fill: rgb(0.000000%,0.000000%,0.000000%);"></path>
  <path d="M151.529022 107.642548C148.662476 119.779892,153.290115 132.170975,153.666809 144.450348" style="stroke:rgb(0.000000%,0.000000%,0.000000%); stroke-width: 0.498138;stroke-linecap: round;stroke-linejoin: round;stroke-miterlimit: 10.000000;fill: none;"></path>
  <path d="M152.363754 141.748077C152.820389 142.640259,153.256714 143.540283,153.666809 144.450348C154.020355 143.516846,154.348251 142.571930,154.656265 141.618164Z" style="stroke:rgb(0.000000%,0.000000%,0.000000%); stroke-width: 0.498138;fill: rgb(0.000000%,0.000000%,0.000000%);"></path>
  <path d="M101.283630 195.812958L107.264923 195.812958L107.264923 188.392563L101.283630 188.392563Z" style="fill: rgb(100.000000%,100.000000%,100.000000%);stroke: none;"></path>
  <path d="M101.283630 197.812958L107.264923 197.812958L107.264923 190.392563L101.283630 190.392563Z" style="fill: rgb(100.000000%,100.000000%,100.000000%);stroke: none;"></path>
  <g transform="translate(101.783630 196.312958)" style="fill: rgb(0.000000%,0.000000%,0.000000%);">
    <use xlink:href="#GLYPHcmr10_49"></use>
  </g>
  <path d="M48.672256 121.648590L54.653549 121.648590L54.653549 114.228195L48.672256 114.228195Z" style="fill: rgb(100.000000%,100.000000%,100.000000%);stroke: none;"></path>
  <path d="M48.672256 123.648590L54.653549 123.648590L54.653549 116.228195L48.672256 116.228195Z" style="fill: rgb(100.000000%,100.000000%,100.000000%);stroke: none;"></path>
  <g transform="translate(49.172256 122.148590)" style="fill: rgb(0.000000%,0.000000%,0.000000%);">
    <use xlink:href="#GLYPHcmr10_50"></use>
  </g>
  <path d="M6.792053 130.632736L12.773346 130.632736L12.773346 123.212341L6.792053 123.212341Z" style="fill: rgb(100.000000%,100.000000%,100.000000%);stroke: none;"></path>
  <path d="M6.792053 132.632736L12.773346 132.632736L12.773346 125.212341L6.792053 125.212341Z" style="fill: rgb(100.000000%,100.000000%,100.000000%);stroke: none;"></path>
  <g transform="translate(7.292053 131.132736)" style="fill: rgb(0.000000%,0.000000%,0.000000%);">
    <use xlink:href="#GLYPHcmr10_51"></use>
  </g>
  <path d="M62.453339 96.088501L68.434631 96.088501L68.434631 88.668106L62.453339 88.668106Z" style="fill: rgb(100.000000%,100.000000%,100.000000%);stroke: none;"></path>
  <path d="M62.453339 98.088501L68.434631 98.088501L68.434631 90.668106L62.453339 90.668106Z" style="fill: rgb(100.000000%,100.000000%,100.000000%);stroke: none;"></path>
  <g transform="translate(62.953339 96.588501)" style="fill: rgb(0.000000%,0.000000%,0.000000%);">
    <use xlink:href="#GLYPHcmr10_52"></use>
  </g>
  <path d="M48.277145 20.927292L54.258438 20.927292L54.258438 13.506897L48.277145 13.506897Z" style="fill: rgb(100.000000%,100.000000%,100.000000%);stroke: none;"></path>
  <path d="M48.277145 22.927292L54.258438 22.927292L54.258438 15.506897L48.277145 15.506897Z" style="fill: rgb(100.000000%,100.000000%,100.000000%);stroke: none;"></path>
  <g transform="translate(48.777145 21.427292)" style="fill: rgb(0.000000%,0.000000%,0.000000%);">
    <use xlink:href="#GLYPHcmr10_53"></use>
  </g>
  <path d="M116.208389 94.196030L122.189682 94.196030L122.189682 86.775635L116.208389 86.775635Z" style="fill: rgb(100.000000%,100.000000%,100.000000%);stroke: none;"></path>
  <path d="M116.208389 96.196030L122.189682 96.196030L122.189682 88.775635L116.208389 88.775635Z" style="fill: rgb(100.000000%,100.000000%,100.000000%);stroke: none;"></path>
  <g transform="translate(116.708389 94.696030)" style="fill: rgb(0.000000%,0.000000%,0.000000%);">
    <use xlink:href="#GLYPHcmr10_54"></use>
  </g>
  <path d="M79.680023 85.534058L85.661316 85.534058L85.661316 78.113663L79.680023 78.113663Z" style="fill: rgb(100.000000%,100.000000%,100.000000%);stroke: none;"></path>
  <path d="M79.680023 87.534058L85.661316 87.534058L85.661316 80.113663L79.680023 80.113663Z" style="fill: rgb(100.000000%,100.000000%,100.000000%);stroke: none;"></path>
  <g transform="translate(80.180023 86.034058)" style="fill: rgb(0.000000%,0.000000%,0.000000%);">
    <use xlink:href="#GLYPHcmr10_55"></use>
  </g>
  <path d="M100.815384 94.578384L106.796677 94.578384L106.796677 87.157990L100.815384 87.157990Z" style="fill: rgb(100.000000%,100.000000%,100.000000%);stroke: none;"></path>
  <path d="M100.815384 96.578384L106.796677 96.578384L106.796677 89.157990L100.815384 89.157990Z" style="fill: rgb(100.000000%,100.000000%,100.000000%);stroke: none;"></path>
  <g transform="translate(101.315384 95.078384)" style="fill: rgb(0.000000%,0.000000%,0.000000%);">
    <use xlink:href="#GLYPHcmr10_56"></use>
  </g>
  <path d="M185.319397 123.382263L191.300690 123.382263L191.300690 115.961868L185.319397 115.961868Z" style="fill: rgb(100.000000%,100.000000%,100.000000%);stroke: none;"></path>
  <path d="M185.319397 125.382263L191.300690 125.382263L191.300690 117.961868L185.319397 117.961868Z" style="fill: rgb(100.000000%,100.000000%,100.000000%);stroke: none;"></path>
  <g transform="translate(185.819397 123.882263)" style="fill: rgb(0.000000%,0.000000%,0.000000%);">
    <use xlink:href="#GLYPHcmr10_57"></use>
  </g>
  <path d="M132.517456 76.122330L143.480164 76.122330L143.480164 68.701935L132.517456 68.701935Z" style="fill: rgb(100.000000%,100.000000%,100.000000%);stroke: none;"></path>
  <path d="M132.517456 78.122330L143.480164 78.122330L143.480164 70.701935L132.517456 70.701935Z" style="fill: rgb(100.000000%,100.000000%,100.000000%);stroke: none;"></path>
  <g transform="translate(133.017456 76.622330)" style="fill: rgb(0.000000%,0.000000%,0.000000%);">
    <use xlink:href="#GLYPHcmr10_49"></use>
    <use xlink:href="#GLYPHcmr10_48" x="5.000095"></use>
  </g>
  <path d="M83.452911 56.570984L94.415619 56.570984L94.415619 49.150589L83.452911 49.150589Z" style="fill: rgb(100.000000%,100.000000%,100.000000%);stroke: none;"></path>
  <path d="M83.452911 58.570984L94.415619 58.570984L94.415619 51.150589L83.452911 51.150589Z" style="fill: rgb(100.000000%,100.000000%,100.000000%);stroke: none;"></path>
  <g transform="translate(83.952911 57.070984)" style="fill: rgb(0.000000%,0.000000%,0.000000%);">
    <use xlink:href="#GLYPHcmr10_49"></use>
    <use xlink:href="#GLYPHcmr10_49" x="5.000095"></use>
  </g>
  <path d="M143.016098 21.457291L153.978806 21.457291L153.978806 14.036896L143.016098 14.036896Z" style="fill: rgb(100.000000%,100.000000%,100.000000%);stroke: none;"></path>
  <path d="M143.016098 23.457291L153.978806 23.457291L153.978806 16.036896L143.016098 16.036896Z" style="fill: rgb(100.000000%,100.000000%,100.000000%);stroke: none;"></path>
  <g transform="translate(143.516098 21.957291)" style="fill: rgb(0.000000%,0.000000%,0.000000%);">
    <use xlink:href="#GLYPHcmr10_49"></use>
    <use xlink:href="#GLYPHcmr10_50" x="5.000095"></use>
  </g>
</svg>
