<?xml version="1.0"?>
<!-- Created by MetaPost 1.999 on 2021.07.05:2356 -->
<svg version="1.1" xmlns="http://www.w3.org/2000/svg" xmlns:xlink="http://www.w3.org/1999/xlink" width="195.448471" height="204.014801" viewBox="0 0 195.448471 204.014801">
<!-- Original BoundingBox: -55.376053 -38.783203 140.072418 165.231598 -->
  <defs>
    <g transform="scale(0.009963,0.009963)" id="GLYPHcmr10_48">
      <path style="fill-rule: evenodd;" d="M460.000000 -320.000000C460.000000 -400.000000,455.000000 -480.000000,420.000000 -554.000000C374.000000 -650.000000,292.000000 -666.000000,250.000000 -666.000000C190.000000 -666.000000,117.000000 -640.000000,76.000000 -547.000000C44.000000 -478.000000,39.000000 -400.000000,39.000000 -320.000000C39.000000 -245.000000,43.000000 -155.000000,84.000000 -79.000000C127.000000 2.000000,200.000000 22.000000,249.000000 22.000000C303.000000 22.000000,379.000000 1.000000,423.000000 -94.000000C455.000000 -163.000000,460.000000 -241.000000,460.000000 -320.000000M249.000000 -0.000000C210.000000 -0.000000,151.000000 -25.000000,133.000000 -121.000000C122.000000 -181.000000,122.000000 -273.000000,122.000000 -332.000000C122.000000 -396.000000,122.000000 -462.000000,130.000000 -516.000000C149.000000 -635.000000,224.000000 -644.000000,249.000000 -644.000000C282.000000 -644.000000,348.000000 -626.000000,367.000000 -527.000000C377.000000 -471.000000,377.000000 -395.000000,377.000000 -332.000000C377.000000 -257.000000,377.000000 -189.000000,366.000000 -125.000000C351.000000 -30.000000,294.000000 -0.000000,249.000000 -0.000000"></path>
    </g>
    <g transform="scale(0.009963,0.009963)" id="GLYPHcmr10_49">
      <path style="fill-rule: evenodd;" d="M294.000000 -640.000000C294.000000 -664.000000,294.000000 -666.000000,271.000000 -666.000000C209.000000 -602.000000,121.000000 -602.000000,89.000000 -602.000000L89.000000 -571.000000C109.000000 -571.000000,168.000000 -571.000000,220.000000 -597.000000L220.000000 -79.000000C220.000000 -43.000000,217.000000 -31.000000,127.000000 -31.000000L95.000000 -31.000000L95.000000 -0.000000L257.000000 -0.000000L130.000000 -3.000000L217.000000 -3.000000L257.000000 -3.000000L297.000000 -3.000000L384.000000 -3.000000L419.000000 -0.000000L419.000000 -31.000000L387.000000 -31.000000C297.000000 -31.000000,294.000000 -42.000000,294.000000 -79.000000"></path>
    </g>
    <g transform="scale(0.009963,0.009963)" id="GLYPHcmr10_50">
      <path style="fill-rule: evenodd;" d="M127.000000 -77.000000L233.000000 -180.000000C389.000000 -318.000000,449.000000 -372.000000,449.000000 -472.000000C449.000000 -586.000000,359.000000 -666.000000,237.000000 -666.000000C124.000000 -666.000000,50.000000 -574.000000,50.000000 -485.000000C50.000000 -429.000000,100.000000 -429.000000,103.000000 -429.000000C120.000000 -429.000000,155.000000 -441.000000,155.000000 -482.000000C155.000000 -508.000000,137.000000 -534.000000,102.000000 -534.000000C94.000000 -534.000000,92.000000 -534.000000,89.000000 -533.000000C112.000000 -598.000000,166.000000 -635.000000,224.000000 -635.000000C315.000000 -635.000000,358.000000 -554.000000,358.000000 -472.000000C358.000000 -392.000000,308.000000 -313.000000,253.000000 -251.000000L61.000000 -37.000000C50.000000 -26.000000,50.000000 -24.000000,50.000000 -0.000000L421.000000 -0.000000L449.000000 -174.000000L424.000000 -174.000000C419.000000 -144.000000,412.000000 -100.000000,402.000000 -85.000000C395.000000 -77.000000,329.000000 -77.000000,307.000000 -77.000000"></path>
    </g>
    <g transform="scale(0.009963,0.009963)" id="GLYPHcmr10_51">
      <path style="fill-rule: evenodd;" d="M290.000000 -352.000000C372.000000 -379.000000,430.000000 -449.000000,430.000000 -528.000000C430.000000 -610.000000,342.000000 -666.000000,246.000000 -666.000000C145.000000 -666.000000,69.000000 -606.000000,69.000000 -530.000000C69.000000 -497.000000,91.000000 -478.000000,120.000000 -478.000000C151.000000 -478.000000,171.000000 -500.000000,171.000000 -529.000000C171.000000 -579.000000,124.000000 -579.000000,109.000000 -579.000000C140.000000 -628.000000,206.000000 -641.000000,242.000000 -641.000000C283.000000 -641.000000,338.000000 -619.000000,338.000000 -529.000000C338.000000 -517.000000,336.000000 -459.000000,310.000000 -415.000000C280.000000 -367.000000,246.000000 -364.000000,221.000000 -363.000000C213.000000 -362.000000,189.000000 -360.000000,182.000000 -360.000000C174.000000 -359.000000,167.000000 -358.000000,167.000000 -348.000000C167.000000 -337.000000,174.000000 -337.000000,191.000000 -337.000000L235.000000 -337.000000C317.000000 -337.000000,354.000000 -269.000000,354.000000 -171.000000C354.000000 -35.000000,285.000000 -6.000000,241.000000 -6.000000C198.000000 -6.000000,123.000000 -23.000000,88.000000 -82.000000C123.000000 -77.000000,154.000000 -99.000000,154.000000 -137.000000C154.000000 -173.000000,127.000000 -193.000000,98.000000 -193.000000C74.000000 -193.000000,42.000000 -179.000000,42.000000 -135.000000C42.000000 -44.000000,135.000000 22.000000,244.000000 22.000000C366.000000 22.000000,457.000000 -69.000000,457.000000 -171.000000C457.000000 -253.000000,394.000000 -331.000000,290.000000 -352.000000"></path>
    </g>
    <g transform="scale(0.009963,0.009963)" id="GLYPHcmr10_52">
      <path style="fill-rule: evenodd;" d="M294.000000 -165.000000L294.000000 -78.000000C294.000000 -42.000000,292.000000 -31.000000,218.000000 -31.000000L197.000000 -31.000000L197.000000 -0.000000L332.000000 -0.000000L238.000000 -3.000000L290.000000 -3.000000L332.000000 -3.000000L374.000000 -3.000000L427.000000 -3.000000L468.000000 -0.000000L468.000000 -31.000000L447.000000 -31.000000C373.000000 -31.000000,371.000000 -42.000000,371.000000 -78.000000L371.000000 -165.000000L471.000000 -165.000000L471.000000 -196.000000L371.000000 -196.000000L371.000000 -651.000000C371.000000 -671.000000,371.000000 -677.000000,355.000000 -677.000000C346.000000 -677.000000,343.000000 -677.000000,335.000000 -665.000000L28.000000 -196.000000L28.000000 -165.000000M300.000000 -196.000000L56.000000 -196.000000L300.000000 -569.000000"></path>
    </g>
    <g transform="scale(0.009963,0.009963)" id="GLYPHcmr10_53">
      <path style="fill-rule: evenodd;" d="M449.000000 -201.000000C449.000000 -320.000000,367.000000 -420.000000,259.000000 -420.000000C211.000000 -420.000000,168.000000 -404.000000,132.000000 -369.000000L132.000000 -564.000000C152.000000 -558.000000,185.000000 -551.000000,217.000000 -551.000000C340.000000 -551.000000,410.000000 -642.000000,410.000000 -655.000000C410.000000 -661.000000,407.000000 -666.000000,400.000000 -666.000000C399.000000 -666.000000,397.000000 -666.000000,392.000000 -663.000000C372.000000 -654.000000,323.000000 -634.000000,256.000000 -634.000000C216.000000 -634.000000,170.000000 -641.000000,123.000000 -662.000000C115.000000 -665.000000,113.000000 -665.000000,111.000000 -665.000000C101.000000 -665.000000,101.000000 -657.000000,101.000000 -641.000000L101.000000 -345.000000C101.000000 -327.000000,101.000000 -319.000000,115.000000 -319.000000C122.000000 -319.000000,124.000000 -322.000000,128.000000 -328.000000C139.000000 -344.000000,176.000000 -398.000000,257.000000 -398.000000C309.000000 -398.000000,334.000000 -352.000000,342.000000 -334.000000C358.000000 -297.000000,360.000000 -258.000000,360.000000 -208.000000C360.000000 -173.000000,360.000000 -113.000000,336.000000 -71.000000C312.000000 -32.000000,275.000000 -6.000000,229.000000 -6.000000C156.000000 -6.000000,99.000000 -59.000000,82.000000 -118.000000C85.000000 -117.000000,88.000000 -116.000000,99.000000 -116.000000C132.000000 -116.000000,149.000000 -141.000000,149.000000 -165.000000C149.000000 -189.000000,132.000000 -214.000000,99.000000 -214.000000C85.000000 -214.000000,50.000000 -207.000000,50.000000 -161.000000C50.000000 -75.000000,119.000000 22.000000,231.000000 22.000000C347.000000 22.000000,449.000000 -74.000000,449.000000 -201.000000"></path>
    </g>
    <g transform="scale(0.009963,0.009963)" id="GLYPHcmr10_54">
      <path style="fill-rule: evenodd;" d="M132.000000 -328.000000L132.000000 -352.000000C132.000000 -605.000000,256.000000 -641.000000,307.000000 -641.000000C331.000000 -641.000000,373.000000 -635.000000,395.000000 -601.000000C380.000000 -601.000000,340.000000 -601.000000,340.000000 -556.000000C340.000000 -525.000000,364.000000 -510.000000,386.000000 -510.000000C402.000000 -510.000000,432.000000 -519.000000,432.000000 -558.000000C432.000000 -618.000000,388.000000 -666.000000,305.000000 -666.000000C177.000000 -666.000000,42.000000 -537.000000,42.000000 -316.000000C42.000000 -49.000000,158.000000 22.000000,251.000000 22.000000C362.000000 22.000000,457.000000 -72.000000,457.000000 -204.000000C457.000000 -331.000000,368.000000 -427.000000,257.000000 -427.000000C189.000000 -427.000000,152.000000 -376.000000,132.000000 -328.000000M251.000000 -6.000000C188.000000 -6.000000,158.000000 -66.000000,152.000000 -81.000000C134.000000 -128.000000,134.000000 -208.000000,134.000000 -226.000000C134.000000 -304.000000,166.000000 -404.000000,256.000000 -404.000000C272.000000 -404.000000,318.000000 -404.000000,349.000000 -342.000000C367.000000 -305.000000,367.000000 -254.000000,367.000000 -205.000000C367.000000 -157.000000,367.000000 -107.000000,350.000000 -71.000000C320.000000 -11.000000,274.000000 -6.000000,251.000000 -6.000000"></path>
    </g>
    <g transform="scale(0.009963,0.009963)" id="GLYPHcmr10_55">
      <path style="fill-rule: evenodd;" d="M476.000000 -609.000000C485.000000 -621.000000,485.000000 -623.000000,485.000000 -644.000000L242.000000 -644.000000C120.000000 -644.000000,118.000000 -657.000000,114.000000 -676.000000L89.000000 -676.000000L56.000000 -470.000000L81.000000 -470.000000C84.000000 -486.000000,93.000000 -549.000000,106.000000 -561.000000C113.000000 -567.000000,191.000000 -567.000000,204.000000 -567.000000L411.000000 -567.000000C400.000000 -551.000000,321.000000 -442.000000,299.000000 -409.000000C209.000000 -274.000000,176.000000 -135.000000,176.000000 -33.000000C176.000000 -23.000000,176.000000 22.000000,222.000000 22.000000C268.000000 22.000000,268.000000 -23.000000,268.000000 -33.000000L268.000000 -84.000000C268.000000 -139.000000,271.000000 -194.000000,279.000000 -248.000000C283.000000 -271.000000,297.000000 -357.000000,341.000000 -419.000000"></path>
    </g>
    <g transform="scale(0.009963,0.009963)" id="GLYPHcmr10_56">
      <path style="fill-rule: evenodd;" d="M163.000000 -457.000000C117.000000 -487.000000,113.000000 -521.000000,113.000000 -538.000000C113.000000 -599.000000,178.000000 -641.000000,249.000000 -641.000000C322.000000 -641.000000,386.000000 -589.000000,386.000000 -517.000000C386.000000 -460.000000,347.000000 -412.000000,287.000000 -377.000000M309.000000 -362.000000C381.000000 -399.000000,430.000000 -451.000000,430.000000 -517.000000C430.000000 -609.000000,341.000000 -666.000000,250.000000 -666.000000C150.000000 -666.000000,69.000000 -592.000000,69.000000 -499.000000C69.000000 -481.000000,71.000000 -436.000000,113.000000 -389.000000C124.000000 -377.000000,161.000000 -352.000000,186.000000 -335.000000C128.000000 -306.000000,42.000000 -250.000000,42.000000 -151.000000C42.000000 -45.000000,144.000000 22.000000,249.000000 22.000000C362.000000 22.000000,457.000000 -61.000000,457.000000 -168.000000C457.000000 -204.000000,446.000000 -249.000000,408.000000 -291.000000C389.000000 -312.000000,373.000000 -322.000000,309.000000 -362.000000M209.000000 -320.000000L332.000000 -242.000000C360.000000 -223.000000,407.000000 -193.000000,407.000000 -132.000000C407.000000 -58.000000,332.000000 -6.000000,250.000000 -6.000000C164.000000 -6.000000,92.000000 -68.000000,92.000000 -151.000000C92.000000 -209.000000,124.000000 -273.000000,209.000000 -320.000000"></path>
    </g>
    <g transform="scale(0.009963,0.009963)" id="GLYPHcmr10_57">
      <path style="fill-rule: evenodd;" d="M367.000000 -318.000000L367.000000 -286.000000C367.000000 -52.000000,263.000000 -6.000000,205.000000 -6.000000C188.000000 -6.000000,134.000000 -8.000000,107.000000 -42.000000C151.000000 -42.000000,159.000000 -71.000000,159.000000 -88.000000C159.000000 -119.000000,135.000000 -134.000000,113.000000 -134.000000C97.000000 -134.000000,67.000000 -125.000000,67.000000 -86.000000C67.000000 -19.000000,121.000000 22.000000,206.000000 22.000000C335.000000 22.000000,457.000000 -114.000000,457.000000 -329.000000C457.000000 -598.000000,342.000000 -666.000000,253.000000 -666.000000C198.000000 -666.000000,149.000000 -648.000000,106.000000 -603.000000C65.000000 -558.000000,42.000000 -516.000000,42.000000 -441.000000C42.000000 -316.000000,130.000000 -218.000000,242.000000 -218.000000C303.000000 -218.000000,344.000000 -260.000000,367.000000 -318.000000M243.000000 -241.000000C227.000000 -241.000000,181.000000 -241.000000,150.000000 -304.000000C132.000000 -341.000000,132.000000 -391.000000,132.000000 -440.000000C132.000000 -494.000000,132.000000 -541.000000,153.000000 -578.000000C180.000000 -628.000000,218.000000 -641.000000,253.000000 -641.000000C299.000000 -641.000000,332.000000 -607.000000,349.000000 -562.000000C361.000000 -530.000000,365.000000 -467.000000,365.000000 -421.000000C365.000000 -338.000000,331.000000 -241.000000,243.000000 -241.000000"></path>
    </g>
  </defs>
  <path d="M91.314362 200.794464C91.314362 200.001770,90.999420 199.241623,90.438934 198.681152C89.878464 198.120667,89.118317 197.805725,88.325623 197.805725C87.532928 197.805725,86.772781 198.120667,86.212311 198.681152C85.651825 199.241623,85.336884 200.001770,85.336884 200.794464C85.336884 201.587158,85.651825 202.347305,86.212311 202.907776C86.772781 203.468262,87.532928 203.783203,88.325623 203.783203C89.118317 203.783203,89.878464 203.468262,90.438934 202.907776C90.999420 202.347305,91.314362 201.587158,91.314362 200.794464Z" style="fill: rgb(100.000000%,100.000000%,100.000000%);stroke: none;"></path>
  <path d="M113.584259 189.988647C113.584259 189.195953,113.269318 188.435806,112.708832 187.875336C112.148361 187.314850,111.388214 186.999908,110.595520 186.999908C109.802826 186.999908,109.042679 187.314850,108.482208 187.875336C107.921722 188.435806,107.606781 189.195953,107.606781 189.988647C107.606781 190.781342,107.921722 191.541489,108.482208 192.101959C109.042679 192.662445,109.802826 192.977386,110.595520 192.977386C111.388214 192.977386,112.148361 192.662445,112.708832 192.101959C113.269318 191.541489,113.584259 190.781342,113.584259 189.988647Z" style="fill: rgb(100.000000%,100.000000%,100.000000%);stroke: none;"></path>
  <path d="M54.273895 151.793900C54.273895 151.001205,53.958954 150.241058,53.398468 149.680588C52.837997 149.120102,52.077850 148.805161,51.285156 148.805161C50.492462 148.805161,49.732315 149.120102,49.171844 149.680588C48.611359 150.241058,48.296417 151.001205,48.296417 151.793900C48.296417 152.586594,48.611359 153.346741,49.171844 153.907211C49.732315 154.467697,50.492462 154.782639,51.285156 154.782639C52.077850 154.782639,52.837997 154.467697,53.398468 153.907211C53.958954 153.346741,54.273895 152.586594,54.273895 151.793900Z" style="fill: rgb(100.000000%,100.000000%,100.000000%);stroke: none;"></path>
  <path d="M64.691574 188.828262C64.691574 188.035568,64.376633 187.275421,63.816147 186.714951C63.255676 186.154465,62.495529 185.839523,61.702835 185.839523C60.910141 185.839523,60.149994 186.154465,59.589523 186.714951C59.029037 187.275421,58.714096 188.035568,58.714096 188.828262C58.714096 189.620956,59.029037 190.381104,59.589523 190.941574C60.149994 191.502060,60.910141 191.817001,61.702835 191.817001C62.495529 191.817001,63.255676 191.502060,63.816147 190.941574C64.376633 190.381104,64.691574 189.620956,64.691574 188.828262Z" style="fill: rgb(100.000000%,100.000000%,100.000000%);stroke: none;"></path>
  <path d="M58.726425 117.154541C58.726425 116.361847,58.411484 115.601700,57.850998 115.041229C57.290527 114.480743,56.530380 114.165802,55.737686 114.165802C54.944992 114.165802,54.184845 114.480743,53.624374 115.041229C53.063889 115.601700,52.748947 116.361847,52.748947 117.154541C52.748947 117.947235,53.063889 118.707382,53.624374 119.267853C54.184845 119.828339,54.944992 120.143280,55.737686 120.143280C56.530380 120.143280,57.290527 119.828339,57.850998 119.267853C58.411484 118.707382,58.726425 117.947235,58.726425 117.154541Z" style="fill: rgb(100.000000%,100.000000%,100.000000%);stroke: none;"></path>
  <path d="M58.449036 138.031815C58.449036 137.239120,58.134094 136.478973,57.573608 135.918503C57.013138 135.358017,56.252991 135.043076,55.460297 135.043076C54.667603 135.043076,53.907455 135.358017,53.346985 135.918503C52.786499 136.478973,52.471558 137.239120,52.471558 138.031815C52.471558 138.824509,52.786499 139.584656,53.346985 140.145126C53.907455 140.705612,54.667603 141.020554,55.460297 141.020554C56.252991 141.020554,57.013138 140.705612,57.573608 140.145126C58.134094 139.584656,58.449036 138.824509,58.449036 138.031815Z" style="fill: rgb(100.000000%,100.000000%,100.000000%);stroke: none;"></path>
  <path d="M58.258636 96.313507C58.258636 95.520813,57.943695 94.760666,57.383209 94.200195C56.822739 93.639709,56.062592 93.324768,55.269897 93.324768C54.477203 93.324768,53.717056 93.639709,53.156586 94.200195C52.596100 94.760666,52.281158 95.520813,52.281158 96.313507C52.281158 97.106201,52.596100 97.866348,53.156586 98.426819C53.717056 98.987305,54.477203 99.302246,55.269897 99.302246C56.062592 99.302246,56.822739 98.987305,57.383209 98.426819C57.943695 97.866348,58.258636 97.106201,58.258636 96.313507Z" style="fill: rgb(100.000000%,100.000000%,100.000000%);stroke: none;"></path>
  <path d="M57.683914 109.941849C57.683914 109.149155,57.368973 108.389008,56.808487 107.828537C56.248016 107.268051,55.487869 106.953110,54.695175 106.953110C53.902481 106.953110,53.142334 107.268051,52.581863 107.828537C52.021378 108.389008,51.706436 109.149155,51.706436 109.941849C51.706436 110.734543,52.021378 111.494690,52.581863 112.055161C53.142334 112.615646,53.902481 112.930588,54.695175 112.930588C55.487869 112.930588,56.248016 112.615646,56.808487 112.055161C57.368973 111.494690,57.683914 110.734543,57.683914 109.941849Z" style="fill: rgb(100.000000%,100.000000%,100.000000%);stroke: none;"></path>
  <path d="M50.734726 73.735291C50.734726 72.942596,50.419785 72.182449,49.859299 71.621979C49.298828 71.061493,48.538681 70.746552,47.745987 70.746552C46.953293 70.746552,46.193146 71.061493,45.632675 71.621979C45.072189 72.182449,44.757248 72.942596,44.757248 73.735291C44.757248 74.527985,45.072189 75.288132,45.632675 75.848602C46.193146 76.409088,46.953293 76.724030,47.745987 76.724030C48.538681 76.724030,49.298828 76.409088,49.859299 75.848602C50.419785 75.288132,50.734726 74.527985,50.734726 73.735291Z" style="fill: rgb(100.000000%,100.000000%,100.000000%);stroke: none;"></path>
  <path d="M59.481812 89.610184C59.481812 88.817490,59.166870 88.057343,58.606384 87.496872C58.045914 86.936386,57.285767 86.621445,56.493073 86.621445C55.700378 86.621445,54.940231 86.936386,54.379761 87.496872C53.819275 88.057343,53.504333 88.817490,53.504333 89.610184C53.504333 90.402878,53.819275 91.163025,54.379761 91.723495C54.940231 92.283981,55.700378 92.598923,56.493073 92.598923C57.285767 92.598923,58.045914 92.283981,58.606384 91.723495C59.166870 91.163025,59.481812 90.402878,59.481812 89.610184Z" style="fill: rgb(100.000000%,100.000000%,100.000000%);stroke: none;"></path>
  <path d="M9.190018 90.988846C9.190018 90.196152,8.875076 89.436005,8.314590 88.875534C7.754120 88.315048,6.993973 88.000107,6.201279 88.000107C5.408585 88.000107,4.648438 88.315048,4.087967 88.875534C3.527481 89.436005,3.212540 90.196152,3.212540 90.988846C3.212540 91.781540,3.527481 92.541687,4.087967 93.102158C4.648438 93.662643,5.408585 93.977585,6.201279 93.977585C6.993973 93.977585,7.754120 93.662643,8.314590 93.102158C8.875076 92.541687,9.190018 91.781540,9.190018 90.988846Z" style="fill: rgb(100.000000%,100.000000%,100.000000%);stroke: none;"></path>
  <path d="M36.612930 72.920883C36.612930 72.128189,36.297989 71.368042,35.737503 70.807571C35.177032 70.247086,34.416885 69.932144,33.624191 69.932144C32.831497 69.932144,32.071350 70.247086,31.510880 70.807571C30.950394 71.368042,30.635452 72.128189,30.635452 72.920883C30.635452 73.713577,30.950394 74.473724,31.510880 75.034195C32.071350 75.594681,32.831497 75.909622,33.624191 75.909622C34.416885 75.909622,35.177032 75.594681,35.737503 75.034195C36.297989 74.473724,36.612930 73.713577,36.612930 72.920883Z" style="fill: rgb(100.000000%,100.000000%,100.000000%);stroke: none;"></path>
  <path d="M19.784790 153.188690C19.784790 152.395996,19.469849 151.635849,18.909363 151.075378C18.348892 150.514893,17.588745 150.199951,16.796051 150.199951C16.003357 150.199951,15.243210 150.514893,14.682739 151.075378C14.122253 151.635849,13.807312 152.395996,13.807312 153.188690C13.807312 153.981384,14.122253 154.741531,14.682739 155.302002C15.243210 155.862488,16.003357 156.177429,16.796051 156.177429C17.588745 156.177429,18.348892 155.862488,18.909363 155.302002C19.469849 154.741531,19.784790 153.981384,19.784790 153.188690Z" style="fill: rgb(100.000000%,100.000000%,100.000000%);stroke: none;"></path>
  <path d="M5.601425 113.445465C5.601425 112.652771,5.286484 111.892624,4.725998 111.332153C4.165527 110.771667,3.405380 110.456726,2.612686 110.456726C1.819992 110.456726,1.059845 110.771667,0.499374 111.332153C-0.061111 111.892624,-0.376053 112.652771,-0.376053 113.445465C-0.376053 114.238159,-0.061111 114.998306,0.499374 115.558777C1.059845 116.119263,1.819992 116.434204,2.612686 116.434204C3.405380 116.434204,4.165527 116.119263,4.725998 115.558777C5.286484 114.998306,5.601425 114.238159,5.601425 113.445465Z" style="fill: rgb(100.000000%,100.000000%,100.000000%);stroke: none;"></path>
  <path d="M72.030167 162.607178C72.030167 161.814484,71.715225 161.054337,71.154739 160.493866C70.594269 159.933380,69.834122 159.618439,69.041428 159.618439C68.248734 159.618439,67.488586 159.933380,66.928116 160.493866C66.367630 161.054337,66.052689 161.814484,66.052689 162.607178C66.052689 163.399872,66.367630 164.160019,66.928116 164.720490C67.488586 165.280975,68.248734 165.595917,69.041428 165.595917C69.834122 165.595917,70.594269 165.280975,71.154739 164.720490C71.715225 164.160019,72.030167 163.399872,72.030167 162.607178Z" style="fill: rgb(100.000000%,100.000000%,100.000000%);stroke: none;"></path>
  <path d="M37.705750 168.456467C37.705750 167.663773,37.390808 166.903625,36.830322 166.343155C36.269852 165.782669,35.509705 165.467728,34.717010 165.467728C33.924316 165.467728,33.164169 165.782669,32.603699 166.343155C32.043213 166.903625,31.728271 167.663773,31.728271 168.456467C31.728271 169.249161,32.043213 170.009308,32.603699 170.569778C33.164169 171.130264,33.924316 171.445206,34.717010 171.445206C35.509705 171.445206,36.269852 171.130264,36.830322 170.569778C37.390808 170.009308,37.705750 169.249161,37.705750 168.456467Z" style="fill: rgb(100.000000%,100.000000%,100.000000%);stroke: none;"></path>
  <path d="M89.713196 131.171417C89.713196 130.378723,89.398254 129.618576,88.837769 129.058105C88.277298 128.497620,87.517151 128.182678,86.724457 128.182678C85.931763 128.182678,85.171616 128.497620,84.611145 129.058105C84.050659 129.618576,83.735718 130.378723,83.735718 131.171417C83.735718 131.964111,84.050659 132.724258,84.611145 133.284729C85.171616 133.845215,85.931763 134.160156,86.724457 134.160156C87.517151 134.160156,88.277298 133.845215,88.837769 133.284729C89.398254 132.724258,89.713196 131.964111,89.713196 131.171417Z" style="fill: rgb(100.000000%,100.000000%,100.000000%);stroke: none;"></path>
  <path d="M82.396866 151.302353C82.396866 150.509659,82.081924 149.749512,81.521439 149.189041C80.960968 148.628555,80.200821 148.313614,79.408127 148.313614C78.615433 148.313614,77.855286 148.628555,77.294815 149.189041C76.734329 149.749512,76.419388 150.509659,76.419388 151.302353C76.419388 152.095047,76.734329 152.855194,77.294815 153.415665C77.855286 153.976151,78.615433 154.291092,79.408127 154.291092C80.200821 154.291092,80.960968 153.976151,81.521439 153.415665C82.081924 152.855194,82.396866 152.095047,82.396866 151.302353Z" style="fill: rgb(100.000000%,100.000000%,100.000000%);stroke: none;"></path>
  <path d="M94.688293 114.892517C94.688293 114.099823,94.373352 113.339676,93.812866 112.779205C93.252396 112.218719,92.492249 111.903778,91.699554 111.903778C90.906860 111.903778,90.146713 112.218719,89.586243 112.779205C89.025757 113.339676,88.710815 114.099823,88.710815 114.892517C88.710815 115.685211,89.025757 116.445358,89.586243 117.005829C90.146713 117.566315,90.906860 117.881256,91.699554 117.881256C92.492249 117.881256,93.252396 117.566315,93.812866 117.005829C94.373352 116.445358,94.688293 115.685211,94.688293 114.892517Z" style="fill: rgb(100.000000%,100.000000%,100.000000%);stroke: none;"></path>
  <path d="M90.817459 124.135239C90.817459 123.342545,90.502518 122.582397,89.942032 122.021927C89.381561 121.461441,88.621414 121.146500,87.828720 121.146500C87.036026 121.146500,86.275879 121.461441,85.715408 122.021927C85.154922 122.582397,84.839981 123.342545,84.839981 124.135239C84.839981 124.927933,85.154922 125.688080,85.715408 126.248550C86.275879 126.809036,87.036026 127.123978,87.828720 127.123978C88.621414 127.123978,89.381561 126.809036,89.942032 126.248550C90.502518 125.688080,90.817459 124.927933,90.817459 124.135239Z" style="fill: rgb(100.000000%,100.000000%,100.000000%);stroke: none;"></path>
  <path d="M93.405670 106.926254C93.405670 106.133560,93.090729 105.373413,92.530243 104.812943C91.969772 104.252457,91.209625 103.937515,90.416931 103.937515C89.624237 103.937515,88.864090 104.252457,88.303619 104.812943C87.743134 105.373413,87.428192 106.133560,87.428192 106.926254C87.428192 107.718948,87.743134 108.479095,88.303619 109.039566C88.864090 109.600052,89.624237 109.914993,90.416931 109.914993C91.209625 109.914993,91.969772 109.600052,92.530243 109.039566C93.090729 108.479095,93.405670 107.718948,93.405670 106.926254Z" style="fill: rgb(100.000000%,100.000000%,100.000000%);stroke: none;"></path>
  <path d="M96.047256 111.916397C96.047256 111.123703,95.732315 110.363556,95.171829 109.803085C94.611359 109.242599,93.851212 108.927658,93.058517 108.927658C92.265823 108.927658,91.505676 109.242599,90.945206 109.803085C90.384720 110.363556,90.069778 111.123703,90.069778 111.916397C90.069778 112.709091,90.384720 113.469238,90.945206 114.029709C91.505676 114.590195,92.265823 114.905136,93.058517 114.905136C93.851212 114.905136,94.611359 114.590195,95.171829 114.029709C95.732315 113.469238,96.047256 112.709091,96.047256 111.916397Z" style="fill: rgb(100.000000%,100.000000%,100.000000%);stroke: none;"></path>
  <path d="M83.340332 104.091629C83.340332 103.298935,83.025391 102.538788,82.464905 101.978317C81.904434 101.417831,81.144287 101.102890,80.351593 101.102890C79.558899 101.102890,78.798752 101.417831,78.238281 101.978317C77.677795 102.538788,77.362854 103.298935,77.362854 104.091629C77.362854 104.884323,77.677795 105.644470,78.238281 106.204941C78.798752 106.765427,79.558899 107.080368,80.351593 107.080368C81.144287 107.080368,81.904434 106.765427,82.464905 106.204941C83.025391 105.644470,83.340332 104.884323,83.340332 104.091629Z" style="fill: rgb(100.000000%,100.000000%,100.000000%);stroke: none;"></path>
  <path d="M90.553757 106.243134C90.553757 105.450439,90.238815 104.690292,89.678329 104.129822C89.117859 103.569336,88.357712 103.254395,87.565018 103.254395C86.772324 103.254395,86.012177 103.569336,85.451706 104.129822C84.891220 104.690292,84.576279 105.450439,84.576279 106.243134C84.576279 107.035828,84.891220 107.795975,85.451706 108.356445C86.012177 108.916931,86.772324 109.231873,87.565018 109.231873C88.357712 109.231873,89.117859 108.916931,89.678329 108.356445C90.238815 107.795975,90.553757 107.035828,90.553757 106.243134Z" style="fill: rgb(100.000000%,100.000000%,100.000000%);stroke: none;"></path>
  <path d="M68.764359 100.327179C68.764359 99.534485,68.449417 98.774338,67.888931 98.213867C67.328461 97.653381,66.568314 97.338440,65.775620 97.338440C64.982925 97.338440,64.222778 97.653381,63.662308 98.213867C63.101822 98.774338,62.786880 99.534485,62.786880 100.327179C62.786880 101.119873,63.101822 101.880020,63.662308 102.440491C64.222778 103.000977,64.982925 103.315918,65.775620 103.315918C66.568314 103.315918,67.328461 103.000977,67.888931 102.440491C68.449417 101.880020,68.764359 101.119873,68.764359 100.327179Z" style="fill: rgb(100.000000%,100.000000%,100.000000%);stroke: none;"></path>
  <path d="M78.975204 101.805832C78.975204 101.013138,78.660263 100.252991,78.099777 99.692520C77.539307 99.132034,76.779160 98.817093,75.986465 98.817093C75.193771 98.817093,74.433624 99.132034,73.873154 99.692520C73.312668 100.252991,72.997726 101.013138,72.997726 101.805832C72.997726 102.598526,73.312668 103.358673,73.873154 103.919144C74.433624 104.479630,75.193771 104.794571,75.986465 104.794571C76.779160 104.794571,77.539307 104.479630,78.099777 103.919144C78.660263 103.358673,78.975204 102.598526,78.975204 101.805832Z" style="fill: rgb(100.000000%,100.000000%,100.000000%);stroke: none;"></path>
  <path d="M53.274582 103.662354C53.274582 102.869659,52.959641 102.109512,52.399155 101.549042C51.838684 100.988556,51.078537 100.673615,50.285843 100.673615C49.493149 100.673615,48.733002 100.988556,48.172531 101.549042C47.612045 102.109512,47.297104 102.869659,47.297104 103.662354C47.297104 104.455048,47.612045 105.215195,48.172531 105.775665C48.733002 106.336151,49.493149 106.651093,50.285843 106.651093C51.078537 106.651093,51.838684 106.336151,52.399155 105.775665C52.959641 105.215195,53.274582 104.455048,53.274582 103.662354Z" style="fill: rgb(100.000000%,100.000000%,100.000000%);stroke: none;"></path>
  <path d="M63.347504 101.634857C63.347504 100.842163,63.032562 100.082016,62.472076 99.521545C61.911606 98.961060,61.151459 98.646118,60.358765 98.646118C59.566071 98.646118,58.805923 98.961060,58.245453 99.521545C57.684967 100.082016,57.370026 100.842163,57.370026 101.634857C57.370026 102.427551,57.684967 103.187698,58.245453 103.748169C58.805923 104.308655,59.566071 104.623596,60.358765 104.623596C61.151459 104.623596,61.911606 104.308655,62.472076 103.748169C63.032562 103.187698,63.347504 102.427551,63.347504 101.634857Z" style="fill: rgb(100.000000%,100.000000%,100.000000%);stroke: none;"></path>
  <path d="M33.308075 100.850586C33.308075 100.057892,32.993134 99.297745,32.432648 98.737274C31.872177 98.176788,31.112030 97.861847,30.319336 97.861847C29.526642 97.861847,28.766495 98.176788,28.206024 98.737274C27.645538 99.297745,27.330597 100.057892,27.330597 100.850586C27.330597 101.643280,27.645538 102.403427,28.206024 102.963898C28.766495 103.524384,29.526642 103.839325,30.319336 103.839325C31.112030 103.839325,31.872177 103.524384,32.432648 102.963898C32.993134 102.403427,33.308075 101.643280,33.308075 100.850586Z" style="fill: rgb(100.000000%,100.000000%,100.000000%);stroke: none;"></path>
  <path d="M48.430099 104.430771C48.430099 103.638077,48.115158 102.877930,47.554672 102.317459C46.994202 101.756973,46.234055 101.442032,45.441360 101.442032C44.648666 101.442032,43.888519 101.756973,43.328049 102.317459C42.767563 102.877930,42.452621 103.638077,42.452621 104.430771C42.452621 105.223465,42.767563 105.983612,43.328049 106.544083C43.888519 107.104568,44.648666 107.419510,45.441360 107.419510C46.234055 107.419510,46.994202 107.104568,47.554672 106.544083C48.115158 105.983612,48.430099 105.223465,48.430099 104.430771Z" style="fill: rgb(100.000000%,100.000000%,100.000000%);stroke: none;"></path>
  <path d="M24.362534 58.928665C24.362534 58.135971,24.047592 57.375824,23.487106 56.815353C22.926636 56.254868,22.166489 55.939926,21.373795 55.939926C20.581100 55.939926,19.820953 56.254868,19.260483 56.815353C18.699997 57.375824,18.385056 58.135971,18.385056 58.928665C18.385056 59.721359,18.699997 60.481506,19.260483 61.041977C19.820953 61.602463,20.581100 61.917404,21.373795 61.917404C22.166489 61.917404,22.926636 61.602463,23.487106 61.041977C24.047592 60.481506,24.362534 59.721359,24.362534 58.928665Z" style="fill: rgb(100.000000%,100.000000%,100.000000%);stroke: none;"></path>
  <path d="M26.880386 90.818802C26.880386 90.026108,26.565445 89.265961,26.004959 88.705490C25.444489 88.145004,24.684341 87.830063,23.891647 87.830063C23.098953 87.830063,22.338806 88.145004,21.778336 88.705490C21.217850 89.265961,20.902908 90.026108,20.902908 90.818802C20.902908 91.611496,21.217850 92.371643,21.778336 92.932114C22.338806 93.492599,23.098953 93.807541,23.891647 93.807541C24.684341 93.807541,25.444489 93.492599,26.004959 92.932114C26.565445 92.371643,26.880386 91.611496,26.880386 90.818802Z" style="fill: rgb(100.000000%,100.000000%,100.000000%);stroke: none;"></path>
  <path d="M75.593201 15.791763C75.593201 14.999069,75.278259 14.238922,74.717773 13.678452C74.157303 13.117966,73.397156 12.803024,72.604462 12.803024C71.811768 12.803024,71.051620 13.117966,70.491150 13.678452C69.930664 14.238922,69.615723 14.999069,69.615723 15.791763C69.615723 16.584457,69.930664 17.344604,70.491150 17.905075C71.051620 18.465561,71.811768 18.780502,72.604462 18.780502C73.397156 18.780502,74.157303 18.465561,74.717773 17.905075C75.278259 17.344604,75.593201 16.584457,75.593201 15.791763Z" style="fill: rgb(100.000000%,100.000000%,100.000000%);stroke: none;"></path>
  <path d="M40.424576 42.319443C40.424576 41.526749,40.109634 40.766602,39.549149 40.206131C38.988678 39.645645,38.228531 39.330704,37.435837 39.330704C36.643143 39.330704,35.882996 39.645645,35.322525 40.206131C34.762039 40.766602,34.447098 41.526749,34.447098 42.319443C34.447098 43.112137,34.762039 43.872284,35.322525 44.432755C35.882996 44.993240,36.643143 45.308182,37.435837 45.308182C38.228531 45.308182,38.988678 44.993240,39.549149 44.432755C40.109634 43.872284,40.424576 43.112137,40.424576 42.319443Z" style="fill: rgb(100.000000%,100.000000%,100.000000%);stroke: none;"></path>
  <path d="M125.429993 27.697128C125.429993 26.904434,125.115051 26.144287,124.554565 25.583817C123.994095 25.023331,123.233948 24.708389,122.441254 24.708389C121.648560 24.708389,120.888412 25.023331,120.327942 25.583817C119.767456 26.144287,119.452515 26.904434,119.452515 27.697128C119.452515 28.489822,119.767456 29.249969,120.327942 29.810440C120.888412 30.370926,121.648560 30.685867,122.441254 30.685867C123.233948 30.685867,123.994095 30.370926,124.554565 29.810440C125.115051 29.249969,125.429993 28.489822,125.429993 27.697128Z" style="fill: rgb(100.000000%,100.000000%,100.000000%);stroke: none;"></path>
  <path d="M98.513733 6.060791C98.513733 5.268097,98.198792 4.507950,97.638306 3.947479C97.077835 3.386993,96.317688 3.072052,95.524994 3.072052C94.732300 3.072052,93.972153 3.386993,93.411682 3.947479C92.851196 4.507950,92.536255 5.268097,92.536255 6.060791C92.536255 6.853485,92.851196 7.613632,93.411682 8.174103C93.972153 8.734589,94.732300 9.049530,95.524994 9.049530C96.317688 9.049530,97.077835 8.734589,97.638306 8.174103C98.198792 7.613632,98.513733 6.853485,98.513733 6.060791Z" style="fill: rgb(100.000000%,100.000000%,100.000000%);stroke: none;"></path>
  <path d="M149.891861 56.341873C149.891861 55.549179,149.576920 54.789032,149.016434 54.228561C148.455963 53.668076,147.695816 53.353134,146.903122 53.353134C146.110428 53.353134,145.350281 53.668076,144.789810 54.228561C144.229324 54.789032,143.914383 55.549179,143.914383 56.341873C143.914383 57.134567,144.229324 57.894714,144.789810 58.455185C145.350281 59.015671,146.110428 59.330612,146.903122 59.330612C147.695816 59.330612,148.455963 59.015671,149.016434 58.455185C149.576920 57.894714,149.891861 57.134567,149.891861 56.341873Z" style="fill: rgb(100.000000%,100.000000%,100.000000%);stroke: none;"></path>
  <path d="M127.717499 43.368546C127.717499 42.575851,127.402557 41.815704,126.842072 41.255234C126.281601 40.694748,125.521454 40.379807,124.728760 40.379807C123.936066 40.379807,123.175919 40.694748,122.615448 41.255234C122.054962 41.815704,121.740021 42.575851,121.740021 43.368546C121.740021 44.161240,122.054962 44.921387,122.615448 45.481857C123.175919 46.042343,123.936066 46.357285,124.728760 46.357285C125.521454 46.357285,126.281601 46.042343,126.842072 45.481857C127.402557 44.921387,127.717499 44.161240,127.717499 43.368546Z" style="fill: rgb(100.000000%,100.000000%,100.000000%);stroke: none;"></path>
  <path d="M193.193771 65.495163C193.193771 64.702469,192.878830 63.942322,192.318344 63.381851C191.757874 62.821365,190.997726 62.506424,190.205032 62.506424C189.412338 62.506424,188.652191 62.821365,188.091721 63.381851C187.531235 63.942322,187.216293 64.702469,187.216293 65.495163C187.216293 66.287857,187.531235 67.048004,188.091721 67.608475C188.652191 68.168961,189.412338 68.483902,190.205032 68.483902C190.997726 68.483902,191.757874 68.168961,192.318344 67.608475C192.878830 67.048004,193.193771 66.287857,193.193771 65.495163Z" style="fill: rgb(100.000000%,100.000000%,100.000000%);stroke: none;"></path>
  <path d="M163.365173 52.237411C163.365173 51.444717,163.050232 50.684570,162.489746 50.124100C161.929276 49.563614,161.169128 49.248672,160.376434 49.248672C159.583740 49.248672,158.823593 49.563614,158.263123 50.124100C157.702637 50.684570,157.387695 51.444717,157.387695 52.237411C157.387695 53.030106,157.702637 53.790253,158.263123 54.350723C158.823593 54.911209,159.583740 55.226151,160.376434 55.226151C161.169128 55.226151,161.929276 54.911209,162.489746 54.350723C163.050232 53.790253,163.365173 53.030106,163.365173 52.237411Z" style="fill: rgb(100.000000%,100.000000%,100.000000%);stroke: none;"></path>
  <path d="M187.489182 130.865448C187.489182 130.072754,187.174240 129.312607,186.613754 128.752136C186.053284 128.191650,185.293137 127.876709,184.500443 127.876709C183.707748 127.876709,182.947601 128.191650,182.387131 128.752136C181.826645 129.312607,181.511703 130.072754,181.511703 130.865448C181.511703 131.658142,181.826645 132.418289,182.387131 132.978760C182.947601 133.539246,183.707748 133.854187,184.500443 133.854187C185.293137 133.854187,186.053284 133.539246,186.613754 132.978760C187.174240 132.418289,187.489182 131.658142,187.489182 130.865448Z" style="fill: rgb(100.000000%,100.000000%,100.000000%);stroke: none;"></path>
  <path d="M195.072418 89.522491C195.072418 88.729797,194.757477 87.969650,194.196991 87.409180C193.636520 86.848694,192.876373 86.533752,192.083679 86.533752C191.290985 86.533752,190.530838 86.848694,189.970367 87.409180C189.409882 87.969650,189.094940 88.729797,189.094940 89.522491C189.094940 90.315186,189.409882 91.075333,189.970367 91.635803C190.530838 92.196289,191.290985 92.511230,192.083679 92.511230C192.876373 92.511230,193.636520 92.196289,194.196991 91.635803C194.757477 91.075333,195.072418 90.315186,195.072418 89.522491Z" style="fill: rgb(100.000000%,100.000000%,100.000000%);stroke: none;"></path>
  <path d="M148.459335 158.168350C148.459335 157.375656,148.144394 156.615509,147.583908 156.055038C147.023438 155.494553,146.263290 155.179611,145.470596 155.179611C144.677902 155.179611,143.917755 155.494553,143.357285 156.055038C142.796799 156.615509,142.481857 157.375656,142.481857 158.168350C142.481857 158.961044,142.796799 159.721191,143.357285 160.281662C143.917755 160.842148,144.677902 161.157089,145.470596 161.157089C146.263290 161.157089,147.023438 160.842148,147.583908 160.281662C148.144394 159.721191,148.459335 158.961044,148.459335 158.168350Z" style="fill: rgb(100.000000%,100.000000%,100.000000%);stroke: none;"></path>
  <path d="M179.276367 151.230164C179.276367 150.437469,178.961426 149.677322,178.400940 149.116852C177.840469 148.556366,177.080322 148.241425,176.287628 148.241425C175.494934 148.241425,174.734787 148.556366,174.174316 149.116852C173.613831 149.677322,173.298889 150.437469,173.298889 151.230164C173.298889 152.022858,173.613831 152.783005,174.174316 153.343475C174.734787 153.903961,175.494934 154.218903,176.287628 154.218903C177.080322 154.218903,177.840469 153.903961,178.400940 153.343475C178.961426 152.783005,179.276367 152.022858,179.276367 151.230164Z" style="fill: rgb(100.000000%,100.000000%,100.000000%);stroke: none;"></path>
  <path d="M132.867706 135.007065C132.867706 134.214371,132.552765 133.454224,131.992279 132.893753C131.431808 132.333267,130.671661 132.018326,129.878967 132.018326C129.086273 132.018326,128.326126 132.333267,127.765656 132.893753C127.205170 133.454224,126.890228 134.214371,126.890228 135.007065C126.890228 135.799759,127.205170 136.559906,127.765656 137.120377C128.326126 137.680862,129.086273 137.995804,129.878967 137.995804C130.671661 137.995804,131.431808 137.680862,131.992279 137.120377C132.552765 136.559906,132.867706 135.799759,132.867706 135.007065Z" style="fill: rgb(100.000000%,100.000000%,100.000000%);stroke: none;"></path>
  <path d="M136.134964 152.062408C136.134964 151.269714,135.820023 150.509567,135.259537 149.949097C134.699066 149.388611,133.938919 149.073669,133.146225 149.073669C132.353531 149.073669,131.593384 149.388611,131.032913 149.949097C130.472427 150.509567,130.157486 151.269714,130.157486 152.062408C130.157486 152.855103,130.472427 153.615250,131.032913 154.175720C131.593384 154.736206,132.353531 155.051147,133.146225 155.051147C133.938919 155.051147,134.699066 154.736206,135.259537 154.175720C135.820023 153.615250,136.134964 152.855103,136.134964 152.062408Z" style="fill: rgb(100.000000%,100.000000%,100.000000%);stroke: none;"></path>
  <path d="M138.173523 119.484940C138.173523 118.692245,137.858582 117.932098,137.298096 117.371628C136.737625 116.811142,135.977478 116.496201,135.184784 116.496201C134.392090 116.496201,133.631943 116.811142,133.071472 117.371628C132.510986 117.932098,132.196045 118.692245,132.196045 119.484940C132.196045 120.277634,132.510986 121.037781,133.071472 121.598251C133.631943 122.158737,134.392090 122.473679,135.184784 122.473679C135.977478 122.473679,136.737625 122.158737,137.298096 121.598251C137.858582 121.037781,138.173523 120.277634,138.173523 119.484940Z" style="fill: rgb(100.000000%,100.000000%,100.000000%);stroke: none;"></path>
  <path d="M134.936844 129.453445C134.936844 128.660751,134.621902 127.900604,134.061417 127.340134C133.500946 126.779648,132.740799 126.464706,131.948105 126.464706C131.155411 126.464706,130.395264 126.779648,129.834793 127.340134C129.274307 127.900604,128.959366 128.660751,128.959366 129.453445C128.959366 130.246140,129.274307 131.006287,129.834793 131.566757C130.395264 132.127243,131.155411 132.442184,131.948105 132.442184C132.740799 132.442184,133.500946 132.127243,134.061417 131.566757C134.621902 131.006287,134.936844 130.246140,134.936844 129.453445Z" style="fill: rgb(100.000000%,100.000000%,100.000000%);stroke: none;"></path>
  <path d="M137.568344 105.535767C137.568344 104.743073,137.253403 103.982925,136.692917 103.422455C136.132446 102.861969,135.372299 102.547028,134.579605 102.547028C133.786911 102.547028,133.026764 102.861969,132.466293 103.422455C131.905807 103.982925,131.590866 104.743073,131.590866 105.535767C131.590866 106.328461,131.905807 107.088608,132.466293 107.649078C133.026764 108.209564,133.786911 108.524506,134.579605 108.524506C135.372299 108.524506,136.132446 108.209564,136.692917 107.649078C137.253403 107.088608,137.568344 106.328461,137.568344 105.535767Z" style="fill: rgb(100.000000%,100.000000%,100.000000%);stroke: none;"></path>
  <path d="M139.438675 114.741882C139.438675 113.949188,139.123734 113.189041,138.563248 112.628571C138.002777 112.068085,137.242630 111.753143,136.449936 111.753143C135.657242 111.753143,134.897095 112.068085,134.336624 112.628571C133.776138 113.189041,133.461197 113.949188,133.461197 114.741882C133.461197 115.534576,133.776138 116.294724,134.336624 116.855194C134.897095 117.415680,135.657242 117.730621,136.449936 117.730621C137.242630 117.730621,138.002777 117.415680,138.563248 116.855194C139.123734 116.294724,139.438675 115.534576,139.438675 114.741882Z" style="fill: rgb(100.000000%,100.000000%,100.000000%);stroke: none;"></path>
  <path d="M129.710571 93.816483C129.710571 93.023788,129.395630 92.263641,128.835144 91.703171C128.274673 91.142685,127.514526 90.827744,126.721832 90.827744C125.929138 90.827744,125.168991 91.142685,124.608521 91.703171C124.048035 92.263641,123.733093 93.023788,123.733093 93.816483C123.733093 94.609177,124.048035 95.369324,124.608521 95.929794C125.168991 96.490280,125.929138 96.805222,126.721832 96.805222C127.514526 96.805222,128.274673 96.490280,128.835144 95.929794C129.395630 95.369324,129.710571 94.609177,129.710571 93.816483Z" style="fill: rgb(100.000000%,100.000000%,100.000000%);stroke: none;"></path>
  <path d="M134.715454 101.772232C134.715454 100.979538,134.400513 100.219391,133.840027 99.658920C133.279556 99.098434,132.519409 98.783493,131.726715 98.783493C130.934021 98.783493,130.173874 99.098434,129.613403 99.658920C129.052917 100.219391,128.737976 100.979538,128.737976 101.772232C128.737976 102.564926,129.052917 103.325073,129.613403 103.885544C130.173874 104.446030,130.934021 104.760971,131.726715 104.760971C132.519409 104.760971,133.279556 104.446030,133.840027 103.885544C134.400513 103.325073,134.715454 102.564926,134.715454 101.772232Z" style="fill: rgb(100.000000%,100.000000%,100.000000%);stroke: none;"></path>
  <path d="M118.462006 85.678802C118.462006 84.886108,118.147064 84.125961,117.586578 83.565491C117.026108 83.005005,116.265961 82.690063,115.473267 82.690063C114.680573 82.690063,113.920425 83.005005,113.359955 83.565491C112.799469 84.125961,112.484528 84.886108,112.484528 85.678802C112.484528 86.471497,112.799469 87.231644,113.359955 87.792114C113.920425 88.352600,114.680573 88.667542,115.473267 88.667542C116.265961 88.667542,117.026108 88.352600,117.586578 87.792114C118.147064 87.231644,118.462006 86.471497,118.462006 85.678802Z" style="fill: rgb(100.000000%,100.000000%,100.000000%);stroke: none;"></path>
  <path d="M127.308655 89.318909C127.308655 88.526215,126.993713 87.766068,126.433228 87.205597C125.872757 86.645111,125.112610 86.330170,124.319916 86.330170C123.527222 86.330170,122.767075 86.645111,122.206604 87.205597C121.646118 87.766068,121.331177 88.526215,121.331177 89.318909C121.331177 90.111603,121.646118 90.871750,122.206604 91.432220C122.767075 91.992706,123.527222 92.307648,124.319916 92.307648C125.112610 92.307648,125.872757 91.992706,126.433228 91.432220C126.993713 90.871750,127.308655 90.111603,127.308655 89.318909Z" style="fill: rgb(100.000000%,100.000000%,100.000000%);stroke: none;"></path>
  <path d="M103.954941 88.893204C103.954941 88.100510,103.639999 87.340363,103.079514 86.779892C102.519043 86.219406,101.758896 85.904465,100.966202 85.904465C100.173508 85.904465,99.413361 86.219406,98.852890 86.779892C98.292404 87.340363,97.977463 88.100510,97.977463 88.893204C97.977463 89.685898,98.292404 90.446045,98.852890 91.006516C99.413361 91.567001,100.173508 91.881943,100.966202 91.881943C101.758896 91.881943,102.519043 91.567001,103.079514 91.006516C103.639999 90.446045,103.954941 89.685898,103.954941 88.893204Z" style="fill: rgb(100.000000%,100.000000%,100.000000%);stroke: none;"></path>
  <path d="M113.652344 87.127838C113.652344 86.335144,113.337402 85.574997,112.776917 85.014526C112.216446 84.454041,111.456299 84.139099,110.663605 84.139099C109.870911 84.139099,109.110764 84.454041,108.550293 85.014526C107.989807 85.574997,107.674866 86.335144,107.674866 87.127838C107.674866 87.920532,107.989807 88.680679,108.550293 89.241150C109.110764 89.801636,109.870911 90.116577,110.663605 90.116577C111.456299 90.116577,112.216446 89.801636,112.776917 89.241150C113.337402 88.680679,113.652344 87.920532,113.652344 87.127838Z" style="fill: rgb(100.000000%,100.000000%,100.000000%);stroke: none;"></path>
  <path d="M91.100113 96.003204C91.100113 95.210510,90.785172 94.450363,90.224686 93.889893C89.664215 93.329407,88.904068 93.014465,88.111374 93.014465C87.318680 93.014465,86.558533 93.329407,85.998062 93.889893C85.437576 94.450363,85.122635 95.210510,85.122635 96.003204C85.122635 96.795898,85.437576 97.556046,85.998062 98.116516C86.558533 98.677002,87.318680 98.991943,88.111374 98.991943C88.904068 98.991943,89.664215 98.677002,90.224686 98.116516C90.785172 97.556046,91.100113 96.795898,91.100113 96.003204Z" style="fill: rgb(100.000000%,100.000000%,100.000000%);stroke: none;"></path>
  <path d="M98.510925 89.199585C98.510925 88.406891,98.195984 87.646744,97.635498 87.086273C97.075027 86.525787,96.314880 86.210846,95.522186 86.210846C94.729492 86.210846,93.969345 86.525787,93.408875 87.086273C92.848389 87.646744,92.533447 88.406891,92.533447 89.199585C92.533447 89.992279,92.848389 90.752426,93.408875 91.312897C93.969345 91.873383,94.729492 92.188324,95.522186 92.188324C96.314880 92.188324,97.075027 91.873383,97.635498 91.312897C98.195984 90.752426,98.510925 89.992279,98.510925 89.199585Z" style="fill: rgb(100.000000%,100.000000%,100.000000%);stroke: none;"></path>
  <path d="M86.479996 108.314072C86.479996 107.521378,86.165054 106.761230,85.604568 106.200760C85.044098 105.640274,84.283951 105.325333,83.491257 105.325333C82.698563 105.325333,81.938416 105.640274,81.377945 106.200760C80.817459 106.761230,80.502518 107.521378,80.502518 108.314072C80.502518 109.106766,80.817459 109.866913,81.377945 110.427383C81.938416 110.987869,82.698563 111.302811,83.491257 111.302811C84.283951 111.302811,85.044098 110.987869,85.604568 110.427383C86.165054 109.866913,86.479996 109.106766,86.479996 108.314072Z" style="fill: rgb(100.000000%,100.000000%,100.000000%);stroke: none;"></path>
  <path d="M90.232819 101.156967C90.232819 100.364273,89.917877 99.604126,89.357391 99.043655C88.796921 98.483170,88.036774 98.168228,87.244080 98.168228C86.451385 98.168228,85.691238 98.483170,85.130768 99.043655C84.570282 99.604126,84.255341 100.364273,84.255341 101.156967C84.255341 101.949661,84.570282 102.709808,85.130768 103.270279C85.691238 103.830765,86.451385 104.145706,87.244080 104.145706C88.036774 104.145706,88.796921 103.830765,89.357391 103.270279C89.917877 102.709808,90.232819 101.949661,90.232819 101.156967Z" style="fill: rgb(100.000000%,100.000000%,100.000000%);stroke: none;"></path>
  <path d="M87.183075 116.840012C87.183075 116.047318,86.868134 115.287170,86.307648 114.726700C85.747177 114.166214,84.987030 113.851273,84.194336 113.851273C83.401642 113.851273,82.641495 114.166214,82.081024 114.726700C81.520538 115.287170,81.205597 116.047318,81.205597 116.840012C81.205597 117.632706,81.520538 118.392853,82.081024 118.953323C82.641495 119.513809,83.401642 119.828751,84.194336 119.828751C84.987030 119.828751,85.747177 119.513809,86.307648 118.953323C86.868134 118.392853,87.183075 117.632706,87.183075 116.840012Z" style="fill: rgb(100.000000%,100.000000%,100.000000%);stroke: none;"></path>
  <path d="M84.450104 111.318451C84.450104 110.525757,84.135162 109.765610,83.574677 109.205139C83.014206 108.644653,82.254059 108.329712,81.461365 108.329712C80.668671 108.329712,79.908524 108.644653,79.348053 109.205139C78.787567 109.765610,78.472626 110.525757,78.472626 111.318451C78.472626 112.111145,78.787567 112.871292,79.348053 113.431763C79.908524 113.992249,80.668671 114.307190,81.461365 114.307190C82.254059 114.307190,83.014206 113.992249,83.574677 113.431763C84.135162 112.871292,84.450104 112.111145,84.450104 111.318451Z" style="fill: rgb(100.000000%,100.000000%,100.000000%);stroke: none;"></path>
  <path d="M97.699692 118.224915C97.699692 117.432220,97.384750 116.672073,96.824265 116.111603C96.263794 115.551117,95.503647 115.236176,94.710953 115.236176C93.918259 115.236176,93.158112 115.551117,92.597641 116.111603C92.037155 116.672073,91.722214 117.432220,91.722214 118.224915C91.722214 119.017609,92.037155 119.777756,92.597641 120.338226C93.158112 120.898712,93.918259 121.213654,94.710953 121.213654C95.503647 121.213654,96.263794 120.898712,96.824265 120.338226C97.384750 119.777756,97.699692 119.017609,97.699692 118.224915Z" style="fill: rgb(100.000000%,100.000000%,100.000000%);stroke: none;"></path>
  <path d="M90.531891 117.221283C90.531891 116.428589,90.216949 115.668442,89.656464 115.107971C89.095993 114.547485,88.335846 114.232544,87.543152 114.232544C86.750458 114.232544,85.990311 114.547485,85.429840 115.107971C84.869354 115.668442,84.554413 116.428589,84.554413 117.221283C84.554413 118.013977,84.869354 118.774124,85.429840 119.334595C85.990311 119.895081,86.750458 120.210022,87.543152 120.210022C88.335846 120.210022,89.095993 119.895081,89.656464 119.334595C90.216949 118.774124,90.531891 118.013977,90.531891 117.221283Z" style="fill: rgb(100.000000%,100.000000%,100.000000%);stroke: none;"></path>
  <path d="M110.247467 117.210556C110.247467 116.417862,109.932526 115.657715,109.372040 115.097244C108.811569 114.536758,108.051422 114.221817,107.258728 114.221817C106.466034 114.221817,105.705887 114.536758,105.145416 115.097244C104.584930 115.657715,104.269989 116.417862,104.269989 117.210556C104.269989 118.003250,104.584930 118.763397,105.145416 119.323868C105.705887 119.884354,106.466034 120.199295,107.258728 120.199295C108.051422 120.199295,108.811569 119.884354,109.372040 119.323868C109.932526 118.763397,110.247467 118.003250,110.247467 117.210556Z" style="fill: rgb(100.000000%,100.000000%,100.000000%);stroke: none;"></path>
  <path d="M101.904388 119.497787C101.904388 118.705093,101.589447 117.944946,101.028961 117.384476C100.468491 116.823990,99.708344 116.509048,98.915649 116.509048C98.122955 116.509048,97.362808 116.823990,96.802338 117.384476C96.241852 117.944946,95.926910 118.705093,95.926910 119.497787C95.926910 120.290482,96.241852 121.050629,96.802338 121.611099C97.362808 122.171585,98.122955 122.486526,98.915649 122.486526C99.708344 122.486526,100.468491 122.171585,101.028961 121.611099C101.589447 121.050629,101.904388 120.290482,101.904388 119.497787Z" style="fill: rgb(100.000000%,100.000000%,100.000000%);stroke: none;"></path>
  <path d="M119.022156 108.623428C119.022156 107.830734,118.707214 107.070587,118.146729 106.510117C117.586258 105.949631,116.826111 105.634689,116.033417 105.634689C115.240723 105.634689,114.480576 105.949631,113.920105 106.510117C113.359619 107.070587,113.044678 107.830734,113.044678 108.623428C113.044678 109.416122,113.359619 110.176270,113.920105 110.736740C114.480576 111.297226,115.240723 111.612167,116.033417 111.612167C116.826111 111.612167,117.586258 111.297226,118.146729 110.736740C118.707214 110.176270,119.022156 109.416122,119.022156 108.623428Z" style="fill: rgb(100.000000%,100.000000%,100.000000%);stroke: none;"></path>
  <path d="M113.282822 113.731232C113.282822 112.938538,112.967880 112.178391,112.407394 111.617920C111.846924 111.057434,111.086777 110.742493,110.294083 110.742493C109.501389 110.742493,108.741241 111.057434,108.180771 111.617920C107.620285 112.178391,107.305344 112.938538,107.305344 113.731232C107.305344 114.523926,107.620285 115.284073,108.180771 115.844543C108.741241 116.405029,109.501389 116.719971,110.294083 116.719971C111.086777 116.719971,111.846924 116.405029,112.407394 115.844543C112.967880 115.284073,113.282822 114.523926,113.282822 113.731232Z" style="fill: rgb(100.000000%,100.000000%,100.000000%);stroke: none;"></path>
  <path d="M126.992310 102.493500C126.992310 101.700806,126.677368 100.940659,126.116882 100.380188C125.556412 99.819702,124.796265 99.504761,124.003571 99.504761C123.210876 99.504761,122.450729 99.819702,121.890259 100.380188C121.329773 100.940659,121.014832 101.700806,121.014832 102.493500C121.014832 103.286194,121.329773 104.046341,121.890259 104.606812C122.450729 105.167297,123.210876 105.482239,124.003571 105.482239C124.796265 105.482239,125.556412 105.167297,126.116882 104.606812C126.677368 104.046341,126.992310 103.286194,126.992310 102.493500Z" style="fill: rgb(100.000000%,100.000000%,100.000000%);stroke: none;"></path>
  <path d="M121.689270 106.713837C121.689270 105.921143,121.374329 105.160995,120.813843 104.600525C120.253372 104.040039,119.493225 103.725098,118.700531 103.725098C117.907837 103.725098,117.147690 104.040039,116.587219 104.600525C116.026733 105.160995,115.711792 105.921143,115.711792 106.713837C115.711792 107.506531,116.026733 108.266678,116.587219 108.827148C117.147690 109.387634,117.907837 109.702576,118.700531 109.702576C119.493225 109.702576,120.253372 109.387634,120.813843 108.827148C121.374329 108.266678,121.689270 107.506531,121.689270 106.713837Z" style="fill: rgb(100.000000%,100.000000%,100.000000%);stroke: none;"></path>
  <path d="M137.598160 93.303467C137.598160 92.510773,137.283218 91.750626,136.722733 91.190155C136.162262 90.629669,135.402115 90.314728,134.609421 90.314728C133.816727 90.314728,133.056580 90.629669,132.496109 91.190155C131.935623 91.750626,131.620682 92.510773,131.620682 93.303467C131.620682 94.096161,131.935623 94.856308,132.496109 95.416779C133.056580 95.977264,133.816727 96.292206,134.609421 96.292206C135.402115 96.292206,136.162262 95.977264,136.722733 95.416779C137.283218 94.856308,137.598160 94.096161,137.598160 93.303467Z" style="fill: rgb(100.000000%,100.000000%,100.000000%);stroke: none;"></path>
  <path d="M129.611496 100.165237C129.611496 99.372543,129.296555 98.612396,128.736069 98.051926C128.175598 97.491440,127.415451 97.176498,126.622757 97.176498C125.830063 97.176498,125.069916 97.491440,124.509445 98.051926C123.948959 98.612396,123.634018 99.372543,123.634018 100.165237C123.634018 100.957932,123.948959 101.718079,124.509445 102.278549C125.069916 102.839035,125.830063 103.153976,126.622757 103.153976C127.415451 103.153976,128.175598 102.839035,128.736069 102.278549C129.296555 101.718079,129.611496 100.957932,129.611496 100.165237Z" style="fill: rgb(100.000000%,100.000000%,100.000000%);stroke: none;"></path>
  <path d="M158.754257 76.804657C158.754257 76.011963,158.439316 75.251816,157.878830 74.691345C157.318359 74.130859,156.558212 73.815918,155.765518 73.815918C154.972824 73.815918,154.212677 74.130859,153.652206 74.691345C153.091721 75.251816,152.776779 76.011963,152.776779 76.804657C152.776779 77.597351,153.091721 78.357498,153.652206 78.917969C154.212677 79.478455,154.972824 79.793396,155.765518 79.793396C156.558212 79.793396,157.318359 79.478455,157.878830 78.917969C158.439316 78.357498,158.754257 77.597351,158.754257 76.804657Z" style="fill: rgb(100.000000%,100.000000%,100.000000%);stroke: none;"></path>
  <path d="M143.080856 88.906784C143.080856 88.114090,142.765915 87.353943,142.205429 86.793472C141.644958 86.232986,140.884811 85.918045,140.092117 85.918045C139.299423 85.918045,138.539276 86.232986,137.978806 86.793472C137.418320 87.353943,137.103378 88.114090,137.103378 88.906784C137.103378 89.699478,137.418320 90.459625,137.978806 91.020096C138.539276 91.580582,139.299423 91.895523,140.092117 91.895523C140.884811 91.895523,141.644958 91.580582,142.205429 91.020096C142.765915 90.459625,143.080856 89.699478,143.080856 88.906784Z" style="fill: rgb(100.000000%,100.000000%,100.000000%);stroke: none;"></path>
  <path d="M181.646072 40.324738C181.646072 39.532043,181.331131 38.771896,180.770645 38.211426C180.210175 37.650940,179.450027 37.335999,178.657333 37.335999C177.864639 37.335999,177.104492 37.650940,176.544022 38.211426C175.983536 38.771896,175.668594 39.532043,175.668594 40.324738C175.668594 41.117432,175.983536 41.877579,176.544022 42.438049C177.104492 42.998535,177.864639 43.313477,178.657333 43.313477C179.450027 43.313477,180.210175 42.998535,180.770645 42.438049C181.331131 41.877579,181.646072 41.117432,181.646072 40.324738Z" style="fill: rgb(100.000000%,100.000000%,100.000000%);stroke: none;"></path>
  <path d="M169.409714 68.940750C169.409714 68.148056,169.094772 67.387909,168.534286 66.827438C167.973816 66.266953,167.213669 65.952011,166.420975 65.952011C165.628281 65.952011,164.868134 66.266953,164.307663 66.827438C163.747177 67.387909,163.432236 68.148056,163.432236 68.940750C163.432236 69.733444,163.747177 70.493591,164.307663 71.054062C164.868134 71.614548,165.628281 71.929489,166.420975 71.929489C167.213669 71.929489,167.973816 71.614548,168.534286 71.054062C169.094772 70.493591,169.409714 69.733444,169.409714 68.940750Z" style="fill: rgb(100.000000%,100.000000%,100.000000%);stroke: none;"></path>
  <path d="M145.126801 2.757141C145.126801 1.964447,144.811859 1.204300,144.251373 0.643829C143.690903 0.083344,142.930756 -0.231598,142.138062 -0.231598C141.345367 -0.231598,140.585220 0.083344,140.024750 0.643829C139.464264 1.204300,139.149323 1.964447,139.149323 2.757141C139.149323 3.549835,139.464264 4.309982,140.024750 4.870453C140.585220 5.430939,141.345367 5.745880,142.138062 5.745880C142.930756 5.745880,143.690903 5.430939,144.251373 4.870453C144.811859 4.309982,145.126801 3.549835,145.126801 2.757141Z" style="fill: rgb(100.000000%,100.000000%,100.000000%);stroke: none;"></path>
  <path d="M175.649506 20.681030C175.649506 19.888336,175.334564 19.128189,174.774078 18.567719C174.213608 18.007233,173.453461 17.692291,172.660767 17.692291C171.868073 17.692291,171.107925 18.007233,170.547455 18.567719C169.986969 19.128189,169.672028 19.888336,169.672028 20.681030C169.672028 21.473724,169.986969 22.233871,170.547455 22.794342C171.107925 23.354828,171.868073 23.669769,172.660767 23.669769C173.453461 23.669769,174.213608 23.354828,174.774078 22.794342C175.334564 22.233871,175.649506 21.473724,175.649506 20.681030Z" style="fill: rgb(100.000000%,100.000000%,100.000000%);stroke: none;"></path>
  <path d="M105.163330 30.967087C105.163330 30.174393,104.848389 29.414246,104.287903 28.853775C103.727432 28.293289,102.967285 27.978348,102.174591 27.978348C101.381897 27.978348,100.621750 28.293289,100.061279 28.853775C99.500793 29.414246,99.185852 30.174393,99.185852 30.967087C99.185852 31.759781,99.500793 32.519928,100.061279 33.080399C100.621750 33.640884,101.381897 33.955826,102.174591 33.955826C102.967285 33.955826,103.727432 33.640884,104.287903 33.080399C104.848389 32.519928,105.163330 31.759781,105.163330 30.967087Z" style="fill: rgb(100.000000%,100.000000%,100.000000%);stroke: none;"></path>
  <path d="M126.207275 6.209732C126.207275 5.417038,125.892334 4.656891,125.331848 4.096420C124.771378 3.535934,124.011230 3.220993,123.218536 3.220993C122.425842 3.220993,121.665695 3.535934,121.105225 4.096420C120.544739 4.656891,120.229797 5.417038,120.229797 6.209732C120.229797 7.002426,120.544739 7.762573,121.105225 8.323044C121.665695 8.883530,122.425842 9.198471,123.218536 9.198471C124.011230 9.198471,124.771378 8.883530,125.331848 8.323044C125.892334 7.762573,126.207275 7.002426,126.207275 6.209732Z" style="fill: rgb(100.000000%,100.000000%,100.000000%);stroke: none;"></path>
  <path d="M106.529633 70.847443C106.529633 70.054749,106.214691 69.294601,105.654205 68.734131C105.093735 68.173645,104.333588 67.858704,103.540894 67.858704C102.748199 67.858704,101.988052 68.173645,101.427582 68.734131C100.867096 69.294601,100.552155 70.054749,100.552155 70.847443C100.552155 71.640137,100.867096 72.400284,101.427582 72.960754C101.988052 73.521240,102.748199 73.836182,103.540894 73.836182C104.333588 73.836182,105.093735 73.521240,105.654205 72.960754C106.214691 72.400284,106.529633 71.640137,106.529633 70.847443Z" style="fill: rgb(100.000000%,100.000000%,100.000000%);stroke: none;"></path>
  <path d="M104.011856 47.015579C104.011856 46.222885,103.696915 45.462738,103.136429 44.902267C102.575958 44.341782,101.815811 44.026840,101.023117 44.026840C100.230423 44.026840,99.470276 44.341782,98.909805 44.902267C98.349319 45.462738,98.034378 46.222885,98.034378 47.015579C98.034378 47.808273,98.349319 48.568420,98.909805 49.128891C99.470276 49.689377,100.230423 50.004318,101.023117 50.004318C101.815811 50.004318,102.575958 49.689377,103.136429 49.128891C103.696915 48.568420,104.011856 47.808273,104.011856 47.015579Z" style="fill: rgb(100.000000%,100.000000%,100.000000%);stroke: none;"></path>
  <path d="M109.389008 92.295380C109.389008 91.502686,109.074066 90.742538,108.513580 90.182068C107.953110 89.621582,107.192963 89.306641,106.400269 89.306641C105.607574 89.306641,104.847427 89.621582,104.286957 90.182068C103.726471 90.742538,103.411530 91.502686,103.411530 92.295380C103.411530 93.088074,103.726471 93.848221,104.286957 94.408691C104.847427 94.969177,105.607574 95.284119,106.400269 95.284119C107.192963 95.284119,107.953110 94.969177,108.513580 94.408691C109.074066 93.848221,109.389008 93.088074,109.389008 92.295380Z" style="fill: rgb(100.000000%,100.000000%,100.000000%);stroke: none;"></path>
  <path d="M108.223190 79.355667C108.223190 78.562973,107.908249 77.802826,107.347763 77.242355C106.787292 76.681870,106.027145 76.366928,105.234451 76.366928C104.441757 76.366928,103.681610 76.681870,103.121140 77.242355C102.560654 77.802826,102.245712 78.562973,102.245712 79.355667C102.245712 80.148361,102.560654 80.908508,103.121140 81.468979C103.681610 82.029465,104.441757 82.344406,105.234451 82.344406C106.027145 82.344406,106.787292 82.029465,107.347763 81.468979C107.908249 80.908508,108.223190 80.148361,108.223190 79.355667Z" style="fill: rgb(100.000000%,100.000000%,100.000000%);stroke: none;"></path>
  <path d="M112.396149 104.355682C112.396149 103.562988,112.081207 102.802841,111.520721 102.242371C110.960251 101.681885,110.200104 101.366943,109.407410 101.366943C108.614716 101.366943,107.854568 101.681885,107.294098 102.242371C106.733612 102.802841,106.418671 103.562988,106.418671 104.355682C106.418671 105.148376,106.733612 105.908524,107.294098 106.468994C107.854568 107.029480,108.614716 107.344421,109.407410 107.344421C110.200104 107.344421,110.960251 107.029480,111.520721 106.468994C112.081207 105.908524,112.396149 105.148376,112.396149 104.355682Z" style="fill: rgb(100.000000%,100.000000%,100.000000%);stroke: none;"></path>
  <path d="M109.559372 96.689331C109.559372 95.896637,109.244431 95.136490,108.683945 94.576019C108.123474 94.015533,107.363327 93.700592,106.570633 93.700592C105.777939 93.700592,105.017792 94.015533,104.457321 94.576019C103.896835 95.136490,103.581894 95.896637,103.581894 96.689331C103.581894 97.482025,103.896835 98.242172,104.457321 98.802643C105.017792 99.363129,105.777939 99.678070,106.570633 99.678070C107.363327 99.678070,108.123474 99.363129,108.683945 98.802643C109.244431 98.242172,109.559372 97.482025,109.559372 96.689331Z" style="fill: rgb(100.000000%,100.000000%,100.000000%);stroke: none;"></path>
  <path d="M118.722824 114.583282C118.722824 113.790588,118.407883 113.030441,117.847397 112.469971C117.286926 111.909485,116.526779 111.594543,115.734085 111.594543C114.941391 111.594543,114.181244 111.909485,113.620773 112.469971C113.060287 113.030441,112.745346 113.790588,112.745346 114.583282C112.745346 115.375977,113.060287 116.136124,113.620773 116.696594C114.181244 117.257080,114.941391 117.572021,115.734085 117.572021C116.526779 117.572021,117.286926 117.257080,117.847397 116.696594C118.407883 116.136124,118.722824 115.375977,118.722824 114.583282Z" style="fill: rgb(100.000000%,100.000000%,100.000000%);stroke: none;"></path>
  <path d="M114.688095 107.474808C114.688095 106.682114,114.373154 105.921967,113.812668 105.361496C113.252197 104.801010,112.492050 104.486069,111.699356 104.486069C110.906662 104.486069,110.146515 104.801010,109.586044 105.361496C109.025558 105.921967,108.710617 106.682114,108.710617 107.474808C108.710617 108.267502,109.025558 109.027649,109.586044 109.588120C110.146515 110.148605,110.906662 110.463547,111.699356 110.463547C112.492050 110.463547,113.252197 110.148605,113.812668 109.588120C114.373154 109.027649,114.688095 108.267502,114.688095 107.474808Z" style="fill: rgb(100.000000%,100.000000%,100.000000%);stroke: none;"></path>
  <path d="M127.679977 123.814240C127.679977 123.021545,127.365036 122.261398,126.804550 121.700928C126.244080 121.140442,125.483932 120.825500,124.691238 120.825500C123.898544 120.825500,123.138397 121.140442,122.577927 121.700928C122.017441 122.261398,121.702499 123.021545,121.702499 123.814240C121.702499 124.606934,122.017441 125.367081,122.577927 125.927551C123.138397 126.488037,123.898544 126.802979,124.691238 126.802979C125.483932 126.802979,126.244080 126.488037,126.804550 125.927551C127.365036 125.367081,127.679977 124.606934,127.679977 123.814240Z" style="fill: rgb(100.000000%,100.000000%,100.000000%);stroke: none;"></path>
  <path d="M120.471924 118.774597C120.471924 117.981903,120.156982 117.221756,119.596497 116.661285C119.036026 116.100800,118.275879 115.785858,117.483185 115.785858C116.690491 115.785858,115.930344 116.100800,115.369873 116.661285C114.809387 117.221756,114.494446 117.981903,114.494446 118.774597C114.494446 119.567291,114.809387 120.327438,115.369873 120.887909C115.930344 121.448395,116.690491 121.763336,117.483185 121.763336C118.275879 121.763336,119.036026 121.448395,119.596497 120.887909C120.156982 120.327438,120.471924 119.567291,120.471924 118.774597Z" style="fill: rgb(100.000000%,100.000000%,100.000000%);stroke: none;"></path>
  <path d="M141.490494 124.045181C141.490494 123.252487,141.175552 122.492340,140.615067 121.931870C140.054596 121.371384,139.294449 121.056442,138.501755 121.056442C137.709061 121.056442,136.948914 121.371384,136.388443 121.931870C135.827957 122.492340,135.513016 123.252487,135.513016 124.045181C135.513016 124.837875,135.827957 125.598022,136.388443 126.158493C136.948914 126.718979,137.709061 127.033920,138.501755 127.033920C139.294449 127.033920,140.054596 126.718979,140.615067 126.158493C141.175552 125.598022,141.490494 124.837875,141.490494 124.045181Z" style="fill: rgb(100.000000%,100.000000%,100.000000%);stroke: none;"></path>
  <path d="M132.277161 124.012466C132.277161 123.219772,131.962219 122.459625,131.401733 121.899155C130.841263 121.338669,130.081116 121.023727,129.288422 121.023727C128.495728 121.023727,127.735580 121.338669,127.175110 121.899155C126.614624 122.459625,126.299683 123.219772,126.299683 124.012466C126.299683 124.805161,126.614624 125.565308,127.175110 126.125778C127.735580 126.686264,128.495728 127.001205,129.288422 127.001205C130.081116 127.001205,130.841263 126.686264,131.401733 126.125778C131.962219 125.565308,132.277161 124.805161,132.277161 124.012466Z" style="fill: rgb(100.000000%,100.000000%,100.000000%);stroke: none;"></path>
  <path d="M161.431046 130.791031C161.431046 129.998337,161.116104 129.238190,160.555618 128.677719C159.995148 128.117233,159.235001 127.802292,158.442307 127.802292C157.649612 127.802292,156.889465 128.117233,156.328995 128.677719C155.768509 129.238190,155.453568 129.998337,155.453568 130.791031C155.453568 131.583725,155.768509 132.343872,156.328995 132.904343C156.889465 133.464828,157.649612 133.779770,158.442307 133.779770C159.235001 133.779770,159.995148 133.464828,160.555618 132.904343C161.116104 132.343872,161.431046 131.583725,161.431046 130.791031Z" style="fill: rgb(100.000000%,100.000000%,100.000000%);stroke: none;"></path>
  <path d="M146.406616 123.957825C146.406616 123.165131,146.091675 122.404984,145.531189 121.844513C144.970718 121.284027,144.210571 120.969086,143.417877 120.969086C142.625183 120.969086,141.865036 121.284027,141.304565 121.844513C140.744080 122.404984,140.429138 123.165131,140.429138 123.957825C140.429138 124.750519,140.744080 125.510666,141.304565 126.071136C141.865036 126.631622,142.625183 126.946564,143.417877 126.946564C144.210571 126.946564,144.970718 126.631622,145.531189 126.071136C146.091675 125.510666,146.406616 124.750519,146.406616 123.957825Z" style="fill: rgb(100.000000%,100.000000%,100.000000%);stroke: none;"></path>
  <path d="M153.245361 174.490250C153.245361 173.697556,152.930420 172.937408,152.369934 172.376938C151.809464 171.816452,151.049316 171.501511,150.256622 171.501511C149.463928 171.501511,148.703781 171.816452,148.143311 172.376938C147.582825 172.937408,147.267883 173.697556,147.267883 174.490250C147.267883 175.282944,147.582825 176.043091,148.143311 176.603561C148.703781 177.164047,149.463928 177.478989,150.256622 177.478989C151.049316 177.478989,151.809464 177.164047,152.369934 176.603561C152.930420 176.043091,153.245361 175.282944,153.245361 174.490250Z" style="fill: rgb(100.000000%,100.000000%,100.000000%);stroke: none;"></path>
  <path d="M164.691284 144.011307C164.691284 143.218613,164.376343 142.458466,163.815857 141.897995C163.255386 141.337509,162.495239 141.022568,161.702545 141.022568C160.909851 141.022568,160.149704 141.337509,159.589233 141.897995C159.028748 142.458466,158.713806 143.218613,158.713806 144.011307C158.713806 144.804001,159.028748 145.564148,159.589233 146.124619C160.149704 146.685104,160.909851 147.000046,161.702545 147.000046C162.495239 147.000046,163.255386 146.685104,163.815857 146.124619C164.376343 145.564148,164.691284 144.804001,164.691284 144.011307Z" style="fill: rgb(100.000000%,100.000000%,100.000000%);stroke: none;"></path>
  <path d="M110.595520 189.988647C88.325623 200.794464,61.702835 188.828262,55.000000 165.000000C51.285156 151.793900,55.460297 138.031815,55.641586 124.387222C55.737686 117.154541,54.695175 109.941849,55.000000 102.713486C55.269897 96.313507,56.493073 89.610184,53.386475 83.972092C47.745987 73.735291,33.624191 72.920883,23.029663 79.901230C6.201279 90.988846,2.612686 113.445465,9.598663 133.020889C16.796051 153.188690,34.717010 168.456467,55.000000 165.000000C69.041428 162.607178,79.408127 151.302353,84.320923 137.784744C86.724457 131.171417,87.828720 124.135239,90.548065 117.642029C91.699554 114.892517,93.058517 111.916397,91.675217 109.303253C90.416931 106.926254,87.565018 106.243134,84.981232 105.472488C80.351593 104.091629,75.986465 101.805832,71.197372 101.112320C65.775620 100.327179,60.358765 101.634857,55.000000 102.713486C50.285843 103.662354,45.441360 104.430771,40.753876 103.320999C30.319336 100.850586,23.891647 90.818802,23.029663 79.901230C21.373795 58.928665,37.435837 42.319443,54.524597 29.429398C72.604462 15.791763,95.524994 6.060791,112.052444 19.346191C122.441254 27.697128,124.728760 43.368546,136.361252 50.174240C146.903122 56.341873,160.376434 52.237411,171.457413 57.162506C190.205032 65.495163,192.083679 89.522491,188.126007 111.099289C184.500443 130.865448,176.287628 151.230164,157.394196 155.483856C145.470596 158.168350,133.146225 152.062408,130.955414 140.626236C129.878967 135.007065,131.948105 129.453445,133.709641 124.028168C135.184784 119.484940,136.449936 114.741882,135.497299 110.052826C134.579605 105.535767,131.726715 101.772232,129.279724 97.882492C126.721832 93.816483,124.319916 89.318909,119.865005 87.485855C115.473267 85.678802,110.663605 87.127838,106.011002 87.974823C100.966202 88.893204,95.522186 89.199585,91.727814 92.683075C88.111374 96.003204,87.244080 101.156967,84.981232 105.472488C83.491257 108.314072,81.461365 111.318451,82.869385 114.163147C84.194336 116.840012,87.543152 117.221283,90.548065 117.642029C94.710953 118.224915,98.915649 119.497787,102.988388 118.381256C107.258728 117.210556,110.294083 113.731232,113.587051 110.800613C116.033417 108.623428,118.700531 106.713837,121.262543 104.674896C124.003571 102.493500,126.622757 100.165237,129.279724 97.882492C134.609421 93.303467,140.092117 88.906784,145.653641 84.612488C155.765518 76.804657,166.420975 68.940750,171.457413 57.162506C178.657333 40.324738,172.660767 20.681030,156.960434 11.461304C142.138062 2.757141,123.218536 6.209732,112.052444 19.346191C102.174591 30.967087,101.023117 47.015579,102.631729 62.241776C103.540894 70.847443,105.234451 79.355667,106.011002 87.974823C106.400269 92.295380,106.570633 96.689331,108.078613 100.764633C109.407410 104.355682,111.699356 107.474808,113.587051 110.800613C115.734085 114.583282,117.483185 118.774597,121.063080 121.277542C124.691238 123.814240,129.288422 124.012466,133.709641 124.028168C138.501755 124.045181,143.417877 123.957825,147.790985 125.946747C158.442307 130.791031,161.702545 144.011307,157.394196 155.483856C150.256622 174.490250,128.830841 181.140488,110.595520 189.988647" style="stroke:rgb(0.000000%,0.000000%,0.000000%); stroke-width: 0.498138;stroke-linecap: round;stroke-linejoin: round;stroke-miterlimit: 10.000000;fill: none;"></path>
  <path d="M110.595520 189.988647C88.325623 200.794464,61.702835 188.828262,55.000000 165.000000" style="stroke:rgb(0.000000%,0.000000%,0.000000%); stroke-width: 1.494400;stroke-linecap: round;stroke-linejoin: round;stroke-miterlimit: 10.000000;fill: none;"></path>
  <path d="M157.394196 155.483856C150.256622 174.490250,128.830841 181.140488,110.595520 189.988647" style="stroke:rgb(0.000000%,0.000000%,0.000000%); stroke-width: 1.494400;stroke-linecap: round;stroke-linejoin: round;stroke-miterlimit: 10.000000;fill: none;"></path>
  <path d="M57.988739 165.000000C57.988739 164.207306,57.673798 163.447159,57.113312 162.886688C56.552841 162.326202,55.792694 162.011261,55.000000 162.011261C54.207306 162.011261,53.447159 162.326202,52.886688 162.886688C52.326202 163.447159,52.011261 164.207306,52.011261 165.000000C52.011261 165.792694,52.326202 166.552841,52.886688 167.113312C53.447159 167.673798,54.207306 167.988739,55.000000 167.988739C55.792694 167.988739,56.552841 167.673798,57.113312 167.113312C57.673798 166.552841,57.988739 165.792694,57.988739 165.000000Z" style="fill: rgb(100.000000%,100.000000%,100.000000%);stroke: none;"></path>
  <path d="M27.392242 157.869553C35.307526 163.775406,44.858505 166.728226,55.000000 165.000000C62.020721 163.803589,68.122757 160.379166,73.083710 155.564148" style="stroke:rgb(0.000000%,0.000000%,0.000000%); stroke-width: 0.498138;stroke-linecap: round;stroke-linejoin: round;stroke-miterlimit: 10.000000;fill: none;"></path>
  <path d="M26.018402 79.901230C26.018402 79.108536,25.703461 78.348389,25.142975 77.787918C24.582504 77.227432,23.822357 76.912491,23.029663 76.912491C22.236969 76.912491,21.476822 77.227432,20.916351 77.787918C20.355865 78.348389,20.040924 79.108536,20.040924 79.901230C20.040924 80.693924,20.355865 81.454071,20.916351 82.014542C21.476822 82.575027,22.236969 82.889969,23.029663 82.889969C23.822357 82.889969,24.582504 82.575027,25.142975 82.014542C25.703461 81.454071,26.018402 80.693924,26.018402 79.901230Z" style="fill: rgb(100.000000%,100.000000%,100.000000%);stroke: none;"></path>
  <path d="M28.302048 94.778793C25.283066 90.597351,23.460648 85.360016,23.029663 79.901230C22.201721 69.414948,25.803268 60.019501,31.747894 51.634369" style="stroke:rgb(0.000000%,0.000000%,0.000000%); stroke-width: 0.498138;stroke-linecap: round;stroke-linejoin: round;stroke-miterlimit: 10.000000;fill: none;"></path>
  <path d="M93.536804 117.642029C93.536804 116.849335,93.221863 116.089188,92.661377 115.528717C92.100906 114.968231,91.340759 114.653290,90.548065 114.653290C89.755371 114.653290,88.995224 114.968231,88.434753 115.528717C87.874268 116.089188,87.559326 116.849335,87.559326 117.642029C87.559326 118.434723,87.874268 119.194870,88.434753 119.755341C88.995224 120.315826,89.755371 120.630768,90.548065 120.630768C91.340759 120.630768,92.100906 120.315826,92.661377 119.755341C93.221863 119.194870,93.536804 118.434723,93.536804 117.642029Z" style="fill: rgb(100.000000%,100.000000%,100.000000%);stroke: none;"></path>
  <path d="M87.316071 127.668320C88.232498 124.270966,89.188400 120.888626,90.548065 117.642029C91.123810 116.267273,91.751434 114.835861,92.062195 113.421494" style="stroke:rgb(0.000000%,0.000000%,0.000000%); stroke-width: 0.498138;stroke-linecap: round;stroke-linejoin: round;stroke-miterlimit: 10.000000;fill: none;"></path>
  <path d="M57.988739 102.713486C57.988739 101.920792,57.673798 101.160645,57.113312 100.600174C56.552841 100.039688,55.792694 99.724747,55.000000 99.724747C54.207306 99.724747,53.447159 100.039688,52.886688 100.600174C52.326202 101.160645,52.011261 101.920792,52.011261 102.713486C52.011261 103.506180,52.326202 104.266327,52.886688 104.826797C53.447159 105.387283,54.207306 105.702225,55.000000 105.702225C55.792694 105.702225,56.552841 105.387283,57.113312 104.826797C57.673798 104.266327,57.988739 103.506180,57.988739 102.713486Z" style="fill: rgb(100.000000%,100.000000%,100.000000%);stroke: none;"></path>
  <path d="M55.242523 113.548721C55.032013 109.937927,54.847595 106.327667,55.000000 102.713486C55.134949 99.513489,55.508224 96.237656,55.459427 93.057068" style="stroke:rgb(0.000000%,0.000000%,0.000000%); stroke-width: 0.498138;stroke-linecap: round;stroke-linejoin: round;stroke-miterlimit: 10.000000;fill: none;"></path>
  <path d="M115.041183 19.346191C115.041183 18.553497,114.726242 17.793350,114.165756 17.232880C113.605286 16.672394,112.845139 16.357452,112.052444 16.357452C111.259750 16.357452,110.499603 16.672394,109.939133 17.232880C109.378647 17.793350,109.063705 18.553497,109.063705 19.346191C109.063705 20.138885,109.378647 20.899033,109.939133 21.459503C110.499603 22.019989,111.259750 22.334930,112.052444 22.334930C112.845139 22.334930,113.605286 22.019989,114.165756 21.459503C114.726242 20.899033,115.041183 20.138885,115.041183 19.346191Z" style="fill: rgb(100.000000%,100.000000%,100.000000%);stroke: none;"></path>
  <path d="M83.870682 14.291641C93.926727 11.814880,103.788727 12.703491,112.052444 19.346191C117.246857 23.521667,120.415939 29.527252,123.740479 35.339691" style="stroke:rgb(0.000000%,0.000000%,0.000000%); stroke-width: 0.498138;stroke-linecap: round;stroke-linejoin: round;stroke-miterlimit: 10.000000;fill: none;"></path>
  <path d="M160.382935 155.483856C160.382935 154.691162,160.067993 153.931015,159.507507 153.370544C158.947037 152.810059,158.186890 152.495117,157.394196 152.495117C156.601501 152.495117,155.841354 152.810059,155.280884 153.370544C154.720398 153.931015,154.405457 154.691162,154.405457 155.483856C154.405457 156.276550,154.720398 157.036697,155.280884 157.597168C155.841354 158.157654,156.601501 158.472595,157.394196 158.472595C158.186890 158.472595,158.947037 158.157654,159.507507 157.597168C160.067993 157.036697,160.382935 156.276550,160.382935 155.483856Z" style="fill: rgb(100.000000%,100.000000%,100.000000%);stroke: none;"></path>
  <path d="M178.485535 139.108749C173.617462 147.202408,166.840912 153.357010,157.394196 155.483856C151.432388 156.826111,145.370392 155.970734,140.524994 153.350281" style="stroke:rgb(0.000000%,0.000000%,0.000000%); stroke-width: 0.498138;stroke-linecap: round;stroke-linejoin: round;stroke-miterlimit: 10.000000;fill: none;"></path>
  <path d="M132.268463 97.882492C132.268463 97.089798,131.953522 96.329651,131.393036 95.769180C130.832565 95.208694,130.072418 94.893753,129.279724 94.893753C128.487030 94.893753,127.726883 95.208694,127.166412 95.769180C126.605927 96.329651,126.290985 97.089798,126.290985 97.882492C126.290985 98.675186,126.605927 99.435333,127.166412 99.995804C127.726883 100.556290,128.487030 100.871231,129.279724 100.871231C130.072418 100.871231,130.832565 100.556290,131.393036 99.995804C131.953522 99.435333,132.268463 98.675186,132.268463 97.882492Z" style="fill: rgb(100.000000%,100.000000%,100.000000%);stroke: none;"></path>
  <path d="M132.961990 103.732407C131.828186 101.740677,130.503220 99.827362,129.279724 97.882492C128.000778 95.849487,126.760818 93.708588,125.283737 91.846802" style="stroke:rgb(0.000000%,0.000000%,0.000000%); stroke-width: 0.498138;stroke-linecap: round;stroke-linejoin: round;stroke-miterlimit: 10.000000;fill: none;"></path>
  <path d="M87.969971 105.472488C87.969971 104.679794,87.655029 103.919647,87.094543 103.359177C86.534073 102.798691,85.773926 102.483749,84.981232 102.483749C84.188538 102.483749,83.428391 102.798691,82.867920 103.359177C82.307434 103.919647,81.992493 104.679794,81.992493 105.472488C81.992493 106.265182,82.307434 107.025330,82.867920 107.585800C83.428391 108.146286,84.188538 108.461227,84.981232 108.461227C85.773926 108.461227,86.534073 108.146286,87.094543 107.585800C87.655029 107.025330,87.969971 106.265182,87.969971 105.472488Z" style="fill: rgb(100.000000%,100.000000%,100.000000%);stroke: none;"></path>
  <path d="M87.846909 98.704529C86.895187 100.947418,86.112656 103.314728,84.981232 105.472488C84.236237 106.893280,83.356262 108.354782,82.838547 109.816666" style="stroke:rgb(0.000000%,0.000000%,0.000000%); stroke-width: 0.498138;stroke-linecap: round;stroke-linejoin: round;stroke-miterlimit: 10.000000;fill: none;"></path>
  <path d="M116.575790 110.800613C116.575790 110.007919,116.260849 109.247772,115.700363 108.687302C115.139893 108.126816,114.379745 107.811874,113.587051 107.811874C112.794357 107.811874,112.034210 108.126816,111.473740 108.687302C110.913254 109.247772,110.598312 110.007919,110.598312 110.800613C110.598312 111.593307,110.913254 112.353455,111.473740 112.913925C112.034210 113.474411,112.794357 113.789352,113.587051 113.789352C114.379745 113.789352,115.139893 113.474411,115.700363 112.913925C116.260849 112.353455,116.575790 111.593307,116.575790 110.800613Z" style="fill: rgb(100.000000%,100.000000%,100.000000%);stroke: none;"></path>
  <path d="M108.654251 115.250885C110.358490 113.868393,111.940567 112.265915,113.587051 110.800613C114.810242 109.712021,116.088608 108.690323,117.381439 107.685898" style="stroke:rgb(0.000000%,0.000000%,0.000000%); stroke-width: 0.498138;stroke-linecap: round;stroke-linejoin: round;stroke-miterlimit: 10.000000;fill: none;"></path>
  <path d="M174.446152 57.162506C174.446152 56.369812,174.131210 55.609665,173.570724 55.049194C173.010254 54.488708,172.250107 54.173767,171.457413 54.173767C170.664719 54.173767,169.904572 54.488708,169.344101 55.049194C168.783615 55.609665,168.468674 56.369812,168.468674 57.162506C168.468674 57.955200,168.783615 58.715347,169.344101 59.275818C169.904572 59.836304,170.664719 60.151245,171.457413 60.151245C172.250107 60.151245,173.010254 59.836304,173.570724 59.275818C174.131210 58.715347,174.446152 57.955200,174.446152 57.162506Z" style="fill: rgb(100.000000%,100.000000%,100.000000%);stroke: none;"></path>
  <path d="M160.458817 72.376389C165.016220 67.962158,168.939194 63.051620,171.457413 57.162506C175.057373 48.743622,175.358215 39.623245,172.796509 31.455124" style="stroke:rgb(0.000000%,0.000000%,0.000000%); stroke-width: 0.498138;stroke-linecap: round;stroke-linejoin: round;stroke-miterlimit: 10.000000;fill: none;"></path>
  <path d="M108.999741 87.974823C108.999741 87.182129,108.684799 86.421982,108.124313 85.861511C107.563843 85.301025,106.803696 84.986084,106.011002 84.986084C105.218307 84.986084,104.458160 85.301025,103.897690 85.861511C103.337204 86.421982,103.022263 87.182129,103.022263 87.974823C103.022263 88.767517,103.337204 89.527664,103.897690 90.088135C104.458160 90.648621,105.218307 90.963562,106.011002 90.963562C106.803696 90.963562,107.563843 90.648621,108.124313 90.088135C108.684799 89.527664,108.999741 88.767517,108.999741 87.974823Z" style="fill: rgb(100.000000%,100.000000%,100.000000%);stroke: none;"></path>
  <path d="M104.371109 75.103256C105.005203 79.383408,105.622726 83.665253,106.011002 87.974823C106.205643 90.135101,106.345551 92.313736,106.625305 94.461716" style="stroke:rgb(0.000000%,0.000000%,0.000000%); stroke-width: 0.498138;stroke-linecap: round;stroke-linejoin: round;stroke-miterlimit: 10.000000;fill: none;"></path>
  <path d="M136.698380 124.028168C136.698380 123.235474,136.383438 122.475327,135.822952 121.914856C135.262482 121.354370,134.502335 121.039429,133.709641 121.039429C132.916946 121.039429,132.156799 121.354370,131.596329 121.914856C131.035843 122.475327,130.720901 123.235474,130.720901 124.028168C130.720901 124.820862,131.035843 125.581009,131.596329 126.141479C132.156799 126.701965,132.916946 127.016907,133.709641 127.016907C134.502335 127.016907,135.262482 126.701965,135.822952 126.141479C136.383438 125.581009,136.698380 124.820862,136.698380 124.028168Z" style="fill: rgb(100.000000%,100.000000%,100.000000%);stroke: none;"></path>
  <path d="M127.088974 123.598236C129.244446 123.966843,131.499039 124.020325,133.709641 124.028168C136.105698 124.036682,138.532761 124.019089,140.907455 124.248001" style="stroke:rgb(0.000000%,0.000000%,0.000000%); stroke-width: 0.498138;stroke-linecap: round;stroke-linejoin: round;stroke-miterlimit: 10.000000;fill: none;"></path>
  <path d="M53.386475 83.972092C48.874069 75.782623,38.933578 73.623520,29.713470 76.661453" style="stroke:rgb(0.000000%,0.000000%,0.000000%); stroke-width: 0.498138;stroke-linecap: round;stroke-linejoin: round;stroke-miterlimit: 10.000000;fill: none;"></path>
  <path d="M32.091858 74.833008C31.274292 75.391052,30.479492 76.001694,29.713470 76.661453C30.721649 76.736618,31.715454 76.866852,32.688141 77.050354Z" style="stroke:rgb(0.000000%,0.000000%,0.000000%); stroke-width: 0.498138;fill: rgb(0.000000%,0.000000%,0.000000%);"></path>
  <path d="M84.320923 137.784744C86.243759 132.494064,87.335052 126.932755,89.086975 121.595337" style="stroke:rgb(0.000000%,0.000000%,0.000000%); stroke-width: 0.498138;stroke-linecap: round;stroke-linejoin: round;stroke-miterlimit: 10.000000;fill: none;"></path>
  <path d="M89.370621 124.581955C89.259918 123.587463,89.162430 122.592133,89.086975 121.595337C88.435471 122.353516,87.800598 123.126251,87.175644 123.907730Z" style="stroke:rgb(0.000000%,0.000000%,0.000000%); stroke-width: 0.498138;fill: rgb(0.000000%,0.000000%,0.000000%);"></path>
  <path d="M136.361252 50.174240C144.794785 55.108368,155.104446 53.468292,164.564438 55.136597" style="stroke:rgb(0.000000%,0.000000%,0.000000%); stroke-width: 0.498138;stroke-linecap: round;stroke-linejoin: round;stroke-miterlimit: 10.000000;fill: none;"></path>
  <path d="M161.658432 55.881821C162.622864 55.604584,163.591049 55.352371,164.564438 55.136597C163.723587 54.600876,162.860657 54.094574,161.982651 53.608658Z" style="stroke:rgb(0.000000%,0.000000%,0.000000%); stroke-width: 0.498138;fill: rgb(0.000000%,0.000000%,0.000000%);"></path>
  <path d="M130.955414 140.626236C130.094254 136.130875,131.246277 131.677475,132.643448 127.298187" style="stroke:rgb(0.000000%,0.000000%,0.000000%); stroke-width: 0.498138;stroke-linecap: round;stroke-linejoin: round;stroke-miterlimit: 10.000000;fill: none;"></path>
  <path d="M132.948380 130.282578C132.823441 129.293869,132.727371 128.296631,132.643448 127.298187C131.996780 128.063538,131.359543 128.836594,130.748734 129.624069Z" style="stroke:rgb(0.000000%,0.000000%,0.000000%); stroke-width: 0.498138;fill: rgb(0.000000%,0.000000%,0.000000%);"></path>
  <path d="M119.865005 87.485855C116.351608 86.040207,112.570724 86.678467,108.816772 87.425262" style="stroke:rgb(0.000000%,0.000000%,0.000000%); stroke-width: 0.498138;stroke-linecap: round;stroke-linejoin: round;stroke-miterlimit: 10.000000;fill: none;"></path>
  <path d="M111.342377 85.806046C110.490143 86.316315,109.651169 86.867706,108.816772 87.425262C109.801041 87.621033,110.784149 87.824402,111.747589 88.066238Z" style="stroke:rgb(0.000000%,0.000000%,0.000000%); stroke-width: 0.498138;fill: rgb(0.000000%,0.000000%,0.000000%);"></path>
  <path d="M82.869385 114.163147C83.929352 116.304642,86.284592 116.976959,88.722824 117.375641" style="stroke:rgb(0.000000%,0.000000%,0.000000%); stroke-width: 0.498138;stroke-linecap: round;stroke-linejoin: round;stroke-miterlimit: 10.000000;fill: none;"></path>
  <path d="M85.755875 117.819794C86.717957 117.796082,87.722824 117.610458,88.722824 117.375641C87.849686 116.834549,87.007904 116.255249,86.310837 115.591705Z" style="stroke:rgb(0.000000%,0.000000%,0.000000%); stroke-width: 0.498138;fill: rgb(0.000000%,0.000000%,0.000000%);"></path>
  <path d="M121.262543 104.674896C123.455368 102.929779,125.570221 101.090668,127.688828 99.256042" style="stroke:rgb(0.000000%,0.000000%,0.000000%); stroke-width: 0.498138;stroke-linecap: round;stroke-linejoin: round;stroke-miterlimit: 10.000000;fill: none;"></path>
  <path d="M126.341965 101.936707C126.793686 101.044617,127.240936 100.150162,127.688828 99.256042C126.739868 99.571548,125.791153 99.887756,124.840927 100.199127Z" style="stroke:rgb(0.000000%,0.000000%,0.000000%); stroke-width: 0.498138;fill: rgb(0.000000%,0.000000%,0.000000%);"></path>
  <path d="M145.653641 84.612488C153.743179 78.366196,162.180603 72.084015,167.810623 63.790497" style="stroke:rgb(0.000000%,0.000000%,0.000000%); stroke-width: 0.498138;stroke-linecap: round;stroke-linejoin: round;stroke-miterlimit: 10.000000;fill: none;"></path>
  <path d="M167.106781 66.706604C167.372452 65.741974,167.608292 64.770142,167.810623 63.790497C166.974838 64.340118,166.120865 64.860535,165.250916 65.354767Z" style="stroke:rgb(0.000000%,0.000000%,0.000000%); stroke-width: 0.498138;fill: rgb(0.000000%,0.000000%,0.000000%);"></path>
  <path d="M108.078613 100.764633C109.141647 103.637482,110.821106 106.208298,112.416870 108.824524" style="stroke:rgb(0.000000%,0.000000%,0.000000%); stroke-width: 0.498138;stroke-linecap: round;stroke-linejoin: round;stroke-miterlimit: 10.000000;fill: none;"></path>
  <path d="M109.991455 107.058807C110.794403 107.653152,111.608826 108.234894,112.416870 108.824524C112.262451 107.836212,112.097931 106.848984,111.950439 105.860931Z" style="stroke:rgb(0.000000%,0.000000%,0.000000%); stroke-width: 0.498138;fill: rgb(0.000000%,0.000000%,0.000000%);"></path>
  <path d="M121.063080 121.277542C123.965622 123.306915,127.488342 123.839645,131.044998 123.979599" style="stroke:rgb(0.000000%,0.000000%,0.000000%); stroke-width: 0.498138;stroke-linecap: round;stroke-linejoin: round;stroke-miterlimit: 10.000000;fill: none;"></path>
  <path d="M128.191330 124.904892C129.150253 124.645050,130.102356 124.327301,131.044998 123.979599C130.132599 123.558899,129.234665 123.110321,128.372910 122.615982Z" style="stroke:rgb(0.000000%,0.000000%,0.000000%); stroke-width: 0.498138;fill: rgb(0.000000%,0.000000%,0.000000%);"></path>
  <path d="M107.604874 192.698853L113.586166 192.698853L113.586166 185.278458L107.604874 185.278458Z" style="fill: rgb(100.000000%,100.000000%,100.000000%);stroke: none;"></path>
  <path d="M107.604874 194.698853L113.586166 194.698853L113.586166 187.278458L107.604874 187.278458Z" style="fill: rgb(100.000000%,100.000000%,100.000000%);stroke: none;"></path>
  <g transform="translate(108.104874 193.198853)" style="fill: rgb(0.000000%,0.000000%,0.000000%);">
    <use xlink:href="#GLYPHcmr10_49"></use>
  </g>
  <path d="M52.650940 127.097427L58.632233 127.097427L58.632233 119.677032L52.650940 119.677032Z" style="fill: rgb(100.000000%,100.000000%,100.000000%);stroke: none;"></path>
  <path d="M52.650940 129.097427L58.632233 129.097427L58.632233 121.677032L52.650940 121.677032Z" style="fill: rgb(100.000000%,100.000000%,100.000000%);stroke: none;"></path>
  <g transform="translate(53.150940 127.597427)" style="fill: rgb(0.000000%,0.000000%,0.000000%);">
    <use xlink:href="#GLYPHcmr10_50"></use>
  </g>
  <path d="M6.608017 135.731094L12.589310 135.731094L12.589310 128.310699L6.608017 128.310699Z" style="fill: rgb(100.000000%,100.000000%,100.000000%);stroke: none;"></path>
  <path d="M6.608017 137.731094L12.589310 137.731094L12.589310 130.310699L6.608017 130.310699Z" style="fill: rgb(100.000000%,100.000000%,100.000000%);stroke: none;"></path>
  <g transform="translate(7.108017 136.231094)" style="fill: rgb(0.000000%,0.000000%,0.000000%);">
    <use xlink:href="#GLYPHcmr10_51"></use>
  </g>
  <path d="M68.206726 103.822525L74.188019 103.822525L74.188019 96.402130L68.206726 96.402130Z" style="fill: rgb(100.000000%,100.000000%,100.000000%);stroke: none;"></path>
  <path d="M68.206726 105.822525L74.188019 105.822525L74.188019 98.402130L68.206726 98.402130Z" style="fill: rgb(100.000000%,100.000000%,100.000000%);stroke: none;"></path>
  <g transform="translate(68.706726 104.322525)" style="fill: rgb(0.000000%,0.000000%,0.000000%);">
    <use xlink:href="#GLYPHcmr10_52"></use>
  </g>
  <path d="M51.533951 32.139603L57.515244 32.139603L57.515244 24.719208L51.533951 24.719208Z" style="fill: rgb(100.000000%,100.000000%,100.000000%);stroke: none;"></path>
  <path d="M51.533951 34.139603L57.515244 34.139603L57.515244 26.719208L51.533951 26.719208Z" style="fill: rgb(100.000000%,100.000000%,100.000000%);stroke: none;"></path>
  <g transform="translate(52.033951 32.639603)" style="fill: rgb(0.000000%,0.000000%,0.000000%);">
    <use xlink:href="#GLYPHcmr10_53"></use>
  </g>
  <path d="M185.135361 113.809494L191.116653 113.809494L191.116653 106.389099L185.135361 106.389099Z" style="fill: rgb(100.000000%,100.000000%,100.000000%);stroke: none;"></path>
  <path d="M185.135361 115.809494L191.116653 115.809494L191.116653 108.389099L185.135361 108.389099Z" style="fill: rgb(100.000000%,100.000000%,100.000000%);stroke: none;"></path>
  <g transform="translate(185.635361 114.309494)" style="fill: rgb(0.000000%,0.000000%,0.000000%);">
    <use xlink:href="#GLYPHcmr10_54"></use>
  </g>
  <path d="M132.506653 112.763031L138.487946 112.763031L138.487946 105.342636L132.506653 105.342636Z" style="fill: rgb(100.000000%,100.000000%,100.000000%);stroke: none;"></path>
  <path d="M132.506653 114.763031L138.487946 114.763031L138.487946 107.342636L132.506653 107.342636Z" style="fill: rgb(100.000000%,100.000000%,100.000000%);stroke: none;"></path>
  <g transform="translate(133.006653 113.263031)" style="fill: rgb(0.000000%,0.000000%,0.000000%);">
    <use xlink:href="#GLYPHcmr10_55"></use>
  </g>
  <path d="M88.737167 95.393280L94.718460 95.393280L94.718460 87.972885L88.737167 87.972885Z" style="fill: rgb(100.000000%,100.000000%,100.000000%);stroke: none;"></path>
  <path d="M88.737167 97.393280L94.718460 97.393280L94.718460 89.972885L88.737167 89.972885Z" style="fill: rgb(100.000000%,100.000000%,100.000000%);stroke: none;"></path>
  <g transform="translate(89.237167 95.893280)" style="fill: rgb(0.000000%,0.000000%,0.000000%);">
    <use xlink:href="#GLYPHcmr10_56"></use>
  </g>
  <path d="M99.997742 121.091461L105.979034 121.091461L105.979034 113.671066L99.997742 113.671066Z" style="fill: rgb(100.000000%,100.000000%,100.000000%);stroke: none;"></path>
  <path d="M99.997742 123.091461L105.979034 123.091461L105.979034 115.671066L99.997742 115.671066Z" style="fill: rgb(100.000000%,100.000000%,100.000000%);stroke: none;"></path>
  <g transform="translate(100.497742 121.591461)" style="fill: rgb(0.000000%,0.000000%,0.000000%);">
    <use xlink:href="#GLYPHcmr10_57"></use>
  </g>
  <path d="M151.479080 14.171509L162.441788 14.171509L162.441788 6.751114L151.479080 6.751114Z" style="fill: rgb(100.000000%,100.000000%,100.000000%);stroke: none;"></path>
  <path d="M151.479080 16.171509L162.441788 16.171509L162.441788 8.751114L151.479080 8.751114Z" style="fill: rgb(100.000000%,100.000000%,100.000000%);stroke: none;"></path>
  <g transform="translate(151.979080 14.671509)" style="fill: rgb(0.000000%,0.000000%,0.000000%);">
    <use xlink:href="#GLYPHcmr10_49"></use>
    <use xlink:href="#GLYPHcmr10_48" x="5.000095"></use>
  </g>
  <path d="M97.150375 64.951981L108.113083 64.951981L108.113083 57.531586L97.150375 57.531586Z" style="fill: rgb(100.000000%,100.000000%,100.000000%);stroke: none;"></path>
  <path d="M97.150375 66.951981L108.113083 66.951981L108.113083 59.531586L97.150375 59.531586Z" style="fill: rgb(100.000000%,100.000000%,100.000000%);stroke: none;"></path>
  <g transform="translate(97.650375 65.451981)" style="fill: rgb(0.000000%,0.000000%,0.000000%);">
    <use xlink:href="#GLYPHcmr10_49"></use>
    <use xlink:href="#GLYPHcmr10_49" x="5.000095"></use>
  </g>
  <path d="M142.309631 128.656952L153.272339 128.656952L153.272339 121.236557L142.309631 121.236557Z" style="fill: rgb(100.000000%,100.000000%,100.000000%);stroke: none;"></path>
  <path d="M142.309631 130.656952L153.272339 130.656952L153.272339 123.236557L142.309631 123.236557Z" style="fill: rgb(100.000000%,100.000000%,100.000000%);stroke: none;"></path>
  <g transform="translate(142.809631 129.156952)" style="fill: rgb(0.000000%,0.000000%,0.000000%);">
    <use xlink:href="#GLYPHcmr10_49"></use>
    <use xlink:href="#GLYPHcmr10_50" x="5.000095"></use>
  </g>
</svg>
