<?xml version="1.0"?>
<!-- Created by MetaPost 1.999 on 2021.07.06:0006 -->
<svg version="1.1" xmlns="http://www.w3.org/2000/svg" xmlns:xlink="http://www.w3.org/1999/xlink" width="194.131134" height="197.473663" viewBox="0 0 194.131134 197.473663">
<!-- Original BoundingBox: -86.222137 -128.769409 107.908997 68.704254 -->
  <defs>
    <g transform="scale(0.009963,0.009963)" id="GLYPHcmr10_48">
      <path style="fill-rule: evenodd;" d="M460.000000 -320.000000C460.000000 -400.000000,455.000000 -480.000000,420.000000 -554.000000C374.000000 -650.000000,292.000000 -666.000000,250.000000 -666.000000C190.000000 -666.000000,117.000000 -640.000000,76.000000 -547.000000C44.000000 -478.000000,39.000000 -400.000000,39.000000 -320.000000C39.000000 -245.000000,43.000000 -155.000000,84.000000 -79.000000C127.000000 2.000000,200.000000 22.000000,249.000000 22.000000C303.000000 22.000000,379.000000 1.000000,423.000000 -94.000000C455.000000 -163.000000,460.000000 -241.000000,460.000000 -320.000000M249.000000 -0.000000C210.000000 -0.000000,151.000000 -25.000000,133.000000 -121.000000C122.000000 -181.000000,122.000000 -273.000000,122.000000 -332.000000C122.000000 -396.000000,122.000000 -462.000000,130.000000 -516.000000C149.000000 -635.000000,224.000000 -644.000000,249.000000 -644.000000C282.000000 -644.000000,348.000000 -626.000000,367.000000 -527.000000C377.000000 -471.000000,377.000000 -395.000000,377.000000 -332.000000C377.000000 -257.000000,377.000000 -189.000000,366.000000 -125.000000C351.000000 -30.000000,294.000000 -0.000000,249.000000 -0.000000"></path>
    </g>
    <g transform="scale(0.009963,0.009963)" id="GLYPHcmr10_49">
      <path style="fill-rule: evenodd;" d="M294.000000 -640.000000C294.000000 -664.000000,294.000000 -666.000000,271.000000 -666.000000C209.000000 -602.000000,121.000000 -602.000000,89.000000 -602.000000L89.000000 -571.000000C109.000000 -571.000000,168.000000 -571.000000,220.000000 -597.000000L220.000000 -79.000000C220.000000 -43.000000,217.000000 -31.000000,127.000000 -31.000000L95.000000 -31.000000L95.000000 -0.000000L257.000000 -0.000000L130.000000 -3.000000L217.000000 -3.000000L257.000000 -3.000000L297.000000 -3.000000L384.000000 -3.000000L419.000000 -0.000000L419.000000 -31.000000L387.000000 -31.000000C297.000000 -31.000000,294.000000 -42.000000,294.000000 -79.000000"></path>
    </g>
    <g transform="scale(0.009963,0.009963)" id="GLYPHcmr10_50">
      <path style="fill-rule: evenodd;" d="M127.000000 -77.000000L233.000000 -180.000000C389.000000 -318.000000,449.000000 -372.000000,449.000000 -472.000000C449.000000 -586.000000,359.000000 -666.000000,237.000000 -666.000000C124.000000 -666.000000,50.000000 -574.000000,50.000000 -485.000000C50.000000 -429.000000,100.000000 -429.000000,103.000000 -429.000000C120.000000 -429.000000,155.000000 -441.000000,155.000000 -482.000000C155.000000 -508.000000,137.000000 -534.000000,102.000000 -534.000000C94.000000 -534.000000,92.000000 -534.000000,89.000000 -533.000000C112.000000 -598.000000,166.000000 -635.000000,224.000000 -635.000000C315.000000 -635.000000,358.000000 -554.000000,358.000000 -472.000000C358.000000 -392.000000,308.000000 -313.000000,253.000000 -251.000000L61.000000 -37.000000C50.000000 -26.000000,50.000000 -24.000000,50.000000 -0.000000L421.000000 -0.000000L449.000000 -174.000000L424.000000 -174.000000C419.000000 -144.000000,412.000000 -100.000000,402.000000 -85.000000C395.000000 -77.000000,329.000000 -77.000000,307.000000 -77.000000"></path>
    </g>
    <g transform="scale(0.009963,0.009963)" id="GLYPHcmr10_51">
      <path style="fill-rule: evenodd;" d="M290.000000 -352.000000C372.000000 -379.000000,430.000000 -449.000000,430.000000 -528.000000C430.000000 -610.000000,342.000000 -666.000000,246.000000 -666.000000C145.000000 -666.000000,69.000000 -606.000000,69.000000 -530.000000C69.000000 -497.000000,91.000000 -478.000000,120.000000 -478.000000C151.000000 -478.000000,171.000000 -500.000000,171.000000 -529.000000C171.000000 -579.000000,124.000000 -579.000000,109.000000 -579.000000C140.000000 -628.000000,206.000000 -641.000000,242.000000 -641.000000C283.000000 -641.000000,338.000000 -619.000000,338.000000 -529.000000C338.000000 -517.000000,336.000000 -459.000000,310.000000 -415.000000C280.000000 -367.000000,246.000000 -364.000000,221.000000 -363.000000C213.000000 -362.000000,189.000000 -360.000000,182.000000 -360.000000C174.000000 -359.000000,167.000000 -358.000000,167.000000 -348.000000C167.000000 -337.000000,174.000000 -337.000000,191.000000 -337.000000L235.000000 -337.000000C317.000000 -337.000000,354.000000 -269.000000,354.000000 -171.000000C354.000000 -35.000000,285.000000 -6.000000,241.000000 -6.000000C198.000000 -6.000000,123.000000 -23.000000,88.000000 -82.000000C123.000000 -77.000000,154.000000 -99.000000,154.000000 -137.000000C154.000000 -173.000000,127.000000 -193.000000,98.000000 -193.000000C74.000000 -193.000000,42.000000 -179.000000,42.000000 -135.000000C42.000000 -44.000000,135.000000 22.000000,244.000000 22.000000C366.000000 22.000000,457.000000 -69.000000,457.000000 -171.000000C457.000000 -253.000000,394.000000 -331.000000,290.000000 -352.000000"></path>
    </g>
    <g transform="scale(0.009963,0.009963)" id="GLYPHcmr10_52">
      <path style="fill-rule: evenodd;" d="M294.000000 -165.000000L294.000000 -78.000000C294.000000 -42.000000,292.000000 -31.000000,218.000000 -31.000000L197.000000 -31.000000L197.000000 -0.000000L332.000000 -0.000000L238.000000 -3.000000L290.000000 -3.000000L332.000000 -3.000000L374.000000 -3.000000L427.000000 -3.000000L468.000000 -0.000000L468.000000 -31.000000L447.000000 -31.000000C373.000000 -31.000000,371.000000 -42.000000,371.000000 -78.000000L371.000000 -165.000000L471.000000 -165.000000L471.000000 -196.000000L371.000000 -196.000000L371.000000 -651.000000C371.000000 -671.000000,371.000000 -677.000000,355.000000 -677.000000C346.000000 -677.000000,343.000000 -677.000000,335.000000 -665.000000L28.000000 -196.000000L28.000000 -165.000000M300.000000 -196.000000L56.000000 -196.000000L300.000000 -569.000000"></path>
    </g>
    <g transform="scale(0.009963,0.009963)" id="GLYPHcmr10_53">
      <path style="fill-rule: evenodd;" d="M449.000000 -201.000000C449.000000 -320.000000,367.000000 -420.000000,259.000000 -420.000000C211.000000 -420.000000,168.000000 -404.000000,132.000000 -369.000000L132.000000 -564.000000C152.000000 -558.000000,185.000000 -551.000000,217.000000 -551.000000C340.000000 -551.000000,410.000000 -642.000000,410.000000 -655.000000C410.000000 -661.000000,407.000000 -666.000000,400.000000 -666.000000C399.000000 -666.000000,397.000000 -666.000000,392.000000 -663.000000C372.000000 -654.000000,323.000000 -634.000000,256.000000 -634.000000C216.000000 -634.000000,170.000000 -641.000000,123.000000 -662.000000C115.000000 -665.000000,113.000000 -665.000000,111.000000 -665.000000C101.000000 -665.000000,101.000000 -657.000000,101.000000 -641.000000L101.000000 -345.000000C101.000000 -327.000000,101.000000 -319.000000,115.000000 -319.000000C122.000000 -319.000000,124.000000 -322.000000,128.000000 -328.000000C139.000000 -344.000000,176.000000 -398.000000,257.000000 -398.000000C309.000000 -398.000000,334.000000 -352.000000,342.000000 -334.000000C358.000000 -297.000000,360.000000 -258.000000,360.000000 -208.000000C360.000000 -173.000000,360.000000 -113.000000,336.000000 -71.000000C312.000000 -32.000000,275.000000 -6.000000,229.000000 -6.000000C156.000000 -6.000000,99.000000 -59.000000,82.000000 -118.000000C85.000000 -117.000000,88.000000 -116.000000,99.000000 -116.000000C132.000000 -116.000000,149.000000 -141.000000,149.000000 -165.000000C149.000000 -189.000000,132.000000 -214.000000,99.000000 -214.000000C85.000000 -214.000000,50.000000 -207.000000,50.000000 -161.000000C50.000000 -75.000000,119.000000 22.000000,231.000000 22.000000C347.000000 22.000000,449.000000 -74.000000,449.000000 -201.000000"></path>
    </g>
    <g transform="scale(0.009963,0.009963)" id="GLYPHcmr10_54">
      <path style="fill-rule: evenodd;" d="M132.000000 -328.000000L132.000000 -352.000000C132.000000 -605.000000,256.000000 -641.000000,307.000000 -641.000000C331.000000 -641.000000,373.000000 -635.000000,395.000000 -601.000000C380.000000 -601.000000,340.000000 -601.000000,340.000000 -556.000000C340.000000 -525.000000,364.000000 -510.000000,386.000000 -510.000000C402.000000 -510.000000,432.000000 -519.000000,432.000000 -558.000000C432.000000 -618.000000,388.000000 -666.000000,305.000000 -666.000000C177.000000 -666.000000,42.000000 -537.000000,42.000000 -316.000000C42.000000 -49.000000,158.000000 22.000000,251.000000 22.000000C362.000000 22.000000,457.000000 -72.000000,457.000000 -204.000000C457.000000 -331.000000,368.000000 -427.000000,257.000000 -427.000000C189.000000 -427.000000,152.000000 -376.000000,132.000000 -328.000000M251.000000 -6.000000C188.000000 -6.000000,158.000000 -66.000000,152.000000 -81.000000C134.000000 -128.000000,134.000000 -208.000000,134.000000 -226.000000C134.000000 -304.000000,166.000000 -404.000000,256.000000 -404.000000C272.000000 -404.000000,318.000000 -404.000000,349.000000 -342.000000C367.000000 -305.000000,367.000000 -254.000000,367.000000 -205.000000C367.000000 -157.000000,367.000000 -107.000000,350.000000 -71.000000C320.000000 -11.000000,274.000000 -6.000000,251.000000 -6.000000"></path>
    </g>
    <g transform="scale(0.009963,0.009963)" id="GLYPHcmr10_55">
      <path style="fill-rule: evenodd;" d="M476.000000 -609.000000C485.000000 -621.000000,485.000000 -623.000000,485.000000 -644.000000L242.000000 -644.000000C120.000000 -644.000000,118.000000 -657.000000,114.000000 -676.000000L89.000000 -676.000000L56.000000 -470.000000L81.000000 -470.000000C84.000000 -486.000000,93.000000 -549.000000,106.000000 -561.000000C113.000000 -567.000000,191.000000 -567.000000,204.000000 -567.000000L411.000000 -567.000000C400.000000 -551.000000,321.000000 -442.000000,299.000000 -409.000000C209.000000 -274.000000,176.000000 -135.000000,176.000000 -33.000000C176.000000 -23.000000,176.000000 22.000000,222.000000 22.000000C268.000000 22.000000,268.000000 -23.000000,268.000000 -33.000000L268.000000 -84.000000C268.000000 -139.000000,271.000000 -194.000000,279.000000 -248.000000C283.000000 -271.000000,297.000000 -357.000000,341.000000 -419.000000"></path>
    </g>
    <g transform="scale(0.009963,0.009963)" id="GLYPHcmr10_56">
      <path style="fill-rule: evenodd;" d="M163.000000 -457.000000C117.000000 -487.000000,113.000000 -521.000000,113.000000 -538.000000C113.000000 -599.000000,178.000000 -641.000000,249.000000 -641.000000C322.000000 -641.000000,386.000000 -589.000000,386.000000 -517.000000C386.000000 -460.000000,347.000000 -412.000000,287.000000 -377.000000M309.000000 -362.000000C381.000000 -399.000000,430.000000 -451.000000,430.000000 -517.000000C430.000000 -609.000000,341.000000 -666.000000,250.000000 -666.000000C150.000000 -666.000000,69.000000 -592.000000,69.000000 -499.000000C69.000000 -481.000000,71.000000 -436.000000,113.000000 -389.000000C124.000000 -377.000000,161.000000 -352.000000,186.000000 -335.000000C128.000000 -306.000000,42.000000 -250.000000,42.000000 -151.000000C42.000000 -45.000000,144.000000 22.000000,249.000000 22.000000C362.000000 22.000000,457.000000 -61.000000,457.000000 -168.000000C457.000000 -204.000000,446.000000 -249.000000,408.000000 -291.000000C389.000000 -312.000000,373.000000 -322.000000,309.000000 -362.000000M209.000000 -320.000000L332.000000 -242.000000C360.000000 -223.000000,407.000000 -193.000000,407.000000 -132.000000C407.000000 -58.000000,332.000000 -6.000000,250.000000 -6.000000C164.000000 -6.000000,92.000000 -68.000000,92.000000 -151.000000C92.000000 -209.000000,124.000000 -273.000000,209.000000 -320.000000"></path>
    </g>
    <g transform="scale(0.009963,0.009963)" id="GLYPHcmr10_57">
      <path style="fill-rule: evenodd;" d="M367.000000 -318.000000L367.000000 -286.000000C367.000000 -52.000000,263.000000 -6.000000,205.000000 -6.000000C188.000000 -6.000000,134.000000 -8.000000,107.000000 -42.000000C151.000000 -42.000000,159.000000 -71.000000,159.000000 -88.000000C159.000000 -119.000000,135.000000 -134.000000,113.000000 -134.000000C97.000000 -134.000000,67.000000 -125.000000,67.000000 -86.000000C67.000000 -19.000000,121.000000 22.000000,206.000000 22.000000C335.000000 22.000000,457.000000 -114.000000,457.000000 -329.000000C457.000000 -598.000000,342.000000 -666.000000,253.000000 -666.000000C198.000000 -666.000000,149.000000 -648.000000,106.000000 -603.000000C65.000000 -558.000000,42.000000 -516.000000,42.000000 -441.000000C42.000000 -316.000000,130.000000 -218.000000,242.000000 -218.000000C303.000000 -218.000000,344.000000 -260.000000,367.000000 -318.000000M243.000000 -241.000000C227.000000 -241.000000,181.000000 -241.000000,150.000000 -304.000000C132.000000 -341.000000,132.000000 -391.000000,132.000000 -440.000000C132.000000 -494.000000,132.000000 -541.000000,153.000000 -578.000000C180.000000 -628.000000,218.000000 -641.000000,253.000000 -641.000000C299.000000 -641.000000,332.000000 -607.000000,349.000000 -562.000000C361.000000 -530.000000,365.000000 -467.000000,365.000000 -421.000000C365.000000 -338.000000,331.000000 -241.000000,243.000000 -241.000000"></path>
    </g>
  </defs>
  <path d="M86.005417 82.438370C86.005417 81.645676,85.690475 80.885529,85.129990 80.325058C84.569519 79.764572,83.809372 79.449631,83.016678 79.449631C82.223984 79.449631,81.463837 79.764572,80.903366 80.325058C80.342880 80.885529,80.027939 81.645676,80.027939 82.438370C80.027939 83.231064,80.342880 83.991211,80.903366 84.551682C81.463837 85.112167,82.223984 85.427109,83.016678 85.427109C83.809372 85.427109,84.569519 85.112167,85.129990 84.551682C85.690475 83.991211,86.005417 83.231064,86.005417 82.438370Z" style="fill: rgb(100.000000%,100.000000%,100.000000%);stroke: none;"></path>
  <path d="M84.572983 89.669556C84.572983 88.876862,84.258041 88.116714,83.697556 87.556244C83.137085 86.995758,82.376938 86.680817,81.584244 86.680817C80.791550 86.680817,80.031403 86.995758,79.470932 87.556244C78.910446 88.116714,78.595505 88.876862,78.595505 89.669556C78.595505 90.462250,78.910446 91.222397,79.470932 91.782867C80.031403 92.343353,80.791550 92.658295,81.584244 92.658295C82.376938 92.658295,83.137085 92.343353,83.697556 91.782867C84.258041 91.222397,84.572983 90.462250,84.572983 89.669556Z" style="fill: rgb(100.000000%,100.000000%,100.000000%);stroke: none;"></path>
  <path d="M90.410858 61.211090C90.410858 60.418396,90.095917 59.658249,89.535431 59.097778C88.974960 58.537292,88.214813 58.222351,87.422119 58.222351C86.629425 58.222351,85.869278 58.537292,85.308807 59.097778C84.748322 59.658249,84.433380 60.418396,84.433380 61.211090C84.433380 62.003784,84.748322 62.763931,85.308807 63.324402C85.869278 63.884888,86.629425 64.199829,87.422119 64.199829C88.214813 64.199829,88.974960 63.884888,89.535431 63.324402C90.095917 62.763931,90.410858 62.003784,90.410858 61.211090Z" style="fill: rgb(100.000000%,100.000000%,100.000000%);stroke: none;"></path>
  <path d="M87.477356 75.215088C87.477356 74.422394,87.162415 73.662247,86.601929 73.101776C86.041458 72.541290,85.281311 72.226349,84.488617 72.226349C83.695923 72.226349,82.935776 72.541290,82.375305 73.101776C81.814819 73.662247,81.499878 74.422394,81.499878 75.215088C81.499878 76.007782,81.814819 76.767929,82.375305 77.328400C82.935776 77.888885,83.695923 78.203827,84.488617 78.203827C85.281311 78.203827,86.041458 77.888885,86.601929 77.328400C87.162415 76.767929,87.477356 76.007782,87.477356 75.215088Z" style="fill: rgb(100.000000%,100.000000%,100.000000%);stroke: none;"></path>
  <path d="M94.309189 37.438538C94.309189 36.645844,93.994247 35.885696,93.433762 35.325226C92.873291 34.764740,92.113144 34.449799,91.320450 34.449799C90.527756 34.449799,89.767609 34.764740,89.207138 35.325226C88.646652 35.885696,88.331711 36.645844,88.331711 37.438538C88.331711 38.231232,88.646652 38.991379,89.207138 39.551849C89.767609 40.112335,90.527756 40.427277,91.320450 40.427277C92.113144 40.427277,92.873291 40.112335,93.433762 39.551849C93.994247 38.991379,94.309189 38.231232,94.309189 37.438538Z" style="fill: rgb(100.000000%,100.000000%,100.000000%);stroke: none;"></path>
  <path d="M91.868637 54.425201C91.868637 53.632507,91.553696 52.872360,90.993210 52.311890C90.432739 51.751404,89.672592 51.436462,88.879898 51.436462C88.087204 51.436462,87.327057 51.751404,86.766586 52.311890C86.206100 52.872360,85.891159 53.632507,85.891159 54.425201C85.891159 55.217896,86.206100 55.978043,86.766586 56.538513C87.327057 57.098999,88.087204 57.413940,88.879898 57.413940C89.672592 57.413940,90.432739 57.098999,90.993210 56.538513C91.553696 55.978043,91.868637 55.217896,91.868637 54.425201Z" style="fill: rgb(100.000000%,100.000000%,100.000000%);stroke: none;"></path>
  <path d="M80.532257 5.303497C80.532257 4.510803,80.217316 3.750656,79.656830 3.190186C79.096359 2.629700,78.336212 2.314758,77.543518 2.314758C76.750824 2.314758,75.990677 2.629700,75.430206 3.190186C74.869720 3.750656,74.554779 4.510803,74.554779 5.303497C74.554779 6.096191,74.869720 6.856339,75.430206 7.416809C75.990677 7.977295,76.750824 8.292236,77.543518 8.292236C78.336212 8.292236,79.096359 7.977295,79.656830 7.416809C80.217316 6.856339,80.532257 6.096191,80.532257 5.303497Z" style="fill: rgb(100.000000%,100.000000%,100.000000%);stroke: none;"></path>
  <path d="M94.586090 26.745209C94.586090 25.952515,94.271149 25.192368,93.710663 24.631897C93.150192 24.071411,92.390045 23.756470,91.597351 23.756470C90.804657 23.756470,90.044510 24.071411,89.484039 24.631897C88.923553 25.192368,88.608612 25.952515,88.608612 26.745209C88.608612 27.537903,88.923553 28.298050,89.484039 28.858521C90.044510 29.419006,90.804657 29.733948,91.597351 29.733948C92.390045 29.733948,93.150192 29.419006,93.710663 28.858521C94.271149 28.298050,94.586090 27.537903,94.586090 26.745209Z" style="fill: rgb(100.000000%,100.000000%,100.000000%);stroke: none;"></path>
  <path d="M36.658127 15.474823C36.658127 14.682129,36.343185 13.921982,35.782700 13.361511C35.222229 12.801025,34.462082 12.486084,33.669388 12.486084C32.876694 12.486084,32.116547 12.801025,31.556076 13.361511C30.995590 13.921982,30.680649 14.682129,30.680649 15.474823C30.680649 16.267517,30.995590 17.027664,31.556076 17.588135C32.116547 18.148621,32.876694 18.463562,33.669388 18.463562C34.462082 18.463562,35.222229 18.148621,35.782700 17.588135C36.343185 17.027664,36.658127 16.267517,36.658127 15.474823Z" style="fill: rgb(100.000000%,100.000000%,100.000000%);stroke: none;"></path>
  <path d="M63.186508 2.284485C63.186508 1.491791,62.871567 0.731644,62.311081 0.171173C61.750610 -0.389313,60.990463 -0.704254,60.197769 -0.704254C59.405075 -0.704254,58.644928 -0.389313,58.084457 0.171173C57.523972 0.731644,57.209030 1.491791,57.209030 2.284485C57.209030 3.077179,57.523972 3.837326,58.084457 4.397797C58.644928 4.958282,59.405075 5.273224,60.197769 5.273224C60.990463 5.273224,61.750610 4.958282,62.311081 4.397797C62.871567 3.837326,63.186508 3.077179,63.186508 2.284485Z" style="fill: rgb(100.000000%,100.000000%,100.000000%);stroke: none;"></path>
  <path d="M35.758423 54.136719C35.758423 53.344025,35.443481 52.583878,34.882996 52.023407C34.322525 51.462921,33.562378 51.147980,32.769684 51.147980C31.976990 51.147980,31.216843 51.462921,30.656372 52.023407C30.095886 52.583878,29.780945 53.344025,29.780945 54.136719C29.780945 54.929413,30.095886 55.689560,30.656372 56.250031C31.216843 56.810516,31.976990 57.125458,32.769684 57.125458C33.562378 57.125458,34.322525 56.810516,34.882996 56.250031C35.443481 55.689560,35.758423 54.929413,35.758423 54.136719Z" style="fill: rgb(100.000000%,100.000000%,100.000000%);stroke: none;"></path>
  <path d="M28.834213 28.517929C28.834213 27.725235,28.519272 26.965088,27.958786 26.404617C27.398315 25.844131,26.638168 25.529190,25.845474 25.529190C25.052780 25.529190,24.292633 25.844131,23.732162 26.404617C23.171677 26.965088,22.856735 27.725235,22.856735 28.517929C22.856735 29.310623,23.171677 30.070770,23.732162 30.631241C24.292633 31.191727,25.052780 31.506668,25.845474 31.506668C26.638168 31.506668,27.398315 31.191727,27.958786 30.631241C28.519272 30.070770,28.834213 29.310623,28.834213 28.517929Z" style="fill: rgb(100.000000%,100.000000%,100.000000%);stroke: none;"></path>
  <path d="M70.441345 66.098816C70.441345 65.306122,70.126404 64.545975,69.565918 63.985504C69.005447 63.425018,68.245300 63.110077,67.452606 63.110077C66.659912 63.110077,65.899765 63.425018,65.339294 63.985504C64.778809 64.545975,64.463867 65.306122,64.463867 66.098816C64.463867 66.891510,64.778809 67.651657,65.339294 68.212128C65.899765 68.772614,66.659912 69.087555,67.452606 69.087555C68.245300 69.087555,69.005447 68.772614,69.565918 68.212128C70.126404 67.651657,70.441345 66.891510,70.441345 66.098816Z" style="fill: rgb(100.000000%,100.000000%,100.000000%);stroke: none;"></path>
  <path d="M48.368546 60.993759C48.368546 60.201065,48.053604 59.440918,47.493118 58.880447C46.932648 58.319962,46.172501 58.005020,45.379807 58.005020C44.587112 58.005020,43.826965 58.319962,43.266495 58.880447C42.706009 59.440918,42.391068 60.201065,42.391068 60.993759C42.391068 61.786453,42.706009 62.546600,43.266495 63.107071C43.826965 63.667557,44.587112 63.982498,45.379807 63.982498C46.172501 63.982498,46.932648 63.667557,47.493118 63.107071C48.053604 62.546600,48.368546 61.786453,48.368546 60.993759Z" style="fill: rgb(100.000000%,100.000000%,100.000000%);stroke: none;"></path>
  <path d="M98.510300 69.353088C98.510300 68.560394,98.195358 67.800247,97.634872 67.239777C97.074402 66.679291,96.314255 66.364349,95.521561 66.364349C94.728867 66.364349,93.968719 66.679291,93.408249 67.239777C92.847763 67.800247,92.532822 68.560394,92.532822 69.353088C92.532822 70.145782,92.847763 70.905930,93.408249 71.466400C93.968719 72.026886,94.728867 72.341827,95.521561 72.341827C96.314255 72.341827,97.074402 72.026886,97.634872 71.466400C98.195358 70.905930,98.510300 70.145782,98.510300 69.353088Z" style="fill: rgb(100.000000%,100.000000%,100.000000%);stroke: none;"></path>
  <path d="M79.772125 66.690247C79.772125 65.897552,79.457184 65.137405,78.896698 64.576935C78.336227 64.016449,77.576080 63.701508,76.783386 63.701508C75.990692 63.701508,75.230545 64.016449,74.670074 64.576935C74.109589 65.137405,73.794647 65.897552,73.794647 66.690247C73.794647 67.482941,74.109589 68.243088,74.670074 68.803558C75.230545 69.364044,75.990692 69.678986,76.783386 69.678986C77.576080 69.678986,78.336227 69.364044,78.896698 68.803558C79.457184 68.243088,79.772125 67.482941,79.772125 66.690247Z" style="fill: rgb(100.000000%,100.000000%,100.000000%);stroke: none;"></path>
  <path d="M132.470596 71.522781C132.470596 70.730087,132.155655 69.969940,131.595169 69.409470C131.034698 68.848984,130.274551 68.534042,129.481857 68.534042C128.689163 68.534042,127.929016 68.848984,127.368546 69.409470C126.808060 69.969940,126.493118 70.730087,126.493118 71.522781C126.493118 72.315475,126.808060 73.075623,127.368546 73.636093C127.929016 74.196579,128.689163 74.511520,129.481857 74.511520C130.274551 74.511520,131.034698 74.196579,131.595169 73.636093C132.155655 73.075623,132.470596 72.315475,132.470596 71.522781Z" style="fill: rgb(100.000000%,100.000000%,100.000000%);stroke: none;"></path>
  <path d="M107.961182 71.477722C107.961182 70.685028,107.646240 69.924881,107.085754 69.364410C106.525284 68.803925,105.765137 68.488983,104.972443 68.488983C104.179749 68.488983,103.419601 68.803925,102.859131 69.364410C102.298645 69.924881,101.983704 70.685028,101.983704 71.477722C101.983704 72.270416,102.298645 73.030563,102.859131 73.591034C103.419601 74.151520,104.179749 74.466461,104.972443 74.466461C105.765137 74.466461,106.525284 74.151520,107.085754 73.591034C107.646240 73.030563,107.961182 72.270416,107.961182 71.477722Z" style="fill: rgb(100.000000%,100.000000%,100.000000%);stroke: none;"></path>
  <path d="M177.201736 79.551682C177.201736 78.758987,176.886795 77.998840,176.326309 77.438370C175.765839 76.877884,175.005692 76.562943,174.212997 76.562943C173.420303 76.562943,172.660156 76.877884,172.099686 77.438370C171.539200 77.998840,171.224258 78.758987,171.224258 79.551682C171.224258 80.344376,171.539200 81.104523,172.099686 81.664993C172.660156 82.225479,173.420303 82.540421,174.212997 82.540421C175.005692 82.540421,175.765839 82.225479,176.326309 81.664993C176.886795 81.104523,177.201736 80.344376,177.201736 79.551682Z" style="fill: rgb(100.000000%,100.000000%,100.000000%);stroke: none;"></path>
  <path d="M147.839996 66.650635C147.839996 65.857941,147.525055 65.097794,146.964569 64.537323C146.404099 63.976837,145.643951 63.661896,144.851257 63.661896C144.058563 63.661896,143.298416 63.976837,142.737946 64.537323C142.177460 65.097794,141.862518 65.857941,141.862518 66.650635C141.862518 67.443329,142.177460 68.203476,142.737946 68.763947C143.298416 69.324432,144.058563 69.639374,144.851257 69.639374C145.643951 69.639374,146.404099 69.324432,146.964569 68.763947C147.525055 68.203476,147.839996 67.443329,147.839996 66.650635Z" style="fill: rgb(100.000000%,100.000000%,100.000000%);stroke: none;"></path>
  <path d="M192.382843 127.968872C192.382843 127.176178,192.067902 126.416031,191.507416 125.855560C190.946945 125.295074,190.186798 124.980133,189.394104 124.980133C188.601410 124.980133,187.841263 125.295074,187.280792 125.855560C186.720306 126.416031,186.405365 127.176178,186.405365 127.968872C186.405365 128.761566,186.720306 129.521713,187.280792 130.082184C187.841263 130.642670,188.601410 130.957611,189.394104 130.957611C190.186798 130.957611,190.946945 130.642670,191.507416 130.082184C192.067902 129.521713,192.382843 128.761566,192.382843 127.968872Z" style="fill: rgb(100.000000%,100.000000%,100.000000%);stroke: none;"></path>
  <path d="M183.913284 96.720734C183.913284 95.928040,183.598343 95.167892,183.037857 94.607422C182.477386 94.046936,181.717239 93.731995,180.924545 93.731995C180.131851 93.731995,179.371704 94.046936,178.811234 94.607422C178.250748 95.167892,177.935806 95.928040,177.935806 96.720734C177.935806 97.513428,178.250748 98.273575,178.811234 98.834045C179.371704 99.394531,180.131851 99.709473,180.924545 99.709473C181.717239 99.709473,182.477386 99.394531,183.037857 98.834045C183.598343 98.273575,183.913284 97.513428,183.913284 96.720734Z" style="fill: rgb(100.000000%,100.000000%,100.000000%);stroke: none;"></path>
  <path d="M175.203018 158.196426C175.203018 157.403732,174.888077 156.643585,174.327591 156.083115C173.767120 155.522629,173.006973 155.207687,172.214279 155.207687C171.421585 155.207687,170.661438 155.522629,170.100967 156.083115C169.540482 156.643585,169.225540 157.403732,169.225540 158.196426C169.225540 158.989120,169.540482 159.749268,170.100967 160.309738C170.661438 160.870224,171.421585 161.185165,172.214279 161.185165C173.006973 161.185165,173.767120 160.870224,174.327591 160.309738C174.888077 159.749268,175.203018 158.989120,175.203018 158.196426Z" style="fill: rgb(100.000000%,100.000000%,100.000000%);stroke: none;"></path>
  <path d="M193.908997 144.585922C193.908997 143.793228,193.594055 143.033081,193.033569 142.472610C192.473099 141.912125,191.712952 141.597183,190.920258 141.597183C190.127563 141.597183,189.367416 141.912125,188.806946 142.472610C188.246460 143.033081,187.931519 143.793228,187.931519 144.585922C187.931519 145.378616,188.246460 146.138763,188.806946 146.699234C189.367416 147.259720,190.127563 147.574661,190.920258 147.574661C191.712952 147.574661,192.473099 147.259720,193.033569 146.699234C193.594055 146.138763,193.908997 145.378616,193.908997 144.585922Z" style="fill: rgb(100.000000%,100.000000%,100.000000%);stroke: none;"></path>
  <path d="M153.275574 168.554230C153.275574 167.761536,152.960632 167.001389,152.400146 166.440918C151.839676 165.880432,151.079529 165.565491,150.286835 165.565491C149.494141 165.565491,148.733994 165.880432,148.173523 166.440918C147.613037 167.001389,147.298096 167.761536,147.298096 168.554230C147.298096 169.346924,147.613037 170.107071,148.173523 170.667542C148.733994 171.228027,149.494141 171.542969,150.286835 171.542969C151.079529 171.542969,151.839676 171.228027,152.400146 170.667542C152.960632 170.107071,153.275574 169.346924,153.275574 168.554230Z" style="fill: rgb(100.000000%,100.000000%,100.000000%);stroke: none;"></path>
  <path d="M165.321915 157.704819C165.321915 156.912125,165.006973 156.151978,164.446487 155.591507C163.886017 155.031021,163.125870 154.716080,162.333176 154.716080C161.540482 154.716080,160.780334 155.031021,160.219864 155.591507C159.659378 156.151978,159.344437 156.912125,159.344437 157.704819C159.344437 158.497513,159.659378 159.257660,160.219864 159.818130C160.780334 160.378616,161.540482 160.693558,162.333176 160.693558C163.125870 160.693558,163.886017 160.378616,164.446487 159.818130C165.006973 159.257660,165.321915 158.497513,165.321915 157.704819Z" style="fill: rgb(100.000000%,100.000000%,100.000000%);stroke: none;"></path>
  <path d="M136.850052 193.780670C136.850052 192.987976,136.535110 192.227829,135.974625 191.667358C135.414154 191.106873,134.654007 190.791931,133.861313 190.791931C133.068619 190.791931,132.308472 191.106873,131.748001 191.667358C131.187515 192.227829,130.872574 192.987976,130.872574 193.780670C130.872574 194.573364,131.187515 195.333511,131.748001 195.893982C132.308472 196.454468,133.068619 196.769409,133.861313 196.769409C134.654007 196.769409,135.414154 196.454468,135.974625 195.893982C136.535110 195.333511,136.850052 194.573364,136.850052 193.780670Z" style="fill: rgb(100.000000%,100.000000%,100.000000%);stroke: none;"></path>
  <path d="M152.065262 176.761383C152.065262 175.968689,151.750320 175.208542,151.189835 174.648071C150.629364 174.087585,149.869217 173.772644,149.076523 173.772644C148.283829 173.772644,147.523682 174.087585,146.963211 174.648071C146.402725 175.208542,146.087784 175.968689,146.087784 176.761383C146.087784 177.554077,146.402725 178.314224,146.963211 178.874695C147.523682 179.435181,148.283829 179.750122,149.076523 179.750122C149.869217 179.750122,150.629364 179.435181,151.189835 178.874695C151.750320 178.314224,152.065262 177.554077,152.065262 176.761383Z" style="fill: rgb(100.000000%,100.000000%,100.000000%);stroke: none;"></path>
  <path d="M87.985733 186.270172C87.985733 185.477478,87.670792 184.717331,87.110306 184.156860C86.549835 183.596375,85.789688 183.281433,84.996994 183.281433C84.204300 183.281433,83.444153 183.596375,82.883682 184.156860C82.323196 184.717331,82.008255 185.477478,82.008255 186.270172C82.008255 187.062866,82.323196 187.823013,82.883682 188.383484C83.444153 188.943970,84.204300 189.258911,84.996994 189.258911C85.789688 189.258911,86.549835 188.943970,87.110306 188.383484C87.670792 187.823013,87.985733 187.062866,87.985733 186.270172Z" style="fill: rgb(100.000000%,100.000000%,100.000000%);stroke: none;"></path>
  <path d="M119.706070 189.348999C119.706070 188.556305,119.391129 187.796158,118.830643 187.235687C118.270172 186.675201,117.510025 186.360260,116.717331 186.360260C115.924637 186.360260,115.164490 186.675201,114.604019 187.235687C114.043533 187.796158,113.728592 188.556305,113.728592 189.348999C113.728592 190.141693,114.043533 190.901840,114.604019 191.462311C115.164490 192.022797,115.924637 192.337738,116.717331 192.337738C117.510025 192.337738,118.270172 192.022797,118.830643 191.462311C119.391129 190.901840,119.706070 190.141693,119.706070 189.348999Z" style="fill: rgb(100.000000%,100.000000%,100.000000%);stroke: none;"></path>
  <path d="M56.122223 164.965424C56.122223 164.172729,55.807281 163.412582,55.246796 162.852112C54.686325 162.291626,53.926178 161.976685,53.133484 161.976685C52.340790 161.976685,51.580643 162.291626,51.020172 162.852112C50.459686 163.412582,50.144745 164.172729,50.144745 164.965424C50.144745 165.758118,50.459686 166.518265,51.020172 167.078735C51.580643 167.639221,52.340790 167.954163,53.133484 167.954163C53.926178 167.954163,54.686325 167.639221,55.246796 167.078735C55.807281 166.518265,56.122223 165.758118,56.122223 164.965424Z" style="fill: rgb(100.000000%,100.000000%,100.000000%);stroke: none;"></path>
  <path d="M69.186066 187.554901C69.186066 186.762207,68.871124 186.002060,68.310638 185.441589C67.750168 184.881104,66.990021 184.566162,66.197327 184.566162C65.404633 184.566162,64.644485 184.881104,64.084015 185.441589C63.523529 186.002060,63.208588 186.762207,63.208588 187.554901C63.208588 188.347595,63.523529 189.107742,64.084015 189.668213C64.644485 190.228699,65.404633 190.543640,66.197327 190.543640C66.990021 190.543640,67.750168 190.228699,68.310638 189.668213C68.871124 189.107742,69.186066 188.347595,69.186066 187.554901Z" style="fill: rgb(100.000000%,100.000000%,100.000000%);stroke: none;"></path>
  <path d="M44.410126 136.118805C44.410126 135.326111,44.095184 134.565964,43.534698 134.005493C42.974228 133.445007,42.214081 133.130066,41.421387 133.130066C40.628693 133.130066,39.868546 133.445007,39.308075 134.005493C38.747589 134.565964,38.432648 135.326111,38.432648 136.118805C38.432648 136.911499,38.747589 137.671646,39.308075 138.232117C39.868546 138.792603,40.628693 139.107544,41.421387 139.107544C42.214081 139.107544,42.974228 138.792603,43.534698 138.232117C44.095184 137.671646,44.410126 136.911499,44.410126 136.118805Z" style="fill: rgb(100.000000%,100.000000%,100.000000%);stroke: none;"></path>
  <path d="M58.309647 153.634521C58.309647 152.841827,57.994705 152.081680,57.434219 151.521210C56.873749 150.960724,56.113602 150.645782,55.320908 150.645782C54.528214 150.645782,53.768066 150.960724,53.207596 151.521210C52.647110 152.081680,52.332169 152.841827,52.332169 153.634521C52.332169 154.427216,52.647110 155.187363,53.207596 155.747833C53.768066 156.308319,54.528214 156.623260,55.320908 156.623260C56.113602 156.623260,56.873749 156.308319,57.434219 155.747833C57.994705 155.187363,58.309647 154.427216,58.309647 153.634521Z" style="fill: rgb(100.000000%,100.000000%,100.000000%);stroke: none;"></path>
  <path d="M5.755341 121.347092C5.755341 120.554398,5.440399 119.794250,4.879913 119.233780C4.319443 118.673294,3.559296 118.358353,2.766602 118.358353C1.973907 118.358353,1.213760 118.673294,0.653290 119.233780C0.092804 119.794250,-0.222137 120.554398,-0.222137 121.347092C-0.222137 122.139786,0.092804 122.899933,0.653290 123.460403C1.213760 124.020889,1.973907 124.335831,2.766602 124.335831C3.559296 124.335831,4.319443 124.020889,4.879913 123.460403C5.440399 122.899933,5.755341 122.139786,5.755341 121.347092Z" style="fill: rgb(100.000000%,100.000000%,100.000000%);stroke: none;"></path>
  <path d="M29.589523 138.138977C29.589523 137.346283,29.274582 136.586136,28.714096 136.025665C28.153625 135.465179,27.393478 135.150238,26.600784 135.150238C25.808090 135.150238,25.047943 135.465179,24.487473 136.025665C23.926987 136.586136,23.612045 137.346283,23.612045 138.138977C23.612045 138.931671,23.926987 139.691818,24.487473 140.252289C25.047943 140.812775,25.808090 141.127716,26.600784 141.127716C27.393478 141.127716,28.153625 140.812775,28.714096 140.252289C29.274582 139.691818,29.589523 138.931671,29.589523 138.138977Z" style="fill: rgb(100.000000%,100.000000%,100.000000%);stroke: none;"></path>
  <path d="M12.543289 67.117661C12.543289 66.324966,12.228348 65.564819,11.667862 65.004349C11.107391 64.443863,10.347244 64.128922,9.554550 64.128922C8.761856 64.128922,8.001709 64.443863,7.441238 65.004349C6.880753 65.564819,6.565811 66.324966,6.565811 67.117661C6.565811 67.910355,6.880753 68.670502,7.441238 69.230972C8.001709 69.791458,8.761856 70.106400,9.554550 70.106400C10.347244 70.106400,11.107391 69.791458,11.667862 69.230972C12.228348 68.670502,12.543289 67.910355,12.543289 67.117661Z" style="fill: rgb(100.000000%,100.000000%,100.000000%);stroke: none;"></path>
  <path d="M7.230576 101.914017C7.230576 101.121323,6.915634 100.361176,6.355148 99.800705C5.794678 99.240219,5.034531 98.925278,4.241837 98.925278C3.449142 98.925278,2.688995 99.240219,2.128525 99.800705C1.568039 100.361176,1.253098 101.121323,1.253098 101.914017C1.253098 102.706711,1.568039 103.466858,2.128525 104.027328C2.688995 104.587814,3.449142 104.902756,4.241837 104.902756C5.034531 104.902756,5.794678 104.587814,6.355148 104.027328C6.915634 103.466858,7.230576 102.706711,7.230576 101.914017Z" style="fill: rgb(100.000000%,100.000000%,100.000000%);stroke: none;"></path>
  <path d="M42.718201 37.177414C42.718201 36.384720,42.403259 35.624573,41.842773 35.064102C41.282303 34.503616,40.522156 34.188675,39.729462 34.188675C38.936768 34.188675,38.176620 34.503616,37.616150 35.064102C37.055664 35.624573,36.740723 36.384720,36.740723 37.177414C36.740723 37.970108,37.055664 38.730255,37.616150 39.290726C38.176620 39.851212,38.936768 40.166153,39.729462 40.166153C40.522156 40.166153,41.282303 39.851212,41.842773 39.290726C42.403259 38.730255,42.718201 37.970108,42.718201 37.177414Z" style="fill: rgb(100.000000%,100.000000%,100.000000%);stroke: none;"></path>
  <path d="M16.461929 48.159836C16.461929 47.367142,16.146988 46.606995,15.586502 46.046524C15.026031 45.486038,14.265884 45.171097,13.473190 45.171097C12.680496 45.171097,11.920349 45.486038,11.359879 46.046524C10.799393 46.606995,10.484451 47.367142,10.484451 48.159836C10.484451 48.952530,10.799393 49.712677,11.359879 50.273148C11.920349 50.833633,12.680496 51.148575,13.473190 51.148575C14.265884 51.148575,15.026031 50.833633,15.586502 50.273148C16.146988 49.712677,16.461929 48.952530,16.461929 48.159836Z" style="fill: rgb(100.000000%,100.000000%,100.000000%);stroke: none;"></path>
  <path d="M74.442093 32.294357C74.442093 31.501663,74.127151 30.741516,73.566666 30.181046C73.006195 29.620560,72.246048 29.305618,71.453354 29.305618C70.660660 29.305618,69.900513 29.620560,69.340042 30.181046C68.779556 30.741516,68.464615 31.501663,68.464615 32.294357C68.464615 33.087051,68.779556 33.847198,69.340042 34.407669C69.900513 34.968155,70.660660 35.283096,71.453354 35.283096C72.246048 35.283096,73.006195 34.968155,73.566666 34.407669C74.127151 33.847198,74.442093 33.087051,74.442093 32.294357Z" style="fill: rgb(100.000000%,100.000000%,100.000000%);stroke: none;"></path>
  <path d="M54.837784 40.724121C54.837784 39.931427,54.522842 39.171280,53.962357 38.610809C53.401886 38.050323,52.641739 37.735382,51.849045 37.735382C51.056351 37.735382,50.296204 38.050323,49.735733 38.610809C49.175247 39.171280,48.860306 39.931427,48.860306 40.724121C48.860306 41.516815,49.175247 42.276962,49.735733 42.837433C50.296204 43.397919,51.056351 43.712860,51.849045 43.712860C52.641739 43.712860,53.401886 43.397919,53.962357 42.837433C54.522842 42.276962,54.837784 41.516815,54.837784 40.724121Z" style="fill: rgb(100.000000%,100.000000%,100.000000%);stroke: none;"></path>
  <path d="M105.256714 9.837433C105.256714 9.044739,104.941772 8.284592,104.381287 7.724121C103.820816 7.163635,103.060669 6.848694,102.267975 6.848694C101.475281 6.848694,100.715134 7.163635,100.154663 7.724121C99.594177 8.284592,99.279236 9.044739,99.279236 9.837433C99.279236 10.630127,99.594177 11.390274,100.154663 11.950745C100.715134 12.511230,101.475281 12.826172,102.267975 12.826172C103.060669 12.826172,103.820816 12.511230,104.381287 11.950745C104.941772 11.390274,105.256714 10.630127,105.256714 9.837433Z" style="fill: rgb(100.000000%,100.000000%,100.000000%);stroke: none;"></path>
  <path d="M80.037888 22.809586C80.037888 22.016891,79.722946 21.256744,79.162460 20.696274C78.601990 20.135788,77.841843 19.820847,77.049149 19.820847C76.256454 19.820847,75.496307 20.135788,74.935837 20.696274C74.375351 21.256744,74.060410 22.016891,74.060410 22.809586C74.060410 23.602280,74.375351 24.362427,74.935837 24.922897C75.496307 25.483383,76.256454 25.798325,77.049149 25.798325C77.841843 25.798325,78.601990 25.483383,79.162460 24.922897C79.722946 24.362427,80.037888 23.602280,80.037888 22.809586Z" style="fill: rgb(100.000000%,100.000000%,100.000000%);stroke: none;"></path>
  <path d="M152.682373 41.246231C152.682373 40.453537,152.367432 39.693390,151.806946 39.132919C151.246475 38.572433,150.486328 38.257492,149.693634 38.257492C148.900940 38.257492,148.140793 38.572433,147.580322 39.132919C147.019836 39.693390,146.704895 40.453537,146.704895 41.246231C146.704895 42.038925,147.019836 42.799072,147.580322 43.359543C148.140793 43.920029,148.900940 44.234970,149.693634 44.234970C150.486328 44.234970,151.246475 43.920029,151.806946 43.359543C152.367432 42.799072,152.682373 42.038925,152.682373 41.246231Z" style="fill: rgb(100.000000%,100.000000%,100.000000%);stroke: none;"></path>
  <path d="M123.742874 18.804581C123.742874 18.011887,123.427933 17.251740,122.867447 16.691269C122.306976 16.130783,121.546829 15.815842,120.754135 15.815842C119.961441 15.815842,119.201294 16.130783,118.640823 16.691269C118.080338 17.251740,117.765396 18.011887,117.765396 18.804581C117.765396 19.597275,118.080338 20.357422,118.640823 20.917892C119.201294 21.478378,119.961441 21.793320,120.754135 21.793320C121.546829 21.793320,122.306976 21.478378,122.867447 20.917892C123.427933 20.357422,123.742874 19.597275,123.742874 18.804581Z" style="fill: rgb(100.000000%,100.000000%,100.000000%);stroke: none;"></path>
  <path d="M158.707901 85.771973C158.707901 84.979279,158.392960 84.219131,157.832474 83.658661C157.272003 83.098175,156.511856 82.783234,155.719162 82.783234C154.926468 82.783234,154.166321 83.098175,153.605850 83.658661C153.045364 84.219131,152.730423 84.979279,152.730423 85.771973C152.730423 86.564667,153.045364 87.324814,153.605850 87.885284C154.166321 88.445770,154.926468 88.760712,155.719162 88.760712C156.511856 88.760712,157.272003 88.445770,157.832474 87.885284C158.392960 87.324814,158.707901 86.564667,158.707901 85.771973Z" style="fill: rgb(100.000000%,100.000000%,100.000000%);stroke: none;"></path>
  <path d="M165.286194 55.885941C165.286194 55.093246,164.971252 54.333099,164.410767 53.772629C163.850296 53.212143,163.090149 52.897202,162.297455 52.897202C161.504761 52.897202,160.744614 53.212143,160.184143 53.772629C159.623657 54.333099,159.308716 55.093246,159.308716 55.885941C159.308716 56.678635,159.623657 57.438782,160.184143 57.999252C160.744614 58.559738,161.504761 58.874680,162.297455 58.874680C163.090149 58.874680,163.850296 58.559738,164.410767 57.999252C164.971252 57.438782,165.286194 56.678635,165.286194 55.885941Z" style="fill: rgb(100.000000%,100.000000%,100.000000%);stroke: none;"></path>
  <path d="M130.356232 107.210846C130.356232 106.418152,130.041290 105.658005,129.480804 105.097534C128.920334 104.537048,128.160187 104.222107,127.367493 104.222107C126.574799 104.222107,125.814651 104.537048,125.254181 105.097534C124.693695 105.658005,124.378754 106.418152,124.378754 107.210846C124.378754 108.003540,124.693695 108.763687,125.254181 109.324158C125.814651 109.884644,126.574799 110.199585,127.367493 110.199585C128.160187 110.199585,128.920334 109.884644,129.480804 109.324158C130.041290 108.763687,130.356232 108.003540,130.356232 107.210846Z" style="fill: rgb(100.000000%,100.000000%,100.000000%);stroke: none;"></path>
  <path d="M146.611328 93.603378C146.611328 92.810684,146.296387 92.050537,145.735901 91.490067C145.175430 90.929581,144.415283 90.614639,143.622589 90.614639C142.829895 90.614639,142.069748 90.929581,141.509277 91.490067C140.948792 92.050537,140.633850 92.810684,140.633850 93.603378C140.633850 94.396072,140.948792 95.156219,141.509277 95.716690C142.069748 96.277176,142.829895 96.592117,143.622589 96.592117C144.415283 96.592117,145.175430 96.277176,145.735901 95.716690C146.296387 95.156219,146.611328 94.396072,146.611328 93.603378Z" style="fill: rgb(100.000000%,100.000000%,100.000000%);stroke: none;"></path>
  <path d="M116.088745 121.255478C116.088745 120.462784,115.773804 119.702637,115.213318 119.142166C114.652847 118.581680,113.892700 118.266739,113.100006 118.266739C112.307312 118.266739,111.547165 118.581680,110.986694 119.142166C110.426208 119.702637,110.111267 120.462784,110.111267 121.255478C110.111267 122.048172,110.426208 122.808319,110.986694 123.368790C111.547165 123.929276,112.307312 124.244217,113.100006 124.244217C113.892700 124.244217,114.652847 123.929276,115.213318 123.368790C115.773804 122.808319,116.088745 122.048172,116.088745 121.255478Z" style="fill: rgb(100.000000%,100.000000%,100.000000%);stroke: none;"></path>
  <path d="M124.840103 112.810272C124.840103 112.017578,124.525162 111.257431,123.964676 110.696960C123.404205 110.136475,122.644058 109.821533,121.851364 109.821533C121.058670 109.821533,120.298523 110.136475,119.738052 110.696960C119.177567 111.257431,118.862625 112.017578,118.862625 112.810272C118.862625 113.602966,119.177567 114.363113,119.738052 114.923584C120.298523 115.484070,121.058670 115.799011,121.851364 115.799011C122.644058 115.799011,123.404205 115.484070,123.964676 114.923584C124.525162 114.363113,124.840103 113.602966,124.840103 112.810272Z" style="fill: rgb(100.000000%,100.000000%,100.000000%);stroke: none;"></path>
  <path d="M106.867783 130.219681C106.867783 129.426987,106.552841 128.666840,105.992355 128.106369C105.431885 127.545883,104.671738 127.230942,103.879044 127.230942C103.086349 127.230942,102.326202 127.545883,101.765732 128.106369C101.205246 128.666840,100.890305 129.426987,100.890305 130.219681C100.890305 131.012375,101.205246 131.772522,101.765732 132.332993C102.326202 132.893478,103.086349 133.208420,103.879044 133.208420C104.671738 133.208420,105.431885 132.893478,105.992355 132.332993C106.552841 131.772522,106.867783 131.012375,106.867783 130.219681Z" style="fill: rgb(100.000000%,100.000000%,100.000000%);stroke: none;"></path>
  <path d="M112.944168 124.206558C112.944168 123.413864,112.629227 122.653717,112.068741 122.093246C111.508270 121.532761,110.748123 121.217819,109.955429 121.217819C109.162735 121.217819,108.402588 121.532761,107.842117 122.093246C107.281631 122.653717,106.966690 123.413864,106.966690 124.206558C106.966690 124.999252,107.281631 125.759399,107.842117 126.319870C108.402588 126.880356,109.162735 127.195297,109.955429 127.195297C110.748123 127.195297,111.508270 126.880356,112.068741 126.319870C112.629227 125.759399,112.944168 124.999252,112.944168 124.206558Z" style="fill: rgb(100.000000%,100.000000%,100.000000%);stroke: none;"></path>
  <path d="M96.144211 141.458252C96.144211 140.665558,95.829269 139.905411,95.268784 139.344940C94.708313 138.784454,93.948166 138.469513,93.155472 138.469513C92.362778 138.469513,91.602631 138.784454,91.042160 139.344940C90.481674 139.905411,90.166733 140.665558,90.166733 141.458252C90.166733 142.250946,90.481674 143.011093,91.042160 143.571564C91.602631 144.132050,92.362778 144.446991,93.155472 144.446991C93.948166 144.446991,94.708313 144.132050,95.268784 143.571564C95.829269 143.011093,96.144211 142.250946,96.144211 141.458252Z" style="fill: rgb(100.000000%,100.000000%,100.000000%);stroke: none;"></path>
  <path d="M103.934723 133.277420C103.934723 132.484726,103.619781 131.724579,103.059296 131.164108C102.498825 130.603622,101.738678 130.288681,100.945984 130.288681C100.153290 130.288681,99.393143 130.603622,98.832672 131.164108C98.272186 131.724579,97.957245 132.484726,97.957245 133.277420C97.957245 134.070114,98.272186 134.830261,98.832672 135.390732C99.393143 135.951218,100.153290 136.266159,100.945984 136.266159C101.738678 136.266159,102.498825 135.951218,103.059296 135.390732C103.619781 134.830261,103.934723 134.070114,103.934723 133.277420Z" style="fill: rgb(100.000000%,100.000000%,100.000000%);stroke: none;"></path>
  <path d="M79.007965 160.221237C79.007965 159.428543,78.693024 158.668396,78.132538 158.107925C77.572067 157.547440,76.811920 157.232498,76.019226 157.232498C75.226532 157.232498,74.466385 157.547440,73.905914 158.107925C73.345428 158.668396,73.030487 159.428543,73.030487 160.221237C73.030487 161.013931,73.345428 161.774078,73.905914 162.334549C74.466385 162.895035,75.226532 163.209976,76.019226 163.209976C76.811920 163.209976,77.572067 162.895035,78.132538 162.334549C78.693024 161.774078,79.007965 161.013931,79.007965 160.221237Z" style="fill: rgb(100.000000%,100.000000%,100.000000%);stroke: none;"></path>
  <path d="M91.306076 146.600662C91.306076 145.807968,90.991135 145.047821,90.430649 144.487350C89.870178 143.926865,89.110031 143.611923,88.317337 143.611923C87.524643 143.611923,86.764496 143.926865,86.204025 144.487350C85.643539 145.047821,85.328598 145.807968,85.328598 146.600662C85.328598 147.393356,85.643539 148.153503,86.204025 148.713974C86.764496 149.274460,87.524643 149.589401,88.317337 149.589401C89.110031 149.589401,89.870178 149.274460,90.430649 148.713974C90.991135 148.153503,91.306076 147.393356,91.306076 146.600662Z" style="fill: rgb(100.000000%,100.000000%,100.000000%);stroke: none;"></path>
  <path d="M47.622971 179.251495C47.622971 178.458801,47.308029 177.698654,46.747543 177.138184C46.187073 176.577698,45.426926 176.262756,44.634232 176.262756C43.841537 176.262756,43.081390 176.577698,42.520920 177.138184C41.960434 177.698654,41.645493 178.458801,41.645493 179.251495C41.645493 180.044189,41.960434 180.804337,42.520920 181.364807C43.081390 181.925293,43.841537 182.240234,44.634232 182.240234C45.426926 182.240234,46.187073 181.925293,46.747543 181.364807C47.308029 180.804337,47.622971 180.044189,47.622971 179.251495Z" style="fill: rgb(100.000000%,100.000000%,100.000000%);stroke: none;"></path>
  <path d="M71.455490 169.026947C71.455490 168.234253,71.140549 167.474106,70.580063 166.913635C70.019592 166.353149,69.259445 166.038208,68.466751 166.038208C67.674057 166.038208,66.913910 166.353149,66.353439 166.913635C65.792953 167.474106,65.478012 168.234253,65.478012 169.026947C65.478012 169.819641,65.792953 170.579788,66.353439 171.140259C66.913910 171.700745,67.674057 172.015686,68.466751 172.015686C69.259445 172.015686,70.019592 171.700745,70.580063 171.140259C71.140549 170.579788,71.455490 169.819641,71.455490 169.026947Z" style="fill: rgb(100.000000%,100.000000%,100.000000%);stroke: none;"></path>
  <path d="M13.780121 156.098267C13.780121 155.305573,13.465179 154.545425,12.904694 153.984955C12.344223 153.424469,11.584076 153.109528,10.791382 153.109528C9.998688 153.109528,9.238541 153.424469,8.678070 153.984955C8.117584 154.545425,7.802643 155.305573,7.802643 156.098267C7.802643 156.890961,8.117584 157.651108,8.678070 158.211578C9.238541 158.772064,9.998688 159.087006,10.791382 159.087006C11.584076 159.087006,12.344223 158.772064,12.904694 158.211578C13.465179 157.651108,13.780121 156.890961,13.780121 156.098267Z" style="fill: rgb(100.000000%,100.000000%,100.000000%);stroke: none;"></path>
  <path d="M31.887711 176.703873C31.887711 175.911179,31.572769 175.151031,31.012283 174.590561C30.451813 174.030075,29.691666 173.715134,28.898972 173.715134C28.106277 173.715134,27.346130 174.030075,26.785660 174.590561C26.225174 175.151031,25.910233 175.911179,25.910233 176.703873C25.910233 177.496567,26.225174 178.256714,26.785660 178.817184C27.346130 179.377670,28.106277 179.692612,28.898972 179.692612C29.691666 179.692612,30.451813 179.377670,31.012283 178.817184C31.572769 178.256714,31.887711 177.496567,31.887711 176.703873Z" style="fill: rgb(100.000000%,100.000000%,100.000000%);stroke: none;"></path>
  <path d="M27.595215 119.339767C27.595215 118.547073,27.280273 117.786926,26.719788 117.226456C26.159317 116.665970,25.399170 116.351028,24.606476 116.351028C23.813782 116.351028,23.053635 116.665970,22.493164 117.226456C21.932678 117.786926,21.617737 118.547073,21.617737 119.339767C21.617737 120.132462,21.932678 120.892609,22.493164 121.453079C23.053635 122.013565,23.813782 122.328506,24.606476 122.328506C25.399170 122.328506,26.159317 122.013565,26.719788 121.453079C27.280273 120.892609,27.595215 120.132462,27.595215 119.339767Z" style="fill: rgb(100.000000%,100.000000%,100.000000%);stroke: none;"></path>
  <path d="M12.515350 141.886505C12.515350 141.093811,12.200409 140.333664,11.639923 139.773193C11.079453 139.212708,10.319305 138.897766,9.526611 138.897766C8.733917 138.897766,7.973770 139.212708,7.413300 139.773193C6.852814 140.333664,6.537872 141.093811,6.537872 141.886505C6.537872 142.679199,6.852814 143.439346,7.413300 143.999817C7.973770 144.560303,8.733917 144.875244,9.526611 144.875244C10.319305 144.875244,11.079453 144.560303,11.639923 143.999817C12.200409 143.439346,12.515350 142.679199,12.515350 141.886505Z" style="fill: rgb(100.000000%,100.000000%,100.000000%);stroke: none;"></path>
  <path d="M66.147766 112.956192C66.147766 112.163498,65.832825 111.403351,65.272339 110.842880C64.711868 110.282394,63.951721 109.967453,63.159027 109.967453C62.366333 109.967453,61.606186 110.282394,61.045715 110.842880C60.485229 111.403351,60.170288 112.163498,60.170288 112.956192C60.170288 113.748886,60.485229 114.509033,61.045715 115.069504C61.606186 115.629990,62.366333 115.944931,63.159027 115.944931C63.951721 115.944931,64.711868 115.629990,65.272339 115.069504C65.832825 114.509033,66.147766 113.748886,66.147766 112.956192Z" style="fill: rgb(100.000000%,100.000000%,100.000000%);stroke: none;"></path>
  <path d="M42.539734 116.056244C42.539734 115.263550,42.224792 114.503403,41.664307 113.942932C41.103836 113.382446,40.343689 113.067505,39.550995 113.067505C38.758301 113.067505,37.998154 113.382446,37.437683 113.942932C36.877197 114.503403,36.562256 115.263550,36.562256 116.056244C36.562256 116.848938,36.877197 117.609085,37.437683 118.169556C37.998154 118.730042,38.758301 119.044983,39.550995 119.044983C40.343689 119.044983,41.103836 118.730042,41.664307 118.169556C42.224792 117.609085,42.539734 116.848938,42.539734 116.056244Z" style="fill: rgb(100.000000%,100.000000%,100.000000%);stroke: none;"></path>
  <path d="M91.402527 109.482056C91.402527 108.689362,91.087585 107.929214,90.527100 107.368744C89.966629 106.808258,89.206482 106.493317,88.413788 106.493317C87.621094 106.493317,86.860947 106.808258,86.300476 107.368744C85.739990 107.929214,85.425049 108.689362,85.425049 109.482056C85.425049 110.274750,85.739990 111.034897,86.300476 111.595367C86.860947 112.155853,87.621094 112.470795,88.413788 112.470795C89.206482 112.470795,89.966629 112.155853,90.527100 111.595367C91.087585 111.034897,91.402527 110.274750,91.402527 109.482056Z" style="fill: rgb(100.000000%,100.000000%,100.000000%);stroke: none;"></path>
  <path d="M75.600967 112.024048C75.600967 111.231354,75.286026 110.471207,74.725540 109.910736C74.165070 109.350250,73.404922 109.035309,72.612228 109.035309C71.819534 109.035309,71.059387 109.350250,70.498917 109.910736C69.938431 110.471207,69.623489 111.231354,69.623489 112.024048C69.623489 112.816742,69.938431 113.576889,70.498917 114.137360C71.059387 114.697845,71.819534 115.012787,72.612228 115.012787C73.404922 115.012787,74.165070 114.697845,74.725540 114.137360C75.286026 113.576889,75.600967 112.816742,75.600967 112.024048Z" style="fill: rgb(100.000000%,100.000000%,100.000000%);stroke: none;"></path>
  <path d="M109.829483 111.398026C109.829483 110.605331,109.514542 109.845184,108.954056 109.284714C108.393585 108.724228,107.633438 108.409286,106.840744 108.409286C106.048050 108.409286,105.287903 108.724228,104.727432 109.284714C104.166946 109.845184,103.852005 110.605331,103.852005 111.398026C103.852005 112.190720,104.166946 112.950867,104.727432 113.511337C105.287903 114.071823,106.048050 114.386765,106.840744 114.386765C107.633438 114.386765,108.393585 114.071823,108.954056 113.511337C109.514542 112.950867,109.829483 112.190720,109.829483 111.398026Z" style="fill: rgb(100.000000%,100.000000%,100.000000%);stroke: none;"></path>
  <path d="M97.968750 108.191528C97.968750 107.398834,97.653809 106.638687,97.093323 106.078217C96.532852 105.517731,95.772705 105.202789,94.980011 105.202789C94.187317 105.202789,93.427170 105.517731,92.866699 106.078217C92.306213 106.638687,91.991272 107.398834,91.991272 108.191528C91.991272 108.984222,92.306213 109.744370,92.866699 110.304840C93.427170 110.865326,94.187317 111.180267,94.980011 111.180267C95.772705 111.180267,96.532852 110.865326,97.093323 110.304840C97.653809 109.744370,97.968750 108.984222,97.968750 108.191528Z" style="fill: rgb(100.000000%,100.000000%,100.000000%);stroke: none;"></path>
  <path d="M123.647446 121.263916C123.647446 120.471222,123.332504 119.711075,122.772018 119.150604C122.211548 118.590118,121.451401 118.275177,120.658707 118.275177C119.866013 118.275177,119.105865 118.590118,118.545395 119.150604C117.984909 119.711075,117.669968 120.471222,117.669968 121.263916C117.669968 122.056610,117.984909 122.816757,118.545395 123.377228C119.105865 123.937714,119.866013 124.252655,120.658707 124.252655C121.451401 124.252655,122.211548 123.937714,122.772018 123.377228C123.332504 122.816757,123.647446 122.056610,123.647446 121.263916Z" style="fill: rgb(100.000000%,100.000000%,100.000000%);stroke: none;"></path>
  <path d="M114.429062 115.051956C114.429062 114.259262,114.114120 113.499115,113.553635 112.938644C112.993164 112.378159,112.233017 112.063217,111.440323 112.063217C110.647629 112.063217,109.887482 112.378159,109.327011 112.938644C108.766525 113.499115,108.451584 114.259262,108.451584 115.051956C108.451584 115.844650,108.766525 116.604797,109.327011 117.165268C109.887482 117.725754,110.647629 118.040695,111.440323 118.040695C112.233017 118.040695,112.993164 117.725754,113.553635 117.165268C114.114120 116.604797,114.429062 115.844650,114.429062 115.051956Z" style="fill: rgb(100.000000%,100.000000%,100.000000%);stroke: none;"></path>
  <path d="M133.247757 133.319839C133.247757 132.527145,132.932816 131.766998,132.372330 131.206528C131.811859 130.646042,131.051712 130.331100,130.259018 130.331100C129.466324 130.331100,128.706177 130.646042,128.145706 131.206528C127.585220 131.766998,127.270279 132.527145,127.270279 133.319839C127.270279 134.112534,127.585220 134.872681,128.145706 135.433151C128.706177 135.993637,129.466324 136.308578,130.259018 136.308578C131.051712 136.308578,131.811859 135.993637,132.372330 135.433151C132.932816 134.872681,133.247757 134.112534,133.247757 133.319839Z" style="fill: rgb(100.000000%,100.000000%,100.000000%);stroke: none;"></path>
  <path d="M128.481201 124.090790C128.481201 123.298096,128.166260 122.537949,127.605774 121.977478C127.045303 121.416992,126.285156 121.102051,125.492462 121.102051C124.699768 121.102051,123.939621 121.416992,123.379150 121.977478C122.818665 122.537949,122.503723 123.298096,122.503723 124.090790C122.503723 124.883484,122.818665 125.643631,123.379150 126.204102C123.939621 126.764587,124.699768 127.079529,125.492462 127.079529C126.285156 127.079529,127.045303 126.764587,127.605774 126.204102C128.166260 125.643631,128.481201 124.883484,128.481201 124.090790Z" style="fill: rgb(100.000000%,100.000000%,100.000000%);stroke: none;"></path>
  <path d="M132.342285 149.175827C132.342285 148.383133,132.027344 147.622986,131.466858 147.062515C130.906387 146.502029,130.146240 146.187088,129.353546 146.187088C128.560852 146.187088,127.800705 146.502029,127.240234 147.062515C126.679749 147.622986,126.364807 148.383133,126.364807 149.175827C126.364807 149.968521,126.679749 150.728668,127.240234 151.289139C127.800705 151.849625,128.560852 152.164566,129.353546 152.164566C130.146240 152.164566,130.906387 151.849625,131.466858 151.289139C132.027344 150.728668,132.342285 149.968521,132.342285 149.175827Z" style="fill: rgb(100.000000%,100.000000%,100.000000%);stroke: none;"></path>
  <path d="M133.002457 138.475433C133.002457 137.682739,132.687515 136.922592,132.127029 136.362122C131.566559 135.801636,130.806412 135.486694,130.013718 135.486694C129.221024 135.486694,128.460876 135.801636,127.900406 136.362122C127.339920 136.922592,127.024979 137.682739,127.024979 138.475433C127.024979 139.268127,127.339920 140.028275,127.900406 140.588745C128.460876 141.149231,129.221024 141.464172,130.013718 141.464172C130.806412 141.464172,131.566559 141.149231,132.127029 140.588745C132.687515 140.028275,133.002457 139.268127,133.002457 138.475433Z" style="fill: rgb(100.000000%,100.000000%,100.000000%);stroke: none;"></path>
  <path d="M134.537643 169.499741C134.537643 168.707047,134.222702 167.946899,133.662216 167.386429C133.101746 166.825943,132.341599 166.511002,131.548904 166.511002C130.756210 166.511002,129.996063 166.825943,129.435593 167.386429C128.875107 167.946899,128.560165 168.707047,128.560165 169.499741C128.560165 170.292435,128.875107 171.052582,129.435593 171.613052C129.996063 172.173538,130.756210 172.488480,131.548904 172.488480C132.341599 172.488480,133.101746 172.173538,133.662216 171.613052C134.222702 171.052582,134.537643 170.292435,134.537643 169.499741Z" style="fill: rgb(100.000000%,100.000000%,100.000000%);stroke: none;"></path>
  <path d="M131.970901 154.943039C131.970901 154.150345,131.655960 153.390198,131.095474 152.829727C130.535004 152.269241,129.774857 151.954300,128.982162 151.954300C128.189468 151.954300,127.429321 152.269241,126.868851 152.829727C126.308365 153.390198,125.993423 154.150345,125.993423 154.943039C125.993423 155.735733,126.308365 156.495880,126.868851 157.056351C127.429321 157.616837,128.189468 157.931778,128.982162 157.931778C129.774857 157.931778,130.535004 157.616837,131.095474 157.056351C131.655960 156.495880,131.970901 155.735733,131.970901 154.943039Z" style="fill: rgb(100.000000%,100.000000%,100.000000%);stroke: none;"></path>
  <path d="M157.157288 188.590637C157.157288 187.797943,156.842346 187.037796,156.281860 186.477325C155.721390 185.916840,154.961243 185.601898,154.168549 185.601898C153.375854 185.601898,152.615707 185.916840,152.055237 186.477325C151.494751 187.037796,151.179810 187.797943,151.179810 188.590637C151.179810 189.383331,151.494751 190.143478,152.055237 190.703949C152.615707 191.264435,153.375854 191.579376,154.168549 191.579376C154.961243 191.579376,155.721390 191.264435,156.281860 190.703949C156.842346 190.143478,157.157288 189.383331,157.157288 188.590637Z" style="fill: rgb(100.000000%,100.000000%,100.000000%);stroke: none;"></path>
  <path d="M139.407028 177.579575C139.407028 176.786880,139.092087 176.026733,138.531601 175.466263C137.971130 174.905777,137.210983 174.590836,136.418289 174.590836C135.625595 174.590836,134.865448 174.905777,134.304977 175.466263C133.744492 176.026733,133.429550 176.786880,133.429550 177.579575C133.429550 178.372269,133.744492 179.132416,134.304977 179.692886C134.865448 180.253372,135.625595 180.568314,136.418289 180.568314C137.210983 180.568314,137.971130 180.253372,138.531601 179.692886C139.092087 179.132416,139.407028 178.372269,139.407028 177.579575Z" style="fill: rgb(100.000000%,100.000000%,100.000000%);stroke: none;"></path>
  <path d="M185.956192 172.713684C185.956192 171.920990,185.641251 171.160843,185.080765 170.600372C184.520294 170.039886,183.760147 169.724945,182.967453 169.724945C182.174759 169.724945,181.414612 170.039886,180.854141 170.600372C180.293655 171.160843,179.978714 171.920990,179.978714 172.713684C179.978714 173.506378,180.293655 174.266525,180.854141 174.826996C181.414612 175.387482,182.174759 175.702423,182.967453 175.702423C183.760147 175.702423,184.520294 175.387482,185.080765 174.826996C185.641251 174.266525,185.956192 173.506378,185.956192 172.713684Z" style="fill: rgb(100.000000%,100.000000%,100.000000%);stroke: none;"></path>
  <path d="M170.188873 187.940628C170.188873 187.147934,169.873932 186.387787,169.313446 185.827316C168.752975 185.266830,167.992828 184.951889,167.200134 184.951889C166.407440 184.951889,165.647293 185.266830,165.086823 185.827316C164.526337 186.387787,164.211395 187.147934,164.211395 187.940628C164.211395 188.733322,164.526337 189.493469,165.086823 190.053940C165.647293 190.614426,166.407440 190.929367,167.200134 190.929367C167.992828 190.929367,168.752975 190.614426,169.313446 190.053940C169.873932 189.493469,170.188873 188.733322,170.188873 187.940628Z" style="fill: rgb(100.000000%,100.000000%,100.000000%);stroke: none;"></path>
  <path d="M176.324036 144.139771C176.324036 143.347076,176.009094 142.586929,175.448608 142.026459C174.888138 141.465973,174.127991 141.151031,173.335297 141.151031C172.542603 141.151031,171.782455 141.465973,171.221985 142.026459C170.661499 142.586929,170.346558 143.347076,170.346558 144.139771C170.346558 144.932465,170.661499 145.692612,171.221985 146.253082C171.782455 146.813568,172.542603 147.128510,173.335297 147.128510C174.127991 147.128510,174.888138 146.813568,175.448608 146.253082C176.009094 145.692612,176.324036 144.932465,176.324036 144.139771Z" style="fill: rgb(100.000000%,100.000000%,100.000000%);stroke: none;"></path>
  <path d="M187.712494 161.550720C187.712494 160.758026,187.397552 159.997879,186.837067 159.437408C186.276596 158.876923,185.516449 158.561981,184.723755 158.561981C183.931061 158.561981,183.170914 158.876923,182.610443 159.437408C182.049957 159.997879,181.735016 160.758026,181.735016 161.550720C181.735016 162.343414,182.049957 163.103561,182.610443 163.664032C183.170914 164.224518,183.931061 164.539459,184.723755 164.539459C185.516449 164.539459,186.276596 164.224518,186.837067 163.664032C187.397552 163.103561,187.712494 162.343414,187.712494 161.550720Z" style="fill: rgb(100.000000%,100.000000%,100.000000%);stroke: none;"></path>
  <path d="M146.856140 141.836655C146.856140 141.043961,146.541199 140.283813,145.980713 139.723343C145.420242 139.162857,144.660095 138.847916,143.867401 138.847916C143.074707 138.847916,142.314560 139.162857,141.754089 139.723343C141.193604 140.283813,140.878662 141.043961,140.878662 141.836655C140.878662 142.629349,141.193604 143.389496,141.754089 143.949966C142.314560 144.510452,143.074707 144.825394,143.867401 144.825394C144.660095 144.825394,145.420242 144.510452,145.980713 143.949966C146.541199 143.389496,146.856140 142.629349,146.856140 141.836655Z" style="fill: rgb(100.000000%,100.000000%,100.000000%);stroke: none;"></path>
  <path d="M164.859512 141.925171C164.859512 141.132477,164.544571 140.372330,163.984085 139.811859C163.423615 139.251373,162.663467 138.936432,161.870773 138.936432C161.078079 138.936432,160.317932 139.251373,159.757462 139.811859C159.196976 140.372330,158.882034 141.132477,158.882034 141.925171C158.882034 142.717865,159.196976 143.478012,159.757462 144.038483C160.317932 144.598969,161.078079 144.913910,161.870773 144.913910C162.663467 144.913910,163.423615 144.598969,163.984085 144.038483C164.544571 143.478012,164.859512 142.717865,164.859512 141.925171Z" style="fill: rgb(100.000000%,100.000000%,100.000000%);stroke: none;"></path>
  <path d="M126.896835 144.247864C126.896835 143.455170,126.581894 142.695023,126.021408 142.134552C125.460938 141.574066,124.700790 141.259125,123.908096 141.259125C123.115402 141.259125,122.355255 141.574066,121.794785 142.134552C121.234299 142.695023,120.919357 143.455170,120.919357 144.247864C120.919357 145.040558,121.234299 145.800705,121.794785 146.361176C122.355255 146.921661,123.115402 147.236603,123.908096 147.236603C124.700790 147.236603,125.460938 146.921661,126.021408 146.361176C126.581894 145.800705,126.896835 145.040558,126.896835 144.247864Z" style="fill: rgb(100.000000%,100.000000%,100.000000%);stroke: none;"></path>
  <path d="M139.752060 142.481949C139.752060 141.689255,139.437119 140.929108,138.876633 140.368637C138.316162 139.808151,137.556015 139.493210,136.763321 139.493210C135.970627 139.493210,135.210480 139.808151,134.650009 140.368637C134.089523 140.929108,133.774582 141.689255,133.774582 142.481949C133.774582 143.274643,134.089523 144.034790,134.650009 144.595261C135.210480 145.155746,135.970627 145.470688,136.763321 145.470688C137.556015 145.470688,138.316162 145.155746,138.876633 144.595261C139.437119 144.034790,139.752060 143.274643,139.752060 142.481949Z" style="fill: rgb(100.000000%,100.000000%,100.000000%);stroke: none;"></path>
  <path d="M110.056808 142.458603C110.056808 141.665909,109.741867 140.905762,109.181381 140.345291C108.620911 139.784805,107.860764 139.469864,107.068069 139.469864C106.275375 139.469864,105.515228 139.784805,104.954758 140.345291C104.394272 140.905762,104.079330 141.665909,104.079330 142.458603C104.079330 143.251297,104.394272 144.011444,104.954758 144.571915C105.515228 145.132401,106.275375 145.447342,107.068069 145.447342C107.860764 145.447342,108.620911 145.132401,109.181381 144.571915C109.741867 144.011444,110.056808 143.251297,110.056808 142.458603Z" style="fill: rgb(100.000000%,100.000000%,100.000000%);stroke: none;"></path>
  <path d="M120.992310 145.253098C120.992310 144.460403,120.677368 143.700256,120.116882 143.139786C119.556412 142.579300,118.796265 142.264359,118.003571 142.264359C117.210876 142.264359,116.450729 142.579300,115.890259 143.139786C115.329773 143.700256,115.014832 144.460403,115.014832 145.253098C115.014832 146.045792,115.329773 146.805939,115.890259 147.366409C116.450729 147.926895,117.210876 148.241837,118.003571 148.241837C118.796265 148.241837,119.556412 147.926895,120.116882 147.366409C120.677368 146.805939,120.992310 146.045792,120.992310 145.253098Z" style="fill: rgb(100.000000%,100.000000%,100.000000%);stroke: none;"></path>
  <path d="M96.291016 133.459183C96.291016 132.666489,95.976074 131.906342,95.415588 131.345871C94.855118 130.785385,94.094971 130.470444,93.302277 130.470444C92.509583 130.470444,91.749435 130.785385,91.188965 131.345871C90.628479 131.906342,90.313538 132.666489,90.313538 133.459183C90.313538 134.251877,90.628479 135.012024,91.188965 135.572495C91.749435 136.132980,92.509583 136.447922,93.302277 136.447922C94.094971 136.447922,94.855118 136.132980,95.415588 135.572495C95.976074 135.012024,96.291016 134.251877,96.291016 133.459183Z" style="fill: rgb(100.000000%,100.000000%,100.000000%);stroke: none;"></path>
  <path d="M105.625748 139.164978C105.625748 138.372284,105.310806 137.612137,104.750320 137.051666C104.189850 136.491180,103.429703 136.176239,102.637009 136.176239C101.844315 136.176239,101.084167 136.491180,100.523697 137.051666C99.963211 137.612137,99.648270 138.372284,99.648270 139.164978C99.648270 139.957672,99.963211 140.717819,100.523697 141.278290C101.084167 141.838776,101.844315 142.153717,102.637009 142.153717C103.429703 142.153717,104.189850 141.838776,104.750320 141.278290C105.310806 140.717819,105.625748 139.957672,105.625748 139.164978Z" style="fill: rgb(100.000000%,100.000000%,100.000000%);stroke: none;"></path>
  <path d="M85.408813 121.514954C85.408813 120.722260,85.093872 119.962112,84.533386 119.401642C83.972916 118.841156,83.212769 118.526215,82.420074 118.526215C81.627380 118.526215,80.867233 118.841156,80.306763 119.401642C79.746277 119.962112,79.431335 120.722260,79.431335 121.514954C79.431335 122.307648,79.746277 123.067795,80.306763 123.628265C80.867233 124.188751,81.627380 124.503693,82.420074 124.503693C83.212769 124.503693,83.972916 124.188751,84.533386 123.628265C85.093872 123.067795,85.408813 122.307648,85.408813 121.514954Z" style="fill: rgb(100.000000%,100.000000%,100.000000%);stroke: none;"></path>
  <path d="M91.139053 130.874039C91.139053 130.081345,90.824112 129.321198,90.263626 128.760727C89.703156 128.200241,88.943008 127.885300,88.150314 127.885300C87.357620 127.885300,86.597473 128.200241,86.037003 128.760727C85.476517 129.321198,85.161575 130.081345,85.161575 130.874039C85.161575 131.666733,85.476517 132.426880,86.037003 132.987350C86.597473 133.547836,87.357620 133.862778,88.150314 133.862778C88.943008 133.862778,89.703156 133.547836,90.263626 132.987350C90.824112 132.426880,91.139053 131.666733,91.139053 130.874039Z" style="fill: rgb(100.000000%,100.000000%,100.000000%);stroke: none;"></path>
  <path d="M84.455170 103.550476C84.455170 102.757782,84.140228 101.997635,83.579742 101.437164C83.019272 100.876678,82.259125 100.561737,81.466431 100.561737C80.673737 100.561737,79.913589 100.876678,79.353119 101.437164C78.792633 101.997635,78.477692 102.757782,78.477692 103.550476C78.477692 104.343170,78.792633 105.103317,79.353119 105.663788C79.913589 106.224274,80.673737 106.539215,81.466431 106.539215C82.259125 106.539215,83.019272 106.224274,83.579742 105.663788C84.140228 105.103317,84.455170 104.343170,84.455170 103.550476Z" style="fill: rgb(100.000000%,100.000000%,100.000000%);stroke: none;"></path>
  <path d="M85.375259 115.902054C85.375259 115.109360,85.060318 114.349213,84.499832 113.788742C83.939362 113.228256,83.179214 112.913315,82.386520 112.913315C81.593826 112.913315,80.833679 113.228256,80.273209 113.788742C79.712723 114.349213,79.397781 115.109360,79.397781 115.902054C79.397781 116.694748,79.712723 117.454895,80.273209 118.015366C80.833679 118.575851,81.593826 118.890793,82.386520 118.890793C83.179214 118.890793,83.939362 118.575851,84.499832 118.015366C85.060318 117.454895,85.375259 116.694748,85.375259 115.902054Z" style="fill: rgb(100.000000%,100.000000%,100.000000%);stroke: none;"></path>
  <path d="M81.584244 89.669556C83.016678 82.438370,84.488617 75.215088,86.000000 68.000000C87.422119 61.211090,88.879898 54.425201,89.866425 47.558823C91.320450 37.438538,91.597351 26.745209,86.000000 18.205414C77.543518 5.303497,60.197769 2.284485,46.034973 9.326462C33.669388 15.474823,25.845474 28.517929,29.358414 41.515396C32.769684 54.136719,45.379807 60.993759,58.379074 64.000275C67.452606 66.098816,76.783386 66.690247,86.000000 68.000000C95.521561 69.353088,104.972443 71.477722,114.597458 71.495422C129.481857 71.522781,144.851257 66.650635,158.598465 72.690918C174.212997 79.551682,180.924545 96.720734,185.426575 113.330795C189.394104 127.968872,190.920258 144.585922,179.203430 153.111115C172.214279 158.196426,162.333176 157.704819,155.871933 163.524078C150.286835 168.554230,149.076523 176.761383,144.090332 182.338791C133.861313 193.780670,116.717331 189.348999,101.312698 187.853806C84.996994 186.270172,66.197327 187.554901,58.063461 173.490128C53.133484 164.965424,55.320908 153.634521,49.138687 145.843903C41.421387 136.118805,26.600784 138.138977,16.698914 131.162811C2.766602 121.347092,4.241837 101.914017,6.899231 84.509003C9.554550 67.117661,13.473190 48.159836,29.358414 41.515396C39.729462 37.177414,51.849045 40.724121,62.181747 36.281113C71.453354 32.294357,77.049149 22.809586,86.000000 18.205414C102.267975 9.837433,120.754135 18.804581,135.671051 30.372177C149.693634 41.246231,162.297455 55.885941,158.598465 72.690918C155.719162 85.771973,143.622589 93.603378,133.387650 102.171249C127.367493 107.210846,121.851364 112.810272,116.202805 118.261230C113.100006 121.255478,109.955429 124.206558,106.890488 127.239594C103.879044 130.219681,100.945984 133.277420,98.024292 136.345490C93.155472 141.458252,88.317337 146.600662,83.585892 151.840897C76.019226 160.221237,68.466751 169.026947,58.063461 173.490128C44.634232 179.251495,28.898972 176.703873,19.343155 165.829803C10.791382 156.098267,9.526611 141.886505,16.698914 131.162811C24.606476 119.339767,39.550995 116.056244,53.746719 114.192154C63.159027 112.956192,72.612228 112.024048,81.985321 110.516205C88.413788 109.482056,94.980011 108.191528,101.282425 109.895355C106.840744 111.398026,111.440323 115.051956,116.202805 118.261230C120.658707 121.263916,125.492462 124.090790,127.966476 128.881012C130.259018 133.319839,130.013718 138.475433,129.706726 143.451309C129.353546 149.175827,128.982162 154.943039,129.979095 160.596909C131.548904 169.499741,136.418289 177.579575,144.090332 182.338791C154.168549 188.590637,167.200134 187.940628,175.641052 179.789001C182.967453 172.713684,184.723755 161.550720,179.203430 153.111115C173.335297 144.139771,161.870773 141.925171,150.991119 141.871674C143.867401 141.836655,136.763321 142.481949,129.706726 143.451309C123.908096 144.247864,118.003571 145.253098,112.318832 143.800400C107.068069 142.458603,102.637009 139.164978,98.024292 136.345490C93.302277 133.459183,88.150314 130.874039,85.249832 126.136749C82.420074 121.514954,82.386520 115.902054,81.985321 110.516205C81.466431 103.550476,80.223846 96.537109,81.584244 89.669556" style="stroke:rgb(0.000000%,0.000000%,0.000000%); stroke-width: 0.498138;stroke-linecap: round;stroke-linejoin: round;stroke-miterlimit: 10.000000;fill: none;"></path>
  <path d="M81.584244 89.669556C83.016678 82.438370,84.488617 75.215088,86.000000 68.000000" style="stroke:rgb(0.000000%,0.000000%,0.000000%); stroke-width: 1.494400;stroke-linecap: round;stroke-linejoin: round;stroke-miterlimit: 10.000000;fill: none;"></path>
  <path d="M81.985321 110.516205C81.466431 103.550476,80.223846 96.537109,81.584244 89.669556" style="stroke:rgb(0.000000%,0.000000%,0.000000%); stroke-width: 1.494400;stroke-linecap: round;stroke-linejoin: round;stroke-miterlimit: 10.000000;fill: none;"></path>
  <path d="M88.988739 68.000000C88.988739 67.207306,88.673798 66.447159,88.113312 65.886688C87.552841 65.326202,86.792694 65.011261,86.000000 65.011261C85.207306 65.011261,84.447159 65.326202,83.886688 65.886688C83.326202 66.447159,83.011261 67.207306,83.011261 68.000000C83.011261 68.792694,83.326202 69.552841,83.886688 70.113312C84.447159 70.673798,85.207306 70.988739,86.000000 70.988739C86.792694 70.988739,87.552841 70.673798,88.113312 70.113312C88.673798 69.552841,88.988739 68.792694,88.988739 68.000000Z" style="fill: rgb(100.000000%,100.000000%,100.000000%);stroke: none;"></path>
  <path d="M72.135895 66.295944C76.754852 66.869827,81.391693 67.345123,86.000000 68.000000C90.760788 68.676544,95.503906 69.545975,100.259949 70.248489" style="stroke:rgb(0.000000%,0.000000%,0.000000%); stroke-width: 0.498138;stroke-linecap: round;stroke-linejoin: round;stroke-miterlimit: 10.000000;fill: none;"></path>
  <path d="M32.347153 41.515396C32.347153 40.722702,32.032211 39.962555,31.471725 39.402084C30.911255 38.841599,30.151108 38.526657,29.358414 38.526657C28.565720 38.526657,27.805573 38.841599,27.245102 39.402084C26.684616 39.962555,26.369675 40.722702,26.369675 41.515396C26.369675 42.308090,26.684616 43.068237,27.245102 43.628708C27.805573 44.189194,28.565720 44.504135,29.358414 44.504135C30.151108 44.504135,30.911255 44.189194,31.471725 43.628708C32.032211 43.068237,32.347153 42.308090,32.347153 41.515396Z" style="fill: rgb(100.000000%,100.000000%,100.000000%);stroke: none;"></path>
  <path d="M13.167618 58.982101C16.464844 51.238174,21.415802 44.837616,29.358414 41.515396C34.543945 39.346405,40.166611 39.148590,45.784470 38.937637" style="stroke:rgb(0.000000%,0.000000%,0.000000%); stroke-width: 0.498138;stroke-linecap: round;stroke-linejoin: round;stroke-miterlimit: 10.000000;fill: none;"></path>
  <path d="M161.587204 72.690918C161.587204 71.898224,161.272263 71.138077,160.711777 70.577606C160.151306 70.017120,159.391159 69.702179,158.598465 69.702179C157.805771 69.702179,157.045624 70.017120,156.485153 70.577606C155.924667 71.138077,155.609726 71.898224,155.609726 72.690918C155.609726 73.483612,155.924667 74.243759,156.485153 74.804230C157.045624 75.364716,157.805771 75.679657,158.598465 75.679657C159.391159 75.679657,160.151306 75.364716,160.711777 74.804230C161.272263 74.243759,161.587204 73.483612,161.587204 72.690918Z" style="fill: rgb(100.000000%,100.000000%,100.000000%);stroke: none;"></path>
  <path d="M153.780350 49.307465C158.221756 56.427261,160.447952 64.288437,158.598465 72.690918C157.158813 79.231445,153.414841 84.459564,148.751404 89.123535" style="stroke:rgb(0.000000%,0.000000%,0.000000%); stroke-width: 0.498138;stroke-linecap: round;stroke-linejoin: round;stroke-miterlimit: 10.000000;fill: none;"></path>
  <path d="M147.079071 182.338791C147.079071 181.546097,146.764130 180.785950,146.203644 180.225479C145.643173 179.664993,144.883026 179.350052,144.090332 179.350052C143.297638 179.350052,142.537491 179.664993,141.977020 180.225479C141.416534 180.785950,141.101593 181.546097,141.101593 182.338791C141.101593 183.131485,141.416534 183.891632,141.977020 184.452103C142.537491 185.012589,143.297638 185.327530,144.090332 185.327530C144.883026 185.327530,145.643173 185.012589,146.203644 184.452103C146.764130 183.891632,147.079071 183.131485,147.079071 182.338791Z" style="fill: rgb(100.000000%,100.000000%,100.000000%);stroke: none;"></path>
  <path d="M149.756531 172.726227C148.132538 176.103958,146.583420 179.550095,144.090332 182.338791C138.975815 188.059738,132.132568 189.812286,124.642365 189.947708" style="stroke:rgb(0.000000%,0.000000%,0.000000%); stroke-width: 0.498138;stroke-linecap: round;stroke-linejoin: round;stroke-miterlimit: 10.000000;fill: none;"></path>
  <path d="M19.687653 131.162811C19.687653 130.370117,19.372711 129.609970,18.812225 129.049500C18.251755 128.489014,17.491608 128.174072,16.698914 128.174072C15.906219 128.174072,15.146072 128.489014,14.585602 129.049500C14.025116 129.609970,13.710175 130.370117,13.710175 131.162811C13.710175 131.955505,14.025116 132.715652,14.585602 133.276123C15.146072 133.836609,15.906219 134.151550,16.698914 134.151550C17.491608 134.151550,18.251755 133.836609,18.812225 133.276123C19.372711 132.715652,19.687653 131.955505,19.687653 131.162811Z" style="fill: rgb(100.000000%,100.000000%,100.000000%);stroke: none;"></path>
  <path d="M33.738007 137.472504C27.830460 135.889893,21.649841 134.650894,16.698914 131.162811C9.732758 126.254944,6.618484 118.942749,5.577927 110.681885" style="stroke:rgb(0.000000%,0.000000%,0.000000%); stroke-width: 0.498138;stroke-linecap: round;stroke-linejoin: round;stroke-miterlimit: 10.000000;fill: none;"></path>
  <path d="M88.988739 18.205414C88.988739 17.412720,88.673798 16.652573,88.113312 16.092102C87.552841 15.531616,86.792694 15.216675,86.000000 15.216675C85.207306 15.216675,84.447159 15.531616,83.886688 16.092102C83.326202 16.652573,83.011261 17.412720,83.011261 18.205414C83.011261 18.998108,83.326202 19.758255,83.886688 20.318726C84.447159 20.879211,85.207306 21.194153,86.000000 21.194153C86.792694 21.194153,87.552841 20.879211,88.113312 20.318726C88.673798 19.758255,88.988739 18.998108,88.988739 18.205414Z" style="fill: rgb(100.000000%,100.000000%,100.000000%);stroke: none;"></path>
  <path d="M90.577484 32.289429C90.128784 27.283585,88.798676 22.475311,86.000000 18.205414C81.771759 11.754456,75.321198 7.774216,68.157349 6.286972" style="stroke:rgb(0.000000%,0.000000%,0.000000%); stroke-width: 0.498138;stroke-linecap: round;stroke-linejoin: round;stroke-miterlimit: 10.000000;fill: none;"></path>
  <path d="M119.191544 118.261230C119.191544 117.468536,118.876602 116.708389,118.316116 116.147919C117.755646 115.587433,116.995499 115.272491,116.202805 115.272491C115.410110 115.272491,114.649963 115.587433,114.089493 116.147919C113.529007 116.708389,113.214066 117.468536,113.214066 118.261230C113.214066 119.053925,113.529007 119.814072,114.089493 120.374542C114.649963 120.935028,115.410110 121.249969,116.202805 121.249969C116.995499 121.249969,117.755646 120.935028,118.316116 120.374542C118.876602 119.814072,119.191544 119.053925,119.191544 118.261230Z" style="fill: rgb(100.000000%,100.000000%,100.000000%);stroke: none;"></path>
  <path d="M124.655869 110.061996C121.818253 112.773163,119.027084 115.535751,116.202805 118.261230C114.651398 119.758362,113.089554 121.244690,111.532440 122.735870" style="stroke:rgb(0.000000%,0.000000%,0.000000%); stroke-width: 0.498138;stroke-linecap: round;stroke-linejoin: round;stroke-miterlimit: 10.000000;fill: none;"></path>
  <path d="M61.052200 173.490128C61.052200 172.697433,60.737259 171.937286,60.176773 171.376816C59.616302 170.816330,58.856155 170.501389,58.063461 170.501389C57.270767 170.501389,56.510620 170.816330,55.950150 171.376816C55.389664 171.937286,55.074722 172.697433,55.074722 173.490128C55.074722 174.282822,55.389664 175.042969,55.950150 175.603439C56.510620 176.163925,57.270767 176.478867,58.063461 176.478867C58.856155 176.478867,59.616302 176.163925,60.176773 175.603439C60.737259 175.042969,61.052200 174.282822,61.052200 173.490128Z" style="fill: rgb(100.000000%,100.000000%,100.000000%);stroke: none;"></path>
  <path d="M71.888397 164.134460C67.754044 167.941330,63.265106 171.258545,58.063461 173.490128C51.348846 176.370819,44.057724 177.174255,37.250778 175.898254" style="stroke:rgb(0.000000%,0.000000%,0.000000%); stroke-width: 0.498138;stroke-linecap: round;stroke-linejoin: round;stroke-miterlimit: 10.000000;fill: none;"></path>
  <path d="M84.974060 110.516205C84.974060 109.723511,84.659119 108.963364,84.098633 108.402893C83.538162 107.842407,82.778015 107.527466,81.985321 107.527466C81.192627 107.527466,80.432480 107.842407,79.872009 108.402893C79.311523 108.963364,78.996582 109.723511,78.996582 110.516205C78.996582 111.308899,79.311523 112.069046,79.872009 112.629517C80.432480 113.190002,81.192627 113.504944,81.985321 113.504944C82.778015 113.504944,83.538162 113.190002,84.098633 112.629517C84.659119 112.069046,84.974060 111.308899,84.974060 110.516205Z" style="fill: rgb(100.000000%,100.000000%,100.000000%);stroke: none;"></path>
  <path d="M67.880737 112.456116C72.592209 111.880112,77.298782 111.270126,81.985321 110.516205C85.199554 109.999130,88.448227 109.417953,91.681152 109.179031" style="stroke:rgb(0.000000%,0.000000%,0.000000%); stroke-width: 0.498138;stroke-linecap: round;stroke-linejoin: round;stroke-miterlimit: 10.000000;fill: none;"></path>
  <path d="M132.695465 143.451309C132.695465 142.658615,132.380524 141.898468,131.820038 141.337997C131.259567 140.777512,130.499420 140.462570,129.706726 140.462570C128.914032 140.462570,128.153885 140.777512,127.593414 141.337997C127.032928 141.898468,126.717987 142.658615,126.717987 143.451309C126.717987 144.244003,127.032928 145.004150,127.593414 145.564621C128.153885 146.125107,128.914032 146.440048,129.706726 146.440048C130.499420 146.440048,131.259567 146.125107,131.820038 145.564621C132.380524 145.004150,132.695465 144.244003,132.695465 143.451309Z" style="fill: rgb(100.000000%,100.000000%,100.000000%);stroke: none;"></path>
  <path d="M129.811432 135.964783C129.998291 138.430511,129.860214 140.963379,129.706726 143.451309C129.530136 146.313568,129.348984 149.186508,129.336609 152.050613" style="stroke:rgb(0.000000%,0.000000%,0.000000%); stroke-width: 0.498138;stroke-linecap: round;stroke-linejoin: round;stroke-miterlimit: 10.000000;fill: none;"></path>
  <path d="M182.192169 153.111115C182.192169 152.318420,181.877228 151.558273,181.316742 150.997803C180.756271 150.437317,179.996124 150.122375,179.203430 150.122375C178.410736 150.122375,177.650589 150.437317,177.090118 150.997803C176.529633 151.558273,176.214691 152.318420,176.214691 153.111115C176.214691 153.903809,176.529633 154.663956,177.090118 155.224426C177.650589 155.784912,178.410736 156.099854,179.203430 156.099854C179.996124 156.099854,180.756271 155.784912,181.316742 155.224426C181.877228 154.663956,182.192169 153.903809,182.192169 153.111115Z" style="fill: rgb(100.000000%,100.000000%,100.000000%);stroke: none;"></path>
  <path d="M182.239777 166.961655C182.904602 162.231552,181.963593 157.330917,179.203430 153.111115C176.269363 148.625443,171.936188 145.828949,166.976578 144.147186" style="stroke:rgb(0.000000%,0.000000%,0.000000%); stroke-width: 0.498138;stroke-linecap: round;stroke-linejoin: round;stroke-miterlimit: 10.000000;fill: none;"></path>
  <path d="M101.013031 136.345490C101.013031 135.552795,100.698090 134.792648,100.137604 134.232178C99.577133 133.671692,98.816986 133.356750,98.024292 133.356750C97.231598 133.356750,96.471451 133.671692,95.910980 134.232178C95.350494 134.792648,95.035553 135.552795,95.035553 136.345490C95.035553 137.138184,95.350494 137.898331,95.910980 138.458801C96.471451 139.019287,97.231598 139.334229,98.024292 139.334229C98.816986 139.334229,99.577133 139.019287,100.137604 138.458801C100.698090 137.898331,101.013031 137.138184,101.013031 136.345490Z" style="fill: rgb(100.000000%,100.000000%,100.000000%);stroke: none;"></path>
  <path d="M104.932281 140.627075C102.591583 139.283508,100.330643 137.755234,98.024292 136.345490C95.663284 134.902328,93.194778 133.534470,90.953979 131.935226" style="stroke:rgb(0.000000%,0.000000%,0.000000%); stroke-width: 0.498138;stroke-linecap: round;stroke-linejoin: round;stroke-miterlimit: 10.000000;fill: none;"></path>
  <path d="M89.866425 47.558823C91.029648 39.462570,91.439514 30.999542,88.691040 23.565811" style="stroke:rgb(0.000000%,0.000000%,0.000000%); stroke-width: 0.498138;stroke-linecap: round;stroke-linejoin: round;stroke-miterlimit: 10.000000;fill: none;"></path>
  <path d="M90.613846 25.868622C90.010910 25.069534,89.371109 24.300446,88.691040 23.565811C88.652451 24.566162,88.560989 25.562393,88.422287 26.553772Z" style="stroke:rgb(0.000000%,0.000000%,0.000000%); stroke-width: 0.498138;fill: rgb(0.000000%,0.000000%,0.000000%);"></path>
  <path d="M58.379074 64.000275C65.637924 65.679108,73.061417 66.393387,80.459381 67.282547" style="stroke:rgb(0.000000%,0.000000%,0.000000%); stroke-width: 0.498138;stroke-linecap: round;stroke-linejoin: round;stroke-miterlimit: 10.000000;fill: none;"></path>
  <path d="M77.572403 68.098175C78.534378 67.825027,79.496475 67.552246,80.459381 67.282547C79.587814 66.792358,78.714615 66.304916,77.841263 65.817841Z" style="stroke:rgb(0.000000%,0.000000%,0.000000%); stroke-width: 0.498138;fill: rgb(0.000000%,0.000000%,0.000000%);"></path>
  <path d="M155.871933 163.524078C151.403839 167.548218,149.735626 173.605652,146.694107 178.723282" style="stroke:rgb(0.000000%,0.000000%,0.000000%); stroke-width: 0.498138;stroke-linecap: round;stroke-linejoin: round;stroke-miterlimit: 10.000000;fill: none;"></path>
  <path d="M147.008362 175.739746C146.933655 176.740265,146.836716 177.736572,146.694107 178.723282C147.492661 178.126434,148.265717 177.490479,149.026031 176.835846Z" style="stroke:rgb(0.000000%,0.000000%,0.000000%); stroke-width: 0.498138;fill: rgb(0.000000%,0.000000%,0.000000%);"></path>
  <path d="M62.181747 36.281113C69.599060 33.091690,74.663834 26.383530,80.975922 21.470505" style="stroke:rgb(0.000000%,0.000000%,0.000000%); stroke-width: 0.498138;stroke-linecap: round;stroke-linejoin: round;stroke-miterlimit: 10.000000;fill: none;"></path>
  <path d="M79.572357 24.121994C80.018509 23.224350,80.482895 22.338242,80.975922 21.470505C80.013718 21.735458,79.058762 22.033646,78.108551 22.352859Z" style="stroke:rgb(0.000000%,0.000000%,0.000000%); stroke-width: 0.498138;fill: rgb(0.000000%,0.000000%,0.000000%);"></path>
  <path d="M133.387650 102.171249C128.571503 106.202942,124.077942 110.592926,119.581085 114.978546" style="stroke:rgb(0.000000%,0.000000%,0.000000%); stroke-width: 0.498138;stroke-linecap: round;stroke-linejoin: round;stroke-miterlimit: 10.000000;fill: none;"></path>
  <path d="M120.765213 112.221970L119.581085 114.978546L122.367599 113.866714Z" style="stroke:rgb(0.000000%,0.000000%,0.000000%); stroke-width: 0.498138;fill: rgb(0.000000%,0.000000%,0.000000%);"></path>
  <path d="M83.585892 151.840897C77.532532 158.545197,71.488251 165.521744,63.986176 170.329315" style="stroke:rgb(0.000000%,0.000000%,0.000000%); stroke-width: 0.498138;stroke-linecap: round;stroke-linejoin: round;stroke-miterlimit: 10.000000;fill: none;"></path>
  <path d="M65.621704 167.814331C65.101791 168.669281,64.557709 169.508423,63.986176 170.329315C64.970764 170.153015,65.948868 169.944397,66.921051 169.707489Z" style="stroke:rgb(0.000000%,0.000000%,0.000000%); stroke-width: 0.498138;fill: rgb(0.000000%,0.000000%,0.000000%);"></path>
  <path d="M101.282425 109.895355C105.729095 111.097504,109.562164 113.676453,113.355927 116.303101" style="stroke:rgb(0.000000%,0.000000%,0.000000%); stroke-width: 0.498138;stroke-linecap: round;stroke-linejoin: round;stroke-miterlimit: 10.000000;fill: none;"></path>
  <path d="M110.418747 115.691940C111.398804 115.883026,112.377792 116.091675,113.355927 116.303101C112.813797 115.461945,112.269104 114.622162,111.711227 113.794022Z" style="stroke:rgb(0.000000%,0.000000%,0.000000%); stroke-width: 0.498138;fill: rgb(0.000000%,0.000000%,0.000000%);"></path>
  <path d="M127.966476 128.881012C129.800522 132.432083,130.010330 136.441895,129.863708 140.451431" style="stroke:rgb(0.000000%,0.000000%,0.000000%); stroke-width: 0.498138;stroke-linecap: round;stroke-linejoin: round;stroke-miterlimit: 10.000000;fill: none;"></path>
  <path d="M128.737259 137.671021C129.143677 138.579849,129.513992 139.511398,129.863708 140.451431C130.281143 139.539444,130.678009 138.618912,131.033279 137.688873Z" style="stroke:rgb(0.000000%,0.000000%,0.000000%); stroke-width: 0.498138;fill: rgb(0.000000%,0.000000%,0.000000%);"></path>
  <path d="M175.641052 179.789001C181.502197 174.128723,183.798447 165.852341,181.656052 158.447113" style="stroke:rgb(0.000000%,0.000000%,0.000000%); stroke-width: 0.498138;stroke-linecap: round;stroke-linejoin: round;stroke-miterlimit: 10.000000;fill: none;"></path>
  <path d="M183.347046 160.925034C182.848343 160.061691,182.284286 159.233078,181.656052 158.447113C181.544510 159.447098,181.357407 160.431870,181.099548 161.394974Z" style="stroke:rgb(0.000000%,0.000000%,0.000000%); stroke-width: 0.498138;fill: rgb(0.000000%,0.000000%,0.000000%);"></path>
  <path d="M85.249832 126.136749C82.986023 122.439301,82.511795 118.107529,82.207245 113.765167" style="stroke:rgb(0.000000%,0.000000%,0.000000%); stroke-width: 0.498138;stroke-linecap: round;stroke-linejoin: round;stroke-miterlimit: 10.000000;fill: none;"></path>
  <path d="M83.588577 116.428329C83.109818 115.554276,82.654480 114.661713,82.207245 113.765167C81.889526 114.715363,81.580338 115.668472,81.300797 116.625046Z" style="stroke:rgb(0.000000%,0.000000%,0.000000%); stroke-width: 0.498138;fill: rgb(0.000000%,0.000000%,0.000000%);"></path>
  <path d="M78.593597 92.379761L84.574890 92.379761L84.574890 84.959366L78.593597 84.959366Z" style="fill: rgb(100.000000%,100.000000%,100.000000%);stroke: none;"></path>
  <path d="M78.593597 94.379761L84.574890 94.379761L84.574890 86.959366L78.593597 86.959366Z" style="fill: rgb(100.000000%,100.000000%,100.000000%);stroke: none;"></path>
  <g transform="translate(79.093597 92.879761)" style="fill: rgb(0.000000%,0.000000%,0.000000%);">
    <use xlink:href="#GLYPHcmr10_49"></use>
  </g>
  <path d="M43.044327 12.036667L49.025620 12.036667L49.025620 4.616272L43.044327 4.616272Z" style="fill: rgb(100.000000%,100.000000%,100.000000%);stroke: none;"></path>
  <path d="M43.044327 14.036667L49.025620 14.036667L49.025620 6.616272L43.044327 6.616272Z" style="fill: rgb(100.000000%,100.000000%,100.000000%);stroke: none;"></path>
  <g transform="translate(43.544327 12.536667)" style="fill: rgb(0.000000%,0.000000%,0.000000%);">
    <use xlink:href="#GLYPHcmr10_50"></use>
  </g>
  <path d="M111.606812 74.205627L117.588104 74.205627L117.588104 66.785233L111.606812 66.785233Z" style="fill: rgb(100.000000%,100.000000%,100.000000%);stroke: none;"></path>
  <path d="M111.606812 76.205627L117.588104 76.205627L117.588104 68.785233L111.606812 68.785233Z" style="fill: rgb(100.000000%,100.000000%,100.000000%);stroke: none;"></path>
  <g transform="translate(112.106812 74.705627)" style="fill: rgb(0.000000%,0.000000%,0.000000%);">
    <use xlink:href="#GLYPHcmr10_51"></use>
  </g>
  <path d="M182.435928 116.041000L188.417221 116.041000L188.417221 108.620605L182.435928 108.620605Z" style="fill: rgb(100.000000%,100.000000%,100.000000%);stroke: none;"></path>
  <path d="M182.435928 118.041000L188.417221 118.041000L188.417221 110.620605L182.435928 110.620605Z" style="fill: rgb(100.000000%,100.000000%,100.000000%);stroke: none;"></path>
  <g transform="translate(182.935928 116.541000)" style="fill: rgb(0.000000%,0.000000%,0.000000%);">
    <use xlink:href="#GLYPHcmr10_52"></use>
  </g>
  <path d="M98.322052 190.564011L104.303345 190.564011L104.303345 183.143616L98.322052 183.143616Z" style="fill: rgb(100.000000%,100.000000%,100.000000%);stroke: none;"></path>
  <path d="M98.322052 192.564011L104.303345 192.564011L104.303345 185.143616L98.322052 185.143616Z" style="fill: rgb(100.000000%,100.000000%,100.000000%);stroke: none;"></path>
  <g transform="translate(98.822052 191.064011)" style="fill: rgb(0.000000%,0.000000%,0.000000%);">
    <use xlink:href="#GLYPHcmr10_53"></use>
  </g>
  <path d="M3.908585 87.219208L9.889877 87.219208L9.889877 79.798813L3.908585 79.798813Z" style="fill: rgb(100.000000%,100.000000%,100.000000%);stroke: none;"></path>
  <path d="M3.908585 89.219208L9.889877 89.219208L9.889877 81.798813L3.908585 81.798813Z" style="fill: rgb(100.000000%,100.000000%,100.000000%);stroke: none;"></path>
  <g transform="translate(4.408585 87.719208)" style="fill: rgb(0.000000%,0.000000%,0.000000%);">
    <use xlink:href="#GLYPHcmr10_54"></use>
  </g>
  <path d="M132.680405 33.082382L138.661697 33.082382L138.661697 25.661987L132.680405 25.661987Z" style="fill: rgb(100.000000%,100.000000%,100.000000%);stroke: none;"></path>
  <path d="M132.680405 35.082382L138.661697 35.082382L138.661697 27.661987L132.680405 27.661987Z" style="fill: rgb(100.000000%,100.000000%,100.000000%);stroke: none;"></path>
  <g transform="translate(133.180405 33.582382)" style="fill: rgb(0.000000%,0.000000%,0.000000%);">
    <use xlink:href="#GLYPHcmr10_55"></use>
  </g>
  <path d="M16.352509 168.540009L22.333801 168.540009L22.333801 161.119614L16.352509 161.119614Z" style="fill: rgb(100.000000%,100.000000%,100.000000%);stroke: none;"></path>
  <path d="M16.352509 170.540009L22.333801 170.540009L22.333801 163.119614L16.352509 163.119614Z" style="fill: rgb(100.000000%,100.000000%,100.000000%);stroke: none;"></path>
  <g transform="translate(16.852509 169.040009)" style="fill: rgb(0.000000%,0.000000%,0.000000%);">
    <use xlink:href="#GLYPHcmr10_56"></use>
  </g>
  <path d="M50.756073 116.902359L56.737366 116.902359L56.737366 109.481964L50.756073 109.481964Z" style="fill: rgb(100.000000%,100.000000%,100.000000%);stroke: none;"></path>
  <path d="M50.756073 118.902359L56.737366 118.902359L56.737366 111.481964L50.756073 111.481964Z" style="fill: rgb(100.000000%,100.000000%,100.000000%);stroke: none;"></path>
  <g transform="translate(51.256073 117.402359)" style="fill: rgb(0.000000%,0.000000%,0.000000%);">
    <use xlink:href="#GLYPHcmr10_57"></use>
  </g>
  <path d="M124.497742 163.307114L135.460449 163.307114L135.460449 155.886719L124.497742 155.886719Z" style="fill: rgb(100.000000%,100.000000%,100.000000%);stroke: none;"></path>
  <path d="M124.497742 165.307114L135.460449 165.307114L135.460449 157.886719L124.497742 157.886719Z" style="fill: rgb(100.000000%,100.000000%,100.000000%);stroke: none;"></path>
  <g transform="translate(124.997742 163.807114)" style="fill: rgb(0.000000%,0.000000%,0.000000%);">
    <use xlink:href="#GLYPHcmr10_49"></use>
    <use xlink:href="#GLYPHcmr10_48" x="5.000095"></use>
  </g>
  <path d="M145.509766 144.581879L156.472473 144.581879L156.472473 137.161484L145.509766 137.161484Z" style="fill: rgb(100.000000%,100.000000%,100.000000%);stroke: none;"></path>
  <path d="M145.509766 146.581879L156.472473 146.581879L156.472473 139.161484L145.509766 139.161484Z" style="fill: rgb(100.000000%,100.000000%,100.000000%);stroke: none;"></path>
  <g transform="translate(146.009766 145.081879)" style="fill: rgb(0.000000%,0.000000%,0.000000%);">
    <use xlink:href="#GLYPHcmr10_49"></use>
    <use xlink:href="#GLYPHcmr10_49" x="5.000095"></use>
  </g>
  <path d="M106.837479 146.510605L117.800186 146.510605L117.800186 139.090210L106.837479 139.090210Z" style="fill: rgb(100.000000%,100.000000%,100.000000%);stroke: none;"></path>
  <path d="M106.837479 148.510605L117.800186 148.510605L117.800186 141.090210L106.837479 141.090210Z" style="fill: rgb(100.000000%,100.000000%,100.000000%);stroke: none;"></path>
  <g transform="translate(107.337479 147.010605)" style="fill: rgb(0.000000%,0.000000%,0.000000%);">
    <use xlink:href="#GLYPHcmr10_49"></use>
    <use xlink:href="#GLYPHcmr10_50" x="5.000095"></use>
  </g>
</svg>
