<?xml version="1.0"?>
<!-- Created by MetaPost 1.999 on 2021.07.06:0012 -->
<svg version="1.1" xmlns="http://www.w3.org/2000/svg" xmlns:xlink="http://www.w3.org/1999/xlink" width="192.173141" height="197.401093" viewBox="0 0 192.173141 197.401093">
<!-- Original BoundingBox: -76.224594 -108.595947 115.948547 88.805145 -->
  <defs>
    <g transform="scale(0.009963,0.009963)" id="GLYPHcmr10_48">
      <path style="fill-rule: evenodd;" d="M460.000000 -320.000000C460.000000 -400.000000,455.000000 -480.000000,420.000000 -554.000000C374.000000 -650.000000,292.000000 -666.000000,250.000000 -666.000000C190.000000 -666.000000,117.000000 -640.000000,76.000000 -547.000000C44.000000 -478.000000,39.000000 -400.000000,39.000000 -320.000000C39.000000 -245.000000,43.000000 -155.000000,84.000000 -79.000000C127.000000 2.000000,200.000000 22.000000,249.000000 22.000000C303.000000 22.000000,379.000000 1.000000,423.000000 -94.000000C455.000000 -163.000000,460.000000 -241.000000,460.000000 -320.000000M249.000000 -0.000000C210.000000 -0.000000,151.000000 -25.000000,133.000000 -121.000000C122.000000 -181.000000,122.000000 -273.000000,122.000000 -332.000000C122.000000 -396.000000,122.000000 -462.000000,130.000000 -516.000000C149.000000 -635.000000,224.000000 -644.000000,249.000000 -644.000000C282.000000 -644.000000,348.000000 -626.000000,367.000000 -527.000000C377.000000 -471.000000,377.000000 -395.000000,377.000000 -332.000000C377.000000 -257.000000,377.000000 -189.000000,366.000000 -125.000000C351.000000 -30.000000,294.000000 -0.000000,249.000000 -0.000000"></path>
    </g>
    <g transform="scale(0.009963,0.009963)" id="GLYPHcmr10_49">
      <path style="fill-rule: evenodd;" d="M294.000000 -640.000000C294.000000 -664.000000,294.000000 -666.000000,271.000000 -666.000000C209.000000 -602.000000,121.000000 -602.000000,89.000000 -602.000000L89.000000 -571.000000C109.000000 -571.000000,168.000000 -571.000000,220.000000 -597.000000L220.000000 -79.000000C220.000000 -43.000000,217.000000 -31.000000,127.000000 -31.000000L95.000000 -31.000000L95.000000 -0.000000L257.000000 -0.000000L130.000000 -3.000000L217.000000 -3.000000L257.000000 -3.000000L297.000000 -3.000000L384.000000 -3.000000L419.000000 -0.000000L419.000000 -31.000000L387.000000 -31.000000C297.000000 -31.000000,294.000000 -42.000000,294.000000 -79.000000"></path>
    </g>
    <g transform="scale(0.009963,0.009963)" id="GLYPHcmr10_50">
      <path style="fill-rule: evenodd;" d="M127.000000 -77.000000L233.000000 -180.000000C389.000000 -318.000000,449.000000 -372.000000,449.000000 -472.000000C449.000000 -586.000000,359.000000 -666.000000,237.000000 -666.000000C124.000000 -666.000000,50.000000 -574.000000,50.000000 -485.000000C50.000000 -429.000000,100.000000 -429.000000,103.000000 -429.000000C120.000000 -429.000000,155.000000 -441.000000,155.000000 -482.000000C155.000000 -508.000000,137.000000 -534.000000,102.000000 -534.000000C94.000000 -534.000000,92.000000 -534.000000,89.000000 -533.000000C112.000000 -598.000000,166.000000 -635.000000,224.000000 -635.000000C315.000000 -635.000000,358.000000 -554.000000,358.000000 -472.000000C358.000000 -392.000000,308.000000 -313.000000,253.000000 -251.000000L61.000000 -37.000000C50.000000 -26.000000,50.000000 -24.000000,50.000000 -0.000000L421.000000 -0.000000L449.000000 -174.000000L424.000000 -174.000000C419.000000 -144.000000,412.000000 -100.000000,402.000000 -85.000000C395.000000 -77.000000,329.000000 -77.000000,307.000000 -77.000000"></path>
    </g>
    <g transform="scale(0.009963,0.009963)" id="GLYPHcmr10_51">
      <path style="fill-rule: evenodd;" d="M290.000000 -352.000000C372.000000 -379.000000,430.000000 -449.000000,430.000000 -528.000000C430.000000 -610.000000,342.000000 -666.000000,246.000000 -666.000000C145.000000 -666.000000,69.000000 -606.000000,69.000000 -530.000000C69.000000 -497.000000,91.000000 -478.000000,120.000000 -478.000000C151.000000 -478.000000,171.000000 -500.000000,171.000000 -529.000000C171.000000 -579.000000,124.000000 -579.000000,109.000000 -579.000000C140.000000 -628.000000,206.000000 -641.000000,242.000000 -641.000000C283.000000 -641.000000,338.000000 -619.000000,338.000000 -529.000000C338.000000 -517.000000,336.000000 -459.000000,310.000000 -415.000000C280.000000 -367.000000,246.000000 -364.000000,221.000000 -363.000000C213.000000 -362.000000,189.000000 -360.000000,182.000000 -360.000000C174.000000 -359.000000,167.000000 -358.000000,167.000000 -348.000000C167.000000 -337.000000,174.000000 -337.000000,191.000000 -337.000000L235.000000 -337.000000C317.000000 -337.000000,354.000000 -269.000000,354.000000 -171.000000C354.000000 -35.000000,285.000000 -6.000000,241.000000 -6.000000C198.000000 -6.000000,123.000000 -23.000000,88.000000 -82.000000C123.000000 -77.000000,154.000000 -99.000000,154.000000 -137.000000C154.000000 -173.000000,127.000000 -193.000000,98.000000 -193.000000C74.000000 -193.000000,42.000000 -179.000000,42.000000 -135.000000C42.000000 -44.000000,135.000000 22.000000,244.000000 22.000000C366.000000 22.000000,457.000000 -69.000000,457.000000 -171.000000C457.000000 -253.000000,394.000000 -331.000000,290.000000 -352.000000"></path>
    </g>
    <g transform="scale(0.009963,0.009963)" id="GLYPHcmr10_52">
      <path style="fill-rule: evenodd;" d="M294.000000 -165.000000L294.000000 -78.000000C294.000000 -42.000000,292.000000 -31.000000,218.000000 -31.000000L197.000000 -31.000000L197.000000 -0.000000L332.000000 -0.000000L238.000000 -3.000000L290.000000 -3.000000L332.000000 -3.000000L374.000000 -3.000000L427.000000 -3.000000L468.000000 -0.000000L468.000000 -31.000000L447.000000 -31.000000C373.000000 -31.000000,371.000000 -42.000000,371.000000 -78.000000L371.000000 -165.000000L471.000000 -165.000000L471.000000 -196.000000L371.000000 -196.000000L371.000000 -651.000000C371.000000 -671.000000,371.000000 -677.000000,355.000000 -677.000000C346.000000 -677.000000,343.000000 -677.000000,335.000000 -665.000000L28.000000 -196.000000L28.000000 -165.000000M300.000000 -196.000000L56.000000 -196.000000L300.000000 -569.000000"></path>
    </g>
    <g transform="scale(0.009963,0.009963)" id="GLYPHcmr10_53">
      <path style="fill-rule: evenodd;" d="M449.000000 -201.000000C449.000000 -320.000000,367.000000 -420.000000,259.000000 -420.000000C211.000000 -420.000000,168.000000 -404.000000,132.000000 -369.000000L132.000000 -564.000000C152.000000 -558.000000,185.000000 -551.000000,217.000000 -551.000000C340.000000 -551.000000,410.000000 -642.000000,410.000000 -655.000000C410.000000 -661.000000,407.000000 -666.000000,400.000000 -666.000000C399.000000 -666.000000,397.000000 -666.000000,392.000000 -663.000000C372.000000 -654.000000,323.000000 -634.000000,256.000000 -634.000000C216.000000 -634.000000,170.000000 -641.000000,123.000000 -662.000000C115.000000 -665.000000,113.000000 -665.000000,111.000000 -665.000000C101.000000 -665.000000,101.000000 -657.000000,101.000000 -641.000000L101.000000 -345.000000C101.000000 -327.000000,101.000000 -319.000000,115.000000 -319.000000C122.000000 -319.000000,124.000000 -322.000000,128.000000 -328.000000C139.000000 -344.000000,176.000000 -398.000000,257.000000 -398.000000C309.000000 -398.000000,334.000000 -352.000000,342.000000 -334.000000C358.000000 -297.000000,360.000000 -258.000000,360.000000 -208.000000C360.000000 -173.000000,360.000000 -113.000000,336.000000 -71.000000C312.000000 -32.000000,275.000000 -6.000000,229.000000 -6.000000C156.000000 -6.000000,99.000000 -59.000000,82.000000 -118.000000C85.000000 -117.000000,88.000000 -116.000000,99.000000 -116.000000C132.000000 -116.000000,149.000000 -141.000000,149.000000 -165.000000C149.000000 -189.000000,132.000000 -214.000000,99.000000 -214.000000C85.000000 -214.000000,50.000000 -207.000000,50.000000 -161.000000C50.000000 -75.000000,119.000000 22.000000,231.000000 22.000000C347.000000 22.000000,449.000000 -74.000000,449.000000 -201.000000"></path>
    </g>
    <g transform="scale(0.009963,0.009963)" id="GLYPHcmr10_54">
      <path style="fill-rule: evenodd;" d="M132.000000 -328.000000L132.000000 -352.000000C132.000000 -605.000000,256.000000 -641.000000,307.000000 -641.000000C331.000000 -641.000000,373.000000 -635.000000,395.000000 -601.000000C380.000000 -601.000000,340.000000 -601.000000,340.000000 -556.000000C340.000000 -525.000000,364.000000 -510.000000,386.000000 -510.000000C402.000000 -510.000000,432.000000 -519.000000,432.000000 -558.000000C432.000000 -618.000000,388.000000 -666.000000,305.000000 -666.000000C177.000000 -666.000000,42.000000 -537.000000,42.000000 -316.000000C42.000000 -49.000000,158.000000 22.000000,251.000000 22.000000C362.000000 22.000000,457.000000 -72.000000,457.000000 -204.000000C457.000000 -331.000000,368.000000 -427.000000,257.000000 -427.000000C189.000000 -427.000000,152.000000 -376.000000,132.000000 -328.000000M251.000000 -6.000000C188.000000 -6.000000,158.000000 -66.000000,152.000000 -81.000000C134.000000 -128.000000,134.000000 -208.000000,134.000000 -226.000000C134.000000 -304.000000,166.000000 -404.000000,256.000000 -404.000000C272.000000 -404.000000,318.000000 -404.000000,349.000000 -342.000000C367.000000 -305.000000,367.000000 -254.000000,367.000000 -205.000000C367.000000 -157.000000,367.000000 -107.000000,350.000000 -71.000000C320.000000 -11.000000,274.000000 -6.000000,251.000000 -6.000000"></path>
    </g>
    <g transform="scale(0.009963,0.009963)" id="GLYPHcmr10_55">
      <path style="fill-rule: evenodd;" d="M476.000000 -609.000000C485.000000 -621.000000,485.000000 -623.000000,485.000000 -644.000000L242.000000 -644.000000C120.000000 -644.000000,118.000000 -657.000000,114.000000 -676.000000L89.000000 -676.000000L56.000000 -470.000000L81.000000 -470.000000C84.000000 -486.000000,93.000000 -549.000000,106.000000 -561.000000C113.000000 -567.000000,191.000000 -567.000000,204.000000 -567.000000L411.000000 -567.000000C400.000000 -551.000000,321.000000 -442.000000,299.000000 -409.000000C209.000000 -274.000000,176.000000 -135.000000,176.000000 -33.000000C176.000000 -23.000000,176.000000 22.000000,222.000000 22.000000C268.000000 22.000000,268.000000 -23.000000,268.000000 -33.000000L268.000000 -84.000000C268.000000 -139.000000,271.000000 -194.000000,279.000000 -248.000000C283.000000 -271.000000,297.000000 -357.000000,341.000000 -419.000000"></path>
    </g>
    <g transform="scale(0.009963,0.009963)" id="GLYPHcmr10_56">
      <path style="fill-rule: evenodd;" d="M163.000000 -457.000000C117.000000 -487.000000,113.000000 -521.000000,113.000000 -538.000000C113.000000 -599.000000,178.000000 -641.000000,249.000000 -641.000000C322.000000 -641.000000,386.000000 -589.000000,386.000000 -517.000000C386.000000 -460.000000,347.000000 -412.000000,287.000000 -377.000000M309.000000 -362.000000C381.000000 -399.000000,430.000000 -451.000000,430.000000 -517.000000C430.000000 -609.000000,341.000000 -666.000000,250.000000 -666.000000C150.000000 -666.000000,69.000000 -592.000000,69.000000 -499.000000C69.000000 -481.000000,71.000000 -436.000000,113.000000 -389.000000C124.000000 -377.000000,161.000000 -352.000000,186.000000 -335.000000C128.000000 -306.000000,42.000000 -250.000000,42.000000 -151.000000C42.000000 -45.000000,144.000000 22.000000,249.000000 22.000000C362.000000 22.000000,457.000000 -61.000000,457.000000 -168.000000C457.000000 -204.000000,446.000000 -249.000000,408.000000 -291.000000C389.000000 -312.000000,373.000000 -322.000000,309.000000 -362.000000M209.000000 -320.000000L332.000000 -242.000000C360.000000 -223.000000,407.000000 -193.000000,407.000000 -132.000000C407.000000 -58.000000,332.000000 -6.000000,250.000000 -6.000000C164.000000 -6.000000,92.000000 -68.000000,92.000000 -151.000000C92.000000 -209.000000,124.000000 -273.000000,209.000000 -320.000000"></path>
    </g>
    <g transform="scale(0.009963,0.009963)" id="GLYPHcmr10_57">
      <path style="fill-rule: evenodd;" d="M367.000000 -318.000000L367.000000 -286.000000C367.000000 -52.000000,263.000000 -6.000000,205.000000 -6.000000C188.000000 -6.000000,134.000000 -8.000000,107.000000 -42.000000C151.000000 -42.000000,159.000000 -71.000000,159.000000 -88.000000C159.000000 -119.000000,135.000000 -134.000000,113.000000 -134.000000C97.000000 -134.000000,67.000000 -125.000000,67.000000 -86.000000C67.000000 -19.000000,121.000000 22.000000,206.000000 22.000000C335.000000 22.000000,457.000000 -114.000000,457.000000 -329.000000C457.000000 -598.000000,342.000000 -666.000000,253.000000 -666.000000C198.000000 -666.000000,149.000000 -648.000000,106.000000 -603.000000C65.000000 -558.000000,42.000000 -516.000000,42.000000 -441.000000C42.000000 -316.000000,130.000000 -218.000000,242.000000 -218.000000C303.000000 -218.000000,344.000000 -260.000000,367.000000 -318.000000M243.000000 -241.000000C227.000000 -241.000000,181.000000 -241.000000,150.000000 -304.000000C132.000000 -341.000000,132.000000 -391.000000,132.000000 -440.000000C132.000000 -494.000000,132.000000 -541.000000,153.000000 -578.000000C180.000000 -628.000000,218.000000 -641.000000,253.000000 -641.000000C299.000000 -641.000000,332.000000 -607.000000,349.000000 -562.000000C361.000000 -530.000000,365.000000 -467.000000,365.000000 -421.000000C365.000000 -338.000000,331.000000 -241.000000,243.000000 -241.000000"></path>
    </g>
  </defs>
  <path d="M66.975891 100.002167C66.975891 99.209473,66.660950 98.449326,66.100464 97.888855C65.539993 97.328369,64.779846 97.013428,63.987152 97.013428C63.194458 97.013428,62.434311 97.328369,61.873840 97.888855C61.313354 98.449326,60.998413 99.209473,60.998413 100.002167C60.998413 100.794861,61.313354 101.555008,61.873840 102.115479C62.434311 102.675964,63.194458 102.990906,63.987152 102.990906C64.779846 102.990906,65.539993 102.675964,66.100464 102.115479C66.660950 101.555008,66.975891 100.794861,66.975891 100.002167Z" style="fill: rgb(100.000000%,100.000000%,100.000000%);stroke: none;"></path>
  <path d="M61.742325 106.687988C61.742325 105.895294,61.427383 105.135147,60.866898 104.574677C60.306427 104.014191,59.546280 103.699249,58.753586 103.699249C57.960892 103.699249,57.200745 104.014191,56.640274 104.574677C56.079788 105.135147,55.764847 105.895294,55.764847 106.687988C55.764847 107.480682,56.079788 108.240829,56.640274 108.801300C57.200745 109.361786,57.960892 109.676727,58.753586 109.676727C59.546280 109.676727,60.306427 109.361786,60.866898 108.801300C61.427383 108.240829,61.742325 107.480682,61.742325 106.687988Z" style="fill: rgb(100.000000%,100.000000%,100.000000%);stroke: none;"></path>
  <path d="M82.047348 85.182739C82.047348 84.390045,81.732407 83.629898,81.171921 83.069427C80.611450 82.508942,79.851303 82.194000,79.058609 82.194000C78.265915 82.194000,77.505768 82.508942,76.945297 83.069427C76.384811 83.629898,76.069870 84.390045,76.069870 85.182739C76.069870 85.975433,76.384811 86.735580,76.945297 87.296051C77.505768 87.856537,78.265915 88.171478,79.058609 88.171478C79.851303 88.171478,80.611450 87.856537,81.171921 87.296051C81.732407 86.735580,82.047348 85.975433,82.047348 85.182739Z" style="fill: rgb(100.000000%,100.000000%,100.000000%);stroke: none;"></path>
  <path d="M72.743637 93.752304C72.743637 92.959610,72.428696 92.199463,71.868210 91.638992C71.307739 91.078506,70.547592 90.763565,69.754898 90.763565C68.962204 90.763565,68.202057 91.078506,67.641586 91.638992C67.081100 92.199463,66.766159 92.959610,66.766159 93.752304C66.766159 94.544998,67.081100 95.305145,67.641586 95.865616C68.202057 96.426102,68.962204 96.741043,69.754898 96.741043C70.547592 96.741043,71.307739 96.426102,71.868210 95.865616C72.428696 95.305145,72.743637 94.544998,72.743637 93.752304Z" style="fill: rgb(100.000000%,100.000000%,100.000000%);stroke: none;"></path>
  <path d="M83.918121 74.857712C83.918121 74.065018,83.603180 73.304871,83.042694 72.744400C82.482224 72.183914,81.722076 71.868973,80.929382 71.868973C80.136688 71.868973,79.376541 72.183914,78.816071 72.744400C78.255585 73.304871,77.940643 74.065018,77.940643 74.857712C77.940643 75.650406,78.255585 76.410553,78.816071 76.971024C79.376541 77.531509,80.136688 77.846451,80.929382 77.846451C81.722076 77.846451,82.482224 77.531509,83.042694 76.971024C83.603180 76.410553,83.918121 75.650406,83.918121 74.857712Z" style="fill: rgb(100.000000%,100.000000%,100.000000%);stroke: none;"></path>
  <path d="M85.261124 81.927170C85.261124 81.134476,84.946182 80.374329,84.385696 79.813858C83.825226 79.253372,83.065079 78.938431,82.272385 78.938431C81.479691 78.938431,80.719543 79.253372,80.159073 79.813858C79.598587 80.374329,79.283646 81.134476,79.283646 81.927170C79.283646 82.719864,79.598587 83.480011,80.159073 84.040482C80.719543 84.600967,81.479691 84.915909,82.272385 84.915909C83.065079 84.915909,83.825226 84.600967,84.385696 84.040482C84.946182 83.480011,85.261124 82.719864,85.261124 81.927170Z" style="fill: rgb(100.000000%,100.000000%,100.000000%);stroke: none;"></path>
  <path d="M77.557449 69.199188C77.557449 68.406494,77.242508 67.646347,76.682022 67.085876C76.121552 66.525391,75.361404 66.210449,74.568710 66.210449C73.776016 66.210449,73.015869 66.525391,72.455399 67.085876C71.894913 67.646347,71.579971 68.406494,71.579971 69.199188C71.579971 69.991882,71.894913 70.752029,72.455399 71.312500C73.015869 71.872986,73.776016 72.187927,74.568710 72.187927C75.361404 72.187927,76.121552 71.872986,76.682022 71.312500C77.242508 70.752029,77.557449 69.991882,77.557449 69.199188Z" style="fill: rgb(100.000000%,100.000000%,100.000000%);stroke: none;"></path>
  <path d="M81.110260 72.979950C81.110260 72.187256,80.795319 71.427109,80.234833 70.866638C79.674362 70.306152,78.914215 69.991211,78.121521 69.991211C77.328827 69.991211,76.568680 70.306152,76.008209 70.866638C75.447723 71.427109,75.132782 72.187256,75.132782 72.979950C75.132782 73.772644,75.447723 74.532791,76.008209 75.093262C76.568680 75.653748,77.328827 75.968689,78.121521 75.968689C78.914215 75.968689,79.674362 75.653748,80.234833 75.093262C80.795319 74.532791,81.110260 73.772644,81.110260 72.979950Z" style="fill: rgb(100.000000%,100.000000%,100.000000%);stroke: none;"></path>
  <path d="M72.056458 68.007233C72.056458 67.214539,71.741516 66.454391,71.181030 65.893921C70.620560 65.333435,69.860413 65.018494,69.067719 65.018494C68.275024 65.018494,67.514877 65.333435,66.954407 65.893921C66.393921 66.454391,66.078979 67.214539,66.078979 68.007233C66.078979 68.799927,66.393921 69.560074,66.954407 70.120544C67.514877 70.681030,68.275024 70.995972,69.067719 70.995972C69.860413 70.995972,70.620560 70.681030,71.181030 70.120544C71.741516 69.560074,72.056458 68.799927,72.056458 68.007233Z" style="fill: rgb(100.000000%,100.000000%,100.000000%);stroke: none;"></path>
  <path d="M76.075317 67.379044C76.075317 66.586349,75.760376 65.826202,75.199890 65.265732C74.639420 64.705246,73.879272 64.390305,73.086578 64.390305C72.293884 64.390305,71.533737 64.705246,70.973267 65.265732C70.412781 65.826202,70.097839 66.586349,70.097839 67.379044C70.097839 68.171738,70.412781 68.931885,70.973267 69.492355C71.533737 70.052841,72.293884 70.367783,73.086578 70.367783C73.879272 70.367783,74.639420 70.052841,75.199890 69.492355C75.760376 68.931885,76.075317 68.171738,76.075317 67.379044Z" style="fill: rgb(100.000000%,100.000000%,100.000000%);stroke: none;"></path>
  <path d="M69.227112 74.891907C69.227112 74.099213,68.912170 73.339066,68.351685 72.778595C67.791214 72.218109,67.031067 71.903168,66.238373 71.903168C65.445679 71.903168,64.685532 72.218109,64.125061 72.778595C63.564575 73.339066,63.249634 74.099213,63.249634 74.891907C63.249634 75.684601,63.564575 76.444748,64.125061 77.005219C64.685532 77.565704,65.445679 77.880646,66.238373 77.880646C67.031067 77.880646,67.791214 77.565704,68.351685 77.005219C68.912170 76.444748,69.227112 75.684601,69.227112 74.891907Z" style="fill: rgb(100.000000%,100.000000%,100.000000%);stroke: none;"></path>
  <path d="M71.164642 70.103973C71.164642 69.311279,70.849701 68.551132,70.289215 67.990662C69.728745 67.430176,68.968597 67.115234,68.175903 67.115234C67.383209 67.115234,66.623062 67.430176,66.062592 67.990662C65.502106 68.551132,65.187164 69.311279,65.187164 70.103973C65.187164 70.896667,65.502106 71.656815,66.062592 72.217285C66.623062 72.777771,67.383209 73.092712,68.175903 73.092712C68.968597 73.092712,69.728745 72.777771,70.289215 72.217285C70.849701 71.656815,71.164642 70.896667,71.164642 70.103973Z" style="fill: rgb(100.000000%,100.000000%,100.000000%);stroke: none;"></path>
  <path d="M69.769608 85.175446C69.769608 84.382751,69.454666 83.622604,68.894180 83.062134C68.333710 82.501648,67.573563 82.186707,66.780869 82.186707C65.988174 82.186707,65.228027 82.501648,64.667557 83.062134C64.107071 83.622604,63.792130 84.382751,63.792130 85.175446C63.792130 85.968140,64.107071 86.728287,64.667557 87.288757C65.228027 87.849243,65.988174 88.164185,66.780869 88.164185C67.573563 88.164185,68.333710 87.849243,68.894180 87.288757C69.454666 86.728287,69.769608 85.968140,69.769608 85.175446Z" style="fill: rgb(100.000000%,100.000000%,100.000000%);stroke: none;"></path>
  <path d="M67.692337 77.857407C67.692337 77.064713,67.377396 76.304565,66.816910 75.744095C66.256439 75.183609,65.496292 74.868668,64.703598 74.868668C63.910904 74.868668,63.150757 75.183609,62.590286 75.744095C62.029800 76.304565,61.714859 77.064713,61.714859 77.857407C61.714859 78.650101,62.029800 79.410248,62.590286 79.970718C63.150757 80.531204,63.910904 80.846146,64.703598 80.846146C65.496292 80.846146,66.256439 80.531204,66.816910 79.970718C67.377396 79.410248,67.692337 78.650101,67.692337 77.857407Z" style="fill: rgb(100.000000%,100.000000%,100.000000%);stroke: none;"></path>
  <path d="M86.172058 90.317062C86.172058 89.524368,85.857117 88.764221,85.296631 88.203751C84.736160 87.643265,83.976013 87.328323,83.183319 87.328323C82.390625 87.328323,81.630478 87.643265,81.070007 88.203751C80.509521 88.764221,80.194580 89.524368,80.194580 90.317062C80.194580 91.109756,80.509521 91.869904,81.070007 92.430374C81.630478 92.990860,82.390625 93.305801,83.183319 93.305801C83.976013 93.305801,84.736160 92.990860,85.296631 92.430374C85.857117 91.869904,86.172058 91.109756,86.172058 90.317062Z" style="fill: rgb(100.000000%,100.000000%,100.000000%);stroke: none;"></path>
  <path d="M74.645447 86.599030C74.645447 85.806335,74.330505 85.046188,73.770020 84.485718C73.209549 83.925232,72.449402 83.610291,71.656708 83.610291C70.864014 83.610291,70.103867 83.925232,69.543396 84.485718C68.982910 85.046188,68.667969 85.806335,68.667969 86.599030C68.667969 87.391724,68.982910 88.151871,69.543396 88.712341C70.103867 89.272827,70.864014 89.587769,71.656708 89.587769C72.449402 89.587769,73.209549 89.272827,73.770020 88.712341C74.330505 88.151871,74.645447 87.391724,74.645447 86.599030Z" style="fill: rgb(100.000000%,100.000000%,100.000000%);stroke: none;"></path>
  <path d="M108.686035 96.702896C108.686035 95.910202,108.371094 95.150055,107.810608 94.589584C107.250137 94.029099,106.489990 93.714157,105.697296 93.714157C104.904602 93.714157,104.144455 94.029099,103.583984 94.589584C103.023499 95.150055,102.708557 95.910202,102.708557 96.702896C102.708557 97.495590,103.023499 98.255737,103.583984 98.816208C104.144455 99.376694,104.904602 99.691635,105.697296 99.691635C106.489990 99.691635,107.250137 99.376694,107.810608 98.816208C108.371094 98.255737,108.686035 97.495590,108.686035 96.702896Z" style="fill: rgb(100.000000%,100.000000%,100.000000%);stroke: none;"></path>
  <path d="M92.869293 94.157364C92.869293 93.364670,92.554352 92.604523,91.993866 92.044052C91.433395 91.483566,90.673248 91.168625,89.880554 91.168625C89.087860 91.168625,88.327713 91.483566,87.767242 92.044052C87.206757 92.604523,86.891815 93.364670,86.891815 94.157364C86.891815 94.950058,87.206757 95.710205,87.767242 96.270676C88.327713 96.831161,89.087860 97.146103,89.880554 97.146103C90.673248 97.146103,91.433395 96.831161,91.993866 96.270676C92.554352 95.710205,92.869293 94.950058,92.869293 94.157364Z" style="fill: rgb(100.000000%,100.000000%,100.000000%);stroke: none;"></path>
  <path d="M132.914627 90.960480C132.914627 90.167786,132.599686 89.407639,132.039200 88.847168C131.478729 88.286682,130.718582 87.971741,129.925888 87.971741C129.133194 87.971741,128.373047 88.286682,127.812576 88.847168C127.252090 89.407639,126.937149 90.167786,126.937149 90.960480C126.937149 91.753174,127.252090 92.513321,127.812576 93.073792C128.373047 93.634277,129.133194 93.949219,129.925888 93.949219C130.718582 93.949219,131.478729 93.634277,132.039200 93.073792C132.599686 92.513321,132.914627 91.753174,132.914627 90.960480Z" style="fill: rgb(100.000000%,100.000000%,100.000000%);stroke: none;"></path>
  <path d="M117.055801 94.646118C117.055801 93.853424,116.740860 93.093277,116.180374 92.532806C115.619904 91.972321,114.859756 91.657379,114.067062 91.657379C113.274368 91.657379,112.514221 91.972321,111.953751 92.532806C111.393265 93.093277,111.078323 93.853424,111.078323 94.646118C111.078323 95.438812,111.393265 96.198959,111.953751 96.759430C112.514221 97.319916,113.274368 97.634857,114.067062 97.634857C114.859756 97.634857,115.619904 97.319916,116.180374 96.759430C116.740860 96.198959,117.055801 95.438812,117.055801 94.646118Z" style="fill: rgb(100.000000%,100.000000%,100.000000%);stroke: none;"></path>
  <path d="M159.983246 84.297546C159.983246 83.504852,159.668304 82.744705,159.107819 82.184235C158.547348 81.623749,157.787201 81.308807,156.994507 81.308807C156.201813 81.308807,155.441666 81.623749,154.881195 82.184235C154.320709 82.744705,154.005768 83.504852,154.005768 84.297546C154.005768 85.090240,154.320709 85.850388,154.881195 86.410858C155.441666 86.971344,156.201813 87.286285,156.994507 87.286285C157.787201 87.286285,158.547348 86.971344,159.107819 86.410858C159.668304 85.850388,159.983246 85.090240,159.983246 84.297546Z" style="fill: rgb(100.000000%,100.000000%,100.000000%);stroke: none;"></path>
  <path d="M140.582184 89.308762C140.582184 88.516068,140.267242 87.755920,139.706757 87.195450C139.146286 86.634964,138.386139 86.320023,137.593445 86.320023C136.800751 86.320023,136.040604 86.634964,135.480133 87.195450C134.919647 87.755920,134.604706 88.516068,134.604706 89.308762C134.604706 90.101456,134.919647 90.861603,135.480133 91.422073C136.040604 91.982559,136.800751 92.297501,137.593445 92.297501C138.386139 92.297501,139.146286 91.982559,139.706757 91.422073C140.267242 90.861603,140.582184 90.101456,140.582184 89.308762Z" style="fill: rgb(100.000000%,100.000000%,100.000000%);stroke: none;"></path>
  <path d="M184.384781 55.139160C184.384781 54.346466,184.069839 53.586319,183.509354 53.025848C182.948883 52.465363,182.188736 52.150421,181.396042 52.150421C180.603348 52.150421,179.843201 52.465363,179.282730 53.025848C178.722244 53.586319,178.407303 54.346466,178.407303 55.139160C178.407303 55.931854,178.722244 56.692001,179.282730 57.252472C179.843201 57.812958,180.603348 58.127899,181.396042 58.127899C182.188736 58.127899,182.948883 57.812958,183.509354 57.252472C184.069839 56.692001,184.384781 55.931854,184.384781 55.139160Z" style="fill: rgb(100.000000%,100.000000%,100.000000%);stroke: none;"></path>
  <path d="M172.209381 79.809845C172.209381 79.017151,171.894440 78.257004,171.333954 77.696533C170.773483 77.136047,170.013336 76.821106,169.220642 76.821106C168.427948 76.821106,167.667801 77.136047,167.107330 77.696533C166.546844 78.257004,166.231903 79.017151,166.231903 79.809845C166.231903 80.602539,166.546844 81.362686,167.107330 81.923157C167.667801 82.483643,168.427948 82.798584,169.220642 82.798584C170.013336 82.798584,170.773483 82.483643,171.333954 81.923157C171.894440 81.362686,172.209381 80.602539,172.209381 79.809845Z" style="fill: rgb(100.000000%,100.000000%,100.000000%);stroke: none;"></path>
  <path d="M152.805099 16.156586C152.805099 15.363892,152.490158 14.603745,151.929672 14.043274C151.369202 13.482788,150.609055 13.167847,149.816360 13.167847C149.023666 13.167847,148.263519 13.482788,147.703049 14.043274C147.142563 14.603745,146.827621 15.363892,146.827621 16.156586C146.827621 16.949280,147.142563 17.709427,147.703049 18.269897C148.263519 18.830383,149.023666 19.145325,149.816360 19.145325C150.609055 19.145325,151.369202 18.830383,151.929672 18.269897C152.490158 17.709427,152.805099 16.949280,152.805099 16.156586Z" style="fill: rgb(100.000000%,100.000000%,100.000000%);stroke: none;"></path>
  <path d="M177.013275 39.355118C177.013275 38.562424,176.698334 37.802277,176.137848 37.241806C175.577377 36.681320,174.817230 36.366379,174.024536 36.366379C173.231842 36.366379,172.471695 36.681320,171.911224 37.241806C171.350739 37.802277,171.035797 38.562424,171.035797 39.355118C171.035797 40.147812,171.350739 40.907959,171.911224 41.468430C172.471695 42.028915,173.231842 42.343857,174.024536 42.343857C174.817230 42.343857,175.577377 42.028915,176.137848 41.468430C176.698334 40.907959,177.013275 40.147812,177.013275 39.355118Z" style="fill: rgb(100.000000%,100.000000%,100.000000%);stroke: none;"></path>
  <path d="M110.612671 20.161484C110.612671 19.368790,110.297729 18.608643,109.737244 18.048172C109.176773 17.487686,108.416626 17.172745,107.623932 17.172745C106.831238 17.172745,106.071091 17.487686,105.510620 18.048172C104.950134 18.608643,104.635193 19.368790,104.635193 20.161484C104.635193 20.954178,104.950134 21.714325,105.510620 22.274796C106.071091 22.835281,106.831238 23.150223,107.623932 23.150223C108.416626 23.150223,109.176773 22.835281,109.737244 22.274796C110.297729 21.714325,110.612671 20.954178,110.612671 20.161484Z" style="fill: rgb(100.000000%,100.000000%,100.000000%);stroke: none;"></path>
  <path d="M135.258423 9.007599C135.258423 8.214905,134.943481 7.454758,134.382996 6.894287C133.822525 6.333801,133.062378 6.018860,132.269684 6.018860C131.476990 6.018860,130.716843 6.333801,130.156372 6.894287C129.595886 7.454758,129.280945 8.214905,129.280945 9.007599C129.280945 9.800293,129.595886 10.560440,130.156372 11.120911C130.716843 11.681396,131.476990 11.996338,132.269684 11.996338C133.062378 11.996338,133.822525 11.681396,134.382996 11.120911C134.943481 10.560440,135.258423 9.800293,135.258423 9.007599Z" style="fill: rgb(100.000000%,100.000000%,100.000000%);stroke: none;"></path>
  <path d="M96.507233 41.628494C96.507233 40.835800,96.192291 40.075653,95.631805 39.515182C95.071335 38.954697,94.311188 38.639755,93.518494 38.639755C92.725800 38.639755,91.965652 38.954697,91.405182 39.515182C90.844696 40.075653,90.529755 40.835800,90.529755 41.628494C90.529755 42.421188,90.844696 43.181335,91.405182 43.741806C91.965652 44.302292,92.725800 44.617233,93.518494 44.617233C94.311188 44.617233,95.071335 44.302292,95.631805 43.741806C96.192291 43.181335,96.507233 42.421188,96.507233 41.628494Z" style="fill: rgb(100.000000%,100.000000%,100.000000%);stroke: none;"></path>
  <path d="M104.611435 28.545334C104.611435 27.752640,104.296494 26.992493,103.736008 26.432022C103.175537 25.871536,102.415390 25.556595,101.622696 25.556595C100.830002 25.556595,100.069855 25.871536,99.509384 26.432022C98.948898 26.992493,98.633957 27.752640,98.633957 28.545334C98.633957 29.338028,98.948898 30.098175,99.509384 30.658646C100.069855 31.219131,100.830002 31.534073,101.622696 31.534073C102.415390 31.534073,103.175537 31.219131,103.736008 30.658646C104.296494 30.098175,104.611435 29.338028,104.611435 28.545334Z" style="fill: rgb(100.000000%,100.000000%,100.000000%);stroke: none;"></path>
  <path d="M90.184540 55.361298C90.184540 54.568604,89.869598 53.808456,89.309113 53.247986C88.748642 52.687500,87.988495 52.372559,87.195801 52.372559C86.403107 52.372559,85.642960 52.687500,85.082489 53.247986C84.522003 53.808456,84.207062 54.568604,84.207062 55.361298C84.207062 56.153992,84.522003 56.914139,85.082489 57.474609C85.642960 58.035095,86.403107 58.350037,87.195801 58.350037C87.988495 58.350037,88.748642 58.035095,89.309113 57.474609C89.869598 56.914139,90.184540 56.153992,90.184540 55.361298Z" style="fill: rgb(100.000000%,100.000000%,100.000000%);stroke: none;"></path>
  <path d="M93.783997 46.345459C93.783997 45.552765,93.469055 44.792618,92.908569 44.232147C92.348099 43.671661,91.587952 43.356720,90.795258 43.356720C90.002563 43.356720,89.242416 43.671661,88.681946 44.232147C88.121460 44.792618,87.806519 45.552765,87.806519 46.345459C87.806519 47.138153,88.121460 47.898300,88.681946 48.458771C89.242416 49.019257,90.002563 49.334198,90.795258 49.334198C91.587952 49.334198,92.348099 49.019257,92.908569 48.458771C93.469055 47.898300,93.783997 47.138153,93.783997 46.345459Z" style="fill: rgb(100.000000%,100.000000%,100.000000%);stroke: none;"></path>
  <path d="M84.437561 65.970688C84.437561 65.177994,84.122620 64.417847,83.562134 63.857376C83.001663 63.296890,82.241516 62.981949,81.448822 62.981949C80.656128 62.981949,79.895981 63.296890,79.335510 63.857376C78.775024 64.417847,78.460083 65.177994,78.460083 65.970688C78.460083 66.763382,78.775024 67.523529,79.335510 68.084000C79.895981 68.644485,80.656128 68.959427,81.448822 68.959427C82.241516 68.959427,83.001663 68.644485,83.562134 68.084000C84.122620 67.523529,84.437561 66.763382,84.437561 65.970688Z" style="fill: rgb(100.000000%,100.000000%,100.000000%);stroke: none;"></path>
  <path d="M89.024460 59.555679C89.024460 58.762985,88.709518 58.002838,88.149033 57.442368C87.588562 56.881882,86.828415 56.566940,86.035721 56.566940C85.243027 56.566940,84.482880 56.881882,83.922409 57.442368C83.361923 58.002838,83.046982 58.762985,83.046982 59.555679C83.046982 60.348373,83.361923 61.108521,83.922409 61.668991C84.482880 62.229477,85.243027 62.544418,86.035721 62.544418C86.828415 62.544418,87.588562 62.229477,88.149033 61.668991C88.709518 61.108521,89.024460 60.348373,89.024460 59.555679Z" style="fill: rgb(100.000000%,100.000000%,100.000000%);stroke: none;"></path>
  <path d="M77.871674 71.830948C77.871674 71.038254,77.556732 70.278107,76.996246 69.717636C76.435776 69.157150,75.675629 68.842209,74.882935 68.842209C74.090240 68.842209,73.330093 69.157150,72.769623 69.717636C72.209137 70.278107,71.894196 71.038254,71.894196 71.830948C71.894196 72.623642,72.209137 73.383789,72.769623 73.944260C73.330093 74.504745,74.090240 74.819687,74.882935 74.819687C75.675629 74.819687,76.435776 74.504745,76.996246 73.944260C77.556732 73.383789,77.871674 72.623642,77.871674 71.830948Z" style="fill: rgb(100.000000%,100.000000%,100.000000%);stroke: none;"></path>
  <path d="M81.542099 68.188187C81.542099 67.395493,81.227158 66.635345,80.666672 66.074875C80.106201 65.514389,79.346054 65.199448,78.553360 65.199448C77.760666 65.199448,77.000519 65.514389,76.440048 66.074875C75.879562 66.635345,75.564621 67.395493,75.564621 68.188187C75.564621 68.980881,75.879562 69.741028,76.440048 70.301498C77.000519 70.861984,77.760666 71.176926,78.553360 71.176926C79.346054 71.176926,80.106201 70.861984,80.666672 70.301498C81.227158 69.741028,81.542099 68.980881,81.542099 68.188187Z" style="fill: rgb(100.000000%,100.000000%,100.000000%);stroke: none;"></path>
  <path d="M73.507919 73.651047C73.507919 72.858353,73.192978 72.098206,72.632492 71.537735C72.072021 70.977249,71.311874 70.662308,70.519180 70.662308C69.726486 70.662308,68.966339 70.977249,68.405869 71.537735C67.845383 72.098206,67.530441 72.858353,67.530441 73.651047C67.530441 74.443741,67.845383 75.203888,68.405869 75.764359C68.966339 76.324844,69.726486 76.639786,70.519180 76.639786C71.311874 76.639786,72.072021 76.324844,72.632492 75.764359C73.192978 75.203888,73.507919 74.443741,73.507919 73.651047Z" style="fill: rgb(100.000000%,100.000000%,100.000000%);stroke: none;"></path>
  <path d="M76.740982 73.038239C76.740982 72.245544,76.426041 71.485397,75.865555 70.924927C75.305084 70.364441,74.544937 70.049500,73.752243 70.049500C72.959549 70.049500,72.199402 70.364441,71.638931 70.924927C71.078445 71.485397,70.763504 72.245544,70.763504 73.038239C70.763504 73.830933,71.078445 74.591080,71.638931 75.151550C72.199402 75.712036,72.959549 76.026978,73.752243 76.026978C74.544937 76.026978,75.305084 75.712036,75.865555 75.151550C76.426041 74.591080,76.740982 73.830933,76.740982 73.038239Z" style="fill: rgb(100.000000%,100.000000%,100.000000%);stroke: none;"></path>
  <path d="M65.816452 69.620255C65.816452 68.827560,65.501511 68.067413,64.941025 67.506943C64.380554 66.946457,63.620407 66.631516,62.827713 66.631516C62.035019 66.631516,61.274872 66.946457,60.714401 67.506943C60.153915 68.067413,59.838974 68.827560,59.838974 69.620255C59.838974 70.412949,60.153915 71.173096,60.714401 71.733566C61.274872 72.294052,62.035019 72.608994,62.827713 72.608994C63.620407 72.608994,64.380554 72.294052,64.941025 71.733566C65.501511 71.173096,65.816452 70.412949,65.816452 69.620255Z" style="fill: rgb(100.000000%,100.000000%,100.000000%);stroke: none;"></path>
  <path d="M71.911407 72.799500C71.911407 72.006805,71.596466 71.246658,71.035980 70.686188C70.475510 70.125702,69.715363 69.810760,68.922668 69.810760C68.129974 69.810760,67.369827 70.125702,66.809357 70.686188C66.248871 71.246658,65.933929 72.006805,65.933929 72.799500C65.933929 73.592194,66.248871 74.352341,66.809357 74.912811C67.369827 75.473297,68.129974 75.788239,68.922668 75.788239C69.715363 75.788239,70.475510 75.473297,71.035980 74.912811C71.596466 74.352341,71.911407 73.592194,71.911407 72.799500Z" style="fill: rgb(100.000000%,100.000000%,100.000000%);stroke: none;"></path>
  <path d="M47.217468 59.684418C47.217468 58.891724,46.902527 58.131577,46.342041 57.571106C45.781570 57.010620,45.021423 56.695679,44.228729 56.695679C43.436035 56.695679,42.675888 57.010620,42.115417 57.571106C41.554932 58.131577,41.239990 58.891724,41.239990 59.684418C41.239990 60.477112,41.554932 61.237259,42.115417 61.797729C42.675888 62.358215,43.436035 62.673157,44.228729 62.673157C45.021423 62.673157,45.781570 62.358215,46.342041 61.797729C46.902527 61.237259,47.217468 60.477112,47.217468 59.684418Z" style="fill: rgb(100.000000%,100.000000%,100.000000%);stroke: none;"></path>
  <path d="M60.993744 67.714737C60.993744 66.922043,60.678802 66.161896,60.118317 65.601425C59.557846 65.040939,58.797699 64.725998,58.005005 64.725998C57.212311 64.725998,56.452164 65.040939,55.891693 65.601425C55.331207 66.161896,55.016266 66.922043,55.016266 67.714737C55.016266 68.507431,55.331207 69.267578,55.891693 69.828049C56.452164 70.388535,57.212311 70.703476,58.005005 70.703476C58.797699 70.703476,59.557846 70.388535,60.118317 69.828049C60.678802 69.267578,60.993744 68.507431,60.993744 67.714737Z" style="fill: rgb(100.000000%,100.000000%,100.000000%);stroke: none;"></path>
  <path d="M39.381409 23.775925C39.381409 22.983231,39.066467 22.223083,38.505981 21.662613C37.945511 21.102127,37.185364 20.787186,36.392670 20.787186C35.599976 20.787186,34.839828 21.102127,34.279358 21.662613C33.718872 22.223083,33.403931 22.983231,33.403931 23.775925C33.403931 24.568619,33.718872 25.328766,34.279358 25.889236C34.839828 26.449722,35.599976 26.764664,36.392670 26.764664C37.185364 26.764664,37.945511 26.449722,38.505981 25.889236C39.066467 25.328766,39.381409 24.568619,39.381409 23.775925Z" style="fill: rgb(100.000000%,100.000000%,100.000000%);stroke: none;"></path>
  <path d="M39.676849 51.004639C39.676849 50.211945,39.361908 49.451797,38.801422 48.891327C38.240952 48.330841,37.480804 48.015900,36.688110 48.015900C35.895416 48.015900,35.135269 48.330841,34.574799 48.891327C34.014313 49.451797,33.699371 50.211945,33.699371 51.004639C33.699371 51.797333,34.014313 52.557480,34.574799 53.117950C35.135269 53.678436,35.895416 53.993378,36.688110 53.993378C37.480804 53.993378,38.240952 53.678436,38.801422 53.117950C39.361908 52.557480,39.676849 51.797333,39.676849 51.004639Z" style="fill: rgb(100.000000%,100.000000%,100.000000%);stroke: none;"></path>
  <path d="M89.447296 2.853607C89.447296 2.060913,89.132355 1.300766,88.571869 0.740295C88.011398 0.179810,87.251251 -0.135132,86.458557 -0.135132C85.665863 -0.135132,84.905716 0.179810,84.345245 0.740295C83.784760 1.300766,83.469818 2.060913,83.469818 2.853607C83.469818 3.646301,83.784760 4.406448,84.345245 4.966919C84.905716 5.527405,85.665863 5.842346,86.458557 5.842346C87.251251 5.842346,88.011398 5.527405,88.571869 4.966919C89.132355 4.406448,89.447296 3.646301,89.447296 2.853607Z" style="fill: rgb(100.000000%,100.000000%,100.000000%);stroke: none;"></path>
  <path d="M55.420914 13.349213C55.420914 12.556519,55.105972 11.796371,54.545486 11.235901C53.985016 10.675415,53.224869 10.360474,52.432175 10.360474C51.639481 10.360474,50.879333 10.675415,50.318863 11.235901C49.758377 11.796371,49.443436 12.556519,49.443436 13.349213C49.443436 14.141907,49.758377 14.902054,50.318863 15.462524C50.879333 16.023010,51.639481 16.337952,52.432175 16.337952C53.224869 16.337952,53.985016 16.023010,54.545486 15.462524C55.105972 14.902054,55.420914 14.141907,55.420914 13.349213Z" style="fill: rgb(100.000000%,100.000000%,100.000000%);stroke: none;"></path>
  <path d="M125.391861 23.583771C125.391861 22.791077,125.076920 22.030930,124.516434 21.470459C123.955963 20.909973,123.195816 20.595032,122.403122 20.595032C121.610428 20.595032,120.850281 20.909973,120.289810 21.470459C119.729324 22.030930,119.414383 22.791077,119.414383 23.583771C119.414383 24.376465,119.729324 25.136612,120.289810 25.697083C120.850281 26.257568,121.610428 26.572510,122.403122 26.572510C123.195816 26.572510,123.955963 26.257568,124.516434 25.697083C125.076920 25.136612,125.391861 24.376465,125.391861 23.583771Z" style="fill: rgb(100.000000%,100.000000%,100.000000%);stroke: none;"></path>
  <path d="M109.212357 2.183594C109.212357 1.390900,108.897415 0.630753,108.336929 0.070282C107.776459 -0.490204,107.016312 -0.805145,106.223618 -0.805145C105.430923 -0.805145,104.670776 -0.490204,104.110306 0.070282C103.549820 0.630753,103.234879 1.390900,103.234879 2.183594C103.234879 2.976288,103.549820 3.736435,104.110306 4.296906C104.670776 4.857391,105.430923 5.172333,106.223618 5.172333C107.016312 5.172333,107.776459 4.857391,108.336929 4.296906C108.897415 3.736435,109.212357 2.976288,109.212357 2.183594Z" style="fill: rgb(100.000000%,100.000000%,100.000000%);stroke: none;"></path>
  <path d="M125.635010 48.327713C125.635010 47.535019,125.320068 46.774872,124.759583 46.214401C124.199112 45.653915,123.438965 45.338974,122.646271 45.338974C121.853577 45.338974,121.093430 45.653915,120.532959 46.214401C119.972473 46.774872,119.657532 47.535019,119.657532 48.327713C119.657532 49.120407,119.972473 49.880554,120.532959 50.441025C121.093430 51.001511,121.853577 51.316452,122.646271 51.316452C123.438965 51.316452,124.199112 51.001511,124.759583 50.441025C125.320068 49.880554,125.635010 49.120407,125.635010 48.327713Z" style="fill: rgb(100.000000%,100.000000%,100.000000%);stroke: none;"></path>
  <path d="M125.995193 33.418900C125.995193 32.626205,125.680252 31.866058,125.119766 31.305588C124.559296 30.745102,123.799149 30.430161,123.006454 30.430161C122.213760 30.430161,121.453613 30.745102,120.893143 31.305588C120.332657 31.866058,120.017715 32.626205,120.017715 33.418900C120.017715 34.211594,120.332657 34.971741,120.893143 35.532211C121.453613 36.092697,122.213760 36.407639,123.006454 36.407639C123.799149 36.407639,124.559296 36.092697,125.119766 35.532211C125.680252 34.971741,125.995193 34.211594,125.995193 33.418900Z" style="fill: rgb(100.000000%,100.000000%,100.000000%);stroke: none;"></path>
  <path d="M123.120590 64.540924C123.120590 63.748230,122.805649 62.988083,122.245163 62.427612C121.684692 61.867126,120.924545 61.552185,120.131851 61.552185C119.339157 61.552185,118.579010 61.867126,118.018539 62.427612C117.458054 62.988083,117.143112 63.748230,117.143112 64.540924C117.143112 65.333618,117.458054 66.093765,118.018539 66.654236C118.579010 67.214722,119.339157 67.529663,120.131851 67.529663C120.924545 67.529663,121.684692 67.214722,122.245163 66.654236C122.805649 66.093765,123.120590 65.333618,123.120590 64.540924Z" style="fill: rgb(100.000000%,100.000000%,100.000000%);stroke: none;"></path>
  <path d="M125.276627 53.798599C125.276627 53.005905,124.961685 52.245758,124.401199 51.685287C123.840729 51.124802,123.080582 50.809860,122.287888 50.809860C121.495193 50.809860,120.735046 51.124802,120.174576 51.685287C119.614090 52.245758,119.299149 53.005905,119.299149 53.798599C119.299149 54.591293,119.614090 55.351440,120.174576 55.911911C120.735046 56.472397,121.495193 56.787338,122.287888 56.787338C123.080582 56.787338,123.840729 56.472397,124.401199 55.911911C124.961685 55.351440,125.276627 54.591293,125.276627 53.798599Z" style="fill: rgb(100.000000%,100.000000%,100.000000%);stroke: none;"></path>
  <path d="M121.502090 81.306900C121.502090 80.514206,121.187149 79.754059,120.626663 79.193588C120.066193 78.633102,119.306046 78.318161,118.513351 78.318161C117.720657 78.318161,116.960510 78.633102,116.400040 79.193588C115.839554 79.754059,115.524612 80.514206,115.524612 81.306900C115.524612 82.099594,115.839554 82.859741,116.400040 83.420212C116.960510 83.980698,117.720657 84.295639,118.513351 84.295639C119.306046 84.295639,120.066193 83.980698,120.626663 83.420212C121.187149 82.859741,121.502090 82.099594,121.502090 81.306900Z" style="fill: rgb(100.000000%,100.000000%,100.000000%);stroke: none;"></path>
  <path d="M121.320251 69.827774C121.320251 69.035080,121.005310 68.274933,120.444824 67.714462C119.884354 67.153976,119.124207 66.839035,118.331512 66.839035C117.538818 66.839035,116.778671 67.153976,116.218201 67.714462C115.657715 68.274933,115.342773 69.035080,115.342773 69.827774C115.342773 70.620468,115.657715 71.380615,116.218201 71.941086C116.778671 72.501572,117.538818 72.816513,118.331512 72.816513C119.124207 72.816513,119.884354 72.501572,120.444824 71.941086C121.005310 71.380615,121.320251 70.620468,121.320251 69.827774Z" style="fill: rgb(100.000000%,100.000000%,100.000000%);stroke: none;"></path>
  <path d="M127.375702 101.056793C127.375702 100.264099,127.060760 99.503952,126.500275 98.943481C125.939804 98.382996,125.179657 98.068054,124.386963 98.068054C123.594269 98.068054,122.834122 98.382996,122.273651 98.943481C121.713165 99.503952,121.398224 100.264099,121.398224 101.056793C121.398224 101.849487,121.713165 102.609634,122.273651 103.170105C122.834122 103.730591,123.594269 104.045532,124.386963 104.045532C125.179657 104.045532,125.939804 103.730591,126.500275 103.170105C127.060760 102.609634,127.375702 101.849487,127.375702 101.056793Z" style="fill: rgb(100.000000%,100.000000%,100.000000%);stroke: none;"></path>
  <path d="M123.816635 86.947083C123.816635 86.154388,123.501694 85.394241,122.941208 84.833771C122.380737 84.273285,121.620590 83.958344,120.827896 83.958344C120.035202 83.958344,119.275055 84.273285,118.714584 84.833771C118.154099 85.394241,117.839157 86.154388,117.839157 86.947083C117.839157 87.739777,118.154099 88.499924,118.714584 89.060394C119.275055 89.620880,120.035202 89.935822,120.827896 89.935822C121.620590 89.935822,122.380737 89.620880,122.941208 89.060394C123.501694 88.499924,123.816635 87.739777,123.816635 86.947083Z" style="fill: rgb(100.000000%,100.000000%,100.000000%);stroke: none;"></path>
  <path d="M137.449097 129.781982C137.449097 128.989288,137.134155 128.229141,136.573669 127.668671C136.013199 127.108185,135.253052 126.793243,134.460358 126.793243C133.667664 126.793243,132.907516 127.108185,132.347046 127.668671C131.786560 128.229141,131.471619 128.989288,131.471619 129.781982C131.471619 130.574677,131.786560 131.334824,132.347046 131.895294C132.907516 132.455780,133.667664 132.770721,134.460358 132.770721C135.253052 132.770721,136.013199 132.455780,136.573669 131.895294C137.134155 131.334824,137.449097 130.574677,137.449097 129.781982Z" style="fill: rgb(100.000000%,100.000000%,100.000000%);stroke: none;"></path>
  <path d="M127.749054 109.870407C127.749054 109.077713,127.434113 108.317566,126.873627 107.757095C126.313156 107.196609,125.553009 106.881668,124.760315 106.881668C123.967621 106.881668,123.207474 107.196609,122.647003 107.757095C122.086517 108.317566,121.771576 109.077713,121.771576 109.870407C121.771576 110.663101,122.086517 111.423248,122.647003 111.983719C123.207474 112.544205,123.967621 112.859146,124.760315 112.859146C125.553009 112.859146,126.313156 112.544205,126.873627 111.983719C127.434113 111.423248,127.749054 110.663101,127.749054 109.870407Z" style="fill: rgb(100.000000%,100.000000%,100.000000%);stroke: none;"></path>
  <path d="M156.380768 166.700531C156.380768 165.907837,156.065826 165.147690,155.505341 164.587219C154.944870 164.026733,154.184723 163.711792,153.392029 163.711792C152.599335 163.711792,151.839188 164.026733,151.278717 164.587219C150.718231 165.147690,150.403290 165.907837,150.403290 166.700531C150.403290 167.493225,150.718231 168.253372,151.278717 168.813843C151.839188 169.374329,152.599335 169.689270,153.392029 169.689270C154.184723 169.689270,154.944870 169.374329,155.505341 168.813843C156.065826 168.253372,156.380768 167.493225,156.380768 166.700531Z" style="fill: rgb(100.000000%,100.000000%,100.000000%);stroke: none;"></path>
  <path d="M150.957077 137.592468C150.957077 136.799774,150.642136 136.039627,150.081650 135.479156C149.521179 134.918671,148.761032 134.603729,147.968338 134.603729C147.175644 134.603729,146.415497 134.918671,145.855026 135.479156C145.294540 136.039627,144.979599 136.799774,144.979599 137.592468C144.979599 138.385162,145.294540 139.145309,145.855026 139.705780C146.415497 140.266266,147.175644 140.581207,147.968338 140.581207C148.761032 140.581207,149.521179 140.266266,150.081650 139.705780C150.642136 139.145309,150.957077 138.385162,150.957077 137.592468Z" style="fill: rgb(100.000000%,100.000000%,100.000000%);stroke: none;"></path>
  <path d="M112.455551 193.607208C112.455551 192.814514,112.140610 192.054367,111.580124 191.493896C111.019653 190.933411,110.259506 190.618469,109.466812 190.618469C108.674118 190.618469,107.913971 190.933411,107.353500 191.493896C106.793015 192.054367,106.478073 192.814514,106.478073 193.607208C106.478073 194.399902,106.793015 195.160049,107.353500 195.720520C107.913971 196.281006,108.674118 196.595947,109.466812 196.595947C110.259506 196.595947,111.019653 196.281006,111.580124 195.720520C112.140610 195.160049,112.455551 194.399902,112.455551 193.607208Z" style="fill: rgb(100.000000%,100.000000%,100.000000%);stroke: none;"></path>
  <path d="M144.421646 180.377289C144.421646 179.584595,144.106705 178.824448,143.546219 178.263977C142.985748 177.703491,142.225601 177.388550,141.432907 177.388550C140.640213 177.388550,139.880066 177.703491,139.319595 178.263977C138.759109 178.824448,138.444168 179.584595,138.444168 180.377289C138.444168 181.169983,138.759109 181.930130,139.319595 182.490601C139.880066 183.051086,140.640213 183.366028,141.432907 183.366028C142.225601 183.366028,142.985748 183.051086,143.546219 182.490601C144.106705 181.930130,144.421646 181.169983,144.421646 180.377289Z" style="fill: rgb(100.000000%,100.000000%,100.000000%);stroke: none;"></path>
  <path d="M76.066650 167.207687C76.066650 166.414993,75.751709 165.654846,75.191223 165.094376C74.630753 164.533890,73.870605 164.218948,73.077911 164.218948C72.285217 164.218948,71.525070 164.533890,70.964600 165.094376C70.404114 165.654846,70.089172 166.414993,70.089172 167.207687C70.089172 168.000381,70.404114 168.760529,70.964600 169.320999C71.525070 169.881485,72.285217 170.196426,73.077911 170.196426C73.870605 170.196426,74.630753 169.881485,75.191223 169.320999C75.751709 168.760529,76.066650 168.000381,76.066650 167.207687Z" style="fill: rgb(100.000000%,100.000000%,100.000000%);stroke: none;"></path>
  <path d="M92.817337 191.808899C92.817337 191.016205,92.502396 190.256058,91.941910 189.695587C91.381439 189.135101,90.621292 188.820160,89.828598 188.820160C89.035904 188.820160,88.275757 189.135101,87.715286 189.695587C87.154800 190.256058,86.839859 191.016205,86.839859 191.808899C86.839859 192.601593,87.154800 193.361740,87.715286 193.922211C88.275757 194.482697,89.035904 194.797638,89.828598 194.797638C90.621292 194.797638,91.381439 194.482697,91.941910 193.922211C92.502396 193.361740,92.817337 192.601593,92.817337 191.808899Z" style="fill: rgb(100.000000%,100.000000%,100.000000%);stroke: none;"></path>
  <path d="M56.969254 133.126114C56.969254 132.333420,56.654312 131.573273,56.093826 131.012802C55.533356 130.452316,54.773209 130.137375,53.980515 130.137375C53.187820 130.137375,52.427673 130.452316,51.867203 131.012802C51.306717 131.573273,50.991776 132.333420,50.991776 133.126114C50.991776 133.918808,51.306717 134.678955,51.867203 135.239426C52.427673 135.799911,53.187820 136.114853,53.980515 136.114853C54.773209 136.114853,55.533356 135.799911,56.093826 135.239426C56.654312 134.678955,56.969254 133.918808,56.969254 133.126114Z" style="fill: rgb(100.000000%,100.000000%,100.000000%);stroke: none;"></path>
  <path d="M77.351593 152.569275C77.351593 151.776581,77.036652 151.016434,76.476166 150.455963C75.915695 149.895477,75.155548 149.580536,74.362854 149.580536C73.570160 149.580536,72.810013 149.895477,72.249542 150.455963C71.689056 151.016434,71.374115 151.776581,71.374115 152.569275C71.374115 153.361969,71.689056 154.122116,72.249542 154.682587C72.810013 155.243073,73.570160 155.558014,74.362854 155.558014C75.155548 155.558014,75.915695 155.243073,76.476166 154.682587C77.036652 154.122116,77.351593 153.361969,77.351593 152.569275Z" style="fill: rgb(100.000000%,100.000000%,100.000000%);stroke: none;"></path>
  <path d="M8.723312 122.664932C8.723312 121.872238,8.408371 121.112091,7.847885 120.551620C7.287415 119.991135,6.527267 119.676193,5.734573 119.676193C4.941879 119.676193,4.181732 119.991135,3.621262 120.551620C3.060776 121.112091,2.745834 121.872238,2.745834 122.664932C2.745834 123.457626,3.060776 124.217773,3.621262 124.778244C4.181732 125.338730,4.941879 125.653671,5.734573 125.653671C6.527267 125.653671,7.287415 125.338730,7.847885 124.778244C8.408371 124.217773,8.723312 123.457626,8.723312 122.664932Z" style="fill: rgb(100.000000%,100.000000%,100.000000%);stroke: none;"></path>
  <path d="M38.916779 138.550568C38.916779 137.757874,38.601837 136.997726,38.041351 136.437256C37.480881 135.876770,36.720734 135.561829,35.928040 135.561829C35.135345 135.561829,34.375198 135.876770,33.814728 136.437256C33.254242 136.997726,32.939301 137.757874,32.939301 138.550568C32.939301 139.343262,33.254242 140.103409,33.814728 140.663879C34.375198 141.224365,35.135345 141.539307,35.928040 141.539307C36.720734 141.539307,37.480881 141.224365,38.041351 140.663879C38.601837 140.103409,38.916779 139.343262,38.916779 138.550568Z" style="fill: rgb(100.000000%,100.000000%,100.000000%);stroke: none;"></path>
  <path d="M12.492157 62.917587C12.492157 62.124893,12.177216 61.364746,11.616730 60.804276C11.056259 60.243790,10.296112 59.928848,9.503418 59.928848C8.710724 59.928848,7.950577 60.243790,7.390106 60.804276C6.829620 61.364746,6.514679 62.124893,6.514679 62.917587C6.514679 63.710281,6.829620 64.470428,7.390106 65.030899C7.950577 65.591385,8.710724 65.906326,9.503418 65.906326C10.296112 65.906326,11.056259 65.591385,11.616730 65.030899C12.177216 64.470428,12.492157 63.710281,12.492157 62.917587Z" style="fill: rgb(100.000000%,100.000000%,100.000000%);stroke: none;"></path>
  <path d="M5.752884 101.200653C5.752884 100.407959,5.437943 99.647812,4.877457 99.087341C4.316986 98.526855,3.556839 98.211914,2.764145 98.211914C1.971451 98.211914,1.211304 98.526855,0.650833 99.087341C0.090347 99.647812,-0.224594 100.407959,-0.224594 101.200653C-0.224594 101.993347,0.090347 102.753494,0.650833 103.313965C1.211304 103.874451,1.971451 104.189392,2.764145 104.189392C3.556839 104.189392,4.316986 103.874451,4.877457 103.313965C5.437943 102.753494,5.752884 101.993347,5.752884 101.200653Z" style="fill: rgb(100.000000%,100.000000%,100.000000%);stroke: none;"></path>
  <path d="M50.957550 37.765472C50.957550 36.972778,50.642609 36.212631,50.082123 35.652161C49.521652 35.091675,48.761505 34.776733,47.968811 34.776733C47.176117 34.776733,46.415970 35.091675,45.855499 35.652161C45.295013 36.212631,44.980072 36.972778,44.980072 37.765472C44.980072 38.558167,45.295013 39.318314,45.855499 39.878784C46.415970 40.439270,47.176117 40.754211,47.968811 40.754211C48.761505 40.754211,49.521652 40.439270,50.082123 39.878784C50.642609 39.318314,50.957550 38.558167,50.957550 37.765472Z" style="fill: rgb(100.000000%,100.000000%,100.000000%);stroke: none;"></path>
  <path d="M21.613205 44.433044C21.613205 43.640350,21.298264 42.880203,20.737778 42.319733C20.177307 41.759247,19.417160 41.444305,18.624466 41.444305C17.831772 41.444305,17.071625 41.759247,16.511154 42.319733C15.950668 42.880203,15.635727 43.640350,15.635727 44.433044C15.635727 45.225739,15.950668 45.985886,16.511154 46.546356C17.071625 47.106842,17.831772 47.421783,18.624466 47.421783C19.417160 47.421783,20.177307 47.106842,20.737778 46.546356C21.298264 45.985886,21.613205 45.225739,21.613205 44.433044Z" style="fill: rgb(100.000000%,100.000000%,100.000000%);stroke: none;"></path>
  <path d="M79.524826 47.695435C79.524826 46.902740,79.209885 46.142593,78.649399 45.582123C78.088928 45.021637,77.328781 44.706696,76.536087 44.706696C75.743393 44.706696,74.983246 45.021637,74.422775 45.582123C73.862289 46.142593,73.547348 46.902740,73.547348 47.695435C73.547348 48.488129,73.862289 49.248276,74.422775 49.808746C74.983246 50.369232,75.743393 50.684174,76.536087 50.684174C77.328781 50.684174,78.088928 50.369232,78.649399 49.808746C79.209885 49.248276,79.524826 48.488129,79.524826 47.695435Z" style="fill: rgb(100.000000%,100.000000%,100.000000%);stroke: none;"></path>
  <path d="M62.224747 42.594315C62.224747 41.801620,61.909805 41.041473,61.349319 40.481003C60.788849 39.920517,60.028702 39.605576,59.236008 39.605576C58.443314 39.605576,57.683167 39.920517,57.122696 40.481003C56.562210 41.041473,56.247269 41.801620,56.247269 42.594315C56.247269 43.387009,56.562210 44.147156,57.122696 44.707626C57.683167 45.268112,58.443314 45.583054,59.236008 45.583054C60.028702 45.583054,60.788849 45.268112,61.349319 44.707626C61.909805 44.147156,62.224747 43.387009,62.224747 42.594315Z" style="fill: rgb(100.000000%,100.000000%,100.000000%);stroke: none;"></path>
  <path d="M96.857544 53.398300C96.857544 52.605606,96.542603 51.845459,95.982117 51.284988C95.421646 50.724503,94.661499 50.409561,93.868805 50.409561C93.076111 50.409561,92.315964 50.724503,91.755493 51.284988C91.195007 51.845459,90.880066 52.605606,90.880066 53.398300C90.880066 54.190994,91.195007 54.951141,91.755493 55.511612C92.315964 56.072098,93.076111 56.387039,93.868805 56.387039C94.661499 56.387039,95.421646 56.072098,95.982117 55.511612C96.542603 54.951141,96.857544 54.190994,96.857544 53.398300Z" style="fill: rgb(100.000000%,100.000000%,100.000000%);stroke: none;"></path>
  <path d="M85.811951 49.040924C85.811951 48.248230,85.497009 47.488083,84.936523 46.927612C84.376053 46.367126,83.615906 46.052185,82.823212 46.052185C82.030518 46.052185,81.270370 46.367126,80.709900 46.927612C80.149414 47.488083,79.834473 48.248230,79.834473 49.040924C79.834473 49.833618,80.149414 50.593765,80.709900 51.154236C81.270370 51.714722,82.030518 52.029663,82.823212 52.029663C83.615906 52.029663,84.376053 51.714722,84.936523 51.154236C85.497009 50.593765,85.811951 49.833618,85.811951 49.040924Z" style="fill: rgb(100.000000%,100.000000%,100.000000%);stroke: none;"></path>
  <path d="M112.577026 58.958694C112.577026 58.166000,112.262085 57.405853,111.701599 56.845383C111.141129 56.284897,110.380981 55.969955,109.588287 55.969955C108.795593 55.969955,108.035446 56.284897,107.474976 56.845383C106.914490 57.405853,106.599548 58.166000,106.599548 58.958694C106.599548 59.751389,106.914490 60.511536,107.474976 61.072006C108.035446 61.632492,108.795593 61.947433,109.588287 61.947433C110.380981 61.947433,111.141129 61.632492,111.701599 61.072006C112.262085 60.511536,112.577026 59.751389,112.577026 58.958694Z" style="fill: rgb(100.000000%,100.000000%,100.000000%);stroke: none;"></path>
  <path d="M101.671249 56.125443C101.671249 55.332748,101.356308 54.572601,100.795822 54.012131C100.235352 53.451645,99.475204 53.136703,98.682510 53.136703C97.889816 53.136703,97.129669 53.451645,96.569199 54.012131C96.008713 54.572601,95.693771 55.332748,95.693771 56.125443C95.693771 56.918137,96.008713 57.678284,96.569199 58.238754C97.129669 58.799240,97.889816 59.114182,98.682510 59.114182C99.475204 59.114182,100.235352 58.799240,100.795822 58.238754C101.356308 57.678284,101.671249 56.918137,101.671249 56.125443Z" style="fill: rgb(100.000000%,100.000000%,100.000000%);stroke: none;"></path>
  <path d="M130.904587 59.546066C130.904587 58.753372,130.589645 57.993225,130.029160 57.432755C129.468689 56.872269,128.708542 56.557327,127.915848 56.557327C127.123154 56.557327,126.363007 56.872269,125.802536 57.432755C125.242050 57.993225,124.927109 58.753372,124.927109 59.546066C124.927109 60.338760,125.242050 61.098907,125.802536 61.659378C126.363007 62.219864,127.123154 62.534805,127.915848 62.534805C128.708542 62.534805,129.468689 62.219864,130.029160 61.659378C130.589645 61.098907,130.904587 60.338760,130.904587 59.546066Z" style="fill: rgb(100.000000%,100.000000%,100.000000%);stroke: none;"></path>
  <path d="M118.424438 58.830887C118.424438 58.038193,118.109497 57.278046,117.549011 56.717575C116.988541 56.157089,116.228394 55.842148,115.435699 55.842148C114.643005 55.842148,113.882858 56.157089,113.322388 56.717575C112.761902 57.278046,112.446960 58.038193,112.446960 58.830887C112.446960 59.623581,112.761902 60.383728,113.322388 60.944199C113.882858 61.504684,114.643005 61.819626,115.435699 61.819626C116.228394 61.819626,116.988541 61.504684,117.549011 60.944199C118.109497 60.383728,118.424438 59.623581,118.424438 58.830887Z" style="fill: rgb(100.000000%,100.000000%,100.000000%);stroke: none;"></path>
  <path d="M155.882782 62.049973C155.882782 61.257278,155.567841 60.497131,155.007355 59.936661C154.446884 59.376175,153.686737 59.061234,152.894043 59.061234C152.101349 59.061234,151.341202 59.376175,150.780731 59.936661C150.220245 60.497131,149.905304 61.257278,149.905304 62.049973C149.905304 62.842667,150.220245 63.602814,150.780731 64.163284C151.341202 64.723770,152.101349 65.038712,152.894043 65.038712C153.686737 65.038712,154.446884 64.723770,155.007355 64.163284C155.567841 63.602814,155.882782 62.842667,155.882782 62.049973Z" style="fill: rgb(100.000000%,100.000000%,100.000000%);stroke: none;"></path>
  <path d="M137.554733 60.557251C137.554733 59.764557,137.239792 59.004410,136.679306 58.443939C136.118835 57.883453,135.358688 57.568512,134.565994 57.568512C133.773300 57.568512,133.013153 57.883453,132.452682 58.443939C131.892197 59.004410,131.577255 59.764557,131.577255 60.557251C131.577255 61.349945,131.892197 62.110092,132.452682 62.670563C133.013153 63.231049,133.773300 63.545990,134.565994 63.545990C135.358688 63.545990,136.118835 63.231049,136.679306 62.670563C137.239792 62.110092,137.554733 61.349945,137.554733 60.557251Z" style="fill: rgb(100.000000%,100.000000%,100.000000%);stroke: none;"></path>
  <path d="M190.659607 78.897156C190.659607 78.104462,190.344666 77.344315,189.784180 76.783844C189.223709 76.223358,188.463562 75.908417,187.670868 75.908417C186.878174 75.908417,186.118027 76.223358,185.557556 76.783844C184.997070 77.344315,184.682129 78.104462,184.682129 78.897156C184.682129 79.689850,184.997070 80.449997,185.557556 81.010468C186.118027 81.570953,186.878174 81.885895,187.670868 81.885895C188.463562 81.885895,189.223709 81.570953,189.784180 81.010468C190.344666 80.449997,190.659607 79.689850,190.659607 78.897156Z" style="fill: rgb(100.000000%,100.000000%,100.000000%);stroke: none;"></path>
  <path d="M168.238525 61.859192C168.238525 61.066498,167.923584 60.306351,167.363098 59.745880C166.802628 59.185394,166.042480 58.870453,165.249786 58.870453C164.457092 58.870453,163.696945 59.185394,163.136475 59.745880C162.575989 60.306351,162.261047 61.066498,162.261047 61.859192C162.261047 62.651886,162.575989 63.412033,163.136475 63.972504C163.696945 64.532990,164.457092 64.847931,165.249786 64.847931C166.042480 64.847931,166.802628 64.532990,167.363098 63.972504C167.923584 63.412033,168.238525 62.651886,168.238525 61.859192Z" style="fill: rgb(100.000000%,100.000000%,100.000000%);stroke: none;"></path>
  <path d="M183.034012 131.735733C183.034012 130.943039,182.719070 130.182892,182.158585 129.622421C181.598114 129.061935,180.837967 128.746994,180.045273 128.746994C179.252579 128.746994,178.492432 129.061935,177.931961 129.622421C177.371475 130.182892,177.056534 130.943039,177.056534 131.735733C177.056534 132.528427,177.371475 133.288574,177.931961 133.849045C178.492432 134.409531,179.252579 134.724472,180.045273 134.724472C180.837967 134.724472,181.598114 134.409531,182.158585 133.849045C182.719070 133.288574,183.034012 132.528427,183.034012 131.735733Z" style="fill: rgb(100.000000%,100.000000%,100.000000%);stroke: none;"></path>
  <path d="M191.948547 97.158707C191.948547 96.366013,191.633606 95.605865,191.073120 95.045395C190.512650 94.484909,189.752502 94.169968,188.959808 94.169968C188.167114 94.169968,187.406967 94.484909,186.846497 95.045395C186.286011 95.605865,185.971069 96.366013,185.971069 97.158707C185.971069 97.951401,186.286011 98.711548,186.846497 99.272018C187.406967 99.832504,188.167114 100.147446,188.959808 100.147446C189.752502 100.147446,190.512650 99.832504,191.073120 99.272018C191.633606 98.711548,191.948547 97.951401,191.948547 97.158707Z" style="fill: rgb(100.000000%,100.000000%,100.000000%);stroke: none;"></path>
  <path d="M138.876175 153.173386C138.876175 152.380692,138.561234 151.620544,138.000748 151.060074C137.440277 150.499588,136.680130 150.184647,135.887436 150.184647C135.094742 150.184647,134.334595 150.499588,133.774124 151.060074C133.213638 151.620544,132.898697 152.380692,132.898697 153.173386C132.898697 153.966080,133.213638 154.726227,133.774124 155.286697C134.334595 155.847183,135.094742 156.162125,135.887436 156.162125C136.680130 156.162125,137.440277 155.847183,138.000748 155.286697C138.561234 154.726227,138.876175 153.966080,138.876175 153.173386Z" style="fill: rgb(100.000000%,100.000000%,100.000000%);stroke: none;"></path>
  <path d="M171.584061 148.522339C171.584061 147.729645,171.269119 146.969498,170.708633 146.409027C170.148163 145.848541,169.388016 145.533600,168.595322 145.533600C167.802628 145.533600,167.042480 145.848541,166.482010 146.409027C165.921524 146.969498,165.606583 147.729645,165.606583 148.522339C165.606583 149.315033,165.921524 150.075180,166.482010 150.635651C167.042480 151.196136,167.802628 151.511078,168.595322 151.511078C169.388016 151.511078,170.148163 151.196136,170.708633 150.635651C171.269119 150.075180,171.584061 149.315033,171.584061 148.522339Z" style="fill: rgb(100.000000%,100.000000%,100.000000%);stroke: none;"></path>
  <path d="M97.919907 155.285446C97.919907 154.492752,97.604965 153.732605,97.044479 153.172134C96.484009 152.611649,95.723862 152.296707,94.931168 152.296707C94.138474 152.296707,93.378326 152.611649,92.817856 153.172134C92.257370 153.732605,91.942429 154.492752,91.942429 155.285446C91.942429 156.078140,92.257370 156.838287,92.817856 157.398758C93.378326 157.959244,94.138474 158.274185,94.931168 158.274185C95.723862 158.274185,96.484009 157.959244,97.044479 157.398758C97.604965 156.838287,97.919907 156.078140,97.919907 155.285446Z" style="fill: rgb(100.000000%,100.000000%,100.000000%);stroke: none;"></path>
  <path d="M123.806168 144.076111C123.806168 143.283417,123.491226 142.523270,122.930740 141.962799C122.370270 141.402313,121.610123 141.087372,120.817429 141.087372C120.024734 141.087372,119.264587 141.402313,118.704117 141.962799C118.143631 142.523270,117.828690 143.283417,117.828690 144.076111C117.828690 144.868805,118.143631 145.628952,118.704117 146.189423C119.264587 146.749908,120.024734 147.064850,120.817429 147.064850C121.610123 147.064850,122.370270 146.749908,122.930740 146.189423C123.491226 145.628952,123.806168 144.868805,123.806168 144.076111Z" style="fill: rgb(100.000000%,100.000000%,100.000000%);stroke: none;"></path>
  <path d="M68.915222 188.454590C68.915222 187.661896,68.600281 186.901749,68.039795 186.341278C67.479324 185.780792,66.719177 185.465851,65.926483 185.465851C65.133789 185.465851,64.373642 185.780792,63.813171 186.341278C63.252686 186.901749,62.937744 187.661896,62.937744 188.454590C62.937744 189.247284,63.252686 190.007431,63.813171 190.567902C64.373642 191.128387,65.133789 191.443329,65.926483 191.443329C66.719177 191.443329,67.479324 191.128387,68.039795 190.567902C68.600281 190.007431,68.915222 189.247284,68.915222 188.454590Z" style="fill: rgb(100.000000%,100.000000%,100.000000%);stroke: none;"></path>
  <path d="M93.399002 169.584793C93.399002 168.792099,93.084061 168.031952,92.523575 167.471481C91.963104 166.910995,91.202957 166.596054,90.410263 166.596054C89.617569 166.596054,88.857422 166.910995,88.296951 167.471481C87.736465 168.031952,87.421524 168.792099,87.421524 169.584793C87.421524 170.377487,87.736465 171.137634,88.296951 171.698105C88.857422 172.258591,89.617569 172.573532,90.410263 172.573532C91.202957 172.573532,91.963104 172.258591,92.523575 171.698105C93.084061 171.137634,93.399002 170.377487,93.399002 169.584793Z" style="fill: rgb(100.000000%,100.000000%,100.000000%);stroke: none;"></path>
  <path d="M21.869308 162.903671C21.869308 162.110977,21.554367 161.350830,20.993881 160.790359C20.433411 160.229874,19.673264 159.914932,18.880569 159.914932C18.087875 159.914932,17.327728 160.229874,16.767258 160.790359C16.206772 161.350830,15.891830 162.110977,15.891830 162.903671C15.891830 163.696365,16.206772 164.456512,16.767258 165.016983C17.327728 165.577469,18.087875 165.892410,18.880569 165.892410C19.673264 165.892410,20.433411 165.577469,20.993881 165.016983C21.554367 164.456512,21.869308 163.696365,21.869308 162.903671Z" style="fill: rgb(100.000000%,100.000000%,100.000000%);stroke: none;"></path>
  <path d="M48.944412 185.772461C48.944412 184.979767,48.629471 184.219620,48.068985 183.659149C47.508514 183.098663,46.748367 182.783722,45.955673 182.783722C45.162979 182.783722,44.402832 183.098663,43.842361 183.659149C43.281876 184.219620,42.966934 184.979767,42.966934 185.772461C42.966934 186.565155,43.281876 187.325302,43.842361 187.885773C44.402832 188.446259,45.162979 188.761200,45.955673 188.761200C46.748367 188.761200,47.508514 188.446259,48.068985 187.885773C48.629471 187.325302,48.944412 186.565155,48.944412 185.772461Z" style="fill: rgb(100.000000%,100.000000%,100.000000%);stroke: none;"></path>
  <path d="M34.210144 119.173920C34.210144 118.381226,33.895203 117.621078,33.334717 117.060608C32.774246 116.500122,32.014099 116.185181,31.221405 116.185181C30.428711 116.185181,29.668564 116.500122,29.108093 117.060608C28.547607 117.621078,28.232666 118.381226,28.232666 119.173920C28.232666 119.966614,28.547607 120.726761,29.108093 121.287231C29.668564 121.847717,30.428711 122.162659,31.221405 122.162659C32.014099 122.162659,32.774246 121.847717,33.334717 121.287231C33.895203 120.726761,34.210144 119.966614,34.210144 119.173920Z" style="fill: rgb(100.000000%,100.000000%,100.000000%);stroke: none;"></path>
  <path d="M16.182434 144.832657C16.182434 144.039963,15.867493 143.279816,15.307007 142.719345C14.746536 142.158859,13.986389 141.843918,13.193695 141.843918C12.401001 141.843918,11.640854 142.158859,11.080383 142.719345C10.519897 143.279816,10.204956 144.039963,10.204956 144.832657C10.204956 145.625351,10.519897 146.385498,11.080383 146.945969C11.640854 147.506454,12.401001 147.821396,13.193695 147.821396C13.986389 147.821396,14.746536 147.506454,15.307007 146.945969C15.867493 146.385498,16.182434 145.625351,16.182434 144.832657Z" style="fill: rgb(100.000000%,100.000000%,100.000000%);stroke: none;"></path>
  <path d="M58.753586 106.687988C63.987152 100.002167,69.754898 93.752304,76.000000 88.000000C79.058609 85.182739,82.272385 81.927170,81.512039 77.924759C80.929382 74.857712,78.121521 72.979950,76.000000 70.722305C74.568710 69.199188,73.086578 67.379044,71.051849 67.697098C69.067719 68.007233,68.175903 70.103973,67.405380 72.008057C66.238373 74.891907,64.703598 77.857407,65.555359 80.858109C66.780869 85.175446,71.656708 86.599030,76.000000 88.000000C83.183319 90.317062,89.880554 94.157364,97.346176 95.358871C105.697296 96.702896,114.067062 94.646118,122.287994 92.735550C129.925888 90.960480,137.593445 89.308762,145.185928 87.347656C156.994507 84.297546,169.220642 79.809845,174.580368 68.949585C181.396042 55.139160,174.024536 39.355118,162.467010 28.279617C149.816360 16.156586,132.269684 9.007599,116.707626 16.050491C107.623932 20.161484,101.622696 28.545334,96.378418 37.011520C93.518494 41.628494,90.795258 46.345459,88.780838 51.391144C87.195801 55.361298,86.035721 59.555679,83.544174 63.040237C81.448822 65.970688,78.553360 68.188187,76.000000 70.722305C74.882935 71.830948,73.752243 73.038239,72.202103 73.332062C70.519180 73.651047,68.922668 72.799500,67.405380 72.008057C62.827713 69.620255,58.005005 67.714737,53.543411 65.114029C44.228729 59.684418,36.688110 51.004639,36.572556 40.354919C36.392670 23.775925,52.432175 13.349213,69.135864 8.196884C86.458557 2.853607,106.223618 2.183594,116.707626 16.050491C122.403122 23.583771,123.006454 33.418900,122.778351 42.860672C122.646271 48.327713,122.287888 53.798599,121.211456 59.161865C120.131851 64.540924,118.331512 69.827774,118.418579 75.324158C118.513351 81.306900,120.827896 86.947083,122.287994 92.735550C124.386963 101.056793,124.760315 109.870407,128.528687 117.605850C134.460358 129.781982,147.968338 137.592468,150.484756 151.097656C153.392029 166.700531,141.432907 180.377289,126.097443 186.724228C109.466812 193.607208,89.828598 191.808899,80.104538 177.527481C73.077911 167.207687,74.362854 152.569275,65.201691 143.830246C53.980515 133.126114,35.928040 138.550568,22.551987 131.513046C5.734573 122.664932,2.764145 101.200653,6.209152 81.630997C9.503418 62.917587,18.624466 44.433044,36.572556 40.354919C47.968811 37.765472,59.236008 42.594315,70.395721 45.884888C76.536087 47.695435,82.823212 49.040924,88.780838 51.391144C93.868805 53.398300,98.682510 56.125443,103.981567 57.502106C109.588287 58.958694,115.435699 58.830887,121.211456 59.161865C127.915848 59.546066,134.565994 60.557251,141.258713 61.102341C152.894043 62.049973,165.249786 61.859192,174.580368 68.949585C187.670868 78.897156,188.959808 97.158707,184.736496 113.539764C180.045273 131.735733,168.595322 148.522339,150.484756 151.097656C135.887436 153.173386,120.817429 144.076111,107.032669 150.045227C94.931168 155.285446,90.410263 169.584793,80.104538 177.527481C65.926483 188.454590,45.955673 185.772461,31.963120 173.953751C18.880569 162.903671,13.193695 144.832657,22.551987 131.513046C31.221405 119.173920,49.503372 118.505035,58.753586 106.687988" style="stroke:rgb(0.000000%,0.000000%,0.000000%); stroke-width: 0.498138;stroke-linecap: round;stroke-linejoin: round;stroke-miterlimit: 10.000000;fill: none;"></path>
  <path d="M58.753586 106.687988C63.987152 100.002167,69.754898 93.752304,76.000000 88.000000" style="stroke:rgb(0.000000%,0.000000%,0.000000%); stroke-width: 1.494400;stroke-linecap: round;stroke-linejoin: round;stroke-miterlimit: 10.000000;fill: none;"></path>
  <path d="M80.104538 177.527481C65.926483 188.454590,45.955673 185.772461,31.963120 173.953751C18.880569 162.903671,13.193695 144.832657,22.551987 131.513046C31.221405 119.173920,49.503372 118.505035,58.753586 106.687988" style="stroke:rgb(0.000000%,0.000000%,0.000000%); stroke-width: 1.494400;stroke-linecap: round;stroke-linejoin: round;stroke-miterlimit: 10.000000;fill: none;"></path>
  <path d="M78.988739 88.000000C78.988739 87.207306,78.673798 86.447159,78.113312 85.886688C77.552841 85.326202,76.792694 85.011261,76.000000 85.011261C75.207306 85.011261,74.447159 85.326202,73.886688 85.886688C73.326202 86.447159,73.011261 87.207306,73.011261 88.000000C73.011261 88.792694,73.326202 89.552841,73.886688 90.113312C74.447159 90.673798,75.207306 90.988739,76.000000 90.988739C76.792694 90.988739,77.552841 90.673798,78.113312 90.113312C78.673798 89.552841,78.988739 88.792694,78.988739 88.000000Z" style="fill: rgb(100.000000%,100.000000%,100.000000%);stroke: none;"></path>
  <path d="M69.608521 85.522705C71.523575 86.593384,73.828354 87.299515,76.000000 88.000000C79.591660 89.158539,83.061798 90.697876,86.567230 92.097778" style="stroke:rgb(0.000000%,0.000000%,0.000000%); stroke-width: 0.498138;stroke-linecap: round;stroke-linejoin: round;stroke-miterlimit: 10.000000;fill: none;"></path>
  <path d="M70.394119 72.008057C70.394119 71.215363,70.079178 70.455215,69.518692 69.894745C68.958221 69.334259,68.198074 69.019318,67.405380 69.019318C66.612686 69.019318,65.852539 69.334259,65.292068 69.894745C64.731583 70.455215,64.416641 71.215363,64.416641 72.008057C64.416641 72.800751,64.731583 73.560898,65.292068 74.121368C65.852539 74.681854,66.612686 74.996796,67.405380 74.996796C68.198074 74.996796,68.958221 74.681854,69.518692 74.121368C70.079178 73.560898,70.394119 72.800751,70.394119 72.008057Z" style="fill: rgb(100.000000%,100.000000%,100.000000%);stroke: none;"></path>
  <path d="M69.741608 73.086456C68.942459 72.814514,68.164017 72.403778,67.405380 72.008057C65.116547 70.814148,62.766449 69.740814,60.430862 68.640869" style="stroke:rgb(0.000000%,0.000000%,0.000000%); stroke-width: 0.498138;stroke-linecap: round;stroke-linejoin: round;stroke-miterlimit: 10.000000;fill: none;"></path>
  <path d="M125.276733 92.735550C125.276733 91.942856,124.961792 91.182709,124.401306 90.622238C123.840836 90.061752,123.080688 89.746811,122.287994 89.746811C121.495300 89.746811,120.735153 90.061752,120.174683 90.622238C119.614197 91.182709,119.299255 91.942856,119.299255 92.735550C119.299255 93.528244,119.614197 94.288391,120.174683 94.848862C120.735153 95.409348,121.495300 95.724289,122.287994 95.724289C123.080688 95.724289,123.840836 95.409348,124.401306 94.848862C124.961792 94.288391,125.276733 93.528244,125.276733 92.735550Z" style="fill: rgb(100.000000%,100.000000%,100.000000%);stroke: none;"></path>
  <path d="M109.865921 95.267670C114.029861 94.682663,118.177536 93.690826,122.287994 92.735550C126.106949 91.848007,129.933319 90.991302,133.754013 90.111343" style="stroke:rgb(0.000000%,0.000000%,0.000000%); stroke-width: 0.498138;stroke-linecap: round;stroke-linejoin: round;stroke-miterlimit: 10.000000;fill: none;"></path>
  <path d="M119.696365 16.050491C119.696365 15.257797,119.381424 14.497650,118.820938 13.937180C118.260468 13.376694,117.500320 13.061752,116.707626 13.061752C115.914932 13.061752,115.154785 13.376694,114.594315 13.937180C114.033829 14.497650,113.718887 15.257797,113.718887 16.050491C113.718887 16.843185,114.033829 17.603333,114.594315 18.163803C115.154785 18.724289,115.914932 19.039230,116.707626 19.039230C117.500320 19.039230,118.260468 18.724289,118.820938 18.163803C119.381424 17.603333,119.696365 16.843185,119.696365 16.050491Z" style="fill: rgb(100.000000%,100.000000%,100.000000%);stroke: none;"></path>
  <path d="M95.486267 4.919876C103.903366 5.817825,111.465622 9.117050,116.707626 16.050491C119.555374 19.817139,121.130081 24.159241,121.964340 28.739914" style="stroke:rgb(0.000000%,0.000000%,0.000000%); stroke-width: 0.498138;stroke-linecap: round;stroke-linejoin: round;stroke-miterlimit: 10.000000;fill: none;"></path>
  <path d="M78.988739 70.722305C78.988739 69.929611,78.673798 69.169464,78.113312 68.608994C77.552841 68.048508,76.792694 67.733566,76.000000 67.733566C75.207306 67.733566,74.447159 68.048508,73.886688 68.608994C73.326202 69.169464,73.011261 69.929611,73.011261 70.722305C73.011261 71.514999,73.326202 72.275146,73.886688 72.835617C74.447159 73.396103,75.207306 73.711044,76.000000 73.711044C76.792694 73.711044,77.552841 73.396103,78.113312 72.835617C78.673798 72.275146,78.988739 71.514999,78.988739 70.722305Z" style="fill: rgb(100.000000%,100.000000%,100.000000%);stroke: none;"></path>
  <path d="M79.333084 74.019989C78.293106 72.884964,77.060760 71.851120,76.000000 70.722305C75.284348 69.960739,74.555984 69.124924,73.752197 68.519257" style="stroke:rgb(0.000000%,0.000000%,0.000000%); stroke-width: 0.498138;stroke-linecap: round;stroke-linejoin: round;stroke-miterlimit: 10.000000;fill: none;"></path>
  <path d="M39.561295 40.354919C39.561295 39.562225,39.246353 38.802078,38.685867 38.241608C38.125397 37.681122,37.365250 37.366180,36.572556 37.366180C35.779861 37.366180,35.019714 37.681122,34.459244 38.241608C33.898758 38.802078,33.583817 39.562225,33.583817 40.354919C33.583817 41.147614,33.898758 41.907761,34.459244 42.468231C35.019714 43.028717,35.779861 43.343658,36.572556 43.343658C37.365250 43.343658,38.125397 43.028717,38.685867 42.468231C39.246353 41.907761,39.561295 41.147614,39.561295 40.354919Z" style="fill: rgb(100.000000%,100.000000%,100.000000%);stroke: none;"></path>
  <path d="M15.895691 55.504715C20.831238 48.034637,27.598511 42.393982,36.572556 40.354919C42.270691 39.060196,47.936554 39.620056,53.572861 40.914917" style="stroke:rgb(0.000000%,0.000000%,0.000000%); stroke-width: 0.498138;stroke-linecap: round;stroke-linejoin: round;stroke-miterlimit: 10.000000;fill: none;"></path>
  <path d="M124.200195 59.161865C124.200195 58.369171,123.885254 57.609024,123.324768 57.048553C122.764297 56.488068,122.004150 56.173126,121.211456 56.173126C120.418762 56.173126,119.658615 56.488068,119.098145 57.048553C118.537659 57.609024,118.222717 58.369171,118.222717 59.161865C118.222717 59.954559,118.537659 60.714706,119.098145 61.275177C119.658615 61.835663,120.418762 62.150604,121.211456 62.150604C122.004150 62.150604,122.764297 61.835663,123.324768 61.275177C123.885254 60.714706,124.200195 59.954559,124.200195 59.161865Z" style="fill: rgb(100.000000%,100.000000%,100.000000%);stroke: none;"></path>
  <path d="M122.349030 51.050186C122.108368 53.771698,121.749664 56.480240,121.211456 59.161865C120.671646 61.851395,119.951660 64.517883,119.377502 67.199036" style="stroke:rgb(0.000000%,0.000000%,0.000000%); stroke-width: 0.498138;stroke-linecap: round;stroke-linejoin: round;stroke-miterlimit: 10.000000;fill: none;"></path>
  <path d="M153.473495 151.097656C153.473495 150.304962,153.158554 149.544815,152.598068 148.984344C152.037598 148.423859,151.277451 148.108917,150.484756 148.108917C149.692062 148.108917,148.931915 148.423859,148.371445 148.984344C147.810959 149.544815,147.496017 150.304962,147.496017 151.097656C147.496017 151.890350,147.810959 152.650497,148.371445 153.210968C148.931915 153.771454,149.692062 154.086395,150.484756 154.086395C151.277451 154.086395,152.037598 153.771454,152.598068 153.210968C153.158554 152.650497,153.473495 151.890350,153.473495 151.097656Z" style="fill: rgb(100.000000%,100.000000%,100.000000%);stroke: none;"></path>
  <path d="M172.642868 138.176468C166.930161 144.969528,159.540039 149.809998,150.484756 151.097656C143.186096 152.135529,135.769257 150.380127,128.453995 149.111404" style="stroke:rgb(0.000000%,0.000000%,0.000000%); stroke-width: 0.498138;stroke-linecap: round;stroke-linejoin: round;stroke-miterlimit: 10.000000;fill: none;"></path>
  <path d="M25.540726 131.513046C25.540726 130.720352,25.225784 129.960205,24.665298 129.399734C24.104828 128.839249,23.344681 128.524307,22.551987 128.524307C21.759293 128.524307,20.999146 128.839249,20.438675 129.399734C19.878189 129.960205,19.563248 130.720352,19.563248 131.513046C19.563248 132.305740,19.878189 133.065887,20.438675 133.626358C20.999146 134.186844,21.759293 134.501785,22.551987 134.501785C23.344681 134.501785,24.104828 134.186844,24.665298 133.626358C25.225784 133.065887,25.540726 132.305740,25.540726 131.513046Z" style="fill: rgb(100.000000%,100.000000%,100.000000%);stroke: none;"></path>
  <path d="M18.842224 153.584473C16.954987 146.020508,17.872849 138.172852,22.551987 131.513046C26.886703 125.343475,33.624557 122.091476,40.434998 118.904724" style="stroke:rgb(0.000000%,0.000000%,0.000000%); stroke-width: 1.494400;stroke-linecap: round;stroke-linejoin: round;stroke-miterlimit: 10.000000;fill: none;"></path>
  <path d="M91.769577 51.391144C91.769577 50.598450,91.454636 49.838303,90.894150 49.277832C90.333679 48.717346,89.573532 48.402405,88.780838 48.402405C87.988144 48.402405,87.227997 48.717346,86.667526 49.277832C86.107040 49.838303,85.792099 50.598450,85.792099 51.391144C85.792099 52.183838,86.107040 52.943985,86.667526 53.504456C87.227997 54.064941,87.988144 54.379883,88.780838 54.379883C89.573532 54.379883,90.333679 54.064941,90.894150 53.504456C91.454636 52.943985,91.769577 52.183838,91.769577 51.391144Z" style="fill: rgb(100.000000%,100.000000%,100.000000%);stroke: none;"></path>
  <path d="M92.262558 44.040573C90.972458 46.427643,89.788040 48.868301,88.780838 51.391144C87.988312 53.376221,87.302032 55.417358,86.502441 57.397797" style="stroke:rgb(0.000000%,0.000000%,0.000000%); stroke-width: 0.498138;stroke-linecap: round;stroke-linejoin: round;stroke-miterlimit: 10.000000;fill: none;"></path>
  <path d="M177.569107 68.949585C177.569107 68.156891,177.254166 67.396744,176.693680 66.836273C176.133209 66.275787,175.373062 65.960846,174.580368 65.960846C173.787674 65.960846,173.027527 66.275787,172.467056 66.836273C171.906570 67.396744,171.591629 68.156891,171.591629 68.949585C171.591629 69.742279,171.906570 70.502426,172.467056 71.062897C173.027527 71.623383,173.787674 71.938324,174.580368 71.938324C175.373062 71.938324,176.133209 71.623383,176.693680 71.062897C177.254166 70.502426,177.569107 69.742279,177.569107 68.949585Z" style="fill: rgb(100.000000%,100.000000%,100.000000%);stroke: none;"></path>
  <path d="M158.783829 62.722427C164.493500 63.679489,169.915085 65.404388,174.580368 68.949585C181.125626 73.923370,184.720490 80.975662,186.151123 88.832138" style="stroke:rgb(0.000000%,0.000000%,0.000000%); stroke-width: 0.498138;stroke-linecap: round;stroke-linejoin: round;stroke-miterlimit: 10.000000;fill: none;"></path>
  <path d="M83.093277 177.527481C83.093277 176.734787,82.778336 175.974640,82.217850 175.414169C81.657379 174.853683,80.897232 174.538742,80.104538 174.538742C79.311844 174.538742,78.551697 174.853683,77.991226 175.414169C77.430740 175.974640,77.115799 176.734787,77.115799 177.527481C77.115799 178.320175,77.430740 179.080322,77.991226 179.640793C78.551697 180.201279,79.311844 180.516220,80.104538 180.516220C80.897232 180.516220,81.657379 180.201279,82.217850 179.640793C82.778336 179.080322,83.093277 178.320175,83.093277 177.527481Z" style="fill: rgb(100.000000%,100.000000%,100.000000%);stroke: none;"></path>
  <path d="M100.511017 190.062500C92.307129 188.688110,84.966568 184.668182,80.104538 177.527481C76.591217 172.367584,75.155792 166.128021,73.453552 160.086060" style="stroke:rgb(0.000000%,0.000000%,0.000000%); stroke-width: 0.498138;stroke-linecap: round;stroke-linejoin: round;stroke-miterlimit: 10.000000;fill: none;"></path>
  <path d="M58.753586 106.687988C62.940460 101.339310,67.469208 96.269653,72.310730 91.510544" style="stroke:rgb(0.000000%,0.000000%,0.000000%); stroke-width: 0.498138;stroke-linecap: round;stroke-linejoin: round;stroke-miterlimit: 10.000000;fill: none;"></path>
  <path d="M70.431396 96.143890C71.033096 94.589767,71.659622 93.045105,72.310730 91.510544C70.765213 92.135223,69.229965 92.784409,67.705536 93.457825Z" style="stroke:rgb(0.000000%,0.000000%,0.000000%); stroke-width: 0.498138;fill: rgb(0.000000%,0.000000%,0.000000%);"></path>
  <path d="M58.753586 106.687988C62.940460 101.339310,67.469208 96.269653,72.310730 91.510544" style="stroke:rgb(0.000000%,0.000000%,0.000000%); stroke-width: 0.498138;stroke-linecap: round;stroke-linejoin: round;stroke-miterlimit: 10.000000;fill: none;"></path>
  <path d="M71.165344 94.283447C71.538269 93.355606,71.920074 92.431259,72.310730 91.510544C71.383453 91.885330,70.459839 92.268967,69.540070 92.661346Z" style="stroke:rgb(0.000000%,0.000000%,0.000000%); stroke-width: 0.498138;fill: rgb(0.000000%,0.000000%,0.000000%);"></path>
  <path d="M71.051849 67.697098C69.464539 67.945206,68.576309 69.336746,67.889999 70.858337" style="stroke:rgb(0.000000%,0.000000%,0.000000%); stroke-width: 0.498138;stroke-linecap: round;stroke-linejoin: round;stroke-miterlimit: 10.000000;fill: none;"></path>
  <path d="M68.493149 67.919556C68.051361 68.753952,67.922913 69.797485,67.889999 70.858337C68.663422 70.131500,69.492126 69.484451,70.394547 69.206848Z" style="stroke:rgb(0.000000%,0.000000%,0.000000%); stroke-width: 0.498138;fill: rgb(0.000000%,0.000000%,0.000000%);"></path>
  <path d="M97.346176 95.358871C104.027100 96.434097,110.719940 95.332794,117.338989 93.871048" style="stroke:rgb(0.000000%,0.000000%,0.000000%); stroke-width: 0.498138;stroke-linecap: round;stroke-linejoin: round;stroke-miterlimit: 10.000000;fill: none;"></path>
  <path d="M114.863205 95.565399C115.694275 95.010925,116.518890 94.444321,117.338989 93.871048C116.353729 93.696487,115.369995 93.514038,114.390274 93.318451Z" style="stroke:rgb(0.000000%,0.000000%,0.000000%); stroke-width: 0.498138;fill: rgb(0.000000%,0.000000%,0.000000%);"></path>
  <path d="M83.544174 63.040237C81.867889 65.384613,79.679520 67.272675,77.563904 69.231598" style="stroke:rgb(0.000000%,0.000000%,0.000000%); stroke-width: 0.498138;stroke-linecap: round;stroke-linejoin: round;stroke-miterlimit: 10.000000;fill: none;"></path>
  <path d="M78.821121 66.507736C78.411346 67.418488,77.981949 68.322784,77.563904 69.231598C78.502151 68.884583,79.445221 68.548798,80.378983 68.194565Z" style="stroke:rgb(0.000000%,0.000000%,0.000000%); stroke-width: 0.498138;fill: rgb(0.000000%,0.000000%,0.000000%);"></path>
  <path d="M72.202103 73.332062C70.855759 73.587250,69.564713 73.093292,68.325302 72.480270" style="stroke:rgb(0.000000%,0.000000%,0.000000%); stroke-width: 0.498138;stroke-linecap: round;stroke-linejoin: round;stroke-miterlimit: 10.000000;fill: none;"></path>
  <path d="M71.314697 72.228439C70.382629 72.545395,69.353378 72.548859,68.325302 72.480270C69.003738 73.255737,69.733978 73.981094,70.617157 74.416061Z" style="stroke:rgb(0.000000%,0.000000%,0.000000%); stroke-width: 0.498138;fill: rgb(0.000000%,0.000000%,0.000000%);"></path>
  <path d="M122.778351 42.860672C122.672684 47.234314,122.422180 51.610428,121.775070 55.931931" style="stroke:rgb(0.000000%,0.000000%,0.000000%); stroke-width: 0.498138;stroke-linecap: round;stroke-linejoin: round;stroke-miterlimit: 10.000000;fill: none;"></path>
  <path d="M120.992188 53.035843C121.271408 53.996246,121.533386 54.961426,121.775070 55.931931C122.290436 55.074799,122.787704 54.207062,123.269379 53.330521Z" style="stroke:rgb(0.000000%,0.000000%,0.000000%); stroke-width: 0.498138;fill: rgb(0.000000%,0.000000%,0.000000%);"></path>
  <path d="M65.201691 143.830246C56.224716 135.266907,42.875671 137.025940,31.046600 134.468811" style="stroke:rgb(0.000000%,0.000000%,0.000000%); stroke-width: 0.498138;stroke-linecap: round;stroke-linejoin: round;stroke-miterlimit: 10.000000;fill: none;"></path>
  <path d="M33.982300 133.850189C33.005356 134.081497,32.026825 134.290634,31.046600 134.468811C31.865692 135.035965,32.705490 135.580002,33.559845 136.107269Z" style="stroke:rgb(0.000000%,0.000000%,0.000000%); stroke-width: 0.498138;fill: rgb(0.000000%,0.000000%,0.000000%);"></path>
  <path d="M70.395721 45.884888C75.308029 47.333328,80.314270 48.484131,85.170593 50.089844" style="stroke:rgb(0.000000%,0.000000%,0.000000%); stroke-width: 0.498138;stroke-linecap: round;stroke-linejoin: round;stroke-miterlimit: 10.000000;fill: none;"></path>
  <path d="M82.182693 50.358612C83.177612 50.254684,84.173431 50.163147,85.170593 50.089844C84.413666 49.436554,83.644806 48.797134,82.867813 48.167084Z" style="stroke:rgb(0.000000%,0.000000%,0.000000%); stroke-width: 0.498138;fill: rgb(0.000000%,0.000000%,0.000000%);"></path>
  <path d="M107.032669 150.045227C97.351425 154.237411,92.521805 164.227493,85.700638 172.122482" style="stroke:rgb(0.000000%,0.000000%,0.000000%); stroke-width: 0.498138;stroke-linecap: round;stroke-linejoin: round;stroke-miterlimit: 10.000000;fill: none;"></path>
  <path d="M86.577316 169.253479C86.303787 170.217804,86.014282 171.175507,85.700638 172.122482C86.592041 171.674683,87.473953 171.202209,88.349258 170.713745Z" style="stroke:rgb(0.000000%,0.000000%,0.000000%); stroke-width: 0.498138;fill: rgb(0.000000%,0.000000%,0.000000%);"></path>
  <path d="M28.972473 176.663956L34.953766 176.663956L34.953766 169.243561L28.972473 169.243561Z" style="fill: rgb(100.000000%,100.000000%,100.000000%);stroke: none;"></path>
  <path d="M28.972473 178.663956L34.953766 178.663956L34.953766 171.243561L28.972473 171.243561Z" style="fill: rgb(100.000000%,100.000000%,100.000000%);stroke: none;"></path>
  <g transform="translate(29.472473 177.163956)" style="fill: rgb(0.000000%,0.000000%,0.000000%);">
    <use xlink:href="#GLYPHcmr10_49"></use>
  </g>
  <path d="M78.521393 80.634964L84.502686 80.634964L84.502686 73.214569L78.521393 73.214569Z" style="fill: rgb(100.000000%,100.000000%,100.000000%);stroke: none;"></path>
  <path d="M78.521393 82.634964L84.502686 82.634964L84.502686 75.214569L78.521393 75.214569Z" style="fill: rgb(100.000000%,100.000000%,100.000000%);stroke: none;"></path>
  <g transform="translate(79.021393 81.134964)" style="fill: rgb(0.000000%,0.000000%,0.000000%);">
    <use xlink:href="#GLYPHcmr10_50"></use>
  </g>
  <path d="M142.195282 90.057861L148.176575 90.057861L148.176575 82.637466L142.195282 82.637466Z" style="fill: rgb(100.000000%,100.000000%,100.000000%);stroke: none;"></path>
  <path d="M142.195282 92.057861L148.176575 92.057861L148.176575 84.637466L142.195282 84.637466Z" style="fill: rgb(100.000000%,100.000000%,100.000000%);stroke: none;"></path>
  <g transform="translate(142.695282 90.557861)" style="fill: rgb(0.000000%,0.000000%,0.000000%);">
    <use xlink:href="#GLYPHcmr10_51"></use>
  </g>
  <path d="M159.476364 30.989822L165.457657 30.989822L165.457657 23.569427L159.476364 23.569427Z" style="fill: rgb(100.000000%,100.000000%,100.000000%);stroke: none;"></path>
  <path d="M159.476364 32.989822L165.457657 32.989822L165.457657 25.569427L159.476364 25.569427Z" style="fill: rgb(100.000000%,100.000000%,100.000000%);stroke: none;"></path>
  <g transform="translate(159.976364 31.489822)" style="fill: rgb(0.000000%,0.000000%,0.000000%);">
    <use xlink:href="#GLYPHcmr10_52"></use>
  </g>
  <path d="M93.387772 39.721725L99.369064 39.721725L99.369064 32.301331L93.387772 32.301331Z" style="fill: rgb(100.000000%,100.000000%,100.000000%);stroke: none;"></path>
  <path d="M93.387772 41.721725L99.369064 41.721725L99.369064 34.301331L93.387772 34.301331Z" style="fill: rgb(100.000000%,100.000000%,100.000000%);stroke: none;"></path>
  <g transform="translate(93.887772 40.221725)" style="fill: rgb(0.000000%,0.000000%,0.000000%);">
    <use xlink:href="#GLYPHcmr10_53"></use>
  </g>
  <path d="M50.552765 67.824234L56.534058 67.824234L56.534058 60.403839L50.552765 60.403839Z" style="fill: rgb(100.000000%,100.000000%,100.000000%);stroke: none;"></path>
  <path d="M50.552765 69.824234L56.534058 69.824234L56.534058 62.403839L50.552765 62.403839Z" style="fill: rgb(100.000000%,100.000000%,100.000000%);stroke: none;"></path>
  <g transform="translate(51.052765 68.324234)" style="fill: rgb(0.000000%,0.000000%,0.000000%);">
    <use xlink:href="#GLYPHcmr10_54"></use>
  </g>
  <path d="M66.145218 10.907089L72.126511 10.907089L72.126511 3.486694L66.145218 3.486694Z" style="fill: rgb(100.000000%,100.000000%,100.000000%);stroke: none;"></path>
  <path d="M66.145218 12.907089L72.126511 12.907089L72.126511 5.486694L66.145218 5.486694Z" style="fill: rgb(100.000000%,100.000000%,100.000000%);stroke: none;"></path>
  <g transform="translate(66.645218 11.407089)" style="fill: rgb(0.000000%,0.000000%,0.000000%);">
    <use xlink:href="#GLYPHcmr10_55"></use>
  </g>
  <path d="M125.538040 120.316055L131.519333 120.316055L131.519333 112.895660L125.538040 112.895660Z" style="fill: rgb(100.000000%,100.000000%,100.000000%);stroke: none;"></path>
  <path d="M125.538040 122.316055L131.519333 122.316055L131.519333 114.895660L125.538040 114.895660Z" style="fill: rgb(100.000000%,100.000000%,100.000000%);stroke: none;"></path>
  <g transform="translate(126.038040 120.816055)" style="fill: rgb(0.000000%,0.000000%,0.000000%);">
    <use xlink:href="#GLYPHcmr10_56"></use>
  </g>
  <path d="M123.106796 189.434433L129.088089 189.434433L129.088089 182.014038L123.106796 182.014038Z" style="fill: rgb(100.000000%,100.000000%,100.000000%);stroke: none;"></path>
  <path d="M123.106796 191.434433L129.088089 191.434433L129.088089 184.014038L123.106796 184.014038Z" style="fill: rgb(100.000000%,100.000000%,100.000000%);stroke: none;"></path>
  <g transform="translate(123.606796 189.934433)" style="fill: rgb(0.000000%,0.000000%,0.000000%);">
    <use xlink:href="#GLYPHcmr10_57"></use>
  </g>
  <path d="M0.727798 84.341202L11.690506 84.341202L11.690506 76.920807L0.727798 76.920807Z" style="fill: rgb(100.000000%,100.000000%,100.000000%);stroke: none;"></path>
  <path d="M0.727798 86.341202L11.690506 86.341202L11.690506 78.920807L0.727798 78.920807Z" style="fill: rgb(100.000000%,100.000000%,100.000000%);stroke: none;"></path>
  <g transform="translate(1.227798 84.841202)" style="fill: rgb(0.000000%,0.000000%,0.000000%);">
    <use xlink:href="#GLYPHcmr10_49"></use>
    <use xlink:href="#GLYPHcmr10_48" x="5.000095"></use>
  </g>
  <path d="M98.500214 60.212311L109.462921 60.212311L109.462921 52.791916L98.500214 52.791916Z" style="fill: rgb(100.000000%,100.000000%,100.000000%);stroke: none;"></path>
  <path d="M98.500214 62.212311L109.462921 62.212311L109.462921 54.791916L98.500214 54.791916Z" style="fill: rgb(100.000000%,100.000000%,100.000000%);stroke: none;"></path>
  <g transform="translate(99.000214 60.712311)" style="fill: rgb(0.000000%,0.000000%,0.000000%);">
    <use xlink:href="#GLYPHcmr10_49"></use>
    <use xlink:href="#GLYPHcmr10_49" x="5.000095"></use>
  </g>
  <path d="M179.255142 116.249969L190.217850 116.249969L190.217850 108.829575L179.255142 108.829575Z" style="fill: rgb(100.000000%,100.000000%,100.000000%);stroke: none;"></path>
  <path d="M179.255142 118.249969L190.217850 118.249969L190.217850 110.829575L179.255142 110.829575Z" style="fill: rgb(100.000000%,100.000000%,100.000000%);stroke: none;"></path>
  <g transform="translate(179.755142 116.749969)" style="fill: rgb(0.000000%,0.000000%,0.000000%);">
    <use xlink:href="#GLYPHcmr10_49"></use>
    <use xlink:href="#GLYPHcmr10_50" x="5.000095"></use>
  </g>
</svg>
