<?xml version="1.0"?>
<!-- Created by MetaPost 1.999 on 2021.07.06:0009 -->
<svg version="1.1" xmlns="http://www.w3.org/2000/svg" xmlns:xlink="http://www.w3.org/1999/xlink" width="194.244995" height="203.503723" viewBox="0 0 194.244995 203.503723">
<!-- Original BoundingBox: -58.139374 -40.416061 136.105621 163.087662 -->
  <defs>
    <g transform="scale(0.009963,0.009963)" id="GLYPHcmr10_48">
      <path style="fill-rule: evenodd;" d="M460.000000 -320.000000C460.000000 -400.000000,455.000000 -480.000000,420.000000 -554.000000C374.000000 -650.000000,292.000000 -666.000000,250.000000 -666.000000C190.000000 -666.000000,117.000000 -640.000000,76.000000 -547.000000C44.000000 -478.000000,39.000000 -400.000000,39.000000 -320.000000C39.000000 -245.000000,43.000000 -155.000000,84.000000 -79.000000C127.000000 2.000000,200.000000 22.000000,249.000000 22.000000C303.000000 22.000000,379.000000 1.000000,423.000000 -94.000000C455.000000 -163.000000,460.000000 -241.000000,460.000000 -320.000000M249.000000 -0.000000C210.000000 -0.000000,151.000000 -25.000000,133.000000 -121.000000C122.000000 -181.000000,122.000000 -273.000000,122.000000 -332.000000C122.000000 -396.000000,122.000000 -462.000000,130.000000 -516.000000C149.000000 -635.000000,224.000000 -644.000000,249.000000 -644.000000C282.000000 -644.000000,348.000000 -626.000000,367.000000 -527.000000C377.000000 -471.000000,377.000000 -395.000000,377.000000 -332.000000C377.000000 -257.000000,377.000000 -189.000000,366.000000 -125.000000C351.000000 -30.000000,294.000000 -0.000000,249.000000 -0.000000"></path>
    </g>
    <g transform="scale(0.009963,0.009963)" id="GLYPHcmr10_49">
      <path style="fill-rule: evenodd;" d="M294.000000 -640.000000C294.000000 -664.000000,294.000000 -666.000000,271.000000 -666.000000C209.000000 -602.000000,121.000000 -602.000000,89.000000 -602.000000L89.000000 -571.000000C109.000000 -571.000000,168.000000 -571.000000,220.000000 -597.000000L220.000000 -79.000000C220.000000 -43.000000,217.000000 -31.000000,127.000000 -31.000000L95.000000 -31.000000L95.000000 -0.000000L257.000000 -0.000000L130.000000 -3.000000L217.000000 -3.000000L257.000000 -3.000000L297.000000 -3.000000L384.000000 -3.000000L419.000000 -0.000000L419.000000 -31.000000L387.000000 -31.000000C297.000000 -31.000000,294.000000 -42.000000,294.000000 -79.000000"></path>
    </g>
    <g transform="scale(0.009963,0.009963)" id="GLYPHcmr10_50">
      <path style="fill-rule: evenodd;" d="M127.000000 -77.000000L233.000000 -180.000000C389.000000 -318.000000,449.000000 -372.000000,449.000000 -472.000000C449.000000 -586.000000,359.000000 -666.000000,237.000000 -666.000000C124.000000 -666.000000,50.000000 -574.000000,50.000000 -485.000000C50.000000 -429.000000,100.000000 -429.000000,103.000000 -429.000000C120.000000 -429.000000,155.000000 -441.000000,155.000000 -482.000000C155.000000 -508.000000,137.000000 -534.000000,102.000000 -534.000000C94.000000 -534.000000,92.000000 -534.000000,89.000000 -533.000000C112.000000 -598.000000,166.000000 -635.000000,224.000000 -635.000000C315.000000 -635.000000,358.000000 -554.000000,358.000000 -472.000000C358.000000 -392.000000,308.000000 -313.000000,253.000000 -251.000000L61.000000 -37.000000C50.000000 -26.000000,50.000000 -24.000000,50.000000 -0.000000L421.000000 -0.000000L449.000000 -174.000000L424.000000 -174.000000C419.000000 -144.000000,412.000000 -100.000000,402.000000 -85.000000C395.000000 -77.000000,329.000000 -77.000000,307.000000 -77.000000"></path>
    </g>
    <g transform="scale(0.009963,0.009963)" id="GLYPHcmr10_51">
      <path style="fill-rule: evenodd;" d="M290.000000 -352.000000C372.000000 -379.000000,430.000000 -449.000000,430.000000 -528.000000C430.000000 -610.000000,342.000000 -666.000000,246.000000 -666.000000C145.000000 -666.000000,69.000000 -606.000000,69.000000 -530.000000C69.000000 -497.000000,91.000000 -478.000000,120.000000 -478.000000C151.000000 -478.000000,171.000000 -500.000000,171.000000 -529.000000C171.000000 -579.000000,124.000000 -579.000000,109.000000 -579.000000C140.000000 -628.000000,206.000000 -641.000000,242.000000 -641.000000C283.000000 -641.000000,338.000000 -619.000000,338.000000 -529.000000C338.000000 -517.000000,336.000000 -459.000000,310.000000 -415.000000C280.000000 -367.000000,246.000000 -364.000000,221.000000 -363.000000C213.000000 -362.000000,189.000000 -360.000000,182.000000 -360.000000C174.000000 -359.000000,167.000000 -358.000000,167.000000 -348.000000C167.000000 -337.000000,174.000000 -337.000000,191.000000 -337.000000L235.000000 -337.000000C317.000000 -337.000000,354.000000 -269.000000,354.000000 -171.000000C354.000000 -35.000000,285.000000 -6.000000,241.000000 -6.000000C198.000000 -6.000000,123.000000 -23.000000,88.000000 -82.000000C123.000000 -77.000000,154.000000 -99.000000,154.000000 -137.000000C154.000000 -173.000000,127.000000 -193.000000,98.000000 -193.000000C74.000000 -193.000000,42.000000 -179.000000,42.000000 -135.000000C42.000000 -44.000000,135.000000 22.000000,244.000000 22.000000C366.000000 22.000000,457.000000 -69.000000,457.000000 -171.000000C457.000000 -253.000000,394.000000 -331.000000,290.000000 -352.000000"></path>
    </g>
    <g transform="scale(0.009963,0.009963)" id="GLYPHcmr10_52">
      <path style="fill-rule: evenodd;" d="M294.000000 -165.000000L294.000000 -78.000000C294.000000 -42.000000,292.000000 -31.000000,218.000000 -31.000000L197.000000 -31.000000L197.000000 -0.000000L332.000000 -0.000000L238.000000 -3.000000L290.000000 -3.000000L332.000000 -3.000000L374.000000 -3.000000L427.000000 -3.000000L468.000000 -0.000000L468.000000 -31.000000L447.000000 -31.000000C373.000000 -31.000000,371.000000 -42.000000,371.000000 -78.000000L371.000000 -165.000000L471.000000 -165.000000L471.000000 -196.000000L371.000000 -196.000000L371.000000 -651.000000C371.000000 -671.000000,371.000000 -677.000000,355.000000 -677.000000C346.000000 -677.000000,343.000000 -677.000000,335.000000 -665.000000L28.000000 -196.000000L28.000000 -165.000000M300.000000 -196.000000L56.000000 -196.000000L300.000000 -569.000000"></path>
    </g>
    <g transform="scale(0.009963,0.009963)" id="GLYPHcmr10_53">
      <path style="fill-rule: evenodd;" d="M449.000000 -201.000000C449.000000 -320.000000,367.000000 -420.000000,259.000000 -420.000000C211.000000 -420.000000,168.000000 -404.000000,132.000000 -369.000000L132.000000 -564.000000C152.000000 -558.000000,185.000000 -551.000000,217.000000 -551.000000C340.000000 -551.000000,410.000000 -642.000000,410.000000 -655.000000C410.000000 -661.000000,407.000000 -666.000000,400.000000 -666.000000C399.000000 -666.000000,397.000000 -666.000000,392.000000 -663.000000C372.000000 -654.000000,323.000000 -634.000000,256.000000 -634.000000C216.000000 -634.000000,170.000000 -641.000000,123.000000 -662.000000C115.000000 -665.000000,113.000000 -665.000000,111.000000 -665.000000C101.000000 -665.000000,101.000000 -657.000000,101.000000 -641.000000L101.000000 -345.000000C101.000000 -327.000000,101.000000 -319.000000,115.000000 -319.000000C122.000000 -319.000000,124.000000 -322.000000,128.000000 -328.000000C139.000000 -344.000000,176.000000 -398.000000,257.000000 -398.000000C309.000000 -398.000000,334.000000 -352.000000,342.000000 -334.000000C358.000000 -297.000000,360.000000 -258.000000,360.000000 -208.000000C360.000000 -173.000000,360.000000 -113.000000,336.000000 -71.000000C312.000000 -32.000000,275.000000 -6.000000,229.000000 -6.000000C156.000000 -6.000000,99.000000 -59.000000,82.000000 -118.000000C85.000000 -117.000000,88.000000 -116.000000,99.000000 -116.000000C132.000000 -116.000000,149.000000 -141.000000,149.000000 -165.000000C149.000000 -189.000000,132.000000 -214.000000,99.000000 -214.000000C85.000000 -214.000000,50.000000 -207.000000,50.000000 -161.000000C50.000000 -75.000000,119.000000 22.000000,231.000000 22.000000C347.000000 22.000000,449.000000 -74.000000,449.000000 -201.000000"></path>
    </g>
    <g transform="scale(0.009963,0.009963)" id="GLYPHcmr10_54">
      <path style="fill-rule: evenodd;" d="M132.000000 -328.000000L132.000000 -352.000000C132.000000 -605.000000,256.000000 -641.000000,307.000000 -641.000000C331.000000 -641.000000,373.000000 -635.000000,395.000000 -601.000000C380.000000 -601.000000,340.000000 -601.000000,340.000000 -556.000000C340.000000 -525.000000,364.000000 -510.000000,386.000000 -510.000000C402.000000 -510.000000,432.000000 -519.000000,432.000000 -558.000000C432.000000 -618.000000,388.000000 -666.000000,305.000000 -666.000000C177.000000 -666.000000,42.000000 -537.000000,42.000000 -316.000000C42.000000 -49.000000,158.000000 22.000000,251.000000 22.000000C362.000000 22.000000,457.000000 -72.000000,457.000000 -204.000000C457.000000 -331.000000,368.000000 -427.000000,257.000000 -427.000000C189.000000 -427.000000,152.000000 -376.000000,132.000000 -328.000000M251.000000 -6.000000C188.000000 -6.000000,158.000000 -66.000000,152.000000 -81.000000C134.000000 -128.000000,134.000000 -208.000000,134.000000 -226.000000C134.000000 -304.000000,166.000000 -404.000000,256.000000 -404.000000C272.000000 -404.000000,318.000000 -404.000000,349.000000 -342.000000C367.000000 -305.000000,367.000000 -254.000000,367.000000 -205.000000C367.000000 -157.000000,367.000000 -107.000000,350.000000 -71.000000C320.000000 -11.000000,274.000000 -6.000000,251.000000 -6.000000"></path>
    </g>
    <g transform="scale(0.009963,0.009963)" id="GLYPHcmr10_55">
      <path style="fill-rule: evenodd;" d="M476.000000 -609.000000C485.000000 -621.000000,485.000000 -623.000000,485.000000 -644.000000L242.000000 -644.000000C120.000000 -644.000000,118.000000 -657.000000,114.000000 -676.000000L89.000000 -676.000000L56.000000 -470.000000L81.000000 -470.000000C84.000000 -486.000000,93.000000 -549.000000,106.000000 -561.000000C113.000000 -567.000000,191.000000 -567.000000,204.000000 -567.000000L411.000000 -567.000000C400.000000 -551.000000,321.000000 -442.000000,299.000000 -409.000000C209.000000 -274.000000,176.000000 -135.000000,176.000000 -33.000000C176.000000 -23.000000,176.000000 22.000000,222.000000 22.000000C268.000000 22.000000,268.000000 -23.000000,268.000000 -33.000000L268.000000 -84.000000C268.000000 -139.000000,271.000000 -194.000000,279.000000 -248.000000C283.000000 -271.000000,297.000000 -357.000000,341.000000 -419.000000"></path>
    </g>
    <g transform="scale(0.009963,0.009963)" id="GLYPHcmr10_56">
      <path style="fill-rule: evenodd;" d="M163.000000 -457.000000C117.000000 -487.000000,113.000000 -521.000000,113.000000 -538.000000C113.000000 -599.000000,178.000000 -641.000000,249.000000 -641.000000C322.000000 -641.000000,386.000000 -589.000000,386.000000 -517.000000C386.000000 -460.000000,347.000000 -412.000000,287.000000 -377.000000M309.000000 -362.000000C381.000000 -399.000000,430.000000 -451.000000,430.000000 -517.000000C430.000000 -609.000000,341.000000 -666.000000,250.000000 -666.000000C150.000000 -666.000000,69.000000 -592.000000,69.000000 -499.000000C69.000000 -481.000000,71.000000 -436.000000,113.000000 -389.000000C124.000000 -377.000000,161.000000 -352.000000,186.000000 -335.000000C128.000000 -306.000000,42.000000 -250.000000,42.000000 -151.000000C42.000000 -45.000000,144.000000 22.000000,249.000000 22.000000C362.000000 22.000000,457.000000 -61.000000,457.000000 -168.000000C457.000000 -204.000000,446.000000 -249.000000,408.000000 -291.000000C389.000000 -312.000000,373.000000 -322.000000,309.000000 -362.000000M209.000000 -320.000000L332.000000 -242.000000C360.000000 -223.000000,407.000000 -193.000000,407.000000 -132.000000C407.000000 -58.000000,332.000000 -6.000000,250.000000 -6.000000C164.000000 -6.000000,92.000000 -68.000000,92.000000 -151.000000C92.000000 -209.000000,124.000000 -273.000000,209.000000 -320.000000"></path>
    </g>
    <g transform="scale(0.009963,0.009963)" id="GLYPHcmr10_57">
      <path style="fill-rule: evenodd;" d="M367.000000 -318.000000L367.000000 -286.000000C367.000000 -52.000000,263.000000 -6.000000,205.000000 -6.000000C188.000000 -6.000000,134.000000 -8.000000,107.000000 -42.000000C151.000000 -42.000000,159.000000 -71.000000,159.000000 -88.000000C159.000000 -119.000000,135.000000 -134.000000,113.000000 -134.000000C97.000000 -134.000000,67.000000 -125.000000,67.000000 -86.000000C67.000000 -19.000000,121.000000 22.000000,206.000000 22.000000C335.000000 22.000000,457.000000 -114.000000,457.000000 -329.000000C457.000000 -598.000000,342.000000 -666.000000,253.000000 -666.000000C198.000000 -666.000000,149.000000 -648.000000,106.000000 -603.000000C65.000000 -558.000000,42.000000 -516.000000,42.000000 -441.000000C42.000000 -316.000000,130.000000 -218.000000,242.000000 -218.000000C303.000000 -218.000000,344.000000 -260.000000,367.000000 -318.000000M243.000000 -241.000000C227.000000 -241.000000,181.000000 -241.000000,150.000000 -304.000000C132.000000 -341.000000,132.000000 -391.000000,132.000000 -440.000000C132.000000 -494.000000,132.000000 -541.000000,153.000000 -578.000000C180.000000 -628.000000,218.000000 -641.000000,253.000000 -641.000000C299.000000 -641.000000,332.000000 -607.000000,349.000000 -562.000000C361.000000 -530.000000,365.000000 -467.000000,365.000000 -421.000000C365.000000 -338.000000,331.000000 -241.000000,243.000000 -241.000000"></path>
    </g>
  </defs>
  <path d="M91.776138 200.427322C91.776138 199.634628,91.461197 198.874481,90.900711 198.314011C90.340240 197.753525,89.580093 197.438583,88.787399 197.438583C87.994705 197.438583,87.234558 197.753525,86.674088 198.314011C86.113602 198.874481,85.798660 199.634628,85.798660 200.427322C85.798660 201.220016,86.113602 201.980164,86.674088 202.540634C87.234558 203.101120,87.994705 203.416061,88.787399 203.416061C89.580093 203.416061,90.340240 203.101120,90.900711 202.540634C91.461197 201.980164,91.776138 201.220016,91.776138 200.427322Z" style="fill: rgb(100.000000%,100.000000%,100.000000%);stroke: none;"></path>
  <path d="M114.355865 190.816193C114.355865 190.023499,114.040924 189.263351,113.480438 188.702881C112.919968 188.142395,112.159821 187.827454,111.367126 187.827454C110.574432 187.827454,109.814285 188.142395,109.253815 188.702881C108.693329 189.263351,108.378387 190.023499,108.378387 190.816193C108.378387 191.608887,108.693329 192.369034,109.253815 192.929504C109.814285 193.489990,110.574432 193.804932,111.367126 193.804932C112.159821 193.804932,112.919968 193.489990,113.480438 192.929504C114.040924 192.369034,114.355865 191.608887,114.355865 190.816193Z" style="fill: rgb(100.000000%,100.000000%,100.000000%);stroke: none;"></path>
  <path d="M57.880066 148.227402C57.880066 147.434708,57.565125 146.674561,57.004639 146.114090C56.444168 145.553604,55.684021 145.238663,54.891327 145.238663C54.098633 145.238663,53.338486 145.553604,52.778015 146.114090C52.217529 146.674561,51.902588 147.434708,51.902588 148.227402C51.902588 149.020096,52.217529 149.780243,52.778015 150.340714C53.338486 150.901199,54.098633 151.216141,54.891327 151.216141C55.684021 151.216141,56.444168 150.901199,57.004639 150.340714C57.565125 149.780243,57.880066 149.020096,57.880066 148.227402Z" style="fill: rgb(100.000000%,100.000000%,100.000000%);stroke: none;"></path>
  <path d="M66.042160 187.014175C66.042160 186.221481,65.727219 185.461334,65.166733 184.900864C64.606262 184.340378,63.846115 184.025436,63.053421 184.025436C62.260727 184.025436,61.500580 184.340378,60.940109 184.900864C60.379623 185.461334,60.064682 186.221481,60.064682 187.014175C60.064682 187.806870,60.379623 188.567017,60.940109 189.127487C61.500580 189.687973,62.260727 190.002914,63.053421 190.002914C63.846115 190.002914,64.606262 189.687973,65.166733 189.127487C65.727219 188.567017,66.042160 187.806870,66.042160 187.014175Z" style="fill: rgb(100.000000%,100.000000%,100.000000%);stroke: none;"></path>
  <path d="M64.222443 109.865845C64.222443 109.073151,63.907501 108.313004,63.347015 107.752533C62.786545 107.192047,62.026398 106.877106,61.233704 106.877106C60.441010 106.877106,59.680862 107.192047,59.120392 107.752533C58.559906 108.313004,58.244965 109.073151,58.244965 109.865845C58.244965 110.658539,58.559906 111.418686,59.120392 111.979156C59.680862 112.539642,60.441010 112.854584,61.233704 112.854584C62.026398 112.854584,62.786545 112.539642,63.347015 111.979156C63.907501 111.418686,64.222443 110.658539,64.222443 109.865845Z" style="fill: rgb(100.000000%,100.000000%,100.000000%);stroke: none;"></path>
  <path d="M64.566849 133.470154C64.566849 132.677460,64.251907 131.917313,63.691422 131.356842C63.130951 130.796356,62.370804 130.481415,61.578110 130.481415C60.785416 130.481415,60.025269 130.796356,59.464798 131.356842C58.904312 131.917313,58.589371 132.677460,58.589371 133.470154C58.589371 134.262848,58.904312 135.022995,59.464798 135.583466C60.025269 136.143951,60.785416 136.458893,61.578110 136.458893C62.370804 136.458893,63.130951 136.143951,63.691422 135.583466C64.251907 135.022995,64.566849 134.262848,64.566849 133.470154Z" style="fill: rgb(100.000000%,100.000000%,100.000000%);stroke: none;"></path>
  <path d="M60.317749 86.053604C60.317749 85.260910,60.002808 84.500763,59.442322 83.940292C58.881851 83.379807,58.121704 83.064865,57.329010 83.064865C56.536316 83.064865,55.776169 83.379807,55.215698 83.940292C54.655212 84.500763,54.340271 85.260910,54.340271 86.053604C54.340271 86.846298,54.655212 87.606445,55.215698 88.166916C55.776169 88.727402,56.536316 89.042343,57.329010 89.042343C58.121704 89.042343,58.881851 88.727402,59.442322 88.166916C60.002808 87.606445,60.317749 86.846298,60.317749 86.053604Z" style="fill: rgb(100.000000%,100.000000%,100.000000%);stroke: none;"></path>
  <path d="M61.821121 101.497360C61.821121 100.704666,61.506180 99.944519,60.945694 99.384048C60.385223 98.823563,59.625076 98.508621,58.832382 98.508621C58.039688 98.508621,57.279541 98.823563,56.719070 99.384048C56.158585 99.944519,55.843643 100.704666,55.843643 101.497360C55.843643 102.290054,56.158585 103.050201,56.719070 103.610672C57.279541 104.171158,58.039688 104.486099,58.832382 104.486099C59.625076 104.486099,60.385223 104.171158,60.945694 103.610672C61.506180 103.050201,61.821121 102.290054,61.821121 101.497360Z" style="fill: rgb(100.000000%,100.000000%,100.000000%);stroke: none;"></path>
  <path d="M48.691483 63.566513C48.691483 62.773819,48.376541 62.013672,47.816055 61.453201C47.255585 60.892715,46.495438 60.577774,45.702744 60.577774C44.910049 60.577774,44.149902 60.892715,43.589432 61.453201C43.028946 62.013672,42.714005 62.773819,42.714005 63.566513C42.714005 64.359207,43.028946 65.119354,43.589432 65.679825C44.149902 66.240311,44.910049 66.555252,45.702744 66.555252C46.495438 66.555252,47.255585 66.240311,47.816055 65.679825C48.376541 65.119354,48.691483 64.359207,48.691483 63.566513Z" style="fill: rgb(100.000000%,100.000000%,100.000000%);stroke: none;"></path>
  <path d="M60.496841 78.691650C60.496841 77.898956,60.181900 77.138809,59.621414 76.578339C59.060944 76.017853,58.300797 75.702911,57.508102 75.702911C56.715408 75.702911,55.955261 76.017853,55.394791 76.578339C54.834305 77.138809,54.519363 77.898956,54.519363 78.691650C54.519363 79.484344,54.834305 80.244492,55.394791 80.804962C55.955261 81.365448,56.715408 81.680389,57.508102 81.680389C58.300797 81.680389,59.060944 81.365448,59.621414 80.804962C60.181900 80.244492,60.496841 79.484344,60.496841 78.691650Z" style="fill: rgb(100.000000%,100.000000%,100.000000%);stroke: none;"></path>
  <path d="M8.047501 86.468643C8.047501 85.675949,7.732559 84.915802,7.172073 84.355331C6.611603 83.794846,5.851456 83.479904,5.058762 83.479904C4.266068 83.479904,3.505920 83.794846,2.945450 84.355331C2.384964 84.915802,2.070023 85.675949,2.070023 86.468643C2.070023 87.261337,2.384964 88.021484,2.945450 88.581955C3.505920 89.142441,4.266068 89.457382,5.058762 89.457382C5.851456 89.457382,6.611603 89.142441,7.172073 88.581955C7.732559 88.021484,8.047501 87.261337,8.047501 86.468643Z" style="fill: rgb(100.000000%,100.000000%,100.000000%);stroke: none;"></path>
  <path d="M34.085144 64.852753C34.085144 64.060059,33.770203 63.299911,33.209717 62.739441C32.649246 62.178955,31.889099 61.864014,31.096405 61.864014C30.303711 61.864014,29.543564 62.178955,28.983093 62.739441C28.422607 63.299911,28.107666 64.060059,28.107666 64.852753C28.107666 65.645447,28.422607 66.405594,28.983093 66.966064C29.543564 67.526550,30.303711 67.841492,31.096405 67.841492C31.889099 67.841492,32.649246 67.526550,33.209717 66.966064C33.770203 66.405594,34.085144 65.645447,34.085144 64.852753Z" style="fill: rgb(100.000000%,100.000000%,100.000000%);stroke: none;"></path>
  <path d="M20.591690 150.940430C20.591690 150.147736,20.276749 149.387589,19.716263 148.827118C19.155792 148.266632,18.395645 147.951691,17.602951 147.951691C16.810257 147.951691,16.050110 148.266632,15.489639 148.827118C14.929153 149.387589,14.614212 150.147736,14.614212 150.940430C14.614212 151.733124,14.929153 152.493271,15.489639 153.053741C16.050110 153.614227,16.810257 153.929169,17.602951 153.929169C18.395645 153.929169,19.155792 153.614227,19.716263 153.053741C20.276749 152.493271,20.591690 151.733124,20.591690 150.940430Z" style="fill: rgb(100.000000%,100.000000%,100.000000%);stroke: none;"></path>
  <path d="M5.838104 109.233505C5.838104 108.440811,5.523163 107.680664,4.962677 107.120193C4.402206 106.559708,3.642059 106.244766,2.849365 106.244766C2.056671 106.244766,1.296524 106.559708,0.736053 107.120193C0.175568 107.680664,-0.139374 108.440811,-0.139374 109.233505C-0.139374 110.026199,0.175568 110.786346,0.736053 111.346817C1.296524 111.907303,2.056671 112.222244,2.849365 112.222244C3.642059 112.222244,4.402206 111.907303,4.962677 111.346817C5.523163 110.786346,5.838104 110.026199,5.838104 109.233505Z" style="fill: rgb(100.000000%,100.000000%,100.000000%);stroke: none;"></path>
  <path d="M74.739365 159.914230C74.739365 159.121536,74.424423 158.361389,73.863937 157.800919C73.303467 157.240433,72.543320 156.925491,71.750626 156.925491C70.957932 156.925491,70.197784 157.240433,69.637314 157.800919C69.076828 158.361389,68.761887 159.121536,68.761887 159.914230C68.761887 160.706924,69.076828 161.467072,69.637314 162.027542C70.197784 162.588028,70.957932 162.902969,71.750626 162.902969C72.543320 162.902969,73.303467 162.588028,73.863937 162.027542C74.424423 161.467072,74.739365 160.706924,74.739365 159.914230Z" style="fill: rgb(100.000000%,100.000000%,100.000000%);stroke: none;"></path>
  <path d="M39.669022 167.784348C39.669022 166.991653,39.354080 166.231506,38.793594 165.671036C38.233124 165.110550,37.472977 164.795609,36.680283 164.795609C35.887589 164.795609,35.127441 165.110550,34.566971 165.671036C34.006485 166.231506,33.691544 166.991653,33.691544 167.784348C33.691544 168.577042,34.006485 169.337189,34.566971 169.897659C35.127441 170.458145,35.887589 170.773087,36.680283 170.773087C37.472977 170.773087,38.233124 170.458145,38.793594 169.897659C39.354080 169.337189,39.669022 168.577042,39.669022 167.784348Z" style="fill: rgb(100.000000%,100.000000%,100.000000%);stroke: none;"></path>
  <path d="M99.343414 133.727829C99.343414 132.935135,99.028473 132.174988,98.467987 131.614517C97.907516 131.054031,97.147369 130.739090,96.354675 130.739090C95.561981 130.739090,94.801834 131.054031,94.241364 131.614517C93.680878 132.174988,93.365936 132.935135,93.365936 133.727829C93.365936 134.520523,93.680878 135.280670,94.241364 135.841141C94.801834 136.401627,95.561981 136.716568,96.354675 136.716568C97.147369 136.716568,97.907516 136.401627,98.467987 135.841141C99.028473 135.280670,99.343414 134.520523,99.343414 133.727829Z" style="fill: rgb(100.000000%,100.000000%,100.000000%);stroke: none;"></path>
  <path d="M83.704651 147.878906C83.704651 147.086212,83.389709 146.326065,82.829224 145.765594C82.268753 145.205109,81.508606 144.890167,80.715912 144.890167C79.923218 144.890167,79.163071 145.205109,78.602600 145.765594C78.042114 146.326065,77.727173 147.086212,77.727173 147.878906C77.727173 148.671600,78.042114 149.431747,78.602600 149.992218C79.163071 150.552704,79.923218 150.867645,80.715912 150.867645C81.508606 150.867645,82.268753 150.552704,82.829224 149.992218C83.389709 149.431747,83.704651 148.671600,83.704651 147.878906Z" style="fill: rgb(100.000000%,100.000000%,100.000000%);stroke: none;"></path>
  <path d="M114.065125 123.885681C114.065125 123.092987,113.750183 122.332840,113.189697 121.772369C112.629227 121.211884,111.869080 120.896942,111.076385 120.896942C110.283691 120.896942,109.523544 121.211884,108.963074 121.772369C108.402588 122.332840,108.087646 123.092987,108.087646 123.885681C108.087646 124.678375,108.402588 125.438522,108.963074 125.998993C109.523544 126.559479,110.283691 126.874420,111.076385 126.874420C111.869080 126.874420,112.629227 126.559479,113.189697 125.998993C113.750183 125.438522,114.065125 124.678375,114.065125 123.885681Z" style="fill: rgb(100.000000%,100.000000%,100.000000%);stroke: none;"></path>
  <path d="M105.116379 129.590744C105.116379 128.798050,104.801437 128.037903,104.240952 127.477432C103.680481 126.916946,102.920334 126.602005,102.127640 126.602005C101.334946 126.602005,100.574799 126.916946,100.014328 127.477432C99.453842 128.037903,99.138901 128.798050,99.138901 129.590744C99.138901 130.383438,99.453842 131.143585,100.014328 131.704056C100.574799 132.264542,101.334946 132.579483,102.127640 132.579483C102.920334 132.579483,103.680481 132.264542,104.240952 131.704056C104.801437 131.143585,105.116379 130.383438,105.116379 129.590744Z" style="fill: rgb(100.000000%,100.000000%,100.000000%);stroke: none;"></path>
  <path d="M117.837540 114.981018C117.837540 114.188324,117.522598 113.428177,116.962112 112.867706C116.401642 112.307220,115.641495 111.992279,114.848801 111.992279C114.056107 111.992279,113.295959 112.307220,112.735489 112.867706C112.175003 113.428177,111.860062 114.188324,111.860062 114.981018C111.860062 115.773712,112.175003 116.533859,112.735489 117.094330C113.295959 117.654816,114.056107 117.969757,114.848801 117.969757C115.641495 117.969757,116.401642 117.654816,116.962112 117.094330C117.522598 116.533859,117.837540 115.773712,117.837540 114.981018Z" style="fill: rgb(100.000000%,100.000000%,100.000000%);stroke: none;"></path>
  <path d="M117.224106 121.714447C117.224106 120.921753,116.909164 120.161606,116.348679 119.601135C115.788208 119.040649,115.028061 118.725708,114.235367 118.725708C113.442673 118.725708,112.682526 119.040649,112.122055 119.601135C111.561569 120.161606,111.246628 120.921753,111.246628 121.714447C111.246628 122.507141,111.561569 123.267288,112.122055 123.827759C112.682526 124.388245,113.442673 124.703186,114.235367 124.703186C115.028061 124.703186,115.788208 124.388245,116.348679 123.827759C116.909164 123.267288,117.224106 122.507141,117.224106 121.714447Z" style="fill: rgb(100.000000%,100.000000%,100.000000%);stroke: none;"></path>
  <path d="M110.051865 106.183716C110.051865 105.391022,109.736923 104.630875,109.176437 104.070404C108.615967 103.509918,107.855820 103.194977,107.063126 103.194977C106.270432 103.194977,105.510284 103.509918,104.949814 104.070404C104.389328 104.630875,104.074387 105.391022,104.074387 106.183716C104.074387 106.976410,104.389328 107.736557,104.949814 108.297028C105.510284 108.857513,106.270432 109.172455,107.063126 109.172455C107.855820 109.172455,108.615967 108.857513,109.176437 108.297028C109.736923 107.736557,110.051865 106.976410,110.051865 106.183716Z" style="fill: rgb(100.000000%,100.000000%,100.000000%);stroke: none;"></path>
  <path d="M115.413467 112.368713C115.413467 111.576019,115.098526 110.815872,114.538040 110.255402C113.977570 109.694916,113.217422 109.379974,112.424728 109.379974C111.632034 109.379974,110.871887 109.694916,110.311417 110.255402C109.750931 110.815872,109.435989 111.576019,109.435989 112.368713C109.435989 113.161407,109.750931 113.921555,110.311417 114.482025C110.871887 115.042511,111.632034 115.357452,112.424728 115.357452C113.217422 115.357452,113.977570 115.042511,114.538040 114.482025C115.098526 113.921555,115.413467 113.161407,115.413467 112.368713Z" style="fill: rgb(100.000000%,100.000000%,100.000000%);stroke: none;"></path>
  <path d="M103.136383 92.627243C103.136383 91.834549,102.821442 91.074402,102.260956 90.513931C101.700485 89.953445,100.940338 89.638504,100.147644 89.638504C99.354950 89.638504,98.594803 89.953445,98.034332 90.513931C97.473846 91.074402,97.158905 91.834549,97.158905 92.627243C97.158905 93.419937,97.473846 94.180084,98.034332 94.740555C98.594803 95.301041,99.354950 95.615982,100.147644 95.615982C100.940338 95.615982,101.700485 95.301041,102.260956 94.740555C102.821442 94.180084,103.136383 93.419937,103.136383 92.627243Z" style="fill: rgb(100.000000%,100.000000%,100.000000%);stroke: none;"></path>
  <path d="M107.327408 102.077621C107.327408 101.284927,107.012466 100.524780,106.451981 99.964310C105.891510 99.403824,105.131363 99.088882,104.338669 99.088882C103.545975 99.088882,102.785828 99.403824,102.225357 99.964310C101.664871 100.524780,101.349930 101.284927,101.349930 102.077621C101.349930 102.870316,101.664871 103.630463,102.225357 104.190933C102.785828 104.751419,103.545975 105.066360,104.338669 105.066360C105.131363 105.066360,105.891510 104.751419,106.451981 104.190933C107.012466 103.630463,107.327408 102.870316,107.327408 102.077621Z" style="fill: rgb(100.000000%,100.000000%,100.000000%);stroke: none;"></path>
  <path d="M98.700470 76.758041C98.700470 75.965347,98.385529 75.205200,97.825043 74.644730C97.264572 74.084244,96.504425 73.769302,95.711731 73.769302C94.919037 73.769302,94.158890 74.084244,93.598419 74.644730C93.037933 75.205200,92.722992 75.965347,92.722992 76.758041C92.722992 77.550735,93.037933 78.310883,93.598419 78.871353C94.158890 79.431839,94.919037 79.746780,95.711731 79.746780C96.504425 79.746780,97.264572 79.431839,97.825043 78.871353C98.385529 78.310883,98.700470 77.550735,98.700470 76.758041Z" style="fill: rgb(100.000000%,100.000000%,100.000000%);stroke: none;"></path>
  <path d="M101.890625 87.308990C101.890625 86.516296,101.575684 85.756149,101.015198 85.195679C100.454727 84.635193,99.694580 84.320251,98.901886 84.320251C98.109192 84.320251,97.349045 84.635193,96.788574 85.195679C96.228088 85.756149,95.913147 86.516296,95.913147 87.308990C95.913147 88.101685,96.228088 88.861832,96.788574 89.422302C97.349045 89.982788,98.109192 90.297729,98.901886 90.297729C99.694580 90.297729,100.454727 89.982788,101.015198 89.422302C101.575684 88.861832,101.890625 88.101685,101.890625 87.308990Z" style="fill: rgb(100.000000%,100.000000%,100.000000%);stroke: none;"></path>
  <path d="M98.352509 60.376755C98.352509 59.584061,98.037567 58.823914,97.477081 58.263443C96.916611 57.702957,96.156464 57.388016,95.363770 57.388016C94.571075 57.388016,93.810928 57.702957,93.250458 58.263443C92.689972 58.823914,92.375031 59.584061,92.375031 60.376755C92.375031 61.169449,92.689972 61.929596,93.250458 62.490067C93.810928 63.050552,94.571075 63.365494,95.363770 63.365494C96.156464 63.365494,96.916611 63.050552,97.477081 62.490067C98.037567 61.929596,98.352509 61.169449,98.352509 60.376755Z" style="fill: rgb(100.000000%,100.000000%,100.000000%);stroke: none;"></path>
  <path d="M96.722229 71.334732C96.722229 70.542038,96.407288 69.781891,95.846802 69.221420C95.286331 68.660934,94.526184 68.345993,93.733490 68.345993C92.940796 68.345993,92.180649 68.660934,91.620178 69.221420C91.059692 69.781891,90.744751 70.542038,90.744751 71.334732C90.744751 72.127426,91.059692 72.887573,91.620178 73.448044C92.180649 74.008530,92.940796 74.323471,93.733490 74.323471C94.526184 74.323471,95.286331 74.008530,95.846802 73.448044C96.407288 72.887573,96.722229 72.127426,96.722229 71.334732Z" style="fill: rgb(100.000000%,100.000000%,100.000000%);stroke: none;"></path>
  <path d="M108.322952 47.518250C108.322952 46.725555,108.008011 45.965408,107.447525 45.404938C106.887054 44.844452,106.126907 44.529510,105.334213 44.529510C104.541519 44.529510,103.781372 44.844452,103.220901 45.404938C102.660416 45.965408,102.345474 46.725555,102.345474 47.518250C102.345474 48.310944,102.660416 49.071091,103.220901 49.631561C103.781372 50.192047,104.541519 50.506989,105.334213 50.506989C106.126907 50.506989,106.887054 50.192047,107.447525 49.631561C108.008011 49.071091,108.322952 48.310944,108.322952 47.518250Z" style="fill: rgb(100.000000%,100.000000%,100.000000%);stroke: none;"></path>
  <path d="M101.674911 55.834061C101.674911 55.041367,101.359970 54.281219,100.799484 53.720749C100.239014 53.160263,99.478867 52.845322,98.686172 52.845322C97.893478 52.845322,97.133331 53.160263,96.572861 53.720749C96.012375 54.281219,95.697433 55.041367,95.697433 55.834061C95.697433 56.626755,96.012375 57.386902,96.572861 57.947372C97.133331 58.507858,97.893478 58.822800,98.686172 58.822800C99.478867 58.822800,100.239014 58.507858,100.799484 57.947372C101.359970 57.386902,101.674911 56.626755,101.674911 55.834061Z" style="fill: rgb(100.000000%,100.000000%,100.000000%);stroke: none;"></path>
  <path d="M115.945282 27.960861C115.945282 27.168167,115.630341 26.408020,115.069855 25.847549C114.509384 25.287064,113.749237 24.972122,112.956543 24.972122C112.163849 24.972122,111.403702 25.287064,110.843231 25.847549C110.282745 26.408020,109.967804 27.168167,109.967804 27.960861C109.967804 28.753555,110.282745 29.513702,110.843231 30.074173C111.403702 30.634659,112.163849 30.949600,112.956543 30.949600C113.749237 30.949600,114.509384 30.634659,115.069855 30.074173C115.630341 29.513702,115.945282 28.753555,115.945282 27.960861Z" style="fill: rgb(100.000000%,100.000000%,100.000000%);stroke: none;"></path>
  <path d="M111.751328 43.457336C111.751328 42.664642,111.436386 41.904495,110.875900 41.344025C110.315430 40.783539,109.555283 40.468597,108.762589 40.468597C107.969894 40.468597,107.209747 40.783539,106.649277 41.344025C106.088791 41.904495,105.773849 42.664642,105.773849 43.457336C105.773849 44.250031,106.088791 45.010178,106.649277 45.570648C107.209747 46.131134,107.969894 46.446075,108.762589 46.446075C109.555283 46.446075,110.315430 46.131134,110.875900 45.570648C111.436386 45.010178,111.751328 44.250031,111.751328 43.457336Z" style="fill: rgb(100.000000%,100.000000%,100.000000%);stroke: none;"></path>
  <path d="M83.362762 3.697769C83.362762 2.905075,83.047821 2.144928,82.487335 1.584457C81.926865 1.023972,81.166718 0.709030,80.374023 0.709030C79.581329 0.709030,78.821182 1.023972,78.260712 1.584457C77.700226 2.144928,77.385284 2.905075,77.385284 3.697769C77.385284 4.490463,77.700226 5.250610,78.260712 5.811081C78.821182 6.371567,79.581329 6.686508,80.374023 6.686508C81.166718 6.686508,81.926865 6.371567,82.487335 5.811081C83.047821 5.250610,83.362762 4.490463,83.362762 3.697769Z" style="fill: rgb(100.000000%,100.000000%,100.000000%);stroke: none;"></path>
  <path d="M109.736008 17.425507C109.736008 16.632812,109.421066 15.872665,108.860580 15.312195C108.300110 14.751709,107.539963 14.436768,106.747269 14.436768C105.954575 14.436768,105.194427 14.751709,104.633957 15.312195C104.073471 15.872665,103.758530 16.632812,103.758530 17.425507C103.758530 18.218201,104.073471 18.978348,104.633957 19.538818C105.194427 20.099304,105.954575 20.414246,106.747269 20.414246C107.539963 20.414246,108.300110 20.099304,108.860580 19.538818C109.421066 18.978348,109.736008 18.218201,109.736008 17.425507Z" style="fill: rgb(100.000000%,100.000000%,100.000000%);stroke: none;"></path>
  <path d="M32.868698 35.361908C32.868698 34.569214,32.553757 33.809067,31.993271 33.248596C31.432800 32.688110,30.672653 32.373169,29.879959 32.373169C29.087265 32.373169,28.327118 32.688110,27.766647 33.248596C27.206161 33.809067,26.891220 34.569214,26.891220 35.361908C26.891220 36.154602,27.206161 36.914749,27.766647 37.475220C28.327118 38.035706,29.087265 38.350647,29.879959 38.350647C30.672653 38.350647,31.432800 38.035706,31.993271 37.475220C32.553757 36.914749,32.868698 36.154602,32.868698 35.361908Z" style="fill: rgb(100.000000%,100.000000%,100.000000%);stroke: none;"></path>
  <path d="M64.063553 11.000687C64.063553 10.207993,63.748611 9.447845,63.188126 8.887375C62.627655 8.326889,61.867508 8.011948,61.074814 8.011948C60.282120 8.011948,59.521973 8.326889,58.961502 8.887375C58.401016 9.447845,58.086075 10.207993,58.086075 11.000687C58.086075 11.793381,58.401016 12.553528,58.961502 13.113998C59.521973 13.674484,60.282120 13.989426,61.074814 13.989426C61.867508 13.989426,62.627655 13.674484,63.188126 13.113998C63.748611 12.553528,64.063553 11.793381,64.063553 11.000687Z" style="fill: rgb(100.000000%,100.000000%,100.000000%);stroke: none;"></path>
  <path d="M25.937653 84.603317C25.937653 83.810623,25.622711 83.050476,25.062225 82.490005C24.501755 81.929520,23.741608 81.614578,22.948914 81.614578C22.156219 81.614578,21.396072 81.929520,20.835602 82.490005C20.275116 83.050476,19.960175 83.810623,19.960175 84.603317C19.960175 85.396011,20.275116 86.156158,20.835602 86.716629C21.396072 87.277115,22.156219 87.592056,22.948914 87.592056C23.741608 87.592056,24.501755 87.277115,25.062225 86.716629C25.622711 86.156158,25.937653 85.396011,25.937653 84.603317Z" style="fill: rgb(100.000000%,100.000000%,100.000000%);stroke: none;"></path>
  <path d="M20.416275 53.486389C20.416275 52.693695,20.101334 51.933548,19.540848 51.373077C18.980377 50.812592,18.220230 50.497650,17.427536 50.497650C16.634842 50.497650,15.874695 50.812592,15.314224 51.373077C14.753738 51.933548,14.438797 52.693695,14.438797 53.486389C14.438797 54.279083,14.753738 55.039230,15.314224 55.599701C15.874695 56.160187,16.634842 56.475128,17.427536 56.475128C18.220230 56.475128,18.980377 56.160187,19.540848 55.599701C20.101334 55.039230,20.416275 54.279083,20.416275 53.486389Z" style="fill: rgb(100.000000%,100.000000%,100.000000%);stroke: none;"></path>
  <path d="M50.375031 96.283585C50.375031 95.490891,50.060089 94.730743,49.499603 94.170273C48.939133 93.609787,48.178986 93.294846,47.386292 93.294846C46.593597 93.294846,45.833450 93.609787,45.272980 94.170273C44.712494 94.730743,44.397552 95.490891,44.397552 96.283585C44.397552 97.076279,44.712494 97.836426,45.272980 98.396896C45.833450 98.957382,46.593597 99.272324,47.386292 99.272324C48.178986 99.272324,48.939133 98.957382,49.499603 98.396896C50.060089 97.836426,50.375031 97.076279,50.375031 96.283585Z" style="fill: rgb(100.000000%,100.000000%,100.000000%);stroke: none;"></path>
  <path d="M33.744125 94.407547C33.744125 93.614853,33.429184 92.854706,32.868698 92.294235C32.308228 91.733749,31.548080 91.418808,30.755386 91.418808C29.962692 91.418808,29.202545 91.733749,28.642075 92.294235C28.081589 92.854706,27.766647 93.614853,27.766647 94.407547C27.766647 95.200241,28.081589 95.960388,28.642075 96.520859C29.202545 97.081345,29.962692 97.396286,30.755386 97.396286C31.548080 97.396286,32.308228 97.081345,32.868698 96.520859C33.429184 95.960388,33.744125 95.200241,33.744125 94.407547Z" style="fill: rgb(100.000000%,100.000000%,100.000000%);stroke: none;"></path>
  <path d="M67.702957 90.990631C67.702957 90.197937,67.388016 89.437790,66.827530 88.877319C66.267059 88.316833,65.506912 88.001892,64.714218 88.001892C63.921524 88.001892,63.161377 88.316833,62.600906 88.877319C62.040421 89.437790,61.725479 90.197937,61.725479 90.990631C61.725479 91.783325,62.040421 92.543472,62.600906 93.103943C63.161377 93.664429,63.921524 93.979370,64.714218 93.979370C65.506912 93.979370,66.267059 93.664429,66.827530 93.103943C67.388016 92.543472,67.702957 91.783325,67.702957 90.990631Z" style="fill: rgb(100.000000%,100.000000%,100.000000%);stroke: none;"></path>
  <path d="M55.713898 94.483170C55.713898 93.690475,55.398956 92.930328,54.838470 92.369858C54.278000 91.809372,53.517853 91.494431,52.725159 91.494431C51.932465 91.494431,51.172318 91.809372,50.611847 92.369858C50.051361 92.930328,49.736420 93.690475,49.736420 94.483170C49.736420 95.275864,50.051361 96.036011,50.611847 96.596481C51.172318 97.156967,51.932465 97.471909,52.725159 97.471909C53.517853 97.471909,54.278000 97.156967,54.838470 96.596481C55.398956 96.036011,55.713898 95.275864,55.713898 94.483170Z" style="fill: rgb(100.000000%,100.000000%,100.000000%);stroke: none;"></path>
  <path d="M87.621140 85.760651C87.621140 84.967957,87.306198 84.207809,86.745712 83.647339C86.185242 83.086853,85.425095 82.771912,84.632401 82.771912C83.839706 82.771912,83.079559 83.086853,82.519089 83.647339C81.958603 84.207809,81.643661 84.967957,81.643661 85.760651C81.643661 86.553345,81.958603 87.313492,82.519089 87.873962C83.079559 88.434448,83.839706 88.749390,84.632401 88.749390C85.425095 88.749390,86.185242 88.434448,86.745712 87.873962C87.306198 87.313492,87.621140 86.553345,87.621140 85.760651Z" style="fill: rgb(100.000000%,100.000000%,100.000000%);stroke: none;"></path>
  <path d="M74.530075 89.449265C74.530075 88.656570,74.215134 87.896423,73.654648 87.335953C73.094177 86.775467,72.334030 86.460526,71.541336 86.460526C70.748642 86.460526,69.988495 86.775467,69.428024 87.335953C68.867538 87.896423,68.552597 88.656570,68.552597 89.449265C68.552597 90.241959,68.867538 91.002106,69.428024 91.562576C69.988495 92.123062,70.748642 92.438004,71.541336 92.438004C72.334030 92.438004,73.094177 92.123062,73.654648 91.562576C74.215134 91.002106,74.530075 90.241959,74.530075 89.449265Z" style="fill: rgb(100.000000%,100.000000%,100.000000%);stroke: none;"></path>
  <path d="M104.684448 81.057831C104.684448 80.265137,104.369507 79.504990,103.809021 78.944519C103.248550 78.384033,102.488403 78.069092,101.695709 78.069092C100.903015 78.069092,100.142868 78.384033,99.582397 78.944519C99.021912 79.504990,98.706970 80.265137,98.706970 81.057831C98.706970 81.850525,99.021912 82.610672,99.582397 83.171143C100.142868 83.731628,100.903015 84.046570,101.695709 84.046570C102.488403 84.046570,103.248550 83.731628,103.809021 83.171143C104.369507 82.610672,104.684448 81.850525,104.684448 81.057831Z" style="fill: rgb(100.000000%,100.000000%,100.000000%);stroke: none;"></path>
  <path d="M93.892700 83.652298C93.892700 82.859604,93.577759 82.099457,93.017273 81.538986C92.456802 80.978500,91.696655 80.663559,90.903961 80.663559C90.111267 80.663559,89.351120 80.978500,88.790649 81.538986C88.230164 82.099457,87.915222 82.859604,87.915222 83.652298C87.915222 84.444992,88.230164 85.205139,88.790649 85.765610C89.351120 86.326096,90.111267 86.641037,90.903961 86.641037C91.696655 86.641037,92.456802 86.326096,93.017273 85.765610C93.577759 85.205139,93.892700 84.444992,93.892700 83.652298Z" style="fill: rgb(100.000000%,100.000000%,100.000000%);stroke: none;"></path>
  <path d="M117.327026 76.724075C117.327026 75.931381,117.012085 75.171234,116.451599 74.610764C115.891129 74.050278,115.130981 73.735336,114.338287 73.735336C113.545593 73.735336,112.785446 74.050278,112.224976 74.610764C111.664490 75.171234,111.349548 75.931381,111.349548 76.724075C111.349548 77.516769,111.664490 78.276917,112.224976 78.837387C112.785446 79.397873,113.545593 79.712814,114.338287 79.712814C115.130981 79.712814,115.891129 79.397873,116.451599 78.837387C117.012085 78.276917,117.327026 77.516769,117.327026 76.724075Z" style="fill: rgb(100.000000%,100.000000%,100.000000%);stroke: none;"></path>
  <path d="M109.138931 80.262009C109.138931 79.469315,108.823990 78.709167,108.263504 78.148697C107.703033 77.588211,106.942886 77.273270,106.150192 77.273270C105.357498 77.273270,104.597351 77.588211,104.036880 78.148697C103.476395 78.709167,103.161453 79.469315,103.161453 80.262009C103.161453 81.054703,103.476395 81.814850,104.036880 82.375320C104.597351 82.935806,105.357498 83.250748,106.150192 83.250748C106.942886 83.250748,107.703033 82.935806,108.263504 82.375320C108.823990 81.814850,109.138931 81.054703,109.138931 80.262009Z" style="fill: rgb(100.000000%,100.000000%,100.000000%);stroke: none;"></path>
  <path d="M129.474548 67.994049C129.474548 67.201355,129.159607 66.441208,128.599121 65.880737C128.038651 65.320251,127.278503 65.005310,126.485809 65.005310C125.693115 65.005310,124.932968 65.320251,124.372498 65.880737C123.812012 66.441208,123.497070 67.201355,123.497070 67.994049C123.497070 68.786743,123.812012 69.546890,124.372498 70.107361C124.932968 70.667847,125.693115 70.982788,126.485809 70.982788C127.278503 70.982788,128.038651 70.667847,128.599121 70.107361C129.159607 69.546890,129.474548 68.786743,129.474548 67.994049Z" style="fill: rgb(100.000000%,100.000000%,100.000000%);stroke: none;"></path>
  <path d="M120.910263 74.083160C120.910263 73.290466,120.595322 72.530319,120.034836 71.969849C119.474365 71.409363,118.714218 71.094421,117.921524 71.094421C117.128830 71.094421,116.368683 71.409363,115.808212 71.969849C115.247726 72.530319,114.932785 73.290466,114.932785 74.083160C114.932785 74.875854,115.247726 75.636002,115.808212 76.196472C116.368683 76.756958,117.128830 77.071899,117.921524 77.071899C118.714218 77.071899,119.474365 76.756958,120.034836 76.196472C120.595322 75.636002,120.910263 74.875854,120.910263 74.083160Z" style="fill: rgb(100.000000%,100.000000%,100.000000%);stroke: none;"></path>
  <path d="M150.383331 57.270966C150.383331 56.478271,150.068390 55.718124,149.507904 55.157654C148.947433 54.597168,148.187286 54.282227,147.394592 54.282227C146.601898 54.282227,145.841751 54.597168,145.281281 55.157654C144.720795 55.718124,144.405853 56.478271,144.405853 57.270966C144.405853 58.063660,144.720795 58.823807,145.281281 59.384277C145.841751 59.944763,146.601898 60.259705,147.394592 60.259705C148.187286 60.259705,148.947433 59.944763,149.507904 59.384277C150.068390 58.823807,150.383331 58.063660,150.383331 57.270966Z" style="fill: rgb(100.000000%,100.000000%,100.000000%);stroke: none;"></path>
  <path d="M134.540466 64.579269C134.540466 63.786575,134.225525 63.026428,133.665039 62.465958C133.104568 61.905472,132.344421 61.590530,131.551727 61.590530C130.759033 61.590530,129.998886 61.905472,129.438416 62.465958C128.877930 63.026428,128.562988 63.786575,128.562988 64.579269C128.562988 65.371964,128.877930 66.132111,129.438416 66.692581C129.998886 67.253067,130.759033 67.568008,131.551727 67.568008C132.344421 67.568008,133.104568 67.253067,133.665039 66.692581C134.225525 66.132111,134.540466 65.371964,134.540466 64.579269Z" style="fill: rgb(100.000000%,100.000000%,100.000000%);stroke: none;"></path>
  <path d="M189.505905 69.132462C189.505905 68.339767,189.190964 67.579620,188.630478 67.019150C188.070007 66.458664,187.309860 66.143723,186.517166 66.143723C185.724472 66.143723,184.964325 66.458664,184.403854 67.019150C183.843369 67.579620,183.528427 68.339767,183.528427 69.132462C183.528427 69.925156,183.843369 70.685303,184.403854 71.245773C184.964325 71.806259,185.724472 72.121201,186.517166 72.121201C187.309860 72.121201,188.070007 71.806259,188.630478 71.245773C189.190964 70.685303,189.505905 69.925156,189.505905 69.132462Z" style="fill: rgb(100.000000%,100.000000%,100.000000%);stroke: none;"></path>
  <path d="M162.217468 55.730103C162.217468 54.937408,161.902527 54.177261,161.342041 53.616791C160.781570 53.056305,160.021423 52.741364,159.228729 52.741364C158.436035 52.741364,157.675888 53.056305,157.115417 53.616791C156.554932 54.177261,156.239990 54.937408,156.239990 55.730103C156.239990 56.522797,156.554932 57.282944,157.115417 57.843414C157.675888 58.403900,158.436035 58.718842,159.228729 58.718842C160.021423 58.718842,160.781570 58.403900,161.342041 57.843414C161.902527 57.282944,162.217468 56.522797,162.217468 55.730103Z" style="fill: rgb(100.000000%,100.000000%,100.000000%);stroke: none;"></path>
  <path d="M188.590042 130.393753C188.590042 129.601059,188.275101 128.840912,187.714615 128.280441C187.154144 127.719955,186.393997 127.405014,185.601303 127.405014C184.808609 127.405014,184.048462 127.719955,183.487991 128.280441C182.927505 128.840912,182.612564 129.601059,182.612564 130.393753C182.612564 131.186447,182.927505 131.946594,183.487991 132.507065C184.048462 133.067551,184.808609 133.382492,185.601303 133.382492C186.393997 133.382492,187.154144 133.067551,187.714615 132.507065C188.275101 131.946594,188.590042 131.186447,188.590042 130.393753Z" style="fill: rgb(100.000000%,100.000000%,100.000000%);stroke: none;"></path>
  <path d="M194.105621 90.220108C194.105621 89.427414,193.790680 88.667267,193.230194 88.106796C192.669724 87.546310,191.909576 87.231369,191.116882 87.231369C190.324188 87.231369,189.564041 87.546310,189.003571 88.106796C188.443085 88.667267,188.128143 89.427414,188.128143 90.220108C188.128143 91.012802,188.443085 91.772949,189.003571 92.333420C189.564041 92.893906,190.324188 93.208847,191.116882 93.208847C191.909576 93.208847,192.669724 92.893906,193.230194 92.333420C193.790680 91.772949,194.105621 91.012802,194.105621 90.220108Z" style="fill: rgb(100.000000%,100.000000%,100.000000%);stroke: none;"></path>
  <path d="M145.617554 153.162674C145.617554 152.369980,145.302612 151.609833,144.742126 151.049362C144.181656 150.488876,143.421509 150.173935,142.628815 150.173935C141.836121 150.173935,141.075974 150.488876,140.515503 151.049362C139.955017 151.609833,139.640076 152.369980,139.640076 153.162674C139.640076 153.955368,139.955017 154.715515,140.515503 155.275986C141.075974 155.836472,141.836121 156.151413,142.628815 156.151413C143.421509 156.151413,144.181656 155.836472,144.742126 155.275986C145.302612 154.715515,145.617554 153.955368,145.617554 153.162674Z" style="fill: rgb(100.000000%,100.000000%,100.000000%);stroke: none;"></path>
  <path d="M177.405945 150.065399C177.405945 149.272705,177.091003 148.512558,176.530518 147.952087C175.970047 147.391602,175.209900 147.076660,174.417206 147.076660C173.624512 147.076660,172.864365 147.391602,172.303894 147.952087C171.743408 148.512558,171.428467 149.272705,171.428467 150.065399C171.428467 150.858093,171.743408 151.618240,172.303894 152.178711C172.864365 152.739197,173.624512 153.054138,174.417206 153.054138C175.209900 153.054138,175.970047 152.739197,176.530518 152.178711C177.091003 151.618240,177.405945 150.858093,177.405945 150.065399Z" style="fill: rgb(100.000000%,100.000000%,100.000000%);stroke: none;"></path>
  <path d="M120.549667 134.005737C120.549667 133.213043,120.234726 132.452896,119.674240 131.892426C119.113770 131.331940,118.353622 131.016998,117.560928 131.016998C116.768234 131.016998,116.008087 131.331940,115.447617 131.892426C114.887131 132.452896,114.572189 133.213043,114.572189 134.005737C114.572189 134.798431,114.887131 135.558578,115.447617 136.119049C116.008087 136.679535,116.768234 136.994476,117.560928 136.994476C118.353622 136.994476,119.113770 136.679535,119.674240 136.119049C120.234726 135.558578,120.549667 134.798431,120.549667 134.005737Z" style="fill: rgb(100.000000%,100.000000%,100.000000%);stroke: none;"></path>
  <path d="M134.698959 146.079269C134.698959 145.286575,134.384018 144.526428,133.823532 143.965958C133.263062 143.405472,132.502914 143.090530,131.710220 143.090530C130.917526 143.090530,130.157379 143.405472,129.596909 143.965958C129.036423 144.526428,128.721481 145.286575,128.721481 146.079269C128.721481 146.871964,129.036423 147.632111,129.596909 148.192581C130.157379 148.753067,130.917526 149.068008,131.710220 149.068008C132.502914 149.068008,133.263062 148.753067,133.823532 148.192581C134.384018 147.632111,134.698959 146.871964,134.698959 146.079269Z" style="fill: rgb(100.000000%,100.000000%,100.000000%);stroke: none;"></path>
  <path d="M107.860901 123.220947C107.860901 122.428253,107.545959 121.668106,106.985474 121.107635C106.425003 120.547150,105.664856 120.232208,104.872162 120.232208C104.079468 120.232208,103.319321 120.547150,102.758850 121.107635C102.198364 121.668106,101.883423 122.428253,101.883423 123.220947C101.883423 124.013641,102.198364 124.773788,102.758850 125.334259C103.319321 125.894745,104.079468 126.209686,104.872162 126.209686C105.664856 126.209686,106.425003 125.894745,106.985474 125.334259C107.545959 124.773788,107.860901 124.013641,107.860901 123.220947Z" style="fill: rgb(100.000000%,100.000000%,100.000000%);stroke: none;"></path>
  <path d="M116.007080 129.672852C116.007080 128.880157,115.692139 128.120010,115.131653 127.559540C114.571182 126.999054,113.811035 126.684113,113.018341 126.684113C112.225647 126.684113,111.465500 126.999054,110.905029 127.559540C110.344543 128.120010,110.029602 128.880157,110.029602 129.672852C110.029602 130.465546,110.344543 131.225693,110.905029 131.786163C111.465500 132.346649,112.225647 132.661591,113.018341 132.661591C113.811035 132.661591,114.571182 132.346649,115.131653 131.786163C115.692139 131.225693,116.007080 130.465546,116.007080 129.672852Z" style="fill: rgb(100.000000%,100.000000%,100.000000%);stroke: none;"></path>
  <path d="M106.099792 112.751801C106.099792 111.959106,105.784851 111.198959,105.224365 110.638489C104.663895 110.078003,103.903748 109.763062,103.111053 109.763062C102.318359 109.763062,101.558212 110.078003,100.997742 110.638489C100.437256 111.198959,100.122314 111.959106,100.122314 112.751801C100.122314 113.544495,100.437256 114.304642,100.997742 114.865112C101.558212 115.425598,102.318359 115.740540,103.111053 115.740540C103.903748 115.740540,104.663895 115.425598,105.224365 114.865112C105.784851 114.304642,106.099792 113.544495,106.099792 112.751801Z" style="fill: rgb(100.000000%,100.000000%,100.000000%);stroke: none;"></path>
  <path d="M104.452652 120.159851C104.452652 119.367157,104.137711 118.607010,103.577225 118.046539C103.016754 117.486053,102.256607 117.171112,101.463913 117.171112C100.671219 117.171112,99.911072 117.486053,99.350601 118.046539C98.790115 118.607010,98.475174 119.367157,98.475174 120.159851C98.475174 120.952545,98.790115 121.712692,99.350601 122.273163C99.911072 122.833649,100.671219 123.148590,101.463913 123.148590C102.256607 123.148590,103.016754 122.833649,103.577225 122.273163C104.137711 121.712692,104.452652 120.952545,104.452652 120.159851Z" style="fill: rgb(100.000000%,100.000000%,100.000000%);stroke: none;"></path>
  <path d="M117.244125 108.188705C117.244125 107.396011,116.929184 106.635864,116.368698 106.075394C115.808228 105.514908,115.048080 105.199966,114.255386 105.199966C113.462692 105.199966,112.702545 105.514908,112.142075 106.075394C111.581589 106.635864,111.266647 107.396011,111.266647 108.188705C111.266647 108.981400,111.581589 109.741547,112.142075 110.302017C112.702545 110.862503,113.462692 111.177444,114.255386 111.177444C115.048080 111.177444,115.808228 110.862503,116.368698 110.302017C116.929184 109.741547,117.244125 108.981400,117.244125 108.188705Z" style="fill: rgb(100.000000%,100.000000%,100.000000%);stroke: none;"></path>
  <path d="M109.899673 111.318863C109.899673 110.526169,109.584732 109.766022,109.024246 109.205551C108.463776 108.645065,107.703629 108.330124,106.910934 108.330124C106.118240 108.330124,105.358093 108.645065,104.797623 109.205551C104.237137 109.766022,103.922195 110.526169,103.922195 111.318863C103.922195 112.111557,104.237137 112.871704,104.797623 113.432175C105.358093 113.992661,106.118240 114.307602,106.910934 114.307602C107.703629 114.307602,108.463776 113.992661,109.024246 113.432175C109.584732 112.871704,109.899673 112.111557,109.899673 111.318863Z" style="fill: rgb(100.000000%,100.000000%,100.000000%);stroke: none;"></path>
  <path d="M129.008896 101.603943C129.008896 100.811249,128.693954 100.051102,128.133469 99.490631C127.572998 98.930145,126.812851 98.615204,126.020157 98.615204C125.227463 98.615204,124.467316 98.930145,123.906845 99.490631C123.346359 100.051102,123.031418 100.811249,123.031418 101.603943C123.031418 102.396637,123.346359 103.156784,123.906845 103.717255C124.467316 104.277740,125.227463 104.592682,126.020157 104.592682C126.812851 104.592682,127.572998 104.277740,128.133469 103.717255C128.693954 103.156784,129.008896 102.396637,129.008896 101.603943Z" style="fill: rgb(100.000000%,100.000000%,100.000000%);stroke: none;"></path>
  <path d="M120.917664 105.866608C120.917664 105.073914,120.602722 104.313766,120.042236 103.753296C119.481766 103.192810,118.721619 102.877869,117.928925 102.877869C117.136230 102.877869,116.376083 103.192810,115.815613 103.753296C115.255127 104.313766,114.940186 105.073914,114.940186 105.866608C114.940186 106.659302,115.255127 107.419449,115.815613 107.979919C116.376083 108.540405,117.136230 108.855347,117.928925 108.855347C118.721619 108.855347,119.481766 108.540405,120.042236 107.979919C120.602722 107.419449,120.917664 106.659302,120.917664 105.866608Z" style="fill: rgb(100.000000%,100.000000%,100.000000%);stroke: none;"></path>
  <path d="M143.030151 94.587158C143.030151 93.794464,142.715210 93.034317,142.154724 92.473846C141.594254 91.913361,140.834106 91.598419,140.041412 91.598419C139.248718 91.598419,138.488571 91.913361,137.928101 92.473846C137.367615 93.034317,137.052673 93.794464,137.052673 94.587158C137.052673 95.379852,137.367615 96.139999,137.928101 96.700470C138.488571 97.260956,139.248718 97.575897,140.041412 97.575897C140.834106 97.575897,141.594254 97.260956,142.154724 96.700470C142.715210 96.139999,143.030151 95.379852,143.030151 94.587158Z" style="fill: rgb(100.000000%,100.000000%,100.000000%);stroke: none;"></path>
  <path d="M133.461792 99.737778C133.461792 98.945084,133.146851 98.184937,132.586365 97.624466C132.025894 97.063980,131.265747 96.749039,130.473053 96.749039C129.680359 96.749039,128.920212 97.063980,128.359741 97.624466C127.799255 98.184937,127.484314 98.945084,127.484314 99.737778C127.484314 100.530472,127.799255 101.290619,128.359741 101.851089C128.920212 102.411575,129.680359 102.726517,130.473053 102.726517C131.265747 102.726517,132.025894 102.411575,132.586365 101.851089C133.146851 101.290619,133.461792 100.530472,133.461792 99.737778Z" style="fill: rgb(100.000000%,100.000000%,100.000000%);stroke: none;"></path>
  <path d="M161.615341 80.241058C161.615341 79.448364,161.300400 78.688217,160.739914 78.127747C160.179443 77.567261,159.419296 77.252319,158.626602 77.252319C157.833908 77.252319,157.073761 77.567261,156.513290 78.127747C155.952805 78.688217,155.637863 79.448364,155.637863 80.241058C155.637863 81.033752,155.952805 81.793900,156.513290 82.354370C157.073761 82.914856,157.833908 83.229797,158.626602 83.229797C159.419296 83.229797,160.179443 82.914856,160.739914 82.354370C161.300400 81.793900,161.615341 81.033752,161.615341 80.241058Z" style="fill: rgb(100.000000%,100.000000%,100.000000%);stroke: none;"></path>
  <path d="M147.979950 91.088165C147.979950 90.295471,147.665009 89.535324,147.104523 88.974854C146.544052 88.414368,145.783905 88.099426,144.991211 88.099426C144.198517 88.099426,143.438370 88.414368,142.877899 88.974854C142.317413 89.535324,142.002472 90.295471,142.002472 91.088165C142.002472 91.880859,142.317413 92.641006,142.877899 93.201477C143.438370 93.761963,144.198517 94.076904,144.991211 94.076904C145.783905 94.076904,146.544052 93.761963,147.104523 93.201477C147.665009 92.641006,147.979950 91.880859,147.979950 91.088165Z" style="fill: rgb(100.000000%,100.000000%,100.000000%);stroke: none;"></path>
  <path d="M176.338013 42.432663C176.338013 41.639969,176.023071 40.879822,175.462585 40.319351C174.902115 39.758865,174.141968 39.443924,173.349274 39.443924C172.556580 39.443924,171.796432 39.758865,171.235962 40.319351C170.675476 40.879822,170.360535 41.639969,170.360535 42.432663C170.360535 43.225357,170.675476 43.985504,171.235962 44.545975C171.796432 45.106461,172.556580 45.421402,173.349274 45.421402C174.141968 45.421402,174.902115 45.106461,175.462585 44.545975C176.023071 43.985504,176.338013 43.225357,176.338013 42.432663Z" style="fill: rgb(100.000000%,100.000000%,100.000000%);stroke: none;"></path>
  <path d="M169.948990 71.825180C169.948990 71.032486,169.634048 70.272339,169.073563 69.711868C168.513092 69.151382,167.752945 68.836441,166.960251 68.836441C166.167557 68.836441,165.407410 69.151382,164.846939 69.711868C164.286453 70.272339,163.971512 71.032486,163.971512 71.825180C163.971512 72.617874,164.286453 73.378021,164.846939 73.938492C165.407410 74.498978,166.167557 74.813919,166.960251 74.813919C167.752945 74.813919,168.513092 74.498978,169.073563 73.938492C169.634048 73.378021,169.948990 72.617874,169.948990 71.825180Z" style="fill: rgb(100.000000%,100.000000%,100.000000%);stroke: none;"></path>
  <path d="M132.627472 6.432877C132.627472 5.640182,132.312531 4.880035,131.752045 4.319565C131.191574 3.759079,130.431427 3.444138,129.638733 3.444138C128.846039 3.444138,128.085892 3.759079,127.525421 4.319565C126.964935 4.880035,126.649994 5.640182,126.649994 6.432877C126.649994 7.225571,126.964935 7.985718,127.525421 8.546188C128.085892 9.106674,128.846039 9.421616,129.638733 9.421616C130.431427 9.421616,131.191574 9.106674,131.752045 8.546188C132.312531 7.985718,132.627472 7.225571,132.627472 6.432877Z" style="fill: rgb(100.000000%,100.000000%,100.000000%);stroke: none;"></path>
  <path d="M164.055252 25.473907C164.055252 24.681213,163.740311 23.921066,163.179825 23.360596C162.619354 22.800110,161.859207 22.485168,161.066513 22.485168C160.273819 22.485168,159.513672 22.800110,158.953201 23.360596C158.392715 23.921066,158.077774 24.681213,158.077774 25.473907C158.077774 26.266602,158.392715 27.026749,158.953201 27.587219C159.513672 28.147705,160.273819 28.462646,161.066513 28.462646C161.859207 28.462646,162.619354 28.147705,163.179825 27.587219C163.740311 27.026749,164.055252 26.266602,164.055252 25.473907Z" style="fill: rgb(100.000000%,100.000000%,100.000000%);stroke: none;"></path>
  <path d="M89.226837 19.265045C89.226837 18.472351,88.911896 17.712204,88.351410 17.151733C87.790939 16.591248,87.030792 16.276306,86.238098 16.276306C85.445404 16.276306,84.685257 16.591248,84.124786 17.151733C83.564301 17.712204,83.249359 18.472351,83.249359 19.265045C83.249359 20.057739,83.564301 20.817886,84.124786 21.378357C84.685257 21.938843,85.445404 22.253784,86.238098 22.253784C87.030792 22.253784,87.790939 21.938843,88.351410 21.378357C88.911896 20.817886,89.226837 20.057739,89.226837 19.265045Z" style="fill: rgb(100.000000%,100.000000%,100.000000%);stroke: none;"></path>
  <path d="M114.186829 2.901077C114.186829 2.108383,113.871887 1.348236,113.311401 0.787766C112.750931 0.227280,111.990784 -0.087662,111.198090 -0.087662C110.405396 -0.087662,109.645248 0.227280,109.084778 0.787766C108.524292 1.348236,108.209351 2.108383,108.209351 2.901077C108.209351 3.693771,108.524292 4.453918,109.084778 5.014389C109.645248 5.574875,110.405396 5.889816,111.198090 5.889816C111.990784 5.889816,112.750931 5.574875,113.311401 5.014389C113.871887 4.453918,114.186829 3.693771,114.186829 2.901077Z" style="fill: rgb(100.000000%,100.000000%,100.000000%);stroke: none;"></path>
  <path d="M94.618195 46.950241C94.618195 46.157547,94.303253 45.397400,93.742767 44.836929C93.182297 44.276443,92.422150 43.961502,91.629456 43.961502C90.836761 43.961502,90.076614 44.276443,89.516144 44.836929C88.955658 45.397400,88.640717 46.157547,88.640717 46.950241C88.640717 47.742935,88.955658 48.503082,89.516144 49.063553C90.076614 49.624039,90.836761 49.938980,91.629456 49.938980C92.422150 49.938980,93.182297 49.624039,93.742767 49.063553C94.303253 48.503082,94.618195 47.742935,94.618195 46.950241Z" style="fill: rgb(100.000000%,100.000000%,100.000000%);stroke: none;"></path>
  <path d="M84.425308 32.656952C84.425308 31.864258,84.110367 31.104111,83.549881 30.543640C82.989410 29.983154,82.229263 29.668213,81.436569 29.668213C80.643875 29.668213,79.883728 29.983154,79.323257 30.543640C78.762772 31.104111,78.447830 31.864258,78.447830 32.656952C78.447830 33.449646,78.762772 34.209793,79.323257 34.770264C79.883728 35.330750,80.643875 35.645691,81.436569 35.645691C82.229263 35.645691,82.989410 35.330750,83.549881 34.770264C84.110367 34.209793,84.425308 33.449646,84.425308 32.656952Z" style="fill: rgb(100.000000%,100.000000%,100.000000%);stroke: none;"></path>
  <path d="M109.398849 53.579163C109.398849 52.786469,109.083908 52.026321,108.523422 51.465851C107.962952 50.905365,107.202805 50.590424,106.410110 50.590424C105.617416 50.590424,104.857269 50.905365,104.296799 51.465851C103.736313 52.026321,103.421371 52.786469,103.421371 53.579163C103.421371 54.371857,103.736313 55.132004,104.296799 55.692474C104.857269 56.252960,105.617416 56.567902,106.410110 56.567902C107.202805 56.567902,107.962952 56.252960,108.523422 55.692474C109.083908 55.132004,109.398849 54.371857,109.398849 53.579163Z" style="fill: rgb(100.000000%,100.000000%,100.000000%);stroke: none;"></path>
  <path d="M100.003403 49.196289C100.003403 48.403595,99.688461 47.643448,99.127975 47.082977C98.567505 46.522491,97.807358 46.207550,97.014664 46.207550C96.221970 46.207550,95.461823 46.522491,94.901352 47.082977C94.340866 47.643448,94.025925 48.403595,94.025925 49.196289C94.025925 49.988983,94.340866 50.749130,94.901352 51.309601C95.461823 51.870087,96.221970 52.185028,97.014664 52.185028C97.807358 52.185028,98.567505 51.870087,99.127975 51.309601C99.688461 50.749130,100.003403 49.988983,100.003403 49.196289Z" style="fill: rgb(100.000000%,100.000000%,100.000000%);stroke: none;"></path>
  <path d="M120.375092 62.705658C120.375092 61.912964,120.060150 61.152817,119.499664 60.592346C118.939194 60.031860,118.179047 59.716919,117.386353 59.716919C116.593658 59.716919,115.833511 60.031860,115.273041 60.592346C114.712555 61.152817,114.397614 61.912964,114.397614 62.705658C114.397614 63.498352,114.712555 64.258499,115.273041 64.818970C115.833511 65.379456,116.593658 65.694397,117.386353 65.694397C118.179047 65.694397,118.939194 65.379456,119.499664 64.818970C120.060150 64.258499,120.375092 63.498352,120.375092 62.705658Z" style="fill: rgb(100.000000%,100.000000%,100.000000%);stroke: none;"></path>
  <path d="M113.664368 55.827240C113.664368 55.034546,113.349426 54.274399,112.788940 53.713928C112.228470 53.153442,111.468323 52.838501,110.675629 52.838501C109.882935 52.838501,109.122787 53.153442,108.562317 53.713928C108.001831 54.274399,107.686890 55.034546,107.686890 55.827240C107.686890 56.619934,108.001831 57.380081,108.562317 57.940552C109.122787 58.501038,109.882935 58.815979,110.675629 58.815979C111.468323 58.815979,112.228470 58.501038,112.788940 57.940552C113.349426 57.380081,113.664368 56.619934,113.664368 55.827240Z" style="fill: rgb(100.000000%,100.000000%,100.000000%);stroke: none;"></path>
  <path d="M126.469894 75.876541C126.469894 75.083847,126.154953 74.323700,125.594467 73.763229C125.033997 73.202744,124.273849 72.887802,123.481155 72.887802C122.688461 72.887802,121.928314 73.202744,121.367844 73.763229C120.807358 74.323700,120.492416 75.083847,120.492416 75.876541C120.492416 76.669235,120.807358 77.429382,121.367844 77.989853C121.928314 78.550339,122.688461 78.865280,123.481155 78.865280C124.273849 78.865280,125.033997 78.550339,125.594467 77.989853C126.154953 77.429382,126.469894 76.669235,126.469894 75.876541Z" style="fill: rgb(100.000000%,100.000000%,100.000000%);stroke: none;"></path>
  <path d="M122.530212 67.109222C122.530212 66.316528,122.215271 65.556381,121.654785 64.995911C121.094315 64.435425,120.334167 64.120483,119.541473 64.120483C118.748779 64.120483,117.988632 64.435425,117.428162 64.995911C116.867676 65.556381,116.552734 66.316528,116.552734 67.109222C116.552734 67.901917,116.867676 68.662064,117.428162 69.222534C117.988632 69.783020,118.748779 70.097961,119.541473 70.097961C120.334167 70.097961,121.094315 69.783020,121.654785 69.222534C122.215271 68.662064,122.530212 67.901917,122.530212 67.109222Z" style="fill: rgb(100.000000%,100.000000%,100.000000%);stroke: none;"></path>
  <path d="M132.776947 88.906158C132.776947 88.113464,132.462006 87.353317,131.901520 86.792847C131.341049 86.232361,130.580902 85.917419,129.788208 85.917419C128.995514 85.917419,128.235367 86.232361,127.674896 86.792847C127.114410 87.353317,126.799469 88.113464,126.799469 88.906158C126.799469 89.698853,127.114410 90.459000,127.674896 91.019470C128.235367 91.579956,128.995514 91.894897,129.788208 91.894897C130.580902 91.894897,131.341049 91.579956,131.901520 91.019470C132.462006 90.459000,132.776947 89.698853,132.776947 88.906158Z" style="fill: rgb(100.000000%,100.000000%,100.000000%);stroke: none;"></path>
  <path d="M128.296219 80.293671C128.296219 79.500977,127.981277 78.740829,127.420792 78.180359C126.860321 77.619873,126.100174 77.304932,125.307480 77.304932C124.514786 77.304932,123.754639 77.619873,123.194168 78.180359C122.633682 78.740829,122.318741 79.500977,122.318741 80.293671C122.318741 81.086365,122.633682 81.846512,123.194168 82.406982C123.754639 82.967468,124.514786 83.282410,125.307480 83.282410C126.100174 83.282410,126.860321 82.967468,127.420792 82.406982C127.981277 81.846512,128.296219 81.086365,128.296219 80.293671Z" style="fill: rgb(100.000000%,100.000000%,100.000000%);stroke: none;"></path>
  <path d="M140.842636 103.550568C140.842636 102.757874,140.527695 101.997726,139.967209 101.437256C139.406738 100.876770,138.646591 100.561829,137.853897 100.561829C137.061203 100.561829,136.301056 100.876770,135.740585 101.437256C135.180099 101.997726,134.865158 102.757874,134.865158 103.550568C134.865158 104.343262,135.180099 105.103409,135.740585 105.663879C136.301056 106.224365,137.061203 106.539307,137.853897 106.539307C138.646591 106.539307,139.406738 106.224365,139.967209 105.663879C140.527695 105.103409,140.842636 104.343262,140.842636 103.550568Z" style="fill: rgb(100.000000%,100.000000%,100.000000%);stroke: none;"></path>
  <path d="M135.445923 93.067871C135.445923 92.275177,135.130981 91.515030,134.570496 90.954559C134.010025 90.394073,133.249878 90.079132,132.457184 90.079132C131.664490 90.079132,130.904343 90.394073,130.343872 90.954559C129.783386 91.515030,129.468445 92.275177,129.468445 93.067871C129.468445 93.860565,129.783386 94.620712,130.343872 95.181183C130.904343 95.741669,131.664490 96.056610,132.457184 96.056610C133.249878 96.056610,134.010025 95.741669,134.570496 95.181183C135.130981 94.620712,135.445923 93.860565,135.445923 93.067871Z" style="fill: rgb(100.000000%,100.000000%,100.000000%);stroke: none;"></path>
  <path d="M151.576065 127.817413C151.576065 127.024719,151.261124 126.264572,150.700638 125.704102C150.140167 125.143616,149.380020 124.828674,148.587326 124.828674C147.794632 124.828674,147.034485 125.143616,146.474014 125.704102C145.913528 126.264572,145.598587 127.024719,145.598587 127.817413C145.598587 128.610107,145.913528 129.370255,146.474014 129.930725C147.034485 130.491211,147.794632 130.806152,148.587326 130.806152C149.380020 130.806152,150.140167 130.491211,150.700638 129.930725C151.261124 129.370255,151.576065 128.610107,151.576065 127.817413Z" style="fill: rgb(100.000000%,100.000000%,100.000000%);stroke: none;"></path>
  <path d="M143.161194 110.027573C143.161194 109.234879,142.846252 108.474731,142.285767 107.914261C141.725296 107.353775,140.965149 107.038834,140.172455 107.038834C139.379761 107.038834,138.619614 107.353775,138.059143 107.914261C137.498657 108.474731,137.183716 109.234879,137.183716 110.027573C137.183716 110.820267,137.498657 111.580414,138.059143 112.140884C138.619614 112.701370,139.379761 113.016312,140.172455 113.016312C140.965149 113.016312,141.725296 112.701370,142.285767 112.140884C142.846252 111.580414,143.161194 110.820267,143.161194 110.027573Z" style="fill: rgb(100.000000%,100.000000%,100.000000%);stroke: none;"></path>
  <path d="M155.543854 172.627731C155.543854 171.835037,155.228912 171.074890,154.668427 170.514420C154.107956 169.953934,153.347809 169.638992,152.555115 169.638992C151.762421 169.638992,151.002274 169.953934,150.441803 170.514420C149.881317 171.074890,149.566376 171.835037,149.566376 172.627731C149.566376 173.420425,149.881317 174.180573,150.441803 174.741043C151.002274 175.301529,151.762421 175.616470,152.555115 175.616470C153.347809 175.616470,154.107956 175.301529,154.668427 174.741043C155.228912 174.180573,155.543854 173.420425,155.543854 172.627731Z" style="fill: rgb(100.000000%,100.000000%,100.000000%);stroke: none;"></path>
  <path d="M159.268234 139.158249C159.268234 138.365555,158.953293 137.605408,158.392807 137.044937C157.832336 136.484451,157.072189 136.169510,156.279495 136.169510C155.486801 136.169510,154.726654 136.484451,154.166183 137.044937C153.605698 137.605408,153.290756 138.365555,153.290756 139.158249C153.290756 139.950943,153.605698 140.711090,154.166183 141.271561C154.726654 141.832047,155.486801 142.146988,156.279495 142.146988C157.072189 142.146988,157.832336 141.832047,158.392807 141.271561C158.953293 140.711090,159.268234 139.950943,159.268234 139.158249Z" style="fill: rgb(100.000000%,100.000000%,100.000000%);stroke: none;"></path>
  <path d="M111.367126 190.816193C88.787399 200.427322,63.053421 187.014175,58.000000 163.000000C54.891327 148.227402,61.578110 133.470154,61.359146 118.462814C61.233704 109.865845,58.832382 101.497360,58.000000 92.946548C57.329010 86.053604,57.508102 78.691650,53.227982 73.207916C45.702744 63.566513,31.096405 64.852753,20.940430 73.284027C5.058762 86.468643,2.849365 109.233505,9.890671 129.138580C17.602951 150.940430,36.680283 167.784348,58.000000 163.000000C71.750626 159.914230,80.715912 147.878906,91.098297 138.484177C96.354675 133.727829,102.127640 129.590744,108.104019 125.780640C111.076385 123.885681,114.235367 121.714447,114.551727 118.241837C114.848801 114.981018,112.424728 112.368713,110.272644 109.886124C107.063126 106.183716,104.338669 102.077621,102.351898 97.597626C100.147644 92.627243,98.901886 87.308990,97.329208 82.107590C95.711731 76.758041,93.733490 71.334732,94.558456 65.789673C95.363770 60.376755,98.686172 55.834061,102.097244 51.567261C105.334213 47.518250,108.762589 43.457336,110.120224 38.440918C112.956543 27.960861,106.747269 17.425507,96.878906 12.288849C80.374023 3.697769,61.074814 11.000687,46.022736 22.755417C29.879959 35.361908,17.427536 53.486389,20.940430 73.284027C22.948914 84.603317,30.755386 94.407547,41.912415 95.666107C47.386292 96.283585,52.725159 94.483170,58.000000 92.946548C64.714218 90.990631,71.541336 89.449265,78.272415 87.552673C84.632401 85.760651,90.903961 83.652298,97.329208 82.107590C101.695709 81.057831,106.150192 80.262009,110.276627 78.479050C114.338287 76.724075,117.921524 74.083160,121.524246 71.521667C126.485809 67.994049,131.551727 64.579269,137.082230 62.028046C147.394592 57.270966,159.228729 55.730103,169.375565 60.713593C186.517166 69.132462,191.116882 90.220108,188.418015 109.877762C185.601303 130.393753,174.417206 150.065399,154.853668 151.971558C142.628815 153.162674,131.710220 146.079269,122.329224 138.074509C117.560928 134.005737,113.018341 129.672852,108.104019 125.780640C104.872162 123.220947,101.463913 120.159851,102.328384 116.271866C103.111053 112.751801,106.910934 111.318863,110.272644 109.886124C114.255386 108.188705,117.928925 105.866608,121.757767 103.849472C126.020157 101.603943,130.473053 99.737778,134.715347 97.454163C140.041412 94.587158,144.991211 91.088165,149.723801 87.323334C158.626602 80.241058,166.960251 71.825180,169.375565 60.713593C173.349274 42.432663,161.066513 25.473907,144.569031 15.478638C129.638733 6.432877,111.198090 2.901077,96.878906 12.288849C86.238098 19.265045,81.436569 32.656952,88.363403 42.370316C91.629456 46.950241,97.014664 49.196289,102.097244 51.567261C106.410110 53.579163,110.675629 55.827240,114.003387 59.238159C117.386353 62.705658,119.541473 67.109222,121.524246 71.521667C123.481155 75.876541,125.307480 80.293671,127.511292 84.529663C129.788208 88.906158,132.457184 93.067871,134.715347 97.454163C137.853897 103.550568,140.172455 110.027573,143.103943 116.225037C148.587326 127.817413,156.279495 139.158249,154.853668 151.971558C152.555115 172.627731,130.991867 182.462860,111.367126 190.816193" style="stroke:rgb(0.000000%,0.000000%,0.000000%); stroke-width: 0.498138;stroke-linecap: round;stroke-linejoin: round;stroke-miterlimit: 10.000000;fill: none;"></path>
  <path d="M111.367126 190.816193C88.787399 200.427322,63.053421 187.014175,58.000000 163.000000" style="stroke:rgb(0.000000%,0.000000%,0.000000%); stroke-width: 1.494400;stroke-linecap: round;stroke-linejoin: round;stroke-miterlimit: 10.000000;fill: none;"></path>
  <path d="M134.715347 97.454163C137.853897 103.550568,140.172455 110.027573,143.103943 116.225037C148.587326 127.817413,156.279495 139.158249,154.853668 151.971558C152.555115 172.627731,130.991867 182.462860,111.367126 190.816193" style="stroke:rgb(0.000000%,0.000000%,0.000000%); stroke-width: 1.494400;stroke-linecap: round;stroke-linejoin: round;stroke-miterlimit: 10.000000;fill: none;"></path>
  <path d="M60.988739 163.000000C60.988739 162.207306,60.673798 161.447159,60.113312 160.886688C59.552841 160.326202,58.792694 160.011261,58.000000 160.011261C57.207306 160.011261,56.447159 160.326202,55.886688 160.886688C55.326202 161.447159,55.011261 162.207306,55.011261 163.000000C55.011261 163.792694,55.326202 164.552841,55.886688 165.113312C56.447159 165.673798,57.207306 165.988739,58.000000 165.988739C58.792694 165.988739,59.552841 165.673798,60.113312 165.113312C60.673798 164.552841,60.988739 163.792694,60.988739 163.000000Z" style="fill: rgb(100.000000%,100.000000%,100.000000%);stroke: none;"></path>
  <path d="M28.842560 156.039124C37.240891 162.377289,47.340149 165.392166,58.000000 163.000000C64.875320 161.457108,70.554306 157.676834,75.812256 153.107941" style="stroke:rgb(0.000000%,0.000000%,0.000000%); stroke-width: 0.498138;stroke-linecap: round;stroke-linejoin: round;stroke-miterlimit: 10.000000;fill: none;"></path>
  <path d="M23.929169 73.284027C23.929169 72.491333,23.614227 71.731186,23.053741 71.170715C22.493271 70.610229,21.733124 70.295288,20.940430 70.295288C20.147736 70.295288,19.387589 70.610229,18.827118 71.170715C18.266632 71.731186,17.951691 72.491333,17.951691 73.284027C17.951691 74.076721,18.266632 74.836868,18.827118 75.397339C19.387589 75.957825,20.147736 76.272766,20.940430 76.272766C21.733124 76.272766,22.493271 75.957825,23.053741 75.397339C23.614227 74.836868,23.929169 74.076721,23.929169 73.284027Z" style="fill: rgb(100.000000%,100.000000%,100.000000%);stroke: none;"></path>
  <path d="M26.110703 45.323044C21.418869 53.904678,19.183990 63.385208,20.940430 73.284027C21.944672 78.943680,24.398422 84.224564,27.995728 88.247849" style="stroke:rgb(0.000000%,0.000000%,0.000000%); stroke-width: 0.498138;stroke-linecap: round;stroke-linejoin: round;stroke-miterlimit: 10.000000;fill: none;"></path>
  <path d="M111.092758 125.780640C111.092758 124.987946,110.777817 124.227798,110.217331 123.667328C109.656860 123.106842,108.896713 122.791901,108.104019 122.791901C107.311325 122.791901,106.551178 123.106842,105.990707 123.667328C105.430222 124.227798,105.115280 124.987946,105.115280 125.780640C105.115280 126.573334,105.430222 127.333481,105.990707 127.893951C106.551178 128.454437,107.311325 128.769379,108.104019 128.769379C108.896713 128.769379,109.656860 128.454437,110.217331 127.893951C110.777817 127.333481,111.092758 126.573334,111.092758 125.780640Z" style="fill: rgb(100.000000%,100.000000%,100.000000%);stroke: none;"></path>
  <path d="M115.271362 131.861359C112.925400 129.783020,110.561172 127.726746,108.104019 125.780640C106.488083 124.500793,104.828049 123.095596,103.680069 121.524353" style="stroke:rgb(0.000000%,0.000000%,0.000000%); stroke-width: 0.498138;stroke-linecap: round;stroke-linejoin: round;stroke-miterlimit: 10.000000;fill: none;"></path>
  <path d="M100.317947 82.107590C100.317947 81.314896,100.003006 80.554749,99.442520 79.994278C98.882050 79.433792,98.121902 79.118851,97.329208 79.118851C96.536514 79.118851,95.776367 79.433792,95.215897 79.994278C94.655411 80.554749,94.340469 81.314896,94.340469 82.107590C94.340469 82.900284,94.655411 83.660431,95.215897 84.220901C95.776367 84.781387,96.536514 85.096329,97.329208 85.096329C98.121902 85.096329,98.882050 84.781387,99.442520 84.220901C100.003006 83.660431,100.317947 82.900284,100.317947 82.107590Z" style="fill: rgb(100.000000%,100.000000%,100.000000%);stroke: none;"></path>
  <path d="M87.776352 84.737381C90.942398 83.793198,94.116592 82.879944,97.329208 82.107590C99.512466 81.582703,101.717712 81.121307,103.892960 80.568253" style="stroke:rgb(0.000000%,0.000000%,0.000000%); stroke-width: 0.498138;stroke-linecap: round;stroke-linejoin: round;stroke-miterlimit: 10.000000;fill: none;"></path>
  <path d="M99.867645 12.288849C99.867645 11.496155,99.552704 10.736008,98.992218 10.175537C98.431747 9.615051,97.671600 9.300110,96.878906 9.300110C96.086212 9.300110,95.326065 9.615051,94.765594 10.175537C94.205109 10.736008,93.890167 11.496155,93.890167 12.288849C93.890167 13.081543,94.205109 13.841690,94.765594 14.402161C95.326065 14.962646,96.086212 15.277588,96.878906 15.277588C97.671600 15.277588,98.431747 14.962646,98.992218 14.402161C99.552704 13.841690,99.867645 13.081543,99.867645 12.288849Z" style="fill: rgb(100.000000%,100.000000%,100.000000%);stroke: none;"></path>
  <path d="M108.263809 23.361099C105.832489 18.775177,101.813080 14.857178,96.878906 12.288849C88.626465 7.993301,79.675430 7.671265,70.906006 9.892456" style="stroke:rgb(0.000000%,0.000000%,0.000000%); stroke-width: 0.498138;stroke-linecap: round;stroke-linejoin: round;stroke-miterlimit: 10.000000;fill: none;"></path>
  <path d="M60.988739 92.946548C60.988739 92.153854,60.673798 91.393707,60.113312 90.833237C59.552841 90.272751,58.792694 89.957809,58.000000 89.957809C57.207306 89.957809,56.447159 90.272751,55.886688 90.833237C55.326202 91.393707,55.011261 92.153854,55.011261 92.946548C55.011261 93.739243,55.326202 94.499390,55.886688 95.059860C56.447159 95.620346,57.207306 95.935287,58.000000 95.935287C58.792694 95.935287,59.552841 95.620346,60.113312 95.059860C60.673798 94.499390,60.988739 93.739243,60.988739 92.946548Z" style="fill: rgb(100.000000%,100.000000%,100.000000%);stroke: none;"></path>
  <path d="M59.944656 105.687363C59.224609 101.451767,58.416183 97.221954,58.000000 92.946548C57.664505 89.500076,57.541534 85.936340,56.967407 82.548767" style="stroke:rgb(0.000000%,0.000000%,0.000000%); stroke-width: 0.498138;stroke-linecap: round;stroke-linejoin: round;stroke-miterlimit: 10.000000;fill: none;"></path>
  <path d="M124.512985 71.521667C124.512985 70.728973,124.198044 69.968826,123.637558 69.408356C123.077087 68.847870,122.316940 68.532928,121.524246 68.532928C120.731552 68.532928,119.971405 68.847870,119.410934 69.408356C118.850449 69.968826,118.535507 70.728973,118.535507 71.521667C118.535507 72.314362,118.850449 73.074509,119.410934 73.634979C119.971405 74.195465,120.731552 74.510406,121.524246 74.510406C122.316940 74.510406,123.077087 74.195465,123.637558 73.634979C124.198044 73.074509,124.512985 72.314362,124.512985 71.521667Z" style="fill: rgb(100.000000%,100.000000%,100.000000%);stroke: none;"></path>
  <path d="M118.288895 65.025574C119.498398 67.111450,120.532867 69.315445,121.524246 71.521667C122.502701 73.699112,123.448517 75.892120,124.425186 78.070267" style="stroke:rgb(0.000000%,0.000000%,0.000000%); stroke-width: 0.498138;stroke-linecap: round;stroke-linejoin: round;stroke-miterlimit: 10.000000;fill: none;"></path>
  <path d="M157.842407 151.971558C157.842407 151.178864,157.527466 150.418716,156.966980 149.858246C156.406509 149.297760,155.646362 148.982819,154.853668 148.982819C154.060974 148.982819,153.300827 149.297760,152.740356 149.858246C152.179871 150.418716,151.864929 151.178864,151.864929 151.971558C151.864929 152.764252,152.179871 153.524399,152.740356 154.084869C153.300827 154.645355,154.060974 154.960297,154.853668 154.960297C155.646362 154.960297,156.406509 154.645355,156.966980 154.084869C157.527466 153.524399,157.842407 152.764252,157.842407 151.971558Z" style="fill: rgb(100.000000%,100.000000%,100.000000%);stroke: none;"></path>
  <path d="M151.569763 133.640457C154.000000 139.526382,155.566574 145.564911,154.853668 151.971558C153.704391 162.299652,147.738937 169.922485,139.607712 176.007462" style="stroke:rgb(0.000000%,0.000000%,0.000000%); stroke-width: 1.494400;stroke-linecap: round;stroke-linejoin: round;stroke-miterlimit: 10.000000;fill: none;"></path>
  <path d="M113.261383 109.886124C113.261383 109.093430,112.946442 108.333282,112.385956 107.772812C111.825485 107.212326,111.065338 106.897385,110.272644 106.897385C109.479950 106.897385,108.719803 107.212326,108.159332 107.772812C107.598846 108.333282,107.283905 109.093430,107.283905 109.886124C107.283905 110.678818,107.598846 111.438965,108.159332 111.999435C108.719803 112.559921,109.479950 112.874863,110.272644 112.874863C111.065338 112.874863,111.825485 112.559921,112.385956 111.999435C112.946442 111.438965,113.261383 110.678818,113.261383 109.886124Z" style="fill: rgb(100.000000%,100.000000%,100.000000%);stroke: none;"></path>
  <path d="M113.330612 113.772141C112.492722 112.401138,111.348679 111.127411,110.272644 109.886124C108.667877 108.034912,107.184387 106.082779,105.853729 104.033447" style="stroke:rgb(0.000000%,0.000000%,0.000000%); stroke-width: 0.498138;stroke-linecap: round;stroke-linejoin: round;stroke-miterlimit: 10.000000;fill: none;"></path>
  <path d="M172.364304 60.713593C172.364304 59.920898,172.049362 59.160751,171.488876 58.600281C170.928406 58.039795,170.168259 57.724854,169.375565 57.724854C168.582870 57.724854,167.822723 58.039795,167.262253 58.600281C166.701767 59.160751,166.386826 59.920898,166.386826 60.713593C166.386826 61.506287,166.701767 62.266434,167.262253 62.826904C167.822723 63.387390,168.582870 63.702332,169.375565 63.702332C170.168259 63.702332,170.928406 63.387390,171.488876 62.826904C172.049362 62.266434,172.364304 61.506287,172.364304 60.713593Z" style="fill: rgb(100.000000%,100.000000%,100.000000%);stroke: none;"></path>
  <path d="M153.290985 57.718094C158.806915 57.361191,164.302155 58.221848,169.375565 60.713593C177.946365 64.923035,183.381699 72.299667,186.336975 81.081146" style="stroke:rgb(0.000000%,0.000000%,0.000000%); stroke-width: 0.498138;stroke-linecap: round;stroke-linejoin: round;stroke-miterlimit: 10.000000;fill: none;"></path>
  <path d="M105.085983 51.567261C105.085983 50.774567,104.771042 50.014420,104.210556 49.453949C103.650085 48.893463,102.889938 48.578522,102.097244 48.578522C101.304550 48.578522,100.544403 48.893463,99.983932 49.453949C99.423447 50.014420,99.108505 50.774567,99.108505 51.567261C99.108505 52.359955,99.423447 53.120102,99.983932 53.680573C100.544403 54.241058,101.304550 54.556000,102.097244 54.556000C102.889938 54.556000,103.650085 54.241058,104.210556 53.680573C104.771042 53.120102,105.085983 52.359955,105.085983 51.567261Z" style="fill: rgb(100.000000%,100.000000%,100.000000%);stroke: none;"></path>
  <path d="M94.549133 47.797150C96.939011 49.227524,99.555954 50.381775,102.097244 51.567261C104.253677 52.573212,106.398285 53.638214,108.419739 54.878082" style="stroke:rgb(0.000000%,0.000000%,0.000000%); stroke-width: 0.498138;stroke-linecap: round;stroke-linejoin: round;stroke-miterlimit: 10.000000;fill: none;"></path>
  <path d="M137.704086 97.454163C137.704086 96.661469,137.389145 95.901321,136.828659 95.340851C136.268188 94.780365,135.508041 94.465424,134.715347 94.465424C133.922653 94.465424,133.162506 94.780365,132.602036 95.340851C132.041550 95.901321,131.726608 96.661469,131.726608 97.454163C131.726608 98.246857,132.041550 99.007004,132.602036 99.567474C133.162506 100.127960,133.922653 100.442902,134.715347 100.442902C135.508041 100.442902,136.268188 100.127960,136.828659 99.567474C137.389145 99.007004,137.704086 98.246857,137.704086 97.454163Z" style="fill: rgb(100.000000%,100.000000%,100.000000%);stroke: none;"></path>
  <path d="M128.244110 100.666092C130.420410 99.633408,132.594208 98.595963,134.715347 97.454163C137.378387 96.020660,139.947357 94.429153,142.442139 92.725418" style="stroke:rgb(0.000000%,0.000000%,0.000000%); stroke-width: 0.498138;stroke-linecap: round;stroke-linejoin: round;stroke-miterlimit: 10.000000;fill: none;"></path>
  <path d="M143.103943 116.225037C147.490662 125.498978,153.291031 134.611923,154.705643 144.446594" style="stroke:rgb(0.000000%,0.000000%,0.000000%); stroke-width: 0.498138;stroke-linecap: round;stroke-linejoin: round;stroke-miterlimit: 10.000000;fill: none;"></path>
  <path d="M151.861862 140.333984C152.900070 141.648514,153.855881 143.014633,154.705643 144.446594C155.117355 142.833176,155.407516 141.191330,155.602921 139.527679Z" style="stroke:rgb(0.000000%,0.000000%,0.000000%); stroke-width: 0.498138;fill: rgb(0.000000%,0.000000%,0.000000%);"></path>
  <path d="M143.103943 116.225037C147.490662 125.498978,153.291031 134.611923,154.705643 144.446594" style="stroke:rgb(0.000000%,0.000000%,0.000000%); stroke-width: 0.498138;stroke-linecap: round;stroke-linejoin: round;stroke-miterlimit: 10.000000;fill: none;"></path>
  <path d="M153.065018 141.934814C153.646729 142.750381,154.195297 143.586609,154.705643 144.446594C154.952896 143.477631,155.156311 142.498428,155.321701 141.510406Z" style="stroke:rgb(0.000000%,0.000000%,0.000000%); stroke-width: 0.498138;fill: rgb(0.000000%,0.000000%,0.000000%);"></path>
  <path d="M53.227982 73.207916C47.207764 65.494766,36.655609 64.775360,27.475693 69.112976" style="stroke:rgb(0.000000%,0.000000%,0.000000%); stroke-width: 0.498138;stroke-linecap: round;stroke-linejoin: round;stroke-miterlimit: 10.000000;fill: none;"></path>
  <path d="M29.601334 66.996140C28.864182 67.658066,28.154099 68.365005,27.475693 69.112976C28.484299 69.063797,29.486282 69.066055,30.475571 69.119247Z" style="stroke:rgb(0.000000%,0.000000%,0.000000%); stroke-width: 0.498138;fill: rgb(0.000000%,0.000000%,0.000000%);"></path>
  <path d="M91.098297 138.484177C95.303421 134.679077,99.839157 131.270325,104.545166 128.108246" style="stroke:rgb(0.000000%,0.000000%,0.000000%); stroke-width: 0.498138;stroke-linecap: round;stroke-linejoin: round;stroke-miterlimit: 10.000000;fill: none;"></path>
  <path d="M102.909271 130.623001C103.445999 129.779419,103.991669 128.941299,104.545166 128.108246C103.564728 128.305893,102.586227 128.512665,101.610199 128.729660Z" style="stroke:rgb(0.000000%,0.000000%,0.000000%); stroke-width: 0.498138;fill: rgb(0.000000%,0.000000%,0.000000%);"></path>
  <path d="M114.551727 118.241837C114.789383 115.633179,113.285492 113.439560,111.572556 111.395355" style="stroke:rgb(0.000000%,0.000000%,0.000000%); stroke-width: 0.498138;stroke-linecap: round;stroke-linejoin: round;stroke-miterlimit: 10.000000;fill: none;"></path>
  <path d="M114.141754 112.944290C113.353394 112.365784,112.472839 111.864761,111.572556 111.395355C111.877197 112.363876,112.145569 113.340820,112.293945 114.307327Z" style="stroke:rgb(0.000000%,0.000000%,0.000000%); stroke-width: 0.498138;fill: rgb(0.000000%,0.000000%,0.000000%);"></path>
  <path d="M41.912415 95.666107C46.291534 96.160095,50.584244 95.106613,54.826904 93.878708" style="stroke:rgb(0.000000%,0.000000%,0.000000%); stroke-width: 0.498138;stroke-linecap: round;stroke-linejoin: round;stroke-miterlimit: 10.000000;fill: none;"></path>
  <path d="M52.456787 95.717972C53.256973 95.121918,54.044830 94.503952,54.826904 93.878708C53.831787 93.767807,52.837723 93.647644,51.850433 93.503281Z" style="stroke:rgb(0.000000%,0.000000%,0.000000%); stroke-width: 0.498138;fill: rgb(0.000000%,0.000000%,0.000000%);"></path>
  <path d="M110.276627 78.479050C113.525970 77.075058,116.469116 75.104065,119.360992 73.060349" style="stroke:rgb(0.000000%,0.000000%,0.000000%); stroke-width: 0.498138;stroke-linecap: round;stroke-linejoin: round;stroke-miterlimit: 10.000000;fill: none;"></path>
  <path d="M117.731674 75.579391C118.287170 74.748901,118.827072 73.906525,119.360992 73.060349C118.385117 73.281128,117.407684 73.494995,116.427658 73.689438Z" style="stroke:rgb(0.000000%,0.000000%,0.000000%); stroke-width: 0.498138;fill: rgb(0.000000%,0.000000%,0.000000%);"></path>
  <path d="M137.082230 62.028046C145.332153 58.222366,154.556015 56.475082,163.110748 58.479980" style="stroke:rgb(0.000000%,0.000000%,0.000000%); stroke-width: 0.498138;stroke-linecap: round;stroke-linejoin: round;stroke-miterlimit: 10.000000;fill: none;"></path>
  <path d="M160.177399 59.108322C161.143692 58.852631,162.121887 58.642090,163.110748 58.479980C162.296906 57.895386,161.456345 57.352539,160.592285 56.850052Z" style="stroke:rgb(0.000000%,0.000000%,0.000000%); stroke-width: 0.498138;fill: rgb(0.000000%,0.000000%,0.000000%);"></path>
  <path d="M102.328384 116.271866C102.954529 113.455795,105.511688 111.975510,108.230698 110.762482" style="stroke:rgb(0.000000%,0.000000%,0.000000%); stroke-width: 0.498138;stroke-linecap: round;stroke-linejoin: round;stroke-miterlimit: 10.000000;fill: none;"></path>
  <path d="M106.299179 113.058029C106.858994 112.262909,107.530106 111.501877,108.230698 110.762482C107.212479 110.789902,106.199783 110.853455,105.241714 111.019821Z" style="stroke:rgb(0.000000%,0.000000%,0.000000%); stroke-width: 0.498138;fill: rgb(0.000000%,0.000000%,0.000000%);"></path>
  <path d="M121.757767 103.849472C125.167694 102.053040,128.699539 100.499405,132.147934 98.780594" style="stroke:rgb(0.000000%,0.000000%,0.000000%); stroke-width: 0.498138;stroke-linecap: round;stroke-linejoin: round;stroke-miterlimit: 10.000000;fill: none;"></path>
  <path d="M130.157455 101.025070C130.826370 100.281570,131.491882 99.535156,132.147934 98.780594C131.150482 98.850220,130.152084 98.907425,129.153366 98.960159Z" style="stroke:rgb(0.000000%,0.000000%,0.000000%); stroke-width: 0.498138;fill: rgb(0.000000%,0.000000%,0.000000%);"></path>
  <path d="M127.511292 84.529663C129.332825 88.030869,131.405289 91.394608,133.317581 94.845856" style="stroke:rgb(0.000000%,0.000000%,0.000000%); stroke-width: 0.498138;stroke-linecap: round;stroke-linejoin: round;stroke-miterlimit: 10.000000;fill: none;"></path>
  <path d="M130.953049 92.999573C131.745407 93.609848,132.535172 94.223282,133.317581 94.845856C133.204575 93.852371,133.079910 92.860153,132.951187 91.868347Z" style="stroke:rgb(0.000000%,0.000000%,0.000000%); stroke-width: 0.498138;fill: rgb(0.000000%,0.000000%,0.000000%);"></path>
  <path d="M108.376480 193.526398L114.357773 193.526398L114.357773 186.106003L108.376480 186.106003Z" style="fill: rgb(100.000000%,100.000000%,100.000000%);stroke: none;"></path>
  <path d="M108.376480 195.526398L114.357773 195.526398L114.357773 188.106003L108.376480 188.106003Z" style="fill: rgb(100.000000%,100.000000%,100.000000%);stroke: none;"></path>
  <g transform="translate(108.876480 194.026398)" style="fill: rgb(0.000000%,0.000000%,0.000000%);">
    <use xlink:href="#GLYPHcmr10_49"></use>
  </g>
  <path d="M58.368500 121.173019L64.349792 121.173019L64.349792 113.752625L58.368500 113.752625Z" style="fill: rgb(100.000000%,100.000000%,100.000000%);stroke: none;"></path>
  <path d="M58.368500 123.173019L64.349792 123.173019L64.349792 115.752625L58.368500 115.752625Z" style="fill: rgb(100.000000%,100.000000%,100.000000%);stroke: none;"></path>
  <g transform="translate(58.868500 121.673019)" style="fill: rgb(0.000000%,0.000000%,0.000000%);">
    <use xlink:href="#GLYPHcmr10_50"></use>
  </g>
  <path d="M6.900024 131.848785L12.881317 131.848785L12.881317 124.428391L6.900024 124.428391Z" style="fill: rgb(100.000000%,100.000000%,100.000000%);stroke: none;"></path>
  <path d="M6.900024 133.848785L12.881317 133.848785L12.881317 126.428391L6.900024 126.428391Z" style="fill: rgb(100.000000%,100.000000%,100.000000%);stroke: none;"></path>
  <g transform="translate(7.400024 132.348785)" style="fill: rgb(0.000000%,0.000000%,0.000000%);">
    <use xlink:href="#GLYPHcmr10_51"></use>
  </g>
  <path d="M99.361252 100.307831L105.342545 100.307831L105.342545 92.887436L99.361252 92.887436Z" style="fill: rgb(100.000000%,100.000000%,100.000000%);stroke: none;"></path>
  <path d="M99.361252 102.307831L105.342545 102.307831L105.342545 94.887436L99.361252 94.887436Z" style="fill: rgb(100.000000%,100.000000%,100.000000%);stroke: none;"></path>
  <g transform="translate(99.861252 100.807831)" style="fill: rgb(0.000000%,0.000000%,0.000000%);">
    <use xlink:href="#GLYPHcmr10_52"></use>
  </g>
  <path d="M91.567810 68.499878L97.549103 68.499878L97.549103 61.079483L91.567810 61.079483Z" style="fill: rgb(100.000000%,100.000000%,100.000000%);stroke: none;"></path>
  <path d="M91.567810 70.499878L97.549103 70.499878L97.549103 63.079483L91.567810 63.079483Z" style="fill: rgb(100.000000%,100.000000%,100.000000%);stroke: none;"></path>
  <g transform="translate(92.067810 68.999878)" style="fill: rgb(0.000000%,0.000000%,0.000000%);">
    <use xlink:href="#GLYPHcmr10_53"></use>
  </g>
  <path d="M43.032089 25.465622L49.013382 25.465622L49.013382 18.045227L43.032089 18.045227Z" style="fill: rgb(100.000000%,100.000000%,100.000000%);stroke: none;"></path>
  <path d="M43.032089 27.465622L49.013382 27.465622L49.013382 20.045227L43.032089 20.045227Z" style="fill: rgb(100.000000%,100.000000%,100.000000%);stroke: none;"></path>
  <g transform="translate(43.532089 25.965622)" style="fill: rgb(0.000000%,0.000000%,0.000000%);">
    <use xlink:href="#GLYPHcmr10_54"></use>
  </g>
  <path d="M75.281769 90.262878L81.263062 90.262878L81.263062 82.842484L75.281769 82.842484Z" style="fill: rgb(100.000000%,100.000000%,100.000000%);stroke: none;"></path>
  <path d="M75.281769 92.262878L81.263062 92.262878L81.263062 84.842484L75.281769 84.842484Z" style="fill: rgb(100.000000%,100.000000%,100.000000%);stroke: none;"></path>
  <g transform="translate(75.781769 90.762878)" style="fill: rgb(0.000000%,0.000000%,0.000000%);">
    <use xlink:href="#GLYPHcmr10_55"></use>
  </g>
  <path d="M185.427368 112.587967L191.408661 112.587967L191.408661 105.167572L185.427368 105.167572Z" style="fill: rgb(100.000000%,100.000000%,100.000000%);stroke: none;"></path>
  <path d="M185.427368 114.587967L191.408661 114.587967L191.408661 107.167572L185.427368 107.167572Z" style="fill: rgb(100.000000%,100.000000%,100.000000%);stroke: none;"></path>
  <g transform="translate(185.927368 113.087967)" style="fill: rgb(0.000000%,0.000000%,0.000000%);">
    <use xlink:href="#GLYPHcmr10_56"></use>
  </g>
  <path d="M119.338577 140.784714L125.319870 140.784714L125.319870 133.364319L119.338577 133.364319Z" style="fill: rgb(100.000000%,100.000000%,100.000000%);stroke: none;"></path>
  <path d="M119.338577 142.784714L125.319870 142.784714L125.319870 135.364319L119.338577 135.364319Z" style="fill: rgb(100.000000%,100.000000%,100.000000%);stroke: none;"></path>
  <g transform="translate(119.838577 141.284714)" style="fill: rgb(0.000000%,0.000000%,0.000000%);">
    <use xlink:href="#GLYPHcmr10_57"></use>
  </g>
  <path d="M144.242447 90.033539L155.205154 90.033539L155.205154 82.613144L144.242447 82.613144Z" style="fill: rgb(100.000000%,100.000000%,100.000000%);stroke: none;"></path>
  <path d="M144.242447 92.033539L155.205154 92.033539L155.205154 84.613144L144.242447 84.613144Z" style="fill: rgb(100.000000%,100.000000%,100.000000%);stroke: none;"></path>
  <g transform="translate(144.742447 90.533539)" style="fill: rgb(0.000000%,0.000000%,0.000000%);">
    <use xlink:href="#GLYPHcmr10_49"></use>
    <use xlink:href="#GLYPHcmr10_48" x="5.000095"></use>
  </g>
  <path d="M139.087677 18.188843L150.050385 18.188843L150.050385 10.768448L139.087677 10.768448Z" style="fill: rgb(100.000000%,100.000000%,100.000000%);stroke: none;"></path>
  <path d="M139.087677 20.188843L150.050385 20.188843L150.050385 12.768448L139.087677 12.768448Z" style="fill: rgb(100.000000%,100.000000%,100.000000%);stroke: none;"></path>
  <g transform="translate(139.587677 18.688843)" style="fill: rgb(0.000000%,0.000000%,0.000000%);">
    <use xlink:href="#GLYPHcmr10_49"></use>
    <use xlink:href="#GLYPHcmr10_49" x="5.000095"></use>
  </g>
  <path d="M82.882050 45.080521L93.844757 45.080521L93.844757 37.660126L82.882050 37.660126Z" style="fill: rgb(100.000000%,100.000000%,100.000000%);stroke: none;"></path>
  <path d="M82.882050 47.080521L93.844757 47.080521L93.844757 39.660126L82.882050 39.660126Z" style="fill: rgb(100.000000%,100.000000%,100.000000%);stroke: none;"></path>
  <g transform="translate(83.382050 45.580521)" style="fill: rgb(0.000000%,0.000000%,0.000000%);">
    <use xlink:href="#GLYPHcmr10_49"></use>
    <use xlink:href="#GLYPHcmr10_50" x="5.000095"></use>
  </g>
</svg>
