<?xml version="1.0"?>
<!-- Created by MetaPost 1.999 on 2021.07.05:2356 -->
<svg version="1.1" xmlns="http://www.w3.org/2000/svg" xmlns:xlink="http://www.w3.org/1999/xlink" width="199.277496" height="195.734695" viewBox="0 0 199.277496 195.734695">
<!-- Original BoundingBox: -161.710205 -58.312393 37.567291 137.422302 -->
  <defs>
    <g transform="scale(0.009963,0.009963)" id="GLYPHcmr10_48">
      <path style="fill-rule: evenodd;" d="M460.000000 -320.000000C460.000000 -400.000000,455.000000 -480.000000,420.000000 -554.000000C374.000000 -650.000000,292.000000 -666.000000,250.000000 -666.000000C190.000000 -666.000000,117.000000 -640.000000,76.000000 -547.000000C44.000000 -478.000000,39.000000 -400.000000,39.000000 -320.000000C39.000000 -245.000000,43.000000 -155.000000,84.000000 -79.000000C127.000000 2.000000,200.000000 22.000000,249.000000 22.000000C303.000000 22.000000,379.000000 1.000000,423.000000 -94.000000C455.000000 -163.000000,460.000000 -241.000000,460.000000 -320.000000M249.000000 -0.000000C210.000000 -0.000000,151.000000 -25.000000,133.000000 -121.000000C122.000000 -181.000000,122.000000 -273.000000,122.000000 -332.000000C122.000000 -396.000000,122.000000 -462.000000,130.000000 -516.000000C149.000000 -635.000000,224.000000 -644.000000,249.000000 -644.000000C282.000000 -644.000000,348.000000 -626.000000,367.000000 -527.000000C377.000000 -471.000000,377.000000 -395.000000,377.000000 -332.000000C377.000000 -257.000000,377.000000 -189.000000,366.000000 -125.000000C351.000000 -30.000000,294.000000 -0.000000,249.000000 -0.000000"></path>
    </g>
    <g transform="scale(0.009963,0.009963)" id="GLYPHcmr10_49">
      <path style="fill-rule: evenodd;" d="M294.000000 -640.000000C294.000000 -664.000000,294.000000 -666.000000,271.000000 -666.000000C209.000000 -602.000000,121.000000 -602.000000,89.000000 -602.000000L89.000000 -571.000000C109.000000 -571.000000,168.000000 -571.000000,220.000000 -597.000000L220.000000 -79.000000C220.000000 -43.000000,217.000000 -31.000000,127.000000 -31.000000L95.000000 -31.000000L95.000000 -0.000000L257.000000 -0.000000L130.000000 -3.000000L217.000000 -3.000000L257.000000 -3.000000L297.000000 -3.000000L384.000000 -3.000000L419.000000 -0.000000L419.000000 -31.000000L387.000000 -31.000000C297.000000 -31.000000,294.000000 -42.000000,294.000000 -79.000000"></path>
    </g>
    <g transform="scale(0.009963,0.009963)" id="GLYPHcmr10_50">
      <path style="fill-rule: evenodd;" d="M127.000000 -77.000000L233.000000 -180.000000C389.000000 -318.000000,449.000000 -372.000000,449.000000 -472.000000C449.000000 -586.000000,359.000000 -666.000000,237.000000 -666.000000C124.000000 -666.000000,50.000000 -574.000000,50.000000 -485.000000C50.000000 -429.000000,100.000000 -429.000000,103.000000 -429.000000C120.000000 -429.000000,155.000000 -441.000000,155.000000 -482.000000C155.000000 -508.000000,137.000000 -534.000000,102.000000 -534.000000C94.000000 -534.000000,92.000000 -534.000000,89.000000 -533.000000C112.000000 -598.000000,166.000000 -635.000000,224.000000 -635.000000C315.000000 -635.000000,358.000000 -554.000000,358.000000 -472.000000C358.000000 -392.000000,308.000000 -313.000000,253.000000 -251.000000L61.000000 -37.000000C50.000000 -26.000000,50.000000 -24.000000,50.000000 -0.000000L421.000000 -0.000000L449.000000 -174.000000L424.000000 -174.000000C419.000000 -144.000000,412.000000 -100.000000,402.000000 -85.000000C395.000000 -77.000000,329.000000 -77.000000,307.000000 -77.000000"></path>
    </g>
    <g transform="scale(0.009963,0.009963)" id="GLYPHcmr10_51">
      <path style="fill-rule: evenodd;" d="M290.000000 -352.000000C372.000000 -379.000000,430.000000 -449.000000,430.000000 -528.000000C430.000000 -610.000000,342.000000 -666.000000,246.000000 -666.000000C145.000000 -666.000000,69.000000 -606.000000,69.000000 -530.000000C69.000000 -497.000000,91.000000 -478.000000,120.000000 -478.000000C151.000000 -478.000000,171.000000 -500.000000,171.000000 -529.000000C171.000000 -579.000000,124.000000 -579.000000,109.000000 -579.000000C140.000000 -628.000000,206.000000 -641.000000,242.000000 -641.000000C283.000000 -641.000000,338.000000 -619.000000,338.000000 -529.000000C338.000000 -517.000000,336.000000 -459.000000,310.000000 -415.000000C280.000000 -367.000000,246.000000 -364.000000,221.000000 -363.000000C213.000000 -362.000000,189.000000 -360.000000,182.000000 -360.000000C174.000000 -359.000000,167.000000 -358.000000,167.000000 -348.000000C167.000000 -337.000000,174.000000 -337.000000,191.000000 -337.000000L235.000000 -337.000000C317.000000 -337.000000,354.000000 -269.000000,354.000000 -171.000000C354.000000 -35.000000,285.000000 -6.000000,241.000000 -6.000000C198.000000 -6.000000,123.000000 -23.000000,88.000000 -82.000000C123.000000 -77.000000,154.000000 -99.000000,154.000000 -137.000000C154.000000 -173.000000,127.000000 -193.000000,98.000000 -193.000000C74.000000 -193.000000,42.000000 -179.000000,42.000000 -135.000000C42.000000 -44.000000,135.000000 22.000000,244.000000 22.000000C366.000000 22.000000,457.000000 -69.000000,457.000000 -171.000000C457.000000 -253.000000,394.000000 -331.000000,290.000000 -352.000000"></path>
    </g>
    <g transform="scale(0.009963,0.009963)" id="GLYPHcmr10_52">
      <path style="fill-rule: evenodd;" d="M294.000000 -165.000000L294.000000 -78.000000C294.000000 -42.000000,292.000000 -31.000000,218.000000 -31.000000L197.000000 -31.000000L197.000000 -0.000000L332.000000 -0.000000L238.000000 -3.000000L290.000000 -3.000000L332.000000 -3.000000L374.000000 -3.000000L427.000000 -3.000000L468.000000 -0.000000L468.000000 -31.000000L447.000000 -31.000000C373.000000 -31.000000,371.000000 -42.000000,371.000000 -78.000000L371.000000 -165.000000L471.000000 -165.000000L471.000000 -196.000000L371.000000 -196.000000L371.000000 -651.000000C371.000000 -671.000000,371.000000 -677.000000,355.000000 -677.000000C346.000000 -677.000000,343.000000 -677.000000,335.000000 -665.000000L28.000000 -196.000000L28.000000 -165.000000M300.000000 -196.000000L56.000000 -196.000000L300.000000 -569.000000"></path>
    </g>
    <g transform="scale(0.009963,0.009963)" id="GLYPHcmr10_53">
      <path style="fill-rule: evenodd;" d="M449.000000 -201.000000C449.000000 -320.000000,367.000000 -420.000000,259.000000 -420.000000C211.000000 -420.000000,168.000000 -404.000000,132.000000 -369.000000L132.000000 -564.000000C152.000000 -558.000000,185.000000 -551.000000,217.000000 -551.000000C340.000000 -551.000000,410.000000 -642.000000,410.000000 -655.000000C410.000000 -661.000000,407.000000 -666.000000,400.000000 -666.000000C399.000000 -666.000000,397.000000 -666.000000,392.000000 -663.000000C372.000000 -654.000000,323.000000 -634.000000,256.000000 -634.000000C216.000000 -634.000000,170.000000 -641.000000,123.000000 -662.000000C115.000000 -665.000000,113.000000 -665.000000,111.000000 -665.000000C101.000000 -665.000000,101.000000 -657.000000,101.000000 -641.000000L101.000000 -345.000000C101.000000 -327.000000,101.000000 -319.000000,115.000000 -319.000000C122.000000 -319.000000,124.000000 -322.000000,128.000000 -328.000000C139.000000 -344.000000,176.000000 -398.000000,257.000000 -398.000000C309.000000 -398.000000,334.000000 -352.000000,342.000000 -334.000000C358.000000 -297.000000,360.000000 -258.000000,360.000000 -208.000000C360.000000 -173.000000,360.000000 -113.000000,336.000000 -71.000000C312.000000 -32.000000,275.000000 -6.000000,229.000000 -6.000000C156.000000 -6.000000,99.000000 -59.000000,82.000000 -118.000000C85.000000 -117.000000,88.000000 -116.000000,99.000000 -116.000000C132.000000 -116.000000,149.000000 -141.000000,149.000000 -165.000000C149.000000 -189.000000,132.000000 -214.000000,99.000000 -214.000000C85.000000 -214.000000,50.000000 -207.000000,50.000000 -161.000000C50.000000 -75.000000,119.000000 22.000000,231.000000 22.000000C347.000000 22.000000,449.000000 -74.000000,449.000000 -201.000000"></path>
    </g>
    <g transform="scale(0.009963,0.009963)" id="GLYPHcmr10_54">
      <path style="fill-rule: evenodd;" d="M132.000000 -328.000000L132.000000 -352.000000C132.000000 -605.000000,256.000000 -641.000000,307.000000 -641.000000C331.000000 -641.000000,373.000000 -635.000000,395.000000 -601.000000C380.000000 -601.000000,340.000000 -601.000000,340.000000 -556.000000C340.000000 -525.000000,364.000000 -510.000000,386.000000 -510.000000C402.000000 -510.000000,432.000000 -519.000000,432.000000 -558.000000C432.000000 -618.000000,388.000000 -666.000000,305.000000 -666.000000C177.000000 -666.000000,42.000000 -537.000000,42.000000 -316.000000C42.000000 -49.000000,158.000000 22.000000,251.000000 22.000000C362.000000 22.000000,457.000000 -72.000000,457.000000 -204.000000C457.000000 -331.000000,368.000000 -427.000000,257.000000 -427.000000C189.000000 -427.000000,152.000000 -376.000000,132.000000 -328.000000M251.000000 -6.000000C188.000000 -6.000000,158.000000 -66.000000,152.000000 -81.000000C134.000000 -128.000000,134.000000 -208.000000,134.000000 -226.000000C134.000000 -304.000000,166.000000 -404.000000,256.000000 -404.000000C272.000000 -404.000000,318.000000 -404.000000,349.000000 -342.000000C367.000000 -305.000000,367.000000 -254.000000,367.000000 -205.000000C367.000000 -157.000000,367.000000 -107.000000,350.000000 -71.000000C320.000000 -11.000000,274.000000 -6.000000,251.000000 -6.000000"></path>
    </g>
    <g transform="scale(0.009963,0.009963)" id="GLYPHcmr10_55">
      <path style="fill-rule: evenodd;" d="M476.000000 -609.000000C485.000000 -621.000000,485.000000 -623.000000,485.000000 -644.000000L242.000000 -644.000000C120.000000 -644.000000,118.000000 -657.000000,114.000000 -676.000000L89.000000 -676.000000L56.000000 -470.000000L81.000000 -470.000000C84.000000 -486.000000,93.000000 -549.000000,106.000000 -561.000000C113.000000 -567.000000,191.000000 -567.000000,204.000000 -567.000000L411.000000 -567.000000C400.000000 -551.000000,321.000000 -442.000000,299.000000 -409.000000C209.000000 -274.000000,176.000000 -135.000000,176.000000 -33.000000C176.000000 -23.000000,176.000000 22.000000,222.000000 22.000000C268.000000 22.000000,268.000000 -23.000000,268.000000 -33.000000L268.000000 -84.000000C268.000000 -139.000000,271.000000 -194.000000,279.000000 -248.000000C283.000000 -271.000000,297.000000 -357.000000,341.000000 -419.000000"></path>
    </g>
    <g transform="scale(0.009963,0.009963)" id="GLYPHcmr10_56">
      <path style="fill-rule: evenodd;" d="M163.000000 -457.000000C117.000000 -487.000000,113.000000 -521.000000,113.000000 -538.000000C113.000000 -599.000000,178.000000 -641.000000,249.000000 -641.000000C322.000000 -641.000000,386.000000 -589.000000,386.000000 -517.000000C386.000000 -460.000000,347.000000 -412.000000,287.000000 -377.000000M309.000000 -362.000000C381.000000 -399.000000,430.000000 -451.000000,430.000000 -517.000000C430.000000 -609.000000,341.000000 -666.000000,250.000000 -666.000000C150.000000 -666.000000,69.000000 -592.000000,69.000000 -499.000000C69.000000 -481.000000,71.000000 -436.000000,113.000000 -389.000000C124.000000 -377.000000,161.000000 -352.000000,186.000000 -335.000000C128.000000 -306.000000,42.000000 -250.000000,42.000000 -151.000000C42.000000 -45.000000,144.000000 22.000000,249.000000 22.000000C362.000000 22.000000,457.000000 -61.000000,457.000000 -168.000000C457.000000 -204.000000,446.000000 -249.000000,408.000000 -291.000000C389.000000 -312.000000,373.000000 -322.000000,309.000000 -362.000000M209.000000 -320.000000L332.000000 -242.000000C360.000000 -223.000000,407.000000 -193.000000,407.000000 -132.000000C407.000000 -58.000000,332.000000 -6.000000,250.000000 -6.000000C164.000000 -6.000000,92.000000 -68.000000,92.000000 -151.000000C92.000000 -209.000000,124.000000 -273.000000,209.000000 -320.000000"></path>
    </g>
    <g transform="scale(0.009963,0.009963)" id="GLYPHcmr10_57">
      <path style="fill-rule: evenodd;" d="M367.000000 -318.000000L367.000000 -286.000000C367.000000 -52.000000,263.000000 -6.000000,205.000000 -6.000000C188.000000 -6.000000,134.000000 -8.000000,107.000000 -42.000000C151.000000 -42.000000,159.000000 -71.000000,159.000000 -88.000000C159.000000 -119.000000,135.000000 -134.000000,113.000000 -134.000000C97.000000 -134.000000,67.000000 -125.000000,67.000000 -86.000000C67.000000 -19.000000,121.000000 22.000000,206.000000 22.000000C335.000000 22.000000,457.000000 -114.000000,457.000000 -329.000000C457.000000 -598.000000,342.000000 -666.000000,253.000000 -666.000000C198.000000 -666.000000,149.000000 -648.000000,106.000000 -603.000000C65.000000 -558.000000,42.000000 -516.000000,42.000000 -441.000000C42.000000 -316.000000,130.000000 -218.000000,242.000000 -218.000000C303.000000 -218.000000,344.000000 -260.000000,367.000000 -318.000000M243.000000 -241.000000C227.000000 -241.000000,181.000000 -241.000000,150.000000 -304.000000C132.000000 -341.000000,132.000000 -391.000000,132.000000 -440.000000C132.000000 -494.000000,132.000000 -541.000000,153.000000 -578.000000C180.000000 -628.000000,218.000000 -641.000000,253.000000 -641.000000C299.000000 -641.000000,332.000000 -607.000000,349.000000 -562.000000C361.000000 -530.000000,365.000000 -467.000000,365.000000 -421.000000C365.000000 -338.000000,331.000000 -241.000000,243.000000 -241.000000"></path>
    </g>
  </defs>
  <path d="M132.210541 138.266708C132.210541 137.474014,131.895599 136.713867,131.335114 136.153397C130.774643 135.592911,130.014496 135.277969,129.221802 135.277969C128.429108 135.277969,127.668961 135.592911,127.108490 136.153397C126.548004 136.713867,126.233063 137.474014,126.233063 138.266708C126.233063 139.059402,126.548004 139.819550,127.108490 140.380020C127.668961 140.940506,128.429108 141.255447,129.221802 141.255447C130.014496 141.255447,130.774643 140.940506,131.335114 140.380020C131.895599 139.819550,132.210541 139.059402,132.210541 138.266708Z" style="fill: rgb(100.000000%,100.000000%,100.000000%);stroke: none;"></path>
  <path d="M120.452774 127.520111C120.452774 126.727417,120.137833 125.967270,119.577347 125.406799C119.016876 124.846313,118.256729 124.531372,117.464035 124.531372C116.671341 124.531372,115.911194 124.846313,115.350723 125.406799C114.790237 125.967270,114.475296 126.727417,114.475296 127.520111C114.475296 128.312805,114.790237 129.072952,115.350723 129.633423C115.911194 130.193909,116.671341 130.508850,117.464035 130.508850C118.256729 130.508850,119.016876 130.193909,119.577347 129.633423C120.137833 129.072952,120.452774 128.312805,120.452774 127.520111Z" style="fill: rgb(100.000000%,100.000000%,100.000000%);stroke: none;"></path>
  <path d="M185.378098 130.108459C185.378098 129.315765,185.063156 128.555618,184.502670 127.995148C183.942200 127.434662,183.182053 127.119720,182.389359 127.119720C181.596664 127.119720,180.836517 127.434662,180.276047 127.995148C179.715561 128.555618,179.400620 129.315765,179.400620 130.108459C179.400620 130.901154,179.715561 131.661301,180.276047 132.221771C180.836517 132.782257,181.596664 133.097198,182.389359 133.097198C183.182053 133.097198,183.942200 132.782257,184.502670 132.221771C185.063156 131.661301,185.378098 130.901154,185.378098 130.108459Z" style="fill: rgb(100.000000%,100.000000%,100.000000%);stroke: none;"></path>
  <path d="M148.827225 141.884964C148.827225 141.092270,148.512283 140.332123,147.951797 139.771652C147.391327 139.211166,146.631180 138.896225,145.838486 138.896225C145.045792 138.896225,144.285645 139.211166,143.725174 139.771652C143.164688 140.332123,142.849747 141.092270,142.849747 141.884964C142.849747 142.677658,143.164688 143.437805,143.725174 143.998276C144.285645 144.558762,145.045792 144.873703,145.838486 144.873703C146.631180 144.873703,147.391327 144.558762,147.951797 143.998276C148.512283 143.437805,148.827225 142.677658,148.827225 141.884964Z" style="fill: rgb(100.000000%,100.000000%,100.000000%);stroke: none;"></path>
  <path d="M196.750687 65.549103C196.750687 64.756409,196.435745 63.996262,195.875259 63.435791C195.314789 62.875305,194.554642 62.560364,193.761948 62.560364C192.969254 62.560364,192.209106 62.875305,191.648636 63.435791C191.088150 63.996262,190.773209 64.756409,190.773209 65.549103C190.773209 66.341797,191.088150 67.101944,191.648636 67.662415C192.209106 68.222900,192.969254 68.537842,193.761948 68.537842C194.554642 68.537842,195.314789 68.222900,195.875259 67.662415C196.435745 67.101944,196.750687 66.341797,196.750687 65.549103Z" style="fill: rgb(100.000000%,100.000000%,100.000000%);stroke: none;"></path>
  <path d="M198.567291 109.005676C198.567291 108.212982,198.252350 107.452835,197.691864 106.892365C197.131393 106.331879,196.371246 106.016937,195.578552 106.016937C194.785858 106.016937,194.025711 106.331879,193.465240 106.892365C192.904755 107.452835,192.589813 108.212982,192.589813 109.005676C192.589813 109.798370,192.904755 110.558517,193.465240 111.118988C194.025711 111.679474,194.785858 111.994415,195.578552 111.994415C196.371246 111.994415,197.131393 111.679474,197.691864 111.118988C198.252350 110.558517,198.567291 109.798370,198.567291 109.005676Z" style="fill: rgb(100.000000%,100.000000%,100.000000%);stroke: none;"></path>
  <path d="M150.149277 37.724884C150.149277 36.932190,149.834335 36.172043,149.273849 35.611572C148.713379 35.051086,147.953232 34.736145,147.160538 34.736145C146.367844 34.736145,145.607697 35.051086,145.047226 35.611572C144.486740 36.172043,144.171799 36.932190,144.171799 37.724884C144.171799 38.517578,144.486740 39.277725,145.047226 39.838196C145.607697 40.398682,146.367844 40.713623,147.160538 40.713623C147.953232 40.713623,148.713379 40.398682,149.273849 39.838196C149.834335 39.277725,150.149277 38.517578,150.149277 37.724884Z" style="fill: rgb(100.000000%,100.000000%,100.000000%);stroke: none;"></path>
  <path d="M183.867599 46.822601C183.867599 46.029907,183.552658 45.269760,182.992172 44.709290C182.431702 44.148804,181.671555 43.833862,180.878860 43.833862C180.086166 43.833862,179.326019 44.148804,178.765549 44.709290C178.205063 45.269760,177.890121 46.029907,177.890121 46.822601C177.890121 47.615295,178.205063 48.375443,178.765549 48.935913C179.326019 49.496399,180.086166 49.811340,180.878860 49.811340C181.671555 49.811340,182.431702 49.496399,182.992172 48.935913C183.552658 48.375443,183.867599 47.615295,183.867599 46.822601Z" style="fill: rgb(100.000000%,100.000000%,100.000000%);stroke: none;"></path>
  <path d="M131.121155 62.622955C131.121155 61.830261,130.806213 61.070114,130.245728 60.509644C129.685257 59.949158,128.925110 59.634216,128.132416 59.634216C127.339722 59.634216,126.579575 59.949158,126.019104 60.509644C125.458618 61.070114,125.143677 61.830261,125.143677 62.622955C125.143677 63.415649,125.458618 64.175797,126.019104 64.736267C126.579575 65.296753,127.339722 65.611694,128.132416 65.611694C128.925110 65.611694,129.685257 65.296753,130.245728 64.736267C130.806213 64.175797,131.121155 63.415649,131.121155 62.622955Z" style="fill: rgb(100.000000%,100.000000%,100.000000%);stroke: none;"></path>
  <path d="M135.165070 43.032990C135.165070 42.240295,134.850128 41.480148,134.289642 40.919678C133.729172 40.359192,132.969025 40.044250,132.176331 40.044250C131.383636 40.044250,130.623489 40.359192,130.063019 40.919678C129.502533 41.480148,129.187592 42.240295,129.187592 43.032990C129.187592 43.825684,129.502533 44.585831,130.063019 45.146301C130.623489 45.706787,131.383636 46.021729,132.176331 46.021729C132.969025 46.021729,133.729172 45.706787,134.289642 45.146301C134.850128 44.585831,135.165070 43.825684,135.165070 43.032990Z" style="fill: rgb(100.000000%,100.000000%,100.000000%);stroke: none;"></path>
  <path d="M139.461060 83.154007C139.461060 82.361313,139.146118 81.601166,138.585632 81.040695C138.025162 80.480209,137.265015 80.165268,136.472321 80.165268C135.679626 80.165268,134.919479 80.480209,134.359009 81.040695C133.798523 81.601166,133.483582 82.361313,133.483582 83.154007C133.483582 83.946701,133.798523 84.706848,134.359009 85.267319C134.919479 85.827805,135.679626 86.142746,136.472321 86.142746C137.265015 86.142746,138.025162 85.827805,138.585632 85.267319C139.146118 84.706848,139.461060 83.946701,139.461060 83.154007Z" style="fill: rgb(100.000000%,100.000000%,100.000000%);stroke: none;"></path>
  <path d="M134.351318 69.120941C134.351318 68.328247,134.036377 67.568100,133.475891 67.007629C132.915421 66.447144,132.155273 66.132202,131.362579 66.132202C130.569885 66.132202,129.809738 66.447144,129.249268 67.007629C128.688782 67.568100,128.373840 68.328247,128.373840 69.120941C128.373840 69.913635,128.688782 70.673782,129.249268 71.234253C129.809738 71.794739,130.569885 72.109680,131.362579 72.109680C132.155273 72.109680,132.915421 71.794739,133.475891 71.234253C134.036377 70.673782,134.351318 69.913635,134.351318 69.120941Z" style="fill: rgb(100.000000%,100.000000%,100.000000%);stroke: none;"></path>
  <path d="M150.482330 111.745758C150.482330 110.953064,150.167389 110.192917,149.606903 109.632446C149.046432 109.071960,148.286285 108.757019,147.493591 108.757019C146.700897 108.757019,145.940750 109.071960,145.380280 109.632446C144.819794 110.192917,144.504852 110.953064,144.504852 111.745758C144.504852 112.538452,144.819794 113.298599,145.380280 113.859070C145.940750 114.419556,146.700897 114.734497,147.493591 114.734497C148.286285 114.734497,149.046432 114.419556,149.606903 113.859070C150.167389 113.298599,150.482330 112.538452,150.482330 111.745758Z" style="fill: rgb(100.000000%,100.000000%,100.000000%);stroke: none;"></path>
  <path d="M140.999603 91.179672C140.999603 90.386978,140.684662 89.626831,140.124176 89.066360C139.563705 88.505875,138.803558 88.190933,138.010864 88.190933C137.218170 88.190933,136.458023 88.505875,135.897552 89.066360C135.337067 89.626831,135.022125 90.386978,135.022125 91.179672C135.022125 91.972366,135.337067 92.732513,135.897552 93.292984C136.458023 93.853470,137.218170 94.168411,138.010864 94.168411C138.803558 94.168411,139.563705 93.853470,140.124176 93.292984C140.684662 92.732513,140.999603 91.972366,140.999603 91.179672Z" style="fill: rgb(100.000000%,100.000000%,100.000000%);stroke: none;"></path>
  <path d="M166.668015 160.227661C166.668015 159.434967,166.353073 158.674820,165.792587 158.114349C165.232117 157.553864,164.471970 157.238922,163.679276 157.238922C162.886581 157.238922,162.126434 157.553864,161.565964 158.114349C161.005478 158.674820,160.690536 159.434967,160.690536 160.227661C160.690536 161.020355,161.005478 161.780502,161.565964 162.340973C162.126434 162.901459,162.886581 163.216400,163.679276 163.216400C164.471970 163.216400,165.232117 162.901459,165.792587 162.340973C166.353073 161.780502,166.668015 161.020355,166.668015 160.227661Z" style="fill: rgb(100.000000%,100.000000%,100.000000%);stroke: none;"></path>
  <path d="M162.304932 122.402374C162.304932 121.609680,161.989990 120.849533,161.429504 120.289062C160.869034 119.728577,160.108887 119.413635,159.316193 119.413635C158.523499 119.413635,157.763351 119.728577,157.202881 120.289062C156.642395 120.849533,156.327454 121.609680,156.327454 122.402374C156.327454 123.195068,156.642395 123.955215,157.202881 124.515686C157.763351 125.076172,158.523499 125.391113,159.316193 125.391113C160.108887 125.391113,160.869034 125.076172,161.429504 124.515686C161.989990 123.955215,162.304932 123.195068,162.304932 122.402374Z" style="fill: rgb(100.000000%,100.000000%,100.000000%);stroke: none;"></path>
  <path d="M101.840408 192.170624C101.840408 191.377930,101.525467 190.617783,100.964981 190.057312C100.404510 189.496826,99.644363 189.181885,98.851669 189.181885C98.058975 189.181885,97.298828 189.496826,96.738358 190.057312C96.177872 190.617783,95.862930 191.377930,95.862930 192.170624C95.862930 192.963318,96.177872 193.723465,96.738358 194.283936C97.298828 194.844421,98.058975 195.159363,98.851669 195.159363C99.644363 195.159363,100.404510 194.844421,100.964981 194.283936C101.525467 193.723465,101.840408 192.963318,101.840408 192.170624Z" style="fill: rgb(100.000000%,100.000000%,100.000000%);stroke: none;"></path>
  <path d="M145.804214 177.618973C145.804214 176.826279,145.489273 176.066132,144.928787 175.505661C144.368317 174.945175,143.608170 174.630234,142.815475 174.630234C142.022781 174.630234,141.262634 174.945175,140.702164 175.505661C140.141678 176.066132,139.826736 176.826279,139.826736 177.618973C139.826736 178.411667,140.141678 179.171814,140.702164 179.732285C141.262634 180.292770,142.022781 180.607712,142.815475 180.607712C143.608170 180.607712,144.368317 180.292770,144.928787 179.732285C145.489273 179.171814,145.804214 178.411667,145.804214 177.618973Z" style="fill: rgb(100.000000%,100.000000%,100.000000%);stroke: none;"></path>
  <path d="M58.972580 167.443329C58.972580 166.650635,58.657639 165.890488,58.097153 165.330017C57.536682 164.769531,56.776535 164.454590,55.983841 164.454590C55.191147 164.454590,54.431000 164.769531,53.870529 165.330017C53.310043 165.890488,52.995102 166.650635,52.995102 167.443329C52.995102 168.236023,53.310043 168.996170,53.870529 169.556641C54.431000 170.117126,55.191147 170.432068,55.983841 170.432068C56.776535 170.432068,57.536682 170.117126,58.097153 169.556641C58.657639 168.996170,58.972580 168.236023,58.972580 167.443329Z" style="fill: rgb(100.000000%,100.000000%,100.000000%);stroke: none;"></path>
  <path d="M78.474716 192.323654C78.474716 191.530960,78.159775 190.770813,77.599289 190.210342C77.038818 189.649857,76.278671 189.334915,75.485977 189.334915C74.693283 189.334915,73.933136 189.649857,73.372665 190.210342C72.812180 190.770813,72.497238 191.530960,72.497238 192.323654C72.497238 193.116348,72.812180 193.876495,73.372665 194.436966C73.933136 194.997452,74.693283 195.312393,75.485977 195.312393C76.278671 195.312393,77.038818 194.997452,77.599289 194.436966C78.159775 193.876495,78.474716 193.116348,78.474716 192.323654Z" style="fill: rgb(100.000000%,100.000000%,100.000000%);stroke: none;"></path>
  <path d="M69.227509 146.161362C69.227509 145.368668,68.912567 144.608521,68.352081 144.048050C67.791611 143.487564,67.031464 143.172623,66.238770 143.172623C65.446075 143.172623,64.685928 143.487564,64.125458 144.048050C63.564972 144.608521,63.250031 145.368668,63.250031 146.161362C63.250031 146.954056,63.564972 147.714203,64.125458 148.274673C64.685928 148.835159,65.446075 149.150101,66.238770 149.150101C67.031464 149.150101,67.791611 148.835159,68.352081 148.274673C68.912567 147.714203,69.227509 146.954056,69.227509 146.161362Z" style="fill: rgb(100.000000%,100.000000%,100.000000%);stroke: none;"></path>
  <path d="M58.041473 155.353729C58.041473 154.561035,57.726532 153.800888,57.166046 153.240417C56.605576 152.679932,55.845428 152.364990,55.052734 152.364990C54.260040 152.364990,53.499893 152.679932,52.939423 153.240417C52.378937 153.800888,52.063995 154.561035,52.063995 155.353729C52.063995 156.146423,52.378937 156.906570,52.939423 157.467041C53.499893 158.027527,54.260040 158.342468,55.052734 158.342468C55.845428 158.342468,56.605576 158.027527,57.166046 157.467041C57.726532 156.906570,58.041473 156.146423,58.041473 155.353729Z" style="fill: rgb(100.000000%,100.000000%,100.000000%);stroke: none;"></path>
  <path d="M80.700150 144.117584C80.700150 143.324890,80.385208 142.564743,79.824722 142.004272C79.264252 141.443787,78.504105 141.128845,77.711411 141.128845C76.918716 141.128845,76.158569 141.443787,75.598099 142.004272C75.037613 142.564743,74.722672 143.324890,74.722672 144.117584C74.722672 144.910278,75.037613 145.670425,75.598099 146.230896C76.158569 146.791382,76.918716 147.106323,77.711411 147.106323C78.504105 147.106323,79.264252 146.791382,79.824722 146.230896C80.385208 145.670425,80.700150 144.910278,80.700150 144.117584Z" style="fill: rgb(100.000000%,100.000000%,100.000000%);stroke: none;"></path>
  <path d="M73.476913 145.271454C73.476913 144.478760,73.161972 143.718613,72.601486 143.158142C72.041016 142.597656,71.280869 142.282715,70.488174 142.282715C69.695480 142.282715,68.935333 142.597656,68.374863 143.158142C67.814377 143.718613,67.499435 144.478760,67.499435 145.271454C67.499435 146.064148,67.814377 146.824295,68.374863 147.384766C68.935333 147.945251,69.695480 148.260193,70.488174 148.260193C71.280869 148.260193,72.041016 147.945251,72.601486 147.384766C73.161972 146.824295,73.476913 146.064148,73.476913 145.271454Z" style="fill: rgb(100.000000%,100.000000%,100.000000%);stroke: none;"></path>
  <path d="M85.896729 137.694168C85.896729 136.901474,85.581787 136.141327,85.021301 135.580856C84.460831 135.020370,83.700684 134.705429,82.907990 134.705429C82.115295 134.705429,81.355148 135.020370,80.794678 135.580856C80.234192 136.141327,79.919250 136.901474,79.919250 137.694168C79.919250 138.486862,80.234192 139.247009,80.794678 139.807480C81.355148 140.367966,82.115295 140.682907,82.907990 140.682907C83.700684 140.682907,84.460831 140.367966,85.021301 139.807480C85.581787 139.247009,85.896729 138.486862,85.896729 137.694168Z" style="fill: rgb(100.000000%,100.000000%,100.000000%);stroke: none;"></path>
  <path d="M84.031067 143.322159C84.031067 142.529465,83.716125 141.769318,83.155640 141.208847C82.595169 140.648361,81.835022 140.333420,81.042328 140.333420C80.249634 140.333420,79.489487 140.648361,78.929016 141.208847C78.368530 141.769318,78.053589 142.529465,78.053589 143.322159C78.053589 144.114853,78.368530 144.875000,78.929016 145.435471C79.489487 145.995956,80.249634 146.310898,81.042328 146.310898C81.835022 146.310898,82.595169 145.995956,83.155640 145.435471C83.716125 144.875000,84.031067 144.114853,84.031067 143.322159Z" style="fill: rgb(100.000000%,100.000000%,100.000000%);stroke: none;"></path>
  <path d="M79.355423 130.021896C79.355423 129.229202,79.040482 128.469055,78.479996 127.908585C77.919525 127.348099,77.159378 127.033157,76.366684 127.033157C75.573990 127.033157,74.813843 127.348099,74.253372 127.908585C73.692886 128.469055,73.377945 129.229202,73.377945 130.021896C73.377945 130.814590,73.692886 131.574738,74.253372 132.135208C74.813843 132.695694,75.573990 133.010635,76.366684 133.010635C77.159378 133.010635,77.919525 132.695694,78.479996 132.135208C79.040482 131.574738,79.355423 130.814590,79.355423 130.021896Z" style="fill: rgb(100.000000%,100.000000%,100.000000%);stroke: none;"></path>
  <path d="M83.824295 135.119431C83.824295 134.326736,83.509354 133.566589,82.948868 133.006119C82.388397 132.445633,81.628250 132.130692,80.835556 132.130692C80.042862 132.130692,79.282715 132.445633,78.722244 133.006119C78.161758 133.566589,77.846817 134.326736,77.846817 135.119431C77.846817 135.912125,78.161758 136.672272,78.722244 137.232742C79.282715 137.793228,80.042862 138.108170,80.835556 138.108170C81.628250 138.108170,82.388397 137.793228,82.948868 137.232742C83.509354 136.672272,83.824295 135.912125,83.824295 135.119431Z" style="fill: rgb(100.000000%,100.000000%,100.000000%);stroke: none;"></path>
  <path d="M75.387131 119.065521C75.387131 118.272827,75.072189 117.512680,74.511703 116.952209C73.951233 116.391724,73.191086 116.076782,72.398392 116.076782C71.605698 116.076782,70.845551 116.391724,70.285080 116.952209C69.724594 117.512680,69.409653 118.272827,69.409653 119.065521C69.409653 119.858215,69.724594 120.618362,70.285080 121.178833C70.845551 121.739319,71.605698 122.054260,72.398392 122.054260C73.191086 122.054260,73.951233 121.739319,74.511703 121.178833C75.072189 120.618362,75.387131 119.858215,75.387131 119.065521Z" style="fill: rgb(100.000000%,100.000000%,100.000000%);stroke: none;"></path>
  <path d="M77.024887 126.915161C77.024887 126.122467,76.709946 125.362320,76.149460 124.801849C75.588989 124.241364,74.828842 123.926422,74.036148 123.926422C73.243454 123.926422,72.483307 124.241364,71.922836 124.801849C71.362350 125.362320,71.047409 126.122467,71.047409 126.915161C71.047409 127.707855,71.362350 128.468002,71.922836 129.028473C72.483307 129.588959,73.243454 129.903900,74.036148 129.903900C74.828842 129.903900,75.588989 129.588959,76.149460 129.028473C76.709946 128.468002,77.024887 127.707855,77.024887 126.915161Z" style="fill: rgb(100.000000%,100.000000%,100.000000%);stroke: none;"></path>
  <path d="M78.728806 106.068649C78.728806 105.275955,78.413864 104.515808,77.853378 103.955338C77.292908 103.394852,76.532761 103.079910,75.740067 103.079910C74.947372 103.079910,74.187225 103.394852,73.626755 103.955338C73.066269 104.515808,72.751328 105.275955,72.751328 106.068649C72.751328 106.861343,73.066269 107.621490,73.626755 108.181961C74.187225 108.742447,74.947372 109.057388,75.740067 109.057388C76.532761 109.057388,77.292908 108.742447,77.853378 108.181961C78.413864 107.621490,78.728806 106.861343,78.728806 106.068649Z" style="fill: rgb(100.000000%,100.000000%,100.000000%);stroke: none;"></path>
  <path d="M76.596680 114.891586C76.596680 114.098892,76.281738 113.338745,75.721252 112.778275C75.160782 112.217789,74.400635 111.902847,73.607941 111.902847C72.815247 111.902847,72.055099 112.217789,71.494629 112.778275C70.934143 113.338745,70.619202 114.098892,70.619202 114.891586C70.619202 115.684280,70.934143 116.444427,71.494629 117.004898C72.055099 117.565384,72.815247 117.880325,73.607941 117.880325C74.400635 117.880325,75.160782 117.565384,75.721252 117.004898C76.281738 116.444427,76.596680 115.684280,76.596680 114.891586Z" style="fill: rgb(100.000000%,100.000000%,100.000000%);stroke: none;"></path>
  <path d="M86.113815 93.258667C86.113815 92.465973,85.798874 91.705826,85.238388 91.145355C84.677917 90.584869,83.917770 90.269928,83.125076 90.269928C82.332382 90.269928,81.572235 90.584869,81.011765 91.145355C80.451279 91.705826,80.136337 92.465973,80.136337 93.258667C80.136337 94.051361,80.451279 94.811508,81.011765 95.371979C81.572235 95.932465,82.332382 96.247406,83.125076 96.247406C83.917770 96.247406,84.677917 95.932465,85.238388 95.371979C85.798874 94.811508,86.113815 94.051361,86.113815 93.258667Z" style="fill: rgb(100.000000%,100.000000%,100.000000%);stroke: none;"></path>
  <path d="M79.652298 101.127106C79.652298 100.334412,79.337357 99.574265,78.776871 99.013794C78.216400 98.453308,77.456253 98.138367,76.663559 98.138367C75.870865 98.138367,75.110718 98.453308,74.550247 99.013794C73.989761 99.574265,73.674820 100.334412,73.674820 101.127106C73.674820 101.919800,73.989761 102.679947,74.550247 103.240417C75.110718 103.800903,75.870865 104.115845,76.663559 104.115845C77.456253 104.115845,78.216400 103.800903,78.776871 103.240417C79.337357 102.679947,79.652298 101.919800,79.652298 101.127106Z" style="fill: rgb(100.000000%,100.000000%,100.000000%);stroke: none;"></path>
  <path d="M102.578430 86.455063C102.578430 85.662369,102.263489 84.902222,101.703003 84.341751C101.142532 83.781265,100.382385 83.466324,99.589691 83.466324C98.796997 83.466324,98.036850 83.781265,97.476379 84.341751C96.915894 84.902222,96.600952 85.662369,96.600952 86.455063C96.600952 87.247757,96.915894 88.007904,97.476379 88.568375C98.036850 89.128860,98.796997 89.443802,99.589691 89.443802C100.382385 89.443802,101.142532 89.128860,101.703003 88.568375C102.263489 88.007904,102.578430 87.247757,102.578430 86.455063Z" style="fill: rgb(100.000000%,100.000000%,100.000000%);stroke: none;"></path>
  <path d="M91.293243 91.429596C91.293243 90.636902,90.978302 89.876755,90.417816 89.316284C89.857346 88.755798,89.097198 88.440857,88.304504 88.440857C87.511810 88.440857,86.751663 88.755798,86.191193 89.316284C85.630707 89.876755,85.315765 90.636902,85.315765 91.429596C85.315765 92.222290,85.630707 92.982437,86.191193 93.542908C86.751663 94.103394,87.511810 94.418335,88.304504 94.418335C89.097198 94.418335,89.857346 94.103394,90.417816 93.542908C90.978302 92.982437,91.293243 92.222290,91.293243 91.429596Z" style="fill: rgb(100.000000%,100.000000%,100.000000%);stroke: none;"></path>
  <path d="M122.195358 77.910416C122.195358 77.117722,121.880417 76.357574,121.319931 75.797104C120.759460 75.236618,119.999313 74.921677,119.206619 74.921677C118.413925 74.921677,117.653778 75.236618,117.093307 75.797104C116.532822 76.357574,116.217880 77.117722,116.217880 77.910416C116.217880 78.703110,116.532822 79.463257,117.093307 80.023727C117.653778 80.584213,118.413925 80.899155,119.206619 80.899155C119.999313 80.899155,120.759460 80.584213,121.319931 80.023727C121.880417 79.463257,122.195358 78.703110,122.195358 77.910416Z" style="fill: rgb(100.000000%,100.000000%,100.000000%);stroke: none;"></path>
  <path d="M108.687225 82.852432C108.687225 82.059738,108.372284 81.299591,107.811798 80.739120C107.251328 80.178635,106.491180 79.863693,105.698486 79.863693C104.905792 79.863693,104.145645 80.178635,103.585175 80.739120C103.024689 81.299591,102.709747 82.059738,102.709747 82.852432C102.709747 83.645126,103.024689 84.405273,103.585175 84.965744C104.145645 85.526230,104.905792 85.841171,105.698486 85.841171C106.491180 85.841171,107.251328 85.526230,107.811798 84.965744C108.372284 84.405273,108.687225 83.645126,108.687225 82.852432Z" style="fill: rgb(100.000000%,100.000000%,100.000000%);stroke: none;"></path>
  <path d="M142.388123 74.640198C142.388123 73.847504,142.073181 73.087357,141.512695 72.526886C140.952225 71.966400,140.192078 71.651459,139.399384 71.651459C138.606689 71.651459,137.846542 71.966400,137.286072 72.526886C136.725586 73.087357,136.410645 73.847504,136.410645 74.640198C136.410645 75.432892,136.725586 76.193039,137.286072 76.753510C137.846542 77.313995,138.606689 77.628937,139.399384 77.628937C140.192078 77.628937,140.952225 77.313995,141.512695 76.753510C142.073181 76.193039,142.388123 75.432892,142.388123 74.640198Z" style="fill: rgb(100.000000%,100.000000%,100.000000%);stroke: none;"></path>
  <path d="M129.461685 76.725388C129.461685 75.932693,129.146744 75.172546,128.586258 74.612076C128.025787 74.051590,127.265640 73.736649,126.472946 73.736649C125.680252 73.736649,124.920105 74.051590,124.359634 74.612076C123.799149 75.172546,123.484207 75.932693,123.484207 76.725388C123.484207 77.518082,123.799149 78.278229,124.359634 78.838699C124.920105 79.399185,125.680252 79.714127,126.472946 79.714127C127.265640 79.714127,128.025787 79.399185,128.586258 78.838699C129.146744 78.278229,129.461685 77.518082,129.461685 76.725388Z" style="fill: rgb(100.000000%,100.000000%,100.000000%);stroke: none;"></path>
  <path d="M162.760681 64.603073C162.760681 63.810379,162.445740 63.050232,161.885254 62.489761C161.324783 61.929276,160.564636 61.614334,159.771942 61.614334C158.979248 61.614334,158.219101 61.929276,157.658630 62.489761C157.098145 63.050232,156.783203 63.810379,156.783203 64.603073C156.783203 65.395767,157.098145 66.155914,157.658630 66.716385C158.219101 67.276871,158.979248 67.591812,159.771942 67.591812C160.564636 67.591812,161.324783 67.276871,161.885254 66.716385C162.445740 66.155914,162.760681 65.395767,162.760681 64.603073Z" style="fill: rgb(100.000000%,100.000000%,100.000000%);stroke: none;"></path>
  <path d="M148.193848 73.682999C148.193848 72.890305,147.878906 72.130157,147.318420 71.569687C146.757950 71.009201,145.997803 70.694260,145.205109 70.694260C144.412415 70.694260,143.652267 71.009201,143.091797 71.569687C142.531311 72.130157,142.216370 72.890305,142.216370 73.682999C142.216370 74.475693,142.531311 75.235840,143.091797 75.796310C143.652267 76.356796,144.412415 76.671738,145.205109 76.671738C145.997803 76.671738,146.757950 76.356796,147.318420 75.796310C147.878906 75.235840,148.193848 74.475693,148.193848 73.682999Z" style="fill: rgb(100.000000%,100.000000%,100.000000%);stroke: none;"></path>
  <path d="M159.297043 21.455872C159.297043 20.663177,158.982101 19.903030,158.421616 19.342560C157.861145 18.782074,157.100998 18.467133,156.308304 18.467133C155.515610 18.467133,154.755463 18.782074,154.194992 19.342560C153.634506 19.903030,153.319565 20.663177,153.319565 21.455872C153.319565 22.248566,153.634506 23.008713,154.194992 23.569183C154.755463 24.129669,155.515610 24.444611,156.308304 24.444611C157.100998 24.444611,157.861145 24.129669,158.421616 23.569183C158.982101 23.008713,159.297043 22.248566,159.297043 21.455872Z" style="fill: rgb(100.000000%,100.000000%,100.000000%);stroke: none;"></path>
  <path d="M166.619080 52.673523C166.619080 51.880829,166.304138 51.120682,165.743652 50.560211C165.183182 49.999725,164.423035 49.684784,163.630341 49.684784C162.837646 49.684784,162.077499 49.999725,161.517029 50.560211C160.956543 51.120682,160.641602 51.880829,160.641602 52.673523C160.641602 53.466217,160.956543 54.226364,161.517029 54.786835C162.077499 55.347321,162.837646 55.662262,163.630341 55.662262C164.423035 55.662262,165.183182 55.347321,165.743652 54.786835C166.304138 54.226364,166.619080 53.466217,166.619080 52.673523Z" style="fill: rgb(100.000000%,100.000000%,100.000000%);stroke: none;"></path>
  <path d="M98.191483 2.566437C98.191483 1.773743,97.876541 1.013596,97.316055 0.453125C96.755585 -0.107361,95.995438 -0.422302,95.202744 -0.422302C94.410049 -0.422302,93.649902 -0.107361,93.089432 0.453125C92.528946 1.013596,92.214005 1.773743,92.214005 2.566437C92.214005 3.359131,92.528946 4.119278,93.089432 4.679749C93.649902 5.240234,94.410049 5.555176,95.202744 5.555176C95.995438 5.555176,96.755585 5.240234,97.316055 4.679749C97.876541 4.119278,98.191483 3.359131,98.191483 2.566437Z" style="fill: rgb(100.000000%,100.000000%,100.000000%);stroke: none;"></path>
  <path d="M138.728577 11.383606C138.728577 10.590912,138.413635 9.830765,137.853149 9.270294C137.292679 8.709808,136.532532 8.394867,135.739838 8.394867C134.947144 8.394867,134.186996 8.709808,133.626526 9.270294C133.066040 9.830765,132.751099 10.590912,132.751099 11.383606C132.751099 12.176300,133.066040 12.936447,133.626526 13.496918C134.186996 14.057404,134.947144 14.372345,135.739838 14.372345C136.532532 14.372345,137.292679 14.057404,137.853149 13.496918C138.413635 12.936447,138.728577 12.176300,138.728577 11.383606Z" style="fill: rgb(100.000000%,100.000000%,100.000000%);stroke: none;"></path>
  <path d="M56.752441 26.032104C56.752441 25.239410,56.437500 24.479263,55.877014 23.918793C55.316544 23.358307,54.556396 23.043365,53.763702 23.043365C52.971008 23.043365,52.210861 23.358307,51.650391 23.918793C51.089905 24.479263,50.774963 25.239410,50.774963 26.032104C50.774963 26.824799,51.089905 27.584946,51.650391 28.145416C52.210861 28.705902,52.971008 29.020844,53.763702 29.020844C54.556396 29.020844,55.316544 28.705902,55.877014 28.145416C56.437500 27.584946,56.752441 26.824799,56.752441 26.032104Z" style="fill: rgb(100.000000%,100.000000%,100.000000%);stroke: none;"></path>
  <path d="M76.197083 2.873962C76.197083 2.081268,75.882141 1.321121,75.321655 0.760651C74.761185 0.200165,74.001038 -0.114777,73.208344 -0.114777C72.415649 -0.114777,71.655502 0.200165,71.095032 0.760651C70.534546 1.321121,70.219604 2.081268,70.219604 2.873962C70.219604 3.666656,70.534546 4.426804,71.095032 4.987274C71.655502 5.547760,72.415649 5.862701,73.208344 5.862701C74.001038 5.862701,74.761185 5.547760,75.321655 4.987274C75.882141 4.426804,76.197083 3.666656,76.197083 2.873962Z" style="fill: rgb(100.000000%,100.000000%,100.000000%);stroke: none;"></path>
  <path d="M61.741226 50.714813C61.741226 49.922119,61.426285 49.161972,60.865799 48.601501C60.305328 48.041016,59.545181 47.726074,58.752487 47.726074C57.959793 47.726074,57.199646 48.041016,56.639175 48.601501C56.078690 49.161972,55.763748 49.922119,55.763748 50.714813C55.763748 51.507507,56.078690 52.267654,56.639175 52.828125C57.199646 53.388611,57.959793 53.703552,58.752487 53.703552C59.545181 53.703552,60.305328 53.388611,60.865799 52.828125C61.426285 52.267654,61.741226 51.507507,61.741226 50.714813Z" style="fill: rgb(100.000000%,100.000000%,100.000000%);stroke: none;"></path>
  <path d="M54.475037 36.994934C54.475037 36.202240,54.160095 35.442093,53.599609 34.881622C53.039139 34.321136,52.278992 34.006195,51.486298 34.006195C50.693604 34.006195,49.933456 34.321136,49.372986 34.881622C48.812500 35.442093,48.497559 36.202240,48.497559 36.994934C48.497559 37.787628,48.812500 38.547775,49.372986 39.108246C49.933456 39.668732,50.693604 39.983673,51.486298 39.983673C52.278992 39.983673,53.039139 39.668732,53.599609 39.108246C54.160095 38.547775,54.475037 37.787628,54.475037 36.994934Z" style="fill: rgb(100.000000%,100.000000%,100.000000%);stroke: none;"></path>
  <path d="M75.391174 61.938293C75.391174 61.145599,75.076233 60.385452,74.515747 59.824982C73.955276 59.264496,73.195129 58.949554,72.402435 58.949554C71.609741 58.949554,70.849594 59.264496,70.289124 59.824982C69.728638 60.385452,69.413696 61.145599,69.413696 61.938293C69.413696 62.730988,69.728638 63.491135,70.289124 64.051605C70.849594 64.612091,71.609741 64.927032,72.402435 64.927032C73.195129 64.927032,73.955276 64.612091,74.515747 64.051605C75.076233 63.491135,75.391174 62.730988,75.391174 61.938293Z" style="fill: rgb(100.000000%,100.000000%,100.000000%);stroke: none;"></path>
  <path d="M65.894592 54.142120C65.894592 53.349426,65.579651 52.589279,65.019165 52.028809C64.458694 51.468323,63.698547 51.153381,62.905853 51.153381C62.113159 51.153381,61.353012 51.468323,60.792542 52.028809C60.232056 52.589279,59.917114 53.349426,59.917114 54.142120C59.917114 54.934814,60.232056 55.694962,60.792542 56.255432C61.353012 56.815918,62.113159 57.130859,62.905853 57.130859C63.698547 57.130859,64.458694 56.815918,65.019165 56.255432C65.579651 55.694962,65.894592 54.934814,65.894592 54.142120Z" style="fill: rgb(100.000000%,100.000000%,100.000000%);stroke: none;"></path>
  <path d="M89.385056 77.344360C89.385056 76.551666,89.070114 75.791519,88.509628 75.231049C87.949158 74.670563,87.189011 74.355621,86.396317 74.355621C85.603622 74.355621,84.843475 74.670563,84.283005 75.231049C83.722519 75.791519,83.407578 76.551666,83.407578 77.344360C83.407578 78.137054,83.722519 78.897202,84.283005 79.457672C84.843475 80.018158,85.603622 80.333099,86.396317 80.333099C87.189011 80.333099,87.949158 80.018158,88.509628 79.457672C89.070114 78.897202,89.385056 78.137054,89.385056 77.344360Z" style="fill: rgb(100.000000%,100.000000%,100.000000%);stroke: none;"></path>
  <path d="M80.828003 66.431274C80.828003 65.638580,80.513062 64.878433,79.952576 64.317963C79.392105 63.757477,78.631958 63.442535,77.839264 63.442535C77.046570 63.442535,76.286423 63.757477,75.725952 64.317963C75.165466 64.878433,74.850525 65.638580,74.850525 66.431274C74.850525 67.223969,75.165466 67.984116,75.725952 68.544586C76.286423 69.105072,77.046570 69.420013,77.839264 69.420013C78.631958 69.420013,79.392105 69.105072,79.952576 68.544586C80.513062 67.984116,80.828003 67.223969,80.828003 66.431274Z" style="fill: rgb(100.000000%,100.000000%,100.000000%);stroke: none;"></path>
  <path d="M99.017242 93.773300C99.017242 92.980606,98.702301 92.220459,98.141815 91.659988C97.581345 91.099503,96.821198 90.784561,96.028503 90.784561C95.235809 90.784561,94.475662 91.099503,93.915192 91.659988C93.354706 92.220459,93.039764 92.980606,93.039764 93.773300C93.039764 94.565994,93.354706 95.326141,93.915192 95.886612C94.475662 96.447098,95.235809 96.762039,96.028503 96.762039C96.821198 96.762039,97.581345 96.447098,98.141815 95.886612C98.702301 95.326141,99.017242 94.565994,99.017242 93.773300Z" style="fill: rgb(100.000000%,100.000000%,100.000000%);stroke: none;"></path>
  <path d="M92.413773 83.544815C92.413773 82.752121,92.098831 81.991974,91.538345 81.431503C90.977875 80.871017,90.217728 80.556076,89.425034 80.556076C88.632339 80.556076,87.872192 80.871017,87.311722 81.431503C86.751236 81.991974,86.436295 82.752121,86.436295 83.544815C86.436295 84.337509,86.751236 85.097656,87.311722 85.658127C87.872192 86.218613,88.632339 86.533554,89.425034 86.533554C90.217728 86.533554,90.977875 86.218613,91.538345 85.658127C92.098831 85.097656,92.413773 84.337509,92.413773 83.544815Z" style="fill: rgb(100.000000%,100.000000%,100.000000%);stroke: none;"></path>
  <path d="M103.207245 108.494370C103.207245 107.701675,102.892303 106.941528,102.331818 106.381058C101.771347 105.820572,101.011200 105.505630,100.218506 105.505630C99.425812 105.505630,98.665665 105.820572,98.105194 106.381058C97.544708 106.941528,97.229767 107.701675,97.229767 108.494370C97.229767 109.287064,97.544708 110.047211,98.105194 110.607681C98.665665 111.168167,99.425812 111.483109,100.218506 111.483109C101.011200 111.483109,101.771347 111.168167,102.331818 110.607681C102.892303 110.047211,103.207245 109.287064,103.207245 108.494370Z" style="fill: rgb(100.000000%,100.000000%,100.000000%);stroke: none;"></path>
  <path d="M102.386749 98.194107C102.386749 97.401413,102.071808 96.641266,101.511322 96.080795C100.950851 95.520309,100.190704 95.205368,99.398010 95.205368C98.605316 95.205368,97.845169 95.520309,97.284698 96.080795C96.724213 96.641266,96.409271 97.401413,96.409271 98.194107C96.409271 98.986801,96.724213 99.746948,97.284698 100.307419C97.845169 100.867905,98.605316 101.182846,99.398010 101.182846C100.190704 101.182846,100.950851 100.867905,101.511322 100.307419C102.071808 99.746948,102.386749 98.986801,102.386749 98.194107Z" style="fill: rgb(100.000000%,100.000000%,100.000000%);stroke: none;"></path>
  <path d="M97.279388 121.653397C97.279388 120.860703,96.964447 120.100555,96.403961 119.540085C95.843491 118.979599,95.083344 118.664658,94.290649 118.664658C93.497955 118.664658,92.737808 118.979599,92.177338 119.540085C91.616852 120.100555,91.301910 120.860703,91.301910 121.653397C91.301910 122.446091,91.616852 123.206238,92.177338 123.766708C92.737808 124.327194,93.497955 124.642136,94.290649 124.642136C95.083344 124.642136,95.843491 124.327194,96.403961 123.766708C96.964447 123.206238,97.279388 122.446091,97.279388 121.653397Z" style="fill: rgb(100.000000%,100.000000%,100.000000%);stroke: none;"></path>
  <path d="M100.934769 113.126160C100.934769 112.333466,100.619827 111.573318,100.059341 111.012848C99.498871 110.452362,98.738724 110.137421,97.946030 110.137421C97.153336 110.137421,96.393188 110.452362,95.832718 111.012848C95.272232 111.573318,94.957291 112.333466,94.957291 113.126160C94.957291 113.918854,95.272232 114.679001,95.832718 115.239471C96.393188 115.799957,97.153336 116.114899,97.946030 116.114899C98.738724 116.114899,99.498871 115.799957,100.059341 115.239471C100.619827 114.679001,100.934769 113.918854,100.934769 113.126160Z" style="fill: rgb(100.000000%,100.000000%,100.000000%);stroke: none;"></path>
  <path d="M89.497543 131.157288C89.497543 130.364594,89.182602 129.604446,88.622116 129.043976C88.061646 128.483490,87.301498 128.168549,86.508804 128.168549C85.716110 128.168549,84.955963 128.483490,84.395493 129.043976C83.835007 129.604446,83.520065 130.364594,83.520065 131.157288C83.520065 131.949982,83.835007 132.710129,84.395493 133.270599C84.955963 133.831085,85.716110 134.146027,86.508804 134.146027C87.301498 134.146027,88.061646 133.831085,88.622116 133.270599C89.182602 132.710129,89.497543 131.949982,89.497543 131.157288Z" style="fill: rgb(100.000000%,100.000000%,100.000000%);stroke: none;"></path>
  <path d="M95.712158 125.817429C95.712158 125.024734,95.397217 124.264587,94.836731 123.704117C94.276260 123.143631,93.516113 122.828690,92.723419 122.828690C91.930725 122.828690,91.170578 123.143631,90.610107 123.704117C90.049622 124.264587,89.734680 125.024734,89.734680 125.817429C89.734680 126.610123,90.049622 127.370270,90.610107 127.930740C91.170578 128.491226,91.930725 128.806168,92.723419 128.806168C93.516113 128.806168,94.276260 128.491226,94.836731 127.930740C95.397217 127.370270,95.712158 126.610123,95.712158 125.817429Z" style="fill: rgb(100.000000%,100.000000%,100.000000%);stroke: none;"></path>
  <path d="M78.909149 133.403610C78.909149 132.610916,78.594208 131.850769,78.033722 131.290298C77.473251 130.729813,76.713104 130.414871,75.920410 130.414871C75.127716 130.414871,74.367569 130.729813,73.807098 131.290298C73.246613 131.850769,72.931671 132.610916,72.931671 133.403610C72.931671 134.196304,73.246613 134.956451,73.807098 135.516922C74.367569 136.077408,75.127716 136.392349,75.920410 136.392349C76.713104 136.392349,77.473251 136.077408,78.033722 135.516922C78.594208 134.956451,78.909149 134.196304,78.909149 133.403610Z" style="fill: rgb(100.000000%,100.000000%,100.000000%);stroke: none;"></path>
  <path d="M85.659454 132.180176C85.659454 131.387482,85.344513 130.627335,84.784027 130.066864C84.223557 129.506378,83.463409 129.191437,82.670715 129.191437C81.878021 129.191437,81.117874 129.506378,80.557404 130.066864C79.996918 130.627335,79.681976 131.387482,79.681976 132.180176C79.681976 132.972870,79.996918 133.733017,80.557404 134.293488C81.117874 134.853973,81.878021 135.168915,82.670715 135.168915C83.463409 135.168915,84.223557 134.853973,84.784027 134.293488C85.344513 133.733017,85.659454 132.972870,85.659454 132.180176Z" style="fill: rgb(100.000000%,100.000000%,100.000000%);stroke: none;"></path>
  <path d="M73.625259 139.629868C73.625259 138.837173,73.310318 138.077026,72.749832 137.516556C72.189362 136.956070,71.429214 136.641129,70.636520 136.641129C69.843826 136.641129,69.083679 136.956070,68.523209 137.516556C67.962723 138.077026,67.647781 138.837173,67.647781 139.629868C67.647781 140.422562,67.962723 141.182709,68.523209 141.743179C69.083679 142.303665,69.843826 142.618607,70.636520 142.618607C71.429214 142.618607,72.189362 142.303665,72.749832 141.743179C73.310318 141.182709,73.625259 140.422562,73.625259 139.629868Z" style="fill: rgb(100.000000%,100.000000%,100.000000%);stroke: none;"></path>
  <path d="M75.682495 134.118637C75.682495 133.325943,75.367554 132.565796,74.807068 132.005325C74.246597 131.444839,73.486450 131.129898,72.693756 131.129898C71.901062 131.129898,71.140915 131.444839,70.580444 132.005325C70.019958 132.565796,69.705017 133.325943,69.705017 134.118637C69.705017 134.911331,70.019958 135.671478,70.580444 136.231949C71.140915 136.792435,71.901062 137.107376,72.693756 137.107376C73.486450 137.107376,74.246597 136.792435,74.807068 136.231949C75.367554 135.671478,75.682495 134.911331,75.682495 134.118637Z" style="fill: rgb(100.000000%,100.000000%,100.000000%);stroke: none;"></path>
  <path d="M80.428497 147.802429C80.428497 147.009735,80.113556 146.249588,79.553070 145.689117C78.992599 145.128632,78.232452 144.813690,77.439758 144.813690C76.647064 144.813690,75.886917 145.128632,75.326447 145.689117C74.765961 146.249588,74.451019 147.009735,74.451019 147.802429C74.451019 148.595123,74.765961 149.355270,75.326447 149.915741C75.886917 150.476227,76.647064 150.791168,77.439758 150.791168C78.232452 150.791168,78.992599 150.476227,79.553070 149.915741C80.113556 149.355270,80.428497 148.595123,80.428497 147.802429Z" style="fill: rgb(100.000000%,100.000000%,100.000000%);stroke: none;"></path>
  <path d="M75.638763 142.314331C75.638763 141.521637,75.323822 140.761490,74.763336 140.201019C74.202866 139.640533,73.442719 139.325592,72.650024 139.325592C71.857330 139.325592,71.097183 139.640533,70.536713 140.201019C69.976227 140.761490,69.661285 141.521637,69.661285 142.314331C69.661285 143.107025,69.976227 143.867172,70.536713 144.427643C71.097183 144.988129,71.857330 145.303070,72.650024 145.303070C73.442719 145.303070,74.202866 144.988129,74.763336 144.427643C75.323822 143.867172,75.638763 143.107025,75.638763 142.314331Z" style="fill: rgb(100.000000%,100.000000%,100.000000%);stroke: none;"></path>
  <path d="M85.817780 165.703094C85.817780 164.910400,85.502838 164.150253,84.942352 163.589783C84.381882 163.029297,83.621735 162.714355,82.829041 162.714355C82.036346 162.714355,81.276199 163.029297,80.715729 163.589783C80.155243 164.150253,79.840302 164.910400,79.840302 165.703094C79.840302 166.495789,80.155243 167.255936,80.715729 167.816406C81.276199 168.376892,82.036346 168.691833,82.829041 168.691833C83.621735 168.691833,84.381882 168.376892,84.942352 167.816406C85.502838 167.255936,85.817780 166.495789,85.817780 165.703094Z" style="fill: rgb(100.000000%,100.000000%,100.000000%);stroke: none;"></path>
  <path d="M83.156586 151.221725C83.156586 150.429031,82.841644 149.668884,82.281158 149.108414C81.720688 148.547928,80.960541 148.232986,80.167847 148.232986C79.375153 148.232986,78.615005 148.547928,78.054535 149.108414C77.494049 149.668884,77.179108 150.429031,77.179108 151.221725C77.179108 152.014420,77.494049 152.774567,78.054535 153.335037C78.615005 153.895523,79.375153 154.210464,80.167847 154.210464C80.960541 154.210464,81.720688 153.895523,82.281158 153.335037C82.841644 152.774567,83.156586 152.014420,83.156586 151.221725Z" style="fill: rgb(100.000000%,100.000000%,100.000000%);stroke: none;"></path>
  <path d="M46.758194 178.760376C46.758194 177.967682,46.443253 177.207535,45.882767 176.647064C45.322296 176.086578,44.562149 175.771637,43.769455 175.771637C42.976761 175.771637,42.216614 176.086578,41.656143 176.647064C41.095657 177.207535,40.780716 177.967682,40.780716 178.760376C40.780716 179.553070,41.095657 180.313217,41.656143 180.873688C42.216614 181.434174,42.976761 181.749115,43.769455 181.749115C44.562149 181.749115,45.322296 181.434174,45.882767 180.873688C46.443253 180.313217,46.758194 179.553070,46.758194 178.760376Z" style="fill: rgb(100.000000%,100.000000%,100.000000%);stroke: none;"></path>
  <path d="M76.840927 174.449326C76.840927 173.656631,76.525986 172.896484,75.965500 172.336014C75.405029 171.775528,74.644882 171.460587,73.852188 171.460587C73.059494 171.460587,72.299347 171.775528,71.738876 172.336014C71.178391 172.896484,70.863449 173.656631,70.863449 174.449326C70.863449 175.242020,71.178391 176.002167,71.738876 176.562637C72.299347 177.123123,73.059494 177.438065,73.852188 177.438065C74.644882 177.438065,75.405029 177.123123,75.965500 176.562637C76.525986 176.002167,76.840927 175.242020,76.840927 174.449326Z" style="fill: rgb(100.000000%,100.000000%,100.000000%);stroke: none;"></path>
  <path d="M10.245026 128.435455C10.245026 127.642761,9.930084 126.882614,9.369598 126.322144C8.809128 125.761658,8.048981 125.446716,7.256287 125.446716C6.463593 125.446716,5.703445 125.761658,5.142975 126.322144C4.582489 126.882614,4.267548 127.642761,4.267548 128.435455C4.267548 129.228149,4.582489 129.988297,5.142975 130.548767C5.703445 131.109253,6.463593 131.424194,7.256287 131.424194C8.048981 131.424194,8.809128 131.109253,9.369598 130.548767C9.930084 129.988297,10.245026 129.228149,10.245026 128.435455Z" style="fill: rgb(100.000000%,100.000000%,100.000000%);stroke: none;"></path>
  <path d="M31.136078 163.990692C31.136078 163.197998,30.821136 162.437851,30.260651 161.877380C29.700180 161.316895,28.940033 161.001953,28.147339 161.001953C27.354645 161.001953,26.594498 161.316895,26.034027 161.877380C25.473541 162.437851,25.158600 163.197998,25.158600 163.990692C25.158600 164.783386,25.473541 165.543533,26.034027 166.104004C26.594498 166.664490,27.354645 166.979431,28.147339 166.979431C28.940033 166.979431,29.700180 166.664490,30.260651 166.104004C30.821136 165.543533,31.136078 164.783386,31.136078 163.990692Z" style="fill: rgb(100.000000%,100.000000%,100.000000%);stroke: none;"></path>
  <path d="M27.926727 80.854614C27.926727 80.061920,27.611786 79.301773,27.051300 78.741302C26.490829 78.180817,25.730682 77.865875,24.937988 77.865875C24.145294 77.865875,23.385147 78.180817,22.824677 78.741302C22.264191 79.301773,21.949249 80.061920,21.949249 80.854614C21.949249 81.647308,22.264191 82.407455,22.824677 82.967926C23.385147 83.528412,24.145294 83.843353,24.937988 83.843353C25.730682 83.843353,26.490829 83.528412,27.051300 82.967926C27.611786 82.407455,27.926727 81.647308,27.926727 80.854614Z" style="fill: rgb(100.000000%,100.000000%,100.000000%);stroke: none;"></path>
  <path d="M5.267273 105.579422C5.267273 104.786728,4.952332 104.026581,4.391846 103.466110C3.831375 102.905624,3.071228 102.590683,2.278534 102.590683C1.485840 102.590683,0.725693 102.905624,0.165222 103.466110C-0.395264 104.026581,-0.710205 104.786728,-0.710205 105.579422C-0.710205 106.372116,-0.395264 107.132263,0.165222 107.692734C0.725693 108.253220,1.485840 108.568161,2.278534 108.568161C3.071228 108.568161,3.831375 108.253220,4.391846 107.692734C4.952332 107.132263,5.267273 106.372116,5.267273 105.579422Z" style="fill: rgb(100.000000%,100.000000%,100.000000%);stroke: none;"></path>
  <path d="M59.139008 67.869492C59.139008 67.076797,58.824066 66.316650,58.263580 65.756180C57.703110 65.195694,56.942963 64.880753,56.150269 64.880753C55.357574 64.880753,54.597427 65.195694,54.036957 65.756180C53.476471 66.316650,53.161530 67.076797,53.161530 67.869492C53.161530 68.662186,53.476471 69.422333,54.036957 69.982803C54.597427 70.543289,55.357574 70.858231,56.150269 70.858231C56.942963 70.858231,57.703110 70.543289,58.263580 69.982803C58.824066 69.422333,59.139008 68.662186,59.139008 67.869492Z" style="fill: rgb(100.000000%,100.000000%,100.000000%);stroke: none;"></path>
  <path d="M41.955246 78.963715C41.955246 78.171021,41.640305 77.410873,41.079819 76.850403C40.519348 76.289917,39.759201 75.974976,38.966507 75.974976C38.173813 75.974976,37.413666 76.289917,36.853195 76.850403C36.292709 77.410873,35.977768 78.171021,35.977768 78.963715C35.977768 79.756409,36.292709 80.516556,36.853195 81.077026C37.413666 81.637512,38.173813 81.952454,38.966507 81.952454C39.759201 81.952454,40.519348 81.637512,41.079819 81.077026C41.640305 80.516556,41.955246 79.756409,41.955246 78.963715Z" style="fill: rgb(100.000000%,100.000000%,100.000000%);stroke: none;"></path>
  <path d="M75.048203 53.357330C75.048203 52.564636,74.733261 51.804489,74.172775 51.244019C73.612305 50.683533,72.852158 50.368591,72.059464 50.368591C71.266769 50.368591,70.506622 50.683533,69.946152 51.244019C69.385666 51.804489,69.070724 52.564636,69.070724 53.357330C69.070724 54.150024,69.385666 54.910172,69.946152 55.470642C70.506622 56.031128,71.266769 56.346069,72.059464 56.346069C72.852158 56.346069,73.612305 56.031128,74.172775 55.470642C74.733261 54.910172,75.048203 54.150024,75.048203 53.357330Z" style="fill: rgb(100.000000%,100.000000%,100.000000%);stroke: none;"></path>
  <path d="M64.175369 62.212799C64.175369 61.420105,63.860428 60.659958,63.299942 60.099487C62.739471 59.539001,61.979324 59.224060,61.186630 59.224060C60.393936 59.224060,59.633789 59.539001,59.073318 60.099487C58.512833 60.659958,58.197891 61.420105,58.197891 62.212799C58.197891 63.005493,58.512833 63.765640,59.073318 64.326111C59.633789 64.886597,60.393936 65.201538,61.186630 65.201538C61.979324 65.201538,62.739471 64.886597,63.299942 64.326111C63.860428 63.765640,64.175369 63.005493,64.175369 62.212799Z" style="fill: rgb(100.000000%,100.000000%,100.000000%);stroke: none;"></path>
  <path d="M86.517273 31.707428C86.517273 30.914734,86.202332 30.154587,85.641846 29.594116C85.081375 29.033630,84.321228 28.718689,83.528534 28.718689C82.735840 28.718689,81.975693 29.033630,81.415222 29.594116C80.854736 30.154587,80.539795 30.914734,80.539795 31.707428C80.539795 32.500122,80.854736 33.260269,81.415222 33.820740C81.975693 34.381226,82.735840 34.696167,83.528534 34.696167C84.321228 34.696167,85.081375 34.381226,85.641846 33.820740C86.202332 33.260269,86.517273 32.500122,86.517273 31.707428Z" style="fill: rgb(100.000000%,100.000000%,100.000000%);stroke: none;"></path>
  <path d="M80.912476 49.595032C80.912476 48.802338,80.597534 48.042191,80.037048 47.481720C79.476578 46.921234,78.716431 46.606293,77.923737 46.606293C77.131042 46.606293,76.370895 46.921234,75.810425 47.481720C75.249939 48.042191,74.934998 48.802338,74.934998 49.595032C74.934998 50.387726,75.249939 51.147873,75.810425 51.708344C76.370895 52.268829,77.131042 52.583771,77.923737 52.583771C78.716431 52.583771,79.476578 52.268829,80.037048 51.708344C80.597534 51.147873,80.912476 50.387726,80.912476 49.595032Z" style="fill: rgb(100.000000%,100.000000%,100.000000%);stroke: none;"></path>
  <path d="M46.134644 14.738037C46.134644 13.945343,45.819702 13.185196,45.259216 12.624725C44.698746 12.064240,43.938599 11.749298,43.145905 11.749298C42.353210 11.749298,41.593063 12.064240,41.032593 12.624725C40.472107 13.185196,40.157166 13.945343,40.157166 14.738037C40.157166 15.530731,40.472107 16.290878,41.032593 16.851349C41.593063 17.411835,42.353210 17.726776,43.145905 17.726776C43.938599 17.726776,44.698746 17.411835,45.259216 16.851349C45.819702 16.290878,46.134644 15.530731,46.134644 14.738037Z" style="fill: rgb(100.000000%,100.000000%,100.000000%);stroke: none;"></path>
  <path d="M76.543793 20.650970C76.543793 19.858276,76.228851 19.098129,75.668365 18.537659C75.107895 17.977173,74.347748 17.662231,73.555054 17.662231C72.762360 17.662231,72.002213 17.977173,71.441742 18.537659C70.881256 19.098129,70.566315 19.858276,70.566315 20.650970C70.566315 21.443665,70.881256 22.203812,71.441742 22.764282C72.002213 23.324768,72.762360 23.639709,73.555054 23.639709C74.347748 23.639709,75.107895 23.324768,75.668365 22.764282C76.228851 22.203812,76.543793 21.443665,76.543793 20.650970Z" style="fill: rgb(100.000000%,100.000000%,100.000000%);stroke: none;"></path>
  <path d="M8.521698 55.094971C8.521698 54.302277,8.206757 53.542130,7.646271 52.981659C7.085800 52.421173,6.325653 52.106232,5.532959 52.106232C4.740265 52.106232,3.980118 52.421173,3.419647 52.981659C2.859161 53.542130,2.544220 54.302277,2.544220 55.094971C2.544220 55.887665,2.859161 56.647812,3.419647 57.208282C3.980118 57.768768,4.740265 58.083710,5.532959 58.083710C6.325653 58.083710,7.085800 57.768768,7.646271 57.208282C8.206757 56.647812,8.521698 55.887665,8.521698 55.094971Z" style="fill: rgb(100.000000%,100.000000%,100.000000%);stroke: none;"></path>
  <path d="M29.382294 24.220642C29.382294 23.427948,29.067352 22.667801,28.506866 22.107330C27.946396 21.546844,27.186249 21.231903,26.393555 21.231903C25.600861 21.231903,24.840714 21.546844,24.280243 22.107330C23.719757 22.667801,23.404816 23.427948,23.404816 24.220642C23.404816 25.013336,23.719757 25.773483,24.280243 26.333954C24.840714 26.894440,25.600861 27.209381,26.393555 27.209381C27.186249 27.209381,27.946396 26.894440,28.506866 26.333954C29.067352 25.773483,29.382294 25.013336,29.382294 24.220642Z" style="fill: rgb(100.000000%,100.000000%,100.000000%);stroke: none;"></path>
  <path d="M28.099442 100.843109C28.099442 100.050415,27.784500 99.290268,27.224014 98.729797C26.663544 98.169312,25.903397 97.854370,25.110703 97.854370C24.318008 97.854370,23.557861 98.169312,22.997391 98.729797C22.436905 99.290268,22.121964 100.050415,22.121964 100.843109C22.121964 101.635803,22.436905 102.395950,22.997391 102.956421C23.557861 103.516907,24.318008 103.831848,25.110703 103.831848C25.903397 103.831848,26.663544 103.516907,27.224014 102.956421C27.784500 102.395950,28.099442 101.635803,28.099442 100.843109Z" style="fill: rgb(100.000000%,100.000000%,100.000000%);stroke: none;"></path>
  <path d="M6.680099 76.229004C6.680099 75.436310,6.365158 74.676163,5.804672 74.115692C5.244202 73.555206,4.484055 73.240265,3.691360 73.240265C2.898666 73.240265,2.138519 73.555206,1.578049 74.115692C1.017563 74.676163,0.702621 75.436310,0.702621 76.229004C0.702621 77.021698,1.017563 77.781845,1.578049 78.342316C2.138519 78.902802,2.898666 79.217743,3.691360 79.217743C4.484055 79.217743,5.244202 78.902802,5.804672 78.342316C6.365158 77.781845,6.680099 77.021698,6.680099 76.229004Z" style="fill: rgb(100.000000%,100.000000%,100.000000%);stroke: none;"></path>
  <path d="M62.984070 107.827805C62.984070 107.035110,62.669128 106.274963,62.108643 105.714493C61.548172 105.154007,60.788025 104.839066,59.995331 104.839066C59.202637 104.839066,58.442490 105.154007,57.882019 105.714493C57.321533 106.274963,57.006592 107.035110,57.006592 107.827805C57.006592 108.620499,57.321533 109.380646,57.882019 109.941116C58.442490 110.501602,59.202637 110.816544,59.995331 110.816544C60.788025 110.816544,61.548172 110.501602,62.108643 109.941116C62.669128 109.380646,62.984070 108.620499,62.984070 107.827805Z" style="fill: rgb(100.000000%,100.000000%,100.000000%);stroke: none;"></path>
  <path d="M42.189819 103.890762C42.189819 103.098068,41.874878 102.337921,41.314392 101.777451C40.753922 101.216965,39.993774 100.902023,39.201080 100.902023C38.408386 100.902023,37.648239 101.216965,37.087769 101.777451C36.527283 102.337921,36.212341 103.098068,36.212341 103.890762C36.212341 104.683456,36.527283 105.443604,37.087769 106.004074C37.648239 106.564560,38.408386 106.879501,39.201080 106.879501C39.993774 106.879501,40.753922 106.564560,41.314392 106.004074C41.874878 105.443604,42.189819 104.683456,42.189819 103.890762Z" style="fill: rgb(100.000000%,100.000000%,100.000000%);stroke: none;"></path>
  <path d="M81.239075 111.600723C81.239075 110.808029,80.924133 110.047882,80.363647 109.487411C79.803177 108.926926,79.043030 108.611984,78.250336 108.611984C77.457642 108.611984,76.697495 108.926926,76.137024 109.487411C75.576538 110.047882,75.261597 110.808029,75.261597 111.600723C75.261597 112.393417,75.576538 113.153564,76.137024 113.714035C76.697495 114.274521,77.457642 114.589462,78.250336 114.589462C79.043030 114.589462,79.803177 114.274521,80.363647 113.714035C80.924133 113.153564,81.239075 112.393417,81.239075 111.600723Z" style="fill: rgb(100.000000%,100.000000%,100.000000%);stroke: none;"></path>
  <path d="M70.309570 109.194473C70.309570 108.401779,69.994629 107.641632,69.434143 107.081161C68.873672 106.520676,68.113525 106.205734,67.320831 106.205734C66.528137 106.205734,65.767990 106.520676,65.207520 107.081161C64.647034 107.641632,64.332092 108.401779,64.332092 109.194473C64.332092 109.987167,64.647034 110.747314,65.207520 111.307785C65.767990 111.868271,66.528137 112.183212,67.320831 112.183212C68.113525 112.183212,68.873672 111.868271,69.434143 111.307785C69.994629 110.747314,70.309570 109.987167,70.309570 109.194473Z" style="fill: rgb(100.000000%,100.000000%,100.000000%);stroke: none;"></path>
  <path d="M91.993179 114.870972C91.993179 114.078278,91.678238 113.318130,91.117752 112.757660C90.557281 112.197174,89.797134 111.882233,89.004440 111.882233C88.211746 111.882233,87.451599 112.197174,86.891129 112.757660C86.330643 113.318130,86.015701 114.078278,86.015701 114.870972C86.015701 115.663666,86.330643 116.423813,86.891129 116.984283C87.451599 117.544769,88.211746 117.859711,89.004440 117.859711C89.797134 117.859711,90.557281 117.544769,91.117752 116.984283C91.678238 116.423813,91.993179 115.663666,91.993179 114.870972Z" style="fill: rgb(100.000000%,100.000000%,100.000000%);stroke: none;"></path>
  <path d="M84.882690 112.465195C84.882690 111.672501,84.567749 110.912354,84.007263 110.351883C83.446793 109.791397,82.686646 109.476456,81.893951 109.476456C81.101257 109.476456,80.341110 109.791397,79.780640 110.351883C79.220154 110.912354,78.905212 111.672501,78.905212 112.465195C78.905212 113.257889,79.220154 114.018036,79.780640 114.578506C80.341110 115.138992,81.101257 115.453934,81.893951 115.453934C82.686646 115.453934,83.446793 115.138992,84.007263 114.578506C84.567749 114.018036,84.882690 113.257889,84.882690 112.465195Z" style="fill: rgb(100.000000%,100.000000%,100.000000%);stroke: none;"></path>
  <path d="M106.456009 120.412491C106.456009 119.619797,106.141068 118.859650,105.580582 118.299179C105.020111 117.738693,104.259964 117.423752,103.467270 117.423752C102.674576 117.423752,101.914429 117.738693,101.353958 118.299179C100.793472 118.859650,100.478531 119.619797,100.478531 120.412491C100.478531 121.205185,100.793472 121.965332,101.353958 122.525803C101.914429 123.086288,102.674576 123.401230,103.467270 123.401230C104.259964 123.401230,105.020111 123.086288,105.580582 122.525803C106.141068 121.965332,106.456009 121.205185,106.456009 120.412491Z" style="fill: rgb(100.000000%,100.000000%,100.000000%);stroke: none;"></path>
  <path d="M95.437057 116.409760C95.437057 115.617065,95.122116 114.856918,94.561630 114.296448C94.001160 113.735962,93.241013 113.421021,92.448318 113.421021C91.655624 113.421021,90.895477 113.735962,90.335007 114.296448C89.774521 114.856918,89.459579 115.617065,89.459579 116.409760C89.459579 117.202454,89.774521 117.962601,90.335007 118.523071C90.895477 119.083557,91.655624 119.398499,92.448318 119.398499C93.241013 119.398499,94.001160 119.083557,94.561630 118.523071C95.122116 117.962601,95.437057 117.202454,95.437057 116.409760Z" style="fill: rgb(100.000000%,100.000000%,100.000000%);stroke: none;"></path>
  <path d="M117.464035 127.520111C129.221802 138.266708,145.838486 141.884964,161.000000 137.000000C182.389359 130.108459,195.578552 109.005676,194.631683 86.354630C193.761948 65.549103,180.878860 46.822601,161.000000 41.458984C147.160538 37.724884,132.176331 43.032990,129.523392 55.884628C128.132416 62.622955,131.362579 69.120941,133.706635 75.558502C136.472321 83.154007,138.010864 91.179672,141.397858 98.525360C147.493591 111.745758,159.316193 122.402374,161.000000 137.000000C163.679276 160.227661,142.815475 177.618973,119.247513 185.419769C98.851669 192.170624,75.485977 192.323654,62.725281 176.043884C55.983841 167.443329,55.052734 155.353729,62.976532 148.842178C66.238770 146.161362,70.488174 145.271454,74.650543 144.606537C77.711411 144.117584,81.042328 143.322159,81.988693 140.467331C82.907990 137.694168,80.835556 135.119431,78.863678 132.870163C76.366684 130.021896,74.036148 126.915161,73.261383 123.201782C72.398392 119.065521,73.607941 114.891586,74.597549 110.796524C75.740067 106.068649,76.663559 101.127106,79.759903 97.356567C83.125076 93.258667,88.304504 91.429596,93.139481 89.298325C99.589691 86.455063,105.698486 82.852432,112.321014 80.429550C119.206619 77.910416,126.472946 76.725388,133.706635 75.558502C139.399384 74.640198,145.205109 73.682999,150.108643 70.626480C159.771942 64.603073,163.630341 52.673523,161.000000 41.458984C156.308304 21.455872,135.739838 11.383606,115.091568 6.892426C95.202744 2.566437,73.208344 2.873962,60.425552 18.097992C53.763702 26.032104,51.486298 36.994934,56.277573 46.041718C58.752487 50.714813,62.905853 54.142120,66.984634 57.490570C72.402435 61.938293,77.839264 66.431274,82.168030 71.951889C86.396317 77.344360,89.425034 83.544815,93.139481 89.298325C96.028503 93.773300,99.398010 98.194107,99.822510 103.523132C100.218506 108.494370,97.946030 113.126160,95.987350 117.695343C94.290649 121.653397,92.723419 125.817429,89.447403 128.632324C86.508804 131.157288,82.670715 132.180176,78.863678 132.870163C75.920410 133.403610,72.693756 134.118637,71.671371 136.857544C70.636520 139.629868,72.650024 142.314331,74.650543 144.606537C77.439758 147.802429,80.167847 151.221725,80.935867 155.401062C82.829041 165.703094,73.852188 174.449326,62.725281 176.043884C43.769455 178.760376,28.147339 163.990692,18.116959 146.919632C7.256287 128.435455,2.278534 105.579422,16.104340 90.493423C24.937988 80.854614,38.966507 78.963715,49.861954 71.929367C56.150269 67.869492,61.186630 62.212799,66.984634 57.490570C72.059464 53.357330,77.923737 49.595032,79.888809 43.323547C83.528534 31.707428,73.555054 20.650970,60.425552 18.097992C43.145905 14.738037,26.393555 24.220642,16.400818 39.010208C5.532959 55.094971,3.691360 76.229004,16.104340 90.493423C25.110703 100.843109,39.201080 103.890762,52.674545 106.441742C59.995331 107.827805,67.320831 109.194473,74.597549 110.796524C78.250336 111.600723,81.893951 112.465195,85.437500 113.664124C89.004440 114.870972,92.448318 116.409760,95.987350 117.695343C103.467270 120.412491,111.565186 122.128571,117.464035 127.520111" style="stroke:rgb(0.000000%,0.000000%,0.000000%); stroke-width: 0.498138;stroke-linecap: round;stroke-linejoin: round;stroke-miterlimit: 10.000000;fill: none;"></path>
  <path d="M117.464035 127.520111C129.221802 138.266708,145.838486 141.884964,161.000000 137.000000" style="stroke:rgb(0.000000%,0.000000%,0.000000%); stroke-width: 1.494400;stroke-linecap: round;stroke-linejoin: round;stroke-miterlimit: 10.000000;fill: none;"></path>
  <path d="M74.597549 110.796524C78.250336 111.600723,81.893951 112.465195,85.437500 113.664124C89.004440 114.870972,92.448318 116.409760,95.987350 117.695343C103.467270 120.412491,111.565186 122.128571,117.464035 127.520111" style="stroke:rgb(0.000000%,0.000000%,0.000000%); stroke-width: 1.494400;stroke-linecap: round;stroke-linejoin: round;stroke-miterlimit: 10.000000;fill: none;"></path>
  <path d="M163.988739 137.000000C163.988739 136.207306,163.673798 135.447159,163.113312 134.886688C162.552841 134.326202,161.792694 134.011261,161.000000 134.011261C160.207306 134.011261,159.447159 134.326202,158.886688 134.886688C158.326202 135.447159,158.011261 136.207306,158.011261 137.000000C158.011261 137.792694,158.326202 138.552841,158.886688 139.113312C159.447159 139.673798,160.207306 139.988739,161.000000 139.988739C161.792694 139.988739,162.552841 139.673798,163.113312 139.113312C163.673798 138.552841,163.988739 137.792694,163.988739 137.000000Z" style="fill: rgb(100.000000%,100.000000%,100.000000%);stroke: none;"></path>
  <path d="M152.853409 117.246231C156.781494 123.387634,160.158096 129.701187,161.000000 137.000000C162.339645 148.613831,157.793503 158.768585,149.966461 166.994980" style="stroke:rgb(0.000000%,0.000000%,0.000000%); stroke-width: 0.498138;stroke-linecap: round;stroke-linejoin: round;stroke-miterlimit: 10.000000;fill: none;"></path>
  <path d="M136.695374 75.558502C136.695374 74.765808,136.380432 74.005661,135.819946 73.445190C135.259476 72.884705,134.499329 72.569763,133.706635 72.569763C132.913940 72.569763,132.153793 72.884705,131.593323 73.445190C131.032837 74.005661,130.717896 74.765808,130.717896 75.558502C130.717896 76.351196,131.032837 77.111343,131.593323 77.671814C132.153793 78.232300,132.913940 78.547241,133.706635 78.547241C134.499329 78.547241,135.259476 78.232300,135.819946 77.671814C136.380432 77.111343,136.695374 76.351196,136.695374 75.558502Z" style="fill: rgb(100.000000%,100.000000%,100.000000%);stroke: none;"></path>
  <path d="M122.883301 77.486923C126.464798 76.729919,130.089798 76.141937,133.706635 75.558502C136.553009 75.099350,139.427628 74.630463,142.203598 73.894302" style="stroke:rgb(0.000000%,0.000000%,0.000000%); stroke-width: 0.498138;stroke-linecap: round;stroke-linejoin: round;stroke-miterlimit: 10.000000;fill: none;"></path>
  <path d="M65.714020 176.043884C65.714020 175.251190,65.399078 174.491043,64.838593 173.930573C64.278122 173.370087,63.517975 173.055145,62.725281 173.055145C61.932587 173.055145,61.172440 173.370087,60.611969 173.930573C60.051483 174.491043,59.736542 175.251190,59.736542 176.043884C59.736542 176.836578,60.051483 177.596725,60.611969 178.157196C61.172440 178.717682,61.932587 179.032623,62.725281 179.032623C63.517975 179.032623,64.278122 178.717682,64.838593 178.157196C65.399078 177.596725,65.714020 176.836578,65.714020 176.043884Z" style="fill: rgb(100.000000%,100.000000%,100.000000%);stroke: none;"></path>
  <path d="M88.123215 189.368317C78.137222 188.215454,69.105621 184.183762,62.725281 176.043884C59.354553 171.743607,57.436417 166.571060,57.351440 161.659637" style="stroke:rgb(0.000000%,0.000000%,0.000000%); stroke-width: 0.498138;stroke-linecap: round;stroke-linejoin: round;stroke-miterlimit: 10.000000;fill: none;"></path>
  <path d="M81.852417 132.870163C81.852417 132.077469,81.537476 131.317322,80.976990 130.756851C80.416519 130.196365,79.656372 129.881424,78.863678 129.881424C78.070984 129.881424,77.310837 130.196365,76.750366 130.756851C76.189880 131.317322,75.874939 132.077469,75.874939 132.870163C75.874939 133.662857,76.189880 134.423004,76.750366 134.983475C77.310837 135.543961,78.070984 135.858902,78.863678 135.858902C79.656372 135.858902,80.416519 135.543961,80.976990 134.983475C81.537476 134.423004,81.852417 133.662857,81.852417 132.870163Z" style="fill: rgb(100.000000%,100.000000%,100.000000%);stroke: none;"></path>
  <path d="M81.510361 136.472275C80.860687 135.200790,79.849609 133.994797,78.863678 132.870163C77.615173 131.446030,76.408295 129.957275,75.416687 128.360382" style="stroke:rgb(0.000000%,0.000000%,0.000000%); stroke-width: 0.498138;stroke-linecap: round;stroke-linejoin: round;stroke-miterlimit: 10.000000;fill: none;"></path>
  <path d="M96.128220 89.298325C96.128220 88.505630,95.813278 87.745483,95.252792 87.185013C94.692322 86.624527,93.932175 86.309586,93.139481 86.309586C92.346786 86.309586,91.586639 86.624527,91.026169 87.185013C90.465683 87.745483,90.150742 88.505630,90.150742 89.298325C90.150742 90.091019,90.465683 90.851166,91.026169 91.411636C91.586639 91.972122,92.346786 92.287064,93.139481 92.287064C93.932175 92.287064,94.692322 91.972122,95.252792 91.411636C95.813278 90.851166,96.128220 90.091019,96.128220 89.298325Z" style="fill: rgb(100.000000%,100.000000%,100.000000%);stroke: none;"></path>
  <path d="M87.846451 80.489731C89.596466 83.433090,91.282257 86.421570,93.139481 89.298325C94.584000 91.535812,96.148636 93.759766,97.405197 96.090469" style="stroke:rgb(0.000000%,0.000000%,0.000000%); stroke-width: 0.498138;stroke-linecap: round;stroke-linejoin: round;stroke-miterlimit: 10.000000;fill: none;"></path>
  <path d="M163.988739 41.458984C163.988739 40.666290,163.673798 39.906143,163.113312 39.345673C162.552841 38.785187,161.792694 38.470245,161.000000 38.470245C160.207306 38.470245,159.447159 38.785187,158.886688 39.345673C158.326202 39.906143,158.011261 40.666290,158.011261 41.458984C158.011261 42.251678,158.326202 43.011826,158.886688 43.572296C159.447159 44.132782,160.207306 44.447723,161.000000 44.447723C161.792694 44.447723,162.552841 44.132782,163.113312 43.572296C163.673798 43.011826,163.988739 42.251678,163.988739 41.458984Z" style="fill: rgb(100.000000%,100.000000%,100.000000%);stroke: none;"></path>
  <path d="M184.944260 58.116074C179.129913 50.163315,170.939423 44.140793,161.000000 41.458984C154.080261 39.591934,146.874344 39.985443,141.066742 42.452164" style="stroke:rgb(0.000000%,0.000000%,0.000000%); stroke-width: 0.498138;stroke-linecap: round;stroke-linejoin: round;stroke-miterlimit: 10.000000;fill: none;"></path>
  <path d="M69.973373 57.490570C69.973373 56.697876,69.658432 55.937729,69.097946 55.377258C68.537476 54.816772,67.777328 54.501831,66.984634 54.501831C66.191940 54.501831,65.431793 54.816772,64.871323 55.377258C64.310837 55.937729,63.995895 56.697876,63.995895 57.490570C63.995895 58.283264,64.310837 59.043411,64.871323 59.603882C65.431793 60.164368,66.191940 60.479309,66.984634 60.479309C67.777328 60.479309,68.537476 60.164368,69.097946 59.603882C69.658432 59.043411,69.973373 58.283264,69.973373 57.490570Z" style="fill: rgb(100.000000%,100.000000%,100.000000%);stroke: none;"></path>
  <path d="M58.607178 64.958344C61.377045 62.446411,64.085632 59.851685,66.984634 57.490570C69.522049 55.423950,72.256836 53.450058,74.602890 51.208893" style="stroke:rgb(0.000000%,0.000000%,0.000000%); stroke-width: 0.498138;stroke-linecap: round;stroke-linejoin: round;stroke-miterlimit: 10.000000;fill: none;"></path>
  <path d="M98.976089 117.695343C98.976089 116.902649,98.661148 116.142502,98.100662 115.582031C97.540192 115.021545,96.780045 114.706604,95.987350 114.706604C95.194656 114.706604,94.434509 115.021545,93.874039 115.582031C93.313553 116.142502,92.998611 116.902649,92.998611 117.695343C92.998611 118.488037,93.313553 119.248184,93.874039 119.808655C94.434509 120.369141,95.194656 120.684082,95.987350 120.684082C96.780045 120.684082,97.540192 120.369141,98.100662 119.808655C98.661148 119.248184,98.976089 118.488037,98.976089 117.695343Z" style="fill: rgb(100.000000%,100.000000%,100.000000%);stroke: none;"></path>
  <path d="M90.722900 115.650223C92.472107 116.346466,94.217834 117.052551,95.987350 117.695343C99.727310 119.053925,103.621780 120.162231,107.318604 121.604843" style="stroke:rgb(0.000000%,0.000000%,0.000000%); stroke-width: 1.494400;stroke-linecap: round;stroke-linejoin: round;stroke-miterlimit: 10.000000;fill: none;"></path>
  <path d="M77.639282 144.606537C77.639282 143.813843,77.324341 143.053696,76.763855 142.493225C76.203384 141.932739,75.443237 141.617798,74.650543 141.617798C73.857849 141.617798,73.097702 141.932739,72.537231 142.493225C71.976746 143.053696,71.661804 143.813843,71.661804 144.606537C71.661804 145.399231,71.976746 146.159378,72.537231 146.719849C73.097702 147.280334,73.857849 147.595276,74.650543 147.595276C75.443237 147.595276,76.203384 147.280334,76.763855 146.719849C77.324341 146.159378,77.639282 145.399231,77.639282 144.606537Z" style="fill: rgb(100.000000%,100.000000%,100.000000%);stroke: none;"></path>
  <path d="M72.022705 140.912094C72.646790 142.216278,73.650284 143.460434,74.650543 144.606537C76.045151 146.204483,77.424484 147.858292,78.551163 149.635025" style="stroke:rgb(0.000000%,0.000000%,0.000000%); stroke-width: 0.498138;stroke-linecap: round;stroke-linejoin: round;stroke-miterlimit: 10.000000;fill: none;"></path>
  <path d="M19.093079 90.493423C19.093079 89.700729,18.778137 88.940582,18.217651 88.380112C17.657181 87.819626,16.897034 87.504684,16.104340 87.504684C15.311646 87.504684,14.551498 87.819626,13.991028 88.380112C13.430542 88.940582,13.115601 89.700729,13.115601 90.493423C13.115601 91.286118,13.430542 92.046265,13.991028 92.606735C14.551498 93.167221,15.311646 93.482162,16.104340 93.482162C16.897034 93.482162,17.657181 93.167221,18.217651 92.606735C18.778137 92.046265,19.093079 91.286118,19.093079 90.493423Z" style="fill: rgb(100.000000%,100.000000%,100.000000%);stroke: none;"></path>
  <path d="M7.522263 65.434464C7.255005 74.511612,9.897858 83.361221,16.104340 90.493423C20.607529 95.668274,26.381714 99.017609,32.714294 101.392105" style="stroke:rgb(0.000000%,0.000000%,0.000000%); stroke-width: 0.498138;stroke-linecap: round;stroke-linejoin: round;stroke-miterlimit: 10.000000;fill: none;"></path>
  <path d="M63.414291 18.097992C63.414291 17.305298,63.099350 16.545151,62.538864 15.984680C61.978394 15.424194,61.218246 15.109253,60.425552 15.109253C59.632858 15.109253,58.872711 15.424194,58.312241 15.984680C57.751755 16.545151,57.436813 17.305298,57.436813 18.097992C57.436813 18.890686,57.751755 19.650833,58.312241 20.211304C58.872711 20.771790,59.632858 21.086731,60.425552 21.086731C61.218246 21.086731,61.978394 20.771790,62.538864 20.211304C63.099350 19.650833,63.414291 18.890686,63.414291 18.097992Z" style="fill: rgb(100.000000%,100.000000%,100.000000%);stroke: none;"></path>
  <path d="M85.093781 5.163956C75.511230 6.603088,66.816940 10.485977,60.425552 18.097992C57.094620 22.065048,54.859802 26.789291,54.056641 31.652618" style="stroke:rgb(0.000000%,0.000000%,0.000000%); stroke-width: 0.498138;stroke-linecap: round;stroke-linejoin: round;stroke-miterlimit: 10.000000;fill: none;"></path>
  <path d="M77.586288 110.796524C77.586288 110.003830,77.271347 109.243683,76.710861 108.683212C76.150391 108.122726,75.390244 107.807785,74.597549 107.807785C73.804855 107.807785,73.044708 108.122726,72.484238 108.683212C71.923752 109.243683,71.608810 110.003830,71.608810 110.796524C71.608810 111.589218,71.923752 112.349365,72.484238 112.909836C73.044708 113.470322,73.804855 113.785263,74.597549 113.785263C75.390244 113.785263,76.150391 113.470322,76.710861 112.909836C77.271347 112.349365,77.586288 111.589218,77.586288 110.796524Z" style="fill: rgb(100.000000%,100.000000%,100.000000%);stroke: none;"></path>
  <path d="M73.234756 116.983688C73.552963 114.911301,74.102753 112.844055,74.597549 110.796524C75.168808 108.432587,75.685318 106.015228,76.446045 103.717529" style="stroke:rgb(0.000000%,0.000000%,0.000000%); stroke-width: 0.498138;stroke-linecap: round;stroke-linejoin: round;stroke-miterlimit: 10.000000;fill: none;"></path>
  <path d="M85.437500 113.664124C88.291061 114.629608,91.065857 115.807526,93.873627 116.898300" style="stroke:rgb(0.000000%,0.000000%,0.000000%); stroke-width: 0.498138;stroke-linecap: round;stroke-linejoin: round;stroke-miterlimit: 10.000000;fill: none;"></path>
  <path d="M88.874191 116.977722C90.540268 116.943680,92.207382 116.935242,93.873627 116.898300C92.669327 115.746185,91.484543 114.573318,90.282394 113.419281Z" style="stroke:rgb(0.000000%,0.000000%,0.000000%); stroke-width: 0.498138;fill: rgb(0.000000%,0.000000%,0.000000%);"></path>
  <path d="M85.437500 113.664124C88.291061 114.629608,91.065857 115.807526,93.873627 116.898300" style="stroke:rgb(0.000000%,0.000000%,0.000000%); stroke-width: 0.498138;stroke-linecap: round;stroke-linejoin: round;stroke-miterlimit: 10.000000;fill: none;"></path>
  <path d="M90.873978 116.945709C91.873886 116.932373,92.873901 116.920471,93.873627 116.898300C93.151062 116.207062,92.435532 115.508331,91.719070 114.810699Z" style="stroke:rgb(0.000000%,0.000000%,0.000000%); stroke-width: 0.498138;fill: rgb(0.000000%,0.000000%,0.000000%);"></path>
  <path d="M129.523392 55.884628C128.410614 61.275314,130.255371 66.512177,132.237946 71.687332" style="stroke:rgb(0.000000%,0.000000%,0.000000%); stroke-width: 0.498138;stroke-linecap: round;stroke-linejoin: round;stroke-miterlimit: 10.000000;fill: none;"></path>
  <path d="M130.196609 69.489029C130.863541 70.229950,131.549042 70.960449,132.237946 71.687332C132.264832 70.686218,132.296646 69.684967,132.348984 68.689438Z" style="stroke:rgb(0.000000%,0.000000%,0.000000%); stroke-width: 0.498138;fill: rgb(0.000000%,0.000000%,0.000000%);"></path>
  <path d="M141.397858 98.525360C146.274460 109.101715,154.816284 118.037247,158.900024 128.662430" style="stroke:rgb(0.000000%,0.000000%,0.000000%); stroke-width: 0.498138;stroke-linecap: round;stroke-linejoin: round;stroke-miterlimit: 10.000000;fill: none;"></path>
  <path d="M156.759552 126.560181C157.496979 127.238556,158.211884 127.937897,158.900024 128.662430C158.925781 127.663513,158.914795 126.663513,158.873047 125.662384Z" style="stroke:rgb(0.000000%,0.000000%,0.000000%); stroke-width: 0.498138;fill: rgb(0.000000%,0.000000%,0.000000%);"></path>
  <path d="M73.261383 123.201782C72.570984 119.892761,73.207016 116.559631,73.995743 113.262054" style="stroke:rgb(0.000000%,0.000000%,0.000000%); stroke-width: 0.498138;stroke-linecap: round;stroke-linejoin: round;stroke-miterlimit: 10.000000;fill: none;"></path>
  <path d="M74.536865 116.212799C74.324661 115.240143,74.153442 114.252228,73.995743 113.262054C73.407074 114.073700,72.829575 114.893341,72.291840 115.731140Z" style="stroke:rgb(0.000000%,0.000000%,0.000000%); stroke-width: 0.498138;fill: rgb(0.000000%,0.000000%,0.000000%);"></path>
  <path d="M112.321014 80.429550C117.829514 78.414230,123.581680 77.252747,129.365875 76.271317" style="stroke:rgb(0.000000%,0.000000%,0.000000%); stroke-width: 0.498138;stroke-linecap: round;stroke-linejoin: round;stroke-miterlimit: 10.000000;fill: none;"></path>
  <path d="M126.835632 77.883331C127.674683 77.339722,128.518860 76.803284,129.365875 76.271317C128.390778 76.048523,127.414551 75.830902,126.436859 75.621979Z" style="stroke:rgb(0.000000%,0.000000%,0.000000%); stroke-width: 0.498138;fill: rgb(0.000000%,0.000000%,0.000000%);"></path>
  <path d="M56.277573 46.041718C58.257507 49.780212,61.311676 52.721390,64.542480 55.462738" style="stroke:rgb(0.000000%,0.000000%,0.000000%); stroke-width: 0.498138;stroke-linecap: round;stroke-linejoin: round;stroke-miterlimit: 10.000000;fill: none;"></path>
  <path d="M61.704758 54.489563C62.640533 54.835922,63.589096 55.156372,64.542480 55.462738C64.084976 54.571930,63.640869 53.674606,63.224106 52.768005Z" style="stroke:rgb(0.000000%,0.000000%,0.000000%); stroke-width: 0.498138;fill: rgb(0.000000%,0.000000%,0.000000%);"></path>
  <path d="M99.822510 103.523132C100.139313 107.500137,98.748260 111.259888,97.176331 114.944153" style="stroke:rgb(0.000000%,0.000000%,0.000000%); stroke-width: 0.498138;stroke-linecap: round;stroke-linejoin: round;stroke-miterlimit: 10.000000;fill: none;"></path>
  <path d="M97.148331 111.944199C97.185257 112.939484,97.186920 113.941833,97.176331 114.944153C97.892578 114.242920,98.600174 113.532959,99.277847 112.803116Z" style="stroke:rgb(0.000000%,0.000000%,0.000000%); stroke-width: 0.498138;fill: rgb(0.000000%,0.000000%,0.000000%);"></path>
  <path d="M71.671371 136.857544C70.843491 139.075409,71.966568 141.237045,73.473175 143.186600" style="stroke:rgb(0.000000%,0.000000%,0.000000%); stroke-width: 0.498138;stroke-linecap: round;stroke-linejoin: round;stroke-miterlimit: 10.000000;fill: none;"></path>
  <path d="M71.039490 141.432297C71.728668 142.099686,72.576920 142.673248,73.473175 143.186600C73.202438 142.189850,73.008240 141.184464,72.992828 140.225235Z" style="stroke:rgb(0.000000%,0.000000%,0.000000%); stroke-width: 0.498138;fill: rgb(0.000000%,0.000000%,0.000000%);"></path>
  <path d="M79.888809 43.323547C82.800598 34.030609,76.999863 25.095871,67.840759 20.586594" style="stroke:rgb(0.000000%,0.000000%,0.000000%); stroke-width: 0.498138;stroke-linecap: round;stroke-linejoin: round;stroke-miterlimit: 10.000000;fill: none;"></path>
  <path d="M70.820038 20.939453C69.844986 20.770233,68.849777 20.652054,67.840759 20.586594C68.507950 21.346390,69.128098 22.133667,69.697876 22.942810Z" style="stroke:rgb(0.000000%,0.000000%,0.000000%); stroke-width: 0.498138;fill: rgb(0.000000%,0.000000%,0.000000%);"></path>
  <path d="M52.674545 106.441742C58.531189 107.550598,64.390869 108.647034,70.226151 109.861511" style="stroke:rgb(0.000000%,0.000000%,0.000000%); stroke-width: 0.498138;stroke-linecap: round;stroke-linejoin: round;stroke-miterlimit: 10.000000;fill: none;"></path>
  <path d="M67.280640 110.430115C68.261917 110.237656,69.243713 110.047928,70.226151 109.861511C69.399658 109.298630,68.571274 108.738541,67.741333 108.180756Z" style="stroke:rgb(0.000000%,0.000000%,0.000000%); stroke-width: 0.498138;fill: rgb(0.000000%,0.000000%,0.000000%);"></path>
  <path d="M114.473389 130.230316L120.454681 130.230316L120.454681 122.809921L114.473389 122.809921Z" style="fill: rgb(100.000000%,100.000000%,100.000000%);stroke: none;"></path>
  <path d="M114.473389 132.230316L120.454681 132.230316L120.454681 124.809921L114.473389 124.809921Z" style="fill: rgb(100.000000%,100.000000%,100.000000%);stroke: none;"></path>
  <g transform="translate(114.973389 130.730316)" style="fill: rgb(0.000000%,0.000000%,0.000000%);">
    <use xlink:href="#GLYPHcmr10_49"></use>
  </g>
  <path d="M191.641037 89.064835L197.622330 89.064835L197.622330 81.644440L191.641037 81.644440Z" style="fill: rgb(100.000000%,100.000000%,100.000000%);stroke: none;"></path>
  <path d="M191.641037 91.064835L197.622330 91.064835L197.622330 83.644440L191.641037 83.644440Z" style="fill: rgb(100.000000%,100.000000%,100.000000%);stroke: none;"></path>
  <g transform="translate(192.141037 89.564835)" style="fill: rgb(0.000000%,0.000000%,0.000000%);">
    <use xlink:href="#GLYPHcmr10_50"></use>
  </g>
  <path d="M116.256866 188.129974L122.238159 188.129974L122.238159 180.709579L116.256866 180.709579Z" style="fill: rgb(100.000000%,100.000000%,100.000000%);stroke: none;"></path>
  <path d="M116.256866 190.129974L122.238159 190.129974L122.238159 182.709579L116.256866 182.709579Z" style="fill: rgb(100.000000%,100.000000%,100.000000%);stroke: none;"></path>
  <g transform="translate(116.756866 188.629974)" style="fill: rgb(0.000000%,0.000000%,0.000000%);">
    <use xlink:href="#GLYPHcmr10_51"></use>
  </g>
  <path d="M76.769257 100.066772L82.750549 100.066772L82.750549 92.646378L76.769257 92.646378Z" style="fill: rgb(100.000000%,100.000000%,100.000000%);stroke: none;"></path>
  <path d="M76.769257 102.066772L82.750549 102.066772L82.750549 94.646378L76.769257 94.646378Z" style="fill: rgb(100.000000%,100.000000%,100.000000%);stroke: none;"></path>
  <g transform="translate(77.269257 100.566772)" style="fill: rgb(0.000000%,0.000000%,0.000000%);">
    <use xlink:href="#GLYPHcmr10_52"></use>
  </g>
  <path d="M147.117996 73.336685L153.099289 73.336685L153.099289 65.916290L147.117996 65.916290Z" style="fill: rgb(100.000000%,100.000000%,100.000000%);stroke: none;"></path>
  <path d="M147.117996 75.336685L153.099289 75.336685L153.099289 67.916290L147.117996 67.916290Z" style="fill: rgb(100.000000%,100.000000%,100.000000%);stroke: none;"></path>
  <g transform="translate(147.617996 73.836685)" style="fill: rgb(0.000000%,0.000000%,0.000000%);">
    <use xlink:href="#GLYPHcmr10_53"></use>
  </g>
  <path d="M112.100922 9.602631L118.082214 9.602631L118.082214 2.182236L112.100922 2.182236Z" style="fill: rgb(100.000000%,100.000000%,100.000000%);stroke: none;"></path>
  <path d="M112.100922 11.602631L118.082214 11.602631L118.082214 4.182236L112.100922 4.182236Z" style="fill: rgb(100.000000%,100.000000%,100.000000%);stroke: none;"></path>
  <g transform="translate(112.600922 10.102631)" style="fill: rgb(0.000000%,0.000000%,0.000000%);">
    <use xlink:href="#GLYPHcmr10_54"></use>
  </g>
  <path d="M79.177383 74.662094L85.158676 74.662094L85.158676 67.241699L79.177383 67.241699Z" style="fill: rgb(100.000000%,100.000000%,100.000000%);stroke: none;"></path>
  <path d="M79.177383 76.662094L85.158676 76.662094L85.158676 69.241699L79.177383 69.241699Z" style="fill: rgb(100.000000%,100.000000%,100.000000%);stroke: none;"></path>
  <g transform="translate(79.677383 75.162094)" style="fill: rgb(0.000000%,0.000000%,0.000000%);">
    <use xlink:href="#GLYPHcmr10_55"></use>
  </g>
  <path d="M86.456757 131.342529L92.438049 131.342529L92.438049 123.922134L86.456757 123.922134Z" style="fill: rgb(100.000000%,100.000000%,100.000000%);stroke: none;"></path>
  <path d="M86.456757 133.342529L92.438049 133.342529L92.438049 125.922134L86.456757 125.922134Z" style="fill: rgb(100.000000%,100.000000%,100.000000%);stroke: none;"></path>
  <g transform="translate(86.956757 131.842529)" style="fill: rgb(0.000000%,0.000000%,0.000000%);">
    <use xlink:href="#GLYPHcmr10_56"></use>
  </g>
  <path d="M77.945221 158.111267L83.926514 158.111267L83.926514 150.690872L77.945221 150.690872Z" style="fill: rgb(100.000000%,100.000000%,100.000000%);stroke: none;"></path>
  <path d="M77.945221 160.111267L83.926514 160.111267L83.926514 152.690872L77.945221 152.690872Z" style="fill: rgb(100.000000%,100.000000%,100.000000%);stroke: none;"></path>
  <g transform="translate(78.445221 158.611267)" style="fill: rgb(0.000000%,0.000000%,0.000000%);">
    <use xlink:href="#GLYPHcmr10_57"></use>
  </g>
  <path d="M12.635605 149.629837L23.598312 149.629837L23.598312 142.209442L12.635605 142.209442Z" style="fill: rgb(100.000000%,100.000000%,100.000000%);stroke: none;"></path>
  <path d="M12.635605 151.629837L23.598312 151.629837L23.598312 144.209442L12.635605 144.209442Z" style="fill: rgb(100.000000%,100.000000%,100.000000%);stroke: none;"></path>
  <g transform="translate(13.135605 150.129837)" style="fill: rgb(0.000000%,0.000000%,0.000000%);">
    <use xlink:href="#GLYPHcmr10_49"></use>
    <use xlink:href="#GLYPHcmr10_48" x="5.000095"></use>
  </g>
  <path d="M44.380600 74.639572L55.343307 74.639572L55.343307 67.219177L44.380600 67.219177Z" style="fill: rgb(100.000000%,100.000000%,100.000000%);stroke: none;"></path>
  <path d="M44.380600 76.639572L55.343307 76.639572L55.343307 69.219177L44.380600 69.219177Z" style="fill: rgb(100.000000%,100.000000%,100.000000%);stroke: none;"></path>
  <g transform="translate(44.880600 75.139572)" style="fill: rgb(0.000000%,0.000000%,0.000000%);">
    <use xlink:href="#GLYPHcmr10_49"></use>
    <use xlink:href="#GLYPHcmr10_49" x="5.000095"></use>
  </g>
  <path d="M10.919464 41.720413L21.882172 41.720413L21.882172 34.300018L10.919464 34.300018Z" style="fill: rgb(100.000000%,100.000000%,100.000000%);stroke: none;"></path>
  <path d="M10.919464 43.720413L21.882172 43.720413L21.882172 36.300018L10.919464 36.300018Z" style="fill: rgb(100.000000%,100.000000%,100.000000%);stroke: none;"></path>
  <g transform="translate(11.419464 42.220413)" style="fill: rgb(0.000000%,0.000000%,0.000000%);">
    <use xlink:href="#GLYPHcmr10_49"></use>
    <use xlink:href="#GLYPHcmr10_50" x="5.000095"></use>
  </g>
</svg>
