<?xml version="1.0"?>
<!-- Created by MetaPost 1.999 on 2021.07.05:2357 -->
<svg version="1.1" xmlns="http://www.w3.org/2000/svg" xmlns:xlink="http://www.w3.org/1999/xlink" width="196.937836" height="194.876266" viewBox="0 0 196.937836 194.876266">
<!-- Original BoundingBox: -162.664993 -58.802551 34.272842 136.073715 -->
  <defs>
    <g transform="scale(0.009963,0.009963)" id="GLYPHcmr10_48">
      <path style="fill-rule: evenodd;" d="M460.000000 -320.000000C460.000000 -400.000000,455.000000 -480.000000,420.000000 -554.000000C374.000000 -650.000000,292.000000 -666.000000,250.000000 -666.000000C190.000000 -666.000000,117.000000 -640.000000,76.000000 -547.000000C44.000000 -478.000000,39.000000 -400.000000,39.000000 -320.000000C39.000000 -245.000000,43.000000 -155.000000,84.000000 -79.000000C127.000000 2.000000,200.000000 22.000000,249.000000 22.000000C303.000000 22.000000,379.000000 1.000000,423.000000 -94.000000C455.000000 -163.000000,460.000000 -241.000000,460.000000 -320.000000M249.000000 -0.000000C210.000000 -0.000000,151.000000 -25.000000,133.000000 -121.000000C122.000000 -181.000000,122.000000 -273.000000,122.000000 -332.000000C122.000000 -396.000000,122.000000 -462.000000,130.000000 -516.000000C149.000000 -635.000000,224.000000 -644.000000,249.000000 -644.000000C282.000000 -644.000000,348.000000 -626.000000,367.000000 -527.000000C377.000000 -471.000000,377.000000 -395.000000,377.000000 -332.000000C377.000000 -257.000000,377.000000 -189.000000,366.000000 -125.000000C351.000000 -30.000000,294.000000 -0.000000,249.000000 -0.000000"></path>
    </g>
    <g transform="scale(0.009963,0.009963)" id="GLYPHcmr10_49">
      <path style="fill-rule: evenodd;" d="M294.000000 -640.000000C294.000000 -664.000000,294.000000 -666.000000,271.000000 -666.000000C209.000000 -602.000000,121.000000 -602.000000,89.000000 -602.000000L89.000000 -571.000000C109.000000 -571.000000,168.000000 -571.000000,220.000000 -597.000000L220.000000 -79.000000C220.000000 -43.000000,217.000000 -31.000000,127.000000 -31.000000L95.000000 -31.000000L95.000000 -0.000000L257.000000 -0.000000L130.000000 -3.000000L217.000000 -3.000000L257.000000 -3.000000L297.000000 -3.000000L384.000000 -3.000000L419.000000 -0.000000L419.000000 -31.000000L387.000000 -31.000000C297.000000 -31.000000,294.000000 -42.000000,294.000000 -79.000000"></path>
    </g>
    <g transform="scale(0.009963,0.009963)" id="GLYPHcmr10_50">
      <path style="fill-rule: evenodd;" d="M127.000000 -77.000000L233.000000 -180.000000C389.000000 -318.000000,449.000000 -372.000000,449.000000 -472.000000C449.000000 -586.000000,359.000000 -666.000000,237.000000 -666.000000C124.000000 -666.000000,50.000000 -574.000000,50.000000 -485.000000C50.000000 -429.000000,100.000000 -429.000000,103.000000 -429.000000C120.000000 -429.000000,155.000000 -441.000000,155.000000 -482.000000C155.000000 -508.000000,137.000000 -534.000000,102.000000 -534.000000C94.000000 -534.000000,92.000000 -534.000000,89.000000 -533.000000C112.000000 -598.000000,166.000000 -635.000000,224.000000 -635.000000C315.000000 -635.000000,358.000000 -554.000000,358.000000 -472.000000C358.000000 -392.000000,308.000000 -313.000000,253.000000 -251.000000L61.000000 -37.000000C50.000000 -26.000000,50.000000 -24.000000,50.000000 -0.000000L421.000000 -0.000000L449.000000 -174.000000L424.000000 -174.000000C419.000000 -144.000000,412.000000 -100.000000,402.000000 -85.000000C395.000000 -77.000000,329.000000 -77.000000,307.000000 -77.000000"></path>
    </g>
    <g transform="scale(0.009963,0.009963)" id="GLYPHcmr10_51">
      <path style="fill-rule: evenodd;" d="M290.000000 -352.000000C372.000000 -379.000000,430.000000 -449.000000,430.000000 -528.000000C430.000000 -610.000000,342.000000 -666.000000,246.000000 -666.000000C145.000000 -666.000000,69.000000 -606.000000,69.000000 -530.000000C69.000000 -497.000000,91.000000 -478.000000,120.000000 -478.000000C151.000000 -478.000000,171.000000 -500.000000,171.000000 -529.000000C171.000000 -579.000000,124.000000 -579.000000,109.000000 -579.000000C140.000000 -628.000000,206.000000 -641.000000,242.000000 -641.000000C283.000000 -641.000000,338.000000 -619.000000,338.000000 -529.000000C338.000000 -517.000000,336.000000 -459.000000,310.000000 -415.000000C280.000000 -367.000000,246.000000 -364.000000,221.000000 -363.000000C213.000000 -362.000000,189.000000 -360.000000,182.000000 -360.000000C174.000000 -359.000000,167.000000 -358.000000,167.000000 -348.000000C167.000000 -337.000000,174.000000 -337.000000,191.000000 -337.000000L235.000000 -337.000000C317.000000 -337.000000,354.000000 -269.000000,354.000000 -171.000000C354.000000 -35.000000,285.000000 -6.000000,241.000000 -6.000000C198.000000 -6.000000,123.000000 -23.000000,88.000000 -82.000000C123.000000 -77.000000,154.000000 -99.000000,154.000000 -137.000000C154.000000 -173.000000,127.000000 -193.000000,98.000000 -193.000000C74.000000 -193.000000,42.000000 -179.000000,42.000000 -135.000000C42.000000 -44.000000,135.000000 22.000000,244.000000 22.000000C366.000000 22.000000,457.000000 -69.000000,457.000000 -171.000000C457.000000 -253.000000,394.000000 -331.000000,290.000000 -352.000000"></path>
    </g>
    <g transform="scale(0.009963,0.009963)" id="GLYPHcmr10_52">
      <path style="fill-rule: evenodd;" d="M294.000000 -165.000000L294.000000 -78.000000C294.000000 -42.000000,292.000000 -31.000000,218.000000 -31.000000L197.000000 -31.000000L197.000000 -0.000000L332.000000 -0.000000L238.000000 -3.000000L290.000000 -3.000000L332.000000 -3.000000L374.000000 -3.000000L427.000000 -3.000000L468.000000 -0.000000L468.000000 -31.000000L447.000000 -31.000000C373.000000 -31.000000,371.000000 -42.000000,371.000000 -78.000000L371.000000 -165.000000L471.000000 -165.000000L471.000000 -196.000000L371.000000 -196.000000L371.000000 -651.000000C371.000000 -671.000000,371.000000 -677.000000,355.000000 -677.000000C346.000000 -677.000000,343.000000 -677.000000,335.000000 -665.000000L28.000000 -196.000000L28.000000 -165.000000M300.000000 -196.000000L56.000000 -196.000000L300.000000 -569.000000"></path>
    </g>
    <g transform="scale(0.009963,0.009963)" id="GLYPHcmr10_53">
      <path style="fill-rule: evenodd;" d="M449.000000 -201.000000C449.000000 -320.000000,367.000000 -420.000000,259.000000 -420.000000C211.000000 -420.000000,168.000000 -404.000000,132.000000 -369.000000L132.000000 -564.000000C152.000000 -558.000000,185.000000 -551.000000,217.000000 -551.000000C340.000000 -551.000000,410.000000 -642.000000,410.000000 -655.000000C410.000000 -661.000000,407.000000 -666.000000,400.000000 -666.000000C399.000000 -666.000000,397.000000 -666.000000,392.000000 -663.000000C372.000000 -654.000000,323.000000 -634.000000,256.000000 -634.000000C216.000000 -634.000000,170.000000 -641.000000,123.000000 -662.000000C115.000000 -665.000000,113.000000 -665.000000,111.000000 -665.000000C101.000000 -665.000000,101.000000 -657.000000,101.000000 -641.000000L101.000000 -345.000000C101.000000 -327.000000,101.000000 -319.000000,115.000000 -319.000000C122.000000 -319.000000,124.000000 -322.000000,128.000000 -328.000000C139.000000 -344.000000,176.000000 -398.000000,257.000000 -398.000000C309.000000 -398.000000,334.000000 -352.000000,342.000000 -334.000000C358.000000 -297.000000,360.000000 -258.000000,360.000000 -208.000000C360.000000 -173.000000,360.000000 -113.000000,336.000000 -71.000000C312.000000 -32.000000,275.000000 -6.000000,229.000000 -6.000000C156.000000 -6.000000,99.000000 -59.000000,82.000000 -118.000000C85.000000 -117.000000,88.000000 -116.000000,99.000000 -116.000000C132.000000 -116.000000,149.000000 -141.000000,149.000000 -165.000000C149.000000 -189.000000,132.000000 -214.000000,99.000000 -214.000000C85.000000 -214.000000,50.000000 -207.000000,50.000000 -161.000000C50.000000 -75.000000,119.000000 22.000000,231.000000 22.000000C347.000000 22.000000,449.000000 -74.000000,449.000000 -201.000000"></path>
    </g>
    <g transform="scale(0.009963,0.009963)" id="GLYPHcmr10_54">
      <path style="fill-rule: evenodd;" d="M132.000000 -328.000000L132.000000 -352.000000C132.000000 -605.000000,256.000000 -641.000000,307.000000 -641.000000C331.000000 -641.000000,373.000000 -635.000000,395.000000 -601.000000C380.000000 -601.000000,340.000000 -601.000000,340.000000 -556.000000C340.000000 -525.000000,364.000000 -510.000000,386.000000 -510.000000C402.000000 -510.000000,432.000000 -519.000000,432.000000 -558.000000C432.000000 -618.000000,388.000000 -666.000000,305.000000 -666.000000C177.000000 -666.000000,42.000000 -537.000000,42.000000 -316.000000C42.000000 -49.000000,158.000000 22.000000,251.000000 22.000000C362.000000 22.000000,457.000000 -72.000000,457.000000 -204.000000C457.000000 -331.000000,368.000000 -427.000000,257.000000 -427.000000C189.000000 -427.000000,152.000000 -376.000000,132.000000 -328.000000M251.000000 -6.000000C188.000000 -6.000000,158.000000 -66.000000,152.000000 -81.000000C134.000000 -128.000000,134.000000 -208.000000,134.000000 -226.000000C134.000000 -304.000000,166.000000 -404.000000,256.000000 -404.000000C272.000000 -404.000000,318.000000 -404.000000,349.000000 -342.000000C367.000000 -305.000000,367.000000 -254.000000,367.000000 -205.000000C367.000000 -157.000000,367.000000 -107.000000,350.000000 -71.000000C320.000000 -11.000000,274.000000 -6.000000,251.000000 -6.000000"></path>
    </g>
    <g transform="scale(0.009963,0.009963)" id="GLYPHcmr10_55">
      <path style="fill-rule: evenodd;" d="M476.000000 -609.000000C485.000000 -621.000000,485.000000 -623.000000,485.000000 -644.000000L242.000000 -644.000000C120.000000 -644.000000,118.000000 -657.000000,114.000000 -676.000000L89.000000 -676.000000L56.000000 -470.000000L81.000000 -470.000000C84.000000 -486.000000,93.000000 -549.000000,106.000000 -561.000000C113.000000 -567.000000,191.000000 -567.000000,204.000000 -567.000000L411.000000 -567.000000C400.000000 -551.000000,321.000000 -442.000000,299.000000 -409.000000C209.000000 -274.000000,176.000000 -135.000000,176.000000 -33.000000C176.000000 -23.000000,176.000000 22.000000,222.000000 22.000000C268.000000 22.000000,268.000000 -23.000000,268.000000 -33.000000L268.000000 -84.000000C268.000000 -139.000000,271.000000 -194.000000,279.000000 -248.000000C283.000000 -271.000000,297.000000 -357.000000,341.000000 -419.000000"></path>
    </g>
    <g transform="scale(0.009963,0.009963)" id="GLYPHcmr10_56">
      <path style="fill-rule: evenodd;" d="M163.000000 -457.000000C117.000000 -487.000000,113.000000 -521.000000,113.000000 -538.000000C113.000000 -599.000000,178.000000 -641.000000,249.000000 -641.000000C322.000000 -641.000000,386.000000 -589.000000,386.000000 -517.000000C386.000000 -460.000000,347.000000 -412.000000,287.000000 -377.000000M309.000000 -362.000000C381.000000 -399.000000,430.000000 -451.000000,430.000000 -517.000000C430.000000 -609.000000,341.000000 -666.000000,250.000000 -666.000000C150.000000 -666.000000,69.000000 -592.000000,69.000000 -499.000000C69.000000 -481.000000,71.000000 -436.000000,113.000000 -389.000000C124.000000 -377.000000,161.000000 -352.000000,186.000000 -335.000000C128.000000 -306.000000,42.000000 -250.000000,42.000000 -151.000000C42.000000 -45.000000,144.000000 22.000000,249.000000 22.000000C362.000000 22.000000,457.000000 -61.000000,457.000000 -168.000000C457.000000 -204.000000,446.000000 -249.000000,408.000000 -291.000000C389.000000 -312.000000,373.000000 -322.000000,309.000000 -362.000000M209.000000 -320.000000L332.000000 -242.000000C360.000000 -223.000000,407.000000 -193.000000,407.000000 -132.000000C407.000000 -58.000000,332.000000 -6.000000,250.000000 -6.000000C164.000000 -6.000000,92.000000 -68.000000,92.000000 -151.000000C92.000000 -209.000000,124.000000 -273.000000,209.000000 -320.000000"></path>
    </g>
    <g transform="scale(0.009963,0.009963)" id="GLYPHcmr10_57">
      <path style="fill-rule: evenodd;" d="M367.000000 -318.000000L367.000000 -286.000000C367.000000 -52.000000,263.000000 -6.000000,205.000000 -6.000000C188.000000 -6.000000,134.000000 -8.000000,107.000000 -42.000000C151.000000 -42.000000,159.000000 -71.000000,159.000000 -88.000000C159.000000 -119.000000,135.000000 -134.000000,113.000000 -134.000000C97.000000 -134.000000,67.000000 -125.000000,67.000000 -86.000000C67.000000 -19.000000,121.000000 22.000000,206.000000 22.000000C335.000000 22.000000,457.000000 -114.000000,457.000000 -329.000000C457.000000 -598.000000,342.000000 -666.000000,253.000000 -666.000000C198.000000 -666.000000,149.000000 -648.000000,106.000000 -603.000000C65.000000 -558.000000,42.000000 -516.000000,42.000000 -441.000000C42.000000 -316.000000,130.000000 -218.000000,242.000000 -218.000000C303.000000 -218.000000,344.000000 -260.000000,367.000000 -318.000000M243.000000 -241.000000C227.000000 -241.000000,181.000000 -241.000000,150.000000 -304.000000C132.000000 -341.000000,132.000000 -391.000000,132.000000 -440.000000C132.000000 -494.000000,132.000000 -541.000000,153.000000 -578.000000C180.000000 -628.000000,218.000000 -641.000000,253.000000 -641.000000C299.000000 -641.000000,332.000000 -607.000000,349.000000 -562.000000C361.000000 -530.000000,365.000000 -467.000000,365.000000 -421.000000C365.000000 -338.000000,331.000000 -241.000000,243.000000 -241.000000"></path>
    </g>
  </defs>
  <path d="M135.528244 135.841187C135.528244 135.048492,135.213303 134.288345,134.652817 133.727875C134.092346 133.167389,133.332199 132.852448,132.539505 132.852448C131.746811 132.852448,130.986664 133.167389,130.426193 133.727875C129.865707 134.288345,129.550766 135.048492,129.550766 135.841187C129.550766 136.633881,129.865707 137.394028,130.426193 137.954498C130.986664 138.514984,131.746811 138.829926,132.539505 138.829926C133.332199 138.829926,134.092346 138.514984,134.652817 137.954498C135.213303 137.394028,135.528244 136.633881,135.528244 135.841187Z" style="fill: rgb(100.000000%,100.000000%,100.000000%);stroke: none;"></path>
  <path d="M126.214828 124.375000C126.214828 123.582306,125.899887 122.822159,125.339401 122.261688C124.778931 121.701202,124.018784 121.386261,123.226089 121.386261C122.433395 121.386261,121.673248 121.701202,121.112778 122.261688C120.552292 122.822159,120.237350 123.582306,120.237350 124.375000C120.237350 125.167694,120.552292 125.927841,121.112778 126.488312C121.673248 127.048798,122.433395 127.363739,123.226089 127.363739C124.018784 127.363739,124.778931 127.048798,125.339401 126.488312C125.899887 125.927841,126.214828 125.167694,126.214828 124.375000Z" style="fill: rgb(100.000000%,100.000000%,100.000000%);stroke: none;"></path>
  <path d="M185.769135 129.433731C185.769135 128.641037,185.454193 127.880890,184.893707 127.320419C184.333237 126.759933,183.573090 126.444992,182.780396 126.444992C181.987701 126.444992,181.227554 126.759933,180.667084 127.320419C180.106598 127.880890,179.791656 128.641037,179.791656 129.433731C179.791656 130.226425,180.106598 130.986572,180.667084 131.547043C181.227554 132.107529,181.987701 132.422470,182.780396 132.422470C183.573090 132.422470,184.333237 132.107529,184.893707 131.547043C185.454193 130.986572,185.769135 130.226425,185.769135 129.433731Z" style="fill: rgb(100.000000%,100.000000%,100.000000%);stroke: none;"></path>
  <path d="M150.903152 140.450806C150.903152 139.658112,150.588211 138.897964,150.027725 138.337494C149.467255 137.777008,148.707108 137.462067,147.914413 137.462067C147.121719 137.462067,146.361572 137.777008,145.801102 138.337494C145.240616 138.897964,144.925674 139.658112,144.925674 140.450806C144.925674 141.243500,145.240616 142.003647,145.801102 142.564117C146.361572 143.124603,147.121719 143.439545,147.914413 143.439545C148.707108 143.439545,149.467255 143.124603,150.027725 142.564117C150.588211 142.003647,150.903152 141.243500,150.903152 140.450806Z" style="fill: rgb(100.000000%,100.000000%,100.000000%);stroke: none;"></path>
  <path d="M195.267456 64.043152C195.267456 63.250458,194.952515 62.490311,194.392029 61.929840C193.831558 61.369354,193.071411 61.054413,192.278717 61.054413C191.486023 61.054413,190.725876 61.369354,190.165405 61.929840C189.604919 62.490311,189.289978 63.250458,189.289978 64.043152C189.289978 64.835846,189.604919 65.595993,190.165405 66.156464C190.725876 66.716949,191.486023 67.031891,192.278717 67.031891C193.071411 67.031891,193.831558 66.716949,194.392029 66.156464C194.952515 65.595993,195.267456 64.835846,195.267456 64.043152Z" style="fill: rgb(100.000000%,100.000000%,100.000000%);stroke: none;"></path>
  <path d="M196.272842 107.356720C196.272842 106.564026,195.957901 105.803879,195.397415 105.243408C194.836945 104.682922,194.076797 104.367981,193.284103 104.367981C192.491409 104.367981,191.731262 104.682922,191.170792 105.243408C190.610306 105.803879,190.295364 106.564026,190.295364 107.356720C190.295364 108.149414,190.610306 108.909561,191.170792 109.470032C191.731262 110.030518,192.491409 110.345459,193.284103 110.345459C194.076797 110.345459,194.836945 110.030518,195.397415 109.470032C195.957901 108.909561,196.272842 108.149414,196.272842 107.356720Z" style="fill: rgb(100.000000%,100.000000%,100.000000%);stroke: none;"></path>
  <path d="M152.734665 37.933533C152.734665 37.140839,152.419724 36.380692,151.859238 35.820221C151.298767 35.259735,150.538620 34.944794,149.745926 34.944794C148.953232 34.944794,148.193085 35.259735,147.632614 35.820221C147.072128 36.380692,146.757187 37.140839,146.757187 37.933533C146.757187 38.726227,147.072128 39.486374,147.632614 40.046844C148.193085 40.607330,148.953232 40.922272,149.745926 40.922272C150.538620 40.922272,151.298767 40.607330,151.859238 40.046844C152.419724 39.486374,152.734665 38.726227,152.734665 37.933533Z" style="fill: rgb(100.000000%,100.000000%,100.000000%);stroke: none;"></path>
  <path d="M184.625900 43.797653C184.625900 43.004959,184.310959 42.244812,183.750473 41.684341C183.190002 41.123856,182.429855 40.808914,181.637161 40.808914C180.844467 40.808914,180.084320 41.123856,179.523849 41.684341C178.963364 42.244812,178.648422 43.004959,178.648422 43.797653C178.648422 44.590347,178.963364 45.350494,179.523849 45.910965C180.084320 46.471451,180.844467 46.786392,181.637161 46.786392C182.429855 46.786392,183.190002 46.471451,183.750473 45.910965C184.310959 45.350494,184.625900 44.590347,184.625900 43.797653Z" style="fill: rgb(100.000000%,100.000000%,100.000000%);stroke: none;"></path>
  <path d="M137.412766 62.360382C137.412766 61.567688,137.097824 60.807541,136.537338 60.247070C135.976868 59.686584,135.216721 59.371643,134.424026 59.371643C133.631332 59.371643,132.871185 59.686584,132.310715 60.247070C131.750229 60.807541,131.435287 61.567688,131.435287 62.360382C131.435287 63.153076,131.750229 63.913223,132.310715 64.473694C132.871185 65.034180,133.631332 65.349121,134.424026 65.349121C135.216721 65.349121,135.976868 65.034180,136.537338 64.473694C137.097824 63.913223,137.412766 63.153076,137.412766 62.360382Z" style="fill: rgb(100.000000%,100.000000%,100.000000%);stroke: none;"></path>
  <path d="M140.328522 44.349777C140.328522 43.557083,140.013580 42.796936,139.453094 42.236465C138.892624 41.675980,138.132477 41.361038,137.339783 41.361038C136.547089 41.361038,135.786942 41.675980,135.226471 42.236465C134.665985 42.796936,134.351044 43.557083,134.351044 44.349777C134.351044 45.142471,134.665985 45.902618,135.226471 46.463089C135.786942 47.023575,136.547089 47.338516,137.339783 47.338516C138.132477 47.338516,138.892624 47.023575,139.453094 46.463089C140.013580 45.902618,140.328522 45.142471,140.328522 44.349777Z" style="fill: rgb(100.000000%,100.000000%,100.000000%);stroke: none;"></path>
  <path d="M144.858826 81.821426C144.858826 81.028732,144.543884 80.268585,143.983398 79.708115C143.422928 79.147629,142.662781 78.832687,141.870087 78.832687C141.077393 78.832687,140.317245 79.147629,139.756775 79.708115C139.196289 80.268585,138.881348 81.028732,138.881348 81.821426C138.881348 82.614120,139.196289 83.374268,139.756775 83.934738C140.317245 84.495224,141.077393 84.810165,141.870087 84.810165C142.662781 84.810165,143.422928 84.495224,143.983398 83.934738C144.543884 83.374268,144.858826 82.614120,144.858826 81.821426Z" style="fill: rgb(100.000000%,100.000000%,100.000000%);stroke: none;"></path>
  <path d="M140.345398 68.421021C140.345398 67.628326,140.030457 66.868179,139.469971 66.307709C138.909500 65.747223,138.149353 65.432281,137.356659 65.432281C136.563965 65.432281,135.803818 65.747223,135.243347 66.307709C134.682861 66.868179,134.367920 67.628326,134.367920 68.421021C134.367920 69.213715,134.682861 69.973862,135.243347 70.534332C135.803818 71.094818,136.563965 71.409760,137.356659 71.409760C138.149353 71.409760,138.909500 71.094818,139.469971 70.534332C140.030457 69.973862,140.345398 69.213715,140.345398 68.421021Z" style="fill: rgb(100.000000%,100.000000%,100.000000%);stroke: none;"></path>
  <path d="M153.692764 110.166534C153.692764 109.373840,153.377823 108.613693,152.817337 108.053223C152.256866 107.492737,151.496719 107.177795,150.704025 107.177795C149.911331 107.177795,149.151184 107.492737,148.590714 108.053223C148.030228 108.613693,147.715286 109.373840,147.715286 110.166534C147.715286 110.959229,148.030228 111.719376,148.590714 112.279846C149.151184 112.840332,149.911331 113.155273,150.704025 113.155273C151.496719 113.155273,152.256866 112.840332,152.817337 112.279846C153.377823 111.719376,153.692764 110.959229,153.692764 110.166534Z" style="fill: rgb(100.000000%,100.000000%,100.000000%);stroke: none;"></path>
  <path d="M146.035324 89.538406C146.035324 88.745712,145.720383 87.985565,145.159897 87.425095C144.599426 86.864609,143.839279 86.549667,143.046585 86.549667C142.253891 86.549667,141.493744 86.864609,140.933273 87.425095C140.372787 87.985565,140.057846 88.745712,140.057846 89.538406C140.057846 90.331100,140.372787 91.091248,140.933273 91.651718C141.493744 92.212204,142.253891 92.527145,143.046585 92.527145C143.839279 92.527145,144.599426 92.212204,145.159897 91.651718C145.720383 91.091248,146.035324 90.331100,146.035324 89.538406Z" style="fill: rgb(100.000000%,100.000000%,100.000000%);stroke: none;"></path>
  <path d="M167.174545 159.402374C167.174545 158.609680,166.859604 157.849533,166.299118 157.289062C165.738647 156.728577,164.978500 156.413635,164.185806 156.413635C163.393112 156.413635,162.632965 156.728577,162.072495 157.289062C161.512009 157.849533,161.197067 158.609680,161.197067 159.402374C161.197067 160.195068,161.512009 160.955215,162.072495 161.515686C162.632965 162.076172,163.393112 162.391113,164.185806 162.391113C164.978500 162.391113,165.738647 162.076172,166.299118 161.515686C166.859604 160.955215,167.174545 160.195068,167.174545 159.402374Z" style="fill: rgb(100.000000%,100.000000%,100.000000%);stroke: none;"></path>
  <path d="M163.653671 121.706070C163.653671 120.913376,163.338730 120.153229,162.778244 119.592758C162.217773 119.032272,161.457626 118.717331,160.664932 118.717331C159.872238 118.717331,159.112091 119.032272,158.551620 119.592758C157.991135 120.153229,157.676193 120.913376,157.676193 121.706070C157.676193 122.498764,157.991135 123.258911,158.551620 123.819382C159.112091 124.379868,159.872238 124.694809,160.664932 124.694809C161.457626 124.694809,162.217773 124.379868,162.778244 123.819382C163.338730 123.258911,163.653671 122.498764,163.653671 121.706070Z" style="fill: rgb(100.000000%,100.000000%,100.000000%);stroke: none;"></path>
  <path d="M103.151016 191.813812C103.151016 191.021118,102.836075 190.260971,102.275589 189.700500C101.715118 189.140015,100.954971 188.825073,100.162277 188.825073C99.369583 188.825073,98.609436 189.140015,98.048965 189.700500C97.488480 190.260971,97.173538 191.021118,97.173538 191.813812C97.173538 192.606506,97.488480 193.366653,98.048965 193.927124C98.609436 194.487610,99.369583 194.802551,100.162277 194.802551C100.954971 194.802551,101.715118 194.487610,102.275589 193.927124C102.836075 193.366653,103.151016 192.606506,103.151016 191.813812Z" style="fill: rgb(100.000000%,100.000000%,100.000000%);stroke: none;"></path>
  <path d="M148.193588 178.380768C148.193588 177.588074,147.878647 176.827927,147.318161 176.267456C146.757690 175.706970,145.997543 175.392029,145.204849 175.392029C144.412155 175.392029,143.652008 175.706970,143.091537 176.267456C142.531052 176.827927,142.216110 177.588074,142.216110 178.380768C142.216110 179.173462,142.531052 179.933609,143.091537 180.494080C143.652008 181.054565,144.412155 181.369507,145.204849 181.369507C145.997543 181.369507,146.757690 181.054565,147.318161 180.494080C147.878647 179.933609,148.193588 179.173462,148.193588 178.380768Z" style="fill: rgb(100.000000%,100.000000%,100.000000%);stroke: none;"></path>
  <path d="M61.672668 156.597046C61.672668 155.804352,61.357727 155.044205,60.797241 154.483734C60.236771 153.923248,59.476624 153.608307,58.683929 153.608307C57.891235 153.608307,57.131088 153.923248,56.570618 154.483734C56.010132 155.044205,55.695190 155.804352,55.695190 156.597046C55.695190 157.389740,56.010132 158.149887,56.570618 158.710358C57.131088 159.270844,57.891235 159.585785,58.683929 159.585785C59.476624 159.585785,60.236771 159.270844,60.797241 158.710358C61.357727 158.149887,61.672668 157.389740,61.672668 156.597046Z" style="fill: rgb(100.000000%,100.000000%,100.000000%);stroke: none;"></path>
  <path d="M78.883575 187.479721C78.883575 186.687027,78.568634 185.926880,78.008148 185.366409C77.447678 184.805923,76.687531 184.490982,75.894836 184.490982C75.102142 184.490982,74.341995 184.805923,73.781525 185.366409C73.221039 185.926880,72.906097 186.687027,72.906097 187.479721C72.906097 188.272415,73.221039 189.032562,73.781525 189.593033C74.341995 190.153519,75.102142 190.468460,75.894836 190.468460C76.687531 190.468460,77.447678 190.153519,78.008148 189.593033C78.568634 189.032562,78.883575 188.272415,78.883575 187.479721Z" style="fill: rgb(100.000000%,100.000000%,100.000000%);stroke: none;"></path>
  <path d="M61.657578 121.600098C61.657578 120.807404,61.342636 120.047256,60.782150 119.486786C60.221680 118.926300,59.461533 118.611359,58.668839 118.611359C57.876144 118.611359,57.115997 118.926300,56.555527 119.486786C55.995041 120.047256,55.680099 120.807404,55.680099 121.600098C55.680099 122.392792,55.995041 123.152939,56.555527 123.713409C57.115997 124.273895,57.876144 124.588837,58.668839 124.588837C59.461533 124.588837,60.221680 124.273895,60.782150 123.713409C61.342636 123.152939,61.657578 122.392792,61.657578 121.600098Z" style="fill: rgb(100.000000%,100.000000%,100.000000%);stroke: none;"></path>
  <path d="M63.649689 142.224106C63.649689 141.431412,63.334747 140.671265,62.774261 140.110794C62.213791 139.550308,61.453644 139.235367,60.660950 139.235367C59.868256 139.235367,59.108109 139.550308,58.547638 140.110794C57.987152 140.671265,57.672211 141.431412,57.672211 142.224106C57.672211 143.016800,57.987152 143.776947,58.547638 144.337418C59.108109 144.897903,59.868256 145.212845,60.660950 145.212845C61.453644 145.212845,62.213791 144.897903,62.774261 144.337418C63.334747 143.776947,63.649689 143.016800,63.649689 142.224106Z" style="fill: rgb(100.000000%,100.000000%,100.000000%);stroke: none;"></path>
  <path d="M58.479202 103.482773C58.479202 102.690079,58.164261 101.929932,57.603775 101.369461C57.043304 100.808975,56.283157 100.494034,55.490463 100.494034C54.697769 100.494034,53.937622 100.808975,53.377151 101.369461C52.816666 101.929932,52.501724 102.690079,52.501724 103.482773C52.501724 104.275467,52.816666 105.035614,53.377151 105.596085C53.937622 106.156570,54.697769 106.471512,55.490463 106.471512C56.283157 106.471512,57.043304 106.156570,57.603775 105.596085C58.164261 105.035614,58.479202 104.275467,58.479202 103.482773Z" style="fill: rgb(100.000000%,100.000000%,100.000000%);stroke: none;"></path>
  <path d="M60.051056 114.690598C60.051056 113.897903,59.736115 113.137756,59.175629 112.577286C58.615158 112.016800,57.855011 111.701859,57.062317 111.701859C56.269623 111.701859,55.509476 112.016800,54.949005 112.577286C54.388519 113.137756,54.073578 113.897903,54.073578 114.690598C54.073578 115.483292,54.388519 116.243439,54.949005 116.803909C55.509476 117.364395,56.269623 117.679337,57.062317 117.679337C57.855011 117.679337,58.615158 117.364395,59.175629 116.803909C59.736115 116.243439,60.051056 115.483292,60.051056 114.690598Z" style="fill: rgb(100.000000%,100.000000%,100.000000%);stroke: none;"></path>
  <path d="M58.035400 90.785400C58.035400 89.992706,57.720459 89.232559,57.159973 88.672089C56.599503 88.111603,55.839355 87.796661,55.046661 87.796661C54.253967 87.796661,53.493820 88.111603,52.933350 88.672089C52.372864 89.232559,52.057922 89.992706,52.057922 90.785400C52.057922 91.578094,52.372864 92.338242,52.933350 92.898712C53.493820 93.459198,54.253967 93.774139,55.046661 93.774139C55.839355 93.774139,56.599503 93.459198,57.159973 92.898712C57.720459 92.338242,58.035400 91.578094,58.035400 90.785400Z" style="fill: rgb(100.000000%,100.000000%,100.000000%);stroke: none;"></path>
  <path d="M58.115234 99.246780C58.115234 98.454086,57.800293 97.693939,57.239807 97.133469C56.679337 96.572983,55.919189 96.258041,55.126495 96.258041C54.333801 96.258041,53.573654 96.572983,53.013184 97.133469C52.452698 97.693939,52.137756 98.454086,52.137756 99.246780C52.137756 100.039474,52.452698 100.799622,53.013184 101.360092C53.573654 101.920578,54.333801 102.235519,55.126495 102.235519C55.919189 102.235519,56.679337 101.920578,57.239807 101.360092C57.800293 100.799622,58.115234 100.039474,58.115234 99.246780Z" style="fill: rgb(100.000000%,100.000000%,100.000000%);stroke: none;"></path>
  <path d="M59.672272 75.643372C59.672272 74.850677,59.357330 74.090530,58.796844 73.530060C58.236374 72.969574,57.476227 72.654633,56.683533 72.654633C55.890839 72.654633,55.130692 72.969574,54.570221 73.530060C54.009735 74.090530,53.694794 74.850677,53.694794 75.643372C53.694794 76.436066,54.009735 77.196213,54.570221 77.756683C55.130692 78.317169,55.890839 78.632111,56.683533 78.632111C57.476227 78.632111,58.236374 78.317169,58.796844 77.756683C59.357330 77.196213,59.672272 76.436066,59.672272 75.643372Z" style="fill: rgb(100.000000%,100.000000%,100.000000%);stroke: none;"></path>
  <path d="M58.314743 86.575333C58.314743 85.782639,57.999802 85.022491,57.439316 84.462021C56.878845 83.901535,56.118698 83.586594,55.326004 83.586594C54.533310 83.586594,53.773163 83.901535,53.212692 84.462021C52.652206 85.022491,52.337265 85.782639,52.337265 86.575333C52.337265 87.368027,52.652206 88.128174,53.212692 88.688644C53.773163 89.249130,54.533310 89.564072,55.326004 89.564072C56.118698 89.564072,56.878845 89.249130,57.439316 88.688644C57.999802 88.128174,58.314743 87.368027,58.314743 86.575333Z" style="fill: rgb(100.000000%,100.000000%,100.000000%);stroke: none;"></path>
  <path d="M62.832291 49.329971C62.832291 48.537277,62.517349 47.777130,61.956863 47.216660C61.396393 46.656174,60.636246 46.341232,59.843552 46.341232C59.050858 46.341232,58.290710 46.656174,57.730240 47.216660C57.169754 47.777130,56.854813 48.537277,56.854813 49.329971C56.854813 50.122665,57.169754 50.882812,57.730240 51.443283C58.290710 52.003769,59.050858 52.318710,59.843552 52.318710C60.636246 52.318710,61.396393 52.003769,61.956863 51.443283C62.517349 50.882812,62.832291 50.122665,62.832291 49.329971Z" style="fill: rgb(100.000000%,100.000000%,100.000000%);stroke: none;"></path>
  <path d="M61.133743 68.978165C61.133743 68.185471,60.818802 67.425323,60.258316 66.864853C59.697845 66.304367,58.937698 65.989426,58.145004 65.989426C57.352310 65.989426,56.592163 66.304367,56.031693 66.864853C55.471207 67.425323,55.156265 68.185471,55.156265 68.978165C55.156265 69.770859,55.471207 70.531006,56.031693 71.091476C56.592163 71.651962,57.352310 71.966904,58.145004 71.966904C58.937698 71.966904,59.697845 71.651962,60.258316 71.091476C60.818802 70.531006,61.133743 69.770859,61.133743 68.978165Z" style="fill: rgb(100.000000%,100.000000%,100.000000%);stroke: none;"></path>
  <path d="M77.208649 6.682343C77.208649 5.889648,76.893707 5.129501,76.333221 4.569031C75.772751 4.008545,75.012604 3.693604,74.219910 3.693604C73.427216 3.693604,72.667068 4.008545,72.106598 4.569031C71.546112 5.129501,71.231171 5.889648,71.231171 6.682343C71.231171 7.475037,71.546112 8.235184,72.106598 8.795654C72.667068 9.356140,73.427216 9.671082,74.219910 9.671082C75.012604 9.671082,75.772751 9.356140,76.333221 8.795654C76.893707 8.235184,77.208649 7.475037,77.208649 6.682343Z" style="fill: rgb(100.000000%,100.000000%,100.000000%);stroke: none;"></path>
  <path d="M60.948853 35.728561C60.948853 34.935867,60.633911 34.175720,60.073425 33.615250C59.512955 33.054764,58.752808 32.739822,57.960114 32.739822C57.167419 32.739822,56.407272 33.054764,55.846802 33.615250C55.286316 34.175720,54.971375 34.935867,54.971375 35.728561C54.971375 36.521255,55.286316 37.281403,55.846802 37.841873C56.407272 38.402359,57.167419 38.717300,57.960114 38.717300C58.752808 38.717300,59.512955 38.402359,60.073425 37.841873C60.633911 37.281403,60.948853 36.521255,60.948853 35.728561Z" style="fill: rgb(100.000000%,100.000000%,100.000000%);stroke: none;"></path>
  <path d="M140.369385 10.626205C140.369385 9.833511,140.054443 9.073364,139.493958 8.512894C138.933487 7.952408,138.173340 7.637466,137.380646 7.637466C136.587952 7.637466,135.827805 7.952408,135.267334 8.512894C134.706848 9.073364,134.391907 9.833511,134.391907 10.626205C134.391907 11.418900,134.706848 12.179047,135.267334 12.739517C135.827805 13.300003,136.587952 13.614944,137.380646 13.614944C138.173340 13.614944,138.933487 13.300003,139.493958 12.739517C140.054443 12.179047,140.369385 11.418900,140.369385 10.626205Z" style="fill: rgb(100.000000%,100.000000%,100.000000%);stroke: none;"></path>
  <path d="M99.802048 2.915024C99.802048 2.122330,99.487106 1.362183,98.926620 0.801712C98.366150 0.241226,97.606003 -0.073715,96.813309 -0.073715C96.020615 -0.073715,95.260468 0.241226,94.699997 0.801712C94.139511 1.362183,93.824570 2.122330,93.824570 2.915024C93.824570 3.707718,94.139511 4.467865,94.699997 5.028336C95.260468 5.588821,96.020615 5.903763,96.813309 5.903763C97.606003 5.903763,98.366150 5.588821,98.926620 5.028336C99.487106 4.467865,99.802048 3.707718,99.802048 2.915024Z" style="fill: rgb(100.000000%,100.000000%,100.000000%);stroke: none;"></path>
  <path d="M168.217529 51.171768C168.217529 50.379074,167.902588 49.618927,167.342102 49.058456C166.781631 48.497971,166.021484 48.183029,165.228790 48.183029C164.436096 48.183029,163.675949 48.497971,163.115479 49.058456C162.554993 49.618927,162.240051 50.379074,162.240051 51.171768C162.240051 51.964462,162.554993 52.724609,163.115479 53.285080C163.675949 53.845566,164.436096 54.160507,165.228790 54.160507C166.021484 54.160507,166.781631 53.845566,167.342102 53.285080C167.902588 52.724609,168.217529 51.964462,168.217529 51.171768Z" style="fill: rgb(100.000000%,100.000000%,100.000000%);stroke: none;"></path>
  <path d="M159.391937 21.145370C159.391937 20.352676,159.076996 19.592529,158.516510 19.032059C157.956039 18.471573,157.195892 18.156631,156.403198 18.156631C155.610504 18.156631,154.850357 18.471573,154.289886 19.032059C153.729401 19.592529,153.414459 20.352676,153.414459 21.145370C153.414459 21.938065,153.729401 22.698212,154.289886 23.258682C154.850357 23.819168,155.610504 24.134109,156.403198 24.134109C157.195892 24.134109,157.956039 23.819168,158.516510 23.258682C159.076996 22.698212,159.391937 21.938065,159.391937 21.145370Z" style="fill: rgb(100.000000%,100.000000%,100.000000%);stroke: none;"></path>
  <path d="M152.107697 72.291748C152.107697 71.499054,151.792755 70.738907,151.232269 70.178436C150.671799 69.617950,149.911652 69.303009,149.118958 69.303009C148.326263 69.303009,147.566116 69.617950,147.005646 70.178436C146.445160 70.738907,146.130219 71.499054,146.130219 72.291748C146.130219 73.084442,146.445160 73.844589,147.005646 74.405060C147.566116 74.965546,148.326263 75.280487,149.118958 75.280487C149.911652 75.280487,150.671799 74.965546,151.232269 74.405060C151.792755 73.844589,152.107697 73.084442,152.107697 72.291748Z" style="fill: rgb(100.000000%,100.000000%,100.000000%);stroke: none;"></path>
  <path d="M165.565292 63.357376C165.565292 62.564682,165.250351 61.804535,164.689865 61.244064C164.129395 60.683578,163.369247 60.368637,162.576553 60.368637C161.783859 60.368637,161.023712 60.683578,160.463242 61.244064C159.902756 61.804535,159.587814 62.564682,159.587814 63.357376C159.587814 64.150070,159.902756 64.910217,160.463242 65.470688C161.023712 66.031174,161.783859 66.346115,162.576553 66.346115C163.369247 66.346115,164.129395 66.031174,164.689865 65.470688C165.250351 64.910217,165.565292 64.150070,165.565292 63.357376Z" style="fill: rgb(100.000000%,100.000000%,100.000000%);stroke: none;"></path>
  <path d="M136.858047 75.876144C136.858047 75.083450,136.543106 74.323303,135.982620 73.762833C135.422150 73.202347,134.662003 72.887405,133.869308 72.887405C133.076614 72.887405,132.316467 73.202347,131.755997 73.762833C131.195511 74.323303,130.880569 75.083450,130.880569 75.876144C130.880569 76.668839,131.195511 77.428986,131.755997 77.989456C132.316467 78.549942,133.076614 78.864883,133.869308 78.864883C134.662003 78.864883,135.422150 78.549942,135.982620 77.989456C136.543106 77.428986,136.858047 76.668839,136.858047 75.876144Z" style="fill: rgb(100.000000%,100.000000%,100.000000%);stroke: none;"></path>
  <path d="M147.175461 73.291794C147.175461 72.499100,146.860519 71.738953,146.300034 71.178482C145.739563 70.617996,144.979416 70.303055,144.186722 70.303055C143.394028 70.303055,142.633881 70.617996,142.073410 71.178482C141.512924 71.738953,141.197983 72.499100,141.197983 73.291794C141.197983 74.084488,141.512924 74.844635,142.073410 75.405106C142.633881 75.965591,143.394028 76.280533,144.186722 76.280533C144.979416 76.280533,145.739563 75.965591,146.300034 75.405106C146.860519 74.844635,147.175461 74.084488,147.175461 73.291794Z" style="fill: rgb(100.000000%,100.000000%,100.000000%);stroke: none;"></path>
  <path d="M120.871490 80.046173C120.871490 79.253479,120.556549 78.493332,119.996063 77.932861C119.435593 77.372375,118.675446 77.057434,117.882751 77.057434C117.090057 77.057434,116.329910 77.372375,115.769440 77.932861C115.208954 78.493332,114.894012 79.253479,114.894012 80.046173C114.894012 80.838867,115.208954 81.599014,115.769440 82.159485C116.329910 82.719971,117.090057 83.034912,117.882751 83.034912C118.675446 83.034912,119.435593 82.719971,119.996063 82.159485C120.556549 81.599014,120.871490 80.838867,120.871490 80.046173Z" style="fill: rgb(100.000000%,100.000000%,100.000000%);stroke: none;"></path>
  <path d="M131.409256 77.579422C131.409256 76.786728,131.094315 76.026581,130.533829 75.466110C129.973358 74.905624,129.213211 74.590683,128.420517 74.590683C127.627823 74.590683,126.867676 74.905624,126.307205 75.466110C125.746719 76.026581,125.431778 76.786728,125.431778 77.579422C125.431778 78.372116,125.746719 79.132263,126.307205 79.692734C126.867676 80.253220,127.627823 80.568161,128.420517 80.568161C129.213211 80.568161,129.973358 80.253220,130.533829 79.692734C131.094315 79.132263,131.409256 78.372116,131.409256 77.579422Z" style="fill: rgb(100.000000%,100.000000%,100.000000%);stroke: none;"></path>
  <path d="M108.224274 83.593094C108.224274 82.800400,107.909332 82.040253,107.348846 81.479782C106.788376 80.919296,106.028229 80.604355,105.235535 80.604355C104.442841 80.604355,103.682693 80.919296,103.122223 81.479782C102.561737 82.040253,102.246796 82.800400,102.246796 83.593094C102.246796 84.385788,102.561737 85.145935,103.122223 85.706406C103.682693 86.266891,104.442841 86.581833,105.235535 86.581833C106.028229 86.581833,106.788376 86.266891,107.348846 85.706406C107.909332 85.145935,108.224274 84.385788,108.224274 83.593094Z" style="fill: rgb(100.000000%,100.000000%,100.000000%);stroke: none;"></path>
  <path d="M115.796936 80.890091C115.796936 80.097397,115.481995 79.337250,114.921509 78.776779C114.361038 78.216293,113.600891 77.901352,112.808197 77.901352C112.015503 77.901352,111.255356 78.216293,110.694885 78.776779C110.134399 79.337250,109.819458 80.097397,109.819458 80.890091C109.819458 81.682785,110.134399 82.442932,110.694885 83.003403C111.255356 83.563889,112.015503 83.878830,112.808197 83.878830C113.600891 83.878830,114.361038 83.563889,114.921509 83.003403C115.481995 82.442932,115.796936 81.682785,115.796936 80.890091Z" style="fill: rgb(100.000000%,100.000000%,100.000000%);stroke: none;"></path>
  <path d="M99.842453 81.919067C99.842453 81.126373,99.527512 80.366226,98.967026 79.805756C98.406555 79.245270,97.646408 78.930328,96.853714 78.930328C96.061020 78.930328,95.300873 79.245270,94.740402 79.805756C94.179916 80.366226,93.864975 81.126373,93.864975 81.919067C93.864975 82.711761,94.179916 83.471909,94.740402 84.032379C95.300873 84.592865,96.061020 84.907806,96.853714 84.907806C97.646408 84.907806,98.406555 84.592865,98.967026 84.032379C99.527512 83.471909,99.842453 82.711761,99.842453 81.919067Z" style="fill: rgb(100.000000%,100.000000%,100.000000%);stroke: none;"></path>
  <path d="M105.274582 84.788086C105.274582 83.995392,104.959641 83.235245,104.399155 82.674774C103.838684 82.114288,103.078537 81.799347,102.285843 81.799347C101.493149 81.799347,100.733002 82.114288,100.172531 82.674774C99.612045 83.235245,99.297104 83.995392,99.297104 84.788086C99.297104 85.580780,99.612045 86.340927,100.172531 86.901398C100.733002 87.461884,101.493149 87.776825,102.285843 87.776825C103.078537 87.776825,103.838684 87.461884,104.399155 86.901398C104.959641 86.340927,105.274582 85.580780,105.274582 84.788086Z" style="fill: rgb(100.000000%,100.000000%,100.000000%);stroke: none;"></path>
  <path d="M97.528381 67.975281C97.528381 67.182587,97.213440 66.422440,96.652954 65.861969C96.092484 65.301483,95.332336 64.986542,94.539642 64.986542C93.746948 64.986542,92.986801 65.301483,92.426331 65.861969C91.865845 66.422440,91.550903 67.182587,91.550903 67.975281C91.550903 68.767975,91.865845 69.528122,92.426331 70.088593C92.986801 70.649078,93.746948 70.964020,94.539642 70.964020C95.332336 70.964020,96.092484 70.649078,96.652954 70.088593C97.213440 69.528122,97.528381 68.767975,97.528381 67.975281Z" style="fill: rgb(100.000000%,100.000000%,100.000000%);stroke: none;"></path>
  <path d="M99.358276 78.339783C99.358276 77.547089,99.043335 76.786942,98.482849 76.226471C97.922379 75.665985,97.162231 75.351044,96.369537 75.351044C95.576843 75.351044,94.816696 75.665985,94.256226 76.226471C93.695740 76.786942,93.380798 77.547089,93.380798 78.339783C93.380798 79.132477,93.695740 79.892624,94.256226 80.453094C94.816696 81.013580,95.576843 81.328522,96.369537 81.328522C97.162231 81.328522,97.922379 81.013580,98.482849 80.453094C99.043335 79.892624,99.358276 79.132477,99.358276 78.339783Z" style="fill: rgb(100.000000%,100.000000%,100.000000%);stroke: none;"></path>
  <path d="M85.880127 42.432541C85.880127 41.639847,85.565186 40.879700,85.004700 40.319229C84.444229 39.758743,83.684082 39.443802,82.891388 39.443802C82.098694 39.443802,81.338547 39.758743,80.778076 40.319229C80.217590 40.879700,79.902649 41.639847,79.902649 42.432541C79.902649 43.225235,80.217590 43.985382,80.778076 44.545853C81.338547 45.106339,82.098694 45.421280,82.891388 45.421280C83.684082 45.421280,84.444229 45.106339,85.004700 44.545853C85.565186 43.985382,85.880127 43.225235,85.880127 42.432541Z" style="fill: rgb(100.000000%,100.000000%,100.000000%);stroke: none;"></path>
  <path d="M94.406998 61.360947C94.406998 60.568253,94.092056 59.808105,93.531570 59.247635C92.971100 58.687149,92.210953 58.372208,91.418259 58.372208C90.625565 58.372208,89.865417 58.687149,89.304947 59.247635C88.744461 59.808105,88.429520 60.568253,88.429520 61.360947C88.429520 62.153641,88.744461 62.913788,89.304947 63.474258C89.865417 64.034744,90.625565 64.349686,91.418259 64.349686C92.210953 64.349686,92.971100 64.034744,93.531570 63.474258C94.092056 62.913788,94.406998 62.153641,94.406998 61.360947Z" style="fill: rgb(100.000000%,100.000000%,100.000000%);stroke: none;"></path>
  <path d="M50.532959 17.896667C50.532959 17.103973,50.218018 16.343826,49.657532 15.783356C49.097061 15.222870,48.336914 14.907928,47.544220 14.907928C46.751526 14.907928,45.991379 15.222870,45.430908 15.783356C44.870422 16.343826,44.555481 17.103973,44.555481 17.896667C44.555481 18.689362,44.870422 19.449509,45.430908 20.009979C45.991379 20.570465,46.751526 20.885406,47.544220 20.885406C48.336914 20.885406,49.097061 20.570465,49.657532 20.009979C50.218018 19.449509,50.532959 18.689362,50.532959 17.896667Z" style="fill: rgb(100.000000%,100.000000%,100.000000%);stroke: none;"></path>
  <path d="M79.871246 29.246094C79.871246 28.453400,79.556305 27.693253,78.995819 27.132782C78.435349 26.572296,77.675201 26.257355,76.882507 26.257355C76.089813 26.257355,75.329666 26.572296,74.769196 27.132782C74.208710 27.693253,73.893768 28.453400,73.893768 29.246094C73.893768 30.038788,74.208710 30.798935,74.769196 31.359406C75.329666 31.919891,76.089813 32.234833,76.882507 32.234833C77.675201 32.234833,78.435349 31.919891,78.995819 31.359406C79.556305 30.798935,79.871246 30.038788,79.871246 29.246094Z" style="fill: rgb(100.000000%,100.000000%,100.000000%);stroke: none;"></path>
  <path d="M11.190445 59.862274C11.190445 59.069580,10.875504 58.309433,10.315018 57.748962C9.754547 57.188477,8.994400 56.873535,8.201706 56.873535C7.409012 56.873535,6.648865 57.188477,6.088394 57.748962C5.527908 58.309433,5.212967 59.069580,5.212967 59.862274C5.212967 60.654968,5.527908 61.415115,6.088394 61.975586C6.648865 62.536072,7.409012 62.851013,8.201706 62.851013C8.994400 62.851013,9.754547 62.536072,10.315018 61.975586C10.875504 61.415115,11.190445 60.654968,11.190445 59.862274Z" style="fill: rgb(100.000000%,100.000000%,100.000000%);stroke: none;"></path>
  <path d="M33.138138 28.905670C33.138138 28.112976,32.823196 27.352829,32.262711 26.792358C31.702240 26.231873,30.942093 25.916931,30.149399 25.916931C29.356705 25.916931,28.596558 26.231873,28.036087 26.792358C27.475601 27.352829,27.160660 28.112976,27.160660 28.905670C27.160660 29.698364,27.475601 30.458511,28.036087 31.018982C28.596558 31.579468,29.356705 31.894409,30.149399 31.894409C30.942093 31.894409,31.702240 31.579468,32.262711 31.018982C32.823196 30.458511,33.138138 29.698364,33.138138 28.905670Z" style="fill: rgb(100.000000%,100.000000%,100.000000%);stroke: none;"></path>
  <path d="M23.276871 103.024231C23.276871 102.231537,22.961929 101.471390,22.401443 100.910919C21.840973 100.350433,21.080826 100.035492,20.288132 100.035492C19.495438 100.035492,18.735291 100.350433,18.174820 100.910919C17.614334 101.471390,17.299393 102.231537,17.299393 103.024231C17.299393 103.816925,17.614334 104.577072,18.174820 105.137543C18.735291 105.698029,19.495438 106.012970,20.288132 106.012970C21.080826 106.012970,21.840973 105.698029,22.401443 105.137543C22.961929 104.577072,23.276871 103.816925,23.276871 103.024231Z" style="fill: rgb(100.000000%,100.000000%,100.000000%);stroke: none;"></path>
  <path d="M6.268921 80.027039C6.268921 79.234344,5.953979 78.474197,5.393494 77.913727C4.833023 77.353241,4.072876 77.038300,3.280182 77.038300C2.487488 77.038300,1.727341 77.353241,1.166870 77.913727C0.606384 78.474197,0.291443 79.234344,0.291443 80.027039C0.291443 80.819733,0.606384 81.579880,1.166870 82.140350C1.727341 82.700836,2.487488 83.015778,3.280182 83.015778C4.072876 83.015778,4.833023 82.700836,5.393494 82.140350C5.953979 81.579880,6.268921 80.819733,6.268921 80.027039Z" style="fill: rgb(100.000000%,100.000000%,100.000000%);stroke: none;"></path>
  <path d="M48.536545 108.551529C48.536545 107.758835,48.221603 106.998688,47.661118 106.438217C47.100647 105.877731,46.340500 105.562790,45.547806 105.562790C44.755112 105.562790,43.994965 105.877731,43.434494 106.438217C42.874008 106.998688,42.559067 107.758835,42.559067 108.551529C42.559067 109.344223,42.874008 110.104370,43.434494 110.664841C43.994965 111.225327,44.755112 111.540268,45.547806 111.540268C46.340500 111.540268,47.100647 111.225327,47.661118 110.664841C48.221603 110.104370,48.536545 109.344223,48.536545 108.551529Z" style="fill: rgb(100.000000%,100.000000%,100.000000%);stroke: none;"></path>
  <path d="M33.115204 107.156387C33.115204 106.363693,32.800262 105.603546,32.239777 105.043076C31.679306 104.482590,30.919159 104.167648,30.126465 104.167648C29.333771 104.167648,28.573624 104.482590,28.013153 105.043076C27.452667 105.603546,27.137726 106.363693,27.137726 107.156387C27.137726 107.949081,27.452667 108.709229,28.013153 109.269699C28.573624 109.830185,29.333771 110.145126,30.126465 110.145126C30.919159 110.145126,31.679306 109.830185,32.239777 109.269699C32.800262 108.709229,33.115204 107.949081,33.115204 107.156387Z" style="fill: rgb(100.000000%,100.000000%,100.000000%);stroke: none;"></path>
  <path d="M63.423431 107.276321C63.423431 106.483627,63.108490 105.723480,62.548004 105.163010C61.987534 104.602524,61.227386 104.287582,60.434692 104.287582C59.641998 104.287582,58.881851 104.602524,58.321381 105.163010C57.760895 105.723480,57.445953 106.483627,57.445953 107.276321C57.445953 108.069016,57.760895 108.829163,58.321381 109.389633C58.881851 109.950119,59.641998 110.265060,60.434692 110.265060C61.227386 110.265060,61.987534 109.950119,62.548004 109.389633C63.108490 108.829163,63.423431 108.069016,63.423431 107.276321Z" style="fill: rgb(100.000000%,100.000000%,100.000000%);stroke: none;"></path>
  <path d="M53.817368 108.185547C53.817368 107.392853,53.502426 106.632706,52.941940 106.072235C52.381470 105.511749,51.621323 105.196808,50.828629 105.196808C50.035934 105.196808,49.275787 105.511749,48.715317 106.072235C48.154831 106.632706,47.839890 107.392853,47.839890 108.185547C47.839890 108.978241,48.154831 109.738388,48.715317 110.298859C49.275787 110.859344,50.035934 111.174286,50.828629 111.174286C51.621323 111.174286,52.381470 110.859344,52.941940 110.298859C53.502426 109.738388,53.817368 108.978241,53.817368 108.185547Z" style="fill: rgb(100.000000%,100.000000%,100.000000%);stroke: none;"></path>
  <path d="M75.406723 102.009415C75.406723 101.216721,75.091782 100.456573,74.531296 99.896103C73.970825 99.335617,73.210678 99.020676,72.417984 99.020676C71.625290 99.020676,70.865143 99.335617,70.304672 99.896103C69.744186 100.456573,69.429245 101.216721,69.429245 102.009415C69.429245 102.802109,69.744186 103.562256,70.304672 104.122726C70.865143 104.683212,71.625290 104.998154,72.417984 104.998154C73.210678 104.998154,73.970825 104.683212,74.531296 104.122726C75.091782 103.562256,75.406723 102.802109,75.406723 102.009415Z" style="fill: rgb(100.000000%,100.000000%,100.000000%);stroke: none;"></path>
  <path d="M67.874466 106.734680C67.874466 105.941986,67.559525 105.181839,66.999039 104.621368C66.438568 104.060883,65.678421 103.745941,64.885727 103.745941C64.093033 103.745941,63.332886 104.060883,62.772415 104.621368C62.211929 105.181839,61.896988 105.941986,61.896988 106.734680C61.896988 107.527374,62.211929 108.287521,62.772415 108.847992C63.332886 109.408478,64.093033 109.723419,64.885727 109.723419C65.678421 109.723419,66.438568 109.408478,66.999039 108.847992C67.559525 108.287521,67.874466 107.527374,67.874466 106.734680Z" style="fill: rgb(100.000000%,100.000000%,100.000000%);stroke: none;"></path>
  <path d="M82.665604 90.300964C82.665604 89.508270,82.350662 88.748123,81.790176 88.187653C81.229706 87.627167,80.469559 87.312225,79.676865 87.312225C78.884171 87.312225,78.124023 87.627167,77.563553 88.187653C77.003067 88.748123,76.688126 89.508270,76.688126 90.300964C76.688126 91.093658,77.003067 91.853806,77.563553 92.414276C78.124023 92.974762,78.884171 93.289703,79.676865 93.289703C80.469559 93.289703,81.229706 92.974762,81.790176 92.414276C82.350662 91.853806,82.665604 91.093658,82.665604 90.300964Z" style="fill: rgb(100.000000%,100.000000%,100.000000%);stroke: none;"></path>
  <path d="M77.855743 98.093628C77.855743 97.300934,77.540802 96.540787,76.980316 95.980316C76.419846 95.419830,75.659698 95.104889,74.867004 95.104889C74.074310 95.104889,73.314163 95.419830,72.753693 95.980316C72.193207 96.540787,71.878265 97.300934,71.878265 98.093628C71.878265 98.886322,72.193207 99.646469,72.753693 100.206940C73.314163 100.767426,74.074310 101.082367,74.867004 101.082367C75.659698 101.082367,76.419846 100.767426,76.980316 100.206940C77.540802 99.646469,77.855743 98.886322,77.855743 98.093628Z" style="fill: rgb(100.000000%,100.000000%,100.000000%);stroke: none;"></path>
  <path d="M91.614609 80.046173C91.614609 79.253479,91.299667 78.493332,90.739182 77.932861C90.178711 77.372375,89.418564 77.057434,88.625870 77.057434C87.833176 77.057434,87.073029 77.372375,86.512558 77.932861C85.952072 78.493332,85.637131 79.253479,85.637131 80.046173C85.637131 80.838867,85.952072 81.599014,86.512558 82.159485C87.073029 82.719971,87.833176 83.034912,88.625870 83.034912C89.418564 83.034912,90.178711 82.719971,90.739182 82.159485C91.299667 81.599014,91.614609 80.838867,91.614609 80.046173Z" style="fill: rgb(100.000000%,100.000000%,100.000000%);stroke: none;"></path>
  <path d="M85.140411 86.309341C85.140411 85.516647,84.825470 84.756500,84.264984 84.196030C83.704514 83.635544,82.944366 83.320602,82.151672 83.320602C81.358978 83.320602,80.598831 83.635544,80.038361 84.196030C79.477875 84.756500,79.162933 85.516647,79.162933 86.309341C79.162933 87.102036,79.477875 87.862183,80.038361 88.422653C80.598831 88.983139,81.358978 89.298080,82.151672 89.298080C82.944366 89.298080,83.704514 88.983139,84.264984 88.422653C84.825470 87.862183,85.140411 87.102036,85.140411 86.309341Z" style="fill: rgb(100.000000%,100.000000%,100.000000%);stroke: none;"></path>
  <path d="M101.734390 72.804092C101.734390 72.011398,101.419449 71.251251,100.858963 70.690781C100.298492 70.130295,99.538345 69.815353,98.745651 69.815353C97.952957 69.815353,97.192810 70.130295,96.632339 70.690781C96.071854 71.251251,95.756912 72.011398,95.756912 72.804092C95.756912 73.596786,96.071854 74.356934,96.632339 74.917404C97.192810 75.477890,97.952957 75.792831,98.745651 75.792831C99.538345 75.792831,100.298492 75.477890,100.858963 74.917404C101.419449 74.356934,101.734390 73.596786,101.734390 72.804092Z" style="fill: rgb(100.000000%,100.000000%,100.000000%);stroke: none;"></path>
  <path d="M95.376404 77.801193C95.376404 77.008499,95.061462 76.248352,94.500977 75.687881C93.940506 75.127396,93.180359 74.812454,92.387665 74.812454C91.594971 74.812454,90.834824 75.127396,90.274353 75.687881C89.713867 76.248352,89.398926 77.008499,89.398926 77.801193C89.398926 78.593887,89.713867 79.354034,90.274353 79.914505C90.834824 80.474991,91.594971 80.789932,92.387665 80.789932C93.180359 80.789932,93.940506 80.474991,94.500977 79.914505C95.061462 79.354034,95.376404 78.593887,95.376404 77.801193Z" style="fill: rgb(100.000000%,100.000000%,100.000000%);stroke: none;"></path>
  <path d="M111.804474 73.847855C111.804474 73.055161,111.489532 72.295013,110.929047 71.734543C110.368576 71.174057,109.608429 70.859116,108.815735 70.859116C108.023041 70.859116,107.262894 71.174057,106.702423 71.734543C106.141937 72.295013,105.826996 73.055161,105.826996 73.847855C105.826996 74.640549,106.141937 75.400696,106.702423 75.961166C107.262894 76.521652,108.023041 76.836594,108.815735 76.836594C109.608429 76.836594,110.368576 76.521652,110.929047 75.961166C111.489532 75.400696,111.804474 74.640549,111.804474 73.847855Z" style="fill: rgb(100.000000%,100.000000%,100.000000%);stroke: none;"></path>
  <path d="M105.126846 70.332108C105.126846 69.539413,104.811905 68.779266,104.251419 68.218796C103.690948 67.658310,102.930801 67.343369,102.138107 67.343369C101.345413 67.343369,100.585266 67.658310,100.024796 68.218796C99.464310 68.779266,99.149368 69.539413,99.149368 70.332108C99.149368 71.124802,99.464310 71.884949,100.024796 72.445419C100.585266 73.005905,101.345413 73.320847,102.138107 73.320847C102.930801 73.320847,103.690948 73.005905,104.251419 72.445419C104.811905 71.884949,105.126846 71.124802,105.126846 70.332108Z" style="fill: rgb(100.000000%,100.000000%,100.000000%);stroke: none;"></path>
  <path d="M110.610718 87.735672C110.610718 86.942978,110.295776 86.182831,109.735291 85.622360C109.174820 85.061874,108.414673 84.746933,107.621979 84.746933C106.829285 84.746933,106.069138 85.061874,105.508667 85.622360C104.948181 86.182831,104.633240 86.942978,104.633240 87.735672C104.633240 88.528366,104.948181 89.288513,105.508667 89.848984C106.069138 90.409470,106.829285 90.724411,107.621979 90.724411C108.414673 90.724411,109.174820 90.409470,109.735291 89.848984C110.295776 89.288513,110.610718 88.528366,110.610718 87.735672Z" style="fill: rgb(100.000000%,100.000000%,100.000000%);stroke: none;"></path>
  <path d="M111.261780 78.514267C111.261780 77.721573,110.946838 76.961426,110.386353 76.400955C109.825882 75.840469,109.065735 75.525528,108.273041 75.525528C107.480347 75.525528,106.720200 75.840469,106.159729 76.400955C105.599243 76.961426,105.284302 77.721573,105.284302 78.514267C105.284302 79.306961,105.599243 80.067108,106.159729 80.627579C106.720200 81.188065,107.480347 81.503006,108.273041 81.503006C109.065735 81.503006,109.825882 81.188065,110.386353 80.627579C110.946838 80.067108,111.261780 79.306961,111.261780 78.514267Z" style="fill: rgb(100.000000%,100.000000%,100.000000%);stroke: none;"></path>
  <path d="M110.588440 103.898438C110.588440 103.105743,110.273499 102.345596,109.713013 101.785126C109.152542 101.224640,108.392395 100.909698,107.599701 100.909698C106.807007 100.909698,106.046860 101.224640,105.486389 101.785126C104.925903 102.345596,104.610962 103.105743,104.610962 103.898438C104.610962 104.691132,104.925903 105.451279,105.486389 106.011749C106.046860 106.572235,106.807007 106.887177,107.599701 106.887177C108.392395 106.887177,109.152542 106.572235,109.713013 106.011749C110.273499 105.451279,110.588440 104.691132,110.588440 103.898438Z" style="fill: rgb(100.000000%,100.000000%,100.000000%);stroke: none;"></path>
  <path d="M111.746368 92.870239C111.746368 92.077545,111.431427 91.317398,110.870941 90.756927C110.310471 90.196442,109.550323 89.881500,108.757629 89.881500C107.964935 89.881500,107.204788 90.196442,106.644318 90.756927C106.083832 91.317398,105.768890 92.077545,105.768890 92.870239C105.768890 93.662933,106.083832 94.423080,106.644318 94.983551C107.204788 95.544037,107.964935 95.858978,108.757629 95.858978C109.550323 95.858978,110.310471 95.544037,110.870941 94.983551C111.431427 94.423080,111.746368 93.662933,111.746368 92.870239Z" style="fill: rgb(100.000000%,100.000000%,100.000000%);stroke: none;"></path>
  <path d="M101.088516 121.681976C101.088516 120.889282,100.773575 120.129135,100.213089 119.568665C99.652618 119.008179,98.892471 118.693237,98.099777 118.693237C97.307083 118.693237,96.546936 119.008179,95.986465 119.568665C95.425980 120.129135,95.111038 120.889282,95.111038 121.681976C95.111038 122.474670,95.425980 123.234818,95.986465 123.795288C96.546936 124.355774,97.307083 124.670715,98.099777 124.670715C98.892471 124.670715,99.652618 124.355774,100.213089 123.795288C100.773575 123.234818,101.088516 122.474670,101.088516 121.681976Z" style="fill: rgb(100.000000%,100.000000%,100.000000%);stroke: none;"></path>
  <path d="M107.821671 109.275391C107.821671 108.482697,107.506729 107.722549,106.946243 107.162079C106.385773 106.601593,105.625626 106.286652,104.832932 106.286652C104.040237 106.286652,103.280090 106.601593,102.719620 107.162079C102.159134 107.722549,101.844193 108.482697,101.844193 109.275391C101.844193 110.068085,102.159134 110.828232,102.719620 111.388702C103.280090 111.949188,104.040237 112.264130,104.832932 112.264130C105.625626 112.264130,106.385773 111.949188,106.946243 111.388702C107.506729 110.828232,107.821671 110.068085,107.821671 109.275391Z" style="fill: rgb(100.000000%,100.000000%,100.000000%);stroke: none;"></path>
  <path d="M87.190140 148.901276C87.190140 148.108582,86.875198 147.348434,86.314713 146.787964C85.754242 146.227478,84.994095 145.912537,84.201401 145.912537C83.408707 145.912537,82.648560 146.227478,82.088089 146.787964C81.527603 147.348434,81.212662 148.108582,81.212662 148.901276C81.212662 149.693970,81.527603 150.454117,82.088089 151.014587C82.648560 151.575073,83.408707 151.890015,84.201401 151.890015C84.994095 151.890015,85.754242 151.575073,86.314713 151.014587C86.875198 150.454117,87.190140 149.693970,87.190140 148.901276Z" style="fill: rgb(100.000000%,100.000000%,100.000000%);stroke: none;"></path>
  <path d="M97.004410 128.772110C97.004410 127.979416,96.689468 127.219269,96.128983 126.658798C95.568512 126.098312,94.808365 125.783371,94.015671 125.783371C93.222977 125.783371,92.462830 126.098312,91.902359 126.658798C91.341873 127.219269,91.026932 127.979416,91.026932 128.772110C91.026932 129.564804,91.341873 130.324951,91.902359 130.885422C92.462830 131.445908,93.222977 131.760849,94.015671 131.760849C94.808365 131.760849,95.568512 131.445908,96.128983 130.885422C96.689468 130.324951,97.004410 129.564804,97.004410 128.772110Z" style="fill: rgb(100.000000%,100.000000%,100.000000%);stroke: none;"></path>
  <path d="M50.687866 175.881012C50.687866 175.088318,50.372925 174.328171,49.812439 173.767700C49.251968 173.207214,48.491821 172.892273,47.699127 172.892273C46.906433 172.892273,46.146286 173.207214,45.585815 173.767700C45.025330 174.328171,44.710388 175.088318,44.710388 175.881012C44.710388 176.673706,45.025330 177.433853,45.585815 177.994324C46.146286 178.554810,46.906433 178.869751,47.699127 178.869751C48.491821 178.869751,49.251968 178.554810,49.812439 177.994324C50.372925 177.433853,50.687866 176.673706,50.687866 175.881012Z" style="fill: rgb(100.000000%,100.000000%,100.000000%);stroke: none;"></path>
  <path d="M81.511887 163.175415C81.511887 162.382721,81.196945 161.622574,80.636459 161.062103C80.075989 160.501617,79.315842 160.186676,78.523148 160.186676C77.730453 160.186676,76.970306 160.501617,76.409836 161.062103C75.849350 161.622574,75.534409 162.382721,75.534409 163.175415C75.534409 163.968109,75.849350 164.728256,76.409836 165.288727C76.970306 165.849213,77.730453 166.164154,78.523148 166.164154C79.315842 166.164154,80.075989 165.849213,80.636459 165.288727C81.196945 164.728256,81.511887 163.968109,81.511887 163.175415Z" style="fill: rgb(100.000000%,100.000000%,100.000000%);stroke: none;"></path>
  <path d="M9.773285 130.790192C9.773285 129.997498,9.458344 129.237350,8.897858 128.676880C8.337387 128.116394,7.577240 127.801453,6.784546 127.801453C5.991852 127.801453,5.231705 128.116394,4.671234 128.676880C4.110748 129.237350,3.795807 129.997498,3.795807 130.790192C3.795807 131.582886,4.110748 132.343033,4.671234 132.903503C5.231705 133.463989,5.991852 133.778931,6.784546 133.778931C7.577240 133.778931,8.337387 133.463989,8.897858 132.903503C9.458344 132.343033,9.773285 131.582886,9.773285 130.790192Z" style="fill: rgb(100.000000%,100.000000%,100.000000%);stroke: none;"></path>
  <path d="M32.060562 163.989227C32.060562 163.196533,31.745621 162.436386,31.185135 161.875916C30.624664 161.315430,29.864517 161.000488,29.071823 161.000488C28.279129 161.000488,27.518982 161.315430,26.958511 161.875916C26.398026 162.436386,26.083084 163.196533,26.083084 163.989227C26.083084 164.781921,26.398026 165.542068,26.958511 166.102539C27.518982 166.663025,28.279129 166.977966,29.071823 166.977966C29.864517 166.977966,30.624664 166.663025,31.185135 166.102539C31.745621 165.542068,32.060562 164.781921,32.060562 163.989227Z" style="fill: rgb(100.000000%,100.000000%,100.000000%);stroke: none;"></path>
  <path d="M23.508835 86.988449C23.508835 86.195755,23.193893 85.435608,22.633408 84.875137C22.072937 84.314651,21.312790 83.999710,20.520096 83.999710C19.727402 83.999710,18.967255 84.314651,18.406784 84.875137C17.846298 85.435608,17.531357 86.195755,17.531357 86.988449C17.531357 87.781143,17.846298 88.541290,18.406784 89.101761C18.967255 89.662247,19.727402 89.977188,20.520096 89.977188C21.312790 89.977188,22.072937 89.662247,22.633408 89.101761C23.193893 88.541290,23.508835 87.781143,23.508835 86.988449Z" style="fill: rgb(100.000000%,100.000000%,100.000000%);stroke: none;"></path>
  <path d="M5.312485 109.727203C5.312485 108.934509,4.997543 108.174362,4.437057 107.613892C3.876587 107.053406,3.116440 106.738464,2.323746 106.738464C1.531052 106.738464,0.770905 107.053406,0.210434 107.613892C-0.350052 108.174362,-0.664993 108.934509,-0.664993 109.727203C-0.664993 110.519897,-0.350052 111.280045,0.210434 111.840515C0.770905 112.401001,1.531052 112.715942,2.323746 112.715942C3.116440 112.715942,3.876587 112.401001,4.437057 111.840515C4.997543 111.280045,5.312485 110.519897,5.312485 109.727203Z" style="fill: rgb(100.000000%,100.000000%,100.000000%);stroke: none;"></path>
  <path d="M48.478470 81.722458C48.478470 80.929764,48.163528 80.169617,47.603043 79.609146C47.042572 79.048660,46.282425 78.733719,45.489731 78.733719C44.697037 78.733719,43.936890 79.048660,43.376419 79.609146C42.815933 80.169617,42.500992 80.929764,42.500992 81.722458C42.500992 82.515152,42.815933 83.275299,43.376419 83.835770C43.936890 84.396255,44.697037 84.711197,45.489731 84.711197C46.282425 84.711197,47.042572 84.396255,47.603043 83.835770C48.163528 83.275299,48.478470 82.515152,48.478470 81.722458Z" style="fill: rgb(100.000000%,100.000000%,100.000000%);stroke: none;"></path>
  <path d="M33.281738 83.141190C33.281738 82.348495,32.966797 81.588348,32.406311 81.027878C31.845840 80.467392,31.085693 80.152451,30.292999 80.152451C29.500305 80.152451,28.740158 80.467392,28.179688 81.027878C27.619202 81.588348,27.304260 82.348495,27.304260 83.141190C27.304260 83.933884,27.619202 84.694031,28.179688 85.254501C28.740158 85.814987,29.500305 86.129929,30.292999 86.129929C31.085693 86.129929,31.845840 85.814987,32.406311 85.254501C32.966797 84.694031,33.281738 83.933884,33.281738 83.141190Z" style="fill: rgb(100.000000%,100.000000%,100.000000%);stroke: none;"></path>
  <path d="M63.049438 82.720856C63.049438 81.928162,62.734497 81.168015,62.174011 80.607544C61.613541 80.047058,60.853394 79.732117,60.060699 79.732117C59.268005 79.732117,58.507858 80.047058,57.947388 80.607544C57.386902 81.168015,57.071960 81.928162,57.071960 82.720856C57.071960 83.513550,57.386902 84.273697,57.947388 84.834167C58.507858 85.394653,59.268005 85.709595,60.060699 85.709595C60.853394 85.709595,61.613541 85.394653,62.174011 84.834167C62.734497 84.273697,63.049438 83.513550,63.049438 82.720856Z" style="fill: rgb(100.000000%,100.000000%,100.000000%);stroke: none;"></path>
  <path d="M53.668106 81.991150C53.668106 81.198456,53.353165 80.438309,52.792679 79.877838C52.232208 79.317352,51.472061 79.002411,50.679367 79.002411C49.886673 79.002411,49.126526 79.317352,48.566055 79.877838C48.005569 80.438309,47.690628 81.198456,47.690628 81.991150C47.690628 82.783844,48.005569 83.543991,48.566055 84.104462C49.126526 84.664948,49.886673 84.979889,50.679367 84.979889C51.472061 84.979889,52.232208 84.664948,52.792679 84.104462C53.353165 83.543991,53.668106 82.783844,53.668106 81.991150Z" style="fill: rgb(100.000000%,100.000000%,100.000000%);stroke: none;"></path>
  <path d="M74.809097 87.388947C74.809097 86.596252,74.494156 85.836105,73.933670 85.275635C73.373199 84.715149,72.613052 84.400208,71.820358 84.400208C71.027664 84.400208,70.267517 84.715149,69.707047 85.275635C69.146561 85.836105,68.831619 86.596252,68.831619 87.388947C68.831619 88.181641,69.146561 88.941788,69.707047 89.502258C70.267517 90.062744,71.027664 90.377686,71.820358 90.377686C72.613052 90.377686,73.373199 90.062744,73.933670 89.502258C74.494156 88.941788,74.809097 88.181641,74.809097 87.388947Z" style="fill: rgb(100.000000%,100.000000%,100.000000%);stroke: none;"></path>
  <path d="M67.348114 83.167450C67.348114 82.374756,67.033173 81.614609,66.472687 81.054138C65.912216 80.493652,65.152069 80.178711,64.359375 80.178711C63.566681 80.178711,62.806534 80.493652,62.246063 81.054138C61.685577 81.614609,61.370636 82.374756,61.370636 83.167450C61.370636 83.960144,61.685577 84.720291,62.246063 85.280762C62.806534 85.841248,63.566681 86.156189,64.359375 86.156189C65.152069 86.156189,65.912216 85.841248,66.472687 85.280762C67.033173 84.720291,67.348114 83.960144,67.348114 83.167450Z" style="fill: rgb(100.000000%,100.000000%,100.000000%);stroke: none;"></path>
  <path d="M83.522186 98.183990C83.522186 97.391296,83.207245 96.631149,82.646759 96.070679C82.086288 95.510193,81.326141 95.195251,80.533447 95.195251C79.740753 95.195251,78.980606 95.510193,78.420135 96.070679C77.859650 96.631149,77.544708 97.391296,77.544708 98.183990C77.544708 98.976685,77.859650 99.736832,78.420135 100.297302C78.980606 100.857788,79.740753 101.172729,80.533447 101.172729C81.326141 101.172729,82.086288 100.857788,82.646759 100.297302C83.207245 99.736832,83.522186 98.976685,83.522186 98.183990Z" style="fill: rgb(100.000000%,100.000000%,100.000000%);stroke: none;"></path>
  <path d="M77.431442 90.958786C77.431442 90.166092,77.116501 89.405945,76.556015 88.845474C75.995544 88.284988,75.235397 87.970047,74.442703 87.970047C73.650009 87.970047,72.889862 88.284988,72.329391 88.845474C71.768906 89.405945,71.453964 90.166092,71.453964 90.958786C71.453964 91.751480,71.768906 92.511627,72.329391 93.072098C72.889862 93.632584,73.650009 93.947525,74.442703 93.947525C75.235397 93.947525,75.995544 93.632584,76.556015 93.072098C77.116501 92.511627,77.431442 91.751480,77.431442 90.958786Z" style="fill: rgb(100.000000%,100.000000%,100.000000%);stroke: none;"></path>
  <path d="M95.241928 108.908432C95.241928 108.115738,94.926987 107.355591,94.366501 106.795120C93.806030 106.234634,93.045883 105.919693,92.253189 105.919693C91.460495 105.919693,90.700348 106.234634,90.139877 106.795120C89.579391 107.355591,89.264450 108.115738,89.264450 108.908432C89.264450 109.701126,89.579391 110.461273,90.139877 111.021744C90.700348 111.582230,91.460495 111.897171,92.253189 111.897171C93.045883 111.897171,93.806030 111.582230,94.366501 111.021744C94.926987 110.461273,95.241928 109.701126,95.241928 108.908432Z" style="fill: rgb(100.000000%,100.000000%,100.000000%);stroke: none;"></path>
  <path d="M87.155441 101.809280C87.155441 101.016586,86.840500 100.256439,86.280014 99.695969C85.719543 99.135483,84.959396 98.820541,84.166702 98.820541C83.374008 98.820541,82.613861 99.135483,82.053391 99.695969C81.492905 100.256439,81.177963 101.016586,81.177963 101.809280C81.177963 102.601974,81.492905 103.362122,82.053391 103.922592C82.613861 104.483078,83.374008 104.798019,84.166702 104.798019C84.959396 104.798019,85.719543 104.483078,86.280014 103.922592C86.840500 103.362122,87.155441 102.601974,87.155441 101.809280Z" style="fill: rgb(100.000000%,100.000000%,100.000000%);stroke: none;"></path>
  <path d="M112.353531 117.527100C112.353531 116.734406,112.038589 115.974258,111.478104 115.413788C110.917633 114.853302,110.157486 114.538361,109.364792 114.538361C108.572098 114.538361,107.811951 114.853302,107.251480 115.413788C106.690994 115.974258,106.376053 116.734406,106.376053 117.527100C106.376053 118.319794,106.690994 119.079941,107.251480 119.640411C107.811951 120.200897,108.572098 120.515839,109.364792 120.515839C110.157486 120.515839,110.917633 120.200897,111.478104 119.640411C112.038589 119.079941,112.353531 118.319794,112.353531 117.527100Z" style="fill: rgb(100.000000%,100.000000%,100.000000%);stroke: none;"></path>
  <path d="M99.772583 112.348663C99.772583 111.555969,99.457642 110.795822,98.897156 110.235352C98.336685 109.674866,97.576538 109.359924,96.783844 109.359924C95.991150 109.359924,95.231003 109.674866,94.670532 110.235352C94.110046 110.795822,93.795105 111.555969,93.795105 112.348663C93.795105 113.141357,94.110046 113.901505,94.670532 114.461975C95.231003 115.022461,95.991150 115.337402,96.783844 115.337402C97.576538 115.337402,98.336685 115.022461,98.897156 114.461975C99.457642 113.901505,99.772583 113.141357,99.772583 112.348663Z" style="fill: rgb(100.000000%,100.000000%,100.000000%);stroke: none;"></path>
  <path d="M123.226089 124.375000C132.539505 135.841187,147.914413 140.450806,162.000000 136.000000C182.780396 129.433731,193.284103 107.356720,192.763489 84.928024C192.278717 64.043152,181.637161 43.797653,162.000000 40.186798C149.745926 37.933533,137.339783 44.349777,135.452225 56.009186C134.424026 62.360382,137.356659 68.421021,139.400955 74.490555C141.870087 81.821426,143.046585 89.538406,145.739273 96.792130C150.704025 110.166534,160.664932 121.706070,162.000000 136.000000C164.185806 159.402374,145.204849 178.380768,121.750458 185.375565C100.162277 191.813812,75.894836 187.479721,65.371277 168.596588C58.683929 156.597046,60.660950 142.224106,59.348770 128.639328C58.668839 121.600098,57.062317 114.690598,56.080292 107.688477C55.490463 103.482773,55.126495 99.246780,55.086426 94.999878C55.046661 90.785400,55.326004 86.575333,55.845367 82.392975C56.683533 75.643372,58.145004 68.978165,58.730896 62.200867C59.843552 49.329971,57.960114 35.728561,64.311279 24.382950C74.219910 6.682343,96.813309 2.915024,117.505249 6.848221C137.380646 10.626205,156.403198 21.145370,162.000000 40.186798C165.228790 51.171768,162.576553 63.357376,153.238617 69.556747C149.118958 72.291748,144.186722 73.291794,139.400955 74.490555C133.869308 75.876144,128.420517 77.579422,122.867844 78.879227C117.882751 80.046173,112.808197 80.890091,107.983719 82.612152C105.235535 83.593094,102.285843 84.788086,99.717270 83.431473C96.853714 81.919067,96.369537 78.339783,95.800827 75.118591C94.539642 67.975281,91.418259 61.360947,88.442551 54.755310C82.891388 42.432541,76.882507 29.246094,64.311279 24.382950C47.544220 17.896667,30.149399 28.905670,19.244476 44.286758C8.201706 59.862274,3.280182 80.027039,14.236145 94.841080C20.288132 103.024231,30.126465 107.156387,40.291779 108.076019C45.547806 108.551529,50.828629 108.185547,56.080292 107.688477C60.434692 107.276321,64.885727 106.734680,68.598312 104.405640C72.417984 102.009415,74.867004 98.093628,77.229996 94.265244C79.676865 90.300964,82.151672 86.309341,85.503418 83.066849C88.625870 80.046173,92.387665 77.801193,95.800827 75.118591C98.745651 72.804092,102.138107 70.332108,105.322952 72.008911C108.815735 73.847855,108.273041 78.514267,107.983719 82.612152C107.621979 87.735672,108.757629 92.870239,108.221024 97.980850C107.599701 103.898438,104.832932 109.275391,101.999863 114.495621C98.099777 121.681976,94.015671 128.772110,90.432053 136.122147C84.201401 148.901276,78.523148 163.175415,65.371277 168.596588C47.699127 175.881012,29.071823 163.989227,17.814072 147.219727C6.784546 130.790192,2.323746 109.727203,14.236145 94.841080C20.520096 86.988449,30.292999 83.141190,40.328629 82.204285C45.489731 81.722458,50.679367 81.991150,55.845367 82.392975C60.060699 82.720856,64.359375 83.167450,68.046402 85.253601C71.820358 87.388947,74.442703 90.958786,77.229996 94.265244C80.533447 98.183990,84.166702 101.809280,88.018158 105.190475C92.253189 108.908432,96.783844 112.348663,101.999863 114.495621C109.364792 117.527100,118.149155 118.124542,123.226089 124.375000" style="stroke:rgb(0.000000%,0.000000%,0.000000%); stroke-width: 0.498138;stroke-linecap: round;stroke-linejoin: round;stroke-miterlimit: 10.000000;fill: none;"></path>
  <path d="M123.226089 124.375000C132.539505 135.841187,147.914413 140.450806,162.000000 136.000000" style="stroke:rgb(0.000000%,0.000000%,0.000000%); stroke-width: 1.494400;stroke-linecap: round;stroke-linejoin: round;stroke-miterlimit: 10.000000;fill: none;"></path>
  <path d="M77.229996 94.265244C80.533447 98.183990,84.166702 101.809280,88.018158 105.190475C92.253189 108.908432,96.783844 112.348663,101.999863 114.495621C109.364792 117.527100,118.149155 118.124542,123.226089 124.375000" style="stroke:rgb(0.000000%,0.000000%,0.000000%); stroke-width: 1.494400;stroke-linecap: round;stroke-linejoin: round;stroke-miterlimit: 10.000000;fill: none;"></path>
  <path d="M164.988739 136.000000C164.988739 135.207306,164.673798 134.447159,164.113312 133.886688C163.552841 133.326202,162.792694 133.011261,162.000000 133.011261C161.207306 133.011261,160.447159 133.326202,159.886688 133.886688C159.326202 134.447159,159.011261 135.207306,159.011261 136.000000C159.011261 136.792694,159.326202 137.552841,159.886688 138.113312C160.447159 138.673798,161.207306 138.988739,162.000000 138.988739C162.792694 138.988739,163.552841 138.673798,164.113312 138.113312C164.673798 137.552841,164.988739 136.792694,164.988739 136.000000Z" style="fill: rgb(100.000000%,100.000000%,100.000000%);stroke: none;"></path>
  <path d="M155.230774 116.051254C158.508484 122.394684,161.332474 128.853043,162.000000 136.000000C163.092911 147.701187,158.894119 158.296387,151.490295 166.840637" style="stroke:rgb(0.000000%,0.000000%,0.000000%); stroke-width: 0.498138;stroke-linecap: round;stroke-linejoin: round;stroke-miterlimit: 10.000000;fill: none;"></path>
  <path d="M142.389694 74.490555C142.389694 73.697861,142.074753 72.937714,141.514267 72.377243C140.953796 71.816757,140.193649 71.501816,139.400955 71.501816C138.608261 71.501816,137.848114 71.816757,137.287643 72.377243C136.727158 72.937714,136.412216 73.697861,136.412216 74.490555C136.412216 75.283249,136.727158 76.043396,137.287643 76.603867C137.848114 77.164352,138.608261 77.479294,139.400955 77.479294C140.193649 77.479294,140.953796 77.164352,141.514267 76.603867C142.074753 76.043396,142.389694 75.283249,142.389694 74.490555Z" style="fill: rgb(100.000000%,100.000000%,100.000000%);stroke: none;"></path>
  <path d="M146.569565 72.599747C144.223328 73.341476,141.793839 73.891174,139.400955 74.490555C136.635132 75.183350,133.890015 75.955566,131.142273 76.717072" style="stroke:rgb(0.000000%,0.000000%,0.000000%); stroke-width: 0.498138;stroke-linecap: round;stroke-linejoin: round;stroke-miterlimit: 10.000000;fill: none;"></path>
  <path d="M68.360016 168.596588C68.360016 167.803894,68.045074 167.043747,67.484589 166.483276C66.924118 165.922791,66.163971 165.607849,65.371277 165.607849C64.578583 165.607849,63.818436 165.922791,63.257965 166.483276C62.697479 167.043747,62.382538 167.803894,62.382538 168.596588C62.382538 169.389282,62.697479 170.149429,63.257965 170.709900C63.818436 171.270386,64.578583 171.585327,65.371277 171.585327C66.163971 171.585327,66.924118 171.270386,67.484589 170.709900C68.045074 170.149429,68.360016 169.389282,68.360016 168.596588Z" style="fill: rgb(100.000000%,100.000000%,100.000000%);stroke: none;"></path>
  <path d="M80.497116 155.118607C76.654739 160.962173,71.947205 165.886002,65.371277 168.596588C56.535202 172.238800,47.460327 171.086960,39.187256 166.928375" style="stroke:rgb(0.000000%,0.000000%,0.000000%); stroke-width: 0.498138;stroke-linecap: round;stroke-linejoin: round;stroke-miterlimit: 10.000000;fill: none;"></path>
  <path d="M58.834106 82.392975C58.834106 81.600281,58.519165 80.840134,57.958679 80.279663C57.398209 79.719177,56.638062 79.404236,55.845367 79.404236C55.052673 79.404236,54.292526 79.719177,53.732056 80.279663C53.171570 80.840134,52.856628 81.600281,52.856628 82.392975C52.856628 83.185669,53.171570 83.945816,53.732056 84.506287C54.292526 85.066772,55.052673 85.381714,55.845367 85.381714C56.638062 85.381714,57.398209 85.066772,57.958679 84.506287C58.519165 83.945816,58.834106 83.185669,58.834106 82.392975Z" style="fill: rgb(100.000000%,100.000000%,100.000000%);stroke: none;"></path>
  <path d="M48.085175 81.967270C50.673462 82.024445,53.262375 82.192062,55.845367 82.392975C57.953033 82.556915,60.081543 82.750534,62.144012 83.163940" style="stroke:rgb(0.000000%,0.000000%,0.000000%); stroke-width: 0.498138;stroke-linecap: round;stroke-linejoin: round;stroke-miterlimit: 10.000000;fill: none;"></path>
  <path d="M164.988739 40.186798C164.988739 39.394104,164.673798 38.633957,164.113312 38.073486C163.552841 37.513000,162.792694 37.198059,162.000000 37.198059C161.207306 37.198059,160.447159 37.513000,159.886688 38.073486C159.326202 38.633957,159.011261 39.394104,159.011261 40.186798C159.011261 40.979492,159.326202 41.739639,159.886688 42.300110C160.447159 42.860596,161.207306 43.175537,162.000000 43.175537C162.792694 43.175537,163.552841 42.860596,164.113312 42.300110C164.673798 41.739639,164.988739 40.979492,164.988739 40.186798Z" style="fill: rgb(100.000000%,100.000000%,100.000000%);stroke: none;"></path>
  <path d="M184.563873 56.079636C179.388245 47.956299,171.818573 41.992218,162.000000 40.186798C155.872955 39.060165,149.707901 40.100922,144.838654 42.880753" style="stroke:rgb(0.000000%,0.000000%,0.000000%); stroke-width: 0.498138;stroke-linecap: round;stroke-linejoin: round;stroke-miterlimit: 10.000000;fill: none;"></path>
  <path d="M110.972458 82.612152C110.972458 81.819458,110.657516 81.059311,110.097031 80.498840C109.536560 79.938354,108.776413 79.623413,107.983719 79.623413C107.191025 79.623413,106.430878 79.938354,105.870407 80.498840C105.309921 81.059311,104.994980 81.819458,104.994980 82.612152C104.994980 83.404846,105.309921 84.164993,105.870407 84.725464C106.430878 85.285950,107.191025 85.600891,107.983719 85.600891C108.776413 85.600891,109.536560 85.285950,110.097031 84.725464C110.657516 84.164993,110.972458 83.404846,110.972458 82.612152Z" style="fill: rgb(100.000000%,100.000000%,100.000000%);stroke: none;"></path>
  <path d="M115.365540 80.537537C112.870712 81.109634,110.395950 81.751129,107.983719 82.612152C106.609619 83.102631,105.185150 83.646622,103.783127 83.898407" style="stroke:rgb(0.000000%,0.000000%,0.000000%); stroke-width: 0.498138;stroke-linecap: round;stroke-linejoin: round;stroke-miterlimit: 10.000000;fill: none;"></path>
  <path d="M67.300018 24.382950C67.300018 23.590256,66.985077 22.830109,66.424591 22.269638C65.864120 21.709152,65.103973 21.394211,64.311279 21.394211C63.518585 21.394211,62.758438 21.709152,62.197968 22.269638C61.637482 22.830109,61.322540 23.590256,61.322540 24.382950C61.322540 25.175644,61.637482 25.935791,62.197968 26.496262C62.758438 27.056747,63.518585 27.371689,64.311279 27.371689C65.103973 27.371689,65.864120 27.056747,66.424591 26.496262C66.985077 25.935791,67.300018 25.175644,67.300018 24.382950Z" style="fill: rgb(100.000000%,100.000000%,100.000000%);stroke: none;"></path>
  <path d="M59.556656 42.719925C60.018768 36.292511,61.135696 30.055756,64.311279 24.382950C69.265594 15.532639,77.391113 10.165649,86.864532 7.502899" style="stroke:rgb(0.000000%,0.000000%,0.000000%); stroke-width: 0.498138;stroke-linecap: round;stroke-linejoin: round;stroke-miterlimit: 10.000000;fill: none;"></path>
  <path d="M59.069031 107.688477C59.069031 106.895782,58.754089 106.135635,58.193604 105.575165C57.633133 105.014679,56.872986 104.699738,56.080292 104.699738C55.287598 104.699738,54.527451 105.014679,53.966980 105.575165C53.406494 106.135635,53.091553 106.895782,53.091553 107.688477C53.091553 108.481171,53.406494 109.241318,53.966980 109.801788C54.527451 110.362274,55.287598 110.677216,56.080292 110.677216C56.872986 110.677216,57.633133 110.362274,58.193604 109.801788C58.754089 109.241318,59.069031 108.481171,59.069031 107.688477Z" style="fill: rgb(100.000000%,100.000000%,100.000000%);stroke: none;"></path>
  <path d="M57.827805 118.149979C57.218430 114.667435,56.571304 111.189529,56.080292 107.688477C55.785370 105.585617,55.546921 103.475189,55.377182 101.359619" style="stroke:rgb(0.000000%,0.000000%,0.000000%); stroke-width: 0.498138;stroke-linecap: round;stroke-linejoin: round;stroke-miterlimit: 10.000000;fill: none;"></path>
  <path d="M98.789566 75.118591C98.789566 74.325897,98.474625 73.565750,97.914139 73.005280C97.353668 72.444794,96.593521 72.129852,95.800827 72.129852C95.008133 72.129852,94.247986 72.444794,93.687515 73.005280C93.127029 73.565750,92.812088 74.325897,92.812088 75.118591C92.812088 75.911285,93.127029 76.671432,93.687515 77.231903C94.247986 77.792389,95.008133 78.107330,95.800827 78.107330C96.593521 78.107330,97.353668 77.792389,97.914139 77.231903C98.474625 76.671432,98.789566 75.911285,98.789566 75.118591Z" style="fill: rgb(100.000000%,100.000000%,100.000000%);stroke: none;"></path>
  <path d="M90.543121 78.965927C92.300522 77.691772,94.094254 76.459885,95.800827 75.118591C97.273239 73.961334,98.857559 72.764709,100.471893 72.067001" style="stroke:rgb(0.000000%,0.000000%,0.000000%); stroke-width: 0.498138;stroke-linecap: round;stroke-linejoin: round;stroke-miterlimit: 10.000000;fill: none;"></path>
  <path d="M104.988602 114.495621C104.988602 113.702927,104.673660 112.942780,104.113174 112.382309C103.552704 111.821823,102.792557 111.506882,101.999863 111.506882C101.207169 111.506882,100.447021 111.821823,99.886551 112.382309C99.326065 112.942780,99.011124 113.702927,99.011124 114.495621C99.011124 115.288315,99.326065 116.048462,99.886551 116.608932C100.447021 117.169418,101.207169 117.484360,101.999863 117.484360C102.792557 117.484360,103.552704 117.169418,104.113174 116.608932C104.673660 116.048462,104.988602 115.288315,104.988602 114.495621Z" style="fill: rgb(100.000000%,100.000000%,100.000000%);stroke: none;"></path>
  <path d="M94.641159 110.432190C96.955200 112.025360,99.391861 113.422150,101.999863 114.495621C105.682327 116.011368,109.719650 116.918594,113.470978 118.228195" style="stroke:rgb(0.000000%,0.000000%,0.000000%); stroke-width: 1.494400;stroke-linecap: round;stroke-linejoin: round;stroke-miterlimit: 10.000000;fill: none;"></path>
  <path d="M17.224884 94.841080C17.224884 94.048386,16.909943 93.288239,16.349457 92.727768C15.788986 92.167282,15.028839 91.852341,14.236145 91.852341C13.443451 91.852341,12.683304 92.167282,12.122833 92.727768C11.562347 93.288239,11.247406 94.048386,11.247406 94.841080C11.247406 95.633774,11.562347 96.393921,12.122833 96.954391C12.683304 97.514877,13.443451 97.829819,14.236145 97.829819C15.028839 97.829819,15.788986 97.514877,16.349457 96.954391C16.909943 96.393921,17.224884 95.633774,17.224884 94.841080Z" style="fill: rgb(100.000000%,100.000000%,100.000000%);stroke: none;"></path>
  <path d="M8.490784 69.849487C7.249557 78.689362,8.758163 87.434067,14.236145 94.841080C17.262146 98.932663,21.234726 102.011490,25.721481 104.182388" style="stroke:rgb(0.000000%,0.000000%,0.000000%); stroke-width: 0.498138;stroke-linecap: round;stroke-linejoin: round;stroke-miterlimit: 10.000000;fill: none;"></path>
  <path d="M80.218735 94.265244C80.218735 93.472549,79.903793 92.712402,79.343307 92.151932C78.782837 91.591446,78.022690 91.276505,77.229996 91.276505C76.437302 91.276505,75.677155 91.591446,75.116684 92.151932C74.556198 92.712402,74.241257 93.472549,74.241257 94.265244C74.241257 95.057938,74.556198 95.818085,75.116684 96.378555C75.677155 96.939041,76.437302 97.253983,77.229996 97.253983C78.022690 97.253983,78.782837 96.939041,79.343307 96.378555C79.903793 95.818085,80.218735 95.057938,80.218735 94.265244Z" style="fill: rgb(100.000000%,100.000000%,100.000000%);stroke: none;"></path>
  <path d="M73.460419 99.872482C74.845505 98.115463,76.048508 96.179428,77.229996 94.265244C78.453430 92.283096,79.683853 90.294113,81.027390 88.395355" style="stroke:rgb(0.000000%,0.000000%,0.000000%); stroke-width: 0.498138;stroke-linecap: round;stroke-linejoin: round;stroke-miterlimit: 10.000000;fill: none;"></path>
  <path d="M88.018158 105.190475C91.406189 108.164856,94.983429 110.961487,98.949417 113.060410" style="stroke:rgb(0.000000%,0.000000%,0.000000%); stroke-width: 0.498138;stroke-linecap: round;stroke-linejoin: round;stroke-miterlimit: 10.000000;fill: none;"></path>
  <path d="M94.009018 112.290726C95.642609 112.637772,97.289642 112.903854,98.949417 113.060410C97.886505 111.776047,96.910034 110.423264,96.000351 109.022720Z" style="stroke:rgb(0.000000%,0.000000%,0.000000%); stroke-width: 0.498138;fill: rgb(0.000000%,0.000000%,0.000000%);"></path>
  <path d="M88.018158 105.190475C91.406189 108.164856,94.983429 110.961487,98.949417 113.060410" style="stroke:rgb(0.000000%,0.000000%,0.000000%); stroke-width: 0.498138;stroke-linecap: round;stroke-linejoin: round;stroke-miterlimit: 10.000000;fill: none;"></path>
  <path d="M95.975418 112.666428C96.962051 112.833084,97.953445 112.966476,98.949417 113.060410C98.311600 112.289719,97.704910 111.494370,97.125107 110.678848Z" style="stroke:rgb(0.000000%,0.000000%,0.000000%); stroke-width: 0.498138;fill: rgb(0.000000%,0.000000%,0.000000%);"></path>
  <path d="M135.452225 56.009186C134.629669 61.090164,136.342056 65.985184,138.106583 70.847565" style="stroke:rgb(0.000000%,0.000000%,0.000000%); stroke-width: 0.498138;stroke-linecap: round;stroke-linejoin: round;stroke-miterlimit: 10.000000;fill: none;"></path>
  <path d="M136.099686 68.617615C136.756500 69.368103,137.430878 70.108765,138.106583 70.847565C138.151215 69.847351,138.198120 68.846771,138.264359 67.851654Z" style="stroke:rgb(0.000000%,0.000000%,0.000000%); stroke-width: 0.498138;fill: rgb(0.000000%,0.000000%,0.000000%);"></path>
  <path d="M145.739273 96.792130C149.711090 107.491699,156.880463 117.016937,160.272873 127.717575" style="stroke:rgb(0.000000%,0.000000%,0.000000%); stroke-width: 0.498138;stroke-linecap: round;stroke-linejoin: round;stroke-miterlimit: 10.000000;fill: none;"></path>
  <path d="M158.273895 125.480881C158.961716 126.208649,159.629333 126.953079,160.272873 127.717575C160.358429 126.721939,160.412735 125.723480,160.441010 124.722519Z" style="stroke:rgb(0.000000%,0.000000%,0.000000%); stroke-width: 0.498138;fill: rgb(0.000000%,0.000000%,0.000000%);"></path>
  <path d="M55.086426 94.999878C55.054611 91.628281,55.227036 88.259506,55.563187 84.905487" style="stroke:rgb(0.000000%,0.000000%,0.000000%); stroke-width: 0.498138;stroke-linecap: round;stroke-linejoin: round;stroke-miterlimit: 10.000000;fill: none;"></path>
  <path d="M56.471573 87.764572C56.154388 86.816315,55.851898 85.863052,55.563187 84.905487C55.090210 85.786728,54.630035 86.674683,54.183792 87.569473Z" style="stroke:rgb(0.000000%,0.000000%,0.000000%); stroke-width: 0.498138;fill: rgb(0.000000%,0.000000%,0.000000%);"></path>
  <path d="M58.730896 62.200867C59.621017 51.904114,58.593628 41.139832,61.398911 31.437012" style="stroke:rgb(0.000000%,0.000000%,0.000000%); stroke-width: 0.498138;stroke-linecap: round;stroke-linejoin: round;stroke-miterlimit: 10.000000;fill: none;"></path>
  <path d="M61.842224 34.404205C61.659592 33.419403,61.509903 32.430573,61.398911 31.437012C60.774826 32.218048,60.181442 33.023071,59.614227 33.848572Z" style="stroke:rgb(0.000000%,0.000000%,0.000000%); stroke-width: 0.498138;fill: rgb(0.000000%,0.000000%,0.000000%);"></path>
  <path d="M122.867844 78.879227C118.879761 79.812790,114.834412 80.539612,110.905655 81.674698" style="stroke:rgb(0.000000%,0.000000%,0.000000%); stroke-width: 0.498138;stroke-linecap: round;stroke-linejoin: round;stroke-miterlimit: 10.000000;fill: none;"></path>
  <path d="M113.290863 79.855057C112.483871 80.446609,111.686874 81.050735,110.905655 81.674698C111.899277 81.785904,112.889999 81.922318,113.878937 82.074661Z" style="stroke:rgb(0.000000%,0.000000%,0.000000%); stroke-width: 0.498138;fill: rgb(0.000000%,0.000000%,0.000000%);"></path>
  <path d="M40.291779 108.076019C44.496613 108.456421,48.717316 108.298279,52.926270 107.965302" style="stroke:rgb(0.000000%,0.000000%,0.000000%); stroke-width: 0.498138;stroke-linecap: round;stroke-linejoin: round;stroke-miterlimit: 10.000000;fill: none;"></path>
  <path d="M50.238373 109.297760C51.139709 108.865494,52.035187 108.419800,52.926270 107.965302C51.974792 107.656555,51.026459 107.338516,50.083466 107.006805Z" style="stroke:rgb(0.000000%,0.000000%,0.000000%); stroke-width: 0.498138;fill: rgb(0.000000%,0.000000%,0.000000%);"></path>
  <path d="M68.598312 104.405640C71.654068 102.488647,73.832596 99.599136,75.791626 96.559875" style="stroke:rgb(0.000000%,0.000000%,0.000000%); stroke-width: 0.498138;stroke-linecap: round;stroke-linejoin: round;stroke-miterlimit: 10.000000;fill: none;"></path>
  <path d="M75.173996 99.495544C75.412979 98.528397,75.612289 97.546219,75.791626 96.559875C74.967361 97.130508,74.131912 97.684067,73.279037 98.198944Z" style="stroke:rgb(0.000000%,0.000000%,0.000000%); stroke-width: 0.498138;fill: rgb(0.000000%,0.000000%,0.000000%);"></path>
  <path d="M90.432053 136.122147C85.447510 146.345490,80.816513 157.525650,72.429672 164.364395" style="stroke:rgb(0.000000%,0.000000%,0.000000%); stroke-width: 0.498138;stroke-linecap: round;stroke-linejoin: round;stroke-miterlimit: 10.000000;fill: none;"></path>
  <path d="M73.725693 161.658905C73.334473 162.580978,72.903992 163.483688,72.429672 164.364395C73.387817 164.077042,74.330536 163.743149,75.259201 163.367798Z" style="stroke:rgb(0.000000%,0.000000%,0.000000%); stroke-width: 0.498138;fill: rgb(0.000000%,0.000000%,0.000000%);"></path>
  <path d="M68.046402 85.253601C71.065582 86.961884,73.347717 89.588242,75.566910 92.263367" style="stroke:rgb(0.000000%,0.000000%,0.000000%); stroke-width: 0.498138;stroke-linecap: round;stroke-linejoin: round;stroke-miterlimit: 10.000000;fill: none;"></path>
  <path d="M72.892700 90.903595C73.792023 91.334198,74.681091 91.795898,75.566910 92.263367C75.271118 91.306458,74.968933 90.351288,74.637512 89.410889Z" style="stroke:rgb(0.000000%,0.000000%,0.000000%); stroke-width: 0.498138;fill: rgb(0.000000%,0.000000%,0.000000%);"></path>
  <path d="M120.235443 127.085205L126.216736 127.085205L126.216736 119.664810L120.235443 119.664810Z" style="fill: rgb(100.000000%,100.000000%,100.000000%);stroke: none;"></path>
  <path d="M120.235443 129.085205L126.216736 129.085205L126.216736 121.664810L120.235443 121.664810Z" style="fill: rgb(100.000000%,100.000000%,100.000000%);stroke: none;"></path>
  <g transform="translate(120.735443 127.585205)" style="fill: rgb(0.000000%,0.000000%,0.000000%);">
    <use xlink:href="#GLYPHcmr10_49"></use>
  </g>
  <path d="M189.772842 87.638229L195.754135 87.638229L195.754135 80.217834L189.772842 80.217834Z" style="fill: rgb(100.000000%,100.000000%,100.000000%);stroke: none;"></path>
  <path d="M189.772842 89.638229L195.754135 89.638229L195.754135 82.217834L189.772842 82.217834Z" style="fill: rgb(100.000000%,100.000000%,100.000000%);stroke: none;"></path>
  <g transform="translate(190.272842 88.138229)" style="fill: rgb(0.000000%,0.000000%,0.000000%);">
    <use xlink:href="#GLYPHcmr10_50"></use>
  </g>
  <path d="M118.759811 188.085770L124.741104 188.085770L124.741104 180.665375L118.759811 180.665375Z" style="fill: rgb(100.000000%,100.000000%,100.000000%);stroke: none;"></path>
  <path d="M118.759811 190.085770L124.741104 190.085770L124.741104 182.665375L118.759811 182.665375Z" style="fill: rgb(100.000000%,100.000000%,100.000000%);stroke: none;"></path>
  <g transform="translate(119.259811 188.585770)" style="fill: rgb(0.000000%,0.000000%,0.000000%);">
    <use xlink:href="#GLYPHcmr10_51"></use>
  </g>
  <path d="M56.358124 131.349533L62.339417 131.349533L62.339417 123.929138L56.358124 123.929138Z" style="fill: rgb(100.000000%,100.000000%,100.000000%);stroke: none;"></path>
  <path d="M56.358124 133.349533L62.339417 133.349533L62.339417 125.929138L56.358124 125.929138Z" style="fill: rgb(100.000000%,100.000000%,100.000000%);stroke: none;"></path>
  <g transform="translate(56.858124 131.849533)" style="fill: rgb(0.000000%,0.000000%,0.000000%);">
    <use xlink:href="#GLYPHcmr10_52"></use>
  </g>
  <path d="M114.514603 9.558426L120.495895 9.558426L120.495895 2.138031L114.514603 2.138031Z" style="fill: rgb(100.000000%,100.000000%,100.000000%);stroke: none;"></path>
  <path d="M114.514603 11.558426L120.495895 11.558426L120.495895 4.138031L114.514603 4.138031Z" style="fill: rgb(100.000000%,100.000000%,100.000000%);stroke: none;"></path>
  <g transform="translate(115.014603 10.058426)" style="fill: rgb(0.000000%,0.000000%,0.000000%);">
    <use xlink:href="#GLYPHcmr10_53"></use>
  </g>
  <path d="M150.247971 72.266953L156.229263 72.266953L156.229263 64.846558L150.247971 64.846558Z" style="fill: rgb(100.000000%,100.000000%,100.000000%);stroke: none;"></path>
  <path d="M150.247971 74.266953L156.229263 74.266953L156.229263 66.846558L150.247971 66.846558Z" style="fill: rgb(100.000000%,100.000000%,100.000000%);stroke: none;"></path>
  <g transform="translate(150.747971 72.766953)" style="fill: rgb(0.000000%,0.000000%,0.000000%);">
    <use xlink:href="#GLYPHcmr10_54"></use>
  </g>
  <path d="M85.451904 57.465515L91.433197 57.465515L91.433197 50.045120L85.451904 50.045120Z" style="fill: rgb(100.000000%,100.000000%,100.000000%);stroke: none;"></path>
  <path d="M85.451904 59.465515L91.433197 59.465515L91.433197 52.045120L85.451904 52.045120Z" style="fill: rgb(100.000000%,100.000000%,100.000000%);stroke: none;"></path>
  <g transform="translate(85.951904 57.965515)" style="fill: rgb(0.000000%,0.000000%,0.000000%);">
    <use xlink:href="#GLYPHcmr10_55"></use>
  </g>
  <path d="M16.253830 46.996964L22.235123 46.996964L22.235123 39.576569L16.253830 39.576569Z" style="fill: rgb(100.000000%,100.000000%,100.000000%);stroke: none;"></path>
  <path d="M16.253830 48.996964L22.235123 48.996964L22.235123 41.576569L16.253830 41.576569Z" style="fill: rgb(100.000000%,100.000000%,100.000000%);stroke: none;"></path>
  <g transform="translate(16.753830 47.496964)" style="fill: rgb(0.000000%,0.000000%,0.000000%);">
    <use xlink:href="#GLYPHcmr10_56"></use>
  </g>
  <path d="M82.512772 85.777054L88.494064 85.777054L88.494064 78.356659L82.512772 78.356659Z" style="fill: rgb(100.000000%,100.000000%,100.000000%);stroke: none;"></path>
  <path d="M82.512772 87.777054L88.494064 87.777054L88.494064 80.356659L82.512772 80.356659Z" style="fill: rgb(100.000000%,100.000000%,100.000000%);stroke: none;"></path>
  <g transform="translate(83.012772 86.277054)" style="fill: rgb(0.000000%,0.000000%,0.000000%);">
    <use xlink:href="#GLYPHcmr10_57"></use>
  </g>
  <path d="M102.739670 100.691055L113.702377 100.691055L113.702377 93.270660L102.739670 93.270660Z" style="fill: rgb(100.000000%,100.000000%,100.000000%);stroke: none;"></path>
  <path d="M102.739670 102.691055L113.702377 102.691055L113.702377 95.270660L102.739670 95.270660Z" style="fill: rgb(100.000000%,100.000000%,100.000000%);stroke: none;"></path>
  <g transform="translate(103.239670 101.191055)" style="fill: rgb(0.000000%,0.000000%,0.000000%);">
    <use xlink:href="#GLYPHcmr10_49"></use>
    <use xlink:href="#GLYPHcmr10_48" x="5.000095"></use>
  </g>
  <path d="M12.332718 149.929932L23.295425 149.929932L23.295425 142.509537L12.332718 142.509537Z" style="fill: rgb(100.000000%,100.000000%,100.000000%);stroke: none;"></path>
  <path d="M12.332718 151.929932L23.295425 151.929932L23.295425 144.509537L12.332718 144.509537Z" style="fill: rgb(100.000000%,100.000000%,100.000000%);stroke: none;"></path>
  <g transform="translate(12.832718 150.429932)" style="fill: rgb(0.000000%,0.000000%,0.000000%);">
    <use xlink:href="#GLYPHcmr10_49"></use>
    <use xlink:href="#GLYPHcmr10_49" x="5.000095"></use>
  </g>
  <path d="M34.847275 84.914490L45.809982 84.914490L45.809982 77.494095L34.847275 77.494095Z" style="fill: rgb(100.000000%,100.000000%,100.000000%);stroke: none;"></path>
  <path d="M34.847275 86.914490L45.809982 86.914490L45.809982 79.494095L34.847275 79.494095Z" style="fill: rgb(100.000000%,100.000000%,100.000000%);stroke: none;"></path>
  <g transform="translate(35.347275 85.414490)" style="fill: rgb(0.000000%,0.000000%,0.000000%);">
    <use xlink:href="#GLYPHcmr10_49"></use>
    <use xlink:href="#GLYPHcmr10_50" x="5.000095"></use>
  </g>
</svg>
