<?xml version="1.0"?>
<!-- Created by MetaPost 1.999 on 2021.07.06:0017 -->
<svg version="1.1" xmlns="http://www.w3.org/2000/svg" xmlns:xlink="http://www.w3.org/1999/xlink" width="188.217941" height="194.432678" viewBox="0 0 188.217941 194.432678">
<!-- Original BoundingBox: -129.324829 -101.190094 58.893112 93.242584 -->
  <defs>
    <g transform="scale(0.009963,0.009963)" id="GLYPHcmr10_48">
      <path style="fill-rule: evenodd;" d="M460.000000 -320.000000C460.000000 -400.000000,455.000000 -480.000000,420.000000 -554.000000C374.000000 -650.000000,292.000000 -666.000000,250.000000 -666.000000C190.000000 -666.000000,117.000000 -640.000000,76.000000 -547.000000C44.000000 -478.000000,39.000000 -400.000000,39.000000 -320.000000C39.000000 -245.000000,43.000000 -155.000000,84.000000 -79.000000C127.000000 2.000000,200.000000 22.000000,249.000000 22.000000C303.000000 22.000000,379.000000 1.000000,423.000000 -94.000000C455.000000 -163.000000,460.000000 -241.000000,460.000000 -320.000000M249.000000 -0.000000C210.000000 -0.000000,151.000000 -25.000000,133.000000 -121.000000C122.000000 -181.000000,122.000000 -273.000000,122.000000 -332.000000C122.000000 -396.000000,122.000000 -462.000000,130.000000 -516.000000C149.000000 -635.000000,224.000000 -644.000000,249.000000 -644.000000C282.000000 -644.000000,348.000000 -626.000000,367.000000 -527.000000C377.000000 -471.000000,377.000000 -395.000000,377.000000 -332.000000C377.000000 -257.000000,377.000000 -189.000000,366.000000 -125.000000C351.000000 -30.000000,294.000000 -0.000000,249.000000 -0.000000"></path>
    </g>
    <g transform="scale(0.009963,0.009963)" id="GLYPHcmr10_49">
      <path style="fill-rule: evenodd;" d="M294.000000 -640.000000C294.000000 -664.000000,294.000000 -666.000000,271.000000 -666.000000C209.000000 -602.000000,121.000000 -602.000000,89.000000 -602.000000L89.000000 -571.000000C109.000000 -571.000000,168.000000 -571.000000,220.000000 -597.000000L220.000000 -79.000000C220.000000 -43.000000,217.000000 -31.000000,127.000000 -31.000000L95.000000 -31.000000L95.000000 -0.000000L257.000000 -0.000000L130.000000 -3.000000L217.000000 -3.000000L257.000000 -3.000000L297.000000 -3.000000L384.000000 -3.000000L419.000000 -0.000000L419.000000 -31.000000L387.000000 -31.000000C297.000000 -31.000000,294.000000 -42.000000,294.000000 -79.000000"></path>
    </g>
    <g transform="scale(0.009963,0.009963)" id="GLYPHcmr10_50">
      <path style="fill-rule: evenodd;" d="M127.000000 -77.000000L233.000000 -180.000000C389.000000 -318.000000,449.000000 -372.000000,449.000000 -472.000000C449.000000 -586.000000,359.000000 -666.000000,237.000000 -666.000000C124.000000 -666.000000,50.000000 -574.000000,50.000000 -485.000000C50.000000 -429.000000,100.000000 -429.000000,103.000000 -429.000000C120.000000 -429.000000,155.000000 -441.000000,155.000000 -482.000000C155.000000 -508.000000,137.000000 -534.000000,102.000000 -534.000000C94.000000 -534.000000,92.000000 -534.000000,89.000000 -533.000000C112.000000 -598.000000,166.000000 -635.000000,224.000000 -635.000000C315.000000 -635.000000,358.000000 -554.000000,358.000000 -472.000000C358.000000 -392.000000,308.000000 -313.000000,253.000000 -251.000000L61.000000 -37.000000C50.000000 -26.000000,50.000000 -24.000000,50.000000 -0.000000L421.000000 -0.000000L449.000000 -174.000000L424.000000 -174.000000C419.000000 -144.000000,412.000000 -100.000000,402.000000 -85.000000C395.000000 -77.000000,329.000000 -77.000000,307.000000 -77.000000"></path>
    </g>
    <g transform="scale(0.009963,0.009963)" id="GLYPHcmr10_51">
      <path style="fill-rule: evenodd;" d="M290.000000 -352.000000C372.000000 -379.000000,430.000000 -449.000000,430.000000 -528.000000C430.000000 -610.000000,342.000000 -666.000000,246.000000 -666.000000C145.000000 -666.000000,69.000000 -606.000000,69.000000 -530.000000C69.000000 -497.000000,91.000000 -478.000000,120.000000 -478.000000C151.000000 -478.000000,171.000000 -500.000000,171.000000 -529.000000C171.000000 -579.000000,124.000000 -579.000000,109.000000 -579.000000C140.000000 -628.000000,206.000000 -641.000000,242.000000 -641.000000C283.000000 -641.000000,338.000000 -619.000000,338.000000 -529.000000C338.000000 -517.000000,336.000000 -459.000000,310.000000 -415.000000C280.000000 -367.000000,246.000000 -364.000000,221.000000 -363.000000C213.000000 -362.000000,189.000000 -360.000000,182.000000 -360.000000C174.000000 -359.000000,167.000000 -358.000000,167.000000 -348.000000C167.000000 -337.000000,174.000000 -337.000000,191.000000 -337.000000L235.000000 -337.000000C317.000000 -337.000000,354.000000 -269.000000,354.000000 -171.000000C354.000000 -35.000000,285.000000 -6.000000,241.000000 -6.000000C198.000000 -6.000000,123.000000 -23.000000,88.000000 -82.000000C123.000000 -77.000000,154.000000 -99.000000,154.000000 -137.000000C154.000000 -173.000000,127.000000 -193.000000,98.000000 -193.000000C74.000000 -193.000000,42.000000 -179.000000,42.000000 -135.000000C42.000000 -44.000000,135.000000 22.000000,244.000000 22.000000C366.000000 22.000000,457.000000 -69.000000,457.000000 -171.000000C457.000000 -253.000000,394.000000 -331.000000,290.000000 -352.000000"></path>
    </g>
    <g transform="scale(0.009963,0.009963)" id="GLYPHcmr10_52">
      <path style="fill-rule: evenodd;" d="M294.000000 -165.000000L294.000000 -78.000000C294.000000 -42.000000,292.000000 -31.000000,218.000000 -31.000000L197.000000 -31.000000L197.000000 -0.000000L332.000000 -0.000000L238.000000 -3.000000L290.000000 -3.000000L332.000000 -3.000000L374.000000 -3.000000L427.000000 -3.000000L468.000000 -0.000000L468.000000 -31.000000L447.000000 -31.000000C373.000000 -31.000000,371.000000 -42.000000,371.000000 -78.000000L371.000000 -165.000000L471.000000 -165.000000L471.000000 -196.000000L371.000000 -196.000000L371.000000 -651.000000C371.000000 -671.000000,371.000000 -677.000000,355.000000 -677.000000C346.000000 -677.000000,343.000000 -677.000000,335.000000 -665.000000L28.000000 -196.000000L28.000000 -165.000000M300.000000 -196.000000L56.000000 -196.000000L300.000000 -569.000000"></path>
    </g>
    <g transform="scale(0.009963,0.009963)" id="GLYPHcmr10_53">
      <path style="fill-rule: evenodd;" d="M449.000000 -201.000000C449.000000 -320.000000,367.000000 -420.000000,259.000000 -420.000000C211.000000 -420.000000,168.000000 -404.000000,132.000000 -369.000000L132.000000 -564.000000C152.000000 -558.000000,185.000000 -551.000000,217.000000 -551.000000C340.000000 -551.000000,410.000000 -642.000000,410.000000 -655.000000C410.000000 -661.000000,407.000000 -666.000000,400.000000 -666.000000C399.000000 -666.000000,397.000000 -666.000000,392.000000 -663.000000C372.000000 -654.000000,323.000000 -634.000000,256.000000 -634.000000C216.000000 -634.000000,170.000000 -641.000000,123.000000 -662.000000C115.000000 -665.000000,113.000000 -665.000000,111.000000 -665.000000C101.000000 -665.000000,101.000000 -657.000000,101.000000 -641.000000L101.000000 -345.000000C101.000000 -327.000000,101.000000 -319.000000,115.000000 -319.000000C122.000000 -319.000000,124.000000 -322.000000,128.000000 -328.000000C139.000000 -344.000000,176.000000 -398.000000,257.000000 -398.000000C309.000000 -398.000000,334.000000 -352.000000,342.000000 -334.000000C358.000000 -297.000000,360.000000 -258.000000,360.000000 -208.000000C360.000000 -173.000000,360.000000 -113.000000,336.000000 -71.000000C312.000000 -32.000000,275.000000 -6.000000,229.000000 -6.000000C156.000000 -6.000000,99.000000 -59.000000,82.000000 -118.000000C85.000000 -117.000000,88.000000 -116.000000,99.000000 -116.000000C132.000000 -116.000000,149.000000 -141.000000,149.000000 -165.000000C149.000000 -189.000000,132.000000 -214.000000,99.000000 -214.000000C85.000000 -214.000000,50.000000 -207.000000,50.000000 -161.000000C50.000000 -75.000000,119.000000 22.000000,231.000000 22.000000C347.000000 22.000000,449.000000 -74.000000,449.000000 -201.000000"></path>
    </g>
    <g transform="scale(0.009963,0.009963)" id="GLYPHcmr10_54">
      <path style="fill-rule: evenodd;" d="M132.000000 -328.000000L132.000000 -352.000000C132.000000 -605.000000,256.000000 -641.000000,307.000000 -641.000000C331.000000 -641.000000,373.000000 -635.000000,395.000000 -601.000000C380.000000 -601.000000,340.000000 -601.000000,340.000000 -556.000000C340.000000 -525.000000,364.000000 -510.000000,386.000000 -510.000000C402.000000 -510.000000,432.000000 -519.000000,432.000000 -558.000000C432.000000 -618.000000,388.000000 -666.000000,305.000000 -666.000000C177.000000 -666.000000,42.000000 -537.000000,42.000000 -316.000000C42.000000 -49.000000,158.000000 22.000000,251.000000 22.000000C362.000000 22.000000,457.000000 -72.000000,457.000000 -204.000000C457.000000 -331.000000,368.000000 -427.000000,257.000000 -427.000000C189.000000 -427.000000,152.000000 -376.000000,132.000000 -328.000000M251.000000 -6.000000C188.000000 -6.000000,158.000000 -66.000000,152.000000 -81.000000C134.000000 -128.000000,134.000000 -208.000000,134.000000 -226.000000C134.000000 -304.000000,166.000000 -404.000000,256.000000 -404.000000C272.000000 -404.000000,318.000000 -404.000000,349.000000 -342.000000C367.000000 -305.000000,367.000000 -254.000000,367.000000 -205.000000C367.000000 -157.000000,367.000000 -107.000000,350.000000 -71.000000C320.000000 -11.000000,274.000000 -6.000000,251.000000 -6.000000"></path>
    </g>
    <g transform="scale(0.009963,0.009963)" id="GLYPHcmr10_55">
      <path style="fill-rule: evenodd;" d="M476.000000 -609.000000C485.000000 -621.000000,485.000000 -623.000000,485.000000 -644.000000L242.000000 -644.000000C120.000000 -644.000000,118.000000 -657.000000,114.000000 -676.000000L89.000000 -676.000000L56.000000 -470.000000L81.000000 -470.000000C84.000000 -486.000000,93.000000 -549.000000,106.000000 -561.000000C113.000000 -567.000000,191.000000 -567.000000,204.000000 -567.000000L411.000000 -567.000000C400.000000 -551.000000,321.000000 -442.000000,299.000000 -409.000000C209.000000 -274.000000,176.000000 -135.000000,176.000000 -33.000000C176.000000 -23.000000,176.000000 22.000000,222.000000 22.000000C268.000000 22.000000,268.000000 -23.000000,268.000000 -33.000000L268.000000 -84.000000C268.000000 -139.000000,271.000000 -194.000000,279.000000 -248.000000C283.000000 -271.000000,297.000000 -357.000000,341.000000 -419.000000"></path>
    </g>
    <g transform="scale(0.009963,0.009963)" id="GLYPHcmr10_56">
      <path style="fill-rule: evenodd;" d="M163.000000 -457.000000C117.000000 -487.000000,113.000000 -521.000000,113.000000 -538.000000C113.000000 -599.000000,178.000000 -641.000000,249.000000 -641.000000C322.000000 -641.000000,386.000000 -589.000000,386.000000 -517.000000C386.000000 -460.000000,347.000000 -412.000000,287.000000 -377.000000M309.000000 -362.000000C381.000000 -399.000000,430.000000 -451.000000,430.000000 -517.000000C430.000000 -609.000000,341.000000 -666.000000,250.000000 -666.000000C150.000000 -666.000000,69.000000 -592.000000,69.000000 -499.000000C69.000000 -481.000000,71.000000 -436.000000,113.000000 -389.000000C124.000000 -377.000000,161.000000 -352.000000,186.000000 -335.000000C128.000000 -306.000000,42.000000 -250.000000,42.000000 -151.000000C42.000000 -45.000000,144.000000 22.000000,249.000000 22.000000C362.000000 22.000000,457.000000 -61.000000,457.000000 -168.000000C457.000000 -204.000000,446.000000 -249.000000,408.000000 -291.000000C389.000000 -312.000000,373.000000 -322.000000,309.000000 -362.000000M209.000000 -320.000000L332.000000 -242.000000C360.000000 -223.000000,407.000000 -193.000000,407.000000 -132.000000C407.000000 -58.000000,332.000000 -6.000000,250.000000 -6.000000C164.000000 -6.000000,92.000000 -68.000000,92.000000 -151.000000C92.000000 -209.000000,124.000000 -273.000000,209.000000 -320.000000"></path>
    </g>
    <g transform="scale(0.009963,0.009963)" id="GLYPHcmr10_57">
      <path style="fill-rule: evenodd;" d="M367.000000 -318.000000L367.000000 -286.000000C367.000000 -52.000000,263.000000 -6.000000,205.000000 -6.000000C188.000000 -6.000000,134.000000 -8.000000,107.000000 -42.000000C151.000000 -42.000000,159.000000 -71.000000,159.000000 -88.000000C159.000000 -119.000000,135.000000 -134.000000,113.000000 -134.000000C97.000000 -134.000000,67.000000 -125.000000,67.000000 -86.000000C67.000000 -19.000000,121.000000 22.000000,206.000000 22.000000C335.000000 22.000000,457.000000 -114.000000,457.000000 -329.000000C457.000000 -598.000000,342.000000 -666.000000,253.000000 -666.000000C198.000000 -666.000000,149.000000 -648.000000,106.000000 -603.000000C65.000000 -558.000000,42.000000 -516.000000,42.000000 -441.000000C42.000000 -316.000000,130.000000 -218.000000,242.000000 -218.000000C303.000000 -218.000000,344.000000 -260.000000,367.000000 -318.000000M243.000000 -241.000000C227.000000 -241.000000,181.000000 -241.000000,150.000000 -304.000000C132.000000 -341.000000,132.000000 -391.000000,132.000000 -440.000000C132.000000 -494.000000,132.000000 -541.000000,153.000000 -578.000000C180.000000 -628.000000,218.000000 -641.000000,253.000000 -641.000000C299.000000 -641.000000,332.000000 -607.000000,349.000000 -562.000000C361.000000 -530.000000,365.000000 -467.000000,365.000000 -421.000000C365.000000 -338.000000,331.000000 -241.000000,243.000000 -241.000000"></path>
    </g>
  </defs>
  <path d="M125.942215 99.700592C125.942215 98.907898,125.627274 98.147751,125.066788 97.587280C124.506317 97.026794,123.746170 96.711853,122.953476 96.711853C122.160782 96.711853,121.400635 97.026794,120.840164 97.587280C120.279678 98.147751,119.964737 98.907898,119.964737 99.700592C119.964737 100.493286,120.279678 101.253433,120.840164 101.813904C121.400635 102.374390,122.160782 102.689331,122.953476 102.689331C123.746170 102.689331,124.506317 102.374390,125.066788 101.813904C125.627274 101.253433,125.942215 100.493286,125.942215 99.700592Z" style="fill: rgb(100.000000%,100.000000%,100.000000%);stroke: none;"></path>
  <path d="M123.243881 103.317719C123.243881 102.525024,122.928940 101.764877,122.368454 101.204407C121.807983 100.643921,121.047836 100.328979,120.255142 100.328979C119.462448 100.328979,118.702301 100.643921,118.141830 101.204407C117.581345 101.764877,117.266403 102.525024,117.266403 103.317719C117.266403 104.110413,117.581345 104.870560,118.141830 105.431030C118.702301 105.991516,119.462448 106.306458,120.255142 106.306458C121.047836 106.306458,121.807983 105.991516,122.368454 105.431030C122.928940 104.870560,123.243881 104.110413,123.243881 103.317719Z" style="fill: rgb(100.000000%,100.000000%,100.000000%);stroke: none;"></path>
  <path d="M134.416306 90.472443C134.416306 89.679749,134.101364 88.919601,133.540878 88.359131C132.980408 87.798645,132.220261 87.483704,131.427567 87.483704C130.634872 87.483704,129.874725 87.798645,129.314255 88.359131C128.753769 88.919601,128.438828 89.679749,128.438828 90.472443C128.438828 91.265137,128.753769 92.025284,129.314255 92.585754C129.874725 93.146240,130.634872 93.461182,131.427567 93.461182C132.220261 93.461182,132.980408 93.146240,133.540878 92.585754C134.101364 92.025284,134.416306 91.265137,134.416306 90.472443Z" style="fill: rgb(100.000000%,100.000000%,100.000000%);stroke: none;"></path>
  <path d="M128.862793 96.254700C128.862793 95.462006,128.547852 94.701859,127.987366 94.141388C127.426895 93.580902,126.666748 93.265961,125.874054 93.265961C125.081360 93.265961,124.321213 93.580902,123.760742 94.141388C123.200256 94.701859,122.885315 95.462006,122.885315 96.254700C122.885315 97.047394,123.200256 97.807541,123.760742 98.368011C124.321213 98.928497,125.081360 99.243439,125.874054 99.243439C126.666748 99.243439,127.426895 98.928497,127.987366 98.368011C128.547852 97.807541,128.862793 97.047394,128.862793 96.254700Z" style="fill: rgb(100.000000%,100.000000%,100.000000%);stroke: none;"></path>
  <path d="M136.307480 81.296875C136.307480 80.504181,135.992538 79.744034,135.432053 79.183563C134.871582 78.623077,134.111435 78.308136,133.318741 78.308136C132.526047 78.308136,131.765900 78.623077,131.205429 79.183563C130.644943 79.744034,130.330002 80.504181,130.330002 81.296875C130.330002 82.089569,130.644943 82.849716,131.205429 83.410187C131.765900 83.970673,132.526047 84.285614,133.318741 84.285614C134.111435 84.285614,134.871582 83.970673,135.432053 83.410187C135.992538 82.849716,136.307480 82.089569,136.307480 81.296875Z" style="fill: rgb(100.000000%,100.000000%,100.000000%);stroke: none;"></path>
  <path d="M137.025513 87.697754C137.025513 86.905060,136.710571 86.144913,136.150085 85.584442C135.589615 85.023956,134.829468 84.709015,134.036774 84.709015C133.244080 84.709015,132.483932 85.023956,131.923462 85.584442C131.362976 86.144913,131.048035 86.905060,131.048035 87.697754C131.048035 88.490448,131.362976 89.250595,131.923462 89.811066C132.483932 90.371552,133.244080 90.686493,134.036774 90.686493C134.829468 90.686493,135.589615 90.371552,136.150085 89.811066C136.710571 89.250595,137.025513 88.490448,137.025513 87.697754Z" style="fill: rgb(100.000000%,100.000000%,100.000000%);stroke: none;"></path>
  <path d="M130.395859 75.021820C130.395859 74.229126,130.080917 73.468979,129.520432 72.908508C128.959961 72.348022,128.199814 72.033081,127.407120 72.033081C126.614426 72.033081,125.854279 72.348022,125.293808 72.908508C124.733322 73.468979,124.418381 74.229126,124.418381 75.021820C124.418381 75.814514,124.733322 76.574661,125.293808 77.135132C125.854279 77.695618,126.614426 78.010559,127.407120 78.010559C128.199814 78.010559,128.959961 77.695618,129.520432 77.135132C130.080917 76.574661,130.395859 75.814514,130.395859 75.021820Z" style="fill: rgb(100.000000%,100.000000%,100.000000%);stroke: none;"></path>
  <path d="M133.846710 79.266541C133.846710 78.473846,133.531769 77.713699,132.971283 77.153229C132.410812 76.592743,131.650665 76.277802,130.857971 76.277802C130.065277 76.277802,129.305130 76.592743,128.744659 77.153229C128.184174 77.713699,127.869232 78.473846,127.869232 79.266541C127.869232 80.059235,128.184174 80.819382,128.744659 81.379852C129.305130 81.940338,130.065277 82.255280,130.857971 82.255280C131.650665 82.255280,132.410812 81.940338,132.971283 81.379852C133.531769 80.819382,133.846710 80.059235,133.846710 79.266541Z" style="fill: rgb(100.000000%,100.000000%,100.000000%);stroke: none;"></path>
  <path d="M124.220154 74.440887C124.220154 73.648193,123.905212 72.888046,123.344727 72.327576C122.784256 71.767090,122.024109 71.452148,121.231415 71.452148C120.438721 71.452148,119.678574 71.767090,119.118103 72.327576C118.557617 72.888046,118.242676 73.648193,118.242676 74.440887C118.242676 75.233582,118.557617 75.993729,119.118103 76.554199C119.678574 77.114685,120.438721 77.429626,121.231415 77.429626C122.024109 77.429626,122.784256 77.114685,123.344727 76.554199C123.905212 75.993729,124.220154 75.233582,124.220154 74.440887Z" style="fill: rgb(100.000000%,100.000000%,100.000000%);stroke: none;"></path>
  <path d="M128.558121 72.816940C128.558121 72.024246,128.243179 71.264099,127.682693 70.703629C127.122223 70.143143,126.362076 69.828201,125.569382 69.828201C124.776688 69.828201,124.016541 70.143143,123.456070 70.703629C122.895584 71.264099,122.580643 72.024246,122.580643 72.816940C122.580643 73.609634,122.895584 74.369781,123.456070 74.930252C124.016541 75.490738,124.776688 75.805679,125.569382 75.805679C126.362076 75.805679,127.122223 75.490738,127.682693 74.930252C128.243179 74.369781,128.558121 73.609634,128.558121 72.816940Z" style="fill: rgb(100.000000%,100.000000%,100.000000%);stroke: none;"></path>
  <path d="M123.865906 82.133392C123.865906 81.340698,123.550964 80.580551,122.990479 80.020081C122.430008 79.459595,121.669861 79.144653,120.877167 79.144653C120.084473 79.144653,119.324326 79.459595,118.763855 80.020081C118.203369 80.580551,117.888428 81.340698,117.888428 82.133392C117.888428 82.926086,118.203369 83.686234,118.763855 84.246704C119.324326 84.807190,120.084473 85.122131,120.877167 85.122131C121.669861 85.122131,122.430008 84.807190,122.990479 84.246704C123.550964 83.686234,123.865906 82.926086,123.865906 82.133392Z" style="fill: rgb(100.000000%,100.000000%,100.000000%);stroke: none;"></path>
  <path d="M124.164322 77.110382C124.164322 76.317688,123.849380 75.557541,123.288895 74.997070C122.728424 74.436584,121.968277 74.121643,121.175583 74.121643C120.382889 74.121643,119.622742 74.436584,119.062271 74.997070C118.501785 75.557541,118.186844 76.317688,118.186844 77.110382C118.186844 77.903076,118.501785 78.663223,119.062271 79.223694C119.622742 79.784180,120.382889 80.099121,121.175583 80.099121C121.968277 80.099121,122.728424 79.784180,123.288895 79.223694C123.849380 78.663223,124.164322 77.903076,124.164322 77.110382Z" style="fill: rgb(100.000000%,100.000000%,100.000000%);stroke: none;"></path>
  <path d="M125.424088 90.492126C125.424088 89.699432,125.109146 88.939285,124.548660 88.378815C123.988190 87.818329,123.228043 87.503387,122.435349 87.503387C121.642654 87.503387,120.882507 87.818329,120.322037 88.378815C119.761551 88.939285,119.446609 89.699432,119.446609 90.492126C119.446609 91.284821,119.761551 92.044968,120.322037 92.605438C120.882507 93.165924,121.642654 93.480865,122.435349 93.480865C123.228043 93.480865,123.988190 93.165924,124.548660 92.605438C125.109146 92.044968,125.424088 91.284821,125.424088 90.492126Z" style="fill: rgb(100.000000%,100.000000%,100.000000%);stroke: none;"></path>
  <path d="M123.049789 84.896515C123.049789 84.103821,122.734848 83.343674,122.174362 82.783203C121.613892 82.222717,120.853745 81.907776,120.061050 81.907776C119.268356 81.907776,118.508209 82.222717,117.947739 82.783203C117.387253 83.343674,117.072311 84.103821,117.072311 84.896515C117.072311 85.689209,117.387253 86.449356,117.947739 87.009827C118.508209 87.570312,119.268356 87.885254,120.061050 87.885254C120.853745 87.885254,121.613892 87.570312,122.174362 87.009827C122.734848 86.449356,123.049789 85.689209,123.049789 84.896515Z" style="fill: rgb(100.000000%,100.000000%,100.000000%);stroke: none;"></path>
  <path d="M137.165451 95.085815C137.165451 94.293121,136.850510 93.532974,136.290024 92.972504C135.729553 92.412018,134.969406 92.097076,134.176712 92.097076C133.384018 92.097076,132.623871 92.412018,132.063400 92.972504C131.502914 93.532974,131.187973 94.293121,131.187973 95.085815C131.187973 95.878510,131.502914 96.638657,132.063400 97.199127C132.623871 97.759613,133.384018 98.074554,134.176712 98.074554C134.969406 98.074554,135.729553 97.759613,136.290024 97.199127C136.850510 96.638657,137.165451 95.878510,137.165451 95.085815Z" style="fill: rgb(100.000000%,100.000000%,100.000000%);stroke: none;"></path>
  <path d="M128.857162 91.738220C128.857162 90.945526,128.542221 90.185379,127.981735 89.624908C127.421265 89.064423,126.661118 88.749481,125.868423 88.749481C125.075729 88.749481,124.315582 89.064423,123.755112 89.624908C123.194626 90.185379,122.879684 90.945526,122.879684 91.738220C122.879684 92.530914,123.194626 93.291061,123.755112 93.851532C124.315582 94.412018,125.075729 94.726959,125.868423 94.726959C126.661118 94.726959,127.421265 94.412018,127.981735 93.851532C128.542221 93.291061,128.857162 92.530914,128.857162 91.738220Z" style="fill: rgb(100.000000%,100.000000%,100.000000%);stroke: none;"></path>
  <path d="M155.997116 106.776047C155.997116 105.983353,155.682175 105.223206,155.121689 104.662735C154.561218 104.102249,153.801071 103.787308,153.008377 103.787308C152.215683 103.787308,151.455536 104.102249,150.895065 104.662735C150.334579 105.223206,150.019638 105.983353,150.019638 106.776047C150.019638 107.568741,150.334579 108.328888,150.895065 108.889359C151.455536 109.449844,152.215683 109.764786,153.008377 109.764786C153.801071 109.764786,154.561218 109.449844,155.121689 108.889359C155.682175 108.328888,155.997116 107.568741,155.997116 106.776047Z" style="fill: rgb(100.000000%,100.000000%,100.000000%);stroke: none;"></path>
  <path d="M142.018112 97.870804C142.018112 97.078110,141.703171 96.317963,141.142685 95.757492C140.582214 95.197006,139.822067 94.882065,139.029373 94.882065C138.236679 94.882065,137.476532 95.197006,136.916061 95.757492C136.355576 96.317963,136.040634 97.078110,136.040634 97.870804C136.040634 98.663498,136.355576 99.423645,136.916061 99.984116C137.476532 100.544601,138.236679 100.859543,139.029373 100.859543C139.822067 100.859543,140.582214 100.544601,141.142685 99.984116C141.703171 99.423645,142.018112 98.663498,142.018112 97.870804Z" style="fill: rgb(100.000000%,100.000000%,100.000000%);stroke: none;"></path>
  <path d="M171.731766 141.658249C171.731766 140.865555,171.416824 140.105408,170.856339 139.544937C170.295868 138.984451,169.535721 138.669510,168.743027 138.669510C167.950333 138.669510,167.190186 138.984451,166.629715 139.544937C166.069229 140.105408,165.754288 140.865555,165.754288 141.658249C165.754288 142.450943,166.069229 143.211090,166.629715 143.771561C167.190186 144.332047,167.950333 144.646988,168.743027 144.646988C169.535721 144.646988,170.295868 144.332047,170.856339 143.771561C171.416824 143.211090,171.731766 142.450943,171.731766 141.658249Z" style="fill: rgb(100.000000%,100.000000%,100.000000%);stroke: none;"></path>
  <path d="M165.008255 114.038925C165.008255 113.246231,164.693314 112.486084,164.132828 111.925613C163.572357 111.365128,162.812210 111.050186,162.019516 111.050186C161.226822 111.050186,160.466675 111.365128,159.906204 111.925613C159.345718 112.486084,159.030777 113.246231,159.030777 114.038925C159.030777 114.831619,159.345718 115.591766,159.906204 116.152237C160.466675 116.712723,161.226822 117.027664,162.019516 117.027664C162.812210 117.027664,163.572357 116.712723,164.132828 116.152237C164.693314 115.591766,165.008255 114.831619,165.008255 114.038925Z" style="fill: rgb(100.000000%,100.000000%,100.000000%);stroke: none;"></path>
  <path d="M128.618454 178.216980C128.618454 177.424286,128.303513 176.664139,127.743027 176.103668C127.182556 175.543182,126.422409 175.228241,125.629715 175.228241C124.837021 175.228241,124.076874 175.543182,123.516403 176.103668C122.955917 176.664139,122.640976 177.424286,122.640976 178.216980C122.640976 179.009674,122.955917 179.769821,123.516403 180.330292C124.076874 180.890778,124.837021 181.205719,125.629715 181.205719C126.422409 181.205719,127.182556 180.890778,127.743027 180.330292C128.303513 179.769821,128.618454 179.009674,128.618454 178.216980Z" style="fill: rgb(100.000000%,100.000000%,100.000000%);stroke: none;"></path>
  <path d="M158.906296 156.696198C158.906296 155.903503,158.591354 155.143356,158.030869 154.582886C157.470398 154.022400,156.710251 153.707458,155.917557 153.707458C155.124863 153.707458,154.364716 154.022400,153.804245 154.582886C153.243759 155.143356,152.928818 155.903503,152.928818 156.696198C152.928818 157.488892,153.243759 158.249039,153.804245 158.809509C154.364716 159.369995,155.124863 159.684937,155.917557 159.684937C156.710251 159.684937,157.470398 159.369995,158.030869 158.809509C158.591354 158.249039,158.906296 157.488892,158.906296 156.696198Z" style="fill: rgb(100.000000%,100.000000%,100.000000%);stroke: none;"></path>
  <path d="M84.009750 167.844467C84.009750 167.051773,83.694809 166.291626,83.134323 165.731155C82.573853 165.170670,81.813705 164.855728,81.021011 164.855728C80.228317 164.855728,79.468170 165.170670,78.907700 165.731155C78.347214 166.291626,78.032272 167.051773,78.032272 167.844467C78.032272 168.637161,78.347214 169.397308,78.907700 169.957779C79.468170 170.518265,80.228317 170.833206,81.021011 170.833206C81.813705 170.833206,82.573853 170.518265,83.134323 169.957779C83.694809 169.397308,84.009750 168.637161,84.009750 167.844467Z" style="fill: rgb(100.000000%,100.000000%,100.000000%);stroke: none;"></path>
  <path d="M109.152267 185.447266C109.152267 184.654572,108.837326 183.894424,108.276840 183.333954C107.716370 182.773468,106.956223 182.458527,106.163528 182.458527C105.370834 182.458527,104.610687 182.773468,104.050217 183.333954C103.489731 183.894424,103.174789 184.654572,103.174789 185.447266C103.174789 186.239960,103.489731 187.000107,104.050217 187.560577C104.610687 188.121063,105.370834 188.436005,106.163528 188.436005C106.956223 188.436005,107.716370 188.121063,108.276840 187.560577C108.837326 187.000107,109.152267 186.239960,109.152267 185.447266Z" style="fill: rgb(100.000000%,100.000000%,100.000000%);stroke: none;"></path>
  <path d="M56.356476 145.512238C56.356476 144.719543,56.041534 143.959396,55.481049 143.398926C54.920578 142.838440,54.160431 142.523499,53.367737 142.523499C52.575043 142.523499,51.814896 142.838440,51.254425 143.398926C50.693939 143.959396,50.378998 144.719543,50.378998 145.512238C50.378998 146.304932,50.693939 147.065079,51.254425 147.625549C51.814896 148.186035,52.575043 148.500977,53.367737 148.500977C54.160431 148.500977,54.920578 148.186035,55.481049 147.625549C56.041534 147.065079,56.356476 146.304932,56.356476 145.512238Z" style="fill: rgb(100.000000%,100.000000%,100.000000%);stroke: none;"></path>
  <path d="M80.025085 153.339615C80.025085 152.546921,79.710144 151.786774,79.149658 151.226303C78.589188 150.665817,77.829041 150.350876,77.036346 150.350876C76.243652 150.350876,75.483505 150.665817,74.923035 151.226303C74.362549 151.786774,74.047607 152.546921,74.047607 153.339615C74.047607 154.132309,74.362549 154.892456,74.923035 155.452927C75.483505 156.013412,76.243652 156.328354,77.036346 156.328354C77.829041 156.328354,78.589188 156.013412,79.149658 155.452927C79.710144 154.892456,80.025085 154.132309,80.025085 153.339615Z" style="fill: rgb(100.000000%,100.000000%,100.000000%);stroke: none;"></path>
  <path d="M18.403351 151.875015C18.403351 151.082321,18.088409 150.322174,17.527924 149.761703C16.967453 149.201218,16.207306 148.886276,15.414612 148.886276C14.621918 148.886276,13.861771 149.201218,13.301300 149.761703C12.740814 150.322174,12.425873 151.082321,12.425873 151.875015C12.425873 152.667709,12.740814 153.427856,13.301300 153.988327C13.861771 154.548813,14.621918 154.863754,15.414612 154.863754C16.207306 154.863754,16.967453 154.548813,17.527924 153.988327C18.088409 153.427856,18.403351 152.667709,18.403351 151.875015Z" style="fill: rgb(100.000000%,100.000000%,100.000000%);stroke: none;"></path>
  <path d="M44.763199 153.912430C44.763199 153.119736,44.448257 152.359589,43.887772 151.799118C43.327301 151.238632,42.567154 150.923691,41.774460 150.923691C40.981766 150.923691,40.221619 151.238632,39.661148 151.799118C39.100662 152.359589,38.785721 153.119736,38.785721 153.912430C38.785721 154.705124,39.100662 155.465271,39.661148 156.025742C40.221619 156.586227,40.981766 156.901169,41.774460 156.901169C42.567154 156.901169,43.327301 156.586227,43.887772 156.025742C44.448257 155.465271,44.763199 154.705124,44.763199 153.912430Z" style="fill: rgb(100.000000%,100.000000%,100.000000%);stroke: none;"></path>
  <path d="M5.652649 109.037827C5.652649 108.245132,5.337708 107.484985,4.777222 106.924515C4.216751 106.364029,3.456604 106.049088,2.663910 106.049088C1.871216 106.049088,1.111069 106.364029,0.550598 106.924515C-0.009888 107.484985,-0.324829 108.245132,-0.324829 109.037827C-0.324829 109.830521,-0.009888 110.590668,0.550598 111.151138C1.111069 111.711624,1.871216 112.026566,2.663910 112.026566C3.456604 112.026566,4.216751 111.711624,4.777222 111.151138C5.337708 110.590668,5.652649 109.830521,5.652649 109.037827Z" style="fill: rgb(100.000000%,100.000000%,100.000000%);stroke: none;"></path>
  <path d="M8.054611 139.113403C8.054611 138.320709,7.739670 137.560562,7.179184 137.000092C6.618713 136.439606,5.858566 136.124664,5.065872 136.124664C4.273178 136.124664,3.513031 136.439606,2.952560 137.000092C2.392075 137.560562,2.077133 138.320709,2.077133 139.113403C2.077133 139.906097,2.392075 140.666245,2.952560 141.226715C3.513031 141.787201,4.273178 142.102142,5.065872 142.102142C5.858566 142.102142,6.618713 141.787201,7.179184 141.226715C7.739670 140.666245,8.054611 139.906097,8.054611 139.113403Z" style="fill: rgb(100.000000%,100.000000%,100.000000%);stroke: none;"></path>
  <path d="M41.415497 86.264786C41.415497 85.472092,41.100555 84.711945,40.540070 84.151474C39.979599 83.590988,39.219452 83.276047,38.426758 83.276047C37.634064 83.276047,36.873917 83.590988,36.313446 84.151474C35.752960 84.711945,35.438019 85.472092,35.438019 86.264786C35.438019 87.057480,35.752960 87.817627,36.313446 88.378098C36.873917 88.938583,37.634064 89.253525,38.426758 89.253525C39.219452 89.253525,39.979599 88.938583,40.540070 88.378098C41.100555 87.817627,41.415497 87.057480,41.415497 86.264786Z" style="fill: rgb(100.000000%,100.000000%,100.000000%);stroke: none;"></path>
  <path d="M14.200500 94.435059C14.200500 93.642365,13.885559 92.882217,13.325073 92.321747C12.764603 91.761261,12.004456 91.446320,11.211761 91.446320C10.419067 91.446320,9.658920 91.761261,9.098450 92.321747C8.537964 92.882217,8.223022 93.642365,8.223022 94.435059C8.223022 95.227753,8.537964 95.987900,9.098450 96.548370C9.658920 97.108856,10.419067 97.423798,11.211761 97.423798C12.004456 97.423798,12.764603 97.108856,13.325073 96.548370C13.885559 95.987900,14.200500 95.227753,14.200500 94.435059Z" style="fill: rgb(100.000000%,100.000000%,100.000000%);stroke: none;"></path>
  <path d="M75.675385 92.010162C75.675385 91.217468,75.360443 90.457321,74.799957 89.896851C74.239487 89.336365,73.479340 89.021423,72.686646 89.021423C71.893951 89.021423,71.133804 89.336365,70.573334 89.896851C70.012848 90.457321,69.697906 91.217468,69.697906 92.010162C69.697906 92.802856,70.012848 93.563004,70.573334 94.123474C71.133804 94.683960,71.893951 94.998901,72.686646 94.998901C73.479340 94.998901,74.239487 94.683960,74.799957 94.123474C75.360443 93.563004,75.675385 92.802856,75.675385 92.010162Z" style="fill: rgb(100.000000%,100.000000%,100.000000%);stroke: none;"></path>
  <path d="M54.573578 92.265045C54.573578 91.472351,54.258636 90.712204,53.698151 90.151733C53.137680 89.591248,52.377533 89.276306,51.584839 89.276306C50.792145 89.276306,50.031998 89.591248,49.471527 90.151733C48.911041 90.712204,48.596100 91.472351,48.596100 92.265045C48.596100 93.057739,48.911041 93.817886,49.471527 94.378357C50.031998 94.938843,50.792145 95.253784,51.584839 95.253784C52.377533 95.253784,53.137680 94.938843,53.698151 94.378357C54.258636 93.817886,54.573578 93.057739,54.573578 92.265045Z" style="fill: rgb(100.000000%,100.000000%,100.000000%);stroke: none;"></path>
  <path d="M95.101791 89.264771C95.101791 88.472076,94.786850 87.711929,94.226364 87.151459C93.665894 86.590973,92.905746 86.276031,92.113052 86.276031C91.320358 86.276031,90.560211 86.590973,89.999741 87.151459C89.439255 87.711929,89.124313 88.472076,89.124313 89.264771C89.124313 90.057465,89.439255 90.817612,89.999741 91.378082C90.560211 91.938568,91.320358 92.253510,92.113052 92.253510C92.905746 92.253510,93.665894 91.938568,94.226364 91.378082C94.786850 90.817612,95.101791 90.057465,95.101791 89.264771Z" style="fill: rgb(100.000000%,100.000000%,100.000000%);stroke: none;"></path>
  <path d="M83.390564 89.672592C83.390564 88.879898,83.075623 88.119751,82.515137 87.559280C81.954666 86.998795,81.194519 86.683853,80.401825 86.683853C79.609131 86.683853,78.848984 86.998795,78.288513 87.559280C77.728027 88.119751,77.413086 88.879898,77.413086 89.672592C77.413086 90.465286,77.728027 91.225433,78.288513 91.785904C78.848984 92.346390,79.609131 92.661331,80.401825 92.661331C81.194519 92.661331,81.954666 92.346390,82.515137 91.785904C83.075623 91.225433,83.390564 90.465286,83.390564 89.672592Z" style="fill: rgb(100.000000%,100.000000%,100.000000%);stroke: none;"></path>
  <path d="M103.146011 83.215576C103.146011 82.422882,102.831070 81.662735,102.270584 81.102264C101.710114 80.541779,100.949966 80.226837,100.157272 80.226837C99.364578 80.226837,98.604431 80.541779,98.043961 81.102264C97.483475 81.662735,97.168533 82.422882,97.168533 83.215576C97.168533 84.008270,97.483475 84.768417,98.043961 85.328888C98.604431 85.889374,99.364578 86.204315,100.157272 86.204315C100.949966 86.204315,101.710114 85.889374,102.270584 85.328888C102.831070 84.768417,103.146011 84.008270,103.146011 83.215576Z" style="fill: rgb(100.000000%,100.000000%,100.000000%);stroke: none;"></path>
  <path d="M99.330154 89.239807C99.330154 88.447113,99.015213 87.686966,98.454727 87.126495C97.894257 86.566010,97.134109 86.251068,96.341415 86.251068C95.548721 86.251068,94.788574 86.566010,94.228104 87.126495C93.667618 87.686966,93.352676 88.447113,93.352676 89.239807C93.352676 90.032501,93.667618 90.792648,94.228104 91.353119C94.788574 91.913605,95.548721 92.228546,96.341415 92.228546C97.134109 92.228546,97.894257 91.913605,98.454727 91.353119C99.015213 90.792648,99.330154 90.032501,99.330154 89.239807Z" style="fill: rgb(100.000000%,100.000000%,100.000000%);stroke: none;"></path>
  <path d="M99.094131 70.238617C99.094131 69.445923,98.779190 68.685776,98.218704 68.125305C97.658234 67.564819,96.898087 67.249878,96.105392 67.249878C95.312698 67.249878,94.552551 67.564819,93.992081 68.125305C93.431595 68.685776,93.116653 69.445923,93.116653 70.238617C93.116653 71.031311,93.431595 71.791458,93.992081 72.351929C94.552551 72.912415,95.312698 73.227356,96.105392 73.227356C96.898087 73.227356,97.658234 72.912415,98.218704 72.351929C98.779190 71.791458,99.094131 71.031311,99.094131 70.238617Z" style="fill: rgb(100.000000%,100.000000%,100.000000%);stroke: none;"></path>
  <path d="M101.810257 79.706177C101.810257 78.913483,101.495316 78.153336,100.934830 77.592865C100.374359 77.032379,99.614212 76.717438,98.821518 76.717438C98.028824 76.717438,97.268677 77.032379,96.708206 77.592865C96.147720 78.153336,95.832779 78.913483,95.832779 79.706177C95.832779 80.498871,96.147720 81.259018,96.708206 81.819489C97.268677 82.379974,98.028824 82.694916,98.821518 82.694916C99.614212 82.694916,100.374359 82.379974,100.934830 81.819489C101.495316 81.259018,101.810257 80.498871,101.810257 79.706177Z" style="fill: rgb(100.000000%,100.000000%,100.000000%);stroke: none;"></path>
  <path d="M97.362946 45.926559C97.362946 45.133865,97.048004 44.373718,96.487518 43.813248C95.927048 43.252762,95.166901 42.937820,94.374207 42.937820C93.581512 42.937820,92.821365 43.252762,92.260895 43.813248C91.700409 44.373718,91.385468 45.133865,91.385468 45.926559C91.385468 46.719254,91.700409 47.479401,92.260895 48.039871C92.821365 48.600357,93.581512 48.915298,94.374207 48.915298C95.166901 48.915298,95.927048 48.600357,96.487518 48.039871C97.048004 47.479401,97.362946 46.719254,97.362946 45.926559Z" style="fill: rgb(100.000000%,100.000000%,100.000000%);stroke: none;"></path>
  <path d="M99.206985 63.712906C99.206985 62.920212,98.892044 62.160065,98.331558 61.599594C97.771088 61.039108,97.010941 60.724167,96.218246 60.724167C95.425552 60.724167,94.665405 61.039108,94.104935 61.599594C93.544449 62.160065,93.229507 62.920212,93.229507 63.712906C93.229507 64.505600,93.544449 65.265747,94.104935 65.826218C94.665405 66.386703,95.425552 66.701645,96.218246 66.701645C97.010941 66.701645,97.771088 66.386703,98.331558 65.826218C98.892044 65.265747,99.206985 64.505600,99.206985 63.712906Z" style="fill: rgb(100.000000%,100.000000%,100.000000%);stroke: none;"></path>
  <path d="M103.929581 9.219193C103.929581 8.426498,103.614639 7.666351,103.054153 7.105881C102.493683 6.545395,101.733536 6.230453,100.940842 6.230453C100.148148 6.230453,99.388000 6.545395,98.827530 7.105881C98.267044 7.666351,97.952103 8.426498,97.952103 9.219193C97.952103 10.011887,98.267044 10.772034,98.827530 11.332504C99.388000 11.892990,100.148148 12.207932,100.940842 12.207932C101.733536 12.207932,102.493683 11.892990,103.054153 11.332504C103.614639 10.772034,103.929581 10.011887,103.929581 9.219193Z" style="fill: rgb(100.000000%,100.000000%,100.000000%);stroke: none;"></path>
  <path d="M93.813660 34.254822C93.813660 33.462128,93.498718 32.701981,92.938232 32.141510C92.377762 31.581024,91.617615 31.266083,90.824921 31.266083C90.032227 31.266083,89.272079 31.581024,88.711609 32.141510C88.151123 32.701981,87.836182 33.462128,87.836182 34.254822C87.836182 35.047516,88.151123 35.807663,88.711609 36.368134C89.272079 36.928619,90.032227 37.243561,90.824921 37.243561C91.617615 37.243561,92.377762 36.928619,92.938232 36.368134C93.498718 35.807663,93.813660 35.047516,93.813660 34.254822Z" style="fill: rgb(100.000000%,100.000000%,100.000000%);stroke: none;"></path>
  <path d="M150.299347 11.046509C150.299347 10.253815,149.984406 9.493668,149.423920 8.933197C148.863449 8.372711,148.103302 8.057770,147.310608 8.057770C146.517914 8.057770,145.757767 8.372711,145.197296 8.933197C144.636810 9.493668,144.321869 10.253815,144.321869 11.046509C144.321869 11.839203,144.636810 12.599350,145.197296 13.159821C145.757767 13.720306,146.517914 14.035248,147.310608 14.035248C148.103302 14.035248,148.863449 13.720306,149.423920 13.159821C149.984406 12.599350,150.299347 11.839203,150.299347 11.046509Z" style="fill: rgb(100.000000%,100.000000%,100.000000%);stroke: none;"></path>
  <path d="M120.370056 2.746155C120.370056 1.953461,120.055115 1.193314,119.494629 0.632843C118.934158 0.072357,118.174011 -0.242584,117.381317 -0.242584C116.588623 -0.242584,115.828476 0.072357,115.268005 0.632843C114.707520 1.193314,114.392578 1.953461,114.392578 2.746155C114.392578 3.538849,114.707520 4.298996,115.268005 4.859467C115.828476 5.419952,116.588623 5.734894,117.381317 5.734894C118.174011 5.734894,118.934158 5.419952,119.494629 4.859467C120.055115 4.298996,120.370056 3.538849,120.370056 2.746155Z" style="fill: rgb(100.000000%,100.000000%,100.000000%);stroke: none;"></path>
  <path d="M157.651398 49.557495C157.651398 48.764801,157.336456 48.004654,156.775970 47.444183C156.215500 46.883698,155.455353 46.568756,154.662659 46.568756C153.869965 46.568756,153.109818 46.883698,152.549347 47.444183C151.988861 48.004654,151.673920 48.764801,151.673920 49.557495C151.673920 50.350189,151.988861 51.110336,152.549347 51.670807C153.109818 52.231293,153.869965 52.546234,154.662659 52.546234C155.455353 52.546234,156.215500 52.231293,156.775970 51.670807C157.336456 51.110336,157.651398 50.350189,157.651398 49.557495Z" style="fill: rgb(100.000000%,100.000000%,100.000000%);stroke: none;"></path>
  <path d="M160.863770 24.227524C160.863770 23.434830,160.548828 22.674683,159.988342 22.114212C159.427872 21.553726,158.667725 21.238785,157.875031 21.238785C157.082336 21.238785,156.322189 21.553726,155.761719 22.114212C155.201233 22.674683,154.886292 23.434830,154.886292 24.227524C154.886292 25.020218,155.201233 25.780365,155.761719 26.340836C156.322189 26.901321,157.082336 27.216263,157.875031 27.216263C158.667725 27.216263,159.427872 26.901321,159.988342 26.340836C160.548828 25.780365,160.863770 25.020218,160.863770 24.227524Z" style="fill: rgb(100.000000%,100.000000%,100.000000%);stroke: none;"></path>
  <path d="M138.801270 69.005676C138.801270 68.212982,138.486328 67.452835,137.925842 66.892365C137.365372 66.331879,136.605225 66.016937,135.812531 66.016937C135.019836 66.016937,134.259689 66.331879,133.699219 66.892365C133.138733 67.452835,132.823792 68.212982,132.823792 69.005676C132.823792 69.798370,133.138733 70.558517,133.699219 71.118988C134.259689 71.679474,135.019836 71.994415,135.812531 71.994415C136.605225 71.994415,137.365372 71.679474,137.925842 71.118988C138.486328 70.558517,138.801270 69.798370,138.801270 69.005676Z" style="fill: rgb(100.000000%,100.000000%,100.000000%);stroke: none;"></path>
  <path d="M149.893753 57.623901C149.893753 56.831207,149.578812 56.071060,149.018326 55.510590C148.457855 54.950104,147.697708 54.635162,146.905014 54.635162C146.112320 54.635162,145.352173 54.950104,144.791702 55.510590C144.231216 56.071060,143.916275 56.831207,143.916275 57.623901C143.916275 58.416595,144.231216 59.176743,144.791702 59.737213C145.352173 60.297699,146.112320 60.612640,146.905014 60.612640C147.697708 60.612640,148.457855 60.297699,149.018326 59.737213C149.578812 59.176743,149.893753 58.416595,149.893753 57.623901Z" style="fill: rgb(100.000000%,100.000000%,100.000000%);stroke: none;"></path>
  <path d="M131.028641 78.248291C131.028641 77.455597,130.713699 76.695450,130.153214 76.134979C129.592743 75.574493,128.832596 75.259552,128.039902 75.259552C127.247208 75.259552,126.487061 75.574493,125.926590 76.134979C125.366104 76.695450,125.051163 77.455597,125.051163 78.248291C125.051163 79.040985,125.366104 79.801132,125.926590 80.361603C126.487061 80.922089,127.247208 81.237030,128.039902 81.237030C128.832596 81.237030,129.592743 80.922089,130.153214 80.361603C130.713699 79.801132,131.028641 79.040985,131.028641 78.248291Z" style="fill: rgb(100.000000%,100.000000%,100.000000%);stroke: none;"></path>
  <path d="M135.158890 72.797211C135.158890 72.004517,134.843948 71.244370,134.283463 70.683899C133.722992 70.123413,132.962845 69.808472,132.170151 69.808472C131.377457 69.808472,130.617310 70.123413,130.056839 70.683899C129.496353 71.244370,129.181412 72.004517,129.181412 72.797211C129.181412 73.589905,129.496353 74.350052,130.056839 74.910522C130.617310 75.471008,131.377457 75.785950,132.170151 75.785950C132.962845 75.785950,133.722992 75.471008,134.283463 74.910522C134.843948 74.350052,135.158890 73.589905,135.158890 72.797211Z" style="fill: rgb(100.000000%,100.000000%,100.000000%);stroke: none;"></path>
  <path d="M127.022949 80.491943C127.022949 79.699249,126.708008 78.939102,126.147522 78.378632C125.587051 77.818146,124.826904 77.503204,124.034210 77.503204C123.241516 77.503204,122.481369 77.818146,121.920898 78.378632C121.360413 78.939102,121.045471 79.699249,121.045471 80.491943C121.045471 81.284637,121.360413 82.044785,121.920898 82.605255C122.481369 83.165741,123.241516 83.480682,124.034210 83.480682C124.826904 83.480682,125.587051 83.165741,126.147522 82.605255C126.708008 82.044785,127.022949 81.284637,127.022949 80.491943Z" style="fill: rgb(100.000000%,100.000000%,100.000000%);stroke: none;"></path>
  <path d="M130.035934 79.595856C130.035934 78.803162,129.720993 78.043015,129.160507 77.482544C128.600037 76.922058,127.839890 76.607117,127.047195 76.607117C126.254501 76.607117,125.494354 76.922058,124.933884 77.482544C124.373398 78.043015,124.058456 78.803162,124.058456 79.595856C124.058456 80.388550,124.373398 81.148697,124.933884 81.709167C125.494354 82.269653,126.254501 82.584595,127.047195 82.584595C127.839890 82.584595,128.600037 82.269653,129.160507 81.709167C129.720993 81.148697,130.035934 80.388550,130.035934 79.595856Z" style="fill: rgb(100.000000%,100.000000%,100.000000%);stroke: none;"></path>
  <path d="M120.578857 78.272720C120.578857 77.480026,120.263916 76.719879,119.703430 76.159409C119.142960 75.598923,118.382812 75.283981,117.590118 75.283981C116.797424 75.283981,116.037277 75.598923,115.476807 76.159409C114.916321 76.719879,114.601379 77.480026,114.601379 78.272720C114.601379 79.065414,114.916321 79.825562,115.476807 80.386032C116.037277 80.946518,116.797424 81.261459,117.590118 81.261459C118.382812 81.261459,119.142960 80.946518,119.703430 80.386032C120.263916 79.825562,120.578857 79.065414,120.578857 78.272720Z" style="fill: rgb(100.000000%,100.000000%,100.000000%);stroke: none;"></path>
  <path d="M125.491074 79.945267C125.491074 79.152573,125.176132 78.392426,124.615646 77.831955C124.055176 77.271469,123.295029 76.956528,122.502335 76.956528C121.709641 76.956528,120.949493 77.271469,120.389023 77.831955C119.828537 78.392426,119.513596 79.152573,119.513596 79.945267C119.513596 80.737961,119.828537 81.498108,120.389023 82.058578C120.949493 82.619064,121.709641 82.934006,122.502335 82.934006C123.295029 82.934006,124.055176 82.619064,124.615646 82.058578C125.176132 81.498108,125.491074 80.737961,125.491074 79.945267Z" style="fill: rgb(100.000000%,100.000000%,100.000000%);stroke: none;"></path>
  <path d="M109.246521 76.583786C109.246521 75.791092,108.931580 75.030945,108.371094 74.470474C107.810623 73.909988,107.050476 73.595047,106.257782 73.595047C105.465088 73.595047,104.704941 73.909988,104.144470 74.470474C103.583984 75.030945,103.269043 75.791092,103.269043 76.583786C103.269043 77.376480,103.583984 78.136627,104.144470 78.697098C104.704941 79.257584,105.465088 79.572525,106.257782 79.572525C107.050476 79.572525,107.810623 79.257584,108.371094 78.697098C108.931580 78.136627,109.246521 77.376480,109.246521 76.583786Z" style="fill: rgb(100.000000%,100.000000%,100.000000%);stroke: none;"></path>
  <path d="M117.034958 77.383011C117.034958 76.590317,116.720016 75.830170,116.159531 75.269699C115.599060 74.709213,114.838913 74.394272,114.046219 74.394272C113.253525 74.394272,112.493378 74.709213,111.932907 75.269699C111.372421 75.830170,111.057480 76.590317,111.057480 77.383011C111.057480 78.175705,111.372421 78.935852,111.932907 79.496323C112.493378 80.056808,113.253525 80.371750,114.046219 80.371750C114.838913 80.371750,115.599060 80.056808,116.159531 79.496323C116.720016 78.935852,117.034958 78.175705,117.034958 77.383011Z" style="fill: rgb(100.000000%,100.000000%,100.000000%);stroke: none;"></path>
  <path d="M96.985870 76.052429C96.985870 75.259735,96.670929 74.499588,96.110443 73.939117C95.549973 73.378632,94.789825 73.063690,93.997131 73.063690C93.204437 73.063690,92.444290 73.378632,91.883820 73.939117C91.323334 74.499588,91.008392 75.259735,91.008392 76.052429C91.008392 76.845123,91.323334 77.605270,91.883820 78.165741C92.444290 78.726227,93.204437 79.041168,93.997131 79.041168C94.789825 79.041168,95.549973 78.726227,96.110443 78.165741C96.670929 77.605270,96.985870 76.845123,96.985870 76.052429Z" style="fill: rgb(100.000000%,100.000000%,100.000000%);stroke: none;"></path>
  <path d="M105.039398 76.849350C105.039398 76.056656,104.724457 75.296509,104.163971 74.736038C103.603500 74.175552,102.843353 73.860611,102.050659 73.860611C101.257965 73.860611,100.497818 74.175552,99.937347 74.736038C99.376862 75.296509,99.061920 76.056656,99.061920 76.849350C99.061920 77.642044,99.376862 78.402191,99.937347 78.962662C100.497818 79.523148,101.257965 79.838089,102.050659 79.838089C102.843353 79.838089,103.603500 79.523148,104.163971 78.962662C104.724457 78.402191,105.039398 77.642044,105.039398 76.849350Z" style="fill: rgb(100.000000%,100.000000%,100.000000%);stroke: none;"></path>
  <path d="M87.960739 81.610352C87.960739 80.817657,87.645798 80.057510,87.085312 79.497040C86.524841 78.936554,85.764694 78.621613,84.972000 78.621613C84.179306 78.621613,83.419159 78.936554,82.858688 79.497040C82.298203 80.057510,81.983261 80.817657,81.983261 81.610352C81.983261 82.403046,82.298203 83.163193,82.858688 83.723663C83.419159 84.284149,84.179306 84.599091,84.972000 84.599091C85.764694 84.599091,86.524841 84.284149,87.085312 83.723663C87.645798 83.163193,87.960739 82.403046,87.960739 81.610352Z" style="fill: rgb(100.000000%,100.000000%,100.000000%);stroke: none;"></path>
  <path d="M92.648819 75.469620C92.648819 74.676926,92.333878 73.916779,91.773392 73.356308C91.212921 72.795822,90.452774 72.480881,89.660080 72.480881C88.867386 72.480881,88.107239 72.795822,87.546768 73.356308C86.986282 73.916779,86.671341 74.676926,86.671341 75.469620C86.671341 76.262314,86.986282 77.022461,87.546768 77.582932C88.107239 78.143417,88.867386 78.458359,89.660080 78.458359C90.452774 78.458359,91.212921 78.143417,91.773392 77.582932C92.333878 77.022461,92.648819 76.262314,92.648819 75.469620Z" style="fill: rgb(100.000000%,100.000000%,100.000000%);stroke: none;"></path>
  <path d="M93.647690 95.018799C93.647690 94.226105,93.332748 93.465958,92.772263 92.905487C92.211792 92.345001,91.451645 92.030060,90.658951 92.030060C89.866257 92.030060,89.106110 92.345001,88.545639 92.905487C87.985153 93.465958,87.670212 94.226105,87.670212 95.018799C87.670212 95.811493,87.985153 96.571640,88.545639 97.132111C89.106110 97.692596,89.866257 98.007538,90.658951 98.007538C91.451645 98.007538,92.211792 97.692596,92.772263 97.132111C93.332748 96.571640,93.647690 95.811493,93.647690 95.018799Z" style="fill: rgb(100.000000%,100.000000%,100.000000%);stroke: none;"></path>
  <path d="M89.760025 85.710236C89.760025 84.917542,89.445084 84.157394,88.884598 83.596924C88.324127 83.036438,87.563980 82.721497,86.771286 82.721497C85.978592 82.721497,85.218445 83.036438,84.657974 83.596924C84.097488 84.157394,83.782547 84.917542,83.782547 85.710236C83.782547 86.502930,84.097488 87.263077,84.657974 87.823547C85.218445 88.384033,85.978592 88.698975,86.771286 88.698975C87.563980 88.698975,88.324127 88.384033,88.884598 87.823547C89.445084 87.263077,89.760025 86.502930,89.760025 85.710236Z" style="fill: rgb(100.000000%,100.000000%,100.000000%);stroke: none;"></path>
  <path d="M102.735321 111.498062C102.735321 110.705368,102.420380 109.945221,101.859894 109.384750C101.299423 108.824265,100.539276 108.509323,99.746582 108.509323C98.953888 108.509323,98.193741 108.824265,97.633270 109.384750C97.072784 109.945221,96.757843 110.705368,96.757843 111.498062C96.757843 112.290756,97.072784 113.050903,97.633270 113.611374C98.193741 114.171860,98.953888 114.486801,99.746582 114.486801C100.539276 114.486801,101.299423 114.171860,101.859894 113.611374C102.420380 113.050903,102.735321 112.290756,102.735321 111.498062Z" style="fill: rgb(100.000000%,100.000000%,100.000000%);stroke: none;"></path>
  <path d="M94.836349 101.207626C94.836349 100.414932,94.521408 99.654785,93.960922 99.094315C93.400452 98.533829,92.640305 98.218887,91.847610 98.218887C91.054916 98.218887,90.294769 98.533829,89.734299 99.094315C89.173813 99.654785,88.858871 100.414932,88.858871 101.207626C88.858871 102.000320,89.173813 102.760468,89.734299 103.320938C90.294769 103.881424,91.054916 104.196365,91.847610 104.196365C92.640305 104.196365,93.400452 103.881424,93.960922 103.320938C94.521408 102.760468,94.836349 102.000320,94.836349 101.207626Z" style="fill: rgb(100.000000%,100.000000%,100.000000%);stroke: none;"></path>
  <path d="M121.683090 119.665512C121.683090 118.872818,121.368149 118.112671,120.807663 117.552200C120.247192 116.991714,119.487045 116.676773,118.694351 116.676773C117.901657 116.676773,117.141510 116.991714,116.581039 117.552200C116.020554 118.112671,115.705612 118.872818,115.705612 119.665512C115.705612 120.458206,116.020554 121.218353,116.581039 121.778824C117.141510 122.339310,117.901657 122.654251,118.694351 122.654251C119.487045 122.654251,120.247192 122.339310,120.807663 121.778824C121.368149 121.218353,121.683090 120.458206,121.683090 119.665512Z" style="fill: rgb(100.000000%,100.000000%,100.000000%);stroke: none;"></path>
  <path d="M109.248047 114.265549C109.248047 113.472855,108.933105 112.712708,108.372620 112.152237C107.812149 111.591751,107.052002 111.276810,106.259308 111.276810C105.466614 111.276810,104.706467 111.591751,104.145996 112.152237C103.585510 112.712708,103.270569 113.472855,103.270569 114.265549C103.270569 115.058243,103.585510 115.818390,104.145996 116.378860C104.706467 116.939346,105.466614 117.254288,106.259308 117.254288C107.052002 117.254288,107.812149 116.939346,108.372620 116.378860C108.933105 115.818390,109.248047 115.058243,109.248047 114.265549Z" style="fill: rgb(100.000000%,100.000000%,100.000000%);stroke: none;"></path>
  <path d="M145.203400 128.420761C145.203400 127.628067,144.888458 126.867920,144.327972 126.307449C143.767502 125.746964,143.007355 125.432022,142.214661 125.432022C141.421967 125.432022,140.661819 125.746964,140.101349 126.307449C139.540863 126.867920,139.225922 127.628067,139.225922 128.420761C139.225922 129.213455,139.540863 129.973602,140.101349 130.534073C140.661819 131.094559,141.421967 131.409500,142.214661 131.409500C143.007355 131.409500,143.767502 131.094559,144.327972 130.534073C144.888458 129.973602,145.203400 129.213455,145.203400 128.420761Z" style="fill: rgb(100.000000%,100.000000%,100.000000%);stroke: none;"></path>
  <path d="M127.801483 122.453796C127.801483 121.661102,127.486542 120.900955,126.926056 120.340485C126.365585 119.779999,125.605438 119.465057,124.812744 119.465057C124.020050 119.465057,123.259903 119.779999,122.699432 120.340485C122.138947 120.900955,121.824005 121.661102,121.824005 122.453796C121.824005 123.246490,122.138947 124.006638,122.699432 124.567108C123.259903 125.127594,124.020050 125.442535,124.812744 125.442535C125.605438 125.442535,126.365585 125.127594,126.926056 124.567108C127.486542 124.006638,127.801483 123.246490,127.801483 122.453796Z" style="fill: rgb(100.000000%,100.000000%,100.000000%);stroke: none;"></path>
  <path d="M183.011261 116.407898C183.011261 115.615204,182.696320 114.855057,182.135834 114.294586C181.575363 113.734100,180.815216 113.419159,180.022522 113.419159C179.229828 113.419159,178.469681 113.734100,177.909210 114.294586C177.348724 114.855057,177.033783 115.615204,177.033783 116.407898C177.033783 117.200592,177.348724 117.960739,177.909210 118.521210C178.469681 119.081696,179.229828 119.396637,180.022522 119.396637C180.815216 119.396637,181.575363 119.081696,182.135834 118.521210C182.696320 117.960739,183.011261 117.200592,183.011261 116.407898Z" style="fill: rgb(100.000000%,100.000000%,100.000000%);stroke: none;"></path>
  <path d="M157.359589 130.202499C157.359589 129.409805,157.044647 128.649658,156.484161 128.089188C155.923691 127.528702,155.163544 127.213760,154.370850 127.213760C153.578156 127.213760,152.818008 127.528702,152.257538 128.089188C151.697052 128.649658,151.382111 129.409805,151.382111 130.202499C151.382111 130.995193,151.697052 131.755341,152.257538 132.315811C152.818008 132.876297,153.578156 133.191238,154.370850 133.191238C155.163544 133.191238,155.923691 132.876297,156.484161 132.315811C157.044647 131.755341,157.359589 130.995193,157.359589 130.202499Z" style="fill: rgb(100.000000%,100.000000%,100.000000%);stroke: none;"></path>
  <path d="M184.107193 60.507980C184.107193 59.715286,183.792252 58.955139,183.231766 58.394669C182.671295 57.834183,181.911148 57.519241,181.118454 57.519241C180.325760 57.519241,179.565613 57.834183,179.005142 58.394669C178.444656 58.955139,178.129715 59.715286,178.129715 60.507980C178.129715 61.300674,178.444656 62.060822,179.005142 62.621292C179.565613 63.181778,180.325760 63.496719,181.118454 63.496719C181.911148 63.496719,182.671295 63.181778,183.231766 62.621292C183.792252 62.060822,184.107193 61.300674,184.107193 60.507980Z" style="fill: rgb(100.000000%,100.000000%,100.000000%);stroke: none;"></path>
  <path d="M186.644211 97.196030C186.644211 96.403336,186.329269 95.643188,185.768784 95.082718C185.208313 94.522232,184.448166 94.207291,183.655472 94.207291C182.862778 94.207291,182.102631 94.522232,181.542160 95.082718C180.981674 95.643188,180.666733 96.403336,180.666733 97.196030C180.666733 97.988724,180.981674 98.748871,181.542160 99.309341C182.102631 99.869827,182.862778 100.184769,183.655472 100.184769C184.448166 100.184769,185.208313 99.869827,185.768784 99.309341C186.329269 98.748871,186.644211 97.988724,186.644211 97.196030Z" style="fill: rgb(100.000000%,100.000000%,100.000000%);stroke: none;"></path>
  <path d="M147.839111 37.378357C147.839111 36.585663,147.524170 35.825516,146.963684 35.265045C146.403214 34.704559,145.643066 34.389618,144.850372 34.389618C144.057678 34.389618,143.297531 34.704559,142.737061 35.265045C142.176575 35.825516,141.861633 36.585663,141.861633 37.378357C141.861633 38.171051,142.176575 38.931198,142.737061 39.491669C143.297531 40.052155,144.057678 40.367096,144.850372 40.367096C145.643066 40.367096,146.403214 40.052155,146.963684 39.491669C147.524170 38.931198,147.839111 38.171051,147.839111 37.378357Z" style="fill: rgb(100.000000%,100.000000%,100.000000%);stroke: none;"></path>
  <path d="M176.356369 41.486679C176.356369 40.693985,176.041428 39.933838,175.480942 39.373367C174.920471 38.812881,174.160324 38.497940,173.367630 38.497940C172.574936 38.497940,171.814789 38.812881,171.254318 39.373367C170.693832 39.933838,170.378891 40.693985,170.378891 41.486679C170.378891 42.279373,170.693832 43.039520,171.254318 43.599991C171.814789 44.160477,172.574936 44.475418,173.367630 44.475418C174.160324 44.475418,174.920471 44.160477,175.480942 43.599991C176.041428 43.039520,176.356369 42.279373,176.356369 41.486679Z" style="fill: rgb(100.000000%,100.000000%,100.000000%);stroke: none;"></path>
  <path d="M114.825424 39.466278C114.825424 38.673584,114.510483 37.913437,113.949997 37.352966C113.389526 36.792480,112.629379 36.477539,111.836685 36.477539C111.043991 36.477539,110.283844 36.792480,109.723373 37.352966C109.162888 37.913437,108.847946 38.673584,108.847946 39.466278C108.847946 40.258972,109.162888 41.019119,109.723373 41.579590C110.283844 42.140076,111.043991 42.455017,111.836685 42.455017C112.629379 42.455017,113.389526 42.140076,113.949997 41.579590C114.510483 41.019119,114.825424 40.258972,114.825424 39.466278Z" style="fill: rgb(100.000000%,100.000000%,100.000000%);stroke: none;"></path>
  <path d="M136.964737 44.877289C136.964737 44.084595,136.649796 43.324448,136.089310 42.763977C135.528839 42.203491,134.768692 41.888550,133.975998 41.888550C133.183304 41.888550,132.423157 42.203491,131.862686 42.763977C131.302200 43.324448,130.987259 44.084595,130.987259 44.877289C130.987259 45.669983,131.302200 46.430130,131.862686 46.990601C132.423157 47.551086,133.183304 47.866028,133.975998 47.866028C134.768692 47.866028,135.528839 47.551086,136.089310 46.990601C136.649796 46.430130,136.964737 45.669983,136.964737 44.877289Z" style="fill: rgb(100.000000%,100.000000%,100.000000%);stroke: none;"></path>
  <path d="M80.945541 16.919006C80.945541 16.126312,80.630600 15.366165,80.070114 14.805695C79.509644 14.245209,78.749496 13.930267,77.956802 13.930267C77.164108 13.930267,76.403961 14.245209,75.843491 14.805695C75.283005 15.366165,74.968063 16.126312,74.968063 16.919006C74.968063 17.711700,75.283005 18.471848,75.843491 19.032318C76.403961 19.592804,77.164108 19.907745,77.956802 19.907745C78.749496 19.907745,79.509644 19.592804,80.070114 19.032318C80.630600 18.471848,80.945541 17.711700,80.945541 16.919006Z" style="fill: rgb(100.000000%,100.000000%,100.000000%);stroke: none;"></path>
  <path d="M108.706039 27.680542C108.706039 26.887848,108.391098 26.127701,107.830612 25.567230C107.270142 25.006744,106.509995 24.691803,105.717300 24.691803C104.924606 24.691803,104.164459 25.006744,103.603989 25.567230C103.043503 26.127701,102.728561 26.887848,102.728561 27.680542C102.728561 28.473236,103.043503 29.233383,103.603989 29.793854C104.164459 30.354340,104.924606 30.669281,105.717300 30.669281C106.509995 30.669281,107.270142 30.354340,107.830612 29.793854C108.391098 29.233383,108.706039 28.473236,108.706039 27.680542Z" style="fill: rgb(100.000000%,100.000000%,100.000000%);stroke: none;"></path>
  <path d="M37.326614 57.327698C37.326614 56.535004,37.011673 55.774857,36.451187 55.214386C35.890717 54.653900,35.130569 54.338959,34.337875 54.338959C33.545181 54.338959,32.785034 54.653900,32.224564 55.214386C31.664078 55.774857,31.349136 56.535004,31.349136 57.327698C31.349136 58.120392,31.664078 58.880539,32.224564 59.441010C32.785034 60.001495,33.545181 60.316437,34.337875 60.316437C35.130569 60.316437,35.890717 60.001495,36.451187 59.441010C37.011673 58.880539,37.326614 58.120392,37.326614 57.327698Z" style="fill: rgb(100.000000%,100.000000%,100.000000%);stroke: none;"></path>
  <path d="M64.847305 30.926178C64.847305 30.133484,64.532364 29.373337,63.971878 28.812866C63.411407 28.252380,62.651260 27.937439,61.858566 27.937439C61.065872 27.937439,60.305725 28.252380,59.745255 28.812866C59.184769 29.373337,58.869827 30.133484,58.869827 30.926178C58.869827 31.718872,59.184769 32.479019,59.745255 33.039490C60.305725 33.599976,61.065872 33.914917,61.858566 33.914917C62.651260 33.914917,63.411407 33.599976,63.971878 33.039490C64.532364 32.479019,64.847305 31.718872,64.847305 30.926178Z" style="fill: rgb(100.000000%,100.000000%,100.000000%);stroke: none;"></path>
  <path d="M32.672333 101.820404C32.672333 101.027710,32.357391 100.267563,31.796906 99.707092C31.236435 99.146606,30.476288 98.831665,29.683594 98.831665C28.890900 98.831665,28.130753 99.146606,27.570282 99.707092C27.009796 100.267563,26.694855 101.027710,26.694855 101.820404C26.694855 102.613098,27.009796 103.373245,27.570282 103.933716C28.130753 104.494202,28.890900 104.809143,29.683594 104.809143C30.476288 104.809143,31.236435 104.494202,31.796906 103.933716C32.357391 103.373245,32.672333 102.613098,32.672333 101.820404Z" style="fill: rgb(100.000000%,100.000000%,100.000000%);stroke: none;"></path>
  <path d="M22.754456 72.750031C22.754456 71.957336,22.439514 71.197189,21.879028 70.636719C21.318558 70.076233,20.558411 69.761292,19.765717 69.761292C18.973022 69.761292,18.212875 70.076233,17.652405 70.636719C17.091919 71.197189,16.776978 71.957336,16.776978 72.750031C16.776978 73.542725,17.091919 74.302872,17.652405 74.863342C18.212875 75.423828,18.973022 75.738770,19.765717 75.738770C20.558411 75.738770,21.318558 75.423828,21.879028 74.863342C22.439514 74.302872,22.754456 73.542725,22.754456 72.750031Z" style="fill: rgb(100.000000%,100.000000%,100.000000%);stroke: none;"></path>
  <path d="M47.021378 133.598953C47.021378 132.806259,46.706436 132.046112,46.145950 131.485641C45.585480 130.925156,44.825333 130.610214,44.032639 130.610214C43.239944 130.610214,42.479797 130.925156,41.919327 131.485641C41.358841 132.046112,41.043900 132.806259,41.043900 133.598953C41.043900 134.391647,41.358841 135.151794,41.919327 135.712265C42.479797 136.272751,43.239944 136.587692,44.032639 136.587692C44.825333 136.587692,45.585480 136.272751,46.145950 135.712265C46.706436 135.151794,47.021378 134.391647,47.021378 133.598953Z" style="fill: rgb(100.000000%,100.000000%,100.000000%);stroke: none;"></path>
  <path d="M46.289978 109.025833C46.289978 108.233139,45.975037 107.472992,45.414551 106.912521C44.854080 106.352036,44.093933 106.037094,43.301239 106.037094C42.508545 106.037094,41.748398 106.352036,41.187927 106.912521C40.627441 107.472992,40.312500 108.233139,40.312500 109.025833C40.312500 109.818527,40.627441 110.578674,41.187927 111.139145C41.748398 111.699631,42.508545 112.014572,43.301239 112.014572C44.093933 112.014572,44.854080 111.699631,45.414551 111.139145C45.975037 110.578674,46.289978 109.818527,46.289978 109.025833Z" style="fill: rgb(100.000000%,100.000000%,100.000000%);stroke: none;"></path>
  <path d="M29.688354 167.040421C29.688354 166.247726,29.373413 165.487579,28.812927 164.927109C28.252457 164.366623,27.492310 164.051682,26.699615 164.051682C25.906921 164.051682,25.146774 164.366623,24.586304 164.927109C24.025818 165.487579,23.710876 166.247726,23.710876 167.040421C23.710876 167.833115,24.025818 168.593262,24.586304 169.153732C25.146774 169.714218,25.906921 170.029160,26.699615 170.029160C27.492310 170.029160,28.252457 169.714218,28.812927 169.153732C29.373413 168.593262,29.688354 167.833115,29.688354 167.040421Z" style="fill: rgb(100.000000%,100.000000%,100.000000%);stroke: none;"></path>
  <path d="M35.357391 141.653687C35.357391 140.860992,35.042450 140.100845,34.481964 139.540375C33.921494 138.979889,33.161346 138.664948,32.368652 138.664948C31.575958 138.664948,30.815811 138.979889,30.255341 139.540375C29.694855 140.100845,29.379913 140.860992,29.379913 141.653687C29.379913 142.446381,29.694855 143.206528,30.255341 143.766998C30.815811 144.327484,31.575958 144.642426,32.368652 144.642426C33.161346 144.642426,33.921494 144.327484,34.481964 143.766998C35.042450 143.206528,35.357391 142.446381,35.357391 141.653687Z" style="fill: rgb(100.000000%,100.000000%,100.000000%);stroke: none;"></path>
  <path d="M68.585312 191.201355C68.585312 190.408661,68.270370 189.648514,67.709885 189.088043C67.149414 188.527557,66.389267 188.212616,65.596573 188.212616C64.803879 188.212616,64.043732 188.527557,63.483261 189.088043C62.922775 189.648514,62.607834 190.408661,62.607834 191.201355C62.607834 191.994049,62.922775 192.754196,63.483261 193.314667C64.043732 193.875153,64.803879 194.190094,65.596573 194.190094C66.389267 194.190094,67.149414 193.875153,67.709885 193.314667C68.270370 192.754196,68.585312 191.994049,68.585312 191.201355Z" style="fill: rgb(100.000000%,100.000000%,100.000000%);stroke: none;"></path>
  <path d="M39.783813 180.128754C39.783813 179.336060,39.468872 178.575912,38.908386 178.015442C38.347916 177.454956,37.587769 177.140015,36.795074 177.140015C36.002380 177.140015,35.242233 177.454956,34.681763 178.015442C34.121277 178.575912,33.806335 179.336060,33.806335 180.128754C33.806335 180.921448,34.121277 181.681595,34.681763 182.242065C35.242233 182.802551,36.002380 183.117493,36.795074 183.117493C37.587769 183.117493,38.347916 182.802551,38.908386 182.242065C39.468872 181.681595,39.783813 180.921448,39.783813 180.128754Z" style="fill: rgb(100.000000%,100.000000%,100.000000%);stroke: none;"></path>
  <path d="M101.285065 164.303741C101.285065 163.511047,100.970123 162.750900,100.409637 162.190430C99.849167 161.629944,99.089020 161.315002,98.296326 161.315002C97.503632 161.315002,96.743484 161.629944,96.183014 162.190430C95.622528 162.750900,95.307587 163.511047,95.307587 164.303741C95.307587 165.096436,95.622528 165.856583,96.183014 166.417053C96.743484 166.977539,97.503632 167.292480,98.296326 167.292480C99.089020 167.292480,99.849167 166.977539,100.409637 166.417053C100.970123 165.856583,101.285065 165.096436,101.285065 164.303741Z" style="fill: rgb(100.000000%,100.000000%,100.000000%);stroke: none;"></path>
  <path d="M85.710007 187.920914C85.710007 187.128220,85.395065 186.368073,84.834579 185.807602C84.274109 185.247116,83.513962 184.932175,82.721268 184.932175C81.928574 184.932175,81.168427 185.247116,80.607956 185.807602C80.047470 186.368073,79.732529 187.128220,79.732529 187.920914C79.732529 188.713608,80.047470 189.473755,80.607956 190.034225C81.168427 190.594711,81.928574 190.909653,82.721268 190.909653C83.513962 190.909653,84.274109 190.594711,84.834579 190.034225C85.395065 189.473755,85.710007 188.713608,85.710007 187.920914Z" style="fill: rgb(100.000000%,100.000000%,100.000000%);stroke: none;"></path>
  <path d="M106.260468 130.698425C106.260468 129.905731,105.945526 129.145584,105.385040 128.585114C104.824570 128.024628,104.064423 127.709686,103.271729 127.709686C102.479034 127.709686,101.718887 128.024628,101.158417 128.585114C100.597931 129.145584,100.282990 129.905731,100.282990 130.698425C100.282990 131.491119,100.597931 132.251266,101.158417 132.811737C101.718887 133.372223,102.479034 133.687164,103.271729 133.687164C104.064423 133.687164,104.824570 133.372223,105.385040 132.811737C105.945526 132.251266,106.260468 131.491119,106.260468 130.698425Z" style="fill: rgb(100.000000%,100.000000%,100.000000%);stroke: none;"></path>
  <path d="M99.235535 150.424133C99.235535 149.631439,98.920593 148.871292,98.360107 148.310822C97.799637 147.750336,97.039490 147.435394,96.246796 147.435394C95.454102 147.435394,94.693954 147.750336,94.133484 148.310822C93.572998 148.871292,93.258057 149.631439,93.258057 150.424133C93.258057 151.216827,93.572998 151.976974,94.133484 152.537445C94.693954 153.097931,95.454102 153.412872,96.246796 153.412872C97.039490 153.412872,97.799637 153.097931,98.360107 152.537445C98.920593 151.976974,99.235535 151.216827,99.235535 150.424133Z" style="fill: rgb(100.000000%,100.000000%,100.000000%);stroke: none;"></path>
  <path d="M118.068085 112.407562C118.068085 111.614868,117.753143 110.854721,117.192657 110.294250C116.632187 109.733765,115.872040 109.418823,115.079346 109.418823C114.286652 109.418823,113.526505 109.733765,112.966034 110.294250C112.405548 110.854721,112.090607 111.614868,112.090607 112.407562C112.090607 113.200256,112.405548 113.960403,112.966034 114.520874C113.526505 115.081360,114.286652 115.396301,115.079346 115.396301C115.872040 115.396301,116.632187 115.081360,117.192657 114.520874C117.753143 113.960403,118.068085 113.200256,118.068085 112.407562Z" style="fill: rgb(100.000000%,100.000000%,100.000000%);stroke: none;"></path>
  <path d="M111.531693 124.182053C111.531693 123.389359,111.216751 122.629211,110.656265 122.068741C110.095795 121.508255,109.335648 121.193314,108.542953 121.193314C107.750259 121.193314,106.990112 121.508255,106.429642 122.068741C105.869156 122.629211,105.554214 123.389359,105.554214 124.182053C105.554214 124.974747,105.869156 125.734894,106.429642 126.295364C106.990112 126.855850,107.750259 127.170792,108.542953 127.170792C109.335648 127.170792,110.095795 126.855850,110.656265 126.295364C111.216751 125.734894,111.531693 124.974747,111.531693 124.182053Z" style="fill: rgb(100.000000%,100.000000%,100.000000%);stroke: none;"></path>
  <path d="M120.255142 103.317719C122.953476 99.700592,125.874054 96.254700,129.000000 93.000000C131.427567 90.472443,134.036774 87.697754,133.649277 84.243393C133.318741 81.296875,130.857971 79.266541,129.000000 76.981155C127.407120 75.021820,125.569382 72.816940,123.337936 73.652298C121.231415 74.440887,121.175583 77.110382,121.036804 79.446274C120.877167 82.133392,120.061050 84.896515,121.119888 87.391937C122.435349 90.492126,125.868423 91.738220,129.000000 93.000000C134.176712 95.085815,139.029373 97.870804,143.735077 100.868546C153.008377 106.776047,162.019516 114.038925,164.613419 124.694382C168.743027 141.658249,155.917557 156.696198,141.135269 167.199631C125.629715 178.216980,106.163528 185.447266,91.242065 175.000443C81.021011 167.844467,77.036346 153.339615,64.935989 149.337936C53.367737 145.512238,41.774460 153.912430,29.837219 152.989777C15.414612 151.875015,5.065872 139.113403,3.884415 124.319992C2.663910 109.037827,11.211761 94.435059,25.681885 90.090958C38.426758 86.264786,51.584839 92.265045,64.770996 92.105774C72.686646 92.010162,80.401825 89.672592,88.311111 89.397171C92.113052 89.264771,96.341415 89.239807,98.345505 86.075882C100.157272 83.215576,98.821518 79.706177,97.883636 76.437012C96.105392 70.238617,96.218246 63.712906,95.554214 57.308075C94.374207 45.926559,90.824921 34.254822,95.138382 23.579559C100.940842 9.219193,117.381317 2.746155,132.651642 6.981110C147.310608 11.046509,157.875031 24.227524,156.003464 38.985123C154.662659 49.557495,146.905014 57.623901,139.475327 65.247360C135.812531 69.005676,132.170151 72.797211,129.000000 76.981155C128.039902 78.248291,127.047195 79.595856,125.520905 80.049789C124.034210 80.491943,122.502335 79.945267,121.036804 79.446274C117.590118 78.272720,114.046219 77.383011,110.423386 77.011246C106.257782 76.583786,102.050659 76.849350,97.883636 76.437012C93.997131 76.052429,89.660080 75.469620,87.338181 78.510986C84.972000 81.610352,86.771286 85.710236,88.311111 89.397171C90.658951 95.018799,91.847610 101.207626,95.570160 106.057205C99.746582 111.498062,106.259308 114.265549,112.535034 116.990814C118.694351 119.665512,124.812744 122.453796,131.165833 124.632217C142.214661 128.420761,154.370850 130.202499,164.613419 124.694382C180.022522 116.407898,183.655472 97.196030,182.411758 79.210556C181.118454 60.507980,173.367630 41.486679,156.003464 38.985123C144.850372 37.378357,133.975998 44.877289,122.955765 42.183868C111.836685 39.466278,105.717300 27.680542,95.138382 23.579559C77.956802 16.919006,61.858566 30.926178,48.059372 44.164200C34.337875 57.327698,19.765717 72.750031,25.681885 90.090958C29.683594 101.820404,43.301239 109.025833,43.679871 121.746887C44.032639 133.598953,32.368652 141.653687,29.837219 152.989777C26.699615 167.040421,36.795074 180.128754,50.788483 185.508453C65.596573 191.201355,82.721268 187.920914,91.242065 175.000443C98.296326 164.303741,96.246796 150.424133,100.507553 138.460114C103.271729 130.698425,108.542953 124.182053,112.535034 116.990814C115.079346 112.407562,117.117706 107.523468,120.255142 103.317719" style="stroke:rgb(0.000000%,0.000000%,0.000000%); stroke-width: 0.498138;stroke-linecap: round;stroke-linejoin: round;stroke-miterlimit: 10.000000;fill: none;"></path>
  <path d="M120.255142 103.317719C122.953476 99.700592,125.874054 96.254700,129.000000 93.000000" style="stroke:rgb(0.000000%,0.000000%,0.000000%); stroke-width: 1.494400;stroke-linecap: round;stroke-linejoin: round;stroke-miterlimit: 10.000000;fill: none;"></path>
  <path d="M112.535034 116.990814C115.079346 112.407562,117.117706 107.523468,120.255142 103.317719" style="stroke:rgb(0.000000%,0.000000%,0.000000%); stroke-width: 1.494400;stroke-linecap: round;stroke-linejoin: round;stroke-miterlimit: 10.000000;fill: none;"></path>
  <path d="M131.988739 93.000000C131.988739 92.207306,131.673798 91.447159,131.113312 90.886688C130.552841 90.326202,129.792694 90.011261,129.000000 90.011261C128.207306 90.011261,127.447159 90.326202,126.886688 90.886688C126.326202 91.447159,126.011261 92.207306,126.011261 93.000000C126.011261 93.792694,126.326202 94.552841,126.886688 95.113312C127.447159 95.673798,128.207306 95.988739,129.000000 95.988739C129.792694 95.988739,130.552841 95.673798,131.113312 95.113312C131.673798 94.552841,131.988739 93.792694,131.988739 93.000000Z" style="fill: rgb(100.000000%,100.000000%,100.000000%);stroke: none;"></path>
  <path d="M124.378906 90.885376C125.793060 91.742142,127.434219 92.369110,129.000000 93.000000C131.588364 94.042908,134.095703 95.260620,136.544174 96.592316" style="stroke:rgb(0.000000%,0.000000%,0.000000%); stroke-width: 0.498138;stroke-linecap: round;stroke-linejoin: round;stroke-miterlimit: 10.000000;fill: none;"></path>
  <path d="M124.025543 79.446274C124.025543 78.653580,123.710602 77.893433,123.150116 77.332962C122.589645 76.772476,121.829498 76.457535,121.036804 76.457535C120.244110 76.457535,119.483963 76.772476,118.923492 77.332962C118.363007 77.893433,118.048065 78.653580,118.048065 79.446274C118.048065 80.238968,118.363007 80.999115,118.923492 81.559586C119.483963 82.120071,120.244110 82.435013,121.036804 82.435013C121.829498 82.435013,122.589645 82.120071,123.150116 81.559586C123.710602 80.999115,124.025543 80.238968,124.025543 79.446274Z" style="fill: rgb(100.000000%,100.000000%,100.000000%);stroke: none;"></path>
  <path d="M123.270905 80.100952C122.518906 79.957184,121.769562 79.695770,121.036804 79.446274C119.313461 78.859497,117.565811 78.343674,115.796143 77.928085" style="stroke:rgb(0.000000%,0.000000%,0.000000%); stroke-width: 0.498138;stroke-linecap: round;stroke-linejoin: round;stroke-miterlimit: 10.000000;fill: none;"></path>
  <path d="M167.602158 124.694382C167.602158 123.901688,167.287216 123.141541,166.726730 122.581070C166.166260 122.020584,165.406113 121.705643,164.613419 121.705643C163.820724 121.705643,163.060577 122.020584,162.500107 122.581070C161.939621 123.141541,161.624680 123.901688,161.624680 124.694382C161.624680 125.487076,161.939621 126.247223,162.500107 126.807693C163.060577 127.368179,163.820724 127.683121,164.613419 127.683121C165.406113 127.683121,166.166260 127.368179,166.726730 126.807693C167.287216 126.247223,167.602158 125.487076,167.602158 124.694382Z" style="fill: rgb(100.000000%,100.000000%,100.000000%);stroke: none;"></path>
  <path d="M156.679031 111.000992C160.415207 114.887070,163.316467 119.366653,164.613419 124.694382C166.678223 133.176315,164.504257 141.176773,159.966293 148.369675" style="stroke:rgb(0.000000%,0.000000%,0.000000%); stroke-width: 0.498138;stroke-linecap: round;stroke-linejoin: round;stroke-miterlimit: 10.000000;fill: none;"></path>
  <path d="M32.825958 152.989777C32.825958 152.197083,32.511017 151.436935,31.950531 150.876465C31.390060 150.315979,30.629913 150.001038,29.837219 150.001038C29.044525 150.001038,28.284378 150.315979,27.723907 150.876465C27.163422 151.436935,26.848480 152.197083,26.848480 152.989777C26.848480 153.782471,27.163422 154.542618,27.723907 155.103088C28.284378 155.663574,29.044525 155.978516,29.837219 155.978516C30.629913 155.978516,31.390060 155.663574,31.950531 155.103088C32.511017 154.542618,32.825958 153.782471,32.825958 152.989777Z" style="fill: rgb(100.000000%,100.000000%,100.000000%);stroke: none;"></path>
  <path d="M47.524963 150.075226C41.688461 151.581726,35.805832 153.451096,29.837219 152.989777C22.625916 152.432388,16.433075 148.963287,11.895370 143.784363" style="stroke:rgb(0.000000%,0.000000%,0.000000%); stroke-width: 0.498138;stroke-linecap: round;stroke-linejoin: round;stroke-miterlimit: 10.000000;fill: none;"></path>
  <path d="M91.299850 89.397171C91.299850 88.604477,90.984909 87.844330,90.424423 87.283859C89.863953 86.723373,89.103806 86.408432,88.311111 86.408432C87.518417 86.408432,86.758270 86.723373,86.197800 87.283859C85.637314 87.844330,85.322372 88.604477,85.322372 89.397171C85.322372 90.189865,85.637314 90.950012,86.197800 91.510483C86.758270 92.070969,87.518417 92.385910,88.311111 92.385910C89.103806 92.385910,89.863953 92.070969,90.424423 91.510483C90.984909 90.950012,91.299850 90.189865,91.299850 89.397171Z" style="fill: rgb(100.000000%,100.000000%,100.000000%);stroke: none;"></path>
  <path d="M76.543457 90.818893C80.450363 90.188126,84.356476 89.534882,88.311111 89.397171C90.212082 89.330963,92.219666 89.291626,94.002518 88.873337" style="stroke:rgb(0.000000%,0.000000%,0.000000%); stroke-width: 0.498138;stroke-linecap: round;stroke-linejoin: round;stroke-miterlimit: 10.000000;fill: none;"></path>
  <path d="M98.127121 23.579559C98.127121 22.786865,97.812180 22.026718,97.251694 21.466248C96.691223 20.905762,95.931076 20.590820,95.138382 20.590820C94.345688 20.590820,93.585541 20.905762,93.025070 21.466248C92.464584 22.026718,92.149643 22.786865,92.149643 23.579559C92.149643 24.372253,92.464584 25.132401,93.025070 25.692871C93.585541 26.253357,94.345688 26.568298,95.138382 26.568298C95.931076 26.568298,96.691223 26.253357,97.251694 25.692871C97.812180 25.132401,98.127121 24.372253,98.127121 23.579559Z" style="fill: rgb(100.000000%,100.000000%,100.000000%);stroke: none;"></path>
  <path d="M93.286240 40.178955C92.790619 34.503937,92.981659 28.917191,95.138382 23.579559C98.039612 16.399368,103.600357 11.191010,110.344574 8.307068" style="stroke:rgb(0.000000%,0.000000%,0.000000%); stroke-width: 0.498138;stroke-linecap: round;stroke-linejoin: round;stroke-miterlimit: 10.000000;fill: none;"></path>
  <path d="M131.988739 76.981155C131.988739 76.188461,131.673798 75.428314,131.113312 74.867844C130.552841 74.307358,129.792694 73.992416,129.000000 73.992416C128.207306 73.992416,127.447159 74.307358,126.886688 74.867844C126.326202 75.428314,126.011261 76.188461,126.011261 76.981155C126.011261 77.773849,126.326202 78.533997,126.886688 79.094467C127.447159 79.654953,128.207306 79.969894,129.000000 79.969894C129.792694 79.969894,130.552841 79.654953,131.113312 79.094467C131.673798 78.533997,131.988739 77.773849,131.988739 76.981155Z" style="fill: rgb(100.000000%,100.000000%,100.000000%);stroke: none;"></path>
  <path d="M131.897415 80.364334C131.008667 79.202774,129.928986 78.123840,129.000000 76.981155C128.203552 76.001480,127.345901 74.960419,126.408417 74.268707" style="stroke:rgb(0.000000%,0.000000%,0.000000%); stroke-width: 0.498138;stroke-linecap: round;stroke-linejoin: round;stroke-miterlimit: 10.000000;fill: none;"></path>
  <path d="M100.872375 76.437012C100.872375 75.644318,100.557434 74.884171,99.996948 74.323700C99.436478 73.763214,98.676331 73.448273,97.883636 73.448273C97.090942 73.448273,96.330795 73.763214,95.770325 74.323700C95.209839 74.884171,94.894897 75.644318,94.894897 76.437012C94.894897 77.229706,95.209839 77.989853,95.770325 78.550323C96.330795 79.110809,97.090942 79.425751,97.883636 79.425751C98.676331 79.425751,99.436478 79.110809,99.996948 78.550323C100.557434 77.989853,100.872375 77.229706,100.872375 76.437012Z" style="fill: rgb(100.000000%,100.000000%,100.000000%);stroke: none;"></path>
  <path d="M104.154037 76.718445C102.060684 76.679871,99.967148 76.643173,97.883636 76.437012C95.940384 76.244720,93.884491 76.002869,92.024170 76.189270" style="stroke:rgb(0.000000%,0.000000%,0.000000%); stroke-width: 0.498138;stroke-linecap: round;stroke-linejoin: round;stroke-miterlimit: 10.000000;fill: none;"></path>
  <path d="M115.523773 116.990814C115.523773 116.198120,115.208832 115.437973,114.648346 114.877502C114.087875 114.317017,113.327728 114.002075,112.535034 114.002075C111.742340 114.002075,110.982193 114.317017,110.421722 114.877502C109.861237 115.437973,109.546295 116.198120,109.546295 116.990814C109.546295 117.783508,109.861237 118.543655,110.421722 119.104126C110.982193 119.664612,111.742340 119.979553,112.535034 119.979553C113.327728 119.979553,114.087875 119.664612,114.648346 119.104126C115.208832 118.543655,115.523773 117.783508,115.523773 116.990814Z" style="fill: rgb(100.000000%,100.000000%,100.000000%);stroke: none;"></path>
  <path d="M103.265366 112.542374C106.200058 114.255005,109.397171 115.628189,112.535034 116.990814C115.614700 118.328171,118.684128 119.693924,121.777786 120.997635" style="stroke:rgb(0.000000%,0.000000%,0.000000%); stroke-width: 0.498138;stroke-linecap: round;stroke-linejoin: round;stroke-miterlimit: 10.000000;fill: none;"></path>
  <path d="M158.992203 38.985123C158.992203 38.192429,158.677261 37.432281,158.116776 36.871811C157.556305 36.311325,156.796158 35.996384,156.003464 35.996384C155.210770 35.996384,154.450623 36.311325,153.890152 36.871811C153.329666 37.432281,153.014725 38.192429,153.014725 38.985123C153.014725 39.777817,153.329666 40.537964,153.890152 41.098434C154.450623 41.658920,155.210770 41.973862,156.003464 41.973862C156.796158 41.973862,157.556305 41.658920,158.116776 41.098434C158.677261 40.537964,158.992203 39.777817,158.992203 38.985123Z" style="fill: rgb(100.000000%,100.000000%,100.000000%);stroke: none;"></path>
  <path d="M175.234177 53.022446C170.964294 45.616608,164.685547 40.235901,156.003464 38.985123C150.426910 38.181732,144.920044 39.654785,139.429779 40.992004" style="stroke:rgb(0.000000%,0.000000%,0.000000%); stroke-width: 0.498138;stroke-linecap: round;stroke-linejoin: round;stroke-miterlimit: 10.000000;fill: none;"></path>
  <path d="M28.670624 90.090958C28.670624 89.298264,28.355682 88.538116,27.795197 87.977646C27.234726 87.417160,26.474579 87.102219,25.681885 87.102219C24.889191 87.102219,24.129044 87.417160,23.568573 87.977646C23.008087 88.538116,22.693146 89.298264,22.693146 90.090958C22.693146 90.883652,23.008087 91.643799,23.568573 92.204269C24.129044 92.764755,24.889191 93.079697,25.681885 93.079697C26.474579 93.079697,27.234726 92.764755,27.795197 92.204269C28.355682 91.643799,28.670624 90.883652,28.670624 90.090958Z" style="fill: rgb(100.000000%,100.000000%,100.000000%);stroke: none;"></path>
  <path d="M29.506485 65.561050C24.887787 73.229691,22.723801 81.420502,25.681885 90.090958C27.682739 95.955688,32.087585 100.689407,36.039536 105.547089" style="stroke:rgb(0.000000%,0.000000%,0.000000%); stroke-width: 0.498138;stroke-linecap: round;stroke-linejoin: round;stroke-miterlimit: 10.000000;fill: none;"></path>
  <path d="M94.230804 175.000443C94.230804 174.207748,93.915863 173.447601,93.355377 172.887131C92.794907 172.326645,92.034760 172.011703,91.242065 172.011703C90.449371 172.011703,89.689224 172.326645,89.128754 172.887131C88.568268 173.447601,88.253326 174.207748,88.253326 175.000443C88.253326 175.793137,88.568268 176.553284,89.128754 177.113754C89.689224 177.674240,90.449371 177.989182,91.242065 177.989182C92.034760 177.989182,92.794907 177.674240,93.355377 177.113754C93.915863 176.553284,94.230804 175.793137,94.230804 175.000443Z" style="fill: rgb(100.000000%,100.000000%,100.000000%);stroke: none;"></path>
  <path d="M73.373016 187.234451C80.570297 185.510895,86.981674 181.460678,91.242065 175.000443C94.769196 169.652084,96.020386 163.508011,96.922379 157.205521" style="stroke:rgb(0.000000%,0.000000%,0.000000%); stroke-width: 0.498138;stroke-linecap: round;stroke-linejoin: round;stroke-miterlimit: 10.000000;fill: none;"></path>
  <path d="M123.337936 73.652298C121.652710 74.283173,121.279938 76.117828,121.127197 78.022430" style="stroke:rgb(0.000000%,0.000000%,0.000000%); stroke-width: 0.498138;stroke-linecap: round;stroke-linejoin: round;stroke-miterlimit: 10.000000;fill: none;"></path>
  <path d="M120.609085 75.067505C120.542404 75.985474,120.798920 77.007004,121.127197 78.022430C121.613098 77.072311,122.154068 76.168610,122.850327 75.566650Z" style="stroke:rgb(0.000000%,0.000000%,0.000000%); stroke-width: 0.498138;fill: rgb(0.000000%,0.000000%,0.000000%);"></path>
  <path d="M143.735077 100.868546C151.153748 105.594559,158.404633 111.188019,162.336304 118.692001" style="stroke:rgb(0.000000%,0.000000%,0.000000%); stroke-width: 0.498138;stroke-linecap: round;stroke-linejoin: round;stroke-miterlimit: 10.000000;fill: none;"></path>
  <path d="M159.936966 116.891342C160.766602 117.451553,161.567749 118.050598,162.336304 118.692001C162.246429 117.695007,162.103516 116.704910,161.913040 115.722153Z" style="stroke:rgb(0.000000%,0.000000%,0.000000%); stroke-width: 0.498138;fill: rgb(0.000000%,0.000000%,0.000000%);"></path>
  <path d="M3.884415 124.319992C2.908005 112.094208,8.183395 100.303238,17.741348 93.851746" style="stroke:rgb(0.000000%,0.000000%,0.000000%); stroke-width: 0.498138;stroke-linecap: round;stroke-linejoin: round;stroke-miterlimit: 10.000000;fill: none;"></path>
  <path d="M16.216156 96.435410C16.679092 95.551544,17.187485 94.689163,17.741348 93.851746C16.757553 94.052231,15.788284 94.302521,14.835938 94.600143Z" style="stroke:rgb(0.000000%,0.000000%,0.000000%); stroke-width: 0.498138;fill: rgb(0.000000%,0.000000%,0.000000%);"></path>
  <path d="M98.345505 86.075882C99.794922 83.787628,99.229919 81.083954,98.465744 78.420197" style="stroke:rgb(0.000000%,0.000000%,0.000000%); stroke-width: 0.498138;stroke-linecap: round;stroke-linejoin: round;stroke-miterlimit: 10.000000;fill: none;"></path>
  <path d="M100.204483 80.864929C99.708466 80.025803,99.098450 79.215393,98.465744 78.420197C98.350830 79.429871,98.209106 80.434250,97.966476 81.378357Z" style="stroke:rgb(0.000000%,0.000000%,0.000000%); stroke-width: 0.498138;fill: rgb(0.000000%,0.000000%,0.000000%);"></path>
  <path d="M95.554214 57.308075C94.610199 48.202835,92.149841 38.911835,93.411987 30.093903" style="stroke:rgb(0.000000%,0.000000%,0.000000%); stroke-width: 0.498138;stroke-linecap: round;stroke-linejoin: round;stroke-miterlimit: 10.000000;fill: none;"></path>
  <path d="M94.285141 32.964050C93.953293 32.018448,93.659851 31.062408,93.411987 30.093903C92.902405 30.953979,92.433853 31.837509,91.999863 32.740784Z" style="stroke:rgb(0.000000%,0.000000%,0.000000%); stroke-width: 0.498138;fill: rgb(0.000000%,0.000000%,0.000000%);"></path>
  <path d="M87.338181 78.510986C85.445236 80.990494,86.218201 84.110336,87.391495 87.146805" style="stroke:rgb(0.000000%,0.000000%,0.000000%); stroke-width: 0.498138;stroke-linecap: round;stroke-linejoin: round;stroke-miterlimit: 10.000000;fill: none;"></path>
  <path d="M85.452515 84.857681C86.017029 85.647400,86.687653 86.408401,87.391495 87.146805C87.415955 86.126999,87.479858 85.114685,87.639130 84.157089Z" style="stroke:rgb(0.000000%,0.000000%,0.000000%); stroke-width: 0.498138;fill: rgb(0.000000%,0.000000%,0.000000%);"></path>
  <path d="M95.570160 106.057205C98.911316 110.409912,103.747711 113.051651,108.761810 115.329559" style="stroke:rgb(0.000000%,0.000000%,0.000000%); stroke-width: 0.498138;stroke-linecap: round;stroke-linejoin: round;stroke-miterlimit: 10.000000;fill: none;"></path>
  <path d="M105.765656 115.177673C106.760727 115.248657,107.760864 115.295807,108.761810 115.329559C108.077911 114.597900,107.404068 113.857361,106.750641 113.103516Z" style="stroke:rgb(0.000000%,0.000000%,0.000000%); stroke-width: 0.498138;fill: rgb(0.000000%,0.000000%,0.000000%);"></path>
  <path d="M122.955765 42.183868C114.060471 40.009781,108.365005 32.032059,101.026184 26.828247" style="stroke:rgb(0.000000%,0.000000%,0.000000%); stroke-width: 0.498138;stroke-linecap: round;stroke-linejoin: round;stroke-miterlimit: 10.000000;fill: none;"></path>
  <path d="M103.926117 27.596863C102.964005 27.310349,101.997894 27.049713,101.026184 26.828247C101.556671 27.671967,102.055496 28.539413,102.533203 29.422333Z" style="stroke:rgb(0.000000%,0.000000%,0.000000%); stroke-width: 0.498138;fill: rgb(0.000000%,0.000000%,0.000000%);"></path>
  <path d="M43.679871 121.746887C43.962082 131.228577,36.553528 138.279953,32.282730 146.525360" style="stroke:rgb(0.000000%,0.000000%,0.000000%); stroke-width: 0.498138;stroke-linecap: round;stroke-linejoin: round;stroke-miterlimit: 10.000000;fill: none;"></path>
  <path d="M32.638702 143.546402C32.490799 144.539856,32.367462 145.533173,32.282730 146.525360C33.044250 145.883698,33.833847 145.268555,34.640900 144.670670Z" style="stroke:rgb(0.000000%,0.000000%,0.000000%); stroke-width: 0.498138;fill: rgb(0.000000%,0.000000%,0.000000%);"></path>
  <path d="M100.507553 138.460114C102.718903 132.250732,106.534775 126.838364,110.016617 121.239868" style="stroke:rgb(0.000000%,0.000000%,0.000000%); stroke-width: 0.498138;stroke-linecap: round;stroke-linejoin: round;stroke-miterlimit: 10.000000;fill: none;"></path>
  <path d="M109.509247 124.196594C109.682068 123.211639,109.853699 122.226257,110.016617 121.239868C109.203918 121.822144,108.385773 122.397522,107.567108 122.971771Z" style="stroke:rgb(0.000000%,0.000000%,0.000000%); stroke-width: 0.498138;fill: rgb(0.000000%,0.000000%,0.000000%);"></path>
  <path d="M117.264496 106.027924L123.245789 106.027924L123.245789 98.607529L117.264496 98.607529Z" style="fill: rgb(100.000000%,100.000000%,100.000000%);stroke: none;"></path>
  <path d="M117.264496 108.027924L123.245789 108.027924L123.245789 100.607529L117.264496 100.607529Z" style="fill: rgb(100.000000%,100.000000%,100.000000%);stroke: none;"></path>
  <g transform="translate(117.764496 106.527924)" style="fill: rgb(0.000000%,0.000000%,0.000000%);">
    <use xlink:href="#GLYPHcmr10_49"></use>
  </g>
  <path d="M130.658630 86.953598L136.639923 86.953598L136.639923 79.533203L130.658630 79.533203Z" style="fill: rgb(100.000000%,100.000000%,100.000000%);stroke: none;"></path>
  <path d="M130.658630 88.953598L136.639923 88.953598L136.639923 81.533203L130.658630 81.533203Z" style="fill: rgb(100.000000%,100.000000%,100.000000%);stroke: none;"></path>
  <g transform="translate(131.158630 87.453598)" style="fill: rgb(0.000000%,0.000000%,0.000000%);">
    <use xlink:href="#GLYPHcmr10_50"></use>
  </g>
  <path d="M138.144623 169.909836L144.125916 169.909836L144.125916 162.489441L138.144623 162.489441Z" style="fill: rgb(100.000000%,100.000000%,100.000000%);stroke: none;"></path>
  <path d="M138.144623 171.909836L144.125916 171.909836L144.125916 164.489441L138.144623 164.489441Z" style="fill: rgb(100.000000%,100.000000%,100.000000%);stroke: none;"></path>
  <g transform="translate(138.644623 170.409836)" style="fill: rgb(0.000000%,0.000000%,0.000000%);">
    <use xlink:href="#GLYPHcmr10_51"></use>
  </g>
  <path d="M61.945343 152.048141L67.926636 152.048141L67.926636 144.627747L61.945343 144.627747Z" style="fill: rgb(100.000000%,100.000000%,100.000000%);stroke: none;"></path>
  <path d="M61.945343 154.048141L67.926636 154.048141L67.926636 146.627747L61.945343 146.627747Z" style="fill: rgb(100.000000%,100.000000%,100.000000%);stroke: none;"></path>
  <g transform="translate(62.445343 152.548141)" style="fill: rgb(0.000000%,0.000000%,0.000000%);">
    <use xlink:href="#GLYPHcmr10_52"></use>
  </g>
  <path d="M61.780350 94.815979L67.761642 94.815979L67.761642 87.395584L61.780350 87.395584Z" style="fill: rgb(100.000000%,100.000000%,100.000000%);stroke: none;"></path>
  <path d="M61.780350 96.815979L67.761642 96.815979L67.761642 89.395584L61.780350 89.395584Z" style="fill: rgb(100.000000%,100.000000%,100.000000%);stroke: none;"></path>
  <g transform="translate(62.280350 95.315979)" style="fill: rgb(0.000000%,0.000000%,0.000000%);">
    <use xlink:href="#GLYPHcmr10_53"></use>
  </g>
  <path d="M129.660995 9.691315L135.642288 9.691315L135.642288 2.270920L129.660995 2.270920Z" style="fill: rgb(100.000000%,100.000000%,100.000000%);stroke: none;"></path>
  <path d="M129.660995 11.691315L135.642288 11.691315L135.642288 4.270920L129.660995 4.270920Z" style="fill: rgb(100.000000%,100.000000%,100.000000%);stroke: none;"></path>
  <g transform="translate(130.160995 10.191315)" style="fill: rgb(0.000000%,0.000000%,0.000000%);">
    <use xlink:href="#GLYPHcmr10_54"></use>
  </g>
  <path d="M136.484680 67.957565L142.465973 67.957565L142.465973 60.537170L136.484680 60.537170Z" style="fill: rgb(100.000000%,100.000000%,100.000000%);stroke: none;"></path>
  <path d="M136.484680 69.957565L142.465973 69.957565L142.465973 62.537170L136.484680 62.537170Z" style="fill: rgb(100.000000%,100.000000%,100.000000%);stroke: none;"></path>
  <g transform="translate(136.984680 68.457565)" style="fill: rgb(0.000000%,0.000000%,0.000000%);">
    <use xlink:href="#GLYPHcmr10_55"></use>
  </g>
  <path d="M107.432739 79.721451L113.414032 79.721451L113.414032 72.301056L107.432739 72.301056Z" style="fill: rgb(100.000000%,100.000000%,100.000000%);stroke: none;"></path>
  <path d="M107.432739 81.721451L113.414032 81.721451L113.414032 74.301056L107.432739 74.301056Z" style="fill: rgb(100.000000%,100.000000%,100.000000%);stroke: none;"></path>
  <g transform="translate(107.932739 80.221451)" style="fill: rgb(0.000000%,0.000000%,0.000000%);">
    <use xlink:href="#GLYPHcmr10_56"></use>
  </g>
  <path d="M128.175186 127.342422L134.156479 127.342422L134.156479 119.922028L128.175186 119.922028Z" style="fill: rgb(100.000000%,100.000000%,100.000000%);stroke: none;"></path>
  <path d="M128.175186 129.342422L134.156479 129.342422L134.156479 121.922028L128.175186 121.922028Z" style="fill: rgb(100.000000%,100.000000%,100.000000%);stroke: none;"></path>
  <g transform="translate(128.675186 127.842422)" style="fill: rgb(0.000000%,0.000000%,0.000000%);">
    <use xlink:href="#GLYPHcmr10_57"></use>
  </g>
  <path d="M176.930405 81.920761L187.893112 81.920761L187.893112 74.500366L176.930405 74.500366Z" style="fill: rgb(100.000000%,100.000000%,100.000000%);stroke: none;"></path>
  <path d="M176.930405 83.920761L187.893112 83.920761L187.893112 76.500366L176.930405 76.500366Z" style="fill: rgb(100.000000%,100.000000%,100.000000%);stroke: none;"></path>
  <g transform="translate(177.430405 82.420761)" style="fill: rgb(0.000000%,0.000000%,0.000000%);">
    <use xlink:href="#GLYPHcmr10_49"></use>
    <use xlink:href="#GLYPHcmr10_48" x="5.000095"></use>
  </g>
  <path d="M42.578018 46.874405L53.540726 46.874405L53.540726 39.454010L42.578018 39.454010Z" style="fill: rgb(100.000000%,100.000000%,100.000000%);stroke: none;"></path>
  <path d="M42.578018 48.874405L53.540726 48.874405L53.540726 41.454010L42.578018 41.454010Z" style="fill: rgb(100.000000%,100.000000%,100.000000%);stroke: none;"></path>
  <g transform="translate(43.078018 47.374405)" style="fill: rgb(0.000000%,0.000000%,0.000000%);">
    <use xlink:href="#GLYPHcmr10_49"></use>
    <use xlink:href="#GLYPHcmr10_49" x="5.000095"></use>
  </g>
  <path d="M45.307129 188.218658L56.269836 188.218658L56.269836 180.798264L45.307129 180.798264Z" style="fill: rgb(100.000000%,100.000000%,100.000000%);stroke: none;"></path>
  <path d="M45.307129 190.218658L56.269836 190.218658L56.269836 182.798264L45.307129 182.798264Z" style="fill: rgb(100.000000%,100.000000%,100.000000%);stroke: none;"></path>
  <g transform="translate(45.807129 188.718658)" style="fill: rgb(0.000000%,0.000000%,0.000000%);">
    <use xlink:href="#GLYPHcmr10_49"></use>
    <use xlink:href="#GLYPHcmr10_50" x="5.000095"></use>
  </g>
</svg>
