<?xml version="1.0"?>
<!-- Created by MetaPost 1.999 on 2021.07.06:0001 -->
<svg version="1.1" xmlns="http://www.w3.org/2000/svg" xmlns:xlink="http://www.w3.org/1999/xlink" width="192.651779" height="202.591263" viewBox="0 0 192.651779 202.591263">
<!-- Original BoundingBox: -70.833557 -124.178162 121.818222 78.413101 -->
  <defs>
    <g transform="scale(0.009963,0.009963)" id="GLYPHcmr10_48">
      <path style="fill-rule: evenodd;" d="M460.000000 -320.000000C460.000000 -400.000000,455.000000 -480.000000,420.000000 -554.000000C374.000000 -650.000000,292.000000 -666.000000,250.000000 -666.000000C190.000000 -666.000000,117.000000 -640.000000,76.000000 -547.000000C44.000000 -478.000000,39.000000 -400.000000,39.000000 -320.000000C39.000000 -245.000000,43.000000 -155.000000,84.000000 -79.000000C127.000000 2.000000,200.000000 22.000000,249.000000 22.000000C303.000000 22.000000,379.000000 1.000000,423.000000 -94.000000C455.000000 -163.000000,460.000000 -241.000000,460.000000 -320.000000M249.000000 -0.000000C210.000000 -0.000000,151.000000 -25.000000,133.000000 -121.000000C122.000000 -181.000000,122.000000 -273.000000,122.000000 -332.000000C122.000000 -396.000000,122.000000 -462.000000,130.000000 -516.000000C149.000000 -635.000000,224.000000 -644.000000,249.000000 -644.000000C282.000000 -644.000000,348.000000 -626.000000,367.000000 -527.000000C377.000000 -471.000000,377.000000 -395.000000,377.000000 -332.000000C377.000000 -257.000000,377.000000 -189.000000,366.000000 -125.000000C351.000000 -30.000000,294.000000 -0.000000,249.000000 -0.000000"></path>
    </g>
    <g transform="scale(0.009963,0.009963)" id="GLYPHcmr10_49">
      <path style="fill-rule: evenodd;" d="M294.000000 -640.000000C294.000000 -664.000000,294.000000 -666.000000,271.000000 -666.000000C209.000000 -602.000000,121.000000 -602.000000,89.000000 -602.000000L89.000000 -571.000000C109.000000 -571.000000,168.000000 -571.000000,220.000000 -597.000000L220.000000 -79.000000C220.000000 -43.000000,217.000000 -31.000000,127.000000 -31.000000L95.000000 -31.000000L95.000000 -0.000000L257.000000 -0.000000L130.000000 -3.000000L217.000000 -3.000000L257.000000 -3.000000L297.000000 -3.000000L384.000000 -3.000000L419.000000 -0.000000L419.000000 -31.000000L387.000000 -31.000000C297.000000 -31.000000,294.000000 -42.000000,294.000000 -79.000000"></path>
    </g>
    <g transform="scale(0.009963,0.009963)" id="GLYPHcmr10_50">
      <path style="fill-rule: evenodd;" d="M127.000000 -77.000000L233.000000 -180.000000C389.000000 -318.000000,449.000000 -372.000000,449.000000 -472.000000C449.000000 -586.000000,359.000000 -666.000000,237.000000 -666.000000C124.000000 -666.000000,50.000000 -574.000000,50.000000 -485.000000C50.000000 -429.000000,100.000000 -429.000000,103.000000 -429.000000C120.000000 -429.000000,155.000000 -441.000000,155.000000 -482.000000C155.000000 -508.000000,137.000000 -534.000000,102.000000 -534.000000C94.000000 -534.000000,92.000000 -534.000000,89.000000 -533.000000C112.000000 -598.000000,166.000000 -635.000000,224.000000 -635.000000C315.000000 -635.000000,358.000000 -554.000000,358.000000 -472.000000C358.000000 -392.000000,308.000000 -313.000000,253.000000 -251.000000L61.000000 -37.000000C50.000000 -26.000000,50.000000 -24.000000,50.000000 -0.000000L421.000000 -0.000000L449.000000 -174.000000L424.000000 -174.000000C419.000000 -144.000000,412.000000 -100.000000,402.000000 -85.000000C395.000000 -77.000000,329.000000 -77.000000,307.000000 -77.000000"></path>
    </g>
    <g transform="scale(0.009963,0.009963)" id="GLYPHcmr10_51">
      <path style="fill-rule: evenodd;" d="M290.000000 -352.000000C372.000000 -379.000000,430.000000 -449.000000,430.000000 -528.000000C430.000000 -610.000000,342.000000 -666.000000,246.000000 -666.000000C145.000000 -666.000000,69.000000 -606.000000,69.000000 -530.000000C69.000000 -497.000000,91.000000 -478.000000,120.000000 -478.000000C151.000000 -478.000000,171.000000 -500.000000,171.000000 -529.000000C171.000000 -579.000000,124.000000 -579.000000,109.000000 -579.000000C140.000000 -628.000000,206.000000 -641.000000,242.000000 -641.000000C283.000000 -641.000000,338.000000 -619.000000,338.000000 -529.000000C338.000000 -517.000000,336.000000 -459.000000,310.000000 -415.000000C280.000000 -367.000000,246.000000 -364.000000,221.000000 -363.000000C213.000000 -362.000000,189.000000 -360.000000,182.000000 -360.000000C174.000000 -359.000000,167.000000 -358.000000,167.000000 -348.000000C167.000000 -337.000000,174.000000 -337.000000,191.000000 -337.000000L235.000000 -337.000000C317.000000 -337.000000,354.000000 -269.000000,354.000000 -171.000000C354.000000 -35.000000,285.000000 -6.000000,241.000000 -6.000000C198.000000 -6.000000,123.000000 -23.000000,88.000000 -82.000000C123.000000 -77.000000,154.000000 -99.000000,154.000000 -137.000000C154.000000 -173.000000,127.000000 -193.000000,98.000000 -193.000000C74.000000 -193.000000,42.000000 -179.000000,42.000000 -135.000000C42.000000 -44.000000,135.000000 22.000000,244.000000 22.000000C366.000000 22.000000,457.000000 -69.000000,457.000000 -171.000000C457.000000 -253.000000,394.000000 -331.000000,290.000000 -352.000000"></path>
    </g>
    <g transform="scale(0.009963,0.009963)" id="GLYPHcmr10_52">
      <path style="fill-rule: evenodd;" d="M294.000000 -165.000000L294.000000 -78.000000C294.000000 -42.000000,292.000000 -31.000000,218.000000 -31.000000L197.000000 -31.000000L197.000000 -0.000000L332.000000 -0.000000L238.000000 -3.000000L290.000000 -3.000000L332.000000 -3.000000L374.000000 -3.000000L427.000000 -3.000000L468.000000 -0.000000L468.000000 -31.000000L447.000000 -31.000000C373.000000 -31.000000,371.000000 -42.000000,371.000000 -78.000000L371.000000 -165.000000L471.000000 -165.000000L471.000000 -196.000000L371.000000 -196.000000L371.000000 -651.000000C371.000000 -671.000000,371.000000 -677.000000,355.000000 -677.000000C346.000000 -677.000000,343.000000 -677.000000,335.000000 -665.000000L28.000000 -196.000000L28.000000 -165.000000M300.000000 -196.000000L56.000000 -196.000000L300.000000 -569.000000"></path>
    </g>
    <g transform="scale(0.009963,0.009963)" id="GLYPHcmr10_53">
      <path style="fill-rule: evenodd;" d="M449.000000 -201.000000C449.000000 -320.000000,367.000000 -420.000000,259.000000 -420.000000C211.000000 -420.000000,168.000000 -404.000000,132.000000 -369.000000L132.000000 -564.000000C152.000000 -558.000000,185.000000 -551.000000,217.000000 -551.000000C340.000000 -551.000000,410.000000 -642.000000,410.000000 -655.000000C410.000000 -661.000000,407.000000 -666.000000,400.000000 -666.000000C399.000000 -666.000000,397.000000 -666.000000,392.000000 -663.000000C372.000000 -654.000000,323.000000 -634.000000,256.000000 -634.000000C216.000000 -634.000000,170.000000 -641.000000,123.000000 -662.000000C115.000000 -665.000000,113.000000 -665.000000,111.000000 -665.000000C101.000000 -665.000000,101.000000 -657.000000,101.000000 -641.000000L101.000000 -345.000000C101.000000 -327.000000,101.000000 -319.000000,115.000000 -319.000000C122.000000 -319.000000,124.000000 -322.000000,128.000000 -328.000000C139.000000 -344.000000,176.000000 -398.000000,257.000000 -398.000000C309.000000 -398.000000,334.000000 -352.000000,342.000000 -334.000000C358.000000 -297.000000,360.000000 -258.000000,360.000000 -208.000000C360.000000 -173.000000,360.000000 -113.000000,336.000000 -71.000000C312.000000 -32.000000,275.000000 -6.000000,229.000000 -6.000000C156.000000 -6.000000,99.000000 -59.000000,82.000000 -118.000000C85.000000 -117.000000,88.000000 -116.000000,99.000000 -116.000000C132.000000 -116.000000,149.000000 -141.000000,149.000000 -165.000000C149.000000 -189.000000,132.000000 -214.000000,99.000000 -214.000000C85.000000 -214.000000,50.000000 -207.000000,50.000000 -161.000000C50.000000 -75.000000,119.000000 22.000000,231.000000 22.000000C347.000000 22.000000,449.000000 -74.000000,449.000000 -201.000000"></path>
    </g>
    <g transform="scale(0.009963,0.009963)" id="GLYPHcmr10_54">
      <path style="fill-rule: evenodd;" d="M132.000000 -328.000000L132.000000 -352.000000C132.000000 -605.000000,256.000000 -641.000000,307.000000 -641.000000C331.000000 -641.000000,373.000000 -635.000000,395.000000 -601.000000C380.000000 -601.000000,340.000000 -601.000000,340.000000 -556.000000C340.000000 -525.000000,364.000000 -510.000000,386.000000 -510.000000C402.000000 -510.000000,432.000000 -519.000000,432.000000 -558.000000C432.000000 -618.000000,388.000000 -666.000000,305.000000 -666.000000C177.000000 -666.000000,42.000000 -537.000000,42.000000 -316.000000C42.000000 -49.000000,158.000000 22.000000,251.000000 22.000000C362.000000 22.000000,457.000000 -72.000000,457.000000 -204.000000C457.000000 -331.000000,368.000000 -427.000000,257.000000 -427.000000C189.000000 -427.000000,152.000000 -376.000000,132.000000 -328.000000M251.000000 -6.000000C188.000000 -6.000000,158.000000 -66.000000,152.000000 -81.000000C134.000000 -128.000000,134.000000 -208.000000,134.000000 -226.000000C134.000000 -304.000000,166.000000 -404.000000,256.000000 -404.000000C272.000000 -404.000000,318.000000 -404.000000,349.000000 -342.000000C367.000000 -305.000000,367.000000 -254.000000,367.000000 -205.000000C367.000000 -157.000000,367.000000 -107.000000,350.000000 -71.000000C320.000000 -11.000000,274.000000 -6.000000,251.000000 -6.000000"></path>
    </g>
    <g transform="scale(0.009963,0.009963)" id="GLYPHcmr10_55">
      <path style="fill-rule: evenodd;" d="M476.000000 -609.000000C485.000000 -621.000000,485.000000 -623.000000,485.000000 -644.000000L242.000000 -644.000000C120.000000 -644.000000,118.000000 -657.000000,114.000000 -676.000000L89.000000 -676.000000L56.000000 -470.000000L81.000000 -470.000000C84.000000 -486.000000,93.000000 -549.000000,106.000000 -561.000000C113.000000 -567.000000,191.000000 -567.000000,204.000000 -567.000000L411.000000 -567.000000C400.000000 -551.000000,321.000000 -442.000000,299.000000 -409.000000C209.000000 -274.000000,176.000000 -135.000000,176.000000 -33.000000C176.000000 -23.000000,176.000000 22.000000,222.000000 22.000000C268.000000 22.000000,268.000000 -23.000000,268.000000 -33.000000L268.000000 -84.000000C268.000000 -139.000000,271.000000 -194.000000,279.000000 -248.000000C283.000000 -271.000000,297.000000 -357.000000,341.000000 -419.000000"></path>
    </g>
    <g transform="scale(0.009963,0.009963)" id="GLYPHcmr10_56">
      <path style="fill-rule: evenodd;" d="M163.000000 -457.000000C117.000000 -487.000000,113.000000 -521.000000,113.000000 -538.000000C113.000000 -599.000000,178.000000 -641.000000,249.000000 -641.000000C322.000000 -641.000000,386.000000 -589.000000,386.000000 -517.000000C386.000000 -460.000000,347.000000 -412.000000,287.000000 -377.000000M309.000000 -362.000000C381.000000 -399.000000,430.000000 -451.000000,430.000000 -517.000000C430.000000 -609.000000,341.000000 -666.000000,250.000000 -666.000000C150.000000 -666.000000,69.000000 -592.000000,69.000000 -499.000000C69.000000 -481.000000,71.000000 -436.000000,113.000000 -389.000000C124.000000 -377.000000,161.000000 -352.000000,186.000000 -335.000000C128.000000 -306.000000,42.000000 -250.000000,42.000000 -151.000000C42.000000 -45.000000,144.000000 22.000000,249.000000 22.000000C362.000000 22.000000,457.000000 -61.000000,457.000000 -168.000000C457.000000 -204.000000,446.000000 -249.000000,408.000000 -291.000000C389.000000 -312.000000,373.000000 -322.000000,309.000000 -362.000000M209.000000 -320.000000L332.000000 -242.000000C360.000000 -223.000000,407.000000 -193.000000,407.000000 -132.000000C407.000000 -58.000000,332.000000 -6.000000,250.000000 -6.000000C164.000000 -6.000000,92.000000 -68.000000,92.000000 -151.000000C92.000000 -209.000000,124.000000 -273.000000,209.000000 -320.000000"></path>
    </g>
    <g transform="scale(0.009963,0.009963)" id="GLYPHcmr10_57">
      <path style="fill-rule: evenodd;" d="M367.000000 -318.000000L367.000000 -286.000000C367.000000 -52.000000,263.000000 -6.000000,205.000000 -6.000000C188.000000 -6.000000,134.000000 -8.000000,107.000000 -42.000000C151.000000 -42.000000,159.000000 -71.000000,159.000000 -88.000000C159.000000 -119.000000,135.000000 -134.000000,113.000000 -134.000000C97.000000 -134.000000,67.000000 -125.000000,67.000000 -86.000000C67.000000 -19.000000,121.000000 22.000000,206.000000 22.000000C335.000000 22.000000,457.000000 -114.000000,457.000000 -329.000000C457.000000 -598.000000,342.000000 -666.000000,253.000000 -666.000000C198.000000 -666.000000,149.000000 -648.000000,106.000000 -603.000000C65.000000 -558.000000,42.000000 -516.000000,42.000000 -441.000000C42.000000 -316.000000,130.000000 -218.000000,242.000000 -218.000000C303.000000 -218.000000,344.000000 -260.000000,367.000000 -318.000000M243.000000 -241.000000C227.000000 -241.000000,181.000000 -241.000000,150.000000 -304.000000C132.000000 -341.000000,132.000000 -391.000000,132.000000 -440.000000C132.000000 -494.000000,132.000000 -541.000000,153.000000 -578.000000C180.000000 -628.000000,218.000000 -641.000000,253.000000 -641.000000C299.000000 -641.000000,332.000000 -607.000000,349.000000 -562.000000C361.000000 -530.000000,365.000000 -467.000000,365.000000 -421.000000C365.000000 -338.000000,331.000000 -241.000000,243.000000 -241.000000"></path>
    </g>
  </defs>
  <path d="M70.740219 88.890030C70.740219 88.097336,70.425278 87.337189,69.864792 86.776718C69.304321 86.216232,68.544174 85.901291,67.751480 85.901291C66.958786 85.901291,66.198639 86.216232,65.638168 86.776718C65.077682 87.337189,64.762741 88.097336,64.762741 88.890030C64.762741 89.682724,65.077682 90.442871,65.638168 91.003342C66.198639 91.563828,66.958786 91.878769,67.751480 91.878769C68.544174 91.878769,69.304321 91.563828,69.864792 91.003342C70.425278 90.442871,70.740219 89.682724,70.740219 88.890030Z" style="fill: rgb(100.000000%,100.000000%,100.000000%);stroke: none;"></path>
  <path d="M70.257233 94.428894C70.257233 93.636200,69.942291 92.876053,69.381805 92.315582C68.821335 91.755096,68.061188 91.440155,67.268494 91.440155C66.475800 91.440155,65.715652 91.755096,65.155182 92.315582C64.594696 92.876053,64.279755 93.636200,64.279755 94.428894C64.279755 95.221588,64.594696 95.981735,65.155182 96.542206C65.715652 97.102692,66.475800 97.417633,67.268494 97.417633C68.061188 97.417633,68.821335 97.102692,69.381805 96.542206C69.942291 95.981735,70.257233 95.221588,70.257233 94.428894Z" style="fill: rgb(100.000000%,100.000000%,100.000000%);stroke: none;"></path>
  <path d="M74.895340 70.293533C74.895340 69.500839,74.580399 68.740692,74.019913 68.180222C73.459442 67.619736,72.699295 67.304794,71.906601 67.304794C71.113907 67.304794,70.353760 67.619736,69.793289 68.180222C69.232803 68.740692,68.917862 69.500839,68.917862 70.293533C68.917862 71.086227,69.232803 71.846375,69.793289 72.406845C70.353760 72.967331,71.113907 73.282272,71.906601 73.282272C72.699295 73.282272,73.459442 72.967331,74.019913 72.406845C74.580399 71.846375,74.895340 71.086227,74.895340 70.293533Z" style="fill: rgb(100.000000%,100.000000%,100.000000%);stroke: none;"></path>
  <path d="M71.653473 83.397156C71.653473 82.604462,71.338531 81.844315,70.778046 81.283844C70.217575 80.723358,69.457428 80.408417,68.664734 80.408417C67.872040 80.408417,67.111893 80.723358,66.551422 81.283844C65.990936 81.844315,65.675995 82.604462,65.675995 83.397156C65.675995 84.189850,65.990936 84.949997,66.551422 85.510468C67.111893 86.070953,67.872040 86.385895,68.664734 86.385895C69.457428 86.385895,70.217575 86.070953,70.778046 85.510468C71.338531 84.949997,71.653473 84.189850,71.653473 83.397156Z" style="fill: rgb(100.000000%,100.000000%,100.000000%);stroke: none;"></path>
  <path d="M82.010406 42.033798C82.010406 41.241104,81.695465 40.480957,81.134979 39.920486C80.574509 39.360001,79.814362 39.045059,79.021667 39.045059C78.228973 39.045059,77.468826 39.360001,76.908356 39.920486C76.347870 40.480957,76.032928 41.241104,76.032928 42.033798C76.032928 42.826492,76.347870 43.586639,76.908356 44.147110C77.468826 44.707596,78.228973 45.022537,79.021667 45.022537C79.814362 45.022537,80.574509 44.707596,81.134979 44.147110C81.695465 43.586639,82.010406 42.826492,82.010406 42.033798Z" style="fill: rgb(100.000000%,100.000000%,100.000000%);stroke: none;"></path>
  <path d="M77.654846 62.813110C77.654846 62.020416,77.339905 61.260269,76.779419 60.699799C76.218948 60.139313,75.458801 59.824371,74.666107 59.824371C73.873413 59.824371,73.113266 60.139313,72.552795 60.699799C71.992310 61.260269,71.677368 62.020416,71.677368 62.813110C71.677368 63.605804,71.992310 64.365952,72.552795 64.926422C73.113266 65.486908,73.873413 65.801849,74.666107 65.801849C75.458801 65.801849,76.218948 65.486908,76.779419 64.926422C77.339905 64.365952,77.654846 63.605804,77.654846 62.813110Z" style="fill: rgb(100.000000%,100.000000%,100.000000%);stroke: none;"></path>
  <path d="M63.061493 5.563828C63.061493 4.771133,62.746552 4.010986,62.186066 3.450516C61.625595 2.890030,60.865448 2.575089,60.072754 2.575089C59.280060 2.575089,58.519913 2.890030,57.959442 3.450516C57.398956 4.010986,57.084015 4.771133,57.084015 5.563828C57.084015 6.356522,57.398956 7.116669,57.959442 7.677139C58.519913 8.237625,59.280060 8.552567,60.072754 8.552567C60.865448 8.552567,61.625595 8.237625,62.186066 7.677139C62.746552 7.116669,63.061493 6.356522,63.061493 5.563828Z" style="fill: rgb(100.000000%,100.000000%,100.000000%);stroke: none;"></path>
  <path d="M81.317230 28.046173C81.317230 27.253479,81.002289 26.493332,80.441803 25.932861C79.881332 25.372375,79.121185 25.057434,78.328491 25.057434C77.535797 25.057434,76.775650 25.372375,76.215179 25.932861C75.654694 26.493332,75.339752 27.253479,75.339752 28.046173C75.339752 28.838867,75.654694 29.599014,76.215179 30.159485C76.775650 30.719971,77.535797 31.034912,78.328491 31.034912C79.121185 31.034912,79.881332 30.719971,80.441803 30.159485C81.002289 29.599014,81.317230 28.838867,81.317230 28.046173Z" style="fill: rgb(100.000000%,100.000000%,100.000000%);stroke: none;"></path>
  <path d="M18.616867 20.020004C18.616867 19.227310,18.301926 18.467163,17.741440 17.906693C17.180969 17.346207,16.420822 17.031265,15.628128 17.031265C14.835434 17.031265,14.075287 17.346207,13.514816 17.906693C12.954330 18.467163,12.639389 19.227310,12.639389 20.020004C12.639389 20.812698,12.954330 21.572845,13.514816 22.133316C14.075287 22.693802,14.835434 23.008743,15.628128 23.008743C16.420822 23.008743,17.180969 22.693802,17.741440 22.133316C18.301926 21.572845,18.616867 20.812698,18.616867 20.020004Z" style="fill: rgb(100.000000%,100.000000%,100.000000%);stroke: none;"></path>
  <path d="M45.581909 2.575638C45.581909 1.782944,45.266968 1.022797,44.706482 0.462326C44.146011 -0.098160,43.385864 -0.413101,42.593170 -0.413101C41.800476 -0.413101,41.040329 -0.098160,40.479858 0.462326C39.919373 1.022797,39.604431 1.782944,39.604431 2.575638C39.604431 3.368332,39.919373 4.128479,40.479858 4.688950C41.040329 5.249435,41.800476 5.564377,42.593170 5.564377C43.385864 5.564377,44.146011 5.249435,44.706482 4.688950C45.266968 4.128479,45.581909 3.368332,45.581909 2.575638Z" style="fill: rgb(100.000000%,100.000000%,100.000000%);stroke: none;"></path>
  <path d="M27.460922 64.204971C27.460922 63.412277,27.145981 62.652130,26.585495 62.091660C26.025024 61.531174,25.264877 61.216232,24.472183 61.216232C23.679489 61.216232,22.919342 61.531174,22.358871 62.091660C21.798386 62.652130,21.483444 63.412277,21.483444 64.204971C21.483444 64.997665,21.798386 65.757812,22.358871 66.318283C22.919342 66.878769,23.679489 67.193710,24.472183 67.193710C25.264877 67.193710,26.025024 66.878769,26.585495 66.318283C27.145981 65.757812,27.460922 64.997665,27.460922 64.204971Z" style="fill: rgb(100.000000%,100.000000%,100.000000%);stroke: none;"></path>
  <path d="M14.402908 38.153458C14.402908 37.360764,14.087967 36.600616,13.527481 36.040146C12.967010 35.479660,12.206863 35.164719,11.414169 35.164719C10.621475 35.164719,9.861328 35.479660,9.300858 36.040146C8.740372 36.600616,8.425430 37.360764,8.425430 38.153458C8.425430 38.946152,8.740372 39.706299,9.300858 40.266769C9.861328 40.827255,10.621475 41.142197,11.414169 41.142197C12.206863 41.142197,12.967010 40.827255,13.527481 40.266769C14.087967 39.706299,14.402908 38.946152,14.402908 38.153458Z" style="fill: rgb(100.000000%,100.000000%,100.000000%);stroke: none;"></path>
  <path d="M58.025970 76.433746C58.025970 75.641052,57.711029 74.880905,57.150543 74.320435C56.590073 73.759949,55.829926 73.445007,55.037231 73.445007C54.244537 73.445007,53.484390 73.759949,52.923920 74.320435C52.363434 74.880905,52.048492 75.641052,52.048492 76.433746C52.048492 77.226440,52.363434 77.986588,52.923920 78.547058C53.484390 79.107544,54.244537 79.422485,55.037231 79.422485C55.829926 79.422485,56.590073 79.107544,57.150543 78.547058C57.711029 77.986588,58.025970 77.226440,58.025970 76.433746Z" style="fill: rgb(100.000000%,100.000000%,100.000000%);stroke: none;"></path>
  <path d="M38.631714 71.166245C38.631714 70.373550,38.316772 69.613403,37.756287 69.052933C37.195816 68.492447,36.435669 68.177505,35.642975 68.177505C34.850281 68.177505,34.090134 68.492447,33.529663 69.052933C32.969177 69.613403,32.654236 70.373550,32.654236 71.166245C32.654236 71.958939,32.969177 72.719086,33.529663 73.279556C34.090134 73.840042,34.850281 74.154984,35.642975 74.154984C36.435669 74.154984,37.195816 73.840042,37.756287 73.279556C38.316772 72.719086,38.631714 71.958939,38.631714 71.166245Z" style="fill: rgb(100.000000%,100.000000%,100.000000%);stroke: none;"></path>
  <path d="M78.814651 78.685272C78.814651 77.892578,78.499710 77.132431,77.939224 76.571960C77.378754 76.011475,76.618607 75.696533,75.825912 75.696533C75.033218 75.696533,74.273071 76.011475,73.712601 76.571960C73.152115 77.132431,72.837173 77.892578,72.837173 78.685272C72.837173 79.477966,73.152115 80.238113,73.712601 80.798584C74.273071 81.359070,75.033218 81.674011,75.825912 81.674011C76.618607 81.674011,77.378754 81.359070,77.939224 80.798584C78.499710 80.238113,78.814651 79.477966,78.814651 78.685272Z" style="fill: rgb(100.000000%,100.000000%,100.000000%);stroke: none;"></path>
  <path d="M65.532776 77.123001C65.532776 76.330307,65.217834 75.570160,64.657349 75.009689C64.096878 74.449203,63.336731 74.134262,62.544037 74.134262C61.751343 74.134262,60.991196 74.449203,60.430725 75.009689C59.870239 75.570160,59.555298 76.330307,59.555298 77.123001C59.555298 77.915695,59.870239 78.675842,60.430725 79.236313C60.991196 79.796799,61.751343 80.111740,62.544037 80.111740C63.336731 80.111740,64.096878 79.796799,64.657349 79.236313C65.217834 78.675842,65.532776 77.915695,65.532776 77.123001Z" style="fill: rgb(100.000000%,100.000000%,100.000000%);stroke: none;"></path>
  <path d="M93.398788 86.868637C93.398788 86.075943,93.083847 85.315796,92.523361 84.755325C91.962891 84.194839,91.202744 83.879898,90.410049 83.879898C89.617355 83.879898,88.857208 84.194839,88.296738 84.755325C87.736252 85.315796,87.421310 86.075943,87.421310 86.868637C87.421310 87.661331,87.736252 88.421478,88.296738 88.981949C88.857208 89.542435,89.617355 89.857376,90.410049 89.857376C91.202744 89.857376,91.962891 89.542435,92.523361 88.981949C93.083847 88.421478,93.398788 87.661331,93.398788 86.868637Z" style="fill: rgb(100.000000%,100.000000%,100.000000%);stroke: none;"></path>
  <path d="M84.841476 79.596924C84.841476 78.804230,84.526535 78.044083,83.966049 77.483612C83.405579 76.923126,82.645432 76.608185,81.852737 76.608185C81.060043 76.608185,80.299896 76.923126,79.739426 77.483612C79.178940 78.044083,78.863998 78.804230,78.863998 79.596924C78.863998 80.389618,79.178940 81.149765,79.739426 81.710236C80.299896 82.270721,81.060043 82.585663,81.852737 82.585663C82.645432 82.585663,83.405579 82.270721,83.966049 81.710236C84.526535 81.149765,84.841476 80.389618,84.841476 79.596924Z" style="fill: rgb(100.000000%,100.000000%,100.000000%);stroke: none;"></path>
  <path d="M100.589340 100.245483C100.589340 99.452789,100.274399 98.692642,99.713913 98.132172C99.153442 97.571686,98.393295 97.256744,97.600601 97.256744C96.807907 97.256744,96.047760 97.571686,95.487289 98.132172C94.926804 98.692642,94.611862 99.452789,94.611862 100.245483C94.611862 101.038177,94.926804 101.798325,95.487289 102.358795C96.047760 102.919281,96.807907 103.234222,97.600601 103.234222C98.393295 103.234222,99.153442 102.919281,99.713913 102.358795C100.274399 101.798325,100.589340 101.038177,100.589340 100.245483Z" style="fill: rgb(100.000000%,100.000000%,100.000000%);stroke: none;"></path>
  <path d="M95.315659 92.081650C95.315659 91.288956,95.000717 90.528809,94.440231 89.968338C93.879761 89.407852,93.119614 89.092911,92.326920 89.092911C91.534225 89.092911,90.774078 89.407852,90.213608 89.968338C89.653122 90.528809,89.338181 91.288956,89.338181 92.081650C89.338181 92.874344,89.653122 93.634491,90.213608 94.194962C90.774078 94.755447,91.534225 95.070389,92.326920 95.070389C93.119614 95.070389,93.879761 94.755447,94.440231 94.194962C95.000717 93.634491,95.315659 92.874344,95.315659 92.081650Z" style="fill: rgb(100.000000%,100.000000%,100.000000%);stroke: none;"></path>
  <path d="M98.434021 110.528976C98.434021 109.736282,98.119080 108.976135,97.558594 108.415665C96.998123 107.855179,96.237976 107.540237,95.445282 107.540237C94.652588 107.540237,93.892441 107.855179,93.331970 108.415665C92.771484 108.976135,92.456543 109.736282,92.456543 110.528976C92.456543 111.321671,92.771484 112.081818,93.331970 112.642288C93.892441 113.202774,94.652588 113.517715,95.445282 113.517715C96.237976 113.517715,96.998123 113.202774,97.558594 112.642288C98.119080 112.081818,98.434021 111.321671,98.434021 110.528976Z" style="fill: rgb(100.000000%,100.000000%,100.000000%);stroke: none;"></path>
  <path d="M103.215164 104.475830C103.215164 103.683136,102.900223 102.922989,102.339737 102.362518C101.779266 101.802032,101.019119 101.487091,100.226425 101.487091C99.433731 101.487091,98.673584 101.802032,98.113113 102.362518C97.552628 102.922989,97.237686 103.683136,97.237686 104.475830C97.237686 105.268524,97.552628 106.028671,98.113113 106.589142C98.673584 107.149628,99.433731 107.464569,100.226425 107.464569C101.019119 107.464569,101.779266 107.149628,102.339737 106.589142C102.900223 106.028671,103.215164 105.268524,103.215164 104.475830Z" style="fill: rgb(100.000000%,100.000000%,100.000000%);stroke: none;"></path>
  <path d="M87.654419 108.286469C87.654419 107.493774,87.339478 106.733627,86.778992 106.173157C86.218521 105.612671,85.458374 105.297729,84.665680 105.297729C83.872986 105.297729,83.112839 105.612671,82.552368 106.173157C81.991882 106.733627,81.676941 107.493774,81.676941 108.286469C81.676941 109.079163,81.991882 109.839310,82.552368 110.399780C83.112839 110.960266,83.872986 111.275208,84.665680 111.275208C85.458374 111.275208,86.218521 110.960266,86.778992 110.399780C87.339478 109.839310,87.654419 109.079163,87.654419 108.286469Z" style="fill: rgb(100.000000%,100.000000%,100.000000%);stroke: none;"></path>
  <path d="M94.373001 109.713669C94.373001 108.920975,94.058060 108.160828,93.497574 107.600357C92.937103 107.039871,92.176956 106.724930,91.384262 106.724930C90.591568 106.724930,89.831421 107.039871,89.270950 107.600357C88.710464 108.160828,88.395523 108.920975,88.395523 109.713669C88.395523 110.506363,88.710464 111.266510,89.270950 111.826981C89.831421 112.387466,90.591568 112.702408,91.384262 112.702408C92.176956 112.702408,92.937103 112.387466,93.497574 111.826981C94.058060 111.266510,94.373001 110.506363,94.373001 109.713669Z" style="fill: rgb(100.000000%,100.000000%,100.000000%);stroke: none;"></path>
  <path d="M78.271667 107.784485C78.271667 106.991791,77.956726 106.231644,77.396240 105.671173C76.835770 105.110687,76.075623 104.795746,75.282928 104.795746C74.490234 104.795746,73.730087 105.110687,73.169617 105.671173C72.609131 106.231644,72.294189 106.991791,72.294189 107.784485C72.294189 108.577179,72.609131 109.337326,73.169617 109.897797C73.730087 110.458282,74.490234 110.773224,75.282928 110.773224C76.075623 110.773224,76.835770 110.458282,77.396240 109.897797C77.956726 109.337326,78.271667 108.577179,78.271667 107.784485Z" style="fill: rgb(100.000000%,100.000000%,100.000000%);stroke: none;"></path>
  <path d="M84.486618 107.971664C84.486618 107.178970,84.171677 106.418823,83.611191 105.858353C83.050720 105.297867,82.290573 104.982925,81.497879 104.982925C80.705185 104.982925,79.945038 105.297867,79.384567 105.858353C78.824081 106.418823,78.509140 107.178970,78.509140 107.971664C78.509140 108.764359,78.824081 109.524506,79.384567 110.084976C79.945038 110.645462,80.705185 110.960403,81.497879 110.960403C82.290573 110.960403,83.050720 110.645462,83.611191 110.084976C84.171677 109.524506,84.486618 108.764359,84.486618 107.971664Z" style="fill: rgb(100.000000%,100.000000%,100.000000%);stroke: none;"></path>
  <path d="M69.288528 107.478546C69.288528 106.685852,68.973587 105.925705,68.413101 105.365234C67.852631 104.804749,67.092484 104.489807,66.299789 104.489807C65.507095 104.489807,64.746948 104.804749,64.186478 105.365234C63.625992 105.925705,63.311050 106.685852,63.311050 107.478546C63.311050 108.271240,63.625992 109.031387,64.186478 109.591858C64.746948 110.152344,65.507095 110.467285,66.299789 110.467285C67.092484 110.467285,67.852631 110.152344,68.413101 109.591858C68.973587 109.031387,69.288528 108.271240,69.288528 107.478546Z" style="fill: rgb(100.000000%,100.000000%,100.000000%);stroke: none;"></path>
  <path d="M75.226227 107.893723C75.226227 107.101028,74.911285 106.340881,74.350800 105.780411C73.790329 105.219925,73.030182 104.904984,72.237488 104.904984C71.444794 104.904984,70.684647 105.219925,70.124176 105.780411C69.563690 106.340881,69.248749 107.101028,69.248749 107.893723C69.248749 108.686417,69.563690 109.446564,70.124176 110.007034C70.684647 110.567520,71.444794 110.882462,72.237488 110.882462C73.030182 110.882462,73.790329 110.567520,74.350800 110.007034C74.911285 109.446564,75.226227 108.686417,75.226227 107.893723Z" style="fill: rgb(100.000000%,100.000000%,100.000000%);stroke: none;"></path>
  <path d="M63.083755 112.409988C63.083755 111.617294,62.768814 110.857147,62.208328 110.296677C61.647858 109.736191,60.887711 109.421249,60.095016 109.421249C59.302322 109.421249,58.542175 109.736191,57.981705 110.296677C57.421219 110.857147,57.106277 111.617294,57.106277 112.409988C57.106277 113.202682,57.421219 113.962830,57.981705 114.523300C58.542175 115.083786,59.302322 115.398727,60.095016 115.398727C60.887711 115.398727,61.647858 115.083786,62.208328 114.523300C62.768814 113.962830,63.083755 113.202682,63.083755 112.409988Z" style="fill: rgb(100.000000%,100.000000%,100.000000%);stroke: none;"></path>
  <path d="M66.039062 107.350906C66.039062 106.558212,65.724121 105.798065,65.163635 105.237595C64.603165 104.677109,63.843018 104.362167,63.050323 104.362167C62.257629 104.362167,61.497482 104.677109,60.937012 105.237595C60.376526 105.798065,60.061584 106.558212,60.061584 107.350906C60.061584 108.143600,60.376526 108.903748,60.937012 109.464218C61.497482 110.024704,62.257629 110.339645,63.050323 110.339645C63.843018 110.339645,64.603165 110.024704,65.163635 109.464218C65.724121 108.903748,66.039062 108.143600,66.039062 107.350906Z" style="fill: rgb(100.000000%,100.000000%,100.000000%);stroke: none;"></path>
  <path d="M69.278580 120.553329C69.278580 119.760635,68.963638 119.000488,68.403152 118.440018C67.842682 117.879532,67.082535 117.564590,66.289841 117.564590C65.497147 117.564590,64.737000 117.879532,64.176529 118.440018C63.616043 119.000488,63.301102 119.760635,63.301102 120.553329C63.301102 121.346024,63.616043 122.106171,64.176529 122.666641C64.737000 123.227127,65.497147 123.542068,66.289841 123.542068C67.082535 123.542068,67.842682 123.227127,68.403152 122.666641C68.963638 122.106171,69.278580 121.346024,69.278580 120.553329Z" style="fill: rgb(100.000000%,100.000000%,100.000000%);stroke: none;"></path>
  <path d="M65.145462 115.339767C65.145462 114.547073,64.830521 113.786926,64.270035 113.226456C63.709564 112.665970,62.949417 112.351028,62.156723 112.351028C61.364029 112.351028,60.603882 112.665970,60.043411 113.226456C59.482925 113.786926,59.167984 114.547073,59.167984 115.339767C59.167984 116.132462,59.482925 116.892609,60.043411 117.453079C60.603882 118.013565,61.364029 118.328506,62.156723 118.328506C62.949417 118.328506,63.709564 118.013565,64.270035 117.453079C64.830521 116.892609,65.145462 116.132462,65.145462 115.339767Z" style="fill: rgb(100.000000%,100.000000%,100.000000%);stroke: none;"></path>
  <path d="M75.584976 129.622665C75.584976 128.829971,75.270035 128.069824,74.709549 127.509354C74.149078 126.948868,73.388931 126.633926,72.596237 126.633926C71.803543 126.633926,71.043396 126.948868,70.482925 127.509354C69.922440 128.069824,69.607498 128.829971,69.607498 129.622665C69.607498 130.415359,69.922440 131.175507,70.482925 131.735977C71.043396 132.296463,71.803543 132.611404,72.596237 132.611404C73.388931 132.611404,74.149078 132.296463,74.709549 131.735977C75.270035 131.175507,75.584976 130.415359,75.584976 129.622665Z" style="fill: rgb(100.000000%,100.000000%,100.000000%);stroke: none;"></path>
  <path d="M71.105392 123.498337C71.105392 122.705643,70.790451 121.945496,70.229965 121.385025C69.669495 120.824539,68.909348 120.509598,68.116653 120.509598C67.323959 120.509598,66.563812 120.824539,66.003342 121.385025C65.442856 121.945496,65.127914 122.705643,65.127914 123.498337C65.127914 124.291031,65.442856 125.051178,66.003342 125.611649C66.563812 126.172134,67.323959 126.487076,68.116653 126.487076C68.909348 126.487076,69.669495 126.172134,70.229965 125.611649C70.790451 125.051178,71.105392 124.291031,71.105392 123.498337Z" style="fill: rgb(100.000000%,100.000000%,100.000000%);stroke: none;"></path>
  <path d="M86.760635 141.042465C86.760635 140.249771,86.445694 139.489624,85.885208 138.929153C85.324738 138.368668,84.564590 138.053726,83.771896 138.053726C82.979202 138.053726,82.219055 138.368668,81.658585 138.929153C81.098099 139.489624,80.783157 140.249771,80.783157 141.042465C80.783157 141.835159,81.098099 142.595306,81.658585 143.155777C82.219055 143.716263,82.979202 144.031204,83.771896 144.031204C84.564590 144.031204,85.324738 143.716263,85.885208 143.155777C86.445694 142.595306,86.760635 141.835159,86.760635 141.042465Z" style="fill: rgb(100.000000%,100.000000%,100.000000%);stroke: none;"></path>
  <path d="M78.321411 132.725876C78.321411 131.933182,78.006470 131.173035,77.445984 130.612564C76.885513 130.052078,76.125366 129.737137,75.332672 129.737137C74.539978 129.737137,73.779831 130.052078,73.219360 130.612564C72.658875 131.173035,72.343933 131.933182,72.343933 132.725876C72.343933 133.518570,72.658875 134.278717,73.219360 134.839188C73.779831 135.399673,74.539978 135.714615,75.332672 135.714615C76.125366 135.714615,76.885513 135.399673,77.445984 134.839188C78.006470 134.278717,78.321411 133.518570,78.321411 132.725876Z" style="fill: rgb(100.000000%,100.000000%,100.000000%);stroke: none;"></path>
  <path d="M104.307800 162.963943C104.307800 162.171249,103.992859 161.411102,103.432373 160.850632C102.871902 160.290146,102.111755 159.975204,101.319061 159.975204C100.526367 159.975204,99.766220 160.290146,99.205750 160.850632C98.645264 161.411102,98.330322 162.171249,98.330322 162.963943C98.330322 163.756638,98.645264 164.516785,99.205750 165.077255C99.766220 165.637741,100.526367 165.952682,101.319061 165.952682C102.111755 165.952682,102.871902 165.637741,103.432373 165.077255C103.992859 164.516785,104.307800 163.756638,104.307800 162.963943Z" style="fill: rgb(100.000000%,100.000000%,100.000000%);stroke: none;"></path>
  <path d="M93.010635 145.796051C93.010635 145.003357,92.695694 144.243210,92.135208 143.682739C91.574738 143.122253,90.814590 142.807312,90.021896 142.807312C89.229202 142.807312,88.469055 143.122253,87.908585 143.682739C87.348099 144.243210,87.033157 145.003357,87.033157 145.796051C87.033157 146.588745,87.348099 147.348892,87.908585 147.909363C88.469055 148.469849,89.229202 148.784790,90.021896 148.784790C90.814590 148.784790,91.574738 148.469849,92.135208 147.909363C92.695694 147.348892,93.010635 146.588745,93.010635 145.796051Z" style="fill: rgb(100.000000%,100.000000%,100.000000%);stroke: none;"></path>
  <path d="M124.916077 196.794739C124.916077 196.002045,124.601135 195.241898,124.040649 194.681427C123.480179 194.120941,122.720032 193.806000,121.927338 193.806000C121.134644 193.806000,120.374496 194.120941,119.814026 194.681427C119.253540 195.241898,118.938599 196.002045,118.938599 196.794739C118.938599 197.587433,119.253540 198.347580,119.814026 198.908051C120.374496 199.468536,121.134644 199.783478,121.927338 199.783478C122.720032 199.783478,123.480179 199.468536,124.040649 198.908051C124.601135 198.347580,124.916077 197.587433,124.916077 196.794739Z" style="fill: rgb(100.000000%,100.000000%,100.000000%);stroke: none;"></path>
  <path d="M105.097061 177.181625C105.097061 176.388931,104.782120 175.628784,104.221634 175.068314C103.661163 174.507828,102.901016 174.192886,102.108322 174.192886C101.315628 174.192886,100.555481 174.507828,99.995010 175.068314C99.434525 175.628784,99.119583 176.388931,99.119583 177.181625C99.119583 177.974319,99.434525 178.734467,99.995010 179.294937C100.555481 179.855423,101.315628 180.170364,102.108322 180.170364C102.901016 180.170364,103.661163 179.855423,104.221634 179.294937C104.782120 178.734467,105.097061 177.974319,105.097061 177.181625Z" style="fill: rgb(100.000000%,100.000000%,100.000000%);stroke: none;"></path>
  <path d="M167.881256 179.826874C167.881256 179.034180,167.566315 178.274033,167.005829 177.713562C166.445358 177.153076,165.685211 176.838135,164.892517 176.838135C164.099823 176.838135,163.339676 177.153076,162.779205 177.713562C162.218719 178.274033,161.903778 179.034180,161.903778 179.826874C161.903778 180.619568,162.218719 181.379715,162.779205 181.940186C163.339676 182.500671,164.099823 182.815613,164.892517 182.815613C165.685211 182.815613,166.445358 182.500671,167.005829 181.940186C167.566315 181.379715,167.881256 180.619568,167.881256 179.826874Z" style="fill: rgb(100.000000%,100.000000%,100.000000%);stroke: none;"></path>
  <path d="M141.721863 196.836243C141.721863 196.043549,141.406921 195.283401,140.846436 194.722931C140.285965 194.162445,139.525818 193.847504,138.733124 193.847504C137.940430 193.847504,137.180283 194.162445,136.619812 194.722931C136.059326 195.283401,135.744385 196.043549,135.744385 196.836243C135.744385 197.628937,136.059326 198.389084,136.619812 198.949554C137.180283 199.510040,137.940430 199.824982,138.733124 199.824982C139.525818 199.824982,140.285965 199.510040,140.846436 198.949554C141.406921 198.389084,141.721863 197.628937,141.721863 196.836243Z" style="fill: rgb(100.000000%,100.000000%,100.000000%);stroke: none;"></path>
  <path d="M163.531082 137.303162C163.531082 136.510468,163.216141 135.750320,162.655655 135.189850C162.095184 134.629364,161.335037 134.314423,160.542343 134.314423C159.749649 134.314423,158.989502 134.629364,158.429031 135.189850C157.868546 135.750320,157.553604 136.510468,157.553604 137.303162C157.553604 138.095856,157.868546 138.856003,158.429031 139.416473C158.989502 139.976959,159.749649 140.291901,160.542343 140.291901C161.335037 140.291901,162.095184 139.976959,162.655655 139.416473C163.216141 138.856003,163.531082 138.095856,163.531082 137.303162Z" style="fill: rgb(100.000000%,100.000000%,100.000000%);stroke: none;"></path>
  <path d="M174.636108 163.550369C174.636108 162.757675,174.321167 161.997528,173.760681 161.437057C173.200211 160.876572,172.440063 160.561630,171.647369 160.561630C170.854675 160.561630,170.094528 160.876572,169.534058 161.437057C168.973572 161.997528,168.658630 162.757675,168.658630 163.550369C168.658630 164.343063,168.973572 165.103210,169.534058 165.663681C170.094528 166.224167,170.854675 166.539108,171.647369 166.539108C172.440063 166.539108,173.200211 166.224167,173.760681 165.663681C174.321167 165.103210,174.636108 164.343063,174.636108 163.550369Z" style="fill: rgb(100.000000%,100.000000%,100.000000%);stroke: none;"></path>
  <path d="M145.402817 102.952759C145.402817 102.160065,145.087875 101.399918,144.527390 100.839447C143.966919 100.278961,143.206772 99.964020,142.414078 99.964020C141.621384 99.964020,140.861237 100.278961,140.300766 100.839447C139.740280 101.399918,139.425339 102.160065,139.425339 102.952759C139.425339 103.745453,139.740280 104.505600,140.300766 105.066071C140.861237 105.626556,141.621384 105.941498,142.414078 105.941498C143.206772 105.941498,143.966919 105.626556,144.527390 105.066071C145.087875 104.505600,145.402817 103.745453,145.402817 102.952759Z" style="fill: rgb(100.000000%,100.000000%,100.000000%);stroke: none;"></path>
  <path d="M149.981583 130.197952C149.981583 129.405258,149.666641 128.645111,149.106155 128.084641C148.545685 127.524155,147.785538 127.209213,146.992844 127.209213C146.200150 127.209213,145.440002 127.524155,144.879532 128.084641C144.319046 128.645111,144.004105 129.405258,144.004105 130.197952C144.004105 130.990646,144.319046 131.750793,144.879532 132.311264C145.440002 132.871750,146.200150 133.186691,146.992844 133.186691C147.785538 133.186691,148.545685 132.871750,149.106155 132.311264C149.666641 131.750793,149.981583 130.990646,149.981583 130.197952Z" style="fill: rgb(100.000000%,100.000000%,100.000000%);stroke: none;"></path>
  <path d="M162.249786 56.545303C162.249786 55.752609,161.934845 54.992462,161.374359 54.431992C160.813889 53.871506,160.053741 53.556564,159.261047 53.556564C158.468353 53.556564,157.708206 53.871506,157.147736 54.431992C156.587250 54.992462,156.272308 55.752609,156.272308 56.545303C156.272308 57.337997,156.587250 58.098145,157.147736 58.658615C157.708206 59.219101,158.468353 59.534042,159.261047 59.534042C160.053741 59.534042,160.813889 59.219101,161.374359 58.658615C161.934845 58.098145,162.249786 57.337997,162.249786 56.545303Z" style="fill: rgb(100.000000%,100.000000%,100.000000%);stroke: none;"></path>
  <path d="M158.175079 91.350906C158.175079 90.558212,157.860138 89.798065,157.299652 89.237595C156.739182 88.677109,155.979034 88.362167,155.186340 88.362167C154.393646 88.362167,153.633499 88.677109,153.073029 89.237595C152.512543 89.798065,152.197601 90.558212,152.197601 91.350906C152.197601 92.143600,152.512543 92.903748,153.073029 93.464218C153.633499 94.024704,154.393646 94.339645,155.186340 94.339645C155.979034 94.339645,156.739182 94.024704,157.299652 93.464218C157.860138 92.903748,158.175079 92.143600,158.175079 91.350906Z" style="fill: rgb(100.000000%,100.000000%,100.000000%);stroke: none;"></path>
  <path d="M109.011841 17.852005C109.011841 17.059311,108.696899 16.299164,108.136414 15.738693C107.575943 15.178207,106.815796 14.863266,106.023102 14.863266C105.230408 14.863266,104.470261 15.178207,103.909790 15.738693C103.349304 16.299164,103.034363 17.059311,103.034363 17.852005C103.034363 18.644699,103.349304 19.404846,103.909790 19.965317C104.470261 20.525803,105.230408 20.840744,106.023102 20.840744C106.815796 20.840744,107.575943 20.525803,108.136414 19.965317C108.696899 19.404846,109.011841 18.644699,109.011841 17.852005Z" style="fill: rgb(100.000000%,100.000000%,100.000000%);stroke: none;"></path>
  <path d="M143.455170 41.977219C143.455170 41.184525,143.140228 40.424377,142.579742 39.863907C142.019272 39.303421,141.259125 38.988480,140.466431 38.988480C139.673737 38.988480,138.913589 39.303421,138.353119 39.863907C137.792633 40.424377,137.477692 41.184525,137.477692 41.977219C137.477692 42.769913,137.792633 43.530060,138.353119 44.090530C138.913589 44.651016,139.673737 44.965958,140.466431 44.965958C141.259125 44.965958,142.019272 44.651016,142.579742 44.090530C143.140228 43.530060,143.455170 42.769913,143.455170 41.977219Z" style="fill: rgb(100.000000%,100.000000%,100.000000%);stroke: none;"></path>
  <path d="M63.894150 24.156509C63.894150 23.363815,63.579208 22.603668,63.018723 22.043198C62.458252 21.482712,61.698105 21.167770,60.905411 21.167770C60.112717 21.167770,59.352570 21.482712,58.792099 22.043198C58.231613 22.603668,57.916672 23.363815,57.916672 24.156509C57.916672 24.949203,58.231613 25.709351,58.792099 26.269821C59.352570 26.830307,60.112717 27.145248,60.905411 27.145248C61.698105 27.145248,62.458252 26.830307,63.018723 26.269821C63.579208 25.709351,63.894150 24.949203,63.894150 24.156509Z" style="fill: rgb(100.000000%,100.000000%,100.000000%);stroke: none;"></path>
  <path d="M89.010269 6.572906C89.010269 5.780212,88.695328 5.020065,88.134842 4.459595C87.574371 3.899109,86.814224 3.584167,86.021530 3.584167C85.228836 3.584167,84.468689 3.899109,83.908218 4.459595C83.347733 5.020065,83.032791 5.780212,83.032791 6.572906C83.032791 7.365601,83.347733 8.125748,83.908218 8.686218C84.468689 9.246704,85.228836 9.561646,86.021530 9.561646C86.814224 9.561646,87.574371 9.246704,88.134842 8.686218C88.695328 8.125748,89.010269 7.365601,89.010269 6.572906Z" style="fill: rgb(100.000000%,100.000000%,100.000000%);stroke: none;"></path>
  <path d="M42.841537 48.698837C42.841537 47.906143,42.526596 47.145996,41.966110 46.585526C41.405640 46.025040,40.645493 45.710098,39.852798 45.710098C39.060104 45.710098,38.299957 46.025040,37.739487 46.585526C37.179001 47.145996,36.864059 47.906143,36.864059 48.698837C36.864059 49.491531,37.179001 50.251678,37.739487 50.812149C38.299957 51.372635,39.060104 51.687576,39.852798 51.687576C40.645493 51.687576,41.405640 51.372635,41.966110 50.812149C42.526596 50.251678,42.841537 49.491531,42.841537 48.698837Z" style="fill: rgb(100.000000%,100.000000%,100.000000%);stroke: none;"></path>
  <path d="M60.869659 36.429794C60.869659 35.637100,60.554718 34.876953,59.994232 34.316483C59.433762 33.755997,58.673615 33.441055,57.880920 33.441055C57.088226 33.441055,56.328079 33.755997,55.767609 34.316483C55.207123 34.876953,54.892181 35.637100,54.892181 36.429794C54.892181 37.222488,55.207123 37.982635,55.767609 38.543106C56.328079 39.103592,57.088226 39.418533,57.880920 39.418533C58.673615 39.418533,59.433762 39.103592,59.994232 38.543106C60.554718 37.982635,60.869659 37.222488,60.869659 36.429794Z" style="fill: rgb(100.000000%,100.000000%,100.000000%);stroke: none;"></path>
  <path d="M5.143921 63.384674C5.143921 62.591980,4.828979 61.831833,4.268494 61.271362C3.708023 60.710876,2.947876 60.395935,2.155182 60.395935C1.362488 60.395935,0.602341 60.710876,0.041870 61.271362C-0.518616 61.831833,-0.833557 62.591980,-0.833557 63.384674C-0.833557 64.177368,-0.518616 64.937515,0.041870 65.497986C0.602341 66.058472,1.362488 66.373413,2.155182 66.373413C2.947876 66.373413,3.708023 66.058472,4.268494 65.497986C4.828979 64.937515,5.143921 64.177368,5.143921 63.384674Z" style="fill: rgb(100.000000%,100.000000%,100.000000%);stroke: none;"></path>
  <path d="M30.899963 47.346237C30.899963 46.553543,30.585022 45.793396,30.024536 45.232925C29.464066 44.672440,28.703918 44.357498,27.911224 44.357498C27.118530 44.357498,26.358383 44.672440,25.797913 45.232925C25.237427 45.793396,24.922485 46.553543,24.922485 47.346237C24.922485 48.138931,25.237427 48.899078,25.797913 49.459549C26.358383 50.020035,27.118530 50.334976,27.911224 50.334976C28.703918 50.334976,29.464066 50.020035,30.024536 49.459549C30.585022 48.899078,30.899963 48.138931,30.899963 47.346237Z" style="fill: rgb(100.000000%,100.000000%,100.000000%);stroke: none;"></path>
  <path d="M14.348434 125.767883C14.348434 124.975189,14.033493 124.215042,13.473007 123.654572C12.912537 123.094086,12.152390 122.779144,11.359695 122.779144C10.567001 122.779144,9.806854 123.094086,9.246384 123.654572C8.685898 124.215042,8.370956 124.975189,8.370956 125.767883C8.370956 126.560577,8.685898 127.320724,9.246384 127.881195C9.806854 128.441681,10.567001 128.756622,11.359695 128.756622C12.152390 128.756622,12.912537 128.441681,13.473007 127.881195C14.033493 127.320724,14.348434 126.560577,14.348434 125.767883Z" style="fill: rgb(100.000000%,100.000000%,100.000000%);stroke: none;"></path>
  <path d="M7.064133 86.225571C7.064133 85.432877,6.749191 84.672729,6.188705 84.112259C5.628235 83.551773,4.868088 83.236832,4.075394 83.236832C3.282700 83.236832,2.522552 83.551773,1.962082 84.112259C1.401596 84.672729,1.086655 85.432877,1.086655 86.225571C1.086655 87.018265,1.401596 87.778412,1.962082 88.338882C2.522552 88.899368,3.282700 89.214310,4.075394 89.214310C4.868088 89.214310,5.628235 88.899368,6.188705 88.338882C6.749191 87.778412,7.064133 87.018265,7.064133 86.225571Z" style="fill: rgb(100.000000%,100.000000%,100.000000%);stroke: none;"></path>
  <path d="M47.923996 155.631744C47.923996 154.839050,47.609055 154.078903,47.048569 153.518433C46.488098 152.957947,45.727951 152.643005,44.935257 152.643005C44.142563 152.643005,43.382416 152.957947,42.821945 153.518433C42.261459 154.078903,41.946518 154.839050,41.946518 155.631744C41.946518 156.424438,42.261459 157.184586,42.821945 157.745056C43.382416 158.305542,44.142563 158.620483,44.935257 158.620483C45.727951 158.620483,46.488098 158.305542,47.048569 157.745056C47.609055 157.184586,47.923996 156.424438,47.923996 155.631744Z" style="fill: rgb(100.000000%,100.000000%,100.000000%);stroke: none;"></path>
  <path d="M19.651657 146.786575C19.651657 145.993881,19.336716 145.233734,18.776230 144.673264C18.215759 144.112778,17.455612 143.797836,16.662918 143.797836C15.870224 143.797836,15.110077 144.112778,14.549606 144.673264C13.989120 145.233734,13.674179 145.993881,13.674179 146.786575C13.674179 147.579269,13.989120 148.339417,14.549606 148.899887C15.110077 149.460373,15.870224 149.775314,16.662918 149.775314C17.455612 149.775314,18.215759 149.460373,18.776230 148.899887C19.336716 148.339417,19.651657 147.579269,19.651657 146.786575Z" style="fill: rgb(100.000000%,100.000000%,100.000000%);stroke: none;"></path>
  <path d="M72.492126 143.332764C72.492126 142.540070,72.177185 141.779922,71.616699 141.219452C71.056229 140.658966,70.296082 140.344025,69.503387 140.344025C68.710693 140.344025,67.950546 140.658966,67.390076 141.219452C66.829590 141.779922,66.514648 142.540070,66.514648 143.332764C66.514648 144.125458,66.829590 144.885605,67.390076 145.446075C67.950546 146.006561,68.710693 146.321503,69.503387 146.321503C70.296082 146.321503,71.056229 146.006561,71.616699 145.446075C72.177185 144.885605,72.492126 144.125458,72.492126 143.332764Z" style="fill: rgb(100.000000%,100.000000%,100.000000%);stroke: none;"></path>
  <path d="M58.571060 152.158035C58.571060 151.365341,58.256119 150.605194,57.695633 150.044724C57.135162 149.484238,56.375015 149.169296,55.582321 149.169296C54.789627 149.169296,54.029480 149.484238,53.469009 150.044724C52.908524 150.605194,52.593582 151.365341,52.593582 152.158035C52.593582 152.950729,52.908524 153.710876,53.469009 154.271347C54.029480 154.831833,54.789627 155.146774,55.582321 155.146774C56.375015 155.146774,57.135162 154.831833,57.695633 154.271347C58.256119 153.710876,58.571060 152.950729,58.571060 152.158035Z" style="fill: rgb(100.000000%,100.000000%,100.000000%);stroke: none;"></path>
  <path d="M85.163208 132.024292C85.163208 131.231598,84.848267 130.471451,84.287781 129.910980C83.727310 129.350494,82.967163 129.035553,82.174469 129.035553C81.381775 129.035553,80.621628 129.350494,80.061157 129.910980C79.500671 130.471451,79.185730 131.231598,79.185730 132.024292C79.185730 132.816986,79.500671 133.577133,80.061157 134.137604C80.621628 134.698090,81.381775 135.013031,82.174469 135.013031C82.967163 135.013031,83.727310 134.698090,84.287781 134.137604C84.848267 133.577133,85.163208 132.816986,85.163208 132.024292Z" style="fill: rgb(100.000000%,100.000000%,100.000000%);stroke: none;"></path>
  <path d="M76.978134 139.581696C76.978134 138.789001,76.663193 138.028854,76.102707 137.468384C75.542236 136.907898,74.782089 136.592957,73.989395 136.592957C73.196701 136.592957,72.436554 136.907898,71.876083 137.468384C71.315598 138.028854,71.000656 138.789001,71.000656 139.581696C71.000656 140.374390,71.315598 141.134537,71.876083 141.695007C72.436554 142.255493,73.196701 142.570435,73.989395 142.570435C74.782089 142.570435,75.542236 142.255493,76.102707 141.695007C76.663193 141.134537,76.978134 140.374390,76.978134 139.581696Z" style="fill: rgb(100.000000%,100.000000%,100.000000%);stroke: none;"></path>
  <path d="M92.229721 118.539246C92.229721 117.746552,91.914780 116.986404,91.354294 116.425934C90.793823 115.865448,90.033676 115.550507,89.240982 115.550507C88.448288 115.550507,87.688141 115.865448,87.127670 116.425934C86.567184 116.986404,86.252243 117.746552,86.252243 118.539246C86.252243 119.331940,86.567184 120.092087,87.127670 120.652557C87.688141 121.213043,88.448288 121.527985,89.240982 121.527985C90.033676 121.527985,90.793823 121.213043,91.354294 120.652557C91.914780 120.092087,92.229721 119.331940,92.229721 118.539246Z" style="fill: rgb(100.000000%,100.000000%,100.000000%);stroke: none;"></path>
  <path d="M88.972229 128.131302C88.972229 127.338608,88.657288 126.578461,88.096802 126.017990C87.536331 125.457504,86.776184 125.142563,85.983490 125.142563C85.190796 125.142563,84.430649 125.457504,83.870178 126.017990C83.309692 126.578461,82.994751 127.338608,82.994751 128.131302C82.994751 128.923996,83.309692 129.684143,83.870178 130.244614C84.430649 130.805099,85.190796 131.120041,85.983490 131.120041C86.776184 131.120041,87.536331 130.805099,88.096802 130.244614C88.657288 129.684143,88.972229 128.923996,88.972229 128.131302Z" style="fill: rgb(100.000000%,100.000000%,100.000000%);stroke: none;"></path>
  <path d="M90.121246 106.185974C90.121246 105.393280,89.806305 104.633133,89.245819 104.072662C88.685349 103.512177,87.925201 103.197235,87.132507 103.197235C86.339813 103.197235,85.579666 103.512177,85.019196 104.072662C84.458710 104.633133,84.143768 105.393280,84.143768 106.185974C84.143768 106.978668,84.458710 107.738815,85.019196 108.299286C85.579666 108.859772,86.339813 109.174713,87.132507 109.174713C87.925201 109.174713,88.685349 108.859772,89.245819 108.299286C89.806305 107.738815,90.121246 106.978668,90.121246 106.185974Z" style="fill: rgb(100.000000%,100.000000%,100.000000%);stroke: none;"></path>
  <path d="M91.849319 113.631439C91.849319 112.838745,91.534378 112.078598,90.973892 111.518127C90.413422 110.957642,89.653275 110.642700,88.860580 110.642700C88.067886 110.642700,87.307739 110.957642,86.747269 111.518127C86.186783 112.078598,85.871841 112.838745,85.871841 113.631439C85.871841 114.424133,86.186783 115.184280,86.747269 115.744751C87.307739 116.305237,88.067886 116.620178,88.860580 116.620178C89.653275 116.620178,90.413422 116.305237,90.973892 115.744751C91.534378 115.184280,91.849319 114.424133,91.849319 113.631439Z" style="fill: rgb(100.000000%,100.000000%,100.000000%);stroke: none;"></path>
  <path d="M92.113312 98.130478C92.113312 97.337784,91.798370 96.577637,91.237885 96.017166C90.677414 95.456680,89.917267 95.141739,89.124573 95.141739C88.331879 95.141739,87.571732 95.456680,87.011261 96.017166C86.450775 96.577637,86.135834 97.337784,86.135834 98.130478C86.135834 98.923172,86.450775 99.683319,87.011261 100.243790C87.571732 100.804276,88.331879 101.119217,89.124573 101.119217C89.917267 101.119217,90.677414 100.804276,91.237885 100.243790C91.798370 99.683319,92.113312 98.923172,92.113312 98.130478Z" style="fill: rgb(100.000000%,100.000000%,100.000000%);stroke: none;"></path>
  <path d="M89.294418 103.253799C89.294418 102.461105,88.979477 101.700958,88.418991 101.140488C87.858521 100.580002,87.098373 100.265060,86.305679 100.265060C85.512985 100.265060,84.752838 100.580002,84.192368 101.140488C83.631882 101.700958,83.316940 102.461105,83.316940 103.253799C83.316940 104.046494,83.631882 104.806641,84.192368 105.367111C84.752838 105.927597,85.512985 106.242538,86.305679 106.242538C87.098373 106.242538,87.858521 105.927597,88.418991 105.367111C88.979477 104.806641,89.294418 104.046494,89.294418 103.253799Z" style="fill: rgb(100.000000%,100.000000%,100.000000%);stroke: none;"></path>
  <path d="M105.899170 94.571625C105.899170 93.778931,105.584229 93.018784,105.023743 92.458313C104.463272 91.897827,103.703125 91.582886,102.910431 91.582886C102.117737 91.582886,101.357590 91.897827,100.797119 92.458313C100.236633 93.018784,99.921692 93.778931,99.921692 94.571625C99.921692 95.364319,100.236633 96.124466,100.797119 96.684937C101.357590 97.245422,102.117737 97.560364,102.910431 97.560364C103.703125 97.560364,104.463272 97.245422,105.023743 96.684937C105.584229 96.124466,105.899170 95.364319,105.899170 94.571625Z" style="fill: rgb(100.000000%,100.000000%,100.000000%);stroke: none;"></path>
  <path d="M95.277695 97.317566C95.277695 96.524872,94.962753 95.764725,94.402267 95.204254C93.841797 94.643768,93.081650 94.328827,92.288956 94.328827C91.496262 94.328827,90.736115 94.643768,90.175644 95.204254C89.615158 95.764725,89.300217 96.524872,89.300217 97.317566C89.300217 98.110260,89.615158 98.870407,90.175644 99.430878C90.736115 99.991364,91.496262 100.306305,92.288956 100.306305C93.081650 100.306305,93.841797 99.991364,94.402267 99.430878C94.962753 98.870407,95.277695 98.110260,95.277695 97.317566Z" style="fill: rgb(100.000000%,100.000000%,100.000000%);stroke: none;"></path>
  <path d="M133.109116 82.227325C133.109116 81.434631,132.794174 80.674484,132.233688 80.114014C131.673218 79.553528,130.913071 79.238586,130.120377 79.238586C129.327682 79.238586,128.567535 79.553528,128.007065 80.114014C127.446579 80.674484,127.131638 81.434631,127.131638 82.227325C127.131638 83.020020,127.446579 83.780167,128.007065 84.340637C128.567535 84.901123,129.327682 85.216064,130.120377 85.216064C130.913071 85.216064,131.673218 84.901123,132.233688 84.340637C132.794174 83.780167,133.109116 83.020020,133.109116 82.227325Z" style="fill: rgb(100.000000%,100.000000%,100.000000%);stroke: none;"></path>
  <path d="M113.287186 91.601593C113.287186 90.808899,112.972244 90.048752,112.411758 89.488281C111.851288 88.927795,111.091141 88.612854,110.298447 88.612854C109.505753 88.612854,108.745605 88.927795,108.185135 89.488281C107.624649 90.048752,107.309708 90.808899,107.309708 91.601593C107.309708 92.394287,107.624649 93.154434,108.185135 93.714905C108.745605 94.275391,109.505753 94.590332,110.298447 94.590332C111.091141 94.590332,111.851288 94.275391,112.411758 93.714905C112.972244 93.154434,113.287186 92.394287,113.287186 91.601593Z" style="fill: rgb(100.000000%,100.000000%,100.000000%);stroke: none;"></path>
  <path d="M176.229279 80.097275C176.229279 79.304581,175.914337 78.544434,175.353851 77.983963C174.793381 77.423477,174.033234 77.108536,173.240540 77.108536C172.447845 77.108536,171.687698 77.423477,171.127228 77.983963C170.566742 78.544434,170.251801 79.304581,170.251801 80.097275C170.251801 80.889969,170.566742 81.650116,171.127228 82.210587C171.687698 82.771072,172.447845 83.086014,173.240540 83.086014C174.033234 83.086014,174.793381 82.771072,175.353851 82.210587C175.914337 81.650116,176.229279 80.889969,176.229279 80.097275Z" style="fill: rgb(100.000000%,100.000000%,100.000000%);stroke: none;"></path>
  <path d="M146.003220 74.862335C146.003220 74.069641,145.688278 73.309494,145.127792 72.749023C144.567322 72.188538,143.807175 71.873596,143.014481 71.873596C142.221786 71.873596,141.461639 72.188538,140.901169 72.749023C140.340683 73.309494,140.025742 74.069641,140.025742 74.862335C140.025742 75.655029,140.340683 76.415176,140.901169 76.975647C141.461639 77.536133,142.221786 77.851074,143.014481 77.851074C143.807175 77.851074,144.567322 77.536133,145.127792 76.975647C145.688278 76.415176,146.003220 75.655029,146.003220 74.862335Z" style="fill: rgb(100.000000%,100.000000%,100.000000%);stroke: none;"></path>
  <path d="M191.279221 128.221268C191.279221 127.428574,190.964279 126.668427,190.403793 126.107956C189.843323 125.547470,189.083176 125.232529,188.290482 125.232529C187.497787 125.232529,186.737640 125.547470,186.177170 126.107956C185.616684 126.668427,185.301743 127.428574,185.301743 128.221268C185.301743 129.013962,185.616684 129.774109,186.177170 130.334579C186.737640 130.895065,187.497787 131.210007,188.290482 131.210007C189.083176 131.210007,189.843323 130.895065,190.403793 130.334579C190.964279 129.774109,191.279221 129.013962,191.279221 128.221268Z" style="fill: rgb(100.000000%,100.000000%,100.000000%);stroke: none;"></path>
  <path d="M187.325180 94.917145C187.325180 94.124451,187.010239 93.364304,186.449753 92.803833C185.889282 92.243347,185.129135 91.928406,184.336441 91.928406C183.543747 91.928406,182.783600 92.243347,182.223129 92.803833C181.662643 93.364304,181.347702 94.124451,181.347702 94.917145C181.347702 95.709839,181.662643 96.469986,182.223129 97.030457C182.783600 97.590942,183.543747 97.905884,184.336441 97.905884C185.129135 97.905884,185.889282 97.590942,186.449753 97.030457C187.010239 96.469986,187.325180 95.709839,187.325180 94.917145Z" style="fill: rgb(100.000000%,100.000000%,100.000000%);stroke: none;"></path>
  <path d="M156.857971 152.476624C156.857971 151.683929,156.543030 150.923782,155.982544 150.363312C155.422073 149.802826,154.661926 149.487885,153.869232 149.487885C153.076538 149.487885,152.316391 149.802826,151.755920 150.363312C151.195435 150.923782,150.880493 151.683929,150.880493 152.476624C150.880493 153.269318,151.195435 154.029465,151.755920 154.589935C152.316391 155.150421,153.076538 155.465363,153.869232 155.465363C154.661926 155.465363,155.422073 155.150421,155.982544 154.589935C156.543030 154.029465,156.857971 153.269318,156.857971 152.476624Z" style="fill: rgb(100.000000%,100.000000%,100.000000%);stroke: none;"></path>
  <path d="M183.873901 144.900894C183.873901 144.108200,183.558960 143.348053,182.998474 142.787582C182.438004 142.227097,181.677856 141.912155,180.885162 141.912155C180.092468 141.912155,179.332321 142.227097,178.771851 142.787582C178.211365 143.348053,177.896423 144.108200,177.896423 144.900894C177.896423 145.693588,178.211365 146.453735,178.771851 147.014206C179.332321 147.574692,180.092468 147.889633,180.885162 147.889633C181.677856 147.889633,182.438004 147.574692,182.998474 147.014206C183.558960 146.453735,183.873901 145.693588,183.873901 144.900894Z" style="fill: rgb(100.000000%,100.000000%,100.000000%);stroke: none;"></path>
  <path d="M121.744614 160.188507C121.744614 159.395813,121.429672 158.635666,120.869186 158.075195C120.308716 157.514709,119.548569 157.199768,118.755875 157.199768C117.963181 157.199768,117.203033 157.514709,116.642563 158.075195C116.082077 158.635666,115.767136 159.395813,115.767136 160.188507C115.767136 160.981201,116.082077 161.741348,116.642563 162.301819C117.203033 162.862305,117.963181 163.177246,118.755875 163.177246C119.548569 163.177246,120.308716 162.862305,120.869186 162.301819C121.429672 161.741348,121.744614 160.981201,121.744614 160.188507Z" style="fill: rgb(100.000000%,100.000000%,100.000000%);stroke: none;"></path>
  <path d="M143.449554 146.253983C143.449554 145.461288,143.134613 144.701141,142.574127 144.140671C142.013657 143.580185,141.253510 143.265244,140.460815 143.265244C139.668121 143.265244,138.907974 143.580185,138.347504 144.140671C137.787018 144.701141,137.472076 145.461288,137.472076 146.253983C137.472076 147.046677,137.787018 147.806824,138.347504 148.367294C138.907974 148.927780,139.668121 149.242722,140.460815 149.242722C141.253510 149.242722,142.013657 148.927780,142.574127 148.367294C143.134613 147.806824,143.449554 147.046677,143.449554 146.253983Z" style="fill: rgb(100.000000%,100.000000%,100.000000%);stroke: none;"></path>
  <path d="M103.270798 199.189423C103.270798 198.396729,102.955856 197.636581,102.395370 197.076111C101.834900 196.515625,101.074753 196.200684,100.282059 196.200684C99.489365 196.200684,98.729218 196.515625,98.168747 197.076111C97.608261 197.636581,97.293320 198.396729,97.293320 199.189423C97.293320 199.982117,97.608261 200.742264,98.168747 201.302734C98.729218 201.863220,99.489365 202.178162,100.282059 202.178162C101.074753 202.178162,101.834900 201.863220,102.395370 201.302734C102.955856 200.742264,103.270798 199.982117,103.270798 199.189423Z" style="fill: rgb(100.000000%,100.000000%,100.000000%);stroke: none;"></path>
  <path d="M122.723343 176.382095C122.723343 175.589401,122.408401 174.829254,121.847916 174.268784C121.287445 173.708298,120.527298 173.393356,119.734604 173.393356C118.941910 173.393356,118.181763 173.708298,117.621292 174.268784C117.060806 174.829254,116.745865 175.589401,116.745865 176.382095C116.745865 177.174789,117.060806 177.934937,117.621292 178.495407C118.181763 179.055893,118.941910 179.370834,119.734604 179.370834C120.527298 179.370834,121.287445 179.055893,121.847916 178.495407C122.408401 177.934937,122.723343 177.174789,122.723343 176.382095Z" style="fill: rgb(100.000000%,100.000000%,100.000000%);stroke: none;"></path>
  <path d="M51.937561 182.178909C51.937561 181.386215,51.622620 180.626068,51.062134 180.065598C50.501663 179.505112,49.741516 179.190170,48.948822 179.190170C48.156128 179.190170,47.395981 179.505112,46.835510 180.065598C46.275024 180.626068,45.960083 181.386215,45.960083 182.178909C45.960083 182.971603,46.275024 183.731750,46.835510 184.292221C47.395981 184.852707,48.156128 185.167648,48.948822 185.167648C49.741516 185.167648,50.501663 184.852707,51.062134 184.292221C51.622620 183.731750,51.937561 182.971603,51.937561 182.178909Z" style="fill: rgb(100.000000%,100.000000%,100.000000%);stroke: none;"></path>
  <path d="M83.871185 197.246796C83.871185 196.454102,83.556244 195.693954,82.995758 195.133484C82.435287 194.572998,81.675140 194.258057,80.882446 194.258057C80.089752 194.258057,79.329605 194.572998,78.769135 195.133484C78.208649 195.693954,77.893707 196.454102,77.893707 197.246796C77.893707 198.039490,78.208649 198.799637,78.769135 199.360107C79.329605 199.920593,80.089752 200.235535,80.882446 200.235535C81.675140 200.235535,82.435287 199.920593,82.995758 199.360107C83.556244 198.799637,83.871185 198.039490,83.871185 197.246796Z" style="fill: rgb(100.000000%,100.000000%,100.000000%);stroke: none;"></path>
  <path d="M37.685211 141.222015C37.685211 140.429321,37.370270 139.669174,36.809784 139.108704C36.249313 138.548218,35.489166 138.233276,34.696472 138.233276C33.903778 138.233276,33.143631 138.548218,32.583160 139.108704C32.022675 139.669174,31.707733 140.429321,31.707733 141.222015C31.707733 142.014709,32.022675 142.774857,32.583160 143.335327C33.143631 143.895813,33.903778 144.210754,34.696472 144.210754C35.489166 144.210754,36.249313 143.895813,36.809784 143.335327C37.370270 142.774857,37.685211 142.014709,37.685211 141.222015Z" style="fill: rgb(100.000000%,100.000000%,100.000000%);stroke: none;"></path>
  <path d="M38.006454 169.523148C38.006454 168.730453,37.691513 167.970306,37.131027 167.409836C36.570557 166.849350,35.810410 166.534409,35.017715 166.534409C34.225021 166.534409,33.464874 166.849350,32.904404 167.409836C32.343918 167.970306,32.028976 168.730453,32.028976 169.523148C32.028976 170.315842,32.343918 171.075989,32.904404 171.636459C33.464874 172.196945,34.225021 172.511887,35.017715 172.511887C35.810410 172.511887,36.570557 172.196945,37.131027 171.636459C37.691513 171.075989,38.006454 170.315842,38.006454 169.523148Z" style="fill: rgb(100.000000%,100.000000%,100.000000%);stroke: none;"></path>
  <path d="M57.486404 121.590424C57.486404 120.797729,57.171463 120.037582,56.610977 119.477112C56.050507 118.916626,55.290359 118.601685,54.497665 118.601685C53.704971 118.601685,52.944824 118.916626,52.384354 119.477112C51.823868 120.037582,51.508926 120.797729,51.508926 121.590424C51.508926 122.383118,51.823868 123.143265,52.384354 123.703735C52.944824 124.264221,53.704971 124.579163,54.497665 124.579163C55.290359 124.579163,56.050507 124.264221,56.610977 123.703735C57.171463 123.143265,57.486404 122.383118,57.486404 121.590424Z" style="fill: rgb(100.000000%,100.000000%,100.000000%);stroke: none;"></path>
  <path d="M44.063202 131.130936C44.063202 130.338242,43.748260 129.578094,43.187775 129.017624C42.627304 128.457138,41.867157 128.142197,41.074463 128.142197C40.281769 128.142197,39.521622 128.457138,38.961151 129.017624C38.400665 129.578094,38.085724 130.338242,38.085724 131.130936C38.085724 131.923630,38.400665 132.683777,38.961151 133.244247C39.521622 133.804733,40.281769 134.119675,41.074463 134.119675C41.867157 134.119675,42.627304 133.804733,43.187775 133.244247C43.748260 132.683777,44.063202 131.923630,44.063202 131.130936Z" style="fill: rgb(100.000000%,100.000000%,100.000000%);stroke: none;"></path>
  <path d="M69.332214 117.153076C69.332214 116.360382,69.017273 115.600235,68.456787 115.039764C67.896317 114.479279,67.136169 114.164337,66.343475 114.164337C65.550781 114.164337,64.790634 114.479279,64.230164 115.039764C63.669678 115.600235,63.354736 116.360382,63.354736 117.153076C63.354736 117.945770,63.669678 118.705917,64.230164 119.266388C64.790634 119.826874,65.550781 120.141815,66.343475 120.141815C67.136169 120.141815,67.896317 119.826874,68.456787 119.266388C69.017273 118.705917,69.332214 117.945770,69.332214 117.153076Z" style="fill: rgb(100.000000%,100.000000%,100.000000%);stroke: none;"></path>
  <path d="M62.199631 119.391068C62.199631 118.598373,61.884689 117.838226,61.324203 117.277756C60.763733 116.717270,60.003586 116.402328,59.210892 116.402328C58.418198 116.402328,57.658051 116.717270,57.097580 117.277756C56.537094 117.838226,56.222153 118.598373,56.222153 119.391068C56.222153 120.183762,56.537094 120.943909,57.097580 121.504379C57.658051 122.064865,58.418198 122.379807,59.210892 122.379807C60.003586 122.379807,60.763733 122.064865,61.324203 121.504379C61.884689 120.943909,62.199631 120.183762,62.199631 119.391068Z" style="fill: rgb(100.000000%,100.000000%,100.000000%);stroke: none;"></path>
  <path d="M73.826889 112.300095C73.826889 111.507401,73.511948 110.747253,72.951462 110.186783C72.390991 109.626297,71.630844 109.311356,70.838150 109.311356C70.045456 109.311356,69.285309 109.626297,68.724838 110.186783C68.164352 110.747253,67.849411 111.507401,67.849411 112.300095C67.849411 113.092789,68.164352 113.852936,68.724838 114.413406C69.285309 114.973892,70.045456 115.288834,70.838150 115.288834C71.630844 115.288834,72.390991 114.973892,72.951462 114.413406C73.511948 113.852936,73.826889 113.092789,73.826889 112.300095Z" style="fill: rgb(100.000000%,100.000000%,100.000000%);stroke: none;"></path>
  <path d="M71.716156 116.439240C71.716156 115.646545,71.401215 114.886398,70.840729 114.325928C70.280258 113.765442,69.520111 113.450500,68.727417 113.450500C67.934723 113.450500,67.174576 113.765442,66.614105 114.325928C66.053619 114.886398,65.738678 115.646545,65.738678 116.439240C65.738678 117.231934,66.053619 117.992081,66.614105 118.552551C67.174576 119.113037,67.934723 119.427979,68.727417 119.427979C69.520111 119.427979,70.280258 119.113037,70.840729 118.552551C71.401215 117.992081,71.716156 117.231934,71.716156 116.439240Z" style="fill: rgb(100.000000%,100.000000%,100.000000%);stroke: none;"></path>
  <path d="M70.735519 103.411011C70.735519 102.618317,70.420578 101.858170,69.860092 101.297699C69.299622 100.737213,68.539474 100.422272,67.746780 100.422272C66.954086 100.422272,66.193939 100.737213,65.633469 101.297699C65.072983 101.858170,64.758041 102.618317,64.758041 103.411011C64.758041 104.203705,65.072983 104.963852,65.633469 105.524323C66.193939 106.084808,66.954086 106.399750,67.746780 106.399750C68.539474 106.399750,69.299622 106.084808,69.860092 105.524323C70.420578 104.963852,70.735519 104.203705,70.735519 103.411011Z" style="fill: rgb(100.000000%,100.000000%,100.000000%);stroke: none;"></path>
  <path d="M72.951828 109.909714C72.951828 109.117020,72.636887 108.356873,72.076401 107.796402C71.515930 107.235916,70.755783 106.920975,69.963089 106.920975C69.170395 106.920975,68.410248 107.235916,67.849777 107.796402C67.289291 108.356873,66.974350 109.117020,66.974350 109.909714C66.974350 110.702408,67.289291 111.462555,67.849777 112.023026C68.410248 112.583511,69.170395 112.898453,69.963089 112.898453C70.755783 112.898453,71.515930 112.583511,72.076401 112.023026C72.636887 111.462555,72.951828 110.702408,72.951828 109.909714Z" style="fill: rgb(100.000000%,100.000000%,100.000000%);stroke: none;"></path>
  <path d="M67.268494 94.428894C67.751480 88.890030,68.664734 83.397156,70.000000 78.000000C71.906601 70.293533,74.666107 62.813110,76.295074 55.041702C79.021667 42.033798,78.328491 28.046173,70.000000 17.789459C60.072754 5.563828,42.593170 2.575638,29.415115 11.100861C15.628128 20.020004,11.414169 38.153458,18.850128 52.988632C24.472183 64.204971,35.642975 71.166245,47.788284 74.464920C55.037231 76.433746,62.544037 77.123001,70.000000 78.000000C75.825912 78.685272,81.852737 79.596924,86.329880 83.401443C90.410049 86.868637,92.326920 92.081650,95.219772 96.559875C97.600601 100.245483,100.226425 104.475830,97.657990 107.727585C95.445282 110.528976,91.384262 109.713669,87.773239 108.946594C84.665680 108.286469,81.497879 107.971664,78.322845 107.876038C75.282928 107.784485,72.237488 107.893723,69.203201 107.681564C66.299789 107.478546,63.050323 107.350906,61.630737 109.781052C60.095016 112.409988,62.156723 115.339767,64.141876 117.843872C66.289841 120.553329,68.116653 123.498337,70.157608 126.288651C72.596237 129.622665,75.332672 132.725876,78.274628 135.625076C83.771896 141.042465,90.021896 145.796051,94.272552 152.255615C101.319061 162.963943,102.108322 177.181625,111.296997 186.274841C121.927338 196.794739,138.733124 196.836243,151.531006 188.514801C164.892517 179.826874,171.647369 163.550369,165.573502 149.194550C160.542343 137.303162,146.992844 130.197952,144.818497 117.259872C142.414078 102.952759,155.186340 91.350906,156.836411 77.256195C159.261047 56.545303,140.466431 41.977219,122.897095 29.671097C106.023102 17.852005,86.021530 6.572906,70.000000 17.789459C60.905411 24.156509,57.880920 36.429794,48.695877 42.680679C39.852798 48.698837,27.911224 47.346237,18.850128 52.988632C2.155182 63.384674,4.075394 86.225571,7.809525 106.496033C11.359695 125.767883,16.662918 146.786575,34.824127 152.468414C44.935257 155.631744,55.582321 152.158035,64.576035 146.456467C69.503387 143.332764,73.989395 139.581696,78.274628 135.625076C82.174469 132.024292,85.983490 128.131302,87.693329 123.096481C89.240982 118.539246,88.860580 113.631439,87.773239 108.946594C87.132507 106.185974,86.305679 103.253799,87.671616 100.771210C89.124573 98.130478,92.288956 97.317566,95.219772 96.559875C102.910431 94.571625,110.298447 91.601593,117.477707 88.206345C130.120377 82.227325,143.014481 74.862335,156.836411 77.256195C173.240540 80.097275,184.336441 94.917145,186.336868 111.766373C188.290482 128.221268,180.885162 144.900894,165.573502 149.194550C153.869232 152.476624,140.460815 146.253983,129.995148 152.972916C118.755875 160.188507,119.734604 176.382095,111.296997 186.274841C100.282059 199.189423,80.882446 197.246796,64.736237 189.628204C48.948822 182.178909,35.017715 169.523148,34.824127 152.468414C34.696472 141.222015,41.074463 131.130936,50.284286 124.585068C54.497665 121.590424,59.210892 119.391068,64.141876 117.843872C66.343475 117.153076,68.727417 116.439240,69.772263 114.390289C70.838150 112.300095,69.963089 109.909714,69.203201 107.681564C67.746780 103.411011,66.876266 98.926926,67.268494 94.428894" style="stroke:rgb(0.000000%,0.000000%,0.000000%); stroke-width: 0.498138;stroke-linecap: round;stroke-linejoin: round;stroke-miterlimit: 10.000000;fill: none;"></path>
  <path d="M67.268494 94.428894C67.751480 88.890030,68.664734 83.397156,70.000000 78.000000" style="stroke:rgb(0.000000%,0.000000%,0.000000%); stroke-width: 1.494400;stroke-linecap: round;stroke-linejoin: round;stroke-miterlimit: 10.000000;fill: none;"></path>
  <path d="M69.203201 107.681564C67.746780 103.411011,66.876266 98.926926,67.268494 94.428894" style="stroke:rgb(0.000000%,0.000000%,0.000000%); stroke-width: 1.494400;stroke-linecap: round;stroke-linejoin: round;stroke-miterlimit: 10.000000;fill: none;"></path>
  <path d="M72.988739 78.000000C72.988739 77.207306,72.673798 76.447159,72.113312 75.886688C71.552841 75.326202,70.792694 75.011261,70.000000 75.011261C69.207306 75.011261,68.447159 75.326202,67.886688 75.886688C67.326202 76.447159,67.011261 77.207306,67.011261 78.000000C67.011261 78.792694,67.326202 79.552841,67.886688 80.113312C68.447159 80.673798,69.207306 80.988739,70.000000 80.988739C70.792694 80.988739,71.552841 80.673798,72.113312 80.113312C72.673798 79.552841,72.988739 78.792694,72.988739 78.000000Z" style="fill: rgb(100.000000%,100.000000%,100.000000%);stroke: none;"></path>
  <path d="M58.816513 76.641907C62.531326 77.169952,66.272018 77.561508,70.000000 78.000000C72.912964 78.342636,75.876144 78.741867,78.670731 79.531006" style="stroke:rgb(0.000000%,0.000000%,0.000000%); stroke-width: 0.498138;stroke-linecap: round;stroke-linejoin: round;stroke-miterlimit: 10.000000;fill: none;"></path>
  <path d="M21.838867 52.988632C21.838867 52.195938,21.523926 51.435791,20.963440 50.875320C20.402969 50.314835,19.642822 49.999893,18.850128 49.999893C18.057434 49.999893,17.297287 50.314835,16.736816 50.875320C16.176331 51.435791,15.861389 52.195938,15.861389 52.988632C15.861389 53.781326,16.176331 54.541473,16.736816 55.101944C17.297287 55.662430,18.057434 55.977371,18.850128 55.977371C19.642822 55.977371,20.402969 55.662430,20.963440 55.101944C21.523926 54.541473,21.838867 53.781326,21.838867 52.988632Z" style="fill: rgb(100.000000%,100.000000%,100.000000%);stroke: none;"></path>
  <path d="M33.854752 47.975571C28.631332 49.094986,23.380676 50.167435,18.850128 52.988632C10.502655 58.186661,6.808975 66.495895,5.668930 76.039444" style="stroke:rgb(0.000000%,0.000000%,0.000000%); stroke-width: 0.498138;stroke-linecap: round;stroke-linejoin: round;stroke-miterlimit: 10.000000;fill: none;"></path>
  <path d="M98.208511 96.559875C98.208511 95.767181,97.893570 95.007034,97.333084 94.446564C96.772614 93.886078,96.012466 93.571136,95.219772 93.571136C94.427078 93.571136,93.666931 93.886078,93.106461 94.446564C92.545975 95.007034,92.231033 95.767181,92.231033 96.559875C92.231033 97.352570,92.545975 98.112717,93.106461 98.673187C93.666931 99.233673,94.427078 99.548615,95.219772 99.548615C96.012466 99.548615,96.772614 99.233673,97.333084 98.673187C97.893570 98.112717,98.208511 97.352570,98.208511 96.559875Z" style="fill: rgb(100.000000%,100.000000%,100.000000%);stroke: none;"></path>
  <path d="M91.220078 89.601532C92.570923 91.897964,93.773346 94.320770,95.219772 96.559875C96.410187 98.402679,97.661850 100.381668,98.294861 102.306427" style="stroke:rgb(0.000000%,0.000000%,0.000000%); stroke-width: 0.498138;stroke-linecap: round;stroke-linejoin: round;stroke-miterlimit: 10.000000;fill: none;"></path>
  <path d="M72.191940 107.681564C72.191940 106.888870,71.876999 106.128723,71.316513 105.568253C70.756042 105.007767,69.995895 104.692825,69.203201 104.692825C68.410507 104.692825,67.650360 105.007767,67.089890 105.568253C66.529404 106.128723,66.214462 106.888870,66.214462 107.681564C66.214462 108.474258,66.529404 109.234406,67.089890 109.794876C67.650360 110.355362,68.410507 110.670303,69.203201 110.670303C69.995895 110.670303,70.756042 110.355362,71.316513 109.794876C71.876999 109.234406,72.191940 108.474258,72.191940 107.681564Z" style="fill: rgb(100.000000%,100.000000%,100.000000%);stroke: none;"></path>
  <path d="M73.760895 107.824020C72.240265 107.813370,70.720337 107.787643,69.203201 107.681564C67.751495 107.580048,66.213272 107.497375,64.860519 107.743866" style="stroke:rgb(0.000000%,0.000000%,0.000000%); stroke-width: 0.498138;stroke-linecap: round;stroke-linejoin: round;stroke-miterlimit: 10.000000;fill: none;"></path>
  <path d="M81.263367 135.625076C81.263367 134.832382,80.948425 134.072235,80.387939 133.511765C79.827469 132.951279,79.067322 132.636337,78.274628 132.636337C77.481934 132.636337,76.721786 132.951279,76.161316 133.511765C75.600830 134.072235,75.285889 134.832382,75.285889 135.625076C75.285889 136.417770,75.600830 137.177917,76.161316 137.738388C76.721786 138.298874,77.481934 138.613815,78.274628 138.613815C79.067322 138.613815,79.827469 138.298874,80.387939 137.738388C80.948425 137.177917,81.263367 136.417770,81.263367 135.625076Z" style="fill: rgb(100.000000%,100.000000%,100.000000%);stroke: none;"></path>
  <path d="M74.027390 131.119934C75.384064 132.674881,76.803650 134.175476,78.274628 135.625076C81.023270 138.333771,83.960083 140.876526,86.741074 143.549545" style="stroke:rgb(0.000000%,0.000000%,0.000000%); stroke-width: 0.498138;stroke-linecap: round;stroke-linejoin: round;stroke-miterlimit: 10.000000;fill: none;"></path>
  <path d="M168.562241 149.194550C168.562241 148.401855,168.247299 147.641708,167.686813 147.081238C167.126343 146.520752,166.366196 146.205811,165.573502 146.205811C164.780807 146.205811,164.020660 146.520752,163.460190 147.081238C162.899704 147.641708,162.584763 148.401855,162.584763 149.194550C162.584763 149.987244,162.899704 150.747391,163.460190 151.307861C164.020660 151.868347,164.780807 152.183289,165.573502 152.183289C166.366196 152.183289,167.126343 151.868347,167.686813 151.307861C168.247299 150.747391,168.562241 149.987244,168.562241 149.194550Z" style="fill: rgb(100.000000%,100.000000%,100.000000%);stroke: none;"></path>
  <path d="M165.840530 170.980118C168.440186 164.030533,168.610428 156.372452,165.573502 149.194550C163.057922 143.248856,158.412750 138.499695,154.124680 133.619705" style="stroke:rgb(0.000000%,0.000000%,0.000000%); stroke-width: 0.498138;stroke-linecap: round;stroke-linejoin: round;stroke-miterlimit: 10.000000;fill: none;"></path>
  <path d="M72.988739 17.789459C72.988739 16.996765,72.673798 16.236618,72.113312 15.676147C71.552841 15.115662,70.792694 14.800720,70.000000 14.800720C69.207306 14.800720,68.447159 15.115662,67.886688 15.676147C67.326202 16.236618,67.011261 16.996765,67.011261 17.789459C67.011261 18.582153,67.326202 19.342300,67.886688 19.902771C68.447159 20.463257,69.207306 20.778198,70.000000 20.778198C70.792694 20.778198,71.552841 20.463257,72.113312 19.902771C72.673798 19.342300,72.988739 18.582153,72.988739 17.789459Z" style="fill: rgb(100.000000%,100.000000%,100.000000%);stroke: none;"></path>
  <path d="M77.293198 35.383881C76.419662 28.978897,74.164246 22.917816,70.000000 17.789459C65.036377 11.676636,58.184662 7.873184,50.926605 6.663589" style="stroke:rgb(0.000000%,0.000000%,0.000000%); stroke-width: 0.498138;stroke-linecap: round;stroke-linejoin: round;stroke-miterlimit: 10.000000;fill: none;"></path>
  <path d="M37.812866 152.468414C37.812866 151.675720,37.497925 150.915573,36.937439 150.355103C36.376968 149.794617,35.616821 149.479675,34.824127 149.479675C34.031433 149.479675,33.271286 149.794617,32.710815 150.355103C32.150330 150.915573,31.835388 151.675720,31.835388 152.468414C31.835388 153.261108,32.150330 154.021255,32.710815 154.581726C33.271286 155.142212,34.031433 155.457153,34.824127 155.457153C35.616821 155.457153,36.376968 155.142212,36.937439 154.581726C37.497925 154.021255,37.812866 153.261108,37.812866 152.468414Z" style="fill: rgb(100.000000%,100.000000%,100.000000%);stroke: none;"></path>
  <path d="M15.837692 134.578491C19.877426 142.952377,25.743530 149.627502,34.824127 152.468414C39.879700 154.050079,45.069244 153.972473,50.119125 152.786758" style="stroke:rgb(0.000000%,0.000000%,0.000000%); stroke-width: 0.498138;stroke-linecap: round;stroke-linejoin: round;stroke-miterlimit: 10.000000;fill: none;"></path>
  <path d="M90.761978 108.946594C90.761978 108.153900,90.447037 107.393753,89.886551 106.833282C89.326080 106.272797,88.565933 105.957855,87.773239 105.957855C86.980545 105.957855,86.220398 106.272797,85.659927 106.833282C85.099442 107.393753,84.784500 108.153900,84.784500 108.946594C84.784500 109.739288,85.099442 110.499435,85.659927 111.059906C86.220398 111.620392,86.980545 111.935333,87.773239 111.935333C88.565933 111.935333,89.326080 111.620392,89.886551 111.059906C90.447037 110.499435,90.761978 109.739288,90.761978 108.946594Z" style="fill: rgb(100.000000%,100.000000%,100.000000%);stroke: none;"></path>
  <path d="M88.721405 116.069382C88.683838 113.687180,88.316910 111.289017,87.773239 108.946594C87.452866 107.566284,87.085968 106.143082,86.969910 104.754623" style="stroke:rgb(0.000000%,0.000000%,0.000000%); stroke-width: 0.498138;stroke-linecap: round;stroke-linejoin: round;stroke-miterlimit: 10.000000;fill: none;"></path>
  <path d="M159.825150 77.256195C159.825150 76.463501,159.510208 75.703354,158.949722 75.142883C158.389252 74.582397,157.629105 74.267456,156.836411 74.267456C156.043716 74.267456,155.283569 74.582397,154.723099 75.142883C154.162613 75.703354,153.847672 76.463501,153.847672 77.256195C153.847672 78.048889,154.162613 78.809036,154.723099 79.369507C155.283569 79.929993,156.043716 80.244934,156.836411 80.244934C157.629105 80.244934,158.389252 79.929993,158.949722 79.369507C159.510208 78.809036,159.825150 78.048889,159.825150 77.256195Z" style="fill: rgb(100.000000%,100.000000%,100.000000%);stroke: none;"></path>
  <path d="M136.714844 79.591431C143.246445 77.302048,149.925446 76.059265,156.836411 77.256195C165.038483 78.676743,171.913498 83.091980,176.988037 89.258240" style="stroke:rgb(0.000000%,0.000000%,0.000000%); stroke-width: 0.498138;stroke-linecap: round;stroke-linejoin: round;stroke-miterlimit: 10.000000;fill: none;"></path>
  <path d="M114.285736 186.274841C114.285736 185.482147,113.970795 184.722000,113.410309 184.161530C112.849838 183.601044,112.089691 183.286102,111.296997 183.286102C110.504303 183.286102,109.744156 183.601044,109.183685 184.161530C108.623199 184.722000,108.308258 185.482147,108.308258 186.274841C108.308258 187.067535,108.623199 187.827682,109.183685 188.388153C109.744156 188.948639,110.504303 189.263580,111.296997 189.263580C112.089691 189.263580,112.849838 188.948639,113.410309 188.388153C113.970795 187.827682,114.285736 187.067535,114.285736 186.274841Z" style="fill: rgb(100.000000%,100.000000%,100.000000%);stroke: none;"></path>
  <path d="M119.595428 168.619965C117.380508 174.806900,115.515793 181.328476,111.296997 186.274841C105.789520 192.732132,98.185883 195.475128,89.940826 195.651474" style="stroke:rgb(0.000000%,0.000000%,0.000000%); stroke-width: 0.498138;stroke-linecap: round;stroke-linejoin: round;stroke-miterlimit: 10.000000;fill: none;"></path>
  <path d="M67.130615 117.843872C67.130615 117.051178,66.815674 116.291031,66.255188 115.730560C65.694717 115.170074,64.934570 114.855133,64.141876 114.855133C63.349182 114.855133,62.589035 115.170074,62.028564 115.730560C61.468079 116.291031,61.153137 117.051178,61.153137 117.843872C61.153137 118.636566,61.468079 119.396713,62.028564 119.957184C62.589035 120.517670,63.349182 120.832611,64.141876 120.832611C64.934570 120.832611,65.694717 120.517670,66.255188 119.957184C66.815674 119.396713,67.130615 118.636566,67.130615 117.843872Z" style="fill: rgb(100.000000%,100.000000%,100.000000%);stroke: none;"></path>
  <path d="M56.943985 120.671661C59.265335 119.554092,61.676392 118.617462,64.141876 117.843872C65.242676 117.498474,66.389069 117.147308,67.390869 116.626373" style="stroke:rgb(0.000000%,0.000000%,0.000000%); stroke-width: 0.498138;stroke-linecap: round;stroke-linejoin: round;stroke-miterlimit: 10.000000;fill: none;"></path>
  <path d="M76.295074 55.041702C78.476364 44.635345,78.468964 33.601959,74.114532 24.353409" style="stroke:rgb(0.000000%,0.000000%,0.000000%); stroke-width: 0.498138;stroke-linecap: round;stroke-linejoin: round;stroke-miterlimit: 10.000000;fill: none;"></path>
  <path d="M76.242645 26.467941C75.564621 25.733215,74.855576 25.027405,74.114532 24.353409C74.161911 25.354004,74.164200 26.354431,74.124084 27.353409Z" style="stroke:rgb(0.000000%,0.000000%,0.000000%); stroke-width: 0.498138;fill: rgb(0.000000%,0.000000%,0.000000%);"></path>
  <path d="M86.329880 83.401443C89.594025 86.175201,91.473663 90.066299,93.576096 93.804657" style="stroke:rgb(0.000000%,0.000000%,0.000000%); stroke-width: 0.498138;stroke-linecap: round;stroke-linejoin: round;stroke-miterlimit: 10.000000;fill: none;"></path>
  <path d="M91.228012 91.937271C92.011139 92.556931,92.789612 93.186951,93.576096 93.804657C93.456787 92.811737,93.351807 91.815781,93.236252 90.823868Z" style="stroke:rgb(0.000000%,0.000000%,0.000000%); stroke-width: 0.498138;fill: rgb(0.000000%,0.000000%,0.000000%);"></path>
  <path d="M61.630737 109.781052C60.402161 111.884216,61.475937 114.179901,62.971008 116.296173" style="stroke:rgb(0.000000%,0.000000%,0.000000%); stroke-width: 0.498138;stroke-linecap: round;stroke-linejoin: round;stroke-miterlimit: 10.000000;fill: none;"></path>
  <path d="M60.608261 114.447586C61.263000 115.132736,62.091156 115.740829,62.971008 116.296173C62.741577 115.281326,62.585968 114.265762,62.607498 113.318314Z" style="stroke:rgb(0.000000%,0.000000%,0.000000%); stroke-width: 0.498138;fill: rgb(0.000000%,0.000000%,0.000000%);"></path>
  <path d="M70.157608 126.288651C72.108521 128.955872,74.250031 131.475372,76.534897 133.860886" style="stroke:rgb(0.000000%,0.000000%,0.000000%); stroke-width: 0.498138;stroke-linecap: round;stroke-linejoin: round;stroke-miterlimit: 10.000000;fill: none;"></path>
  <path d="M73.811340 132.603104C74.711029 133.039322,75.619247 133.458282,76.534897 133.860886C76.172134 132.928741,75.826202 131.990280,75.498474 131.045639Z" style="stroke:rgb(0.000000%,0.000000%,0.000000%); stroke-width: 0.498138;fill: rgb(0.000000%,0.000000%,0.000000%);"></path>
  <path d="M151.531006 188.514801C162.220261 181.564438,168.681213 169.757339,167.728134 157.962311" style="stroke:rgb(0.000000%,0.000000%,0.000000%); stroke-width: 0.498138;stroke-linecap: round;stroke-linejoin: round;stroke-miterlimit: 10.000000;fill: none;"></path>
  <path d="M168.953751 160.700485C168.594025 159.769608,168.185715 158.855713,167.728134 157.962311C167.419937 158.917572,167.062439 159.852524,166.658554 160.765121Z" style="stroke:rgb(0.000000%,0.000000%,0.000000%); stroke-width: 0.498138;fill: rgb(0.000000%,0.000000%,0.000000%);"></path>
  <path d="M48.695877 42.680679C41.621384 47.495224,32.563843 47.592453,24.584518 50.327698" style="stroke:rgb(0.000000%,0.000000%,0.000000%); stroke-width: 0.498138;stroke-linecap: round;stroke-linejoin: round;stroke-miterlimit: 10.000000;fill: none;"></path>
  <path d="M26.903000 48.423752C26.108353 49.036301,25.332413 49.667831,24.584518 50.327698C25.579941 50.389969,26.575180 50.492081,27.570206 50.620865Z" style="stroke:rgb(0.000000%,0.000000%,0.000000%); stroke-width: 0.498138;fill: rgb(0.000000%,0.000000%,0.000000%);"></path>
  <path d="M87.671616 100.771210C88.833984 98.658615,91.091675 97.715836,93.448837 97.035294" style="stroke:rgb(0.000000%,0.000000%,0.000000%); stroke-width: 0.498138;stroke-linecap: round;stroke-linejoin: round;stroke-miterlimit: 10.000000;fill: none;"></path>
  <path d="M91.252319 99.078644C91.891068 98.340607,92.653412 97.670364,93.448837 97.035294C92.437317 96.921890,91.424332 96.856750,90.450806 96.926941Z" style="stroke:rgb(0.000000%,0.000000%,0.000000%); stroke-width: 0.498138;fill: rgb(0.000000%,0.000000%,0.000000%);"></path>
  <path d="M117.477707 88.206345C127.591888 83.423111,137.866974 77.752853,148.649307 76.901779" style="stroke:rgb(0.000000%,0.000000%,0.000000%); stroke-width: 0.498138;stroke-linecap: round;stroke-linejoin: round;stroke-miterlimit: 10.000000;fill: none;"></path>
  <path d="M146.033203 78.369980C146.886780 77.846863,147.758148 77.356110,148.649307 76.901779C147.697906 76.592865,146.734741 76.323730,145.761292 76.090042Z" style="stroke:rgb(0.000000%,0.000000%,0.000000%); stroke-width: 0.498138;fill: rgb(0.000000%,0.000000%,0.000000%);"></path>
  <path d="M129.995148 152.972916C121.003693 158.745407,119.831833 170.263870,115.402634 179.705429" style="stroke:rgb(0.000000%,0.000000%,0.000000%); stroke-width: 0.498138;stroke-linecap: round;stroke-linejoin: round;stroke-miterlimit: 10.000000;fill: none;"></path>
  <path d="M115.447266 176.705734C115.459381 177.710022,115.448334 178.710800,115.402634 179.705429C116.138275 179.034439,116.853760 178.334625,117.555328 177.615921Z" style="stroke:rgb(0.000000%,0.000000%,0.000000%); stroke-width: 0.498138;fill: rgb(0.000000%,0.000000%,0.000000%);"></path>
  <path d="M69.772263 114.390289C70.624969 112.718124,70.235474 110.853851,69.656509 109.034210" style="stroke:rgb(0.000000%,0.000000%,0.000000%); stroke-width: 0.498138;stroke-linecap: round;stroke-linejoin: round;stroke-miterlimit: 10.000000;fill: none;"></path>
  <path d="M71.340759 111.516800C70.935349 110.637268,70.318771 109.819290,69.656509 109.034210C69.569656 110.057632,69.427231 111.072021,69.091949 111.980606Z" style="stroke:rgb(0.000000%,0.000000%,0.000000%); stroke-width: 0.498138;fill: rgb(0.000000%,0.000000%,0.000000%);"></path>
  <path d="M64.277847 97.139099L70.259140 97.139099L70.259140 89.718704L64.277847 89.718704Z" style="fill: rgb(100.000000%,100.000000%,100.000000%);stroke: none;"></path>
  <path d="M64.277847 99.139099L70.259140 99.139099L70.259140 91.718704L64.277847 91.718704Z" style="fill: rgb(100.000000%,100.000000%,100.000000%);stroke: none;"></path>
  <g transform="translate(64.777847 97.639099)" style="fill: rgb(0.000000%,0.000000%,0.000000%);">
    <use xlink:href="#GLYPHcmr10_49"></use>
  </g>
  <path d="M26.424469 13.811066L32.405762 13.811066L32.405762 6.390671L26.424469 6.390671Z" style="fill: rgb(100.000000%,100.000000%,100.000000%);stroke: none;"></path>
  <path d="M26.424469 15.811066L32.405762 15.811066L32.405762 8.390671L26.424469 8.390671Z" style="fill: rgb(100.000000%,100.000000%,100.000000%);stroke: none;"></path>
  <g transform="translate(26.924469 14.311066)" style="fill: rgb(0.000000%,0.000000%,0.000000%);">
    <use xlink:href="#GLYPHcmr10_50"></use>
  </g>
  <path d="M44.797638 77.175125L50.778931 77.175125L50.778931 69.754730L44.797638 69.754730Z" style="fill: rgb(100.000000%,100.000000%,100.000000%);stroke: none;"></path>
  <path d="M44.797638 79.175125L50.778931 79.175125L50.778931 71.754730L44.797638 71.754730Z" style="fill: rgb(100.000000%,100.000000%,100.000000%);stroke: none;"></path>
  <g transform="translate(45.297638 77.675125)" style="fill: rgb(0.000000%,0.000000%,0.000000%);">
    <use xlink:href="#GLYPHcmr10_51"></use>
  </g>
  <path d="M75.332199 110.586243L81.313492 110.586243L81.313492 103.165848L75.332199 103.165848Z" style="fill: rgb(100.000000%,100.000000%,100.000000%);stroke: none;"></path>
  <path d="M75.332199 112.586243L81.313492 112.586243L81.313492 105.165848L75.332199 105.165848Z" style="fill: rgb(100.000000%,100.000000%,100.000000%);stroke: none;"></path>
  <g transform="translate(75.832199 111.086243)" style="fill: rgb(0.000000%,0.000000%,0.000000%);">
    <use xlink:href="#GLYPHcmr10_52"></use>
  </g>
  <path d="M91.281906 154.965820L97.263199 154.965820L97.263199 147.545425L91.281906 147.545425Z" style="fill: rgb(100.000000%,100.000000%,100.000000%);stroke: none;"></path>
  <path d="M91.281906 156.965820L97.263199 156.965820L97.263199 149.545425L91.281906 149.545425Z" style="fill: rgb(100.000000%,100.000000%,100.000000%);stroke: none;"></path>
  <g transform="translate(91.781906 155.465820)" style="fill: rgb(0.000000%,0.000000%,0.000000%);">
    <use xlink:href="#GLYPHcmr10_53"></use>
  </g>
  <path d="M141.827850 119.970078L147.809143 119.970078L147.809143 112.549683L141.827850 112.549683Z" style="fill: rgb(100.000000%,100.000000%,100.000000%);stroke: none;"></path>
  <path d="M141.827850 121.970078L147.809143 121.970078L147.809143 114.549683L141.827850 114.549683Z" style="fill: rgb(100.000000%,100.000000%,100.000000%);stroke: none;"></path>
  <g transform="translate(142.327850 120.470078)" style="fill: rgb(0.000000%,0.000000%,0.000000%);">
    <use xlink:href="#GLYPHcmr10_54"></use>
  </g>
  <path d="M119.906448 32.381302L125.887741 32.381302L125.887741 24.960907L119.906448 24.960907Z" style="fill: rgb(100.000000%,100.000000%,100.000000%);stroke: none;"></path>
  <path d="M119.906448 34.381302L125.887741 34.381302L125.887741 26.960907L119.906448 26.960907Z" style="fill: rgb(100.000000%,100.000000%,100.000000%);stroke: none;"></path>
  <g transform="translate(120.406448 32.881302)" style="fill: rgb(0.000000%,0.000000%,0.000000%);">
    <use xlink:href="#GLYPHcmr10_55"></use>
  </g>
  <path d="M4.818878 109.206238L10.800171 109.206238L10.800171 101.785843L4.818878 101.785843Z" style="fill: rgb(100.000000%,100.000000%,100.000000%);stroke: none;"></path>
  <path d="M4.818878 111.206238L10.800171 111.206238L10.800171 103.785843L4.818878 103.785843Z" style="fill: rgb(100.000000%,100.000000%,100.000000%);stroke: none;"></path>
  <g transform="translate(5.318878 109.706238)" style="fill: rgb(0.000000%,0.000000%,0.000000%);">
    <use xlink:href="#GLYPHcmr10_56"></use>
  </g>
  <path d="M84.702682 125.806686L90.683975 125.806686L90.683975 118.386292L84.702682 118.386292Z" style="fill: rgb(100.000000%,100.000000%,100.000000%);stroke: none;"></path>
  <path d="M84.702682 127.806686L90.683975 127.806686L90.683975 120.386292L84.702682 120.386292Z" style="fill: rgb(100.000000%,100.000000%,100.000000%);stroke: none;"></path>
  <g transform="translate(85.202682 126.306686)" style="fill: rgb(0.000000%,0.000000%,0.000000%);">
    <use xlink:href="#GLYPHcmr10_57"></use>
  </g>
  <path d="M180.855515 114.476578L191.818222 114.476578L191.818222 107.056183L180.855515 107.056183Z" style="fill: rgb(100.000000%,100.000000%,100.000000%);stroke: none;"></path>
  <path d="M180.855515 116.476578L191.818222 116.476578L191.818222 109.056183L180.855515 109.056183Z" style="fill: rgb(100.000000%,100.000000%,100.000000%);stroke: none;"></path>
  <g transform="translate(181.355515 114.976578)" style="fill: rgb(0.000000%,0.000000%,0.000000%);">
    <use xlink:href="#GLYPHcmr10_49"></use>
    <use xlink:href="#GLYPHcmr10_48" x="5.000095"></use>
  </g>
  <path d="M59.254883 192.338409L70.217590 192.338409L70.217590 184.918015L59.254883 184.918015Z" style="fill: rgb(100.000000%,100.000000%,100.000000%);stroke: none;"></path>
  <path d="M59.254883 194.338409L70.217590 194.338409L70.217590 186.918015L59.254883 186.918015Z" style="fill: rgb(100.000000%,100.000000%,100.000000%);stroke: none;"></path>
  <g transform="translate(59.754883 192.838409)" style="fill: rgb(0.000000%,0.000000%,0.000000%);">
    <use xlink:href="#GLYPHcmr10_49"></use>
    <use xlink:href="#GLYPHcmr10_49" x="5.000095"></use>
  </g>
  <path d="M44.802933 127.295273L55.765640 127.295273L55.765640 119.874878L44.802933 119.874878Z" style="fill: rgb(100.000000%,100.000000%,100.000000%);stroke: none;"></path>
  <path d="M44.802933 129.295273L55.765640 129.295273L55.765640 121.874878L44.802933 121.874878Z" style="fill: rgb(100.000000%,100.000000%,100.000000%);stroke: none;"></path>
  <g transform="translate(45.302933 127.795273)" style="fill: rgb(0.000000%,0.000000%,0.000000%);">
    <use xlink:href="#GLYPHcmr10_49"></use>
    <use xlink:href="#GLYPHcmr10_50" x="5.000095"></use>
  </g>
</svg>
