<?xml version="1.0"?>
<!-- Created by MetaPost 1.999 on 2021.07.06:0002 -->
<svg version="1.1" xmlns="http://www.w3.org/2000/svg" xmlns:xlink="http://www.w3.org/1999/xlink" width="193.305603" height="187.937363" viewBox="0 0 193.305603 187.937363">
<!-- Original BoundingBox: -97.910004 -88.312408 95.395599 99.624954 -->
  <defs>
    <g transform="scale(0.009963,0.009963)" id="GLYPHcmr10_48">
      <path style="fill-rule: evenodd;" d="M460.000000 -320.000000C460.000000 -400.000000,455.000000 -480.000000,420.000000 -554.000000C374.000000 -650.000000,292.000000 -666.000000,250.000000 -666.000000C190.000000 -666.000000,117.000000 -640.000000,76.000000 -547.000000C44.000000 -478.000000,39.000000 -400.000000,39.000000 -320.000000C39.000000 -245.000000,43.000000 -155.000000,84.000000 -79.000000C127.000000 2.000000,200.000000 22.000000,249.000000 22.000000C303.000000 22.000000,379.000000 1.000000,423.000000 -94.000000C455.000000 -163.000000,460.000000 -241.000000,460.000000 -320.000000M249.000000 -0.000000C210.000000 -0.000000,151.000000 -25.000000,133.000000 -121.000000C122.000000 -181.000000,122.000000 -273.000000,122.000000 -332.000000C122.000000 -396.000000,122.000000 -462.000000,130.000000 -516.000000C149.000000 -635.000000,224.000000 -644.000000,249.000000 -644.000000C282.000000 -644.000000,348.000000 -626.000000,367.000000 -527.000000C377.000000 -471.000000,377.000000 -395.000000,377.000000 -332.000000C377.000000 -257.000000,377.000000 -189.000000,366.000000 -125.000000C351.000000 -30.000000,294.000000 -0.000000,249.000000 -0.000000"></path>
    </g>
    <g transform="scale(0.009963,0.009963)" id="GLYPHcmr10_49">
      <path style="fill-rule: evenodd;" d="M294.000000 -640.000000C294.000000 -664.000000,294.000000 -666.000000,271.000000 -666.000000C209.000000 -602.000000,121.000000 -602.000000,89.000000 -602.000000L89.000000 -571.000000C109.000000 -571.000000,168.000000 -571.000000,220.000000 -597.000000L220.000000 -79.000000C220.000000 -43.000000,217.000000 -31.000000,127.000000 -31.000000L95.000000 -31.000000L95.000000 -0.000000L257.000000 -0.000000L130.000000 -3.000000L217.000000 -3.000000L257.000000 -3.000000L297.000000 -3.000000L384.000000 -3.000000L419.000000 -0.000000L419.000000 -31.000000L387.000000 -31.000000C297.000000 -31.000000,294.000000 -42.000000,294.000000 -79.000000"></path>
    </g>
    <g transform="scale(0.009963,0.009963)" id="GLYPHcmr10_50">
      <path style="fill-rule: evenodd;" d="M127.000000 -77.000000L233.000000 -180.000000C389.000000 -318.000000,449.000000 -372.000000,449.000000 -472.000000C449.000000 -586.000000,359.000000 -666.000000,237.000000 -666.000000C124.000000 -666.000000,50.000000 -574.000000,50.000000 -485.000000C50.000000 -429.000000,100.000000 -429.000000,103.000000 -429.000000C120.000000 -429.000000,155.000000 -441.000000,155.000000 -482.000000C155.000000 -508.000000,137.000000 -534.000000,102.000000 -534.000000C94.000000 -534.000000,92.000000 -534.000000,89.000000 -533.000000C112.000000 -598.000000,166.000000 -635.000000,224.000000 -635.000000C315.000000 -635.000000,358.000000 -554.000000,358.000000 -472.000000C358.000000 -392.000000,308.000000 -313.000000,253.000000 -251.000000L61.000000 -37.000000C50.000000 -26.000000,50.000000 -24.000000,50.000000 -0.000000L421.000000 -0.000000L449.000000 -174.000000L424.000000 -174.000000C419.000000 -144.000000,412.000000 -100.000000,402.000000 -85.000000C395.000000 -77.000000,329.000000 -77.000000,307.000000 -77.000000"></path>
    </g>
    <g transform="scale(0.009963,0.009963)" id="GLYPHcmr10_51">
      <path style="fill-rule: evenodd;" d="M290.000000 -352.000000C372.000000 -379.000000,430.000000 -449.000000,430.000000 -528.000000C430.000000 -610.000000,342.000000 -666.000000,246.000000 -666.000000C145.000000 -666.000000,69.000000 -606.000000,69.000000 -530.000000C69.000000 -497.000000,91.000000 -478.000000,120.000000 -478.000000C151.000000 -478.000000,171.000000 -500.000000,171.000000 -529.000000C171.000000 -579.000000,124.000000 -579.000000,109.000000 -579.000000C140.000000 -628.000000,206.000000 -641.000000,242.000000 -641.000000C283.000000 -641.000000,338.000000 -619.000000,338.000000 -529.000000C338.000000 -517.000000,336.000000 -459.000000,310.000000 -415.000000C280.000000 -367.000000,246.000000 -364.000000,221.000000 -363.000000C213.000000 -362.000000,189.000000 -360.000000,182.000000 -360.000000C174.000000 -359.000000,167.000000 -358.000000,167.000000 -348.000000C167.000000 -337.000000,174.000000 -337.000000,191.000000 -337.000000L235.000000 -337.000000C317.000000 -337.000000,354.000000 -269.000000,354.000000 -171.000000C354.000000 -35.000000,285.000000 -6.000000,241.000000 -6.000000C198.000000 -6.000000,123.000000 -23.000000,88.000000 -82.000000C123.000000 -77.000000,154.000000 -99.000000,154.000000 -137.000000C154.000000 -173.000000,127.000000 -193.000000,98.000000 -193.000000C74.000000 -193.000000,42.000000 -179.000000,42.000000 -135.000000C42.000000 -44.000000,135.000000 22.000000,244.000000 22.000000C366.000000 22.000000,457.000000 -69.000000,457.000000 -171.000000C457.000000 -253.000000,394.000000 -331.000000,290.000000 -352.000000"></path>
    </g>
    <g transform="scale(0.009963,0.009963)" id="GLYPHcmr10_52">
      <path style="fill-rule: evenodd;" d="M294.000000 -165.000000L294.000000 -78.000000C294.000000 -42.000000,292.000000 -31.000000,218.000000 -31.000000L197.000000 -31.000000L197.000000 -0.000000L332.000000 -0.000000L238.000000 -3.000000L290.000000 -3.000000L332.000000 -3.000000L374.000000 -3.000000L427.000000 -3.000000L468.000000 -0.000000L468.000000 -31.000000L447.000000 -31.000000C373.000000 -31.000000,371.000000 -42.000000,371.000000 -78.000000L371.000000 -165.000000L471.000000 -165.000000L471.000000 -196.000000L371.000000 -196.000000L371.000000 -651.000000C371.000000 -671.000000,371.000000 -677.000000,355.000000 -677.000000C346.000000 -677.000000,343.000000 -677.000000,335.000000 -665.000000L28.000000 -196.000000L28.000000 -165.000000M300.000000 -196.000000L56.000000 -196.000000L300.000000 -569.000000"></path>
    </g>
    <g transform="scale(0.009963,0.009963)" id="GLYPHcmr10_53">
      <path style="fill-rule: evenodd;" d="M449.000000 -201.000000C449.000000 -320.000000,367.000000 -420.000000,259.000000 -420.000000C211.000000 -420.000000,168.000000 -404.000000,132.000000 -369.000000L132.000000 -564.000000C152.000000 -558.000000,185.000000 -551.000000,217.000000 -551.000000C340.000000 -551.000000,410.000000 -642.000000,410.000000 -655.000000C410.000000 -661.000000,407.000000 -666.000000,400.000000 -666.000000C399.000000 -666.000000,397.000000 -666.000000,392.000000 -663.000000C372.000000 -654.000000,323.000000 -634.000000,256.000000 -634.000000C216.000000 -634.000000,170.000000 -641.000000,123.000000 -662.000000C115.000000 -665.000000,113.000000 -665.000000,111.000000 -665.000000C101.000000 -665.000000,101.000000 -657.000000,101.000000 -641.000000L101.000000 -345.000000C101.000000 -327.000000,101.000000 -319.000000,115.000000 -319.000000C122.000000 -319.000000,124.000000 -322.000000,128.000000 -328.000000C139.000000 -344.000000,176.000000 -398.000000,257.000000 -398.000000C309.000000 -398.000000,334.000000 -352.000000,342.000000 -334.000000C358.000000 -297.000000,360.000000 -258.000000,360.000000 -208.000000C360.000000 -173.000000,360.000000 -113.000000,336.000000 -71.000000C312.000000 -32.000000,275.000000 -6.000000,229.000000 -6.000000C156.000000 -6.000000,99.000000 -59.000000,82.000000 -118.000000C85.000000 -117.000000,88.000000 -116.000000,99.000000 -116.000000C132.000000 -116.000000,149.000000 -141.000000,149.000000 -165.000000C149.000000 -189.000000,132.000000 -214.000000,99.000000 -214.000000C85.000000 -214.000000,50.000000 -207.000000,50.000000 -161.000000C50.000000 -75.000000,119.000000 22.000000,231.000000 22.000000C347.000000 22.000000,449.000000 -74.000000,449.000000 -201.000000"></path>
    </g>
    <g transform="scale(0.009963,0.009963)" id="GLYPHcmr10_54">
      <path style="fill-rule: evenodd;" d="M132.000000 -328.000000L132.000000 -352.000000C132.000000 -605.000000,256.000000 -641.000000,307.000000 -641.000000C331.000000 -641.000000,373.000000 -635.000000,395.000000 -601.000000C380.000000 -601.000000,340.000000 -601.000000,340.000000 -556.000000C340.000000 -525.000000,364.000000 -510.000000,386.000000 -510.000000C402.000000 -510.000000,432.000000 -519.000000,432.000000 -558.000000C432.000000 -618.000000,388.000000 -666.000000,305.000000 -666.000000C177.000000 -666.000000,42.000000 -537.000000,42.000000 -316.000000C42.000000 -49.000000,158.000000 22.000000,251.000000 22.000000C362.000000 22.000000,457.000000 -72.000000,457.000000 -204.000000C457.000000 -331.000000,368.000000 -427.000000,257.000000 -427.000000C189.000000 -427.000000,152.000000 -376.000000,132.000000 -328.000000M251.000000 -6.000000C188.000000 -6.000000,158.000000 -66.000000,152.000000 -81.000000C134.000000 -128.000000,134.000000 -208.000000,134.000000 -226.000000C134.000000 -304.000000,166.000000 -404.000000,256.000000 -404.000000C272.000000 -404.000000,318.000000 -404.000000,349.000000 -342.000000C367.000000 -305.000000,367.000000 -254.000000,367.000000 -205.000000C367.000000 -157.000000,367.000000 -107.000000,350.000000 -71.000000C320.000000 -11.000000,274.000000 -6.000000,251.000000 -6.000000"></path>
    </g>
    <g transform="scale(0.009963,0.009963)" id="GLYPHcmr10_55">
      <path style="fill-rule: evenodd;" d="M476.000000 -609.000000C485.000000 -621.000000,485.000000 -623.000000,485.000000 -644.000000L242.000000 -644.000000C120.000000 -644.000000,118.000000 -657.000000,114.000000 -676.000000L89.000000 -676.000000L56.000000 -470.000000L81.000000 -470.000000C84.000000 -486.000000,93.000000 -549.000000,106.000000 -561.000000C113.000000 -567.000000,191.000000 -567.000000,204.000000 -567.000000L411.000000 -567.000000C400.000000 -551.000000,321.000000 -442.000000,299.000000 -409.000000C209.000000 -274.000000,176.000000 -135.000000,176.000000 -33.000000C176.000000 -23.000000,176.000000 22.000000,222.000000 22.000000C268.000000 22.000000,268.000000 -23.000000,268.000000 -33.000000L268.000000 -84.000000C268.000000 -139.000000,271.000000 -194.000000,279.000000 -248.000000C283.000000 -271.000000,297.000000 -357.000000,341.000000 -419.000000"></path>
    </g>
    <g transform="scale(0.009963,0.009963)" id="GLYPHcmr10_56">
      <path style="fill-rule: evenodd;" d="M163.000000 -457.000000C117.000000 -487.000000,113.000000 -521.000000,113.000000 -538.000000C113.000000 -599.000000,178.000000 -641.000000,249.000000 -641.000000C322.000000 -641.000000,386.000000 -589.000000,386.000000 -517.000000C386.000000 -460.000000,347.000000 -412.000000,287.000000 -377.000000M309.000000 -362.000000C381.000000 -399.000000,430.000000 -451.000000,430.000000 -517.000000C430.000000 -609.000000,341.000000 -666.000000,250.000000 -666.000000C150.000000 -666.000000,69.000000 -592.000000,69.000000 -499.000000C69.000000 -481.000000,71.000000 -436.000000,113.000000 -389.000000C124.000000 -377.000000,161.000000 -352.000000,186.000000 -335.000000C128.000000 -306.000000,42.000000 -250.000000,42.000000 -151.000000C42.000000 -45.000000,144.000000 22.000000,249.000000 22.000000C362.000000 22.000000,457.000000 -61.000000,457.000000 -168.000000C457.000000 -204.000000,446.000000 -249.000000,408.000000 -291.000000C389.000000 -312.000000,373.000000 -322.000000,309.000000 -362.000000M209.000000 -320.000000L332.000000 -242.000000C360.000000 -223.000000,407.000000 -193.000000,407.000000 -132.000000C407.000000 -58.000000,332.000000 -6.000000,250.000000 -6.000000C164.000000 -6.000000,92.000000 -68.000000,92.000000 -151.000000C92.000000 -209.000000,124.000000 -273.000000,209.000000 -320.000000"></path>
    </g>
    <g transform="scale(0.009963,0.009963)" id="GLYPHcmr10_57">
      <path style="fill-rule: evenodd;" d="M367.000000 -318.000000L367.000000 -286.000000C367.000000 -52.000000,263.000000 -6.000000,205.000000 -6.000000C188.000000 -6.000000,134.000000 -8.000000,107.000000 -42.000000C151.000000 -42.000000,159.000000 -71.000000,159.000000 -88.000000C159.000000 -119.000000,135.000000 -134.000000,113.000000 -134.000000C97.000000 -134.000000,67.000000 -125.000000,67.000000 -86.000000C67.000000 -19.000000,121.000000 22.000000,206.000000 22.000000C335.000000 22.000000,457.000000 -114.000000,457.000000 -329.000000C457.000000 -598.000000,342.000000 -666.000000,253.000000 -666.000000C198.000000 -666.000000,149.000000 -648.000000,106.000000 -603.000000C65.000000 -558.000000,42.000000 -516.000000,42.000000 -441.000000C42.000000 -316.000000,130.000000 -218.000000,242.000000 -218.000000C303.000000 -218.000000,344.000000 -260.000000,367.000000 -318.000000M243.000000 -241.000000C227.000000 -241.000000,181.000000 -241.000000,150.000000 -304.000000C132.000000 -341.000000,132.000000 -391.000000,132.000000 -440.000000C132.000000 -494.000000,132.000000 -541.000000,153.000000 -578.000000C180.000000 -628.000000,218.000000 -641.000000,253.000000 -641.000000C299.000000 -641.000000,332.000000 -607.000000,349.000000 -562.000000C361.000000 -530.000000,365.000000 -467.000000,365.000000 -421.000000C365.000000 -338.000000,331.000000 -241.000000,243.000000 -241.000000"></path>
    </g>
  </defs>
  <path d="M95.735123 117.825897C95.735123 117.033203,95.420181 116.273056,94.859695 115.712585C94.299225 115.152100,93.539078 114.837158,92.746384 114.837158C91.953690 114.837158,91.193542 115.152100,90.633072 115.712585C90.072586 116.273056,89.757645 117.033203,89.757645 117.825897C89.757645 118.618591,90.072586 119.378738,90.633072 119.939209C91.193542 120.499695,91.953690 120.814636,92.746384 120.814636C93.539078 120.814636,94.299225 120.499695,94.859695 119.939209C95.420181 119.378738,95.735123 118.618591,95.735123 117.825897Z" style="fill: rgb(100.000000%,100.000000%,100.000000%);stroke: none;"></path>
  <path d="M93.941330 127.307938C93.941330 126.515244,93.626389 125.755096,93.065903 125.194626C92.505432 124.634140,91.745285 124.319199,90.952591 124.319199C90.159897 124.319199,89.399750 124.634140,88.839279 125.194626C88.278793 125.755096,87.963852 126.515244,87.963852 127.307938C87.963852 128.100632,88.278793 128.860779,88.839279 129.421249C89.399750 129.981735,90.159897 130.296677,90.952591 130.296677C91.745285 130.296677,92.505432 129.981735,93.065903 129.421249C93.626389 128.860779,93.941330 128.100632,93.941330 127.307938Z" style="fill: rgb(100.000000%,100.000000%,100.000000%);stroke: none;"></path>
  <path d="M101.973282 90.673096C101.973282 89.880402,101.658340 89.120255,101.097855 88.559784C100.537384 87.999298,99.777237 87.684357,98.984543 87.684357C98.191849 87.684357,97.431702 87.999298,96.871231 88.559784C96.310745 89.120255,95.995804 89.880402,95.995804 90.673096C95.995804 91.465790,96.310745 92.225937,96.871231 92.786407C97.431702 93.346893,98.191849 93.661835,98.984543 93.661835C99.777237 93.661835,100.537384 93.346893,101.097855 92.786407C101.658340 92.225937,101.973282 91.465790,101.973282 90.673096Z" style="fill: rgb(100.000000%,100.000000%,100.000000%);stroke: none;"></path>
  <path d="M97.751465 108.387314C97.751465 107.594620,97.436523 106.834473,96.876038 106.274002C96.315567 105.713516,95.555420 105.398575,94.762726 105.398575C93.970032 105.398575,93.209885 105.713516,92.649414 106.274002C92.088928 106.834473,91.773987 107.594620,91.773987 108.387314C91.773987 109.180008,92.088928 109.940155,92.649414 110.500626C93.209885 111.061111,93.970032 111.376053,94.762726 111.376053C95.555420 111.376053,96.315567 111.061111,96.876038 110.500626C97.436523 109.940155,97.751465 109.180008,97.751465 108.387314Z" style="fill: rgb(100.000000%,100.000000%,100.000000%);stroke: none;"></path>
  <path d="M104.047089 65.850357C104.047089 65.057663,103.732147 64.297516,103.171661 63.737045C102.611191 63.176559,101.851044 62.861618,101.058350 62.861618C100.265656 62.861618,99.505508 63.176559,98.945038 63.737045C98.384552 64.297516,98.069611 65.057663,98.069611 65.850357C98.069611 66.643051,98.384552 67.403198,98.945038 67.963669C99.505508 68.524155,100.265656 68.839096,101.058350 68.839096C101.851044 68.839096,102.611191 68.524155,103.171661 67.963669C103.732147 67.403198,104.047089 66.643051,104.047089 65.850357Z" style="fill: rgb(100.000000%,100.000000%,100.000000%);stroke: none;"></path>
  <path d="M104.139679 82.311752C104.139679 81.519058,103.824738 80.758911,103.264252 80.198441C102.703781 79.637955,101.943634 79.323013,101.150940 79.323013C100.358246 79.323013,99.598099 79.637955,99.037628 80.198441C98.477142 80.758911,98.162201 81.519058,98.162201 82.311752C98.162201 83.104446,98.477142 83.864594,99.037628 84.425064C99.598099 84.985550,100.358246 85.300491,101.150940 85.300491C101.943634 85.300491,102.703781 84.985550,103.264252 84.425064C103.824738 83.864594,104.139679 83.104446,104.139679 82.311752Z" style="fill: rgb(100.000000%,100.000000%,100.000000%);stroke: none;"></path>
  <path d="M98.327972 44.654037C98.327972 43.861343,98.013031 43.101196,97.452545 42.540726C96.892075 41.980240,96.131927 41.665298,95.339233 41.665298C94.546539 41.665298,93.786392 41.980240,93.225922 42.540726C92.665436 43.101196,92.350494 43.861343,92.350494 44.654037C92.350494 45.446732,92.665436 46.206879,93.225922 46.767349C93.786392 47.327835,94.546539 47.642776,95.339233 47.642776C96.131927 47.642776,96.892075 47.327835,97.452545 46.767349C98.013031 46.206879,98.327972 45.446732,98.327972 44.654037Z" style="fill: rgb(100.000000%,100.000000%,100.000000%);stroke: none;"></path>
  <path d="M102.125656 58.141281C102.125656 57.348587,101.810715 56.588440,101.250229 56.027969C100.689758 55.467484,99.929611 55.152542,99.136917 55.152542C98.344223 55.152542,97.584076 55.467484,97.023605 56.027969C96.463120 56.588440,96.148178 57.348587,96.148178 58.141281C96.148178 58.933975,96.463120 59.694122,97.023605 60.254593C97.584076 60.815079,98.344223 61.130020,99.136917 61.130020C99.929611 61.130020,100.689758 60.815079,101.250229 60.254593C101.810715 59.694122,102.125656 58.933975,102.125656 58.141281Z" style="fill: rgb(100.000000%,100.000000%,100.000000%);stroke: none;"></path>
  <path d="M91.455612 24.520813C91.455612 23.728119,91.140671 22.967972,90.580185 22.407501C90.019714 21.847015,89.259567 21.532074,88.466873 21.532074C87.674179 21.532074,86.914032 21.847015,86.353561 22.407501C85.793076 22.967972,85.478134 23.728119,85.478134 24.520813C85.478134 25.313507,85.793076 26.073654,86.353561 26.634125C86.914032 27.194611,87.674179 27.509552,88.466873 27.509552C89.259567 27.509552,90.019714 27.194611,90.580185 26.634125C91.140671 26.073654,91.455612 25.313507,91.455612 24.520813Z" style="fill: rgb(100.000000%,100.000000%,100.000000%);stroke: none;"></path>
  <path d="M96.532486 38.793472C96.532486 38.000778,96.217545 37.240631,95.657059 36.680161C95.096588 36.119675,94.336441 35.804733,93.543747 35.804733C92.751053 35.804733,91.990906 36.119675,91.430435 36.680161C90.869949 37.240631,90.555008 38.000778,90.555008 38.793472C90.555008 39.586166,90.869949 40.346313,91.430435 40.906784C91.990906 41.467270,92.751053 41.782211,93.543747 41.782211C94.336441 41.782211,95.096588 41.467270,95.657059 40.906784C96.217545 40.346313,96.532486 39.586166,96.532486 38.793472Z" style="fill: rgb(100.000000%,100.000000%,100.000000%);stroke: none;"></path>
  <path d="M69.136078 6.306702C69.136078 5.514008,68.821136 4.753860,68.260651 4.193390C67.700180 3.632904,66.940033 3.317963,66.147339 3.317963C65.354645 3.317963,64.594498 3.632904,64.034027 4.193390C63.473541 4.753860,63.158600 5.514008,63.158600 6.306702C63.158600 7.099396,63.473541 7.859543,64.034027 8.420013C64.594498 8.980499,65.354645 9.295441,66.147339 9.295441C66.940033 9.295441,67.700180 8.980499,68.260651 8.420013C68.821136 7.859543,69.136078 7.099396,69.136078 6.306702Z" style="fill: rgb(100.000000%,100.000000%,100.000000%);stroke: none;"></path>
  <path d="M87.500778 15.877838C87.500778 15.085144,87.185837 14.324997,86.625351 13.764526C86.064880 13.204041,85.304733 12.889099,84.512039 12.889099C83.719345 12.889099,82.959198 13.204041,82.398727 13.764526C81.838242 14.324997,81.523300 15.085144,81.523300 15.877838C81.523300 16.670532,81.838242 17.430679,82.398727 17.991150C82.959198 18.551636,83.719345 18.866577,84.512039 18.866577C85.304733 18.866577,86.064880 18.551636,86.625351 17.991150C87.185837 17.430679,87.500778 16.670532,87.500778 15.877838Z" style="fill: rgb(100.000000%,100.000000%,100.000000%);stroke: none;"></path>
  <path d="M37.180328 24.317261C37.180328 23.524567,36.865387 22.764420,36.304901 22.203949C35.744431 21.643463,34.984283 21.328522,34.191589 21.328522C33.398895 21.328522,32.638748 21.643463,32.078278 22.203949C31.517792 22.764420,31.202850 23.524567,31.202850 24.317261C31.202850 25.109955,31.517792 25.870102,32.078278 26.430573C32.638748 26.991058,33.398895 27.306000,34.191589 27.306000C34.984283 27.306000,35.744431 26.991058,36.304901 26.430573C36.865387 25.870102,37.180328 25.109955,37.180328 24.317261Z" style="fill: rgb(100.000000%,100.000000%,100.000000%);stroke: none;"></path>
  <path d="M56.960434 10.465042C56.960434 9.672348,56.645493 8.912201,56.085007 8.351730C55.524536 7.791245,54.764389 7.476303,53.971695 7.476303C53.179001 7.476303,52.418854 7.791245,51.858383 8.351730C51.297897 8.912201,50.982956 9.672348,50.982956 10.465042C50.982956 11.257736,51.297897 12.017883,51.858383 12.578354C52.418854 13.138840,53.179001 13.453781,53.971695 13.453781C54.764389 13.453781,55.524536 13.138840,56.085007 12.578354C56.645493 12.017883,56.960434 11.257736,56.960434 10.465042Z" style="fill: rgb(100.000000%,100.000000%,100.000000%);stroke: none;"></path>
  <path d="M30.800476 55.380737C30.800476 54.588043,30.485535 53.827896,29.925049 53.267426C29.364578 52.706940,28.604431 52.391998,27.811737 52.391998C27.019043 52.391998,26.258896 52.706940,25.698425 53.267426C25.137939 53.827896,24.822998 54.588043,24.822998 55.380737C24.822998 56.173431,25.137939 56.933578,25.698425 57.494049C26.258896 58.054535,27.019043 58.369476,27.811737 58.369476C28.604431 58.369476,29.364578 58.054535,29.925049 57.494049C30.485535 56.933578,30.800476 56.173431,30.800476 55.380737Z" style="fill: rgb(100.000000%,100.000000%,100.000000%);stroke: none;"></path>
  <path d="M28.956375 34.468796C28.956375 33.676102,28.641434 32.915955,28.080948 32.355484C27.520477 31.794998,26.760330 31.480057,25.967636 31.480057C25.174942 31.480057,24.414795 31.794998,23.854324 32.355484C23.293839 32.915955,22.978897 33.676102,22.978897 34.468796C22.978897 35.261490,23.293839 36.021637,23.854324 36.582108C24.414795 37.142593,25.174942 37.457535,25.967636 37.457535C26.760330 37.457535,27.520477 37.142593,28.080948 36.582108C28.641434 36.021637,28.956375 35.261490,28.956375 34.468796Z" style="fill: rgb(100.000000%,100.000000%,100.000000%);stroke: none;"></path>
  <path d="M47.661606 73.042084C47.661606 72.249390,47.346664 71.489243,46.786179 70.928772C46.225708 70.368286,45.465561 70.053345,44.672867 70.053345C43.880173 70.053345,43.120026 70.368286,42.559555 70.928772C41.999069 71.489243,41.684128 72.249390,41.684128 73.042084C41.684128 73.834778,41.999069 74.594925,42.559555 75.155396C43.120026 75.715881,43.880173 76.030823,44.672867 76.030823C45.465561 76.030823,46.225708 75.715881,46.786179 75.155396C47.346664 74.594925,47.661606 73.834778,47.661606 73.042084Z" style="fill: rgb(100.000000%,100.000000%,100.000000%);stroke: none;"></path>
  <path d="M36.864334 62.601303C36.864334 61.808609,36.549393 61.048462,35.988907 60.487991C35.428436 59.927505,34.668289 59.612564,33.875595 59.612564C33.082901 59.612564,32.322754 59.927505,31.762283 60.487991C31.201797 61.048462,30.886856 61.808609,30.886856 62.601303C30.886856 63.393997,31.201797 64.154144,31.762283 64.714615C32.322754 65.275101,33.082901 65.590042,33.875595 65.590042C34.668289 65.590042,35.428436 65.275101,35.988907 64.714615C36.549393 64.154144,36.864334 63.393997,36.864334 62.601303Z" style="fill: rgb(100.000000%,100.000000%,100.000000%);stroke: none;"></path>
  <path d="M62.806213 85.639328C62.806213 84.846634,62.491272 84.086487,61.930786 83.526016C61.370316 82.965530,60.610168 82.650589,59.817474 82.650589C59.024780 82.650589,58.264633 82.965530,57.704163 83.526016C57.143677 84.086487,56.828735 84.846634,56.828735 85.639328C56.828735 86.432022,57.143677 87.192169,57.704163 87.752640C58.264633 88.313126,59.024780 88.628067,59.817474 88.628067C60.610168 88.628067,61.370316 88.313126,61.930786 87.752640C62.491272 87.192169,62.806213 86.432022,62.806213 85.639328Z" style="fill: rgb(100.000000%,100.000000%,100.000000%);stroke: none;"></path>
  <path d="M52.221786 76.963211C52.221786 76.170517,51.906845 75.410370,51.346359 74.849899C50.785889 74.289413,50.025742 73.974472,49.233047 73.974472C48.440353 73.974472,47.680206 74.289413,47.119736 74.849899C46.559250 75.410370,46.244308 76.170517,46.244308 76.963211C46.244308 77.755905,46.559250 78.516052,47.119736 79.076523C47.680206 79.637009,48.440353 79.951950,49.233047 79.951950C50.025742 79.951950,50.785889 79.637009,51.346359 79.076523C51.906845 78.516052,52.221786 77.755905,52.221786 76.963211Z" style="fill: rgb(100.000000%,100.000000%,100.000000%);stroke: none;"></path>
  <path d="M83.535629 96.793182C83.535629 96.000488,83.220688 95.240341,82.660202 94.679871C82.099731 94.119385,81.339584 93.804443,80.546890 93.804443C79.754196 93.804443,78.994049 94.119385,78.433578 94.679871C77.873093 95.240341,77.558151 96.000488,77.558151 96.793182C77.558151 97.585876,77.873093 98.346024,78.433578 98.906494C78.994049 99.466980,79.754196 99.781921,80.546890 99.781921C81.339584 99.781921,82.099731 99.466980,82.660202 98.906494C83.220688 98.346024,83.535629 97.585876,83.535629 96.793182Z" style="fill: rgb(100.000000%,100.000000%,100.000000%);stroke: none;"></path>
  <path d="M68.936874 90.355484C68.936874 89.562790,68.621933 88.802643,68.061447 88.242172C67.500977 87.681686,66.740829 87.366745,65.948135 87.366745C65.155441 87.366745,64.395294 87.681686,63.834824 88.242172C63.274338 88.802643,62.959396 89.562790,62.959396 90.355484C62.959396 91.148178,63.274338 91.908325,63.834824 92.468796C64.395294 93.029282,65.155441 93.344223,65.948135 93.344223C66.740829 93.344223,67.500977 93.029282,68.061447 92.468796C68.621933 91.908325,68.936874 91.148178,68.936874 90.355484Z" style="fill: rgb(100.000000%,100.000000%,100.000000%);stroke: none;"></path>
  <path d="M109.264435 100.019897C109.264435 99.227203,108.949493 98.467056,108.389008 97.906586C107.828537 97.346100,107.068390 97.031158,106.275696 97.031158C105.483002 97.031158,104.722855 97.346100,104.162384 97.906586C103.601898 98.467056,103.286957 99.227203,103.286957 100.019897C103.286957 100.812592,103.601898 101.572739,104.162384 102.133209C104.722855 102.693695,105.483002 103.008636,106.275696 103.008636C107.068390 103.008636,107.828537 102.693695,108.389008 102.133209C108.949493 101.572739,109.264435 100.812592,109.264435 100.019897Z" style="fill: rgb(100.000000%,100.000000%,100.000000%);stroke: none;"></path>
  <path d="M91.773361 98.096695C91.773361 97.304001,91.458420 96.543854,90.897934 95.983383C90.337463 95.422897,89.577316 95.107956,88.784622 95.107956C87.991928 95.107956,87.231781 95.422897,86.671310 95.983383C86.110825 96.543854,85.795883 97.304001,85.795883 98.096695C85.795883 98.889389,86.110825 99.649536,86.671310 100.210007C87.231781 100.770493,87.991928 101.085434,88.784622 101.085434C89.577316 101.085434,90.337463 100.770493,90.897934 100.210007C91.458420 99.649536,91.773361 98.889389,91.773361 98.096695Z" style="fill: rgb(100.000000%,100.000000%,100.000000%);stroke: none;"></path>
  <path d="M139.301788 108.192612C139.301788 107.399918,138.986847 106.639771,138.426361 106.079300C137.865891 105.518814,137.105743 105.203873,136.313049 105.203873C135.520355 105.203873,134.760208 105.518814,134.199738 106.079300C133.639252 106.639771,133.324310 107.399918,133.324310 108.192612C133.324310 108.985306,133.639252 109.745453,134.199738 110.305923C134.760208 110.866409,135.520355 111.181351,136.313049 111.181351C137.105743 111.181351,137.865891 110.866409,138.426361 110.305923C138.986847 109.745453,139.301788 108.985306,139.301788 108.192612Z" style="fill: rgb(100.000000%,100.000000%,100.000000%);stroke: none;"></path>
  <path d="M118.691147 100.577209C118.691147 99.784515,118.376205 99.024368,117.815720 98.463898C117.255249 97.903412,116.495102 97.588470,115.702408 97.588470C114.909714 97.588470,114.149567 97.903412,113.589096 98.463898C113.028610 99.024368,112.713669 99.784515,112.713669 100.577209C112.713669 101.369904,113.028610 102.130051,113.589096 102.690521C114.149567 103.251007,114.909714 103.565948,115.702408 103.565948C116.495102 103.565948,117.255249 103.251007,117.815720 102.690521C118.376205 102.130051,118.691147 101.369904,118.691147 100.577209Z" style="fill: rgb(100.000000%,100.000000%,100.000000%);stroke: none;"></path>
  <path d="M175.346954 115.990265C175.346954 115.197571,175.032013 114.437424,174.471527 113.876953C173.911057 113.316467,173.150909 113.001526,172.358215 113.001526C171.565521 113.001526,170.805374 113.316467,170.244904 113.876953C169.684418 114.437424,169.369476 115.197571,169.369476 115.990265C169.369476 116.782959,169.684418 117.543106,170.244904 118.103577C170.805374 118.664062,171.565521 118.979004,172.358215 118.979004C173.150909 118.979004,173.911057 118.664062,174.471527 118.103577C175.032013 117.543106,175.346954 116.782959,175.346954 115.990265Z" style="fill: rgb(100.000000%,100.000000%,100.000000%);stroke: none;"></path>
  <path d="M149.756302 117.309494C149.756302 116.516800,149.441360 115.756653,148.880875 115.196182C148.320404 114.635696,147.560257 114.320755,146.767563 114.320755C145.974869 114.320755,145.214722 114.635696,144.654251 115.196182C144.093765 115.756653,143.778824 116.516800,143.778824 117.309494C143.778824 118.102188,144.093765 118.862335,144.654251 119.422806C145.214722 119.983292,145.974869 120.298233,146.767563 120.298233C147.560257 120.298233,148.320404 119.983292,148.880875 119.422806C149.441360 118.862335,149.756302 118.102188,149.756302 117.309494Z" style="fill: rgb(100.000000%,100.000000%,100.000000%);stroke: none;"></path>
  <path d="M192.395599 81.536957C192.395599 80.744263,192.080658 79.984116,191.520172 79.423645C190.959702 78.863159,190.199554 78.548218,189.406860 78.548218C188.614166 78.548218,187.854019 78.863159,187.293549 79.423645C186.733063 79.984116,186.418121 80.744263,186.418121 81.536957C186.418121 82.329651,186.733063 83.089798,187.293549 83.650269C187.854019 84.210754,188.614166 84.525696,189.406860 84.525696C190.199554 84.525696,190.959702 84.210754,191.520172 83.650269C192.080658 83.089798,192.395599 82.329651,192.395599 81.536957Z" style="fill: rgb(100.000000%,100.000000%,100.000000%);stroke: none;"></path>
  <path d="M185.466187 106.027527C185.466187 105.234833,185.151245 104.474686,184.590759 103.914215C184.030289 103.353729,183.270142 103.038788,182.477448 103.038788C181.684753 103.038788,180.924606 103.353729,180.364136 103.914215C179.803650 104.474686,179.488708 105.234833,179.488708 106.027527C179.488708 106.820221,179.803650 107.580368,180.364136 108.140839C180.924606 108.701324,181.684753 109.016266,182.477448 109.016266C183.270142 109.016266,184.030289 108.701324,184.590759 108.140839C185.151245 107.580368,185.466187 106.820221,185.466187 106.027527Z" style="fill: rgb(100.000000%,100.000000%,100.000000%);stroke: none;"></path>
  <path d="M170.266541 57.705673C170.266541 56.912979,169.951599 56.152832,169.391113 55.592361C168.830643 55.031876,168.070496 54.716934,167.277802 54.716934C166.485107 54.716934,165.724960 55.031876,165.164490 55.592361C164.604004 56.152832,164.289062 56.912979,164.289062 57.705673C164.289062 58.498367,164.604004 59.258514,165.164490 59.818985C165.724960 60.379471,166.485107 60.694412,167.277802 60.694412C168.070496 60.694412,168.830643 60.379471,169.391113 59.818985C169.951599 59.258514,170.266541 58.498367,170.266541 57.705673Z" style="fill: rgb(100.000000%,100.000000%,100.000000%);stroke: none;"></path>
  <path d="M189.248550 68.339218C189.248550 67.546524,188.933609 66.786377,188.373123 66.225906C187.812653 65.665421,187.052505 65.350479,186.259811 65.350479C185.467117 65.350479,184.706970 65.665421,184.146500 66.225906C183.586014 66.786377,183.271072 67.546524,183.271072 68.339218C183.271072 69.131912,183.586014 69.892059,184.146500 70.452530C184.706970 71.013016,185.467117 71.327957,186.259811 71.327957C187.052505 71.327957,187.812653 71.013016,188.373123 70.452530C188.933609 69.892059,189.248550 69.131912,189.248550 68.339218Z" style="fill: rgb(100.000000%,100.000000%,100.000000%);stroke: none;"></path>
  <path d="M144.906860 44.234573C144.906860 43.441879,144.591919 42.681732,144.031433 42.121262C143.470963 41.560776,142.710815 41.245834,141.918121 41.245834C141.125427 41.245834,140.365280 41.560776,139.804810 42.121262C139.244324 42.681732,138.929382 43.441879,138.929382 44.234573C138.929382 45.027267,139.244324 45.787415,139.804810 46.347885C140.365280 46.908371,141.125427 47.223312,141.918121 47.223312C142.710815 47.223312,143.470963 46.908371,144.031433 46.347885C144.591919 45.787415,144.906860 45.027267,144.906860 44.234573Z" style="fill: rgb(100.000000%,100.000000%,100.000000%);stroke: none;"></path>
  <path d="M158.598480 59.746338C158.598480 58.953644,158.283539 58.193497,157.723053 57.633026C157.162582 57.072540,156.402435 56.757599,155.609741 56.757599C154.817047 56.757599,154.056900 57.072540,153.496429 57.633026C152.935944 58.193497,152.621002 58.953644,152.621002 59.746338C152.621002 60.539032,152.935944 61.299179,153.496429 61.859650C154.056900 62.420135,154.817047 62.735077,155.609741 62.735077C156.402435 62.735077,157.162582 62.420135,157.723053 61.859650C158.283539 61.299179,158.598480 60.539032,158.598480 59.746338Z" style="fill: rgb(100.000000%,100.000000%,100.000000%);stroke: none;"></path>
  <path d="M141.000641 10.210281C141.000641 9.417587,140.685699 8.657440,140.125214 8.096970C139.564743 7.536484,138.804596 7.221542,138.011902 7.221542C137.219208 7.221542,136.459061 7.536484,135.898590 8.096970C135.338104 8.657440,135.023163 9.417587,135.023163 10.210281C135.023163 11.002975,135.338104 11.763123,135.898590 12.323593C136.459061 12.884079,137.219208 13.199020,138.011902 13.199020C138.804596 13.199020,139.564743 12.884079,140.125214 12.323593C140.685699 11.763123,141.000641 11.002975,141.000641 10.210281Z" style="fill: rgb(100.000000%,100.000000%,100.000000%);stroke: none;"></path>
  <path d="M149.397751 32.100266C149.397751 31.307571,149.082809 30.547424,148.522324 29.986954C147.961853 29.426468,147.201706 29.111526,146.409012 29.111526C145.616318 29.111526,144.856171 29.426468,144.295700 29.986954C143.735214 30.547424,143.420273 31.307571,143.420273 32.100266C143.420273 32.892960,143.735214 33.653107,144.295700 34.213577C144.856171 34.774063,145.616318 35.089005,146.409012 35.089005C147.201706 35.089005,147.961853 34.774063,148.522324 34.213577C149.082809 33.653107,149.397751 32.892960,149.397751 32.100266Z" style="fill: rgb(100.000000%,100.000000%,100.000000%);stroke: none;"></path>
  <path d="M101.287003 2.523422C101.287003 1.730728,100.972061 0.970581,100.411575 0.410110C99.851105 -0.150375,99.090958 -0.465317,98.298264 -0.465317C97.505569 -0.465317,96.745422 -0.150375,96.184952 0.410110C95.624466 0.970581,95.309525 1.730728,95.309525 2.523422C95.309525 3.316116,95.624466 4.076263,96.184952 4.636734C96.745422 5.197220,97.505569 5.512161,98.298264 5.512161C99.090958 5.512161,99.851105 5.197220,100.411575 4.636734C100.972061 4.076263,101.287003 3.316116,101.287003 2.523422Z" style="fill: rgb(100.000000%,100.000000%,100.000000%);stroke: none;"></path>
  <path d="M127.018372 6.121017C127.018372 5.328323,126.703430 4.568176,126.142944 4.007706C125.582474 3.447220,124.822327 3.132278,124.029633 3.132278C123.236938 3.132278,122.476791 3.447220,121.916321 4.007706C121.355835 4.568176,121.040894 5.328323,121.040894 6.121017C121.040894 6.913712,121.355835 7.673859,121.916321 8.234329C122.476791 8.794815,123.236938 9.109756,124.029633 9.109756C124.822327 9.109756,125.582474 8.794815,126.142944 8.234329C126.703430 7.673859,127.018372 6.913712,127.018372 6.121017Z" style="fill: rgb(100.000000%,100.000000%,100.000000%);stroke: none;"></path>
  <path d="M73.925446 18.153793C73.925446 17.361099,73.610504 16.600952,73.050018 16.040482C72.489548 15.479996,71.729401 15.165054,70.936707 15.165054C70.144012 15.165054,69.383865 15.479996,68.823395 16.040482C68.262909 16.600952,67.947968 17.361099,67.947968 18.153793C67.947968 18.946487,68.262909 19.706635,68.823395 20.267105C69.383865 20.827591,70.144012 21.142532,70.936707 21.142532C71.729401 21.142532,72.489548 20.827591,73.050018 20.267105C73.610504 19.706635,73.925446 18.946487,73.925446 18.153793Z" style="fill: rgb(100.000000%,100.000000%,100.000000%);stroke: none;"></path>
  <path d="M87.642838 2.363785C87.642838 1.571091,87.327896 0.810944,86.767410 0.250473C86.206940 -0.310013,85.446793 -0.624954,84.654099 -0.624954C83.861404 -0.624954,83.101257 -0.310013,82.540787 0.250473C81.980301 0.810944,81.665359 1.571091,81.665359 2.363785C81.665359 3.156479,81.980301 3.916626,82.540787 4.477097C83.101257 5.037582,83.861404 5.352524,84.654099 5.352524C85.446793 5.352524,86.206940 5.037582,86.767410 4.477097C87.327896 3.916626,87.642838 3.156479,87.642838 2.363785Z" style="fill: rgb(100.000000%,100.000000%,100.000000%);stroke: none;"></path>
  <path d="M70.953278 40.649246C70.953278 39.856552,70.638336 39.096405,70.077850 38.535934C69.517380 37.975449,68.757233 37.660507,67.964539 37.660507C67.171844 37.660507,66.411697 37.975449,65.851227 38.535934C65.290741 39.096405,64.975800 39.856552,64.975800 40.649246C64.975800 41.441940,65.290741 42.202087,65.851227 42.762558C66.411697 43.323044,67.171844 43.637985,67.964539 43.637985C68.757233 43.637985,69.517380 43.323044,70.077850 42.762558C70.638336 42.202087,70.953278 41.441940,70.953278 40.649246Z" style="fill: rgb(100.000000%,100.000000%,100.000000%);stroke: none;"></path>
  <path d="M73.273026 27.088821C73.273026 26.296127,72.958084 25.535980,72.397598 24.975510C71.837128 24.415024,71.076981 24.100082,70.284286 24.100082C69.491592 24.100082,68.731445 24.415024,68.170975 24.975510C67.610489 25.535980,67.295547 26.296127,67.295547 27.088821C67.295547 27.881516,67.610489 28.641663,68.170975 29.202133C68.731445 29.762619,69.491592 30.077560,70.284286 30.077560C71.076981 30.077560,71.837128 29.762619,72.397598 29.202133C72.958084 28.641663,73.273026 27.881516,73.273026 27.088821Z" style="fill: rgb(100.000000%,100.000000%,100.000000%);stroke: none;"></path>
  <path d="M68.181244 56.218552C68.181244 55.425858,67.866302 54.665710,67.305817 54.105240C66.745346 53.544754,65.985199 53.229813,65.192505 53.229813C64.399811 53.229813,63.639664 53.544754,63.079193 54.105240C62.518707 54.665710,62.203766 55.425858,62.203766 56.218552C62.203766 57.011246,62.518707 57.771393,63.079193 58.331863C63.639664 58.892349,64.399811 59.207291,65.192505 59.207291C65.985199 59.207291,66.745346 58.892349,67.305817 58.331863C67.866302 57.771393,68.181244 57.011246,68.181244 56.218552Z" style="fill: rgb(100.000000%,100.000000%,100.000000%);stroke: none;"></path>
  <path d="M69.685272 45.769531C69.685272 44.976837,69.370331 44.216690,68.809845 43.656219C68.249374 43.095734,67.489227 42.780792,66.696533 42.780792C65.903839 42.780792,65.143692 43.095734,64.583221 43.656219C64.022736 44.216690,63.707794 44.976837,63.707794 45.769531C63.707794 46.562225,64.022736 47.322372,64.583221 47.882843C65.143692 48.443329,65.903839 48.758270,66.696533 48.758270C67.489227 48.758270,68.249374 48.443329,68.809845 47.882843C69.370331 47.322372,69.685272 46.562225,69.685272 45.769531Z" style="fill: rgb(100.000000%,100.000000%,100.000000%);stroke: none;"></path>
  <path d="M63.952744 71.817154C63.952744 71.024460,63.637802 70.264313,63.077316 69.703842C62.516846 69.143356,61.756699 68.828415,60.964005 68.828415C60.171310 68.828415,59.411163 69.143356,58.850693 69.703842C58.290207 70.264313,57.975266 71.024460,57.975266 71.817154C57.975266 72.609848,58.290207 73.369995,58.850693 73.930466C59.411163 74.490952,60.171310 74.805893,60.964005 74.805893C61.756699 74.805893,62.516846 74.490952,63.077316 73.930466C63.637802 73.369995,63.952744 72.609848,63.952744 71.817154Z" style="fill: rgb(100.000000%,100.000000%,100.000000%);stroke: none;"></path>
  <path d="M67.937820 61.586334C67.937820 60.793640,67.622879 60.033493,67.062393 59.473022C66.501923 58.912537,65.741776 58.597595,64.949081 58.597595C64.156387 58.597595,63.396240 58.912537,62.835770 59.473022C62.275284 60.033493,61.960342 60.793640,61.960342 61.586334C61.960342 62.379028,62.275284 63.139175,62.835770 63.699646C63.396240 64.260132,64.156387 64.575073,64.949081 64.575073C65.741776 64.575073,66.501923 64.260132,67.062393 63.699646C67.622879 63.139175,67.937820 62.379028,67.937820 61.586334Z" style="fill: rgb(100.000000%,100.000000%,100.000000%);stroke: none;"></path>
  <path d="M52.380280 87.102661C52.380280 86.309967,52.065338 85.549820,51.504852 84.989349C50.944382 84.428864,50.184235 84.113922,49.391541 84.113922C48.598846 84.113922,47.838699 84.428864,47.278229 84.989349C46.717743 85.549820,46.402802 86.309967,46.402802 87.102661C46.402802 87.895355,46.717743 88.655502,47.278229 89.215973C47.838699 89.776459,48.598846 90.091400,49.391541 90.091400C50.184235 90.091400,50.944382 89.776459,51.504852 89.215973C52.065338 88.655502,52.380280 87.895355,52.380280 87.102661Z" style="fill: rgb(100.000000%,100.000000%,100.000000%);stroke: none;"></path>
  <path d="M60.149780 76.152145C60.149780 75.359451,59.834839 74.599304,59.274353 74.038834C58.713882 73.478348,57.953735 73.163406,57.161041 73.163406C56.368347 73.163406,55.608200 73.478348,55.047729 74.038834C54.487244 74.599304,54.172302 75.359451,54.172302 76.152145C54.172302 76.944839,54.487244 77.704987,55.047729 78.265457C55.608200 78.825943,56.368347 79.140884,57.161041 79.140884C57.953735 79.140884,58.713882 78.825943,59.274353 78.265457C59.834839 77.704987,60.149780 76.944839,60.149780 76.152145Z" style="fill: rgb(100.000000%,100.000000%,100.000000%);stroke: none;"></path>
  <path d="M34.049881 105.494308C34.049881 104.701614,33.734940 103.941467,33.174454 103.380997C32.613983 102.820511,31.853836 102.505569,31.061142 102.505569C30.268448 102.505569,29.508301 102.820511,28.947830 103.380997C28.387344 103.941467,28.072403 104.701614,28.072403 105.494308C28.072403 106.287003,28.387344 107.047150,28.947830 107.607620C29.508301 108.168106,30.268448 108.483047,31.061142 108.483047C31.853836 108.483047,32.613983 108.168106,33.174454 107.607620C33.734940 107.047150,34.049881 106.287003,34.049881 105.494308Z" style="fill: rgb(100.000000%,100.000000%,100.000000%);stroke: none;"></path>
  <path d="M48.710754 94.184616C48.710754 93.391922,48.395813 92.631775,47.835327 92.071304C47.274857 91.510818,46.514709 91.195877,45.722015 91.195877C44.929321 91.195877,44.169174 91.510818,43.608704 92.071304C43.048218 92.631775,42.733276 93.391922,42.733276 94.184616C42.733276 94.977310,43.048218 95.737457,43.608704 96.297928C44.169174 96.858414,44.929321 97.173355,45.722015 97.173355C46.514709 97.173355,47.274857 96.858414,47.835327 96.297928C48.395813 95.737457,48.710754 94.977310,48.710754 94.184616Z" style="fill: rgb(100.000000%,100.000000%,100.000000%);stroke: none;"></path>
  <path d="M6.389236 122.698837C6.389236 121.906143,6.074295 121.145996,5.513809 120.585526C4.953339 120.025040,4.193192 119.710098,3.400497 119.710098C2.607803 119.710098,1.847656 120.025040,1.287186 120.585526C0.726700 121.145996,0.411758 121.906143,0.411758 122.698837C0.411758 123.491531,0.726700 124.251678,1.287186 124.812149C1.847656 125.372635,2.607803 125.687576,3.400497 125.687576C4.193192 125.687576,4.953339 125.372635,5.513809 124.812149C6.074295 124.251678,6.389236 123.491531,6.389236 122.698837Z" style="fill: rgb(100.000000%,100.000000%,100.000000%);stroke: none;"></path>
  <path d="M22.160965 106.516586C22.160965 105.723892,21.846024 104.963745,21.285538 104.403275C20.725067 103.842789,19.964920 103.527847,19.172226 103.527847C18.379532 103.527847,17.619385 103.842789,17.058914 104.403275C16.498428 104.963745,16.183487 105.723892,16.183487 106.516586C16.183487 107.309280,16.498428 108.069427,17.058914 108.629898C17.619385 109.190384,18.379532 109.505325,19.172226 109.505325C19.964920 109.505325,20.725067 109.190384,21.285538 108.629898C21.846024 108.069427,22.160965 107.309280,22.160965 106.516586Z" style="fill: rgb(100.000000%,100.000000%,100.000000%);stroke: none;"></path>
  <path d="M16.377319 156.814178C16.377319 156.021484,16.062378 155.261337,15.501892 154.700867C14.941422 154.140381,14.181274 153.825439,13.388580 153.825439C12.595886 153.825439,11.835739 154.140381,11.275269 154.700867C10.714783 155.261337,10.399841 156.021484,10.399841 156.814178C10.399841 157.606873,10.714783 158.367020,11.275269 158.927490C11.835739 159.487976,12.595886 159.802917,13.388580 159.802917C14.181274 159.802917,14.941422 159.487976,15.501892 158.927490C16.062378 158.367020,16.377319 157.606873,16.377319 156.814178Z" style="fill: rgb(100.000000%,100.000000%,100.000000%);stroke: none;"></path>
  <path d="M5.814423 135.705124C5.814423 134.912430,5.499481 134.152283,4.938995 133.591812C4.378525 133.031326,3.618378 132.716385,2.825684 132.716385C2.032990 132.716385,1.272842 133.031326,0.712372 133.591812C0.151886 134.152283,-0.163055 134.912430,-0.163055 135.705124C-0.163055 136.497818,0.151886 137.257965,0.712372 137.818436C1.272842 138.378922,2.032990 138.693863,2.825684 138.693863C3.618378 138.693863,4.378525 138.378922,4.938995 137.818436C5.499481 137.257965,5.814423 136.497818,5.814423 135.705124Z" style="fill: rgb(100.000000%,100.000000%,100.000000%);stroke: none;"></path>
  <path d="M47.601196 158.804901C47.601196 158.012207,47.286255 157.252060,46.725769 156.691589C46.165298 156.131104,45.405151 155.816162,44.612457 155.816162C43.819763 155.816162,43.059616 156.131104,42.499146 156.691589C41.938660 157.252060,41.623718 158.012207,41.623718 158.804901C41.623718 159.597595,41.938660 160.357742,42.499146 160.918213C43.059616 161.478699,43.819763 161.793640,44.612457 161.793640C45.405151 161.793640,46.165298 161.478699,46.725769 160.918213C47.286255 160.357742,47.601196 159.597595,47.601196 158.804901Z" style="fill: rgb(100.000000%,100.000000%,100.000000%);stroke: none;"></path>
  <path d="M26.924210 163.952820C26.924210 163.160126,26.609268 162.399979,26.048782 161.839508C25.488312 161.279022,24.728165 160.964081,23.935471 160.964081C23.142776 160.964081,22.382629 161.279022,21.822159 161.839508C21.261673 162.399979,20.946732 163.160126,20.946732 163.952820C20.946732 164.745514,21.261673 165.505661,21.822159 166.066132C22.382629 166.626617,23.142776 166.941559,23.935471 166.941559C24.728165 166.941559,25.488312 166.626617,26.048782 166.066132C26.609268 165.505661,26.924210 164.745514,26.924210 163.952820Z" style="fill: rgb(100.000000%,100.000000%,100.000000%);stroke: none;"></path>
  <path d="M76.059067 148.417435C76.059067 147.624741,75.744125 146.864594,75.183640 146.304123C74.623169 145.743637,73.863022 145.428696,73.070328 145.428696C72.277634 145.428696,71.517487 145.743637,70.957016 146.304123C70.396530 146.864594,70.081589 147.624741,70.081589 148.417435C70.081589 149.210129,70.396530 149.970276,70.957016 150.530746C71.517487 151.091232,72.277634 151.406174,73.070328 151.406174C73.863022 151.406174,74.623169 151.091232,75.183640 150.530746C75.744125 149.970276,76.059067 149.210129,76.059067 148.417435Z" style="fill: rgb(100.000000%,100.000000%,100.000000%);stroke: none;"></path>
  <path d="M54.151031 148.246429C54.151031 147.453735,53.836090 146.693588,53.275604 146.133118C52.715134 145.572632,51.954987 145.257690,51.162292 145.257690C50.369598 145.257690,49.609451 145.572632,49.048981 146.133118C48.488495 146.693588,48.173553 147.453735,48.173553 148.246429C48.173553 149.039124,48.488495 149.799271,49.048981 150.359741C49.609451 150.920227,50.369598 151.235168,51.162292 151.235168C51.954987 151.235168,52.715134 150.920227,53.275604 150.359741C53.836090 149.799271,54.151031 149.039124,54.151031 148.246429Z" style="fill: rgb(100.000000%,100.000000%,100.000000%);stroke: none;"></path>
  <path d="M106.632202 172.549988C106.632202 171.757294,106.317261 170.997147,105.756775 170.436676C105.196304 169.876190,104.436157 169.561249,103.643463 169.561249C102.850769 169.561249,102.090622 169.876190,101.530151 170.436676C100.969666 170.997147,100.654724 171.757294,100.654724 172.549988C100.654724 173.342682,100.969666 174.102829,101.530151 174.663300C102.090622 175.223785,102.850769 175.538727,103.643463 175.538727C104.436157 175.538727,105.196304 175.223785,105.756775 174.663300C106.317261 174.102829,106.632202 173.342682,106.632202 172.549988Z" style="fill: rgb(100.000000%,100.000000%,100.000000%);stroke: none;"></path>
  <path d="M81.988403 161.275620C81.988403 160.482925,81.673462 159.722778,81.112976 159.162308C80.552505 158.601822,79.792358 158.286880,78.999664 158.286880C78.206970 158.286880,77.446823 158.601822,76.886353 159.162308C76.325867 159.722778,76.010925 160.482925,76.010925 161.275620C76.010925 162.068314,76.325867 162.828461,76.886353 163.388931C77.446823 163.949417,78.206970 164.264359,78.999664 164.264359C79.792358 164.264359,80.552505 163.949417,81.112976 163.388931C81.673462 162.828461,81.988403 162.068314,81.988403 161.275620Z" style="fill: rgb(100.000000%,100.000000%,100.000000%);stroke: none;"></path>
  <path d="M148.197784 143.357437C148.197784 142.564743,147.882843 141.804596,147.322357 141.244125C146.761887 140.683640,146.001740 140.368698,145.209045 140.368698C144.416351 140.368698,143.656204 140.683640,143.095734 141.244125C142.535248 141.804596,142.220306 142.564743,142.220306 143.357437C142.220306 144.150131,142.535248 144.910278,143.095734 145.470749C143.656204 146.031235,144.416351 146.346176,145.209045 146.346176C146.001740 146.346176,146.761887 146.031235,147.322357 145.470749C147.882843 144.910278,148.197784 144.150131,148.197784 143.357437Z" style="fill: rgb(100.000000%,100.000000%,100.000000%);stroke: none;"></path>
  <path d="M121.585999 162.361359C121.585999 161.568665,121.271057 160.808517,120.710571 160.248047C120.150101 159.687561,119.389954 159.372620,118.597260 159.372620C117.804565 159.372620,117.044418 159.687561,116.483948 160.248047C115.923462 160.808517,115.608521 161.568665,115.608521 162.361359C115.608521 163.154053,115.923462 163.914200,116.483948 164.474670C117.044418 165.035156,117.804565 165.350098,118.597260 165.350098C119.389954 165.350098,120.150101 165.035156,120.710571 164.474670C121.271057 163.914200,121.585999 163.154053,121.585999 162.361359Z" style="fill: rgb(100.000000%,100.000000%,100.000000%);stroke: none;"></path>
  <path d="M162.195999 105.147934C162.195999 104.355240,161.881058 103.595093,161.320572 103.034622C160.760101 102.474136,159.999954 102.159195,159.207260 102.159195C158.414566 102.159195,157.654419 102.474136,157.093948 103.034622C156.533463 103.595093,156.218521 104.355240,156.218521 105.147934C156.218521 105.940628,156.533463 106.700775,157.093948 107.261246C157.654419 107.821732,158.414566 108.136673,159.207260 108.136673C159.999954 108.136673,160.760101 107.821732,161.320572 107.261246C161.881058 106.700775,162.195999 105.940628,162.195999 105.147934Z" style="fill: rgb(100.000000%,100.000000%,100.000000%);stroke: none;"></path>
  <path d="M162.928345 132.788834C162.928345 131.996140,162.613403 131.235992,162.052917 130.675522C161.492447 130.115036,160.732300 129.800095,159.939606 129.800095C159.146912 129.800095,158.386765 130.115036,157.826294 130.675522C157.265808 131.235992,156.950867 131.996140,156.950867 132.788834C156.950867 133.581528,157.265808 134.341675,157.826294 134.902145C158.386765 135.462631,159.146912 135.777573,159.939606 135.777573C160.732300 135.777573,161.492447 135.462631,162.052917 134.902145C162.613403 134.341675,162.928345 133.581528,162.928345 132.788834Z" style="fill: rgb(100.000000%,100.000000%,100.000000%);stroke: none;"></path>
  <path d="M161.005371 73.623535C161.005371 72.830841,160.690430 72.070694,160.129944 71.510223C159.569473 70.949738,158.809326 70.634796,158.016632 70.634796C157.223938 70.634796,156.463791 70.949738,155.903320 71.510223C155.342834 72.070694,155.027893 72.830841,155.027893 73.623535C155.027893 74.416229,155.342834 75.176376,155.903320 75.736847C156.463791 76.297333,157.223938 76.612274,158.016632 76.612274C158.809326 76.612274,159.569473 76.297333,160.129944 75.736847C160.690430 75.176376,161.005371 74.416229,161.005371 73.623535Z" style="fill: rgb(100.000000%,100.000000%,100.000000%);stroke: none;"></path>
  <path d="M152.970703 94.324921C152.970703 93.532227,152.655762 92.772079,152.095276 92.211609C151.534805 91.651123,150.774658 91.336182,149.981964 91.336182C149.189270 91.336182,148.429123 91.651123,147.868652 92.211609C147.308167 92.772079,146.993225 93.532227,146.993225 94.324921C146.993225 95.117615,147.308167 95.877762,147.868652 96.438232C148.429123 96.998718,149.189270 97.313660,149.981964 97.313660C150.774658 97.313660,151.534805 96.998718,152.095276 96.438232C152.655762 95.877762,152.970703 95.117615,152.970703 94.324921Z" style="fill: rgb(100.000000%,100.000000%,100.000000%);stroke: none;"></path>
  <path d="M185.486816 53.029922C185.486816 52.237228,185.171875 51.477081,184.611389 50.916611C184.050919 50.356125,183.290771 50.041183,182.498077 50.041183C181.705383 50.041183,180.945236 50.356125,180.384766 50.916611C179.824280 51.477081,179.509338 52.237228,179.509338 53.029922C179.509338 53.822617,179.824280 54.582764,180.384766 55.143234C180.945236 55.703720,181.705383 56.018661,182.498077 56.018661C183.290771 56.018661,184.050919 55.703720,184.611389 55.143234C185.171875 54.582764,185.486816 53.822617,185.486816 53.029922Z" style="fill: rgb(100.000000%,100.000000%,100.000000%);stroke: none;"></path>
  <path d="M172.863403 70.730667C172.863403 69.937973,172.548462 69.177826,171.987976 68.617355C171.427505 68.056870,170.667358 67.741928,169.874664 67.741928C169.081970 67.741928,168.321823 68.056870,167.761353 68.617355C167.200867 69.177826,166.885925 69.937973,166.885925 70.730667C166.885925 71.523361,167.200867 72.283508,167.761353 72.843979C168.321823 73.404465,169.081970 73.719406,169.874664 73.719406C170.667358 73.719406,171.427505 73.404465,171.987976 72.843979C172.548462 72.283508,172.863403 71.523361,172.863403 70.730667Z" style="fill: rgb(100.000000%,100.000000%,100.000000%);stroke: none;"></path>
  <path d="M168.092087 22.316406C168.092087 21.523712,167.777145 20.763565,167.216660 20.203094C166.656189 19.642609,165.896042 19.327667,165.103348 19.327667C164.310654 19.327667,163.550507 19.642609,162.990036 20.203094C162.429550 20.763565,162.114609 21.523712,162.114609 22.316406C162.114609 23.109100,162.429550 23.869247,162.990036 24.429718C163.550507 24.990204,164.310654 25.305145,165.103348 25.305145C165.896042 25.305145,166.656189 24.990204,167.216660 24.429718C167.777145 23.869247,168.092087 23.109100,168.092087 22.316406Z" style="fill: rgb(100.000000%,100.000000%,100.000000%);stroke: none;"></path>
  <path d="M183.281921 40.223953C183.281921 39.431259,182.966980 38.671112,182.406494 38.110641C181.846024 37.550156,181.085876 37.235214,180.293182 37.235214C179.500488 37.235214,178.740341 37.550156,178.179871 38.110641C177.619385 38.671112,177.304443 39.431259,177.304443 40.223953C177.304443 41.016647,177.619385 41.776794,178.179871 42.337265C178.740341 42.897751,179.500488 43.212692,180.293182 43.212692C181.085876 43.212692,181.846024 42.897751,182.406494 42.337265C182.966980 41.776794,183.281921 41.016647,183.281921 40.223953Z" style="fill: rgb(100.000000%,100.000000%,100.000000%);stroke: none;"></path>
  <path d="M135.602661 26.612915C135.602661 25.820221,135.287720 25.060074,134.727234 24.499603C134.166763 23.939117,133.406616 23.624176,132.613922 23.624176C131.821228 23.624176,131.061081 23.939117,130.500610 24.499603C129.940125 25.060074,129.625183 25.820221,129.625183 26.612915C129.625183 27.405609,129.940125 28.165756,130.500610 28.726227C131.061081 29.286713,131.821228 29.601654,132.613922 29.601654C133.406616 29.601654,134.166763 29.286713,134.727234 28.726227C135.287720 28.165756,135.602661 27.405609,135.602661 26.612915Z" style="fill: rgb(100.000000%,100.000000%,100.000000%);stroke: none;"></path>
  <path d="M156.202515 17.987762C156.202515 17.195068,155.887573 16.434921,155.327087 15.874451C154.766617 15.313965,154.006470 14.999023,153.213776 14.999023C152.421082 14.999023,151.660934 15.313965,151.100464 15.874451C150.539978 16.434921,150.225037 17.195068,150.225037 17.987762C150.225037 18.780457,150.539978 19.540604,151.100464 20.101074C151.660934 20.661560,152.421082 20.976501,153.213776 20.976501C154.006470 20.976501,154.766617 20.661560,155.327087 20.101074C155.887573 19.540604,156.202515 18.780457,156.202515 17.987762Z" style="fill: rgb(100.000000%,100.000000%,100.000000%);stroke: none;"></path>
  <path d="M115.095291 47.641281C115.095291 46.848587,114.780350 46.088440,114.219864 45.527969C113.659393 44.967484,112.899246 44.652542,112.106552 44.652542C111.313858 44.652542,110.553711 44.967484,109.993240 45.527969C109.432755 46.088440,109.117813 46.848587,109.117813 47.641281C109.117813 48.433975,109.432755 49.194122,109.993240 49.754593C110.553711 50.315079,111.313858 50.630020,112.106552 50.630020C112.899246 50.630020,113.659393 50.315079,114.219864 49.754593C114.780350 49.194122,115.095291 48.433975,115.095291 47.641281Z" style="fill: rgb(100.000000%,100.000000%,100.000000%);stroke: none;"></path>
  <path d="M130.703857 37.787109C130.703857 36.994415,130.388916 36.234268,129.828430 35.673798C129.267960 35.113312,128.507812 34.798370,127.715118 34.798370C126.922424 34.798370,126.162277 35.113312,125.601807 35.673798C125.041321 36.234268,124.726379 36.994415,124.726379 37.787109C124.726379 38.579803,125.041321 39.339951,125.601807 39.900421C126.162277 40.460907,126.922424 40.775848,127.715118 40.775848C128.507812 40.775848,129.267960 40.460907,129.828430 39.900421C130.388916 39.339951,130.703857 38.579803,130.703857 37.787109Z" style="fill: rgb(100.000000%,100.000000%,100.000000%);stroke: none;"></path>
  <path d="M94.656799 51.991562C94.656799 51.198868,94.341858 50.438721,93.781372 49.878250C93.220901 49.317764,92.460754 49.002823,91.668060 49.002823C90.875366 49.002823,90.115219 49.317764,89.554749 49.878250C88.994263 50.438721,88.679321 51.198868,88.679321 51.991562C88.679321 52.784256,88.994263 53.544403,89.554749 54.104874C90.115219 54.665359,90.875366 54.980301,91.668060 54.980301C92.460754 54.980301,93.220901 54.665359,93.781372 54.104874C94.341858 53.544403,94.656799 52.784256,94.656799 51.991562Z" style="fill: rgb(100.000000%,100.000000%,100.000000%);stroke: none;"></path>
  <path d="M107.327911 48.570831C107.327911 47.778137,107.012970 47.017990,106.452484 46.457520C105.892014 45.897034,105.131866 45.582092,104.339172 45.582092C103.546478 45.582092,102.786331 45.897034,102.225861 46.457520C101.665375 47.017990,101.350433 47.778137,101.350433 48.570831C101.350433 49.363525,101.665375 50.123672,102.225861 50.684143C102.786331 51.244629,103.546478 51.559570,104.339172 51.559570C105.131866 51.559570,105.892014 51.244629,106.452484 50.684143C107.012970 50.123672,107.327911 49.363525,107.327911 48.570831Z" style="fill: rgb(100.000000%,100.000000%,100.000000%);stroke: none;"></path>
  <path d="M78.758087 53.996887C78.758087 53.204193,78.443146 52.444046,77.882660 51.883575C77.322189 51.323090,76.562042 51.008148,75.769348 51.008148C74.976654 51.008148,74.216507 51.323090,73.656036 51.883575C73.095551 52.444046,72.780609 53.204193,72.780609 53.996887C72.780609 54.789581,73.095551 55.549728,73.656036 56.110199C74.216507 56.670685,74.976654 56.985626,75.769348 56.985626C76.562042 56.985626,77.322189 56.670685,77.882660 56.110199C78.443146 55.549728,78.758087 54.789581,78.758087 53.996887Z" style="fill: rgb(100.000000%,100.000000%,100.000000%);stroke: none;"></path>
  <path d="M89.404221 54.027328C89.404221 53.234634,89.089279 52.474487,88.528793 51.914017C87.968323 51.353531,87.208176 51.038589,86.415482 51.038589C85.622787 51.038589,84.862640 51.353531,84.302170 51.914017C83.741684 52.474487,83.426743 53.234634,83.426743 54.027328C83.426743 54.820023,83.741684 55.580170,84.302170 56.140640C84.862640 56.701126,85.622787 57.016068,86.415482 57.016068C87.208176 57.016068,87.968323 56.701126,88.528793 56.140640C89.089279 55.580170,89.404221 54.820023,89.404221 54.027328Z" style="fill: rgb(100.000000%,100.000000%,100.000000%);stroke: none;"></path>
  <path d="M64.016708 49.739578C64.016708 48.946884,63.701767 48.186737,63.141281 47.626266C62.580811 47.065781,61.820663 46.750839,61.027969 46.750839C60.235275 46.750839,59.475128 47.065781,58.914658 47.626266C58.354172 48.186737,58.039230 48.946884,58.039230 49.739578C58.039230 50.532272,58.354172 51.292419,58.914658 51.852890C59.475128 52.413376,60.235275 52.728317,61.027969 52.728317C61.820663 52.728317,62.580811 52.413376,63.141281 51.852890C63.701767 51.292419,64.016708 50.532272,64.016708 49.739578Z" style="fill: rgb(100.000000%,100.000000%,100.000000%);stroke: none;"></path>
  <path d="M73.880478 52.229050C73.880478 51.436356,73.565536 50.676208,73.005051 50.115738C72.444580 49.555252,71.684433 49.240311,70.891739 49.240311C70.099045 49.240311,69.338898 49.555252,68.778427 50.115738C68.217941 50.676208,67.903000 51.436356,67.903000 52.229050C67.903000 53.021744,68.217941 53.781891,68.778427 54.342361C69.338898 54.902847,70.099045 55.217789,70.891739 55.217789C71.684433 55.217789,72.444580 54.902847,73.005051 54.342361C73.565536 53.781891,73.880478 53.021744,73.880478 52.229050Z" style="fill: rgb(100.000000%,100.000000%,100.000000%);stroke: none;"></path>
  <path d="M46.017441 46.225586C46.017441 45.432892,45.702499 44.672745,45.142014 44.112274C44.581543 43.551788,43.821396 43.236847,43.028702 43.236847C42.236008 43.236847,41.475861 43.551788,40.915390 44.112274C40.354904 44.672745,40.039963 45.432892,40.039963 46.225586C40.039963 47.018280,40.354904 47.778427,40.915390 48.338898C41.475861 48.899384,42.236008 49.214325,43.028702 49.214325C43.821396 49.214325,44.581543 48.899384,45.142014 48.338898C45.702499 47.778427,46.017441 47.018280,46.017441 46.225586Z" style="fill: rgb(100.000000%,100.000000%,100.000000%);stroke: none;"></path>
  <path d="M58.987411 49.009659C58.987411 48.216965,58.672470 47.456818,58.111984 46.896347C57.551514 46.335861,56.791367 46.020920,55.998672 46.020920C55.205978 46.020920,54.445831 46.335861,53.885361 46.896347C53.324875 47.456818,53.009933 48.216965,53.009933 49.009659C53.009933 49.802353,53.324875 50.562500,53.885361 51.122971C54.445831 51.683456,55.205978 51.998398,55.998672 51.998398C56.791367 51.998398,57.551514 51.683456,58.111984 51.122971C58.672470 50.562500,58.987411 49.802353,58.987411 49.009659Z" style="fill: rgb(100.000000%,100.000000%,100.000000%);stroke: none;"></path>
  <path d="M18.003525 50.649323C18.003525 49.856628,17.688583 49.096481,17.128098 48.536011C16.567627 47.975525,15.807480 47.660583,15.014786 47.660583C14.222092 47.660583,13.461945 47.975525,12.901474 48.536011C12.340988 49.096481,12.026047 49.856628,12.026047 50.649323C12.026047 51.442017,12.340988 52.202164,12.901474 52.762634C13.461945 53.323120,14.222092 53.638062,15.014786 53.638062C15.807480 53.638062,16.567627 53.323120,17.128098 52.762634C17.688583 52.202164,18.003525 51.442017,18.003525 50.649323Z" style="fill: rgb(100.000000%,100.000000%,100.000000%);stroke: none;"></path>
  <path d="M37.766296 43.682739C37.766296 42.890045,37.451355 42.129898,36.890869 41.569427C36.330399 41.008942,35.570251 40.694000,34.777557 40.694000C33.984863 40.694000,33.224716 41.008942,32.664246 41.569427C32.103760 42.129898,31.788818 42.890045,31.788818 43.682739C31.788818 44.475433,32.103760 45.235580,32.664246 45.796051C33.224716 46.356537,33.984863 46.671478,34.777557 46.671478C35.570251 46.671478,36.330399 46.356537,36.890869 45.796051C37.451355 45.235580,37.766296 44.475433,37.766296 43.682739Z" style="fill: rgb(100.000000%,100.000000%,100.000000%);stroke: none;"></path>
  <path d="M7.259583 89.985397C7.259583 89.192703,6.944641 88.432556,6.384155 87.872086C5.823685 87.311600,5.063538 86.996658,4.270844 86.996658C3.478149 86.996658,2.718002 87.311600,2.157532 87.872086C1.597046 88.432556,1.282104 89.192703,1.282104 89.985397C1.282104 90.778091,1.597046 91.538239,2.157532 92.098709C2.718002 92.659195,3.478149 92.974136,4.270844 92.974136C5.063538 92.974136,5.823685 92.659195,6.384155 92.098709C6.944641 91.538239,7.259583 90.778091,7.259583 89.985397Z" style="fill: rgb(100.000000%,100.000000%,100.000000%);stroke: none;"></path>
  <path d="M13.551132 64.059601C13.551132 63.266907,13.236191 62.506760,12.675705 61.946289C12.115234 61.385803,11.355087 61.070862,10.562393 61.070862C9.769699 61.070862,9.009552 61.385803,8.449081 61.946289C7.888596 62.506760,7.573654 63.266907,7.573654 64.059601C7.573654 64.852295,7.888596 65.612442,8.449081 66.172913C9.009552 66.733398,9.769699 67.048340,10.562393 67.048340C11.355087 67.048340,12.115234 66.733398,12.675705 66.172913C13.236191 65.612442,13.551132 64.852295,13.551132 64.059601Z" style="fill: rgb(100.000000%,100.000000%,100.000000%);stroke: none;"></path>
  <path d="M21.832169 121.356812C21.832169 120.564117,21.517227 119.803970,20.956741 119.243500C20.396271 118.683014,19.636124 118.368073,18.843430 118.368073C18.050735 118.368073,17.290588 118.683014,16.730118 119.243500C16.169632 119.803970,15.854691 120.564117,15.854691 121.356812C15.854691 122.149506,16.169632 122.909653,16.730118 123.470123C17.290588 124.030609,18.050735 124.345551,18.843430 124.345551C19.636124 124.345551,20.396271 124.030609,20.956741 123.470123C21.517227 122.909653,21.832169 122.149506,21.832169 121.356812Z" style="fill: rgb(100.000000%,100.000000%,100.000000%);stroke: none;"></path>
  <path d="M5.067474 104.826401C5.067474 104.033707,4.752533 103.273560,4.192047 102.713089C3.631577 102.152603,2.871429 101.837662,2.078735 101.837662C1.286041 101.837662,0.525894 102.152603,-0.034576 102.713089C-0.595062 103.273560,-0.910004 104.033707,-0.910004 104.826401C-0.910004 105.619095,-0.595062 106.379242,-0.034576 106.939713C0.525894 107.500198,1.286041 107.815140,2.078735 107.815140C2.871429 107.815140,3.631577 107.500198,4.192047 106.939713C4.752533 106.379242,5.067474 105.619095,5.067474 104.826401Z" style="fill: rgb(100.000000%,100.000000%,100.000000%);stroke: none;"></path>
  <path d="M43.441681 140.854279C43.441681 140.061584,43.126740 139.301437,42.566254 138.740967C42.005783 138.180481,41.245636 137.865540,40.452942 137.865540C39.660248 137.865540,38.900101 138.180481,38.339630 138.740967C37.779144 139.301437,37.464203 140.061584,37.464203 140.854279C37.464203 141.646973,37.779144 142.407120,38.339630 142.967590C38.900101 143.528076,39.660248 143.843018,40.452942 143.843018C41.245636 143.843018,42.005783 143.528076,42.566254 142.967590C43.126740 142.407120,43.441681 141.646973,43.441681 140.854279Z" style="fill: rgb(100.000000%,100.000000%,100.000000%);stroke: none;"></path>
  <path d="M34.204239 122.280777C34.204239 121.488083,33.889297 120.727936,33.328812 120.167465C32.768341 119.606979,32.008194 119.292038,31.215500 119.292038C30.422806 119.292038,29.662659 119.606979,29.102188 120.167465C28.541702 120.727936,28.226761 121.488083,28.226761 122.280777C28.226761 123.073471,28.541702 123.833618,29.102188 124.394089C29.662659 124.954575,30.422806 125.269516,31.215500 125.269516C32.008194 125.269516,32.768341 124.954575,33.328812 124.394089C33.889297 123.833618,34.204239 123.073471,34.204239 122.280777Z" style="fill: rgb(100.000000%,100.000000%,100.000000%);stroke: none;"></path>
  <path d="M39.087051 173.035400C39.087051 172.242706,38.772110 171.482559,38.211624 170.922089C37.651154 170.361603,36.891006 170.046661,36.098312 170.046661C35.305618 170.046661,34.545471 170.361603,33.985001 170.922089C33.424515 171.482559,33.109573 172.242706,33.109573 173.035400C33.109573 173.828094,33.424515 174.588242,33.985001 175.148712C34.545471 175.709198,35.305618 176.024139,36.098312 176.024139C36.891006 176.024139,37.651154 175.709198,38.211624 175.148712C38.772110 174.588242,39.087051 173.828094,39.087051 173.035400Z" style="fill: rgb(100.000000%,100.000000%,100.000000%);stroke: none;"></path>
  <path d="M36.775467 151.203064C36.775467 150.410370,36.460526 149.650223,35.900040 149.089752C35.339569 148.529266,34.579422 148.214325,33.786728 148.214325C32.994034 148.214325,32.233887 148.529266,31.673416 149.089752C31.112930 149.650223,30.797989 150.410370,30.797989 151.203064C30.797989 151.995758,31.112930 152.755905,31.673416 153.316376C32.233887 153.876862,32.994034 154.191803,33.786728 154.191803C34.579422 154.191803,35.339569 153.876862,35.900040 153.316376C36.460526 152.755905,36.775467 151.995758,36.775467 151.203064Z" style="fill: rgb(100.000000%,100.000000%,100.000000%);stroke: none;"></path>
  <path d="M74.533127 184.323669C74.533127 183.530975,74.218185 182.770828,73.657700 182.210358C73.097229 181.649872,72.337082 181.334930,71.544388 181.334930C70.751694 181.334930,69.991547 181.649872,69.431076 182.210358C68.870590 182.770828,68.555649 183.530975,68.555649 184.323669C68.555649 185.116364,68.870590 185.876511,69.431076 186.436981C69.991547 186.997467,70.751694 187.312408,71.544388 187.312408C72.337082 187.312408,73.097229 186.997467,73.657700 186.436981C74.218185 185.876511,74.533127 185.116364,74.533127 184.323669Z" style="fill: rgb(100.000000%,100.000000%,100.000000%);stroke: none;"></path>
  <path d="M49.502533 181.375351C49.502533 180.582657,49.187592 179.822510,48.627106 179.262039C48.066635 178.701553,47.306488 178.386612,46.513794 178.386612C45.721100 178.386612,44.960953 178.701553,44.400482 179.262039C43.839996 179.822510,43.525055 180.582657,43.525055 181.375351C43.525055 182.168045,43.839996 182.928192,44.400482 183.488663C44.960953 184.049149,45.721100 184.364090,46.513794 184.364090C47.306488 184.364090,48.066635 184.049149,48.627106 183.488663C49.187592 182.928192,49.502533 182.168045,49.502533 181.375351Z" style="fill: rgb(100.000000%,100.000000%,100.000000%);stroke: none;"></path>
  <path d="M97.138992 153.734482C97.138992 152.941788,96.824051 152.181641,96.263565 151.621170C95.703094 151.060684,94.942947 150.745743,94.150253 150.745743C93.357559 150.745743,92.597412 151.060684,92.036942 151.621170C91.476456 152.181641,91.161514 152.941788,91.161514 153.734482C91.161514 154.527176,91.476456 155.287323,92.036942 155.847794C92.597412 156.408279,93.357559 156.723221,94.150253 156.723221C94.942947 156.723221,95.703094 156.408279,96.263565 155.847794C96.824051 155.287323,97.138992 154.527176,97.138992 153.734482Z" style="fill: rgb(100.000000%,100.000000%,100.000000%);stroke: none;"></path>
  <path d="M87.326965 177.893631C87.326965 177.100937,87.012024 176.340790,86.451538 175.780319C85.891068 175.219833,85.130920 174.904892,84.338226 174.904892C83.545532 174.904892,82.785385 175.219833,82.224915 175.780319C81.664429 176.340790,81.349487 177.100937,81.349487 177.893631C81.349487 178.686325,81.664429 179.446472,82.224915 180.006943C82.785385 180.567429,83.545532 180.882370,84.338226 180.882370C85.130920 180.882370,85.891068 180.567429,86.451538 180.006943C87.012024 179.446472,87.326965 178.686325,87.326965 177.893631Z" style="fill: rgb(100.000000%,100.000000%,100.000000%);stroke: none;"></path>
  <path d="M90.952591 127.307938C92.746384 117.825897,94.762726 108.387314,97.000000 99.000000C98.984543 90.673096,101.150940 82.311752,101.102737 73.741776C101.058350 65.850357,99.136917 58.141281,97.000000 50.552139C95.339233 44.654037,93.543747 38.793472,91.490158 33.020203C88.466873 24.520813,84.512039 15.877838,76.528534 11.717072C66.147339 6.306702,53.971695 10.465042,44.179611 17.322540C34.191589 24.317261,25.967636 34.468796,27.021271 46.416916C27.811737 55.380737,33.875595 62.601303,40.351440 68.863342C44.672867 73.042084,49.233047 76.963211,53.881866 80.773880C59.817474 85.639328,65.948135 90.355484,72.977112 93.455093C80.546890 96.793182,88.784622 98.096695,97.000000 99.000000C106.275696 100.019897,115.702408 100.577209,124.468704 103.816254C136.313049 108.192612,146.767563 117.309494,159.512070 116.652496C172.358215 115.990265,182.477448 106.027527,186.033142 93.460678C189.406860 81.536957,186.259811 68.339218,175.770615 62.463272C167.277802 57.705673,155.609741 59.746338,149.005646 52.264297C141.918121 44.234573,146.409012 32.100266,142.686264 22.395630C138.011902 10.210281,124.029633 6.121017,110.781281 4.268723C98.298264 2.523422,84.654099 2.363785,76.528534 11.717072C70.936707 18.153793,70.284286 27.088821,68.852249 35.460007C67.964539 40.649246,66.696533 45.769531,65.946411 50.980927C65.192505 56.218552,64.949081 61.586334,63.025009 66.525955C60.964005 71.817154,57.161041 76.152145,53.881866 80.773880C49.391541 87.102661,45.722015 94.184616,39.558823 98.939026C31.061142 105.494308,19.172226 106.516586,11.635437 114.249542C3.400497 122.698837,2.825684 135.705124,8.188828 146.422913C13.388580 156.814178,23.935471 163.952820,34.848969 161.235703C44.612457 158.804901,51.162292 148.246429,61.451935 148.326752C73.070328 148.417435,78.999664 161.275620,89.193420 165.939194C103.643463 172.549988,118.597260 162.361359,131.853683 152.894730C145.209045 143.357437,159.939606 132.788834,159.512070 116.652496C159.207260 105.147934,149.981964 94.324921,154.273605 83.267471C158.016632 73.623535,169.874664 70.730667,175.770615 62.463272C182.498077 53.029922,180.293182 40.223953,172.617493 31.174957C165.103348 22.316406,153.213776 17.987762,142.686264 22.395630C132.613922 26.612915,127.715118 37.787109,118.555191 43.570053C112.106552 47.641281,104.339172 48.570831,97.000000 50.552139C91.668060 51.991562,86.415482 54.027328,80.879929 54.011505C75.769348 53.996887,70.891739 52.229050,65.946411 50.980927C61.027969 49.739578,55.998672 49.009659,51.039566 47.945160C43.028702 46.225586,34.777557 43.682739,27.021271 46.416916C15.014786 50.649323,10.562393 64.059601,7.505798 76.654999C4.270844 89.985397,2.078735 104.826401,11.635437 114.249542C18.843430 121.356812,31.215500 122.280777,35.841232 131.581635C40.452942 140.854279,33.786728 151.203064,34.848969 161.235703C36.098312 173.035400,46.513794 181.375351,58.575378 182.796066C71.544388 184.323669,84.338226 177.893631,89.193420 165.939194C94.150253 153.734482,88.526901 140.130203,90.952591 127.307938" style="stroke:rgb(0.000000%,0.000000%,0.000000%); stroke-width: 0.498138;stroke-linecap: round;stroke-linejoin: round;stroke-miterlimit: 10.000000;fill: none;"></path>
  <path d="M90.952591 127.307938C92.746384 117.825897,94.762726 108.387314,97.000000 99.000000" style="stroke:rgb(0.000000%,0.000000%,0.000000%); stroke-width: 1.494400;stroke-linecap: round;stroke-linejoin: round;stroke-miterlimit: 10.000000;fill: none;"></path>
  <path d="M34.848969 161.235703C36.098312 173.035400,46.513794 181.375351,58.575378 182.796066C71.544388 184.323669,84.338226 177.893631,89.193420 165.939194C94.150253 153.734482,88.526901 140.130203,90.952591 127.307938" style="stroke:rgb(0.000000%,0.000000%,0.000000%); stroke-width: 1.494400;stroke-linecap: round;stroke-linejoin: round;stroke-miterlimit: 10.000000;fill: none;"></path>
  <path d="M99.988739 99.000000C99.988739 98.207306,99.673798 97.447159,99.113312 96.886688C98.552841 96.326202,97.792694 96.011261,97.000000 96.011261C96.207306 96.011261,95.447159 96.326202,94.886688 96.886688C94.326202 97.447159,94.011261 98.207306,94.011261 99.000000C94.011261 99.792694,94.326202 100.552841,94.886688 101.113312C95.447159 101.673798,96.207306 101.988739,97.000000 101.988739C97.792694 101.988739,98.552841 101.673798,99.113312 101.113312C99.673798 100.552841,99.988739 99.792694,99.988739 99.000000Z" style="fill: rgb(100.000000%,100.000000%,100.000000%);stroke: none;"></path>
  <path d="M84.746460 97.140610C88.779037 97.996658,92.892319 98.548355,97.000000 99.000000C101.637848 99.509949,106.313461 99.904251,110.925385 100.575958" style="stroke:rgb(0.000000%,0.000000%,0.000000%); stroke-width: 0.498138;stroke-linecap: round;stroke-linejoin: round;stroke-miterlimit: 10.000000;fill: none;"></path>
  <path d="M79.517273 11.717072C79.517273 10.924377,79.202332 10.164230,78.641846 9.603760C78.081375 9.043274,77.321228 8.728333,76.528534 8.728333C75.735840 8.728333,74.975693 9.043274,74.415222 9.603760C73.854736 10.164230,73.539795 10.924377,73.539795 11.717072C73.539795 12.509766,73.854736 13.269913,74.415222 13.830383C74.975693 14.390869,75.735840 14.705811,76.528534 14.705811C77.321228 14.705811,78.081375 14.390869,78.641846 13.830383C79.202332 13.269913,79.517273 12.509766,79.517273 11.717072Z" style="fill: rgb(100.000000%,100.000000%,100.000000%);stroke: none;"></path>
  <path d="M92.020844 3.830933C86.033737 4.742020,80.591309 7.040436,76.528534 11.717072C73.732620 14.935440,72.171555 18.778381,71.130463 22.863129" style="stroke:rgb(0.000000%,0.000000%,0.000000%); stroke-width: 0.498138;stroke-linecap: round;stroke-linejoin: round;stroke-miterlimit: 10.000000;fill: none;"></path>
  <path d="M56.870605 80.773880C56.870605 79.981186,56.555664 79.221039,55.995178 78.660568C55.434708 78.100082,54.674561 77.785141,53.881866 77.785141C53.089172 77.785141,52.329025 78.100082,51.768555 78.660568C51.208069 79.221039,50.893127 79.981186,50.893127 80.773880C50.893127 81.566574,51.208069 82.326721,51.768555 82.887192C52.329025 83.447678,53.089172 83.762619,53.881866 83.762619C54.674561 83.762619,55.434708 83.447678,55.995178 82.887192C56.555664 82.326721,56.870605 81.566574,56.870605 80.773880Z" style="fill: rgb(100.000000%,100.000000%,100.000000%);stroke: none;"></path>
  <path d="M58.910233 73.900970C57.291977 76.223831,55.521454 78.463013,53.881866 80.773880C51.636703 83.938278,49.596741 87.290970,47.347656 90.446854" style="stroke:rgb(0.000000%,0.000000%,0.000000%); stroke-width: 0.498138;stroke-linecap: round;stroke-linejoin: round;stroke-miterlimit: 10.000000;fill: none;"></path>
  <path d="M162.500809 116.652496C162.500809 115.859802,162.185867 115.099655,161.625381 114.539185C161.064911 113.978699,160.304764 113.663757,159.512070 113.663757C158.719376 113.663757,157.959229 113.978699,157.398758 114.539185C156.838272 115.099655,156.523331 115.859802,156.523331 116.652496C156.523331 117.445190,156.838272 118.205338,157.398758 118.765808C157.959229 119.326294,158.719376 119.641235,159.512070 119.641235C160.304764 119.641235,161.064911 119.326294,161.625381 118.765808C162.185867 118.205338,162.500809 117.445190,162.500809 116.652496Z" style="fill: rgb(100.000000%,100.000000%,100.000000%);stroke: none;"></path>
  <path d="M141.652847 112.121887C147.340073 114.866028,153.139816 116.980988,159.512070 116.652496C165.935150 116.321381,171.676498 113.665131,176.256531 109.520813" style="stroke:rgb(0.000000%,0.000000%,0.000000%); stroke-width: 0.498138;stroke-linecap: round;stroke-linejoin: round;stroke-miterlimit: 10.000000;fill: none;"></path>
  <path d="M145.675003 22.395630C145.675003 21.602936,145.360062 20.842789,144.799576 20.282318C144.239105 19.721832,143.478958 19.406891,142.686264 19.406891C141.893570 19.406891,141.133423 19.721832,140.572952 20.282318C140.012466 20.842789,139.697525 21.602936,139.697525 22.395630C139.697525 23.188324,140.012466 23.948471,140.572952 24.508942C141.133423 25.069427,141.893570 25.384369,142.686264 25.384369C143.478958 25.384369,144.239105 25.069427,144.799576 24.508942C145.360062 23.948471,145.675003 23.188324,145.675003 22.395630Z" style="fill: rgb(100.000000%,100.000000%,100.000000%);stroke: none;"></path>
  <path d="M144.584167 37.958038C144.355606 32.707672,144.547638 27.247940,142.686264 22.395630C140.349075 16.302948,135.684921 12.234299,129.949005 9.457275" style="stroke:rgb(0.000000%,0.000000%,0.000000%); stroke-width: 0.498138;stroke-linecap: round;stroke-linejoin: round;stroke-miterlimit: 10.000000;fill: none;"></path>
  <path d="M68.935150 50.980927C68.935150 50.188232,68.620209 49.428085,68.059723 48.867615C67.499252 48.307129,66.739105 47.992188,65.946411 47.992188C65.153717 47.992188,64.393570 48.307129,63.833099 48.867615C63.272614 49.428085,62.957672 50.188232,62.957672 50.980927C62.957672 51.773621,63.272614 52.533768,63.833099 53.094238C64.393570 53.654724,65.153717 53.969666,65.946411 53.969666C66.739105 53.969666,67.499252 53.654724,68.059723 53.094238C68.620209 52.533768,68.935150 51.773621,68.935150 50.980927Z" style="fill: rgb(100.000000%,100.000000%,100.000000%);stroke: none;"></path>
  <path d="M73.351181 52.958771C70.874802 52.358963,68.419067 51.604980,65.946411 50.980927C63.487183 50.360245,61.000244 49.867432,58.508224 49.396713" style="stroke:rgb(0.000000%,0.000000%,0.000000%); stroke-width: 0.498138;stroke-linecap: round;stroke-linejoin: round;stroke-miterlimit: 10.000000;fill: none;"></path>
  <path d="M14.624176 114.249542C14.624176 113.456848,14.309235 112.696701,13.748749 112.136230C13.188278 111.575745,12.428131 111.260803,11.635437 111.260803C10.842743 111.260803,10.082596 111.575745,9.522125 112.136230C8.961639 112.696701,8.646698 113.456848,8.646698 114.249542C8.646698 115.042236,8.961639 115.802383,9.522125 116.362854C10.082596 116.923340,10.842743 117.238281,11.635437 117.238281C12.428131 117.238281,13.188278 116.923340,13.748749 116.362854C14.309235 115.802383,14.624176 115.042236,14.624176 114.249542Z" style="fill: rgb(100.000000%,100.000000%,100.000000%);stroke: none;"></path>
  <path d="M4.773758 96.917496C5.015945 103.471939,6.857086 109.537979,11.635437 114.249542C15.239441 117.803177,20.134460 119.810989,24.706696 122.093002" style="stroke:rgb(0.000000%,0.000000%,0.000000%); stroke-width: 0.498138;stroke-linecap: round;stroke-linejoin: round;stroke-miterlimit: 10.000000;fill: none;"></path>
  <path d="M92.182159 165.939194C92.182159 165.146500,91.867218 164.386353,91.306732 163.825882C90.746262 163.265396,89.986115 162.950455,89.193420 162.950455C88.400726 162.950455,87.640579 163.265396,87.080109 163.825882C86.519623 164.386353,86.204681 165.146500,86.204681 165.939194C86.204681 166.731888,86.519623 167.492035,87.080109 168.052505C87.640579 168.612991,88.400726 168.927933,89.193420 168.927933C89.986115 168.927933,90.746262 168.612991,91.306732 168.052505C91.867218 167.492035,92.182159 166.731888,92.182159 165.939194Z" style="fill: rgb(100.000000%,100.000000%,100.000000%);stroke: none;"></path>
  <path d="M76.927094 179.423386C82.353577 176.512527,86.765823 171.916412,89.193420 165.939194C91.671844 159.836838,91.505203 153.384583,91.022171 146.855133" style="stroke:rgb(0.000000%,0.000000%,0.000000%); stroke-width: 1.494400;stroke-linecap: round;stroke-linejoin: round;stroke-miterlimit: 10.000000;fill: none;"></path>
  <path d="M178.759354 62.463272C178.759354 61.670578,178.444412 60.910431,177.883926 60.349960C177.323456 59.789474,176.563309 59.474533,175.770615 59.474533C174.977921 59.474533,174.217773 59.789474,173.657303 60.349960C173.096817 60.910431,172.781876 61.670578,172.781876 62.463272C172.781876 63.255966,173.096817 64.016113,173.657303 64.576584C174.217773 65.137070,174.977921 65.452011,175.770615 65.452011C176.563309 65.452011,177.323456 65.137070,177.883926 64.576584C178.444412 64.016113,178.759354 63.255966,178.759354 62.463272Z" style="fill: rgb(100.000000%,100.000000%,100.000000%);stroke: none;"></path>
  <path d="M164.214783 72.349152C168.384155 69.387024,172.822647 66.596970,175.770615 62.463272C179.134354 57.746597,180.264999 52.186768,179.595230 46.674973" style="stroke:rgb(0.000000%,0.000000%,0.000000%); stroke-width: 0.498138;stroke-linecap: round;stroke-linejoin: round;stroke-miterlimit: 10.000000;fill: none;"></path>
  <path d="M99.988739 50.552139C99.988739 49.759445,99.673798 48.999298,99.113312 48.438828C98.552841 47.878342,97.792694 47.563400,97.000000 47.563400C96.207306 47.563400,95.447159 47.878342,94.886688 48.438828C94.326202 48.999298,94.011261 49.759445,94.011261 50.552139C94.011261 51.344833,94.326202 52.104980,94.886688 52.665451C95.447159 53.225937,96.207306 53.540878,97.000000 53.540878C97.792694 53.540878,98.552841 53.225937,99.113312 52.665451C99.673798 52.104980,99.988739 51.344833,99.988739 50.552139Z" style="fill: rgb(100.000000%,100.000000%,100.000000%);stroke: none;"></path>
  <path d="M99.836060 62.033600C99.083038 58.171265,98.068451 54.346710,97.000000 50.552139C96.169617 47.603088,95.305542 44.663422,94.392380 41.739349" style="stroke:rgb(0.000000%,0.000000%,0.000000%); stroke-width: 0.498138;stroke-linecap: round;stroke-linejoin: round;stroke-miterlimit: 10.000000;fill: none;"></path>
  <path d="M30.010010 46.416916C30.010010 45.624222,29.695068 44.864075,29.134583 44.303604C28.574112 43.743118,27.813965 43.428177,27.021271 43.428177C26.228577 43.428177,25.468430 43.743118,24.907959 44.303604C24.347473 44.864075,24.032532 45.624222,24.032532 46.416916C24.032532 47.209610,24.347473 47.969757,24.907959 48.530228C25.468430 49.090714,26.228577 49.405655,27.021271 49.405655C27.813965 49.405655,28.574112 49.090714,29.134583 48.530228C29.695068 47.969757,30.010010 47.209610,30.010010 46.416916Z" style="fill: rgb(100.000000%,100.000000%,100.000000%);stroke: none;"></path>
  <path d="M31.459808 30.012222C28.287033 34.917953,26.494461 40.442856,27.021271 46.416916C27.416504 50.898834,29.130096 54.944931,31.554352 58.653305" style="stroke:rgb(0.000000%,0.000000%,0.000000%); stroke-width: 0.498138;stroke-linecap: round;stroke-linejoin: round;stroke-miterlimit: 10.000000;fill: none;"></path>
  <path d="M37.837708 161.235703C37.837708 160.443008,37.522766 159.682861,36.962280 159.122391C36.401810 158.561905,35.641663 158.246964,34.848969 158.246964C34.056274 158.246964,33.296127 158.561905,32.735657 159.122391C32.175171 159.682861,31.860229 160.443008,31.860229 161.235703C31.860229 162.028397,32.175171 162.788544,32.735657 163.349014C33.296127 163.909500,34.056274 164.224442,34.848969 164.224442C35.641663 164.224442,36.401810 163.909500,36.962280 163.349014C37.522766 162.788544,37.837708 162.028397,37.837708 161.235703Z" style="fill: rgb(100.000000%,100.000000%,100.000000%);stroke: none;"></path>
  <path d="M19.376251 158.744949C24.027130 161.488876,29.392227 162.594254,34.848969 161.235703C39.730713 160.020294,43.809052 156.772980,47.953156 153.839554" style="stroke:rgb(0.000000%,0.000000%,0.000000%); stroke-width: 0.498138;stroke-linecap: round;stroke-linejoin: round;stroke-miterlimit: 10.000000;fill: none;"></path>
  <path d="M58.575378 182.796066C68.950623 184.018158,79.213760 180.147324,85.389847 172.429367" style="stroke:rgb(0.000000%,0.000000%,0.000000%); stroke-width: 0.498138;stroke-linecap: round;stroke-linejoin: round;stroke-miterlimit: 10.000000;fill: none;"></path>
  <path d="M83.550323 177.078751C84.304291 175.595001,84.922668 174.040863,85.389847 172.429367C83.919983 173.238495,82.383759 173.900146,80.801453 174.416153Z" style="stroke:rgb(0.000000%,0.000000%,0.000000%); stroke-width: 0.498138;fill: rgb(0.000000%,0.000000%,0.000000%);"></path>
  <path d="M58.575378 182.796066C68.950623 184.018158,79.213760 180.147324,85.389847 172.429367" style="stroke:rgb(0.000000%,0.000000%,0.000000%); stroke-width: 0.498138;stroke-linecap: round;stroke-linejoin: round;stroke-miterlimit: 10.000000;fill: none;"></path>
  <path d="M84.391861 175.258484C84.776443 174.337860,85.110229 173.393875,85.389847 172.429367C84.510101 172.913651,83.606583 173.345093,82.683640 173.724121Z" style="stroke:rgb(0.000000%,0.000000%,0.000000%); stroke-width: 0.498138;fill: rgb(0.000000%,0.000000%,0.000000%);"></path>
  <path d="M91.490158 33.020203C89.071518 26.220673,86.056686 19.329224,80.859909 14.714340" style="stroke:rgb(0.000000%,0.000000%,0.000000%); stroke-width: 0.498138;stroke-linecap: round;stroke-linejoin: round;stroke-miterlimit: 10.000000;fill: none;"></path>
  <path d="M83.627655 15.871613C82.727707 15.430481,81.805664 15.041931,80.859909 14.714340C81.296997 15.614746,81.674210 16.541473,81.998627 17.489777Z" style="stroke:rgb(0.000000%,0.000000%,0.000000%); stroke-width: 0.498138;fill: rgb(0.000000%,0.000000%,0.000000%);"></path>
  <path d="M40.351440 68.863342C43.808594 72.206345,47.418564 75.384476,51.104462 78.473083" style="stroke:rgb(0.000000%,0.000000%,0.000000%); stroke-width: 0.498138;stroke-linecap: round;stroke-linejoin: round;stroke-miterlimit: 10.000000;fill: none;"></path>
  <path d="M48.247559 77.557465C49.198044 77.868103,50.150482 78.173004,51.104462 78.473083C50.642090 77.586334,50.184250 76.697235,49.731812 75.805481Z" style="stroke:rgb(0.000000%,0.000000%,0.000000%); stroke-width: 0.498138;fill: rgb(0.000000%,0.000000%,0.000000%);"></path>
  <path d="M186.033142 93.460678C188.732132 83.921661,187.257782 73.567276,181.189575 66.798615" style="stroke:rgb(0.000000%,0.000000%,0.000000%); stroke-width: 0.498138;stroke-linecap: round;stroke-linejoin: round;stroke-miterlimit: 10.000000;fill: none;"></path>
  <path d="M183.797806 68.280518C182.964569 67.728531,182.094574 67.232651,181.189575 66.798615C181.522583 67.745468,181.787109 68.711288,181.985947 69.690796Z" style="stroke:rgb(0.000000%,0.000000%,0.000000%); stroke-width: 0.498138;fill: rgb(0.000000%,0.000000%,0.000000%);"></path>
  <path d="M149.005646 52.264297C143.335602 45.840500,145.075806 36.789734,144.092606 28.457611" style="stroke:rgb(0.000000%,0.000000%,0.000000%); stroke-width: 0.498138;stroke-linecap: round;stroke-linejoin: round;stroke-miterlimit: 10.000000;fill: none;"></path>
  <path d="M145.469299 31.123138C145.032944 30.218399,144.578522 29.326004,144.092606 28.457611C143.822144 29.415268,143.512436 30.367569,143.181213 31.315887Z" style="stroke:rgb(0.000000%,0.000000%,0.000000%); stroke-width: 0.498138;fill: rgb(0.000000%,0.000000%,0.000000%);"></path>
  <path d="M63.025009 66.525955C61.376205 70.758926,58.612518 74.379929,55.894058 78.025360" style="stroke:rgb(0.000000%,0.000000%,0.000000%); stroke-width: 0.498138;stroke-linecap: round;stroke-linejoin: round;stroke-miterlimit: 10.000000;fill: none;"></path>
  <path d="M56.624237 75.115540C56.387695 76.086227,56.139633 77.055679,55.894058 78.025360C56.753403 77.513351,57.614288 77.003281,58.467957 76.484161Z" style="stroke:rgb(0.000000%,0.000000%,0.000000%); stroke-width: 0.498138;fill: rgb(0.000000%,0.000000%,0.000000%);"></path>
  <path d="M8.188828 146.422913C12.348648 154.735962,19.930664 160.967316,28.384811 161.736115" style="stroke:rgb(0.000000%,0.000000%,0.000000%); stroke-width: 0.498138;stroke-linecap: round;stroke-linejoin: round;stroke-miterlimit: 10.000000;fill: none;"></path>
  <path d="M25.461258 162.409805C26.449722 162.258133,27.426254 162.034760,28.384811 161.736115C27.495834 161.269470,26.647385 160.736893,25.841202 160.145157Z" style="stroke:rgb(0.000000%,0.000000%,0.000000%); stroke-width: 0.498138;fill: rgb(0.000000%,0.000000%,0.000000%);"></path>
  <path d="M172.617493 31.174957C166.606155 24.088089,157.794525 19.900391,149.120224 20.765656" style="stroke:rgb(0.000000%,0.000000%,0.000000%); stroke-width: 0.498138;stroke-linecap: round;stroke-linejoin: round;stroke-miterlimit: 10.000000;fill: none;"></path>
  <path d="M151.851395 19.524841C150.917267 19.878098,150.005096 20.291260,149.120224 20.765656C150.081360 21.055908,151.018524 21.408798,151.928818 21.819550Z" style="stroke:rgb(0.000000%,0.000000%,0.000000%); stroke-width: 0.498138;fill: rgb(0.000000%,0.000000%,0.000000%);"></path>
  <path d="M80.879929 54.011505C76.791443 53.999817,72.852066 52.866043,68.907837 51.773972" style="stroke:rgb(0.000000%,0.000000%,0.000000%); stroke-width: 0.498138;stroke-linecap: round;stroke-linejoin: round;stroke-miterlimit: 10.000000;fill: none;"></path>
  <path d="M71.884216 51.397629C70.894348 51.531708,69.900757 51.651627,68.907837 51.773972C69.696442 52.389572,70.483795 53.007355,71.278534 53.612503Z" style="stroke:rgb(0.000000%,0.000000%,0.000000%); stroke-width: 0.498138;fill: rgb(0.000000%,0.000000%,0.000000%);"></path>
  <path d="M35.841232 131.581635C39.530609 138.999771,36.002075 147.106644,34.986969 155.189407" style="stroke:rgb(0.000000%,0.000000%,0.000000%); stroke-width: 0.498138;stroke-linecap: round;stroke-linejoin: round;stroke-miterlimit: 10.000000;fill: none;"></path>
  <path d="M34.284409 152.272766C34.494659 153.254349,34.723526 154.229233,34.986969 155.189407C35.479660 154.324203,36.007172 153.473007,36.552597 152.630280Z" style="stroke:rgb(0.000000%,0.000000%,0.000000%); stroke-width: 0.498138;fill: rgb(0.000000%,0.000000%,0.000000%);"></path>
  <path d="M87.961945 130.018143L93.943237 130.018143L93.943237 122.597748L87.961945 122.597748Z" style="fill: rgb(100.000000%,100.000000%,100.000000%);stroke: none;"></path>
  <path d="M87.961945 132.018143L93.943237 132.018143L93.943237 124.597748L87.961945 124.597748Z" style="fill: rgb(100.000000%,100.000000%,100.000000%);stroke: none;"></path>
  <g transform="translate(88.461945 130.518143)" style="fill: rgb(0.000000%,0.000000%,0.000000%);">
    <use xlink:href="#GLYPHcmr10_49"></use>
  </g>
  <path d="M98.112091 76.451981L104.093384 76.451981L104.093384 69.031586L98.112091 69.031586Z" style="fill: rgb(100.000000%,100.000000%,100.000000%);stroke: none;"></path>
  <path d="M98.112091 78.451981L104.093384 78.451981L104.093384 71.031586L98.112091 71.031586Z" style="fill: rgb(100.000000%,100.000000%,100.000000%);stroke: none;"></path>
  <g transform="translate(98.612091 76.951981)" style="fill: rgb(0.000000%,0.000000%,0.000000%);">
    <use xlink:href="#GLYPHcmr10_50"></use>
  </g>
  <path d="M41.188965 20.032745L47.170258 20.032745L47.170258 12.612350L41.188965 12.612350Z" style="fill: rgb(100.000000%,100.000000%,100.000000%);stroke: none;"></path>
  <path d="M41.188965 22.032745L47.170258 22.032745L47.170258 14.612350L41.188965 14.612350Z" style="fill: rgb(100.000000%,100.000000%,100.000000%);stroke: none;"></path>
  <g transform="translate(41.688965 20.532745)" style="fill: rgb(0.000000%,0.000000%,0.000000%);">
    <use xlink:href="#GLYPHcmr10_51"></use>
  </g>
  <path d="M121.478058 106.526459L127.459351 106.526459L127.459351 99.106064L121.478058 99.106064Z" style="fill: rgb(100.000000%,100.000000%,100.000000%);stroke: none;"></path>
  <path d="M121.478058 108.526459L127.459351 108.526459L127.459351 101.106064L121.478058 101.106064Z" style="fill: rgb(100.000000%,100.000000%,100.000000%);stroke: none;"></path>
  <g transform="translate(121.978058 107.026459)" style="fill: rgb(0.000000%,0.000000%,0.000000%);">
    <use xlink:href="#GLYPHcmr10_52"></use>
  </g>
  <path d="M107.790634 6.978928L113.771927 6.978928L113.771927 -0.441467L107.790634 -0.441467Z" style="fill: rgb(100.000000%,100.000000%,100.000000%);stroke: none;"></path>
  <path d="M107.790634 8.978928L113.771927 8.978928L113.771927 1.558533L107.790634 1.558533Z" style="fill: rgb(100.000000%,100.000000%,100.000000%);stroke: none;"></path>
  <g transform="translate(108.290634 7.478928)" style="fill: rgb(0.000000%,0.000000%,0.000000%);">
    <use xlink:href="#GLYPHcmr10_53"></use>
  </g>
  <path d="M36.568176 101.649231L42.549469 101.649231L42.549469 94.228836L36.568176 94.228836Z" style="fill: rgb(100.000000%,100.000000%,100.000000%);stroke: none;"></path>
  <path d="M36.568176 103.649231L42.549469 103.649231L42.549469 96.228836L36.568176 96.228836Z" style="fill: rgb(100.000000%,100.000000%,100.000000%);stroke: none;"></path>
  <g transform="translate(37.068176 102.149231)" style="fill: rgb(0.000000%,0.000000%,0.000000%);">
    <use xlink:href="#GLYPHcmr10_54"></use>
  </g>
  <path d="M58.461288 151.036957L64.442581 151.036957L64.442581 143.616562L58.461288 143.616562Z" style="fill: rgb(100.000000%,100.000000%,100.000000%);stroke: none;"></path>
  <path d="M58.461288 153.036957L64.442581 153.036957L64.442581 145.616562L58.461288 145.616562Z" style="fill: rgb(100.000000%,100.000000%,100.000000%);stroke: none;"></path>
  <g transform="translate(58.961288 151.536957)" style="fill: rgb(0.000000%,0.000000%,0.000000%);">
    <use xlink:href="#GLYPHcmr10_55"></use>
  </g>
  <path d="M128.863037 155.604935L134.844330 155.604935L134.844330 148.184540L128.863037 148.184540Z" style="fill: rgb(100.000000%,100.000000%,100.000000%);stroke: none;"></path>
  <path d="M128.863037 157.604935L134.844330 157.604935L134.844330 150.184540L128.863037 150.184540Z" style="fill: rgb(100.000000%,100.000000%,100.000000%);stroke: none;"></path>
  <g transform="translate(129.363037 156.104935)" style="fill: rgb(0.000000%,0.000000%,0.000000%);">
    <use xlink:href="#GLYPHcmr10_56"></use>
  </g>
  <path d="M151.282959 85.977676L157.264252 85.977676L157.264252 78.557281L151.282959 78.557281Z" style="fill: rgb(100.000000%,100.000000%,100.000000%);stroke: none;"></path>
  <path d="M151.282959 87.977676L157.264252 87.977676L157.264252 80.557281L151.282959 80.557281Z" style="fill: rgb(100.000000%,100.000000%,100.000000%);stroke: none;"></path>
  <g transform="translate(151.782959 86.477676)" style="fill: rgb(0.000000%,0.000000%,0.000000%);">
    <use xlink:href="#GLYPHcmr10_57"></use>
  </g>
  <path d="M113.073837 46.280258L124.036545 46.280258L124.036545 38.859863L113.073837 38.859863Z" style="fill: rgb(100.000000%,100.000000%,100.000000%);stroke: none;"></path>
  <path d="M113.073837 48.280258L124.036545 48.280258L124.036545 40.859863L113.073837 40.859863Z" style="fill: rgb(100.000000%,100.000000%,100.000000%);stroke: none;"></path>
  <g transform="translate(113.573837 46.780258)" style="fill: rgb(0.000000%,0.000000%,0.000000%);">
    <use xlink:href="#GLYPHcmr10_49"></use>
    <use xlink:href="#GLYPHcmr10_48" x="5.000095"></use>
  </g>
  <path d="M45.558212 50.655365L56.520920 50.655365L56.520920 43.234970L45.558212 43.234970Z" style="fill: rgb(100.000000%,100.000000%,100.000000%);stroke: none;"></path>
  <path d="M45.558212 52.655365L56.520920 52.655365L56.520920 45.234970L45.558212 45.234970Z" style="fill: rgb(100.000000%,100.000000%,100.000000%);stroke: none;"></path>
  <g transform="translate(46.058212 51.155365)" style="fill: rgb(0.000000%,0.000000%,0.000000%);">
    <use xlink:href="#GLYPHcmr10_49"></use>
    <use xlink:href="#GLYPHcmr10_49" x="5.000095"></use>
  </g>
  <path d="M2.024445 79.365204L12.987152 79.365204L12.987152 71.944809L2.024445 71.944809Z" style="fill: rgb(100.000000%,100.000000%,100.000000%);stroke: none;"></path>
  <path d="M2.024445 81.365204L12.987152 81.365204L12.987152 73.944809L2.024445 73.944809Z" style="fill: rgb(100.000000%,100.000000%,100.000000%);stroke: none;"></path>
  <g transform="translate(2.524445 79.865204)" style="fill: rgb(0.000000%,0.000000%,0.000000%);">
    <use xlink:href="#GLYPHcmr10_49"></use>
    <use xlink:href="#GLYPHcmr10_50" x="5.000095"></use>
  </g>
</svg>
