<?xml version="1.0"?>
<!-- Created by MetaPost 1.999 on 2021.07.06:0005 -->
<svg version="1.1" xmlns="http://www.w3.org/2000/svg" xmlns:xlink="http://www.w3.org/1999/xlink" width="199.226837" height="199.382202" viewBox="0 0 199.226837 199.382202">
<!-- Original BoundingBox: -125.804413 -118.779053 73.422424 80.603149 -->
  <defs>
    <g transform="scale(0.009963,0.009963)" id="GLYPHcmr10_48">
      <path style="fill-rule: evenodd;" d="M460.000000 -320.000000C460.000000 -400.000000,455.000000 -480.000000,420.000000 -554.000000C374.000000 -650.000000,292.000000 -666.000000,250.000000 -666.000000C190.000000 -666.000000,117.000000 -640.000000,76.000000 -547.000000C44.000000 -478.000000,39.000000 -400.000000,39.000000 -320.000000C39.000000 -245.000000,43.000000 -155.000000,84.000000 -79.000000C127.000000 2.000000,200.000000 22.000000,249.000000 22.000000C303.000000 22.000000,379.000000 1.000000,423.000000 -94.000000C455.000000 -163.000000,460.000000 -241.000000,460.000000 -320.000000M249.000000 -0.000000C210.000000 -0.000000,151.000000 -25.000000,133.000000 -121.000000C122.000000 -181.000000,122.000000 -273.000000,122.000000 -332.000000C122.000000 -396.000000,122.000000 -462.000000,130.000000 -516.000000C149.000000 -635.000000,224.000000 -644.000000,249.000000 -644.000000C282.000000 -644.000000,348.000000 -626.000000,367.000000 -527.000000C377.000000 -471.000000,377.000000 -395.000000,377.000000 -332.000000C377.000000 -257.000000,377.000000 -189.000000,366.000000 -125.000000C351.000000 -30.000000,294.000000 -0.000000,249.000000 -0.000000"></path>
    </g>
    <g transform="scale(0.009963,0.009963)" id="GLYPHcmr10_49">
      <path style="fill-rule: evenodd;" d="M294.000000 -640.000000C294.000000 -664.000000,294.000000 -666.000000,271.000000 -666.000000C209.000000 -602.000000,121.000000 -602.000000,89.000000 -602.000000L89.000000 -571.000000C109.000000 -571.000000,168.000000 -571.000000,220.000000 -597.000000L220.000000 -79.000000C220.000000 -43.000000,217.000000 -31.000000,127.000000 -31.000000L95.000000 -31.000000L95.000000 -0.000000L257.000000 -0.000000L130.000000 -3.000000L217.000000 -3.000000L257.000000 -3.000000L297.000000 -3.000000L384.000000 -3.000000L419.000000 -0.000000L419.000000 -31.000000L387.000000 -31.000000C297.000000 -31.000000,294.000000 -42.000000,294.000000 -79.000000"></path>
    </g>
    <g transform="scale(0.009963,0.009963)" id="GLYPHcmr10_50">
      <path style="fill-rule: evenodd;" d="M127.000000 -77.000000L233.000000 -180.000000C389.000000 -318.000000,449.000000 -372.000000,449.000000 -472.000000C449.000000 -586.000000,359.000000 -666.000000,237.000000 -666.000000C124.000000 -666.000000,50.000000 -574.000000,50.000000 -485.000000C50.000000 -429.000000,100.000000 -429.000000,103.000000 -429.000000C120.000000 -429.000000,155.000000 -441.000000,155.000000 -482.000000C155.000000 -508.000000,137.000000 -534.000000,102.000000 -534.000000C94.000000 -534.000000,92.000000 -534.000000,89.000000 -533.000000C112.000000 -598.000000,166.000000 -635.000000,224.000000 -635.000000C315.000000 -635.000000,358.000000 -554.000000,358.000000 -472.000000C358.000000 -392.000000,308.000000 -313.000000,253.000000 -251.000000L61.000000 -37.000000C50.000000 -26.000000,50.000000 -24.000000,50.000000 -0.000000L421.000000 -0.000000L449.000000 -174.000000L424.000000 -174.000000C419.000000 -144.000000,412.000000 -100.000000,402.000000 -85.000000C395.000000 -77.000000,329.000000 -77.000000,307.000000 -77.000000"></path>
    </g>
    <g transform="scale(0.009963,0.009963)" id="GLYPHcmr10_51">
      <path style="fill-rule: evenodd;" d="M290.000000 -352.000000C372.000000 -379.000000,430.000000 -449.000000,430.000000 -528.000000C430.000000 -610.000000,342.000000 -666.000000,246.000000 -666.000000C145.000000 -666.000000,69.000000 -606.000000,69.000000 -530.000000C69.000000 -497.000000,91.000000 -478.000000,120.000000 -478.000000C151.000000 -478.000000,171.000000 -500.000000,171.000000 -529.000000C171.000000 -579.000000,124.000000 -579.000000,109.000000 -579.000000C140.000000 -628.000000,206.000000 -641.000000,242.000000 -641.000000C283.000000 -641.000000,338.000000 -619.000000,338.000000 -529.000000C338.000000 -517.000000,336.000000 -459.000000,310.000000 -415.000000C280.000000 -367.000000,246.000000 -364.000000,221.000000 -363.000000C213.000000 -362.000000,189.000000 -360.000000,182.000000 -360.000000C174.000000 -359.000000,167.000000 -358.000000,167.000000 -348.000000C167.000000 -337.000000,174.000000 -337.000000,191.000000 -337.000000L235.000000 -337.000000C317.000000 -337.000000,354.000000 -269.000000,354.000000 -171.000000C354.000000 -35.000000,285.000000 -6.000000,241.000000 -6.000000C198.000000 -6.000000,123.000000 -23.000000,88.000000 -82.000000C123.000000 -77.000000,154.000000 -99.000000,154.000000 -137.000000C154.000000 -173.000000,127.000000 -193.000000,98.000000 -193.000000C74.000000 -193.000000,42.000000 -179.000000,42.000000 -135.000000C42.000000 -44.000000,135.000000 22.000000,244.000000 22.000000C366.000000 22.000000,457.000000 -69.000000,457.000000 -171.000000C457.000000 -253.000000,394.000000 -331.000000,290.000000 -352.000000"></path>
    </g>
    <g transform="scale(0.009963,0.009963)" id="GLYPHcmr10_52">
      <path style="fill-rule: evenodd;" d="M294.000000 -165.000000L294.000000 -78.000000C294.000000 -42.000000,292.000000 -31.000000,218.000000 -31.000000L197.000000 -31.000000L197.000000 -0.000000L332.000000 -0.000000L238.000000 -3.000000L290.000000 -3.000000L332.000000 -3.000000L374.000000 -3.000000L427.000000 -3.000000L468.000000 -0.000000L468.000000 -31.000000L447.000000 -31.000000C373.000000 -31.000000,371.000000 -42.000000,371.000000 -78.000000L371.000000 -165.000000L471.000000 -165.000000L471.000000 -196.000000L371.000000 -196.000000L371.000000 -651.000000C371.000000 -671.000000,371.000000 -677.000000,355.000000 -677.000000C346.000000 -677.000000,343.000000 -677.000000,335.000000 -665.000000L28.000000 -196.000000L28.000000 -165.000000M300.000000 -196.000000L56.000000 -196.000000L300.000000 -569.000000"></path>
    </g>
    <g transform="scale(0.009963,0.009963)" id="GLYPHcmr10_53">
      <path style="fill-rule: evenodd;" d="M449.000000 -201.000000C449.000000 -320.000000,367.000000 -420.000000,259.000000 -420.000000C211.000000 -420.000000,168.000000 -404.000000,132.000000 -369.000000L132.000000 -564.000000C152.000000 -558.000000,185.000000 -551.000000,217.000000 -551.000000C340.000000 -551.000000,410.000000 -642.000000,410.000000 -655.000000C410.000000 -661.000000,407.000000 -666.000000,400.000000 -666.000000C399.000000 -666.000000,397.000000 -666.000000,392.000000 -663.000000C372.000000 -654.000000,323.000000 -634.000000,256.000000 -634.000000C216.000000 -634.000000,170.000000 -641.000000,123.000000 -662.000000C115.000000 -665.000000,113.000000 -665.000000,111.000000 -665.000000C101.000000 -665.000000,101.000000 -657.000000,101.000000 -641.000000L101.000000 -345.000000C101.000000 -327.000000,101.000000 -319.000000,115.000000 -319.000000C122.000000 -319.000000,124.000000 -322.000000,128.000000 -328.000000C139.000000 -344.000000,176.000000 -398.000000,257.000000 -398.000000C309.000000 -398.000000,334.000000 -352.000000,342.000000 -334.000000C358.000000 -297.000000,360.000000 -258.000000,360.000000 -208.000000C360.000000 -173.000000,360.000000 -113.000000,336.000000 -71.000000C312.000000 -32.000000,275.000000 -6.000000,229.000000 -6.000000C156.000000 -6.000000,99.000000 -59.000000,82.000000 -118.000000C85.000000 -117.000000,88.000000 -116.000000,99.000000 -116.000000C132.000000 -116.000000,149.000000 -141.000000,149.000000 -165.000000C149.000000 -189.000000,132.000000 -214.000000,99.000000 -214.000000C85.000000 -214.000000,50.000000 -207.000000,50.000000 -161.000000C50.000000 -75.000000,119.000000 22.000000,231.000000 22.000000C347.000000 22.000000,449.000000 -74.000000,449.000000 -201.000000"></path>
    </g>
    <g transform="scale(0.009963,0.009963)" id="GLYPHcmr10_54">
      <path style="fill-rule: evenodd;" d="M132.000000 -328.000000L132.000000 -352.000000C132.000000 -605.000000,256.000000 -641.000000,307.000000 -641.000000C331.000000 -641.000000,373.000000 -635.000000,395.000000 -601.000000C380.000000 -601.000000,340.000000 -601.000000,340.000000 -556.000000C340.000000 -525.000000,364.000000 -510.000000,386.000000 -510.000000C402.000000 -510.000000,432.000000 -519.000000,432.000000 -558.000000C432.000000 -618.000000,388.000000 -666.000000,305.000000 -666.000000C177.000000 -666.000000,42.000000 -537.000000,42.000000 -316.000000C42.000000 -49.000000,158.000000 22.000000,251.000000 22.000000C362.000000 22.000000,457.000000 -72.000000,457.000000 -204.000000C457.000000 -331.000000,368.000000 -427.000000,257.000000 -427.000000C189.000000 -427.000000,152.000000 -376.000000,132.000000 -328.000000M251.000000 -6.000000C188.000000 -6.000000,158.000000 -66.000000,152.000000 -81.000000C134.000000 -128.000000,134.000000 -208.000000,134.000000 -226.000000C134.000000 -304.000000,166.000000 -404.000000,256.000000 -404.000000C272.000000 -404.000000,318.000000 -404.000000,349.000000 -342.000000C367.000000 -305.000000,367.000000 -254.000000,367.000000 -205.000000C367.000000 -157.000000,367.000000 -107.000000,350.000000 -71.000000C320.000000 -11.000000,274.000000 -6.000000,251.000000 -6.000000"></path>
    </g>
    <g transform="scale(0.009963,0.009963)" id="GLYPHcmr10_55">
      <path style="fill-rule: evenodd;" d="M476.000000 -609.000000C485.000000 -621.000000,485.000000 -623.000000,485.000000 -644.000000L242.000000 -644.000000C120.000000 -644.000000,118.000000 -657.000000,114.000000 -676.000000L89.000000 -676.000000L56.000000 -470.000000L81.000000 -470.000000C84.000000 -486.000000,93.000000 -549.000000,106.000000 -561.000000C113.000000 -567.000000,191.000000 -567.000000,204.000000 -567.000000L411.000000 -567.000000C400.000000 -551.000000,321.000000 -442.000000,299.000000 -409.000000C209.000000 -274.000000,176.000000 -135.000000,176.000000 -33.000000C176.000000 -23.000000,176.000000 22.000000,222.000000 22.000000C268.000000 22.000000,268.000000 -23.000000,268.000000 -33.000000L268.000000 -84.000000C268.000000 -139.000000,271.000000 -194.000000,279.000000 -248.000000C283.000000 -271.000000,297.000000 -357.000000,341.000000 -419.000000"></path>
    </g>
    <g transform="scale(0.009963,0.009963)" id="GLYPHcmr10_56">
      <path style="fill-rule: evenodd;" d="M163.000000 -457.000000C117.000000 -487.000000,113.000000 -521.000000,113.000000 -538.000000C113.000000 -599.000000,178.000000 -641.000000,249.000000 -641.000000C322.000000 -641.000000,386.000000 -589.000000,386.000000 -517.000000C386.000000 -460.000000,347.000000 -412.000000,287.000000 -377.000000M309.000000 -362.000000C381.000000 -399.000000,430.000000 -451.000000,430.000000 -517.000000C430.000000 -609.000000,341.000000 -666.000000,250.000000 -666.000000C150.000000 -666.000000,69.000000 -592.000000,69.000000 -499.000000C69.000000 -481.000000,71.000000 -436.000000,113.000000 -389.000000C124.000000 -377.000000,161.000000 -352.000000,186.000000 -335.000000C128.000000 -306.000000,42.000000 -250.000000,42.000000 -151.000000C42.000000 -45.000000,144.000000 22.000000,249.000000 22.000000C362.000000 22.000000,457.000000 -61.000000,457.000000 -168.000000C457.000000 -204.000000,446.000000 -249.000000,408.000000 -291.000000C389.000000 -312.000000,373.000000 -322.000000,309.000000 -362.000000M209.000000 -320.000000L332.000000 -242.000000C360.000000 -223.000000,407.000000 -193.000000,407.000000 -132.000000C407.000000 -58.000000,332.000000 -6.000000,250.000000 -6.000000C164.000000 -6.000000,92.000000 -68.000000,92.000000 -151.000000C92.000000 -209.000000,124.000000 -273.000000,209.000000 -320.000000"></path>
    </g>
    <g transform="scale(0.009963,0.009963)" id="GLYPHcmr10_57">
      <path style="fill-rule: evenodd;" d="M367.000000 -318.000000L367.000000 -286.000000C367.000000 -52.000000,263.000000 -6.000000,205.000000 -6.000000C188.000000 -6.000000,134.000000 -8.000000,107.000000 -42.000000C151.000000 -42.000000,159.000000 -71.000000,159.000000 -88.000000C159.000000 -119.000000,135.000000 -134.000000,113.000000 -134.000000C97.000000 -134.000000,67.000000 -125.000000,67.000000 -86.000000C67.000000 -19.000000,121.000000 22.000000,206.000000 22.000000C335.000000 22.000000,457.000000 -114.000000,457.000000 -329.000000C457.000000 -598.000000,342.000000 -666.000000,253.000000 -666.000000C198.000000 -666.000000,149.000000 -648.000000,106.000000 -603.000000C65.000000 -558.000000,42.000000 -516.000000,42.000000 -441.000000C42.000000 -316.000000,130.000000 -218.000000,242.000000 -218.000000C303.000000 -218.000000,344.000000 -260.000000,367.000000 -318.000000M243.000000 -241.000000C227.000000 -241.000000,181.000000 -241.000000,150.000000 -304.000000C132.000000 -341.000000,132.000000 -391.000000,132.000000 -440.000000C132.000000 -494.000000,132.000000 -541.000000,153.000000 -578.000000C180.000000 -628.000000,218.000000 -641.000000,253.000000 -641.000000C299.000000 -641.000000,332.000000 -607.000000,349.000000 -562.000000C361.000000 -530.000000,365.000000 -467.000000,365.000000 -421.000000C365.000000 -338.000000,331.000000 -241.000000,243.000000 -241.000000"></path>
    </g>
  </defs>
  <path d="M126.253830 90.130920C126.253830 89.338226,125.938889 88.578079,125.378403 88.017609C124.817932 87.457123,124.057785 87.142181,123.265091 87.142181C122.472397 87.142181,121.712250 87.457123,121.151779 88.017609C120.591293 88.578079,120.276352 89.338226,120.276352 90.130920C120.276352 90.923615,120.591293 91.683762,121.151779 92.244232C121.712250 92.804718,122.472397 93.119659,123.265091 93.119659C124.057785 93.119659,124.817932 92.804718,125.378403 92.244232C125.938889 91.683762,126.253830 90.923615,126.253830 90.130920Z" style="fill: rgb(100.000000%,100.000000%,100.000000%);stroke: none;"></path>
  <path d="M124.825455 95.067627C124.825455 94.274933,124.510513 93.514786,123.950027 92.954315C123.389557 92.393829,122.629410 92.078888,121.836716 92.078888C121.044022 92.078888,120.283875 92.393829,119.723404 92.954315C119.162918 93.514786,118.847977 94.274933,118.847977 95.067627C118.847977 95.860321,119.162918 96.620468,119.723404 97.180939C120.283875 97.741425,121.044022 98.056366,121.836716 98.056366C122.629410 98.056366,123.389557 97.741425,123.950027 97.180939C124.510513 96.620468,124.825455 95.860321,124.825455 95.067627Z" style="fill: rgb(100.000000%,100.000000%,100.000000%);stroke: none;"></path>
  <path d="M128.890411 73.220367C128.890411 72.427673,128.575470 71.667526,128.014984 71.107056C127.454514 70.546570,126.694366 70.231628,125.901672 70.231628C125.108978 70.231628,124.348831 70.546570,123.788361 71.107056C123.227875 71.667526,122.912933 72.427673,122.912933 73.220367C122.912933 74.013062,123.227875 74.773209,123.788361 75.333679C124.348831 75.894165,125.108978 76.209106,125.901672 76.209106C126.694366 76.209106,127.454514 75.894165,128.014984 75.333679C128.575470 74.773209,128.890411 74.013062,128.890411 73.220367Z" style="fill: rgb(100.000000%,100.000000%,100.000000%);stroke: none;"></path>
  <path d="M127.311203 85.094345C127.311203 84.301651,126.996262 83.541504,126.435776 82.981033C125.875305 82.420547,125.115158 82.105606,124.322464 82.105606C123.529770 82.105606,122.769623 82.420547,122.209152 82.981033C121.648666 83.541504,121.333725 84.301651,121.333725 85.094345C121.333725 85.887039,121.648666 86.647186,122.209152 87.207657C122.769623 87.768143,123.529770 88.083084,124.322464 88.083084C125.115158 88.083084,125.875305 87.768143,126.435776 87.207657C126.996262 86.647186,127.311203 85.887039,127.311203 85.094345Z" style="fill: rgb(100.000000%,100.000000%,100.000000%);stroke: none;"></path>
  <path d="M131.054672 47.350891C131.054672 46.558197,130.739731 45.798050,130.179245 45.237579C129.618774 44.677094,128.858627 44.362152,128.065933 44.362152C127.273239 44.362152,126.513092 44.677094,125.952621 45.237579C125.392136 45.798050,125.077194 46.558197,125.077194 47.350891C125.077194 48.143585,125.392136 48.903732,125.952621 49.464203C126.513092 50.024689,127.273239 50.339630,128.065933 50.339630C128.858627 50.339630,129.618774 50.024689,130.179245 49.464203C130.739731 48.903732,131.054672 48.143585,131.054672 47.350891Z" style="fill: rgb(100.000000%,100.000000%,100.000000%);stroke: none;"></path>
  <path d="M129.114899 66.372543C129.114899 65.579849,128.799957 64.819702,128.239471 64.259232C127.679001 63.698746,126.918854 63.383804,126.126160 63.383804C125.333466 63.383804,124.573318 63.698746,124.012848 64.259232C123.452362 64.819702,123.137421 65.579849,123.137421 66.372543C123.137421 67.165237,123.452362 67.925385,124.012848 68.485855C124.573318 69.046341,125.333466 69.361282,126.126160 69.361282C126.918854 69.361282,127.679001 69.046341,128.239471 68.485855C128.799957 67.925385,129.114899 67.165237,129.114899 66.372543Z" style="fill: rgb(100.000000%,100.000000%,100.000000%);stroke: none;"></path>
  <path d="M118.104187 4.455246C118.104187 3.662552,117.789246 2.902405,117.228760 2.341934C116.668289 1.781448,115.908142 1.466507,115.115448 1.466507C114.322754 1.466507,113.562607 1.781448,113.002136 2.341934C112.441650 2.902405,112.126709 3.662552,112.126709 4.455246C112.126709 5.247940,112.441650 6.008087,113.002136 6.568558C113.562607 7.129044,114.322754 7.443985,115.115448 7.443985C115.908142 7.443985,116.668289 7.129044,117.228760 6.568558C117.789246 6.008087,118.104187 5.247940,118.104187 4.455246Z" style="fill: rgb(100.000000%,100.000000%,100.000000%);stroke: none;"></path>
  <path d="M133.637955 34.587479C133.637955 33.794785,133.323013 33.034637,132.762527 32.474167C132.202057 31.913681,131.441910 31.598740,130.649216 31.598740C129.856522 31.598740,129.096375 31.913681,128.535904 32.474167C127.975418 33.034637,127.660477 33.794785,127.660477 34.587479C127.660477 35.380173,127.975418 36.140320,128.535904 36.700790C129.096375 37.261276,129.856522 37.576218,130.649216 37.576218C131.441910 37.576218,132.202057 37.261276,132.762527 36.700790C133.323013 36.140320,133.637955 35.380173,133.637955 34.587479Z" style="fill: rgb(100.000000%,100.000000%,100.000000%);stroke: none;"></path>
  <path d="M51.029846 14.621490C51.029846 13.828796,50.714905 13.068649,50.154419 12.508179C49.593948 11.947693,48.833801 11.632751,48.041107 11.632751C47.248413 11.632751,46.488266 11.947693,45.927795 12.508179C45.367310 13.068649,45.052368 13.828796,45.052368 14.621490C45.052368 15.414185,45.367310 16.174332,45.927795 16.734802C46.488266 17.295288,47.248413 17.610229,48.041107 17.610229C48.833801 17.610229,49.593948 17.295288,50.154419 16.734802C50.714905 16.174332,51.029846 15.414185,51.029846 14.621490Z" style="fill: rgb(100.000000%,100.000000%,100.000000%);stroke: none;"></path>
  <path d="M92.998840 2.385590C92.998840 1.592896,92.683899 0.832748,92.123413 0.272278C91.562943 -0.288208,90.802795 -0.603149,90.010101 -0.603149C89.217407 -0.603149,88.457260 -0.288208,87.896790 0.272278C87.336304 0.832748,87.021362 1.592896,87.021362 2.385590C87.021362 3.178284,87.336304 3.938431,87.896790 4.498901C88.457260 5.059387,89.217407 5.374329,90.010101 5.374329C90.802795 5.374329,91.562943 5.059387,92.123413 4.498901C92.683899 3.938431,92.998840 3.178284,92.998840 2.385590Z" style="fill: rgb(100.000000%,100.000000%,100.000000%);stroke: none;"></path>
  <path d="M34.751907 59.313766C34.751907 58.521072,34.436966 57.760925,33.876480 57.200455C33.316010 56.639969,32.555862 56.325027,31.763168 56.325027C30.970474 56.325027,30.210327 56.639969,29.649857 57.200455C29.089371 57.760925,28.774429 58.521072,28.774429 59.313766C28.774429 60.106461,29.089371 60.866608,29.649857 61.427078C30.210327 61.987564,30.970474 62.302505,31.763168 62.302505C32.555862 62.302505,33.316010 61.987564,33.876480 61.427078C34.436966 60.866608,34.751907 60.106461,34.751907 59.313766Z" style="fill: rgb(100.000000%,100.000000%,100.000000%);stroke: none;"></path>
  <path d="M32.651718 27.878525C32.651718 27.085831,32.336777 26.325684,31.776291 25.765213C31.215820 25.204727,30.455673 24.889786,29.662979 24.889786C28.870285 24.889786,28.110138 25.204727,27.549667 25.765213C26.989182 26.325684,26.674240 27.085831,26.674240 27.878525C26.674240 28.671219,26.989182 29.431366,27.549667 29.991837C28.110138 30.552322,28.870285 30.867264,29.662979 30.867264C30.455673 30.867264,31.215820 30.552322,31.776291 29.991837C32.336777 29.431366,32.651718 28.671219,32.651718 27.878525Z" style="fill: rgb(100.000000%,100.000000%,100.000000%);stroke: none;"></path>
  <path d="M60.772644 75.913773C60.772644 75.121078,60.457703 74.360931,59.897217 73.800461C59.336746 73.239975,58.576599 72.925034,57.783905 72.925034C56.991211 72.925034,56.231064 73.239975,55.670593 73.800461C55.110107 74.360931,54.795166 75.121078,54.795166 75.913773C54.795166 76.706467,55.110107 77.466614,55.670593 78.027084C56.231064 78.587570,56.991211 78.902512,57.783905 78.902512C58.576599 78.902512,59.336746 78.587570,59.897217 78.027084C60.457703 77.466614,60.772644 76.706467,60.772644 75.913773Z" style="fill: rgb(100.000000%,100.000000%,100.000000%);stroke: none;"></path>
  <path d="M43.730652 68.816254C43.730652 68.023560,43.415710 67.263412,42.855225 66.702942C42.294754 66.142456,41.534607 65.827515,40.741913 65.827515C39.949219 65.827515,39.189072 66.142456,38.628601 66.702942C38.068115 67.263412,37.753174 68.023560,37.753174 68.816254C37.753174 69.608948,38.068115 70.369095,38.628601 70.929565C39.189072 71.490051,39.949219 71.804993,40.741913 71.804993C41.534607 71.804993,42.294754 71.490051,42.855225 70.929565C43.415710 70.369095,43.730652 69.608948,43.730652 68.816254Z" style="fill: rgb(100.000000%,100.000000%,100.000000%);stroke: none;"></path>
  <path d="M76.783783 79.395889C76.783783 78.603195,76.468842 77.843048,75.908356 77.282578C75.347885 76.722092,74.587738 76.407150,73.795044 76.407150C73.002350 76.407150,72.242203 76.722092,71.681732 77.282578C71.121246 77.843048,70.806305 78.603195,70.806305 79.395889C70.806305 80.188583,71.121246 80.948730,71.681732 81.509201C72.242203 82.069687,73.002350 82.384628,73.795044 82.384628C74.587738 82.384628,75.347885 82.069687,75.908356 81.509201C76.468842 80.948730,76.783783 80.188583,76.783783 79.395889Z" style="fill: rgb(100.000000%,100.000000%,100.000000%);stroke: none;"></path>
  <path d="M66.978577 77.028580C66.978577 76.235886,66.663635 75.475739,66.103149 74.915268C65.542679 74.354782,64.782532 74.039841,63.989838 74.039841C63.197144 74.039841,62.436996 74.354782,61.876526 74.915268C61.316040 75.475739,61.001099 76.235886,61.001099 77.028580C61.001099 77.821274,61.316040 78.581421,61.876526 79.141891C62.436996 79.702377,63.197144 80.017319,63.989838 80.017319C64.782532 80.017319,65.542679 79.702377,66.103149 79.141891C66.663635 78.581421,66.978577 77.821274,66.978577 77.028580Z" style="fill: rgb(100.000000%,100.000000%,100.000000%);stroke: none;"></path>
  <path d="M88.073257 80.860825C88.073257 80.068130,87.758316 79.307983,87.197830 78.747513C86.637360 78.187027,85.877213 77.872086,85.084518 77.872086C84.291824 77.872086,83.531677 78.187027,82.971207 78.747513C82.410721 79.307983,82.095779 80.068130,82.095779 80.860825C82.095779 81.653519,82.410721 82.413666,82.971207 82.974136C83.531677 83.534622,84.291824 83.849564,85.084518 83.849564C85.877213 83.849564,86.637360 83.534622,87.197830 82.974136C87.758316 82.413666,88.073257 81.653519,88.073257 80.860825Z" style="fill: rgb(100.000000%,100.000000%,100.000000%);stroke: none;"></path>
  <path d="M80.490067 80.432587C80.490067 79.639893,80.175125 78.879745,79.614639 78.319275C79.054169 77.758789,78.294022 77.443848,77.501328 77.443848C76.708633 77.443848,75.948486 77.758789,75.388016 78.319275C74.827530 78.879745,74.512589 79.639893,74.512589 80.432587C74.512589 81.225281,74.827530 81.985428,75.388016 82.545898C75.948486 83.106384,76.708633 83.421326,77.501328 83.421326C78.294022 83.421326,79.054169 83.106384,79.614639 82.545898C80.175125 81.985428,80.490067 81.225281,80.490067 80.432587Z" style="fill: rgb(100.000000%,100.000000%,100.000000%);stroke: none;"></path>
  <path d="M100.596878 79.230911C100.596878 78.438217,100.281937 77.678070,99.721451 77.117599C99.160980 76.557114,98.400833 76.242172,97.608139 76.242172C96.815445 76.242172,96.055298 76.557114,95.494827 77.117599C94.934341 77.678070,94.619400 78.438217,94.619400 79.230911C94.619400 80.023605,94.934341 80.783752,95.494827 81.344223C96.055298 81.904709,96.815445 82.219650,97.608139 82.219650C98.400833 82.219650,99.160980 81.904709,99.721451 81.344223C100.281937 80.783752,100.596878 80.023605,100.596878 79.230911Z" style="fill: rgb(100.000000%,100.000000%,100.000000%);stroke: none;"></path>
  <path d="M91.815567 80.269791C91.815567 79.477097,91.500626 78.716949,90.940140 78.156479C90.379669 77.595993,89.619522 77.281052,88.826828 77.281052C88.034134 77.281052,87.273987 77.595993,86.713516 78.156479C86.153030 78.716949,85.838089 79.477097,85.838089 80.269791C85.838089 81.062485,86.153030 81.822632,86.713516 82.383102C87.273987 82.943588,88.034134 83.258530,88.826828 83.258530C89.619522 83.258530,90.379669 82.943588,90.940140 82.383102C91.500626 81.822632,91.815567 81.062485,91.815567 80.269791Z" style="fill: rgb(100.000000%,100.000000%,100.000000%);stroke: none;"></path>
  <path d="M116.510590 78.897415C116.510590 78.104721,116.195648 77.344574,115.635162 76.784103C115.074692 76.223618,114.314545 75.908676,113.521851 75.908676C112.729156 75.908676,111.969009 76.223618,111.408539 76.784103C110.848053 77.344574,110.533112 78.104721,110.533112 78.897415C110.533112 79.690109,110.848053 80.450256,111.408539 81.010727C111.969009 81.571213,112.729156 81.886154,113.521851 81.886154C114.314545 81.886154,115.074692 81.571213,115.635162 81.010727C116.195648 80.450256,116.510590 79.690109,116.510590 78.897415Z" style="fill: rgb(100.000000%,100.000000%,100.000000%);stroke: none;"></path>
  <path d="M105.668304 78.904053C105.668304 78.111359,105.353363 77.351212,104.792877 76.790741C104.232407 76.230255,103.472260 75.915314,102.679565 75.915314C101.886871 75.915314,101.126724 76.230255,100.566254 76.790741C100.005768 77.351212,99.690826 78.111359,99.690826 78.904053C99.690826 79.696747,100.005768 80.456894,100.566254 81.017365C101.126724 81.577850,101.886871 81.892792,102.679565 81.892792C103.472260 81.892792,104.232407 81.577850,104.792877 81.017365C105.353363 80.456894,105.668304 79.696747,105.668304 78.904053Z" style="fill: rgb(100.000000%,100.000000%,100.000000%);stroke: none;"></path>
  <path d="M135.247589 80.873825C135.247589 80.081131,134.932648 79.320984,134.372162 78.760513C133.811691 78.200027,133.051544 77.885086,132.258850 77.885086C131.466156 77.885086,130.706009 78.200027,130.145538 78.760513C129.585052 79.320984,129.270111 80.081131,129.270111 80.873825C129.270111 81.666519,129.585052 82.426666,130.145538 82.987137C130.706009 83.547623,131.466156 83.862564,132.258850 83.862564C133.051544 83.862564,133.811691 83.547623,134.372162 82.987137C134.932648 82.426666,135.247589 81.666519,135.247589 80.873825Z" style="fill: rgb(100.000000%,100.000000%,100.000000%);stroke: none;"></path>
  <path d="M122.265701 79.311066C122.265701 78.518372,121.950760 77.758224,121.390274 77.197754C120.829803 76.637268,120.069656 76.322327,119.276962 76.322327C118.484268 76.322327,117.724121 76.637268,117.163651 77.197754C116.603165 77.758224,116.288223 78.518372,116.288223 79.311066C116.288223 80.103760,116.603165 80.863907,117.163651 81.424377C117.724121 81.984863,118.484268 82.299805,119.276962 82.299805C120.069656 82.299805,120.829803 81.984863,121.390274 81.424377C121.950760 80.863907,122.265701 80.103760,122.265701 79.311066Z" style="fill: rgb(100.000000%,100.000000%,100.000000%);stroke: none;"></path>
  <path d="M162.873169 86.214294C162.873169 85.421600,162.558228 84.661453,161.997742 84.100983C161.437271 83.540497,160.677124 83.225555,159.884430 83.225555C159.091736 83.225555,158.331589 83.540497,157.771118 84.100983C157.210632 84.661453,156.895691 85.421600,156.895691 86.214294C156.895691 87.006989,157.210632 87.767136,157.771118 88.327606C158.331589 88.888092,159.091736 89.203033,159.884430 89.203033C160.677124 89.203033,161.437271 88.888092,161.997742 88.327606C162.558228 87.767136,162.873169 87.006989,162.873169 86.214294Z" style="fill: rgb(100.000000%,100.000000%,100.000000%);stroke: none;"></path>
  <path d="M142.443008 82.188675C142.443008 81.395981,142.128067 80.635834,141.567581 80.075363C141.007111 79.514877,140.246964 79.199936,139.454269 79.199936C138.661575 79.199936,137.901428 79.514877,137.340958 80.075363C136.780472 80.635834,136.465530 81.395981,136.465530 82.188675C136.465530 82.981369,136.780472 83.741516,137.340958 84.301987C137.901428 84.862473,138.661575 85.177414,139.454269 85.177414C140.246964 85.177414,141.007111 84.862473,141.567581 84.301987C142.128067 83.741516,142.443008 82.981369,142.443008 82.188675Z" style="fill: rgb(100.000000%,100.000000%,100.000000%);stroke: none;"></path>
  <path d="M195.616302 117.670349C195.616302 116.877655,195.301361 116.117508,194.740875 115.557037C194.180405 114.996552,193.420258 114.681610,192.627563 114.681610C191.834869 114.681610,191.074722 114.996552,190.514252 115.557037C189.953766 116.117508,189.638824 116.877655,189.638824 117.670349C189.638824 118.463043,189.953766 119.223190,190.514252 119.783661C191.074722 120.344147,191.834869 120.659088,192.627563 120.659088C193.420258 120.659088,194.180405 120.344147,194.740875 119.783661C195.301361 119.223190,195.616302 118.463043,195.616302 117.670349Z" style="fill: rgb(100.000000%,100.000000%,100.000000%);stroke: none;"></path>
  <path d="M176.788956 89.786972C176.788956 88.994278,176.474014 88.234131,175.913528 87.673660C175.353058 87.113174,174.592911 86.798233,173.800217 86.798233C173.007523 86.798233,172.247375 87.113174,171.686905 87.673660C171.126419 88.234131,170.811478 88.994278,170.811478 89.786972C170.811478 90.579666,171.126419 91.339813,171.686905 91.900284C172.247375 92.460770,173.007523 92.775711,173.800217 92.775711C174.592911 92.775711,175.353058 92.460770,175.913528 91.900284C176.474014 91.339813,176.788956 90.579666,176.788956 89.786972Z" style="fill: rgb(100.000000%,100.000000%,100.000000%);stroke: none;"></path>
  <path d="M156.221008 172.720261C156.221008 171.927567,155.906067 171.167419,155.345581 170.606949C154.785110 170.046463,154.024963 169.731522,153.232269 169.731522C152.439575 169.731522,151.679428 170.046463,151.118958 170.606949C150.558472 171.167419,150.243530 171.927567,150.243530 172.720261C150.243530 173.512955,150.558472 174.273102,151.118958 174.833572C151.679428 175.394058,152.439575 175.709000,153.232269 175.709000C154.024963 175.709000,154.785110 175.394058,155.345581 174.833572C155.906067 174.273102,156.221008 173.512955,156.221008 172.720261Z" style="fill: rgb(100.000000%,100.000000%,100.000000%);stroke: none;"></path>
  <path d="M187.118073 139.341522C187.118073 138.548828,186.803131 137.788681,186.242645 137.228210C185.682175 136.667725,184.922028 136.352783,184.129333 136.352783C183.336639 136.352783,182.576492 136.667725,182.016022 137.228210C181.455536 137.788681,181.140594 138.548828,181.140594 139.341522C181.140594 140.134216,181.455536 140.894363,182.016022 141.454834C182.576492 142.015320,183.336639 142.330261,184.129333 142.330261C184.922028 142.330261,185.682175 142.015320,186.242645 141.454834C186.803131 140.894363,187.118073 140.134216,187.118073 139.341522Z" style="fill: rgb(100.000000%,100.000000%,100.000000%);stroke: none;"></path>
  <path d="M99.283234 165.921860C99.283234 165.129166,98.968292 164.369019,98.407806 163.808548C97.847336 163.248062,97.087189 162.933121,96.294495 162.933121C95.501801 162.933121,94.741653 163.248062,94.181183 163.808548C93.620697 164.369019,93.305756 165.129166,93.305756 165.921860C93.305756 166.714554,93.620697 167.474701,94.181183 168.035172C94.741653 168.595657,95.501801 168.910599,96.294495 168.910599C97.087189 168.910599,97.847336 168.595657,98.407806 168.035172C98.968292 167.474701,99.283234 166.714554,99.283234 165.921860Z" style="fill: rgb(100.000000%,100.000000%,100.000000%);stroke: none;"></path>
  <path d="M132.218491 183.715775C132.218491 182.923080,131.903549 182.162933,131.343063 181.602463C130.782593 181.041977,130.022446 180.727036,129.229752 180.727036C128.437057 180.727036,127.676910 181.041977,127.116440 181.602463C126.555954 182.162933,126.241013 182.923080,126.241013 183.715775C126.241013 184.508469,126.555954 185.268616,127.116440 185.829086C127.676910 186.389572,128.437057 186.704514,129.229752 186.704514C130.022446 186.704514,130.782593 186.389572,131.343063 185.829086C131.903549 185.268616,132.218491 184.508469,132.218491 183.715775Z" style="fill: rgb(100.000000%,100.000000%,100.000000%);stroke: none;"></path>
  <path d="M64.373901 141.163696C64.373901 140.371002,64.058960 139.610855,63.498474 139.050385C62.938004 138.489899,62.177856 138.174957,61.385162 138.174957C60.592468 138.174957,59.832321 138.489899,59.271851 139.050385C58.711365 139.610855,58.396423 140.371002,58.396423 141.163696C58.396423 141.956390,58.711365 142.716537,59.271851 143.277008C59.832321 143.837494,60.592468 144.152435,61.385162 144.152435C62.177856 144.152435,62.938004 143.837494,63.498474 143.277008C64.058960 142.716537,64.373901 141.956390,64.373901 141.163696Z" style="fill: rgb(100.000000%,100.000000%,100.000000%);stroke: none;"></path>
  <path d="M92.315720 151.161926C92.315720 150.369232,92.000778 149.609085,91.440292 149.048615C90.879822 148.488129,90.119675 148.173187,89.326981 148.173187C88.534286 148.173187,87.774139 148.488129,87.213669 149.048615C86.653183 149.609085,86.338242 150.369232,86.338242 151.161926C86.338242 151.954620,86.653183 152.714767,87.213669 153.275238C87.774139 153.835724,88.534286 154.150665,89.326981 154.150665C90.119675 154.150665,90.879822 153.835724,91.440292 153.275238C92.000778 152.714767,92.315720 151.954620,92.315720 151.161926Z" style="fill: rgb(100.000000%,100.000000%,100.000000%);stroke: none;"></path>
  <path d="M13.834991 139.601212C13.834991 138.808517,13.520050 138.048370,12.959564 137.487900C12.399094 136.927414,11.638947 136.612473,10.846252 136.612473C10.053558 136.612473,9.293411 136.927414,8.732941 137.487900C8.172455 138.048370,7.857513 138.808517,7.857513 139.601212C7.857513 140.393906,8.172455 141.154053,8.732941 141.714523C9.293411 142.275009,10.053558 142.589951,10.846252 142.589951C11.638947 142.589951,12.399094 142.275009,12.959564 141.714523C13.520050 141.154053,13.834991 140.393906,13.834991 139.601212Z" style="fill: rgb(100.000000%,100.000000%,100.000000%);stroke: none;"></path>
  <path d="M48.678391 149.171936C48.678391 148.379242,48.363449 147.619095,47.802963 147.058624C47.242493 146.498138,46.482346 146.183197,45.689651 146.183197C44.896957 146.183197,44.136810 146.498138,43.576340 147.058624C43.015854 147.619095,42.700912 148.379242,42.700912 149.171936C42.700912 149.964630,43.015854 150.724777,43.576340 151.285248C44.136810 151.845734,44.896957 152.160675,45.689651 152.160675C46.482346 152.160675,47.242493 151.845734,47.802963 151.285248C48.363449 150.724777,48.678391 149.964630,48.678391 149.171936Z" style="fill: rgb(100.000000%,100.000000%,100.000000%);stroke: none;"></path>
  <path d="M6.497192 74.486572C6.497192 73.693878,6.182251 72.933731,5.621765 72.373260C5.061295 71.812775,4.301147 71.497833,3.508453 71.497833C2.715759 71.497833,1.955612 71.812775,1.395142 72.373260C0.834656 72.933731,0.519714 73.693878,0.519714 74.486572C0.519714 75.279266,0.834656 76.039413,1.395142 76.599884C1.955612 77.160370,2.715759 77.475311,3.508453 77.475311C4.301147 77.475311,5.061295 77.160370,5.621765 76.599884C6.182251 76.039413,6.497192 75.279266,6.497192 74.486572Z" style="fill: rgb(100.000000%,100.000000%,100.000000%);stroke: none;"></path>
  <path d="M5.173065 117.149139C5.173065 116.356445,4.858124 115.596298,4.297638 115.035828C3.737167 114.475342,2.977020 114.160400,2.184326 114.160400C1.391632 114.160400,0.631485 114.475342,0.071014 115.035828C-0.489471 115.596298,-0.804413 116.356445,-0.804413 117.149139C-0.804413 117.941833,-0.489471 118.701981,0.071014 119.262451C0.631485 119.822937,1.391632 120.137878,2.184326 120.137878C2.977020 120.137878,3.737167 119.822937,4.297638 119.262451C4.858124 118.701981,5.173065 117.941833,5.173065 117.149139Z" style="fill: rgb(100.000000%,100.000000%,100.000000%);stroke: none;"></path>
  <path d="M45.555847 43.330261C45.555847 42.537567,45.240906 41.777420,44.680420 41.216949C44.119949 40.656464,43.359802 40.341522,42.567108 40.341522C41.774414 40.341522,41.014267 40.656464,40.453796 41.216949C39.893311 41.777420,39.578369 42.537567,39.578369 43.330261C39.578369 44.122955,39.893311 44.883102,40.453796 45.443573C41.014267 46.004059,41.774414 46.319000,42.567108 46.319000C43.359802 46.319000,44.119949 46.004059,44.680420 45.443573C45.240906 44.883102,45.555847 44.122955,45.555847 43.330261Z" style="fill: rgb(100.000000%,100.000000%,100.000000%);stroke: none;"></path>
  <path d="M14.995575 53.774597C14.995575 52.981903,14.680634 52.221756,14.120148 51.661285C13.559677 51.100800,12.799530 50.785858,12.006836 50.785858C11.214142 50.785858,10.453995 51.100800,9.893524 51.661285C9.333038 52.221756,9.018097 52.981903,9.018097 53.774597C9.018097 54.567291,9.333038 55.327438,9.893524 55.887909C10.453995 56.448395,11.214142 56.763336,12.006836 56.763336C12.799530 56.763336,13.559677 56.448395,14.120148 55.887909C14.680634 55.327438,14.995575 54.567291,14.995575 53.774597Z" style="fill: rgb(100.000000%,100.000000%,100.000000%);stroke: none;"></path>
  <path d="M74.324127 54.392471C74.324127 53.599777,74.009186 52.839630,73.448700 52.279160C72.888229 51.718674,72.128082 51.403732,71.335388 51.403732C70.542694 51.403732,69.782547 51.718674,69.222076 52.279160C68.661591 52.839630,68.346649 53.599777,68.346649 54.392471C68.346649 55.185165,68.661591 55.945312,69.222076 56.505783C69.782547 57.066269,70.542694 57.381210,71.335388 57.381210C72.128082 57.381210,72.888229 57.066269,73.448700 56.505783C74.009186 55.945312,74.324127 55.185165,74.324127 54.392471Z" style="fill: rgb(100.000000%,100.000000%,100.000000%);stroke: none;"></path>
  <path d="M58.023483 46.415237C58.023483 45.622543,57.708542 44.862396,57.148056 44.301926C56.587585 43.741440,55.827438 43.426498,55.034744 43.426498C54.242050 43.426498,53.481903 43.741440,52.921432 44.301926C52.360947 44.862396,52.046005 45.622543,52.046005 46.415237C52.046005 47.207932,52.360947 47.968079,52.921432 48.528549C53.481903 49.089035,54.242050 49.403976,55.034744 49.403976C55.827438 49.403976,56.587585 49.089035,57.148056 48.528549C57.708542 47.968079,58.023483 47.207932,58.023483 46.415237Z" style="fill: rgb(100.000000%,100.000000%,100.000000%);stroke: none;"></path>
  <path d="M88.039398 62.674698C88.039398 61.882004,87.724457 61.121857,87.163971 60.561386C86.603500 60.000900,85.843353 59.685959,85.050659 59.685959C84.257965 59.685959,83.497818 60.000900,82.937347 60.561386C82.376862 61.121857,82.061920 61.882004,82.061920 62.674698C82.061920 63.467392,82.376862 64.227539,82.937347 64.788010C83.497818 65.348495,84.257965 65.663437,85.050659 65.663437C85.843353 65.663437,86.603500 65.348495,87.163971 64.788010C87.724457 64.227539,88.039398 63.467392,88.039398 62.674698Z" style="fill: rgb(100.000000%,100.000000%,100.000000%);stroke: none;"></path>
  <path d="M79.309586 57.465790C79.309586 56.673096,78.994644 55.912949,78.434158 55.352478C77.873688 54.791992,77.113541 54.477051,76.320847 54.477051C75.528152 54.477051,74.768005 54.791992,74.207535 55.352478C73.647049 55.912949,73.332108 56.673096,73.332108 57.465790C73.332108 58.258484,73.647049 59.018631,74.207535 59.579102C74.768005 60.139587,75.528152 60.454529,76.320847 60.454529C77.113541 60.454529,77.873688 60.139587,78.434158 59.579102C78.994644 59.018631,79.309586 58.258484,79.309586 57.465790Z" style="fill: rgb(100.000000%,100.000000%,100.000000%);stroke: none;"></path>
  <path d="M95.457779 72.238388C95.457779 71.445694,95.142838 70.685547,94.582352 70.125076C94.021881 69.564590,93.261734 69.249649,92.469040 69.249649C91.676346 69.249649,90.916199 69.564590,90.355728 70.125076C89.795242 70.685547,89.480301 71.445694,89.480301 72.238388C89.480301 73.031082,89.795242 73.791229,90.355728 74.351700C90.916199 74.912186,91.676346 75.227127,92.469040 75.227127C93.261734 75.227127,94.021881 74.912186,94.582352 74.351700C95.142838 73.791229,95.457779 73.031082,95.457779 72.238388Z" style="fill: rgb(100.000000%,100.000000%,100.000000%);stroke: none;"></path>
  <path d="M91.892044 64.993576C91.892044 64.200882,91.577103 63.440735,91.016617 62.880264C90.456146 62.319778,89.695999 62.004837,88.903305 62.004837C88.110611 62.004837,87.350464 62.319778,86.789993 62.880264C86.229507 63.440735,85.914566 64.200882,85.914566 64.993576C85.914566 65.786270,86.229507 66.546417,86.789993 67.106888C87.350464 67.667374,88.110611 67.982315,88.903305 67.982315C89.695999 67.982315,90.456146 67.667374,91.016617 67.106888C91.577103 66.546417,91.892044 65.786270,91.892044 64.993576Z" style="fill: rgb(100.000000%,100.000000%,100.000000%);stroke: none;"></path>
  <path d="M95.821091 83.406784C95.821091 82.614090,95.506149 81.853943,94.945663 81.293472C94.385193 80.732986,93.625046 80.418045,92.832352 80.418045C92.039658 80.418045,91.279510 80.732986,90.719040 81.293472C90.158554 81.853943,89.843613 82.614090,89.843613 83.406784C89.843613 84.199478,90.158554 84.959625,90.719040 85.520096C91.279510 86.080582,92.039658 86.395523,92.832352 86.395523C93.625046 86.395523,94.385193 86.080582,94.945663 85.520096C95.506149 84.959625,95.821091 84.199478,95.821091 83.406784Z" style="fill: rgb(100.000000%,100.000000%,100.000000%);stroke: none;"></path>
  <path d="M95.277176 76.102631C95.277176 75.309937,94.962234 74.549789,94.401749 73.989319C93.841278 73.428833,93.081131 73.113892,92.288437 73.113892C91.495743 73.113892,90.735596 73.428833,90.175125 73.989319C89.614639 74.549789,89.299698 75.309937,89.299698 76.102631C89.299698 76.895325,89.614639 77.655472,90.175125 78.215942C90.735596 78.776428,91.495743 79.091370,92.288437 79.091370C93.081131 79.091370,93.841278 78.776428,94.401749 78.215942C94.962234 77.655472,95.277176 76.895325,95.277176 76.102631Z" style="fill: rgb(100.000000%,100.000000%,100.000000%);stroke: none;"></path>
  <path d="M95.023987 93.943222C95.023987 93.150528,94.709045 92.390381,94.148560 91.829910C93.588089 91.269424,92.827942 90.954483,92.035248 90.954483C91.242554 90.954483,90.482407 91.269424,89.921936 91.829910C89.361450 92.390381,89.046509 93.150528,89.046509 93.943222C89.046509 94.735916,89.361450 95.496063,89.921936 96.056534C90.482407 96.617020,91.242554 96.931961,92.035248 96.931961C92.827942 96.931961,93.588089 96.617020,94.148560 96.056534C94.709045 95.496063,95.023987 94.735916,95.023987 93.943222Z" style="fill: rgb(100.000000%,100.000000%,100.000000%);stroke: none;"></path>
  <path d="M96.533661 87.013504C96.533661 86.220810,96.218719 85.460663,95.658234 84.900192C95.097763 84.339706,94.337616 84.024765,93.544922 84.024765C92.752228 84.024765,91.992081 84.339706,91.431610 84.900192C90.871124 85.460663,90.556183 86.220810,90.556183 87.013504C90.556183 87.806198,90.871124 88.566345,91.431610 89.126816C91.992081 89.687302,92.752228 90.002243,93.544922 90.002243C94.337616 90.002243,95.097763 89.687302,95.658234 89.126816C96.218719 88.566345,96.533661 87.806198,96.533661 87.013504Z" style="fill: rgb(100.000000%,100.000000%,100.000000%);stroke: none;"></path>
  <path d="M90.132782 103.057098C90.132782 102.264404,89.817841 101.504257,89.257355 100.943787C88.696884 100.383301,87.936737 100.068359,87.144043 100.068359C86.351349 100.068359,85.591202 100.383301,85.030731 100.943787C84.470245 101.504257,84.155304 102.264404,84.155304 103.057098C84.155304 103.849792,84.470245 104.609940,85.030731 105.170410C85.591202 105.730896,86.351349 106.045837,87.144043 106.045837C87.936737 106.045837,88.696884 105.730896,89.257355 105.170410C89.817841 104.609940,90.132782 103.849792,90.132782 103.057098Z" style="fill: rgb(100.000000%,100.000000%,100.000000%);stroke: none;"></path>
  <path d="M92.968613 96.866104C92.968613 96.073410,92.653671 95.313263,92.093185 94.752792C91.532715 94.192307,90.772568 93.877365,89.979874 93.877365C89.187180 93.877365,88.427032 94.192307,87.866562 94.752792C87.306076 95.313263,86.991135 96.073410,86.991135 96.866104C86.991135 97.658798,87.306076 98.418945,87.866562 98.979416C88.427032 99.539902,89.187180 99.854843,89.979874 99.854843C90.772568 99.854843,91.532715 99.539902,92.093185 98.979416C92.653671 98.418945,92.968613 97.658798,92.968613 96.866104Z" style="fill: rgb(100.000000%,100.000000%,100.000000%);stroke: none;"></path>
  <path d="M82.051971 107.599808C82.051971 106.807114,81.737030 106.046967,81.176544 105.486496C80.616074 104.926010,79.855927 104.611069,79.063232 104.611069C78.270538 104.611069,77.510391 104.926010,76.949921 105.486496C76.389435 106.046967,76.074493 106.807114,76.074493 107.599808C76.074493 108.392502,76.389435 109.152649,76.949921 109.713120C77.510391 110.273605,78.270538 110.588547,79.063232 110.588547C79.855927 110.588547,80.616074 110.273605,81.176544 109.713120C81.737030 109.152649,82.051971 108.392502,82.051971 107.599808Z" style="fill: rgb(100.000000%,100.000000%,100.000000%);stroke: none;"></path>
  <path d="M88.800751 106.549072C88.800751 105.756378,88.485809 104.996231,87.925323 104.435760C87.364853 103.875275,86.604706 103.560333,85.812012 103.560333C85.019318 103.560333,84.259171 103.875275,83.698700 104.435760C83.138214 104.996231,82.823273 105.756378,82.823273 106.549072C82.823273 107.341766,83.138214 108.101913,83.698700 108.662384C84.259171 109.222870,85.019318 109.537811,85.812012 109.537811C86.604706 109.537811,87.364853 109.222870,87.925323 108.662384C88.485809 108.101913,88.800751 107.341766,88.800751 106.549072Z" style="fill: rgb(100.000000%,100.000000%,100.000000%);stroke: none;"></path>
  <path d="M74.942627 97.891907C74.942627 97.099213,74.627686 96.339066,74.067200 95.778595C73.506729 95.218109,72.746582 94.903168,71.953888 94.903168C71.161194 94.903168,70.401047 95.218109,69.840576 95.778595C69.280090 96.339066,68.965149 97.099213,68.965149 97.891907C68.965149 98.684601,69.280090 99.444748,69.840576 100.005219C70.401047 100.565704,71.161194 100.880646,71.953888 100.880646C72.746582 100.880646,73.506729 100.565704,74.067200 100.005219C74.627686 99.444748,74.942627 98.684601,74.942627 97.891907Z" style="fill: rgb(100.000000%,100.000000%,100.000000%);stroke: none;"></path>
  <path d="M79.687912 104.200821C79.687912 103.408127,79.372971 102.647980,78.812485 102.087509C78.252014 101.527023,77.491867 101.212082,76.699173 101.212082C75.906479 101.212082,75.146332 101.527023,74.585861 102.087509C74.025375 102.647980,73.710434 103.408127,73.710434 104.200821C73.710434 104.993515,74.025375 105.753662,74.585861 106.314133C75.146332 106.874619,75.906479 107.189560,76.699173 107.189560C77.491867 107.189560,78.252014 106.874619,78.812485 106.314133C79.372971 105.753662,79.687912 104.993515,79.687912 104.200821Z" style="fill: rgb(100.000000%,100.000000%,100.000000%);stroke: none;"></path>
  <path d="M69.818924 86.570938C69.818924 85.778244,69.503983 85.018097,68.943497 84.457626C68.383026 83.897141,67.622879 83.582199,66.830185 83.582199C66.037491 83.582199,65.277344 83.897141,64.716873 84.457626C64.156387 85.018097,63.841446 85.778244,63.841446 86.570938C63.841446 87.363632,64.156387 88.123779,64.716873 88.684250C65.277344 89.244736,66.037491 89.559677,66.830185 89.559677C67.622879 89.559677,68.383026 89.244736,68.943497 88.684250C69.503983 88.123779,69.818924 87.363632,69.818924 86.570938Z" style="fill: rgb(100.000000%,100.000000%,100.000000%);stroke: none;"></path>
  <path d="M71.627594 94.892258C71.627594 94.099564,71.312653 93.339417,70.752167 92.778946C70.191696 92.218460,69.431549 91.903519,68.638855 91.903519C67.846161 91.903519,67.086014 92.218460,66.525543 92.778946C65.965057 93.339417,65.650116 94.099564,65.650116 94.892258C65.650116 95.684952,65.965057 96.445099,66.525543 97.005569C67.086014 97.566055,67.846161 97.880997,68.638855 97.880997C69.431549 97.880997,70.191696 97.566055,70.752167 97.005569C71.312653 96.445099,71.627594 95.684952,71.627594 94.892258Z" style="fill: rgb(100.000000%,100.000000%,100.000000%);stroke: none;"></path>
  <path d="M74.281967 75.278152C74.281967 74.485458,73.967026 73.725311,73.406540 73.164841C72.846069 72.604355,72.085922 72.289413,71.293228 72.289413C70.500534 72.289413,69.740387 72.604355,69.179916 73.164841C68.619431 73.725311,68.304489 74.485458,68.304489 75.278152C68.304489 76.070847,68.619431 76.830994,69.179916 77.391464C69.740387 77.951950,70.500534 78.266891,71.293228 78.266891C72.085922 78.266891,72.846069 77.951950,73.406540 77.391464C73.967026 76.830994,74.281967 76.070847,74.281967 75.278152Z" style="fill: rgb(100.000000%,100.000000%,100.000000%);stroke: none;"></path>
  <path d="M71.567062 82.472214C71.567062 81.679520,71.252121 80.919373,70.691635 80.358902C70.131165 79.798416,69.371017 79.483475,68.578323 79.483475C67.785629 79.483475,67.025482 79.798416,66.465012 80.358902C65.904526 80.919373,65.589584 81.679520,65.589584 82.472214C65.589584 83.264908,65.904526 84.025055,66.465012 84.585526C67.025482 85.146011,67.785629 85.460953,68.578323 85.460953C69.371017 85.460953,70.131165 85.146011,70.691635 84.585526C71.252121 84.025055,71.567062 83.264908,71.567062 82.472214Z" style="fill: rgb(100.000000%,100.000000%,100.000000%);stroke: none;"></path>
  <path d="M78.992172 65.772263C78.992172 64.979568,78.677231 64.219421,78.116745 63.658951C77.556274 63.098465,76.796127 62.783524,76.003433 62.783524C75.210739 62.783524,74.450592 63.098465,73.890121 63.658951C73.329636 64.219421,73.014694 64.979568,73.014694 65.772263C73.014694 66.564957,73.329636 67.325104,73.890121 67.885574C74.450592 68.446060,75.210739 68.761002,76.003433 68.761002C76.796127 68.761002,77.556274 68.446060,78.116745 67.885574C78.677231 67.325104,78.992172 66.564957,78.992172 65.772263Z" style="fill: rgb(100.000000%,100.000000%,100.000000%);stroke: none;"></path>
  <path d="M75.345413 71.980164C75.345413 71.187469,75.030472 70.427322,74.469986 69.866852C73.909515 69.306366,73.149368 68.991425,72.356674 68.991425C71.563980 68.991425,70.803833 69.306366,70.243362 69.866852C69.682877 70.427322,69.367935 71.187469,69.367935 71.980164C69.367935 72.772858,69.682877 73.533005,70.243362 74.093475C70.803833 74.653961,71.563980 74.968903,72.356674 74.968903C73.149368 74.968903,73.909515 74.653961,74.469986 74.093475C75.030472 73.533005,75.345413 72.772858,75.345413 71.980164Z" style="fill: rgb(100.000000%,100.000000%,100.000000%);stroke: none;"></path>
  <path d="M89.027786 55.970657C89.027786 55.177963,88.712845 54.417816,88.152359 53.857346C87.591888 53.296860,86.831741 52.981918,86.039047 52.981918C85.246353 52.981918,84.486206 53.296860,83.925735 53.857346C83.365250 54.417816,83.050308 55.177963,83.050308 55.970657C83.050308 56.763351,83.365250 57.523499,83.925735 58.083969C84.486206 58.644455,85.246353 58.959396,86.039047 58.959396C86.831741 58.959396,87.591888 58.644455,88.152359 58.083969C88.712845 57.523499,89.027786 56.763351,89.027786 55.970657Z" style="fill: rgb(100.000000%,100.000000%,100.000000%);stroke: none;"></path>
  <path d="M81.621735 63.056213C81.621735 62.263519,81.306793 61.503372,80.746307 60.942902C80.185837 60.382416,79.425690 60.067474,78.632996 60.067474C77.840302 60.067474,77.080154 60.382416,76.519684 60.942902C75.959198 61.503372,75.644257 62.263519,75.644257 63.056213C75.644257 63.848907,75.959198 64.609055,76.519684 65.169525C77.080154 65.730011,77.840302 66.044952,78.632996 66.044952C79.425690 66.044952,80.185837 65.730011,80.746307 65.169525C81.306793 64.609055,81.621735 63.848907,81.621735 63.056213Z" style="fill: rgb(100.000000%,100.000000%,100.000000%);stroke: none;"></path>
  <path d="M107.791595 38.417999C107.791595 37.625305,107.476654 36.865158,106.916168 36.304688C106.355698 35.744202,105.595551 35.429260,104.802856 35.429260C104.010162 35.429260,103.250015 35.744202,102.689545 36.304688C102.129059 36.865158,101.814117 37.625305,101.814117 38.417999C101.814117 39.210693,102.129059 39.970840,102.689545 40.531311C103.250015 41.091797,104.010162 41.406738,104.802856 41.406738C105.595551 41.406738,106.355698 41.091797,106.916168 40.531311C107.476654 39.970840,107.791595 39.210693,107.791595 38.417999Z" style="fill: rgb(100.000000%,100.000000%,100.000000%);stroke: none;"></path>
  <path d="M94.010513 51.787567C94.010513 50.994873,93.695572 50.234726,93.135086 49.674255C92.574615 49.113770,91.814468 48.798828,91.021774 48.798828C90.229080 48.798828,89.468933 49.113770,88.908463 49.674255C88.347977 50.234726,88.033035 50.994873,88.033035 51.787567C88.033035 52.580261,88.347977 53.340408,88.908463 53.900879C89.468933 54.461365,90.229080 54.776306,91.021774 54.776306C91.814468 54.776306,92.574615 54.461365,93.135086 53.900879C93.695572 53.340408,94.010513 52.580261,94.010513 51.787567Z" style="fill: rgb(100.000000%,100.000000%,100.000000%);stroke: none;"></path>
  <path d="M149.018600 15.805359C149.018600 15.012665,148.703659 14.252518,148.143173 13.692047C147.582703 13.131561,146.822556 12.816620,146.029861 12.816620C145.237167 12.816620,144.477020 13.131561,143.916550 13.692047C143.356064 14.252518,143.041122 15.012665,143.041122 15.805359C143.041122 16.598053,143.356064 17.358200,143.916550 17.918671C144.477020 18.479156,145.237167 18.794098,146.029861 18.794098C146.822556 18.794098,147.582703 18.479156,148.143173 17.918671C148.703659 17.358200,149.018600 16.598053,149.018600 15.805359Z" style="fill: rgb(100.000000%,100.000000%,100.000000%);stroke: none;"></path>
  <path d="M116.033875 28.076813C116.033875 27.284119,115.718933 26.523972,115.158447 25.963501C114.597977 25.403015,113.837830 25.088074,113.045135 25.088074C112.252441 25.088074,111.492294 25.403015,110.931824 25.963501C110.371338 26.523972,110.056396 27.284119,110.056396 28.076813C110.056396 28.869507,110.371338 29.629654,110.931824 30.190125C111.492294 30.750610,112.252441 31.065552,113.045135 31.065552C113.837830 31.065552,114.597977 30.750610,115.158447 30.190125C115.718933 29.629654,116.033875 28.869507,116.033875 28.076813Z" style="fill: rgb(100.000000%,100.000000%,100.000000%);stroke: none;"></path>
  <path d="M195.947800 64.071442C195.947800 63.278748,195.632858 62.518600,195.072372 61.958130C194.511902 61.397644,193.751755 61.082703,192.959061 61.082703C192.166367 61.082703,191.406219 61.397644,190.845749 61.958130C190.285263 62.518600,189.970322 63.278748,189.970322 64.071442C189.970322 64.864136,190.285263 65.624283,190.845749 66.184753C191.406219 66.745239,192.166367 67.060181,192.959061 67.060181C193.751755 67.060181,194.511902 66.745239,195.072372 66.184753C195.632858 65.624283,195.947800 64.864136,195.947800 64.071442Z" style="fill: rgb(100.000000%,100.000000%,100.000000%);stroke: none;"></path>
  <path d="M171.544525 27.444351C171.544525 26.651657,171.229584 25.891510,170.669098 25.331039C170.108627 24.770554,169.348480 24.455612,168.555786 24.455612C167.763092 24.455612,167.002945 24.770554,166.442474 25.331039C165.881989 25.891510,165.567047 26.651657,165.567047 27.444351C165.567047 28.237045,165.881989 28.997192,166.442474 29.557663C167.002945 30.118149,167.763092 30.433090,168.555786 30.433090C169.348480 30.433090,170.108627 30.118149,170.669098 29.557663C171.229584 28.997192,171.544525 28.237045,171.544525 27.444351Z" style="fill: rgb(100.000000%,100.000000%,100.000000%);stroke: none;"></path>
  <path d="M174.493332 110.825851C174.493332 110.033157,174.178391 109.273010,173.617905 108.712540C173.057434 108.152054,172.297287 107.837112,171.504593 107.837112C170.711899 107.837112,169.951752 108.152054,169.391281 108.712540C168.830795 109.273010,168.515854 110.033157,168.515854 110.825851C168.515854 111.618546,168.830795 112.378693,169.391281 112.939163C169.951752 113.499649,170.711899 113.814590,171.504593 113.814590C172.297287 113.814590,173.057434 113.499649,173.617905 112.939163C174.178391 112.378693,174.493332 111.618546,174.493332 110.825851Z" style="fill: rgb(100.000000%,100.000000%,100.000000%);stroke: none;"></path>
  <path d="M198.422424 86.790527C198.422424 85.997833,198.107483 85.237686,197.546997 84.677216C196.986526 84.116730,196.226379 83.801788,195.433685 83.801788C194.640991 83.801788,193.880844 84.116730,193.320374 84.677216C192.759888 85.237686,192.444946 85.997833,192.444946 86.790527C192.444946 87.583221,192.759888 88.343369,193.320374 88.903839C193.880844 89.464325,194.640991 89.779266,195.433685 89.779266C196.226379 89.779266,196.986526 89.464325,197.546997 88.903839C198.107483 88.343369,198.422424 87.583221,198.422424 86.790527Z" style="fill: rgb(100.000000%,100.000000%,100.000000%);stroke: none;"></path>
  <path d="M138.110565 111.933990C138.110565 111.141296,137.795624 110.381149,137.235138 109.820679C136.674667 109.260193,135.914520 108.945251,135.121826 108.945251C134.329132 108.945251,133.568985 109.260193,133.008514 109.820679C132.448029 110.381149,132.133087 111.141296,132.133087 111.933990C132.133087 112.726685,132.448029 113.486832,133.008514 114.047302C133.568985 114.607788,134.329132 114.922729,135.121826 114.922729C135.914520 114.922729,136.674667 114.607788,137.235138 114.047302C137.795624 113.486832,138.110565 112.726685,138.110565 111.933990Z" style="fill: rgb(100.000000%,100.000000%,100.000000%);stroke: none;"></path>
  <path d="M159.754623 112.227844C159.754623 111.435150,159.439682 110.675003,158.879196 110.114532C158.318726 109.554047,157.558578 109.239105,156.765884 109.239105C155.973190 109.239105,155.213043 109.554047,154.652573 110.114532C154.092087 110.675003,153.777145 111.435150,153.777145 112.227844C153.777145 113.020538,154.092087 113.780685,154.652573 114.341156C155.213043 114.901642,155.973190 115.216583,156.765884 115.216583C157.558578 115.216583,158.318726 114.901642,158.879196 114.341156C159.439682 113.780685,159.754623 113.020538,159.754623 112.227844Z" style="fill: rgb(100.000000%,100.000000%,100.000000%);stroke: none;"></path>
  <path d="M116.747849 109.915863C116.747849 109.123169,116.432907 108.363022,115.872421 107.802551C115.311951 107.242065,114.551804 106.927124,113.759109 106.927124C112.966415 106.927124,112.206268 107.242065,111.645798 107.802551C111.085312 108.363022,110.770370 109.123169,110.770370 109.915863C110.770370 110.708557,111.085312 111.468704,111.645798 112.029175C112.206268 112.589661,112.966415 112.904602,113.759109 112.904602C114.551804 112.904602,115.311951 112.589661,115.872421 112.029175C116.432907 111.468704,116.747849 110.708557,116.747849 109.915863Z" style="fill: rgb(100.000000%,100.000000%,100.000000%);stroke: none;"></path>
  <path d="M130.465500 111.482040C130.465500 110.689346,130.150558 109.929199,129.590073 109.368729C129.029602 108.808243,128.269455 108.493301,127.476761 108.493301C126.684067 108.493301,125.923920 108.808243,125.363449 109.368729C124.802963 109.929199,124.488022 110.689346,124.488022 111.482040C124.488022 112.274734,124.802963 113.034882,125.363449 113.595352C125.923920 114.155838,126.684067 114.470779,127.476761 114.470779C128.269455 114.470779,129.029602 114.155838,129.590073 113.595352C130.150558 113.034882,130.465500 112.274734,130.465500 111.482040Z" style="fill: rgb(100.000000%,100.000000%,100.000000%);stroke: none;"></path>
  <path d="M100.082108 105.283264C100.082108 104.490570,99.767166 103.730423,99.206680 103.169952C98.646210 102.609467,97.886063 102.294525,97.093369 102.294525C96.300674 102.294525,95.540527 102.609467,94.980057 103.169952C94.419571 103.730423,94.104630 104.490570,94.104630 105.283264C94.104630 106.075958,94.419571 106.836105,94.980057 107.396576C95.540527 107.957062,96.300674 108.272003,97.093369 108.272003C97.886063 108.272003,98.646210 107.957062,99.206680 107.396576C99.767166 106.836105,100.082108 106.075958,100.082108 105.283264Z" style="fill: rgb(100.000000%,100.000000%,100.000000%);stroke: none;"></path>
  <path d="M110.644775 108.944183C110.644775 108.151489,110.329834 107.391342,109.769348 106.830872C109.208878 106.270386,108.448730 105.955444,107.656036 105.955444C106.863342 105.955444,106.103195 106.270386,105.542725 106.830872C104.982239 107.391342,104.667297 108.151489,104.667297 108.944183C104.667297 109.736877,104.982239 110.497025,105.542725 111.057495C106.103195 111.617981,106.863342 111.932922,107.656036 111.932922C108.448730 111.932922,109.208878 111.617981,109.769348 111.057495C110.329834 110.497025,110.644775 109.736877,110.644775 108.944183Z" style="fill: rgb(100.000000%,100.000000%,100.000000%);stroke: none;"></path>
  <path d="M89.306915 98.445602C89.306915 97.652908,88.991974 96.892761,88.431488 96.332291C87.871017 95.771805,87.110870 95.456863,86.318176 95.456863C85.525482 95.456863,84.765335 95.771805,84.204865 96.332291C83.644379 96.892761,83.329437 97.652908,83.329437 98.445602C83.329437 99.238297,83.644379 99.998444,84.204865 100.558914C84.765335 101.119400,85.525482 101.434341,86.318176 101.434341C87.110870 101.434341,87.871017 101.119400,88.431488 100.558914C88.991974 99.998444,89.306915 99.238297,89.306915 98.445602Z" style="fill: rgb(100.000000%,100.000000%,100.000000%);stroke: none;"></path>
  <path d="M95.596756 102.964767C95.596756 102.172073,95.281815 101.411926,94.721329 100.851456C94.160858 100.290970,93.400711 99.976028,92.608017 99.976028C91.815323 99.976028,91.055176 100.290970,90.494705 100.851456C89.934219 101.411926,89.619278 102.172073,89.619278 102.964767C89.619278 103.757462,89.934219 104.517609,90.494705 105.078079C91.055176 105.638565,91.815323 105.953506,92.608017 105.953506C93.400711 105.953506,94.160858 105.638565,94.721329 105.078079C95.281815 104.517609,95.596756 103.757462,95.596756 102.964767Z" style="fill: rgb(100.000000%,100.000000%,100.000000%);stroke: none;"></path>
  <path d="M81.493179 97.020157C81.493179 96.227463,81.178238 95.467316,80.617752 94.906845C80.057281 94.346359,79.297134 94.031418,78.504440 94.031418C77.711746 94.031418,76.951599 94.346359,76.391129 94.906845C75.830643 95.467316,75.515701 96.227463,75.515701 97.020157C75.515701 97.812851,75.830643 98.572998,76.391129 99.133469C76.951599 99.693954,77.711746 100.008896,78.504440 100.008896C79.297134 100.008896,80.057281 99.693954,80.617752 99.133469C81.178238 98.572998,81.493179 97.812851,81.493179 97.020157Z" style="fill: rgb(100.000000%,100.000000%,100.000000%);stroke: none;"></path>
  <path d="M87.025574 96.643539C87.025574 95.850845,86.710632 95.090698,86.150146 94.530228C85.589676 93.969742,84.829529 93.654800,84.036835 93.654800C83.244141 93.654800,82.483994 93.969742,81.923523 94.530228C81.363037 95.090698,81.048096 95.850845,81.048096 96.643539C81.048096 97.436234,81.363037 98.196381,81.923523 98.756851C82.483994 99.317337,83.244141 99.632278,84.036835 99.632278C84.829529 99.632278,85.589676 99.317337,86.150146 98.756851C86.710632 98.196381,87.025574 97.436234,87.025574 96.643539Z" style="fill: rgb(100.000000%,100.000000%,100.000000%);stroke: none;"></path>
  <path d="M72.459244 106.501801C72.459244 105.709106,72.144302 104.948959,71.583817 104.388489C71.023346 103.828003,70.263199 103.513062,69.470505 103.513062C68.677811 103.513062,67.917664 103.828003,67.357193 104.388489C66.796707 104.948959,66.481766 105.709106,66.481766 106.501801C66.481766 107.294495,66.796707 108.054642,67.357193 108.615112C67.917664 109.175598,68.677811 109.490540,69.470505 109.490540C70.263199 109.490540,71.023346 109.175598,71.583817 108.615112C72.144302 108.054642,72.459244 107.294495,72.459244 106.501801Z" style="fill: rgb(100.000000%,100.000000%,100.000000%);stroke: none;"></path>
  <path d="M79.443512 99.239990C79.443512 98.447296,79.128571 97.687149,78.568085 97.126678C78.007614 96.566193,77.247467 96.251251,76.454773 96.251251C75.662079 96.251251,74.901932 96.566193,74.341461 97.126678C73.780975 97.687149,73.466034 98.447296,73.466034 99.239990C73.466034 100.032684,73.780975 100.792831,74.341461 101.353302C74.901932 101.913788,75.662079 102.228729,76.454773 102.228729C77.247467 102.228729,78.007614 101.913788,78.568085 101.353302C79.128571 100.792831,79.443512 100.032684,79.443512 99.239990Z" style="fill: rgb(100.000000%,100.000000%,100.000000%);stroke: none;"></path>
  <path d="M49.591049 123.330505C49.591049 122.537811,49.276108 121.777664,48.715622 121.217194C48.155151 120.656708,47.395004 120.341766,46.602310 120.341766C45.809616 120.341766,45.049469 120.656708,44.488998 121.217194C43.928513 121.777664,43.613571 122.537811,43.613571 123.330505C43.613571 124.123199,43.928513 124.883347,44.488998 125.443817C45.049469 126.004303,45.809616 126.319244,46.602310 126.319244C47.395004 126.319244,48.155151 126.004303,48.715622 125.443817C49.276108 124.883347,49.591049 124.123199,49.591049 123.330505Z" style="fill: rgb(100.000000%,100.000000%,100.000000%);stroke: none;"></path>
  <path d="M66.703995 110.946686C66.703995 110.153992,66.389053 109.393845,65.828568 108.833374C65.268097 108.272888,64.507950 107.957947,63.715256 107.957947C62.922562 107.957947,62.162415 108.272888,61.601944 108.833374C61.041458 109.393845,60.726517 110.153992,60.726517 110.946686C60.726517 111.739380,61.041458 112.499527,61.601944 113.059998C62.162415 113.620483,62.922562 113.935425,63.715256 113.935425C64.507950 113.935425,65.268097 113.620483,65.828568 113.059998C66.389053 112.499527,66.703995 111.739380,66.703995 110.946686Z" style="fill: rgb(100.000000%,100.000000%,100.000000%);stroke: none;"></path>
  <path d="M29.715927 162.905182C29.715927 162.112488,29.400986 161.352341,28.840500 160.791870C28.280029 160.231384,27.519882 159.916443,26.727188 159.916443C25.934494 159.916443,25.174347 160.231384,24.613876 160.791870C24.053391 161.352341,23.738449 162.112488,23.738449 162.905182C23.738449 163.697876,24.053391 164.458023,24.613876 165.018494C25.174347 165.578979,25.934494 165.893921,26.727188 165.893921C27.519882 165.893921,28.280029 165.578979,28.840500 165.018494C29.400986 164.458023,29.715927 163.697876,29.715927 162.905182Z" style="fill: rgb(100.000000%,100.000000%,100.000000%);stroke: none;"></path>
  <path d="M37.381973 131.682159C37.381973 130.889465,37.067032 130.129318,36.506546 129.568848C35.946075 129.008362,35.185928 128.693420,34.393234 128.693420C33.600540 128.693420,32.840393 129.008362,32.279922 129.568848C31.719437 130.129318,31.404495 130.889465,31.404495 131.682159C31.404495 132.474854,31.719437 133.235001,32.279922 133.795471C32.840393 134.355957,33.600540 134.670898,34.393234 134.670898C35.185928 134.670898,35.946075 134.355957,36.506546 133.795471C37.067032 133.235001,37.381973 132.474854,37.381973 131.682159Z" style="fill: rgb(100.000000%,100.000000%,100.000000%);stroke: none;"></path>
  <path d="M79.040680 195.790314C79.040680 194.997620,78.725739 194.237473,78.165253 193.677002C77.604782 193.116516,76.844635 192.801575,76.051941 192.801575C75.259247 192.801575,74.499100 193.116516,73.938629 193.677002C73.378143 194.237473,73.063202 194.997620,73.063202 195.790314C73.063202 196.583008,73.378143 197.343155,73.938629 197.903625C74.499100 198.464111,75.259247 198.779053,76.051941 198.779053C76.844635 198.779053,77.604782 198.464111,78.165253 197.903625C78.725739 197.343155,79.040680 196.583008,79.040680 195.790314Z" style="fill: rgb(100.000000%,100.000000%,100.000000%);stroke: none;"></path>
  <path d="M41.863419 179.901855C41.863419 179.109161,41.548477 178.349014,40.987991 177.788544C40.427521 177.228058,39.667374 176.913116,38.874680 176.913116C38.081985 176.913116,37.321838 177.228058,36.761368 177.788544C36.200882 178.349014,35.885941 179.109161,35.885941 179.901855C35.885941 180.694550,36.200882 181.454697,36.761368 182.015167C37.321838 182.575653,38.081985 182.890594,38.874680 182.890594C39.667374 182.890594,40.427521 182.575653,40.987991 182.015167C41.548477 181.454697,41.863419 180.694550,41.863419 179.901855Z" style="fill: rgb(100.000000%,100.000000%,100.000000%);stroke: none;"></path>
  <path d="M118.080093 160.830460C118.080093 160.037766,117.765152 159.277618,117.204666 158.717148C116.644196 158.156662,115.884048 157.841721,115.091354 157.841721C114.298660 157.841721,113.538513 158.156662,112.978043 158.717148C112.417557 159.277618,112.102615 160.037766,112.102615 160.830460C112.102615 161.623154,112.417557 162.383301,112.978043 162.943771C113.538513 163.504257,114.298660 163.819199,115.091354 163.819199C115.884048 163.819199,116.644196 163.504257,117.204666 162.943771C117.765152 162.383301,118.080093 161.623154,118.080093 160.830460Z" style="fill: rgb(100.000000%,100.000000%,100.000000%);stroke: none;"></path>
  <path d="M102.417084 190.992416C102.417084 190.199722,102.102142 189.439575,101.541656 188.879105C100.981186 188.318619,100.221039 188.003677,99.428345 188.003677C98.635651 188.003677,97.875504 188.318619,97.315033 188.879105C96.754547 189.439575,96.439606 190.199722,96.439606 190.992416C96.439606 191.785110,96.754547 192.545258,97.315033 193.105728C97.875504 193.666214,98.635651 193.981155,99.428345 193.981155C100.221039 193.981155,100.981186 193.666214,101.541656 193.105728C102.102142 192.545258,102.417084 191.785110,102.417084 190.992416Z" style="fill: rgb(100.000000%,100.000000%,100.000000%);stroke: none;"></path>
  <path d="M118.739670 125.829086C118.739670 125.036392,118.424728 124.276245,117.864243 123.715775C117.303772 123.155289,116.543625 122.840347,115.750931 122.840347C114.958237 122.840347,114.198090 123.155289,113.637619 123.715775C113.077133 124.276245,112.762192 125.036392,112.762192 125.829086C112.762192 126.621780,113.077133 127.381927,113.637619 127.942398C114.198090 128.502884,114.958237 128.817825,115.750931 128.817825C116.543625 128.817825,117.303772 128.502884,117.864243 127.942398C118.424728 127.381927,118.739670 126.621780,118.739670 125.829086Z" style="fill: rgb(100.000000%,100.000000%,100.000000%);stroke: none;"></path>
  <path d="M115.267288 146.740173C115.267288 145.947479,114.952347 145.187332,114.391861 144.626862C113.831390 144.066376,113.071243 143.751434,112.278549 143.751434C111.485855 143.751434,110.725708 144.066376,110.165237 144.626862C109.604752 145.187332,109.289810 145.947479,109.289810 146.740173C109.289810 147.532867,109.604752 148.293015,110.165237 148.853485C110.725708 149.413971,111.485855 149.728912,112.278549 149.728912C113.071243 149.728912,113.831390 149.413971,114.391861 148.853485C114.952347 148.293015,115.267288 147.532867,115.267288 146.740173Z" style="fill: rgb(100.000000%,100.000000%,100.000000%);stroke: none;"></path>
  <path d="M123.561554 105.425552C123.561554 104.632858,123.246613 103.872711,122.686127 103.312241C122.125656 102.751755,121.365509 102.436813,120.572815 102.436813C119.780121 102.436813,119.019974 102.751755,118.459503 103.312241C117.899017 103.872711,117.584076 104.632858,117.584076 105.425552C117.584076 106.218246,117.899017 106.978394,118.459503 107.538864C119.019974 108.099350,119.780121 108.414291,120.572815 108.414291C121.365509 108.414291,122.125656 108.099350,122.686127 107.538864C123.246613 106.978394,123.561554 106.218246,123.561554 105.425552Z" style="fill: rgb(100.000000%,100.000000%,100.000000%);stroke: none;"></path>
  <path d="M121.805893 118.432724C121.805893 117.640030,121.490952 116.879883,120.930466 116.319412C120.369995 115.758926,119.609848 115.443985,118.817154 115.443985C118.024460 115.443985,117.264313 115.758926,116.703842 116.319412C116.143356 116.879883,115.828415 117.640030,115.828415 118.432724C115.828415 119.225418,116.143356 119.985565,116.703842 120.546036C117.264313 121.106522,118.024460 121.421463,118.817154 121.421463C119.609848 121.421463,120.369995 121.106522,120.930466 120.546036C121.490952 119.985565,121.805893 119.225418,121.805893 118.432724Z" style="fill: rgb(100.000000%,100.000000%,100.000000%);stroke: none;"></path>
  <path d="M121.836716 95.067627C123.265091 90.130920,124.322464 85.094345,125.000000 80.000000C125.901672 73.220367,126.126160 66.372543,126.819946 59.569183C128.065933 47.350891,130.649216 34.587479,125.000000 23.629196C115.115448 4.455246,90.010101 2.385590,67.918274 8.826370C48.041107 14.621490,29.662979 27.878525,30.960327 47.297012C31.763168 59.313766,40.741913 68.816254,51.997452 73.503876C57.783905 75.913773,63.989838 77.028580,70.077942 78.498459C73.795044 79.395889,77.501328 80.432587,81.322372 80.648361C85.084518 80.860825,88.826828 80.269791,92.565811 79.827454C97.608139 79.230911,102.679565 78.904053,107.757172 78.900940C113.521851 78.897415,119.276962 79.311066,125.000000 80.000000C132.258850 80.873825,139.454269 82.188675,146.627106 83.602036C159.884430 86.214294,173.800217 89.786972,181.337326 100.949463C192.627563 117.670349,184.129333 139.341522,169.662521 154.970322C153.232269 172.720261,129.229752 183.715775,108.908432 172.736786C96.294495 165.921860,89.326981 151.161926,75.718277 146.292419C61.385162 141.163696,45.689651 149.171936,31.084061 145.160095C10.846252 139.601212,2.184326 117.149139,2.867767 95.129196C3.508453 74.486572,12.006836 53.774597,30.960327 47.297012C42.567108 43.330261,55.034744 46.415237,66.080795 51.820969C71.335388 54.392471,76.320847 57.465790,81.343689 60.462814C85.050659 62.674698,88.903305 64.993576,90.813416 68.874512C92.469040 72.238388,92.288437 76.102631,92.565811 79.827454C92.832352 83.406784,93.544922 87.013504,92.778809 90.530121C92.035248 93.943222,89.979874 96.866104,88.528824 100.033920C87.144043 103.057098,85.812012 106.549072,82.580032 107.052277C79.063232 107.599808,76.699173 104.200821,74.498077 101.274445C71.953888 97.891907,68.638855 94.892258,67.734772 90.732758C66.830185 86.570938,68.578323 82.472214,70.077942 78.498459C71.293228 75.278152,72.356674 71.980164,74.101578 69.009811C76.003433 65.772263,78.632996 63.056213,81.343689 60.462814C86.039047 55.970657,91.021774 51.787567,95.685852 47.262756C104.802856 38.417999,113.045135 28.076813,125.000000 23.629196C146.029861 15.805359,168.555786 27.444351,181.395111 46.715012C192.959061 64.071442,195.433685 86.790527,181.337326 100.949463C171.504593 110.825851,156.765884 112.227844,142.774628 112.037888C135.121826 111.933990,127.476761 111.482040,119.872528 110.613846C113.759109 109.915863,107.656036 108.944183,101.839264 106.928146C97.093369 105.283264,92.608017 102.964767,88.528824 100.033920C86.318176 98.445602,84.036835 96.643539,81.318390 96.828598C78.504440 97.020157,76.454773 99.239990,74.498077 101.274445C69.470505 106.501801,63.715256 110.946686,57.841843 115.196991C46.602310 123.330505,34.393234 131.682159,31.084061 145.160095C26.727188 162.905182,38.874680 179.901855,56.311203 187.353714C76.051941 195.790314,99.428345 190.992416,108.908432 172.736786C115.091354 160.830460,112.278549 146.740173,114.458908 133.609802C115.750931 125.829086,118.817154 118.432724,119.872528 110.613846C120.572815 105.425552,120.379456 100.104141,121.836716 95.067627" style="stroke:rgb(0.000000%,0.000000%,0.000000%); stroke-width: 0.498138;stroke-linecap: round;stroke-linejoin: round;stroke-miterlimit: 10.000000;fill: none;"></path>
  <path d="M121.836716 95.067627C123.265091 90.130920,124.322464 85.094345,125.000000 80.000000" style="stroke:rgb(0.000000%,0.000000%,0.000000%); stroke-width: 1.494400;stroke-linecap: round;stroke-linejoin: round;stroke-miterlimit: 10.000000;fill: none;"></path>
  <path d="M31.084061 145.160095C26.727188 162.905182,38.874680 179.901855,56.311203 187.353714C76.051941 195.790314,99.428345 190.992416,108.908432 172.736786C115.091354 160.830460,112.278549 146.740173,114.458908 133.609802C115.750931 125.829086,118.817154 118.432724,119.872528 110.613846C120.572815 105.425552,120.379456 100.104141,121.836716 95.067627" style="stroke:rgb(0.000000%,0.000000%,0.000000%); stroke-width: 1.494400;stroke-linecap: round;stroke-linejoin: round;stroke-miterlimit: 10.000000;fill: none;"></path>
  <path d="M127.988739 80.000000C127.988739 79.207306,127.673798 78.447159,127.113312 77.886688C126.552841 77.326202,125.792694 77.011261,125.000000 77.011261C124.207306 77.011261,123.447159 77.326202,122.886688 77.886688C122.326202 78.447159,122.011261 79.207306,122.011261 80.000000C122.011261 80.792694,122.326202 81.552841,122.886688 82.113312C123.447159 82.673798,124.207306 82.988739,125.000000 82.988739C125.792694 82.988739,126.552841 82.673798,127.113312 82.113312C127.673798 81.552841,127.988739 80.792694,127.988739 80.000000Z" style="fill: rgb(100.000000%,100.000000%,100.000000%);stroke: none;"></path>
  <path d="M116.394211 79.190811C119.268951 79.379898,122.138489 79.655533,125.000000 80.000000C128.629425 80.436920,132.242996 80.984085,135.845825 81.598694" style="stroke:rgb(0.000000%,0.000000%,0.000000%); stroke-width: 0.498138;stroke-linecap: round;stroke-linejoin: round;stroke-miterlimit: 10.000000;fill: none;"></path>
  <path d="M33.949066 47.297012C33.949066 46.504318,33.634125 45.744171,33.073639 45.183701C32.513168 44.623215,31.753021 44.308273,30.960327 44.308273C30.167633 44.308273,29.407486 44.623215,28.847015 45.183701C28.286530 45.744171,27.971588 46.504318,27.971588 47.297012C27.971588 48.089706,28.286530 48.849854,28.847015 49.410324C29.407486 49.970810,30.167633 50.285751,30.960327 50.285751C31.753021 50.285751,32.513168 49.970810,33.073639 49.410324C33.634125 48.849854,33.949066 48.089706,33.949066 47.297012Z" style="fill: rgb(100.000000%,100.000000%,100.000000%);stroke: none;"></path>
  <path d="M41.498856 22.952942C34.581848 29.418900,30.311661 37.587769,30.960327 47.297012C31.361755 53.305389,33.807159 58.685211,37.559143 63.148880" style="stroke:rgb(0.000000%,0.000000%,0.000000%); stroke-width: 0.498138;stroke-linecap: round;stroke-linejoin: round;stroke-miterlimit: 10.000000;fill: none;"></path>
  <path d="M95.554550 79.827454C95.554550 79.034760,95.239609 78.274612,94.679123 77.714142C94.118652 77.153656,93.358505 76.838715,92.565811 76.838715C91.773117 76.838715,91.012970 77.153656,90.452499 77.714142C89.892014 78.274612,89.577072 79.034760,89.577072 79.827454C89.577072 80.620148,89.892014 81.380295,90.452499 81.940765C91.012970 82.501251,91.773117 82.816193,92.565811 82.816193C93.358505 82.816193,94.118652 82.501251,94.679123 81.940765C95.239609 81.380295,95.554550 80.620148,95.554550 79.827454Z" style="fill: rgb(100.000000%,100.000000%,100.000000%);stroke: none;"></path>
  <path d="M86.952789 80.483444C88.826004 80.306961,90.696320 80.048615,92.565811 79.827454C95.086975 79.529175,97.615417 79.298325,100.148270 79.141647" style="stroke:rgb(0.000000%,0.000000%,0.000000%); stroke-width: 0.498138;stroke-linecap: round;stroke-linejoin: round;stroke-miterlimit: 10.000000;fill: none;"></path>
  <path d="M184.326065 100.949463C184.326065 100.156769,184.011124 99.396622,183.450638 98.836151C182.890167 98.275665,182.130020 97.960724,181.337326 97.960724C180.544632 97.960724,179.784485 98.275665,179.224014 98.836151C178.663528 99.396622,178.348587 100.156769,178.348587 100.949463C178.348587 101.742157,178.663528 102.502304,179.224014 103.062775C179.784485 103.623260,180.544632 103.938202,181.337326 103.938202C182.130020 103.938202,182.890167 103.623260,183.450638 103.062775C184.011124 102.502304,184.326065 101.742157,184.326065 100.949463Z" style="fill: rgb(100.000000%,100.000000%,100.000000%);stroke: none;"></path>
  <path d="M190.988846 75.031311C191.290939 84.650497,188.385498 93.869995,181.337326 100.949463C176.420959 105.887665,170.278091 108.707260,163.615417 110.268570" style="stroke:rgb(0.000000%,0.000000%,0.000000%); stroke-width: 0.498138;stroke-linecap: round;stroke-linejoin: round;stroke-miterlimit: 10.000000;fill: none;"></path>
  <path d="M34.072800 145.160095C34.072800 144.367401,33.757858 143.607254,33.197372 143.046783C32.636902 142.486298,31.876755 142.171356,31.084061 142.171356C30.291367 142.171356,29.531219 142.486298,28.970749 143.046783C28.410263 143.607254,28.095322 144.367401,28.095322 145.160095C28.095322 145.952789,28.410263 146.712936,28.970749 147.273407C29.531219 147.833893,30.291367 148.148834,31.084061 148.148834C31.876755 148.148834,32.636902 147.833893,33.197372 147.273407C33.757858 146.712936,34.072800 145.952789,34.072800 145.160095Z" style="fill: rgb(100.000000%,100.000000%,100.000000%);stroke: none;"></path>
  <path d="M53.503342 145.307434C45.962128 146.166916,38.386856 147.166016,31.084061 145.160095C20.965149 142.380646,13.740219 135.377899,9.130432 126.317520" style="stroke:rgb(0.000000%,0.000000%,0.000000%); stroke-width: 0.498138;stroke-linecap: round;stroke-linejoin: round;stroke-miterlimit: 10.000000;fill: none;"></path>
  <path d="M84.332428 60.462814C84.332428 59.670120,84.017487 58.909973,83.457001 58.349503C82.896530 57.789017,82.136383 57.474075,81.343689 57.474075C80.550995 57.474075,79.790848 57.789017,79.230377 58.349503C78.669891 58.909973,78.354950 59.670120,78.354950 60.462814C78.354950 61.255508,78.669891 62.015656,79.230377 62.576126C79.790848 63.136612,80.550995 63.451553,81.343689 63.451553C82.136383 63.451553,82.896530 63.136612,83.457001 62.576126C84.017487 62.015656,84.332428 61.255508,84.332428 60.462814Z" style="fill: rgb(100.000000%,100.000000%,100.000000%);stroke: none;"></path>
  <path d="M73.799164 55.982330C76.330200 57.446732,78.832275 58.964310,81.343689 60.462814C83.197174 61.568756,85.087082 62.701447,86.752380 64.042770" style="stroke:rgb(0.000000%,0.000000%,0.000000%); stroke-width: 0.498138;stroke-linecap: round;stroke-linejoin: round;stroke-miterlimit: 10.000000;fill: none;"></path>
  <path d="M91.517563 100.033920C91.517563 99.241226,91.202621 98.481079,90.642136 97.920609C90.081665 97.360123,89.321518 97.045181,88.528824 97.045181C87.736130 97.045181,86.975983 97.360123,86.415512 97.920609C85.855026 98.481079,85.540085 99.241226,85.540085 100.033920C85.540085 100.826614,85.855026 101.586761,86.415512 102.147232C86.975983 102.707718,87.736130 103.022659,88.528824 103.022659C89.321518 103.022659,90.081665 102.707718,90.642136 102.147232C91.202621 101.586761,91.517563 100.826614,91.517563 100.033920Z" style="fill: rgb(100.000000%,100.000000%,100.000000%);stroke: none;"></path>
  <path d="M90.919113 95.374008C90.130951 96.927338,89.254349 98.450012,88.528824 100.033920C87.836426 101.545517,87.157227 103.174301,86.247116 104.488098" style="stroke:rgb(0.000000%,0.000000%,0.000000%); stroke-width: 0.498138;stroke-linecap: round;stroke-linejoin: round;stroke-miterlimit: 10.000000;fill: none;"></path>
  <path d="M73.066681 78.498459C73.066681 77.705765,72.751740 76.945618,72.191254 76.385147C71.630783 75.824661,70.870636 75.509720,70.077942 75.509720C69.285248 75.509720,68.525101 75.824661,67.964630 76.385147C67.404144 76.945618,67.089203 77.705765,67.089203 78.498459C67.089203 79.291153,67.404144 80.051300,67.964630 80.611771C68.525101 81.172256,69.285248 81.487198,70.077942 81.487198C70.870636 81.487198,71.630783 81.172256,72.191254 80.611771C72.751740 80.051300,73.066681 79.291153,73.066681 78.498459Z" style="fill: rgb(100.000000%,100.000000%,100.000000%);stroke: none;"></path>
  <path d="M68.004791 84.545074C68.516205 82.503448,69.328140 80.485336,70.077942 78.498459C70.685593 76.888306,71.255280 75.258728,71.891159 73.660385" style="stroke:rgb(0.000000%,0.000000%,0.000000%); stroke-width: 0.498138;stroke-linecap: round;stroke-linejoin: round;stroke-miterlimit: 10.000000;fill: none;"></path>
  <path d="M127.988739 23.629196C127.988739 22.836502,127.673798 22.076355,127.113312 21.515884C126.552841 20.955399,125.792694 20.640457,125.000000 20.640457C124.207306 20.640457,123.447159 20.955399,122.886688 21.515884C122.326202 22.076355,122.011261 22.836502,122.011261 23.629196C122.011261 24.421890,122.326202 25.182037,122.886688 25.742508C123.447159 26.302994,124.207306 26.617935,125.000000 26.617935C125.792694 26.617935,126.552841 26.302994,127.113312 25.742508C127.673798 25.182037,127.988739 24.421890,127.988739 23.629196Z" style="fill: rgb(100.000000%,100.000000%,100.000000%);stroke: none;"></path>
  <path d="M109.278732 33.797043C113.973282 29.550201,119.022568 25.852997,125.000000 23.629196C135.514938 19.717270,146.403885 20.671066,156.269012 25.011673" style="stroke:rgb(0.000000%,0.000000%,0.000000%); stroke-width: 0.498138;stroke-linecap: round;stroke-linejoin: round;stroke-miterlimit: 10.000000;fill: none;"></path>
  <path d="M122.861267 110.613846C122.861267 109.821152,122.546326 109.061005,121.985840 108.500534C121.425369 107.940048,120.665222 107.625107,119.872528 107.625107C119.079834 107.625107,118.319687 107.940048,117.759216 108.500534C117.198730 109.061005,116.883789 109.821152,116.883789 110.613846C116.883789 111.406540,117.198730 112.166687,117.759216 112.727158C118.319687 113.287643,119.079834 113.602585,119.872528 113.602585C120.665222 113.602585,121.425369 113.287643,121.985840 112.727158C122.546326 112.166687,122.861267 111.406540,122.861267 110.613846Z" style="fill: rgb(100.000000%,100.000000%,100.000000%);stroke: none;"></path>
  <path d="M117.254471 122.126129C118.314453 118.327087,119.344849 114.523285,119.872528 110.613846C120.222672 108.019699,120.349411 105.392273,120.570770 102.783813" style="stroke:rgb(0.000000%,0.000000%,0.000000%); stroke-width: 1.494400;stroke-linecap: round;stroke-linejoin: round;stroke-miterlimit: 10.000000;fill: none;"></path>
  <path d="M77.486816 101.274445C77.486816 100.481750,77.171875 99.721603,76.611389 99.161133C76.050919 98.600647,75.290771 98.285706,74.498077 98.285706C73.705383 98.285706,72.945236 98.600647,72.384766 99.161133C71.824280 99.721603,71.509338 100.481750,71.509338 101.274445C71.509338 102.067139,71.824280 102.827286,72.384766 103.387756C72.945236 103.948242,73.705383 104.263184,74.498077 104.263184C75.290771 104.263184,76.050919 103.948242,76.611389 103.387756C77.171875 102.827286,77.486816 102.067139,77.486816 101.274445Z" style="fill: rgb(100.000000%,100.000000%,100.000000%);stroke: none;"></path>
  <path d="M77.586746 98.360443C76.478012 99.193649,75.476425 100.257217,74.498077 101.274445C71.984283 103.888123,69.288574 106.306183,66.487137 108.602112" style="stroke:rgb(0.000000%,0.000000%,0.000000%); stroke-width: 0.498138;stroke-linecap: round;stroke-linejoin: round;stroke-miterlimit: 10.000000;fill: none;"></path>
  <path d="M111.897171 172.736786C111.897171 171.944092,111.582230 171.183945,111.021744 170.623474C110.461273 170.062988,109.701126 169.748047,108.908432 169.748047C108.115738 169.748047,107.355591 170.062988,106.795120 170.623474C106.234634 171.183945,105.919693 171.944092,105.919693 172.736786C105.919693 173.529480,106.234634 174.289627,106.795120 174.850098C107.355591 175.410583,108.115738 175.725525,108.908432 175.725525C109.701126 175.725525,110.461273 175.410583,111.021744 174.850098C111.582230 174.289627,111.897171 173.529480,111.897171 172.736786Z" style="fill: rgb(100.000000%,100.000000%,100.000000%);stroke: none;"></path>
  <path d="M86.457565 190.054825C95.954269 187.627975,104.168396 181.864594,108.908432 172.736786C111.999893 166.783615,112.842422 160.284454,113.184631 153.632294" style="stroke:rgb(0.000000%,0.000000%,0.000000%); stroke-width: 1.494400;stroke-linecap: round;stroke-linejoin: round;stroke-miterlimit: 10.000000;fill: none;"></path>
  <path d="M114.458908 133.609802C115.492523 127.385208,117.661652 121.406601,119.028290 115.260849" style="stroke:rgb(0.000000%,0.000000%,0.000000%); stroke-width: 0.498138;stroke-linecap: round;stroke-linejoin: round;stroke-miterlimit: 10.000000;fill: none;"></path>
  <path d="M119.759750 120.207138C119.548233 118.552139,119.316452 116.901154,119.028290 115.260849C118.072159 116.624451,117.068619 117.955765,116.047897 119.275589Z" style="stroke:rgb(0.000000%,0.000000%,0.000000%); stroke-width: 0.498138;fill: rgb(0.000000%,0.000000%,0.000000%);"></path>
  <path d="M114.458908 133.609802C115.492523 127.385208,117.661652 121.406601,119.028290 115.260849" style="stroke:rgb(0.000000%,0.000000%,0.000000%); stroke-width: 0.498138;stroke-linecap: round;stroke-linejoin: round;stroke-miterlimit: 10.000000;fill: none;"></path>
  <path d="M119.494034 118.224472C119.353882 117.233704,119.201248 116.245361,119.028290 115.260849C118.454422 116.079285,117.863464 116.886078,117.261978 117.685745Z" style="stroke:rgb(0.000000%,0.000000%,0.000000%); stroke-width: 0.498138;fill: rgb(0.000000%,0.000000%,0.000000%);"></path>
  <path d="M51.997452 73.503876C56.626633 75.431793,61.524277 76.530853,66.415283 77.645950" style="stroke:rgb(0.000000%,0.000000%,0.000000%); stroke-width: 0.498138;stroke-linecap: round;stroke-linejoin: round;stroke-miterlimit: 10.000000;fill: none;"></path>
  <path d="M63.457047 78.144287C64.443481 77.982162,65.429398 77.813705,66.415283 77.645950C65.599533 77.067429,64.783295 76.489395,63.971146 75.906494Z" style="stroke:rgb(0.000000%,0.000000%,0.000000%); stroke-width: 0.498138;fill: rgb(0.000000%,0.000000%,0.000000%);"></path>
  <path d="M107.757172 78.900940C112.368927 78.898117,116.974579 79.162292,121.562561 79.620819" style="stroke:rgb(0.000000%,0.000000%,0.000000%); stroke-width: 0.498138;stroke-linecap: round;stroke-linejoin: round;stroke-miterlimit: 10.000000;fill: none;"></path>
  <path d="M118.698776 80.514603C119.650375 80.207489,120.605118 79.909760,121.562561 79.620819C120.681229 79.148102,119.795639 78.683502,118.905594 78.227768Z" style="stroke:rgb(0.000000%,0.000000%,0.000000%); stroke-width: 0.498138;fill: rgb(0.000000%,0.000000%,0.000000%);"></path>
  <path d="M75.718277 146.292419C64.251740 142.189423,51.913269 146.494156,39.958450 146.326035" style="stroke:rgb(0.000000%,0.000000%,0.000000%); stroke-width: 0.498138;stroke-linecap: round;stroke-linejoin: round;stroke-miterlimit: 10.000000;fill: none;"></path>
  <path d="M42.712952 145.137589C41.802780 145.558731,40.885345 145.957275,39.958450 146.326035C40.874603 146.720703,41.805130 147.087631,42.746521 147.433456Z" style="stroke:rgb(0.000000%,0.000000%,0.000000%); stroke-width: 0.498138;fill: rgb(0.000000%,0.000000%,0.000000%);"></path>
  <path d="M90.813416 68.874512C92.137924 71.565628,92.287231 74.576965,92.435989 77.580978" style="stroke:rgb(0.000000%,0.000000%,0.000000%); stroke-width: 0.498138;stroke-linecap: round;stroke-linejoin: round;stroke-miterlimit: 10.000000;fill: none;"></path>
  <path d="M91.112518 74.888641C91.577728 75.768250,92.007034 76.674973,92.435989 77.580978C92.773331 76.637039,93.110931 75.692322,93.403961 74.741394Z" style="stroke:rgb(0.000000%,0.000000%,0.000000%); stroke-width: 0.498138;fill: rgb(0.000000%,0.000000%,0.000000%);"></path>
  <path d="M82.580032 107.052277C79.766586 107.490311,77.690887 105.402542,75.846191 103.051605" style="stroke:rgb(0.000000%,0.000000%,0.000000%); stroke-width: 0.498138;stroke-linecap: round;stroke-linejoin: round;stroke-miterlimit: 10.000000;fill: none;"></path>
  <path d="M78.550110 104.351212C77.646255 104.018539,76.739578 103.554596,75.846191 103.051605C76.122238 104.039001,76.435257 105.008163,76.839142 105.882553Z" style="stroke:rgb(0.000000%,0.000000%,0.000000%); stroke-width: 0.498138;fill: rgb(0.000000%,0.000000%,0.000000%);"></path>
  <path d="M74.101578 69.009811C75.623062 66.419769,77.610291 64.163467,79.732208 62.036743" style="stroke:rgb(0.000000%,0.000000%,0.000000%); stroke-width: 0.498138;stroke-linecap: round;stroke-linejoin: round;stroke-miterlimit: 10.000000;fill: none;"></path>
  <path d="M78.658188 64.837936C78.987381 63.895111,79.350128 62.962143,79.732208 62.036743C78.807678 62.420914,77.891464 62.824097,76.991989 63.257980Z" style="stroke:rgb(0.000000%,0.000000%,0.000000%); stroke-width: 0.498138;fill: rgb(0.000000%,0.000000%,0.000000%);"></path>
  <path d="M142.774628 112.037888C136.652359 111.954773,130.535049 111.648895,124.439636 111.085342" style="stroke:rgb(0.000000%,0.000000%,0.000000%); stroke-width: 0.498138;stroke-linecap: round;stroke-linejoin: round;stroke-miterlimit: 10.000000;fill: none;"></path>
  <path d="M127.298874 110.177750C126.347900 110.486755,125.394806 110.789337,124.439636 111.085342C125.324341 111.551453,126.212250 112.011444,127.103165 112.465408Z" style="stroke:rgb(0.000000%,0.000000%,0.000000%); stroke-width: 0.498138;fill: rgb(0.000000%,0.000000%,0.000000%);"></path>
  <path d="M81.318390 96.828598C79.067215 96.981842,77.305191 98.433197,75.688599 100.049255" style="stroke:rgb(0.000000%,0.000000%,0.000000%); stroke-width: 0.498138;stroke-linecap: round;stroke-linejoin: round;stroke-miterlimit: 10.000000;fill: none;"></path>
  <path d="M77.038895 97.370316C76.505768 98.190567,76.077652 99.110382,75.688599 100.049255C76.627609 99.660492,77.580719 99.312820,78.537704 99.109818Z" style="stroke:rgb(0.000000%,0.000000%,0.000000%); stroke-width: 0.498138;fill: rgb(0.000000%,0.000000%,0.000000%);"></path>
  <path d="M53.320557 190.063919L59.301849 190.063919L59.301849 182.643524L53.320557 182.643524Z" style="fill: rgb(100.000000%,100.000000%,100.000000%);stroke: none;"></path>
  <path d="M53.320557 192.063919L59.301849 192.063919L59.301849 184.643524L53.320557 184.643524Z" style="fill: rgb(100.000000%,100.000000%,100.000000%);stroke: none;"></path>
  <g transform="translate(53.820557 190.563919)" style="fill: rgb(0.000000%,0.000000%,0.000000%);">
    <use xlink:href="#GLYPHcmr10_49"></use>
  </g>
  <path d="M123.829300 62.279388L129.810593 62.279388L129.810593 54.858994L123.829300 54.858994Z" style="fill: rgb(100.000000%,100.000000%,100.000000%);stroke: none;"></path>
  <path d="M123.829300 64.279388L129.810593 64.279388L129.810593 56.858994L123.829300 56.858994Z" style="fill: rgb(100.000000%,100.000000%,100.000000%);stroke: none;"></path>
  <g transform="translate(124.329300 62.779388)" style="fill: rgb(0.000000%,0.000000%,0.000000%);">
    <use xlink:href="#GLYPHcmr10_50"></use>
  </g>
  <path d="M64.927628 11.536575L70.908920 11.536575L70.908920 4.116180L64.927628 4.116180Z" style="fill: rgb(100.000000%,100.000000%,100.000000%);stroke: none;"></path>
  <path d="M64.927628 13.536575L70.908920 13.536575L70.908920 6.116180L64.927628 6.116180Z" style="fill: rgb(100.000000%,100.000000%,100.000000%);stroke: none;"></path>
  <g transform="translate(65.427628 12.036575)" style="fill: rgb(0.000000%,0.000000%,0.000000%);">
    <use xlink:href="#GLYPHcmr10_51"></use>
  </g>
  <path d="M143.636459 86.312241L149.617752 86.312241L149.617752 78.891846L143.636459 78.891846Z" style="fill: rgb(100.000000%,100.000000%,100.000000%);stroke: none;"></path>
  <path d="M143.636459 88.312241L149.617752 88.312241L149.617752 80.891846L143.636459 80.891846Z" style="fill: rgb(100.000000%,100.000000%,100.000000%);stroke: none;"></path>
  <g transform="translate(144.136459 86.812241)" style="fill: rgb(0.000000%,0.000000%,0.000000%);">
    <use xlink:href="#GLYPHcmr10_52"></use>
  </g>
  <path d="M166.671875 157.680527L172.653168 157.680527L172.653168 150.260132L166.671875 150.260132Z" style="fill: rgb(100.000000%,100.000000%,100.000000%);stroke: none;"></path>
  <path d="M166.671875 159.680527L172.653168 159.680527L172.653168 152.260132L166.671875 152.260132Z" style="fill: rgb(100.000000%,100.000000%,100.000000%);stroke: none;"></path>
  <g transform="translate(167.171875 158.180527)" style="fill: rgb(0.000000%,0.000000%,0.000000%);">
    <use xlink:href="#GLYPHcmr10_53"></use>
  </g>
  <path d="M-0.122879 97.839401L5.858414 97.839401L5.858414 90.419006L-0.122879 90.419006Z" style="fill: rgb(100.000000%,100.000000%,100.000000%);stroke: none;"></path>
  <path d="M-0.122879 99.839401L5.858414 99.839401L5.858414 92.419006L-0.122879 92.419006Z" style="fill: rgb(100.000000%,100.000000%,100.000000%);stroke: none;"></path>
  <g transform="translate(0.377121 98.339401)" style="fill: rgb(0.000000%,0.000000%,0.000000%);">
    <use xlink:href="#GLYPHcmr10_54"></use>
  </g>
  <path d="M63.090149 54.531174L69.071442 54.531174L69.071442 47.110779L63.090149 47.110779Z" style="fill: rgb(100.000000%,100.000000%,100.000000%);stroke: none;"></path>
  <path d="M63.090149 56.531174L69.071442 56.531174L69.071442 49.110779L63.090149 49.110779Z" style="fill: rgb(100.000000%,100.000000%,100.000000%);stroke: none;"></path>
  <g transform="translate(63.590149 55.031174)" style="fill: rgb(0.000000%,0.000000%,0.000000%);">
    <use xlink:href="#GLYPHcmr10_55"></use>
  </g>
  <path d="M89.788162 93.240326L95.769455 93.240326L95.769455 85.819931L89.788162 85.819931Z" style="fill: rgb(100.000000%,100.000000%,100.000000%);stroke: none;"></path>
  <path d="M89.788162 95.240326L95.769455 95.240326L95.769455 87.819931L89.788162 87.819931Z" style="fill: rgb(100.000000%,100.000000%,100.000000%);stroke: none;"></path>
  <g transform="translate(90.288162 93.740326)" style="fill: rgb(0.000000%,0.000000%,0.000000%);">
    <use xlink:href="#GLYPHcmr10_56"></use>
  </g>
  <path d="M64.744125 93.442963L70.725418 93.442963L70.725418 86.022568L64.744125 86.022568Z" style="fill: rgb(100.000000%,100.000000%,100.000000%);stroke: none;"></path>
  <path d="M64.744125 95.442963L70.725418 95.442963L70.725418 88.022568L64.744125 88.022568Z" style="fill: rgb(100.000000%,100.000000%,100.000000%);stroke: none;"></path>
  <g transform="translate(65.244125 93.942963)" style="fill: rgb(0.000000%,0.000000%,0.000000%);">
    <use xlink:href="#GLYPHcmr10_57"></use>
  </g>
  <path d="M175.913757 49.425217L186.876465 49.425217L186.876465 42.004822L175.913757 42.004822Z" style="fill: rgb(100.000000%,100.000000%,100.000000%);stroke: none;"></path>
  <path d="M175.913757 51.425217L186.876465 51.425217L186.876465 44.004822L175.913757 44.004822Z" style="fill: rgb(100.000000%,100.000000%,100.000000%);stroke: none;"></path>
  <g transform="translate(176.413757 49.925217)" style="fill: rgb(0.000000%,0.000000%,0.000000%);">
    <use xlink:href="#GLYPHcmr10_49"></use>
    <use xlink:href="#GLYPHcmr10_48" x="5.000095"></use>
  </g>
  <path d="M96.357910 109.638351L107.320618 109.638351L107.320618 102.217957L96.357910 102.217957Z" style="fill: rgb(100.000000%,100.000000%,100.000000%);stroke: none;"></path>
  <path d="M96.357910 111.638351L107.320618 111.638351L107.320618 104.217957L96.357910 104.217957Z" style="fill: rgb(100.000000%,100.000000%,100.000000%);stroke: none;"></path>
  <g transform="translate(96.857910 110.138351)" style="fill: rgb(0.000000%,0.000000%,0.000000%);">
    <use xlink:href="#GLYPHcmr10_49"></use>
    <use xlink:href="#GLYPHcmr10_49" x="5.000095"></use>
  </g>
  <path d="M52.360489 117.907196L63.323196 117.907196L63.323196 110.486801L52.360489 110.486801Z" style="fill: rgb(100.000000%,100.000000%,100.000000%);stroke: none;"></path>
  <path d="M52.360489 119.907196L63.323196 119.907196L63.323196 112.486801L52.360489 112.486801Z" style="fill: rgb(100.000000%,100.000000%,100.000000%);stroke: none;"></path>
  <g transform="translate(52.860489 118.407196)" style="fill: rgb(0.000000%,0.000000%,0.000000%);">
    <use xlink:href="#GLYPHcmr10_49"></use>
    <use xlink:href="#GLYPHcmr10_50" x="5.000095"></use>
  </g>
</svg>
