<?xml version="1.0"?>
<!-- Created by MetaPost 1.999 on 2021.07.05:2356 -->
<svg version="1.1" xmlns="http://www.w3.org/2000/svg" xmlns:xlink="http://www.w3.org/1999/xlink" width="194.192169" height="192.070068" viewBox="0 0 194.192169 192.070068">
<!-- Original BoundingBox: -107.828369 -89.225967 86.363800 102.844101 -->
  <defs>
    <g transform="scale(0.009963,0.009963)" id="GLYPHcmr10_48">
      <path style="fill-rule: evenodd;" d="M460.000000 -320.000000C460.000000 -400.000000,455.000000 -480.000000,420.000000 -554.000000C374.000000 -650.000000,292.000000 -666.000000,250.000000 -666.000000C190.000000 -666.000000,117.000000 -640.000000,76.000000 -547.000000C44.000000 -478.000000,39.000000 -400.000000,39.000000 -320.000000C39.000000 -245.000000,43.000000 -155.000000,84.000000 -79.000000C127.000000 2.000000,200.000000 22.000000,249.000000 22.000000C303.000000 22.000000,379.000000 1.000000,423.000000 -94.000000C455.000000 -163.000000,460.000000 -241.000000,460.000000 -320.000000M249.000000 -0.000000C210.000000 -0.000000,151.000000 -25.000000,133.000000 -121.000000C122.000000 -181.000000,122.000000 -273.000000,122.000000 -332.000000C122.000000 -396.000000,122.000000 -462.000000,130.000000 -516.000000C149.000000 -635.000000,224.000000 -644.000000,249.000000 -644.000000C282.000000 -644.000000,348.000000 -626.000000,367.000000 -527.000000C377.000000 -471.000000,377.000000 -395.000000,377.000000 -332.000000C377.000000 -257.000000,377.000000 -189.000000,366.000000 -125.000000C351.000000 -30.000000,294.000000 -0.000000,249.000000 -0.000000"></path>
    </g>
    <g transform="scale(0.009963,0.009963)" id="GLYPHcmr10_49">
      <path style="fill-rule: evenodd;" d="M294.000000 -640.000000C294.000000 -664.000000,294.000000 -666.000000,271.000000 -666.000000C209.000000 -602.000000,121.000000 -602.000000,89.000000 -602.000000L89.000000 -571.000000C109.000000 -571.000000,168.000000 -571.000000,220.000000 -597.000000L220.000000 -79.000000C220.000000 -43.000000,217.000000 -31.000000,127.000000 -31.000000L95.000000 -31.000000L95.000000 -0.000000L257.000000 -0.000000L130.000000 -3.000000L217.000000 -3.000000L257.000000 -3.000000L297.000000 -3.000000L384.000000 -3.000000L419.000000 -0.000000L419.000000 -31.000000L387.000000 -31.000000C297.000000 -31.000000,294.000000 -42.000000,294.000000 -79.000000"></path>
    </g>
    <g transform="scale(0.009963,0.009963)" id="GLYPHcmr10_50">
      <path style="fill-rule: evenodd;" d="M127.000000 -77.000000L233.000000 -180.000000C389.000000 -318.000000,449.000000 -372.000000,449.000000 -472.000000C449.000000 -586.000000,359.000000 -666.000000,237.000000 -666.000000C124.000000 -666.000000,50.000000 -574.000000,50.000000 -485.000000C50.000000 -429.000000,100.000000 -429.000000,103.000000 -429.000000C120.000000 -429.000000,155.000000 -441.000000,155.000000 -482.000000C155.000000 -508.000000,137.000000 -534.000000,102.000000 -534.000000C94.000000 -534.000000,92.000000 -534.000000,89.000000 -533.000000C112.000000 -598.000000,166.000000 -635.000000,224.000000 -635.000000C315.000000 -635.000000,358.000000 -554.000000,358.000000 -472.000000C358.000000 -392.000000,308.000000 -313.000000,253.000000 -251.000000L61.000000 -37.000000C50.000000 -26.000000,50.000000 -24.000000,50.000000 -0.000000L421.000000 -0.000000L449.000000 -174.000000L424.000000 -174.000000C419.000000 -144.000000,412.000000 -100.000000,402.000000 -85.000000C395.000000 -77.000000,329.000000 -77.000000,307.000000 -77.000000"></path>
    </g>
    <g transform="scale(0.009963,0.009963)" id="GLYPHcmr10_51">
      <path style="fill-rule: evenodd;" d="M290.000000 -352.000000C372.000000 -379.000000,430.000000 -449.000000,430.000000 -528.000000C430.000000 -610.000000,342.000000 -666.000000,246.000000 -666.000000C145.000000 -666.000000,69.000000 -606.000000,69.000000 -530.000000C69.000000 -497.000000,91.000000 -478.000000,120.000000 -478.000000C151.000000 -478.000000,171.000000 -500.000000,171.000000 -529.000000C171.000000 -579.000000,124.000000 -579.000000,109.000000 -579.000000C140.000000 -628.000000,206.000000 -641.000000,242.000000 -641.000000C283.000000 -641.000000,338.000000 -619.000000,338.000000 -529.000000C338.000000 -517.000000,336.000000 -459.000000,310.000000 -415.000000C280.000000 -367.000000,246.000000 -364.000000,221.000000 -363.000000C213.000000 -362.000000,189.000000 -360.000000,182.000000 -360.000000C174.000000 -359.000000,167.000000 -358.000000,167.000000 -348.000000C167.000000 -337.000000,174.000000 -337.000000,191.000000 -337.000000L235.000000 -337.000000C317.000000 -337.000000,354.000000 -269.000000,354.000000 -171.000000C354.000000 -35.000000,285.000000 -6.000000,241.000000 -6.000000C198.000000 -6.000000,123.000000 -23.000000,88.000000 -82.000000C123.000000 -77.000000,154.000000 -99.000000,154.000000 -137.000000C154.000000 -173.000000,127.000000 -193.000000,98.000000 -193.000000C74.000000 -193.000000,42.000000 -179.000000,42.000000 -135.000000C42.000000 -44.000000,135.000000 22.000000,244.000000 22.000000C366.000000 22.000000,457.000000 -69.000000,457.000000 -171.000000C457.000000 -253.000000,394.000000 -331.000000,290.000000 -352.000000"></path>
    </g>
    <g transform="scale(0.009963,0.009963)" id="GLYPHcmr10_52">
      <path style="fill-rule: evenodd;" d="M294.000000 -165.000000L294.000000 -78.000000C294.000000 -42.000000,292.000000 -31.000000,218.000000 -31.000000L197.000000 -31.000000L197.000000 -0.000000L332.000000 -0.000000L238.000000 -3.000000L290.000000 -3.000000L332.000000 -3.000000L374.000000 -3.000000L427.000000 -3.000000L468.000000 -0.000000L468.000000 -31.000000L447.000000 -31.000000C373.000000 -31.000000,371.000000 -42.000000,371.000000 -78.000000L371.000000 -165.000000L471.000000 -165.000000L471.000000 -196.000000L371.000000 -196.000000L371.000000 -651.000000C371.000000 -671.000000,371.000000 -677.000000,355.000000 -677.000000C346.000000 -677.000000,343.000000 -677.000000,335.000000 -665.000000L28.000000 -196.000000L28.000000 -165.000000M300.000000 -196.000000L56.000000 -196.000000L300.000000 -569.000000"></path>
    </g>
    <g transform="scale(0.009963,0.009963)" id="GLYPHcmr10_53">
      <path style="fill-rule: evenodd;" d="M449.000000 -201.000000C449.000000 -320.000000,367.000000 -420.000000,259.000000 -420.000000C211.000000 -420.000000,168.000000 -404.000000,132.000000 -369.000000L132.000000 -564.000000C152.000000 -558.000000,185.000000 -551.000000,217.000000 -551.000000C340.000000 -551.000000,410.000000 -642.000000,410.000000 -655.000000C410.000000 -661.000000,407.000000 -666.000000,400.000000 -666.000000C399.000000 -666.000000,397.000000 -666.000000,392.000000 -663.000000C372.000000 -654.000000,323.000000 -634.000000,256.000000 -634.000000C216.000000 -634.000000,170.000000 -641.000000,123.000000 -662.000000C115.000000 -665.000000,113.000000 -665.000000,111.000000 -665.000000C101.000000 -665.000000,101.000000 -657.000000,101.000000 -641.000000L101.000000 -345.000000C101.000000 -327.000000,101.000000 -319.000000,115.000000 -319.000000C122.000000 -319.000000,124.000000 -322.000000,128.000000 -328.000000C139.000000 -344.000000,176.000000 -398.000000,257.000000 -398.000000C309.000000 -398.000000,334.000000 -352.000000,342.000000 -334.000000C358.000000 -297.000000,360.000000 -258.000000,360.000000 -208.000000C360.000000 -173.000000,360.000000 -113.000000,336.000000 -71.000000C312.000000 -32.000000,275.000000 -6.000000,229.000000 -6.000000C156.000000 -6.000000,99.000000 -59.000000,82.000000 -118.000000C85.000000 -117.000000,88.000000 -116.000000,99.000000 -116.000000C132.000000 -116.000000,149.000000 -141.000000,149.000000 -165.000000C149.000000 -189.000000,132.000000 -214.000000,99.000000 -214.000000C85.000000 -214.000000,50.000000 -207.000000,50.000000 -161.000000C50.000000 -75.000000,119.000000 22.000000,231.000000 22.000000C347.000000 22.000000,449.000000 -74.000000,449.000000 -201.000000"></path>
    </g>
    <g transform="scale(0.009963,0.009963)" id="GLYPHcmr10_54">
      <path style="fill-rule: evenodd;" d="M132.000000 -328.000000L132.000000 -352.000000C132.000000 -605.000000,256.000000 -641.000000,307.000000 -641.000000C331.000000 -641.000000,373.000000 -635.000000,395.000000 -601.000000C380.000000 -601.000000,340.000000 -601.000000,340.000000 -556.000000C340.000000 -525.000000,364.000000 -510.000000,386.000000 -510.000000C402.000000 -510.000000,432.000000 -519.000000,432.000000 -558.000000C432.000000 -618.000000,388.000000 -666.000000,305.000000 -666.000000C177.000000 -666.000000,42.000000 -537.000000,42.000000 -316.000000C42.000000 -49.000000,158.000000 22.000000,251.000000 22.000000C362.000000 22.000000,457.000000 -72.000000,457.000000 -204.000000C457.000000 -331.000000,368.000000 -427.000000,257.000000 -427.000000C189.000000 -427.000000,152.000000 -376.000000,132.000000 -328.000000M251.000000 -6.000000C188.000000 -6.000000,158.000000 -66.000000,152.000000 -81.000000C134.000000 -128.000000,134.000000 -208.000000,134.000000 -226.000000C134.000000 -304.000000,166.000000 -404.000000,256.000000 -404.000000C272.000000 -404.000000,318.000000 -404.000000,349.000000 -342.000000C367.000000 -305.000000,367.000000 -254.000000,367.000000 -205.000000C367.000000 -157.000000,367.000000 -107.000000,350.000000 -71.000000C320.000000 -11.000000,274.000000 -6.000000,251.000000 -6.000000"></path>
    </g>
    <g transform="scale(0.009963,0.009963)" id="GLYPHcmr10_55">
      <path style="fill-rule: evenodd;" d="M476.000000 -609.000000C485.000000 -621.000000,485.000000 -623.000000,485.000000 -644.000000L242.000000 -644.000000C120.000000 -644.000000,118.000000 -657.000000,114.000000 -676.000000L89.000000 -676.000000L56.000000 -470.000000L81.000000 -470.000000C84.000000 -486.000000,93.000000 -549.000000,106.000000 -561.000000C113.000000 -567.000000,191.000000 -567.000000,204.000000 -567.000000L411.000000 -567.000000C400.000000 -551.000000,321.000000 -442.000000,299.000000 -409.000000C209.000000 -274.000000,176.000000 -135.000000,176.000000 -33.000000C176.000000 -23.000000,176.000000 22.000000,222.000000 22.000000C268.000000 22.000000,268.000000 -23.000000,268.000000 -33.000000L268.000000 -84.000000C268.000000 -139.000000,271.000000 -194.000000,279.000000 -248.000000C283.000000 -271.000000,297.000000 -357.000000,341.000000 -419.000000"></path>
    </g>
    <g transform="scale(0.009963,0.009963)" id="GLYPHcmr10_56">
      <path style="fill-rule: evenodd;" d="M163.000000 -457.000000C117.000000 -487.000000,113.000000 -521.000000,113.000000 -538.000000C113.000000 -599.000000,178.000000 -641.000000,249.000000 -641.000000C322.000000 -641.000000,386.000000 -589.000000,386.000000 -517.000000C386.000000 -460.000000,347.000000 -412.000000,287.000000 -377.000000M309.000000 -362.000000C381.000000 -399.000000,430.000000 -451.000000,430.000000 -517.000000C430.000000 -609.000000,341.000000 -666.000000,250.000000 -666.000000C150.000000 -666.000000,69.000000 -592.000000,69.000000 -499.000000C69.000000 -481.000000,71.000000 -436.000000,113.000000 -389.000000C124.000000 -377.000000,161.000000 -352.000000,186.000000 -335.000000C128.000000 -306.000000,42.000000 -250.000000,42.000000 -151.000000C42.000000 -45.000000,144.000000 22.000000,249.000000 22.000000C362.000000 22.000000,457.000000 -61.000000,457.000000 -168.000000C457.000000 -204.000000,446.000000 -249.000000,408.000000 -291.000000C389.000000 -312.000000,373.000000 -322.000000,309.000000 -362.000000M209.000000 -320.000000L332.000000 -242.000000C360.000000 -223.000000,407.000000 -193.000000,407.000000 -132.000000C407.000000 -58.000000,332.000000 -6.000000,250.000000 -6.000000C164.000000 -6.000000,92.000000 -68.000000,92.000000 -151.000000C92.000000 -209.000000,124.000000 -273.000000,209.000000 -320.000000"></path>
    </g>
    <g transform="scale(0.009963,0.009963)" id="GLYPHcmr10_57">
      <path style="fill-rule: evenodd;" d="M367.000000 -318.000000L367.000000 -286.000000C367.000000 -52.000000,263.000000 -6.000000,205.000000 -6.000000C188.000000 -6.000000,134.000000 -8.000000,107.000000 -42.000000C151.000000 -42.000000,159.000000 -71.000000,159.000000 -88.000000C159.000000 -119.000000,135.000000 -134.000000,113.000000 -134.000000C97.000000 -134.000000,67.000000 -125.000000,67.000000 -86.000000C67.000000 -19.000000,121.000000 22.000000,206.000000 22.000000C335.000000 22.000000,457.000000 -114.000000,457.000000 -329.000000C457.000000 -598.000000,342.000000 -666.000000,253.000000 -666.000000C198.000000 -666.000000,149.000000 -648.000000,106.000000 -603.000000C65.000000 -558.000000,42.000000 -516.000000,42.000000 -441.000000C42.000000 -316.000000,130.000000 -218.000000,242.000000 -218.000000C303.000000 -218.000000,344.000000 -260.000000,367.000000 -318.000000M243.000000 -241.000000C227.000000 -241.000000,181.000000 -241.000000,150.000000 -304.000000C132.000000 -341.000000,132.000000 -391.000000,132.000000 -440.000000C132.000000 -494.000000,132.000000 -541.000000,153.000000 -578.000000C180.000000 -628.000000,218.000000 -641.000000,253.000000 -641.000000C299.000000 -641.000000,332.000000 -607.000000,349.000000 -562.000000C361.000000 -530.000000,365.000000 -467.000000,365.000000 -421.000000C365.000000 -338.000000,331.000000 -241.000000,243.000000 -241.000000"></path>
    </g>
  </defs>
  <path d="M107.509903 119.271271C107.509903 118.478577,107.194962 117.718430,106.634476 117.157959C106.074005 116.597473,105.313858 116.282532,104.521164 116.282532C103.728470 116.282532,102.968323 116.597473,102.407852 117.157959C101.847366 117.718430,101.532425 118.478577,101.532425 119.271271C101.532425 120.063965,101.847366 120.824112,102.407852 121.384583C102.968323 121.945068,103.728470 122.260010,104.521164 122.260010C105.313858 122.260010,106.074005 121.945068,106.634476 121.384583C107.194962 120.824112,107.509903 120.063965,107.509903 119.271271Z" style="fill: rgb(100.000000%,100.000000%,100.000000%);stroke: none;"></path>
  <path d="M106.502869 127.937073C106.502869 127.144379,106.187927 126.384232,105.627441 125.823761C105.066971 125.263275,104.306824 124.948334,103.514130 124.948334C102.721436 124.948334,101.961288 125.263275,101.400818 125.823761C100.840332 126.384232,100.525391 127.144379,100.525391 127.937073C100.525391 128.729767,100.840332 129.489914,101.400818 130.050385C101.961288 130.610870,102.721436 130.925812,103.514130 130.925812C104.306824 130.925812,105.066971 130.610870,105.627441 130.050385C106.187927 129.489914,106.502869 128.729767,106.502869 127.937073Z" style="fill: rgb(100.000000%,100.000000%,100.000000%);stroke: none;"></path>
  <path d="M110.987106 95.460800C110.987106 94.668106,110.672165 93.907959,110.111679 93.347488C109.551208 92.787003,108.791061 92.472061,107.998367 92.472061C107.205673 92.472061,106.445526 92.787003,105.885056 93.347488C105.324570 93.907959,105.009628 94.668106,105.009628 95.460800C105.009628 96.253494,105.324570 97.013641,105.885056 97.574112C106.445526 98.134598,107.205673 98.449539,107.998367 98.449539C108.791061 98.449539,109.551208 98.134598,110.111679 97.574112C110.672165 97.013641,110.987106 96.253494,110.987106 95.460800Z" style="fill: rgb(100.000000%,100.000000%,100.000000%);stroke: none;"></path>
  <path d="M108.672043 110.624191C108.672043 109.831497,108.357101 109.071350,107.796616 108.510880C107.236145 107.950394,106.475998 107.635452,105.683304 107.635452C104.890610 107.635452,104.130463 107.950394,103.569992 108.510880C103.009506 109.071350,102.694565 109.831497,102.694565 110.624191C102.694565 111.416885,103.009506 112.177032,103.569992 112.737503C104.130463 113.297989,104.890610 113.612930,105.683304 113.612930C106.475998 113.612930,107.236145 113.297989,107.796616 112.737503C108.357101 112.177032,108.672043 111.416885,108.672043 110.624191Z" style="fill: rgb(100.000000%,100.000000%,100.000000%);stroke: none;"></path>
  <path d="M111.635391 76.638962C111.635391 75.846268,111.320450 75.086121,110.759964 74.525650C110.199493 73.965164,109.439346 73.650223,108.646652 73.650223C107.853958 73.650223,107.093811 73.965164,106.533340 74.525650C105.972855 75.086121,105.657913 75.846268,105.657913 76.638962C105.657913 77.431656,105.972855 78.191803,106.533340 78.752274C107.093811 79.312759,107.853958 79.627701,108.646652 79.627701C109.439346 79.627701,110.199493 79.312759,110.759964 78.752274C111.320450 78.191803,111.635391 77.431656,111.635391 76.638962Z" style="fill: rgb(100.000000%,100.000000%,100.000000%);stroke: none;"></path>
  <path d="M112.076218 88.899826C112.076218 88.107132,111.761276 87.346985,111.200790 86.786514C110.640320 86.226028,109.880173 85.911087,109.087479 85.911087C108.294785 85.911087,107.534637 86.226028,106.974167 86.786514C106.413681 87.346985,106.098740 88.107132,106.098740 88.899826C106.098740 89.692520,106.413681 90.452667,106.974167 91.013138C107.534637 91.573624,108.294785 91.888565,109.087479 91.888565C109.880173 91.888565,110.640320 91.573624,111.200790 91.013138C111.761276 90.452667,112.076218 89.692520,112.076218 88.899826Z" style="fill: rgb(100.000000%,100.000000%,100.000000%);stroke: none;"></path>
  <path d="M109.680954 61.826431C109.680954 61.033737,109.366013 60.273590,108.805527 59.713120C108.245056 59.152634,107.484909 58.837692,106.692215 58.837692C105.899521 58.837692,105.139374 59.152634,104.578903 59.713120C104.018417 60.273590,103.703476 61.033737,103.703476 61.826431C103.703476 62.619125,104.018417 63.379272,104.578903 63.939743C105.139374 64.500229,105.899521 64.815170,106.692215 64.815170C107.484909 64.815170,108.245056 64.500229,108.805527 63.939743C109.366013 63.379272,109.680954 62.619125,109.680954 61.826431Z" style="fill: rgb(100.000000%,100.000000%,100.000000%);stroke: none;"></path>
  <path d="M110.466187 71.081024C110.466187 70.288330,110.151245 69.528183,109.590759 68.967712C109.030289 68.407227,108.270142 68.092285,107.477448 68.092285C106.684753 68.092285,105.924606 68.407227,105.364136 68.967712C104.803650 69.528183,104.488708 70.288330,104.488708 71.081024C104.488708 71.873718,104.803650 72.633865,105.364136 73.194336C105.924606 73.754822,106.684753 74.069763,107.477448 74.069763C108.270142 74.069763,109.030289 73.754822,109.590759 73.194336C110.151245 72.633865,110.466187 71.873718,110.466187 71.081024Z" style="fill: rgb(100.000000%,100.000000%,100.000000%);stroke: none;"></path>
  <path d="M102.963928 54.141449C102.963928 53.348755,102.648987 52.588608,102.088501 52.028137C101.528030 51.467651,100.767883 51.152710,99.975189 51.152710C99.182495 51.152710,98.422348 51.467651,97.861877 52.028137C97.301392 52.588608,96.986450 53.348755,96.986450 54.141449C96.986450 54.934143,97.301392 55.694290,97.861877 56.254761C98.422348 56.815247,99.182495 57.130188,99.975189 57.130188C100.767883 57.130188,101.528030 56.815247,102.088501 56.254761C102.648987 55.694290,102.963928 54.934143,102.963928 54.141449Z" style="fill: rgb(100.000000%,100.000000%,100.000000%);stroke: none;"></path>
  <path d="M109.325562 57.831604C109.325562 57.038910,109.010620 56.278763,108.450134 55.718292C107.889664 55.157806,107.129517 54.842865,106.336823 54.842865C105.544128 54.842865,104.783981 55.157806,104.223511 55.718292C103.663025 56.278763,103.348083 57.038910,103.348083 57.831604C103.348083 58.624298,103.663025 59.384445,104.223511 59.944916C104.783981 60.505402,105.544128 60.820343,106.336823 60.820343C107.129517 60.820343,107.889664 60.505402,108.450134 59.944916C109.010620 59.384445,109.325562 58.624298,109.325562 57.831604Z" style="fill: rgb(100.000000%,100.000000%,100.000000%);stroke: none;"></path>
  <path d="M91.103470 59.473892C91.103470 58.681198,90.788528 57.921051,90.228043 57.360580C89.667572 56.800095,88.907425 56.485153,88.114731 56.485153C87.322037 56.485153,86.561890 56.800095,86.001419 57.360580C85.440933 57.921051,85.125992 58.681198,85.125992 59.473892C85.125992 60.266586,85.440933 61.026733,86.001419 61.587204C86.561890 62.147690,87.322037 62.462631,88.114731 62.462631C88.907425 62.462631,89.667572 62.147690,90.228043 61.587204C90.788528 61.026733,91.103470 60.266586,91.103470 59.473892Z" style="fill: rgb(100.000000%,100.000000%,100.000000%);stroke: none;"></path>
  <path d="M99.185928 56.090607C99.185928 55.297913,98.870987 54.537766,98.310501 53.977295C97.750031 53.416809,96.989883 53.101868,96.197189 53.101868C95.404495 53.101868,94.644348 53.416809,94.083878 53.977295C93.523392 54.537766,93.208450 55.297913,93.208450 56.090607C93.208450 56.883301,93.523392 57.643448,94.083878 58.203918C94.644348 58.764404,95.404495 59.079346,96.197189 59.079346C96.989883 59.079346,97.750031 58.764404,98.310501 58.203918C98.870987 57.643448,99.185928 56.883301,99.185928 56.090607Z" style="fill: rgb(100.000000%,100.000000%,100.000000%);stroke: none;"></path>
  <path d="M77.330704 64.826172C77.330704 64.033478,77.015762 63.273331,76.455276 62.712860C75.894806 62.152374,75.134659 61.837433,74.341965 61.837433C73.549271 61.837433,72.789124 62.152374,72.228653 62.712860C71.668167 63.273331,71.353226 64.033478,71.353226 64.826172C71.353226 65.618866,71.668167 66.379013,72.228653 66.939484C72.789124 67.499969,73.549271 67.814911,74.341965 67.814911C75.134659 67.814911,75.894806 67.499969,76.455276 66.939484C77.015762 66.379013,77.330704 65.618866,77.330704 64.826172Z" style="fill: rgb(100.000000%,100.000000%,100.000000%);stroke: none;"></path>
  <path d="M86.129089 60.328232C86.129089 59.535538,85.814148 58.775391,85.253662 58.214920C84.693192 57.654434,83.933044 57.339493,83.140350 57.339493C82.347656 57.339493,81.587509 57.654434,81.027039 58.214920C80.466553 58.775391,80.151611 59.535538,80.151611 60.328232C80.151611 61.120926,80.466553 61.881073,81.027039 62.441544C81.587509 63.002029,82.347656 63.316971,83.140350 63.316971C83.933044 63.316971,84.693192 63.002029,85.253662 62.441544C85.814148 61.881073,86.129089 61.120926,86.129089 60.328232Z" style="fill: rgb(100.000000%,100.000000%,100.000000%);stroke: none;"></path>
  <path d="M66.132599 72.815277C66.132599 72.022583,65.817657 71.262436,65.257172 70.701965C64.696701 70.141479,63.936554 69.826538,63.143860 69.826538C62.351166 69.826538,61.591019 70.141479,61.030548 70.701965C60.470062 71.262436,60.155121 72.022583,60.155121 72.815277C60.155121 73.607971,60.470062 74.368118,61.030548 74.928589C61.591019 75.489075,62.351166 75.804016,63.143860 75.804016C63.936554 75.804016,64.696701 75.489075,65.257172 74.928589C65.817657 74.368118,66.132599 73.607971,66.132599 72.815277Z" style="fill: rgb(100.000000%,100.000000%,100.000000%);stroke: none;"></path>
  <path d="M73.742676 68.323715C73.742676 67.531021,73.427734 66.770874,72.867249 66.210403C72.306778 65.649918,71.546631 65.334976,70.753937 65.334976C69.961243 65.334976,69.201096 65.649918,68.640625 66.210403C68.080139 66.770874,67.765198 67.531021,67.765198 68.323715C67.765198 69.116409,68.080139 69.876556,68.640625 70.437027C69.201096 70.997513,69.961243 71.312454,70.753937 71.312454C71.546631 71.312454,72.306778 70.997513,72.867249 70.437027C73.427734 69.876556,73.742676 69.116409,73.742676 68.323715Z" style="fill: rgb(100.000000%,100.000000%,100.000000%);stroke: none;"></path>
  <path d="M61.731583 82.664902C61.731583 81.872208,61.416641 81.112061,60.856155 80.551590C60.295685 79.991104,59.535538 79.676163,58.742844 79.676163C57.950150 79.676163,57.190002 79.991104,56.629532 80.551590C56.069046 81.112061,55.754105 81.872208,55.754105 82.664902C55.754105 83.457596,56.069046 84.217743,56.629532 84.778214C57.190002 85.338699,57.950150 85.653641,58.742844 85.653641C59.535538 85.653641,60.295685 85.338699,60.856155 84.778214C61.416641 84.217743,61.731583 83.457596,61.731583 82.664902Z" style="fill: rgb(100.000000%,100.000000%,100.000000%);stroke: none;"></path>
  <path d="M62.170853 74.762756C62.170853 73.970062,61.855911 73.209915,61.295425 72.649445C60.734955 72.088959,59.974808 71.774017,59.182114 71.774017C58.389420 71.774017,57.629272 72.088959,57.068802 72.649445C56.508316 73.209915,56.193375 73.970062,56.193375 74.762756C56.193375 75.555450,56.508316 76.315598,57.068802 76.876068C57.629272 77.436554,58.389420 77.751495,59.182114 77.751495C59.974808 77.751495,60.734955 77.436554,61.295425 76.876068C61.855911 76.315598,62.170853 75.555450,62.170853 74.762756Z" style="fill: rgb(100.000000%,100.000000%,100.000000%);stroke: none;"></path>
  <path d="M75.204529 90.771912C75.204529 89.979218,74.889587 89.219070,74.329102 88.658600C73.768631 88.098114,73.008484 87.783173,72.215790 87.783173C71.423096 87.783173,70.662949 88.098114,70.102478 88.658600C69.541992 89.219070,69.227051 89.979218,69.227051 90.771912C69.227051 91.564606,69.541992 92.324753,70.102478 92.885223C70.662949 93.445709,71.423096 93.760651,72.215790 93.760651C73.008484 93.760651,73.768631 93.445709,74.329102 92.885223C74.889587 92.324753,75.204529 91.564606,75.204529 90.771912Z" style="fill: rgb(100.000000%,100.000000%,100.000000%);stroke: none;"></path>
  <path d="M65.768234 85.054794C65.768234 84.262100,65.453293 83.501953,64.892807 82.941483C64.332336 82.380997,63.572189 82.066055,62.779495 82.066055C61.986801 82.066055,61.226654 82.380997,60.666183 82.941483C60.105698 83.501953,59.790756 84.262100,59.790756 85.054794C59.790756 85.847488,60.105698 86.607635,60.666183 87.168106C61.226654 87.728592,61.986801 88.043533,62.779495 88.043533C63.572189 88.043533,64.332336 87.728592,64.892807 87.168106C65.453293 86.607635,65.768234 85.847488,65.768234 85.054794Z" style="fill: rgb(100.000000%,100.000000%,100.000000%);stroke: none;"></path>
  <path d="M93.784454 101.826431C93.784454 101.033737,93.469513 100.273590,92.909027 99.713120C92.348557 99.152634,91.588409 98.837692,90.795715 98.837692C90.003021 98.837692,89.242874 99.152634,88.682404 99.713120C88.121918 100.273590,87.806976 101.033737,87.806976 101.826431C87.806976 102.619125,88.121918 103.379272,88.682404 103.939743C89.242874 104.500229,90.003021 104.815170,90.795715 104.815170C91.588409 104.815170,92.348557 104.500229,92.909027 103.939743C93.469513 103.379272,93.784454 102.619125,93.784454 101.826431Z" style="fill: rgb(100.000000%,100.000000%,100.000000%);stroke: none;"></path>
  <path d="M80.204056 95.697433C80.204056 94.904739,79.889114 94.144592,79.328629 93.584122C78.768158 93.023636,78.008011 92.708694,77.215317 92.708694C76.422623 92.708694,75.662476 93.023636,75.102005 93.584122C74.541519 94.144592,74.226578 94.904739,74.226578 95.697433C74.226578 96.490128,74.541519 97.250275,75.102005 97.810745C75.662476 98.371231,76.422623 98.686172,77.215317 98.686172C78.008011 98.686172,78.768158 98.371231,79.328629 97.810745C79.889114 97.250275,80.204056 96.490128,80.204056 95.697433Z" style="fill: rgb(100.000000%,100.000000%,100.000000%);stroke: none;"></path>
  <path d="M118.676010 102.060532C118.676010 101.267838,118.361069 100.507690,117.800583 99.947220C117.240112 99.386734,116.479965 99.071793,115.687271 99.071793C114.894577 99.071793,114.134430 99.386734,113.573959 99.947220C113.013474 100.507690,112.698532 101.267838,112.698532 102.060532C112.698532 102.853226,113.013474 103.613373,113.573959 104.173843C114.134430 104.734329,114.894577 105.049271,115.687271 105.049271C116.479965 105.049271,117.240112 104.734329,117.800583 104.173843C118.361069 103.613373,118.676010 102.853226,118.676010 102.060532Z" style="fill: rgb(100.000000%,100.000000%,100.000000%);stroke: none;"></path>
  <path d="M101.974472 101.944153C101.974472 101.151459,101.659531 100.391312,101.099045 99.830841C100.538574 99.270355,99.778427 98.955414,98.985733 98.955414C98.193039 98.955414,97.432892 99.270355,96.872421 99.830841C96.311935 100.391312,95.996994 101.151459,95.996994 101.944153C95.996994 102.736847,96.311935 103.496994,96.872421 104.057465C97.432892 104.617950,98.193039 104.932892,98.985733 104.932892C99.778427 104.932892,100.538574 104.617950,101.099045 104.057465C101.659531 103.496994,101.974472 102.736847,101.974472 101.944153Z" style="fill: rgb(100.000000%,100.000000%,100.000000%);stroke: none;"></path>
  <path d="M148.609528 104.494034C148.609528 103.701340,148.294586 102.941193,147.734100 102.380722C147.173630 101.820236,146.413483 101.505295,145.620789 101.505295C144.828094 101.505295,144.067947 101.820236,143.507477 102.380722C142.946991 102.941193,142.632050 103.701340,142.632050 104.494034C142.632050 105.286728,142.946991 106.046875,143.507477 106.607346C144.067947 107.167831,144.828094 107.482773,145.620789 107.482773C146.413483 107.482773,147.173630 107.167831,147.734100 106.607346C148.294586 106.046875,148.609528 105.286728,148.609528 104.494034Z" style="fill: rgb(100.000000%,100.000000%,100.000000%);stroke: none;"></path>
  <path d="M127.377014 102.099274C127.377014 101.306580,127.062073 100.546432,126.501587 99.985962C125.941116 99.425476,125.180969 99.110535,124.388275 99.110535C123.595581 99.110535,122.835434 99.425476,122.274963 99.985962C121.714478 100.546432,121.399536 101.306580,121.399536 102.099274C121.399536 102.891968,121.714478 103.652115,122.274963 104.212585C122.835434 104.773071,123.595581 105.088013,124.388275 105.088013C125.180969 105.088013,125.941116 104.773071,126.501587 104.212585C127.062073 103.652115,127.377014 102.891968,127.377014 102.099274Z" style="fill: rgb(100.000000%,100.000000%,100.000000%);stroke: none;"></path>
  <path d="M186.086700 97.211456C186.086700 96.418762,185.771759 95.658615,185.211273 95.098145C184.650803 94.537659,183.890656 94.222717,183.097961 94.222717C182.305267 94.222717,181.545120 94.537659,180.984650 95.098145C180.424164 95.658615,180.109222 96.418762,180.109222 97.211456C180.109222 98.004150,180.424164 98.764297,180.984650 99.324768C181.545120 99.885254,182.305267 100.200195,183.097961 100.200195C183.890656 100.200195,184.650803 99.885254,185.211273 99.324768C185.771759 98.764297,186.086700 98.004150,186.086700 97.211456Z" style="fill: rgb(100.000000%,100.000000%,100.000000%);stroke: none;"></path>
  <path d="M161.623123 107.770737C161.623123 106.978043,161.308182 106.217896,160.747696 105.657425C160.187225 105.096939,159.427078 104.781998,158.634384 104.781998C157.841690 104.781998,157.081543 105.096939,156.521072 105.657425C155.960587 106.217896,155.645645 106.978043,155.645645 107.770737C155.645645 108.563431,155.960587 109.323578,156.521072 109.884048C157.081543 110.444534,157.841690 110.759476,158.634384 110.759476C159.427078 110.759476,160.187225 110.444534,160.747696 109.884048C161.308182 109.323578,161.623123 108.563431,161.623123 107.770737Z" style="fill: rgb(100.000000%,100.000000%,100.000000%);stroke: none;"></path>
  <path d="M187.485031 56.257492C187.485031 55.464798,187.170090 54.704651,186.609604 54.144180C186.049133 53.583694,185.288986 53.268753,184.496292 53.268753C183.703598 53.268753,182.943451 53.583694,182.382980 54.144180C181.822495 54.704651,181.507553 55.464798,181.507553 56.257492C181.507553 57.050186,181.822495 57.810333,182.382980 58.370804C182.943451 58.931290,183.703598 59.246231,184.496292 59.246231C185.288986 59.246231,186.049133 58.931290,186.609604 58.370804C187.170090 57.810333,187.485031 57.050186,187.485031 56.257492Z" style="fill: rgb(100.000000%,100.000000%,100.000000%);stroke: none;"></path>
  <path d="M193.363800 83.568802C193.363800 82.776108,193.048859 82.015961,192.488373 81.455490C191.927902 80.895004,191.167755 80.580063,190.375061 80.580063C189.582367 80.580063,188.822220 80.895004,188.261749 81.455490C187.701263 82.015961,187.386322 82.776108,187.386322 83.568802C187.386322 84.361496,187.701263 85.121643,188.261749 85.682114C188.822220 86.242599,189.582367 86.557541,190.375061 86.557541C191.167755 86.557541,191.927902 86.242599,192.488373 85.682114C193.048859 85.121643,193.363800 84.361496,193.363800 83.568802Z" style="fill: rgb(100.000000%,100.000000%,100.000000%);stroke: none;"></path>
  <path d="M149.478806 47.821335C149.478806 47.028641,149.163864 46.268494,148.603378 45.708023C148.042908 45.147537,147.282761 44.832596,146.490067 44.832596C145.697372 44.832596,144.937225 45.147537,144.376755 45.708023C143.816269 46.268494,143.501328 47.028641,143.501328 47.821335C143.501328 48.614029,143.816269 49.374176,144.376755 49.934647C144.937225 50.495132,145.697372 50.810074,146.490067 50.810074C147.282761 50.810074,148.042908 50.495132,148.603378 49.934647C149.163864 49.374176,149.478806 48.614029,149.478806 47.821335Z" style="fill: rgb(100.000000%,100.000000%,100.000000%);stroke: none;"></path>
  <path d="M174.927231 46.749756C174.927231 45.957062,174.612289 45.196915,174.051804 44.636444C173.491333 44.075958,172.731186 43.761017,171.938492 43.761017C171.145798 43.761017,170.385651 44.075958,169.825180 44.636444C169.264694 45.196915,168.949753 45.957062,168.949753 46.749756C168.949753 47.542450,169.264694 48.302597,169.825180 48.863068C170.385651 49.423553,171.145798 49.738495,171.938492 49.738495C172.731186 49.738495,173.491333 49.423553,174.051804 48.863068C174.612289 48.302597,174.927231 47.542450,174.927231 46.749756Z" style="fill: rgb(100.000000%,100.000000%,100.000000%);stroke: none;"></path>
  <path d="M123.000107 61.461365C123.000107 60.668671,122.685165 59.908524,122.124680 59.348053C121.564209 58.787567,120.804062 58.472626,120.011368 58.472626C119.218674 58.472626,118.458527 58.787567,117.898056 59.348053C117.337570 59.908524,117.022629 60.668671,117.022629 61.461365C117.022629 62.254059,117.337570 63.014206,117.898056 63.574677C118.458527 64.135162,119.218674 64.450104,120.011368 64.450104C120.804062 64.450104,121.564209 64.135162,122.124680 63.574677C122.685165 63.014206,123.000107 62.254059,123.000107 61.461365Z" style="fill: rgb(100.000000%,100.000000%,100.000000%);stroke: none;"></path>
  <path d="M139.909332 54.992645C139.909332 54.199951,139.594391 53.439804,139.033905 52.879333C138.473434 52.318848,137.713287 52.003906,136.920593 52.003906C136.127899 52.003906,135.367752 52.318848,134.807281 52.879333C134.246796 53.439804,133.931854 54.199951,133.931854 54.992645C133.931854 55.785339,134.246796 56.545486,134.807281 57.105957C135.367752 57.666443,136.127899 57.981384,136.920593 57.981384C137.713287 57.981384,138.473434 57.666443,139.033905 57.105957C139.594391 56.545486,139.909332 55.785339,139.909332 54.992645Z" style="fill: rgb(100.000000%,100.000000%,100.000000%);stroke: none;"></path>
  <path d="M106.369720 67.021240C106.369720 66.228546,106.054779 65.468399,105.494293 64.907928C104.933823 64.347443,104.173676 64.032501,103.380981 64.032501C102.588287 64.032501,101.828140 64.347443,101.267670 64.907928C100.707184 65.468399,100.392242 66.228546,100.392242 67.021240C100.392242 67.813934,100.707184 68.574081,101.267670 69.134552C101.828140 69.695038,102.588287 70.009979,103.380981 70.009979C104.173676 70.009979,104.933823 69.695038,105.494293 69.134552C106.054779 68.574081,106.369720 67.813934,106.369720 67.021240Z" style="fill: rgb(100.000000%,100.000000%,100.000000%);stroke: none;"></path>
  <path d="M116.240677 62.746277C116.240677 61.953583,115.925735 61.193436,115.365250 60.632965C114.804779 60.072479,114.044632 59.757538,113.251938 59.757538C112.459244 59.757538,111.699097 60.072479,111.138626 60.632965C110.578140 61.193436,110.263199 61.953583,110.263199 62.746277C110.263199 63.538971,110.578140 64.299118,111.138626 64.859589C111.699097 65.420074,112.459244 65.735016,113.251938 65.735016C114.044632 65.735016,114.804779 65.420074,115.365250 64.859589C115.925735 64.299118,116.240677 63.538971,116.240677 62.746277Z" style="fill: rgb(100.000000%,100.000000%,100.000000%);stroke: none;"></path>
  <path d="M96.265167 64.842941C96.265167 64.050247,95.950226 63.290100,95.389740 62.729630C94.829269 62.169144,94.069122 61.854202,93.276428 61.854202C92.483734 61.854202,91.723587 62.169144,91.163116 62.729630C90.602631 63.290100,90.287689 64.050247,90.287689 64.842941C90.287689 65.635635,90.602631 66.395782,91.163116 66.956253C91.723587 67.516739,92.483734 67.831680,93.276428 67.831680C94.069122 67.831680,94.829269 67.516739,95.389740 66.956253C95.950226 66.395782,96.265167 65.635635,96.265167 64.842941Z" style="fill: rgb(100.000000%,100.000000%,100.000000%);stroke: none;"></path>
  <path d="M102.385010 68.869415C102.385010 68.076721,102.070068 67.316574,101.509583 66.756104C100.949112 66.195618,100.188965 65.880676,99.396271 65.880676C98.603577 65.880676,97.843430 66.195618,97.282959 66.756104C96.722473 67.316574,96.407532 68.076721,96.407532 68.869415C96.407532 69.662109,96.722473 70.422256,97.282959 70.982727C97.843430 71.543213,98.603577 71.858154,99.396271 71.858154C100.188965 71.858154,100.949112 71.543213,101.509583 70.982727C102.070068 70.422256,102.385010 69.662109,102.385010 68.869415Z" style="fill: rgb(100.000000%,100.000000%,100.000000%);stroke: none;"></path>
  <path d="M95.072586 51.825302C95.072586 51.032608,94.757645 50.272461,94.197159 49.711990C93.636688 49.151505,92.876541 48.836563,92.083847 48.836563C91.291153 48.836563,90.531006 49.151505,89.970535 49.711990C89.410049 50.272461,89.095108 51.032608,89.095108 51.825302C89.095108 52.617996,89.410049 53.378143,89.970535 53.938614C90.531006 54.499100,91.291153 54.814041,92.083847 54.814041C92.876541 54.814041,93.636688 54.499100,94.197159 53.938614C94.757645 53.378143,95.072586 52.617996,95.072586 51.825302Z" style="fill: rgb(100.000000%,100.000000%,100.000000%);stroke: none;"></path>
  <path d="M96.038498 61.019653C96.038498 60.226959,95.723557 59.466812,95.163071 58.906342C94.602600 58.345856,93.842453 58.030914,93.049759 58.030914C92.257065 58.030914,91.496918 58.345856,90.936447 58.906342C90.375961 59.466812,90.061020 60.226959,90.061020 61.019653C90.061020 61.812347,90.375961 62.572495,90.936447 63.132965C91.496918 63.693451,92.257065 64.008392,93.049759 64.008392C93.842453 64.008392,94.602600 63.693451,95.163071 63.132965C95.723557 62.572495,96.038498 61.812347,96.038498 61.019653Z" style="fill: rgb(100.000000%,100.000000%,100.000000%);stroke: none;"></path>
  <path d="M90.382019 31.174316C90.382019 30.381622,90.067078 29.621475,89.506592 29.061005C88.946121 28.500519,88.185974 28.185577,87.393280 28.185577C86.600586 28.185577,85.840439 28.500519,85.279968 29.061005C84.719482 29.621475,84.404541 30.381622,84.404541 31.174316C84.404541 31.967010,84.719482 32.727158,85.279968 33.287628C85.840439 33.848114,86.600586 34.163055,87.393280 34.163055C88.185974 34.163055,88.946121 33.848114,89.506592 33.287628C90.067078 32.727158,90.382019 31.967010,90.382019 31.174316Z" style="fill: rgb(100.000000%,100.000000%,100.000000%);stroke: none;"></path>
  <path d="M93.340363 46.287827C93.340363 45.495132,93.025421 44.734985,92.464935 44.174515C91.904465 43.614029,91.144318 43.299088,90.351624 43.299088C89.558929 43.299088,88.798782 43.614029,88.238312 44.174515C87.677826 44.734985,87.362885 45.495132,87.362885 46.287827C87.362885 47.080521,87.677826 47.840668,88.238312 48.401138C88.798782 48.961624,89.558929 49.276566,90.351624 49.276566C91.144318 49.276566,91.904465 48.961624,92.464935 48.401138C93.025421 47.840668,93.340363 47.080521,93.340363 46.287827Z" style="fill: rgb(100.000000%,100.000000%,100.000000%);stroke: none;"></path>
  <path d="M75.882965 3.705765C75.882965 2.913071,75.568024 2.152924,75.007538 1.592453C74.447067 1.031967,73.686920 0.717026,72.894226 0.717026C72.101532 0.717026,71.341385 1.031967,70.780914 1.592453C70.220428 2.152924,69.905487 2.913071,69.905487 3.705765C69.905487 4.498459,70.220428 5.258606,70.780914 5.819077C71.341385 6.379562,72.101532 6.694504,72.894226 6.694504C73.686920 6.694504,74.447067 6.379562,75.007538 5.819077C75.568024 5.258606,75.882965 4.498459,75.882965 3.705765Z" style="fill: rgb(100.000000%,100.000000%,100.000000%);stroke: none;"></path>
  <path d="M90.056168 20.961807C90.056168 20.169113,89.741226 19.408966,89.180740 18.848495C88.620270 18.288010,87.860123 17.973068,87.067429 17.973068C86.274734 17.973068,85.514587 18.288010,84.954117 18.848495C84.393631 19.408966,84.078690 20.169113,84.078690 20.961807C84.078690 21.754501,84.393631 22.514648,84.954117 23.075119C85.514587 23.635605,86.274734 23.950546,87.067429 23.950546C87.860123 23.950546,88.620270 23.635605,89.180740 23.075119C89.741226 22.514648,90.056168 21.754501,90.056168 20.961807Z" style="fill: rgb(100.000000%,100.000000%,100.000000%);stroke: none;"></path>
  <path d="M39.483871 13.481689C39.483871 12.688995,39.168930 11.928848,38.608444 11.368378C38.047974 10.807892,37.287827 10.492950,36.495132 10.492950C35.702438 10.492950,34.942291 10.807892,34.381821 11.368378C33.821335 11.928848,33.506393 12.688995,33.506393 13.481689C33.506393 14.274384,33.821335 15.034531,34.381821 15.595001C34.942291 16.155487,35.702438 16.470428,36.495132 16.470428C37.287827 16.470428,38.047974 16.155487,38.608444 15.595001C39.168930 15.034531,39.483871 14.274384,39.483871 13.481689Z" style="fill: rgb(100.000000%,100.000000%,100.000000%);stroke: none;"></path>
  <path d="M61.777573 2.144638C61.777573 1.351944,61.462631 0.591797,60.902145 0.031326C60.341675 -0.529160,59.581528 -0.844101,58.788834 -0.844101C57.996140 -0.844101,57.235992 -0.529160,56.675522 0.031326C56.115036 0.591797,55.800095 1.351944,55.800095 2.144638C55.800095 2.937332,56.115036 3.697479,56.675522 4.257950C57.235992 4.818436,57.996140 5.133377,58.788834 5.133377C59.581528 5.133377,60.341675 4.818436,60.902145 4.257950C61.462631 3.697479,61.777573 2.937332,61.777573 2.144638Z" style="fill: rgb(100.000000%,100.000000%,100.000000%);stroke: none;"></path>
  <path d="M38.322449 46.196335C38.322449 45.403641,38.007507 44.643494,37.447021 44.083023C36.886551 43.522537,36.126404 43.207596,35.333710 43.207596C34.541016 43.207596,33.780869 43.522537,33.220398 44.083023C32.659912 44.643494,32.344971 45.403641,32.344971 46.196335C32.344971 46.989029,32.659912 47.749176,33.220398 48.309647C33.780869 48.870132,34.541016 49.185074,35.333710 49.185074C36.126404 49.185074,36.886551 48.870132,37.447021 48.309647C38.007507 47.749176,38.322449 46.989029,38.322449 46.196335Z" style="fill: rgb(100.000000%,100.000000%,100.000000%);stroke: none;"></path>
  <path d="M32.599289 24.893051C32.599289 24.100357,32.284348 23.340210,31.723862 22.779739C31.163391 22.219254,30.403244 21.904312,29.610550 21.904312C28.817856 21.904312,28.057709 22.219254,27.497238 22.779739C26.936752 23.340210,26.621811 24.100357,26.621811 24.893051C26.621811 25.685745,26.936752 26.445892,27.497238 27.006363C28.057709 27.566849,28.817856 27.881790,29.610550 27.881790C30.403244 27.881790,31.163391 27.566849,31.723862 27.006363C32.284348 26.445892,32.599289 25.685745,32.599289 24.893051Z" style="fill: rgb(100.000000%,100.000000%,100.000000%);stroke: none;"></path>
  <path d="M60.105133 62.701828C60.105133 61.909134,59.790192 61.148987,59.229706 60.588516C58.669235 60.028030,57.909088 59.713089,57.116394 59.713089C56.323700 59.713089,55.563553 60.028030,55.003082 60.588516C54.442596 61.148987,54.127655 61.909134,54.127655 62.701828C54.127655 63.494522,54.442596 64.254669,55.003082 64.815140C55.563553 65.375626,56.323700 65.690567,57.116394 65.690567C57.909088 65.690567,58.669235 65.375626,59.229706 64.815140C59.790192 64.254669,60.105133 63.494522,60.105133 62.701828Z" style="fill: rgb(100.000000%,100.000000%,100.000000%);stroke: none;"></path>
  <path d="M47.759033 51.877716C47.759033 51.085022,47.444092 50.324875,46.883606 49.764404C46.323135 49.203918,45.562988 48.888977,44.770294 48.888977C43.977600 48.888977,43.217453 49.203918,42.656982 49.764404C42.096497 50.324875,41.781555 51.085022,41.781555 51.877716C41.781555 52.670410,42.096497 53.430557,42.656982 53.991028C43.217453 54.551514,43.977600 54.866455,44.770294 54.866455C45.562988 54.866455,46.323135 54.551514,46.883606 53.991028C47.444092 53.430557,47.759033 52.670410,47.759033 51.877716Z" style="fill: rgb(100.000000%,100.000000%,100.000000%);stroke: none;"></path>
  <path d="M72.720001 72.896164C72.720001 72.103470,72.405060 71.343323,71.844574 70.782852C71.284103 70.222366,70.523956 69.907425,69.731262 69.907425C68.938568 69.907425,68.178421 70.222366,67.617950 70.782852C67.057465 71.343323,66.742523 72.103470,66.742523 72.896164C66.742523 73.688858,67.057465 74.449005,67.617950 75.009476C68.178421 75.569962,68.938568 75.884903,69.731262 75.884903C70.523956 75.884903,71.284103 75.569962,71.844574 75.009476C72.405060 74.449005,72.720001 73.688858,72.720001 72.896164Z" style="fill: rgb(100.000000%,100.000000%,100.000000%);stroke: none;"></path>
  <path d="M64.266602 67.441299C64.266602 66.648605,63.951660 65.888458,63.391174 65.327988C62.830704 64.767502,62.070557 64.452560,61.277863 64.452560C60.485168 64.452560,59.725021 64.767502,59.164551 65.327988C58.604065 65.888458,58.289124 66.648605,58.289124 67.441299C58.289124 68.233994,58.604065 68.994141,59.164551 69.554611C59.725021 70.115097,60.485168 70.430038,61.277863 70.430038C62.070557 70.430038,62.830704 70.115097,63.391174 69.554611C63.951660 68.994141,64.266602 68.233994,64.266602 67.441299Z" style="fill: rgb(100.000000%,100.000000%,100.000000%);stroke: none;"></path>
  <path d="M76.725632 82.722366C76.725632 81.929672,76.410690 81.169525,75.850204 80.609055C75.289734 80.048569,74.529587 79.733627,73.736893 79.733627C72.944199 79.733627,72.184052 80.048569,71.623581 80.609055C71.063095 81.169525,70.748154 81.929672,70.748154 82.722366C70.748154 83.515060,71.063095 84.275208,71.623581 84.835678C72.184052 85.396164,72.944199 85.711105,73.736893 85.711105C74.529587 85.711105,75.289734 85.396164,75.850204 84.835678C76.410690 84.275208,76.725632 83.515060,76.725632 82.722366Z" style="fill: rgb(100.000000%,100.000000%,100.000000%);stroke: none;"></path>
  <path d="M76.461472 74.978683C76.461472 74.185989,76.146530 73.425842,75.586044 72.865372C75.025574 72.304886,74.265427 71.989944,73.472733 71.989944C72.680038 71.989944,71.919891 72.304886,71.359421 72.865372C70.798935 73.425842,70.483994 74.185989,70.483994 74.978683C70.483994 75.771378,70.798935 76.531525,71.359421 77.091995C71.919891 77.652481,72.680038 77.967422,73.472733 77.967422C74.265427 77.967422,75.025574 77.652481,75.586044 77.091995C76.146530 76.531525,76.461472 75.771378,76.461472 74.978683Z" style="fill: rgb(100.000000%,100.000000%,100.000000%);stroke: none;"></path>
  <path d="M62.737518 91.330093C62.737518 90.537399,62.422577 89.777252,61.862091 89.216782C61.301620 88.656296,60.541473 88.341354,59.748779 88.341354C58.956085 88.341354,58.195938 88.656296,57.635468 89.216782C57.074982 89.777252,56.760040 90.537399,56.760040 91.330093C56.760040 92.122787,57.074982 92.882935,57.635468 93.443405C58.195938 94.003891,58.956085 94.318832,59.748779 94.318832C60.541473 94.318832,61.301620 94.003891,61.862091 93.443405C62.422577 92.882935,62.737518 92.122787,62.737518 91.330093Z" style="fill: rgb(100.000000%,100.000000%,100.000000%);stroke: none;"></path>
  <path d="M72.800308 85.063156C72.800308 84.270462,72.485367 83.510315,71.924881 82.949844C71.364410 82.389359,70.604263 82.074417,69.811569 82.074417C69.018875 82.074417,68.258728 82.389359,67.698257 82.949844C67.137772 83.510315,66.822830 84.270462,66.822830 85.063156C66.822830 85.855850,67.137772 86.615997,67.698257 87.176468C68.258728 87.736954,69.018875 88.051895,69.811569 88.051895C70.604263 88.051895,71.364410 87.736954,71.924881 87.176468C72.485367 86.615997,72.800308 85.855850,72.800308 85.063156Z" style="fill: rgb(100.000000%,100.000000%,100.000000%);stroke: none;"></path>
  <path d="M39.422485 106.788834C39.422485 105.996140,39.107544 105.235992,38.547058 104.675522C37.986588 104.115036,37.226440 103.800095,36.433746 103.800095C35.641052 103.800095,34.880905 104.115036,34.320435 104.675522C33.759949 105.235992,33.445007 105.996140,33.445007 106.788834C33.445007 107.581528,33.759949 108.341675,34.320435 108.902145C34.880905 109.462631,35.641052 109.777573,36.433746 109.777573C37.226440 109.777573,37.986588 109.462631,38.547058 108.902145C39.107544 108.341675,39.422485 107.581528,39.422485 106.788834Z" style="fill: rgb(100.000000%,100.000000%,100.000000%);stroke: none;"></path>
  <path d="M57.334641 97.175003C57.334641 96.382309,57.019699 95.622162,56.459213 95.061691C55.898743 94.501205,55.138596 94.186264,54.345901 94.186264C53.553207 94.186264,52.793060 94.501205,52.232590 95.061691C51.672104 95.622162,51.357162 96.382309,51.357162 97.175003C51.357162 97.967697,51.672104 98.727844,52.232590 99.288315C52.793060 99.848801,53.553207 100.163742,54.345901 100.163742C55.138596 100.163742,55.898743 99.848801,56.459213 99.288315C57.019699 98.727844,57.334641 97.967697,57.334641 97.175003Z" style="fill: rgb(100.000000%,100.000000%,100.000000%);stroke: none;"></path>
  <path d="M6.705124 124.365936C6.705124 123.573242,6.390182 122.813095,5.829697 122.252625C5.269226 121.692139,4.509079 121.377197,3.716385 121.377197C2.923691 121.377197,2.163544 121.692139,1.603073 122.252625C1.042587 122.813095,0.727646 123.573242,0.727646 124.365936C0.727646 125.158630,1.042587 125.918777,1.603073 126.479248C2.163544 127.039734,2.923691 127.354675,3.716385 127.354675C4.509079 127.354675,5.269226 127.039734,5.829697 126.479248C6.390182 125.918777,6.705124 125.158630,6.705124 124.365936Z" style="fill: rgb(100.000000%,100.000000%,100.000000%);stroke: none;"></path>
  <path d="M25.457108 106.700577C25.457108 105.907883,25.142166 105.147736,24.581680 104.587265C24.021210 104.026779,23.261063 103.711838,22.468369 103.711838C21.675674 103.711838,20.915527 104.026779,20.355057 104.587265C19.794571 105.147736,19.479630 105.907883,19.479630 106.700577C19.479630 107.493271,19.794571 108.253418,20.355057 108.813889C20.915527 109.374374,21.675674 109.689316,22.468369 109.689316C23.261063 109.689316,24.021210 109.374374,24.581680 108.813889C25.142166 108.253418,25.457108 107.493271,25.457108 106.700577Z" style="fill: rgb(100.000000%,100.000000%,100.000000%);stroke: none;"></path>
  <path d="M18.596298 162.640182C18.596298 161.847488,18.281357 161.087341,17.720871 160.526871C17.160400 159.966385,16.400253 159.651443,15.607559 159.651443C14.814865 159.651443,14.054718 159.966385,13.494247 160.526871C12.933762 161.087341,12.618820 161.847488,12.618820 162.640182C12.618820 163.432877,12.933762 164.193024,13.494247 164.753494C14.054718 165.313980,14.814865 165.628922,15.607559 165.628922C16.400253 165.628922,17.160400 165.313980,17.720871 164.753494C18.281357 164.193024,18.596298 163.432877,18.596298 162.640182Z" style="fill: rgb(100.000000%,100.000000%,100.000000%);stroke: none;"></path>
  <path d="M5.518372 138.890228C5.518372 138.097534,5.203430 137.337387,4.642944 136.776917C4.082474 136.216431,3.322327 135.901489,2.529633 135.901489C1.736938 135.901489,0.976791 136.216431,0.416321 136.776917C-0.144165 137.337387,-0.459106 138.097534,-0.459106 138.890228C-0.459106 139.682922,-0.144165 140.443069,0.416321 141.003540C0.976791 141.564026,1.736938 141.878967,2.529633 141.878967C3.322327 141.878967,4.082474 141.564026,4.642944 141.003540C5.203430 140.443069,5.518372 139.682922,5.518372 138.890228Z" style="fill: rgb(100.000000%,100.000000%,100.000000%);stroke: none;"></path>
  <path d="M56.362747 162.112946C56.362747 161.320251,56.047806 160.560104,55.487320 159.999634C54.926849 159.439148,54.166702 159.124207,53.374008 159.124207C52.581314 159.124207,51.821167 159.439148,51.260696 159.999634C50.700211 160.560104,50.385269 161.320251,50.385269 162.112946C50.385269 162.905640,50.700211 163.665787,51.260696 164.226257C51.821167 164.786743,52.581314 165.101685,53.374008 165.101685C54.166702 165.101685,54.926849 164.786743,55.487320 164.226257C56.047806 163.665787,56.362747 162.905640,56.362747 162.112946Z" style="fill: rgb(100.000000%,100.000000%,100.000000%);stroke: none;"></path>
  <path d="M32.282898 169.431076C32.282898 168.638382,31.967957 167.878235,31.407471 167.317764C30.847000 166.757278,30.086853 166.442337,29.294159 166.442337C28.501465 166.442337,27.741318 166.757278,27.180847 167.317764C26.620361 167.878235,26.305420 168.638382,26.305420 169.431076C26.305420 170.223770,26.620361 170.983917,27.180847 171.544388C27.741318 172.104874,28.501465 172.419815,29.294159 172.419815C30.086853 172.419815,30.847000 172.104874,31.407471 171.544388C31.967957 170.983917,32.282898 170.223770,32.282898 169.431076Z" style="fill: rgb(100.000000%,100.000000%,100.000000%);stroke: none;"></path>
  <path d="M88.728012 149.865311C88.728012 149.072617,88.413071 148.312469,87.852585 147.751999C87.292114 147.191513,86.531967 146.876572,85.739273 146.876572C84.946579 146.876572,84.186432 147.191513,83.625961 147.751999C83.065475 148.312469,82.750534 149.072617,82.750534 149.865311C82.750534 150.658005,83.065475 151.418152,83.625961 151.978622C84.186432 152.539108,84.946579 152.854050,85.739273 152.854050C86.531967 152.854050,87.292114 152.539108,87.852585 151.978622C88.413071 151.418152,88.728012 150.658005,88.728012 149.865311Z" style="fill: rgb(100.000000%,100.000000%,100.000000%);stroke: none;"></path>
  <path d="M64.191910 151.017242C64.191910 150.224548,63.876968 149.464401,63.316483 148.903931C62.756012 148.343445,61.995865 148.028503,61.203171 148.028503C60.410477 148.028503,59.650330 148.343445,59.089859 148.903931C58.529373 149.464401,58.214432 150.224548,58.214432 151.017242C58.214432 151.809937,58.529373 152.570084,59.089859 153.130554C59.650330 153.691040,60.410477 154.005981,61.203171 154.005981C61.995865 154.005981,62.756012 153.691040,63.316483 153.130554C63.876968 152.570084,64.191910 151.809937,64.191910 151.017242Z" style="fill: rgb(100.000000%,100.000000%,100.000000%);stroke: none;"></path>
  <path d="M126.941452 169.880005C126.941452 169.087311,126.626511 168.327164,126.066025 167.766693C125.505554 167.206207,124.745407 166.891266,123.952713 166.891266C123.160019 166.891266,122.399872 167.206207,121.839401 167.766693C121.278915 168.327164,120.963974 169.087311,120.963974 169.880005C120.963974 170.672699,121.278915 171.432846,121.839401 171.993317C122.399872 172.553802,123.160019 172.868744,123.952713 172.868744C124.745407 172.868744,125.505554 172.553802,126.066025 171.993317C126.626511 171.432846,126.941452 170.672699,126.941452 169.880005Z" style="fill: rgb(100.000000%,100.000000%,100.000000%);stroke: none;"></path>
  <path d="M97.702545 161.992676C97.702545 161.199982,97.387604 160.439835,96.827118 159.879364C96.266647 159.318878,95.506500 159.003937,94.713806 159.003937C93.921112 159.003937,93.160965 159.318878,92.600494 159.879364C92.040009 160.439835,91.725067 161.199982,91.725067 161.992676C91.725067 162.785370,92.040009 163.545517,92.600494 164.105988C93.160965 164.666473,93.921112 164.981415,94.713806 164.981415C95.506500 164.981415,96.266647 164.666473,96.827118 164.105988C97.387604 163.545517,97.702545 162.785370,97.702545 161.992676Z" style="fill: rgb(100.000000%,100.000000%,100.000000%);stroke: none;"></path>
  <path d="M168.150986 133.021545C168.150986 132.228851,167.836044 131.468704,167.275558 130.908234C166.715088 130.347748,165.954941 130.032806,165.162247 130.032806C164.369553 130.032806,163.609406 130.347748,163.048935 130.908234C162.488449 131.468704,162.173508 132.228851,162.173508 133.021545C162.173508 133.814240,162.488449 134.574387,163.048935 135.134857C163.609406 135.695343,164.369553 136.010284,165.162247 136.010284C165.954941 136.010284,166.715088 135.695343,167.275558 135.134857C167.836044 134.574387,168.150986 133.814240,168.150986 133.021545Z" style="fill: rgb(100.000000%,100.000000%,100.000000%);stroke: none;"></path>
  <path d="M142.398193 157.511642C142.398193 156.718948,142.083252 155.958801,141.522766 155.398331C140.962296 154.837845,140.202148 154.522903,139.409454 154.522903C138.616760 154.522903,137.856613 154.837845,137.296143 155.398331C136.735657 155.958801,136.420715 156.718948,136.420715 157.511642C136.420715 158.304337,136.735657 159.064484,137.296143 159.624954C137.856613 160.185440,138.616760 160.500381,139.409454 160.500381C140.202148 160.500381,140.962296 160.185440,141.522766 159.624954C142.083252 159.064484,142.398193 158.304337,142.398193 157.511642Z" style="fill: rgb(100.000000%,100.000000%,100.000000%);stroke: none;"></path>
  <path d="M168.893433 92.814423C168.893433 92.021729,168.578491 91.261581,168.018005 90.701111C167.457535 90.140625,166.697388 89.825684,165.904694 89.825684C165.112000 89.825684,164.351852 90.140625,163.791382 90.701111C163.230896 91.261581,162.915955 92.021729,162.915955 92.814423C162.915955 93.607117,163.230896 94.367264,163.791382 94.927734C164.351852 95.488220,165.112000 95.803162,165.904694 95.803162C166.697388 95.803162,167.457535 95.488220,168.018005 94.927734C168.578491 94.367264,168.893433 93.607117,168.893433 92.814423Z" style="fill: rgb(100.000000%,100.000000%,100.000000%);stroke: none;"></path>
  <path d="M180.072784 117.840607C180.072784 117.047913,179.757843 116.287766,179.197357 115.727295C178.636887 115.166809,177.876740 114.851868,177.084045 114.851868C176.291351 114.851868,175.531204 115.166809,174.970734 115.727295C174.410248 116.287766,174.095306 117.047913,174.095306 117.840607C174.095306 118.633301,174.410248 119.393448,174.970734 119.953918C175.531204 120.514404,176.291351 120.829346,177.084045 120.829346C177.876740 120.829346,178.636887 120.514404,179.197357 119.953918C179.757843 119.393448,180.072784 118.633301,180.072784 117.840607Z" style="fill: rgb(100.000000%,100.000000%,100.000000%);stroke: none;"></path>
  <path d="M152.712479 66.640045C152.712479 65.847351,152.397537 65.087204,151.837051 64.526733C151.276581 63.966248,150.516434 63.651306,149.723740 63.651306C148.931046 63.651306,148.170898 63.966248,147.610428 64.526733C147.049942 65.087204,146.735001 65.847351,146.735001 66.640045C146.735001 67.432739,147.049942 68.192886,147.610428 68.753357C148.170898 69.313843,148.931046 69.628784,149.723740 69.628784C150.516434 69.628784,151.276581 69.313843,151.837051 68.753357C152.397537 68.192886,152.712479 67.432739,152.712479 66.640045Z" style="fill: rgb(100.000000%,100.000000%,100.000000%);stroke: none;"></path>
  <path d="M156.666046 87.726395C156.666046 86.933701,156.351105 86.173553,155.790619 85.613083C155.230148 85.052597,154.470001 84.737656,153.677307 84.737656C152.884613 84.737656,152.124466 85.052597,151.563995 85.613083C151.003510 86.173553,150.688568 86.933701,150.688568 87.726395C150.688568 88.519089,151.003510 89.279236,151.563995 89.839706C152.124466 90.400192,152.884613 90.715134,153.677307 90.715134C154.470001 90.715134,155.230148 90.400192,155.790619 89.839706C156.351105 89.279236,156.666046 88.519089,156.666046 87.726395Z" style="fill: rgb(100.000000%,100.000000%,100.000000%);stroke: none;"></path>
  <path d="M160.299316 31.501129C160.299316 30.708435,159.984375 29.948288,159.423889 29.387817C158.863419 28.827332,158.103271 28.512390,157.310577 28.512390C156.517883 28.512390,155.757736 28.827332,155.197266 29.387817C154.636780 29.948288,154.321838 30.708435,154.321838 31.501129C154.321838 32.293823,154.636780 33.053970,155.197266 33.614441C155.757736 34.174927,156.517883 34.489868,157.310577 34.489868C158.103271 34.489868,158.863419 34.174927,159.423889 33.614441C159.984375 33.053970,160.299316 32.293823,160.299316 31.501129Z" style="fill: rgb(100.000000%,100.000000%,100.000000%);stroke: none;"></path>
  <path d="M161.174316 57.593201C161.174316 56.800507,160.859375 56.040359,160.298889 55.479889C159.738419 54.919403,158.978271 54.604462,158.185577 54.604462C157.392883 54.604462,156.632736 54.919403,156.072266 55.479889C155.511780 56.040359,155.196838 56.800507,155.196838 57.593201C155.196838 58.385895,155.511780 59.146042,156.072266 59.706512C156.632736 60.266998,157.392883 60.581940,158.185577 60.581940C158.978271 60.581940,159.738419 60.266998,160.298889 59.706512C160.859375 59.146042,161.174316 58.385895,161.174316 57.593201Z" style="fill: rgb(100.000000%,100.000000%,100.000000%);stroke: none;"></path>
  <path d="M113.121124 11.694016C113.121124 10.901321,112.806183 10.141174,112.245697 9.580704C111.685226 9.020218,110.925079 8.705276,110.132385 8.705276C109.339691 8.705276,108.579544 9.020218,108.019073 9.580704C107.458588 10.141174,107.143646 10.901321,107.143646 11.694016C107.143646 12.486710,107.458588 13.246857,108.019073 13.807327C108.579544 14.367813,109.339691 14.682755,110.132385 14.682755C110.925079 14.682755,111.685226 14.367813,112.245697 13.807327C112.806183 13.246857,113.121124 12.486710,113.121124 11.694016Z" style="fill: rgb(100.000000%,100.000000%,100.000000%);stroke: none;"></path>
  <path d="M143.194321 24.269363C143.194321 23.476669,142.879379 22.716522,142.318893 22.156052C141.758423 21.595566,140.998276 21.280624,140.205582 21.280624C139.412888 21.280624,138.652740 21.595566,138.092270 22.156052C137.531784 22.716522,137.216843 23.476669,137.216843 24.269363C137.216843 25.062057,137.531784 25.822205,138.092270 26.382675C138.652740 26.943161,139.412888 27.258102,140.205582 27.258102C140.998276 27.258102,141.758423 26.943161,142.318893 26.382675C142.879379 25.822205,143.194321 25.062057,143.194321 24.269363Z" style="fill: rgb(100.000000%,100.000000%,100.000000%);stroke: none;"></path>
  <path d="M76.299911 19.004257C76.299911 18.211563,75.984970 17.451416,75.424484 16.890945C74.864014 16.330460,74.103867 16.015518,73.311172 16.015518C72.518478 16.015518,71.758331 16.330460,71.197861 16.890945C70.637375 17.451416,70.322433 18.211563,70.322433 19.004257C70.322433 19.796951,70.637375 20.557098,71.197861 21.117569C71.758331 21.678055,72.518478 21.992996,73.311172 21.992996C74.103867 21.992996,74.864014 21.678055,75.424484 21.117569C75.984970 20.557098,76.299911 19.796951,76.299911 19.004257Z" style="fill: rgb(100.000000%,100.000000%,100.000000%);stroke: none;"></path>
  <path d="M96.675201 4.190536C96.675201 3.397842,96.360260 2.637695,95.799774 2.077225C95.239304 1.516739,94.479156 1.201797,93.686462 1.201797C92.893768 1.201797,92.133621 1.516739,91.573151 2.077225C91.012665 2.637695,90.697723 3.397842,90.697723 4.190536C90.697723 4.983231,91.012665 5.743378,91.573151 6.303848C92.133621 6.864334,92.893768 7.179276,93.686462 7.179276C94.479156 7.179276,95.239304 6.864334,95.799774 6.303848C96.360260 5.743378,96.675201 4.983231,96.675201 4.190536Z" style="fill: rgb(100.000000%,100.000000%,100.000000%);stroke: none;"></path>
  <path d="M55.846268 38.157669C55.846268 37.364975,55.531326 36.604828,54.970840 36.044357C54.410370 35.483871,53.650223 35.168930,52.857529 35.168930C52.064835 35.168930,51.304688 35.483871,50.744217 36.044357C50.183731 36.604828,49.868790 37.364975,49.868790 38.157669C49.868790 38.950363,50.183731 39.710510,50.744217 40.270981C51.304688 40.831467,52.064835 41.146408,52.857529 41.146408C53.650223 41.146408,54.410370 40.831467,54.970840 40.270981C55.531326 39.710510,55.846268 38.950363,55.846268 38.157669Z" style="fill: rgb(100.000000%,100.000000%,100.000000%);stroke: none;"></path>
  <path d="M73.365936 29.488586C73.365936 28.695892,73.050995 27.935745,72.490509 27.375275C71.930038 26.814789,71.169891 26.499847,70.377197 26.499847C69.584503 26.499847,68.824356 26.814789,68.263885 27.375275C67.703400 27.935745,67.388458 28.695892,67.388458 29.488586C67.388458 30.281281,67.703400 31.041428,68.263885 31.601898C68.824356 32.162384,69.584503 32.477325,70.377197 32.477325C71.169891 32.477325,71.930038 32.162384,72.490509 31.601898C73.050995 31.041428,73.365936 30.281281,73.365936 29.488586Z" style="fill: rgb(100.000000%,100.000000%,100.000000%);stroke: none;"></path>
  <path d="M21.279541 40.653442C21.279541 39.860748,20.964600 39.100601,20.404114 38.540131C19.843643 37.979645,19.083496 37.664703,18.290802 37.664703C17.498108 37.664703,16.737961 37.979645,16.177490 38.540131C15.617004 39.100601,15.302063 39.860748,15.302063 40.653442C15.302063 41.446136,15.617004 42.206284,16.177490 42.766754C16.737961 43.327240,17.498108 43.642181,18.290802 43.642181C19.083496 43.642181,19.843643 43.327240,20.404114 42.766754C20.964600 42.206284,21.279541 41.446136,21.279541 40.653442Z" style="fill: rgb(100.000000%,100.000000%,100.000000%);stroke: none;"></path>
  <path d="M45.170242 33.418808C45.170242 32.626114,44.855301 31.865967,44.294815 31.305496C43.734344 30.745010,42.974197 30.430069,42.181503 30.430069C41.388809 30.430069,40.628662 30.745010,40.068192 31.305496C39.507706 31.865967,39.192764 32.626114,39.192764 33.418808C39.192764 34.211502,39.507706 34.971649,40.068192 35.532120C40.628662 36.092606,41.388809 36.407547,42.181503 36.407547C42.974197 36.407547,43.734344 36.092606,44.294815 35.532120C44.855301 34.971649,45.170242 34.211502,45.170242 33.418808Z" style="fill: rgb(100.000000%,100.000000%,100.000000%);stroke: none;"></path>
  <path d="M9.403030 87.477951C9.403030 86.685257,9.088089 85.925110,8.527603 85.364639C7.967133 84.804153,7.206985 84.489212,6.414291 84.489212C5.621597 84.489212,4.861450 84.804153,4.300980 85.364639C3.740494 85.925110,3.425552 86.685257,3.425552 87.477951C3.425552 88.270645,3.740494 89.030792,4.300980 89.591263C4.861450 90.151749,5.621597 90.466690,6.414291 90.466690C7.206985 90.466690,7.967133 90.151749,8.527603 89.591263C9.088089 89.030792,9.403030 88.270645,9.403030 87.477951Z" style="fill: rgb(100.000000%,100.000000%,100.000000%);stroke: none;"></path>
  <path d="M17.058044 57.223969C17.058044 56.431274,16.743103 55.671127,16.182617 55.110657C15.622147 54.550171,14.862000 54.235229,14.069305 54.235229C13.276611 54.235229,12.516464 54.550171,11.955994 55.110657C11.395508 55.671127,11.080566 56.431274,11.080566 57.223969C11.080566 58.016663,11.395508 58.776810,11.955994 59.337280C12.516464 59.897766,13.276611 60.212708,14.069305 60.212708C14.862000 60.212708,15.622147 59.897766,16.182617 59.337280C16.743103 58.776810,17.058044 58.016663,17.058044 57.223969Z" style="fill: rgb(100.000000%,100.000000%,100.000000%);stroke: none;"></path>
  <path d="M24.707550 123.629242C24.707550 122.836548,24.392609 122.076401,23.832123 121.515930C23.271652 120.955444,22.511505 120.640503,21.718811 120.640503C20.926117 120.640503,20.165970 120.955444,19.605499 121.515930C19.045013 122.076401,18.730072 122.836548,18.730072 123.629242C18.730072 124.421936,19.045013 125.182083,19.605499 125.742554C20.165970 126.303040,20.926117 126.617981,21.718811 126.617981C22.511505 126.617981,23.271652 126.303040,23.832123 125.742554C24.392609 125.182083,24.707550 124.421936,24.707550 123.629242Z" style="fill: rgb(100.000000%,100.000000%,100.000000%);stroke: none;"></path>
  <path d="M5.149109 104.616959C5.149109 103.824265,4.834167 103.064117,4.273682 102.503647C3.713211 101.943161,2.953064 101.628220,2.160370 101.628220C1.367676 101.628220,0.607529 101.943161,0.047058 102.503647C-0.513428 103.064117,-0.828369 103.824265,-0.828369 104.616959C-0.828369 105.409653,-0.513428 106.169800,0.047058 106.730270C0.607529 107.290756,1.367676 107.605698,2.160370 107.605698C2.953064 107.605698,3.713211 107.290756,4.273682 106.730270C4.834167 106.169800,5.149109 105.409653,5.149109 104.616959Z" style="fill: rgb(100.000000%,100.000000%,100.000000%);stroke: none;"></path>
  <path d="M50.244888 143.940659C50.244888 143.147964,49.929947 142.387817,49.369461 141.827347C48.808990 141.266861,48.048843 140.951920,47.256149 140.951920C46.463455 140.951920,45.703308 141.266861,45.142838 141.827347C44.582352 142.387817,44.267410 143.147964,44.267410 143.940659C44.267410 144.733353,44.582352 145.493500,45.142838 146.053970C45.703308 146.614456,46.463455 146.929398,47.256149 146.929398C48.048843 146.929398,48.808990 146.614456,49.369461 146.053970C49.929947 145.493500,50.244888 144.733353,50.244888 143.940659Z" style="fill: rgb(100.000000%,100.000000%,100.000000%);stroke: none;"></path>
  <path d="M39.781311 123.358444C39.781311 122.565750,39.466370 121.805603,38.905884 121.245132C38.345413 120.684647,37.585266 120.369705,36.792572 120.369705C35.999878 120.369705,35.239731 120.684647,34.679260 121.245132C34.118774 121.805603,33.803833 122.565750,33.803833 123.358444C33.803833 124.151138,34.118774 124.911285,34.679260 125.471756C35.239731 126.032242,35.999878 126.347183,36.792572 126.347183C37.585266 126.347183,38.345413 126.032242,38.905884 125.471756C39.466370 124.911285,39.781311 124.151138,39.781311 123.358444Z" style="fill: rgb(100.000000%,100.000000%,100.000000%);stroke: none;"></path>
  <path d="M47.792053 178.888596C47.792053 178.095901,47.477112 177.335754,46.916626 176.775284C46.356155 176.214798,45.596008 175.899857,44.803314 175.899857C44.010620 175.899857,43.250473 176.214798,42.690002 176.775284C42.129517 177.335754,41.814575 178.095901,41.814575 178.888596C41.814575 179.681290,42.129517 180.441437,42.690002 181.001907C43.250473 181.562393,44.010620 181.877335,44.803314 181.877335C45.596008 181.877335,46.356155 181.562393,46.916626 181.001907C47.477112 180.441437,47.792053 179.681290,47.792053 178.888596Z" style="fill: rgb(100.000000%,100.000000%,100.000000%);stroke: none;"></path>
  <path d="M43.398819 155.029572C43.398819 154.236877,43.083878 153.476730,42.523392 152.916260C41.962921 152.355774,41.202774 152.040833,40.410080 152.040833C39.617386 152.040833,38.857239 152.355774,38.296768 152.916260C37.736282 153.476730,37.421341 154.236877,37.421341 155.029572C37.421341 155.822266,37.736282 156.582413,38.296768 157.142883C38.857239 157.703369,39.617386 158.018311,40.410080 158.018311C41.202774 158.018311,41.962921 157.703369,42.523392 157.142883C43.083878 156.582413,43.398819 155.822266,43.398819 155.029572Z" style="fill: rgb(100.000000%,100.000000%,100.000000%);stroke: none;"></path>
  <path d="M91.167419 186.875748C91.167419 186.083054,90.852478 185.322906,90.291992 184.762436C89.731522 184.201950,88.971375 183.887009,88.178680 183.887009C87.385986 183.887009,86.625839 184.201950,86.065369 184.762436C85.504883 185.322906,85.189941 186.083054,85.189941 186.875748C85.189941 187.668442,85.504883 188.428589,86.065369 188.989059C86.625839 189.549545,87.385986 189.864487,88.178680 189.864487C88.971375 189.864487,89.731522 189.549545,90.291992 188.989059C90.852478 188.428589,91.167419 187.668442,91.167419 186.875748Z" style="fill: rgb(100.000000%,100.000000%,100.000000%);stroke: none;"></path>
  <path d="M61.612625 186.179764C61.612625 185.387070,61.297684 184.626923,60.737198 184.066452C60.176727 183.505966,59.416580 183.191025,58.623886 183.191025C57.831192 183.191025,57.071045 183.505966,56.510574 184.066452C55.950089 184.626923,55.635147 185.387070,55.635147 186.179764C55.635147 186.972458,55.950089 187.732605,56.510574 188.293076C57.071045 188.853561,57.831192 189.168503,58.623886 189.168503C59.416580 189.168503,60.176727 188.853561,60.737198 188.293076C61.297684 187.732605,61.612625 186.972458,61.612625 186.179764Z" style="fill: rgb(100.000000%,100.000000%,100.000000%);stroke: none;"></path>
  <path d="M112.989578 152.868973C112.989578 152.076279,112.674637 151.316132,112.114151 150.755661C111.553680 150.195175,110.793533 149.880234,110.000839 149.880234C109.208145 149.880234,108.447998 150.195175,107.887527 150.755661C107.327042 151.316132,107.012100 152.076279,107.012100 152.868973C107.012100 153.661667,107.327042 154.421814,107.887527 154.982285C108.447998 155.542770,109.208145 155.857712,110.000839 155.857712C110.793533 155.857712,111.553680 155.542770,112.114151 154.982285C112.674637 154.421814,112.989578 153.661667,112.989578 152.868973Z" style="fill: rgb(100.000000%,100.000000%,100.000000%);stroke: none;"></path>
  <path d="M106.201950 179.534348C106.201950 178.741653,105.887009 177.981506,105.326523 177.421036C104.766052 176.860550,104.005905 176.545609,103.213211 176.545609C102.420517 176.545609,101.660370 176.860550,101.099899 177.421036C100.539413 177.981506,100.224472 178.741653,100.224472 179.534348C100.224472 180.327042,100.539413 181.087189,101.099899 181.647659C101.660370 182.208145,102.420517 182.523087,103.213211 182.523087C104.005905 182.523087,104.766052 182.208145,105.326523 181.647659C105.887009 181.087189,106.201950 180.327042,106.201950 179.534348Z" style="fill: rgb(100.000000%,100.000000%,100.000000%);stroke: none;"></path>
  <path d="M103.514130 127.937073C104.521164 119.271271,105.683304 110.624191,107.000000 102.000000C107.998367 95.460800,109.087479 88.899826,108.849625 82.284286C108.646652 76.638962,107.477448 71.081024,107.000000 65.453903C106.692215 61.826431,106.336823 57.831604,103.234390 56.031998C99.975189 54.141449,96.197189 56.090607,92.686325 57.560242C88.114731 59.473892,83.140350 60.328232,78.723740 62.586105C74.341965 64.826172,70.753937 68.323715,66.518921 70.823273C63.143860 72.815277,59.182114 74.762756,58.967972 78.614914C58.742844 82.664902,62.779495 85.054794,66.350754 87.218491C72.215790 90.771912,77.215317 95.697433,83.475433 98.522705C90.795715 101.826431,98.985733 101.944153,107.000000 102.000000C115.687271 102.060532,124.388275 102.099274,133.022949 103.073151C145.620789 104.494034,158.634384 107.770737,170.330582 102.722275C183.097961 97.211456,190.375061 83.568802,187.458054 70.017105C184.496292 56.257492,171.938492 46.749756,157.841843 47.343338C146.490067 47.821335,136.920593 54.992645,126.372406 59.027908C120.011368 61.461365,113.251938 62.746277,107.000000 65.453903C103.380981 67.021240,99.396271 68.869415,96.159241 66.739655C93.276428 64.842941,93.049759 61.019653,92.686325 57.560242C92.083847 51.825302,90.351624 46.287827,89.244507 40.631821C87.393280 31.174316,87.067429 20.961807,80.917465 13.474152C72.894226 3.705765,58.788834 2.144638,47.297348 7.988419C36.495132 13.481689,29.610550 24.893051,32.674438 36.297760C35.333710 46.196335,44.770294 51.877716,52.431808 58.594742C57.116394 62.701828,61.277863 67.441299,66.518921 70.823273C69.731262 72.896164,73.472733 74.978683,73.601242 78.745819C73.736893 82.722366,69.811569 85.063156,66.350754 87.218491C59.748779 91.330093,54.345901 97.175003,47.487030 100.856308C36.433746 106.788834,22.468369 106.700577,13.243652 115.390747C3.716385 124.365936,2.529633 138.890228,8.930710 150.514801C15.607559 162.640182,29.294159 169.431076,42.332260 165.468658C53.374008 162.112946,61.203171 151.017242,72.915024 150.467392C85.739273 149.865311,94.713806 161.992676,106.845383 165.265228C123.952713 169.880005,139.409454 157.511642,152.523880 145.040237C165.162247 133.021545,177.084045 117.840607,170.330582 102.722275C165.904694 92.814423,153.677307 87.726395,151.637817 76.848770C149.723740 66.640045,158.185577 57.593201,157.841843 47.343338C157.310577 31.501129,140.205582 24.269363,125.011932 17.916016C110.132385 11.694016,93.686462 4.190536,80.917465 13.474152C73.311172 19.004257,70.377197 29.488586,61.861877 33.702133C52.857529 38.157669,42.181503 33.418808,32.674438 36.297760C18.290802 40.653442,14.069305 57.223969,10.299942 72.121170C6.414291 87.477951,2.160370 104.616959,13.243652 115.390747C21.718811 123.629242,36.792572 123.358444,42.329666 134.250092C47.256149 143.940659,40.410080 155.029572,42.332260 165.468658C44.803314 178.888596,58.623886 186.179764,72.892105 186.515762C88.178680 186.875748,103.213211 179.534348,106.845383 165.265228C110.000839 152.868973,102.049667 140.539185,103.514130 127.937073" style="stroke:rgb(0.000000%,0.000000%,0.000000%); stroke-width: 0.498138;stroke-linecap: round;stroke-linejoin: round;stroke-miterlimit: 10.000000;fill: none;"></path>
  <path d="M103.514130 127.937073C104.521164 119.271271,105.683304 110.624191,107.000000 102.000000" style="stroke:rgb(0.000000%,0.000000%,0.000000%); stroke-width: 1.494400;stroke-linecap: round;stroke-linejoin: round;stroke-miterlimit: 10.000000;fill: none;"></path>
  <path d="M42.332260 165.468658C44.803314 178.888596,58.623886 186.179764,72.892105 186.515762C88.178680 186.875748,103.213211 179.534348,106.845383 165.265228C110.000839 152.868973,102.049667 140.539185,103.514130 127.937073" style="stroke:rgb(0.000000%,0.000000%,0.000000%); stroke-width: 1.494400;stroke-linecap: round;stroke-linejoin: round;stroke-miterlimit: 10.000000;fill: none;"></path>
  <path d="M109.988739 102.000000C109.988739 101.207306,109.673798 100.447159,109.113312 99.886688C108.552841 99.326202,107.792694 99.011261,107.000000 99.011261C106.207306 99.011261,105.447159 99.326202,104.886688 99.886688C104.326202 100.447159,104.011261 101.207306,104.011261 102.000000C104.011261 102.792694,104.326202 103.552841,104.886688 104.113312C105.447159 104.673798,106.207306 104.988739,107.000000 104.988739C107.792694 104.988739,108.552841 104.673798,109.113312 104.113312C109.673798 103.552841,109.988739 102.792694,109.988739 102.000000Z" style="fill: rgb(100.000000%,100.000000%,100.000000%);stroke: none;"></path>
  <path d="M94.977478 101.479324C98.941803 101.928696,102.992874 101.972076,107.000000 102.000000C111.343643 102.030273,115.690720 102.055099,120.031219 102.194092" style="stroke:rgb(0.000000%,0.000000%,0.000000%); stroke-width: 0.498138;stroke-linecap: round;stroke-linejoin: round;stroke-miterlimit: 10.000000;fill: none;"></path>
  <path d="M95.675064 57.560242C95.675064 56.767548,95.360123 56.007401,94.799637 55.446930C94.239166 54.886444,93.479019 54.571503,92.686325 54.571503C91.893631 54.571503,91.133484 54.886444,90.573013 55.446930C90.012527 56.007401,89.697586 56.767548,89.697586 57.560242C89.697586 58.352936,90.012527 59.113083,90.573013 59.673553C91.133484 60.234039,91.893631 60.548981,92.686325 60.548981C93.479019 60.548981,94.239166 60.234039,94.799637 59.673553C95.360123 59.113083,95.675064 58.352936,95.675064 57.560242Z" style="fill: rgb(100.000000%,100.000000%,100.000000%);stroke: none;"></path>
  <path d="M93.478012 62.735947C93.015564 61.110611,92.868042 59.289948,92.686325 57.560242C92.385086 54.692764,91.801407 51.874664,91.154648 49.066422" style="stroke:rgb(0.000000%,0.000000%,0.000000%); stroke-width: 0.498138;stroke-linecap: round;stroke-linejoin: round;stroke-miterlimit: 10.000000;fill: none;"></path>
  <path d="M69.339493 87.218491C69.339493 86.425797,69.024551 85.665649,68.464066 85.105179C67.903595 84.544693,67.143448 84.229752,66.350754 84.229752C65.558060 84.229752,64.797913 84.544693,64.237442 85.105179C63.676956 85.665649,63.362015 86.425797,63.362015 87.218491C63.362015 88.011185,63.676956 88.771332,64.237442 89.331802C64.797913 89.892288,65.558060 90.207230,66.350754 90.207230C67.143448 90.207230,67.903595 89.892288,68.464066 89.331802C69.024551 88.771332,69.339493 88.011185,69.339493 87.218491Z" style="fill: rgb(100.000000%,100.000000%,100.000000%);stroke: none;"></path>
  <path d="M71.324661 83.665115C69.927689 85.016800,68.081161 86.140823,66.350754 87.218491C63.049759 89.274292,60.048538 91.763428,57.015213 94.198776" style="stroke:rgb(0.000000%,0.000000%,0.000000%); stroke-width: 0.498138;stroke-linecap: round;stroke-linejoin: round;stroke-miterlimit: 10.000000;fill: none;"></path>
  <path d="M173.319321 102.722275C173.319321 101.929581,173.004379 101.169434,172.443893 100.608963C171.883423 100.048477,171.123276 99.733536,170.330582 99.733536C169.537888 99.733536,168.777740 100.048477,168.217270 100.608963C167.656784 101.169434,167.341843 101.929581,167.341843 102.722275C167.341843 103.514969,167.656784 104.275116,168.217270 104.835587C168.777740 105.396072,169.537888 105.711014,170.330582 105.711014C171.123276 105.711014,171.883423 105.396072,172.443893 104.835587C173.004379 104.275116,173.319321 103.514969,173.319321 102.722275Z" style="fill: rgb(100.000000%,100.000000%,100.000000%);stroke: none;"></path>
  <path d="M152.014893 105.323715C158.305038 105.689438,164.482483 105.246506,170.330582 102.722275C176.714279 99.966858,181.725403 95.178482,184.775970 89.385010" style="stroke:rgb(0.000000%,0.000000%,0.000000%); stroke-width: 0.498138;stroke-linecap: round;stroke-linejoin: round;stroke-miterlimit: 10.000000;fill: none;"></path>
  <path d="M109.988739 65.453903C109.988739 64.661209,109.673798 63.901062,109.113312 63.340591C108.552841 62.780106,107.792694 62.465164,107.000000 62.465164C106.207306 62.465164,105.447159 62.780106,104.886688 63.340591C104.326202 63.901062,104.011261 64.661209,104.011261 65.453903C104.011261 66.246597,104.326202 67.006744,104.886688 67.567215C105.447159 68.127701,106.207306 68.442642,107.000000 68.442642C107.792694 68.442642,108.552841 68.127701,109.113312 67.567215C109.673798 67.006744,109.988739 66.246597,109.988739 65.453903Z" style="fill: rgb(100.000000%,100.000000%,100.000000%);stroke: none;"></path>
  <path d="M108.027725 73.862259C107.650375 71.063721,107.238724 68.267456,107.000000 65.453903C106.846100 63.640167,106.680298 61.734589,106.165176 60.057495" style="stroke:rgb(0.000000%,0.000000%,0.000000%); stroke-width: 0.498138;stroke-linecap: round;stroke-linejoin: round;stroke-miterlimit: 10.000000;fill: none;"></path>
  <path d="M83.906204 13.474152C83.906204 12.681458,83.591263 11.921310,83.030777 11.360840C82.470306 10.800354,81.710159 10.485413,80.917465 10.485413C80.124771 10.485413,79.364624 10.800354,78.804153 11.360840C78.243668 11.921310,77.928726 12.681458,77.928726 13.474152C77.928726 14.266846,78.243668 15.026993,78.804153 15.587463C79.364624 16.147949,80.124771 16.462891,80.917465 16.462891C81.710159 16.462891,82.470306 16.147949,83.030777 15.587463C83.591263 15.026993,83.906204 14.266846,83.906204 13.474152Z" style="fill: rgb(100.000000%,100.000000%,100.000000%);stroke: none;"></path>
  <path d="M86.692993 26.314270C85.611389 21.643005,83.992447 17.217972,80.917465 13.474152C76.905838 8.589951,71.373672 5.757568,65.407990 4.876709" style="stroke:rgb(0.000000%,0.000000%,0.000000%); stroke-width: 0.498138;stroke-linecap: round;stroke-linejoin: round;stroke-miterlimit: 10.000000;fill: none;"></path>
  <path d="M69.507660 70.823273C69.507660 70.030579,69.192719 69.270432,68.632233 68.709961C68.071762 68.149475,67.311615 67.834534,66.518921 67.834534C65.726227 67.834534,64.966080 68.149475,64.405609 68.709961C63.845123 69.270432,63.530182 70.030579,63.530182 70.823273C63.530182 71.615967,63.845123 72.376114,64.405609 72.936584C64.966080 73.497070,65.726227 73.812012,66.518921 73.812012C67.311615 73.812012,68.071762 73.497070,68.632233 72.936584C69.192719 72.376114,69.507660 71.615967,69.507660 70.823273Z" style="fill: rgb(100.000000%,100.000000%,100.000000%);stroke: none;"></path>
  <path d="M72.566284 66.607391C70.592178 68.074234,68.636429 69.573502,66.518921 70.823273C64.831390 71.819275,62.997177 72.804153,61.558090 74.021545" style="stroke:rgb(0.000000%,0.000000%,0.000000%); stroke-width: 0.498138;stroke-linecap: round;stroke-linejoin: round;stroke-miterlimit: 10.000000;fill: none;"></path>
  <path d="M16.232391 115.390747C16.232391 114.598053,15.917450 113.837906,15.356964 113.277435C14.796494 112.716949,14.036346 112.402008,13.243652 112.402008C12.450958 112.402008,11.690811 112.716949,11.130341 113.277435C10.569855 113.837906,10.254913 114.598053,10.254913 115.390747C10.254913 116.183441,10.569855 116.943588,11.130341 117.504059C11.690811 118.064545,12.450958 118.379486,13.243652 118.379486C14.036346 118.379486,14.796494 118.064545,15.356964 117.504059C15.917450 116.943588,16.232391 116.183441,16.232391 115.390747Z" style="fill: rgb(100.000000%,100.000000%,100.000000%);stroke: none;"></path>
  <path d="M6.158447 95.474594C5.994675 103.025665,7.702011 110.003860,13.243652 115.390747C17.481232 119.509995,23.368469 121.501923,28.888443 123.825500" style="stroke:rgb(0.000000%,0.000000%,0.000000%); stroke-width: 0.498138;stroke-linecap: round;stroke-linejoin: round;stroke-miterlimit: 10.000000;fill: none;"></path>
  <path d="M109.834122 165.265228C109.834122 164.472534,109.519180 163.712387,108.958694 163.151917C108.398224 162.591431,107.638077 162.276489,106.845383 162.276489C106.052689 162.276489,105.292542 162.591431,104.732071 163.151917C104.171585 163.712387,103.856644 164.472534,103.856644 165.265228C103.856644 166.057922,104.171585 166.818069,104.732071 167.378540C105.292542 167.939026,106.052689 168.253967,106.845383 168.253967C107.638077 168.253967,108.398224 167.939026,108.958694 167.378540C109.519180 166.818069,109.834122 166.057922,109.834122 165.265228Z" style="fill: rgb(100.000000%,100.000000%,100.000000%);stroke: none;"></path>
  <path d="M94.239151 181.376404C100.362625 177.802414,105.029297 172.399780,106.845383 165.265228C108.423111 159.067093,107.224182 152.885574,105.813873 146.678329" style="stroke:rgb(0.000000%,0.000000%,0.000000%); stroke-width: 1.494400;stroke-linecap: round;stroke-linejoin: round;stroke-miterlimit: 10.000000;fill: none;"></path>
  <path d="M160.830582 47.343338C160.830582 46.550644,160.515640 45.790497,159.955154 45.230026C159.394684 44.669540,158.634537 44.354599,157.841843 44.354599C157.049149 44.354599,156.289001 44.669540,155.728531 45.230026C155.168045 45.790497,154.853104 46.550644,154.853104 47.343338C154.853104 48.136032,155.168045 48.896179,155.728531 49.456650C156.289001 50.017136,157.049149 50.332077,157.841843 50.332077C158.634537 50.332077,159.394684 50.017136,159.955154 49.456650C160.515640 48.896179,160.830582 48.136032,160.830582 47.343338Z" style="fill: rgb(100.000000%,100.000000%,100.000000%);stroke: none;"></path>
  <path d="M154.150955 62.111465C155.984192 57.292435,158.013702 52.468262,157.841843 47.343338C157.576202 39.422226,153.167130 33.653732,146.925262 29.071335" style="stroke:rgb(0.000000%,0.000000%,0.000000%); stroke-width: 0.498138;stroke-linecap: round;stroke-linejoin: round;stroke-miterlimit: 10.000000;fill: none;"></path>
  <path d="M35.663177 36.297760C35.663177 35.505066,35.348236 34.744919,34.787750 34.184448C34.227280 33.623962,33.467133 33.309021,32.674438 33.309021C31.881744 33.309021,31.121597 33.623962,30.561127 34.184448C30.000641 34.744919,29.685699 35.505066,29.685699 36.297760C29.685699 37.090454,30.000641 37.850601,30.561127 38.411072C31.121597 38.971558,31.881744 39.286499,32.674438 39.286499C33.467133 39.286499,34.227280 38.971558,34.787750 38.411072C35.348236 37.850601,35.663177 37.090454,35.663177 36.297760Z" style="fill: rgb(100.000000%,100.000000%,100.000000%);stroke: none;"></path>
  <path d="M47.456665 35.591156C42.473740 35.323257,37.427963 34.858292,32.674438 36.297760C25.482620 38.475601,20.831329 43.707153,17.506821 50.256409" style="stroke:rgb(0.000000%,0.000000%,0.000000%); stroke-width: 0.498138;stroke-linecap: round;stroke-linejoin: round;stroke-miterlimit: 10.000000;fill: none;"></path>
  <path d="M45.320999 165.468658C45.320999 164.675964,45.006058 163.915817,44.445572 163.355347C43.885101 162.794861,43.124954 162.479919,42.332260 162.479919C41.539566 162.479919,40.779419 162.794861,40.218948 163.355347C39.658463 163.915817,39.343521 164.675964,39.343521 165.468658C39.343521 166.261353,39.658463 167.021500,40.218948 167.581970C40.779419 168.142456,41.539566 168.457397,42.332260 168.457397C43.124954 168.457397,43.885101 168.142456,44.445572 167.581970C45.006058 167.021500,45.320999 166.261353,45.320999 165.468658Z" style="fill: rgb(100.000000%,100.000000%,100.000000%);stroke: none;"></path>
  <path d="M23.246033 164.024658C29.132050 166.742752,35.813217 167.449860,42.332260 165.468658C47.853134 163.790802,52.570862 160.177948,57.372360 156.915817" style="stroke:rgb(0.000000%,0.000000%,0.000000%); stroke-width: 0.498138;stroke-linecap: round;stroke-linejoin: round;stroke-miterlimit: 10.000000;fill: none;"></path>
  <path d="M103.514130 127.937073C104.319763 121.004410,105.224655 114.083710,106.228546 107.177139" style="stroke:rgb(0.000000%,0.000000%,0.000000%); stroke-width: 0.498138;stroke-linecap: round;stroke-linejoin: round;stroke-miterlimit: 10.000000;fill: none;"></path>
  <path d="M107.474243 112.019623C107.053497 110.406891,106.638260 108.792725,106.228546 107.177139C105.375839 108.609222,104.528046 110.044220,103.685181 111.482086Z" style="stroke:rgb(0.000000%,0.000000%,0.000000%); stroke-width: 0.498138;fill: rgb(0.000000%,0.000000%,0.000000%);"></path>
  <path d="M103.514130 127.937073C104.319763 121.004410,105.224655 114.083710,106.228546 107.177139" style="stroke:rgb(0.000000%,0.000000%,0.000000%); stroke-width: 0.498138;stroke-linecap: round;stroke-linejoin: round;stroke-miterlimit: 10.000000;fill: none;"></path>
  <path d="M106.971939 110.083466L106.228546 107.177139L104.699081 109.757874Z" style="stroke:rgb(0.000000%,0.000000%,0.000000%); stroke-width: 0.498138;fill: rgb(0.000000%,0.000000%,0.000000%);"></path>
  <path d="M103.234390 56.031998C100.627014 54.519547,97.687607 55.464539,94.818573 56.655487" style="stroke:rgb(0.000000%,0.000000%,0.000000%); stroke-width: 0.498138;stroke-linecap: round;stroke-linejoin: round;stroke-miterlimit: 10.000000;fill: none;"></path>
  <path d="M97.040207 54.639450C96.271545 55.238739,95.536545 55.936401,94.818573 56.655487C95.834732 56.654724,96.847778 56.681152,97.815048 56.800919Z" style="stroke:rgb(0.000000%,0.000000%,0.000000%); stroke-width: 0.498138;fill: rgb(0.000000%,0.000000%,0.000000%);"></path>
  <path d="M58.967972 78.614914C58.787872 81.854919,61.335327 84.032455,64.190018 85.881683" style="stroke:rgb(0.000000%,0.000000%,0.000000%); stroke-width: 0.498138;stroke-linecap: round;stroke-linejoin: round;stroke-miterlimit: 10.000000;fill: none;"></path>
  <path d="M61.275513 85.170517C62.197617 85.474304,63.186691 85.696930,64.190018 85.881683C63.611221 85.041565,63.069260 84.184753,62.632080 83.317917Z" style="stroke:rgb(0.000000%,0.000000%,0.000000%); stroke-width: 0.498138;fill: rgb(0.000000%,0.000000%,0.000000%);"></path>
  <path d="M187.458054 70.017105C185.088638 59.009369,176.577698 50.722870,166.050598 48.152527" style="stroke:rgb(0.000000%,0.000000%,0.000000%); stroke-width: 0.498138;stroke-linecap: round;stroke-linejoin: round;stroke-miterlimit: 10.000000;fill: none;"></path>
  <path d="M169.035156 47.847549C168.040131 47.897766,167.043976 47.999115,166.050598 48.152527C166.861481 48.746490,167.637543 49.379242,168.376617 50.047318Z" style="stroke:rgb(0.000000%,0.000000%,0.000000%); stroke-width: 0.498138;fill: rgb(0.000000%,0.000000%,0.000000%);"></path>
  <path d="M89.244507 40.631821C87.763519 33.065796,87.258774 25.016541,83.967300 18.265808" style="stroke:rgb(0.000000%,0.000000%,0.000000%); stroke-width: 0.498138;stroke-linecap: round;stroke-linejoin: round;stroke-miterlimit: 10.000000;fill: none;"></path>
  <path d="M86.109329 20.366409C85.427734 19.630920,84.715912 18.928284,83.967300 18.265808C84.028198 19.263611,84.034668 20.263763,83.996536 21.265793Z" style="stroke:rgb(0.000000%,0.000000%,0.000000%); stroke-width: 0.498138;fill: rgb(0.000000%,0.000000%,0.000000%);"></path>
  <path d="M73.601242 78.745819C73.709763 81.927063,71.219238 84.061417,68.446747 85.891449" style="stroke:rgb(0.000000%,0.000000%,0.000000%); stroke-width: 0.498138;stroke-linecap: round;stroke-linejoin: round;stroke-miterlimit: 10.000000;fill: none;"></path>
  <path d="M69.983582 83.314911C69.553528 84.186203,69.017883 85.046982,68.446747 85.891449C69.447723 85.698196,70.435150 85.468307,71.355347 85.156311Z" style="stroke:rgb(0.000000%,0.000000%,0.000000%); stroke-width: 0.498138;fill: rgb(0.000000%,0.000000%,0.000000%);"></path>
  <path d="M8.930710 150.514801C14.272217 160.215149,24.099991 166.501389,34.492981 166.599060" style="stroke:rgb(0.000000%,0.000000%,0.000000%); stroke-width: 0.498138;stroke-linecap: round;stroke-linejoin: round;stroke-miterlimit: 10.000000;fill: none;"></path>
  <path d="M31.651062 167.560654C32.612793 167.294891,33.561508 166.974670,34.492981 166.599060C33.568741 166.205994,32.671478 165.761566,31.803528 165.269424Z" style="stroke:rgb(0.000000%,0.000000%,0.000000%); stroke-width: 0.498138;fill: rgb(0.000000%,0.000000%,0.000000%);"></path>
  <path d="M151.637817 76.848770C150.106552 68.681763,155.215927 61.258362,157.144882 53.367722" style="stroke:rgb(0.000000%,0.000000%,0.000000%); stroke-width: 0.498138;stroke-linecap: round;stroke-linejoin: round;stroke-miterlimit: 10.000000;fill: none;"></path>
  <path d="M157.476929 56.349258C157.401352 55.346863,157.296509 54.351395,157.144882 53.367722C156.556519 54.170486,155.926743 54.948517,155.271362 55.710739Z" style="stroke:rgb(0.000000%,0.000000%,0.000000%); stroke-width: 0.498138;fill: rgb(0.000000%,0.000000%,0.000000%);"></path>
  <path d="M42.329666 134.250092C46.270874 142.002579,42.677582 150.650009,42.066818 159.143723" style="stroke:rgb(0.000000%,0.000000%,0.000000%); stroke-width: 0.498138;stroke-linecap: round;stroke-linejoin: round;stroke-miterlimit: 10.000000;fill: none;"></path>
  <path d="M41.220566 156.265579C41.475708 157.237167,41.752838 158.199219,42.066818 159.143723C42.512695 158.253845,42.997009 157.377640,43.503616 156.510208Z" style="stroke:rgb(0.000000%,0.000000%,0.000000%); stroke-width: 0.498138;fill: rgb(0.000000%,0.000000%,0.000000%);"></path>
  <path d="M69.901459 189.225967L75.882751 189.225967L75.882751 181.805573L69.901459 181.805573Z" style="fill: rgb(100.000000%,100.000000%,100.000000%);stroke: none;"></path>
  <path d="M69.901459 191.225967L75.882751 191.225967L75.882751 183.805573L69.901459 183.805573Z" style="fill: rgb(100.000000%,100.000000%,100.000000%);stroke: none;"></path>
  <g transform="translate(70.401459 189.725967)" style="fill: rgb(0.000000%,0.000000%,0.000000%);">
    <use xlink:href="#GLYPHcmr10_49"></use>
  </g>
  <path d="M105.858978 84.994492L111.840271 84.994492L111.840271 77.574097L105.858978 77.574097Z" style="fill: rgb(100.000000%,100.000000%,100.000000%);stroke: none;"></path>
  <path d="M105.858978 86.994492L111.840271 86.994492L111.840271 79.574097L105.858978 79.574097Z" style="fill: rgb(100.000000%,100.000000%,100.000000%);stroke: none;"></path>
  <g transform="translate(106.358978 85.494492)" style="fill: rgb(0.000000%,0.000000%,0.000000%);">
    <use xlink:href="#GLYPHcmr10_50"></use>
  </g>
  <path d="M75.733093 65.296310L81.714386 65.296310L81.714386 57.875916L75.733093 57.875916Z" style="fill: rgb(100.000000%,100.000000%,100.000000%);stroke: none;"></path>
  <path d="M75.733093 67.296310L81.714386 67.296310L81.714386 59.875916L75.733093 59.875916Z" style="fill: rgb(100.000000%,100.000000%,100.000000%);stroke: none;"></path>
  <g transform="translate(76.233093 65.796310)" style="fill: rgb(0.000000%,0.000000%,0.000000%);">
    <use xlink:href="#GLYPHcmr10_51"></use>
  </g>
  <path d="M130.032303 105.783356L136.013596 105.783356L136.013596 98.362961L130.032303 98.362961Z" style="fill: rgb(100.000000%,100.000000%,100.000000%);stroke: none;"></path>
  <path d="M130.032303 107.783356L136.013596 107.783356L136.013596 100.362961L130.032303 100.362961Z" style="fill: rgb(100.000000%,100.000000%,100.000000%);stroke: none;"></path>
  <g transform="translate(130.532303 106.283356)" style="fill: rgb(0.000000%,0.000000%,0.000000%);">
    <use xlink:href="#GLYPHcmr10_52"></use>
  </g>
  <path d="M123.381760 61.738113L129.363052 61.738113L129.363052 54.317719L123.381760 54.317719Z" style="fill: rgb(100.000000%,100.000000%,100.000000%);stroke: none;"></path>
  <path d="M123.381760 63.738113L129.363052 63.738113L129.363052 56.317719L123.381760 56.317719Z" style="fill: rgb(100.000000%,100.000000%,100.000000%);stroke: none;"></path>
  <g transform="translate(123.881760 62.238113)" style="fill: rgb(0.000000%,0.000000%,0.000000%);">
    <use xlink:href="#GLYPHcmr10_53"></use>
  </g>
  <path d="M44.306702 10.698624L50.287994 10.698624L50.287994 3.278229L44.306702 3.278229Z" style="fill: rgb(100.000000%,100.000000%,100.000000%);stroke: none;"></path>
  <path d="M44.306702 12.698624L50.287994 12.698624L50.287994 5.278229L44.306702 5.278229Z" style="fill: rgb(100.000000%,100.000000%,100.000000%);stroke: none;"></path>
  <g transform="translate(44.806702 11.198624)" style="fill: rgb(0.000000%,0.000000%,0.000000%);">
    <use xlink:href="#GLYPHcmr10_54"></use>
  </g>
  <path d="M49.441162 61.304947L55.422455 61.304947L55.422455 53.884552L49.441162 53.884552Z" style="fill: rgb(100.000000%,100.000000%,100.000000%);stroke: none;"></path>
  <path d="M49.441162 63.304947L55.422455 63.304947L55.422455 55.884552L49.441162 55.884552Z" style="fill: rgb(100.000000%,100.000000%,100.000000%);stroke: none;"></path>
  <g transform="translate(49.941162 61.804947)" style="fill: rgb(0.000000%,0.000000%,0.000000%);">
    <use xlink:href="#GLYPHcmr10_55"></use>
  </g>
  <path d="M44.496384 103.566513L50.477676 103.566513L50.477676 96.146118L44.496384 96.146118Z" style="fill: rgb(100.000000%,100.000000%,100.000000%);stroke: none;"></path>
  <path d="M44.496384 105.566513L50.477676 105.566513L50.477676 98.146118L44.496384 98.146118Z" style="fill: rgb(100.000000%,100.000000%,100.000000%);stroke: none;"></path>
  <g transform="translate(44.996384 104.066513)" style="fill: rgb(0.000000%,0.000000%,0.000000%);">
    <use xlink:href="#GLYPHcmr10_56"></use>
  </g>
  <path d="M69.924377 153.177597L75.905670 153.177597L75.905670 145.757202L69.924377 145.757202Z" style="fill: rgb(100.000000%,100.000000%,100.000000%);stroke: none;"></path>
  <path d="M69.924377 155.177597L75.905670 155.177597L75.905670 147.757202L69.924377 147.757202Z" style="fill: rgb(100.000000%,100.000000%,100.000000%);stroke: none;"></path>
  <g transform="translate(70.424377 153.677597)" style="fill: rgb(0.000000%,0.000000%,0.000000%);">
    <use xlink:href="#GLYPHcmr10_57"></use>
  </g>
  <path d="M147.042526 147.750443L158.005234 147.750443L158.005234 140.330048L147.042526 140.330048Z" style="fill: rgb(100.000000%,100.000000%,100.000000%);stroke: none;"></path>
  <path d="M147.042526 149.750443L158.005234 149.750443L158.005234 142.330048L147.042526 142.330048Z" style="fill: rgb(100.000000%,100.000000%,100.000000%);stroke: none;"></path>
  <g transform="translate(147.542526 148.250443)" style="fill: rgb(0.000000%,0.000000%,0.000000%);">
    <use xlink:href="#GLYPHcmr10_49"></use>
    <use xlink:href="#GLYPHcmr10_48" x="5.000095"></use>
  </g>
  <path d="M119.530579 20.626221L130.493286 20.626221L130.493286 13.205826L119.530579 13.205826Z" style="fill: rgb(100.000000%,100.000000%,100.000000%);stroke: none;"></path>
  <path d="M119.530579 22.626221L130.493286 22.626221L130.493286 15.205826L119.530579 15.205826Z" style="fill: rgb(100.000000%,100.000000%,100.000000%);stroke: none;"></path>
  <g transform="translate(120.030579 21.126221)" style="fill: rgb(0.000000%,0.000000%,0.000000%);">
    <use xlink:href="#GLYPHcmr10_49"></use>
    <use xlink:href="#GLYPHcmr10_49" x="5.000095"></use>
  </g>
  <path d="M4.818588 74.831375L15.781296 74.831375L15.781296 67.410980L4.818588 67.410980Z" style="fill: rgb(100.000000%,100.000000%,100.000000%);stroke: none;"></path>
  <path d="M4.818588 76.831375L15.781296 76.831375L15.781296 69.410980L4.818588 69.410980Z" style="fill: rgb(100.000000%,100.000000%,100.000000%);stroke: none;"></path>
  <g transform="translate(5.318588 75.331375)" style="fill: rgb(0.000000%,0.000000%,0.000000%);">
    <use xlink:href="#GLYPHcmr10_49"></use>
    <use xlink:href="#GLYPHcmr10_50" x="5.000095"></use>
  </g>
</svg>
