<?xml version="1.0"?>
<!-- Created by MetaPost 1.999 on 2021.07.06:0007 -->
<svg version="1.1" xmlns="http://www.w3.org/2000/svg" xmlns:xlink="http://www.w3.org/1999/xlink" width="193.781631" height="194.349792" viewBox="0 0 193.781631 194.349792">
<!-- Original BoundingBox: -34.207169 -47.408340 159.574463 146.941452 -->
  <defs>
    <g transform="scale(0.009963,0.009963)" id="GLYPHcmr10_48">
      <path style="fill-rule: evenodd;" d="M460.000000 -320.000000C460.000000 -400.000000,455.000000 -480.000000,420.000000 -554.000000C374.000000 -650.000000,292.000000 -666.000000,250.000000 -666.000000C190.000000 -666.000000,117.000000 -640.000000,76.000000 -547.000000C44.000000 -478.000000,39.000000 -400.000000,39.000000 -320.000000C39.000000 -245.000000,43.000000 -155.000000,84.000000 -79.000000C127.000000 2.000000,200.000000 22.000000,249.000000 22.000000C303.000000 22.000000,379.000000 1.000000,423.000000 -94.000000C455.000000 -163.000000,460.000000 -241.000000,460.000000 -320.000000M249.000000 -0.000000C210.000000 -0.000000,151.000000 -25.000000,133.000000 -121.000000C122.000000 -181.000000,122.000000 -273.000000,122.000000 -332.000000C122.000000 -396.000000,122.000000 -462.000000,130.000000 -516.000000C149.000000 -635.000000,224.000000 -644.000000,249.000000 -644.000000C282.000000 -644.000000,348.000000 -626.000000,367.000000 -527.000000C377.000000 -471.000000,377.000000 -395.000000,377.000000 -332.000000C377.000000 -257.000000,377.000000 -189.000000,366.000000 -125.000000C351.000000 -30.000000,294.000000 -0.000000,249.000000 -0.000000"></path>
    </g>
    <g transform="scale(0.009963,0.009963)" id="GLYPHcmr10_49">
      <path style="fill-rule: evenodd;" d="M294.000000 -640.000000C294.000000 -664.000000,294.000000 -666.000000,271.000000 -666.000000C209.000000 -602.000000,121.000000 -602.000000,89.000000 -602.000000L89.000000 -571.000000C109.000000 -571.000000,168.000000 -571.000000,220.000000 -597.000000L220.000000 -79.000000C220.000000 -43.000000,217.000000 -31.000000,127.000000 -31.000000L95.000000 -31.000000L95.000000 -0.000000L257.000000 -0.000000L130.000000 -3.000000L217.000000 -3.000000L257.000000 -3.000000L297.000000 -3.000000L384.000000 -3.000000L419.000000 -0.000000L419.000000 -31.000000L387.000000 -31.000000C297.000000 -31.000000,294.000000 -42.000000,294.000000 -79.000000"></path>
    </g>
    <g transform="scale(0.009963,0.009963)" id="GLYPHcmr10_50">
      <path style="fill-rule: evenodd;" d="M127.000000 -77.000000L233.000000 -180.000000C389.000000 -318.000000,449.000000 -372.000000,449.000000 -472.000000C449.000000 -586.000000,359.000000 -666.000000,237.000000 -666.000000C124.000000 -666.000000,50.000000 -574.000000,50.000000 -485.000000C50.000000 -429.000000,100.000000 -429.000000,103.000000 -429.000000C120.000000 -429.000000,155.000000 -441.000000,155.000000 -482.000000C155.000000 -508.000000,137.000000 -534.000000,102.000000 -534.000000C94.000000 -534.000000,92.000000 -534.000000,89.000000 -533.000000C112.000000 -598.000000,166.000000 -635.000000,224.000000 -635.000000C315.000000 -635.000000,358.000000 -554.000000,358.000000 -472.000000C358.000000 -392.000000,308.000000 -313.000000,253.000000 -251.000000L61.000000 -37.000000C50.000000 -26.000000,50.000000 -24.000000,50.000000 -0.000000L421.000000 -0.000000L449.000000 -174.000000L424.000000 -174.000000C419.000000 -144.000000,412.000000 -100.000000,402.000000 -85.000000C395.000000 -77.000000,329.000000 -77.000000,307.000000 -77.000000"></path>
    </g>
    <g transform="scale(0.009963,0.009963)" id="GLYPHcmr10_51">
      <path style="fill-rule: evenodd;" d="M290.000000 -352.000000C372.000000 -379.000000,430.000000 -449.000000,430.000000 -528.000000C430.000000 -610.000000,342.000000 -666.000000,246.000000 -666.000000C145.000000 -666.000000,69.000000 -606.000000,69.000000 -530.000000C69.000000 -497.000000,91.000000 -478.000000,120.000000 -478.000000C151.000000 -478.000000,171.000000 -500.000000,171.000000 -529.000000C171.000000 -579.000000,124.000000 -579.000000,109.000000 -579.000000C140.000000 -628.000000,206.000000 -641.000000,242.000000 -641.000000C283.000000 -641.000000,338.000000 -619.000000,338.000000 -529.000000C338.000000 -517.000000,336.000000 -459.000000,310.000000 -415.000000C280.000000 -367.000000,246.000000 -364.000000,221.000000 -363.000000C213.000000 -362.000000,189.000000 -360.000000,182.000000 -360.000000C174.000000 -359.000000,167.000000 -358.000000,167.000000 -348.000000C167.000000 -337.000000,174.000000 -337.000000,191.000000 -337.000000L235.000000 -337.000000C317.000000 -337.000000,354.000000 -269.000000,354.000000 -171.000000C354.000000 -35.000000,285.000000 -6.000000,241.000000 -6.000000C198.000000 -6.000000,123.000000 -23.000000,88.000000 -82.000000C123.000000 -77.000000,154.000000 -99.000000,154.000000 -137.000000C154.000000 -173.000000,127.000000 -193.000000,98.000000 -193.000000C74.000000 -193.000000,42.000000 -179.000000,42.000000 -135.000000C42.000000 -44.000000,135.000000 22.000000,244.000000 22.000000C366.000000 22.000000,457.000000 -69.000000,457.000000 -171.000000C457.000000 -253.000000,394.000000 -331.000000,290.000000 -352.000000"></path>
    </g>
    <g transform="scale(0.009963,0.009963)" id="GLYPHcmr10_52">
      <path style="fill-rule: evenodd;" d="M294.000000 -165.000000L294.000000 -78.000000C294.000000 -42.000000,292.000000 -31.000000,218.000000 -31.000000L197.000000 -31.000000L197.000000 -0.000000L332.000000 -0.000000L238.000000 -3.000000L290.000000 -3.000000L332.000000 -3.000000L374.000000 -3.000000L427.000000 -3.000000L468.000000 -0.000000L468.000000 -31.000000L447.000000 -31.000000C373.000000 -31.000000,371.000000 -42.000000,371.000000 -78.000000L371.000000 -165.000000L471.000000 -165.000000L471.000000 -196.000000L371.000000 -196.000000L371.000000 -651.000000C371.000000 -671.000000,371.000000 -677.000000,355.000000 -677.000000C346.000000 -677.000000,343.000000 -677.000000,335.000000 -665.000000L28.000000 -196.000000L28.000000 -165.000000M300.000000 -196.000000L56.000000 -196.000000L300.000000 -569.000000"></path>
    </g>
    <g transform="scale(0.009963,0.009963)" id="GLYPHcmr10_53">
      <path style="fill-rule: evenodd;" d="M449.000000 -201.000000C449.000000 -320.000000,367.000000 -420.000000,259.000000 -420.000000C211.000000 -420.000000,168.000000 -404.000000,132.000000 -369.000000L132.000000 -564.000000C152.000000 -558.000000,185.000000 -551.000000,217.000000 -551.000000C340.000000 -551.000000,410.000000 -642.000000,410.000000 -655.000000C410.000000 -661.000000,407.000000 -666.000000,400.000000 -666.000000C399.000000 -666.000000,397.000000 -666.000000,392.000000 -663.000000C372.000000 -654.000000,323.000000 -634.000000,256.000000 -634.000000C216.000000 -634.000000,170.000000 -641.000000,123.000000 -662.000000C115.000000 -665.000000,113.000000 -665.000000,111.000000 -665.000000C101.000000 -665.000000,101.000000 -657.000000,101.000000 -641.000000L101.000000 -345.000000C101.000000 -327.000000,101.000000 -319.000000,115.000000 -319.000000C122.000000 -319.000000,124.000000 -322.000000,128.000000 -328.000000C139.000000 -344.000000,176.000000 -398.000000,257.000000 -398.000000C309.000000 -398.000000,334.000000 -352.000000,342.000000 -334.000000C358.000000 -297.000000,360.000000 -258.000000,360.000000 -208.000000C360.000000 -173.000000,360.000000 -113.000000,336.000000 -71.000000C312.000000 -32.000000,275.000000 -6.000000,229.000000 -6.000000C156.000000 -6.000000,99.000000 -59.000000,82.000000 -118.000000C85.000000 -117.000000,88.000000 -116.000000,99.000000 -116.000000C132.000000 -116.000000,149.000000 -141.000000,149.000000 -165.000000C149.000000 -189.000000,132.000000 -214.000000,99.000000 -214.000000C85.000000 -214.000000,50.000000 -207.000000,50.000000 -161.000000C50.000000 -75.000000,119.000000 22.000000,231.000000 22.000000C347.000000 22.000000,449.000000 -74.000000,449.000000 -201.000000"></path>
    </g>
    <g transform="scale(0.009963,0.009963)" id="GLYPHcmr10_54">
      <path style="fill-rule: evenodd;" d="M132.000000 -328.000000L132.000000 -352.000000C132.000000 -605.000000,256.000000 -641.000000,307.000000 -641.000000C331.000000 -641.000000,373.000000 -635.000000,395.000000 -601.000000C380.000000 -601.000000,340.000000 -601.000000,340.000000 -556.000000C340.000000 -525.000000,364.000000 -510.000000,386.000000 -510.000000C402.000000 -510.000000,432.000000 -519.000000,432.000000 -558.000000C432.000000 -618.000000,388.000000 -666.000000,305.000000 -666.000000C177.000000 -666.000000,42.000000 -537.000000,42.000000 -316.000000C42.000000 -49.000000,158.000000 22.000000,251.000000 22.000000C362.000000 22.000000,457.000000 -72.000000,457.000000 -204.000000C457.000000 -331.000000,368.000000 -427.000000,257.000000 -427.000000C189.000000 -427.000000,152.000000 -376.000000,132.000000 -328.000000M251.000000 -6.000000C188.000000 -6.000000,158.000000 -66.000000,152.000000 -81.000000C134.000000 -128.000000,134.000000 -208.000000,134.000000 -226.000000C134.000000 -304.000000,166.000000 -404.000000,256.000000 -404.000000C272.000000 -404.000000,318.000000 -404.000000,349.000000 -342.000000C367.000000 -305.000000,367.000000 -254.000000,367.000000 -205.000000C367.000000 -157.000000,367.000000 -107.000000,350.000000 -71.000000C320.000000 -11.000000,274.000000 -6.000000,251.000000 -6.000000"></path>
    </g>
    <g transform="scale(0.009963,0.009963)" id="GLYPHcmr10_55">
      <path style="fill-rule: evenodd;" d="M476.000000 -609.000000C485.000000 -621.000000,485.000000 -623.000000,485.000000 -644.000000L242.000000 -644.000000C120.000000 -644.000000,118.000000 -657.000000,114.000000 -676.000000L89.000000 -676.000000L56.000000 -470.000000L81.000000 -470.000000C84.000000 -486.000000,93.000000 -549.000000,106.000000 -561.000000C113.000000 -567.000000,191.000000 -567.000000,204.000000 -567.000000L411.000000 -567.000000C400.000000 -551.000000,321.000000 -442.000000,299.000000 -409.000000C209.000000 -274.000000,176.000000 -135.000000,176.000000 -33.000000C176.000000 -23.000000,176.000000 22.000000,222.000000 22.000000C268.000000 22.000000,268.000000 -23.000000,268.000000 -33.000000L268.000000 -84.000000C268.000000 -139.000000,271.000000 -194.000000,279.000000 -248.000000C283.000000 -271.000000,297.000000 -357.000000,341.000000 -419.000000"></path>
    </g>
    <g transform="scale(0.009963,0.009963)" id="GLYPHcmr10_56">
      <path style="fill-rule: evenodd;" d="M163.000000 -457.000000C117.000000 -487.000000,113.000000 -521.000000,113.000000 -538.000000C113.000000 -599.000000,178.000000 -641.000000,249.000000 -641.000000C322.000000 -641.000000,386.000000 -589.000000,386.000000 -517.000000C386.000000 -460.000000,347.000000 -412.000000,287.000000 -377.000000M309.000000 -362.000000C381.000000 -399.000000,430.000000 -451.000000,430.000000 -517.000000C430.000000 -609.000000,341.000000 -666.000000,250.000000 -666.000000C150.000000 -666.000000,69.000000 -592.000000,69.000000 -499.000000C69.000000 -481.000000,71.000000 -436.000000,113.000000 -389.000000C124.000000 -377.000000,161.000000 -352.000000,186.000000 -335.000000C128.000000 -306.000000,42.000000 -250.000000,42.000000 -151.000000C42.000000 -45.000000,144.000000 22.000000,249.000000 22.000000C362.000000 22.000000,457.000000 -61.000000,457.000000 -168.000000C457.000000 -204.000000,446.000000 -249.000000,408.000000 -291.000000C389.000000 -312.000000,373.000000 -322.000000,309.000000 -362.000000M209.000000 -320.000000L332.000000 -242.000000C360.000000 -223.000000,407.000000 -193.000000,407.000000 -132.000000C407.000000 -58.000000,332.000000 -6.000000,250.000000 -6.000000C164.000000 -6.000000,92.000000 -68.000000,92.000000 -151.000000C92.000000 -209.000000,124.000000 -273.000000,209.000000 -320.000000"></path>
    </g>
    <g transform="scale(0.009963,0.009963)" id="GLYPHcmr10_57">
      <path style="fill-rule: evenodd;" d="M367.000000 -318.000000L367.000000 -286.000000C367.000000 -52.000000,263.000000 -6.000000,205.000000 -6.000000C188.000000 -6.000000,134.000000 -8.000000,107.000000 -42.000000C151.000000 -42.000000,159.000000 -71.000000,159.000000 -88.000000C159.000000 -119.000000,135.000000 -134.000000,113.000000 -134.000000C97.000000 -134.000000,67.000000 -125.000000,67.000000 -86.000000C67.000000 -19.000000,121.000000 22.000000,206.000000 22.000000C335.000000 22.000000,457.000000 -114.000000,457.000000 -329.000000C457.000000 -598.000000,342.000000 -666.000000,253.000000 -666.000000C198.000000 -666.000000,149.000000 -648.000000,106.000000 -603.000000C65.000000 -558.000000,42.000000 -516.000000,42.000000 -441.000000C42.000000 -316.000000,130.000000 -218.000000,242.000000 -218.000000C303.000000 -218.000000,344.000000 -260.000000,367.000000 -318.000000M243.000000 -241.000000C227.000000 -241.000000,181.000000 -241.000000,150.000000 -304.000000C132.000000 -341.000000,132.000000 -391.000000,132.000000 -440.000000C132.000000 -494.000000,132.000000 -541.000000,153.000000 -578.000000C180.000000 -628.000000,218.000000 -641.000000,253.000000 -641.000000C299.000000 -641.000000,332.000000 -607.000000,349.000000 -562.000000C361.000000 -530.000000,365.000000 -467.000000,365.000000 -421.000000C365.000000 -338.000000,331.000000 -241.000000,243.000000 -241.000000"></path>
    </g>
  </defs>
  <path d="M62.368347 144.595001C62.368347 143.802307,62.053406 143.042160,61.492920 142.481689C60.932449 141.921204,60.172302 141.606262,59.379608 141.606262C58.586914 141.606262,57.826767 141.921204,57.266296 142.481689C56.705811 143.042160,56.390869 143.802307,56.390869 144.595001C56.390869 145.387695,56.705811 146.147842,57.266296 146.708313C57.826767 147.268799,58.586914 147.583740,59.379608 147.583740C60.172302 147.583740,60.932449 147.268799,61.492920 146.708313C62.053406 146.147842,62.368347 145.387695,62.368347 144.595001Z" style="fill: rgb(100.000000%,100.000000%,100.000000%);stroke: none;"></path>
  <path d="M69.800903 134.239517C69.800903 133.446823,69.485962 132.686676,68.925476 132.126205C68.365005 131.565720,67.604858 131.250778,66.812164 131.250778C66.019470 131.250778,65.259323 131.565720,64.698853 132.126205C64.138367 132.686676,63.823425 133.446823,63.823425 134.239517C63.823425 135.032211,64.138367 135.792358,64.698853 136.352829C65.259323 136.913315,66.019470 137.228256,66.812164 137.228256C67.604858 137.228256,68.365005 136.913315,68.925476 136.352829C69.485962 135.792358,69.800903 135.032211,69.800903 134.239517Z" style="fill: rgb(100.000000%,100.000000%,100.000000%);stroke: none;"></path>
  <path d="M16.669189 140.595596C16.669189 139.802902,16.354248 139.042755,15.793762 138.482285C15.233292 137.921799,14.473145 137.606857,13.680450 137.606857C12.887756 137.606857,12.127609 137.921799,11.567139 138.482285C11.006653 139.042755,10.691711 139.802902,10.691711 140.595596C10.691711 141.388290,11.006653 142.148438,11.567139 142.708908C12.127609 143.269394,12.887756 143.584335,13.680450 143.584335C14.473145 143.584335,15.233292 143.269394,15.793762 142.708908C16.354248 142.148438,16.669189 141.388290,16.669189 140.595596Z" style="fill: rgb(100.000000%,100.000000%,100.000000%);stroke: none;"></path>
  <path d="M49.307190 149.276352C49.307190 148.483658,48.992249 147.723511,48.431763 147.163040C47.871292 146.602554,47.111145 146.287613,46.318451 146.287613C45.525757 146.287613,44.765610 146.602554,44.205139 147.163040C43.644653 147.723511,43.329712 148.483658,43.329712 149.276352C43.329712 150.069046,43.644653 150.829193,44.205139 151.389664C44.765610 151.950150,45.525757 152.265091,46.318451 152.265091C47.111145 152.265091,47.871292 151.950150,48.431763 151.389664C48.992249 150.829193,49.307190 150.069046,49.307190 149.276352Z" style="fill: rgb(100.000000%,100.000000%,100.000000%);stroke: none;"></path>
  <path d="M5.770309 73.253052C5.770309 72.460358,5.455368 71.700211,4.894882 71.139740C4.334412 70.579254,3.574265 70.264313,2.781570 70.264313C1.988876 70.264313,1.228729 70.579254,0.668259 71.139740C0.107773 71.700211,-0.207169 72.460358,-0.207169 73.253052C-0.207169 74.045746,0.107773 74.805893,0.668259 75.366364C1.228729 75.926849,1.988876 76.241791,2.781570 76.241791C3.574265 76.241791,4.334412 75.926849,4.894882 75.366364C5.455368 74.805893,5.770309 74.045746,5.770309 73.253052Z" style="fill: rgb(100.000000%,100.000000%,100.000000%);stroke: none;"></path>
  <path d="M7.445541 118.574493C7.445541 117.781799,7.130600 117.021652,6.570114 116.461182C6.009644 115.900696,5.249496 115.585754,4.456802 115.585754C3.664108 115.585754,2.903961 115.900696,2.343491 116.461182C1.783005 117.021652,1.468063 117.781799,1.468063 118.574493C1.468063 119.367188,1.783005 120.127335,2.343491 120.687805C2.903961 121.248291,3.664108 121.563232,4.456802 121.563232C5.249496 121.563232,6.009644 121.248291,6.570114 120.687805C7.130600 120.127335,7.445541 119.367188,7.445541 118.574493Z" style="fill: rgb(100.000000%,100.000000%,100.000000%);stroke: none;"></path>
  <path d="M50.402451 44.761261C50.402451 43.968567,50.087509 43.208420,49.527023 42.647949C48.966553 42.087463,48.206406 41.772522,47.413712 41.772522C46.621017 41.772522,45.860870 42.087463,45.300400 42.647949C44.739914 43.208420,44.424973 43.968567,44.424973 44.761261C44.424973 45.553955,44.739914 46.314102,45.300400 46.874573C45.860870 47.435059,46.621017 47.750000,47.413712 47.750000C48.206406 47.750000,48.966553 47.435059,49.527023 46.874573C50.087509 46.314102,50.402451 45.553955,50.402451 44.761261Z" style="fill: rgb(100.000000%,100.000000%,100.000000%);stroke: none;"></path>
  <path d="M15.569016 49.505966C15.569016 48.713272,15.254074 47.953125,14.693588 47.392654C14.133118 46.832169,13.372971 46.517227,12.580276 46.517227C11.787582 46.517227,11.027435 46.832169,10.466965 47.392654C9.906479 47.953125,9.591537 48.713272,9.591537 49.505966C9.591537 50.298660,9.906479 51.058807,10.466965 51.619278C11.027435 52.179764,11.787582 52.494705,12.580276 52.494705C13.372971 52.494705,14.133118 52.179764,14.693588 51.619278C15.254074 51.058807,15.569016 50.298660,15.569016 49.505966Z" style="fill: rgb(100.000000%,100.000000%,100.000000%);stroke: none;"></path>
  <path d="M89.681076 46.639664C89.681076 45.846970,89.366135 45.086823,88.805649 44.526352C88.245178 43.965866,87.485031 43.650925,86.692337 43.650925C85.899643 43.650925,85.139496 43.965866,84.579025 44.526352C84.018539 45.086823,83.703598 45.846970,83.703598 46.639664C83.703598 47.432358,84.018539 48.192505,84.579025 48.752975C85.139496 49.313461,85.899643 49.628403,86.692337 49.628403C87.485031 49.628403,88.245178 49.313461,88.805649 48.752975C89.366135 48.192505,89.681076 47.432358,89.681076 46.639664Z" style="fill: rgb(100.000000%,100.000000%,100.000000%);stroke: none;"></path>
  <path d="M63.535538 53.900665C63.535538 53.107971,63.220596 52.347824,62.660110 51.787354C62.099640 51.226868,61.339493 50.911926,60.546799 50.911926C59.754105 50.911926,58.993958 51.226868,58.433487 51.787354C57.873001 52.347824,57.558060 53.107971,57.558060 53.900665C57.558060 54.693359,57.873001 55.453506,58.433487 56.013977C58.993958 56.574463,59.754105 56.889404,60.546799 56.889404C61.339493 56.889404,62.099640 56.574463,62.660110 56.013977C63.220596 55.453506,63.535538 54.693359,63.535538 53.900665Z" style="fill: rgb(100.000000%,100.000000%,100.000000%);stroke: none;"></path>
  <path d="M127.909485 20.204819C127.909485 19.412125,127.594543 18.651978,127.034058 18.091507C126.473587 17.531021,125.713440 17.216080,124.920746 17.216080C124.128052 17.216080,123.367905 17.531021,122.807434 18.091507C122.246948 18.651978,121.932007 19.412125,121.932007 20.204819C121.932007 20.997513,122.246948 21.757660,122.807434 22.318130C123.367905 22.878616,124.128052 23.193558,124.920746 23.193558C125.713440 23.193558,126.473587 22.878616,127.034058 22.318130C127.594543 21.757660,127.909485 20.997513,127.909485 20.204819Z" style="fill: rgb(100.000000%,100.000000%,100.000000%);stroke: none;"></path>
  <path d="M96.343689 32.303894C96.343689 31.511200,96.028748 30.751053,95.468262 30.190582C94.907791 29.630096,94.147644 29.315155,93.354950 29.315155C92.562256 29.315155,91.802109 29.630096,91.241638 30.190582C90.681152 30.751053,90.366211 31.511200,90.366211 32.303894C90.366211 33.096588,90.681152 33.856735,91.241638 34.417206C91.802109 34.977692,92.562256 35.292633,93.354950 35.292633C94.147644 35.292633,94.907791 34.977692,95.468262 34.417206C96.028748 33.856735,96.343689 33.096588,96.343689 32.303894Z" style="fill: rgb(100.000000%,100.000000%,100.000000%);stroke: none;"></path>
  <path d="M173.463623 68.493439C173.463623 67.700745,173.148682 66.940598,172.588196 66.380127C172.027725 65.819641,171.267578 65.504700,170.474884 65.504700C169.682190 65.504700,168.922043 65.819641,168.361572 66.380127C167.801086 66.940598,167.486145 67.700745,167.486145 68.493439C167.486145 69.286133,167.801086 70.046280,168.361572 70.606750C168.922043 71.167236,169.682190 71.482178,170.474884 71.482178C171.267578 71.482178,172.027725 71.167236,172.588196 70.606750C173.148682 70.046280,173.463623 69.286133,173.463623 68.493439Z" style="fill: rgb(100.000000%,100.000000%,100.000000%);stroke: none;"></path>
  <path d="M145.926407 35.757538C145.926407 34.964844,145.611465 34.204697,145.050980 33.644226C144.490509 33.083740,143.730362 32.768799,142.937668 32.768799C142.144974 32.768799,141.384827 33.083740,140.824356 33.644226C140.263870 34.204697,139.948929 34.964844,139.948929 35.757538C139.948929 36.550232,140.263870 37.310379,140.824356 37.870850C141.384827 38.431335,142.144974 38.746277,142.937668 38.746277C143.730362 38.746277,144.490509 38.431335,145.050980 37.870850C145.611465 37.310379,145.926407 36.550232,145.926407 35.757538Z" style="fill: rgb(100.000000%,100.000000%,100.000000%);stroke: none;"></path>
  <path d="M167.959015 116.171906C167.959015 115.379211,167.644073 114.619064,167.083588 114.058594C166.523117 113.498108,165.762970 113.183167,164.970276 113.183167C164.177582 113.183167,163.417435 113.498108,162.856964 114.058594C162.296478 114.619064,161.981537 115.379211,161.981537 116.171906C161.981537 116.964600,162.296478 117.724747,162.856964 118.285217C163.417435 118.845703,164.177582 119.160645,164.970276 119.160645C165.762970 119.160645,166.523117 118.845703,167.083588 118.285217C167.644073 117.724747,167.959015 116.964600,167.959015 116.171906Z" style="fill: rgb(100.000000%,100.000000%,100.000000%);stroke: none;"></path>
  <path d="M185.352875 88.741577C185.352875 87.948883,185.037933 87.188736,184.477448 86.628265C183.916977 86.067780,183.156830 85.752838,182.364136 85.752838C181.571442 85.752838,180.811295 86.067780,180.250824 86.628265C179.690338 87.188736,179.375397 87.948883,179.375397 88.741577C179.375397 89.534271,179.690338 90.294418,180.250824 90.854889C180.811295 91.415375,181.571442 91.730316,182.364136 91.730316C183.156830 91.730316,183.916977 91.415375,184.477448 90.854889C185.037933 90.294418,185.352875 89.534271,185.352875 88.741577Z" style="fill: rgb(100.000000%,100.000000%,100.000000%);stroke: none;"></path>
  <path d="M141.122299 141.669434C141.122299 140.876740,140.807358 140.116592,140.246872 139.556122C139.686401 138.995636,138.926254 138.680695,138.133560 138.680695C137.340866 138.680695,136.580719 138.995636,136.020248 139.556122C135.459763 140.116592,135.144821 140.876740,135.144821 141.669434C135.144821 142.462128,135.459763 143.222275,136.020248 143.782745C136.580719 144.343231,137.340866 144.658173,138.133560 144.658173C138.926254 144.658173,139.686401 144.343231,140.246872 143.782745C140.807358 143.222275,141.122299 142.462128,141.122299 141.669434Z" style="fill: rgb(100.000000%,100.000000%,100.000000%);stroke: none;"></path>
  <path d="M153.963104 119.711029C153.963104 118.918335,153.648163 118.158188,153.087677 117.597717C152.527206 117.037231,151.767059 116.722290,150.974365 116.722290C150.181671 116.722290,149.421524 117.037231,148.861053 117.597717C148.300568 118.158188,147.985626 118.918335,147.985626 119.711029C147.985626 120.503723,148.300568 121.263870,148.861053 121.824341C149.421524 122.384827,150.181671 122.699768,150.974365 122.699768C151.767059 122.699768,152.527206 122.384827,153.087677 121.824341C153.648163 121.263870,153.963104 120.503723,153.963104 119.711029Z" style="fill: rgb(100.000000%,100.000000%,100.000000%);stroke: none;"></path>
  <path d="M131.584534 188.049957C131.584534 187.257263,131.269592 186.497116,130.709106 185.936646C130.148636 185.376160,129.388489 185.061218,128.595795 185.061218C127.803101 185.061218,127.042953 185.376160,126.482483 185.936646C125.921997 186.497116,125.607056 187.257263,125.607056 188.049957C125.607056 188.842651,125.921997 189.602798,126.482483 190.163269C127.042953 190.723755,127.803101 191.038696,128.595795 191.038696C129.388489 191.038696,130.148636 190.723755,130.709106 190.163269C131.269592 189.602798,131.584534 188.842651,131.584534 188.049957Z" style="fill: rgb(100.000000%,100.000000%,100.000000%);stroke: none;"></path>
  <path d="M145.510513 155.954224C145.510513 155.161530,145.195572 154.401382,144.635086 153.840912C144.074615 153.280426,143.314468 152.965485,142.521774 152.965485C141.729080 152.965485,140.968933 153.280426,140.408463 153.840912C139.847977 154.401382,139.533035 155.161530,139.533035 155.954224C139.533035 156.746918,139.847977 157.507065,140.408463 158.067535C140.968933 158.628021,141.729080 158.942963,142.521774 158.942963C143.314468 158.942963,144.074615 158.628021,144.635086 158.067535C145.195572 157.507065,145.510513 156.746918,145.510513 155.954224Z" style="fill: rgb(100.000000%,100.000000%,100.000000%);stroke: none;"></path>
  <path d="M59.905731 180.015854C59.905731 179.223160,59.590790 178.463013,59.030304 177.902542C58.469833 177.342056,57.709686 177.027115,56.916992 177.027115C56.124298 177.027115,55.364151 177.342056,54.803680 177.902542C54.243195 178.463013,53.928253 179.223160,53.928253 180.015854C53.928253 180.808548,54.243195 181.568695,54.803680 182.129166C55.364151 182.689651,56.124298 183.004593,56.916992 183.004593C57.709686 183.004593,58.469833 182.689651,59.030304 182.129166C59.590790 181.568695,59.905731 180.808548,59.905731 180.015854Z" style="fill: rgb(100.000000%,100.000000%,100.000000%);stroke: none;"></path>
  <path d="M105.579514 190.419601C105.579514 189.626907,105.264572 188.866760,104.704086 188.306290C104.143616 187.745804,103.383469 187.430862,102.590775 187.430862C101.798080 187.430862,101.037933 187.745804,100.477463 188.306290C99.916977 188.866760,99.602036 189.626907,99.602036 190.419601C99.602036 191.212296,99.916977 191.972443,100.477463 192.532913C101.037933 193.093399,101.798080 193.408340,102.590775 193.408340C103.383469 193.408340,104.143616 193.093399,104.704086 192.532913C105.264572 191.972443,105.579514 191.212296,105.579514 190.419601Z" style="fill: rgb(100.000000%,100.000000%,100.000000%);stroke: none;"></path>
  <path d="M36.518021 134.510651C36.518021 133.717957,36.203079 132.957809,35.642593 132.397339C35.082123 131.836853,34.321976 131.521912,33.529282 131.521912C32.736588 131.521912,31.976440 131.836853,31.415970 132.397339C30.855484 132.957809,30.540543 133.717957,30.540543 134.510651C30.540543 135.303345,30.855484 136.063492,31.415970 136.623962C31.976440 137.184448,32.736588 137.499390,33.529282 137.499390C34.321976 137.499390,35.082123 137.184448,35.642593 136.623962C36.203079 136.063492,36.518021 135.303345,36.518021 134.510651Z" style="fill: rgb(100.000000%,100.000000%,100.000000%);stroke: none;"></path>
  <path d="M37.878906 167.727570C37.878906 166.934875,37.563965 166.174728,37.003479 165.614258C36.443008 165.053772,35.682861 164.738831,34.890167 164.738831C34.097473 164.738831,33.337326 165.053772,32.776855 165.614258C32.216370 166.174728,31.901428 166.934875,31.901428 167.727570C31.901428 168.520264,32.216370 169.280411,32.776855 169.840881C33.337326 170.401367,34.097473 170.716309,34.890167 170.716309C35.682861 170.716309,36.443008 170.401367,37.003479 169.840881C37.563965 169.280411,37.878906 168.520264,37.878906 167.727570Z" style="fill: rgb(100.000000%,100.000000%,100.000000%);stroke: none;"></path>
  <path d="M54.941833 112.952118C54.941833 112.159424,54.626892 111.399277,54.066406 110.838806C53.505936 110.278320,52.745789 109.963379,51.953094 109.963379C51.160400 109.963379,50.400253 110.278320,49.839783 110.838806C49.279297 111.399277,48.964355 112.159424,48.964355 112.952118C48.964355 113.744812,49.279297 114.504959,49.839783 115.065430C50.400253 115.625916,51.160400 115.940857,51.953094 115.940857C52.745789 115.940857,53.505936 115.625916,54.066406 115.065430C54.626892 114.504959,54.941833 113.744812,54.941833 112.952118Z" style="fill: rgb(100.000000%,100.000000%,100.000000%);stroke: none;"></path>
  <path d="M43.081085 124.306335C43.081085 123.513641,42.766144 122.753494,42.205658 122.193024C41.645187 121.632538,40.885040 121.317596,40.092346 121.317596C39.299652 121.317596,38.539505 121.632538,37.979034 122.193024C37.418549 122.753494,37.103607 123.513641,37.103607 124.306335C37.103607 125.099030,37.418549 125.859177,37.979034 126.419647C38.539505 126.980133,39.299652 127.295074,40.092346 127.295074C40.885040 127.295074,41.645187 126.980133,42.205658 126.419647C42.766144 125.859177,43.081085 125.099030,43.081085 124.306335Z" style="fill: rgb(100.000000%,100.000000%,100.000000%);stroke: none;"></path>
  <path d="M65.179581 106.647614C65.179581 105.854919,64.864639 105.094772,64.304153 104.534302C63.743683 103.973816,62.983536 103.658875,62.190842 103.658875C61.398148 103.658875,60.638000 103.973816,60.077530 104.534302C59.517044 105.094772,59.202103 105.854919,59.202103 106.647614C59.202103 107.440308,59.517044 108.200455,60.077530 108.760925C60.638000 109.321411,61.398148 109.636353,62.190842 109.636353C62.983536 109.636353,63.743683 109.321411,64.304153 108.760925C64.864639 108.200455,65.179581 107.440308,65.179581 106.647614Z" style="fill: rgb(100.000000%,100.000000%,100.000000%);stroke: none;"></path>
  <path d="M58.786118 109.917191C58.786118 109.124496,58.471176 108.364349,57.910690 107.803879C57.350220 107.243393,56.590073 106.928452,55.797379 106.928452C55.004684 106.928452,54.244537 107.243393,53.684067 107.803879C53.123581 108.364349,52.808640 109.124496,52.808640 109.917191C52.808640 110.709885,53.123581 111.470032,53.684067 112.030502C54.244537 112.590988,55.004684 112.905930,55.797379 112.905930C56.590073 112.905930,57.350220 112.590988,57.910690 112.030502C58.471176 111.470032,58.786118 110.709885,58.786118 109.917191Z" style="fill: rgb(100.000000%,100.000000%,100.000000%);stroke: none;"></path>
  <path d="M68.870132 101.071091C68.870132 100.278397,68.555191 99.518250,67.994705 98.957779C67.434235 98.397293,66.674088 98.082352,65.881393 98.082352C65.088699 98.082352,64.328552 98.397293,63.768082 98.957779C63.207596 99.518250,62.892654 100.278397,62.892654 101.071091C62.892654 101.863785,63.207596 102.623932,63.768082 103.184402C64.328552 103.744888,65.088699 104.059830,65.881393 104.059830C66.674088 104.059830,67.434235 103.744888,67.994705 103.184402C68.555191 102.623932,68.870132 101.863785,68.870132 101.071091Z" style="fill: rgb(100.000000%,100.000000%,100.000000%);stroke: none;"></path>
  <path d="M67.456604 105.599640C67.456604 104.806946,67.141663 104.046799,66.581177 103.486328C66.020706 102.925842,65.260559 102.610901,64.467865 102.610901C63.675171 102.610901,62.915024 102.925842,62.354553 103.486328C61.794067 104.046799,61.479126 104.806946,61.479126 105.599640C61.479126 106.392334,61.794067 107.152481,62.354553 107.712952C62.915024 108.273438,63.675171 108.588379,64.467865 108.588379C65.260559 108.588379,66.020706 108.273438,66.581177 107.712952C67.141663 107.152481,67.456604 106.392334,67.456604 105.599640Z" style="fill: rgb(100.000000%,100.000000%,100.000000%);stroke: none;"></path>
  <path d="M62.732330 91.127533C62.732330 90.334839,62.417389 89.574692,61.856903 89.014221C61.296432 88.453735,60.536285 88.138794,59.743591 88.138794C58.950897 88.138794,58.190750 88.453735,57.630280 89.014221C57.069794 89.574692,56.754852 90.334839,56.754852 91.127533C56.754852 91.920227,57.069794 92.680374,57.630280 93.240845C58.190750 93.801331,58.950897 94.116272,59.743591 94.116272C60.536285 94.116272,61.296432 93.801331,61.856903 93.240845C62.417389 92.680374,62.732330 91.920227,62.732330 91.127533Z" style="fill: rgb(100.000000%,100.000000%,100.000000%);stroke: none;"></path>
  <path d="M67.417526 98.822723C67.417526 98.030029,67.102585 97.269882,66.542099 96.709412C65.981628 96.148926,65.221481 95.833984,64.428787 95.833984C63.636093 95.833984,62.875946 96.148926,62.315475 96.709412C61.754990 97.269882,61.440048 98.030029,61.440048 98.822723C61.440048 99.615417,61.754990 100.375565,62.315475 100.936035C62.875946 101.496521,63.636093 101.811462,64.428787 101.811462C65.221481 101.811462,65.981628 101.496521,66.542099 100.936035C67.102585 100.375565,67.417526 99.615417,67.417526 98.822723Z" style="fill: rgb(100.000000%,100.000000%,100.000000%);stroke: none;"></path>
  <path d="M50.890701 67.949142C50.890701 67.156448,50.575760 66.396301,50.015274 65.835831C49.454803 65.275345,48.694656 64.960403,47.901962 64.960403C47.109268 64.960403,46.349121 65.275345,45.788651 65.835831C45.228165 66.396301,44.913223 67.156448,44.913223 67.949142C44.913223 68.741837,45.228165 69.501984,45.788651 70.062454C46.349121 70.622940,47.109268 70.937881,47.901962 70.937881C48.694656 70.937881,49.454803 70.622940,50.015274 70.062454C50.575760 69.501984,50.890701 68.741837,50.890701 67.949142Z" style="fill: rgb(100.000000%,100.000000%,100.000000%);stroke: none;"></path>
  <path d="M60.681610 84.816727C60.681610 84.024033,60.366669 83.263885,59.806183 82.703415C59.245712 82.142929,58.485565 81.827988,57.692871 81.827988C56.900177 81.827988,56.140030 82.142929,55.579559 82.703415C55.019073 83.263885,54.704132 84.024033,54.704132 84.816727C54.704132 85.609421,55.019073 86.369568,55.579559 86.930038C56.140030 87.490524,56.900177 87.805466,57.692871 87.805466C58.485565 87.805466,59.245712 87.490524,59.806183 86.930038C60.366669 86.369568,60.681610 85.609421,60.681610 84.816727Z" style="fill: rgb(100.000000%,100.000000%,100.000000%);stroke: none;"></path>
  <path d="M33.100037 28.366486C33.100037 27.573792,32.785095 26.813644,32.224609 26.253174C31.664139 25.692688,30.903992 25.377747,30.111298 25.377747C29.318604 25.377747,28.558456 25.692688,27.997986 26.253174C27.437500 26.813644,27.122559 27.573792,27.122559 28.366486C27.122559 29.159180,27.437500 29.919327,27.997986 30.479797C28.558456 31.040283,29.318604 31.355225,30.111298 31.355225C30.903992 31.355225,31.664139 31.040283,32.224609 30.479797C32.785095 29.919327,33.100037 29.159180,33.100037 28.366486Z" style="fill: rgb(100.000000%,100.000000%,100.000000%);stroke: none;"></path>
  <path d="M39.715332 59.364761C39.715332 58.572067,39.400391 57.811920,38.839905 57.251450C38.279434 56.690964,37.519287 56.376022,36.726593 56.376022C35.933899 56.376022,35.173752 56.690964,34.613281 57.251450C34.052795 57.811920,33.737854 58.572067,33.737854 59.364761C33.737854 60.157455,34.052795 60.917603,34.613281 61.478073C35.173752 62.038559,35.933899 62.353500,36.726593 62.353500C37.519287 62.353500,38.279434 62.038559,38.839905 61.478073C39.400391 60.917603,39.715332 60.157455,39.715332 59.364761Z" style="fill: rgb(100.000000%,100.000000%,100.000000%);stroke: none;"></path>
  <path d="M83.341263 2.047287C83.341263 1.254593,83.026321 0.494446,82.465836 -0.066025C81.905365 -0.626511,81.145218 -0.941452,80.352524 -0.941452C79.559830 -0.941452,78.799683 -0.626511,78.239212 -0.066025C77.678726 0.494446,77.363785 1.254593,77.363785 2.047287C77.363785 2.839981,77.678726 3.600128,78.239212 4.160599C78.799683 4.721085,79.559830 5.036026,80.352524 5.036026C81.145218 5.036026,81.905365 4.721085,82.465836 4.160599C83.026321 3.600128,83.341263 2.839981,83.341263 2.047287Z" style="fill: rgb(100.000000%,100.000000%,100.000000%);stroke: none;"></path>
  <path d="M46.371857 11.275436C46.371857 10.482742,46.056915 9.722595,45.496429 9.162125C44.935959 8.601639,44.175812 8.286697,43.383118 8.286697C42.590424 8.286697,41.830276 8.601639,41.269806 9.162125C40.709320 9.722595,40.394379 10.482742,40.394379 11.275436C40.394379 12.068130,40.709320 12.828278,41.269806 13.388748C41.830276 13.949234,42.590424 14.264175,43.383118 14.264175C44.175812 14.264175,44.935959 13.949234,45.496429 13.388748C46.056915 12.828278,46.371857 12.068130,46.371857 11.275436Z" style="fill: rgb(100.000000%,100.000000%,100.000000%);stroke: none;"></path>
  <path d="M113.258087 39.933960C113.258087 39.141266,112.943146 38.381119,112.382660 37.820648C111.822189 37.260162,111.062042 36.945221,110.269348 36.945221C109.476654 36.945221,108.716507 37.260162,108.156036 37.820648C107.595551 38.381119,107.280609 39.141266,107.280609 39.933960C107.280609 40.726654,107.595551 41.486801,108.156036 42.047272C108.716507 42.607758,109.476654 42.922699,110.269348 42.922699C111.062042 42.922699,111.822189 42.607758,112.382660 42.047272C112.943146 41.486801,113.258087 40.726654,113.258087 39.933960Z" style="fill: rgb(100.000000%,100.000000%,100.000000%);stroke: none;"></path>
  <path d="M102.663849 10.253967C102.663849 9.461273,102.348907 8.701126,101.788422 8.140656C101.227951 7.580170,100.467804 7.265228,99.675110 7.265228C98.882416 7.265228,98.122269 7.580170,97.561798 8.140656C97.001312 8.701126,96.686371 9.461273,96.686371 10.253967C96.686371 11.046661,97.001312 11.806808,97.561798 12.367279C98.122269 12.927765,98.882416 13.242706,99.675110 13.242706C100.467804 13.242706,101.227951 12.927765,101.788422 12.367279C102.348907 11.806808,102.663849 11.046661,102.663849 10.253967Z" style="fill: rgb(100.000000%,100.000000%,100.000000%);stroke: none;"></path>
  <path d="M108.626999 73.326355C108.626999 72.533661,108.312057 71.773514,107.751572 71.213043C107.191101 70.652557,106.430954 70.337616,105.638260 70.337616C104.845566 70.337616,104.085419 70.652557,103.524948 71.213043C102.964462 71.773514,102.649521 72.533661,102.649521 73.326355C102.649521 74.119049,102.964462 74.879196,103.524948 75.439667C104.085419 76.000153,104.845566 76.315094,105.638260 76.315094C106.430954 76.315094,107.191101 76.000153,107.751572 75.439667C108.312057 74.879196,108.626999 74.119049,108.626999 73.326355Z" style="fill: rgb(100.000000%,100.000000%,100.000000%);stroke: none;"></path>
  <path d="M108.658447 53.240967C108.658447 52.448273,108.343506 51.688126,107.783020 51.127655C107.222549 50.567169,106.462402 50.252228,105.669708 50.252228C104.877014 50.252228,104.116867 50.567169,103.556396 51.127655C102.995911 51.688126,102.680969 52.448273,102.680969 53.240967C102.680969 54.033661,102.995911 54.793808,103.556396 55.354279C104.116867 55.914764,104.877014 56.229706,105.669708 56.229706C106.462402 56.229706,107.222549 55.914764,107.783020 55.354279C108.343506 54.793808,108.658447 54.033661,108.658447 53.240967Z" style="fill: rgb(100.000000%,100.000000%,100.000000%);stroke: none;"></path>
  <path d="M109.338806 90.236496C109.338806 89.443802,109.023865 88.683655,108.463379 88.123184C107.902908 87.562698,107.142761 87.247757,106.350067 87.247757C105.557373 87.247757,104.797226 87.562698,104.236755 88.123184C103.676270 88.683655,103.361328 89.443802,103.361328 90.236496C103.361328 91.029190,103.676270 91.789337,104.236755 92.349808C104.797226 92.910294,105.557373 93.225235,106.350067 93.225235C107.142761 93.225235,107.902908 92.910294,108.463379 92.349808C109.023865 91.789337,109.338806 91.029190,109.338806 90.236496Z" style="fill: rgb(100.000000%,100.000000%,100.000000%);stroke: none;"></path>
  <path d="M109.957809 80.296646C109.957809 79.503952,109.642868 78.743805,109.082382 78.183334C108.521912 77.622849,107.761765 77.307907,106.969070 77.307907C106.176376 77.307907,105.416229 77.622849,104.855759 78.183334C104.295273 78.743805,103.980331 79.503952,103.980331 80.296646C103.980331 81.089340,104.295273 81.849487,104.855759 82.409958C105.416229 82.970444,106.176376 83.285385,106.969070 83.285385C107.761765 83.285385,108.521912 82.970444,109.082382 82.409958C109.642868 81.849487,109.957809 81.089340,109.957809 80.296646Z" style="fill: rgb(100.000000%,100.000000%,100.000000%);stroke: none;"></path>
  <path d="M113.030365 97.694870C113.030365 96.902176,112.715424 96.142029,112.154938 95.581558C111.594467 95.021072,110.834320 94.706131,110.041626 94.706131C109.248932 94.706131,108.488785 95.021072,107.928314 95.581558C107.367828 96.142029,107.052887 96.902176,107.052887 97.694870C107.052887 98.487564,107.367828 99.247711,107.928314 99.808182C108.488785 100.368668,109.248932 100.683609,110.041626 100.683609C110.834320 100.683609,111.594467 100.368668,112.154938 99.808182C112.715424 99.247711,113.030365 98.487564,113.030365 97.694870Z" style="fill: rgb(100.000000%,100.000000%,100.000000%);stroke: none;"></path>
  <path d="M108.987762 93.432495C108.987762 92.639801,108.672821 91.879654,108.112335 91.319183C107.551865 90.758698,106.791718 90.443756,105.999023 90.443756C105.206329 90.443756,104.446182 90.758698,103.885712 91.319183C103.325226 91.879654,103.010284 92.639801,103.010284 93.432495C103.010284 94.225189,103.325226 94.985336,103.885712 95.545807C104.446182 96.106293,105.206329 96.421234,105.999023 96.421234C106.791718 96.421234,107.551865 96.106293,108.112335 95.545807C108.672821 94.985336,108.987762 94.225189,108.987762 93.432495Z" style="fill: rgb(100.000000%,100.000000%,100.000000%);stroke: none;"></path>
  <path d="M125.739395 97.335663C125.739395 96.542969,125.424454 95.782822,124.863968 95.222351C124.303497 94.661865,123.543350 94.346924,122.750656 94.346924C121.957962 94.346924,121.197815 94.661865,120.637344 95.222351C120.076859 95.782822,119.761917 96.542969,119.761917 97.335663C119.761917 98.128357,120.076859 98.888504,120.637344 99.448975C121.197815 100.009460,121.957962 100.324402,122.750656 100.324402C123.543350 100.324402,124.303497 100.009460,124.863968 99.448975C125.424454 98.888504,125.739395 98.128357,125.739395 97.335663Z" style="fill: rgb(100.000000%,100.000000%,100.000000%);stroke: none;"></path>
  <path d="M116.242676 97.514175C116.242676 96.721481,115.927734 95.961334,115.367249 95.400864C114.806778 94.840378,114.046631 94.525436,113.253937 94.525436C112.461243 94.525436,111.701096 94.840378,111.140625 95.400864C110.580139 95.961334,110.265198 96.721481,110.265198 97.514175C110.265198 98.306870,110.580139 99.067017,111.140625 99.627487C111.701096 100.187973,112.461243 100.502914,113.253937 100.502914C114.046631 100.502914,114.806778 100.187973,115.367249 99.627487C115.927734 99.067017,116.242676 98.306870,116.242676 97.514175Z" style="fill: rgb(100.000000%,100.000000%,100.000000%);stroke: none;"></path>
  <path d="M151.031937 100.270538C151.031937 99.477844,150.716995 98.717697,150.156509 98.157227C149.596039 97.596741,148.835892 97.281799,148.043198 97.281799C147.250504 97.281799,146.490356 97.596741,145.929886 98.157227C145.369400 98.717697,145.054459 99.477844,145.054459 100.270538C145.054459 101.063232,145.369400 101.823380,145.929886 102.383850C146.490356 102.944336,147.250504 103.259277,148.043198 103.259277C148.835892 103.259277,149.596039 102.944336,150.156509 102.383850C150.716995 101.823380,151.031937 101.063232,151.031937 100.270538Z" style="fill: rgb(100.000000%,100.000000%,100.000000%);stroke: none;"></path>
  <path d="M132.206116 98.606964C132.206116 97.814270,131.891174 97.054123,131.330688 96.493652C130.770218 95.933167,130.010071 95.618225,129.217377 95.618225C128.424683 95.618225,127.664536 95.933167,127.104065 96.493652C126.543579 97.054123,126.228638 97.814270,126.228638 98.606964C126.228638 99.399658,126.543579 100.159805,127.104065 100.720276C127.664536 101.280762,128.424683 101.595703,129.217377 101.595703C130.010071 101.595703,130.770218 101.280762,131.330688 100.720276C131.891174 100.159805,132.206116 99.399658,132.206116 98.606964Z" style="fill: rgb(100.000000%,100.000000%,100.000000%);stroke: none;"></path>
  <path d="M189.581818 115.018768C189.581818 114.226074,189.266876 113.465927,188.706390 112.905457C188.145920 112.344971,187.385773 112.030029,186.593079 112.030029C185.800385 112.030029,185.040237 112.344971,184.479767 112.905457C183.919281 113.465927,183.604340 114.226074,183.604340 115.018768C183.604340 115.811462,183.919281 116.571609,184.479767 117.132080C185.040237 117.692566,185.800385 118.007507,186.593079 118.007507C187.385773 118.007507,188.145920 117.692566,188.706390 117.132080C189.266876 116.571609,189.581818 115.811462,189.581818 115.018768Z" style="fill: rgb(100.000000%,100.000000%,100.000000%);stroke: none;"></path>
  <path d="M164.079346 99.082535C164.079346 98.289841,163.764404 97.529694,163.203918 96.969223C162.643448 96.408737,161.883301 96.093796,161.090607 96.093796C160.297913 96.093796,159.537766 96.408737,158.977295 96.969223C158.416809 97.529694,158.101868 98.289841,158.101868 99.082535C158.101868 99.875229,158.416809 100.635376,158.977295 101.195847C159.537766 101.756332,160.297913 102.071274,161.090607 102.071274C161.883301 102.071274,162.643448 101.756332,163.203918 101.195847C163.764404 100.635376,164.079346 99.875229,164.079346 99.082535Z" style="fill: rgb(100.000000%,100.000000%,100.000000%);stroke: none;"></path>
  <path d="M176.495499 167.141281C176.495499 166.348587,176.180557 165.588440,175.620071 165.027969C175.059601 164.467484,174.299454 164.152542,173.506760 164.152542C172.714066 164.152542,171.953918 164.467484,171.393448 165.027969C170.832962 165.588440,170.518021 166.348587,170.518021 167.141281C170.518021 167.933975,170.832962 168.694122,171.393448 169.254593C171.953918 169.815079,172.714066 170.130020,173.506760 170.130020C174.299454 170.130020,175.059601 169.815079,175.620071 169.254593C176.180557 168.694122,176.495499 167.933975,176.495499 167.141281Z" style="fill: rgb(100.000000%,100.000000%,100.000000%);stroke: none;"></path>
  <path d="M193.574463 134.834213C193.574463 134.041519,193.259521 133.281372,192.699036 132.720901C192.138565 132.160416,191.378418 131.845474,190.585724 131.845474C189.793030 131.845474,189.032883 132.160416,188.472412 132.720901C187.911926 133.281372,187.596985 134.041519,187.596985 134.834213C187.596985 135.626907,187.911926 136.387054,188.472412 136.947525C189.032883 137.508011,189.793030 137.822952,190.585724 137.822952C191.378418 137.822952,192.138565 137.508011,192.699036 136.947525C193.259521 136.387054,193.574463 135.626907,193.574463 134.834213Z" style="fill: rgb(100.000000%,100.000000%,100.000000%);stroke: none;"></path>
  <path d="M127.899261 162.376312C127.899261 161.583618,127.584320 160.823471,127.023834 160.263000C126.463364 159.702515,125.703217 159.387573,124.910522 159.387573C124.117828 159.387573,123.357681 159.702515,122.797211 160.263000C122.236725 160.823471,121.921783 161.583618,121.921783 162.376312C121.921783 163.169006,122.236725 163.929153,122.797211 164.489624C123.357681 165.050110,124.117828 165.365051,124.910522 165.365051C125.703217 165.365051,126.463364 165.050110,127.023834 164.489624C127.584320 163.929153,127.899261 163.169006,127.899261 162.376312Z" style="fill: rgb(100.000000%,100.000000%,100.000000%);stroke: none;"></path>
  <path d="M157.171997 175.001312C157.171997 174.208618,156.857056 173.448471,156.296570 172.888000C155.736099 172.327515,154.975952 172.012573,154.183258 172.012573C153.390564 172.012573,152.630417 172.327515,152.069946 172.888000C151.509460 173.448471,151.194519 174.208618,151.194519 175.001312C151.194519 175.794006,151.509460 176.554153,152.069946 177.114624C152.630417 177.675110,153.390564 177.990051,154.183258 177.990051C154.975952 177.990051,155.736099 177.675110,156.296570 177.114624C156.857056 176.554153,157.171997 175.794006,157.171997 175.001312Z" style="fill: rgb(100.000000%,100.000000%,100.000000%);stroke: none;"></path>
  <path d="M110.376907 131.723480C110.376907 130.930786,110.061966 130.170639,109.501480 129.610168C108.941010 129.049683,108.180862 128.734741,107.388168 128.734741C106.595474 128.734741,105.835327 129.049683,105.274857 129.610168C104.714371 130.170639,104.399429 130.930786,104.399429 131.723480C104.399429 132.516174,104.714371 133.276321,105.274857 133.836792C105.835327 134.397278,106.595474 134.712219,107.388168 134.712219C108.180862 134.712219,108.941010 134.397278,109.501480 133.836792C110.061966 133.276321,110.376907 132.516174,110.376907 131.723480Z" style="fill: rgb(100.000000%,100.000000%,100.000000%);stroke: none;"></path>
  <path d="M120.936478 149.869537C120.936478 149.076843,120.621536 148.316696,120.061050 147.756226C119.500580 147.195740,118.740433 146.880798,117.947739 146.880798C117.155045 146.880798,116.394897 147.195740,115.834427 147.756226C115.273941 148.316696,114.959000 149.076843,114.959000 149.869537C114.959000 150.662231,115.273941 151.422379,115.834427 151.982849C116.394897 152.543335,117.155045 152.858276,117.947739 152.858276C118.740433 152.858276,119.500580 152.543335,120.061050 151.982849C120.621536 151.422379,120.936478 150.662231,120.936478 149.869537Z" style="fill: rgb(100.000000%,100.000000%,100.000000%);stroke: none;"></path>
  <path d="M101.455902 115.164261C101.455902 114.371567,101.140961 113.611420,100.580475 113.050949C100.020004 112.490463,99.259857 112.175522,98.467163 112.175522C97.674469 112.175522,96.914322 112.490463,96.353851 113.050949C95.793365 113.611420,95.478424 114.371567,95.478424 115.164261C95.478424 115.956955,95.793365 116.717102,96.353851 117.277573C96.914322 117.838058,97.674469 118.153000,98.467163 118.153000C99.259857 118.153000,100.020004 117.838058,100.580475 117.277573C101.140961 116.717102,101.455902 115.956955,101.455902 115.164261Z" style="fill: rgb(100.000000%,100.000000%,100.000000%);stroke: none;"></path>
  <path d="M106.495605 125.392105C106.495605 124.599411,106.180664 123.839264,105.620178 123.278793C105.059708 122.718307,104.299561 122.403366,103.506866 122.403366C102.714172 122.403366,101.954025 122.718307,101.393555 123.278793C100.833069 123.839264,100.518127 124.599411,100.518127 125.392105C100.518127 126.184799,100.833069 126.944946,101.393555 127.505417C101.954025 128.065903,102.714172 128.380844,103.506866 128.380844C104.299561 128.380844,105.059708 128.065903,105.620178 127.505417C106.180664 126.944946,106.495605 126.184799,106.495605 125.392105Z" style="fill: rgb(100.000000%,100.000000%,100.000000%);stroke: none;"></path>
  <path d="M94.694290 105.773193C94.694290 104.980499,94.379349 104.220352,93.818863 103.659882C93.258392 103.099396,92.498245 102.784454,91.705551 102.784454C90.912857 102.784454,90.152710 103.099396,89.592239 103.659882C89.031754 104.220352,88.716812 104.980499,88.716812 105.773193C88.716812 106.565887,89.031754 107.326035,89.592239 107.886505C90.152710 108.446991,90.912857 108.761932,91.705551 108.761932C92.498245 108.761932,93.258392 108.446991,93.818863 107.886505C94.379349 107.326035,94.694290 106.565887,94.694290 105.773193Z" style="fill: rgb(100.000000%,100.000000%,100.000000%);stroke: none;"></path>
  <path d="M99.841736 111.459991C99.841736 110.667297,99.526794 109.907150,98.966309 109.346680C98.405838 108.786194,97.645691 108.471252,96.852997 108.471252C96.060303 108.471252,95.300156 108.786194,94.739685 109.346680C94.179199 109.907150,93.864258 110.667297,93.864258 111.459991C93.864258 112.252686,94.179199 113.012833,94.739685 113.573303C95.300156 114.133789,96.060303 114.448730,96.852997 114.448730C97.645691 114.448730,98.405838 114.133789,98.966309 113.573303C99.526794 113.012833,99.841736 112.252686,99.841736 111.459991Z" style="fill: rgb(100.000000%,100.000000%,100.000000%);stroke: none;"></path>
  <path d="M85.327026 98.859711C85.327026 98.067017,85.012085 97.306870,84.451599 96.746399C83.891129 96.185913,83.130981 95.870972,82.338287 95.870972C81.545593 95.870972,80.785446 96.185913,80.224976 96.746399C79.664490 97.306870,79.349548 98.067017,79.349548 98.859711C79.349548 99.652405,79.664490 100.412552,80.224976 100.973022C80.785446 101.533508,81.545593 101.848450,82.338287 101.848450C83.130981 101.848450,83.891129 101.533508,84.451599 100.973022C85.012085 100.412552,85.327026 99.652405,85.327026 98.859711Z" style="fill: rgb(100.000000%,100.000000%,100.000000%);stroke: none;"></path>
  <path d="M91.485214 103.873215C91.485214 103.080521,91.170273 102.320374,90.609787 101.759903C90.049316 101.199417,89.289169 100.884476,88.496475 100.884476C87.703781 100.884476,86.943634 101.199417,86.383163 101.759903C85.822678 102.320374,85.507736 103.080521,85.507736 103.873215C85.507736 104.665909,85.822678 105.426056,86.383163 105.986526C86.943634 106.547012,87.703781 106.861954,88.496475 106.861954C89.289169 106.861954,90.049316 106.547012,90.609787 105.986526C91.170273 105.426056,91.485214 104.665909,91.485214 103.873215Z" style="fill: rgb(100.000000%,100.000000%,100.000000%);stroke: none;"></path>
  <path d="M74.041122 93.948853C74.041122 93.156158,73.726181 92.396011,73.165695 91.835541C72.605225 91.275055,71.845078 90.960114,71.052383 90.960114C70.259689 90.960114,69.499542 91.275055,68.939072 91.835541C68.378586 92.396011,68.063644 93.156158,68.063644 93.948853C68.063644 94.741547,68.378586 95.501694,68.939072 96.062164C69.499542 96.622650,70.259689 96.937592,71.052383 96.937592C71.845078 96.937592,72.605225 96.622650,73.165695 96.062164C73.726181 95.501694,74.041122 94.741547,74.041122 93.948853Z" style="fill: rgb(100.000000%,100.000000%,100.000000%);stroke: none;"></path>
  <path d="M82.298767 95.508972C82.298767 94.716278,81.983826 93.956131,81.423340 93.395660C80.862869 92.835175,80.102722 92.520233,79.310028 92.520233C78.517334 92.520233,77.757187 92.835175,77.196716 93.395660C76.636230 93.956131,76.321289 94.716278,76.321289 95.508972C76.321289 96.301666,76.636230 97.061813,77.196716 97.622284C77.757187 98.182770,78.517334 98.497711,79.310028 98.497711C80.102722 98.497711,80.862869 98.182770,81.423340 97.622284C81.983826 97.061813,82.298767 96.301666,82.298767 95.508972Z" style="fill: rgb(100.000000%,100.000000%,100.000000%);stroke: none;"></path>
  <path d="M63.188492 97.418076C63.188492 96.625381,62.873550 95.865234,62.313065 95.304764C61.752594 94.744278,60.992447 94.429337,60.199753 94.429337C59.407059 94.429337,58.646912 94.744278,58.086441 95.304764C57.525955 95.865234,57.211014 96.625381,57.211014 97.418076C57.211014 98.210770,57.525955 98.970917,58.086441 99.531387C58.646912 100.091873,59.407059 100.406815,60.199753 100.406815C60.992447 100.406815,61.752594 100.091873,62.313065 99.531387C62.873550 98.970917,63.188492 98.210770,63.188492 97.418076Z" style="fill: rgb(100.000000%,100.000000%,100.000000%);stroke: none;"></path>
  <path d="M70.123978 95.793015C70.123978 95.000320,69.809036 94.240173,69.248550 93.679703C68.688080 93.119217,67.927933 92.804276,67.135239 92.804276C66.342545 92.804276,65.582397 93.119217,65.021927 93.679703C64.461441 94.240173,64.146500 95.000320,64.146500 95.793015C64.146500 96.585709,64.461441 97.345856,65.021927 97.906326C65.582397 98.466812,66.342545 98.781754,67.135239 98.781754C67.927933 98.781754,68.688080 98.466812,69.248550 97.906326C69.809036 97.345856,70.123978 96.585709,70.123978 95.793015Z" style="fill: rgb(100.000000%,100.000000%,100.000000%);stroke: none;"></path>
  <path d="M58.524078 103.703308C58.524078 102.910614,58.209137 102.150467,57.648651 101.589996C57.088181 101.029510,56.328033 100.714569,55.535339 100.714569C54.742645 100.714569,53.982498 101.029510,53.422028 101.589996C52.861542 102.150467,52.546600 102.910614,52.546600 103.703308C52.546600 104.496002,52.861542 105.256149,53.422028 105.816620C53.982498 106.377106,54.742645 106.692047,55.535339 106.692047C56.328033 106.692047,57.088181 106.377106,57.648651 105.816620C58.209137 105.256149,58.524078 104.496002,58.524078 103.703308Z" style="fill: rgb(100.000000%,100.000000%,100.000000%);stroke: none;"></path>
  <path d="M59.838135 98.134460C59.838135 97.341766,59.523193 96.581619,58.962708 96.021149C58.402237 95.460663,57.642090 95.145721,56.849396 95.145721C56.056702 95.145721,55.296555 95.460663,54.736084 96.021149C54.175598 96.581619,53.860657 97.341766,53.860657 98.134460C53.860657 98.927155,54.175598 99.687302,54.736084 100.247772C55.296555 100.808258,56.056702 101.123199,56.849396 101.123199C57.642090 101.123199,58.402237 100.808258,58.962708 100.247772C59.523193 99.687302,59.838135 98.927155,59.838135 98.134460Z" style="fill: rgb(100.000000%,100.000000%,100.000000%);stroke: none;"></path>
  <path d="M65.450684 109.705093C65.450684 108.912399,65.135742 108.152252,64.575256 107.591782C64.014786 107.031296,63.254639 106.716354,62.461945 106.716354C61.669250 106.716354,60.909103 107.031296,60.348633 107.591782C59.788147 108.152252,59.473206 108.912399,59.473206 109.705093C59.473206 110.497787,59.788147 111.257935,60.348633 111.818405C60.909103 112.378891,61.669250 112.693832,62.461945 112.693832C63.254639 112.693832,64.014786 112.378891,64.575256 111.818405C65.135742 111.257935,65.450684 110.497787,65.450684 109.705093Z" style="fill: rgb(100.000000%,100.000000%,100.000000%);stroke: none;"></path>
  <path d="M60.944870 105.824387C60.944870 105.031693,60.629929 104.271545,60.069443 103.711075C59.508972 103.150589,58.748825 102.835648,57.956131 102.835648C57.163437 102.835648,56.403290 103.150589,55.842819 103.711075C55.282333 104.271545,54.967392 105.031693,54.967392 105.824387C54.967392 106.617081,55.282333 107.377228,55.842819 107.937698C56.403290 108.498184,57.163437 108.813126,57.956131 108.813126C58.748825 108.813126,59.508972 108.498184,60.069443 107.937698C60.629929 107.377228,60.944870 106.617081,60.944870 105.824387Z" style="fill: rgb(100.000000%,100.000000%,100.000000%);stroke: none;"></path>
  <path d="M72.582047 116.047211C72.582047 115.254517,72.267105 114.494370,71.706619 113.933899C71.146149 113.373413,70.386002 113.058472,69.593307 113.058472C68.800613 113.058472,68.040466 113.373413,67.479996 113.933899C66.919510 114.494370,66.604568 115.254517,66.604568 116.047211C66.604568 116.839905,66.919510 117.600052,67.479996 118.160522C68.040466 118.721008,68.800613 119.035950,69.593307 119.035950C70.386002 119.035950,71.146149 118.721008,71.706619 118.160522C72.267105 117.600052,72.582047 116.839905,72.582047 116.047211Z" style="fill: rgb(100.000000%,100.000000%,100.000000%);stroke: none;"></path>
  <path d="M67.509277 112.010864C67.509277 111.218170,67.194336 110.458023,66.633850 109.897552C66.073380 109.337067,65.313232 109.022125,64.520538 109.022125C63.727844 109.022125,62.967697 109.337067,62.407227 109.897552C61.846741 110.458023,61.531799 111.218170,61.531799 112.010864C61.531799 112.803558,61.846741 113.563705,62.407227 114.124176C62.967697 114.684662,63.727844 114.999603,64.520538 114.999603C65.313232 114.999603,66.073380 114.684662,66.633850 114.124176C67.194336 113.563705,67.509277 112.803558,67.509277 112.010864Z" style="fill: rgb(100.000000%,100.000000%,100.000000%);stroke: none;"></path>
  <path d="M82.333450 121.628006C82.333450 120.835312,82.018509 120.075165,81.458023 119.514694C80.897552 118.954208,80.137405 118.639267,79.344711 118.639267C78.552017 118.639267,77.791870 118.954208,77.231400 119.514694C76.670914 120.075165,76.355972 120.835312,76.355972 121.628006C76.355972 122.420700,76.670914 123.180847,77.231400 123.741318C77.791870 124.301804,78.552017 124.616745,79.344711 124.616745C80.137405 124.616745,80.897552 124.301804,81.458023 123.741318C82.018509 123.180847,82.333450 122.420700,82.333450 121.628006Z" style="fill: rgb(100.000000%,100.000000%,100.000000%);stroke: none;"></path>
  <path d="M75.613144 117.640121C75.613144 116.847427,75.298203 116.087280,74.737717 115.526810C74.177246 114.966324,73.417099 114.651382,72.624405 114.651382C71.831711 114.651382,71.071564 114.966324,70.511093 115.526810C69.950607 116.087280,69.635666 116.847427,69.635666 117.640121C69.635666 118.432816,69.950607 119.192963,70.511093 119.753433C71.071564 120.313919,71.831711 120.628860,72.624405 120.628860C73.417099 120.628860,74.177246 120.313919,74.737717 119.753433C75.298203 119.192963,75.613144 118.432816,75.613144 117.640121Z" style="fill: rgb(100.000000%,100.000000%,100.000000%);stroke: none;"></path>
  <path d="M95.279984 124.072708C95.279984 123.280014,94.965042 122.519867,94.404556 121.959396C93.844086 121.398911,93.083939 121.083969,92.291245 121.083969C91.498550 121.083969,90.738403 121.398911,90.177933 121.959396C89.617447 122.519867,89.302505 123.280014,89.302505 124.072708C89.302505 124.865402,89.617447 125.625549,90.177933 126.186020C90.738403 126.746506,91.498550 127.061447,92.291245 127.061447C93.083939 127.061447,93.844086 126.746506,94.404556 126.186020C94.965042 125.625549,95.279984 124.865402,95.279984 124.072708Z" style="fill: rgb(100.000000%,100.000000%,100.000000%);stroke: none;"></path>
  <path d="M86.176559 124.178284C86.176559 123.385590,85.861618 122.625443,85.301132 122.064972C84.740662 121.504486,83.980515 121.189545,83.187820 121.189545C82.395126 121.189545,81.634979 121.504486,81.074509 122.064972C80.514023 122.625443,80.199081 123.385590,80.199081 124.178284C80.199081 124.970978,80.514023 125.731125,81.074509 126.291595C81.634979 126.852081,82.395126 127.167023,83.187820 127.167023C83.980515 127.167023,84.740662 126.852081,85.301132 126.291595C85.861618 125.731125,86.176559 124.970978,86.176559 124.178284Z" style="fill: rgb(100.000000%,100.000000%,100.000000%);stroke: none;"></path>
  <path d="M107.395065 116.243698C107.395065 115.451004,107.080124 114.690857,106.519638 114.130386C105.959167 113.569901,105.199020 113.254959,104.406326 113.254959C103.613632 113.254959,102.853485 113.569901,102.293015 114.130386C101.732529 114.690857,101.417587 115.451004,101.417587 116.243698C101.417587 117.036392,101.732529 117.796539,102.293015 118.357010C102.853485 118.917496,103.613632 119.232437,104.406326 119.232437C105.199020 119.232437,105.959167 118.917496,106.519638 118.357010C107.080124 117.796539,107.395065 117.036392,107.395065 116.243698Z" style="fill: rgb(100.000000%,100.000000%,100.000000%);stroke: none;"></path>
  <path d="M99.212112 121.127502C99.212112 120.334808,98.897171 119.574661,98.336685 119.014191C97.776215 118.453705,97.016068 118.138763,96.223373 118.138763C95.430679 118.138763,94.670532 118.453705,94.110062 119.014191C93.549576 119.574661,93.234634 120.334808,93.234634 121.127502C93.234634 121.920197,93.549576 122.680344,94.110062 123.240814C94.670532 123.801300,95.430679 124.116241,96.223373 124.116241C97.016068 124.116241,97.776215 123.801300,98.336685 123.240814C98.897171 122.680344,99.212112 121.920197,99.212112 121.127502Z" style="fill: rgb(100.000000%,100.000000%,100.000000%);stroke: none;"></path>
  <path d="M117.377075 106.431412C117.377075 105.638718,117.062134 104.878571,116.501648 104.318100C115.941177 103.757614,115.181030 103.442673,114.388336 103.442673C113.595642 103.442673,112.835495 103.757614,112.275024 104.318100C111.714539 104.878571,111.399597 105.638718,111.399597 106.431412C111.399597 107.224106,111.714539 107.984253,112.275024 108.544724C112.835495 109.105209,113.595642 109.420151,114.388336 109.420151C115.181030 109.420151,115.941177 109.105209,116.501648 108.544724C117.062134 107.984253,117.377075 107.224106,117.377075 106.431412Z" style="fill: rgb(100.000000%,100.000000%,100.000000%);stroke: none;"></path>
  <path d="M112.020782 114.176468C112.020782 113.383774,111.705841 112.623627,111.145355 112.063156C110.584885 111.502670,109.824738 111.187729,109.032043 111.187729C108.239349 111.187729,107.479202 111.502670,106.918732 112.063156C106.358246 112.623627,106.043304 113.383774,106.043304 114.176468C106.043304 114.969162,106.358246 115.729309,106.918732 116.289780C107.479202 116.850266,108.239349 117.165207,109.032043 117.165207C109.824738 117.165207,110.584885 116.850266,111.145355 116.289780C111.705841 115.729309,112.020782 114.969162,112.020782 114.176468Z" style="fill: rgb(100.000000%,100.000000%,100.000000%);stroke: none;"></path>
  <path d="M120.274551 94.069427C120.274551 93.276733,119.959610 92.516586,119.399124 91.956116C118.838654 91.395630,118.078506 91.080688,117.285812 91.080688C116.493118 91.080688,115.732971 91.395630,115.172501 91.956116C114.612015 92.516586,114.297073 93.276733,114.297073 94.069427C114.297073 94.862122,114.612015 95.622269,115.172501 96.182739C115.732971 96.743225,116.493118 97.058167,117.285812 97.058167C118.078506 97.058167,118.838654 96.743225,119.399124 96.182739C119.959610 95.622269,120.274551 94.862122,120.274551 94.069427Z" style="fill: rgb(100.000000%,100.000000%,100.000000%);stroke: none;"></path>
  <path d="M117.824020 101.757233C117.824020 100.964539,117.509079 100.204391,116.948593 99.643921C116.388123 99.083435,115.627975 98.768494,114.835281 98.768494C114.042587 98.768494,113.282440 99.083435,112.721970 99.643921C112.161484 100.204391,111.846542 100.964539,111.846542 101.757233C111.846542 102.549927,112.161484 103.310074,112.721970 103.870544C113.282440 104.431030,114.042587 104.745972,114.835281 104.745972C115.627975 104.745972,116.388123 104.431030,116.948593 103.870544C117.509079 103.310074,117.824020 102.549927,117.824020 101.757233Z" style="fill: rgb(100.000000%,100.000000%,100.000000%);stroke: none;"></path>
  <path d="M116.874847 85.226990C116.874847 84.434296,116.559906 83.674149,115.999420 83.113678C115.438950 82.553192,114.678802 82.238251,113.886108 82.238251C113.093414 82.238251,112.333267 82.553192,111.772797 83.113678C111.212311 83.674149,110.897369 84.434296,110.897369 85.226990C110.897369 86.019684,111.212311 86.779831,111.772797 87.340302C112.333267 87.900787,113.093414 88.215729,113.886108 88.215729C114.678802 88.215729,115.438950 87.900787,115.999420 87.340302C116.559906 86.779831,116.874847 86.019684,116.874847 85.226990Z" style="fill: rgb(100.000000%,100.000000%,100.000000%);stroke: none;"></path>
  <path d="M121.642807 90.294449C121.642807 89.501755,121.327866 88.741608,120.767380 88.181137C120.206909 87.620651,119.446762 87.305710,118.654068 87.305710C117.861374 87.305710,117.101227 87.620651,116.540756 88.181137C115.980270 88.741608,115.665329 89.501755,115.665329 90.294449C115.665329 91.087143,115.980270 91.847290,116.540756 92.407761C117.101227 92.968246,117.861374 93.283188,118.654068 93.283188C119.446762 93.283188,120.206909 92.968246,120.767380 92.407761C121.327866 91.847290,121.642807 91.087143,121.642807 90.294449Z" style="fill: rgb(100.000000%,100.000000%,100.000000%);stroke: none;"></path>
  <path d="M105.195007 88.409286C105.195007 87.616592,104.880066 86.856445,104.319580 86.295975C103.759109 85.735489,102.998962 85.420547,102.206268 85.420547C101.413574 85.420547,100.653427 85.735489,100.092957 86.295975C99.532471 86.856445,99.217529 87.616592,99.217529 88.409286C99.217529 89.201981,99.532471 89.962128,100.092957 90.522598C100.653427 91.083084,101.413574 91.398026,102.206268 91.398026C102.998962 91.398026,103.759109 91.083084,104.319580 90.522598C104.880066 89.962128,105.195007 89.201981,105.195007 88.409286Z" style="fill: rgb(100.000000%,100.000000%,100.000000%);stroke: none;"></path>
  <path d="M112.995132 86.398788C112.995132 85.606094,112.680191 84.845947,112.119705 84.285477C111.559235 83.724991,110.799088 83.410049,110.006393 83.410049C109.213699 83.410049,108.453552 83.724991,107.893082 84.285477C107.332596 84.845947,107.017654 85.606094,107.017654 86.398788C107.017654 87.191483,107.332596 87.951630,107.893082 88.512100C108.453552 89.072586,109.213699 89.387527,110.006393 89.387527C110.799088 89.387527,111.559235 89.072586,112.119705 88.512100C112.680191 87.951630,112.995132 87.191483,112.995132 86.398788Z" style="fill: rgb(100.000000%,100.000000%,100.000000%);stroke: none;"></path>
  <path d="M93.058472 93.590759C93.058472 92.798065,92.743530 92.037918,92.183044 91.477448C91.622574 90.916962,90.862427 90.602020,90.069733 90.602020C89.277039 90.602020,88.516891 90.916962,87.956421 91.477448C87.395935 92.037918,87.080994 92.798065,87.080994 93.590759C87.080994 94.383453,87.395935 95.143600,87.956421 95.704071C88.516891 96.264557,89.277039 96.579498,90.069733 96.579498C90.862427 96.579498,91.622574 96.264557,92.183044 95.704071C92.743530 95.143600,93.058472 94.383453,93.058472 93.590759Z" style="fill: rgb(100.000000%,100.000000%,100.000000%);stroke: none;"></path>
  <path d="M100.522583 88.595398C100.522583 87.802704,100.207642 87.042557,99.647156 86.482086C99.086685 85.921600,98.326538 85.606659,97.533844 85.606659C96.741150 85.606659,95.981003 85.921600,95.420532 86.482086C94.860046 87.042557,94.545105 87.802704,94.545105 88.595398C94.545105 89.388092,94.860046 90.148239,95.420532 90.708710C95.981003 91.269196,96.741150 91.584137,97.533844 91.584137C98.326538 91.584137,99.086685 91.269196,99.647156 90.708710C100.207642 90.148239,100.522583 89.388092,100.522583 88.595398Z" style="fill: rgb(100.000000%,100.000000%,100.000000%);stroke: none;"></path>
  <path d="M86.751389 104.393707C86.751389 103.601013,86.436447 102.840866,85.875961 102.280396C85.315491 101.719910,84.555344 101.404968,83.762650 101.404968C82.969955 101.404968,82.209808 101.719910,81.649338 102.280396C81.088852 102.840866,80.773911 103.601013,80.773911 104.393707C80.773911 105.186401,81.088852 105.946548,81.649338 106.507019C82.209808 107.067505,82.969955 107.382446,83.762650 107.382446C84.555344 107.382446,85.315491 107.067505,85.875961 106.507019C86.436447 105.946548,86.751389 105.186401,86.751389 104.393707Z" style="fill: rgb(100.000000%,100.000000%,100.000000%);stroke: none;"></path>
  <path d="M91.106461 97.827103C91.106461 97.034409,90.791519 96.274261,90.231033 95.713791C89.670563 95.153305,88.910416 94.838364,88.117722 94.838364C87.325027 94.838364,86.564880 95.153305,86.004410 95.713791C85.443924 96.274261,85.128983 97.034409,85.128983 97.827103C85.128983 98.619797,85.443924 99.379944,86.004410 99.940414C86.564880 100.500900,87.325027 100.815842,88.117722 100.815842C88.910416 100.815842,89.670563 100.500900,90.231033 99.940414C90.791519 99.379944,91.106461 98.619797,91.106461 97.827103Z" style="fill: rgb(100.000000%,100.000000%,100.000000%);stroke: none;"></path>
  <path d="M81.073532 112.935623C81.073532 112.142929,80.758591 111.382782,80.198105 110.822311C79.637634 110.261826,78.877487 109.946884,78.084793 109.946884C77.292099 109.946884,76.531952 110.261826,75.971481 110.822311C75.410995 111.382782,75.096054 112.142929,75.096054 112.935623C75.096054 113.728317,75.410995 114.488464,75.971481 115.048935C76.531952 115.609421,77.292099 115.924362,78.084793 115.924362C78.877487 115.924362,79.637634 115.609421,80.198105 115.048935C80.758591 114.488464,81.073532 113.728317,81.073532 112.935623Z" style="fill: rgb(100.000000%,100.000000%,100.000000%);stroke: none;"></path>
  <path d="M84.507980 106.990143C84.507980 106.197449,84.193039 105.437302,83.632553 104.876831C83.072083 104.316345,82.311935 104.001404,81.519241 104.001404C80.726547 104.001404,79.966400 104.316345,79.405930 104.876831C78.845444 105.437302,78.530502 106.197449,78.530502 106.990143C78.530502 107.782837,78.845444 108.542984,79.405930 109.103455C79.966400 109.663940,80.726547 109.978882,81.519241 109.978882C82.311935 109.978882,83.072083 109.663940,83.632553 109.103455C84.193039 108.542984,84.507980 107.782837,84.507980 106.990143Z" style="fill: rgb(100.000000%,100.000000%,100.000000%);stroke: none;"></path>
  <path d="M76.212753 124.650101C76.212753 123.857407,75.897812 123.097260,75.337326 122.536789C74.776855 121.976303,74.016708 121.661362,73.224014 121.661362C72.431320 121.661362,71.671173 121.976303,71.110703 122.536789C70.550217 123.097260,70.235275 123.857407,70.235275 124.650101C70.235275 125.442795,70.550217 126.202942,71.110703 126.763412C71.671173 127.323898,72.431320 127.638840,73.224014 127.638840C74.016708 127.638840,74.776855 127.323898,75.337326 126.763412C75.897812 126.202942,76.212753 125.442795,76.212753 124.650101Z" style="fill: rgb(100.000000%,100.000000%,100.000000%);stroke: none;"></path>
  <path d="M79.939529 116.219421C79.939529 115.426727,79.624588 114.666580,79.064102 114.106110C78.503632 113.545624,77.743484 113.230682,76.950790 113.230682C76.158096 113.230682,75.397949 113.545624,74.837479 114.106110C74.276993 114.666580,73.962051 115.426727,73.962051 116.219421C73.962051 117.012115,74.276993 117.772263,74.837479 118.332733C75.397949 118.893219,76.158096 119.208160,76.950790 119.208160C77.743484 119.208160,78.503632 118.893219,79.064102 118.332733C79.624588 117.772263,79.939529 117.012115,79.939529 116.219421Z" style="fill: rgb(100.000000%,100.000000%,100.000000%);stroke: none;"></path>
  <path d="M66.812164 134.239517C59.379608 144.595001,46.318451 149.276352,34.000000 146.000000C13.680450 140.595596,4.456802 118.574493,3.647171 96.670670C2.781570 73.253052,12.580276 49.505966,34.000000 46.588364C47.413712 44.761261,60.546799 53.900665,73.719543 50.242401C86.692337 46.639664,93.354950 32.303894,105.837921 27.519211C124.920746 20.204819,142.937668 35.757538,156.803497 52.241058C170.474884 68.493439,182.364136 88.741577,171.630432 105.668762C164.970276 116.171906,150.974365 119.711029,144.681168 130.472702C138.133560 141.669434,142.521774 155.954224,137.398422 167.762207C128.595795 188.049957,102.590775 190.419601,79.371246 185.130569C56.916992 180.015854,34.890167 167.727570,34.000000 146.000000C33.529282 134.510651,40.092346 124.306335,48.436600 116.318436C51.953094 112.952118,55.797379 109.917191,60.133530 107.699707C62.190842 106.647614,64.467865 105.599640,65.154419 103.400101C65.881393 101.071091,64.428787 98.822723,63.152359 96.726257C59.743591 91.127533,57.692871 84.816727,54.402924 79.148880C47.901962 67.949142,36.726593 59.364761,34.000000 46.588364C30.111298 28.366486,43.383118 11.275436,62.100723 6.603226C80.352524 2.047287,99.675110 10.253967,105.837921 27.519211C110.269348 39.933960,105.669708 53.240967,105.649231 66.319412C105.638260 73.326355,106.969070 80.296646,106.533310 87.293991C106.350067 90.236496,105.999023 93.432495,108.019714 95.563034C110.041626 97.694870,113.253937 97.514175,116.205460 97.458694C122.750656 97.335663,129.217377 98.606964,135.733887 99.182800C148.043198 100.270538,161.090607 99.082535,171.630432 105.668762C186.593079 115.018768,190.585724 134.834213,182.174515 150.745117C173.506760 167.141281,154.183258 175.001312,137.398422 167.762207C124.910522 162.376312,117.947739 149.869537,111.118835 138.134430C107.388168 131.723480,103.506866 125.392105,100.227859 118.737518C98.467163 115.164261,96.852997 111.459991,94.175079 108.501480C91.705551 105.773193,88.496475 103.873215,85.646606 101.553070C82.338287 98.859711,79.310028 95.508972,75.096161 94.712845C71.052383 93.948853,67.135239 95.793015,63.152359 96.726257C60.199753 97.418076,56.849396 98.134460,56.175446 100.990585C55.535339 103.703308,57.956131 105.824387,60.133530 107.699707C62.461945 109.705093,64.520538 112.010864,66.925735 113.924652C69.593307 116.047211,72.624405 117.640121,75.554230 119.378708C79.344711 121.628006,83.187820 124.178284,87.608612 124.127014C92.291245 124.072708,96.223373 121.127502,100.227859 118.737518C104.406326 116.243698,109.032043 114.176468,111.811218 110.157852C114.388336 106.431412,114.835281 101.757233,116.205460 97.458694C117.285812 94.069427,118.654068 90.294449,116.279190 87.770401C113.886108 85.226990,110.006393 86.398788,106.533310 87.293991C102.206268 88.409286,97.533844 88.595398,93.802078 91.092880C90.069733 93.590759,88.117722 97.827103,85.646606 101.553070C83.762650 104.393707,81.519241 106.990143,79.813583 109.942856C78.084793 112.935623,76.950790 116.219421,75.554230 119.378708C73.224014 124.650101,70.171906 129.558517,66.812164 134.239517" style="stroke:rgb(0.000000%,0.000000%,0.000000%); stroke-width: 0.498138;stroke-linecap: round;stroke-linejoin: round;stroke-miterlimit: 10.000000;fill: none;"></path>
  <path d="M66.812164 134.239517C59.379608 144.595001,46.318451 149.276352,34.000000 146.000000" style="stroke:rgb(0.000000%,0.000000%,0.000000%); stroke-width: 1.494400;stroke-linecap: round;stroke-linejoin: round;stroke-miterlimit: 10.000000;fill: none;"></path>
  <path d="M85.646606 101.553070C83.762650 104.393707,81.519241 106.990143,79.813583 109.942856C78.084793 112.935623,76.950790 116.219421,75.554230 119.378708C73.224014 124.650101,70.171906 129.558517,66.812164 134.239517" style="stroke:rgb(0.000000%,0.000000%,0.000000%); stroke-width: 1.494400;stroke-linecap: round;stroke-linejoin: round;stroke-miterlimit: 10.000000;fill: none;"></path>
  <path d="M36.988739 146.000000C36.988739 145.207306,36.673798 144.447159,36.113312 143.886688C35.552841 143.326202,34.792694 143.011261,34.000000 143.011261C33.207306 143.011261,32.447159 143.326202,31.886688 143.886688C31.326202 144.447159,31.011261 145.207306,31.011261 146.000000C31.011261 146.792694,31.326202 147.552841,31.886688 148.113312C32.447159 148.673798,33.207306 148.988739,34.000000 148.988739C34.792694 148.988739,35.552841 148.673798,36.113312 148.113312C36.673798 147.552841,36.988739 146.792694,36.988739 146.000000Z" style="fill: rgb(100.000000%,100.000000%,100.000000%);stroke: none;"></path>
  <path d="M48.599091 171.795090C40.174332 165.367737,34.445084 156.863785,34.000000 146.000000C33.764633 140.255325,35.287735 134.831909,37.912704 129.846161" style="stroke:rgb(0.000000%,0.000000%,0.000000%); stroke-width: 0.498138;stroke-linecap: round;stroke-linejoin: round;stroke-miterlimit: 10.000000;fill: none;"></path>
  <path d="M108.826660 27.519211C108.826660 26.726517,108.511719 25.966370,107.951233 25.405899C107.390762 24.845413,106.630615 24.530472,105.837921 24.530472C105.045227 24.530472,104.285080 24.845413,103.724609 25.405899C103.164124 25.966370,102.849182 26.726517,102.849182 27.519211C102.849182 28.311905,103.164124 29.072052,103.724609 29.632523C104.285080 30.193008,105.045227 30.507950,105.837921 30.507950C106.630615 30.507950,107.390762 30.193008,107.951233 29.632523C108.511719 29.072052,108.826660 28.311905,108.826660 27.519211Z" style="fill: rgb(100.000000%,100.000000%,100.000000%);stroke: none;"></path>
  <path d="M88.502701 8.878281C96.385178 12.518616,102.756516 18.886597,105.837921 27.519211C108.053635 33.726593,108.011581 40.157028,107.413040 46.670441" style="stroke:rgb(0.000000%,0.000000%,0.000000%); stroke-width: 0.498138;stroke-linecap: round;stroke-linejoin: round;stroke-miterlimit: 10.000000;fill: none;"></path>
  <path d="M140.387161 167.762207C140.387161 166.969513,140.072220 166.209366,139.511734 165.648895C138.951263 165.088409,138.191116 164.773468,137.398422 164.773468C136.605728 164.773468,135.845581 165.088409,135.285110 165.648895C134.724625 166.209366,134.409683 166.969513,134.409683 167.762207C134.409683 168.554901,134.724625 169.315048,135.285110 169.875519C135.845581 170.436005,136.605728 170.750946,137.398422 170.750946C138.191116 170.750946,138.951263 170.436005,139.511734 169.875519C140.072220 169.315048,140.387161 168.554901,140.387161 167.762207Z" style="fill: rgb(100.000000%,100.000000%,100.000000%);stroke: none;"></path>
  <path d="M162.830368 168.116898C154.817917 171.226532,145.790833 171.381760,137.398422 167.762207C131.154465 165.069260,126.291794 160.596085,122.136490 155.329269" style="stroke:rgb(0.000000%,0.000000%,0.000000%); stroke-width: 0.498138;stroke-linecap: round;stroke-linejoin: round;stroke-miterlimit: 10.000000;fill: none;"></path>
  <path d="M63.122269 107.699707C63.122269 106.907013,62.807327 106.146866,62.246841 105.586395C61.686371 105.025909,60.926224 104.710968,60.133530 104.710968C59.340836 104.710968,58.580688 105.025909,58.020218 105.586395C57.459732 106.146866,57.144791 106.907013,57.144791 107.699707C57.144791 108.492401,57.459732 109.252548,58.020218 109.813019C58.580688 110.373505,59.340836 110.688446,60.133530 110.688446C60.926224 110.688446,61.686371 110.373505,62.246841 109.813019C62.807327 109.252548,63.122269 108.492401,63.122269 107.699707Z" style="fill: rgb(100.000000%,100.000000%,100.000000%);stroke: none;"></path>
  <path d="M53.977707 111.578247C55.920349 110.121536,57.965454 108.808441,60.133530 107.699707C61.162186 107.173660,62.245773 106.648636,63.158020 105.980179" style="stroke:rgb(0.000000%,0.000000%,0.000000%); stroke-width: 0.498138;stroke-linecap: round;stroke-linejoin: round;stroke-miterlimit: 10.000000;fill: none;"></path>
  <path d="M36.988739 46.588364C36.988739 45.795670,36.673798 45.035522,36.113312 44.475052C35.552841 43.914566,34.792694 43.599625,34.000000 43.599625C33.207306 43.599625,32.447159 43.914566,31.886688 44.475052C31.326202 45.035522,31.011261 45.795670,31.011261 46.588364C31.011261 47.381058,31.326202 48.141205,31.886688 48.701675C32.447159 49.262161,33.207306 49.577103,34.000000 49.577103C34.792694 49.577103,35.552841 49.262161,36.113312 48.701675C36.673798 48.141205,36.988739 47.381058,36.988739 46.588364Z" style="fill: rgb(100.000000%,100.000000%,100.000000%);stroke: none;"></path>
  <path d="M10.466599 63.942001C15.485535 54.713333,23.290146 48.047165,34.000000 46.588364C40.706863 45.674805,47.343567 47.502884,53.950150 49.102066" style="stroke:rgb(0.000000%,0.000000%,0.000000%); stroke-width: 0.498138;stroke-linecap: round;stroke-linejoin: round;stroke-miterlimit: 10.000000;fill: none;"></path>
  <path d="M109.522049 87.293991C109.522049 86.501297,109.207108 85.741150,108.646622 85.180679C108.086151 84.620193,107.326004 84.305252,106.533310 84.305252C105.740616 84.305252,104.980469 84.620193,104.419998 85.180679C103.859512 85.741150,103.544571 86.501297,103.544571 87.293991C103.544571 88.086685,103.859512 88.846832,104.419998 89.407303C104.980469 89.967789,105.740616 90.282730,106.533310 90.282730C107.326004 90.282730,108.086151 89.967789,108.646622 89.407303C109.207108 88.846832,109.522049 88.086685,109.522049 87.293991Z" style="fill: rgb(100.000000%,100.000000%,100.000000%);stroke: none;"></path>
  <path d="M111.811234 86.242722C110.108047 86.329651,108.269852 86.846390,106.533310 87.293991C104.369781 87.851639,102.119919 88.177002,99.944458 88.675125" style="stroke:rgb(0.000000%,0.000000%,0.000000%); stroke-width: 0.498138;stroke-linecap: round;stroke-linejoin: round;stroke-miterlimit: 10.000000;fill: none;"></path>
  <path d="M174.619171 105.668762C174.619171 104.876068,174.304230 104.115921,173.743744 103.555450C173.183273 102.994965,172.423126 102.680023,171.630432 102.680023C170.837738 102.680023,170.077591 102.994965,169.517120 103.555450C168.956635 104.115921,168.641693 104.876068,168.641693 105.668762C168.641693 106.461456,168.956635 107.221603,169.517120 107.782074C170.077591 108.342560,170.837738 108.657501,171.630432 108.657501C172.423126 108.657501,173.183273 108.342560,173.743744 107.782074C174.304230 107.221603,174.619171 106.461456,174.619171 105.668762Z" style="fill: rgb(100.000000%,100.000000%,100.000000%);stroke: none;"></path>
  <path d="M173.368881 78.701874C176.708405 87.911346,176.997284 97.205170,171.630432 105.668762C168.300354 110.920334,163.136337 114.430908,158.018188 117.973801" style="stroke:rgb(0.000000%,0.000000%,0.000000%); stroke-width: 0.498138;stroke-linecap: round;stroke-linejoin: round;stroke-miterlimit: 10.000000;fill: none;"></path>
  <path d="M103.216599 118.737518C103.216599 117.944824,102.901657 117.184677,102.341171 116.624207C101.780701 116.063721,101.020554 115.748779,100.227859 115.748779C99.435165 115.748779,98.675018 116.063721,98.114548 116.624207C97.554062 117.184677,97.239120 117.944824,97.239120 118.737518C97.239120 119.530212,97.554062 120.290359,98.114548 120.850830C98.675018 121.411316,99.435165 121.726257,100.227859 121.726257C101.020554 121.726257,101.780701 121.411316,102.341171 120.850830C102.901657 120.290359,103.216599 119.530212,103.216599 118.737518Z" style="fill: rgb(100.000000%,100.000000%,100.000000%);stroke: none;"></path>
  <path d="M94.172546 122.308136C96.241470 121.266296,98.225616 119.932510,100.227859 118.737518C102.317093 117.490601,104.518143 116.350342,106.544281 115.019470" style="stroke:rgb(0.000000%,0.000000%,0.000000%); stroke-width: 0.498138;stroke-linecap: round;stroke-linejoin: round;stroke-miterlimit: 10.000000;fill: none;"></path>
  <path d="M66.141098 96.726257C66.141098 95.933563,65.826157 95.173416,65.265671 94.612946C64.705200 94.052460,63.945053 93.737518,63.152359 93.737518C62.359665 93.737518,61.599518 94.052460,61.039047 94.612946C60.478561 95.173416,60.163620 95.933563,60.163620 96.726257C60.163620 97.518951,60.478561 98.279099,61.039047 98.839569C61.599518 99.400055,62.359665 99.714996,63.152359 99.714996C63.945053 99.714996,64.705200 99.400055,65.265671 98.839569C65.826157 98.279099,66.141098 97.518951,66.141098 96.726257Z" style="fill: rgb(100.000000%,100.000000%,100.000000%);stroke: none;"></path>
  <path d="M69.101410 95.083099C67.118805 95.565292,65.143799 96.259644,63.152359 96.726257C61.676056 97.072174,60.100311 97.424225,58.809402 98.046814" style="stroke:rgb(0.000000%,0.000000%,0.000000%); stroke-width: 0.498138;stroke-linecap: round;stroke-linejoin: round;stroke-miterlimit: 10.000000;fill: none;"></path>
  <path d="M78.542969 119.378708C78.542969 118.586014,78.228027 117.825867,77.667542 117.265396C77.107071 116.704910,76.346924 116.389969,75.554230 116.389969C74.761536 116.389969,74.001389 116.704910,73.440918 117.265396C72.880432 117.825867,72.565491 118.586014,72.565491 119.378708C72.565491 120.171402,72.880432 120.931549,73.440918 121.492020C74.001389 122.052505,74.761536 122.367447,75.554230 122.367447C76.346924 122.367447,77.107071 122.052505,77.667542 121.492020C78.228027 120.931549,78.542969 120.171402,78.542969 119.378708Z" style="fill: rgb(100.000000%,100.000000%,100.000000%);stroke: none;"></path>
  <path d="M77.559311 114.598358C76.885147 116.188309,76.252502 117.799072,75.554230 119.378708C74.389114 122.014404,73.043533 124.559357,71.569260 127.030518" style="stroke:rgb(0.000000%,0.000000%,0.000000%); stroke-width: 1.494400;stroke-linecap: round;stroke-linejoin: round;stroke-miterlimit: 10.000000;fill: none;"></path>
  <path d="M119.194199 97.458694C119.194199 96.666000,118.879257 95.905853,118.318771 95.345383C117.758301 94.784897,116.998154 94.469955,116.205460 94.469955C115.412766 94.469955,114.652618 94.784897,114.092148 95.345383C113.531662 95.905853,113.216721 96.666000,113.216721 97.458694C113.216721 98.251389,113.531662 99.011536,114.092148 99.572006C114.652618 100.132492,115.412766 100.447433,116.205460 100.447433C116.998154 100.447433,117.758301 100.132492,118.318771 99.572006C118.879257 99.011536,119.194199 98.251389,119.194199 97.458694Z" style="fill: rgb(100.000000%,100.000000%,100.000000%);stroke: none;"></path>
  <path d="M111.763992 97.331116C113.188751 97.545471,114.729706 97.486435,116.205460 97.458694C119.478058 97.397171,122.731049 97.684250,125.980438 98.058685" style="stroke:rgb(0.000000%,0.000000%,0.000000%); stroke-width: 0.498138;stroke-linecap: round;stroke-linejoin: round;stroke-miterlimit: 10.000000;fill: none;"></path>
  <path d="M88.635345 101.553070C88.635345 100.760376,88.320404 100.000229,87.759918 99.439758C87.199448 98.879272,86.439301 98.564331,85.646606 98.564331C84.853912 98.564331,84.093765 98.879272,83.533295 99.439758C82.972809 100.000229,82.657867 100.760376,82.657867 101.553070C82.657867 102.345764,82.972809 103.105911,83.533295 103.666382C84.093765 104.226868,84.853912 104.541809,85.646606 104.541809C86.439301 104.541809,87.199448 104.226868,87.759918 103.666382C88.320404 103.105911,88.635345 102.345764,88.635345 101.553070Z" style="fill: rgb(100.000000%,100.000000%,100.000000%);stroke: none;"></path>
  <path d="M90.053467 104.874207C88.586273 103.768158,87.071533 102.713135,85.646606 101.553070C83.992447 100.206390,82.408295 98.695358,80.710953 97.421478" style="stroke:rgb(0.000000%,0.000000%,0.000000%); stroke-width: 0.498138;stroke-linecap: round;stroke-linejoin: round;stroke-miterlimit: 10.000000;fill: none;"></path>
  <path d="M79.813583 109.942856C78.430542 112.337082,77.428177 114.917557,76.367508 117.471542" style="stroke:rgb(0.000000%,0.000000%,0.000000%); stroke-width: 0.498138;stroke-linecap: round;stroke-linejoin: round;stroke-miterlimit: 10.000000;fill: none;"></path>
  <path d="M76.409088 112.471741C76.347290 114.134949,76.369034 115.803635,76.367508 117.471542C77.547989 116.293259,78.712585 115.097961,79.932373 113.965607Z" style="stroke:rgb(0.000000%,0.000000%,0.000000%); stroke-width: 0.498138;fill: rgb(0.000000%,0.000000%,0.000000%);"></path>
  <path d="M79.813583 109.942856C78.430542 112.337082,77.428177 114.917557,76.367508 117.471542" style="stroke:rgb(0.000000%,0.000000%,0.000000%); stroke-width: 0.498138;stroke-linecap: round;stroke-linejoin: round;stroke-miterlimit: 10.000000;fill: none;"></path>
  <path d="M76.368179 114.471542C76.360962 115.470932,76.368423 116.471359,76.367508 117.471542C77.075394 116.764969,77.777557 116.052292,78.489334 115.350723Z" style="stroke:rgb(0.000000%,0.000000%,0.000000%); stroke-width: 0.498138;fill: rgb(0.000000%,0.000000%,0.000000%);"></path>
  <path d="M73.719543 50.242401C84.097824 47.360199,90.437546 37.608810,98.949646 31.373810" style="stroke:rgb(0.000000%,0.000000%,0.000000%); stroke-width: 0.498138;stroke-linecap: round;stroke-linejoin: round;stroke-miterlimit: 10.000000;fill: none;"></path>
  <path d="M97.478516 33.988541C97.944412 33.099442,98.432068 32.225830,98.949646 31.373810C97.981171 31.610291,97.018631 31.883163,96.060486 32.182419Z" style="stroke:rgb(0.000000%,0.000000%,0.000000%); stroke-width: 0.498138;fill: rgb(0.000000%,0.000000%,0.000000%);"></path>
  <path d="M144.681168 130.472702C139.443054 139.430115,141.203934 150.363907,139.494614 160.424835" style="stroke:rgb(0.000000%,0.000000%,0.000000%); stroke-width: 0.498138;stroke-linecap: round;stroke-linejoin: round;stroke-miterlimit: 10.000000;fill: none;"></path>
  <path d="M138.737488 157.521896C139.016983 158.485413,139.272690 159.452637,139.494614 160.424835C140.025162 159.580475,140.528275 158.715729,141.011963 157.836807Z" style="stroke:rgb(0.000000%,0.000000%,0.000000%); stroke-width: 0.498138;fill: rgb(0.000000%,0.000000%,0.000000%);"></path>
  <path d="M48.436600 116.318436C51.249802 113.625366,54.272797 111.144394,57.589584 109.124374" style="stroke:rgb(0.000000%,0.000000%,0.000000%); stroke-width: 0.498138;stroke-linecap: round;stroke-linejoin: round;stroke-miterlimit: 10.000000;fill: none;"></path>
  <path d="M55.905014 111.606689C56.438782 110.760696,56.999329 109.932144,57.589584 109.124374C56.601044 109.278152,55.618774 109.467667,54.643143 109.688416Z" style="stroke:rgb(0.000000%,0.000000%,0.000000%); stroke-width: 0.498138;fill: rgb(0.000000%,0.000000%,0.000000%);"></path>
  <path d="M105.649231 66.319412C105.640457 71.924988,106.490417 77.507095,106.607651 83.098389" style="stroke:rgb(0.000000%,0.000000%,0.000000%); stroke-width: 0.498138;stroke-linecap: round;stroke-linejoin: round;stroke-miterlimit: 10.000000;fill: none;"></path>
  <path d="M105.345993 80.376541C105.782516 81.277023,106.205841 82.183090,106.607651 83.098389C106.970764 82.167068,107.312119 81.227036,107.640213 80.281631Z" style="stroke:rgb(0.000000%,0.000000%,0.000000%); stroke-width: 0.498138;fill: rgb(0.000000%,0.000000%,0.000000%);"></path>
  <path d="M108.019714 95.563034C109.637253 97.268509,112.016647 97.493942,114.414886 97.487503" style="stroke:rgb(0.000000%,0.000000%,0.000000%); stroke-width: 0.498138;stroke-linecap: round;stroke-linejoin: round;stroke-miterlimit: 10.000000;fill: none;"></path>
  <path d="M111.568573 98.435318C112.519531 98.233124,113.473663 97.880325,114.414886 97.487503C113.471558 97.099716,112.547455 96.674500,111.732056 96.145004Z" style="stroke:rgb(0.000000%,0.000000%,0.000000%); stroke-width: 0.498138;fill: rgb(0.000000%,0.000000%,0.000000%);"></path>
  <path d="M111.118835 138.134430C108.134293 133.005646,105.053329 127.927795,102.261490 122.694641" style="stroke:rgb(0.000000%,0.000000%,0.000000%); stroke-width: 0.498138;stroke-linecap: round;stroke-linejoin: round;stroke-miterlimit: 10.000000;fill: none;"></path>
  <path d="M104.595352 124.579544C103.812378 123.957397,103.033997 123.329620,102.261490 122.694641C102.358704 123.689880,102.465210 124.684204,102.578903 125.677780Z" style="stroke:rgb(0.000000%,0.000000%,0.000000%); stroke-width: 0.498138;fill: rgb(0.000000%,0.000000%,0.000000%);"></path>
  <path d="M94.175079 108.501480C92.199448 106.318848,89.750504 104.666321,87.390808 102.904709" style="stroke:rgb(0.000000%,0.000000%,0.000000%); stroke-width: 0.498138;stroke-linecap: round;stroke-linejoin: round;stroke-miterlimit: 10.000000;fill: none;"></path>
  <path d="M90.302368 103.627777C89.334335 103.381287,88.360229 103.150787,87.390808 102.904709C87.902283 103.764191,88.428085 104.615997,88.938263 105.474823Z" style="stroke:rgb(0.000000%,0.000000%,0.000000%); stroke-width: 0.498138;fill: rgb(0.000000%,0.000000%,0.000000%);"></path>
  <path d="M87.608612 124.127014C91.354736 124.083572,94.620529 122.189941,97.827301 120.210556" style="stroke:rgb(0.000000%,0.000000%,0.000000%); stroke-width: 0.498138;stroke-linecap: round;stroke-linejoin: round;stroke-miterlimit: 10.000000;fill: none;"></path>
  <path d="M96.027771 122.611023C96.647202 121.833328,97.240341 121.023956,97.827301 120.210556C96.837082 120.370667,95.845352 120.523544,94.857452 120.635437Z" style="stroke:rgb(0.000000%,0.000000%,0.000000%); stroke-width: 0.498138;fill: rgb(0.000000%,0.000000%,0.000000%);"></path>
  <path d="M116.279190 87.770401C114.364716 85.735657,111.498779 86.078674,108.650772 86.755615" style="stroke:rgb(0.000000%,0.000000%,0.000000%); stroke-width: 0.498138;stroke-linecap: round;stroke-linejoin: round;stroke-miterlimit: 10.000000;fill: none;"></path>
  <path d="M111.192001 85.161118C110.330475 85.590836,109.481766 86.154724,108.650772 86.755615C109.663254 86.918335,110.662109 87.119766,111.575180 87.425095Z" style="stroke:rgb(0.000000%,0.000000%,0.000000%); stroke-width: 0.498138;fill: rgb(0.000000%,0.000000%,0.000000%);"></path>
  <path d="M63.821518 136.949722L69.802811 136.949722L69.802811 129.529327L63.821518 129.529327Z" style="fill: rgb(100.000000%,100.000000%,100.000000%);stroke: none;"></path>
  <path d="M63.821518 138.949722L69.802811 138.949722L69.802811 131.529327L63.821518 131.529327Z" style="fill: rgb(100.000000%,100.000000%,100.000000%);stroke: none;"></path>
  <g transform="translate(64.321518 137.449722)" style="fill: rgb(0.000000%,0.000000%,0.000000%);">
    <use xlink:href="#GLYPHcmr10_49"></use>
  </g>
  <path d="M0.656525 99.380875L6.637817 99.380875L6.637817 91.960480L0.656525 91.960480Z" style="fill: rgb(100.000000%,100.000000%,100.000000%);stroke: none;"></path>
  <path d="M0.656525 101.380875L6.637817 101.380875L6.637817 93.960480L0.656525 93.960480Z" style="fill: rgb(100.000000%,100.000000%,100.000000%);stroke: none;"></path>
  <g transform="translate(1.156525 99.880875)" style="fill: rgb(0.000000%,0.000000%,0.000000%);">
    <use xlink:href="#GLYPHcmr10_50"></use>
  </g>
  <path d="M153.812851 54.951263L159.794144 54.951263L159.794144 47.530869L153.812851 47.530869Z" style="fill: rgb(100.000000%,100.000000%,100.000000%);stroke: none;"></path>
  <path d="M153.812851 56.951263L159.794144 56.951263L159.794144 49.530869L153.812851 49.530869Z" style="fill: rgb(100.000000%,100.000000%,100.000000%);stroke: none;"></path>
  <g transform="translate(154.312851 55.451263)" style="fill: rgb(0.000000%,0.000000%,0.000000%);">
    <use xlink:href="#GLYPHcmr10_51"></use>
  </g>
  <path d="M76.380600 187.840775L82.361893 187.840775L82.361893 180.420380L76.380600 180.420380Z" style="fill: rgb(100.000000%,100.000000%,100.000000%);stroke: none;"></path>
  <path d="M76.380600 189.840775L82.361893 189.840775L82.361893 182.420380L76.380600 182.420380Z" style="fill: rgb(100.000000%,100.000000%,100.000000%);stroke: none;"></path>
  <g transform="translate(76.880600 188.340775)" style="fill: rgb(0.000000%,0.000000%,0.000000%);">
    <use xlink:href="#GLYPHcmr10_52"></use>
  </g>
  <path d="M51.412277 81.859085L57.393570 81.859085L57.393570 74.438690L51.412277 74.438690Z" style="fill: rgb(100.000000%,100.000000%,100.000000%);stroke: none;"></path>
  <path d="M51.412277 83.859085L57.393570 83.859085L57.393570 76.438690L51.412277 76.438690Z" style="fill: rgb(100.000000%,100.000000%,100.000000%);stroke: none;"></path>
  <g transform="translate(51.912277 82.359085)" style="fill: rgb(0.000000%,0.000000%,0.000000%);">
    <use xlink:href="#GLYPHcmr10_53"></use>
  </g>
  <path d="M59.110077 9.313431L65.091370 9.313431L65.091370 1.893036L59.110077 1.893036Z" style="fill: rgb(100.000000%,100.000000%,100.000000%);stroke: none;"></path>
  <path d="M59.110077 11.313431L65.091370 11.313431L65.091370 3.893036L59.110077 3.893036Z" style="fill: rgb(100.000000%,100.000000%,100.000000%);stroke: none;"></path>
  <g transform="translate(59.610077 9.813431)" style="fill: rgb(0.000000%,0.000000%,0.000000%);">
    <use xlink:href="#GLYPHcmr10_54"></use>
  </g>
  <path d="M132.743240 101.893005L138.724533 101.893005L138.724533 94.472610L132.743240 94.472610Z" style="fill: rgb(100.000000%,100.000000%,100.000000%);stroke: none;"></path>
  <path d="M132.743240 103.893005L138.724533 103.893005L138.724533 96.472610L132.743240 96.472610Z" style="fill: rgb(100.000000%,100.000000%,100.000000%);stroke: none;"></path>
  <g transform="translate(133.243240 102.393005)" style="fill: rgb(0.000000%,0.000000%,0.000000%);">
    <use xlink:href="#GLYPHcmr10_55"></use>
  </g>
  <path d="M179.183868 153.455322L185.165161 153.455322L185.165161 146.034927L179.183868 146.034927Z" style="fill: rgb(100.000000%,100.000000%,100.000000%);stroke: none;"></path>
  <path d="M179.183868 155.455322L185.165161 155.455322L185.165161 148.034927L179.183868 148.034927Z" style="fill: rgb(100.000000%,100.000000%,100.000000%);stroke: none;"></path>
  <g transform="translate(179.683868 153.955322)" style="fill: rgb(0.000000%,0.000000%,0.000000%);">
    <use xlink:href="#GLYPHcmr10_56"></use>
  </g>
  <path d="M72.105515 97.423050L78.086807 97.423050L78.086807 90.002655L72.105515 90.002655Z" style="fill: rgb(100.000000%,100.000000%,100.000000%);stroke: none;"></path>
  <path d="M72.105515 99.423050L78.086807 99.423050L78.086807 92.002655L72.105515 92.002655Z" style="fill: rgb(100.000000%,100.000000%,100.000000%);stroke: none;"></path>
  <g transform="translate(72.605515 97.923050)" style="fill: rgb(0.000000%,0.000000%,0.000000%);">
    <use xlink:href="#GLYPHcmr10_57"></use>
  </g>
  <path d="M61.444382 116.634857L72.407089 116.634857L72.407089 109.214462L61.444382 109.214462Z" style="fill: rgb(100.000000%,100.000000%,100.000000%);stroke: none;"></path>
  <path d="M61.444382 118.634857L72.407089 118.634857L72.407089 111.214462L61.444382 111.214462Z" style="fill: rgb(100.000000%,100.000000%,100.000000%);stroke: none;"></path>
  <g transform="translate(61.944382 117.134857)" style="fill: rgb(0.000000%,0.000000%,0.000000%);">
    <use xlink:href="#GLYPHcmr10_49"></use>
    <use xlink:href="#GLYPHcmr10_48" x="5.000095"></use>
  </g>
  <path d="M106.329865 112.868057L117.292572 112.868057L117.292572 105.447662L106.329865 105.447662Z" style="fill: rgb(100.000000%,100.000000%,100.000000%);stroke: none;"></path>
  <path d="M106.329865 114.868057L117.292572 114.868057L117.292572 107.447662L106.329865 107.447662Z" style="fill: rgb(100.000000%,100.000000%,100.000000%);stroke: none;"></path>
  <g transform="translate(106.829865 113.368057)" style="fill: rgb(0.000000%,0.000000%,0.000000%);">
    <use xlink:href="#GLYPHcmr10_49"></use>
    <use xlink:href="#GLYPHcmr10_49" x="5.000095"></use>
  </g>
  <path d="M88.320724 93.803085L99.283432 93.803085L99.283432 86.382690L88.320724 86.382690Z" style="fill: rgb(100.000000%,100.000000%,100.000000%);stroke: none;"></path>
  <path d="M88.320724 95.803085L99.283432 95.803085L99.283432 88.382690L88.320724 88.382690Z" style="fill: rgb(100.000000%,100.000000%,100.000000%);stroke: none;"></path>
  <g transform="translate(88.820724 94.303085)" style="fill: rgb(0.000000%,0.000000%,0.000000%);">
    <use xlink:href="#GLYPHcmr10_49"></use>
    <use xlink:href="#GLYPHcmr10_50" x="5.000095"></use>
  </g>
</svg>
