<?xml version="1.0"?>
<!-- Created by MetaPost 1.999 on 2021.07.06:0005 -->
<svg version="1.1" xmlns="http://www.w3.org/2000/svg" xmlns:xlink="http://www.w3.org/1999/xlink" width="200.399689" height="195.368103" viewBox="0 0 200.399689 195.368103">
<!-- Original BoundingBox: -166.475723 -46.679123 33.923965 148.688980 -->
  <defs>
    <g transform="scale(0.009963,0.009963)" id="GLYPHcmr10_48">
      <path style="fill-rule: evenodd;" d="M460.000000 -320.000000C460.000000 -400.000000,455.000000 -480.000000,420.000000 -554.000000C374.000000 -650.000000,292.000000 -666.000000,250.000000 -666.000000C190.000000 -666.000000,117.000000 -640.000000,76.000000 -547.000000C44.000000 -478.000000,39.000000 -400.000000,39.000000 -320.000000C39.000000 -245.000000,43.000000 -155.000000,84.000000 -79.000000C127.000000 2.000000,200.000000 22.000000,249.000000 22.000000C303.000000 22.000000,379.000000 1.000000,423.000000 -94.000000C455.000000 -163.000000,460.000000 -241.000000,460.000000 -320.000000M249.000000 -0.000000C210.000000 -0.000000,151.000000 -25.000000,133.000000 -121.000000C122.000000 -181.000000,122.000000 -273.000000,122.000000 -332.000000C122.000000 -396.000000,122.000000 -462.000000,130.000000 -516.000000C149.000000 -635.000000,224.000000 -644.000000,249.000000 -644.000000C282.000000 -644.000000,348.000000 -626.000000,367.000000 -527.000000C377.000000 -471.000000,377.000000 -395.000000,377.000000 -332.000000C377.000000 -257.000000,377.000000 -189.000000,366.000000 -125.000000C351.000000 -30.000000,294.000000 -0.000000,249.000000 -0.000000"></path>
    </g>
    <g transform="scale(0.009963,0.009963)" id="GLYPHcmr10_49">
      <path style="fill-rule: evenodd;" d="M294.000000 -640.000000C294.000000 -664.000000,294.000000 -666.000000,271.000000 -666.000000C209.000000 -602.000000,121.000000 -602.000000,89.000000 -602.000000L89.000000 -571.000000C109.000000 -571.000000,168.000000 -571.000000,220.000000 -597.000000L220.000000 -79.000000C220.000000 -43.000000,217.000000 -31.000000,127.000000 -31.000000L95.000000 -31.000000L95.000000 -0.000000L257.000000 -0.000000L130.000000 -3.000000L217.000000 -3.000000L257.000000 -3.000000L297.000000 -3.000000L384.000000 -3.000000L419.000000 -0.000000L419.000000 -31.000000L387.000000 -31.000000C297.000000 -31.000000,294.000000 -42.000000,294.000000 -79.000000"></path>
    </g>
    <g transform="scale(0.009963,0.009963)" id="GLYPHcmr10_50">
      <path style="fill-rule: evenodd;" d="M127.000000 -77.000000L233.000000 -180.000000C389.000000 -318.000000,449.000000 -372.000000,449.000000 -472.000000C449.000000 -586.000000,359.000000 -666.000000,237.000000 -666.000000C124.000000 -666.000000,50.000000 -574.000000,50.000000 -485.000000C50.000000 -429.000000,100.000000 -429.000000,103.000000 -429.000000C120.000000 -429.000000,155.000000 -441.000000,155.000000 -482.000000C155.000000 -508.000000,137.000000 -534.000000,102.000000 -534.000000C94.000000 -534.000000,92.000000 -534.000000,89.000000 -533.000000C112.000000 -598.000000,166.000000 -635.000000,224.000000 -635.000000C315.000000 -635.000000,358.000000 -554.000000,358.000000 -472.000000C358.000000 -392.000000,308.000000 -313.000000,253.000000 -251.000000L61.000000 -37.000000C50.000000 -26.000000,50.000000 -24.000000,50.000000 -0.000000L421.000000 -0.000000L449.000000 -174.000000L424.000000 -174.000000C419.000000 -144.000000,412.000000 -100.000000,402.000000 -85.000000C395.000000 -77.000000,329.000000 -77.000000,307.000000 -77.000000"></path>
    </g>
    <g transform="scale(0.009963,0.009963)" id="GLYPHcmr10_51">
      <path style="fill-rule: evenodd;" d="M290.000000 -352.000000C372.000000 -379.000000,430.000000 -449.000000,430.000000 -528.000000C430.000000 -610.000000,342.000000 -666.000000,246.000000 -666.000000C145.000000 -666.000000,69.000000 -606.000000,69.000000 -530.000000C69.000000 -497.000000,91.000000 -478.000000,120.000000 -478.000000C151.000000 -478.000000,171.000000 -500.000000,171.000000 -529.000000C171.000000 -579.000000,124.000000 -579.000000,109.000000 -579.000000C140.000000 -628.000000,206.000000 -641.000000,242.000000 -641.000000C283.000000 -641.000000,338.000000 -619.000000,338.000000 -529.000000C338.000000 -517.000000,336.000000 -459.000000,310.000000 -415.000000C280.000000 -367.000000,246.000000 -364.000000,221.000000 -363.000000C213.000000 -362.000000,189.000000 -360.000000,182.000000 -360.000000C174.000000 -359.000000,167.000000 -358.000000,167.000000 -348.000000C167.000000 -337.000000,174.000000 -337.000000,191.000000 -337.000000L235.000000 -337.000000C317.000000 -337.000000,354.000000 -269.000000,354.000000 -171.000000C354.000000 -35.000000,285.000000 -6.000000,241.000000 -6.000000C198.000000 -6.000000,123.000000 -23.000000,88.000000 -82.000000C123.000000 -77.000000,154.000000 -99.000000,154.000000 -137.000000C154.000000 -173.000000,127.000000 -193.000000,98.000000 -193.000000C74.000000 -193.000000,42.000000 -179.000000,42.000000 -135.000000C42.000000 -44.000000,135.000000 22.000000,244.000000 22.000000C366.000000 22.000000,457.000000 -69.000000,457.000000 -171.000000C457.000000 -253.000000,394.000000 -331.000000,290.000000 -352.000000"></path>
    </g>
    <g transform="scale(0.009963,0.009963)" id="GLYPHcmr10_52">
      <path style="fill-rule: evenodd;" d="M294.000000 -165.000000L294.000000 -78.000000C294.000000 -42.000000,292.000000 -31.000000,218.000000 -31.000000L197.000000 -31.000000L197.000000 -0.000000L332.000000 -0.000000L238.000000 -3.000000L290.000000 -3.000000L332.000000 -3.000000L374.000000 -3.000000L427.000000 -3.000000L468.000000 -0.000000L468.000000 -31.000000L447.000000 -31.000000C373.000000 -31.000000,371.000000 -42.000000,371.000000 -78.000000L371.000000 -165.000000L471.000000 -165.000000L471.000000 -196.000000L371.000000 -196.000000L371.000000 -651.000000C371.000000 -671.000000,371.000000 -677.000000,355.000000 -677.000000C346.000000 -677.000000,343.000000 -677.000000,335.000000 -665.000000L28.000000 -196.000000L28.000000 -165.000000M300.000000 -196.000000L56.000000 -196.000000L300.000000 -569.000000"></path>
    </g>
    <g transform="scale(0.009963,0.009963)" id="GLYPHcmr10_53">
      <path style="fill-rule: evenodd;" d="M449.000000 -201.000000C449.000000 -320.000000,367.000000 -420.000000,259.000000 -420.000000C211.000000 -420.000000,168.000000 -404.000000,132.000000 -369.000000L132.000000 -564.000000C152.000000 -558.000000,185.000000 -551.000000,217.000000 -551.000000C340.000000 -551.000000,410.000000 -642.000000,410.000000 -655.000000C410.000000 -661.000000,407.000000 -666.000000,400.000000 -666.000000C399.000000 -666.000000,397.000000 -666.000000,392.000000 -663.000000C372.000000 -654.000000,323.000000 -634.000000,256.000000 -634.000000C216.000000 -634.000000,170.000000 -641.000000,123.000000 -662.000000C115.000000 -665.000000,113.000000 -665.000000,111.000000 -665.000000C101.000000 -665.000000,101.000000 -657.000000,101.000000 -641.000000L101.000000 -345.000000C101.000000 -327.000000,101.000000 -319.000000,115.000000 -319.000000C122.000000 -319.000000,124.000000 -322.000000,128.000000 -328.000000C139.000000 -344.000000,176.000000 -398.000000,257.000000 -398.000000C309.000000 -398.000000,334.000000 -352.000000,342.000000 -334.000000C358.000000 -297.000000,360.000000 -258.000000,360.000000 -208.000000C360.000000 -173.000000,360.000000 -113.000000,336.000000 -71.000000C312.000000 -32.000000,275.000000 -6.000000,229.000000 -6.000000C156.000000 -6.000000,99.000000 -59.000000,82.000000 -118.000000C85.000000 -117.000000,88.000000 -116.000000,99.000000 -116.000000C132.000000 -116.000000,149.000000 -141.000000,149.000000 -165.000000C149.000000 -189.000000,132.000000 -214.000000,99.000000 -214.000000C85.000000 -214.000000,50.000000 -207.000000,50.000000 -161.000000C50.000000 -75.000000,119.000000 22.000000,231.000000 22.000000C347.000000 22.000000,449.000000 -74.000000,449.000000 -201.000000"></path>
    </g>
    <g transform="scale(0.009963,0.009963)" id="GLYPHcmr10_54">
      <path style="fill-rule: evenodd;" d="M132.000000 -328.000000L132.000000 -352.000000C132.000000 -605.000000,256.000000 -641.000000,307.000000 -641.000000C331.000000 -641.000000,373.000000 -635.000000,395.000000 -601.000000C380.000000 -601.000000,340.000000 -601.000000,340.000000 -556.000000C340.000000 -525.000000,364.000000 -510.000000,386.000000 -510.000000C402.000000 -510.000000,432.000000 -519.000000,432.000000 -558.000000C432.000000 -618.000000,388.000000 -666.000000,305.000000 -666.000000C177.000000 -666.000000,42.000000 -537.000000,42.000000 -316.000000C42.000000 -49.000000,158.000000 22.000000,251.000000 22.000000C362.000000 22.000000,457.000000 -72.000000,457.000000 -204.000000C457.000000 -331.000000,368.000000 -427.000000,257.000000 -427.000000C189.000000 -427.000000,152.000000 -376.000000,132.000000 -328.000000M251.000000 -6.000000C188.000000 -6.000000,158.000000 -66.000000,152.000000 -81.000000C134.000000 -128.000000,134.000000 -208.000000,134.000000 -226.000000C134.000000 -304.000000,166.000000 -404.000000,256.000000 -404.000000C272.000000 -404.000000,318.000000 -404.000000,349.000000 -342.000000C367.000000 -305.000000,367.000000 -254.000000,367.000000 -205.000000C367.000000 -157.000000,367.000000 -107.000000,350.000000 -71.000000C320.000000 -11.000000,274.000000 -6.000000,251.000000 -6.000000"></path>
    </g>
    <g transform="scale(0.009963,0.009963)" id="GLYPHcmr10_55">
      <path style="fill-rule: evenodd;" d="M476.000000 -609.000000C485.000000 -621.000000,485.000000 -623.000000,485.000000 -644.000000L242.000000 -644.000000C120.000000 -644.000000,118.000000 -657.000000,114.000000 -676.000000L89.000000 -676.000000L56.000000 -470.000000L81.000000 -470.000000C84.000000 -486.000000,93.000000 -549.000000,106.000000 -561.000000C113.000000 -567.000000,191.000000 -567.000000,204.000000 -567.000000L411.000000 -567.000000C400.000000 -551.000000,321.000000 -442.000000,299.000000 -409.000000C209.000000 -274.000000,176.000000 -135.000000,176.000000 -33.000000C176.000000 -23.000000,176.000000 22.000000,222.000000 22.000000C268.000000 22.000000,268.000000 -23.000000,268.000000 -33.000000L268.000000 -84.000000C268.000000 -139.000000,271.000000 -194.000000,279.000000 -248.000000C283.000000 -271.000000,297.000000 -357.000000,341.000000 -419.000000"></path>
    </g>
    <g transform="scale(0.009963,0.009963)" id="GLYPHcmr10_56">
      <path style="fill-rule: evenodd;" d="M163.000000 -457.000000C117.000000 -487.000000,113.000000 -521.000000,113.000000 -538.000000C113.000000 -599.000000,178.000000 -641.000000,249.000000 -641.000000C322.000000 -641.000000,386.000000 -589.000000,386.000000 -517.000000C386.000000 -460.000000,347.000000 -412.000000,287.000000 -377.000000M309.000000 -362.000000C381.000000 -399.000000,430.000000 -451.000000,430.000000 -517.000000C430.000000 -609.000000,341.000000 -666.000000,250.000000 -666.000000C150.000000 -666.000000,69.000000 -592.000000,69.000000 -499.000000C69.000000 -481.000000,71.000000 -436.000000,113.000000 -389.000000C124.000000 -377.000000,161.000000 -352.000000,186.000000 -335.000000C128.000000 -306.000000,42.000000 -250.000000,42.000000 -151.000000C42.000000 -45.000000,144.000000 22.000000,249.000000 22.000000C362.000000 22.000000,457.000000 -61.000000,457.000000 -168.000000C457.000000 -204.000000,446.000000 -249.000000,408.000000 -291.000000C389.000000 -312.000000,373.000000 -322.000000,309.000000 -362.000000M209.000000 -320.000000L332.000000 -242.000000C360.000000 -223.000000,407.000000 -193.000000,407.000000 -132.000000C407.000000 -58.000000,332.000000 -6.000000,250.000000 -6.000000C164.000000 -6.000000,92.000000 -68.000000,92.000000 -151.000000C92.000000 -209.000000,124.000000 -273.000000,209.000000 -320.000000"></path>
    </g>
    <g transform="scale(0.009963,0.009963)" id="GLYPHcmr10_57">
      <path style="fill-rule: evenodd;" d="M367.000000 -318.000000L367.000000 -286.000000C367.000000 -52.000000,263.000000 -6.000000,205.000000 -6.000000C188.000000 -6.000000,134.000000 -8.000000,107.000000 -42.000000C151.000000 -42.000000,159.000000 -71.000000,159.000000 -88.000000C159.000000 -119.000000,135.000000 -134.000000,113.000000 -134.000000C97.000000 -134.000000,67.000000 -125.000000,67.000000 -86.000000C67.000000 -19.000000,121.000000 22.000000,206.000000 22.000000C335.000000 22.000000,457.000000 -114.000000,457.000000 -329.000000C457.000000 -598.000000,342.000000 -666.000000,253.000000 -666.000000C198.000000 -666.000000,149.000000 -648.000000,106.000000 -603.000000C65.000000 -558.000000,42.000000 -516.000000,42.000000 -441.000000C42.000000 -316.000000,130.000000 -218.000000,242.000000 -218.000000C303.000000 -218.000000,344.000000 -260.000000,367.000000 -318.000000M243.000000 -241.000000C227.000000 -241.000000,181.000000 -241.000000,150.000000 -304.000000C132.000000 -341.000000,132.000000 -391.000000,132.000000 -440.000000C132.000000 -494.000000,132.000000 -541.000000,153.000000 -578.000000C180.000000 -628.000000,218.000000 -641.000000,253.000000 -641.000000C299.000000 -641.000000,332.000000 -607.000000,349.000000 -562.000000C361.000000 -530.000000,365.000000 -467.000000,365.000000 -421.000000C365.000000 -338.000000,331.000000 -241.000000,243.000000 -241.000000"></path>
    </g>
  </defs>
  <path d="M143.440292 148.243240C143.440292 147.450546,143.125351 146.690399,142.564865 146.129929C142.004395 145.569443,141.244247 145.254501,140.451553 145.254501C139.658859 145.254501,138.898712 145.569443,138.338242 146.129929C137.777756 146.690399,137.462814 147.450546,137.462814 148.243240C137.462814 149.035934,137.777756 149.796082,138.338242 150.356552C138.898712 150.917038,139.658859 151.231979,140.451553 151.231979C141.244247 151.231979,142.004395 150.917038,142.564865 150.356552C143.125351 149.796082,143.440292 149.035934,143.440292 148.243240Z" style="fill: rgb(100.000000%,100.000000%,100.000000%);stroke: none;"></path>
  <path d="M134.588943 138.995331C134.588943 138.202637,134.274002 137.442490,133.713516 136.882019C133.153046 136.321533,132.392899 136.006592,131.600204 136.006592C130.807510 136.006592,130.047363 136.321533,129.486893 136.882019C128.926407 137.442490,128.611465 138.202637,128.611465 138.995331C128.611465 139.788025,128.926407 140.548172,129.486893 141.108643C130.047363 141.669128,130.807510 141.984070,131.600204 141.984070C132.392899 141.984070,133.153046 141.669128,133.713516 141.108643C134.274002 140.548172,134.588943 139.788025,134.588943 138.995331Z" style="fill: rgb(100.000000%,100.000000%,100.000000%);stroke: none;"></path>
  <path d="M189.854080 141.653732C189.854080 140.861038,189.539139 140.100891,188.978653 139.540421C188.418182 138.979935,187.658035 138.664993,186.865341 138.664993C186.072647 138.664993,185.312500 138.979935,184.752029 139.540421C184.191544 140.100891,183.876602 140.861038,183.876602 141.653732C183.876602 142.446426,184.191544 143.206573,184.752029 143.767044C185.312500 144.327530,186.072647 144.642471,186.865341 144.642471C187.658035 144.642471,188.418182 144.327530,188.978653 143.767044C189.539139 143.206573,189.854080 142.446426,189.854080 141.653732Z" style="fill: rgb(100.000000%,100.000000%,100.000000%);stroke: none;"></path>
  <path d="M156.741531 151.725037C156.741531 150.932343,156.426590 150.172195,155.866104 149.611725C155.305634 149.051239,154.545486 148.736298,153.752792 148.736298C152.960098 148.736298,152.199951 149.051239,151.639481 149.611725C151.078995 150.172195,150.764053 150.932343,150.764053 151.725037C150.764053 152.517731,151.078995 153.277878,151.639481 153.838348C152.199951 154.398834,152.960098 154.713776,153.752792 154.713776C154.545486 154.713776,155.305634 154.398834,155.866104 153.838348C156.426590 153.277878,156.741531 152.517731,156.741531 151.725037Z" style="fill: rgb(100.000000%,100.000000%,100.000000%);stroke: none;"></path>
  <path d="M198.616653 75.190338C198.616653 74.397644,198.301712 73.637497,197.741226 73.077026C197.180756 72.516541,196.420609 72.201599,195.627914 72.201599C194.835220 72.201599,194.075073 72.516541,193.514603 73.077026C192.954117 73.637497,192.639175 74.397644,192.639175 75.190338C192.639175 75.983032,192.954117 76.743179,193.514603 77.303650C194.075073 77.864136,194.835220 78.179077,195.627914 78.179077C196.420609 78.179077,197.180756 77.864136,197.741226 77.303650C198.301712 76.743179,198.616653 75.983032,198.616653 75.190338Z" style="fill: rgb(100.000000%,100.000000%,100.000000%);stroke: none;"></path>
  <path d="M199.923965 119.180283C199.923965 118.387589,199.609024 117.627441,199.048538 117.066971C198.488068 116.506485,197.727921 116.191544,196.935226 116.191544C196.142532 116.191544,195.382385 116.506485,194.821915 117.066971C194.261429 117.627441,193.946487 118.387589,193.946487 119.180283C193.946487 119.972977,194.261429 120.733124,194.821915 121.293594C195.382385 121.854080,196.142532 122.169022,196.935226 122.169022C197.727921 122.169022,198.488068 121.854080,199.048538 121.293594C199.609024 120.733124,199.923965 119.972977,199.923965 119.180283Z" style="fill: rgb(100.000000%,100.000000%,100.000000%);stroke: none;"></path>
  <path d="M156.860489 42.283981C156.860489 41.491287,156.545547 40.731140,155.985062 40.170670C155.424591 39.610184,154.664444 39.295242,153.871750 39.295242C153.079056 39.295242,152.318909 39.610184,151.758438 40.170670C151.197952 40.731140,150.883011 41.491287,150.883011 42.283981C150.883011 43.076675,151.197952 43.836823,151.758438 44.397293C152.318909 44.957779,153.079056 45.272720,153.871750 45.272720C154.664444 45.272720,155.424591 44.957779,155.985062 44.397293C156.545547 43.836823,156.860489 43.076675,156.860489 42.283981Z" style="fill: rgb(100.000000%,100.000000%,100.000000%);stroke: none;"></path>
  <path d="M188.636444 54.315109C188.636444 53.522415,188.321503 52.762268,187.761017 52.201797C187.200546 51.641312,186.440399 51.326370,185.647705 51.326370C184.855011 51.326370,184.094864 51.641312,183.534393 52.201797C182.973907 52.762268,182.658966 53.522415,182.658966 54.315109C182.658966 55.107803,182.973907 55.867950,183.534393 56.428421C184.094864 56.988907,184.855011 57.303848,185.647705 57.303848C186.440399 57.303848,187.200546 56.988907,187.761017 56.428421C188.321503 55.867950,188.636444 55.107803,188.636444 54.315109Z" style="fill: rgb(100.000000%,100.000000%,100.000000%);stroke: none;"></path>
  <path d="M135.450134 61.415558C135.450134 60.622864,135.135193 59.862717,134.574707 59.302246C134.014236 58.741760,133.254089 58.426819,132.461395 58.426819C131.668701 58.426819,130.908554 58.741760,130.348083 59.302246C129.787598 59.862717,129.472656 60.622864,129.472656 61.415558C129.472656 62.208252,129.787598 62.968399,130.348083 63.528870C130.908554 64.089355,131.668701 64.404297,132.461395 64.404297C133.254089 64.404297,134.014236 64.089355,134.574707 63.528870C135.135193 62.968399,135.450134 62.208252,135.450134 61.415558Z" style="fill: rgb(100.000000%,100.000000%,100.000000%);stroke: none;"></path>
  <path d="M142.796738 45.113739C142.796738 44.321045,142.481796 43.560898,141.921310 43.000427C141.360840 42.439941,140.600693 42.125000,139.807999 42.125000C139.015305 42.125000,138.255157 42.439941,137.694687 43.000427C137.134201 43.560898,136.819260 44.321045,136.819260 45.113739C136.819260 45.906433,137.134201 46.666580,137.694687 47.227051C138.255157 47.787537,139.015305 48.102478,139.807999 48.102478C140.600693 48.102478,141.360840 47.787537,141.921310 47.227051C142.481796 46.666580,142.796738 45.906433,142.796738 45.113739Z" style="fill: rgb(100.000000%,100.000000%,100.000000%);stroke: none;"></path>
  <path d="M135.957565 77.864807C135.957565 77.072113,135.642624 76.311966,135.082138 75.751495C134.521667 75.191010,133.761520 74.876068,132.968826 74.876068C132.176132 74.876068,131.415985 75.191010,130.855515 75.751495C130.295029 76.311966,129.980087 77.072113,129.980087 77.864807C129.980087 78.657501,130.295029 79.417648,130.855515 79.978119C131.415985 80.538605,132.176132 80.853546,132.968826 80.853546C133.761520 80.853546,134.521667 80.538605,135.082138 79.978119C135.642624 79.417648,135.957565 78.657501,135.957565 77.864807Z" style="fill: rgb(100.000000%,100.000000%,100.000000%);stroke: none;"></path>
  <path d="M136.085068 67.243958C136.085068 66.451263,135.770126 65.691116,135.209641 65.130646C134.649170 64.570160,133.889023 64.255219,133.096329 64.255219C132.303635 64.255219,131.543488 64.570160,130.983017 65.130646C130.422531 65.691116,130.107590 66.451263,130.107590 67.243958C130.107590 68.036652,130.422531 68.796799,130.983017 69.357269C131.543488 69.917755,132.303635 70.232697,133.096329 70.232697C133.889023 70.232697,134.649170 69.917755,135.209641 69.357269C135.770126 68.796799,136.085068 68.036652,136.085068 67.243958Z" style="fill: rgb(100.000000%,100.000000%,100.000000%);stroke: none;"></path>
  <path d="M133.803955 91.942490C133.803955 91.149796,133.489014 90.389648,132.928528 89.829178C132.368057 89.268692,131.607910 88.953751,130.815216 88.953751C130.022522 88.953751,129.262375 89.268692,128.701904 89.829178C128.141418 90.389648,127.826477 91.149796,127.826477 91.942490C127.826477 92.735184,128.141418 93.495331,128.701904 94.055801C129.262375 94.616287,130.022522 94.931229,130.815216 94.931229C131.607910 94.931229,132.368057 94.616287,132.928528 94.055801C133.489014 93.495331,133.803955 92.735184,133.803955 91.942490Z" style="fill: rgb(100.000000%,100.000000%,100.000000%);stroke: none;"></path>
  <path d="M135.316010 82.813248C135.316010 82.020554,135.001068 81.260406,134.440582 80.699936C133.880112 80.139450,133.119965 79.824509,132.327271 79.824509C131.534576 79.824509,130.774429 80.139450,130.213959 80.699936C129.653473 81.260406,129.338531 82.020554,129.338531 82.813248C129.338531 83.605942,129.653473 84.366089,130.213959 84.926559C130.774429 85.487045,131.534576 85.801987,132.327271 85.801987C133.119965 85.801987,133.880112 85.487045,134.440582 84.926559C135.001068 84.366089,135.316010 83.605942,135.316010 82.813248Z" style="fill: rgb(100.000000%,100.000000%,100.000000%);stroke: none;"></path>
  <path d="M130.514587 102.329285C130.514587 101.536591,130.199646 100.776443,129.639160 100.215973C129.078690 99.655487,128.318542 99.340546,127.525848 99.340546C126.733154 99.340546,125.973007 99.655487,125.412537 100.215973C124.852051 100.776443,124.537109 101.536591,124.537109 102.329285C124.537109 103.121979,124.852051 103.882126,125.412537 104.442596C125.973007 105.003082,126.733154 105.318024,127.525848 105.318024C128.318542 105.318024,129.078690 105.003082,129.639160 104.442596C130.199646 103.882126,130.514587 103.121979,130.514587 102.329285Z" style="fill: rgb(100.000000%,100.000000%,100.000000%);stroke: none;"></path>
  <path d="M132.973495 96.154907C132.973495 95.362213,132.658554 94.602066,132.098068 94.041595C131.537598 93.481110,130.777451 93.166168,129.984756 93.166168C129.192062 93.166168,128.431915 93.481110,127.871445 94.041595C127.310959 94.602066,126.996017 95.362213,126.996017 96.154907C126.996017 96.947601,127.310959 97.707748,127.871445 98.268219C128.431915 98.828705,129.192062 99.143646,129.984756 99.143646C130.777451 99.143646,131.537598 98.828705,132.098068 98.268219C132.658554 97.707748,132.973495 96.947601,132.973495 96.154907Z" style="fill: rgb(100.000000%,100.000000%,100.000000%);stroke: none;"></path>
  <path d="M131.444763 109.060532C131.444763 108.267838,131.129822 107.507690,130.569336 106.947220C130.008865 106.386734,129.248718 106.071793,128.456024 106.071793C127.663330 106.071793,126.903183 106.386734,126.342712 106.947220C125.782227 107.507690,125.467285 108.267838,125.467285 109.060532C125.467285 109.853226,125.782227 110.613373,126.342712 111.173843C126.903183 111.734329,127.663330 112.049271,128.456024 112.049271C129.248718 112.049271,130.008865 111.734329,130.569336 111.173843C131.129822 110.613373,131.444763 109.853226,131.444763 109.060532Z" style="fill: rgb(100.000000%,100.000000%,100.000000%);stroke: none;"></path>
  <path d="M129.449020 104.677078C129.449020 103.884384,129.134079 103.124237,128.573593 102.563766C128.013123 102.003281,127.252975 101.688339,126.460281 101.688339C125.667587 101.688339,124.907440 102.003281,124.346970 102.563766C123.786484 103.124237,123.471542 103.884384,123.471542 104.677078C123.471542 105.469772,123.786484 106.229919,124.346970 106.790390C124.907440 107.350876,125.667587 107.665817,126.460281 107.665817C127.252975 107.665817,128.013123 107.350876,128.573593 106.790390C129.134079 106.229919,129.449020 105.469772,129.449020 104.677078Z" style="fill: rgb(100.000000%,100.000000%,100.000000%);stroke: none;"></path>
  <path d="M141.756912 111.997620C141.756912 111.204926,141.441971 110.444778,140.881485 109.884308C140.321014 109.323822,139.560867 109.008881,138.768173 109.008881C137.975479 109.008881,137.215332 109.323822,136.654861 109.884308C136.094376 110.444778,135.779434 111.204926,135.779434 111.997620C135.779434 112.790314,136.094376 113.550461,136.654861 114.110931C137.215332 114.671417,137.975479 114.986359,138.768173 114.986359C139.560867 114.986359,140.321014 114.671417,140.881485 114.110931C141.441971 113.550461,141.756912 112.790314,141.756912 111.997620Z" style="fill: rgb(100.000000%,100.000000%,100.000000%);stroke: none;"></path>
  <path d="M134.044693 109.767349C134.044693 108.974655,133.729752 108.214508,133.169266 107.654037C132.608795 107.093552,131.848648 106.778610,131.055954 106.778610C130.263260 106.778610,129.503113 107.093552,128.942642 107.654037C128.382156 108.214508,128.067215 108.974655,128.067215 109.767349C128.067215 110.560043,128.382156 111.320190,128.942642 111.880661C129.503113 112.441147,130.263260 112.756088,131.055954 112.756088C131.848648 112.756088,132.608795 112.441147,133.169266 111.880661C133.729752 111.320190,134.044693 110.560043,134.044693 109.767349Z" style="fill: rgb(100.000000%,100.000000%,100.000000%);stroke: none;"></path>
  <path d="M161.516388 124.808014C161.516388 124.015320,161.201447 123.255173,160.640961 122.694702C160.080490 122.134216,159.320343 121.819275,158.527649 121.819275C157.734955 121.819275,156.974808 122.134216,156.414337 122.694702C155.853851 123.255173,155.538910 124.015320,155.538910 124.808014C155.538910 125.600708,155.853851 126.360855,156.414337 126.921326C156.974808 127.481812,157.734955 127.796753,158.527649 127.796753C159.320343 127.796753,160.080490 127.481812,160.640961 126.921326C161.201447 126.360855,161.516388 125.600708,161.516388 124.808014Z" style="fill: rgb(100.000000%,100.000000%,100.000000%);stroke: none;"></path>
  <path d="M146.782761 114.455872C146.782761 113.663177,146.467819 112.903030,145.907333 112.342560C145.346863 111.782074,144.586716 111.467133,143.794022 111.467133C143.001328 111.467133,142.241180 111.782074,141.680710 112.342560C141.120224 112.903030,140.805283 113.663177,140.805283 114.455872C140.805283 115.248566,141.120224 116.008713,141.680710 116.569183C142.241180 117.129669,143.001328 117.444611,143.794022 117.444611C144.586716 117.444611,145.346863 117.129669,145.907333 116.569183C146.467819 116.008713,146.782761 115.248566,146.782761 114.455872Z" style="fill: rgb(100.000000%,100.000000%,100.000000%);stroke: none;"></path>
  <path d="M168.952148 169.477905C168.952148 168.685211,168.637207 167.925064,168.076721 167.364594C167.516251 166.804108,166.756104 166.489166,165.963409 166.489166C165.170715 166.489166,164.410568 166.804108,163.850098 167.364594C163.289612 167.925064,162.974670 168.685211,162.974670 169.477905C162.974670 170.270599,163.289612 171.030746,163.850098 171.591217C164.410568 172.151703,165.170715 172.466644,165.963409 172.466644C166.756104 172.466644,167.516251 172.151703,168.076721 171.591217C168.637207 171.030746,168.952148 170.270599,168.952148 169.477905Z" style="fill: rgb(100.000000%,100.000000%,100.000000%);stroke: none;"></path>
  <path d="M169.009827 135.625748C169.009827 134.833054,168.694885 134.072906,168.134399 133.512436C167.573929 132.951950,166.813782 132.637009,166.021088 132.637009C165.228394 132.637009,164.468246 132.951950,163.907776 133.512436C163.347290 134.072906,163.032349 134.833054,163.032349 135.625748C163.032349 136.418442,163.347290 137.178589,163.907776 137.739059C164.468246 138.299545,165.228394 138.614487,166.021088 138.614487C166.813782 138.614487,167.573929 138.299545,168.134399 137.739059C168.694885 137.178589,169.009827 136.418442,169.009827 135.625748Z" style="fill: rgb(100.000000%,100.000000%,100.000000%);stroke: none;"></path>
  <path d="M103.708328 191.690384C103.708328 190.897690,103.393387 190.137543,102.832901 189.577072C102.272430 189.016586,101.512283 188.701645,100.719589 188.701645C99.926895 188.701645,99.166748 189.016586,98.606277 189.577072C98.045792 190.137543,97.730850 190.897690,97.730850 191.690384C97.730850 192.483078,98.045792 193.243225,98.606277 193.803696C99.166748 194.364182,99.926895 194.679123,100.719589 194.679123C101.512283 194.679123,102.272430 194.364182,102.832901 193.803696C103.393387 193.243225,103.708328 192.483078,103.708328 191.690384Z" style="fill: rgb(100.000000%,100.000000%,100.000000%);stroke: none;"></path>
  <path d="M148.933426 184.179901C148.933426 183.387207,148.618484 182.627060,148.057999 182.066589C147.497528 181.506104,146.737381 181.191162,145.944687 181.191162C145.151993 181.191162,144.391846 181.506104,143.831375 182.066589C143.270889 182.627060,142.955948 183.387207,142.955948 184.179901C142.955948 184.972595,143.270889 185.732742,143.831375 186.293213C144.391846 186.853699,145.151993 187.168640,145.944687 187.168640C146.737381 187.168640,147.497528 186.853699,148.057999 186.293213C148.618484 185.732742,148.933426 184.972595,148.933426 184.179901Z" style="fill: rgb(100.000000%,100.000000%,100.000000%);stroke: none;"></path>
  <path d="M66.853333 150.339691C66.853333 149.546997,66.538391 148.786850,65.977905 148.226379C65.417435 147.665894,64.657288 147.350952,63.864594 147.350952C63.071899 147.350952,62.311752 147.665894,61.751282 148.226379C61.190796 148.786850,60.875854 149.546997,60.875854 150.339691C60.875854 151.132385,61.190796 151.892532,61.751282 152.453003C62.311752 153.013489,63.071899 153.328430,63.864594 153.328430C64.657288 153.328430,65.417435 153.013489,65.977905 152.453003C66.538391 151.892532,66.853333 151.132385,66.853333 150.339691Z" style="fill: rgb(100.000000%,100.000000%,100.000000%);stroke: none;"></path>
  <path d="M79.457932 184.061340C79.457932 183.268646,79.142990 182.508499,78.582504 181.948029C78.022034 181.387543,77.261887 181.072601,76.469193 181.072601C75.676498 181.072601,74.916351 181.387543,74.355881 181.948029C73.795395 182.508499,73.480453 183.268646,73.480453 184.061340C73.480453 184.854034,73.795395 185.614182,74.355881 186.174652C74.916351 186.735138,75.676498 187.050079,76.469193 187.050079C77.261887 187.050079,78.022034 186.735138,78.582504 186.174652C79.142990 185.614182,79.457932 184.854034,79.457932 184.061340Z" style="fill: rgb(100.000000%,100.000000%,100.000000%);stroke: none;"></path>
  <path d="M76.337769 115.519821C76.337769 114.727127,76.022827 113.966980,75.462341 113.406509C74.901871 112.846024,74.141724 112.531082,73.349030 112.531082C72.556335 112.531082,71.796188 112.846024,71.235718 113.406509C70.675232 113.966980,70.360291 114.727127,70.360291 115.519821C70.360291 116.312515,70.675232 117.072662,71.235718 117.633133C71.796188 118.193619,72.556335 118.508560,73.349030 118.508560C74.141724 118.508560,74.901871 118.193619,75.462341 117.633133C76.022827 117.072662,76.337769 116.312515,76.337769 115.519821Z" style="fill: rgb(100.000000%,100.000000%,100.000000%);stroke: none;"></path>
  <path d="M71.050659 136.394119C71.050659 135.601425,70.735718 134.841278,70.175232 134.280807C69.614761 133.720322,68.854614 133.405380,68.061920 133.405380C67.269226 133.405380,66.509079 133.720322,65.948608 134.280807C65.388123 134.841278,65.073181 135.601425,65.073181 136.394119C65.073181 137.186813,65.388123 137.946960,65.948608 138.507431C66.509079 139.067917,67.269226 139.382858,68.061920 139.382858C68.854614 139.382858,69.614761 139.067917,70.175232 138.507431C70.735718 137.946960,71.050659 137.186813,71.050659 136.394119Z" style="fill: rgb(100.000000%,100.000000%,100.000000%);stroke: none;"></path>
  <path d="M81.053421 94.728439C81.053421 93.935745,80.738480 93.175598,80.177994 92.615128C79.617523 92.054642,78.857376 91.739700,78.064682 91.739700C77.271988 91.739700,76.511841 92.054642,75.951370 92.615128C75.390884 93.175598,75.075943 93.935745,75.075943 94.728439C75.075943 95.521133,75.390884 96.281281,75.951370 96.841751C76.511841 97.402237,77.271988 97.717178,78.064682 97.717178C78.857376 97.717178,79.617523 97.402237,80.177994 96.841751C80.738480 96.281281,81.053421 95.521133,81.053421 94.728439Z" style="fill: rgb(100.000000%,100.000000%,100.000000%);stroke: none;"></path>
  <path d="M77.952408 107.970917C77.952408 107.178223,77.637466 106.418076,77.076981 105.857605C76.516510 105.297119,75.756363 104.982178,74.963669 104.982178C74.170975 104.982178,73.410828 105.297119,72.850357 105.857605C72.289871 106.418076,71.974930 107.178223,71.974930 107.970917C71.974930 108.763611,72.289871 109.523758,72.850357 110.084229C73.410828 110.644714,74.170975 110.959656,74.963669 110.959656C75.756363 110.959656,76.516510 110.644714,77.076981 110.084229C77.637466 109.523758,77.952408 108.763611,77.952408 107.970917Z" style="fill: rgb(100.000000%,100.000000%,100.000000%);stroke: none;"></path>
  <path d="M90.548538 80.334045C90.548538 79.541351,90.233597 78.781204,89.673111 78.220734C89.112640 77.660248,88.352493 77.345306,87.559799 77.345306C86.767105 77.345306,86.006958 77.660248,85.446487 78.220734C84.886002 78.781204,84.571060 79.541351,84.571060 80.334045C84.571060 81.126740,84.886002 81.886887,85.446487 82.447357C86.006958 83.007843,86.767105 83.322784,87.559799 83.322784C88.352493 83.322784,89.112640 83.007843,89.673111 82.447357C90.233597 81.886887,90.548538 81.126740,90.548538 80.334045Z" style="fill: rgb(100.000000%,100.000000%,100.000000%);stroke: none;"></path>
  <path d="M82.578308 88.851807C82.578308 88.059113,82.263367 87.298965,81.702881 86.738495C81.142410 86.178009,80.382263 85.863068,79.589569 85.863068C78.796875 85.863068,78.036728 86.178009,77.476257 86.738495C76.915771 87.298965,76.600830 88.059113,76.600830 88.851807C76.600830 89.644501,76.915771 90.404648,77.476257 90.965118C78.036728 91.525604,78.796875 91.840546,79.589569 91.840546C80.382263 91.840546,81.142410 91.525604,81.702881 90.965118C82.263367 90.404648,82.578308 89.644501,82.578308 88.851807Z" style="fill: rgb(100.000000%,100.000000%,100.000000%);stroke: none;"></path>
  <path d="M107.163742 74.470032C107.163742 73.677338,106.848801 72.917191,106.288315 72.356720C105.727844 71.796234,104.967697 71.481293,104.175003 71.481293C103.382309 71.481293,102.622162 71.796234,102.061691 72.356720C101.501205 72.917191,101.186264 73.677338,101.186264 74.470032C101.186264 75.262726,101.501205 76.022873,102.061691 76.583344C102.622162 77.143829,103.382309 77.458771,104.175003 77.458771C104.967697 77.458771,105.727844 77.143829,106.288315 76.583344C106.848801 76.022873,107.163742 75.262726,107.163742 74.470032Z" style="fill: rgb(100.000000%,100.000000%,100.000000%);stroke: none;"></path>
  <path d="M96.165619 78.416290C96.165619 77.623596,95.850677 76.863449,95.290192 76.302979C94.729721 75.742493,93.969574 75.427551,93.176880 75.427551C92.384186 75.427551,91.624039 75.742493,91.063568 76.302979C90.503082 76.863449,90.188141 77.623596,90.188141 78.416290C90.188141 79.208984,90.503082 79.969131,91.063568 80.529602C91.624039 81.090088,92.384186 81.405029,93.176880 81.405029C93.969574 81.405029,94.729721 81.090088,95.290192 80.529602C95.850677 79.969131,96.165619 79.208984,96.165619 78.416290Z" style="fill: rgb(100.000000%,100.000000%,100.000000%);stroke: none;"></path>
  <path d="M124.444916 70.857437C124.444916 70.064743,124.129974 69.304596,123.569489 68.744125C123.009018 68.183640,122.248871 67.868698,121.456177 67.868698C120.663483 67.868698,119.903336 68.183640,119.342865 68.744125C118.782379 69.304596,118.467438 70.064743,118.467438 70.857437C118.467438 71.650131,118.782379 72.410278,119.342865 72.970749C119.903336 73.531235,120.663483 73.846176,121.456177 73.846176C122.248871 73.846176,123.009018 73.531235,123.569489 72.970749C124.129974 72.410278,124.444916 71.650131,124.444916 70.857437Z" style="fill: rgb(100.000000%,100.000000%,100.000000%);stroke: none;"></path>
  <path d="M112.739349 72.316055C112.739349 71.523361,112.424408 70.763214,111.863922 70.202744C111.303452 69.642258,110.543304 69.327316,109.750610 69.327316C108.957916 69.327316,108.197769 69.642258,107.637299 70.202744C107.076813 70.763214,106.761871 71.523361,106.761871 72.316055C106.761871 73.108749,107.076813 73.868896,107.637299 74.429367C108.197769 74.989853,108.957916 75.304794,109.750610 75.304794C110.543304 75.304794,111.303452 74.989853,111.863922 74.429367C112.424408 73.868896,112.739349 73.108749,112.739349 72.316055Z" style="fill: rgb(100.000000%,100.000000%,100.000000%);stroke: none;"></path>
  <path d="M141.694931 74.216675C141.694931 73.423981,141.379990 72.663834,140.819504 72.103363C140.259033 71.542877,139.498886 71.227936,138.706192 71.227936C137.913498 71.227936,137.153351 71.542877,136.592880 72.103363C136.032394 72.663834,135.717453 73.423981,135.717453 74.216675C135.717453 75.009369,136.032394 75.769516,136.592880 76.329987C137.153351 76.890472,137.913498 77.205414,138.706192 77.205414C139.498886 77.205414,140.259033 76.890472,140.819504 76.329987C141.379990 75.769516,141.694931 75.009369,141.694931 74.216675Z" style="fill: rgb(100.000000%,100.000000%,100.000000%);stroke: none;"></path>
  <path d="M130.315323 71.545624C130.315323 70.752930,130.000381 69.992783,129.439896 69.432312C128.879425 68.871826,128.119278 68.556885,127.326584 68.556885C126.533890 68.556885,125.773743 68.871826,125.213272 69.432312C124.652786 69.992783,124.337845 70.752930,124.337845 71.545624C124.337845 72.338318,124.652786 73.098465,125.213272 73.658936C125.773743 74.219421,126.533890 74.534363,127.326584 74.534363C128.119278 74.534363,128.879425 74.219421,129.439896 73.658936C130.000381 73.098465,130.315323 72.338318,130.315323 71.545624Z" style="fill: rgb(100.000000%,100.000000%,100.000000%);stroke: none;"></path>
  <path d="M165.138489 72.545090C165.138489 71.752396,164.823547 70.992249,164.263062 70.431778C163.702591 69.871292,162.942444 69.556351,162.149750 69.556351C161.357056 69.556351,160.596909 69.871292,160.036438 70.431778C159.475952 70.992249,159.161011 71.752396,159.161011 72.545090C159.161011 73.337784,159.475952 74.097931,160.036438 74.658401C160.596909 75.218887,161.357056 75.533829,162.149750 75.533829C162.942444 75.533829,163.702591 75.218887,164.263062 74.658401C164.823547 74.097931,165.138489 73.337784,165.138489 72.545090Z" style="fill: rgb(100.000000%,100.000000%,100.000000%);stroke: none;"></path>
  <path d="M147.424667 76.188965C147.424667 75.396271,147.109726 74.636124,146.549240 74.075653C145.988770 73.515167,145.228622 73.200226,144.435928 73.200226C143.643234 73.200226,142.883087 73.515167,142.322617 74.075653C141.762131 74.636124,141.447189 75.396271,141.447189 76.188965C141.447189 76.981659,141.762131 77.741806,142.322617 78.302277C142.883087 78.862762,143.643234 79.177704,144.435928 79.177704C145.228622 79.177704,145.988770 78.862762,146.549240 78.302277C147.109726 77.741806,147.424667 76.981659,147.424667 76.188965Z" style="fill: rgb(100.000000%,100.000000%,100.000000%);stroke: none;"></path>
  <path d="M165.365295 26.868301C165.365295 26.075607,165.050354 25.315460,164.489868 24.754990C163.929398 24.194504,163.169250 23.879562,162.376556 23.879562C161.583862 23.879562,160.823715 24.194504,160.263245 24.754990C159.702759 25.315460,159.387817 26.075607,159.387817 26.868301C159.387817 27.660995,159.702759 28.421143,160.263245 28.981613C160.823715 29.542099,161.583862 29.857040,162.376556 29.857040C163.169250 29.857040,163.929398 29.542099,164.489868 28.981613C165.050354 28.421143,165.365295 27.660995,165.365295 26.868301Z" style="fill: rgb(100.000000%,100.000000%,100.000000%);stroke: none;"></path>
  <path d="M171.285782 59.559723C171.285782 58.767029,170.970840 58.006882,170.410355 57.446411C169.849884 56.885925,169.089737 56.570984,168.297043 56.570984C167.504349 56.570984,166.744202 56.885925,166.183731 57.446411C165.623245 58.006882,165.308304 58.767029,165.308304 59.559723C165.308304 60.352417,165.623245 61.112564,166.183731 61.673035C166.744202 62.233521,167.504349 62.548462,168.297043 62.548462C169.089737 62.548462,169.849884 62.233521,170.410355 61.673035C170.970840 61.112564,171.285782 60.352417,171.285782 59.559723Z" style="fill: rgb(100.000000%,100.000000%,100.000000%);stroke: none;"></path>
  <path d="M104.340622 2.614960C104.340622 1.822266,104.025681 1.062119,103.465195 0.501648C102.904724 -0.058838,102.144577 -0.373779,101.351883 -0.373779C100.559189 -0.373779,99.799042 -0.058838,99.238571 0.501648C98.678085 1.062119,98.363144 1.822266,98.363144 2.614960C98.363144 3.407654,98.678085 4.167801,99.238571 4.728271C99.799042 5.288757,100.559189 5.603699,101.351883 5.603699C102.144577 5.603699,102.904724 5.288757,103.465195 4.728271C104.025681 4.167801,104.340622 3.407654,104.340622 2.614960Z" style="fill: rgb(100.000000%,100.000000%,100.000000%);stroke: none;"></path>
  <path d="M145.877502 15.560776C145.877502 14.768082,145.562561 14.007935,145.002075 13.447464C144.441605 12.886978,143.681458 12.572037,142.888763 12.572037C142.096069 12.572037,141.335922 12.886978,140.775452 13.447464C140.214966 14.007935,139.900024 14.768082,139.900024 15.560776C139.900024 16.353470,140.214966 17.113617,140.775452 17.674088C141.335922 18.234573,142.096069 18.549515,142.888763 18.549515C143.681458 18.549515,144.441605 18.234573,145.002075 17.674088C145.562561 17.113617,145.877502 16.353470,145.877502 15.560776Z" style="fill: rgb(100.000000%,100.000000%,100.000000%);stroke: none;"></path>
  <path d="M61.116348 31.465240C61.116348 30.672546,60.801407 29.912399,60.240921 29.351929C59.680450 28.791443,58.920303 28.476501,58.127609 28.476501C57.334915 28.476501,56.574768 28.791443,56.014297 29.351929C55.453812 29.912399,55.138870 30.672546,55.138870 31.465240C55.138870 32.257935,55.453812 33.018082,56.014297 33.578552C56.574768 34.139038,57.334915 34.453979,58.127609 34.453979C58.920303 34.453979,59.680450 34.139038,60.240921 33.578552C60.801407 33.018082,61.116348 32.257935,61.116348 31.465240Z" style="fill: rgb(100.000000%,100.000000%,100.000000%);stroke: none;"></path>
  <path d="M79.509323 2.299759C79.509323 1.507065,79.194382 0.746918,78.633896 0.186447C78.073425 -0.374039,77.313278 -0.688980,76.520584 -0.688980C75.727890 -0.688980,74.967743 -0.374039,74.407272 0.186447C73.846786 0.746918,73.531845 1.507065,73.531845 2.299759C73.531845 3.092453,73.846786 3.852600,74.407272 4.413071C74.967743 4.973557,75.727890 5.288498,76.520584 5.288498C77.313278 5.288498,78.073425 4.973557,78.633896 4.413071C79.194382 3.852600,79.509323 3.092453,79.509323 2.299759Z" style="fill: rgb(100.000000%,100.000000%,100.000000%);stroke: none;"></path>
  <path d="M45.768661 66.546005C45.768661 65.753311,45.453720 64.993164,44.893234 64.432693C44.332764 63.872208,43.572617 63.557266,42.779922 63.557266C41.987228 63.557266,41.227081 63.872208,40.666611 64.432693C40.106125 64.993164,39.791183 65.753311,39.791183 66.546005C39.791183 67.338699,40.106125 68.098846,40.666611 68.659317C41.227081 69.219803,41.987228 69.534744,42.779922 69.534744C43.572617 69.534744,44.332764 69.219803,44.893234 68.659317C45.453720 68.098846,45.768661 67.338699,45.768661 66.546005Z" style="fill: rgb(100.000000%,100.000000%,100.000000%);stroke: none;"></path>
  <path d="M63.060272 46.539429C63.060272 45.746735,62.745331 44.986588,62.184845 44.426117C61.624374 43.865631,60.864227 43.550690,60.071533 43.550690C59.278839 43.550690,58.518692 43.865631,57.958221 44.426117C57.397736 44.986588,57.082794 45.746735,57.082794 46.539429C57.082794 47.332123,57.397736 48.092270,57.958221 48.652740C58.518692 49.213226,59.278839 49.528168,60.071533 49.528168C60.864227 49.528168,61.624374 49.213226,62.184845 48.652740C62.745331 48.092270,63.060272 47.332123,63.060272 46.539429Z" style="fill: rgb(100.000000%,100.000000%,100.000000%);stroke: none;"></path>
  <path d="M5.501755 89.574036C5.501755 88.781342,5.186813 88.021194,4.626328 87.460724C4.065857 86.900238,3.305710 86.585297,2.513016 86.585297C1.720322 86.585297,0.960175 86.900238,0.399704 87.460724C-0.160782 88.021194,-0.475723 88.781342,-0.475723 89.574036C-0.475723 90.366730,-0.160782 91.126877,0.399704 91.687347C0.960175 92.247833,1.720322 92.562775,2.513016 92.562775C3.305710 92.562775,4.065857 92.247833,4.626328 91.687347C5.186813 91.126877,5.501755 90.366730,5.501755 89.574036Z" style="fill: rgb(100.000000%,100.000000%,100.000000%);stroke: none;"></path>
  <path d="M30.440933 66.815399C30.440933 66.022705,30.125992 65.262558,29.565506 64.702087C29.005035 64.141602,28.244888 63.826660,27.452194 63.826660C26.659500 63.826660,25.899353 64.141602,25.338882 64.702087C24.778397 65.262558,24.463455 66.022705,24.463455 66.815399C24.463455 67.608093,24.778397 68.368240,25.338882 68.928711C25.899353 69.489197,26.659500 69.804138,27.452194 69.804138C28.244888 69.804138,29.005035 69.489197,29.565506 68.928711C30.125992 68.368240,30.440933 67.608093,30.440933 66.815399Z" style="fill: rgb(100.000000%,100.000000%,100.000000%);stroke: none;"></path>
  <path d="M32.303864 151.681915C32.303864 150.889221,31.988922 150.129074,31.428436 149.568604C30.867966 149.008118,30.107819 148.693176,29.315125 148.693176C28.522430 148.693176,27.762283 149.008118,27.201813 149.568604C26.641327 150.129074,26.326385 150.889221,26.326385 151.681915C26.326385 152.474609,26.641327 153.234756,27.201813 153.795227C27.762283 154.355713,28.522430 154.670654,29.315125 154.670654C30.107819 154.670654,30.867966 154.355713,31.428436 153.795227C31.988922 153.234756,32.303864 152.474609,32.303864 151.681915Z" style="fill: rgb(100.000000%,100.000000%,100.000000%);stroke: none;"></path>
  <path d="M9.951385 113.206497C9.951385 112.413803,9.636444 111.653656,9.075958 111.093185C8.515488 110.532700,7.755341 110.217758,6.962646 110.217758C6.169952 110.217758,5.409805 110.532700,4.849335 111.093185C4.288849 111.653656,3.973907 112.413803,3.973907 113.206497C3.973907 113.999191,4.288849 114.759338,4.849335 115.319809C5.409805 115.880295,6.169952 116.195236,6.962646 116.195236C7.755341 116.195236,8.515488 115.880295,9.075958 115.319809C9.636444 114.759338,9.951385 113.999191,9.951385 113.206497Z" style="fill: rgb(100.000000%,100.000000%,100.000000%);stroke: none;"></path>
  <path d="M84.987076 160.356140C84.987076 159.563446,84.672134 158.803299,84.111649 158.242828C83.551178 157.682343,82.791031 157.367401,81.998337 157.367401C81.205643 157.367401,80.445496 157.682343,79.885025 158.242828C79.324539 158.803299,79.009598 159.563446,79.009598 160.356140C79.009598 161.148834,79.324539 161.908981,79.885025 162.469452C80.445496 163.029938,81.205643 163.344879,81.998337 163.344879C82.791031 163.344879,83.551178 163.029938,84.111649 162.469452C84.672134 161.908981,84.987076 161.148834,84.987076 160.356140Z" style="fill: rgb(100.000000%,100.000000%,100.000000%);stroke: none;"></path>
  <path d="M50.668762 167.994385C50.668762 167.201691,50.353821 166.441544,49.793335 165.881073C49.232864 165.320587,48.472717 165.005646,47.680023 165.005646C46.887329 165.005646,46.127182 165.320587,45.566711 165.881073C45.006226 166.441544,44.691284 167.201691,44.691284 167.994385C44.691284 168.787079,45.006226 169.547226,45.566711 170.107697C46.127182 170.668182,46.887329 170.983124,47.680023 170.983124C48.472717 170.983124,49.232864 170.668182,49.793335 170.107697C50.353821 169.547226,50.668762 168.787079,50.668762 167.994385Z" style="fill: rgb(100.000000%,100.000000%,100.000000%);stroke: none;"></path>
  <path d="M109.539200 135.579086C109.539200 134.786392,109.224258 134.026245,108.663773 133.465775C108.103302 132.905289,107.343155 132.590347,106.550461 132.590347C105.757767 132.590347,104.997620 132.905289,104.437149 133.465775C103.876663 134.026245,103.561722 134.786392,103.561722 135.579086C103.561722 136.371780,103.876663 137.131927,104.437149 137.692398C104.997620 138.252884,105.757767 138.567825,106.550461 138.567825C107.343155 138.567825,108.103302 138.252884,108.663773 137.692398C109.224258 137.131927,109.539200 136.371780,109.539200 135.579086Z" style="fill: rgb(100.000000%,100.000000%,100.000000%);stroke: none;"></path>
  <path d="M93.986206 149.102509C93.986206 148.309814,93.671265 147.549667,93.110779 146.989197C92.550308 146.428711,91.790161 146.113770,90.997467 146.113770C90.204773 146.113770,89.444626 146.428711,88.884155 146.989197C88.323669 147.549667,88.008728 148.309814,88.008728 149.102509C88.008728 149.895203,88.323669 150.655350,88.884155 151.215820C89.444626 151.776306,90.204773 152.091248,90.997467 152.091248C91.790161 152.091248,92.550308 151.776306,93.110779 151.215820C93.671265 150.655350,93.986206 149.895203,93.986206 149.102509Z" style="fill: rgb(100.000000%,100.000000%,100.000000%);stroke: none;"></path>
  <path d="M124.012222 124.406403C124.012222 123.613708,123.697281 122.853561,123.136795 122.293091C122.576324 121.732605,121.816177 121.417664,121.023483 121.417664C120.230789 121.417664,119.470642 121.732605,118.910172 122.293091C118.349686 122.853561,118.034744 123.613708,118.034744 124.406403C118.034744 125.199097,118.349686 125.959244,118.910172 126.519714C119.470642 127.080200,120.230789 127.395142,121.023483 127.395142C121.816177 127.395142,122.576324 127.080200,123.136795 126.519714C123.697281 125.959244,124.012222 125.199097,124.012222 124.406403Z" style="fill: rgb(100.000000%,100.000000%,100.000000%);stroke: none;"></path>
  <path d="M115.365448 131.526520C115.365448 130.733826,115.050507 129.973679,114.490021 129.413208C113.929550 128.852722,113.169403 128.537781,112.376709 128.537781C111.584015 128.537781,110.823868 128.852722,110.263397 129.413208C109.702911 129.973679,109.387970 130.733826,109.387970 131.526520C109.387970 132.319214,109.702911 133.079361,110.263397 133.639832C110.823868 134.200317,111.584015 134.515259,112.376709 134.515259C113.169403 134.515259,113.929550 134.200317,114.490021 133.639832C115.050507 133.079361,115.365448 132.319214,115.365448 131.526520Z" style="fill: rgb(100.000000%,100.000000%,100.000000%);stroke: none;"></path>
  <path d="M132.075272 115.904602C132.075272 115.111908,131.760330 114.351761,131.199844 113.791290C130.639374 113.230804,129.879227 112.915863,129.086533 112.915863C128.293839 112.915863,127.533691 113.230804,126.973221 113.791290C126.412735 114.351761,126.097794 115.111908,126.097794 115.904602C126.097794 116.697296,126.412735 117.457443,126.973221 118.017914C127.533691 118.578400,128.293839 118.893341,129.086533 118.893341C129.879227 118.893341,130.639374 118.578400,131.199844 118.017914C131.760330 117.457443,132.075272 116.697296,132.075272 115.904602Z" style="fill: rgb(100.000000%,100.000000%,100.000000%);stroke: none;"></path>
  <path d="M127.071960 121.633865C127.071960 120.841171,126.757019 120.081024,126.196533 119.520554C125.636063 118.960068,124.875916 118.645126,124.083221 118.645126C123.290527 118.645126,122.530380 118.960068,121.969910 119.520554C121.409424 120.081024,121.094482 120.841171,121.094482 121.633865C121.094482 122.426559,121.409424 123.186707,121.969910 123.747177C122.530380 124.307663,123.290527 124.622604,124.083221 124.622604C124.875916 124.622604,125.636063 124.307663,126.196533 123.747177C126.757019 123.186707,127.071960 122.426559,127.071960 121.633865Z" style="fill: rgb(100.000000%,100.000000%,100.000000%);stroke: none;"></path>
  <path d="M138.506119 108.105911C138.506119 107.313217,138.191177 106.553070,137.630692 105.992599C137.070221 105.432114,136.310074 105.117172,135.517380 105.117172C134.724686 105.117172,133.964539 105.432114,133.404068 105.992599C132.843582 106.553070,132.528641 107.313217,132.528641 108.105911C132.528641 108.898605,132.843582 109.658752,133.404068 110.219223C133.964539 110.779709,134.724686 111.094650,135.517380 111.094650C136.310074 111.094650,137.070221 110.779709,137.630692 110.219223C138.191177 109.658752,138.506119 108.898605,138.506119 108.105911Z" style="fill: rgb(100.000000%,100.000000%,100.000000%);stroke: none;"></path>
  <path d="M134.102951 113.058563C134.102951 112.265869,133.788010 111.505722,133.227524 110.945251C132.667053 110.384766,131.906906 110.069824,131.114212 110.069824C130.321518 110.069824,129.561371 110.384766,129.000900 110.945251C128.440414 111.505722,128.125473 112.265869,128.125473 113.058563C128.125473 113.851257,128.440414 114.611404,129.000900 115.171875C129.561371 115.732361,130.321518 116.047302,131.114212 116.047302C131.906906 116.047302,132.667053 115.732361,133.227524 115.171875C133.788010 114.611404,134.102951 113.851257,134.102951 113.058563Z" style="fill: rgb(100.000000%,100.000000%,100.000000%);stroke: none;"></path>
  <path d="M137.999115 99.979477C137.999115 99.186783,137.684174 98.426636,137.123688 97.866165C136.563217 97.305679,135.803070 96.990738,135.010376 96.990738C134.217682 96.990738,133.457535 97.305679,132.897064 97.866165C132.336578 98.426636,132.021637 99.186783,132.021637 99.979477C132.021637 100.772171,132.336578 101.532318,132.897064 102.092789C133.457535 102.653275,134.217682 102.968216,135.010376 102.968216C135.803070 102.968216,136.563217 102.653275,137.123688 102.092789C137.684174 101.532318,137.999115 100.772171,137.999115 99.979477Z" style="fill: rgb(100.000000%,100.000000%,100.000000%);stroke: none;"></path>
  <path d="M140.680557 105.341370C140.680557 104.548676,140.365616 103.788528,139.805130 103.228058C139.244659 102.667572,138.484512 102.352631,137.691818 102.352631C136.899124 102.352631,136.138977 102.667572,135.578506 103.228058C135.018021 103.788528,134.703079 104.548676,134.703079 105.341370C134.703079 106.134064,135.018021 106.894211,135.578506 107.454681C136.138977 108.015167,136.899124 108.330109,137.691818 108.330109C138.484512 108.330109,139.244659 108.015167,139.805130 107.454681C140.365616 106.894211,140.680557 106.134064,140.680557 105.341370Z" style="fill: rgb(100.000000%,100.000000%,100.000000%);stroke: none;"></path>
  <path d="M127.812302 100.162674C127.812302 99.369980,127.497360 98.609833,126.936874 98.049362C126.376404 97.488876,125.616257 97.173935,124.823563 97.173935C124.030869 97.173935,123.270721 97.488876,122.710251 98.049362C122.149765 98.609833,121.834824 99.369980,121.834824 100.162674C121.834824 100.955368,122.149765 101.715515,122.710251 102.275986C123.270721 102.836472,124.030869 103.151413,124.823563 103.151413C125.616257 103.151413,126.376404 102.836472,126.936874 102.275986C127.497360 101.715515,127.812302 100.955368,127.812302 100.162674Z" style="fill: rgb(100.000000%,100.000000%,100.000000%);stroke: none;"></path>
  <path d="M134.491531 100.097168C134.491531 99.304474,134.176590 98.544327,133.616104 97.983856C133.055634 97.423370,132.295486 97.108429,131.502792 97.108429C130.710098 97.108429,129.949951 97.423370,129.389481 97.983856C128.828995 98.544327,128.514053 99.304474,128.514053 100.097168C128.514053 100.889862,128.828995 101.650009,129.389481 102.210480C129.949951 102.770966,130.710098 103.085907,131.502792 103.085907C132.295486 103.085907,133.055634 102.770966,133.616104 102.210480C134.176590 101.650009,134.491531 100.889862,134.491531 100.097168Z" style="fill: rgb(100.000000%,100.000000%,100.000000%);stroke: none;"></path>
  <path d="M116.708176 99.721939C116.708176 98.929245,116.393234 98.169098,115.832748 97.608627C115.272278 97.048141,114.512131 96.733200,113.719437 96.733200C112.926743 96.733200,112.166595 97.048141,111.606125 97.608627C111.045639 98.169098,110.730698 98.929245,110.730698 99.721939C110.730698 100.514633,111.045639 101.274780,111.606125 101.835251C112.166595 102.395737,112.926743 102.710678,113.719437 102.710678C114.512131 102.710678,115.272278 102.395737,115.832748 101.835251C116.393234 101.274780,116.708176 100.514633,116.708176 99.721939Z" style="fill: rgb(100.000000%,100.000000%,100.000000%);stroke: none;"></path>
  <path d="M124.259216 99.452240C124.259216 98.659546,123.944275 97.899399,123.383789 97.338928C122.823318 96.778442,122.063171 96.463501,121.270477 96.463501C120.477783 96.463501,119.717636 96.778442,119.157166 97.338928C118.596680 97.899399,118.281738 98.659546,118.281738 99.452240C118.281738 100.244934,118.596680 101.005081,119.157166 101.565552C119.717636 102.126038,120.477783 102.440979,121.270477 102.440979C122.063171 102.440979,122.823318 102.126038,123.383789 101.565552C123.944275 101.005081,124.259216 100.244934,124.259216 99.452240Z" style="fill: rgb(100.000000%,100.000000%,100.000000%);stroke: none;"></path>
  <path d="M104.529602 103.319733C104.529602 102.527039,104.214661 101.766891,103.654175 101.206421C103.093704 100.645935,102.333557 100.330994,101.540863 100.330994C100.748169 100.330994,99.988022 100.645935,99.427551 101.206421C98.867065 101.766891,98.552124 102.527039,98.552124 103.319733C98.552124 104.112427,98.867065 104.872574,99.427551 105.433044C99.988022 105.993530,100.748169 106.308472,101.540863 106.308472C102.333557 106.308472,103.093704 105.993530,103.654175 105.433044C104.214661 104.872574,104.529602 104.112427,104.529602 103.319733Z" style="fill: rgb(100.000000%,100.000000%,100.000000%);stroke: none;"></path>
  <path d="M112.873444 100.882843C112.873444 100.090149,112.558502 99.330002,111.998016 98.769531C111.437546 98.209045,110.677399 97.894104,109.884705 97.894104C109.092010 97.894104,108.331863 98.209045,107.771393 98.769531C107.210907 99.330002,106.895966 100.090149,106.895966 100.882843C106.895966 101.675537,107.210907 102.435684,107.771393 102.996155C108.331863 103.556641,109.092010 103.871582,109.884705 103.871582C110.677399 103.871582,111.437546 103.556641,111.998016 102.996155C112.558502 102.435684,112.873444 101.675537,112.873444 100.882843Z" style="fill: rgb(100.000000%,100.000000%,100.000000%);stroke: none;"></path>
  <path d="M89.816925 104.354904C89.816925 103.562210,89.501984 102.802063,88.941498 102.241592C88.381027 101.681107,87.620880 101.366165,86.828186 101.366165C86.035492 101.366165,85.275345 101.681107,84.714874 102.241592C84.154388 102.802063,83.839447 103.562210,83.839447 104.354904C83.839447 105.147598,84.154388 105.907745,84.714874 106.468216C85.275345 107.028702,86.035492 107.343643,86.828186 107.343643C87.620880 107.343643,88.381027 107.028702,88.941498 106.468216C89.501984 105.907745,89.816925 105.147598,89.816925 104.354904Z" style="fill: rgb(100.000000%,100.000000%,100.000000%);stroke: none;"></path>
  <path d="M99.926666 104.590164C99.926666 103.797470,99.611725 103.037323,99.051239 102.476852C98.490768 101.916367,97.730621 101.601425,96.937927 101.601425C96.145233 101.601425,95.385086 101.916367,94.824615 102.476852C94.264130 103.037323,93.949188 103.797470,93.949188 104.590164C93.949188 105.382858,94.264130 106.143005,94.824615 106.703476C95.385086 107.263962,96.145233 107.578903,96.937927 107.578903C97.730621 107.578903,98.490768 107.263962,99.051239 106.703476C99.611725 106.143005,99.926666 105.382858,99.926666 104.590164Z" style="fill: rgb(100.000000%,100.000000%,100.000000%);stroke: none;"></path>
  <path d="M72.212799 97.447876C72.212799 96.655182,71.897858 95.895035,71.337372 95.334564C70.776901 94.774078,70.016754 94.459137,69.224060 94.459137C68.431366 94.459137,67.671219 94.774078,67.110748 95.334564C66.550262 95.895035,66.235321 96.655182,66.235321 97.447876C66.235321 98.240570,66.550262 99.000717,67.110748 99.561188C67.671219 100.121674,68.431366 100.436615,69.224060 100.436615C70.016754 100.436615,70.776901 100.121674,71.337372 99.561188C71.897858 99.000717,72.212799 98.240570,72.212799 97.447876Z" style="fill: rgb(100.000000%,100.000000%,100.000000%);stroke: none;"></path>
  <path d="M84.702133 102.458145C84.702133 101.665451,84.387192 100.905304,83.826706 100.344833C83.266235 99.784348,82.506088 99.469406,81.713394 99.469406C80.920700 99.469406,80.160553 99.784348,79.600082 100.344833C79.039597 100.905304,78.724655 101.665451,78.724655 102.458145C78.724655 103.250839,79.039597 104.010986,79.600082 104.571457C80.160553 105.131943,80.920700 105.446884,81.713394 105.446884C82.506088 105.446884,83.266235 105.131943,83.826706 104.571457C84.387192 104.010986,84.702133 103.250839,84.702133 102.458145Z" style="fill: rgb(100.000000%,100.000000%,100.000000%);stroke: none;"></path>
  <path d="M44.237808 87.646790C44.237808 86.854095,43.922867 86.093948,43.362381 85.533478C42.801910 84.972992,42.041763 84.658051,41.249069 84.658051C40.456375 84.658051,39.696228 84.972992,39.135757 85.533478C38.575272 86.093948,38.260330 86.854095,38.260330 87.646790C38.260330 88.439484,38.575272 89.199631,39.135757 89.760101C39.696228 90.320587,40.456375 90.635529,41.249069 90.635529C42.041763 90.635529,42.801910 90.320587,43.362381 89.760101C43.922867 89.199631,44.237808 88.439484,44.237808 87.646790Z" style="fill: rgb(100.000000%,100.000000%,100.000000%);stroke: none;"></path>
  <path d="M64.812897 94.166611C64.812897 93.373917,64.497955 92.613770,63.937469 92.053299C63.376999 91.492813,62.616852 91.177872,61.824158 91.177872C61.031464 91.177872,60.271317 91.492813,59.710846 92.053299C59.150360 92.613770,58.835419 93.373917,58.835419 94.166611C58.835419 94.959305,59.150360 95.719452,59.710846 96.279922C60.271317 96.840408,61.031464 97.155350,61.824158 97.155350C62.616852 97.155350,63.376999 96.840408,63.937469 96.279922C64.497955 95.719452,64.812897 94.959305,64.812897 94.166611Z" style="fill: rgb(100.000000%,100.000000%,100.000000%);stroke: none;"></path>
  <path d="M8.601425 62.792801C8.601425 62.000107,8.286484 61.239960,7.725998 60.679489C7.165527 60.119003,6.405380 59.804062,5.612686 59.804062C4.819992 59.804062,4.059845 60.119003,3.499374 60.679489C2.938889 61.239960,2.623947 62.000107,2.623947 62.792801C2.623947 63.585495,2.938889 64.345642,3.499374 64.906113C4.059845 65.466599,4.819992 65.781540,5.612686 65.781540C6.405380 65.781540,7.165527 65.466599,7.725998 64.906113C8.286484 64.345642,8.601425 63.585495,8.601425 62.792801Z" style="fill: rgb(100.000000%,100.000000%,100.000000%);stroke: none;"></path>
  <path d="M30.050461 85.547501C30.050461 84.754807,29.735519 83.994659,29.175034 83.434189C28.614563 82.873703,27.854416 82.558762,27.061722 82.558762C26.269028 82.558762,25.508881 82.873703,24.948410 83.434189C24.387924 83.994659,24.072983 84.754807,24.072983 85.547501C24.072983 86.340195,24.387924 87.100342,24.948410 87.660812C25.508881 88.221298,26.269028 88.536240,27.061722 88.536240C27.854416 88.536240,28.614563 88.221298,29.175034 87.660812C29.735519 87.100342,30.050461 86.340195,30.050461 85.547501Z" style="fill: rgb(100.000000%,100.000000%,100.000000%);stroke: none;"></path>
  <path d="M32.499710 15.031555C32.499710 14.238861,32.184769 13.478714,31.624283 12.918243C31.063812 12.357758,30.303665 12.042816,29.510971 12.042816C28.718277 12.042816,27.958130 12.357758,27.397659 12.918243C26.837173 13.478714,26.522232 14.238861,26.522232 15.031555C26.522232 15.824249,26.837173 16.584396,27.397659 17.144867C27.958130 17.705353,28.718277 18.020294,29.510971 18.020294C30.303665 18.020294,31.063812 17.705353,31.624283 17.144867C32.184769 16.584396,32.499710 15.824249,32.499710 15.031555Z" style="fill: rgb(100.000000%,100.000000%,100.000000%);stroke: none;"></path>
  <path d="M9.139236 42.703033C9.139236 41.910339,8.824295 41.150192,8.263809 40.589722C7.703339 40.029236,6.943192 39.714294,6.150497 39.714294C5.357803 39.714294,4.597656 40.029236,4.037186 40.589722C3.476700 41.150192,3.161758 41.910339,3.161758 42.703033C3.161758 43.495728,3.476700 44.255875,4.037186 44.816345C4.597656 45.376831,5.357803 45.691772,6.150497 45.691772C6.943192 45.691772,7.703339 45.376831,8.263809 44.816345C8.824295 44.255875,9.139236 43.495728,9.139236 42.703033Z" style="fill: rgb(100.000000%,100.000000%,100.000000%);stroke: none;"></path>
  <path d="M80.203766 27.573730C80.203766 26.781036,79.888824 26.020889,79.328339 25.460419C78.767868 24.899933,78.007721 24.584991,77.215027 24.584991C76.422333 24.584991,75.662186 24.899933,75.101715 25.460419C74.541229 26.020889,74.226288 26.781036,74.226288 27.573730C74.226288 28.366425,74.541229 29.126572,75.101715 29.687042C75.662186 30.247528,76.422333 30.562469,77.215027 30.562469C78.007721 30.562469,78.767868 30.247528,79.328339 29.687042C79.888824 29.126572,80.203766 28.366425,80.203766 27.573730Z" style="fill: rgb(100.000000%,100.000000%,100.000000%);stroke: none;"></path>
  <path d="M52.480179 11.154037C52.480179 10.361343,52.165237 9.601196,51.604752 9.040726C51.044281 8.480240,50.284134 8.165298,49.491440 8.165298C48.698746 8.165298,47.938599 8.480240,47.378128 9.040726C46.817642 9.601196,46.502701 10.361343,46.502701 11.154037C46.502701 11.946732,46.817642 12.706879,47.378128 13.267349C47.938599 13.827835,48.698746 14.142776,49.491440 14.142776C50.284134 14.142776,51.044281 13.827835,51.604752 13.267349C52.165237 12.706879,52.480179 11.946732,52.480179 11.154037Z" style="fill: rgb(100.000000%,100.000000%,100.000000%);stroke: none;"></path>
  <path d="M94.924408 61.490494C94.924408 60.697800,94.609467 59.937653,94.048981 59.377182C93.488510 58.816696,92.728363 58.501755,91.935669 58.501755C91.142975 58.501755,90.382828 58.816696,89.822357 59.377182C89.261871 59.937653,88.946930 60.697800,88.946930 61.490494C88.946930 62.283188,89.261871 63.043335,89.822357 63.603806C90.382828 64.164291,91.142975 64.479233,91.935669 64.479233C92.728363 64.479233,93.488510 64.164291,94.048981 63.603806C94.609467 63.043335,94.924408 62.283188,94.924408 61.490494Z" style="fill: rgb(100.000000%,100.000000%,100.000000%);stroke: none;"></path>
  <path d="M86.282059 40.978134C86.282059 40.185440,85.967117 39.425293,85.406631 38.864822C84.846161 38.304337,84.086014 37.989395,83.293320 37.989395C82.500626 37.989395,81.740479 38.304337,81.180008 38.864822C80.619522 39.425293,80.304581 40.185440,80.304581 40.978134C80.304581 41.770828,80.619522 42.530975,81.180008 43.091446C81.740479 43.651932,82.500626 43.966873,83.293320 43.966873C84.086014 43.966873,84.846161 43.651932,85.406631 43.091446C85.967117 42.530975,86.282059 41.770828,86.282059 40.978134Z" style="fill: rgb(100.000000%,100.000000%,100.000000%);stroke: none;"></path>
  <path d="M103.598190 80.719360C103.598190 79.926666,103.283249 79.166519,102.722763 78.606049C102.162292 78.045563,101.402145 77.730621,100.609451 77.730621C99.816757 77.730621,99.056610 78.045563,98.496140 78.606049C97.935654 79.166519,97.620712 79.926666,97.620712 80.719360C97.620712 81.512054,97.935654 82.272202,98.496140 82.832672C99.056610 83.393158,99.816757 83.708099,100.609451 83.708099C101.402145 83.708099,102.162292 83.393158,102.722763 82.832672C103.283249 82.272202,103.598190 81.512054,103.598190 80.719360Z" style="fill: rgb(100.000000%,100.000000%,100.000000%);stroke: none;"></path>
  <path d="M98.067963 69.065323C98.067963 68.272629,97.753021 67.512482,97.192535 66.952011C96.632065 66.391525,95.871918 66.076584,95.079224 66.076584C94.286530 66.076584,93.526382 66.391525,92.965912 66.952011C92.405426 67.512482,92.090485 68.272629,92.090485 69.065323C92.090485 69.858017,92.405426 70.618164,92.965912 71.178635C93.526382 71.739120,94.286530 72.054062,95.079224 72.054062C95.871918 72.054062,96.632065 71.739120,97.192535 71.178635C97.753021 70.618164,98.067963 69.858017,98.067963 69.065323Z" style="fill: rgb(100.000000%,100.000000%,100.000000%);stroke: none;"></path>
  <path d="M108.134048 93.551407C108.134048 92.758713,107.819107 91.998566,107.258621 91.438095C106.698151 90.877609,105.938004 90.562668,105.145309 90.562668C104.352615 90.562668,103.592468 90.877609,103.031998 91.438095C102.471512 91.998566,102.156570 92.758713,102.156570 93.551407C102.156570 94.344101,102.471512 95.104248,103.031998 95.664719C103.592468 96.225204,104.352615 96.540146,105.145309 96.540146C105.938004 96.540146,106.698151 96.225204,107.258621 95.664719C107.819107 95.104248,108.134048 94.344101,108.134048 93.551407Z" style="fill: rgb(100.000000%,100.000000%,100.000000%);stroke: none;"></path>
  <path d="M105.742844 84.931335C105.742844 84.138641,105.427902 83.378494,104.867416 82.818024C104.306946 82.257538,103.546799 81.942596,102.754105 81.942596C101.961411 81.942596,101.201263 82.257538,100.640793 82.818024C100.080307 83.378494,99.765366 84.138641,99.765366 84.931335C99.765366 85.724030,100.080307 86.484177,100.640793 87.044647C101.201263 87.605133,101.961411 87.920074,102.754105 87.920074C103.546799 87.920074,104.306946 87.605133,104.867416 87.044647C105.427902 86.484177,105.742844 85.724030,105.742844 84.931335Z" style="fill: rgb(100.000000%,100.000000%,100.000000%);stroke: none;"></path>
  <path d="M109.649658 106.524490C109.649658 105.731796,109.334717 104.971649,108.774231 104.411179C108.213760 103.850693,107.453613 103.535751,106.660919 103.535751C105.868225 103.535751,105.108078 103.850693,104.547607 104.411179C103.987122 104.971649,103.672180 105.731796,103.672180 106.524490C103.672180 107.317184,103.987122 108.077332,104.547607 108.637802C105.108078 109.198288,105.868225 109.513229,106.660919 109.513229C107.453613 109.513229,108.213760 109.198288,108.774231 108.637802C109.334717 108.077332,109.649658 107.317184,109.649658 106.524490Z" style="fill: rgb(100.000000%,100.000000%,100.000000%);stroke: none;"></path>
  <path d="M108.515594 97.792572C108.515594 96.999878,108.200653 96.239731,107.640167 95.679260C107.079697 95.118774,106.319550 94.803833,105.526855 94.803833C104.734161 94.803833,103.974014 95.118774,103.413544 95.679260C102.853058 96.239731,102.538116 96.999878,102.538116 97.792572C102.538116 98.585266,102.853058 99.345413,103.413544 99.905884C103.974014 100.466370,104.734161 100.781311,105.526855 100.781311C106.319550 100.781311,107.079697 100.466370,107.640167 99.905884C108.200653 99.345413,108.515594 98.585266,108.515594 97.792572Z" style="fill: rgb(100.000000%,100.000000%,100.000000%);stroke: none;"></path>
  <path d="M114.223923 119.744934C114.223923 118.952240,113.908981 118.192093,113.348495 117.631622C112.788025 117.071136,112.027878 116.756195,111.235184 116.756195C110.442490 116.756195,109.682343 117.071136,109.121872 117.631622C108.561386 118.192093,108.246445 118.952240,108.246445 119.744934C108.246445 120.537628,108.561386 121.297775,109.121872 121.858246C109.682343 122.418732,110.442490 122.733673,111.235184 122.733673C112.027878 122.733673,112.788025 122.418732,113.348495 121.858246C113.908981 121.297775,114.223923 120.537628,114.223923 119.744934Z" style="fill: rgb(100.000000%,100.000000%,100.000000%);stroke: none;"></path>
  <path d="M110.441269 111.057617C110.441269 110.264923,110.126328 109.504776,109.565842 108.944305C109.005371 108.383820,108.245224 108.068878,107.452530 108.068878C106.659836 108.068878,105.899689 108.383820,105.339218 108.944305C104.778732 109.504776,104.463791 110.264923,104.463791 111.057617C104.463791 111.850311,104.778732 112.610458,105.339218 113.170929C105.899689 113.731415,106.659836 114.046356,107.452530 114.046356C108.245224 114.046356,109.005371 113.731415,109.565842 113.170929C110.126328 112.610458,110.441269 111.850311,110.441269 111.057617Z" style="fill: rgb(100.000000%,100.000000%,100.000000%);stroke: none;"></path>
  <path d="M125.239029 131.221222C125.239029 130.428528,124.924088 129.668381,124.363602 129.107910C123.803131 128.547424,123.042984 128.232483,122.250290 128.232483C121.457596 128.232483,120.697449 128.547424,120.136978 129.107910C119.576492 129.668381,119.261551 130.428528,119.261551 131.221222C119.261551 132.013916,119.576492 132.774063,120.136978 133.334534C120.697449 133.895020,121.457596 134.209961,122.250290 134.209961C123.042984 134.209961,123.803131 133.895020,124.363602 133.334534C124.924088 132.774063,125.239029 132.013916,125.239029 131.221222Z" style="fill: rgb(100.000000%,100.000000%,100.000000%);stroke: none;"></path>
  <path d="M117.280655 123.645721C117.280655 122.853027,116.965714 122.092880,116.405228 121.532410C115.844757 120.971924,115.084610 120.656982,114.291916 120.656982C113.499222 120.656982,112.739075 120.971924,112.178604 121.532410C111.618118 122.092880,111.303177 122.853027,111.303177 123.645721C111.303177 124.438416,111.618118 125.198563,112.178604 125.759033C112.739075 126.319519,113.499222 126.634460,114.291916 126.634460C115.084610 126.634460,115.844757 126.319519,116.405228 125.759033C116.965714 125.198563,117.280655 124.438416,117.280655 123.645721Z" style="fill: rgb(100.000000%,100.000000%,100.000000%);stroke: none;"></path>
  <path d="M131.600204 138.995331C140.451553 148.243240,153.752792 151.725037,166.000000 148.000000C186.865341 141.653732,196.935226 119.180283,196.264572 96.613419C195.627914 75.190338,185.647705 54.315109,166.000000 46.876022C153.871750 42.283981,139.807999 45.113739,134.788193 56.252487C132.461395 61.415558,133.096329 67.243958,133.028625 72.884018C132.968826 77.864807,132.327271 82.813248,131.513535 87.726303C130.815216 91.942490,129.984756 96.154907,128.402664 100.127579C127.525848 102.329285,126.460281 104.677078,127.439087 106.826935C128.456024 109.060532,131.055954 109.767349,133.429916 110.453873C138.768173 111.997620,143.794022 114.455872,148.340530 117.650345C158.527649 124.808014,166.021088 135.625748,166.000000 148.000000C165.963409 169.477905,145.944687 184.179901,123.606934 187.889511C100.719589 191.690384,76.469193 184.061340,68.713760 163.312897C63.864594 150.339691,68.061920 136.394119,71.454025 123.001587C73.349030 115.519821,74.963669 107.970917,76.723373 100.456329C78.064682 94.728439,79.589569 88.851807,83.617203 84.547485C87.559799 80.334045,93.176880 78.416290,98.594177 76.472504C104.175003 74.470032,109.750610 72.316055,115.640549 71.582123C121.456177 70.857437,127.326584 71.545624,133.028625 72.884018C138.706192 74.216675,144.435928 76.188965,150.170044 75.009415C162.149750 72.545090,168.297043 59.559723,166.000000 46.876022C162.376556 26.868301,142.888763 15.560776,123.000412 9.362167C101.351883 2.614960,76.520584 2.299759,65.104950 20.401367C58.127609 31.465240,60.071533 46.539429,51.436859 56.529846C42.779922 66.546005,27.452194 66.815399,17.750168 75.669128C2.513016 89.574036,6.962646 113.206497,17.998245 132.202118C29.315125 151.681915,47.680023 167.994385,68.713760 163.312897C81.998337 160.356140,90.997467 149.102509,101.206726 140.225494C106.550461 135.579086,112.376709 131.526520,117.842651 127.025635C121.023483 124.406403,124.083221 121.633865,126.794113 118.529633C129.086533 115.904602,131.114212 113.058563,133.429916 110.453873C135.517380 108.105911,137.691818 105.341370,136.350708 102.659637C135.010376 99.979477,131.502792 100.097168,128.402664 100.127579C124.823563 100.162674,121.270477 99.452240,117.692612 99.580032C113.719437 99.721939,109.884705 100.882843,106.072800 101.996140C101.540863 103.319733,96.937927 104.590164,92.211624 104.480179C86.828186 104.354904,81.713394 102.458145,76.723373 100.456329C69.224060 97.447876,61.824158 94.166611,54.119736 91.725235C41.249069 87.646790,27.061722 85.547501,17.750168 75.669128C5.612686 62.792801,6.150497 42.703033,17.737228 28.978058C29.510971 15.031555,49.491440 11.154037,65.104950 20.401367C77.215027 27.573730,83.293320 40.978134,88.752457 53.935226C91.935669 61.490494,95.079224 69.065323,98.594177 76.472504C100.609451 80.719360,102.754105 84.931335,104.011566 89.464355C105.145309 93.551407,105.526855 97.792572,106.072800 101.996140C106.660919 106.524490,107.452530 111.057617,109.277115 115.248001C111.235184 119.744934,114.291916 123.645721,117.842651 127.025635C122.250290 131.221222,127.390900 134.597443,131.600204 138.995331" style="stroke:rgb(0.000000%,0.000000%,0.000000%); stroke-width: 0.498138;stroke-linecap: round;stroke-linejoin: round;stroke-miterlimit: 10.000000;fill: none;"></path>
  <path d="M131.600204 138.995331C140.451553 148.243240,153.752792 151.725037,166.000000 148.000000" style="stroke:rgb(0.000000%,0.000000%,0.000000%); stroke-width: 1.494400;stroke-linecap: round;stroke-linejoin: round;stroke-miterlimit: 10.000000;fill: none;"></path>
  <path d="M106.072800 101.996140C106.660919 106.524490,107.452530 111.057617,109.277115 115.248001C111.235184 119.744934,114.291916 123.645721,117.842651 127.025635C122.250290 131.221222,127.390900 134.597443,131.600204 138.995331" style="stroke:rgb(0.000000%,0.000000%,0.000000%); stroke-width: 1.494400;stroke-linecap: round;stroke-linejoin: round;stroke-miterlimit: 10.000000;fill: none;"></path>
  <path d="M168.988739 148.000000C168.988739 147.207306,168.673798 146.447159,168.113312 145.886688C167.552841 145.326202,166.792694 145.011261,166.000000 145.011261C165.207306 145.011261,164.447159 145.326202,163.886688 145.886688C163.326202 146.447159,163.011261 147.207306,163.011261 148.000000C163.011261 148.792694,163.326202 149.552841,163.886688 150.113312C164.447159 150.673798,165.207306 150.988739,166.000000 150.988739C166.792694 150.988739,167.552841 150.673798,168.113312 150.113312C168.673798 149.552841,168.988739 148.792694,168.988739 148.000000Z" style="fill: rgb(100.000000%,100.000000%,100.000000%);stroke: none;"></path>
  <path d="M160.998352 130.868973C164.142456 136.014893,166.010544 141.812881,166.000000 148.000000C165.981705 158.738953,160.967865 167.783936,153.166382 174.607880" style="stroke:rgb(0.000000%,0.000000%,0.000000%); stroke-width: 0.498138;stroke-linecap: round;stroke-linejoin: round;stroke-miterlimit: 10.000000;fill: none;"></path>
  <path d="M136.017365 72.884018C136.017365 72.091324,135.702423 71.331177,135.141937 70.770706C134.581467 70.210220,133.821320 69.895279,133.028625 69.895279C132.235931 69.895279,131.475784 70.210220,130.915314 70.770706C130.354828 71.331177,130.039886 72.091324,130.039886 72.884018C130.039886 73.676712,130.354828 74.436859,130.915314 74.997330C131.475784 75.557816,132.235931 75.872757,133.028625 75.872757C133.821320 75.872757,134.581467 75.557816,135.141937 74.997330C135.702423 74.436859,136.017365 73.676712,136.017365 72.884018Z" style="fill: rgb(100.000000%,100.000000%,100.000000%);stroke: none;"></path>
  <path d="M124.377197 71.459427C127.284500 71.708191,130.177612 72.214828,133.028625 72.884018C135.867416 73.550354,138.719238 74.376587,141.578140 74.888794" style="stroke:rgb(0.000000%,0.000000%,0.000000%); stroke-width: 0.498138;stroke-linecap: round;stroke-linejoin: round;stroke-miterlimit: 10.000000;fill: none;"></path>
  <path d="M136.418655 110.453873C136.418655 109.661179,136.103714 108.901031,135.543228 108.340561C134.982758 107.780075,134.222610 107.465134,133.429916 107.465134C132.637222 107.465134,131.877075 107.780075,131.316605 108.340561C130.756119 108.901031,130.441177 109.661179,130.441177 110.453873C130.441177 111.246567,130.756119 112.006714,131.316605 112.567184C131.877075 113.127670,132.637222 113.442612,133.429916 113.442612C134.222610 113.442612,134.982758 113.127670,135.543228 112.567184C136.103714 112.006714,136.418655 111.246567,136.418655 110.453873Z" style="fill: rgb(100.000000%,100.000000%,100.000000%);stroke: none;"></path>
  <path d="M129.925629 109.220566C130.999466 109.762283,132.242935 110.110611,133.429916 110.453873C136.099045 111.225754,138.690079 112.226257,141.182144 113.433105" style="stroke:rgb(0.000000%,0.000000%,0.000000%); stroke-width: 0.498138;stroke-linecap: round;stroke-linejoin: round;stroke-miterlimit: 10.000000;fill: none;"></path>
  <path d="M71.702499 163.312897C71.702499 162.520203,71.387558 161.760056,70.827072 161.199585C70.266602 160.639099,69.506454 160.324158,68.713760 160.324158C67.921066 160.324158,67.160919 160.639099,66.600449 161.199585C66.039963 161.760056,65.725021 162.520203,65.725021 163.312897C65.725021 164.105591,66.039963 164.865738,66.600449 165.426208C67.160919 165.986694,67.921066 166.301636,68.713760 166.301636C69.506454 166.301636,70.266602 165.986694,70.827072 165.426208C71.387558 164.865738,71.702499 164.105591,71.702499 163.312897Z" style="fill: rgb(100.000000%,100.000000%,100.000000%);stroke: none;"></path>
  <path d="M39.712189 156.817993C48.347244 162.745895,58.196899 165.653641,68.713760 163.312897C75.356049 161.834518,80.926987 158.281921,86.113495 153.989288" style="stroke:rgb(0.000000%,0.000000%,0.000000%); stroke-width: 0.498138;stroke-linecap: round;stroke-linejoin: round;stroke-miterlimit: 10.000000;fill: none;"></path>
  <path d="M101.582916 76.472504C101.582916 75.679810,101.267975 74.919662,100.707489 74.359192C100.147018 73.798706,99.386871 73.483765,98.594177 73.483765C97.801483 73.483765,97.041336 73.798706,96.480865 74.359192C95.920380 74.919662,95.605438 75.679810,95.605438 76.472504C95.605438 77.265198,95.920380 78.025345,96.480865 78.585815C97.041336 79.146301,97.801483 79.461243,98.594177 79.461243C99.386871 79.461243,100.147018 79.146301,100.707489 78.585815C101.267975 78.025345,101.582916 77.265198,101.582916 76.472504Z" style="fill: rgb(100.000000%,100.000000%,100.000000%);stroke: none;"></path>
  <path d="M93.548920 65.259415C95.172073 69.023422,96.836700 72.768921,98.594177 76.472504C99.601822 78.595932,100.641800 80.710648,101.587067 82.861130" style="stroke:rgb(0.000000%,0.000000%,0.000000%); stroke-width: 0.498138;stroke-linecap: round;stroke-linejoin: round;stroke-miterlimit: 10.000000;fill: none;"></path>
  <path d="M168.988739 46.876022C168.988739 46.083328,168.673798 45.323181,168.113312 44.762711C167.552841 44.202225,166.792694 43.887283,166.000000 43.887283C165.207306 43.887283,164.447159 44.202225,163.886688 44.762711C163.326202 45.323181,163.011261 46.083328,163.011261 46.876022C163.011261 47.668716,163.326202 48.428864,163.886688 48.989334C164.447159 49.549820,165.207306 49.864761,166.000000 49.864761C166.792694 49.864761,167.552841 49.549820,168.113312 48.989334C168.673798 48.428864,168.988739 47.668716,168.988739 46.876022Z" style="fill: rgb(100.000000%,100.000000%,100.000000%);stroke: none;"></path>
  <path d="M188.261414 66.500702C183.230820 57.674133,175.823853 50.595566,166.000000 46.876022C159.935867 44.580002,153.387863 44.139435,147.728424 45.665222" style="stroke:rgb(0.000000%,0.000000%,0.000000%); stroke-width: 0.498138;stroke-linecap: round;stroke-linejoin: round;stroke-miterlimit: 10.000000;fill: none;"></path>
  <path d="M20.738907 75.669128C20.738907 74.876434,20.423965 74.116287,19.863480 73.555817C19.303009 72.995331,18.542862 72.680389,17.750168 72.680389C16.957474 72.680389,16.197327 72.995331,15.636856 73.555817C15.076370 74.116287,14.761429 74.876434,14.761429 75.669128C14.761429 76.461823,15.076370 77.221970,15.636856 77.782440C16.197327 78.342926,16.957474 78.657867,17.750168 78.657867C18.542862 78.657867,19.303009 78.342926,19.863480 77.782440C20.423965 77.221970,20.738907 76.461823,20.738907 75.669128Z" style="fill: rgb(100.000000%,100.000000%,100.000000%);stroke: none;"></path>
  <path d="M34.600281 85.872147C28.280670 83.602722,22.405945 80.608307,17.750168 75.669128C11.681427 69.230957,8.781509 60.989426,8.847122 52.641815" style="stroke:rgb(0.000000%,0.000000%,0.000000%); stroke-width: 0.498138;stroke-linecap: round;stroke-linejoin: round;stroke-miterlimit: 10.000000;fill: none;"></path>
  <path d="M120.831390 127.025635C120.831390 126.232941,120.516449 125.472794,119.955963 124.912323C119.395493 124.351837,118.635345 124.036896,117.842651 124.036896C117.049957 124.036896,116.289810 124.351837,115.729340 124.912323C115.168854 125.472794,114.853912 126.232941,114.853912 127.025635C114.853912 127.818329,115.168854 128.578476,115.729340 129.138947C116.289810 129.699432,117.049957 130.014374,117.842651 130.014374C118.635345 130.014374,119.395493 129.699432,119.955963 129.138947C120.516449 128.578476,120.831390 127.818329,120.831390 127.025635Z" style="fill: rgb(100.000000%,100.000000%,100.000000%);stroke: none;"></path>
  <path d="M112.962646 121.555710C114.415421 123.515503,116.067291 125.335678,117.842651 127.025635C120.046478 129.123428,122.433548 131.016388,124.795822 132.934631" style="stroke:rgb(0.000000%,0.000000%,0.000000%); stroke-width: 1.494400;stroke-linecap: round;stroke-linejoin: round;stroke-miterlimit: 10.000000;fill: none;"></path>
  <path d="M131.391403 100.127579C131.391403 99.334885,131.076462 98.574738,130.515976 98.014267C129.955505 97.453781,129.195358 97.138840,128.402664 97.138840C127.609970 97.138840,126.849823 97.453781,126.289352 98.014267C125.728867 98.574738,125.413925 99.334885,125.413925 100.127579C125.413925 100.920273,125.728867 101.680420,126.289352 102.240891C126.849823 102.801376,127.609970 103.116318,128.402664 103.116318C129.195358 103.116318,129.955505 102.801376,130.515976 102.240891C131.076462 101.680420,131.391403 100.920273,131.391403 100.127579Z" style="fill: rgb(100.000000%,100.000000%,100.000000%);stroke: none;"></path>
  <path d="M133.036591 100.377151C131.604645 100.075363,129.952728 100.112381,128.402664 100.127579C126.613113 100.145126,124.830063 99.976288,123.047165 99.819031" style="stroke:rgb(0.000000%,0.000000%,0.000000%); stroke-width: 0.498138;stroke-linecap: round;stroke-linejoin: round;stroke-miterlimit: 10.000000;fill: none;"></path>
  <path d="M79.712112 100.456329C79.712112 99.663635,79.397171 98.903488,78.836685 98.343018C78.276215 97.782532,77.516068 97.467590,76.723373 97.467590C75.930679 97.467590,75.170532 97.782532,74.610062 98.343018C74.049576 98.903488,73.734634 99.663635,73.734634 100.456329C73.734634 101.249023,74.049576 102.009171,74.610062 102.569641C75.170532 103.130127,75.930679 103.445068,76.723373 103.445068C77.516068 103.445068,78.276215 103.130127,78.836685 102.569641C79.397171 102.009171,79.712112 101.249023,79.712112 100.456329Z" style="fill: rgb(100.000000%,100.000000%,100.000000%);stroke: none;"></path>
  <path d="M74.139450 111.741257C74.999939 107.979492,75.843521 104.213623,76.723373 100.456329C77.394028 97.592377,78.110580 94.691238,79.162933 91.968048" style="stroke:rgb(0.000000%,0.000000%,0.000000%); stroke-width: 0.498138;stroke-linecap: round;stroke-linejoin: round;stroke-miterlimit: 10.000000;fill: none;"></path>
  <path d="M68.093689 20.401367C68.093689 19.608673,67.778748 18.848526,67.218262 18.288055C66.657791 17.727570,65.897644 17.412628,65.104950 17.412628C64.312256 17.412628,63.552109 17.727570,62.991638 18.288055C62.431152 18.848526,62.116211 19.608673,62.116211 20.401367C62.116211 21.194061,62.431152 21.954208,62.991638 22.514679C63.552109 23.075165,64.312256 23.390106,65.104950 23.390106C65.897644 23.390106,66.657791 23.075165,67.218262 22.514679C67.778748 21.954208,68.093689 21.194061,68.093689 20.401367Z" style="fill: rgb(100.000000%,100.000000%,100.000000%);stroke: none;"></path>
  <path d="M90.215332 5.563461C79.874496 6.903961,70.812759 11.350571,65.104950 20.401367C61.616272 25.933304,60.357925 32.467819,58.892395 38.868164" style="stroke:rgb(0.000000%,0.000000%,0.000000%); stroke-width: 0.498138;stroke-linecap: round;stroke-linejoin: round;stroke-miterlimit: 10.000000;fill: none;"></path>
  <path d="M109.061539 101.996140C109.061539 101.203445,108.746597 100.443298,108.186111 99.882828C107.625641 99.322342,106.865494 99.007401,106.072800 99.007401C105.280106 99.007401,104.519958 99.322342,103.959488 99.882828C103.399002 100.443298,103.084061 101.203445,103.084061 101.996140C103.084061 102.788834,103.399002 103.548981,103.959488 104.109451C104.519958 104.669937,105.280106 104.984879,106.072800 104.984879C106.865494 104.984879,107.625641 104.669937,108.186111 104.109451C108.746597 103.548981,109.061539 102.788834,109.061539 101.996140Z" style="fill: rgb(100.000000%,100.000000%,100.000000%);stroke: none;"></path>
  <path d="M111.822220 100.423828C109.890396 100.870956,107.978745 101.439499,106.072800 101.996140C103.806824 102.657944,101.523102 103.306458,99.215088 103.775772" style="stroke:rgb(0.000000%,0.000000%,0.000000%); stroke-width: 0.498138;stroke-linecap: round;stroke-linejoin: round;stroke-miterlimit: 10.000000;fill: none;"></path>
  <path d="M109.277115 115.248001C110.843582 118.845566,113.113190 122.061584,115.776352 124.934601" style="stroke:rgb(0.000000%,0.000000%,0.000000%); stroke-width: 0.498138;stroke-linecap: round;stroke-linejoin: round;stroke-miterlimit: 10.000000;fill: none;"></path>
  <path d="M111.368240 122.574722C112.781281 123.454407,114.257675 124.237045,115.776352 124.934601C115.195755 123.367477,114.705231 121.770081,114.328110 120.148880Z" style="stroke:rgb(0.000000%,0.000000%,0.000000%); stroke-width: 0.498138;fill: rgb(0.000000%,0.000000%,0.000000%);"></path>
  <path d="M109.277115 115.248001C110.843582 118.845566,113.113190 122.061584,115.776352 124.934601" style="stroke:rgb(0.000000%,0.000000%,0.000000%); stroke-width: 0.498138;stroke-linecap: round;stroke-linejoin: round;stroke-miterlimit: 10.000000;fill: none;"></path>
  <path d="M113.096375 123.586411C113.971497 124.068069,114.866318 124.516602,115.776352 124.934601C115.428452 123.995544,115.112885 123.045639,114.834686 122.086227Z" style="stroke:rgb(0.000000%,0.000000%,0.000000%); stroke-width: 0.498138;fill: rgb(0.000000%,0.000000%,0.000000%);"></path>
  <path d="M134.788193 56.252487C132.926743 60.382965,132.960831 64.939240,133.014252 69.484268" style="stroke:rgb(0.000000%,0.000000%,0.000000%); stroke-width: 0.498138;stroke-linecap: round;stroke-linejoin: round;stroke-miterlimit: 10.000000;fill: none;"></path>
  <path d="M131.854675 66.717377C132.227005 67.642776,132.620300 68.563950,133.014252 69.484268C133.386475 68.554947,133.759750 67.625473,134.150848 66.707855Z" style="stroke:rgb(0.000000%,0.000000%,0.000000%); stroke-width: 0.498138;fill: rgb(0.000000%,0.000000%,0.000000%);"></path>
  <path d="M148.340530 117.650345C156.490250 123.376495,162.916000 131.445114,165.149490 140.779175" style="stroke:rgb(0.000000%,0.000000%,0.000000%); stroke-width: 0.498138;stroke-linecap: round;stroke-linejoin: round;stroke-miterlimit: 10.000000;fill: none;"></path>
  <path d="M163.276123 138.436081C163.935486 139.186813,164.560974 139.967880,165.149490 140.779175C165.307037 139.789352,165.417053 138.794785,165.481689 137.797684Z" style="stroke:rgb(0.000000%,0.000000%,0.000000%); stroke-width: 0.498138;fill: rgb(0.000000%,0.000000%,0.000000%);"></path>
  <path d="M83.617203 84.547485C86.771286 81.176727,90.997055 79.275208,95.334869 77.654205" style="stroke:rgb(0.000000%,0.000000%,0.000000%); stroke-width: 0.498138;stroke-linecap: round;stroke-linejoin: round;stroke-miterlimit: 10.000000;fill: none;"></path>
  <path d="M93.179825 79.741180C93.879242 79.030472,94.602142 78.337280,95.334869 77.654205C94.333740 77.619080,93.332428 77.598068,92.335312 77.606018Z" style="stroke:rgb(0.000000%,0.000000%,0.000000%); stroke-width: 0.498138;fill: rgb(0.000000%,0.000000%,0.000000%);"></path>
  <path d="M115.640549 71.582123C120.293076 71.002365,124.980652 71.326859,129.589035 72.165115" style="stroke:rgb(0.000000%,0.000000%,0.000000%); stroke-width: 0.498138;stroke-linecap: round;stroke-linejoin: round;stroke-miterlimit: 10.000000;fill: none;"></path>
  <path d="M126.673462 72.871490C127.638031 72.610901,128.610718 72.376480,129.589035 72.165115C128.747803 71.622787,127.894257 71.100739,127.027954 70.602936Z" style="stroke:rgb(0.000000%,0.000000%,0.000000%); stroke-width: 0.498138;fill: rgb(0.000000%,0.000000%,0.000000%);"></path>
  <path d="M51.436859 56.529846C44.511276 64.542801,33.316376 66.317780,24.147995 71.240417" style="stroke:rgb(0.000000%,0.000000%,0.000000%); stroke-width: 0.498138;stroke-linecap: round;stroke-linejoin: round;stroke-miterlimit: 10.000000;fill: none;"></path>
  <path d="M26.117950 68.977600C25.438568 69.715973,24.779160 70.468399,24.147995 71.240417C25.140182 71.140823,26.138519 71.075073,27.141022 71.033386Z" style="stroke:rgb(0.000000%,0.000000%,0.000000%); stroke-width: 0.498138;fill: rgb(0.000000%,0.000000%,0.000000%);"></path>
  <path d="M101.206726 140.225494C105.481735 136.508347,110.065536 133.171280,114.526642 129.680664" style="stroke:rgb(0.000000%,0.000000%,0.000000%); stroke-width: 0.498138;stroke-linecap: round;stroke-linejoin: round;stroke-miterlimit: 10.000000;fill: none;"></path>
  <path d="M113.038605 132.285568C113.537766 131.419037,114.034882 130.551331,114.526642 129.680664C113.563263 129.948578,112.598190 130.210602,111.632477 130.470352Z" style="stroke:rgb(0.000000%,0.000000%,0.000000%); stroke-width: 0.498138;fill: rgb(0.000000%,0.000000%,0.000000%);"></path>
  <path d="M117.692612 99.580032C114.514053 99.693558,111.424118 100.459244,108.363571 101.330994" style="stroke:rgb(0.000000%,0.000000%,0.000000%); stroke-width: 0.498138;stroke-linecap: round;stroke-linejoin: round;stroke-miterlimit: 10.000000;fill: none;"></path>
  <path d="M110.745148 99.506592C109.939117 100.096161,109.147980 100.709290,108.363571 101.330994C109.357849 101.446075,110.350800 101.571960,111.337646 101.725037Z" style="stroke:rgb(0.000000%,0.000000%,0.000000%); stroke-width: 0.498138;fill: rgb(0.000000%,0.000000%,0.000000%);"></path>
  <path d="M54.119736 91.725235C43.823166 88.462463,32.683914 86.466370,23.872559 80.740662" style="stroke:rgb(0.000000%,0.000000%,0.000000%); stroke-width: 0.498138;stroke-linecap: round;stroke-linejoin: round;stroke-miterlimit: 10.000000;fill: none;"></path>
  <path d="M26.841125 81.175400C25.845642 81.066422,24.855804 80.923172,23.872559 80.740662C24.438751 81.564987,25.037354 82.366196,25.664185 83.147202Z" style="stroke:rgb(0.000000%,0.000000%,0.000000%); stroke-width: 0.498138;fill: rgb(0.000000%,0.000000%,0.000000%);"></path>
  <path d="M104.011566 89.464355C104.918564 92.734009,105.344147 96.102295,105.757629 99.471054" style="stroke:rgb(0.000000%,0.000000%,0.000000%); stroke-width: 0.498138;stroke-linecap: round;stroke-linejoin: round;stroke-miterlimit: 10.000000;fill: none;"></path>
  <path d="M104.267075 96.867523C104.771637 97.730316,105.265121 98.600464,105.757629 99.471054C106.024979 98.507202,106.291351 97.542969,106.544662 96.576111Z" style="stroke:rgb(0.000000%,0.000000%,0.000000%); stroke-width: 0.498138;fill: rgb(0.000000%,0.000000%,0.000000%);"></path>
  <path d="M128.609558 141.705536L134.590851 141.705536L134.590851 134.285141L128.609558 134.285141Z" style="fill: rgb(100.000000%,100.000000%,100.000000%);stroke: none;"></path>
  <path d="M128.609558 143.705536L134.590851 143.705536L134.590851 136.285141L128.609558 136.285141Z" style="fill: rgb(100.000000%,100.000000%,100.000000%);stroke: none;"></path>
  <g transform="translate(129.109558 142.205536)" style="fill: rgb(0.000000%,0.000000%,0.000000%);">
    <use xlink:href="#GLYPHcmr10_49"></use>
  </g>
  <path d="M193.273926 99.323624L199.255219 99.323624L199.255219 91.903229L193.273926 91.903229Z" style="fill: rgb(100.000000%,100.000000%,100.000000%);stroke: none;"></path>
  <path d="M193.273926 101.323624L199.255219 101.323624L199.255219 93.903229L193.273926 93.903229Z" style="fill: rgb(100.000000%,100.000000%,100.000000%);stroke: none;"></path>
  <g transform="translate(193.773926 99.823624)" style="fill: rgb(0.000000%,0.000000%,0.000000%);">
    <use xlink:href="#GLYPHcmr10_50"></use>
  </g>
  <path d="M128.522888 90.436508L134.504181 90.436508L134.504181 83.016113L128.522888 83.016113Z" style="fill: rgb(100.000000%,100.000000%,100.000000%);stroke: none;"></path>
  <path d="M128.522888 92.436508L134.504181 92.436508L134.504181 85.016113L128.522888 85.016113Z" style="fill: rgb(100.000000%,100.000000%,100.000000%);stroke: none;"></path>
  <g transform="translate(129.022888 90.936508)" style="fill: rgb(0.000000%,0.000000%,0.000000%);">
    <use xlink:href="#GLYPHcmr10_51"></use>
  </g>
  <path d="M120.616287 190.599716L126.597580 190.599716L126.597580 183.179321L120.616287 183.179321Z" style="fill: rgb(100.000000%,100.000000%,100.000000%);stroke: none;"></path>
  <path d="M120.616287 192.599716L126.597580 192.599716L126.597580 185.179321L120.616287 185.179321Z" style="fill: rgb(100.000000%,100.000000%,100.000000%);stroke: none;"></path>
  <g transform="translate(121.116287 191.099716)" style="fill: rgb(0.000000%,0.000000%,0.000000%);">
    <use xlink:href="#GLYPHcmr10_52"></use>
  </g>
  <path d="M68.463379 125.711792L74.444672 125.711792L74.444672 118.291397L68.463379 118.291397Z" style="fill: rgb(100.000000%,100.000000%,100.000000%);stroke: none;"></path>
  <path d="M68.463379 127.711792L74.444672 127.711792L74.444672 120.291397L68.463379 120.291397Z" style="fill: rgb(100.000000%,100.000000%,100.000000%);stroke: none;"></path>
  <g transform="translate(68.963379 126.211792)" style="fill: rgb(0.000000%,0.000000%,0.000000%);">
    <use xlink:href="#GLYPHcmr10_53"></use>
  </g>
  <path d="M147.179398 77.719620L153.160690 77.719620L153.160690 70.299225L147.179398 70.299225Z" style="fill: rgb(100.000000%,100.000000%,100.000000%);stroke: none;"></path>
  <path d="M147.179398 79.719620L153.160690 79.719620L153.160690 72.299225L147.179398 72.299225Z" style="fill: rgb(100.000000%,100.000000%,100.000000%);stroke: none;"></path>
  <g transform="translate(147.679398 78.219620)" style="fill: rgb(0.000000%,0.000000%,0.000000%);">
    <use xlink:href="#GLYPHcmr10_54"></use>
  </g>
  <path d="M120.009766 12.072372L125.991058 12.072372L125.991058 4.651978L120.009766 4.651978Z" style="fill: rgb(100.000000%,100.000000%,100.000000%);stroke: none;"></path>
  <path d="M120.009766 14.072372L125.991058 14.072372L125.991058 6.651978L120.009766 6.651978Z" style="fill: rgb(100.000000%,100.000000%,100.000000%);stroke: none;"></path>
  <g transform="translate(120.509766 12.572372)" style="fill: rgb(0.000000%,0.000000%,0.000000%);">
    <use xlink:href="#GLYPHcmr10_55"></use>
  </g>
  <path d="M15.007599 134.912323L20.988892 134.912323L20.988892 127.491928L15.007599 127.491928Z" style="fill: rgb(100.000000%,100.000000%,100.000000%);stroke: none;"></path>
  <path d="M15.007599 136.912323L20.988892 136.912323L20.988892 129.491928L15.007599 129.491928Z" style="fill: rgb(100.000000%,100.000000%,100.000000%);stroke: none;"></path>
  <g transform="translate(15.507599 135.412323)" style="fill: rgb(0.000000%,0.000000%,0.000000%);">
    <use xlink:href="#GLYPHcmr10_56"></use>
  </g>
  <path d="M123.803467 121.239838L129.784760 121.239838L129.784760 113.819443L123.803467 113.819443Z" style="fill: rgb(100.000000%,100.000000%,100.000000%);stroke: none;"></path>
  <path d="M123.803467 123.239838L129.784760 123.239838L129.784760 115.819443L123.803467 115.819443Z" style="fill: rgb(100.000000%,100.000000%,100.000000%);stroke: none;"></path>
  <g transform="translate(124.303467 121.739838)" style="fill: rgb(0.000000%,0.000000%,0.000000%);">
    <use xlink:href="#GLYPHcmr10_57"></use>
  </g>
  <path d="M86.730270 107.190384L97.692978 107.190384L97.692978 99.769989L86.730270 99.769989Z" style="fill: rgb(100.000000%,100.000000%,100.000000%);stroke: none;"></path>
  <path d="M86.730270 109.190384L97.692978 109.190384L97.692978 101.769989L86.730270 101.769989Z" style="fill: rgb(100.000000%,100.000000%,100.000000%);stroke: none;"></path>
  <g transform="translate(87.230270 107.690384)" style="fill: rgb(0.000000%,0.000000%,0.000000%);">
    <use xlink:href="#GLYPHcmr10_49"></use>
    <use xlink:href="#GLYPHcmr10_48" x="5.000095"></use>
  </g>
  <path d="M12.255875 31.688263L23.218582 31.688263L23.218582 24.267868L12.255875 24.267868Z" style="fill: rgb(100.000000%,100.000000%,100.000000%);stroke: none;"></path>
  <path d="M12.255875 33.688263L23.218582 33.688263L23.218582 26.267868L12.255875 26.267868Z" style="fill: rgb(100.000000%,100.000000%,100.000000%);stroke: none;"></path>
  <g transform="translate(12.755875 32.188263)" style="fill: rgb(0.000000%,0.000000%,0.000000%);">
    <use xlink:href="#GLYPHcmr10_49"></use>
    <use xlink:href="#GLYPHcmr10_49" x="5.000095"></use>
  </g>
  <path d="M83.271103 56.645432L94.233810 56.645432L94.233810 49.225037L83.271103 49.225037Z" style="fill: rgb(100.000000%,100.000000%,100.000000%);stroke: none;"></path>
  <path d="M83.271103 58.645432L94.233810 58.645432L94.233810 51.225037L83.271103 51.225037Z" style="fill: rgb(100.000000%,100.000000%,100.000000%);stroke: none;"></path>
  <g transform="translate(83.771103 57.145432)" style="fill: rgb(0.000000%,0.000000%,0.000000%);">
    <use xlink:href="#GLYPHcmr10_49"></use>
    <use xlink:href="#GLYPHcmr10_50" x="5.000095"></use>
  </g>
</svg>
