<?xml version="1.0"?>
<!-- Created by MetaPost 1.999 on 2021.07.05:2353 -->
<svg version="1.1" xmlns="http://www.w3.org/2000/svg" xmlns:xlink="http://www.w3.org/1999/xlink" width="193.632751" height="194.631790" viewBox="0 0 193.632751 194.631790">
<!-- Original BoundingBox: -35.300903 -52.175980 158.331848 142.455811 -->
  <defs>
    <g transform="scale(0.009963,0.009963)" id="GLYPHcmr10_48">
      <path style="fill-rule: evenodd;" d="M460.000000 -320.000000C460.000000 -400.000000,455.000000 -480.000000,420.000000 -554.000000C374.000000 -650.000000,292.000000 -666.000000,250.000000 -666.000000C190.000000 -666.000000,117.000000 -640.000000,76.000000 -547.000000C44.000000 -478.000000,39.000000 -400.000000,39.000000 -320.000000C39.000000 -245.000000,43.000000 -155.000000,84.000000 -79.000000C127.000000 2.000000,200.000000 22.000000,249.000000 22.000000C303.000000 22.000000,379.000000 1.000000,423.000000 -94.000000C455.000000 -163.000000,460.000000 -241.000000,460.000000 -320.000000M249.000000 -0.000000C210.000000 -0.000000,151.000000 -25.000000,133.000000 -121.000000C122.000000 -181.000000,122.000000 -273.000000,122.000000 -332.000000C122.000000 -396.000000,122.000000 -462.000000,130.000000 -516.000000C149.000000 -635.000000,224.000000 -644.000000,249.000000 -644.000000C282.000000 -644.000000,348.000000 -626.000000,367.000000 -527.000000C377.000000 -471.000000,377.000000 -395.000000,377.000000 -332.000000C377.000000 -257.000000,377.000000 -189.000000,366.000000 -125.000000C351.000000 -30.000000,294.000000 -0.000000,249.000000 -0.000000"></path>
    </g>
    <g transform="scale(0.009963,0.009963)" id="GLYPHcmr10_49">
      <path style="fill-rule: evenodd;" d="M294.000000 -640.000000C294.000000 -664.000000,294.000000 -666.000000,271.000000 -666.000000C209.000000 -602.000000,121.000000 -602.000000,89.000000 -602.000000L89.000000 -571.000000C109.000000 -571.000000,168.000000 -571.000000,220.000000 -597.000000L220.000000 -79.000000C220.000000 -43.000000,217.000000 -31.000000,127.000000 -31.000000L95.000000 -31.000000L95.000000 -0.000000L257.000000 -0.000000L130.000000 -3.000000L217.000000 -3.000000L257.000000 -3.000000L297.000000 -3.000000L384.000000 -3.000000L419.000000 -0.000000L419.000000 -31.000000L387.000000 -31.000000C297.000000 -31.000000,294.000000 -42.000000,294.000000 -79.000000"></path>
    </g>
    <g transform="scale(0.009963,0.009963)" id="GLYPHcmr10_50">
      <path style="fill-rule: evenodd;" d="M127.000000 -77.000000L233.000000 -180.000000C389.000000 -318.000000,449.000000 -372.000000,449.000000 -472.000000C449.000000 -586.000000,359.000000 -666.000000,237.000000 -666.000000C124.000000 -666.000000,50.000000 -574.000000,50.000000 -485.000000C50.000000 -429.000000,100.000000 -429.000000,103.000000 -429.000000C120.000000 -429.000000,155.000000 -441.000000,155.000000 -482.000000C155.000000 -508.000000,137.000000 -534.000000,102.000000 -534.000000C94.000000 -534.000000,92.000000 -534.000000,89.000000 -533.000000C112.000000 -598.000000,166.000000 -635.000000,224.000000 -635.000000C315.000000 -635.000000,358.000000 -554.000000,358.000000 -472.000000C358.000000 -392.000000,308.000000 -313.000000,253.000000 -251.000000L61.000000 -37.000000C50.000000 -26.000000,50.000000 -24.000000,50.000000 -0.000000L421.000000 -0.000000L449.000000 -174.000000L424.000000 -174.000000C419.000000 -144.000000,412.000000 -100.000000,402.000000 -85.000000C395.000000 -77.000000,329.000000 -77.000000,307.000000 -77.000000"></path>
    </g>
    <g transform="scale(0.009963,0.009963)" id="GLYPHcmr10_51">
      <path style="fill-rule: evenodd;" d="M290.000000 -352.000000C372.000000 -379.000000,430.000000 -449.000000,430.000000 -528.000000C430.000000 -610.000000,342.000000 -666.000000,246.000000 -666.000000C145.000000 -666.000000,69.000000 -606.000000,69.000000 -530.000000C69.000000 -497.000000,91.000000 -478.000000,120.000000 -478.000000C151.000000 -478.000000,171.000000 -500.000000,171.000000 -529.000000C171.000000 -579.000000,124.000000 -579.000000,109.000000 -579.000000C140.000000 -628.000000,206.000000 -641.000000,242.000000 -641.000000C283.000000 -641.000000,338.000000 -619.000000,338.000000 -529.000000C338.000000 -517.000000,336.000000 -459.000000,310.000000 -415.000000C280.000000 -367.000000,246.000000 -364.000000,221.000000 -363.000000C213.000000 -362.000000,189.000000 -360.000000,182.000000 -360.000000C174.000000 -359.000000,167.000000 -358.000000,167.000000 -348.000000C167.000000 -337.000000,174.000000 -337.000000,191.000000 -337.000000L235.000000 -337.000000C317.000000 -337.000000,354.000000 -269.000000,354.000000 -171.000000C354.000000 -35.000000,285.000000 -6.000000,241.000000 -6.000000C198.000000 -6.000000,123.000000 -23.000000,88.000000 -82.000000C123.000000 -77.000000,154.000000 -99.000000,154.000000 -137.000000C154.000000 -173.000000,127.000000 -193.000000,98.000000 -193.000000C74.000000 -193.000000,42.000000 -179.000000,42.000000 -135.000000C42.000000 -44.000000,135.000000 22.000000,244.000000 22.000000C366.000000 22.000000,457.000000 -69.000000,457.000000 -171.000000C457.000000 -253.000000,394.000000 -331.000000,290.000000 -352.000000"></path>
    </g>
    <g transform="scale(0.009963,0.009963)" id="GLYPHcmr10_52">
      <path style="fill-rule: evenodd;" d="M294.000000 -165.000000L294.000000 -78.000000C294.000000 -42.000000,292.000000 -31.000000,218.000000 -31.000000L197.000000 -31.000000L197.000000 -0.000000L332.000000 -0.000000L238.000000 -3.000000L290.000000 -3.000000L332.000000 -3.000000L374.000000 -3.000000L427.000000 -3.000000L468.000000 -0.000000L468.000000 -31.000000L447.000000 -31.000000C373.000000 -31.000000,371.000000 -42.000000,371.000000 -78.000000L371.000000 -165.000000L471.000000 -165.000000L471.000000 -196.000000L371.000000 -196.000000L371.000000 -651.000000C371.000000 -671.000000,371.000000 -677.000000,355.000000 -677.000000C346.000000 -677.000000,343.000000 -677.000000,335.000000 -665.000000L28.000000 -196.000000L28.000000 -165.000000M300.000000 -196.000000L56.000000 -196.000000L300.000000 -569.000000"></path>
    </g>
    <g transform="scale(0.009963,0.009963)" id="GLYPHcmr10_53">
      <path style="fill-rule: evenodd;" d="M449.000000 -201.000000C449.000000 -320.000000,367.000000 -420.000000,259.000000 -420.000000C211.000000 -420.000000,168.000000 -404.000000,132.000000 -369.000000L132.000000 -564.000000C152.000000 -558.000000,185.000000 -551.000000,217.000000 -551.000000C340.000000 -551.000000,410.000000 -642.000000,410.000000 -655.000000C410.000000 -661.000000,407.000000 -666.000000,400.000000 -666.000000C399.000000 -666.000000,397.000000 -666.000000,392.000000 -663.000000C372.000000 -654.000000,323.000000 -634.000000,256.000000 -634.000000C216.000000 -634.000000,170.000000 -641.000000,123.000000 -662.000000C115.000000 -665.000000,113.000000 -665.000000,111.000000 -665.000000C101.000000 -665.000000,101.000000 -657.000000,101.000000 -641.000000L101.000000 -345.000000C101.000000 -327.000000,101.000000 -319.000000,115.000000 -319.000000C122.000000 -319.000000,124.000000 -322.000000,128.000000 -328.000000C139.000000 -344.000000,176.000000 -398.000000,257.000000 -398.000000C309.000000 -398.000000,334.000000 -352.000000,342.000000 -334.000000C358.000000 -297.000000,360.000000 -258.000000,360.000000 -208.000000C360.000000 -173.000000,360.000000 -113.000000,336.000000 -71.000000C312.000000 -32.000000,275.000000 -6.000000,229.000000 -6.000000C156.000000 -6.000000,99.000000 -59.000000,82.000000 -118.000000C85.000000 -117.000000,88.000000 -116.000000,99.000000 -116.000000C132.000000 -116.000000,149.000000 -141.000000,149.000000 -165.000000C149.000000 -189.000000,132.000000 -214.000000,99.000000 -214.000000C85.000000 -214.000000,50.000000 -207.000000,50.000000 -161.000000C50.000000 -75.000000,119.000000 22.000000,231.000000 22.000000C347.000000 22.000000,449.000000 -74.000000,449.000000 -201.000000"></path>
    </g>
    <g transform="scale(0.009963,0.009963)" id="GLYPHcmr10_54">
      <path style="fill-rule: evenodd;" d="M132.000000 -328.000000L132.000000 -352.000000C132.000000 -605.000000,256.000000 -641.000000,307.000000 -641.000000C331.000000 -641.000000,373.000000 -635.000000,395.000000 -601.000000C380.000000 -601.000000,340.000000 -601.000000,340.000000 -556.000000C340.000000 -525.000000,364.000000 -510.000000,386.000000 -510.000000C402.000000 -510.000000,432.000000 -519.000000,432.000000 -558.000000C432.000000 -618.000000,388.000000 -666.000000,305.000000 -666.000000C177.000000 -666.000000,42.000000 -537.000000,42.000000 -316.000000C42.000000 -49.000000,158.000000 22.000000,251.000000 22.000000C362.000000 22.000000,457.000000 -72.000000,457.000000 -204.000000C457.000000 -331.000000,368.000000 -427.000000,257.000000 -427.000000C189.000000 -427.000000,152.000000 -376.000000,132.000000 -328.000000M251.000000 -6.000000C188.000000 -6.000000,158.000000 -66.000000,152.000000 -81.000000C134.000000 -128.000000,134.000000 -208.000000,134.000000 -226.000000C134.000000 -304.000000,166.000000 -404.000000,256.000000 -404.000000C272.000000 -404.000000,318.000000 -404.000000,349.000000 -342.000000C367.000000 -305.000000,367.000000 -254.000000,367.000000 -205.000000C367.000000 -157.000000,367.000000 -107.000000,350.000000 -71.000000C320.000000 -11.000000,274.000000 -6.000000,251.000000 -6.000000"></path>
    </g>
    <g transform="scale(0.009963,0.009963)" id="GLYPHcmr10_55">
      <path style="fill-rule: evenodd;" d="M476.000000 -609.000000C485.000000 -621.000000,485.000000 -623.000000,485.000000 -644.000000L242.000000 -644.000000C120.000000 -644.000000,118.000000 -657.000000,114.000000 -676.000000L89.000000 -676.000000L56.000000 -470.000000L81.000000 -470.000000C84.000000 -486.000000,93.000000 -549.000000,106.000000 -561.000000C113.000000 -567.000000,191.000000 -567.000000,204.000000 -567.000000L411.000000 -567.000000C400.000000 -551.000000,321.000000 -442.000000,299.000000 -409.000000C209.000000 -274.000000,176.000000 -135.000000,176.000000 -33.000000C176.000000 -23.000000,176.000000 22.000000,222.000000 22.000000C268.000000 22.000000,268.000000 -23.000000,268.000000 -33.000000L268.000000 -84.000000C268.000000 -139.000000,271.000000 -194.000000,279.000000 -248.000000C283.000000 -271.000000,297.000000 -357.000000,341.000000 -419.000000"></path>
    </g>
    <g transform="scale(0.009963,0.009963)" id="GLYPHcmr10_56">
      <path style="fill-rule: evenodd;" d="M163.000000 -457.000000C117.000000 -487.000000,113.000000 -521.000000,113.000000 -538.000000C113.000000 -599.000000,178.000000 -641.000000,249.000000 -641.000000C322.000000 -641.000000,386.000000 -589.000000,386.000000 -517.000000C386.000000 -460.000000,347.000000 -412.000000,287.000000 -377.000000M309.000000 -362.000000C381.000000 -399.000000,430.000000 -451.000000,430.000000 -517.000000C430.000000 -609.000000,341.000000 -666.000000,250.000000 -666.000000C150.000000 -666.000000,69.000000 -592.000000,69.000000 -499.000000C69.000000 -481.000000,71.000000 -436.000000,113.000000 -389.000000C124.000000 -377.000000,161.000000 -352.000000,186.000000 -335.000000C128.000000 -306.000000,42.000000 -250.000000,42.000000 -151.000000C42.000000 -45.000000,144.000000 22.000000,249.000000 22.000000C362.000000 22.000000,457.000000 -61.000000,457.000000 -168.000000C457.000000 -204.000000,446.000000 -249.000000,408.000000 -291.000000C389.000000 -312.000000,373.000000 -322.000000,309.000000 -362.000000M209.000000 -320.000000L332.000000 -242.000000C360.000000 -223.000000,407.000000 -193.000000,407.000000 -132.000000C407.000000 -58.000000,332.000000 -6.000000,250.000000 -6.000000C164.000000 -6.000000,92.000000 -68.000000,92.000000 -151.000000C92.000000 -209.000000,124.000000 -273.000000,209.000000 -320.000000"></path>
    </g>
    <g transform="scale(0.009963,0.009963)" id="GLYPHcmr10_57">
      <path style="fill-rule: evenodd;" d="M367.000000 -318.000000L367.000000 -286.000000C367.000000 -52.000000,263.000000 -6.000000,205.000000 -6.000000C188.000000 -6.000000,134.000000 -8.000000,107.000000 -42.000000C151.000000 -42.000000,159.000000 -71.000000,159.000000 -88.000000C159.000000 -119.000000,135.000000 -134.000000,113.000000 -134.000000C97.000000 -134.000000,67.000000 -125.000000,67.000000 -86.000000C67.000000 -19.000000,121.000000 22.000000,206.000000 22.000000C335.000000 22.000000,457.000000 -114.000000,457.000000 -329.000000C457.000000 -598.000000,342.000000 -666.000000,253.000000 -666.000000C198.000000 -666.000000,149.000000 -648.000000,106.000000 -603.000000C65.000000 -558.000000,42.000000 -516.000000,42.000000 -441.000000C42.000000 -316.000000,130.000000 -218.000000,242.000000 -218.000000C303.000000 -218.000000,344.000000 -260.000000,367.000000 -318.000000M243.000000 -241.000000C227.000000 -241.000000,181.000000 -241.000000,150.000000 -304.000000C132.000000 -341.000000,132.000000 -391.000000,132.000000 -440.000000C132.000000 -494.000000,132.000000 -541.000000,153.000000 -578.000000C180.000000 -628.000000,218.000000 -641.000000,253.000000 -641.000000C299.000000 -641.000000,332.000000 -607.000000,349.000000 -562.000000C361.000000 -530.000000,365.000000 -467.000000,365.000000 -421.000000C365.000000 -338.000000,331.000000 -241.000000,243.000000 -241.000000"></path>
    </g>
  </defs>
  <path d="M66.995270 143.722778C66.995270 142.930084,66.680328 142.169937,66.119843 141.609467C65.559372 141.048981,64.799225 140.734039,64.006531 140.734039C63.213837 140.734039,62.453690 141.048981,61.893219 141.609467C61.332733 142.169937,61.017792 142.930084,61.017792 143.722778C61.017792 144.515472,61.332733 145.275620,61.893219 145.836090C62.453690 146.396576,63.213837 146.711517,64.006531 146.711517C64.799225 146.711517,65.559372 146.396576,66.119843 145.836090C66.680328 145.275620,66.995270 144.515472,66.995270 143.722778Z" style="fill: rgb(100.000000%,100.000000%,100.000000%);stroke: none;"></path>
  <path d="M77.511826 133.653641C77.511826 132.860947,77.196884 132.100800,76.636398 131.540329C76.075928 130.979843,75.315781 130.664902,74.523087 130.664902C73.730392 130.664902,72.970245 130.979843,72.409775 131.540329C71.849289 132.100800,71.534348 132.860947,71.534348 133.653641C71.534348 134.446335,71.849289 135.206482,72.409775 135.766953C72.970245 136.327438,73.730392 136.642380,74.523087 136.642380C75.315781 136.642380,76.075928 136.327438,76.636398 135.766953C77.196884 135.206482,77.511826 134.446335,77.511826 133.653641Z" style="fill: rgb(100.000000%,100.000000%,100.000000%);stroke: none;"></path>
  <path d="M17.763367 134.676025C17.763367 133.883331,17.448425 133.123184,16.887939 132.562714C16.327469 132.002228,15.567322 131.687286,14.774628 131.687286C13.981934 131.687286,13.221786 132.002228,12.661316 132.562714C12.100830 133.123184,11.785889 133.883331,11.785889 134.676025C11.785889 135.468719,12.100830 136.228867,12.661316 136.789337C13.221786 137.349823,13.981934 137.664764,14.774628 137.664764C15.567322 137.664764,16.327469 137.349823,16.887939 136.789337C17.448425 136.228867,17.763367 135.468719,17.763367 134.676025Z" style="fill: rgb(100.000000%,100.000000%,100.000000%);stroke: none;"></path>
  <path d="M51.678528 146.957321C51.678528 146.164627,51.363586 145.404480,50.803101 144.844009C50.242630 144.283524,49.482483 143.968582,48.689789 143.968582C47.897095 143.968582,47.136948 144.283524,46.576477 144.844009C46.015991 145.404480,45.701050 146.164627,45.701050 146.957321C45.701050 147.750015,46.015991 148.510162,46.576477 149.070633C47.136948 149.631119,47.897095 149.946060,48.689789 149.946060C49.482483 149.946060,50.242630 149.631119,50.803101 149.070633C51.363586 148.510162,51.678528 147.750015,51.678528 146.957321Z" style="fill: rgb(100.000000%,100.000000%,100.000000%);stroke: none;"></path>
  <path d="M5.676575 68.306976C5.676575 67.514282,5.361633 66.754135,4.801147 66.193665C4.240677 65.633179,3.480530 65.318237,2.687836 65.318237C1.895142 65.318237,1.134995 65.633179,0.574524 66.193665C0.014038 66.754135,-0.300903 67.514282,-0.300903 68.306976C-0.300903 69.099670,0.014038 69.859818,0.574524 70.420288C1.134995 70.980774,1.895142 71.295715,2.687836 71.295715C3.480530 71.295715,4.240677 70.980774,4.801147 70.420288C5.361633 69.859818,5.676575 69.099670,5.676575 68.306976Z" style="fill: rgb(100.000000%,100.000000%,100.000000%);stroke: none;"></path>
  <path d="M7.423233 113.316376C7.423233 112.523682,7.108292 111.763535,6.547806 111.203064C5.987335 110.642578,5.227188 110.327637,4.434494 110.327637C3.641800 110.327637,2.881653 110.642578,2.321182 111.203064C1.760696 111.763535,1.445755 112.523682,1.445755 113.316376C1.445755 114.109070,1.760696 114.869217,2.321182 115.429688C2.881653 115.990173,3.641800 116.305115,4.434494 116.305115C5.227188 116.305115,5.987335 115.990173,6.547806 115.429688C7.108292 114.869217,7.423233 114.109070,7.423233 113.316376Z" style="fill: rgb(100.000000%,100.000000%,100.000000%);stroke: none;"></path>
  <path d="M51.198471 40.955322C51.198471 40.162628,50.883530 39.402481,50.323044 38.842010C49.762573 38.281525,49.002426 37.966583,48.209732 37.966583C47.417038 37.966583,46.656891 38.281525,46.096420 38.842010C45.535934 39.402481,45.220993 40.162628,45.220993 40.955322C45.220993 41.748016,45.535934 42.508163,46.096420 43.068634C46.656891 43.629120,47.417038 43.944061,48.209732 43.944061C49.002426 43.944061,49.762573 43.629120,50.323044 43.068634C50.883530 42.508163,51.198471 41.748016,51.198471 40.955322Z" style="fill: rgb(100.000000%,100.000000%,100.000000%);stroke: none;"></path>
  <path d="M16.656616 45.441742C16.656616 44.649048,16.341675 43.888901,15.781189 43.328430C15.220718 42.767944,14.460571 42.453003,13.667877 42.453003C12.875183 42.453003,12.115036 42.767944,11.554565 43.328430C10.994080 43.888901,10.679138 44.649048,10.679138 45.441742C10.679138 46.234436,10.994080 46.994583,11.554565 47.555054C12.115036 48.115540,12.875183 48.430481,13.667877 48.430481C14.460571 48.430481,15.220718 48.115540,15.781189 47.555054C16.341675 46.994583,16.656616 46.234436,16.656616 45.441742Z" style="fill: rgb(100.000000%,100.000000%,100.000000%);stroke: none;"></path>
  <path d="M89.779633 43.495407C89.779633 42.702713,89.464691 41.942566,88.904205 41.382095C88.343735 40.821609,87.583588 40.506668,86.790894 40.506668C85.998199 40.506668,85.238052 40.821609,84.677582 41.382095C84.117096 41.942566,83.802155 42.702713,83.802155 43.495407C83.802155 44.288101,84.117096 45.048248,84.677582 45.608719C85.238052 46.169205,85.998199 46.484146,86.790894 46.484146C87.583588 46.484146,88.343735 46.169205,88.904205 45.608719C89.464691 45.048248,89.779633 44.288101,89.779633 43.495407Z" style="fill: rgb(100.000000%,100.000000%,100.000000%);stroke: none;"></path>
  <path d="M64.078583 49.332550C64.078583 48.539856,63.763641 47.779709,63.203156 47.219238C62.642685 46.658752,61.882538 46.343811,61.089844 46.343811C60.297150 46.343811,59.537003 46.658752,58.976532 47.219238C58.416046 47.779709,58.101105 48.539856,58.101105 49.332550C58.101105 50.125244,58.416046 50.885391,58.976532 51.445862C59.537003 52.006348,60.297150 52.321289,61.089844 52.321289C61.882538 52.321289,62.642685 52.006348,63.203156 51.445862C63.763641 50.885391,64.078583 50.125244,64.078583 49.332550Z" style="fill: rgb(100.000000%,100.000000%,100.000000%);stroke: none;"></path>
  <path d="M130.214386 21.391663C130.214386 20.598969,129.899445 19.838821,129.338959 19.278351C128.778488 18.717865,128.018341 18.402924,127.225647 18.402924C126.432953 18.402924,125.672806 18.717865,125.112335 19.278351C124.551849 19.838821,124.236908 20.598969,124.236908 21.391663C124.236908 22.184357,124.551849 22.944504,125.112335 23.504974C125.672806 24.065460,126.432953 24.380402,127.225647 24.380402C128.018341 24.380402,128.778488 24.065460,129.338959 23.504974C129.899445 22.944504,130.214386 22.184357,130.214386 21.391663Z" style="fill: rgb(100.000000%,100.000000%,100.000000%);stroke: none;"></path>
  <path d="M97.794998 31.035553C97.794998 30.242859,97.480057 29.482712,96.919571 28.922241C96.359100 28.361755,95.598953 28.046814,94.806259 28.046814C94.013565 28.046814,93.253418 28.361755,92.692947 28.922241C92.132462 29.482712,91.817520 30.242859,91.817520 31.035553C91.817520 31.828247,92.132462 32.588394,92.692947 33.148865C93.253418 33.709351,94.013565 34.024292,94.806259 34.024292C95.598953 34.024292,96.359100 33.709351,96.919571 33.148865C97.480057 32.588394,97.794998 31.828247,97.794998 31.035553Z" style="fill: rgb(100.000000%,100.000000%,100.000000%);stroke: none;"></path>
  <path d="M174.723572 71.659378C174.723572 70.866684,174.408630 70.106537,173.848145 69.546066C173.287674 68.985580,172.527527 68.670639,171.734833 68.670639C170.942139 68.670639,170.181992 68.985580,169.621521 69.546066C169.061035 70.106537,168.746094 70.866684,168.746094 71.659378C168.746094 72.452072,169.061035 73.212219,169.621521 73.772690C170.181992 74.333176,170.942139 74.648117,171.734833 74.648117C172.527527 74.648117,173.287674 74.333176,173.848145 73.772690C174.408630 73.212219,174.723572 72.452072,174.723572 71.659378Z" style="fill: rgb(100.000000%,100.000000%,100.000000%);stroke: none;"></path>
  <path d="M147.712845 37.983032C147.712845 37.190338,147.397903 36.430191,146.837418 35.869720C146.276947 35.309235,145.516800 34.994293,144.724106 34.994293C143.931412 34.994293,143.171265 35.309235,142.610794 35.869720C142.050308 36.430191,141.735367 37.190338,141.735367 37.983032C141.735367 38.775726,142.050308 39.535873,142.610794 40.096344C143.171265 40.656830,143.931412 40.971771,144.724106 40.971771C145.516800 40.971771,146.276947 40.656830,146.837418 40.096344C147.397903 39.535873,147.712845 38.775726,147.712845 37.983032Z" style="fill: rgb(100.000000%,100.000000%,100.000000%);stroke: none;"></path>
  <path d="M167.505981 119.501343C167.505981 118.708649,167.191040 117.948502,166.630554 117.388031C166.070084 116.827545,165.309937 116.512604,164.517242 116.512604C163.724548 116.512604,162.964401 116.827545,162.403931 117.388031C161.843445 117.948502,161.528503 118.708649,161.528503 119.501343C161.528503 120.294037,161.843445 121.054184,162.403931 121.614655C162.964401 122.175140,163.724548 122.490082,164.517242 122.490082C165.309937 122.490082,166.070084 122.175140,166.630554 121.614655C167.191040 121.054184,167.505981 120.294037,167.505981 119.501343Z" style="fill: rgb(100.000000%,100.000000%,100.000000%);stroke: none;"></path>
  <path d="M186.212784 92.276566C186.212784 91.483871,185.897842 90.723724,185.337357 90.163254C184.776886 89.602768,184.016739 89.287827,183.224045 89.287827C182.431351 89.287827,181.671204 89.602768,181.110733 90.163254C180.550247 90.723724,180.235306 91.483871,180.235306 92.276566C180.235306 93.069260,180.550247 93.829407,181.110733 94.389877C181.671204 94.950363,182.431351 95.265305,183.224045 95.265305C184.016739 95.265305,184.776886 94.950363,185.337357 94.389877C185.897842 93.829407,186.212784 93.069260,186.212784 92.276566Z" style="fill: rgb(100.000000%,100.000000%,100.000000%);stroke: none;"></path>
  <path d="M139.085236 144.037048C139.085236 143.244354,138.770294 142.484207,138.209808 141.923737C137.649338 141.363251,136.889191 141.048309,136.096497 141.048309C135.303802 141.048309,134.543655 141.363251,133.983185 141.923737C133.422699 142.484207,133.107758 143.244354,133.107758 144.037048C133.107758 144.829742,133.422699 145.589890,133.983185 146.150360C134.543655 146.710846,135.303802 147.025787,136.096497 147.025787C136.889191 147.025787,137.649338 146.710846,138.209808 146.150360C138.770294 145.589890,139.085236 144.829742,139.085236 144.037048Z" style="fill: rgb(100.000000%,100.000000%,100.000000%);stroke: none;"></path>
  <path d="M152.413635 122.171646C152.413635 121.378952,152.098694 120.618805,151.538208 120.058334C150.977737 119.497849,150.217590 119.182907,149.424896 119.182907C148.632202 119.182907,147.872055 119.497849,147.311584 120.058334C146.751099 120.618805,146.436157 121.378952,146.436157 122.171646C146.436157 122.964340,146.751099 123.724487,147.311584 124.284958C147.872055 124.845444,148.632202 125.160385,149.424896 125.160385C150.217590 125.160385,150.977737 124.845444,151.538208 124.284958C152.098694 123.724487,152.413635 122.964340,152.413635 122.171646Z" style="fill: rgb(100.000000%,100.000000%,100.000000%);stroke: none;"></path>
  <path d="M128.993347 189.552002C128.993347 188.759308,128.678406 187.999161,128.117920 187.438690C127.557449 186.878204,126.797302 186.563263,126.004608 186.563263C125.211914 186.563263,124.451767 186.878204,123.891296 187.438690C123.330811 187.999161,123.015869 188.759308,123.015869 189.552002C123.015869 190.344696,123.330811 191.104843,123.891296 191.665314C124.451767 192.225800,125.211914 192.540741,126.004608 192.540741C126.797302 192.540741,127.557449 192.225800,128.117920 191.665314C128.678406 191.104843,128.993347 190.344696,128.993347 189.552002Z" style="fill: rgb(100.000000%,100.000000%,100.000000%);stroke: none;"></path>
  <path d="M143.142441 157.960770C143.142441 157.168076,142.827499 156.407928,142.267014 155.847458C141.706543 155.286972,140.946396 154.972031,140.153702 154.972031C139.361008 154.972031,138.600861 155.286972,138.040390 155.847458C137.479904 156.407928,137.164963 157.168076,137.164963 157.960770C137.164963 158.753464,137.479904 159.513611,138.040390 160.074081C138.600861 160.634567,139.361008 160.949509,140.153702 160.949509C140.946396 160.949509,141.706543 160.634567,142.267014 160.074081C142.827499 159.513611,143.142441 158.753464,143.142441 157.960770Z" style="fill: rgb(100.000000%,100.000000%,100.000000%);stroke: none;"></path>
  <path d="M57.069244 178.161148C57.069244 177.368454,56.754303 176.608307,56.193817 176.047836C55.633347 175.487350,54.873199 175.172409,54.080505 175.172409C53.287811 175.172409,52.527664 175.487350,51.967194 176.047836C51.406708 176.608307,51.091766 177.368454,51.091766 178.161148C51.091766 178.953842,51.406708 179.713989,51.967194 180.274460C52.527664 180.834946,53.287811 181.149887,54.080505 181.149887C54.873199 181.149887,55.633347 180.834946,56.193817 180.274460C56.754303 179.713989,57.069244 178.953842,57.069244 178.161148Z" style="fill: rgb(100.000000%,100.000000%,100.000000%);stroke: none;"></path>
  <path d="M102.696472 191.187241C102.696472 190.394547,102.381531 189.634399,101.821045 189.073929C101.260574 188.513443,100.500427 188.198502,99.707733 188.198502C98.915039 188.198502,98.154892 188.513443,97.594421 189.073929C97.033936 189.634399,96.718994 190.394547,96.718994 191.187241C96.718994 191.979935,97.033936 192.740082,97.594421 193.300552C98.154892 193.861038,98.915039 194.175980,99.707733 194.175980C100.500427 194.175980,101.260574 193.861038,101.821045 193.300552C102.381531 192.740082,102.696472 191.979935,102.696472 191.187241Z" style="fill: rgb(100.000000%,100.000000%,100.000000%);stroke: none;"></path>
  <path d="M39.199265 129.429245C39.199265 128.636551,38.884323 127.876404,38.323837 127.315933C37.763367 126.755447,37.003220 126.440506,36.210526 126.440506C35.417831 126.440506,34.657684 126.755447,34.097214 127.315933C33.536728 127.876404,33.221786 128.636551,33.221786 129.429245C33.221786 130.221939,33.536728 130.982086,34.097214 131.542557C34.657684 132.103043,35.417831 132.417984,36.210526 132.417984C37.003220 132.417984,37.763367 132.103043,38.323837 131.542557C38.884323 130.982086,39.199265 130.221939,39.199265 129.429245Z" style="fill: rgb(100.000000%,100.000000%,100.000000%);stroke: none;"></path>
  <path d="M35.904327 163.645676C35.904327 162.852982,35.589386 162.092834,35.028900 161.532364C34.468430 160.971878,33.708282 160.656937,32.915588 160.656937C32.122894 160.656937,31.362747 160.971878,30.802277 161.532364C30.241791 162.092834,29.926849 162.852982,29.926849 163.645676C29.926849 164.438370,30.241791 165.198517,30.802277 165.758987C31.362747 166.319473,32.122894 166.634415,32.915588 166.634415C33.708282 166.634415,34.468430 166.319473,35.028900 165.758987C35.589386 165.198517,35.904327 164.438370,35.904327 163.645676Z" style="fill: rgb(100.000000%,100.000000%,100.000000%);stroke: none;"></path>
  <path d="M60.982452 106.291687C60.982452 105.498993,60.667511 104.738846,60.107025 104.178375C59.546555 103.617889,58.786407 103.302948,57.993713 103.302948C57.201019 103.302948,56.440872 103.617889,55.880402 104.178375C55.319916 104.738846,55.004974 105.498993,55.004974 106.291687C55.004974 107.084381,55.319916 107.844528,55.880402 108.404999C56.440872 108.965485,57.201019 109.280426,57.993713 109.280426C58.786407 109.280426,59.546555 108.965485,60.107025 108.404999C60.667511 107.844528,60.982452 107.084381,60.982452 106.291687Z" style="fill: rgb(100.000000%,100.000000%,100.000000%);stroke: none;"></path>
  <path d="M49.039108 120.257462C49.039108 119.464767,48.724167 118.704620,48.163681 118.144150C47.603210 117.583664,46.843063 117.268723,46.050369 117.268723C45.257675 117.268723,44.497528 117.583664,43.937057 118.144150C43.376572 118.704620,43.061630 119.464767,43.061630 120.257462C43.061630 121.050156,43.376572 121.810303,43.937057 122.370773C44.497528 122.931259,45.257675 123.246201,46.050369 123.246201C46.843063 123.246201,47.603210 122.931259,48.163681 122.370773C48.724167 121.810303,49.039108 121.050156,49.039108 120.257462Z" style="fill: rgb(100.000000%,100.000000%,100.000000%);stroke: none;"></path>
  <path d="M70.850739 96.517914C70.850739 95.725220,70.535797 94.965073,69.975311 94.404602C69.414841 93.844116,68.654694 93.529175,67.862000 93.529175C67.069305 93.529175,66.309158 93.844116,65.748688 94.404602C65.188202 94.965073,64.873260 95.725220,64.873260 96.517914C64.873260 97.310608,65.188202 98.070755,65.748688 98.631226C66.309158 99.191711,67.069305 99.506653,67.862000 99.506653C68.654694 99.506653,69.414841 99.191711,69.975311 98.631226C70.535797 98.070755,70.850739 97.310608,70.850739 96.517914Z" style="fill: rgb(100.000000%,100.000000%,100.000000%);stroke: none;"></path>
  <path d="M64.484634 101.606232C64.484634 100.813538,64.169693 100.053391,63.609207 99.492920C63.048737 98.932434,62.288589 98.617493,61.495895 98.617493C60.703201 98.617493,59.943054 98.932434,59.382584 99.492920C58.822098 100.053391,58.507156 100.813538,58.507156 101.606232C58.507156 102.398926,58.822098 103.159073,59.382584 103.719543C59.943054 104.280029,60.703201 104.594971,61.495895 104.594971C62.288589 104.594971,63.048737 104.280029,63.609207 103.719543C64.169693 103.159073,64.484634 102.398926,64.484634 101.606232Z" style="fill: rgb(100.000000%,100.000000%,100.000000%);stroke: none;"></path>
  <path d="M73.144409 90.343811C73.144409 89.551117,72.829468 88.790970,72.268982 88.230499C71.708511 87.670013,70.948364 87.355072,70.155670 87.355072C69.362976 87.355072,68.602829 87.670013,68.042358 88.230499C67.481873 88.790970,67.166931 89.551117,67.166931 90.343811C67.166931 91.136505,67.481873 91.896652,68.042358 92.457123C68.602829 93.017609,69.362976 93.332550,70.155670 93.332550C70.948364 93.332550,71.708511 93.017609,72.268982 92.457123C72.829468 91.896652,73.144409 91.136505,73.144409 90.343811Z" style="fill: rgb(100.000000%,100.000000%,100.000000%);stroke: none;"></path>
  <path d="M72.917786 94.997009C72.917786 94.204315,72.602844 93.444168,72.042358 92.883698C71.481888 92.323212,70.721741 92.008270,69.929047 92.008270C69.136353 92.008270,68.376205 92.323212,67.815735 92.883698C67.255249 93.444168,66.940308 94.204315,66.940308 94.997009C66.940308 95.789703,67.255249 96.549850,67.815735 97.110321C68.376205 97.670807,69.136353 97.985748,69.929047 97.985748C70.721741 97.985748,71.481888 97.670807,72.042358 97.110321C72.602844 96.549850,72.917786 95.789703,72.917786 94.997009Z" style="fill: rgb(100.000000%,100.000000%,100.000000%);stroke: none;"></path>
  <path d="M65.253784 82.684708C65.253784 81.892014,64.938843 81.131866,64.378357 80.571396C63.817886 80.010910,63.057739 79.695969,62.265045 79.695969C61.472351 79.695969,60.712204 80.010910,60.151733 80.571396C59.591248 81.131866,59.276306 81.892014,59.276306 82.684708C59.276306 83.477402,59.591248 84.237549,60.151733 84.798019C60.712204 85.358505,61.472351 85.673447,62.265045 85.673447C63.057739 85.673447,63.817886 85.358505,64.378357 84.798019C64.938843 84.237549,65.253784 83.477402,65.253784 82.684708Z" style="fill: rgb(100.000000%,100.000000%,100.000000%);stroke: none;"></path>
  <path d="M71.246658 88.632629C71.246658 87.839935,70.931717 87.079788,70.371231 86.519318C69.810760 85.958832,69.050613 85.643890,68.257919 85.643890C67.465225 85.643890,66.705078 85.958832,66.144608 86.519318C65.584122 87.079788,65.269180 87.839935,65.269180 88.632629C65.269180 89.425323,65.584122 90.185471,66.144608 90.745941C66.705078 91.306427,67.465225 91.621368,68.257919 91.621368C69.050613 91.621368,69.810760 91.306427,70.371231 90.745941C70.931717 90.185471,71.246658 89.425323,71.246658 88.632629Z" style="fill: rgb(100.000000%,100.000000%,100.000000%);stroke: none;"></path>
  <path d="M51.053284 62.716873C51.053284 61.924179,50.738342 61.164032,50.177856 60.603561C49.617386 60.043076,48.857239 59.728134,48.064545 59.728134C47.271851 59.728134,46.511703 60.043076,45.951233 60.603561C45.390747 61.164032,45.075806 61.924179,45.075806 62.716873C45.075806 63.509567,45.390747 64.269714,45.951233 64.830185C46.511703 65.390671,47.271851 65.705612,48.064545 65.705612C48.857239 65.705612,49.617386 65.390671,50.177856 64.830185C50.738342 64.269714,51.053284 63.509567,51.053284 62.716873Z" style="fill: rgb(100.000000%,100.000000%,100.000000%);stroke: none;"></path>
  <path d="M62.280823 77.260605C62.280823 76.467911,61.965881 75.707764,61.405396 75.147293C60.844925 74.586807,60.084778 74.271866,59.292084 74.271866C58.499390 74.271866,57.739243 74.586807,57.178772 75.147293C56.618286 75.707764,56.303345 76.467911,56.303345 77.260605C56.303345 78.053299,56.618286 78.813446,57.178772 79.373917C57.739243 79.934402,58.499390 80.249344,59.292084 80.249344C60.084778 80.249344,60.844925 79.934402,61.405396 79.373917C61.965881 78.813446,62.280823 78.053299,62.280823 77.260605Z" style="fill: rgb(100.000000%,100.000000%,100.000000%);stroke: none;"></path>
  <path d="M34.688553 25.176331C34.688553 24.383636,34.373611 23.623489,33.813126 23.063019C33.252655 22.502533,32.492508 22.187592,31.699814 22.187592C30.907120 22.187592,30.146973 22.502533,29.586502 23.063019C29.026016 23.623489,28.711075 24.383636,28.711075 25.176331C28.711075 25.969025,29.026016 26.729172,29.586502 27.289642C30.146973 27.850128,30.907120 28.165070,31.699814 28.165070C32.492508 28.165070,33.252655 27.850128,33.813126 27.289642C34.373611 26.729172,34.688553 25.969025,34.688553 25.176331Z" style="fill: rgb(100.000000%,100.000000%,100.000000%);stroke: none;"></path>
  <path d="M40.284271 54.839920C40.284271 54.047226,39.969330 53.287079,39.408844 52.726608C38.848373 52.166122,38.088226 51.851181,37.295532 51.851181C36.502838 51.851181,35.742691 52.166122,35.182220 52.726608C34.621735 53.287079,34.306793 54.047226,34.306793 54.839920C34.306793 55.632614,34.621735 56.392761,35.182220 56.953232C35.742691 57.513718,36.502838 57.828659,37.295532 57.828659C38.088226 57.828659,38.848373 57.513718,39.408844 56.953232C39.969330 56.392761,40.284271 55.632614,40.284271 54.839920Z" style="fill: rgb(100.000000%,100.000000%,100.000000%);stroke: none;"></path>
  <path d="M85.136932 2.532928C85.136932 1.740234,84.821991 0.980087,84.261505 0.419617C83.701035 -0.140869,82.940887 -0.455811,82.148193 -0.455811C81.355499 -0.455811,80.595352 -0.140869,80.034882 0.419617C79.474396 0.980087,79.159454 1.740234,79.159454 2.532928C79.159454 3.325623,79.474396 4.085770,80.034882 4.646240C80.595352 5.206726,81.355499 5.521667,82.148193 5.521667C82.940887 5.521667,83.701035 5.206726,84.261505 4.646240C84.821991 4.085770,85.136932 3.325623,85.136932 2.532928Z" style="fill: rgb(100.000000%,100.000000%,100.000000%);stroke: none;"></path>
  <path d="M48.766403 9.668610C48.766403 8.875916,48.451462 8.115768,47.890976 7.555298C47.330505 6.994812,46.570358 6.679871,45.777664 6.679871C44.984970 6.679871,44.224823 6.994812,43.664352 7.555298C43.103867 8.115768,42.788925 8.875916,42.788925 9.668610C42.788925 10.461304,43.103867 11.221451,43.664352 11.781921C44.224823 12.342407,44.984970 12.657349,45.777664 12.657349C46.570358 12.657349,47.330505 12.342407,47.890976 11.781921C48.451462 11.221451,48.766403 10.461304,48.766403 9.668610Z" style="fill: rgb(100.000000%,100.000000%,100.000000%);stroke: none;"></path>
  <path d="M114.610428 38.899811C114.610428 38.107117,114.295486 37.346970,113.735001 36.786499C113.174530 36.226013,112.414383 35.911072,111.621689 35.911072C110.828995 35.911072,110.068848 36.226013,109.508377 36.786499C108.947891 37.346970,108.632950 38.107117,108.632950 38.899811C108.632950 39.692505,108.947891 40.452652,109.508377 41.013123C110.068848 41.573608,110.828995 41.888550,111.621689 41.888550C112.414383 41.888550,113.174530 41.573608,113.735001 41.013123C114.295486 40.452652,114.610428 39.692505,114.610428 38.899811Z" style="fill: rgb(100.000000%,100.000000%,100.000000%);stroke: none;"></path>
  <path d="M103.722641 10.624832C103.722641 9.832138,103.407700 9.071991,102.847214 8.511520C102.286743 7.951035,101.526596 7.636093,100.733902 7.636093C99.941208 7.636093,99.181061 7.951035,98.620590 8.511520C98.060104 9.071991,97.745163 9.832138,97.745163 10.624832C97.745163 11.417526,98.060104 12.177673,98.620590 12.738144C99.181061 13.298630,99.941208 13.613571,100.733902 13.613571C101.526596 13.613571,102.286743 13.298630,102.847214 12.738144C103.407700 12.177673,103.722641 11.417526,103.722641 10.624832Z" style="fill: rgb(100.000000%,100.000000%,100.000000%);stroke: none;"></path>
  <path d="M104.466293 68.838165C104.466293 68.045471,104.151352 67.285324,103.590866 66.724854C103.030396 66.164368,102.270248 65.849426,101.477554 65.849426C100.684860 65.849426,99.924713 66.164368,99.364243 66.724854C98.803757 67.285324,98.488815 68.045471,98.488815 68.838165C98.488815 69.630859,98.803757 70.391006,99.364243 70.951477C99.924713 71.511963,100.684860 71.826904,101.477554 71.826904C102.270248 71.826904,103.030396 71.511963,103.590866 70.951477C104.151352 70.391006,104.466293 69.630859,104.466293 68.838165Z" style="fill: rgb(100.000000%,100.000000%,100.000000%);stroke: none;"></path>
  <path d="M111.588623 51.516647C111.588623 50.723953,111.273682 49.963806,110.713196 49.403336C110.152725 48.842850,109.392578 48.527908,108.599884 48.527908C107.807190 48.527908,107.047043 48.842850,106.486572 49.403336C105.926086 49.963806,105.611145 50.723953,105.611145 51.516647C105.611145 52.309341,105.926086 53.069489,106.486572 53.629959C107.047043 54.190445,107.807190 54.505386,108.599884 54.505386C109.392578 54.505386,110.152725 54.190445,110.713196 53.629959C111.273682 53.069489,111.588623 52.309341,111.588623 51.516647Z" style="fill: rgb(100.000000%,100.000000%,100.000000%);stroke: none;"></path>
  <path d="M98.838150 82.761276C98.838150 81.968582,98.523209 81.208435,97.962723 80.647964C97.402252 80.087479,96.642105 79.772537,95.849411 79.772537C95.056717 79.772537,94.296570 80.087479,93.736099 80.647964C93.175613 81.208435,92.860672 81.968582,92.860672 82.761276C92.860672 83.553970,93.175613 84.314117,93.736099 84.874588C94.296570 85.435074,95.056717 85.750015,95.849411 85.750015C96.642105 85.750015,97.402252 85.435074,97.962723 84.874588C98.523209 84.314117,98.838150 83.553970,98.838150 82.761276Z" style="fill: rgb(100.000000%,100.000000%,100.000000%);stroke: none;"></path>
  <path d="M101.634476 74.521851C101.634476 73.729156,101.319534 72.969009,100.759048 72.408539C100.198578 71.848053,99.438431 71.533112,98.645737 71.533112C97.853043 71.533112,97.092896 71.848053,96.532425 72.408539C95.971939 72.969009,95.656998 73.729156,95.656998 74.521851C95.656998 75.314545,95.971939 76.074692,96.532425 76.635162C97.092896 77.195648,97.853043 77.510590,98.645737 77.510590C99.438431 77.510590,100.198578 77.195648,100.759048 76.635162C101.319534 76.074692,101.634476 75.314545,101.634476 74.521851Z" style="fill: rgb(100.000000%,100.000000%,100.000000%);stroke: none;"></path>
  <path d="M93.795898 87.019333C93.795898 86.226639,93.480957 85.466492,92.920471 84.906021C92.360001 84.345535,91.599854 84.030594,90.807159 84.030594C90.014465 84.030594,89.254318 84.345535,88.693848 84.906021C88.133362 85.466492,87.818420 86.226639,87.818420 87.019333C87.818420 87.812027,88.133362 88.572174,88.693848 89.132645C89.254318 89.693130,90.014465 90.008072,90.807159 90.008072C91.599854 90.008072,92.360001 89.693130,92.920471 89.132645C93.480957 88.572174,93.795898 87.812027,93.795898 87.019333Z" style="fill: rgb(100.000000%,100.000000%,100.000000%);stroke: none;"></path>
  <path d="M98.012787 85.187393C98.012787 84.394699,97.697845 83.634552,97.137360 83.074081C96.576889 82.513596,95.816742 82.198654,95.024048 82.198654C94.231354 82.198654,93.471207 82.513596,92.910736 83.074081C92.350250 83.634552,92.035309 84.394699,92.035309 85.187393C92.035309 85.980087,92.350250 86.740234,92.910736 87.300705C93.471207 87.861191,94.231354 88.176132,95.024048 88.176132C95.816742 88.176132,96.576889 87.861191,97.137360 87.300705C97.697845 86.740234,98.012787 85.980087,98.012787 85.187393Z" style="fill: rgb(100.000000%,100.000000%,100.000000%);stroke: none;"></path>
  <path d="M86.286575 84.007202C86.286575 83.214508,85.971634 82.454361,85.411148 81.893890C84.850677 81.333405,84.090530 81.018463,83.297836 81.018463C82.505142 81.018463,81.744995 81.333405,81.184525 81.893890C80.624039 82.454361,80.309097 83.214508,80.309097 84.007202C80.309097 84.799896,80.624039 85.560043,81.184525 86.120514C81.744995 86.681000,82.505142 86.995941,83.297836 86.995941C84.090530 86.995941,84.850677 86.681000,85.411148 86.120514C85.971634 85.560043,86.286575 84.799896,86.286575 84.007202Z" style="fill: rgb(100.000000%,100.000000%,100.000000%);stroke: none;"></path>
  <path d="M91.556488 86.098053C91.556488 85.305359,91.241547 84.545212,90.681061 83.984741C90.120590 83.424255,89.360443 83.109314,88.567749 83.109314C87.775055 83.109314,87.014908 83.424255,86.454437 83.984741C85.893951 84.545212,85.579010 85.305359,85.579010 86.098053C85.579010 86.890747,85.893951 87.650894,86.454437 88.211365C87.014908 88.771851,87.775055 89.086792,88.567749 89.086792C89.360443 89.086792,90.120590 88.771851,90.681061 88.211365C91.241547 87.650894,91.556488 86.890747,91.556488 86.098053Z" style="fill: rgb(100.000000%,100.000000%,100.000000%);stroke: none;"></path>
  <path d="M76.010925 83.866104C76.010925 83.073410,75.695984 82.313263,75.135498 81.752792C74.575027 81.192307,73.814880 80.877365,73.022186 80.877365C72.229492 80.877365,71.469345 81.192307,70.908875 81.752792C70.348389 82.313263,70.033447 83.073410,70.033447 83.866104C70.033447 84.658798,70.348389 85.418945,70.908875 85.979416C71.469345 86.539902,72.229492 86.854843,73.022186 86.854843C73.814880 86.854843,74.575027 86.539902,75.135498 85.979416C75.695984 85.418945,76.010925 84.658798,76.010925 83.866104Z" style="fill: rgb(100.000000%,100.000000%,100.000000%);stroke: none;"></path>
  <path d="M82.931076 83.018219C82.931076 82.225525,82.616135 81.465378,82.055649 80.904907C81.495178 80.344421,80.735031 80.029480,79.942337 80.029480C79.149643 80.029480,78.389496 80.344421,77.829025 80.904907C77.268539 81.465378,76.953598 82.225525,76.953598 83.018219C76.953598 83.810913,77.268539 84.571060,77.829025 85.131531C78.389496 85.692017,79.149643 86.006958,79.942337 86.006958C80.735031 86.006958,81.495178 85.692017,82.055649 85.131531C82.616135 84.571060,82.931076 83.810913,82.931076 83.018219Z" style="fill: rgb(100.000000%,100.000000%,100.000000%);stroke: none;"></path>
  <path d="M66.680008 88.058807C66.680008 87.266113,66.365067 86.505966,65.804581 85.945496C65.244110 85.385010,64.483963 85.070068,63.691269 85.070068C62.898575 85.070068,62.138428 85.385010,61.577957 85.945496C61.017471 86.505966,60.702530 87.266113,60.702530 88.058807C60.702530 88.851501,61.017471 89.611649,61.577957 90.172119C62.138428 90.732605,62.898575 91.047546,63.691269 91.047546C64.483963 91.047546,65.244110 90.732605,65.804581 90.172119C66.365067 89.611649,66.680008 88.851501,66.680008 88.058807Z" style="fill: rgb(100.000000%,100.000000%,100.000000%);stroke: none;"></path>
  <path d="M72.905731 85.763702C72.905731 84.971008,72.590790 84.210861,72.030304 83.650391C71.469833 83.089905,70.709686 82.774963,69.916992 82.774963C69.124298 82.774963,68.364151 83.089905,67.803680 83.650391C67.243195 84.210861,66.928253 84.971008,66.928253 85.763702C66.928253 86.556396,67.243195 87.316544,67.803680 87.877014C68.364151 88.437500,69.124298 88.752441,69.916992 88.752441C70.709686 88.752441,71.469833 88.437500,72.030304 87.877014C72.590790 87.316544,72.905731 86.556396,72.905731 85.763702Z" style="fill: rgb(100.000000%,100.000000%,100.000000%);stroke: none;"></path>
  <path d="M63.138214 95.166702C63.138214 94.374008,62.823273 93.613861,62.262787 93.053391C61.702316 92.492905,60.942169 92.177963,60.149475 92.177963C59.356781 92.177963,58.596634 92.492905,58.036163 93.053391C57.475677 93.613861,57.160736 94.374008,57.160736 95.166702C57.160736 95.959396,57.475677 96.719543,58.036163 97.280014C58.596634 97.840500,59.356781 98.155441,60.149475 98.155441C60.942169 98.155441,61.702316 97.840500,62.262787 97.280014C62.823273 96.719543,63.138214 95.959396,63.138214 95.166702Z" style="fill: rgb(100.000000%,100.000000%,100.000000%);stroke: none;"></path>
  <path d="M63.386688 89.275024C63.386688 88.482330,63.071747 87.722183,62.511261 87.161713C61.950790 86.601227,61.190643 86.286285,60.397949 86.286285C59.605255 86.286285,58.845108 86.601227,58.284637 87.161713C57.724152 87.722183,57.409210 88.482330,57.409210 89.275024C57.409210 90.067719,57.724152 90.827866,58.284637 91.388336C58.845108 91.948822,59.605255 92.263763,60.397949 92.263763C61.190643 92.263763,61.950790 91.948822,62.511261 91.388336C63.071747 90.827866,63.386688 90.067719,63.386688 89.275024Z" style="fill: rgb(100.000000%,100.000000%,100.000000%);stroke: none;"></path>
  <path d="M72.180099 99.491302C72.180099 98.698608,71.865158 97.938461,71.304672 97.377991C70.744202 96.817505,69.984055 96.502563,69.191360 96.502563C68.398666 96.502563,67.638519 96.817505,67.078049 97.377991C66.517563 97.938461,66.202621 98.698608,66.202621 99.491302C66.202621 100.283997,66.517563 101.044144,67.078049 101.604614C67.638519 102.165100,68.398666 102.480042,69.191360 102.480042C69.984055 102.480042,70.744202 102.165100,71.304672 101.604614C71.865158 101.044144,72.180099 100.283997,72.180099 99.491302Z" style="fill: rgb(100.000000%,100.000000%,100.000000%);stroke: none;"></path>
  <path d="M66.256134 96.666595C66.256134 95.873901,65.941193 95.113754,65.380707 94.553284C64.820236 93.992798,64.060089 93.677856,63.267395 93.677856C62.474701 93.677856,61.714554 93.992798,61.154083 94.553284C60.593597 95.113754,60.278656 95.873901,60.278656 96.666595C60.278656 97.459290,60.593597 98.219437,61.154083 98.779907C61.714554 99.340393,62.474701 99.655334,63.267395 99.655334C64.060089 99.655334,64.820236 99.340393,65.380707 98.779907C65.941193 98.219437,66.256134 97.459290,66.256134 96.666595Z" style="fill: rgb(100.000000%,100.000000%,100.000000%);stroke: none;"></path>
  <path d="M82.047562 103.359650C82.047562 102.566956,81.732620 101.806808,81.172134 101.246338C80.611664 100.685852,79.851517 100.370911,79.058823 100.370911C78.266129 100.370911,77.505981 100.685852,76.945511 101.246338C76.385025 101.806808,76.070084 102.566956,76.070084 103.359650C76.070084 104.152344,76.385025 104.912491,76.945511 105.472961C77.505981 106.033447,78.266129 106.348389,79.058823 106.348389C79.851517 106.348389,80.611664 106.033447,81.172134 105.472961C81.732620 104.912491,82.047562 104.152344,82.047562 103.359650Z" style="fill: rgb(100.000000%,100.000000%,100.000000%);stroke: none;"></path>
  <path d="M75.074478 101.615189C75.074478 100.822495,74.759537 100.062347,74.199051 99.501877C73.638580 98.941391,72.878433 98.626450,72.085739 98.626450C71.293045 98.626450,70.532898 98.941391,69.972427 99.501877C69.411942 100.062347,69.097000 100.822495,69.097000 101.615189C69.097000 102.407883,69.411942 103.168030,69.972427 103.728500C70.532898 104.288986,71.293045 104.603928,72.085739 104.603928C72.878433 104.603928,73.638580 104.288986,74.199051 103.728500C74.759537 103.168030,75.074478 102.407883,75.074478 101.615189Z" style="fill: rgb(100.000000%,100.000000%,100.000000%);stroke: none;"></path>
  <path d="M92.835464 101.754120C92.835464 100.961426,92.520523 100.201279,91.960037 99.640808C91.399567 99.080322,90.639420 98.765381,89.846725 98.765381C89.054031 98.765381,88.293884 99.080322,87.733414 99.640808C87.172928 100.201279,86.857986 100.961426,86.857986 101.754120C86.857986 102.546814,87.172928 103.306961,87.733414 103.867432C88.293884 104.427917,89.054031 104.742859,89.846725 104.742859C90.639420 104.742859,91.399567 104.427917,91.960037 103.867432C92.520523 103.306961,92.835464 102.546814,92.835464 101.754120Z" style="fill: rgb(100.000000%,100.000000%,100.000000%);stroke: none;"></path>
  <path d="M85.747269 102.769012C85.747269 101.976318,85.432327 101.216171,84.871841 100.655701C84.311371 100.095215,83.551224 99.780273,82.758530 99.780273C81.965836 99.780273,81.205688 100.095215,80.645218 100.655701C80.084732 101.216171,79.769791 101.976318,79.769791 102.769012C79.769791 103.561707,80.084732 104.321854,80.645218 104.882324C81.205688 105.442810,81.965836 105.757751,82.758530 105.757751C83.551224 105.757751,84.311371 105.442810,84.871841 104.882324C85.432327 104.321854,85.747269 103.561707,85.747269 102.769012Z" style="fill: rgb(100.000000%,100.000000%,100.000000%);stroke: none;"></path>
  <path d="M103.734589 101.026443C103.734589 100.233749,103.419647 99.473602,102.859161 98.913132C102.298691 98.352646,101.538544 98.037704,100.745850 98.037704C99.953156 98.037704,99.193008 98.352646,98.632538 98.913132C98.072052 99.473602,97.757111 100.233749,97.757111 101.026443C97.757111 101.819138,98.072052 102.579285,98.632538 103.139755C99.193008 103.700241,99.953156 104.015182,100.745850 104.015182C101.538544 104.015182,102.298691 103.700241,102.859161 103.139755C103.419647 102.579285,103.734589 101.819138,103.734589 101.026443Z" style="fill: rgb(100.000000%,100.000000%,100.000000%);stroke: none;"></path>
  <path d="M96.305511 101.328094C96.305511 100.535400,95.990570 99.775253,95.430084 99.214783C94.869614 98.654297,94.109467 98.339355,93.316772 98.339355C92.524078 98.339355,91.763931 98.654297,91.203461 99.214783C90.642975 99.775253,90.328033 100.535400,90.328033 101.328094C90.328033 102.120789,90.642975 102.880936,91.203461 103.441406C91.763931 104.001892,92.524078 104.316833,93.316772 104.316833C94.109467 104.316833,94.869614 104.001892,95.430084 103.441406C95.990570 102.880936,96.305511 102.120789,96.305511 101.328094Z" style="fill: rgb(100.000000%,100.000000%,100.000000%);stroke: none;"></path>
  <path d="M119.373337 101.571136C119.373337 100.778442,119.058395 100.018295,118.497910 99.457825C117.937439 98.897339,117.177292 98.582397,116.384598 98.582397C115.591904 98.582397,114.831757 98.897339,114.271286 99.457825C113.710800 100.018295,113.395859 100.778442,113.395859 101.571136C113.395859 102.363831,113.710800 103.123978,114.271286 103.684448C114.831757 104.244934,115.591904 104.559875,116.384598 104.559875C117.177292 104.559875,117.937439 104.244934,118.497910 103.684448C119.058395 103.123978,119.373337 102.363831,119.373337 101.571136Z" style="fill: rgb(100.000000%,100.000000%,100.000000%);stroke: none;"></path>
  <path d="M107.675446 101.229538C107.675446 100.436844,107.360504 99.676697,106.800018 99.116226C106.239548 98.555740,105.479401 98.240799,104.686707 98.240799C103.894012 98.240799,103.133865 98.555740,102.573395 99.116226C102.012909 99.676697,101.697968 100.436844,101.697968 101.229538C101.697968 102.022232,102.012909 102.782379,102.573395 103.342850C103.133865 103.903336,103.894012 104.218277,104.686707 104.218277C105.479401 104.218277,106.239548 103.903336,106.800018 103.342850C107.360504 102.782379,107.675446 102.022232,107.675446 101.229538Z" style="fill: rgb(100.000000%,100.000000%,100.000000%);stroke: none;"></path>
  <path d="M148.832642 100.961563C148.832642 100.168869,148.517700 99.408722,147.957214 98.848251C147.396744 98.287766,146.636597 97.972824,145.843903 97.972824C145.051208 97.972824,144.291061 98.287766,143.730591 98.848251C143.170105 99.408722,142.855164 100.168869,142.855164 100.961563C142.855164 101.754257,143.170105 102.514404,143.730591 103.074875C144.291061 103.635361,145.051208 103.950302,145.843903 103.950302C146.636597 103.950302,147.396744 103.635361,147.957214 103.074875C148.517700 102.514404,148.832642 101.754257,148.832642 100.961563Z" style="fill: rgb(100.000000%,100.000000%,100.000000%);stroke: none;"></path>
  <path d="M127.135803 101.456070C127.135803 100.663376,126.820862 99.903229,126.260376 99.342758C125.699905 98.782272,124.939758 98.467331,124.147064 98.467331C123.354370 98.467331,122.594223 98.782272,122.033752 99.342758C121.473267 99.903229,121.158325 100.663376,121.158325 101.456070C121.158325 102.248764,121.473267 103.008911,122.033752 103.569382C122.594223 104.129868,123.354370 104.444809,124.147064 104.444809C124.939758 104.444809,125.699905 104.129868,126.260376 103.569382C126.820862 103.008911,127.135803 102.248764,127.135803 101.456070Z" style="fill: rgb(100.000000%,100.000000%,100.000000%);stroke: none;"></path>
  <path d="M189.084839 118.949982C189.084839 118.157288,188.769897 117.397141,188.209412 116.836670C187.648941 116.276184,186.888794 115.961243,186.096100 115.961243C185.303406 115.961243,184.543259 116.276184,183.982788 116.836670C183.422302 117.397141,183.107361 118.157288,183.107361 118.949982C183.107361 119.742676,183.422302 120.502823,183.982788 121.063293C184.543259 121.623779,185.303406 121.938721,186.096100 121.938721C186.888794 121.938721,187.648941 121.623779,188.209412 121.063293C188.769897 120.502823,189.084839 119.742676,189.084839 118.949982Z" style="fill: rgb(100.000000%,100.000000%,100.000000%);stroke: none;"></path>
  <path d="M163.478363 100.719116C163.478363 99.926422,163.163422 99.166275,162.602936 98.605804C162.042465 98.045319,161.282318 97.730377,160.489624 97.730377C159.696930 97.730377,158.936783 98.045319,158.376312 98.605804C157.815826 99.166275,157.500885 99.926422,157.500885 100.719116C157.500885 101.511810,157.815826 102.271957,158.376312 102.832428C158.936783 103.392914,159.696930 103.707855,160.489624 103.707855C161.282318 103.707855,162.042465 103.392914,162.602936 102.832428C163.163422 102.271957,163.478363 101.511810,163.478363 100.719116Z" style="fill: rgb(100.000000%,100.000000%,100.000000%);stroke: none;"></path>
  <path d="M176.077682 170.630188C176.077682 169.837494,175.762741 169.077347,175.202255 168.516876C174.641785 167.956390,173.881638 167.641449,173.088943 167.641449C172.296249 167.641449,171.536102 167.956390,170.975632 168.516876C170.415146 169.077347,170.100204 169.837494,170.100204 170.630188C170.100204 171.422882,170.415146 172.183029,170.975632 172.743500C171.536102 173.303986,172.296249 173.618927,173.088943 173.618927C173.881638 173.618927,174.641785 173.303986,175.202255 172.743500C175.762741 172.183029,176.077682 171.422882,176.077682 170.630188Z" style="fill: rgb(100.000000%,100.000000%,100.000000%);stroke: none;"></path>
  <path d="M193.331848 138.169662C193.331848 137.376968,193.016907 136.616821,192.456421 136.056351C191.895950 135.495865,191.135803 135.180923,190.343109 135.180923C189.550415 135.180923,188.790268 135.495865,188.229797 136.056351C187.669312 136.616821,187.354370 137.376968,187.354370 138.169662C187.354370 138.962357,187.669312 139.722504,188.229797 140.282974C188.790268 140.843460,189.550415 141.158401,190.343109 141.158401C191.135803 141.158401,191.895950 140.843460,192.456421 140.282974C193.016907 139.722504,193.331848 138.962357,193.331848 138.169662Z" style="fill: rgb(100.000000%,100.000000%,100.000000%);stroke: none;"></path>
  <path d="M126.185349 163.708221C126.185349 162.915527,125.870407 162.155380,125.309921 161.594910C124.749451 161.034424,123.989304 160.719482,123.196609 160.719482C122.403915 160.719482,121.643768 161.034424,121.083298 161.594910C120.522812 162.155380,120.207870 162.915527,120.207870 163.708221C120.207870 164.500916,120.522812 165.261063,121.083298 165.821533C121.643768 166.382019,122.403915 166.696960,123.196609 166.696960C123.989304 166.696960,124.749451 166.382019,125.309921 165.821533C125.870407 165.261063,126.185349 164.500916,126.185349 163.708221Z" style="fill: rgb(100.000000%,100.000000%,100.000000%);stroke: none;"></path>
  <path d="M155.355255 177.606567C155.355255 176.813873,155.040314 176.053726,154.479828 175.493256C153.919357 174.932770,153.159210 174.617828,152.366516 174.617828C151.573822 174.617828,150.813675 174.932770,150.253204 175.493256C149.692719 176.053726,149.377777 176.813873,149.377777 177.606567C149.377777 178.399261,149.692719 179.159409,150.253204 179.719879C150.813675 180.280365,151.573822 180.595306,152.366516 180.595306C153.159210 180.595306,153.919357 180.280365,154.479828 179.719879C155.040314 179.159409,155.355255 178.399261,155.355255 177.606567Z" style="fill: rgb(100.000000%,100.000000%,100.000000%);stroke: none;"></path>
  <path d="M106.829437 135.636063C106.829437 134.843369,106.514496 134.083221,105.954010 133.522751C105.393539 132.962265,104.633392 132.647324,103.840698 132.647324C103.048004 132.647324,102.287857 132.962265,101.727386 133.522751C101.166901 134.083221,100.851959 134.843369,100.851959 135.636063C100.851959 136.428757,101.166901 137.188904,101.727386 137.749374C102.287857 138.309860,103.048004 138.624802,103.840698 138.624802C104.633392 138.624802,105.393539 138.309860,105.954010 137.749374C106.514496 137.188904,106.829437 136.428757,106.829437 135.636063Z" style="fill: rgb(100.000000%,100.000000%,100.000000%);stroke: none;"></path>
  <path d="M119.157043 151.962845C119.157043 151.170151,118.842102 150.410004,118.281616 149.849533C117.721146 149.289047,116.960999 148.974106,116.168304 148.974106C115.375610 148.974106,114.615463 149.289047,114.054993 149.849533C113.494507 150.410004,113.179565 151.170151,113.179565 151.962845C113.179565 152.755539,113.494507 153.515686,114.054993 154.076157C114.615463 154.636642,115.375610 154.951584,116.168304 154.951584C116.960999 154.951584,117.721146 154.636642,118.281616 154.076157C118.842102 153.515686,119.157043 152.755539,119.157043 151.962845Z" style="fill: rgb(100.000000%,100.000000%,100.000000%);stroke: none;"></path>
  <path d="M94.339706 121.017395C94.339706 120.224701,94.024765 119.464554,93.464279 118.904083C92.903809 118.343597,92.143661 118.028656,91.350967 118.028656C90.558273 118.028656,89.798126 118.343597,89.237656 118.904083C88.677170 119.464554,88.362228 120.224701,88.362228 121.017395C88.362228 121.810089,88.677170 122.570236,89.237656 123.130707C89.798126 123.691193,90.558273 124.006134,91.350967 124.006134C92.143661 124.006134,92.903809 123.691193,93.464279 123.130707C94.024765 122.570236,94.339706 121.810089,94.339706 121.017395Z" style="fill: rgb(100.000000%,100.000000%,100.000000%);stroke: none;"></path>
  <path d="M101.976868 130.066528C101.976868 129.273834,101.661926 128.513687,101.101440 127.953217C100.540970 127.392731,99.780823 127.077789,98.988129 127.077789C98.195435 127.077789,97.435287 127.392731,96.874817 127.953217C96.314331 128.513687,95.999390 129.273834,95.999390 130.066528C95.999390 130.859222,96.314331 131.619370,96.874817 132.179840C97.435287 132.740326,98.195435 133.055267,98.988129 133.055267C99.780823 133.055267,100.540970 132.740326,101.101440 132.179840C101.661926 131.619370,101.976868 130.859222,101.976868 130.066528Z" style="fill: rgb(100.000000%,100.000000%,100.000000%);stroke: none;"></path>
  <path d="M89.282883 109.637787C89.282883 108.845093,88.967941 108.084946,88.407455 107.524475C87.846985 106.963989,87.086838 106.649048,86.294144 106.649048C85.501450 106.649048,84.741302 106.963989,84.180832 107.524475C83.620346 108.084946,83.305405 108.845093,83.305405 109.637787C83.305405 110.430481,83.620346 111.190628,84.180832 111.751099C84.741302 112.311584,85.501450 112.626526,86.294144 112.626526C87.086838 112.626526,87.846985 112.311584,88.407455 111.751099C88.967941 111.190628,89.282883 110.430481,89.282883 109.637787Z" style="fill: rgb(100.000000%,100.000000%,100.000000%);stroke: none;"></path>
  <path d="M91.449844 117.489014C91.449844 116.696320,91.134903 115.936172,90.574417 115.375702C90.013947 114.815216,89.253799 114.500275,88.461105 114.500275C87.668411 114.500275,86.908264 114.815216,86.347794 115.375702C85.787308 115.936172,85.472366 116.696320,85.472366 117.489014C85.472366 118.281708,85.787308 119.041855,86.347794 119.602325C86.908264 120.162811,87.668411 120.477753,88.461105 120.477753C89.253799 120.477753,90.013947 120.162811,90.574417 119.602325C91.134903 119.041855,91.449844 118.281708,91.449844 117.489014Z" style="fill: rgb(100.000000%,100.000000%,100.000000%);stroke: none;"></path>
  <path d="M89.219772 99.297546C89.219772 98.504852,88.904831 97.744705,88.344345 97.184235C87.783875 96.623749,87.023727 96.308807,86.231033 96.308807C85.438339 96.308807,84.678192 96.623749,84.117722 97.184235C83.557236 97.744705,83.242294 98.504852,83.242294 99.297546C83.242294 100.090240,83.557236 100.850388,84.117722 101.410858C84.678192 101.971344,85.438339 102.286285,86.231033 102.286285C87.023727 102.286285,87.783875 101.971344,88.344345 101.410858C88.904831 100.850388,89.219772 100.090240,89.219772 99.297546Z" style="fill: rgb(100.000000%,100.000000%,100.000000%);stroke: none;"></path>
  <path d="M89.574203 105.912903C89.574203 105.120209,89.259262 104.360062,88.698776 103.799591C88.138306 103.239105,87.378159 102.924164,86.585464 102.924164C85.792770 102.924164,85.032623 103.239105,84.472153 103.799591C83.911667 104.360062,83.596725 105.120209,83.596725 105.912903C83.596725 106.705597,83.911667 107.465744,84.472153 108.026215C85.032623 108.586700,85.792770 108.901642,86.585464 108.901642C87.378159 108.901642,88.138306 108.586700,88.698776 108.026215C89.259262 107.465744,89.574203 106.705597,89.574203 105.912903Z" style="fill: rgb(100.000000%,100.000000%,100.000000%);stroke: none;"></path>
  <path d="M88.890518 90.683716C88.890518 89.891022,88.575577 89.130875,88.015091 88.570404C87.454620 88.009918,86.694473 87.694977,85.901779 87.694977C85.109085 87.694977,84.348938 88.009918,83.788467 88.570404C83.227982 89.130875,82.913040 89.891022,82.913040 90.683716C82.913040 91.476410,83.227982 92.236557,83.788467 92.797028C84.348938 93.357513,85.109085 93.672455,85.901779 93.672455C86.694473 93.672455,87.454620 93.357513,88.015091 92.797028C88.575577 92.236557,88.890518 91.476410,88.890518 90.683716Z" style="fill: rgb(100.000000%,100.000000%,100.000000%);stroke: none;"></path>
  <path d="M88.740952 96.362350C88.740952 95.569656,88.426010 94.809509,87.865524 94.249039C87.305054 93.688553,86.544907 93.373611,85.752213 93.373611C84.959518 93.373611,84.199371 93.688553,83.638901 94.249039C83.078415 94.809509,82.763474 95.569656,82.763474 96.362350C82.763474 97.155045,83.078415 97.915192,83.638901 98.475662C84.199371 99.036148,84.959518 99.351089,85.752213 99.351089C86.544907 99.351089,87.305054 99.036148,87.865524 98.475662C88.426010 97.915192,88.740952 97.155045,88.740952 96.362350Z" style="fill: rgb(100.000000%,100.000000%,100.000000%);stroke: none;"></path>
  <path d="M89.498016 82.670624C89.498016 81.877930,89.183075 81.117783,88.622589 80.557312C88.062119 79.996826,87.301971 79.681885,86.509277 79.681885C85.716583 79.681885,84.956436 79.996826,84.395966 80.557312C83.835480 81.117783,83.520538 81.877930,83.520538 82.670624C83.520538 83.463318,83.835480 84.223465,84.395966 84.783936C84.956436 85.344421,85.716583 85.659363,86.509277 85.659363C87.301971 85.659363,88.062119 85.344421,88.622589 84.783936C89.183075 84.223465,89.498016 83.463318,89.498016 82.670624Z" style="fill: rgb(100.000000%,100.000000%,100.000000%);stroke: none;"></path>
  <path d="M89.434036 87.992386C89.434036 87.199692,89.119095 86.439545,88.558609 85.879074C87.998138 85.318588,87.237991 85.003647,86.445297 85.003647C85.652603 85.003647,84.892456 85.318588,84.331985 85.879074C83.771500 86.439545,83.456558 87.199692,83.456558 87.992386C83.456558 88.785080,83.771500 89.545227,84.331985 90.105698C84.892456 90.666183,85.652603 90.981125,86.445297 90.981125C87.237991 90.981125,87.998138 90.666183,88.558609 90.105698C89.119095 89.545227,89.434036 88.785080,89.434036 87.992386Z" style="fill: rgb(100.000000%,100.000000%,100.000000%);stroke: none;"></path>
  <path d="M94.027222 76.716415C94.027222 75.923721,93.712280 75.163574,93.151794 74.603104C92.591324 74.042618,91.831177 73.727676,91.038483 73.727676C90.245789 73.727676,89.485641 74.042618,88.925171 74.603104C88.364685 75.163574,88.049744 75.923721,88.049744 76.716415C88.049744 77.509109,88.364685 78.269257,88.925171 78.829727C89.485641 79.390213,90.245789 79.705154,91.038483 79.705154C91.831177 79.705154,92.591324 79.390213,93.151794 78.829727C93.712280 78.269257,94.027222 77.509109,94.027222 76.716415Z" style="fill: rgb(100.000000%,100.000000%,100.000000%);stroke: none;"></path>
  <path d="M89.341446 79.755264C89.341446 78.962570,89.026505 78.202423,88.466019 77.641953C87.905548 77.081467,87.145401 76.766525,86.352707 76.766525C85.560013 76.766525,84.799866 77.081467,84.239395 77.641953C83.678909 78.202423,83.363968 78.962570,83.363968 79.755264C83.363968 80.547958,83.678909 81.308105,84.239395 81.868576C84.799866 82.429062,85.560013 82.744003,86.352707 82.744003C87.145401 82.744003,87.905548 82.429062,88.466019 81.868576C89.026505 81.308105,89.341446 80.547958,89.341446 79.755264Z" style="fill: rgb(100.000000%,100.000000%,100.000000%);stroke: none;"></path>
  <path d="M103.170593 82.902267C103.170593 82.109573,102.855652 81.349426,102.295166 80.788956C101.734695 80.228470,100.974548 79.913528,100.181854 79.913528C99.389160 79.913528,98.629013 80.228470,98.068542 80.788956C97.508057 81.349426,97.193115 82.109573,97.193115 82.902267C97.193115 83.694962,97.508057 84.455109,98.068542 85.015579C98.629013 85.576065,99.389160 85.891006,100.181854 85.891006C100.974548 85.891006,101.734695 85.576065,102.295166 85.015579C102.855652 84.455109,103.170593 83.694962,103.170593 82.902267Z" style="fill: rgb(100.000000%,100.000000%,100.000000%);stroke: none;"></path>
  <path d="M96.973602 78.765350C96.973602 77.972656,96.658661 77.212509,96.098175 76.652039C95.537704 76.091553,94.777557 75.776611,93.984863 75.776611C93.192169 75.776611,92.432022 76.091553,91.871552 76.652039C91.311066 77.212509,90.996124 77.972656,90.996124 78.765350C90.996124 79.558044,91.311066 80.318192,91.871552 80.878662C92.432022 81.439148,93.192169 81.754089,93.984863 81.754089C94.777557 81.754089,95.537704 81.439148,96.098175 80.878662C96.658661 80.318192,96.973602 79.558044,96.973602 78.765350Z" style="fill: rgb(100.000000%,100.000000%,100.000000%);stroke: none;"></path>
  <path d="M112.330460 91.925705C112.330460 91.133011,112.015518 90.372864,111.455032 89.812393C110.894562 89.251907,110.134415 88.936966,109.341721 88.936966C108.549026 88.936966,107.788879 89.251907,107.228409 89.812393C106.667923 90.372864,106.352982 91.133011,106.352982 91.925705C106.352982 92.718399,106.667923 93.478546,107.228409 94.039017C107.788879 94.599503,108.549026 94.914444,109.341721 94.914444C110.134415 94.914444,110.894562 94.599503,111.455032 94.039017C112.015518 93.478546,112.330460 92.718399,112.330460 91.925705Z" style="fill: rgb(100.000000%,100.000000%,100.000000%);stroke: none;"></path>
  <path d="M107.483551 84.433472C107.483551 83.640778,107.168610 82.880630,106.608124 82.320160C106.047653 81.759674,105.287506 81.444733,104.494812 81.444733C103.702118 81.444733,102.941971 81.759674,102.381500 82.320160C101.821014 82.880630,101.506073 83.640778,101.506073 84.433472C101.506073 85.226166,101.821014 85.986313,102.381500 86.546783C102.941971 87.107269,103.702118 87.422211,104.494812 87.422211C105.287506 87.422211,106.047653 87.107269,106.608124 86.546783C107.168610 85.986313,107.483551 85.226166,107.483551 84.433472Z" style="fill: rgb(100.000000%,100.000000%,100.000000%);stroke: none;"></path>
  <path d="M111.446289 106.056992C111.446289 105.264297,111.131348 104.504150,110.570862 103.943680C110.010391 103.383194,109.250244 103.068253,108.457550 103.068253C107.664856 103.068253,106.904709 103.383194,106.344238 103.943680C105.783752 104.504150,105.468811 105.264297,105.468811 106.056992C105.468811 106.849686,105.783752 107.609833,106.344238 108.170303C106.904709 108.730789,107.664856 109.045731,108.457550 109.045731C109.250244 109.045731,110.010391 108.730789,110.570862 108.170303C111.131348 107.609833,111.446289 106.849686,111.446289 106.056992Z" style="fill: rgb(100.000000%,100.000000%,100.000000%);stroke: none;"></path>
  <path d="M111.779327 96.761642C111.779327 95.968948,111.464386 95.208801,110.903900 94.648331C110.343430 94.087845,109.583282 93.772903,108.790588 93.772903C107.997894 93.772903,107.237747 94.087845,106.677277 94.648331C106.116791 95.208801,105.801849 95.968948,105.801849 96.761642C105.801849 97.554337,106.116791 98.314484,106.677277 98.874954C107.237747 99.435440,107.997894 99.750381,108.790588 99.750381C109.583282 99.750381,110.343430 99.435440,110.903900 98.874954C111.464386 98.314484,111.779327 97.554337,111.779327 96.761642Z" style="fill: rgb(100.000000%,100.000000%,100.000000%);stroke: none;"></path>
  <path d="M107.094437 119.872528C107.094437 119.079834,106.779495 118.319687,106.219009 117.759216C105.658539 117.198730,104.898392 116.883789,104.105698 116.883789C103.313004 116.883789,102.552856 117.198730,101.992386 117.759216C101.431900 118.319687,101.116959 119.079834,101.116959 119.872528C101.116959 120.665222,101.431900 121.425369,101.992386 121.985840C102.552856 122.546326,103.313004 122.861267,104.105698 122.861267C104.898392 122.861267,105.658539 122.546326,106.219009 121.985840C106.779495 121.425369,107.094437 120.665222,107.094437 119.872528Z" style="fill: rgb(100.000000%,100.000000%,100.000000%);stroke: none;"></path>
  <path d="M111.737137 110.950150C111.737137 110.157455,111.422195 109.397308,110.861710 108.836838C110.301239 108.276352,109.541092 107.961411,108.748398 107.961411C107.955704 107.961411,107.195557 108.276352,106.635086 108.836838C106.074600 109.397308,105.759659 110.157455,105.759659 110.950150C105.759659 111.742844,106.074600 112.502991,106.635086 113.063461C107.195557 113.623947,107.955704 113.938889,108.748398 113.938889C109.541092 113.938889,110.301239 113.623947,110.861710 113.063461C111.422195 112.502991,111.737137 111.742844,111.737137 110.950150Z" style="fill: rgb(100.000000%,100.000000%,100.000000%);stroke: none;"></path>
  <path d="M90.350693 127.015839C90.350693 126.223145,90.035751 125.462997,89.475266 124.902527C88.914795 124.342041,88.154648 124.027100,87.361954 124.027100C86.569260 124.027100,85.809113 124.342041,85.248642 124.902527C84.688156 125.462997,84.373215 126.223145,84.373215 127.015839C84.373215 127.808533,84.688156 128.568680,85.248642 129.129150C85.809113 129.689636,86.569260 130.004578,87.361954 130.004578C88.154648 130.004578,88.914795 129.689636,89.475266 129.129150C90.035751 128.568680,90.350693 127.808533,90.350693 127.015839Z" style="fill: rgb(100.000000%,100.000000%,100.000000%);stroke: none;"></path>
  <path d="M102.205154 122.542419C102.205154 121.749725,101.890213 120.989578,101.329727 120.429108C100.769257 119.868622,100.009109 119.553680,99.216415 119.553680C98.423721 119.553680,97.663574 119.868622,97.103104 120.429108C96.542618 120.989578,96.227676 121.749725,96.227676 122.542419C96.227676 123.335114,96.542618 124.095261,97.103104 124.655731C97.663574 125.216217,98.423721 125.531158,99.216415 125.531158C100.009109 125.531158,100.769257 125.216217,101.329727 124.655731C101.890213 124.095261,102.205154 123.335114,102.205154 122.542419Z" style="fill: rgb(100.000000%,100.000000%,100.000000%);stroke: none;"></path>
  <path d="M74.523087 133.653641C64.006531 143.722778,48.689789 146.957321,35.000000 142.000000C14.774628 134.676025,4.434494 113.316376,3.582581 91.363586C2.687836 68.306976,13.667877 45.441742,35.000000 42.671051C48.209732 40.955322,61.089844 49.332550,74.155472 46.365128C86.790894 43.495407,94.806259 31.035553,107.176453 27.355759C127.225647 21.391663,144.724106 37.983032,158.390289 55.021713C171.734833 71.659378,183.224045 92.276566,171.860336 108.814636C164.517242 119.501343,149.424896 122.171646,142.648010 133.289215C136.096497 144.037048,140.153702 157.960770,135.050034 169.355927C126.004608 189.552002,99.707733 191.187241,76.592682 184.588135C54.080505 178.161148,32.915588 163.645676,35.000000 142.000000C36.210526 129.429245,46.050369 120.257462,54.226562 110.696747C57.993713 106.291687,61.495895 101.606232,66.028687 97.983246C67.862000 96.517914,69.929047 94.997009,70.042572 92.666077C70.155670 90.343811,68.257919 88.632629,66.599533 86.986679C62.265045 82.684708,59.292084 77.260605,55.564713 72.432312C48.064545 62.716873,37.295532 54.839920,35.000000 42.671051C31.699814 25.176331,45.777664 9.668610,64.166702 6.060791C82.148193 2.532928,100.733902 10.624832,107.176453 27.355759C111.621689 38.899811,108.599884 51.516647,103.885056 62.983124C101.477554 68.838165,98.645737 74.521851,96.610657 80.518250C95.849411 82.761276,95.024048 85.187393,92.863190 86.126129C90.807159 87.019333,88.567749 86.098053,86.478043 85.268951C83.297836 84.007202,79.942337 83.018219,76.541885 83.434860C73.022186 83.866104,69.916992 85.763702,66.599533 86.986679C63.691269 88.058807,60.397949 89.275024,60.272980 92.238297C60.149475 95.166702,63.267395 96.666595,66.028687 97.983246C69.191360 99.491302,72.085739 101.615189,75.492828 102.467545C79.058823 103.359650,82.758530 102.769012,86.389175 102.249176C89.846725 101.754120,93.316772 101.328094,96.807129 101.186371C100.745850 101.026443,104.686707 101.229538,108.626389 101.344589C116.384598 101.571136,124.147064 101.456070,131.906281 101.279221C145.843903 100.961563,160.489624 100.719116,171.860336 108.814636C186.096100 118.949982,190.343109 138.169662,182.109924 153.658875C173.088943 170.630188,152.366516 177.606567,135.050034 169.355927C123.196609 163.708221,116.168304 151.962845,108.289261 141.527786C103.840698 135.636063,98.988129 130.066528,94.227051 124.425217C91.350967 121.017395,88.461105 117.489014,87.272247 113.181580C86.294144 109.637787,86.585464 105.912903,86.389175 102.249176C86.231033 99.297546,85.752213 96.362350,85.830078 93.406097C85.901779 90.683716,86.445297 87.992386,86.478043 85.268951C86.509277 82.670624,86.352707 79.755264,88.498032 78.363968C91.038483 76.716415,93.984863 78.765350,96.610657 80.518250C100.181854 82.902267,104.494812 84.433472,106.843109 88.063416C109.341721 91.925705,108.790588 96.761642,108.626389 101.344589C108.457550 106.056992,108.748398 110.950150,106.563568 115.148972C104.105698 119.872528,99.216415 122.542419,94.227051 124.425217C87.361954 127.015839,79.847931 128.555344,74.523087 133.653641" style="stroke:rgb(0.000000%,0.000000%,0.000000%); stroke-width: 0.498138;stroke-linecap: round;stroke-linejoin: round;stroke-miterlimit: 10.000000;fill: none;"></path>
  <path d="M74.523087 133.653641C64.006531 143.722778,48.689789 146.957321,35.000000 142.000000" style="stroke:rgb(0.000000%,0.000000%,0.000000%); stroke-width: 1.494400;stroke-linecap: round;stroke-linejoin: round;stroke-miterlimit: 10.000000;fill: none;"></path>
  <path d="M108.626389 101.344589C108.457550 106.056992,108.748398 110.950150,106.563568 115.148972C104.105698 119.872528,99.216415 122.542419,94.227051 124.425217C87.361954 127.015839,79.847931 128.555344,74.523087 133.653641" style="stroke:rgb(0.000000%,0.000000%,0.000000%); stroke-width: 1.494400;stroke-linecap: round;stroke-linejoin: round;stroke-miterlimit: 10.000000;fill: none;"></path>
  <path d="M37.988739 142.000000C37.988739 141.207306,37.673798 140.447159,37.113312 139.886688C36.552841 139.326202,35.792694 139.011261,35.000000 139.011261C34.207306 139.011261,33.447159 139.326202,32.886688 139.886688C32.326202 140.447159,32.011261 141.207306,32.011261 142.000000C32.011261 142.792694,32.326202 143.552841,32.886688 144.113312C33.447159 144.673798,34.207306 144.988739,35.000000 144.988739C35.792694 144.988739,36.552841 144.673798,37.113312 144.113312C37.673798 143.552841,37.988739 142.792694,37.988739 142.000000Z" style="fill: rgb(100.000000%,100.000000%,100.000000%);stroke: none;"></path>
  <path d="M46.572617 169.001068C38.727921 161.863113,33.957794 152.822830,35.000000 142.000000C35.605270 135.714615,38.367859 130.278976,42.001160 125.219589" style="stroke:rgb(0.000000%,0.000000%,0.000000%); stroke-width: 0.498138;stroke-linecap: round;stroke-linejoin: round;stroke-miterlimit: 10.000000;fill: none;"></path>
  <path d="M110.165192 27.355759C110.165192 26.563065,109.850250 25.802917,109.289764 25.242447C108.729294 24.681961,107.969147 24.367020,107.176453 24.367020C106.383759 24.367020,105.623611 24.681961,105.063141 25.242447C104.502655 25.802917,104.187714 26.563065,104.187714 27.355759C104.187714 28.148453,104.502655 28.908600,105.063141 29.469070C105.623611 30.029556,106.383759 30.344498,107.176453 30.344498C107.969147 30.344498,108.729294 30.029556,109.289764 29.469070C109.850250 28.908600,110.165192 28.148453,110.165192 27.355759Z" style="fill: rgb(100.000000%,100.000000%,100.000000%);stroke: none;"></path>
  <path d="M89.998688 9.111237C97.698120 12.784592,103.955185 18.990295,107.176453 27.355759C109.399078 33.127792,109.754929 39.168015,108.965775 45.198547" style="stroke:rgb(0.000000%,0.000000%,0.000000%); stroke-width: 0.498138;stroke-linecap: round;stroke-linejoin: round;stroke-miterlimit: 10.000000;fill: none;"></path>
  <path d="M138.038773 169.355927C138.038773 168.563232,137.723831 167.803085,137.163345 167.242615C136.602875 166.682129,135.842728 166.367188,135.050034 166.367188C134.257339 166.367188,133.497192 166.682129,132.936722 167.242615C132.376236 167.803085,132.061295 168.563232,132.061295 169.355927C132.061295 170.148621,132.376236 170.908768,132.936722 171.469238C133.497192 172.029724,134.257339 172.344666,135.050034 172.344666C135.842728 172.344666,136.602875 172.029724,137.163345 171.469238C137.723831 170.908768,138.038773 170.148621,138.038773 169.355927Z" style="fill: rgb(100.000000%,100.000000%,100.000000%);stroke: none;"></path>
  <path d="M161.690781 170.965637C153.217987 173.799805,143.708267 173.481247,135.050034 169.355927C129.123322 166.532074,124.402878 162.183792,120.179245 157.237106" style="stroke:rgb(0.000000%,0.000000%,0.000000%); stroke-width: 0.498138;stroke-linecap: round;stroke-linejoin: round;stroke-miterlimit: 10.000000;fill: none;"></path>
  <path d="M69.017426 97.983246C69.017426 97.190552,68.702484 96.430405,68.141998 95.869934C67.581528 95.309448,66.821381 94.994507,66.028687 94.994507C65.235992 94.994507,64.475845 95.309448,63.915375 95.869934C63.354889 96.430405,63.039948 97.190552,63.039948 97.983246C63.039948 98.775940,63.354889 99.536087,63.915375 100.096558C64.475845 100.657043,65.235992 100.971985,66.028687 100.971985C66.821381 100.971985,67.581528 100.657043,68.141998 100.096558C68.702484 99.536087,69.017426 98.775940,69.017426 97.983246Z" style="fill: rgb(100.000000%,100.000000%,100.000000%);stroke: none;"></path>
  <path d="M62.069046 95.715195C63.178238 96.620789,64.648041 97.324921,66.028687 97.983246C67.610031 98.737274,69.124298 99.645264,70.669113 100.471298" style="stroke:rgb(0.000000%,0.000000%,0.000000%); stroke-width: 0.498138;stroke-linecap: round;stroke-linejoin: round;stroke-miterlimit: 10.000000;fill: none;"></path>
  <path d="M37.988739 42.671051C37.988739 41.878357,37.673798 41.118210,37.113312 40.557739C36.552841 39.997253,35.792694 39.682312,35.000000 39.682312C34.207306 39.682312,33.447159 39.997253,32.886688 40.557739C32.326202 41.118210,32.011261 41.878357,32.011261 42.671051C32.011261 43.463745,32.326202 44.223892,32.886688 44.784363C33.447159 45.344849,34.207306 45.659790,35.000000 45.659790C35.792694 45.659790,36.552841 45.344849,37.113312 44.784363C37.673798 44.223892,37.988739 43.463745,37.988739 42.671051Z" style="fill: rgb(100.000000%,100.000000%,100.000000%);stroke: none;"></path>
  <path d="M10.956223 59.410095C16.255905 50.465378,24.333939 44.056396,35.000000 42.671051C41.604874 41.813187,48.127335 43.478561,54.631790 44.987473" style="stroke:rgb(0.000000%,0.000000%,0.000000%); stroke-width: 0.498138;stroke-linecap: round;stroke-linejoin: round;stroke-miterlimit: 10.000000;fill: none;"></path>
  <path d="M99.599396 80.518250C99.599396 79.725555,99.284454 78.965408,98.723969 78.404938C98.163498 77.844452,97.403351 77.529510,96.610657 77.529510C95.817963 77.529510,95.057816 77.844452,94.497345 78.404938C93.936859 78.965408,93.621918 79.725555,93.621918 80.518250C93.621918 81.310944,93.936859 82.071091,94.497345 82.631561C95.057816 83.192047,95.817963 83.506989,96.610657 83.506989C97.403351 83.506989,98.163498 83.192047,98.723969 82.631561C99.284454 82.071091,99.599396 81.310944,99.599396 80.518250Z" style="fill: rgb(100.000000%,100.000000%,100.000000%);stroke: none;"></path>
  <path d="M100.108185 71.697693C98.844910 74.600037,97.628189 77.520050,96.610657 80.518250C96.230026 81.639771,95.833374 82.807053,95.261765 83.811310" style="stroke:rgb(0.000000%,0.000000%,0.000000%); stroke-width: 0.498138;stroke-linecap: round;stroke-linejoin: round;stroke-miterlimit: 10.000000;fill: none;"></path>
  <path d="M69.588272 86.986679C69.588272 86.193985,69.273331 85.433838,68.712845 84.873367C68.152374 84.312881,67.392227 83.997940,66.599533 83.997940C65.806839 83.997940,65.046692 84.312881,64.486221 84.873367C63.925735 85.433838,63.610794 86.193985,63.610794 86.986679C63.610794 87.779373,63.925735 88.539520,64.486221 89.099991C65.046692 89.660477,65.806839 89.975418,66.599533 89.975418C67.392227 89.975418,68.152374 89.660477,68.712845 89.099991C69.273331 88.539520,69.588272 87.779373,69.588272 86.986679Z" style="fill: rgb(100.000000%,100.000000%,100.000000%);stroke: none;"></path>
  <path d="M68.985352 89.572754C68.317749 88.648926,67.428726 87.809647,66.599533 86.986679C64.432281 84.835693,62.605423 82.404175,60.854446 79.906860" style="stroke:rgb(0.000000%,0.000000%,0.000000%); stroke-width: 0.498138;stroke-linecap: round;stroke-linejoin: round;stroke-miterlimit: 10.000000;fill: none;"></path>
  <path d="M89.377914 102.249176C89.377914 101.456482,89.062973 100.696335,88.502487 100.135864C87.942017 99.575378,87.181870 99.260437,86.389175 99.260437C85.596481 99.260437,84.836334 99.575378,84.275864 100.135864C83.715378 100.696335,83.400436 101.456482,83.400436 102.249176C83.400436 103.041870,83.715378 103.802017,84.275864 104.362488C84.836334 104.922974,85.596481 105.237915,86.389175 105.237915C87.181870 105.237915,87.942017 104.922974,88.502487 104.362488C89.062973 103.802017,89.377914 103.041870,89.377914 102.249176Z" style="fill: rgb(100.000000%,100.000000%,100.000000%);stroke: none;"></path>
  <path d="M86.537521 107.760345C86.463562 105.928192,86.487320 104.081039,86.389175 102.249176C86.310104 100.773361,86.150864 99.301651,86.021118 97.829361" style="stroke:rgb(0.000000%,0.000000%,0.000000%); stroke-width: 0.498138;stroke-linecap: round;stroke-linejoin: round;stroke-miterlimit: 10.000000;fill: none;"></path>
  <path d="M174.849075 108.814636C174.849075 108.021942,174.534134 107.261795,173.973648 106.701324C173.413177 106.140839,172.653030 105.825897,171.860336 105.825897C171.067642 105.825897,170.307495 106.140839,169.747025 106.701324C169.186539 107.261795,168.871597 108.021942,168.871597 108.814636C168.871597 109.607330,169.186539 110.367477,169.747025 110.927948C170.307495 111.488434,171.067642 111.803375,171.860336 111.803375C172.653030 111.803375,173.413177 111.488434,173.973648 110.927948C174.534134 110.367477,174.849075 109.607330,174.849075 108.814636Z" style="fill: rgb(100.000000%,100.000000%,100.000000%);stroke: none;"></path>
  <path d="M174.390915 81.955536C177.510818 91.256790,177.542191 100.545609,171.860336 108.814636C168.188782 114.157990,162.579926 117.497253,157.041840 120.890366" style="stroke:rgb(0.000000%,0.000000%,0.000000%); stroke-width: 0.498138;stroke-linecap: round;stroke-linejoin: round;stroke-miterlimit: 10.000000;fill: none;"></path>
  <path d="M97.215790 124.425217C97.215790 123.632523,96.900848 122.872375,96.340363 122.311905C95.779892 121.751419,95.019745 121.436478,94.227051 121.436478C93.434357 121.436478,92.674210 121.751419,92.113739 122.311905C91.553253 122.872375,91.238312 123.632523,91.238312 124.425217C91.238312 125.217911,91.553253 125.978058,92.113739 126.538528C92.674210 127.099014,93.434357 127.413956,94.227051 127.413956C95.019745 127.413956,95.779892 127.099014,96.340363 126.538528C96.900848 125.978058,97.215790 125.217911,97.215790 124.425217Z" style="fill: rgb(100.000000%,100.000000%,100.000000%);stroke: none;"></path>
  <path d="M101.344604 120.852386C99.191391 122.345657,96.721725 123.483826,94.227051 124.425217C90.794495 125.720535,87.199707 126.753067,83.797455 128.099060" style="stroke:rgb(0.000000%,0.000000%,0.000000%); stroke-width: 1.494400;stroke-linecap: round;stroke-linejoin: round;stroke-miterlimit: 10.000000;fill: none;"></path>
  <path d="M89.466782 85.268951C89.466782 84.476257,89.151840 83.716110,88.591354 83.155640C88.030884 82.595154,87.270737 82.280212,86.478043 82.280212C85.685349 82.280212,84.925201 82.595154,84.364731 83.155640C83.804245 83.716110,83.489304 84.476257,83.489304 85.268951C83.489304 86.061646,83.804245 86.821793,84.364731 87.382263C84.925201 87.942749,85.685349 88.257690,86.478043 88.257690C87.270737 88.257690,88.030884 87.942749,88.591354 87.382263C89.151840 86.821793,89.466782 86.061646,89.466782 85.268951Z" style="fill: rgb(100.000000%,100.000000%,100.000000%);stroke: none;"></path>
  <path d="M86.168686 89.337906C86.317612 87.984344,86.461670 86.630661,86.478043 85.268951C86.493668 83.969788,86.462326 82.591354,86.695251 81.363815" style="stroke:rgb(0.000000%,0.000000%,0.000000%); stroke-width: 0.498138;stroke-linecap: round;stroke-linejoin: round;stroke-miterlimit: 10.000000;fill: none;"></path>
  <path d="M111.615128 101.344589C111.615128 100.551895,111.300186 99.791748,110.739700 99.231277C110.179230 98.670792,109.419083 98.355850,108.626389 98.355850C107.833694 98.355850,107.073547 98.670792,106.513077 99.231277C105.952591 99.791748,105.637650 100.551895,105.637650 101.344589C105.637650 102.137283,105.952591 102.897430,106.513077 103.457901C107.073547 104.018387,107.833694 104.333328,108.626389 104.333328C109.419083 104.333328,110.179230 104.018387,110.739700 103.457901C111.300186 102.897430,111.615128 102.137283,111.615128 101.344589Z" style="fill: rgb(100.000000%,100.000000%,100.000000%);stroke: none;"></path>
  <path d="M102.716400 101.162369C104.686417 101.207535,106.656555 101.287064,108.626389 101.344589C112.505493 101.457870,116.385666 101.485733,120.265961 101.463165" style="stroke:rgb(0.000000%,0.000000%,0.000000%); stroke-width: 0.498138;stroke-linecap: round;stroke-linejoin: round;stroke-miterlimit: 10.000000;fill: none;"></path>
  <path d="M106.563568 115.148972C104.597260 118.927826,101.074844 121.392334,97.189972 123.190979" style="stroke:rgb(0.000000%,0.000000%,0.000000%); stroke-width: 0.498138;stroke-linecap: round;stroke-linejoin: round;stroke-miterlimit: 10.000000;fill: none;"></path>
  <path d="M100.258698 119.243362C99.382050 120.638824,98.331680 121.951813,97.189972 123.190979C98.873520 123.122101,100.544647 122.936432,102.151306 122.569595Z" style="stroke:rgb(0.000000%,0.000000%,0.000000%); stroke-width: 0.498138;fill: rgb(0.000000%,0.000000%,0.000000%);"></path>
  <path d="M106.563568 115.148972C104.597260 118.927826,101.074844 121.392334,97.189972 123.190979" style="stroke:rgb(0.000000%,0.000000%,0.000000%); stroke-width: 0.498138;stroke-linecap: round;stroke-linejoin: round;stroke-miterlimit: 10.000000;fill: none;"></path>
  <path d="M99.118179 120.892715C98.519623 121.686295,97.871048 122.451767,97.189972 123.190979C98.194260 123.149887,99.194153 123.067245,100.178543 122.929367Z" style="stroke:rgb(0.000000%,0.000000%,0.000000%); stroke-width: 0.498138;fill: rgb(0.000000%,0.000000%,0.000000%);"></path>
  <path d="M74.155472 46.365128C84.263855 44.069336,91.415375 35.635818,100.205215 30.470230" style="stroke:rgb(0.000000%,0.000000%,0.000000%); stroke-width: 0.498138;stroke-linecap: round;stroke-linejoin: round;stroke-miterlimit: 10.000000;fill: none;"></path>
  <path d="M98.473907 32.920547C99.029449 32.085205,99.604095 31.266266,100.205215 30.470230C99.217285 30.608063,98.231873 30.780762,97.248352 30.978592Z" style="stroke:rgb(0.000000%,0.000000%,0.000000%); stroke-width: 0.498138;fill: rgb(0.000000%,0.000000%,0.000000%);"></path>
  <path d="M142.648010 133.289215C137.406784 141.887512,138.955185 152.518402,137.171066 162.261154" style="stroke:rgb(0.000000%,0.000000%,0.000000%); stroke-width: 0.498138;stroke-linecap: round;stroke-linejoin: round;stroke-miterlimit: 10.000000;fill: none;"></path>
  <path d="M136.449646 159.349380C136.717636 160.316162,136.961670 161.286362,137.171066 162.261154C137.712311 161.423813,138.225784 160.565247,138.719910 159.692123Z" style="stroke:rgb(0.000000%,0.000000%,0.000000%); stroke-width: 0.498138;fill: rgb(0.000000%,0.000000%,0.000000%);"></path>
  <path d="M54.226562 110.696747C57.240295 107.172684,60.084442 103.469162,63.422363 100.273758" style="stroke:rgb(0.000000%,0.000000%,0.000000%); stroke-width: 0.498138;stroke-linecap: round;stroke-linejoin: round;stroke-miterlimit: 10.000000;fill: none;"></path>
  <path d="M62.296890 103.054733C62.647507 102.117188,63.019699 101.188919,63.422363 100.273758C62.490524 100.636124,61.570938 101.029327,60.660080 101.444321Z" style="stroke:rgb(0.000000%,0.000000%,0.000000%); stroke-width: 0.498138;fill: rgb(0.000000%,0.000000%,0.000000%);"></path>
  <path d="M70.042572 92.666077C70.133057 90.808258,68.936584 89.341522,67.605270 87.986420" style="stroke:rgb(0.000000%,0.000000%,0.000000%); stroke-width: 0.498138;stroke-linecap: round;stroke-linejoin: round;stroke-miterlimit: 10.000000;fill: none;"></path>
  <path d="M70.227341 89.444183C69.479538 88.838104,68.554459 88.389465,67.605270 87.986420C67.991440 88.942596,68.328323 89.913971,68.428513 90.871307Z" style="stroke:rgb(0.000000%,0.000000%,0.000000%); stroke-width: 0.498138;fill: rgb(0.000000%,0.000000%,0.000000%);"></path>
  <path d="M103.885056 62.983124C101.959045 67.667175,99.761475 72.241562,97.917526 76.954117" style="stroke:rgb(0.000000%,0.000000%,0.000000%); stroke-width: 0.498138;stroke-linecap: round;stroke-linejoin: round;stroke-miterlimit: 10.000000;fill: none;"></path>
  <path d="M97.897583 73.954254C97.892883 74.954468,97.897781 75.954437,97.917526 76.954117C98.610458 76.233276,99.314087 75.522736,100.024689 74.818848Z" style="stroke:rgb(0.000000%,0.000000%,0.000000%); stroke-width: 0.498138;fill: rgb(0.000000%,0.000000%,0.000000%);"></path>
  <path d="M60.272980 92.238297C60.174179 94.581024,62.149887 96.009506,64.357925 97.161316" style="stroke:rgb(0.000000%,0.000000%,0.000000%); stroke-width: 0.498138;stroke-linecap: round;stroke-linejoin: round;stroke-miterlimit: 10.000000;fill: none;"></path>
  <path d="M61.408813 96.610825C62.301697 96.917740,63.320297 97.069672,64.357925 97.161316C63.689041 96.362793,63.076233 95.535080,62.661896 94.686691Z" style="stroke:rgb(0.000000%,0.000000%,0.000000%); stroke-width: 0.498138;fill: rgb(0.000000%,0.000000%,0.000000%);"></path>
  <path d="M96.807129 101.186371C99.958115 101.058426,103.110474 101.162827,106.262497 101.268600" style="stroke:rgb(0.000000%,0.000000%,0.000000%); stroke-width: 0.498138;stroke-linecap: round;stroke-linejoin: round;stroke-miterlimit: 10.000000;fill: none;"></path>
  <path d="M103.456741 102.330322C104.390060 101.971756,105.326263 101.620102,106.262497 101.268600C105.351929 100.855118,104.441299 100.441757,103.527786 100.035339Z" style="stroke:rgb(0.000000%,0.000000%,0.000000%); stroke-width: 0.498138;fill: rgb(0.000000%,0.000000%,0.000000%);"></path>
  <path d="M108.289261 141.527786C104.730392 136.814392,100.912964 132.307190,97.090652 127.804489" style="stroke:rgb(0.000000%,0.000000%,0.000000%); stroke-width: 0.498138;stroke-linecap: round;stroke-linejoin: round;stroke-miterlimit: 10.000000;fill: none;"></path>
  <path d="M99.758560 129.176361L97.090652 127.804489L98.007034 130.661072Z" style="stroke:rgb(0.000000%,0.000000%,0.000000%); stroke-width: 0.498138;fill: rgb(0.000000%,0.000000%,0.000000%);"></path>
  <path d="M85.830078 93.406097C85.887436 91.228180,86.246765 89.070145,86.404968 86.899643" style="stroke:rgb(0.000000%,0.000000%,0.000000%); stroke-width: 0.498138;stroke-linecap: round;stroke-linejoin: round;stroke-miterlimit: 10.000000;fill: none;"></path>
  <path d="M87.273544 89.771149C86.993393 88.810669,86.719269 87.848267,86.404968 86.899643C85.956421 87.792664,85.469711 88.667023,84.988632 89.544250Z" style="stroke:rgb(0.000000%,0.000000%,0.000000%); stroke-width: 0.498138;fill: rgb(0.000000%,0.000000%,0.000000%);"></path>
  <path d="M71.532440 136.363846L77.513733 136.363846L77.513733 128.943451L71.532440 128.943451Z" style="fill: rgb(100.000000%,100.000000%,100.000000%);stroke: none;"></path>
  <path d="M71.532440 138.363846L77.513733 138.363846L77.513733 130.943451L71.532440 130.943451Z" style="fill: rgb(100.000000%,100.000000%,100.000000%);stroke: none;"></path>
  <g transform="translate(72.032440 136.863846)" style="fill: rgb(0.000000%,0.000000%,0.000000%);">
    <use xlink:href="#GLYPHcmr10_49"></use>
  </g>
  <path d="M0.591934 94.073792L6.573227 94.073792L6.573227 86.653397L0.591934 86.653397Z" style="fill: rgb(100.000000%,100.000000%,100.000000%);stroke: none;"></path>
  <path d="M0.591934 96.073792L6.573227 96.073792L6.573227 88.653397L0.591934 88.653397Z" style="fill: rgb(100.000000%,100.000000%,100.000000%);stroke: none;"></path>
  <g transform="translate(1.091934 94.573792)" style="fill: rgb(0.000000%,0.000000%,0.000000%);">
    <use xlink:href="#GLYPHcmr10_50"></use>
  </g>
  <path d="M155.399643 57.731918L161.380936 57.731918L161.380936 50.311523L155.399643 50.311523Z" style="fill: rgb(100.000000%,100.000000%,100.000000%);stroke: none;"></path>
  <path d="M155.399643 59.731918L161.380936 59.731918L161.380936 52.311523L155.399643 52.311523Z" style="fill: rgb(100.000000%,100.000000%,100.000000%);stroke: none;"></path>
  <g transform="translate(155.899643 58.231918)" style="fill: rgb(0.000000%,0.000000%,0.000000%);">
    <use xlink:href="#GLYPHcmr10_51"></use>
  </g>
  <path d="M73.602036 187.298340L79.583328 187.298340L79.583328 179.877945L73.602036 179.877945Z" style="fill: rgb(100.000000%,100.000000%,100.000000%);stroke: none;"></path>
  <path d="M73.602036 189.298340L79.583328 189.298340L79.583328 181.877945L73.602036 181.877945Z" style="fill: rgb(100.000000%,100.000000%,100.000000%);stroke: none;"></path>
  <g transform="translate(74.102036 187.798340)" style="fill: rgb(0.000000%,0.000000%,0.000000%);">
    <use xlink:href="#GLYPHcmr10_52"></use>
  </g>
  <path d="M52.574066 75.142517L58.555359 75.142517L58.555359 67.722122L52.574066 67.722122Z" style="fill: rgb(100.000000%,100.000000%,100.000000%);stroke: none;"></path>
  <path d="M52.574066 77.142517L58.555359 77.142517L58.555359 69.722122L52.574066 69.722122Z" style="fill: rgb(100.000000%,100.000000%,100.000000%);stroke: none;"></path>
  <g transform="translate(53.074066 75.642517)" style="fill: rgb(0.000000%,0.000000%,0.000000%);">
    <use xlink:href="#GLYPHcmr10_53"></use>
  </g>
  <path d="M61.176056 8.770996L67.157349 8.770996L67.157349 1.350601L61.176056 1.350601Z" style="fill: rgb(100.000000%,100.000000%,100.000000%);stroke: none;"></path>
  <path d="M61.176056 10.770996L67.157349 10.770996L67.157349 3.350601L61.176056 3.350601Z" style="fill: rgb(100.000000%,100.000000%,100.000000%);stroke: none;"></path>
  <g transform="translate(61.676056 9.270996)" style="fill: rgb(0.000000%,0.000000%,0.000000%);">
    <use xlink:href="#GLYPHcmr10_54"></use>
  </g>
  <path d="M73.551239 86.145065L79.532532 86.145065L79.532532 78.724670L73.551239 78.724670Z" style="fill: rgb(100.000000%,100.000000%,100.000000%);stroke: none;"></path>
  <path d="M73.551239 88.145065L79.532532 88.145065L79.532532 80.724670L73.551239 80.724670Z" style="fill: rgb(100.000000%,100.000000%,100.000000%);stroke: none;"></path>
  <g transform="translate(74.051239 86.645065)" style="fill: rgb(0.000000%,0.000000%,0.000000%);">
    <use xlink:href="#GLYPHcmr10_55"></use>
  </g>
  <path d="M72.502182 105.177750L78.483475 105.177750L78.483475 97.757355L72.502182 97.757355Z" style="fill: rgb(100.000000%,100.000000%,100.000000%);stroke: none;"></path>
  <path d="M72.502182 107.177750L78.483475 107.177750L78.483475 99.757355L72.502182 99.757355Z" style="fill: rgb(100.000000%,100.000000%,100.000000%);stroke: none;"></path>
  <g transform="translate(73.002182 105.677750)" style="fill: rgb(0.000000%,0.000000%,0.000000%);">
    <use xlink:href="#GLYPHcmr10_56"></use>
  </g>
  <path d="M128.915634 103.989426L134.896927 103.989426L134.896927 96.569031L128.915634 96.569031Z" style="fill: rgb(100.000000%,100.000000%,100.000000%);stroke: none;"></path>
  <path d="M128.915634 105.989426L134.896927 105.989426L134.896927 98.569031L128.915634 98.569031Z" style="fill: rgb(100.000000%,100.000000%,100.000000%);stroke: none;"></path>
  <g transform="translate(129.415634 104.489426)" style="fill: rgb(0.000000%,0.000000%,0.000000%);">
    <use xlink:href="#GLYPHcmr10_57"></use>
  </g>
  <path d="M176.628571 156.369080L187.591278 156.369080L187.591278 148.948685L176.628571 148.948685Z" style="fill: rgb(100.000000%,100.000000%,100.000000%);stroke: none;"></path>
  <path d="M176.628571 158.369080L187.591278 158.369080L187.591278 150.948685L176.628571 150.948685Z" style="fill: rgb(100.000000%,100.000000%,100.000000%);stroke: none;"></path>
  <g transform="translate(177.128571 156.869080)" style="fill: rgb(0.000000%,0.000000%,0.000000%);">
    <use xlink:href="#GLYPHcmr10_49"></use>
    <use xlink:href="#GLYPHcmr10_48" x="5.000095"></use>
  </g>
  <path d="M81.790894 115.891785L92.753601 115.891785L92.753601 108.471390L81.790894 108.471390Z" style="fill: rgb(100.000000%,100.000000%,100.000000%);stroke: none;"></path>
  <path d="M81.790894 117.891785L92.753601 117.891785L92.753601 110.471390L81.790894 110.471390Z" style="fill: rgb(100.000000%,100.000000%,100.000000%);stroke: none;"></path>
  <g transform="translate(82.290894 116.391785)" style="fill: rgb(0.000000%,0.000000%,0.000000%);">
    <use xlink:href="#GLYPHcmr10_49"></use>
    <use xlink:href="#GLYPHcmr10_49" x="5.000095"></use>
  </g>
  <path d="M101.361755 90.773621L112.324463 90.773621L112.324463 83.353226L101.361755 83.353226Z" style="fill: rgb(100.000000%,100.000000%,100.000000%);stroke: none;"></path>
  <path d="M101.361755 92.773621L112.324463 92.773621L112.324463 85.353226L101.361755 85.353226Z" style="fill: rgb(100.000000%,100.000000%,100.000000%);stroke: none;"></path>
  <g transform="translate(101.861755 91.273621)" style="fill: rgb(0.000000%,0.000000%,0.000000%);">
    <use xlink:href="#GLYPHcmr10_49"></use>
    <use xlink:href="#GLYPHcmr10_50" x="5.000095"></use>
  </g>
</svg>
