<?xml version="1.0"?>
<!-- Created by MetaPost 1.999 on 2021.07.06:0010 -->
<svg version="1.1" xmlns="http://www.w3.org/2000/svg" xmlns:xlink="http://www.w3.org/1999/xlink" width="193.629471" height="194.865173" viewBox="0 0 193.629471 194.865173">
<!-- Original BoundingBox: -35.378891 -50.965347 158.250580 143.899826 -->
  <defs>
    <g transform="scale(0.009963,0.009963)" id="GLYPHcmr10_48">
      <path style="fill-rule: evenodd;" d="M460.000000 -320.000000C460.000000 -400.000000,455.000000 -480.000000,420.000000 -554.000000C374.000000 -650.000000,292.000000 -666.000000,250.000000 -666.000000C190.000000 -666.000000,117.000000 -640.000000,76.000000 -547.000000C44.000000 -478.000000,39.000000 -400.000000,39.000000 -320.000000C39.000000 -245.000000,43.000000 -155.000000,84.000000 -79.000000C127.000000 2.000000,200.000000 22.000000,249.000000 22.000000C303.000000 22.000000,379.000000 1.000000,423.000000 -94.000000C455.000000 -163.000000,460.000000 -241.000000,460.000000 -320.000000M249.000000 -0.000000C210.000000 -0.000000,151.000000 -25.000000,133.000000 -121.000000C122.000000 -181.000000,122.000000 -273.000000,122.000000 -332.000000C122.000000 -396.000000,122.000000 -462.000000,130.000000 -516.000000C149.000000 -635.000000,224.000000 -644.000000,249.000000 -644.000000C282.000000 -644.000000,348.000000 -626.000000,367.000000 -527.000000C377.000000 -471.000000,377.000000 -395.000000,377.000000 -332.000000C377.000000 -257.000000,377.000000 -189.000000,366.000000 -125.000000C351.000000 -30.000000,294.000000 -0.000000,249.000000 -0.000000"></path>
    </g>
    <g transform="scale(0.009963,0.009963)" id="GLYPHcmr10_49">
      <path style="fill-rule: evenodd;" d="M294.000000 -640.000000C294.000000 -664.000000,294.000000 -666.000000,271.000000 -666.000000C209.000000 -602.000000,121.000000 -602.000000,89.000000 -602.000000L89.000000 -571.000000C109.000000 -571.000000,168.000000 -571.000000,220.000000 -597.000000L220.000000 -79.000000C220.000000 -43.000000,217.000000 -31.000000,127.000000 -31.000000L95.000000 -31.000000L95.000000 -0.000000L257.000000 -0.000000L130.000000 -3.000000L217.000000 -3.000000L257.000000 -3.000000L297.000000 -3.000000L384.000000 -3.000000L419.000000 -0.000000L419.000000 -31.000000L387.000000 -31.000000C297.000000 -31.000000,294.000000 -42.000000,294.000000 -79.000000"></path>
    </g>
    <g transform="scale(0.009963,0.009963)" id="GLYPHcmr10_50">
      <path style="fill-rule: evenodd;" d="M127.000000 -77.000000L233.000000 -180.000000C389.000000 -318.000000,449.000000 -372.000000,449.000000 -472.000000C449.000000 -586.000000,359.000000 -666.000000,237.000000 -666.000000C124.000000 -666.000000,50.000000 -574.000000,50.000000 -485.000000C50.000000 -429.000000,100.000000 -429.000000,103.000000 -429.000000C120.000000 -429.000000,155.000000 -441.000000,155.000000 -482.000000C155.000000 -508.000000,137.000000 -534.000000,102.000000 -534.000000C94.000000 -534.000000,92.000000 -534.000000,89.000000 -533.000000C112.000000 -598.000000,166.000000 -635.000000,224.000000 -635.000000C315.000000 -635.000000,358.000000 -554.000000,358.000000 -472.000000C358.000000 -392.000000,308.000000 -313.000000,253.000000 -251.000000L61.000000 -37.000000C50.000000 -26.000000,50.000000 -24.000000,50.000000 -0.000000L421.000000 -0.000000L449.000000 -174.000000L424.000000 -174.000000C419.000000 -144.000000,412.000000 -100.000000,402.000000 -85.000000C395.000000 -77.000000,329.000000 -77.000000,307.000000 -77.000000"></path>
    </g>
    <g transform="scale(0.009963,0.009963)" id="GLYPHcmr10_51">
      <path style="fill-rule: evenodd;" d="M290.000000 -352.000000C372.000000 -379.000000,430.000000 -449.000000,430.000000 -528.000000C430.000000 -610.000000,342.000000 -666.000000,246.000000 -666.000000C145.000000 -666.000000,69.000000 -606.000000,69.000000 -530.000000C69.000000 -497.000000,91.000000 -478.000000,120.000000 -478.000000C151.000000 -478.000000,171.000000 -500.000000,171.000000 -529.000000C171.000000 -579.000000,124.000000 -579.000000,109.000000 -579.000000C140.000000 -628.000000,206.000000 -641.000000,242.000000 -641.000000C283.000000 -641.000000,338.000000 -619.000000,338.000000 -529.000000C338.000000 -517.000000,336.000000 -459.000000,310.000000 -415.000000C280.000000 -367.000000,246.000000 -364.000000,221.000000 -363.000000C213.000000 -362.000000,189.000000 -360.000000,182.000000 -360.000000C174.000000 -359.000000,167.000000 -358.000000,167.000000 -348.000000C167.000000 -337.000000,174.000000 -337.000000,191.000000 -337.000000L235.000000 -337.000000C317.000000 -337.000000,354.000000 -269.000000,354.000000 -171.000000C354.000000 -35.000000,285.000000 -6.000000,241.000000 -6.000000C198.000000 -6.000000,123.000000 -23.000000,88.000000 -82.000000C123.000000 -77.000000,154.000000 -99.000000,154.000000 -137.000000C154.000000 -173.000000,127.000000 -193.000000,98.000000 -193.000000C74.000000 -193.000000,42.000000 -179.000000,42.000000 -135.000000C42.000000 -44.000000,135.000000 22.000000,244.000000 22.000000C366.000000 22.000000,457.000000 -69.000000,457.000000 -171.000000C457.000000 -253.000000,394.000000 -331.000000,290.000000 -352.000000"></path>
    </g>
    <g transform="scale(0.009963,0.009963)" id="GLYPHcmr10_52">
      <path style="fill-rule: evenodd;" d="M294.000000 -165.000000L294.000000 -78.000000C294.000000 -42.000000,292.000000 -31.000000,218.000000 -31.000000L197.000000 -31.000000L197.000000 -0.000000L332.000000 -0.000000L238.000000 -3.000000L290.000000 -3.000000L332.000000 -3.000000L374.000000 -3.000000L427.000000 -3.000000L468.000000 -0.000000L468.000000 -31.000000L447.000000 -31.000000C373.000000 -31.000000,371.000000 -42.000000,371.000000 -78.000000L371.000000 -165.000000L471.000000 -165.000000L471.000000 -196.000000L371.000000 -196.000000L371.000000 -651.000000C371.000000 -671.000000,371.000000 -677.000000,355.000000 -677.000000C346.000000 -677.000000,343.000000 -677.000000,335.000000 -665.000000L28.000000 -196.000000L28.000000 -165.000000M300.000000 -196.000000L56.000000 -196.000000L300.000000 -569.000000"></path>
    </g>
    <g transform="scale(0.009963,0.009963)" id="GLYPHcmr10_53">
      <path style="fill-rule: evenodd;" d="M449.000000 -201.000000C449.000000 -320.000000,367.000000 -420.000000,259.000000 -420.000000C211.000000 -420.000000,168.000000 -404.000000,132.000000 -369.000000L132.000000 -564.000000C152.000000 -558.000000,185.000000 -551.000000,217.000000 -551.000000C340.000000 -551.000000,410.000000 -642.000000,410.000000 -655.000000C410.000000 -661.000000,407.000000 -666.000000,400.000000 -666.000000C399.000000 -666.000000,397.000000 -666.000000,392.000000 -663.000000C372.000000 -654.000000,323.000000 -634.000000,256.000000 -634.000000C216.000000 -634.000000,170.000000 -641.000000,123.000000 -662.000000C115.000000 -665.000000,113.000000 -665.000000,111.000000 -665.000000C101.000000 -665.000000,101.000000 -657.000000,101.000000 -641.000000L101.000000 -345.000000C101.000000 -327.000000,101.000000 -319.000000,115.000000 -319.000000C122.000000 -319.000000,124.000000 -322.000000,128.000000 -328.000000C139.000000 -344.000000,176.000000 -398.000000,257.000000 -398.000000C309.000000 -398.000000,334.000000 -352.000000,342.000000 -334.000000C358.000000 -297.000000,360.000000 -258.000000,360.000000 -208.000000C360.000000 -173.000000,360.000000 -113.000000,336.000000 -71.000000C312.000000 -32.000000,275.000000 -6.000000,229.000000 -6.000000C156.000000 -6.000000,99.000000 -59.000000,82.000000 -118.000000C85.000000 -117.000000,88.000000 -116.000000,99.000000 -116.000000C132.000000 -116.000000,149.000000 -141.000000,149.000000 -165.000000C149.000000 -189.000000,132.000000 -214.000000,99.000000 -214.000000C85.000000 -214.000000,50.000000 -207.000000,50.000000 -161.000000C50.000000 -75.000000,119.000000 22.000000,231.000000 22.000000C347.000000 22.000000,449.000000 -74.000000,449.000000 -201.000000"></path>
    </g>
    <g transform="scale(0.009963,0.009963)" id="GLYPHcmr10_54">
      <path style="fill-rule: evenodd;" d="M132.000000 -328.000000L132.000000 -352.000000C132.000000 -605.000000,256.000000 -641.000000,307.000000 -641.000000C331.000000 -641.000000,373.000000 -635.000000,395.000000 -601.000000C380.000000 -601.000000,340.000000 -601.000000,340.000000 -556.000000C340.000000 -525.000000,364.000000 -510.000000,386.000000 -510.000000C402.000000 -510.000000,432.000000 -519.000000,432.000000 -558.000000C432.000000 -618.000000,388.000000 -666.000000,305.000000 -666.000000C177.000000 -666.000000,42.000000 -537.000000,42.000000 -316.000000C42.000000 -49.000000,158.000000 22.000000,251.000000 22.000000C362.000000 22.000000,457.000000 -72.000000,457.000000 -204.000000C457.000000 -331.000000,368.000000 -427.000000,257.000000 -427.000000C189.000000 -427.000000,152.000000 -376.000000,132.000000 -328.000000M251.000000 -6.000000C188.000000 -6.000000,158.000000 -66.000000,152.000000 -81.000000C134.000000 -128.000000,134.000000 -208.000000,134.000000 -226.000000C134.000000 -304.000000,166.000000 -404.000000,256.000000 -404.000000C272.000000 -404.000000,318.000000 -404.000000,349.000000 -342.000000C367.000000 -305.000000,367.000000 -254.000000,367.000000 -205.000000C367.000000 -157.000000,367.000000 -107.000000,350.000000 -71.000000C320.000000 -11.000000,274.000000 -6.000000,251.000000 -6.000000"></path>
    </g>
    <g transform="scale(0.009963,0.009963)" id="GLYPHcmr10_55">
      <path style="fill-rule: evenodd;" d="M476.000000 -609.000000C485.000000 -621.000000,485.000000 -623.000000,485.000000 -644.000000L242.000000 -644.000000C120.000000 -644.000000,118.000000 -657.000000,114.000000 -676.000000L89.000000 -676.000000L56.000000 -470.000000L81.000000 -470.000000C84.000000 -486.000000,93.000000 -549.000000,106.000000 -561.000000C113.000000 -567.000000,191.000000 -567.000000,204.000000 -567.000000L411.000000 -567.000000C400.000000 -551.000000,321.000000 -442.000000,299.000000 -409.000000C209.000000 -274.000000,176.000000 -135.000000,176.000000 -33.000000C176.000000 -23.000000,176.000000 22.000000,222.000000 22.000000C268.000000 22.000000,268.000000 -23.000000,268.000000 -33.000000L268.000000 -84.000000C268.000000 -139.000000,271.000000 -194.000000,279.000000 -248.000000C283.000000 -271.000000,297.000000 -357.000000,341.000000 -419.000000"></path>
    </g>
    <g transform="scale(0.009963,0.009963)" id="GLYPHcmr10_56">
      <path style="fill-rule: evenodd;" d="M163.000000 -457.000000C117.000000 -487.000000,113.000000 -521.000000,113.000000 -538.000000C113.000000 -599.000000,178.000000 -641.000000,249.000000 -641.000000C322.000000 -641.000000,386.000000 -589.000000,386.000000 -517.000000C386.000000 -460.000000,347.000000 -412.000000,287.000000 -377.000000M309.000000 -362.000000C381.000000 -399.000000,430.000000 -451.000000,430.000000 -517.000000C430.000000 -609.000000,341.000000 -666.000000,250.000000 -666.000000C150.000000 -666.000000,69.000000 -592.000000,69.000000 -499.000000C69.000000 -481.000000,71.000000 -436.000000,113.000000 -389.000000C124.000000 -377.000000,161.000000 -352.000000,186.000000 -335.000000C128.000000 -306.000000,42.000000 -250.000000,42.000000 -151.000000C42.000000 -45.000000,144.000000 22.000000,249.000000 22.000000C362.000000 22.000000,457.000000 -61.000000,457.000000 -168.000000C457.000000 -204.000000,446.000000 -249.000000,408.000000 -291.000000C389.000000 -312.000000,373.000000 -322.000000,309.000000 -362.000000M209.000000 -320.000000L332.000000 -242.000000C360.000000 -223.000000,407.000000 -193.000000,407.000000 -132.000000C407.000000 -58.000000,332.000000 -6.000000,250.000000 -6.000000C164.000000 -6.000000,92.000000 -68.000000,92.000000 -151.000000C92.000000 -209.000000,124.000000 -273.000000,209.000000 -320.000000"></path>
    </g>
    <g transform="scale(0.009963,0.009963)" id="GLYPHcmr10_57">
      <path style="fill-rule: evenodd;" d="M367.000000 -318.000000L367.000000 -286.000000C367.000000 -52.000000,263.000000 -6.000000,205.000000 -6.000000C188.000000 -6.000000,134.000000 -8.000000,107.000000 -42.000000C151.000000 -42.000000,159.000000 -71.000000,159.000000 -88.000000C159.000000 -119.000000,135.000000 -134.000000,113.000000 -134.000000C97.000000 -134.000000,67.000000 -125.000000,67.000000 -86.000000C67.000000 -19.000000,121.000000 22.000000,206.000000 22.000000C335.000000 22.000000,457.000000 -114.000000,457.000000 -329.000000C457.000000 -598.000000,342.000000 -666.000000,253.000000 -666.000000C198.000000 -666.000000,149.000000 -648.000000,106.000000 -603.000000C65.000000 -558.000000,42.000000 -516.000000,42.000000 -441.000000C42.000000 -316.000000,130.000000 -218.000000,242.000000 -218.000000C303.000000 -218.000000,344.000000 -260.000000,367.000000 -318.000000M243.000000 -241.000000C227.000000 -241.000000,181.000000 -241.000000,150.000000 -304.000000C132.000000 -341.000000,132.000000 -391.000000,132.000000 -440.000000C132.000000 -494.000000,132.000000 -541.000000,153.000000 -578.000000C180.000000 -628.000000,218.000000 -641.000000,253.000000 -641.000000C299.000000 -641.000000,332.000000 -607.000000,349.000000 -562.000000C361.000000 -530.000000,365.000000 -467.000000,365.000000 -421.000000C365.000000 -338.000000,331.000000 -241.000000,243.000000 -241.000000"></path>
    </g>
  </defs>
  <path d="M64.558319 142.526840C64.558319 141.734146,64.243378 140.973999,63.682892 140.413528C63.122421 139.853043,62.362274 139.538101,61.569580 139.538101C60.776886 139.538101,60.016739 139.853043,59.456268 140.413528C58.895782 140.973999,58.580841 141.734146,58.580841 142.526840C58.580841 143.319534,58.895782 144.079681,59.456268 144.640152C60.016739 145.200638,60.776886 145.515579,61.569580 145.515579C62.362274 145.515579,63.122421 145.200638,63.682892 144.640152C64.243378 144.079681,64.558319 143.319534,64.558319 142.526840Z" style="fill: rgb(100.000000%,100.000000%,100.000000%);stroke: none;"></path>
  <path d="M73.208832 132.400131C73.208832 131.607437,72.893890 130.847290,72.333405 130.286819C71.772934 129.726334,71.012787 129.411392,70.220093 129.411392C69.427399 129.411392,68.667252 129.726334,68.106781 130.286819C67.546295 130.847290,67.231354 131.607437,67.231354 132.400131C67.231354 133.192825,67.546295 133.952972,68.106781 134.513443C68.667252 135.073929,69.427399 135.388870,70.220093 135.388870C71.012787 135.388870,71.772934 135.073929,72.333405 134.513443C72.893890 133.952972,73.208832 133.192825,73.208832 132.400131Z" style="fill: rgb(100.000000%,100.000000%,100.000000%);stroke: none;"></path>
  <path d="M17.652710 137.170410C17.652710 136.377716,17.337769 135.617569,16.777283 135.057098C16.216812 134.496613,15.456665 134.181671,14.663971 134.181671C13.871277 134.181671,13.111130 134.496613,12.550659 135.057098C11.990173 135.617569,11.675232 136.377716,11.675232 137.170410C11.675232 137.963104,11.990173 138.723251,12.550659 139.283722C13.111130 139.844208,13.871277 140.159149,14.663971 140.159149C15.456665 140.159149,16.216812 139.844208,16.777283 139.283722C17.337769 138.723251,17.652710 137.963104,17.652710 137.170410Z" style="fill: rgb(100.000000%,100.000000%,100.000000%);stroke: none;"></path>
  <path d="M50.791550 146.670090C50.791550 145.877396,50.476608 145.117249,49.916122 144.556778C49.355652 143.996292,48.595505 143.681351,47.802811 143.681351C47.010117 143.681351,46.249969 143.996292,45.689499 144.556778C45.129013 145.117249,44.814072 145.877396,44.814072 146.670090C44.814072 147.462784,45.129013 148.222931,45.689499 148.783401C46.249969 149.343887,47.010117 149.658829,47.802811 149.658829C48.595505 149.658829,49.355652 149.343887,49.916122 148.783401C50.476608 148.222931,50.791550 147.462784,50.791550 146.670090Z" style="fill: rgb(100.000000%,100.000000%,100.000000%);stroke: none;"></path>
  <path d="M5.598587 70.902557C5.598587 70.109863,5.283646 69.349716,4.723160 68.789246C4.162689 68.228760,3.402542 67.913818,2.609848 67.913818C1.817154 67.913818,1.057007 68.228760,0.496536 68.789246C-0.063950 69.349716,-0.378891 70.109863,-0.378891 70.902557C-0.378891 71.695251,-0.063950 72.455399,0.496536 73.015869C1.057007 73.576355,1.817154 73.891296,2.609848 73.891296C3.402542 73.891296,4.162689 73.576355,4.723160 73.015869C5.283646 72.455399,5.598587 71.695251,5.598587 70.902557Z" style="fill: rgb(100.000000%,100.000000%,100.000000%);stroke: none;"></path>
  <path d="M7.289230 115.848129C7.289230 115.055435,6.974289 114.295288,6.413803 113.734818C5.853333 113.174332,5.093185 112.859390,4.300491 112.859390C3.507797 112.859390,2.747650 113.174332,2.187180 113.734818C1.626694 114.295288,1.311752 115.055435,1.311752 115.848129C1.311752 116.640823,1.626694 117.400970,2.187180 117.961441C2.747650 118.521927,3.507797 118.836868,4.300491 118.836868C5.093185 118.836868,5.853333 118.521927,6.413803 117.961441C6.974289 117.400970,7.289230 116.640823,7.289230 115.848129Z" style="fill: rgb(100.000000%,100.000000%,100.000000%);stroke: none;"></path>
  <path d="M51.370758 43.880402C51.370758 43.087708,51.055817 42.327560,50.495331 41.767090C49.934860 41.206604,49.174713 40.891663,48.382019 40.891663C47.589325 40.891663,46.829178 41.206604,46.268707 41.767090C45.708221 42.327560,45.393280 43.087708,45.393280 43.880402C45.393280 44.673096,45.708221 45.433243,46.268707 45.993713C46.829178 46.554199,47.589325 46.869141,48.382019 46.869141C49.174713 46.869141,49.934860 46.554199,50.495331 45.993713C51.055817 45.433243,51.370758 44.673096,51.370758 43.880402Z" style="fill: rgb(100.000000%,100.000000%,100.000000%);stroke: none;"></path>
  <path d="M16.624802 47.958786C16.624802 47.166092,16.309860 46.405945,15.749374 45.845474C15.188904 45.284988,14.428757 44.970047,13.636063 44.970047C12.843369 44.970047,12.083221 45.284988,11.522751 45.845474C10.962265 46.405945,10.647324 47.166092,10.647324 47.958786C10.647324 48.751480,10.962265 49.511627,11.522751 50.072098C12.083221 50.632584,12.843369 50.947525,13.636063 50.947525C14.428757 50.947525,15.188904 50.632584,15.749374 50.072098C16.309860 49.511627,16.624802 48.751480,16.624802 47.958786Z" style="fill: rgb(100.000000%,100.000000%,100.000000%);stroke: none;"></path>
  <path d="M90.376526 45.824646C90.376526 45.031952,90.061584 44.271805,89.501099 43.711334C88.940628 43.150848,88.180481 42.835907,87.387787 42.835907C86.595093 42.835907,85.834946 43.150848,85.274475 43.711334C84.713989 44.271805,84.399048 45.031952,84.399048 45.824646C84.399048 46.617340,84.713989 47.377487,85.274475 47.937958C85.834946 48.498444,86.595093 48.813385,87.387787 48.813385C88.180481 48.813385,88.940628 48.498444,89.501099 47.937958C90.061584 47.377487,90.376526 46.617340,90.376526 45.824646Z" style="fill: rgb(100.000000%,100.000000%,100.000000%);stroke: none;"></path>
  <path d="M64.408722 52.803589C64.408722 52.010895,64.093781 51.250748,63.533295 50.690277C62.972824 50.129791,62.212677 49.814850,61.419983 49.814850C60.627289 49.814850,59.867142 50.129791,59.306671 50.690277C58.746185 51.250748,58.431244 52.010895,58.431244 52.803589C58.431244 53.596283,58.746185 54.356430,59.306671 54.916901C59.867142 55.477386,60.627289 55.792328,61.419983 55.792328C62.212677 55.792328,62.972824 55.477386,63.533295 54.916901C64.093781 54.356430,64.408722 53.596283,64.408722 52.803589Z" style="fill: rgb(100.000000%,100.000000%,100.000000%);stroke: none;"></path>
  <path d="M129.313934 20.826859C129.313934 20.034164,128.998993 19.274017,128.438507 18.713547C127.878036 18.153061,127.117889 17.838120,126.325195 17.838120C125.532501 17.838120,124.772354 18.153061,124.211884 18.713547C123.651398 19.274017,123.336456 20.034164,123.336456 20.826859C123.336456 21.619553,123.651398 22.379700,124.211884 22.940170C124.772354 23.500656,125.532501 23.815598,126.325195 23.815598C127.117889 23.815598,127.878036 23.500656,128.438507 22.940170C128.998993 22.379700,129.313934 21.619553,129.313934 20.826859Z" style="fill: rgb(100.000000%,100.000000%,100.000000%);stroke: none;"></path>
  <path d="M97.379578 31.971512C97.379578 31.178818,97.064636 30.418671,96.504150 29.858200C95.943680 29.297714,95.183533 28.982773,94.390839 28.982773C93.598145 28.982773,92.837997 29.297714,92.277527 29.858200C91.717041 30.418671,91.402100 31.178818,91.402100 31.971512C91.402100 32.764206,91.717041 33.524353,92.277527 34.084824C92.837997 34.645309,93.598145 34.960251,94.390839 34.960251C95.183533 34.960251,95.943680 34.645309,96.504150 34.084824C97.064636 33.524353,97.379578 32.764206,97.379578 31.971512Z" style="fill: rgb(100.000000%,100.000000%,100.000000%);stroke: none;"></path>
  <path d="M173.777634 70.928284C173.777634 70.135590,173.462692 69.375443,172.902206 68.814972C172.341736 68.254486,171.581589 67.939545,170.788895 67.939545C169.996201 67.939545,169.236053 68.254486,168.675583 68.814972C168.115097 69.375443,167.800156 70.135590,167.800156 70.928284C167.800156 71.720978,168.115097 72.481125,168.675583 73.041595C169.236053 73.602081,169.996201 73.917023,170.788895 73.917023C171.581589 73.917023,172.341736 73.602081,172.902206 73.041595C173.462692 72.481125,173.777634 71.720978,173.777634 70.928284Z" style="fill: rgb(100.000000%,100.000000%,100.000000%);stroke: none;"></path>
  <path d="M146.834930 37.302689C146.834930 36.509995,146.519989 35.749847,145.959503 35.189377C145.399033 34.628891,144.638885 34.313950,143.846191 34.313950C143.053497 34.313950,142.293350 34.628891,141.732880 35.189377C141.172394 35.749847,140.857452 36.509995,140.857452 37.302689C140.857452 38.095383,141.172394 38.855530,141.732880 39.416000C142.293350 39.976486,143.053497 40.291428,143.846191 40.291428C144.638885 40.291428,145.399033 39.976486,145.959503 39.416000C146.519989 38.855530,146.834930 38.095383,146.834930 37.302689Z" style="fill: rgb(100.000000%,100.000000%,100.000000%);stroke: none;"></path>
  <path d="M168.155487 118.796173C168.155487 118.003479,167.840546 117.243332,167.280060 116.682861C166.719589 116.122375,165.959442 115.807434,165.166748 115.807434C164.374054 115.807434,163.613907 116.122375,163.053436 116.682861C162.492950 117.243332,162.178009 118.003479,162.178009 118.796173C162.178009 119.588867,162.492950 120.349014,163.053436 120.909485C163.613907 121.469971,164.374054 121.784912,165.166748 121.784912C165.959442 121.784912,166.719589 121.469971,167.280060 120.909485C167.840546 120.349014,168.155487 119.588867,168.155487 118.796173Z" style="fill: rgb(100.000000%,100.000000%,100.000000%);stroke: none;"></path>
  <path d="M185.743179 91.357712C185.743179 90.565018,185.428238 89.804871,184.867752 89.244400C184.307281 88.683914,183.547134 88.368973,182.754440 88.368973C181.961746 88.368973,181.201599 88.683914,180.641129 89.244400C180.080643 89.804871,179.765701 90.565018,179.765701 91.357712C179.765701 92.150406,180.080643 92.910553,180.641129 93.471024C181.201599 94.031509,181.961746 94.346451,182.754440 94.346451C183.547134 94.346451,184.307281 94.031509,184.867752 93.471024C185.428238 92.910553,185.743179 92.150406,185.743179 91.357712Z" style="fill: rgb(100.000000%,100.000000%,100.000000%);stroke: none;"></path>
  <path d="M141.716537 144.016327C141.716537 143.223633,141.401596 142.463486,140.841110 141.903015C140.280640 141.342529,139.520493 141.027588,138.727798 141.027588C137.935104 141.027588,137.174957 141.342529,136.614487 141.903015C136.054001 142.463486,135.739059 143.223633,135.739059 144.016327C135.739059 144.809021,136.054001 145.569168,136.614487 146.129639C137.174957 146.690125,137.935104 147.005066,138.727798 147.005066C139.520493 147.005066,140.280640 146.690125,140.841110 146.129639C141.401596 145.569168,141.716537 144.809021,141.716537 144.016327Z" style="fill: rgb(100.000000%,100.000000%,100.000000%);stroke: none;"></path>
  <path d="M154.287674 122.377716C154.287674 121.585022,153.972733 120.824875,153.412247 120.264404C152.851776 119.703918,152.091629 119.388977,151.298935 119.388977C150.506241 119.388977,149.746094 119.703918,149.185623 120.264404C148.625137 120.824875,148.310196 121.585022,148.310196 122.377716C148.310196 123.170410,148.625137 123.930557,149.185623 124.491028C149.746094 125.051514,150.506241 125.366455,151.298935 125.366455C152.091629 125.366455,152.851776 125.051514,153.412247 124.491028C153.972733 123.930557,154.287674 123.170410,154.287674 122.377716Z" style="fill: rgb(100.000000%,100.000000%,100.000000%);stroke: none;"></path>
  <path d="M131.430222 189.387146C131.430222 188.594452,131.115280 187.834305,130.554794 187.273834C129.994324 186.713348,129.234177 186.398407,128.441483 186.398407C127.648788 186.398407,126.888641 186.713348,126.328171 187.273834C125.767685 187.834305,125.452744 188.594452,125.452744 189.387146C125.452744 190.179840,125.767685 190.939987,126.328171 191.500458C126.888641 192.060944,127.648788 192.375885,128.441483 192.375885C129.234177 192.375885,129.994324 192.060944,130.554794 191.500458C131.115280 190.939987,131.430222 190.179840,131.430222 189.387146Z" style="fill: rgb(100.000000%,100.000000%,100.000000%);stroke: none;"></path>
  <path d="M145.752563 157.952133C145.752563 157.159439,145.437622 156.399292,144.877136 155.838821C144.316666 155.278336,143.556519 154.963394,142.763824 154.963394C141.971130 154.963394,141.210983 155.278336,140.650513 155.838821C140.090027 156.399292,139.775085 157.159439,139.775085 157.952133C139.775085 158.744827,140.090027 159.504974,140.650513 160.065445C141.210983 160.625931,141.971130 160.940872,142.763824 160.940872C143.556519 160.940872,144.316666 160.625931,144.877136 160.065445C145.437622 159.504974,145.752563 158.744827,145.752563 157.952133Z" style="fill: rgb(100.000000%,100.000000%,100.000000%);stroke: none;"></path>
  <path d="M60.140671 178.320633C60.140671 177.527939,59.825729 176.767792,59.265244 176.207321C58.704773 175.646835,57.944626 175.331894,57.151932 175.331894C56.359238 175.331894,55.599091 175.646835,55.038620 176.207321C54.478134 176.767792,54.163193 177.527939,54.163193 178.320633C54.163193 179.113327,54.478134 179.873474,55.038620 180.433945C55.599091 180.994431,56.359238 181.309372,57.151932 181.309372C57.944626 181.309372,58.704773 180.994431,59.265244 180.433945C59.825729 179.873474,60.140671 179.113327,60.140671 178.320633Z" style="fill: rgb(100.000000%,100.000000%,100.000000%);stroke: none;"></path>
  <path d="M105.352646 190.976608C105.352646 190.183914,105.037704 189.423767,104.477219 188.863297C103.916748 188.302811,103.156601 187.987869,102.363907 187.987869C101.571213 187.987869,100.811066 188.302811,100.250595 188.863297C99.690109 189.423767,99.375168 190.183914,99.375168 190.976608C99.375168 191.769302,99.690109 192.529449,100.250595 193.089920C100.811066 193.650406,101.571213 193.965347,102.363907 193.965347C103.156601 193.965347,103.916748 193.650406,104.477219 193.089920C105.037704 192.529449,105.352646 191.769302,105.352646 190.976608Z" style="fill: rgb(100.000000%,100.000000%,100.000000%);stroke: none;"></path>
  <path d="M37.596664 130.368271C37.596664 129.575577,37.281723 128.815430,36.721237 128.254959C36.160767 127.694473,35.400620 127.379532,34.607925 127.379532C33.815231 127.379532,33.055084 127.694473,32.494614 128.254959C31.934128 128.815430,31.619186 129.575577,31.619186 130.368271C31.619186 131.160965,31.934128 131.921112,32.494614 132.481583C33.055084 133.042068,33.815231 133.357010,34.607925 133.357010C35.400620 133.357010,36.160767 133.042068,36.721237 132.481583C37.281723 131.921112,37.596664 131.160965,37.596664 130.368271Z" style="fill: rgb(100.000000%,100.000000%,100.000000%);stroke: none;"></path>
  <path d="M38.671600 165.000565C38.671600 164.207870,38.356659 163.447723,37.796173 162.887253C37.235703 162.326767,36.475555 162.011826,35.682861 162.011826C34.890167 162.011826,34.130020 162.326767,33.569550 162.887253C33.009064 163.447723,32.694122 164.207870,32.694122 165.000565C32.694122 165.793259,33.009064 166.553406,33.569550 167.113876C34.130020 167.674362,34.890167 167.989304,35.682861 167.989304C36.475555 167.989304,37.235703 167.674362,37.796173 167.113876C38.356659 166.553406,38.671600 165.793259,38.671600 165.000565Z" style="fill: rgb(100.000000%,100.000000%,100.000000%);stroke: none;"></path>
  <path d="M59.053192 106.246109C59.053192 105.453415,58.738251 104.693268,58.177765 104.132797C57.617294 103.572311,56.857147 103.257370,56.064453 103.257370C55.271759 103.257370,54.511612 103.572311,53.951141 104.132797C53.390656 104.693268,53.075714 105.453415,53.075714 106.246109C53.075714 107.038803,53.390656 107.798950,53.951141 108.359421C54.511612 108.919907,55.271759 109.234848,56.064453 109.234848C56.857147 109.234848,57.617294 108.919907,58.177765 108.359421C58.738251 107.798950,59.053192 107.038803,59.053192 106.246109Z" style="fill: rgb(100.000000%,100.000000%,100.000000%);stroke: none;"></path>
  <path d="M45.142746 119.346130C45.142746 118.553436,44.827805 117.793289,44.267319 117.232819C43.706848 116.672333,42.946701 116.357391,42.154007 116.357391C41.361313 116.357391,40.601166 116.672333,40.040695 117.232819C39.480209 117.793289,39.165268 118.553436,39.165268 119.346130C39.165268 120.138824,39.480209 120.898972,40.040695 121.459442C40.601166 122.019928,41.361313 122.334869,42.154007 122.334869C42.946701 122.334869,43.706848 122.019928,44.267319 121.459442C44.827805 120.898972,45.142746 120.138824,45.142746 119.346130Z" style="fill: rgb(100.000000%,100.000000%,100.000000%);stroke: none;"></path>
  <path d="M73.523804 96.078171C73.523804 95.285477,73.208862 94.525330,72.648376 93.964859C72.087906 93.404373,71.327759 93.089432,70.535065 93.089432C69.742371 93.089432,68.982224 93.404373,68.421753 93.964859C67.861267 94.525330,67.546326 95.285477,67.546326 96.078171C67.546326 96.870865,67.861267 97.631012,68.421753 98.191483C68.982224 98.751968,69.742371 99.066910,70.535065 99.066910C71.327759 99.066910,72.087906 98.751968,72.648376 98.191483C73.208862 97.631012,73.523804 96.870865,73.523804 96.078171Z" style="fill: rgb(100.000000%,100.000000%,100.000000%);stroke: none;"></path>
  <path d="M64.150070 102.342712C64.150070 101.550018,63.835129 100.789871,63.274643 100.229401C62.714172 99.668915,61.954025 99.353973,61.161331 99.353973C60.368637 99.353973,59.608490 99.668915,59.048019 100.229401C58.487534 100.789871,58.172592 101.550018,58.172592 102.342712C58.172592 103.135406,58.487534 103.895554,59.048019 104.456024C59.608490 105.016510,60.368637 105.331451,61.161331 105.331451C61.954025 105.331451,62.714172 105.016510,63.274643 104.456024C63.835129 103.895554,64.150070 103.135406,64.150070 102.342712Z" style="fill: rgb(100.000000%,100.000000%,100.000000%);stroke: none;"></path>
  <path d="M86.388367 91.273483C86.388367 90.480789,86.073425 89.720642,85.512939 89.160172C84.952469 88.599686,84.192322 88.284744,83.399628 88.284744C82.606934 88.284744,81.846786 88.599686,81.286316 89.160172C80.725830 89.720642,80.410889 90.480789,80.410889 91.273483C80.410889 92.066177,80.725830 92.826324,81.286316 93.386795C81.846786 93.947281,82.606934 94.262222,83.399628 94.262222C84.192322 94.262222,84.952469 93.947281,85.512939 93.386795C86.073425 92.826324,86.388367 92.066177,86.388367 91.273483Z" style="fill: rgb(100.000000%,100.000000%,100.000000%);stroke: none;"></path>
  <path d="M77.745422 93.553925C77.745422 92.761230,77.430481 92.001083,76.869995 91.440613C76.309525 90.880127,75.549377 90.565186,74.756683 90.565186C73.963989 90.565186,73.203842 90.880127,72.643372 91.440613C72.082886 92.001083,71.767944 92.761230,71.767944 93.553925C71.767944 94.346619,72.082886 95.106766,72.643372 95.667236C73.203842 96.227722,73.963989 96.542664,74.756683 96.542664C75.549377 96.542664,76.309525 96.227722,76.869995 95.667236C77.430481 95.106766,77.745422 94.346619,77.745422 93.553925Z" style="fill: rgb(100.000000%,100.000000%,100.000000%);stroke: none;"></path>
  <path d="M96.739090 92.093140C96.739090 91.300446,96.424149 90.540298,95.863663 89.979828C95.303192 89.419342,94.543045 89.104401,93.750351 89.104401C92.957657 89.104401,92.197510 89.419342,91.637039 89.979828C91.076553 90.540298,90.761612 91.300446,90.761612 92.093140C90.761612 92.885834,91.076553 93.645981,91.637039 94.206451C92.197510 94.766937,92.957657 95.081879,93.750351 95.081879C94.543045 95.081879,95.303192 94.766937,95.863663 94.206451C96.424149 93.645981,96.739090 92.885834,96.739090 92.093140Z" style="fill: rgb(100.000000%,100.000000%,100.000000%);stroke: none;"></path>
  <path d="M90.495697 91.177521C90.495697 90.384827,90.180756 89.624680,89.620270 89.064209C89.059799 88.503723,88.299652 88.188782,87.506958 88.188782C86.714264 88.188782,85.954117 88.503723,85.393646 89.064209C84.833160 89.624680,84.518219 90.384827,84.518219 91.177521C84.518219 91.970215,84.833160 92.730362,85.393646 93.290833C85.954117 93.851318,86.714264 94.166260,87.506958 94.166260C88.299652 94.166260,89.059799 93.851318,89.620270 93.290833C90.180756 92.730362,90.495697 91.970215,90.495697 91.177521Z" style="fill: rgb(100.000000%,100.000000%,100.000000%);stroke: none;"></path>
  <path d="M102.969696 89.924011C102.969696 89.131317,102.654755 88.371170,102.094269 87.810699C101.533798 87.250214,100.773651 86.935272,99.980957 86.935272C99.188263 86.935272,98.428116 87.250214,97.867645 87.810699C97.307159 88.371170,96.992218 89.131317,96.992218 89.924011C96.992218 90.716705,97.307159 91.476852,97.867645 92.037323C98.428116 92.597809,99.188263 92.912750,99.980957 92.912750C100.773651 92.912750,101.533798 92.597809,102.094269 92.037323C102.654755 91.476852,102.969696 90.716705,102.969696 89.924011Z" style="fill: rgb(100.000000%,100.000000%,100.000000%);stroke: none;"></path>
  <path d="M99.113174 92.563431C99.113174 91.770737,98.798233 91.010590,98.237747 90.450119C97.677277 89.889633,96.917130 89.574692,96.124435 89.574692C95.331741 89.574692,94.571594 89.889633,94.011124 90.450119C93.450638 91.010590,93.135696 91.770737,93.135696 92.563431C93.135696 93.356125,93.450638 94.116272,94.011124 94.676743C94.571594 95.237228,95.331741 95.552170,96.124435 95.552170C96.917130 95.552170,97.677277 95.237228,98.237747 94.676743C98.798233 94.116272,99.113174 93.356125,99.113174 92.563431Z" style="fill: rgb(100.000000%,100.000000%,100.000000%);stroke: none;"></path>
  <path d="M104.513107 78.270523C104.513107 77.477829,104.198166 76.717682,103.637680 76.157211C103.077209 75.596725,102.317062 75.281784,101.524368 75.281784C100.731674 75.281784,99.971527 75.596725,99.411057 76.157211C98.850571 76.717682,98.535629 77.477829,98.535629 78.270523C98.535629 79.063217,98.850571 79.823364,99.411057 80.383835C99.971527 80.944321,100.731674 81.259262,101.524368 81.259262C102.317062 81.259262,103.077209 80.944321,103.637680 80.383835C104.198166 79.823364,104.513107 79.063217,104.513107 78.270523Z" style="fill: rgb(100.000000%,100.000000%,100.000000%);stroke: none;"></path>
  <path d="M103.294174 87.293304C103.294174 86.500610,102.979233 85.740463,102.418747 85.179993C101.858276 84.619507,101.098129 84.304565,100.305435 84.304565C99.512741 84.304565,98.752594 84.619507,98.192123 85.179993C97.631638 85.740463,97.316696 86.500610,97.316696 87.293304C97.316696 88.085999,97.631638 88.846146,98.192123 89.406616C98.752594 89.967102,99.512741 90.282043,100.305435 90.282043C101.098129 90.282043,101.858276 89.967102,102.418747 89.406616C102.979233 88.846146,103.294174 88.085999,103.294174 87.293304Z" style="fill: rgb(100.000000%,100.000000%,100.000000%);stroke: none;"></path>
  <path d="M112.030136 53.001328C112.030136 52.208633,111.715195 51.448486,111.154709 50.888016C110.594238 50.327530,109.834091 50.012589,109.041397 50.012589C108.248703 50.012589,107.488556 50.327530,106.928085 50.888016C106.367599 51.448486,106.052658 52.208633,106.052658 53.001328C106.052658 53.794022,106.367599 54.554169,106.928085 55.114639C107.488556 55.675125,108.248703 55.990067,109.041397 55.990067C109.834091 55.990067,110.594238 55.675125,111.154709 55.114639C111.715195 54.554169,112.030136 53.794022,112.030136 53.001328Z" style="fill: rgb(100.000000%,100.000000%,100.000000%);stroke: none;"></path>
  <path d="M106.578293 71.909882C106.578293 71.117188,106.263351 70.357040,105.702866 69.796570C105.142395 69.236084,104.382248 68.921143,103.589554 68.921143C102.796860 68.921143,102.036713 69.236084,101.476242 69.796570C100.915756 70.357040,100.600815 71.117188,100.600815 71.909882C100.600815 72.702576,100.915756 73.462723,101.476242 74.023193C102.036713 74.583679,102.796860 74.898621,103.589554 74.898621C104.382248 74.898621,105.142395 74.583679,105.702866 74.023193C106.263351 73.462723,106.578293 72.702576,106.578293 71.909882Z" style="fill: rgb(100.000000%,100.000000%,100.000000%);stroke: none;"></path>
  <path d="M103.050919 10.796860C103.050919 10.004166,102.735977 9.244019,102.175491 8.683548C101.615021 8.123062,100.854874 7.808121,100.062180 7.808121C99.269485 7.808121,98.509338 8.123062,97.948868 8.683548C97.388382 9.244019,97.073441 10.004166,97.073441 10.796860C97.073441 11.589554,97.388382 12.349701,97.948868 12.910172C98.509338 13.470657,99.269485 13.785599,100.062180 13.785599C100.854874 13.785599,101.615021 13.470657,102.175491 12.910172C102.735977 12.349701,103.050919 11.589554,103.050919 10.796860Z" style="fill: rgb(100.000000%,100.000000%,100.000000%);stroke: none;"></path>
  <path d="M114.735397 39.690903C114.735397 38.898209,114.420456 38.138062,113.859970 37.577591C113.299500 37.017105,112.539352 36.702164,111.746658 36.702164C110.953964 36.702164,110.193817 37.017105,109.633347 37.577591C109.072861 38.138062,108.757919 38.898209,108.757919 39.690903C108.757919 40.483597,109.072861 41.243744,109.633347 41.804214C110.193817 42.364700,110.953964 42.679642,111.746658 42.679642C112.539352 42.679642,113.299500 42.364700,113.859970 41.804214C114.420456 41.243744,114.735397 40.483597,114.735397 39.690903Z" style="fill: rgb(100.000000%,100.000000%,100.000000%);stroke: none;"></path>
  <path d="M48.006775 10.132294C48.006775 9.339600,47.691833 8.579453,47.131348 8.018982C46.570877 7.458496,45.810730 7.143555,45.018036 7.143555C44.225342 7.143555,43.465195 7.458496,42.904724 8.018982C42.344238 8.579453,42.029297 9.339600,42.029297 10.132294C42.029297 10.924988,42.344238 11.685135,42.904724 12.245605C43.465195 12.806091,44.225342 13.121033,45.018036 13.121033C45.810730 13.121033,46.570877 12.806091,47.131348 12.245605C47.691833 11.685135,48.006775 10.924988,48.006775 10.132294Z" style="fill: rgb(100.000000%,100.000000%,100.000000%);stroke: none;"></path>
  <path d="M84.605011 2.088913C84.605011 1.296219,84.290070 0.536072,83.729584 -0.024399C83.169113 -0.584885,82.408966 -0.899826,81.616272 -0.899826C80.823578 -0.899826,80.063431 -0.584885,79.502960 -0.024399C78.942474 0.536072,78.627533 1.296219,78.627533 2.088913C78.627533 2.881607,78.942474 3.641754,79.502960 4.202225C80.063431 4.762711,80.823578 5.077652,81.616272 5.077652C82.408966 5.077652,83.169113 4.762711,83.729584 4.202225C84.290070 3.641754,84.605011 2.881607,84.605011 2.088913Z" style="fill: rgb(100.000000%,100.000000%,100.000000%);stroke: none;"></path>
  <path d="M40.339828 58.664993C40.339828 57.872299,40.024887 57.112152,39.464401 56.551682C38.903931 55.991196,38.143784 55.676254,37.351089 55.676254C36.558395 55.676254,35.798248 55.991196,35.237778 56.551682C34.677292 57.112152,34.362350 57.872299,34.362350 58.664993C34.362350 59.457687,34.677292 60.217834,35.237778 60.778305C35.798248 61.338791,36.558395 61.653732,37.351089 61.653732C38.143784 61.653732,38.903931 61.338791,39.464401 60.778305C40.024887 60.217834,40.339828 59.457687,40.339828 58.664993Z" style="fill: rgb(100.000000%,100.000000%,100.000000%);stroke: none;"></path>
  <path d="M34.720749 27.084076C34.720749 26.291382,34.405807 25.531235,33.845322 24.970764C33.284851 24.410278,32.524704 24.095337,31.732010 24.095337C30.939316 24.095337,30.179169 24.410278,29.618698 24.970764C29.058212 25.531235,28.743271 26.291382,28.743271 27.084076C28.743271 27.876770,29.058212 28.636917,29.618698 29.197388C30.179169 29.757874,30.939316 30.072815,31.732010 30.072815C32.524704 30.072815,33.284851 29.757874,33.845322 29.197388C34.405807 28.636917,34.720749 27.876770,34.720749 27.084076Z" style="fill: rgb(100.000000%,100.000000%,100.000000%);stroke: none;"></path>
  <path d="M62.626190 85.391998C62.626190 84.599304,62.311249 83.839157,61.750763 83.278687C61.190292 82.718201,60.430145 82.403259,59.637451 82.403259C58.844757 82.403259,58.084610 82.718201,57.524139 83.278687C56.963654 83.839157,56.648712 84.599304,56.648712 85.391998C56.648712 86.184692,56.963654 86.944839,57.524139 87.505310C58.084610 88.065796,58.844757 88.380737,59.637451 88.380737C60.430145 88.380737,61.190292 88.065796,61.750763 87.505310C62.311249 86.944839,62.626190 86.184692,62.626190 85.391998Z" style="fill: rgb(100.000000%,100.000000%,100.000000%);stroke: none;"></path>
  <path d="M51.270370 67.926941C51.270370 67.134247,50.955429 66.374100,50.394943 65.813629C49.834473 65.253143,49.074326 64.938202,48.281631 64.938202C47.488937 64.938202,46.728790 65.253143,46.168320 65.813629C45.607834 66.374100,45.292892 67.134247,45.292892 67.926941C45.292892 68.719635,45.607834 69.479782,46.168320 70.040253C46.728790 70.600739,47.488937 70.915680,48.281631 70.915680C49.074326 70.915680,49.834473 70.600739,50.394943 70.040253C50.955429 69.479782,51.270370 68.719635,51.270370 67.926941Z" style="fill: rgb(100.000000%,100.000000%,100.000000%);stroke: none;"></path>
  <path d="M71.834732 102.629883C71.834732 101.837189,71.519791 101.077042,70.959305 100.516571C70.398834 99.956085,69.638687 99.641144,68.845993 99.641144C68.053299 99.641144,67.293152 99.956085,66.732681 100.516571C66.172195 101.077042,65.857254 101.837189,65.857254 102.629883C65.857254 103.422577,66.172195 104.182724,66.732681 104.743195C67.293152 105.303680,68.053299 105.618622,68.845993 105.618622C69.638687 105.618622,70.398834 105.303680,70.959305 104.743195C71.519791 104.182724,71.834732 103.422577,71.834732 102.629883Z" style="fill: rgb(100.000000%,100.000000%,100.000000%);stroke: none;"></path>
  <path d="M65.551529 92.373077C65.551529 91.580383,65.236588 90.820236,64.676102 90.259766C64.115631 89.699280,63.355484 89.384338,62.562790 89.384338C61.770096 89.384338,61.009949 89.699280,60.449478 90.259766C59.888992 90.820236,59.574051 91.580383,59.574051 92.373077C59.574051 93.165771,59.888992 93.925919,60.449478 94.486389C61.009949 95.046875,61.770096 95.361816,62.562790 95.361816C63.355484 95.361816,64.115631 95.046875,64.676102 94.486389C65.236588 93.925919,65.551529 93.165771,65.551529 92.373077Z" style="fill: rgb(100.000000%,100.000000%,100.000000%);stroke: none;"></path>
  <path d="M80.015259 112.891998C80.015259 112.099304,79.700317 111.339157,79.139832 110.778687C78.579361 110.218201,77.819214 109.903259,77.026520 109.903259C76.233826 109.903259,75.473679 110.218201,74.913208 110.778687C74.352722 111.339157,74.037781 112.099304,74.037781 112.891998C74.037781 113.684692,74.352722 114.444839,74.913208 115.005310C75.473679 115.565796,76.233826 115.880737,77.026520 115.880737C77.819214 115.880737,78.579361 115.565796,79.139832 115.005310C79.700317 114.444839,80.015259 113.684692,80.015259 112.891998Z" style="fill: rgb(100.000000%,100.000000%,100.000000%);stroke: none;"></path>
  <path d="M74.538788 106.249390C74.538788 105.456696,74.223846 104.696548,73.663361 104.136078C73.102890 103.575592,72.342743 103.260651,71.550049 103.260651C70.757355 103.260651,69.997208 103.575592,69.436737 104.136078C68.876251 104.696548,68.561310 105.456696,68.561310 106.249390C68.561310 107.042084,68.876251 107.802231,69.436737 108.362701C69.997208 108.923187,70.757355 109.238129,71.550049 109.238129C72.342743 109.238129,73.102890 108.923187,73.663361 108.362701C74.223846 107.802231,74.538788 107.042084,74.538788 106.249390Z" style="fill: rgb(100.000000%,100.000000%,100.000000%);stroke: none;"></path>
  <path d="M88.252747 122.148819C88.252747 121.356125,87.937805 120.595978,87.377319 120.035507C86.816849 119.475021,86.056702 119.160080,85.264008 119.160080C84.471313 119.160080,83.711166 119.475021,83.150696 120.035507C82.590210 120.595978,82.275269 121.356125,82.275269 122.148819C82.275269 122.941513,82.590210 123.701660,83.150696 124.262131C83.711166 124.822617,84.471313 125.137558,85.264008 125.137558C86.056702 125.137558,86.816849 124.822617,87.377319 124.262131C87.937805 123.701660,88.252747 122.941513,88.252747 122.148819Z" style="fill: rgb(100.000000%,100.000000%,100.000000%);stroke: none;"></path>
  <path d="M82.757156 115.937958C82.757156 115.145264,82.442215 114.385117,81.881729 113.824646C81.321259 113.264160,80.561111 112.949219,79.768417 112.949219C78.975723 112.949219,78.215576 113.264160,77.655106 113.824646C77.094620 114.385117,76.779678 115.145264,76.779678 115.937958C76.779678 116.730652,77.094620 117.490799,77.655106 118.051270C78.215576 118.611755,78.975723 118.926697,79.768417 118.926697C80.561111 118.926697,81.321259 118.611755,81.881729 118.051270C82.442215 117.490799,82.757156 116.730652,82.757156 115.937958Z" style="fill: rgb(100.000000%,100.000000%,100.000000%);stroke: none;"></path>
  <path d="M99.504868 126.595718C99.504868 125.803024,99.189926 125.042877,98.629440 124.482407C98.068970 123.921921,97.308823 123.606979,96.516129 123.606979C95.723434 123.606979,94.963287 123.921921,94.402817 124.482407C93.842331 125.042877,93.527390 125.803024,93.527390 126.595718C93.527390 127.388412,93.842331 128.148560,94.402817 128.709030C94.963287 129.269516,95.723434 129.584457,96.516129 129.584457C97.308823 129.584457,98.068970 129.269516,98.629440 128.709030C99.189926 128.148560,99.504868 127.388412,99.504868 126.595718Z" style="fill: rgb(100.000000%,100.000000%,100.000000%);stroke: none;"></path>
  <path d="M91.253754 125.421326C91.253754 124.628632,90.938812 123.868484,90.378326 123.308014C89.817856 122.747528,89.057709 122.432587,88.265015 122.432587C87.472321 122.432587,86.712173 122.747528,86.151703 123.308014C85.591217 123.868484,85.276276 124.628632,85.276276 125.421326C85.276276 126.214020,85.591217 126.974167,86.151703 127.534637C86.712173 128.095123,87.472321 128.410065,88.265015 128.410065C89.057709 128.410065,89.817856 128.095123,90.378326 127.534637C90.938812 126.974167,91.253754 126.214020,91.253754 125.421326Z" style="fill: rgb(100.000000%,100.000000%,100.000000%);stroke: none;"></path>
  <path d="M110.662430 120.766891C110.662430 119.974197,110.347488 119.214050,109.787003 118.653580C109.226532 118.093094,108.466385 117.778152,107.673691 117.778152C106.880997 117.778152,106.120850 118.093094,105.560379 118.653580C104.999893 119.214050,104.684952 119.974197,104.684952 120.766891C104.684952 121.559586,104.999893 122.319733,105.560379 122.880203C106.120850 123.440689,106.880997 123.755630,107.673691 123.755630C108.466385 123.755630,109.226532 123.440689,109.787003 122.880203C110.347488 122.319733,110.662430 121.559586,110.662430 120.766891Z" style="fill: rgb(100.000000%,100.000000%,100.000000%);stroke: none;"></path>
  <path d="M103.253067 124.332275C103.253067 123.539581,102.938126 122.779434,102.377640 122.218964C101.817169 121.658478,101.057022 121.343536,100.264328 121.343536C99.471634 121.343536,98.711487 121.658478,98.151016 122.218964C97.590530 122.779434,97.275589 123.539581,97.275589 124.332275C97.275589 125.124969,97.590530 125.885117,98.151016 126.445587C98.711487 127.006073,99.471634 127.321014,100.264328 127.321014C101.057022 127.321014,101.817169 127.006073,102.377640 126.445587C102.938126 125.885117,103.253067 125.124969,103.253067 124.332275Z" style="fill: rgb(100.000000%,100.000000%,100.000000%);stroke: none;"></path>
  <path d="M118.713013 111.967606C118.713013 111.174911,118.398071 110.414764,117.837585 109.854294C117.277115 109.293808,116.516968 108.978867,115.724274 108.978867C114.931580 108.978867,114.171432 109.293808,113.610962 109.854294C113.050476 110.414764,112.735535 111.174911,112.735535 111.967606C112.735535 112.760300,113.050476 113.520447,113.610962 114.080917C114.171432 114.641403,114.931580 114.956345,115.724274 114.956345C116.516968 114.956345,117.277115 114.641403,117.837585 114.080917C118.398071 113.520447,118.713013 112.760300,118.713013 111.967606Z" style="fill: rgb(100.000000%,100.000000%,100.000000%);stroke: none;"></path>
  <path d="M114.754379 119.234390C114.754379 118.441696,114.439438 117.681549,113.878952 117.121078C113.318481 116.560593,112.558334 116.245651,111.765640 116.245651C110.972946 116.245651,110.212799 116.560593,109.652328 117.121078C109.091843 117.681549,108.776901 118.441696,108.776901 119.234390C108.776901 120.027084,109.091843 120.787231,109.652328 121.347702C110.212799 121.908188,110.972946 122.223129,111.765640 122.223129C112.558334 122.223129,113.318481 121.908188,113.878952 121.347702C114.439438 120.787231,114.754379 120.027084,114.754379 119.234390Z" style="fill: rgb(100.000000%,100.000000%,100.000000%);stroke: none;"></path>
  <path d="M116.835709 99.137665C116.835709 98.344971,116.520767 97.584824,115.960281 97.024353C115.399811 96.463867,114.639664 96.148926,113.846970 96.148926C113.054276 96.148926,112.294128 96.463867,111.733658 97.024353C111.173172 97.584824,110.858231 98.344971,110.858231 99.137665C110.858231 99.930359,111.173172 100.690506,111.733658 101.250977C112.294128 101.811462,113.054276 102.126404,113.846970 102.126404C114.639664 102.126404,115.399811 101.811462,115.960281 101.250977C116.520767 100.690506,116.835709 99.930359,116.835709 99.137665Z" style="fill: rgb(100.000000%,100.000000%,100.000000%);stroke: none;"></path>
  <path d="M117.727493 107.644104C117.727493 106.851410,117.412552 106.091263,116.852066 105.530792C116.291595 104.970306,115.531448 104.655365,114.738754 104.655365C113.946060 104.655365,113.185913 104.970306,112.625443 105.530792C112.064957 106.091263,111.750015 106.851410,111.750015 107.644104C111.750015 108.436798,112.064957 109.196945,112.625443 109.757416C113.185913 110.317902,113.946060 110.632843,114.738754 110.632843C115.531448 110.632843,116.291595 110.317902,116.852066 109.757416C117.412552 109.196945,117.727493 108.436798,117.727493 107.644104Z" style="fill: rgb(100.000000%,100.000000%,100.000000%);stroke: none;"></path>
  <path d="M111.606842 87.730545C111.606842 86.937851,111.291901 86.177704,110.731415 85.617233C110.170944 85.056747,109.410797 84.741806,108.618103 84.741806C107.825409 84.741806,107.065262 85.056747,106.504791 85.617233C105.944305 86.177704,105.629364 86.937851,105.629364 87.730545C105.629364 88.523239,105.944305 89.283386,106.504791 89.843857C107.065262 90.404343,107.825409 90.719284,108.618103 90.719284C109.410797 90.719284,110.170944 90.404343,110.731415 89.843857C111.291901 89.283386,111.606842 88.523239,111.606842 87.730545Z" style="fill: rgb(100.000000%,100.000000%,100.000000%);stroke: none;"></path>
  <path d="M116.965561 94.440689C116.965561 93.647995,116.650620 92.887848,116.090134 92.327377C115.529663 91.766891,114.769516 91.451950,113.976822 91.451950C113.184128 91.451950,112.423981 91.766891,111.863510 92.327377C111.303024 92.887848,110.988083 93.647995,110.988083 94.440689C110.988083 95.233383,111.303024 95.993530,111.863510 96.554001C112.423981 97.114487,113.184128 97.429428,113.976822 97.429428C114.769516 97.429428,115.529663 97.114487,116.090134 96.554001C116.650620 95.993530,116.965561 95.233383,116.965561 94.440689Z" style="fill: rgb(100.000000%,100.000000%,100.000000%);stroke: none;"></path>
  <path d="M100.693024 83.404404C100.693024 82.611710,100.378082 81.851562,99.817596 81.291092C99.257126 80.730606,98.496979 80.415665,97.704285 80.415665C96.911591 80.415665,96.151443 80.730606,95.590973 81.291092C95.030487 81.851562,94.715546 82.611710,94.715546 83.404404C94.715546 84.197098,95.030487 84.957245,95.590973 85.517715C96.151443 86.078201,96.911591 86.393143,97.704285 86.393143C98.496979 86.393143,99.257126 86.078201,99.817596 85.517715C100.378082 84.957245,100.693024 84.197098,100.693024 83.404404Z" style="fill: rgb(100.000000%,100.000000%,100.000000%);stroke: none;"></path>
  <path d="M107.315125 86.723831C107.315125 85.931137,107.000183 85.170990,106.439697 84.610519C105.879227 84.050034,105.119080 83.735092,104.326385 83.735092C103.533691 83.735092,102.773544 84.050034,102.213074 84.610519C101.652588 85.170990,101.337646 85.931137,101.337646 86.723831C101.337646 87.516525,101.652588 88.276672,102.213074 88.837143C102.773544 89.397629,103.533691 89.712570,104.326385 89.712570C105.119080 89.712570,105.879227 89.397629,106.439697 88.837143C107.000183 88.276672,107.315125 87.516525,107.315125 86.723831Z" style="fill: rgb(100.000000%,100.000000%,100.000000%);stroke: none;"></path>
  <path d="M92.875977 85.658722C92.875977 84.866028,92.561035 84.105881,92.000549 83.545410C91.440079 82.984924,90.679932 82.669983,89.887238 82.669983C89.094543 82.669983,88.334396 82.984924,87.773926 83.545410C87.213440 84.105881,86.898499 84.866028,86.898499 85.658722C86.898499 86.451416,87.213440 87.211563,87.773926 87.772034C88.334396 88.332520,89.094543 88.647461,89.887238 88.647461C90.679932 88.647461,91.440079 88.332520,92.000549 87.772034C92.561035 87.211563,92.875977 86.451416,92.875977 85.658722Z" style="fill: rgb(100.000000%,100.000000%,100.000000%);stroke: none;"></path>
  <path d="M97.384552 81.687378C97.384552 80.894684,97.069611 80.134537,96.509125 79.574066C95.948654 79.013580,95.188507 78.698639,94.395813 78.698639C93.603119 78.698639,92.842972 79.013580,92.282501 79.574066C91.722015 80.134537,91.407074 80.894684,91.407074 81.687378C91.407074 82.480072,91.722015 83.240219,92.282501 83.800690C92.842972 84.361176,93.603119 84.676117,94.395813 84.676117C95.188507 84.676117,95.948654 84.361176,96.509125 83.800690C97.069611 83.240219,97.384552 82.480072,97.384552 81.687378Z" style="fill: rgb(100.000000%,100.000000%,100.000000%);stroke: none;"></path>
  <path d="M95.185043 94.556320C95.185043 93.763626,94.870102 93.003479,94.309616 92.443008C93.749146 91.882523,92.988998 91.567581,92.196304 91.567581C91.403610 91.567581,90.643463 91.882523,90.082993 92.443008C89.522507 93.003479,89.207565 93.763626,89.207565 94.556320C89.207565 95.349014,89.522507 96.109161,90.082993 96.669632C90.643463 97.230118,91.403610 97.545059,92.196304 97.545059C92.988998 97.545059,93.749146 97.230118,94.309616 96.669632C94.870102 96.109161,95.185043 95.349014,95.185043 94.556320Z" style="fill: rgb(100.000000%,100.000000%,100.000000%);stroke: none;"></path>
  <path d="M93.829041 88.885666C93.829041 88.092972,93.514099 87.332825,92.953613 86.772354C92.393143 86.211868,91.632996 85.896927,90.840302 85.896927C90.047607 85.896927,89.287460 86.211868,88.726990 86.772354C88.166504 87.332825,87.851562 88.092972,87.851562 88.885666C87.851562 89.678360,88.166504 90.438507,88.726990 90.998978C89.287460 91.559464,90.047607 91.874405,90.840302 91.874405C91.632996 91.874405,92.393143 91.559464,92.953613 90.998978C93.514099 90.438507,93.829041 89.678360,93.829041 88.885666Z" style="fill: rgb(100.000000%,100.000000%,100.000000%);stroke: none;"></path>
  <path d="M96.961227 102.951797C96.961227 102.159103,96.646286 101.398956,96.085800 100.838486C95.525330 100.278000,94.765182 99.963058,93.972488 99.963058C93.179794 99.963058,92.419647 100.278000,91.859177 100.838486C91.298691 101.398956,90.983749 102.159103,90.983749 102.951797C90.983749 103.744492,91.298691 104.504639,91.859177 105.065109C92.419647 105.625595,93.179794 105.940536,93.972488 105.940536C94.765182 105.940536,95.525330 105.625595,96.085800 105.065109C96.646286 104.504639,96.961227 103.744492,96.961227 102.951797Z" style="fill: rgb(100.000000%,100.000000%,100.000000%);stroke: none;"></path>
  <path d="M95.295807 97.460159C95.295807 96.667465,94.980865 95.907318,94.420380 95.346848C93.859909 94.786362,93.099762 94.471420,92.307068 94.471420C91.514374 94.471420,90.754227 94.786362,90.193756 95.346848C89.633270 95.907318,89.318329 96.667465,89.318329 97.460159C89.318329 98.252853,89.633270 99.013000,90.193756 99.573471C90.754227 100.133957,91.514374 100.448898,92.307068 100.448898C93.099762 100.448898,93.859909 100.133957,94.420380 99.573471C94.980865 99.013000,95.295807 98.252853,95.295807 97.460159Z" style="fill: rgb(100.000000%,100.000000%,100.000000%);stroke: none;"></path>
  <path d="M100.983017 110.188202C100.983017 109.395508,100.668076 108.635361,100.107590 108.074890C99.547119 107.514404,98.786972 107.199463,97.994278 107.199463C97.201584 107.199463,96.441437 107.514404,95.880966 108.074890C95.320480 108.635361,95.005539 109.395508,95.005539 110.188202C95.005539 110.980896,95.320480 111.741043,95.880966 112.301514C96.441437 112.862000,97.201584 113.176941,97.994278 113.176941C98.786972 113.176941,99.547119 112.862000,100.107590 112.301514C100.668076 111.741043,100.983017 110.980896,100.983017 110.188202Z" style="fill: rgb(100.000000%,100.000000%,100.000000%);stroke: none;"></path>
  <path d="M98.475372 105.416946C98.475372 104.624252,98.160431 103.864105,97.599945 103.303635C97.039474 102.743149,96.279327 102.428207,95.486633 102.428207C94.693939 102.428207,93.933792 102.743149,93.373322 103.303635C92.812836 103.864105,92.497894 104.624252,92.497894 105.416946C92.497894 106.209641,92.812836 106.969788,93.373322 107.530258C93.933792 108.090744,94.693939 108.405685,95.486633 108.405685C96.279327 108.405685,97.039474 108.090744,97.599945 107.530258C98.160431 106.969788,98.475372 106.209641,98.475372 105.416946Z" style="fill: rgb(100.000000%,100.000000%,100.000000%);stroke: none;"></path>
  <path d="M104.356918 117.378632C104.356918 116.585938,104.041977 115.825790,103.481491 115.265320C102.921021 114.704834,102.160873 114.389893,101.368179 114.389893C100.575485 114.389893,99.815338 114.704834,99.254868 115.265320C98.694382 115.825790,98.379440 116.585938,98.379440 117.378632C98.379440 118.171326,98.694382 118.931473,99.254868 119.491943C99.815338 120.052429,100.575485 120.367371,101.368179 120.367371C102.160873 120.367371,102.921021 120.052429,103.481491 119.491943C104.041977 118.931473,104.356918 118.171326,104.356918 117.378632Z" style="fill: rgb(100.000000%,100.000000%,100.000000%);stroke: none;"></path>
  <path d="M102.021484 112.489929C102.021484 111.697235,101.706543 110.937088,101.146057 110.376617C100.585587 109.816132,99.825439 109.501190,99.032745 109.501190C98.240051 109.501190,97.479904 109.816132,96.919434 110.376617C96.358948 110.937088,96.044006 111.697235,96.044006 112.489929C96.044006 113.282623,96.358948 114.042770,96.919434 114.603241C97.479904 115.163727,98.240051 115.478668,99.032745 115.478668C99.825439 115.478668,100.585587 115.163727,101.146057 114.603241C101.706543 114.042770,102.021484 113.282623,102.021484 112.489929Z" style="fill: rgb(100.000000%,100.000000%,100.000000%);stroke: none;"></path>
  <path d="M109.992172 128.555588C109.992172 127.762894,109.677231 127.002747,109.116745 126.442276C108.556274 125.881790,107.796127 125.566849,107.003433 125.566849C106.210739 125.566849,105.450592 125.881790,104.890121 126.442276C104.329636 127.002747,104.014694 127.762894,104.014694 128.555588C104.014694 129.348282,104.329636 130.108429,104.890121 130.668900C105.450592 131.229385,106.210739 131.544327,107.003433 131.544327C107.796127 131.544327,108.556274 131.229385,109.116745 130.668900C109.677231 130.108429,109.992172 129.348282,109.992172 128.555588Z" style="fill: rgb(100.000000%,100.000000%,100.000000%);stroke: none;"></path>
  <path d="M105.669617 119.958191C105.669617 119.165497,105.354675 118.405350,104.794189 117.844879C104.233719 117.284393,103.473572 116.969452,102.680878 116.969452C101.888184 116.969452,101.128036 117.284393,100.567566 117.844879C100.007080 118.405350,99.692139 119.165497,99.692139 119.958191C99.692139 120.750885,100.007080 121.511032,100.567566 122.071503C101.128036 122.631989,101.888184 122.946930,102.680878 122.946930C103.473572 122.946930,104.233719 122.631989,104.794189 122.071503C105.354675 121.511032,105.669617 120.750885,105.669617 119.958191Z" style="fill: rgb(100.000000%,100.000000%,100.000000%);stroke: none;"></path>
  <path d="M121.901520 152.188187C121.901520 151.395493,121.586578 150.635345,121.026093 150.074875C120.465622 149.514389,119.705475 149.199448,118.912781 149.199448C118.120087 149.199448,117.359940 149.514389,116.799469 150.074875C116.238983 150.635345,115.924042 151.395493,115.924042 152.188187C115.924042 152.980881,116.238983 153.741028,116.799469 154.301498C117.359940 154.861984,118.120087 155.176926,118.912781 155.176926C119.705475 155.176926,120.465622 154.861984,121.026093 154.301498C121.586578 153.741028,121.901520 152.980881,121.901520 152.188187Z" style="fill: rgb(100.000000%,100.000000%,100.000000%);stroke: none;"></path>
  <path d="M112.946625 134.601425C112.946625 133.808731,112.631683 133.048584,112.071198 132.488113C111.510727 131.927628,110.750580 131.612686,109.957886 131.612686C109.165192 131.612686,108.405045 131.927628,107.844574 132.488113C107.284088 133.048584,106.969147 133.808731,106.969147 134.601425C106.969147 135.394119,107.284088 136.154266,107.844574 136.714737C108.405045 137.275223,109.165192 137.590164,109.957886 137.590164C110.750580 137.590164,111.510727 137.275223,112.071198 136.714737C112.631683 136.154266,112.946625 135.394119,112.946625 134.601425Z" style="fill: rgb(100.000000%,100.000000%,100.000000%);stroke: none;"></path>
  <path d="M157.066910 176.834717C157.066910 176.042023,156.751968 175.281876,156.191483 174.721405C155.631012 174.160919,154.870865 173.845978,154.078171 173.845978C153.285477 173.845978,152.525330 174.160919,151.964859 174.721405C151.404373 175.281876,151.089432 176.042023,151.089432 176.834717C151.089432 177.627411,151.404373 178.387558,151.964859 178.948029C152.525330 179.508514,153.285477 179.823456,154.078171 179.823456C154.870865 179.823456,155.631012 179.508514,156.191483 178.948029C156.751968 178.387558,157.066910 177.627411,157.066910 176.834717Z" style="fill: rgb(100.000000%,100.000000%,100.000000%);stroke: none;"></path>
  <path d="M128.696030 164.014511C128.696030 163.221817,128.381088 162.461670,127.820602 161.901199C127.260132 161.340714,126.499985 161.025772,125.707291 161.025772C124.914597 161.025772,124.154449 161.340714,123.593979 161.901199C123.033493 162.461670,122.718552 163.221817,122.718552 164.014511C122.718552 164.807205,123.033493 165.567352,123.593979 166.127823C124.154449 166.688309,124.914597 167.003250,125.707291 167.003250C126.499985 167.003250,127.260132 166.688309,127.820602 166.127823C128.381088 165.567352,128.696030 164.807205,128.696030 164.014511Z" style="fill: rgb(100.000000%,100.000000%,100.000000%);stroke: none;"></path>
  <path d="M193.250580 137.758789C193.250580 136.966095,192.935638 136.205948,192.375153 135.645477C191.814682 135.084991,191.054535 134.770050,190.261841 134.770050C189.469147 134.770050,188.709000 135.084991,188.148529 135.645477C187.588043 136.205948,187.273102 136.966095,187.273102 137.758789C187.273102 138.551483,187.588043 139.311630,188.148529 139.872101C188.709000 140.432587,189.469147 140.747528,190.261841 140.747528C191.054535 140.747528,191.814682 140.432587,192.375153 139.872101C192.935638 139.311630,193.250580 138.551483,193.250580 137.758789Z" style="fill: rgb(100.000000%,100.000000%,100.000000%);stroke: none;"></path>
  <path d="M176.413605 169.500732C176.413605 168.708038,176.098663 167.947891,175.538177 167.387421C174.977707 166.826935,174.217560 166.511993,173.424866 166.511993C172.632172 166.511993,171.872025 166.826935,171.311554 167.387421C170.751068 167.947891,170.436127 168.708038,170.436127 169.500732C170.436127 170.293427,170.751068 171.053574,171.311554 171.614044C171.872025 172.174530,172.632172 172.489471,173.424866 172.489471C174.217560 172.489471,174.977707 172.174530,175.538177 171.614044C176.098663 171.053574,176.413605 170.293427,176.413605 169.500732Z" style="fill: rgb(100.000000%,100.000000%,100.000000%);stroke: none;"></path>
  <path d="M164.292526 100.990433C164.292526 100.197739,163.977585 99.437592,163.417099 98.877121C162.856628 98.316635,162.096481 98.001694,161.303787 98.001694C160.511093 98.001694,159.750946 98.316635,159.190475 98.877121C158.629990 99.437592,158.315048 100.197739,158.315048 100.990433C158.315048 101.783127,158.629990 102.543274,159.190475 103.103745C159.750946 103.664230,160.511093 103.979172,161.303787 103.979172C162.096481 103.979172,162.856628 103.664230,163.417099 103.103745C163.977585 102.543274,164.292526 101.783127,164.292526 100.990433Z" style="fill: rgb(100.000000%,100.000000%,100.000000%);stroke: none;"></path>
  <path d="M189.143036 118.439117C189.143036 117.646423,188.828094 116.886276,188.267609 116.325806C187.707138 115.765320,186.946991 115.450378,186.154297 115.450378C185.361603 115.450378,184.601456 115.765320,184.040985 116.325806C183.480499 116.886276,183.165558 117.646423,183.165558 118.439117C183.165558 119.231812,183.480499 119.991959,184.040985 120.552429C184.601456 121.112915,185.361603 121.427856,186.154297 121.427856C186.946991 121.427856,187.707138 121.112915,188.267609 120.552429C188.828094 119.991959,189.143036 119.231812,189.143036 118.439117Z" style="fill: rgb(100.000000%,100.000000%,100.000000%);stroke: none;"></path>
  <path d="M131.092773 102.417450C131.092773 101.624756,130.777832 100.864609,130.217346 100.304138C129.656876 99.743652,128.896729 99.428711,128.104034 99.428711C127.311340 99.428711,126.551193 99.743652,125.990723 100.304138C125.430237 100.864609,125.115295 101.624756,125.115295 102.417450C125.115295 103.210144,125.430237 103.970291,125.990723 104.530762C126.551193 105.091248,127.311340 105.406189,128.104034 105.406189C128.896729 105.406189,129.656876 105.091248,130.217346 104.530762C130.777832 103.970291,131.092773 103.210144,131.092773 102.417450Z" style="fill: rgb(100.000000%,100.000000%,100.000000%);stroke: none;"></path>
  <path d="M150.831009 100.836594C150.831009 100.043900,150.516068 99.283752,149.955582 98.723282C149.395111 98.162796,148.634964 97.847855,147.842270 97.847855C147.049576 97.847855,146.289429 98.162796,145.728958 98.723282C145.168472 99.283752,144.853531 100.043900,144.853531 100.836594C144.853531 101.629288,145.168472 102.389435,145.728958 102.949905C146.289429 103.510391,147.049576 103.825333,147.842270 103.825333C148.634964 103.825333,149.395111 103.510391,149.955582 102.949905C150.516068 102.389435,150.831009 101.629288,150.831009 100.836594Z" style="fill: rgb(100.000000%,100.000000%,100.000000%);stroke: none;"></path>
  <path d="M114.014252 103.647217C114.014252 102.854523,113.699310 102.094376,113.138824 101.533905C112.578354 100.973419,111.818207 100.658478,111.025513 100.658478C110.232819 100.658478,109.472672 100.973419,108.912201 101.533905C108.351715 102.094376,108.036774 102.854523,108.036774 103.647217C108.036774 104.439911,108.351715 105.200058,108.912201 105.760529C109.472672 106.321014,110.232819 106.635956,111.025513 106.635956C111.818207 106.635956,112.578354 106.321014,113.138824 105.760529C113.699310 105.200058,114.014252 104.439911,114.014252 103.647217Z" style="fill: rgb(100.000000%,100.000000%,100.000000%);stroke: none;"></path>
  <path d="M124.213104 103.251602C124.213104 102.458908,123.898163 101.698761,123.337677 101.138290C122.777206 100.577805,122.017059 100.262863,121.224365 100.262863C120.431671 100.262863,119.671524 100.577805,119.111053 101.138290C118.550568 101.698761,118.235626 102.458908,118.235626 103.251602C118.235626 104.044296,118.550568 104.804443,119.111053 105.364914C119.671524 105.925400,120.431671 106.240341,121.224365 106.240341C122.017059 106.240341,122.777206 105.925400,123.337677 105.364914C123.898163 104.804443,124.213104 104.044296,124.213104 103.251602Z" style="fill: rgb(100.000000%,100.000000%,100.000000%);stroke: none;"></path>
  <path d="M104.829010 105.352631C104.829010 104.559937,104.514069 103.799789,103.953583 103.239319C103.393112 102.678833,102.632965 102.363892,101.840271 102.363892C101.047577 102.363892,100.287430 102.678833,99.726959 103.239319C99.166473 103.799789,98.851532 104.559937,98.851532 105.352631C98.851532 106.145325,99.166473 106.905472,99.726959 107.465942C100.287430 108.026428,101.047577 108.341370,101.840271 108.341370C102.632965 108.341370,103.393112 108.026428,103.953583 107.465942C104.514069 106.905472,104.829010 106.145325,104.829010 105.352631Z" style="fill: rgb(100.000000%,100.000000%,100.000000%);stroke: none;"></path>
  <path d="M110.695770 103.652481C110.695770 102.859787,110.380829 102.099640,109.820343 101.539169C109.259872 100.978683,108.499725 100.663742,107.707031 100.663742C106.914337 100.663742,106.154190 100.978683,105.593719 101.539169C105.033234 102.099640,104.718292 102.859787,104.718292 103.652481C104.718292 104.445175,105.033234 105.205322,105.593719 105.765793C106.154190 106.326279,106.914337 106.641220,107.707031 106.641220C108.499725 106.641220,109.259872 106.326279,109.820343 105.765793C110.380829 105.205322,110.695770 104.445175,110.695770 103.652481Z" style="fill: rgb(100.000000%,100.000000%,100.000000%);stroke: none;"></path>
  <path d="M97.199478 109.157715C97.199478 108.365021,96.884537 107.604874,96.324051 107.044403C95.763580 106.483917,95.003433 106.168976,94.210739 106.168976C93.418045 106.168976,92.657898 106.483917,92.097427 107.044403C91.536942 107.604874,91.222000 108.365021,91.222000 109.157715C91.222000 109.950409,91.536942 110.710556,92.097427 111.271027C92.657898 111.831512,93.418045 112.146454,94.210739 112.146454C95.003433 112.146454,95.763580 111.831512,96.324051 111.271027C96.884537 110.710556,97.199478 109.950409,97.199478 109.157715Z" style="fill: rgb(100.000000%,100.000000%,100.000000%);stroke: none;"></path>
  <path d="M102.367294 106.773819C102.367294 105.981125,102.052353 105.220978,101.491867 104.660507C100.931396 104.100021,100.171249 103.785080,99.378555 103.785080C98.585861 103.785080,97.825714 104.100021,97.265244 104.660507C96.704758 105.220978,96.389816 105.981125,96.389816 106.773819C96.389816 107.566513,96.704758 108.326660,97.265244 108.887131C97.825714 109.447617,98.585861 109.762558,99.378555 109.762558C100.171249 109.762558,100.931396 109.447617,101.491867 108.887131C102.052353 108.326660,102.367294 107.566513,102.367294 106.773819Z" style="fill: rgb(100.000000%,100.000000%,100.000000%);stroke: none;"></path>
  <path d="M89.471649 113.750839C89.471649 112.958145,89.156708 112.197998,88.596222 111.637527C88.035751 111.077042,87.275604 110.762100,86.482910 110.762100C85.690216 110.762100,84.930069 111.077042,84.369598 111.637527C83.809113 112.197998,83.494171 112.958145,83.494171 113.750839C83.494171 114.543533,83.809113 115.303680,84.369598 115.864151C84.930069 116.424637,85.690216 116.739578,86.482910 116.739578C87.275604 116.739578,88.035751 116.424637,88.596222 115.864151C89.156708 115.303680,89.471649 114.543533,89.471649 113.750839Z" style="fill: rgb(100.000000%,100.000000%,100.000000%);stroke: none;"></path>
  <path d="M94.457062 110.127151C94.457062 109.334457,94.142120 108.574310,93.581635 108.013840C93.021164 107.453354,92.261017 107.138412,91.468323 107.138412C90.675629 107.138412,89.915482 107.453354,89.355011 108.013840C88.794525 108.574310,88.479584 109.334457,88.479584 110.127151C88.479584 110.919846,88.794525 111.679993,89.355011 112.240463C89.915482 112.800949,90.675629 113.115891,91.468323 113.115891C92.261017 113.115891,93.021164 112.800949,93.581635 112.240463C94.142120 111.679993,94.457062 110.919846,94.457062 110.127151Z" style="fill: rgb(100.000000%,100.000000%,100.000000%);stroke: none;"></path>
  <path d="M81.627426 123.686249C81.627426 122.893555,81.312485 122.133408,80.751999 121.572937C80.191528 121.012451,79.431381 120.697510,78.638687 120.697510C77.845993 120.697510,77.085846 121.012451,76.525375 121.572937C75.964890 122.133408,75.649948 122.893555,75.649948 123.686249C75.649948 124.478943,75.964890 125.239090,76.525375 125.799561C77.085846 126.360046,77.845993 126.674988,78.638687 126.674988C79.431381 126.674988,80.191528 126.360046,80.751999 125.799561C81.312485 125.239090,81.627426 124.478943,81.627426 123.686249Z" style="fill: rgb(100.000000%,100.000000%,100.000000%);stroke: none;"></path>
  <path d="M87.554123 116.472351C87.554123 115.679657,87.239182 114.919510,86.678696 114.359039C86.118225 113.798553,85.358078 113.483612,84.565384 113.483612C83.772690 113.483612,83.012543 113.798553,82.452072 114.359039C81.891586 114.919510,81.576645 115.679657,81.576645 116.472351C81.576645 117.265045,81.891586 118.025192,82.452072 118.585663C83.012543 119.146149,83.772690 119.461090,84.565384 119.461090C85.358078 119.461090,86.118225 119.146149,86.678696 118.585663C87.239182 118.025192,87.554123 117.265045,87.554123 116.472351Z" style="fill: rgb(100.000000%,100.000000%,100.000000%);stroke: none;"></path>
  <path d="M70.220093 132.400131C61.569580 142.526840,47.802811 146.670090,35.000000 143.000000C14.663971 137.170410,4.300491 115.848129,3.480362 94.045044C2.609848 70.902557,13.636063 47.958786,35.000000 45.451141C48.382019 43.880402,61.419983 52.803589,74.561539 49.271744C87.387787 45.824646,94.390839 31.971512,106.864624 27.618332C126.325195 20.826859,143.846191 37.302689,157.425323 54.250000C170.788895 70.928284,182.754440 91.357712,171.838623 108.387421C165.166748 118.796173,151.298935 122.377716,145.070480 133.098709C138.727798 144.016327,142.763824 157.952133,137.561172 169.371033C128.441483 189.387146,102.363907 190.976608,79.412857 184.552032C57.151932 178.320633,35.682861 165.000565,35.000000 143.000000C34.607925 130.368271,42.154007 119.346130,51.399017 110.639725C56.064453 106.246109,61.161331 102.342712,66.488953 98.782211C70.535065 96.078171,74.756683 93.553925,79.467453 92.310989C83.399628 91.273483,87.506958 91.177521,91.529404 91.767426C93.750351 92.093140,96.124435 92.563431,97.975723 91.296402C99.980957 89.924011,100.305435 87.293304,100.632507 84.872223C101.524368 78.270523,103.589554 71.909882,105.434021 65.512756C109.041397 53.001328,111.746658 39.690903,106.864624 27.618332C100.062180 10.796860,81.616272 2.088913,63.708038 6.024689C45.018036 10.132294,31.732010 27.084076,35.000000 45.451141C37.351089 58.664993,48.281631 67.926941,55.539612 79.089600C59.637451 85.391998,62.562790 92.373077,66.488953 98.782211C68.845993 102.629883,71.550049 106.249390,74.420074 109.730560C77.026520 112.891998,79.768417 115.937958,82.483490 119.006409C85.264008 122.148819,88.265015 125.421326,92.417862 126.012405C96.516129 126.595718,100.264328 124.332275,103.980896 122.543869C107.673691 120.766891,111.765640 119.234390,113.732346 115.624146C115.724274 111.967606,114.738754 107.644104,114.306396 103.519958C113.846970 99.137665,113.976822 94.440689,111.214233 90.981400C108.618103 87.730545,104.326385 86.723831,100.632507 84.872223C97.704285 83.404404,94.395813 81.687378,92.048248 83.755219C89.887238 85.658722,90.840302 88.885666,91.529404 91.767426C92.196304 94.556320,92.307068 97.460159,93.139740 100.205841C93.972488 102.951797,95.486633 105.416946,96.820068 107.954041C97.994278 110.188202,99.032745 112.489929,100.120636 114.767181C101.368179 117.378632,102.680878 119.958191,103.980896 122.543869C107.003433 128.555588,109.957886 134.601425,113.011063 140.597656C118.912781 152.188187,125.707291 164.014511,137.561172 169.371033C154.078171 176.834717,173.424866 169.500732,182.007706 153.319916C190.261841 137.758789,186.154297 118.439117,171.838623 108.387421C161.303787 100.990433,147.842270 100.836594,135.004410 101.864792C128.104034 102.417450,121.224365 103.251602,114.306396 103.519958C111.025513 103.647217,107.707031 103.652481,104.549149 104.567612C101.840271 105.352631,99.378555 106.773819,96.820068 107.954041C94.210739 109.157715,91.468323 110.127151,89.140610 111.819077C86.482910 113.750839,84.565384 116.472351,82.483490 119.006409C78.638687 123.686249,74.153595 127.795395,70.220093 132.400131" style="stroke:rgb(0.000000%,0.000000%,0.000000%); stroke-width: 0.498138;stroke-linecap: round;stroke-linejoin: round;stroke-miterlimit: 10.000000;fill: none;"></path>
  <path d="M70.220093 132.400131C61.569580 142.526840,47.802811 146.670090,35.000000 143.000000" style="stroke:rgb(0.000000%,0.000000%,0.000000%); stroke-width: 1.494400;stroke-linecap: round;stroke-linejoin: round;stroke-miterlimit: 10.000000;fill: none;"></path>
  <path d="M96.820068 107.954041C94.210739 109.157715,91.468323 110.127151,89.140610 111.819077C86.482910 113.750839,84.565384 116.472351,82.483490 119.006409C78.638687 123.686249,74.153595 127.795395,70.220093 132.400131" style="stroke:rgb(0.000000%,0.000000%,0.000000%); stroke-width: 1.494400;stroke-linecap: round;stroke-linejoin: round;stroke-miterlimit: 10.000000;fill: none;"></path>
  <path d="M37.988739 143.000000C37.988739 142.207306,37.673798 141.447159,37.113312 140.886688C36.552841 140.326202,35.792694 140.011261,35.000000 140.011261C34.207306 140.011261,33.447159 140.326202,32.886688 140.886688C32.326202 141.447159,32.011261 142.207306,32.011261 143.000000C32.011261 143.792694,32.326202 144.552841,32.886688 145.113312C33.447159 145.673798,34.207306 145.988739,35.000000 145.988739C35.792694 145.988739,36.552841 145.673798,37.113312 145.113312C37.673798 144.552841,37.988739 143.792694,37.988739 143.000000Z" style="fill: rgb(100.000000%,100.000000%,100.000000%);stroke: none;"></path>
  <path d="M49.114639 169.689438C40.879410 162.830429,35.341431 154.000275,35.000000 143.000000C34.803955 136.684128,36.592468 130.770660,39.585617 125.347855" style="stroke:rgb(0.000000%,0.000000%,0.000000%); stroke-width: 0.498138;stroke-linecap: round;stroke-linejoin: round;stroke-miterlimit: 10.000000;fill: none;"></path>
  <path d="M109.853363 27.618332C109.853363 26.825638,109.538422 26.065491,108.977936 25.505020C108.417465 24.944534,107.657318 24.629593,106.864624 24.629593C106.071930 24.629593,105.311783 24.944534,104.751312 25.505020C104.190826 26.065491,103.875885 26.825638,103.875885 27.618332C103.875885 28.411026,104.190826 29.171173,104.751312 29.731644C105.311783 30.292130,106.071930 30.607071,106.864624 30.607071C107.657318 30.607071,108.417465 30.292130,108.977936 29.731644C109.538422 29.171173,109.853363 28.411026,109.853363 27.618332Z" style="fill: rgb(100.000000%,100.000000%,100.000000%);stroke: none;"></path>
  <path d="M90.845261 38.784805C95.758530 34.346497,100.627731 29.794922,106.864624 27.618332C116.594910 24.222595,125.840302 26.643692,134.350525 32.032135" style="stroke:rgb(0.000000%,0.000000%,0.000000%); stroke-width: 0.498138;stroke-linecap: round;stroke-linejoin: round;stroke-miterlimit: 10.000000;fill: none;"></path>
  <path d="M140.549911 169.371033C140.549911 168.578339,140.234970 167.818192,139.674484 167.257721C139.114014 166.697235,138.353867 166.382294,137.561172 166.382294C136.768478 166.382294,136.008331 166.697235,135.447861 167.257721C134.887375 167.818192,134.572433 168.578339,134.572433 169.371033C134.572433 170.163727,134.887375 170.923874,135.447861 171.484344C136.008331 172.044830,136.768478 172.359772,137.561172 172.359772C138.353867 172.359772,139.114014 172.044830,139.674484 171.484344C140.234970 170.923874,140.549911 170.163727,140.549911 169.371033Z" style="fill: rgb(100.000000%,100.000000%,100.000000%);stroke: none;"></path>
  <path d="M140.888306 151.046906C140.454147 157.322922,140.162491 163.661591,137.561172 169.371033C133.001328 179.379089,124.202011 184.780487,113.673767 186.876801" style="stroke:rgb(0.000000%,0.000000%,0.000000%); stroke-width: 0.498138;stroke-linecap: round;stroke-linejoin: round;stroke-miterlimit: 10.000000;fill: none;"></path>
  <path d="M69.477692 98.782211C69.477692 97.989517,69.162750 97.229370,68.602264 96.668900C68.041794 96.108414,67.281647 95.793472,66.488953 95.793472C65.696259 95.793472,64.936111 96.108414,64.375641 96.668900C63.815155 97.229370,63.500214 97.989517,63.500214 98.782211C63.500214 99.574905,63.815155 100.335052,64.375641 100.895523C64.936111 101.456009,65.696259 101.770950,66.488953 101.770950C67.281647 101.770950,68.041794 101.456009,68.602264 100.895523C69.162750 100.335052,69.477692 99.574905,69.477692 98.782211Z" style="fill: rgb(100.000000%,100.000000%,100.000000%);stroke: none;"></path>
  <path d="M61.078674 88.895889C62.813004 92.230103,64.525879 95.577652,66.488953 98.782211C67.667480 100.706055,68.932755 102.572845,70.262161 104.393829" style="stroke:rgb(0.000000%,0.000000%,0.000000%); stroke-width: 0.498138;stroke-linecap: round;stroke-linejoin: round;stroke-miterlimit: 10.000000;fill: none;"></path>
  <path d="M103.621246 84.872223C103.621246 84.079529,103.306305 83.319382,102.745819 82.758911C102.185349 82.198425,101.425201 81.883484,100.632507 81.883484C99.839813 81.883484,99.079666 82.198425,98.519196 82.758911C97.958710 83.319382,97.643768 84.079529,97.643768 84.872223C97.643768 85.664917,97.958710 86.425064,98.519196 86.985535C99.079666 87.546021,99.839813 87.860962,100.632507 87.860962C101.425201 87.860962,102.185349 87.546021,102.745819 86.985535C103.306305 86.425064,103.621246 85.664917,103.621246 84.872223Z" style="fill: rgb(100.000000%,100.000000%,100.000000%);stroke: none;"></path>
  <path d="M99.933441 88.477554C100.306091 87.345703,100.468979 86.082764,100.632507 84.872223C101.078445 81.571365,101.817703 78.330780,102.676041 75.115768" style="stroke:rgb(0.000000%,0.000000%,0.000000%); stroke-width: 0.498138;stroke-linecap: round;stroke-linejoin: round;stroke-miterlimit: 10.000000;fill: none;"></path>
  <path d="M37.988739 45.451141C37.988739 44.658447,37.673798 43.898300,37.113312 43.337830C36.552841 42.777344,35.792694 42.462402,35.000000 42.462402C34.207306 42.462402,33.447159 42.777344,32.886688 43.337830C32.326202 43.898300,32.011261 44.658447,32.011261 45.451141C32.011261 46.243835,32.326202 47.003983,32.886688 47.564453C33.447159 48.124939,34.207306 48.439880,35.000000 48.439880C35.792694 48.439880,36.552841 48.124939,37.113312 47.564453C37.673798 47.003983,37.988739 46.243835,37.988739 45.451141Z" style="fill: rgb(100.000000%,100.000000%,100.000000%);stroke: none;"></path>
  <path d="M41.119766 20.390625C35.870514 27.437897,33.366013 36.267609,35.000000 45.451141C36.175552 52.058075,39.495956 57.677032,43.429733 63.039581" style="stroke:rgb(0.000000%,0.000000%,0.000000%); stroke-width: 0.498138;stroke-linecap: round;stroke-linejoin: round;stroke-miterlimit: 10.000000;fill: none;"></path>
  <path d="M85.472229 119.006409C85.472229 118.213715,85.157288 117.453568,84.596802 116.893097C84.036331 116.332611,83.276184 116.017670,82.483490 116.017670C81.690796 116.017670,80.930649 116.332611,80.370178 116.893097C79.809692 117.453568,79.494751 118.213715,79.494751 119.006409C79.494751 119.799103,79.809692 120.559250,80.370178 121.119720C80.930649 121.680206,81.690796 121.995148,82.483490 121.995148C83.276184 121.995148,84.036331 121.680206,84.596802 121.119720C85.157288 120.559250,85.472229 119.799103,85.472229 119.006409Z" style="fill: rgb(100.000000%,100.000000%,100.000000%);stroke: none;"></path>
  <path d="M85.596100 115.186890C84.524277 116.425491,83.524429 117.739380,82.483490 119.006409C80.561081 121.346329,78.478607 123.543579,76.385040 125.731445" style="stroke:rgb(0.000000%,0.000000%,0.000000%); stroke-width: 1.494400;stroke-linecap: round;stroke-linejoin: round;stroke-miterlimit: 10.000000;fill: none;"></path>
  <path d="M117.295135 103.519958C117.295135 102.727264,116.980194 101.967117,116.419708 101.406647C115.859238 100.846161,115.099091 100.531219,114.306396 100.531219C113.513702 100.531219,112.753555 100.846161,112.193085 101.406647C111.632599 101.967117,111.317657 102.727264,111.317657 103.519958C111.317657 104.312653,111.632599 105.072800,112.193085 105.633270C112.753555 106.193756,113.513702 106.508698,114.306396 106.508698C115.099091 106.508698,115.859238 106.193756,116.419708 105.633270C116.980194 105.072800,117.295135 104.312653,117.295135 103.519958Z" style="fill: rgb(100.000000%,100.000000%,100.000000%);stroke: none;"></path>
  <path d="M124.661987 102.799011C121.214783 103.110168,117.765381 103.385788,114.306396 103.519958C112.665955 103.583588,111.016113 103.616730,109.381638 103.748352" style="stroke:rgb(0.000000%,0.000000%,0.000000%); stroke-width: 0.498138;stroke-linecap: round;stroke-linejoin: round;stroke-miterlimit: 10.000000;fill: none;"></path>
  <path d="M94.518143 91.767426C94.518143 90.974731,94.203201 90.214584,93.642715 89.654114C93.082245 89.093628,92.322098 88.778687,91.529404 88.778687C90.736710 88.778687,89.976562 89.093628,89.416092 89.654114C88.855606 90.214584,88.540665 90.974731,88.540665 91.767426C88.540665 92.560120,88.855606 93.320267,89.416092 93.880737C89.976562 94.441223,90.736710 94.756165,91.529404 94.756165C92.322098 94.756165,93.082245 94.441223,93.642715 93.880737C94.203201 93.320267,94.518143 92.560120,94.518143 91.767426Z" style="fill: rgb(100.000000%,100.000000%,100.000000%);stroke: none;"></path>
  <path d="M90.720047 87.394485C90.774323 88.799377,91.184860 90.326553,91.529404 91.767426C91.862854 93.161880,92.057281 94.585068,92.272415 96.002853" style="stroke:rgb(0.000000%,0.000000%,0.000000%); stroke-width: 0.498138;stroke-linecap: round;stroke-linejoin: round;stroke-miterlimit: 10.000000;fill: none;"></path>
  <path d="M106.969635 122.543869C106.969635 121.751175,106.654694 120.991028,106.094208 120.430557C105.533737 119.870071,104.773590 119.555130,103.980896 119.555130C103.188202 119.555130,102.428055 119.870071,101.867584 120.430557C101.307098 120.991028,100.992157 121.751175,100.992157 122.543869C100.992157 123.336563,101.307098 124.096710,101.867584 124.657181C102.428055 125.217667,103.188202 125.532608,103.980896 125.532608C104.773590 125.532608,105.533737 125.217667,106.094208 124.657181C106.654694 124.096710,106.969635 123.336563,106.969635 122.543869Z" style="fill: rgb(100.000000%,100.000000%,100.000000%);stroke: none;"></path>
  <path d="M98.342529 125.167511C100.256424 124.451019,102.122620 123.438065,103.980896 122.543869C105.827301 121.655380,107.773483 120.828003,109.503906 119.771469" style="stroke:rgb(0.000000%,0.000000%,0.000000%); stroke-width: 0.498138;stroke-linecap: round;stroke-linejoin: round;stroke-miterlimit: 10.000000;fill: none;"></path>
  <path d="M174.827362 108.387421C174.827362 107.594727,174.512421 106.834579,173.951935 106.274109C173.391464 105.713623,172.631317 105.398682,171.838623 105.398682C171.045929 105.398682,170.285782 105.713623,169.725311 106.274109C169.164825 106.834579,168.849884 107.594727,168.849884 108.387421C168.849884 109.180115,169.164825 109.940262,169.725311 110.500732C170.285782 111.061218,171.045929 111.376160,171.838623 111.376160C172.631317 111.376160,173.391464 111.061218,173.951935 110.500732C174.512421 109.940262,174.827362 109.180115,174.827362 108.387421Z" style="fill: rgb(100.000000%,100.000000%,100.000000%);stroke: none;"></path>
  <path d="M185.386841 128.787628C183.602264 120.756104,178.996460 113.413269,171.838623 108.387421C166.571198 104.688919,160.572113 102.801208,154.285141 101.966660" style="stroke:rgb(0.000000%,0.000000%,0.000000%); stroke-width: 0.498138;stroke-linecap: round;stroke-linejoin: round;stroke-miterlimit: 10.000000;fill: none;"></path>
  <path d="M99.808807 107.954041C99.808807 107.161346,99.493866 106.401199,98.933380 105.840729C98.372910 105.280243,97.612762 104.965302,96.820068 104.965302C96.027374 104.965302,95.267227 105.280243,94.706757 105.840729C94.146271 106.401199,93.831329 107.161346,93.831329 107.954041C93.831329 108.746735,94.146271 109.506882,94.706757 110.067352C95.267227 110.627838,96.027374 110.942780,96.820068 110.942780C97.612762 110.942780,98.372910 110.627838,98.933380 110.067352C99.493866 109.506882,99.808807 108.746735,99.808807 107.954041Z" style="fill: rgb(100.000000%,100.000000%,100.000000%);stroke: none;"></path>
  <path d="M94.792160 104.158279C95.441467 105.434937,96.153351 106.685501,96.820068 107.954041C97.407181 109.071121,97.960358 110.205093,98.502731 111.344452" style="stroke:rgb(0.000000%,0.000000%,0.000000%); stroke-width: 0.498138;stroke-linecap: round;stroke-linejoin: round;stroke-miterlimit: 10.000000;fill: none;"></path>
  <path d="M89.140610 111.819077C87.014435 113.364487,85.361984 115.415344,83.720123 117.471329" style="stroke:rgb(0.000000%,0.000000%,0.000000%); stroke-width: 0.498138;stroke-linecap: round;stroke-linejoin: round;stroke-miterlimit: 10.000000;fill: none;"></path>
  <path d="M85.286453 112.722992C84.653412 114.256622,84.184387 115.863846,83.720123 117.471329C85.185089 116.662979,86.653229 115.858154,88.185318 115.221375Z" style="stroke:rgb(0.000000%,0.000000%,0.000000%); stroke-width: 0.498138;fill: rgb(0.000000%,0.000000%,0.000000%);"></path>
  <path d="M89.140610 111.819077C87.014435 113.364487,85.361984 115.415344,83.720123 117.471329" style="stroke:rgb(0.000000%,0.000000%,0.000000%); stroke-width: 0.498138;stroke-linecap: round;stroke-linejoin: round;stroke-miterlimit: 10.000000;fill: none;"></path>
  <path d="M84.592957 114.601105C84.277542 115.547272,83.997986 116.509262,83.720123 117.471329C84.596893 116.987534,85.474808 116.505005,86.366882 116.058990Z" style="stroke:rgb(0.000000%,0.000000%,0.000000%); stroke-width: 0.498138;fill: rgb(0.000000%,0.000000%,0.000000%);"></path>
  <path d="M74.561539 49.271744C84.822571 46.514053,91.356735 37.096451,99.946594 31.210922" style="stroke:rgb(0.000000%,0.000000%,0.000000%); stroke-width: 0.498138;stroke-linecap: round;stroke-linejoin: round;stroke-miterlimit: 10.000000;fill: none;"></path>
  <path d="M98.395309 33.778885C98.888016 32.904388,99.402405 32.046310,99.946594 31.210922C98.971069 31.416824,98.000595 31.659821,97.033829 31.929764Z" style="stroke:rgb(0.000000%,0.000000%,0.000000%); stroke-width: 0.498138;fill: rgb(0.000000%,0.000000%,0.000000%);"></path>
  <path d="M145.070480 133.098709C139.996323 141.832840,141.564575 152.498611,139.731033 162.262054" style="stroke:rgb(0.000000%,0.000000%,0.000000%); stroke-width: 0.498138;stroke-linecap: round;stroke-linejoin: round;stroke-miterlimit: 10.000000;fill: none;"></path>
  <path d="M139.020950 159.347092C139.285797 160.314850,139.526001 161.286102,139.731033 162.262054C140.276184 161.426971,140.793121 160.570374,141.290176 159.698776Z" style="stroke:rgb(0.000000%,0.000000%,0.000000%); stroke-width: 0.498138;fill: rgb(0.000000%,0.000000%,0.000000%);"></path>
  <path d="M97.975723 91.296402C99.579910 90.198486,100.108414 88.295242,100.423111 86.338272" style="stroke:rgb(0.000000%,0.000000%,0.000000%); stroke-width: 0.498138;stroke-linecap: round;stroke-linejoin: round;stroke-miterlimit: 10.000000;fill: none;"></path>
  <path d="M100.808807 89.313400C100.839645 88.346909,100.660690 87.338272,100.423111 86.338272C99.883987 87.213364,99.297287 88.053116,98.592072 88.714706Z" style="stroke:rgb(0.000000%,0.000000%,0.000000%); stroke-width: 0.498138;fill: rgb(0.000000%,0.000000%,0.000000%);"></path>
  <path d="M55.539612 79.089600C58.817902 84.131531,61.345779 89.607834,64.236008 94.878159" style="stroke:rgb(0.000000%,0.000000%,0.000000%); stroke-width: 0.498138;stroke-linecap: round;stroke-linejoin: round;stroke-miterlimit: 10.000000;fill: none;"></path>
  <path d="M61.914749 92.977722C62.683838 93.617203,63.456375 94.252228,64.236008 94.878159C64.127335 93.884277,64.030121 92.888962,63.938492 91.892975Z" style="stroke:rgb(0.000000%,0.000000%,0.000000%); stroke-width: 0.498138;fill: rgb(0.000000%,0.000000%,0.000000%);"></path>
  <path d="M113.732346 115.624146C115.325897 112.698898,115.013855 109.346802,114.603943 106.011398" style="stroke:rgb(0.000000%,0.000000%,0.000000%); stroke-width: 0.498138;stroke-linecap: round;stroke-linejoin: round;stroke-miterlimit: 10.000000;fill: none;"></path>
  <path d="M116.017380 108.657578C115.586578 107.765747,115.099030 106.886215,114.603943 106.011398C114.335419 106.980057,114.058228 107.946747,113.732224 108.881973Z" style="stroke:rgb(0.000000%,0.000000%,0.000000%); stroke-width: 0.498138;fill: rgb(0.000000%,0.000000%,0.000000%);"></path>
  <path d="M100.120636 114.767181C101.118668 116.856354,102.158401 118.925110,103.199997 120.992935" style="stroke:rgb(0.000000%,0.000000%,0.000000%); stroke-width: 0.498138;stroke-linecap: round;stroke-linejoin: round;stroke-miterlimit: 10.000000;fill: none;"></path>
  <path d="M100.930847 119.030472C101.685410 119.686691,102.442566 120.339966,103.199997 120.992935C103.126160 119.995636,103.052689 118.998306,102.983185 118.000717Z" style="stroke:rgb(0.000000%,0.000000%,0.000000%); stroke-width: 0.498138;fill: rgb(0.000000%,0.000000%,0.000000%);"></path>
  <path d="M135.004410 101.864792C129.484085 102.306915,123.977020 102.929214,118.452988 103.297836" style="stroke:rgb(0.000000%,0.000000%,0.000000%); stroke-width: 0.498138;stroke-linecap: round;stroke-linejoin: round;stroke-miterlimit: 10.000000;fill: none;"></path>
  <path d="M121.132019 101.947815C120.241928 102.403732,119.349289 102.854507,118.452988 103.297836C119.400253 103.618149,120.350174 103.930618,121.301941 104.237640Z" style="stroke:rgb(0.000000%,0.000000%,0.000000%); stroke-width: 0.498138;fill: rgb(0.000000%,0.000000%,0.000000%);"></path>
  <path d="M67.229446 135.110336L73.210739 135.110336L73.210739 127.689941L67.229446 127.689941Z" style="fill: rgb(100.000000%,100.000000%,100.000000%);stroke: none;"></path>
  <path d="M67.229446 137.110336L73.210739 137.110336L73.210739 129.689941L67.229446 129.689941Z" style="fill: rgb(100.000000%,100.000000%,100.000000%);stroke: none;"></path>
  <g transform="translate(67.729446 135.610336)" style="fill: rgb(0.000000%,0.000000%,0.000000%);">
    <use xlink:href="#GLYPHcmr10_49"></use>
  </g>
  <path d="M0.489716 96.755249L6.471008 96.755249L6.471008 89.334854L0.489716 89.334854Z" style="fill: rgb(100.000000%,100.000000%,100.000000%);stroke: none;"></path>
  <path d="M0.489716 98.755249L6.471008 98.755249L6.471008 91.334854L0.489716 91.334854Z" style="fill: rgb(100.000000%,100.000000%,100.000000%);stroke: none;"></path>
  <g transform="translate(0.989716 97.255249)" style="fill: rgb(0.000000%,0.000000%,0.000000%);">
    <use xlink:href="#GLYPHcmr10_50"></use>
  </g>
  <path d="M154.434677 56.960205L160.415970 56.960205L160.415970 49.539810L154.434677 49.539810Z" style="fill: rgb(100.000000%,100.000000%,100.000000%);stroke: none;"></path>
  <path d="M154.434677 58.960205L160.415970 58.960205L160.415970 51.539810L154.434677 51.539810Z" style="fill: rgb(100.000000%,100.000000%,100.000000%);stroke: none;"></path>
  <g transform="translate(154.934677 57.460205)" style="fill: rgb(0.000000%,0.000000%,0.000000%);">
    <use xlink:href="#GLYPHcmr10_51"></use>
  </g>
  <path d="M76.422211 187.262238L82.403503 187.262238L82.403503 179.841843L76.422211 179.841843Z" style="fill: rgb(100.000000%,100.000000%,100.000000%);stroke: none;"></path>
  <path d="M76.422211 189.262238L82.403503 189.262238L82.403503 181.841843L76.422211 181.841843Z" style="fill: rgb(100.000000%,100.000000%,100.000000%);stroke: none;"></path>
  <g transform="translate(76.922211 187.762238)" style="fill: rgb(0.000000%,0.000000%,0.000000%);">
    <use xlink:href="#GLYPHcmr10_52"></use>
  </g>
  <path d="M76.476807 95.021194L82.458099 95.021194L82.458099 87.600800L76.476807 87.600800Z" style="fill: rgb(100.000000%,100.000000%,100.000000%);stroke: none;"></path>
  <path d="M76.476807 97.021194L82.458099 97.021194L82.458099 89.600800L76.476807 89.600800Z" style="fill: rgb(100.000000%,100.000000%,100.000000%);stroke: none;"></path>
  <g transform="translate(76.976807 95.521194)" style="fill: rgb(0.000000%,0.000000%,0.000000%);">
    <use xlink:href="#GLYPHcmr10_53"></use>
  </g>
  <path d="M102.443375 68.222961L108.424667 68.222961L108.424667 60.802567L102.443375 60.802567Z" style="fill: rgb(100.000000%,100.000000%,100.000000%);stroke: none;"></path>
  <path d="M102.443375 70.222961L108.424667 70.222961L108.424667 62.802567L102.443375 62.802567Z" style="fill: rgb(100.000000%,100.000000%,100.000000%);stroke: none;"></path>
  <g transform="translate(102.943375 68.722961)" style="fill: rgb(0.000000%,0.000000%,0.000000%);">
    <use xlink:href="#GLYPHcmr10_54"></use>
  </g>
  <path d="M60.717392 8.734894L66.698685 8.734894L66.698685 1.314499L60.717392 1.314499Z" style="fill: rgb(100.000000%,100.000000%,100.000000%);stroke: none;"></path>
  <path d="M60.717392 10.734894L66.698685 10.734894L66.698685 3.314499L60.717392 3.314499Z" style="fill: rgb(100.000000%,100.000000%,100.000000%);stroke: none;"></path>
  <g transform="translate(61.217392 9.234894)" style="fill: rgb(0.000000%,0.000000%,0.000000%);">
    <use xlink:href="#GLYPHcmr10_55"></use>
  </g>
  <path d="M89.427216 128.722610L95.408508 128.722610L95.408508 121.302216L89.427216 121.302216Z" style="fill: rgb(100.000000%,100.000000%,100.000000%);stroke: none;"></path>
  <path d="M89.427216 130.722610L95.408508 130.722610L95.408508 123.302216L89.427216 123.302216Z" style="fill: rgb(100.000000%,100.000000%,100.000000%);stroke: none;"></path>
  <g transform="translate(89.927216 129.222610)" style="fill: rgb(0.000000%,0.000000%,0.000000%);">
    <use xlink:href="#GLYPHcmr10_56"></use>
  </g>
  <path d="M108.223587 93.691605L114.204880 93.691605L114.204880 86.271210L108.223587 86.271210Z" style="fill: rgb(100.000000%,100.000000%,100.000000%);stroke: none;"></path>
  <path d="M108.223587 95.691605L114.204880 95.691605L114.204880 88.271210L108.223587 88.271210Z" style="fill: rgb(100.000000%,100.000000%,100.000000%);stroke: none;"></path>
  <g transform="translate(108.723587 94.191605)" style="fill: rgb(0.000000%,0.000000%,0.000000%);">
    <use xlink:href="#GLYPHcmr10_57"></use>
  </g>
  <path d="M87.658386 102.916046L98.621094 102.916046L98.621094 95.495651L87.658386 95.495651Z" style="fill: rgb(100.000000%,100.000000%,100.000000%);stroke: none;"></path>
  <path d="M87.658386 104.916046L98.621094 104.916046L98.621094 97.495651L87.658386 97.495651Z" style="fill: rgb(100.000000%,100.000000%,100.000000%);stroke: none;"></path>
  <g transform="translate(88.158386 103.416046)" style="fill: rgb(0.000000%,0.000000%,0.000000%);">
    <use xlink:href="#GLYPHcmr10_49"></use>
    <use xlink:href="#GLYPHcmr10_48" x="5.000095"></use>
  </g>
  <path d="M107.529709 143.307861L118.492416 143.307861L118.492416 135.887466L107.529709 135.887466Z" style="fill: rgb(100.000000%,100.000000%,100.000000%);stroke: none;"></path>
  <path d="M107.529709 145.307861L118.492416 145.307861L118.492416 137.887466L107.529709 137.887466Z" style="fill: rgb(100.000000%,100.000000%,100.000000%);stroke: none;"></path>
  <g transform="translate(108.029709 143.807861)" style="fill: rgb(0.000000%,0.000000%,0.000000%);">
    <use xlink:href="#GLYPHcmr10_49"></use>
    <use xlink:href="#GLYPHcmr10_49" x="5.000095"></use>
  </g>
  <path d="M176.526352 156.030121L187.489059 156.030121L187.489059 148.609726L176.526352 148.609726Z" style="fill: rgb(100.000000%,100.000000%,100.000000%);stroke: none;"></path>
  <path d="M176.526352 158.030121L187.489059 158.030121L187.489059 150.609726L176.526352 150.609726Z" style="fill: rgb(100.000000%,100.000000%,100.000000%);stroke: none;"></path>
  <g transform="translate(177.026352 156.530121)" style="fill: rgb(0.000000%,0.000000%,0.000000%);">
    <use xlink:href="#GLYPHcmr10_49"></use>
    <use xlink:href="#GLYPHcmr10_50" x="5.000095"></use>
  </g>
</svg>
