<?xml version="1.0"?>
<!-- Created by MetaPost 1.999 on 2021.07.06:0015 -->
<svg version="1.1" xmlns="http://www.w3.org/2000/svg" xmlns:xlink="http://www.w3.org/1999/xlink" width="193.426041" height="194.812866" viewBox="0 0 193.426041 194.812866">
<!-- Original BoundingBox: -34.699875 -52.000183 158.726166 142.812683 -->
  <defs>
    <g transform="scale(0.009963,0.009963)" id="GLYPHcmr10_48">
      <path style="fill-rule: evenodd;" d="M460.000000 -320.000000C460.000000 -400.000000,455.000000 -480.000000,420.000000 -554.000000C374.000000 -650.000000,292.000000 -666.000000,250.000000 -666.000000C190.000000 -666.000000,117.000000 -640.000000,76.000000 -547.000000C44.000000 -478.000000,39.000000 -400.000000,39.000000 -320.000000C39.000000 -245.000000,43.000000 -155.000000,84.000000 -79.000000C127.000000 2.000000,200.000000 22.000000,249.000000 22.000000C303.000000 22.000000,379.000000 1.000000,423.000000 -94.000000C455.000000 -163.000000,460.000000 -241.000000,460.000000 -320.000000M249.000000 -0.000000C210.000000 -0.000000,151.000000 -25.000000,133.000000 -121.000000C122.000000 -181.000000,122.000000 -273.000000,122.000000 -332.000000C122.000000 -396.000000,122.000000 -462.000000,130.000000 -516.000000C149.000000 -635.000000,224.000000 -644.000000,249.000000 -644.000000C282.000000 -644.000000,348.000000 -626.000000,367.000000 -527.000000C377.000000 -471.000000,377.000000 -395.000000,377.000000 -332.000000C377.000000 -257.000000,377.000000 -189.000000,366.000000 -125.000000C351.000000 -30.000000,294.000000 -0.000000,249.000000 -0.000000"></path>
    </g>
    <g transform="scale(0.009963,0.009963)" id="GLYPHcmr10_49">
      <path style="fill-rule: evenodd;" d="M294.000000 -640.000000C294.000000 -664.000000,294.000000 -666.000000,271.000000 -666.000000C209.000000 -602.000000,121.000000 -602.000000,89.000000 -602.000000L89.000000 -571.000000C109.000000 -571.000000,168.000000 -571.000000,220.000000 -597.000000L220.000000 -79.000000C220.000000 -43.000000,217.000000 -31.000000,127.000000 -31.000000L95.000000 -31.000000L95.000000 -0.000000L257.000000 -0.000000L130.000000 -3.000000L217.000000 -3.000000L257.000000 -3.000000L297.000000 -3.000000L384.000000 -3.000000L419.000000 -0.000000L419.000000 -31.000000L387.000000 -31.000000C297.000000 -31.000000,294.000000 -42.000000,294.000000 -79.000000"></path>
    </g>
    <g transform="scale(0.009963,0.009963)" id="GLYPHcmr10_50">
      <path style="fill-rule: evenodd;" d="M127.000000 -77.000000L233.000000 -180.000000C389.000000 -318.000000,449.000000 -372.000000,449.000000 -472.000000C449.000000 -586.000000,359.000000 -666.000000,237.000000 -666.000000C124.000000 -666.000000,50.000000 -574.000000,50.000000 -485.000000C50.000000 -429.000000,100.000000 -429.000000,103.000000 -429.000000C120.000000 -429.000000,155.000000 -441.000000,155.000000 -482.000000C155.000000 -508.000000,137.000000 -534.000000,102.000000 -534.000000C94.000000 -534.000000,92.000000 -534.000000,89.000000 -533.000000C112.000000 -598.000000,166.000000 -635.000000,224.000000 -635.000000C315.000000 -635.000000,358.000000 -554.000000,358.000000 -472.000000C358.000000 -392.000000,308.000000 -313.000000,253.000000 -251.000000L61.000000 -37.000000C50.000000 -26.000000,50.000000 -24.000000,50.000000 -0.000000L421.000000 -0.000000L449.000000 -174.000000L424.000000 -174.000000C419.000000 -144.000000,412.000000 -100.000000,402.000000 -85.000000C395.000000 -77.000000,329.000000 -77.000000,307.000000 -77.000000"></path>
    </g>
    <g transform="scale(0.009963,0.009963)" id="GLYPHcmr10_51">
      <path style="fill-rule: evenodd;" d="M290.000000 -352.000000C372.000000 -379.000000,430.000000 -449.000000,430.000000 -528.000000C430.000000 -610.000000,342.000000 -666.000000,246.000000 -666.000000C145.000000 -666.000000,69.000000 -606.000000,69.000000 -530.000000C69.000000 -497.000000,91.000000 -478.000000,120.000000 -478.000000C151.000000 -478.000000,171.000000 -500.000000,171.000000 -529.000000C171.000000 -579.000000,124.000000 -579.000000,109.000000 -579.000000C140.000000 -628.000000,206.000000 -641.000000,242.000000 -641.000000C283.000000 -641.000000,338.000000 -619.000000,338.000000 -529.000000C338.000000 -517.000000,336.000000 -459.000000,310.000000 -415.000000C280.000000 -367.000000,246.000000 -364.000000,221.000000 -363.000000C213.000000 -362.000000,189.000000 -360.000000,182.000000 -360.000000C174.000000 -359.000000,167.000000 -358.000000,167.000000 -348.000000C167.000000 -337.000000,174.000000 -337.000000,191.000000 -337.000000L235.000000 -337.000000C317.000000 -337.000000,354.000000 -269.000000,354.000000 -171.000000C354.000000 -35.000000,285.000000 -6.000000,241.000000 -6.000000C198.000000 -6.000000,123.000000 -23.000000,88.000000 -82.000000C123.000000 -77.000000,154.000000 -99.000000,154.000000 -137.000000C154.000000 -173.000000,127.000000 -193.000000,98.000000 -193.000000C74.000000 -193.000000,42.000000 -179.000000,42.000000 -135.000000C42.000000 -44.000000,135.000000 22.000000,244.000000 22.000000C366.000000 22.000000,457.000000 -69.000000,457.000000 -171.000000C457.000000 -253.000000,394.000000 -331.000000,290.000000 -352.000000"></path>
    </g>
    <g transform="scale(0.009963,0.009963)" id="GLYPHcmr10_52">
      <path style="fill-rule: evenodd;" d="M294.000000 -165.000000L294.000000 -78.000000C294.000000 -42.000000,292.000000 -31.000000,218.000000 -31.000000L197.000000 -31.000000L197.000000 -0.000000L332.000000 -0.000000L238.000000 -3.000000L290.000000 -3.000000L332.000000 -3.000000L374.000000 -3.000000L427.000000 -3.000000L468.000000 -0.000000L468.000000 -31.000000L447.000000 -31.000000C373.000000 -31.000000,371.000000 -42.000000,371.000000 -78.000000L371.000000 -165.000000L471.000000 -165.000000L471.000000 -196.000000L371.000000 -196.000000L371.000000 -651.000000C371.000000 -671.000000,371.000000 -677.000000,355.000000 -677.000000C346.000000 -677.000000,343.000000 -677.000000,335.000000 -665.000000L28.000000 -196.000000L28.000000 -165.000000M300.000000 -196.000000L56.000000 -196.000000L300.000000 -569.000000"></path>
    </g>
    <g transform="scale(0.009963,0.009963)" id="GLYPHcmr10_53">
      <path style="fill-rule: evenodd;" d="M449.000000 -201.000000C449.000000 -320.000000,367.000000 -420.000000,259.000000 -420.000000C211.000000 -420.000000,168.000000 -404.000000,132.000000 -369.000000L132.000000 -564.000000C152.000000 -558.000000,185.000000 -551.000000,217.000000 -551.000000C340.000000 -551.000000,410.000000 -642.000000,410.000000 -655.000000C410.000000 -661.000000,407.000000 -666.000000,400.000000 -666.000000C399.000000 -666.000000,397.000000 -666.000000,392.000000 -663.000000C372.000000 -654.000000,323.000000 -634.000000,256.000000 -634.000000C216.000000 -634.000000,170.000000 -641.000000,123.000000 -662.000000C115.000000 -665.000000,113.000000 -665.000000,111.000000 -665.000000C101.000000 -665.000000,101.000000 -657.000000,101.000000 -641.000000L101.000000 -345.000000C101.000000 -327.000000,101.000000 -319.000000,115.000000 -319.000000C122.000000 -319.000000,124.000000 -322.000000,128.000000 -328.000000C139.000000 -344.000000,176.000000 -398.000000,257.000000 -398.000000C309.000000 -398.000000,334.000000 -352.000000,342.000000 -334.000000C358.000000 -297.000000,360.000000 -258.000000,360.000000 -208.000000C360.000000 -173.000000,360.000000 -113.000000,336.000000 -71.000000C312.000000 -32.000000,275.000000 -6.000000,229.000000 -6.000000C156.000000 -6.000000,99.000000 -59.000000,82.000000 -118.000000C85.000000 -117.000000,88.000000 -116.000000,99.000000 -116.000000C132.000000 -116.000000,149.000000 -141.000000,149.000000 -165.000000C149.000000 -189.000000,132.000000 -214.000000,99.000000 -214.000000C85.000000 -214.000000,50.000000 -207.000000,50.000000 -161.000000C50.000000 -75.000000,119.000000 22.000000,231.000000 22.000000C347.000000 22.000000,449.000000 -74.000000,449.000000 -201.000000"></path>
    </g>
    <g transform="scale(0.009963,0.009963)" id="GLYPHcmr10_54">
      <path style="fill-rule: evenodd;" d="M132.000000 -328.000000L132.000000 -352.000000C132.000000 -605.000000,256.000000 -641.000000,307.000000 -641.000000C331.000000 -641.000000,373.000000 -635.000000,395.000000 -601.000000C380.000000 -601.000000,340.000000 -601.000000,340.000000 -556.000000C340.000000 -525.000000,364.000000 -510.000000,386.000000 -510.000000C402.000000 -510.000000,432.000000 -519.000000,432.000000 -558.000000C432.000000 -618.000000,388.000000 -666.000000,305.000000 -666.000000C177.000000 -666.000000,42.000000 -537.000000,42.000000 -316.000000C42.000000 -49.000000,158.000000 22.000000,251.000000 22.000000C362.000000 22.000000,457.000000 -72.000000,457.000000 -204.000000C457.000000 -331.000000,368.000000 -427.000000,257.000000 -427.000000C189.000000 -427.000000,152.000000 -376.000000,132.000000 -328.000000M251.000000 -6.000000C188.000000 -6.000000,158.000000 -66.000000,152.000000 -81.000000C134.000000 -128.000000,134.000000 -208.000000,134.000000 -226.000000C134.000000 -304.000000,166.000000 -404.000000,256.000000 -404.000000C272.000000 -404.000000,318.000000 -404.000000,349.000000 -342.000000C367.000000 -305.000000,367.000000 -254.000000,367.000000 -205.000000C367.000000 -157.000000,367.000000 -107.000000,350.000000 -71.000000C320.000000 -11.000000,274.000000 -6.000000,251.000000 -6.000000"></path>
    </g>
    <g transform="scale(0.009963,0.009963)" id="GLYPHcmr10_55">
      <path style="fill-rule: evenodd;" d="M476.000000 -609.000000C485.000000 -621.000000,485.000000 -623.000000,485.000000 -644.000000L242.000000 -644.000000C120.000000 -644.000000,118.000000 -657.000000,114.000000 -676.000000L89.000000 -676.000000L56.000000 -470.000000L81.000000 -470.000000C84.000000 -486.000000,93.000000 -549.000000,106.000000 -561.000000C113.000000 -567.000000,191.000000 -567.000000,204.000000 -567.000000L411.000000 -567.000000C400.000000 -551.000000,321.000000 -442.000000,299.000000 -409.000000C209.000000 -274.000000,176.000000 -135.000000,176.000000 -33.000000C176.000000 -23.000000,176.000000 22.000000,222.000000 22.000000C268.000000 22.000000,268.000000 -23.000000,268.000000 -33.000000L268.000000 -84.000000C268.000000 -139.000000,271.000000 -194.000000,279.000000 -248.000000C283.000000 -271.000000,297.000000 -357.000000,341.000000 -419.000000"></path>
    </g>
    <g transform="scale(0.009963,0.009963)" id="GLYPHcmr10_56">
      <path style="fill-rule: evenodd;" d="M163.000000 -457.000000C117.000000 -487.000000,113.000000 -521.000000,113.000000 -538.000000C113.000000 -599.000000,178.000000 -641.000000,249.000000 -641.000000C322.000000 -641.000000,386.000000 -589.000000,386.000000 -517.000000C386.000000 -460.000000,347.000000 -412.000000,287.000000 -377.000000M309.000000 -362.000000C381.000000 -399.000000,430.000000 -451.000000,430.000000 -517.000000C430.000000 -609.000000,341.000000 -666.000000,250.000000 -666.000000C150.000000 -666.000000,69.000000 -592.000000,69.000000 -499.000000C69.000000 -481.000000,71.000000 -436.000000,113.000000 -389.000000C124.000000 -377.000000,161.000000 -352.000000,186.000000 -335.000000C128.000000 -306.000000,42.000000 -250.000000,42.000000 -151.000000C42.000000 -45.000000,144.000000 22.000000,249.000000 22.000000C362.000000 22.000000,457.000000 -61.000000,457.000000 -168.000000C457.000000 -204.000000,446.000000 -249.000000,408.000000 -291.000000C389.000000 -312.000000,373.000000 -322.000000,309.000000 -362.000000M209.000000 -320.000000L332.000000 -242.000000C360.000000 -223.000000,407.000000 -193.000000,407.000000 -132.000000C407.000000 -58.000000,332.000000 -6.000000,250.000000 -6.000000C164.000000 -6.000000,92.000000 -68.000000,92.000000 -151.000000C92.000000 -209.000000,124.000000 -273.000000,209.000000 -320.000000"></path>
    </g>
    <g transform="scale(0.009963,0.009963)" id="GLYPHcmr10_57">
      <path style="fill-rule: evenodd;" d="M367.000000 -318.000000L367.000000 -286.000000C367.000000 -52.000000,263.000000 -6.000000,205.000000 -6.000000C188.000000 -6.000000,134.000000 -8.000000,107.000000 -42.000000C151.000000 -42.000000,159.000000 -71.000000,159.000000 -88.000000C159.000000 -119.000000,135.000000 -134.000000,113.000000 -134.000000C97.000000 -134.000000,67.000000 -125.000000,67.000000 -86.000000C67.000000 -19.000000,121.000000 22.000000,206.000000 22.000000C335.000000 22.000000,457.000000 -114.000000,457.000000 -329.000000C457.000000 -598.000000,342.000000 -666.000000,253.000000 -666.000000C198.000000 -666.000000,149.000000 -648.000000,106.000000 -603.000000C65.000000 -558.000000,42.000000 -516.000000,42.000000 -441.000000C42.000000 -316.000000,130.000000 -218.000000,242.000000 -218.000000C303.000000 -218.000000,344.000000 -260.000000,367.000000 -318.000000M243.000000 -241.000000C227.000000 -241.000000,181.000000 -241.000000,150.000000 -304.000000C132.000000 -341.000000,132.000000 -391.000000,132.000000 -440.000000C132.000000 -494.000000,132.000000 -541.000000,153.000000 -578.000000C180.000000 -628.000000,218.000000 -641.000000,253.000000 -641.000000C299.000000 -641.000000,332.000000 -607.000000,349.000000 -562.000000C361.000000 -530.000000,365.000000 -467.000000,365.000000 -421.000000C365.000000 -338.000000,331.000000 -241.000000,243.000000 -241.000000"></path>
    </g>
  </defs>
  <path d="M64.400467 143.321808C64.400467 142.529114,64.085526 141.768967,63.525040 141.208496C62.964569 140.648010,62.204422 140.333069,61.411728 140.333069C60.619034 140.333069,59.858887 140.648010,59.298416 141.208496C58.737930 141.768967,58.422989 142.529114,58.422989 143.321808C58.422989 144.114502,58.737930 144.874649,59.298416 145.435120C59.858887 145.995605,60.619034 146.310547,61.411728 146.310547C62.204422 146.310547,62.964569 145.995605,63.525040 145.435120C64.085526 144.874649,64.400467 144.114502,64.400467 143.321808Z" style="fill: rgb(100.000000%,100.000000%,100.000000%);stroke: none;"></path>
  <path d="M74.231613 133.707443C74.231613 132.914749,73.916672 132.154602,73.356186 131.594131C72.795715 131.033646,72.035568 130.718704,71.242874 130.718704C70.450180 130.718704,69.690033 131.033646,69.129562 131.594131C68.569077 132.154602,68.254135 132.914749,68.254135 133.707443C68.254135 134.500137,68.569077 135.260284,69.129562 135.820755C69.690033 136.381241,70.450180 136.696182,71.242874 136.696182C72.035568 136.696182,72.795715 136.381241,73.356186 135.820755C73.916672 135.260284,74.231613 134.500137,74.231613 133.707443Z" style="fill: rgb(100.000000%,100.000000%,100.000000%);stroke: none;"></path>
  <path d="M16.757782 134.932785C16.757782 134.140091,16.442841 133.379944,15.882355 132.819473C15.321884 132.258987,14.561737 131.944046,13.769043 131.944046C12.976349 131.944046,12.216202 132.258987,11.655731 132.819473C11.095245 133.379944,10.780304 134.140091,10.780304 134.932785C10.780304 135.725479,11.095245 136.485626,11.655731 137.046097C12.216202 137.606583,12.976349 137.921524,13.769043 137.921524C14.561737 137.921524,15.321884 137.606583,15.882355 137.046097C16.442841 136.485626,16.757782 135.725479,16.757782 134.932785Z" style="fill: rgb(100.000000%,100.000000%,100.000000%);stroke: none;"></path>
  <path d="M49.970352 146.534836C49.970352 145.742142,49.655411 144.981995,49.094925 144.421524C48.534454 143.861038,47.774307 143.546097,46.981613 143.546097C46.188919 143.546097,45.428772 143.861038,44.868301 144.421524C44.307816 144.981995,43.992874 145.742142,43.992874 146.534836C43.992874 147.327530,44.307816 148.087677,44.868301 148.648148C45.428772 149.208633,46.188919 149.523575,46.981613 149.523575C47.774307 149.523575,48.534454 149.208633,49.094925 148.648148C49.655411 148.087677,49.970352 147.327530,49.970352 146.534836Z" style="fill: rgb(100.000000%,100.000000%,100.000000%);stroke: none;"></path>
  <path d="M5.277603 68.317459C5.277603 67.524765,4.962662 66.764618,4.402176 66.204147C3.841705 65.643661,3.081558 65.328720,2.288864 65.328720C1.496170 65.328720,0.736023 65.643661,0.175552 66.204147C-0.384933 66.764618,-0.699875 67.524765,-0.699875 68.317459C-0.699875 69.110153,-0.384933 69.870300,0.175552 70.430771C0.736023 70.991257,1.496170 71.306198,2.288864 71.306198C3.081558 71.306198,3.841705 70.991257,4.402176 70.430771C4.962662 69.870300,5.277603 69.110153,5.277603 68.317459Z" style="fill: rgb(100.000000%,100.000000%,100.000000%);stroke: none;"></path>
  <path d="M6.898727 113.294968C6.898727 112.502274,6.583786 111.742126,6.023300 111.181656C5.462830 110.621170,4.702682 110.306229,3.909988 110.306229C3.117294 110.306229,2.357147 110.621170,1.796677 111.181656C1.236191 111.742126,0.921249 112.502274,0.921249 113.294968C0.921249 114.087662,1.236191 114.847809,1.796677 115.408279C2.357147 115.968765,3.117294 116.283707,3.909988 116.283707C4.702682 116.283707,5.462830 115.968765,6.023300 115.408279C6.583786 114.847809,6.898727 114.087662,6.898727 113.294968Z" style="fill: rgb(100.000000%,100.000000%,100.000000%);stroke: none;"></path>
  <path d="M49.855560 40.578369C49.855560 39.785675,49.540619 39.025528,48.980133 38.465057C48.419662 37.904572,47.659515 37.589630,46.866821 37.589630C46.074127 37.589630,45.313980 37.904572,44.753510 38.465057C44.193024 39.025528,43.878082 39.785675,43.878082 40.578369C43.878082 41.371063,44.193024 42.131210,44.753510 42.691681C45.313980 43.252167,46.074127 43.567108,46.866821 43.567108C47.659515 43.567108,48.419662 43.252167,48.980133 42.691681C49.540619 42.131210,49.855560 41.371063,49.855560 40.578369Z" style="fill: rgb(100.000000%,100.000000%,100.000000%);stroke: none;"></path>
  <path d="M15.760864 45.310516C15.760864 44.517822,15.445923 43.757675,14.885437 43.197205C14.324966 42.636719,13.564819 42.321777,12.772125 42.321777C11.979431 42.321777,11.219284 42.636719,10.658813 43.197205C10.098328 43.757675,9.783386 44.517822,9.783386 45.310516C9.783386 46.103210,10.098328 46.863358,10.658813 47.423828C11.219284 47.984314,11.979431 48.299255,12.772125 48.299255C13.564819 48.299255,14.324966 47.984314,14.885437 47.423828C15.445923 46.863358,15.760864 46.103210,15.760864 45.310516Z" style="fill: rgb(100.000000%,100.000000%,100.000000%);stroke: none;"></path>
  <path d="M87.765762 43.263062C87.765762 42.470367,87.450821 41.710220,86.890335 41.149750C86.329865 40.589264,85.569717 40.274323,84.777023 40.274323C83.984329 40.274323,83.224182 40.589264,82.663712 41.149750C82.103226 41.710220,81.788284 42.470367,81.788284 43.263062C81.788284 44.055756,82.103226 44.815903,82.663712 45.376373C83.224182 45.936859,83.984329 46.251801,84.777023 46.251801C85.569717 46.251801,86.329865 45.936859,86.890335 45.376373C87.450821 44.815903,87.765762 44.055756,87.765762 43.263062Z" style="fill: rgb(100.000000%,100.000000%,100.000000%);stroke: none;"></path>
  <path d="M62.422943 48.541107C62.422943 47.748413,62.108002 46.988266,61.547516 46.427795C60.987045 45.867310,60.226898 45.552368,59.434204 45.552368C58.641510 45.552368,57.881363 45.867310,57.320892 46.427795C56.760406 46.988266,56.445465 47.748413,56.445465 48.541107C56.445465 49.333801,56.760406 50.093948,57.320892 50.654419C57.881363 51.214905,58.641510 51.529846,59.434204 51.529846C60.226898 51.529846,60.987045 51.214905,61.547516 50.654419C62.108002 50.093948,62.422943 49.333801,62.422943 48.541107Z" style="fill: rgb(100.000000%,100.000000%,100.000000%);stroke: none;"></path>
  <path d="M128.760284 22.258438C128.760284 21.465744,128.445343 20.705597,127.884857 20.145126C127.324387 19.584641,126.564240 19.269699,125.771545 19.269699C124.978851 19.269699,124.218704 19.584641,123.658234 20.145126C123.097748 20.705597,122.782806 21.465744,122.782806 22.258438C122.782806 23.051132,123.097748 23.811279,123.658234 24.371750C124.218704 24.932236,124.978851 25.247177,125.771545 25.247177C126.564240 25.247177,127.324387 24.932236,127.884857 24.371750C128.445343 23.811279,128.760284 23.051132,128.760284 22.258438Z" style="fill: rgb(100.000000%,100.000000%,100.000000%);stroke: none;"></path>
  <path d="M96.083374 31.248184C96.083374 30.455490,95.768433 29.695343,95.207947 29.134872C94.647476 28.574387,93.887329 28.259445,93.094635 28.259445C92.301941 28.259445,91.541794 28.574387,90.981323 29.134872C90.420837 29.695343,90.105896 30.455490,90.105896 31.248184C90.105896 32.040878,90.420837 32.801025,90.981323 33.361496C91.541794 33.921982,92.301941 34.236923,93.094635 34.236923C93.887329 34.236923,94.647476 33.921982,95.207947 33.361496C95.768433 32.801025,96.083374 32.040878,96.083374 31.248184Z" style="fill: rgb(100.000000%,100.000000%,100.000000%);stroke: none;"></path>
  <path d="M173.395538 73.141174C173.395538 72.348480,173.080597 71.588333,172.520111 71.027863C171.959641 70.467377,171.199493 70.152435,170.406799 70.152435C169.614105 70.152435,168.853958 70.467377,168.293488 71.027863C167.733002 71.588333,167.418060 72.348480,167.418060 73.141174C167.418060 73.933868,167.733002 74.694016,168.293488 75.254486C168.853958 75.814972,169.614105 76.129913,170.406799 76.129913C171.199493 76.129913,171.959641 75.814972,172.520111 75.254486C173.080597 74.694016,173.395538 73.933868,173.395538 73.141174Z" style="fill: rgb(100.000000%,100.000000%,100.000000%);stroke: none;"></path>
  <path d="M146.044266 39.292023C146.044266 38.499329,145.729324 37.739182,145.168839 37.178711C144.608368 36.618225,143.848221 36.303284,143.055527 36.303284C142.262833 36.303284,141.502686 36.618225,140.942215 37.178711C140.381729 37.739182,140.066788 38.499329,140.066788 39.292023C140.066788 40.084717,140.381729 40.844864,140.942215 41.405334C141.502686 41.965820,142.262833 42.280762,143.055527 42.280762C143.848221 42.280762,144.608368 41.965820,145.168839 41.405334C145.729324 40.844864,146.044266 40.084717,146.044266 39.292023Z" style="fill: rgb(100.000000%,100.000000%,100.000000%);stroke: none;"></path>
  <path d="M167.209076 121.236862C167.209076 120.444168,166.894135 119.684021,166.333649 119.123550C165.773178 118.563065,165.013031 118.248123,164.220337 118.248123C163.427643 118.248123,162.667496 118.563065,162.107025 119.123550C161.546539 119.684021,161.231598 120.444168,161.231598 121.236862C161.231598 122.029556,161.546539 122.789703,162.107025 123.350174C162.667496 123.910660,163.427643 124.225601,164.220337 124.225601C165.013031 124.225601,165.773178 123.910660,166.333649 123.350174C166.894135 122.789703,167.209076 122.029556,167.209076 121.236862Z" style="fill: rgb(100.000000%,100.000000%,100.000000%);stroke: none;"></path>
  <path d="M185.489365 93.771591C185.489365 92.978897,185.174423 92.218750,184.613937 91.658279C184.053467 91.097794,183.293320 90.782852,182.500626 90.782852C181.707932 90.782852,180.947784 91.097794,180.387314 91.658279C179.826828 92.218750,179.511887 92.978897,179.511887 93.771591C179.511887 94.564285,179.826828 95.324432,180.387314 95.884903C180.947784 96.445389,181.707932 96.760330,182.500626 96.760330C183.293320 96.760330,184.053467 96.445389,184.613937 95.884903C185.174423 95.324432,185.489365 94.564285,185.489365 93.771591Z" style="fill: rgb(100.000000%,100.000000%,100.000000%);stroke: none;"></path>
  <path d="M140.053864 145.943436C140.053864 145.150742,139.738922 144.390594,139.178436 143.830124C138.617966 143.269638,137.857819 142.954697,137.065125 142.954697C136.272430 142.954697,135.512283 143.269638,134.951813 143.830124C134.391327 144.390594,134.076385 145.150742,134.076385 145.943436C134.076385 146.736130,134.391327 147.496277,134.951813 148.056747C135.512283 148.617233,136.272430 148.932175,137.065125 148.932175C137.857819 148.932175,138.617966 148.617233,139.178436 148.056747C139.738922 147.496277,140.053864 146.736130,140.053864 145.943436Z" style="fill: rgb(100.000000%,100.000000%,100.000000%);stroke: none;"></path>
  <path d="M152.662720 124.338974C152.662720 123.546280,152.347778 122.786133,151.787292 122.225662C151.226822 121.665176,150.466675 121.350235,149.673981 121.350235C148.881287 121.350235,148.121140 121.665176,147.560669 122.225662C147.000183 122.786133,146.685242 123.546280,146.685242 124.338974C146.685242 125.131668,147.000183 125.891815,147.560669 126.452286C148.121140 127.012772,148.881287 127.327713,149.673981 127.327713C150.466675 127.327713,151.226822 127.012772,151.787292 126.452286C152.347778 125.891815,152.662720 125.131668,152.662720 124.338974Z" style="fill: rgb(100.000000%,100.000000%,100.000000%);stroke: none;"></path>
  <path d="M129.569168 190.678635C129.569168 189.885941,129.254227 189.125793,128.693741 188.565323C128.133270 188.004837,127.373123 187.689896,126.580429 187.689896C125.787735 187.689896,125.027588 188.004837,124.467117 188.565323C123.906631 189.125793,123.591690 189.885941,123.591690 190.678635C123.591690 191.471329,123.906631 192.231476,124.467117 192.791946C125.027588 193.352432,125.787735 193.667374,126.580429 193.667374C127.373123 193.667374,128.133270 193.352432,128.693741 192.791946C129.254227 192.231476,129.569168 191.471329,129.569168 190.678635Z" style="fill: rgb(100.000000%,100.000000%,100.000000%);stroke: none;"></path>
  <path d="M144.014496 159.532822C144.014496 158.740128,143.699554 157.979980,143.139069 157.419510C142.578598 156.859024,141.818451 156.544083,141.025757 156.544083C140.233063 156.544083,139.472916 156.859024,138.912445 157.419510C138.351959 157.979980,138.037018 158.740128,138.037018 159.532822C138.037018 160.325516,138.351959 161.085663,138.912445 161.646133C139.472916 162.206619,140.233063 162.521561,141.025757 162.521561C141.818451 162.521561,142.578598 162.206619,143.139069 161.646133C143.699554 161.085663,144.014496 160.325516,144.014496 159.532822Z" style="fill: rgb(100.000000%,100.000000%,100.000000%);stroke: none;"></path>
  <path d="M57.232513 177.643631C57.232513 176.850937,56.917572 176.090790,56.357086 175.530319C55.796616 174.969833,55.036469 174.654892,54.243774 174.654892C53.451080 174.654892,52.690933 174.969833,52.130463 175.530319C51.569977 176.090790,51.255035 176.850937,51.255035 177.643631C51.255035 178.436325,51.569977 179.196472,52.130463 179.756943C52.690933 180.317429,53.451080 180.632370,54.243774 180.632370C55.036469 180.632370,55.796616 180.317429,56.357086 179.756943C56.917572 179.196472,57.232513 178.436325,57.232513 177.643631Z" style="fill: rgb(100.000000%,100.000000%,100.000000%);stroke: none;"></path>
  <path d="M103.089401 191.011444C103.089401 190.218750,102.774460 189.458603,102.213974 188.898132C101.653503 188.337646,100.893356 188.022705,100.100662 188.022705C99.307968 188.022705,98.547821 188.337646,97.987350 188.898132C97.426865 189.458603,97.111923 190.218750,97.111923 191.011444C97.111923 191.804138,97.426865 192.564285,97.987350 193.124756C98.547821 193.685242,99.307968 194.000183,100.100662 194.000183C100.893356 194.000183,101.653503 193.685242,102.213974 193.124756C102.774460 192.564285,103.089401 191.804138,103.089401 191.011444Z" style="fill: rgb(100.000000%,100.000000%,100.000000%);stroke: none;"></path>
  <path d="M38.009598 129.470078C38.009598 128.677383,37.694656 127.917236,37.134171 127.356766C36.573700 126.796280,35.813553 126.481339,35.020859 126.481339C34.228165 126.481339,33.468018 126.796280,32.907547 127.356766C32.347061 127.917236,32.032120 128.677383,32.032120 129.470078C32.032120 130.262772,32.347061 131.022919,32.907547 131.583389C33.468018 132.143875,34.228165 132.458817,35.020859 132.458817C35.813553 132.458817,36.573700 132.143875,37.134171 131.583389C37.694656 131.022919,38.009598 130.262772,38.009598 129.470078Z" style="fill: rgb(100.000000%,100.000000%,100.000000%);stroke: none;"></path>
  <path d="M35.206329 163.876968C35.206329 163.084274,34.891388 162.324127,34.330902 161.763657C33.770432 161.203171,33.010284 160.888229,32.217590 160.888229C31.424896 160.888229,30.664749 161.203171,30.104279 161.763657C29.543793 162.324127,29.228851 163.084274,29.228851 163.876968C29.228851 164.669662,29.543793 165.429810,30.104279 165.990280C30.664749 166.550766,31.424896 166.865707,32.217590 166.865707C33.010284 166.865707,33.770432 166.550766,34.330902 165.990280C34.891388 165.429810,35.206329 164.669662,35.206329 163.876968Z" style="fill: rgb(100.000000%,100.000000%,100.000000%);stroke: none;"></path>
  <path d="M60.106140 106.627167C60.106140 105.834473,59.791199 105.074326,59.230713 104.513855C58.670242 103.953369,57.910095 103.638428,57.117401 103.638428C56.324707 103.638428,55.564560 103.953369,55.004089 104.513855C54.443604 105.074326,54.128662 105.834473,54.128662 106.627167C54.128662 107.419861,54.443604 108.180008,55.004089 108.740479C55.564560 109.300964,56.324707 109.615906,57.117401 109.615906C57.910095 109.615906,58.670242 109.300964,59.230713 108.740479C59.791199 108.180008,60.106140 107.419861,60.106140 106.627167Z" style="fill: rgb(100.000000%,100.000000%,100.000000%);stroke: none;"></path>
  <path d="M47.730469 120.248474C47.730469 119.455780,47.415527 118.695633,46.855042 118.135162C46.294571 117.574677,45.534424 117.259735,44.741730 117.259735C43.949036 117.259735,43.188889 117.574677,42.628418 118.135162C42.067932 118.695633,41.752991 119.455780,41.752991 120.248474C41.752991 121.041168,42.067932 121.801315,42.628418 122.361786C43.188889 122.922272,43.949036 123.237213,44.741730 123.237213C45.534424 123.237213,46.294571 122.922272,46.855042 122.361786C47.415527 121.801315,47.730469 121.041168,47.730469 120.248474Z" style="fill: rgb(100.000000%,100.000000%,100.000000%);stroke: none;"></path>
  <path d="M70.664200 97.065475C70.664200 96.272781,70.349258 95.512634,69.788773 94.952164C69.228302 94.391678,68.468155 94.076736,67.675461 94.076736C66.882767 94.076736,66.122620 94.391678,65.562149 94.952164C65.001663 95.512634,64.686722 96.272781,64.686722 97.065475C64.686722 97.858170,65.001663 98.618317,65.562149 99.178787C66.122620 99.739273,66.882767 100.054214,67.675461 100.054214C68.468155 100.054214,69.228302 99.739273,69.788773 99.178787C70.349258 98.618317,70.664200 97.858170,70.664200 97.065475Z" style="fill: rgb(100.000000%,100.000000%,100.000000%);stroke: none;"></path>
  <path d="M63.862488 102.062378C63.862488 101.269684,63.547546 100.509537,62.987061 99.949066C62.426590 99.388580,61.666443 99.073639,60.873749 99.073639C60.081055 99.073639,59.320908 99.388580,58.760437 99.949066C58.199951 100.509537,57.885010 101.269684,57.885010 102.062378C57.885010 102.855072,58.199951 103.615219,58.760437 104.175690C59.320908 104.736176,60.081055 105.051117,60.873749 105.051117C61.666443 105.051117,62.426590 104.736176,62.987061 104.175690C63.547546 103.615219,63.862488 102.855072,63.862488 102.062378Z" style="fill: rgb(100.000000%,100.000000%,100.000000%);stroke: none;"></path>
  <path d="M73.459167 90.359314C73.459167 89.566620,73.144226 88.806473,72.583740 88.246002C72.023270 87.685516,71.263123 87.370575,70.470428 87.370575C69.677734 87.370575,68.917587 87.685516,68.357117 88.246002C67.796631 88.806473,67.481689 89.566620,67.481689 90.359314C67.481689 91.152008,67.796631 91.912155,68.357117 92.472626C68.917587 93.033112,69.677734 93.348053,70.470428 93.348053C71.263123 93.348053,72.023270 93.033112,72.583740 92.472626C73.144226 91.912155,73.459167 91.152008,73.459167 90.359314Z" style="fill: rgb(100.000000%,100.000000%,100.000000%);stroke: none;"></path>
  <path d="M73.005676 95.500961C73.005676 94.708267,72.690735 93.948120,72.130249 93.387650C71.569778 92.827164,70.809631 92.512222,70.016937 92.512222C69.224243 92.512222,68.464096 92.827164,67.903625 93.387650C67.343140 93.948120,67.028198 94.708267,67.028198 95.500961C67.028198 96.293655,67.343140 97.053802,67.903625 97.614273C68.464096 98.174759,69.224243 98.489700,70.016937 98.489700C70.809631 98.489700,71.569778 98.174759,72.130249 97.614273C72.690735 97.053802,73.005676 96.293655,73.005676 95.500961Z" style="fill: rgb(100.000000%,100.000000%,100.000000%);stroke: none;"></path>
  <path d="M65.034988 82.170273C65.034988 81.377579,64.720047 80.617432,64.159561 80.056961C63.599091 79.496475,62.838943 79.181534,62.046249 79.181534C61.253555 79.181534,60.493408 79.496475,59.932938 80.056961C59.372452 80.617432,59.057510 81.377579,59.057510 82.170273C59.057510 82.962967,59.372452 83.723114,59.932938 84.283585C60.493408 84.844070,61.253555 85.159012,62.046249 85.159012C62.838943 85.159012,63.599091 84.844070,64.159561 84.283585C64.720047 83.723114,65.034988 82.962967,65.034988 82.170273Z" style="fill: rgb(100.000000%,100.000000%,100.000000%);stroke: none;"></path>
  <path d="M71.362442 88.391724C71.362442 87.599030,71.047501 86.838882,70.487015 86.278412C69.926544 85.717926,69.166397 85.402985,68.373703 85.402985C67.581009 85.402985,66.820862 85.717926,66.260391 86.278412C65.699905 86.838882,65.384964 87.599030,65.384964 88.391724C65.384964 89.184418,65.699905 89.944565,66.260391 90.505035C66.820862 91.065521,67.581009 91.380463,68.373703 91.380463C69.166397 91.380463,69.926544 91.065521,70.487015 90.505035C71.047501 89.944565,71.362442 89.184418,71.362442 88.391724Z" style="fill: rgb(100.000000%,100.000000%,100.000000%);stroke: none;"></path>
  <path d="M49.653809 62.697800C49.653809 61.905106,49.338867 61.144958,48.778381 60.584488C48.217911 60.024002,47.457764 59.709061,46.665070 59.709061C45.872375 59.709061,45.112228 60.024002,44.551758 60.584488C43.991272 61.144958,43.676331 61.905106,43.676331 62.697800C43.676331 63.490494,43.991272 64.250641,44.551758 64.811111C45.112228 65.371597,45.872375 65.686539,46.665070 65.686539C47.457764 65.686539,48.217911 65.371597,48.778381 64.811111C49.338867 64.250641,49.653809 63.490494,49.653809 62.697800Z" style="fill: rgb(100.000000%,100.000000%,100.000000%);stroke: none;"></path>
  <path d="M61.602859 76.892914C61.602859 76.100220,61.287918 75.340073,60.727432 74.779602C60.166962 74.219116,59.406815 73.904175,58.614120 73.904175C57.821426 73.904175,57.061279 74.219116,56.500809 74.779602C55.940323 75.340073,55.625381 76.100220,55.625381 76.892914C55.625381 77.685608,55.940323 78.445755,56.500809 79.006226C57.061279 79.566711,57.821426 79.881653,58.614120 79.881653C59.406815 79.881653,60.166962 79.566711,60.727432 79.006226C61.287918 78.445755,61.602859 77.685608,61.602859 76.892914Z" style="fill: rgb(100.000000%,100.000000%,100.000000%);stroke: none;"></path>
  <path d="M33.852722 24.874969C33.852722 24.082275,33.537781 23.322128,32.977295 22.761658C32.416824 22.201172,31.656677 21.886230,30.863983 21.886230C30.071289 21.886230,29.311142 22.201172,28.750671 22.761658C28.190186 23.322128,27.875244 24.082275,27.875244 24.874969C27.875244 25.667664,28.190186 26.427811,28.750671 26.988281C29.311142 27.548767,30.071289 27.863708,30.863983 27.863708C31.656677 27.863708,32.416824 27.548767,32.977295 26.988281C33.537781 26.427811,33.852722 25.667664,33.852722 24.874969Z" style="fill: rgb(100.000000%,100.000000%,100.000000%);stroke: none;"></path>
  <path d="M39.176712 54.566299C39.176712 53.773605,38.861771 53.013458,38.301285 52.452988C37.740814 51.892502,36.980667 51.577560,36.187973 51.577560C35.395279 51.577560,34.635132 51.892502,34.074661 52.452988C33.514175 53.013458,33.199234 53.773605,33.199234 54.566299C33.199234 55.358994,33.514175 56.119141,34.074661 56.679611C34.635132 57.240097,35.395279 57.555038,36.187973 57.555038C36.980667 57.555038,37.740814 57.240097,38.301285 56.679611C38.861771 56.119141,39.176712 55.358994,39.176712 54.566299Z" style="fill: rgb(100.000000%,100.000000%,100.000000%);stroke: none;"></path>
  <path d="M83.983826 2.176056C83.983826 1.383362,83.668884 0.623215,83.108398 0.062744C82.547928 -0.497742,81.787781 -0.812683,80.995087 -0.812683C80.202393 -0.812683,79.442245 -0.497742,78.881775 0.062744C78.321289 0.623215,78.006348 1.383362,78.006348 2.176056C78.006348 2.968750,78.321289 3.728897,78.881775 4.289368C79.442245 4.849854,80.202393 5.164795,80.995087 5.164795C81.787781 5.164795,82.547928 4.849854,83.108398 4.289368C83.668884 3.728897,83.983826 2.968750,83.983826 2.176056Z" style="fill: rgb(100.000000%,100.000000%,100.000000%);stroke: none;"></path>
  <path d="M47.661606 9.318848C47.661606 8.526154,47.346664 7.766006,46.786179 7.205536C46.225708 6.645050,45.465561 6.330109,44.672867 6.330109C43.880173 6.330109,43.120026 6.645050,42.559555 7.205536C41.999069 7.766006,41.684128 8.526154,41.684128 9.318848C41.684128 10.111542,41.999069 10.871689,42.559555 11.432159C43.120026 11.992645,43.880173 12.307587,44.672867 12.307587C45.465561 12.307587,46.225708 11.992645,46.786179 11.432159C47.346664 10.871689,47.661606 10.111542,47.661606 9.318848Z" style="fill: rgb(100.000000%,100.000000%,100.000000%);stroke: none;"></path>
  <path d="M112.635498 40.117172C112.635498 39.324478,112.320557 38.564331,111.760071 38.003860C111.199600 37.443375,110.439453 37.128433,109.646759 37.128433C108.854065 37.128433,108.093918 37.443375,107.533447 38.003860C106.972961 38.564331,106.658020 39.324478,106.658020 40.117172C106.658020 40.909866,106.972961 41.670013,107.533447 42.230484C108.093918 42.790970,108.854065 43.105911,109.646759 43.105911C110.439453 43.105911,111.199600 42.790970,111.760071 42.230484C112.320557 41.670013,112.635498 40.909866,112.635498 40.117172Z" style="fill: rgb(100.000000%,100.000000%,100.000000%);stroke: none;"></path>
  <path d="M102.567719 10.808685C102.567719 10.015991,102.252777 9.255844,101.692291 8.695374C101.131821 8.134888,100.371674 7.819946,99.578979 7.819946C98.786285 7.819946,98.026138 8.134888,97.465668 8.695374C96.905182 9.255844,96.590240 10.015991,96.590240 10.808685C96.590240 11.601379,96.905182 12.361526,97.465668 12.921997C98.026138 13.482483,98.786285 13.797424,99.578979 13.797424C100.371674 13.797424,101.131821 13.482483,101.692291 12.921997C102.252777 12.361526,102.567719 11.601379,102.567719 10.808685Z" style="fill: rgb(100.000000%,100.000000%,100.000000%);stroke: none;"></path>
  <path d="M101.373352 72.040741C101.373352 71.248047,101.058411 70.487900,100.497925 69.927429C99.937454 69.366943,99.177307 69.052002,98.384613 69.052002C97.591919 69.052002,96.831772 69.366943,96.271301 69.927429C95.710815 70.487900,95.395874 71.248047,95.395874 72.040741C95.395874 72.833435,95.710815 73.593582,96.271301 74.154053C96.831772 74.714539,97.591919 75.029480,98.384613 75.029480C99.177307 75.029480,99.937454 74.714539,100.497925 74.154053C101.058411 73.593582,101.373352 72.833435,101.373352 72.040741Z" style="fill: rgb(100.000000%,100.000000%,100.000000%);stroke: none;"></path>
  <path d="M108.440460 53.090317C108.440460 52.297623,108.125519 51.537476,107.565033 50.977005C107.004562 50.416519,106.244415 50.101578,105.451721 50.101578C104.659027 50.101578,103.898880 50.416519,103.338409 50.977005C102.777924 51.537476,102.462982 52.297623,102.462982 53.090317C102.462982 53.883011,102.777924 54.643158,103.338409 55.203629C103.898880 55.764114,104.659027 56.079056,105.451721 56.079056C106.244415 56.079056,107.004562 55.764114,107.565033 55.203629C108.125519 54.643158,108.440460 53.883011,108.440460 53.090317Z" style="fill: rgb(100.000000%,100.000000%,100.000000%);stroke: none;"></path>
  <path d="M93.811737 88.680191C93.811737 87.887497,93.496796 87.127350,92.936310 86.566879C92.375839 86.006393,91.615692 85.691452,90.822998 85.691452C90.030304 85.691452,89.270157 86.006393,88.709686 86.566879C88.149200 87.127350,87.834259 87.887497,87.834259 88.680191C87.834259 89.472885,88.149200 90.233032,88.709686 90.793503C89.270157 91.353989,90.030304 91.668930,90.822998 91.668930C91.615692 91.668930,92.375839 91.353989,92.936310 90.793503C93.496796 90.233032,93.811737 89.472885,93.811737 88.680191Z" style="fill: rgb(100.000000%,100.000000%,100.000000%);stroke: none;"></path>
  <path d="M98.745682 78.814392C98.745682 78.021698,98.430740 77.261551,97.870255 76.701080C97.309784 76.140594,96.549637 75.825653,95.756943 75.825653C94.964249 75.825653,94.204102 76.140594,93.643631 76.701080C93.083145 77.261551,92.768204 78.021698,92.768204 78.814392C92.768204 79.607086,93.083145 80.367233,93.643631 80.927704C94.204102 81.488190,94.964249 81.803131,95.756943 81.803131C96.549637 81.803131,97.309784 81.488190,97.870255 80.927704C98.430740 80.367233,98.745682 79.607086,98.745682 78.814392Z" style="fill: rgb(100.000000%,100.000000%,100.000000%);stroke: none;"></path>
  <path d="M90.054138 98.874481C90.054138 98.081787,89.739197 97.321640,89.178711 96.761169C88.618240 96.200684,87.858093 95.885742,87.065399 95.885742C86.272705 95.885742,85.512558 96.200684,84.952087 96.761169C84.391602 97.321640,84.076660 98.081787,84.076660 98.874481C84.076660 99.667175,84.391602 100.427322,84.952087 100.987793C85.512558 101.548279,86.272705 101.863220,87.065399 101.863220C87.858093 101.863220,88.618240 101.548279,89.178711 100.987793C89.739197 100.427322,90.054138 99.667175,90.054138 98.874481Z" style="fill: rgb(100.000000%,100.000000%,100.000000%);stroke: none;"></path>
  <path d="M91.950272 91.997162C91.950272 91.204468,91.635330 90.444321,91.074844 89.883850C90.514374 89.323364,89.754227 89.008423,88.961533 89.008423C88.168839 89.008423,87.408691 89.323364,86.848221 89.883850C86.287735 90.444321,85.972794 91.204468,85.972794 91.997162C85.972794 92.789856,86.287735 93.550003,86.848221 94.110474C87.408691 94.670959,88.168839 94.985901,88.961533 94.985901C89.754227 94.985901,90.514374 94.670959,91.074844 94.110474C91.635330 93.550003,91.950272 92.789856,91.950272 91.997162Z" style="fill: rgb(100.000000%,100.000000%,100.000000%);stroke: none;"></path>
  <path d="M88.642029 109.044098C88.642029 108.251404,88.327087 107.491257,87.766602 106.930786C87.206131 106.370300,86.445984 106.055359,85.653290 106.055359C84.860596 106.055359,84.100449 106.370300,83.539978 106.930786C82.979492 107.491257,82.664551 108.251404,82.664551 109.044098C82.664551 109.836792,82.979492 110.596939,83.539978 111.157410C84.100449 111.717896,84.860596 112.032837,85.653290 112.032837C86.445984 112.032837,87.206131 111.717896,87.766602 111.157410C88.327087 110.596939,88.642029 109.836792,88.642029 109.044098Z" style="fill: rgb(100.000000%,100.000000%,100.000000%);stroke: none;"></path>
  <path d="M89.874619 102.252167C89.874619 101.459473,89.559677 100.699326,88.999191 100.138855C88.438721 99.578369,87.678574 99.263428,86.885880 99.263428C86.093185 99.263428,85.333038 99.578369,84.772568 100.138855C84.212082 100.699326,83.897141 101.459473,83.897141 102.252167C83.897141 103.044861,84.212082 103.805008,84.772568 104.365479C85.333038 104.925964,86.093185 105.240906,86.885880 105.240906C87.678574 105.240906,88.438721 104.925964,88.999191 104.365479C89.559677 103.805008,89.874619 103.044861,89.874619 102.252167Z" style="fill: rgb(100.000000%,100.000000%,100.000000%);stroke: none;"></path>
  <path d="M87.977005 119.531815C87.977005 118.739120,87.662064 117.978973,87.101578 117.418503C86.541107 116.858017,85.780960 116.543076,84.988266 116.543076C84.195572 116.543076,83.435425 116.858017,82.874954 117.418503C82.314468 117.978973,81.999527 118.739120,81.999527 119.531815C81.999527 120.324509,82.314468 121.084656,82.874954 121.645126C83.435425 122.205612,84.195572 122.520554,84.988266 122.520554C85.780960 122.520554,86.541107 122.205612,87.101578 121.645126C87.662064 121.084656,87.977005 120.324509,87.977005 119.531815Z" style="fill: rgb(100.000000%,100.000000%,100.000000%);stroke: none;"></path>
  <path d="M87.537415 112.492783C87.537415 111.700089,87.222473 110.939941,86.661987 110.379471C86.101517 109.818985,85.341370 109.504044,84.548676 109.504044C83.755981 109.504044,82.995834 109.818985,82.435364 110.379471C81.874878 110.939941,81.559937 111.700089,81.559937 112.492783C81.559937 113.285477,81.874878 114.045624,82.435364 114.606094C82.995834 115.166580,83.755981 115.481522,84.548676 115.481522C85.341370 115.481522,86.101517 115.166580,86.661987 114.606094C87.222473 114.045624,87.537415 113.285477,87.537415 112.492783Z" style="fill: rgb(100.000000%,100.000000%,100.000000%);stroke: none;"></path>
  <path d="M91.343964 129.077393C91.343964 128.284698,91.029022 127.524551,90.468536 126.964081C89.908066 126.403595,89.147919 126.088654,88.355225 126.088654C87.562531 126.088654,86.802383 126.403595,86.241913 126.964081C85.681427 127.524551,85.366486 128.284698,85.366486 129.077393C85.366486 129.870087,85.681427 130.630234,86.241913 131.190704C86.802383 131.751190,87.562531 132.066132,88.355225 132.066132C89.147919 132.066132,89.908066 131.751190,90.468536 131.190704C91.029022 130.630234,91.343964 129.870087,91.343964 129.077393Z" style="fill: rgb(100.000000%,100.000000%,100.000000%);stroke: none;"></path>
  <path d="M89.457184 122.769730C89.457184 121.977036,89.142242 121.216888,88.581757 120.656418C88.021286 120.095932,87.261139 119.780991,86.468445 119.780991C85.675751 119.780991,84.915604 120.095932,84.355133 120.656418C83.794647 121.216888,83.479706 121.977036,83.479706 122.769730C83.479706 123.562424,83.794647 124.322571,84.355133 124.883041C84.915604 125.443527,85.675751 125.758469,86.468445 125.758469C87.261139 125.758469,88.021286 125.443527,88.581757 124.883041C89.142242 124.322571,89.457184 123.562424,89.457184 122.769730Z" style="fill: rgb(100.000000%,100.000000%,100.000000%);stroke: none;"></path>
  <path d="M98.330597 133.903717C98.330597 133.111023,98.015656 132.350876,97.455170 131.790405C96.894699 131.229919,96.134552 130.914978,95.341858 130.914978C94.549164 130.914978,93.789017 131.229919,93.228546 131.790405C92.668060 132.350876,92.353119 133.111023,92.353119 133.903717C92.353119 134.696411,92.668060 135.456558,93.228546 136.017029C93.789017 136.577515,94.549164 136.892456,95.341858 136.892456C96.134552 136.892456,96.894699 136.577515,97.455170 136.017029C98.015656 135.456558,98.330597 134.696411,98.330597 133.903717Z" style="fill: rgb(100.000000%,100.000000%,100.000000%);stroke: none;"></path>
  <path d="M92.298477 132.399719C92.298477 131.607025,91.983536 130.846878,91.423050 130.286407C90.862579 129.725922,90.102432 129.410980,89.309738 129.410980C88.517044 129.410980,87.756897 129.725922,87.196426 130.286407C86.635941 130.846878,86.320999 131.607025,86.320999 132.399719C86.320999 133.192413,86.635941 133.952560,87.196426 134.513031C87.756897 135.073517,88.517044 135.388458,89.309738 135.388458C90.102432 135.388458,90.862579 135.073517,91.423050 134.513031C91.983536 133.952560,92.298477 133.192413,92.298477 132.399719Z" style="fill: rgb(100.000000%,100.000000%,100.000000%);stroke: none;"></path>
  <path d="M105.952911 125.682571C105.952911 124.889877,105.637970 124.129730,105.077484 123.569260C104.517014 123.008774,103.756866 122.693832,102.964172 122.693832C102.171478 122.693832,101.411331 123.008774,100.850861 123.569260C100.290375 124.129730,99.975433 124.889877,99.975433 125.682571C99.975433 126.475266,100.290375 127.235413,100.850861 127.795883C101.411331 128.356369,102.171478 128.671310,102.964172 128.671310C103.756866 128.671310,104.517014 128.356369,105.077484 127.795883C105.637970 127.235413,105.952911 126.475266,105.952911 125.682571Z" style="fill: rgb(100.000000%,100.000000%,100.000000%);stroke: none;"></path>
  <path d="M100.769028 131.135010C100.769028 130.342316,100.454086 129.582169,99.893600 129.021698C99.333130 128.461212,98.572983 128.146271,97.780289 128.146271C96.987595 128.146271,96.227448 128.461212,95.666977 129.021698C95.106491 129.582169,94.791550 130.342316,94.791550 131.135010C94.791550 131.927704,95.106491 132.687851,95.666977 133.248322C96.227448 133.808807,96.987595 134.123749,97.780289 134.123749C98.572983 134.123749,99.333130 133.808807,99.893600 133.248322C100.454086 132.687851,100.769028 131.927704,100.769028 131.135010Z" style="fill: rgb(100.000000%,100.000000%,100.000000%);stroke: none;"></path>
  <path d="M113.096542 115.015656C113.096542 114.222961,112.781601 113.462814,112.221115 112.902344C111.660645 112.341858,110.900497 112.026917,110.107803 112.026917C109.315109 112.026917,108.554962 112.341858,107.994492 112.902344C107.434006 113.462814,107.119064 114.222961,107.119064 115.015656C107.119064 115.808350,107.434006 116.568497,107.994492 117.128967C108.554962 117.689453,109.315109 118.004395,110.107803 118.004395C110.900497 118.004395,111.660645 117.689453,112.221115 117.128967C112.781601 116.568497,113.096542 115.808350,113.096542 115.015656Z" style="fill: rgb(100.000000%,100.000000%,100.000000%);stroke: none;"></path>
  <path d="M109.623566 123.156158C109.623566 122.363464,109.308624 121.603317,108.748138 121.042847C108.187668 120.482361,107.427521 120.167419,106.634827 120.167419C105.842133 120.167419,105.081985 120.482361,104.521515 121.042847C103.961029 121.603317,103.646088 122.363464,103.646088 123.156158C103.646088 123.948853,103.961029 124.709000,104.521515 125.269470C105.081985 125.829956,105.842133 126.144897,106.634827 126.144897C107.427521 126.144897,108.187668 125.829956,108.748138 125.269470C109.308624 124.709000,109.623566 123.948853,109.623566 123.156158Z" style="fill: rgb(100.000000%,100.000000%,100.000000%);stroke: none;"></path>
  <path d="M111.352783 101.016205C111.352783 100.223511,111.037842 99.463364,110.477356 98.902893C109.916885 98.342407,109.156738 98.027466,108.364044 98.027466C107.571350 98.027466,106.811203 98.342407,106.250732 98.902893C105.690247 99.463364,105.375305 100.223511,105.375305 101.016205C105.375305 101.808899,105.690247 102.569046,106.250732 103.129517C106.811203 103.690002,107.571350 104.004944,108.364044 104.004944C109.156738 104.004944,109.916885 103.690002,110.477356 103.129517C111.037842 102.569046,111.352783 101.808899,111.352783 101.016205Z" style="fill: rgb(100.000000%,100.000000%,100.000000%);stroke: none;"></path>
  <path d="M112.163101 110.326080C112.163101 109.533386,111.848160 108.773239,111.287674 108.212769C110.727203 107.652283,109.967056 107.337341,109.174362 107.337341C108.381668 107.337341,107.621521 107.652283,107.061050 108.212769C106.500565 108.773239,106.185623 109.533386,106.185623 110.326080C106.185623 111.118774,106.500565 111.878922,107.061050 112.439392C107.621521 112.999878,108.381668 113.314819,109.174362 113.314819C109.967056 113.314819,110.727203 112.999878,111.287674 112.439392C111.848160 111.878922,112.163101 111.118774,112.163101 110.326080Z" style="fill: rgb(100.000000%,100.000000%,100.000000%);stroke: none;"></path>
  <path d="M105.476410 88.113419C105.476410 87.320724,105.161469 86.560577,104.600983 86.000107C104.040512 85.439621,103.280365 85.124680,102.487671 85.124680C101.694977 85.124680,100.934830 85.439621,100.374359 86.000107C99.813873 86.560577,99.498932 87.320724,99.498932 88.113419C99.498932 88.906113,99.813873 89.666260,100.374359 90.226730C100.934830 90.787216,101.694977 91.102158,102.487671 91.102158C103.280365 91.102158,104.040512 90.787216,104.600983 90.226730C105.161469 89.666260,105.476410 88.906113,105.476410 88.113419Z" style="fill: rgb(100.000000%,100.000000%,100.000000%);stroke: none;"></path>
  <path d="M111.460892 95.941742C111.460892 95.149048,111.145950 94.388901,110.585464 93.828430C110.024994 93.267944,109.264847 92.953003,108.472153 92.953003C107.679459 92.953003,106.919312 93.267944,106.358841 93.828430C105.798355 94.388901,105.483414 95.149048,105.483414 95.941742C105.483414 96.734436,105.798355 97.494583,106.358841 98.055054C106.919312 98.615540,107.679459 98.930481,108.472153 98.930481C109.264847 98.930481,110.024994 98.615540,110.585464 98.055054C111.145950 97.494583,111.460892 96.734436,111.460892 95.941742Z" style="fill: rgb(100.000000%,100.000000%,100.000000%);stroke: none;"></path>
  <path d="M90.943756 83.698639C90.943756 82.905945,90.628815 82.145798,90.068329 81.585327C89.507858 81.024841,88.747711 80.709900,87.955017 80.709900C87.162323 80.709900,86.402176 81.024841,85.841705 81.585327C85.281219 82.145798,84.966278 82.905945,84.966278 83.698639C84.966278 84.491333,85.281219 85.251480,85.841705 85.811951C86.402176 86.372437,87.162323 86.687378,87.955017 86.687378C88.747711 86.687378,89.507858 86.372437,90.068329 85.811951C90.628815 85.251480,90.943756 84.491333,90.943756 83.698639Z" style="fill: rgb(100.000000%,100.000000%,100.000000%);stroke: none;"></path>
  <path d="M100.238358 86.977768C100.238358 86.185074,99.923416 85.424927,99.362930 84.864456C98.802460 84.303970,98.042313 83.989029,97.249619 83.989029C96.456924 83.989029,95.696777 84.303970,95.136307 84.864456C94.575821 85.424927,94.260880 86.185074,94.260880 86.977768C94.260880 87.770462,94.575821 88.530609,95.136307 89.091080C95.696777 89.651566,96.456924 89.966507,97.249619 89.966507C98.042313 89.966507,98.802460 89.651566,99.362930 89.091080C99.923416 88.530609,100.238358 87.770462,100.238358 86.977768Z" style="fill: rgb(100.000000%,100.000000%,100.000000%);stroke: none;"></path>
  <path d="M77.255112 82.286621C77.255112 81.493927,76.940170 80.733780,76.379684 80.173309C75.819214 79.612823,75.059067 79.297882,74.266373 79.297882C73.473679 79.297882,72.713531 79.612823,72.153061 80.173309C71.592575 80.733780,71.277634 81.493927,71.277634 82.286621C71.277634 83.079315,71.592575 83.839462,72.153061 84.399933C72.713531 84.960419,73.473679 85.275360,74.266373 85.275360C75.059067 85.275360,75.819214 84.960419,76.379684 84.399933C76.940170 83.839462,77.255112 83.079315,77.255112 82.286621Z" style="fill: rgb(100.000000%,100.000000%,100.000000%);stroke: none;"></path>
  <path d="M86.448776 81.397476C86.448776 80.604782,86.133835 79.844635,85.573349 79.284164C85.012878 78.723679,84.252731 78.408737,83.460037 78.408737C82.667343 78.408737,81.907196 78.723679,81.346725 79.284164C80.786240 79.844635,80.471298 80.604782,80.471298 81.397476C80.471298 82.190170,80.786240 82.950317,81.346725 83.510788C81.907196 84.071274,82.667343 84.386215,83.460037 84.386215C84.252731 84.386215,85.012878 84.071274,85.573349 83.510788C86.133835 82.950317,86.448776 82.190170,86.448776 81.397476Z" style="fill: rgb(100.000000%,100.000000%,100.000000%);stroke: none;"></path>
  <path d="M66.434296 87.784363C66.434296 86.991669,66.119354 86.231522,65.558868 85.671051C64.998398 85.110565,64.238251 84.795624,63.445557 84.795624C62.652863 84.795624,61.892715 85.110565,61.332245 85.671051C60.771759 86.231522,60.456818 86.991669,60.456818 87.784363C60.456818 88.577057,60.771759 89.337204,61.332245 89.897675C61.892715 90.458160,62.652863 90.773102,63.445557 90.773102C64.238251 90.773102,64.998398 90.458160,65.558868 89.897675C66.119354 89.337204,66.434296 88.577057,66.434296 87.784363Z" style="fill: rgb(100.000000%,100.000000%,100.000000%);stroke: none;"></path>
  <path d="M73.538315 84.917725C73.538315 84.125031,73.223373 83.364883,72.662888 82.804413C72.102417 82.243927,71.342270 81.928986,70.549576 81.928986C69.756882 81.928986,68.996735 82.243927,68.436264 82.804413C67.875778 83.364883,67.560837 84.125031,67.560837 84.917725C67.560837 85.710419,67.875778 86.470566,68.436264 87.031036C68.996735 87.591522,69.756882 87.906464,70.549576 87.906464C71.342270 87.906464,72.102417 87.591522,72.662888 87.031036C73.223373 86.470566,73.538315 85.710419,73.538315 84.917725Z" style="fill: rgb(100.000000%,100.000000%,100.000000%);stroke: none;"></path>
  <path d="M62.630966 95.359680C62.630966 94.566986,62.316025 93.806839,61.755539 93.246368C61.195068 92.685883,60.434921 92.370941,59.642227 92.370941C58.849533 92.370941,58.089386 92.685883,57.528915 93.246368C56.968430 93.806839,56.653488 94.566986,56.653488 95.359680C56.653488 96.152374,56.968430 96.912521,57.528915 97.472992C58.089386 98.033478,58.849533 98.348419,59.642227 98.348419C60.434921 98.348419,61.195068 98.033478,61.755539 97.472992C62.316025 96.912521,62.630966 96.152374,62.630966 95.359680Z" style="fill: rgb(100.000000%,100.000000%,100.000000%);stroke: none;"></path>
  <path d="M62.944656 89.116043C62.944656 88.323349,62.629715 87.563202,62.069229 87.002731C61.508759 86.442245,60.748611 86.127304,59.955917 86.127304C59.163223 86.127304,58.403076 86.442245,57.842606 87.002731C57.282120 87.563202,56.967178 88.323349,56.967178 89.116043C56.967178 89.908737,57.282120 90.668884,57.842606 91.229355C58.403076 91.789841,59.163223 92.104782,59.955917 92.104782C60.748611 92.104782,61.508759 91.789841,62.069229 91.229355C62.629715 90.668884,62.944656 89.908737,62.944656 89.116043Z" style="fill: rgb(100.000000%,100.000000%,100.000000%);stroke: none;"></path>
  <path d="M71.788101 100.338654C71.788101 99.545959,71.473160 98.785812,70.912674 98.225342C70.352203 97.664856,69.592056 97.349915,68.799362 97.349915C68.006668 97.349915,67.246521 97.664856,66.686050 98.225342C66.125565 98.785812,65.810623 99.545959,65.810623 100.338654C65.810623 101.131348,66.125565 101.891495,66.686050 102.451965C67.246521 103.012451,68.006668 103.327393,68.799362 103.327393C69.592056 103.327393,70.352203 103.012451,70.912674 102.451965C71.473160 101.891495,71.788101 101.131348,71.788101 100.338654Z" style="fill: rgb(100.000000%,100.000000%,100.000000%);stroke: none;"></path>
  <path d="M65.797501 97.058762C65.797501 96.266068,65.482559 95.505920,64.922073 94.945450C64.361603 94.384964,63.601456 94.070023,62.808762 94.070023C62.016068 94.070023,61.255920 94.384964,60.695450 94.945450C60.134964 95.505920,59.820023 96.266068,59.820023 97.058762C59.820023 97.851456,60.134964 98.611603,60.695450 99.172073C61.255920 99.732559,62.016068 100.047501,62.808762 100.047501C63.601456 100.047501,64.361603 99.732559,64.922073 99.172073C65.482559 98.611603,65.797501 97.851456,65.797501 97.058762Z" style="fill: rgb(100.000000%,100.000000%,100.000000%);stroke: none;"></path>
  <path d="M81.679047 105.168579C81.679047 104.375885,81.364105 103.615738,80.803619 103.055267C80.243149 102.494781,79.483002 102.179840,78.690308 102.179840C77.897614 102.179840,77.137466 102.494781,76.576996 103.055267C76.016510 103.615738,75.701569 104.375885,75.701569 105.168579C75.701569 105.961273,76.016510 106.721420,76.576996 107.281891C77.137466 107.842377,77.897614 108.157318,78.690308 108.157318C79.483002 108.157318,80.243149 107.842377,80.803619 107.281891C81.364105 106.721420,81.679047 105.961273,81.679047 105.168579Z" style="fill: rgb(100.000000%,100.000000%,100.000000%);stroke: none;"></path>
  <path d="M74.674423 102.678467C74.674423 101.885773,74.359482 101.125626,73.798996 100.565155C73.238525 100.004669,72.478378 99.689728,71.685684 99.689728C70.892990 99.689728,70.132843 100.004669,69.572372 100.565155C69.011887 101.125626,68.696945 101.885773,68.696945 102.678467C68.696945 103.471161,69.011887 104.231308,69.572372 104.791779C70.132843 105.352264,70.892990 105.667206,71.685684 105.667206C72.478378 105.667206,73.238525 105.352264,73.798996 104.791779C74.359482 104.231308,74.674423 103.471161,74.674423 102.678467Z" style="fill: rgb(100.000000%,100.000000%,100.000000%);stroke: none;"></path>
  <path d="M92.823914 105.953140C92.823914 105.160446,92.508972 104.400299,91.948486 103.839828C91.388016 103.279343,90.627869 102.964401,89.835175 102.964401C89.042480 102.964401,88.282333 103.279343,87.721863 103.839828C87.161377 104.400299,86.846436 105.160446,86.846436 105.953140C86.846436 106.745834,87.161377 107.505981,87.721863 108.066452C88.282333 108.626938,89.042480 108.941879,89.835175 108.941879C90.627869 108.941879,91.388016 108.626938,91.948486 108.066452C92.508972 107.505981,92.823914 106.745834,92.823914 105.953140Z" style="fill: rgb(100.000000%,100.000000%,100.000000%);stroke: none;"></path>
  <path d="M85.523819 105.130615C85.523819 104.337921,85.208878 103.577774,84.648392 103.017303C84.087921 102.456818,83.327774 102.141876,82.535080 102.141876C81.742386 102.141876,80.982239 102.456818,80.421768 103.017303C79.861282 103.577774,79.546341 104.337921,79.546341 105.130615C79.546341 105.923309,79.861282 106.683456,80.421768 107.243927C80.982239 107.804413,81.742386 108.119354,82.535080 108.119354C83.327774 108.119354,84.087921 107.804413,84.648392 107.243927C85.208878 106.683456,85.523819 105.923309,85.523819 105.130615Z" style="fill: rgb(100.000000%,100.000000%,100.000000%);stroke: none;"></path>
  <path d="M103.877853 107.044281C103.877853 106.251587,103.562912 105.491440,103.002426 104.930969C102.441956 104.370483,101.681808 104.055542,100.889114 104.055542C100.096420 104.055542,99.336273 104.370483,98.775803 104.930969C98.215317 105.491440,97.900375 106.251587,97.900375 107.044281C97.900375 107.836975,98.215317 108.597122,98.775803 109.157593C99.336273 109.718079,100.096420 110.033020,100.889114 110.033020C101.681808 110.033020,102.441956 109.718079,103.002426 109.157593C103.562912 108.597122,103.877853 107.836975,103.877853 107.044281Z" style="fill: rgb(100.000000%,100.000000%,100.000000%);stroke: none;"></path>
  <path d="M96.323853 106.773804C96.323853 105.981110,96.008911 105.220963,95.448425 104.660492C94.887955 104.100006,94.127808 103.785065,93.335114 103.785065C92.542419 103.785065,91.782272 104.100006,91.221802 104.660492C90.661316 105.220963,90.346375 105.981110,90.346375 106.773804C90.346375 107.566498,90.661316 108.326645,91.221802 108.887115C91.782272 109.447601,92.542419 109.762543,93.335114 109.762543C94.127808 109.762543,94.887955 109.447601,95.448425 108.887115C96.008911 108.326645,96.323853 107.566498,96.323853 106.773804Z" style="fill: rgb(100.000000%,100.000000%,100.000000%);stroke: none;"></path>
  <path d="M119.369354 104.746536C119.369354 103.953842,119.054413 103.193695,118.493927 102.633224C117.933456 102.072739,117.173309 101.757797,116.380615 101.757797C115.587921 101.757797,114.827774 102.072739,114.267303 102.633224C113.706818 103.193695,113.391876 103.953842,113.391876 104.746536C113.391876 105.539230,113.706818 106.299377,114.267303 106.859848C114.827774 107.420334,115.587921 107.735275,116.380615 107.735275C117.173309 107.735275,117.933456 107.420334,118.493927 106.859848C119.054413 106.299377,119.369354 105.539230,119.369354 104.746536Z" style="fill: rgb(100.000000%,100.000000%,100.000000%);stroke: none;"></path>
  <path d="M107.821457 106.322983C107.821457 105.530289,107.506516 104.770142,106.946030 104.209671C106.385559 103.649185,105.625412 103.334244,104.832718 103.334244C104.040024 103.334244,103.279877 103.649185,102.719406 104.209671C102.158920 104.770142,101.843979 105.530289,101.843979 106.322983C101.843979 107.115677,102.158920 107.875824,102.719406 108.436295C103.279877 108.996780,104.040024 109.311722,104.832718 109.311722C105.625412 109.311722,106.385559 108.996780,106.946030 108.436295C107.506516 107.875824,107.821457 107.115677,107.821457 106.322983Z" style="fill: rgb(100.000000%,100.000000%,100.000000%);stroke: none;"></path>
  <path d="M148.450974 103.314423C148.450974 102.521729,148.136032 101.761581,147.575546 101.201111C147.015076 100.640625,146.254929 100.325684,145.462234 100.325684C144.669540 100.325684,143.909393 100.640625,143.348923 101.201111C142.788437 101.761581,142.473495 102.521729,142.473495 103.314423C142.473495 104.107117,142.788437 104.867264,143.348923 105.427734C143.909393 105.988220,144.669540 106.303162,145.462234 106.303162C146.254929 106.303162,147.015076 105.988220,147.575546 105.427734C148.136032 104.867264,148.450974 104.107117,148.450974 103.314423Z" style="fill: rgb(100.000000%,100.000000%,100.000000%);stroke: none;"></path>
  <path d="M127.039841 104.384750C127.039841 103.592056,126.724899 102.831909,126.164413 102.271439C125.603943 101.710953,124.843796 101.396011,124.051102 101.396011C123.258408 101.396011,122.498260 101.710953,121.937790 102.271439C121.377304 102.831909,121.062363 103.592056,121.062363 104.384750C121.062363 105.177444,121.377304 105.937592,121.937790 106.498062C122.498260 107.058548,123.258408 107.373489,124.051102 107.373489C124.843796 107.373489,125.603943 107.058548,126.164413 106.498062C126.724899 105.937592,127.039841 105.177444,127.039841 104.384750Z" style="fill: rgb(100.000000%,100.000000%,100.000000%);stroke: none;"></path>
  <path d="M188.481689 120.601685C188.481689 119.808990,188.166748 119.048843,187.606262 118.488373C187.045792 117.927887,186.285645 117.612946,185.492950 117.612946C184.700256 117.612946,183.940109 117.927887,183.379639 118.488373C182.819153 119.048843,182.504211 119.808990,182.504211 120.601685C182.504211 121.394379,182.819153 122.154526,183.379639 122.714996C183.940109 123.275482,184.700256 123.590424,185.492950 123.590424C186.285645 123.590424,187.045792 123.275482,187.606262 122.714996C188.166748 122.154526,188.481689 121.394379,188.481689 120.601685Z" style="fill: rgb(100.000000%,100.000000%,100.000000%);stroke: none;"></path>
  <path d="M162.917831 102.822495C162.917831 102.029800,162.602890 101.269653,162.042404 100.709183C161.481934 100.148697,160.721786 99.833755,159.929092 99.833755C159.136398 99.833755,158.376251 100.148697,157.815781 100.709183C157.255295 101.269653,156.940353 102.029800,156.940353 102.822495C156.940353 103.615189,157.255295 104.375336,157.815781 104.935806C158.376251 105.496292,159.136398 105.811234,159.929092 105.811234C160.721786 105.811234,161.481934 105.496292,162.042404 104.935806C162.602890 104.375336,162.917831 103.615189,162.917831 102.822495Z" style="fill: rgb(100.000000%,100.000000%,100.000000%);stroke: none;"></path>
  <path d="M175.855713 171.991684C175.855713 171.198990,175.540771 170.438843,174.980286 169.878372C174.419815 169.317886,173.659668 169.002945,172.866974 169.002945C172.074280 169.002945,171.314133 169.317886,170.753662 169.878372C170.193176 170.438843,169.878235 171.198990,169.878235 171.991684C169.878235 172.784378,170.193176 173.544525,170.753662 174.104996C171.314133 174.665482,172.074280 174.980423,172.866974 174.980423C173.659668 174.980423,174.419815 174.665482,174.980286 174.104996C175.540771 173.544525,175.855713 172.784378,175.855713 171.991684Z" style="fill: rgb(100.000000%,100.000000%,100.000000%);stroke: none;"></path>
  <path d="M192.726166 139.724457C192.726166 138.931763,192.411224 138.171616,191.850739 137.611145C191.290268 137.050659,190.530121 136.735718,189.737427 136.735718C188.944733 136.735718,188.184586 137.050659,187.624115 137.611145C187.063629 138.171616,186.748688 138.931763,186.748688 139.724457C186.748688 140.517151,187.063629 141.277298,187.624115 141.837769C188.184586 142.398254,188.944733 142.713196,189.737427 142.713196C190.530121 142.713196,191.290268 142.398254,191.850739 141.837769C192.411224 141.277298,192.726166 140.517151,192.726166 139.724457Z" style="fill: rgb(100.000000%,100.000000%,100.000000%);stroke: none;"></path>
  <path d="M127.846451 164.941757C127.846451 164.149063,127.531509 163.388916,126.971024 162.828445C126.410553 162.267960,125.650406 161.953018,124.857712 161.953018C124.065018 161.953018,123.304871 162.267960,122.744400 162.828445C122.183914 163.388916,121.868973 164.149063,121.868973 164.941757C121.868973 165.734451,122.183914 166.494598,122.744400 167.055069C123.304871 167.615555,124.065018 167.930496,124.857712 167.930496C125.650406 167.930496,126.410553 167.615555,126.971024 167.055069C127.531509 166.494598,127.846451 165.734451,127.846451 164.941757Z" style="fill: rgb(100.000000%,100.000000%,100.000000%);stroke: none;"></path>
  <path d="M155.518646 179.179672C155.518646 178.386978,155.203705 177.626831,154.643219 177.066360C154.082748 176.505875,153.322601 176.190933,152.529907 176.190933C151.737213 176.190933,150.977066 176.505875,150.416595 177.066360C149.856110 177.626831,149.541168 178.386978,149.541168 179.179672C149.541168 179.972366,149.856110 180.732513,150.416595 181.292984C150.977066 181.853470,151.737213 182.168411,152.529907 182.168411C153.322601 182.168411,154.082748 181.853470,154.643219 181.292984C155.203705 180.732513,155.518646 179.972366,155.518646 179.179672Z" style="fill: rgb(100.000000%,100.000000%,100.000000%);stroke: none;"></path>
  <path d="M110.593628 138.637589C110.593628 137.844894,110.278687 137.084747,109.718201 136.524277C109.157730 135.963791,108.397583 135.648849,107.604889 135.648849C106.812195 135.648849,106.052048 135.963791,105.491577 136.524277C104.931091 137.084747,104.616150 137.844894,104.616150 138.637589C104.616150 139.430283,104.931091 140.190430,105.491577 140.750900C106.052048 141.311386,106.812195 141.626328,107.604889 141.626328C108.397583 141.626328,109.157730 141.311386,109.718201 140.750900C110.278687 140.190430,110.593628 139.430283,110.593628 138.637589Z" style="fill: rgb(100.000000%,100.000000%,100.000000%);stroke: none;"></path>
  <path d="M121.835892 153.410812C121.835892 152.618118,121.520950 151.857971,120.960464 151.297501C120.399994 150.737015,119.639847 150.422073,118.847153 150.422073C118.054459 150.422073,117.294312 150.737015,116.733841 151.297501C116.173355 151.857971,115.858414 152.618118,115.858414 153.410812C115.858414 154.203506,116.173355 154.963654,116.733841 155.524124C117.294312 156.084610,118.054459 156.399551,118.847153 156.399551C119.639847 156.399551,120.399994 156.084610,120.960464 155.524124C121.520950 154.963654,121.835892 154.203506,121.835892 153.410812Z" style="fill: rgb(100.000000%,100.000000%,100.000000%);stroke: none;"></path>
  <path d="M101.613846 126.523148C101.613846 125.730453,101.298904 124.970306,100.738419 124.409836C100.177948 123.849350,99.417801 123.534409,98.625107 123.534409C97.832413 123.534409,97.072266 123.849350,96.511795 124.409836C95.951309 124.970306,95.636368 125.730453,95.636368 126.523148C95.636368 127.315842,95.951309 128.075989,96.511795 128.636459C97.072266 129.196945,97.832413 129.511887,98.625107 129.511887C99.417801 129.511887,100.177948 129.196945,100.738419 128.636459C101.298904 128.075989,101.613846 127.315842,101.613846 126.523148Z" style="fill: rgb(100.000000%,100.000000%,100.000000%);stroke: none;"></path>
  <path d="M106.344971 134.035797C106.344971 133.243103,106.030029 132.482956,105.469543 131.922485C104.909073 131.362000,104.148926 131.047058,103.356232 131.047058C102.563538 131.047058,101.803391 131.362000,101.242920 131.922485C100.682434 132.482956,100.367493 133.243103,100.367493 134.035797C100.367493 134.828491,100.682434 135.588638,101.242920 136.149109C101.803391 136.709595,102.563538 137.024536,103.356232 137.024536C104.148926 137.024536,104.909073 136.709595,105.469543 136.149109C106.030029 135.588638,106.344971 134.828491,106.344971 134.035797Z" style="fill: rgb(100.000000%,100.000000%,100.000000%);stroke: none;"></path>
  <path d="M94.981369 123.084763C94.981369 122.292068,94.666428 121.531921,94.105942 120.971451C93.545471 120.410965,92.785324 120.096024,91.992630 120.096024C91.199936 120.096024,90.439789 120.410965,89.879318 120.971451C89.318832 121.531921,89.003891 122.292068,89.003891 123.084763C89.003891 123.877457,89.318832 124.637604,89.879318 125.198074C90.439789 125.758560,91.199936 126.073502,91.992630 126.073502C92.785324 126.073502,93.545471 125.758560,94.105942 125.198074C94.666428 124.637604,94.981369 123.877457,94.981369 123.084763Z" style="fill: rgb(100.000000%,100.000000%,100.000000%);stroke: none;"></path>
  <path d="M100.141495 124.056107C100.141495 123.263412,99.826553 122.503265,99.266068 121.942795C98.705597 121.382309,97.945450 121.067368,97.152756 121.067368C96.360062 121.067368,95.599915 121.382309,95.039444 121.942795C94.478958 122.503265,94.164017 123.263412,94.164017 124.056107C94.164017 124.848801,94.478958 125.608948,95.039444 126.169418C95.599915 126.729904,96.360062 127.044846,97.152756 127.044846C97.945450 127.044846,98.705597 126.729904,99.266068 126.169418C99.826553 125.608948,100.141495 124.848801,100.141495 124.056107Z" style="fill: rgb(100.000000%,100.000000%,100.000000%);stroke: none;"></path>
  <path d="M85.187302 129.051758C85.187302 128.259064,84.872360 127.498917,84.311874 126.938446C83.751404 126.377960,82.991257 126.063019,82.198563 126.063019C81.405869 126.063019,80.645721 126.377960,80.085251 126.938446C79.524765 127.498917,79.209824 128.259064,79.209824 129.051758C79.209824 129.844452,79.524765 130.604599,80.085251 131.165070C80.645721 131.725555,81.405869 132.040497,82.198563 132.040497C82.991257 132.040497,83.751404 131.725555,84.311874 131.165070C84.872360 130.604599,85.187302 129.844452,85.187302 129.051758Z" style="fill: rgb(100.000000%,100.000000%,100.000000%);stroke: none;"></path>
  <path d="M92.733017 124.843018C92.733017 124.050323,92.418076 123.290176,91.857590 122.729706C91.297119 122.169220,90.536972 121.854279,89.744278 121.854279C88.951584 121.854279,88.191437 122.169220,87.630966 122.729706C87.070480 123.290176,86.755539 124.050323,86.755539 124.843018C86.755539 125.635712,87.070480 126.395859,87.630966 126.956329C88.191437 127.516815,88.951584 127.831757,89.744278 127.831757C90.536972 127.831757,91.297119 127.516815,91.857590 126.956329C92.418076 126.395859,92.733017 125.635712,92.733017 124.843018Z" style="fill: rgb(100.000000%,100.000000%,100.000000%);stroke: none;"></path>
  <path d="M71.242874 133.707443C61.411728 143.321808,46.981613 146.534836,34.000000 142.000000C13.769043 134.932785,3.909988 113.294968,3.118362 91.331512C2.288864 68.317459,12.772125 45.310516,34.000000 42.364212C46.866821 40.578369,59.434204 48.541107,72.202255 45.881958C84.777023 43.263062,93.094635 31.248184,105.434052 27.853485C125.771545 22.258438,143.055527 39.292023,156.851120 56.365051C170.406799 73.141174,182.500626 93.771591,171.240509 110.689377C164.220337 121.236862,149.673981 124.338974,143.260330 135.328339C137.065125 145.943436,141.025757 159.532822,135.885513 170.615784C126.580429 190.678635,100.100662 191.011444,76.943192 184.260773C54.243774 177.643631,32.217590 163.876968,34.000000 142.000000C35.020859 129.470078,44.741730 120.248474,53.175949 110.965332C57.117401 106.627167,60.873749 102.062378,65.602524 98.588364C67.675461 97.065475,70.016937 95.500961,70.241653 92.953201C70.470428 90.359314,68.373703 88.391724,66.501740 86.551117C62.046249 82.170273,58.614120 76.892914,54.592804 72.115707C46.665070 62.697800,36.187973 54.566299,34.000000 42.364212C30.863983 24.874969,44.672867 9.318848,62.905289 5.733429C80.995087 2.176056,99.578979 10.808685,105.434052 27.853485C109.646759 40.117172,105.451721 53.090317,100.920258 65.241409C98.384613 72.040741,95.756943 78.814392,92.510544 85.305817C90.822998 88.680191,88.961533 91.997162,87.957703 95.638077C87.065399 98.874481,86.885880 102.252167,86.286789 105.553329C85.653290 109.044098,84.548676 112.492783,84.770309 116.041809C84.988266 119.531815,86.468445 122.769730,87.468338 126.112457C88.355225 129.077393,89.309738 132.399719,92.244354 133.131409C95.341858 133.903717,97.780289 131.135010,100.035583 128.762878C102.964172 125.682571,106.634827 123.156158,108.311203 119.226807C110.107803 115.015656,109.174362 110.326080,108.779053 105.784256C108.364044 101.016205,108.472153 95.941742,105.553406 92.123718C102.487671 88.113419,97.249619 86.977768,92.510544 85.305817C87.955017 83.698639,83.460037 81.397476,78.630249 81.864578C74.266373 82.286621,70.549576 84.917725,66.501740 86.551117C63.445557 87.784363,59.955917 89.116043,59.796600 92.287109C59.642227 95.359680,62.808762 97.058762,65.602524 98.588364C68.799362 100.338654,71.685684 102.678467,75.125641 103.901352C78.690308 105.168579,82.535080 105.130615,86.286789 105.553329C89.835175 105.953140,93.335114 106.773804,96.905380 106.901642C100.889114 107.044281,104.832718 106.322983,108.779053 105.784256C116.380615 104.746536,124.051102 104.384750,131.712433 104.001770C145.462234 103.314423,159.929092 102.822495,171.240509 110.689377C185.492950 120.601685,189.737427 139.724457,181.645706 155.201065C172.866974 171.991684,152.529907 179.179672,135.885513 170.615784C124.857712 164.941757,118.847153 153.410812,111.376663 143.593994C107.604889 138.637589,103.356232 134.035797,100.035583 128.762878C98.625107 126.523148,97.152756 124.056107,94.563217 123.568649C91.992630 123.084763,89.744278 124.843018,87.468338 126.112457C82.198563 129.051758,75.594757 129.451523,71.242874 133.707443" style="stroke:rgb(0.000000%,0.000000%,0.000000%); stroke-width: 0.498138;stroke-linecap: round;stroke-linejoin: round;stroke-miterlimit: 10.000000;fill: none;"></path>
  <path d="M71.242874 133.707443C61.411728 143.321808,46.981613 146.534836,34.000000 142.000000" style="stroke:rgb(0.000000%,0.000000%,0.000000%); stroke-width: 1.494400;stroke-linecap: round;stroke-linejoin: round;stroke-miterlimit: 10.000000;fill: none;"></path>
  <path d="M100.035583 128.762878C98.625107 126.523148,97.152756 124.056107,94.563217 123.568649C91.992630 123.084763,89.744278 124.843018,87.468338 126.112457C82.198563 129.051758,75.594757 129.451523,71.242874 133.707443" style="stroke:rgb(0.000000%,0.000000%,0.000000%); stroke-width: 1.494400;stroke-linecap: round;stroke-linejoin: round;stroke-miterlimit: 10.000000;fill: none;"></path>
  <path d="M36.988739 142.000000C36.988739 141.207306,36.673798 140.447159,36.113312 139.886688C35.552841 139.326202,34.792694 139.011261,34.000000 139.011261C33.207306 139.011261,32.447159 139.326202,31.886688 139.886688C31.326202 140.447159,31.011261 141.207306,31.011261 142.000000C31.011261 142.792694,31.326202 143.552841,31.886688 144.113312C32.447159 144.673798,33.207306 144.988739,34.000000 144.988739C34.792694 144.988739,35.552841 144.673798,36.113312 144.113312C36.673798 143.552841,36.988739 142.792694,36.988739 142.000000Z" style="fill: rgb(100.000000%,100.000000%,100.000000%);stroke: none;"></path>
  <path d="M46.290909 168.852814C38.169739 161.849380,33.108795 152.938477,34.000000 142.000000C34.510437 135.735031,37.195877 130.297150,40.807983 125.265106" style="stroke:rgb(0.000000%,0.000000%,0.000000%); stroke-width: 0.498138;stroke-linecap: round;stroke-linejoin: round;stroke-miterlimit: 10.000000;fill: none;"></path>
  <path d="M108.422791 27.853485C108.422791 27.060791,108.107849 26.300644,107.547363 25.740173C106.986893 25.179688,106.226746 24.864746,105.434052 24.864746C104.641357 24.864746,103.881210 25.179688,103.320740 25.740173C102.760254 26.300644,102.445312 27.060791,102.445312 27.853485C102.445312 28.646179,102.760254 29.406326,103.320740 29.966797C103.881210 30.527283,104.641357 30.842224,105.434052 30.842224C106.226746 30.842224,106.986893 30.527283,107.547363 29.966797C108.107849 29.406326,108.422791 28.646179,108.422791 27.853485Z" style="fill: rgb(100.000000%,100.000000%,100.000000%);stroke: none;"></path>
  <path d="M88.757706 9.067642C96.396774 12.911728,102.506516 19.331085,105.434052 27.853485C107.540405 33.985336,107.544830 40.294540,106.456223 46.589676" style="stroke:rgb(0.000000%,0.000000%,0.000000%); stroke-width: 0.498138;stroke-linecap: round;stroke-linejoin: round;stroke-miterlimit: 10.000000;fill: none;"></path>
  <path d="M138.874252 170.615784C138.874252 169.823090,138.559311 169.062943,137.998825 168.502472C137.438354 167.941986,136.678207 167.627045,135.885513 167.627045C135.092819 167.627045,134.332672 167.941986,133.772202 168.502472C133.211716 169.062943,132.896774 169.823090,132.896774 170.615784C132.896774 171.408478,133.211716 172.168625,133.772202 172.729095C134.332672 173.289581,135.092819 173.604523,135.885513 173.604523C136.678207 173.604523,137.438354 173.289581,137.998825 172.729095C138.559311 172.168625,138.874252 171.408478,138.874252 170.615784Z" style="fill: rgb(100.000000%,100.000000%,100.000000%);stroke: none;"></path>
  <path d="M161.715225 172.416367C153.453064 175.241699,144.207703 174.897720,135.885513 170.615784C130.371613 167.778763,126.112015 163.477524,122.297089 158.658432" style="stroke:rgb(0.000000%,0.000000%,0.000000%); stroke-width: 0.498138;stroke-linecap: round;stroke-linejoin: round;stroke-miterlimit: 10.000000;fill: none;"></path>
  <path d="M68.591263 98.588364C68.591263 97.795670,68.276321 97.035522,67.715836 96.475052C67.155365 95.914566,66.395218 95.599625,65.602524 95.599625C64.809830 95.599625,64.049683 95.914566,63.489212 96.475052C62.928726 97.035522,62.613785 97.795670,62.613785 98.588364C62.613785 99.381058,62.928726 100.141205,63.489212 100.701675C64.049683 101.262161,64.809830 101.577103,65.602524 101.577103C66.395218 101.577103,67.155365 101.262161,67.715836 100.701675C68.276321 100.141205,68.591263 99.381058,68.591263 98.588364Z" style="fill: rgb(100.000000%,100.000000%,100.000000%);stroke: none;"></path>
  <path d="M59.094009 104.452789C61.116867 102.335068,63.238144 100.325363,65.602524 98.588364C66.638992 97.826920,67.742599 97.055069,68.615189 96.155106" style="stroke:rgb(0.000000%,0.000000%,0.000000%); stroke-width: 0.498138;stroke-linecap: round;stroke-linejoin: round;stroke-miterlimit: 10.000000;fill: none;"></path>
  <path d="M36.988739 42.364212C36.988739 41.571518,36.673798 40.811371,36.113312 40.250900C35.552841 39.690414,34.792694 39.375473,34.000000 39.375473C33.207306 39.375473,32.447159 39.690414,31.886688 40.250900C31.326202 40.811371,31.011261 41.571518,31.011261 42.364212C31.011261 43.156906,31.326202 43.917053,31.886688 44.477524C32.447159 45.038010,33.207306 45.352951,34.000000 45.352951C34.792694 45.352951,35.552841 45.038010,36.113312 44.477524C36.673798 43.917053,36.988739 43.156906,36.988739 42.364212Z" style="fill: rgb(100.000000%,100.000000%,100.000000%);stroke: none;"></path>
  <path d="M10.287674 59.322449C15.458282 50.325668,23.386063 43.837357,34.000000 42.364212C40.433411 41.471283,46.791962 43.015518,53.138168 44.450577" style="stroke:rgb(0.000000%,0.000000%,0.000000%); stroke-width: 0.498138;stroke-linecap: round;stroke-linejoin: round;stroke-miterlimit: 10.000000;fill: none;"></path>
  <path d="M95.499283 85.305817C95.499283 84.513123,95.184341 83.752975,94.623856 83.192505C94.063385 82.632019,93.303238 82.317078,92.510544 82.317078C91.717850 82.317078,90.957703 82.632019,90.397232 83.192505C89.836746 83.752975,89.521805 84.513123,89.521805 85.305817C89.521805 86.098511,89.836746 86.858658,90.397232 87.419128C90.957703 87.979614,91.717850 88.294556,92.510544 88.294556C93.303238 88.294556,94.063385 87.979614,94.623856 87.419128C95.184341 86.858658,95.499283 86.098511,95.499283 85.305817Z" style="fill: rgb(100.000000%,100.000000%,100.000000%);stroke: none;"></path>
  <path d="M99.659470 87.837875C97.374359 86.843689,94.880081 86.141785,92.510544 85.305817C90.232773 84.502228,87.970139 83.525131,85.673233 82.807327" style="stroke:rgb(0.000000%,0.000000%,0.000000%); stroke-width: 0.498138;stroke-linecap: round;stroke-linejoin: round;stroke-miterlimit: 10.000000;fill: none;"></path>
  <path d="M90.457077 126.112457C90.457077 125.319763,90.142136 124.559616,89.581650 123.999146C89.021179 123.438660,88.261032 123.123718,87.468338 123.123718C86.675644 123.123718,85.915497 123.438660,85.355026 123.999146C84.794540 124.559616,84.479599 125.319763,84.479599 126.112457C84.479599 126.905151,84.794540 127.665298,85.355026 128.225769C85.915497 128.786255,86.675644 129.101196,87.468338 129.101196C88.261032 129.101196,89.021179 128.786255,89.581650 128.225769C90.142136 127.665298,90.457077 126.905151,90.457077 126.112457Z" style="fill: rgb(100.000000%,100.000000%,100.000000%);stroke: none;"></path>
  <path d="M90.905273 124.183075C89.737381 124.720825,88.606308 125.477737,87.468338 126.112457C84.833450 127.582108,81.865051 128.416885,79.011383 129.416229" style="stroke:rgb(0.000000%,0.000000%,0.000000%); stroke-width: 1.494400;stroke-linecap: round;stroke-linejoin: round;stroke-miterlimit: 10.000000;fill: none;"></path>
  <path d="M111.767792 105.784256C111.767792 104.991562,111.452850 104.231415,110.892365 103.670944C110.331894 103.110458,109.571747 102.795517,108.779053 102.795517C107.986359 102.795517,107.226212 103.110458,106.665741 103.670944C106.105255 104.231415,105.790314 104.991562,105.790314 105.784256C105.790314 106.576950,106.105255 107.337097,106.665741 107.897568C107.226212 108.458054,107.986359 108.772995,108.779053 108.772995C109.571747 108.772995,110.331894 108.458054,110.892365 107.897568C111.452850 107.337097,111.767792 106.576950,111.767792 105.784256Z" style="fill: rgb(100.000000%,100.000000%,100.000000%);stroke: none;"></path>
  <path d="M102.856247 106.598450C104.833405 106.368622,106.805893 106.053619,108.779053 105.784256C112.579834 105.265396,116.397858 104.915512,120.223343 104.647476" style="stroke:rgb(0.000000%,0.000000%,0.000000%); stroke-width: 0.498138;stroke-linecap: round;stroke-linejoin: round;stroke-miterlimit: 10.000000;fill: none;"></path>
  <path d="M69.490479 86.551117C69.490479 85.758423,69.175537 84.998276,68.615051 84.437805C68.054581 83.877319,67.294434 83.562378,66.501740 83.562378C65.709045 83.562378,64.948898 83.877319,64.388428 84.437805C63.827942 84.998276,63.513000 85.758423,63.513000 86.551117C63.513000 87.343811,63.827942 88.103958,64.388428 88.664429C64.948898 89.224915,65.709045 89.539856,66.501740 89.539856C67.294434 89.539856,68.054581 89.224915,68.615051 88.664429C69.175537 88.103958,69.490479 87.343811,69.490479 86.551117Z" style="fill: rgb(100.000000%,100.000000%,100.000000%);stroke: none;"></path>
  <path d="M72.447464 83.753601C70.466812 84.668304,68.525650 85.734421,66.501740 86.551117C64.973648 87.167740,63.337189 87.808975,62.062836 88.692444" style="stroke:rgb(0.000000%,0.000000%,0.000000%); stroke-width: 0.498138;stroke-linecap: round;stroke-linejoin: round;stroke-miterlimit: 10.000000;fill: none;"></path>
  <path d="M89.275528 105.553329C89.275528 104.760635,88.960587 104.000488,88.400101 103.440018C87.839630 102.879532,87.079483 102.564590,86.286789 102.564590C85.494095 102.564590,84.733948 102.879532,84.173477 103.440018C83.612991 104.000488,83.298050 104.760635,83.298050 105.553329C83.298050 106.346024,83.612991 107.106171,84.173477 107.666641C84.733948 108.227127,85.494095 108.542068,86.286789 108.542068C87.079483 108.542068,87.839630 108.227127,88.400101 107.666641C88.960587 107.106171,89.275528 106.346024,89.275528 105.553329Z" style="fill: rgb(100.000000%,100.000000%,100.000000%);stroke: none;"></path>
  <path d="M87.012283 100.571426C86.780975 102.233047,86.586334 103.902756,86.286789 105.553329C85.970032 107.298721,85.535507 109.033585,85.207870 110.775742" style="stroke:rgb(0.000000%,0.000000%,0.000000%); stroke-width: 0.498138;stroke-linecap: round;stroke-linejoin: round;stroke-miterlimit: 10.000000;fill: none;"></path>
  <path d="M174.229248 110.689377C174.229248 109.896683,173.914307 109.136536,173.353821 108.576065C172.793350 108.015579,172.033203 107.700638,171.240509 107.700638C170.447815 107.700638,169.687668 108.015579,169.127197 108.576065C168.566711 109.136536,168.251770 109.896683,168.251770 110.689377C168.251770 111.482071,168.566711 112.242218,169.127197 112.802689C169.687668 113.363174,170.447815 113.678116,171.240509 113.678116C172.033203 113.678116,172.793350 113.363174,173.353821 112.802689C173.914307 112.242218,174.229248 111.482071,174.229248 110.689377Z" style="fill: rgb(100.000000%,100.000000%,100.000000%);stroke: none;"></path>
  <path d="M173.351746 83.474106C176.662140 92.843445,176.870560 102.230484,171.240509 110.689377C167.730423 115.963120,162.338791 119.375519,157.022964 122.843155" style="stroke:rgb(0.000000%,0.000000%,0.000000%); stroke-width: 0.498138;stroke-linecap: round;stroke-linejoin: round;stroke-miterlimit: 10.000000;fill: none;"></path>
  <path d="M103.024323 128.762878C103.024323 127.970184,102.709381 127.210037,102.148895 126.649567C101.588425 126.089081,100.828278 125.774139,100.035583 125.774139C99.242889 125.774139,98.482742 126.089081,97.922272 126.649567C97.361786 127.210037,97.046844 127.970184,97.046844 128.762878C97.046844 129.555573,97.361786 130.315720,97.922272 130.876190C98.482742 131.436676,99.242889 131.751617,100.035583 131.751617C100.828278 131.751617,101.588425 131.436676,102.148895 130.876190C102.709381 130.315720,103.024323 129.555573,103.024323 128.762878Z" style="fill: rgb(100.000000%,100.000000%,100.000000%);stroke: none;"></path>
  <path d="M96.455811 132.126297C97.734512 131.234146,98.907944 129.948944,100.035583 128.762878C101.499878 127.222717,103.149689 125.821030,104.642975 124.313217" style="stroke:rgb(0.000000%,0.000000%,0.000000%); stroke-width: 0.498138;stroke-linecap: round;stroke-linejoin: round;stroke-miterlimit: 10.000000;fill: none;"></path>
  <path d="M94.563217 123.568649C92.506744 123.181534,90.656494 124.229416,88.833374 125.313995" style="stroke:rgb(0.000000%,0.000000%,0.000000%); stroke-width: 0.498138;stroke-linecap: round;stroke-linejoin: round;stroke-miterlimit: 10.000000;fill: none;"></path>
  <path d="M92.436615 121.847427C90.948807 122.532578,89.877838 123.915329,88.833374 125.313995C90.560944 125.063583,92.295975 124.843124,93.832489 125.410721Z" style="stroke:rgb(0.000000%,0.000000%,0.000000%); stroke-width: 0.498138;fill: rgb(0.000000%,0.000000%,0.000000%);"></path>
  <path d="M94.563217 123.568649C92.506744 123.181534,90.656494 124.229416,88.833374 125.313995" style="stroke:rgb(0.000000%,0.000000%,0.000000%); stroke-width: 0.498138;stroke-linecap: round;stroke-linejoin: round;stroke-miterlimit: 10.000000;fill: none;"></path>
  <path d="M90.765015 123.018555C90.060516 123.688187,89.442429 124.498383,88.833374 125.313995C89.840775 125.167969,90.850739 125.032120,91.822388 125.056793Z" style="stroke:rgb(0.000000%,0.000000%,0.000000%); stroke-width: 0.498138;fill: rgb(0.000000%,0.000000%,0.000000%);"></path>
  <path d="M72.202255 45.881958C82.262115 43.786835,89.597366 35.678238,98.446884 30.780533" style="stroke:rgb(0.000000%,0.000000%,0.000000%); stroke-width: 0.498138;stroke-linecap: round;stroke-linejoin: round;stroke-miterlimit: 10.000000;fill: none;"></path>
  <path d="M96.652084 33.184189C97.229553 32.364166,97.825455 31.560745,98.446884 30.780533C97.455765 30.892776,96.466309 31.039520,95.478134 31.211014Z" style="stroke:rgb(0.000000%,0.000000%,0.000000%); stroke-width: 0.498138;fill: rgb(0.000000%,0.000000%,0.000000%);"></path>
  <path d="M143.260330 135.328339C138.304153 143.820450,139.847748 154.216125,138.031586 163.709198" style="stroke:rgb(0.000000%,0.000000%,0.000000%); stroke-width: 0.498138;stroke-linecap: round;stroke-linejoin: round;stroke-miterlimit: 10.000000;fill: none;"></path>
  <path d="M137.327576 160.792816C137.591507 161.761017,137.829895 162.732697,138.031586 163.709198C138.579468 162.876099,139.098007 162.020447,139.596008 161.149231Z" style="stroke:rgb(0.000000%,0.000000%,0.000000%); stroke-width: 0.498138;fill: rgb(0.000000%,0.000000%,0.000000%);"></path>
  <path d="M53.175949 110.965332C56.329117 107.494781,59.363831 103.879196,62.872726 100.793091" style="stroke:rgb(0.000000%,0.000000%,0.000000%); stroke-width: 0.498138;stroke-linecap: round;stroke-linejoin: round;stroke-miterlimit: 10.000000;fill: none;"></path>
  <path d="M61.629990 103.523682C62.020157 102.601974,62.431778 101.690491,62.872726 100.793091C61.926376 101.115845,60.990768 101.469284,60.063126 101.845123Z" style="stroke:rgb(0.000000%,0.000000%,0.000000%); stroke-width: 0.498138;fill: rgb(0.000000%,0.000000%,0.000000%);"></path>
  <path d="M100.920258 65.241409C98.891739 70.680893,96.804321 76.103943,94.388336 81.379211" style="stroke:rgb(0.000000%,0.000000%,0.000000%); stroke-width: 0.498138;stroke-linecap: round;stroke-linejoin: round;stroke-miterlimit: 10.000000;fill: none;"></path>
  <path d="M94.468063 78.380386C94.451157 79.380249,94.425110 80.379898,94.388336 81.379211C95.120972 80.698593,95.846268 80.010193,96.565231 79.315140Z" style="stroke:rgb(0.000000%,0.000000%,0.000000%); stroke-width: 0.498138;fill: rgb(0.000000%,0.000000%,0.000000%);"></path>
  <path d="M84.770309 116.041809C84.944672 118.833817,85.926865 121.464508,86.824707 124.116577" style="stroke:rgb(0.000000%,0.000000%,0.000000%); stroke-width: 0.498138;stroke-linecap: round;stroke-linejoin: round;stroke-miterlimit: 10.000000;fill: none;"></path>
  <path d="M84.854553 121.854202C85.497208 122.617203,86.165421 123.363571,86.824707 124.116577C86.890976 123.117935,86.946274 122.117691,87.031372 121.123734Z" style="stroke:rgb(0.000000%,0.000000%,0.000000%); stroke-width: 0.498138;fill: rgb(0.000000%,0.000000%,0.000000%);"></path>
  <path d="M92.244354 133.131409C94.722366 133.749252,96.778564 132.100830,98.656647 130.202225" style="stroke:rgb(0.000000%,0.000000%,0.000000%); stroke-width: 0.498138;stroke-linecap: round;stroke-linejoin: round;stroke-miterlimit: 10.000000;fill: none;"></path>
  <path d="M97.317825 132.886917C97.840775 132.083710,98.268021 131.155060,98.656647 130.202225C97.708084 130.601166,96.749313 130.955688,95.811569 131.153854Z" style="stroke:rgb(0.000000%,0.000000%,0.000000%); stroke-width: 0.498138;fill: rgb(0.000000%,0.000000%,0.000000%);"></path>
  <path d="M78.630249 81.864578C75.139130 82.202209,72.062149 83.953659,68.898499 85.477036" style="stroke:rgb(0.000000%,0.000000%,0.000000%); stroke-width: 0.498138;stroke-linecap: round;stroke-linejoin: round;stroke-miterlimit: 10.000000;fill: none;"></path>
  <path d="M70.882675 83.226898C70.218048 83.970932,69.565079 84.731186,68.898499 85.477036C69.897232 85.421005,70.896545 85.345169,71.892624 85.289032Z" style="stroke:rgb(0.000000%,0.000000%,0.000000%); stroke-width: 0.498138;fill: rgb(0.000000%,0.000000%,0.000000%);"></path>
  <path d="M96.905380 106.901642C100.092377 107.015747,103.253693 106.576935,106.411270 106.121017" style="stroke:rgb(0.000000%,0.000000%,0.000000%); stroke-width: 0.498138;stroke-linecap: round;stroke-linejoin: round;stroke-miterlimit: 10.000000;fill: none;"></path>
  <path d="M103.821152 107.634811C104.690140 107.141632,105.551208 106.632034,106.411270 106.121017C105.441772 105.874191,104.472580 105.625641,103.509384 105.359879Z" style="stroke:rgb(0.000000%,0.000000%,0.000000%); stroke-width: 0.498138;fill: rgb(0.000000%,0.000000%,0.000000%);"></path>
  <path d="M111.376663 143.593994C108.359238 139.628860,105.036591 135.890671,102.128052 131.854248" style="stroke:rgb(0.000000%,0.000000%,0.000000%); stroke-width: 0.498138;stroke-linecap: round;stroke-linejoin: round;stroke-miterlimit: 10.000000;fill: none;"></path>
  <path d="M104.708069 133.385010C103.839722 132.888168,102.978470 132.379974,102.128052 131.854248C102.357620 132.827332,102.607269 133.795670,102.869934 134.761017Z" style="stroke:rgb(0.000000%,0.000000%,0.000000%); stroke-width: 0.498138;fill: rgb(0.000000%,0.000000%,0.000000%);"></path>
  <path d="M68.252228 136.417648L74.233521 136.417648L74.233521 128.997253L68.252228 128.997253Z" style="fill: rgb(100.000000%,100.000000%,100.000000%);stroke: none;"></path>
  <path d="M68.252228 138.417648L74.233521 138.417648L74.233521 130.997253L68.252228 130.997253Z" style="fill: rgb(100.000000%,100.000000%,100.000000%);stroke: none;"></path>
  <g transform="translate(68.752228 136.917648)" style="fill: rgb(0.000000%,0.000000%,0.000000%);">
    <use xlink:href="#GLYPHcmr10_49"></use>
  </g>
  <path d="M0.127716 94.041718L6.109009 94.041718L6.109009 86.621323L0.127716 86.621323Z" style="fill: rgb(100.000000%,100.000000%,100.000000%);stroke: none;"></path>
  <path d="M0.127716 96.041718L6.109009 96.041718L6.109009 88.621323L0.127716 88.621323Z" style="fill: rgb(100.000000%,100.000000%,100.000000%);stroke: none;"></path>
  <g transform="translate(0.627716 94.541718)" style="fill: rgb(0.000000%,0.000000%,0.000000%);">
    <use xlink:href="#GLYPHcmr10_50"></use>
  </g>
  <path d="M153.860474 59.075256L159.841766 59.075256L159.841766 51.654861L153.860474 51.654861Z" style="fill: rgb(100.000000%,100.000000%,100.000000%);stroke: none;"></path>
  <path d="M153.860474 61.075256L159.841766 61.075256L159.841766 53.654861L153.860474 53.654861Z" style="fill: rgb(100.000000%,100.000000%,100.000000%);stroke: none;"></path>
  <g transform="translate(154.360474 59.575256)" style="fill: rgb(0.000000%,0.000000%,0.000000%);">
    <use xlink:href="#GLYPHcmr10_51"></use>
  </g>
  <path d="M73.952545 186.970978L79.933838 186.970978L79.933838 179.550583L73.952545 179.550583Z" style="fill: rgb(100.000000%,100.000000%,100.000000%);stroke: none;"></path>
  <path d="M73.952545 188.970978L79.933838 188.970978L79.933838 181.550583L73.952545 181.550583Z" style="fill: rgb(100.000000%,100.000000%,100.000000%);stroke: none;"></path>
  <g transform="translate(74.452545 187.470978)" style="fill: rgb(0.000000%,0.000000%,0.000000%);">
    <use xlink:href="#GLYPHcmr10_52"></use>
  </g>
  <path d="M51.602158 74.825912L57.583450 74.825912L57.583450 67.405518L51.602158 67.405518Z" style="fill: rgb(100.000000%,100.000000%,100.000000%);stroke: none;"></path>
  <path d="M51.602158 76.825912L57.583450 76.825912L57.583450 69.405518L51.602158 69.405518Z" style="fill: rgb(100.000000%,100.000000%,100.000000%);stroke: none;"></path>
  <g transform="translate(52.102158 75.325912)" style="fill: rgb(0.000000%,0.000000%,0.000000%);">
    <use xlink:href="#GLYPHcmr10_53"></use>
  </g>
  <path d="M59.914642 8.443634L65.895935 8.443634L65.895935 1.023239L59.914642 1.023239Z" style="fill: rgb(100.000000%,100.000000%,100.000000%);stroke: none;"></path>
  <path d="M59.914642 10.443634L65.895935 10.443634L65.895935 3.023239L59.914642 3.023239Z" style="fill: rgb(100.000000%,100.000000%,100.000000%);stroke: none;"></path>
  <g transform="translate(60.414642 8.943634)" style="fill: rgb(0.000000%,0.000000%,0.000000%);">
    <use xlink:href="#GLYPHcmr10_54"></use>
  </g>
  <path d="M84.967056 98.348282L90.948349 98.348282L90.948349 90.927887L84.967056 90.927887Z" style="fill: rgb(100.000000%,100.000000%,100.000000%);stroke: none;"></path>
  <path d="M84.967056 100.348282L90.948349 100.348282L90.948349 92.927887L84.967056 92.927887Z" style="fill: rgb(100.000000%,100.000000%,100.000000%);stroke: none;"></path>
  <g transform="translate(85.467056 98.848282)" style="fill: rgb(0.000000%,0.000000%,0.000000%);">
    <use xlink:href="#GLYPHcmr10_55"></use>
  </g>
  <path d="M105.320557 121.937012L111.301849 121.937012L111.301849 114.516617L105.320557 114.516617Z" style="fill: rgb(100.000000%,100.000000%,100.000000%);stroke: none;"></path>
  <path d="M105.320557 123.937012L111.301849 123.937012L111.301849 116.516617L105.320557 116.516617Z" style="fill: rgb(100.000000%,100.000000%,100.000000%);stroke: none;"></path>
  <g transform="translate(105.820557 122.437012)" style="fill: rgb(0.000000%,0.000000%,0.000000%);">
    <use xlink:href="#GLYPHcmr10_56"></use>
  </g>
  <path d="M102.562759 94.833923L108.544052 94.833923L108.544052 87.413528L102.562759 87.413528Z" style="fill: rgb(100.000000%,100.000000%,100.000000%);stroke: none;"></path>
  <path d="M102.562759 96.833923L108.544052 96.833923L108.544052 89.413528L102.562759 89.413528Z" style="fill: rgb(100.000000%,100.000000%,100.000000%);stroke: none;"></path>
  <g transform="translate(103.062759 95.333923)" style="fill: rgb(0.000000%,0.000000%,0.000000%);">
    <use xlink:href="#GLYPHcmr10_57"></use>
  </g>
  <path d="M69.644287 106.611557L80.606995 106.611557L80.606995 99.191162L69.644287 99.191162Z" style="fill: rgb(100.000000%,100.000000%,100.000000%);stroke: none;"></path>
  <path d="M69.644287 108.611557L80.606995 108.611557L80.606995 101.191162L69.644287 101.191162Z" style="fill: rgb(100.000000%,100.000000%,100.000000%);stroke: none;"></path>
  <g transform="translate(70.144287 107.111557)" style="fill: rgb(0.000000%,0.000000%,0.000000%);">
    <use xlink:href="#GLYPHcmr10_49"></use>
    <use xlink:href="#GLYPHcmr10_48" x="5.000095"></use>
  </g>
  <path d="M126.231079 106.711975L137.193787 106.711975L137.193787 99.291580L126.231079 99.291580Z" style="fill: rgb(100.000000%,100.000000%,100.000000%);stroke: none;"></path>
  <path d="M126.231079 108.711975L137.193787 108.711975L137.193787 101.291580L126.231079 101.291580Z" style="fill: rgb(100.000000%,100.000000%,100.000000%);stroke: none;"></path>
  <g transform="translate(126.731079 107.211975)" style="fill: rgb(0.000000%,0.000000%,0.000000%);">
    <use xlink:href="#GLYPHcmr10_49"></use>
    <use xlink:href="#GLYPHcmr10_49" x="5.000095"></use>
  </g>
  <path d="M176.164352 157.911270L187.127060 157.911270L187.127060 150.490875L176.164352 150.490875Z" style="fill: rgb(100.000000%,100.000000%,100.000000%);stroke: none;"></path>
  <path d="M176.164352 159.911270L187.127060 159.911270L187.127060 152.490875L176.164352 152.490875Z" style="fill: rgb(100.000000%,100.000000%,100.000000%);stroke: none;"></path>
  <g transform="translate(176.664352 158.411270)" style="fill: rgb(0.000000%,0.000000%,0.000000%);">
    <use xlink:href="#GLYPHcmr10_49"></use>
    <use xlink:href="#GLYPHcmr10_50" x="5.000095"></use>
  </g>
</svg>
