<?xml version="1.0"?>
<!-- Created by MetaPost 1.999 on 2021.07.05:2359 -->
<svg version="1.1" xmlns="http://www.w3.org/2000/svg" xmlns:xlink="http://www.w3.org/1999/xlink" width="197.797318" height="202.503235" viewBox="0 0 197.797318 202.503235">
<!-- Original BoundingBox: -95.168732 -116.256561 102.628586 86.246674 -->
  <defs>
    <g transform="scale(0.009963,0.009963)" id="GLYPHcmr10_48">
      <path style="fill-rule: evenodd;" d="M460.000000 -320.000000C460.000000 -400.000000,455.000000 -480.000000,420.000000 -554.000000C374.000000 -650.000000,292.000000 -666.000000,250.000000 -666.000000C190.000000 -666.000000,117.000000 -640.000000,76.000000 -547.000000C44.000000 -478.000000,39.000000 -400.000000,39.000000 -320.000000C39.000000 -245.000000,43.000000 -155.000000,84.000000 -79.000000C127.000000 2.000000,200.000000 22.000000,249.000000 22.000000C303.000000 22.000000,379.000000 1.000000,423.000000 -94.000000C455.000000 -163.000000,460.000000 -241.000000,460.000000 -320.000000M249.000000 -0.000000C210.000000 -0.000000,151.000000 -25.000000,133.000000 -121.000000C122.000000 -181.000000,122.000000 -273.000000,122.000000 -332.000000C122.000000 -396.000000,122.000000 -462.000000,130.000000 -516.000000C149.000000 -635.000000,224.000000 -644.000000,249.000000 -644.000000C282.000000 -644.000000,348.000000 -626.000000,367.000000 -527.000000C377.000000 -471.000000,377.000000 -395.000000,377.000000 -332.000000C377.000000 -257.000000,377.000000 -189.000000,366.000000 -125.000000C351.000000 -30.000000,294.000000 -0.000000,249.000000 -0.000000"></path>
    </g>
    <g transform="scale(0.009963,0.009963)" id="GLYPHcmr10_49">
      <path style="fill-rule: evenodd;" d="M294.000000 -640.000000C294.000000 -664.000000,294.000000 -666.000000,271.000000 -666.000000C209.000000 -602.000000,121.000000 -602.000000,89.000000 -602.000000L89.000000 -571.000000C109.000000 -571.000000,168.000000 -571.000000,220.000000 -597.000000L220.000000 -79.000000C220.000000 -43.000000,217.000000 -31.000000,127.000000 -31.000000L95.000000 -31.000000L95.000000 -0.000000L257.000000 -0.000000L130.000000 -3.000000L217.000000 -3.000000L257.000000 -3.000000L297.000000 -3.000000L384.000000 -3.000000L419.000000 -0.000000L419.000000 -31.000000L387.000000 -31.000000C297.000000 -31.000000,294.000000 -42.000000,294.000000 -79.000000"></path>
    </g>
    <g transform="scale(0.009963,0.009963)" id="GLYPHcmr10_50">
      <path style="fill-rule: evenodd;" d="M127.000000 -77.000000L233.000000 -180.000000C389.000000 -318.000000,449.000000 -372.000000,449.000000 -472.000000C449.000000 -586.000000,359.000000 -666.000000,237.000000 -666.000000C124.000000 -666.000000,50.000000 -574.000000,50.000000 -485.000000C50.000000 -429.000000,100.000000 -429.000000,103.000000 -429.000000C120.000000 -429.000000,155.000000 -441.000000,155.000000 -482.000000C155.000000 -508.000000,137.000000 -534.000000,102.000000 -534.000000C94.000000 -534.000000,92.000000 -534.000000,89.000000 -533.000000C112.000000 -598.000000,166.000000 -635.000000,224.000000 -635.000000C315.000000 -635.000000,358.000000 -554.000000,358.000000 -472.000000C358.000000 -392.000000,308.000000 -313.000000,253.000000 -251.000000L61.000000 -37.000000C50.000000 -26.000000,50.000000 -24.000000,50.000000 -0.000000L421.000000 -0.000000L449.000000 -174.000000L424.000000 -174.000000C419.000000 -144.000000,412.000000 -100.000000,402.000000 -85.000000C395.000000 -77.000000,329.000000 -77.000000,307.000000 -77.000000"></path>
    </g>
    <g transform="scale(0.009963,0.009963)" id="GLYPHcmr10_51">
      <path style="fill-rule: evenodd;" d="M290.000000 -352.000000C372.000000 -379.000000,430.000000 -449.000000,430.000000 -528.000000C430.000000 -610.000000,342.000000 -666.000000,246.000000 -666.000000C145.000000 -666.000000,69.000000 -606.000000,69.000000 -530.000000C69.000000 -497.000000,91.000000 -478.000000,120.000000 -478.000000C151.000000 -478.000000,171.000000 -500.000000,171.000000 -529.000000C171.000000 -579.000000,124.000000 -579.000000,109.000000 -579.000000C140.000000 -628.000000,206.000000 -641.000000,242.000000 -641.000000C283.000000 -641.000000,338.000000 -619.000000,338.000000 -529.000000C338.000000 -517.000000,336.000000 -459.000000,310.000000 -415.000000C280.000000 -367.000000,246.000000 -364.000000,221.000000 -363.000000C213.000000 -362.000000,189.000000 -360.000000,182.000000 -360.000000C174.000000 -359.000000,167.000000 -358.000000,167.000000 -348.000000C167.000000 -337.000000,174.000000 -337.000000,191.000000 -337.000000L235.000000 -337.000000C317.000000 -337.000000,354.000000 -269.000000,354.000000 -171.000000C354.000000 -35.000000,285.000000 -6.000000,241.000000 -6.000000C198.000000 -6.000000,123.000000 -23.000000,88.000000 -82.000000C123.000000 -77.000000,154.000000 -99.000000,154.000000 -137.000000C154.000000 -173.000000,127.000000 -193.000000,98.000000 -193.000000C74.000000 -193.000000,42.000000 -179.000000,42.000000 -135.000000C42.000000 -44.000000,135.000000 22.000000,244.000000 22.000000C366.000000 22.000000,457.000000 -69.000000,457.000000 -171.000000C457.000000 -253.000000,394.000000 -331.000000,290.000000 -352.000000"></path>
    </g>
    <g transform="scale(0.009963,0.009963)" id="GLYPHcmr10_52">
      <path style="fill-rule: evenodd;" d="M294.000000 -165.000000L294.000000 -78.000000C294.000000 -42.000000,292.000000 -31.000000,218.000000 -31.000000L197.000000 -31.000000L197.000000 -0.000000L332.000000 -0.000000L238.000000 -3.000000L290.000000 -3.000000L332.000000 -3.000000L374.000000 -3.000000L427.000000 -3.000000L468.000000 -0.000000L468.000000 -31.000000L447.000000 -31.000000C373.000000 -31.000000,371.000000 -42.000000,371.000000 -78.000000L371.000000 -165.000000L471.000000 -165.000000L471.000000 -196.000000L371.000000 -196.000000L371.000000 -651.000000C371.000000 -671.000000,371.000000 -677.000000,355.000000 -677.000000C346.000000 -677.000000,343.000000 -677.000000,335.000000 -665.000000L28.000000 -196.000000L28.000000 -165.000000M300.000000 -196.000000L56.000000 -196.000000L300.000000 -569.000000"></path>
    </g>
    <g transform="scale(0.009963,0.009963)" id="GLYPHcmr10_53">
      <path style="fill-rule: evenodd;" d="M449.000000 -201.000000C449.000000 -320.000000,367.000000 -420.000000,259.000000 -420.000000C211.000000 -420.000000,168.000000 -404.000000,132.000000 -369.000000L132.000000 -564.000000C152.000000 -558.000000,185.000000 -551.000000,217.000000 -551.000000C340.000000 -551.000000,410.000000 -642.000000,410.000000 -655.000000C410.000000 -661.000000,407.000000 -666.000000,400.000000 -666.000000C399.000000 -666.000000,397.000000 -666.000000,392.000000 -663.000000C372.000000 -654.000000,323.000000 -634.000000,256.000000 -634.000000C216.000000 -634.000000,170.000000 -641.000000,123.000000 -662.000000C115.000000 -665.000000,113.000000 -665.000000,111.000000 -665.000000C101.000000 -665.000000,101.000000 -657.000000,101.000000 -641.000000L101.000000 -345.000000C101.000000 -327.000000,101.000000 -319.000000,115.000000 -319.000000C122.000000 -319.000000,124.000000 -322.000000,128.000000 -328.000000C139.000000 -344.000000,176.000000 -398.000000,257.000000 -398.000000C309.000000 -398.000000,334.000000 -352.000000,342.000000 -334.000000C358.000000 -297.000000,360.000000 -258.000000,360.000000 -208.000000C360.000000 -173.000000,360.000000 -113.000000,336.000000 -71.000000C312.000000 -32.000000,275.000000 -6.000000,229.000000 -6.000000C156.000000 -6.000000,99.000000 -59.000000,82.000000 -118.000000C85.000000 -117.000000,88.000000 -116.000000,99.000000 -116.000000C132.000000 -116.000000,149.000000 -141.000000,149.000000 -165.000000C149.000000 -189.000000,132.000000 -214.000000,99.000000 -214.000000C85.000000 -214.000000,50.000000 -207.000000,50.000000 -161.000000C50.000000 -75.000000,119.000000 22.000000,231.000000 22.000000C347.000000 22.000000,449.000000 -74.000000,449.000000 -201.000000"></path>
    </g>
    <g transform="scale(0.009963,0.009963)" id="GLYPHcmr10_54">
      <path style="fill-rule: evenodd;" d="M132.000000 -328.000000L132.000000 -352.000000C132.000000 -605.000000,256.000000 -641.000000,307.000000 -641.000000C331.000000 -641.000000,373.000000 -635.000000,395.000000 -601.000000C380.000000 -601.000000,340.000000 -601.000000,340.000000 -556.000000C340.000000 -525.000000,364.000000 -510.000000,386.000000 -510.000000C402.000000 -510.000000,432.000000 -519.000000,432.000000 -558.000000C432.000000 -618.000000,388.000000 -666.000000,305.000000 -666.000000C177.000000 -666.000000,42.000000 -537.000000,42.000000 -316.000000C42.000000 -49.000000,158.000000 22.000000,251.000000 22.000000C362.000000 22.000000,457.000000 -72.000000,457.000000 -204.000000C457.000000 -331.000000,368.000000 -427.000000,257.000000 -427.000000C189.000000 -427.000000,152.000000 -376.000000,132.000000 -328.000000M251.000000 -6.000000C188.000000 -6.000000,158.000000 -66.000000,152.000000 -81.000000C134.000000 -128.000000,134.000000 -208.000000,134.000000 -226.000000C134.000000 -304.000000,166.000000 -404.000000,256.000000 -404.000000C272.000000 -404.000000,318.000000 -404.000000,349.000000 -342.000000C367.000000 -305.000000,367.000000 -254.000000,367.000000 -205.000000C367.000000 -157.000000,367.000000 -107.000000,350.000000 -71.000000C320.000000 -11.000000,274.000000 -6.000000,251.000000 -6.000000"></path>
    </g>
    <g transform="scale(0.009963,0.009963)" id="GLYPHcmr10_55">
      <path style="fill-rule: evenodd;" d="M476.000000 -609.000000C485.000000 -621.000000,485.000000 -623.000000,485.000000 -644.000000L242.000000 -644.000000C120.000000 -644.000000,118.000000 -657.000000,114.000000 -676.000000L89.000000 -676.000000L56.000000 -470.000000L81.000000 -470.000000C84.000000 -486.000000,93.000000 -549.000000,106.000000 -561.000000C113.000000 -567.000000,191.000000 -567.000000,204.000000 -567.000000L411.000000 -567.000000C400.000000 -551.000000,321.000000 -442.000000,299.000000 -409.000000C209.000000 -274.000000,176.000000 -135.000000,176.000000 -33.000000C176.000000 -23.000000,176.000000 22.000000,222.000000 22.000000C268.000000 22.000000,268.000000 -23.000000,268.000000 -33.000000L268.000000 -84.000000C268.000000 -139.000000,271.000000 -194.000000,279.000000 -248.000000C283.000000 -271.000000,297.000000 -357.000000,341.000000 -419.000000"></path>
    </g>
    <g transform="scale(0.009963,0.009963)" id="GLYPHcmr10_56">
      <path style="fill-rule: evenodd;" d="M163.000000 -457.000000C117.000000 -487.000000,113.000000 -521.000000,113.000000 -538.000000C113.000000 -599.000000,178.000000 -641.000000,249.000000 -641.000000C322.000000 -641.000000,386.000000 -589.000000,386.000000 -517.000000C386.000000 -460.000000,347.000000 -412.000000,287.000000 -377.000000M309.000000 -362.000000C381.000000 -399.000000,430.000000 -451.000000,430.000000 -517.000000C430.000000 -609.000000,341.000000 -666.000000,250.000000 -666.000000C150.000000 -666.000000,69.000000 -592.000000,69.000000 -499.000000C69.000000 -481.000000,71.000000 -436.000000,113.000000 -389.000000C124.000000 -377.000000,161.000000 -352.000000,186.000000 -335.000000C128.000000 -306.000000,42.000000 -250.000000,42.000000 -151.000000C42.000000 -45.000000,144.000000 22.000000,249.000000 22.000000C362.000000 22.000000,457.000000 -61.000000,457.000000 -168.000000C457.000000 -204.000000,446.000000 -249.000000,408.000000 -291.000000C389.000000 -312.000000,373.000000 -322.000000,309.000000 -362.000000M209.000000 -320.000000L332.000000 -242.000000C360.000000 -223.000000,407.000000 -193.000000,407.000000 -132.000000C407.000000 -58.000000,332.000000 -6.000000,250.000000 -6.000000C164.000000 -6.000000,92.000000 -68.000000,92.000000 -151.000000C92.000000 -209.000000,124.000000 -273.000000,209.000000 -320.000000"></path>
    </g>
    <g transform="scale(0.009963,0.009963)" id="GLYPHcmr10_57">
      <path style="fill-rule: evenodd;" d="M367.000000 -318.000000L367.000000 -286.000000C367.000000 -52.000000,263.000000 -6.000000,205.000000 -6.000000C188.000000 -6.000000,134.000000 -8.000000,107.000000 -42.000000C151.000000 -42.000000,159.000000 -71.000000,159.000000 -88.000000C159.000000 -119.000000,135.000000 -134.000000,113.000000 -134.000000C97.000000 -134.000000,67.000000 -125.000000,67.000000 -86.000000C67.000000 -19.000000,121.000000 22.000000,206.000000 22.000000C335.000000 22.000000,457.000000 -114.000000,457.000000 -329.000000C457.000000 -598.000000,342.000000 -666.000000,253.000000 -666.000000C198.000000 -666.000000,149.000000 -648.000000,106.000000 -603.000000C65.000000 -558.000000,42.000000 -516.000000,42.000000 -441.000000C42.000000 -316.000000,130.000000 -218.000000,242.000000 -218.000000C303.000000 -218.000000,344.000000 -260.000000,367.000000 -318.000000M243.000000 -241.000000C227.000000 -241.000000,181.000000 -241.000000,150.000000 -304.000000C132.000000 -341.000000,132.000000 -391.000000,132.000000 -440.000000C132.000000 -494.000000,132.000000 -541.000000,153.000000 -578.000000C180.000000 -628.000000,218.000000 -641.000000,253.000000 -641.000000C299.000000 -641.000000,332.000000 -607.000000,349.000000 -562.000000C361.000000 -530.000000,365.000000 -467.000000,365.000000 -421.000000C365.000000 -338.000000,331.000000 -241.000000,243.000000 -241.000000"></path>
    </g>
  </defs>
  <path d="M95.859482 91.159241C95.859482 90.366547,95.544540 89.606400,94.984055 89.045929C94.423584 88.485443,93.663437 88.170502,92.870743 88.170502C92.078049 88.170502,91.317902 88.485443,90.757431 89.045929C90.196945 89.606400,89.882004 90.366547,89.882004 91.159241C89.882004 91.951935,90.196945 92.712082,90.757431 93.272552C91.317902 93.833038,92.078049 94.147980,92.870743 94.147980C93.663437 94.147980,94.423584 93.833038,94.984055 93.272552C95.544540 92.712082,95.859482 91.951935,95.859482 91.159241Z" style="fill: rgb(100.000000%,100.000000%,100.000000%);stroke: none;"></path>
  <path d="M94.850555 93.761154C94.850555 92.968460,94.535614 92.208313,93.975128 91.647842C93.414658 91.087357,92.654510 90.772415,91.861816 90.772415C91.069122 90.772415,90.308975 91.087357,89.748505 91.647842C89.188019 92.208313,88.873077 92.968460,88.873077 93.761154C88.873077 94.553848,89.188019 95.313995,89.748505 95.874466C90.308975 96.434952,91.069122 96.749893,91.861816 96.749893C92.654510 96.749893,93.414658 96.434952,93.975128 95.874466C94.535614 95.313995,94.850555 94.553848,94.850555 93.761154Z" style="fill: rgb(100.000000%,100.000000%,100.000000%);stroke: none;"></path>
  <path d="M99.219894 83.076477C99.219894 82.283783,98.904953 81.523636,98.344467 80.963165C97.783997 80.402679,97.023849 80.087738,96.231155 80.087738C95.438461 80.087738,94.678314 80.402679,94.117844 80.963165C93.557358 81.523636,93.242416 82.283783,93.242416 83.076477C93.242416 83.869171,93.557358 84.629318,94.117844 85.189789C94.678314 85.750275,95.438461 86.065216,96.231155 86.065216C97.023849 86.065216,97.783997 85.750275,98.344467 85.189789C98.904953 84.629318,99.219894 83.869171,99.219894 83.076477Z" style="fill: rgb(100.000000%,100.000000%,100.000000%);stroke: none;"></path>
  <path d="M96.905655 88.571930C96.905655 87.779236,96.590714 87.019089,96.030228 86.458618C95.469757 85.898132,94.709610 85.583191,93.916916 85.583191C93.124222 85.583191,92.364075 85.898132,91.803604 86.458618C91.243118 87.019089,90.928177 87.779236,90.928177 88.571930C90.928177 89.364624,91.243118 90.124771,91.803604 90.685242C92.364075 91.245728,93.124222 91.560669,93.916916 91.560669C94.709610 91.560669,95.469757 91.245728,96.030228 90.685242C96.590714 90.124771,96.905655 89.364624,96.905655 88.571930Z" style="fill: rgb(100.000000%,100.000000%,100.000000%);stroke: none;"></path>
  <path d="M100.739929 73.261597C100.739929 72.468903,100.424988 71.708755,99.864502 71.148285C99.304031 70.587799,98.543884 70.272858,97.751190 70.272858C96.958496 70.272858,96.198349 70.587799,95.637878 71.148285C95.077393 71.708755,94.762451 72.468903,94.762451 73.261597C94.762451 74.054291,95.077393 74.814438,95.637878 75.374908C96.198349 75.935394,96.958496 76.250336,97.751190 76.250336C98.543884 76.250336,99.304031 75.935394,99.864502 75.374908C100.424988 74.814438,100.739929 74.054291,100.739929 73.261597Z" style="fill: rgb(100.000000%,100.000000%,100.000000%);stroke: none;"></path>
  <path d="M100.510788 80.113449C100.510788 79.320755,100.195847 78.560608,99.635361 78.000137C99.074890 77.439651,98.314743 77.124710,97.522049 77.124710C96.729355 77.124710,95.969208 77.439651,95.408737 78.000137C94.848251 78.560608,94.533310 79.320755,94.533310 80.113449C94.533310 80.906143,94.848251 81.666290,95.408737 82.226761C95.969208 82.787247,96.729355 83.102188,97.522049 83.102188C98.314743 83.102188,99.074890 82.787247,99.635361 82.226761C100.195847 81.666290,100.510788 80.906143,100.510788 80.113449Z" style="fill: rgb(100.000000%,100.000000%,100.000000%);stroke: none;"></path>
  <path d="M95.635269 60.068695C95.635269 59.276001,95.320328 58.515854,94.759842 57.955383C94.199371 57.394897,93.439224 57.079956,92.646530 57.079956C91.853836 57.079956,91.093689 57.394897,90.533218 57.955383C89.972733 58.515854,89.657791 59.276001,89.657791 60.068695C89.657791 60.861389,89.972733 61.621536,90.533218 62.182007C91.093689 62.742493,91.853836 63.057434,92.646530 63.057434C93.439224 63.057434,94.199371 62.742493,94.759842 62.182007C95.320328 61.621536,95.635269 60.861389,95.635269 60.068695Z" style="fill: rgb(100.000000%,100.000000%,100.000000%);stroke: none;"></path>
  <path d="M99.272827 69.800003C99.272827 69.007309,98.957886 68.247162,98.397400 67.686691C97.836929 67.126205,97.076782 66.811264,96.284088 66.811264C95.491394 66.811264,94.731247 67.126205,94.170776 67.686691C93.610291 68.247162,93.295349 69.007309,93.295349 69.800003C93.295349 70.592697,93.610291 71.352844,94.170776 71.913315C94.731247 72.473801,95.491394 72.788742,96.284088 72.788742C97.076782 72.788742,97.836929 72.473801,98.397400 71.913315C98.957886 71.352844,99.272827 70.592697,99.272827 69.800003Z" style="fill: rgb(100.000000%,100.000000%,100.000000%);stroke: none;"></path>
  <path d="M87.768219 35.885895C87.768219 35.093201,87.453278 34.333054,86.892792 33.772583C86.332321 33.212097,85.572174 32.897156,84.779480 32.897156C83.986786 32.897156,83.226639 33.212097,82.666168 33.772583C82.105682 34.333054,81.790741 35.093201,81.790741 35.885895C81.790741 36.678589,82.105682 37.438736,82.666168 37.999207C83.226639 38.559692,83.986786 38.874634,84.779480 38.874634C85.572174 38.874634,86.332321 38.559692,86.892792 37.999207C87.453278 37.438736,87.768219 36.678589,87.768219 35.885895Z" style="fill: rgb(100.000000%,100.000000%,100.000000%);stroke: none;"></path>
  <path d="M93.858719 53.575638C93.858719 52.782944,93.543777 52.022797,92.983292 51.462326C92.422821 50.901840,91.662674 50.586899,90.869980 50.586899C90.077286 50.586899,89.317139 50.901840,88.756668 51.462326C88.196182 52.022797,87.881241 52.782944,87.881241 53.575638C87.881241 54.368332,88.196182 55.128479,88.756668 55.688950C89.317139 56.249435,90.077286 56.564377,90.869980 56.564377C91.662674 56.564377,92.422821 56.249435,92.983292 55.688950C93.543777 55.128479,93.858719 54.368332,93.858719 53.575638Z" style="fill: rgb(100.000000%,100.000000%,100.000000%);stroke: none;"></path>
  <path d="M58.298523 7.465500C58.298523 6.672806,57.983582 5.912659,57.423096 5.352188C56.862625 4.791702,56.102478 4.476761,55.309784 4.476761C54.517090 4.476761,53.756943 4.791702,53.196472 5.352188C52.635986 5.912659,52.321045 6.672806,52.321045 7.465500C52.321045 8.258194,52.635986 9.018341,53.196472 9.578812C53.756943 10.139297,54.517090 10.454239,55.309784 10.454239C56.102478 10.454239,56.862625 10.139297,57.423096 9.578812C57.983582 9.018341,58.298523 8.258194,58.298523 7.465500Z" style="fill: rgb(100.000000%,100.000000%,100.000000%);stroke: none;"></path>
  <path d="M82.345352 24.762283C82.345352 23.969589,82.030411 23.209442,81.469925 22.648972C80.909454 22.088486,80.149307 21.773544,79.356613 21.773544C78.563919 21.773544,77.803772 22.088486,77.243301 22.648972C76.682816 23.209442,76.367874 23.969589,76.367874 24.762283C76.367874 25.554977,76.682816 26.315125,77.243301 26.875595C77.803772 27.436081,78.563919 27.751022,79.356613 27.751022C80.149307 27.751022,80.909454 27.436081,81.469925 26.875595C82.030411 26.315125,82.345352 25.554977,82.345352 24.762283Z" style="fill: rgb(100.000000%,100.000000%,100.000000%);stroke: none;"></path>
  <path d="M14.773178 31.318405C14.773178 30.525711,14.458237 29.765564,13.897751 29.205093C13.337280 28.644608,12.577133 28.329666,11.784439 28.329666C10.991745 28.329666,10.231598 28.644608,9.671127 29.205093C9.110641 29.765564,8.795700 30.525711,8.795700 31.318405C8.795700 32.111099,9.110641 32.871246,9.671127 33.431717C10.231598 33.992203,10.991745 34.307144,11.784439 34.307144C12.577133 34.307144,13.337280 33.992203,13.897751 33.431717C14.458237 32.871246,14.773178 32.111099,14.773178 31.318405Z" style="fill: rgb(100.000000%,100.000000%,100.000000%);stroke: none;"></path>
  <path d="M38.703308 8.505157C38.703308 7.712463,38.388367 6.952316,37.827881 6.391846C37.267410 5.831360,36.507263 5.516418,35.714569 5.516418C34.921875 5.516418,34.161728 5.831360,33.601257 6.391846C33.040771 6.952316,32.725830 7.712463,32.725830 8.505157C32.725830 9.297852,33.040771 10.057999,33.601257 10.618469C34.161728 11.178955,34.921875 11.493896,35.714569 11.493896C36.507263 11.493896,37.267410 11.178955,37.827881 10.618469C38.388367 10.057999,38.703308 9.297852,38.703308 8.505157Z" style="fill: rgb(100.000000%,100.000000%,100.000000%);stroke: none;"></path>
  <path d="M28.787018 71.808899C28.787018 71.016205,28.472076 70.256058,27.911591 69.695587C27.351120 69.135101,26.590973 68.820160,25.798279 68.820160C25.005585 68.820160,24.245438 69.135101,23.684967 69.695587C23.124481 70.256058,22.809540 71.016205,22.809540 71.808899C22.809540 72.601593,23.124481 73.361740,23.684967 73.922211C24.245438 74.482697,25.005585 74.797638,25.798279 74.797638C26.590973 74.797638,27.351120 74.482697,27.911591 73.922211C28.472076 73.361740,28.787018 72.601593,28.787018 71.808899Z" style="fill: rgb(100.000000%,100.000000%,100.000000%);stroke: none;"></path>
  <path d="M12.036667 48.360458C12.036667 47.567764,11.721725 46.807617,11.161240 46.247147C10.600769 45.686661,9.840622 45.371719,9.047928 45.371719C8.255234 45.371719,7.495087 45.686661,6.934616 46.247147C6.374130 46.807617,6.059189 47.567764,6.059189 48.360458C6.059189 49.153152,6.374130 49.913300,6.934616 50.473770C7.495087 51.034256,8.255234 51.349197,9.047928 51.349197C9.840622 51.349197,10.600769 51.034256,11.161240 50.473770C11.721725 49.913300,12.036667 49.153152,12.036667 48.360458Z" style="fill: rgb(100.000000%,100.000000%,100.000000%);stroke: none;"></path>
  <path d="M63.835556 78.915115C63.835556 78.122421,63.520615 77.362274,62.960129 76.801804C62.399658 76.241318,61.639511 75.926376,60.846817 75.926376C60.054123 75.926376,59.293976 76.241318,58.733505 76.801804C58.173019 77.362274,57.858078 78.122421,57.858078 78.915115C57.858078 79.707809,58.173019 80.467957,58.733505 81.028427C59.293976 81.588913,60.054123 81.903854,60.846817 81.903854C61.639511 81.903854,62.399658 81.588913,62.960129 81.028427C63.520615 80.467957,63.835556 79.707809,63.835556 78.915115Z" style="fill: rgb(100.000000%,100.000000%,100.000000%);stroke: none;"></path>
  <path d="M43.017136 74.710144C43.017136 73.917450,42.702194 73.157303,42.141708 72.596832C41.581238 72.036346,40.821091 71.721405,40.028397 71.721405C39.235703 71.721405,38.475555 72.036346,37.915085 72.596832C37.354599 73.157303,37.039658 73.917450,37.039658 74.710144C37.039658 75.502838,37.354599 76.262985,37.915085 76.823456C38.475555 77.383942,39.235703 77.698883,40.028397 77.698883C40.821091 77.698883,41.581238 77.383942,42.141708 76.823456C42.702194 76.262985,43.017136 75.502838,43.017136 74.710144Z" style="fill: rgb(100.000000%,100.000000%,100.000000%);stroke: none;"></path>
  <path d="M82.223419 82.639771C82.223419 81.847076,81.908478 81.086929,81.347992 80.526459C80.787521 79.965973,80.027374 79.651031,79.234680 79.651031C78.441986 79.651031,77.681839 79.965973,77.121368 80.526459C76.560883 81.086929,76.245941 81.847076,76.245941 82.639771C76.245941 83.432465,76.560883 84.192612,77.121368 84.753082C77.681839 85.313568,78.441986 85.628510,79.234680 85.628510C80.027374 85.628510,80.787521 85.313568,81.347992 84.753082C81.908478 84.192612,82.223419 83.432465,82.223419 82.639771Z" style="fill: rgb(100.000000%,100.000000%,100.000000%);stroke: none;"></path>
  <path d="M71.299927 80.571518C71.299927 79.778824,70.984985 79.018677,70.424500 78.458206C69.864029 77.897720,69.103882 77.582779,68.311188 77.582779C67.518494 77.582779,66.758347 77.897720,66.197876 78.458206C65.637390 79.018677,65.322449 79.778824,65.322449 80.571518C65.322449 81.364212,65.637390 82.124359,66.197876 82.684830C66.758347 83.245316,67.518494 83.560257,68.311188 83.560257C69.103882 83.560257,69.864029 83.245316,70.424500 82.684830C70.984985 82.124359,71.299927 81.364212,71.299927 80.571518Z" style="fill: rgb(100.000000%,100.000000%,100.000000%);stroke: none;"></path>
  <path d="M92.031937 84.606262C92.031937 83.813568,91.716995 83.053421,91.156509 82.492950C90.596039 81.932465,89.835892 81.617523,89.043198 81.617523C88.250504 81.617523,87.490356 81.932465,86.929886 82.492950C86.369400 83.053421,86.054459 83.813568,86.054459 84.606262C86.054459 85.398956,86.369400 86.159103,86.929886 86.719574C87.490356 87.280060,88.250504 87.595001,89.043198 87.595001C89.835892 87.595001,90.596039 87.280060,91.156509 86.719574C91.716995 86.159103,92.031937 85.398956,92.031937 84.606262Z" style="fill: rgb(100.000000%,100.000000%,100.000000%);stroke: none;"></path>
  <path d="M85.645218 83.237488C85.645218 82.444794,85.330276 81.684647,84.769791 81.124176C84.209320 80.563690,83.449173 80.248749,82.656479 80.248749C81.863785 80.248749,81.103638 80.563690,80.543167 81.124176C79.982681 81.684647,79.667740 82.444794,79.667740 83.237488C79.667740 84.030182,79.982681 84.790329,80.543167 85.350800C81.103638 85.911285,81.863785 86.226227,82.656479 86.226227C83.449173 86.226227,84.209320 85.911285,84.769791 85.350800C85.330276 84.790329,85.645218 84.030182,85.645218 83.237488Z" style="fill: rgb(100.000000%,100.000000%,100.000000%);stroke: none;"></path>
  <path d="M101.694214 86.808868C101.694214 86.016174,101.379272 85.256027,100.818787 84.695557C100.258316 84.135071,99.498169 83.820129,98.705475 83.820129C97.912781 83.820129,97.152634 84.135071,96.592163 84.695557C96.031677 85.256027,95.716736 86.016174,95.716736 86.808868C95.716736 87.601562,96.031677 88.361710,96.592163 88.922180C97.152634 89.482666,97.912781 89.797607,98.705475 89.797607C99.498169 89.797607,100.258316 89.482666,100.818787 88.922180C101.379272 88.361710,101.694214 87.601562,101.694214 86.808868Z" style="fill: rgb(100.000000%,100.000000%,100.000000%);stroke: none;"></path>
  <path d="M95.000320 85.347656C95.000320 84.554962,94.685379 83.794815,94.124893 83.234344C93.564423 82.673859,92.804276 82.358917,92.011581 82.358917C91.218887 82.358917,90.458740 82.673859,89.898270 83.234344C89.337784 83.794815,89.022842 84.554962,89.022842 85.347656C89.022842 86.140350,89.337784 86.900497,89.898270 87.460968C90.458740 88.021454,91.218887 88.336395,92.011581 88.336395C92.804276 88.336395,93.564423 88.021454,94.124893 87.460968C94.685379 86.900497,95.000320 86.140350,95.000320 85.347656Z" style="fill: rgb(100.000000%,100.000000%,100.000000%);stroke: none;"></path>
  <path d="M112.961792 90.814713C112.961792 90.022018,112.646851 89.261871,112.086365 88.701401C111.525894 88.140915,110.765747 87.825974,109.973053 87.825974C109.180359 87.825974,108.420212 88.140915,107.859741 88.701401C107.299255 89.261871,106.984314 90.022018,106.984314 90.814713C106.984314 91.607407,107.299255 92.367554,107.859741 92.928024C108.420212 93.488510,109.180359 93.803452,109.973053 93.803452C110.765747 93.803452,111.525894 93.488510,112.086365 92.928024C112.646851 92.367554,112.961792 91.607407,112.961792 90.814713Z" style="fill: rgb(100.000000%,100.000000%,100.000000%);stroke: none;"></path>
  <path d="M105.455353 87.489166C105.455353 86.696472,105.140411 85.936325,104.579926 85.375854C104.019455 84.815369,103.259308 84.500427,102.466614 84.500427C101.673920 84.500427,100.913773 84.815369,100.353302 85.375854C99.792816 85.936325,99.477875 86.696472,99.477875 87.489166C99.477875 88.281860,99.792816 89.042007,100.353302 89.602478C100.913773 90.162964,101.673920 90.477905,102.466614 90.477905C103.259308 90.477905,104.019455 90.162964,104.579926 89.602478C105.140411 89.042007,105.455353 88.281860,105.455353 87.489166Z" style="fill: rgb(100.000000%,100.000000%,100.000000%);stroke: none;"></path>
  <path d="M126.785675 102.062775C126.785675 101.270081,126.470734 100.509933,125.910248 99.949463C125.349777 99.388977,124.589630 99.074036,123.796936 99.074036C123.004242 99.074036,122.244095 99.388977,121.683624 99.949463C121.123138 100.509933,120.808197 101.270081,120.808197 102.062775C120.808197 102.855469,121.123138 103.615616,121.683624 104.176086C122.244095 104.736572,123.004242 105.051514,123.796936 105.051514C124.589630 105.051514,125.349777 104.736572,125.910248 104.176086C126.470734 103.615616,126.785675 102.855469,126.785675 102.062775Z" style="fill: rgb(100.000000%,100.000000%,100.000000%);stroke: none;"></path>
  <path d="M116.387726 93.658997C116.387726 92.866302,116.072784 92.106155,115.512299 91.545685C114.951828 90.985199,114.191681 90.670258,113.398987 90.670258C112.606293 90.670258,111.846146 90.985199,111.285675 91.545685C110.725189 92.106155,110.410248 92.866302,110.410248 93.658997C110.410248 94.451691,110.725189 95.211838,111.285675 95.772308C111.846146 96.332794,112.606293 96.647736,113.398987 96.647736C114.191681 96.647736,114.951828 96.332794,115.512299 95.772308C116.072784 95.211838,116.387726 94.451691,116.387726 93.658997Z" style="fill: rgb(100.000000%,100.000000%,100.000000%);stroke: none;"></path>
  <path d="M155.003830 118.647995C155.003830 117.855301,154.688889 117.095154,154.128403 116.534683C153.567932 115.974197,152.807785 115.659256,152.015091 115.659256C151.222397 115.659256,150.462250 115.974197,149.901779 116.534683C149.341293 117.095154,149.026352 117.855301,149.026352 118.647995C149.026352 119.440689,149.341293 120.200836,149.901779 120.761307C150.462250 121.321793,151.222397 121.636734,152.015091 121.636734C152.807785 121.636734,153.567932 121.321793,154.128403 120.761307C154.688889 120.200836,155.003830 119.440689,155.003830 118.647995Z" style="fill: rgb(100.000000%,100.000000%,100.000000%);stroke: none;"></path>
  <path d="M133.948090 107.503113C133.948090 106.710419,133.633148 105.950272,133.072662 105.389801C132.512192 104.829315,131.752045 104.514374,130.959351 104.514374C130.166656 104.514374,129.406509 104.829315,128.846039 105.389801C128.285553 105.950272,127.970612 106.710419,127.970612 107.503113C127.970612 108.295807,128.285553 109.055954,128.846039 109.616425C129.406509 110.176910,130.166656 110.491852,130.959351 110.491852C131.752045 110.491852,132.512192 110.176910,133.072662 109.616425C133.633148 109.055954,133.948090 108.295807,133.948090 107.503113Z" style="fill: rgb(100.000000%,100.000000%,100.000000%);stroke: none;"></path>
  <path d="M185.956238 149.259644C185.956238 148.466949,185.641296 147.706802,185.080811 147.146332C184.520340 146.585846,183.760193 146.270905,182.967499 146.270905C182.174805 146.270905,181.414658 146.585846,180.854187 147.146332C180.293701 147.706802,179.978760 148.466949,179.978760 149.259644C179.978760 150.052338,180.293701 150.812485,180.854187 151.372955C181.414658 151.933441,182.174805 152.248383,182.967499 152.248383C183.760193 152.248383,184.520340 151.933441,185.080811 151.372955C185.641296 150.812485,185.956238 150.052338,185.956238 149.259644Z" style="fill: rgb(100.000000%,100.000000%,100.000000%);stroke: none;"></path>
  <path d="M170.657745 122.775970C170.657745 121.983276,170.342804 121.223129,169.782318 120.662659C169.221848 120.102173,168.461700 119.787231,167.669006 119.787231C166.876312 119.787231,166.116165 120.102173,165.555695 120.662659C164.995209 121.223129,164.680267 121.983276,164.680267 122.775970C164.680267 123.568665,164.995209 124.328812,165.555695 124.889282C166.116165 125.449768,166.876312 125.764709,167.669006 125.764709C168.461700 125.764709,169.221848 125.449768,169.782318 124.889282C170.342804 124.328812,170.657745 123.568665,170.657745 122.775970Z" style="fill: rgb(100.000000%,100.000000%,100.000000%);stroke: none;"></path>
  <path d="M157.415009 189.699860C157.415009 188.907166,157.100067 188.147018,156.539581 187.586548C155.979111 187.026062,155.218964 186.711121,154.426270 186.711121C153.633575 186.711121,152.873428 187.026062,152.312958 187.586548C151.752472 188.147018,151.437531 188.907166,151.437531 189.699860C151.437531 190.492554,151.752472 191.252701,152.312958 191.813171C152.873428 192.373657,153.633575 192.688599,154.426270 192.688599C155.218964 192.688599,155.979111 192.373657,156.539581 191.813171C157.100067 191.252701,157.415009 190.492554,157.415009 189.699860Z" style="fill: rgb(100.000000%,100.000000%,100.000000%);stroke: none;"></path>
  <path d="M181.808380 166.220291C181.808380 165.427597,181.493439 164.667450,180.932953 164.106979C180.372482 163.546494,179.612335 163.231552,178.819641 163.231552C178.026947 163.231552,177.266800 163.546494,176.706329 164.106979C176.145844 164.667450,175.830902 165.427597,175.830902 166.220291C175.830902 167.012985,176.145844 167.773132,176.706329 168.333603C177.266800 168.894089,178.026947 169.209030,178.819641 169.209030C179.612335 169.209030,180.372482 168.894089,180.932953 168.333603C181.493439 167.773132,181.808380 167.012985,181.808380 166.220291Z" style="fill: rgb(100.000000%,100.000000%,100.000000%);stroke: none;"></path>
  <path d="M113.087814 174.522263C113.087814 173.729568,112.772873 172.969421,112.212387 172.408951C111.651917 171.848465,110.891769 171.533524,110.099075 171.533524C109.306381 171.533524,108.546234 171.848465,107.985764 172.408951C107.425278 172.969421,107.110336 173.729568,107.110336 174.522263C107.110336 175.314957,107.425278 176.075104,107.985764 176.635574C108.546234 177.196060,109.306381 177.511002,110.099075 177.511002C110.891769 177.511002,111.651917 177.196060,112.212387 176.635574C112.772873 176.075104,113.087814 175.314957,113.087814 174.522263Z" style="fill: rgb(100.000000%,100.000000%,100.000000%);stroke: none;"></path>
  <path d="M137.732300 192.557709C137.732300 191.765015,137.417358 191.004868,136.856873 190.444397C136.296402 189.883911,135.536255 189.568970,134.743561 189.568970C133.950867 189.568970,133.190720 189.883911,132.630249 190.444397C132.069763 191.004868,131.754822 191.765015,131.754822 192.557709C131.754822 193.350403,132.069763 194.110550,132.630249 194.671021C133.190720 195.231506,133.950867 195.546448,134.743561 195.546448C135.536255 195.546448,136.296402 195.231506,136.856873 194.671021C137.417358 194.110550,137.732300 193.350403,137.732300 192.557709Z" style="fill: rgb(100.000000%,100.000000%,100.000000%);stroke: none;"></path>
  <path d="M82.159256 149.371811C82.159256 148.579117,81.844315 147.818970,81.283829 147.258499C80.723358 146.698013,79.963211 146.383072,79.170517 146.383072C78.377823 146.383072,77.617676 146.698013,77.057205 147.258499C76.496719 147.818970,76.181778 148.579117,76.181778 149.371811C76.181778 150.164505,76.496719 150.924652,77.057205 151.485123C77.617676 152.045609,78.377823 152.360550,79.170517 152.360550C79.963211 152.360550,80.723358 152.045609,81.283829 151.485123C81.844315 150.924652,82.159256 150.164505,82.159256 149.371811Z" style="fill: rgb(100.000000%,100.000000%,100.000000%);stroke: none;"></path>
  <path d="M108.224518 160.563293C108.224518 159.770599,107.909576 159.010452,107.349091 158.449982C106.788620 157.889496,106.028473 157.574554,105.235779 157.574554C104.443085 157.574554,103.682938 157.889496,103.122467 158.449982C102.561981 159.010452,102.247040 159.770599,102.247040 160.563293C102.247040 161.355988,102.561981 162.116135,103.122467 162.676605C103.682938 163.237091,104.443085 163.552032,105.235779 163.552032C106.028473 163.552032,106.788620 163.237091,107.349091 162.676605C107.909576 162.116135,108.224518 161.355988,108.224518 160.563293Z" style="fill: rgb(100.000000%,100.000000%,100.000000%);stroke: none;"></path>
  <path d="M31.891266 152.588669C31.891266 151.795975,31.576324 151.035828,31.015839 150.475357C30.455368 149.914871,29.695221 149.599930,28.902527 149.599930C28.109833 149.599930,27.349686 149.914871,26.789215 150.475357C26.228729 151.035828,25.913788 151.795975,25.913788 152.588669C25.913788 153.381363,26.228729 154.141510,26.789215 154.701981C27.349686 155.262466,28.109833 155.577408,28.902527 155.577408C29.695221 155.577408,30.455368 155.262466,31.015839 154.701981C31.576324 154.141510,31.891266 153.381363,31.891266 152.588669Z" style="fill: rgb(100.000000%,100.000000%,100.000000%);stroke: none;"></path>
  <path d="M66.714737 158.595871C66.714737 157.803177,66.399796 157.043030,65.839310 156.482559C65.278839 155.922073,64.518692 155.607132,63.725998 155.607132C62.933304 155.607132,62.173157 155.922073,61.612686 156.482559C61.052200 157.043030,60.737259 157.803177,60.737259 158.595871C60.737259 159.388565,61.052200 160.148712,61.612686 160.709183C62.173157 161.269669,62.933304 161.584610,63.725998 161.584610C64.518692 161.584610,65.278839 161.269669,65.839310 160.709183C66.399796 160.148712,66.714737 159.388565,66.714737 158.595871Z" style="fill: rgb(100.000000%,100.000000%,100.000000%);stroke: none;"></path>
  <path d="M8.722031 93.705185C8.722031 92.912491,8.407089 92.152344,7.846603 91.591873C7.286133 91.031387,6.525986 90.716446,5.733292 90.716446C4.940598 90.716446,4.180450 91.031387,3.619980 91.591873C3.059494 92.152344,2.744553 92.912491,2.744553 93.705185C2.744553 94.497879,3.059494 95.258026,3.619980 95.818497C4.180450 96.378983,4.940598 96.693924,5.733292 96.693924C6.525986 96.693924,7.286133 96.378983,7.846603 95.818497C8.407089 95.258026,8.722031 94.497879,8.722031 93.705185Z" style="fill: rgb(100.000000%,100.000000%,100.000000%);stroke: none;"></path>
  <path d="M21.676941 132.288330C21.676941 131.495636,21.362000 130.735489,20.801514 130.175018C20.241043 129.614532,19.480896 129.299591,18.688202 129.299591C17.895508 129.299591,17.135361 129.614532,16.574890 130.175018C16.014404 130.735489,15.699463 131.495636,15.699463 132.288330C15.699463 133.081024,16.014404 133.841171,16.574890 134.401642C17.135361 134.962128,17.895508 135.277069,18.688202 135.277069C19.480896 135.277069,20.241043 134.962128,20.801514 134.401642C21.362000 133.841171,21.676941 133.081024,21.676941 132.288330Z" style="fill: rgb(100.000000%,100.000000%,100.000000%);stroke: none;"></path>
  <path d="M31.186371 53.095825C31.186371 52.303131,30.871429 51.542984,30.310944 50.982513C29.750473 50.422028,28.990326 50.107086,28.197632 50.107086C27.404938 50.107086,26.644791 50.422028,26.084320 50.982513C25.523834 51.542984,25.208893 52.303131,25.208893 53.095825C25.208893 53.888519,25.523834 54.648666,26.084320 55.209137C26.644791 55.769623,27.404938 56.084564,28.197632 56.084564C28.990326 56.084564,29.750473 55.769623,30.310944 55.209137C30.871429 54.648666,31.186371 53.888519,31.186371 53.095825Z" style="fill: rgb(100.000000%,100.000000%,100.000000%);stroke: none;"></path>
  <path d="M5.808746 72.011337C5.808746 71.218643,5.493805 70.458496,4.933319 69.898026C4.372849 69.337540,3.612701 69.022598,2.820007 69.022598C2.027313 69.022598,1.267166 69.337540,0.706696 69.898026C0.146210 70.458496,-0.168732 71.218643,-0.168732 72.011337C-0.168732 72.804031,0.146210 73.564178,0.706696 74.124649C1.267166 74.685135,2.027313 75.000076,2.820007 75.000076C3.612701 75.000076,4.372849 74.685135,4.933319 74.124649C5.493805 73.564178,5.808746 72.804031,5.808746 72.011337Z" style="fill: rgb(100.000000%,100.000000%,100.000000%);stroke: none;"></path>
  <path d="M64.485184 39.242096C64.485184 38.449402,64.170242 37.689255,63.609756 37.128784C63.049286 36.568298,62.289139 36.253357,61.496445 36.253357C60.703751 36.253357,59.943604 36.568298,59.383133 37.128784C58.822647 37.689255,58.507706 38.449402,58.507706 39.242096C58.507706 40.034790,58.822647 40.794937,59.383133 41.355408C59.943604 41.915894,60.703751 42.230835,61.496445 42.230835C62.289139 42.230835,63.049286 41.915894,63.609756 41.355408C64.170242 40.794937,64.485184 40.034790,64.485184 39.242096Z" style="fill: rgb(100.000000%,100.000000%,100.000000%);stroke: none;"></path>
  <path d="M46.271194 55.361984C46.271194 54.569290,45.956253 53.809143,45.395767 53.248672C44.835297 52.688187,44.075150 52.373245,43.282455 52.373245C42.489761 52.373245,41.729614 52.688187,41.169144 53.248672C40.608658 53.809143,40.293716 54.569290,40.293716 55.361984C40.293716 56.154678,40.608658 56.914825,41.169144 57.475296C41.729614 58.035782,42.489761 58.350723,43.282455 58.350723C44.075150 58.350723,44.835297 58.035782,45.395767 57.475296C45.956253 56.914825,46.271194 56.154678,46.271194 55.361984Z" style="fill: rgb(100.000000%,100.000000%,100.000000%);stroke: none;"></path>
  <path d="M85.651031 2.742065C85.651031 1.949371,85.336090 1.189224,84.775604 0.628754C84.215134 0.068268,83.454987 -0.246674,82.662292 -0.246674C81.869598 -0.246674,81.109451 0.068268,80.548981 0.628754C79.988495 1.189224,79.673553 1.949371,79.673553 2.742065C79.673553 3.534760,79.988495 4.294907,80.548981 4.855377C81.109451 5.415863,81.869598 5.730804,82.662292 5.730804C83.454987 5.730804,84.215134 5.415863,84.775604 4.855377C85.336090 4.294907,85.651031 3.534760,85.651031 2.742065Z" style="fill: rgb(100.000000%,100.000000%,100.000000%);stroke: none;"></path>
  <path d="M65.184052 26.306381C65.184052 25.513687,64.869110 24.753540,64.308624 24.193069C63.748154 23.632584,62.988007 23.317642,62.195312 23.317642C61.402618 23.317642,60.642471 23.632584,60.082001 24.193069C59.521515 24.753540,59.206573 25.513687,59.206573 26.306381C59.206573 27.099075,59.521515 27.859222,60.082001 28.419693C60.642471 28.980179,61.402618 29.295120,62.195312 29.295120C62.988007 29.295120,63.748154 28.980179,64.308624 28.419693C64.869110 27.859222,65.184052 27.099075,65.184052 26.306381Z" style="fill: rgb(100.000000%,100.000000%,100.000000%);stroke: none;"></path>
  <path d="M145.201752 20.126053C145.201752 19.333359,144.886810 18.573212,144.326324 18.012741C143.765854 17.452255,143.005707 17.137314,142.213013 17.137314C141.420319 17.137314,140.660172 17.452255,140.099701 18.012741C139.539215 18.573212,139.224274 19.333359,139.224274 20.126053C139.224274 20.918747,139.539215 21.678894,140.099701 22.239365C140.660172 22.799850,141.420319 23.114792,142.213013 23.114792C143.005707 23.114792,143.765854 22.799850,144.326324 22.239365C144.886810 21.678894,145.201752 20.918747,145.201752 20.126053Z" style="fill: rgb(100.000000%,100.000000%,100.000000%);stroke: none;"></path>
  <path d="M108.165771 7.299316C108.165771 6.506622,107.850830 5.746475,107.290344 5.186005C106.729874 4.625519,105.969727 4.310577,105.177032 4.310577C104.384338 4.310577,103.624191 4.625519,103.063721 5.186005C102.503235 5.746475,102.188293 6.506622,102.188293 7.299316C102.188293 8.092010,102.503235 8.852158,103.063721 9.412628C103.624191 9.973114,104.384338 10.288055,105.177032 10.288055C105.969727 10.288055,106.729874 9.973114,107.290344 9.412628C107.850830 8.852158,108.165771 8.092010,108.165771 7.299316Z" style="fill: rgb(100.000000%,100.000000%,100.000000%);stroke: none;"></path>
  <path d="M166.430496 57.342636C166.430496 56.549942,166.115555 55.789795,165.555069 55.229324C164.994598 54.668839,164.234451 54.353897,163.441757 54.353897C162.649063 54.353897,161.888916 54.668839,161.328445 55.229324C160.767960 55.789795,160.453018 56.549942,160.453018 57.342636C160.453018 58.135330,160.767960 58.895477,161.328445 59.455948C161.888916 60.016434,162.649063 60.331375,163.441757 60.331375C164.234451 60.331375,164.994598 60.016434,165.555069 59.455948C166.115555 58.895477,166.430496 58.135330,166.430496 57.342636Z" style="fill: rgb(100.000000%,100.000000%,100.000000%);stroke: none;"></path>
  <path d="M163.471252 28.937424C163.471252 28.144730,163.156311 27.384583,162.595825 26.824112C162.035355 26.263626,161.275208 25.948685,160.482513 25.948685C159.689819 25.948685,158.929672 26.263626,158.369202 26.824112C157.808716 27.384583,157.493774 28.144730,157.493774 28.937424C157.493774 29.730118,157.808716 30.490265,158.369202 31.050735C158.929672 31.611221,159.689819 31.926163,160.482513 31.926163C161.275208 31.926163,162.035355 31.611221,162.595825 31.050735C163.156311 30.490265,163.471252 29.730118,163.471252 28.937424Z" style="fill: rgb(100.000000%,100.000000%,100.000000%);stroke: none;"></path>
  <path d="M143.822052 70.799728C143.822052 70.007034,143.507111 69.246887,142.946625 68.686417C142.386154 68.125931,141.626007 67.810989,140.833313 67.810989C140.040619 67.810989,139.280472 68.125931,138.720001 68.686417C138.159515 69.246887,137.844574 70.007034,137.844574 70.799728C137.844574 71.592422,138.159515 72.352570,138.720001 72.913040C139.280472 73.473526,140.040619 73.788467,140.833313 73.788467C141.626007 73.788467,142.386154 73.473526,142.946625 72.913040C143.507111 72.352570,143.822052 71.592422,143.822052 70.799728Z" style="fill: rgb(100.000000%,100.000000%,100.000000%);stroke: none;"></path>
  <path d="M159.963409 67.549667C159.963409 66.756973,159.648468 65.996826,159.087982 65.436356C158.527512 64.875870,157.767365 64.560928,156.974670 64.560928C156.181976 64.560928,155.421829 64.875870,154.861359 65.436356C154.300873 65.996826,153.985931 66.756973,153.985931 67.549667C153.985931 68.342361,154.300873 69.102509,154.861359 69.662979C155.421829 70.223465,156.181976 70.538406,156.974670 70.538406C157.767365 70.538406,158.527512 70.223465,159.087982 69.662979C159.648468 69.102509,159.963409 68.342361,159.963409 67.549667Z" style="fill: rgb(100.000000%,100.000000%,100.000000%);stroke: none;"></path>
  <path d="M126.720871 65.849075C126.720871 65.056381,126.405930 64.296234,125.845444 63.735764C125.284973 63.175278,124.524826 62.860336,123.732132 62.860336C122.939438 62.860336,122.179291 63.175278,121.618820 63.735764C121.058334 64.296234,120.743393 65.056381,120.743393 65.849075C120.743393 66.641769,121.058334 67.401917,121.618820 67.962387C122.179291 68.522873,122.939438 68.837814,123.732132 68.837814C124.524826 68.837814,125.284973 68.522873,125.845444 67.962387C126.405930 67.401917,126.720871 66.641769,126.720871 65.849075Z" style="fill: rgb(100.000000%,100.000000%,100.000000%);stroke: none;"></path>
  <path d="M138.050522 68.910278C138.050522 68.117584,137.735580 67.357437,137.175095 66.796967C136.614624 66.236481,135.854477 65.921539,135.061783 65.921539C134.269089 65.921539,133.508942 66.236481,132.948471 66.796967C132.387985 67.357437,132.073044 68.117584,132.073044 68.910278C132.073044 69.702972,132.387985 70.463120,132.948471 71.023590C133.508942 71.584076,134.269089 71.899017,135.061783 71.899017C135.854477 71.899017,136.614624 71.584076,137.175095 71.023590C137.735580 70.463120,138.050522 69.702972,138.050522 68.910278Z" style="fill: rgb(100.000000%,100.000000%,100.000000%);stroke: none;"></path>
  <path d="M109.334442 64.628586C109.334442 63.835892,109.019501 63.075745,108.459015 62.515274C107.898544 61.954788,107.138397 61.639847,106.345703 61.639847C105.553009 61.639847,104.792862 61.954788,104.232391 62.515274C103.671906 63.075745,103.356964 63.835892,103.356964 64.628586C103.356964 65.421280,103.671906 66.181427,104.232391 66.741898C104.792862 67.302383,105.553009 67.617325,106.345703 67.617325C107.138397 67.617325,107.898544 67.302383,108.459015 66.741898C109.019501 66.181427,109.334442 65.421280,109.334442 64.628586Z" style="fill: rgb(100.000000%,100.000000%,100.000000%);stroke: none;"></path>
  <path d="M120.936935 64.674866C120.936935 63.882172,120.621994 63.122025,120.061508 62.561554C119.501038 62.001068,118.740891 61.686127,117.948196 61.686127C117.155502 61.686127,116.395355 62.001068,115.834885 62.561554C115.274399 63.122025,114.959457 63.882172,114.959457 64.674866C114.959457 65.467560,115.274399 66.227707,115.834885 66.788177C116.395355 67.348663,117.155502 67.663605,117.948196 67.663605C118.740891 67.663605,119.501038 67.348663,120.061508 66.788177C120.621994 66.227707,120.936935 65.467560,120.936935 64.674866Z" style="fill: rgb(100.000000%,100.000000%,100.000000%);stroke: none;"></path>
  <path d="M93.046906 66.937363C93.046906 66.144669,92.731964 65.384521,92.171478 64.824051C91.611008 64.263565,90.850861 63.948624,90.058167 63.948624C89.265472 63.948624,88.505325 64.263565,87.944855 64.824051C87.384369 65.384521,87.069427 66.144669,87.069427 66.937363C87.069427 67.730057,87.384369 68.490204,87.944855 69.050674C88.505325 69.611160,89.265472 69.926102,90.058167 69.926102C90.850861 69.926102,91.611008 69.611160,92.171478 69.050674C92.731964 68.490204,93.046906 67.730057,93.046906 66.937363Z" style="fill: rgb(100.000000%,100.000000%,100.000000%);stroke: none;"></path>
  <path d="M103.677353 65.705658C103.677353 64.912964,103.362411 64.152817,102.801926 63.592346C102.241455 63.031860,101.481308 62.716919,100.688614 62.716919C99.895920 62.716919,99.135773 63.031860,98.575302 63.592346C98.014816 64.152817,97.699875 64.912964,97.699875 65.705658C97.699875 66.498352,98.014816 67.258499,98.575302 67.818970C99.135773 68.379456,99.895920 68.694397,100.688614 68.694397C101.481308 68.694397,102.241455 68.379456,102.801926 67.818970C103.362411 67.258499,103.677353 66.498352,103.677353 65.705658Z" style="fill: rgb(100.000000%,100.000000%,100.000000%);stroke: none;"></path>
  <path d="M81.068466 73.653351C81.068466 72.860657,80.753525 72.100510,80.193039 71.540039C79.632568 70.979553,78.872421 70.664612,78.079727 70.664612C77.287033 70.664612,76.526886 70.979553,75.966415 71.540039C75.405930 72.100510,75.090988 72.860657,75.090988 73.653351C75.090988 74.446045,75.405930 75.206192,75.966415 75.766663C76.526886 76.327148,77.287033 76.642090,78.079727 76.642090C78.872421 76.642090,79.632568 76.327148,80.193039 75.766663C80.753525 75.206192,81.068466 74.446045,81.068466 73.653351Z" style="fill: rgb(100.000000%,100.000000%,100.000000%);stroke: none;"></path>
  <path d="M87.799286 67.343369C87.799286 66.550674,87.484344 65.790527,86.923859 65.230057C86.363388 64.669571,85.603241 64.354630,84.810547 64.354630C84.017853 64.354630,83.257706 64.669571,82.697235 65.230057C82.136749 65.790527,81.821808 66.550674,81.821808 67.343369C81.821808 68.136063,82.136749 68.896210,82.697235 69.456680C83.257706 70.017166,84.017853 70.332108,84.810547 70.332108C85.603241 70.332108,86.363388 70.017166,86.923859 69.456680C87.484344 68.896210,87.799286 68.136063,87.799286 67.343369Z" style="fill: rgb(100.000000%,100.000000%,100.000000%);stroke: none;"></path>
  <path d="M77.536835 86.139267C77.536835 85.346573,77.221893 84.586426,76.661407 84.025955C76.100937 83.465469,75.340790 83.150528,74.548096 83.150528C73.755402 83.150528,72.995255 83.465469,72.434784 84.025955C71.874298 84.586426,71.559357 85.346573,71.559357 86.139267C71.559357 86.931961,71.874298 87.692108,72.434784 88.252579C72.995255 88.813065,73.755402 89.128006,74.548096 89.128006C75.340790 89.128006,76.100937 88.813065,76.661407 88.252579C77.221893 87.692108,77.536835 86.931961,77.536835 86.139267Z" style="fill: rgb(100.000000%,100.000000%,100.000000%);stroke: none;"></path>
  <path d="M80.053238 77.953278C80.053238 77.160583,79.738297 76.400436,79.177811 75.839966C78.617340 75.279480,77.857193 74.964539,77.064499 74.964539C76.271805 74.964539,75.511658 75.279480,74.951187 75.839966C74.390701 76.400436,74.075760 77.160583,74.075760 77.953278C74.075760 78.745972,74.390701 79.506119,74.951187 80.066589C75.511658 80.627075,76.271805 80.942017,77.064499 80.942017C77.857193 80.942017,78.617340 80.627075,79.177811 80.066589C79.738297 79.506119,80.053238 78.745972,80.053238 77.953278Z" style="fill: rgb(100.000000%,100.000000%,100.000000%);stroke: none;"></path>
  <path d="M79.830322 99.042542C79.830322 98.249847,79.515381 97.489700,78.954895 96.929230C78.394424 96.368744,77.634277 96.053802,76.841583 96.053802C76.048889 96.053802,75.288742 96.368744,74.728271 96.929230C74.167786 97.489700,73.852844 98.249847,73.852844 99.042542C73.852844 99.835236,74.167786 100.595383,74.728271 101.155853C75.288742 101.716339,76.048889 102.031281,76.841583 102.031281C77.634277 102.031281,78.394424 101.716339,78.954895 101.155853C79.515381 100.595383,79.830322 99.835236,79.830322 99.042542Z" style="fill: rgb(100.000000%,100.000000%,100.000000%);stroke: none;"></path>
  <path d="M75.967636 90.522644C75.967636 89.729950,75.652695 88.969803,75.092209 88.409332C74.531738 87.848846,73.771591 87.533905,72.978897 87.533905C72.186203 87.533905,71.426056 87.848846,70.865585 88.409332C70.305099 88.969803,69.990158 89.729950,69.990158 90.522644C69.990158 91.315338,70.305099 92.075485,70.865585 92.635956C71.426056 93.196442,72.186203 93.511383,72.978897 93.511383C73.771591 93.511383,74.531738 93.196442,75.092209 92.635956C75.652695 92.075485,75.967636 91.315338,75.967636 90.522644Z" style="fill: rgb(100.000000%,100.000000%,100.000000%);stroke: none;"></path>
  <path d="M95.236786 104.683472C95.236786 103.890778,94.921844 103.130630,94.361359 102.570160C93.800888 102.009674,93.040741 101.694733,92.248047 101.694733C91.455353 101.694733,90.695206 102.009674,90.134735 102.570160C89.574249 103.130630,89.259308 103.890778,89.259308 104.683472C89.259308 105.476166,89.574249 106.236313,90.134735 106.796783C90.695206 107.357269,91.455353 107.672211,92.248047 107.672211C93.040741 107.672211,93.800888 107.357269,94.361359 106.796783C94.921844 106.236313,95.236786 105.476166,95.236786 104.683472Z" style="fill: rgb(100.000000%,100.000000%,100.000000%);stroke: none;"></path>
  <path d="M85.129562 100.514221C85.129562 99.721527,84.814621 98.961380,84.254135 98.400909C83.693665 97.840424,82.933517 97.525482,82.140823 97.525482C81.348129 97.525482,80.587982 97.840424,80.027512 98.400909C79.467026 98.961380,79.152084 99.721527,79.152084 100.514221C79.152084 101.306915,79.467026 102.067062,80.027512 102.627533C80.587982 103.188019,81.348129 103.502960,82.140823 103.502960C82.933517 103.502960,83.693665 103.188019,84.254135 102.627533C84.814621 102.067062,85.129562 101.306915,85.129562 100.514221Z" style="fill: rgb(100.000000%,100.000000%,100.000000%);stroke: none;"></path>
  <path d="M112.271271 105.990433C112.271271 105.197739,111.956329 104.437592,111.395844 103.877121C110.835373 103.316635,110.075226 103.001694,109.282532 103.001694C108.489838 103.001694,107.729691 103.316635,107.169220 103.877121C106.608734 104.437592,106.293793 105.197739,106.293793 105.990433C106.293793 106.783127,106.608734 107.543274,107.169220 108.103745C107.729691 108.664230,108.489838 108.979172,109.282532 108.979172C110.075226 108.979172,110.835373 108.664230,111.395844 108.103745C111.956329 107.543274,112.271271 106.783127,112.271271 105.990433Z" style="fill: rgb(100.000000%,100.000000%,100.000000%);stroke: none;"></path>
  <path d="M100.614258 108.116440C100.614258 107.323746,100.299316 106.563599,99.738831 106.003128C99.178360 105.442642,98.418213 105.127701,97.625519 105.127701C96.832825 105.127701,96.072678 105.442642,95.512207 106.003128C94.951721 106.563599,94.636780 107.323746,94.636780 108.116440C94.636780 108.909134,94.951721 109.669281,95.512207 110.229752C96.072678 110.790237,96.832825 111.105179,97.625519 111.105179C98.418213 111.105179,99.178360 110.790237,99.738831 110.229752C100.299316 109.669281,100.614258 108.909134,100.614258 108.116440Z" style="fill: rgb(100.000000%,100.000000%,100.000000%);stroke: none;"></path>
  <path d="M123.326889 92.100601C123.326889 91.307907,123.011948 90.547760,122.451462 89.987289C121.890991 89.426804,121.130844 89.111862,120.338150 89.111862C119.545456 89.111862,118.785309 89.426804,118.224838 89.987289C117.664352 90.547760,117.349411 91.307907,117.349411 92.100601C117.349411 92.893295,117.664352 93.653442,118.224838 94.213913C118.785309 94.774399,119.545456 95.089340,120.338150 95.089340C121.130844 95.089340,121.890991 94.774399,122.451462 94.213913C123.011948 93.653442,123.326889 92.893295,123.326889 92.100601Z" style="fill: rgb(100.000000%,100.000000%,100.000000%);stroke: none;"></path>
  <path d="M116.104050 101.006485C116.104050 100.213791,115.789108 99.453644,115.228622 98.893173C114.668152 98.332687,113.908005 98.017746,113.115311 98.017746C112.322617 98.017746,111.562469 98.332687,111.001999 98.893173C110.441513 99.453644,110.126572 100.213791,110.126572 101.006485C110.126572 101.799179,110.441513 102.559326,111.001999 103.119797C111.562469 103.680283,112.322617 103.995224,113.115311 103.995224C113.908005 103.995224,114.668152 103.680283,115.228622 103.119797C115.789108 102.559326,116.104050 101.799179,116.104050 101.006485Z" style="fill: rgb(100.000000%,100.000000%,100.000000%);stroke: none;"></path>
  <path d="M131.480698 77.955429C131.480698 77.162735,131.165756 76.402588,130.605270 75.842117C130.044800 75.281631,129.284653 74.966690,128.491959 74.966690C127.699265 74.966690,126.939117 75.281631,126.378647 75.842117C125.818161 76.402588,125.503220 77.162735,125.503220 77.955429C125.503220 78.748123,125.818161 79.508270,126.378647 80.068741C126.939117 80.629227,127.699265 80.944168,128.491959 80.944168C129.284653 80.944168,130.044800 80.629227,130.605270 80.068741C131.165756 79.508270,131.480698 78.748123,131.480698 77.955429Z" style="fill: rgb(100.000000%,100.000000%,100.000000%);stroke: none;"></path>
  <path d="M127.118286 87.907349C127.118286 87.114655,126.803345 86.354507,126.242859 85.794037C125.682388 85.233551,124.922241 84.918610,124.129547 84.918610C123.336853 84.918610,122.576706 85.233551,122.016235 85.794037C121.455750 86.354507,121.140808 87.114655,121.140808 87.907349C121.140808 88.700043,121.455750 89.460190,122.016235 90.020660C122.576706 90.581146,123.336853 90.896088,124.129547 90.896088C124.922241 90.896088,125.682388 90.581146,126.242859 90.020660C126.803345 89.460190,127.118286 88.700043,127.118286 87.907349Z" style="fill: rgb(100.000000%,100.000000%,100.000000%);stroke: none;"></path>
  <path d="M132.690323 62.453186C132.690323 61.660492,132.375381 60.900345,131.814896 60.339874C131.254425 59.779388,130.494278 59.464447,129.701584 59.464447C128.908890 59.464447,128.148743 59.779388,127.588272 60.339874C127.027786 60.900345,126.712845 61.660492,126.712845 62.453186C126.712845 63.245880,127.027786 64.006027,127.588272 64.566498C128.148743 65.126984,128.908890 65.441925,129.701584 65.441925C130.494278 65.441925,131.254425 65.126984,131.814896 64.566498C132.375381 64.006027,132.690323 63.245880,132.690323 62.453186Z" style="fill: rgb(100.000000%,100.000000%,100.000000%);stroke: none;"></path>
  <path d="M132.062256 72.645706C132.062256 71.853012,131.747314 71.092865,131.186829 70.532394C130.626358 69.971909,129.866211 69.656967,129.073517 69.656967C128.280823 69.656967,127.520676 69.971909,126.960205 70.532394C126.399719 71.092865,126.084778 71.853012,126.084778 72.645706C126.084778 73.438400,126.399719 74.198547,126.960205 74.759018C127.520676 75.319504,128.280823 75.634445,129.073517 75.634445C129.866211 75.634445,130.626358 75.319504,131.186829 74.759018C131.747314 74.198547,132.062256 73.438400,132.062256 72.645706Z" style="fill: rgb(100.000000%,100.000000%,100.000000%);stroke: none;"></path>
  <path d="M140.954575 43.115662C140.954575 42.322968,140.639633 41.562820,140.079147 41.002350C139.518677 40.441864,138.758530 40.126923,137.965836 40.126923C137.173141 40.126923,136.412994 40.441864,135.852524 41.002350C135.292038 41.562820,134.977097 42.322968,134.977097 43.115662C134.977097 43.908356,135.292038 44.668503,135.852524 45.228973C136.412994 45.789459,137.173141 46.104401,137.965836 46.104401C138.758530 46.104401,139.518677 45.789459,140.079147 45.228973C140.639633 44.668503,140.954575 43.908356,140.954575 43.115662Z" style="fill: rgb(100.000000%,100.000000%,100.000000%);stroke: none;"></path>
  <path d="M132.831970 57.362946C132.831970 56.570251,132.517029 55.810104,131.956543 55.249634C131.396072 54.689148,130.635925 54.374207,129.843231 54.374207C129.050537 54.374207,128.290390 54.689148,127.729919 55.249634C127.169434 55.810104,126.854492 56.570251,126.854492 57.362946C126.854492 58.155640,127.169434 58.915787,127.729919 59.476257C128.290390 60.036743,129.050537 60.351685,129.843231 60.351685C130.635925 60.351685,131.396072 60.036743,131.956543 59.476257C132.517029 58.915787,132.831970 58.155640,132.831970 57.362946Z" style="fill: rgb(100.000000%,100.000000%,100.000000%);stroke: none;"></path>
  <path d="M181.143982 53.689011C181.143982 52.896317,180.829041 52.136169,180.268555 51.575699C179.708084 51.015213,178.947937 50.700272,178.155243 50.700272C177.362549 50.700272,176.602402 51.015213,176.041931 51.575699C175.481445 52.136169,175.166504 52.896317,175.166504 53.689011C175.166504 54.481705,175.481445 55.241852,176.041931 55.802322C176.602402 56.362808,177.362549 56.677750,178.155243 56.677750C178.947937 56.677750,179.708084 56.362808,180.268555 55.802322C180.829041 55.241852,181.143982 54.481705,181.143982 53.689011Z" style="fill: rgb(100.000000%,100.000000%,100.000000%);stroke: none;"></path>
  <path d="M154.244583 41.653366C154.244583 40.860672,153.929642 40.100525,153.369156 39.540054C152.808685 38.979568,152.048538 38.664627,151.255844 38.664627C150.463150 38.664627,149.703003 38.979568,149.142532 39.540054C148.582047 40.100525,148.267105 40.860672,148.267105 41.653366C148.267105 42.446060,148.582047 43.206207,149.142532 43.766678C149.703003 44.327164,150.463150 44.642105,151.255844 44.642105C152.048538 44.642105,152.808685 44.327164,153.369156 43.766678C153.929642 43.206207,154.244583 42.446060,154.244583 41.653366Z" style="fill: rgb(100.000000%,100.000000%,100.000000%);stroke: none;"></path>
  <path d="M197.628586 106.023666C197.628586 105.230972,197.313644 104.470825,196.753159 103.910355C196.192688 103.349869,195.432541 103.034927,194.639847 103.034927C193.847153 103.034927,193.087006 103.349869,192.526535 103.910355C191.966049 104.470825,191.651108 105.230972,191.651108 106.023666C191.651108 106.816360,191.966049 107.576508,192.526535 108.136978C193.087006 108.697464,193.847153 109.012405,194.639847 109.012405C195.432541 109.012405,196.192688 108.697464,196.753159 108.136978C197.313644 107.576508,197.628586 106.816360,197.628586 106.023666Z" style="fill: rgb(100.000000%,100.000000%,100.000000%);stroke: none;"></path>
  <path d="M189.916901 69.970169C189.916901 69.177475,189.601959 68.417328,189.041473 67.856857C188.481003 67.296371,187.720856 66.981430,186.928162 66.981430C186.135468 66.981430,185.375320 67.296371,184.814850 67.856857C184.254364 68.417328,183.939423 69.177475,183.939423 69.970169C183.939423 70.762863,184.254364 71.523010,184.814850 72.083481C185.375320 72.643967,186.135468 72.958908,186.928162 72.958908C187.720856 72.958908,188.481003 72.643967,189.041473 72.083481C189.601959 71.523010,189.916901 70.762863,189.916901 69.970169Z" style="fill: rgb(100.000000%,100.000000%,100.000000%);stroke: none;"></path>
  <path d="M165.260941 142.702805C165.260941 141.910110,164.945999 141.149963,164.385513 140.589493C163.825043 140.029007,163.064896 139.714066,162.272202 139.714066C161.479507 139.714066,160.719360 140.029007,160.158890 140.589493C159.598404 141.149963,159.283463 141.910110,159.283463 142.702805C159.283463 143.495499,159.598404 144.255646,160.158890 144.816116C160.719360 145.376602,161.479507 145.691544,162.272202 145.691544C163.064896 145.691544,163.825043 145.376602,164.385513 144.816116C164.945999 144.255646,165.260941 143.495499,165.260941 142.702805Z" style="fill: rgb(100.000000%,100.000000%,100.000000%);stroke: none;"></path>
  <path d="M194.472931 126.922012C194.472931 126.129318,194.157990 125.369171,193.597504 124.808701C193.037033 124.248215,192.276886 123.933273,191.484192 123.933273C190.691498 123.933273,189.931351 124.248215,189.370880 124.808701C188.810394 125.369171,188.495453 126.129318,188.495453 126.922012C188.495453 127.714706,188.810394 128.474854,189.370880 129.035324C189.931351 129.595810,190.691498 129.910751,191.484192 129.910751C192.276886 129.910751,193.037033 129.595810,193.597504 129.035324C194.157990 128.474854,194.472931 127.714706,194.472931 126.922012Z" style="fill: rgb(100.000000%,100.000000%,100.000000%);stroke: none;"></path>
  <path d="M128.366440 157.522354C128.366440 156.729660,128.051498 155.969513,127.491013 155.409042C126.930542 154.848557,126.170395 154.533615,125.377701 154.533615C124.585007 154.533615,123.824860 154.848557,123.264389 155.409042C122.703903 155.969513,122.388962 156.729660,122.388962 157.522354C122.388962 158.315048,122.703903 159.075195,123.264389 159.635666C123.824860 160.196152,124.585007 160.511093,125.377701 160.511093C126.170395 160.511093,126.930542 160.196152,127.491013 159.635666C128.051498 159.075195,128.366440 158.315048,128.366440 157.522354Z" style="fill: rgb(100.000000%,100.000000%,100.000000%);stroke: none;"></path>
  <path d="M147.704590 138.070526C147.704590 137.277832,147.389648 136.517685,146.829163 135.957214C146.268692 135.396729,145.508545 135.081787,144.715851 135.081787C143.923157 135.081787,143.163010 135.396729,142.602539 135.957214C142.042053 136.517685,141.727112 137.277832,141.727112 138.070526C141.727112 138.863220,142.042053 139.623367,142.602539 140.183838C143.163010 140.744324,143.923157 141.059265,144.715851 141.059265C145.508545 141.059265,146.268692 140.744324,146.829163 140.183838C147.389648 139.623367,147.704590 138.863220,147.704590 138.070526Z" style="fill: rgb(100.000000%,100.000000%,100.000000%);stroke: none;"></path>
  <path d="M114.273026 196.844727C114.273026 196.052032,113.958084 195.291885,113.397598 194.731415C112.837128 194.170929,112.076981 193.855988,111.284286 193.855988C110.491592 193.855988,109.731445 194.170929,109.170975 194.731415C108.610489 195.291885,108.295547 196.052032,108.295547 196.844727C108.295547 197.637421,108.610489 198.397568,109.170975 198.958038C109.731445 199.518524,110.491592 199.833466,111.284286 199.833466C112.076981 199.833466,112.837128 199.518524,113.397598 198.958038C113.958084 198.397568,114.273026 197.637421,114.273026 196.844727Z" style="fill: rgb(100.000000%,100.000000%,100.000000%);stroke: none;"></path>
  <path d="M130.007980 171.795898C130.007980 171.003204,129.693039 170.243057,129.132553 169.682587C128.572083 169.122101,127.811935 168.807159,127.019241 168.807159C126.226547 168.807159,125.466400 169.122101,124.905930 169.682587C124.345444 170.243057,124.030502 171.003204,124.030502 171.795898C124.030502 172.588593,124.345444 173.348740,124.905930 173.909210C125.466400 174.469696,126.226547 174.784637,127.019241 174.784637C127.811935 174.784637,128.572083 174.469696,129.132553 173.909210C129.693039 173.348740,130.007980 172.588593,130.007980 171.795898Z" style="fill: rgb(100.000000%,100.000000%,100.000000%);stroke: none;"></path>
  <path d="M61.769318 186.357941C61.769318 185.565247,61.454376 184.805099,60.893890 184.244629C60.333420 183.684143,59.573273 183.369202,58.780579 183.369202C57.987885 183.369202,57.227737 183.684143,56.667267 184.244629C56.106781 184.805099,55.791840 185.565247,55.791840 186.357941C55.791840 187.150635,56.106781 187.910782,56.667267 188.471252C57.227737 189.031738,57.987885 189.346680,58.780579 189.346680C59.573273 189.346680,60.333420 189.031738,60.893890 188.471252C61.454376 187.910782,61.769318 187.150635,61.769318 186.357941Z" style="fill: rgb(100.000000%,100.000000%,100.000000%);stroke: none;"></path>
  <path d="M94.546539 199.267822C94.546539 198.475128,94.231598 197.714981,93.671112 197.154510C93.110641 196.594025,92.350494 196.279083,91.557800 196.279083C90.765106 196.279083,90.004959 196.594025,89.444489 197.154510C88.884003 197.714981,88.569061 198.475128,88.569061 199.267822C88.569061 200.060516,88.884003 200.820663,89.444489 201.381134C90.004959 201.941620,90.765106 202.256561,91.557800 202.256561C92.350494 202.256561,93.110641 201.941620,93.671112 201.381134C94.231598 200.820663,94.546539 200.060516,94.546539 199.267822Z" style="fill: rgb(100.000000%,100.000000%,100.000000%);stroke: none;"></path>
  <path d="M54.055557 141.979401C54.055557 141.186707,53.740616 140.426559,53.180130 139.866089C52.619659 139.305603,51.859512 138.990662,51.066818 138.990662C50.274124 138.990662,49.513977 139.305603,48.953506 139.866089C48.393021 140.426559,48.078079 141.186707,48.078079 141.979401C48.078079 142.772095,48.393021 143.532242,48.953506 144.092712C49.513977 144.653198,50.274124 144.968140,51.066818 144.968140C51.859512 144.968140,52.619659 144.653198,53.180130 144.092712C53.740616 143.532242,54.055557 142.772095,54.055557 141.979401Z" style="fill: rgb(100.000000%,100.000000%,100.000000%);stroke: none;"></path>
  <path d="M49.386688 172.305176C49.386688 171.512482,49.071747 170.752335,48.511261 170.191864C47.950790 169.631378,47.190643 169.316437,46.397949 169.316437C45.605255 169.316437,44.845108 169.631378,44.284637 170.191864C43.724152 170.752335,43.409210 171.512482,43.409210 172.305176C43.409210 173.097870,43.724152 173.858017,44.284637 174.418488C44.845108 174.978973,45.605255 175.293915,46.397949 175.293915C47.190643 175.293915,47.950790 174.978973,48.511261 174.418488C49.071747 173.858017,49.386688 173.097870,49.386688 172.305176Z" style="fill: rgb(100.000000%,100.000000%,100.000000%);stroke: none;"></path>
  <path d="M81.303894 116.366425C81.303894 115.573730,80.988953 114.813583,80.428467 114.253113C79.867996 113.692627,79.107849 113.377686,78.315155 113.377686C77.522461 113.377686,76.762314 113.692627,76.201843 114.253113C75.641357 114.813583,75.326416 115.573730,75.326416 116.366425C75.326416 117.159119,75.641357 117.919266,76.201843 118.479736C76.762314 119.040222,77.522461 119.355164,78.315155 119.355164C79.107849 119.355164,79.867996 119.040222,80.428467 118.479736C80.988953 117.919266,81.303894 117.159119,81.303894 116.366425Z" style="fill: rgb(100.000000%,100.000000%,100.000000%);stroke: none;"></path>
  <path d="M67.053284 133.416840C67.053284 132.624146,66.738342 131.863998,66.177856 131.303528C65.617386 130.743042,64.857239 130.428101,64.064545 130.428101C63.271851 130.428101,62.511703 130.743042,61.951233 131.303528C61.390747 131.863998,61.075806 132.624146,61.075806 133.416840C61.075806 134.209534,61.390747 134.969681,61.951233 135.530151C62.511703 136.090637,63.271851 136.405579,64.064545 136.405579C64.857239 136.405579,65.617386 136.090637,66.177856 135.530151C66.738342 134.969681,67.053284 134.209534,67.053284 133.416840Z" style="fill: rgb(100.000000%,100.000000%,100.000000%);stroke: none;"></path>
  <path d="M91.638809 99.638107C91.638809 98.845413,91.323868 98.085266,90.763382 97.524796C90.202911 96.964310,89.442764 96.649368,88.650070 96.649368C87.857376 96.649368,87.097229 96.964310,86.536758 97.524796C85.976273 98.085266,85.661331 98.845413,85.661331 99.638107C85.661331 100.430801,85.976273 101.190948,86.536758 101.751419C87.097229 102.311905,87.857376 102.626846,88.650070 102.626846C89.442764 102.626846,90.202911 102.311905,90.763382 101.751419C91.323868 101.190948,91.638809 100.430801,91.638809 99.638107Z" style="fill: rgb(100.000000%,100.000000%,100.000000%);stroke: none;"></path>
  <path d="M85.223083 109.177780C85.223083 108.385086,84.908142 107.624939,84.347656 107.064468C83.787186 106.503983,83.027039 106.189041,82.234344 106.189041C81.441650 106.189041,80.681503 106.503983,80.121033 107.064468C79.560547 107.624939,79.245605 108.385086,79.245605 109.177780C79.245605 109.970474,79.560547 110.730621,80.121033 111.291092C80.681503 111.851578,81.441650 112.166519,82.234344 112.166519C83.027039 112.166519,83.787186 111.851578,84.347656 111.291092C84.908142 110.730621,85.223083 109.970474,85.223083 109.177780Z" style="fill: rgb(100.000000%,100.000000%,100.000000%);stroke: none;"></path>
  <path d="M91.861816 93.761154C92.870743 91.159241,93.916916 88.571930,95.000000 86.000000C96.231155 83.076477,97.522049 80.113449,97.628296 76.936554C97.751190 73.261597,96.284088 69.800003,95.000000 66.364777C92.646530 60.068695,90.869980 53.575638,88.682007 47.220718C84.779480 35.885895,79.356613 24.762283,69.619629 17.758514C55.309784 7.465500,35.714569 8.505157,23.002075 20.624329C11.784439 31.318405,9.047928 48.360458,17.908859 60.764679C25.798279 71.808899,40.028397 74.710144,53.353516 77.401596C60.846817 78.915115,68.311188 80.571518,75.822464 81.993698C79.234680 82.639771,82.656479 83.237488,86.052307 83.965271C89.043198 84.606262,92.011581 85.347656,95.000000 86.000000C98.705475 86.808868,102.466614 87.489166,105.937790 89.026993C109.973053 90.814713,113.398987 93.658997,116.827164 96.429703C123.796936 102.062775,130.959351 107.503113,138.883453 111.697372C152.015091 118.647995,167.669006 122.775970,175.158569 135.741379C182.967499 149.259644,178.819641 166.220291,167.357574 177.252975C154.426270 189.699860,134.743561 192.557709,120.517258 182.146545C110.099075 174.522263,105.235779 160.563293,93.231461 155.409073C79.170517 149.371811,63.725998 158.595871,48.902283 156.038712C28.902527 152.588669,18.688202 132.288330,12.057114 112.539200C5.733292 93.705185,2.820007 72.011337,17.908859 60.764679C28.197632 53.095825,43.282455 55.361984,52.955017 46.801498C61.496445 39.242096,62.195312 26.306381,69.619629 17.758514C82.662292 2.742065,105.177032 7.299316,124.822830 14.103287C142.213013 20.126053,160.482513 28.937424,162.323135 46.605225C163.441757 57.342636,156.974670 67.549667,146.602768 69.638046C140.833313 70.799728,135.061783 68.910278,129.397995 67.379959C123.732132 65.849075,117.948196 64.674866,112.075867 64.651443C106.345703 64.628586,100.688614 65.705658,95.000000 66.364777C90.058167 66.937363,84.810547 67.343369,81.174088 70.752457C78.079727 73.653351,77.064499 77.953278,75.822464 81.993698C74.548096 86.139267,72.978897 90.522644,74.769821 94.472870C76.841583 99.042542,82.140823 100.514221,86.775192 102.425903C92.248047 104.683472,97.625519 108.116440,103.484436 107.047897C109.282532 105.990433,113.115311 101.006485,116.827164 96.429703C120.338150 92.100601,124.129547 87.907349,126.371201 82.793488C128.491959 77.955429,129.073517 72.645706,129.397995 67.379959C129.701584 62.453186,129.843231 57.362946,132.294876 53.062698C137.965836 43.115662,151.255844 41.653366,162.323135 46.605225C178.155243 53.689011,186.928162 69.970169,190.584457 87.063995C194.639847 106.023666,191.484192 126.922012,175.158569 135.741379C162.272202 142.702805,144.715851 138.070526,134.120605 148.728058C125.377701 157.522354,127.019241 171.795898,120.517258 182.146545C111.284286 196.844727,91.557800 199.267822,74.706467 192.630630C58.780579 186.357941,46.397949 172.305176,48.902283 156.038712C51.066818 141.979401,64.064545 133.416840,73.093933 122.613449C78.315155 116.366425,82.234344 109.177780,86.775192 102.425903C88.650070 99.638107,90.645767 96.897217,91.861816 93.761154" style="stroke:rgb(0.000000%,0.000000%,0.000000%); stroke-width: 0.498138;stroke-linecap: round;stroke-linejoin: round;stroke-miterlimit: 10.000000;fill: none;"></path>
  <path d="M91.861816 93.761154C92.870743 91.159241,93.916916 88.571930,95.000000 86.000000" style="stroke:rgb(0.000000%,0.000000%,0.000000%); stroke-width: 1.494400;stroke-linecap: round;stroke-linejoin: round;stroke-miterlimit: 10.000000;fill: none;"></path>
  <path d="M48.902283 156.038712C51.066818 141.979401,64.064545 133.416840,73.093933 122.613449C78.315155 116.366425,82.234344 109.177780,86.775192 102.425903C88.650070 99.638107,90.645767 96.897217,91.861816 93.761154" style="stroke:rgb(0.000000%,0.000000%,0.000000%); stroke-width: 1.494400;stroke-linecap: round;stroke-linejoin: round;stroke-miterlimit: 10.000000;fill: none;"></path>
  <path d="M97.988739 86.000000C97.988739 85.207306,97.673798 84.447159,97.113312 83.886688C96.552841 83.326202,95.792694 83.011261,95.000000 83.011261C94.207306 83.011261,93.447159 83.326202,92.886688 83.886688C92.326202 84.447159,92.011261 85.207306,92.011261 86.000000C92.011261 86.792694,92.326202 87.552841,92.886688 88.113312C93.447159 88.673798,94.207306 88.988739,95.000000 88.988739C95.792694 88.988739,96.552841 88.673798,97.113312 88.113312C97.673798 87.552841,97.988739 86.792694,97.988739 86.000000Z" style="fill: rgb(100.000000%,100.000000%,100.000000%);stroke: none;"></path>
  <path d="M90.527100 84.978378C92.016602 85.325394,93.505798 85.673828,95.000000 86.000000C96.852737 86.404434,98.719391 86.776733,100.556763 87.240143" style="stroke:rgb(0.000000%,0.000000%,0.000000%); stroke-width: 0.498138;stroke-linecap: round;stroke-linejoin: round;stroke-miterlimit: 10.000000;fill: none;"></path>
  <path d="M72.608368 17.758514C72.608368 16.965820,72.293427 16.205673,71.732941 15.645203C71.172470 15.084717,70.412323 14.769775,69.619629 14.769775C68.826935 14.769775,68.066788 15.084717,67.506317 15.645203C66.945831 16.205673,66.630890 16.965820,66.630890 17.758514C66.630890 18.551208,66.945831 19.311356,67.506317 19.871826C68.066788 20.432312,68.826935 20.747253,69.619629 20.747253C70.412323 20.747253,71.172470 20.432312,71.732941 19.871826C72.293427 19.311356,72.608368 18.551208,72.608368 17.758514Z" style="fill: rgb(100.000000%,100.000000%,100.000000%);stroke: none;"></path>
  <path d="M61.706253 32.650665C63.876678 27.403336,65.907471 22.032440,69.619629 17.758514C76.140961 10.250290,85.030319 7.635483,94.745071 7.748245" style="stroke:rgb(0.000000%,0.000000%,0.000000%); stroke-width: 0.498138;stroke-linecap: round;stroke-linejoin: round;stroke-miterlimit: 10.000000;fill: none;"></path>
  <path d="M78.811203 81.993698C78.811203 81.201004,78.496262 80.440857,77.935776 79.880386C77.375305 79.319901,76.615158 79.004959,75.822464 79.004959C75.029770 79.004959,74.269623 79.319901,73.709152 79.880386C73.148666 80.440857,72.833725 81.201004,72.833725 81.993698C72.833725 82.786392,73.148666 83.546539,73.709152 84.107010C74.269623 84.667496,75.029770 84.982437,75.822464 84.982437C76.615158 84.982437,77.375305 84.667496,77.935776 84.107010C78.496262 83.546539,78.811203 82.786392,78.811203 81.993698Z" style="fill: rgb(100.000000%,100.000000%,100.000000%);stroke: none;"></path>
  <path d="M77.803650 75.945770C77.007797 77.888412,76.443481 79.973495,75.822464 81.993698C75.185272 84.066483,74.474380 86.198730,74.146652 88.306549" style="stroke:rgb(0.000000%,0.000000%,0.000000%); stroke-width: 0.498138;stroke-linecap: round;stroke-linejoin: round;stroke-miterlimit: 10.000000;fill: none;"></path>
  <path d="M119.815903 96.429703C119.815903 95.637009,119.500961 94.876862,118.940475 94.316391C118.380005 93.755905,117.619858 93.440964,116.827164 93.440964C116.034470 93.440964,115.274323 93.755905,114.713852 94.316391C114.153366 94.876862,113.838425 95.637009,113.838425 96.429703C113.838425 97.222397,114.153366 97.982544,114.713852 98.543015C115.274323 99.103500,116.034470 99.418442,116.827164 99.418442C117.619858 99.418442,118.380005 99.103500,118.940475 98.543015C119.500961 97.982544,119.815903 97.222397,119.815903 96.429703Z" style="fill: rgb(100.000000%,100.000000%,100.000000%);stroke: none;"></path>
  <path d="M110.938156 103.058533C113.085083 101.108276,114.971237 98.718094,116.827164 96.429703C118.582657 94.265152,120.408264 92.134552,122.075195 89.905869" style="stroke:rgb(0.000000%,0.000000%,0.000000%); stroke-width: 0.498138;stroke-linecap: round;stroke-linejoin: round;stroke-miterlimit: 10.000000;fill: none;"></path>
  <path d="M123.505997 182.146545C123.505997 181.353851,123.191055 180.593704,122.630569 180.033234C122.070099 179.472748,121.309952 179.157806,120.517258 179.157806C119.724564 179.157806,118.964417 179.472748,118.403946 180.033234C117.843460 180.593704,117.528519 181.353851,117.528519 182.146545C117.528519 182.939240,117.843460 183.699387,118.403946 184.259857C118.964417 184.820343,119.724564 185.135284,120.517258 185.135284C121.309952 185.135284,122.070099 184.820343,122.630569 184.259857C123.191055 183.699387,123.505997 182.939240,123.505997 182.146545Z" style="fill: rgb(100.000000%,100.000000%,100.000000%);stroke: none;"></path>
  <path d="M126.478577 164.853683C124.983353 170.815186,123.768250 176.971222,120.517258 182.146545C115.900772 189.495636,108.660904 193.775955,100.468735 195.389359" style="stroke:rgb(0.000000%,0.000000%,0.000000%); stroke-width: 0.498138;stroke-linecap: round;stroke-linejoin: round;stroke-miterlimit: 10.000000;fill: none;"></path>
  <path d="M20.897598 60.764679C20.897598 59.971985,20.582657 59.211838,20.022171 58.651367C19.461700 58.090881,18.701553 57.775940,17.908859 57.775940C17.116165 57.775940,16.356018 58.090881,15.795547 58.651367C15.235062 59.211838,14.920120 59.971985,14.920120 60.764679C14.920120 61.557373,15.235062 62.317520,15.795547 62.877991C16.356018 63.438477,17.116165 63.753418,17.908859 63.753418C18.701553 63.753418,19.461700 63.438477,20.022171 62.877991C20.582657 62.317520,20.897598 61.557373,20.897598 60.764679Z" style="fill: rgb(100.000000%,100.000000%,100.000000%);stroke: none;"></path>
  <path d="M12.925995 40.053207C11.947296 47.201004,13.478394 54.562576,17.908859 60.764679C21.853577 66.286789,27.383469 69.773163,33.592819 72.215439" style="stroke:rgb(0.000000%,0.000000%,0.000000%); stroke-width: 0.498138;stroke-linecap: round;stroke-linejoin: round;stroke-miterlimit: 10.000000;fill: none;"></path>
  <path d="M165.311874 46.605225C165.311874 45.812531,164.996933 45.052383,164.436447 44.491913C163.875977 43.931427,163.115829 43.616486,162.323135 43.616486C161.530441 43.616486,160.770294 43.931427,160.209824 44.491913C159.649338 45.052383,159.334396 45.812531,159.334396 46.605225C159.334396 47.397919,159.649338 48.158066,160.209824 48.718536C160.770294 49.279022,161.530441 49.593964,162.323135 49.593964C163.115829 49.593964,163.875977 49.279022,164.436447 48.718536C164.996933 48.158066,165.311874 47.397919,165.311874 46.605225Z" style="fill: rgb(100.000000%,100.000000%,100.000000%);stroke: none;"></path>
  <path d="M149.404083 25.987381C156.375305 31.151535,161.402832 37.771332,162.323135 46.605225C162.882446 51.973938,161.545319 57.210052,158.771881 61.365036" style="stroke:rgb(0.000000%,0.000000%,0.000000%); stroke-width: 0.498138;stroke-linecap: round;stroke-linejoin: round;stroke-miterlimit: 10.000000;fill: none;"></path>
  <path d="M97.988739 66.364777C97.988739 65.572083,97.673798 64.811935,97.113312 64.251465C96.552841 63.690979,95.792694 63.376038,95.000000 63.376038C94.207306 63.376038,93.447159 63.690979,92.886688 64.251465C92.326202 64.811935,92.011261 65.572083,92.011261 66.364777C92.011261 67.157471,92.326202 67.917618,92.886688 68.478088C93.447159 69.038574,94.207306 69.353516,95.000000 69.353516C95.792694 69.353516,96.552841 69.038574,97.113312 68.478088C97.673798 67.917618,97.988739 67.157471,97.988739 66.364777Z" style="fill: rgb(100.000000%,100.000000%,100.000000%);stroke: none;"></path>
  <path d="M96.841751 71.560745C96.329834 69.806580,95.642044 68.082382,95.000000 66.364777C93.823257 63.216736,92.790756 60.019440,91.778931 56.814804" style="stroke:rgb(0.000000%,0.000000%,0.000000%); stroke-width: 0.498138;stroke-linecap: round;stroke-linejoin: round;stroke-miterlimit: 10.000000;fill: none;"></path>
  <path d="M89.763931 102.425903C89.763931 101.633209,89.448990 100.873062,88.888504 100.312592C88.328033 99.752106,87.567886 99.437164,86.775192 99.437164C85.982498 99.437164,85.222351 99.752106,84.661880 100.312592C84.101395 100.873062,83.786453 101.633209,83.786453 102.425903C83.786453 103.218597,84.101395 103.978745,84.661880 104.539215C85.222351 105.099701,85.982498 105.414642,86.775192 105.414642C87.567886 105.414642,88.328033 105.099701,88.888504 104.539215C89.448990 103.978745,89.763931 103.218597,89.763931 102.425903Z" style="fill: rgb(100.000000%,100.000000%,100.000000%);stroke: none;"></path>
  <path d="M80.189713 112.708984C82.389771 109.286957,84.504776 105.801834,86.775192 102.425903C87.712631 101.031998,88.680283 99.649826,89.565582 98.224121" style="stroke:rgb(0.000000%,0.000000%,0.000000%); stroke-width: 1.494400;stroke-linecap: round;stroke-linejoin: round;stroke-miterlimit: 10.000000;fill: none;"></path>
  <path d="M132.386734 67.379959C132.386734 66.587265,132.071793 65.827118,131.511307 65.266647C130.950836 64.706161,130.190689 64.391220,129.397995 64.391220C128.605301 64.391220,127.845154 64.706161,127.284683 65.266647C126.724197 65.827118,126.409256 66.587265,126.409256 67.379959C126.409256 68.172653,126.724197 68.932800,127.284683 69.493271C127.845154 70.053757,128.605301 70.368698,129.397995 70.368698C130.190689 70.368698,130.950836 70.053757,131.511307 69.493271C132.071793 68.932800,132.386734 68.172653,132.386734 67.379959Z" style="fill: rgb(100.000000%,100.000000%,100.000000%);stroke: none;"></path>
  <path d="M128.558212 75.247101C129.009262 72.656693,129.235764 70.012833,129.397995 67.379959C129.549789 64.916565,129.661102 62.412308,130.040924 59.986374" style="stroke:rgb(0.000000%,0.000000%,0.000000%); stroke-width: 0.498138;stroke-linecap: round;stroke-linejoin: round;stroke-miterlimit: 10.000000;fill: none;"></path>
  <path d="M178.147308 135.741379C178.147308 134.948685,177.832367 134.188538,177.271881 133.628067C176.711411 133.067581,175.951263 132.752640,175.158569 132.752640C174.365875 132.752640,173.605728 133.067581,173.045258 133.628067C172.484772 134.188538,172.169830 134.948685,172.169830 135.741379C172.169830 136.534073,172.484772 137.294220,173.045258 137.854691C173.605728 138.415176,174.365875 138.730118,175.158569 138.730118C175.951263 138.730118,176.711411 138.415176,177.271881 137.854691C177.832367 137.294220,178.147308 136.534073,178.147308 135.741379Z" style="fill: rgb(100.000000%,100.000000%,100.000000%);stroke: none;"></path>
  <path d="M159.136810 121.463837C165.627930 124.985336,171.413788 129.258682,175.158569 135.741379C179.063034 142.500519,179.978302 150.120255,178.484695 157.429291" style="stroke:rgb(0.000000%,0.000000%,0.000000%); stroke-width: 0.498138;stroke-linecap: round;stroke-linejoin: round;stroke-miterlimit: 10.000000;fill: none;"></path>
  <path d="M51.891022 156.038712C51.891022 155.246017,51.576080 154.485870,51.015594 153.925400C50.455124 153.364914,49.694977 153.049973,48.902283 153.049973C48.109589 153.049973,47.349442 153.364914,46.788971 153.925400C46.228485 154.485870,45.913544 155.246017,45.913544 156.038712C45.913544 156.831406,46.228485 157.591553,46.788971 158.152023C47.349442 158.712509,48.109589 159.027451,48.902283 159.027451C49.694977 159.027451,50.455124 158.712509,51.015594 158.152023C51.576080 157.591553,51.891022 156.831406,51.891022 156.038712Z" style="fill: rgb(100.000000%,100.000000%,100.000000%);stroke: none;"></path>
  <path d="M71.352905 154.418869C63.881195 155.650574,56.314133 157.317291,48.902283 156.038712C38.902405 154.313690,31.348877 148.376083,25.466431 140.401093" style="stroke:rgb(0.000000%,0.000000%,0.000000%); stroke-width: 0.498138;stroke-linecap: round;stroke-linejoin: round;stroke-miterlimit: 10.000000;fill: none;"></path>
  <path d="M91.861816 93.761154C92.668961 91.679611,93.499939 89.607422,94.354599 87.544968" style="stroke:rgb(0.000000%,0.000000%,0.000000%); stroke-width: 0.498138;stroke-linecap: round;stroke-linejoin: round;stroke-miterlimit: 10.000000;fill: none;"></path>
  <path d="M94.396713 92.544754C94.368408 90.878311,94.354370 89.211655,94.354599 87.544968C93.175873 88.723312,92.007294 89.911728,90.848923 91.110062Z" style="stroke:rgb(0.000000%,0.000000%,0.000000%); stroke-width: 0.498138;fill: rgb(0.000000%,0.000000%,0.000000%);"></path>
  <path d="M91.861816 93.761154C92.668961 91.679611,93.499939 89.607422,94.354599 87.544968" style="stroke:rgb(0.000000%,0.000000%,0.000000%); stroke-width: 0.498138;stroke-linecap: round;stroke-linejoin: round;stroke-miterlimit: 10.000000;fill: none;"></path>
  <path d="M94.369598 90.544983C94.359451 89.545013,94.354462 88.544983,94.354599 87.544968C93.647369 88.251984,92.943771 88.962616,92.243835 89.676849Z" style="stroke:rgb(0.000000%,0.000000%,0.000000%); stroke-width: 0.498138;fill: rgb(0.000000%,0.000000%,0.000000%);"></path>
  <path d="M97.628296 76.936554C97.726608 73.996582,96.807312 71.193146,95.778214 68.430557" style="stroke:rgb(0.000000%,0.000000%,0.000000%); stroke-width: 0.498138;stroke-linecap: round;stroke-linejoin: round;stroke-miterlimit: 10.000000;fill: none;"></path>
  <path d="M97.765732 70.677765C97.134186 69.908051,96.461166 69.164673,95.778214 68.430557C95.742020 69.432587,95.692261 70.434113,95.594528 71.424957Z" style="stroke:rgb(0.000000%,0.000000%,0.000000%); stroke-width: 0.498138;fill: rgb(0.000000%,0.000000%,0.000000%);"></path>
  <path d="M53.353516 77.401596C59.348175 78.612411,65.324326 79.914688,71.320801 81.115311" style="stroke:rgb(0.000000%,0.000000%,0.000000%); stroke-width: 0.498138;stroke-linecap: round;stroke-linejoin: round;stroke-miterlimit: 10.000000;fill: none;"></path>
  <path d="M68.376389 81.689560C69.358276 81.500290,70.339813 81.309158,71.320801 81.115311C70.490082 80.558701,69.660889 79.999802,68.832748 79.439316Z" style="stroke:rgb(0.000000%,0.000000%,0.000000%); stroke-width: 0.498138;fill: rgb(0.000000%,0.000000%,0.000000%);"></path>
  <path d="M86.052307 83.965271C88.445023 84.478073,90.823334 85.055130,93.209030 85.599426" style="stroke:rgb(0.000000%,0.000000%,0.000000%); stroke-width: 0.498138;stroke-linecap: round;stroke-linejoin: round;stroke-miterlimit: 10.000000;fill: none;"></path>
  <path d="M90.249771 86.092331C91.236389 85.929108,92.223190 85.767044,93.209030 85.599426C92.393417 85.020828,91.581055 84.437653,90.768021 83.855423Z" style="stroke:rgb(0.000000%,0.000000%,0.000000%); stroke-width: 0.498138;fill: rgb(0.000000%,0.000000%,0.000000%);"></path>
  <path d="M138.883453 111.697372C149.388809 117.257889,161.508423 121.011902,169.770691 128.929443" style="stroke:rgb(0.000000%,0.000000%,0.000000%); stroke-width: 0.498138;stroke-linecap: round;stroke-linejoin: round;stroke-miterlimit: 10.000000;fill: none;"></path>
  <path d="M166.932404 127.957718C167.892303 128.244385,168.839020 128.566589,169.770691 128.929443C169.368500 128.014069,168.926910 127.116791,168.450867 126.235336Z" style="stroke:rgb(0.000000%,0.000000%,0.000000%); stroke-width: 0.498138;fill: rgb(0.000000%,0.000000%,0.000000%);"></path>
  <path d="M93.231461 155.409073C81.982666 150.579239,69.848373 155.516739,57.854828 156.375610" style="stroke:rgb(0.000000%,0.000000%,0.000000%); stroke-width: 0.498138;stroke-linecap: round;stroke-linejoin: round;stroke-miterlimit: 10.000000;fill: none;"></path>
  <path d="M60.502777 154.964935C59.628326 155.456451,58.746506 155.929153,57.854828 156.375610C58.801010 156.690445,59.758820 156.979736,60.724701 157.250549Z" style="stroke:rgb(0.000000%,0.000000%,0.000000%); stroke-width: 0.498138;fill: rgb(0.000000%,0.000000%,0.000000%);"></path>
  <path d="M52.955017 46.801498C59.788193 40.753952,61.602081 31.265533,65.855591 23.335571" style="stroke:rgb(0.000000%,0.000000%,0.000000%); stroke-width: 0.498138;stroke-linecap: round;stroke-linejoin: round;stroke-miterlimit: 10.000000;fill: none;"></path>
  <path d="M65.651093 26.328415C65.692230 25.326187,65.756409 24.327759,65.855591 23.335571C65.083862 23.967010,64.332489 24.627609,63.594696 25.307175Z" style="stroke:rgb(0.000000%,0.000000%,0.000000%); stroke-width: 0.498138;fill: rgb(0.000000%,0.000000%,0.000000%);"></path>
  <path d="M74.769821 94.472870C76.427231 98.128616,80.150253 99.801651,83.945969 101.303421" style="stroke:rgb(0.000000%,0.000000%,0.000000%); stroke-width: 0.498138;stroke-linecap: round;stroke-linejoin: round;stroke-miterlimit: 10.000000;fill: none;"></path>
  <path d="M80.946060 101.281235C81.934479 101.324234,82.940170 101.319458,83.945969 101.303421C83.223434 100.603546,82.508942 99.895767,81.840439 99.166428Z" style="stroke:rgb(0.000000%,0.000000%,0.000000%); stroke-width: 0.498138;fill: rgb(0.000000%,0.000000%,0.000000%);"></path>
  <path d="M126.371201 82.793488C128.067810 78.923019,128.779343 74.750702,129.162201 70.540512" style="stroke:rgb(0.000000%,0.000000%,0.000000%); stroke-width: 0.498138;stroke-linecap: round;stroke-linejoin: round;stroke-miterlimit: 10.000000;fill: none;"></path>
  <path d="M129.992615 73.423203C129.739914 72.457169,129.459961 71.496292,129.162201 70.540512C128.696899 71.426895,128.215408 72.304276,127.710968 73.166061Z" style="stroke:rgb(0.000000%,0.000000%,0.000000%); stroke-width: 0.498138;fill: rgb(0.000000%,0.000000%,0.000000%);"></path>
  <path d="M134.120605 148.728058C127.126251 155.763519,126.778000 166.305740,123.589401 175.540741" style="stroke:rgb(0.000000%,0.000000%,0.000000%); stroke-width: 0.498138;stroke-linecap: round;stroke-linejoin: round;stroke-miterlimit: 10.000000;fill: none;"></path>
  <path d="M123.323013 172.552628C123.436813 173.549347,123.529373 174.545670,123.589401 175.540741C124.250595 174.794693,124.889664 174.024750,125.513992 173.239487Z" style="stroke:rgb(0.000000%,0.000000%,0.000000%); stroke-width: 0.498138;fill: rgb(0.000000%,0.000000%,0.000000%);"></path>
  <path d="M70.103287 125.323654L76.084579 125.323654L76.084579 117.903259L70.103287 117.903259Z" style="fill: rgb(100.000000%,100.000000%,100.000000%);stroke: none;"></path>
  <path d="M70.103287 127.323654L76.084579 127.323654L76.084579 119.903259L70.103287 119.903259Z" style="fill: rgb(100.000000%,100.000000%,100.000000%);stroke: none;"></path>
  <g transform="translate(70.603287 125.823654)" style="fill: rgb(0.000000%,0.000000%,0.000000%);">
    <use xlink:href="#GLYPHcmr10_49"></use>
  </g>
  <path d="M85.691360 49.930923L91.672653 49.930923L91.672653 42.510529L85.691360 42.510529Z" style="fill: rgb(100.000000%,100.000000%,100.000000%);stroke: none;"></path>
  <path d="M85.691360 51.930923L91.672653 51.930923L91.672653 44.510529L85.691360 44.510529Z" style="fill: rgb(100.000000%,100.000000%,100.000000%);stroke: none;"></path>
  <g transform="translate(86.191360 50.430923)" style="fill: rgb(0.000000%,0.000000%,0.000000%);">
    <use xlink:href="#GLYPHcmr10_50"></use>
  </g>
  <path d="M20.011429 23.334534L25.992722 23.334534L25.992722 15.914139L20.011429 15.914139Z" style="fill: rgb(100.000000%,100.000000%,100.000000%);stroke: none;"></path>
  <path d="M20.011429 25.334534L25.992722 25.334534L25.992722 17.914139L20.011429 17.914139Z" style="fill: rgb(100.000000%,100.000000%,100.000000%);stroke: none;"></path>
  <g transform="translate(20.511429 23.834534)" style="fill: rgb(0.000000%,0.000000%,0.000000%);">
    <use xlink:href="#GLYPHcmr10_51"></use>
  </g>
  <path d="M102.947144 91.737198L108.928436 91.737198L108.928436 84.316803L102.947144 84.316803Z" style="fill: rgb(100.000000%,100.000000%,100.000000%);stroke: none;"></path>
  <path d="M102.947144 93.737198L108.928436 93.737198L108.928436 86.316803L102.947144 86.316803Z" style="fill: rgb(100.000000%,100.000000%,100.000000%);stroke: none;"></path>
  <g transform="translate(103.447144 92.237198)" style="fill: rgb(0.000000%,0.000000%,0.000000%);">
    <use xlink:href="#GLYPHcmr10_52"></use>
  </g>
  <path d="M164.366928 179.963181L170.348221 179.963181L170.348221 172.542786L164.366928 172.542786Z" style="fill: rgb(100.000000%,100.000000%,100.000000%);stroke: none;"></path>
  <path d="M164.366928 181.963181L170.348221 181.963181L170.348221 174.542786L164.366928 174.542786Z" style="fill: rgb(100.000000%,100.000000%,100.000000%);stroke: none;"></path>
  <g transform="translate(164.866928 180.463181)" style="fill: rgb(0.000000%,0.000000%,0.000000%);">
    <use xlink:href="#GLYPHcmr10_53"></use>
  </g>
  <path d="M9.066467 115.249405L15.047760 115.249405L15.047760 107.829010L9.066467 107.829010Z" style="fill: rgb(100.000000%,100.000000%,100.000000%);stroke: none;"></path>
  <path d="M9.066467 117.249405L15.047760 117.249405L15.047760 109.829010L9.066467 109.829010Z" style="fill: rgb(100.000000%,100.000000%,100.000000%);stroke: none;"></path>
  <g transform="translate(9.566467 115.749405)" style="fill: rgb(0.000000%,0.000000%,0.000000%);">
    <use xlink:href="#GLYPHcmr10_54"></use>
  </g>
  <path d="M121.832184 16.813492L127.813477 16.813492L127.813477 9.393097L121.832184 9.393097Z" style="fill: rgb(100.000000%,100.000000%,100.000000%);stroke: none;"></path>
  <path d="M121.832184 18.813492L127.813477 18.813492L127.813477 11.393097L121.832184 11.393097Z" style="fill: rgb(100.000000%,100.000000%,100.000000%);stroke: none;"></path>
  <g transform="translate(122.332184 17.313492)" style="fill: rgb(0.000000%,0.000000%,0.000000%);">
    <use xlink:href="#GLYPHcmr10_55"></use>
  </g>
  <path d="M109.085220 67.361649L115.066513 67.361649L115.066513 59.941254L109.085220 59.941254Z" style="fill: rgb(100.000000%,100.000000%,100.000000%);stroke: none;"></path>
  <path d="M109.085220 69.361649L115.066513 69.361649L115.066513 61.941254L109.085220 61.941254Z" style="fill: rgb(100.000000%,100.000000%,100.000000%);stroke: none;"></path>
  <g transform="translate(109.585220 67.861649)" style="fill: rgb(0.000000%,0.000000%,0.000000%);">
    <use xlink:href="#GLYPHcmr10_56"></use>
  </g>
  <path d="M78.183441 73.462662L84.164734 73.462662L84.164734 66.042267L78.183441 66.042267Z" style="fill: rgb(100.000000%,100.000000%,100.000000%);stroke: none;"></path>
  <path d="M78.183441 75.462662L84.164734 75.462662L84.164734 68.042267L78.183441 68.042267Z" style="fill: rgb(100.000000%,100.000000%,100.000000%);stroke: none;"></path>
  <g transform="translate(78.683441 73.962662)" style="fill: rgb(0.000000%,0.000000%,0.000000%);">
    <use xlink:href="#GLYPHcmr10_57"></use>
  </g>
  <path d="M126.813522 55.772903L137.776230 55.772903L137.776230 48.352509L126.813522 48.352509Z" style="fill: rgb(100.000000%,100.000000%,100.000000%);stroke: none;"></path>
  <path d="M126.813522 57.772903L137.776230 57.772903L137.776230 50.352509L126.813522 50.352509Z" style="fill: rgb(100.000000%,100.000000%,100.000000%);stroke: none;"></path>
  <g transform="translate(127.313522 56.272903)" style="fill: rgb(0.000000%,0.000000%,0.000000%);">
    <use xlink:href="#GLYPHcmr10_49"></use>
    <use xlink:href="#GLYPHcmr10_48" x="5.000095"></use>
  </g>
  <path d="M185.103104 89.774200L196.065811 89.774200L196.065811 82.353806L185.103104 82.353806Z" style="fill: rgb(100.000000%,100.000000%,100.000000%);stroke: none;"></path>
  <path d="M185.103104 91.774200L196.065811 91.774200L196.065811 84.353806L185.103104 84.353806Z" style="fill: rgb(100.000000%,100.000000%,100.000000%);stroke: none;"></path>
  <g transform="translate(185.603104 90.274200)" style="fill: rgb(0.000000%,0.000000%,0.000000%);">
    <use xlink:href="#GLYPHcmr10_49"></use>
    <use xlink:href="#GLYPHcmr10_49" x="5.000095"></use>
  </g>
  <path d="M69.225113 195.340836L80.187820 195.340836L80.187820 187.920441L69.225113 187.920441Z" style="fill: rgb(100.000000%,100.000000%,100.000000%);stroke: none;"></path>
  <path d="M69.225113 197.340836L80.187820 197.340836L80.187820 189.920441L69.225113 189.920441Z" style="fill: rgb(100.000000%,100.000000%,100.000000%);stroke: none;"></path>
  <g transform="translate(69.725113 195.840836)" style="fill: rgb(0.000000%,0.000000%,0.000000%);">
    <use xlink:href="#GLYPHcmr10_49"></use>
    <use xlink:href="#GLYPHcmr10_50" x="5.000095"></use>
  </g>
</svg>
