<?xml version="1.0"?>
<!-- Created by MetaPost 1.999 on 2021.07.06:0002 -->
<svg version="1.1" xmlns="http://www.w3.org/2000/svg" xmlns:xlink="http://www.w3.org/1999/xlink" width="200.117676" height="205.439758" viewBox="0 0 200.117676 205.439758">
<!-- Original BoundingBox: -79.438324 -37.118668 120.679352 168.321091 -->
  <defs>
    <g transform="scale(0.009963,0.009963)" id="GLYPHcmr10_48">
      <path style="fill-rule: evenodd;" d="M460.000000 -320.000000C460.000000 -400.000000,455.000000 -480.000000,420.000000 -554.000000C374.000000 -650.000000,292.000000 -666.000000,250.000000 -666.000000C190.000000 -666.000000,117.000000 -640.000000,76.000000 -547.000000C44.000000 -478.000000,39.000000 -400.000000,39.000000 -320.000000C39.000000 -245.000000,43.000000 -155.000000,84.000000 -79.000000C127.000000 2.000000,200.000000 22.000000,249.000000 22.000000C303.000000 22.000000,379.000000 1.000000,423.000000 -94.000000C455.000000 -163.000000,460.000000 -241.000000,460.000000 -320.000000M249.000000 -0.000000C210.000000 -0.000000,151.000000 -25.000000,133.000000 -121.000000C122.000000 -181.000000,122.000000 -273.000000,122.000000 -332.000000C122.000000 -396.000000,122.000000 -462.000000,130.000000 -516.000000C149.000000 -635.000000,224.000000 -644.000000,249.000000 -644.000000C282.000000 -644.000000,348.000000 -626.000000,367.000000 -527.000000C377.000000 -471.000000,377.000000 -395.000000,377.000000 -332.000000C377.000000 -257.000000,377.000000 -189.000000,366.000000 -125.000000C351.000000 -30.000000,294.000000 -0.000000,249.000000 -0.000000"></path>
    </g>
    <g transform="scale(0.009963,0.009963)" id="GLYPHcmr10_49">
      <path style="fill-rule: evenodd;" d="M294.000000 -640.000000C294.000000 -664.000000,294.000000 -666.000000,271.000000 -666.000000C209.000000 -602.000000,121.000000 -602.000000,89.000000 -602.000000L89.000000 -571.000000C109.000000 -571.000000,168.000000 -571.000000,220.000000 -597.000000L220.000000 -79.000000C220.000000 -43.000000,217.000000 -31.000000,127.000000 -31.000000L95.000000 -31.000000L95.000000 -0.000000L257.000000 -0.000000L130.000000 -3.000000L217.000000 -3.000000L257.000000 -3.000000L297.000000 -3.000000L384.000000 -3.000000L419.000000 -0.000000L419.000000 -31.000000L387.000000 -31.000000C297.000000 -31.000000,294.000000 -42.000000,294.000000 -79.000000"></path>
    </g>
    <g transform="scale(0.009963,0.009963)" id="GLYPHcmr10_50">
      <path style="fill-rule: evenodd;" d="M127.000000 -77.000000L233.000000 -180.000000C389.000000 -318.000000,449.000000 -372.000000,449.000000 -472.000000C449.000000 -586.000000,359.000000 -666.000000,237.000000 -666.000000C124.000000 -666.000000,50.000000 -574.000000,50.000000 -485.000000C50.000000 -429.000000,100.000000 -429.000000,103.000000 -429.000000C120.000000 -429.000000,155.000000 -441.000000,155.000000 -482.000000C155.000000 -508.000000,137.000000 -534.000000,102.000000 -534.000000C94.000000 -534.000000,92.000000 -534.000000,89.000000 -533.000000C112.000000 -598.000000,166.000000 -635.000000,224.000000 -635.000000C315.000000 -635.000000,358.000000 -554.000000,358.000000 -472.000000C358.000000 -392.000000,308.000000 -313.000000,253.000000 -251.000000L61.000000 -37.000000C50.000000 -26.000000,50.000000 -24.000000,50.000000 -0.000000L421.000000 -0.000000L449.000000 -174.000000L424.000000 -174.000000C419.000000 -144.000000,412.000000 -100.000000,402.000000 -85.000000C395.000000 -77.000000,329.000000 -77.000000,307.000000 -77.000000"></path>
    </g>
    <g transform="scale(0.009963,0.009963)" id="GLYPHcmr10_51">
      <path style="fill-rule: evenodd;" d="M290.000000 -352.000000C372.000000 -379.000000,430.000000 -449.000000,430.000000 -528.000000C430.000000 -610.000000,342.000000 -666.000000,246.000000 -666.000000C145.000000 -666.000000,69.000000 -606.000000,69.000000 -530.000000C69.000000 -497.000000,91.000000 -478.000000,120.000000 -478.000000C151.000000 -478.000000,171.000000 -500.000000,171.000000 -529.000000C171.000000 -579.000000,124.000000 -579.000000,109.000000 -579.000000C140.000000 -628.000000,206.000000 -641.000000,242.000000 -641.000000C283.000000 -641.000000,338.000000 -619.000000,338.000000 -529.000000C338.000000 -517.000000,336.000000 -459.000000,310.000000 -415.000000C280.000000 -367.000000,246.000000 -364.000000,221.000000 -363.000000C213.000000 -362.000000,189.000000 -360.000000,182.000000 -360.000000C174.000000 -359.000000,167.000000 -358.000000,167.000000 -348.000000C167.000000 -337.000000,174.000000 -337.000000,191.000000 -337.000000L235.000000 -337.000000C317.000000 -337.000000,354.000000 -269.000000,354.000000 -171.000000C354.000000 -35.000000,285.000000 -6.000000,241.000000 -6.000000C198.000000 -6.000000,123.000000 -23.000000,88.000000 -82.000000C123.000000 -77.000000,154.000000 -99.000000,154.000000 -137.000000C154.000000 -173.000000,127.000000 -193.000000,98.000000 -193.000000C74.000000 -193.000000,42.000000 -179.000000,42.000000 -135.000000C42.000000 -44.000000,135.000000 22.000000,244.000000 22.000000C366.000000 22.000000,457.000000 -69.000000,457.000000 -171.000000C457.000000 -253.000000,394.000000 -331.000000,290.000000 -352.000000"></path>
    </g>
    <g transform="scale(0.009963,0.009963)" id="GLYPHcmr10_52">
      <path style="fill-rule: evenodd;" d="M294.000000 -165.000000L294.000000 -78.000000C294.000000 -42.000000,292.000000 -31.000000,218.000000 -31.000000L197.000000 -31.000000L197.000000 -0.000000L332.000000 -0.000000L238.000000 -3.000000L290.000000 -3.000000L332.000000 -3.000000L374.000000 -3.000000L427.000000 -3.000000L468.000000 -0.000000L468.000000 -31.000000L447.000000 -31.000000C373.000000 -31.000000,371.000000 -42.000000,371.000000 -78.000000L371.000000 -165.000000L471.000000 -165.000000L471.000000 -196.000000L371.000000 -196.000000L371.000000 -651.000000C371.000000 -671.000000,371.000000 -677.000000,355.000000 -677.000000C346.000000 -677.000000,343.000000 -677.000000,335.000000 -665.000000L28.000000 -196.000000L28.000000 -165.000000M300.000000 -196.000000L56.000000 -196.000000L300.000000 -569.000000"></path>
    </g>
    <g transform="scale(0.009963,0.009963)" id="GLYPHcmr10_53">
      <path style="fill-rule: evenodd;" d="M449.000000 -201.000000C449.000000 -320.000000,367.000000 -420.000000,259.000000 -420.000000C211.000000 -420.000000,168.000000 -404.000000,132.000000 -369.000000L132.000000 -564.000000C152.000000 -558.000000,185.000000 -551.000000,217.000000 -551.000000C340.000000 -551.000000,410.000000 -642.000000,410.000000 -655.000000C410.000000 -661.000000,407.000000 -666.000000,400.000000 -666.000000C399.000000 -666.000000,397.000000 -666.000000,392.000000 -663.000000C372.000000 -654.000000,323.000000 -634.000000,256.000000 -634.000000C216.000000 -634.000000,170.000000 -641.000000,123.000000 -662.000000C115.000000 -665.000000,113.000000 -665.000000,111.000000 -665.000000C101.000000 -665.000000,101.000000 -657.000000,101.000000 -641.000000L101.000000 -345.000000C101.000000 -327.000000,101.000000 -319.000000,115.000000 -319.000000C122.000000 -319.000000,124.000000 -322.000000,128.000000 -328.000000C139.000000 -344.000000,176.000000 -398.000000,257.000000 -398.000000C309.000000 -398.000000,334.000000 -352.000000,342.000000 -334.000000C358.000000 -297.000000,360.000000 -258.000000,360.000000 -208.000000C360.000000 -173.000000,360.000000 -113.000000,336.000000 -71.000000C312.000000 -32.000000,275.000000 -6.000000,229.000000 -6.000000C156.000000 -6.000000,99.000000 -59.000000,82.000000 -118.000000C85.000000 -117.000000,88.000000 -116.000000,99.000000 -116.000000C132.000000 -116.000000,149.000000 -141.000000,149.000000 -165.000000C149.000000 -189.000000,132.000000 -214.000000,99.000000 -214.000000C85.000000 -214.000000,50.000000 -207.000000,50.000000 -161.000000C50.000000 -75.000000,119.000000 22.000000,231.000000 22.000000C347.000000 22.000000,449.000000 -74.000000,449.000000 -201.000000"></path>
    </g>
    <g transform="scale(0.009963,0.009963)" id="GLYPHcmr10_54">
      <path style="fill-rule: evenodd;" d="M132.000000 -328.000000L132.000000 -352.000000C132.000000 -605.000000,256.000000 -641.000000,307.000000 -641.000000C331.000000 -641.000000,373.000000 -635.000000,395.000000 -601.000000C380.000000 -601.000000,340.000000 -601.000000,340.000000 -556.000000C340.000000 -525.000000,364.000000 -510.000000,386.000000 -510.000000C402.000000 -510.000000,432.000000 -519.000000,432.000000 -558.000000C432.000000 -618.000000,388.000000 -666.000000,305.000000 -666.000000C177.000000 -666.000000,42.000000 -537.000000,42.000000 -316.000000C42.000000 -49.000000,158.000000 22.000000,251.000000 22.000000C362.000000 22.000000,457.000000 -72.000000,457.000000 -204.000000C457.000000 -331.000000,368.000000 -427.000000,257.000000 -427.000000C189.000000 -427.000000,152.000000 -376.000000,132.000000 -328.000000M251.000000 -6.000000C188.000000 -6.000000,158.000000 -66.000000,152.000000 -81.000000C134.000000 -128.000000,134.000000 -208.000000,134.000000 -226.000000C134.000000 -304.000000,166.000000 -404.000000,256.000000 -404.000000C272.000000 -404.000000,318.000000 -404.000000,349.000000 -342.000000C367.000000 -305.000000,367.000000 -254.000000,367.000000 -205.000000C367.000000 -157.000000,367.000000 -107.000000,350.000000 -71.000000C320.000000 -11.000000,274.000000 -6.000000,251.000000 -6.000000"></path>
    </g>
    <g transform="scale(0.009963,0.009963)" id="GLYPHcmr10_55">
      <path style="fill-rule: evenodd;" d="M476.000000 -609.000000C485.000000 -621.000000,485.000000 -623.000000,485.000000 -644.000000L242.000000 -644.000000C120.000000 -644.000000,118.000000 -657.000000,114.000000 -676.000000L89.000000 -676.000000L56.000000 -470.000000L81.000000 -470.000000C84.000000 -486.000000,93.000000 -549.000000,106.000000 -561.000000C113.000000 -567.000000,191.000000 -567.000000,204.000000 -567.000000L411.000000 -567.000000C400.000000 -551.000000,321.000000 -442.000000,299.000000 -409.000000C209.000000 -274.000000,176.000000 -135.000000,176.000000 -33.000000C176.000000 -23.000000,176.000000 22.000000,222.000000 22.000000C268.000000 22.000000,268.000000 -23.000000,268.000000 -33.000000L268.000000 -84.000000C268.000000 -139.000000,271.000000 -194.000000,279.000000 -248.000000C283.000000 -271.000000,297.000000 -357.000000,341.000000 -419.000000"></path>
    </g>
    <g transform="scale(0.009963,0.009963)" id="GLYPHcmr10_56">
      <path style="fill-rule: evenodd;" d="M163.000000 -457.000000C117.000000 -487.000000,113.000000 -521.000000,113.000000 -538.000000C113.000000 -599.000000,178.000000 -641.000000,249.000000 -641.000000C322.000000 -641.000000,386.000000 -589.000000,386.000000 -517.000000C386.000000 -460.000000,347.000000 -412.000000,287.000000 -377.000000M309.000000 -362.000000C381.000000 -399.000000,430.000000 -451.000000,430.000000 -517.000000C430.000000 -609.000000,341.000000 -666.000000,250.000000 -666.000000C150.000000 -666.000000,69.000000 -592.000000,69.000000 -499.000000C69.000000 -481.000000,71.000000 -436.000000,113.000000 -389.000000C124.000000 -377.000000,161.000000 -352.000000,186.000000 -335.000000C128.000000 -306.000000,42.000000 -250.000000,42.000000 -151.000000C42.000000 -45.000000,144.000000 22.000000,249.000000 22.000000C362.000000 22.000000,457.000000 -61.000000,457.000000 -168.000000C457.000000 -204.000000,446.000000 -249.000000,408.000000 -291.000000C389.000000 -312.000000,373.000000 -322.000000,309.000000 -362.000000M209.000000 -320.000000L332.000000 -242.000000C360.000000 -223.000000,407.000000 -193.000000,407.000000 -132.000000C407.000000 -58.000000,332.000000 -6.000000,250.000000 -6.000000C164.000000 -6.000000,92.000000 -68.000000,92.000000 -151.000000C92.000000 -209.000000,124.000000 -273.000000,209.000000 -320.000000"></path>
    </g>
    <g transform="scale(0.009963,0.009963)" id="GLYPHcmr10_57">
      <path style="fill-rule: evenodd;" d="M367.000000 -318.000000L367.000000 -286.000000C367.000000 -52.000000,263.000000 -6.000000,205.000000 -6.000000C188.000000 -6.000000,134.000000 -8.000000,107.000000 -42.000000C151.000000 -42.000000,159.000000 -71.000000,159.000000 -88.000000C159.000000 -119.000000,135.000000 -134.000000,113.000000 -134.000000C97.000000 -134.000000,67.000000 -125.000000,67.000000 -86.000000C67.000000 -19.000000,121.000000 22.000000,206.000000 22.000000C335.000000 22.000000,457.000000 -114.000000,457.000000 -329.000000C457.000000 -598.000000,342.000000 -666.000000,253.000000 -666.000000C198.000000 -666.000000,149.000000 -648.000000,106.000000 -603.000000C65.000000 -558.000000,42.000000 -516.000000,42.000000 -441.000000C42.000000 -316.000000,130.000000 -218.000000,242.000000 -218.000000C303.000000 -218.000000,344.000000 -260.000000,367.000000 -318.000000M243.000000 -241.000000C227.000000 -241.000000,181.000000 -241.000000,150.000000 -304.000000C132.000000 -341.000000,132.000000 -391.000000,132.000000 -440.000000C132.000000 -494.000000,132.000000 -541.000000,153.000000 -578.000000C180.000000 -628.000000,218.000000 -641.000000,253.000000 -641.000000C299.000000 -641.000000,332.000000 -607.000000,349.000000 -562.000000C361.000000 -530.000000,365.000000 -467.000000,365.000000 -421.000000C365.000000 -338.000000,331.000000 -241.000000,243.000000 -241.000000"></path>
    </g>
  </defs>
  <path d="M118.306808 202.129929C118.306808 201.337234,117.991867 200.577087,117.431381 200.016617C116.870911 199.456131,116.110764 199.141190,115.318069 199.141190C114.525375 199.141190,113.765228 199.456131,113.204758 200.016617C112.644272 200.577087,112.329330 201.337234,112.329330 202.129929C112.329330 202.922623,112.644272 203.682770,113.204758 204.243240C113.765228 204.803726,114.525375 205.118668,115.318069 205.118668C116.110764 205.118668,116.870911 204.803726,117.431381 204.243240C117.991867 203.682770,118.306808 202.922623,118.306808 202.129929Z" style="fill: rgb(100.000000%,100.000000%,100.000000%);stroke: none;"></path>
  <path d="M139.488098 188.318451C139.488098 187.525757,139.173157 186.765610,138.612671 186.205139C138.052200 185.644653,137.292053 185.329712,136.499359 185.329712C135.706665 185.329712,134.946518 185.644653,134.386047 186.205139C133.825562 186.765610,133.510620 187.525757,133.510620 188.318451C133.510620 189.111145,133.825562 189.871292,134.386047 190.431763C134.946518 190.992249,135.706665 191.307190,136.499359 191.307190C137.292053 191.307190,138.052200 190.992249,138.612671 190.431763C139.173157 189.871292,139.488098 189.111145,139.488098 188.318451Z" style="fill: rgb(100.000000%,100.000000%,100.000000%);stroke: none;"></path>
  <path d="M77.673080 154.693741C77.673080 153.901047,77.358139 153.140900,76.797653 152.580429C76.237183 152.019943,75.477036 151.705002,74.684341 151.705002C73.891647 151.705002,73.131500 152.019943,72.571030 152.580429C72.010544 153.140900,71.695602 153.901047,71.695602 154.693741C71.695602 155.486435,72.010544 156.246582,72.571030 156.807053C73.131500 157.367538,73.891647 157.682480,74.684341 157.682480C75.477036 157.682480,76.237183 157.367538,76.797653 156.807053C77.358139 156.246582,77.673080 155.486435,77.673080 154.693741Z" style="fill: rgb(100.000000%,100.000000%,100.000000%);stroke: none;"></path>
  <path d="M89.789932 192.052979C89.789932 191.260284,89.474991 190.500137,88.914505 189.939667C88.354034 189.379181,87.593887 189.064240,86.801193 189.064240C86.008499 189.064240,85.248352 189.379181,84.687881 189.939667C84.127396 190.500137,83.812454 191.260284,83.812454 192.052979C83.812454 192.845673,84.127396 193.605820,84.687881 194.166290C85.248352 194.726776,86.008499 195.041718,86.801193 195.041718C87.593887 195.041718,88.354034 194.726776,88.914505 194.166290C89.474991 193.605820,89.789932 192.845673,89.789932 192.052979Z" style="fill: rgb(100.000000%,100.000000%,100.000000%);stroke: none;"></path>
  <path d="M82.710678 118.762024C82.710678 117.969330,82.395737 117.209183,81.835251 116.648712C81.274780 116.088226,80.514633 115.773285,79.721939 115.773285C78.929245 115.773285,78.169098 116.088226,77.608627 116.648712C77.048141 117.209183,76.733200 117.969330,76.733200 118.762024C76.733200 119.554718,77.048141 120.314865,77.608627 120.875336C78.169098 121.435822,78.929245 121.750763,79.721939 121.750763C80.514633 121.750763,81.274780 121.435822,81.835251 120.875336C82.395737 120.314865,82.710678 119.554718,82.710678 118.762024Z" style="fill: rgb(100.000000%,100.000000%,100.000000%);stroke: none;"></path>
  <path d="M81.900650 140.605667C81.900650 139.812973,81.585709 139.052826,81.025223 138.492355C80.464752 137.931870,79.704605 137.616928,78.911911 137.616928C78.119217 137.616928,77.359070 137.931870,76.798599 138.492355C76.238113 139.052826,75.923172 139.812973,75.923172 140.605667C75.923172 141.398361,76.238113 142.158508,76.798599 142.718979C77.359070 143.279465,78.119217 143.594406,78.911911 143.594406C79.704605 143.594406,80.464752 143.279465,81.025223 142.718979C81.585709 142.158508,81.900650 141.398361,81.900650 140.605667Z" style="fill: rgb(100.000000%,100.000000%,100.000000%);stroke: none;"></path>
  <path d="M82.121323 98.194138C82.121323 97.401443,81.806381 96.641296,81.245895 96.080826C80.685425 95.520340,79.925278 95.205399,79.132584 95.205399C78.339890 95.205399,77.579742 95.520340,77.019272 96.080826C76.458786 96.641296,76.143845 97.401443,76.143845 98.194138C76.143845 98.986832,76.458786 99.746979,77.019272 100.307449C77.579742 100.867935,78.339890 101.182877,79.132584 101.182877C79.925278 101.182877,80.685425 100.867935,81.245895 100.307449C81.806381 99.746979,82.121323 98.986832,82.121323 98.194138Z" style="fill: rgb(100.000000%,100.000000%,100.000000%);stroke: none;"></path>
  <path d="M81.763229 110.818802C81.763229 110.026108,81.448288 109.265961,80.887802 108.705490C80.327332 108.145004,79.567184 107.830063,78.774490 107.830063C77.981796 107.830063,77.221649 108.145004,76.661179 108.705490C76.100693 109.265961,75.785751 110.026108,75.785751 110.818802C75.785751 111.611496,76.100693 112.371643,76.661179 112.932114C77.221649 113.492599,77.981796 113.807541,78.774490 113.807541C79.567184 113.807541,80.327332 113.492599,80.887802 112.932114C81.448288 112.371643,81.763229 111.611496,81.763229 110.818802Z" style="fill: rgb(100.000000%,100.000000%,100.000000%);stroke: none;"></path>
  <path d="M82.368164 85.294373C82.368164 84.501678,82.053223 83.741531,81.492737 83.181061C80.932266 82.620575,80.172119 82.305634,79.379425 82.305634C78.586731 82.305634,77.826584 82.620575,77.266113 83.181061C76.705627 83.741531,76.390686 84.501678,76.390686 85.294373C76.390686 86.087067,76.705627 86.847214,77.266113 87.407684C77.826584 87.968170,78.586731 88.283112,79.379425 88.283112C80.172119 88.283112,80.932266 87.968170,81.492737 87.407684C82.053223 86.847214,82.368164 86.087067,82.368164 85.294373Z" style="fill: rgb(100.000000%,100.000000%,100.000000%);stroke: none;"></path>
  <path d="M82.659225 93.530640C82.659225 92.737946,82.344284 91.977798,81.783798 91.417328C81.223328 90.856842,80.463181 90.541901,79.670486 90.541901C78.877792 90.541901,78.117645 90.856842,77.557175 91.417328C76.996689 91.977798,76.681747 92.737946,76.681747 93.530640C76.681747 94.323334,76.996689 95.083481,77.557175 95.643951C78.117645 96.204437,78.877792 96.519379,79.670486 96.519379C80.463181 96.519379,81.223328 96.204437,81.783798 95.643951C82.344284 95.083481,82.659225 94.323334,82.659225 93.530640Z" style="fill: rgb(100.000000%,100.000000%,100.000000%);stroke: none;"></path>
  <path d="M81.829391 76.285233C81.829391 75.492538,81.514450 74.732391,80.953964 74.171921C80.393494 73.611435,79.633347 73.296494,78.840652 73.296494C78.047958 73.296494,77.287811 73.611435,76.727341 74.171921C76.166855 74.732391,75.851913 75.492538,75.851913 76.285233C75.851913 77.077927,76.166855 77.838074,76.727341 78.398544C77.287811 78.959030,78.047958 79.273972,78.840652 79.273972C79.633347 79.273972,80.393494 78.959030,80.953964 78.398544C81.514450 77.838074,81.829391 77.077927,81.829391 76.285233Z" style="fill: rgb(100.000000%,100.000000%,100.000000%);stroke: none;"></path>
  <path d="M81.834396 81.754486C81.834396 80.961792,81.519455 80.201645,80.958969 79.641174C80.398499 79.080688,79.638351 78.765747,78.845657 78.765747C78.052963 78.765747,77.292816 79.080688,76.732346 79.641174C76.171860 80.201645,75.856918 80.961792,75.856918 81.754486C75.856918 82.547180,76.171860 83.307327,76.732346 83.867798C77.292816 84.428284,78.052963 84.743225,78.845657 84.743225C79.638351 84.743225,80.398499 84.428284,80.958969 83.867798C81.519455 83.307327,81.834396 82.547180,81.834396 81.754486Z" style="fill: rgb(100.000000%,100.000000%,100.000000%);stroke: none;"></path>
  <path d="M78.929672 71.165619C78.929672 70.372925,78.614731 69.612778,78.054245 69.052307C77.493774 68.491821,76.733627 68.176880,75.940933 68.176880C75.148239 68.176880,74.388092 68.491821,73.827621 69.052307C73.267136 69.612778,72.952194 70.372925,72.952194 71.165619C72.952194 71.958313,73.267136 72.718460,73.827621 73.278931C74.388092 73.839417,75.148239 74.154358,75.940933 74.154358C76.733627 74.154358,77.493774 73.839417,78.054245 73.278931C78.614731 72.718460,78.929672 71.958313,78.929672 71.165619Z" style="fill: rgb(100.000000%,100.000000%,100.000000%);stroke: none;"></path>
  <path d="M81.898224 74.231979C81.898224 73.439285,81.583282 72.679138,81.022797 72.118668C80.462326 71.558182,79.702179 71.243240,78.909485 71.243240C78.116791 71.243240,77.356644 71.558182,76.796173 72.118668C76.235687 72.679138,75.920746 73.439285,75.920746 74.231979C75.920746 75.024673,76.235687 75.784821,76.796173 76.345291C77.356644 76.905777,78.116791 77.220718,78.909485 77.220718C79.702179 77.220718,80.462326 76.905777,81.022797 76.345291C81.583282 75.784821,81.898224 75.024673,81.898224 74.231979Z" style="fill: rgb(100.000000%,100.000000%,100.000000%);stroke: none;"></path>
  <path d="M67.995132 72.787384C67.995132 71.994690,67.680191 71.234543,67.119705 70.674072C66.559235 70.113586,65.799088 69.798645,65.006393 69.798645C64.213699 69.798645,63.453552 70.113586,62.893082 70.674072C62.332596 71.234543,62.017654 71.994690,62.017654 72.787384C62.017654 73.580078,62.332596 74.340225,62.893082 74.900696C63.453552 75.461182,64.213699 75.776123,65.006393 75.776123C65.799088 75.776123,66.559235 75.461182,67.119705 74.900696C67.680191 74.340225,67.995132 73.580078,67.995132 72.787384Z" style="fill: rgb(100.000000%,100.000000%,100.000000%);stroke: none;"></path>
  <path d="M76.316162 71.576096C76.316162 70.783401,76.001221 70.023254,75.440735 69.462784C74.880264 68.902298,74.120117 68.587357,73.327423 68.587357C72.534729 68.587357,71.774582 68.902298,71.214111 69.462784C70.653625 70.023254,70.338684 70.783401,70.338684 71.576096C70.338684 72.368790,70.653625 73.128937,71.214111 73.689407C71.774582 74.249893,72.534729 74.564835,73.327423 74.564835C74.120117 74.564835,74.880264 74.249893,75.440735 73.689407C76.001221 73.128937,76.316162 72.368790,76.316162 71.576096Z" style="fill: rgb(100.000000%,100.000000%,100.000000%);stroke: none;"></path>
  <path d="M42.539978 72.054733C42.539978 71.262039,42.225037 70.501892,41.664551 69.941422C41.104080 69.380936,40.343933 69.065994,39.551239 69.065994C38.758545 69.065994,37.998398 69.380936,37.437927 69.941422C36.877441 70.501892,36.562500 71.262039,36.562500 72.054733C36.562500 72.847427,36.877441 73.607574,37.437927 74.168045C37.998398 74.728531,38.758545 75.043472,39.551239 75.043472C40.343933 75.043472,41.104080 74.728531,41.664551 74.168045C42.225037 73.607574,42.539978 72.847427,42.539978 72.054733Z" style="fill: rgb(100.000000%,100.000000%,100.000000%);stroke: none;"></path>
  <path d="M61.966080 72.234344C61.966080 71.441650,61.651138 70.681503,61.090652 70.121033C60.530182 69.560547,59.770035 69.245605,58.977341 69.245605C58.184647 69.245605,57.424500 69.560547,56.864029 70.121033C56.303543 70.681503,55.988602 71.441650,55.988602 72.234344C55.988602 73.027039,56.303543 73.787186,56.864029 74.347656C57.424500 74.908142,58.184647 75.223083,58.977341 75.223083C59.770035 75.223083,60.530182 74.908142,61.090652 74.347656C61.651138 73.787186,61.966080 73.027039,61.966080 72.234344Z" style="fill: rgb(100.000000%,100.000000%,100.000000%);stroke: none;"></path>
  <path d="M5.539154 99.507233C5.539154 98.714539,5.224213 97.954391,4.663727 97.393921C4.103256 96.833435,3.343109 96.518494,2.550415 96.518494C1.757721 96.518494,0.997574 96.833435,0.437103 97.393921C-0.123383 97.954391,-0.438324 98.714539,-0.438324 99.507233C-0.438324 100.299927,-0.123383 101.060074,0.437103 101.620544C0.997574 102.181030,1.757721 102.495972,2.550415 102.495972C3.343109 102.495972,4.103256 102.181030,4.663727 101.620544C5.224213 101.060074,5.539154 100.299927,5.539154 99.507233Z" style="fill: rgb(100.000000%,100.000000%,100.000000%);stroke: none;"></path>
  <path d="M28.687744 74.725388C28.687744 73.932693,28.372803 73.172546,27.812317 72.612076C27.251846 72.051590,26.491699 71.736649,25.699005 71.736649C24.906311 71.736649,24.146164 72.051590,23.585693 72.612076C23.025208 73.172546,22.710266 73.932693,22.710266 74.725388C22.710266 75.518082,23.025208 76.278229,23.585693 76.838699C24.146164 77.399185,24.906311 77.714127,25.699005 77.714127C26.491699 77.714127,27.251846 77.399185,27.812317 76.838699C28.372803 76.278229,28.687744 75.518082,28.687744 74.725388Z" style="fill: rgb(100.000000%,100.000000%,100.000000%);stroke: none;"></path>
  <path d="M33.424515 163.123489C33.424515 162.330795,33.109573 161.570648,32.549088 161.010178C31.988617 160.449692,31.228470 160.134750,30.435776 160.134750C29.643082 160.134750,28.882935 160.449692,28.322464 161.010178C27.761978 161.570648,27.447037 162.330795,27.447037 163.123489C27.447037 163.916183,27.761978 164.676331,28.322464 165.236801C28.882935 165.797287,29.643082 166.112228,30.435776 166.112228C31.228470 166.112228,31.988617 165.797287,32.549088 165.236801C33.109573 164.676331,33.424515 163.916183,33.424515 163.123489Z" style="fill: rgb(100.000000%,100.000000%,100.000000%);stroke: none;"></path>
  <path d="M8.426819 122.598465C8.426819 121.805771,8.111877 121.045624,7.551392 120.485153C6.990921 119.924667,6.230774 119.609726,5.438080 119.609726C4.645386 119.609726,3.885239 119.924667,3.324768 120.485153C2.764282 121.045624,2.449341 121.805771,2.449341 122.598465C2.449341 123.391159,2.764282 124.151306,3.324768 124.711777C3.885239 125.272263,4.645386 125.587204,5.438080 125.587204C6.230774 125.587204,6.990921 125.272263,7.551392 124.711777C8.111877 124.151306,8.426819 123.391159,8.426819 122.598465Z" style="fill: rgb(100.000000%,100.000000%,100.000000%);stroke: none;"></path>
  <path d="M96.435333 162.285004C96.435333 161.492310,96.120392 160.732162,95.559906 160.171692C94.999435 159.611206,94.239288 159.296265,93.446594 159.296265C92.653900 159.296265,91.893753 159.611206,91.333282 160.171692C90.772797 160.732162,90.457855 161.492310,90.457855 162.285004C90.457855 163.077698,90.772797 163.837845,91.333282 164.398315C91.893753 164.958801,92.653900 165.273743,93.446594 165.273743C94.239288 165.273743,94.999435 164.958801,95.559906 164.398315C96.120392 163.837845,96.435333 163.077698,96.435333 162.285004Z" style="fill: rgb(100.000000%,100.000000%,100.000000%);stroke: none;"></path>
  <path d="M58.582764 177.259277C58.582764 176.466583,58.267822 175.706436,57.707336 175.145966C57.146866 174.585480,56.386719 174.270538,55.594025 174.270538C54.801331 174.270538,54.041183 174.585480,53.480713 175.145966C52.920227 175.706436,52.605286 176.466583,52.605286 177.259277C52.605286 178.051971,52.920227 178.812119,53.480713 179.372589C54.041183 179.933075,54.801331 180.248016,55.594025 180.248016C56.386719 180.248016,57.146866 179.933075,57.707336 179.372589C58.267822 178.812119,58.582764 178.051971,58.582764 177.259277Z" style="fill: rgb(100.000000%,100.000000%,100.000000%);stroke: none;"></path>
  <path d="M136.572449 139.031464C136.572449 138.238770,136.257507 137.478622,135.697021 136.918152C135.136551 136.357666,134.376404 136.042725,133.583710 136.042725C132.791016 136.042725,132.030869 136.357666,131.470398 136.918152C130.909912 137.478622,130.594971 138.238770,130.594971 139.031464C130.594971 139.824158,130.909912 140.584305,131.470398 141.144775C132.030869 141.705261,132.791016 142.020203,133.583710 142.020203C134.376404 142.020203,135.136551 141.705261,135.697021 141.144775C136.257507 140.584305,136.572449 139.824158,136.572449 139.031464Z" style="fill: rgb(100.000000%,100.000000%,100.000000%);stroke: none;"></path>
  <path d="M105.928757 147.713959C105.928757 146.921265,105.613815 146.161118,105.053329 145.600647C104.492859 145.040161,103.732712 144.725220,102.940018 144.725220C102.147324 144.725220,101.387177 145.040161,100.826706 145.600647C100.266220 146.161118,99.951279 146.921265,99.951279 147.713959C99.951279 148.506653,100.266220 149.266800,100.826706 149.827271C101.387177 150.387756,102.147324 150.702698,102.940018 150.702698C103.732712 150.702698,104.492859 150.387756,105.053329 149.827271C105.613815 149.266800,105.928757 148.506653,105.928757 147.713959Z" style="fill: rgb(100.000000%,100.000000%,100.000000%);stroke: none;"></path>
  <path d="M189.548035 137.161667C189.548035 136.368973,189.233093 135.608826,188.672607 135.048355C188.112137 134.487869,187.351990 134.172928,186.559296 134.172928C185.766602 134.172928,185.006454 134.487869,184.445984 135.048355C183.885498 135.608826,183.570557 136.368973,183.570557 137.161667C183.570557 137.954361,183.885498 138.714508,184.445984 139.274979C185.006454 139.835464,185.766602 140.150406,186.559296 140.150406C187.351990 140.150406,188.112137 139.835464,188.672607 139.274979C189.233093 138.714508,189.548035 137.954361,189.548035 137.161667Z" style="fill: rgb(100.000000%,100.000000%,100.000000%);stroke: none;"></path>
  <path d="M153.181778 147.238266C153.181778 146.445572,152.866837 145.685425,152.306351 145.124954C151.745880 144.564468,150.985733 144.249527,150.193039 144.249527C149.400345 144.249527,148.640198 144.564468,148.079727 145.124954C147.519241 145.685425,147.204300 146.445572,147.204300 147.238266C147.204300 148.030960,147.519241 148.791107,148.079727 149.351578C148.640198 149.912064,149.400345 150.227005,150.193039 150.227005C150.985733 150.227005,151.745880 149.912064,152.306351 149.351578C152.866837 148.791107,153.181778 148.030960,153.181778 147.238266Z" style="fill: rgb(100.000000%,100.000000%,100.000000%);stroke: none;"></path>
  <path d="M196.612396 71.685684C196.612396 70.892990,196.297455 70.132843,195.736969 69.572372C195.176498 69.011887,194.416351 68.696945,193.623657 68.696945C192.830963 68.696945,192.070816 69.011887,191.510345 69.572372C190.949860 70.132843,190.634918 70.892990,190.634918 71.685684C190.634918 72.478378,190.949860 73.238525,191.510345 73.798996C192.070816 74.359482,192.830963 74.674423,193.623657 74.674423C194.416351 74.674423,195.176498 74.359482,195.736969 73.798996C196.297455 73.238525,196.612396 72.478378,196.612396 71.685684Z" style="fill: rgb(100.000000%,100.000000%,100.000000%);stroke: none;"></path>
  <path d="M199.679352 114.817352C199.679352 114.024658,199.364410 113.264511,198.803925 112.704041C198.243454 112.143555,197.483307 111.828613,196.690613 111.828613C195.897919 111.828613,195.137772 112.143555,194.577301 112.704041C194.016815 113.264511,193.701874 114.024658,193.701874 114.817352C193.701874 115.610046,194.016815 116.370193,194.577301 116.930664C195.137772 117.491150,195.897919 117.806091,196.690613 117.806091C197.483307 117.806091,198.243454 117.491150,198.803925 116.930664C199.364410 116.370193,199.679352 115.610046,199.679352 114.817352Z" style="fill: rgb(100.000000%,100.000000%,100.000000%);stroke: none;"></path>
  <path d="M152.879349 43.828156C152.879349 43.035461,152.564407 42.275314,152.003922 41.714844C151.443451 41.154358,150.683304 40.839417,149.890610 40.839417C149.097916 40.839417,148.337769 41.154358,147.777298 41.714844C147.216812 42.275314,146.901871 43.035461,146.901871 43.828156C146.901871 44.620850,147.216812 45.380997,147.777298 45.941467C148.337769 46.501953,149.097916 46.816895,149.890610 46.816895C150.683304 46.816895,151.443451 46.501953,152.003922 45.941467C152.564407 45.380997,152.879349 44.620850,152.879349 43.828156Z" style="fill: rgb(100.000000%,100.000000%,100.000000%);stroke: none;"></path>
  <path d="M185.235168 52.078308C185.235168 51.285614,184.920227 50.525467,184.359741 49.964996C183.799271 49.404510,183.039124 49.089569,182.246429 49.089569C181.453735 49.089569,180.693588 49.404510,180.133118 49.964996C179.572632 50.525467,179.257690 51.285614,179.257690 52.078308C179.257690 52.871002,179.572632 53.631149,180.133118 54.191620C180.693588 54.752106,181.453735 55.067047,182.246429 55.067047C183.039124 55.067047,183.799271 54.752106,184.359741 54.191620C184.920227 53.631149,185.235168 52.871002,185.235168 52.078308Z" style="fill: rgb(100.000000%,100.000000%,100.000000%);stroke: none;"></path>
  <path d="M120.493927 50.447540C120.493927 49.654846,120.178986 48.894699,119.618500 48.334229C119.058029 47.773743,118.297882 47.458801,117.505188 47.458801C116.712494 47.458801,115.952347 47.773743,115.391876 48.334229C114.831390 48.894699,114.516449 49.654846,114.516449 50.447540C114.516449 51.240234,114.831390 52.000381,115.391876 52.560852C115.952347 53.121338,116.712494 53.436279,117.505188 53.436279C118.297882 53.436279,119.058029 53.121338,119.618500 52.560852C120.178986 52.000381,120.493927 51.240234,120.493927 50.447540Z" style="fill: rgb(100.000000%,100.000000%,100.000000%);stroke: none;"></path>
  <path d="M139.969269 48.116058C139.969269 47.323364,139.654327 46.563217,139.093842 46.002747C138.533371 45.442261,137.773224 45.127319,136.980530 45.127319C136.187836 45.127319,135.427689 45.442261,134.867218 46.002747C134.306732 46.563217,133.991791 47.323364,133.991791 48.116058C133.991791 48.908752,134.306732 49.668900,134.867218 50.229370C135.427689 50.789856,136.187836 51.104797,136.980530 51.104797C137.773224 51.104797,138.533371 50.789856,139.093842 50.229370C139.654327 49.668900,139.969269 48.908752,139.969269 48.116058Z" style="fill: rgb(100.000000%,100.000000%,100.000000%);stroke: none;"></path>
  <path d="M103.489456 51.245544C103.489456 50.452850,103.174515 49.692703,102.614029 49.132233C102.053558 48.571747,101.293411 48.256805,100.500717 48.256805C99.708023 48.256805,98.947876 48.571747,98.387405 49.132233C97.826920 49.692703,97.511978 50.452850,97.511978 51.245544C97.511978 52.038239,97.826920 52.798386,98.387405 53.358856C98.947876 53.919342,99.708023 54.234283,100.500717 54.234283C101.293411 54.234283,102.053558 53.919342,102.614029 53.358856C103.174515 52.798386,103.489456 52.038239,103.489456 51.245544Z" style="fill: rgb(100.000000%,100.000000%,100.000000%);stroke: none;"></path>
  <path d="M113.836105 50.501709C113.836105 49.709015,113.521164 48.948868,112.960678 48.388397C112.400208 47.827911,111.640060 47.512970,110.847366 47.512970C110.054672 47.512970,109.294525 47.827911,108.734055 48.388397C108.173569 48.948868,107.858627 49.709015,107.858627 50.501709C107.858627 51.294403,108.173569 52.054550,108.734055 52.615021C109.294525 53.175507,110.054672 53.490448,110.847366 53.490448C111.640060 53.490448,112.400208 53.175507,112.960678 52.615021C113.521164 52.054550,113.836105 51.294403,113.836105 50.501709Z" style="fill: rgb(100.000000%,100.000000%,100.000000%);stroke: none;"></path>
  <path d="M92.945343 53.734985C92.945343 52.942291,92.630402 52.182144,92.069916 51.621674C91.509445 51.061188,90.749298 50.746246,89.956604 50.746246C89.163910 50.746246,88.403763 51.061188,87.843292 51.621674C87.282806 52.182144,86.967865 52.942291,86.967865 53.734985C86.967865 54.527679,87.282806 55.287827,87.843292 55.848297C88.403763 56.408783,89.163910 56.723724,89.956604 56.723724C90.749298 56.723724,91.509445 56.408783,92.069916 55.848297C92.630402 55.287827,92.945343 54.527679,92.945343 53.734985Z" style="fill: rgb(100.000000%,100.000000%,100.000000%);stroke: none;"></path>
  <path d="M99.763458 51.649261C99.763458 50.856567,99.448517 50.096420,98.888031 49.535950C98.327560 48.975464,97.567413 48.660522,96.774719 48.660522C95.982025 48.660522,95.221878 48.975464,94.661407 49.535950C94.100922 50.096420,93.785980 50.856567,93.785980 51.649261C93.785980 52.441956,94.100922 53.202103,94.661407 53.762573C95.221878 54.323059,95.982025 54.638000,96.774719 54.638000C97.567413 54.638000,98.327560 54.323059,98.888031 53.762573C99.448517 53.202103,99.763458 52.441956,99.763458 51.649261Z" style="fill: rgb(100.000000%,100.000000%,100.000000%);stroke: none;"></path>
  <path d="M83.181473 58.146332C83.181473 57.353638,82.866531 56.593491,82.306046 56.033020C81.745575 55.472534,80.985428 55.157593,80.192734 55.157593C79.400040 55.157593,78.639893 55.472534,78.079422 56.033020C77.518936 56.593491,77.203995 57.353638,77.203995 58.146332C77.203995 58.939026,77.518936 59.699173,78.079422 60.259644C78.639893 60.820129,79.400040 61.135071,80.192734 61.135071C80.985428 61.135071,81.745575 60.820129,82.306046 60.259644C82.866531 59.699173,83.181473 58.939026,83.181473 58.146332Z" style="fill: rgb(100.000000%,100.000000%,100.000000%);stroke: none;"></path>
  <path d="M89.902374 55.278381C89.902374 54.485687,89.587433 53.725540,89.026947 53.165070C88.466476 52.604584,87.706329 52.289642,86.913635 52.289642C86.120941 52.289642,85.360794 52.604584,84.800323 53.165070C84.239838 53.725540,83.924896 54.485687,83.924896 55.278381C83.924896 56.071075,84.239838 56.831223,84.800323 57.391693C85.360794 57.952179,86.120941 58.267120,86.913635 58.267120C87.706329 58.267120,88.466476 57.952179,89.026947 57.391693C89.587433 56.831223,89.902374 56.071075,89.902374 55.278381Z" style="fill: rgb(100.000000%,100.000000%,100.000000%);stroke: none;"></path>
  <path d="M75.065811 65.347122C75.065811 64.554428,74.750870 63.794281,74.190384 63.233810C73.629913 62.673325,72.869766 62.358383,72.077072 62.358383C71.284378 62.358383,70.524231 62.673325,69.963760 63.233810C69.403275 63.794281,69.088333 64.554428,69.088333 65.347122C69.088333 66.139816,69.403275 66.899963,69.963760 67.460434C70.524231 68.020920,71.284378 68.335861,72.077072 68.335861C72.869766 68.335861,73.629913 68.020920,74.190384 67.460434C74.750870 66.899963,75.065811 66.139816,75.065811 65.347122Z" style="fill: rgb(100.000000%,100.000000%,100.000000%);stroke: none;"></path>
  <path d="M79.329239 59.525696C79.329239 58.733002,79.014297 57.972855,78.453812 57.412384C77.893341 56.851898,77.133194 56.536957,76.340500 56.536957C75.547806 56.536957,74.787659 56.851898,74.227188 57.412384C73.666702 57.972855,73.351761 58.733002,73.351761 59.525696C73.351761 60.318390,73.666702 61.078537,74.227188 61.639008C74.787659 62.199493,75.547806 62.514435,76.340500 62.514435C77.133194 62.514435,77.893341 62.199493,78.453812 61.639008C79.014297 61.078537,79.329239 60.318390,79.329239 59.525696Z" style="fill: rgb(100.000000%,100.000000%,100.000000%);stroke: none;"></path>
  <path d="M73.455948 74.154190C73.455948 73.361496,73.141006 72.601349,72.580521 72.040878C72.020050 71.480392,71.259903 71.165451,70.467209 71.165451C69.674515 71.165451,68.914368 71.480392,68.353897 72.040878C67.793411 72.601349,67.478470 73.361496,67.478470 74.154190C67.478470 74.946884,67.793411 75.707031,68.353897 76.267502C68.914368 76.827988,69.674515 77.142929,70.467209 77.142929C71.259903 77.142929,72.020050 76.827988,72.580521 76.267502C73.141006 75.707031,73.455948 74.946884,73.455948 74.154190Z" style="fill: rgb(100.000000%,100.000000%,100.000000%);stroke: none;"></path>
  <path d="M74.641464 68.716125C74.641464 67.923431,74.326523 67.163284,73.766037 66.602814C73.205566 66.042328,72.445419 65.727386,71.652725 65.727386C70.860031 65.727386,70.099884 66.042328,69.539413 66.602814C68.978928 67.163284,68.663986 67.923431,68.663986 68.716125C68.663986 69.508820,68.978928 70.268967,69.539413 70.829437C70.099884 71.389923,70.860031 71.704865,71.652725 71.704865C72.445419 71.704865,73.205566 71.389923,73.766037 70.829437C74.326523 70.268967,74.641464 69.508820,74.641464 68.716125Z" style="fill: rgb(100.000000%,100.000000%,100.000000%);stroke: none;"></path>
  <path d="M76.469147 79.972610C76.469147 79.179916,76.154205 78.419769,75.593719 77.859299C75.033249 77.298813,74.273102 76.983871,73.480408 76.983871C72.687714 76.983871,71.927567 77.298813,71.367096 77.859299C70.806610 78.419769,70.491669 79.179916,70.491669 79.972610C70.491669 80.765305,70.806610 81.525452,71.367096 82.085922C71.927567 82.646408,72.687714 82.961349,73.480408 82.961349C74.273102 82.961349,75.033249 82.646408,75.593719 82.085922C76.154205 81.525452,76.469147 80.765305,76.469147 79.972610Z" style="fill: rgb(100.000000%,100.000000%,100.000000%);stroke: none;"></path>
  <path d="M72.984955 76.636414C72.984955 75.843719,72.670013 75.083572,72.109528 74.523102C71.549057 73.962616,70.788910 73.647675,69.996216 73.647675C69.203522 73.647675,68.443375 73.962616,67.882904 74.523102C67.322418 75.083572,67.007477 75.843719,67.007477 76.636414C67.007477 77.429108,67.322418 78.189255,67.882904 78.749725C68.443375 79.310211,69.203522 79.625153,69.996216 79.625153C70.788910 79.625153,71.549057 79.310211,72.109528 78.749725C72.670013 78.189255,72.984955 77.429108,72.984955 76.636414Z" style="fill: rgb(100.000000%,100.000000%,100.000000%);stroke: none;"></path>
  <path d="M85.072525 77.265457C85.072525 76.472763,84.757584 75.712616,84.197098 75.152145C83.636627 74.591660,82.876480 74.276718,82.083786 74.276718C81.291092 74.276718,80.530945 74.591660,79.970474 75.152145C79.409988 75.712616,79.095047 76.472763,79.095047 77.265457C79.095047 78.058151,79.409988 78.818298,79.970474 79.378769C80.530945 79.939255,81.291092 80.254196,82.083786 80.254196C82.876480 80.254196,83.636627 79.939255,84.197098 79.378769C84.757584 78.818298,85.072525 78.058151,85.072525 77.265457Z" style="fill: rgb(100.000000%,100.000000%,100.000000%);stroke: none;"></path>
  <path d="M79.287262 78.915558C79.287262 78.122864,78.972321 77.362717,78.411835 76.802246C77.851364 76.241760,77.091217 75.926819,76.298523 75.926819C75.505829 75.926819,74.745682 76.241760,74.185211 76.802246C73.624725 77.362717,73.309784 78.122864,73.309784 78.915558C73.309784 79.708252,73.624725 80.468399,74.185211 81.028870C74.745682 81.589355,75.505829 81.904297,76.298523 81.904297C77.091217 81.904297,77.851364 81.589355,78.411835 81.028870C78.972321 80.468399,79.287262 79.708252,79.287262 78.915558Z" style="fill: rgb(100.000000%,100.000000%,100.000000%);stroke: none;"></path>
  <path d="M94.865631 74.533524C94.865631 73.740829,94.550690 72.980682,93.990204 72.420212C93.429733 71.859726,92.669586 71.544785,91.876892 71.544785C91.084198 71.544785,90.324051 71.859726,89.763580 72.420212C89.203094 72.980682,88.888153 73.740829,88.888153 74.533524C88.888153 75.326218,89.203094 76.086365,89.763580 76.646835C90.324051 77.207321,91.084198 77.522263,91.876892 77.522263C92.669586 77.522263,93.429733 77.207321,93.990204 76.646835C94.550690 76.086365,94.865631 75.326218,94.865631 74.533524Z" style="fill: rgb(100.000000%,100.000000%,100.000000%);stroke: none;"></path>
  <path d="M88.552353 77.272720C88.552353 76.480026,88.237411 75.719879,87.676926 75.159409C87.116455 74.598923,86.356308 74.283981,85.563614 74.283981C84.770920 74.283981,84.010773 74.598923,83.450302 75.159409C82.889816 75.719879,82.574875 76.480026,82.574875 77.272720C82.574875 78.065414,82.889816 78.825562,83.450302 79.386032C84.010773 79.946518,84.770920 80.261459,85.563614 80.261459C86.356308 80.261459,87.116455 79.946518,87.676926 79.386032C88.237411 78.825562,88.552353 78.065414,88.552353 77.272720Z" style="fill: rgb(100.000000%,100.000000%,100.000000%);stroke: none;"></path>
  <path d="M102.788269 67.246582C102.788269 66.453888,102.473328 65.693741,101.912842 65.133270C101.352371 64.572784,100.592224 64.257843,99.799530 64.257843C99.006836 64.257843,98.246689 64.572784,97.686218 65.133270C97.125732 65.693741,96.810791 66.453888,96.810791 67.246582C96.810791 68.039276,97.125732 68.799423,97.686218 69.359894C98.246689 69.920380,99.006836 70.235321,99.799530 70.235321C100.592224 70.235321,101.352371 69.920380,101.912842 69.359894C102.473328 68.799423,102.788269 68.039276,102.788269 67.246582Z" style="fill: rgb(100.000000%,100.000000%,100.000000%);stroke: none;"></path>
  <path d="M97.271820 71.872971C97.271820 71.080276,96.956879 70.320129,96.396393 69.759659C95.835922 69.199173,95.075775 68.884232,94.283081 68.884232C93.490387 68.884232,92.730240 69.199173,92.169769 69.759659C91.609283 70.320129,91.294342 71.080276,91.294342 71.872971C91.294342 72.665665,91.609283 73.425812,92.169769 73.986282C92.730240 74.546768,93.490387 74.861710,94.283081 74.861710C95.075775 74.861710,95.835922 74.546768,96.396393 73.986282C96.956879 73.425812,97.271820 72.665665,97.271820 71.872971Z" style="fill: rgb(100.000000%,100.000000%,100.000000%);stroke: none;"></path>
  <path d="M108.902359 58.311539C108.902359 57.518845,108.587418 56.758698,108.026932 56.198227C107.466461 55.637741,106.706314 55.322800,105.913620 55.322800C105.120926 55.322800,104.360779 55.637741,103.800308 56.198227C103.239822 56.758698,102.924881 57.518845,102.924881 58.311539C102.924881 59.104233,103.239822 59.864380,103.800308 60.424850C104.360779 60.985336,105.120926 61.300278,105.913620 61.300278C106.706314 61.300278,107.466461 60.985336,108.026932 60.424850C108.587418 59.864380,108.902359 59.104233,108.902359 58.311539Z" style="fill: rgb(100.000000%,100.000000%,100.000000%);stroke: none;"></path>
  <path d="M106.083191 65.160492C106.083191 64.367798,105.768250 63.607651,105.207764 63.047180C104.647293 62.486694,103.887146 62.171753,103.094452 62.171753C102.301758 62.171753,101.541611 62.486694,100.981140 63.047180C100.420654 63.607651,100.105713 64.367798,100.105713 65.160492C100.105713 65.953186,100.420654 66.713333,100.981140 67.273804C101.541611 67.834290,102.301758 68.149231,103.094452 68.149231C103.887146 68.149231,104.647293 67.834290,105.207764 67.273804C105.768250 66.713333,106.083191 65.953186,106.083191 65.160492Z" style="fill: rgb(100.000000%,100.000000%,100.000000%);stroke: none;"></path>
  <path d="M106.078842 46.373352C106.078842 45.580658,105.763901 44.820511,105.203415 44.260040C104.642944 43.699554,103.882797 43.384613,103.090103 43.384613C102.297409 43.384613,101.537262 43.699554,100.976791 44.260040C100.416306 44.820511,100.101364 45.580658,100.101364 46.373352C100.101364 47.166046,100.416306 47.926193,100.976791 48.486664C101.537262 49.047150,102.297409 49.362091,103.090103 49.362091C103.882797 49.362091,104.642944 49.047150,105.203415 48.486664C105.763901 47.926193,106.078842 47.166046,106.078842 46.373352Z" style="fill: rgb(100.000000%,100.000000%,100.000000%);stroke: none;"></path>
  <path d="M108.086472 54.551056C108.086472 53.758362,107.771530 52.998215,107.211044 52.437744C106.650574 51.877258,105.890427 51.562317,105.097733 51.562317C104.305038 51.562317,103.544891 51.877258,102.984421 52.437744C102.423935 52.998215,102.108994 53.758362,102.108994 54.551056C102.108994 55.343750,102.423935 56.103897,102.984421 56.664368C103.544891 57.224854,104.305038 57.539795,105.097733 57.539795C105.890427 57.539795,106.650574 57.224854,107.211044 56.664368C107.771530 56.103897,108.086472 55.343750,108.086472 54.551056Z" style="fill: rgb(100.000000%,100.000000%,100.000000%);stroke: none;"></path>
  <path d="M98.867233 28.209518C98.867233 27.416824,98.552292 26.656677,97.991806 26.096207C97.431335 25.535721,96.671188 25.220779,95.878494 25.220779C95.085800 25.220779,94.325653 25.535721,93.765182 26.096207C93.204697 26.656677,92.889755 27.416824,92.889755 28.209518C92.889755 29.002213,93.204697 29.762360,93.765182 30.322830C94.325653 30.883316,95.085800 31.198257,95.878494 31.198257C96.671188 31.198257,97.431335 30.883316,97.991806 30.322830C98.552292 29.762360,98.867233 29.002213,98.867233 28.209518Z" style="fill: rgb(100.000000%,100.000000%,100.000000%);stroke: none;"></path>
  <path d="M104.883728 41.767197C104.883728 40.974503,104.568787 40.214355,104.008301 39.653885C103.447830 39.093399,102.687683 38.778458,101.894989 38.778458C101.102295 38.778458,100.342148 39.093399,99.781677 39.653885C99.221191 40.214355,98.906250 40.974503,98.906250 41.767197C98.906250 42.559891,99.221191 43.320038,99.781677 43.880508C100.342148 44.440994,101.102295 44.755936,101.894989 44.755936C102.687683 44.755936,103.447830 44.440994,104.008301 43.880508C104.568787 43.320038,104.883728 42.559891,104.883728 41.767197Z" style="fill: rgb(100.000000%,100.000000%,100.000000%);stroke: none;"></path>
  <path d="M63.731812 10.219894C63.731812 9.427200,63.416870 8.667053,62.856384 8.106583C62.295914 7.546097,61.535767 7.231155,60.743073 7.231155C59.950378 7.231155,59.190231 7.546097,58.629761 8.106583C58.069275 8.667053,57.754333 9.427200,57.754333 10.219894C57.754333 11.012589,58.069275 11.772736,58.629761 12.333206C59.190231 12.893692,59.950378 13.208633,60.743073 13.208633C61.535767 13.208633,62.295914 12.893692,62.856384 12.333206C63.416870 11.772736,63.731812 11.012589,63.731812 10.219894Z" style="fill: rgb(100.000000%,100.000000%,100.000000%);stroke: none;"></path>
  <path d="M91.652359 20.598907C91.652359 19.806213,91.337418 19.046066,90.776932 18.485596C90.216461 17.925110,89.456314 17.610168,88.663620 17.610168C87.870926 17.610168,87.110779 17.925110,86.550308 18.485596C85.989822 19.046066,85.674881 19.806213,85.674881 20.598907C85.674881 21.391602,85.989822 22.151749,86.550308 22.712219C87.110779 23.272705,87.870926 23.587646,88.663620 23.587646C89.456314 23.587646,90.216461 23.272705,90.776932 22.712219C91.337418 22.151749,91.652359 21.391602,91.652359 20.598907Z" style="fill: rgb(100.000000%,100.000000%,100.000000%);stroke: none;"></path>
  <path d="M16.644836 48.880371C16.644836 48.087677,16.329895 47.327530,15.769409 46.767059C15.208939 46.206573,14.448792 45.891632,13.656097 45.891632C12.863403 45.891632,12.103256 46.206573,11.542786 46.767059C10.982300 47.327530,10.667358 48.087677,10.667358 48.880371C10.667358 49.673065,10.982300 50.433212,11.542786 50.993683C12.103256 51.554169,12.863403 51.869110,13.656097 51.869110C14.448792 51.869110,15.208939 51.554169,15.769409 50.993683C16.329895 50.433212,16.644836 49.673065,16.644836 48.880371Z" style="fill: rgb(100.000000%,100.000000%,100.000000%);stroke: none;"></path>
  <path d="M44.146347 19.837662C44.146347 19.044968,43.831406 18.284821,43.270920 17.724350C42.710449 17.163864,41.950302 16.848923,41.157608 16.848923C40.364914 16.848923,39.604767 17.163864,39.044296 17.724350C38.483810 18.284821,38.168869 19.044968,38.168869 19.837662C38.168869 20.630356,38.483810 21.390503,39.044296 21.950974C39.604767 22.511459,40.364914 22.826401,41.157608 22.826401C41.950302 22.826401,42.710449 22.511459,43.270920 21.950974C43.831406 21.390503,44.146347 20.630356,44.146347 19.837662Z" style="fill: rgb(100.000000%,100.000000%,100.000000%);stroke: none;"></path>
  <path d="M27.722900 96.277802C27.722900 95.485107,27.407959 94.724960,26.847473 94.164490C26.287003 93.604004,25.526855 93.289062,24.734161 93.289062C23.941467 93.289062,23.181320 93.604004,22.620850 94.164490C22.060364 94.724960,21.745422 95.485107,21.745422 96.277802C21.745422 97.070496,22.060364 97.830643,22.620850 98.391113C23.181320 98.951599,23.941467 99.266541,24.734161 99.266541C25.526855 99.266541,26.287003 98.951599,26.847473 98.391113C27.407959 97.830643,27.722900 97.070496,27.722900 96.277802Z" style="fill: rgb(100.000000%,100.000000%,100.000000%);stroke: none;"></path>
  <path d="M8.917297 69.107849C8.917297 68.315155,8.602356 67.555008,8.041870 66.994537C7.481400 66.434052,6.721252 66.119110,5.928558 66.119110C5.135864 66.119110,4.375717 66.434052,3.815247 66.994537C3.254761 67.555008,2.939819 68.315155,2.939819 69.107849C2.939819 69.900543,3.254761 70.660690,3.815247 71.221161C4.375717 71.781647,5.135864 72.096588,5.928558 72.096588C6.721252 72.096588,7.481400 71.781647,8.041870 71.221161C8.602356 70.660690,8.917297 69.900543,8.917297 69.107849Z" style="fill: rgb(100.000000%,100.000000%,100.000000%);stroke: none;"></path>
  <path d="M65.610123 101.278595C65.610123 100.485901,65.295181 99.725754,64.734695 99.165283C64.174225 98.604797,63.414078 98.289856,62.621384 98.289856C61.828690 98.289856,61.068542 98.604797,60.508072 99.165283C59.947586 99.725754,59.632645 100.485901,59.632645 101.278595C59.632645 102.071289,59.947586 102.831436,60.508072 103.391907C61.068542 103.952393,61.828690 104.267334,62.621384 104.267334C63.414078 104.267334,64.174225 103.952393,64.734695 103.391907C65.295181 102.831436,65.610123 102.071289,65.610123 101.278595Z" style="fill: rgb(100.000000%,100.000000%,100.000000%);stroke: none;"></path>
  <path d="M43.132401 98.483749C43.132401 97.691055,42.817459 96.930908,42.256973 96.370438C41.696503 95.809952,40.936356 95.495010,40.143661 95.495010C39.350967 95.495010,38.590820 95.809952,38.030350 96.370438C37.469864 96.930908,37.154922 97.691055,37.154922 98.483749C37.154922 99.276443,37.469864 100.036591,38.030350 100.597061C38.590820 101.157547,39.350967 101.472488,40.143661 101.472488C40.936356 101.472488,41.696503 101.157547,42.256973 100.597061C42.817459 100.036591,43.132401 99.276443,43.132401 98.483749Z" style="fill: rgb(100.000000%,100.000000%,100.000000%);stroke: none;"></path>
  <path d="M89.355743 103.254120C89.355743 102.461426,89.040802 101.701279,88.480316 101.140808C87.919846 100.580322,87.159698 100.265381,86.367004 100.265381C85.574310 100.265381,84.814163 100.580322,84.253693 101.140808C83.693207 101.701279,83.378265 102.461426,83.378265 103.254120C83.378265 104.046814,83.693207 104.806961,84.253693 105.367432C84.814163 105.927917,85.574310 106.242859,86.367004 106.242859C87.159698 106.242859,87.919846 105.927917,88.480316 105.367432C89.040802 104.806961,89.355743 104.046814,89.355743 103.254120Z" style="fill: rgb(100.000000%,100.000000%,100.000000%);stroke: none;"></path>
  <path d="M73.767990 102.437988C73.767990 101.645294,73.453049 100.885147,72.892563 100.324677C72.332092 99.764191,71.571945 99.449249,70.779251 99.449249C69.986557 99.449249,69.226410 99.764191,68.665939 100.324677C68.105453 100.885147,67.790512 101.645294,67.790512 102.437988C67.790512 103.230682,68.105453 103.990829,68.665939 104.551300C69.226410 105.111786,69.986557 105.426727,70.779251 105.426727C71.571945 105.426727,72.332092 105.111786,72.892563 104.551300C73.453049 103.990829,73.767990 103.230682,73.767990 102.437988Z" style="fill: rgb(100.000000%,100.000000%,100.000000%);stroke: none;"></path>
  <path d="M110.765610 98.862213C110.765610 98.069519,110.450668 97.309372,109.890182 96.748901C109.329712 96.188416,108.569565 95.873474,107.776871 95.873474C106.984177 95.873474,106.224030 96.188416,105.663559 96.748901C105.103073 97.309372,104.788132 98.069519,104.788132 98.862213C104.788132 99.654907,105.103073 100.415054,105.663559 100.975525C106.224030 101.536011,106.984177 101.850952,107.776871 101.850952C108.569565 101.850952,109.329712 101.536011,109.890182 100.975525C110.450668 100.415054,110.765610 99.654907,110.765610 98.862213Z" style="fill: rgb(100.000000%,100.000000%,100.000000%);stroke: none;"></path>
  <path d="M96.802719 103.044556C96.802719 102.251862,96.487778 101.491714,95.927292 100.931244C95.366821 100.370758,94.606674 100.055817,93.813980 100.055817C93.021286 100.055817,92.261139 100.370758,91.700668 100.931244C91.140182 101.491714,90.825241 102.251862,90.825241 103.044556C90.825241 103.837250,91.140182 104.597397,91.700668 105.157867C92.261139 105.718353,93.021286 106.033295,93.813980 106.033295C94.606674 106.033295,95.366821 105.718353,95.927292 105.157867C96.487778 104.597397,96.802719 103.837250,96.802719 103.044556Z" style="fill: rgb(100.000000%,100.000000%,100.000000%);stroke: none;"></path>
  <path d="M129.340332 86.216904C129.340332 85.424210,129.025391 84.664062,128.464905 84.103592C127.904434 83.543106,127.144287 83.228165,126.351593 83.228165C125.558899 83.228165,124.798752 83.543106,124.238281 84.103592C123.677795 84.664062,123.362854 85.424210,123.362854 86.216904C123.362854 87.009598,123.677795 87.769745,124.238281 88.330215C124.798752 88.890701,125.558899 89.205643,126.351593 89.205643C127.144287 89.205643,127.904434 88.890701,128.464905 88.330215C129.025391 87.769745,129.340332 87.009598,129.340332 86.216904Z" style="fill: rgb(100.000000%,100.000000%,100.000000%);stroke: none;"></path>
  <path d="M116.959076 95.087906C116.959076 94.295212,116.644135 93.535065,116.083649 92.974594C115.523178 92.414108,114.763031 92.099167,113.970337 92.099167C113.177643 92.099167,112.417496 92.414108,111.857025 92.974594C111.296539 93.535065,110.981598 94.295212,110.981598 95.087906C110.981598 95.880600,111.296539 96.640747,111.857025 97.201218C112.417496 97.761703,113.177643 98.076645,113.970337 98.076645C114.763031 98.076645,115.523178 97.761703,116.083649 97.201218C116.644135 96.640747,116.959076 95.880600,116.959076 95.087906Z" style="fill: rgb(100.000000%,100.000000%,100.000000%);stroke: none;"></path>
  <path d="M152.304581 68.196411C152.304581 67.403717,151.989639 66.643570,151.429153 66.083099C150.868683 65.522614,150.108536 65.207672,149.315842 65.207672C148.523148 65.207672,147.763000 65.522614,147.202530 66.083099C146.642044 66.643570,146.327103 67.403717,146.327103 68.196411C146.327103 68.989105,146.642044 69.749252,147.202530 70.309723C147.763000 70.870209,148.523148 71.185150,149.315842 71.185150C150.108536 71.185150,150.868683 70.870209,151.429153 70.309723C151.989639 69.749252,152.304581 68.989105,152.304581 68.196411Z" style="fill: rgb(100.000000%,100.000000%,100.000000%);stroke: none;"></path>
  <path d="M135.479416 81.002426C135.479416 80.209732,135.164474 79.449585,134.603989 78.889114C134.043518 78.328629,133.283371 78.013687,132.490677 78.013687C131.697983 78.013687,130.937836 78.328629,130.377365 78.889114C129.816879 79.449585,129.501938 80.209732,129.501938 81.002426C129.501938 81.795120,129.816879 82.555267,130.377365 83.115738C130.937836 83.676224,131.697983 83.991165,132.490677 83.991165C133.283371 83.991165,134.043518 83.676224,134.603989 83.115738C135.164474 82.555267,135.479416 81.795120,135.479416 81.002426Z" style="fill: rgb(100.000000%,100.000000%,100.000000%);stroke: none;"></path>
  <path d="M167.730087 29.164139C167.730087 28.371445,167.415146 27.611298,166.854660 27.050827C166.294189 26.490341,165.534042 26.175400,164.741348 26.175400C163.948654 26.175400,163.188507 26.490341,162.628036 27.050827C162.067551 27.611298,161.752609 28.371445,161.752609 29.164139C161.752609 29.956833,162.067551 30.716980,162.628036 31.277451C163.188507 31.837936,163.948654 32.152878,164.741348 32.152878C165.534042 32.152878,166.294189 31.837936,166.854660 31.277451C167.415146 30.716980,167.730087 29.956833,167.730087 29.164139Z" style="fill: rgb(100.000000%,100.000000%,100.000000%);stroke: none;"></path>
  <path d="M163.903595 60.010330C163.903595 59.217636,163.588654 58.457489,163.028168 57.897018C162.467697 57.336533,161.707550 57.021591,160.914856 57.021591C160.122162 57.021591,159.362015 57.336533,158.801544 57.897018C158.241058 58.457489,157.926117 59.217636,157.926117 60.010330C157.926117 60.803024,158.241058 61.563171,158.801544 62.123642C159.362015 62.684128,160.122162 62.999069,160.914856 62.999069C161.707550 62.999069,162.467697 62.684128,163.028168 62.123642C163.588654 61.563171,163.903595 60.803024,163.903595 60.010330Z" style="fill: rgb(100.000000%,100.000000%,100.000000%);stroke: none;"></path>
  <path d="M114.855835 3.446182C114.855835 2.653488,114.540894 1.893341,113.980408 1.332870C113.419937 0.772385,112.659790 0.457443,111.867096 0.457443C111.074402 0.457443,110.314255 0.772385,109.753784 1.332870C109.193298 1.893341,108.878357 2.653488,108.878357 3.446182C108.878357 4.238876,109.193298 4.999023,109.753784 5.559494C110.314255 6.119980,111.074402 6.434921,111.867096 6.434921C112.659790 6.434921,113.419937 6.119980,113.980408 5.559494C114.540894 4.999023,114.855835 4.238876,114.855835 3.446182Z" style="fill: rgb(100.000000%,100.000000%,100.000000%);stroke: none;"></path>
  <path d="M151.224060 16.111847C151.224060 15.319153,150.909119 14.559006,150.348633 13.998535C149.788162 13.438049,149.028015 13.123108,148.235321 13.123108C147.442627 13.123108,146.682480 13.438049,146.122009 13.998535C145.561523 14.559006,145.246582 15.319153,145.246582 16.111847C145.246582 16.904541,145.561523 17.664688,146.122009 18.225159C146.682480 18.785645,147.442627 19.100586,148.235321 19.100586C149.028015 19.100586,149.788162 18.785645,150.348633 18.225159C150.909119 17.664688,151.224060 16.904541,151.224060 16.111847Z" style="fill: rgb(100.000000%,100.000000%,100.000000%);stroke: none;"></path>
  <path d="M75.979645 24.784393C75.979645 23.991699,75.664703 23.231552,75.104218 22.671082C74.543747 22.110596,73.783600 21.795654,72.990906 21.795654C72.198212 21.795654,71.438065 22.110596,70.877594 22.671082C70.317108 23.231552,70.002167 23.991699,70.002167 24.784393C70.002167 25.577087,70.317108 26.337234,70.877594 26.897705C71.438065 27.458191,72.198212 27.773132,72.990906 27.773132C73.783600 27.773132,74.543747 27.458191,75.104218 26.897705C75.664703 26.337234,75.979645 25.577087,75.979645 24.784393Z" style="fill: rgb(100.000000%,100.000000%,100.000000%);stroke: none;"></path>
  <path d="M93.868759 2.667648C93.868759 1.874954,93.553818 1.114807,92.993332 0.554337C92.432861 -0.006149,91.672714 -0.321091,90.880020 -0.321091C90.087326 -0.321091,89.327179 -0.006149,88.766708 0.554337C88.206223 1.114807,87.891281 1.874954,87.891281 2.667648C87.891281 3.460342,88.206223 4.220490,88.766708 4.780960C89.327179 5.341446,90.087326 5.656387,90.880020 5.656387C91.672714 5.656387,92.432861 5.341446,92.993332 4.780960C93.553818 4.220490,93.868759 3.460342,93.868759 2.667648Z" style="fill: rgb(100.000000%,100.000000%,100.000000%);stroke: none;"></path>
  <path d="M80.614517 48.856186C80.614517 48.063492,80.299576 47.303345,79.739090 46.742874C79.178619 46.182388,78.418472 45.867447,77.625778 45.867447C76.833084 45.867447,76.072937 46.182388,75.512466 46.742874C74.951981 47.303345,74.637039 48.063492,74.637039 48.856186C74.637039 49.648880,74.951981 50.409027,75.512466 50.969498C76.072937 51.529984,76.833084 51.844925,77.625778 51.844925C78.418472 51.844925,79.178619 51.529984,79.739090 50.969498C80.299576 50.409027,80.614517 49.648880,80.614517 48.856186Z" style="fill: rgb(100.000000%,100.000000%,100.000000%);stroke: none;"></path>
  <path d="M74.559967 35.317947C74.559967 34.525253,74.245026 33.765106,73.684540 33.204636C73.124069 32.644150,72.363922 32.329208,71.571228 32.329208C70.778534 32.329208,70.018387 32.644150,69.457916 33.204636C68.897430 33.765106,68.582489 34.525253,68.582489 35.317947C68.582489 36.110641,68.897430 36.870789,69.457916 37.431259C70.018387 37.991745,70.778534 38.306686,71.571228 38.306686C72.363922 38.306686,73.124069 37.991745,73.684540 37.431259C74.245026 36.870789,74.559967 36.110641,74.559967 35.317947Z" style="fill: rgb(100.000000%,100.000000%,100.000000%);stroke: none;"></path>
  <path d="M88.564240 59.080704C88.564240 58.288010,88.249298 57.527863,87.688812 56.967392C87.128342 56.406906,86.368195 56.091965,85.575500 56.091965C84.782806 56.091965,84.022659 56.406906,83.462189 56.967392C82.901703 57.527863,82.586761 58.288010,82.586761 59.080704C82.586761 59.873398,82.901703 60.633545,83.462189 61.194016C84.022659 61.754501,84.782806 62.069443,85.575500 62.069443C86.368195 62.069443,87.128342 61.754501,87.688812 61.194016C88.249298 60.633545,88.564240 59.873398,88.564240 59.080704Z" style="fill: rgb(100.000000%,100.000000%,100.000000%);stroke: none;"></path>
  <path d="M83.890854 52.619415C83.890854 51.826721,83.575912 51.066574,83.015427 50.506104C82.454956 49.945618,81.694809 49.630676,80.902115 49.630676C80.109421 49.630676,79.349274 49.945618,78.788803 50.506104C78.228317 51.066574,77.913376 51.826721,77.913376 52.619415C77.913376 53.412109,78.228317 54.172256,78.788803 54.732727C79.349274 55.293213,80.109421 55.608154,80.902115 55.608154C81.694809 55.608154,82.454956 55.293213,83.015427 54.732727C83.575912 54.172256,83.890854 53.412109,83.890854 52.619415Z" style="fill: rgb(100.000000%,100.000000%,100.000000%);stroke: none;"></path>
  <path d="M94.629410 66.078140C94.629410 65.285446,94.314468 64.525299,93.753983 63.964828C93.193512 63.404343,92.433365 63.089401,91.640671 63.089401C90.847977 63.089401,90.087830 63.404343,89.527359 63.964828C88.966873 64.525299,88.651932 65.285446,88.651932 66.078140C88.651932 66.870834,88.966873 67.630981,89.527359 68.191452C90.087830 68.751938,90.847977 69.066879,91.640671 69.066879C92.433365 69.066879,93.193512 68.751938,93.753983 68.191452C94.314468 67.630981,94.629410 66.870834,94.629410 66.078140Z" style="fill: rgb(100.000000%,100.000000%,100.000000%);stroke: none;"></path>
  <path d="M90.219345 61.663361C90.219345 60.870667,89.904404 60.110519,89.343918 59.550049C88.783447 58.989563,88.023300 58.674622,87.230606 58.674622C86.437912 58.674622,85.677765 58.989563,85.117294 59.550049C84.556808 60.110519,84.241867 60.870667,84.241867 61.663361C84.241867 62.456055,84.556808 63.216202,85.117294 63.776672C85.677765 64.337158,86.437912 64.652100,87.230606 64.652100C88.023300 64.652100,88.783447 64.337158,89.343918 63.776672C89.904404 63.216202,90.219345 62.456055,90.219345 61.663361Z" style="fill: rgb(100.000000%,100.000000%,100.000000%);stroke: none;"></path>
  <path d="M103.835403 72.378220C103.835403 71.585526,103.520462 70.825378,102.959976 70.264908C102.399506 69.704422,101.639359 69.389481,100.846664 69.389481C100.053970 69.389481,99.293823 69.704422,98.733353 70.264908C98.172867 70.825378,97.857925 71.585526,97.857925 72.378220C97.857925 73.170914,98.172867 73.931061,98.733353 74.491531C99.293823 75.052017,100.053970 75.366959,100.846664 75.366959C101.639359 75.366959,102.399506 75.052017,102.959976 74.491531C103.520462 73.931061,103.835403 73.170914,103.835403 72.378220Z" style="fill: rgb(100.000000%,100.000000%,100.000000%);stroke: none;"></path>
  <path d="M97.347092 67.786667C97.347092 66.993973,97.032150 66.233826,96.471664 65.673355C95.911194 65.112869,95.151047 64.797928,94.358353 64.797928C93.565659 64.797928,92.805511 65.112869,92.245041 65.673355C91.684555 66.233826,91.369614 66.993973,91.369614 67.786667C91.369614 68.579361,91.684555 69.339508,92.245041 69.899979C92.805511 70.460464,93.565659 70.775406,94.358353 70.775406C95.151047 70.775406,95.911194 70.460464,96.471664 69.899979C97.032150 69.339508,97.347092 68.579361,97.347092 67.786667Z" style="fill: rgb(100.000000%,100.000000%,100.000000%);stroke: none;"></path>
  <path d="M115.161179 82.512299C115.161179 81.719604,114.846237 80.959457,114.285751 80.398987C113.725281 79.838501,112.965134 79.523560,112.172440 79.523560C111.379745 79.523560,110.619598 79.838501,110.059128 80.398987C109.498642 80.959457,109.183701 81.719604,109.183701 82.512299C109.183701 83.304993,109.498642 84.065140,110.059128 84.625610C110.619598 85.186096,111.379745 85.501038,112.172440 85.501038C112.965134 85.501038,113.725281 85.186096,114.285751 84.625610C114.846237 84.065140,115.161179 83.304993,115.161179 82.512299Z" style="fill: rgb(100.000000%,100.000000%,100.000000%);stroke: none;"></path>
  <path d="M107.485107 75.443817C107.485107 74.651123,107.170166 73.890976,106.609680 73.330505C106.049210 72.770020,105.289062 72.455078,104.496368 72.455078C103.703674 72.455078,102.943527 72.770020,102.383057 73.330505C101.822571 73.890976,101.507629 74.651123,101.507629 75.443817C101.507629 76.236511,101.822571 76.996658,102.383057 77.557129C102.943527 78.117615,103.703674 78.432556,104.496368 78.432556C105.289062 78.432556,106.049210 78.117615,106.609680 77.557129C107.170166 76.996658,107.485107 76.236511,107.485107 75.443817Z" style="fill: rgb(100.000000%,100.000000%,100.000000%);stroke: none;"></path>
  <path d="M128.386063 97.469879C128.386063 96.677185,128.071121 95.917038,127.510635 95.356567C126.950165 94.796082,126.190018 94.481140,125.397324 94.481140C124.604630 94.481140,123.844482 94.796082,123.284012 95.356567C122.723526 95.917038,122.408585 96.677185,122.408585 97.469879C122.408585 98.262573,122.723526 99.022720,123.284012 99.583191C123.844482 100.143677,124.604630 100.458618,125.397324 100.458618C126.190018 100.458618,126.950165 100.143677,127.510635 99.583191C128.071121 99.022720,128.386063 98.262573,128.386063 97.469879Z" style="fill: rgb(100.000000%,100.000000%,100.000000%);stroke: none;"></path>
  <path d="M119.124146 86.580505C119.124146 85.787811,118.809204 85.027664,118.248718 84.467194C117.688248 83.906708,116.928101 83.591766,116.135406 83.591766C115.342712 83.591766,114.582565 83.906708,114.022095 84.467194C113.461609 85.027664,113.146667 85.787811,113.146667 86.580505C113.146667 87.373199,113.461609 88.133347,114.022095 88.693817C114.582565 89.254303,115.342712 89.569244,116.135406 89.569244C116.928101 89.569244,117.688248 89.254303,118.248718 88.693817C118.809204 88.133347,119.124146 87.373199,119.124146 86.580505Z" style="fill: rgb(100.000000%,100.000000%,100.000000%);stroke: none;"></path>
  <path d="M150.437088 120.822845C150.437088 120.030151,150.122147 119.270004,149.561661 118.709534C149.001190 118.149048,148.241043 117.834106,147.448349 117.834106C146.655655 117.834106,145.895508 118.149048,145.335037 118.709534C144.774551 119.270004,144.459610 120.030151,144.459610 120.822845C144.459610 121.615540,144.774551 122.375687,145.335037 122.936157C145.895508 123.496643,146.655655 123.811584,147.448349 123.811584C148.241043 123.811584,149.001190 123.496643,149.561661 122.936157C150.122147 122.375687,150.437088 121.615540,150.437088 120.822845Z" style="fill: rgb(100.000000%,100.000000%,100.000000%);stroke: none;"></path>
  <path d="M133.310165 104.621918C133.310165 103.829224,132.995224 103.069077,132.434738 102.508606C131.874268 101.948120,131.114120 101.633179,130.321426 101.633179C129.528732 101.633179,128.768585 101.948120,128.208115 102.508606C127.647629 103.069077,127.332687 103.829224,127.332687 104.621918C127.332687 105.414612,127.647629 106.174759,128.208115 106.735229C128.768585 107.295715,129.528732 107.610657,130.321426 107.610657C131.114120 107.610657,131.874268 107.295715,132.434738 106.735229C132.995224 106.174759,133.310165 105.414612,133.310165 104.621918Z" style="fill: rgb(100.000000%,100.000000%,100.000000%);stroke: none;"></path>
  <path d="M173.128525 161.894547C173.128525 161.101852,172.813583 160.341705,172.253098 159.781235C171.692627 159.220749,170.932480 158.905807,170.139786 158.905807C169.347092 158.905807,168.586945 159.220749,168.026474 159.781235C167.465988 160.341705,167.151047 161.101852,167.151047 161.894547C167.151047 162.687241,167.465988 163.447388,168.026474 164.007858C168.586945 164.568344,169.347092 164.883286,170.139786 164.883286C170.932480 164.883286,171.692627 164.568344,172.253098 164.007858C172.813583 163.447388,173.128525 162.687241,173.128525 161.894547Z" style="fill: rgb(100.000000%,100.000000%,100.000000%);stroke: none;"></path>
  <path d="M165.486465 128.160034C165.486465 127.367340,165.171524 126.607193,164.611038 126.046722C164.050568 125.486237,163.290421 125.171295,162.497726 125.171295C161.705032 125.171295,160.944885 125.486237,160.384415 126.046722C159.823929 126.607193,159.508987 127.367340,159.508987 128.160034C159.508987 128.952728,159.823929 129.712875,160.384415 130.273346C160.944885 130.833832,161.705032 131.148773,162.497726 131.148773C163.290421 131.148773,164.050568 130.833832,164.611038 130.273346C165.171524 129.712875,165.486465 128.952728,165.486465 128.160034Z" style="fill: rgb(100.000000%,100.000000%,100.000000%);stroke: none;"></path>
  <path d="M136.499359 188.318451C115.318069 202.129929,86.801193 192.052979,79.000000 168.000000C74.684341 154.693741,78.911911 140.605667,79.427185 126.710571C79.721939 118.762024,78.774490 110.818802,79.000000 102.868408C79.132584 98.194138,79.670486 93.530640,79.505295 88.856003C79.379425 85.294373,78.845657 81.754486,78.842392 78.189987C78.840652 76.285233,78.909485 74.231979,77.586929 72.865845C75.940933 71.165619,73.327423 71.576096,70.953918 71.921600C65.006393 72.787384,58.977341 72.234344,52.973068 72.178833C39.551239 72.054733,25.699005 74.725388,16.576401 84.491638C2.550415 99.507233,5.438080 122.598465,16.641953 140.761627C30.435776 163.123489,55.594025 177.259277,79.000000 168.000000C93.446594 162.285004,102.940018 147.713959,117.959213 143.458466C133.583710 139.031464,150.193039 147.238266,165.837616 142.903366C186.559296 137.161667,196.690613 114.817352,195.103745 92.500671C193.623657 71.685684,182.246429 52.078308,162.522705 47.049118C149.890610 43.828156,136.980530 48.116058,124.103058 49.657684C117.505188 50.447540,110.847366 50.501709,104.220581 50.978119C100.500717 51.245544,96.774719 51.649261,93.206268 52.740875C89.956604 53.734985,86.913635 55.278381,83.789551 56.611496C80.192734 58.146332,76.340500 59.525696,74.022354 62.690979C72.077072 65.347122,71.652725 68.716125,70.953918 71.921600C70.467209 74.154190,69.996216 76.636414,71.611633 78.183212C73.480408 79.972610,76.298523 78.915558,78.842392 78.189987C82.083786 77.265457,85.563614 77.272720,88.662201 75.928314C91.876892 74.533524,94.283081 71.872971,96.960129 69.627853C99.799530 67.246582,103.094452 65.160492,104.511673 61.717453C105.913620 58.311539,105.097733 54.551056,104.220581 50.978119C103.090103 46.373352,101.894989 41.767197,99.970779 37.431152C95.878494 28.209518,88.663620 20.598907,79.216782 17.087204C60.743073 10.219894,41.157608 19.837662,27.267120 34.506577C13.656097 48.880371,5.928558 69.107849,16.576401 84.491638C24.734161 96.277802,40.143661 98.483749,54.453491 100.263016C62.621384 101.278595,70.779251 102.437988,79.000000 102.868408C86.367004 103.254120,93.813980 103.044556,100.887131 100.925919C107.776871 98.862213,113.970337 95.087906,119.811630 90.902695C126.351593 86.216904,132.490677 81.002426,138.892136 76.130142C149.315842 68.196411,160.914856 60.010330,162.522705 47.049118C164.741348 29.164139,148.235321 16.111847,130.085922 9.791107C111.867096 3.446182,90.880020 2.667648,79.216782 17.087204C72.990906 24.784393,71.571228 35.317947,75.611374 44.351883C77.625778 48.856186,80.902115 52.619415,83.789551 56.611496C85.575500 59.080704,87.230606 61.663361,89.386063 63.821121C91.640671 66.078140,94.358353 67.786667,96.960129 69.627853C100.846664 72.378220,104.496368 75.443817,107.998535 78.668777C112.172440 82.512299,116.135406 86.580505,119.811630 90.902695C125.397324 97.469879,130.321426 104.621918,136.588821 110.550461C147.448349 120.822845,162.497726 128.160034,165.837616 142.903366C170.139786 161.894547,153.607422 177.162964,136.499359 188.318451" style="stroke:rgb(0.000000%,0.000000%,0.000000%); stroke-width: 0.498138;stroke-linecap: round;stroke-linejoin: round;stroke-miterlimit: 10.000000;fill: none;"></path>
  <path d="M136.499359 188.318451C115.318069 202.129929,86.801193 192.052979,79.000000 168.000000" style="stroke:rgb(0.000000%,0.000000%,0.000000%); stroke-width: 1.494400;stroke-linecap: round;stroke-linejoin: round;stroke-miterlimit: 10.000000;fill: none;"></path>
  <path d="M119.811630 90.902695C125.397324 97.469879,130.321426 104.621918,136.588821 110.550461C147.448349 120.822845,162.497726 128.160034,165.837616 142.903366C170.139786 161.894547,153.607422 177.162964,136.499359 188.318451" style="stroke:rgb(0.000000%,0.000000%,0.000000%); stroke-width: 1.494400;stroke-linecap: round;stroke-linejoin: round;stroke-miterlimit: 10.000000;fill: none;"></path>
  <path d="M81.988739 168.000000C81.988739 167.207306,81.673798 166.447159,81.113312 165.886688C80.552841 165.326202,79.792694 165.011261,79.000000 165.011261C78.207306 165.011261,77.447159 165.326202,76.886688 165.886688C76.326202 166.447159,76.011261 167.207306,76.011261 168.000000C76.011261 168.792694,76.326202 169.552841,76.886688 170.113312C77.447159 170.673798,78.207306 170.988739,79.000000 170.988739C79.792694 170.988739,80.552841 170.673798,81.113312 170.113312C81.673798 169.552841,81.988739 168.792694,81.988739 168.000000Z" style="fill: rgb(100.000000%,100.000000%,100.000000%);stroke: none;"></path>
  <path d="M44.216431 166.238754C55.155960 171.410522,67.297012 172.629639,79.000000 168.000000C86.223297 165.142502,92.208313 160.070984,98.264893 155.181915" style="stroke:rgb(0.000000%,0.000000%,0.000000%); stroke-width: 0.498138;stroke-linecap: round;stroke-linejoin: round;stroke-miterlimit: 10.000000;fill: none;"></path>
  <path d="M81.831131 78.189987C81.831131 77.397293,81.516190 76.637146,80.955704 76.076675C80.395233 75.516190,79.635086 75.201248,78.842392 75.201248C78.049698 75.201248,77.289551 75.516190,76.729080 76.076675C76.168594 76.637146,75.853653 77.397293,75.853653 78.189987C75.853653 78.982681,76.168594 79.742828,76.729080 80.303299C77.289551 80.863785,78.049698 81.178726,78.842392 81.178726C79.635086 81.178726,80.395233 80.863785,80.955704 80.303299C81.516190 79.742828,81.831131 78.982681,81.831131 78.189987Z" style="fill: rgb(100.000000%,100.000000%,100.000000%);stroke: none;"></path>
  <path d="M79.127853 83.524063C78.978271 81.748322,78.844025 79.972229,78.842392 78.189987C78.841522 77.237610,78.858307 76.248108,78.709961 75.325928" style="stroke:rgb(0.000000%,0.000000%,0.000000%); stroke-width: 0.498138;stroke-linecap: round;stroke-linejoin: round;stroke-miterlimit: 10.000000;fill: none;"></path>
  <path d="M19.565140 84.491638C19.565140 83.698944,19.250198 82.938797,18.689713 82.378326C18.129242 81.817841,17.369095 81.502899,16.576401 81.502899C15.783707 81.502899,15.023560 81.817841,14.463089 82.378326C13.902603 82.938797,13.587662 83.698944,13.587662 84.491638C13.587662 85.284332,13.902603 86.044479,14.463089 86.604950C15.023560 87.165436,15.783707 87.480377,16.576401 87.480377C17.369095 87.480377,18.129242 87.165436,18.689713 86.604950C19.250198 86.044479,19.565140 85.284332,19.565140 84.491638Z" style="fill: rgb(100.000000%,100.000000%,100.000000%);stroke: none;"></path>
  <path d="M12.824692 59.120361C10.522415 67.896927,11.252487 76.799744,16.576401 84.491638C20.655289 90.384720,26.547104 93.882751,33.207932 96.129929" style="stroke:rgb(0.000000%,0.000000%,0.000000%); stroke-width: 0.498138;stroke-linecap: round;stroke-linejoin: round;stroke-miterlimit: 10.000000;fill: none;"></path>
  <path d="M168.826355 142.903366C168.826355 142.110672,168.511414 141.350525,167.950928 140.790054C167.390457 140.229568,166.630310 139.914627,165.837616 139.914627C165.044922 139.914627,164.284775 140.229568,163.724304 140.790054C163.163818 141.350525,162.848877 142.110672,162.848877 142.903366C162.848877 143.696060,163.163818 144.456207,163.724304 145.016678C164.284775 145.577164,165.044922 145.892105,165.837616 145.892105C166.630310 145.892105,167.390457 145.577164,167.950928 145.016678C168.511414 144.456207,168.826355 143.696060,168.826355 142.903366Z" style="fill: rgb(100.000000%,100.000000%,100.000000%);stroke: none;"></path>
  <path d="M154.033096 125.050323C159.570358 130.011581,164.167679 135.531708,165.837616 142.903366C167.988708 152.398956,164.931152 160.963867,159.197311 168.549301" style="stroke:rgb(0.000000%,0.000000%,0.000000%); stroke-width: 1.494400;stroke-linecap: round;stroke-linejoin: round;stroke-miterlimit: 10.000000;fill: none;"></path>
  <path d="M107.209320 50.978119C107.209320 50.185425,106.894379 49.425278,106.333893 48.864807C105.773422 48.304321,105.013275 47.989380,104.220581 47.989380C103.427887 47.989380,102.667740 48.304321,102.107269 48.864807C101.546783 49.425278,101.231842 50.185425,101.231842 50.978119C101.231842 51.770813,101.546783 52.530960,102.107269 53.091431C102.667740 53.651917,103.427887 53.966858,104.220581 53.966858C105.013275 53.966858,105.773422 53.651917,106.333893 53.091431C106.894379 52.530960,107.209320 51.770813,107.209320 50.978119Z" style="fill: rgb(100.000000%,100.000000%,100.000000%);stroke: none;"></path>
  <path d="M105.220779 56.410400C105.082413 54.597931,104.659149 52.764587,104.220581 50.978119C103.655334 48.675735,103.073929 46.373001,102.393311 44.103851" style="stroke:rgb(0.000000%,0.000000%,0.000000%); stroke-width: 0.498138;stroke-linecap: round;stroke-linejoin: round;stroke-miterlimit: 10.000000;fill: none;"></path>
  <path d="M73.942657 71.921600C73.942657 71.128906,73.627716 70.368759,73.067230 69.808289C72.506760 69.247803,71.746613 68.932861,70.953918 68.932861C70.161224 68.932861,69.401077 69.247803,68.840607 69.808289C68.280121 70.368759,67.965179 71.128906,67.965179 71.921600C67.965179 72.714294,68.280121 73.474442,68.840607 74.034912C69.401077 74.595398,70.161224 74.910339,70.953918 74.910339C71.746613 74.910339,72.506760 74.595398,73.067230 74.034912C73.627716 73.474442,73.942657 72.714294,73.942657 71.921600Z" style="fill: rgb(100.000000%,100.000000%,100.000000%);stroke: none;"></path>
  <path d="M72.020706 67.100296C71.584106 68.675247,71.303314 70.318863,70.953918 71.921600C70.710556 73.037903,70.471130 74.216614,70.494476 75.309601" style="stroke:rgb(0.000000%,0.000000%,0.000000%); stroke-width: 0.498138;stroke-linecap: round;stroke-linejoin: round;stroke-miterlimit: 10.000000;fill: none;"></path>
  <path d="M99.948868 69.627853C99.948868 68.835159,99.633926 68.075012,99.073441 67.514542C98.512970 66.954056,97.752823 66.639114,96.960129 66.639114C96.167435 66.639114,95.407288 66.954056,94.846817 67.514542C94.286331 68.075012,93.971390 68.835159,93.971390 69.627853C93.971390 70.420547,94.286331 71.180695,94.846817 71.741165C95.407288 72.301651,96.167435 72.616592,96.960129 72.616592C97.752823 72.616592,98.512970 72.301651,99.073441 71.741165C99.633926 71.180695,99.948868 70.420547,99.948868 69.627853Z" style="fill: rgb(100.000000%,100.000000%,100.000000%);stroke: none;"></path>
  <path d="M93.042908 66.880432C94.329376 67.819839,95.659241 68.707260,96.960129 69.627853C98.903397 71.003036,100.787460 72.457031,102.623474 73.970352" style="stroke:rgb(0.000000%,0.000000%,0.000000%); stroke-width: 0.498138;stroke-linecap: round;stroke-linejoin: round;stroke-miterlimit: 10.000000;fill: none;"></path>
  <path d="M82.205521 17.087204C82.205521 16.294510,81.890579 15.534363,81.330093 14.973892C80.769623 14.413406,80.009476 14.098465,79.216782 14.098465C78.424088 14.098465,77.663940 14.413406,77.103470 14.973892C76.542984 15.534363,76.228043 16.294510,76.228043 17.087204C76.228043 17.879898,76.542984 18.640045,77.103470 19.200516C77.663940 19.761002,78.424088 20.075943,79.216782 20.075943C80.009476 20.075943,80.769623 19.761002,81.330093 19.200516C81.890579 18.640045,82.205521 17.879898,82.205521 17.087204Z" style="fill: rgb(100.000000%,100.000000%,100.000000%);stroke: none;"></path>
  <path d="M102.192993 5.652481C93.210968 6.467178,85.048401 9.877426,79.216782 17.087204C76.103836 20.935806,74.192444 25.493500,73.564316 30.218277" style="stroke:rgb(0.000000%,0.000000%,0.000000%); stroke-width: 0.498138;stroke-linecap: round;stroke-linejoin: round;stroke-miterlimit: 10.000000;fill: none;"></path>
  <path d="M81.988739 102.868408C81.988739 102.075714,81.673798 101.315567,81.113312 100.755096C80.552841 100.194611,79.792694 99.879669,79.000000 99.879669C78.207306 99.879669,77.447159 100.194611,76.886688 100.755096C76.326202 101.315567,76.011261 102.075714,76.011261 102.868408C76.011261 103.661102,76.326202 104.421249,76.886688 104.981720C77.447159 105.542206,78.207306 105.857147,79.000000 105.857147C79.792694 105.857147,80.552841 105.542206,81.113312 104.981720C81.673798 104.421249,81.988739 103.661102,81.988739 102.868408Z" style="fill: rgb(100.000000%,100.000000%,100.000000%);stroke: none;"></path>
  <path d="M79.239563 114.790176C79.067734 110.817001,78.887253 106.843597,79.000000 102.868408C79.066299 100.531265,79.233917 98.196823,79.364319 95.862335" style="stroke:rgb(0.000000%,0.000000%,0.000000%); stroke-width: 0.498138;stroke-linecap: round;stroke-linejoin: round;stroke-miterlimit: 10.000000;fill: none;"></path>
  <path d="M165.511444 47.049118C165.511444 46.256424,165.196503 45.496277,164.636017 44.935806C164.075546 44.375320,163.315399 44.060379,162.522705 44.060379C161.730011 44.060379,160.969864 44.375320,160.409393 44.935806C159.848907 45.496277,159.533966 46.256424,159.533966 47.049118C159.533966 47.841812,159.848907 48.601959,160.409393 49.162430C160.969864 49.722916,161.730011 50.037857,162.522705 50.037857C163.315399 50.037857,164.075546 49.722916,164.636017 49.162430C165.196503 48.601959,165.511444 47.841812,165.511444 47.049118Z" style="fill: rgb(100.000000%,100.000000%,100.000000%);stroke: none;"></path>
  <path d="M185.654587 63.855209C180.159805 55.722839,172.384567 49.563705,162.522705 47.049118C156.206650 45.438629,149.821106 45.705368,143.404892 46.567429" style="stroke:rgb(0.000000%,0.000000%,0.000000%); stroke-width: 0.498138;stroke-linecap: round;stroke-linejoin: round;stroke-miterlimit: 10.000000;fill: none;"></path>
  <path d="M86.778290 56.611496C86.778290 55.818802,86.463348 55.058655,85.902863 54.498184C85.342392 53.937698,84.582245 53.622757,83.789551 53.622757C82.996857 53.622757,82.236710 53.937698,81.676239 54.498184C81.115753 55.058655,80.800812 55.818802,80.800812 56.611496C80.800812 57.404190,81.115753 58.164337,81.676239 58.724808C82.236710 59.285294,82.996857 59.600235,83.789551 59.600235C84.582245 59.600235,85.342392 59.285294,85.902863 58.724808C86.463348 58.164337,86.778290 57.404190,86.778290 56.611496Z" style="fill: rgb(100.000000%,100.000000%,100.000000%);stroke: none;"></path>
  <path d="M88.450806 54.549072C86.893356 55.225815,85.351593 55.944946,83.789551 56.611496C81.991135 57.378922,80.128876 58.107468,78.426437 59.039825" style="stroke:rgb(0.000000%,0.000000%,0.000000%); stroke-width: 0.498138;stroke-linecap: round;stroke-linejoin: round;stroke-miterlimit: 10.000000;fill: none;"></path>
  <path d="M122.800369 90.902695C122.800369 90.110001,122.485428 89.349854,121.924942 88.789383C121.364471 88.228897,120.604324 87.913956,119.811630 87.913956C119.018936 87.913956,118.258789 88.228897,117.698318 88.789383C117.137833 89.349854,116.822891 90.110001,116.822891 90.902695C116.822891 91.695389,117.137833 92.455536,117.698318 93.016006C118.258789 93.576492,119.018936 93.891434,119.811630 93.891434C120.604324 93.891434,121.364471 93.576492,121.924942 93.016006C122.485428 92.455536,122.800369 91.695389,122.800369 90.902695Z" style="fill: rgb(100.000000%,100.000000%,100.000000%);stroke: none;"></path>
  <path d="M110.742569 96.709854C113.882309 94.985168,116.890991 92.995300,119.811630 90.902695C123.081619 88.559799,126.251389 86.084732,129.403839 83.586349" style="stroke:rgb(0.000000%,0.000000%,0.000000%); stroke-width: 0.498138;stroke-linecap: round;stroke-linejoin: round;stroke-miterlimit: 10.000000;fill: none;"></path>
  <path d="M136.588821 110.550461C145.276474 118.768402,156.645660 125.107788,162.555801 134.863480" style="stroke:rgb(0.000000%,0.000000%,0.000000%); stroke-width: 0.498138;stroke-linecap: round;stroke-linejoin: round;stroke-miterlimit: 10.000000;fill: none;"></path>
  <path d="M158.311935 132.219467C159.794662 133.005783,161.214966 133.878845,162.555801 134.863480C162.303955 133.219116,161.917038 131.597458,161.424637 129.992996Z" style="stroke:rgb(0.000000%,0.000000%,0.000000%); stroke-width: 0.498138;fill: rgb(0.000000%,0.000000%,0.000000%);"></path>
  <path d="M136.588821 110.550461C145.276474 118.768402,156.645660 125.107788,162.555801 134.863480" style="stroke:rgb(0.000000%,0.000000%,0.000000%); stroke-width: 0.498138;stroke-linecap: round;stroke-linejoin: round;stroke-miterlimit: 10.000000;fill: none;"></path>
  <path d="M160.056473 133.204071C160.915817 133.720505,161.750153 134.271851,162.555801 134.863480C162.404480 133.875458,162.204391 132.895615,161.961960 131.922791Z" style="stroke:rgb(0.000000%,0.000000%,0.000000%); stroke-width: 0.498138;fill: rgb(0.000000%,0.000000%,0.000000%);"></path>
  <path d="M79.505295 88.856003C79.404602 86.006683,79.042847 83.171280,78.900497 80.326065" style="stroke:rgb(0.000000%,0.000000%,0.000000%); stroke-width: 0.498138;stroke-linecap: round;stroke-linejoin: round;stroke-miterlimit: 10.000000;fill: none;"></path>
  <path d="M80.239899 83.010452C79.781448 82.121170,79.328735 81.229340,78.900497 80.326065C78.564575 81.267578,78.254074 82.218307,77.949402 83.171280Z" style="stroke:rgb(0.000000%,0.000000%,0.000000%); stroke-width: 0.498138;fill: rgb(0.000000%,0.000000%,0.000000%);"></path>
  <path d="M117.959213 143.458466C130.458862 139.916855,143.588806 144.460922,156.350861 144.200699" style="stroke:rgb(0.000000%,0.000000%,0.000000%); stroke-width: 0.498138;stroke-linecap: round;stroke-linejoin: round;stroke-miterlimit: 10.000000;fill: none;"></path>
  <path d="M153.571518 145.329346C154.509399 144.975739,155.436783 144.601349,156.350861 144.200699C155.421219 143.837646,154.500732 143.446594,153.587509 143.033417Z" style="stroke:rgb(0.000000%,0.000000%,0.000000%); stroke-width: 0.498138;fill: rgb(0.000000%,0.000000%,0.000000%);"></path>
  <path d="M124.103058 49.657684C118.824738 50.289566,113.508057 50.450607,108.199585 50.733673" style="stroke:rgb(0.000000%,0.000000%,0.000000%); stroke-width: 0.498138;stroke-linecap: round;stroke-linejoin: round;stroke-miterlimit: 10.000000;fill: none;"></path>
  <path d="M110.910095 49.447754C110.005875 49.874863,109.101761 50.302338,108.199585 50.733673C109.142532 51.066620,110.084091 51.403671,111.025482 51.741058Z" style="stroke:rgb(0.000000%,0.000000%,0.000000%); stroke-width: 0.498138;fill: rgb(0.000000%,0.000000%,0.000000%);"></path>
  <path d="M74.022354 62.690979C72.466125 64.815903,71.883301 67.397049,71.354630 69.985733" style="stroke:rgb(0.000000%,0.000000%,0.000000%); stroke-width: 0.498138;stroke-linecap: round;stroke-linejoin: round;stroke-miterlimit: 10.000000;fill: none;"></path>
  <path d="M70.861069 67.026566C70.980621 68.012650,71.163818 69.000183,71.354630 69.985733C71.916595 69.153931,72.485382 68.326096,73.098129 67.544327Z" style="stroke:rgb(0.000000%,0.000000%,0.000000%); stroke-width: 0.498138;fill: rgb(0.000000%,0.000000%,0.000000%);"></path>
  <path d="M104.511673 61.717453C105.633240 58.992706,105.335373 56.041046,104.722260 53.140015" style="stroke:rgb(0.000000%,0.000000%,0.000000%); stroke-width: 0.498138;stroke-linecap: round;stroke-linejoin: round;stroke-miterlimit: 10.000000;fill: none;"></path>
  <path d="M106.292404 55.696335C105.829819 54.820572,105.291718 53.970627,104.722260 53.140015C104.537567 54.130020,104.317062 55.111496,104.024887 56.057877Z" style="stroke:rgb(0.000000%,0.000000%,0.000000%); stroke-width: 0.498138;fill: rgb(0.000000%,0.000000%,0.000000%);"></path>
  <path d="M54.453491 100.263016C60.987823 101.075485,67.515747 101.979996,74.074585 102.529663" style="stroke:rgb(0.000000%,0.000000%,0.000000%); stroke-width: 0.498138;stroke-linecap: round;stroke-linejoin: round;stroke-miterlimit: 10.000000;fill: none;"></path>
  <path d="M71.209869 103.420227C72.166916 103.130203,73.121994 102.833862,74.074585 102.529663C73.185898 102.071167,72.301010 101.605362,71.419220 101.133667Z" style="stroke:rgb(0.000000%,0.000000%,0.000000%); stroke-width: 0.498138;fill: rgb(0.000000%,0.000000%,0.000000%);"></path>
  <path d="M100.887131 100.925919C106.398941 99.274948,111.465134 96.529190,116.261887 93.354080" style="stroke:rgb(0.000000%,0.000000%,0.000000%); stroke-width: 0.498138;stroke-linecap: round;stroke-linejoin: round;stroke-miterlimit: 10.000000;fill: none;"></path>
  <path d="M114.543655 95.813278C115.130356 95.004364,115.702377 94.183670,116.261887 93.354080C115.279648 93.545029,114.294846 93.720856,113.307968 93.877975Z" style="stroke:rgb(0.000000%,0.000000%,0.000000%); stroke-width: 0.498138;fill: rgb(0.000000%,0.000000%,0.000000%);"></path>
  <path d="M75.611374 44.351883C77.222900 47.955338,79.642075 51.084503,82.023651 54.235992" style="stroke:rgb(0.000000%,0.000000%,0.000000%); stroke-width: 0.498138;stroke-linecap: round;stroke-linejoin: round;stroke-miterlimit: 10.000000;fill: none;"></path>
  <path d="M79.440399 52.710480C80.296768 53.225220,81.161057 53.729492,82.023651 54.235992C81.771866 53.267883,81.517319 52.300171,81.275757 51.330658Z" style="stroke:rgb(0.000000%,0.000000%,0.000000%); stroke-width: 0.498138;fill: rgb(0.000000%,0.000000%,0.000000%);"></path>
  <path d="M89.386063 63.821121C91.189758 65.626740,93.289810 67.081329,95.389816 68.533630" style="stroke:rgb(0.000000%,0.000000%,0.000000%); stroke-width: 0.498138;stroke-linecap: round;stroke-linejoin: round;stroke-miterlimit: 10.000000;fill: none;"></path>
  <path d="M92.463226 67.873764C93.433258 68.111542,94.411606 68.322754,95.389816 68.533630C94.847244 67.692810,94.304810 66.851654,93.787048 65.997604Z" style="stroke:rgb(0.000000%,0.000000%,0.000000%); stroke-width: 0.498138;fill: rgb(0.000000%,0.000000%,0.000000%);"></path>
  <path d="M133.508713 191.028656L139.490005 191.028656L139.490005 183.608261L133.508713 183.608261Z" style="fill: rgb(100.000000%,100.000000%,100.000000%);stroke: none;"></path>
  <path d="M133.508713 193.028656L139.490005 193.028656L139.490005 185.608261L133.508713 185.608261Z" style="fill: rgb(100.000000%,100.000000%,100.000000%);stroke: none;"></path>
  <g transform="translate(134.008713 191.528656)" style="fill: rgb(0.000000%,0.000000%,0.000000%);">
    <use xlink:href="#GLYPHcmr10_49"></use>
  </g>
  <path d="M76.436539 129.420776L82.417831 129.420776L82.417831 122.000381L76.436539 122.000381Z" style="fill: rgb(100.000000%,100.000000%,100.000000%);stroke: none;"></path>
  <path d="M76.436539 131.420776L82.417831 131.420776L82.417831 124.000381L76.436539 124.000381Z" style="fill: rgb(100.000000%,100.000000%,100.000000%);stroke: none;"></path>
  <g transform="translate(76.936539 129.920776)" style="fill: rgb(0.000000%,0.000000%,0.000000%);">
    <use xlink:href="#GLYPHcmr10_50"></use>
  </g>
  <path d="M49.982422 74.889038L55.963715 74.889038L55.963715 67.468643L49.982422 67.468643Z" style="fill: rgb(100.000000%,100.000000%,100.000000%);stroke: none;"></path>
  <path d="M49.982422 76.889038L55.963715 76.889038L55.963715 69.468643L49.982422 69.468643Z" style="fill: rgb(100.000000%,100.000000%,100.000000%);stroke: none;"></path>
  <g transform="translate(50.482422 75.389038)" style="fill: rgb(0.000000%,0.000000%,0.000000%);">
    <use xlink:href="#GLYPHcmr10_51"></use>
  </g>
  <path d="M13.651306 143.471832L19.632599 143.471832L19.632599 136.051437L13.651306 136.051437Z" style="fill: rgb(100.000000%,100.000000%,100.000000%);stroke: none;"></path>
  <path d="M13.651306 145.471832L19.632599 145.471832L19.632599 138.051437L13.651306 138.051437Z" style="fill: rgb(100.000000%,100.000000%,100.000000%);stroke: none;"></path>
  <g transform="translate(14.151306 143.971832)" style="fill: rgb(0.000000%,0.000000%,0.000000%);">
    <use xlink:href="#GLYPHcmr10_52"></use>
  </g>
  <path d="M192.113098 95.210876L198.094391 95.210876L198.094391 87.790482L192.113098 87.790482Z" style="fill: rgb(100.000000%,100.000000%,100.000000%);stroke: none;"></path>
  <path d="M192.113098 97.210876L198.094391 97.210876L198.094391 89.790482L192.113098 89.790482Z" style="fill: rgb(100.000000%,100.000000%,100.000000%);stroke: none;"></path>
  <g transform="translate(192.613098 95.710876)" style="fill: rgb(0.000000%,0.000000%,0.000000%);">
    <use xlink:href="#GLYPHcmr10_53"></use>
  </g>
  <path d="M90.215622 55.451080L96.196915 55.451080L96.196915 48.030685L90.215622 48.030685Z" style="fill: rgb(100.000000%,100.000000%,100.000000%);stroke: none;"></path>
  <path d="M90.215622 57.451080L96.196915 57.451080L96.196915 50.030685L90.215622 50.030685Z" style="fill: rgb(100.000000%,100.000000%,100.000000%);stroke: none;"></path>
  <g transform="translate(90.715622 55.951080)" style="fill: rgb(0.000000%,0.000000%,0.000000%);">
    <use xlink:href="#GLYPHcmr10_54"></use>
  </g>
  <path d="M85.671555 78.638519L91.652847 78.638519L91.652847 71.218124L85.671555 71.218124Z" style="fill: rgb(100.000000%,100.000000%,100.000000%);stroke: none;"></path>
  <path d="M85.671555 80.638519L91.652847 80.638519L91.652847 73.218124L85.671555 73.218124Z" style="fill: rgb(100.000000%,100.000000%,100.000000%);stroke: none;"></path>
  <g transform="translate(86.171555 79.138519)" style="fill: rgb(0.000000%,0.000000%,0.000000%);">
    <use xlink:href="#GLYPHcmr10_55"></use>
  </g>
  <path d="M96.980133 40.141357L102.961426 40.141357L102.961426 32.720963L96.980133 32.720963Z" style="fill: rgb(100.000000%,100.000000%,100.000000%);stroke: none;"></path>
  <path d="M96.980133 42.141357L102.961426 42.141357L102.961426 34.720963L96.980133 34.720963Z" style="fill: rgb(100.000000%,100.000000%,100.000000%);stroke: none;"></path>
  <g transform="translate(97.480133 40.641357)" style="fill: rgb(0.000000%,0.000000%,0.000000%);">
    <use xlink:href="#GLYPHcmr10_56"></use>
  </g>
  <path d="M24.276474 37.216782L30.257767 37.216782L30.257767 29.796387L24.276474 29.796387Z" style="fill: rgb(100.000000%,100.000000%,100.000000%);stroke: none;"></path>
  <path d="M24.276474 39.216782L30.257767 39.216782L30.257767 31.796387L24.276474 31.796387Z" style="fill: rgb(100.000000%,100.000000%,100.000000%);stroke: none;"></path>
  <g transform="translate(24.776474 37.716782)" style="fill: rgb(0.000000%,0.000000%,0.000000%);">
    <use xlink:href="#GLYPHcmr10_57"></use>
  </g>
  <path d="M133.410782 78.840347L144.373489 78.840347L144.373489 71.419952L133.410782 71.419952Z" style="fill: rgb(100.000000%,100.000000%,100.000000%);stroke: none;"></path>
  <path d="M133.410782 80.840347L144.373489 80.840347L144.373489 73.419952L133.410782 73.419952Z" style="fill: rgb(100.000000%,100.000000%,100.000000%);stroke: none;"></path>
  <g transform="translate(133.910782 79.340347)" style="fill: rgb(0.000000%,0.000000%,0.000000%);">
    <use xlink:href="#GLYPHcmr10_49"></use>
    <use xlink:href="#GLYPHcmr10_48" x="5.000095"></use>
  </g>
  <path d="M124.604568 12.501312L135.567276 12.501312L135.567276 5.080917L124.604568 5.080917Z" style="fill: rgb(100.000000%,100.000000%,100.000000%);stroke: none;"></path>
  <path d="M124.604568 14.501312L135.567276 14.501312L135.567276 7.080917L124.604568 7.080917Z" style="fill: rgb(100.000000%,100.000000%,100.000000%);stroke: none;"></path>
  <g transform="translate(125.104568 13.001312)" style="fill: rgb(0.000000%,0.000000%,0.000000%);">
    <use xlink:href="#GLYPHcmr10_49"></use>
    <use xlink:href="#GLYPHcmr10_49" x="5.000095"></use>
  </g>
  <path d="M102.517181 81.378983L113.479889 81.378983L113.479889 73.958588L102.517181 73.958588Z" style="fill: rgb(100.000000%,100.000000%,100.000000%);stroke: none;"></path>
  <path d="M102.517181 83.378983L113.479889 83.378983L113.479889 75.958588L102.517181 75.958588Z" style="fill: rgb(100.000000%,100.000000%,100.000000%);stroke: none;"></path>
  <g transform="translate(103.017181 81.878983)" style="fill: rgb(0.000000%,0.000000%,0.000000%);">
    <use xlink:href="#GLYPHcmr10_49"></use>
    <use xlink:href="#GLYPHcmr10_50" x="5.000095"></use>
  </g>
</svg>
