<?xml version="1.0"?>
<!-- Created by MetaPost 1.999 on 2021.07.05:2356 -->
<svg version="1.1" xmlns="http://www.w3.org/2000/svg" xmlns:xlink="http://www.w3.org/1999/xlink" width="198.499817" height="200.035019" viewBox="0 0 198.499817 200.035019">
<!-- Original BoundingBox: -159.101761 -47.192123 39.398056 152.842896 -->
  <defs>
    <g transform="scale(0.009963,0.009963)" id="GLYPHcmr10_48">
      <path style="fill-rule: evenodd;" d="M460.000000 -320.000000C460.000000 -400.000000,455.000000 -480.000000,420.000000 -554.000000C374.000000 -650.000000,292.000000 -666.000000,250.000000 -666.000000C190.000000 -666.000000,117.000000 -640.000000,76.000000 -547.000000C44.000000 -478.000000,39.000000 -400.000000,39.000000 -320.000000C39.000000 -245.000000,43.000000 -155.000000,84.000000 -79.000000C127.000000 2.000000,200.000000 22.000000,249.000000 22.000000C303.000000 22.000000,379.000000 1.000000,423.000000 -94.000000C455.000000 -163.000000,460.000000 -241.000000,460.000000 -320.000000M249.000000 -0.000000C210.000000 -0.000000,151.000000 -25.000000,133.000000 -121.000000C122.000000 -181.000000,122.000000 -273.000000,122.000000 -332.000000C122.000000 -396.000000,122.000000 -462.000000,130.000000 -516.000000C149.000000 -635.000000,224.000000 -644.000000,249.000000 -644.000000C282.000000 -644.000000,348.000000 -626.000000,367.000000 -527.000000C377.000000 -471.000000,377.000000 -395.000000,377.000000 -332.000000C377.000000 -257.000000,377.000000 -189.000000,366.000000 -125.000000C351.000000 -30.000000,294.000000 -0.000000,249.000000 -0.000000"></path>
    </g>
    <g transform="scale(0.009963,0.009963)" id="GLYPHcmr10_49">
      <path style="fill-rule: evenodd;" d="M294.000000 -640.000000C294.000000 -664.000000,294.000000 -666.000000,271.000000 -666.000000C209.000000 -602.000000,121.000000 -602.000000,89.000000 -602.000000L89.000000 -571.000000C109.000000 -571.000000,168.000000 -571.000000,220.000000 -597.000000L220.000000 -79.000000C220.000000 -43.000000,217.000000 -31.000000,127.000000 -31.000000L95.000000 -31.000000L95.000000 -0.000000L257.000000 -0.000000L130.000000 -3.000000L217.000000 -3.000000L257.000000 -3.000000L297.000000 -3.000000L384.000000 -3.000000L419.000000 -0.000000L419.000000 -31.000000L387.000000 -31.000000C297.000000 -31.000000,294.000000 -42.000000,294.000000 -79.000000"></path>
    </g>
    <g transform="scale(0.009963,0.009963)" id="GLYPHcmr10_50">
      <path style="fill-rule: evenodd;" d="M127.000000 -77.000000L233.000000 -180.000000C389.000000 -318.000000,449.000000 -372.000000,449.000000 -472.000000C449.000000 -586.000000,359.000000 -666.000000,237.000000 -666.000000C124.000000 -666.000000,50.000000 -574.000000,50.000000 -485.000000C50.000000 -429.000000,100.000000 -429.000000,103.000000 -429.000000C120.000000 -429.000000,155.000000 -441.000000,155.000000 -482.000000C155.000000 -508.000000,137.000000 -534.000000,102.000000 -534.000000C94.000000 -534.000000,92.000000 -534.000000,89.000000 -533.000000C112.000000 -598.000000,166.000000 -635.000000,224.000000 -635.000000C315.000000 -635.000000,358.000000 -554.000000,358.000000 -472.000000C358.000000 -392.000000,308.000000 -313.000000,253.000000 -251.000000L61.000000 -37.000000C50.000000 -26.000000,50.000000 -24.000000,50.000000 -0.000000L421.000000 -0.000000L449.000000 -174.000000L424.000000 -174.000000C419.000000 -144.000000,412.000000 -100.000000,402.000000 -85.000000C395.000000 -77.000000,329.000000 -77.000000,307.000000 -77.000000"></path>
    </g>
    <g transform="scale(0.009963,0.009963)" id="GLYPHcmr10_51">
      <path style="fill-rule: evenodd;" d="M290.000000 -352.000000C372.000000 -379.000000,430.000000 -449.000000,430.000000 -528.000000C430.000000 -610.000000,342.000000 -666.000000,246.000000 -666.000000C145.000000 -666.000000,69.000000 -606.000000,69.000000 -530.000000C69.000000 -497.000000,91.000000 -478.000000,120.000000 -478.000000C151.000000 -478.000000,171.000000 -500.000000,171.000000 -529.000000C171.000000 -579.000000,124.000000 -579.000000,109.000000 -579.000000C140.000000 -628.000000,206.000000 -641.000000,242.000000 -641.000000C283.000000 -641.000000,338.000000 -619.000000,338.000000 -529.000000C338.000000 -517.000000,336.000000 -459.000000,310.000000 -415.000000C280.000000 -367.000000,246.000000 -364.000000,221.000000 -363.000000C213.000000 -362.000000,189.000000 -360.000000,182.000000 -360.000000C174.000000 -359.000000,167.000000 -358.000000,167.000000 -348.000000C167.000000 -337.000000,174.000000 -337.000000,191.000000 -337.000000L235.000000 -337.000000C317.000000 -337.000000,354.000000 -269.000000,354.000000 -171.000000C354.000000 -35.000000,285.000000 -6.000000,241.000000 -6.000000C198.000000 -6.000000,123.000000 -23.000000,88.000000 -82.000000C123.000000 -77.000000,154.000000 -99.000000,154.000000 -137.000000C154.000000 -173.000000,127.000000 -193.000000,98.000000 -193.000000C74.000000 -193.000000,42.000000 -179.000000,42.000000 -135.000000C42.000000 -44.000000,135.000000 22.000000,244.000000 22.000000C366.000000 22.000000,457.000000 -69.000000,457.000000 -171.000000C457.000000 -253.000000,394.000000 -331.000000,290.000000 -352.000000"></path>
    </g>
    <g transform="scale(0.009963,0.009963)" id="GLYPHcmr10_52">
      <path style="fill-rule: evenodd;" d="M294.000000 -165.000000L294.000000 -78.000000C294.000000 -42.000000,292.000000 -31.000000,218.000000 -31.000000L197.000000 -31.000000L197.000000 -0.000000L332.000000 -0.000000L238.000000 -3.000000L290.000000 -3.000000L332.000000 -3.000000L374.000000 -3.000000L427.000000 -3.000000L468.000000 -0.000000L468.000000 -31.000000L447.000000 -31.000000C373.000000 -31.000000,371.000000 -42.000000,371.000000 -78.000000L371.000000 -165.000000L471.000000 -165.000000L471.000000 -196.000000L371.000000 -196.000000L371.000000 -651.000000C371.000000 -671.000000,371.000000 -677.000000,355.000000 -677.000000C346.000000 -677.000000,343.000000 -677.000000,335.000000 -665.000000L28.000000 -196.000000L28.000000 -165.000000M300.000000 -196.000000L56.000000 -196.000000L300.000000 -569.000000"></path>
    </g>
    <g transform="scale(0.009963,0.009963)" id="GLYPHcmr10_53">
      <path style="fill-rule: evenodd;" d="M449.000000 -201.000000C449.000000 -320.000000,367.000000 -420.000000,259.000000 -420.000000C211.000000 -420.000000,168.000000 -404.000000,132.000000 -369.000000L132.000000 -564.000000C152.000000 -558.000000,185.000000 -551.000000,217.000000 -551.000000C340.000000 -551.000000,410.000000 -642.000000,410.000000 -655.000000C410.000000 -661.000000,407.000000 -666.000000,400.000000 -666.000000C399.000000 -666.000000,397.000000 -666.000000,392.000000 -663.000000C372.000000 -654.000000,323.000000 -634.000000,256.000000 -634.000000C216.000000 -634.000000,170.000000 -641.000000,123.000000 -662.000000C115.000000 -665.000000,113.000000 -665.000000,111.000000 -665.000000C101.000000 -665.000000,101.000000 -657.000000,101.000000 -641.000000L101.000000 -345.000000C101.000000 -327.000000,101.000000 -319.000000,115.000000 -319.000000C122.000000 -319.000000,124.000000 -322.000000,128.000000 -328.000000C139.000000 -344.000000,176.000000 -398.000000,257.000000 -398.000000C309.000000 -398.000000,334.000000 -352.000000,342.000000 -334.000000C358.000000 -297.000000,360.000000 -258.000000,360.000000 -208.000000C360.000000 -173.000000,360.000000 -113.000000,336.000000 -71.000000C312.000000 -32.000000,275.000000 -6.000000,229.000000 -6.000000C156.000000 -6.000000,99.000000 -59.000000,82.000000 -118.000000C85.000000 -117.000000,88.000000 -116.000000,99.000000 -116.000000C132.000000 -116.000000,149.000000 -141.000000,149.000000 -165.000000C149.000000 -189.000000,132.000000 -214.000000,99.000000 -214.000000C85.000000 -214.000000,50.000000 -207.000000,50.000000 -161.000000C50.000000 -75.000000,119.000000 22.000000,231.000000 22.000000C347.000000 22.000000,449.000000 -74.000000,449.000000 -201.000000"></path>
    </g>
    <g transform="scale(0.009963,0.009963)" id="GLYPHcmr10_54">
      <path style="fill-rule: evenodd;" d="M132.000000 -328.000000L132.000000 -352.000000C132.000000 -605.000000,256.000000 -641.000000,307.000000 -641.000000C331.000000 -641.000000,373.000000 -635.000000,395.000000 -601.000000C380.000000 -601.000000,340.000000 -601.000000,340.000000 -556.000000C340.000000 -525.000000,364.000000 -510.000000,386.000000 -510.000000C402.000000 -510.000000,432.000000 -519.000000,432.000000 -558.000000C432.000000 -618.000000,388.000000 -666.000000,305.000000 -666.000000C177.000000 -666.000000,42.000000 -537.000000,42.000000 -316.000000C42.000000 -49.000000,158.000000 22.000000,251.000000 22.000000C362.000000 22.000000,457.000000 -72.000000,457.000000 -204.000000C457.000000 -331.000000,368.000000 -427.000000,257.000000 -427.000000C189.000000 -427.000000,152.000000 -376.000000,132.000000 -328.000000M251.000000 -6.000000C188.000000 -6.000000,158.000000 -66.000000,152.000000 -81.000000C134.000000 -128.000000,134.000000 -208.000000,134.000000 -226.000000C134.000000 -304.000000,166.000000 -404.000000,256.000000 -404.000000C272.000000 -404.000000,318.000000 -404.000000,349.000000 -342.000000C367.000000 -305.000000,367.000000 -254.000000,367.000000 -205.000000C367.000000 -157.000000,367.000000 -107.000000,350.000000 -71.000000C320.000000 -11.000000,274.000000 -6.000000,251.000000 -6.000000"></path>
    </g>
    <g transform="scale(0.009963,0.009963)" id="GLYPHcmr10_55">
      <path style="fill-rule: evenodd;" d="M476.000000 -609.000000C485.000000 -621.000000,485.000000 -623.000000,485.000000 -644.000000L242.000000 -644.000000C120.000000 -644.000000,118.000000 -657.000000,114.000000 -676.000000L89.000000 -676.000000L56.000000 -470.000000L81.000000 -470.000000C84.000000 -486.000000,93.000000 -549.000000,106.000000 -561.000000C113.000000 -567.000000,191.000000 -567.000000,204.000000 -567.000000L411.000000 -567.000000C400.000000 -551.000000,321.000000 -442.000000,299.000000 -409.000000C209.000000 -274.000000,176.000000 -135.000000,176.000000 -33.000000C176.000000 -23.000000,176.000000 22.000000,222.000000 22.000000C268.000000 22.000000,268.000000 -23.000000,268.000000 -33.000000L268.000000 -84.000000C268.000000 -139.000000,271.000000 -194.000000,279.000000 -248.000000C283.000000 -271.000000,297.000000 -357.000000,341.000000 -419.000000"></path>
    </g>
    <g transform="scale(0.009963,0.009963)" id="GLYPHcmr10_56">
      <path style="fill-rule: evenodd;" d="M163.000000 -457.000000C117.000000 -487.000000,113.000000 -521.000000,113.000000 -538.000000C113.000000 -599.000000,178.000000 -641.000000,249.000000 -641.000000C322.000000 -641.000000,386.000000 -589.000000,386.000000 -517.000000C386.000000 -460.000000,347.000000 -412.000000,287.000000 -377.000000M309.000000 -362.000000C381.000000 -399.000000,430.000000 -451.000000,430.000000 -517.000000C430.000000 -609.000000,341.000000 -666.000000,250.000000 -666.000000C150.000000 -666.000000,69.000000 -592.000000,69.000000 -499.000000C69.000000 -481.000000,71.000000 -436.000000,113.000000 -389.000000C124.000000 -377.000000,161.000000 -352.000000,186.000000 -335.000000C128.000000 -306.000000,42.000000 -250.000000,42.000000 -151.000000C42.000000 -45.000000,144.000000 22.000000,249.000000 22.000000C362.000000 22.000000,457.000000 -61.000000,457.000000 -168.000000C457.000000 -204.000000,446.000000 -249.000000,408.000000 -291.000000C389.000000 -312.000000,373.000000 -322.000000,309.000000 -362.000000M209.000000 -320.000000L332.000000 -242.000000C360.000000 -223.000000,407.000000 -193.000000,407.000000 -132.000000C407.000000 -58.000000,332.000000 -6.000000,250.000000 -6.000000C164.000000 -6.000000,92.000000 -68.000000,92.000000 -151.000000C92.000000 -209.000000,124.000000 -273.000000,209.000000 -320.000000"></path>
    </g>
    <g transform="scale(0.009963,0.009963)" id="GLYPHcmr10_57">
      <path style="fill-rule: evenodd;" d="M367.000000 -318.000000L367.000000 -286.000000C367.000000 -52.000000,263.000000 -6.000000,205.000000 -6.000000C188.000000 -6.000000,134.000000 -8.000000,107.000000 -42.000000C151.000000 -42.000000,159.000000 -71.000000,159.000000 -88.000000C159.000000 -119.000000,135.000000 -134.000000,113.000000 -134.000000C97.000000 -134.000000,67.000000 -125.000000,67.000000 -86.000000C67.000000 -19.000000,121.000000 22.000000,206.000000 22.000000C335.000000 22.000000,457.000000 -114.000000,457.000000 -329.000000C457.000000 -598.000000,342.000000 -666.000000,253.000000 -666.000000C198.000000 -666.000000,149.000000 -648.000000,106.000000 -603.000000C65.000000 -558.000000,42.000000 -516.000000,42.000000 -441.000000C42.000000 -316.000000,130.000000 -218.000000,242.000000 -218.000000C303.000000 -218.000000,344.000000 -260.000000,367.000000 -318.000000M243.000000 -241.000000C227.000000 -241.000000,181.000000 -241.000000,150.000000 -304.000000C132.000000 -341.000000,132.000000 -391.000000,132.000000 -440.000000C132.000000 -494.000000,132.000000 -541.000000,153.000000 -578.000000C180.000000 -628.000000,218.000000 -641.000000,253.000000 -641.000000C299.000000 -641.000000,332.000000 -607.000000,349.000000 -562.000000C361.000000 -530.000000,365.000000 -467.000000,365.000000 -421.000000C365.000000 -338.000000,331.000000 -241.000000,243.000000 -241.000000"></path>
    </g>
  </defs>
  <path d="M129.350433 156.029999C129.350433 155.237305,129.035492 154.477158,128.475006 153.916687C127.914536 153.356201,127.154388 153.041260,126.361694 153.041260C125.569000 153.041260,124.808853 153.356201,124.248383 153.916687C123.687897 154.477158,123.372955 155.237305,123.372955 156.029999C123.372955 156.822693,123.687897 157.582840,124.248383 158.143311C124.808853 158.703796,125.569000 159.018738,126.361694 159.018738C127.154388 159.018738,127.914536 158.703796,128.475006 158.143311C129.035492 157.582840,129.350433 156.822693,129.350433 156.029999Z" style="fill: rgb(100.000000%,100.000000%,100.000000%);stroke: none;"></path>
  <path d="M115.031860 147.920166C115.031860 147.127472,114.716919 146.367325,114.156433 145.806854C113.595963 145.246368,112.835815 144.931427,112.043121 144.931427C111.250427 144.931427,110.490280 145.246368,109.929810 145.806854C109.369324 146.367325,109.054382 147.127472,109.054382 147.920166C109.054382 148.712860,109.369324 149.473007,109.929810 150.033478C110.490280 150.593964,111.250427 150.908905,112.043121 150.908905C112.835815 150.908905,113.595963 150.593964,114.156433 150.033478C114.716919 149.473007,115.031860 148.712860,115.031860 147.920166Z" style="fill: rgb(100.000000%,100.000000%,100.000000%);stroke: none;"></path>
  <path d="M183.274643 144.422409C183.274643 143.629715,182.959702 142.869568,182.399216 142.309097C181.838745 141.748611,181.078598 141.433670,180.285904 141.433670C179.493210 141.433670,178.733063 141.748611,178.172592 142.309097C177.612106 142.869568,177.297165 143.629715,177.297165 144.422409C177.297165 145.215103,177.612106 145.975250,178.172592 146.535721C178.733063 147.096207,179.493210 147.411148,180.285904 147.411148C181.078598 147.411148,181.838745 147.096207,182.399216 146.535721C182.959702 145.975250,183.274643 145.215103,183.274643 144.422409Z" style="fill: rgb(100.000000%,100.000000%,100.000000%);stroke: none;"></path>
  <path d="M146.486053 157.518814C146.486053 156.726120,146.171112 155.965973,145.610626 155.405502C145.050156 154.845016,144.290009 154.530075,143.497314 154.530075C142.704620 154.530075,141.944473 154.845016,141.384003 155.405502C140.823517 155.965973,140.508575 156.726120,140.508575 157.518814C140.508575 158.311508,140.823517 159.071655,141.384003 159.632126C141.944473 160.192612,142.704620 160.507553,143.497314 160.507553C144.290009 160.507553,145.050156 160.192612,145.610626 159.632126C146.171112 159.071655,146.486053 158.311508,146.486053 157.518814Z" style="fill: rgb(100.000000%,100.000000%,100.000000%);stroke: none;"></path>
  <path d="M198.398056 80.118896C198.398056 79.326202,198.083115 78.566055,197.522629 78.005585C196.962158 77.445099,196.202011 77.130157,195.409317 77.130157C194.616623 77.130157,193.856476 77.445099,193.296005 78.005585C192.735519 78.566055,192.420578 79.326202,192.420578 80.118896C192.420578 80.911591,192.735519 81.671738,193.296005 82.232208C193.856476 82.792694,194.616623 83.107635,195.409317 83.107635C196.202011 83.107635,196.962158 82.792694,197.522629 82.232208C198.083115 81.671738,198.398056 80.911591,198.398056 80.118896Z" style="fill: rgb(100.000000%,100.000000%,100.000000%);stroke: none;"></path>
  <path d="M198.310043 124.966034C198.310043 124.173340,197.995102 123.413193,197.434616 122.852722C196.874146 122.292236,196.113998 121.977295,195.321304 121.977295C194.528610 121.977295,193.768463 122.292236,193.207993 122.852722C192.647507 123.413193,192.332565 124.173340,192.332565 124.966034C192.332565 125.758728,192.647507 126.518875,193.207993 127.079346C193.768463 127.639832,194.528610 127.954773,195.321304 127.954773C196.113998 127.954773,196.874146 127.639832,197.434616 127.079346C197.995102 126.518875,198.310043 125.758728,198.310043 124.966034Z" style="fill: rgb(100.000000%,100.000000%,100.000000%);stroke: none;"></path>
  <path d="M147.264679 49.466949C147.264679 48.674255,146.949738 47.914108,146.389252 47.353638C145.828781 46.793152,145.068634 46.478210,144.275940 46.478210C143.483246 46.478210,142.723099 46.793152,142.162628 47.353638C141.602142 47.914108,141.287201 48.674255,141.287201 49.466949C141.287201 50.259644,141.602142 51.019791,142.162628 51.580261C142.723099 52.140747,143.483246 52.455688,144.275940 52.455688C145.068634 52.455688,145.828781 52.140747,146.389252 51.580261C146.949738 51.019791,147.264679 50.259644,147.264679 49.466949Z" style="fill: rgb(100.000000%,100.000000%,100.000000%);stroke: none;"></path>
  <path d="M183.450867 60.554703C183.450867 59.762009,183.135925 59.001862,182.575439 58.441391C182.014969 57.880905,181.254822 57.565964,180.462128 57.565964C179.669434 57.565964,178.909286 57.880905,178.348816 58.441391C177.788330 59.001862,177.473389 59.762009,177.473389 60.554703C177.473389 61.347397,177.788330 62.107544,178.348816 62.668015C178.909286 63.228500,179.669434 63.543442,180.462128 63.543442C181.254822 63.543442,182.014969 63.228500,182.575439 62.668015C183.135925 62.107544,183.450867 61.347397,183.450867 60.554703Z" style="fill: rgb(100.000000%,100.000000%,100.000000%);stroke: none;"></path>
  <path d="M111.570770 62.607025C111.570770 61.814331,111.255829 61.054184,110.695343 60.493713C110.134872 59.933228,109.374725 59.618286,108.582031 59.618286C107.789337 59.618286,107.029190 59.933228,106.468719 60.493713C105.908234 61.054184,105.593292 61.814331,105.593292 62.607025C105.593292 63.399719,105.908234 64.159866,106.468719 64.720337C107.029190 65.280823,107.789337 65.595764,108.582031 65.595764C109.374725 65.595764,110.134872 65.280823,110.695343 64.720337C111.255829 64.159866,111.570770 63.399719,111.570770 62.607025Z" style="fill: rgb(100.000000%,100.000000%,100.000000%);stroke: none;"></path>
  <path d="M131.428268 51.848297C131.428268 51.055603,131.113327 50.295456,130.552841 49.734985C129.992371 49.174500,129.232224 48.859558,128.439529 48.859558C127.646835 48.859558,126.886688 49.174500,126.326218 49.734985C125.765732 50.295456,125.450790 51.055603,125.450790 51.848297C125.450790 52.640991,125.765732 53.401138,126.326218 53.961609C126.886688 54.522095,127.646835 54.837036,128.439529 54.837036C129.232224 54.837036,129.992371 54.522095,130.552841 53.961609C131.113327 53.401138,131.428268 52.640991,131.428268 51.848297Z" style="fill: rgb(100.000000%,100.000000%,100.000000%);stroke: none;"></path>
  <path d="M95.729218 70.819946C95.729218 70.027252,95.414276 69.267105,94.853790 68.706635C94.293320 68.146149,93.533173 67.831207,92.740479 67.831207C91.947784 67.831207,91.187637 68.146149,90.627167 68.706635C90.066681 69.267105,89.751740 70.027252,89.751740 70.819946C89.751740 71.612640,90.066681 72.372787,90.627167 72.933258C91.187637 73.493744,91.947784 73.808685,92.740479 73.808685C93.533173 73.808685,94.293320 73.493744,94.853790 72.933258C95.414276 72.372787,95.729218 71.612640,95.729218 70.819946Z" style="fill: rgb(100.000000%,100.000000%,100.000000%);stroke: none;"></path>
  <path d="M105.816772 67.073624C105.816772 66.280930,105.501831 65.520782,104.941345 64.960312C104.380875 64.399826,103.620728 64.084885,102.828033 64.084885C102.035339 64.084885,101.275192 64.399826,100.714722 64.960312C100.154236 65.520782,99.839294 66.280930,99.839294 67.073624C99.839294 67.866318,100.154236 68.626465,100.714722 69.186935C101.275192 69.747421,102.035339 70.062363,102.828033 70.062363C103.620728 70.062363,104.380875 69.747421,104.941345 69.186935C105.501831 68.626465,105.816772 67.866318,105.816772 67.073624Z" style="fill: rgb(100.000000%,100.000000%,100.000000%);stroke: none;"></path>
  <path d="M91.883682 78.873093C91.883682 78.080399,91.568741 77.320251,91.008255 76.759781C90.447784 76.199295,89.687637 75.884354,88.894943 75.884354C88.102249 75.884354,87.342102 76.199295,86.781631 76.759781C86.221146 77.320251,85.906204 78.080399,85.906204 78.873093C85.906204 79.665787,86.221146 80.425934,86.781631 80.986404C87.342102 81.546890,88.102249 81.861832,88.894943 81.861832C89.687637 81.861832,90.447784 81.546890,91.008255 80.986404C91.568741 80.425934,91.883682 79.665787,91.883682 78.873093Z" style="fill: rgb(100.000000%,100.000000%,100.000000%);stroke: none;"></path>
  <path d="M91.980072 72.325165C91.980072 71.532471,91.665131 70.772324,91.104645 70.211853C90.544174 69.651367,89.784027 69.336426,88.991333 69.336426C88.198639 69.336426,87.438492 69.651367,86.878021 70.211853C86.317535 70.772324,86.002594 71.532471,86.002594 72.325165C86.002594 73.117859,86.317535 73.878006,86.878021 74.438477C87.438492 74.998962,88.198639 75.313904,88.991333 75.313904C89.784027 75.313904,90.544174 74.998962,91.104645 74.438477C91.665131 73.878006,91.980072 73.117859,91.980072 72.325165Z" style="fill: rgb(100.000000%,100.000000%,100.000000%);stroke: none;"></path>
  <path d="M101.808777 84.280838C101.808777 83.488144,101.493835 82.727997,100.933350 82.167526C100.372879 81.607040,99.612732 81.292099,98.820038 81.292099C98.027344 81.292099,97.267197 81.607040,96.706726 82.167526C96.146240 82.727997,95.831299 83.488144,95.831299 84.280838C95.831299 85.073532,96.146240 85.833679,96.706726 86.394150C97.267197 86.954636,98.027344 87.269577,98.820038 87.269577C99.612732 87.269577,100.372879 86.954636,100.933350 86.394150C101.493835 85.833679,101.808777 85.073532,101.808777 84.280838Z" style="fill: rgb(100.000000%,100.000000%,100.000000%);stroke: none;"></path>
  <path d="M95.135254 80.529160C95.135254 79.736465,94.820312 78.976318,94.259827 78.415848C93.699356 77.855362,92.939209 77.540421,92.146515 77.540421C91.353821 77.540421,90.593674 77.855362,90.033203 78.415848C89.472717 78.976318,89.157776 79.736465,89.157776 80.529160C89.157776 81.321854,89.472717 82.082001,90.033203 82.642471C90.593674 83.202957,91.353821 83.517899,92.146515 83.517899C92.939209 83.517899,93.699356 83.202957,94.259827 82.642471C94.820312 82.082001,95.135254 81.321854,95.135254 80.529160Z" style="fill: rgb(100.000000%,100.000000%,100.000000%);stroke: none;"></path>
  <path d="M112.339478 93.735336C112.339478 92.942642,112.024536 92.182495,111.464050 91.622025C110.903580 91.061539,110.143433 90.746597,109.350739 90.746597C108.558044 90.746597,107.797897 91.061539,107.237427 91.622025C106.676941 92.182495,106.362000 92.942642,106.362000 93.735336C106.362000 94.528030,106.676941 95.288177,107.237427 95.848648C107.797897 96.409134,108.558044 96.724075,109.350739 96.724075C110.143433 96.724075,110.903580 96.409134,111.464050 95.848648C112.024536 95.288177,112.339478 94.528030,112.339478 93.735336Z" style="fill: rgb(100.000000%,100.000000%,100.000000%);stroke: none;"></path>
  <path d="M105.034378 87.364273C105.034378 86.571579,104.719437 85.811432,104.158951 85.250961C103.598480 84.690475,102.838333 84.375534,102.045639 84.375534C101.252945 84.375534,100.492798 84.690475,99.932327 85.250961C99.371841 85.811432,99.056900 86.571579,99.056900 87.364273C99.056900 88.156967,99.371841 88.917114,99.932327 89.477585C100.492798 90.038071,101.252945 90.353012,102.045639 90.353012C102.838333 90.353012,103.598480 90.038071,104.158951 89.477585C104.719437 88.917114,105.034378 88.156967,105.034378 87.364273Z" style="fill: rgb(100.000000%,100.000000%,100.000000%);stroke: none;"></path>
  <path d="M126.067215 106.353867C126.067215 105.561172,125.752274 104.801025,125.191788 104.240555C124.631317 103.680069,123.871170 103.365128,123.078476 103.365128C122.285782 103.365128,121.525635 103.680069,120.965164 104.240555C120.404678 104.801025,120.089737 105.561172,120.089737 106.353867C120.089737 107.146561,120.404678 107.906708,120.965164 108.467178C121.525635 109.027664,122.285782 109.342606,123.078476 109.342606C123.871170 109.342606,124.631317 109.027664,125.191788 108.467178C125.752274 107.906708,126.067215 107.146561,126.067215 106.353867Z" style="fill: rgb(100.000000%,100.000000%,100.000000%);stroke: none;"></path>
  <path d="M116.506027 96.979065C116.506027 96.186371,116.191086 95.426224,115.630600 94.865753C115.070129 94.305267,114.309982 93.990326,113.517288 93.990326C112.724594 93.990326,111.964447 94.305267,111.403976 94.865753C110.843491 95.426224,110.528549 96.186371,110.528549 96.979065C110.528549 97.771759,110.843491 98.531906,111.403976 99.092377C111.964447 99.652863,112.724594 99.967804,113.517288 99.967804C114.309982 99.967804,115.070129 99.652863,115.630600 99.092377C116.191086 98.531906,116.506027 97.771759,116.506027 96.979065Z" style="fill: rgb(100.000000%,100.000000%,100.000000%);stroke: none;"></path>
  <path d="M146.519577 129.098022C146.519577 128.305328,146.204636 127.545181,145.644150 126.984711C145.083679 126.424225,144.323532 126.109283,143.530838 126.109283C142.738144 126.109283,141.977997 126.424225,141.417526 126.984711C140.857040 127.545181,140.542099 128.305328,140.542099 129.098022C140.542099 129.890717,140.857040 130.650864,141.417526 131.211334C141.977997 131.771820,142.738144 132.086761,143.530838 132.086761C144.323532 132.086761,145.083679 131.771820,145.644150 131.211334C146.204636 130.650864,146.519577 129.890717,146.519577 129.098022Z" style="fill: rgb(100.000000%,100.000000%,100.000000%);stroke: none;"></path>
  <path d="M130.816956 113.007156C130.816956 112.214462,130.502014 111.454315,129.941528 110.893845C129.381058 110.333359,128.620911 110.018417,127.828217 110.018417C127.035522 110.018417,126.275375 110.333359,125.714905 110.893845C125.154419 111.454315,124.839478 112.214462,124.839478 113.007156C124.839478 113.799850,125.154419 114.559998,125.714905 115.120468C126.275375 115.680954,127.035522 115.995895,127.828217 115.995895C128.620911 115.995895,129.381058 115.680954,129.941528 115.120468C130.502014 114.559998,130.816956 113.799850,130.816956 113.007156Z" style="fill: rgb(100.000000%,100.000000%,100.000000%);stroke: none;"></path>
  <path d="M165.136383 172.148743C165.136383 171.356049,164.821442 170.595901,164.260956 170.035431C163.700485 169.474945,162.940338 169.160004,162.147644 169.160004C161.354950 169.160004,160.594803 169.474945,160.034332 170.035431C159.473846 170.595901,159.158905 171.356049,159.158905 172.148743C159.158905 172.941437,159.473846 173.701584,160.034332 174.262054C160.594803 174.822540,161.354950 175.137482,162.147644 175.137482C162.940338 175.137482,163.700485 174.822540,164.260956 174.262054C164.821442 173.701584,165.136383 172.941437,165.136383 172.148743Z" style="fill: rgb(100.000000%,100.000000%,100.000000%);stroke: none;"></path>
  <path d="M159.755356 137.703644C159.755356 136.910950,159.440414 136.150803,158.879929 135.590332C158.319458 135.029846,157.559311 134.714905,156.766617 134.714905C155.973923 134.714905,155.213776 135.029846,154.653305 135.590332C154.092819 136.150803,153.777878 136.910950,153.777878 137.703644C153.777878 138.496338,154.092819 139.256485,154.653305 139.816956C155.213776 140.377441,155.973923 140.692383,156.766617 140.692383C157.559311 140.692383,158.319458 140.377441,158.879929 139.816956C159.440414 139.256485,159.755356 138.496338,159.755356 137.703644Z" style="fill: rgb(100.000000%,100.000000%,100.000000%);stroke: none;"></path>
  <path d="M102.276611 196.203384C102.276611 195.410690,101.961670 194.650543,101.401184 194.090073C100.840714 193.529587,100.080566 193.214645,99.287872 193.214645C98.495178 193.214645,97.735031 193.529587,97.174561 194.090073C96.614075 194.650543,96.299133 195.410690,96.299133 196.203384C96.299133 196.996078,96.614075 197.756226,97.174561 198.316696C97.735031 198.877182,98.495178 199.192123,99.287872 199.192123C100.080566 199.192123,100.840714 198.877182,101.401184 198.316696C101.961670 197.756226,102.276611 196.996078,102.276611 196.203384Z" style="fill: rgb(100.000000%,100.000000%,100.000000%);stroke: none;"></path>
  <path d="M146.828537 188.160950C146.828537 187.368256,146.513596 186.608109,145.953110 186.047638C145.392639 185.487152,144.632492 185.172211,143.839798 185.172211C143.047104 185.172211,142.286957 185.487152,141.726486 186.047638C141.166000 186.608109,140.851059 187.368256,140.851059 188.160950C140.851059 188.953644,141.166000 189.713791,141.726486 190.274261C142.286957 190.834747,143.047104 191.149689,143.839798 191.149689C144.632492 191.149689,145.392639 190.834747,145.953110 190.274261C146.513596 189.713791,146.828537 188.953644,146.828537 188.160950Z" style="fill: rgb(100.000000%,100.000000%,100.000000%);stroke: none;"></path>
  <path d="M71.639374 153.036453C71.639374 152.243759,71.324432 151.483612,70.763947 150.923141C70.203476 150.362656,69.443329 150.047714,68.650635 150.047714C67.857941 150.047714,67.097794 150.362656,66.537323 150.923141C65.976837 151.483612,65.661896 152.243759,65.661896 153.036453C65.661896 153.829147,65.976837 154.589294,66.537323 155.149765C67.097794 155.710251,67.857941 156.025192,68.650635 156.025192C69.443329 156.025192,70.203476 155.710251,70.763947 155.149765C71.324432 154.589294,71.639374 153.829147,71.639374 153.036453Z" style="fill: rgb(100.000000%,100.000000%,100.000000%);stroke: none;"></path>
  <path d="M78.407578 186.757782C78.407578 185.965088,78.092636 185.204941,77.532150 184.644470C76.971680 184.083984,76.211533 183.769043,75.418839 183.769043C74.626144 183.769043,73.865997 184.083984,73.305527 184.644470C72.745041 185.204941,72.430099 185.965088,72.430099 186.757782C72.430099 187.550476,72.745041 188.310623,73.305527 188.871094C73.865997 189.431580,74.626144 189.746521,75.418839 189.746521C76.211533 189.746521,76.971680 189.431580,77.532150 188.871094C78.092636 188.310623,78.407578 187.550476,78.407578 186.757782Z" style="fill: rgb(100.000000%,100.000000%,100.000000%);stroke: none;"></path>
  <path d="M84.217773 122.716614C84.217773 121.923920,83.902832 121.163773,83.342346 120.603302C82.781876 120.042816,82.021729 119.727875,81.229034 119.727875C80.436340 119.727875,79.676193 120.042816,79.115723 120.603302C78.555237 121.163773,78.240295 121.923920,78.240295 122.716614C78.240295 123.509308,78.555237 124.269455,79.115723 124.829926C79.676193 125.390411,80.436340 125.705353,81.229034 125.705353C82.021729 125.705353,82.781876 125.390411,83.342346 124.829926C83.902832 124.269455,84.217773 123.509308,84.217773 122.716614Z" style="fill: rgb(100.000000%,100.000000%,100.000000%);stroke: none;"></path>
  <path d="M78.376938 141.124924C78.376938 140.332230,78.061996 139.572083,77.501511 139.011612C76.941040 138.451126,76.180893 138.136185,75.388199 138.136185C74.595505 138.136185,73.835358 138.451126,73.274887 139.011612C72.714401 139.572083,72.399460 140.332230,72.399460 141.124924C72.399460 141.917618,72.714401 142.677765,73.274887 143.238235C73.835358 143.798721,74.595505 144.113663,75.388199 144.113663C76.180893 144.113663,76.941040 143.798721,77.501511 143.238235C78.061996 142.677765,78.376938 141.917618,78.376938 141.124924Z" style="fill: rgb(100.000000%,100.000000%,100.000000%);stroke: none;"></path>
  <path d="M88.591171 107.361053C88.591171 106.568359,88.276230 105.808212,87.715744 105.247742C87.155273 104.687256,86.395126 104.372314,85.602432 104.372314C84.809738 104.372314,84.049591 104.687256,83.489120 105.247742C82.928635 105.808212,82.613693 106.568359,82.613693 107.361053C82.613693 108.153748,82.928635 108.913895,83.489120 109.474365C84.049591 110.034851,84.809738 110.349792,85.602432 110.349792C86.395126 110.349792,87.155273 110.034851,87.715744 109.474365C88.276230 108.913895,88.591171 108.153748,88.591171 107.361053Z" style="fill: rgb(100.000000%,100.000000%,100.000000%);stroke: none;"></path>
  <path d="M85.431976 116.234390C85.431976 115.441696,85.117035 114.681549,84.556549 114.121078C83.996078 113.560593,83.235931 113.245651,82.443237 113.245651C81.650543 113.245651,80.890396 113.560593,80.329926 114.121078C79.769440 114.681549,79.454498 115.441696,79.454498 116.234390C79.454498 117.027084,79.769440 117.787231,80.329926 118.347702C80.890396 118.908188,81.650543 119.223129,82.443237 119.223129C83.235931 119.223129,83.996078 118.908188,84.556549 118.347702C85.117035 117.787231,85.431976 117.027084,85.431976 116.234390Z" style="fill: rgb(100.000000%,100.000000%,100.000000%);stroke: none;"></path>
  <path d="M86.586670 99.128906C86.586670 98.336212,86.271729 97.576065,85.711243 97.015594C85.150772 96.455109,84.390625 96.140167,83.597931 96.140167C82.805237 96.140167,82.045090 96.455109,81.484619 97.015594C80.924133 97.576065,80.609192 98.336212,80.609192 99.128906C80.609192 99.921600,80.924133 100.681747,81.484619 101.242218C82.045090 101.802704,82.805237 102.117645,83.597931 102.117645C84.390625 102.117645,85.150772 101.802704,85.711243 101.242218C86.271729 100.681747,86.586670 99.921600,86.586670 99.128906Z" style="fill: rgb(100.000000%,100.000000%,100.000000%);stroke: none;"></path>
  <path d="M89.657166 104.439178C89.657166 103.646484,89.342224 102.886337,88.781738 102.325867C88.221268 101.765381,87.461121 101.450439,86.668427 101.450439C85.875732 101.450439,85.115585 101.765381,84.555115 102.325867C83.994629 102.886337,83.679688 103.646484,83.679688 104.439178C83.679688 105.231873,83.994629 105.992020,84.555115 106.552490C85.115585 107.112976,85.875732 107.427917,86.668427 107.427917C87.461121 107.427917,88.221268 107.112976,88.781738 106.552490C89.342224 105.992020,89.657166 105.231873,89.657166 104.439178Z" style="fill: rgb(100.000000%,100.000000%,100.000000%);stroke: none;"></path>
  <path d="M72.198532 97.663345C72.198532 96.870651,71.883591 96.110504,71.323105 95.550034C70.762634 94.989548,70.002487 94.674606,69.209793 94.674606C68.417099 94.674606,67.656952 94.989548,67.096481 95.550034C66.535995 96.110504,66.221054 96.870651,66.221054 97.663345C66.221054 98.456039,66.535995 99.216187,67.096481 99.776657C67.656952 100.337143,68.417099 100.652084,69.209793 100.652084C70.002487 100.652084,70.762634 100.337143,71.323105 99.776657C71.883591 99.216187,72.198532 98.456039,72.198532 97.663345Z" style="fill: rgb(100.000000%,100.000000%,100.000000%);stroke: none;"></path>
  <path d="M82.878555 98.924133C82.878555 98.131439,82.563614 97.371292,82.003128 96.810822C81.442657 96.250336,80.682510 95.935394,79.889816 95.935394C79.097122 95.935394,78.336975 96.250336,77.776505 96.810822C77.216019 97.371292,76.901077 98.131439,76.901077 98.924133C76.901077 99.716827,77.216019 100.476974,77.776505 101.037445C78.336975 101.597931,79.097122 101.912872,79.889816 101.912872C80.682510 101.912872,81.442657 101.597931,82.003128 101.037445C82.563614 100.476974,82.878555 99.716827,82.878555 98.924133Z" style="fill: rgb(100.000000%,100.000000%,100.000000%);stroke: none;"></path>
  <path d="M44.852997 88.246841C44.852997 87.454147,44.538055 86.694000,43.977570 86.133530C43.417099 85.573044,42.656952 85.258102,41.864258 85.258102C41.071564 85.258102,40.311417 85.573044,39.750946 86.133530C39.190460 86.694000,38.875519 87.454147,38.875519 88.246841C38.875519 89.039536,39.190460 89.799683,39.750946 90.360153C40.311417 90.920639,41.071564 91.235580,41.864258 91.235580C42.656952 91.235580,43.417099 90.920639,43.977570 90.360153C44.538055 89.799683,44.852997 89.039536,44.852997 88.246841Z" style="fill: rgb(100.000000%,100.000000%,100.000000%);stroke: none;"></path>
  <path d="M65.431915 94.318863C65.431915 93.526169,65.116974 92.766022,64.556488 92.205551C63.996017 91.645065,63.235870 91.330124,62.443176 91.330124C61.650482 91.330124,60.890335 91.645065,60.329865 92.205551C59.769379 92.766022,59.454437 93.526169,59.454437 94.318863C59.454437 95.111557,59.769379 95.871704,60.329865 96.432175C60.890335 96.992661,61.650482 97.307602,62.443176 97.307602C63.235870 97.307602,63.996017 96.992661,64.556488 96.432175C65.116974 95.871704,65.431915 95.111557,65.431915 94.318863Z" style="fill: rgb(100.000000%,100.000000%,100.000000%);stroke: none;"></path>
  <path d="M9.210648 64.397049C9.210648 63.604355,8.895706 62.844208,8.335220 62.283737C7.774750 61.723251,7.014603 61.408310,6.221909 61.408310C5.429214 61.408310,4.669067 61.723251,4.108597 62.283737C3.548111 62.844208,3.233170 63.604355,3.233170 64.397049C3.233170 65.189743,3.548111 65.949890,4.108597 66.510361C4.669067 67.070847,5.429214 67.385788,6.221909 67.385788C7.014603 67.385788,7.774750 67.070847,8.335220 66.510361C8.895706 65.949890,9.210648 65.189743,9.210648 64.397049Z" style="fill: rgb(100.000000%,100.000000%,100.000000%);stroke: none;"></path>
  <path d="M29.266205 88.111282C29.266205 87.318588,28.951263 86.558441,28.390778 85.997971C27.830307 85.437485,27.070160 85.122543,26.277466 85.122543C25.484772 85.122543,24.724625 85.437485,24.164154 85.997971C23.603668 86.558441,23.288727 87.318588,23.288727 88.111282C23.288727 88.903976,23.603668 89.664124,24.164154 90.224594C24.724625 90.785080,25.484772 91.100021,26.277466 91.100021C27.070160 91.100021,27.830307 90.785080,28.390778 90.224594C28.951263 89.664124,29.266205 88.903976,29.266205 88.111282Z" style="fill: rgb(100.000000%,100.000000%,100.000000%);stroke: none;"></path>
  <path d="M35.892166 18.877441C35.892166 18.084747,35.577225 17.324600,35.016739 16.764130C34.456268 16.203644,33.696121 15.888702,32.903427 15.888702C32.110733 15.888702,31.350586 16.203644,30.790115 16.764130C30.229630 17.324600,29.914688 18.084747,29.914688 18.877441C29.914688 19.670135,30.229630 20.430283,30.790115 20.990753C31.350586 21.551239,32.110733 21.866180,32.903427 21.866180C33.696121 21.866180,34.456268 21.551239,35.016739 20.990753C35.577225 20.430283,35.892166 19.670135,35.892166 18.877441Z" style="fill: rgb(100.000000%,100.000000%,100.000000%);stroke: none;"></path>
  <path d="M13.304291 45.387497C13.304291 44.594803,12.989349 43.834656,12.428864 43.274185C11.868393 42.713699,11.108246 42.398758,10.315552 42.398758C9.522858 42.398758,8.762711 42.713699,8.202240 43.274185C7.641754 43.834656,7.326813 44.594803,7.326813 45.387497C7.326813 46.180191,7.641754 46.940338,8.202240 47.500809C8.762711 48.061295,9.522858 48.376236,10.315552 48.376236C11.108246 48.376236,11.868393 48.061295,12.428864 47.500809C12.989349 46.940338,13.304291 46.180191,13.304291 45.387497Z" style="fill: rgb(100.000000%,100.000000%,100.000000%);stroke: none;"></path>
  <path d="M78.671051 17.682129C78.671051 16.889435,78.356110 16.129288,77.795624 15.568817C77.235153 15.008331,76.475006 14.693390,75.682312 14.693390C74.889618 14.693390,74.129471 15.008331,73.569000 15.568817C73.008514 16.129288,72.693573 16.889435,72.693573 17.682129C72.693573 18.474823,73.008514 19.234970,73.569000 19.795441C74.129471 20.355927,74.889618 20.670868,75.682312 20.670868C76.475006 20.670868,77.235153 20.355927,77.795624 19.795441C78.356110 19.234970,78.671051 18.474823,78.671051 17.682129Z" style="fill: rgb(100.000000%,100.000000%,100.000000%);stroke: none;"></path>
  <path d="M52.603333 11.300812C52.603333 10.508118,52.288391 9.747971,51.727905 9.187500C51.167435 8.627014,50.407288 8.312073,49.614594 8.312073C48.821899 8.312073,48.061752 8.627014,47.501282 9.187500C46.940796 9.747971,46.625854 10.508118,46.625854 11.300812C46.625854 12.093506,46.940796 12.853653,47.501282 13.414124C48.061752 13.974609,48.821899 14.289551,49.614594 14.289551C50.407288 14.289551,51.167435 13.974609,51.727905 13.414124C52.288391 12.853653,52.603333 12.093506,52.603333 11.300812Z" style="fill: rgb(100.000000%,100.000000%,100.000000%);stroke: none;"></path>
  <path d="M81.322891 37.217804C81.322891 36.425110,81.007950 35.664963,80.447464 35.104492C79.886993 34.544006,79.126846 34.229065,78.334152 34.229065C77.541458 34.229065,76.781311 34.544006,76.220840 35.104492C75.660355 35.664963,75.345413 36.425110,75.345413 37.217804C75.345413 38.010498,75.660355 38.770645,76.220840 39.331116C76.781311 39.891602,77.541458 40.206543,78.334152 40.206543C79.126846 40.206543,79.886993 39.891602,80.447464 39.331116C81.007950 38.770645,81.322891 38.010498,81.322891 37.217804Z" style="fill: rgb(100.000000%,100.000000%,100.000000%);stroke: none;"></path>
  <path d="M86.070129 25.570419C86.070129 24.777725,85.755188 24.017578,85.194702 23.457108C84.634232 22.896622,83.874084 22.581680,83.081390 22.581680C82.288696 22.581680,81.528549 22.896622,80.968079 23.457108C80.407593 24.017578,80.092651 24.777725,80.092651 25.570419C80.092651 26.363113,80.407593 27.123260,80.968079 27.683731C81.528549 28.244217,82.288696 28.559158,83.081390 28.559158C83.874084 28.559158,84.634232 28.244217,85.194702 27.683731C85.755188 27.123260,86.070129 26.363113,86.070129 25.570419Z" style="fill: rgb(100.000000%,100.000000%,100.000000%);stroke: none;"></path>
  <path d="M71.456207 42.148697C71.456207 41.356003,71.141266 40.595856,70.580780 40.035385C70.020309 39.474899,69.260162 39.159958,68.467468 39.159958C67.674774 39.159958,66.914627 39.474899,66.354156 40.035385C65.793671 40.595856,65.478729 41.356003,65.478729 42.148697C65.478729 42.941391,65.793671 43.701538,66.354156 44.262009C66.914627 44.822495,67.674774 45.137436,68.467468 45.137436C69.260162 45.137436,70.020309 44.822495,70.580780 44.262009C71.141266 43.701538,71.456207 42.941391,71.456207 42.148697Z" style="fill: rgb(100.000000%,100.000000%,100.000000%);stroke: none;"></path>
  <path d="M77.657394 39.276825C77.657394 38.484131,77.342453 37.723984,76.781967 37.163513C76.221497 36.603027,75.461349 36.288086,74.668655 36.288086C73.875961 36.288086,73.115814 36.603027,72.555344 37.163513C71.994858 37.723984,71.679916 38.484131,71.679916 39.276825C71.679916 40.069519,71.994858 40.829666,72.555344 41.390137C73.115814 41.950623,73.875961 42.265564,74.668655 42.265564C75.461349 42.265564,76.221497 41.950623,76.781967 41.390137C77.342453 40.829666,77.657394 40.069519,77.657394 39.276825Z" style="fill: rgb(100.000000%,100.000000%,100.000000%);stroke: none;"></path>
  <path d="M68.398865 49.390228C68.398865 48.597534,68.083923 47.837387,67.523438 47.276917C66.962967 46.716431,66.202820 46.401489,65.410126 46.401489C64.617432 46.401489,63.857285 46.716431,63.296814 47.276917C62.736328 47.837387,62.421387 48.597534,62.421387 49.390228C62.421387 50.182922,62.736328 50.943069,63.296814 51.503540C63.857285 52.064026,64.617432 52.378967,65.410126 52.378967C66.202820 52.378967,66.962967 52.064026,67.523438 51.503540C68.083923 50.943069,68.398865 50.182922,68.398865 49.390228Z" style="fill: rgb(100.000000%,100.000000%,100.000000%);stroke: none;"></path>
  <path d="M68.692398 43.662003C68.692398 42.869308,68.377457 42.109161,67.816971 41.548691C67.256500 40.988205,66.496353 40.673264,65.703659 40.673264C64.910965 40.673264,64.150818 40.988205,63.590347 41.548691C63.029861 42.109161,62.714920 42.869308,62.714920 43.662003C62.714920 44.454697,63.029861 45.214844,63.590347 45.775314C64.150818 46.335800,64.910965 46.650742,65.703659 46.650742C66.496353 46.650742,67.256500 46.335800,67.816971 45.775314C68.377457 45.214844,68.692398 44.454697,68.692398 43.662003Z" style="fill: rgb(100.000000%,100.000000%,100.000000%);stroke: none;"></path>
  <path d="M78.493683 54.985077C78.493683 54.192383,78.178741 53.432236,77.618256 52.871765C77.057785 52.311279,76.297638 51.996338,75.504944 51.996338C74.712250 51.996338,73.952103 52.311279,73.391632 52.871765C72.831146 53.432236,72.516205 54.192383,72.516205 54.985077C72.516205 55.777771,72.831146 56.537918,73.391632 57.098389C73.952103 57.658875,74.712250 57.973816,75.504944 57.973816C76.297638 57.973816,77.057785 57.658875,77.618256 57.098389C78.178741 56.537918,78.493683 55.777771,78.493683 54.985077Z" style="fill: rgb(100.000000%,100.000000%,100.000000%);stroke: none;"></path>
  <path d="M71.328293 51.173813C71.328293 50.381119,71.013351 49.620972,70.452866 49.060501C69.892395 48.500015,69.132248 48.185074,68.339554 48.185074C67.546860 48.185074,66.786713 48.500015,66.226242 49.060501C65.665756 49.620972,65.350815 50.381119,65.350815 51.173813C65.350815 51.966507,65.665756 52.726654,66.226242 53.287125C66.786713 53.847610,67.546860 54.162552,68.339554 54.162552C69.132248 54.162552,69.892395 53.847610,70.452866 53.287125C71.013351 52.726654,71.328293 51.966507,71.328293 51.173813Z" style="fill: rgb(100.000000%,100.000000%,100.000000%);stroke: none;"></path>
  <path d="M90.762833 63.844620C90.762833 63.051926,90.447891 62.291779,89.887405 61.731308C89.326935 61.170822,88.566788 60.855881,87.774094 60.855881C86.981400 60.855881,86.221252 61.170822,85.660782 61.731308C85.100296 62.291779,84.785355 63.051926,84.785355 63.844620C84.785355 64.637314,85.100296 65.397461,85.660782 65.957932C86.221252 66.518417,86.981400 66.833359,87.774094 66.833359C88.566788 66.833359,89.326935 66.518417,89.887405 65.957932C90.447891 65.397461,90.762833 64.637314,90.762833 63.844620Z" style="fill: rgb(100.000000%,100.000000%,100.000000%);stroke: none;"></path>
  <path d="M82.639359 57.859756C82.639359 57.067062,82.324417 56.306915,81.763931 55.746445C81.203461 55.185959,80.443314 54.871017,79.650620 54.871017C78.857925 54.871017,78.097778 55.185959,77.537308 55.746445C76.976822 56.306915,76.661880 57.067062,76.661880 57.859756C76.661880 58.652451,76.976822 59.412598,77.537308 59.973068C78.097778 60.533554,78.857925 60.848495,79.650620 60.848495C80.443314 60.848495,81.203461 60.533554,81.763931 59.973068C82.324417 59.412598,82.639359 58.652451,82.639359 57.859756Z" style="fill: rgb(100.000000%,100.000000%,100.000000%);stroke: none;"></path>
  <path d="M101.906448 71.273712C101.906448 70.481018,101.591507 69.720871,101.031021 69.160400C100.470551 68.599915,99.710403 68.284973,98.917709 68.284973C98.125015 68.284973,97.364868 68.599915,96.804398 69.160400C96.243912 69.720871,95.928970 70.481018,95.928970 71.273712C95.928970 72.066406,96.243912 72.826553,96.804398 73.387024C97.364868 73.947510,98.125015 74.262451,98.917709 74.262451C99.710403 74.262451,100.470551 73.947510,101.031021 73.387024C101.591507 72.826553,101.906448 72.066406,101.906448 71.273712Z" style="fill: rgb(100.000000%,100.000000%,100.000000%);stroke: none;"></path>
  <path d="M94.753601 66.964462C94.753601 66.171768,94.438660 65.411621,93.878174 64.851151C93.317703 64.290665,92.557556 63.975723,91.764862 63.975723C90.972168 63.975723,90.212021 64.290665,89.651550 64.851151C89.091064 65.411621,88.776123 66.171768,88.776123 66.964462C88.776123 67.757156,89.091064 68.517303,89.651550 69.077774C90.212021 69.638260,90.972168 69.953201,91.764862 69.953201C92.557556 69.953201,93.317703 69.638260,93.878174 69.077774C94.438660 68.517303,94.753601 67.757156,94.753601 66.964462Z" style="fill: rgb(100.000000%,100.000000%,100.000000%);stroke: none;"></path>
  <path d="M104.257614 79.586517C104.257614 78.793823,103.942673 78.033676,103.382187 77.473206C102.821716 76.912720,102.061569 76.597778,101.268875 76.597778C100.476181 76.597778,99.716034 76.912720,99.155563 77.473206C98.595078 78.033676,98.280136 78.793823,98.280136 79.586517C98.280136 80.379211,98.595078 81.139359,99.155563 81.699829C99.716034 82.260315,100.476181 82.575256,101.268875 82.575256C102.061569 82.575256,102.821716 82.260315,103.382187 81.699829C103.942673 81.139359,104.257614 80.379211,104.257614 79.586517Z" style="fill: rgb(100.000000%,100.000000%,100.000000%);stroke: none;"></path>
  <path d="M104.944458 73.338043C104.944458 72.545349,104.629517 71.785202,104.069031 71.224731C103.508560 70.664246,102.748413 70.349304,101.955719 70.349304C101.163025 70.349304,100.402878 70.664246,99.842407 71.224731C99.281921 71.785202,98.966980 72.545349,98.966980 73.338043C98.966980 74.130737,99.281921 74.890884,99.842407 75.451355C100.402878 76.011841,101.163025 76.326782,101.955719 76.326782C102.748413 76.326782,103.508560 76.011841,104.069031 75.451355C104.629517 74.890884,104.944458 74.130737,104.944458 73.338043Z" style="fill: rgb(100.000000%,100.000000%,100.000000%);stroke: none;"></path>
  <path d="M93.943619 83.671936C93.943619 82.879242,93.628677 82.119095,93.068192 81.558624C92.507721 80.998138,91.747574 80.683197,90.954880 80.683197C90.162186 80.683197,89.402039 80.998138,88.841568 81.558624C88.281082 82.119095,87.966141 82.879242,87.966141 83.671936C87.966141 84.464630,88.281082 85.224777,88.841568 85.785248C89.402039 86.345734,90.162186 86.660675,90.954880 86.660675C91.747574 86.660675,92.507721 86.345734,93.068192 85.785248C93.628677 85.224777,93.943619 84.464630,93.943619 83.671936Z" style="fill: rgb(100.000000%,100.000000%,100.000000%);stroke: none;"></path>
  <path d="M100.937958 80.944824C100.937958 80.152130,100.623016 79.391983,100.062531 78.831512C99.502060 78.271027,98.741913 77.956085,97.949219 77.956085C97.156525 77.956085,96.396378 78.271027,95.835907 78.831512C95.275421 79.391983,94.960480 80.152130,94.960480 80.944824C94.960480 81.737518,95.275421 82.497665,95.835907 83.058136C96.396378 83.618622,97.156525 83.933563,97.949219 83.933563C98.741913 83.933563,99.502060 83.618622,100.062531 83.058136C100.623016 82.497665,100.937958 81.737518,100.937958 80.944824Z" style="fill: rgb(100.000000%,100.000000%,100.000000%);stroke: none;"></path>
  <path d="M84.178452 91.721771C84.178452 90.929077,83.863510 90.168930,83.303024 89.608459C82.742554 89.047974,81.982407 88.733032,81.189713 88.733032C80.397018 88.733032,79.636871 89.047974,79.076401 89.608459C78.515915 90.168930,78.200974 90.929077,78.200974 91.721771C78.200974 92.514465,78.515915 93.274612,79.076401 93.835083C79.636871 94.395569,80.397018 94.710510,81.189713 94.710510C81.982407 94.710510,82.742554 94.395569,83.303024 93.835083C83.863510 93.274612,84.178452 92.514465,84.178452 91.721771Z" style="fill: rgb(100.000000%,100.000000%,100.000000%);stroke: none;"></path>
  <path d="M90.170975 85.830475C90.170975 85.037781,89.856033 84.277634,89.295547 83.717163C88.735077 83.156677,87.974930 82.841736,87.182236 82.841736C86.389542 82.841736,85.629395 83.156677,85.068924 83.717163C84.508438 84.277634,84.193497 85.037781,84.193497 85.830475C84.193497 86.623169,84.508438 87.383316,85.068924 87.943787C85.629395 88.504272,86.389542 88.819214,87.182236 88.819214C87.974930 88.819214,88.735077 88.504272,89.295547 87.943787C89.856033 87.383316,90.170975 86.623169,90.170975 85.830475Z" style="fill: rgb(100.000000%,100.000000%,100.000000%);stroke: none;"></path>
  <path d="M77.528015 101.245193C77.528015 100.452499,77.213074 99.692352,76.652588 99.131882C76.092117 98.571396,75.331970 98.256454,74.539276 98.256454C73.746582 98.256454,72.986435 98.571396,72.425964 99.131882C71.865479 99.692352,71.550537 100.452499,71.550537 101.245193C71.550537 102.037888,71.865479 102.798035,72.425964 103.358505C72.986435 103.918991,73.746582 104.233932,74.539276 104.233932C75.331970 104.233932,76.092117 103.918991,76.652588 103.358505C77.213074 102.798035,77.528015 102.037888,77.528015 101.245193Z" style="fill: rgb(100.000000%,100.000000%,100.000000%);stroke: none;"></path>
  <path d="M82.027756 95.256042C82.027756 94.463348,81.712814 93.703201,81.152328 93.142731C80.591858 92.582245,79.831711 92.267303,79.039017 92.267303C78.246323 92.267303,77.486176 92.582245,76.925705 93.142731C76.365219 93.703201,76.050278 94.463348,76.050278 95.256042C76.050278 96.048737,76.365219 96.808884,76.925705 97.369354C77.486176 97.929840,78.246323 98.244781,79.039017 98.244781C79.831711 98.244781,80.591858 97.929840,81.152328 97.369354C81.712814 96.808884,82.027756 96.048737,82.027756 95.256042Z" style="fill: rgb(100.000000%,100.000000%,100.000000%);stroke: none;"></path>
  <path d="M78.546799 110.967972C78.546799 110.175278,78.231857 109.415131,77.671371 108.854660C77.110901 108.294174,76.350754 107.979233,75.558060 107.979233C74.765366 107.979233,74.005219 108.294174,73.444748 108.854660C72.884262 109.415131,72.569321 110.175278,72.569321 110.967972C72.569321 111.760666,72.884262 112.520813,73.444748 113.081284C74.005219 113.641769,74.765366 113.956711,75.558060 113.956711C76.350754 113.956711,77.110901 113.641769,77.671371 113.081284C78.231857 112.520813,78.546799 111.760666,78.546799 110.967972Z" style="fill: rgb(100.000000%,100.000000%,100.000000%);stroke: none;"></path>
  <path d="M75.375977 104.347107C75.375977 103.554413,75.061035 102.794266,74.500549 102.233795C73.940079 101.673309,73.179932 101.358368,72.387238 101.358368C71.594543 101.358368,70.834396 101.673309,70.273926 102.233795C69.713440 102.794266,69.398499 103.554413,69.398499 104.347107C69.398499 105.139801,69.713440 105.899948,70.273926 106.460419C70.834396 107.020905,71.594543 107.335846,72.387238 107.335846C73.179932 107.335846,73.940079 107.020905,74.500549 106.460419C75.061035 105.899948,75.375977 105.139801,75.375977 104.347107Z" style="fill: rgb(100.000000%,100.000000%,100.000000%);stroke: none;"></path>
  <path d="M93.243469 109.533081C93.243469 108.740387,92.928528 107.980240,92.368042 107.419769C91.807571 106.859283,91.047424 106.544342,90.254730 106.544342C89.462036 106.544342,88.701889 106.859283,88.141418 107.419769C87.580933 107.980240,87.265991 108.740387,87.265991 109.533081C87.265991 110.325775,87.580933 111.085922,88.141418 111.646393C88.701889 112.206879,89.462036 112.521820,90.254730 112.521820C91.047424 112.521820,91.807571 112.206879,92.368042 111.646393C92.928528 111.085922,93.243469 110.325775,93.243469 109.533081Z" style="fill: rgb(100.000000%,100.000000%,100.000000%);stroke: none;"></path>
  <path d="M83.386993 110.443802C83.386993 109.651108,83.072052 108.890961,82.511566 108.330490C81.951096 107.770004,81.190948 107.455063,80.398254 107.455063C79.605560 107.455063,78.845413 107.770004,78.284943 108.330490C77.724457 108.890961,77.409515 109.651108,77.409515 110.443802C77.409515 111.236496,77.724457 111.996643,78.284943 112.557114C78.845413 113.117599,79.605560 113.432541,80.398254 113.432541C81.190948 113.432541,81.951096 113.117599,82.511566 112.557114C83.072052 111.996643,83.386993 111.236496,83.386993 110.443802Z" style="fill: rgb(100.000000%,100.000000%,100.000000%);stroke: none;"></path>
  <path d="M110.477203 108.277847C110.477203 107.485153,110.162262 106.725006,109.601776 106.164536C109.041306 105.604050,108.281158 105.289108,107.488464 105.289108C106.695770 105.289108,105.935623 105.604050,105.375153 106.164536C104.814667 106.725006,104.499725 107.485153,104.499725 108.277847C104.499725 109.070541,104.814667 109.830688,105.375153 110.391159C105.935623 110.951645,106.695770 111.266586,107.488464 111.266586C108.281158 111.266586,109.041306 110.951645,109.601776 110.391159C110.162262 109.830688,110.477203 109.070541,110.477203 108.277847Z" style="fill: rgb(100.000000%,100.000000%,100.000000%);stroke: none;"></path>
  <path d="M98.945267 110.688599C98.945267 109.895905,98.630325 109.135757,98.069839 108.575287C97.509369 108.014801,96.749222 107.699860,95.956528 107.699860C95.163834 107.699860,94.403687 108.014801,93.843216 108.575287C93.282730 109.135757,92.967789 109.895905,92.967789 110.688599C92.967789 111.481293,93.282730 112.241440,93.843216 112.801910C94.403687 113.362396,95.163834 113.677338,95.956528 113.677338C96.749222 113.677338,97.509369 113.362396,98.069839 112.801910C98.630325 112.241440,98.945267 111.481293,98.945267 110.688599Z" style="fill: rgb(100.000000%,100.000000%,100.000000%);stroke: none;"></path>
  <path d="M126.392044 95.730942C126.392044 94.938248,126.077103 94.178101,125.516617 93.617630C124.956146 93.057144,124.195999 92.742203,123.403305 92.742203C122.610611 92.742203,121.850464 93.057144,121.289993 93.617630C120.729507 94.178101,120.414566 94.938248,120.414566 95.730942C120.414566 96.523636,120.729507 97.283783,121.289993 97.844254C121.850464 98.404739,122.610611 98.719681,123.403305 98.719681C124.195999 98.719681,124.956146 98.404739,125.516617 97.844254C126.077103 97.283783,126.392044 96.523636,126.392044 95.730942Z" style="fill: rgb(100.000000%,100.000000%,100.000000%);stroke: none;"></path>
  <path d="M115.501297 104.513855C115.501297 103.721161,115.186356 102.961014,114.625870 102.400543C114.065399 101.840057,113.305252 101.525116,112.512558 101.525116C111.719864 101.525116,110.959717 101.840057,110.399246 102.400543C109.838760 102.961014,109.523819 103.721161,109.523819 104.513855C109.523819 105.306549,109.838760 106.066696,110.399246 106.627167C110.959717 107.187653,111.719864 107.502594,112.512558 107.502594C113.305252 107.502594,114.065399 107.187653,114.625870 106.627167C115.186356 106.066696,115.501297 105.306549,115.501297 104.513855Z" style="fill: rgb(100.000000%,100.000000%,100.000000%);stroke: none;"></path>
  <path d="M149.171616 76.922379C149.171616 76.129684,148.856674 75.369537,148.296188 74.809067C147.735718 74.248581,146.975571 73.933640,146.182877 73.933640C145.390182 73.933640,144.630035 74.248581,144.069565 74.809067C143.509079 75.369537,143.194138 76.129684,143.194138 76.922379C143.194138 77.715073,143.509079 78.475220,144.069565 79.035690C144.630035 79.596176,145.390182 79.911118,146.182877 79.911118C146.975571 79.911118,147.735718 79.596176,148.296188 79.035690C148.856674 78.475220,149.171616 77.715073,149.171616 76.922379Z" style="fill: rgb(100.000000%,100.000000%,100.000000%);stroke: none;"></path>
  <path d="M132.323349 90.560303C132.323349 89.767609,132.008408 89.007462,131.447922 88.446991C130.887451 87.886505,130.127304 87.571564,129.334610 87.571564C128.541916 87.571564,127.781769 87.886505,127.221298 88.446991C126.660812 89.007462,126.345871 89.767609,126.345871 90.560303C126.345871 91.352997,126.660812 92.113144,127.221298 92.673615C127.781769 93.234100,128.541916 93.549042,129.334610 93.549042C130.127304 93.549042,130.887451 93.234100,131.447922 92.673615C132.008408 92.113144,132.323349 91.352997,132.323349 90.560303Z" style="fill: rgb(100.000000%,100.000000%,100.000000%);stroke: none;"></path>
  <path d="M163.582962 33.659515C163.582962 32.866821,163.268021 32.106674,162.707535 31.546204C162.147064 30.985718,161.386917 30.670776,160.594223 30.670776C159.801529 30.670776,159.041382 30.985718,158.480911 31.546204C157.920425 32.106674,157.605484 32.866821,157.605484 33.659515C157.605484 34.452209,157.920425 35.212357,158.480911 35.772827C159.041382 36.333313,159.801529 36.648254,160.594223 36.648254C161.386917 36.648254,162.147064 36.333313,162.707535 35.772827C163.268021 35.212357,163.582962 34.452209,163.582962 33.659515Z" style="fill: rgb(100.000000%,100.000000%,100.000000%);stroke: none;"></path>
  <path d="M160.912872 67.690857C160.912872 66.898163,160.597931 66.138016,160.037445 65.577545C159.476974 65.017059,158.716827 64.702118,157.924133 64.702118C157.131439 64.702118,156.371292 65.017059,155.810822 65.577545C155.250336 66.138016,154.935394 66.898163,154.935394 67.690857C154.935394 68.483551,155.250336 69.243698,155.810822 69.804169C156.371292 70.364655,157.131439 70.679596,157.924133 70.679596C158.716827 70.679596,159.476974 70.364655,160.037445 69.804169C160.597931 69.243698,160.912872 68.483551,160.912872 67.690857Z" style="fill: rgb(100.000000%,100.000000%,100.000000%);stroke: none;"></path>
  <path d="M104.267792 6.703003C104.267792 5.910309,103.952850 5.150162,103.392365 4.589691C102.831894 4.029205,102.071747 3.714264,101.279053 3.714264C100.486359 3.714264,99.726212 4.029205,99.165741 4.589691C98.605255 5.150162,98.290314 5.910309,98.290314 6.703003C98.290314 7.495697,98.605255 8.255844,99.165741 8.816315C99.726212 9.376801,100.486359 9.691742,101.279053 9.691742C102.071747 9.691742,102.831894 9.376801,103.392365 8.816315C103.952850 8.255844,104.267792 7.495697,104.267792 6.703003Z" style="fill: rgb(100.000000%,100.000000%,100.000000%);stroke: none;"></path>
  <path d="M143.235504 21.047638C143.235504 20.254944,142.920563 19.494797,142.360077 18.934326C141.799606 18.373840,141.039459 18.058899,140.246765 18.058899C139.454071 18.058899,138.693924 18.373840,138.133453 18.934326C137.572968 19.494797,137.258026 20.254944,137.258026 21.047638C137.258026 21.840332,137.572968 22.600479,138.133453 23.160950C138.693924 23.721436,139.454071 24.036377,140.246765 24.036377C141.039459 24.036377,141.799606 23.721436,142.360077 23.160950C142.920563 22.600479,143.235504 21.840332,143.235504 21.047638Z" style="fill: rgb(100.000000%,100.000000%,100.000000%);stroke: none;"></path>
  <path d="M63.228455 20.834198C63.228455 20.041504,62.913513 19.281357,62.353027 18.720886C61.792557 18.160400,61.032410 17.845459,60.239716 17.845459C59.447021 17.845459,58.686874 18.160400,58.126404 18.720886C57.565918 19.281357,57.250977 20.041504,57.250977 20.834198C57.250977 21.626892,57.565918 22.387039,58.126404 22.947510C58.686874 23.507996,59.447021 23.822937,60.239716 23.822937C61.032410 23.822937,61.792557 23.507996,62.353027 22.947510C62.913513 22.387039,63.228455 21.626892,63.228455 20.834198Z" style="fill: rgb(100.000000%,100.000000%,100.000000%);stroke: none;"></path>
  <path d="M83.050140 2.145844C83.050140 1.353149,82.735199 0.593002,82.174713 0.032532C81.614243 -0.527954,80.854095 -0.842896,80.061401 -0.842896C79.268707 -0.842896,78.508560 -0.527954,77.948090 0.032532C77.387604 0.593002,77.072662 1.353149,77.072662 2.145844C77.072662 2.938538,77.387604 3.698685,77.948090 4.259155C78.508560 4.819641,79.268707 5.134583,80.061401 5.134583C80.854095 5.134583,81.614243 4.819641,82.174713 4.259155C82.735199 3.698685,83.050140 2.938538,83.050140 2.145844Z" style="fill: rgb(100.000000%,100.000000%,100.000000%);stroke: none;"></path>
  <path d="M67.163254 38.306381C67.163254 37.513687,66.848312 36.753540,66.287827 36.193069C65.727356 35.632584,64.967209 35.317642,64.174515 35.317642C63.381821 35.317642,62.621674 35.632584,62.061203 36.193069C61.500717 36.753540,61.185776 37.513687,61.185776 38.306381C61.185776 39.099075,61.500717 39.859222,62.061203 40.419693C62.621674 40.980179,63.381821 41.295120,64.174515 41.295120C64.967209 41.295120,65.727356 40.980179,66.287827 40.419693C66.848312 39.859222,67.163254 39.099075,67.163254 38.306381Z" style="fill: rgb(100.000000%,100.000000%,100.000000%);stroke: none;"></path>
  <path d="M60.550964 29.245193C60.550964 28.452499,60.236023 27.692352,59.675537 27.131882C59.115067 26.571396,58.354919 26.256454,57.562225 26.256454C56.769531 26.256454,56.009384 26.571396,55.448914 27.131882C54.888428 27.692352,54.573486 28.452499,54.573486 29.245193C54.573486 30.037888,54.888428 30.798035,55.448914 31.358505C56.009384 31.918991,56.769531 32.233932,57.562225 32.233932C58.354919 32.233932,59.115067 31.918991,59.675537 31.358505C60.236023 30.798035,60.550964 30.037888,60.550964 29.245193Z" style="fill: rgb(100.000000%,100.000000%,100.000000%);stroke: none;"></path>
  <path d="M77.073456 41.958282C77.073456 41.165588,76.758514 40.405441,76.198029 39.844971C75.637558 39.284485,74.877411 38.969543,74.084717 38.969543C73.292023 38.969543,72.531876 39.284485,71.971405 39.844971C71.410919 40.405441,71.095978 41.165588,71.095978 41.958282C71.095978 42.750977,71.410919 43.511124,71.971405 44.071594C72.531876 44.632080,73.292023 44.947021,74.084717 44.947021C74.877411 44.947021,75.637558 44.632080,76.198029 44.071594C76.758514 43.511124,77.073456 42.750977,77.073456 41.958282Z" style="fill: rgb(100.000000%,100.000000%,100.000000%);stroke: none;"></path>
  <path d="M70.603256 39.808914C70.603256 39.016220,70.288315 38.256073,69.727829 37.695602C69.167358 37.135117,68.407211 36.820175,67.614517 36.820175C66.821823 36.820175,66.061676 37.135117,65.501205 37.695602C64.940720 38.256073,64.625778 39.016220,64.625778 39.808914C64.625778 40.601608,64.940720 41.361755,65.501205 41.922226C66.061676 42.482712,66.821823 42.797653,67.614517 42.797653C68.407211 42.797653,69.167358 42.482712,69.727829 41.922226C70.288315 41.361755,70.603256 40.601608,70.603256 39.808914Z" style="fill: rgb(100.000000%,100.000000%,100.000000%);stroke: none;"></path>
  <path d="M80.644547 49.629166C80.644547 48.836472,80.329605 48.076324,79.769119 47.515854C79.208649 46.955368,78.448502 46.640427,77.655807 46.640427C76.863113 46.640427,76.102966 46.955368,75.542496 47.515854C74.982010 48.076324,74.667068 48.836472,74.667068 49.629166C74.667068 50.421860,74.982010 51.182007,75.542496 51.742477C76.102966 52.302963,76.863113 52.617905,77.655807 52.617905C78.448502 52.617905,79.208649 52.302963,79.769119 51.742477C80.329605 51.182007,80.644547 50.421860,80.644547 49.629166Z" style="fill: rgb(100.000000%,100.000000%,100.000000%);stroke: none;"></path>
  <path d="M80.352905 43.356644C80.352905 42.563950,80.037964 41.803802,79.477478 41.243332C78.917007 40.682846,78.156860 40.367905,77.364166 40.367905C76.571472 40.367905,75.811325 40.682846,75.250854 41.243332C74.690369 41.803802,74.375427 42.563950,74.375427 43.356644C74.375427 44.149338,74.690369 44.909485,75.250854 45.469955C75.811325 46.030441,76.571472 46.345383,77.364166 46.345383C78.156860 46.345383,78.917007 46.030441,79.477478 45.469955C80.037964 44.909485,80.352905 44.149338,80.352905 43.356644Z" style="fill: rgb(100.000000%,100.000000%,100.000000%);stroke: none;"></path>
  <path d="M67.973358 55.285919C67.973358 54.493225,67.658417 53.733078,67.097931 53.172607C66.537460 52.612122,65.777313 52.297180,64.984619 52.297180C64.191925 52.297180,63.431778 52.612122,62.871307 53.172607C62.310822 53.733078,61.995880 54.493225,61.995880 55.285919C61.995880 56.078613,62.310822 56.838760,62.871307 57.399231C63.431778 57.959717,64.191925 58.274658,64.984619 58.274658C65.777313 58.274658,66.537460 57.959717,67.097931 57.399231C67.658417 56.838760,67.973358 56.078613,67.973358 55.285919Z" style="fill: rgb(100.000000%,100.000000%,100.000000%);stroke: none;"></path>
  <path d="M77.161667 51.253128C77.161667 50.460434,76.846725 49.700287,76.286240 49.139816C75.725769 48.579330,74.965622 48.264389,74.172928 48.264389C73.380234 48.264389,72.620087 48.579330,72.059616 49.139816C71.499130 49.700287,71.184189 50.460434,71.184189 51.253128C71.184189 52.045822,71.499130 52.805969,72.059616 53.366440C72.620087 53.926926,73.380234 54.241867,74.172928 54.241867C74.965622 54.241867,75.725769 53.926926,76.286240 53.366440C76.846725 52.805969,77.161667 52.045822,77.161667 51.253128Z" style="fill: rgb(100.000000%,100.000000%,100.000000%);stroke: none;"></path>
  <path d="M44.928467 68.572510C44.928467 67.779816,44.613525 67.019669,44.053040 66.459198C43.492569 65.898712,42.732422 65.583771,41.939728 65.583771C41.147034 65.583771,40.386887 65.898712,39.826416 66.459198C39.265930 67.019669,38.950989 67.779816,38.950989 68.572510C38.950989 69.365204,39.265930 70.125351,39.826416 70.685822C40.386887 71.246307,41.147034 71.561249,41.939728 71.561249C42.732422 71.561249,43.492569 71.246307,44.053040 70.685822C44.613525 70.125351,44.928467 69.365204,44.928467 68.572510Z" style="fill: rgb(100.000000%,100.000000%,100.000000%);stroke: none;"></path>
  <path d="M62.894485 59.763214C62.894485 58.970520,62.579544 58.210373,62.019058 57.649902C61.458588 57.089417,60.698441 56.774475,59.905746 56.774475C59.113052 56.774475,58.352905 57.089417,57.792435 57.649902C57.231949 58.210373,56.917007 58.970520,56.917007 59.763214C56.917007 60.555908,57.231949 61.316055,57.792435 61.876526C58.352905 62.437012,59.113052 62.751953,59.905746 62.751953C60.698441 62.751953,61.458588 62.437012,62.019058 61.876526C62.579544 61.316055,62.894485 60.555908,62.894485 59.763214Z" style="fill: rgb(100.000000%,100.000000%,100.000000%);stroke: none;"></path>
  <path d="M5.875717 90.758484C5.875717 89.965790,5.560776 89.205643,5.000290 88.645172C4.439819 88.084686,3.679672 87.769745,2.886978 87.769745C2.094284 87.769745,1.334137 88.084686,0.773666 88.645172C0.213181 89.205643,-0.101761 89.965790,-0.101761 90.758484C-0.101761 91.551178,0.213181 92.311325,0.773666 92.871796C1.334137 93.432281,2.094284 93.747223,2.886978 93.747223C3.679672 93.747223,4.439819 93.432281,5.000290 92.871796C5.560776 92.311325,5.875717 91.551178,5.875717 90.758484Z" style="fill: rgb(100.000000%,100.000000%,100.000000%);stroke: none;"></path>
  <path d="M29.931808 67.961578C29.931808 67.168884,29.616867 66.408737,29.056381 65.848267C28.495911 65.287781,27.735764 64.972839,26.943069 64.972839C26.150375 64.972839,25.390228 65.287781,24.829758 65.848267C24.269272 66.408737,23.954330 67.168884,23.954330 67.961578C23.954330 68.754272,24.269272 69.514420,24.829758 70.074890C25.390228 70.635376,26.150375 70.950317,26.943069 70.950317C27.735764 70.950317,28.495911 70.635376,29.056381 70.074890C29.616867 69.514420,29.931808 68.754272,29.931808 67.961578Z" style="fill: rgb(100.000000%,100.000000%,100.000000%);stroke: none;"></path>
  <path d="M31.469193 155.022903C31.469193 154.230209,31.154251 153.470062,30.593765 152.909592C30.033295 152.349106,29.273148 152.034164,28.480453 152.034164C27.687759 152.034164,26.927612 152.349106,26.367142 152.909592C25.806656 153.470062,25.491714 154.230209,25.491714 155.022903C25.491714 155.815598,25.806656 156.575745,26.367142 157.136215C26.927612 157.696701,27.687759 158.011642,28.480453 158.011642C29.273148 158.011642,30.033295 157.696701,30.593765 157.136215C31.154251 156.575745,31.469193 155.815598,31.469193 155.022903Z" style="fill: rgb(100.000000%,100.000000%,100.000000%);stroke: none;"></path>
  <path d="M10.668991 112.917145C10.668991 112.124451,10.354050 111.364304,9.793564 110.803833C9.233093 110.243347,8.472946 109.928406,7.680252 109.928406C6.887558 109.928406,6.127411 110.243347,5.566940 110.803833C5.006454 111.364304,4.691513 112.124451,4.691513 112.917145C4.691513 113.709839,5.006454 114.469986,5.566940 115.030457C6.127411 115.590942,6.887558 115.905884,7.680252 115.905884C8.472946 115.905884,9.233093 115.590942,9.793564 115.030457C10.354050 114.469986,10.668991 113.709839,10.668991 112.917145Z" style="fill: rgb(100.000000%,100.000000%,100.000000%);stroke: none;"></path>
  <path d="M88.776260 159.497772C88.776260 158.705078,88.461319 157.944931,87.900833 157.384460C87.340363 156.823975,86.580215 156.509033,85.787521 156.509033C84.994827 156.509033,84.234680 156.823975,83.674210 157.384460C83.113724 157.944931,82.798782 158.705078,82.798782 159.497772C82.798782 160.290466,83.113724 161.050613,83.674210 161.611084C84.234680 162.171570,84.994827 162.486511,85.787521 162.486511C86.580215 162.486511,87.340363 162.171570,87.900833 161.611084C88.461319 161.050613,88.776260 160.290466,88.776260 159.497772Z" style="fill: rgb(100.000000%,100.000000%,100.000000%);stroke: none;"></path>
  <path d="M52.393509 174.750717C52.393509 173.958023,52.078568 173.197876,51.518082 172.637405C50.957611 172.076920,50.197464 171.761978,49.404770 171.761978C48.612076 171.761978,47.851929 172.076920,47.291458 172.637405C46.730972 173.197876,46.416031 173.958023,46.416031 174.750717C46.416031 175.543411,46.730972 176.303558,47.291458 176.864029C47.851929 177.424515,48.612076 177.739456,49.404770 177.739456C50.197464 177.739456,50.957611 177.424515,51.518082 176.864029C52.078568 176.303558,52.393509 175.543411,52.393509 174.750717Z" style="fill: rgb(100.000000%,100.000000%,100.000000%);stroke: none;"></path>
  <path d="M112.043121 147.920166C126.361694 156.029999,143.497314 157.518814,159.000000 152.000000C180.285904 144.422409,195.321304 124.966034,195.365387 102.505081C195.409317 80.118896,180.462128 60.554703,159.000000 53.978531C144.275940 49.466949,128.439529 51.848297,114.887604 59.190689C108.582031 62.607025,102.828033 67.073624,96.096008 69.573761C92.740479 70.819946,88.991333 72.325165,88.941162 75.733551C88.894943 78.873093,92.146515 80.529160,94.959488 82.110535C98.820038 84.280838,102.045639 87.364273,105.379639 90.271988C109.350739 93.735336,113.517288 96.979065,117.280396 100.668808C123.078476 106.353867,127.828217 113.007156,133.498688 118.817825C143.530838 129.098022,156.766617 137.703644,159.000000 152.000000C162.147644 172.148743,143.839798 188.160950,122.146454 192.076996C99.287872 196.203384,75.418839 186.757782,71.176895 165.623062C68.650635 153.036453,75.388199 141.124924,79.244507 128.971161C81.229034 122.716614,82.443237 116.234390,84.644562 110.051453C85.602432 107.361053,86.668427 104.439178,85.249283 101.984848C83.597931 99.128906,79.889816 98.924133,76.576950 98.533051C69.209793 97.663345,62.443176 94.318863,55.340775 92.223221C41.864258 88.246841,26.277466 88.111282,17.113998 77.276154C6.221909 64.397049,10.315552 45.387497,21.799149 31.909882C32.903427 18.877441,49.614594 11.300812,66.076920 15.330750C75.682312 17.682129,83.081390 25.570419,79.834885 33.535751C78.334152 37.217804,74.668655 39.276825,71.053162 40.951218C68.467468 42.148697,65.703659 43.662003,65.562057 46.425385C65.410126 49.390228,68.339554 51.173813,71.058548 52.620041C75.504944 54.985077,79.650620 57.859756,83.704300 60.846252C87.774094 63.844620,91.764862 66.964462,96.096008 69.573761C98.917709 71.273712,101.955719 73.338043,101.609039 76.491898C101.268875 79.586517,97.949219 80.944824,94.959488 82.110535C90.954880 83.671936,87.182236 85.830475,84.115555 88.845352C81.189713 91.721771,79.039017 95.256042,76.576950 98.533051C74.539276 101.245193,72.387238 104.347107,73.808578 107.314972C75.558060 110.967972,80.398254 110.443802,84.644562 110.051453C90.254730 109.533081,95.956528 110.688599,101.481522 109.533600C107.488464 108.277847,112.512558 104.513855,117.280396 100.668808C123.403305 95.730942,129.334610 90.560303,135.448532 85.611343C146.182877 76.922379,157.924133 67.690857,159.000000 53.978531C160.594223 33.659515,140.246765 21.047638,119.878204 13.549652C101.279053 6.703003,80.061401 2.145844,66.076920 15.330750C60.239716 20.834198,57.562225 29.245193,62.037140 35.377411C64.174515 38.306381,67.614517 39.808914,71.053162 40.951218C74.084717 41.958282,77.364166 43.356644,77.505463 46.395691C77.655807 49.629166,74.172928 51.253128,71.058548 52.620041C64.984619 55.285919,59.905746 59.763214,53.953201 62.681931C41.939728 68.572510,26.943069 67.961578,17.113998 77.276154C2.886978 90.758484,7.680252 112.917145,16.838043 131.455215C28.480453 155.022903,49.404770 174.750717,71.176895 165.623062C85.787521 159.497772,97.112991 139.463959,112.043121 147.920166" style="stroke:rgb(0.000000%,0.000000%,0.000000%); stroke-width: 0.498138;stroke-linecap: round;stroke-linejoin: round;stroke-miterlimit: 10.000000;fill: none;"></path>
  <path d="M112.043121 147.920166C126.361694 156.029999,143.497314 157.518814,159.000000 152.000000" style="stroke:rgb(0.000000%,0.000000%,0.000000%); stroke-width: 1.494400;stroke-linecap: round;stroke-linejoin: round;stroke-miterlimit: 10.000000;fill: none;"></path>
  <path d="M17.113998 77.276154C2.886978 90.758484,7.680252 112.917145,16.838043 131.455215C28.480453 155.022903,49.404770 174.750717,71.176895 165.623062C85.787521 159.497772,97.112991 139.463959,112.043121 147.920166" style="stroke:rgb(0.000000%,0.000000%,0.000000%); stroke-width: 1.494400;stroke-linecap: round;stroke-linejoin: round;stroke-miterlimit: 10.000000;fill: none;"></path>
  <path d="M161.988739 152.000000C161.988739 151.207306,161.673798 150.447159,161.113312 149.886688C160.552841 149.326202,159.792694 149.011261,159.000000 149.011261C158.207306 149.011261,157.447159 149.326202,156.886688 149.886688C156.326202 150.447159,156.011261 151.207306,156.011261 152.000000C156.011261 152.792694,156.326202 153.552841,156.886688 154.113312C157.447159 154.673798,158.207306 154.988739,159.000000 154.988739C159.792694 154.988739,160.552841 154.673798,161.113312 154.113312C161.673798 153.552841,161.988739 152.792694,161.988739 152.000000Z" style="fill: rgb(100.000000%,100.000000%,100.000000%);stroke: none;"></path>
  <path d="M149.173889 133.902863C154.016022 139.126328,157.883316 144.851822,159.000000 152.000000C160.573822 162.074371,156.783768 171.114609,149.888580 178.125763" style="stroke:rgb(0.000000%,0.000000%,0.000000%); stroke-width: 0.498138;stroke-linecap: round;stroke-linejoin: round;stroke-miterlimit: 10.000000;fill: none;"></path>
  <path d="M99.084747 69.573761C99.084747 68.781067,98.769806 68.020920,98.209320 67.460449C97.648849 66.899963,96.888702 66.585022,96.096008 66.585022C95.303314 66.585022,94.543167 66.899963,93.982697 67.460449C93.422211 68.020920,93.107269 68.781067,93.107269 69.573761C93.107269 70.366455,93.422211 71.126602,93.982697 71.687073C94.543167 72.247559,95.303314 72.562500,96.096008 72.562500C96.888702 72.562500,97.648849 72.247559,98.209320 71.687073C98.769806 71.126602,99.084747 70.366455,99.084747 69.573761Z" style="fill: rgb(100.000000%,100.000000%,100.000000%);stroke: none;"></path>
  <path d="M89.802155 65.355927C91.849960 66.836838,93.930435 68.269119,96.096008 69.573761C97.506866 70.423737,98.971802 71.364807,100.040680 72.487625" style="stroke:rgb(0.000000%,0.000000%,0.000000%); stroke-width: 0.498138;stroke-linecap: round;stroke-linejoin: round;stroke-miterlimit: 10.000000;fill: none;"></path>
  <path d="M120.269135 100.668808C120.269135 99.876114,119.954193 99.115967,119.393707 98.555496C118.833237 97.995010,118.073090 97.680069,117.280396 97.680069C116.487701 97.680069,115.727554 97.995010,115.167084 98.555496C114.606598 99.115967,114.291656 99.876114,114.291656 100.668808C114.291656 101.461502,114.606598 102.221649,115.167084 102.782120C115.727554 103.342606,116.487701 103.657547,117.280396 103.657547C118.073090 103.657547,118.833237 103.342606,119.393707 102.782120C119.954193 102.221649,120.269135 101.461502,120.269135 100.668808Z" style="fill: rgb(100.000000%,100.000000%,100.000000%);stroke: none;"></path>
  <path d="M109.845642 106.072174C112.448502 104.493576,114.896484 102.591324,117.280396 100.668808C120.341858 98.199875,123.355408 95.672745,126.367844 93.144226" style="stroke:rgb(0.000000%,0.000000%,0.000000%); stroke-width: 0.498138;stroke-linecap: round;stroke-linejoin: round;stroke-miterlimit: 10.000000;fill: none;"></path>
  <path d="M74.165634 165.623062C74.165634 164.830368,73.850693 164.070221,73.290207 163.509750C72.729736 162.949265,71.969589 162.634323,71.176895 162.634323C70.384201 162.634323,69.624054 162.949265,69.063583 163.509750C68.503098 164.070221,68.188156 164.830368,68.188156 165.623062C68.188156 166.415756,68.503098 167.175903,69.063583 167.736374C69.624054 168.296860,70.384201 168.611801,71.176895 168.611801C71.969589 168.611801,72.729736 168.296860,73.290207 167.736374C73.850693 167.175903,74.165634 166.415756,74.165634 165.623062Z" style="fill: rgb(100.000000%,100.000000%,100.000000%);stroke: none;"></path>
  <path d="M40.208832 160.799896C49.616730 167.536850,60.290833 170.186890,71.176895 165.623062C78.482208 162.560410,84.966232 156.020630,91.490204 151.303543" style="stroke:rgb(0.000000%,0.000000%,0.000000%); stroke-width: 1.494400;stroke-linecap: round;stroke-linejoin: round;stroke-miterlimit: 10.000000;fill: none;"></path>
  <path d="M79.565689 98.533051C79.565689 97.740356,79.250748 96.980209,78.690262 96.419739C78.129791 95.859253,77.369644 95.544312,76.576950 95.544312C75.784256 95.544312,75.024109 95.859253,74.463638 96.419739C73.903152 96.980209,73.588211 97.740356,73.588211 98.533051C73.588211 99.325745,73.903152 100.085892,74.463638 100.646362C75.024109 101.206848,75.784256 101.521790,76.576950 101.521790C77.369644 101.521790,78.129791 101.206848,78.690262 100.646362C79.250748 100.085892,79.565689 99.325745,79.565689 98.533051Z" style="fill: rgb(100.000000%,100.000000%,100.000000%);stroke: none;"></path>
  <path d="M81.536163 99.334610C79.988617 98.877548,78.233383 98.728592,76.576950 98.533051C72.893372 98.098190,69.359924 97.044647,65.859573 95.837860" style="stroke:rgb(0.000000%,0.000000%,0.000000%); stroke-width: 0.498138;stroke-linecap: round;stroke-linejoin: round;stroke-miterlimit: 10.000000;fill: none;"></path>
  <path d="M69.065659 15.330750C69.065659 14.538055,68.750717 13.777908,68.190231 13.217438C67.629761 12.656952,66.869614 12.342010,66.076920 12.342010C65.284225 12.342010,64.524078 12.656952,63.963608 13.217438C63.403122 13.777908,63.088181 14.538055,63.088181 15.330750C63.088181 16.123444,63.403122 16.883591,63.963608 17.444061C64.524078 18.004547,65.284225 18.319489,66.076920 18.319489C66.869614 18.319489,67.629761 18.004547,68.190231 17.444061C68.750717 16.883591,69.065659 16.123444,69.065659 15.330750Z" style="fill: rgb(100.000000%,100.000000%,100.000000%);stroke: none;"></path>
  <path d="M91.247055 6.928360C81.869690 6.581360,73.069153 8.738297,66.076920 15.330750C63.158310 18.082474,61.029633 21.561096,60.189972 25.118301" style="stroke:rgb(0.000000%,0.000000%,0.000000%); stroke-width: 0.498138;stroke-linecap: round;stroke-linejoin: round;stroke-miterlimit: 10.000000;fill: none;"></path>
  <path d="M74.047287 52.620041C74.047287 51.827347,73.732346 51.067200,73.171860 50.506729C72.611389 49.946243,71.851242 49.631302,71.058548 49.631302C70.265854 49.631302,69.505707 49.946243,68.945236 50.506729C68.384750 51.067200,68.069809 51.827347,68.069809 52.620041C68.069809 53.412735,68.384750 54.172882,68.945236 54.733353C69.505707 55.293839,70.265854 55.608780,71.058548 55.608780C71.851242 55.608780,72.611389 55.293839,73.171860 54.733353C73.732346 54.172882,74.047287 53.412735,74.047287 52.620041Z" style="fill: rgb(100.000000%,100.000000%,100.000000%);stroke: none;"></path>
  <path d="M75.506271 50.207840C74.265045 51.188873,72.615738 51.936584,71.058548 52.620041C68.021576 53.952988,65.233368 55.738785,62.460342 57.556183" style="stroke:rgb(0.000000%,0.000000%,0.000000%); stroke-width: 0.498138;stroke-linecap: round;stroke-linejoin: round;stroke-miterlimit: 10.000000;fill: none;"></path>
  <path d="M97.948227 82.110535C97.948227 81.317841,97.633286 80.557693,97.072800 79.997223C96.512329 79.436737,95.752182 79.121796,94.959488 79.121796C94.166794 79.121796,93.406647 79.436737,92.846176 79.997223C92.285690 80.557693,91.970749 81.317841,91.970749 82.110535C91.970749 82.903229,92.285690 83.663376,92.846176 84.223846C93.406647 84.784332,94.166794 85.099274,94.959488 85.099274C95.752182 85.099274,96.512329 84.784332,97.072800 84.223846C97.633286 83.663376,97.948227 82.903229,97.948227 82.110535Z" style="fill: rgb(100.000000%,100.000000%,100.000000%);stroke: none;"></path>
  <path d="M90.878143 79.506363C92.036880 80.510498,93.553009 81.319855,94.959488 82.110535C96.889771 83.195694,98.661316 84.509125,100.367035 85.914734" style="stroke:rgb(0.000000%,0.000000%,0.000000%); stroke-width: 0.498138;stroke-linecap: round;stroke-linejoin: round;stroke-miterlimit: 10.000000;fill: none;"></path>
  <path d="M87.633301 110.051453C87.633301 109.258759,87.318359 108.498611,86.757874 107.938141C86.197403 107.377655,85.437256 107.062714,84.644562 107.062714C83.851868 107.062714,83.091721 107.377655,82.531250 107.938141C81.970764 108.498611,81.655823 109.258759,81.655823 110.051453C81.655823 110.844147,81.970764 111.604294,82.531250 112.164764C83.091721 112.725250,83.851868 113.040192,84.644562 113.040192C85.437256 113.040192,86.197403 112.725250,86.757874 112.164764C87.318359 111.604294,87.633301 110.844147,87.633301 110.051453Z" style="fill: rgb(100.000000%,100.000000%,100.000000%);stroke: none;"></path>
  <path d="M78.290268 110.200226C80.249786 110.476746,82.521408 110.247620,84.644562 110.051453C87.449646 109.792267,90.277649 109.951553,93.095001 110.031265" style="stroke:rgb(0.000000%,0.000000%,0.000000%); stroke-width: 0.498138;stroke-linecap: round;stroke-linejoin: round;stroke-miterlimit: 10.000000;fill: none;"></path>
  <path d="M161.988739 53.978531C161.988739 53.185837,161.673798 52.425690,161.113312 51.865219C160.552841 51.304733,159.792694 50.989792,159.000000 50.989792C158.207306 50.989792,157.447159 51.304733,156.886688 51.865219C156.326202 52.425690,156.011261 53.185837,156.011261 53.978531C156.011261 54.771225,156.326202 55.531372,156.886688 56.091843C157.447159 56.652328,158.207306 56.967270,159.000000 56.967270C159.792694 56.967270,160.552841 56.652328,161.113312 56.091843C161.673798 55.531372,161.988739 54.771225,161.988739 53.978531Z" style="fill: rgb(100.000000%,100.000000%,100.000000%);stroke: none;"></path>
  <path d="M185.247452 72.313034C178.833389 63.801697,169.731064 57.266617,159.000000 53.978531C151.637970 51.722733,143.997849 51.190170,136.504242 52.139374" style="stroke:rgb(0.000000%,0.000000%,0.000000%); stroke-width: 0.498138;stroke-linecap: round;stroke-linejoin: round;stroke-miterlimit: 10.000000;fill: none;"></path>
  <path d="M74.041901 40.951218C74.041901 40.158524,73.726959 39.398376,73.166473 38.837906C72.606003 38.277420,71.845856 37.962479,71.053162 37.962479C70.260468 37.962479,69.500320 38.277420,68.939850 38.837906C68.379364 39.398376,68.064423 40.158524,68.064423 40.951218C68.064423 41.743912,68.379364 42.504059,68.939850 43.064529C69.500320 43.625015,70.260468 43.939957,71.053162 43.939957C71.845856 43.939957,72.606003 43.625015,73.166473 43.064529C73.726959 42.504059,74.041901 41.743912,74.041901 40.951218Z" style="fill: rgb(100.000000%,100.000000%,100.000000%);stroke: none;"></path>
  <path d="M76.237045 37.996368C74.681152 39.180679,72.860901 40.114029,71.053162 40.951218C69.760315 41.549957,68.422928 42.227661,67.391068 43.101105" style="stroke:rgb(0.000000%,0.000000%,0.000000%); stroke-width: 0.498138;stroke-linecap: round;stroke-linejoin: round;stroke-miterlimit: 10.000000;fill: none;"></path>
  <path d="M20.102737 77.276154C20.102737 76.483459,19.787796 75.723312,19.227310 75.162842C18.666840 74.602356,17.906693 74.287415,17.113998 74.287415C16.321304 74.287415,15.561157 74.602356,15.000687 75.162842C14.440201 75.723312,14.125259 76.483459,14.125259 77.276154C14.125259 78.068848,14.440201 78.828995,15.000687 79.389465C15.561157 79.949951,16.321304 80.264893,17.113998 80.264893C17.906693 80.264893,18.666840 79.949951,19.227310 79.389465C19.787796 78.828995,20.102737 78.068848,20.102737 77.276154Z" style="fill: rgb(100.000000%,100.000000%,100.000000%);stroke: none;"></path>
  <path d="M34.609985 87.321716C27.883286 85.436386,21.695724 82.693710,17.113998 77.276154C11.667953 70.836594,9.968338 62.864426,11.065704 54.817444" style="stroke:rgb(0.000000%,0.000000%,0.000000%); stroke-width: 0.498138;stroke-linecap: round;stroke-linejoin: round;stroke-miterlimit: 10.000000;fill: none;"></path>
  <path d="M112.043121 147.920166C123.498016 154.408051,136.755844 156.658463,149.538177 154.473450" style="stroke:rgb(0.000000%,0.000000%,0.000000%); stroke-width: 0.498138;stroke-linecap: round;stroke-linejoin: round;stroke-miterlimit: 10.000000;fill: none;"></path>
  <path d="M145.193893 156.948608C146.674362 156.189575,148.124023 155.364029,149.538177 154.473450C147.908478 154.103195,146.299698 153.661865,144.716141 153.151703Z" style="stroke:rgb(0.000000%,0.000000%,0.000000%); stroke-width: 0.498138;fill: rgb(0.000000%,0.000000%,0.000000%);"></path>
  <path d="M112.043121 147.920166C123.498016 154.408051,136.755844 156.658463,149.538177 154.473450" style="stroke:rgb(0.000000%,0.000000%,0.000000%); stroke-width: 0.498138;stroke-linecap: round;stroke-linejoin: round;stroke-miterlimit: 10.000000;fill: none;"></path>
  <path d="M146.958267 156.004318C147.830307 155.517593,148.690628 155.007217,149.538177 154.473450C148.561447 154.251541,147.592209 154.004105,146.631424 153.731613Z" style="stroke:rgb(0.000000%,0.000000%,0.000000%); stroke-width: 0.498138;fill: rgb(0.000000%,0.000000%,0.000000%);"></path>
  <path d="M114.887604 59.190689C109.843124 61.923767,105.151657 65.329010,100.030045 67.861862" style="stroke:rgb(0.000000%,0.000000%,0.000000%); stroke-width: 0.498138;stroke-linecap: round;stroke-linejoin: round;stroke-miterlimit: 10.000000;fill: none;"></path>
  <path d="M101.944565 65.552231C101.324081 66.337708,100.688248 67.109619,100.030045 67.861862C101.027390 67.795380,102.022812 67.699188,103.016983 67.582535Z" style="stroke:rgb(0.000000%,0.000000%,0.000000%); stroke-width: 0.498138;fill: rgb(0.000000%,0.000000%,0.000000%);"></path>
  <path d="M88.941162 75.733551C88.904190 78.245193,90.977814 79.807404,93.248993 81.141495" style="stroke:rgb(0.000000%,0.000000%,0.000000%); stroke-width: 0.498138;stroke-linecap: round;stroke-linejoin: round;stroke-miterlimit: 10.000000;fill: none;"></path>
  <path d="M90.318542 80.499237C91.221130 80.813126,92.227753 80.999237,93.248993 81.141495C92.627472 80.318787,92.047302 79.475357,91.631042 78.615173Z" style="stroke:rgb(0.000000%,0.000000%,0.000000%); stroke-width: 0.498138;fill: rgb(0.000000%,0.000000%,0.000000%);"></path>
  <path d="M133.498688 118.817825C141.524445 127.042007,151.600540 134.194458,156.453384 144.046265" style="stroke:rgb(0.000000%,0.000000%,0.000000%); stroke-width: 0.498138;stroke-linecap: round;stroke-linejoin: round;stroke-miterlimit: 10.000000;fill: none;"></path>
  <path d="M154.109009 142.174698C154.919235 142.764465,155.702026 143.386749,156.453384 144.046265C156.388458 143.048615,156.274979 142.055084,156.119110 141.065140Z" style="stroke:rgb(0.000000%,0.000000%,0.000000%); stroke-width: 0.498138;fill: rgb(0.000000%,0.000000%,0.000000%);"></path>
  <path d="M55.340775 92.223221C44.559525 89.042099,32.427673 88.319138,23.314499 82.609543" style="stroke:rgb(0.000000%,0.000000%,0.000000%); stroke-width: 0.498138;stroke-linecap: round;stroke-linejoin: round;stroke-miterlimit: 10.000000;fill: none;"></path>
  <path d="M26.293106 82.965469C25.293274 82.892014,24.300079 82.775681,23.314499 82.609543C23.893921 83.423935,24.513947 84.208511,25.168991 84.967453Z" style="stroke:rgb(0.000000%,0.000000%,0.000000%); stroke-width: 0.498138;fill: rgb(0.000000%,0.000000%,0.000000%);"></path>
  <path d="M65.562057 46.425385C65.440506 48.797272,67.291046 50.413147,69.428268 51.705078" style="stroke:rgb(0.000000%,0.000000%,0.000000%); stroke-width: 0.498138;stroke-linecap: round;stroke-linejoin: round;stroke-miterlimit: 10.000000;fill: none;"></path>
  <path d="M66.524734 50.950546C67.401810 51.322479,68.402878 51.549042,69.428268 51.705078C68.813553 50.869690,68.265915 50.001587,67.908737 49.118393Z" style="stroke:rgb(0.000000%,0.000000%,0.000000%); stroke-width: 0.498138;fill: rgb(0.000000%,0.000000%,0.000000%);"></path>
  <path d="M101.609039 76.491898C101.336914 78.967606,99.157883 80.332062,96.766403 81.375656" style="stroke:rgb(0.000000%,0.000000%,0.000000%); stroke-width: 0.498138;stroke-linecap: round;stroke-linejoin: round;stroke-miterlimit: 10.000000;fill: none;"></path>
  <path d="M98.648819 79.039658C98.148331 79.855347,97.482330 80.632324,96.766403 81.375656C97.798248 81.356293,98.818588 81.277832,99.749283 81.054977Z" style="stroke:rgb(0.000000%,0.000000%,0.000000%); stroke-width: 0.498138;fill: rgb(0.000000%,0.000000%,0.000000%);"></path>
  <path d="M101.481522 109.533600C106.287094 108.528992,110.463638 105.919113,114.383179 102.946671" style="stroke:rgb(0.000000%,0.000000%,0.000000%); stroke-width: 0.498138;stroke-linecap: round;stroke-linejoin: round;stroke-miterlimit: 10.000000;fill: none;"></path>
  <path d="M112.812363 105.502457C113.356171 104.665985,113.877487 103.811234,114.383179 102.946671C113.414261 103.200424,112.441223 103.436188,111.465225 103.643112Z" style="stroke:rgb(0.000000%,0.000000%,0.000000%); stroke-width: 0.498138;fill: rgb(0.000000%,0.000000%,0.000000%);"></path>
  <path d="M62.037140 35.377411C63.747040 37.720596,66.290634 39.150848,69.000275 40.214081" style="stroke:rgb(0.000000%,0.000000%,0.000000%); stroke-width: 0.498138;stroke-linecap: round;stroke-linejoin: round;stroke-miterlimit: 10.000000;fill: none;"></path>
  <path d="M66.002594 40.094925C66.989044 40.203751,67.993881 40.232986,69.000275 40.214081C68.275284 39.515793,67.585449 38.784592,66.964905 38.010117Z" style="stroke:rgb(0.000000%,0.000000%,0.000000%); stroke-width: 0.498138;fill: rgb(0.000000%,0.000000%,0.000000%);"></path>
  <path d="M77.505463 46.395691C77.625732 48.982483,75.420731 50.539185,72.939346 51.758240" style="stroke:rgb(0.000000%,0.000000%,0.000000%); stroke-width: 0.498138;stroke-linecap: round;stroke-linejoin: round;stroke-miterlimit: 10.000000;fill: none;"></path>
  <path d="M74.718155 49.342422C74.255295 50.171631,73.624405 50.979446,72.939346 51.758240C73.974442 51.691971,74.991776 51.566895,75.905411 51.307846Z" style="stroke:rgb(0.000000%,0.000000%,0.000000%); stroke-width: 0.498138;fill: rgb(0.000000%,0.000000%,0.000000%);"></path>
  <path d="M13.847397 134.165421L19.828690 134.165421L19.828690 126.745026L13.847397 126.745026Z" style="fill: rgb(100.000000%,100.000000%,100.000000%);stroke: none;"></path>
  <path d="M13.847397 136.165421L19.828690 136.165421L19.828690 128.745026L13.847397 128.745026Z" style="fill: rgb(100.000000%,100.000000%,100.000000%);stroke: none;"></path>
  <g transform="translate(14.347397 134.665421)" style="fill: rgb(0.000000%,0.000000%,0.000000%);">
    <use xlink:href="#GLYPHcmr10_49"></use>
  </g>
  <path d="M192.374741 105.215286L198.356033 105.215286L198.356033 97.794891L192.374741 97.794891Z" style="fill: rgb(100.000000%,100.000000%,100.000000%);stroke: none;"></path>
  <path d="M192.374741 107.215286L198.356033 107.215286L198.356033 99.794891L192.374741 99.794891Z" style="fill: rgb(100.000000%,100.000000%,100.000000%);stroke: none;"></path>
  <g transform="translate(192.874741 105.715286)" style="fill: rgb(0.000000%,0.000000%,0.000000%);">
    <use xlink:href="#GLYPHcmr10_50"></use>
  </g>
  <path d="M102.388992 92.982193L108.370285 92.982193L108.370285 85.561798L102.388992 85.561798Z" style="fill: rgb(100.000000%,100.000000%,100.000000%);stroke: none;"></path>
  <path d="M102.388992 94.982193L108.370285 94.982193L108.370285 87.561798L102.388992 87.561798Z" style="fill: rgb(100.000000%,100.000000%,100.000000%);stroke: none;"></path>
  <g transform="translate(102.888992 93.482193)" style="fill: rgb(0.000000%,0.000000%,0.000000%);">
    <use xlink:href="#GLYPHcmr10_51"></use>
  </g>
  <path d="M119.155807 194.787201L125.137100 194.787201L125.137100 187.366806L119.155807 187.366806Z" style="fill: rgb(100.000000%,100.000000%,100.000000%);stroke: none;"></path>
  <path d="M119.155807 196.787201L125.137100 196.787201L125.137100 189.366806L119.155807 189.366806Z" style="fill: rgb(100.000000%,100.000000%,100.000000%);stroke: none;"></path>
  <g transform="translate(119.655807 195.287201)" style="fill: rgb(0.000000%,0.000000%,0.000000%);">
    <use xlink:href="#GLYPHcmr10_52"></use>
  </g>
  <path d="M76.253860 131.681366L82.235153 131.681366L82.235153 124.260971L76.253860 124.260971Z" style="fill: rgb(100.000000%,100.000000%,100.000000%);stroke: none;"></path>
  <path d="M76.253860 133.681366L82.235153 133.681366L82.235153 126.260971L76.253860 126.260971Z" style="fill: rgb(100.000000%,100.000000%,100.000000%);stroke: none;"></path>
  <g transform="translate(76.753860 132.181366)" style="fill: rgb(0.000000%,0.000000%,0.000000%);">
    <use xlink:href="#GLYPHcmr10_53"></use>
  </g>
  <path d="M18.808502 34.620087L24.789795 34.620087L24.789795 27.199692L18.808502 27.199692Z" style="fill: rgb(100.000000%,100.000000%,100.000000%);stroke: none;"></path>
  <path d="M18.808502 36.620087L24.789795 36.620087L24.789795 29.199692L18.808502 29.199692Z" style="fill: rgb(100.000000%,100.000000%,100.000000%);stroke: none;"></path>
  <g transform="translate(19.308502 35.120087)" style="fill: rgb(0.000000%,0.000000%,0.000000%);">
    <use xlink:href="#GLYPHcmr10_54"></use>
  </g>
  <path d="M76.844238 36.245956L82.825531 36.245956L82.825531 28.825562L76.844238 28.825562Z" style="fill: rgb(100.000000%,100.000000%,100.000000%);stroke: none;"></path>
  <path d="M76.844238 38.245956L82.825531 38.245956L82.825531 30.825562L76.844238 30.825562Z" style="fill: rgb(100.000000%,100.000000%,100.000000%);stroke: none;"></path>
  <g transform="translate(77.344238 36.745956)" style="fill: rgb(0.000000%,0.000000%,0.000000%);">
    <use xlink:href="#GLYPHcmr10_55"></use>
  </g>
  <path d="M80.713654 63.556458L86.694946 63.556458L86.694946 56.136063L80.713654 56.136063Z" style="fill: rgb(100.000000%,100.000000%,100.000000%);stroke: none;"></path>
  <path d="M80.713654 65.556458L86.694946 65.556458L86.694946 58.136063L80.713654 58.136063Z" style="fill: rgb(100.000000%,100.000000%,100.000000%);stroke: none;"></path>
  <g transform="translate(81.213654 64.056458)" style="fill: rgb(0.000000%,0.000000%,0.000000%);">
    <use xlink:href="#GLYPHcmr10_56"></use>
  </g>
  <path d="M81.124908 91.555557L87.106201 91.555557L87.106201 84.135162L81.124908 84.135162Z" style="fill: rgb(100.000000%,100.000000%,100.000000%);stroke: none;"></path>
  <path d="M81.124908 93.555557L87.106201 93.555557L87.106201 86.135162L81.124908 86.135162Z" style="fill: rgb(100.000000%,100.000000%,100.000000%);stroke: none;"></path>
  <g transform="translate(81.624908 92.055557)" style="fill: rgb(0.000000%,0.000000%,0.000000%);">
    <use xlink:href="#GLYPHcmr10_57"></use>
  </g>
  <path d="M129.967178 88.321548L140.929886 88.321548L140.929886 80.901154L129.967178 80.901154Z" style="fill: rgb(100.000000%,100.000000%,100.000000%);stroke: none;"></path>
  <path d="M129.967178 90.321548L140.929886 90.321548L140.929886 82.901154L129.967178 82.901154Z" style="fill: rgb(100.000000%,100.000000%,100.000000%);stroke: none;"></path>
  <g transform="translate(130.467178 88.821548)" style="fill: rgb(0.000000%,0.000000%,0.000000%);">
    <use xlink:href="#GLYPHcmr10_49"></use>
    <use xlink:href="#GLYPHcmr10_48" x="5.000095"></use>
  </g>
  <path d="M114.396851 16.259857L125.359558 16.259857L125.359558 8.839462L114.396851 8.839462Z" style="fill: rgb(100.000000%,100.000000%,100.000000%);stroke: none;"></path>
  <path d="M114.396851 18.259857L125.359558 18.259857L125.359558 10.839462L114.396851 10.839462Z" style="fill: rgb(100.000000%,100.000000%,100.000000%);stroke: none;"></path>
  <g transform="translate(114.896851 16.759857)" style="fill: rgb(0.000000%,0.000000%,0.000000%);">
    <use xlink:href="#GLYPHcmr10_49"></use>
    <use xlink:href="#GLYPHcmr10_49" x="5.000095"></use>
  </g>
  <path d="M48.471848 65.392136L59.434555 65.392136L59.434555 57.971741L48.471848 57.971741Z" style="fill: rgb(100.000000%,100.000000%,100.000000%);stroke: none;"></path>
  <path d="M48.471848 67.392136L59.434555 67.392136L59.434555 59.971741L48.471848 59.971741Z" style="fill: rgb(100.000000%,100.000000%,100.000000%);stroke: none;"></path>
  <g transform="translate(48.971848 65.892136)" style="fill: rgb(0.000000%,0.000000%,0.000000%);">
    <use xlink:href="#GLYPHcmr10_49"></use>
    <use xlink:href="#GLYPHcmr10_50" x="5.000095"></use>
  </g>
</svg>
