<?xml version="1.0"?>
<!-- Created by MetaPost 1.999 on 2021.07.05:2356 -->
<svg version="1.1" xmlns="http://www.w3.org/2000/svg" xmlns:xlink="http://www.w3.org/1999/xlink" width="202.748505" height="205.676361" viewBox="0 0 202.748505 205.676361">
<!-- Original BoundingBox: -83.650986 -28.050003 119.097519 177.626358 -->
  <defs>
    <g transform="scale(0.009963,0.009963)" id="GLYPHcmr10_48">
      <path style="fill-rule: evenodd;" d="M460.000000 -320.000000C460.000000 -400.000000,455.000000 -480.000000,420.000000 -554.000000C374.000000 -650.000000,292.000000 -666.000000,250.000000 -666.000000C190.000000 -666.000000,117.000000 -640.000000,76.000000 -547.000000C44.000000 -478.000000,39.000000 -400.000000,39.000000 -320.000000C39.000000 -245.000000,43.000000 -155.000000,84.000000 -79.000000C127.000000 2.000000,200.000000 22.000000,249.000000 22.000000C303.000000 22.000000,379.000000 1.000000,423.000000 -94.000000C455.000000 -163.000000,460.000000 -241.000000,460.000000 -320.000000M249.000000 -0.000000C210.000000 -0.000000,151.000000 -25.000000,133.000000 -121.000000C122.000000 -181.000000,122.000000 -273.000000,122.000000 -332.000000C122.000000 -396.000000,122.000000 -462.000000,130.000000 -516.000000C149.000000 -635.000000,224.000000 -644.000000,249.000000 -644.000000C282.000000 -644.000000,348.000000 -626.000000,367.000000 -527.000000C377.000000 -471.000000,377.000000 -395.000000,377.000000 -332.000000C377.000000 -257.000000,377.000000 -189.000000,366.000000 -125.000000C351.000000 -30.000000,294.000000 -0.000000,249.000000 -0.000000"></path>
    </g>
    <g transform="scale(0.009963,0.009963)" id="GLYPHcmr10_49">
      <path style="fill-rule: evenodd;" d="M294.000000 -640.000000C294.000000 -664.000000,294.000000 -666.000000,271.000000 -666.000000C209.000000 -602.000000,121.000000 -602.000000,89.000000 -602.000000L89.000000 -571.000000C109.000000 -571.000000,168.000000 -571.000000,220.000000 -597.000000L220.000000 -79.000000C220.000000 -43.000000,217.000000 -31.000000,127.000000 -31.000000L95.000000 -31.000000L95.000000 -0.000000L257.000000 -0.000000L130.000000 -3.000000L217.000000 -3.000000L257.000000 -3.000000L297.000000 -3.000000L384.000000 -3.000000L419.000000 -0.000000L419.000000 -31.000000L387.000000 -31.000000C297.000000 -31.000000,294.000000 -42.000000,294.000000 -79.000000"></path>
    </g>
    <g transform="scale(0.009963,0.009963)" id="GLYPHcmr10_50">
      <path style="fill-rule: evenodd;" d="M127.000000 -77.000000L233.000000 -180.000000C389.000000 -318.000000,449.000000 -372.000000,449.000000 -472.000000C449.000000 -586.000000,359.000000 -666.000000,237.000000 -666.000000C124.000000 -666.000000,50.000000 -574.000000,50.000000 -485.000000C50.000000 -429.000000,100.000000 -429.000000,103.000000 -429.000000C120.000000 -429.000000,155.000000 -441.000000,155.000000 -482.000000C155.000000 -508.000000,137.000000 -534.000000,102.000000 -534.000000C94.000000 -534.000000,92.000000 -534.000000,89.000000 -533.000000C112.000000 -598.000000,166.000000 -635.000000,224.000000 -635.000000C315.000000 -635.000000,358.000000 -554.000000,358.000000 -472.000000C358.000000 -392.000000,308.000000 -313.000000,253.000000 -251.000000L61.000000 -37.000000C50.000000 -26.000000,50.000000 -24.000000,50.000000 -0.000000L421.000000 -0.000000L449.000000 -174.000000L424.000000 -174.000000C419.000000 -144.000000,412.000000 -100.000000,402.000000 -85.000000C395.000000 -77.000000,329.000000 -77.000000,307.000000 -77.000000"></path>
    </g>
    <g transform="scale(0.009963,0.009963)" id="GLYPHcmr10_51">
      <path style="fill-rule: evenodd;" d="M290.000000 -352.000000C372.000000 -379.000000,430.000000 -449.000000,430.000000 -528.000000C430.000000 -610.000000,342.000000 -666.000000,246.000000 -666.000000C145.000000 -666.000000,69.000000 -606.000000,69.000000 -530.000000C69.000000 -497.000000,91.000000 -478.000000,120.000000 -478.000000C151.000000 -478.000000,171.000000 -500.000000,171.000000 -529.000000C171.000000 -579.000000,124.000000 -579.000000,109.000000 -579.000000C140.000000 -628.000000,206.000000 -641.000000,242.000000 -641.000000C283.000000 -641.000000,338.000000 -619.000000,338.000000 -529.000000C338.000000 -517.000000,336.000000 -459.000000,310.000000 -415.000000C280.000000 -367.000000,246.000000 -364.000000,221.000000 -363.000000C213.000000 -362.000000,189.000000 -360.000000,182.000000 -360.000000C174.000000 -359.000000,167.000000 -358.000000,167.000000 -348.000000C167.000000 -337.000000,174.000000 -337.000000,191.000000 -337.000000L235.000000 -337.000000C317.000000 -337.000000,354.000000 -269.000000,354.000000 -171.000000C354.000000 -35.000000,285.000000 -6.000000,241.000000 -6.000000C198.000000 -6.000000,123.000000 -23.000000,88.000000 -82.000000C123.000000 -77.000000,154.000000 -99.000000,154.000000 -137.000000C154.000000 -173.000000,127.000000 -193.000000,98.000000 -193.000000C74.000000 -193.000000,42.000000 -179.000000,42.000000 -135.000000C42.000000 -44.000000,135.000000 22.000000,244.000000 22.000000C366.000000 22.000000,457.000000 -69.000000,457.000000 -171.000000C457.000000 -253.000000,394.000000 -331.000000,290.000000 -352.000000"></path>
    </g>
    <g transform="scale(0.009963,0.009963)" id="GLYPHcmr10_52">
      <path style="fill-rule: evenodd;" d="M294.000000 -165.000000L294.000000 -78.000000C294.000000 -42.000000,292.000000 -31.000000,218.000000 -31.000000L197.000000 -31.000000L197.000000 -0.000000L332.000000 -0.000000L238.000000 -3.000000L290.000000 -3.000000L332.000000 -3.000000L374.000000 -3.000000L427.000000 -3.000000L468.000000 -0.000000L468.000000 -31.000000L447.000000 -31.000000C373.000000 -31.000000,371.000000 -42.000000,371.000000 -78.000000L371.000000 -165.000000L471.000000 -165.000000L471.000000 -196.000000L371.000000 -196.000000L371.000000 -651.000000C371.000000 -671.000000,371.000000 -677.000000,355.000000 -677.000000C346.000000 -677.000000,343.000000 -677.000000,335.000000 -665.000000L28.000000 -196.000000L28.000000 -165.000000M300.000000 -196.000000L56.000000 -196.000000L300.000000 -569.000000"></path>
    </g>
    <g transform="scale(0.009963,0.009963)" id="GLYPHcmr10_53">
      <path style="fill-rule: evenodd;" d="M449.000000 -201.000000C449.000000 -320.000000,367.000000 -420.000000,259.000000 -420.000000C211.000000 -420.000000,168.000000 -404.000000,132.000000 -369.000000L132.000000 -564.000000C152.000000 -558.000000,185.000000 -551.000000,217.000000 -551.000000C340.000000 -551.000000,410.000000 -642.000000,410.000000 -655.000000C410.000000 -661.000000,407.000000 -666.000000,400.000000 -666.000000C399.000000 -666.000000,397.000000 -666.000000,392.000000 -663.000000C372.000000 -654.000000,323.000000 -634.000000,256.000000 -634.000000C216.000000 -634.000000,170.000000 -641.000000,123.000000 -662.000000C115.000000 -665.000000,113.000000 -665.000000,111.000000 -665.000000C101.000000 -665.000000,101.000000 -657.000000,101.000000 -641.000000L101.000000 -345.000000C101.000000 -327.000000,101.000000 -319.000000,115.000000 -319.000000C122.000000 -319.000000,124.000000 -322.000000,128.000000 -328.000000C139.000000 -344.000000,176.000000 -398.000000,257.000000 -398.000000C309.000000 -398.000000,334.000000 -352.000000,342.000000 -334.000000C358.000000 -297.000000,360.000000 -258.000000,360.000000 -208.000000C360.000000 -173.000000,360.000000 -113.000000,336.000000 -71.000000C312.000000 -32.000000,275.000000 -6.000000,229.000000 -6.000000C156.000000 -6.000000,99.000000 -59.000000,82.000000 -118.000000C85.000000 -117.000000,88.000000 -116.000000,99.000000 -116.000000C132.000000 -116.000000,149.000000 -141.000000,149.000000 -165.000000C149.000000 -189.000000,132.000000 -214.000000,99.000000 -214.000000C85.000000 -214.000000,50.000000 -207.000000,50.000000 -161.000000C50.000000 -75.000000,119.000000 22.000000,231.000000 22.000000C347.000000 22.000000,449.000000 -74.000000,449.000000 -201.000000"></path>
    </g>
    <g transform="scale(0.009963,0.009963)" id="GLYPHcmr10_54">
      <path style="fill-rule: evenodd;" d="M132.000000 -328.000000L132.000000 -352.000000C132.000000 -605.000000,256.000000 -641.000000,307.000000 -641.000000C331.000000 -641.000000,373.000000 -635.000000,395.000000 -601.000000C380.000000 -601.000000,340.000000 -601.000000,340.000000 -556.000000C340.000000 -525.000000,364.000000 -510.000000,386.000000 -510.000000C402.000000 -510.000000,432.000000 -519.000000,432.000000 -558.000000C432.000000 -618.000000,388.000000 -666.000000,305.000000 -666.000000C177.000000 -666.000000,42.000000 -537.000000,42.000000 -316.000000C42.000000 -49.000000,158.000000 22.000000,251.000000 22.000000C362.000000 22.000000,457.000000 -72.000000,457.000000 -204.000000C457.000000 -331.000000,368.000000 -427.000000,257.000000 -427.000000C189.000000 -427.000000,152.000000 -376.000000,132.000000 -328.000000M251.000000 -6.000000C188.000000 -6.000000,158.000000 -66.000000,152.000000 -81.000000C134.000000 -128.000000,134.000000 -208.000000,134.000000 -226.000000C134.000000 -304.000000,166.000000 -404.000000,256.000000 -404.000000C272.000000 -404.000000,318.000000 -404.000000,349.000000 -342.000000C367.000000 -305.000000,367.000000 -254.000000,367.000000 -205.000000C367.000000 -157.000000,367.000000 -107.000000,350.000000 -71.000000C320.000000 -11.000000,274.000000 -6.000000,251.000000 -6.000000"></path>
    </g>
    <g transform="scale(0.009963,0.009963)" id="GLYPHcmr10_55">
      <path style="fill-rule: evenodd;" d="M476.000000 -609.000000C485.000000 -621.000000,485.000000 -623.000000,485.000000 -644.000000L242.000000 -644.000000C120.000000 -644.000000,118.000000 -657.000000,114.000000 -676.000000L89.000000 -676.000000L56.000000 -470.000000L81.000000 -470.000000C84.000000 -486.000000,93.000000 -549.000000,106.000000 -561.000000C113.000000 -567.000000,191.000000 -567.000000,204.000000 -567.000000L411.000000 -567.000000C400.000000 -551.000000,321.000000 -442.000000,299.000000 -409.000000C209.000000 -274.000000,176.000000 -135.000000,176.000000 -33.000000C176.000000 -23.000000,176.000000 22.000000,222.000000 22.000000C268.000000 22.000000,268.000000 -23.000000,268.000000 -33.000000L268.000000 -84.000000C268.000000 -139.000000,271.000000 -194.000000,279.000000 -248.000000C283.000000 -271.000000,297.000000 -357.000000,341.000000 -419.000000"></path>
    </g>
    <g transform="scale(0.009963,0.009963)" id="GLYPHcmr10_56">
      <path style="fill-rule: evenodd;" d="M163.000000 -457.000000C117.000000 -487.000000,113.000000 -521.000000,113.000000 -538.000000C113.000000 -599.000000,178.000000 -641.000000,249.000000 -641.000000C322.000000 -641.000000,386.000000 -589.000000,386.000000 -517.000000C386.000000 -460.000000,347.000000 -412.000000,287.000000 -377.000000M309.000000 -362.000000C381.000000 -399.000000,430.000000 -451.000000,430.000000 -517.000000C430.000000 -609.000000,341.000000 -666.000000,250.000000 -666.000000C150.000000 -666.000000,69.000000 -592.000000,69.000000 -499.000000C69.000000 -481.000000,71.000000 -436.000000,113.000000 -389.000000C124.000000 -377.000000,161.000000 -352.000000,186.000000 -335.000000C128.000000 -306.000000,42.000000 -250.000000,42.000000 -151.000000C42.000000 -45.000000,144.000000 22.000000,249.000000 22.000000C362.000000 22.000000,457.000000 -61.000000,457.000000 -168.000000C457.000000 -204.000000,446.000000 -249.000000,408.000000 -291.000000C389.000000 -312.000000,373.000000 -322.000000,309.000000 -362.000000M209.000000 -320.000000L332.000000 -242.000000C360.000000 -223.000000,407.000000 -193.000000,407.000000 -132.000000C407.000000 -58.000000,332.000000 -6.000000,250.000000 -6.000000C164.000000 -6.000000,92.000000 -68.000000,92.000000 -151.000000C92.000000 -209.000000,124.000000 -273.000000,209.000000 -320.000000"></path>
    </g>
    <g transform="scale(0.009963,0.009963)" id="GLYPHcmr10_57">
      <path style="fill-rule: evenodd;" d="M367.000000 -318.000000L367.000000 -286.000000C367.000000 -52.000000,263.000000 -6.000000,205.000000 -6.000000C188.000000 -6.000000,134.000000 -8.000000,107.000000 -42.000000C151.000000 -42.000000,159.000000 -71.000000,159.000000 -88.000000C159.000000 -119.000000,135.000000 -134.000000,113.000000 -134.000000C97.000000 -134.000000,67.000000 -125.000000,67.000000 -86.000000C67.000000 -19.000000,121.000000 22.000000,206.000000 22.000000C335.000000 22.000000,457.000000 -114.000000,457.000000 -329.000000C457.000000 -598.000000,342.000000 -666.000000,253.000000 -666.000000C198.000000 -666.000000,149.000000 -648.000000,106.000000 -603.000000C65.000000 -558.000000,42.000000 -516.000000,42.000000 -441.000000C42.000000 -316.000000,130.000000 -218.000000,242.000000 -218.000000C303.000000 -218.000000,344.000000 -260.000000,367.000000 -318.000000M243.000000 -241.000000C227.000000 -241.000000,181.000000 -241.000000,150.000000 -304.000000C132.000000 -341.000000,132.000000 -391.000000,132.000000 -440.000000C132.000000 -494.000000,132.000000 -541.000000,153.000000 -578.000000C180.000000 -628.000000,218.000000 -641.000000,253.000000 -641.000000C299.000000 -641.000000,332.000000 -607.000000,349.000000 -562.000000C361.000000 -530.000000,365.000000 -467.000000,365.000000 -421.000000C365.000000 -338.000000,331.000000 -241.000000,243.000000 -241.000000"></path>
    </g>
  </defs>
  <path d="M127.819244 202.061264C127.819244 201.268570,127.504303 200.508423,126.943817 199.947952C126.383347 199.387466,125.623199 199.072525,124.830505 199.072525C124.037811 199.072525,123.277664 199.387466,122.717194 199.947952C122.156708 200.508423,121.841766 201.268570,121.841766 202.061264C121.841766 202.853958,122.156708 203.614105,122.717194 204.174576C123.277664 204.735062,124.037811 205.050003,124.830505 205.050003C125.623199 205.050003,126.383347 204.735062,126.943817 204.174576C127.504303 203.614105,127.819244 202.853958,127.819244 202.061264Z" style="fill: rgb(100.000000%,100.000000%,100.000000%);stroke: none;"></path>
  <path d="M147.364883 187.104324C147.364883 186.311630,147.049942 185.551483,146.489456 184.991013C145.928986 184.430527,145.168839 184.115585,144.376144 184.115585C143.583450 184.115585,142.823303 184.430527,142.262833 184.991013C141.702347 185.551483,141.387405 186.311630,141.387405 187.104324C141.387405 187.897018,141.702347 188.657166,142.262833 189.217636C142.823303 189.778122,143.583450 190.093063,144.376144 190.093063C145.168839 190.093063,145.928986 189.778122,146.489456 189.217636C147.049942 188.657166,147.364883 187.897018,147.364883 187.104324Z" style="fill: rgb(100.000000%,100.000000%,100.000000%);stroke: none;"></path>
  <path d="M78.239029 165.457748C78.239029 164.665054,77.924088 163.904907,77.363602 163.344437C76.803131 162.783951,76.042984 162.469009,75.250290 162.469009C74.457596 162.469009,73.697449 162.783951,73.136978 163.344437C72.576492 163.904907,72.261551 164.665054,72.261551 165.457748C72.261551 166.250443,72.576492 167.010590,73.136978 167.571060C73.697449 168.131546,74.457596 168.446487,75.250290 168.446487C76.042984 168.446487,76.803131 168.131546,77.363602 167.571060C77.924088 167.010590,78.239029 166.250443,78.239029 165.457748Z" style="fill: rgb(100.000000%,100.000000%,100.000000%);stroke: none;"></path>
  <path d="M99.708099 197.433334C99.708099 196.640640,99.393158 195.880493,98.832672 195.320023C98.272202 194.759537,97.512054 194.444595,96.719360 194.444595C95.926666 194.444595,95.166519 194.759537,94.606049 195.320023C94.045563 195.880493,93.730621 196.640640,93.730621 197.433334C93.730621 198.226028,94.045563 198.986176,94.606049 199.546646C95.166519 200.107132,95.926666 200.422073,96.719360 200.422073C97.512054 200.422073,98.272202 200.107132,98.832672 199.546646C99.393158 198.986176,99.708099 198.226028,99.708099 197.433334Z" style="fill: rgb(100.000000%,100.000000%,100.000000%);stroke: none;"></path>
  <path d="M81.334503 130.365280C81.334503 129.572586,81.019562 128.812439,80.459076 128.251968C79.898605 127.691483,79.138458 127.376541,78.345764 127.376541C77.553070 127.376541,76.792923 127.691483,76.232452 128.251968C75.671967 128.812439,75.357025 129.572586,75.357025 130.365280C75.357025 131.157974,75.671967 131.918121,76.232452 132.478592C76.792923 133.039078,77.553070 133.354019,78.345764 133.354019C79.138458 133.354019,79.898605 133.039078,80.459076 132.478592C81.019562 131.918121,81.334503 131.157974,81.334503 130.365280Z" style="fill: rgb(100.000000%,100.000000%,100.000000%);stroke: none;"></path>
  <path d="M77.145767 150.996643C77.145767 150.203949,76.830826 149.443802,76.270340 148.883331C75.709869 148.322845,74.949722 148.007904,74.157028 148.007904C73.364334 148.007904,72.604187 148.322845,72.043716 148.883331C71.483231 149.443802,71.168289 150.203949,71.168289 150.996643C71.168289 151.789337,71.483231 152.549484,72.043716 153.109955C72.604187 153.670441,73.364334 153.985382,74.157028 153.985382C74.949722 153.985382,75.709869 153.670441,76.270340 153.109955C76.830826 152.549484,77.145767 151.789337,77.145767 150.996643Z" style="fill: rgb(100.000000%,100.000000%,100.000000%);stroke: none;"></path>
  <path d="M87.811127 111.460861C87.811127 110.668167,87.496185 109.908020,86.935699 109.347549C86.375229 108.787064,85.615082 108.472122,84.822388 108.472122C84.029694 108.472122,83.269547 108.787064,82.709076 109.347549C82.148590 109.908020,81.833649 110.668167,81.833649 111.460861C81.833649 112.253555,82.148590 113.013702,82.709076 113.574173C83.269547 114.134659,84.029694 114.449600,84.822388 114.449600C85.615082 114.449600,86.375229 114.134659,86.935699 113.574173C87.496185 113.013702,87.811127 112.253555,87.811127 111.460861Z" style="fill: rgb(100.000000%,100.000000%,100.000000%);stroke: none;"></path>
  <path d="M83.722687 123.637894C83.722687 122.845200,83.407745 122.085052,82.847260 121.524582C82.286789 120.964096,81.526642 120.649155,80.733948 120.649155C79.941254 120.649155,79.181107 120.964096,78.620636 121.524582C78.060150 122.085052,77.745209 122.845200,77.745209 123.637894C77.745209 124.430588,78.060150 125.190735,78.620636 125.751205C79.181107 126.311691,79.941254 126.626633,80.733948 126.626633C81.526642 126.626633,82.286789 126.311691,82.847260 125.751205C83.407745 125.190735,83.722687 124.430588,83.722687 123.637894Z" style="fill: rgb(100.000000%,100.000000%,100.000000%);stroke: none;"></path>
  <path d="M98.511398 99.348984C98.511398 98.556290,98.196457 97.796143,97.635971 97.235672C97.075500 96.675186,96.315353 96.360245,95.522659 96.360245C94.729965 96.360245,93.969818 96.675186,93.409348 97.235672C92.848862 97.796143,92.533920 98.556290,92.533920 99.348984C92.533920 100.141678,92.848862 100.901825,93.409348 101.462296C93.969818 102.022781,94.729965 102.337723,95.522659 102.337723C96.315353 102.337723,97.075500 102.022781,97.635971 101.462296C98.196457 100.901825,98.511398 100.141678,98.511398 99.348984Z" style="fill: rgb(100.000000%,100.000000%,100.000000%);stroke: none;"></path>
  <path d="M89.741776 105.785446C89.741776 104.992752,89.426834 104.232605,88.866348 103.672134C88.305878 103.111649,87.545731 102.796707,86.753036 102.796707C85.960342 102.796707,85.200195 103.111649,84.639725 103.672134C84.079239 104.232605,83.764297 104.992752,83.764297 105.785446C83.764297 106.578140,84.079239 107.338287,84.639725 107.898758C85.200195 108.459244,85.960342 108.774185,86.753036 108.774185C87.545731 108.774185,88.305878 108.459244,88.866348 107.898758C89.426834 107.338287,89.741776 106.578140,89.741776 105.785446Z" style="fill: rgb(100.000000%,100.000000%,100.000000%);stroke: none;"></path>
  <path d="M113.006653 98.001114C113.006653 97.208420,112.691711 96.448273,112.131226 95.887802C111.570755 95.327316,110.810608 95.012375,110.017914 95.012375C109.225220 95.012375,108.465073 95.327316,107.904602 95.887802C107.344116 96.448273,107.029175 97.208420,107.029175 98.001114C107.029175 98.793808,107.344116 99.553955,107.904602 100.114426C108.465073 100.674911,109.225220 100.989853,110.017914 100.989853C110.810608 100.989853,111.570755 100.674911,112.131226 100.114426C112.691711 99.553955,113.006653 98.793808,113.006653 98.001114Z" style="fill: rgb(100.000000%,100.000000%,100.000000%);stroke: none;"></path>
  <path d="M103.826843 98.922745C103.826843 98.130051,103.511902 97.369904,102.951416 96.809433C102.390945 96.248947,101.630798 95.934006,100.838104 95.934006C100.045410 95.934006,99.285263 96.248947,98.724792 96.809433C98.164307 97.369904,97.849365 98.130051,97.849365 98.922745C97.849365 99.715439,98.164307 100.475586,98.724792 101.036057C99.285263 101.596542,100.045410 101.911484,100.838104 101.911484C101.630798 101.911484,102.390945 101.596542,102.951416 101.036057C103.511902 100.475586,103.826843 99.715439,103.826843 98.922745Z" style="fill: rgb(100.000000%,100.000000%,100.000000%);stroke: none;"></path>
  <path d="M124.902649 94.695801C124.902649 93.903107,124.587708 93.142960,124.027222 92.582489C123.466751 92.022003,122.706604 91.707062,121.913910 91.707062C121.121216 91.707062,120.361069 92.022003,119.800598 92.582489C119.240112 93.142960,118.925171 93.903107,118.925171 94.695801C118.925171 95.488495,119.240112 96.248642,119.800598 96.809113C120.361069 97.369598,121.121216 97.684540,121.913910 97.684540C122.706604 97.684540,123.466751 97.369598,124.027222 96.809113C124.587708 96.248642,124.902649 95.488495,124.902649 94.695801Z" style="fill: rgb(100.000000%,100.000000%,100.000000%);stroke: none;"></path>
  <path d="M117.095184 97.477783C117.095184 96.685089,116.780243 95.924942,116.219757 95.364471C115.659286 94.803986,114.899139 94.489044,114.106445 94.489044C113.313751 94.489044,112.553604 94.803986,111.993134 95.364471C111.432648 95.924942,111.117706 96.685089,111.117706 97.477783C111.117706 98.270477,111.432648 99.030624,111.993134 99.591095C112.553604 100.151581,113.313751 100.466522,114.106445 100.466522C114.899139 100.466522,115.659286 100.151581,116.219757 99.591095C116.780243 99.030624,117.095184 98.270477,117.095184 97.477783Z" style="fill: rgb(100.000000%,100.000000%,100.000000%);stroke: none;"></path>
  <path d="M137.861816 87.167328C137.861816 86.374634,137.546875 85.614487,136.986389 85.054016C136.425919 84.493530,135.665771 84.178589,134.873077 84.178589C134.080383 84.178589,133.320236 84.493530,132.759766 85.054016C132.199280 85.614487,131.884338 86.374634,131.884338 87.167328C131.884338 87.960022,132.199280 88.720169,132.759766 89.280640C133.320236 89.841125,134.080383 90.156067,134.873077 90.156067C135.665771 90.156067,136.425919 89.841125,136.986389 89.280640C137.546875 88.720169,137.861816 87.960022,137.861816 87.167328Z" style="fill: rgb(100.000000%,100.000000%,100.000000%);stroke: none;"></path>
  <path d="M128.467590 92.449295C128.467590 91.656601,128.152649 90.896454,127.592163 90.335983C127.031693 89.775497,126.271545 89.460556,125.478851 89.460556C124.686157 89.460556,123.926010 89.775497,123.365540 90.335983C122.805054 90.896454,122.490112 91.656601,122.490112 92.449295C122.490112 93.241989,122.805054 94.002136,123.365540 94.562607C123.926010 95.123093,124.686157 95.438034,125.478851 95.438034C126.271545 95.438034,127.031693 95.123093,127.592163 94.562607C128.152649 94.002136,128.467590 93.241989,128.467590 92.449295Z" style="fill: rgb(100.000000%,100.000000%,100.000000%);stroke: none;"></path>
  <path d="M159.286087 72.042480C159.286087 71.249786,158.971146 70.489639,158.410660 69.929169C157.850189 69.368683,157.090042 69.053741,156.297348 69.053741C155.504654 69.053741,154.744507 69.368683,154.184036 69.929169C153.623550 70.489639,153.308609 71.249786,153.308609 72.042480C153.308609 72.835175,153.623550 73.595322,154.184036 74.155792C154.744507 74.716278,155.504654 75.031219,156.297348 75.031219C157.090042 75.031219,157.850189 74.716278,158.410660 74.155792C158.971146 73.595322,159.286087 72.835175,159.286087 72.042480Z" style="fill: rgb(100.000000%,100.000000%,100.000000%);stroke: none;"></path>
  <path d="M143.896927 84.376572C143.896927 83.583878,143.581985 82.823730,143.021500 82.263260C142.461029 81.702774,141.700882 81.387833,140.908188 81.387833C140.115494 81.387833,139.355347 81.702774,138.794876 82.263260C138.234390 82.823730,137.919449 83.583878,137.919449 84.376572C137.919449 85.169266,138.234390 85.929413,138.794876 86.489883C139.355347 87.050369,140.115494 87.365311,140.908188 87.365311C141.700882 87.365311,142.461029 87.050369,143.021500 86.489883C143.581985 85.929413,143.896927 85.169266,143.896927 84.376572Z" style="fill: rgb(100.000000%,100.000000%,100.000000%);stroke: none;"></path>
  <path d="M160.615097 26.971970C160.615097 26.179276,160.300156 25.419128,159.739670 24.858658C159.179199 24.298172,158.419052 23.983231,157.626358 23.983231C156.833664 23.983231,156.073517 24.298172,155.513046 24.858658C154.952560 25.419128,154.637619 26.179276,154.637619 26.971970C154.637619 27.764664,154.952560 28.524811,155.513046 29.085281C156.073517 29.645767,156.833664 29.960709,157.626358 29.960709C158.419052 29.960709,159.179199 29.645767,159.739670 29.085281C160.300156 28.524811,160.615097 27.764664,160.615097 26.971970Z" style="fill: rgb(100.000000%,100.000000%,100.000000%);stroke: none;"></path>
  <path d="M165.138885 59.365097C165.138885 58.572403,164.823944 57.812256,164.263458 57.251785C163.702988 56.691299,162.942841 56.376358,162.150146 56.376358C161.357452 56.376358,160.597305 56.691299,160.036835 57.251785C159.476349 57.812256,159.161407 58.572403,159.161407 59.365097C159.161407 60.157791,159.476349 60.917938,160.036835 61.478409C160.597305 62.038895,161.357452 62.353836,162.150146 62.353836C162.942841 62.353836,163.702988 62.038895,164.263458 61.478409C164.823944 60.917938,165.138885 60.157791,165.138885 59.365097Z" style="fill: rgb(100.000000%,100.000000%,100.000000%);stroke: none;"></path>
  <path d="M102.985229 2.362381C102.985229 1.569687,102.670288 0.809540,102.109802 0.249069C101.549332 -0.311417,100.789185 -0.626358,99.996490 -0.626358C99.203796 -0.626358,98.443649 -0.311417,97.883179 0.249069C97.322693 0.809540,97.007751 1.569687,97.007751 2.362381C97.007751 3.155075,97.322693 3.915222,97.883179 4.475693C98.443649 5.036179,99.203796 5.351120,99.996490 5.351120C100.789185 5.351120,101.549332 5.036179,102.109802 4.475693C102.670288 3.915222,102.985229 3.155075,102.985229 2.362381Z" style="fill: rgb(100.000000%,100.000000%,100.000000%);stroke: none;"></path>
  <path d="M143.005508 14.338470C143.005508 13.545776,142.690567 12.785629,142.130081 12.225159C141.569611 11.664673,140.809464 11.349731,140.016769 11.349731C139.224075 11.349731,138.463928 11.664673,137.903458 12.225159C137.342972 12.785629,137.028030 13.545776,137.028030 14.338470C137.028030 15.131165,137.342972 15.891312,137.903458 16.451782C138.463928 17.012268,139.224075 17.327209,140.016769 17.327209C140.809464 17.327209,141.569611 17.012268,142.130081 16.451782C142.690567 15.891312,143.005508 15.131165,143.005508 14.338470Z" style="fill: rgb(100.000000%,100.000000%,100.000000%);stroke: none;"></path>
  <path d="M62.846832 35.793091C62.846832 35.000397,62.531891 34.240250,61.971405 33.679779C61.410934 33.119293,60.650787 32.804352,59.858093 32.804352C59.065399 32.804352,58.305252 33.119293,57.744781 33.679779C57.184296 34.240250,56.869354 35.000397,56.869354 35.793091C56.869354 36.585785,57.184296 37.345932,57.744781 37.906403C58.305252 38.466888,59.065399 38.781830,59.858093 38.781830C60.650787 38.781830,61.410934 38.466888,61.971405 37.906403C62.531891 37.345932,62.846832 36.585785,62.846832 35.793091Z" style="fill: rgb(100.000000%,100.000000%,100.000000%);stroke: none;"></path>
  <path d="M79.401718 4.874176C79.401718 4.081482,79.086777 3.321335,78.526291 2.760864C77.965820 2.200378,77.205673 1.885437,76.412979 1.885437C75.620285 1.885437,74.860138 2.200378,74.299667 2.760864C73.739182 3.321335,73.424240 4.081482,73.424240 4.874176C73.424240 5.666870,73.739182 6.427017,74.299667 6.987488C74.860138 7.547974,75.620285 7.862915,76.412979 7.862915C77.205673 7.862915,77.965820 7.547974,78.526291 6.987488C79.086777 6.427017,79.401718 5.666870,79.401718 4.874176Z" style="fill: rgb(100.000000%,100.000000%,100.000000%);stroke: none;"></path>
  <path d="M50.602371 77.120178C50.602371 76.327484,50.287430 75.567337,49.726944 75.006866C49.166473 74.446381,48.406326 74.131439,47.613632 74.131439C46.820938 74.131439,46.060791 74.446381,45.500320 75.006866C44.939835 75.567337,44.624893 76.327484,44.624893 77.120178C44.624893 77.912872,44.939835 78.673019,45.500320 79.233490C46.060791 79.793976,46.820938 80.108917,47.613632 80.108917C48.406326 80.108917,49.166473 79.793976,49.726944 79.233490C50.287430 78.673019,50.602371 77.912872,50.602371 77.120178Z" style="fill: rgb(100.000000%,100.000000%,100.000000%);stroke: none;"></path>
  <path d="M67.482239 52.440796C67.482239 51.648102,67.167297 50.887955,66.606812 50.327484C66.046341 49.766998,65.286194 49.452057,64.493500 49.452057C63.700806 49.452057,62.940659 49.766998,62.380188 50.327484C61.819702 50.887955,61.504761 51.648102,61.504761 52.440796C61.504761 53.233490,61.819702 53.993637,62.380188 54.554108C62.940659 55.114594,63.700806 55.429535,64.493500 55.429535C65.286194 55.429535,66.046341 55.114594,66.606812 54.554108C67.167297 53.993637,67.482239 53.233490,67.482239 52.440796Z" style="fill: rgb(100.000000%,100.000000%,100.000000%);stroke: none;"></path>
  <path d="M5.326492 105.732193C5.326492 104.939499,5.011551 104.179352,4.451065 103.618881C3.890594 103.058395,3.130447 102.743454,2.337753 102.743454C1.545059 102.743454,0.784912 103.058395,0.224442 103.618881C-0.336044 104.179352,-0.650986 104.939499,-0.650986 105.732193C-0.650986 106.524887,-0.336044 107.285034,0.224442 107.845505C0.784912 108.405991,1.545059 108.720932,2.337753 108.720932C3.130447 108.720932,3.890594 108.405991,4.451065 107.845505C5.011551 107.285034,5.326492 106.524887,5.326492 105.732193Z" style="fill: rgb(100.000000%,100.000000%,100.000000%);stroke: none;"></path>
  <path d="M32.946350 78.387726C32.946350 77.595032,32.631409 76.834885,32.070923 76.274414C31.510452 75.713928,30.750305 75.398987,29.957611 75.398987C29.164917 75.398987,28.404770 75.713928,27.844299 76.274414C27.283813 76.834885,26.968872 77.595032,26.968872 78.387726C26.968872 79.180420,27.283813 79.940567,27.844299 80.501038C28.404770 81.061523,29.164917 81.376465,29.957611 81.376465C30.750305 81.376465,31.510452 81.061523,32.070923 80.501038C32.631409 79.940567,32.946350 79.180420,32.946350 78.387726Z" style="fill: rgb(100.000000%,100.000000%,100.000000%);stroke: none;"></path>
  <path d="M41.976562 172.091080C41.976562 171.298386,41.661621 170.538239,41.101135 169.977768C40.540665 169.417282,39.780518 169.102341,38.987823 169.102341C38.195129 169.102341,37.434982 169.417282,36.874512 169.977768C36.314026 170.538239,35.999084 171.298386,35.999084 172.091080C35.999084 172.883774,36.314026 173.643921,36.874512 174.204391C37.434982 174.764877,38.195129 175.079819,38.987823 175.079819C39.780518 175.079819,40.540665 174.764877,41.101135 174.204391C41.661621 173.643921,41.976562 172.883774,41.976562 172.091080Z" style="fill: rgb(100.000000%,100.000000%,100.000000%);stroke: none;"></path>
  <path d="M11.383179 133.221008C11.383179 132.428314,11.068237 131.668167,10.507751 131.107697C9.947281 130.547211,9.187134 130.232269,8.394440 130.232269C7.601746 130.232269,6.841599 130.547211,6.281128 131.107697C5.720642 131.668167,5.405701 132.428314,5.405701 133.221008C5.405701 134.013702,5.720642 134.773849,6.281128 135.334320C6.841599 135.894806,7.601746 136.209747,8.394440 136.209747C9.187134 136.209747,9.947281 135.894806,10.507751 135.334320C11.068237 134.773849,11.383179 134.013702,11.383179 133.221008Z" style="fill: rgb(100.000000%,100.000000%,100.000000%);stroke: none;"></path>
  <path d="M99.613602 171.962814C99.613602 171.170120,99.298660 170.409973,98.738174 169.849503C98.177704 169.289017,97.417557 168.974075,96.624863 168.974075C95.832169 168.974075,95.072021 169.289017,94.511551 169.849503C93.951065 170.409973,93.636124 171.170120,93.636124 171.962814C93.636124 172.755508,93.951065 173.515656,94.511551 174.076126C95.072021 174.636612,95.832169 174.951553,96.624863 174.951553C97.417557 174.951553,98.177704 174.636612,98.738174 174.076126C99.298660 173.515656,99.613602 172.755508,99.613602 171.962814Z" style="fill: rgb(100.000000%,100.000000%,100.000000%);stroke: none;"></path>
  <path d="M64.437897 184.967468C64.437897 184.174774,64.122955 183.414627,63.562469 182.854156C63.001999 182.293671,62.241852 181.978729,61.449158 181.978729C60.656464 181.978729,59.896317 182.293671,59.335846 182.854156C58.775360 183.414627,58.460419 184.174774,58.460419 184.967468C58.460419 185.760162,58.775360 186.520309,59.335846 187.080780C59.896317 187.641266,60.656464 187.956207,61.449158 187.956207C62.241852 187.956207,63.001999 187.641266,63.562469 187.080780C64.122955 186.520309,64.437897 185.760162,64.437897 184.967468Z" style="fill: rgb(100.000000%,100.000000%,100.000000%);stroke: none;"></path>
  <path d="M112.402084 137.889191C112.402084 137.096497,112.087143 136.336349,111.526657 135.775879C110.966187 135.215393,110.206039 134.900452,109.413345 134.900452C108.620651 134.900452,107.860504 135.215393,107.300034 135.775879C106.739548 136.336349,106.424606 137.096497,106.424606 137.889191C106.424606 138.681885,106.739548 139.442032,107.300034 140.002502C107.860504 140.562988,108.620651 140.877930,109.413345 140.877930C110.206039 140.877930,110.966187 140.562988,111.526657 140.002502C112.087143 139.442032,112.402084 138.681885,112.402084 137.889191Z" style="fill: rgb(100.000000%,100.000000%,100.000000%);stroke: none;"></path>
  <path d="M108.622147 159.286224C108.622147 158.493530,108.307205 157.733383,107.746719 157.172913C107.186249 156.612427,106.426102 156.297485,105.633408 156.297485C104.840714 156.297485,104.080566 156.612427,103.520096 157.172913C102.959610 157.733383,102.644669 158.493530,102.644669 159.286224C102.644669 160.078918,102.959610 160.839066,103.520096 161.399536C104.080566 161.960022,104.840714 162.274963,105.633408 162.274963C106.426102 162.274963,107.186249 161.960022,107.746719 161.399536C108.307205 160.839066,108.622147 160.078918,108.622147 159.286224Z" style="fill: rgb(100.000000%,100.000000%,100.000000%);stroke: none;"></path>
  <path d="M112.377762 119.268997C112.377762 118.476303,112.062820 117.716156,111.502335 117.155685C110.941864 116.595200,110.181717 116.280258,109.389023 116.280258C108.596329 116.280258,107.836182 116.595200,107.275711 117.155685C106.715225 117.716156,106.400284 118.476303,106.400284 119.268997C106.400284 120.061691,106.715225 120.821838,107.275711 121.382309C107.836182 121.942795,108.596329 122.257736,109.389023 122.257736C110.181717 122.257736,110.941864 121.942795,111.502335 121.382309C112.062820 120.821838,112.377762 120.061691,112.377762 119.268997Z" style="fill: rgb(100.000000%,100.000000%,100.000000%);stroke: none;"></path>
  <path d="M112.054550 130.728790C112.054550 129.936096,111.739609 129.175949,111.179123 128.615479C110.618652 128.054993,109.858505 127.740051,109.065811 127.740051C108.273117 127.740051,107.512970 128.054993,106.952499 128.615479C106.392014 129.175949,106.077072 129.936096,106.077072 130.728790C106.077072 131.521484,106.392014 132.281631,106.952499 132.842102C107.512970 133.402588,108.273117 133.717529,109.065811 133.717529C109.858505 133.717529,110.618652 133.402588,111.179123 132.842102C111.739609 132.281631,112.054550 131.521484,112.054550 130.728790Z" style="fill: rgb(100.000000%,100.000000%,100.000000%);stroke: none;"></path>
  <path d="M111.656891 106.405823C111.656891 105.613129,111.341949 104.852982,110.781464 104.292511C110.220993 103.732025,109.460846 103.417084,108.668152 103.417084C107.875458 103.417084,107.115311 103.732025,106.554840 104.292511C105.994354 104.852982,105.679413 105.613129,105.679413 106.405823C105.679413 107.198517,105.994354 107.958664,106.554840 108.519135C107.115311 109.079620,107.875458 109.394562,108.668152 109.394562C109.460846 109.394562,110.220993 109.079620,110.781464 108.519135C111.341949 107.958664,111.656891 107.198517,111.656891 106.405823Z" style="fill: rgb(100.000000%,100.000000%,100.000000%);stroke: none;"></path>
  <path d="M112.705399 114.909042C112.705399 114.116348,112.390457 113.356201,111.829971 112.795731C111.269501 112.235245,110.509354 111.920303,109.716660 111.920303C108.923965 111.920303,108.163818 112.235245,107.603348 112.795731C107.042862 113.356201,106.727921 114.116348,106.727921 114.909042C106.727921 115.701736,107.042862 116.461884,107.603348 117.022354C108.163818 117.582840,108.923965 117.897781,109.716660 117.897781C110.509354 117.897781,111.269501 117.582840,111.829971 117.022354C112.390457 116.461884,112.705399 115.701736,112.705399 114.909042Z" style="fill: rgb(100.000000%,100.000000%,100.000000%);stroke: none;"></path>
  <path d="M107.198257 93.561996C107.198257 92.769302,106.883316 92.009155,106.322830 91.448685C105.762360 90.888199,105.002213 90.573257,104.209518 90.573257C103.416824 90.573257,102.656677 90.888199,102.096207 91.448685C101.535721 92.009155,101.220779 92.769302,101.220779 93.561996C101.220779 94.354691,101.535721 95.114838,102.096207 95.675308C102.656677 96.235794,103.416824 96.550735,104.209518 96.550735C105.002213 96.550735,105.762360 96.235794,106.322830 95.675308C106.883316 95.114838,107.198257 94.354691,107.198257 93.561996Z" style="fill: rgb(100.000000%,100.000000%,100.000000%);stroke: none;"></path>
  <path d="M110.348892 102.378189C110.348892 101.585495,110.033951 100.825348,109.473465 100.264877C108.912994 99.704391,108.152847 99.389450,107.360153 99.389450C106.567459 99.389450,105.807312 99.704391,105.246841 100.264877C104.686356 100.825348,104.371414 101.585495,104.371414 102.378189C104.371414 103.170883,104.686356 103.931030,105.246841 104.491501C105.807312 105.051987,106.567459 105.366928,107.360153 105.366928C108.152847 105.366928,108.912994 105.051987,109.473465 104.491501C110.033951 103.931030,110.348892 103.170883,110.348892 102.378189Z" style="fill: rgb(100.000000%,100.000000%,100.000000%);stroke: none;"></path>
  <path d="M107.359344 78.045883C107.359344 77.253189,107.044403 76.493042,106.483917 75.932571C105.923447 75.372086,105.163300 75.057144,104.370605 75.057144C103.577911 75.057144,102.817764 75.372086,102.257294 75.932571C101.696808 76.493042,101.381866 77.253189,101.381866 78.045883C101.381866 78.838577,101.696808 79.598724,102.257294 80.159195C102.817764 80.719681,103.577911 81.034622,104.370605 81.034622C105.163300 81.034622,105.923447 80.719681,106.483917 80.159195C107.044403 79.598724,107.359344 78.838577,107.359344 78.045883Z" style="fill: rgb(100.000000%,100.000000%,100.000000%);stroke: none;"></path>
  <path d="M105.288101 88.557632C105.288101 87.764938,104.973160 87.004791,104.412674 86.444321C103.852203 85.883835,103.092056 85.568893,102.299362 85.568893C101.506668 85.568893,100.746521 85.883835,100.186050 86.444321C99.625565 87.004791,99.310623 87.764938,99.310623 88.557632C99.310623 89.350327,99.625565 90.110474,100.186050 90.670944C100.746521 91.231430,101.506668 91.546371,102.299362 91.546371C103.092056 91.546371,103.852203 91.231430,104.412674 90.670944C104.973160 90.110474,105.288101 89.350327,105.288101 88.557632Z" style="fill: rgb(100.000000%,100.000000%,100.000000%);stroke: none;"></path>
  <path d="M120.137817 65.570175C120.137817 64.777481,119.822876 64.017334,119.262390 63.456863C118.701920 62.896378,117.941772 62.581436,117.149078 62.581436C116.356384 62.581436,115.596237 62.896378,115.035767 63.456863C114.475281 64.017334,114.160339 64.777481,114.160339 65.570175C114.160339 66.362869,114.475281 67.123016,115.035767 67.683487C115.596237 68.243973,116.356384 68.558914,117.149078 68.558914C117.941772 68.558914,118.701920 68.243973,119.262390 67.683487C119.822876 67.123016,120.137817 66.362869,120.137817 65.570175Z" style="fill: rgb(100.000000%,100.000000%,100.000000%);stroke: none;"></path>
  <path d="M111.477036 73.972473C111.477036 73.179779,111.162094 72.419632,110.601608 71.859161C110.041138 71.298676,109.280991 70.983734,108.488297 70.983734C107.695602 70.983734,106.935455 71.298676,106.374985 71.859161C105.814499 72.419632,105.499557 73.179779,105.499557 73.972473C105.499557 74.765167,105.814499 75.525314,106.374985 76.085785C106.935455 76.646271,107.695602 76.961212,108.488297 76.961212C109.280991 76.961212,110.041138 76.646271,110.601608 76.085785C111.162094 75.525314,111.477036 74.765167,111.477036 73.972473Z" style="fill: rgb(100.000000%,100.000000%,100.000000%);stroke: none;"></path>
  <path d="M139.646240 49.549301C139.646240 48.756607,139.331299 47.996460,138.770813 47.435989C138.210342 46.875504,137.450195 46.560562,136.657501 46.560562C135.864807 46.560562,135.104660 46.875504,134.544189 47.435989C133.983704 47.996460,133.668762 48.756607,133.668762 49.549301C133.668762 50.341995,133.983704 51.102142,134.544189 51.662613C135.104660 52.223099,135.864807 52.538040,136.657501 52.538040C137.450195 52.538040,138.210342 52.223099,138.770813 51.662613C139.331299 51.102142,139.646240 50.341995,139.646240 49.549301Z" style="fill: rgb(100.000000%,100.000000%,100.000000%);stroke: none;"></path>
  <path d="M124.793533 60.980774C124.793533 60.188080,124.478592 59.427933,123.918106 58.867462C123.357635 58.306976,122.597488 57.992035,121.804794 57.992035C121.012100 57.992035,120.251953 58.306976,119.691483 58.867462C119.130997 59.427933,118.816055 60.188080,118.816055 60.980774C118.816055 61.773468,119.130997 62.533615,119.691483 63.094086C120.251953 63.654572,121.012100 63.969513,121.804794 63.969513C122.597488 63.969513,123.357635 63.654572,123.918106 63.094086C124.478592 62.533615,124.793533 61.773468,124.793533 60.980774Z" style="fill: rgb(100.000000%,100.000000%,100.000000%);stroke: none;"></path>
  <path d="M183.261459 49.864883C183.261459 49.072189,182.946518 48.312042,182.386032 47.751572C181.825562 47.191086,181.065414 46.876144,180.272720 46.876144C179.480026 46.876144,178.719879 47.191086,178.159409 47.751572C177.598923 48.312042,177.283981 49.072189,177.283981 49.864883C177.283981 50.657578,177.598923 51.417725,178.159409 51.978195C178.719879 52.538681,179.480026 52.853622,180.272720 52.853622C181.065414 52.853622,181.825562 52.538681,182.386032 51.978195C182.946518 51.417725,183.261459 50.657578,183.261459 49.864883Z" style="fill: rgb(100.000000%,100.000000%,100.000000%);stroke: none;"></path>
  <path d="M151.337479 44.341034C151.337479 43.548340,151.022537 42.788193,150.462051 42.227722C149.901581 41.667236,149.141434 41.352295,148.348740 41.352295C147.556046 41.352295,146.795898 41.667236,146.235428 42.227722C145.674942 42.788193,145.360001 43.548340,145.360001 44.341034C145.360001 45.133728,145.674942 45.893875,146.235428 46.454346C146.795898 47.014832,147.556046 47.329773,148.348740 47.329773C149.141434 47.329773,149.901581 47.014832,150.462051 46.454346C151.022537 45.893875,151.337479 45.133728,151.337479 44.341034Z" style="fill: rgb(100.000000%,100.000000%,100.000000%);stroke: none;"></path>
  <path d="M202.097519 110.121399C202.097519 109.328705,201.782578 108.568558,201.222092 108.008087C200.661621 107.447601,199.901474 107.132660,199.108780 107.132660C198.316086 107.132660,197.555939 107.447601,196.995468 108.008087C196.434982 108.568558,196.120041 109.328705,196.120041 110.121399C196.120041 110.914093,196.434982 111.674240,196.995468 112.234711C197.555939 112.795197,198.316086 113.110138,199.108780 113.110138C199.901474 113.110138,200.661621 112.795197,201.222092 112.234711C201.782578 111.674240,202.097519 110.914093,202.097519 110.121399Z" style="fill: rgb(100.000000%,100.000000%,100.000000%);stroke: none;"></path>
  <path d="M194.265945 69.770569C194.265945 68.977875,193.951004 68.217728,193.390518 67.657257C192.830048 67.096771,192.069901 66.781830,191.277206 66.781830C190.484512 66.781830,189.724365 67.096771,189.163895 67.657257C188.603409 68.217728,188.288467 68.977875,188.288467 69.770569C188.288467 70.563263,188.603409 71.323410,189.163895 71.883881C189.724365 72.444366,190.484512 72.759308,191.277206 72.759308C192.069901 72.759308,192.830048 72.444366,193.390518 71.883881C193.951004 71.323410,194.265945 70.563263,194.265945 69.770569Z" style="fill: rgb(100.000000%,100.000000%,100.000000%);stroke: none;"></path>
  <path d="M173.374512 148.250687C173.374512 147.457993,173.059570 146.697845,172.499084 146.137375C171.938614 145.576889,171.178467 145.261948,170.385773 145.261948C169.593079 145.261948,168.832932 145.576889,168.272461 146.137375C167.711975 146.697845,167.397034 147.457993,167.397034 148.250687C167.397034 149.043381,167.711975 149.803528,168.272461 150.363998C168.832932 150.924484,169.593079 151.239426,170.385773 151.239426C171.178467 151.239426,171.938614 150.924484,172.499084 150.363998C173.059570 149.803528,173.374512 149.043381,173.374512 148.250687Z" style="fill: rgb(100.000000%,100.000000%,100.000000%);stroke: none;"></path>
  <path d="M199.606171 131.877609C199.606171 131.084915,199.291229 130.324768,198.730743 129.764297C198.170273 129.203812,197.410126 128.888870,196.617432 128.888870C195.824738 128.888870,195.064590 129.203812,194.504120 129.764297C193.943634 130.324768,193.628693 131.084915,193.628693 131.877609C193.628693 132.670303,193.943634 133.430450,194.504120 133.990921C195.064590 134.551407,195.824738 134.866348,196.617432 134.866348C197.410126 134.866348,198.170273 134.551407,198.730743 133.990921C199.291229 133.430450,199.606171 132.670303,199.606171 131.877609Z" style="fill: rgb(100.000000%,100.000000%,100.000000%);stroke: none;"></path>
  <path d="M152.614944 134.295212C152.614944 133.502518,152.300003 132.742371,151.739517 132.181900C151.179047 131.621414,150.418900 131.306473,149.626205 131.306473C148.833511 131.306473,148.073364 131.621414,147.512894 132.181900C146.952408 132.742371,146.637466 133.502518,146.637466 134.295212C146.637466 135.087906,146.952408 135.848053,147.512894 136.408524C148.073364 136.969009,148.833511 137.283951,149.626205 137.283951C150.418900 137.283951,151.179047 136.969009,151.739517 136.408524C152.300003 135.848053,152.614944 135.087906,152.614944 134.295212Z" style="fill: rgb(100.000000%,100.000000%,100.000000%);stroke: none;"></path>
  <path d="M160.632660 147.408524C160.632660 146.615829,160.317719 145.855682,159.757233 145.295212C159.196762 144.734726,158.436615 144.419785,157.643921 144.419785C156.851227 144.419785,156.091080 144.734726,155.530609 145.295212C154.970123 145.855682,154.655182 146.615829,154.655182 147.408524C154.655182 148.201218,154.970123 148.961365,155.530609 149.521835C156.091080 150.082321,156.851227 150.397263,157.643921 150.397263C158.436615 150.397263,159.196762 150.082321,159.757233 149.521835C160.317719 148.961365,160.632660 148.201218,160.632660 147.408524Z" style="fill: rgb(100.000000%,100.000000%,100.000000%);stroke: none;"></path>
  <path d="M152.474564 121.529236C152.474564 120.736542,152.159622 119.976395,151.599136 119.415924C151.038666 118.855438,150.278519 118.540497,149.485825 118.540497C148.693130 118.540497,147.932983 118.855438,147.372513 119.415924C146.812027 119.976395,146.497086 120.736542,146.497086 121.529236C146.497086 122.321930,146.812027 123.082077,147.372513 123.642548C147.932983 124.203033,148.693130 124.517975,149.485825 124.517975C150.278519 124.517975,151.038666 124.203033,151.599136 123.642548C152.159622 123.082077,152.474564 122.321930,152.474564 121.529236Z" style="fill: rgb(100.000000%,100.000000%,100.000000%);stroke: none;"></path>
  <path d="M152.375809 129.555023C152.375809 128.762329,152.060867 128.002182,151.500381 127.441711C150.939911 126.881226,150.179764 126.566284,149.387070 126.566284C148.594376 126.566284,147.834229 126.881226,147.273758 127.441711C146.713272 128.002182,146.398331 128.762329,146.398331 129.555023C146.398331 130.347717,146.713272 131.107864,147.273758 131.668335C147.834229 132.228821,148.594376 132.543762,149.387070 132.543762C150.179764 132.543762,150.939911 132.228821,151.500381 131.668335C152.060867 131.107864,152.375809 130.347717,152.375809 129.555023Z" style="fill: rgb(100.000000%,100.000000%,100.000000%);stroke: none;"></path>
  <path d="M146.515900 114.491104C146.515900 113.698410,146.200958 112.938263,145.640472 112.377792C145.080002 111.817307,144.319855 111.502365,143.527161 111.502365C142.734467 111.502365,141.974319 111.817307,141.413849 112.377792C140.853363 112.938263,140.538422 113.698410,140.538422 114.491104C140.538422 115.283798,140.853363 116.043945,141.413849 116.604416C141.974319 117.164902,142.734467 117.479843,143.527161 117.479843C144.319855 117.479843,145.080002 117.164902,145.640472 116.604416C146.200958 116.043945,146.515900 115.283798,146.515900 114.491104Z" style="fill: rgb(100.000000%,100.000000%,100.000000%);stroke: none;"></path>
  <path d="M152.287613 117.746933C152.287613 116.954239,151.972672 116.194092,151.412186 115.633621C150.851715 115.073135,150.091568 114.758194,149.298874 114.758194C148.506180 114.758194,147.746033 115.073135,147.185562 115.633621C146.625076 116.194092,146.310135 116.954239,146.310135 117.746933C146.310135 118.539627,146.625076 119.299774,147.185562 119.860245C147.746033 120.420731,148.506180 120.735672,149.298874 120.735672C150.091568 120.735672,150.851715 120.420731,151.412186 119.860245C151.972672 119.299774,152.287613 118.539627,152.287613 117.746933Z" style="fill: rgb(100.000000%,100.000000%,100.000000%);stroke: none;"></path>
  <path d="M136.156311 120.005173C136.156311 119.212479,135.841370 118.452332,135.280884 117.891861C134.720413 117.331375,133.960266 117.016434,133.167572 117.016434C132.374878 117.016434,131.614731 117.331375,131.054260 117.891861C130.493774 118.452332,130.178833 119.212479,130.178833 120.005173C130.178833 120.797867,130.493774 121.558014,131.054260 122.118484C131.614731 122.678970,132.374878 122.993912,133.167572 122.993912C133.960266 122.993912,134.720413 122.678970,135.280884 122.118484C135.841370 121.558014,136.156311 120.797867,136.156311 120.005173Z" style="fill: rgb(100.000000%,100.000000%,100.000000%);stroke: none;"></path>
  <path d="M143.232788 116.245499C143.232788 115.452805,142.917847 114.692657,142.357361 114.132187C141.796890 113.571701,141.036743 113.256760,140.244049 113.256760C139.451355 113.256760,138.691208 113.571701,138.130737 114.132187C137.570251 114.692657,137.255310 115.452805,137.255310 116.245499C137.255310 117.038193,137.570251 117.798340,138.130737 118.358810C138.691208 118.919296,139.451355 119.234238,140.244049 119.234238C141.036743 119.234238,141.796890 118.919296,142.357361 118.358810C142.917847 117.798340,143.232788 117.038193,143.232788 116.245499Z" style="fill: rgb(100.000000%,100.000000%,100.000000%);stroke: none;"></path>
  <path d="M122.279968 123.521317C122.279968 122.728622,121.965027 121.968475,121.404541 121.408005C120.844070 120.847519,120.083923 120.532578,119.291229 120.532578C118.498535 120.532578,117.738388 120.847519,117.177917 121.408005C116.617432 121.968475,116.302490 122.728622,116.302490 123.521317C116.302490 124.314011,116.617432 125.074158,117.177917 125.634628C117.738388 126.195114,118.498535 126.510056,119.291229 126.510056C120.083923 126.510056,120.844070 126.195114,121.404541 125.634628C121.965027 125.074158,122.279968 124.314011,122.279968 123.521317Z" style="fill: rgb(100.000000%,100.000000%,100.000000%);stroke: none;"></path>
  <path d="M131.753448 121.600449C131.753448 120.807755,131.438507 120.047607,130.878021 119.487137C130.317551 118.926651,129.557404 118.611710,128.764709 118.611710C127.972015 118.611710,127.211868 118.926651,126.651398 119.487137C126.090912 120.047607,125.775970 120.807755,125.775970 121.600449C125.775970 122.393143,126.090912 123.153290,126.651398 123.713760C127.211868 124.274246,127.972015 124.589188,128.764709 124.589188C129.557404 124.589188,130.317551 124.274246,130.878021 123.713760C131.438507 123.153290,131.753448 122.393143,131.753448 121.600449Z" style="fill: rgb(100.000000%,100.000000%,100.000000%);stroke: none;"></path>
  <path d="M107.860474 123.515747C107.860474 122.723053,107.545532 121.962906,106.985046 121.402435C106.424576 120.841949,105.664429 120.527008,104.871735 120.527008C104.079041 120.527008,103.318893 120.841949,102.758423 121.402435C102.197937 121.962906,101.882996 122.723053,101.882996 123.515747C101.882996 124.308441,102.197937 125.068588,102.758423 125.629059C103.318893 126.189545,104.079041 126.504486,104.871735 126.504486C105.664429 126.504486,106.424576 126.189545,106.985046 125.629059C107.545532 125.068588,107.860474 124.308441,107.860474 123.515747Z" style="fill: rgb(100.000000%,100.000000%,100.000000%);stroke: none;"></path>
  <path d="M117.259476 123.729187C117.259476 122.936493,116.944534 122.176346,116.384048 121.615875C115.823578 121.055389,115.063431 120.740448,114.270737 120.740448C113.478043 120.740448,112.717896 121.055389,112.157425 121.615875C111.596939 122.176346,111.281998 122.936493,111.281998 123.729187C111.281998 124.521881,111.596939 125.282028,112.157425 125.842499C112.717896 126.402985,113.478043 126.717926,114.270737 126.717926C115.063431 126.717926,115.823578 126.402985,116.384048 125.842499C116.944534 125.282028,117.259476 124.521881,117.259476 123.729187Z" style="fill: rgb(100.000000%,100.000000%,100.000000%);stroke: none;"></path>
  <path d="M94.576874 120.984756C94.576874 120.192062,94.261932 119.431915,93.701447 118.871445C93.140976 118.310959,92.380829 117.996017,91.588135 117.996017C90.795441 117.996017,90.035294 118.310959,89.474823 118.871445C88.914337 119.431915,88.599396 120.192062,88.599396 120.984756C88.599396 121.777451,88.914337 122.537598,89.474823 123.098068C90.035294 123.658554,90.795441 123.973495,91.588135 123.973495C92.380829 123.973495,93.140976 123.658554,93.701447 123.098068C94.261932 122.537598,94.576874 121.777451,94.576874 120.984756Z" style="fill: rgb(100.000000%,100.000000%,100.000000%);stroke: none;"></path>
  <path d="M103.461426 123.167282C103.461426 122.374588,103.146484 121.614441,102.585999 121.053970C102.025528 120.493484,101.265381 120.178543,100.472687 120.178543C99.679993 120.178543,98.919846 120.493484,98.359375 121.053970C97.798889 121.614441,97.483948 122.374588,97.483948 123.167282C97.483948 123.959976,97.798889 124.720123,98.359375 125.280594C98.919846 125.841080,99.679993 126.156021,100.472687 126.156021C101.265381 126.156021,102.025528 125.841080,102.585999 125.280594C103.146484 124.720123,103.461426 123.959976,103.461426 123.167282Z" style="fill: rgb(100.000000%,100.000000%,100.000000%);stroke: none;"></path>
  <path d="M78.416946 112.998505C78.416946 112.205811,78.102005 111.445663,77.541519 110.885193C76.981049 110.324707,76.220901 110.009766,75.428207 110.009766C74.635513 110.009766,73.875366 110.324707,73.314896 110.885193C72.754410 111.445663,72.439468 112.205811,72.439468 112.998505C72.439468 113.791199,72.754410 114.551346,73.314896 115.111816C73.875366 115.672302,74.635513 115.987244,75.428207 115.987244C76.220901 115.987244,76.981049 115.672302,77.541519 115.111816C78.102005 114.551346,78.416946 113.791199,78.416946 112.998505Z" style="fill: rgb(100.000000%,100.000000%,100.000000%);stroke: none;"></path>
  <path d="M90.212753 119.058884C90.212753 118.266190,89.897812 117.506042,89.337326 116.945572C88.776855 116.385086,88.016708 116.070145,87.224014 116.070145C86.431320 116.070145,85.671173 116.385086,85.110703 116.945572C84.550217 117.506042,84.235275 118.266190,84.235275 119.058884C84.235275 119.851578,84.550217 120.611725,85.110703 121.172195C85.671173 121.732681,86.431320 122.047623,87.224014 122.047623C88.016708 122.047623,88.776855 121.732681,89.337326 121.172195C89.897812 120.611725,90.212753 119.851578,90.212753 119.058884Z" style="fill: rgb(100.000000%,100.000000%,100.000000%);stroke: none;"></path>
  <path d="M49.477051 99.720825C49.477051 98.928131,49.162109 98.167984,48.601624 97.607513C48.041153 97.047028,47.281006 96.732086,46.488312 96.732086C45.695618 96.732086,44.935471 97.047028,44.375000 97.607513C43.814514 98.167984,43.499573 98.928131,43.499573 99.720825C43.499573 100.513519,43.814514 101.273666,44.375000 101.834137C44.935471 102.394623,45.695618 102.709564,46.488312 102.709564C47.281006 102.709564,48.041153 102.394623,48.601624 101.834137C49.162109 101.273666,49.477051 100.513519,49.477051 99.720825Z" style="fill: rgb(100.000000%,100.000000%,100.000000%);stroke: none;"></path>
  <path d="M71.244370 108.306015C71.244370 107.513321,70.929428 106.753174,70.368942 106.192703C69.808472 105.632217,69.048325 105.317276,68.255630 105.317276C67.462936 105.317276,66.702789 105.632217,66.142319 106.192703C65.581833 106.753174,65.266891 107.513321,65.266891 108.306015C65.266891 109.098709,65.581833 109.858856,66.142319 110.419327C66.702789 110.979813,67.462936 111.294754,68.255630 111.294754C69.048325 111.294754,69.808472 110.979813,70.368942 110.419327C70.929428 109.858856,71.244370 109.098709,71.244370 108.306015Z" style="fill: rgb(100.000000%,100.000000%,100.000000%);stroke: none;"></path>
  <path d="M7.021896 75.141541C7.021896 74.348846,6.706955 73.588699,6.146469 73.028229C5.585999 72.467743,4.825851 72.152802,4.033157 72.152802C3.240463 72.152802,2.480316 72.467743,1.919846 73.028229C1.359360 73.588699,1.044418 74.348846,1.044418 75.141541C1.044418 75.934235,1.359360 76.694382,1.919846 77.254852C2.480316 77.815338,3.240463 78.130280,4.033157 78.130280C4.825851 78.130280,5.585999 77.815338,6.146469 77.254852C6.706955 76.694382,7.021896 75.934235,7.021896 75.141541Z" style="fill: rgb(100.000000%,100.000000%,100.000000%);stroke: none;"></path>
  <path d="M33.443741 98.974121C33.443741 98.181427,33.128799 97.421280,32.568314 96.860809C32.007843 96.300323,31.247696 95.985382,30.455002 95.985382C29.662308 95.985382,28.902161 96.300323,28.341690 96.860809C27.781204 97.421280,27.466263 98.181427,27.466263 98.974121C27.466263 99.766815,27.781204 100.526962,28.341690 101.087433C28.902161 101.647919,29.662308 101.962860,30.455002 101.962860C31.247696 101.962860,32.007843 101.647919,32.568314 101.087433C33.128799 100.526962,33.443741 99.766815,33.443741 98.974121Z" style="fill: rgb(100.000000%,100.000000%,100.000000%);stroke: none;"></path>
  <path d="M31.859909 19.104980C31.859909 18.312286,31.544968 17.552139,30.984482 16.991669C30.424011 16.431183,29.663864 16.116241,28.871170 16.116241C28.078476 16.116241,27.318329 16.431183,26.757858 16.991669C26.197372 17.552139,25.882431 18.312286,25.882431 19.104980C25.882431 19.897675,26.197372 20.657822,26.757858 21.218292C27.318329 21.778778,28.078476 22.093719,28.871170 22.093719C29.663864 22.093719,30.424011 21.778778,30.984482 21.218292C31.544968 20.657822,31.859909 19.897675,31.859909 19.104980Z" style="fill: rgb(100.000000%,100.000000%,100.000000%);stroke: none;"></path>
  <path d="M6.834351 51.514725C6.834351 50.722031,6.519409 49.961884,5.958923 49.401413C5.398453 48.840927,4.638306 48.525986,3.845612 48.525986C3.052917 48.525986,2.292770 48.840927,1.732300 49.401413C1.171814 49.961884,0.856873 50.722031,0.856873 51.514725C0.856873 52.307419,1.171814 53.067566,1.732300 53.628036C2.292770 54.188522,3.052917 54.503464,3.845612 54.503464C4.638306 54.503464,5.398453 54.188522,5.958923 53.628036C6.519409 53.067566,6.834351 52.307419,6.834351 51.514725Z" style="fill: rgb(100.000000%,100.000000%,100.000000%);stroke: none;"></path>
  <path d="M81.888458 30.146225C81.888458 29.353531,81.573517 28.593384,81.013031 28.032913C80.452560 27.472427,79.692413 27.157486,78.899719 27.157486C78.107025 27.157486,77.346878 27.472427,76.786407 28.032913C76.225922 28.593384,75.910980 29.353531,75.910980 30.146225C75.910980 30.938919,76.225922 31.699066,76.786407 32.259537C77.346878 32.820023,78.107025 33.134964,78.899719 33.134964C79.692413 33.134964,80.452560 32.820023,81.013031 32.259537C81.573517 31.699066,81.888458 30.938919,81.888458 30.146225Z" style="fill: rgb(100.000000%,100.000000%,100.000000%);stroke: none;"></path>
  <path d="M53.096512 13.014374C53.096512 12.221680,52.781570 11.461533,52.221085 10.901062C51.660614 10.340576,50.900467 10.025635,50.107773 10.025635C49.315079 10.025635,48.554932 10.340576,47.994461 10.901062C47.433975 11.461533,47.119034 12.221680,47.119034 13.014374C47.119034 13.807068,47.433975 14.567215,47.994461 15.127686C48.554932 15.688171,49.315079 16.003113,50.107773 16.003113C50.900467 16.003113,51.660614 15.688171,52.221085 15.127686C52.781570 14.567215,53.096512 13.807068,53.096512 13.014374Z" style="fill: rgb(100.000000%,100.000000%,100.000000%);stroke: none;"></path>
  <path d="M102.344574 60.522614C102.344574 59.729919,102.029633 58.969772,101.469147 58.409302C100.908676 57.848816,100.148529 57.533875,99.355835 57.533875C98.563141 57.533875,97.802994 57.848816,97.242523 58.409302C96.682037 58.969772,96.367096 59.729919,96.367096 60.522614C96.367096 61.315308,96.682037 62.075455,97.242523 62.635925C97.802994 63.196411,98.563141 63.511353,99.355835 63.511353C100.148529 63.511353,100.908676 63.196411,101.469147 62.635925C102.029633 62.075455,102.344574 61.315308,102.344574 60.522614Z" style="fill: rgb(100.000000%,100.000000%,100.000000%);stroke: none;"></path>
  <path d="M87.240646 44.347610C87.240646 43.554916,86.925705 42.794769,86.365219 42.234299C85.804749 41.673813,85.044601 41.358871,84.251907 41.358871C83.459213 41.358871,82.699066 41.673813,82.138596 42.234299C81.578110 42.794769,81.263168 43.554916,81.263168 44.347610C81.263168 45.140305,81.578110 45.900452,82.138596 46.460922C82.699066 47.021408,83.459213 47.336349,84.251907 47.336349C85.044601 47.336349,85.804749 47.021408,86.365219 46.460922C86.925705 45.900452,87.240646 45.140305,87.240646 44.347610Z" style="fill: rgb(100.000000%,100.000000%,100.000000%);stroke: none;"></path>
  <path d="M118.985733 72.994537C118.985733 72.201843,118.670792 71.441696,118.110306 70.881226C117.549835 70.320740,116.789688 70.005798,115.996994 70.005798C115.204300 70.005798,114.444153 70.320740,113.883682 70.881226C113.323196 71.441696,113.008255 72.201843,113.008255 72.994537C113.008255 73.787231,113.323196 74.547379,113.883682 75.107849C114.444153 75.668335,115.204300 75.983276,115.996994 75.983276C116.789688 75.983276,117.549835 75.668335,118.110306 75.107849C118.670792 74.547379,118.985733 73.787231,118.985733 72.994537Z" style="fill: rgb(100.000000%,100.000000%,100.000000%);stroke: none;"></path>
  <path d="M109.182526 64.993958C109.182526 64.201263,108.867584 63.441116,108.307098 62.880646C107.746628 62.320160,106.986481 62.005219,106.193787 62.005219C105.401093 62.005219,104.640945 62.320160,104.080475 62.880646C103.519989 63.441116,103.205048 64.201263,103.205048 64.993958C103.205048 65.786652,103.519989 66.546799,104.080475 67.107269C104.640945 67.667755,105.401093 67.982697,106.193787 67.982697C106.986481 67.982697,107.746628 67.667755,108.307098 67.107269C108.867584 66.546799,109.182526 65.786652,109.182526 64.993958Z" style="fill: rgb(100.000000%,100.000000%,100.000000%);stroke: none;"></path>
  <path d="M127.901871 82.958130C127.901871 82.165436,127.586929 81.405289,127.026443 80.844818C126.465973 80.284332,125.705826 79.969391,124.913132 79.969391C124.120438 79.969391,123.360291 80.284332,122.799820 80.844818C122.239334 81.405289,121.924393 82.165436,121.924393 82.958130C121.924393 83.750824,122.239334 84.510971,122.799820 85.071442C123.360291 85.631927,124.120438 85.946869,124.913132 85.946869C125.705826 85.946869,126.465973 85.631927,127.026443 85.071442C127.586929 84.510971,127.901871 83.750824,127.901871 82.958130Z" style="fill: rgb(100.000000%,100.000000%,100.000000%);stroke: none;"></path>
  <path d="M122.348129 76.092667C122.348129 75.299973,122.033188 74.539825,121.472702 73.979355C120.912231 73.418869,120.152084 73.103928,119.359390 73.103928C118.566696 73.103928,117.806549 73.418869,117.246078 73.979355C116.685593 74.539825,116.370651 75.299973,116.370651 76.092667C116.370651 76.885361,116.685593 77.645508,117.246078 78.205978C117.806549 78.766464,118.566696 79.081406,119.359390 79.081406C120.152084 79.081406,120.912231 78.766464,121.472702 78.205978C122.033188 77.645508,122.348129 76.885361,122.348129 76.092667Z" style="fill: rgb(100.000000%,100.000000%,100.000000%);stroke: none;"></path>
  <path d="M134.441635 94.786026C134.441635 93.993332,134.126694 93.233185,133.566208 92.672714C133.005737 92.112228,132.245590 91.797287,131.452896 91.797287C130.660202 91.797287,129.900055 92.112228,129.339584 92.672714C128.779099 93.233185,128.464157 93.993332,128.464157 94.786026C128.464157 95.578720,128.779099 96.338867,129.339584 96.899338C129.900055 97.459824,130.660202 97.774765,131.452896 97.774765C132.245590 97.774765,133.005737 97.459824,133.566208 96.899338C134.126694 96.338867,134.441635 95.578720,134.441635 94.786026Z" style="fill: rgb(100.000000%,100.000000%,100.000000%);stroke: none;"></path>
  <path d="M130.115570 86.624695C130.115570 85.832001,129.800629 85.071854,129.240143 84.511383C128.679672 83.950897,127.919525 83.635956,127.126831 83.635956C126.334137 83.635956,125.573990 83.950897,125.013519 84.511383C124.453033 85.071854,124.138092 85.832001,124.138092 86.624695C124.138092 87.417389,124.453033 88.177536,125.013519 88.738007C125.573990 89.298492,126.334137 89.613434,127.126831 89.613434C127.919525 89.613434,128.679672 89.298492,129.240143 88.738007C129.800629 88.177536,130.115570 87.417389,130.115570 86.624695Z" style="fill: rgb(100.000000%,100.000000%,100.000000%);stroke: none;"></path>
  <path d="M139.312241 108.537750C139.312241 107.745056,138.997299 106.984909,138.436813 106.424438C137.876343 105.863953,137.116196 105.549011,136.323502 105.549011C135.530807 105.549011,134.770660 105.863953,134.210190 106.424438C133.649704 106.984909,133.334763 107.745056,133.334763 108.537750C133.334763 109.330444,133.649704 110.090591,134.210190 110.651062C134.770660 111.211548,135.530807 111.526489,136.323502 111.526489C137.116196 111.526489,137.876343 111.211548,138.436813 110.651062C138.997299 110.090591,139.312241 109.330444,139.312241 108.537750Z" style="fill: rgb(100.000000%,100.000000%,100.000000%);stroke: none;"></path>
  <path d="M136.483887 99.326920C136.483887 98.534225,136.168945 97.774078,135.608459 97.213608C135.047989 96.653122,134.287842 96.338181,133.495148 96.338181C132.702454 96.338181,131.942307 96.653122,131.381836 97.213608C130.821350 97.774078,130.506409 98.534225,130.506409 99.326920C130.506409 100.119614,130.821350 100.879761,131.381836 101.440231C131.942307 102.000717,132.702454 102.315659,133.495148 102.315659C134.287842 102.315659,135.047989 102.000717,135.608459 101.440231C136.168945 100.879761,136.483887 100.119614,136.483887 99.326920Z" style="fill: rgb(100.000000%,100.000000%,100.000000%);stroke: none;"></path>
  <path d="M140.355591 121.273529C140.355591 120.480835,140.040649 119.720688,139.480164 119.160217C138.919693 118.599731,138.159546 118.284790,137.366852 118.284790C136.574158 118.284790,135.814011 118.599731,135.253540 119.160217C134.693054 119.720688,134.378113 120.480835,134.378113 121.273529C134.378113 122.066223,134.693054 122.826370,135.253540 123.386841C135.814011 123.947327,136.574158 124.262268,137.366852 124.262268C138.159546 124.262268,138.919693 123.947327,139.480164 123.386841C140.040649 122.826370,140.355591 122.066223,140.355591 121.273529Z" style="fill: rgb(100.000000%,100.000000%,100.000000%);stroke: none;"></path>
  <path d="M140.155304 113.151978C140.155304 112.359283,139.840363 111.599136,139.279877 111.038666C138.719406 110.478180,137.959259 110.163239,137.166565 110.163239C136.373871 110.163239,135.613724 110.478180,135.053253 111.038666C134.492767 111.599136,134.177826 112.359283,134.177826 113.151978C134.177826 113.944672,134.492767 114.704819,135.053253 115.265289C135.613724 115.825775,136.373871 116.140717,137.166565 116.140717C137.959259 116.140717,138.719406 115.825775,139.279877 115.265289C139.840363 114.704819,140.155304 113.944672,140.155304 113.151978Z" style="fill: rgb(100.000000%,100.000000%,100.000000%);stroke: none;"></path>
  <path d="M146.215317 128.457520C146.215317 127.664825,145.900375 126.904678,145.339890 126.344208C144.779419 125.783722,144.019272 125.468781,143.226578 125.468781C142.433884 125.468781,141.673737 125.783722,141.113266 126.344208C140.552780 126.904678,140.237839 127.664825,140.237839 128.457520C140.237839 129.250214,140.552780 130.010361,141.113266 130.570831C141.673737 131.131317,142.433884 131.446259,143.226578 131.446259C144.019272 131.446259,144.779419 131.131317,145.339890 130.570831C145.900375 130.010361,146.215317 129.250214,146.215317 128.457520Z" style="fill: rgb(100.000000%,100.000000%,100.000000%);stroke: none;"></path>
  <path d="M140.423355 125.122589C140.423355 124.329895,140.108414 123.569748,139.547928 123.009277C138.987457 122.448792,138.227310 122.133850,137.434616 122.133850C136.641922 122.133850,135.881775 122.448792,135.321304 123.009277C134.760818 123.569748,134.445877 124.329895,134.445877 125.122589C134.445877 125.915283,134.760818 126.675430,135.321304 127.235901C135.881775 127.796387,136.641922 128.111328,137.434616 128.111328C138.227310 128.111328,138.987457 127.796387,139.547928 127.235901C140.108414 126.675430,140.423355 125.915283,140.423355 125.122589Z" style="fill: rgb(100.000000%,100.000000%,100.000000%);stroke: none;"></path>
  <path d="M156.230438 122.643143C156.230438 121.850449,155.915497 121.090302,155.355011 120.529831C154.794540 119.969345,154.034393 119.654404,153.241699 119.654404C152.449005 119.654404,151.688858 119.969345,151.128387 120.529831C150.567902 121.090302,150.252960 121.850449,150.252960 122.643143C150.252960 123.435837,150.567902 124.195984,151.128387 124.756454C151.688858 125.316940,152.449005 125.631882,153.241699 125.631882C154.034393 125.631882,154.794540 125.316940,155.355011 124.756454C155.915497 124.195984,156.230438 123.435837,156.230438 122.643143Z" style="fill: rgb(100.000000%,100.000000%,100.000000%);stroke: none;"></path>
  <path d="M149.534775 126.721725C149.534775 125.929031,149.219833 125.168884,148.659348 124.608414C148.098877 124.047928,147.338730 123.732986,146.546036 123.732986C145.753342 123.732986,144.993195 124.047928,144.432724 124.608414C143.872238 125.168884,143.557297 125.929031,143.557297 126.721725C143.557297 127.514420,143.872238 128.274567,144.432724 128.835037C144.993195 129.395523,145.753342 129.710464,146.546036 129.710464C147.338730 129.710464,148.098877 129.395523,148.659348 128.835037C149.219833 128.274567,149.534775 127.514420,149.534775 126.721725Z" style="fill: rgb(100.000000%,100.000000%,100.000000%);stroke: none;"></path>
  <path d="M175.574356 120.252304C175.574356 119.459610,175.259415 118.699463,174.698929 118.138992C174.138458 117.578506,173.378311 117.263565,172.585617 117.263565C171.792923 117.263565,171.032776 117.578506,170.472305 118.138992C169.911819 118.699463,169.596878 119.459610,169.596878 120.252304C169.596878 121.044998,169.911819 121.805145,170.472305 122.365616C171.032776 122.926102,171.792923 123.241043,172.585617 123.241043C173.378311 123.241043,174.138458 122.926102,174.698929 122.365616C175.259415 121.805145,175.574356 121.044998,175.574356 120.252304Z" style="fill: rgb(100.000000%,100.000000%,100.000000%);stroke: none;"></path>
  <path d="M160.264221 120.475845C160.264221 119.683151,159.949280 118.923004,159.388794 118.362534C158.828323 117.802048,158.068176 117.487106,157.275482 117.487106C156.482788 117.487106,155.722641 117.802048,155.162170 118.362534C154.601685 118.923004,154.286743 119.683151,154.286743 120.475845C154.286743 121.268539,154.601685 122.028687,155.162170 122.589157C155.722641 123.149643,156.482788 123.464584,157.275482 123.464584C158.068176 123.464584,158.828323 123.149643,159.388794 122.589157C159.949280 122.028687,160.264221 121.268539,160.264221 120.475845Z" style="fill: rgb(100.000000%,100.000000%,100.000000%);stroke: none;"></path>
  <path d="M182.903366 162.456055C182.903366 161.663361,182.588425 160.903214,182.027939 160.342743C181.467468 159.782257,180.707321 159.467316,179.914627 159.467316C179.121933 159.467316,178.361786 159.782257,177.801315 160.342743C177.240829 160.903214,176.925888 161.663361,176.925888 162.456055C176.925888 163.248749,177.240829 164.008896,177.801315 164.569366C178.361786 165.129852,179.121933 165.444794,179.914627 165.444794C180.707321 165.444794,181.467468 165.129852,182.027939 164.569366C182.588425 164.008896,182.903366 163.248749,182.903366 162.456055Z" style="fill: rgb(100.000000%,100.000000%,100.000000%);stroke: none;"></path>
  <path d="M183.199158 130.650024C183.199158 129.857330,182.884216 129.097183,182.323730 128.536713C181.763260 127.976227,181.003113 127.661285,180.210419 127.661285C179.417725 127.661285,178.657578 127.976227,178.097107 128.536713C177.536621 129.097183,177.221680 129.857330,177.221680 130.650024C177.221680 131.442719,177.536621 132.202866,178.097107 132.763336C178.657578 133.323822,179.417725 133.638763,180.210419 133.638763C181.003113 133.638763,181.763260 133.323822,182.323730 132.763336C182.884216 132.202866,183.199158 131.442719,183.199158 130.650024Z" style="fill: rgb(100.000000%,100.000000%,100.000000%);stroke: none;"></path>
  <path d="M144.376144 187.104324C124.830505 202.061264,96.719360 197.433334,83.000000 177.000000C75.250290 165.457748,74.157028 150.996643,76.928680 137.345016C78.345764 130.365280,80.733948 123.637894,83.000000 116.888687C84.822388 111.460861,86.753036 105.785446,91.376434 102.392105C95.522659 99.348984,100.838104 98.922745,105.942154 98.410309C110.017914 98.001114,114.106445 97.477783,117.968048 96.101807C121.913910 94.695801,125.478851 92.449295,129.126999 90.398102C134.873077 87.167328,140.908188 84.376572,146.057205 80.249741C156.297348 72.042480,162.150146 59.365097,160.341797 46.416214C157.626358 26.971970,140.016769 14.338470,120.763718 8.576981C99.996490 2.362381,76.412979 4.874176,66.751816 22.917953C59.858093 35.793091,64.493500 52.440796,56.181854 64.592926C47.613632 77.120178,29.957611 78.387726,19.314163 88.925049C2.337753 105.732193,8.394440 133.221008,24.261719 153.380997C38.987823 172.091080,61.449158 184.967468,83.000000 177.000000C96.624863 171.962814,105.633408 159.286224,108.174347 144.902740C109.413345 137.889191,109.065811 130.728790,109.266434 123.615540C109.389023 119.268997,109.716660 114.909042,109.184143 110.590424C108.668152 106.405823,107.360153 102.378189,105.942154 98.410309C104.209518 93.561996,102.299362 88.557632,103.297318 83.492920C104.370605 78.045883,108.488297 73.972473,112.466370 70.113129C117.149078 65.570175,121.804794 60.980774,126.976501 57.000336C136.657501 49.549301,148.348740 44.341034,160.341797 46.416214C180.272720 49.864883,191.277206 69.770569,195.267593 90.330353C199.108780 110.121399,196.617432 131.877609,180.103134 142.185379C170.385773 148.250687,157.643921 147.408524,152.028519 138.224304C149.626205 134.295212,149.387070 129.555023,149.443649 124.956680C149.485825 121.529236,149.298874 117.746933,146.393539 116.108032C143.527161 114.491104,140.244049 116.245499,137.281677 117.819382C133.167572 120.005173,128.764709 121.600449,124.198776 122.526245C119.291229 123.521317,114.270737 123.729187,109.266434 123.615540C104.871735 123.515747,100.472687 123.167282,96.202057 122.118179C91.588135 120.984756,87.224014 119.058884,83.000000 116.888687C75.428207 112.998505,68.255630 108.306015,60.331802 105.180801C46.488312 99.720825,30.455002 98.974121,19.314163 88.925049C4.033157 75.141541,3.845612 51.514725,16.740250 34.815323C28.871170 19.104980,50.107773 13.014374,66.751816 22.917953C78.899719 30.146225,84.251907 44.347610,93.825012 54.599579C99.355835 60.522614,106.193787 64.993958,112.466370 70.113129C115.996994 72.994537,119.359390 76.092667,122.226410 79.636841C124.913132 82.958130,127.126831 86.624695,129.126999 90.398102C131.452896 94.786026,133.495148 99.326920,134.953247 104.075363C136.323502 108.537750,137.166565 113.151978,137.281677 117.819382C137.366852 121.273529,137.434616 125.122589,140.365067 126.809906C143.226578 128.457520,146.546036 126.721725,149.443649 124.956680C153.241699 122.643143,157.275482 120.475845,161.729568 120.410812C172.585617 120.252304,180.210419 130.650024,180.103134 142.185379C179.914627 162.456055,160.616302 174.676849,144.376144 187.104324" style="stroke:rgb(0.000000%,0.000000%,0.000000%); stroke-width: 0.498138;stroke-linecap: round;stroke-linejoin: round;stroke-miterlimit: 10.000000;fill: none;"></path>
  <path d="M144.376144 187.104324C124.830505 202.061264,96.719360 197.433334,83.000000 177.000000" style="stroke:rgb(0.000000%,0.000000%,0.000000%); stroke-width: 1.494400;stroke-linecap: round;stroke-linejoin: round;stroke-miterlimit: 10.000000;fill: none;"></path>
  <path d="M180.103134 142.185379C179.914627 162.456055,160.616302 174.676849,144.376144 187.104324" style="stroke:rgb(0.000000%,0.000000%,0.000000%); stroke-width: 1.494400;stroke-linecap: round;stroke-linejoin: round;stroke-miterlimit: 10.000000;fill: none;"></path>
  <path d="M85.988739 177.000000C85.988739 176.207306,85.673798 175.447159,85.113312 174.886688C84.552841 174.326202,83.792694 174.011261,83.000000 174.011261C82.207306 174.011261,81.447159 174.326202,80.886688 174.886688C80.326202 175.447159,80.011261 176.207306,80.011261 177.000000C80.011261 177.792694,80.326202 178.552841,80.886688 179.113312C81.447159 179.673798,82.207306 179.988739,83.000000 179.988739C83.792694 179.988739,84.552841 179.673798,85.113312 179.113312C85.673798 178.552841,85.988739 177.792694,85.988739 177.000000Z" style="fill: rgb(100.000000%,100.000000%,100.000000%);stroke: none;"></path>
  <path d="M51.071594 175.194595C61.221542 179.756516,72.224579 180.983734,83.000000 177.000000C89.812439 174.481400,95.470795 170.052948,99.743652 164.456223" style="stroke:rgb(0.000000%,0.000000%,0.000000%); stroke-width: 0.498138;stroke-linecap: round;stroke-linejoin: round;stroke-miterlimit: 10.000000;fill: none;"></path>
  <path d="M108.930893 98.410309C108.930893 97.617615,108.615952 96.857468,108.055466 96.296997C107.494995 95.736511,106.734848 95.421570,105.942154 95.421570C105.149460 95.421570,104.389313 95.736511,103.828842 96.296997C103.268356 96.857468,102.953415 97.617615,102.953415 98.410309C102.953415 99.203003,103.268356 99.963150,103.828842 100.523621C104.389313 101.084106,105.149460 101.399048,105.942154 101.399048C106.734848 101.399048,107.494995 101.084106,108.055466 100.523621C108.615952 99.963150,108.930893 99.203003,108.930893 98.410309Z" style="fill: rgb(100.000000%,100.000000%,100.000000%);stroke: none;"></path>
  <path d="M107.901382 104.419083C107.332642 102.393112,106.651154 100.394241,105.942154 98.410309C105.075836 95.986145,104.165131 93.522980,103.595749 91.032761" style="stroke:rgb(0.000000%,0.000000%,0.000000%); stroke-width: 0.498138;stroke-linecap: round;stroke-linejoin: round;stroke-miterlimit: 10.000000;fill: none;"></path>
  <path d="M163.330536 46.416214C163.330536 45.623520,163.015594 44.863373,162.455109 44.302902C161.894638 43.742416,161.134491 43.427475,160.341797 43.427475C159.549103 43.427475,158.788956 43.742416,158.228485 44.302902C157.667999 44.863373,157.353058 45.623520,157.353058 46.416214C157.353058 47.208908,157.667999 47.969055,158.228485 48.529526C158.788956 49.090012,159.549103 49.404953,160.341797 49.404953C161.134491 49.404953,161.894638 49.090012,162.455109 48.529526C163.015594 47.969055,163.330536 47.208908,163.330536 46.416214Z" style="fill: rgb(100.000000%,100.000000%,100.000000%);stroke: none;"></path>
  <path d="M142.792145 48.135941C148.424210 46.161896,154.345276 45.378632,160.341797 46.416214C170.307266 48.140549,178.041122 53.979141,183.782410 61.956619" style="stroke:rgb(0.000000%,0.000000%,0.000000%); stroke-width: 0.498138;stroke-linecap: round;stroke-linejoin: round;stroke-miterlimit: 10.000000;fill: none;"></path>
  <path d="M22.302902 88.925049C22.302902 88.132355,21.987961 87.372208,21.427475 86.811737C20.867004 86.251251,20.106857 85.936310,19.314163 85.936310C18.521469 85.936310,17.761322 86.251251,17.200851 86.811737C16.640366 87.372208,16.325424 88.132355,16.325424 88.925049C16.325424 89.717743,16.640366 90.477890,17.200851 91.038361C17.761322 91.598846,18.521469 91.913788,19.314163 91.913788C20.106857 91.913788,20.867004 91.598846,21.427475 91.038361C21.987961 90.477890,22.302902 89.717743,22.302902 88.925049Z" style="fill: rgb(100.000000%,100.000000%,100.000000%);stroke: none;"></path>
  <path d="M38.809479 98.773834C31.678116 96.648529,24.884583 93.949585,19.314163 88.925049C11.673660 82.033295,7.806519 72.680710,7.461334 62.963638" style="stroke:rgb(0.000000%,0.000000%,0.000000%); stroke-width: 0.498138;stroke-linecap: round;stroke-linejoin: round;stroke-miterlimit: 10.000000;fill: none;"></path>
  <path d="M112.255173 123.615540C112.255173 122.822845,111.940231 122.062698,111.379745 121.502228C110.819275 120.941742,110.059128 120.626801,109.266434 120.626801C108.473740 120.626801,107.713593 120.941742,107.153122 121.502228C106.592636 122.062698,106.277695 122.822845,106.277695 123.615540C106.277695 124.408234,106.592636 125.168381,107.153122 125.728851C107.713593 126.289337,108.473740 126.604279,109.266434 126.604279C110.059128 126.604279,110.819275 126.289337,111.379745 125.728851C111.940231 125.168381,112.255173 124.408234,112.255173 123.615540Z" style="fill: rgb(100.000000%,100.000000%,100.000000%);stroke: none;"></path>
  <path d="M116.768875 123.486679C114.274780 123.648819,111.768585 123.672363,109.266434 123.615540C107.069077 123.565643,104.870636 123.453568,102.687714 123.222839" style="stroke:rgb(0.000000%,0.000000%,0.000000%); stroke-width: 0.498138;stroke-linecap: round;stroke-linejoin: round;stroke-miterlimit: 10.000000;fill: none;"></path>
  <path d="M115.455109 70.113129C115.455109 69.320435,115.140167 68.560287,114.579681 67.999817C114.019211 67.439331,113.259064 67.124390,112.466370 67.124390C111.673676 67.124390,110.913528 67.439331,110.353058 67.999817C109.792572 68.560287,109.477631 69.320435,109.477631 70.113129C109.477631 70.905823,109.792572 71.665970,110.353058 72.226440C110.913528 72.786926,111.673676 73.101868,112.466370 73.101868C113.259064 73.101868,114.019211 72.786926,114.579681 72.226440C115.140167 71.665970,115.455109 70.905823,115.455109 70.113129Z" style="fill: rgb(100.000000%,100.000000%,100.000000%);stroke: none;"></path>
  <path d="M102.867538 62.657806C106.052444 65.155914,109.330078 67.553543,112.466370 70.113129C114.231689 71.553833,115.954941 73.048721,117.595245 74.626465" style="stroke:rgb(0.000000%,0.000000%,0.000000%); stroke-width: 0.498138;stroke-linecap: round;stroke-linejoin: round;stroke-miterlimit: 10.000000;fill: none;"></path>
  <path d="M183.091873 142.185379C183.091873 141.392685,182.776932 140.632538,182.216446 140.072067C181.655975 139.511581,180.895828 139.196640,180.103134 139.196640C179.310440 139.196640,178.550293 139.511581,177.989822 140.072067C177.429337 140.632538,177.114395 141.392685,177.114395 142.185379C177.114395 142.978073,177.429337 143.738220,177.989822 144.298691C178.550293 144.859177,179.310440 145.174118,180.103134 145.174118C180.895828 145.174118,181.655975 144.859177,182.216446 144.298691C182.776932 143.738220,183.091873 142.978073,183.091873 142.185379Z" style="fill: rgb(100.000000%,100.000000%,100.000000%);stroke: none;"></path>
  <path d="M195.318665 119.814102C193.111679 129.015503,188.360275 137.031494,180.103134 142.185379C175.244446 145.218033,169.629639 146.523819,164.527573 145.923401" style="stroke:rgb(0.000000%,0.000000%,0.000000%); stroke-width: 0.498138;stroke-linecap: round;stroke-linejoin: round;stroke-miterlimit: 10.000000;fill: none;"></path>
  <path d="M140.270416 117.819382C140.270416 117.026688,139.955475 116.266541,139.394989 115.706070C138.834518 115.145584,138.074371 114.830643,137.281677 114.830643C136.488983 114.830643,135.728836 115.145584,135.168365 115.706070C134.607880 116.266541,134.292938 117.026688,134.292938 117.819382C134.292938 118.612076,134.607880 119.372223,135.168365 119.932693C135.728836 120.493179,136.488983 120.808121,137.281677 120.808121C138.074371 120.808121,138.834518 120.493179,139.394989 119.932693C139.955475 119.372223,140.270416 118.612076,140.270416 117.819382Z" style="fill: rgb(100.000000%,100.000000%,100.000000%);stroke: none;"></path>
  <path d="M141.873596 115.767166C140.324234 116.200378,138.762863 117.032440,137.281677 117.819382C135.224625 118.912277,133.095383 119.857544,130.909653 120.645325" style="stroke:rgb(0.000000%,0.000000%,0.000000%); stroke-width: 0.498138;stroke-linecap: round;stroke-linejoin: round;stroke-miterlimit: 10.000000;fill: none;"></path>
  <path d="M85.988739 116.888687C85.988739 116.095993,85.673798 115.335846,85.113312 114.775375C84.552841 114.214890,83.792694 113.899948,83.000000 113.899948C82.207306 113.899948,81.447159 114.214890,80.886688 114.775375C80.326202 115.335846,80.011261 116.095993,80.011261 116.888687C80.011261 117.681381,80.326202 118.441528,80.886688 119.001999C81.447159 119.562485,82.207306 119.877426,83.000000 119.877426C83.792694 119.877426,84.552841 119.562485,85.113312 119.001999C85.673798 118.441528,85.988739 117.681381,85.988739 116.888687Z" style="fill: rgb(100.000000%,100.000000%,100.000000%);stroke: none;"></path>
  <path d="M79.645981 127.030396C80.703415 123.632431,81.866974 120.263290,83.000000 116.888687C83.911194 114.174774,84.849457 111.398956,86.137848 108.877457" style="stroke:rgb(0.000000%,0.000000%,0.000000%); stroke-width: 0.498138;stroke-linecap: round;stroke-linejoin: round;stroke-miterlimit: 10.000000;fill: none;"></path>
  <path d="M69.740555 22.917953C69.740555 22.125259,69.425613 21.365112,68.865128 20.804642C68.304657 20.244156,67.544510 19.929214,66.751816 19.929214C65.959122 19.929214,65.198975 20.244156,64.638504 20.804642C64.078018 21.365112,63.763077 22.125259,63.763077 22.917953C63.763077 23.710648,64.078018 24.470795,64.638504 25.031265C65.198975 25.591751,65.959122 25.906693,66.751816 25.906693C67.544510 25.906693,68.304657 25.591751,68.865128 25.031265C69.425613 24.470795,69.740555 23.710648,69.740555 22.917953Z" style="fill: rgb(100.000000%,100.000000%,100.000000%);stroke: none;"></path>
  <path d="M89.592972 6.650589C79.893555 8.757187,71.582397 13.896072,66.751816 22.917953C63.304947 29.355530,62.740372 36.736237,61.998550 44.026581" style="stroke:rgb(0.000000%,0.000000%,0.000000%); stroke-width: 0.498138;stroke-linecap: round;stroke-linejoin: round;stroke-miterlimit: 10.000000;fill: none;"></path>
  <path d="M132.115738 90.398102C132.115738 89.605408,131.800797 88.845261,131.240311 88.284790C130.679840 87.724304,129.919693 87.409363,129.126999 87.409363C128.334305 87.409363,127.574158 87.724304,127.013687 88.284790C126.453201 88.845261,126.138260 89.605408,126.138260 90.398102C126.138260 91.190796,126.453201 91.950943,127.013687 92.511414C127.574158 93.071899,128.334305 93.386841,129.126999 93.386841C129.919693 93.386841,130.679840 93.071899,131.240311 92.511414C131.800797 91.950943,132.115738 91.190796,132.115738 90.398102Z" style="fill: rgb(100.000000%,100.000000%,100.000000%);stroke: none;"></path>
  <path d="M123.659180 93.491882C125.499664 92.498108,127.302933 91.423691,129.126999 90.398102C132.000046 88.782715,134.945343 87.277328,137.816010 85.659927" style="stroke:rgb(0.000000%,0.000000%,0.000000%); stroke-width: 0.498138;stroke-linecap: round;stroke-linejoin: round;stroke-miterlimit: 10.000000;fill: none;"></path>
  <path d="M152.432388 124.956680C152.432388 124.163986,152.117447 123.403839,151.556961 122.843369C150.996490 122.282883,150.236343 121.967941,149.443649 121.967941C148.650955 121.967941,147.890808 122.282883,147.330338 122.843369C146.769852 123.403839,146.454910 124.163986,146.454910 124.956680C146.454910 125.749374,146.769852 126.509521,147.330338 127.069992C147.890808 127.630478,148.650955 127.945419,149.443649 127.945419C150.236343 127.945419,150.996490 127.630478,151.556961 127.069992C152.117447 126.509521,152.432388 125.749374,152.432388 124.956680Z" style="fill: rgb(100.000000%,100.000000%,100.000000%);stroke: none;"></path>
  <path d="M144.890823 127.163025C146.440582 126.714401,147.994843 125.839203,149.443649 124.956680C151.342682 123.799911,153.300644 122.679703,155.340607 121.840546" style="stroke:rgb(0.000000%,0.000000%,0.000000%); stroke-width: 0.498138;stroke-linecap: round;stroke-linejoin: round;stroke-miterlimit: 10.000000;fill: none;"></path>
  <path d="M91.376434 102.392105C94.693420 99.957596,98.758713 99.197906,102.865448 98.729050" style="stroke:rgb(0.000000%,0.000000%,0.000000%); stroke-width: 0.498138;stroke-linecap: round;stroke-linejoin: round;stroke-miterlimit: 10.000000;fill: none;"></path>
  <path d="M100.277985 100.247147C101.120422 99.716644,101.988541 99.215408,102.865448 98.729050C101.901474 98.452866,100.933197 98.193420,99.962402 97.972855Z" style="stroke:rgb(0.000000%,0.000000%,0.000000%); stroke-width: 0.498138;fill: rgb(0.000000%,0.000000%,0.000000%);"></path>
  <path d="M117.968048 96.101807C121.124756 94.977005,124.037659 93.314270,126.944427 91.643951" style="stroke:rgb(0.000000%,0.000000%,0.000000%); stroke-width: 0.498138;stroke-linecap: round;stroke-linejoin: round;stroke-miterlimit: 10.000000;fill: none;"></path>
  <path d="M125.099075 94.009354C125.722443 93.228378,126.333817 92.436371,126.944427 91.643951C125.952316 91.772491,124.959991 91.900192,123.966965 92.011642Z" style="stroke:rgb(0.000000%,0.000000%,0.000000%); stroke-width: 0.498138;fill: rgb(0.000000%,0.000000%,0.000000%);"></path>
  <path d="M56.181854 64.592926C49.327255 74.614761,36.656403 77.430344,26.412827 83.550858" style="stroke:rgb(0.000000%,0.000000%,0.000000%); stroke-width: 0.498138;stroke-linecap: round;stroke-linejoin: round;stroke-miterlimit: 10.000000;fill: none;"></path>
  <path d="M28.264999 81.191010C27.627640 81.965347,27.007980 82.750687,26.412827 83.550858C27.399490 83.405899,28.392960 83.288773,29.391190 83.191925Z" style="stroke:rgb(0.000000%,0.000000%,0.000000%); stroke-width: 0.498138;fill: rgb(0.000000%,0.000000%,0.000000%);"></path>
  <path d="M108.174347 144.902740C109.165543 139.291885,109.141357 133.587036,109.194748 127.887527" style="stroke:rgb(0.000000%,0.000000%,0.000000%); stroke-width: 0.498138;stroke-linecap: round;stroke-linejoin: round;stroke-miterlimit: 10.000000;fill: none;"></path>
  <path d="M110.317947 130.669250C109.945068 129.741608,109.568771 128.814941,109.194748 127.887527C108.803421 128.807770,108.414246 129.729095,108.021957 130.648712Z" style="stroke:rgb(0.000000%,0.000000%,0.000000%); stroke-width: 0.498138;fill: rgb(0.000000%,0.000000%,0.000000%);"></path>
  <path d="M109.184143 110.590424C108.771347 107.242737,107.851669 103.995499,106.774292 100.798950" style="stroke:rgb(0.000000%,0.000000%,0.000000%); stroke-width: 0.498138;stroke-linecap: round;stroke-linejoin: round;stroke-miterlimit: 10.000000;fill: none;"></path>
  <path d="M108.707382 103.093063C108.079407 102.315811,107.432419 101.552658,106.774292 100.798950C106.706680 101.797256,106.624542 102.794388,106.518967 103.788040Z" style="stroke:rgb(0.000000%,0.000000%,0.000000%); stroke-width: 0.498138;fill: rgb(0.000000%,0.000000%,0.000000%);"></path>
  <path d="M126.976501 57.000336C134.721329 51.039490,143.752716 46.514023,153.195953 46.004791" style="stroke:rgb(0.000000%,0.000000%,0.000000%); stroke-width: 0.498138;stroke-linecap: round;stroke-linejoin: round;stroke-miterlimit: 10.000000;fill: none;"></path>
  <path d="M150.550156 47.418854C151.410706 46.909805,152.292587 46.437378,153.195953 46.004791C152.251297 45.671875,151.293671 45.382339,150.325211 45.133759Z" style="stroke:rgb(0.000000%,0.000000%,0.000000%); stroke-width: 0.498138;fill: rgb(0.000000%,0.000000%,0.000000%);"></path>
  <path d="M96.202057 122.118179C92.510910 121.211441,88.979630 119.797516,85.552063 118.157074" style="stroke:rgb(0.000000%,0.000000%,0.000000%); stroke-width: 0.498138;stroke-linecap: round;stroke-linejoin: round;stroke-miterlimit: 10.000000;fill: none;"></path>
  <path d="M88.550232 118.261185C87.550873 118.247177,86.551147 118.210739,85.552063 118.157074C86.220551 118.901505,86.901703 119.634171,87.598419 120.350754Z" style="stroke:rgb(0.000000%,0.000000%,0.000000%); stroke-width: 0.498138;fill: rgb(0.000000%,0.000000%,0.000000%);"></path>
  <path d="M60.331802 105.180801C49.256973 100.812805,36.780640 99.461319,26.528992 93.950256" style="stroke:rgb(0.000000%,0.000000%,0.000000%); stroke-width: 0.498138;stroke-linecap: round;stroke-linejoin: round;stroke-miterlimit: 10.000000;fill: none;"></path>
  <path d="M29.522278 94.152466C28.521362 94.116302,27.523468 94.050583,26.528992 93.950256C27.161224 94.724411,27.820374 95.476501,28.502533 96.209839Z" style="stroke:rgb(0.000000%,0.000000%,0.000000%); stroke-width: 0.498138;fill: rgb(0.000000%,0.000000%,0.000000%);"></path>
  <path d="M122.226410 79.636841C124.375793 82.293884,126.222443 85.171906,127.899216 88.148819" style="stroke:rgb(0.000000%,0.000000%,0.000000%); stroke-width: 0.498138;stroke-linecap: round;stroke-linejoin: round;stroke-miterlimit: 10.000000;fill: none;"></path>
  <path d="M125.505203 86.340942C126.314682 86.927429,127.112045 87.531418,127.899216 88.148819C127.779190 87.155655,127.642471 86.164734,127.484818 85.177643Z" style="stroke:rgb(0.000000%,0.000000%,0.000000%); stroke-width: 0.498138;fill: rgb(0.000000%,0.000000%,0.000000%);"></path>
  <path d="M140.365067 126.809906C142.654282 128.128006,145.236588 127.280701,147.661530 125.985352" style="stroke:rgb(0.000000%,0.000000%,0.000000%); stroke-width: 0.498138;stroke-linecap: round;stroke-linejoin: round;stroke-miterlimit: 10.000000;fill: none;"></path>
  <path d="M145.560745 128.127060C146.313629 127.523697,147.009689 126.779205,147.661530 125.985352C146.639267 126.085754,145.620636 126.119980,144.661636 126.014236Z" style="stroke:rgb(0.000000%,0.000000%,0.000000%); stroke-width: 0.498138;fill: rgb(0.000000%,0.000000%,0.000000%);"></path>
  <path d="M141.385498 189.814529L147.366791 189.814529L147.366791 182.394135L141.385498 182.394135Z" style="fill: rgb(100.000000%,100.000000%,100.000000%);stroke: none;"></path>
  <path d="M141.385498 191.814529L147.366791 191.814529L147.366791 184.394135L141.385498 184.394135Z" style="fill: rgb(100.000000%,100.000000%,100.000000%);stroke: none;"></path>
  <g transform="translate(141.885498 190.314529)" style="fill: rgb(0.000000%,0.000000%,0.000000%);">
    <use xlink:href="#GLYPHcmr10_49"></use>
  </g>
  <path d="M73.938034 140.055222L79.919327 140.055222L79.919327 132.634827L73.938034 132.634827Z" style="fill: rgb(100.000000%,100.000000%,100.000000%);stroke: none;"></path>
  <path d="M73.938034 142.055222L79.919327 142.055222L79.919327 134.634827L73.938034 134.634827Z" style="fill: rgb(100.000000%,100.000000%,100.000000%);stroke: none;"></path>
  <g transform="translate(74.438034 140.555222)" style="fill: rgb(0.000000%,0.000000%,0.000000%);">
    <use xlink:href="#GLYPHcmr10_50"></use>
  </g>
  <path d="M143.066559 82.959946L149.047852 82.959946L149.047852 75.539551L143.066559 75.539551Z" style="fill: rgb(100.000000%,100.000000%,100.000000%);stroke: none;"></path>
  <path d="M143.066559 84.959946L149.047852 84.959946L149.047852 77.539551L143.066559 77.539551Z" style="fill: rgb(100.000000%,100.000000%,100.000000%);stroke: none;"></path>
  <g transform="translate(143.566559 83.459946)" style="fill: rgb(0.000000%,0.000000%,0.000000%);">
    <use xlink:href="#GLYPHcmr10_51"></use>
  </g>
  <path d="M117.773071 11.287186L123.754364 11.287186L123.754364 3.866791L117.773071 3.866791Z" style="fill: rgb(100.000000%,100.000000%,100.000000%);stroke: none;"></path>
  <path d="M117.773071 13.287186L123.754364 13.287186L123.754364 5.866791L117.773071 5.866791Z" style="fill: rgb(100.000000%,100.000000%,100.000000%);stroke: none;"></path>
  <g transform="translate(118.273071 11.787186)" style="fill: rgb(0.000000%,0.000000%,0.000000%);">
    <use xlink:href="#GLYPHcmr10_52"></use>
  </g>
  <path d="M21.271072 156.091202L27.252365 156.091202L27.252365 148.670807L21.271072 148.670807Z" style="fill: rgb(100.000000%,100.000000%,100.000000%);stroke: none;"></path>
  <path d="M21.271072 158.091202L27.252365 158.091202L27.252365 150.670807L21.271072 150.670807Z" style="fill: rgb(100.000000%,100.000000%,100.000000%);stroke: none;"></path>
  <g transform="translate(21.771072 156.591202)" style="fill: rgb(0.000000%,0.000000%,0.000000%);">
    <use xlink:href="#GLYPHcmr10_53"></use>
  </g>
  <path d="M100.306671 86.203125L106.287964 86.203125L106.287964 78.782730L100.306671 78.782730Z" style="fill: rgb(100.000000%,100.000000%,100.000000%);stroke: none;"></path>
  <path d="M100.306671 88.203125L106.287964 88.203125L106.287964 80.782730L100.306671 80.782730Z" style="fill: rgb(100.000000%,100.000000%,100.000000%);stroke: none;"></path>
  <g transform="translate(100.806671 86.703125)" style="fill: rgb(0.000000%,0.000000%,0.000000%);">
    <use xlink:href="#GLYPHcmr10_54"></use>
  </g>
  <path d="M192.276947 93.040558L198.258240 93.040558L198.258240 85.620163L192.276947 85.620163Z" style="fill: rgb(100.000000%,100.000000%,100.000000%);stroke: none;"></path>
  <path d="M192.276947 95.040558L198.258240 95.040558L198.258240 87.620163L192.276947 87.620163Z" style="fill: rgb(100.000000%,100.000000%,100.000000%);stroke: none;"></path>
  <g transform="translate(192.776947 93.540558)" style="fill: rgb(0.000000%,0.000000%,0.000000%);">
    <use xlink:href="#GLYPHcmr10_55"></use>
  </g>
  <path d="M121.208130 125.236450L127.189423 125.236450L127.189423 117.816055L121.208130 117.816055Z" style="fill: rgb(100.000000%,100.000000%,100.000000%);stroke: none;"></path>
  <path d="M121.208130 127.236450L127.189423 127.236450L127.189423 119.816055L121.208130 119.816055Z" style="fill: rgb(100.000000%,100.000000%,100.000000%);stroke: none;"></path>
  <g transform="translate(121.708130 125.736450)" style="fill: rgb(0.000000%,0.000000%,0.000000%);">
    <use xlink:href="#GLYPHcmr10_56"></use>
  </g>
  <path d="M13.749603 37.525528L19.730896 37.525528L19.730896 30.105133L13.749603 30.105133Z" style="fill: rgb(100.000000%,100.000000%,100.000000%);stroke: none;"></path>
  <path d="M13.749603 39.525528L19.730896 39.525528L19.730896 32.105133L13.749603 32.105133Z" style="fill: rgb(100.000000%,100.000000%,100.000000%);stroke: none;"></path>
  <g transform="translate(14.249603 38.025528)" style="fill: rgb(0.000000%,0.000000%,0.000000%);">
    <use xlink:href="#GLYPHcmr10_57"></use>
  </g>
  <path d="M88.343658 57.309784L99.306366 57.309784L99.306366 49.889389L88.343658 49.889389Z" style="fill: rgb(100.000000%,100.000000%,100.000000%);stroke: none;"></path>
  <path d="M88.343658 59.309784L99.306366 59.309784L99.306366 51.889389L88.343658 51.889389Z" style="fill: rgb(100.000000%,100.000000%,100.000000%);stroke: none;"></path>
  <g transform="translate(88.843658 57.809784)" style="fill: rgb(0.000000%,0.000000%,0.000000%);">
    <use xlink:href="#GLYPHcmr10_49"></use>
    <use xlink:href="#GLYPHcmr10_48" x="5.000095"></use>
  </g>
  <path d="M129.471893 106.785568L140.434601 106.785568L140.434601 99.365173L129.471893 99.365173Z" style="fill: rgb(100.000000%,100.000000%,100.000000%);stroke: none;"></path>
  <path d="M129.471893 108.785568L140.434601 108.785568L140.434601 101.365173L129.471893 101.365173Z" style="fill: rgb(100.000000%,100.000000%,100.000000%);stroke: none;"></path>
  <g transform="translate(129.971893 107.285568)" style="fill: rgb(0.000000%,0.000000%,0.000000%);">
    <use xlink:href="#GLYPHcmr10_49"></use>
    <use xlink:href="#GLYPHcmr10_49" x="5.000095"></use>
  </g>
  <path d="M156.248215 123.121017L167.210922 123.121017L167.210922 115.700623L156.248215 115.700623Z" style="fill: rgb(100.000000%,100.000000%,100.000000%);stroke: none;"></path>
  <path d="M156.248215 125.121017L167.210922 125.121017L167.210922 117.700623L156.248215 117.700623Z" style="fill: rgb(100.000000%,100.000000%,100.000000%);stroke: none;"></path>
  <g transform="translate(156.748215 123.621017)" style="fill: rgb(0.000000%,0.000000%,0.000000%);">
    <use xlink:href="#GLYPHcmr10_49"></use>
    <use xlink:href="#GLYPHcmr10_50" x="5.000095"></use>
  </g>
</svg>
