<?xml version="1.0"?>
<!-- Created by MetaPost 1.999 on 2021.07.06:0014 -->
<svg version="1.1" xmlns="http://www.w3.org/2000/svg" xmlns:xlink="http://www.w3.org/1999/xlink" width="196.340652" height="196.436401" viewBox="0 0 196.340652 196.436401">
<!-- Original BoundingBox: -145.379257 -34.165665 50.961395 162.270737 -->
  <defs>
    <g transform="scale(0.009963,0.009963)" id="GLYPHcmr10_48">
      <path style="fill-rule: evenodd;" d="M460.000000 -320.000000C460.000000 -400.000000,455.000000 -480.000000,420.000000 -554.000000C374.000000 -650.000000,292.000000 -666.000000,250.000000 -666.000000C190.000000 -666.000000,117.000000 -640.000000,76.000000 -547.000000C44.000000 -478.000000,39.000000 -400.000000,39.000000 -320.000000C39.000000 -245.000000,43.000000 -155.000000,84.000000 -79.000000C127.000000 2.000000,200.000000 22.000000,249.000000 22.000000C303.000000 22.000000,379.000000 1.000000,423.000000 -94.000000C455.000000 -163.000000,460.000000 -241.000000,460.000000 -320.000000M249.000000 -0.000000C210.000000 -0.000000,151.000000 -25.000000,133.000000 -121.000000C122.000000 -181.000000,122.000000 -273.000000,122.000000 -332.000000C122.000000 -396.000000,122.000000 -462.000000,130.000000 -516.000000C149.000000 -635.000000,224.000000 -644.000000,249.000000 -644.000000C282.000000 -644.000000,348.000000 -626.000000,367.000000 -527.000000C377.000000 -471.000000,377.000000 -395.000000,377.000000 -332.000000C377.000000 -257.000000,377.000000 -189.000000,366.000000 -125.000000C351.000000 -30.000000,294.000000 -0.000000,249.000000 -0.000000"></path>
    </g>
    <g transform="scale(0.009963,0.009963)" id="GLYPHcmr10_49">
      <path style="fill-rule: evenodd;" d="M294.000000 -640.000000C294.000000 -664.000000,294.000000 -666.000000,271.000000 -666.000000C209.000000 -602.000000,121.000000 -602.000000,89.000000 -602.000000L89.000000 -571.000000C109.000000 -571.000000,168.000000 -571.000000,220.000000 -597.000000L220.000000 -79.000000C220.000000 -43.000000,217.000000 -31.000000,127.000000 -31.000000L95.000000 -31.000000L95.000000 -0.000000L257.000000 -0.000000L130.000000 -3.000000L217.000000 -3.000000L257.000000 -3.000000L297.000000 -3.000000L384.000000 -3.000000L419.000000 -0.000000L419.000000 -31.000000L387.000000 -31.000000C297.000000 -31.000000,294.000000 -42.000000,294.000000 -79.000000"></path>
    </g>
    <g transform="scale(0.009963,0.009963)" id="GLYPHcmr10_50">
      <path style="fill-rule: evenodd;" d="M127.000000 -77.000000L233.000000 -180.000000C389.000000 -318.000000,449.000000 -372.000000,449.000000 -472.000000C449.000000 -586.000000,359.000000 -666.000000,237.000000 -666.000000C124.000000 -666.000000,50.000000 -574.000000,50.000000 -485.000000C50.000000 -429.000000,100.000000 -429.000000,103.000000 -429.000000C120.000000 -429.000000,155.000000 -441.000000,155.000000 -482.000000C155.000000 -508.000000,137.000000 -534.000000,102.000000 -534.000000C94.000000 -534.000000,92.000000 -534.000000,89.000000 -533.000000C112.000000 -598.000000,166.000000 -635.000000,224.000000 -635.000000C315.000000 -635.000000,358.000000 -554.000000,358.000000 -472.000000C358.000000 -392.000000,308.000000 -313.000000,253.000000 -251.000000L61.000000 -37.000000C50.000000 -26.000000,50.000000 -24.000000,50.000000 -0.000000L421.000000 -0.000000L449.000000 -174.000000L424.000000 -174.000000C419.000000 -144.000000,412.000000 -100.000000,402.000000 -85.000000C395.000000 -77.000000,329.000000 -77.000000,307.000000 -77.000000"></path>
    </g>
    <g transform="scale(0.009963,0.009963)" id="GLYPHcmr10_51">
      <path style="fill-rule: evenodd;" d="M290.000000 -352.000000C372.000000 -379.000000,430.000000 -449.000000,430.000000 -528.000000C430.000000 -610.000000,342.000000 -666.000000,246.000000 -666.000000C145.000000 -666.000000,69.000000 -606.000000,69.000000 -530.000000C69.000000 -497.000000,91.000000 -478.000000,120.000000 -478.000000C151.000000 -478.000000,171.000000 -500.000000,171.000000 -529.000000C171.000000 -579.000000,124.000000 -579.000000,109.000000 -579.000000C140.000000 -628.000000,206.000000 -641.000000,242.000000 -641.000000C283.000000 -641.000000,338.000000 -619.000000,338.000000 -529.000000C338.000000 -517.000000,336.000000 -459.000000,310.000000 -415.000000C280.000000 -367.000000,246.000000 -364.000000,221.000000 -363.000000C213.000000 -362.000000,189.000000 -360.000000,182.000000 -360.000000C174.000000 -359.000000,167.000000 -358.000000,167.000000 -348.000000C167.000000 -337.000000,174.000000 -337.000000,191.000000 -337.000000L235.000000 -337.000000C317.000000 -337.000000,354.000000 -269.000000,354.000000 -171.000000C354.000000 -35.000000,285.000000 -6.000000,241.000000 -6.000000C198.000000 -6.000000,123.000000 -23.000000,88.000000 -82.000000C123.000000 -77.000000,154.000000 -99.000000,154.000000 -137.000000C154.000000 -173.000000,127.000000 -193.000000,98.000000 -193.000000C74.000000 -193.000000,42.000000 -179.000000,42.000000 -135.000000C42.000000 -44.000000,135.000000 22.000000,244.000000 22.000000C366.000000 22.000000,457.000000 -69.000000,457.000000 -171.000000C457.000000 -253.000000,394.000000 -331.000000,290.000000 -352.000000"></path>
    </g>
    <g transform="scale(0.009963,0.009963)" id="GLYPHcmr10_52">
      <path style="fill-rule: evenodd;" d="M294.000000 -165.000000L294.000000 -78.000000C294.000000 -42.000000,292.000000 -31.000000,218.000000 -31.000000L197.000000 -31.000000L197.000000 -0.000000L332.000000 -0.000000L238.000000 -3.000000L290.000000 -3.000000L332.000000 -3.000000L374.000000 -3.000000L427.000000 -3.000000L468.000000 -0.000000L468.000000 -31.000000L447.000000 -31.000000C373.000000 -31.000000,371.000000 -42.000000,371.000000 -78.000000L371.000000 -165.000000L471.000000 -165.000000L471.000000 -196.000000L371.000000 -196.000000L371.000000 -651.000000C371.000000 -671.000000,371.000000 -677.000000,355.000000 -677.000000C346.000000 -677.000000,343.000000 -677.000000,335.000000 -665.000000L28.000000 -196.000000L28.000000 -165.000000M300.000000 -196.000000L56.000000 -196.000000L300.000000 -569.000000"></path>
    </g>
    <g transform="scale(0.009963,0.009963)" id="GLYPHcmr10_53">
      <path style="fill-rule: evenodd;" d="M449.000000 -201.000000C449.000000 -320.000000,367.000000 -420.000000,259.000000 -420.000000C211.000000 -420.000000,168.000000 -404.000000,132.000000 -369.000000L132.000000 -564.000000C152.000000 -558.000000,185.000000 -551.000000,217.000000 -551.000000C340.000000 -551.000000,410.000000 -642.000000,410.000000 -655.000000C410.000000 -661.000000,407.000000 -666.000000,400.000000 -666.000000C399.000000 -666.000000,397.000000 -666.000000,392.000000 -663.000000C372.000000 -654.000000,323.000000 -634.000000,256.000000 -634.000000C216.000000 -634.000000,170.000000 -641.000000,123.000000 -662.000000C115.000000 -665.000000,113.000000 -665.000000,111.000000 -665.000000C101.000000 -665.000000,101.000000 -657.000000,101.000000 -641.000000L101.000000 -345.000000C101.000000 -327.000000,101.000000 -319.000000,115.000000 -319.000000C122.000000 -319.000000,124.000000 -322.000000,128.000000 -328.000000C139.000000 -344.000000,176.000000 -398.000000,257.000000 -398.000000C309.000000 -398.000000,334.000000 -352.000000,342.000000 -334.000000C358.000000 -297.000000,360.000000 -258.000000,360.000000 -208.000000C360.000000 -173.000000,360.000000 -113.000000,336.000000 -71.000000C312.000000 -32.000000,275.000000 -6.000000,229.000000 -6.000000C156.000000 -6.000000,99.000000 -59.000000,82.000000 -118.000000C85.000000 -117.000000,88.000000 -116.000000,99.000000 -116.000000C132.000000 -116.000000,149.000000 -141.000000,149.000000 -165.000000C149.000000 -189.000000,132.000000 -214.000000,99.000000 -214.000000C85.000000 -214.000000,50.000000 -207.000000,50.000000 -161.000000C50.000000 -75.000000,119.000000 22.000000,231.000000 22.000000C347.000000 22.000000,449.000000 -74.000000,449.000000 -201.000000"></path>
    </g>
    <g transform="scale(0.009963,0.009963)" id="GLYPHcmr10_54">
      <path style="fill-rule: evenodd;" d="M132.000000 -328.000000L132.000000 -352.000000C132.000000 -605.000000,256.000000 -641.000000,307.000000 -641.000000C331.000000 -641.000000,373.000000 -635.000000,395.000000 -601.000000C380.000000 -601.000000,340.000000 -601.000000,340.000000 -556.000000C340.000000 -525.000000,364.000000 -510.000000,386.000000 -510.000000C402.000000 -510.000000,432.000000 -519.000000,432.000000 -558.000000C432.000000 -618.000000,388.000000 -666.000000,305.000000 -666.000000C177.000000 -666.000000,42.000000 -537.000000,42.000000 -316.000000C42.000000 -49.000000,158.000000 22.000000,251.000000 22.000000C362.000000 22.000000,457.000000 -72.000000,457.000000 -204.000000C457.000000 -331.000000,368.000000 -427.000000,257.000000 -427.000000C189.000000 -427.000000,152.000000 -376.000000,132.000000 -328.000000M251.000000 -6.000000C188.000000 -6.000000,158.000000 -66.000000,152.000000 -81.000000C134.000000 -128.000000,134.000000 -208.000000,134.000000 -226.000000C134.000000 -304.000000,166.000000 -404.000000,256.000000 -404.000000C272.000000 -404.000000,318.000000 -404.000000,349.000000 -342.000000C367.000000 -305.000000,367.000000 -254.000000,367.000000 -205.000000C367.000000 -157.000000,367.000000 -107.000000,350.000000 -71.000000C320.000000 -11.000000,274.000000 -6.000000,251.000000 -6.000000"></path>
    </g>
    <g transform="scale(0.009963,0.009963)" id="GLYPHcmr10_55">
      <path style="fill-rule: evenodd;" d="M476.000000 -609.000000C485.000000 -621.000000,485.000000 -623.000000,485.000000 -644.000000L242.000000 -644.000000C120.000000 -644.000000,118.000000 -657.000000,114.000000 -676.000000L89.000000 -676.000000L56.000000 -470.000000L81.000000 -470.000000C84.000000 -486.000000,93.000000 -549.000000,106.000000 -561.000000C113.000000 -567.000000,191.000000 -567.000000,204.000000 -567.000000L411.000000 -567.000000C400.000000 -551.000000,321.000000 -442.000000,299.000000 -409.000000C209.000000 -274.000000,176.000000 -135.000000,176.000000 -33.000000C176.000000 -23.000000,176.000000 22.000000,222.000000 22.000000C268.000000 22.000000,268.000000 -23.000000,268.000000 -33.000000L268.000000 -84.000000C268.000000 -139.000000,271.000000 -194.000000,279.000000 -248.000000C283.000000 -271.000000,297.000000 -357.000000,341.000000 -419.000000"></path>
    </g>
    <g transform="scale(0.009963,0.009963)" id="GLYPHcmr10_56">
      <path style="fill-rule: evenodd;" d="M163.000000 -457.000000C117.000000 -487.000000,113.000000 -521.000000,113.000000 -538.000000C113.000000 -599.000000,178.000000 -641.000000,249.000000 -641.000000C322.000000 -641.000000,386.000000 -589.000000,386.000000 -517.000000C386.000000 -460.000000,347.000000 -412.000000,287.000000 -377.000000M309.000000 -362.000000C381.000000 -399.000000,430.000000 -451.000000,430.000000 -517.000000C430.000000 -609.000000,341.000000 -666.000000,250.000000 -666.000000C150.000000 -666.000000,69.000000 -592.000000,69.000000 -499.000000C69.000000 -481.000000,71.000000 -436.000000,113.000000 -389.000000C124.000000 -377.000000,161.000000 -352.000000,186.000000 -335.000000C128.000000 -306.000000,42.000000 -250.000000,42.000000 -151.000000C42.000000 -45.000000,144.000000 22.000000,249.000000 22.000000C362.000000 22.000000,457.000000 -61.000000,457.000000 -168.000000C457.000000 -204.000000,446.000000 -249.000000,408.000000 -291.000000C389.000000 -312.000000,373.000000 -322.000000,309.000000 -362.000000M209.000000 -320.000000L332.000000 -242.000000C360.000000 -223.000000,407.000000 -193.000000,407.000000 -132.000000C407.000000 -58.000000,332.000000 -6.000000,250.000000 -6.000000C164.000000 -6.000000,92.000000 -68.000000,92.000000 -151.000000C92.000000 -209.000000,124.000000 -273.000000,209.000000 -320.000000"></path>
    </g>
    <g transform="scale(0.009963,0.009963)" id="GLYPHcmr10_57">
      <path style="fill-rule: evenodd;" d="M367.000000 -318.000000L367.000000 -286.000000C367.000000 -52.000000,263.000000 -6.000000,205.000000 -6.000000C188.000000 -6.000000,134.000000 -8.000000,107.000000 -42.000000C151.000000 -42.000000,159.000000 -71.000000,159.000000 -88.000000C159.000000 -119.000000,135.000000 -134.000000,113.000000 -134.000000C97.000000 -134.000000,67.000000 -125.000000,67.000000 -86.000000C67.000000 -19.000000,121.000000 22.000000,206.000000 22.000000C335.000000 22.000000,457.000000 -114.000000,457.000000 -329.000000C457.000000 -598.000000,342.000000 -666.000000,253.000000 -666.000000C198.000000 -666.000000,149.000000 -648.000000,106.000000 -603.000000C65.000000 -558.000000,42.000000 -516.000000,42.000000 -441.000000C42.000000 -316.000000,130.000000 -218.000000,242.000000 -218.000000C303.000000 -218.000000,344.000000 -260.000000,367.000000 -318.000000M243.000000 -241.000000C227.000000 -241.000000,181.000000 -241.000000,150.000000 -304.000000C132.000000 -341.000000,132.000000 -391.000000,132.000000 -440.000000C132.000000 -494.000000,132.000000 -541.000000,153.000000 -578.000000C180.000000 -628.000000,218.000000 -641.000000,253.000000 -641.000000C299.000000 -641.000000,332.000000 -607.000000,349.000000 -562.000000C361.000000 -530.000000,365.000000 -467.000000,365.000000 -421.000000C365.000000 -338.000000,331.000000 -241.000000,243.000000 -241.000000"></path>
    </g>
  </defs>
  <path d="M117.360641 193.176926C117.360641 192.384232,117.045700 191.624084,116.485214 191.063614C115.924744 190.503128,115.164597 190.188187,114.371902 190.188187C113.579208 190.188187,112.819061 190.503128,112.258591 191.063614C111.698105 191.624084,111.383163 192.384232,111.383163 193.176926C111.383163 193.969620,111.698105 194.729767,112.258591 195.290237C112.819061 195.850723,113.579208 196.165665,114.371902 196.165665C115.164597 196.165665,115.924744 195.850723,116.485214 195.290237C117.045700 194.729767,117.360641 193.969620,117.360641 193.176926Z" style="fill: rgb(100.000000%,100.000000%,100.000000%);stroke: none;"></path>
  <path d="M97.736679 182.966797C97.736679 182.174103,97.421738 181.413956,96.861252 180.853485C96.300781 180.292999,95.540634 179.978058,94.747940 179.978058C93.955246 179.978058,93.195099 180.292999,92.634628 180.853485C92.074142 181.413956,91.759201 182.174103,91.759201 182.966797C91.759201 183.759491,92.074142 184.519638,92.634628 185.080109C93.195099 185.640594,93.955246 185.955536,94.747940 185.955536C95.540634 185.955536,96.300781 185.640594,96.861252 185.080109C97.421738 184.519638,97.736679 183.759491,97.736679 182.966797Z" style="fill: rgb(100.000000%,100.000000%,100.000000%);stroke: none;"></path>
  <path d="M151.186996 151.679337C151.186996 150.886642,150.872055 150.126495,150.311569 149.566025C149.751099 149.005539,148.990952 148.690598,148.198257 148.690598C147.405563 148.690598,146.645416 149.005539,146.084946 149.566025C145.524460 150.126495,145.209518 150.886642,145.209518 151.679337C145.209518 152.472031,145.524460 153.232178,146.084946 153.792648C146.645416 154.353134,147.405563 154.668076,148.198257 154.668076C148.990952 154.668076,149.751099 154.353134,150.311569 153.792648C150.872055 153.232178,151.186996 152.472031,151.186996 151.679337Z" style="fill: rgb(100.000000%,100.000000%,100.000000%);stroke: none;"></path>
  <path d="M141.440842 183.129868C141.440842 182.337173,141.125900 181.577026,140.565414 181.016556C140.004944 180.456070,139.244797 180.141129,138.452103 180.141129C137.659409 180.141129,136.899261 180.456070,136.338791 181.016556C135.778305 181.577026,135.463364 182.337173,135.463364 183.129868C135.463364 183.922562,135.778305 184.682709,136.338791 185.243179C136.899261 185.803665,137.659409 186.118607,138.452103 186.118607C139.244797 186.118607,140.004944 185.803665,140.565414 185.243179C141.125900 184.682709,141.440842 183.922562,141.440842 183.129868Z" style="fill: rgb(100.000000%,100.000000%,100.000000%);stroke: none;"></path>
  <path d="M148.104080 124.229782C148.104080 123.437088,147.789139 122.676941,147.228653 122.116470C146.668182 121.555984,145.908035 121.241043,145.115341 121.241043C144.322647 121.241043,143.562500 121.555984,143.002029 122.116470C142.441544 122.676941,142.126602 123.437088,142.126602 124.229782C142.126602 125.022476,142.441544 125.782623,143.002029 126.343094C143.562500 126.903580,144.322647 127.218521,145.115341 127.218521C145.908035 127.218521,146.668182 126.903580,147.228653 126.343094C147.789139 125.782623,148.104080 125.022476,148.104080 124.229782Z" style="fill: rgb(100.000000%,100.000000%,100.000000%);stroke: none;"></path>
  <path d="M148.918549 140.750000C148.918549 139.957306,148.603607 139.197159,148.043121 138.636688C147.482651 138.076202,146.722504 137.761261,145.929810 137.761261C145.137115 137.761261,144.376968 138.076202,143.816498 138.636688C143.256012 139.197159,142.941071 139.957306,142.941071 140.750000C142.941071 141.542694,143.256012 142.302841,143.816498 142.863312C144.376968 143.423798,145.137115 143.738739,145.929810 143.738739C146.722504 143.738739,147.482651 143.423798,148.043121 142.863312C148.603607 142.302841,148.918549 141.542694,148.918549 140.750000Z" style="fill: rgb(100.000000%,100.000000%,100.000000%);stroke: none;"></path>
  <path d="M147.647110 106.966919C147.647110 106.174225,147.332169 105.414078,146.771683 104.853607C146.211212 104.293121,145.451065 103.978180,144.658371 103.978180C143.865677 103.978180,143.105530 104.293121,142.545059 104.853607C141.984573 105.414078,141.669632 106.174225,141.669632 106.966919C141.669632 107.759613,141.984573 108.519760,142.545059 109.080231C143.105530 109.640717,143.865677 109.955658,144.658371 109.955658C145.451065 109.955658,146.211212 109.640717,146.771683 109.080231C147.332169 108.519760,147.647110 107.759613,147.647110 106.966919Z" style="fill: rgb(100.000000%,100.000000%,100.000000%);stroke: none;"></path>
  <path d="M148.334045 118.442764C148.334045 117.650070,148.019104 116.889923,147.458618 116.329453C146.898148 115.768967,146.138000 115.454025,145.345306 115.454025C144.552612 115.454025,143.792465 115.768967,143.231995 116.329453C142.671509 116.889923,142.356567 117.650070,142.356567 118.442764C142.356567 119.235458,142.671509 119.995605,143.231995 120.556076C143.792465 121.116562,144.552612 121.431503,145.345306 121.431503C146.138000 121.431503,146.898148 121.116562,147.458618 120.556076C148.019104 119.995605,148.334045 119.235458,148.334045 118.442764Z" style="fill: rgb(100.000000%,100.000000%,100.000000%);stroke: none;"></path>
  <path d="M155.650818 86.041351C155.650818 85.248657,155.335876 84.488510,154.775391 83.928040C154.214920 83.367554,153.454773 83.052612,152.662079 83.052612C151.869385 83.052612,151.109238 83.367554,150.548767 83.928040C149.988281 84.488510,149.673340 85.248657,149.673340 86.041351C149.673340 86.834045,149.988281 87.594193,150.548767 88.154663C151.109238 88.715149,151.869385 89.030090,152.662079 89.030090C153.454773 89.030090,154.214920 88.715149,154.775391 88.154663C155.335876 87.594193,155.650818 86.834045,155.650818 86.041351Z" style="fill: rgb(100.000000%,100.000000%,100.000000%);stroke: none;"></path>
  <path d="M146.840683 100.972733C146.840683 100.180038,146.525742 99.419891,145.965256 98.859421C145.404785 98.298935,144.644638 97.983994,143.851944 97.983994C143.059250 97.983994,142.299103 98.298935,141.738632 98.859421C141.178146 99.419891,140.863205 100.180038,140.863205 100.972733C140.863205 101.765427,141.178146 102.525574,141.738632 103.086044C142.299103 103.646530,143.059250 103.961472,143.851944 103.961472C144.644638 103.961472,145.404785 103.646530,145.965256 103.086044C146.525742 102.525574,146.840683 101.765427,146.840683 100.972733Z" style="fill: rgb(100.000000%,100.000000%,100.000000%);stroke: none;"></path>
  <path d="M192.433578 104.868149C192.433578 104.075455,192.118637 103.315308,191.558151 102.754837C190.997681 102.194351,190.237534 101.879410,189.444839 101.879410C188.652145 101.879410,187.891998 102.194351,187.331528 102.754837C186.771042 103.315308,186.456100 104.075455,186.456100 104.868149C186.456100 105.660843,186.771042 106.420990,187.331528 106.981461C187.891998 107.541946,188.652145 107.856888,189.444839 107.856888C190.237534 107.856888,190.997681 107.541946,191.558151 106.981461C192.118637 106.420990,192.433578 105.660843,192.433578 104.868149Z" style="fill: rgb(100.000000%,100.000000%,100.000000%);stroke: none;"></path>
  <path d="M170.012146 86.406754C170.012146 85.614059,169.697205 84.853912,169.136719 84.293442C168.576248 83.732956,167.816101 83.418015,167.023407 83.418015C166.230713 83.418015,165.470566 83.732956,164.910095 84.293442C164.349609 84.853912,164.034668 85.614059,164.034668 86.406754C164.034668 87.199448,164.349609 87.959595,164.910095 88.520065C165.470566 89.080551,166.230713 89.395493,167.023407 89.395493C167.816101 89.395493,168.576248 89.080551,169.136719 88.520065C169.697205 87.959595,170.012146 87.199448,170.012146 86.406754Z" style="fill: rgb(100.000000%,100.000000%,100.000000%);stroke: none;"></path>
  <path d="M183.280228 154.602234C183.280228 153.809540,182.965286 153.049393,182.404800 152.488922C181.844330 151.928436,181.084183 151.613495,180.291489 151.613495C179.498795 151.613495,178.738647 151.928436,178.178177 152.488922C177.617691 153.049393,177.302750 153.809540,177.302750 154.602234C177.302750 155.394928,177.617691 156.155075,178.178177 156.715546C178.738647 157.276031,179.498795 157.590973,180.291489 157.590973C181.084183 157.590973,181.844330 157.276031,182.404800 156.715546C182.965286 156.155075,183.280228 155.394928,183.280228 154.602234Z" style="fill: rgb(100.000000%,100.000000%,100.000000%);stroke: none;"></path>
  <path d="M195.961395 122.269196C195.961395 121.476501,195.646454 120.716354,195.085968 120.155884C194.525497 119.595398,193.765350 119.280457,192.972656 119.280457C192.179962 119.280457,191.419815 119.595398,190.859344 120.155884C190.298859 120.716354,189.983917 121.476501,189.983917 122.269196C189.983917 123.061890,190.298859 123.822037,190.859344 124.382507C191.419815 124.942993,192.179962 125.257935,192.972656 125.257935C193.765350 125.257935,194.525497 124.942993,195.085968 124.382507C195.646454 123.822037,195.961395 123.061890,195.961395 122.269196Z" style="fill: rgb(100.000000%,100.000000%,100.000000%);stroke: none;"></path>
  <path d="M135.407394 159.588913C135.407394 158.796219,135.092453 158.036072,134.531967 157.475601C133.971497 156.915115,133.211349 156.600174,132.418655 156.600174C131.625961 156.600174,130.865814 156.915115,130.305344 157.475601C129.744858 158.036072,129.429916 158.796219,129.429916 159.588913C129.429916 160.381607,129.744858 161.141754,130.305344 161.702225C130.865814 162.262711,131.625961 162.577652,132.418655 162.577652C133.211349 162.577652,133.971497 162.262711,134.531967 161.702225C135.092453 161.141754,135.407394 160.381607,135.407394 159.588913Z" style="fill: rgb(100.000000%,100.000000%,100.000000%);stroke: none;"></path>
  <path d="M165.902878 165.433060C165.902878 164.640366,165.587936 163.880219,165.027451 163.319748C164.466980 162.759262,163.706833 162.444321,162.914139 162.444321C162.121445 162.444321,161.361298 162.759262,160.800827 163.319748C160.240341 163.880219,159.925400 164.640366,159.925400 165.433060C159.925400 166.225754,160.240341 166.985901,160.800827 167.546371C161.361298 168.106857,162.121445 168.421799,162.914139 168.421799C163.706833 168.421799,164.466980 168.106857,165.027451 167.546371C165.587936 166.985901,165.902878 166.225754,165.902878 165.433060Z" style="fill: rgb(100.000000%,100.000000%,100.000000%);stroke: none;"></path>
  <path d="M116.155182 132.654388C116.155182 131.861694,115.840240 131.101547,115.279755 130.541077C114.719284 129.980591,113.959137 129.665649,113.166443 129.665649C112.373749 129.665649,111.613602 129.980591,111.053131 130.541077C110.492645 131.101547,110.177704 131.861694,110.177704 132.654388C110.177704 133.447083,110.492645 134.207230,111.053131 134.767700C111.613602 135.328186,112.373749 135.643127,113.166443 135.643127C113.959137 135.643127,114.719284 135.328186,115.279755 134.767700C115.840240 134.207230,116.155182 133.447083,116.155182 132.654388Z" style="fill: rgb(100.000000%,100.000000%,100.000000%);stroke: none;"></path>
  <path d="M125.557770 150.347198C125.557770 149.554504,125.242828 148.794357,124.682343 148.233887C124.121872 147.673401,123.361725 147.358459,122.569031 147.358459C121.776337 147.358459,121.016190 147.673401,120.455719 148.233887C119.895233 148.794357,119.580292 149.554504,119.580292 150.347198C119.580292 151.139893,119.895233 151.900040,120.455719 152.460510C121.016190 153.020996,121.776337 153.335938,122.569031 153.335938C123.361725 153.335938,124.121872 153.020996,124.682343 152.460510C125.242828 151.900040,125.557770 151.139893,125.557770 150.347198Z" style="fill: rgb(100.000000%,100.000000%,100.000000%);stroke: none;"></path>
  <path d="M110.325424 112.773056C110.325424 111.980362,110.010483 111.220215,109.449997 110.659744C108.889526 110.099258,108.129379 109.784317,107.336685 109.784317C106.543991 109.784317,105.783844 110.099258,105.223373 110.659744C104.662888 111.220215,104.347946 111.980362,104.347946 112.773056C104.347946 113.565750,104.662888 114.325897,105.223373 114.886368C105.783844 115.446854,106.543991 115.761795,107.336685 115.761795C108.129379 115.761795,108.889526 115.446854,109.449997 114.886368C110.010483 114.325897,110.325424 113.565750,110.325424 112.773056Z" style="fill: rgb(100.000000%,100.000000%,100.000000%);stroke: none;"></path>
  <path d="M113.995193 125.781982C113.995193 124.989288,113.680252 124.229141,113.119766 123.668671C112.559296 123.108185,111.799149 122.793243,111.006454 122.793243C110.213760 122.793243,109.453613 123.108185,108.893143 123.668671C108.332657 124.229141,108.017715 124.989288,108.017715 125.781982C108.017715 126.574677,108.332657 127.334824,108.893143 127.895294C109.453613 128.455780,110.213760 128.770721,111.006454 128.770721C111.799149 128.770721,112.559296 128.455780,113.119766 127.895294C113.680252 127.334824,113.995193 126.574677,113.995193 125.781982Z" style="fill: rgb(100.000000%,100.000000%,100.000000%);stroke: none;"></path>
  <path d="M99.239700 96.809067C99.239700 96.016373,98.924759 95.256226,98.364273 94.695755C97.803802 94.135269,97.043655 93.820328,96.250961 93.820328C95.458267 93.820328,94.698120 94.135269,94.137650 94.695755C93.577164 95.256226,93.262222 96.016373,93.262222 96.809067C93.262222 97.601761,93.577164 98.361908,94.137650 98.922379C94.698120 99.482864,95.458267 99.797806,96.250961 99.797806C97.043655 99.797806,97.803802 99.482864,98.364273 98.922379C98.924759 98.361908,99.239700 97.601761,99.239700 96.809067Z" style="fill: rgb(100.000000%,100.000000%,100.000000%);stroke: none;"></path>
  <path d="M108.640335 106.429077C108.640335 105.636383,108.325394 104.876236,107.764908 104.315765C107.204437 103.755280,106.444290 103.440338,105.651596 103.440338C104.858902 103.440338,104.098755 103.755280,103.538284 104.315765C102.977798 104.876236,102.662857 105.636383,102.662857 106.429077C102.662857 107.221771,102.977798 107.981918,103.538284 108.542389C104.098755 109.102875,104.858902 109.417816,105.651596 109.417816C106.444290 109.417816,107.204437 109.102875,107.764908 108.542389C108.325394 107.981918,108.640335 107.221771,108.640335 106.429077Z" style="fill: rgb(100.000000%,100.000000%,100.000000%);stroke: none;"></path>
  <path d="M75.862045 91.306793C75.862045 90.514099,75.547104 89.753952,74.986618 89.193481C74.426147 88.632996,73.666000 88.318054,72.873306 88.318054C72.080612 88.318054,71.320465 88.632996,70.759995 89.193481C70.199509 89.753952,69.884567 90.514099,69.884567 91.306793C69.884567 92.099487,70.199509 92.859634,70.759995 93.420105C71.320465 93.980591,72.080612 94.295532,72.873306 94.295532C73.666000 94.295532,74.426147 93.980591,74.986618 93.420105C75.547104 92.859634,75.862045 92.099487,75.862045 91.306793Z" style="fill: rgb(100.000000%,100.000000%,100.000000%);stroke: none;"></path>
  <path d="M92.068649 95.134552C92.068649 94.341858,91.753708 93.581711,91.193222 93.021240C90.632751 92.460754,89.872604 92.145813,89.079910 92.145813C88.287216 92.145813,87.527069 92.460754,86.966599 93.021240C86.406113 93.581711,86.091171 94.341858,86.091171 95.134552C86.091171 95.927246,86.406113 96.687393,86.966599 97.247864C87.527069 97.808350,88.287216 98.123291,89.079910 98.123291C89.872604 98.123291,90.632751 97.808350,91.193222 97.247864C91.753708 96.687393,92.068649 95.927246,92.068649 95.134552Z" style="fill: rgb(100.000000%,100.000000%,100.000000%);stroke: none;"></path>
  <path d="M43.368027 85.667648C43.368027 84.874954,43.053085 84.114807,42.492599 83.554337C41.932129 82.993851,41.171982 82.678909,40.379288 82.678909C39.586594 82.678909,38.826447 82.993851,38.265976 83.554337C37.705490 84.114807,37.390549 84.874954,37.390549 85.667648C37.390549 86.460342,37.705490 87.220490,38.265976 87.780960C38.826447 88.341446,39.586594 88.656387,40.379288 88.656387C41.171982 88.656387,41.932129 88.341446,42.492599 87.780960C43.053085 87.220490,43.368027 86.460342,43.368027 85.667648Z" style="fill: rgb(100.000000%,100.000000%,100.000000%);stroke: none;"></path>
  <path d="M66.573288 88.889374C66.573288 88.096680,66.258347 87.336533,65.697861 86.776062C65.137390 86.215576,64.377243 85.900635,63.584549 85.900635C62.791855 85.900635,62.031708 86.215576,61.471237 86.776062C60.910751 87.336533,60.595810 88.096680,60.595810 88.889374C60.595810 89.682068,60.910751 90.442215,61.471237 91.002686C62.031708 91.563171,62.791855 91.878113,63.584549 91.878113C64.377243 91.878113,65.137390 91.563171,65.697861 91.002686C66.258347 90.442215,66.573288 89.682068,66.573288 88.889374Z" style="fill: rgb(100.000000%,100.000000%,100.000000%);stroke: none;"></path>
  <path d="M8.119080 67.399261C8.119080 66.606567,7.804138 65.846420,7.243652 65.285950C6.683182 64.725464,5.923035 64.410522,5.130341 64.410522C4.337646 64.410522,3.577499 64.725464,3.017029 65.285950C2.456543 65.846420,2.141602 66.606567,2.141602 67.399261C2.141602 68.191956,2.456543 68.952103,3.017029 69.512573C3.577499 70.073059,4.337646 70.388000,5.130341 70.388000C5.923035 70.388000,6.683182 70.073059,7.243652 69.512573C7.804138 68.952103,8.119080 68.191956,8.119080 67.399261Z" style="fill: rgb(100.000000%,100.000000%,100.000000%);stroke: none;"></path>
  <path d="M28.537903 85.641861C28.537903 84.849167,28.222961 84.089020,27.662476 83.528549C27.102005 82.968063,26.341858 82.653122,25.549164 82.653122C24.756470 82.653122,23.996323 82.968063,23.435852 83.528549C22.875366 84.089020,22.560425 84.849167,22.560425 85.641861C22.560425 86.434555,22.875366 87.194702,23.435852 87.755173C23.996323 88.315659,24.756470 88.630600,25.549164 88.630600C26.341858 88.630600,27.102005 88.315659,27.662476 87.755173C28.222961 87.194702,28.537903 86.434555,28.537903 85.641861Z" style="fill: rgb(100.000000%,100.000000%,100.000000%);stroke: none;"></path>
  <path d="M17.259552 28.668594C17.259552 27.875900,16.944611 27.115753,16.384125 26.555283C15.823654 25.994797,15.063507 25.679855,14.270813 25.679855C13.478119 25.679855,12.717972 25.994797,12.157501 26.555283C11.597015 27.115753,11.282074 27.875900,11.282074 28.668594C11.282074 29.461288,11.597015 30.221436,12.157501 30.781906C12.717972 31.342392,13.478119 31.657333,14.270813 31.657333C15.063507 31.657333,15.823654 31.342392,16.384125 30.781906C16.944611 30.221436,17.259552 29.461288,17.259552 28.668594Z" style="fill: rgb(100.000000%,100.000000%,100.000000%);stroke: none;"></path>
  <path d="M5.598221 52.752213C5.598221 51.959518,5.283279 51.199371,4.722794 50.638901C4.162323 50.078415,3.402176 49.763474,2.609482 49.763474C1.816788 49.763474,1.056641 50.078415,0.496170 50.638901C-0.064316 51.199371,-0.379257 51.959518,-0.379257 52.752213C-0.379257 53.544907,-0.064316 54.305054,0.496170 54.865524C1.056641 55.426010,1.816788 55.740952,2.609482 55.740952C3.402176 55.740952,4.162323 55.426010,4.722794 54.865524C5.283279 54.305054,5.598221 53.544907,5.598221 52.752213Z" style="fill: rgb(100.000000%,100.000000%,100.000000%);stroke: none;"></path>
  <path d="M52.780334 27.932343C52.780334 27.139648,52.465393 26.379501,51.904907 25.819031C51.344437 25.258545,50.584290 24.943604,49.791595 24.943604C48.998901 24.943604,48.238754 25.258545,47.678284 25.819031C47.117798 26.379501,46.802856 27.139648,46.802856 27.932343C46.802856 28.725037,47.117798 29.485184,47.678284 30.045654C48.238754 30.606140,48.998901 30.921082,49.791595 30.921082C50.584290 30.921082,51.344437 30.606140,51.904907 30.045654C52.465393 29.485184,52.780334 28.725037,52.780334 27.932343Z" style="fill: rgb(100.000000%,100.000000%,100.000000%);stroke: none;"></path>
  <path d="M30.103027 21.625534C30.103027 20.832840,29.788086 20.072693,29.227600 19.512222C28.667130 18.951736,27.906982 18.636795,27.114288 18.636795C26.321594 18.636795,25.561447 18.951736,25.000977 19.512222C24.440491 20.072693,24.125549 20.832840,24.125549 21.625534C24.125549 22.418228,24.440491 23.178375,25.000977 23.738846C25.561447 24.299332,26.321594 24.614273,27.114288 24.614273C27.906982 24.614273,28.667130 24.299332,29.227600 23.738846C29.788086 23.178375,30.103027 22.418228,30.103027 21.625534Z" style="fill: rgb(100.000000%,100.000000%,100.000000%);stroke: none;"></path>
  <path d="M82.965500 39.917542C82.965500 39.124847,82.650558 38.364700,82.090073 37.804230C81.529602 37.243744,80.769455 36.928802,79.976761 36.928802C79.184067 36.928802,78.423920 37.243744,77.863449 37.804230C77.302963 38.364700,76.988022 39.124847,76.988022 39.917542C76.988022 40.710236,77.302963 41.470383,77.863449 42.030853C78.423920 42.591339,79.184067 42.906281,79.976761 42.906281C80.769455 42.906281,81.529602 42.591339,82.090073 42.030853C82.650558 41.470383,82.965500 40.710236,82.965500 39.917542Z" style="fill: rgb(100.000000%,100.000000%,100.000000%);stroke: none;"></path>
  <path d="M60.028595 37.739731C60.028595 36.947037,59.713654 36.186890,59.153168 35.626419C58.592697 35.065933,57.832550 34.750992,57.039856 34.750992C56.247162 34.750992,55.487015 35.065933,54.926544 35.626419C54.366058 36.186890,54.051117 36.947037,54.051117 37.739731C54.051117 38.532425,54.366058 39.292572,54.926544 39.853043C55.487015 40.413528,56.247162 40.728470,57.039856 40.728470C57.832550 40.728470,58.592697 40.413528,59.153168 39.853043C59.713654 39.292572,60.028595 38.532425,60.028595 37.739731Z" style="fill: rgb(100.000000%,100.000000%,100.000000%);stroke: none;"></path>
  <path d="M123.237137 21.258499C123.237137 20.465805,122.922195 19.705658,122.361710 19.145187C121.801239 18.584702,121.041092 18.269760,120.248398 18.269760C119.455704 18.269760,118.695557 18.584702,118.135086 19.145187C117.574600 19.705658,117.259659 20.465805,117.259659 21.258499C117.259659 22.051193,117.574600 22.811340,118.135086 23.371811C118.695557 23.932297,119.455704 24.247238,120.248398 24.247238C121.041092 24.247238,121.801239 23.932297,122.361710 23.371811C122.922195 22.811340,123.237137 22.051193,123.237137 21.258499Z" style="fill: rgb(100.000000%,100.000000%,100.000000%);stroke: none;"></path>
  <path d="M92.307495 28.998047C92.307495 28.205353,91.992554 27.445206,91.432068 26.884735C90.871597 26.324249,90.111450 26.009308,89.318756 26.009308C88.526062 26.009308,87.765915 26.324249,87.205444 26.884735C86.644958 27.445206,86.330017 28.205353,86.330017 28.998047C86.330017 29.790741,86.644958 30.550888,87.205444 31.111359C87.765915 31.671844,88.526062 31.986786,89.318756 31.986786C90.111450 31.986786,90.871597 31.671844,91.432068 31.111359C91.992554 30.550888,92.307495 29.790741,92.307495 28.998047Z" style="fill: rgb(100.000000%,100.000000%,100.000000%);stroke: none;"></path>
  <path d="M168.250381 62.509476C168.250381 61.716782,167.935440 60.956635,167.374954 60.396164C166.814484 59.835678,166.054337 59.520737,165.261642 59.520737C164.468948 59.520737,163.708801 59.835678,163.148331 60.396164C162.587845 60.956635,162.272903 61.716782,162.272903 62.509476C162.272903 63.302170,162.587845 64.062317,163.148331 64.622787C163.708801 65.183273,164.468948 65.498215,165.261642 65.498215C166.054337 65.498215,166.814484 65.183273,167.374954 64.622787C167.935440 64.062317,168.250381 63.302170,168.250381 62.509476Z" style="fill: rgb(100.000000%,100.000000%,100.000000%);stroke: none;"></path>
  <path d="M139.583939 36.366928C139.583939 35.574234,139.268997 34.814087,138.708511 34.253616C138.148041 33.693130,137.387894 33.378189,136.595200 33.378189C135.802505 33.378189,135.042358 33.693130,134.481888 34.253616C133.921402 34.814087,133.606461 35.574234,133.606461 36.366928C133.606461 37.159622,133.921402 37.919769,134.481888 38.480240C135.042358 39.040726,135.802505 39.355667,136.595200 39.355667C137.387894 39.355667,138.148041 39.040726,138.708511 38.480240C139.268997 37.919769,139.583939 37.159622,139.583939 36.366928Z" style="fill: rgb(100.000000%,100.000000%,100.000000%);stroke: none;"></path>
  <path d="M178.184326 103.842529C178.184326 103.049835,177.869385 102.289688,177.308899 101.729218C176.748428 101.168732,175.988281 100.853790,175.195587 100.853790C174.402893 100.853790,173.642746 101.168732,173.082275 101.729218C172.521790 102.289688,172.206848 103.049835,172.206848 103.842529C172.206848 104.635223,172.521790 105.395370,173.082275 105.955841C173.642746 106.516327,174.402893 106.831268,175.195587 106.831268C175.988281 106.831268,176.748428 106.516327,177.308899 105.955841C177.869385 105.395370,178.184326 104.635223,178.184326 103.842529Z" style="fill: rgb(100.000000%,100.000000%,100.000000%);stroke: none;"></path>
  <path d="M183.469772 76.640869C183.469772 75.848175,183.154831 75.088028,182.594345 74.527557C182.033875 73.967072,181.273727 73.652130,180.481033 73.652130C179.688339 73.652130,178.928192 73.967072,178.367722 74.527557C177.807236 75.088028,177.492294 75.848175,177.492294 76.640869C177.492294 77.433563,177.807236 78.193710,178.367722 78.754181C178.928192 79.314667,179.688339 79.629608,180.481033 79.629608C181.273727 79.629608,182.033875 79.314667,182.594345 78.754181C183.154831 78.193710,183.469772 77.433563,183.469772 76.640869Z" style="fill: rgb(100.000000%,100.000000%,100.000000%);stroke: none;"></path>
  <path d="M157.390305 114.037552C157.390305 113.244858,157.075363 112.484711,156.514877 111.924240C155.954407 111.363754,155.194260 111.048813,154.401566 111.048813C153.608871 111.048813,152.848724 111.363754,152.288254 111.924240C151.727768 112.484711,151.412827 113.244858,151.412827 114.037552C151.412827 114.830246,151.727768 115.590393,152.288254 116.150864C152.848724 116.711349,153.608871 117.026291,154.401566 117.026291C155.194260 117.026291,155.954407 116.711349,156.514877 116.150864C157.075363 115.590393,157.390305 114.830246,157.390305 114.037552Z" style="fill: rgb(100.000000%,100.000000%,100.000000%);stroke: none;"></path>
  <path d="M171.208389 111.260864C171.208389 110.468170,170.893448 109.708023,170.332962 109.147552C169.772491 108.587067,169.012344 108.272125,168.219650 108.272125C167.426956 108.272125,166.666809 108.587067,166.106339 109.147552C165.545853 109.708023,165.230911 110.468170,165.230911 111.260864C165.230911 112.053558,165.545853 112.813705,166.106339 113.374176C166.666809 113.934662,167.426956 114.249603,168.219650 114.249603C169.012344 114.249603,169.772491 113.934662,170.332962 113.374176C170.893448 112.813705,171.208389 112.053558,171.208389 111.260864Z" style="fill: rgb(100.000000%,100.000000%,100.000000%);stroke: none;"></path>
  <path d="M141.879791 111.758148C141.879791 110.965454,141.564850 110.205307,141.004364 109.644836C140.443893 109.084351,139.683746 108.769409,138.891052 108.769409C138.098358 108.769409,137.338211 109.084351,136.777740 109.644836C136.217255 110.205307,135.902313 110.965454,135.902313 111.758148C135.902313 112.550842,136.217255 113.310989,136.777740 113.871460C137.338211 114.431946,138.098358 114.746887,138.891052 114.746887C139.683746 114.746887,140.443893 114.431946,141.004364 113.871460C141.564850 113.310989,141.879791 112.550842,141.879791 111.758148Z" style="fill: rgb(100.000000%,100.000000%,100.000000%);stroke: none;"></path>
  <path d="M152.651047 113.373428C152.651047 112.580734,152.336105 111.820587,151.775620 111.260117C151.215149 110.699631,150.455002 110.384689,149.662308 110.384689C148.869614 110.384689,148.109467 110.699631,147.548996 111.260117C146.988510 111.820587,146.673569 112.580734,146.673569 113.373428C146.673569 114.166122,146.988510 114.926270,147.548996 115.486740C148.109467 116.047226,148.869614 116.362167,149.662308 116.362167C150.455002 116.362167,151.215149 116.047226,151.775620 115.486740C152.336105 114.926270,152.651047 114.166122,152.651047 113.373428Z" style="fill: rgb(100.000000%,100.000000%,100.000000%);stroke: none;"></path>
  <path d="M123.352325 112.979950C123.352325 112.187256,123.037384 111.427109,122.476898 110.866638C121.916428 110.306152,121.156281 109.991211,120.363586 109.991211C119.570892 109.991211,118.810745 110.306152,118.250275 110.866638C117.689789 111.427109,117.374847 112.187256,117.374847 112.979950C117.374847 113.772644,117.689789 114.532791,118.250275 115.093262C118.810745 115.653748,119.570892 115.968689,120.363586 115.968689C121.156281 115.968689,121.916428 115.653748,122.476898 115.093262C123.037384 114.532791,123.352325 113.772644,123.352325 112.979950Z" style="fill: rgb(100.000000%,100.000000%,100.000000%);stroke: none;"></path>
  <path d="M135.688004 110.789001C135.688004 109.996307,135.373062 109.236160,134.812576 108.675690C134.252106 108.115204,133.491959 107.800262,132.699265 107.800262C131.906570 107.800262,131.146423 108.115204,130.585953 108.675690C130.025467 109.236160,129.710526 109.996307,129.710526 110.789001C129.710526 111.581696,130.025467 112.341843,130.585953 112.902313C131.146423 113.462799,131.906570 113.777740,132.699265 113.777740C133.491959 113.777740,134.252106 113.462799,134.812576 112.902313C135.373062 112.341843,135.688004 111.581696,135.688004 110.789001Z" style="fill: rgb(100.000000%,100.000000%,100.000000%);stroke: none;"></path>
  <path d="M107.164642 121.216797C107.164642 120.424103,106.849701 119.663956,106.289215 119.103485C105.728745 118.542999,104.968597 118.228058,104.175903 118.228058C103.383209 118.228058,102.623062 118.542999,102.062592 119.103485C101.502106 119.663956,101.187164 120.424103,101.187164 121.216797C101.187164 122.009491,101.502106 122.769638,102.062592 123.330109C102.623062 123.890594,103.383209 124.205536,104.175903 124.205536C104.968597 124.205536,105.728745 123.890594,106.289215 123.330109C106.849701 122.769638,107.164642 122.009491,107.164642 121.216797Z" style="fill: rgb(100.000000%,100.000000%,100.000000%);stroke: none;"></path>
  <path d="M117.757568 116.149643C117.757568 115.356949,117.442627 114.596802,116.882141 114.036331C116.321671 113.475845,115.561523 113.160904,114.768829 113.160904C113.976135 113.160904,113.215988 113.475845,112.655518 114.036331C112.095032 114.596802,111.780090 115.356949,111.780090 116.149643C111.780090 116.942337,112.095032 117.702484,112.655518 118.262955C113.215988 118.823441,113.976135 119.138382,114.768829 119.138382C115.561523 119.138382,116.321671 118.823441,116.882141 118.262955C117.442627 117.702484,117.757568 116.942337,117.757568 116.149643Z" style="fill: rgb(100.000000%,100.000000%,100.000000%);stroke: none;"></path>
  <path d="M92.116364 124.920609C92.116364 124.127914,91.801422 123.367767,91.240936 122.807297C90.680466 122.246811,89.920319 121.931870,89.127625 121.931870C88.334930 121.931870,87.574783 122.246811,87.014313 122.807297C86.453827 123.367767,86.138885 124.127914,86.138885 124.920609C86.138885 125.713303,86.453827 126.473450,87.014313 127.033920C87.574783 127.594406,88.334930 127.909348,89.127625 127.909348C89.920319 127.909348,90.680466 127.594406,91.240936 127.033920C91.801422 126.473450,92.116364 125.713303,92.116364 124.920609Z" style="fill: rgb(100.000000%,100.000000%,100.000000%);stroke: none;"></path>
  <path d="M102.110611 123.257996C102.110611 122.465302,101.795670 121.705154,101.235184 121.144684C100.674713 120.584198,99.914566 120.269257,99.121872 120.269257C98.329178 120.269257,97.569031 120.584198,97.008560 121.144684C96.448074 121.705154,96.133133 122.465302,96.133133 123.257996C96.133133 124.050690,96.448074 124.810837,97.008560 125.371307C97.569031 125.931793,98.329178 126.246735,99.121872 126.246735C99.914566 126.246735,100.674713 125.931793,101.235184 125.371307C101.795670 124.810837,102.110611 124.050690,102.110611 123.257996Z" style="fill: rgb(100.000000%,100.000000%,100.000000%);stroke: none;"></path>
  <path d="M79.240280 123.471909C79.240280 122.679214,78.925339 121.919067,78.364853 121.358597C77.804382 120.798111,77.044235 120.483170,76.251541 120.483170C75.458847 120.483170,74.698700 120.798111,74.138229 121.358597C73.577744 121.919067,73.262802 122.679214,73.262802 123.471909C73.262802 124.264603,73.577744 125.024750,74.138229 125.585220C74.698700 126.145706,75.458847 126.460648,76.251541 126.460648C77.044235 126.460648,77.804382 126.145706,78.364853 125.585220C78.925339 125.024750,79.240280 124.264603,79.240280 123.471909Z" style="fill: rgb(100.000000%,100.000000%,100.000000%);stroke: none;"></path>
  <path d="M87.372253 124.798309C87.372253 124.005615,87.057312 123.245468,86.496826 122.684998C85.936356 122.124512,85.176208 121.809570,84.383514 121.809570C83.590820 121.809570,82.830673 122.124512,82.270203 122.684998C81.709717 123.245468,81.394775 124.005615,81.394775 124.798309C81.394775 125.591003,81.709717 126.351151,82.270203 126.911621C82.830673 127.472107,83.590820 127.787048,84.383514 127.787048C85.176208 127.787048,85.936356 127.472107,86.496826 126.911621C87.057312 126.351151,87.372253 125.591003,87.372253 124.798309Z" style="fill: rgb(100.000000%,100.000000%,100.000000%);stroke: none;"></path>
  <path d="M71.270798 128.101212C71.270798 127.308517,70.955856 126.548370,70.395370 125.987900C69.834900 125.427414,69.074753 125.112473,68.282059 125.112473C67.489365 125.112473,66.729218 125.427414,66.168747 125.987900C65.608261 126.548370,65.293320 127.308517,65.293320 128.101212C65.293320 128.893906,65.608261 129.654053,66.168747 130.214523C66.729218 130.775009,67.489365 131.089951,68.282059 131.089951C69.074753 131.089951,69.834900 130.775009,70.395370 130.214523C70.955856 129.654053,71.270798 128.893906,71.270798 128.101212Z" style="fill: rgb(100.000000%,100.000000%,100.000000%);stroke: none;"></path>
  <path d="M75.350433 122.901108C75.350433 122.108414,75.035492 121.348267,74.475006 120.787796C73.914536 120.227310,73.154388 119.912369,72.361694 119.912369C71.569000 119.912369,70.808853 120.227310,70.248383 120.787796C69.687897 121.348267,69.372955 122.108414,69.372955 122.901108C69.372955 123.693802,69.687897 124.453949,70.248383 125.014420C70.808853 125.574905,71.569000 125.889847,72.361694 125.889847C73.154388 125.889847,73.914536 125.574905,74.475006 125.014420C75.035492 124.453949,75.350433 123.693802,75.350433 122.901108Z" style="fill: rgb(100.000000%,100.000000%,100.000000%);stroke: none;"></path>
  <path d="M75.211700 138.394058C75.211700 137.601364,74.896759 136.841217,74.336273 136.280746C73.775803 135.720261,73.015656 135.405319,72.222961 135.405319C71.430267 135.405319,70.670120 135.720261,70.109650 136.280746C69.549164 136.841217,69.234222 137.601364,69.234222 138.394058C69.234222 139.186752,69.549164 139.946899,70.109650 140.507370C70.670120 141.067856,71.430267 141.382797,72.222961 141.382797C73.015656 141.382797,73.775803 141.067856,74.336273 140.507370C74.896759 139.946899,75.211700 139.186752,75.211700 138.394058Z" style="fill: rgb(100.000000%,100.000000%,100.000000%);stroke: none;"></path>
  <path d="M72.400742 131.506638C72.400742 130.713943,72.085800 129.953796,71.525314 129.393326C70.964844 128.832840,70.204697 128.517899,69.412003 128.517899C68.619308 128.517899,67.859161 128.832840,67.298691 129.393326C66.738205 129.953796,66.423264 130.713943,66.423264 131.506638C66.423264 132.299332,66.738205 133.059479,67.298691 133.619949C67.859161 134.180435,68.619308 134.495377,69.412003 134.495377C70.204697 134.495377,70.964844 134.180435,71.525314 133.619949C72.085800 133.059479,72.400742 132.299332,72.400742 131.506638Z" style="fill: rgb(100.000000%,100.000000%,100.000000%);stroke: none;"></path>
  <path d="M74.345474 156.471756C74.345474 155.679062,74.030533 154.918915,73.470047 154.358444C72.909576 153.797958,72.149429 153.483017,71.356735 153.483017C70.564041 153.483017,69.803894 153.797958,69.243423 154.358444C68.682938 154.918915,68.367996 155.679062,68.367996 156.471756C68.367996 157.264450,68.682938 158.024597,69.243423 158.585068C69.803894 159.145554,70.564041 159.460495,71.356735 159.460495C72.149429 159.460495,72.909576 159.145554,73.470047 158.585068C74.030533 158.024597,74.345474 157.264450,74.345474 156.471756Z" style="fill: rgb(100.000000%,100.000000%,100.000000%);stroke: none;"></path>
  <path d="M76.666916 142.461563C76.666916 141.668869,76.351974 140.908722,75.791489 140.348251C75.231018 139.787766,74.470871 139.472824,73.678177 139.472824C72.885483 139.472824,72.125336 139.787766,71.564865 140.348251C71.004379 140.908722,70.689438 141.668869,70.689438 142.461563C70.689438 143.254257,71.004379 144.014404,71.564865 144.574875C72.125336 145.135361,72.885483 145.450302,73.678177 145.450302C74.470871 145.450302,75.231018 145.135361,75.791489 144.574875C76.351974 144.014404,76.666916 143.254257,76.666916 142.461563Z" style="fill: rgb(100.000000%,100.000000%,100.000000%);stroke: none;"></path>
  <path d="M36.309723 156.053345C36.309723 155.260651,35.994781 154.500504,35.434296 153.940033C34.873825 153.379547,34.113678 153.064606,33.320984 153.064606C32.528290 153.064606,31.768143 153.379547,31.207672 153.940033C30.647186 154.500504,30.332245 155.260651,30.332245 156.053345C30.332245 156.846039,30.647186 157.606186,31.207672 158.166656C31.768143 158.727142,32.528290 159.042084,33.320984 159.042084C34.113678 159.042084,34.873825 158.727142,35.434296 158.166656C35.994781 157.606186,36.309723 156.846039,36.309723 156.053345Z" style="fill: rgb(100.000000%,100.000000%,100.000000%);stroke: none;"></path>
  <path d="M63.421722 161.379974C63.421722 160.587280,63.106781 159.827133,62.546295 159.266663C61.985825 158.706177,61.225677 158.391235,60.432983 158.391235C59.640289 158.391235,58.880142 158.706177,58.319672 159.266663C57.759186 159.827133,57.444244 160.587280,57.444244 161.379974C57.444244 162.172668,57.759186 162.932816,58.319672 163.493286C58.880142 164.053772,59.640289 164.368713,60.432983 164.368713C61.225677 164.368713,61.985825 164.053772,62.546295 163.493286C63.106781 162.932816,63.421722 162.172668,63.421722 161.379974Z" style="fill: rgb(100.000000%,100.000000%,100.000000%);stroke: none;"></path>
  <path d="M12.023727 108.408203C12.023727 107.615509,11.708786 106.855362,11.148300 106.294891C10.587830 105.734406,9.827682 105.419464,9.034988 105.419464C8.242294 105.419464,7.482147 105.734406,6.921677 106.294891C6.361191 106.855362,6.046249 107.615509,6.046249 108.408203C6.046249 109.200897,6.361191 109.961044,6.921677 110.521515C7.482147 111.082001,8.242294 111.396942,9.034988 111.396942C9.827682 111.396942,10.587830 111.082001,11.148300 110.521515C11.708786 109.961044,12.023727 109.200897,12.023727 108.408203Z" style="fill: rgb(100.000000%,100.000000%,100.000000%);stroke: none;"></path>
  <path d="M26.812393 140.261551C26.812393 139.468857,26.497452 138.708710,25.936966 138.148239C25.376495 137.587753,24.616348 137.272812,23.823654 137.272812C23.030960 137.272812,22.270813 137.587753,21.710342 138.148239C21.149857 138.708710,20.834915 139.468857,20.834915 140.261551C20.834915 141.054245,21.149857 141.814392,21.710342 142.374863C22.270813 142.935349,23.030960 143.250290,23.823654 143.250290C24.616348 143.250290,25.376495 142.935349,25.936966 142.374863C26.497452 141.814392,26.812393 141.054245,26.812393 140.261551Z" style="fill: rgb(100.000000%,100.000000%,100.000000%);stroke: none;"></path>
  <path d="M25.751633 67.828430C25.751633 67.035736,25.436691 66.275589,24.876205 65.715118C24.315735 65.154633,23.555588 64.839691,22.762894 64.839691C21.970200 64.839691,21.210052 65.154633,20.649582 65.715118C20.089096 66.275589,19.774155 67.035736,19.774155 67.828430C19.774155 68.621124,20.089096 69.381271,20.649582 69.941742C21.210052 70.502228,21.970200 70.817169,22.762894 70.817169C23.555588 70.817169,24.315735 70.502228,24.876205 69.941742C25.436691 69.381271,25.751633 68.621124,25.751633 67.828430Z" style="fill: rgb(100.000000%,100.000000%,100.000000%);stroke: none;"></path>
  <path d="M6.639832 89.355560C6.639832 88.562866,6.324890 87.802719,5.764404 87.242249C5.203934 86.681763,4.443787 86.366821,3.651093 86.366821C2.858398 86.366821,2.098251 86.681763,1.537781 87.242249C0.977295 87.802719,0.662354 88.562866,0.662354 89.355560C0.662354 90.148254,0.977295 90.908401,1.537781 91.468872C2.098251 92.029358,2.858398 92.344299,3.651093 92.344299C4.443787 92.344299,5.203934 92.029358,5.764404 91.468872C6.324890 90.908401,6.639832 90.148254,6.639832 89.355560Z" style="fill: rgb(100.000000%,100.000000%,100.000000%);stroke: none;"></path>
  <path d="M47.239975 45.022720C47.239975 44.230026,46.925034 43.469879,46.364548 42.909409C45.804077 42.348923,45.043930 42.033981,44.251236 42.033981C43.458542 42.033981,42.698395 42.348923,42.137924 42.909409C41.577438 43.469879,41.262497 44.230026,41.262497 45.022720C41.262497 45.815414,41.577438 46.575562,42.137924 47.136032C42.698395 47.696518,43.458542 48.011459,44.251236 48.011459C45.043930 48.011459,45.804077 47.696518,46.364548 47.136032C46.925034 46.575562,47.239975 45.815414,47.239975 45.022720Z" style="fill: rgb(100.000000%,100.000000%,100.000000%);stroke: none;"></path>
  <path d="M39.493835 65.449493C39.493835 64.656799,39.178894 63.896652,38.618408 63.336182C38.057938 62.775696,37.297791 62.460754,36.505096 62.460754C35.712402 62.460754,34.952255 62.775696,34.391785 63.336182C33.831299 63.896652,33.516357 64.656799,33.516357 65.449493C33.516357 66.242188,33.831299 67.002335,34.391785 67.562805C34.952255 68.123291,35.712402 68.438232,36.505096 68.438232C37.297791 68.438232,38.057938 68.123291,38.618408 67.562805C39.178894 67.002335,39.493835 66.242188,39.493835 65.449493Z" style="fill: rgb(100.000000%,100.000000%,100.000000%);stroke: none;"></path>
  <path d="M44.698364 12.279907C44.698364 11.487213,44.383423 10.727066,43.822937 10.166595C43.262466 9.606110,42.502319 9.291168,41.709625 9.291168C40.916931 9.291168,40.156784 9.606110,39.596313 10.166595C39.035828 10.727066,38.720886 11.487213,38.720886 12.279907C38.720886 13.072601,39.035828 13.832748,39.596313 14.393219C40.156784 14.953705,40.916931 15.268646,41.709625 15.268646C42.502319 15.268646,43.262466 14.953705,43.822937 14.393219C44.383423 13.832748,44.698364 13.072601,44.698364 12.279907Z" style="fill: rgb(100.000000%,100.000000%,100.000000%);stroke: none;"></path>
  <path d="M41.035645 34.947617C41.035645 34.154922,40.720703 33.394775,40.160217 32.834305C39.599747 32.273819,38.839600 31.958878,38.046906 31.958878C37.254211 31.958878,36.494064 32.273819,35.933594 32.834305C35.373108 33.394775,35.058167 34.154922,35.058167 34.947617C35.058167 35.740311,35.373108 36.500458,35.933594 37.060928C36.494064 37.621414,37.254211 37.936356,38.046906 37.936356C38.839600 37.936356,39.599747 37.621414,40.160217 37.060928C40.720703 36.500458,41.035645 35.740311,41.035645 34.947617Z" style="fill: rgb(100.000000%,100.000000%,100.000000%);stroke: none;"></path>
  <path d="M85.563721 4.274338C85.563721 3.481644,85.248779 2.721497,84.688293 2.161026C84.127823 1.600540,83.367676 1.285599,82.574982 1.285599C81.782288 1.285599,81.022141 1.600540,80.461670 2.161026C79.901184 2.721497,79.586243 3.481644,79.586243 4.274338C79.586243 5.067032,79.901184 5.827179,80.461670 6.387650C81.022141 6.948135,81.782288 7.263077,82.574982 7.263077C83.367676 7.263077,84.127823 6.948135,84.688293 6.387650C85.248779 5.827179,85.563721 5.067032,85.563721 4.274338Z" style="fill: rgb(100.000000%,100.000000%,100.000000%);stroke: none;"></path>
  <path d="M57.409470 4.591568C57.409470 3.798874,57.094528 3.038727,56.534042 2.478256C55.973572 1.917770,55.213425 1.602829,54.420731 1.602829C53.628036 1.602829,52.867889 1.917770,52.307419 2.478256C51.746933 3.038727,51.431992 3.798874,51.431992 4.591568C51.431992 5.384262,51.746933 6.144409,52.307419 6.704880C52.867889 7.265366,53.628036 7.580307,54.420731 7.580307C55.213425 7.580307,55.973572 7.265366,56.534042 6.704880C57.094528 6.144409,57.409470 5.384262,57.409470 4.591568Z" style="fill: rgb(100.000000%,100.000000%,100.000000%);stroke: none;"></path>
  <path d="M108.806442 39.588440C108.806442 38.795746,108.491501 38.035599,107.931015 37.475128C107.370544 36.914642,106.610397 36.599701,105.817703 36.599701C105.025009 36.599701,104.264862 36.914642,103.704391 37.475128C103.143906 38.035599,102.828964 38.795746,102.828964 39.588440C102.828964 40.381134,103.143906 41.141281,103.704391 41.701752C104.264862 42.262238,105.025009 42.577179,105.817703 42.577179C106.610397 42.577179,107.370544 42.262238,107.931015 41.701752C108.491501 41.141281,108.806442 40.381134,108.806442 39.588440Z" style="fill: rgb(100.000000%,100.000000%,100.000000%);stroke: none;"></path>
  <path d="M99.308365 12.376755C99.308365 11.584061,98.993423 10.823914,98.432938 10.263443C97.872467 9.702957,97.112320 9.388016,96.319626 9.388016C95.526932 9.388016,94.766785 9.702957,94.206314 10.263443C93.645828 10.823914,93.330887 11.584061,93.330887 12.376755C93.330887 13.169449,93.645828 13.929596,94.206314 14.490067C94.766785 15.050552,95.526932 15.365494,96.319626 15.365494C97.112320 15.365494,97.872467 15.050552,98.432938 14.490067C98.993423 13.929596,99.308365 13.169449,99.308365 12.376755Z" style="fill: rgb(100.000000%,100.000000%,100.000000%);stroke: none;"></path>
  <path d="M93.082153 75.703842C93.082153 74.911148,92.767212 74.151001,92.206726 73.590530C91.646255 73.030045,90.886108 72.715103,90.093414 72.715103C89.300720 72.715103,88.540573 73.030045,87.980103 73.590530C87.419617 74.151001,87.104675 74.911148,87.104675 75.703842C87.104675 76.496536,87.419617 77.256683,87.980103 77.817154C88.540573 78.377640,89.300720 78.692581,90.093414 78.692581C90.886108 78.692581,91.646255 78.377640,92.206726 77.817154C92.767212 77.256683,93.082153 76.496536,93.082153 75.703842Z" style="fill: rgb(100.000000%,100.000000%,100.000000%);stroke: none;"></path>
  <path d="M102.977203 53.721024C102.977203 52.928329,102.662262 52.168182,102.101776 51.607712C101.541306 51.047226,100.781158 50.732285,99.988464 50.732285C99.195770 50.732285,98.435623 51.047226,97.875153 51.607712C97.314667 52.168182,96.999725 52.928329,96.999725 53.721024C96.999725 54.513718,97.314667 55.273865,97.875153 55.834335C98.435623 56.394821,99.195770 56.709763,99.988464 56.709763C100.781158 56.709763,101.541306 56.394821,102.101776 55.834335C102.662262 55.273865,102.977203 54.513718,102.977203 53.721024Z" style="fill: rgb(100.000000%,100.000000%,100.000000%);stroke: none;"></path>
  <path d="M82.838837 98.878555C82.838837 98.085861,82.523895 97.325714,81.963409 96.765244C81.402939 96.204758,80.642792 95.889816,79.850098 95.889816C79.057404 95.889816,78.297256 96.204758,77.736786 96.765244C77.176300 97.325714,76.861359 98.085861,76.861359 98.878555C76.861359 99.671249,77.176300 100.431396,77.736786 100.991867C78.297256 101.552353,79.057404 101.867294,79.850098 101.867294C80.642792 101.867294,81.402939 101.552353,81.963409 100.991867C82.523895 100.431396,82.838837 99.671249,82.838837 98.878555Z" style="fill: rgb(100.000000%,100.000000%,100.000000%);stroke: none;"></path>
  <path d="M89.085571 84.585007C89.085571 83.792313,88.770630 83.032166,88.210144 82.471695C87.649673 81.911209,86.889526 81.596268,86.096832 81.596268C85.304138 81.596268,84.543991 81.911209,83.983521 82.471695C83.423035 83.032166,83.108093 83.792313,83.108093 84.585007C83.108093 85.377701,83.423035 86.137848,83.983521 86.698318C84.543991 87.258804,85.304138 87.573746,86.096832 87.573746C86.889526 87.573746,87.649673 87.258804,88.210144 86.698318C88.770630 86.137848,89.085571 85.377701,89.085571 84.585007Z" style="fill: rgb(100.000000%,100.000000%,100.000000%);stroke: none;"></path>
  <path d="M80.031784 114.945084C80.031784 114.152390,79.716843 113.392242,79.156357 112.831772C78.595886 112.271286,77.835739 111.956345,77.043045 111.956345C76.250351 111.956345,75.490204 112.271286,74.929733 112.831772C74.369247 113.392242,74.054306 114.152390,74.054306 114.945084C74.054306 115.737778,74.369247 116.497925,74.929733 117.058395C75.490204 117.618881,76.250351 117.933823,77.043045 117.933823C77.835739 117.933823,78.595886 117.618881,79.156357 117.058395C79.716843 116.497925,80.031784 115.737778,80.031784 114.945084Z" style="fill: rgb(100.000000%,100.000000%,100.000000%);stroke: none;"></path>
  <path d="M80.505951 104.361938C80.505951 103.569244,80.191010 102.809097,79.630524 102.248627C79.070053 101.688141,78.309906 101.373199,77.517212 101.373199C76.724518 101.373199,75.964371 101.688141,75.403900 102.248627C74.843414 102.809097,74.528473 103.569244,74.528473 104.361938C74.528473 105.154633,74.843414 105.914780,75.403900 106.475250C75.964371 107.035736,76.724518 107.350677,77.517212 107.350677C78.309906 107.350677,79.070053 107.035736,79.630524 106.475250C80.191010 105.914780,80.505951 105.154633,80.505951 104.361938Z" style="fill: rgb(100.000000%,100.000000%,100.000000%);stroke: none;"></path>
  <path d="M83.778900 127.112686C83.778900 126.319992,83.463959 125.559845,82.903473 124.999374C82.343002 124.438889,81.582855 124.123947,80.790161 124.123947C79.997467 124.123947,79.237320 124.438889,78.676849 124.999374C78.116364 125.559845,77.801422 126.319992,77.801422 127.112686C77.801422 127.905380,78.116364 128.665527,78.676849 129.225998C79.237320 129.786484,79.997467 130.101425,80.790161 130.101425C81.582855 130.101425,82.343002 129.786484,82.903473 129.225998C83.463959 128.665527,83.778900 127.905380,83.778900 127.112686Z" style="fill: rgb(100.000000%,100.000000%,100.000000%);stroke: none;"></path>
  <path d="M81.184799 119.578156C81.184799 118.785461,80.869858 118.025314,80.309372 117.464844C79.748901 116.904358,78.988754 116.589417,78.196060 116.589417C77.403366 116.589417,76.643219 116.904358,76.082748 117.464844C75.522263 118.025314,75.207321 118.785461,75.207321 119.578156C75.207321 120.370850,75.522263 121.130997,76.082748 121.691467C76.643219 122.251953,77.403366 122.566895,78.196060 122.566895C78.988754 122.566895,79.748901 122.251953,80.309372 121.691467C80.869858 121.130997,81.184799 120.370850,81.184799 119.578156Z" style="fill: rgb(100.000000%,100.000000%,100.000000%);stroke: none;"></path>
  <path d="M80.729095 135.582993C80.729095 134.790298,80.414154 134.030151,79.853668 133.469681C79.293198 132.909195,78.533051 132.594254,77.740356 132.594254C76.947662 132.594254,76.187515 132.909195,75.627045 133.469681C75.066559 134.030151,74.751617 134.790298,74.751617 135.582993C74.751617 136.375687,75.066559 137.135834,75.627045 137.696304C76.187515 138.256790,76.947662 138.571732,77.740356 138.571732C78.533051 138.571732,79.293198 138.256790,79.853668 137.696304C80.414154 137.135834,80.729095 136.375687,80.729095 135.582993Z" style="fill: rgb(100.000000%,100.000000%,100.000000%);stroke: none;"></path>
  <path d="M84.834930 130.539932C84.834930 129.747238,84.519989 128.987091,83.959503 128.426620C83.399033 127.866135,82.638885 127.551193,81.846191 127.551193C81.053497 127.551193,80.293350 127.866135,79.732880 128.426620C79.172394 128.987091,78.857452 129.747238,78.857452 130.539932C78.857452 131.332626,79.172394 132.092773,79.732880 132.653244C80.293350 133.213730,81.053497 133.528671,81.846191 133.528671C82.638885 133.528671,83.399033 133.213730,83.959503 132.653244C84.519989 132.092773,84.834930 131.332626,84.834930 130.539932Z" style="fill: rgb(100.000000%,100.000000%,100.000000%);stroke: none;"></path>
  <path d="M69.246002 133.751343C69.246002 132.958649,68.931061 132.198502,68.370575 131.638031C67.810104 131.077545,67.049957 130.762604,66.257263 130.762604C65.464569 130.762604,64.704422 131.077545,64.143951 131.638031C63.583466 132.198502,63.268524 132.958649,63.268524 133.751343C63.268524 134.544037,63.583466 135.304184,64.143951 135.864655C64.704422 136.425140,65.464569 136.740082,66.257263 136.740082C67.049957 136.740082,67.810104 136.425140,68.370575 135.864655C68.931061 135.304184,69.246002 134.544037,69.246002 133.751343Z" style="fill: rgb(100.000000%,100.000000%,100.000000%);stroke: none;"></path>
  <path d="M76.988007 135.113052C76.988007 134.320358,76.673065 133.560211,76.112579 132.999741C75.552109 132.439255,74.791962 132.124313,73.999268 132.124313C73.206573 132.124313,72.446426 132.439255,71.885956 132.999741C71.325470 133.560211,71.010529 134.320358,71.010529 135.113052C71.010529 135.905746,71.325470 136.665894,71.885956 137.226364C72.446426 137.786850,73.206573 138.101791,73.999268 138.101791C74.791962 138.101791,75.552109 137.786850,76.112579 137.226364C76.673065 136.665894,76.988007 135.905746,76.988007 135.113052Z" style="fill: rgb(100.000000%,100.000000%,100.000000%);stroke: none;"></path>
  <path d="M51.495178 138.857788C51.495178 138.065094,51.180237 137.304947,50.619751 136.744476C50.059280 136.183990,49.299133 135.869049,48.506439 135.869049C47.713745 135.869049,46.953598 136.183990,46.393127 136.744476C45.832642 137.304947,45.517700 138.065094,45.517700 138.857788C45.517700 139.650482,45.832642 140.410629,46.393127 140.971100C46.953598 141.531586,47.713745 141.846527,48.506439 141.846527C49.299133 141.846527,50.059280 141.531586,50.619751 140.971100C51.180237 140.410629,51.495178 139.650482,51.495178 138.857788Z" style="fill: rgb(100.000000%,100.000000%,100.000000%);stroke: none;"></path>
  <path d="M64.673065 133.315521C64.673065 132.522827,64.358124 131.762680,63.797638 131.202209C63.237167 130.641724,62.477020 130.326782,61.684326 130.326782C60.891632 130.326782,60.131485 130.641724,59.571014 131.202209C59.010529 131.762680,58.695587 132.522827,58.695587 133.315521C58.695587 134.108215,59.010529 134.868362,59.571014 135.428833C60.131485 135.989319,60.891632 136.304260,61.684326 136.304260C62.477020 136.304260,63.237167 135.989319,63.797638 135.428833C64.358124 134.868362,64.673065 134.108215,64.673065 133.315521Z" style="fill: rgb(100.000000%,100.000000%,100.000000%);stroke: none;"></path>
  <path d="M60.640137 175.605728C60.640137 174.813034,60.325195 174.052887,59.764709 173.492416C59.204239 172.931931,58.444092 172.616989,57.651398 172.616989C56.858704 172.616989,56.098557 172.931931,55.538086 173.492416C54.977600 174.052887,54.662659 174.813034,54.662659 175.605728C54.662659 176.398422,54.977600 177.158569,55.538086 177.719040C56.098557 178.279526,56.858704 178.594467,57.651398 178.594467C58.444092 178.594467,59.204239 178.279526,59.764709 177.719040C60.325195 177.158569,60.640137 176.398422,60.640137 175.605728Z" style="fill: rgb(100.000000%,100.000000%,100.000000%);stroke: none;"></path>
  <path d="M48.446960 150.052399C48.446960 149.259705,48.132019 148.499557,47.571533 147.939087C47.011063 147.378601,46.250916 147.063660,45.458221 147.063660C44.665527 147.063660,43.905380 147.378601,43.344910 147.939087C42.784424 148.499557,42.469482 149.259705,42.469482 150.052399C42.469482 150.845093,42.784424 151.605240,43.344910 152.165710C43.905380 152.726196,44.665527 153.041138,45.458221 153.041138C46.250916 153.041138,47.011063 152.726196,47.571533 152.165710C48.132019 151.605240,48.446960 150.845093,48.446960 150.052399Z" style="fill: rgb(100.000000%,100.000000%,100.000000%);stroke: none;"></path>
  <path d="M94.747940 182.966797C114.371902 193.176926,138.452103 183.129868,145.000000 162.000000C148.198257 151.679337,145.929810 140.750000,145.399887 130.001373C145.115341 124.229782,145.345306 118.442764,145.000000 112.674255C144.658371 106.966919,143.851944 100.972733,146.766739 96.032745C152.662079 86.041351,167.023407 86.406754,176.989075 94.612305C189.444839 104.868149,192.972656 122.269196,187.032623 137.414429C180.291489 154.602234,162.914139 165.433060,145.000000 162.000000C132.418655 159.588913,122.569031 150.347198,116.533463 138.990097C113.166443 132.654388,111.006454 125.781982,109.059616 118.880661C107.336685 112.773056,105.651596 106.429077,101.204819 101.878525C96.250961 96.809067,89.079910 95.134552,82.196823 93.508865C72.873306 91.306793,63.584549 88.889374,54.093124 87.571625C40.379288 85.667648,25.549164 85.641861,15.175949 76.374222C5.130341 67.399261,2.609482 52.752213,8.505280 40.575897C14.270813 28.668594,27.114288 21.625534,39.636795 25.108185C49.791595 27.932343,57.039856 37.739731,67.644257 38.746597C79.976761 39.917542,89.318756 28.998047,101.092834 26.051819C120.248398 21.258499,136.595200 36.366928,151.438934 49.903763C165.261642 62.509476,180.481033 76.640869,176.989075 94.612305C175.195587 103.842529,168.219650 111.260864,159.031326 113.107224C154.401566 114.037552,149.662308 113.373428,145.000000 112.674255C138.891052 111.758148,132.699265 110.789001,126.606903 111.871078C120.363586 112.979950,114.768829 116.149643,109.059616 118.880661C104.175903 121.216797,99.121872 123.257996,93.777802 124.147018C89.127625 124.920609,84.383514 124.798309,79.732117 124.039627C76.251541 123.471909,72.361694 122.901108,70.243271 125.601349C68.282059 128.101212,69.412003 131.506638,70.642960 134.522720C72.222961 138.394058,73.678177 142.461563,72.993500 146.593643C71.356735 156.471756,60.432983 161.379974,49.873413 159.305359C33.320984 156.053345,23.823654 140.261551,16.628876 124.764694C9.034988 108.408203,3.651093 89.355560,15.175949 76.374222C22.762894 67.828430,36.505096 65.449493,40.665909 54.477325C44.251236 45.022720,38.046906 34.947617,39.636795 25.108185C41.709625 12.279907,54.420731 4.591568,67.921417 4.439453C82.574982 4.274338,96.319626 12.376755,101.092834 26.051819C105.817703 39.588440,99.988464 53.721024,94.090820 66.823212C90.093414 75.703842,86.096832 84.585007,82.196823 93.508865C79.850098 98.878555,77.517212 104.361938,77.254456 110.226669C77.043045 114.945084,78.196060 119.578156,79.732117 124.039627C80.790161 127.112686,81.846191 130.539932,79.836121 133.008835C77.740356 135.582993,73.999268 135.113052,70.642960 134.522720C66.257263 133.751343,61.684326 133.315521,57.574600 135.043961C48.506439 138.857788,45.458221 150.052399,49.873413 159.305359C57.651398 175.605728,79.198273 174.876480,94.747940 182.966797" style="stroke:rgb(0.000000%,0.000000%,0.000000%); stroke-width: 0.498138;stroke-linecap: round;stroke-linejoin: round;stroke-miterlimit: 10.000000;fill: none;"></path>
  <path d="M94.747940 182.966797C114.371902 193.176926,138.452103 183.129868,145.000000 162.000000C148.198257 151.679337,145.929810 140.750000,145.399887 130.001373C145.115341 124.229782,145.345306 118.442764,145.000000 112.674255" style="stroke:rgb(0.000000%,0.000000%,0.000000%); stroke-width: 1.494400;stroke-linecap: round;stroke-linejoin: round;stroke-miterlimit: 10.000000;fill: none;"></path>
  <path d="M49.873413 159.305359C57.651398 175.605728,79.198273 174.876480,94.747940 182.966797" style="stroke:rgb(0.000000%,0.000000%,0.000000%); stroke-width: 1.494400;stroke-linecap: round;stroke-linejoin: round;stroke-miterlimit: 10.000000;fill: none;"></path>
  <path d="M147.988739 162.000000C147.988739 161.207306,147.673798 160.447159,147.113312 159.886688C146.552841 159.326202,145.792694 159.011261,145.000000 159.011261C144.207306 159.011261,143.447159 159.326202,142.886688 159.886688C142.326202 160.447159,142.011261 161.207306,142.011261 162.000000C142.011261 162.792694,142.326202 163.552841,142.886688 164.113312C143.447159 164.673798,144.207306 164.988739,145.000000 164.988739C145.792694 164.988739,146.552841 164.673798,147.113312 164.113312C147.673798 163.552841,147.988739 162.792694,147.988739 162.000000Z" style="fill: rgb(100.000000%,100.000000%,100.000000%);stroke: none;"></path>
  <path d="M124.777496 184.235901C134.069031 180.359161,141.726059 172.564926,145.000000 162.000000C146.599136 156.839661,146.831589 151.527161,146.598007 146.161163" style="stroke:rgb(0.000000%,0.000000%,0.000000%); stroke-width: 1.494400;stroke-linecap: round;stroke-linejoin: round;stroke-miterlimit: 10.000000;fill: none;"></path>
  <path d="M179.977814 94.612305C179.977814 93.819611,179.662872 93.059464,179.102386 92.498993C178.541916 91.938507,177.781769 91.623566,176.989075 91.623566C176.196381 91.623566,175.436234 91.938507,174.875763 92.498993C174.315277 93.059464,174.000336 93.819611,174.000336 94.612305C174.000336 95.404999,174.315277 96.165146,174.875763 96.725616C175.436234 97.286102,176.196381 97.601044,176.989075 97.601044C177.781769 97.601044,178.541916 97.286102,179.102386 96.725616C179.662872 96.165146,179.977814 95.404999,179.977814 94.612305Z" style="fill: rgb(100.000000%,100.000000%,100.000000%);stroke: none;"></path>
  <path d="M160.351547 88.498672C165.924500 88.366806,172.006241 90.509537,176.989075 94.612305C183.216965 99.740234,187.212860 106.654465,188.909286 114.179855" style="stroke:rgb(0.000000%,0.000000%,0.000000%); stroke-width: 0.498138;stroke-linecap: round;stroke-linejoin: round;stroke-miterlimit: 10.000000;fill: none;"></path>
  <path d="M112.048355 118.880661C112.048355 118.087967,111.733414 117.327820,111.172928 116.767349C110.612457 116.206863,109.852310 115.891922,109.059616 115.891922C108.266922 115.891922,107.506775 116.206863,106.946304 116.767349C106.385818 117.327820,106.070877 118.087967,106.070877 118.880661C106.070877 119.673355,106.385818 120.433502,106.946304 120.993973C107.506775 121.554459,108.266922 121.869400,109.059616 121.869400C109.852310 121.869400,110.612457 121.554459,111.172928 120.993973C111.733414 120.433502,112.048355 119.673355,112.048355 118.880661Z" style="fill: rgb(100.000000%,100.000000%,100.000000%);stroke: none;"></path>
  <path d="M112.263962 129.147476C111.059738 125.774750,110.033035 122.331314,109.059616 118.880661C108.198151 115.826859,107.346146 112.713959,106.153656 109.795685" style="stroke:rgb(0.000000%,0.000000%,0.000000%); stroke-width: 0.498138;stroke-linecap: round;stroke-linejoin: round;stroke-miterlimit: 10.000000;fill: none;"></path>
  <path d="M18.164688 76.374222C18.164688 75.581528,17.849747 74.821381,17.289261 74.260910C16.728790 73.700424,15.968643 73.385483,15.175949 73.385483C14.383255 73.385483,13.623108 73.700424,13.062637 74.260910C12.502151 74.821381,12.187210 75.581528,12.187210 76.374222C12.187210 77.166916,12.502151 77.927063,13.062637 78.487534C13.623108 79.048019,14.383255 79.362961,15.175949 79.362961C15.968643 79.362961,16.728790 79.048019,17.289261 78.487534C17.849747 77.927063,18.164688 77.166916,18.164688 76.374222Z" style="fill: rgb(100.000000%,100.000000%,100.000000%);stroke: none;"></path>
  <path d="M33.381790 84.734283C26.663376 83.331390,20.362549 81.008041,15.175949 76.374222C10.153137 71.886734,7.011520 65.981232,5.862579 59.675552" style="stroke:rgb(0.000000%,0.000000%,0.000000%); stroke-width: 0.498138;stroke-linecap: round;stroke-linejoin: round;stroke-miterlimit: 10.000000;fill: none;"></path>
  <path d="M104.081573 26.051819C104.081573 25.259125,103.766632 24.498978,103.206146 23.938507C102.645676 23.378021,101.885529 23.063080,101.092834 23.063080C100.300140 23.063080,99.539993 23.378021,98.979523 23.938507C98.419037 24.498978,98.104095 25.259125,98.104095 26.051819C98.104095 26.844513,98.419037 27.604660,98.979523 28.165131C99.539993 28.725616,100.300140 29.040558,101.092834 29.040558C101.885529 29.040558,102.645676 28.725616,103.206146 28.165131C103.766632 27.604660,104.081573 26.844513,104.081573 26.051819Z" style="fill: rgb(100.000000%,100.000000%,100.000000%);stroke: none;"></path>
  <path d="M84.577972 33.943146C89.926788 30.991364,95.205795 27.524933,101.092834 26.051819C110.670624 23.655151,119.546219 26.233932,127.882828 31.103989" style="stroke:rgb(0.000000%,0.000000%,0.000000%); stroke-width: 0.498138;stroke-linecap: round;stroke-linejoin: round;stroke-miterlimit: 10.000000;fill: none;"></path>
  <path d="M147.988739 112.674255C147.988739 111.881561,147.673798 111.121414,147.113312 110.560944C146.552841 110.000458,145.792694 109.685516,145.000000 109.685516C144.207306 109.685516,143.447159 110.000458,142.886688 110.560944C142.326202 111.121414,142.011261 111.881561,142.011261 112.674255C142.011261 113.466949,142.326202 114.227097,142.886688 114.787567C143.447159 115.348053,144.207306 115.662994,145.000000 115.662994C145.792694 115.662994,146.552841 115.348053,147.113312 114.787567C147.673798 114.227097,147.988739 113.466949,147.988739 112.674255Z" style="fill: rgb(100.000000%,100.000000%,100.000000%);stroke: none;"></path>
  <path d="M152.027863 113.501801C149.681534 113.364655,147.331146 113.023834,145.000000 112.674255C141.945526 112.216202,138.870331 111.744888,135.797211 111.523346" style="stroke:rgb(0.000000%,0.000000%,0.000000%); stroke-width: 0.498138;stroke-linecap: round;stroke-linejoin: round;stroke-miterlimit: 10.000000;fill: none;"></path>
  <path d="M82.720856 124.039627C82.720856 123.246933,82.405914 122.486786,81.845428 121.926315C81.284958 121.365829,80.524811 121.050888,79.732117 121.050888C78.939423 121.050888,78.179276 121.365829,77.618805 121.926315C77.058319 122.486786,76.743378 123.246933,76.743378 124.039627C76.743378 124.832321,77.058319 125.592468,77.618805 126.152939C78.179276 126.713425,78.939423 127.028366,79.732117 127.028366C80.524811 127.028366,81.284958 126.713425,81.845428 126.152939C82.405914 125.592468,82.720856 124.832321,82.720856 124.039627Z" style="fill: rgb(100.000000%,100.000000%,100.000000%);stroke: none;"></path>
  <path d="M86.755417 124.667923C84.406693 124.639206,82.057816 124.418961,79.732117 124.039627C77.991821 123.755768,76.149216 123.471130,74.476868 123.595001" style="stroke:rgb(0.000000%,0.000000%,0.000000%); stroke-width: 0.498138;stroke-linecap: round;stroke-linejoin: round;stroke-miterlimit: 10.000000;fill: none;"></path>
  <path d="M52.862152 159.305359C52.862152 158.512665,52.547211 157.752518,51.986725 157.192047C51.426254 156.631561,50.666107 156.316620,49.873413 156.316620C49.080719 156.316620,48.320572 156.631561,47.760101 157.192047C47.199615 157.752518,46.884674 158.512665,46.884674 159.305359C46.884674 160.098053,47.199615 160.858200,47.760101 161.418671C48.320572 161.979156,49.080719 162.294098,49.873413 162.294098C50.666107 162.294098,51.426254 161.979156,51.986725 161.418671C52.547211 160.858200,52.862152 160.098053,52.862152 159.305359Z" style="fill: rgb(100.000000%,100.000000%,100.000000%);stroke: none;"></path>
  <path d="M64.779495 157.431793C60.524017 159.634277,55.153198 160.342667,49.873413 159.305359C41.597198 157.679352,35.084747 152.918396,29.742004 146.626831" style="stroke:rgb(0.000000%,0.000000%,0.000000%); stroke-width: 0.498138;stroke-linecap: round;stroke-linejoin: round;stroke-miterlimit: 10.000000;fill: none;"></path>
  <path d="M42.625534 25.108185C42.625534 24.315491,42.310593 23.555344,41.750107 22.994873C41.189636 22.434387,40.429489 22.119446,39.636795 22.119446C38.844101 22.119446,38.083954 22.434387,37.523483 22.994873C36.962997 23.555344,36.648056 24.315491,36.648056 25.108185C36.648056 25.900879,36.962997 26.661026,37.523483 27.221497C38.083954 27.781982,38.844101 28.096924,39.636795 28.096924C40.429489 28.096924,41.189636 27.781982,41.750107 27.221497C42.310593 26.661026,42.625534 25.900879,42.625534 25.108185Z" style="fill: rgb(100.000000%,100.000000%,100.000000%);stroke: none;"></path>
  <path d="M40.899628 39.937057C39.995453 35.006531,38.841858 30.027893,39.636795 25.108185C40.673218 18.694046,44.369202 13.564880,49.493668 10.020248" style="stroke:rgb(0.000000%,0.000000%,0.000000%); stroke-width: 0.498138;stroke-linecap: round;stroke-linejoin: round;stroke-miterlimit: 10.000000;fill: none;"></path>
  <path d="M85.185562 93.508865C85.185562 92.716171,84.870621 91.956024,84.310135 91.395554C83.749664 90.835068,82.989517 90.520126,82.196823 90.520126C81.404129 90.520126,80.643982 90.835068,80.083511 91.395554C79.523026 91.956024,79.208084 92.716171,79.208084 93.508865C79.208084 94.301559,79.523026 95.061707,80.083511 95.622177C80.643982 96.182663,81.404129 96.497604,82.196823 96.497604C82.989517 96.497604,83.749664 96.182663,84.310135 95.622177C84.870621 95.061707,85.185562 94.301559,85.185562 93.508865Z" style="fill: rgb(100.000000%,100.000000%,100.000000%);stroke: none;"></path>
  <path d="M88.107285 80.149841C86.120972 84.595688,84.146820 89.046936,82.196823 93.508865C81.023453 96.193710,79.853546 98.906982,78.944138 101.682144" style="stroke:rgb(0.000000%,0.000000%,0.000000%); stroke-width: 0.498138;stroke-linecap: round;stroke-linejoin: round;stroke-miterlimit: 10.000000;fill: none;"></path>
  <path d="M73.631699 134.522720C73.631699 133.730026,73.316757 132.969879,72.756271 132.409409C72.195801 131.848923,71.435654 131.533981,70.642960 131.533981C69.850266 131.533981,69.090118 131.848923,68.529648 132.409409C67.969162 132.969879,67.654221 133.730026,67.654221 134.522720C67.654221 135.315414,67.969162 136.075562,68.529648 136.636032C69.090118 137.196518,69.850266 137.511459,70.642960 137.511459C71.435654 137.511459,72.195801 137.196518,72.756271 136.636032C73.316757 136.075562,73.631699 135.315414,73.631699 134.522720Z" style="fill: rgb(100.000000%,100.000000%,100.000000%);stroke: none;"></path>
  <path d="M75.712234 134.952469C74.095459 135.082947,72.321106 134.817886,70.642960 134.522720C68.450104 134.137024,66.210449 133.835220,64.005280 133.845917" style="stroke:rgb(0.000000%,0.000000%,0.000000%); stroke-width: 0.498138;stroke-linecap: round;stroke-linejoin: round;stroke-miterlimit: 10.000000;fill: none;"></path>
  <path d="M145.399887 130.001373C145.172256 125.384079,145.273911 120.756912,145.146866 116.137253" style="stroke:rgb(0.000000%,0.000000%,0.000000%); stroke-width: 0.498138;stroke-linecap: round;stroke-linejoin: round;stroke-miterlimit: 10.000000;fill: none;"></path>
  <path d="M147.128815 120.727585C146.479355 119.192368,145.826645 117.658676,145.146866 116.137253C144.551712 117.693741,143.928726 119.239731,143.302368 120.784531Z" style="stroke:rgb(0.000000%,0.000000%,0.000000%); stroke-width: 0.498138;fill: rgb(0.000000%,0.000000%,0.000000%);"></path>
  <path d="M145.399887 130.001373C145.172256 125.384079,145.273911 120.756912,145.146866 116.137253" style="stroke:rgb(0.000000%,0.000000%,0.000000%); stroke-width: 0.498138;stroke-linecap: round;stroke-linejoin: round;stroke-miterlimit: 10.000000;fill: none;"></path>
  <path d="M146.346512 118.887024C145.952942 117.967575,145.554779 117.050201,145.146866 116.137253C144.789734 117.071228,144.422577 118.001450,144.050705 118.929871Z" style="stroke:rgb(0.000000%,0.000000%,0.000000%); stroke-width: 0.498138;fill: rgb(0.000000%,0.000000%,0.000000%);"></path>
  <path d="M146.766739 96.032745C151.483032 88.039597,161.617599 86.674850,170.585190 90.649979" style="stroke:rgb(0.000000%,0.000000%,0.000000%); stroke-width: 0.498138;stroke-linecap: round;stroke-linejoin: round;stroke-miterlimit: 10.000000;fill: none;"></path>
  <path d="M167.586533 90.745956C168.570969 90.657593,169.572937 90.625122,170.585190 90.649979C169.886993 89.916626,169.155563 89.231079,168.396988 88.597427Z" style="stroke:rgb(0.000000%,0.000000%,0.000000%); stroke-width: 0.498138;fill: rgb(0.000000%,0.000000%,0.000000%);"></path>
  <path d="M101.204819 101.878525C97.241714 97.822937,91.859604 95.940140,86.341125 94.516891" style="stroke:rgb(0.000000%,0.000000%,0.000000%); stroke-width: 0.498138;stroke-linecap: round;stroke-linejoin: round;stroke-miterlimit: 10.000000;fill: none;"></path>
  <path d="M89.318939 94.152054C88.326706 94.251419,87.333145 94.376785,86.341125 94.516891C87.141647 95.119308,87.932846 95.733231,88.704712 96.364578Z" style="stroke:rgb(0.000000%,0.000000%,0.000000%); stroke-width: 0.498138;fill: rgb(0.000000%,0.000000%,0.000000%);"></path>
  <path d="M8.505280 40.575897C13.117722 31.050018,22.260086 24.637268,32.144089 24.236374" style="stroke:rgb(0.000000%,0.000000%,0.000000%); stroke-width: 0.498138;stroke-linecap: round;stroke-linejoin: round;stroke-miterlimit: 10.000000;fill: none;"></path>
  <path d="M29.503448 25.660461C30.351181 25.134277,31.232239 24.658142,32.144089 24.236374C31.201080 23.889832,30.241409 23.603485,29.269897 23.376099Z" style="stroke:rgb(0.000000%,0.000000%,0.000000%); stroke-width: 0.498138;fill: rgb(0.000000%,0.000000%,0.000000%);"></path>
  <path d="M67.644257 38.746597C77.510300 39.683350,85.462387 32.882172,94.276947 28.615784" style="stroke:rgb(0.000000%,0.000000%,0.000000%); stroke-width: 0.498138;stroke-linecap: round;stroke-linejoin: round;stroke-miterlimit: 10.000000;fill: none;"></path>
  <path d="M92.336487 30.903534C92.969559 30.126038,93.614090 29.360474,94.276947 28.615784C93.281662 28.673645,92.284561 28.759186,91.287140 28.861298Z" style="stroke:rgb(0.000000%,0.000000%,0.000000%); stroke-width: 0.498138;fill: rgb(0.000000%,0.000000%,0.000000%);"></path>
  <path d="M126.606903 111.871078C121.612228 112.758179,117.032639 114.964218,112.477463 117.209442" style="stroke:rgb(0.000000%,0.000000%,0.000000%); stroke-width: 0.498138;stroke-linecap: round;stroke-linejoin: round;stroke-miterlimit: 10.000000;fill: none;"></path>
  <path d="M114.467453 114.964584C113.798325 115.706558,113.137177 116.457474,112.477463 117.209442C113.475677 117.144211,114.474167 117.080765,115.471970 117.029282Z" style="stroke:rgb(0.000000%,0.000000%,0.000000%); stroke-width: 0.498138;fill: rgb(0.000000%,0.000000%,0.000000%);"></path>
  <path d="M70.243271 125.601349C68.674301 127.601242,69.083679 130.180710,69.940445 132.676743" style="stroke:rgb(0.000000%,0.000000%,0.000000%); stroke-width: 0.498138;stroke-linecap: round;stroke-linejoin: round;stroke-miterlimit: 10.000000;fill: none;"></path>
  <path d="M68.171494 130.253784C68.637543 131.098053,69.260056 131.906235,69.940445 132.676743C70.004196 131.650803,70.135498 130.639160,70.402939 129.712616Z" style="stroke:rgb(0.000000%,0.000000%,0.000000%); stroke-width: 0.498138;fill: rgb(0.000000%,0.000000%,0.000000%);"></path>
  <path d="M72.993500 146.593643C71.684082 154.496170,64.430954 159.217926,56.175552 159.728287" style="stroke:rgb(0.000000%,0.000000%,0.000000%); stroke-width: 0.498138;stroke-linecap: round;stroke-linejoin: round;stroke-miterlimit: 10.000000;fill: none;"></path>
  <path d="M58.782242 158.242981C57.956467 158.787140,57.085007 159.283981,56.175552 159.728287C57.132797 160.057205,58.100327 160.322113,59.069016 160.521271Z" style="stroke:rgb(0.000000%,0.000000%,0.000000%); stroke-width: 0.498138;fill: rgb(0.000000%,0.000000%,0.000000%);"></path>
  <path d="M40.665909 54.477325C43.534180 46.913620,40.137024 38.952774,39.477493 31.033173" style="stroke:rgb(0.000000%,0.000000%,0.000000%); stroke-width: 0.498138;stroke-linecap: round;stroke-linejoin: round;stroke-miterlimit: 10.000000;fill: none;"></path>
  <path d="M40.949234 33.647507C40.429825 32.787933,39.933685 31.918472,39.477493 31.033173C39.174042 31.981735,38.910049 32.947357,38.669510 33.922440Z" style="stroke:rgb(0.000000%,0.000000%,0.000000%); stroke-width: 0.498138;fill: rgb(0.000000%,0.000000%,0.000000%);"></path>
  <path d="M77.254456 110.226669C77.085327 114.001419,77.789429 117.721542,78.864304 121.342880" style="stroke:rgb(0.000000%,0.000000%,0.000000%); stroke-width: 0.498138;stroke-linecap: round;stroke-linejoin: round;stroke-miterlimit: 10.000000;fill: none;"></path>
  <path d="M77.045425 118.957047C77.624313 119.770584,78.233612 120.564926,78.864304 121.342880C78.968445 120.346817,79.099319 119.354294,79.265274 118.369705Z" style="stroke:rgb(0.000000%,0.000000%,0.000000%); stroke-width: 0.498138;fill: rgb(0.000000%,0.000000%,0.000000%);"></path>
  <path d="M79.836121 133.008835C78.159500 135.068176,75.429871 135.179276,72.686646 134.839081" style="stroke:rgb(0.000000%,0.000000%,0.000000%); stroke-width: 0.498138;stroke-linecap: round;stroke-linejoin: round;stroke-miterlimit: 10.000000;fill: none;"></path>
  <path d="M75.500412 133.798676C74.640427 134.235931,73.676315 134.565918,72.686646 134.839081C73.579605 135.345734,74.494644 135.794159,75.411942 136.093079Z" style="stroke:rgb(0.000000%,0.000000%,0.000000%); stroke-width: 0.498138;fill: rgb(0.000000%,0.000000%,0.000000%);"></path>
  <path d="M91.757294 185.677002L97.738586 185.677002L97.738586 178.256607L91.757294 178.256607Z" style="fill: rgb(100.000000%,100.000000%,100.000000%);stroke: none;"></path>
  <path d="M91.757294 187.677002L97.738586 187.677002L97.738586 180.256607L91.757294 180.256607Z" style="fill: rgb(100.000000%,100.000000%,100.000000%);stroke: none;"></path>
  <g transform="translate(92.257294 186.177002)" style="fill: rgb(0.000000%,0.000000%,0.000000%);">
    <use xlink:href="#GLYPHcmr10_49"></use>
  </g>
  <path d="M184.041977 140.124634L190.023270 140.124634L190.023270 132.704239L184.041977 132.704239Z" style="fill: rgb(100.000000%,100.000000%,100.000000%);stroke: none;"></path>
  <path d="M184.041977 142.124634L190.023270 142.124634L190.023270 134.704239L184.041977 134.704239Z" style="fill: rgb(100.000000%,100.000000%,100.000000%);stroke: none;"></path>
  <g transform="translate(184.541977 140.624634)" style="fill: rgb(0.000000%,0.000000%,0.000000%);">
    <use xlink:href="#GLYPHcmr10_50"></use>
  </g>
  <path d="M113.542816 141.700302L119.524109 141.700302L119.524109 134.279907L113.542816 134.279907Z" style="fill: rgb(100.000000%,100.000000%,100.000000%);stroke: none;"></path>
  <path d="M113.542816 143.700302L119.524109 143.700302L119.524109 136.279907L113.542816 136.279907Z" style="fill: rgb(100.000000%,100.000000%,100.000000%);stroke: none;"></path>
  <g transform="translate(114.042816 142.200302)" style="fill: rgb(0.000000%,0.000000%,0.000000%);">
    <use xlink:href="#GLYPHcmr10_51"></use>
  </g>
  <path d="M51.102478 90.281830L57.083771 90.281830L57.083771 82.861435L51.102478 82.861435Z" style="fill: rgb(100.000000%,100.000000%,100.000000%);stroke: none;"></path>
  <path d="M51.102478 92.281830L57.083771 92.281830L57.083771 84.861435L51.102478 84.861435Z" style="fill: rgb(100.000000%,100.000000%,100.000000%);stroke: none;"></path>
  <g transform="translate(51.602478 90.781830)" style="fill: rgb(0.000000%,0.000000%,0.000000%);">
    <use xlink:href="#GLYPHcmr10_52"></use>
  </g>
  <path d="M148.448288 52.613968L154.429581 52.613968L154.429581 45.193573L148.448288 45.193573Z" style="fill: rgb(100.000000%,100.000000%,100.000000%);stroke: none;"></path>
  <path d="M148.448288 54.613968L154.429581 54.613968L154.429581 47.193573L148.448288 47.193573Z" style="fill: rgb(100.000000%,100.000000%,100.000000%);stroke: none;"></path>
  <g transform="translate(148.948288 53.113968)" style="fill: rgb(0.000000%,0.000000%,0.000000%);">
    <use xlink:href="#GLYPHcmr10_53"></use>
  </g>
  <path d="M156.040680 115.817429L162.021973 115.817429L162.021973 108.397034L156.040680 108.397034Z" style="fill: rgb(100.000000%,100.000000%,100.000000%);stroke: none;"></path>
  <path d="M156.040680 117.817429L162.021973 117.817429L162.021973 110.397034L156.040680 110.397034Z" style="fill: rgb(100.000000%,100.000000%,100.000000%);stroke: none;"></path>
  <g transform="translate(156.540680 116.317429)" style="fill: rgb(0.000000%,0.000000%,0.000000%);">
    <use xlink:href="#GLYPHcmr10_54"></use>
  </g>
  <path d="M90.787155 126.857224L96.768448 126.857224L96.768448 119.436829L90.787155 119.436829Z" style="fill: rgb(100.000000%,100.000000%,100.000000%);stroke: none;"></path>
  <path d="M90.787155 128.857224L96.768448 128.857224L96.768448 121.436829L90.787155 121.436829Z" style="fill: rgb(100.000000%,100.000000%,100.000000%);stroke: none;"></path>
  <g transform="translate(91.287155 127.357224)" style="fill: rgb(0.000000%,0.000000%,0.000000%);">
    <use xlink:href="#GLYPHcmr10_55"></use>
  </g>
  <path d="M13.638229 127.474899L19.619522 127.474899L19.619522 120.054504L13.638229 120.054504Z" style="fill: rgb(100.000000%,100.000000%,100.000000%);stroke: none;"></path>
  <path d="M13.638229 129.474899L19.619522 129.474899L19.619522 122.054504L13.638229 122.054504Z" style="fill: rgb(100.000000%,100.000000%,100.000000%);stroke: none;"></path>
  <g transform="translate(14.138229 127.974899)" style="fill: rgb(0.000000%,0.000000%,0.000000%);">
    <use xlink:href="#GLYPHcmr10_56"></use>
  </g>
  <path d="M64.930771 7.149658L70.912064 7.149658L70.912064 -0.270737L64.930771 -0.270737Z" style="fill: rgb(100.000000%,100.000000%,100.000000%);stroke: none;"></path>
  <path d="M64.930771 9.149658L70.912064 9.149658L70.912064 1.729263L64.930771 1.729263Z" style="fill: rgb(100.000000%,100.000000%,100.000000%);stroke: none;"></path>
  <g transform="translate(65.430771 7.649658)" style="fill: rgb(0.000000%,0.000000%,0.000000%);">
    <use xlink:href="#GLYPHcmr10_57"></use>
  </g>
  <path d="M88.609467 69.533417L99.572174 69.533417L99.572174 62.113022L88.609467 62.113022Z" style="fill: rgb(100.000000%,100.000000%,100.000000%);stroke: none;"></path>
  <path d="M88.609467 71.533417L99.572174 71.533417L99.572174 64.113022L88.609467 64.113022Z" style="fill: rgb(100.000000%,100.000000%,100.000000%);stroke: none;"></path>
  <g transform="translate(89.109467 70.033417)" style="fill: rgb(0.000000%,0.000000%,0.000000%);">
    <use xlink:href="#GLYPHcmr10_49"></use>
    <use xlink:href="#GLYPHcmr10_48" x="5.000095"></use>
  </g>
  <path d="M52.093246 137.754166L63.055954 137.754166L63.055954 130.333771L52.093246 130.333771Z" style="fill: rgb(100.000000%,100.000000%,100.000000%);stroke: none;"></path>
  <path d="M52.093246 139.754166L63.055954 139.754166L63.055954 132.333771L52.093246 132.333771Z" style="fill: rgb(100.000000%,100.000000%,100.000000%);stroke: none;"></path>
  <g transform="translate(52.593246 138.254166)" style="fill: rgb(0.000000%,0.000000%,0.000000%);">
    <use xlink:href="#GLYPHcmr10_49"></use>
    <use xlink:href="#GLYPHcmr10_49" x="5.000095"></use>
  </g>
</svg>
