<?xml version="1.0"?>
<!-- Created by MetaPost 1.999 on 2021.07.06:0010 -->
<svg version="1.1" xmlns="http://www.w3.org/2000/svg" xmlns:xlink="http://www.w3.org/1999/xlink" width="191.157227" height="195.878464" viewBox="0 0 191.157227 195.878464">
<!-- Original BoundingBox: -77.702560 -129.340805 113.454666 66.537659 -->
  <defs>
    <g transform="scale(0.009963,0.009963)" id="GLYPHcmr10_48">
      <path style="fill-rule: evenodd;" d="M460.000000 -320.000000C460.000000 -400.000000,455.000000 -480.000000,420.000000 -554.000000C374.000000 -650.000000,292.000000 -666.000000,250.000000 -666.000000C190.000000 -666.000000,117.000000 -640.000000,76.000000 -547.000000C44.000000 -478.000000,39.000000 -400.000000,39.000000 -320.000000C39.000000 -245.000000,43.000000 -155.000000,84.000000 -79.000000C127.000000 2.000000,200.000000 22.000000,249.000000 22.000000C303.000000 22.000000,379.000000 1.000000,423.000000 -94.000000C455.000000 -163.000000,460.000000 -241.000000,460.000000 -320.000000M249.000000 -0.000000C210.000000 -0.000000,151.000000 -25.000000,133.000000 -121.000000C122.000000 -181.000000,122.000000 -273.000000,122.000000 -332.000000C122.000000 -396.000000,122.000000 -462.000000,130.000000 -516.000000C149.000000 -635.000000,224.000000 -644.000000,249.000000 -644.000000C282.000000 -644.000000,348.000000 -626.000000,367.000000 -527.000000C377.000000 -471.000000,377.000000 -395.000000,377.000000 -332.000000C377.000000 -257.000000,377.000000 -189.000000,366.000000 -125.000000C351.000000 -30.000000,294.000000 -0.000000,249.000000 -0.000000"></path>
    </g>
    <g transform="scale(0.009963,0.009963)" id="GLYPHcmr10_49">
      <path style="fill-rule: evenodd;" d="M294.000000 -640.000000C294.000000 -664.000000,294.000000 -666.000000,271.000000 -666.000000C209.000000 -602.000000,121.000000 -602.000000,89.000000 -602.000000L89.000000 -571.000000C109.000000 -571.000000,168.000000 -571.000000,220.000000 -597.000000L220.000000 -79.000000C220.000000 -43.000000,217.000000 -31.000000,127.000000 -31.000000L95.000000 -31.000000L95.000000 -0.000000L257.000000 -0.000000L130.000000 -3.000000L217.000000 -3.000000L257.000000 -3.000000L297.000000 -3.000000L384.000000 -3.000000L419.000000 -0.000000L419.000000 -31.000000L387.000000 -31.000000C297.000000 -31.000000,294.000000 -42.000000,294.000000 -79.000000"></path>
    </g>
    <g transform="scale(0.009963,0.009963)" id="GLYPHcmr10_50">
      <path style="fill-rule: evenodd;" d="M127.000000 -77.000000L233.000000 -180.000000C389.000000 -318.000000,449.000000 -372.000000,449.000000 -472.000000C449.000000 -586.000000,359.000000 -666.000000,237.000000 -666.000000C124.000000 -666.000000,50.000000 -574.000000,50.000000 -485.000000C50.000000 -429.000000,100.000000 -429.000000,103.000000 -429.000000C120.000000 -429.000000,155.000000 -441.000000,155.000000 -482.000000C155.000000 -508.000000,137.000000 -534.000000,102.000000 -534.000000C94.000000 -534.000000,92.000000 -534.000000,89.000000 -533.000000C112.000000 -598.000000,166.000000 -635.000000,224.000000 -635.000000C315.000000 -635.000000,358.000000 -554.000000,358.000000 -472.000000C358.000000 -392.000000,308.000000 -313.000000,253.000000 -251.000000L61.000000 -37.000000C50.000000 -26.000000,50.000000 -24.000000,50.000000 -0.000000L421.000000 -0.000000L449.000000 -174.000000L424.000000 -174.000000C419.000000 -144.000000,412.000000 -100.000000,402.000000 -85.000000C395.000000 -77.000000,329.000000 -77.000000,307.000000 -77.000000"></path>
    </g>
    <g transform="scale(0.009963,0.009963)" id="GLYPHcmr10_51">
      <path style="fill-rule: evenodd;" d="M290.000000 -352.000000C372.000000 -379.000000,430.000000 -449.000000,430.000000 -528.000000C430.000000 -610.000000,342.000000 -666.000000,246.000000 -666.000000C145.000000 -666.000000,69.000000 -606.000000,69.000000 -530.000000C69.000000 -497.000000,91.000000 -478.000000,120.000000 -478.000000C151.000000 -478.000000,171.000000 -500.000000,171.000000 -529.000000C171.000000 -579.000000,124.000000 -579.000000,109.000000 -579.000000C140.000000 -628.000000,206.000000 -641.000000,242.000000 -641.000000C283.000000 -641.000000,338.000000 -619.000000,338.000000 -529.000000C338.000000 -517.000000,336.000000 -459.000000,310.000000 -415.000000C280.000000 -367.000000,246.000000 -364.000000,221.000000 -363.000000C213.000000 -362.000000,189.000000 -360.000000,182.000000 -360.000000C174.000000 -359.000000,167.000000 -358.000000,167.000000 -348.000000C167.000000 -337.000000,174.000000 -337.000000,191.000000 -337.000000L235.000000 -337.000000C317.000000 -337.000000,354.000000 -269.000000,354.000000 -171.000000C354.000000 -35.000000,285.000000 -6.000000,241.000000 -6.000000C198.000000 -6.000000,123.000000 -23.000000,88.000000 -82.000000C123.000000 -77.000000,154.000000 -99.000000,154.000000 -137.000000C154.000000 -173.000000,127.000000 -193.000000,98.000000 -193.000000C74.000000 -193.000000,42.000000 -179.000000,42.000000 -135.000000C42.000000 -44.000000,135.000000 22.000000,244.000000 22.000000C366.000000 22.000000,457.000000 -69.000000,457.000000 -171.000000C457.000000 -253.000000,394.000000 -331.000000,290.000000 -352.000000"></path>
    </g>
    <g transform="scale(0.009963,0.009963)" id="GLYPHcmr10_52">
      <path style="fill-rule: evenodd;" d="M294.000000 -165.000000L294.000000 -78.000000C294.000000 -42.000000,292.000000 -31.000000,218.000000 -31.000000L197.000000 -31.000000L197.000000 -0.000000L332.000000 -0.000000L238.000000 -3.000000L290.000000 -3.000000L332.000000 -3.000000L374.000000 -3.000000L427.000000 -3.000000L468.000000 -0.000000L468.000000 -31.000000L447.000000 -31.000000C373.000000 -31.000000,371.000000 -42.000000,371.000000 -78.000000L371.000000 -165.000000L471.000000 -165.000000L471.000000 -196.000000L371.000000 -196.000000L371.000000 -651.000000C371.000000 -671.000000,371.000000 -677.000000,355.000000 -677.000000C346.000000 -677.000000,343.000000 -677.000000,335.000000 -665.000000L28.000000 -196.000000L28.000000 -165.000000M300.000000 -196.000000L56.000000 -196.000000L300.000000 -569.000000"></path>
    </g>
    <g transform="scale(0.009963,0.009963)" id="GLYPHcmr10_53">
      <path style="fill-rule: evenodd;" d="M449.000000 -201.000000C449.000000 -320.000000,367.000000 -420.000000,259.000000 -420.000000C211.000000 -420.000000,168.000000 -404.000000,132.000000 -369.000000L132.000000 -564.000000C152.000000 -558.000000,185.000000 -551.000000,217.000000 -551.000000C340.000000 -551.000000,410.000000 -642.000000,410.000000 -655.000000C410.000000 -661.000000,407.000000 -666.000000,400.000000 -666.000000C399.000000 -666.000000,397.000000 -666.000000,392.000000 -663.000000C372.000000 -654.000000,323.000000 -634.000000,256.000000 -634.000000C216.000000 -634.000000,170.000000 -641.000000,123.000000 -662.000000C115.000000 -665.000000,113.000000 -665.000000,111.000000 -665.000000C101.000000 -665.000000,101.000000 -657.000000,101.000000 -641.000000L101.000000 -345.000000C101.000000 -327.000000,101.000000 -319.000000,115.000000 -319.000000C122.000000 -319.000000,124.000000 -322.000000,128.000000 -328.000000C139.000000 -344.000000,176.000000 -398.000000,257.000000 -398.000000C309.000000 -398.000000,334.000000 -352.000000,342.000000 -334.000000C358.000000 -297.000000,360.000000 -258.000000,360.000000 -208.000000C360.000000 -173.000000,360.000000 -113.000000,336.000000 -71.000000C312.000000 -32.000000,275.000000 -6.000000,229.000000 -6.000000C156.000000 -6.000000,99.000000 -59.000000,82.000000 -118.000000C85.000000 -117.000000,88.000000 -116.000000,99.000000 -116.000000C132.000000 -116.000000,149.000000 -141.000000,149.000000 -165.000000C149.000000 -189.000000,132.000000 -214.000000,99.000000 -214.000000C85.000000 -214.000000,50.000000 -207.000000,50.000000 -161.000000C50.000000 -75.000000,119.000000 22.000000,231.000000 22.000000C347.000000 22.000000,449.000000 -74.000000,449.000000 -201.000000"></path>
    </g>
    <g transform="scale(0.009963,0.009963)" id="GLYPHcmr10_54">
      <path style="fill-rule: evenodd;" d="M132.000000 -328.000000L132.000000 -352.000000C132.000000 -605.000000,256.000000 -641.000000,307.000000 -641.000000C331.000000 -641.000000,373.000000 -635.000000,395.000000 -601.000000C380.000000 -601.000000,340.000000 -601.000000,340.000000 -556.000000C340.000000 -525.000000,364.000000 -510.000000,386.000000 -510.000000C402.000000 -510.000000,432.000000 -519.000000,432.000000 -558.000000C432.000000 -618.000000,388.000000 -666.000000,305.000000 -666.000000C177.000000 -666.000000,42.000000 -537.000000,42.000000 -316.000000C42.000000 -49.000000,158.000000 22.000000,251.000000 22.000000C362.000000 22.000000,457.000000 -72.000000,457.000000 -204.000000C457.000000 -331.000000,368.000000 -427.000000,257.000000 -427.000000C189.000000 -427.000000,152.000000 -376.000000,132.000000 -328.000000M251.000000 -6.000000C188.000000 -6.000000,158.000000 -66.000000,152.000000 -81.000000C134.000000 -128.000000,134.000000 -208.000000,134.000000 -226.000000C134.000000 -304.000000,166.000000 -404.000000,256.000000 -404.000000C272.000000 -404.000000,318.000000 -404.000000,349.000000 -342.000000C367.000000 -305.000000,367.000000 -254.000000,367.000000 -205.000000C367.000000 -157.000000,367.000000 -107.000000,350.000000 -71.000000C320.000000 -11.000000,274.000000 -6.000000,251.000000 -6.000000"></path>
    </g>
    <g transform="scale(0.009963,0.009963)" id="GLYPHcmr10_55">
      <path style="fill-rule: evenodd;" d="M476.000000 -609.000000C485.000000 -621.000000,485.000000 -623.000000,485.000000 -644.000000L242.000000 -644.000000C120.000000 -644.000000,118.000000 -657.000000,114.000000 -676.000000L89.000000 -676.000000L56.000000 -470.000000L81.000000 -470.000000C84.000000 -486.000000,93.000000 -549.000000,106.000000 -561.000000C113.000000 -567.000000,191.000000 -567.000000,204.000000 -567.000000L411.000000 -567.000000C400.000000 -551.000000,321.000000 -442.000000,299.000000 -409.000000C209.000000 -274.000000,176.000000 -135.000000,176.000000 -33.000000C176.000000 -23.000000,176.000000 22.000000,222.000000 22.000000C268.000000 22.000000,268.000000 -23.000000,268.000000 -33.000000L268.000000 -84.000000C268.000000 -139.000000,271.000000 -194.000000,279.000000 -248.000000C283.000000 -271.000000,297.000000 -357.000000,341.000000 -419.000000"></path>
    </g>
    <g transform="scale(0.009963,0.009963)" id="GLYPHcmr10_56">
      <path style="fill-rule: evenodd;" d="M163.000000 -457.000000C117.000000 -487.000000,113.000000 -521.000000,113.000000 -538.000000C113.000000 -599.000000,178.000000 -641.000000,249.000000 -641.000000C322.000000 -641.000000,386.000000 -589.000000,386.000000 -517.000000C386.000000 -460.000000,347.000000 -412.000000,287.000000 -377.000000M309.000000 -362.000000C381.000000 -399.000000,430.000000 -451.000000,430.000000 -517.000000C430.000000 -609.000000,341.000000 -666.000000,250.000000 -666.000000C150.000000 -666.000000,69.000000 -592.000000,69.000000 -499.000000C69.000000 -481.000000,71.000000 -436.000000,113.000000 -389.000000C124.000000 -377.000000,161.000000 -352.000000,186.000000 -335.000000C128.000000 -306.000000,42.000000 -250.000000,42.000000 -151.000000C42.000000 -45.000000,144.000000 22.000000,249.000000 22.000000C362.000000 22.000000,457.000000 -61.000000,457.000000 -168.000000C457.000000 -204.000000,446.000000 -249.000000,408.000000 -291.000000C389.000000 -312.000000,373.000000 -322.000000,309.000000 -362.000000M209.000000 -320.000000L332.000000 -242.000000C360.000000 -223.000000,407.000000 -193.000000,407.000000 -132.000000C407.000000 -58.000000,332.000000 -6.000000,250.000000 -6.000000C164.000000 -6.000000,92.000000 -68.000000,92.000000 -151.000000C92.000000 -209.000000,124.000000 -273.000000,209.000000 -320.000000"></path>
    </g>
    <g transform="scale(0.009963,0.009963)" id="GLYPHcmr10_57">
      <path style="fill-rule: evenodd;" d="M367.000000 -318.000000L367.000000 -286.000000C367.000000 -52.000000,263.000000 -6.000000,205.000000 -6.000000C188.000000 -6.000000,134.000000 -8.000000,107.000000 -42.000000C151.000000 -42.000000,159.000000 -71.000000,159.000000 -88.000000C159.000000 -119.000000,135.000000 -134.000000,113.000000 -134.000000C97.000000 -134.000000,67.000000 -125.000000,67.000000 -86.000000C67.000000 -19.000000,121.000000 22.000000,206.000000 22.000000C335.000000 22.000000,457.000000 -114.000000,457.000000 -329.000000C457.000000 -598.000000,342.000000 -666.000000,253.000000 -666.000000C198.000000 -666.000000,149.000000 -648.000000,106.000000 -603.000000C65.000000 -558.000000,42.000000 -516.000000,42.000000 -441.000000C42.000000 -316.000000,130.000000 -218.000000,242.000000 -218.000000C303.000000 -218.000000,344.000000 -260.000000,367.000000 -318.000000M243.000000 -241.000000C227.000000 -241.000000,181.000000 -241.000000,150.000000 -304.000000C132.000000 -341.000000,132.000000 -391.000000,132.000000 -440.000000C132.000000 -494.000000,132.000000 -541.000000,153.000000 -578.000000C180.000000 -628.000000,218.000000 -641.000000,253.000000 -641.000000C299.000000 -641.000000,332.000000 -607.000000,349.000000 -562.000000C361.000000 -530.000000,365.000000 -467.000000,365.000000 -421.000000C365.000000 -338.000000,331.000000 -241.000000,243.000000 -241.000000"></path>
    </g>
  </defs>
  <path d="M80.441360 78.564056C80.441360 77.771362,80.126419 77.011215,79.565933 76.450745C79.005463 75.890259,78.245316 75.575317,77.452621 75.575317C76.659927 75.575317,75.899780 75.890259,75.339310 76.450745C74.778824 77.011215,74.463882 77.771362,74.463882 78.564056C74.463882 79.356750,74.778824 80.116898,75.339310 80.677368C75.899780 81.237854,76.659927 81.552795,77.452621 81.552795C78.245316 81.552795,79.005463 81.237854,79.565933 80.677368C80.126419 80.116898,80.441360 79.356750,80.441360 78.564056Z" style="fill: rgb(100.000000%,100.000000%,100.000000%);stroke: none;"></path>
  <path d="M80.077408 84.839615C80.077408 84.046921,79.762466 83.286774,79.201981 82.726303C78.641510 82.165817,77.881363 81.850876,77.088669 81.850876C76.295975 81.850876,75.535828 82.165817,74.975357 82.726303C74.414871 83.286774,74.099930 84.046921,74.099930 84.839615C74.099930 85.632309,74.414871 86.392456,74.975357 86.952927C75.535828 87.513412,76.295975 87.828354,77.088669 87.828354C77.881363 87.828354,78.641510 87.513412,79.201981 86.952927C79.762466 86.392456,80.077408 85.632309,80.077408 84.839615Z" style="fill: rgb(100.000000%,100.000000%,100.000000%);stroke: none;"></path>
  <path d="M79.561951 59.672226C79.561951 58.879532,79.247009 58.119385,78.686523 57.558914C78.126053 56.998428,77.365906 56.683487,76.573212 56.683487C75.780518 56.683487,75.020370 56.998428,74.459900 57.558914C73.899414 58.119385,73.584473 58.879532,73.584473 59.672226C73.584473 60.464920,73.899414 61.225067,74.459900 61.785538C75.020370 62.346024,75.780518 62.660965,76.573212 62.660965C77.365906 62.660965,78.126053 62.346024,78.686523 61.785538C79.247009 61.225067,79.561951 60.464920,79.561951 59.672226Z" style="fill: rgb(100.000000%,100.000000%,100.000000%);stroke: none;"></path>
  <path d="M80.411758 72.271851C80.411758 71.479156,80.096817 70.719009,79.536331 70.158539C78.975861 69.598053,78.215714 69.283112,77.423019 69.283112C76.630325 69.283112,75.870178 69.598053,75.309708 70.158539C74.749222 70.719009,74.434280 71.479156,74.434280 72.271851C74.434280 73.064545,74.749222 73.824692,75.309708 74.385162C75.870178 74.945648,76.630325 75.260590,77.423019 75.260590C78.215714 75.260590,78.975861 74.945648,79.536331 74.385162C80.096817 73.824692,80.411758 73.064545,80.411758 72.271851Z" style="fill: rgb(100.000000%,100.000000%,100.000000%);stroke: none;"></path>
  <path d="M76.598923 37.626999C76.598923 36.834305,76.283981 36.074158,75.723495 35.513687C75.163025 34.953201,74.402878 34.638260,73.610184 34.638260C72.817490 34.638260,72.057343 34.953201,71.496872 35.513687C70.936386 36.074158,70.621445 36.834305,70.621445 37.626999C70.621445 38.419693,70.936386 39.179840,71.496872 39.740311C72.057343 40.300797,72.817490 40.615738,73.610184 40.615738C74.402878 40.615738,75.163025 40.300797,75.723495 39.740311C76.283981 39.179840,76.598923 38.419693,76.598923 37.626999Z" style="fill: rgb(100.000000%,100.000000%,100.000000%);stroke: none;"></path>
  <path d="M78.735870 53.381134C78.735870 52.588440,78.420929 51.828293,77.860443 51.267822C77.299973 50.707336,76.539825 50.392395,75.747131 50.392395C74.954437 50.392395,74.194290 50.707336,73.633820 51.267822C73.073334 51.828293,72.758392 52.588440,72.758392 53.381134C72.758392 54.173828,73.073334 54.933975,73.633820 55.494446C74.194290 56.054932,74.954437 56.369873,75.747131 56.369873C76.539825 56.369873,77.299973 56.054932,77.860443 55.494446C78.420929 54.933975,78.735870 54.173828,78.735870 53.381134Z" style="fill: rgb(100.000000%,100.000000%,100.000000%);stroke: none;"></path>
  <path d="M87.325073 5.943832C87.325073 5.151138,87.010132 4.390991,86.449646 3.830521C85.889175 3.270035,85.129028 2.955093,84.336334 2.955093C83.543640 2.955093,82.783493 3.270035,82.223022 3.830521C81.662537 4.390991,81.347595 5.151138,81.347595 5.943832C81.347595 6.736526,81.662537 7.496674,82.223022 8.057144C82.783493 8.617630,83.543640 8.932571,84.336334 8.932571C85.129028 8.932571,85.889175 8.617630,86.449646 8.057144C87.010132 7.496674,87.325073 6.736526,87.325073 5.943832Z" style="fill: rgb(100.000000%,100.000000%,100.000000%);stroke: none;"></path>
  <path d="M75.379990 27.676437C75.379990 26.883743,75.065048 26.123596,74.504562 25.563126C73.944092 25.002640,73.183945 24.687698,72.391251 24.687698C71.598557 24.687698,70.838409 25.002640,70.277939 25.563126C69.717453 26.123596,69.402512 26.883743,69.402512 27.676437C69.402512 28.469131,69.717453 29.229279,70.277939 29.789749C70.838409 30.350235,71.598557 30.665176,72.391251 30.665176C73.183945 30.665176,73.944092 30.350235,74.504562 29.789749C75.065048 29.229279,75.379990 28.469131,75.379990 27.676437Z" style="fill: rgb(100.000000%,100.000000%,100.000000%);stroke: none;"></path>
  <path d="M132.060242 13.884995C132.060242 13.092300,131.745300 12.332153,131.184814 11.771683C130.624344 11.211197,129.864197 10.896255,129.071503 10.896255C128.278809 10.896255,127.518661 11.211197,126.958191 11.771683C126.397705 12.332153,126.082764 13.092300,126.082764 13.884995C126.082764 14.677689,126.397705 15.437836,126.958191 15.998306C127.518661 16.558792,128.278809 16.873734,129.071503 16.873734C129.864197 16.873734,130.624344 16.558792,131.184814 15.998306C131.745300 15.437836,132.060242 14.677689,132.060242 13.884995Z" style="fill: rgb(100.000000%,100.000000%,100.000000%);stroke: none;"></path>
  <path d="M104.511719 2.451080C104.511719 1.658386,104.196777 0.898239,103.636292 0.337769C103.075821 -0.222717,102.315674 -0.537659,101.522980 -0.537659C100.730286 -0.537659,99.970139 -0.222717,99.409668 0.337769C98.849182 0.898239,98.534241 1.658386,98.534241 2.451080C98.534241 3.243774,98.849182 4.003922,99.409668 4.564392C99.970139 5.124878,100.730286 5.439819,101.522980 5.439819C102.315674 5.439819,103.075821 5.124878,103.636292 4.564392C104.196777 4.003922,104.511719 3.243774,104.511719 2.451080Z" style="fill: rgb(100.000000%,100.000000%,100.000000%);stroke: none;"></path>
  <path d="M137.129669 53.559448C137.129669 52.766754,136.814728 52.006607,136.254242 51.446136C135.693771 50.885651,134.933624 50.570709,134.140930 50.570709C133.348236 50.570709,132.588089 50.885651,132.027618 51.446136C131.467133 52.006607,131.152191 52.766754,131.152191 53.559448C131.152191 54.352142,131.467133 55.112289,132.027618 55.672760C132.588089 56.233246,133.348236 56.548187,134.140930 56.548187C134.933624 56.548187,135.693771 56.233246,136.254242 55.672760C136.814728 55.112289,137.129669 54.352142,137.129669 53.559448Z" style="fill: rgb(100.000000%,100.000000%,100.000000%);stroke: none;"></path>
  <path d="M141.325562 26.120178C141.325562 25.327484,141.010620 24.567337,140.450134 24.006866C139.889664 23.446381,139.129517 23.131439,138.336823 23.131439C137.544128 23.131439,136.783981 23.446381,136.223511 24.006866C135.663025 24.567337,135.348083 25.327484,135.348083 26.120178C135.348083 26.912872,135.663025 27.673019,136.223511 28.233490C136.783981 28.793976,137.544128 29.108917,138.336823 29.108917C139.129517 29.108917,139.889664 28.793976,140.450134 28.233490C141.010620 27.673019,141.325562 26.912872,141.325562 26.120178Z" style="fill: rgb(100.000000%,100.000000%,100.000000%);stroke: none;"></path>
  <path d="M99.958878 66.720627C99.958878 65.927933,99.643936 65.167786,99.083450 64.607315C98.522980 64.046829,97.762833 63.731888,96.970139 63.731888C96.177444 63.731888,95.417297 64.046829,94.856827 64.607315C94.296341 65.167786,93.981400 65.927933,93.981400 66.720627C93.981400 67.513321,94.296341 68.273468,94.856827 68.833939C95.417297 69.394424,96.177444 69.709366,96.970139 69.709366C97.762833 69.709366,98.522980 69.394424,99.083450 68.833939C99.643936 68.273468,99.958878 67.513321,99.958878 66.720627Z" style="fill: rgb(100.000000%,100.000000%,100.000000%);stroke: none;"></path>
  <path d="M124.039276 62.324463C124.039276 61.531769,123.724335 60.771622,123.163849 60.211151C122.603378 59.650665,121.843231 59.335724,121.050537 59.335724C120.257843 59.335724,119.497696 59.650665,118.937225 60.211151C118.376740 60.771622,118.061798 61.531769,118.061798 62.324463C118.061798 63.117157,118.376740 63.877304,118.937225 64.437775C119.497696 64.998260,120.257843 65.313202,121.050537 65.313202C121.843231 65.313202,122.603378 64.998260,123.163849 64.437775C123.724335 63.877304,124.039276 63.117157,124.039276 62.324463Z" style="fill: rgb(100.000000%,100.000000%,100.000000%);stroke: none;"></path>
  <path d="M72.058578 66.098618C72.058578 65.305923,71.743637 64.545776,71.183151 63.985306C70.622681 63.424820,69.862534 63.109879,69.069839 63.109879C68.277145 63.109879,67.516998 63.424820,66.956528 63.985306C66.396042 64.545776,66.081100 65.305923,66.081100 66.098618C66.081100 66.891312,66.396042 67.651459,66.956528 68.211929C67.516998 68.772415,68.277145 69.087357,69.069839 69.087357C69.862534 69.087357,70.622681 68.772415,71.183151 68.211929C71.743637 67.651459,72.058578 66.891312,72.058578 66.098618Z" style="fill: rgb(100.000000%,100.000000%,100.000000%);stroke: none;"></path>
  <path d="M89.938751 65.876251C89.938751 65.083557,89.623810 64.323410,89.063324 63.762939C88.502853 63.202454,87.742706 62.887512,86.950012 62.887512C86.157318 62.887512,85.397171 63.202454,84.836700 63.762939C84.276215 64.323410,83.961273 65.083557,83.961273 65.876251C83.961273 66.668945,84.276215 67.429092,84.836700 67.989563C85.397171 68.550049,86.157318 68.864990,86.950012 68.864990C87.742706 68.864990,88.502853 68.550049,89.063324 67.989563C89.623810 67.429092,89.938751 66.668945,89.938751 65.876251Z" style="fill: rgb(100.000000%,100.000000%,100.000000%);stroke: none;"></path>
  <path d="M43.517624 67.076065C43.517624 66.283371,43.202682 65.523224,42.642197 64.962753C42.081726 64.402267,41.321579 64.087326,40.528885 64.087326C39.736191 64.087326,38.976044 64.402267,38.415573 64.962753C37.855087 65.523224,37.540146 66.283371,37.540146 67.076065C37.540146 67.868759,37.855087 68.628906,38.415573 69.189377C38.976044 69.749863,39.736191 70.064804,40.528885 70.064804C41.321579 70.064804,42.081726 69.749863,42.642197 69.189377C43.202682 68.628906,43.517624 67.868759,43.517624 67.076065Z" style="fill: rgb(100.000000%,100.000000%,100.000000%);stroke: none;"></path>
  <path d="M64.148239 66.816299C64.148239 66.023605,63.833298 65.263458,63.272812 64.702988C62.712341 64.142502,61.952194 63.827560,61.159500 63.827560C60.366806 63.827560,59.606659 64.142502,59.046188 64.702988C58.485703 65.263458,58.170761 66.023605,58.170761 66.816299C58.170761 67.608994,58.485703 68.369141,59.046188 68.929611C59.606659 69.490097,60.366806 69.805038,61.159500 69.805038C61.952194 69.805038,62.712341 69.490097,63.272812 68.929611C63.833298 68.369141,64.148239 67.608994,64.148239 66.816299Z" style="fill: rgb(100.000000%,100.000000%,100.000000%);stroke: none;"></path>
  <path d="M7.015045 82.931595C7.015045 82.138901,6.700104 81.378754,6.139618 80.818283C5.579147 80.257797,4.819000 79.942856,4.026306 79.942856C3.233612 79.942856,2.473465 80.257797,1.912994 80.818283C1.352509 81.378754,1.037567 82.138901,1.037567 82.931595C1.037567 83.724289,1.352509 84.484436,1.912994 85.044907C2.473465 85.605392,3.233612 85.920334,4.026306 85.920334C4.819000 85.920334,5.579147 85.605392,6.139618 85.044907C6.700104 84.484436,7.015045 83.724289,7.015045 82.931595Z" style="fill: rgb(100.000000%,100.000000%,100.000000%);stroke: none;"></path>
  <path d="M30.011215 65.977325C30.011215 65.184631,29.696274 64.424484,29.135788 63.864014C28.575317 63.303528,27.815170 62.988586,27.022476 62.988586C26.229782 62.988586,25.469635 63.303528,24.909164 63.864014C24.348679 64.424484,24.033737 65.184631,24.033737 65.977325C24.033737 66.770020,24.348679 67.530167,24.909164 68.090637C25.469635 68.651123,26.229782 68.966064,27.022476 68.966064C27.815170 68.966064,28.575317 68.651123,29.135788 68.090637C29.696274 67.530167,30.011215 66.770020,30.011215 65.977325Z" style="fill: rgb(100.000000%,100.000000%,100.000000%);stroke: none;"></path>
  <path d="M9.157654 132.540359C9.157654 131.747665,8.842712 130.987518,8.282227 130.427048C7.721756 129.866562,6.961609 129.551620,6.168915 129.551620C5.376221 129.551620,4.616074 129.866562,4.055603 130.427048C3.495117 130.987518,3.180176 131.747665,3.180176 132.540359C3.180176 133.333054,3.495117 134.093201,4.055603 134.653671C4.616074 135.214157,5.376221 135.529099,6.168915 135.529099C6.961609 135.529099,7.721756 135.214157,8.282227 134.653671C8.842712 134.093201,9.157654 133.333054,9.157654 132.540359Z" style="fill: rgb(100.000000%,100.000000%,100.000000%);stroke: none;"></path>
  <path d="M5.274918 100.255112C5.274918 99.462418,4.959976 98.702271,4.399490 98.141800C3.839020 97.581314,3.078873 97.266373,2.286179 97.266373C1.493484 97.266373,0.733337 97.581314,0.172867 98.141800C-0.387619 98.702271,-0.702560 99.462418,-0.702560 100.255112C-0.702560 101.047806,-0.387619 101.807953,0.172867 102.368423C0.733337 102.928909,1.493484 103.243851,2.286179 103.243851C3.078873 103.243851,3.839020 102.928909,4.399490 102.368423C4.959976 101.807953,5.274918 101.047806,5.274918 100.255112Z" style="fill: rgb(100.000000%,100.000000%,100.000000%);stroke: none;"></path>
  <path d="M41.532181 157.720520C41.532181 156.927826,41.217239 156.167679,40.656754 155.607208C40.096283 155.046722,39.336136 154.731781,38.543442 154.731781C37.750748 154.731781,36.990601 155.046722,36.430130 155.607208C35.869644 156.167679,35.554703 156.927826,35.554703 157.720520C35.554703 158.513214,35.869644 159.273361,36.430130 159.833832C36.990601 160.394318,37.750748 160.709259,38.543442 160.709259C39.336136 160.709259,40.096283 160.394318,40.656754 159.833832C41.217239 159.273361,41.532181 158.513214,41.532181 157.720520Z" style="fill: rgb(100.000000%,100.000000%,100.000000%);stroke: none;"></path>
  <path d="M15.366669 149.179520C15.366669 148.386826,15.051727 147.626678,14.491241 147.066208C13.930771 146.505722,13.170624 146.190781,12.377930 146.190781C11.585236 146.190781,10.825089 146.505722,10.264618 147.066208C9.704132 147.626678,9.389191 148.386826,9.389191 149.179520C9.389191 149.972214,9.704132 150.732361,10.264618 151.292831C10.825089 151.853317,11.585236 152.168259,12.377930 152.168259C13.170624 152.168259,13.930771 151.853317,14.491241 151.292831C15.051727 150.732361,15.366669 149.972214,15.366669 149.179520Z" style="fill: rgb(100.000000%,100.000000%,100.000000%);stroke: none;"></path>
  <path d="M72.095886 165.126144C72.095886 164.333450,71.780945 163.573303,71.220459 163.012833C70.659988 162.452347,69.899841 162.137405,69.107147 162.137405C68.314453 162.137405,67.554306 162.452347,66.993835 163.012833C66.433350 163.573303,66.118408 164.333450,66.118408 165.126144C66.118408 165.918839,66.433350 166.678986,66.993835 167.239456C67.554306 167.799942,68.314453 168.114883,69.107147 168.114883C69.899841 168.114883,70.659988 167.799942,71.220459 167.239456C71.780945 166.678986,72.095886 165.918839,72.095886 165.126144Z" style="fill: rgb(100.000000%,100.000000%,100.000000%);stroke: none;"></path>
  <path d="M54.583939 152.855530C54.583939 152.062836,54.268997 151.302689,53.708511 150.742218C53.148041 150.181732,52.387894 149.866791,51.595200 149.866791C50.802505 149.866791,50.042358 150.181732,49.481888 150.742218C48.921402 151.302689,48.606461 152.062836,48.606461 152.855530C48.606461 153.648224,48.921402 154.408371,49.481888 154.968842C50.042358 155.529327,50.802505 155.844269,51.595200 155.844269C52.387894 155.844269,53.148041 155.529327,53.708511 154.968842C54.268997 154.408371,54.583939 153.648224,54.583939 152.855530Z" style="fill: rgb(100.000000%,100.000000%,100.000000%);stroke: none;"></path>
  <path d="M91.232040 192.352066C91.232040 191.559372,90.917099 190.799225,90.356613 190.238754C89.796143 189.678268,89.035995 189.363327,88.243301 189.363327C87.450607 189.363327,86.690460 189.678268,86.129990 190.238754C85.569504 190.799225,85.254562 191.559372,85.254562 192.352066C85.254562 193.144760,85.569504 193.904907,86.129990 194.465378C86.690460 195.025864,87.450607 195.340805,88.243301 195.340805C89.035995 195.340805,89.796143 195.025864,90.356613 194.465378C90.917099 193.904907,91.232040 193.144760,91.232040 192.352066Z" style="fill: rgb(100.000000%,100.000000%,100.000000%);stroke: none;"></path>
  <path d="M73.806870 175.781235C73.806870 174.988541,73.491928 174.228394,72.931442 173.667923C72.370972 173.107437,71.610825 172.792496,70.818130 172.792496C70.025436 172.792496,69.265289 173.107437,68.704819 173.667923C68.144333 174.228394,67.829391 174.988541,67.829391 175.781235C67.829391 176.573929,68.144333 177.334076,68.704819 177.894547C69.265289 178.455032,70.025436 178.769974,70.818130 178.769974C71.610825 178.769974,72.370972 178.455032,72.931442 177.894547C73.491928 177.334076,73.806870 176.573929,73.806870 175.781235Z" style="fill: rgb(100.000000%,100.000000%,100.000000%);stroke: none;"></path>
  <path d="M135.862961 185.240128C135.862961 184.447433,135.548019 183.687286,134.987534 183.126816C134.427063 182.566330,133.666916 182.251389,132.874222 182.251389C132.081528 182.251389,131.321381 182.566330,130.760910 183.126816C130.200424 183.687286,129.885483 184.447433,129.885483 185.240128C129.885483 186.032822,130.200424 186.792969,130.760910 187.353439C131.321381 187.913925,132.081528 188.228867,132.874222 188.228867C133.666916 188.228867,134.427063 187.913925,134.987534 187.353439C135.548019 186.792969,135.862961 186.032822,135.862961 185.240128Z" style="fill: rgb(100.000000%,100.000000%,100.000000%);stroke: none;"></path>
  <path d="M107.242676 188.918900C107.242676 188.126205,106.927734 187.366058,106.367249 186.805588C105.806778 186.245102,105.046631 185.930161,104.253937 185.930161C103.461243 185.930161,102.701096 186.245102,102.140625 186.805588C101.580139 187.366058,101.265198 188.126205,101.265198 188.918900C101.265198 189.711594,101.580139 190.471741,102.140625 191.032211C102.701096 191.592697,103.461243 191.907639,104.253937 191.907639C105.046631 191.907639,105.806778 191.592697,106.367249 191.032211C106.927734 190.471741,107.242676 189.711594,107.242676 188.918900Z" style="fill: rgb(100.000000%,100.000000%,100.000000%);stroke: none;"></path>
  <path d="M157.991272 163.200943C157.991272 162.408249,157.676331 161.648102,157.115845 161.087631C156.555374 160.527145,155.795227 160.212204,155.002533 160.212204C154.209839 160.212204,153.449692 160.527145,152.889221 161.087631C152.328735 161.648102,152.013794 162.408249,152.013794 163.200943C152.013794 163.993637,152.328735 164.753784,152.889221 165.314255C153.449692 165.874741,154.209839 166.189682,155.002533 166.189682C155.795227 166.189682,156.555374 165.874741,157.115845 165.314255C157.676331 164.753784,157.991272 163.993637,157.991272 163.200943Z" style="fill: rgb(100.000000%,100.000000%,100.000000%);stroke: none;"></path>
  <path d="M151.694672 183.259369C151.694672 182.466675,151.379730 181.706528,150.819244 181.146057C150.258774 180.585571,149.498627 180.270630,148.705933 180.270630C147.913239 180.270630,147.153091 180.585571,146.592621 181.146057C146.032135 181.706528,145.717194 182.466675,145.717194 183.259369C145.717194 184.052063,146.032135 184.812210,146.592621 185.372681C147.153091 185.933167,147.913239 186.248108,148.705933 186.248108C149.498627 186.248108,150.258774 185.933167,150.819244 185.372681C151.379730 184.812210,151.694672 184.052063,151.694672 183.259369Z" style="fill: rgb(100.000000%,100.000000%,100.000000%);stroke: none;"></path>
  <path d="M161.187897 139.634460C161.187897 138.841766,160.872955 138.081619,160.312469 137.521149C159.751999 136.960663,158.991852 136.645721,158.199158 136.645721C157.406464 136.645721,156.646317 136.960663,156.085846 137.521149C155.525360 138.081619,155.210419 138.841766,155.210419 139.634460C155.210419 140.427155,155.525360 141.187302,156.085846 141.747772C156.646317 142.308258,157.406464 142.623199,158.199158 142.623199C158.991852 142.623199,159.751999 142.308258,160.312469 141.747772C160.872955 141.187302,161.187897 140.427155,161.187897 139.634460Z" style="fill: rgb(100.000000%,100.000000%,100.000000%);stroke: none;"></path>
  <path d="M154.790588 155.339279C154.790588 154.546585,154.475647 153.786438,153.915161 153.225967C153.354691 152.665482,152.594543 152.350540,151.801849 152.350540C151.009155 152.350540,150.249008 152.665482,149.688538 153.225967C149.128052 153.786438,148.813110 154.546585,148.813110 155.339279C148.813110 156.131973,149.128052 156.892120,149.688538 157.452591C150.249008 158.013077,151.009155 158.328018,151.801849 158.328018C152.594543 158.328018,153.354691 158.013077,153.915161 157.452591C154.475647 156.892120,154.790588 156.131973,154.790588 155.339279Z" style="fill: rgb(100.000000%,100.000000%,100.000000%);stroke: none;"></path>
  <path d="M187.793701 115.692581C187.793701 114.899887,187.478760 114.139740,186.918274 113.579269C186.357803 113.018784,185.597656 112.703842,184.804962 112.703842C184.012268 112.703842,183.252121 113.018784,182.691650 113.579269C182.131165 114.139740,181.816223 114.899887,181.816223 115.692581C181.816223 116.485275,182.131165 117.245422,182.691650 117.805893C183.252121 118.366379,184.012268 118.681320,184.804962 118.681320C185.597656 118.681320,186.357803 118.366379,186.918274 117.805893C187.478760 117.245422,187.793701 116.485275,187.793701 115.692581Z" style="fill: rgb(100.000000%,100.000000%,100.000000%);stroke: none;"></path>
  <path d="M172.086609 137.090271C172.086609 136.297577,171.771667 135.537430,171.211182 134.976959C170.650711 134.416473,169.890564 134.101532,169.097870 134.101532C168.305176 134.101532,167.545029 134.416473,166.984558 134.976959C166.424072 135.537430,166.109131 136.297577,166.109131 137.090271C166.109131 137.882965,166.424072 138.643112,166.984558 139.203583C167.545029 139.764069,168.305176 140.079010,169.097870 140.079010C169.890564 140.079010,170.650711 139.764069,171.211182 139.203583C171.771667 138.643112,172.086609 137.882965,172.086609 137.090271Z" style="fill: rgb(100.000000%,100.000000%,100.000000%);stroke: none;"></path>
  <path d="M160.919327 66.199860C160.919327 65.407166,160.604385 64.647018,160.043900 64.086548C159.483429 63.526062,158.723282 63.211121,157.930588 63.211121C157.137894 63.211121,156.377747 63.526062,155.817276 64.086548C155.256790 64.647018,154.941849 65.407166,154.941849 66.199860C154.941849 66.992554,155.256790 67.752701,155.817276 68.313171C156.377747 68.873657,157.137894 69.188599,157.930588 69.188599C158.723282 69.188599,159.483429 68.873657,160.043900 68.313171C160.604385 67.752701,160.919327 66.992554,160.919327 66.199860Z" style="fill: rgb(100.000000%,100.000000%,100.000000%);stroke: none;"></path>
  <path d="M176.505539 98.568436C176.505539 97.775742,176.190598 97.015594,175.630112 96.455124C175.069641 95.894638,174.309494 95.579697,173.516800 95.579697C172.724106 95.579697,171.963959 95.894638,171.403488 96.455124C170.843002 97.015594,170.528061 97.775742,170.528061 98.568436C170.528061 99.361130,170.843002 100.121277,171.403488 100.681747C171.963959 101.242233,172.724106 101.557175,173.516800 101.557175C174.309494 101.557175,175.069641 101.242233,175.630112 100.681747C176.190598 100.121277,176.505539 99.361130,176.505539 98.568436Z" style="fill: rgb(100.000000%,100.000000%,100.000000%);stroke: none;"></path>
  <path d="M128.248032 35.667847C128.248032 34.875153,127.933090 34.115005,127.372604 33.554535C126.812134 32.994049,126.051987 32.679108,125.259293 32.679108C124.466599 32.679108,123.706451 32.994049,123.145981 33.554535C122.585495 34.115005,122.270554 34.875153,122.270554 35.667847C122.270554 36.460541,122.585495 37.220688,123.145981 37.781158C123.706451 38.341644,124.466599 38.656586,125.259293 38.656586C126.051987 38.656586,126.812134 38.341644,127.372604 37.781158C127.933090 37.220688,128.248032 36.460541,128.248032 35.667847Z" style="fill: rgb(100.000000%,100.000000%,100.000000%);stroke: none;"></path>
  <path d="M156.559402 45.831314C156.559402 45.038620,156.244461 44.278473,155.683975 43.718002C155.123505 43.157516,154.363358 42.842575,153.570663 42.842575C152.777969 42.842575,152.017822 43.157516,151.457352 43.718002C150.896866 44.278473,150.581924 45.038620,150.581924 45.831314C150.581924 46.624008,150.896866 47.384155,151.457352 47.944626C152.017822 48.505112,152.777969 48.820053,153.570663 48.820053C154.363358 48.820053,155.123505 48.505112,155.683975 47.944626C156.244461 47.384155,156.559402 46.624008,156.559402 45.831314Z" style="fill: rgb(100.000000%,100.000000%,100.000000%);stroke: none;"></path>
  <path d="M95.414993 32.378677C95.414993 31.585983,95.100052 30.825836,94.539566 30.265366C93.979095 29.704880,93.218948 29.389938,92.426254 29.389938C91.633560 29.389938,90.873413 29.704880,90.312943 30.265366C89.752457 30.825836,89.437515 31.585983,89.437515 32.378677C89.437515 33.171371,89.752457 33.931519,90.312943 34.491989C90.873413 35.052475,91.633560 35.367416,92.426254 35.367416C93.218948 35.367416,93.979095 35.052475,94.539566 34.491989C95.100052 33.931519,95.414993 33.171371,95.414993 32.378677Z" style="fill: rgb(100.000000%,100.000000%,100.000000%);stroke: none;"></path>
  <path d="M115.832275 40.012711C115.832275 39.220016,115.517334 38.459869,114.956848 37.899399C114.396378 37.338913,113.636230 37.023972,112.843536 37.023972C112.050842 37.023972,111.290695 37.338913,110.730225 37.899399C110.169739 38.459869,109.854797 39.220016,109.854797 40.012711C109.854797 40.805405,110.169739 41.565552,110.730225 42.126022C111.290695 42.686508,112.050842 43.001450,112.843536 43.001450C113.636230 43.001450,114.396378 42.686508,114.956848 42.126022C115.517334 41.565552,115.832275 40.805405,115.832275 40.012711Z" style="fill: rgb(100.000000%,100.000000%,100.000000%);stroke: none;"></path>
  <path d="M64.037079 12.296631C64.037079 11.503937,63.722137 10.743790,63.161652 10.183319C62.601181 9.622833,61.841034 9.307892,61.048340 9.307892C60.255646 9.307892,59.495499 9.622833,58.935028 10.183319C58.374542 10.743790,58.059601 11.503937,58.059601 12.296631C58.059601 13.089325,58.374542 13.849472,58.935028 14.409943C59.495499 14.970428,60.255646 15.285370,61.048340 15.285370C61.841034 15.285370,62.601181 14.970428,63.161652 14.409943C63.722137 13.849472,64.037079 13.089325,64.037079 12.296631Z" style="fill: rgb(100.000000%,100.000000%,100.000000%);stroke: none;"></path>
  <path d="M89.209274 23.334564C89.209274 22.541870,88.894333 21.781723,88.333847 21.221252C87.773376 20.660767,87.013229 20.345825,86.220535 20.345825C85.427841 20.345825,84.667694 20.660767,84.107224 21.221252C83.546738 21.781723,83.231796 22.541870,83.231796 23.334564C83.231796 24.127258,83.546738 24.887405,84.107224 25.447876C84.667694 26.008362,85.427841 26.323303,86.220535 26.323303C87.013229 26.323303,87.773376 26.008362,88.333847 25.447876C88.894333 24.887405,89.209274 24.127258,89.209274 23.334564Z" style="fill: rgb(100.000000%,100.000000%,100.000000%);stroke: none;"></path>
  <path d="M21.840973 44.300262C21.840973 43.507568,21.526031 42.747421,20.965546 42.186951C20.405075 41.626465,19.644928 41.311523,18.852234 41.311523C18.059540 41.311523,17.299393 41.626465,16.738922 42.186951C16.178436 42.747421,15.863495 43.507568,15.863495 44.300262C15.863495 45.092957,16.178436 45.853104,16.738922 46.413574C17.299393 46.974060,18.059540 47.289001,18.852234 47.289001C19.644928 47.289001,20.405075 46.974060,20.965546 46.413574C21.526031 45.853104,21.840973 45.092957,21.840973 44.300262Z" style="fill: rgb(100.000000%,100.000000%,100.000000%);stroke: none;"></path>
  <path d="M46.596207 20.906189C46.596207 20.113495,46.281265 19.353348,45.720779 18.792877C45.160309 18.232391,44.400162 17.917450,43.607468 17.917450C42.814774 17.917450,42.054626 18.232391,41.494156 18.792877C40.933670 19.353348,40.618729 20.113495,40.618729 20.906189C40.618729 21.698883,40.933670 22.459030,41.494156 23.019501C42.054626 23.579987,42.814774 23.894928,43.607468 23.894928C44.400162 23.894928,45.160309 23.579987,45.720779 23.019501C46.281265 22.459030,46.596207 21.698883,46.596207 20.906189Z" style="fill: rgb(100.000000%,100.000000%,100.000000%);stroke: none;"></path>
  <path d="M24.904358 84.490814C24.904358 83.698120,24.589417 82.937973,24.028931 82.377502C23.468460 81.817017,22.708313 81.502075,21.915619 81.502075C21.122925 81.502075,20.362778 81.817017,19.802307 82.377502C19.241821 82.937973,18.926880 83.698120,18.926880 84.490814C18.926880 85.283508,19.241821 86.043655,19.802307 86.604126C20.362778 87.164612,21.122925 87.479553,21.915619 87.479553C22.708313 87.479553,23.468460 87.164612,24.028931 86.604126C24.589417 86.043655,24.904358 85.283508,24.904358 84.490814Z" style="fill: rgb(100.000000%,100.000000%,100.000000%);stroke: none;"></path>
  <path d="M13.197617 59.596924C13.197617 58.804230,12.882675 58.044083,12.322189 57.483612C11.761719 56.923126,11.001572 56.608185,10.208878 56.608185C9.416183 56.608185,8.656036 56.923126,8.095566 57.483612C7.535080 58.044083,7.220139 58.804230,7.220139 59.596924C7.220139 60.389618,7.535080 61.149765,8.095566 61.710236C8.656036 62.270721,9.416183 62.585663,10.208878 62.585663C11.001572 62.585663,11.761719 62.270721,12.322189 61.710236C12.882675 61.149765,13.197617 60.389618,13.197617 59.596924Z" style="fill: rgb(100.000000%,100.000000%,100.000000%);stroke: none;"></path>
  <path d="M55.340942 95.529587C55.340942 94.736893,55.026001 93.976746,54.465515 93.416275C53.905045 92.855789,53.144897 92.540848,52.352203 92.540848C51.559509 92.540848,50.799362 92.855789,50.238892 93.416275C49.678406 93.976746,49.363464 94.736893,49.363464 95.529587C49.363464 96.322281,49.678406 97.082428,50.238892 97.642899C50.799362 98.203384,51.559509 98.518326,52.352203 98.518326C53.144897 98.518326,53.905045 98.203384,54.465515 97.642899C55.026001 97.082428,55.340942 96.322281,55.340942 95.529587Z" style="fill: rgb(100.000000%,100.000000%,100.000000%);stroke: none;"></path>
  <path d="M37.380737 88.528397C37.380737 87.735703,37.065796 86.975555,36.505310 86.415085C35.944839 85.854599,35.184692 85.539658,34.391998 85.539658C33.599304 85.539658,32.839157 85.854599,32.278687 86.415085C31.718201 86.975555,31.403259 87.735703,31.403259 88.528397C31.403259 89.321091,31.718201 90.081238,32.278687 90.641708C32.839157 91.202194,33.599304 91.517136,34.391998 91.517136C35.184692 91.517136,35.944839 91.202194,36.505310 90.641708C37.065796 90.081238,37.380737 89.321091,37.380737 88.528397Z" style="fill: rgb(100.000000%,100.000000%,100.000000%);stroke: none;"></path>
  <path d="M74.728149 100.240646C74.728149 99.447952,74.413208 98.687805,73.852722 98.127335C73.292252 97.566849,72.532104 97.251907,71.739410 97.251907C70.946716 97.251907,70.186569 97.566849,69.626099 98.127335C69.065613 98.687805,68.750671 99.447952,68.750671 100.240646C68.750671 101.033340,69.065613 101.793488,69.626099 102.353958C70.186569 102.914444,70.946716 103.229385,71.739410 103.229385C72.532104 103.229385,73.292252 102.914444,73.852722 102.353958C74.413208 101.793488,74.728149 101.033340,74.728149 100.240646Z" style="fill: rgb(100.000000%,100.000000%,100.000000%);stroke: none;"></path>
  <path d="M61.926712 98.572128C61.926712 97.779434,61.611771 97.019287,61.051285 96.458817C60.490814 95.898331,59.730667 95.583389,58.937973 95.583389C58.145279 95.583389,57.385132 95.898331,56.824661 96.458817C56.264175 97.019287,55.949234 97.779434,55.949234 98.572128C55.949234 99.364822,56.264175 100.124969,56.824661 100.685440C57.385132 101.245926,58.145279 101.560867,58.937973 101.560867C59.730667 101.560867,60.490814 101.245926,61.051285 100.685440C61.611771 100.124969,61.926712 99.364822,61.926712 98.572128Z" style="fill: rgb(100.000000%,100.000000%,100.000000%);stroke: none;"></path>
  <path d="M83.415939 111.158081C83.415939 110.365387,83.100998 109.605240,82.540512 109.044769C81.980042 108.484283,81.219894 108.169342,80.427200 108.169342C79.634506 108.169342,78.874359 108.484283,78.313889 109.044769C77.753403 109.605240,77.438461 110.365387,77.438461 111.158081C77.438461 111.950775,77.753403 112.710922,78.313889 113.271393C78.874359 113.831879,79.634506 114.146820,80.427200 114.146820C81.219894 114.146820,81.980042 113.831879,82.540512 113.271393C83.100998 112.710922,83.415939 111.950775,83.415939 111.158081Z" style="fill: rgb(100.000000%,100.000000%,100.000000%);stroke: none;"></path>
  <path d="M81.255432 100.952591C81.255432 100.159897,80.940491 99.399750,80.380005 98.839279C79.819534 98.278793,79.059387 97.963852,78.266693 97.963852C77.473999 97.963852,76.713852 98.278793,76.153381 98.839279C75.592896 99.399750,75.277954 100.159897,75.277954 100.952591C75.277954 101.745285,75.592896 102.505432,76.153381 103.065903C76.713852 103.626389,77.473999 103.941330,78.266693 103.941330C79.059387 103.941330,79.819534 103.626389,80.380005 103.065903C80.940491 102.505432,81.255432 101.745285,81.255432 100.952591Z" style="fill: rgb(100.000000%,100.000000%,100.000000%);stroke: none;"></path>
  <path d="M67.991623 121.739944C67.991623 120.947250,67.676682 120.187103,67.116196 119.626633C66.555725 119.066147,65.795578 118.751205,65.002884 118.751205C64.210190 118.751205,63.450043 119.066147,62.889572 119.626633C62.329086 120.187103,62.014145 120.947250,62.014145 121.739944C62.014145 122.532639,62.329086 123.292786,62.889572 123.853256C63.450043 124.413742,64.210190 124.728683,65.002884 124.728683C65.795578 124.728683,66.555725 124.413742,67.116196 123.853256C67.676682 123.292786,67.991623 122.532639,67.991623 121.739944Z" style="fill: rgb(100.000000%,100.000000%,100.000000%);stroke: none;"></path>
  <path d="M78.519409 114.499710C78.519409 113.707016,78.204468 112.946869,77.643982 112.386398C77.083511 111.825912,76.323364 111.510971,75.530670 111.510971C74.737976 111.510971,73.977829 111.825912,73.417358 112.386398C72.856873 112.946869,72.541931 113.707016,72.541931 114.499710C72.541931 115.292404,72.856873 116.052551,73.417358 116.613022C73.977829 117.173508,74.737976 117.488449,75.530670 117.488449C76.323364 117.488449,77.083511 117.173508,77.643982 116.613022C78.204468 116.052551,78.519409 115.292404,78.519409 114.499710Z" style="fill: rgb(100.000000%,100.000000%,100.000000%);stroke: none;"></path>
  <path d="M47.228943 138.836502C47.228943 138.043808,46.914001 137.283661,46.353516 136.723190C45.793045 136.162704,45.032898 135.847763,44.240204 135.847763C43.447510 135.847763,42.687363 136.162704,42.126892 136.723190C41.566406 137.283661,41.251465 138.043808,41.251465 138.836502C41.251465 139.629196,41.566406 140.389343,42.126892 140.949814C42.687363 141.510300,43.447510 141.825241,44.240204 141.825241C45.032898 141.825241,45.793045 141.510300,46.353516 140.949814C46.914001 140.389343,47.228943 139.629196,47.228943 138.836502Z" style="fill: rgb(100.000000%,100.000000%,100.000000%);stroke: none;"></path>
  <path d="M63.018845 127.582169C63.018845 126.789474,62.703903 126.029327,62.143417 125.468857C61.582947 124.908371,60.822800 124.593430,60.030106 124.593430C59.237411 124.593430,58.477264 124.908371,57.916794 125.468857C57.356308 126.029327,57.041367 126.789474,57.041367 127.582169C57.041367 128.374863,57.356308 129.135010,57.916794 129.695480C58.477264 130.255966,59.237411 130.570908,60.030106 130.570908C60.822800 130.570908,61.582947 130.255966,62.143417 129.695480C62.703903 129.135010,63.018845 128.374863,63.018845 127.582169Z" style="fill: rgb(100.000000%,100.000000%,100.000000%);stroke: none;"></path>
  <path d="M26.552170 165.308090C26.552170 164.515396,26.237228 163.755249,25.676743 163.194778C25.116272 162.634293,24.356125 162.319351,23.563431 162.319351C22.770737 162.319351,22.010590 162.634293,21.450119 163.194778C20.889633 163.755249,20.574692 164.515396,20.574692 165.308090C20.574692 166.100784,20.889633 166.860931,21.450119 167.421402C22.010590 167.981888,22.770737 168.296829,23.563431 168.296829C24.356125 168.296829,25.116272 167.981888,25.676743 167.421402C26.237228 166.860931,26.552170 166.100784,26.552170 165.308090Z" style="fill: rgb(100.000000%,100.000000%,100.000000%);stroke: none;"></path>
  <path d="M34.427780 142.793777C34.427780 142.001083,34.112839 141.240936,33.552353 140.680466C32.991882 140.119980,32.231735 139.805038,31.439041 139.805038C30.646347 139.805038,29.886200 140.119980,29.325729 140.680466C28.765244 141.240936,28.450302 142.001083,28.450302 142.793777C28.450302 143.586472,28.765244 144.346619,29.325729 144.907089C29.886200 145.467575,30.646347 145.782516,31.439041 145.782516C32.231735 145.782516,32.991882 145.467575,33.552353 144.907089C34.112839 144.346619,34.427780 143.586472,34.427780 142.793777Z" style="fill: rgb(100.000000%,100.000000%,100.000000%);stroke: none;"></path>
  <path d="M55.418503 190.390381C55.418503 189.597687,55.103561 188.837540,54.543076 188.277069C53.982605 187.716583,53.222458 187.401642,52.429764 187.401642C51.637070 187.401642,50.876923 187.716583,50.316452 188.277069C49.755966 188.837540,49.441025 189.597687,49.441025 190.390381C49.441025 191.183075,49.755966 191.943222,50.316452 192.503693C50.876923 193.064178,51.637070 193.379120,52.429764 193.379120C53.222458 193.379120,53.982605 193.064178,54.543076 192.503693C55.103561 191.943222,55.418503 191.183075,55.418503 190.390381Z" style="fill: rgb(100.000000%,100.000000%,100.000000%);stroke: none;"></path>
  <path d="M33.262741 177.010361C33.262741 176.217667,32.947800 175.457520,32.387314 174.897049C31.826843 174.336563,31.066696 174.021622,30.274002 174.021622C29.481308 174.021622,28.721161 174.336563,28.160690 174.897049C27.600204 175.457520,27.285263 176.217667,27.285263 177.010361C27.285263 177.803055,27.600204 178.563202,28.160690 179.123672C28.721161 179.684158,29.481308 179.999100,30.274002 179.999100C31.066696 179.999100,31.826843 179.684158,32.387314 179.123672C32.947800 178.563202,33.262741 177.803055,33.262741 177.010361Z" style="fill: rgb(100.000000%,100.000000%,100.000000%);stroke: none;"></path>
  <path d="M88.518265 175.974060C88.518265 175.181366,88.203323 174.421219,87.642838 173.860748C87.082367 173.300262,86.322220 172.985321,85.529526 172.985321C84.736832 172.985321,83.976685 173.300262,83.416214 173.860748C82.855728 174.421219,82.540787 175.181366,82.540787 175.974060C82.540787 176.766754,82.855728 177.526901,83.416214 178.087372C83.976685 178.647858,84.736832 178.962799,85.529526 178.962799C86.322220 178.962799,87.082367 178.647858,87.642838 178.087372C88.203323 177.526901,88.518265 176.766754,88.518265 175.974060Z" style="fill: rgb(100.000000%,100.000000%,100.000000%);stroke: none;"></path>
  <path d="M70.152939 190.666351C70.152939 189.873657,69.837997 189.113510,69.277512 188.553040C68.717041 187.992554,67.956894 187.677612,67.164200 187.677612C66.371506 187.677612,65.611359 187.992554,65.050888 188.553040C64.490402 189.113510,64.175461 189.873657,64.175461 190.666351C64.175461 191.459045,64.490402 192.219193,65.050888 192.779663C65.611359 193.340149,66.371506 193.655090,67.164200 193.655090C67.956894 193.655090,68.717041 193.340149,69.277512 192.779663C69.837997 192.219193,70.152939 191.459045,70.152939 190.666351Z" style="fill: rgb(100.000000%,100.000000%,100.000000%);stroke: none;"></path>
  <path d="M103.169006 152.089828C103.169006 151.297134,102.854065 150.536987,102.293579 149.976517C101.733109 149.416031,100.972961 149.101089,100.180267 149.101089C99.387573 149.101089,98.627426 149.416031,98.066956 149.976517C97.506470 150.536987,97.191528 151.297134,97.191528 152.089828C97.191528 152.882523,97.506470 153.642670,98.066956 154.203140C98.627426 154.763626,99.387573 155.078568,100.180267 155.078568C100.972961 155.078568,101.733109 154.763626,102.293579 154.203140C102.854065 153.642670,103.169006 152.882523,103.169006 152.089828Z" style="fill: rgb(100.000000%,100.000000%,100.000000%);stroke: none;"></path>
  <path d="M91.952805 165.903793C91.952805 165.111099,91.637863 164.350952,91.077377 163.790482C90.516907 163.229996,89.756760 162.915054,88.964066 162.915054C88.171371 162.915054,87.411224 163.229996,86.850754 163.790482C86.290268 164.350952,85.975327 165.111099,85.975327 165.903793C85.975327 166.696487,86.290268 167.456635,86.850754 168.017105C87.411224 168.577591,88.171371 168.892532,88.964066 168.892532C89.756760 168.892532,90.516907 168.577591,91.077377 168.017105C91.637863 167.456635,91.952805 166.696487,91.952805 165.903793Z" style="fill: rgb(100.000000%,100.000000%,100.000000%);stroke: none;"></path>
  <path d="M122.547043 136.856339C122.547043 136.063644,122.232101 135.303497,121.671616 134.743027C121.111145 134.182541,120.350998 133.867599,119.558304 133.867599C118.765610 133.867599,118.005463 134.182541,117.444992 134.743027C116.884506 135.303497,116.569565 136.063644,116.569565 136.856339C116.569565 137.649033,116.884506 138.409180,117.444992 138.969650C118.005463 139.530136,118.765610 139.845078,119.558304 139.845078C120.350998 139.845078,121.111145 139.530136,121.671616 138.969650C122.232101 138.409180,122.547043 137.649033,122.547043 136.856339Z" style="fill: rgb(100.000000%,100.000000%,100.000000%);stroke: none;"></path>
  <path d="M109.609726 147.632797C109.609726 146.840103,109.294785 146.079956,108.734299 145.519485C108.173828 144.959000,107.413681 144.644058,106.620987 144.644058C105.828293 144.644058,105.068146 144.959000,104.507675 145.519485C103.947189 146.079956,103.632248 146.840103,103.632248 147.632797C103.632248 148.425491,103.947189 149.185638,104.507675 149.746109C105.068146 150.306595,105.828293 150.621536,106.620987 150.621536C107.413681 150.621536,108.173828 150.306595,108.734299 149.746109C109.294785 149.185638,109.609726 148.425491,109.609726 147.632797Z" style="fill: rgb(100.000000%,100.000000%,100.000000%);stroke: none;"></path>
  <path d="M150.343903 119.438019C150.343903 118.645325,150.028961 117.885178,149.468475 117.324707C148.908005 116.764221,148.147858 116.449280,147.355164 116.449280C146.562469 116.449280,145.802322 116.764221,145.241852 117.324707C144.681366 117.885178,144.366425 118.645325,144.366425 119.438019C144.366425 120.230713,144.681366 120.990860,145.241852 121.551331C145.802322 122.111816,146.562469 122.426758,147.355164 122.426758C148.147858 122.426758,148.908005 122.111816,149.468475 121.551331C150.028961 120.990860,150.343903 120.230713,150.343903 119.438019Z" style="fill: rgb(100.000000%,100.000000%,100.000000%);stroke: none;"></path>
  <path d="M128.995148 130.236160C128.995148 129.443466,128.680206 128.683319,128.119720 128.122849C127.559250 127.562363,126.799103 127.247421,126.006409 127.247421C125.213715 127.247421,124.453568 127.562363,123.893097 128.122849C123.332611 128.683319,123.017670 129.443466,123.017670 130.236160C123.017670 131.028854,123.332611 131.789001,123.893097 132.349472C124.453568 132.909958,125.213715 133.224899,126.006409 133.224899C126.799103 133.224899,127.559250 132.909958,128.119720 132.349472C128.680206 131.789001,128.995148 131.028854,128.995148 130.236160Z" style="fill: rgb(100.000000%,100.000000%,100.000000%);stroke: none;"></path>
  <path d="M186.310013 136.803970C186.310013 136.011276,185.995071 135.251129,185.434586 134.690659C184.874115 134.130173,184.113968 133.815231,183.321274 133.815231C182.528580 133.815231,181.768433 134.130173,181.207962 134.690659C180.647476 135.251129,180.332535 136.011276,180.332535 136.803970C180.332535 137.596664,180.647476 138.356812,181.207962 138.917282C181.768433 139.477768,182.528580 139.792709,183.321274 139.792709C184.113968 139.792709,184.874115 139.477768,185.434586 138.917282C185.995071 138.356812,186.310013 137.596664,186.310013 136.803970Z" style="fill: rgb(100.000000%,100.000000%,100.000000%);stroke: none;"></path>
  <path d="M166.307495 120.165771C166.307495 119.373077,165.992554 118.612930,165.432068 118.052460C164.871597 117.491974,164.111450 117.177032,163.318756 117.177032C162.526062 117.177032,161.765915 117.491974,161.205444 118.052460C160.644958 118.612930,160.330017 119.373077,160.330017 120.165771C160.330017 120.958466,160.644958 121.718613,161.205444 122.279083C161.765915 122.839569,162.526062 123.154510,163.318756 123.154510C164.111450 123.154510,164.871597 122.839569,165.432068 122.279083C165.992554 121.718613,166.307495 120.958466,166.307495 120.165771Z" style="fill: rgb(100.000000%,100.000000%,100.000000%);stroke: none;"></path>
  <path d="M180.632660 169.286957C180.632660 168.494263,180.317719 167.734116,179.757233 167.173645C179.196762 166.613159,178.436615 166.298218,177.643921 166.298218C176.851227 166.298218,176.091080 166.613159,175.530609 167.173645C174.970123 167.734116,174.655182 168.494263,174.655182 169.286957C174.655182 170.079651,174.970123 170.839798,175.530609 171.400269C176.091080 171.960754,176.851227 172.275696,177.643921 172.275696C178.436615 172.275696,179.196762 171.960754,179.757233 171.400269C180.317719 170.839798,180.632660 170.079651,180.632660 169.286957Z" style="fill: rgb(100.000000%,100.000000%,100.000000%);stroke: none;"></path>
  <path d="M190.454666 148.481064C190.454666 147.688370,190.139725 146.928223,189.579239 146.367752C189.018768 145.807266,188.258621 145.492325,187.465927 145.492325C186.673233 145.492325,185.913086 145.807266,185.352615 146.367752C184.792130 146.928223,184.477188 147.688370,184.477188 148.481064C184.477188 149.273758,184.792130 150.033905,185.352615 150.594376C185.913086 151.154861,186.673233 151.469803,187.465927 151.469803C188.258621 151.469803,189.018768 151.154861,189.579239 150.594376C190.139725 150.033905,190.454666 149.273758,190.454666 148.481064Z" style="fill: rgb(100.000000%,100.000000%,100.000000%);stroke: none;"></path>
  <path d="M146.531326 167.932159C146.531326 167.139465,146.216385 166.379318,145.655899 165.818848C145.095428 165.258362,144.335281 164.943420,143.542587 164.943420C142.749893 164.943420,141.989746 165.258362,141.429276 165.818848C140.868790 166.379318,140.553848 167.139465,140.553848 167.932159C140.553848 168.724854,140.868790 169.485001,141.429276 170.045471C141.989746 170.605957,142.749893 170.920898,143.542587 170.920898C144.335281 170.920898,145.095428 170.605957,145.655899 170.045471C146.216385 169.485001,146.531326 168.724854,146.531326 167.932159Z" style="fill: rgb(100.000000%,100.000000%,100.000000%);stroke: none;"></path>
  <path d="M167.699875 173.309570C167.699875 172.516876,167.384933 171.756729,166.824448 171.196259C166.263977 170.635773,165.503830 170.320831,164.711136 170.320831C163.918442 170.320831,163.158295 170.635773,162.597824 171.196259C162.037338 171.756729,161.722397 172.516876,161.722397 173.309570C161.722397 174.102264,162.037338 174.862411,162.597824 175.422882C163.158295 175.983368,163.918442 176.298309,164.711136 176.298309C165.503830 176.298309,166.263977 175.983368,166.824448 175.422882C167.384933 174.862411,167.699875 174.102264,167.699875 173.309570Z" style="fill: rgb(100.000000%,100.000000%,100.000000%);stroke: none;"></path>
  <path d="M126.252121 151.417236C126.252121 150.624542,125.937180 149.864395,125.376694 149.303925C124.816223 148.743439,124.056076 148.428497,123.263382 148.428497C122.470688 148.428497,121.710541 148.743439,121.150070 149.303925C120.589584 149.864395,120.274643 150.624542,120.274643 151.417236C120.274643 152.209930,120.589584 152.970078,121.150070 153.530548C121.710541 154.091034,122.470688 154.405975,123.263382 154.405975C124.056076 154.405975,124.816223 154.091034,125.376694 153.530548C125.937180 152.970078,126.252121 152.209930,126.252121 151.417236Z" style="fill: rgb(100.000000%,100.000000%,100.000000%);stroke: none;"></path>
  <path d="M138.925537 161.852966C138.925537 161.060272,138.610596 160.300125,138.050110 159.739655C137.489639 159.179169,136.729492 158.864227,135.936798 158.864227C135.144104 158.864227,134.383957 159.179169,133.823486 159.739655C133.263000 160.300125,132.948059 161.060272,132.948059 161.852966C132.948059 162.645660,133.263000 163.405807,133.823486 163.966278C134.383957 164.526764,135.144104 164.841705,135.936798 164.841705C136.729492 164.841705,137.489639 164.526764,138.050110 163.966278C138.610596 163.405807,138.925537 162.645660,138.925537 161.852966Z" style="fill: rgb(100.000000%,100.000000%,100.000000%);stroke: none;"></path>
  <path d="M109.088516 137.501190C109.088516 136.708496,108.773575 135.948349,108.213089 135.387878C107.652618 134.827393,106.892471 134.512451,106.099777 134.512451C105.307083 134.512451,104.546936 134.827393,103.986465 135.387878C103.425980 135.948349,103.111038 136.708496,103.111038 137.501190C103.111038 138.293884,103.425980 139.054031,103.986465 139.614502C104.546936 140.174988,105.307083 140.489929,106.099777 140.489929C106.892471 140.489929,107.652618 140.174988,108.213089 139.614502C108.773575 139.054031,109.088516 138.293884,109.088516 137.501190Z" style="fill: rgb(100.000000%,100.000000%,100.000000%);stroke: none;"></path>
  <path d="M120.949707 146.992691C120.949707 146.199997,120.634766 145.439850,120.074280 144.879379C119.513809 144.318893,118.753662 144.003952,117.960968 144.003952C117.168274 144.003952,116.408127 144.318893,115.847656 144.879379C115.287170 145.439850,114.972229 146.199997,114.972229 146.992691C114.972229 147.785385,115.287170 148.545532,115.847656 149.106003C116.408127 149.666489,117.168274 149.981430,117.960968 149.981430C118.753662 149.981430,119.513809 149.666489,120.074280 149.106003C120.634766 148.545532,120.949707 147.785385,120.949707 146.992691Z" style="fill: rgb(100.000000%,100.000000%,100.000000%);stroke: none;"></path>
  <path d="M88.846237 123.657349C88.846237 122.864655,88.531296 122.104507,87.970810 121.544037C87.410339 120.983551,86.650192 120.668610,85.857498 120.668610C85.064804 120.668610,84.304657 120.983551,83.744186 121.544037C83.183701 122.104507,82.868759 122.864655,82.868759 123.657349C82.868759 124.450043,83.183701 125.210190,83.744186 125.770660C84.304657 126.331146,85.064804 126.646088,85.857498 126.646088C86.650192 126.646088,87.410339 126.331146,87.970810 125.770660C88.531296 125.210190,88.846237 124.450043,88.846237 123.657349Z" style="fill: rgb(100.000000%,100.000000%,100.000000%);stroke: none;"></path>
  <path d="M102.487930 132.480942C102.487930 131.688248,102.172989 130.928101,101.612503 130.367630C101.052032 129.807144,100.291885 129.492203,99.499191 129.492203C98.706497 129.492203,97.946350 129.807144,97.385880 130.367630C96.825394 130.928101,96.510452 131.688248,96.510452 132.480942C96.510452 133.273636,96.825394 134.033783,97.385880 134.594254C97.946350 135.154739,98.706497 135.469681,99.499191 135.469681C100.291885 135.469681,101.052032 135.154739,101.612503 134.594254C102.172989 134.033783,102.487930 133.273636,102.487930 132.480942Z" style="fill: rgb(100.000000%,100.000000%,100.000000%);stroke: none;"></path>
  <path d="M69.570557 116.028122C69.570557 115.235428,69.255615 114.475281,68.695129 113.914810C68.134659 113.354324,67.374512 113.039383,66.581818 113.039383C65.789124 113.039383,65.028976 113.354324,64.468506 113.914810C63.908020 114.475281,63.593079 115.235428,63.593079 116.028122C63.593079 116.820816,63.908020 117.580963,64.468506 118.141434C65.028976 118.701920,65.789124 119.016861,66.581818 119.016861C67.374512 119.016861,68.134659 118.701920,68.695129 118.141434C69.255615 117.580963,69.570557 116.820816,69.570557 116.028122Z" style="fill: rgb(100.000000%,100.000000%,100.000000%);stroke: none;"></path>
  <path d="M81.821503 119.813141C81.821503 119.020447,81.506561 118.260300,80.946075 117.699829C80.385605 117.139343,79.625458 116.824402,78.832764 116.824402C78.040070 116.824402,77.279922 117.139343,76.719452 117.699829C76.158966 118.260300,75.844025 119.020447,75.844025 119.813141C75.844025 120.605835,76.158966 121.365982,76.719452 121.926453C77.279922 122.486938,78.040070 122.801880,78.832764 122.801880C79.625458 122.801880,80.385605 122.486938,80.946075 121.926453C81.506561 121.365982,81.821503 120.605835,81.821503 119.813141Z" style="fill: rgb(100.000000%,100.000000%,100.000000%);stroke: none;"></path>
  <path d="M62.501526 105.705887C62.501526 104.913193,62.186584 104.153046,61.626099 103.592575C61.065628 103.032089,60.305481 102.717148,59.512787 102.717148C58.720093 102.717148,57.959946 103.032089,57.399475 103.592575C56.838989 104.153046,56.524048 104.913193,56.524048 105.705887C56.524048 106.498581,56.838989 107.258728,57.399475 107.819199C57.959946 108.379684,58.720093 108.694626,59.512787 108.694626C60.305481 108.694626,61.065628 108.379684,61.626099 107.819199C62.186584 107.258728,62.501526 106.498581,62.501526 105.705887Z" style="fill: rgb(100.000000%,100.000000%,100.000000%);stroke: none;"></path>
  <path d="M64.377594 114.434952C64.377594 113.642258,64.062653 112.882111,63.502167 112.321640C62.941696 111.761154,62.181549 111.446213,61.388855 111.446213C60.596161 111.446213,59.836014 111.761154,59.275543 112.321640C58.715057 112.882111,58.400116 113.642258,58.400116 114.434952C58.400116 115.227646,58.715057 115.987793,59.275543 116.548264C59.836014 117.108749,60.596161 117.423691,61.388855 117.423691C62.181549 117.423691,62.941696 117.108749,63.502167 116.548264C64.062653 115.987793,64.377594 115.227646,64.377594 114.434952Z" style="fill: rgb(100.000000%,100.000000%,100.000000%);stroke: none;"></path>
  <path d="M74.052963 95.440857C74.052963 94.648163,73.738022 93.888016,73.177536 93.327545C72.617065 92.767059,71.856918 92.452118,71.064224 92.452118C70.271530 92.452118,69.511383 92.767059,68.950912 93.327545C68.390427 93.888016,68.075485 94.648163,68.075485 95.440857C68.075485 96.233551,68.390427 96.993698,68.950912 97.554169C69.511383 98.114655,70.271530 98.429596,71.064224 98.429596C71.856918 98.429596,72.617065 98.114655,73.177536 97.554169C73.738022 96.993698,74.052963 96.233551,74.052963 95.440857Z" style="fill: rgb(100.000000%,100.000000%,100.000000%);stroke: none;"></path>
  <path d="M65.683304 102.218323C65.683304 101.425629,65.368362 100.665482,64.807877 100.105011C64.247406 99.544525,63.487259 99.229584,62.694565 99.229584C61.901871 99.229584,61.141724 99.544525,60.581253 100.105011C60.020767 100.665482,59.705826 101.425629,59.705826 102.218323C59.705826 103.011017,60.020767 103.771164,60.581253 104.331635C61.141724 104.892120,61.901871 105.207062,62.694565 105.207062C63.487259 105.207062,64.247406 104.892120,64.807877 104.331635C65.368362 103.771164,65.683304 103.011017,65.683304 102.218323Z" style="fill: rgb(100.000000%,100.000000%,100.000000%);stroke: none;"></path>
  <path d="M77.088669 84.839615C77.452621 78.564056,77.423019 72.271851,77.000000 66.000000C76.573212 59.672226,75.747131 53.381134,74.894730 47.097015C73.610184 37.626999,72.391251 27.676437,77.000000 19.291382C84.336334 5.943832,101.522980 2.451080,116.130768 8.513992C129.071503 13.884995,138.336823 26.120178,136.272278 39.621384C134.140930 53.559448,121.050537 62.324463,106.770630 64.931427C96.970139 66.720627,86.950012 65.876251,77.000000 66.000000C69.069839 66.098618,61.159500 66.816299,53.229370 66.916153C40.528885 67.076065,27.022476 65.977325,16.765549 73.539398C4.026306 82.931595,2.286179 100.255112,4.214844 116.292114C6.168915 132.540359,12.377930 149.179520,27.480774 154.109421C38.543442 157.720520,51.595200 152.855530,61.321671 159.670868C69.107147 165.126144,70.818130 175.781235,77.649750 182.277893C88.243301 192.352066,104.253937 188.918900,118.861069 187.041336C132.874222 185.240128,148.705933 183.259369,152.780670 170.278900C155.002533 163.200943,151.801849 155.339279,154.613968 148.435791C158.199158 139.634460,169.097870 137.090271,174.620590 129.566696C184.804962 115.692581,173.516800 98.568436,165.862579 82.672577C157.930588 66.199860,153.570663 45.831314,136.272278 39.621384C125.259293 35.667847,112.843536 40.012711,101.876068 35.911972C92.426254 32.378677,86.220535 23.334564,77.000000 19.291382C61.048340 12.296631,43.607468 20.906189,30.559784 33.236450C18.852234 44.300262,10.208878 59.596924,16.765549 73.539398C21.915619 84.490814,34.391998 88.528397,45.678207 92.927948C52.352203 95.529587,58.937973 98.572128,66.052246 99.499390C71.739410 100.240646,78.266693 100.952591,79.391388 106.265289C80.427200 111.158081,75.530670 114.499710,71.223160 117.462097C65.002884 121.739944,60.030106 127.582169,53.883698 131.963058C44.240204 138.836502,31.439041 142.793777,27.480774 154.109421C23.563431 165.308090,30.274002 177.010361,40.803787 183.369370C52.429764 190.390381,67.164200 190.666351,77.649750 182.277893C85.529526 175.974060,88.964066 165.903793,95.293869 158.107956C100.180267 152.089828,106.620987 147.632797,112.569183 142.678101C119.558304 136.856339,126.006409 130.236160,134.138321 126.123062C147.355164 119.438019,163.318756 120.165771,174.620590 129.566696C183.321274 136.803970,187.465927 148.481064,182.742188 158.487320C177.643921 169.286957,164.711136 173.309570,152.780670 170.278900C143.542587 167.932159,135.936798 161.852966,128.594208 155.806824C123.263382 151.417236,117.960968 146.992691,112.569183 142.678101C106.099777 137.501190,99.499191 132.480942,92.541245 127.980469C85.857498 123.657349,78.832764 119.813141,71.223160 117.462097C66.581818 116.028122,61.388855 114.434952,60.394363 109.807739C59.512787 105.705887,62.694565 102.218323,66.052246 99.499390C71.064224 95.440857,76.717026 91.247681,77.088669 84.839615" style="stroke:rgb(0.000000%,0.000000%,0.000000%); stroke-width: 0.498138;stroke-linecap: round;stroke-linejoin: round;stroke-miterlimit: 10.000000;fill: none;"></path>
  <path d="M77.088669 84.839615C77.452621 78.564056,77.423019 72.271851,77.000000 66.000000C76.573212 59.672226,75.747131 53.381134,74.894730 47.097015C73.610184 37.626999,72.391251 27.676437,77.000000 19.291382" style="stroke:rgb(0.000000%,0.000000%,0.000000%); stroke-width: 1.494400;stroke-linecap: round;stroke-linejoin: round;stroke-miterlimit: 10.000000;fill: none;"></path>
  <path d="M66.052246 99.499390C71.064224 95.440857,76.717026 91.247681,77.088669 84.839615" style="stroke:rgb(0.000000%,0.000000%,0.000000%); stroke-width: 1.494400;stroke-linecap: round;stroke-linejoin: round;stroke-miterlimit: 10.000000;fill: none;"></path>
  <path d="M79.988739 66.000000C79.988739 65.207306,79.673798 64.447159,79.113312 63.886688C78.552841 63.326202,77.792694 63.011261,77.000000 63.011261C76.207306 63.011261,75.447159 63.326202,74.886688 63.886688C74.326202 64.447159,74.011261 65.207306,74.011261 66.000000C74.011261 66.792694,74.326202 67.552841,74.886688 68.113312C75.447159 68.673798,76.207306 68.988739,77.000000 68.988739C77.792694 68.988739,78.552841 68.673798,79.113312 68.113312C79.673798 67.552841,79.988739 66.792694,79.988739 66.000000Z" style="fill: rgb(100.000000%,100.000000%,100.000000%);stroke: none;"></path>
  <path d="M77.339447 75.418411C77.324661 72.276932,77.211502 69.135925,77.000000 66.000000C76.786606 62.836105,76.473389 59.681381,76.106964 56.532120" style="stroke:rgb(0.000000%,0.000000%,0.000000%); stroke-width: 1.494400;stroke-linecap: round;stroke-linejoin: round;stroke-miterlimit: 10.000000;fill: none;"></path>
  <path d="M139.261017 39.621384C139.261017 38.828690,138.946075 38.068542,138.385590 37.508072C137.825119 36.947586,137.064972 36.632645,136.272278 36.632645C135.479584 36.632645,134.719437 36.947586,134.158966 37.508072C133.598480 38.068542,133.283539 38.828690,133.283539 39.621384C133.283539 40.414078,133.598480 41.174225,134.158966 41.734695C134.719437 42.295181,135.479584 42.610123,136.272278 42.610123C137.064972 42.610123,137.825119 42.295181,138.385590 41.734695C138.946075 41.174225,139.261017 40.414078,139.261017 39.621384Z" style="fill: rgb(100.000000%,100.000000%,100.000000%);stroke: none;"></path>
  <path d="M131.828506 21.018875C135.504364 26.436691,137.304550 32.870789,136.272278 39.621384C135.206604 46.590424,131.401169 52.266190,126.077164 56.525574" style="stroke:rgb(0.000000%,0.000000%,0.000000%); stroke-width: 0.498138;stroke-linecap: round;stroke-linejoin: round;stroke-miterlimit: 10.000000;fill: none;"></path>
  <path d="M19.754288 73.539398C19.754288 72.746704,19.439346 71.986557,18.878860 71.426086C18.318390 70.865601,17.558243 70.550659,16.765549 70.550659C15.972855 70.550659,15.212708 70.865601,14.652237 71.426086C14.091751 71.986557,13.776810 72.746704,13.776810 73.539398C13.776810 74.332092,14.091751 75.092239,14.652237 75.652710C15.212708 76.213196,15.972855 76.528137,16.765549 76.528137C17.558243 76.528137,18.318390 76.213196,18.878860 75.652710C19.439346 75.092239,19.754288 74.332092,19.754288 73.539398Z" style="fill: rgb(100.000000%,100.000000%,100.000000%);stroke: none;"></path>
  <path d="M34.081116 67.451965C27.834839 68.142532,21.894012 69.758362,16.765549 73.539398C10.395920 78.235504,6.776077 84.914429,4.989731 92.423965" style="stroke:rgb(0.000000%,0.000000%,0.000000%); stroke-width: 0.498138;stroke-linecap: round;stroke-linejoin: round;stroke-miterlimit: 10.000000;fill: none;"></path>
  <path d="M80.638489 182.277893C80.638489 181.485199,80.323547 180.725052,79.763062 180.164581C79.202591 179.604095,78.442444 179.289154,77.649750 179.289154C76.857056 179.289154,76.096909 179.604095,75.536438 180.164581C74.975952 180.725052,74.661011 181.485199,74.661011 182.277893C74.661011 183.070587,74.975952 183.830734,75.536438 184.391205C76.096909 184.951691,76.857056 185.266632,77.649750 185.266632C78.442444 185.266632,79.202591 184.951691,79.763062 184.391205C80.323547 183.830734,80.638489 183.070587,80.638489 182.277893Z" style="fill: rgb(100.000000%,100.000000%,100.000000%);stroke: none;"></path>
  <path d="M69.843414 170.583878C72.098297 174.741638,74.233948 179.029572,77.649750 182.277893C82.946533 187.314987,89.597580 188.975235,96.750336 189.141525" style="stroke:rgb(0.000000%,0.000000%,0.000000%); stroke-width: 0.498138;stroke-linecap: round;stroke-linejoin: round;stroke-miterlimit: 10.000000;fill: none;"></path>
  <path d="M177.609329 129.566696C177.609329 128.774002,177.294388 128.013855,176.733902 127.453384C176.173431 126.892899,175.413284 126.577957,174.620590 126.577957C173.827896 126.577957,173.067749 126.892899,172.507278 127.453384C171.946793 128.013855,171.631851 128.774002,171.631851 129.566696C171.631851 130.359390,171.946793 131.119537,172.507278 131.680008C173.067749 132.240494,173.827896 132.555435,174.620590 132.555435C175.413284 132.555435,176.173431 132.240494,176.733902 131.680008C177.294388 131.119537,177.609329 130.359390,177.609329 129.566696Z" style="fill: rgb(100.000000%,100.000000%,100.000000%);stroke: none;"></path>
  <path d="M163.890717 138.522079C167.753876 135.845413,171.859238 133.328476,174.620590 129.566696C179.712784 122.629639,179.436829 114.880066,176.931046 106.877777" style="stroke:rgb(0.000000%,0.000000%,0.000000%); stroke-width: 0.498138;stroke-linecap: round;stroke-linejoin: round;stroke-miterlimit: 10.000000;fill: none;"></path>
  <path d="M79.988739 19.291382C79.988739 18.498688,79.673798 17.738541,79.113312 17.178070C78.552841 16.617584,77.792694 16.302643,77.000000 16.302643C76.207306 16.302643,75.447159 16.617584,74.886688 17.178070C74.326202 17.738541,74.011261 18.498688,74.011261 19.291382C74.011261 20.084076,74.326202 20.844223,74.886688 21.404694C75.447159 21.965179,76.207306 22.280121,77.000000 22.280121C77.792694 22.280121,78.552841 21.965179,79.113312 21.404694C79.673798 20.844223,79.988739 20.084076,79.988739 19.291382Z" style="fill: rgb(100.000000%,100.000000%,100.000000%);stroke: none;"></path>
  <path d="M89.352051 27.792877C85.466827 24.584793,81.610260 21.312973,77.000000 19.291382C69.024170 15.794006,60.676025 16.197708,52.690887 19.017044" style="stroke:rgb(0.000000%,0.000000%,0.000000%); stroke-width: 0.498138;stroke-linecap: round;stroke-linejoin: round;stroke-miterlimit: 10.000000;fill: none;"></path>
  <path d="M69.040985 99.499390C69.040985 98.706696,68.726044 97.946548,68.165558 97.386078C67.605087 96.825592,66.844940 96.510651,66.052246 96.510651C65.259552 96.510651,64.499405 96.825592,63.938934 97.386078C63.378448 97.946548,63.063507 98.706696,63.063507 99.499390C63.063507 100.292084,63.378448 101.052231,63.938934 101.612701C64.499405 102.173187,65.259552 102.488129,66.052246 102.488129C66.844940 102.488129,67.605087 102.173187,68.165558 101.612701C68.726044 101.052231,69.040985 100.292084,69.040985 99.499390Z" style="fill: rgb(100.000000%,100.000000%,100.000000%);stroke: none;"></path>
  <path d="M55.700134 96.841568C59.070114 98.043320,62.495117 99.035767,66.052246 99.499390C68.895828 99.870026,71.949448 100.233322,74.432755 101.168060" style="stroke:rgb(0.000000%,0.000000%,0.000000%); stroke-width: 0.498138;stroke-linecap: round;stroke-linejoin: round;stroke-miterlimit: 10.000000;fill: none;"></path>
  <path d="M30.469513 154.109421C30.469513 153.316727,30.154572 152.556580,29.594086 151.996109C29.033615 151.435623,28.273468 151.120682,27.480774 151.120682C26.688080 151.120682,25.927933 151.435623,25.367462 151.996109C24.806976 152.556580,24.492035 153.316727,24.492035 154.109421C24.492035 154.902115,24.806976 155.662262,25.367462 156.222733C25.927933 156.783218,26.688080 157.098160,27.480774 157.098160C28.273468 157.098160,29.033615 156.783218,29.594086 156.222733C30.154572 155.662262,30.469513 154.902115,30.469513 154.109421Z" style="fill: rgb(100.000000%,100.000000%,100.000000%);stroke: none;"></path>
  <path d="M38.550262 141.370422C33.649750 144.633377,29.459900 148.451599,27.480774 154.109421C25.522095 159.708755,26.220413 165.433990,28.724609 170.554276" style="stroke:rgb(0.000000%,0.000000%,0.000000%); stroke-width: 0.498138;stroke-linecap: round;stroke-linejoin: round;stroke-miterlimit: 10.000000;fill: none;"></path>
  <path d="M115.557922 142.678101C115.557922 141.885406,115.242981 141.125259,114.682495 140.564789C114.122025 140.004303,113.361877 139.689362,112.569183 139.689362C111.776489 139.689362,111.016342 140.004303,110.455872 140.564789C109.895386 141.125259,109.580444 141.885406,109.580444 142.678101C109.580444 143.470795,109.895386 144.230942,110.455872 144.791412C111.016342 145.351898,111.776489 145.666840,112.569183 145.666840C113.361877 145.666840,114.122025 145.351898,114.682495 144.791412C115.242981 144.230942,115.557922 143.470795,115.557922 142.678101Z" style="fill: rgb(100.000000%,100.000000%,100.000000%);stroke: none;"></path>
  <path d="M103.533371 149.994232C106.497864 147.508377,109.595093 145.155441,112.569183 142.678101C116.063751 139.767212,119.423065 136.656723,122.925217 133.759827" style="stroke:rgb(0.000000%,0.000000%,0.000000%); stroke-width: 0.498138;stroke-linecap: round;stroke-linejoin: round;stroke-miterlimit: 10.000000;fill: none;"></path>
  <path d="M155.769409 170.278900C155.769409 169.486206,155.454468 168.726059,154.893982 168.165588C154.333511 167.605103,153.573364 167.290161,152.780670 167.290161C151.987976 167.290161,151.227829 167.605103,150.667358 168.165588C150.106873 168.726059,149.791931 169.486206,149.791931 170.278900C149.791931 171.071594,150.106873 171.831741,150.667358 172.392212C151.227829 172.952698,151.987976 173.267639,152.780670 173.267639C153.573364 173.267639,154.333511 172.952698,154.893982 172.392212C155.454468 171.831741,155.769409 171.071594,155.769409 170.278900Z" style="fill: rgb(100.000000%,100.000000%,100.000000%);stroke: none;"></path>
  <path d="M170.323486 169.569489C164.961700 171.546249,158.745895 171.794235,152.780670 170.278900C148.161621 169.105530,143.950653 166.999039,139.976624 164.430130" style="stroke:rgb(0.000000%,0.000000%,0.000000%); stroke-width: 0.498138;stroke-linecap: round;stroke-linejoin: round;stroke-miterlimit: 10.000000;fill: none;"></path>
  <path d="M74.211899 117.462097C74.211899 116.669403,73.896957 115.909256,73.336472 115.348785C72.776001 114.788300,72.015854 114.473358,71.223160 114.473358C70.430466 114.473358,69.670319 114.788300,69.109848 115.348785C68.549362 115.909256,68.234421 116.669403,68.234421 117.462097C68.234421 118.254791,68.549362 119.014938,69.109848 119.575409C69.670319 120.135895,70.430466 120.450836,71.223160 120.450836C72.015854 120.450836,72.776001 120.135895,73.336472 119.575409C73.896957 119.014938,74.211899 118.254791,74.211899 117.462097Z" style="fill: rgb(100.000000%,100.000000%,100.000000%);stroke: none;"></path>
  <path d="M82.229385 121.981750C78.686539 120.186432,75.027954 118.637619,71.223160 117.462097C68.902481 116.745102,66.443909 115.988312,64.441177 114.832367" style="stroke:rgb(0.000000%,0.000000%,0.000000%); stroke-width: 0.498138;stroke-linecap: round;stroke-linejoin: round;stroke-miterlimit: 10.000000;fill: none;"></path>
  <path d="M77.088669 84.839615C77.379837 79.819153,77.419113 74.788025,77.206604 69.765198" style="stroke:rgb(0.000000%,0.000000%,0.000000%); stroke-width: 0.498138;stroke-linecap: round;stroke-linejoin: round;stroke-miterlimit: 10.000000;fill: none;"></path>
  <path d="M79.238007 74.333923C78.586273 72.800018,77.909042 71.276886,77.206604 69.765198C76.634354 71.330811,76.036194 72.886688,75.412354 74.432159Z" style="stroke:rgb(0.000000%,0.000000%,0.000000%); stroke-width: 0.498138;fill: rgb(0.000000%,0.000000%,0.000000%);"></path>
  <path d="M77.088669 84.839615C77.379837 79.819153,77.419113 74.788025,77.206604 69.765198" style="stroke:rgb(0.000000%,0.000000%,0.000000%); stroke-width: 0.498138;stroke-linecap: round;stroke-linejoin: round;stroke-miterlimit: 10.000000;fill: none;"></path>
  <path d="M78.443619 72.498245C78.040390 71.583191,77.628036 70.672150,77.206604 69.765198C76.863266 70.704498,76.510635 71.640289,76.148697 72.572433Z" style="stroke:rgb(0.000000%,0.000000%,0.000000%); stroke-width: 0.498138;fill: rgb(0.000000%,0.000000%,0.000000%);"></path>
  <path d="M116.130768 8.513992C126.483398 12.810806,134.483734 21.500732,136.212677 31.717484" style="stroke:rgb(0.000000%,0.000000%,0.000000%); stroke-width: 0.498138;stroke-linecap: round;stroke-linejoin: round;stroke-miterlimit: 10.000000;fill: none;"></path>
  <path d="M134.470291 29.275558C135.097076 30.053101,135.679306 30.867416,136.212677 31.717484C136.436630 30.739243,136.600769 29.751740,136.707382 28.758743Z" style="stroke:rgb(0.000000%,0.000000%,0.000000%); stroke-width: 0.498138;fill: rgb(0.000000%,0.000000%,0.000000%);"></path>
  <path d="M53.229370 66.916153C43.068939 67.044083,32.392715 66.366470,23.277100 69.962143" style="stroke:rgb(0.000000%,0.000000%,0.000000%); stroke-width: 0.498138;stroke-linecap: round;stroke-linejoin: round;stroke-miterlimit: 10.000000;fill: none;"></path>
  <path d="M25.526535 67.977386C24.747391 68.606842,23.996216 69.267044,23.277100 69.962143C24.277100 69.979141,25.275101 70.043488,26.271103 70.149353Z" style="stroke:rgb(0.000000%,0.000000%,0.000000%); stroke-width: 0.498138;fill: rgb(0.000000%,0.000000%,0.000000%);"></path>
  <path d="M61.321671 159.670868C67.550079 164.035110,69.890778 171.727249,74.075745 177.955826" style="stroke:rgb(0.000000%,0.000000%,0.000000%); stroke-width: 0.498138;stroke-linecap: round;stroke-linejoin: round;stroke-miterlimit: 10.000000;fill: none;"></path>
  <path d="M71.637650 176.207565C72.435577 176.816284,73.245575 177.404205,74.075745 177.955826C73.878784 176.978760,73.721771 175.990265,73.587997 174.995621Z" style="stroke:rgb(0.000000%,0.000000%,0.000000%); stroke-width: 0.498138;fill: rgb(0.000000%,0.000000%,0.000000%);"></path>
  <path d="M154.613968 148.435791C157.482132 141.394699,165.030991 138.358215,170.763428 133.573151" style="stroke:rgb(0.000000%,0.000000%,0.000000%); stroke-width: 0.498138;stroke-linecap: round;stroke-linejoin: round;stroke-miterlimit: 10.000000;fill: none;"></path>
  <path d="M169.271957 136.176239C169.797867 135.320435,170.301514 134.454971,170.763428 133.573151C169.813263 133.870041,168.845139 134.125885,167.868118 134.359131Z" style="stroke:rgb(0.000000%,0.000000%,0.000000%); stroke-width: 0.498138;fill: rgb(0.000000%,0.000000%,0.000000%);"></path>
  <path d="M101.876068 35.911972C94.316193 33.085327,88.832535 26.731720,82.220535 22.233246" style="stroke:rgb(0.000000%,0.000000%,0.000000%); stroke-width: 0.498138;stroke-linecap: round;stroke-linejoin: round;stroke-miterlimit: 10.000000;fill: none;"></path>
  <path d="M85.138412 22.930130C84.169800 22.672440,83.197754 22.436127,82.220535 22.233246C82.768066 23.067719,83.288300 23.922165,83.790970 24.789291Z" style="stroke:rgb(0.000000%,0.000000%,0.000000%); stroke-width: 0.498138;fill: rgb(0.000000%,0.000000%,0.000000%);"></path>
  <path d="M79.391388 106.265289C80.220047 110.179535,77.251968 113.101028,73.826157 115.629807" style="stroke:rgb(0.000000%,0.000000%,0.000000%); stroke-width: 0.498138;stroke-linecap: round;stroke-linejoin: round;stroke-miterlimit: 10.000000;fill: none;"></path>
  <path d="M75.257645 112.993454C74.843338 113.876373,74.351105 114.758438,73.826157 115.629807C74.813507 115.384872,75.785294 115.109222,76.702560 114.777878Z" style="stroke:rgb(0.000000%,0.000000%,0.000000%); stroke-width: 0.498138;fill: rgb(0.000000%,0.000000%,0.000000%);"></path>
  <path d="M53.883698 131.963058C46.168869 137.461838,36.433121 141.094254,30.820801 148.120926" style="stroke:rgb(0.000000%,0.000000%,0.000000%); stroke-width: 0.498138;stroke-linecap: round;stroke-linejoin: round;stroke-miterlimit: 10.000000;fill: none;"></path>
  <path d="M31.831177 145.296021C31.438370 146.220718,31.098083 147.161209,30.820801 148.120926C31.695496 147.638382,32.601151 147.214005,33.532776 146.837921Z" style="stroke:rgb(0.000000%,0.000000%,0.000000%); stroke-width: 0.498138;fill: rgb(0.000000%,0.000000%,0.000000%);"></path>
  <path d="M95.293869 158.107956C99.203003 153.293442,104.106903 149.478027,108.957596 145.607620" style="stroke:rgb(0.000000%,0.000000%,0.000000%); stroke-width: 0.498138;stroke-linecap: round;stroke-linejoin: round;stroke-miterlimit: 10.000000;fill: none;"></path>
  <path d="M107.507401 148.233749C107.988800 147.357574,108.474106 146.482971,108.957596 145.607620C107.996750 145.884705,107.035156 146.159943,106.075180 146.439072Z" style="stroke:rgb(0.000000%,0.000000%,0.000000%); stroke-width: 0.498138;fill: rgb(0.000000%,0.000000%,0.000000%);"></path>
  <path d="M182.742188 158.487320C178.663559 167.127060,169.570801 171.429474,159.988434 171.253113" style="stroke:rgb(0.000000%,0.000000%,0.000000%); stroke-width: 0.498138;stroke-linecap: round;stroke-linejoin: round;stroke-miterlimit: 10.000000;fill: none;"></path>
  <path d="M162.723373 170.020065C161.838821 170.473251,160.925598 170.884979,159.988434 171.253113C160.911407 171.655487,161.848282 172.010117,162.794205 172.315170Z" style="stroke:rgb(0.000000%,0.000000%,0.000000%); stroke-width: 0.498138;fill: rgb(0.000000%,0.000000%,0.000000%);"></path>
  <path d="M60.394363 109.807739C59.689102 106.526245,61.584396 103.637909,64.089874 101.221725" style="stroke:rgb(0.000000%,0.000000%,0.000000%); stroke-width: 0.498138;stroke-linecap: round;stroke-linejoin: round;stroke-miterlimit: 10.000000;fill: none;"></path>
  <path d="M63.105743 104.055664C63.339722 103.107605,63.682892 102.155975,64.089874 101.221725C63.141479 101.594543,62.225891 102.024780,61.390076 102.529694Z" style="stroke:rgb(0.000000%,0.000000%,0.000000%); stroke-width: 0.498138;fill: rgb(0.000000%,0.000000%,0.000000%);"></path>
  <path d="M71.904083 49.807220L77.885376 49.807220L77.885376 42.386826L71.904083 42.386826Z" style="fill: rgb(100.000000%,100.000000%,100.000000%);stroke: none;"></path>
  <path d="M71.904083 51.807220L77.885376 51.807220L77.885376 44.386826L71.904083 44.386826Z" style="fill: rgb(100.000000%,100.000000%,100.000000%);stroke: none;"></path>
  <g transform="translate(72.404083 50.307220)" style="fill: rgb(0.000000%,0.000000%,0.000000%);">
    <use xlink:href="#GLYPHcmr10_49"></use>
  </g>
  <path d="M103.779984 67.641632L109.761276 67.641632L109.761276 60.221237L103.779984 60.221237Z" style="fill: rgb(100.000000%,100.000000%,100.000000%);stroke: none;"></path>
  <path d="M103.779984 69.641632L109.761276 69.641632L109.761276 62.221237L103.779984 62.221237Z" style="fill: rgb(100.000000%,100.000000%,100.000000%);stroke: none;"></path>
  <g transform="translate(104.279984 68.141632)" style="fill: rgb(0.000000%,0.000000%,0.000000%);">
    <use xlink:href="#GLYPHcmr10_50"></use>
  </g>
  <path d="M1.224197 119.002319L7.205490 119.002319L7.205490 111.581924L1.224197 111.581924Z" style="fill: rgb(100.000000%,100.000000%,100.000000%);stroke: none;"></path>
  <path d="M1.224197 121.002319L7.205490 121.002319L7.205490 113.581924L1.224197 113.581924Z" style="fill: rgb(100.000000%,100.000000%,100.000000%);stroke: none;"></path>
  <g transform="translate(1.724197 119.502319)" style="fill: rgb(0.000000%,0.000000%,0.000000%);">
    <use xlink:href="#GLYPHcmr10_51"></use>
  </g>
  <path d="M115.870422 189.751541L121.851715 189.751541L121.851715 182.331146L115.870422 182.331146Z" style="fill: rgb(100.000000%,100.000000%,100.000000%);stroke: none;"></path>
  <path d="M115.870422 191.751541L121.851715 191.751541L121.851715 184.331146L115.870422 184.331146Z" style="fill: rgb(100.000000%,100.000000%,100.000000%);stroke: none;"></path>
  <g transform="translate(116.370422 190.251541)" style="fill: rgb(0.000000%,0.000000%,0.000000%);">
    <use xlink:href="#GLYPHcmr10_52"></use>
  </g>
  <path d="M162.871933 85.382782L168.853226 85.382782L168.853226 77.962387L162.871933 77.962387Z" style="fill: rgb(100.000000%,100.000000%,100.000000%);stroke: none;"></path>
  <path d="M162.871933 87.382782L168.853226 87.382782L168.853226 79.962387L162.871933 79.962387Z" style="fill: rgb(100.000000%,100.000000%,100.000000%);stroke: none;"></path>
  <g transform="translate(163.371933 85.882782)" style="fill: rgb(0.000000%,0.000000%,0.000000%);">
    <use xlink:href="#GLYPHcmr10_53"></use>
  </g>
  <path d="M27.569138 35.946655L33.550430 35.946655L33.550430 28.526260L27.569138 28.526260Z" style="fill: rgb(100.000000%,100.000000%,100.000000%);stroke: none;"></path>
  <path d="M27.569138 37.946655L33.550430 37.946655L33.550430 30.526260L27.569138 30.526260Z" style="fill: rgb(100.000000%,100.000000%,100.000000%);stroke: none;"></path>
  <g transform="translate(28.069138 36.446655)" style="fill: rgb(0.000000%,0.000000%,0.000000%);">
    <use xlink:href="#GLYPHcmr10_54"></use>
  </g>
  <path d="M42.687561 95.638153L48.668854 95.638153L48.668854 88.217758L42.687561 88.217758Z" style="fill: rgb(100.000000%,100.000000%,100.000000%);stroke: none;"></path>
  <path d="M42.687561 97.638153L48.668854 97.638153L48.668854 90.217758L42.687561 90.217758Z" style="fill: rgb(100.000000%,100.000000%,100.000000%);stroke: none;"></path>
  <g transform="translate(43.187561 96.138153)" style="fill: rgb(0.000000%,0.000000%,0.000000%);">
    <use xlink:href="#GLYPHcmr10_55"></use>
  </g>
  <path d="M37.813141 186.079575L43.794434 186.079575L43.794434 178.659180L37.813141 178.659180Z" style="fill: rgb(100.000000%,100.000000%,100.000000%);stroke: none;"></path>
  <path d="M37.813141 188.079575L43.794434 188.079575L43.794434 180.659180L37.813141 180.659180Z" style="fill: rgb(100.000000%,100.000000%,100.000000%);stroke: none;"></path>
  <g transform="translate(38.313141 186.579575)" style="fill: rgb(0.000000%,0.000000%,0.000000%);">
    <use xlink:href="#GLYPHcmr10_56"></use>
  </g>
  <path d="M131.147675 128.833267L137.128967 128.833267L137.128967 121.412872L131.147675 121.412872Z" style="fill: rgb(100.000000%,100.000000%,100.000000%);stroke: none;"></path>
  <path d="M131.147675 130.833267L137.128967 130.833267L137.128967 123.412872L131.147675 123.412872Z" style="fill: rgb(100.000000%,100.000000%,100.000000%);stroke: none;"></path>
  <g transform="translate(131.647675 129.333267)" style="fill: rgb(0.000000%,0.000000%,0.000000%);">
    <use xlink:href="#GLYPHcmr10_57"></use>
  </g>
  <path d="M123.112854 158.517029L134.075562 158.517029L134.075562 151.096634L123.112854 151.096634Z" style="fill: rgb(100.000000%,100.000000%,100.000000%);stroke: none;"></path>
  <path d="M123.112854 160.517029L134.075562 160.517029L134.075562 153.096634L123.112854 153.096634Z" style="fill: rgb(100.000000%,100.000000%,100.000000%);stroke: none;"></path>
  <g transform="translate(123.612854 159.017029)" style="fill: rgb(0.000000%,0.000000%,0.000000%);">
    <use xlink:href="#GLYPHcmr10_49"></use>
    <use xlink:href="#GLYPHcmr10_48" x="5.000095"></use>
  </g>
  <path d="M87.059891 130.690674L98.022598 130.690674L98.022598 123.270279L87.059891 123.270279Z" style="fill: rgb(100.000000%,100.000000%,100.000000%);stroke: none;"></path>
  <path d="M87.059891 132.690674L98.022598 132.690674L98.022598 125.270279L87.059891 125.270279Z" style="fill: rgb(100.000000%,100.000000%,100.000000%);stroke: none;"></path>
  <g transform="translate(87.559891 131.190674)" style="fill: rgb(0.000000%,0.000000%,0.000000%);">
    <use xlink:href="#GLYPHcmr10_49"></use>
    <use xlink:href="#GLYPHcmr10_49" x="5.000095"></use>
  </g>
</svg>
