<?xml version="1.0"?>
<!-- Created by MetaPost 1.999 on 2021.07.06:0003 -->
<svg version="1.1" xmlns="http://www.w3.org/2000/svg" xmlns:xlink="http://www.w3.org/1999/xlink" width="198.189484" height="199.626709" viewBox="0 0 198.189484 199.626709">
<!-- Original BoundingBox: -64.396408 -83.566986 133.793076 116.059723 -->
  <defs>
    <g transform="scale(0.009963,0.009963)" id="GLYPHcmr10_48">
      <path style="fill-rule: evenodd;" d="M460.000000 -320.000000C460.000000 -400.000000,455.000000 -480.000000,420.000000 -554.000000C374.000000 -650.000000,292.000000 -666.000000,250.000000 -666.000000C190.000000 -666.000000,117.000000 -640.000000,76.000000 -547.000000C44.000000 -478.000000,39.000000 -400.000000,39.000000 -320.000000C39.000000 -245.000000,43.000000 -155.000000,84.000000 -79.000000C127.000000 2.000000,200.000000 22.000000,249.000000 22.000000C303.000000 22.000000,379.000000 1.000000,423.000000 -94.000000C455.000000 -163.000000,460.000000 -241.000000,460.000000 -320.000000M249.000000 -0.000000C210.000000 -0.000000,151.000000 -25.000000,133.000000 -121.000000C122.000000 -181.000000,122.000000 -273.000000,122.000000 -332.000000C122.000000 -396.000000,122.000000 -462.000000,130.000000 -516.000000C149.000000 -635.000000,224.000000 -644.000000,249.000000 -644.000000C282.000000 -644.000000,348.000000 -626.000000,367.000000 -527.000000C377.000000 -471.000000,377.000000 -395.000000,377.000000 -332.000000C377.000000 -257.000000,377.000000 -189.000000,366.000000 -125.000000C351.000000 -30.000000,294.000000 -0.000000,249.000000 -0.000000"></path>
    </g>
    <g transform="scale(0.009963,0.009963)" id="GLYPHcmr10_49">
      <path style="fill-rule: evenodd;" d="M294.000000 -640.000000C294.000000 -664.000000,294.000000 -666.000000,271.000000 -666.000000C209.000000 -602.000000,121.000000 -602.000000,89.000000 -602.000000L89.000000 -571.000000C109.000000 -571.000000,168.000000 -571.000000,220.000000 -597.000000L220.000000 -79.000000C220.000000 -43.000000,217.000000 -31.000000,127.000000 -31.000000L95.000000 -31.000000L95.000000 -0.000000L257.000000 -0.000000L130.000000 -3.000000L217.000000 -3.000000L257.000000 -3.000000L297.000000 -3.000000L384.000000 -3.000000L419.000000 -0.000000L419.000000 -31.000000L387.000000 -31.000000C297.000000 -31.000000,294.000000 -42.000000,294.000000 -79.000000"></path>
    </g>
    <g transform="scale(0.009963,0.009963)" id="GLYPHcmr10_50">
      <path style="fill-rule: evenodd;" d="M127.000000 -77.000000L233.000000 -180.000000C389.000000 -318.000000,449.000000 -372.000000,449.000000 -472.000000C449.000000 -586.000000,359.000000 -666.000000,237.000000 -666.000000C124.000000 -666.000000,50.000000 -574.000000,50.000000 -485.000000C50.000000 -429.000000,100.000000 -429.000000,103.000000 -429.000000C120.000000 -429.000000,155.000000 -441.000000,155.000000 -482.000000C155.000000 -508.000000,137.000000 -534.000000,102.000000 -534.000000C94.000000 -534.000000,92.000000 -534.000000,89.000000 -533.000000C112.000000 -598.000000,166.000000 -635.000000,224.000000 -635.000000C315.000000 -635.000000,358.000000 -554.000000,358.000000 -472.000000C358.000000 -392.000000,308.000000 -313.000000,253.000000 -251.000000L61.000000 -37.000000C50.000000 -26.000000,50.000000 -24.000000,50.000000 -0.000000L421.000000 -0.000000L449.000000 -174.000000L424.000000 -174.000000C419.000000 -144.000000,412.000000 -100.000000,402.000000 -85.000000C395.000000 -77.000000,329.000000 -77.000000,307.000000 -77.000000"></path>
    </g>
    <g transform="scale(0.009963,0.009963)" id="GLYPHcmr10_51">
      <path style="fill-rule: evenodd;" d="M290.000000 -352.000000C372.000000 -379.000000,430.000000 -449.000000,430.000000 -528.000000C430.000000 -610.000000,342.000000 -666.000000,246.000000 -666.000000C145.000000 -666.000000,69.000000 -606.000000,69.000000 -530.000000C69.000000 -497.000000,91.000000 -478.000000,120.000000 -478.000000C151.000000 -478.000000,171.000000 -500.000000,171.000000 -529.000000C171.000000 -579.000000,124.000000 -579.000000,109.000000 -579.000000C140.000000 -628.000000,206.000000 -641.000000,242.000000 -641.000000C283.000000 -641.000000,338.000000 -619.000000,338.000000 -529.000000C338.000000 -517.000000,336.000000 -459.000000,310.000000 -415.000000C280.000000 -367.000000,246.000000 -364.000000,221.000000 -363.000000C213.000000 -362.000000,189.000000 -360.000000,182.000000 -360.000000C174.000000 -359.000000,167.000000 -358.000000,167.000000 -348.000000C167.000000 -337.000000,174.000000 -337.000000,191.000000 -337.000000L235.000000 -337.000000C317.000000 -337.000000,354.000000 -269.000000,354.000000 -171.000000C354.000000 -35.000000,285.000000 -6.000000,241.000000 -6.000000C198.000000 -6.000000,123.000000 -23.000000,88.000000 -82.000000C123.000000 -77.000000,154.000000 -99.000000,154.000000 -137.000000C154.000000 -173.000000,127.000000 -193.000000,98.000000 -193.000000C74.000000 -193.000000,42.000000 -179.000000,42.000000 -135.000000C42.000000 -44.000000,135.000000 22.000000,244.000000 22.000000C366.000000 22.000000,457.000000 -69.000000,457.000000 -171.000000C457.000000 -253.000000,394.000000 -331.000000,290.000000 -352.000000"></path>
    </g>
    <g transform="scale(0.009963,0.009963)" id="GLYPHcmr10_52">
      <path style="fill-rule: evenodd;" d="M294.000000 -165.000000L294.000000 -78.000000C294.000000 -42.000000,292.000000 -31.000000,218.000000 -31.000000L197.000000 -31.000000L197.000000 -0.000000L332.000000 -0.000000L238.000000 -3.000000L290.000000 -3.000000L332.000000 -3.000000L374.000000 -3.000000L427.000000 -3.000000L468.000000 -0.000000L468.000000 -31.000000L447.000000 -31.000000C373.000000 -31.000000,371.000000 -42.000000,371.000000 -78.000000L371.000000 -165.000000L471.000000 -165.000000L471.000000 -196.000000L371.000000 -196.000000L371.000000 -651.000000C371.000000 -671.000000,371.000000 -677.000000,355.000000 -677.000000C346.000000 -677.000000,343.000000 -677.000000,335.000000 -665.000000L28.000000 -196.000000L28.000000 -165.000000M300.000000 -196.000000L56.000000 -196.000000L300.000000 -569.000000"></path>
    </g>
    <g transform="scale(0.009963,0.009963)" id="GLYPHcmr10_53">
      <path style="fill-rule: evenodd;" d="M449.000000 -201.000000C449.000000 -320.000000,367.000000 -420.000000,259.000000 -420.000000C211.000000 -420.000000,168.000000 -404.000000,132.000000 -369.000000L132.000000 -564.000000C152.000000 -558.000000,185.000000 -551.000000,217.000000 -551.000000C340.000000 -551.000000,410.000000 -642.000000,410.000000 -655.000000C410.000000 -661.000000,407.000000 -666.000000,400.000000 -666.000000C399.000000 -666.000000,397.000000 -666.000000,392.000000 -663.000000C372.000000 -654.000000,323.000000 -634.000000,256.000000 -634.000000C216.000000 -634.000000,170.000000 -641.000000,123.000000 -662.000000C115.000000 -665.000000,113.000000 -665.000000,111.000000 -665.000000C101.000000 -665.000000,101.000000 -657.000000,101.000000 -641.000000L101.000000 -345.000000C101.000000 -327.000000,101.000000 -319.000000,115.000000 -319.000000C122.000000 -319.000000,124.000000 -322.000000,128.000000 -328.000000C139.000000 -344.000000,176.000000 -398.000000,257.000000 -398.000000C309.000000 -398.000000,334.000000 -352.000000,342.000000 -334.000000C358.000000 -297.000000,360.000000 -258.000000,360.000000 -208.000000C360.000000 -173.000000,360.000000 -113.000000,336.000000 -71.000000C312.000000 -32.000000,275.000000 -6.000000,229.000000 -6.000000C156.000000 -6.000000,99.000000 -59.000000,82.000000 -118.000000C85.000000 -117.000000,88.000000 -116.000000,99.000000 -116.000000C132.000000 -116.000000,149.000000 -141.000000,149.000000 -165.000000C149.000000 -189.000000,132.000000 -214.000000,99.000000 -214.000000C85.000000 -214.000000,50.000000 -207.000000,50.000000 -161.000000C50.000000 -75.000000,119.000000 22.000000,231.000000 22.000000C347.000000 22.000000,449.000000 -74.000000,449.000000 -201.000000"></path>
    </g>
    <g transform="scale(0.009963,0.009963)" id="GLYPHcmr10_54">
      <path style="fill-rule: evenodd;" d="M132.000000 -328.000000L132.000000 -352.000000C132.000000 -605.000000,256.000000 -641.000000,307.000000 -641.000000C331.000000 -641.000000,373.000000 -635.000000,395.000000 -601.000000C380.000000 -601.000000,340.000000 -601.000000,340.000000 -556.000000C340.000000 -525.000000,364.000000 -510.000000,386.000000 -510.000000C402.000000 -510.000000,432.000000 -519.000000,432.000000 -558.000000C432.000000 -618.000000,388.000000 -666.000000,305.000000 -666.000000C177.000000 -666.000000,42.000000 -537.000000,42.000000 -316.000000C42.000000 -49.000000,158.000000 22.000000,251.000000 22.000000C362.000000 22.000000,457.000000 -72.000000,457.000000 -204.000000C457.000000 -331.000000,368.000000 -427.000000,257.000000 -427.000000C189.000000 -427.000000,152.000000 -376.000000,132.000000 -328.000000M251.000000 -6.000000C188.000000 -6.000000,158.000000 -66.000000,152.000000 -81.000000C134.000000 -128.000000,134.000000 -208.000000,134.000000 -226.000000C134.000000 -304.000000,166.000000 -404.000000,256.000000 -404.000000C272.000000 -404.000000,318.000000 -404.000000,349.000000 -342.000000C367.000000 -305.000000,367.000000 -254.000000,367.000000 -205.000000C367.000000 -157.000000,367.000000 -107.000000,350.000000 -71.000000C320.000000 -11.000000,274.000000 -6.000000,251.000000 -6.000000"></path>
    </g>
    <g transform="scale(0.009963,0.009963)" id="GLYPHcmr10_55">
      <path style="fill-rule: evenodd;" d="M476.000000 -609.000000C485.000000 -621.000000,485.000000 -623.000000,485.000000 -644.000000L242.000000 -644.000000C120.000000 -644.000000,118.000000 -657.000000,114.000000 -676.000000L89.000000 -676.000000L56.000000 -470.000000L81.000000 -470.000000C84.000000 -486.000000,93.000000 -549.000000,106.000000 -561.000000C113.000000 -567.000000,191.000000 -567.000000,204.000000 -567.000000L411.000000 -567.000000C400.000000 -551.000000,321.000000 -442.000000,299.000000 -409.000000C209.000000 -274.000000,176.000000 -135.000000,176.000000 -33.000000C176.000000 -23.000000,176.000000 22.000000,222.000000 22.000000C268.000000 22.000000,268.000000 -23.000000,268.000000 -33.000000L268.000000 -84.000000C268.000000 -139.000000,271.000000 -194.000000,279.000000 -248.000000C283.000000 -271.000000,297.000000 -357.000000,341.000000 -419.000000"></path>
    </g>
    <g transform="scale(0.009963,0.009963)" id="GLYPHcmr10_56">
      <path style="fill-rule: evenodd;" d="M163.000000 -457.000000C117.000000 -487.000000,113.000000 -521.000000,113.000000 -538.000000C113.000000 -599.000000,178.000000 -641.000000,249.000000 -641.000000C322.000000 -641.000000,386.000000 -589.000000,386.000000 -517.000000C386.000000 -460.000000,347.000000 -412.000000,287.000000 -377.000000M309.000000 -362.000000C381.000000 -399.000000,430.000000 -451.000000,430.000000 -517.000000C430.000000 -609.000000,341.000000 -666.000000,250.000000 -666.000000C150.000000 -666.000000,69.000000 -592.000000,69.000000 -499.000000C69.000000 -481.000000,71.000000 -436.000000,113.000000 -389.000000C124.000000 -377.000000,161.000000 -352.000000,186.000000 -335.000000C128.000000 -306.000000,42.000000 -250.000000,42.000000 -151.000000C42.000000 -45.000000,144.000000 22.000000,249.000000 22.000000C362.000000 22.000000,457.000000 -61.000000,457.000000 -168.000000C457.000000 -204.000000,446.000000 -249.000000,408.000000 -291.000000C389.000000 -312.000000,373.000000 -322.000000,309.000000 -362.000000M209.000000 -320.000000L332.000000 -242.000000C360.000000 -223.000000,407.000000 -193.000000,407.000000 -132.000000C407.000000 -58.000000,332.000000 -6.000000,250.000000 -6.000000C164.000000 -6.000000,92.000000 -68.000000,92.000000 -151.000000C92.000000 -209.000000,124.000000 -273.000000,209.000000 -320.000000"></path>
    </g>
    <g transform="scale(0.009963,0.009963)" id="GLYPHcmr10_57">
      <path style="fill-rule: evenodd;" d="M367.000000 -318.000000L367.000000 -286.000000C367.000000 -52.000000,263.000000 -6.000000,205.000000 -6.000000C188.000000 -6.000000,134.000000 -8.000000,107.000000 -42.000000C151.000000 -42.000000,159.000000 -71.000000,159.000000 -88.000000C159.000000 -119.000000,135.000000 -134.000000,113.000000 -134.000000C97.000000 -134.000000,67.000000 -125.000000,67.000000 -86.000000C67.000000 -19.000000,121.000000 22.000000,206.000000 22.000000C335.000000 22.000000,457.000000 -114.000000,457.000000 -329.000000C457.000000 -598.000000,342.000000 -666.000000,253.000000 -666.000000C198.000000 -666.000000,149.000000 -648.000000,106.000000 -603.000000C65.000000 -558.000000,42.000000 -516.000000,42.000000 -441.000000C42.000000 -316.000000,130.000000 -218.000000,242.000000 -218.000000C303.000000 -218.000000,344.000000 -260.000000,367.000000 -318.000000M243.000000 -241.000000C227.000000 -241.000000,181.000000 -241.000000,150.000000 -304.000000C132.000000 -341.000000,132.000000 -391.000000,132.000000 -440.000000C132.000000 -494.000000,132.000000 -541.000000,153.000000 -578.000000C180.000000 -628.000000,218.000000 -641.000000,253.000000 -641.000000C299.000000 -641.000000,332.000000 -607.000000,349.000000 -562.000000C361.000000 -530.000000,365.000000 -467.000000,365.000000 -421.000000C365.000000 -338.000000,331.000000 -241.000000,243.000000 -241.000000"></path>
    </g>
  </defs>
  <path d="M72.307281 128.607346C72.307281 127.814651,71.992340 127.054504,71.431854 126.494034C70.871384 125.933548,70.111237 125.618607,69.318542 125.618607C68.525848 125.618607,67.765701 125.933548,67.205231 126.494034C66.644745 127.054504,66.329803 127.814651,66.329803 128.607346C66.329803 129.400040,66.644745 130.160187,67.205231 130.720657C67.765701 131.281143,68.525848 131.596085,69.318542 131.596085C70.111237 131.596085,70.871384 131.281143,71.431854 130.720657C71.992340 130.160187,72.307281 129.400040,72.307281 128.607346Z" style="fill: rgb(100.000000%,100.000000%,100.000000%);stroke: none;"></path>
  <path d="M74.694107 135.019135C74.694107 134.226440,74.379166 133.466293,73.818680 132.905823C73.258209 132.345337,72.498062 132.030396,71.705368 132.030396C70.912674 132.030396,70.152527 132.345337,69.592056 132.905823C69.031570 133.466293,68.716629 134.226440,68.716629 135.019135C68.716629 135.811829,69.031570 136.571976,69.592056 137.132446C70.152527 137.692932,70.912674 138.007874,71.705368 138.007874C72.498062 138.007874,73.258209 137.692932,73.818680 137.132446C74.379166 136.571976,74.694107 135.811829,74.694107 135.019135Z" style="fill: rgb(100.000000%,100.000000%,100.000000%);stroke: none;"></path>
  <path d="M65.802795 113.297241C65.802795 112.504547,65.487854 111.744400,64.927368 111.183929C64.366898 110.623444,63.606750 110.308502,62.814056 110.308502C62.021362 110.308502,61.261215 110.623444,60.700745 111.183929C60.140259 111.744400,59.825317 112.504547,59.825317 113.297241C59.825317 114.089935,60.140259 114.850082,60.700745 115.410553C61.261215 115.971039,62.021362 116.285980,62.814056 116.285980C63.606750 116.285980,64.366898 115.971039,64.927368 115.410553C65.487854 114.850082,65.802795 114.089935,65.802795 113.297241Z" style="fill: rgb(100.000000%,100.000000%,100.000000%);stroke: none;"></path>
  <path d="M69.737778 122.265045C69.737778 121.472351,69.422836 120.712204,68.862350 120.151733C68.301880 119.591248,67.541733 119.276306,66.749039 119.276306C65.956345 119.276306,65.196198 119.591248,64.635727 120.151733C64.075241 120.712204,63.760300 121.472351,63.760300 122.265045C63.760300 123.057739,64.075241 123.817886,64.635727 124.378357C65.196198 124.938843,65.956345 125.253784,66.749039 125.253784C67.541733 125.253784,68.301880 124.938843,68.862350 124.378357C69.422836 123.817886,69.737778 123.057739,69.737778 122.265045Z" style="fill: rgb(100.000000%,100.000000%,100.000000%);stroke: none;"></path>
  <path d="M64.954666 105.172226C64.954666 104.379532,64.639725 103.619385,64.079239 103.058914C63.518768 102.498428,62.758621 102.183487,61.965927 102.183487C61.173233 102.183487,60.413086 102.498428,59.852615 103.058914C59.292130 103.619385,58.977188 104.379532,58.977188 105.172226C58.977188 105.964920,59.292130 106.725067,59.852615 107.285538C60.413086 107.846024,61.173233 108.160965,61.965927 108.160965C62.758621 108.160965,63.518768 107.846024,64.079239 107.285538C64.639725 106.725067,64.954666 105.964920,64.954666 105.172226Z" style="fill: rgb(100.000000%,100.000000%,100.000000%);stroke: none;"></path>
  <path d="M64.570404 110.514847C64.570404 109.722153,64.255463 108.962006,63.694977 108.401535C63.134506 107.841049,62.374359 107.526108,61.581665 107.526108C60.788971 107.526108,60.028824 107.841049,59.468353 108.401535C58.907867 108.962006,58.592926 109.722153,58.592926 110.514847C58.592926 111.307541,58.907867 112.067688,59.468353 112.628159C60.028824 113.188644,60.788971 113.503586,61.581665 113.503586C62.374359 113.503586,63.134506 113.188644,63.694977 112.628159C64.255463 112.067688,64.570404 111.307541,64.570404 110.514847Z" style="fill: rgb(100.000000%,100.000000%,100.000000%);stroke: none;"></path>
  <path d="M68.083954 98.155640C68.083954 97.362946,67.769012 96.602798,67.208527 96.042328C66.648056 95.481842,65.887909 95.166901,65.095215 95.166901C64.302521 95.166901,63.542374 95.481842,62.981903 96.042328C62.421417 96.602798,62.106476 97.362946,62.106476 98.155640C62.106476 98.948334,62.421417 99.708481,62.981903 100.268951C63.542374 100.829437,64.302521 101.144379,65.095215 101.144379C65.887909 101.144379,66.648056 100.829437,67.208527 100.268951C67.769012 99.708481,68.083954 98.948334,68.083954 98.155640Z" style="fill: rgb(100.000000%,100.000000%,100.000000%);stroke: none;"></path>
  <path d="M66.070114 102.996460C66.070114 102.203766,65.755173 101.443619,65.194687 100.883148C64.634216 100.322662,63.874069 100.007721,63.081375 100.007721C62.288681 100.007721,61.528534 100.322662,60.968063 100.883148C60.407578 101.443619,60.092636 102.203766,60.092636 102.996460C60.092636 103.789154,60.407578 104.549301,60.968063 105.109772C61.528534 105.670258,62.288681 105.985199,63.081375 105.985199C63.874069 105.985199,64.634216 105.670258,65.194687 105.109772C65.755173 104.549301,66.070114 103.789154,66.070114 102.996460Z" style="fill: rgb(100.000000%,100.000000%,100.000000%);stroke: none;"></path>
  <path d="M74.999893 95.464951C74.999893 94.672256,74.684952 93.912109,74.124466 93.351639C73.563995 92.791153,72.803848 92.476212,72.011154 92.476212C71.218460 92.476212,70.458313 92.791153,69.897842 93.351639C69.337357 93.912109,69.022415 94.672256,69.022415 95.464951C69.022415 96.257645,69.337357 97.017792,69.897842 97.578262C70.458313 98.138748,71.218460 98.453690,72.011154 98.453690C72.803848 98.453690,73.563995 98.138748,74.124466 97.578262C74.684952 97.017792,74.999893 96.257645,74.999893 95.464951Z" style="fill: rgb(100.000000%,100.000000%,100.000000%);stroke: none;"></path>
  <path d="M69.498016 95.291000C69.498016 94.498306,69.183075 93.738159,68.622589 93.177689C68.062119 92.617203,67.301971 92.302261,66.509277 92.302261C65.716583 92.302261,64.956436 92.617203,64.395966 93.177689C63.835480 93.738159,63.520538 94.498306,63.520538 95.291000C63.520538 96.083694,63.835480 96.843842,64.395966 97.404312C64.956436 97.964798,65.716583 98.279739,66.509277 98.279739C67.301971 98.279739,68.062119 97.964798,68.622589 97.404312C69.183075 96.843842,69.498016 96.083694,69.498016 95.291000Z" style="fill: rgb(100.000000%,100.000000%,100.000000%);stroke: none;"></path>
  <path d="M78.425430 104.561234C78.425430 103.768539,78.110489 103.008392,77.550003 102.447922C76.989532 101.887436,76.229385 101.572495,75.436691 101.572495C74.643997 101.572495,73.883850 101.887436,73.323380 102.447922C72.762894 103.008392,72.447952 103.768539,72.447952 104.561234C72.447952 105.353928,72.762894 106.114075,73.323380 106.674545C73.883850 107.235031,74.643997 107.549973,75.436691 107.549973C76.229385 107.549973,76.989532 107.235031,77.550003 106.674545C78.110489 106.114075,78.425430 105.353928,78.425430 104.561234Z" style="fill: rgb(100.000000%,100.000000%,100.000000%);stroke: none;"></path>
  <path d="M76.173492 98.557098C76.173492 97.764404,75.858551 97.004257,75.298065 96.443787C74.737595 95.883301,73.977448 95.568359,73.184753 95.568359C72.392059 95.568359,71.631912 95.883301,71.071442 96.443787C70.510956 97.004257,70.196014 97.764404,70.196014 98.557098C70.196014 99.349792,70.510956 100.109940,71.071442 100.670410C71.631912 101.230896,72.392059 101.545837,73.184753 101.545837C73.977448 101.545837,74.737595 101.230896,75.298065 100.670410C75.858551 100.109940,76.173492 99.349792,76.173492 98.557098Z" style="fill: rgb(100.000000%,100.000000%,100.000000%);stroke: none;"></path>
  <path d="M77.129715 115.420670C77.129715 114.627975,76.814774 113.867828,76.254288 113.307358C75.693817 112.746872,74.933670 112.431931,74.140976 112.431931C73.348282 112.431931,72.588135 112.746872,72.027664 113.307358C71.467178 113.867828,71.152237 114.627975,71.152237 115.420670C71.152237 116.213364,71.467178 116.973511,72.027664 117.533981C72.588135 118.094467,73.348282 118.409409,74.140976 118.409409C74.933670 118.409409,75.693817 118.094467,76.254288 117.533981C76.814774 116.973511,77.129715 116.213364,77.129715 115.420670Z" style="fill: rgb(100.000000%,100.000000%,100.000000%);stroke: none;"></path>
  <path d="M80.281586 107.940674C80.281586 107.147980,79.966644 106.387833,79.406158 105.827362C78.845688 105.266876,78.085541 104.951935,77.292847 104.951935C76.500153 104.951935,75.740005 105.266876,75.179535 105.827362C74.619049 106.387833,74.304108 107.147980,74.304108 107.940674C74.304108 108.733368,74.619049 109.493515,75.179535 110.053986C75.740005 110.614471,76.500153 110.929413,77.292847 110.929413C78.085541 110.929413,78.845688 110.614471,79.406158 110.053986C79.966644 109.493515,80.281586 108.733368,80.281586 107.940674Z" style="fill: rgb(100.000000%,100.000000%,100.000000%);stroke: none;"></path>
  <path d="M61.144241 116.244720C61.144241 115.452026,60.829300 114.691879,60.268814 114.131409C59.708344 113.570923,58.948196 113.255981,58.155502 113.255981C57.362808 113.255981,56.602661 113.570923,56.042191 114.131409C55.481705 114.691879,55.166763 115.452026,55.166763 116.244720C55.166763 117.037415,55.481705 117.797562,56.042191 118.358032C56.602661 118.918518,57.362808 119.233459,58.155502 119.233459C58.948196 119.233459,59.708344 118.918518,60.268814 118.358032C60.829300 117.797562,61.144241 117.037415,61.144241 116.244720Z" style="fill: rgb(100.000000%,100.000000%,100.000000%);stroke: none;"></path>
  <path d="M71.776245 115.799545C71.776245 115.006851,71.461304 114.246704,70.900818 113.686234C70.340347 113.125748,69.580200 112.810806,68.787506 112.810806C67.994812 112.810806,67.234665 113.125748,66.674194 113.686234C66.113708 114.246704,65.798767 115.006851,65.798767 115.799545C65.798767 116.592239,66.113708 117.352386,66.674194 117.912857C67.234665 118.473343,67.994812 118.788284,68.787506 118.788284C69.580200 118.788284,70.340347 118.473343,70.900818 117.912857C71.461304 117.352386,71.776245 116.592239,71.776245 115.799545Z" style="fill: rgb(100.000000%,100.000000%,100.000000%);stroke: none;"></path>
  <path d="M37.145294 117.638763C37.145294 116.846069,36.830353 116.085922,36.269867 115.525452C35.709396 114.964966,34.949249 114.650024,34.156555 114.650024C33.363861 114.650024,32.603714 114.964966,32.043243 115.525452C31.482758 116.085922,31.167816 116.846069,31.167816 117.638763C31.167816 118.431458,31.482758 119.191605,32.043243 119.752075C32.603714 120.312561,33.363861 120.627502,34.156555 120.627502C34.949249 120.627502,35.709396 120.312561,36.269867 119.752075C36.830353 119.191605,37.145294 118.431458,37.145294 117.638763Z" style="fill: rgb(100.000000%,100.000000%,100.000000%);stroke: none;"></path>
  <path d="M55.355347 117.288376C55.355347 116.495682,55.040405 115.735535,54.479919 115.175064C53.919449 114.614578,53.159302 114.299637,52.366608 114.299637C51.573914 114.299637,50.813766 114.614578,50.253296 115.175064C49.692810 115.735535,49.377869 116.495682,49.377869 117.288376C49.377869 118.081070,49.692810 118.841217,50.253296 119.401688C50.813766 119.962173,51.573914 120.277115,52.366608 120.277115C53.159302 120.277115,53.919449 119.962173,54.479919 119.401688C55.040405 118.841217,55.355347 118.081070,55.355347 117.288376Z" style="fill: rgb(100.000000%,100.000000%,100.000000%);stroke: none;"></path>
  <path d="M7.150299 85.706772C7.150299 84.914078,6.835358 84.153931,6.274872 83.593460C5.714401 83.032974,4.954254 82.718033,4.161560 82.718033C3.368866 82.718033,2.608719 83.032974,2.048248 83.593460C1.487762 84.153931,1.172821 84.914078,1.172821 85.706772C1.172821 86.499466,1.487762 87.259613,2.048248 87.820084C2.608719 88.380569,3.368866 88.695511,4.161560 88.695511C4.954254 88.695511,5.714401 88.380569,6.274872 87.820084C6.835358 87.259613,7.150299 86.499466,7.150299 85.706772Z" style="fill: rgb(100.000000%,100.000000%,100.000000%);stroke: none;"></path>
  <path d="M24.663651 113.445099C24.663651 112.652405,24.348709 111.892258,23.788223 111.331787C23.227753 110.771301,22.467606 110.456360,21.674911 110.456360C20.882217 110.456360,20.122070 110.771301,19.561600 111.331787C19.001114 111.892258,18.686172 112.652405,18.686172 113.445099C18.686172 114.237793,19.001114 114.997940,19.561600 115.558411C20.122070 116.118896,20.882217 116.433838,21.674911 116.433838C22.467606 116.433838,23.227753 116.118896,23.788223 115.558411C24.348709 114.997940,24.663651 114.237793,24.663651 113.445099Z" style="fill: rgb(100.000000%,100.000000%,100.000000%);stroke: none;"></path>
  <path d="M49.341736 31.366531C49.341736 30.573837,49.026794 29.813690,48.466309 29.253220C47.905838 28.692734,47.145691 28.377792,46.352997 28.377792C45.560303 28.377792,44.800156 28.692734,44.239685 29.253220C43.679199 29.813690,43.364258 30.573837,43.364258 31.366531C43.364258 32.159225,43.679199 32.919373,44.239685 33.479843C44.800156 34.040329,45.560303 34.355270,46.352997 34.355270C47.145691 34.355270,47.905838 34.040329,48.466309 33.479843C49.026794 32.919373,49.341736 32.159225,49.341736 31.366531Z" style="fill: rgb(100.000000%,100.000000%,100.000000%);stroke: none;"></path>
  <path d="M18.082321 64.372406C18.082321 63.579712,17.767380 62.819565,17.206894 62.259094C16.646423 61.698608,15.886276 61.383667,15.093582 61.383667C14.300888 61.383667,13.540741 61.698608,12.980270 62.259094C12.419785 62.819565,12.104843 63.579712,12.104843 64.372406C12.104843 65.165100,12.419785 65.925247,12.980270 66.485718C13.540741 67.046204,14.300888 67.361145,15.093582 67.361145C15.886276 67.361145,16.646423 67.046204,17.206894 66.485718C17.767380 65.925247,18.082321 65.165100,18.082321 64.372406Z" style="fill: rgb(100.000000%,100.000000%,100.000000%);stroke: none;"></path>
  <path d="M104.318253 26.710861C104.318253 25.918167,104.003311 25.158020,103.442825 24.597549C102.882355 24.037064,102.122208 23.722122,101.329514 23.722122C100.536819 23.722122,99.776672 24.037064,99.216202 24.597549C98.655716 25.158020,98.340775 25.918167,98.340775 26.710861C98.340775 27.503555,98.655716 28.263702,99.216202 28.824173C99.776672 29.384659,100.536819 29.699600,101.329514 29.699600C102.122208 29.699600,102.882355 29.384659,103.442825 28.824173C104.003311 28.263702,104.318253 27.503555,104.318253 26.710861Z" style="fill: rgb(100.000000%,100.000000%,100.000000%);stroke: none;"></path>
  <path d="M70.662186 17.447205C70.662186 16.654510,70.347244 15.894363,69.786758 15.333893C69.226288 14.773407,68.466141 14.458466,67.673447 14.458466C66.880753 14.458466,66.120605 14.773407,65.560135 15.333893C64.999649 15.894363,64.684708 16.654510,64.684708 17.447205C64.684708 18.239899,64.999649 19.000046,65.560135 19.560516C66.120605 20.121002,66.880753 20.435944,67.673447 20.435944C68.466141 20.435944,69.226288 20.121002,69.786758 19.560516C70.347244 19.000046,70.662186 18.239899,70.662186 17.447205Z" style="fill: rgb(100.000000%,100.000000%,100.000000%);stroke: none;"></path>
  <path d="M126.911316 45.114792C126.911316 44.322098,126.596375 43.561951,126.035889 43.001480C125.475418 42.440994,124.715271 42.126053,123.922577 42.126053C123.129883 42.126053,122.369736 42.440994,121.809265 43.001480C121.248779 43.561951,120.933838 44.322098,120.933838 45.114792C120.933838 45.907486,121.248779 46.667633,121.809265 47.228104C122.369736 47.788589,123.129883 48.103531,123.922577 48.103531C124.715271 48.103531,125.475418 47.788589,126.035889 47.228104C126.596375 46.667633,126.911316 45.907486,126.911316 45.114792Z" style="fill: rgb(100.000000%,100.000000%,100.000000%);stroke: none;"></path>
  <path d="M113.213028 35.056259C113.213028 34.263565,112.898087 33.503418,112.337601 32.942947C111.777130 32.382462,111.016983 32.067520,110.224289 32.067520C109.431595 32.067520,108.671448 32.382462,108.110977 32.942947C107.550491 33.503418,107.235550 34.263565,107.235550 35.056259C107.235550 35.848953,107.550491 36.609100,108.110977 37.169571C108.671448 37.730057,109.431595 38.044998,110.224289 38.044998C111.016983 38.044998,111.777130 37.730057,112.337601 37.169571C112.898087 36.609100,113.213028 35.848953,113.213028 35.056259Z" style="fill: rgb(100.000000%,100.000000%,100.000000%);stroke: none;"></path>
  <path d="M137.726425 51.321564C137.726425 50.528870,137.411484 49.768723,136.850998 49.208252C136.290527 48.647766,135.530380 48.332825,134.737686 48.332825C133.944992 48.332825,133.184845 48.647766,132.624374 49.208252C132.063889 49.768723,131.748947 50.528870,131.748947 51.321564C131.748947 52.114258,132.063889 52.874405,132.624374 53.434875C133.184845 53.995361,133.944992 54.310303,134.737686 54.310303C135.530380 54.310303,136.290527 53.995361,136.850998 53.434875C137.411484 52.874405,137.726425 52.114258,137.726425 51.321564Z" style="fill: rgb(100.000000%,100.000000%,100.000000%);stroke: none;"></path>
  <path d="M131.268967 47.948166C131.268967 47.155472,130.954025 46.395325,130.393539 45.834854C129.833069 45.274368,129.072922 44.959427,128.280228 44.959427C127.487534 44.959427,126.727386 45.274368,126.166916 45.834854C125.606430 46.395325,125.291489 47.155472,125.291489 47.948166C125.291489 48.740860,125.606430 49.501007,126.166916 50.061478C126.727386 50.621964,127.487534 50.936905,128.280228 50.936905C129.072922 50.936905,129.833069 50.621964,130.393539 50.061478C130.954025 49.501007,131.268967 48.740860,131.268967 47.948166Z" style="fill: rgb(100.000000%,100.000000%,100.000000%);stroke: none;"></path>
  <path d="M140.632782 56.375183C140.632782 55.582489,140.317841 54.822342,139.757355 54.261871C139.196884 53.701385,138.436737 53.386444,137.644043 53.386444C136.851349 53.386444,136.091202 53.701385,135.530731 54.261871C134.970245 54.822342,134.655304 55.582489,134.655304 56.375183C134.655304 57.167877,134.970245 57.928024,135.530731 58.488495C136.091202 59.048981,136.851349 59.363922,137.644043 59.363922C138.436737 59.363922,139.196884 59.048981,139.757355 58.488495C140.317841 57.928024,140.632782 57.167877,140.632782 56.375183Z" style="fill: rgb(100.000000%,100.000000%,100.000000%);stroke: none;"></path>
  <path d="M139.721695 52.404999C139.721695 51.612305,139.406754 50.852158,138.846268 50.291687C138.285797 49.731201,137.525650 49.416260,136.732956 49.416260C135.940262 49.416260,135.180115 49.731201,134.619644 50.291687C134.059158 50.852158,133.744217 51.612305,133.744217 52.404999C133.744217 53.197693,134.059158 53.957840,134.619644 54.518311C135.180115 55.078796,135.940262 55.393738,136.732956 55.393738C137.525650 55.393738,138.285797 55.078796,138.846268 54.518311C139.406754 53.957840,139.721695 53.197693,139.721695 52.404999Z" style="fill: rgb(100.000000%,100.000000%,100.000000%);stroke: none;"></path>
  <path d="M135.512100 63.919312C135.512100 63.126617,135.197159 62.366470,134.636673 61.806000C134.076202 61.245514,133.316055 60.930573,132.523361 60.930573C131.730667 60.930573,130.970520 61.245514,130.410049 61.806000C129.849564 62.366470,129.534622 63.126617,129.534622 63.919312C129.534622 64.712006,129.849564 65.472153,130.410049 66.032623C130.970520 66.593109,131.730667 66.908051,132.523361 66.908051C133.316055 66.908051,134.076202 66.593109,134.636673 66.032623C135.197159 65.472153,135.512100 64.712006,135.512100 63.919312Z" style="fill: rgb(100.000000%,100.000000%,100.000000%);stroke: none;"></path>
  <path d="M139.423035 58.167328C139.423035 57.374634,139.108093 56.614487,138.547607 56.054016C137.987137 55.493530,137.226990 55.178589,136.434296 55.178589C135.641602 55.178589,134.881454 55.493530,134.320984 56.054016C133.760498 56.614487,133.445557 57.374634,133.445557 58.167328C133.445557 58.960022,133.760498 59.720169,134.320984 60.280640C134.881454 60.841125,135.641602 61.156067,136.434296 61.156067C137.226990 61.156067,137.987137 60.841125,138.547607 60.280640C139.108093 59.720169,139.423035 58.960022,139.423035 58.167328Z" style="fill: rgb(100.000000%,100.000000%,100.000000%);stroke: none;"></path>
  <path d="M124.982895 76.719955C124.982895 75.927261,124.667953 75.167114,124.107468 74.606644C123.546997 74.046158,122.786850 73.731216,121.994156 73.731216C121.201462 73.731216,120.441315 74.046158,119.880844 74.606644C119.320358 75.167114,119.005417 75.927261,119.005417 76.719955C119.005417 77.512650,119.320358 78.272797,119.880844 78.833267C120.441315 79.393753,121.201462 79.708694,121.994156 79.708694C122.786850 79.708694,123.546997 79.393753,124.107468 78.833267C124.667953 78.272797,124.982895 77.512650,124.982895 76.719955Z" style="fill: rgb(100.000000%,100.000000%,100.000000%);stroke: none;"></path>
  <path d="M133.163269 68.349731C133.163269 67.557037,132.848328 66.796890,132.287842 66.236420C131.727371 65.675934,130.967224 65.360992,130.174530 65.360992C129.381836 65.360992,128.621689 65.675934,128.061218 66.236420C127.500732 66.796890,127.185791 67.557037,127.185791 68.349731C127.185791 69.142426,127.500732 69.902573,128.061218 70.463043C128.621689 71.023529,129.381836 71.338470,130.174530 71.338470C130.967224 71.338470,131.727371 71.023529,132.287842 70.463043C132.848328 69.902573,133.163269 69.142426,133.163269 68.349731Z" style="fill: rgb(100.000000%,100.000000%,100.000000%);stroke: none;"></path>
  <path d="M106.393127 86.484360C106.393127 85.691666,106.078186 84.931519,105.517700 84.371048C104.957230 83.810562,104.197083 83.495621,103.404388 83.495621C102.611694 83.495621,101.851547 83.810562,101.291077 84.371048C100.730591 84.931519,100.415649 85.691666,100.415649 86.484360C100.415649 87.277054,100.730591 88.037201,101.291077 88.597672C101.851547 89.158157,102.611694 89.473099,103.404388 89.473099C104.197083 89.473099,104.957230 89.158157,105.517700 88.597672C106.078186 88.037201,106.393127 87.277054,106.393127 86.484360Z" style="fill: rgb(100.000000%,100.000000%,100.000000%);stroke: none;"></path>
  <path d="M118.682251 79.463501C118.682251 78.670807,118.367310 77.910660,117.806824 77.350189C117.246353 76.789703,116.486206 76.474762,115.693512 76.474762C114.900818 76.474762,114.140671 76.789703,113.580200 77.350189C113.019714 77.910660,112.704773 78.670807,112.704773 79.463501C112.704773 80.256195,113.019714 81.016342,113.580200 81.576813C114.140671 82.137299,114.900818 82.452240,115.693512 82.452240C116.486206 82.452240,117.246353 82.137299,117.806824 81.576813C118.367310 81.016342,118.682251 80.256195,118.682251 79.463501Z" style="fill: rgb(100.000000%,100.000000%,100.000000%);stroke: none;"></path>
  <path d="M88.346054 96.857513C88.346054 96.064819,88.031113 95.304672,87.470627 94.744202C86.910156 94.183716,86.150009 93.868774,85.357315 93.868774C84.564621 93.868774,83.804474 94.183716,83.244003 94.744202C82.683517 95.304672,82.368576 96.064819,82.368576 96.857513C82.368576 97.650208,82.683517 98.410355,83.244003 98.970825C83.804474 99.531311,84.564621 99.846252,85.357315 99.846252C86.150009 99.846252,86.910156 99.531311,87.470627 98.970825C88.031113 98.410355,88.346054 97.650208,88.346054 96.857513Z" style="fill: rgb(100.000000%,100.000000%,100.000000%);stroke: none;"></path>
  <path d="M100.411774 90.966766C100.411774 90.174072,100.096832 89.413925,99.536346 88.853455C98.975876 88.292969,98.215729 87.978027,97.423035 87.978027C96.630341 87.978027,95.870193 88.292969,95.309723 88.853455C94.749237 89.413925,94.434296 90.174072,94.434296 90.966766C94.434296 91.759460,94.749237 92.519608,95.309723 93.080078C95.870193 93.640564,96.630341 93.955505,97.423035 93.955505C98.215729 93.955505,98.975876 93.640564,99.536346 93.080078C100.096832 92.519608,100.411774 91.759460,100.411774 90.966766Z" style="fill: rgb(100.000000%,100.000000%,100.000000%);stroke: none;"></path>
  <path d="M75.474747 102.138214C75.474747 101.345520,75.159805 100.585373,74.599319 100.024902C74.038849 99.464417,73.278702 99.149475,72.486008 99.149475C71.693314 99.149475,70.933167 99.464417,70.372696 100.024902C69.812210 100.585373,69.497269 101.345520,69.497269 102.138214C69.497269 102.930908,69.812210 103.691055,70.372696 104.251526C70.933167 104.812012,71.693314 105.126953,72.486008 105.126953C73.278702 105.126953,74.038849 104.812012,74.599319 104.251526C75.159805 103.691055,75.474747 102.930908,75.474747 102.138214Z" style="fill: rgb(100.000000%,100.000000%,100.000000%);stroke: none;"></path>
  <path d="M82.584396 98.649628C82.584396 97.856934,82.269455 97.096786,81.708969 96.536316C81.148499 95.975830,80.388351 95.660889,79.595657 95.660889C78.802963 95.660889,78.042816 95.975830,77.482346 96.536316C76.921860 97.096786,76.606918 97.856934,76.606918 98.649628C76.606918 99.442322,76.921860 100.202469,77.482346 100.762939C78.042816 101.323425,78.802963 101.638367,79.595657 101.638367C80.388351 101.638367,81.148499 101.323425,81.708969 100.762939C82.269455 100.202469,82.584396 99.442322,82.584396 98.649628Z" style="fill: rgb(100.000000%,100.000000%,100.000000%);stroke: none;"></path>
  <path d="M70.007523 102.801422C70.007523 102.008728,69.692581 101.248581,69.132095 100.688110C68.571625 100.127625,67.811478 99.812683,67.018784 99.812683C66.226089 99.812683,65.465942 100.127625,64.905472 100.688110C64.344986 101.248581,64.030045 102.008728,64.030045 102.801422C64.030045 103.594116,64.344986 104.354263,64.905472 104.914734C65.465942 105.475220,66.226089 105.790161,67.018784 105.790161C67.811478 105.790161,68.571625 105.475220,69.132095 104.914734C69.692581 104.354263,70.007523 103.594116,70.007523 102.801422Z" style="fill: rgb(100.000000%,100.000000%,100.000000%);stroke: none;"></path>
  <path d="M73.710358 103.082352C73.710358 102.289658,73.395416 101.529510,72.834930 100.969040C72.274460 100.408554,71.514313 100.093613,70.721619 100.093613C69.928925 100.093613,69.168777 100.408554,68.608307 100.969040C68.047821 101.529510,67.732880 102.289658,67.732880 103.082352C67.732880 103.875046,68.047821 104.635193,68.608307 105.195663C69.168777 105.756149,69.928925 106.071091,70.721619 106.071091C71.514313 106.071091,72.274460 105.756149,72.834930 105.195663C73.395416 104.635193,73.710358 103.875046,73.710358 103.082352Z" style="fill: rgb(100.000000%,100.000000%,100.000000%);stroke: none;"></path>
  <path d="M62.561005 97.945526C62.561005 97.152832,62.246063 96.392685,61.685577 95.832214C61.125107 95.271729,60.364960 94.956787,59.572266 94.956787C58.779572 94.956787,58.019424 95.271729,57.458954 95.832214C56.898468 96.392685,56.583527 97.152832,56.583527 97.945526C56.583527 98.738220,56.898468 99.498367,57.458954 100.058838C58.019424 100.619324,58.779572 100.934265,59.572266 100.934265C60.364960 100.934265,61.125107 100.619324,61.685577 100.058838C62.246063 99.498367,62.561005 98.738220,62.561005 97.945526Z" style="fill: rgb(100.000000%,100.000000%,100.000000%);stroke: none;"></path>
  <path d="M68.488190 101.751007C68.488190 100.958313,68.173248 100.198166,67.612762 99.637695C67.052292 99.077209,66.292145 98.762268,65.499451 98.762268C64.706757 98.762268,63.946609 99.077209,63.386139 99.637695C62.825653 100.198166,62.510712 100.958313,62.510712 101.751007C62.510712 102.543701,62.825653 103.303848,63.386139 103.864319C63.946609 104.424805,64.706757 104.739746,65.499451 104.739746C66.292145 104.739746,67.052292 104.424805,67.612762 103.864319C68.173248 103.303848,68.488190 102.543701,68.488190 101.751007Z" style="fill: rgb(100.000000%,100.000000%,100.000000%);stroke: none;"></path>
  <path d="M40.184753 91.086929C40.184753 90.294235,39.869812 89.534088,39.309326 88.973618C38.748856 88.413132,37.988708 88.098190,37.196014 88.098190C36.403320 88.098190,35.643173 88.413132,35.082703 88.973618C34.522217 89.534088,34.207275 90.294235,34.207275 91.086929C34.207275 91.879623,34.522217 92.639771,35.082703 93.200241C35.643173 93.760727,36.403320 94.075668,37.196014 94.075668C37.988708 94.075668,38.748856 93.760727,39.309326 93.200241C39.869812 92.639771,40.184753 91.879623,40.184753 91.086929Z" style="fill: rgb(100.000000%,100.000000%,100.000000%);stroke: none;"></path>
  <path d="M57.761292 95.708939C57.761292 94.916245,57.446350 94.156097,56.885864 93.595627C56.325394 93.035141,55.565247 92.720200,54.772552 92.720200C53.979858 92.720200,53.219711 93.035141,52.659241 93.595627C52.098755 94.156097,51.783813 94.916245,51.783813 95.708939C51.783813 96.501633,52.098755 97.261780,52.659241 97.822250C53.219711 98.382736,53.979858 98.697678,54.772552 98.697678C55.565247 98.697678,56.325394 98.382736,56.885864 97.822250C57.446350 97.261780,57.761292 96.501633,57.761292 95.708939Z" style="fill: rgb(100.000000%,100.000000%,100.000000%);stroke: none;"></path>
  <path d="M5.581070 117.412918C5.581070 116.620224,5.266129 115.860077,4.705643 115.299606C4.145172 114.739120,3.385025 114.424179,2.592331 114.424179C1.799637 114.424179,1.039490 114.739120,0.479019 115.299606C-0.081467 115.860077,-0.396408 116.620224,-0.396408 117.412918C-0.396408 118.205612,-0.081467 118.965759,0.479019 119.526230C1.039490 120.086716,1.799637 120.401657,2.592331 120.401657C3.385025 120.401657,4.145172 120.086716,4.705643 119.526230C5.266129 118.965759,5.581070 118.205612,5.581070 117.412918Z" style="fill: rgb(100.000000%,100.000000%,100.000000%);stroke: none;"></path>
  <path d="M26.557449 93.505447C26.557449 92.712753,26.242508 91.952606,25.682022 91.392136C25.121552 90.831650,24.361404 90.516708,23.568710 90.516708C22.776016 90.516708,22.015869 90.831650,21.455399 91.392136C20.894913 91.952606,20.579971 92.712753,20.579971 93.505447C20.579971 94.298141,20.894913 95.058289,21.455399 95.618759C22.015869 96.179245,22.776016 96.494186,23.568710 96.494186C24.361404 96.494186,25.121552 96.179245,25.682022 95.618759C26.242508 95.058289,26.557449 94.298141,26.557449 93.505447Z" style="fill: rgb(100.000000%,100.000000%,100.000000%);stroke: none;"></path>
  <path d="M37.040390 173.921936C37.040390 173.129242,36.725449 172.369095,36.164963 171.808624C35.604492 171.248138,34.844345 170.933197,34.051651 170.933197C33.258957 170.933197,32.498810 171.248138,31.938339 171.808624C31.377853 172.369095,31.062912 173.129242,31.062912 173.921936C31.062912 174.714630,31.377853 175.474777,31.938339 176.035248C32.498810 176.595734,33.258957 176.910675,34.051651 176.910675C34.844345 176.910675,35.604492 176.595734,36.164963 176.035248C36.725449 175.474777,37.040390 174.714630,37.040390 173.921936Z" style="fill: rgb(100.000000%,100.000000%,100.000000%);stroke: none;"></path>
  <path d="M9.970291 138.862244C9.970291 138.069550,9.655350 137.309402,9.094864 136.748932C8.534393 136.188446,7.774246 135.873505,6.981552 135.873505C6.188858 135.873505,5.428711 136.188446,4.868240 136.748932C4.307755 137.309402,3.992813 138.069550,3.992813 138.862244C3.992813 139.654938,4.307755 140.415085,4.868240 140.975555C5.428711 141.536041,6.188858 141.850983,6.981552 141.850983C7.774246 141.850983,8.534393 141.536041,9.094864 140.975555C9.655350 140.415085,9.970291 139.654938,9.970291 138.862244Z" style="fill: rgb(100.000000%,100.000000%,100.000000%);stroke: none;"></path>
  <path d="M94.868805 165.095764C94.868805 164.303070,94.553864 163.542923,93.993378 162.982452C93.432907 162.421967,92.672760 162.107025,91.880066 162.107025C91.087372 162.107025,90.327225 162.421967,89.766754 162.982452C89.206268 163.542923,88.891327 164.303070,88.891327 165.095764C88.891327 165.888458,89.206268 166.648605,89.766754 167.209076C90.327225 167.769562,91.087372 168.084503,91.880066 168.084503C92.672760 168.084503,93.432907 167.769562,93.993378 167.209076C94.553864 166.648605,94.868805 165.888458,94.868805 165.095764Z" style="fill: rgb(100.000000%,100.000000%,100.000000%);stroke: none;"></path>
  <path d="M61.803925 184.077332C61.803925 183.284637,61.488983 182.524490,60.928497 181.964020C60.368027 181.403534,59.607880 181.088593,58.815186 181.088593C58.022491 181.088593,57.262344 181.403534,56.701874 181.964020C56.141388 182.524490,55.826447 183.284637,55.826447 184.077332C55.826447 184.870026,56.141388 185.630173,56.701874 186.190643C57.262344 186.751129,58.022491 187.066071,58.815186 187.066071C59.607880 187.066071,60.368027 186.751129,60.928497 186.190643C61.488983 185.630173,61.803925 184.870026,61.803925 184.077332Z" style="fill: rgb(100.000000%,100.000000%,100.000000%);stroke: none;"></path>
  <path d="M130.731079 136.807602C130.731079 136.014908,130.416138 135.254761,129.855652 134.694290C129.295181 134.133804,128.535034 133.818863,127.742340 133.818863C126.949646 133.818863,126.189499 134.133804,125.629028 134.694290C125.068542 135.254761,124.753601 136.014908,124.753601 136.807602C124.753601 137.600296,125.068542 138.360443,125.629028 138.920914C126.189499 139.481400,126.949646 139.796341,127.742340 139.796341C128.535034 139.796341,129.295181 139.481400,129.855652 138.920914C130.416138 138.360443,130.731079 137.600296,130.731079 136.807602Z" style="fill: rgb(100.000000%,100.000000%,100.000000%);stroke: none;"></path>
  <path d="M101.349915 149.295746C101.349915 148.503052,101.034973 147.742905,100.474487 147.182434C99.914017 146.621948,99.153870 146.307007,98.361176 146.307007C97.568481 146.307007,96.808334 146.621948,96.247864 147.182434C95.687378 147.742905,95.372437 148.503052,95.372437 149.295746C95.372437 150.088440,95.687378 150.848587,96.247864 151.409058C96.808334 151.969543,97.568481 152.284485,98.361176 152.284485C99.153870 152.284485,99.914017 151.969543,100.474487 151.409058C101.034973 150.848587,101.349915 150.088440,101.349915 149.295746Z" style="fill: rgb(100.000000%,100.000000%,100.000000%);stroke: none;"></path>
  <path d="M185.447067 135.169327C185.447067 134.376633,185.132126 133.616486,184.571640 133.056015C184.011169 132.495529,183.251022 132.180588,182.458328 132.180588C181.665634 132.180588,180.905487 132.495529,180.345016 133.056015C179.784531 133.616486,179.469589 134.376633,179.469589 135.169327C179.469589 135.962021,179.784531 136.722168,180.345016 137.282639C180.905487 137.843124,181.665634 138.158066,182.458328 138.158066C183.251022 138.158066,184.011169 137.843124,184.571640 137.282639C185.132126 136.722168,185.447067 135.962021,185.447067 135.169327Z" style="fill: rgb(100.000000%,100.000000%,100.000000%);stroke: none;"></path>
  <path d="M148.318954 145.401733C148.318954 144.609039,148.004013 143.848892,147.443527 143.288422C146.883057 142.727936,146.122910 142.412994,145.330215 142.412994C144.537521 142.412994,143.777374 142.727936,143.216904 143.288422C142.656418 143.848892,142.341476 144.609039,142.341476 145.401733C142.341476 146.194427,142.656418 146.954575,143.216904 147.515045C143.777374 148.075531,144.537521 148.390472,145.330215 148.390472C146.122910 148.390472,146.883057 148.075531,147.443527 147.515045C148.004013 146.954575,148.318954 146.194427,148.318954 145.401733Z" style="fill: rgb(100.000000%,100.000000%,100.000000%);stroke: none;"></path>
  <path d="M197.793076 70.649307C197.793076 69.856613,197.478134 69.096466,196.917648 68.535995C196.357178 67.975510,195.597031 67.660568,194.804337 67.660568C194.011642 67.660568,193.251495 67.975510,192.691025 68.535995C192.130539 69.096466,191.815598 69.856613,191.815598 70.649307C191.815598 71.442001,192.130539 72.202148,192.691025 72.762619C193.251495 73.323105,194.011642 73.638046,194.804337 73.638046C195.597031 73.638046,196.357178 73.323105,196.917648 72.762619C197.478134 72.202148,197.793076 71.442001,197.793076 70.649307Z" style="fill: rgb(100.000000%,100.000000%,100.000000%);stroke: none;"></path>
  <path d="M195.349121 112.667938C195.349121 111.875244,195.034180 111.115097,194.473694 110.554626C193.913223 109.994141,193.153076 109.679199,192.360382 109.679199C191.567688 109.679199,190.807541 109.994141,190.247070 110.554626C189.686584 111.115097,189.371643 111.875244,189.371643 112.667938C189.371643 113.460632,189.686584 114.220779,190.247070 114.781250C190.807541 115.341736,191.567688 115.656677,192.360382 115.656677C193.153076 115.656677,193.913223 115.341736,194.473694 114.781250C195.034180 114.220779,195.349121 113.460632,195.349121 112.667938Z" style="fill: rgb(100.000000%,100.000000%,100.000000%);stroke: none;"></path>
  <path d="M166.004929 38.149536C166.004929 37.356842,165.689987 36.596695,165.129501 36.036224C164.569031 35.475739,163.808884 35.160797,163.016190 35.160797C162.223495 35.160797,161.463348 35.475739,160.902878 36.036224C160.342392 36.596695,160.027451 37.356842,160.027451 38.149536C160.027451 38.942230,160.342392 39.702377,160.902878 40.262848C161.463348 40.823334,162.223495 41.138275,163.016190 41.138275C163.808884 41.138275,164.569031 40.823334,165.129501 40.262848C165.689987 39.702377,166.004929 38.942230,166.004929 38.149536Z" style="fill: rgb(100.000000%,100.000000%,100.000000%);stroke: none;"></path>
  <path d="M192.385056 50.223358C192.385056 49.430664,192.070114 48.670517,191.509628 48.110046C190.949158 47.549561,190.189011 47.234619,189.396317 47.234619C188.603622 47.234619,187.843475 47.549561,187.283005 48.110046C186.722519 48.670517,186.407578 49.430664,186.407578 50.223358C186.407578 51.016052,186.722519 51.776199,187.283005 52.336670C187.843475 52.897156,188.603622 53.212097,189.396317 53.212097C190.189011 53.212097,190.949158 52.897156,191.509628 52.336670C192.070114 51.776199,192.385056 51.016052,192.385056 50.223358Z" style="fill: rgb(100.000000%,100.000000%,100.000000%);stroke: none;"></path>
  <path d="M142.657410 45.756958C142.657410 44.964264,142.342468 44.204117,141.781982 43.643646C141.221512 43.083160,140.461365 42.768219,139.668671 42.768219C138.875977 42.768219,138.115829 43.083160,137.555359 43.643646C136.994873 44.204117,136.679932 44.964264,136.679932 45.756958C136.679932 46.549652,136.994873 47.309799,137.555359 47.870270C138.115829 48.430756,138.875977 48.745697,139.668671 48.745697C140.461365 48.745697,141.221512 48.430756,141.781982 47.870270C142.342468 47.309799,142.657410 46.549652,142.657410 45.756958Z" style="fill: rgb(100.000000%,100.000000%,100.000000%);stroke: none;"></path>
  <path d="M155.338226 39.159607C155.338226 38.366913,155.023285 37.606766,154.462799 37.046295C153.902328 36.485809,153.142181 36.170868,152.349487 36.170868C151.556793 36.170868,150.796646 36.485809,150.236176 37.046295C149.675690 37.606766,149.360748 38.366913,149.360748 39.159607C149.360748 39.952301,149.675690 40.712448,150.236176 41.272919C150.796646 41.833405,151.556793 42.148346,152.349487 42.148346C153.142181 42.148346,153.902328 41.833405,154.462799 41.272919C155.023285 40.712448,155.338226 39.952301,155.338226 39.159607Z" style="fill: rgb(100.000000%,100.000000%,100.000000%);stroke: none;"></path>
  <path d="M133.601013 51.745087C133.601013 50.952393,133.286072 50.192245,132.725586 49.631775C132.165115 49.071289,131.404968 48.756348,130.612274 48.756348C129.819580 48.756348,129.059433 49.071289,128.498962 49.631775C127.938477 50.192245,127.623535 50.952393,127.623535 51.745087C127.623535 52.537781,127.938477 53.297928,128.498962 53.858398C129.059433 54.418884,129.819580 54.733826,130.612274 54.733826C131.404968 54.733826,132.165115 54.418884,132.725586 53.858398C133.286072 53.297928,133.601013 52.537781,133.601013 51.745087Z" style="fill: rgb(100.000000%,100.000000%,100.000000%);stroke: none;"></path>
  <path d="M139.356934 48.208252C139.356934 47.415558,139.041992 46.655411,138.481506 46.094940C137.921036 45.534454,137.160889 45.219513,136.368195 45.219513C135.575500 45.219513,134.815353 45.534454,134.254883 46.094940C133.694397 46.655411,133.379456 47.415558,133.379456 48.208252C133.379456 49.000946,133.694397 49.761093,134.254883 50.321564C134.815353 50.882050,135.575500 51.196991,136.368195 51.196991C137.160889 51.196991,137.921036 50.882050,138.481506 50.321564C139.041992 49.761093,139.356934 49.000946,139.356934 48.208252Z" style="fill: rgb(100.000000%,100.000000%,100.000000%);stroke: none;"></path>
  <path d="M132.185532 58.731522C132.185532 57.938828,131.870590 57.178680,131.310104 56.618210C130.749634 56.057724,129.989487 55.742783,129.196793 55.742783C128.404099 55.742783,127.643951 56.057724,127.083481 56.618210C126.522995 57.178680,126.208054 57.938828,126.208054 58.731522C126.208054 59.524216,126.522995 60.284363,127.083481 60.844833C127.643951 61.405319,128.404099 61.720261,129.196793 61.720261C129.989487 61.720261,130.749634 61.405319,131.310104 60.844833C131.870590 60.284363,132.185532 59.524216,132.185532 58.731522Z" style="fill: rgb(100.000000%,100.000000%,100.000000%);stroke: none;"></path>
  <path d="M131.226486 53.521851C131.226486 52.729156,130.911545 51.969009,130.351059 51.408539C129.790588 50.848053,129.030441 50.533112,128.237747 50.533112C127.445053 50.533112,126.684906 50.848053,126.124435 51.408539C125.563950 51.969009,125.249008 52.729156,125.249008 53.521851C125.249008 54.314545,125.563950 55.074692,126.124435 55.635162C126.684906 56.195648,127.445053 56.510590,128.237747 56.510590C129.030441 56.510590,129.790588 56.195648,130.351059 55.635162C130.911545 55.074692,131.226486 54.314545,131.226486 53.521851Z" style="fill: rgb(100.000000%,100.000000%,100.000000%);stroke: none;"></path>
  <path d="M143.499603 60.591690C143.499603 59.798996,143.184662 59.038849,142.624176 58.478378C142.063705 57.917892,141.303558 57.602951,140.510864 57.602951C139.718170 57.602951,138.958023 57.917892,138.397552 58.478378C137.837067 59.038849,137.522125 59.798996,137.522125 60.591690C137.522125 61.384384,137.837067 62.144531,138.397552 62.705002C138.958023 63.265488,139.718170 63.580429,140.510864 63.580429C141.303558 63.580429,142.063705 63.265488,142.624176 62.705002C143.184662 62.144531,143.499603 61.384384,143.499603 60.591690Z" style="fill: rgb(100.000000%,100.000000%,100.000000%);stroke: none;"></path>
  <path d="M135.405609 59.396835C135.405609 58.604141,135.090668 57.843994,134.530182 57.283524C133.969711 56.723038,133.209564 56.408096,132.416870 56.408096C131.624176 56.408096,130.864029 56.723038,130.303558 57.283524C129.743073 57.843994,129.428131 58.604141,129.428131 59.396835C129.428131 60.189529,129.743073 60.949677,130.303558 61.510147C130.864029 62.070633,131.624176 62.385574,132.416870 62.385574C133.209564 62.385574,133.969711 62.070633,134.530182 61.510147C135.090668 60.949677,135.405609 60.189529,135.405609 59.396835Z" style="fill: rgb(100.000000%,100.000000%,100.000000%);stroke: none;"></path>
  <path d="M165.003265 62.297714C165.003265 61.505020,164.688324 60.744873,164.127838 60.184402C163.567368 59.623917,162.807220 59.308975,162.014526 59.308975C161.221832 59.308975,160.461685 59.623917,159.901215 60.184402C159.340729 60.744873,159.025787 61.505020,159.025787 62.297714C159.025787 63.090408,159.340729 63.850555,159.901215 64.411026C160.461685 64.971512,161.221832 65.286453,162.014526 65.286453C162.807220 65.286453,163.567368 64.971512,164.127838 64.411026C164.688324 63.850555,165.003265 63.090408,165.003265 62.297714Z" style="fill: rgb(100.000000%,100.000000%,100.000000%);stroke: none;"></path>
  <path d="M148.522858 62.584503C148.522858 61.791809,148.207916 61.031662,147.647430 60.471191C147.086960 59.910706,146.326813 59.595764,145.534119 59.595764C144.741425 59.595764,143.981277 59.910706,143.420807 60.471191C142.860321 61.031662,142.545380 61.791809,142.545380 62.584503C142.545380 63.377197,142.860321 64.137344,143.420807 64.697815C143.981277 65.258301,144.741425 65.573242,145.534119 65.573242C146.326813 65.573242,147.086960 65.258301,147.647430 64.697815C148.207916 64.137344,148.522858 63.377197,148.522858 62.584503Z" style="fill: rgb(100.000000%,100.000000%,100.000000%);stroke: none;"></path>
  <path d="M176.850876 25.647446C176.850876 24.854752,176.535934 24.094604,175.975449 23.534134C175.414978 22.973648,174.654831 22.658707,173.862137 22.658707C173.069443 22.658707,172.309296 22.973648,171.748825 23.534134C171.188339 24.094604,170.873398 24.854752,170.873398 25.647446C170.873398 26.440140,171.188339 27.200287,171.748825 27.760757C172.309296 28.321243,173.069443 28.636185,173.862137 28.636185C174.654831 28.636185,175.414978 28.321243,175.975449 27.760757C176.535934 27.200287,176.850876 26.440140,176.850876 25.647446Z" style="fill: rgb(100.000000%,100.000000%,100.000000%);stroke: none;"></path>
  <path d="M174.186966 53.583786C174.186966 52.791092,173.872025 52.030945,173.311539 51.470474C172.751068 50.909988,171.990921 50.595047,171.198227 50.595047C170.405533 50.595047,169.645386 50.909988,169.084915 51.470474C168.524429 52.030945,168.209488 52.791092,168.209488 53.583786C168.209488 54.376480,168.524429 55.136627,169.084915 55.697098C169.645386 56.257584,170.405533 56.572525,171.198227 56.572525C171.990921 56.572525,172.751068 56.257584,173.311539 55.697098C173.872025 55.136627,174.186966 54.376480,174.186966 53.583786Z" style="fill: rgb(100.000000%,100.000000%,100.000000%);stroke: none;"></path>
  <path d="M124.637131 2.929016C124.637131 2.136322,124.322189 1.376175,123.761703 0.815704C123.201233 0.255219,122.441086 -0.059723,121.648392 -0.059723C120.855698 -0.059723,120.095551 0.255219,119.535080 0.815704C118.974594 1.376175,118.659653 2.136322,118.659653 2.929016C118.659653 3.721710,118.974594 4.481857,119.535080 5.042328C120.095551 5.602814,120.855698 5.917755,121.648392 5.917755C122.441086 5.917755,123.201233 5.602814,123.761703 5.042328C124.322189 4.481857,124.637131 3.721710,124.637131 2.929016Z" style="fill: rgb(100.000000%,100.000000%,100.000000%);stroke: none;"></path>
  <path d="M161.654907 13.316772C161.654907 12.524078,161.339966 11.763931,160.779480 11.203461C160.219009 10.642975,159.458862 10.328033,158.666168 10.328033C157.873474 10.328033,157.113327 10.642975,156.552856 11.203461C155.992371 11.763931,155.677429 12.524078,155.677429 13.316772C155.677429 14.109467,155.992371 14.869614,156.552856 15.430084C157.113327 15.990570,157.873474 16.305511,158.666168 16.305511C159.458862 16.305511,160.219009 15.990570,160.779480 15.430084C161.339966 14.869614,161.654907 14.109467,161.654907 13.316772Z" style="fill: rgb(100.000000%,100.000000%,100.000000%);stroke: none;"></path>
  <path d="M86.236603 35.597794C86.236603 34.805099,85.921661 34.044952,85.361176 33.484482C84.800705 32.923996,84.040558 32.609055,83.247864 32.609055C82.455170 32.609055,81.695023 32.923996,81.134552 33.484482C80.574066 34.044952,80.259125 34.805099,80.259125 35.597794C80.259125 36.390488,80.574066 37.150635,81.134552 37.711105C81.695023 38.271591,82.455170 38.586533,83.247864 38.586533C84.040558 38.586533,84.800705 38.271591,85.361176 37.711105C85.921661 37.150635,86.236603 36.390488,86.236603 35.597794Z" style="fill: rgb(100.000000%,100.000000%,100.000000%);stroke: none;"></path>
  <path d="M102.418900 6.361450C102.418900 5.568756,102.103958 4.808609,101.543472 4.248138C100.983002 3.687653,100.222855 3.372711,99.430161 3.372711C98.637466 3.372711,97.877319 3.687653,97.316849 4.248138C96.756363 4.808609,96.441422 5.568756,96.441422 6.361450C96.441422 7.154144,96.756363 7.914291,97.316849 8.474762C97.877319 9.035248,98.637466 9.350189,99.430161 9.350189C100.222855 9.350189,100.983002 9.035248,101.543472 8.474762C102.103958 7.914291,102.418900 7.154144,102.418900 6.361450Z" style="fill: rgb(100.000000%,100.000000%,100.000000%);stroke: none;"></path>
  <path d="M100.800690 69.682587C100.800690 68.889893,100.485748 68.129745,99.925262 67.569275C99.364792 67.008789,98.604645 66.693848,97.811951 66.693848C97.019257 66.693848,96.259109 67.008789,95.698639 67.569275C95.138153 68.129745,94.823212 68.889893,94.823212 69.682587C94.823212 70.475281,95.138153 71.235428,95.698639 71.795898C96.259109 72.356384,97.019257 72.671326,97.811951 72.671326C98.604645 72.671326,99.364792 72.356384,99.925262 71.795898C100.485748 71.235428,100.800690 70.475281,100.800690 69.682587Z" style="fill: rgb(100.000000%,100.000000%,100.000000%);stroke: none;"></path>
  <path d="M88.979065 50.190659C88.979065 49.397964,88.664124 48.637817,88.103638 48.077347C87.543167 47.516861,86.783020 47.201920,85.990326 47.201920C85.197632 47.201920,84.437485 47.516861,83.877014 48.077347C83.316528 48.637817,83.001587 49.397964,83.001587 50.190659C83.001587 50.983353,83.316528 51.743500,83.877014 52.303970C84.437485 52.864456,85.197632 53.179398,85.990326 53.179398C86.783020 53.179398,87.543167 52.864456,88.103638 52.303970C88.664124 51.743500,88.979065 50.983353,88.979065 50.190659Z" style="fill: rgb(100.000000%,100.000000%,100.000000%);stroke: none;"></path>
  <path d="M119.420059 90.383026C119.420059 89.590332,119.105118 88.830185,118.544632 88.269714C117.984161 87.709229,117.224014 87.394287,116.431320 87.394287C115.638626 87.394287,114.878479 87.709229,114.318008 88.269714C113.757523 88.830185,113.442581 89.590332,113.442581 90.383026C113.442581 91.175720,113.757523 91.935867,114.318008 92.496338C114.878479 93.056824,115.638626 93.371765,116.431320 93.371765C117.224014 93.371765,117.984161 93.056824,118.544632 92.496338C119.105118 91.935867,119.420059 91.175720,119.420059 90.383026Z" style="fill: rgb(100.000000%,100.000000%,100.000000%);stroke: none;"></path>
  <path d="M107.024185 76.098145C107.024185 75.305450,106.709244 74.545303,106.148758 73.984833C105.588287 73.424347,104.828140 73.109406,104.035446 73.109406C103.242752 73.109406,102.482605 73.424347,101.922134 73.984833C101.361649 74.545303,101.046707 75.305450,101.046707 76.098145C101.046707 76.890839,101.361649 77.650986,101.922134 78.211456C102.482605 78.771942,103.242752 79.086884,104.035446 79.086884C104.828140 79.086884,105.588287 78.771942,106.148758 78.211456C106.709244 77.650986,107.024185 76.890839,107.024185 76.098145Z" style="fill: rgb(100.000000%,100.000000%,100.000000%);stroke: none;"></path>
  <path d="M144.822754 116.316818C144.822754 115.524124,144.507812 114.763977,143.947327 114.203506C143.386856 113.643021,142.626709 113.328079,141.834015 113.328079C141.041321 113.328079,140.281174 113.643021,139.720703 114.203506C139.160217 114.763977,138.845276 115.524124,138.845276 116.316818C138.845276 117.109512,139.160217 117.869659,139.720703 118.430130C140.281174 118.990616,141.041321 119.305557,141.834015 119.305557C142.626709 119.305557,143.386856 118.990616,143.947327 118.430130C144.507812 117.869659,144.822754 117.109512,144.822754 116.316818Z" style="fill: rgb(100.000000%,100.000000%,100.000000%);stroke: none;"></path>
  <path d="M125.532990 98.401810C125.532990 97.609116,125.218048 96.848969,124.657562 96.288498C124.097092 95.728012,123.336945 95.413071,122.544250 95.413071C121.751556 95.413071,120.991409 95.728012,120.430939 96.288498C119.870453 96.848969,119.555511 97.609116,119.555511 98.401810C119.555511 99.194504,119.870453 99.954651,120.430939 100.515121C120.991409 101.075607,121.751556 101.390549,122.544250 101.390549C123.336945 101.390549,124.097092 101.075607,124.657562 100.515121C125.218048 99.954651,125.532990 99.194504,125.532990 98.401810Z" style="fill: rgb(100.000000%,100.000000%,100.000000%);stroke: none;"></path>
  <path d="M169.368607 160.072495C169.368607 159.279800,169.053665 158.519653,168.493179 157.959183C167.932709 157.398697,167.172562 157.083755,166.379868 157.083755C165.587173 157.083755,164.827026 157.398697,164.266556 157.959183C163.706070 158.519653,163.391129 159.279800,163.391129 160.072495C163.391129 160.865189,163.706070 161.625336,164.266556 162.185806C164.827026 162.746292,165.587173 163.061234,166.379868 163.061234C167.172562 163.061234,167.932709 162.746292,168.493179 162.185806C169.053665 161.625336,169.368607 160.865189,169.368607 160.072495Z" style="fill: rgb(100.000000%,100.000000%,100.000000%);stroke: none;"></path>
  <path d="M160.310638 125.075378C160.310638 124.282684,159.995697 123.522537,159.435211 122.962067C158.874741 122.401581,158.114594 122.086639,157.321899 122.086639C156.529205 122.086639,155.769058 122.401581,155.208588 122.962067C154.648102 123.522537,154.333160 124.282684,154.333160 125.075378C154.333160 125.868073,154.648102 126.628220,155.208588 127.188690C155.769058 127.749176,156.529205 128.064117,157.321899 128.064117C158.114594 128.064117,158.874741 127.749176,159.435211 127.188690C159.995697 126.628220,160.310638 125.868073,160.310638 125.075378Z" style="fill: rgb(100.000000%,100.000000%,100.000000%);stroke: none;"></path>
  <path d="M116.703491 196.578247C116.703491 195.785553,116.388550 195.025406,115.828064 194.464935C115.267593 193.904449,114.507446 193.589508,113.714752 193.589508C112.922058 193.589508,112.161911 193.904449,111.601440 194.464935C111.040955 195.025406,110.726013 195.785553,110.726013 196.578247C110.726013 197.370941,111.040955 198.131088,111.601440 198.691559C112.161911 199.252045,112.922058 199.566986,113.714752 199.566986C114.507446 199.566986,115.267593 199.252045,115.828064 198.691559C116.388550 198.131088,116.703491 197.370941,116.703491 196.578247Z" style="fill: rgb(100.000000%,100.000000%,100.000000%);stroke: none;"></path>
  <path d="M156.391113 178.523743C156.391113 177.731049,156.076172 176.970901,155.515686 176.410431C154.955215 175.849945,154.195068 175.535004,153.402374 175.535004C152.609680 175.535004,151.849533 175.849945,151.289062 176.410431C150.728577 176.970901,150.413635 177.731049,150.413635 178.523743C150.413635 179.316437,150.728577 180.076584,151.289062 180.637054C151.849533 181.197540,152.609680 181.512482,153.402374 181.512482C154.195068 181.512482,154.955215 181.197540,155.515686 180.637054C156.076172 180.076584,156.391113 179.316437,156.391113 178.523743Z" style="fill: rgb(100.000000%,100.000000%,100.000000%);stroke: none;"></path>
  <path d="M76.232437 160.932571C76.232437 160.139877,75.917496 159.379730,75.357010 158.819260C74.796539 158.258774,74.036392 157.943832,73.243698 157.943832C72.451004 157.943832,71.690857 158.258774,71.130386 158.819260C70.569901 159.379730,70.254959 160.139877,70.254959 160.932571C70.254959 161.725266,70.569901 162.485413,71.130386 163.045883C71.690857 163.606369,72.451004 163.921310,73.243698 163.921310C74.036392 163.921310,74.796539 163.606369,75.357010 163.045883C75.917496 162.485413,76.232437 161.725266,76.232437 160.932571Z" style="fill: rgb(100.000000%,100.000000%,100.000000%);stroke: none;"></path>
  <path d="M91.421646 192.135742C91.421646 191.343048,91.106705 190.582901,90.546219 190.022430C89.985748 189.461945,89.225601 189.147003,88.432907 189.147003C87.640213 189.147003,86.880066 189.461945,86.319595 190.022430C85.759109 190.582901,85.444168 191.343048,85.444168 192.135742C85.444168 192.928436,85.759109 193.688583,86.319595 194.249054C86.880066 194.809540,87.640213 195.124481,88.432907 195.124481C89.225601 195.124481,89.985748 194.809540,90.546219 194.249054C91.106705 193.688583,91.421646 192.928436,91.421646 192.135742Z" style="fill: rgb(100.000000%,100.000000%,100.000000%);stroke: none;"></path>
  <path d="M71.705368 135.019135C69.318542 128.607346,66.749039 122.265045,64.000000 116.000000C62.814056 113.297241,61.581665 110.514847,61.793915 107.563782C61.965927 105.172226,63.081375 102.996460,64.000000 100.788315C65.095215 98.155640,66.509277 95.291000,69.220139 95.376709C72.011154 95.464951,73.184753 98.557098,74.210526 101.292023C75.436691 104.561234,77.292847 107.940674,75.935028 111.163025C74.140976 115.420670,68.787506 115.799545,64.000000 116.000000C58.155502 116.244720,52.366608 117.288376,46.517273 117.400925C34.156555 117.638763,21.674911 113.445099,15.146271 103.104782C4.161560 85.706772,15.093582 64.372406,30.132996 48.492752C46.352997 31.366531,67.673447 17.447205,89.906982 23.566864C101.329514 26.710861,110.224289 35.056259,119.739578 42.043259C123.922577 45.114792,128.280228 47.948166,132.880478 50.351349C134.737686 51.321564,136.732956 52.404999,137.198196 54.432373C137.644043 56.375183,136.434296 58.167328,135.308121 59.823654C132.523361 63.919312,130.174530 68.349731,126.708130 71.896576C121.994156 76.719955,115.693512 79.463501,109.851837 82.800888C103.404388 86.484360,97.423035 90.966766,90.747620 94.225845C85.357315 96.857513,79.595657 98.649628,74.210526 101.292023C72.486008 102.138214,70.721619 103.082352,68.800705 102.936615C67.018784 102.801422,65.499451 101.751007,64.000000 100.788315C59.572266 97.945526,54.772552 95.708939,49.682739 94.370499C37.196014 91.086929,23.568710 93.505447,15.146271 103.104782C2.592331 117.412918,6.981552 138.862244,19.197800 154.684052C34.051651 173.921936,58.815186 184.077332,78.898071 172.548340C91.880066 165.095764,98.361176 149.295746,112.229080 143.401352C127.742340 136.807602,145.330215 145.401733,161.434082 140.963547C182.458328 135.169327,192.360382 112.667938,193.673615 90.089828C194.804337 70.649307,189.396317 50.223358,172.266281 42.383179C163.016190 38.149536,152.349487 39.159607,143.301407 43.866989C139.668671 45.756958,136.368195 48.208252,132.880478 50.351349C130.612274 51.745087,128.237747 53.521851,128.697037 56.016800C129.196793 58.731522,132.416870 59.396835,135.308121 59.823654C140.510864 60.591690,145.534119 62.584503,150.804138 62.492798C162.014526 62.297714,171.198227 53.583786,172.266281 42.383179C173.862137 25.647446,158.666168 13.316772,141.457947 8.487885C121.648392 2.929016,99.430161 6.361450,89.906982 23.566864C83.247864 35.597794,85.990326 50.190659,93.205765 62.087738C97.811951 69.682587,104.035446 76.098145,109.851837 82.800888C116.431320 90.383026,122.544250 98.401810,129.903687 105.236755C141.834015 116.316818,157.321899 125.075378,161.434082 140.963547C166.379868 160.072495,153.402374 178.523743,134.736282 187.015228C113.714752 196.578247,88.432907 192.135742,78.898071 172.548340C73.243698 160.932571,76.194763 147.079102,71.705368 135.019135" style="stroke:rgb(0.000000%,0.000000%,0.000000%); stroke-width: 0.498138;stroke-linecap: round;stroke-linejoin: round;stroke-miterlimit: 10.000000;fill: none;"></path>
  <path d="M71.705368 135.019135C69.318542 128.607346,66.749039 122.265045,64.000000 116.000000C62.814056 113.297241,61.581665 110.514847,61.793915 107.563782C61.965927 105.172226,63.081375 102.996460,64.000000 100.788315" style="stroke:rgb(0.000000%,0.000000%,0.000000%); stroke-width: 1.494400;stroke-linecap: round;stroke-linejoin: round;stroke-miterlimit: 10.000000;fill: none;"></path>
  <path d="M78.898071 172.548340C73.243698 160.932571,76.194763 147.079102,71.705368 135.019135" style="stroke:rgb(0.000000%,0.000000%,0.000000%); stroke-width: 1.494400;stroke-linecap: round;stroke-linejoin: round;stroke-miterlimit: 10.000000;fill: none;"></path>
  <path d="M66.988739 116.000000C66.988739 115.207306,66.673798 114.447159,66.113312 113.886688C65.552841 113.326202,64.792694 113.011261,64.000000 113.011261C63.207306 113.011261,62.447159 113.326202,61.886688 113.886688C61.326202 114.447159,61.011261 115.207306,61.011261 116.000000C61.011261 116.792694,61.326202 117.552841,61.886688 118.113312C62.447159 118.673798,63.207306 118.988739,64.000000 118.988739C64.792694 118.988739,65.552841 118.673798,66.113312 118.113312C66.673798 117.552841,66.988739 116.792694,66.988739 116.000000Z" style="fill: rgb(100.000000%,100.000000%,100.000000%);stroke: none;"></path>
  <path d="M67.988495 125.454529C66.704147 122.284348,65.374512 119.132523,64.000000 116.000000C63.407028 114.648621,62.802444 113.277328,62.372635 111.875000" style="stroke:rgb(0.000000%,0.000000%,0.000000%); stroke-width: 1.494400;stroke-linecap: round;stroke-linejoin: round;stroke-miterlimit: 10.000000;fill: none;"></path>
  <path d="M77.199265 101.292023C77.199265 100.499329,76.884323 99.739182,76.323837 99.178711C75.763367 98.618225,75.003220 98.303284,74.210526 98.303284C73.417831 98.303284,72.657684 98.618225,72.097214 99.178711C71.536728 99.739182,71.221786 100.499329,71.221786 101.292023C71.221786 102.084717,71.536728 102.844864,72.097214 103.405334C72.657684 103.965820,73.417831 104.280762,74.210526 104.280762C75.003220 104.280762,75.763367 103.965820,76.323837 103.405334C76.884323 102.844864,77.199265 102.084717,77.199265 101.292023Z" style="fill: rgb(100.000000%,100.000000%,100.000000%);stroke: none;"></path>
  <path d="M72.377319 97.341873C73.147812 98.467804,73.697647 99.924561,74.210526 101.292023C74.823608 102.926636,75.594193 104.588806,76.041779 106.245117" style="stroke:rgb(0.000000%,0.000000%,0.000000%); stroke-width: 0.498138;stroke-linecap: round;stroke-linejoin: round;stroke-miterlimit: 10.000000;fill: none;"></path>
  <path d="M18.135010 103.104782C18.135010 102.312088,17.820068 101.551941,17.259583 100.991470C16.699112 100.430984,15.938965 100.116043,15.146271 100.116043C14.353577 100.116043,13.593430 100.430984,13.032959 100.991470C12.472473 101.551941,12.157532 102.312088,12.157532 103.104782C12.157532 103.897476,12.472473 104.657623,13.032959 105.218094C13.593430 105.778580,14.353577 106.093521,15.146271 106.093521C15.938965 106.093521,16.699112 105.778580,17.259583 105.218094C17.820068 104.657623,18.135010 103.897476,18.135010 103.104782Z" style="fill: rgb(100.000000%,100.000000%,100.000000%);stroke: none;"></path>
  <path d="M28.644730 114.219650C23.163147 111.908432,18.410583 108.274933,15.146271 103.104782C9.653915 94.405777,9.640747 84.722672,12.880600 75.229370" style="stroke:rgb(0.000000%,0.000000%,0.000000%); stroke-width: 0.498138;stroke-linecap: round;stroke-linejoin: round;stroke-miterlimit: 10.000000;fill: none;"></path>
  <path d="M135.869217 50.351349C135.869217 49.558655,135.554276 48.798508,134.993790 48.238037C134.433319 47.677551,133.673172 47.362610,132.880478 47.362610C132.087784 47.362610,131.327637 47.677551,130.767166 48.238037C130.206680 48.798508,129.891739 49.558655,129.891739 50.351349C129.891739 51.144043,130.206680 51.904190,130.767166 52.464661C131.327637 53.025146,132.087784 53.340088,132.880478 53.340088C133.673172 53.340088,134.433319 53.025146,134.993790 52.464661C135.554276 51.904190,135.869217 51.144043,135.869217 50.351349Z" style="fill: rgb(100.000000%,100.000000%,100.000000%);stroke: none;"></path>
  <path d="M126.153564 46.447937C128.340881 47.840622,130.580353 49.149765,132.880478 50.351349C133.809082 50.836456,134.772202 51.349869,135.561325 51.995438" style="stroke:rgb(0.000000%,0.000000%,0.000000%); stroke-width: 0.498138;stroke-linecap: round;stroke-linejoin: round;stroke-miterlimit: 10.000000;fill: none;"></path>
  <path d="M112.840576 82.800888C112.840576 82.008194,112.525635 81.248047,111.965149 80.687576C111.404678 80.127090,110.644531 79.812149,109.851837 79.812149C109.059143 79.812149,108.298996 80.127090,107.738525 80.687576C107.178040 81.248047,106.863098 82.008194,106.863098 82.800888C106.863098 83.593582,107.178040 84.353729,107.738525 84.914200C108.298996 85.474686,109.059143 85.789627,109.851837 85.789627C110.644531 85.789627,111.404678 85.474686,111.965149 84.914200C112.525635 84.353729,112.840576 83.593582,112.840576 82.800888Z" style="fill: rgb(100.000000%,100.000000%,100.000000%);stroke: none;"></path>
  <path d="M118.702850 77.905991C115.808243 79.611969,112.772675 81.132202,109.851837 82.800888C106.628113 84.642624,103.520905 86.684097,100.385208 88.672531" style="stroke:rgb(0.000000%,0.000000%,0.000000%); stroke-width: 0.498138;stroke-linecap: round;stroke-linejoin: round;stroke-miterlimit: 10.000000;fill: none;"></path>
  <path d="M66.988739 100.788315C66.988739 99.995621,66.673798 99.235474,66.113312 98.675003C65.552841 98.114517,64.792694 97.799576,64.000000 97.799576C63.207306 97.799576,62.447159 98.114517,61.886688 98.675003C61.326202 99.235474,61.011261 99.995621,61.011261 100.788315C61.011261 101.581009,61.326202 102.341156,61.886688 102.901627C62.447159 103.462112,63.207306 103.777054,64.000000 103.777054C64.792694 103.777054,65.552841 103.462112,66.113312 102.901627C66.673798 102.341156,66.988739 101.581009,66.988739 100.788315Z" style="fill: rgb(100.000000%,100.000000%,100.000000%);stroke: none;"></path>
  <path d="M66.294418 102.172775C65.504410 101.772934,64.749725 101.269653,64.000000 100.788315C61.786133 99.366913,59.479263 98.097061,57.089645 97.015259" style="stroke:rgb(0.000000%,0.000000%,0.000000%); stroke-width: 0.498138;stroke-linecap: round;stroke-linejoin: round;stroke-miterlimit: 10.000000;fill: none;"></path>
  <path d="M81.886810 172.548340C81.886810 171.755646,81.571869 170.995499,81.011383 170.435028C80.450912 169.874542,79.690765 169.559601,78.898071 169.559601C78.105377 169.559601,77.345230 169.874542,76.784760 170.435028C76.224274 170.995499,75.909332 171.755646,75.909332 172.548340C75.909332 173.341034,76.224274 174.101181,76.784760 174.661652C77.345230 175.222137,78.105377 175.537079,78.898071 175.537079C79.690765 175.537079,80.450912 175.222137,81.011383 174.661652C81.571869 174.101181,81.886810 173.341034,81.886810 172.548340Z" style="fill: rgb(100.000000%,100.000000%,100.000000%);stroke: none;"></path>
  <path d="M47.087067 175.153778C57.645035 178.656235,68.856628 178.312836,78.898071 172.548340C85.389069 168.822052,90.254852 163.008896,95.231369 157.390518" style="stroke:rgb(0.000000%,0.000000%,0.000000%); stroke-width: 0.498138;stroke-linecap: round;stroke-linejoin: round;stroke-miterlimit: 10.000000;fill: none;"></path>
  <path d="M175.255020 42.383179C175.255020 41.590485,174.940079 40.830338,174.379593 40.269867C173.819122 39.709381,173.058975 39.394440,172.266281 39.394440C171.473587 39.394440,170.713440 39.709381,170.152969 40.269867C169.592484 40.830338,169.277542 41.590485,169.277542 42.383179C169.277542 43.175873,169.592484 43.936020,170.152969 44.496490C170.713440 45.056976,171.473587 45.371918,172.266281 45.371918C173.058975 45.371918,173.819122 45.056976,174.379593 44.496490C174.940079 43.936020,175.255020 43.175873,175.255020 42.383179Z" style="fill: rgb(100.000000%,100.000000%,100.000000%);stroke: none;"></path>
  <path d="M189.817719 61.886368C186.465805 53.369797,180.831299 46.303268,172.266281 42.383179C167.641235 40.266357,162.662033 39.460464,157.708084 39.772202" style="stroke:rgb(0.000000%,0.000000%,0.000000%); stroke-width: 0.498138;stroke-linecap: round;stroke-linejoin: round;stroke-miterlimit: 10.000000;fill: none;"></path>
  <path d="M138.296860 59.823654C138.296860 59.030960,137.981918 58.270813,137.421432 57.710342C136.860962 57.149857,136.100815 56.834915,135.308121 56.834915C134.515427 56.834915,133.755280 57.149857,133.194809 57.710342C132.634323 58.270813,132.319382 59.030960,132.319382 59.823654C132.319382 60.616348,132.634323 61.376495,133.194809 61.936966C133.755280 62.497452,134.515427 62.812393,135.308121 62.812393C136.100815 62.812393,136.860962 62.497452,137.421432 61.936966C137.981918 61.376495,138.296860 60.616348,138.296860 59.823654Z" style="fill: rgb(100.000000%,100.000000%,100.000000%);stroke: none;"></path>
  <path d="M131.105774 58.778198C132.334671 59.337219,133.862503 59.610245,135.308121 59.823654C137.909500 60.207672,140.466003 60.897888,143.030914 61.480637" style="stroke:rgb(0.000000%,0.000000%,0.000000%); stroke-width: 0.498138;stroke-linecap: round;stroke-linejoin: round;stroke-miterlimit: 10.000000;fill: none;"></path>
  <path d="M92.895721 23.566864C92.895721 22.774170,92.580780 22.014023,92.020294 21.453552C91.459824 20.893066,90.699677 20.578125,89.906982 20.578125C89.114288 20.578125,88.354141 20.893066,87.793671 21.453552C87.233185 22.014023,86.918243 22.774170,86.918243 23.566864C86.918243 24.359558,87.233185 25.119705,87.793671 25.680176C88.354141 26.240662,89.114288 26.555603,89.906982 26.555603C90.699677 26.555603,91.459824 26.240662,92.020294 25.680176C92.580780 25.119705,92.895721 24.359558,92.895721 23.566864Z" style="fill: rgb(100.000000%,100.000000%,100.000000%);stroke: none;"></path>
  <path d="M111.825058 7.490768C102.603912 9.804703,94.668564 14.964157,89.906982 23.566864C86.577423 29.582336,85.598251 36.238281,86.353424 42.877502" style="stroke:rgb(0.000000%,0.000000%,0.000000%); stroke-width: 0.498138;stroke-linecap: round;stroke-linejoin: round;stroke-miterlimit: 10.000000;fill: none;"></path>
  <path d="M164.422821 140.963547C164.422821 140.170853,164.107880 139.410706,163.547394 138.850235C162.986923 138.289749,162.226776 137.974808,161.434082 137.974808C160.641388 137.974808,159.881241 138.289749,159.320770 138.850235C158.760284 139.410706,158.445343 140.170853,158.445343 140.963547C158.445343 141.756241,158.760284 142.516388,159.320770 143.076859C159.881241 143.637344,160.641388 143.952286,161.434082 143.952286C162.226776 143.952286,162.986923 143.637344,163.547394 143.076859C164.107880 142.516388,164.422821 141.756241,164.422821 140.963547Z" style="fill: rgb(100.000000%,100.000000%,100.000000%);stroke: none;"></path>
  <path d="M148.600693 121.297119C154.477982 126.857788,159.377991 133.019470,161.434082 140.963547C163.906982 150.518021,161.899048 159.908081,156.939621 167.970947" style="stroke:rgb(0.000000%,0.000000%,0.000000%); stroke-width: 0.498138;stroke-linecap: round;stroke-linejoin: round;stroke-miterlimit: 10.000000;fill: none;"></path>
  <path d="M61.793915 107.563782C61.931519 105.650528,62.672943 103.875381,63.434341 102.111282" style="stroke:rgb(0.000000%,0.000000%,0.000000%); stroke-width: 0.498138;stroke-linecap: round;stroke-linejoin: round;stroke-miterlimit: 10.000000;fill: none;"></path>
  <path d="M63.808029 107.097336C63.402100 105.480957,63.409500 103.795135,63.434341 102.111282C62.226089 103.284363,61.028778 104.471161,60.172836 105.901138Z" style="stroke:rgb(0.000000%,0.000000%,0.000000%); stroke-width: 0.498138;fill: rgb(0.000000%,0.000000%,0.000000%);"></path>
  <path d="M61.793915 107.563782C61.931519 105.650528,62.672943 103.875381,63.434341 102.111282" style="stroke:rgb(0.000000%,0.000000%,0.000000%); stroke-width: 0.498138;stroke-linecap: round;stroke-linejoin: round;stroke-miterlimit: 10.000000;fill: none;"></path>
  <path d="M63.492477 105.110703C63.410934 104.120300,63.419525 103.115433,63.434341 102.111282C62.713806 102.810837,61.997177 103.515289,61.354507 104.273270Z" style="stroke:rgb(0.000000%,0.000000%,0.000000%); stroke-width: 0.498138;fill: rgb(0.000000%,0.000000%,0.000000%);"></path>
  <path d="M69.220139 95.376709C71.452957 95.447296,72.650635 97.440399,73.565582 99.635117" style="stroke:rgb(0.000000%,0.000000%,0.000000%); stroke-width: 0.498138;stroke-linecap: round;stroke-linejoin: round;stroke-miterlimit: 10.000000;fill: none;"></path>
  <path d="M71.230591 97.751511C72.046661 98.215637,72.823944 98.896866,73.565582 99.635117C73.563202 98.588669,73.495300 97.557343,73.246460 96.652115Z" style="stroke:rgb(0.000000%,0.000000%,0.000000%); stroke-width: 0.498138;fill: rgb(0.000000%,0.000000%,0.000000%);"></path>
  <path d="M46.517273 117.400925C36.628662 117.591202,26.662659 114.945282,19.729141 108.585022" style="stroke:rgb(0.000000%,0.000000%,0.000000%); stroke-width: 0.498138;stroke-linecap: round;stroke-linejoin: round;stroke-miterlimit: 10.000000;fill: none;"></path>
  <path d="M22.598343 109.461075C21.628326 109.219574,20.670898 108.928345,19.729141 108.585022C20.152283 109.493713,20.623352 110.376648,21.138474 111.233353Z" style="stroke:rgb(0.000000%,0.000000%,0.000000%); stroke-width: 0.498138;fill: rgb(0.000000%,0.000000%,0.000000%);"></path>
  <path d="M137.198196 54.432373C137.554871 55.986633,136.851959 57.444458,135.979935 58.813461" style="stroke:rgb(0.000000%,0.000000%,0.000000%); stroke-width: 0.498138;stroke-linecap: round;stroke-linejoin: round;stroke-miterlimit: 10.000000;fill: none;"></path>
  <path d="M136.071564 55.814865C136.262314 56.763428,136.159988 57.791977,135.979935 58.813461C136.829544 58.218491,137.629227 57.563568,138.165100 56.757950Z" style="stroke:rgb(0.000000%,0.000000%,0.000000%); stroke-width: 0.498138;fill: rgb(0.000000%,0.000000%,0.000000%);"></path>
  <path d="M126.708130 71.896576C122.936935 75.755295,118.150269 78.282898,113.395508 80.848343" style="stroke:rgb(0.000000%,0.000000%,0.000000%); stroke-width: 0.498138;stroke-linecap: round;stroke-linejoin: round;stroke-miterlimit: 10.000000;fill: none;"></path>
  <path d="M115.285065 78.518204C114.660019 79.297791,114.027008 80.072678,113.395508 80.848343C114.390533 80.746414,115.386063 80.646118,116.379303 80.536850Z" style="stroke:rgb(0.000000%,0.000000%,0.000000%); stroke-width: 0.498138;fill: rgb(0.000000%,0.000000%,0.000000%);"></path>
  <path d="M68.800705 102.936615C67.375168 102.828461,66.117676 102.134567,64.903976 101.368423" style="stroke:rgb(0.000000%,0.000000%,0.000000%); stroke-width: 0.498138;stroke-linecap: round;stroke-linejoin: round;stroke-miterlimit: 10.000000;fill: none;"></path>
  <path d="M67.896896 101.574646C66.912140 101.670990,65.904846 101.540604,64.903976 101.368423C65.489929 102.197922,66.109985 103.002380,66.874435 103.630585Z" style="stroke:rgb(0.000000%,0.000000%,0.000000%); stroke-width: 0.498138;fill: rgb(0.000000%,0.000000%,0.000000%);"></path>
  <path d="M112.229080 143.401352C124.639740 138.126328,138.378159 142.571640,151.622299 142.288345" style="stroke:rgb(0.000000%,0.000000%,0.000000%); stroke-width: 0.498138;stroke-linecap: round;stroke-linejoin: round;stroke-miterlimit: 10.000000;fill: none;"></path>
  <path d="M148.846573 143.426971C149.782608 143.067535,150.708893 142.689804,151.622299 142.288345C150.692566 141.926315,149.770493 141.538422,148.854446 141.130676Z" style="stroke:rgb(0.000000%,0.000000%,0.000000%); stroke-width: 0.498138;fill: rgb(0.000000%,0.000000%,0.000000%);"></path>
  <path d="M143.301407 43.866989C140.395203 45.378967,137.701645 47.250198,134.954773 49.035477" style="stroke:rgb(0.000000%,0.000000%,0.000000%); stroke-width: 0.498138;stroke-linecap: round;stroke-linejoin: round;stroke-miterlimit: 10.000000;fill: none;"></path>
  <path d="M136.641876 46.554840C136.079269 47.381348,135.520844 48.211166,134.954773 49.035477C135.937927 48.852890,136.919571 48.661011,137.901825 48.474426Z" style="stroke:rgb(0.000000%,0.000000%,0.000000%); stroke-width: 0.498138;fill: rgb(0.000000%,0.000000%,0.000000%);"></path>
  <path d="M128.697037 56.016800C129.096848 58.188583,131.237671 59.048737,133.558319 59.524460" style="stroke:rgb(0.000000%,0.000000%,0.000000%); stroke-width: 0.498138;stroke-linecap: round;stroke-linejoin: round;stroke-miterlimit: 10.000000;fill: none;"></path>
  <path d="M130.566376 59.743958C131.496475 59.839233,132.525513 59.723648,133.558319 59.524460C132.687195 58.934982,131.877823 58.289062,131.287537 57.563995Z" style="stroke:rgb(0.000000%,0.000000%,0.000000%); stroke-width: 0.498138;fill: rgb(0.000000%,0.000000%,0.000000%);"></path>
  <path d="M93.205765 62.087738C96.890732 68.163635,101.610779 73.484787,106.329407 78.802032" style="stroke:rgb(0.000000%,0.000000%,0.000000%); stroke-width: 0.498138;stroke-linecap: round;stroke-linejoin: round;stroke-miterlimit: 10.000000;fill: none;"></path>
  <path d="M103.632629 77.487747C104.530365 77.927933,105.429932 78.365005,106.329407 78.802032C106.002411 77.856979,105.675415 76.911819,105.351898 75.965775Z" style="stroke:rgb(0.000000%,0.000000%,0.000000%); stroke-width: 0.498138;fill: rgb(0.000000%,0.000000%,0.000000%);"></path>
  <path d="M129.903687 105.236755C139.447983 114.100845,151.269135 121.479156,157.721237 132.210709" style="stroke:rgb(0.000000%,0.000000%,0.000000%); stroke-width: 0.498138;stroke-linecap: round;stroke-linejoin: round;stroke-miterlimit: 10.000000;fill: none;"></path>
  <path d="M155.241837 130.521973C156.089981 131.054550,156.917328 131.616196,157.721237 132.210709C157.573181 131.221878,157.385330 130.239700,157.162216 129.263397Z" style="stroke:rgb(0.000000%,0.000000%,0.000000%); stroke-width: 0.498138;fill: rgb(0.000000%,0.000000%,0.000000%);"></path>
  <path d="M68.714722 137.729340L74.696014 137.729340L74.696014 130.308945L68.714722 130.308945Z" style="fill: rgb(100.000000%,100.000000%,100.000000%);stroke: none;"></path>
  <path d="M68.714722 139.729340L74.696014 139.729340L74.696014 132.308945L68.714722 132.308945Z" style="fill: rgb(100.000000%,100.000000%,100.000000%);stroke: none;"></path>
  <g transform="translate(69.214722 138.229340)" style="fill: rgb(0.000000%,0.000000%,0.000000%);">
    <use xlink:href="#GLYPHcmr10_49"></use>
  </g>
  <path d="M72.944382 113.873230L78.925674 113.873230L78.925674 106.452835L72.944382 106.452835Z" style="fill: rgb(100.000000%,100.000000%,100.000000%);stroke: none;"></path>
  <path d="M72.944382 115.873230L78.925674 115.873230L78.925674 108.452835L72.944382 108.452835Z" style="fill: rgb(100.000000%,100.000000%,100.000000%);stroke: none;"></path>
  <g transform="translate(73.444382 114.373230)" style="fill: rgb(0.000000%,0.000000%,0.000000%);">
    <use xlink:href="#GLYPHcmr10_50"></use>
  </g>
  <path d="M27.142349 51.202957L33.123642 51.202957L33.123642 43.782562L27.142349 43.782562Z" style="fill: rgb(100.000000%,100.000000%,100.000000%);stroke: none;"></path>
  <path d="M27.142349 53.202957L33.123642 53.202957L33.123642 45.782562L27.142349 45.782562Z" style="fill: rgb(100.000000%,100.000000%,100.000000%);stroke: none;"></path>
  <g transform="translate(27.642349 51.702957)" style="fill: rgb(0.000000%,0.000000%,0.000000%);">
    <use xlink:href="#GLYPHcmr10_51"></use>
  </g>
  <path d="M116.748932 44.753464L122.730225 44.753464L122.730225 37.333069L116.748932 37.333069Z" style="fill: rgb(100.000000%,100.000000%,100.000000%);stroke: none;"></path>
  <path d="M116.748932 46.753464L122.730225 46.753464L122.730225 39.333069L116.748932 39.333069Z" style="fill: rgb(100.000000%,100.000000%,100.000000%);stroke: none;"></path>
  <g transform="translate(117.248932 45.253464)" style="fill: rgb(0.000000%,0.000000%,0.000000%);">
    <use xlink:href="#GLYPHcmr10_52"></use>
  </g>
  <path d="M87.756973 96.936050L93.738266 96.936050L93.738266 89.515656L87.756973 89.515656Z" style="fill: rgb(100.000000%,100.000000%,100.000000%);stroke: none;"></path>
  <path d="M87.756973 98.936050L93.738266 98.936050L93.738266 91.515656L87.756973 91.515656Z" style="fill: rgb(100.000000%,100.000000%,100.000000%);stroke: none;"></path>
  <g transform="translate(88.256973 97.436050)" style="fill: rgb(0.000000%,0.000000%,0.000000%);">
    <use xlink:href="#GLYPHcmr10_53"></use>
  </g>
  <path d="M46.692093 97.080704L52.673386 97.080704L52.673386 89.660309L46.692093 89.660309Z" style="fill: rgb(100.000000%,100.000000%,100.000000%);stroke: none;"></path>
  <path d="M46.692093 99.080704L52.673386 99.080704L52.673386 91.660309L46.692093 91.660309Z" style="fill: rgb(100.000000%,100.000000%,100.000000%);stroke: none;"></path>
  <g transform="translate(47.192093 97.580704)" style="fill: rgb(0.000000%,0.000000%,0.000000%);">
    <use xlink:href="#GLYPHcmr10_54"></use>
  </g>
  <path d="M16.207153 157.394257L22.188446 157.394257L22.188446 149.973862L16.207153 149.973862Z" style="fill: rgb(100.000000%,100.000000%,100.000000%);stroke: none;"></path>
  <path d="M16.207153 159.394257L22.188446 159.394257L22.188446 151.973862L16.207153 151.973862Z" style="fill: rgb(100.000000%,100.000000%,100.000000%);stroke: none;"></path>
  <g transform="translate(16.707153 157.894257)" style="fill: rgb(0.000000%,0.000000%,0.000000%);">
    <use xlink:href="#GLYPHcmr10_55"></use>
  </g>
  <path d="M190.682968 92.800034L196.664261 92.800034L196.664261 85.379639L190.682968 85.379639Z" style="fill: rgb(100.000000%,100.000000%,100.000000%);stroke: none;"></path>
  <path d="M190.682968 94.800034L196.664261 94.800034L196.664261 87.379639L190.682968 87.379639Z" style="fill: rgb(100.000000%,100.000000%,100.000000%);stroke: none;"></path>
  <g transform="translate(191.182968 93.300034)" style="fill: rgb(0.000000%,0.000000%,0.000000%);">
    <use xlink:href="#GLYPHcmr10_56"></use>
  </g>
  <path d="M147.813492 65.203003L153.794785 65.203003L153.794785 57.782608L147.813492 57.782608Z" style="fill: rgb(100.000000%,100.000000%,100.000000%);stroke: none;"></path>
  <path d="M147.813492 67.203003L153.794785 67.203003L153.794785 59.782608L147.813492 59.782608Z" style="fill: rgb(100.000000%,100.000000%,100.000000%);stroke: none;"></path>
  <g transform="translate(148.313492 65.703003)" style="fill: rgb(0.000000%,0.000000%,0.000000%);">
    <use xlink:href="#GLYPHcmr10_57"></use>
  </g>
  <path d="M135.976593 11.198090L146.939301 11.198090L146.939301 3.777695L135.976593 3.777695Z" style="fill: rgb(100.000000%,100.000000%,100.000000%);stroke: none;"></path>
  <path d="M135.976593 13.198090L146.939301 13.198090L146.939301 5.777695L135.976593 5.777695Z" style="fill: rgb(100.000000%,100.000000%,100.000000%);stroke: none;"></path>
  <g transform="translate(136.476593 11.698090)" style="fill: rgb(0.000000%,0.000000%,0.000000%);">
    <use xlink:href="#GLYPHcmr10_49"></use>
    <use xlink:href="#GLYPHcmr10_48" x="5.000095"></use>
  </g>
  <path d="M129.254929 189.725433L140.217636 189.725433L140.217636 182.305038L129.254929 182.305038Z" style="fill: rgb(100.000000%,100.000000%,100.000000%);stroke: none;"></path>
  <path d="M129.254929 191.725433L140.217636 191.725433L140.217636 184.305038L129.254929 184.305038Z" style="fill: rgb(100.000000%,100.000000%,100.000000%);stroke: none;"></path>
  <g transform="translate(129.754929 190.225433)" style="fill: rgb(0.000000%,0.000000%,0.000000%);">
    <use xlink:href="#GLYPHcmr10_49"></use>
    <use xlink:href="#GLYPHcmr10_49" x="5.000095"></use>
  </g>
</svg>
