<?xml version="1.0"?>
<!-- Created by MetaPost 1.999 on 2021.07.06:0010 -->
<svg version="1.1" xmlns="http://www.w3.org/2000/svg" xmlns:xlink="http://www.w3.org/1999/xlink" width="193.228027" height="199.102692" viewBox="0 0 193.228027 199.102692">
<!-- Original BoundingBox: -88.960526 -130.746353 104.267502 68.356339 -->
  <defs>
    <g transform="scale(0.009963,0.009963)" id="GLYPHcmr10_48">
      <path style="fill-rule: evenodd;" d="M460.000000 -320.000000C460.000000 -400.000000,455.000000 -480.000000,420.000000 -554.000000C374.000000 -650.000000,292.000000 -666.000000,250.000000 -666.000000C190.000000 -666.000000,117.000000 -640.000000,76.000000 -547.000000C44.000000 -478.000000,39.000000 -400.000000,39.000000 -320.000000C39.000000 -245.000000,43.000000 -155.000000,84.000000 -79.000000C127.000000 2.000000,200.000000 22.000000,249.000000 22.000000C303.000000 22.000000,379.000000 1.000000,423.000000 -94.000000C455.000000 -163.000000,460.000000 -241.000000,460.000000 -320.000000M249.000000 -0.000000C210.000000 -0.000000,151.000000 -25.000000,133.000000 -121.000000C122.000000 -181.000000,122.000000 -273.000000,122.000000 -332.000000C122.000000 -396.000000,122.000000 -462.000000,130.000000 -516.000000C149.000000 -635.000000,224.000000 -644.000000,249.000000 -644.000000C282.000000 -644.000000,348.000000 -626.000000,367.000000 -527.000000C377.000000 -471.000000,377.000000 -395.000000,377.000000 -332.000000C377.000000 -257.000000,377.000000 -189.000000,366.000000 -125.000000C351.000000 -30.000000,294.000000 -0.000000,249.000000 -0.000000"></path>
    </g>
    <g transform="scale(0.009963,0.009963)" id="GLYPHcmr10_49">
      <path style="fill-rule: evenodd;" d="M294.000000 -640.000000C294.000000 -664.000000,294.000000 -666.000000,271.000000 -666.000000C209.000000 -602.000000,121.000000 -602.000000,89.000000 -602.000000L89.000000 -571.000000C109.000000 -571.000000,168.000000 -571.000000,220.000000 -597.000000L220.000000 -79.000000C220.000000 -43.000000,217.000000 -31.000000,127.000000 -31.000000L95.000000 -31.000000L95.000000 -0.000000L257.000000 -0.000000L130.000000 -3.000000L217.000000 -3.000000L257.000000 -3.000000L297.000000 -3.000000L384.000000 -3.000000L419.000000 -0.000000L419.000000 -31.000000L387.000000 -31.000000C297.000000 -31.000000,294.000000 -42.000000,294.000000 -79.000000"></path>
    </g>
    <g transform="scale(0.009963,0.009963)" id="GLYPHcmr10_50">
      <path style="fill-rule: evenodd;" d="M127.000000 -77.000000L233.000000 -180.000000C389.000000 -318.000000,449.000000 -372.000000,449.000000 -472.000000C449.000000 -586.000000,359.000000 -666.000000,237.000000 -666.000000C124.000000 -666.000000,50.000000 -574.000000,50.000000 -485.000000C50.000000 -429.000000,100.000000 -429.000000,103.000000 -429.000000C120.000000 -429.000000,155.000000 -441.000000,155.000000 -482.000000C155.000000 -508.000000,137.000000 -534.000000,102.000000 -534.000000C94.000000 -534.000000,92.000000 -534.000000,89.000000 -533.000000C112.000000 -598.000000,166.000000 -635.000000,224.000000 -635.000000C315.000000 -635.000000,358.000000 -554.000000,358.000000 -472.000000C358.000000 -392.000000,308.000000 -313.000000,253.000000 -251.000000L61.000000 -37.000000C50.000000 -26.000000,50.000000 -24.000000,50.000000 -0.000000L421.000000 -0.000000L449.000000 -174.000000L424.000000 -174.000000C419.000000 -144.000000,412.000000 -100.000000,402.000000 -85.000000C395.000000 -77.000000,329.000000 -77.000000,307.000000 -77.000000"></path>
    </g>
    <g transform="scale(0.009963,0.009963)" id="GLYPHcmr10_51">
      <path style="fill-rule: evenodd;" d="M290.000000 -352.000000C372.000000 -379.000000,430.000000 -449.000000,430.000000 -528.000000C430.000000 -610.000000,342.000000 -666.000000,246.000000 -666.000000C145.000000 -666.000000,69.000000 -606.000000,69.000000 -530.000000C69.000000 -497.000000,91.000000 -478.000000,120.000000 -478.000000C151.000000 -478.000000,171.000000 -500.000000,171.000000 -529.000000C171.000000 -579.000000,124.000000 -579.000000,109.000000 -579.000000C140.000000 -628.000000,206.000000 -641.000000,242.000000 -641.000000C283.000000 -641.000000,338.000000 -619.000000,338.000000 -529.000000C338.000000 -517.000000,336.000000 -459.000000,310.000000 -415.000000C280.000000 -367.000000,246.000000 -364.000000,221.000000 -363.000000C213.000000 -362.000000,189.000000 -360.000000,182.000000 -360.000000C174.000000 -359.000000,167.000000 -358.000000,167.000000 -348.000000C167.000000 -337.000000,174.000000 -337.000000,191.000000 -337.000000L235.000000 -337.000000C317.000000 -337.000000,354.000000 -269.000000,354.000000 -171.000000C354.000000 -35.000000,285.000000 -6.000000,241.000000 -6.000000C198.000000 -6.000000,123.000000 -23.000000,88.000000 -82.000000C123.000000 -77.000000,154.000000 -99.000000,154.000000 -137.000000C154.000000 -173.000000,127.000000 -193.000000,98.000000 -193.000000C74.000000 -193.000000,42.000000 -179.000000,42.000000 -135.000000C42.000000 -44.000000,135.000000 22.000000,244.000000 22.000000C366.000000 22.000000,457.000000 -69.000000,457.000000 -171.000000C457.000000 -253.000000,394.000000 -331.000000,290.000000 -352.000000"></path>
    </g>
    <g transform="scale(0.009963,0.009963)" id="GLYPHcmr10_52">
      <path style="fill-rule: evenodd;" d="M294.000000 -165.000000L294.000000 -78.000000C294.000000 -42.000000,292.000000 -31.000000,218.000000 -31.000000L197.000000 -31.000000L197.000000 -0.000000L332.000000 -0.000000L238.000000 -3.000000L290.000000 -3.000000L332.000000 -3.000000L374.000000 -3.000000L427.000000 -3.000000L468.000000 -0.000000L468.000000 -31.000000L447.000000 -31.000000C373.000000 -31.000000,371.000000 -42.000000,371.000000 -78.000000L371.000000 -165.000000L471.000000 -165.000000L471.000000 -196.000000L371.000000 -196.000000L371.000000 -651.000000C371.000000 -671.000000,371.000000 -677.000000,355.000000 -677.000000C346.000000 -677.000000,343.000000 -677.000000,335.000000 -665.000000L28.000000 -196.000000L28.000000 -165.000000M300.000000 -196.000000L56.000000 -196.000000L300.000000 -569.000000"></path>
    </g>
    <g transform="scale(0.009963,0.009963)" id="GLYPHcmr10_53">
      <path style="fill-rule: evenodd;" d="M449.000000 -201.000000C449.000000 -320.000000,367.000000 -420.000000,259.000000 -420.000000C211.000000 -420.000000,168.000000 -404.000000,132.000000 -369.000000L132.000000 -564.000000C152.000000 -558.000000,185.000000 -551.000000,217.000000 -551.000000C340.000000 -551.000000,410.000000 -642.000000,410.000000 -655.000000C410.000000 -661.000000,407.000000 -666.000000,400.000000 -666.000000C399.000000 -666.000000,397.000000 -666.000000,392.000000 -663.000000C372.000000 -654.000000,323.000000 -634.000000,256.000000 -634.000000C216.000000 -634.000000,170.000000 -641.000000,123.000000 -662.000000C115.000000 -665.000000,113.000000 -665.000000,111.000000 -665.000000C101.000000 -665.000000,101.000000 -657.000000,101.000000 -641.000000L101.000000 -345.000000C101.000000 -327.000000,101.000000 -319.000000,115.000000 -319.000000C122.000000 -319.000000,124.000000 -322.000000,128.000000 -328.000000C139.000000 -344.000000,176.000000 -398.000000,257.000000 -398.000000C309.000000 -398.000000,334.000000 -352.000000,342.000000 -334.000000C358.000000 -297.000000,360.000000 -258.000000,360.000000 -208.000000C360.000000 -173.000000,360.000000 -113.000000,336.000000 -71.000000C312.000000 -32.000000,275.000000 -6.000000,229.000000 -6.000000C156.000000 -6.000000,99.000000 -59.000000,82.000000 -118.000000C85.000000 -117.000000,88.000000 -116.000000,99.000000 -116.000000C132.000000 -116.000000,149.000000 -141.000000,149.000000 -165.000000C149.000000 -189.000000,132.000000 -214.000000,99.000000 -214.000000C85.000000 -214.000000,50.000000 -207.000000,50.000000 -161.000000C50.000000 -75.000000,119.000000 22.000000,231.000000 22.000000C347.000000 22.000000,449.000000 -74.000000,449.000000 -201.000000"></path>
    </g>
    <g transform="scale(0.009963,0.009963)" id="GLYPHcmr10_54">
      <path style="fill-rule: evenodd;" d="M132.000000 -328.000000L132.000000 -352.000000C132.000000 -605.000000,256.000000 -641.000000,307.000000 -641.000000C331.000000 -641.000000,373.000000 -635.000000,395.000000 -601.000000C380.000000 -601.000000,340.000000 -601.000000,340.000000 -556.000000C340.000000 -525.000000,364.000000 -510.000000,386.000000 -510.000000C402.000000 -510.000000,432.000000 -519.000000,432.000000 -558.000000C432.000000 -618.000000,388.000000 -666.000000,305.000000 -666.000000C177.000000 -666.000000,42.000000 -537.000000,42.000000 -316.000000C42.000000 -49.000000,158.000000 22.000000,251.000000 22.000000C362.000000 22.000000,457.000000 -72.000000,457.000000 -204.000000C457.000000 -331.000000,368.000000 -427.000000,257.000000 -427.000000C189.000000 -427.000000,152.000000 -376.000000,132.000000 -328.000000M251.000000 -6.000000C188.000000 -6.000000,158.000000 -66.000000,152.000000 -81.000000C134.000000 -128.000000,134.000000 -208.000000,134.000000 -226.000000C134.000000 -304.000000,166.000000 -404.000000,256.000000 -404.000000C272.000000 -404.000000,318.000000 -404.000000,349.000000 -342.000000C367.000000 -305.000000,367.000000 -254.000000,367.000000 -205.000000C367.000000 -157.000000,367.000000 -107.000000,350.000000 -71.000000C320.000000 -11.000000,274.000000 -6.000000,251.000000 -6.000000"></path>
    </g>
    <g transform="scale(0.009963,0.009963)" id="GLYPHcmr10_55">
      <path style="fill-rule: evenodd;" d="M476.000000 -609.000000C485.000000 -621.000000,485.000000 -623.000000,485.000000 -644.000000L242.000000 -644.000000C120.000000 -644.000000,118.000000 -657.000000,114.000000 -676.000000L89.000000 -676.000000L56.000000 -470.000000L81.000000 -470.000000C84.000000 -486.000000,93.000000 -549.000000,106.000000 -561.000000C113.000000 -567.000000,191.000000 -567.000000,204.000000 -567.000000L411.000000 -567.000000C400.000000 -551.000000,321.000000 -442.000000,299.000000 -409.000000C209.000000 -274.000000,176.000000 -135.000000,176.000000 -33.000000C176.000000 -23.000000,176.000000 22.000000,222.000000 22.000000C268.000000 22.000000,268.000000 -23.000000,268.000000 -33.000000L268.000000 -84.000000C268.000000 -139.000000,271.000000 -194.000000,279.000000 -248.000000C283.000000 -271.000000,297.000000 -357.000000,341.000000 -419.000000"></path>
    </g>
    <g transform="scale(0.009963,0.009963)" id="GLYPHcmr10_56">
      <path style="fill-rule: evenodd;" d="M163.000000 -457.000000C117.000000 -487.000000,113.000000 -521.000000,113.000000 -538.000000C113.000000 -599.000000,178.000000 -641.000000,249.000000 -641.000000C322.000000 -641.000000,386.000000 -589.000000,386.000000 -517.000000C386.000000 -460.000000,347.000000 -412.000000,287.000000 -377.000000M309.000000 -362.000000C381.000000 -399.000000,430.000000 -451.000000,430.000000 -517.000000C430.000000 -609.000000,341.000000 -666.000000,250.000000 -666.000000C150.000000 -666.000000,69.000000 -592.000000,69.000000 -499.000000C69.000000 -481.000000,71.000000 -436.000000,113.000000 -389.000000C124.000000 -377.000000,161.000000 -352.000000,186.000000 -335.000000C128.000000 -306.000000,42.000000 -250.000000,42.000000 -151.000000C42.000000 -45.000000,144.000000 22.000000,249.000000 22.000000C362.000000 22.000000,457.000000 -61.000000,457.000000 -168.000000C457.000000 -204.000000,446.000000 -249.000000,408.000000 -291.000000C389.000000 -312.000000,373.000000 -322.000000,309.000000 -362.000000M209.000000 -320.000000L332.000000 -242.000000C360.000000 -223.000000,407.000000 -193.000000,407.000000 -132.000000C407.000000 -58.000000,332.000000 -6.000000,250.000000 -6.000000C164.000000 -6.000000,92.000000 -68.000000,92.000000 -151.000000C92.000000 -209.000000,124.000000 -273.000000,209.000000 -320.000000"></path>
    </g>
    <g transform="scale(0.009963,0.009963)" id="GLYPHcmr10_57">
      <path style="fill-rule: evenodd;" d="M367.000000 -318.000000L367.000000 -286.000000C367.000000 -52.000000,263.000000 -6.000000,205.000000 -6.000000C188.000000 -6.000000,134.000000 -8.000000,107.000000 -42.000000C151.000000 -42.000000,159.000000 -71.000000,159.000000 -88.000000C159.000000 -119.000000,135.000000 -134.000000,113.000000 -134.000000C97.000000 -134.000000,67.000000 -125.000000,67.000000 -86.000000C67.000000 -19.000000,121.000000 22.000000,206.000000 22.000000C335.000000 22.000000,457.000000 -114.000000,457.000000 -329.000000C457.000000 -598.000000,342.000000 -666.000000,253.000000 -666.000000C198.000000 -666.000000,149.000000 -648.000000,106.000000 -603.000000C65.000000 -558.000000,42.000000 -516.000000,42.000000 -441.000000C42.000000 -316.000000,130.000000 -218.000000,242.000000 -218.000000C303.000000 -218.000000,344.000000 -260.000000,367.000000 -318.000000M243.000000 -241.000000C227.000000 -241.000000,181.000000 -241.000000,150.000000 -304.000000C132.000000 -341.000000,132.000000 -391.000000,132.000000 -440.000000C132.000000 -494.000000,132.000000 -541.000000,153.000000 -578.000000C180.000000 -628.000000,218.000000 -641.000000,253.000000 -641.000000C299.000000 -641.000000,332.000000 -607.000000,349.000000 -562.000000C361.000000 -530.000000,365.000000 -467.000000,365.000000 -421.000000C365.000000 -338.000000,331.000000 -241.000000,243.000000 -241.000000"></path>
    </g>
  </defs>
  <path d="M92.208176 81.951889C92.208176 81.159195,91.893234 80.399048,91.332748 79.838577C90.772278 79.278091,90.012131 78.963150,89.219437 78.963150C88.426743 78.963150,87.666595 79.278091,87.106125 79.838577C86.545639 80.399048,86.230698 81.159195,86.230698 81.951889C86.230698 82.744583,86.545639 83.504730,87.106125 84.065201C87.666595 84.625687,88.426743 84.940628,89.219437 84.940628C90.012131 84.940628,90.772278 84.625687,91.332748 84.065201C91.893234 83.504730,92.208176 82.744583,92.208176 81.951889Z" style="fill: rgb(100.000000%,100.000000%,100.000000%);stroke: none;"></path>
  <path d="M92.313354 88.953644C92.313354 88.160950,91.998413 87.400803,91.437927 86.840332C90.877457 86.279846,90.117310 85.964905,89.324615 85.964905C88.531921 85.964905,87.771774 86.279846,87.211304 86.840332C86.650818 87.400803,86.335876 88.160950,86.335876 88.953644C86.335876 89.746338,86.650818 90.506485,87.211304 91.066956C87.771774 91.627441,88.531921 91.942383,89.324615 91.942383C90.117310 91.942383,90.877457 91.627441,91.437927 91.066956C91.998413 90.506485,92.313354 89.746338,92.313354 88.953644Z" style="fill: rgb(100.000000%,100.000000%,100.000000%);stroke: none;"></path>
  <path d="M90.249451 61.381897C90.249451 60.589203,89.934509 59.829056,89.374023 59.268585C88.813553 58.708099,88.053406 58.393158,87.260712 58.393158C86.468018 58.393158,85.707870 58.708099,85.147400 59.268585C84.586914 59.829056,84.271973 60.589203,84.271973 61.381897C84.271973 62.174591,84.586914 62.934738,85.147400 63.495209C85.707870 64.055695,86.468018 64.370636,87.260712 64.370636C88.053406 64.370636,88.813553 64.055695,89.374023 63.495209C89.934509 62.934738,90.249451 62.174591,90.249451 61.381897Z" style="fill: rgb(100.000000%,100.000000%,100.000000%);stroke: none;"></path>
  <path d="M91.766129 74.959259C91.766129 74.166565,91.451187 73.406418,90.890701 72.845947C90.330231 72.285461,89.570084 71.970520,88.777390 71.970520C87.984695 71.970520,87.224548 72.285461,86.664078 72.845947C86.103592 73.406418,85.788651 74.166565,85.788651 74.959259C85.788651 75.751953,86.103592 76.512100,86.664078 77.072571C87.224548 77.633057,87.984695 77.947998,88.777390 77.947998C89.570084 77.947998,90.330231 77.633057,90.890701 77.072571C91.451187 76.512100,91.766129 75.751953,91.766129 74.959259Z" style="fill: rgb(100.000000%,100.000000%,100.000000%);stroke: none;"></path>
  <path d="M86.933487 38.384781C86.933487 37.592087,86.618546 36.831940,86.058060 36.271469C85.497589 35.710983,84.737442 35.396042,83.944748 35.396042C83.152054 35.396042,82.391907 35.710983,81.831436 36.271469C81.270950 36.831940,80.956009 37.592087,80.956009 38.384781C80.956009 39.177475,81.270950 39.937622,81.831436 40.498093C82.391907 41.058578,83.152054 41.373520,83.944748 41.373520C84.737442 41.373520,85.497589 41.058578,86.058060 40.498093C86.618546 39.937622,86.933487 39.177475,86.933487 38.384781Z" style="fill: rgb(100.000000%,100.000000%,100.000000%);stroke: none;"></path>
  <path d="M89.207855 54.802628C89.207855 54.009933,88.892914 53.249786,88.332428 52.689316C87.771957 52.128830,87.011810 51.813889,86.219116 51.813889C85.426422 51.813889,84.666275 52.128830,84.105804 52.689316C83.545319 53.249786,83.230377 54.009933,83.230377 54.802628C83.230377 55.595322,83.545319 56.355469,84.105804 56.915939C84.666275 57.476425,85.426422 57.791367,86.219116 57.791367C87.011810 57.791367,87.771957 57.476425,88.332428 56.915939C88.892914 56.355469,89.207855 55.595322,89.207855 54.802628Z" style="fill: rgb(100.000000%,100.000000%,100.000000%);stroke: none;"></path>
  <path d="M98.852768 5.979843C98.852768 5.187149,98.537827 4.427002,97.977341 3.866531C97.416870 3.306046,96.656723 2.991104,95.864029 2.991104C95.071335 2.991104,94.311188 3.306046,93.750717 3.866531C93.190231 4.427002,92.875290 5.187149,92.875290 5.979843C92.875290 6.772537,93.190231 7.532684,93.750717 8.093155C94.311188 8.653641,95.071335 8.968582,95.864029 8.968582C96.656723 8.968582,97.416870 8.653641,97.977341 8.093155C98.537827 7.532684,98.852768 6.772537,98.852768 5.979843Z" style="fill: rgb(100.000000%,100.000000%,100.000000%);stroke: none;"></path>
  <path d="M85.993149 28.038330C85.993149 27.245636,85.678207 26.485489,85.117722 25.925018C84.557251 25.364532,83.797104 25.049591,83.004410 25.049591C82.211716 25.049591,81.451569 25.364532,80.891098 25.925018C80.330612 26.485489,80.015671 27.245636,80.015671 28.038330C80.015671 28.831024,80.330612 29.591171,80.891098 30.151642C81.451569 30.712128,82.211716 31.027069,83.004410 31.027069C83.797104 31.027069,84.557251 30.712128,85.117722 30.151642C85.678207 29.591171,85.993149 28.831024,85.993149 28.038330Z" style="fill: rgb(100.000000%,100.000000%,100.000000%);stroke: none;"></path>
  <path d="M144.213074 14.806351C144.213074 14.013657,143.898132 13.253510,143.337646 12.693039C142.777176 12.132553,142.017029 11.817612,141.224335 11.817612C140.431641 11.817612,139.671494 12.132553,139.111023 12.693039C138.550537 13.253510,138.235596 14.013657,138.235596 14.806351C138.235596 15.599045,138.550537 16.359192,139.111023 16.919662C139.671494 17.480148,140.431641 17.795090,141.224335 17.795090C142.017029 17.795090,142.777176 17.480148,143.337646 16.919662C143.898132 16.359192,144.213074 15.599045,144.213074 14.806351Z" style="fill: rgb(100.000000%,100.000000%,100.000000%);stroke: none;"></path>
  <path d="M116.470703 2.632401C116.470703 1.839706,116.155762 1.079559,115.595276 0.519089C115.034805 -0.041397,114.274658 -0.356339,113.481964 -0.356339C112.689270 -0.356339,111.929123 -0.041397,111.368652 0.519089C110.808167 1.079559,110.493225 1.839706,110.493225 2.632401C110.493225 3.425095,110.808167 4.185242,111.368652 4.745712C111.929123 5.306198,112.689270 5.621140,113.481964 5.621140C114.274658 5.621140,115.034805 5.306198,115.595276 4.745712C116.155762 4.185242,116.470703 3.425095,116.470703 2.632401Z" style="fill: rgb(100.000000%,100.000000%,100.000000%);stroke: none;"></path>
  <path d="M148.221863 54.689743C148.221863 53.897049,147.906921 53.136902,147.346436 52.576431C146.785965 52.015945,146.025818 51.701004,145.233124 51.701004C144.440430 51.701004,143.680283 52.015945,143.119812 52.576431C142.559326 53.136902,142.244385 53.897049,142.244385 54.689743C142.244385 55.482437,142.559326 56.242584,143.119812 56.803055C143.680283 57.363541,144.440430 57.678482,145.233124 57.678482C146.025818 57.678482,146.785965 57.363541,147.346436 56.803055C147.906921 56.242584,148.221863 55.482437,148.221863 54.689743Z" style="fill: rgb(100.000000%,100.000000%,100.000000%);stroke: none;"></path>
  <path d="M153.258865 27.387802C153.258865 26.595108,152.943924 25.834961,152.383438 25.274490C151.822968 24.714005,151.062820 24.399063,150.270126 24.399063C149.477432 24.399063,148.717285 24.714005,148.156815 25.274490C147.596329 25.834961,147.281387 26.595108,147.281387 27.387802C147.281387 28.180496,147.596329 28.940643,148.156815 29.501114C148.717285 30.061600,149.477432 30.376541,150.270126 30.376541C151.062820 30.376541,151.822968 30.061600,152.383438 29.501114C152.943924 28.940643,153.258865 28.180496,153.258865 27.387802Z" style="fill: rgb(100.000000%,100.000000%,100.000000%);stroke: none;"></path>
  <path d="M111.090027 67.796921C111.090027 67.004227,110.775085 66.244080,110.214600 65.683609C109.654129 65.123123,108.893982 64.808182,108.101288 64.808182C107.308594 64.808182,106.548447 65.123123,105.987976 65.683609C105.427490 66.244080,105.112549 67.004227,105.112549 67.796921C105.112549 68.589615,105.427490 69.349762,105.987976 69.910233C106.548447 70.470718,107.308594 70.785660,108.101288 70.785660C108.893982 70.785660,109.654129 70.470718,110.214600 69.910233C110.775085 69.349762,111.090027 68.589615,111.090027 67.796921Z" style="fill: rgb(100.000000%,100.000000%,100.000000%);stroke: none;"></path>
  <path d="M135.014938 62.926865C135.014938 62.134171,134.699997 61.374023,134.139511 60.813553C133.579041 60.253067,132.818893 59.938126,132.026199 59.938126C131.233505 59.938126,130.473358 60.253067,129.912888 60.813553C129.352402 61.374023,129.037460 62.134171,129.037460 62.926865C129.037460 63.719559,129.352402 64.479706,129.912888 65.040176C130.473358 65.600662,131.233505 65.915604,132.026199 65.915604C132.818893 65.915604,133.579041 65.600662,134.139511 65.040176C134.699997 64.479706,135.014938 63.719559,135.014938 62.926865Z" style="fill: rgb(100.000000%,100.000000%,100.000000%);stroke: none;"></path>
  <path d="M82.377640 68.398773C82.377640 67.606079,82.062698 66.845932,81.502213 66.285461C80.941742 65.724976,80.181595 65.410034,79.388901 65.410034C78.596207 65.410034,77.836060 65.724976,77.275589 66.285461C76.715103 66.845932,76.400162 67.606079,76.400162 68.398773C76.400162 69.191467,76.715103 69.951614,77.275589 70.512085C77.836060 71.072571,78.596207 71.387512,79.388901 71.387512C80.181595 71.387512,80.941742 71.072571,81.502213 70.512085C82.062698 69.951614,82.377640 69.191467,82.377640 68.398773Z" style="fill: rgb(100.000000%,100.000000%,100.000000%);stroke: none;"></path>
  <path d="M100.998001 67.536469C100.998001 66.743774,100.683060 65.983627,100.122574 65.423157C99.562103 64.862671,98.801956 64.547729,98.009262 64.547729C97.216568 64.547729,96.456421 64.862671,95.895950 65.423157C95.335464 65.983627,95.020523 66.743774,95.020523 67.536469C95.020523 68.329163,95.335464 69.089310,95.895950 69.649780C96.456421 70.210266,97.216568 70.525208,98.009262 70.525208C98.801956 70.525208,99.562103 70.210266,100.122574 69.649780C100.683060 69.089310,100.998001 68.329163,100.998001 67.536469Z" style="fill: rgb(100.000000%,100.000000%,100.000000%);stroke: none;"></path>
  <path d="M51.384186 69.553619C51.384186 68.760925,51.069244 68.000778,50.508759 67.440308C49.948288 66.879822,49.188141 66.564880,48.395447 66.564880C47.602753 66.564880,46.842606 66.879822,46.282135 67.440308C45.721649 68.000778,45.406708 68.760925,45.406708 69.553619C45.406708 70.346313,45.721649 71.106461,46.282135 71.666931C46.842606 72.227417,47.602753 72.542358,48.395447 72.542358C49.188141 72.542358,49.948288 72.227417,50.508759 71.666931C51.069244 71.106461,51.384186 70.346313,51.384186 69.553619Z" style="fill: rgb(100.000000%,100.000000%,100.000000%);stroke: none;"></path>
  <path d="M73.793152 69.338165C73.793152 68.545471,73.478210 67.785324,72.917725 67.224854C72.357254 66.664368,71.597107 66.349426,70.804413 66.349426C70.011719 66.349426,69.251572 66.664368,68.691101 67.224854C68.130615 67.785324,67.815674 68.545471,67.815674 69.338165C67.815674 70.130859,68.130615 70.891006,68.691101 71.451477C69.251572 72.011963,70.011719 72.326904,70.804413 72.326904C71.597107 72.326904,72.357254 72.011963,72.917725 71.451477C73.478210 70.891006,73.793152 70.130859,73.793152 69.338165Z" style="fill: rgb(100.000000%,100.000000%,100.000000%);stroke: none;"></path>
  <path d="M11.040558 84.163391C11.040558 83.370697,10.725616 82.610550,10.165131 82.050079C9.604660 81.489594,8.844513 81.174652,8.051819 81.174652C7.259125 81.174652,6.498978 81.489594,5.938507 82.050079C5.378021 82.610550,5.063080 83.370697,5.063080 84.163391C5.063080 84.956085,5.378021 85.716232,5.938507 86.276703C6.498978 86.837189,7.259125 87.152130,8.051819 87.152130C8.844513 87.152130,9.604660 86.837189,10.165131 86.276703C10.725616 85.716232,11.040558 84.956085,11.040558 84.163391Z" style="fill: rgb(100.000000%,100.000000%,100.000000%);stroke: none;"></path>
  <path d="M36.820267 67.766144C36.820267 66.973450,36.505325 66.213303,35.944839 65.652832C35.384369 65.092346,34.624222 64.777405,33.831528 64.777405C33.038834 64.777405,32.278687 65.092346,31.718216 65.652832C31.157730 66.213303,30.842789 66.973450,30.842789 67.766144C30.842789 68.558838,31.157730 69.318985,31.718216 69.879456C32.278687 70.439941,33.038834 70.754883,33.831528 70.754883C34.624222 70.754883,35.384369 70.439941,35.944839 69.879456C36.505325 69.318985,36.820267 68.558838,36.820267 67.766144Z" style="fill: rgb(100.000000%,100.000000%,100.000000%);stroke: none;"></path>
  <path d="M5.016953 134.430374C5.016953 133.637680,4.702011 132.877533,4.141525 132.317062C3.581055 131.756577,2.820908 131.441635,2.028214 131.441635C1.235519 131.441635,0.475372 131.756577,-0.085098 132.317062C-0.645584 132.877533,-0.960526 133.637680,-0.960526 134.430374C-0.960526 135.223068,-0.645584 135.983215,-0.085098 136.543686C0.475372 137.104172,1.235519 137.419113,2.028214 137.419113C2.820908 137.419113,3.581055 137.104172,4.141525 136.543686C4.702011 135.983215,5.016953 135.223068,5.016953 134.430374Z" style="fill: rgb(100.000000%,100.000000%,100.000000%);stroke: none;"></path>
  <path d="M7.195572 101.857422C7.195572 101.064728,6.880630 100.304581,6.320145 99.744110C5.759674 99.183624,4.999527 98.868683,4.206833 98.868683C3.414139 98.868683,2.653992 99.183624,2.093521 99.744110C1.533035 100.304581,1.218094 101.064728,1.218094 101.857422C1.218094 102.650116,1.533035 103.410263,2.093521 103.970734C2.653992 104.531219,3.414139 104.846161,4.206833 104.846161C4.999527 104.846161,5.759674 104.531219,6.320145 103.970734C6.880630 103.410263,7.195572 102.650116,7.195572 101.857422Z" style="fill: rgb(100.000000%,100.000000%,100.000000%);stroke: none;"></path>
  <path d="M28.920929 163.195786C28.920929 162.403091,28.605988 161.642944,28.045502 161.082474C27.485031 160.521988,26.724884 160.207047,25.932190 160.207047C25.139496 160.207047,24.379349 160.521988,23.818878 161.082474C23.258392 161.642944,22.943451 162.403091,22.943451 163.195786C22.943451 163.988480,23.258392 164.748627,23.818878 165.309097C24.379349 165.869583,25.139496 166.184525,25.932190 166.184525C26.724884 166.184525,27.485031 165.869583,28.045502 165.309097C28.605988 164.748627,28.920929 163.988480,28.920929 163.195786Z" style="fill: rgb(100.000000%,100.000000%,100.000000%);stroke: none;"></path>
  <path d="M7.043427 151.523544C7.043427 150.730850,6.728485 149.970703,6.167999 149.410233C5.607529 148.849747,4.847382 148.534805,4.054688 148.534805C3.261993 148.534805,2.501846 148.849747,1.941376 149.410233C1.380890 149.970703,1.065948 150.730850,1.065948 151.523544C1.065948 152.316238,1.380890 153.076385,1.941376 153.636856C2.501846 154.197342,3.261993 154.512283,4.054688 154.512283C4.847382 154.512283,5.607529 154.197342,6.167999 153.636856C6.728485 153.076385,7.043427 152.316238,7.043427 151.523544Z" style="fill: rgb(100.000000%,100.000000%,100.000000%);stroke: none;"></path>
  <path d="M54.322601 171.570938C54.322601 170.778244,54.007660 170.018097,53.447174 169.457626C52.886703 168.897141,52.126556 168.582199,51.333862 168.582199C50.541168 168.582199,49.781021 168.897141,49.220551 169.457626C48.660065 170.018097,48.345123 170.778244,48.345123 171.570938C48.345123 172.363632,48.660065 173.123779,49.220551 173.684250C49.781021 174.244736,50.541168 174.559677,51.333862 174.559677C52.126556 174.559677,52.886703 174.244736,53.447174 173.684250C54.007660 173.123779,54.322601 172.363632,54.322601 171.570938Z" style="fill: rgb(100.000000%,100.000000%,100.000000%);stroke: none;"></path>
  <path d="M39.679565 161.397781C39.679565 160.605087,39.364624 159.844940,38.804138 159.284470C38.243668 158.723984,37.483521 158.409042,36.690826 158.409042C35.898132 158.409042,35.137985 158.723984,34.577515 159.284470C34.017029 159.844940,33.702087 160.605087,33.702087 161.397781C33.702087 162.190475,34.017029 162.950623,34.577515 163.511093C35.137985 164.071579,35.898132 164.386520,36.690826 164.386520C37.483521 164.386520,38.243668 164.071579,38.804138 163.511093C39.364624 162.950623,39.679565 162.190475,39.679565 161.397781Z" style="fill: rgb(100.000000%,100.000000%,100.000000%);stroke: none;"></path>
  <path d="M75.294815 195.757614C75.294815 194.964920,74.979874 194.204773,74.419388 193.644302C73.858917 193.083817,73.098770 192.768875,72.306076 192.768875C71.513382 192.768875,70.753235 193.083817,70.192764 193.644302C69.632278 194.204773,69.317337 194.964920,69.317337 195.757614C69.317337 196.550308,69.632278 197.310455,70.192764 197.870926C70.753235 198.431412,71.513382 198.746353,72.306076 198.746353C73.098770 198.746353,73.858917 198.431412,74.419388 197.870926C74.979874 197.310455,75.294815 196.550308,75.294815 195.757614Z" style="fill: rgb(100.000000%,100.000000%,100.000000%);stroke: none;"></path>
  <path d="M56.926987 180.181137C56.926987 179.388443,56.612045 178.628296,56.051559 178.067825C55.491089 177.507339,54.730942 177.192398,53.938248 177.192398C53.145554 177.192398,52.385406 177.507339,51.824936 178.067825C51.264450 178.628296,50.949509 179.388443,50.949509 180.181137C50.949509 180.973831,51.264450 181.733978,51.824936 182.294449C52.385406 182.854935,53.145554 183.169876,53.938248 183.169876C54.730942 183.169876,55.491089 182.854935,56.051559 182.294449C56.612045 181.733978,56.926987 180.973831,56.926987 180.181137Z" style="fill: rgb(100.000000%,100.000000%,100.000000%);stroke: none;"></path>
  <path d="M124.189026 185.548706C124.189026 184.756012,123.874084 183.995865,123.313599 183.435394C122.753128 182.874908,121.992981 182.559967,121.200287 182.559967C120.407593 182.559967,119.647446 182.874908,119.086975 183.435394C118.526489 183.995865,118.211548 184.756012,118.211548 185.548706C118.211548 186.341400,118.526489 187.101547,119.086975 187.662018C119.647446 188.222504,120.407593 188.537445,121.200287 188.537445C121.992981 188.537445,122.753128 188.222504,123.313599 187.662018C123.874084 187.101547,124.189026 186.341400,124.189026 185.548706Z" style="fill: rgb(100.000000%,100.000000%,100.000000%);stroke: none;"></path>
  <path d="M92.416748 189.731354C92.416748 188.938660,92.101807 188.178513,91.541321 187.618042C90.980850 187.057556,90.220703 186.742615,89.428009 186.742615C88.635315 186.742615,87.875168 187.057556,87.314697 187.618042C86.754211 188.178513,86.439270 188.938660,86.439270 189.731354C86.439270 190.524048,86.754211 191.284195,87.314697 191.844666C87.875168 192.405151,88.635315 192.720093,89.428009 192.720093C90.220703 192.720093,90.980850 192.405151,91.541321 191.844666C92.101807 191.284195,92.416748 190.524048,92.416748 189.731354Z" style="fill: rgb(100.000000%,100.000000%,100.000000%);stroke: none;"></path>
  <path d="M153.590347 164.524887C153.590347 163.732193,153.275406 162.972046,152.714920 162.411575C152.154449 161.851089,151.394302 161.536148,150.601608 161.536148C149.808914 161.536148,149.048767 161.851089,148.488297 162.411575C147.927811 162.972046,147.612869 163.732193,147.612869 164.524887C147.612869 165.317581,147.927811 166.077728,148.488297 166.638199C149.048767 167.198685,149.808914 167.513626,150.601608 167.513626C151.394302 167.513626,152.154449 167.198685,152.714920 166.638199C153.275406 166.077728,153.590347 165.317581,153.590347 164.524887Z" style="fill: rgb(100.000000%,100.000000%,100.000000%);stroke: none;"></path>
  <path d="M142.835892 186.231827C142.835892 185.439133,142.520950 184.678986,141.960464 184.118515C141.399994 183.558029,140.639847 183.243088,139.847153 183.243088C139.054459 183.243088,138.294312 183.558029,137.733841 184.118515C137.173355 184.678986,136.858414 185.439133,136.858414 186.231827C136.858414 187.024521,137.173355 187.784668,137.733841 188.345139C138.294312 188.905624,139.054459 189.220566,139.847153 189.220566C140.639847 189.220566,141.399994 188.905624,141.960464 188.345139C142.520950 187.784668,142.835892 187.024521,142.835892 186.231827Z" style="fill: rgb(100.000000%,100.000000%,100.000000%);stroke: none;"></path>
  <path d="M161.855347 139.676376C161.855347 138.883682,161.540405 138.123535,160.979919 137.563065C160.419449 137.002579,159.659302 136.687637,158.866608 136.687637C158.073914 136.687637,157.313766 137.002579,156.753296 137.563065C156.192810 138.123535,155.877869 138.883682,155.877869 139.676376C155.877869 140.469070,156.192810 141.229218,156.753296 141.789688C157.313766 142.350174,158.073914 142.665115,158.866608 142.665115C159.659302 142.665115,160.419449 142.350174,160.979919 141.789688C161.540405 141.229218,161.855347 140.469070,161.855347 139.676376Z" style="fill: rgb(100.000000%,100.000000%,100.000000%);stroke: none;"></path>
  <path d="M151.814713 155.307755C151.814713 154.515060,151.499771 153.754913,150.939285 153.194443C150.378815 152.633957,149.618668 152.319016,148.825974 152.319016C148.033279 152.319016,147.273132 152.633957,146.712662 153.194443C146.152176 153.754913,145.837234 154.515060,145.837234 155.307755C145.837234 156.100449,146.152176 156.860596,146.712662 157.421066C147.273132 157.981552,148.033279 158.296494,148.825974 158.296494C149.618668 158.296494,150.378815 157.981552,150.939285 157.421066C151.499771 156.860596,151.814713 156.100449,151.814713 155.307755Z" style="fill: rgb(100.000000%,100.000000%,100.000000%);stroke: none;"></path>
  <path d="M192.267502 118.744598C192.267502 117.951904,191.952560 117.191757,191.392075 116.631287C190.831604 116.070801,190.071457 115.755859,189.278763 115.755859C188.486069 115.755859,187.725922 116.070801,187.165451 116.631287C186.604965 117.191757,186.290024 117.951904,186.290024 118.744598C186.290024 119.537292,186.604965 120.297440,187.165451 120.857910C187.725922 121.418396,188.486069 121.733337,189.278763 121.733337C190.071457 121.733337,190.831604 121.418396,191.392075 120.857910C191.952560 120.297440,192.267502 119.537292,192.267502 118.744598Z" style="fill: rgb(100.000000%,100.000000%,100.000000%);stroke: none;"></path>
  <path d="M173.843979 138.586304C173.843979 137.793610,173.529037 137.033463,172.968552 136.472992C172.408081 135.912506,171.647934 135.597565,170.855240 135.597565C170.062546 135.597565,169.302399 135.912506,168.741928 136.472992C168.181442 137.033463,167.866501 137.793610,167.866501 138.586304C167.866501 139.378998,168.181442 140.139145,168.741928 140.699615C169.302399 141.260101,170.062546 141.575043,170.855240 141.575043C171.647934 141.575043,172.408081 141.260101,172.968552 140.699615C173.529037 140.139145,173.843979 139.378998,173.843979 138.586304Z" style="fill: rgb(100.000000%,100.000000%,100.000000%);stroke: none;"></path>
  <path d="M172.369232 66.958389C172.369232 66.165695,172.054291 65.405548,171.493805 64.845078C170.933334 64.284592,170.173187 63.969650,169.380493 63.969650C168.587799 63.969650,167.827652 64.284592,167.267181 64.845078C166.706696 65.405548,166.391754 66.165695,166.391754 66.958389C166.391754 67.751083,166.706696 68.511230,167.267181 69.071701C167.827652 69.632187,168.587799 69.947128,169.380493 69.947128C170.173187 69.947128,170.933334 69.632187,171.493805 69.071701C172.054291 68.511230,172.369232 67.751083,172.369232 66.958389Z" style="fill: rgb(100.000000%,100.000000%,100.000000%);stroke: none;"></path>
  <path d="M184.633789 100.419739C184.633789 99.627045,184.318848 98.866898,183.758362 98.306427C183.197891 97.745941,182.437744 97.431000,181.645050 97.431000C180.852356 97.431000,180.092209 97.745941,179.531738 98.306427C178.971252 98.866898,178.656311 99.627045,178.656311 100.419739C178.656311 101.212433,178.971252 101.972580,179.531738 102.533051C180.092209 103.093536,180.852356 103.408478,181.645050 103.408478C182.437744 103.408478,183.197891 103.093536,183.758362 102.533051C184.318848 101.972580,184.633789 101.212433,184.633789 100.419739Z" style="fill: rgb(100.000000%,100.000000%,100.000000%);stroke: none;"></path>
  <path d="M139.706238 36.816498C139.706238 36.023804,139.391296 35.263657,138.830811 34.703186C138.270340 34.142700,137.510193 33.827759,136.717499 33.827759C135.924805 33.827759,135.164658 34.142700,134.604187 34.703186C134.043701 35.263657,133.728760 36.023804,133.728760 36.816498C133.728760 37.609192,134.043701 38.369339,134.604187 38.929810C135.164658 39.490295,135.924805 39.805237,136.717499 39.805237C137.510193 39.805237,138.270340 39.490295,138.830811 38.929810C139.391296 38.369339,139.706238 37.609192,139.706238 36.816498Z" style="fill: rgb(100.000000%,100.000000%,100.000000%);stroke: none;"></path>
  <path d="M167.699554 47.214539C167.699554 46.421844,167.384613 45.661697,166.824127 45.101227C166.263657 44.540741,165.503510 44.225800,164.710815 44.225800C163.918121 44.225800,163.157974 44.540741,162.597504 45.101227C162.037018 45.661697,161.722076 46.421844,161.722076 47.214539C161.722076 48.007233,162.037018 48.767380,162.597504 49.327850C163.157974 49.888336,163.918121 50.203278,164.710815 50.203278C165.503510 50.203278,166.263657 49.888336,166.824127 49.327850C167.384613 48.767380,167.699554 48.007233,167.699554 47.214539Z" style="fill: rgb(100.000000%,100.000000%,100.000000%);stroke: none;"></path>
  <path d="M106.527176 33.072968C106.527176 32.280273,106.212234 31.520126,105.651749 30.959656C105.091278 30.399170,104.331131 30.084229,103.538437 30.084229C102.745743 30.084229,101.985596 30.399170,101.425125 30.959656C100.864639 31.520126,100.549698 32.280273,100.549698 33.072968C100.549698 33.865662,100.864639 34.625809,101.425125 35.186279C101.985596 35.746765,102.745743 36.061707,103.538437 36.061707C104.331131 36.061707,105.091278 35.746765,105.651749 35.186279C106.212234 34.625809,106.527176 33.865662,106.527176 33.072968Z" style="fill: rgb(100.000000%,100.000000%,100.000000%);stroke: none;"></path>
  <path d="M127.148758 41.006317C127.148758 40.213623,126.833817 39.453476,126.273331 38.893005C125.712860 38.332520,124.952713 38.017578,124.160019 38.017578C123.367325 38.017578,122.607178 38.332520,122.046707 38.893005C121.486221 39.453476,121.171280 40.213623,121.171280 41.006317C121.171280 41.799011,121.486221 42.559158,122.046707 43.119629C122.607178 43.680115,123.367325 43.995056,124.160019 43.995056C124.952713 43.995056,125.712860 43.680115,126.273331 43.119629C126.833817 42.559158,127.148758 41.799011,127.148758 41.006317Z" style="fill: rgb(100.000000%,100.000000%,100.000000%);stroke: none;"></path>
  <path d="M74.518692 11.862823C74.518692 11.070129,74.203751 10.309982,73.643265 9.749512C73.082794 9.189026,72.322647 8.874084,71.529953 8.874084C70.737259 8.874084,69.977112 9.189026,69.416641 9.749512C68.856155 10.309982,68.541214 11.070129,68.541214 11.862823C68.541214 12.655518,68.856155 13.415665,69.416641 13.976135C69.977112 14.536621,70.737259 14.851562,71.529953 14.851562C72.322647 14.851562,73.082794 14.536621,73.643265 13.976135C74.203751 13.415665,74.518692 12.655518,74.518692 11.862823Z" style="fill: rgb(100.000000%,100.000000%,100.000000%);stroke: none;"></path>
  <path d="M100.312241 23.775162C100.312241 22.982468,99.997299 22.222321,99.436813 21.661850C98.876343 21.101364,98.116196 20.786423,97.323502 20.786423C96.530807 20.786423,95.770660 21.101364,95.210190 21.661850C94.649704 22.222321,94.334763 22.982468,94.334763 23.775162C94.334763 24.567856,94.649704 25.328003,95.210190 25.888474C95.770660 26.448959,96.530807 26.763901,97.323502 26.763901C98.116196 26.763901,98.876343 26.448959,99.436813 25.888474C99.997299 25.328003,100.312241 24.567856,100.312241 23.775162Z" style="fill: rgb(100.000000%,100.000000%,100.000000%);stroke: none;"></path>
  <path d="M29.737610 44.336731C29.737610 43.544037,29.422668 42.783890,28.862183 42.223419C28.301712 41.662933,27.541565 41.347992,26.748871 41.347992C25.956177 41.347992,25.196030 41.662933,24.635559 42.223419C24.075073 42.783890,23.760132 43.544037,23.760132 44.336731C23.760132 45.129425,24.075073 45.889572,24.635559 46.450043C25.196030 47.010529,25.956177 47.325470,26.748871 47.325470C27.541565 47.325470,28.301712 47.010529,28.862183 46.450043C29.422668 45.889572,29.737610 45.129425,29.737610 44.336731Z" style="fill: rgb(100.000000%,100.000000%,100.000000%);stroke: none;"></path>
  <path d="M56.234634 20.603699C56.234634 19.811005,55.919693 19.050858,55.359207 18.490387C54.798737 17.929901,54.038589 17.614960,53.245895 17.614960C52.453201 17.614960,51.693054 17.929901,51.132584 18.490387C50.572098 19.050858,50.257156 19.811005,50.257156 20.603699C50.257156 21.396393,50.572098 22.156540,51.132584 22.717010C51.693054 23.277496,52.453201 23.592438,53.245895 23.592438C54.038589 23.592438,54.798737 23.277496,55.359207 22.717010C55.919693 22.156540,56.234634 21.396393,56.234634 20.603699Z" style="fill: rgb(100.000000%,100.000000%,100.000000%);stroke: none;"></path>
  <path d="M29.555725 88.123840C29.555725 87.331146,29.240784 86.570999,28.680298 86.010529C28.119827 85.450043,27.359680 85.135101,26.566986 85.135101C25.774292 85.135101,25.014145 85.450043,24.453674 86.010529C23.893188 86.570999,23.578247 87.331146,23.578247 88.123840C23.578247 88.916534,23.893188 89.676682,24.453674 90.237152C25.014145 90.797638,25.774292 91.112579,26.566986 91.112579C27.359680 91.112579,28.119827 90.797638,28.680298 90.237152C29.240784 89.676682,29.555725 88.916534,29.555725 88.123840Z" style="fill: rgb(100.000000%,100.000000%,100.000000%);stroke: none;"></path>
  <path d="M19.839508 59.751038C19.839508 58.958344,19.524567 58.198196,18.964081 57.637726C18.403610 57.077240,17.643463 56.762299,16.850769 56.762299C16.058075 56.762299,15.297928 57.077240,14.737457 57.637726C14.176971 58.198196,13.862030 58.958344,13.862030 59.751038C13.862030 60.543732,14.176971 61.303879,14.737457 61.864349C15.297928 62.424835,16.058075 62.739777,16.850769 62.739777C17.643463 62.739777,18.403610 62.424835,18.964081 61.864349C19.524567 61.303879,19.839508 60.543732,19.839508 59.751038Z" style="fill: rgb(100.000000%,100.000000%,100.000000%);stroke: none;"></path>
  <path d="M64.220291 102.512100C64.220291 101.719406,63.905350 100.959259,63.344864 100.398788C62.784393 99.838303,62.024246 99.523361,61.231552 99.523361C60.438858 99.523361,59.678711 99.838303,59.118240 100.398788C58.557755 100.959259,58.242813 101.719406,58.242813 102.512100C58.242813 103.304794,58.557755 104.064941,59.118240 104.625412C59.678711 105.185898,60.438858 105.500839,61.231552 105.500839C62.024246 105.500839,62.784393 105.185898,63.344864 104.625412C63.905350 104.064941,64.220291 103.304794,64.220291 102.512100Z" style="fill: rgb(100.000000%,100.000000%,100.000000%);stroke: none;"></path>
  <path d="M42.904434 94.480591C42.904434 93.687897,42.589493 92.927750,42.029007 92.367279C41.468536 91.806793,40.708389 91.491852,39.915695 91.491852C39.123001 91.491852,38.362854 91.806793,37.802383 92.367279C37.241898 92.927750,36.926956 93.687897,36.926956 94.480591C36.926956 95.273285,37.241898 96.033432,37.802383 96.593903C38.362854 97.154388,39.123001 97.469330,39.915695 97.469330C40.708389 97.469330,41.468536 97.154388,42.029007 96.593903C42.589493 96.033432,42.904434 95.273285,42.904434 94.480591Z" style="fill: rgb(100.000000%,100.000000%,100.000000%);stroke: none;"></path>
  <path d="M89.231445 109.566864C89.231445 108.774170,88.916504 108.014023,88.356018 107.453552C87.795547 106.893066,87.035400 106.578125,86.242706 106.578125C85.450012 106.578125,84.689865 106.893066,84.129395 107.453552C83.568909 108.014023,83.253967 108.774170,83.253967 109.566864C83.253967 110.359558,83.568909 111.119705,84.129395 111.680176C84.689865 112.240662,85.450012 112.555603,86.242706 112.555603C87.035400 112.555603,87.795547 112.240662,88.356018 111.680176C88.916504 111.119705,89.231445 110.359558,89.231445 109.566864Z" style="fill: rgb(100.000000%,100.000000%,100.000000%);stroke: none;"></path>
  <path d="M72.738754 105.461685C72.738754 104.668991,72.423813 103.908844,71.863327 103.348373C71.302856 102.787888,70.542709 102.472946,69.750015 102.472946C68.957321 102.472946,68.197174 102.787888,67.636703 103.348373C67.076218 103.908844,66.761276 104.668991,66.761276 105.461685C66.761276 106.254379,67.076218 107.014526,67.636703 107.574997C68.197174 108.135483,68.957321 108.450424,69.750015 108.450424C70.542709 108.450424,71.302856 108.135483,71.863327 107.574997C72.423813 107.014526,72.738754 106.254379,72.738754 105.461685Z" style="fill: rgb(100.000000%,100.000000%,100.000000%);stroke: none;"></path>
  <path d="M109.194061 120.351807C109.194061 119.559113,108.879120 118.798965,108.318634 118.238495C107.758163 117.678009,106.998016 117.363068,106.205322 117.363068C105.412628 117.363068,104.652481 117.678009,104.092010 118.238495C103.531525 118.798965,103.216583 119.559113,103.216583 120.351807C103.216583 121.144501,103.531525 121.904648,104.092010 122.465118C104.652481 123.025604,105.412628 123.340546,106.205322 123.340546C106.998016 123.340546,107.758163 123.025604,108.318634 122.465118C108.879120 121.904648,109.194061 121.144501,109.194061 120.351807Z" style="fill: rgb(100.000000%,100.000000%,100.000000%);stroke: none;"></path>
  <path d="M97.360107 110.996964C97.360107 110.204269,97.045166 109.444122,96.484680 108.883652C95.924210 108.323166,95.164062 108.008224,94.371368 108.008224C93.578674 108.008224,92.818527 108.323166,92.258057 108.883652C91.697571 109.444122,91.382629 110.204269,91.382629 110.996964C91.382629 111.789658,91.697571 112.549805,92.258057 113.110275C92.818527 113.670761,93.578674 113.985703,94.371368 113.985703C95.164062 113.985703,95.924210 113.670761,96.484680 113.110275C97.045166 112.549805,97.360107 111.789658,97.360107 110.996964Z" style="fill: rgb(100.000000%,100.000000%,100.000000%);stroke: none;"></path>
  <path d="M118.390442 139.657837C118.390442 138.865143,118.075500 138.104996,117.515015 137.544525C116.954544 136.984039,116.194397 136.669098,115.401703 136.669098C114.609009 136.669098,113.848862 136.984039,113.288391 137.544525C112.727905 138.104996,112.412964 138.865143,112.412964 139.657837C112.412964 140.450531,112.727905 141.210678,113.288391 141.771149C113.848862 142.331635,114.609009 142.646576,115.401703 142.646576C116.194397 142.646576,116.954544 142.331635,117.515015 141.771149C118.075500 141.210678,118.390442 140.450531,118.390442 139.657837Z" style="fill: rgb(100.000000%,100.000000%,100.000000%);stroke: none;"></path>
  <path d="M112.433075 126.816528C112.433075 126.023834,112.118134 125.263687,111.557648 124.703217C110.997177 124.142731,110.237030 123.827789,109.444336 123.827789C108.651642 123.827789,107.891495 124.142731,107.331024 124.703217C106.770538 125.263687,106.455597 126.023834,106.455597 126.816528C106.455597 127.609222,106.770538 128.369370,107.331024 128.929840C107.891495 129.490326,108.651642 129.805267,109.444336 129.805267C110.237030 129.805267,110.997177 129.490326,111.557648 128.929840C112.118134 128.369370,112.433075 127.609222,112.433075 126.816528Z" style="fill: rgb(100.000000%,100.000000%,100.000000%);stroke: none;"></path>
  <path d="M131.182404 161.168472C131.182404 160.375778,130.867462 159.615631,130.306976 159.055161C129.746506 158.494675,128.986359 158.179733,128.193665 158.179733C127.400970 158.179733,126.640823 158.494675,126.080353 159.055161C125.519867 159.615631,125.204926 160.375778,125.204926 161.168472C125.204926 161.961166,125.519867 162.721313,126.080353 163.281784C126.640823 163.842270,127.400970 164.157211,128.193665 164.157211C128.986359 164.157211,129.746506 163.842270,130.306976 163.281784C130.867462 162.721313,131.182404 161.961166,131.182404 161.168472Z" style="fill: rgb(100.000000%,100.000000%,100.000000%);stroke: none;"></path>
  <path d="M121.235931 146.196793C121.235931 145.404099,120.920990 144.643951,120.360504 144.083481C119.800034 143.522995,119.039886 143.208054,118.247192 143.208054C117.454498 143.208054,116.694351 143.522995,116.133881 144.083481C115.573395 144.643951,115.258453 145.404099,115.258453 146.196793C115.258453 146.989487,115.573395 147.749634,116.133881 148.310104C116.694351 148.870590,117.454498 149.185532,118.247192 149.185532C119.039886 149.185532,119.800034 148.870590,120.360504 148.310104C120.920990 147.749634,121.235931 146.989487,121.235931 146.196793Z" style="fill: rgb(100.000000%,100.000000%,100.000000%);stroke: none;"></path>
  <path d="M162.821548 176.211075C162.821548 175.418381,162.506607 174.658234,161.946121 174.097763C161.385651 173.537277,160.625504 173.222336,159.832809 173.222336C159.040115 173.222336,158.279968 173.537277,157.719498 174.097763C157.159012 174.658234,156.844070 175.418381,156.844070 176.211075C156.844070 177.003769,157.159012 177.763916,157.719498 178.324387C158.279968 178.884872,159.040115 179.199814,159.832809 179.199814C160.625504 179.199814,161.385651 178.884872,161.946121 178.324387C162.506607 177.763916,162.821548 177.003769,162.821548 176.211075Z" style="fill: rgb(100.000000%,100.000000%,100.000000%);stroke: none;"></path>
  <path d="M139.601746 168.519821C139.601746 167.727127,139.286804 166.966980,138.726318 166.406509C138.165848 165.846024,137.405701 165.531082,136.613007 165.531082C135.820312 165.531082,135.060165 165.846024,134.499695 166.406509C133.939209 166.966980,133.624268 167.727127,133.624268 168.519821C133.624268 169.312515,133.939209 170.072662,134.499695 170.633133C135.060165 171.193619,135.820312 171.508560,136.613007 171.508560C137.405701 171.508560,138.165848 171.193619,138.726318 170.633133C139.286804 170.072662,139.601746 169.312515,139.601746 168.519821Z" style="fill: rgb(100.000000%,100.000000%,100.000000%);stroke: none;"></path>
  <path d="M190.918259 152.501923C190.918259 151.709229,190.603317 150.949081,190.042831 150.388611C189.482361 149.828125,188.722214 149.513184,187.929520 149.513184C187.136826 149.513184,186.376678 149.828125,185.816208 150.388611C185.255722 150.949081,184.940781 151.709229,184.940781 152.501923C184.940781 153.294617,185.255722 154.054764,185.816208 154.615234C186.376678 155.175720,187.136826 155.490662,187.929520 155.490662C188.722214 155.490662,189.482361 155.175720,190.042831 154.615234C190.603317 154.054764,190.918259 153.294617,190.918259 152.501923Z" style="fill: rgb(100.000000%,100.000000%,100.000000%);stroke: none;"></path>
  <path d="M177.418533 173.408615C177.418533 172.615921,177.103592 171.855774,176.543106 171.295303C175.982635 170.734818,175.222488 170.419876,174.429794 170.419876C173.637100 170.419876,172.876953 170.734818,172.316483 171.295303C171.755997 171.855774,171.441055 172.615921,171.441055 173.408615C171.441055 174.201309,171.755997 174.961456,172.316483 175.521927C172.876953 176.082413,173.637100 176.397354,174.429794 176.397354C175.222488 176.397354,175.982635 176.082413,176.543106 175.521927C177.103592 174.961456,177.418533 174.201309,177.418533 173.408615Z" style="fill: rgb(100.000000%,100.000000%,100.000000%);stroke: none;"></path>
  <path d="M170.823914 120.875702C170.823914 120.083008,170.508972 119.322861,169.948486 118.762390C169.388016 118.201904,168.627869 117.886963,167.835175 117.886963C167.042480 117.886963,166.282333 118.201904,165.721863 118.762390C165.161377 119.322861,164.846436 120.083008,164.846436 120.875702C164.846436 121.668396,165.161377 122.428543,165.721863 122.989014C166.282333 123.549500,167.042480 123.864441,167.835175 123.864441C168.627869 123.864441,169.388016 123.549500,169.948486 122.989014C170.508972 122.428543,170.823914 121.668396,170.823914 120.875702Z" style="fill: rgb(100.000000%,100.000000%,100.000000%);stroke: none;"></path>
  <path d="M188.911514 139.660950C188.911514 138.868256,188.596573 138.108109,188.036087 137.547638C187.475616 136.987152,186.715469 136.672211,185.922775 136.672211C185.130081 136.672211,184.369934 136.987152,183.809464 137.547638C183.248978 138.108109,182.934036 138.868256,182.934036 139.660950C182.934036 140.453644,183.248978 141.213791,183.809464 141.774261C184.369934 142.334747,185.130081 142.649689,185.922775 142.649689C186.715469 142.649689,187.475616 142.334747,188.036087 141.774261C188.596573 141.213791,188.911514 140.453644,188.911514 139.660950Z" style="fill: rgb(100.000000%,100.000000%,100.000000%);stroke: none;"></path>
  <path d="M132.302765 125.256775C132.302765 124.464081,131.987823 123.703934,131.427338 123.143463C130.866867 122.582977,130.106720 122.268036,129.314026 122.268036C128.521332 122.268036,127.761185 122.582977,127.200714 123.143463C126.640228 123.703934,126.325287 124.464081,126.325287 125.256775C126.325287 126.049469,126.640228 126.809616,127.200714 127.370087C127.761185 127.930573,128.521332 128.245514,129.314026 128.245514C130.106720 128.245514,130.866867 127.930573,131.427338 127.370087C131.987823 126.809616,132.302765 126.049469,132.302765 125.256775Z" style="fill: rgb(100.000000%,100.000000%,100.000000%);stroke: none;"></path>
  <path d="M155.413818 119.561127C155.413818 118.768433,155.098877 118.008286,154.538391 117.447815C153.977921 116.887329,153.217773 116.572388,152.425079 116.572388C151.632385 116.572388,150.872238 116.887329,150.311768 117.447815C149.751282 118.008286,149.436340 118.768433,149.436340 119.561127C149.436340 120.353821,149.751282 121.113968,150.311768 121.674438C150.872238 122.234924,151.632385 122.549866,152.425079 122.549866C153.217773 122.549866,153.977921 122.234924,154.538391 121.674438C155.098877 121.113968,155.413818 120.353821,155.413818 119.561127Z" style="fill: rgb(100.000000%,100.000000%,100.000000%);stroke: none;"></path>
  <path d="M108.884323 136.266495C108.884323 135.473801,108.569382 134.713654,108.008896 134.153183C107.448425 133.592697,106.688278 133.277756,105.895584 133.277756C105.102890 133.277756,104.342743 133.592697,103.782272 134.153183C103.221786 134.713654,102.906845 135.473801,102.906845 136.266495C102.906845 137.059189,103.221786 137.819336,103.782272 138.379807C104.342743 138.940292,105.102890 139.255234,105.895584 139.255234C106.688278 139.255234,107.448425 138.940292,108.008896 138.379807C108.569382 137.819336,108.884323 137.059189,108.884323 136.266495Z" style="fill: rgb(100.000000%,100.000000%,100.000000%);stroke: none;"></path>
  <path d="M123.839035 129.267319C123.839035 128.474625,123.524094 127.714478,122.963608 127.154007C122.403137 126.593521,121.642990 126.278580,120.850296 126.278580C120.057602 126.278580,119.297455 126.593521,118.736984 127.154007C118.176498 127.714478,117.861557 128.474625,117.861557 129.267319C117.861557 130.060013,118.176498 130.820160,118.736984 131.380630C119.297455 131.941116,120.057602 132.256058,120.850296 132.256058C121.642990 132.256058,122.403137 131.941116,122.963608 131.380630C123.524094 130.820160,123.839035 130.060013,123.839035 129.267319Z" style="fill: rgb(100.000000%,100.000000%,100.000000%);stroke: none;"></path>
  <path d="M88.190781 142.287048C88.190781 141.494354,87.875839 140.734207,87.315353 140.173737C86.754883 139.613251,85.994736 139.298309,85.202042 139.298309C84.409348 139.298309,83.649200 139.613251,83.088730 140.173737C82.528244 140.734207,82.213303 141.494354,82.213303 142.287048C82.213303 143.079742,82.528244 143.839890,83.088730 144.400360C83.649200 144.960846,84.409348 145.275787,85.202042 145.275787C85.994736 145.275787,86.754883 144.960846,87.315353 144.400360C87.875839 143.839890,88.190781 143.079742,88.190781 142.287048Z" style="fill: rgb(100.000000%,100.000000%,100.000000%);stroke: none;"></path>
  <path d="M102.307663 139.305252C102.307663 138.512558,101.992722 137.752411,101.432236 137.191940C100.871765 136.631454,100.111618 136.316513,99.318924 136.316513C98.526230 136.316513,97.766083 136.631454,97.205612 137.191940C96.645126 137.752411,96.330185 138.512558,96.330185 139.305252C96.330185 140.097946,96.645126 140.858093,97.205612 141.418564C97.766083 141.979050,98.526230 142.293991,99.318924 142.293991C100.111618 142.293991,100.871765 141.979050,101.432236 141.418564C101.992722 140.858093,102.307663 140.097946,102.307663 139.305252Z" style="fill: rgb(100.000000%,100.000000%,100.000000%);stroke: none;"></path>
  <path d="M65.529221 142.068100C65.529221 141.275406,65.214279 140.515259,64.653793 139.954788C64.093323 139.394302,63.333176 139.079361,62.540482 139.079361C61.747787 139.079361,60.987640 139.394302,60.427170 139.954788C59.866684 140.515259,59.551743 141.275406,59.551743 142.068100C59.551743 142.860794,59.866684 143.620941,60.427170 144.181412C60.987640 144.741898,61.747787 145.056839,62.540482 145.056839C63.333176 145.056839,64.093323 144.741898,64.653793 144.181412C65.214279 143.620941,65.529221 142.860794,65.529221 142.068100Z" style="fill: rgb(100.000000%,100.000000%,100.000000%);stroke: none;"></path>
  <path d="M80.923248 142.161194C80.923248 141.368500,80.608307 140.608353,80.047821 140.047882C79.487350 139.487396,78.727203 139.172455,77.934509 139.172455C77.141815 139.172455,76.381668 139.487396,75.821198 140.047882C75.260712 140.608353,74.945770 141.368500,74.945770 142.161194C74.945770 142.953888,75.260712 143.714035,75.821198 144.274506C76.381668 144.834991,77.141815 145.149933,77.934509 145.149933C78.727203 145.149933,79.487350 144.834991,80.047821 144.274506C80.608307 143.714035,80.923248 142.953888,80.923248 142.161194Z" style="fill: rgb(100.000000%,100.000000%,100.000000%);stroke: none;"></path>
  <path d="M37.424622 144.272537C37.424622 143.479843,37.109680 142.719696,36.549194 142.159225C35.988724 141.598740,35.228577 141.283798,34.435883 141.283798C33.643188 141.283798,32.883041 141.598740,32.322571 142.159225C31.762085 142.719696,31.447144 143.479843,31.447144 144.272537C31.447144 145.065231,31.762085 145.825378,32.322571 146.385849C32.883041 146.946335,33.643188 147.261276,34.435883 147.261276C35.228577 147.261276,35.988724 146.946335,36.549194 146.385849C37.109680 145.825378,37.424622 145.065231,37.424622 144.272537Z" style="fill: rgb(100.000000%,100.000000%,100.000000%);stroke: none;"></path>
  <path d="M57.343414 142.131241C57.343414 141.338547,57.028473 140.578400,56.467987 140.017929C55.907516 139.457443,55.147369 139.142502,54.354675 139.142502C53.561981 139.142502,52.801834 139.457443,52.241364 140.017929C51.680878 140.578400,51.365936 141.338547,51.365936 142.131241C51.365936 142.923935,51.680878 143.684082,52.241364 144.244553C52.801834 144.805038,53.561981 145.119980,54.354675 145.119980C55.147369 145.119980,55.907516 144.805038,56.467987 144.244553C57.028473 143.684082,57.343414 142.923935,57.343414 142.131241Z" style="fill: rgb(100.000000%,100.000000%,100.000000%);stroke: none;"></path>
  <path d="M16.107635 168.453705C16.107635 167.661011,15.792694 166.900864,15.232208 166.340393C14.671738 165.779907,13.911591 165.464966,13.118896 165.464966C12.326202 165.464966,11.566055 165.779907,11.005585 166.340393C10.445099 166.900864,10.130157 167.661011,10.130157 168.453705C10.130157 169.246399,10.445099 170.006546,11.005585 170.567017C11.566055 171.127502,12.326202 171.442444,13.118896 171.442444C13.911591 171.442444,14.671738 171.127502,15.232208 170.567017C15.792694 170.006546,16.107635 169.246399,16.107635 168.453705Z" style="fill: rgb(100.000000%,100.000000%,100.000000%);stroke: none;"></path>
  <path d="M25.202942 148.074707C25.202942 147.282013,24.888000 146.521866,24.327515 145.961395C23.767044 145.400909,23.006897 145.085968,22.214203 145.085968C21.421509 145.085968,20.661362 145.400909,20.100891 145.961395C19.540405 146.521866,19.225464 147.282013,19.225464 148.074707C19.225464 148.867401,19.540405 149.627548,20.100891 150.188019C20.661362 150.748505,21.421509 151.063446,22.214203 151.063446C23.006897 151.063446,23.767044 150.748505,24.327515 150.188019C24.888000 149.627548,25.202942 148.867401,25.202942 148.074707Z" style="fill: rgb(100.000000%,100.000000%,100.000000%);stroke: none;"></path>
  <path d="M39.198151 193.513596C39.198151 192.720901,38.883209 191.960754,38.322723 191.400284C37.762253 190.839798,37.002106 190.524857,36.209412 190.524857C35.416718 190.524857,34.656570 190.839798,34.096100 191.400284C33.535614 191.960754,33.220673 192.720901,33.220673 193.513596C33.220673 194.306290,33.535614 195.066437,34.096100 195.626907C34.656570 196.187393,35.416718 196.502335,36.209412 196.502335C37.002106 196.502335,37.762253 196.187393,38.322723 195.626907C38.883209 195.066437,39.198151 194.306290,39.198151 193.513596Z" style="fill: rgb(100.000000%,100.000000%,100.000000%);stroke: none;"></path>
  <path d="M20.183975 179.752121C20.183975 178.959427,19.869034 178.199280,19.308548 177.638809C18.748077 177.078323,17.987930 176.763382,17.195236 176.763382C16.402542 176.763382,15.642395 177.078323,15.081924 177.638809C14.521439 178.199280,14.206497 178.959427,14.206497 179.752121C14.206497 180.544815,14.521439 181.304962,15.081924 181.865433C15.642395 182.425919,16.402542 182.740860,17.195236 182.740860C17.987930 182.740860,18.748077 182.425919,19.308548 181.865433C19.869034 181.304962,20.183975 180.544815,20.183975 179.752121Z" style="fill: rgb(100.000000%,100.000000%,100.000000%);stroke: none;"></path>
  <path d="M70.818878 179.712433C70.818878 178.919739,70.503937 178.159592,69.943451 177.599121C69.382980 177.038635,68.622833 176.723694,67.830139 176.723694C67.037445 176.723694,66.277298 177.038635,65.716827 177.599121C65.156342 178.159592,64.841400 178.919739,64.841400 179.712433C64.841400 180.505127,65.156342 181.265274,65.716827 181.825745C66.277298 182.386230,67.037445 182.701172,67.830139 182.701172C68.622833 182.701172,69.382980 182.386230,69.943451 181.825745C70.503937 181.265274,70.818878 180.505127,70.818878 179.712433Z" style="fill: rgb(100.000000%,100.000000%,100.000000%);stroke: none;"></path>
  <path d="M53.028809 193.027939C53.028809 192.235245,52.713867 191.475098,52.153381 190.914627C51.592911 190.354141,50.832764 190.039200,50.040070 190.039200C49.247375 190.039200,48.487228 190.354141,47.926758 190.914627C47.366272 191.475098,47.051331 192.235245,47.051331 193.027939C47.051331 193.820633,47.366272 194.580780,47.926758 195.141251C48.487228 195.701736,49.247375 196.016678,50.040070 196.016678C50.832764 196.016678,51.592911 195.701736,52.153381 195.141251C52.713867 194.580780,53.028809 193.820633,53.028809 193.027939Z" style="fill: rgb(100.000000%,100.000000%,100.000000%);stroke: none;"></path>
  <path d="M76.152344 154.717834C76.152344 153.925140,75.837402 153.164993,75.276917 152.604523C74.716446 152.044037,73.956299 151.729095,73.163605 151.729095C72.370911 151.729095,71.610764 152.044037,71.050293 152.604523C70.489807 153.164993,70.174866 153.925140,70.174866 154.717834C70.174866 155.510529,70.489807 156.270676,71.050293 156.831146C71.610764 157.391632,72.370911 157.706573,73.163605 157.706573C73.956299 157.706573,74.716446 157.391632,75.276917 156.831146C75.837402 156.270676,76.152344 155.510529,76.152344 154.717834Z" style="fill: rgb(100.000000%,100.000000%,100.000000%);stroke: none;"></path>
  <path d="M75.203033 170.681122C75.203033 169.888428,74.888092 169.128281,74.327606 168.567810C73.767136 168.007324,73.006989 167.692383,72.214294 167.692383C71.421600 167.692383,70.661453 168.007324,70.100983 168.567810C69.540497 169.128281,69.225555 169.888428,69.225555 170.681122C69.225555 171.473816,69.540497 172.233963,70.100983 172.794434C70.661453 173.354919,71.421600 173.669861,72.214294 173.669861C73.006989 173.669861,73.767136 173.354919,74.327606 172.794434C74.888092 172.233963,75.203033 171.473816,75.203033 170.681122Z" style="fill: rgb(100.000000%,100.000000%,100.000000%);stroke: none;"></path>
  <path d="M72.673538 136.267212C72.673538 135.474518,72.358597 134.714371,71.798111 134.153900C71.237640 133.593414,70.477493 133.278473,69.684799 133.278473C68.892105 133.278473,68.131958 133.593414,67.571487 134.153900C67.011002 134.714371,66.696060 135.474518,66.696060 136.267212C66.696060 137.059906,67.011002 137.820053,67.571487 138.380524C68.131958 138.941010,68.892105 139.255951,69.684799 139.255951C70.477493 139.255951,71.237640 138.941010,71.798111 138.380524C72.358597 137.820053,72.673538 137.059906,72.673538 136.267212Z" style="fill: rgb(100.000000%,100.000000%,100.000000%);stroke: none;"></path>
  <path d="M74.812180 148.408279C74.812180 147.615585,74.497238 146.855438,73.936752 146.294968C73.376282 145.734482,72.616135 145.419540,71.823441 145.419540C71.030746 145.419540,70.270599 145.734482,69.710129 146.294968C69.149643 146.855438,68.834702 147.615585,68.834702 148.408279C68.834702 149.200974,69.149643 149.961121,69.710129 150.521591C70.270599 151.082077,71.030746 151.397018,71.823441 151.397018C72.616135 151.397018,73.376282 151.082077,73.936752 150.521591C74.497238 149.961121,74.812180 149.200974,74.812180 148.408279Z" style="fill: rgb(100.000000%,100.000000%,100.000000%);stroke: none;"></path>
  <path d="M74.093521 118.163040C74.093521 117.370346,73.778580 116.610199,73.218094 116.049728C72.657623 115.489243,71.897476 115.174301,71.104782 115.174301C70.312088 115.174301,69.551941 115.489243,68.991470 116.049728C68.430984 116.610199,68.116043 117.370346,68.116043 118.163040C68.116043 118.955734,68.430984 119.715881,68.991470 120.276352C69.551941 120.836838,70.312088 121.151779,71.104782 121.151779C71.897476 121.151779,72.657623 120.836838,73.218094 120.276352C73.778580 119.715881,74.093521 118.955734,74.093521 118.163040Z" style="fill: rgb(100.000000%,100.000000%,100.000000%);stroke: none;"></path>
  <path d="M71.842957 130.302368C71.842957 129.509674,71.528015 128.749527,70.967529 128.189056C70.407059 127.628571,69.646912 127.313629,68.854218 127.313629C68.061523 127.313629,67.301376 127.628571,66.740906 128.189056C66.180420 128.749527,65.865479 129.509674,65.865479 130.302368C65.865479 131.095062,66.180420 131.855209,66.740906 132.415680C67.301376 132.976166,68.061523 133.291107,68.854218 133.291107C69.646912 133.291107,70.407059 132.976166,70.967529 132.415680C71.528015 131.855209,71.842957 131.095062,71.842957 130.302368Z" style="fill: rgb(100.000000%,100.000000%,100.000000%);stroke: none;"></path>
  <path d="M86.291458 101.906998C86.291458 101.114304,85.976517 100.354156,85.416031 99.793686C84.855560 99.233200,84.095413 98.918259,83.302719 98.918259C82.510025 98.918259,81.749878 99.233200,81.189407 99.793686C80.628922 100.354156,80.313980 101.114304,80.313980 101.906998C80.313980 102.699692,80.628922 103.459839,81.189407 104.020309C81.749878 104.580795,82.510025 104.895737,83.302719 104.895737C84.095413 104.895737,84.855560 104.580795,85.416031 104.020309C85.976517 103.459839,86.291458 102.699692,86.291458 101.906998Z" style="fill: rgb(100.000000%,100.000000%,100.000000%);stroke: none;"></path>
  <path d="M77.365005 112.531937C77.365005 111.739243,77.050064 110.979095,76.489578 110.418625C75.929108 109.858139,75.168961 109.543198,74.376266 109.543198C73.583572 109.543198,72.823425 109.858139,72.262955 110.418625C71.702469 110.979095,71.387527 111.739243,71.387527 112.531937C71.387527 113.324631,71.702469 114.084778,72.262955 114.645248C72.823425 115.205734,73.583572 115.520676,74.376266 115.520676C75.168961 115.520676,75.929108 115.205734,76.489578 114.645248C77.050064 114.084778,77.365005 113.324631,77.365005 112.531937Z" style="fill: rgb(100.000000%,100.000000%,100.000000%);stroke: none;"></path>
  <path d="M89.324615 88.953644C89.219437 81.951889,88.777390 74.959259,88.000000 68.000000C87.260712 61.381897,86.219116 54.802628,85.305359 48.206573C83.944748 38.384781,83.004410 28.038330,88.000000 19.469254C95.864029 5.979843,113.481964 2.632401,128.283020 9.127426C141.224335 14.806351,150.270126 27.387802,147.772980 40.923019C145.233124 54.689743,132.026199 62.926865,117.928635 65.796509C108.101288 67.796921,98.009262 67.536469,88.000000 68.000000C79.388901 68.398773,70.804413 69.338165,62.183472 69.421051C48.395447 69.553619,33.831528 67.766144,22.141739 75.201462C8.051819 84.163391,4.206833 101.857422,3.079361 118.714523C2.028214 134.430374,4.054688 151.523544,17.478516 158.685516C25.932190 163.195786,36.690826 161.397781,44.610275 166.899765C51.333862 171.570938,53.938248 180.181137,60.157501 185.455246C72.306076 195.757614,89.428009 189.731354,105.202194 187.654770C121.200287 185.548706,139.847153 186.231827,146.929367 171.936981C150.601608 164.524887,148.825974 155.307755,153.323074 148.306625C158.866608 139.676376,170.855240 138.586304,177.744263 131.166992C189.278763 118.744598,181.645050 100.419739,175.627441 84.001907C169.380493 66.958389,164.710815 47.214539,147.772980 40.923019C136.717499 36.816498,124.160019 41.006317,113.146454 36.769272C103.538437 33.072968,97.323502 23.775162,88.000000 19.469254C71.529953 11.862823,53.245895 20.603699,39.316833 33.079773C26.748871 44.336731,16.850769 59.751038,22.141739 75.201462C26.566986 88.123840,39.915695 94.480591,52.805603 99.337326C61.231552 102.512100,69.750015 105.461685,78.488831 107.636856C86.242706 109.566864,94.371368 110.996964,100.660095 115.968262C106.205322 120.351807,109.444336 126.816528,112.413223 133.216080C115.401703 139.657837,118.247192 146.196793,122.179016 152.115067C128.193665 161.168472,136.613007 168.519821,146.929367 171.936981C159.832809 176.211075,174.429794 173.408615,181.606705 162.293915C187.929520 152.501923,185.922775 139.660950,177.744263 131.166992C167.835175 120.875702,152.425079 119.561127,138.365433 123.026077C129.314026 125.256775,120.850296 129.267319,112.413223 133.216080C105.895584 136.266495,99.318924 139.305252,92.271912 140.793732C85.202042 142.287048,77.934509 142.161194,70.715332 142.117538C62.540482 142.068100,54.354675 142.131241,46.225006 143.005188C34.435883 144.272537,22.214203 148.074707,17.478516 158.685516C13.118896 168.453705,17.195236 179.752121,26.015945 186.136093C36.209412 193.513596,50.040070 193.027939,60.157501 185.455246C67.830139 179.712433,72.214294 170.681122,72.783936 161.102203C73.163605 154.717834,71.823441 148.408279,70.715332 142.117538C69.684799 136.267212,68.854218 130.302368,69.938644 124.453094C71.104782 118.163040,74.376266 112.531937,78.488831 107.636856C83.302719 101.906998,89.437363 96.458435,89.324615 88.953644" style="stroke:rgb(0.000000%,0.000000%,0.000000%); stroke-width: 0.498138;stroke-linecap: round;stroke-linejoin: round;stroke-miterlimit: 10.000000;fill: none;"></path>
  <path d="M89.324615 88.953644C89.219437 81.951889,88.777390 74.959259,88.000000 68.000000C87.260712 61.381897,86.219116 54.802628,85.305359 48.206573C83.944748 38.384781,83.004410 28.038330,88.000000 19.469254" style="stroke:rgb(0.000000%,0.000000%,0.000000%); stroke-width: 1.494400;stroke-linecap: round;stroke-linejoin: round;stroke-miterlimit: 10.000000;fill: none;"></path>
  <path d="M78.488831 107.636856C83.302719 101.906998,89.437363 96.458435,89.324615 88.953644" style="stroke:rgb(0.000000%,0.000000%,0.000000%); stroke-width: 1.494400;stroke-linecap: round;stroke-linejoin: round;stroke-miterlimit: 10.000000;fill: none;"></path>
  <path d="M90.988739 68.000000C90.988739 67.207306,90.673798 66.447159,90.113312 65.886688C89.552841 65.326202,88.792694 65.011261,88.000000 65.011261C87.207306 65.011261,86.447159 65.326202,85.886688 65.886688C85.326202 66.447159,85.011261 67.207306,85.011261 68.000000C85.011261 68.792694,85.326202 69.552841,85.886688 70.113312C86.447159 70.673798,87.207306 70.988739,88.000000 70.988739C88.792694 70.988739,89.552841 70.673798,90.113312 70.113312C90.673798 69.552841,90.988739 68.792694,90.988739 68.000000Z" style="fill: rgb(100.000000%,100.000000%,100.000000%);stroke: none;"></path>
  <path d="M88.914368 78.460876C88.693542 74.967590,88.388687 71.479630,88.000000 68.000000C87.630356 64.690948,87.185135 61.391602,86.718094 58.095001" style="stroke:rgb(0.000000%,0.000000%,0.000000%); stroke-width: 1.494400;stroke-linecap: round;stroke-linejoin: round;stroke-miterlimit: 10.000000;fill: none;"></path>
  <path d="M150.761719 40.923019C150.761719 40.130325,150.446777 39.370178,149.886292 38.809708C149.325821 38.249222,148.565674 37.934280,147.772980 37.934280C146.980286 37.934280,146.220139 38.249222,145.659668 38.809708C145.099182 39.370178,144.784241 40.130325,144.784241 40.923019C144.784241 41.715714,145.099182 42.475861,145.659668 43.036331C146.220139 43.596817,146.980286 43.911758,147.772980 43.911758C148.565674 43.911758,149.325821 43.596817,149.886292 43.036331C150.446777 42.475861,150.761719 41.715714,150.761719 40.923019Z" style="fill: rgb(100.000000%,100.000000%,100.000000%);stroke: none;"></path>
  <path d="M143.817429 22.079117C147.384399 27.626251,149.021545 34.155411,147.772980 40.923019C146.503052 47.806381,142.566345 53.307343,137.184937 57.446182" style="stroke:rgb(0.000000%,0.000000%,0.000000%); stroke-width: 0.498138;stroke-linecap: round;stroke-linejoin: round;stroke-miterlimit: 10.000000;fill: none;"></path>
  <path d="M25.130478 75.201462C25.130478 74.408768,24.815536 73.648621,24.255051 73.088150C23.694580 72.527664,22.934433 72.212723,22.141739 72.212723C21.349045 72.212723,20.588898 72.527664,20.028427 73.088150C19.467941 73.648621,19.153000 74.408768,19.153000 75.201462C19.153000 75.994156,19.467941 76.754303,20.028427 77.314774C20.588898 77.875259,21.349045 78.190201,22.141739 78.190201C22.934433 78.190201,23.694580 77.875259,24.255051 77.314774C24.815536 76.754303,25.130478 75.994156,25.130478 75.201462Z" style="fill: rgb(100.000000%,100.000000%,100.000000%);stroke: none;"></path>
  <path d="M41.375748 69.572739C34.550049 70.071854,27.986633 71.483810,22.141739 75.201462C15.096771 79.682434,10.613037 86.346420,7.749619 93.997314" style="stroke:rgb(0.000000%,0.000000%,0.000000%); stroke-width: 0.498138;stroke-linecap: round;stroke-linejoin: round;stroke-miterlimit: 10.000000;fill: none;"></path>
  <path d="M63.146240 185.455246C63.146240 184.662552,62.831299 183.902405,62.270813 183.341934C61.710342 182.781448,60.950195 182.466507,60.157501 182.466507C59.364807 182.466507,58.604660 182.781448,58.044189 183.341934C57.483704 183.902405,57.168762 184.662552,57.168762 185.455246C57.168762 186.247940,57.483704 187.008087,58.044189 187.568558C58.604660 188.129044,59.364807 188.443985,60.157501 188.443985C60.950195 188.443985,61.710342 188.129044,62.270813 187.568558C62.831299 187.008087,63.146240 186.247940,63.146240 185.455246Z" style="fill: rgb(100.000000%,100.000000%,100.000000%);stroke: none;"></path>
  <path d="M52.573029 175.951416C54.841980 179.347122,57.047882 182.818192,60.157501 185.455246C66.231796 190.606430,73.549423 191.675461,81.320251 191.197113" style="stroke:rgb(0.000000%,0.000000%,0.000000%); stroke-width: 0.498138;stroke-linecap: round;stroke-linejoin: round;stroke-miterlimit: 10.000000;fill: none;"></path>
  <path d="M180.733002 131.166992C180.733002 130.374298,180.418060 129.614151,179.857574 129.053680C179.297104 128.493195,178.536957 128.178253,177.744263 128.178253C176.951569 128.178253,176.191422 128.493195,175.630951 129.053680C175.070465 129.614151,174.755524 130.374298,174.755524 131.166992C174.755524 131.959686,175.070465 132.719833,175.630951 133.280304C176.191422 133.840790,176.951569 134.155731,177.744263 134.155731C178.536957 134.155731,179.297104 133.840790,179.857574 133.280304C180.418060 132.719833,180.733002 131.959686,180.733002 131.166992Z" style="fill: rgb(100.000000%,100.000000%,100.000000%);stroke: none;"></path>
  <path d="M165.029129 139.282700C169.580353 137.003983,174.299759 134.876648,177.744263 131.166992C183.511520 124.955795,184.486710 117.268982,183.267883 109.082733" style="stroke:rgb(0.000000%,0.000000%,0.000000%); stroke-width: 0.498138;stroke-linecap: round;stroke-linejoin: round;stroke-miterlimit: 10.000000;fill: none;"></path>
  <path d="M90.988739 19.469254C90.988739 18.676559,90.673798 17.916412,90.113312 17.355942C89.552841 16.795456,88.792694 16.480515,88.000000 16.480515C87.207306 16.480515,86.447159 16.795456,85.886688 17.355942C85.326202 17.916412,85.011261 18.676559,85.011261 19.469254C85.011261 20.261948,85.326202 21.022095,85.886688 21.582565C86.447159 22.143051,87.207306 22.457993,88.000000 22.457993C88.792694 22.457993,89.552841 22.143051,90.113312 21.582565C90.673798 21.022095,90.988739 20.261948,90.988739 19.469254Z" style="fill: rgb(100.000000%,100.000000%,100.000000%);stroke: none;"></path>
  <path d="M100.466522 28.347855C96.546356 25.023132,92.661743 21.622208,88.000000 19.469254C79.764969 15.666031,71.076447 15.949646,62.705536 18.743576" style="stroke:rgb(0.000000%,0.000000%,0.000000%); stroke-width: 0.498138;stroke-linecap: round;stroke-linejoin: round;stroke-miterlimit: 10.000000;fill: none;"></path>
  <path d="M81.477570 107.636856C81.477570 106.844162,81.162628 106.084015,80.602142 105.523544C80.041672 104.963058,79.281525 104.648117,78.488831 104.648117C77.696136 104.648117,76.935989 104.963058,76.375519 105.523544C75.815033 106.084015,75.500092 106.844162,75.500092 107.636856C75.500092 108.429550,75.815033 109.189697,76.375519 109.750168C76.935989 110.310654,77.696136 110.625595,78.488831 110.625595C79.281525 110.625595,80.041672 110.310654,80.602142 109.750168C81.162628 109.189697,81.477570 108.429550,81.477570 107.636856Z" style="fill: rgb(100.000000%,100.000000%,100.000000%);stroke: none;"></path>
  <path d="M65.529907 103.861954C69.805115 105.268082,74.119431 106.549271,78.488831 107.636856C82.365768 108.601868,86.336411 109.441895,90.123901 110.662094" style="stroke:rgb(0.000000%,0.000000%,0.000000%); stroke-width: 0.498138;stroke-linecap: round;stroke-linejoin: round;stroke-miterlimit: 10.000000;fill: none;"></path>
  <path d="M149.918106 171.936981C149.918106 171.144287,149.603165 170.384140,149.042679 169.823669C148.482208 169.263184,147.722061 168.948242,146.929367 168.948242C146.136673 168.948242,145.376526 169.263184,144.816055 169.823669C144.255569 170.384140,143.940628 171.144287,143.940628 171.936981C143.940628 172.729675,144.255569 173.489822,144.816055 174.050293C145.376526 174.610779,146.136673 174.925720,146.929367 174.925720C147.722061 174.925720,148.482208 174.610779,149.042679 174.050293C149.603165 173.489822,149.918106 172.729675,149.918106 171.936981Z" style="fill: rgb(100.000000%,100.000000%,100.000000%);stroke: none;"></path>
  <path d="M132.941055 164.139633C137.087265 167.536285,141.771194 170.228409,146.929367 171.936981C153.381088 174.074036,160.256195 174.441940,166.415497 172.886246" style="stroke:rgb(0.000000%,0.000000%,0.000000%); stroke-width: 0.498138;stroke-linecap: round;stroke-linejoin: round;stroke-miterlimit: 10.000000;fill: none;"></path>
  <path d="M115.401962 133.216080C115.401962 132.423386,115.087021 131.663239,114.526535 131.102768C113.966064 130.542282,113.205917 130.227341,112.413223 130.227341C111.620529 130.227341,110.860382 130.542282,110.299911 131.102768C109.739426 131.663239,109.424484 132.423386,109.424484 133.216080C109.424484 134.008774,109.739426 134.768921,110.299911 135.329391C110.860382 135.889877,111.620529 136.204819,112.413223 136.204819C113.205917 136.204819,113.966064 135.889877,114.526535 135.329391C115.087021 134.768921,115.401962 134.008774,115.401962 133.216080Z" style="fill: rgb(100.000000%,100.000000%,100.000000%);stroke: none;"></path>
  <path d="M125.158936 127.476822C120.856949 129.251877,116.631760 131.241699,112.413223 133.216080C109.154404 134.741287,105.880829 136.263580,102.541077 137.590637" style="stroke:rgb(0.000000%,0.000000%,0.000000%); stroke-width: 0.498138;stroke-linecap: round;stroke-linejoin: round;stroke-miterlimit: 10.000000;fill: none;"></path>
  <path d="M20.467255 158.685516C20.467255 157.892822,20.152313 157.132675,19.591827 156.572205C19.031357 156.011719,18.271210 155.696777,17.478516 155.696777C16.685822 155.696777,15.925674 156.011719,15.365204 156.572205C14.804718 157.132675,14.489777 157.892822,14.489777 158.685516C14.489777 159.478210,14.804718 160.238358,15.365204 160.798828C15.925674 161.359314,16.685822 161.674255,17.478516 161.674255C18.271210 161.674255,19.031357 161.359314,19.591827 160.798828C20.152313 160.238358,20.467255 159.478210,20.467255 158.685516Z" style="fill: rgb(100.000000%,100.000000%,100.000000%);stroke: none;"></path>
  <path d="M29.206711 147.341568C24.085693 149.776871,19.846359 153.380112,17.478516 158.685516C15.298706 163.569611,15.227890 168.836273,16.804611 173.679901" style="stroke:rgb(0.000000%,0.000000%,0.000000%); stroke-width: 0.498138;stroke-linecap: round;stroke-linejoin: round;stroke-miterlimit: 10.000000;fill: none;"></path>
  <path d="M73.704071 142.117538C73.704071 141.324844,73.389130 140.564697,72.828644 140.004227C72.268173 139.443741,71.508026 139.128799,70.715332 139.128799C69.922638 139.128799,69.162491 139.443741,68.602020 140.004227C68.041534 140.564697,67.726593 141.324844,67.726593 142.117538C67.726593 142.910233,68.041534 143.670380,68.602020 144.230850C69.162491 144.791336,69.922638 145.106277,70.715332 145.106277C71.508026 145.106277,72.268173 144.791336,72.828644 144.230850C73.389130 143.670380,73.704071 142.910233,73.704071 142.117538Z" style="fill: rgb(100.000000%,100.000000%,100.000000%);stroke: none;"></path>
  <path d="M72.307541 151.574753C71.881439 148.412979,71.269379 145.262909,70.715332 142.117538C70.200058 139.192368,69.734772 136.238571,69.533875 133.284912" style="stroke:rgb(0.000000%,0.000000%,0.000000%); stroke-width: 0.498138;stroke-linecap: round;stroke-linejoin: round;stroke-miterlimit: 10.000000;fill: none;"></path>
  <path d="M89.324615 88.953644C89.240479 83.352219,88.940735 77.756622,88.426163 72.179291" style="stroke:rgb(0.000000%,0.000000%,0.000000%); stroke-width: 0.498138;stroke-linecap: round;stroke-linejoin: round;stroke-miterlimit: 10.000000;fill: none;"></path>
  <path d="M90.705124 76.629776C89.962524 75.137711,89.202820 73.654099,88.426163 72.179291C87.932465 73.771317,87.420563 75.357559,86.890579 76.937698Z" style="stroke:rgb(0.000000%,0.000000%,0.000000%); stroke-width: 0.498138;fill: rgb(0.000000%,0.000000%,0.000000%);"></path>
  <path d="M89.324615 88.953644C89.240479 83.352219,88.940735 77.756622,88.426163 72.179291" style="stroke:rgb(0.000000%,0.000000%,0.000000%); stroke-width: 0.498138;stroke-linecap: round;stroke-linejoin: round;stroke-miterlimit: 10.000000;fill: none;"></path>
  <path d="M89.805695 74.843201C89.351974 73.952103,88.892120 73.064117,88.426163 72.179291C88.129974 73.134430,87.827194 74.087509,87.517914 75.038422Z" style="stroke:rgb(0.000000%,0.000000%,0.000000%); stroke-width: 0.498138;fill: rgb(0.000000%,0.000000%,0.000000%);"></path>
  <path d="M128.283020 9.127426C138.636108 13.670578,146.496048 22.631393,147.947311 32.964050" style="stroke:rgb(0.000000%,0.000000%,0.000000%); stroke-width: 0.498138;stroke-linecap: round;stroke-linejoin: round;stroke-miterlimit: 10.000000;fill: none;"></path>
  <path d="M146.273788 30.473999C146.878723 31.268829,147.437973 32.099228,147.947311 32.964050C148.198685 31.992386,148.390442 31.009735,148.524734 30.019958Z" style="stroke:rgb(0.000000%,0.000000%,0.000000%); stroke-width: 0.498138;fill: rgb(0.000000%,0.000000%,0.000000%);"></path>
  <path d="M62.183472 69.421051C51.153015 69.527100,39.625977 68.404312,29.471191 71.757904" style="stroke:rgb(0.000000%,0.000000%,0.000000%); stroke-width: 0.498138;stroke-linecap: round;stroke-linejoin: round;stroke-miterlimit: 10.000000;fill: none;"></path>
  <path d="M31.818314 69.889343C31.011993 70.483109,30.228561 71.104721,29.471191 71.757904C30.468613 71.831589,31.462128 71.946030,32.452133 72.096344Z" style="stroke:rgb(0.000000%,0.000000%,0.000000%); stroke-width: 0.498138;fill: rgb(0.000000%,0.000000%,0.000000%);"></path>
  <path d="M44.610275 166.899765C49.989166 170.636719,52.731735 176.894669,56.797897 181.948700" style="stroke:rgb(0.000000%,0.000000%,0.000000%); stroke-width: 0.498138;stroke-linecap: round;stroke-linejoin: round;stroke-miterlimit: 10.000000;fill: none;"></path>
  <path d="M54.219009 180.415970C55.066040 180.953140,55.922958 181.470062,56.797897 181.948700C56.517685 180.991577,56.277283 180.020096,56.058182 179.041336Z" style="stroke:rgb(0.000000%,0.000000%,0.000000%); stroke-width: 0.498138;fill: rgb(0.000000%,0.000000%,0.000000%);"></path>
  <path d="M153.323074 148.306625C157.757919 141.402405,166.317657 139.323929,173.091339 134.969986" style="stroke:rgb(0.000000%,0.000000%,0.000000%); stroke-width: 0.498138;stroke-linecap: round;stroke-linejoin: round;stroke-miterlimit: 10.000000;fill: none;"></path>
  <path d="M171.287491 137.367203C171.917023 136.584412,172.523453 135.788055,173.091339 134.969986C172.111313 135.146881,171.119385 135.281158,170.120743 135.389511Z" style="stroke:rgb(0.000000%,0.000000%,0.000000%); stroke-width: 0.498138;fill: rgb(0.000000%,0.000000%,0.000000%);"></path>
  <path d="M113.146454 36.769272C105.460007 33.812210,99.945160 27.270172,93.273010 22.567032" style="stroke:rgb(0.000000%,0.000000%,0.000000%); stroke-width: 0.498138;stroke-linecap: round;stroke-linejoin: round;stroke-miterlimit: 10.000000;fill: none;"></path>
  <path d="M96.179718 23.308823C95.215057 23.037201,94.246765 22.786102,93.273010 22.567032C93.806641 23.410492,94.313751 24.272736,94.803802 25.146927Z" style="stroke:rgb(0.000000%,0.000000%,0.000000%); stroke-width: 0.498138;fill: rgb(0.000000%,0.000000%,0.000000%);"></path>
  <path d="M100.660095 115.968262C105.096298 119.475113,108.056503 124.313919,110.583221 129.385757" style="stroke:rgb(0.000000%,0.000000%,0.000000%); stroke-width: 0.498138;stroke-linecap: round;stroke-linejoin: round;stroke-miterlimit: 10.000000;fill: none;"></path>
  <path d="M108.284561 127.457794C109.062500 128.083359,109.827728 128.728592,110.583221 129.385757C110.513702 128.386856,110.428894 127.389511,110.321152 126.397095Z" style="stroke:rgb(0.000000%,0.000000%,0.000000%); stroke-width: 0.498138;fill: rgb(0.000000%,0.000000%,0.000000%);"></path>
  <path d="M181.606705 162.293915C186.664978 154.460297,186.392288 144.675308,181.893448 136.725754" style="stroke:rgb(0.000000%,0.000000%,0.000000%); stroke-width: 0.498138;stroke-linecap: round;stroke-linejoin: round;stroke-miterlimit: 10.000000;fill: none;"></path>
  <path d="M184.152145 138.700043C183.440292 138.004501,182.686295 137.345032,181.893448 136.725754C182.016159 137.724274,182.082993 138.723740,182.094498 139.718933Z" style="stroke:rgb(0.000000%,0.000000%,0.000000%); stroke-width: 0.498138;fill: rgb(0.000000%,0.000000%,0.000000%);"></path>
  <path d="M92.271912 140.793732C86.615997 141.988388,80.833572 142.146774,75.050613 142.139984" style="stroke:rgb(0.000000%,0.000000%,0.000000%); stroke-width: 0.498138;stroke-linecap: round;stroke-linejoin: round;stroke-miterlimit: 10.000000;fill: none;"></path>
  <path d="M77.816132 140.977341C76.897751 141.372055,75.975128 141.758301,75.050613 142.139984C75.974243 142.523834,76.899734 142.903122,77.828217 143.273422Z" style="stroke:rgb(0.000000%,0.000000%,0.000000%); stroke-width: 0.498138;fill: rgb(0.000000%,0.000000%,0.000000%);"></path>
  <path d="M26.015945 186.136093C34.170746 192.038116,44.653381 192.907684,53.700363 189.142166" style="stroke:rgb(0.000000%,0.000000%,0.000000%); stroke-width: 0.498138;stroke-linecap: round;stroke-linejoin: round;stroke-miterlimit: 10.000000;fill: none;"></path>
  <path d="M51.478302 191.157669C52.249191 190.526382,52.991074 189.853897,53.700363 189.142166C52.695541 189.143875,51.695450 189.094772,50.703949 188.996048Z" style="stroke:rgb(0.000000%,0.000000%,0.000000%); stroke-width: 0.498138;fill: rgb(0.000000%,0.000000%,0.000000%);"></path>
  <path d="M69.938644 124.453094C70.871552 119.421036,73.151901 114.810699,76.132370 110.661560" style="stroke:rgb(0.000000%,0.000000%,0.000000%); stroke-width: 0.498138;stroke-linecap: round;stroke-linejoin: round;stroke-miterlimit: 10.000000;fill: none;"></path>
  <path d="M75.545959 113.603668C75.706848 112.618317,75.903778 111.636902,76.132370 110.661560C75.281067 111.189575,74.447815 111.744263,73.637299 112.327240Z" style="stroke:rgb(0.000000%,0.000000%,0.000000%); stroke-width: 0.498138;fill: rgb(0.000000%,0.000000%,0.000000%);"></path>
  <path d="M82.314713 50.916779L88.296005 50.916779L88.296005 43.496384L82.314713 43.496384Z" style="fill: rgb(100.000000%,100.000000%,100.000000%);stroke: none;"></path>
  <path d="M82.314713 52.916779L88.296005 52.916779L88.296005 45.496384L82.314713 45.496384Z" style="fill: rgb(100.000000%,100.000000%,100.000000%);stroke: none;"></path>
  <g transform="translate(82.814713 51.416779)" style="fill: rgb(0.000000%,0.000000%,0.000000%);">
    <use xlink:href="#GLYPHcmr10_49"></use>
  </g>
  <path d="M114.937988 68.506714L120.919281 68.506714L120.919281 61.086319L114.937988 61.086319Z" style="fill: rgb(100.000000%,100.000000%,100.000000%);stroke: none;"></path>
  <path d="M114.937988 70.506714L120.919281 70.506714L120.919281 63.086319L114.937988 63.086319Z" style="fill: rgb(100.000000%,100.000000%,100.000000%);stroke: none;"></path>
  <g transform="translate(115.437988 69.006714)" style="fill: rgb(0.000000%,0.000000%,0.000000%);">
    <use xlink:href="#GLYPHcmr10_50"></use>
  </g>
  <path d="M0.088715 121.424728L6.070007 121.424728L6.070007 114.004333L0.088715 114.004333Z" style="fill: rgb(100.000000%,100.000000%,100.000000%);stroke: none;"></path>
  <path d="M0.088715 123.424728L6.070007 123.424728L6.070007 116.004333L0.088715 116.004333Z" style="fill: rgb(100.000000%,100.000000%,100.000000%);stroke: none;"></path>
  <g transform="translate(0.588715 121.924728)" style="fill: rgb(0.000000%,0.000000%,0.000000%);">
    <use xlink:href="#GLYPHcmr10_51"></use>
  </g>
  <path d="M102.211548 190.364975L108.192841 190.364975L108.192841 182.944580L102.211548 182.944580Z" style="fill: rgb(100.000000%,100.000000%,100.000000%);stroke: none;"></path>
  <path d="M102.211548 192.364975L108.192841 192.364975L108.192841 184.944580L102.211548 184.944580Z" style="fill: rgb(100.000000%,100.000000%,100.000000%);stroke: none;"></path>
  <g transform="translate(102.711548 190.864975)" style="fill: rgb(0.000000%,0.000000%,0.000000%);">
    <use xlink:href="#GLYPHcmr10_52"></use>
  </g>
  <path d="M172.636795 86.712112L178.618088 86.712112L178.618088 79.291718L172.636795 79.291718Z" style="fill: rgb(100.000000%,100.000000%,100.000000%);stroke: none;"></path>
  <path d="M172.636795 88.712112L178.618088 88.712112L178.618088 81.291718L172.636795 81.291718Z" style="fill: rgb(100.000000%,100.000000%,100.000000%);stroke: none;"></path>
  <g transform="translate(173.136795 87.212112)" style="fill: rgb(0.000000%,0.000000%,0.000000%);">
    <use xlink:href="#GLYPHcmr10_53"></use>
  </g>
  <path d="M36.326187 35.789978L42.307480 35.789978L42.307480 28.369583L36.326187 28.369583Z" style="fill: rgb(100.000000%,100.000000%,100.000000%);stroke: none;"></path>
  <path d="M36.326187 37.789978L42.307480 37.789978L42.307480 30.369583L36.326187 30.369583Z" style="fill: rgb(100.000000%,100.000000%,100.000000%);stroke: none;"></path>
  <g transform="translate(36.826187 36.289978)" style="fill: rgb(0.000000%,0.000000%,0.000000%);">
    <use xlink:href="#GLYPHcmr10_54"></use>
  </g>
  <path d="M49.814957 102.047531L55.796249 102.047531L55.796249 94.627136L49.814957 94.627136Z" style="fill: rgb(100.000000%,100.000000%,100.000000%);stroke: none;"></path>
  <path d="M49.814957 104.047531L55.796249 104.047531L55.796249 96.627136L49.814957 96.627136Z" style="fill: rgb(100.000000%,100.000000%,100.000000%);stroke: none;"></path>
  <g transform="translate(50.314957 102.547531)" style="fill: rgb(0.000000%,0.000000%,0.000000%);">
    <use xlink:href="#GLYPHcmr10_55"></use>
  </g>
  <path d="M119.188370 154.825272L125.169662 154.825272L125.169662 147.404877L119.188370 147.404877Z" style="fill: rgb(100.000000%,100.000000%,100.000000%);stroke: none;"></path>
  <path d="M119.188370 156.825272L125.169662 156.825272L125.169662 149.404877L119.188370 149.404877Z" style="fill: rgb(100.000000%,100.000000%,100.000000%);stroke: none;"></path>
  <g transform="translate(119.688370 155.325272)" style="fill: rgb(0.000000%,0.000000%,0.000000%);">
    <use xlink:href="#GLYPHcmr10_56"></use>
  </g>
  <path d="M135.374786 125.736282L141.356079 125.736282L141.356079 118.315887L135.374786 118.315887Z" style="fill: rgb(100.000000%,100.000000%,100.000000%);stroke: none;"></path>
  <path d="M135.374786 127.736282L141.356079 127.736282L141.356079 120.315887L135.374786 120.315887Z" style="fill: rgb(100.000000%,100.000000%,100.000000%);stroke: none;"></path>
  <g transform="translate(135.874786 126.236282)" style="fill: rgb(0.000000%,0.000000%,0.000000%);">
    <use xlink:href="#GLYPHcmr10_57"></use>
  </g>
  <path d="M40.743652 145.715393L51.706360 145.715393L51.706360 138.294998L40.743652 138.294998Z" style="fill: rgb(100.000000%,100.000000%,100.000000%);stroke: none;"></path>
  <path d="M40.743652 147.715393L51.706360 147.715393L51.706360 140.294998L40.743652 140.294998Z" style="fill: rgb(100.000000%,100.000000%,100.000000%);stroke: none;"></path>
  <g transform="translate(41.243652 146.215393)" style="fill: rgb(0.000000%,0.000000%,0.000000%);">
    <use xlink:href="#GLYPHcmr10_49"></use>
    <use xlink:href="#GLYPHcmr10_48" x="5.000095"></use>
  </g>
  <path d="M67.302582 163.812408L78.265289 163.812408L78.265289 156.392014L67.302582 156.392014Z" style="fill: rgb(100.000000%,100.000000%,100.000000%);stroke: none;"></path>
  <path d="M67.302582 165.812408L78.265289 165.812408L78.265289 158.392014L67.302582 158.392014Z" style="fill: rgb(100.000000%,100.000000%,100.000000%);stroke: none;"></path>
  <g transform="translate(67.802582 164.312408)" style="fill: rgb(0.000000%,0.000000%,0.000000%);">
    <use xlink:href="#GLYPHcmr10_49"></use>
    <use xlink:href="#GLYPHcmr10_49" x="5.000095"></use>
  </g>
</svg>
