<?xml version="1.0"?>
<!-- Created by MetaPost 1.999 on 2021.07.05:2359 -->
<svg version="1.1" xmlns="http://www.w3.org/2000/svg" xmlns:xlink="http://www.w3.org/1999/xlink" width="200.355927" height="198.562775" viewBox="0 0 200.355927 198.562775">
<!-- Original BoundingBox: -112.632187 -119.957504 87.723740 78.605270 -->
  <defs>
    <g transform="scale(0.009963,0.009963)" id="GLYPHcmr10_48">
      <path style="fill-rule: evenodd;" d="M460.000000 -320.000000C460.000000 -400.000000,455.000000 -480.000000,420.000000 -554.000000C374.000000 -650.000000,292.000000 -666.000000,250.000000 -666.000000C190.000000 -666.000000,117.000000 -640.000000,76.000000 -547.000000C44.000000 -478.000000,39.000000 -400.000000,39.000000 -320.000000C39.000000 -245.000000,43.000000 -155.000000,84.000000 -79.000000C127.000000 2.000000,200.000000 22.000000,249.000000 22.000000C303.000000 22.000000,379.000000 1.000000,423.000000 -94.000000C455.000000 -163.000000,460.000000 -241.000000,460.000000 -320.000000M249.000000 -0.000000C210.000000 -0.000000,151.000000 -25.000000,133.000000 -121.000000C122.000000 -181.000000,122.000000 -273.000000,122.000000 -332.000000C122.000000 -396.000000,122.000000 -462.000000,130.000000 -516.000000C149.000000 -635.000000,224.000000 -644.000000,249.000000 -644.000000C282.000000 -644.000000,348.000000 -626.000000,367.000000 -527.000000C377.000000 -471.000000,377.000000 -395.000000,377.000000 -332.000000C377.000000 -257.000000,377.000000 -189.000000,366.000000 -125.000000C351.000000 -30.000000,294.000000 -0.000000,249.000000 -0.000000"></path>
    </g>
    <g transform="scale(0.009963,0.009963)" id="GLYPHcmr10_49">
      <path style="fill-rule: evenodd;" d="M294.000000 -640.000000C294.000000 -664.000000,294.000000 -666.000000,271.000000 -666.000000C209.000000 -602.000000,121.000000 -602.000000,89.000000 -602.000000L89.000000 -571.000000C109.000000 -571.000000,168.000000 -571.000000,220.000000 -597.000000L220.000000 -79.000000C220.000000 -43.000000,217.000000 -31.000000,127.000000 -31.000000L95.000000 -31.000000L95.000000 -0.000000L257.000000 -0.000000L130.000000 -3.000000L217.000000 -3.000000L257.000000 -3.000000L297.000000 -3.000000L384.000000 -3.000000L419.000000 -0.000000L419.000000 -31.000000L387.000000 -31.000000C297.000000 -31.000000,294.000000 -42.000000,294.000000 -79.000000"></path>
    </g>
    <g transform="scale(0.009963,0.009963)" id="GLYPHcmr10_50">
      <path style="fill-rule: evenodd;" d="M127.000000 -77.000000L233.000000 -180.000000C389.000000 -318.000000,449.000000 -372.000000,449.000000 -472.000000C449.000000 -586.000000,359.000000 -666.000000,237.000000 -666.000000C124.000000 -666.000000,50.000000 -574.000000,50.000000 -485.000000C50.000000 -429.000000,100.000000 -429.000000,103.000000 -429.000000C120.000000 -429.000000,155.000000 -441.000000,155.000000 -482.000000C155.000000 -508.000000,137.000000 -534.000000,102.000000 -534.000000C94.000000 -534.000000,92.000000 -534.000000,89.000000 -533.000000C112.000000 -598.000000,166.000000 -635.000000,224.000000 -635.000000C315.000000 -635.000000,358.000000 -554.000000,358.000000 -472.000000C358.000000 -392.000000,308.000000 -313.000000,253.000000 -251.000000L61.000000 -37.000000C50.000000 -26.000000,50.000000 -24.000000,50.000000 -0.000000L421.000000 -0.000000L449.000000 -174.000000L424.000000 -174.000000C419.000000 -144.000000,412.000000 -100.000000,402.000000 -85.000000C395.000000 -77.000000,329.000000 -77.000000,307.000000 -77.000000"></path>
    </g>
    <g transform="scale(0.009963,0.009963)" id="GLYPHcmr10_51">
      <path style="fill-rule: evenodd;" d="M290.000000 -352.000000C372.000000 -379.000000,430.000000 -449.000000,430.000000 -528.000000C430.000000 -610.000000,342.000000 -666.000000,246.000000 -666.000000C145.000000 -666.000000,69.000000 -606.000000,69.000000 -530.000000C69.000000 -497.000000,91.000000 -478.000000,120.000000 -478.000000C151.000000 -478.000000,171.000000 -500.000000,171.000000 -529.000000C171.000000 -579.000000,124.000000 -579.000000,109.000000 -579.000000C140.000000 -628.000000,206.000000 -641.000000,242.000000 -641.000000C283.000000 -641.000000,338.000000 -619.000000,338.000000 -529.000000C338.000000 -517.000000,336.000000 -459.000000,310.000000 -415.000000C280.000000 -367.000000,246.000000 -364.000000,221.000000 -363.000000C213.000000 -362.000000,189.000000 -360.000000,182.000000 -360.000000C174.000000 -359.000000,167.000000 -358.000000,167.000000 -348.000000C167.000000 -337.000000,174.000000 -337.000000,191.000000 -337.000000L235.000000 -337.000000C317.000000 -337.000000,354.000000 -269.000000,354.000000 -171.000000C354.000000 -35.000000,285.000000 -6.000000,241.000000 -6.000000C198.000000 -6.000000,123.000000 -23.000000,88.000000 -82.000000C123.000000 -77.000000,154.000000 -99.000000,154.000000 -137.000000C154.000000 -173.000000,127.000000 -193.000000,98.000000 -193.000000C74.000000 -193.000000,42.000000 -179.000000,42.000000 -135.000000C42.000000 -44.000000,135.000000 22.000000,244.000000 22.000000C366.000000 22.000000,457.000000 -69.000000,457.000000 -171.000000C457.000000 -253.000000,394.000000 -331.000000,290.000000 -352.000000"></path>
    </g>
    <g transform="scale(0.009963,0.009963)" id="GLYPHcmr10_52">
      <path style="fill-rule: evenodd;" d="M294.000000 -165.000000L294.000000 -78.000000C294.000000 -42.000000,292.000000 -31.000000,218.000000 -31.000000L197.000000 -31.000000L197.000000 -0.000000L332.000000 -0.000000L238.000000 -3.000000L290.000000 -3.000000L332.000000 -3.000000L374.000000 -3.000000L427.000000 -3.000000L468.000000 -0.000000L468.000000 -31.000000L447.000000 -31.000000C373.000000 -31.000000,371.000000 -42.000000,371.000000 -78.000000L371.000000 -165.000000L471.000000 -165.000000L471.000000 -196.000000L371.000000 -196.000000L371.000000 -651.000000C371.000000 -671.000000,371.000000 -677.000000,355.000000 -677.000000C346.000000 -677.000000,343.000000 -677.000000,335.000000 -665.000000L28.000000 -196.000000L28.000000 -165.000000M300.000000 -196.000000L56.000000 -196.000000L300.000000 -569.000000"></path>
    </g>
    <g transform="scale(0.009963,0.009963)" id="GLYPHcmr10_53">
      <path style="fill-rule: evenodd;" d="M449.000000 -201.000000C449.000000 -320.000000,367.000000 -420.000000,259.000000 -420.000000C211.000000 -420.000000,168.000000 -404.000000,132.000000 -369.000000L132.000000 -564.000000C152.000000 -558.000000,185.000000 -551.000000,217.000000 -551.000000C340.000000 -551.000000,410.000000 -642.000000,410.000000 -655.000000C410.000000 -661.000000,407.000000 -666.000000,400.000000 -666.000000C399.000000 -666.000000,397.000000 -666.000000,392.000000 -663.000000C372.000000 -654.000000,323.000000 -634.000000,256.000000 -634.000000C216.000000 -634.000000,170.000000 -641.000000,123.000000 -662.000000C115.000000 -665.000000,113.000000 -665.000000,111.000000 -665.000000C101.000000 -665.000000,101.000000 -657.000000,101.000000 -641.000000L101.000000 -345.000000C101.000000 -327.000000,101.000000 -319.000000,115.000000 -319.000000C122.000000 -319.000000,124.000000 -322.000000,128.000000 -328.000000C139.000000 -344.000000,176.000000 -398.000000,257.000000 -398.000000C309.000000 -398.000000,334.000000 -352.000000,342.000000 -334.000000C358.000000 -297.000000,360.000000 -258.000000,360.000000 -208.000000C360.000000 -173.000000,360.000000 -113.000000,336.000000 -71.000000C312.000000 -32.000000,275.000000 -6.000000,229.000000 -6.000000C156.000000 -6.000000,99.000000 -59.000000,82.000000 -118.000000C85.000000 -117.000000,88.000000 -116.000000,99.000000 -116.000000C132.000000 -116.000000,149.000000 -141.000000,149.000000 -165.000000C149.000000 -189.000000,132.000000 -214.000000,99.000000 -214.000000C85.000000 -214.000000,50.000000 -207.000000,50.000000 -161.000000C50.000000 -75.000000,119.000000 22.000000,231.000000 22.000000C347.000000 22.000000,449.000000 -74.000000,449.000000 -201.000000"></path>
    </g>
    <g transform="scale(0.009963,0.009963)" id="GLYPHcmr10_54">
      <path style="fill-rule: evenodd;" d="M132.000000 -328.000000L132.000000 -352.000000C132.000000 -605.000000,256.000000 -641.000000,307.000000 -641.000000C331.000000 -641.000000,373.000000 -635.000000,395.000000 -601.000000C380.000000 -601.000000,340.000000 -601.000000,340.000000 -556.000000C340.000000 -525.000000,364.000000 -510.000000,386.000000 -510.000000C402.000000 -510.000000,432.000000 -519.000000,432.000000 -558.000000C432.000000 -618.000000,388.000000 -666.000000,305.000000 -666.000000C177.000000 -666.000000,42.000000 -537.000000,42.000000 -316.000000C42.000000 -49.000000,158.000000 22.000000,251.000000 22.000000C362.000000 22.000000,457.000000 -72.000000,457.000000 -204.000000C457.000000 -331.000000,368.000000 -427.000000,257.000000 -427.000000C189.000000 -427.000000,152.000000 -376.000000,132.000000 -328.000000M251.000000 -6.000000C188.000000 -6.000000,158.000000 -66.000000,152.000000 -81.000000C134.000000 -128.000000,134.000000 -208.000000,134.000000 -226.000000C134.000000 -304.000000,166.000000 -404.000000,256.000000 -404.000000C272.000000 -404.000000,318.000000 -404.000000,349.000000 -342.000000C367.000000 -305.000000,367.000000 -254.000000,367.000000 -205.000000C367.000000 -157.000000,367.000000 -107.000000,350.000000 -71.000000C320.000000 -11.000000,274.000000 -6.000000,251.000000 -6.000000"></path>
    </g>
    <g transform="scale(0.009963,0.009963)" id="GLYPHcmr10_55">
      <path style="fill-rule: evenodd;" d="M476.000000 -609.000000C485.000000 -621.000000,485.000000 -623.000000,485.000000 -644.000000L242.000000 -644.000000C120.000000 -644.000000,118.000000 -657.000000,114.000000 -676.000000L89.000000 -676.000000L56.000000 -470.000000L81.000000 -470.000000C84.000000 -486.000000,93.000000 -549.000000,106.000000 -561.000000C113.000000 -567.000000,191.000000 -567.000000,204.000000 -567.000000L411.000000 -567.000000C400.000000 -551.000000,321.000000 -442.000000,299.000000 -409.000000C209.000000 -274.000000,176.000000 -135.000000,176.000000 -33.000000C176.000000 -23.000000,176.000000 22.000000,222.000000 22.000000C268.000000 22.000000,268.000000 -23.000000,268.000000 -33.000000L268.000000 -84.000000C268.000000 -139.000000,271.000000 -194.000000,279.000000 -248.000000C283.000000 -271.000000,297.000000 -357.000000,341.000000 -419.000000"></path>
    </g>
    <g transform="scale(0.009963,0.009963)" id="GLYPHcmr10_56">
      <path style="fill-rule: evenodd;" d="M163.000000 -457.000000C117.000000 -487.000000,113.000000 -521.000000,113.000000 -538.000000C113.000000 -599.000000,178.000000 -641.000000,249.000000 -641.000000C322.000000 -641.000000,386.000000 -589.000000,386.000000 -517.000000C386.000000 -460.000000,347.000000 -412.000000,287.000000 -377.000000M309.000000 -362.000000C381.000000 -399.000000,430.000000 -451.000000,430.000000 -517.000000C430.000000 -609.000000,341.000000 -666.000000,250.000000 -666.000000C150.000000 -666.000000,69.000000 -592.000000,69.000000 -499.000000C69.000000 -481.000000,71.000000 -436.000000,113.000000 -389.000000C124.000000 -377.000000,161.000000 -352.000000,186.000000 -335.000000C128.000000 -306.000000,42.000000 -250.000000,42.000000 -151.000000C42.000000 -45.000000,144.000000 22.000000,249.000000 22.000000C362.000000 22.000000,457.000000 -61.000000,457.000000 -168.000000C457.000000 -204.000000,446.000000 -249.000000,408.000000 -291.000000C389.000000 -312.000000,373.000000 -322.000000,309.000000 -362.000000M209.000000 -320.000000L332.000000 -242.000000C360.000000 -223.000000,407.000000 -193.000000,407.000000 -132.000000C407.000000 -58.000000,332.000000 -6.000000,250.000000 -6.000000C164.000000 -6.000000,92.000000 -68.000000,92.000000 -151.000000C92.000000 -209.000000,124.000000 -273.000000,209.000000 -320.000000"></path>
    </g>
    <g transform="scale(0.009963,0.009963)" id="GLYPHcmr10_57">
      <path style="fill-rule: evenodd;" d="M367.000000 -318.000000L367.000000 -286.000000C367.000000 -52.000000,263.000000 -6.000000,205.000000 -6.000000C188.000000 -6.000000,134.000000 -8.000000,107.000000 -42.000000C151.000000 -42.000000,159.000000 -71.000000,159.000000 -88.000000C159.000000 -119.000000,135.000000 -134.000000,113.000000 -134.000000C97.000000 -134.000000,67.000000 -125.000000,67.000000 -86.000000C67.000000 -19.000000,121.000000 22.000000,206.000000 22.000000C335.000000 22.000000,457.000000 -114.000000,457.000000 -329.000000C457.000000 -598.000000,342.000000 -666.000000,253.000000 -666.000000C198.000000 -666.000000,149.000000 -648.000000,106.000000 -603.000000C65.000000 -558.000000,42.000000 -516.000000,42.000000 -441.000000C42.000000 -316.000000,130.000000 -218.000000,242.000000 -218.000000C303.000000 -218.000000,344.000000 -260.000000,367.000000 -318.000000M243.000000 -241.000000C227.000000 -241.000000,181.000000 -241.000000,150.000000 -304.000000C132.000000 -341.000000,132.000000 -391.000000,132.000000 -440.000000C132.000000 -494.000000,132.000000 -541.000000,153.000000 -578.000000C180.000000 -628.000000,218.000000 -641.000000,253.000000 -641.000000C299.000000 -641.000000,332.000000 -607.000000,349.000000 -562.000000C361.000000 -530.000000,365.000000 -467.000000,365.000000 -421.000000C365.000000 -338.000000,331.000000 -241.000000,243.000000 -241.000000"></path>
    </g>
  </defs>
  <path d="M116.443146 86.902542C116.443146 86.109848,116.128204 85.349701,115.567719 84.789230C115.007248 84.228745,114.247101 83.913803,113.454407 83.913803C112.661713 83.913803,111.901566 84.228745,111.341095 84.789230C110.780609 85.349701,110.465668 86.109848,110.465668 86.902542C110.465668 87.695236,110.780609 88.455383,111.341095 89.015854C111.901566 89.576340,112.661713 89.891281,113.454407 89.891281C114.247101 89.891281,115.007248 89.576340,115.567719 89.015854C116.128204 88.455383,116.443146 87.695236,116.443146 86.902542Z" style="fill: rgb(100.000000%,100.000000%,100.000000%);stroke: none;"></path>
  <path d="M116.291031 91.410278C116.291031 90.617584,115.976089 89.857437,115.415604 89.296967C114.855133 88.736481,114.094986 88.421539,113.302292 88.421539C112.509598 88.421539,111.749451 88.736481,111.188980 89.296967C110.628494 89.857437,110.313553 90.617584,110.313553 91.410278C110.313553 92.202972,110.628494 92.963120,111.188980 93.523590C111.749451 94.084076,112.509598 94.399017,113.302292 94.399017C114.094986 94.399017,114.855133 94.084076,115.415604 93.523590C115.976089 92.963120,116.291031 92.202972,116.291031 91.410278Z" style="fill: rgb(100.000000%,100.000000%,100.000000%);stroke: none;"></path>
  <path d="M113.378006 71.037643C113.378006 70.244949,113.063065 69.484802,112.502579 68.924332C111.942108 68.363846,111.181961 68.048904,110.389267 68.048904C109.596573 68.048904,108.836426 68.363846,108.275955 68.924332C107.715469 69.484802,107.400528 70.244949,107.400528 71.037643C107.400528 71.830338,107.715469 72.590485,108.275955 73.150955C108.836426 73.711441,109.596573 74.026382,110.389267 74.026382C111.181961 74.026382,111.942108 73.711441,112.502579 73.150955C113.063065 72.590485,113.378006 71.830338,113.378006 71.037643Z" style="fill: rgb(100.000000%,100.000000%,100.000000%);stroke: none;"></path>
  <path d="M116.005341 82.394241C116.005341 81.601547,115.690399 80.841400,115.129913 80.280930C114.569443 79.720444,113.809296 79.405502,113.016602 79.405502C112.223907 79.405502,111.463760 79.720444,110.903290 80.280930C110.342804 80.841400,110.027863 81.601547,110.027863 82.394241C110.027863 83.186935,110.342804 83.947083,110.903290 84.507553C111.463760 85.068039,112.223907 85.382980,113.016602 85.382980C113.809296 85.382980,114.569443 85.068039,115.129913 84.507553C115.690399 83.947083,116.005341 83.186935,116.005341 82.394241Z" style="fill: rgb(100.000000%,100.000000%,100.000000%);stroke: none;"></path>
  <path d="M105.839249 45.298248C105.839249 44.505554,105.524307 43.745407,104.963821 43.184937C104.403351 42.624451,103.643204 42.309509,102.850510 42.309509C102.057816 42.309509,101.297668 42.624451,100.737198 43.184937C100.176712 43.745407,99.861771 44.505554,99.861771 45.298248C99.861771 46.090942,100.176712 46.851089,100.737198 47.411560C101.297668 47.972046,102.057816 48.286987,102.850510 48.286987C103.643204 48.286987,104.403351 47.972046,104.963821 47.411560C105.524307 46.851089,105.839249 46.090942,105.839249 45.298248Z" style="fill: rgb(100.000000%,100.000000%,100.000000%);stroke: none;"></path>
  <path d="M110.343338 64.484863C110.343338 63.692169,110.028397 62.932022,109.467911 62.371552C108.907440 61.811066,108.147293 61.496124,107.354599 61.496124C106.561905 61.496124,105.801758 61.811066,105.241287 62.371552C104.680801 62.932022,104.365860 63.692169,104.365860 64.484863C104.365860 65.277557,104.680801 66.037704,105.241287 66.598175C105.801758 67.158661,106.561905 67.473602,107.354599 67.473602C108.147293 67.473602,108.907440 67.158661,109.467911 66.598175C110.028397 66.037704,110.343338 65.277557,110.343338 64.484863Z" style="fill: rgb(100.000000%,100.000000%,100.000000%);stroke: none;"></path>
  <path d="M127.795441 5.308075C127.795441 4.515381,127.480499 3.755234,126.920013 3.194763C126.359543 2.634277,125.599396 2.319336,124.806702 2.319336C124.014008 2.319336,123.253860 2.634277,122.693390 3.194763C122.132904 3.755234,121.817963 4.515381,121.817963 5.308075C121.817963 6.100769,122.132904 6.860916,122.693390 7.421387C123.253860 7.981873,124.014008 8.296814,124.806702 8.296814C125.599396 8.296814,126.359543 7.981873,126.920013 7.421387C127.480499 6.860916,127.795441 6.100769,127.795441 5.308075Z" style="fill: rgb(100.000000%,100.000000%,100.000000%);stroke: none;"></path>
  <path d="M107.431549 32.232574C107.431549 31.439880,107.116608 30.679733,106.556122 30.119263C105.995651 29.558777,105.235504 29.243835,104.442810 29.243835C103.650116 29.243835,102.889969 29.558777,102.329498 30.119263C101.769012 30.679733,101.454071 31.439880,101.454071 32.232574C101.454071 33.025269,101.769012 33.785416,102.329498 34.345886C102.889969 34.906372,103.650116 35.221313,104.442810 35.221313C105.235504 35.221313,105.995651 34.906372,106.556122 34.345886C107.116608 33.785416,107.431549 33.025269,107.431549 32.232574Z" style="fill: rgb(100.000000%,100.000000%,100.000000%);stroke: none;"></path>
  <path d="M184.315842 24.632080C184.315842 23.839386,184.000900 23.079239,183.440414 22.518768C182.879944 21.958282,182.119797 21.643341,181.327103 21.643341C180.534409 21.643341,179.774261 21.958282,179.213791 22.518768C178.653305 23.079239,178.338364 23.839386,178.338364 24.632080C178.338364 25.424774,178.653305 26.184921,179.213791 26.745392C179.774261 27.305878,180.534409 27.620819,181.327103 27.620819C182.119797 27.620819,182.879944 27.305878,183.440414 26.745392C184.000900 26.184921,184.315842 25.424774,184.315842 24.632080Z" style="fill: rgb(100.000000%,100.000000%,100.000000%);stroke: none;"></path>
  <path d="M151.955612 2.383469C151.955612 1.590775,151.640671 0.830627,151.080185 0.270157C150.519714 -0.290329,149.759567 -0.605270,148.966873 -0.605270C148.174179 -0.605270,147.414032 -0.290329,146.853561 0.270157C146.293076 0.830627,145.978134 1.590775,145.978134 2.383469C145.978134 3.176163,146.293076 3.936310,146.853561 4.496780C147.414032 5.057266,148.174179 5.372208,148.966873 5.372208C149.759567 5.372208,150.519714 5.057266,151.080185 4.496780C151.640671 3.936310,151.955612 3.176163,151.955612 2.383469Z" style="fill: rgb(100.000000%,100.000000%,100.000000%);stroke: none;"></path>
  <path d="M174.562546 71.726364C174.562546 70.933670,174.247604 70.173523,173.687119 69.613052C173.126648 69.052567,172.366501 68.737625,171.573807 68.737625C170.781113 68.737625,170.020966 69.052567,169.460495 69.613052C168.900009 70.173523,168.585068 70.933670,168.585068 71.726364C168.585068 72.519058,168.900009 73.279205,169.460495 73.839676C170.020966 74.400162,170.781113 74.715103,171.573807 74.715103C172.366501 74.715103,173.126648 74.400162,173.687119 73.839676C174.247604 73.279205,174.562546 72.519058,174.562546 71.726364Z" style="fill: rgb(100.000000%,100.000000%,100.000000%);stroke: none;"></path>
  <path d="M190.807541 43.336273C190.807541 42.543579,190.492599 41.783432,189.932114 41.222961C189.371643 40.662476,188.611496 40.347534,187.818802 40.347534C187.026108 40.347534,186.265961 40.662476,185.705490 41.222961C185.145004 41.783432,184.830063 42.543579,184.830063 43.336273C184.830063 44.128967,185.145004 44.889114,185.705490 45.449585C186.265961 46.010071,187.026108 46.325012,187.818802 46.325012C188.611496 46.325012,189.371643 46.010071,189.932114 45.449585C190.492599 44.889114,190.807541 44.128967,190.807541 43.336273Z" style="fill: rgb(100.000000%,100.000000%,100.000000%);stroke: none;"></path>
  <path d="M133.229660 77.575470C133.229660 76.782776,132.914719 76.022629,132.354233 75.462158C131.793762 74.901672,131.033615 74.586731,130.240921 74.586731C129.448227 74.586731,128.688080 74.901672,128.127609 75.462158C127.567123 76.022629,127.252182 76.782776,127.252182 77.575470C127.252182 78.368164,127.567123 79.128311,128.127609 79.688782C128.688080 80.249268,129.448227 80.564209,130.240921 80.564209C131.033615 80.564209,131.793762 80.249268,132.354233 79.688782C132.914719 79.128311,133.229660 78.368164,133.229660 77.575470Z" style="fill: rgb(100.000000%,100.000000%,100.000000%);stroke: none;"></path>
  <path d="M158.008301 75.442581C158.008301 74.649887,157.693359 73.889740,157.132874 73.329269C156.572403 72.768784,155.812256 72.453842,155.019562 72.453842C154.226868 72.453842,153.466721 72.768784,152.906250 73.329269C152.345764 73.889740,152.030823 74.649887,152.030823 75.442581C152.030823 76.235275,152.345764 76.995422,152.906250 77.555893C153.466721 78.116379,154.226868 78.431320,155.019562 78.431320C155.812256 78.431320,156.572403 78.116379,157.132874 77.555893C157.693359 76.995422,158.008301 76.235275,158.008301 75.442581Z" style="fill: rgb(100.000000%,100.000000%,100.000000%);stroke: none;"></path>
  <path d="M108.882111 78.065811C108.882111 77.273117,108.567169 76.512970,108.006683 75.952499C107.446213 75.392014,106.686066 75.077072,105.893372 75.077072C105.100677 75.077072,104.340530 75.392014,103.780060 75.952499C103.219574 76.512970,102.904633 77.273117,102.904633 78.065811C102.904633 78.858505,103.219574 79.618652,103.780060 80.179123C104.340530 80.739609,105.100677 81.054550,105.893372 81.054550C106.686066 81.054550,107.446213 80.739609,108.006683 80.179123C108.567169 79.618652,108.882111 78.858505,108.882111 78.065811Z" style="fill: rgb(100.000000%,100.000000%,100.000000%);stroke: none;"></path>
  <path d="M124.109985 77.901703C124.109985 77.109009,123.795044 76.348862,123.234558 75.788391C122.674088 75.227905,121.913940 74.912964,121.121246 74.912964C120.328552 74.912964,119.568405 75.227905,119.007935 75.788391C118.447449 76.348862,118.132507 77.109009,118.132507 77.901703C118.132507 78.694397,118.447449 79.454544,119.007935 80.015015C119.568405 80.575500,120.328552 80.890442,121.121246 80.890442C121.913940 80.890442,122.674088 80.575500,123.234558 80.015015C123.795044 79.454544,124.109985 78.694397,124.109985 77.901703Z" style="fill: rgb(100.000000%,100.000000%,100.000000%);stroke: none;"></path>
  <path d="M93.468979 84.182938C93.468979 83.390244,93.154037 82.630096,92.593552 82.069626C92.033081 81.509140,91.272934 81.194199,90.480240 81.194199C89.687546 81.194199,88.927399 81.509140,88.366928 82.069626C87.806442 82.630096,87.491501 83.390244,87.491501 84.182938C87.491501 84.975632,87.806442 85.735779,88.366928 86.296249C88.927399 86.856735,89.687546 87.171677,90.480240 87.171677C91.272934 87.171677,92.033081 86.856735,92.593552 86.296249C93.154037 85.735779,93.468979 84.975632,93.468979 84.182938Z" style="fill: rgb(100.000000%,100.000000%,100.000000%);stroke: none;"></path>
  <path d="M102.512726 78.125839C102.512726 77.333145,102.197784 76.572998,101.637299 76.012527C101.076828 75.452042,100.316681 75.137100,99.523987 75.137100C98.731293 75.137100,97.971146 75.452042,97.410675 76.012527C96.850189 76.572998,96.535248 77.333145,96.535248 78.125839C96.535248 78.918533,96.850189 79.678680,97.410675 80.239151C97.971146 80.799637,98.731293 81.114578,99.523987 81.114578C100.316681 81.114578,101.076828 80.799637,101.637299 80.239151C102.197784 79.678680,102.512726 78.918533,102.512726 78.125839Z" style="fill: rgb(100.000000%,100.000000%,100.000000%);stroke: none;"></path>
  <path d="M87.451065 96.061234C87.451065 95.268539,87.136124 94.508392,86.575638 93.947922C86.015167 93.387436,85.255020 93.072495,84.462326 93.072495C83.669632 93.072495,82.909485 93.387436,82.349014 93.947922C81.788528 94.508392,81.473587 95.268539,81.473587 96.061234C81.473587 96.853928,81.788528 97.614075,82.349014 98.174545C82.909485 98.735031,83.669632 99.049973,84.462326 99.049973C85.255020 99.049973,86.015167 98.735031,86.575638 98.174545C87.136124 97.614075,87.451065 96.853928,87.451065 96.061234Z" style="fill: rgb(100.000000%,100.000000%,100.000000%);stroke: none;"></path>
  <path d="M91.029709 88.421646C91.029709 87.628952,90.714767 86.868805,90.154282 86.308334C89.593811 85.747849,88.833664 85.432907,88.040970 85.432907C87.248276 85.432907,86.488129 85.747849,85.927658 86.308334C85.367172 86.868805,85.052231 87.628952,85.052231 88.421646C85.052231 89.214340,85.367172 89.974487,85.927658 90.534958C86.488129 91.095444,87.248276 91.410385,88.040970 91.410385C88.833664 91.410385,89.593811 91.095444,90.154282 90.534958C90.714767 89.974487,91.029709 89.214340,91.029709 88.421646Z" style="fill: rgb(100.000000%,100.000000%,100.000000%);stroke: none;"></path>
  <path d="M84.580414 106.259521C84.580414 105.466827,84.265472 104.706680,83.704987 104.146210C83.144516 103.585724,82.384369 103.270782,81.591675 103.270782C80.798981 103.270782,80.038834 103.585724,79.478363 104.146210C78.917877 104.706680,78.602936 105.466827,78.602936 106.259521C78.602936 107.052216,78.917877 107.812363,79.478363 108.372833C80.038834 108.933319,80.798981 109.248260,81.591675 109.248260C82.384369 109.248260,83.144516 108.933319,83.704987 108.372833C84.265472 107.812363,84.580414 107.052216,84.580414 106.259521Z" style="fill: rgb(100.000000%,100.000000%,100.000000%);stroke: none;"></path>
  <path d="M86.090012 99.492386C86.090012 98.699692,85.775070 97.939545,85.214584 97.379074C84.654114 96.818588,83.893967 96.503647,83.101273 96.503647C82.308578 96.503647,81.548431 96.818588,80.987961 97.379074C80.427475 97.939545,80.112534 98.699692,80.112534 99.492386C80.112534 100.285080,80.427475 101.045227,80.987961 101.605698C81.548431 102.166183,82.308578 102.481125,83.101273 102.481125C83.893967 102.481125,84.654114 102.166183,85.214584 101.605698C85.775070 101.045227,86.090012 100.285080,86.090012 99.492386Z" style="fill: rgb(100.000000%,100.000000%,100.000000%);stroke: none;"></path>
  <path d="M84.239563 115.601593C84.239563 114.808899,83.924622 114.048752,83.364136 113.488281C82.803665 112.927795,82.043518 112.612854,81.250824 112.612854C80.458130 112.612854,79.697983 112.927795,79.137512 113.488281C78.577026 114.048752,78.262085 114.808899,78.262085 115.601593C78.262085 116.394287,78.577026 117.154434,79.137512 117.714905C79.697983 118.275391,80.458130 118.590332,81.250824 118.590332C82.043518 118.590332,82.803665 118.275391,83.364136 117.714905C83.924622 117.154434,84.239563 116.394287,84.239563 115.601593Z" style="fill: rgb(100.000000%,100.000000%,100.000000%);stroke: none;"></path>
  <path d="M84.321365 109.513245C84.321365 108.720551,84.006424 107.960403,83.445938 107.399933C82.885468 106.839447,82.125320 106.524506,81.332626 106.524506C80.539932 106.524506,79.779785 106.839447,79.219315 107.399933C78.658829 107.960403,78.343887 108.720551,78.343887 109.513245C78.343887 110.305939,78.658829 111.066086,79.219315 111.626556C79.779785 112.187042,80.539932 112.501984,81.332626 112.501984C82.125320 112.501984,82.885468 112.187042,83.445938 111.626556C84.006424 111.066086,84.321365 110.305939,84.321365 109.513245Z" style="fill: rgb(100.000000%,100.000000%,100.000000%);stroke: none;"></path>
  <path d="M78.981796 122.862900C78.981796 122.070206,78.666855 121.310059,78.106369 120.749588C77.545898 120.189102,76.785751 119.874161,75.993057 119.874161C75.200363 119.874161,74.440216 120.189102,73.879745 120.749588C73.319260 121.310059,73.004318 122.070206,73.004318 122.862900C73.004318 123.655594,73.319260 124.415741,73.879745 124.976212C74.440216 125.536697,75.200363 125.851639,75.993057 125.851639C76.785751 125.851639,77.545898 125.536697,78.106369 124.976212C78.666855 124.415741,78.981796 123.655594,78.981796 122.862900Z" style="fill: rgb(100.000000%,100.000000%,100.000000%);stroke: none;"></path>
  <path d="M84.185776 118.688354C84.185776 117.895660,83.870834 117.135513,83.310349 116.575043C82.749878 116.014557,81.989731 115.699615,81.197037 115.699615C80.404343 115.699615,79.644196 116.014557,79.083725 116.575043C78.523239 117.135513,78.208298 117.895660,78.208298 118.688354C78.208298 119.481049,78.523239 120.241196,79.083725 120.801666C79.644196 121.362152,80.404343 121.677094,81.197037 121.677094C81.989731 121.677094,82.749878 121.362152,83.310349 120.801666C83.870834 120.241196,84.185776 119.481049,84.185776 118.688354Z" style="fill: rgb(100.000000%,100.000000%,100.000000%);stroke: none;"></path>
  <path d="M65.751709 116.010193C65.751709 115.217499,65.436768 114.457352,64.876282 113.896881C64.315811 113.336395,63.555664 113.021454,62.762970 113.021454C61.970276 113.021454,61.210129 113.336395,60.649658 113.896881C60.089172 114.457352,59.774231 115.217499,59.774231 116.010193C59.774231 116.802887,60.089172 117.563034,60.649658 118.123505C61.210129 118.683990,61.970276 118.998932,62.762970 118.998932C63.555664 118.998932,64.315811 118.683990,64.876282 118.123505C65.436768 117.563034,65.751709 116.802887,65.751709 116.010193Z" style="fill: rgb(100.000000%,100.000000%,100.000000%);stroke: none;"></path>
  <path d="M74.900482 120.950500C74.900482 120.157806,74.585541 119.397659,74.025055 118.837189C73.464584 118.276703,72.704437 117.961761,71.911743 117.961761C71.119049 117.961761,70.358902 118.276703,69.798431 118.837189C69.237946 119.397659,68.923004 120.157806,68.923004 120.950500C68.923004 121.743195,69.237946 122.503342,69.798431 123.063812C70.358902 123.624298,71.119049 123.939240,71.911743 123.939240C72.704437 123.939240,73.464584 123.624298,74.025055 123.063812C74.585541 122.503342,74.900482 121.743195,74.900482 120.950500Z" style="fill: rgb(100.000000%,100.000000%,100.000000%);stroke: none;"></path>
  <path d="M41.718918 106.996368C41.718918 106.203674,41.403976 105.443527,40.843491 104.883057C40.283020 104.322571,39.522873 104.007629,38.730179 104.007629C37.937485 104.007629,37.177338 104.322571,36.616867 104.883057C36.056381 105.443527,35.741440 106.203674,35.741440 106.996368C35.741440 107.789062,36.056381 108.549210,36.616867 109.109680C37.177338 109.670166,37.937485 109.985107,38.730179 109.985107C39.522873 109.985107,40.283020 109.670166,40.843491 109.109680C41.403976 108.549210,41.718918 107.789062,41.718918 106.996368Z" style="fill: rgb(100.000000%,100.000000%,100.000000%);stroke: none;"></path>
  <path d="M59.756653 113.820541C59.756653 113.027847,59.441711 112.267700,58.881226 111.707230C58.320755 111.146744,57.560608 110.831802,56.767914 110.831802C55.975220 110.831802,55.215073 111.146744,54.654602 111.707230C54.094116 112.267700,53.779175 113.027847,53.779175 113.820541C53.779175 114.613235,54.094116 115.373383,54.654602 115.933853C55.215073 116.494339,55.975220 116.809280,56.767914 116.809280C57.560608 116.809280,58.320755 116.494339,58.881226 115.933853C59.441711 115.373383,59.756653 114.613235,59.756653 113.820541Z" style="fill: rgb(100.000000%,100.000000%,100.000000%);stroke: none;"></path>
  <path d="M16.127289 70.362976C16.127289 69.570282,15.812347 68.810135,15.251862 68.249664C14.691391 67.689178,13.931244 67.374237,13.138550 67.374237C12.345856 67.374237,11.585709 67.689178,11.025238 68.249664C10.464752 68.810135,10.149811 69.570282,10.149811 70.362976C10.149811 71.155670,10.464752 71.915817,11.025238 72.476288C11.585709 73.036774,12.345856 73.351715,13.138550 73.351715C13.931244 73.351715,14.691391 73.036774,15.251862 72.476288C15.812347 71.915817,16.127289 71.155670,16.127289 70.362976Z" style="fill: rgb(100.000000%,100.000000%,100.000000%);stroke: none;"></path>
  <path d="M29.132278 101.361115C29.132278 100.568420,28.817337 99.808273,28.256851 99.247803C27.696381 98.687317,26.936234 98.372375,26.143539 98.372375C25.350845 98.372375,24.590698 98.687317,24.030228 99.247803C23.469742 99.808273,23.154800 100.568420,23.154800 101.361115C23.154800 102.153809,23.469742 102.913956,24.030228 103.474426C24.590698 104.034912,25.350845 104.349854,26.143539 104.349854C26.936234 104.349854,27.696381 104.034912,28.256851 103.474426C28.817337 102.913956,29.132278 102.153809,29.132278 101.361115Z" style="fill: rgb(100.000000%,100.000000%,100.000000%);stroke: none;"></path>
  <path d="M68.898285 22.243973C68.898285 21.451279,68.583344 20.691132,68.022858 20.130661C67.462387 19.570175,66.702240 19.255234,65.909546 19.255234C65.116852 19.255234,64.356705 19.570175,63.796234 20.130661C63.235748 20.691132,62.920807 21.451279,62.920807 22.243973C62.920807 23.036667,63.235748 23.796814,63.796234 24.357285C64.356705 24.917770,65.116852 25.232712,65.909546 25.232712C66.702240 25.232712,67.462387 24.917770,68.022858 24.357285C68.583344 23.796814,68.898285 23.036667,68.898285 22.243973Z" style="fill: rgb(100.000000%,100.000000%,100.000000%);stroke: none;"></path>
  <path d="M31.386093 51.431732C31.386093 50.639038,31.071152 49.878891,30.510666 49.318420C29.950195 48.757935,29.190048 48.442993,28.397354 48.442993C27.604660 48.442993,26.844513 48.757935,26.284042 49.318420C25.723557 49.878891,25.408615 50.639038,25.408615 51.431732C25.408615 52.224426,25.723557 52.984573,26.284042 53.545044C26.844513 54.105530,27.604660 54.420471,28.397354 54.420471C29.190048 54.420471,29.950195 54.105530,30.510666 53.545044C31.071152 52.984573,31.386093 52.224426,31.386093 51.431732Z" style="fill: rgb(100.000000%,100.000000%,100.000000%);stroke: none;"></path>
  <path d="M125.775299 28.508362C125.775299 27.715668,125.460358 26.955521,124.899872 26.395050C124.339401 25.834564,123.579254 25.519623,122.786560 25.519623C121.993866 25.519623,121.233719 25.834564,120.673248 26.395050C120.112762 26.955521,119.797821 27.715668,119.797821 28.508362C119.797821 29.301056,120.112762 30.061203,120.673248 30.621674C121.233719 31.182159,121.993866 31.497101,122.786560 31.497101C123.579254 31.497101,124.339401 31.182159,124.899872 30.621674C125.460358 30.061203,125.775299 29.301056,125.775299 28.508362Z" style="fill: rgb(100.000000%,100.000000%,100.000000%);stroke: none;"></path>
  <path d="M93.869812 9.969269C93.869812 9.176575,93.554871 8.416428,92.994385 7.855957C92.433914 7.295471,91.673767 6.980530,90.881073 6.980530C90.088379 6.980530,89.328232 7.295471,88.767761 7.855957C88.207275 8.416428,87.892334 9.176575,87.892334 9.969269C87.892334 10.761963,88.207275 11.522110,88.767761 12.082581C89.328232 12.643066,90.088379 12.958008,90.881073 12.958008C91.673767 12.958008,92.433914 12.643066,92.994385 12.082581C93.554871 11.522110,93.869812 10.761963,93.869812 9.969269Z" style="fill: rgb(100.000000%,100.000000%,100.000000%);stroke: none;"></path>
  <path d="M155.292862 52.910873C155.292862 52.118179,154.977921 51.358032,154.417435 50.797562C153.856964 50.237076,153.096817 49.922134,152.304123 49.922134C151.511429 49.922134,150.751282 50.237076,150.190811 50.797562C149.630325 51.358032,149.315384 52.118179,149.315384 52.910873C149.315384 53.703568,149.630325 54.463715,150.190811 55.024185C150.751282 55.584671,151.511429 55.899612,152.304123 55.899612C153.096817 55.899612,153.856964 55.584671,154.417435 55.024185C154.977921 54.463715,155.292862 53.703568,155.292862 52.910873Z" style="fill: rgb(100.000000%,100.000000%,100.000000%);stroke: none;"></path>
  <path d="M132.032913 40.573105C132.032913 39.780411,131.717972 39.020264,131.157486 38.459793C130.597015 37.899307,129.836868 37.584366,129.044174 37.584366C128.251480 37.584366,127.491333 37.899307,126.930862 38.459793C126.370377 39.020264,126.055435 39.780411,126.055435 40.573105C126.055435 41.365799,126.370377 42.125946,126.930862 42.686417C127.491333 43.246902,128.251480 43.561844,129.044174 43.561844C129.836868 43.561844,130.597015 43.246902,131.157486 42.686417C131.717972 42.125946,132.032913 41.365799,132.032913 40.573105Z" style="fill: rgb(100.000000%,100.000000%,100.000000%);stroke: none;"></path>
  <path d="M199.723740 70.212494C199.723740 69.419800,199.408798 68.659653,198.848312 68.099182C198.287842 67.538696,197.527695 67.223755,196.735001 67.223755C195.942307 67.223755,195.182159 67.538696,194.621689 68.099182C194.061203 68.659653,193.746262 69.419800,193.746262 70.212494C193.746262 71.005188,194.061203 71.765335,194.621689 72.325806C195.182159 72.886292,195.942307 73.201233,196.735001 73.201233C197.527695 73.201233,198.287842 72.886292,198.848312 72.325806C199.408798 71.765335,199.723740 71.005188,199.723740 70.212494Z" style="fill: rgb(100.000000%,100.000000%,100.000000%);stroke: none;"></path>
  <path d="M170.791534 50.380859C170.791534 49.588165,170.476593 48.828018,169.916107 48.267548C169.355637 47.707062,168.595490 47.392120,167.802795 47.392120C167.010101 47.392120,166.249954 47.707062,165.689484 48.267548C165.128998 48.828018,164.814056 49.588165,164.814056 50.380859C164.814056 51.173553,165.128998 51.933701,165.689484 52.494171C166.249954 53.054657,167.010101 53.369598,167.802795 53.369598C168.595490 53.369598,169.355637 53.054657,169.916107 52.494171C170.476593 51.933701,170.791534 51.173553,170.791534 50.380859Z" style="fill: rgb(100.000000%,100.000000%,100.000000%);stroke: none;"></path>
  <path d="M182.189392 138.499313C182.189392 137.706619,181.874451 136.946472,181.313965 136.386002C180.753494 135.825516,179.993347 135.510574,179.200653 135.510574C178.407959 135.510574,177.647812 135.825516,177.087341 136.386002C176.526855 136.946472,176.211914 137.706619,176.211914 138.499313C176.211914 139.292007,176.526855 140.052155,177.087341 140.612625C177.647812 141.173111,178.407959 141.488052,179.200653 141.488052C179.993347 141.488052,180.753494 141.173111,181.313965 140.612625C181.874451 140.052155,182.189392 139.292007,182.189392 138.499313Z" style="fill: rgb(100.000000%,100.000000%,100.000000%);stroke: none;"></path>
  <path d="M198.449066 94.775177C198.449066 93.982483,198.134125 93.222336,197.573639 92.661865C197.013168 92.101379,196.253021 91.786438,195.460327 91.786438C194.667633 91.786438,193.907486 92.101379,193.347015 92.661865C192.786530 93.222336,192.471588 93.982483,192.471588 94.775177C192.471588 95.567871,192.786530 96.328018,193.347015 96.888489C193.907486 97.448975,194.667633 97.763916,195.460327 97.763916C196.253021 97.763916,197.013168 97.448975,197.573639 96.888489C198.134125 96.328018,198.449066 95.567871,198.449066 94.775177Z" style="fill: rgb(100.000000%,100.000000%,100.000000%);stroke: none;"></path>
  <path d="M128.000519 160.880859C128.000519 160.088165,127.685577 159.328018,127.125092 158.767548C126.564621 158.207062,125.804474 157.892120,125.011780 157.892120C124.219086 157.892120,123.458939 158.207062,122.898468 158.767548C122.337982 159.328018,122.023041 160.088165,122.023041 160.880859C122.023041 161.673553,122.337982 162.433701,122.898468 162.994171C123.458939 163.554657,124.219086 163.869598,125.011780 163.869598C125.804474 163.869598,126.564621 163.554657,127.125092 162.994171C127.685577 162.433701,128.000519 161.673553,128.000519 160.880859Z" style="fill: rgb(100.000000%,100.000000%,100.000000%);stroke: none;"></path>
  <path d="M166.641479 159.683487C166.641479 158.890793,166.326538 158.130646,165.766052 157.570175C165.205582 157.009689,164.445435 156.694748,163.652740 156.694748C162.860046 156.694748,162.099899 157.009689,161.539429 157.570175C160.978943 158.130646,160.664001 158.890793,160.664001 159.683487C160.664001 160.476181,160.978943 161.236328,161.539429 161.796799C162.099899 162.357285,162.860046 162.672226,163.652740 162.672226C164.445435 162.672226,165.205582 162.357285,165.766052 161.796799C166.326538 161.236328,166.641479 160.476181,166.641479 159.683487Z" style="fill: rgb(100.000000%,100.000000%,100.000000%);stroke: none;"></path>
  <path d="M84.698120 154.411407C84.698120 153.618713,84.383179 152.858566,83.822693 152.298096C83.262222 151.737610,82.502075 151.422668,81.709381 151.422668C80.916687 151.422668,80.156540 151.737610,79.596069 152.298096C79.035583 152.858566,78.720642 153.618713,78.720642 154.411407C78.720642 155.204102,79.035583 155.964249,79.596069 156.524719C80.156540 157.085205,80.916687 157.400146,81.709381 157.400146C82.502075 157.400146,83.262222 157.085205,83.822693 156.524719C84.383179 155.964249,84.698120 155.204102,84.698120 154.411407Z" style="fill: rgb(100.000000%,100.000000%,100.000000%);stroke: none;"></path>
  <path d="M113.921509 150.968323C113.921509 150.175629,113.606567 149.415482,113.046082 148.855011C112.485611 148.294525,111.725464 147.979584,110.932770 147.979584C110.140076 147.979584,109.379929 148.294525,108.819458 148.855011C108.258972 149.415482,107.944031 150.175629,107.944031 150.968323C107.944031 151.761017,108.258972 152.521164,108.819458 153.081635C109.379929 153.642120,110.140076 153.957062,110.932770 153.957062C111.725464 153.957062,112.485611 153.642120,113.046082 153.081635C113.606567 152.521164,113.921509 151.761017,113.921509 150.968323Z" style="fill: rgb(100.000000%,100.000000%,100.000000%);stroke: none;"></path>
  <path d="M39.351013 172.374161C39.351013 171.581467,39.036072 170.821320,38.475586 170.260849C37.915115 169.700363,37.154968 169.385422,36.362274 169.385422C35.569580 169.385422,34.809433 169.700363,34.248962 170.260849C33.688477 170.821320,33.373535 171.581467,33.373535 172.374161C33.373535 173.166855,33.688477 173.927002,34.248962 174.487473C34.809433 175.047958,35.569580 175.362900,36.362274 175.362900C37.154968 175.362900,37.915115 175.047958,38.475586 174.487473C39.036072 173.927002,39.351013 173.166855,39.351013 172.374161Z" style="fill: rgb(100.000000%,100.000000%,100.000000%);stroke: none;"></path>
  <path d="M73.811066 165.502716C73.811066 164.710022,73.496124 163.949875,72.935638 163.389404C72.375168 162.828918,71.615021 162.513977,70.822327 162.513977C70.029633 162.513977,69.269485 162.828918,68.709015 163.389404C68.148529 163.949875,67.833588 164.710022,67.833588 165.502716C67.833588 166.295410,68.148529 167.055557,68.709015 167.616028C69.269485 168.176514,70.029633 168.491455,70.822327 168.491455C71.615021 168.491455,72.375168 168.176514,72.935638 167.616028C73.496124 167.055557,73.811066 166.295410,73.811066 165.502716Z" style="fill: rgb(100.000000%,100.000000%,100.000000%);stroke: none;"></path>
  <path d="M5.345291 120.533310C5.345291 119.740616,5.030350 118.980469,4.469864 118.419998C3.909393 117.859512,3.149246 117.544571,2.356552 117.544571C1.563858 117.544571,0.803711 117.859512,0.243240 118.419998C-0.317245 118.980469,-0.632187 119.740616,-0.632187 120.533310C-0.632187 121.326004,-0.317245 122.086151,0.243240 122.646622C0.803711 123.207108,1.563858 123.522049,2.356552 123.522049C3.149246 123.522049,3.909393 123.207108,4.469864 122.646622C5.030350 122.086151,5.345291 121.326004,5.345291 120.533310Z" style="fill: rgb(100.000000%,100.000000%,100.000000%);stroke: none;"></path>
  <path d="M19.782684 158.558334C19.782684 157.765640,19.467743 157.005493,18.907257 156.445023C18.346786 155.884537,17.586639 155.569595,16.793945 155.569595C16.001251 155.569595,15.241104 155.884537,14.680634 156.445023C14.120148 157.005493,13.805206 157.765640,13.805206 158.558334C13.805206 159.351028,14.120148 160.111176,14.680634 160.671646C15.241104 161.232132,16.001251 161.547073,16.793945 161.547073C17.586639 161.547073,18.346786 161.232132,18.907257 160.671646C19.467743 160.111176,19.782684 159.351028,19.782684 158.558334Z" style="fill: rgb(100.000000%,100.000000%,100.000000%);stroke: none;"></path>
  <path d="M36.597824 80.942352C36.597824 80.149658,36.282883 79.389511,35.722397 78.829041C35.161926 78.268555,34.401779 77.953613,33.609085 77.953613C32.816391 77.953613,32.056244 78.268555,31.495773 78.829041C30.935287 79.389511,30.620346 80.149658,30.620346 80.942352C30.620346 81.735046,30.935287 82.495193,31.495773 83.055664C32.056244 83.616150,32.816391 83.931091,33.609085 83.931091C34.401779 83.931091,35.161926 83.616150,35.722397 83.055664C36.282883 82.495193,36.597824 81.735046,36.597824 80.942352Z" style="fill: rgb(100.000000%,100.000000%,100.000000%);stroke: none;"></path>
  <path d="M8.882370 100.006287C8.882370 99.213593,8.567429 98.453445,8.006943 97.892975C7.446472 97.332489,6.686325 97.017548,5.893631 97.017548C5.100937 97.017548,4.340790 97.332489,3.780319 97.892975C3.219833 98.453445,2.904892 99.213593,2.904892 100.006287C2.904892 100.798981,3.219833 101.559128,3.780319 102.119598C4.340790 102.680084,5.100937 102.995026,5.893631 102.995026C6.686325 102.995026,7.446472 102.680084,8.006943 102.119598C8.567429 101.559128,8.882370 100.798981,8.882370 100.006287Z" style="fill: rgb(100.000000%,100.000000%,100.000000%);stroke: none;"></path>
  <path d="M74.675079 87.989655C74.675079 87.196960,74.360138 86.436813,73.799652 85.876343C73.239182 85.315857,72.479034 85.000916,71.686340 85.000916C70.893646 85.000916,70.133499 85.315857,69.573029 85.876343C69.012543 86.436813,68.697601 87.196960,68.697601 87.989655C68.697601 88.782349,69.012543 89.542496,69.573029 90.102966C70.133499 90.663452,70.893646 90.978394,71.686340 90.978394C72.479034 90.978394,73.239182 90.663452,73.799652 90.102966C74.360138 89.542496,74.675079 88.782349,74.675079 87.989655Z" style="fill: rgb(100.000000%,100.000000%,100.000000%);stroke: none;"></path>
  <path d="M52.611267 82.492371C52.611267 81.699677,52.296326 80.939529,51.735840 80.379059C51.175369 79.818573,50.415222 79.503632,49.622528 79.503632C48.829834 79.503632,48.069687 79.818573,47.509216 80.379059C46.948730 80.939529,46.633789 81.699677,46.633789 82.492371C46.633789 83.285065,46.948730 84.045212,47.509216 84.605682C48.069687 85.166168,48.829834 85.481110,49.622528 85.481110C50.415222 85.481110,51.175369 85.166168,51.735840 84.605682C52.296326 84.045212,52.611267 83.285065,52.611267 82.492371Z" style="fill: rgb(100.000000%,100.000000%,100.000000%);stroke: none;"></path>
  <path d="M92.592575 93.971924C92.592575 93.179230,92.277634 92.419083,91.717148 91.858612C91.156677 91.298126,90.396530 90.983185,89.603836 90.983185C88.811142 90.983185,88.050995 91.298126,87.490524 91.858612C86.930038 92.419083,86.615097 93.179230,86.615097 93.971924C86.615097 94.764618,86.930038 95.524765,87.490524 96.085236C88.050995 96.645721,88.811142 96.960663,89.603836 96.960663C90.396530 96.960663,91.156677 96.645721,91.717148 96.085236C92.277634 95.524765,92.592575 94.764618,92.592575 93.971924Z" style="fill: rgb(100.000000%,100.000000%,100.000000%);stroke: none;"></path>
  <path d="M81.878586 90.260071C81.878586 89.467377,81.563644 88.707230,81.003159 88.146759C80.442688 87.586273,79.682541 87.271332,78.889847 87.271332C78.097153 87.271332,77.337006 87.586273,76.776535 88.146759C76.216049 88.707230,75.901108 89.467377,75.901108 90.260071C75.901108 91.052765,76.216049 91.812912,76.776535 92.373383C77.337006 92.933868,78.097153 93.248810,78.889847 93.248810C79.682541 93.248810,80.442688 92.933868,81.003159 92.373383C81.563644 91.812912,81.878586 91.052765,81.878586 90.260071Z" style="fill: rgb(100.000000%,100.000000%,100.000000%);stroke: none;"></path>
  <path d="M102.633087 98.106323C102.633087 97.313629,102.318146 96.553482,101.757660 95.993011C101.197189 95.432526,100.437042 95.117584,99.644348 95.117584C98.851654 95.117584,98.091507 95.432526,97.531036 95.993011C96.970551 96.553482,96.655609 97.313629,96.655609 98.106323C96.655609 98.899017,96.970551 99.659164,97.531036 100.219635C98.091507 100.780121,98.851654 101.095062,99.644348 101.095062C100.437042 101.095062,101.197189 100.780121,101.757660 100.219635C102.318146 99.659164,102.633087 98.899017,102.633087 98.106323Z" style="fill: rgb(100.000000%,100.000000%,100.000000%);stroke: none;"></path>
  <path d="M96.158371 95.264160C96.158371 94.471466,95.843430 93.711319,95.282944 93.150848C94.722473 92.590363,93.962326 92.275421,93.169632 92.275421C92.376938 92.275421,91.616791 92.590363,91.056320 93.150848C90.495834 93.711319,90.180893 94.471466,90.180893 95.264160C90.180893 96.056854,90.495834 96.817001,91.056320 97.377472C91.616791 97.937958,92.376938 98.252899,93.169632 98.252899C93.962326 98.252899,94.722473 97.937958,95.282944 97.377472C95.843430 96.817001,96.158371 96.056854,96.158371 95.264160Z" style="fill: rgb(100.000000%,100.000000%,100.000000%);stroke: none;"></path>
  <path d="M112.114685 101.179474C112.114685 100.386780,111.799744 99.626633,111.239258 99.066162C110.678787 98.505676,109.918640 98.190735,109.125946 98.190735C108.333252 98.190735,107.573105 98.505676,107.012634 99.066162C106.452148 99.626633,106.137207 100.386780,106.137207 101.179474C106.137207 101.972168,106.452148 102.732315,107.012634 103.292786C107.573105 103.853271,108.333252 104.168213,109.125946 104.168213C109.918640 104.168213,110.678787 103.853271,111.239258 103.292786C111.799744 102.732315,112.114685 101.972168,112.114685 101.179474Z" style="fill: rgb(100.000000%,100.000000%,100.000000%);stroke: none;"></path>
  <path d="M105.580505 99.602646C105.580505 98.809952,105.265564 98.049805,104.705078 97.489334C104.144608 96.928848,103.384460 96.613907,102.591766 96.613907C101.799072 96.613907,101.038925 96.928848,100.478455 97.489334C99.917969 98.049805,99.603027 98.809952,99.603027 99.602646C99.603027 100.395340,99.917969 101.155487,100.478455 101.715958C101.038925 102.276443,101.799072 102.591385,102.591766 102.591385C103.384460 102.591385,104.144608 102.276443,104.705078 101.715958C105.265564 101.155487,105.580505 100.395340,105.580505 99.602646Z" style="fill: rgb(100.000000%,100.000000%,100.000000%);stroke: none;"></path>
  <path d="M116.362244 108.684509C116.362244 107.891815,116.047302 107.131668,115.486816 106.571198C114.926346 106.010712,114.166199 105.695770,113.373505 105.695770C112.580811 105.695770,111.820663 106.010712,111.260193 106.571198C110.699707 107.131668,110.384766 107.891815,110.384766 108.684509C110.384766 109.477203,110.699707 110.237350,111.260193 110.797821C111.820663 111.358307,112.580811 111.673248,113.373505 111.673248C114.166199 111.673248,114.926346 111.358307,115.486816 110.797821C116.047302 110.237350,116.362244 109.477203,116.362244 108.684509Z" style="fill: rgb(100.000000%,100.000000%,100.000000%);stroke: none;"></path>
  <path d="M115.940048 102.085281C115.940048 101.292587,115.625107 100.532440,115.064621 99.971970C114.504150 99.411484,113.744003 99.096542,112.951309 99.096542C112.158615 99.096542,111.398468 99.411484,110.837997 99.971970C110.277512 100.532440,109.962570 101.292587,109.962570 102.085281C109.962570 102.877975,110.277512 103.638123,110.837997 104.198593C111.398468 104.759079,112.158615 105.074020,112.951309 105.074020C113.744003 105.074020,114.504150 104.759079,115.064621 104.198593C115.625107 103.638123,115.940048 102.877975,115.940048 102.085281Z" style="fill: rgb(100.000000%,100.000000%,100.000000%);stroke: none;"></path>
  <path d="M104.751007 112.141556C104.751007 111.348862,104.436066 110.588715,103.875580 110.028244C103.315109 109.467758,102.554962 109.152817,101.762268 109.152817C100.969574 109.152817,100.209427 109.467758,99.648956 110.028244C99.088470 110.588715,98.773529 111.348862,98.773529 112.141556C98.773529 112.934250,99.088470 113.694397,99.648956 114.254868C100.209427 114.815353,100.969574 115.130295,101.762268 115.130295C102.554962 115.130295,103.315109 114.815353,103.875580 114.254868C104.436066 113.694397,104.751007 112.934250,104.751007 112.141556Z" style="fill: rgb(100.000000%,100.000000%,100.000000%);stroke: none;"></path>
  <path d="M112.408752 110.034866C112.408752 109.242172,112.093811 108.482025,111.533325 107.921555C110.972855 107.361069,110.212708 107.046127,109.420013 107.046127C108.627319 107.046127,107.867172 107.361069,107.306702 107.921555C106.746216 108.482025,106.431274 109.242172,106.431274 110.034866C106.431274 110.827560,106.746216 111.587708,107.306702 112.148178C107.867172 112.708664,108.627319 113.023605,109.420013 113.023605C110.212708 113.023605,110.972855 112.708664,111.533325 112.148178C112.093811 111.587708,112.408752 110.827560,112.408752 110.034866Z" style="fill: rgb(100.000000%,100.000000%,100.000000%);stroke: none;"></path>
  <path d="M92.483780 115.348465C92.483780 114.555771,92.168839 113.795624,91.608353 113.235153C91.047882 112.674667,90.287735 112.359726,89.495041 112.359726C88.702347 112.359726,87.942200 112.674667,87.381729 113.235153C86.821243 113.795624,86.506302 114.555771,86.506302 115.348465C86.506302 116.141159,86.821243 116.901306,87.381729 117.461777C87.942200 118.022263,88.702347 118.337204,89.495041 118.337204C90.287735 118.337204,91.047882 118.022263,91.608353 117.461777C92.168839 116.901306,92.483780 116.141159,92.483780 115.348465Z" style="fill: rgb(100.000000%,100.000000%,100.000000%);stroke: none;"></path>
  <path d="M100.943802 114.278244C100.943802 113.485550,100.628860 112.725403,100.068375 112.164932C99.507904 111.604446,98.747757 111.289505,97.955063 111.289505C97.162369 111.289505,96.402222 111.604446,95.841751 112.164932C95.281265 112.725403,94.966324 113.485550,94.966324 114.278244C94.966324 115.070938,95.281265 115.831085,95.841751 116.391556C96.402222 116.952042,97.162369 117.266983,97.955063 117.266983C98.747757 117.266983,99.507904 116.952042,100.068375 116.391556C100.628860 115.831085,100.943802 115.070938,100.943802 114.278244Z" style="fill: rgb(100.000000%,100.000000%,100.000000%);stroke: none;"></path>
  <path d="M81.347870 111.685822C81.347870 110.893127,81.032928 110.132980,80.472443 109.572510C79.911972 109.012024,79.151825 108.697083,78.359131 108.697083C77.566437 108.697083,76.806290 109.012024,76.245819 109.572510C75.685333 110.132980,75.370392 110.893127,75.370392 111.685822C75.370392 112.478516,75.685333 113.238663,76.245819 113.799133C76.806290 114.359619,77.566437 114.674561,78.359131 114.674561C79.151825 114.674561,79.911972 114.359619,80.472443 113.799133C81.032928 113.238663,81.347870 112.478516,81.347870 111.685822Z" style="fill: rgb(100.000000%,100.000000%,100.000000%);stroke: none;"></path>
  <path d="M88.277679 114.242661C88.277679 113.449966,87.962738 112.689819,87.402252 112.129349C86.841782 111.568863,86.081635 111.253922,85.288940 111.253922C84.496246 111.253922,83.736099 111.568863,83.175629 112.129349C82.615143 112.689819,82.300201 113.449966,82.300201 114.242661C82.300201 115.035355,82.615143 115.795502,83.175629 116.355972C83.736099 116.916458,84.496246 117.231400,85.288940 117.231400C86.081635 117.231400,86.841782 116.916458,87.402252 116.355972C87.962738 115.795502,88.277679 115.035355,88.277679 114.242661Z" style="fill: rgb(100.000000%,100.000000%,100.000000%);stroke: none;"></path>
  <path d="M72.898453 113.255249C72.898453 112.462555,72.583511 111.702408,72.023026 111.141937C71.462555 110.581451,70.702408 110.266510,69.909714 110.266510C69.117020 110.266510,68.356873 110.581451,67.796402 111.141937C67.235916 111.702408,66.920975 112.462555,66.920975 113.255249C66.920975 114.047943,67.235916 114.808090,67.796402 115.368561C68.356873 115.929047,69.117020 116.243988,69.909714 116.243988C70.702408 116.243988,71.462555 115.929047,72.023026 115.368561C72.583511 114.808090,72.898453 114.047943,72.898453 113.255249Z" style="fill: rgb(100.000000%,100.000000%,100.000000%);stroke: none;"></path>
  <path d="M78.182770 110.470825C78.182770 109.678131,77.867828 108.917984,77.307343 108.357513C76.746872 107.797028,75.986725 107.482086,75.194031 107.482086C74.401337 107.482086,73.641190 107.797028,73.080719 108.357513C72.520233 108.917984,72.205292 109.678131,72.205292 110.470825C72.205292 111.263519,72.520233 112.023666,73.080719 112.584137C73.641190 113.144623,74.401337 113.459564,75.194031 113.459564C75.986725 113.459564,76.746872 113.144623,77.307343 112.584137C77.867828 112.023666,78.182770 111.263519,78.182770 110.470825Z" style="fill: rgb(100.000000%,100.000000%,100.000000%);stroke: none;"></path>
  <path d="M70.053375 124.727661C70.053375 123.934967,69.738434 123.174820,69.177948 122.614349C68.617477 122.053864,67.857330 121.738922,67.064636 121.738922C66.271942 121.738922,65.511795 122.053864,64.951324 122.614349C64.390839 123.174820,64.075897 123.934967,64.075897 124.727661C64.075897 125.520355,64.390839 126.280502,64.951324 126.840973C65.511795 127.401459,66.271942 127.716400,67.064636 127.716400C67.857330 127.716400,68.617477 127.401459,69.177948 126.840973C69.738434 126.280502,70.053375 125.520355,70.053375 124.727661Z" style="fill: rgb(100.000000%,100.000000%,100.000000%);stroke: none;"></path>
  <path d="M71.997269 116.219757C71.997269 115.427063,71.682327 114.666916,71.121841 114.106445C70.561371 113.545959,69.801224 113.231018,69.008530 113.231018C68.215836 113.231018,67.455688 113.545959,66.895218 114.106445C66.334732 114.666916,66.019791 115.427063,66.019791 116.219757C66.019791 117.012451,66.334732 117.772598,66.895218 118.333069C67.455688 118.893555,68.215836 119.208496,69.008530 119.208496C69.801224 119.208496,70.561371 118.893555,71.121841 118.333069C71.682327 117.772598,71.997269 117.012451,71.997269 116.219757Z" style="fill: rgb(100.000000%,100.000000%,100.000000%);stroke: none;"></path>
  <path d="M64.022766 146.769180C64.022766 145.976486,63.707825 145.216339,63.147339 144.655869C62.586868 144.095383,61.826721 143.780441,61.034027 143.780441C60.241333 143.780441,59.481186 144.095383,58.920715 144.655869C58.360229 145.216339,58.045288 145.976486,58.045288 146.769180C58.045288 147.561874,58.360229 148.322021,58.920715 148.882492C59.481186 149.442978,60.241333 149.757919,61.034027 149.757919C61.826721 149.757919,62.586868 149.442978,63.147339 148.882492C63.707825 148.322021,64.022766 147.561874,64.022766 146.769180Z" style="fill: rgb(100.000000%,100.000000%,100.000000%);stroke: none;"></path>
  <path d="M69.078384 130.501236C69.078384 129.708542,68.763443 128.948395,68.202957 128.387924C67.642487 127.827438,66.882339 127.512497,66.089645 127.512497C65.296951 127.512497,64.536804 127.827438,63.976334 128.387924C63.415848 128.948395,63.100906 129.708542,63.100906 130.501236C63.100906 131.293930,63.415848 132.054077,63.976334 132.614548C64.536804 133.175034,65.296951 133.489975,66.089645 133.489975C66.882339 133.489975,67.642487 133.175034,68.202957 132.614548C68.763443 132.054077,69.078384 131.293930,69.078384 130.501236Z" style="fill: rgb(100.000000%,100.000000%,100.000000%);stroke: none;"></path>
  <path d="M63.551163 186.733322C63.551163 185.940628,63.236221 185.180481,62.675735 184.620010C62.115265 184.059525,61.355118 183.744583,60.562424 183.744583C59.769730 183.744583,59.009583 184.059525,58.449112 184.620010C57.888626 185.180481,57.573685 185.940628,57.573685 186.733322C57.573685 187.526016,57.888626 188.286163,58.449112 188.846634C59.009583 189.407120,59.769730 189.722061,60.562424 189.722061C61.355118 189.722061,62.115265 189.407120,62.675735 188.846634C63.236221 188.286163,63.551163 187.526016,63.551163 186.733322Z" style="fill: rgb(100.000000%,100.000000%,100.000000%);stroke: none;"></path>
  <path d="M57.960876 157.165756C57.960876 156.373062,57.645935 155.612915,57.085449 155.052444C56.524979 154.491959,55.764832 154.177017,54.972137 154.177017C54.179443 154.177017,53.419296 154.491959,52.858826 155.052444C52.298340 155.612915,51.983398 156.373062,51.983398 157.165756C51.983398 157.958450,52.298340 158.718597,52.858826 159.279068C53.419296 159.839554,54.179443 160.154495,54.972137 160.154495C55.764832 160.154495,56.524979 159.839554,57.085449 159.279068C57.645935 158.718597,57.960876 157.958450,57.960876 157.165756Z" style="fill: rgb(100.000000%,100.000000%,100.000000%);stroke: none;"></path>
  <path d="M124.518570 191.226303C124.518570 190.433609,124.203629 189.673462,123.643143 189.112991C123.082672 188.552505,122.322525 188.237564,121.529831 188.237564C120.737137 188.237564,119.976990 188.552505,119.416519 189.112991C118.856033 189.673462,118.541092 190.433609,118.541092 191.226303C118.541092 192.018997,118.856033 192.779144,119.416519 193.339615C119.976990 193.900101,120.737137 194.215042,121.529831 194.215042C122.322525 194.215042,123.082672 193.900101,123.643143 193.339615C124.203629 192.779144,124.518570 192.018997,124.518570 191.226303Z" style="fill: rgb(100.000000%,100.000000%,100.000000%);stroke: none;"></path>
  <path d="M84.182220 194.968765C84.182220 194.176071,83.867279 193.415924,83.306793 192.855453C82.746323 192.294968,81.986176 191.980026,81.193481 191.980026C80.400787 191.980026,79.640640 192.294968,79.080170 192.855453C78.519684 193.415924,78.204742 194.176071,78.204742 194.968765C78.204742 195.761459,78.519684 196.521606,79.080170 197.082077C79.640640 197.642563,80.400787 197.957504,81.193481 197.957504C81.986176 197.957504,82.746323 197.642563,83.306793 197.082077C83.867279 196.521606,84.182220 195.761459,84.182220 194.968765Z" style="fill: rgb(100.000000%,100.000000%,100.000000%);stroke: none;"></path>
  <path d="M143.247009 146.831360C143.247009 146.038666,142.932068 145.278519,142.371582 144.718048C141.811111 144.157562,141.050964 143.842621,140.258270 143.842621C139.465576 143.842621,138.705429 144.157562,138.144958 144.718048C137.584473 145.278519,137.269531 146.038666,137.269531 146.831360C137.269531 147.624054,137.584473 148.384201,138.144958 148.944672C138.705429 149.505157,139.465576 149.820099,140.258270 149.820099C141.050964 149.820099,141.811111 149.505157,142.371582 148.944672C142.932068 148.384201,143.247009 147.624054,143.247009 146.831360Z" style="fill: rgb(100.000000%,100.000000%,100.000000%);stroke: none;"></path>
  <path d="M143.317581 179.263626C143.317581 178.470932,143.002640 177.710785,142.442154 177.150314C141.881683 176.589828,141.121536 176.274887,140.328842 176.274887C139.536148 176.274887,138.776001 176.589828,138.215530 177.150314C137.655045 177.710785,137.340103 178.470932,137.340103 179.263626C137.340103 180.056320,137.655045 180.816467,138.215530 181.376938C138.776001 181.937424,139.536148 182.252365,140.328842 182.252365C141.121536 182.252365,141.881683 181.937424,142.442154 181.376938C143.002640 180.816467,143.317581 180.056320,143.317581 179.263626Z" style="fill: rgb(100.000000%,100.000000%,100.000000%);stroke: none;"></path>
  <path d="M118.749741 121.278610C118.749741 120.485916,118.434799 119.725769,117.874313 119.165298C117.313843 118.604813,116.553696 118.289871,115.761002 118.289871C114.968307 118.289871,114.208160 118.604813,113.647690 119.165298C113.087204 119.725769,112.772263 120.485916,112.772263 121.278610C112.772263 122.071304,113.087204 122.831451,113.647690 123.391922C114.208160 123.952408,114.968307 124.267349,115.761002 124.267349C116.553696 124.267349,117.313843 123.952408,117.874313 123.391922C118.434799 122.831451,118.749741 122.071304,118.749741 121.278610Z" style="fill: rgb(100.000000%,100.000000%,100.000000%);stroke: none;"></path>
  <path d="M132.278534 136.948471C132.278534 136.155777,131.963593 135.395630,131.403107 134.835159C130.842636 134.274673,130.082489 133.959732,129.289795 133.959732C128.497101 133.959732,127.736954 134.274673,127.176483 134.835159C126.615997 135.395630,126.301056 136.155777,126.301056 136.948471C126.301056 137.741165,126.615997 138.501312,127.176483 139.061783C127.736954 139.622269,128.497101 139.937210,129.289795 139.937210C130.082489 139.937210,130.842636 139.622269,131.403107 139.061783C131.963593 138.501312,132.278534 137.741165,132.278534 136.948471Z" style="fill: rgb(100.000000%,100.000000%,100.000000%);stroke: none;"></path>
  <path d="M106.884659 109.504135C106.884659 108.711441,106.569717 107.951294,106.009232 107.390823C105.448761 106.830338,104.688614 106.515396,103.895920 106.515396C103.103226 106.515396,102.343079 106.830338,101.782608 107.390823C101.222122 107.951294,100.907181 108.711441,100.907181 109.504135C100.907181 110.296829,101.222122 111.056976,101.782608 111.617447C102.343079 112.177933,103.103226 112.492874,103.895920 112.492874C104.688614 112.492874,105.448761 112.177933,106.009232 111.617447C106.569717 111.056976,106.884659 110.296829,106.884659 109.504135Z" style="fill: rgb(100.000000%,100.000000%,100.000000%);stroke: none;"></path>
  <path d="M114.532104 115.383408C114.532104 114.590714,114.217163 113.830566,113.656677 113.270096C113.096207 112.709610,112.336060 112.394669,111.543365 112.394669C110.750671 112.394669,109.990524 112.709610,109.430054 113.270096C108.869568 113.830566,108.554626 114.590714,108.554626 115.383408C108.554626 116.176102,108.869568 116.936249,109.430054 117.496719C109.990524 118.057205,110.750671 118.372147,111.543365 118.372147C112.336060 118.372147,113.096207 118.057205,113.656677 117.496719C114.217163 116.936249,114.532104 116.176102,114.532104 115.383408Z" style="fill: rgb(100.000000%,100.000000%,100.000000%);stroke: none;"></path>
  <path d="M104.789139 103.147110C104.789139 102.354416,104.474197 101.594269,103.913712 101.033798C103.353241 100.473312,102.593094 100.158371,101.800400 100.158371C101.007706 100.158371,100.247559 100.473312,99.687088 101.033798C99.126602 101.594269,98.811661 102.354416,98.811661 103.147110C98.811661 103.939804,99.126602 104.699951,99.687088 105.260422C100.247559 105.820908,101.007706 106.135849,101.800400 106.135849C102.593094 106.135849,103.353241 105.820908,103.913712 105.260422C104.474197 104.699951,104.789139 103.939804,104.789139 103.147110Z" style="fill: rgb(100.000000%,100.000000%,100.000000%);stroke: none;"></path>
  <path d="M104.684860 107.880249C104.684860 107.087555,104.369919 106.327408,103.809433 105.766937C103.248962 105.206451,102.488815 104.891510,101.696121 104.891510C100.903427 104.891510,100.143280 105.206451,99.582809 105.766937C99.022324 106.327408,98.707382 107.087555,98.707382 107.880249C98.707382 108.672943,99.022324 109.433090,99.582809 109.993561C100.143280 110.554047,100.903427 110.868988,101.696121 110.868988C102.488815 110.868988,103.248962 110.554047,103.809433 109.993561C104.369919 109.433090,104.684860 108.672943,104.684860 107.880249Z" style="fill: rgb(100.000000%,100.000000%,100.000000%);stroke: none;"></path>
  <path d="M112.332962 98.134857C112.332962 97.342163,112.018021 96.582016,111.457535 96.021545C110.897064 95.461060,110.136917 95.146118,109.344223 95.146118C108.551529 95.146118,107.791382 95.461060,107.230911 96.021545C106.670425 96.582016,106.355484 97.342163,106.355484 98.134857C106.355484 98.927551,106.670425 99.687698,107.230911 100.248169C107.791382 100.808655,108.551529 101.123596,109.344223 101.123596C110.136917 101.123596,110.897064 100.808655,111.457535 100.248169C112.018021 99.687698,112.332962 98.927551,112.332962 98.134857Z" style="fill: rgb(100.000000%,100.000000%,100.000000%);stroke: none;"></path>
  <path d="M106.801941 101.611420C106.801941 100.818726,106.487000 100.058578,105.926514 99.498108C105.366043 98.937622,104.605896 98.622681,103.813202 98.622681C103.020508 98.622681,102.260361 98.937622,101.699890 99.498108C101.139404 100.058578,100.824463 100.818726,100.824463 101.611420C100.824463 102.404114,101.139404 103.164261,101.699890 103.724731C102.260361 104.285217,103.020508 104.600159,103.813202 104.600159C104.605896 104.600159,105.366043 104.285217,105.926514 103.724731C106.487000 103.164261,106.801941 102.404114,106.801941 101.611420Z" style="fill: rgb(100.000000%,100.000000%,100.000000%);stroke: none;"></path>
  <path d="M113.302292 91.410278C113.454407 86.902542,113.016602 82.394241,112.000000 78.000000C110.389267 71.037643,107.354599 64.484863,105.721451 57.527939C102.850510 45.298248,104.442810 32.232574,112.000000 22.240692C124.806702 5.308075,148.966873 2.383469,166.696320 14.572983C181.327103 24.632080,187.818802 43.336273,179.284485 58.251007C171.573807 71.726364,155.019562 75.442581,139.329422 76.793152C130.240921 77.575470,121.121246 77.901703,112.000000 78.000000C105.893372 78.065811,99.523987 78.125839,94.439362 81.531296C90.480240 84.182938,88.040970 88.421646,86.022278 92.731094C84.462326 96.061234,83.101273 99.492386,82.300308 103.082886C81.591675 106.259521,81.332626 109.513245,81.288910 112.766800C81.250824 115.601593,81.197037 118.688354,79.004120 120.447464C75.993057 122.862900,71.911743 120.950500,68.365204 119.035385C62.762970 116.010193,56.767914 113.820541,50.815338 111.568527C38.730179 106.996368,26.143539 101.361115,21.167435 89.500275C13.138550 70.362976,28.397354 51.431732,45.841278 37.858841C65.909546 22.243973,90.881073 9.969269,112.000000 22.240692C122.786560 28.508362,129.044174 40.573105,140.080994 46.427368C152.304123 52.910873,167.802795 50.380859,179.284485 58.251007C196.735001 70.212494,195.460327 94.775177,187.631241 115.828476C179.200653 138.499313,163.652740 159.683487,140.287811 160.407501C125.011780 160.880859,110.932770 150.968323,95.687668 152.764496C81.709381 154.411407,70.822327 165.502716,57.066971 168.245575C36.362274 172.374161,16.793945 158.558334,9.103897 138.304382C2.356552 120.533310,5.893631 100.006287,21.167435 89.500275C33.609085 80.942352,49.622528 82.492371,64.361496 86.164642C71.686340 87.989655,78.889847 90.260071,86.022278 92.731094C89.603836 93.971924,93.169632 95.264160,96.640671 96.787811C99.644348 98.106323,102.591766 99.602646,105.783615 100.372910C109.125946 101.179474,112.951309 102.085281,113.157440 105.307312C113.373505 108.684509,109.420013 110.034866,105.860138 111.014206C101.762268 112.141556,97.955063 114.278244,93.730240 114.812698C89.495041 115.348465,85.288940 114.242661,81.288910 112.766800C78.359131 111.685822,75.194031 110.470825,72.446426 111.918594C69.909714 113.255249,69.008530 116.219757,68.365204 119.035385C67.064636 124.727661,66.089645 130.501236,64.356308 136.078766C61.034027 146.769180,54.972137 157.165756,57.066971 168.245575C60.562424 186.733322,81.193481 194.968765,101.331604 193.100327C121.529831 191.226303,140.328842 179.263626,140.287811 160.407501C140.258270 146.831360,129.289795 136.948471,120.438797 126.696716C115.761002 121.278610,111.543365 115.383408,105.860138 111.014206C103.895920 109.504135,101.696121 107.880249,101.750015 105.434235C101.800400 103.147110,103.813202 101.611420,105.783615 100.372910C109.344223 98.134857,113.162781 95.544739,113.302292 91.410278" style="stroke:rgb(0.000000%,0.000000%,0.000000%); stroke-width: 0.498138;stroke-linecap: round;stroke-linejoin: round;stroke-miterlimit: 10.000000;fill: none;"></path>
  <path d="M113.302292 91.410278C113.454407 86.902542,113.016602 82.394241,112.000000 78.000000C110.389267 71.037643,107.354599 64.484863,105.721451 57.527939C102.850510 45.298248,104.442810 32.232574,112.000000 22.240692" style="stroke:rgb(0.000000%,0.000000%,0.000000%); stroke-width: 1.494400;stroke-linecap: round;stroke-linejoin: round;stroke-miterlimit: 10.000000;fill: none;"></path>
  <path d="M105.783615 100.372910C109.344223 98.134857,113.162781 95.544739,113.302292 91.410278" style="stroke:rgb(0.000000%,0.000000%,0.000000%); stroke-width: 1.494400;stroke-linecap: round;stroke-linejoin: round;stroke-miterlimit: 10.000000;fill: none;"></path>
  <path d="M114.988739 78.000000C114.988739 77.207306,114.673798 76.447159,114.113312 75.886688C113.552841 75.326202,112.792694 75.011261,112.000000 75.011261C111.207306 75.011261,110.447159 75.326202,109.886688 75.886688C109.326202 76.447159,109.011261 77.207306,109.011261 78.000000C109.011261 78.792694,109.326202 79.552841,109.886688 80.113312C110.447159 80.673798,111.207306 80.988739,112.000000 80.988739C112.792694 80.988739,113.552841 80.673798,114.113312 80.113312C114.673798 79.552841,114.988739 78.792694,114.988739 78.000000Z" style="fill: rgb(100.000000%,100.000000%,100.000000%);stroke: none;"></path>
  <path d="M113.089417 84.662567C112.871902 82.422745,112.508301 80.197113,112.000000 78.000000C111.194626 74.518814,110.033279 71.140030,108.869125 67.761917" style="stroke:rgb(0.000000%,0.000000%,0.000000%); stroke-width: 1.494400;stroke-linecap: round;stroke-linejoin: round;stroke-miterlimit: 10.000000;fill: none;"></path>
  <path d="M182.273224 58.251007C182.273224 57.458313,181.958282 56.698166,181.397797 56.137695C180.837326 55.577209,180.077179 55.262268,179.284485 55.262268C178.491791 55.262268,177.731644 55.577209,177.171173 56.137695C176.610687 56.698166,176.295746 57.458313,176.295746 58.251007C176.295746 59.043701,176.610687 59.803848,177.171173 60.364319C177.731644 60.924805,178.491791 61.239746,179.284485 61.239746C180.077179 61.239746,180.837326 60.924805,181.397797 60.364319C181.958282 59.803848,182.273224 59.043701,182.273224 58.251007Z" style="fill: rgb(100.000000%,100.000000%,100.000000%);stroke: none;"></path>
  <path d="M181.677322 34.591141C184.062286 42.388916,183.551636 50.793640,179.284485 58.251007C175.429138 64.988693,169.362900 69.286591,162.299240 72.068893" style="stroke:rgb(0.000000%,0.000000%,0.000000%); stroke-width: 0.498138;stroke-linecap: round;stroke-linejoin: round;stroke-miterlimit: 10.000000;fill: none;"></path>
  <path d="M89.011017 92.731094C89.011017 91.938400,88.696075 91.178253,88.135590 90.617783C87.575119 90.057297,86.814972 89.742355,86.022278 89.742355C85.229584 89.742355,84.469437 90.057297,83.908966 90.617783C83.348480 91.178253,83.033539 91.938400,83.033539 92.731094C83.033539 93.523788,83.348480 94.283936,83.908966 94.844406C84.469437 95.404892,85.229584 95.719833,86.022278 95.719833C86.814972 95.719833,87.575119 95.404892,88.135590 94.844406C88.696075 94.283936,89.011017 93.523788,89.011017 92.731094Z" style="fill: rgb(100.000000%,100.000000%,100.000000%);stroke: none;"></path>
  <path d="M89.503143 86.509521C88.146103 88.439331,87.031616 90.576370,86.022278 92.731094C85.242294 94.396164,84.512039 96.086487,83.876663 97.809357" style="stroke:rgb(0.000000%,0.000000%,0.000000%); stroke-width: 0.498138;stroke-linecap: round;stroke-linejoin: round;stroke-miterlimit: 10.000000;fill: none;"></path>
  <path d="M71.353943 119.035385C71.353943 118.242691,71.039001 117.482544,70.478516 116.922073C69.918045 116.361588,69.157898 116.046646,68.365204 116.046646C67.572510 116.046646,66.812363 116.361588,66.251892 116.922073C65.691406 117.482544,65.376465 118.242691,65.376465 119.035385C65.376465 119.828079,65.691406 120.588226,66.251892 121.148697C66.812363 121.709183,67.572510 122.024124,68.365204 122.024124C69.157898 122.024124,69.918045 121.709183,70.478516 121.148697C71.039001 120.588226,71.353943 119.828079,71.353943 119.035385Z" style="fill: rgb(100.000000%,100.000000%,100.000000%);stroke: none;"></path>
  <path d="M73.885452 121.365372C72.045425 120.949814,70.138474 119.992935,68.365204 119.035385C65.564087 117.522781,62.664764 116.219070,59.721649 115.012009" style="stroke:rgb(0.000000%,0.000000%,0.000000%); stroke-width: 0.498138;stroke-linecap: round;stroke-linejoin: round;stroke-miterlimit: 10.000000;fill: none;"></path>
  <path d="M114.988739 22.240692C114.988739 21.447998,114.673798 20.687851,114.113312 20.127380C113.552841 19.566895,112.792694 19.251953,112.000000 19.251953C111.207306 19.251953,110.447159 19.566895,109.886688 20.127380C109.326202 20.687851,109.011261 21.447998,109.011261 22.240692C109.011261 23.033386,109.326202 23.793533,109.886688 24.354004C110.447159 24.914490,111.207306 25.229431,112.000000 25.229431C112.792694 25.229431,113.552841 24.914490,114.113312 24.354004C114.673798 23.793533,114.988739 23.033386,114.988739 22.240692Z" style="fill: rgb(100.000000%,100.000000%,100.000000%);stroke: none;"></path>
  <path d="M78.526642 19.592392C89.917923 16.105789,101.440536 16.104980,112.000000 22.240692C117.393280 25.374527,121.654327 29.957642,125.946655 34.489075" style="stroke:rgb(0.000000%,0.000000%,0.000000%); stroke-width: 0.498138;stroke-linecap: round;stroke-linejoin: round;stroke-miterlimit: 10.000000;fill: none;"></path>
  <path d="M143.276550 160.407501C143.276550 159.614807,142.961609 158.854660,142.401123 158.294189C141.840652 157.733704,141.080505 157.418762,140.287811 157.418762C139.495117 157.418762,138.734970 157.733704,138.174500 158.294189C137.614014 158.854660,137.299072 159.614807,137.299072 160.407501C137.299072 161.200195,137.614014 161.960342,138.174500 162.520813C138.734970 163.081299,139.495117 163.396240,140.287811 163.396240C141.080505 163.396240,141.840652 163.081299,142.401123 162.520813C142.961609 161.960342,143.276550 161.200195,143.276550 160.407501Z" style="fill: rgb(100.000000%,100.000000%,100.000000%);stroke: none;"></path>
  <path d="M169.559891 146.348053C161.698486 154.568451,151.970276 160.045502,140.287811 160.407501C132.649796 160.644180,125.311035 158.284378,117.976135 156.089935" style="stroke:rgb(0.000000%,0.000000%,0.000000%); stroke-width: 0.498138;stroke-linecap: round;stroke-linejoin: round;stroke-miterlimit: 10.000000;fill: none;"></path>
  <path d="M24.156174 89.500275C24.156174 88.707581,23.841232 87.947433,23.280746 87.386963C22.720276 86.826477,21.960129 86.511536,21.167435 86.511536C20.374741 86.511536,19.614594 86.826477,19.054123 87.386963C18.493637 87.947433,18.178696 88.707581,18.178696 89.500275C18.178696 90.292969,18.493637 91.053116,19.054123 91.613586C19.614594 92.174072,20.374741 92.489014,21.167435 92.489014C21.960129 92.489014,22.720276 92.174072,23.280746 91.613586C23.841232 91.053116,24.156174 90.292969,24.156174 89.500275Z" style="fill: rgb(100.000000%,100.000000%,100.000000%);stroke: none;"></path>
  <path d="M6.877747 111.177917C8.827820 102.511536,13.530533 94.753281,21.167435 89.500275C27.388260 85.221313,34.502045 83.469330,41.902985 83.246124" style="stroke:rgb(0.000000%,0.000000%,0.000000%); stroke-width: 0.498138;stroke-linecap: round;stroke-linejoin: round;stroke-miterlimit: 10.000000;fill: none;"></path>
  <path d="M108.772354 100.372910C108.772354 99.580215,108.457413 98.820068,107.896927 98.259598C107.336456 97.699112,106.576309 97.384171,105.783615 97.384171C104.990921 97.384171,104.230774 97.699112,103.670303 98.259598C103.109818 98.820068,102.794876 99.580215,102.794876 100.372910C102.794876 101.165604,103.109818 101.925751,103.670303 102.486221C104.230774 103.046707,104.990921 103.361649,105.783615 103.361649C106.576309 103.361649,107.336456 103.046707,107.896927 102.486221C108.457413 101.925751,108.772354 101.165604,108.772354 100.372910Z" style="fill: rgb(100.000000%,100.000000%,100.000000%);stroke: none;"></path>
  <path d="M101.141586 98.785965C102.652878 99.421143,104.187698 99.987778,105.783615 100.372910C107.454788 100.776199,109.246719 101.204300,110.646622 101.934326" style="stroke:rgb(0.000000%,0.000000%,0.000000%); stroke-width: 0.498138;stroke-linecap: round;stroke-linejoin: round;stroke-miterlimit: 10.000000;fill: none;"></path>
  <path d="M84.277649 112.766800C84.277649 111.974106,83.962708 111.213959,83.402222 110.653488C82.841751 110.093002,82.081604 109.778061,81.288910 109.778061C80.496216 109.778061,79.736069 110.093002,79.175598 110.653488C78.615112 111.213959,78.300171 111.974106,78.300171 112.766800C78.300171 113.559494,78.615112 114.319641,79.175598 114.880112C79.736069 115.440598,80.496216 115.755539,81.288910 115.755539C82.081604 115.755539,82.841751 115.440598,83.402222 114.880112C83.962708 114.319641,84.277649 113.559494,84.277649 112.766800Z" style="fill: rgb(100.000000%,100.000000%,100.000000%);stroke: none;"></path>
  <path d="M87.421371 114.544098C85.340454 114.150146,83.288925 113.504730,81.288910 112.766800C79.824020 112.226303,78.300293 111.652313,76.799347 111.394409" style="stroke:rgb(0.000000%,0.000000%,0.000000%); stroke-width: 0.498138;stroke-linecap: round;stroke-linejoin: round;stroke-miterlimit: 10.000000;fill: none;"></path>
  <path d="M60.055710 168.245575C60.055710 167.452881,59.740768 166.692734,59.180283 166.132263C58.619812 165.571777,57.859665 165.256836,57.066971 165.256836C56.274277 165.256836,55.514130 165.571777,54.953659 166.132263C54.393173 166.692734,54.078232 167.452881,54.078232 168.245575C54.078232 169.038269,54.393173 169.798416,54.953659 170.358887C55.514130 170.919373,56.274277 171.234314,57.066971 171.234314C57.859665 171.234314,58.619812 170.919373,59.180283 170.358887C59.740768 169.798416,60.055710 169.038269,60.055710 168.245575Z" style="fill: rgb(100.000000%,100.000000%,100.000000%);stroke: none;"></path>
  <path d="M58.680222 152.016159C57.011322 157.336578,56.019562 162.705673,57.066971 168.245575C58.814697 177.489456,64.846329 184.170258,72.958298 188.306534" style="stroke:rgb(0.000000%,0.000000%,0.000000%); stroke-width: 0.498138;stroke-linecap: round;stroke-linejoin: round;stroke-miterlimit: 10.000000;fill: none;"></path>
  <path d="M108.848877 111.014206C108.848877 110.221512,108.533936 109.461365,107.973450 108.900894C107.412979 108.340408,106.652832 108.025467,105.860138 108.025467C105.067444 108.025467,104.307297 108.340408,103.746826 108.900894C103.186340 109.461365,102.871399 110.221512,102.871399 111.014206C102.871399 111.806900,103.186340 112.567047,103.746826 113.127518C104.307297 113.688004,105.067444 114.002945,105.860138 114.002945C106.652832 114.002945,107.412979 113.688004,107.973450 113.127518C108.533936 112.567047,108.848877 111.806900,108.848877 111.014206Z" style="fill: rgb(100.000000%,100.000000%,100.000000%);stroke: none;"></path>
  <path d="M113.526489 118.462112C111.176956 115.764908,108.701752 113.198807,105.860138 111.014206C104.878021 110.259171,103.837021 109.475677,103.048279 108.575195" style="stroke:rgb(0.000000%,0.000000%,0.000000%); stroke-width: 0.498138;stroke-linecap: round;stroke-linejoin: round;stroke-miterlimit: 10.000000;fill: none;"></path>
  <path d="M113.302292 91.410278C113.423981 87.804077,113.168121 84.197510,112.540405 80.649261" style="stroke:rgb(0.000000%,0.000000%,0.000000%); stroke-width: 0.498138;stroke-linecap: round;stroke-linejoin: round;stroke-miterlimit: 10.000000;fill: none;"></path>
  <path d="M115.022537 84.989594C114.265839 83.504227,113.437546 82.055695,112.540405 80.649261C112.180252 82.278137,111.741669 83.888077,111.226364 85.473450Z" style="stroke:rgb(0.000000%,0.000000%,0.000000%); stroke-width: 0.498138;fill: rgb(0.000000%,0.000000%,0.000000%);"></path>
  <path d="M113.302292 91.410278C113.423981 87.804077,113.168121 84.197510,112.540405 80.649261" style="stroke:rgb(0.000000%,0.000000%,0.000000%); stroke-width: 0.498138;stroke-linecap: round;stroke-linejoin: round;stroke-miterlimit: 10.000000;fill: none;"></path>
  <path d="M114.079773 83.224228C113.591812 82.351517,113.078491 81.492828,112.540405 80.649261C112.324371 81.626221,112.080154 82.596390,111.808075 83.558517Z" style="stroke:rgb(0.000000%,0.000000%,0.000000%); stroke-width: 0.498138;fill: rgb(0.000000%,0.000000%,0.000000%);"></path>
  <path d="M139.329422 76.793152C132.058594 77.419006,124.767822 77.752960,117.472244 77.911850" style="stroke:rgb(0.000000%,0.000000%,0.000000%); stroke-width: 0.498138;stroke-linecap: round;stroke-linejoin: round;stroke-miterlimit: 10.000000;fill: none;"></path>
  <path d="M120.214096 76.694412C119.301605 77.103409,118.387589 77.509125,117.472244 77.911850C118.404251 78.274353,119.337433 78.633774,120.271866 78.989822Z" style="stroke:rgb(0.000000%,0.000000%,0.000000%); stroke-width: 0.498138;fill: rgb(0.000000%,0.000000%,0.000000%);"></path>
  <path d="M82.300308 103.082886C81.733398 105.624207,81.454224 108.214859,81.342850 110.815292" style="stroke:rgb(0.000000%,0.000000%,0.000000%); stroke-width: 0.498138;stroke-linecap: round;stroke-linejoin: round;stroke-miterlimit: 10.000000;fill: none;"></path>
  <path d="M80.391296 107.970169C80.680237 108.927032,80.999802 109.875244,81.342850 110.815292C81.764999 109.908020,82.209534 109.011566,82.681854 108.130661Z" style="stroke:rgb(0.000000%,0.000000%,0.000000%); stroke-width: 0.498138;fill: rgb(0.000000%,0.000000%,0.000000%);"></path>
  <path d="M79.004120 120.447464C76.595261 122.379822,73.501434 121.542343,70.544418 120.149506" style="stroke:rgb(0.000000%,0.000000%,0.000000%); stroke-width: 0.498138;stroke-linecap: round;stroke-linejoin: round;stroke-miterlimit: 10.000000;fill: none;"></path>
  <path d="M73.543457 120.074997C72.585373 120.191208,71.569153 120.198212,70.544418 120.149506C71.234558 120.908539,71.958084 121.622208,72.717712 122.217514Z" style="stroke:rgb(0.000000%,0.000000%,0.000000%); stroke-width: 0.498138;fill: rgb(0.000000%,0.000000%,0.000000%);"></path>
  <path d="M140.080994 46.427368C149.859528 51.614197,161.734436 51.032318,171.971893 54.621674" style="stroke:rgb(0.000000%,0.000000%,0.000000%); stroke-width: 0.498138;stroke-linecap: round;stroke-linejoin: round;stroke-miterlimit: 10.000000;fill: none;"></path>
  <path d="M168.984344 54.893219C169.979645 54.770294,170.975433 54.677017,171.971893 54.621674C171.228149 53.956192,170.458099 53.318024,169.667389 52.701111Z" style="stroke:rgb(0.000000%,0.000000%,0.000000%); stroke-width: 0.498138;fill: rgb(0.000000%,0.000000%,0.000000%);"></path>
  <path d="M95.687668 152.764496C84.504990 154.082031,75.300735 161.444016,65.023544 165.740433" style="stroke:rgb(0.000000%,0.000000%,0.000000%); stroke-width: 0.498138;stroke-linecap: round;stroke-linejoin: round;stroke-miterlimit: 10.000000;fill: none;"></path>
  <path d="M67.086868 163.562439C66.413452 164.304413,65.727188 165.032150,65.023544 165.740433C66.021927 165.737167,67.021790 165.707855,68.022598 165.659393Z" style="stroke:rgb(0.000000%,0.000000%,0.000000%); stroke-width: 0.498138;fill: rgb(0.000000%,0.000000%,0.000000%);"></path>
  <path d="M64.361496 86.164642C70.221390 87.624664,76.003632 89.369736,81.733948 91.274521" style="stroke:rgb(0.000000%,0.000000%,0.000000%); stroke-width: 0.498138;stroke-linecap: round;stroke-linejoin: round;stroke-miterlimit: 10.000000;fill: none;"></path>
  <path d="M78.742828 91.504074C79.739426 91.422592,80.736511 91.346252,81.733948 91.274521C80.977936 90.619934,80.218948 89.968857,79.456635 89.321762Z" style="stroke:rgb(0.000000%,0.000000%,0.000000%); stroke-width: 0.498138;fill: rgb(0.000000%,0.000000%,0.000000%);"></path>
  <path d="M113.157440 105.307312C113.330292 108.009079,110.834610 109.413666,108.006760 110.368851" style="stroke:rgb(0.000000%,0.000000%,0.000000%); stroke-width: 0.498138;stroke-linecap: round;stroke-linejoin: round;stroke-miterlimit: 10.000000;fill: none;"></path>
  <path d="M110.084030 108.204407C109.521301 108.958008,108.793381 109.681076,108.006760 110.368851C109.049301 110.438766,110.075317 110.442230,111.006119 110.307251Z" style="stroke:rgb(0.000000%,0.000000%,0.000000%); stroke-width: 0.498138;fill: rgb(0.000000%,0.000000%,0.000000%);"></path>
  <path d="M72.446426 111.918594C70.417053 112.987915,69.434418 115.099075,68.793152 117.342377" style="stroke:rgb(0.000000%,0.000000%,0.000000%); stroke-width: 0.498138;stroke-linecap: round;stroke-linejoin: round;stroke-miterlimit: 10.000000;fill: none;"></path>
  <path d="M68.737839 114.342865C68.630417 115.312485,68.676758 116.328247,68.793152 117.342377C69.427948 116.542999,70.113449 115.791977,70.875046 115.182312Z" style="stroke:rgb(0.000000%,0.000000%,0.000000%); stroke-width: 0.498138;fill: rgb(0.000000%,0.000000%,0.000000%);"></path>
  <path d="M64.356308 136.078766C61.698471 144.631134,57.287277 152.995438,56.701706 161.671967" style="stroke:rgb(0.000000%,0.000000%,0.000000%); stroke-width: 0.498138;stroke-linecap: round;stroke-linejoin: round;stroke-miterlimit: 10.000000;fill: none;"></path>
  <path d="M55.880081 158.786835C56.111099 159.762375,56.382263 160.724930,56.701706 161.671967C57.145508 160.776443,57.634384 159.904068,58.160873 159.050903Z" style="stroke:rgb(0.000000%,0.000000%,0.000000%); stroke-width: 0.498138;fill: rgb(0.000000%,0.000000%,0.000000%);"></path>
  <path d="M101.750015 105.434235C101.790329 103.604523,103.086594 102.255737,104.612350 101.155289" style="stroke:rgb(0.000000%,0.000000%,0.000000%); stroke-width: 0.498138;stroke-linecap: round;stroke-linejoin: round;stroke-miterlimit: 10.000000;fill: none;"></path>
  <path d="M103.429260 103.912140C103.612457 102.969925,104.065399 102.040939,104.612350 101.155289C103.599335 101.394760,102.622162 101.731369,101.826385 102.268066Z" style="stroke:rgb(0.000000%,0.000000%,0.000000%); stroke-width: 0.498138;fill: rgb(0.000000%,0.000000%,0.000000%);"></path>
  <path d="M102.730804 60.238144L108.712097 60.238144L108.712097 52.817749L102.730804 52.817749Z" style="fill: rgb(100.000000%,100.000000%,100.000000%);stroke: none;"></path>
  <path d="M102.730804 62.238144L108.712097 62.238144L108.712097 54.817749L102.730804 54.817749Z" style="fill: rgb(100.000000%,100.000000%,100.000000%);stroke: none;"></path>
  <g transform="translate(103.230804 60.738144)" style="fill: rgb(0.000000%,0.000000%,0.000000%);">
    <use xlink:href="#GLYPHcmr10_49"></use>
  </g>
  <path d="M163.705673 17.283188L169.686966 17.283188L169.686966 9.862793L163.705673 9.862793Z" style="fill: rgb(100.000000%,100.000000%,100.000000%);stroke: none;"></path>
  <path d="M163.705673 19.283188L169.686966 19.283188L169.686966 11.862793L163.705673 11.862793Z" style="fill: rgb(100.000000%,100.000000%,100.000000%);stroke: none;"></path>
  <g transform="translate(164.205673 17.783188)" style="fill: rgb(0.000000%,0.000000%,0.000000%);">
    <use xlink:href="#GLYPHcmr10_50"></use>
  </g>
  <path d="M91.448715 84.241501L97.430008 84.241501L97.430008 76.821106L91.448715 76.821106Z" style="fill: rgb(100.000000%,100.000000%,100.000000%);stroke: none;"></path>
  <path d="M91.448715 86.241501L97.430008 86.241501L97.430008 78.821106L91.448715 78.821106Z" style="fill: rgb(100.000000%,100.000000%,100.000000%);stroke: none;"></path>
  <g transform="translate(91.948715 84.741501)" style="fill: rgb(0.000000%,0.000000%,0.000000%);">
    <use xlink:href="#GLYPHcmr10_51"></use>
  </g>
  <path d="M47.824692 114.278732L53.805984 114.278732L53.805984 106.858337L47.824692 106.858337Z" style="fill: rgb(100.000000%,100.000000%,100.000000%);stroke: none;"></path>
  <path d="M47.824692 116.278732L53.805984 116.278732L53.805984 108.858337L47.824692 108.858337Z" style="fill: rgb(100.000000%,100.000000%,100.000000%);stroke: none;"></path>
  <g transform="translate(48.324692 114.778732)" style="fill: rgb(0.000000%,0.000000%,0.000000%);">
    <use xlink:href="#GLYPHcmr10_52"></use>
  </g>
  <path d="M42.850632 40.569046L48.831924 40.569046L48.831924 33.148651L42.850632 33.148651Z" style="fill: rgb(100.000000%,100.000000%,100.000000%);stroke: none;"></path>
  <path d="M42.850632 42.569046L48.831924 42.569046L48.831924 35.148651L42.850632 35.148651Z" style="fill: rgb(100.000000%,100.000000%,100.000000%);stroke: none;"></path>
  <g transform="translate(43.350632 41.069046)" style="fill: rgb(0.000000%,0.000000%,0.000000%);">
    <use xlink:href="#GLYPHcmr10_53"></use>
  </g>
  <path d="M184.640594 118.538681L190.621887 118.538681L190.621887 111.118286L184.640594 111.118286Z" style="fill: rgb(100.000000%,100.000000%,100.000000%);stroke: none;"></path>
  <path d="M184.640594 120.538681L190.621887 120.538681L190.621887 113.118286L184.640594 113.118286Z" style="fill: rgb(100.000000%,100.000000%,100.000000%);stroke: none;"></path>
  <g transform="translate(185.140594 119.038681)" style="fill: rgb(0.000000%,0.000000%,0.000000%);">
    <use xlink:href="#GLYPHcmr10_54"></use>
  </g>
  <path d="M6.113251 141.014587L12.094543 141.014587L12.094543 133.594193L6.113251 133.594193Z" style="fill: rgb(100.000000%,100.000000%,100.000000%);stroke: none;"></path>
  <path d="M6.113251 143.014587L12.094543 143.014587L12.094543 135.594193L6.113251 135.594193Z" style="fill: rgb(100.000000%,100.000000%,100.000000%);stroke: none;"></path>
  <g transform="translate(6.613251 141.514587)" style="fill: rgb(0.000000%,0.000000%,0.000000%);">
    <use xlink:href="#GLYPHcmr10_55"></use>
  </g>
  <path d="M93.650024 99.498016L99.631317 99.498016L99.631317 92.077621L93.650024 92.077621Z" style="fill: rgb(100.000000%,100.000000%,100.000000%);stroke: none;"></path>
  <path d="M93.650024 101.498016L99.631317 101.498016L99.631317 94.077621L93.650024 94.077621Z" style="fill: rgb(100.000000%,100.000000%,100.000000%);stroke: none;"></path>
  <g transform="translate(94.150024 99.998016)" style="fill: rgb(0.000000%,0.000000%,0.000000%);">
    <use xlink:href="#GLYPHcmr10_56"></use>
  </g>
  <path d="M90.739594 117.522903L96.720886 117.522903L96.720886 110.102509L90.739594 110.102509Z" style="fill: rgb(100.000000%,100.000000%,100.000000%);stroke: none;"></path>
  <path d="M90.739594 119.522903L96.720886 119.522903L96.720886 112.102509L90.739594 112.102509Z" style="fill: rgb(100.000000%,100.000000%,100.000000%);stroke: none;"></path>
  <g transform="translate(91.239594 118.022903)" style="fill: rgb(0.000000%,0.000000%,0.000000%);">
    <use xlink:href="#GLYPHcmr10_57"></use>
  </g>
  <path d="M95.850250 195.810532L106.812958 195.810532L106.812958 188.390137L95.850250 188.390137Z" style="fill: rgb(100.000000%,100.000000%,100.000000%);stroke: none;"></path>
  <path d="M95.850250 197.810532L106.812958 197.810532L106.812958 190.390137L95.850250 190.390137Z" style="fill: rgb(100.000000%,100.000000%,100.000000%);stroke: none;"></path>
  <g transform="translate(96.350250 196.310532)" style="fill: rgb(0.000000%,0.000000%,0.000000%);">
    <use xlink:href="#GLYPHcmr10_49"></use>
    <use xlink:href="#GLYPHcmr10_48" x="5.000095"></use>
  </g>
  <path d="M114.957443 129.406921L125.920151 129.406921L125.920151 121.986526L114.957443 121.986526Z" style="fill: rgb(100.000000%,100.000000%,100.000000%);stroke: none;"></path>
  <path d="M114.957443 131.406921L125.920151 131.406921L125.920151 123.986526L114.957443 123.986526Z" style="fill: rgb(100.000000%,100.000000%,100.000000%);stroke: none;"></path>
  <g transform="translate(115.457443 129.906921)" style="fill: rgb(0.000000%,0.000000%,0.000000%);">
    <use xlink:href="#GLYPHcmr10_49"></use>
    <use xlink:href="#GLYPHcmr10_49" x="5.000095"></use>
  </g>
</svg>
