<?xml version="1.0"?>
<!-- Created by MetaPost 1.999 on 2021.07.06:0000 -->
<svg version="1.1" xmlns="http://www.w3.org/2000/svg" xmlns:xlink="http://www.w3.org/1999/xlink" width="201.098755" height="200.058273" viewBox="0 0 201.098755 200.058273">
<!-- Original BoundingBox: -106.441162 -16.820740 94.657593 183.237534 -->
  <defs>
    <g transform="scale(0.009963,0.009963)" id="GLYPHcmr10_48">
      <path style="fill-rule: evenodd;" d="M460.000000 -320.000000C460.000000 -400.000000,455.000000 -480.000000,420.000000 -554.000000C374.000000 -650.000000,292.000000 -666.000000,250.000000 -666.000000C190.000000 -666.000000,117.000000 -640.000000,76.000000 -547.000000C44.000000 -478.000000,39.000000 -400.000000,39.000000 -320.000000C39.000000 -245.000000,43.000000 -155.000000,84.000000 -79.000000C127.000000 2.000000,200.000000 22.000000,249.000000 22.000000C303.000000 22.000000,379.000000 1.000000,423.000000 -94.000000C455.000000 -163.000000,460.000000 -241.000000,460.000000 -320.000000M249.000000 -0.000000C210.000000 -0.000000,151.000000 -25.000000,133.000000 -121.000000C122.000000 -181.000000,122.000000 -273.000000,122.000000 -332.000000C122.000000 -396.000000,122.000000 -462.000000,130.000000 -516.000000C149.000000 -635.000000,224.000000 -644.000000,249.000000 -644.000000C282.000000 -644.000000,348.000000 -626.000000,367.000000 -527.000000C377.000000 -471.000000,377.000000 -395.000000,377.000000 -332.000000C377.000000 -257.000000,377.000000 -189.000000,366.000000 -125.000000C351.000000 -30.000000,294.000000 -0.000000,249.000000 -0.000000"></path>
    </g>
    <g transform="scale(0.009963,0.009963)" id="GLYPHcmr10_49">
      <path style="fill-rule: evenodd;" d="M294.000000 -640.000000C294.000000 -664.000000,294.000000 -666.000000,271.000000 -666.000000C209.000000 -602.000000,121.000000 -602.000000,89.000000 -602.000000L89.000000 -571.000000C109.000000 -571.000000,168.000000 -571.000000,220.000000 -597.000000L220.000000 -79.000000C220.000000 -43.000000,217.000000 -31.000000,127.000000 -31.000000L95.000000 -31.000000L95.000000 -0.000000L257.000000 -0.000000L130.000000 -3.000000L217.000000 -3.000000L257.000000 -3.000000L297.000000 -3.000000L384.000000 -3.000000L419.000000 -0.000000L419.000000 -31.000000L387.000000 -31.000000C297.000000 -31.000000,294.000000 -42.000000,294.000000 -79.000000"></path>
    </g>
    <g transform="scale(0.009963,0.009963)" id="GLYPHcmr10_50">
      <path style="fill-rule: evenodd;" d="M127.000000 -77.000000L233.000000 -180.000000C389.000000 -318.000000,449.000000 -372.000000,449.000000 -472.000000C449.000000 -586.000000,359.000000 -666.000000,237.000000 -666.000000C124.000000 -666.000000,50.000000 -574.000000,50.000000 -485.000000C50.000000 -429.000000,100.000000 -429.000000,103.000000 -429.000000C120.000000 -429.000000,155.000000 -441.000000,155.000000 -482.000000C155.000000 -508.000000,137.000000 -534.000000,102.000000 -534.000000C94.000000 -534.000000,92.000000 -534.000000,89.000000 -533.000000C112.000000 -598.000000,166.000000 -635.000000,224.000000 -635.000000C315.000000 -635.000000,358.000000 -554.000000,358.000000 -472.000000C358.000000 -392.000000,308.000000 -313.000000,253.000000 -251.000000L61.000000 -37.000000C50.000000 -26.000000,50.000000 -24.000000,50.000000 -0.000000L421.000000 -0.000000L449.000000 -174.000000L424.000000 -174.000000C419.000000 -144.000000,412.000000 -100.000000,402.000000 -85.000000C395.000000 -77.000000,329.000000 -77.000000,307.000000 -77.000000"></path>
    </g>
    <g transform="scale(0.009963,0.009963)" id="GLYPHcmr10_51">
      <path style="fill-rule: evenodd;" d="M290.000000 -352.000000C372.000000 -379.000000,430.000000 -449.000000,430.000000 -528.000000C430.000000 -610.000000,342.000000 -666.000000,246.000000 -666.000000C145.000000 -666.000000,69.000000 -606.000000,69.000000 -530.000000C69.000000 -497.000000,91.000000 -478.000000,120.000000 -478.000000C151.000000 -478.000000,171.000000 -500.000000,171.000000 -529.000000C171.000000 -579.000000,124.000000 -579.000000,109.000000 -579.000000C140.000000 -628.000000,206.000000 -641.000000,242.000000 -641.000000C283.000000 -641.000000,338.000000 -619.000000,338.000000 -529.000000C338.000000 -517.000000,336.000000 -459.000000,310.000000 -415.000000C280.000000 -367.000000,246.000000 -364.000000,221.000000 -363.000000C213.000000 -362.000000,189.000000 -360.000000,182.000000 -360.000000C174.000000 -359.000000,167.000000 -358.000000,167.000000 -348.000000C167.000000 -337.000000,174.000000 -337.000000,191.000000 -337.000000L235.000000 -337.000000C317.000000 -337.000000,354.000000 -269.000000,354.000000 -171.000000C354.000000 -35.000000,285.000000 -6.000000,241.000000 -6.000000C198.000000 -6.000000,123.000000 -23.000000,88.000000 -82.000000C123.000000 -77.000000,154.000000 -99.000000,154.000000 -137.000000C154.000000 -173.000000,127.000000 -193.000000,98.000000 -193.000000C74.000000 -193.000000,42.000000 -179.000000,42.000000 -135.000000C42.000000 -44.000000,135.000000 22.000000,244.000000 22.000000C366.000000 22.000000,457.000000 -69.000000,457.000000 -171.000000C457.000000 -253.000000,394.000000 -331.000000,290.000000 -352.000000"></path>
    </g>
    <g transform="scale(0.009963,0.009963)" id="GLYPHcmr10_52">
      <path style="fill-rule: evenodd;" d="M294.000000 -165.000000L294.000000 -78.000000C294.000000 -42.000000,292.000000 -31.000000,218.000000 -31.000000L197.000000 -31.000000L197.000000 -0.000000L332.000000 -0.000000L238.000000 -3.000000L290.000000 -3.000000L332.000000 -3.000000L374.000000 -3.000000L427.000000 -3.000000L468.000000 -0.000000L468.000000 -31.000000L447.000000 -31.000000C373.000000 -31.000000,371.000000 -42.000000,371.000000 -78.000000L371.000000 -165.000000L471.000000 -165.000000L471.000000 -196.000000L371.000000 -196.000000L371.000000 -651.000000C371.000000 -671.000000,371.000000 -677.000000,355.000000 -677.000000C346.000000 -677.000000,343.000000 -677.000000,335.000000 -665.000000L28.000000 -196.000000L28.000000 -165.000000M300.000000 -196.000000L56.000000 -196.000000L300.000000 -569.000000"></path>
    </g>
    <g transform="scale(0.009963,0.009963)" id="GLYPHcmr10_53">
      <path style="fill-rule: evenodd;" d="M449.000000 -201.000000C449.000000 -320.000000,367.000000 -420.000000,259.000000 -420.000000C211.000000 -420.000000,168.000000 -404.000000,132.000000 -369.000000L132.000000 -564.000000C152.000000 -558.000000,185.000000 -551.000000,217.000000 -551.000000C340.000000 -551.000000,410.000000 -642.000000,410.000000 -655.000000C410.000000 -661.000000,407.000000 -666.000000,400.000000 -666.000000C399.000000 -666.000000,397.000000 -666.000000,392.000000 -663.000000C372.000000 -654.000000,323.000000 -634.000000,256.000000 -634.000000C216.000000 -634.000000,170.000000 -641.000000,123.000000 -662.000000C115.000000 -665.000000,113.000000 -665.000000,111.000000 -665.000000C101.000000 -665.000000,101.000000 -657.000000,101.000000 -641.000000L101.000000 -345.000000C101.000000 -327.000000,101.000000 -319.000000,115.000000 -319.000000C122.000000 -319.000000,124.000000 -322.000000,128.000000 -328.000000C139.000000 -344.000000,176.000000 -398.000000,257.000000 -398.000000C309.000000 -398.000000,334.000000 -352.000000,342.000000 -334.000000C358.000000 -297.000000,360.000000 -258.000000,360.000000 -208.000000C360.000000 -173.000000,360.000000 -113.000000,336.000000 -71.000000C312.000000 -32.000000,275.000000 -6.000000,229.000000 -6.000000C156.000000 -6.000000,99.000000 -59.000000,82.000000 -118.000000C85.000000 -117.000000,88.000000 -116.000000,99.000000 -116.000000C132.000000 -116.000000,149.000000 -141.000000,149.000000 -165.000000C149.000000 -189.000000,132.000000 -214.000000,99.000000 -214.000000C85.000000 -214.000000,50.000000 -207.000000,50.000000 -161.000000C50.000000 -75.000000,119.000000 22.000000,231.000000 22.000000C347.000000 22.000000,449.000000 -74.000000,449.000000 -201.000000"></path>
    </g>
    <g transform="scale(0.009963,0.009963)" id="GLYPHcmr10_54">
      <path style="fill-rule: evenodd;" d="M132.000000 -328.000000L132.000000 -352.000000C132.000000 -605.000000,256.000000 -641.000000,307.000000 -641.000000C331.000000 -641.000000,373.000000 -635.000000,395.000000 -601.000000C380.000000 -601.000000,340.000000 -601.000000,340.000000 -556.000000C340.000000 -525.000000,364.000000 -510.000000,386.000000 -510.000000C402.000000 -510.000000,432.000000 -519.000000,432.000000 -558.000000C432.000000 -618.000000,388.000000 -666.000000,305.000000 -666.000000C177.000000 -666.000000,42.000000 -537.000000,42.000000 -316.000000C42.000000 -49.000000,158.000000 22.000000,251.000000 22.000000C362.000000 22.000000,457.000000 -72.000000,457.000000 -204.000000C457.000000 -331.000000,368.000000 -427.000000,257.000000 -427.000000C189.000000 -427.000000,152.000000 -376.000000,132.000000 -328.000000M251.000000 -6.000000C188.000000 -6.000000,158.000000 -66.000000,152.000000 -81.000000C134.000000 -128.000000,134.000000 -208.000000,134.000000 -226.000000C134.000000 -304.000000,166.000000 -404.000000,256.000000 -404.000000C272.000000 -404.000000,318.000000 -404.000000,349.000000 -342.000000C367.000000 -305.000000,367.000000 -254.000000,367.000000 -205.000000C367.000000 -157.000000,367.000000 -107.000000,350.000000 -71.000000C320.000000 -11.000000,274.000000 -6.000000,251.000000 -6.000000"></path>
    </g>
    <g transform="scale(0.009963,0.009963)" id="GLYPHcmr10_55">
      <path style="fill-rule: evenodd;" d="M476.000000 -609.000000C485.000000 -621.000000,485.000000 -623.000000,485.000000 -644.000000L242.000000 -644.000000C120.000000 -644.000000,118.000000 -657.000000,114.000000 -676.000000L89.000000 -676.000000L56.000000 -470.000000L81.000000 -470.000000C84.000000 -486.000000,93.000000 -549.000000,106.000000 -561.000000C113.000000 -567.000000,191.000000 -567.000000,204.000000 -567.000000L411.000000 -567.000000C400.000000 -551.000000,321.000000 -442.000000,299.000000 -409.000000C209.000000 -274.000000,176.000000 -135.000000,176.000000 -33.000000C176.000000 -23.000000,176.000000 22.000000,222.000000 22.000000C268.000000 22.000000,268.000000 -23.000000,268.000000 -33.000000L268.000000 -84.000000C268.000000 -139.000000,271.000000 -194.000000,279.000000 -248.000000C283.000000 -271.000000,297.000000 -357.000000,341.000000 -419.000000"></path>
    </g>
    <g transform="scale(0.009963,0.009963)" id="GLYPHcmr10_56">
      <path style="fill-rule: evenodd;" d="M163.000000 -457.000000C117.000000 -487.000000,113.000000 -521.000000,113.000000 -538.000000C113.000000 -599.000000,178.000000 -641.000000,249.000000 -641.000000C322.000000 -641.000000,386.000000 -589.000000,386.000000 -517.000000C386.000000 -460.000000,347.000000 -412.000000,287.000000 -377.000000M309.000000 -362.000000C381.000000 -399.000000,430.000000 -451.000000,430.000000 -517.000000C430.000000 -609.000000,341.000000 -666.000000,250.000000 -666.000000C150.000000 -666.000000,69.000000 -592.000000,69.000000 -499.000000C69.000000 -481.000000,71.000000 -436.000000,113.000000 -389.000000C124.000000 -377.000000,161.000000 -352.000000,186.000000 -335.000000C128.000000 -306.000000,42.000000 -250.000000,42.000000 -151.000000C42.000000 -45.000000,144.000000 22.000000,249.000000 22.000000C362.000000 22.000000,457.000000 -61.000000,457.000000 -168.000000C457.000000 -204.000000,446.000000 -249.000000,408.000000 -291.000000C389.000000 -312.000000,373.000000 -322.000000,309.000000 -362.000000M209.000000 -320.000000L332.000000 -242.000000C360.000000 -223.000000,407.000000 -193.000000,407.000000 -132.000000C407.000000 -58.000000,332.000000 -6.000000,250.000000 -6.000000C164.000000 -6.000000,92.000000 -68.000000,92.000000 -151.000000C92.000000 -209.000000,124.000000 -273.000000,209.000000 -320.000000"></path>
    </g>
    <g transform="scale(0.009963,0.009963)" id="GLYPHcmr10_57">
      <path style="fill-rule: evenodd;" d="M367.000000 -318.000000L367.000000 -286.000000C367.000000 -52.000000,263.000000 -6.000000,205.000000 -6.000000C188.000000 -6.000000,134.000000 -8.000000,107.000000 -42.000000C151.000000 -42.000000,159.000000 -71.000000,159.000000 -88.000000C159.000000 -119.000000,135.000000 -134.000000,113.000000 -134.000000C97.000000 -134.000000,67.000000 -125.000000,67.000000 -86.000000C67.000000 -19.000000,121.000000 22.000000,206.000000 22.000000C335.000000 22.000000,457.000000 -114.000000,457.000000 -329.000000C457.000000 -598.000000,342.000000 -666.000000,253.000000 -666.000000C198.000000 -666.000000,149.000000 -648.000000,106.000000 -603.000000C65.000000 -558.000000,42.000000 -516.000000,42.000000 -441.000000C42.000000 -316.000000,130.000000 -218.000000,242.000000 -218.000000C303.000000 -218.000000,344.000000 -260.000000,367.000000 -318.000000M243.000000 -241.000000C227.000000 -241.000000,181.000000 -241.000000,150.000000 -304.000000C132.000000 -341.000000,132.000000 -391.000000,132.000000 -440.000000C132.000000 -494.000000,132.000000 -541.000000,153.000000 -578.000000C180.000000 -628.000000,218.000000 -641.000000,253.000000 -641.000000C299.000000 -641.000000,332.000000 -607.000000,349.000000 -562.000000C361.000000 -530.000000,365.000000 -467.000000,365.000000 -421.000000C365.000000 -338.000000,331.000000 -241.000000,243.000000 -241.000000"></path>
    </g>
  </defs>
  <path d="M150.948242 193.878647C150.948242 193.085953,150.633301 192.325806,150.072815 191.765335C149.512344 191.204849,148.752197 190.889908,147.959503 190.889908C147.166809 190.889908,146.406662 191.204849,145.846191 191.765335C145.285706 192.325806,144.970764 193.085953,144.970764 193.878647C144.970764 194.671341,145.285706 195.431488,145.846191 195.991959C146.406662 196.552444,147.166809 196.867386,147.959503 196.867386C148.752197 196.867386,149.512344 196.552444,150.072815 195.991959C150.633301 195.431488,150.948242 194.671341,150.948242 193.878647Z" style="fill: rgb(100.000000%,100.000000%,100.000000%);stroke: none;"></path>
  <path d="M164.196930 176.484741C164.196930 175.692047,163.881989 174.931900,163.321503 174.371429C162.761032 173.810944,162.000885 173.496002,161.208191 173.496002C160.415497 173.496002,159.655350 173.810944,159.094879 174.371429C158.534393 174.931900,158.219452 175.692047,158.219452 176.484741C158.219452 177.277435,158.534393 178.037582,159.094879 178.598053C159.655350 179.158539,160.415497 179.473480,161.208191 179.473480C162.000885 179.473480,162.761032 179.158539,163.321503 178.598053C163.881989 178.037582,164.196930 177.277435,164.196930 176.484741Z" style="fill: rgb(100.000000%,100.000000%,100.000000%);stroke: none;"></path>
  <path d="M97.505829 173.620407C97.505829 172.827713,97.190887 172.067566,96.630402 171.507095C96.069931 170.946609,95.309784 170.631668,94.517090 170.631668C93.724396 170.631668,92.964249 170.946609,92.403778 171.507095C91.843292 172.067566,91.528351 172.827713,91.528351 173.620407C91.528351 174.413101,91.843292 175.173248,92.403778 175.733719C92.964249 176.294205,93.724396 176.609146,94.517090 176.609146C95.309784 176.609146,96.069931 176.294205,96.630402 175.733719C97.190887 175.173248,97.505829 174.413101,97.505829 173.620407Z" style="fill: rgb(100.000000%,100.000000%,100.000000%);stroke: none;"></path>
  <path d="M125.922470 196.832001C125.922470 196.039307,125.607529 195.279160,125.047043 194.718689C124.486572 194.158203,123.726425 193.843262,122.933731 193.843262C122.141037 193.843262,121.380890 194.158203,120.820419 194.718689C120.259933 195.279160,119.944992 196.039307,119.944992 196.832001C119.944992 197.624695,120.259933 198.384842,120.820419 198.945312C121.380890 199.505798,122.141037 199.820740,122.933731 199.820740C123.726425 199.820740,124.486572 199.505798,125.047043 198.945312C125.607529 198.384842,125.922470 197.624695,125.922470 196.832001Z" style="fill: rgb(100.000000%,100.000000%,100.000000%);stroke: none;"></path>
  <path d="M101.002655 138.455917C101.002655 137.663223,100.687714 136.903076,100.127228 136.342606C99.566757 135.782120,98.806610 135.467178,98.013916 135.467178C97.221222 135.467178,96.461075 135.782120,95.900604 136.342606C95.340118 136.903076,95.025177 137.663223,95.025177 138.455917C95.025177 139.248611,95.340118 140.008759,95.900604 140.569229C96.461075 141.129715,97.221222 141.444656,98.013916 141.444656C98.806610 141.444656,99.566757 141.129715,100.127228 140.569229C100.687714 140.008759,101.002655 139.248611,101.002655 138.455917Z" style="fill: rgb(100.000000%,100.000000%,100.000000%);stroke: none;"></path>
  <path d="M92.803177 158.078110C92.803177 157.285416,92.488235 156.525269,91.927750 155.964798C91.367279 155.404312,90.607132 155.089371,89.814438 155.089371C89.021744 155.089371,88.261597 155.404312,87.701126 155.964798C87.140640 156.525269,86.825699 157.285416,86.825699 158.078110C86.825699 158.870804,87.140640 159.630951,87.701126 160.191422C88.261597 160.751907,89.021744 161.066849,89.814438 161.066849C90.607132 161.066849,91.367279 160.751907,91.927750 160.191422C92.488235 159.630951,92.803177 158.870804,92.803177 158.078110Z" style="fill: rgb(100.000000%,100.000000%,100.000000%);stroke: none;"></path>
  <path d="M111.263260 124.368362C111.263260 123.575668,110.948318 122.815521,110.387833 122.255051C109.827362 121.694565,109.067215 121.379623,108.274521 121.379623C107.481827 121.379623,106.721680 121.694565,106.161209 122.255051C105.600723 122.815521,105.285782 123.575668,105.285782 124.368362C105.285782 125.161057,105.600723 125.921204,106.161209 126.481674C106.721680 127.042160,107.481827 127.357101,108.274521 127.357101C109.067215 127.357101,109.827362 127.042160,110.387833 126.481674C110.948318 125.921204,111.263260 125.161057,111.263260 124.368362Z" style="fill: rgb(100.000000%,100.000000%,100.000000%);stroke: none;"></path>
  <path d="M105.500519 133.522110C105.500519 132.729416,105.185577 131.969269,104.625092 131.408798C104.064621 130.848312,103.304474 130.533371,102.511780 130.533371C101.719086 130.533371,100.958939 130.848312,100.398468 131.408798C99.837982 131.969269,99.523041 132.729416,99.523041 133.522110C99.523041 134.314804,99.837982 135.074951,100.398468 135.635422C100.958939 136.195908,101.719086 136.510849,102.511780 136.510849C103.304474 136.510849,104.064621 136.195908,104.625092 135.635422C105.185577 135.074951,105.500519 134.314804,105.500519 133.522110Z" style="fill: rgb(100.000000%,100.000000%,100.000000%);stroke: none;"></path>
  <path d="M122.176224 122.450699C122.176224 121.658005,121.861282 120.897858,121.300797 120.337387C120.740326 119.776901,119.980179 119.461960,119.187485 119.461960C118.394791 119.461960,117.634644 119.776901,117.074173 120.337387C116.513687 120.897858,116.198746 121.658005,116.198746 122.450699C116.198746 123.243393,116.513687 124.003540,117.074173 124.564011C117.634644 125.124496,118.394791 125.439438,119.187485 125.439438C119.980179 125.439438,120.740326 125.124496,121.300797 124.564011C121.861282 124.003540,122.176224 123.243393,122.176224 122.450699Z" style="fill: rgb(100.000000%,100.000000%,100.000000%);stroke: none;"></path>
  <path d="M114.086441 120.493408C114.086441 119.700714,113.771500 118.940567,113.211014 118.380096C112.650543 117.819611,111.890396 117.504669,111.097702 117.504669C110.305008 117.504669,109.544861 117.819611,108.984390 118.380096C108.423904 118.940567,108.108963 119.700714,108.108963 120.493408C108.108963 121.286102,108.423904 122.046249,108.984390 122.606720C109.544861 123.167206,110.305008 123.482147,111.097702 123.482147C111.890396 123.482147,112.650543 123.167206,113.211014 122.606720C113.771500 122.046249,114.086441 121.286102,114.086441 120.493408Z" style="fill: rgb(100.000000%,100.000000%,100.000000%);stroke: none;"></path>
  <path d="M122.910507 138.084778C122.910507 137.292084,122.595566 136.531937,122.035080 135.971466C121.474609 135.410980,120.714462 135.096039,119.921768 135.096039C119.129074 135.096039,118.368927 135.410980,117.808456 135.971466C117.247971 136.531937,116.933029 137.292084,116.933029 138.084778C116.933029 138.877472,117.247971 139.637619,117.808456 140.198090C118.368927 140.758575,119.129074 141.073517,119.921768 141.073517C120.714462 141.073517,121.474609 140.758575,122.035080 140.198090C122.595566 139.637619,122.910507 138.877472,122.910507 138.084778Z" style="fill: rgb(100.000000%,100.000000%,100.000000%);stroke: none;"></path>
  <path d="M122.714340 127.615494C122.714340 126.822800,122.399399 126.062653,121.838913 125.502182C121.278442 124.941696,120.518295 124.626755,119.725601 124.626755C118.932907 124.626755,118.172760 124.941696,117.612289 125.502182C117.051804 126.062653,116.736862 126.822800,116.736862 127.615494C116.736862 128.408188,117.051804 129.168335,117.612289 129.728806C118.172760 130.289291,118.932907 130.604233,119.725601 130.604233C120.518295 130.604233,121.278442 130.289291,121.838913 129.728806C122.399399 129.168335,122.714340 128.408188,122.714340 127.615494Z" style="fill: rgb(100.000000%,100.000000%,100.000000%);stroke: none;"></path>
  <path d="M124.473541 162.770477C124.473541 161.977783,124.158600 161.217636,123.598114 160.657166C123.037643 160.096680,122.277496 159.781738,121.484802 159.781738C120.692108 159.781738,119.931961 160.096680,119.371490 160.657166C118.811005 161.217636,118.496063 161.977783,118.496063 162.770477C118.496063 163.563171,118.811005 164.323318,119.371490 164.883789C119.931961 165.444275,120.692108 165.759216,121.484802 165.759216C122.277496 165.759216,123.037643 165.444275,123.598114 164.883789C124.158600 164.323318,124.473541 163.563171,124.473541 162.770477Z" style="fill: rgb(100.000000%,100.000000%,100.000000%);stroke: none;"></path>
  <path d="M124.025818 143.870499C124.025818 143.077805,123.710876 142.317657,123.150391 141.757187C122.589920 141.196701,121.829773 140.881760,121.037079 140.881760C120.244385 140.881760,119.484238 141.196701,118.923767 141.757187C118.363281 142.317657,118.048340 143.077805,118.048340 143.870499C118.048340 144.663193,118.363281 145.423340,118.923767 145.983810C119.484238 146.544296,120.244385 146.859238,121.037079 146.859238C121.829773 146.859238,122.589920 146.544296,123.150391 145.983810C123.710876 145.423340,124.025818 144.663193,124.025818 143.870499Z" style="fill: rgb(100.000000%,100.000000%,100.000000%);stroke: none;"></path>
  <path d="M90.614273 195.278351C90.614273 194.485657,90.299332 193.725510,89.738846 193.165039C89.178375 192.604553,88.418228 192.289612,87.625534 192.289612C86.832840 192.289612,86.072693 192.604553,85.512222 193.165039C84.951736 193.725510,84.636795 194.485657,84.636795 195.278351C84.636795 196.071045,84.951736 196.831192,85.512222 197.391663C86.072693 197.952148,86.832840 198.267090,87.625534 198.267090C88.418228 198.267090,89.178375 197.952148,89.738846 197.391663C90.299332 196.831192,90.614273 196.071045,90.614273 195.278351Z" style="fill: rgb(100.000000%,100.000000%,100.000000%);stroke: none;"></path>
  <path d="M119.758850 175.803101C119.758850 175.010406,119.443909 174.250259,118.883423 173.689789C118.322952 173.129303,117.562805 172.814362,116.770111 172.814362C115.977417 172.814362,115.217270 173.129303,114.656799 173.689789C114.096313 174.250259,113.781372 175.010406,113.781372 175.803101C113.781372 176.595795,114.096313 177.355942,114.656799 177.916412C115.217270 178.476898,115.977417 178.791840,116.770111 178.791840C117.562805 178.791840,118.322952 178.476898,118.883423 177.916412C119.443909 177.355942,119.758850 176.595795,119.758850 175.803101Z" style="fill: rgb(100.000000%,100.000000%,100.000000%);stroke: none;"></path>
  <path d="M31.361282 153.620148C31.361282 152.827454,31.046341 152.067307,30.485855 151.506836C29.925385 150.946350,29.165237 150.631409,28.372543 150.631409C27.579849 150.631409,26.819702 150.946350,26.259232 151.506836C25.698746 152.067307,25.383804 152.827454,25.383804 153.620148C25.383804 154.412842,25.698746 155.172989,26.259232 155.733459C26.819702 156.293945,27.579849 156.608887,28.372543 156.608887C29.165237 156.608887,29.925385 156.293945,30.485855 155.733459C31.046341 155.172989,31.361282 154.412842,31.361282 153.620148Z" style="fill: rgb(100.000000%,100.000000%,100.000000%);stroke: none;"></path>
  <path d="M67.018555 185.673462C67.018555 184.880768,66.703613 184.120621,66.143127 183.560150C65.582657 182.999664,64.822510 182.684723,64.029816 182.684723C63.237122 182.684723,62.476974 182.999664,61.916504 183.560150C61.356018 184.120621,61.041077 184.880768,61.041077 185.673462C61.041077 186.466156,61.356018 187.226303,61.916504 187.786774C62.476974 188.347260,63.237122 188.662201,64.029816 188.662201C64.822510 188.662201,65.582657 188.347260,66.143127 187.786774C66.703613 187.226303,67.018555 186.466156,67.018555 185.673462Z" style="fill: rgb(100.000000%,100.000000%,100.000000%);stroke: none;"></path>
  <path d="M28.009933 95.918976C28.009933 95.126282,27.694992 94.366135,27.134506 93.805664C26.574036 93.245178,25.813889 92.930237,25.021194 92.930237C24.228500 92.930237,23.468353 93.245178,22.907883 93.805664C22.347397 94.366135,22.032455 95.126282,22.032455 95.918976C22.032455 96.711670,22.347397 97.471817,22.907883 98.032288C23.468353 98.592773,24.228500 98.907715,25.021194 98.907715C25.813889 98.907715,26.574036 98.592773,27.134506 98.032288C27.694992 97.471817,28.009933 96.711670,28.009933 95.918976Z" style="fill: rgb(100.000000%,100.000000%,100.000000%);stroke: none;"></path>
  <path d="M18.042999 130.674515C18.042999 129.881821,17.728058 129.121674,17.167572 128.561203C16.607101 128.000717,15.846954 127.685776,15.054260 127.685776C14.261566 127.685776,13.501419 128.000717,12.940948 128.561203C12.380463 129.121674,12.065521 129.881821,12.065521 130.674515C12.065521 131.467209,12.380463 132.227356,12.940948 132.787827C13.501419 133.348312,14.261566 133.663254,15.054260 133.663254C15.846954 133.663254,16.607101 133.348312,17.167572 132.787827C17.728058 132.227356,18.042999 131.467209,18.042999 130.674515Z" style="fill: rgb(100.000000%,100.000000%,100.000000%);stroke: none;"></path>
  <path d="M48.699997 75.322021C48.699997 74.529327,48.385056 73.769180,47.824570 73.208710C47.264099 72.648224,46.503952 72.333282,45.711258 72.333282C44.918564 72.333282,44.158417 72.648224,43.597946 73.208710C43.037460 73.769180,42.722519 74.529327,42.722519 75.322021C42.722519 76.114716,43.037460 76.874863,43.597946 77.435333C44.158417 77.995819,44.918564 78.310760,45.711258 78.310760C46.503952 78.310760,47.264099 77.995819,47.824570 77.435333C48.385056 76.874863,48.699997 76.114716,48.699997 75.322021Z" style="fill: rgb(100.000000%,100.000000%,100.000000%);stroke: none;"></path>
  <path d="M36.206451 86.660034C36.206451 85.867340,35.891510 85.107193,35.331024 84.546722C34.770554 83.986237,34.010406 83.671295,33.217712 83.671295C32.425018 83.671295,31.664871 83.986237,31.104401 84.546722C30.543915 85.107193,30.228973 85.867340,30.228973 86.660034C30.228973 87.452728,30.543915 88.212875,31.104401 88.773346C31.664871 89.333832,32.425018 89.648773,33.217712 89.648773C34.010406 89.648773,34.770554 89.333832,35.331024 88.773346C35.891510 88.212875,36.206451 87.452728,36.206451 86.660034Z" style="fill: rgb(100.000000%,100.000000%,100.000000%);stroke: none;"></path>
  <path d="M56.434189 67.383698C56.434189 66.591003,56.119247 65.830856,55.558762 65.270386C54.998291 64.709900,54.238144 64.394958,53.445450 64.394958C52.652756 64.394958,51.892609 64.709900,51.332138 65.270386C50.771652 65.830856,50.456711 66.591003,50.456711 67.383698C50.456711 68.176392,50.771652 68.936539,51.332138 69.497009C51.892609 70.057495,52.652756 70.372437,53.445450 70.372437C54.238144 70.372437,54.998291 70.057495,55.558762 69.497009C56.119247 68.936539,56.434189 68.176392,56.434189 67.383698Z" style="fill: rgb(100.000000%,100.000000%,100.000000%);stroke: none;"></path>
  <path d="M52.422379 72.214661C52.422379 71.421967,52.107437 70.661819,51.546951 70.101349C50.986481 69.540863,50.226334 69.225922,49.433640 69.225922C48.640945 69.225922,47.880798 69.540863,47.320328 70.101349C46.759842 70.661819,46.444901 71.421967,46.444901 72.214661C46.444901 73.007355,46.759842 73.767502,47.320328 74.327972C47.880798 74.888458,48.640945 75.203400,49.433640 75.203400C50.226334 75.203400,50.986481 74.888458,51.546951 74.327972C52.107437 73.767502,52.422379 73.007355,52.422379 72.214661Z" style="fill: rgb(100.000000%,100.000000%,100.000000%);stroke: none;"></path>
  <path d="M60.249115 65.799744C60.249115 65.007050,59.934174 64.246902,59.373688 63.686432C58.813217 63.125946,58.053070 62.811005,57.260376 62.811005C56.467682 62.811005,55.707535 63.125946,55.147064 63.686432C54.586578 64.246902,54.271637 65.007050,54.271637 65.799744C54.271637 66.592438,54.586578 67.352585,55.147064 67.913055C55.707535 68.473541,56.467682 68.788483,57.260376 68.788483C58.053070 68.788483,58.813217 68.473541,59.373688 67.913055C59.934174 67.352585,60.249115 66.592438,60.249115 65.799744Z" style="fill: rgb(100.000000%,100.000000%,100.000000%);stroke: none;"></path>
  <path d="M57.406830 66.171982C57.406830 65.379288,57.091888 64.619141,56.531403 64.058670C55.970932 63.498184,55.210785 63.183243,54.418091 63.183243C53.625397 63.183243,52.865250 63.498184,52.304779 64.058670C51.744293 64.619141,51.429352 65.379288,51.429352 66.171982C51.429352 66.964676,51.744293 67.724823,52.304779 68.285294C52.865250 68.845779,53.625397 69.160721,54.418091 69.160721C55.210785 69.160721,55.970932 68.845779,56.531403 68.285294C57.091888 67.724823,57.406830 66.964676,57.406830 66.171982Z" style="fill: rgb(100.000000%,100.000000%,100.000000%);stroke: none;"></path>
  <path d="M66.310989 69.890488C66.310989 69.097794,65.996048 68.337646,65.435562 67.777176C64.875092 67.216690,64.114944 66.901749,63.322250 66.901749C62.529556 66.901749,61.769409 67.216690,61.208939 67.777176C60.648453 68.337646,60.333511 69.097794,60.333511 69.890488C60.333511 70.683182,60.648453 71.443329,61.208939 72.003799C61.769409 72.564285,62.529556 72.879227,63.322250 72.879227C64.114944 72.879227,64.875092 72.564285,65.435562 72.003799C65.996048 71.443329,66.310989 70.683182,66.310989 69.890488Z" style="fill: rgb(100.000000%,100.000000%,100.000000%);stroke: none;"></path>
  <path d="M61.482834 66.682861C61.482834 65.890167,61.167892 65.130020,60.607407 64.569550C60.046936 64.009064,59.286789 63.694122,58.494095 63.694122C57.701401 63.694122,56.941254 64.009064,56.380783 64.569550C55.820297 65.130020,55.505356 65.890167,55.505356 66.682861C55.505356 67.475555,55.820297 68.235703,56.380783 68.796173C56.941254 69.356659,57.701401 69.671600,58.494095 69.671600C59.286789 69.671600,60.046936 69.356659,60.607407 68.796173C61.167892 68.235703,61.482834 67.475555,61.482834 66.682861Z" style="fill: rgb(100.000000%,100.000000%,100.000000%);stroke: none;"></path>
  <path d="M78.877869 78.303635C78.877869 77.510941,78.562927 76.750793,78.002441 76.190323C77.441971 75.629837,76.681824 75.314896,75.889130 75.314896C75.096436 75.314896,74.336288 75.629837,73.775818 76.190323C73.215332 76.750793,72.900391 77.510941,72.900391 78.303635C72.900391 79.096329,73.215332 79.856476,73.775818 80.416946C74.336288 80.977432,75.096436 81.292374,75.889130 81.292374C76.681824 81.292374,77.441971 80.977432,78.002441 80.416946C78.562927 79.856476,78.877869 79.096329,78.877869 78.303635Z" style="fill: rgb(100.000000%,100.000000%,100.000000%);stroke: none;"></path>
  <path d="M70.469467 71.502304C70.469467 70.709610,70.154526 69.949463,69.594040 69.388992C69.033569 68.828506,68.273422 68.513565,67.480728 68.513565C66.688034 68.513565,65.927887 68.828506,65.367416 69.388992C64.806931 69.949463,64.491989 70.709610,64.491989 71.502304C64.491989 72.294998,64.806931 73.055145,65.367416 73.615616C65.927887 74.176102,66.688034 74.491043,67.480728 74.491043C68.273422 74.491043,69.033569 74.176102,69.594040 73.615616C70.154526 73.055145,70.469467 72.294998,70.469467 71.502304Z" style="fill: rgb(100.000000%,100.000000%,100.000000%);stroke: none;"></path>
  <path d="M88.616226 97.004379C88.616226 96.211685,88.301285 95.451538,87.740799 94.891068C87.180328 94.330582,86.420181 94.015640,85.627487 94.015640C84.834793 94.015640,84.074646 94.330582,83.514175 94.891068C82.953690 95.451538,82.638748 96.211685,82.638748 97.004379C82.638748 97.797073,82.953690 98.557220,83.514175 99.117691C84.074646 99.678177,84.834793 99.993118,85.627487 99.993118C86.420181 99.993118,87.180328 99.678177,87.740799 99.117691C88.301285 98.557220,88.616226 97.797073,88.616226 97.004379Z" style="fill: rgb(100.000000%,100.000000%,100.000000%);stroke: none;"></path>
  <path d="M81.697433 84.255981C81.697433 83.463287,81.382492 82.703140,80.822006 82.142670C80.261536 81.582184,79.501389 81.267242,78.708694 81.267242C77.916000 81.267242,77.155853 81.582184,76.595383 82.142670C76.034897 82.703140,75.719955 83.463287,75.719955 84.255981C75.719955 85.048676,76.034897 85.808823,76.595383 86.369293C77.155853 86.929779,77.916000 87.244720,78.708694 87.244720C79.501389 87.244720,80.261536 86.929779,80.822006 86.369293C81.382492 85.808823,81.697433 85.048676,81.697433 84.255981Z" style="fill: rgb(100.000000%,100.000000%,100.000000%);stroke: none;"></path>
  <path d="M101.515839 116.231049C101.515839 115.438354,101.200897 114.678207,100.640411 114.117737C100.079941 113.557251,99.319794 113.242310,98.527100 113.242310C97.734406 113.242310,96.974258 113.557251,96.413788 114.117737C95.853302 114.678207,95.538361 115.438354,95.538361 116.231049C95.538361 117.023743,95.853302 117.783890,96.413788 118.344360C96.974258 118.904846,97.734406 119.219788,98.527100 119.219788C99.319794 119.219788,100.079941 118.904846,100.640411 118.344360C101.200897 117.783890,101.515839 117.023743,101.515839 116.231049Z" style="fill: rgb(100.000000%,100.000000%,100.000000%);stroke: none;"></path>
  <path d="M93.021774 103.798798C93.021774 103.006104,92.706833 102.245956,92.146347 101.685486C91.585876 101.125000,90.825729 100.810059,90.033035 100.810059C89.240341 100.810059,88.480194 101.125000,87.919724 101.685486C87.359238 102.245956,87.044296 103.006104,87.044296 103.798798C87.044296 104.591492,87.359238 105.351639,87.919724 105.912109C88.480194 106.472595,89.240341 106.787537,90.033035 106.787537C90.825729 106.787537,91.585876 106.472595,92.146347 105.912109C92.706833 105.351639,93.021774 104.591492,93.021774 103.798798Z" style="fill: rgb(100.000000%,100.000000%,100.000000%);stroke: none;"></path>
  <path d="M110.473480 130.618362C110.473480 129.825668,110.158539 129.065521,109.598053 128.505051C109.037582 127.944565,108.277435 127.629623,107.484741 127.629623C106.692047 127.629623,105.931900 127.944565,105.371429 128.505051C104.810944 129.065521,104.496002 129.825668,104.496002 130.618362C104.496002 131.411057,104.810944 132.171204,105.371429 132.731674C105.931900 133.292160,106.692047 133.607101,107.484741 133.607101C108.277435 133.607101,109.037582 133.292160,109.598053 132.731674C110.158539 132.171204,110.473480 131.411057,110.473480 130.618362Z" style="fill: rgb(100.000000%,100.000000%,100.000000%);stroke: none;"></path>
  <path d="M105.570251 121.909668C105.570251 121.116974,105.255310 120.356827,104.694824 119.796356C104.134354 119.235870,103.374207 118.920929,102.581512 118.920929C101.788818 118.920929,101.028671 119.235870,100.468201 119.796356C99.907715 120.356827,99.592773 121.116974,99.592773 121.909668C99.592773 122.702362,99.907715 123.462509,100.468201 124.022980C101.028671 124.583466,101.788818 124.898407,102.581512 124.898407C103.374207 124.898407,104.134354 124.583466,104.694824 124.022980C105.255310 123.462509,105.570251 122.702362,105.570251 121.909668Z" style="fill: rgb(100.000000%,100.000000%,100.000000%);stroke: none;"></path>
  <path d="M117.681381 134.979874C117.681381 134.187180,117.366440 133.427032,116.805954 132.866562C116.245483 132.306076,115.485336 131.991135,114.692642 131.991135C113.899948 131.991135,113.139801 132.306076,112.579330 132.866562C112.018845 133.427032,111.703903 134.187180,111.703903 134.979874C111.703903 135.772568,112.018845 136.532715,112.579330 137.093185C113.139801 137.653671,113.899948 137.968613,114.692642 137.968613C115.485336 137.968613,116.245483 137.653671,116.805954 137.093185C117.366440 136.532715,117.681381 135.772568,117.681381 134.979874Z" style="fill: rgb(100.000000%,100.000000%,100.000000%);stroke: none;"></path>
  <path d="M112.063675 133.460281C112.063675 132.667587,111.748734 131.907440,111.188248 131.346970C110.627777 130.786484,109.867630 130.471542,109.074936 130.471542C108.282242 130.471542,107.522095 130.786484,106.961624 131.346970C106.401138 131.907440,106.086197 132.667587,106.086197 133.460281C106.086197 134.252975,106.401138 135.013123,106.961624 135.573593C107.522095 136.134079,108.282242 136.449020,109.074936 136.449020C109.867630 136.449020,110.627777 136.134079,111.188248 135.573593C111.748734 135.013123,112.063675 134.252975,112.063675 133.460281Z" style="fill: rgb(100.000000%,100.000000%,100.000000%);stroke: none;"></path>
  <path d="M128.810349 128.938019C128.810349 128.145325,128.495407 127.385178,127.934921 126.824707C127.374451 126.264221,126.614304 125.949280,125.821609 125.949280C125.028915 125.949280,124.268768 126.264221,123.708298 126.824707C123.147812 127.385178,122.832870 128.145325,122.832870 128.938019C122.832870 129.730713,123.147812 130.490860,123.708298 131.051331C124.268768 131.611816,125.028915 131.926758,125.821609 131.926758C126.614304 131.926758,127.374451 131.611816,127.934921 131.051331C128.495407 130.490860,128.810349 129.730713,128.810349 128.938019Z" style="fill: rgb(100.000000%,100.000000%,100.000000%);stroke: none;"></path>
  <path d="M120.337601 133.587112C120.337601 132.794418,120.022659 132.034271,119.462173 131.473801C118.901703 130.913315,118.141556 130.598373,117.348862 130.598373C116.556168 130.598373,115.796021 130.913315,115.235550 131.473801C114.675064 132.034271,114.360123 132.794418,114.360123 133.587112C114.360123 134.379807,114.675064 135.139954,115.235550 135.700424C115.796021 136.260910,116.556168 136.575851,117.348862 136.575851C118.141556 136.575851,118.901703 136.260910,119.462173 135.700424C120.022659 135.139954,120.337601 134.379807,120.337601 133.587112Z" style="fill: rgb(100.000000%,100.000000%,100.000000%);stroke: none;"></path>
  <path d="M154.142120 120.412552C154.142120 119.619858,153.827179 118.859711,153.266693 118.299240C152.706223 117.738754,151.946075 117.423813,151.153381 117.423813C150.360687 117.423813,149.600540 117.738754,149.040070 118.299240C148.479584 118.859711,148.164642 119.619858,148.164642 120.412552C148.164642 121.205246,148.479584 121.965393,149.040070 122.525864C149.600540 123.086349,150.360687 123.401291,151.153381 123.401291C151.946075 123.401291,152.706223 123.086349,153.266693 122.525864C153.827179 121.965393,154.142120 121.205246,154.142120 120.412552Z" style="fill: rgb(100.000000%,100.000000%,100.000000%);stroke: none;"></path>
  <path d="M134.975937 125.869125C134.975937 125.076431,134.660995 124.316284,134.100510 123.755814C133.540039 123.195328,132.779892 122.880386,131.987198 122.880386C131.194504 122.880386,130.434357 123.195328,129.873886 123.755814C129.313400 124.316284,128.998459 125.076431,128.998459 125.869125C128.998459 126.661819,129.313400 127.421967,129.873886 127.982437C130.434357 128.542923,131.194504 128.857864,131.987198 128.857864C132.779892 128.857864,133.540039 128.542923,134.100510 127.982437C134.660995 127.421967,134.975937 126.661819,134.975937 125.869125Z" style="fill: rgb(100.000000%,100.000000%,100.000000%);stroke: none;"></path>
  <path d="M197.387009 102.527023C197.387009 101.734329,197.072067 100.974182,196.511581 100.413712C195.951111 99.853226,195.190964 99.538284,194.398270 99.538284C193.605576 99.538284,192.845428 99.853226,192.284958 100.413712C191.724472 100.974182,191.409531 101.734329,191.409531 102.527023C191.409531 103.319717,191.724472 104.079865,192.284958 104.640335C192.845428 105.200821,193.605576 105.515762,194.398270 105.515762C195.190964 105.515762,195.951111 105.200821,196.511581 104.640335C197.072067 104.079865,197.387009 103.319717,197.387009 102.527023Z" style="fill: rgb(100.000000%,100.000000%,100.000000%);stroke: none;"></path>
  <path d="M168.062622 121.176208C168.062622 120.383514,167.747681 119.623367,167.187195 119.062897C166.626724 118.502411,165.866577 118.187469,165.073883 118.187469C164.281189 118.187469,163.521042 118.502411,162.960571 119.062897C162.400085 119.623367,162.085144 120.383514,162.085144 121.176208C162.085144 121.968903,162.400085 122.729050,162.960571 123.289520C163.521042 123.850006,164.281189 124.164948,165.073883 124.164948C165.866577 124.164948,166.626724 123.850006,167.187195 123.289520C167.747681 122.729050,168.062622 121.968903,168.062622 121.176208Z" style="fill: rgb(100.000000%,100.000000%,100.000000%);stroke: none;"></path>
  <path d="M180.720642 40.309006C180.720642 39.516312,180.405701 38.756165,179.845215 38.195694C179.284744 37.635208,178.524597 37.320267,177.731903 37.320267C176.939209 37.320267,176.179062 37.635208,175.618591 38.195694C175.058105 38.756165,174.743164 39.516312,174.743164 40.309006C174.743164 41.101700,175.058105 41.861847,175.618591 42.422318C176.179062 42.982803,176.939209 43.297745,177.731903 43.297745C178.524597 43.297745,179.284744 42.982803,179.845215 42.422318C180.405701 41.861847,180.720642 41.101700,180.720642 40.309006Z" style="fill: rgb(100.000000%,100.000000%,100.000000%);stroke: none;"></path>
  <path d="M200.657593 77.762100C200.657593 76.969406,200.342651 76.209259,199.782166 75.648788C199.221695 75.088303,198.461548 74.773361,197.668854 74.773361C196.876160 74.773361,196.116013 75.088303,195.555542 75.648788C194.995056 76.209259,194.680115 76.969406,194.680115 77.762100C194.680115 78.554794,194.995056 79.314941,195.555542 79.875412C196.116013 80.435898,196.876160 80.750839,197.668854 80.750839C198.461548 80.750839,199.221695 80.435898,199.782166 79.875412C200.342651 79.314941,200.657593 78.554794,200.657593 77.762100Z" style="fill: rgb(100.000000%,100.000000%,100.000000%);stroke: none;"></path>
  <path d="M126.929977 39.509079C126.929977 38.716385,126.615036 37.956238,126.054550 37.395767C125.494080 36.835281,124.733932 36.520340,123.941238 36.520340C123.148544 36.520340,122.388397 36.835281,121.827927 37.395767C121.267441 37.956238,120.952499 38.716385,120.952499 39.509079C120.952499 40.301773,121.267441 41.061920,121.827927 41.622391C122.388397 42.182877,123.148544 42.497818,123.941238 42.497818C124.733932 42.497818,125.494080 42.182877,126.054550 41.622391C126.615036 41.061920,126.929977 40.301773,126.929977 39.509079Z" style="fill: rgb(100.000000%,100.000000%,100.000000%);stroke: none;"></path>
  <path d="M161.680038 29.301102C161.680038 28.508408,161.365097 27.748260,160.804611 27.187790C160.244141 26.627304,159.483994 26.312363,158.691299 26.312363C157.898605 26.312363,157.138458 26.627304,156.577988 27.187790C156.017502 27.748260,155.702560 28.508408,155.702560 29.301102C155.702560 30.093796,156.017502 30.853943,156.577988 31.414413C157.138458 31.974899,157.898605 32.289841,158.691299 32.289841C159.483994 32.289841,160.244141 31.974899,160.804611 31.414413C161.365097 30.853943,161.680038 30.093796,161.680038 29.301102Z" style="fill: rgb(100.000000%,100.000000%,100.000000%);stroke: none;"></path>
  <path d="M100.462570 75.885483C100.462570 75.092789,100.147629 74.332642,99.587143 73.772171C99.026672 73.211685,98.266525 72.896744,97.473831 72.896744C96.681137 72.896744,95.920990 73.211685,95.360519 73.772171C94.800034 74.332642,94.485092 75.092789,94.485092 75.885483C94.485092 76.678177,94.800034 77.438324,95.360519 77.998795C95.920990 78.559280,96.681137 78.874222,97.473831 78.874222C98.266525 78.874222,99.026672 78.559280,99.587143 77.998795C100.147629 77.438324,100.462570 76.678177,100.462570 75.885483Z" style="fill: rgb(100.000000%,100.000000%,100.000000%);stroke: none;"></path>
  <path d="M117.996811 55.140259C117.996811 54.347565,117.681870 53.587418,117.121384 53.026947C116.560913 52.466461,115.800766 52.151520,115.008072 52.151520C114.215378 52.151520,113.455231 52.466461,112.894760 53.026947C112.334274 53.587418,112.019333 54.347565,112.019333 55.140259C112.019333 55.932953,112.334274 56.693100,112.894760 57.253571C113.455231 57.814056,114.215378 58.128998,115.008072 58.128998C115.800766 58.128998,116.560913 57.814056,117.121384 57.253571C117.681870 56.693100,117.996811 55.932953,117.996811 55.140259Z" style="fill: rgb(100.000000%,100.000000%,100.000000%);stroke: none;"></path>
  <path d="M78.189041 95.729309C78.189041 94.936615,77.874100 94.176468,77.313614 93.615997C76.753143 93.055511,75.992996 92.740570,75.200302 92.740570C74.407608 92.740570,73.647461 93.055511,73.086990 93.615997C72.526505 94.176468,72.211563 94.936615,72.211563 95.729309C72.211563 96.522003,72.526505 97.282150,73.086990 97.842621C73.647461 98.403107,74.407608 98.718048,75.200302 98.718048C75.992996 98.718048,76.753143 98.403107,77.313614 97.842621C77.874100 97.282150,78.189041 96.522003,78.189041 95.729309Z" style="fill: rgb(100.000000%,100.000000%,100.000000%);stroke: none;"></path>
  <path d="M92.611771 82.912109C92.611771 82.119415,92.296829 81.359268,91.736343 80.798798C91.175873 80.238312,90.415726 79.923370,89.623032 79.923370C88.830338 79.923370,88.070190 80.238312,87.509720 80.798798C86.949234 81.359268,86.634293 82.119415,86.634293 82.912109C86.634293 83.704803,86.949234 84.464951,87.509720 85.025421C88.070190 85.585907,88.830338 85.900848,89.623032 85.900848C90.415726 85.900848,91.175873 85.585907,91.736343 85.025421C92.296829 84.464951,92.611771 83.704803,92.611771 82.912109Z" style="fill: rgb(100.000000%,100.000000%,100.000000%);stroke: none;"></path>
  <path d="M51.491226 112.653961C51.491226 111.861267,51.176285 111.101120,50.615799 110.540649C50.055328 109.980164,49.295181 109.665222,48.502487 109.665222C47.709793 109.665222,46.949646 109.980164,46.389175 110.540649C45.828690 111.101120,45.513748 111.861267,45.513748 112.653961C45.513748 113.446655,45.828690 114.206802,46.389175 114.767273C46.949646 115.327759,47.709793 115.642700,48.502487 115.642700C49.295181 115.642700,50.055328 115.327759,50.615799 114.767273C51.176285 114.206802,51.491226 113.446655,51.491226 112.653961Z" style="fill: rgb(100.000000%,100.000000%,100.000000%);stroke: none;"></path>
  <path d="M71.558701 101.579849C71.558701 100.787155,71.243759 100.027008,70.683273 99.466537C70.122803 98.906052,69.362656 98.591110,68.569962 98.591110C67.777267 98.591110,67.017120 98.906052,66.456650 99.466537C65.896164 100.027008,65.581223 100.787155,65.581223 101.579849C65.581223 102.372543,65.896164 103.132690,66.456650 103.693161C67.017120 104.253647,67.777267 104.568588,68.569962 104.568588C69.362656 104.568588,70.122803 104.253647,70.683273 103.693161C71.243759 103.132690,71.558701 102.372543,71.558701 101.579849Z" style="fill: rgb(100.000000%,100.000000%,100.000000%);stroke: none;"></path>
  <path d="M7.466568 96.894180C7.466568 96.101486,7.151627 95.341339,6.591141 94.780869C6.030670 94.220383,5.270523 93.905441,4.477829 93.905441C3.685135 93.905441,2.924988 94.220383,2.364517 94.780869C1.804031 95.341339,1.489090 96.101486,1.489090 96.894180C1.489090 97.686874,1.804031 98.447021,2.364517 99.007492C2.924988 99.567978,3.685135 99.882919,4.477829 99.882919C5.270523 99.882919,6.030670 99.567978,6.591141 99.007492C7.151627 98.447021,7.466568 97.686874,7.466568 96.894180Z" style="fill: rgb(100.000000%,100.000000%,100.000000%);stroke: none;"></path>
  <path d="M36.564514 114.831650C36.564514 114.038956,36.249573 113.278809,35.689087 112.718338C35.128616 112.157852,34.368469 111.842911,33.575775 111.842911C32.783081 111.842911,32.022934 112.157852,31.462463 112.718338C30.901978 113.278809,30.587036 114.038956,30.587036 114.831650C30.587036 115.624344,30.901978 116.384491,31.462463 116.944962C32.022934 117.505447,32.783081 117.820389,33.575775 117.820389C34.368469 117.820389,35.128616 117.505447,35.689087 116.944962C36.249573 116.384491,36.564514 115.624344,36.564514 114.831650Z" style="fill: rgb(100.000000%,100.000000%,100.000000%);stroke: none;"></path>
  <path d="M16.666779 36.483109C16.666779 35.690414,16.351837 34.930267,15.791351 34.369797C15.230881 33.809311,14.470734 33.494370,13.678040 33.494370C12.885345 33.494370,12.125198 33.809311,11.564728 34.369797C11.004242 34.930267,10.689301 35.690414,10.689301 36.483109C10.689301 37.275803,11.004242 38.035950,11.564728 38.596420C12.125198 39.156906,12.885345 39.471848,13.678040 39.471848C14.470734 39.471848,15.230881 39.156906,15.791351 38.596420C16.351837 38.035950,16.666779 37.275803,16.666779 36.483109Z" style="fill: rgb(100.000000%,100.000000%,100.000000%);stroke: none;"></path>
  <path d="M5.536316 73.845840C5.536316 73.053146,5.221375 72.292999,4.660889 71.732529C4.100418 71.172043,3.340271 70.857101,2.547577 70.857101C1.754883 70.857101,0.994736 71.172043,0.434265 71.732529C-0.126221 72.292999,-0.441162 73.053146,-0.441162 73.845840C-0.441162 74.638535,-0.126221 75.398682,0.434265 75.959152C0.994736 76.519638,1.754883 76.834579,2.547577 76.834579C3.340271 76.834579,4.100418 76.519638,4.660889 75.959152C5.221375 75.398682,5.536316 74.638535,5.536316 73.845840Z" style="fill: rgb(100.000000%,100.000000%,100.000000%);stroke: none;"></path>
  <path d="M55.501633 22.750702C55.501633 21.958008,55.186691 21.197861,54.626205 20.637390C54.065735 20.076904,53.305588 19.761963,52.512894 19.761963C51.720200 19.761963,50.960052 20.076904,50.399582 20.637390C49.839096 21.197861,49.524155 21.958008,49.524155 22.750702C49.524155 23.543396,49.839096 24.303543,50.399582 24.864014C50.960052 25.424500,51.720200 25.739441,52.512894 25.739441C53.305588 25.739441,54.065735 25.424500,54.626205 24.864014C55.186691 24.303543,55.501633 23.543396,55.501633 22.750702Z" style="fill: rgb(100.000000%,100.000000%,100.000000%);stroke: none;"></path>
  <path d="M28.303009 20.884384C28.303009 20.091690,27.988068 19.331543,27.427582 18.771072C26.867111 18.210587,26.106964 17.895645,25.314270 17.895645C24.521576 17.895645,23.761429 18.210587,23.200958 18.771072C22.640472 19.331543,22.325531 20.091690,22.325531 20.884384C22.325531 21.677078,22.640472 22.437225,23.200958 22.997696C23.761429 23.558182,24.521576 23.873123,25.314270 23.873123C26.106964 23.873123,26.867111 23.558182,27.427582 22.997696C27.988068 22.437225,28.303009 21.677078,28.303009 20.884384Z" style="fill: rgb(100.000000%,100.000000%,100.000000%);stroke: none;"></path>
  <path d="M61.949570 45.489380C61.949570 44.696686,61.634628 43.936539,61.074142 43.376068C60.513672 42.815582,59.753525 42.500641,58.960831 42.500641C58.168137 42.500641,57.407990 42.815582,56.847519 43.376068C56.287033 43.936539,55.972092 44.696686,55.972092 45.489380C55.972092 46.282074,56.287033 47.042221,56.847519 47.602692C57.407990 48.163177,58.168137 48.478119,58.960831 48.478119C59.753525 48.478119,60.513672 48.163177,61.074142 47.602692C61.634628 47.042221,61.949570 46.282074,61.949570 45.489380Z" style="fill: rgb(100.000000%,100.000000%,100.000000%);stroke: none;"></path>
  <path d="M63.935608 31.125946C63.935608 30.333252,63.620667 29.573105,63.060181 29.012634C62.499710 28.452148,61.739563 28.137207,60.946869 28.137207C60.154175 28.137207,59.394028 28.452148,58.833557 29.012634C58.273071 29.573105,57.958130 30.333252,57.958130 31.125946C57.958130 31.918640,58.273071 32.678787,58.833557 33.239258C59.394028 33.799744,60.154175 34.114685,60.946869 34.114685C61.739563 34.114685,62.499710 33.799744,63.060181 33.239258C63.620667 32.678787,63.935608 31.918640,63.935608 31.125946Z" style="fill: rgb(100.000000%,100.000000%,100.000000%);stroke: none;"></path>
  <path d="M54.575058 55.235428C54.575058 54.442734,54.260117 53.682587,53.699631 53.122116C53.139160 52.561630,52.379013 52.246689,51.586319 52.246689C50.793625 52.246689,50.033478 52.561630,49.473007 53.122116C48.912521 53.682587,48.597580 54.442734,48.597580 55.235428C48.597580 56.028122,48.912521 56.788269,49.473007 57.348740C50.033478 57.909225,50.793625 58.224167,51.586319 58.224167C52.379013 58.224167,53.139160 57.909225,53.699631 57.348740C54.260117 56.788269,54.575058 56.028122,54.575058 55.235428Z" style="fill: rgb(100.000000%,100.000000%,100.000000%);stroke: none;"></path>
  <path d="M59.181259 49.192505C59.181259 48.399811,58.866318 47.639664,58.305832 47.079193C57.745361 46.518707,56.985214 46.203766,56.192520 46.203766C55.399826 46.203766,54.639679 46.518707,54.079208 47.079193C53.518723 47.639664,53.203781 48.399811,53.203781 49.192505C53.203781 49.985199,53.518723 50.745346,54.079208 51.305817C54.639679 51.866302,55.399826 52.181244,56.192520 52.181244C56.985214 52.181244,57.745361 51.866302,58.305832 51.305817C58.866318 50.745346,59.181259 49.985199,59.181259 49.192505Z" style="fill: rgb(100.000000%,100.000000%,100.000000%);stroke: none;"></path>
  <path d="M52.800476 63.721527C52.800476 62.928833,52.485535 62.168686,51.925049 61.608215C51.364578 61.047729,50.604431 60.732788,49.811737 60.732788C49.019043 60.732788,48.258896 61.047729,47.698425 61.608215C47.137939 62.168686,46.822998 62.928833,46.822998 63.721527C46.822998 64.514221,47.137939 65.274368,47.698425 65.834839C48.258896 66.395325,49.019043 66.710266,49.811737 66.710266C50.604431 66.710266,51.364578 66.395325,51.925049 65.834839C52.485535 65.274368,52.800476 64.514221,52.800476 63.721527Z" style="fill: rgb(100.000000%,100.000000%,100.000000%);stroke: none;"></path>
  <path d="M52.641586 57.895691C52.641586 57.102997,52.326645 56.342850,51.766159 55.782379C51.205688 55.221893,50.445541 54.906952,49.652847 54.906952C48.860153 54.906952,48.100006 55.221893,47.539536 55.782379C46.979050 56.342850,46.664108 57.102997,46.664108 57.895691C46.664108 58.688385,46.979050 59.448532,47.539536 60.009003C48.100006 60.569489,48.860153 60.884430,49.652847 60.884430C50.445541 60.884430,51.205688 60.569489,51.766159 60.009003C52.326645 59.448532,52.641586 58.688385,52.641586 57.895691Z" style="fill: rgb(100.000000%,100.000000%,100.000000%);stroke: none;"></path>
  <path d="M56.398102 70.513977C56.398102 69.721283,56.083160 68.961136,55.522675 68.400665C54.962204 67.840179,54.202057 67.525238,53.409363 67.525238C52.616669 67.525238,51.856522 67.840179,51.296051 68.400665C50.735565 68.961136,50.420624 69.721283,50.420624 70.513977C50.420624 71.306671,50.735565 72.066818,51.296051 72.627289C51.856522 73.187775,52.616669 73.502716,53.409363 73.502716C54.202057 73.502716,54.962204 73.187775,55.522675 72.627289C56.083160 72.066818,56.398102 71.306671,56.398102 70.513977Z" style="fill: rgb(100.000000%,100.000000%,100.000000%);stroke: none;"></path>
  <path d="M54.419754 66.038177C54.419754 65.245483,54.104813 64.485336,53.544327 63.924866C52.983856 63.364380,52.223709 63.049438,51.431015 63.049438C50.638321 63.049438,49.878174 63.364380,49.317703 63.924866C48.757217 64.485336,48.442276 65.245483,48.442276 66.038177C48.442276 66.830872,48.757217 67.591019,49.317703 68.151489C49.878174 68.711975,50.638321 69.026917,51.431015 69.026917C52.223709 69.026917,52.983856 68.711975,53.544327 68.151489C54.104813 67.591019,54.419754 66.830872,54.419754 66.038177Z" style="fill: rgb(100.000000%,100.000000%,100.000000%);stroke: none;"></path>
  <path d="M61.697479 72.278824C61.697479 71.486130,61.382538 70.725983,60.822052 70.165512C60.261581 69.605026,59.501434 69.290085,58.708740 69.290085C57.916046 69.290085,57.155899 69.605026,56.595428 70.165512C56.034943 70.725983,55.720001 71.486130,55.720001 72.278824C55.720001 73.071518,56.034943 73.831665,56.595428 74.392136C57.155899 74.952621,57.916046 75.267563,58.708740 75.267563C59.501434 75.267563,60.261581 74.952621,60.822052 74.392136C61.382538 73.831665,61.697479 73.071518,61.697479 72.278824Z" style="fill: rgb(100.000000%,100.000000%,100.000000%);stroke: none;"></path>
  <path d="M57.497437 72.749146C57.497437 71.956451,57.182495 71.196304,56.622009 70.635834C56.061539 70.075348,55.301392 69.760406,54.508698 69.760406C53.716003 69.760406,52.955856 70.075348,52.395386 70.635834C51.834900 71.196304,51.519958 71.956451,51.519958 72.749146C51.519958 73.541840,51.834900 74.301987,52.395386 74.862457C52.955856 75.422943,53.716003 75.737885,54.508698 75.737885C55.301392 75.737885,56.061539 75.422943,56.622009 74.862457C57.182495 74.301987,57.497437 73.541840,57.497437 72.749146Z" style="fill: rgb(100.000000%,100.000000%,100.000000%);stroke: none;"></path>
  <path d="M63.308792 64.419220C63.308792 63.626526,62.993851 62.866379,62.433365 62.305908C61.872894 61.745422,61.112747 61.430481,60.320053 61.430481C59.527359 61.430481,58.767212 61.745422,58.206741 62.305908C57.646255 62.866379,57.331314 63.626526,57.331314 64.419220C57.331314 65.211914,57.646255 65.972061,58.206741 66.532532C58.767212 67.093018,59.527359 67.407959,60.320053 67.407959C61.112747 67.407959,61.872894 67.093018,62.433365 66.532532C62.993851 65.972061,63.308792 65.211914,63.308792 64.419220Z" style="fill: rgb(100.000000%,100.000000%,100.000000%);stroke: none;"></path>
  <path d="M62.190552 69.704788C62.190552 68.912094,61.875610 68.151947,61.315125 67.591476C60.754654 67.030991,59.994507 66.716049,59.201813 66.716049C58.409119 66.716049,57.648972 67.030991,57.088501 67.591476C56.528015 68.151947,56.213074 68.912094,56.213074 69.704788C56.213074 70.497482,56.528015 71.257629,57.088501 71.818100C57.648972 72.378586,58.409119 72.693527,59.201813 72.693527C59.994507 72.693527,60.754654 72.378586,61.315125 71.818100C61.875610 71.257629,62.190552 70.497482,62.190552 69.704788Z" style="fill: rgb(100.000000%,100.000000%,100.000000%);stroke: none;"></path>
  <path d="M62.916473 55.298553C62.916473 54.505859,62.601532 53.745712,62.041046 53.185242C61.480576 52.624756,60.720428 52.309814,59.927734 52.309814C59.135040 52.309814,58.374893 52.624756,57.814423 53.185242C57.253937 53.745712,56.938995 54.505859,56.938995 55.298553C56.938995 56.091248,57.253937 56.851395,57.814423 57.411865C58.374893 57.972351,59.135040 58.287292,59.927734 58.287292C60.720428 58.287292,61.480576 57.972351,62.041046 57.411865C62.601532 56.851395,62.916473 56.091248,62.916473 55.298553Z" style="fill: rgb(100.000000%,100.000000%,100.000000%);stroke: none;"></path>
  <path d="M64.979813 61.407639C64.979813 60.614944,64.664871 59.854797,64.104385 59.294327C63.543915 58.733841,62.783768 58.418900,61.991074 58.418900C61.198380 58.418900,60.438232 58.733841,59.877762 59.294327C59.317276 59.854797,59.002335 60.614944,59.002335 61.407639C59.002335 62.200333,59.317276 62.960480,59.877762 63.520950C60.438232 64.081436,61.198380 64.396378,61.991074 64.396378C62.783768 64.396378,63.543915 64.081436,64.104385 63.520950C64.664871 62.960480,64.979813 62.200333,64.979813 61.407639Z" style="fill: rgb(100.000000%,100.000000%,100.000000%);stroke: none;"></path>
  <path d="M53.104004 51.519409C53.104004 50.726715,52.789062 49.966568,52.228577 49.406097C51.668106 48.845612,50.907959 48.530670,50.115265 48.530670C49.322571 48.530670,48.562424 48.845612,48.001953 49.406097C47.441467 49.966568,47.126526 50.726715,47.126526 51.519409C47.126526 52.312103,47.441467 53.072250,48.001953 53.632721C48.562424 54.193207,49.322571 54.508148,50.115265 54.508148C50.907959 54.508148,51.668106 54.193207,52.228577 53.632721C52.789062 53.072250,53.104004 52.312103,53.104004 51.519409Z" style="fill: rgb(100.000000%,100.000000%,100.000000%);stroke: none;"></path>
  <path d="M59.595108 53.899124C59.595108 53.106430,59.280167 52.346283,58.719681 51.785812C58.159210 51.225327,57.399063 50.910385,56.606369 50.910385C55.813675 50.910385,55.053528 51.225327,54.493057 51.785812C53.932571 52.346283,53.617630 53.106430,53.617630 53.899124C53.617630 54.691818,53.932571 55.451965,54.493057 56.012436C55.053528 56.572922,55.813675 56.887863,56.606369 56.887863C57.399063 56.887863,58.159210 56.572922,58.719681 56.012436C59.280167 55.451965,59.595108 54.691818,59.595108 53.899124Z" style="fill: rgb(100.000000%,100.000000%,100.000000%);stroke: none;"></path>
  <path d="M39.887711 41.426285C39.887711 40.633591,39.572769 39.873444,39.012283 39.312973C38.451813 38.752487,37.691666 38.437546,36.898972 38.437546C36.106277 38.437546,35.346130 38.752487,34.785660 39.312973C34.225174 39.873444,33.910233 40.633591,33.910233 41.426285C33.910233 42.218979,34.225174 42.979126,34.785660 43.539597C35.346130 44.100082,36.106277 44.415024,36.898972 44.415024C37.691666 44.415024,38.451813 44.100082,39.012283 43.539597C39.572769 42.979126,39.887711 42.218979,39.887711 41.426285Z" style="fill: rgb(100.000000%,100.000000%,100.000000%);stroke: none;"></path>
  <path d="M49.693481 50.227539C49.693481 49.434845,49.378540 48.674698,48.818054 48.114227C48.257584 47.553741,47.497437 47.238800,46.704742 47.238800C45.912048 47.238800,45.151901 47.553741,44.591431 48.114227C44.030945 48.674698,43.716003 49.434845,43.716003 50.227539C43.716003 51.020233,44.030945 51.780380,44.591431 52.340851C45.151901 52.901337,45.912048 53.216278,46.704742 53.216278C47.497437 53.216278,48.257584 52.901337,48.818054 52.340851C49.378540 51.780380,49.693481 51.020233,49.693481 50.227539Z" style="fill: rgb(100.000000%,100.000000%,100.000000%);stroke: none;"></path>
  <path d="M54.248123 6.673599C54.248123 5.880905,53.933182 5.120758,53.372696 4.560287C52.812225 3.999802,52.052078 3.684860,51.259384 3.684860C50.466690 3.684860,49.706543 3.999802,49.146072 4.560287C48.585587 5.120758,48.270645 5.880905,48.270645 6.673599C48.270645 7.466293,48.585587 8.226440,49.146072 8.786911C49.706543 9.347397,50.466690 9.662338,51.259384 9.662338C52.052078 9.662338,52.812225 9.347397,53.372696 8.786911C53.933182 8.226440,54.248123 7.466293,54.248123 6.673599Z" style="fill: rgb(100.000000%,100.000000%,100.000000%);stroke: none;"></path>
  <path d="M39.923965 30.529053C39.923965 29.736359,39.609024 28.976212,39.048538 28.415741C38.488068 27.855255,37.727921 27.540314,36.935226 27.540314C36.142532 27.540314,35.382385 27.855255,34.821915 28.415741C34.261429 28.976212,33.946487 29.736359,33.946487 30.529053C33.946487 31.321747,34.261429 32.081894,34.821915 32.642365C35.382385 33.202850,36.142532 33.517792,36.935226 33.517792C37.727921 33.517792,38.488068 33.202850,39.048538 32.642365C39.609024 32.081894,39.923965 31.321747,39.923965 30.529053Z" style="fill: rgb(100.000000%,100.000000%,100.000000%);stroke: none;"></path>
  <path d="M114.101700 5.990906C114.101700 5.198212,113.786758 4.438065,113.226273 3.877594C112.665802 3.317108,111.905655 3.002167,111.112961 3.002167C110.320267 3.002167,109.560120 3.317108,108.999649 3.877594C108.439163 4.438065,108.124222 5.198212,108.124222 5.990906C108.124222 6.783600,108.439163 7.543747,108.999649 8.104218C109.560120 8.664703,110.320267 8.979645,111.112961 8.979645C111.905655 8.979645,112.665802 8.664703,113.226273 8.104218C113.786758 7.543747,114.101700 6.783600,114.101700 5.990906Z" style="fill: rgb(100.000000%,100.000000%,100.000000%);stroke: none;"></path>
  <path d="M73.773438 3.210068C73.773438 2.417374,73.458496 1.657227,72.898010 1.096756C72.337540 0.536270,71.577393 0.221329,70.784698 0.221329C69.992004 0.221329,69.231857 0.536270,68.671387 1.096756C68.110901 1.657227,67.795959 2.417374,67.795959 3.210068C67.795959 4.002762,68.110901 4.762909,68.671387 5.323380C69.231857 5.883865,69.992004 6.198807,70.784698 6.198807C71.577393 6.198807,72.337540 5.883865,72.898010 5.323380C73.458496 4.762909,73.773438 4.002762,73.773438 3.210068Z" style="fill: rgb(100.000000%,100.000000%,100.000000%);stroke: none;"></path>
  <path d="M148.015823 50.503189C148.015823 49.710495,147.700882 48.950348,147.140396 48.389877C146.579926 47.829391,145.819778 47.514450,145.027084 47.514450C144.234390 47.514450,143.474243 47.829391,142.913773 48.389877C142.353287 48.950348,142.038345 49.710495,142.038345 50.503189C142.038345 51.295883,142.353287 52.056030,142.913773 52.616501C143.474243 53.176987,144.234390 53.491928,145.027084 53.491928C145.819778 53.491928,146.579926 53.176987,147.140396 52.616501C147.700882 52.056030,148.015823 51.295883,148.015823 50.503189Z" style="fill: rgb(100.000000%,100.000000%,100.000000%);stroke: none;"></path>
  <path d="M136.521805 14.470230C136.521805 13.677536,136.206863 12.917389,135.646378 12.356918C135.085907 11.796432,134.325760 11.481491,133.533066 11.481491C132.740372 11.481491,131.980225 11.796432,131.419754 12.356918C130.859268 12.917389,130.544327 13.677536,130.544327 14.470230C130.544327 15.262924,130.859268 16.023071,131.419754 16.583542C131.980225 17.144028,132.740372 17.458969,133.533066 17.458969C134.325760 17.458969,135.085907 17.144028,135.646378 16.583542C136.206863 16.023071,136.521805 15.262924,136.521805 14.470230Z" style="fill: rgb(100.000000%,100.000000%,100.000000%);stroke: none;"></path>
  <path d="M154.511536 96.586609C154.511536 95.793915,154.196594 95.033768,153.636108 94.473297C153.075638 93.912811,152.315491 93.597870,151.522797 93.597870C150.730103 93.597870,149.969955 93.912811,149.409485 94.473297C148.848999 95.033768,148.534058 95.793915,148.534058 96.586609C148.534058 97.379303,148.848999 98.139450,149.409485 98.699921C149.969955 99.260406,150.730103 99.575348,151.522797 99.575348C152.315491 99.575348,153.075638 99.260406,153.636108 98.699921C154.196594 98.139450,154.511536 97.379303,154.511536 96.586609Z" style="fill: rgb(100.000000%,100.000000%,100.000000%);stroke: none;"></path>
  <path d="M140.010834 68.333847C140.010834 67.541153,139.695892 66.781006,139.135406 66.220535C138.574936 65.660049,137.814789 65.345108,137.022095 65.345108C136.229401 65.345108,135.469254 65.660049,134.908783 66.220535C134.348297 66.781006,134.033356 67.541153,134.033356 68.333847C134.033356 69.126541,134.348297 69.886688,134.908783 70.447159C135.469254 71.007645,136.229401 71.322586,137.022095 71.322586C137.814789 71.322586,138.574936 71.007645,139.135406 70.447159C139.695892 69.886688,140.010834 69.126541,140.010834 68.333847Z" style="fill: rgb(100.000000%,100.000000%,100.000000%);stroke: none;"></path>
  <path d="M191.313110 133.740982C191.313110 132.948288,190.998169 132.188141,190.437683 131.627670C189.877213 131.067184,189.117065 130.752243,188.324371 130.752243C187.531677 130.752243,186.771530 131.067184,186.211060 131.627670C185.650574 132.188141,185.335632 132.948288,185.335632 133.740982C185.335632 134.533676,185.650574 135.293823,186.211060 135.854294C186.771530 136.414780,187.531677 136.729721,188.324371 136.729721C189.117065 136.729721,189.877213 136.414780,190.437683 135.854294C190.998169 135.293823,191.313110 134.533676,191.313110 133.740982Z" style="fill: rgb(100.000000%,100.000000%,100.000000%);stroke: none;"></path>
  <path d="M171.274841 101.379456C171.274841 100.586761,170.959900 99.826614,170.399414 99.266144C169.838943 98.705658,169.078796 98.390717,168.286102 98.390717C167.493408 98.390717,166.733261 98.705658,166.172791 99.266144C165.612305 99.826614,165.297363 100.586761,165.297363 101.379456C165.297363 102.172150,165.612305 102.932297,166.172791 103.492767C166.733261 104.053253,167.493408 104.368195,168.286102 104.368195C169.078796 104.368195,169.838943 104.053253,170.399414 103.492767C170.959900 102.932297,171.274841 102.172150,171.274841 101.379456Z" style="fill: rgb(100.000000%,100.000000%,100.000000%);stroke: none;"></path>
  <path d="M161.208191 176.484741C147.959503 193.878647,122.933731 196.832001,106.000000 183.000000C94.517090 173.620407,89.814438 158.078110,95.485016 144.507828C98.013916 138.455917,102.511780 133.522110,106.000000 127.981293C108.274521 124.368362,111.097702 120.493408,115.014038 121.440948C119.187485 122.450699,119.725601 127.615494,119.812164 132.235474C119.921768 138.084778,121.037079 143.870499,121.175629 149.718994C121.484802 162.770477,116.770111 175.803101,106.000000 183.000000C87.625534 195.278351,64.029816 185.673462,46.692261 170.088242C28.372543 153.620148,15.054260 130.674515,21.697433 107.509232C25.021194 95.918976,33.217712 86.660034,42.137222 78.565491C45.711258 75.322021,49.433640 72.214661,52.518906 68.499420C53.445450 67.383698,54.418091 66.171982,55.854340 65.983887C57.260376 65.799744,58.494095 66.682861,59.675140 67.467499C63.322250 69.890488,67.480728 71.502304,70.888687 74.258911C75.889130 78.303635,78.708694 84.255981,81.767899 89.892807C85.627487 97.004379,90.033035 103.798798,94.597168 110.479050C98.527100 116.231049,102.581512 121.909668,106.000000 127.981293C107.484741 130.618362,109.074936 133.460281,111.986649 134.247894C114.692642 134.979874,117.348862 133.587112,119.812164 132.235474C125.821609 128.938019,131.987198 125.869125,138.583633 123.991135C151.153381 120.412552,165.073883 121.176208,176.173401 114.117340C194.398270 102.527023,197.668854 77.762100,187.126526 57.957535C177.731903 40.309006,158.691299 29.301102,140.014038 34.787628C123.941238 39.509079,115.008072 55.140259,104.259949 67.856644C97.473831 75.885483,89.623032 82.912109,81.767899 89.892807C75.200302 95.729309,68.569962 101.579849,60.870834 105.828568C48.502487 112.653961,33.575775 114.831650,21.697433 107.509232C4.477829 96.894180,2.547577 73.845840,8.599182 53.531815C13.678040 36.483109,25.314270 20.884384,42.037399 22.031891C52.512894 22.750702,60.946869 31.125946,59.575317 41.045258C58.960831 45.489380,56.192520 49.192505,53.478882 52.752548C51.586319 55.235428,49.652847 57.895691,49.737991 61.017410C49.811737 63.721527,51.431015 66.038177,52.518906 68.499420C53.409363 70.513977,54.508698 72.749146,56.565063 72.518875C58.708740 72.278824,59.201813 69.704788,59.675140 67.467499C60.320053 64.419220,61.991074 61.407639,60.983612 58.424774C59.927734 55.298553,56.606369 53.899124,53.478882 52.752548C50.115265 51.519409,46.704742 50.227539,44.033676 47.830093C36.898972 41.426285,36.935226 30.529053,42.037399 22.031891C51.259384 6.673599,70.784698 3.210068,89.094894 4.472656C111.112961 5.990906,133.533066 14.470230,140.014038 34.787628C145.027084 50.503189,137.022095 68.333847,144.644989 83.186081C151.522797 96.586609,168.286102 101.379456,176.173401 114.117340C188.324371 133.740982,175.851227 157.260239,161.208191 176.484741" style="stroke:rgb(0.000000%,0.000000%,0.000000%); stroke-width: 0.498138;stroke-linecap: round;stroke-linejoin: round;stroke-miterlimit: 10.000000;fill: none;"></path>
  <path d="M161.208191 176.484741C147.959503 193.878647,122.933731 196.832001,106.000000 183.000000C94.517090 173.620407,89.814438 158.078110,95.485016 144.507828C98.013916 138.455917,102.511780 133.522110,106.000000 127.981293" style="stroke:rgb(0.000000%,0.000000%,0.000000%); stroke-width: 1.494400;stroke-linecap: round;stroke-linejoin: round;stroke-miterlimit: 10.000000;fill: none;"></path>
  <path d="M176.173401 114.117340C188.324371 133.740982,175.851227 157.260239,161.208191 176.484741" style="stroke:rgb(0.000000%,0.000000%,0.000000%); stroke-width: 1.494400;stroke-linecap: round;stroke-linejoin: round;stroke-miterlimit: 10.000000;fill: none;"></path>
  <path d="M108.988739 183.000000C108.988739 182.207306,108.673798 181.447159,108.113312 180.886688C107.552841 180.326202,106.792694 180.011261,106.000000 180.011261C105.207306 180.011261,104.447159 180.326202,103.886688 180.886688C103.326202 181.447159,103.011261 182.207306,103.011261 183.000000C103.011261 183.792694,103.326202 184.552841,103.886688 185.113312C104.447159 185.673798,105.207306 185.988739,106.000000 185.988739C106.792694 185.988739,107.552841 185.673798,108.113312 185.113312C108.673798 184.552841,108.988739 183.792694,108.988739 183.000000Z" style="fill: rgb(100.000000%,100.000000%,100.000000%);stroke: none;"></path>
  <path d="M134.985977 191.452103C124.956726 192.635666,114.466858 189.916000,106.000000 183.000000C100.258545 178.310196,96.212143 172.079727,94.309937 165.325409" style="stroke:rgb(0.000000%,0.000000%,0.000000%); stroke-width: 1.494400;stroke-linecap: round;stroke-linejoin: round;stroke-miterlimit: 10.000000;fill: none;"></path>
  <path d="M122.800903 132.235474C122.800903 131.442780,122.485962 130.682632,121.925476 130.122162C121.365005 129.561676,120.604858 129.246735,119.812164 129.246735C119.019470 129.246735,118.259323 129.561676,117.698853 130.122162C117.138367 130.682632,116.823425 131.442780,116.823425 132.235474C116.823425 133.028168,117.138367 133.788315,117.698853 134.348785C118.259323 134.909271,119.019470 135.224213,119.812164 135.224213C120.604858 135.224213,121.365005 134.909271,121.925476 134.348785C122.485962 133.788315,122.800903 133.028168,122.800903 132.235474Z" style="fill: rgb(100.000000%,100.000000%,100.000000%);stroke: none;"></path>
  <path d="M118.945694 125.484390C119.612717 127.479294,119.768890 129.925491,119.812164 132.235474C119.866974 135.160126,120.173203 138.068893,120.483047 140.977554" style="stroke:rgb(0.000000%,0.000000%,0.000000%); stroke-width: 0.498138;stroke-linecap: round;stroke-linejoin: round;stroke-miterlimit: 10.000000;fill: none;"></path>
  <path d="M24.686172 107.509232C24.686172 106.716537,24.371231 105.956390,23.810745 105.395920C23.250275 104.835434,22.490128 104.520493,21.697433 104.520493C20.904739 104.520493,20.144592 104.835434,19.584122 105.395920C19.023636 105.956390,18.708694 106.716537,18.708694 107.509232C18.708694 108.301926,19.023636 109.062073,19.584122 109.622543C20.144592 110.183029,20.904739 110.497971,21.697433 110.497971C22.490128 110.497971,23.250275 110.183029,23.810745 109.622543C24.371231 109.062073,24.686172 108.301926,24.686172 107.509232Z" style="fill: rgb(100.000000%,100.000000%,100.000000%);stroke: none;"></path>
  <path d="M24.833755 141.310165C20.044617 130.619598,18.375854 119.091873,21.697433 107.509232C23.359314 101.714096,26.239395 96.501801,29.818939 91.726456" style="stroke:rgb(0.000000%,0.000000%,0.000000%); stroke-width: 0.498138;stroke-linecap: round;stroke-linejoin: round;stroke-miterlimit: 10.000000;fill: none;"></path>
  <path d="M62.663879 67.467499C62.663879 66.674805,62.348938 65.914658,61.788452 65.354187C61.227982 64.793701,60.467834 64.478760,59.675140 64.478760C58.882446 64.478760,58.122299 64.793701,57.561829 65.354187C57.001343 65.914658,56.686401 66.674805,56.686401 67.467499C56.686401 68.260193,57.001343 69.020340,57.561829 69.580811C58.122299 70.141296,58.882446 70.456238,59.675140 70.456238C60.467834 70.456238,61.227982 70.141296,61.788452 69.580811C62.348938 69.020340,62.663879 68.260193,62.663879 67.467499Z" style="fill: rgb(100.000000%,100.000000%,100.000000%);stroke: none;"></path>
  <path d="M57.849121 66.362411C58.480942 66.658249,59.084625 67.075180,59.675140 67.467499C61.498703 68.679001,63.450104 69.687698,65.371613 70.738113" style="stroke:rgb(0.000000%,0.000000%,0.000000%); stroke-width: 0.498138;stroke-linecap: round;stroke-linejoin: round;stroke-miterlimit: 10.000000;fill: none;"></path>
  <path d="M108.988739 127.981293C108.988739 127.188599,108.673798 126.428452,108.113312 125.867981C107.552841 125.307495,106.792694 124.992554,106.000000 124.992554C105.207306 124.992554,104.447159 125.307495,103.886688 125.867981C103.326202 126.428452,103.011261 127.188599,103.011261 127.981293C103.011261 128.773987,103.326202 129.534134,103.886688 130.094604C104.447159 130.655090,105.207306 130.970032,106.000000 130.970032C106.792694 130.970032,107.552841 130.655090,108.113312 130.094604C108.673798 129.534134,108.988739 128.773987,108.988739 127.981293Z" style="fill: rgb(100.000000%,100.000000%,100.000000%);stroke: none;"></path>
  <path d="M100.490387 119.110321C102.422531 122.007919,104.290756 124.945480,106.000000 127.981293C106.742371 129.299835,107.511108 130.669586,108.458221 131.808151" style="stroke:rgb(0.000000%,0.000000%,0.000000%); stroke-width: 0.498138;stroke-linecap: round;stroke-linejoin: round;stroke-miterlimit: 10.000000;fill: none;"></path>
  <path d="M179.162140 114.117340C179.162140 113.324646,178.847198 112.564499,178.286713 112.004028C177.726242 111.443542,176.966095 111.128601,176.173401 111.128601C175.380707 111.128601,174.620560 111.443542,174.060089 112.004028C173.499603 112.564499,173.184662 113.324646,173.184662 114.117340C173.184662 114.910034,173.499603 115.670181,174.060089 116.230652C174.620560 116.791138,175.380707 117.106079,176.173401 117.106079C176.966095 117.106079,177.726242 116.791138,178.286713 116.230652C178.847198 115.670181,179.162140 114.910034,179.162140 114.117340Z" style="fill: rgb(100.000000%,100.000000%,100.000000%);stroke: none;"></path>
  <path d="M157.929855 120.359344C164.368637 119.220581,170.623642 117.646774,176.173401 114.117340C185.285843 108.322174,190.659714 99.233368,192.437668 89.117767" style="stroke:rgb(0.000000%,0.000000%,0.000000%); stroke-width: 0.498138;stroke-linecap: round;stroke-linejoin: round;stroke-miterlimit: 10.000000;fill: none;"></path>
  <path d="M84.756638 89.892807C84.756638 89.100113,84.441696 88.339966,83.881210 87.779495C83.320740 87.219009,82.560593 86.904068,81.767899 86.904068C80.975204 86.904068,80.215057 87.219009,79.654587 87.779495C79.094101 88.339966,78.779160 89.100113,78.779160 89.892807C78.779160 90.685501,79.094101 91.445648,79.654587 92.006119C80.215057 92.566605,80.975204 92.881546,81.767899 92.881546C82.560593 92.881546,83.320740 92.566605,83.881210 92.006119C84.441696 91.445648,84.756638 90.685501,84.756638 89.892807Z" style="fill: rgb(100.000000%,100.000000%,100.000000%);stroke: none;"></path>
  <path d="M93.414795 79.267792C89.621948 82.900635,85.695465 86.402466,81.767899 89.892807C78.484100 92.811066,75.184616 95.732834,71.743683 98.456116" style="stroke:rgb(0.000000%,0.000000%,0.000000%); stroke-width: 0.498138;stroke-linecap: round;stroke-linejoin: round;stroke-miterlimit: 10.000000;fill: none;"></path>
  <path d="M45.026138 22.031891C45.026138 21.239197,44.711197 20.479050,44.150711 19.918579C43.590240 19.358093,42.830093 19.043152,42.037399 19.043152C41.244705 19.043152,40.484558 19.358093,39.924088 19.918579C39.363602 20.479050,39.048660 21.239197,39.048660 22.031891C39.048660 22.824585,39.363602 23.584732,39.924088 24.145203C40.484558 24.705688,41.244705 25.020630,42.037399 25.020630C42.830093 25.020630,43.590240 24.705688,44.150711 24.145203C44.711197 23.584732,45.026138 22.824585,45.026138 22.031891Z" style="fill: rgb(100.000000%,100.000000%,100.000000%);stroke: none;"></path>
  <path d="M20.951691 30.958267C26.585999 25.070938,33.675842 21.458145,42.037399 22.031891C47.275146 22.391296,52.002518 24.664810,55.249008 28.088394" style="stroke:rgb(0.000000%,0.000000%,0.000000%); stroke-width: 0.498138;stroke-linecap: round;stroke-linejoin: round;stroke-miterlimit: 10.000000;fill: none;"></path>
  <path d="M55.507645 68.499420C55.507645 67.706726,55.192703 66.946579,54.632217 66.386108C54.071747 65.825623,53.311600 65.510681,52.518906 65.510681C51.726212 65.510681,50.966064 65.825623,50.405594 66.386108C49.845108 66.946579,49.530167 67.706726,49.530167 68.499420C49.530167 69.292114,49.845108 70.052261,50.405594 70.612732C50.966064 71.173218,51.726212 71.488159,52.518906 71.488159C53.311600 71.488159,54.071747 71.173218,54.632217 70.612732C55.192703 70.052261,55.507645 69.292114,55.507645 68.499420Z" style="fill: rgb(100.000000%,100.000000%,100.000000%);stroke: none;"></path>
  <path d="M50.748154 64.849503C51.298172 66.074326,51.974960 67.268799,52.518906 68.499420C52.964142 69.506699,53.461594 70.569138,54.104782 71.350967" style="stroke:rgb(0.000000%,0.000000%,0.000000%); stroke-width: 0.498138;stroke-linecap: round;stroke-linejoin: round;stroke-miterlimit: 10.000000;fill: none;"></path>
  <path d="M56.467621 52.752548C56.467621 51.959854,56.152679 51.199707,55.592194 50.639236C55.031723 50.078751,54.271576 49.763809,53.478882 49.763809C52.686188 49.763809,51.926041 50.078751,51.365570 50.639236C50.805084 51.199707,50.490143 51.959854,50.490143 52.752548C50.490143 53.545242,50.805084 54.305389,51.365570 54.865860C51.926041 55.426346,52.686188 55.741287,53.478882 55.741287C54.271576 55.741287,55.031723 55.426346,55.592194 54.865860C56.152679 54.305389,56.467621 53.545242,56.467621 52.752548Z" style="fill: rgb(100.000000%,100.000000%,100.000000%);stroke: none;"></path>
  <path d="M58.008087 54.846283C56.654831 53.962326,55.042618 53.325836,53.478882 52.752548C51.797073 52.135971,50.103531 51.504715,48.496567 50.727921" style="stroke:rgb(0.000000%,0.000000%,0.000000%); stroke-width: 0.498138;stroke-linecap: round;stroke-linejoin: round;stroke-miterlimit: 10.000000;fill: none;"></path>
  <path d="M143.002777 34.787628C143.002777 33.994934,142.687836 33.234787,142.127350 32.674316C141.566879 32.113831,140.806732 31.798889,140.014038 31.798889C139.221344 31.798889,138.461197 32.113831,137.900726 32.674316C137.340240 33.234787,137.025299 33.994934,137.025299 34.787628C137.025299 35.580322,137.340240 36.340469,137.900726 36.900940C138.461197 37.461426,139.221344 37.776367,140.014038 37.776367C140.806732 37.776367,141.566879 37.461426,142.127350 36.900940C142.687836 36.340469,143.002777 35.580322,143.002777 34.787628Z" style="fill: rgb(100.000000%,100.000000%,100.000000%);stroke: none;"></path>
  <path d="M120.380890 12.580475C129.548294 17.429764,136.773560 24.628937,140.014038 34.787628C142.520569 42.645416,141.772568 51.031967,141.350815 59.310608" style="stroke:rgb(0.000000%,0.000000%,0.000000%); stroke-width: 0.498138;stroke-linecap: round;stroke-linejoin: round;stroke-miterlimit: 10.000000;fill: none;"></path>
  <path d="M95.485016 144.507828C97.508148 139.666275,100.791412 135.540314,103.809769 131.246689" style="stroke:rgb(0.000000%,0.000000%,0.000000%); stroke-width: 0.498138;stroke-linecap: round;stroke-linejoin: round;stroke-miterlimit: 10.000000;fill: none;"></path>
  <path d="M102.680984 136.117538C103.051102 134.494354,103.446014 132.873215,103.809769 131.246689C102.402405 132.139572,100.976822 133.006622,99.567337 133.892654Z" style="stroke:rgb(0.000000%,0.000000%,0.000000%); stroke-width: 0.498138;fill: rgb(0.000000%,0.000000%,0.000000%);"></path>
  <path d="M95.485016 144.507828C97.508148 139.666275,100.791412 135.540314,103.809769 131.246689" style="stroke:rgb(0.000000%,0.000000%,0.000000%); stroke-width: 0.498138;stroke-linecap: round;stroke-linejoin: round;stroke-miterlimit: 10.000000;fill: none;"></path>
  <path d="M103.133636 134.169464C103.362167 133.196075,103.591583 132.222351,103.809769 131.246689C102.965576 131.782288,102.114822 132.308594,101.264923 132.835266Z" style="stroke:rgb(0.000000%,0.000000%,0.000000%); stroke-width: 0.498138;fill: rgb(0.000000%,0.000000%,0.000000%);"></path>
  <path d="M115.014038 121.440948C118.352814 122.248749,119.364944 125.715805,119.680573 129.435760" style="stroke:rgb(0.000000%,0.000000%,0.000000%); stroke-width: 0.498138;stroke-linecap: round;stroke-linejoin: round;stroke-miterlimit: 10.000000;fill: none;"></path>
  <path d="M118.126907 126.869446C118.694427 127.647293,119.208237 128.522568,119.680573 129.435760C119.992325 128.456039,120.247925 127.473831,120.396683 126.522522Z" style="stroke:rgb(0.000000%,0.000000%,0.000000%); stroke-width: 0.498138;fill: rgb(0.000000%,0.000000%,0.000000%);"></path>
  <path d="M42.137222 78.565491C44.996460 75.970703,47.950653 73.463028,50.597595 70.661545" style="stroke:rgb(0.000000%,0.000000%,0.000000%); stroke-width: 0.498138;stroke-linecap: round;stroke-linejoin: round;stroke-miterlimit: 10.000000;fill: none;"></path>
  <path d="M49.457809 73.436539C49.858398 72.519577,50.241333 71.595734,50.597595 70.661545C49.685089 71.070190,48.761047 71.452652,47.829422 71.817764Z" style="stroke:rgb(0.000000%,0.000000%,0.000000%); stroke-width: 0.498138;fill: rgb(0.000000%,0.000000%,0.000000%);"></path>
  <path d="M55.854340 65.983887C56.979172 65.836578,57.993729 66.372314,58.959244 66.994247" style="stroke:rgb(0.000000%,0.000000%,0.000000%); stroke-width: 0.498138;stroke-linecap: round;stroke-linejoin: round;stroke-miterlimit: 10.000000;fill: none;"></path>
  <path d="M55.961792 67.117065C56.883804 66.701599,57.926682 66.806839,58.959244 66.994247C58.361649 66.131577,57.698654 65.319733,56.752899 64.961548Z" style="stroke:rgb(0.000000%,0.000000%,0.000000%); stroke-width: 0.498138;fill: rgb(0.000000%,0.000000%,0.000000%);"></path>
  <path d="M111.986649 134.247894C114.151459 134.833481,116.284409 134.059219,118.312195 133.034058" style="stroke:rgb(0.000000%,0.000000%,0.000000%); stroke-width: 0.498138;stroke-linecap: round;stroke-linejoin: round;stroke-miterlimit: 10.000000;fill: none;"></path>
  <path d="M116.174561 135.138916C116.947174 134.538681,117.649063 133.805557,118.312195 133.034058C117.297745 133.110672,116.283051 133.132736,115.312317 133.010834Z" style="stroke:rgb(0.000000%,0.000000%,0.000000%); stroke-width: 0.498138;fill: rgb(0.000000%,0.000000%,0.000000%);"></path>
  <path d="M138.583633 123.991135C148.639465 121.128250,159.559799 121.044434,169.208664 117.511246" style="stroke:rgb(0.000000%,0.000000%,0.000000%); stroke-width: 0.498138;stroke-linecap: round;stroke-linejoin: round;stroke-miterlimit: 10.000000;fill: none;"></path>
  <path d="M166.935394 119.468994C167.714081 118.838928,168.473175 118.187866,169.208664 117.511246C168.210144 117.469604,167.213013 117.393188,166.216888 117.288086Z" style="stroke:rgb(0.000000%,0.000000%,0.000000%); stroke-width: 0.498138;fill: rgb(0.000000%,0.000000%,0.000000%);"></path>
  <path d="M60.870834 105.828568C50.976120 111.288910,39.444031 113.774689,29.145264 110.801453" style="stroke:rgb(0.000000%,0.000000%,0.000000%); stroke-width: 0.498138;stroke-linecap: round;stroke-linejoin: round;stroke-miterlimit: 10.000000;fill: none;"></path>
  <path d="M32.107208 110.324524C31.129120 110.529861,30.141357 110.689774,29.145264 110.801453C29.928558 111.426834,30.740082 112.012253,31.576874 112.558655Z" style="stroke:rgb(0.000000%,0.000000%,0.000000%); stroke-width: 0.498138;fill: rgb(0.000000%,0.000000%,0.000000%);"></path>
  <path d="M59.575317 41.045258C59.083725 44.600571,57.213669 47.681641,55.095932 50.594604" style="stroke:rgb(0.000000%,0.000000%,0.000000%); stroke-width: 0.498138;stroke-linecap: round;stroke-linejoin: round;stroke-miterlimit: 10.000000;fill: none;"></path>
  <path d="M55.706070 47.657288C55.542175 48.638931,55.330444 49.619125,55.095932 50.594604C55.951538 50.070663,56.794373 49.527298,57.604385 48.949066Z" style="stroke:rgb(0.000000%,0.000000%,0.000000%); stroke-width: 0.498138;fill: rgb(0.000000%,0.000000%,0.000000%);"></path>
  <path d="M56.565063 72.518875C58.280014 72.326828,58.938568 70.641037,59.375732 68.828903" style="stroke:rgb(0.000000%,0.000000%,0.000000%); stroke-width: 0.498138;stroke-linecap: round;stroke-linejoin: round;stroke-miterlimit: 10.000000;fill: none;"></path>
  <path d="M59.368164 71.828888C59.627380 70.964264,59.544495 69.902023,59.375732 68.828903C58.736237 69.707047,58.043701 70.516754,57.249023 70.944824Z" style="stroke:rgb(0.000000%,0.000000%,0.000000%); stroke-width: 0.498138;fill: rgb(0.000000%,0.000000%,0.000000%);"></path>
  <path d="M60.983612 58.424774C60.138901 55.923782,57.844269 54.527954,55.358932 53.482620" style="stroke:rgb(0.000000%,0.000000%,0.000000%); stroke-width: 0.498138;stroke-linecap: round;stroke-linejoin: round;stroke-miterlimit: 10.000000;fill: none;"></path>
  <path d="M58.348495 53.732483C57.389389 53.550278,56.377151 53.488144,55.358932 53.482620C56.074997 54.206528,56.746811 54.966232,57.296158 55.773285Z" style="stroke:rgb(0.000000%,0.000000%,0.000000%); stroke-width: 0.498138;fill: rgb(0.000000%,0.000000%,0.000000%);"></path>
  <path d="M144.644989 83.186081C150.147263 93.906540,161.976288 99.118042,170.526093 107.295685" style="stroke:rgb(0.000000%,0.000000%,0.000000%); stroke-width: 0.498138;stroke-linecap: round;stroke-linejoin: round;stroke-miterlimit: 10.000000;fill: none;"></path>
  <path d="M167.699295 106.290527C168.652786 106.601761,169.596176 106.934525,170.526093 107.295685C170.123947 106.382736,169.692184 105.480362,169.238052 104.586060Z" style="stroke:rgb(0.000000%,0.000000%,0.000000%); stroke-width: 0.498138;fill: rgb(0.000000%,0.000000%,0.000000%);"></path>
  <path d="M158.217545 179.194946L164.198837 179.194946L164.198837 171.774551L158.217545 171.774551Z" style="fill: rgb(100.000000%,100.000000%,100.000000%);stroke: none;"></path>
  <path d="M158.217545 181.194946L164.198837 181.194946L164.198837 173.774551L158.217545 173.774551Z" style="fill: rgb(100.000000%,100.000000%,100.000000%);stroke: none;"></path>
  <g transform="translate(158.717545 179.694946)" style="fill: rgb(0.000000%,0.000000%,0.000000%);">
    <use xlink:href="#GLYPHcmr10_49"></use>
  </g>
  <path d="M118.184982 152.429199L124.166275 152.429199L124.166275 145.008804L118.184982 145.008804Z" style="fill: rgb(100.000000%,100.000000%,100.000000%);stroke: none;"></path>
  <path d="M118.184982 154.429199L124.166275 154.429199L124.166275 147.008804L118.184982 147.008804Z" style="fill: rgb(100.000000%,100.000000%,100.000000%);stroke: none;"></path>
  <g transform="translate(118.684982 152.929199)" style="fill: rgb(0.000000%,0.000000%,0.000000%);">
    <use xlink:href="#GLYPHcmr10_50"></use>
  </g>
  <path d="M43.701614 172.798447L49.682907 172.798447L49.682907 165.378052L43.701614 165.378052Z" style="fill: rgb(100.000000%,100.000000%,100.000000%);stroke: none;"></path>
  <path d="M43.701614 174.798447L49.682907 174.798447L49.682907 167.378052L43.701614 167.378052Z" style="fill: rgb(100.000000%,100.000000%,100.000000%);stroke: none;"></path>
  <g transform="translate(44.201614 173.298447)" style="fill: rgb(0.000000%,0.000000%,0.000000%);">
    <use xlink:href="#GLYPHcmr10_51"></use>
  </g>
  <path d="M67.898041 76.969116L73.879333 76.969116L73.879333 69.548721L67.898041 69.548721Z" style="fill: rgb(100.000000%,100.000000%,100.000000%);stroke: none;"></path>
  <path d="M67.898041 78.969116L73.879333 78.969116L73.879333 71.548721L67.898041 71.548721Z" style="fill: rgb(100.000000%,100.000000%,100.000000%);stroke: none;"></path>
  <g transform="translate(68.398041 77.469116)" style="fill: rgb(0.000000%,0.000000%,0.000000%);">
    <use xlink:href="#GLYPHcmr10_52"></use>
  </g>
  <path d="M91.606522 113.189255L97.587814 113.189255L97.587814 105.768860L91.606522 105.768860Z" style="fill: rgb(100.000000%,100.000000%,100.000000%);stroke: none;"></path>
  <path d="M91.606522 115.189255L97.587814 115.189255L97.587814 107.768860L91.606522 107.768860Z" style="fill: rgb(100.000000%,100.000000%,100.000000%);stroke: none;"></path>
  <g transform="translate(92.106522 113.689255)" style="fill: rgb(0.000000%,0.000000%,0.000000%);">
    <use xlink:href="#GLYPHcmr10_53"></use>
  </g>
  <path d="M184.135880 60.667740L190.117172 60.667740L190.117172 53.247345L184.135880 53.247345Z" style="fill: rgb(100.000000%,100.000000%,100.000000%);stroke: none;"></path>
  <path d="M184.135880 62.667740L190.117172 62.667740L190.117172 55.247345L184.135880 55.247345Z" style="fill: rgb(100.000000%,100.000000%,100.000000%);stroke: none;"></path>
  <g transform="translate(184.635880 61.167740)" style="fill: rgb(0.000000%,0.000000%,0.000000%);">
    <use xlink:href="#GLYPHcmr10_54"></use>
  </g>
  <path d="M101.269302 70.566849L107.250595 70.566849L107.250595 63.146454L101.269302 63.146454Z" style="fill: rgb(100.000000%,100.000000%,100.000000%);stroke: none;"></path>
  <path d="M101.269302 72.566849L107.250595 72.566849L107.250595 65.146454L101.269302 65.146454Z" style="fill: rgb(100.000000%,100.000000%,100.000000%);stroke: none;"></path>
  <g transform="translate(101.769302 71.066849)" style="fill: rgb(0.000000%,0.000000%,0.000000%);">
    <use xlink:href="#GLYPHcmr10_55"></use>
  </g>
  <path d="M5.608536 56.242020L11.589828 56.242020L11.589828 48.821625L5.608536 48.821625Z" style="fill: rgb(100.000000%,100.000000%,100.000000%);stroke: none;"></path>
  <path d="M5.608536 58.242020L11.589828 58.242020L11.589828 50.821625L5.608536 50.821625Z" style="fill: rgb(100.000000%,100.000000%,100.000000%);stroke: none;"></path>
  <g transform="translate(6.108536 56.742020)" style="fill: rgb(0.000000%,0.000000%,0.000000%);">
    <use xlink:href="#GLYPHcmr10_56"></use>
  </g>
  <path d="M46.747345 63.727615L52.728638 63.727615L52.728638 56.307220L46.747345 56.307220Z" style="fill: rgb(100.000000%,100.000000%,100.000000%);stroke: none;"></path>
  <path d="M46.747345 65.727615L52.728638 65.727615L52.728638 58.307220L46.747345 58.307220Z" style="fill: rgb(100.000000%,100.000000%,100.000000%);stroke: none;"></path>
  <g transform="translate(47.247345 64.227615)" style="fill: rgb(0.000000%,0.000000%,0.000000%);">
    <use xlink:href="#GLYPHcmr10_57"></use>
  </g>
  <path d="M38.552322 50.540298L49.515030 50.540298L49.515030 43.119904L38.552322 43.119904Z" style="fill: rgb(100.000000%,100.000000%,100.000000%);stroke: none;"></path>
  <path d="M38.552322 52.540298L49.515030 52.540298L49.515030 45.119904L38.552322 45.119904Z" style="fill: rgb(100.000000%,100.000000%,100.000000%);stroke: none;"></path>
  <g transform="translate(39.052322 51.040298)" style="fill: rgb(0.000000%,0.000000%,0.000000%);">
    <use xlink:href="#GLYPHcmr10_49"></use>
    <use xlink:href="#GLYPHcmr10_48" x="5.000095"></use>
  </g>
  <path d="M83.613541 7.182861L94.576248 7.182861L94.576248 -0.237534L83.613541 -0.237534Z" style="fill: rgb(100.000000%,100.000000%,100.000000%);stroke: none;"></path>
  <path d="M83.613541 9.182861L94.576248 9.182861L94.576248 1.762466L83.613541 1.762466Z" style="fill: rgb(100.000000%,100.000000%,100.000000%);stroke: none;"></path>
  <g transform="translate(84.113541 7.682861)" style="fill: rgb(0.000000%,0.000000%,0.000000%);">
    <use xlink:href="#GLYPHcmr10_49"></use>
    <use xlink:href="#GLYPHcmr10_49" x="5.000095"></use>
  </g>
</svg>
