<?xml version="1.0"?>
<!-- Created by MetaPost 1.999 on 2021.07.06:0006 -->
<svg version="1.1" xmlns="http://www.w3.org/2000/svg" xmlns:xlink="http://www.w3.org/1999/xlink" width="188.629776" height="191.885773" viewBox="0 0 188.629776 191.885773">
<!-- Original BoundingBox: -25.781952 -78.382202 162.847824 113.503571 -->
  <defs>
    <g transform="scale(0.009963,0.009963)" id="GLYPHcmr10_48">
      <path style="fill-rule: evenodd;" d="M460.000000 -320.000000C460.000000 -400.000000,455.000000 -480.000000,420.000000 -554.000000C374.000000 -650.000000,292.000000 -666.000000,250.000000 -666.000000C190.000000 -666.000000,117.000000 -640.000000,76.000000 -547.000000C44.000000 -478.000000,39.000000 -400.000000,39.000000 -320.000000C39.000000 -245.000000,43.000000 -155.000000,84.000000 -79.000000C127.000000 2.000000,200.000000 22.000000,249.000000 22.000000C303.000000 22.000000,379.000000 1.000000,423.000000 -94.000000C455.000000 -163.000000,460.000000 -241.000000,460.000000 -320.000000M249.000000 -0.000000C210.000000 -0.000000,151.000000 -25.000000,133.000000 -121.000000C122.000000 -181.000000,122.000000 -273.000000,122.000000 -332.000000C122.000000 -396.000000,122.000000 -462.000000,130.000000 -516.000000C149.000000 -635.000000,224.000000 -644.000000,249.000000 -644.000000C282.000000 -644.000000,348.000000 -626.000000,367.000000 -527.000000C377.000000 -471.000000,377.000000 -395.000000,377.000000 -332.000000C377.000000 -257.000000,377.000000 -189.000000,366.000000 -125.000000C351.000000 -30.000000,294.000000 -0.000000,249.000000 -0.000000"></path>
    </g>
    <g transform="scale(0.009963,0.009963)" id="GLYPHcmr10_49">
      <path style="fill-rule: evenodd;" d="M294.000000 -640.000000C294.000000 -664.000000,294.000000 -666.000000,271.000000 -666.000000C209.000000 -602.000000,121.000000 -602.000000,89.000000 -602.000000L89.000000 -571.000000C109.000000 -571.000000,168.000000 -571.000000,220.000000 -597.000000L220.000000 -79.000000C220.000000 -43.000000,217.000000 -31.000000,127.000000 -31.000000L95.000000 -31.000000L95.000000 -0.000000L257.000000 -0.000000L130.000000 -3.000000L217.000000 -3.000000L257.000000 -3.000000L297.000000 -3.000000L384.000000 -3.000000L419.000000 -0.000000L419.000000 -31.000000L387.000000 -31.000000C297.000000 -31.000000,294.000000 -42.000000,294.000000 -79.000000"></path>
    </g>
    <g transform="scale(0.009963,0.009963)" id="GLYPHcmr10_50">
      <path style="fill-rule: evenodd;" d="M127.000000 -77.000000L233.000000 -180.000000C389.000000 -318.000000,449.000000 -372.000000,449.000000 -472.000000C449.000000 -586.000000,359.000000 -666.000000,237.000000 -666.000000C124.000000 -666.000000,50.000000 -574.000000,50.000000 -485.000000C50.000000 -429.000000,100.000000 -429.000000,103.000000 -429.000000C120.000000 -429.000000,155.000000 -441.000000,155.000000 -482.000000C155.000000 -508.000000,137.000000 -534.000000,102.000000 -534.000000C94.000000 -534.000000,92.000000 -534.000000,89.000000 -533.000000C112.000000 -598.000000,166.000000 -635.000000,224.000000 -635.000000C315.000000 -635.000000,358.000000 -554.000000,358.000000 -472.000000C358.000000 -392.000000,308.000000 -313.000000,253.000000 -251.000000L61.000000 -37.000000C50.000000 -26.000000,50.000000 -24.000000,50.000000 -0.000000L421.000000 -0.000000L449.000000 -174.000000L424.000000 -174.000000C419.000000 -144.000000,412.000000 -100.000000,402.000000 -85.000000C395.000000 -77.000000,329.000000 -77.000000,307.000000 -77.000000"></path>
    </g>
    <g transform="scale(0.009963,0.009963)" id="GLYPHcmr10_51">
      <path style="fill-rule: evenodd;" d="M290.000000 -352.000000C372.000000 -379.000000,430.000000 -449.000000,430.000000 -528.000000C430.000000 -610.000000,342.000000 -666.000000,246.000000 -666.000000C145.000000 -666.000000,69.000000 -606.000000,69.000000 -530.000000C69.000000 -497.000000,91.000000 -478.000000,120.000000 -478.000000C151.000000 -478.000000,171.000000 -500.000000,171.000000 -529.000000C171.000000 -579.000000,124.000000 -579.000000,109.000000 -579.000000C140.000000 -628.000000,206.000000 -641.000000,242.000000 -641.000000C283.000000 -641.000000,338.000000 -619.000000,338.000000 -529.000000C338.000000 -517.000000,336.000000 -459.000000,310.000000 -415.000000C280.000000 -367.000000,246.000000 -364.000000,221.000000 -363.000000C213.000000 -362.000000,189.000000 -360.000000,182.000000 -360.000000C174.000000 -359.000000,167.000000 -358.000000,167.000000 -348.000000C167.000000 -337.000000,174.000000 -337.000000,191.000000 -337.000000L235.000000 -337.000000C317.000000 -337.000000,354.000000 -269.000000,354.000000 -171.000000C354.000000 -35.000000,285.000000 -6.000000,241.000000 -6.000000C198.000000 -6.000000,123.000000 -23.000000,88.000000 -82.000000C123.000000 -77.000000,154.000000 -99.000000,154.000000 -137.000000C154.000000 -173.000000,127.000000 -193.000000,98.000000 -193.000000C74.000000 -193.000000,42.000000 -179.000000,42.000000 -135.000000C42.000000 -44.000000,135.000000 22.000000,244.000000 22.000000C366.000000 22.000000,457.000000 -69.000000,457.000000 -171.000000C457.000000 -253.000000,394.000000 -331.000000,290.000000 -352.000000"></path>
    </g>
    <g transform="scale(0.009963,0.009963)" id="GLYPHcmr10_52">
      <path style="fill-rule: evenodd;" d="M294.000000 -165.000000L294.000000 -78.000000C294.000000 -42.000000,292.000000 -31.000000,218.000000 -31.000000L197.000000 -31.000000L197.000000 -0.000000L332.000000 -0.000000L238.000000 -3.000000L290.000000 -3.000000L332.000000 -3.000000L374.000000 -3.000000L427.000000 -3.000000L468.000000 -0.000000L468.000000 -31.000000L447.000000 -31.000000C373.000000 -31.000000,371.000000 -42.000000,371.000000 -78.000000L371.000000 -165.000000L471.000000 -165.000000L471.000000 -196.000000L371.000000 -196.000000L371.000000 -651.000000C371.000000 -671.000000,371.000000 -677.000000,355.000000 -677.000000C346.000000 -677.000000,343.000000 -677.000000,335.000000 -665.000000L28.000000 -196.000000L28.000000 -165.000000M300.000000 -196.000000L56.000000 -196.000000L300.000000 -569.000000"></path>
    </g>
    <g transform="scale(0.009963,0.009963)" id="GLYPHcmr10_53">
      <path style="fill-rule: evenodd;" d="M449.000000 -201.000000C449.000000 -320.000000,367.000000 -420.000000,259.000000 -420.000000C211.000000 -420.000000,168.000000 -404.000000,132.000000 -369.000000L132.000000 -564.000000C152.000000 -558.000000,185.000000 -551.000000,217.000000 -551.000000C340.000000 -551.000000,410.000000 -642.000000,410.000000 -655.000000C410.000000 -661.000000,407.000000 -666.000000,400.000000 -666.000000C399.000000 -666.000000,397.000000 -666.000000,392.000000 -663.000000C372.000000 -654.000000,323.000000 -634.000000,256.000000 -634.000000C216.000000 -634.000000,170.000000 -641.000000,123.000000 -662.000000C115.000000 -665.000000,113.000000 -665.000000,111.000000 -665.000000C101.000000 -665.000000,101.000000 -657.000000,101.000000 -641.000000L101.000000 -345.000000C101.000000 -327.000000,101.000000 -319.000000,115.000000 -319.000000C122.000000 -319.000000,124.000000 -322.000000,128.000000 -328.000000C139.000000 -344.000000,176.000000 -398.000000,257.000000 -398.000000C309.000000 -398.000000,334.000000 -352.000000,342.000000 -334.000000C358.000000 -297.000000,360.000000 -258.000000,360.000000 -208.000000C360.000000 -173.000000,360.000000 -113.000000,336.000000 -71.000000C312.000000 -32.000000,275.000000 -6.000000,229.000000 -6.000000C156.000000 -6.000000,99.000000 -59.000000,82.000000 -118.000000C85.000000 -117.000000,88.000000 -116.000000,99.000000 -116.000000C132.000000 -116.000000,149.000000 -141.000000,149.000000 -165.000000C149.000000 -189.000000,132.000000 -214.000000,99.000000 -214.000000C85.000000 -214.000000,50.000000 -207.000000,50.000000 -161.000000C50.000000 -75.000000,119.000000 22.000000,231.000000 22.000000C347.000000 22.000000,449.000000 -74.000000,449.000000 -201.000000"></path>
    </g>
    <g transform="scale(0.009963,0.009963)" id="GLYPHcmr10_54">
      <path style="fill-rule: evenodd;" d="M132.000000 -328.000000L132.000000 -352.000000C132.000000 -605.000000,256.000000 -641.000000,307.000000 -641.000000C331.000000 -641.000000,373.000000 -635.000000,395.000000 -601.000000C380.000000 -601.000000,340.000000 -601.000000,340.000000 -556.000000C340.000000 -525.000000,364.000000 -510.000000,386.000000 -510.000000C402.000000 -510.000000,432.000000 -519.000000,432.000000 -558.000000C432.000000 -618.000000,388.000000 -666.000000,305.000000 -666.000000C177.000000 -666.000000,42.000000 -537.000000,42.000000 -316.000000C42.000000 -49.000000,158.000000 22.000000,251.000000 22.000000C362.000000 22.000000,457.000000 -72.000000,457.000000 -204.000000C457.000000 -331.000000,368.000000 -427.000000,257.000000 -427.000000C189.000000 -427.000000,152.000000 -376.000000,132.000000 -328.000000M251.000000 -6.000000C188.000000 -6.000000,158.000000 -66.000000,152.000000 -81.000000C134.000000 -128.000000,134.000000 -208.000000,134.000000 -226.000000C134.000000 -304.000000,166.000000 -404.000000,256.000000 -404.000000C272.000000 -404.000000,318.000000 -404.000000,349.000000 -342.000000C367.000000 -305.000000,367.000000 -254.000000,367.000000 -205.000000C367.000000 -157.000000,367.000000 -107.000000,350.000000 -71.000000C320.000000 -11.000000,274.000000 -6.000000,251.000000 -6.000000"></path>
    </g>
    <g transform="scale(0.009963,0.009963)" id="GLYPHcmr10_55">
      <path style="fill-rule: evenodd;" d="M476.000000 -609.000000C485.000000 -621.000000,485.000000 -623.000000,485.000000 -644.000000L242.000000 -644.000000C120.000000 -644.000000,118.000000 -657.000000,114.000000 -676.000000L89.000000 -676.000000L56.000000 -470.000000L81.000000 -470.000000C84.000000 -486.000000,93.000000 -549.000000,106.000000 -561.000000C113.000000 -567.000000,191.000000 -567.000000,204.000000 -567.000000L411.000000 -567.000000C400.000000 -551.000000,321.000000 -442.000000,299.000000 -409.000000C209.000000 -274.000000,176.000000 -135.000000,176.000000 -33.000000C176.000000 -23.000000,176.000000 22.000000,222.000000 22.000000C268.000000 22.000000,268.000000 -23.000000,268.000000 -33.000000L268.000000 -84.000000C268.000000 -139.000000,271.000000 -194.000000,279.000000 -248.000000C283.000000 -271.000000,297.000000 -357.000000,341.000000 -419.000000"></path>
    </g>
    <g transform="scale(0.009963,0.009963)" id="GLYPHcmr10_56">
      <path style="fill-rule: evenodd;" d="M163.000000 -457.000000C117.000000 -487.000000,113.000000 -521.000000,113.000000 -538.000000C113.000000 -599.000000,178.000000 -641.000000,249.000000 -641.000000C322.000000 -641.000000,386.000000 -589.000000,386.000000 -517.000000C386.000000 -460.000000,347.000000 -412.000000,287.000000 -377.000000M309.000000 -362.000000C381.000000 -399.000000,430.000000 -451.000000,430.000000 -517.000000C430.000000 -609.000000,341.000000 -666.000000,250.000000 -666.000000C150.000000 -666.000000,69.000000 -592.000000,69.000000 -499.000000C69.000000 -481.000000,71.000000 -436.000000,113.000000 -389.000000C124.000000 -377.000000,161.000000 -352.000000,186.000000 -335.000000C128.000000 -306.000000,42.000000 -250.000000,42.000000 -151.000000C42.000000 -45.000000,144.000000 22.000000,249.000000 22.000000C362.000000 22.000000,457.000000 -61.000000,457.000000 -168.000000C457.000000 -204.000000,446.000000 -249.000000,408.000000 -291.000000C389.000000 -312.000000,373.000000 -322.000000,309.000000 -362.000000M209.000000 -320.000000L332.000000 -242.000000C360.000000 -223.000000,407.000000 -193.000000,407.000000 -132.000000C407.000000 -58.000000,332.000000 -6.000000,250.000000 -6.000000C164.000000 -6.000000,92.000000 -68.000000,92.000000 -151.000000C92.000000 -209.000000,124.000000 -273.000000,209.000000 -320.000000"></path>
    </g>
    <g transform="scale(0.009963,0.009963)" id="GLYPHcmr10_57">
      <path style="fill-rule: evenodd;" d="M367.000000 -318.000000L367.000000 -286.000000C367.000000 -52.000000,263.000000 -6.000000,205.000000 -6.000000C188.000000 -6.000000,134.000000 -8.000000,107.000000 -42.000000C151.000000 -42.000000,159.000000 -71.000000,159.000000 -88.000000C159.000000 -119.000000,135.000000 -134.000000,113.000000 -134.000000C97.000000 -134.000000,67.000000 -125.000000,67.000000 -86.000000C67.000000 -19.000000,121.000000 22.000000,206.000000 22.000000C335.000000 22.000000,457.000000 -114.000000,457.000000 -329.000000C457.000000 -598.000000,342.000000 -666.000000,253.000000 -666.000000C198.000000 -666.000000,149.000000 -648.000000,106.000000 -603.000000C65.000000 -558.000000,42.000000 -516.000000,42.000000 -441.000000C42.000000 -316.000000,130.000000 -218.000000,242.000000 -218.000000C303.000000 -218.000000,344.000000 -260.000000,367.000000 -318.000000M243.000000 -241.000000C227.000000 -241.000000,181.000000 -241.000000,150.000000 -304.000000C132.000000 -341.000000,132.000000 -391.000000,132.000000 -440.000000C132.000000 -494.000000,132.000000 -541.000000,153.000000 -578.000000C180.000000 -628.000000,218.000000 -641.000000,253.000000 -641.000000C299.000000 -641.000000,332.000000 -607.000000,349.000000 -562.000000C361.000000 -530.000000,365.000000 -467.000000,365.000000 -421.000000C365.000000 -338.000000,331.000000 -241.000000,243.000000 -241.000000"></path>
    </g>
  </defs>
  <path d="M57.603256 122.319641C57.603256 121.526947,57.288315 120.766800,56.727829 120.206329C56.167358 119.645844,55.407211 119.330902,54.614517 119.330902C53.821823 119.330902,53.061676 119.645844,52.501205 120.206329C51.940720 120.766800,51.625778 121.526947,51.625778 122.319641C51.625778 123.112335,51.940720 123.872482,52.501205 124.432953C53.061676 124.993439,53.821823 125.308380,54.614517 125.308380C55.407211 125.308380,56.167358 124.993439,56.727829 124.432953C57.288315 123.872482,57.603256 123.112335,57.603256 122.319641Z" style="fill: rgb(100.000000%,100.000000%,100.000000%);stroke: none;"></path>
  <path d="M71.500397 115.346558C71.500397 114.553864,71.185455 113.793716,70.624969 113.233246C70.064499 112.672760,69.304352 112.357819,68.511658 112.357819C67.718964 112.357819,66.958817 112.672760,66.398346 113.233246C65.837860 113.793716,65.522919 114.553864,65.522919 115.346558C65.522919 116.139252,65.837860 116.899399,66.398346 117.459869C66.958817 118.020355,67.718964 118.335297,68.511658 118.335297C69.304352 118.335297,70.064499 118.020355,70.624969 117.459869C71.185455 116.899399,71.500397 116.139252,71.500397 115.346558Z" style="fill: rgb(100.000000%,100.000000%,100.000000%);stroke: none;"></path>
  <path d="M12.823212 103.219101C12.823212 102.426407,12.508270 101.666260,11.947784 101.105789C11.387314 100.545303,10.627167 100.230362,9.834473 100.230362C9.041779 100.230362,8.281631 100.545303,7.721161 101.105789C7.160675 101.666260,6.845734 102.426407,6.845734 103.219101C6.845734 104.011795,7.160675 104.771942,7.721161 105.332413C8.281631 105.892899,9.041779 106.207840,9.834473 106.207840C10.627167 106.207840,11.387314 105.892899,11.947784 105.332413C12.508270 104.771942,12.823212 104.011795,12.823212 103.219101Z" style="fill: rgb(100.000000%,100.000000%,100.000000%);stroke: none;"></path>
  <path d="M41.055359 121.427216C41.055359 120.634521,40.740417 119.874374,40.179932 119.313904C39.619461 118.753418,38.859314 118.438477,38.066620 118.438477C37.273926 118.438477,36.513779 118.753418,35.953308 119.313904C35.392822 119.874374,35.077881 120.634521,35.077881 121.427216C35.077881 122.219910,35.392822 122.980057,35.953308 123.540527C36.513779 124.101013,37.273926 124.415955,38.066620 124.415955C38.859314 124.415955,39.619461 124.101013,40.179932 123.540527C40.740417 122.980057,41.055359 122.219910,41.055359 121.427216Z" style="fill: rgb(100.000000%,100.000000%,100.000000%);stroke: none;"></path>
  <path d="M6.086090 51.651306C6.086090 50.858612,5.771149 50.098465,5.210663 49.537994C4.650192 48.977509,3.890045 48.662567,3.097351 48.662567C2.304657 48.662567,1.544510 48.977509,0.984039 49.537994C0.423553 50.098465,0.108612 50.858612,0.108612 51.651306C0.108612 52.444000,0.423553 53.204147,0.984039 53.764618C1.544510 54.325104,2.304657 54.640045,3.097351 54.640045C3.890045 54.640045,4.650192 54.325104,5.210663 53.764618C5.771149 53.204147,6.086090 52.444000,6.086090 51.651306Z" style="fill: rgb(100.000000%,100.000000%,100.000000%);stroke: none;"></path>
  <path d="M5.195526 85.513824C5.195526 84.721130,4.880585 83.960983,4.320099 83.400513C3.759628 82.840027,2.999481 82.525085,2.206787 82.525085C1.414093 82.525085,0.653946 82.840027,0.093475 83.400513C-0.467010 83.960983,-0.781952 84.721130,-0.781952 85.513824C-0.781952 86.306519,-0.467010 87.066666,0.093475 87.627136C0.653946 88.187622,1.414093 88.502563,2.206787 88.502563C2.999481 88.502563,3.759628 88.187622,4.320099 87.627136C4.880585 87.066666,5.195526 86.306519,5.195526 85.513824Z" style="fill: rgb(100.000000%,100.000000%,100.000000%);stroke: none;"></path>
  <path d="M35.867676 29.539108C35.867676 28.746414,35.552734 27.986267,34.992249 27.425797C34.431778 26.865311,33.671631 26.550369,32.878937 26.550369C32.086243 26.550369,31.326096 26.865311,30.765625 27.425797C30.205139 27.986267,29.890198 28.746414,29.890198 29.539108C29.890198 30.331802,30.205139 31.091949,30.765625 31.652420C31.326096 32.212906,32.086243 32.527847,32.878937 32.527847C33.671631 32.527847,34.431778 32.212906,34.992249 31.652420C35.552734 31.091949,35.867676 30.331802,35.867676 29.539108Z" style="fill: rgb(100.000000%,100.000000%,100.000000%);stroke: none;"></path>
  <path d="M13.367340 36.177063C13.367340 35.384369,13.052399 34.624222,12.491913 34.063751C11.931442 33.503265,11.171295 33.188324,10.378601 33.188324C9.585907 33.188324,8.825760 33.503265,8.265289 34.063751C7.704803 34.624222,7.389862 35.384369,7.389862 36.177063C7.389862 36.969757,7.704803 37.729904,8.265289 38.290375C8.825760 38.850861,9.585907 39.165802,10.378601 39.165802C11.171295 39.165802,11.931442 38.850861,12.491913 38.290375C13.052399 37.729904,13.367340 36.969757,13.367340 36.177063Z" style="fill: rgb(100.000000%,100.000000%,100.000000%);stroke: none;"></path>
  <path d="M51.279968 42.348740C51.279968 41.556046,50.965027 40.795898,50.404541 40.235428C49.844070 39.674942,49.083923 39.360001,48.291229 39.360001C47.498535 39.360001,46.738388 39.674942,46.177917 40.235428C45.617432 40.795898,45.302490 41.556046,45.302490 42.348740C45.302490 43.141434,45.617432 43.901581,46.177917 44.462051C46.738388 45.022537,47.498535 45.337479,48.291229 45.337479C49.083923 45.337479,49.844070 45.022537,50.404541 44.462051C50.965027 43.901581,51.279968 43.141434,51.279968 42.348740Z" style="fill: rgb(100.000000%,100.000000%,100.000000%);stroke: none;"></path>
  <path d="M44.600403 31.613235C44.600403 30.820541,44.285461 30.060394,43.724976 29.499924C43.164505 28.939438,42.404358 28.624496,41.611664 28.624496C40.818970 28.624496,40.058823 28.939438,39.498352 29.499924C38.937866 30.060394,38.622925 30.820541,38.622925 31.613235C38.622925 32.405930,38.937866 33.166077,39.498352 33.726547C40.058823 34.287033,40.818970 34.601974,41.611664 34.601974C42.404358 34.601974,43.164505 34.287033,43.724976 33.726547C44.285461 33.166077,44.600403 32.405930,44.600403 31.613235Z" style="fill: rgb(100.000000%,100.000000%,100.000000%);stroke: none;"></path>
  <path d="M52.930084 60.335175C52.930084 59.542480,52.615143 58.782333,52.054657 58.221863C51.494186 57.661377,50.734039 57.346436,49.941345 57.346436C49.148651 57.346436,48.388504 57.661377,47.828033 58.221863C47.267548 58.782333,46.952606 59.542480,46.952606 60.335175C46.952606 61.127869,47.267548 61.888016,47.828033 62.448486C48.388504 63.008972,49.148651 63.323914,49.941345 63.323914C50.734039 63.323914,51.494186 63.008972,52.054657 62.448486C52.615143 61.888016,52.930084 61.127869,52.930084 60.335175Z" style="fill: rgb(100.000000%,100.000000%,100.000000%);stroke: none;"></path>
  <path d="M51.525101 47.096832C51.525101 46.304138,51.210159 45.543991,50.649673 44.983521C50.089203 44.423035,49.329056 44.108093,48.536362 44.108093C47.743668 44.108093,46.983521 44.423035,46.423050 44.983521C45.862564 45.543991,45.547623 46.304138,45.547623 47.096832C45.547623 47.889526,45.862564 48.649673,46.423050 49.210144C46.983521 49.770630,47.743668 50.085571,48.536362 50.085571C49.329056 50.085571,50.089203 49.770630,50.649673 49.210144C51.210159 48.649673,51.525101 47.889526,51.525101 47.096832Z" style="fill: rgb(100.000000%,100.000000%,100.000000%);stroke: none;"></path>
  <path d="M48.130203 91.563644C48.130203 90.770950,47.815262 90.010803,47.254776 89.450333C46.694305 88.889847,45.934158 88.574905,45.141464 88.574905C44.348770 88.574905,43.588623 88.889847,43.028152 89.450333C42.467667 90.010803,42.152725 90.770950,42.152725 91.563644C42.152725 92.356339,42.467667 93.116486,43.028152 93.676956C43.588623 94.237442,44.348770 94.552383,45.141464 94.552383C45.934158 94.552383,46.694305 94.237442,47.254776 93.676956C47.815262 93.116486,48.130203 92.356339,48.130203 91.563644Z" style="fill: rgb(100.000000%,100.000000%,100.000000%);stroke: none;"></path>
  <path d="M54.873596 69.151398C54.873596 68.358704,54.558655 67.598557,53.998169 67.038086C53.437698 66.477600,52.677551 66.162659,51.884857 66.162659C51.092163 66.162659,50.332016 66.477600,49.771545 67.038086C49.211060 67.598557,48.896118 68.358704,48.896118 69.151398C48.896118 69.944092,49.211060 70.704239,49.771545 71.264709C50.332016 71.825195,51.092163 72.140137,51.884857 72.140137C52.677551 72.140137,53.437698 71.825195,53.998169 71.264709C54.558655 70.704239,54.873596 69.944092,54.873596 69.151398Z" style="fill: rgb(100.000000%,100.000000%,100.000000%);stroke: none;"></path>
  <path d="M21.120712 131.358414C21.120712 130.565720,20.805771 129.805573,20.245285 129.245102C19.684814 128.684616,18.924667 128.369675,18.131973 128.369675C17.339279 128.369675,16.579132 128.684616,16.018661 129.245102C15.458176 129.805573,15.143234 130.565720,15.143234 131.358414C15.143234 132.151108,15.458176 132.911255,16.018661 133.471725C16.579132 134.032211,17.339279 134.347153,18.131973 134.347153C18.924667 134.347153,19.684814 134.032211,20.245285 133.471725C20.805771 132.911255,21.120712 132.151108,21.120712 131.358414Z" style="fill: rgb(100.000000%,100.000000%,100.000000%);stroke: none;"></path>
  <path d="M33.102921 99.329666C33.102921 98.536972,32.787979 97.776825,32.227493 97.216354C31.667023 96.655869,30.906876 96.340927,30.114182 96.340927C29.321487 96.340927,28.561340 96.655869,28.000870 97.216354C27.440384 97.776825,27.125443 98.536972,27.125443 99.329666C27.125443 100.122360,27.440384 100.882507,28.000870 101.442978C28.561340 102.003464,29.321487 102.318405,30.114182 102.318405C30.906876 102.318405,31.667023 102.003464,32.227493 101.442978C32.787979 100.882507,33.102921 100.122360,33.102921 99.329666Z" style="fill: rgb(100.000000%,100.000000%,100.000000%);stroke: none;"></path>
  <path d="M61.366989 175.312744C61.366989 174.520050,61.052048 173.759903,60.491562 173.199432C59.931091 172.638947,59.170944 172.324005,58.378250 172.324005C57.585556 172.324005,56.825409 172.638947,56.264938 173.199432C55.704453 173.759903,55.389511 174.520050,55.389511 175.312744C55.389511 176.105438,55.704453 176.865585,56.264938 177.426056C56.825409 177.986542,57.585556 178.301483,58.378250 178.301483C59.170944 178.301483,59.931091 177.986542,60.491562 177.426056C61.052048 176.865585,61.366989 176.105438,61.366989 175.312744Z" style="fill: rgb(100.000000%,100.000000%,100.000000%);stroke: none;"></path>
  <path d="M32.926010 150.068390C32.926010 149.275696,32.611069 148.515549,32.050583 147.955078C31.490112 147.394592,30.729965 147.079651,29.937271 147.079651C29.144577 147.079651,28.384430 147.394592,27.823959 147.955078C27.263474 148.515549,26.948532 149.275696,26.948532 150.068390C26.948532 150.861084,27.263474 151.621231,27.823959 152.181702C28.384430 152.742188,29.144577 153.057129,29.937271 153.057129C30.729965 153.057129,31.490112 152.742188,32.050583 152.181702C32.611069 151.621231,32.926010 150.861084,32.926010 150.068390Z" style="fill: rgb(100.000000%,100.000000%,100.000000%);stroke: none;"></path>
  <path d="M103.061142 172.870667C103.061142 172.077972,102.746201 171.317825,102.185715 170.757355C101.625244 170.196869,100.865097 169.881927,100.072403 169.881927C99.279709 169.881927,98.519562 170.196869,97.959091 170.757355C97.398605 171.317825,97.083664 172.077972,97.083664 172.870667C97.083664 173.663361,97.398605 174.423508,97.959091 174.983978C98.519562 175.544464,99.279709 175.859406,100.072403 175.859406C100.865097 175.859406,101.625244 175.544464,102.185715 174.983978C102.746201 174.423508,103.061142 173.663361,103.061142 172.870667Z" style="fill: rgb(100.000000%,100.000000%,100.000000%);stroke: none;"></path>
  <path d="M78.447311 184.102005C78.447311 183.309311,78.132370 182.549164,77.571884 181.988693C77.011414 181.428207,76.251266 181.113266,75.458572 181.113266C74.665878 181.113266,73.905731 181.428207,73.345261 181.988693C72.784775 182.549164,72.469833 183.309311,72.469833 184.102005C72.469833 184.894699,72.784775 185.654846,73.345261 186.215317C73.905731 186.775803,74.665878 187.090744,75.458572 187.090744C76.251266 187.090744,77.011414 186.775803,77.571884 186.215317C78.132370 185.654846,78.447311 184.894699,78.447311 184.102005Z" style="fill: rgb(100.000000%,100.000000%,100.000000%);stroke: none;"></path>
  <path d="M116.261749 150.666046C116.261749 149.873352,115.946808 149.113205,115.386322 148.552734C114.825851 147.992249,114.065704 147.677307,113.273010 147.677307C112.480316 147.677307,111.720169 147.992249,111.159698 148.552734C110.599213 149.113205,110.284271 149.873352,110.284271 150.666046C110.284271 151.458740,110.599213 152.218887,111.159698 152.779358C111.720169 153.339844,112.480316 153.654785,113.273010 153.654785C114.065704 153.654785,114.825851 153.339844,115.386322 152.779358C115.946808 152.218887,116.261749 151.458740,116.261749 150.666046Z" style="fill: rgb(100.000000%,100.000000%,100.000000%);stroke: none;"></path>
  <path d="M108.571564 164.141922C108.571564 163.349228,108.256622 162.589081,107.696136 162.028610C107.135666 161.468124,106.375519 161.153183,105.582825 161.153183C104.790131 161.153183,104.029984 161.468124,103.469513 162.028610C102.909027 162.589081,102.594086 163.349228,102.594086 164.141922C102.594086 164.934616,102.909027 165.694763,103.469513 166.255234C104.029984 166.815720,104.790131 167.130661,105.582825 167.130661C106.375519 167.130661,107.135666 166.815720,107.696136 166.255234C108.256622 165.694763,108.571564 164.934616,108.571564 164.141922Z" style="fill: rgb(100.000000%,100.000000%,100.000000%);stroke: none;"></path>
  <path d="M124.115845 136.085876C124.115845 135.293182,123.800903 134.533035,123.240417 133.972565C122.679947 133.412079,121.919800 133.097137,121.127106 133.097137C120.334412 133.097137,119.574265 133.412079,119.013794 133.972565C118.453308 134.533035,118.138367 135.293182,118.138367 136.085876C118.138367 136.878571,118.453308 137.638718,119.013794 138.199188C119.574265 138.759674,120.334412 139.074615,121.127106 139.074615C121.919800 139.074615,122.679947 138.759674,123.240417 138.199188C123.800903 137.638718,124.115845 136.878571,124.115845 136.085876Z" style="fill: rgb(100.000000%,100.000000%,100.000000%);stroke: none;"></path>
  <path d="M118.960999 145.744110C118.960999 144.951416,118.646057 144.191269,118.085571 143.630798C117.525101 143.070312,116.764954 142.755371,115.972260 142.755371C115.179565 142.755371,114.419418 143.070312,113.858948 143.630798C113.298462 144.191269,112.983521 144.951416,112.983521 145.744110C112.983521 146.536804,113.298462 147.296951,113.858948 147.857422C114.419418 148.417908,115.179565 148.732849,115.972260 148.732849C116.764954 148.732849,117.525101 148.417908,118.085571 147.857422C118.646057 147.296951,118.960999 146.536804,118.960999 145.744110Z" style="fill: rgb(100.000000%,100.000000%,100.000000%);stroke: none;"></path>
  <path d="M129.134445 120.392883C129.134445 119.600189,128.819504 118.840042,128.259018 118.279572C127.698547 117.719086,126.938400 117.404144,126.145706 117.404144C125.353012 117.404144,124.592865 117.719086,124.032394 118.279572C123.471909 118.840042,123.156967 119.600189,123.156967 120.392883C123.156967 121.185577,123.471909 121.945724,124.032394 122.506195C124.592865 123.066681,125.353012 123.381622,126.145706 123.381622C126.938400 123.381622,127.698547 123.066681,128.259018 122.506195C128.819504 121.945724,129.134445 121.185577,129.134445 120.392883Z" style="fill: rgb(100.000000%,100.000000%,100.000000%);stroke: none;"></path>
  <path d="M126.592194 131.310806C126.592194 130.518112,126.277252 129.757965,125.716766 129.197495C125.156296 128.637009,124.396149 128.322067,123.603455 128.322067C122.810760 128.322067,122.050613 128.637009,121.490143 129.197495C120.929657 129.757965,120.614716 130.518112,120.614716 131.310806C120.614716 132.103500,120.929657 132.863647,121.490143 133.424118C122.050613 133.984604,122.810760 134.299545,123.603455 134.299545C124.396149 134.299545,125.156296 133.984604,125.716766 133.424118C126.277252 132.863647,126.592194 132.103500,126.592194 131.310806Z" style="fill: rgb(100.000000%,100.000000%,100.000000%);stroke: none;"></path>
  <path d="M127.768799 99.742004C127.768799 98.949310,127.453857 98.189163,126.893372 97.628693C126.332901 97.068207,125.572754 96.753265,124.780060 96.753265C123.987366 96.753265,123.227219 97.068207,122.666748 97.628693C122.106262 98.189163,121.791321 98.949310,121.791321 99.742004C121.791321 100.534698,122.106262 101.294846,122.666748 101.855316C123.227219 102.415802,123.987366 102.730743,124.780060 102.730743C125.572754 102.730743,126.332901 102.415802,126.893372 101.855316C127.453857 101.294846,127.768799 100.534698,127.768799 99.742004Z" style="fill: rgb(100.000000%,100.000000%,100.000000%);stroke: none;"></path>
  <path d="M128.868408 114.476868C128.868408 113.684174,128.553467 112.924026,127.992981 112.363556C127.432510 111.803070,126.672363 111.488129,125.879669 111.488129C125.086975 111.488129,124.326828 111.803070,123.766357 112.363556C123.205872 112.924026,122.890930 113.684174,122.890930 114.476868C122.890930 115.269562,123.205872 116.029709,123.766357 116.590179C124.326828 117.150665,125.086975 117.465607,125.879669 117.465607C126.672363 117.465607,127.432510 117.150665,127.992981 116.590179C128.553467 116.029709,128.868408 115.269562,128.868408 114.476868Z" style="fill: rgb(100.000000%,100.000000%,100.000000%);stroke: none;"></path>
  <path d="M133.269775 70.203766C133.269775 69.411072,132.954834 68.650925,132.394348 68.090454C131.833878 67.529968,131.073730 67.215027,130.281036 67.215027C129.488342 67.215027,128.728195 67.529968,128.167725 68.090454C127.607239 68.650925,127.292297 69.411072,127.292297 70.203766C127.292297 70.996460,127.607239 71.756607,128.167725 72.317078C128.728195 72.877563,129.488342 73.192505,130.281036 73.192505C131.073730 73.192505,131.833878 72.877563,132.394348 72.317078C132.954834 71.756607,133.269775 70.996460,133.269775 70.203766Z" style="fill: rgb(100.000000%,100.000000%,100.000000%);stroke: none;"></path>
  <path d="M126.751846 90.676697C126.751846 89.884003,126.436905 89.123856,125.876419 88.563385C125.315948 88.002899,124.555801 87.687958,123.763107 87.687958C122.970413 87.687958,122.210266 88.002899,121.649796 88.563385C121.089310 89.123856,120.774368 89.884003,120.774368 90.676697C120.774368 91.469391,121.089310 92.229538,121.649796 92.790009C122.210266 93.350494,122.970413 93.665436,123.763107 93.665436C124.555801 93.665436,125.315948 93.350494,125.876419 92.790009C126.436905 92.229538,126.751846 91.469391,126.751846 90.676697Z" style="fill: rgb(100.000000%,100.000000%,100.000000%);stroke: none;"></path>
  <path d="M149.254578 35.957047C149.254578 35.164352,148.939636 34.404205,148.379150 33.843735C147.818680 33.283249,147.058533 32.968307,146.265839 32.968307C145.473145 32.968307,144.712997 33.283249,144.152527 33.843735C143.592041 34.404205,143.277100 35.164352,143.277100 35.957047C143.277100 36.749741,143.592041 37.509888,144.152527 38.070358C144.712997 38.630844,145.473145 38.945786,146.265839 38.945786C147.058533 38.945786,147.818680 38.630844,148.379150 38.070358C148.939636 37.509888,149.254578 36.749741,149.254578 35.957047Z" style="fill: rgb(100.000000%,100.000000%,100.000000%);stroke: none;"></path>
  <path d="M143.877457 61.341064C143.877457 60.548370,143.562515 59.788223,143.002029 59.227753C142.441559 58.667267,141.681412 58.352325,140.888718 58.352325C140.096024 58.352325,139.335876 58.667267,138.775406 59.227753C138.214920 59.788223,137.899979 60.548370,137.899979 61.341064C137.899979 62.133759,138.214920 62.893906,138.775406 63.454376C139.335876 64.014862,140.096024 64.329803,140.888718 64.329803C141.681412 64.329803,142.441559 64.014862,143.002029 63.454376C143.562515 62.893906,143.877457 62.133759,143.877457 61.341064Z" style="fill: rgb(100.000000%,100.000000%,100.000000%);stroke: none;"></path>
  <path d="M120.333969 7.758545C120.333969 6.965851,120.019028 6.205704,119.458542 5.645233C118.898071 5.084747,118.137924 4.769806,117.345230 4.769806C116.552536 4.769806,115.792389 5.084747,115.231918 5.645233C114.671432 6.205704,114.356491 6.965851,114.356491 7.758545C114.356491 8.551239,114.671432 9.311386,115.231918 9.871857C115.792389 10.432343,116.552536 10.747284,117.345230 10.747284C118.137924 10.747284,118.898071 10.432343,119.458542 9.871857C120.019028 9.311386,120.333969 8.551239,120.333969 7.758545Z" style="fill: rgb(100.000000%,100.000000%,100.000000%);stroke: none;"></path>
  <path d="M142.786148 22.904678C142.786148 22.111984,142.471207 21.351837,141.910721 20.791367C141.350250 20.230881,140.590103 19.915939,139.797409 19.915939C139.004715 19.915939,138.244568 20.230881,137.684097 20.791367C137.123611 21.351837,136.808670 22.111984,136.808670 22.904678C136.808670 23.697372,137.123611 24.457520,137.684097 25.017990C138.244568 25.578476,139.004715 25.893417,139.797409 25.893417C140.590103 25.893417,141.350250 25.578476,141.910721 25.017990C142.471207 24.457520,142.786148 23.697372,142.786148 22.904678Z" style="fill: rgb(100.000000%,100.000000%,100.000000%);stroke: none;"></path>
  <path d="M86.169785 23.641663C86.169785 22.848969,85.854843 22.088821,85.294357 21.528351C84.733887 20.967865,83.973740 20.652924,83.181046 20.652924C82.388351 20.652924,81.628204 20.967865,81.067734 21.528351C80.507248 22.088821,80.192307 22.848969,80.192307 23.641663C80.192307 24.434357,80.507248 25.194504,81.067734 25.754974C81.628204 26.315460,82.388351 26.630402,83.181046 26.630402C83.973740 26.630402,84.733887 26.315460,85.294357 25.754974C85.854843 25.194504,86.169785 24.434357,86.169785 23.641663Z" style="fill: rgb(100.000000%,100.000000%,100.000000%);stroke: none;"></path>
  <path d="M105.467834 6.853760C105.467834 6.061066,105.152893 5.300919,104.592407 4.740448C104.031937 4.179962,103.271790 3.865021,102.479095 3.865021C101.686401 3.865021,100.926254 4.179962,100.365784 4.740448C99.805298 5.300919,99.490356 6.061066,99.490356 6.853760C99.490356 7.646454,99.805298 8.406601,100.365784 8.967072C100.926254 9.527557,101.686401 9.842499,102.479095 9.842499C103.271790 9.842499,104.031937 9.527557,104.592407 8.967072C105.152893 8.406601,105.467834 7.646454,105.467834 6.853760Z" style="fill: rgb(100.000000%,100.000000%,100.000000%);stroke: none;"></path>
  <path d="M68.272675 49.968918C68.272675 49.176224,67.957733 48.416077,67.397247 47.855606C66.836777 47.295120,66.076630 46.980179,65.283936 46.980179C64.491241 46.980179,63.731094 47.295120,63.170624 47.855606C62.610138 48.416077,62.295197 49.176224,62.295197 49.968918C62.295197 50.761612,62.610138 51.521759,63.170624 52.082230C63.731094 52.642715,64.491241 52.957657,65.283936 52.957657C66.076630 52.957657,66.836777 52.642715,67.397247 52.082230C67.957733 51.521759,68.272675 50.761612,68.272675 49.968918Z" style="fill: rgb(100.000000%,100.000000%,100.000000%);stroke: none;"></path>
  <path d="M84.674545 37.900223C84.674545 37.107529,84.359604 36.347382,83.799118 35.786911C83.238647 35.226425,82.478500 34.911484,81.685806 34.911484C80.893112 34.911484,80.132965 35.226425,79.572495 35.786911C79.012009 36.347382,78.697067 37.107529,78.697067 37.900223C78.697067 38.692917,79.012009 39.453064,79.572495 40.013535C80.132965 40.574020,80.893112 40.888962,81.685806 40.888962C82.478500 40.888962,83.238647 40.574020,83.799118 40.013535C84.359604 39.453064,84.674545 38.692917,84.674545 37.900223Z" style="fill: rgb(100.000000%,100.000000%,100.000000%);stroke: none;"></path>
  <path d="M47.469040 52.360703C47.469040 51.568008,47.154099 50.807861,46.593613 50.247391C46.033142 49.686905,45.272995 49.371964,44.480301 49.371964C43.687607 49.371964,42.927460 49.686905,42.366989 50.247391C41.806503 50.807861,41.491562 51.568008,41.491562 52.360703C41.491562 53.153397,41.806503 53.913544,42.366989 54.474014C42.927460 55.034500,43.687607 55.349442,44.480301 55.349442C45.272995 55.349442,46.033142 55.034500,46.593613 54.474014C47.154099 53.913544,47.469040 53.153397,47.469040 52.360703Z" style="fill: rgb(100.000000%,100.000000%,100.000000%);stroke: none;"></path>
  <path d="M59.925476 50.465881C59.925476 49.673187,59.610535 48.913040,59.050049 48.352570C58.489578 47.792084,57.729431 47.477142,56.936737 47.477142C56.144043 47.477142,55.383896 47.792084,54.823425 48.352570C54.262939 48.913040,53.947998 49.673187,53.947998 50.465881C53.947998 51.258575,54.262939 52.018723,54.823425 52.579193C55.383896 53.139679,56.144043 53.454620,56.936737 53.454620C57.729431 53.454620,58.489578 53.139679,59.050049 52.579193C59.610535 52.018723,59.925476 51.258575,59.925476 50.465881Z" style="fill: rgb(100.000000%,100.000000%,100.000000%);stroke: none;"></path>
  <path d="M30.446762 49.185486C30.446762 48.392792,30.131821 47.632645,29.571335 47.072174C29.010864 46.511688,28.250717 46.196747,27.458023 46.196747C26.665329 46.196747,25.905182 46.511688,25.344711 47.072174C24.784225 47.632645,24.469284 48.392792,24.469284 49.185486C24.469284 49.978180,24.784225 50.738327,25.344711 51.298798C25.905182 51.859283,26.665329 52.174225,27.458023 52.174225C28.250717 52.174225,29.010864 51.859283,29.571335 51.298798C30.131821 50.738327,30.446762 49.978180,30.446762 49.185486Z" style="fill: rgb(100.000000%,100.000000%,100.000000%);stroke: none;"></path>
  <path d="M42.805252 53.310806C42.805252 52.518112,42.490311 51.757965,41.929825 51.197495C41.369354 50.637009,40.609207 50.322067,39.816513 50.322067C39.023819 50.322067,38.263672 50.637009,37.703201 51.197495C37.142715 51.757965,36.827774 52.518112,36.827774 53.310806C36.827774 54.103500,37.142715 54.863647,37.703201 55.424118C38.263672 55.984604,39.023819 56.299545,39.816513 56.299545C40.609207 56.299545,41.369354 55.984604,41.929825 55.424118C42.490311 54.863647,42.805252 54.103500,42.805252 53.310806Z" style="fill: rgb(100.000000%,100.000000%,100.000000%);stroke: none;"></path>
  <path d="M30.213470 18.604401C30.213470 17.811707,29.898529 17.051559,29.338043 16.491089C28.777573 15.930603,28.017426 15.615662,27.224731 15.615662C26.432037 15.615662,25.671890 15.930603,25.111420 16.491089C24.550934 17.051559,24.235992 17.811707,24.235992 18.604401C24.235992 19.397095,24.550934 20.157242,25.111420 20.717712C25.671890 21.278198,26.432037 21.593140,27.224731 21.593140C28.017426 21.593140,28.777573 21.278198,29.338043 20.717712C29.898529 20.157242,30.213470 19.397095,30.213470 18.604401Z" style="fill: rgb(100.000000%,100.000000%,100.000000%);stroke: none;"></path>
  <path d="M26.553024 40.420166C26.553024 39.627472,26.238083 38.867325,25.677597 38.306854C25.117126 37.746368,24.356979 37.431427,23.564285 37.431427C22.771591 37.431427,22.011444 37.746368,21.450974 38.306854C20.890488 38.867325,20.575546 39.627472,20.575546 40.420166C20.575546 41.212860,20.890488 41.973007,21.450974 42.533478C22.011444 43.093964,22.771591 43.408905,23.564285 43.408905C24.356979 43.408905,25.117126 43.093964,25.677597 42.533478C26.238083 41.973007,26.553024 41.212860,26.553024 40.420166Z" style="fill: rgb(100.000000%,100.000000%,100.000000%);stroke: none;"></path>
  <path d="M70.470505 2.485168C70.470505 1.692474,70.155563 0.932327,69.595078 0.371857C69.034607 -0.188629,68.274460 -0.503571,67.481766 -0.503571C66.689072 -0.503571,65.928925 -0.188629,65.368454 0.371857C64.807968 0.932327,64.493027 1.692474,64.493027 2.485168C64.493027 3.277863,64.807968 4.038010,65.368454 4.598480C65.928925 5.158966,66.689072 5.473907,67.481766 5.473907C68.274460 5.473907,69.034607 5.158966,69.595078 4.598480C70.155563 4.038010,70.470505 3.277863,70.470505 2.485168Z" style="fill: rgb(100.000000%,100.000000%,100.000000%);stroke: none;"></path>
  <path d="M42.607468 10.431763C42.607468 9.639069,42.292526 8.878922,41.732040 8.318451C41.171570 7.757965,40.411423 7.443024,39.618729 7.443024C38.826035 7.443024,38.065887 7.757965,37.505417 8.318451C36.944931 8.878922,36.629990 9.639069,36.629990 10.431763C36.629990 11.224457,36.944931 11.984604,37.505417 12.545074C38.065887 13.105560,38.826035 13.420502,39.618729 13.420502C40.411423 13.420502,41.171570 13.105560,41.732040 12.545074C42.292526 11.984604,42.607468 11.224457,42.607468 10.431763Z" style="fill: rgb(100.000000%,100.000000%,100.000000%);stroke: none;"></path>
  <path d="M102.493591 25.624619C102.493591 24.831924,102.178650 24.071777,101.618164 23.511307C101.057693 22.950821,100.297546 22.635880,99.504852 22.635880C98.712158 22.635880,97.952011 22.950821,97.391541 23.511307C96.831055 24.071777,96.516113 24.831924,96.516113 25.624619C96.516113 26.417313,96.831055 27.177460,97.391541 27.737930C97.952011 28.298416,98.712158 28.613358,99.504852 28.613358C100.297546 28.613358,101.057693 28.298416,101.618164 27.737930C102.178650 27.177460,102.493591 26.417313,102.493591 25.624619Z" style="fill: rgb(100.000000%,100.000000%,100.000000%);stroke: none;"></path>
  <path d="M86.957733 3.609253C86.957733 2.816559,86.642792 2.056412,86.082306 1.495941C85.521835 0.935455,84.761688 0.620514,83.968994 0.620514C83.176300 0.620514,82.416153 0.935455,81.855682 1.495941C81.295197 2.056412,80.980255 2.816559,80.980255 3.609253C80.980255 4.401947,81.295197 5.162094,81.855682 5.722565C82.416153 6.283051,83.176300 6.597992,83.968994 6.597992C84.761688 6.597992,85.521835 6.283051,86.082306 5.722565C86.642792 5.162094,86.957733 4.401947,86.957733 3.609253Z" style="fill: rgb(100.000000%,100.000000%,100.000000%);stroke: none;"></path>
  <path d="M121.935257 54.314651C121.935257 53.521957,121.620316 52.761810,121.059830 52.201340C120.499359 51.640854,119.739212 51.325912,118.946518 51.325912C118.153824 51.325912,117.393677 51.640854,116.833206 52.201340C116.272720 52.761810,115.957779 53.521957,115.957779 54.314651C115.957779 55.107346,116.272720 55.867493,116.833206 56.427963C117.393677 56.988449,118.153824 57.303391,118.946518 57.303391C119.739212 57.303391,120.499359 56.988449,121.059830 56.427963C121.620316 55.867493,121.935257 55.107346,121.935257 54.314651Z" style="fill: rgb(100.000000%,100.000000%,100.000000%);stroke: none;"></path>
  <path d="M100.641617 41.099274C100.641617 40.306580,100.326675 39.546432,99.766190 38.985962C99.205719 38.425476,98.445572 38.110535,97.652878 38.110535C96.860184 38.110535,96.100037 38.425476,95.539566 38.985962C94.979080 39.546432,94.664139 40.306580,94.664139 41.099274C94.664139 41.891968,94.979080 42.652115,95.539566 43.212585C96.100037 43.773071,96.860184 44.088013,97.652878 44.088013C98.445572 44.088013,99.205719 43.773071,99.766190 43.212585C100.326675 42.652115,100.641617 41.891968,100.641617 41.099274Z" style="fill: rgb(100.000000%,100.000000%,100.000000%);stroke: none;"></path>
  <path d="M160.533478 52.141205C160.533478 51.348511,160.218536 50.588364,159.658051 50.027893C159.097580 49.467407,158.337433 49.152466,157.544739 49.152466C156.752045 49.152466,155.991898 49.467407,155.431427 50.027893C154.870941 50.588364,154.556000 51.348511,154.556000 52.141205C154.556000 52.933899,154.870941 53.694046,155.431427 54.254517C155.991898 54.815002,156.752045 55.129944,157.544739 55.129944C158.337433 55.129944,159.097580 54.815002,159.658051 54.254517C160.218536 53.694046,160.533478 52.933899,160.533478 52.141205Z" style="fill: rgb(100.000000%,100.000000%,100.000000%);stroke: none;"></path>
  <path d="M134.828262 46.416321C134.828262 45.623627,134.513321 44.863480,133.952835 44.303009C133.392365 43.742523,132.632217 43.427582,131.839523 43.427582C131.046829 43.427582,130.286682 43.742523,129.726212 44.303009C129.165726 44.863480,128.850784 45.623627,128.850784 46.416321C128.850784 47.209015,129.165726 47.969162,129.726212 48.529633C130.286682 49.090118,131.046829 49.405060,131.839523 49.405060C132.632217 49.405060,133.392365 49.090118,133.952835 48.529633C134.513321 47.969162,134.828262 47.209015,134.828262 46.416321Z" style="fill: rgb(100.000000%,100.000000%,100.000000%);stroke: none;"></path>
  <path d="M178.000000 92.853455C178.000000 92.060760,177.685059 91.300613,177.124573 90.740143C176.564102 90.179657,175.803955 89.864716,175.011261 89.864716C174.218567 89.864716,173.458420 90.179657,172.897949 90.740143C172.337463 91.300613,172.022522 92.060760,172.022522 92.853455C172.022522 93.646149,172.337463 94.406296,172.897949 94.966766C173.458420 95.527252,174.218567 95.842194,175.011261 95.842194C175.803955 95.842194,176.564102 95.527252,177.124573 94.966766C177.685059 94.406296,178.000000 93.646149,178.000000 92.853455Z" style="fill: rgb(100.000000%,100.000000%,100.000000%);stroke: none;"></path>
  <path d="M166.695435 67.001083C166.695435 66.208389,166.380493 65.448242,165.820007 64.887772C165.259537 64.327286,164.499390 64.012344,163.706696 64.012344C162.914001 64.012344,162.153854 64.327286,161.593384 64.887772C161.032898 65.448242,160.717957 66.208389,160.717957 67.001083C160.717957 67.793777,161.032898 68.553925,161.593384 69.114395C162.153854 69.674881,162.914001 69.989822,163.706696 69.989822C164.499390 69.989822,165.259537 69.674881,165.820007 69.114395C166.380493 68.553925,166.695435 67.793777,166.695435 67.001083Z" style="fill: rgb(100.000000%,100.000000%,100.000000%);stroke: none;"></path>
  <path d="M171.833221 125.008347C171.833221 124.215652,171.518280 123.455505,170.957794 122.895035C170.397324 122.334549,169.637177 122.019608,168.844482 122.019608C168.051788 122.019608,167.291641 122.334549,166.731171 122.895035C166.170685 123.455505,165.855743 124.215652,165.855743 125.008347C165.855743 125.801041,166.170685 126.561188,166.731171 127.121658C167.291641 127.682144,168.051788 127.997086,168.844482 127.997086C169.637177 127.997086,170.397324 127.682144,170.957794 127.121658C171.518280 126.561188,171.833221 125.801041,171.833221 125.008347Z" style="fill: rgb(100.000000%,100.000000%,100.000000%);stroke: none;"></path>
  <path d="M184.039780 106.718353C184.039780 105.925659,183.724838 105.165512,183.164352 104.605042C182.603882 104.044556,181.843735 103.729614,181.051041 103.729614C180.258347 103.729614,179.498199 104.044556,178.937729 104.605042C178.377243 105.165512,178.062302 105.925659,178.062302 106.718353C178.062302 107.511047,178.377243 108.271194,178.937729 108.831665C179.498199 109.392151,180.258347 109.707092,181.051041 109.707092C181.843735 109.707092,182.603882 109.392151,183.164352 108.831665C183.724838 108.271194,184.039780 107.511047,184.039780 106.718353Z" style="fill: rgb(100.000000%,100.000000%,100.000000%);stroke: none;"></path>
  <path d="M156.199554 144.604370C156.199554 143.811676,155.884613 143.051529,155.324127 142.491058C154.763657 141.930573,154.003510 141.615631,153.210815 141.615631C152.418121 141.615631,151.657974 141.930573,151.097504 142.491058C150.537018 143.051529,150.222076 143.811676,150.222076 144.604370C150.222076 145.397064,150.537018 146.157211,151.097504 146.717682C151.657974 147.278168,152.418121 147.593109,153.210815 147.593109C154.003510 147.593109,154.763657 147.278168,155.324127 146.717682C155.884613 146.157211,156.199554 145.397064,156.199554 144.604370Z" style="fill: rgb(100.000000%,100.000000%,100.000000%);stroke: none;"></path>
  <path d="M162.228729 128.164597C162.228729 127.371902,161.913788 126.611755,161.353302 126.051285C160.792831 125.490799,160.032684 125.175858,159.239990 125.175858C158.447296 125.175858,157.687149 125.490799,157.126678 126.051285C156.566193 126.611755,156.251251 127.371902,156.251251 128.164597C156.251251 128.957291,156.566193 129.717438,157.126678 130.277908C157.687149 130.838394,158.447296 131.153336,159.239990 131.153336C160.032684 131.153336,160.792831 130.838394,161.353302 130.277908C161.913788 129.717438,162.228729 128.957291,162.228729 128.164597Z" style="fill: rgb(100.000000%,100.000000%,100.000000%);stroke: none;"></path>
  <path d="M159.091492 174.887436C159.091492 174.094742,158.776550 173.334595,158.216064 172.774124C157.655594 172.213638,156.895447 171.898697,156.102753 171.898697C155.310059 171.898697,154.549911 172.213638,153.989441 172.774124C153.428955 173.334595,153.114014 174.094742,153.114014 174.887436C153.114014 175.680130,153.428955 176.440277,153.989441 177.000748C154.549911 177.561234,155.310059 177.876175,156.102753 177.876175C156.895447 177.876175,157.655594 177.561234,158.216064 177.000748C158.776550 176.440277,159.091492 175.680130,159.091492 174.887436Z" style="fill: rgb(100.000000%,100.000000%,100.000000%);stroke: none;"></path>
  <path d="M161.545197 153.251312C161.545197 152.458618,161.230255 151.698471,160.669769 151.138000C160.109299 150.577515,159.349152 150.262573,158.556458 150.262573C157.763763 150.262573,157.003616 150.577515,156.443146 151.138000C155.882660 151.698471,155.567719 152.458618,155.567719 153.251312C155.567719 154.044006,155.882660 154.804153,156.443146 155.364624C157.003616 155.925110,157.763763 156.240051,158.556458 156.240051C159.349152 156.240051,160.109299 155.925110,160.669769 155.364624C161.230255 154.804153,161.545197 154.044006,161.545197 153.251312Z" style="fill: rgb(100.000000%,100.000000%,100.000000%);stroke: none;"></path>
  <path d="M118.604630 188.393463C118.604630 187.600769,118.289688 186.840622,117.729202 186.280151C117.168732 185.719666,116.408585 185.404724,115.615891 185.404724C114.823196 185.404724,114.063049 185.719666,113.502579 186.280151C112.942093 186.840622,112.627151 187.600769,112.627151 188.393463C112.627151 189.186157,112.942093 189.946304,113.502579 190.506775C114.063049 191.067261,114.823196 191.382202,115.615891 191.382202C116.408585 191.382202,117.168732 191.067261,117.729202 190.506775C118.289688 189.946304,118.604630 189.186157,118.604630 188.393463Z" style="fill: rgb(100.000000%,100.000000%,100.000000%);stroke: none;"></path>
  <path d="M146.025558 182.134491C146.025558 181.341797,145.710617 180.581650,145.150131 180.021179C144.589661 179.460693,143.829514 179.145752,143.036819 179.145752C142.244125 179.145752,141.483978 179.460693,140.923508 180.021179C140.363022 180.581650,140.048080 181.341797,140.048080 182.134491C140.048080 182.927185,140.363022 183.687332,140.923508 184.247803C141.483978 184.808289,142.244125 185.123230,143.036819 185.123230C143.829514 185.123230,144.589661 184.808289,145.150131 184.247803C145.710617 183.687332,146.025558 182.927185,146.025558 182.134491Z" style="fill: rgb(100.000000%,100.000000%,100.000000%);stroke: none;"></path>
  <path d="M87.056625 168.581711C87.056625 167.789017,86.741684 167.028870,86.181198 166.468399C85.620728 165.907913,84.860580 165.592972,84.067886 165.592972C83.275192 165.592972,82.515045 165.907913,81.954575 166.468399C81.394089 167.028870,81.079147 167.789017,81.079147 168.581711C81.079147 169.374405,81.394089 170.134552,81.954575 170.695023C82.515045 171.255508,83.275192 171.570450,84.067886 171.570450C84.860580 171.570450,85.620728 171.255508,86.181198 170.695023C86.741684 170.134552,87.056625 169.374405,87.056625 168.581711Z" style="fill: rgb(100.000000%,100.000000%,100.000000%);stroke: none;"></path>
  <path d="M103.049179 187.819763C103.049179 187.027069,102.734238 186.266922,102.173752 185.706451C101.613281 185.145966,100.853134 184.831024,100.060440 184.831024C99.267746 184.831024,98.507599 185.145966,97.947128 185.706451C97.386642 186.266922,97.071701 187.027069,97.071701 187.819763C97.071701 188.612457,97.386642 189.372604,97.947128 189.933075C98.507599 190.493561,99.267746 190.808502,100.060440 190.808502C100.853134 190.808502,101.613281 190.493561,102.173752 189.933075C102.734238 189.372604,103.049179 188.612457,103.049179 187.819763Z" style="fill: rgb(100.000000%,100.000000%,100.000000%);stroke: none;"></path>
  <path d="M91.181839 139.760330C91.181839 138.967636,90.866898 138.207489,90.306412 137.647018C89.745941 137.086533,88.985794 136.771591,88.193100 136.771591C87.400406 136.771591,86.640259 137.086533,86.079788 137.647018C85.519302 138.207489,85.204361 138.967636,85.204361 139.760330C85.204361 140.553024,85.519302 141.313171,86.079788 141.873642C86.640259 142.434128,87.400406 142.749069,88.193100 142.749069C88.985794 142.749069,89.745941 142.434128,90.306412 141.873642C90.866898 141.313171,91.181839 140.553024,91.181839 139.760330Z" style="fill: rgb(100.000000%,100.000000%,100.000000%);stroke: none;"></path>
  <path d="M86.916489 156.899704C86.916489 156.107010,86.601547 155.346863,86.041061 154.786392C85.480591 154.225906,84.720444 153.910965,83.927750 153.910965C83.135056 153.910965,82.374908 154.225906,81.814438 154.786392C81.253952 155.346863,80.939011 156.107010,80.939011 156.899704C80.939011 157.692398,81.253952 158.452545,81.814438 159.013016C82.374908 159.573502,83.135056 159.888443,83.927750 159.888443C84.720444 159.888443,85.480591 159.573502,86.041061 159.013016C86.601547 158.452545,86.916489 157.692398,86.916489 156.899704Z" style="fill: rgb(100.000000%,100.000000%,100.000000%);stroke: none;"></path>
  <path d="M98.523575 120.556549C98.523575 119.763855,98.208633 119.003708,97.648148 118.443237C97.087677 117.882751,96.327530 117.567810,95.534836 117.567810C94.742142 117.567810,93.981995 117.882751,93.421524 118.443237C92.861038 119.003708,92.546097 119.763855,92.546097 120.556549C92.546097 121.349243,92.861038 122.109390,93.421524 122.669861C93.981995 123.230347,94.742142 123.545288,95.534836 123.545288C96.327530 123.545288,97.087677 123.230347,97.648148 122.669861C98.208633 122.109390,98.523575 121.349243,98.523575 120.556549Z" style="fill: rgb(100.000000%,100.000000%,100.000000%);stroke: none;"></path>
  <path d="M93.702576 133.600647C93.702576 132.807953,93.387634 132.047806,92.827148 131.487335C92.266678 130.926849,91.506531 130.611908,90.713837 130.611908C89.921143 130.611908,89.160995 130.926849,88.600525 131.487335C88.040039 132.047806,87.725098 132.807953,87.725098 133.600647C87.725098 134.393341,88.040039 135.153488,88.600525 135.713959C89.160995 136.274445,89.921143 136.589386,90.713837 136.589386C91.506531 136.589386,92.266678 136.274445,92.827148 135.713959C93.387634 135.153488,93.702576 134.393341,93.702576 133.600647Z" style="fill: rgb(100.000000%,100.000000%,100.000000%);stroke: none;"></path>
  <path d="M113.713959 106.033585C113.713959 105.240891,113.399017 104.480743,112.838531 103.920273C112.278061 103.359787,111.517914 103.044846,110.725220 103.044846C109.932526 103.044846,109.172379 103.359787,108.611908 103.920273C108.051422 104.480743,107.736481 105.240891,107.736481 106.033585C107.736481 106.826279,108.051422 107.586426,108.611908 108.146896C109.172379 108.707382,109.932526 109.022324,110.725220 109.022324C111.517914 109.022324,112.278061 108.707382,112.838531 108.146896C113.399017 107.586426,113.713959 106.826279,113.713959 106.033585Z" style="fill: rgb(100.000000%,100.000000%,100.000000%);stroke: none;"></path>
  <path d="M101.132248 113.295181C101.132248 112.502487,100.817307 111.742340,100.256821 111.181870C99.696350 110.621384,98.936203 110.306442,98.143509 110.306442C97.350815 110.306442,96.590668 110.621384,96.030197 111.181870C95.469711 111.742340,95.154770 112.502487,95.154770 113.295181C95.154770 114.087875,95.469711 114.848022,96.030197 115.408493C96.590668 115.968979,97.350815 116.283920,98.143509 116.283920C98.936203 116.283920,99.696350 115.968979,100.256821 115.408493C100.817307 114.848022,101.132248 114.087875,101.132248 113.295181Z" style="fill: rgb(100.000000%,100.000000%,100.000000%);stroke: none;"></path>
  <path d="M135.292816 109.821213C135.292816 109.028519,134.977875 108.268372,134.417389 107.707901C133.856918 107.147415,133.096771 106.832474,132.304077 106.832474C131.511383 106.832474,130.751236 107.147415,130.190765 107.707901C129.630280 108.268372,129.315338 109.028519,129.315338 109.821213C129.315338 110.613907,129.630280 111.374054,130.190765 111.934525C130.751236 112.495010,131.511383 112.809952,132.304077 112.809952C133.096771 112.809952,133.856918 112.495010,134.417389 111.934525C134.977875 111.374054,135.292816 110.613907,135.292816 109.821213Z" style="fill: rgb(100.000000%,100.000000%,100.000000%);stroke: none;"></path>
  <path d="M121.286835 107.389526C121.286835 106.596832,120.971893 105.836685,120.411407 105.276215C119.850937 104.715729,119.090790 104.400787,118.298096 104.400787C117.505402 104.400787,116.745255 104.715729,116.184784 105.276215C115.624298 105.836685,115.309357 106.596832,115.309357 107.389526C115.309357 108.182220,115.624298 108.942368,116.184784 109.502838C116.745255 110.063324,117.505402 110.378265,118.298096 110.378265C119.090790 110.378265,119.850937 110.063324,120.411407 109.502838C120.971893 108.942368,121.286835 108.182220,121.286835 107.389526Z" style="fill: rgb(100.000000%,100.000000%,100.000000%);stroke: none;"></path>
  <path d="M158.756454 111.969025C158.756454 111.176331,158.441513 110.416183,157.881027 109.855713C157.320557 109.295227,156.560410 108.980286,155.767715 108.980286C154.975021 108.980286,154.214874 109.295227,153.654404 109.855713C153.093918 110.416183,152.778976 111.176331,152.778976 111.969025C152.778976 112.761719,153.093918 113.521866,153.654404 114.082336C154.214874 114.642822,154.975021 114.957764,155.767715 114.957764C156.560410 114.957764,157.320557 114.642822,157.881027 114.082336C158.441513 113.521866,158.756454 112.761719,158.756454 111.969025Z" style="fill: rgb(100.000000%,100.000000%,100.000000%);stroke: none;"></path>
  <path d="M142.193787 110.789658C142.193787 109.996964,141.878845 109.236816,141.318359 108.676346C140.757889 108.115860,139.997742 107.800919,139.205048 107.800919C138.412354 107.800919,137.652206 108.115860,137.091736 108.676346C136.531250 109.236816,136.216309 109.996964,136.216309 110.789658C136.216309 111.582352,136.531250 112.342499,137.091736 112.902969C137.652206 113.463455,138.412354 113.778397,139.205048 113.778397C139.997742 113.778397,140.757889 113.463455,141.318359 112.902969C141.878845 112.342499,142.193787 111.582352,142.193787 110.789658Z" style="fill: rgb(100.000000%,100.000000%,100.000000%);stroke: none;"></path>
  <path d="M185.099792 124.364929C185.099792 123.572235,184.784851 122.812088,184.224365 122.251617C183.663895 121.691132,182.903748 121.376190,182.111053 121.376190C181.318359 121.376190,180.558212 121.691132,179.997742 122.251617C179.437256 122.812088,179.122314 123.572235,179.122314 124.364929C179.122314 125.157623,179.437256 125.917770,179.997742 126.478241C180.558212 127.038727,181.318359 127.353668,182.111053 127.353668C182.903748 127.353668,183.663895 127.038727,184.224365 126.478241C184.784851 125.917770,185.099792 125.157623,185.099792 124.364929Z" style="fill: rgb(100.000000%,100.000000%,100.000000%);stroke: none;"></path>
  <path d="M168.935333 111.965164C168.935333 111.172470,168.620392 110.412323,168.059906 109.851852C167.499435 109.291367,166.739288 108.976425,165.946594 108.976425C165.153900 108.976425,164.393753 109.291367,163.833282 109.851852C163.272797 110.412323,162.957855 111.172470,162.957855 111.965164C162.957855 112.757858,163.272797 113.518005,163.833282 114.078476C164.393753 114.638962,165.153900 114.953903,165.946594 114.953903C166.739288 114.953903,167.499435 114.638962,168.059906 114.078476C168.620392 113.518005,168.935333 112.757858,168.935333 111.965164Z" style="fill: rgb(100.000000%,100.000000%,100.000000%);stroke: none;"></path>
  <path d="M180.560715 156.094147C180.560715 155.301453,180.245773 154.541306,179.685287 153.980835C179.124817 153.420349,178.364670 153.105408,177.571976 153.105408C176.779282 153.105408,176.019135 153.420349,175.458664 153.980835C174.898178 154.541306,174.583237 155.301453,174.583237 156.094147C174.583237 156.886841,174.898178 157.646988,175.458664 158.207458C176.019135 158.767944,176.779282 159.082886,177.571976 159.082886C178.364670 159.082886,179.124817 158.767944,179.685287 158.207458C180.245773 157.646988,180.560715 156.886841,180.560715 156.094147Z" style="fill: rgb(100.000000%,100.000000%,100.000000%);stroke: none;"></path>
  <path d="M187.847824 135.821121C187.847824 135.028427,187.532883 134.268280,186.972397 133.707809C186.411926 133.147324,185.651779 132.832382,184.859085 132.832382C184.066391 132.832382,183.306244 133.147324,182.745773 133.707809C182.185287 134.268280,181.870346 135.028427,181.870346 135.821121C181.870346 136.613815,182.185287 137.373962,182.745773 137.934433C183.306244 138.494919,184.066391 138.809860,184.859085 138.809860C185.651779 138.809860,186.411926 138.494919,186.972397 137.934433C187.532883 137.373962,187.847824 136.613815,187.847824 135.821121Z" style="fill: rgb(100.000000%,100.000000%,100.000000%);stroke: none;"></path>
  <path d="M151.601410 160.706451C151.601410 159.913757,151.286469 159.153610,150.725983 158.593140C150.165512 158.032654,149.405365 157.717712,148.612671 157.717712C147.819977 157.717712,147.059830 158.032654,146.499359 158.593140C145.938873 159.153610,145.623932 159.913757,145.623932 160.706451C145.623932 161.499146,145.938873 162.259293,146.499359 162.819763C147.059830 163.380249,147.819977 163.695190,148.612671 163.695190C149.405365 163.695190,150.165512 163.380249,150.725983 162.819763C151.286469 162.259293,151.601410 161.499146,151.601410 160.706451Z" style="fill: rgb(100.000000%,100.000000%,100.000000%);stroke: none;"></path>
  <path d="M171.053421 163.160248C171.053421 162.367554,170.738480 161.607407,170.177994 161.046936C169.617523 160.486450,168.857376 160.171509,168.064682 160.171509C167.271988 160.171509,166.511841 160.486450,165.951370 161.046936C165.390884 161.607407,165.075943 162.367554,165.075943 163.160248C165.075943 163.952942,165.390884 164.713089,165.951370 165.273560C166.511841 165.834045,167.271988 166.148987,168.064682 166.148987C168.857376 166.148987,169.617523 165.834045,170.177994 165.273560C170.738480 164.713089,171.053421 163.952942,171.053421 163.160248Z" style="fill: rgb(100.000000%,100.000000%,100.000000%);stroke: none;"></path>
  <path d="M132.542007 145.521851C132.542007 144.729156,132.227066 143.969009,131.666580 143.408539C131.106110 142.848053,130.345963 142.533112,129.553268 142.533112C128.760574 142.533112,128.000427 142.848053,127.439957 143.408539C126.879471 143.969009,126.564529 144.729156,126.564529 145.521851C126.564529 146.314545,126.879471 147.074692,127.439957 147.635162C128.000427 148.195648,128.760574 148.510590,129.553268 148.510590C130.345963 148.510590,131.106110 148.195648,131.666580 147.635162C132.227066 147.074692,132.542007 146.314545,132.542007 145.521851Z" style="fill: rgb(100.000000%,100.000000%,100.000000%);stroke: none;"></path>
  <path d="M145.158310 153.478531C145.158310 152.685837,144.843369 151.925690,144.282883 151.365219C143.722412 150.804733,142.962265 150.489792,142.169571 150.489792C141.376877 150.489792,140.616730 150.804733,140.056259 151.365219C139.495773 151.925690,139.180832 152.685837,139.180832 153.478531C139.180832 154.271225,139.495773 155.031372,140.056259 155.591843C140.616730 156.152328,141.376877 156.467270,142.169571 156.467270C142.962265 156.467270,143.722412 156.152328,144.282883 155.591843C144.843369 155.031372,145.158310 154.271225,145.158310 153.478531Z" style="fill: rgb(100.000000%,100.000000%,100.000000%);stroke: none;"></path>
  <path d="M117.456772 138.739029C117.456772 137.946335,117.141830 137.186188,116.581345 136.625717C116.020874 136.065231,115.260727 135.750290,114.468033 135.750290C113.675339 135.750290,112.915192 136.065231,112.354721 136.625717C111.794235 137.186188,111.479294 137.946335,111.479294 138.739029C111.479294 139.531723,111.794235 140.291870,112.354721 140.852341C112.915192 141.412827,113.675339 141.727768,114.468033 141.727768C115.260727 141.727768,116.020874 141.412827,116.581345 140.852341C117.141830 140.291870,117.456772 139.531723,117.456772 138.739029Z" style="fill: rgb(100.000000%,100.000000%,100.000000%);stroke: none;"></path>
  <path d="M126.932495 143.429886C126.932495 142.637192,126.617554 141.877045,126.057068 141.316574C125.496597 140.756088,124.736450 140.441147,123.943756 140.441147C123.151062 140.441147,122.390915 140.756088,121.830444 141.316574C121.269958 141.877045,120.955017 142.637192,120.955017 143.429886C120.955017 144.222580,121.269958 144.982727,121.830444 145.543198C122.390915 146.103683,123.151062 146.418625,123.943756 146.418625C124.736450 146.418625,125.496597 146.103683,126.057068 145.543198C126.617554 144.982727,126.932495 144.222580,126.932495 143.429886Z" style="fill: rgb(100.000000%,100.000000%,100.000000%);stroke: none;"></path>
  <path d="M104.788071 132.165131C104.788071 131.372437,104.473129 130.612289,103.912643 130.051819C103.352173 129.491333,102.592026 129.176392,101.799332 129.176392C101.006638 129.176392,100.246490 129.491333,99.686020 130.051819C99.125534 130.612289,98.810593 131.372437,98.810593 132.165131C98.810593 132.957825,99.125534 133.717972,99.686020 134.278442C100.246490 134.838928,101.006638 135.153870,101.799332 135.153870C102.592026 135.153870,103.352173 134.838928,103.912643 134.278442C104.473129 133.717972,104.788071 132.957825,104.788071 132.165131Z" style="fill: rgb(100.000000%,100.000000%,100.000000%);stroke: none;"></path>
  <path d="M113.480499 136.354965C113.480499 135.562271,113.165558 134.802124,112.605072 134.241653C112.044601 133.681168,111.284454 133.366226,110.491760 133.366226C109.699066 133.366226,108.938919 133.681168,108.378448 134.241653C107.817963 134.802124,107.503021 135.562271,107.503021 136.354965C107.503021 137.147659,107.817963 137.907806,108.378448 138.468277C108.938919 139.028763,109.699066 139.343704,110.491760 139.343704C111.284454 139.343704,112.044601 139.028763,112.605072 138.468277C113.165558 137.907806,113.480499 137.147659,113.480499 136.354965Z" style="fill: rgb(100.000000%,100.000000%,100.000000%);stroke: none;"></path>
  <path d="M87.873306 121.228699C87.873306 120.436005,87.558365 119.675858,86.997879 119.115387C86.437408 118.554901,85.677261 118.239960,84.884567 118.239960C84.091873 118.239960,83.331726 118.554901,82.771255 119.115387C82.210770 119.675858,81.895828 120.436005,81.895828 121.228699C81.895828 122.021393,82.210770 122.781540,82.771255 123.342010C83.331726 123.902496,84.091873 124.217438,84.884567 124.217438C85.677261 124.217438,86.437408 123.902496,86.997879 123.342010C87.558365 122.781540,87.873306 122.021393,87.873306 121.228699Z" style="fill: rgb(100.000000%,100.000000%,100.000000%);stroke: none;"></path>
  <path d="M100.014465 130.409576C100.014465 129.616882,99.699524 128.856735,99.139038 128.296265C98.578568 127.735779,97.818420 127.420837,97.025726 127.420837C96.233032 127.420837,95.472885 127.735779,94.912415 128.296265C94.351929 128.856735,94.036987 129.616882,94.036987 130.409576C94.036987 131.202271,94.351929 131.962418,94.912415 132.522888C95.472885 133.083374,96.233032 133.398315,97.025726 133.398315C97.818420 133.398315,98.578568 133.083374,99.139038 132.522888C99.699524 131.962418,100.014465 131.202271,100.014465 130.409576Z" style="fill: rgb(100.000000%,100.000000%,100.000000%);stroke: none;"></path>
  <path d="M68.511658 115.346558C54.614517 122.319641,38.066620 121.427216,25.000000 113.000000C9.834473 103.219101,2.206787 85.513824,2.683685 67.380478C3.097351 51.651306,10.378601 36.177063,25.000000 31.863510C32.878937 29.539108,41.611664 31.613235,45.854233 38.431961C48.291229 42.348740,48.536362 47.096832,49.021698 51.669876C49.941345 60.335175,51.884857 69.151398,49.364792 77.527054C45.141464 91.563644,30.114182 99.329666,25.000000 113.000000C18.131973 131.358414,29.937271 150.068390,45.147491 163.569061C58.378250 175.312744,75.458572 184.102005,91.054123 176.985718C100.072403 172.870667,105.582825 164.141922,110.490891 155.541306C113.273010 150.666046,115.972260 145.744110,118.615280 140.792084C121.127106 136.085876,123.603455 131.310806,124.814514 126.109802C126.145706 120.392883,125.879669 114.476868,125.443344 108.630066C124.780060 99.742004,123.763107 90.676697,126.473663 82.162796C130.281036 70.203766,140.888718 61.341064,143.500122 49.013290C146.265839 35.957047,139.797409 22.904678,128.631531 15.372238C117.345230 7.758545,102.479095 6.853760,92.428543 15.597000C83.181046 23.641663,81.685806 37.900223,71.757431 45.205643C65.283936 49.968918,56.936737 50.465881,49.021698 51.669876C44.480301 52.360703,39.816513 53.310806,35.445648 51.851791C27.458023 49.185486,23.564285 40.420166,25.000000 31.863510C27.224731 18.604401,39.618729 10.431763,52.856644 6.656281C67.481766 2.485168,83.968994 3.609253,92.428543 15.597000C99.504852 25.624619,97.652878 41.099274,108.465118 47.809631C118.946518 54.314651,131.839523 46.416321,143.500122 49.013290C157.544739 52.141205,163.706696 67.001083,169.545578 80.354004C175.011261 92.853455,181.051041 106.718353,173.620621 117.851913C168.844482 125.008347,159.239990 128.164597,156.232346 136.365570C153.210815 144.604370,158.556458 153.251312,157.582657 161.837982C156.102753 174.887436,143.036819 182.134491,129.678391 185.183624C115.615891 188.393463,100.060440 187.819763,91.054123 176.985718C84.067886 168.581711,83.927750 156.899704,86.589935 146.202301C88.193100 139.760330,90.713837 133.600647,93.014328 127.376236C95.534836 120.556549,98.143509 113.295181,104.442673 109.659592C110.725220 106.033585,118.298096 107.389526,125.443344 108.630066C132.304077 109.821213,139.205048 110.789658,146.151321 111.284271C155.767715 111.969025,165.946594 111.965164,173.620621 117.851913C182.111053 124.364929,184.859085 135.821121,181.211029 145.970169C177.571976 156.094147,168.064682 163.160248,157.582657 161.837982C148.612671 160.706451,142.169571 153.478531,134.585510 148.695511C129.553268 145.521851,123.943756 143.429886,118.615280 140.792084C114.468033 138.739029,110.491760 136.354965,106.322998 134.345581C101.799332 132.165131,97.025726 130.409576,93.014328 127.376236C84.884567 121.228699,77.540009 110.816452,68.511658 115.346558" style="stroke:rgb(0.000000%,0.000000%,0.000000%); stroke-width: 0.498138;stroke-linecap: round;stroke-linejoin: round;stroke-miterlimit: 10.000000;fill: none;"></path>
  <path d="M68.511658 115.346558C54.614517 122.319641,38.066620 121.427216,25.000000 113.000000C9.834473 103.219101,2.206787 85.513824,2.683685 67.380478C3.097351 51.651306,10.378601 36.177063,25.000000 31.863510" style="stroke:rgb(0.000000%,0.000000%,0.000000%); stroke-width: 1.494400;stroke-linecap: round;stroke-linejoin: round;stroke-miterlimit: 10.000000;fill: none;"></path>
  <path d="M93.014328 127.376236C84.884567 121.228699,77.540009 110.816452,68.511658 115.346558" style="stroke:rgb(0.000000%,0.000000%,0.000000%); stroke-width: 1.494400;stroke-linecap: round;stroke-linejoin: round;stroke-miterlimit: 10.000000;fill: none;"></path>
  <path d="M27.988739 113.000000C27.988739 112.207306,27.673798 111.447159,27.113312 110.886688C26.552841 110.326202,25.792694 110.011261,25.000000 110.011261C24.207306 110.011261,23.447159 110.326202,22.886688 110.886688C22.326202 111.447159,22.011261 112.207306,22.011261 113.000000C22.011261 113.792694,22.326202 114.552841,22.886688 115.113312C23.447159 115.673798,24.207306 115.988739,25.000000 115.988739C25.792694 115.988739,26.552841 115.673798,27.113312 115.113312C27.673798 114.552841,27.988739 113.792694,27.988739 113.000000Z" style="fill: rgb(100.000000%,100.000000%,100.000000%);stroke: none;"></path>
  <path d="M46.444366 119.948395C38.936935 119.543518,31.533310 117.213608,25.000000 113.000000C17.417236 108.109543,11.718933 101.237991,7.975922 93.322388" style="stroke:rgb(0.000000%,0.000000%,0.000000%); stroke-width: 1.494400;stroke-linecap: round;stroke-linejoin: round;stroke-miterlimit: 10.000000;fill: none;"></path>
  <path d="M52.010437 51.669876C52.010437 50.877182,51.695496 50.117035,51.135010 49.556564C50.574539 48.996078,49.814392 48.681137,49.021698 48.681137C48.229004 48.681137,47.468857 48.996078,46.908386 49.556564C46.347900 50.117035,46.032959 50.877182,46.032959 51.669876C46.032959 52.462570,46.347900 53.222717,46.908386 53.783188C47.468857 54.343674,48.229004 54.658615,49.021698 54.658615C49.814392 54.658615,50.574539 54.343674,51.135010 53.783188C51.695496 53.222717,52.010437 52.462570,52.010437 51.669876Z" style="fill: rgb(100.000000%,100.000000%,100.000000%);stroke: none;"></path>
  <path d="M48.169846 44.804840C48.596420 47.053085,48.779037 49.383362,49.021698 51.669876C49.481522 56.002533,50.197311 60.372910,50.483139 64.707092" style="stroke:rgb(0.000000%,0.000000%,0.000000%); stroke-width: 0.498138;stroke-linecap: round;stroke-linejoin: round;stroke-miterlimit: 10.000000;fill: none;"></path>
  <path d="M94.042862 176.985718C94.042862 176.193024,93.727921 175.432877,93.167435 174.872406C92.606964 174.311920,91.846817 173.996979,91.054123 173.996979C90.261429 173.996979,89.501282 174.311920,88.940811 174.872406C88.380325 175.432877,88.065384 176.193024,88.065384 176.985718C88.065384 177.778412,88.380325 178.538559,88.940811 179.099030C89.501282 179.659515,90.261429 179.974457,91.054123 179.974457C91.846817 179.974457,92.606964 179.659515,93.167435 179.099030C93.727921 178.538559,94.042862 177.778412,94.042862 176.985718Z" style="fill: rgb(100.000000%,100.000000%,100.000000%);stroke: none;"></path>
  <path d="M67.214020 177.349884C75.087387 180.125626,83.256348 180.543854,91.054123 176.985718C95.563263 174.928192,99.195450 171.717239,102.313858 167.945587" style="stroke:rgb(0.000000%,0.000000%,0.000000%); stroke-width: 0.498138;stroke-linecap: round;stroke-linejoin: round;stroke-miterlimit: 10.000000;fill: none;"></path>
  <path d="M128.432083 108.630066C128.432083 107.837372,128.117142 107.077225,127.556656 106.516754C126.996185 105.956268,126.236038 105.641327,125.443344 105.641327C124.650650 105.641327,123.890503 105.956268,123.330032 106.516754C122.769547 107.077225,122.454605 107.837372,122.454605 108.630066C122.454605 109.422760,122.769547 110.182907,123.330032 110.743378C123.890503 111.303864,124.650650 111.618805,125.443344 111.618805C126.236038 111.618805,126.996185 111.303864,127.556656 110.743378C128.117142 110.182907,128.432083 109.422760,128.432083 108.630066Z" style="fill: rgb(100.000000%,100.000000%,100.000000%);stroke: none;"></path>
  <path d="M125.791748 117.418640C125.837082 114.494171,125.661499 111.553467,125.443344 108.630066C125.111694 104.186035,124.691635 99.697693,124.693314 95.256119" style="stroke:rgb(0.000000%,0.000000%,0.000000%); stroke-width: 0.498138;stroke-linecap: round;stroke-linejoin: round;stroke-miterlimit: 10.000000;fill: none;"></path>
  <path d="M95.417282 15.597000C95.417282 14.804306,95.102341 14.044159,94.541855 13.483688C93.981384 12.923203,93.221237 12.608261,92.428543 12.608261C91.635849 12.608261,90.875702 12.923203,90.315231 13.483688C89.754745 14.044159,89.439804 14.804306,89.439804 15.597000C89.439804 16.389694,89.754745 17.149841,90.315231 17.710312C90.875702 18.270798,91.635849 18.585739,92.428543 18.585739C93.221237 18.585739,93.981384 18.270798,94.541855 17.710312C95.102341 17.149841,95.417282 16.389694,95.417282 15.597000Z" style="fill: rgb(100.000000%,100.000000%,100.000000%);stroke: none;"></path>
  <path d="M110.066620 9.350769C103.682983 9.265778,97.453812 11.225388,92.428543 15.597000C87.804794 19.619339,85.119110 25.195145,82.348312 30.678543" style="stroke:rgb(0.000000%,0.000000%,0.000000%); stroke-width: 0.498138;stroke-linecap: round;stroke-linejoin: round;stroke-miterlimit: 10.000000;fill: none;"></path>
  <path d="M27.988739 31.863510C27.988739 31.070816,27.673798 30.310669,27.113312 29.750198C26.552841 29.189713,25.792694 28.874771,25.000000 28.874771C24.207306 28.874771,23.447159 29.189713,22.886688 29.750198C22.326202 30.310669,22.011261 31.070816,22.011261 31.863510C22.011261 32.656204,22.326202 33.416351,22.886688 33.976822C23.447159 34.537308,24.207306 34.852249,25.000000 34.852249C25.792694 34.852249,26.552841 34.537308,27.113312 33.976822C27.673798 33.416351,27.988739 32.656204,27.988739 31.863510Z" style="fill: rgb(100.000000%,100.000000%,100.000000%);stroke: none;"></path>
  <path d="M26.689072 44.066513C24.896652 40.472321,24.282150 36.141830,25.000000 31.863510C26.112366 25.233948,29.767059 19.876007,34.798386 15.703522" style="stroke:rgb(0.000000%,0.000000%,0.000000%); stroke-width: 0.498138;stroke-linecap: round;stroke-linejoin: round;stroke-miterlimit: 10.000000;fill: none;"></path>
  <path d="M146.488861 49.013290C146.488861 48.220596,146.173920 47.460449,145.613434 46.899979C145.052963 46.339493,144.292816 46.024551,143.500122 46.024551C142.707428 46.024551,141.947281 46.339493,141.386810 46.899979C140.826324 47.460449,140.511383 48.220596,140.511383 49.013290C140.511383 49.805984,140.826324 50.566132,141.386810 51.126602C141.947281 51.687088,142.707428 52.002029,143.500122 52.002029C144.292816 52.002029,145.052963 51.687088,145.613434 51.126602C146.173920 50.566132,146.488861 49.805984,146.488861 49.013290Z" style="fill: rgb(100.000000%,100.000000%,100.000000%);stroke: none;"></path>
  <path d="M125.540436 49.876968C131.531433 49.040146,137.669830 47.714813,143.500122 49.013290C150.522430 50.577255,155.574081 55.074203,159.600006 60.849289" style="stroke:rgb(0.000000%,0.000000%,0.000000%); stroke-width: 0.498138;stroke-linecap: round;stroke-linejoin: round;stroke-miterlimit: 10.000000;fill: none;"></path>
  <path d="M160.571396 161.837982C160.571396 161.045288,160.256454 160.285141,159.695969 159.724670C159.135498 159.164185,158.375351 158.849243,157.582657 158.849243C156.789963 158.849243,156.029816 159.164185,155.469345 159.724670C154.908859 160.285141,154.593918 161.045288,154.593918 161.837982C154.593918 162.630676,154.908859 163.390823,155.469345 163.951294C156.029816 164.511780,156.789963 164.826721,157.582657 164.826721C158.375351 164.826721,159.135498 164.511780,159.695969 163.951294C160.256454 163.390823,160.571396 162.630676,160.571396 161.837982Z" style="fill: rgb(100.000000%,100.000000%,100.000000%);stroke: none;"></path>
  <path d="M156.139603 148.971329C156.976593 153.236252,158.069550 157.544647,157.582657 161.837982C156.842697 168.362717,153.206238 173.436844,148.084961 177.260941" style="stroke:rgb(0.000000%,0.000000%,0.000000%); stroke-width: 0.498138;stroke-linecap: round;stroke-linejoin: round;stroke-miterlimit: 10.000000;fill: none;"></path>
  <path d="M96.003067 127.376236C96.003067 126.583542,95.688126 125.823395,95.127640 125.262924C94.567169 124.702438,93.807022 124.387497,93.014328 124.387497C92.221634 124.387497,91.461487 124.702438,90.901016 125.262924C90.340530 125.823395,90.025589 126.583542,90.025589 127.376236C90.025589 128.168930,90.340530 128.929077,90.901016 129.489548C91.461487 130.050034,92.221634 130.364975,93.014328 130.364975C93.807022 130.364975,94.567169 130.050034,95.127640 129.489548C95.688126 128.929077,96.003067 128.168930,96.003067 127.376236Z" style="fill: rgb(100.000000%,100.000000%,100.000000%);stroke: none;"></path>
  <path d="M89.540649 136.707672C90.658783 133.584457,91.864090 130.488434,93.014328 127.376236C94.274582 123.966385,95.556885 120.446121,97.311508 117.323868" style="stroke:rgb(0.000000%,0.000000%,0.000000%); stroke-width: 0.498138;stroke-linecap: round;stroke-linejoin: round;stroke-miterlimit: 10.000000;fill: none;"></path>
  <path d="M176.609360 117.851913C176.609360 117.059219,176.294418 116.299072,175.733932 115.738602C175.173462 115.178116,174.413315 114.863174,173.620621 114.863174C172.827927 114.863174,172.067780 115.178116,171.507309 115.738602C170.946823 116.299072,170.631882 117.059219,170.631882 117.851913C170.631882 118.644608,170.946823 119.404755,171.507309 119.965225C172.067780 120.525711,172.827927 120.840652,173.620621 120.840652C174.413315 120.840652,175.173462 120.525711,175.733932 119.965225C176.294418 119.404755,176.609360 118.644608,176.609360 117.851913Z" style="fill: rgb(100.000000%,100.000000%,100.000000%);stroke: none;"></path>
  <path d="M160.614365 112.617355C165.320389 113.437820,169.783615 114.908539,173.620621 117.851913C177.865845 121.108429,180.675461 125.600739,181.967758 130.547546" style="stroke:rgb(0.000000%,0.000000%,0.000000%); stroke-width: 0.498138;stroke-linecap: round;stroke-linejoin: round;stroke-miterlimit: 10.000000;fill: none;"></path>
  <path d="M121.604019 140.792084C121.604019 139.999390,121.289078 139.239243,120.728592 138.678772C120.168121 138.118286,119.407974 137.803345,118.615280 137.803345C117.822586 137.803345,117.062439 138.118286,116.501968 138.678772C115.941483 139.239243,115.626541 139.999390,115.626541 140.792084C115.626541 141.584778,115.941483 142.344925,116.501968 142.905396C117.062439 143.465881,117.822586 143.780823,118.615280 143.780823C119.407974 143.780823,120.168121 143.465881,120.728592 142.905396C121.289078 142.344925,121.604019 141.584778,121.604019 140.792084Z" style="fill: rgb(100.000000%,100.000000%,100.000000%);stroke: none;"></path>
  <path d="M126.711472 144.542831C124.014008 143.293411,121.279510 142.110977,118.615280 140.792084C116.541656 139.765549,114.510773 138.656265,112.477203 137.552444" style="stroke:rgb(0.000000%,0.000000%,0.000000%); stroke-width: 0.498138;stroke-linecap: round;stroke-linejoin: round;stroke-miterlimit: 10.000000;fill: none;"></path>
  <path d="M68.511658 115.346558C57.393906 120.925049,44.579651 121.469574,33.208542 117.149460" style="stroke:rgb(0.000000%,0.000000%,0.000000%); stroke-width: 0.498138;stroke-linecap: round;stroke-linejoin: round;stroke-miterlimit: 10.000000;fill: none;"></path>
  <path d="M38.189514 116.716812C36.544342 116.954758,34.881439 117.099884,33.208542 117.149460C34.426514 118.297333,35.704956 119.370590,37.036499 120.365677Z" style="stroke:rgb(0.000000%,0.000000%,0.000000%); stroke-width: 0.498138;fill: rgb(0.000000%,0.000000%,0.000000%);"></path>
  <path d="M68.511658 115.346558C57.393906 120.925049,44.579651 121.469574,33.208542 117.149460" style="stroke:rgb(0.000000%,0.000000%,0.000000%); stroke-width: 0.498138;stroke-linecap: round;stroke-linejoin: round;stroke-miterlimit: 10.000000;fill: none;"></path>
  <path d="M36.202225 116.958115C35.209015 117.055786,34.210571 117.119766,33.208542 117.149460C33.938080 117.837021,34.689301 118.497803,35.460648 119.131058Z" style="stroke:rgb(0.000000%,0.000000%,0.000000%); stroke-width: 0.498138;fill: rgb(0.000000%,0.000000%,0.000000%);"></path>
  <path d="M45.854233 38.431961C47.803833 41.565399,48.350632 45.230881,48.739868 48.913132" style="stroke:rgb(0.000000%,0.000000%,0.000000%); stroke-width: 0.498138;stroke-linecap: round;stroke-linejoin: round;stroke-miterlimit: 10.000000;fill: none;"></path>
  <path d="M47.253922 46.306885C47.772049 47.157486,48.261063 48.032516,48.739868 48.913132C49.024002 47.951889,49.296982 46.987350,49.532089 46.019531Z" style="stroke:rgb(0.000000%,0.000000%,0.000000%); stroke-width: 0.498138;fill: rgb(0.000000%,0.000000%,0.000000%);"></path>
  <path d="M110.490891 155.541306C112.716599 151.641083,114.889267 147.710983,117.022537 143.759506" style="stroke:rgb(0.000000%,0.000000%,0.000000%); stroke-width: 0.498138;stroke-linecap: round;stroke-linejoin: round;stroke-miterlimit: 10.000000;fill: none;"></path>
  <path d="M116.709305 146.743042C116.816040 145.748779,116.920395 144.754257,117.022537 143.759506L114.691330 145.647644Z" style="stroke:rgb(0.000000%,0.000000%,0.000000%); stroke-width: 0.498138;fill: rgb(0.000000%,0.000000%,0.000000%);"></path>
  <path d="M124.814514 126.109802C125.879471 121.536255,125.922195 116.835266,125.673294 112.144241" style="stroke:rgb(0.000000%,0.000000%,0.000000%); stroke-width: 0.498138;stroke-linecap: round;stroke-linejoin: round;stroke-miterlimit: 10.000000;fill: none;"></path>
  <path d="M126.924347 114.871017C126.524078 113.955627,126.104706 113.047180,125.673294 112.144241C125.339844 113.087769,124.994019 114.026672,124.629761 114.956985Z" style="stroke:rgb(0.000000%,0.000000%,0.000000%); stroke-width: 0.498138;fill: rgb(0.000000%,0.000000%,0.000000%);"></path>
  <path d="M71.757431 45.205643C66.578613 49.016281,60.200623 50.096451,53.804047 50.992554" style="stroke:rgb(0.000000%,0.000000%,0.000000%); stroke-width: 0.498138;stroke-linecap: round;stroke-linejoin: round;stroke-miterlimit: 10.000000;fill: none;"></path>
  <path d="M56.377777 49.450958C55.527084 49.973450,54.666626 50.484970,53.804047 50.992554C54.772888 51.243576,55.743027 51.490356,56.714020 51.722443Z" style="stroke:rgb(0.000000%,0.000000%,0.000000%); stroke-width: 0.498138;fill: rgb(0.000000%,0.000000%,0.000000%);"></path>
  <path d="M35.445648 51.851791C29.055527 49.718735,25.285507 43.682281,24.768204 36.972000" style="stroke:rgb(0.000000%,0.000000%,0.000000%); stroke-width: 0.498138;stroke-linecap: round;stroke-linejoin: round;stroke-miterlimit: 10.000000;fill: none;"></path>
  <path d="M26.319824 39.539749C25.744797 38.732117,25.225540 37.873093,24.768204 36.972000C24.454391 37.932541,24.214127 38.907135,24.049652 39.884811Z" style="stroke:rgb(0.000000%,0.000000%,0.000000%); stroke-width: 0.498138;fill: rgb(0.000000%,0.000000%,0.000000%);"></path>
  <path d="M108.465118 47.809631C116.850266 53.013672,126.778854 48.999481,136.385147 48.515350" style="stroke:rgb(0.000000%,0.000000%,0.000000%); stroke-width: 0.498138;stroke-linecap: round;stroke-linejoin: round;stroke-miterlimit: 10.000000;fill: none;"></path>
  <path d="M133.718491 49.889954C134.598434 49.404770,135.486145 48.941940,136.385147 48.515350C135.447815 48.181290,134.492844 47.880814,133.527542 47.601685Z" style="stroke:rgb(0.000000%,0.000000%,0.000000%); stroke-width: 0.498138;fill: rgb(0.000000%,0.000000%,0.000000%);"></path>
  <path d="M156.232346 136.365570C153.815109 142.956635,156.752914 149.808914,157.526108 156.682587" style="stroke:rgb(0.000000%,0.000000%,0.000000%); stroke-width: 0.498138;stroke-linecap: round;stroke-linejoin: round;stroke-miterlimit: 10.000000;fill: none;"></path>
  <path d="M155.978653 154.112457C156.521744 154.956879,157.044556 155.810944,157.526108 156.682587C157.801971 155.725739,158.036209 154.752136,158.249313 153.771027Z" style="stroke:rgb(0.000000%,0.000000%,0.000000%); stroke-width: 0.498138;fill: rgb(0.000000%,0.000000%,0.000000%);"></path>
  <path d="M104.442673 109.659592C109.468735 106.758774,115.320602 107.046432,121.118683 107.912689" style="stroke:rgb(0.000000%,0.000000%,0.000000%); stroke-width: 0.498138;stroke-linecap: round;stroke-linejoin: round;stroke-miterlimit: 10.000000;fill: none;"></path>
  <path d="M118.223907 108.699722C119.177765 108.414215,120.145721 108.155319,121.118683 107.912689C120.259125 107.396255,119.391632 106.894867,118.515259 106.422256Z" style="stroke:rgb(0.000000%,0.000000%,0.000000%); stroke-width: 0.498138;fill: rgb(0.000000%,0.000000%,0.000000%);"></path>
  <path d="M181.211029 145.970169C178.299774 154.069382,171.632812 160.211548,163.715668 161.667404" style="stroke:rgb(0.000000%,0.000000%,0.000000%); stroke-width: 0.498138;stroke-linecap: round;stroke-linejoin: round;stroke-miterlimit: 10.000000;fill: none;"></path>
  <path d="M166.106506 159.855301C165.357162 160.514847,164.559402 161.121155,163.715668 161.667404C164.698532 161.877777,165.691360 162.013168,166.687592 162.076675Z" style="stroke:rgb(0.000000%,0.000000%,0.000000%); stroke-width: 0.498138;fill: rgb(0.000000%,0.000000%,0.000000%);"></path>
  <path d="M106.322998 134.345581C102.704056 132.601212,98.925140 131.128784,95.504501 129.056503" style="stroke:rgb(0.000000%,0.000000%,0.000000%); stroke-width: 0.498138;stroke-linecap: round;stroke-linejoin: round;stroke-miterlimit: 10.000000;fill: none;"></path>
  <path d="M98.485123 129.396591C97.486755 129.315964,96.492462 129.207825,95.504501 129.056503C96.096069 129.862091,96.722687 130.641647,97.371597 131.404617Z" style="stroke:rgb(0.000000%,0.000000%,0.000000%); stroke-width: 0.498138;fill: rgb(0.000000%,0.000000%,0.000000%);"></path>
  <path d="M-0.306961 70.090683L5.674332 70.090683L5.674332 62.670288L-0.306961 62.670288Z" style="fill: rgb(100.000000%,100.000000%,100.000000%);stroke: none;"></path>
  <path d="M-0.306961 72.090683L5.674332 72.090683L5.674332 64.670288L-0.306961 64.670288Z" style="fill: rgb(100.000000%,100.000000%,100.000000%);stroke: none;"></path>
  <g transform="translate(0.193039 70.590683)" style="fill: rgb(0.000000%,0.000000%,0.000000%);">
    <use xlink:href="#GLYPHcmr10_49"></use>
  </g>
  <path d="M46.374146 80.237259L52.355438 80.237259L52.355438 72.816864L46.374146 72.816864Z" style="fill: rgb(100.000000%,100.000000%,100.000000%);stroke: none;"></path>
  <path d="M46.374146 82.237259L52.355438 82.237259L52.355438 74.816864L46.374146 74.816864Z" style="fill: rgb(100.000000%,100.000000%,100.000000%);stroke: none;"></path>
  <g transform="translate(46.874146 80.737259)" style="fill: rgb(0.000000%,0.000000%,0.000000%);">
    <use xlink:href="#GLYPHcmr10_50"></use>
  </g>
  <path d="M42.156845 166.279266L48.138138 166.279266L48.138138 158.858871L42.156845 158.858871Z" style="fill: rgb(100.000000%,100.000000%,100.000000%);stroke: none;"></path>
  <path d="M42.156845 168.279266L48.138138 168.279266L48.138138 160.858871L42.156845 160.858871Z" style="fill: rgb(100.000000%,100.000000%,100.000000%);stroke: none;"></path>
  <g transform="translate(42.656845 166.779266)" style="fill: rgb(0.000000%,0.000000%,0.000000%);">
    <use xlink:href="#GLYPHcmr10_51"></use>
  </g>
  <path d="M123.483017 84.873001L129.464310 84.873001L129.464310 77.452606L123.483017 77.452606Z" style="fill: rgb(100.000000%,100.000000%,100.000000%);stroke: none;"></path>
  <path d="M123.483017 86.873001L129.464310 86.873001L129.464310 79.452606L123.483017 79.452606Z" style="fill: rgb(100.000000%,100.000000%,100.000000%);stroke: none;"></path>
  <g transform="translate(123.983017 85.373001)" style="fill: rgb(0.000000%,0.000000%,0.000000%);">
    <use xlink:href="#GLYPHcmr10_52"></use>
  </g>
  <path d="M125.640884 18.082443L131.622177 18.082443L131.622177 10.662048L125.640884 10.662048Z" style="fill: rgb(100.000000%,100.000000%,100.000000%);stroke: none;"></path>
  <path d="M125.640884 20.082443L131.622177 20.082443L131.622177 12.662048L125.640884 12.662048Z" style="fill: rgb(100.000000%,100.000000%,100.000000%);stroke: none;"></path>
  <g transform="translate(126.140884 18.582443)" style="fill: rgb(0.000000%,0.000000%,0.000000%);">
    <use xlink:href="#GLYPHcmr10_53"></use>
  </g>
  <path d="M49.865997 9.366486L55.847290 9.366486L55.847290 1.946091L49.865997 1.946091Z" style="fill: rgb(100.000000%,100.000000%,100.000000%);stroke: none;"></path>
  <path d="M49.865997 11.366486L55.847290 11.366486L55.847290 3.946091L49.865997 3.946091Z" style="fill: rgb(100.000000%,100.000000%,100.000000%);stroke: none;"></path>
  <g transform="translate(50.365997 9.866486)" style="fill: rgb(0.000000%,0.000000%,0.000000%);">
    <use xlink:href="#GLYPHcmr10_54"></use>
  </g>
  <path d="M166.554932 83.064209L172.536224 83.064209L172.536224 75.643814L166.554932 75.643814Z" style="fill: rgb(100.000000%,100.000000%,100.000000%);stroke: none;"></path>
  <path d="M166.554932 85.064209L172.536224 85.064209L172.536224 77.643814L166.554932 77.643814Z" style="fill: rgb(100.000000%,100.000000%,100.000000%);stroke: none;"></path>
  <g transform="translate(167.054932 83.564209)" style="fill: rgb(0.000000%,0.000000%,0.000000%);">
    <use xlink:href="#GLYPHcmr10_55"></use>
  </g>
  <path d="M126.687744 187.893829L132.669037 187.893829L132.669037 180.473434L126.687744 180.473434Z" style="fill: rgb(100.000000%,100.000000%,100.000000%);stroke: none;"></path>
  <path d="M126.687744 189.893829L132.669037 189.893829L132.669037 182.473434L126.687744 182.473434Z" style="fill: rgb(100.000000%,100.000000%,100.000000%);stroke: none;"></path>
  <g transform="translate(127.187744 188.393829)" style="fill: rgb(0.000000%,0.000000%,0.000000%);">
    <use xlink:href="#GLYPHcmr10_56"></use>
  </g>
  <path d="M83.599289 148.912506L89.580582 148.912506L89.580582 141.492111L83.599289 141.492111Z" style="fill: rgb(100.000000%,100.000000%,100.000000%);stroke: none;"></path>
  <path d="M83.599289 150.912506L89.580582 150.912506L89.580582 143.492111L83.599289 143.492111Z" style="fill: rgb(100.000000%,100.000000%,100.000000%);stroke: none;"></path>
  <g transform="translate(84.099289 149.412506)" style="fill: rgb(0.000000%,0.000000%,0.000000%);">
    <use xlink:href="#GLYPHcmr10_57"></use>
  </g>
  <path d="M140.669968 113.994476L151.632675 113.994476L151.632675 106.574081L140.669968 106.574081Z" style="fill: rgb(100.000000%,100.000000%,100.000000%);stroke: none;"></path>
  <path d="M140.669968 115.994476L151.632675 115.994476L151.632675 108.574081L140.669968 108.574081Z" style="fill: rgb(100.000000%,100.000000%,100.000000%);stroke: none;"></path>
  <g transform="translate(141.169968 114.494476)" style="fill: rgb(0.000000%,0.000000%,0.000000%);">
    <use xlink:href="#GLYPHcmr10_49"></use>
    <use xlink:href="#GLYPHcmr10_48" x="5.000095"></use>
  </g>
  <path d="M129.104156 151.405716L140.066864 151.405716L140.066864 143.985321L129.104156 143.985321Z" style="fill: rgb(100.000000%,100.000000%,100.000000%);stroke: none;"></path>
  <path d="M129.104156 153.405716L140.066864 153.405716L140.066864 145.985321L129.104156 145.985321Z" style="fill: rgb(100.000000%,100.000000%,100.000000%);stroke: none;"></path>
  <g transform="translate(129.604156 151.905716)" style="fill: rgb(0.000000%,0.000000%,0.000000%);">
    <use xlink:href="#GLYPHcmr10_49"></use>
    <use xlink:href="#GLYPHcmr10_49" x="5.000095"></use>
  </g>
</svg>
