<?xml version="1.0"?>
<!-- Created by MetaPost 1.999 on 2021.07.06:0009 -->
<svg version="1.1" xmlns="http://www.w3.org/2000/svg" xmlns:xlink="http://www.w3.org/1999/xlink" width="196.759430" height="195.651917" viewBox="0 0 196.759430 195.651917">
<!-- Original BoundingBox: -151.717300 -53.249664 45.042130 142.402252 -->
  <defs>
    <g transform="scale(0.009963,0.009963)" id="GLYPHcmr10_48">
      <path style="fill-rule: evenodd;" d="M460.000000 -320.000000C460.000000 -400.000000,455.000000 -480.000000,420.000000 -554.000000C374.000000 -650.000000,292.000000 -666.000000,250.000000 -666.000000C190.000000 -666.000000,117.000000 -640.000000,76.000000 -547.000000C44.000000 -478.000000,39.000000 -400.000000,39.000000 -320.000000C39.000000 -245.000000,43.000000 -155.000000,84.000000 -79.000000C127.000000 2.000000,200.000000 22.000000,249.000000 22.000000C303.000000 22.000000,379.000000 1.000000,423.000000 -94.000000C455.000000 -163.000000,460.000000 -241.000000,460.000000 -320.000000M249.000000 -0.000000C210.000000 -0.000000,151.000000 -25.000000,133.000000 -121.000000C122.000000 -181.000000,122.000000 -273.000000,122.000000 -332.000000C122.000000 -396.000000,122.000000 -462.000000,130.000000 -516.000000C149.000000 -635.000000,224.000000 -644.000000,249.000000 -644.000000C282.000000 -644.000000,348.000000 -626.000000,367.000000 -527.000000C377.000000 -471.000000,377.000000 -395.000000,377.000000 -332.000000C377.000000 -257.000000,377.000000 -189.000000,366.000000 -125.000000C351.000000 -30.000000,294.000000 -0.000000,249.000000 -0.000000"></path>
    </g>
    <g transform="scale(0.009963,0.009963)" id="GLYPHcmr10_49">
      <path style="fill-rule: evenodd;" d="M294.000000 -640.000000C294.000000 -664.000000,294.000000 -666.000000,271.000000 -666.000000C209.000000 -602.000000,121.000000 -602.000000,89.000000 -602.000000L89.000000 -571.000000C109.000000 -571.000000,168.000000 -571.000000,220.000000 -597.000000L220.000000 -79.000000C220.000000 -43.000000,217.000000 -31.000000,127.000000 -31.000000L95.000000 -31.000000L95.000000 -0.000000L257.000000 -0.000000L130.000000 -3.000000L217.000000 -3.000000L257.000000 -3.000000L297.000000 -3.000000L384.000000 -3.000000L419.000000 -0.000000L419.000000 -31.000000L387.000000 -31.000000C297.000000 -31.000000,294.000000 -42.000000,294.000000 -79.000000"></path>
    </g>
    <g transform="scale(0.009963,0.009963)" id="GLYPHcmr10_50">
      <path style="fill-rule: evenodd;" d="M127.000000 -77.000000L233.000000 -180.000000C389.000000 -318.000000,449.000000 -372.000000,449.000000 -472.000000C449.000000 -586.000000,359.000000 -666.000000,237.000000 -666.000000C124.000000 -666.000000,50.000000 -574.000000,50.000000 -485.000000C50.000000 -429.000000,100.000000 -429.000000,103.000000 -429.000000C120.000000 -429.000000,155.000000 -441.000000,155.000000 -482.000000C155.000000 -508.000000,137.000000 -534.000000,102.000000 -534.000000C94.000000 -534.000000,92.000000 -534.000000,89.000000 -533.000000C112.000000 -598.000000,166.000000 -635.000000,224.000000 -635.000000C315.000000 -635.000000,358.000000 -554.000000,358.000000 -472.000000C358.000000 -392.000000,308.000000 -313.000000,253.000000 -251.000000L61.000000 -37.000000C50.000000 -26.000000,50.000000 -24.000000,50.000000 -0.000000L421.000000 -0.000000L449.000000 -174.000000L424.000000 -174.000000C419.000000 -144.000000,412.000000 -100.000000,402.000000 -85.000000C395.000000 -77.000000,329.000000 -77.000000,307.000000 -77.000000"></path>
    </g>
    <g transform="scale(0.009963,0.009963)" id="GLYPHcmr10_51">
      <path style="fill-rule: evenodd;" d="M290.000000 -352.000000C372.000000 -379.000000,430.000000 -449.000000,430.000000 -528.000000C430.000000 -610.000000,342.000000 -666.000000,246.000000 -666.000000C145.000000 -666.000000,69.000000 -606.000000,69.000000 -530.000000C69.000000 -497.000000,91.000000 -478.000000,120.000000 -478.000000C151.000000 -478.000000,171.000000 -500.000000,171.000000 -529.000000C171.000000 -579.000000,124.000000 -579.000000,109.000000 -579.000000C140.000000 -628.000000,206.000000 -641.000000,242.000000 -641.000000C283.000000 -641.000000,338.000000 -619.000000,338.000000 -529.000000C338.000000 -517.000000,336.000000 -459.000000,310.000000 -415.000000C280.000000 -367.000000,246.000000 -364.000000,221.000000 -363.000000C213.000000 -362.000000,189.000000 -360.000000,182.000000 -360.000000C174.000000 -359.000000,167.000000 -358.000000,167.000000 -348.000000C167.000000 -337.000000,174.000000 -337.000000,191.000000 -337.000000L235.000000 -337.000000C317.000000 -337.000000,354.000000 -269.000000,354.000000 -171.000000C354.000000 -35.000000,285.000000 -6.000000,241.000000 -6.000000C198.000000 -6.000000,123.000000 -23.000000,88.000000 -82.000000C123.000000 -77.000000,154.000000 -99.000000,154.000000 -137.000000C154.000000 -173.000000,127.000000 -193.000000,98.000000 -193.000000C74.000000 -193.000000,42.000000 -179.000000,42.000000 -135.000000C42.000000 -44.000000,135.000000 22.000000,244.000000 22.000000C366.000000 22.000000,457.000000 -69.000000,457.000000 -171.000000C457.000000 -253.000000,394.000000 -331.000000,290.000000 -352.000000"></path>
    </g>
    <g transform="scale(0.009963,0.009963)" id="GLYPHcmr10_52">
      <path style="fill-rule: evenodd;" d="M294.000000 -165.000000L294.000000 -78.000000C294.000000 -42.000000,292.000000 -31.000000,218.000000 -31.000000L197.000000 -31.000000L197.000000 -0.000000L332.000000 -0.000000L238.000000 -3.000000L290.000000 -3.000000L332.000000 -3.000000L374.000000 -3.000000L427.000000 -3.000000L468.000000 -0.000000L468.000000 -31.000000L447.000000 -31.000000C373.000000 -31.000000,371.000000 -42.000000,371.000000 -78.000000L371.000000 -165.000000L471.000000 -165.000000L471.000000 -196.000000L371.000000 -196.000000L371.000000 -651.000000C371.000000 -671.000000,371.000000 -677.000000,355.000000 -677.000000C346.000000 -677.000000,343.000000 -677.000000,335.000000 -665.000000L28.000000 -196.000000L28.000000 -165.000000M300.000000 -196.000000L56.000000 -196.000000L300.000000 -569.000000"></path>
    </g>
    <g transform="scale(0.009963,0.009963)" id="GLYPHcmr10_53">
      <path style="fill-rule: evenodd;" d="M449.000000 -201.000000C449.000000 -320.000000,367.000000 -420.000000,259.000000 -420.000000C211.000000 -420.000000,168.000000 -404.000000,132.000000 -369.000000L132.000000 -564.000000C152.000000 -558.000000,185.000000 -551.000000,217.000000 -551.000000C340.000000 -551.000000,410.000000 -642.000000,410.000000 -655.000000C410.000000 -661.000000,407.000000 -666.000000,400.000000 -666.000000C399.000000 -666.000000,397.000000 -666.000000,392.000000 -663.000000C372.000000 -654.000000,323.000000 -634.000000,256.000000 -634.000000C216.000000 -634.000000,170.000000 -641.000000,123.000000 -662.000000C115.000000 -665.000000,113.000000 -665.000000,111.000000 -665.000000C101.000000 -665.000000,101.000000 -657.000000,101.000000 -641.000000L101.000000 -345.000000C101.000000 -327.000000,101.000000 -319.000000,115.000000 -319.000000C122.000000 -319.000000,124.000000 -322.000000,128.000000 -328.000000C139.000000 -344.000000,176.000000 -398.000000,257.000000 -398.000000C309.000000 -398.000000,334.000000 -352.000000,342.000000 -334.000000C358.000000 -297.000000,360.000000 -258.000000,360.000000 -208.000000C360.000000 -173.000000,360.000000 -113.000000,336.000000 -71.000000C312.000000 -32.000000,275.000000 -6.000000,229.000000 -6.000000C156.000000 -6.000000,99.000000 -59.000000,82.000000 -118.000000C85.000000 -117.000000,88.000000 -116.000000,99.000000 -116.000000C132.000000 -116.000000,149.000000 -141.000000,149.000000 -165.000000C149.000000 -189.000000,132.000000 -214.000000,99.000000 -214.000000C85.000000 -214.000000,50.000000 -207.000000,50.000000 -161.000000C50.000000 -75.000000,119.000000 22.000000,231.000000 22.000000C347.000000 22.000000,449.000000 -74.000000,449.000000 -201.000000"></path>
    </g>
    <g transform="scale(0.009963,0.009963)" id="GLYPHcmr10_54">
      <path style="fill-rule: evenodd;" d="M132.000000 -328.000000L132.000000 -352.000000C132.000000 -605.000000,256.000000 -641.000000,307.000000 -641.000000C331.000000 -641.000000,373.000000 -635.000000,395.000000 -601.000000C380.000000 -601.000000,340.000000 -601.000000,340.000000 -556.000000C340.000000 -525.000000,364.000000 -510.000000,386.000000 -510.000000C402.000000 -510.000000,432.000000 -519.000000,432.000000 -558.000000C432.000000 -618.000000,388.000000 -666.000000,305.000000 -666.000000C177.000000 -666.000000,42.000000 -537.000000,42.000000 -316.000000C42.000000 -49.000000,158.000000 22.000000,251.000000 22.000000C362.000000 22.000000,457.000000 -72.000000,457.000000 -204.000000C457.000000 -331.000000,368.000000 -427.000000,257.000000 -427.000000C189.000000 -427.000000,152.000000 -376.000000,132.000000 -328.000000M251.000000 -6.000000C188.000000 -6.000000,158.000000 -66.000000,152.000000 -81.000000C134.000000 -128.000000,134.000000 -208.000000,134.000000 -226.000000C134.000000 -304.000000,166.000000 -404.000000,256.000000 -404.000000C272.000000 -404.000000,318.000000 -404.000000,349.000000 -342.000000C367.000000 -305.000000,367.000000 -254.000000,367.000000 -205.000000C367.000000 -157.000000,367.000000 -107.000000,350.000000 -71.000000C320.000000 -11.000000,274.000000 -6.000000,251.000000 -6.000000"></path>
    </g>
    <g transform="scale(0.009963,0.009963)" id="GLYPHcmr10_55">
      <path style="fill-rule: evenodd;" d="M476.000000 -609.000000C485.000000 -621.000000,485.000000 -623.000000,485.000000 -644.000000L242.000000 -644.000000C120.000000 -644.000000,118.000000 -657.000000,114.000000 -676.000000L89.000000 -676.000000L56.000000 -470.000000L81.000000 -470.000000C84.000000 -486.000000,93.000000 -549.000000,106.000000 -561.000000C113.000000 -567.000000,191.000000 -567.000000,204.000000 -567.000000L411.000000 -567.000000C400.000000 -551.000000,321.000000 -442.000000,299.000000 -409.000000C209.000000 -274.000000,176.000000 -135.000000,176.000000 -33.000000C176.000000 -23.000000,176.000000 22.000000,222.000000 22.000000C268.000000 22.000000,268.000000 -23.000000,268.000000 -33.000000L268.000000 -84.000000C268.000000 -139.000000,271.000000 -194.000000,279.000000 -248.000000C283.000000 -271.000000,297.000000 -357.000000,341.000000 -419.000000"></path>
    </g>
    <g transform="scale(0.009963,0.009963)" id="GLYPHcmr10_56">
      <path style="fill-rule: evenodd;" d="M163.000000 -457.000000C117.000000 -487.000000,113.000000 -521.000000,113.000000 -538.000000C113.000000 -599.000000,178.000000 -641.000000,249.000000 -641.000000C322.000000 -641.000000,386.000000 -589.000000,386.000000 -517.000000C386.000000 -460.000000,347.000000 -412.000000,287.000000 -377.000000M309.000000 -362.000000C381.000000 -399.000000,430.000000 -451.000000,430.000000 -517.000000C430.000000 -609.000000,341.000000 -666.000000,250.000000 -666.000000C150.000000 -666.000000,69.000000 -592.000000,69.000000 -499.000000C69.000000 -481.000000,71.000000 -436.000000,113.000000 -389.000000C124.000000 -377.000000,161.000000 -352.000000,186.000000 -335.000000C128.000000 -306.000000,42.000000 -250.000000,42.000000 -151.000000C42.000000 -45.000000,144.000000 22.000000,249.000000 22.000000C362.000000 22.000000,457.000000 -61.000000,457.000000 -168.000000C457.000000 -204.000000,446.000000 -249.000000,408.000000 -291.000000C389.000000 -312.000000,373.000000 -322.000000,309.000000 -362.000000M209.000000 -320.000000L332.000000 -242.000000C360.000000 -223.000000,407.000000 -193.000000,407.000000 -132.000000C407.000000 -58.000000,332.000000 -6.000000,250.000000 -6.000000C164.000000 -6.000000,92.000000 -68.000000,92.000000 -151.000000C92.000000 -209.000000,124.000000 -273.000000,209.000000 -320.000000"></path>
    </g>
    <g transform="scale(0.009963,0.009963)" id="GLYPHcmr10_57">
      <path style="fill-rule: evenodd;" d="M367.000000 -318.000000L367.000000 -286.000000C367.000000 -52.000000,263.000000 -6.000000,205.000000 -6.000000C188.000000 -6.000000,134.000000 -8.000000,107.000000 -42.000000C151.000000 -42.000000,159.000000 -71.000000,159.000000 -88.000000C159.000000 -119.000000,135.000000 -134.000000,113.000000 -134.000000C97.000000 -134.000000,67.000000 -125.000000,67.000000 -86.000000C67.000000 -19.000000,121.000000 22.000000,206.000000 22.000000C335.000000 22.000000,457.000000 -114.000000,457.000000 -329.000000C457.000000 -598.000000,342.000000 -666.000000,253.000000 -666.000000C198.000000 -666.000000,149.000000 -648.000000,106.000000 -603.000000C65.000000 -558.000000,42.000000 -516.000000,42.000000 -441.000000C42.000000 -316.000000,130.000000 -218.000000,242.000000 -218.000000C303.000000 -218.000000,344.000000 -260.000000,367.000000 -318.000000M243.000000 -241.000000C227.000000 -241.000000,181.000000 -241.000000,150.000000 -304.000000C132.000000 -341.000000,132.000000 -391.000000,132.000000 -440.000000C132.000000 -494.000000,132.000000 -541.000000,153.000000 -578.000000C180.000000 -628.000000,218.000000 -641.000000,253.000000 -641.000000C299.000000 -641.000000,332.000000 -607.000000,349.000000 -562.000000C361.000000 -530.000000,365.000000 -467.000000,365.000000 -421.000000C365.000000 -338.000000,331.000000 -241.000000,243.000000 -241.000000"></path>
    </g>
  </defs>
  <path d="M134.725662 184.658752C134.725662 183.866058,134.410721 183.105911,133.850235 182.545441C133.289764 181.984955,132.529617 181.670013,131.736923 181.670013C130.944229 181.670013,130.184082 181.984955,129.623611 182.545441C129.063126 183.105911,128.748184 183.866058,128.748184 184.658752C128.748184 185.451447,129.063126 186.211594,129.623611 186.772064C130.184082 187.332550,130.944229 187.647491,131.736923 187.647491C132.529617 187.647491,133.289764 187.332550,133.850235 186.772064C134.410721 186.211594,134.725662 185.451447,134.725662 184.658752Z" style="fill: rgb(100.000000%,100.000000%,100.000000%);stroke: none;"></path>
  <path d="M111.545654 188.545624C111.545654 187.752930,111.230713 186.992783,110.670227 186.432312C110.109756 185.871826,109.349609 185.556885,108.556915 185.556885C107.764221 185.556885,107.004074 185.871826,106.443604 186.432312C105.883118 186.992783,105.568176 187.752930,105.568176 188.545624C105.568176 189.338318,105.883118 190.098465,106.443604 190.658936C107.004074 191.219421,107.764221 191.534363,108.556915 191.534363C109.349609 191.534363,110.109756 191.219421,110.670227 190.658936C111.230713 190.098465,111.545654 189.338318,111.545654 188.545624Z" style="fill: rgb(100.000000%,100.000000%,100.000000%);stroke: none;"></path>
  <path d="M155.221436 125.372040C155.221436 124.579346,154.906494 123.819199,154.346008 123.258728C153.785538 122.698242,153.025391 122.383301,152.232697 122.383301C151.440002 122.383301,150.679855 122.698242,150.119385 123.258728C149.558899 123.819199,149.243958 124.579346,149.243958 125.372040C149.243958 126.164734,149.558899 126.924881,150.119385 127.485352C150.679855 128.045837,151.440002 128.360779,152.232697 128.360779C153.025391 128.360779,153.785538 128.045837,154.346008 127.485352C154.906494 126.924881,155.221436 126.164734,155.221436 125.372040Z" style="fill: rgb(100.000000%,100.000000%,100.000000%);stroke: none;"></path>
  <path d="M152.251099 165.439316C152.251099 164.646622,151.936157 163.886475,151.375671 163.326004C150.815201 162.765518,150.055054 162.450577,149.262360 162.450577C148.469666 162.450577,147.709518 162.765518,147.149048 163.326004C146.588562 163.886475,146.273621 164.646622,146.273621 165.439316C146.273621 166.232010,146.588562 166.992157,147.149048 167.552628C147.709518 168.113113,148.469666 168.428055,149.262360 168.428055C150.055054 168.428055,150.815201 168.113113,151.375671 167.552628C151.936157 166.992157,152.251099 166.232010,152.251099 165.439316Z" style="fill: rgb(100.000000%,100.000000%,100.000000%);stroke: none;"></path>
  <path d="M149.249725 83.660538C149.249725 82.867844,148.934784 82.107697,148.374298 81.547226C147.813828 80.986740,147.053680 80.671799,146.260986 80.671799C145.468292 80.671799,144.708145 80.986740,144.147675 81.547226C143.587189 82.107697,143.272247 82.867844,143.272247 83.660538C143.272247 84.453232,143.587189 85.213379,144.147675 85.773849C144.708145 86.334335,145.468292 86.649277,146.260986 86.649277C147.053680 86.649277,147.813828 86.334335,148.374298 85.773849C148.934784 85.213379,149.249725 84.453232,149.249725 83.660538Z" style="fill: rgb(100.000000%,100.000000%,100.000000%);stroke: none;"></path>
  <path d="M147.765747 109.278244C147.765747 108.485550,147.450806 107.725403,146.890320 107.164932C146.329849 106.604446,145.569702 106.289505,144.777008 106.289505C143.984314 106.289505,143.224167 106.604446,142.663696 107.164932C142.103210 107.725403,141.788269 108.485550,141.788269 109.278244C141.788269 110.070938,142.103210 110.831085,142.663696 111.391556C143.224167 111.952042,143.984314 112.266983,144.777008 112.266983C145.569702 112.266983,146.329849 111.952042,146.890320 111.391556C147.450806 110.831085,147.765747 110.070938,147.765747 109.278244Z" style="fill: rgb(100.000000%,100.000000%,100.000000%);stroke: none;"></path>
  <path d="M155.009750 61.195435C155.009750 60.402740,154.694809 59.642593,154.134323 59.082123C153.573853 58.521637,152.813705 58.206696,152.021011 58.206696C151.228317 58.206696,150.468170 58.521637,149.907700 59.082123C149.347214 59.642593,149.032272 60.402740,149.032272 61.195435C149.032272 61.988129,149.347214 62.748276,149.907700 63.308746C150.468170 63.869232,151.228317 64.184174,152.021011 64.184174C152.813705 64.184174,153.573853 63.869232,154.134323 63.308746C154.694809 62.748276,155.009750 61.988129,155.009750 61.195435Z" style="fill: rgb(100.000000%,100.000000%,100.000000%);stroke: none;"></path>
  <path d="M152.211731 75.062454C152.211731 74.269760,151.896790 73.509613,151.336304 72.949142C150.775833 72.388657,150.015686 72.073715,149.222992 72.073715C148.430298 72.073715,147.670151 72.388657,147.109680 72.949142C146.549194 73.509613,146.234253 74.269760,146.234253 75.062454C146.234253 75.855148,146.549194 76.615295,147.109680 77.175766C147.670151 77.736252,148.430298 78.051193,149.222992 78.051193C150.015686 78.051193,150.775833 77.736252,151.336304 77.175766C151.896790 76.615295,152.211731 75.855148,152.211731 75.062454Z" style="fill: rgb(100.000000%,100.000000%,100.000000%);stroke: none;"></path>
  <path d="M164.545898 46.579193C164.545898 45.786499,164.230957 45.026352,163.670471 44.465881C163.110001 43.905396,162.349854 43.590454,161.557159 43.590454C160.764465 43.590454,160.004318 43.905396,159.443848 44.465881C158.883362 45.026352,158.568420 45.786499,158.568420 46.579193C158.568420 47.371887,158.883362 48.132034,159.443848 48.692505C160.004318 49.252991,160.764465 49.567932,161.557159 49.567932C162.349854 49.567932,163.110001 49.252991,163.670471 48.692505C164.230957 48.132034,164.545898 47.371887,164.545898 46.579193Z" style="fill: rgb(100.000000%,100.000000%,100.000000%);stroke: none;"></path>
  <path d="M155.771805 55.830704C155.771805 55.038010,155.456863 54.277863,154.896378 53.717392C154.335907 53.156906,153.575760 52.841965,152.783066 52.841965C151.990372 52.841965,151.230225 53.156906,150.669754 53.717392C150.109268 54.277863,149.794327 55.038010,149.794327 55.830704C149.794327 56.623398,150.109268 57.383545,150.669754 57.944016C151.230225 58.504501,151.990372 58.819443,152.783066 58.819443C153.575760 58.819443,154.335907 58.504501,154.896378 57.944016C155.456863 57.383545,155.771805 56.623398,155.771805 55.830704Z" style="fill: rgb(100.000000%,100.000000%,100.000000%);stroke: none;"></path>
  <path d="M196.042130 59.933121C196.042130 59.140427,195.727188 58.380280,195.166702 57.819809C194.606232 57.259323,193.846085 56.944382,193.053391 56.944382C192.260696 56.944382,191.500549 57.259323,190.940079 57.819809C190.379593 58.380280,190.064651 59.140427,190.064651 59.933121C190.064651 60.725815,190.379593 61.485962,190.940079 62.046432C191.500549 62.606918,192.260696 62.921860,193.053391 62.921860C193.846085 62.921860,194.606232 62.606918,195.166702 62.046432C195.727188 61.485962,196.042130 60.725815,196.042130 59.933121Z" style="fill: rgb(100.000000%,100.000000%,100.000000%);stroke: none;"></path>
  <path d="M173.073349 46.545868C173.073349 45.753174,172.758408 44.993027,172.197922 44.432556C171.637451 43.872070,170.877304 43.557129,170.084610 43.557129C169.291916 43.557129,168.531769 43.872070,167.971298 44.432556C167.410812 44.993027,167.095871 45.753174,167.095871 46.545868C167.095871 47.338562,167.410812 48.098709,167.971298 48.659180C168.531769 49.219666,169.291916 49.534607,170.084610 49.534607C170.877304 49.534607,171.637451 49.219666,172.197922 48.659180C172.758408 48.098709,173.073349 47.338562,173.073349 46.545868Z" style="fill: rgb(100.000000%,100.000000%,100.000000%);stroke: none;"></path>
  <path d="M185.210815 122.046463C185.210815 121.253769,184.895874 120.493622,184.335388 119.933151C183.774918 119.372665,183.014771 119.057724,182.222076 119.057724C181.429382 119.057724,180.669235 119.372665,180.108765 119.933151C179.548279 120.493622,179.233337 121.253769,179.233337 122.046463C179.233337 122.839157,179.548279 123.599304,180.108765 124.159775C180.669235 124.720261,181.429382 125.035202,182.222076 125.035202C183.014771 125.035202,183.774918 124.720261,184.335388 124.159775C184.895874 123.599304,185.210815 122.839157,185.210815 122.046463Z" style="fill: rgb(100.000000%,100.000000%,100.000000%);stroke: none;"></path>
  <path d="M195.451508 81.905853C195.451508 81.113159,195.136566 80.353012,194.576080 79.792542C194.015610 79.232056,193.255463 78.917114,192.462769 78.917114C191.670074 78.917114,190.909927 79.232056,190.349457 79.792542C189.788971 80.353012,189.474030 81.113159,189.474030 81.905853C189.474030 82.698547,189.788971 83.458694,190.349457 84.019165C190.909927 84.579651,191.670074 84.894592,192.462769 84.894592C193.255463 84.894592,194.015610 84.579651,194.576080 84.019165C195.136566 83.458694,195.451508 82.698547,195.451508 81.905853Z" style="fill: rgb(100.000000%,100.000000%,100.000000%);stroke: none;"></path>
  <path d="M138.320404 141.408600C138.320404 140.615906,138.005463 139.855759,137.444977 139.295288C136.884506 138.734802,136.124359 138.419861,135.331665 138.419861C134.538971 138.419861,133.778824 138.734802,133.218353 139.295288C132.657867 139.855759,132.342926 140.615906,132.342926 141.408600C132.342926 142.201294,132.657867 142.961441,133.218353 143.521912C133.778824 144.082397,134.538971 144.397339,135.331665 144.397339C136.124359 144.397339,136.884506 144.082397,137.444977 143.521912C138.005463 142.961441,138.320404 142.201294,138.320404 141.408600Z" style="fill: rgb(100.000000%,100.000000%,100.000000%);stroke: none;"></path>
  <path d="M173.885178 142.750992C173.885178 141.958298,173.570236 141.198151,173.009750 140.637680C172.449280 140.077194,171.689133 139.762253,170.896439 139.762253C170.103745 139.762253,169.343597 140.077194,168.783127 140.637680C168.222641 141.198151,167.907700 141.958298,167.907700 142.750992C167.907700 143.543686,168.222641 144.303833,168.783127 144.864304C169.343597 145.424789,170.103745 145.739731,170.896439 145.739731C171.689133 145.739731,172.449280 145.424789,173.009750 144.864304C173.570236 144.303833,173.885178 143.543686,173.885178 142.750992Z" style="fill: rgb(100.000000%,100.000000%,100.000000%);stroke: none;"></path>
  <path d="M109.458557 110.170273C109.458557 109.377579,109.143616 108.617432,108.583130 108.056961C108.022659 107.496475,107.262512 107.181534,106.469818 107.181534C105.677124 107.181534,104.916977 107.496475,104.356506 108.056961C103.796021 108.617432,103.481079 109.377579,103.481079 110.170273C103.481079 110.962967,103.796021 111.723114,104.356506 112.283585C104.916977 112.844070,105.677124 113.159012,106.469818 113.159012C107.262512 113.159012,108.022659 112.844070,108.583130 112.283585C109.143616 111.723114,109.458557 110.962967,109.458557 110.170273Z" style="fill: rgb(100.000000%,100.000000%,100.000000%);stroke: none;"></path>
  <path d="M128.980911 126.392212C128.980911 125.599518,128.665970 124.839371,128.105484 124.278900C127.545013 123.718414,126.784866 123.403473,125.992172 123.403473C125.199478 123.403473,124.439331 123.718414,123.878860 124.278900C123.318375 124.839371,123.003433 125.599518,123.003433 126.392212C123.003433 127.184906,123.318375 127.945053,123.878860 128.505524C124.439331 129.066010,125.199478 129.380951,125.992172 129.380951C126.784866 129.380951,127.545013 129.066010,128.105484 128.505524C128.665970 127.945053,128.980911 127.184906,128.980911 126.392212Z" style="fill: rgb(100.000000%,100.000000%,100.000000%);stroke: none;"></path>
  <path d="M85.777252 97.145828C85.777252 96.353134,85.462311 95.592987,84.901825 95.032516C84.341354 94.472031,83.581207 94.157089,82.788513 94.157089C81.995819 94.157089,81.235672 94.472031,80.675201 95.032516C80.114716 95.592987,79.799774 96.353134,79.799774 97.145828C79.799774 97.938522,80.114716 98.698669,80.675201 99.259140C81.235672 99.819626,81.995819 100.134567,82.788513 100.134567C83.581207 100.134567,84.341354 99.819626,84.901825 99.259140C85.462311 98.698669,85.777252 97.938522,85.777252 97.145828Z" style="fill: rgb(100.000000%,100.000000%,100.000000%);stroke: none;"></path>
  <path d="M100.414139 105.937912C100.414139 105.145218,100.099197 104.385071,99.538712 103.824600C98.978241 103.264114,98.218094 102.949173,97.425400 102.949173C96.632706 102.949173,95.872559 103.264114,95.312088 103.824600C94.751602 104.385071,94.436661 105.145218,94.436661 105.937912C94.436661 106.730606,94.751602 107.490753,95.312088 108.051224C95.872559 108.611710,96.632706 108.926651,97.425400 108.926651C98.218094 108.926651,98.978241 108.611710,99.538712 108.051224C100.099197 107.490753,100.414139 106.730606,100.414139 105.937912Z" style="fill: rgb(100.000000%,100.000000%,100.000000%);stroke: none;"></path>
  <path d="M68.745346 87.513458C68.745346 86.720764,68.430405 85.960617,67.869919 85.400146C67.309448 84.839661,66.549301 84.524719,65.756607 84.524719C64.963913 84.524719,64.203766 84.839661,63.643295 85.400146C63.082809 85.960617,62.767868 86.720764,62.767868 87.513458C62.767868 88.306152,63.082809 89.066299,63.643295 89.626770C64.203766 90.187256,64.963913 90.502197,65.756607 90.502197C66.549301 90.502197,67.309448 90.187256,67.869919 89.626770C68.430405 89.066299,68.745346 88.306152,68.745346 87.513458Z" style="fill: rgb(100.000000%,100.000000%,100.000000%);stroke: none;"></path>
  <path d="M79.888351 92.971558C79.888351 92.178864,79.573410 91.418716,79.012924 90.858246C78.452454 90.297760,77.692307 89.982819,76.899612 89.982819C76.106918 89.982819,75.346771 90.297760,74.786301 90.858246C74.225815 91.418716,73.910873 92.178864,73.910873 92.971558C73.910873 93.764252,74.225815 94.524399,74.786301 95.084869C75.346771 95.645355,76.106918 95.960297,76.899612 95.960297C77.692307 95.960297,78.452454 95.645355,79.012924 95.084869C79.573410 94.524399,79.888351 93.764252,79.888351 92.971558Z" style="fill: rgb(100.000000%,100.000000%,100.000000%);stroke: none;"></path>
  <path d="M57.103226 83.876938C57.103226 83.084244,56.788284 82.324097,56.227798 81.763626C55.667328 81.203140,54.907181 80.888199,54.114487 80.888199C53.321793 80.888199,52.561646 81.203140,52.001175 81.763626C51.440689 82.324097,51.125748 83.084244,51.125748 83.876938C51.125748 84.669632,51.440689 85.429779,52.001175 85.990250C52.561646 86.550735,53.321793 86.865677,54.114487 86.865677C54.907181 86.865677,55.667328 86.550735,56.227798 85.990250C56.788284 85.429779,57.103226 84.669632,57.103226 83.876938Z" style="fill: rgb(100.000000%,100.000000%,100.000000%);stroke: none;"></path>
  <path d="M63.814346 85.777161C63.814346 84.984467,63.499405 84.224319,62.938919 83.663849C62.378448 83.103363,61.618301 82.788422,60.825607 82.788422C60.032913 82.788422,59.272766 83.103363,58.712296 83.663849C58.151810 84.224319,57.836868 84.984467,57.836868 85.777161C57.836868 86.569855,58.151810 87.330002,58.712296 87.890472C59.272766 88.450958,60.032913 88.765900,60.825607 88.765900C61.618301 88.765900,62.378448 88.450958,62.938919 87.890472C63.499405 87.330002,63.814346 86.569855,63.814346 85.777161Z" style="fill: rgb(100.000000%,100.000000%,100.000000%);stroke: none;"></path>
  <path d="M52.406189 85.602600C52.406189 84.809906,52.091248 84.049759,51.530762 83.489288C50.970291 82.928802,50.210144 82.613861,49.417450 82.613861C48.624756 82.613861,47.864609 82.928802,47.304138 83.489288C46.743652 84.049759,46.428711 84.809906,46.428711 85.602600C46.428711 86.395294,46.743652 87.155441,47.304138 87.715912C47.864609 88.276398,48.624756 88.591339,49.417450 88.591339C50.210144 88.591339,50.970291 88.276398,51.530762 87.715912C52.091248 87.155441,52.406189 86.395294,52.406189 85.602600Z" style="fill: rgb(100.000000%,100.000000%,100.000000%);stroke: none;"></path>
  <path d="M55.241531 83.495163C55.241531 82.702469,54.926590 81.942322,54.366104 81.381851C53.805634 80.821365,53.045486 80.506424,52.252792 80.506424C51.460098 80.506424,50.699951 80.821365,50.139481 81.381851C49.578995 81.942322,49.264053 82.702469,49.264053 83.495163C49.264053 84.287857,49.578995 85.048004,50.139481 85.608475C50.699951 86.168961,51.460098 86.483902,52.252792 86.483902C53.045486 86.483902,53.805634 86.168961,54.366104 85.608475C54.926590 85.048004,55.241531 84.287857,55.241531 83.495163Z" style="fill: rgb(100.000000%,100.000000%,100.000000%);stroke: none;"></path>
  <path d="M52.457016 91.818115C52.457016 91.025421,52.142075 90.265274,51.581589 89.704803C51.021118 89.144318,50.260971 88.829376,49.468277 88.829376C48.675583 88.829376,47.915436 89.144318,47.354965 89.704803C46.794479 90.265274,46.479538 91.025421,46.479538 91.818115C46.479538 92.610809,46.794479 93.370956,47.354965 93.931427C47.915436 94.491913,48.675583 94.806854,49.468277 94.806854C50.260971 94.806854,51.021118 94.491913,51.581589 93.931427C52.142075 93.370956,52.457016 92.610809,52.457016 91.818115Z" style="fill: rgb(100.000000%,100.000000%,100.000000%);stroke: none;"></path>
  <path d="M52.261398 87.566803C52.261398 86.774109,51.946457 86.013962,51.385971 85.453491C50.825500 84.893005,50.065353 84.578064,49.272659 84.578064C48.479965 84.578064,47.719818 84.893005,47.159348 85.453491C46.598862 86.013962,46.283920 86.774109,46.283920 87.566803C46.283920 88.359497,46.598862 89.119644,47.159348 89.680115C47.719818 90.240601,48.479965 90.555542,49.272659 90.555542C50.065353 90.555542,50.825500 90.240601,51.385971 89.680115C51.946457 89.119644,52.261398 88.359497,52.261398 87.566803Z" style="fill: rgb(100.000000%,100.000000%,100.000000%);stroke: none;"></path>
  <path d="M47.784607 95.556580C47.784607 94.763885,47.469666 94.003738,46.909180 93.443268C46.348709 92.882782,45.588562 92.567841,44.795868 92.567841C44.003174 92.567841,43.243027 92.882782,42.682556 93.443268C42.122070 94.003738,41.807129 94.763885,41.807129 95.556580C41.807129 96.349274,42.122070 97.109421,42.682556 97.669891C43.243027 98.230377,44.003174 98.545319,44.795868 98.545319C45.588562 98.545319,46.348709 98.230377,46.909180 97.669891C47.469666 97.109421,47.784607 96.349274,47.784607 95.556580Z" style="fill: rgb(100.000000%,100.000000%,100.000000%);stroke: none;"></path>
  <path d="M52.180710 94.516327C52.180710 93.723633,51.865768 92.963486,51.305283 92.403015C50.744812 91.842529,49.984665 91.527588,49.191971 91.527588C48.399277 91.527588,47.639130 91.842529,47.078659 92.403015C46.518173 92.963486,46.203232 93.723633,46.203232 94.516327C46.203232 95.309021,46.518173 96.069168,47.078659 96.629639C47.639130 97.190125,48.399277 97.505066,49.191971 97.505066C49.984665 97.505066,50.744812 97.190125,51.305283 96.629639C51.865768 96.069168,52.180710 95.309021,52.180710 94.516327Z" style="fill: rgb(100.000000%,100.000000%,100.000000%);stroke: none;"></path>
  <path d="M43.844116 86.736679C43.844116 85.943985,43.529175 85.183838,42.968689 84.623367C42.408218 84.062881,41.648071 83.747940,40.855377 83.747940C40.062683 83.747940,39.302536 84.062881,38.742065 84.623367C38.181580 85.183838,37.866638 85.943985,37.866638 86.736679C37.866638 87.529373,38.181580 88.289520,38.742065 88.849991C39.302536 89.410477,40.062683 89.725418,40.855377 89.725418C41.648071 89.725418,42.408218 89.410477,42.968689 88.849991C43.529175 88.289520,43.844116 87.529373,43.844116 86.736679Z" style="fill: rgb(100.000000%,100.000000%,100.000000%);stroke: none;"></path>
  <path d="M46.317444 93.148727C46.317444 92.356033,46.002502 91.595886,45.442017 91.035416C44.881546 90.474930,44.121399 90.159988,43.328705 90.159988C42.536011 90.159988,41.775864 90.474930,41.215393 91.035416C40.654907 91.595886,40.339966 92.356033,40.339966 93.148727C40.339966 93.941422,40.654907 94.701569,41.215393 95.262039C41.775864 95.822525,42.536011 96.137466,43.328705 96.137466C44.121399 96.137466,44.881546 95.822525,45.442017 95.262039C46.002502 94.701569,46.317444 93.941422,46.317444 93.148727Z" style="fill: rgb(100.000000%,100.000000%,100.000000%);stroke: none;"></path>
  <path d="M36.051239 69.926132C36.051239 69.133438,35.736298 68.373291,35.175812 67.812820C34.615341 67.252335,33.855194 66.937393,33.062500 66.937393C32.269806 66.937393,31.509659 67.252335,30.949188 67.812820C30.388702 68.373291,30.073761 69.133438,30.073761 69.926132C30.073761 70.718826,30.388702 71.478973,30.949188 72.039444C31.509659 72.599930,32.269806 72.914871,33.062500 72.914871C33.855194 72.914871,34.615341 72.599930,35.175812 72.039444C35.736298 71.478973,36.051239 70.718826,36.051239 69.926132Z" style="fill: rgb(100.000000%,100.000000%,100.000000%);stroke: none;"></path>
  <path d="M41.782684 82.914871C41.782684 82.122177,41.467743 81.362030,40.907257 80.801559C40.346786 80.241074,39.586639 79.926132,38.793945 79.926132C38.001251 79.926132,37.241104 80.241074,36.680634 80.801559C36.120148 81.362030,35.805206 82.122177,35.805206 82.914871C35.805206 83.707565,36.120148 84.467712,36.680634 85.028183C37.241104 85.588669,38.001251 85.903610,38.793945 85.903610C39.586639 85.903610,40.346786 85.588669,40.907257 85.028183C41.467743 84.467712,41.782684 83.707565,41.782684 82.914871Z" style="fill: rgb(100.000000%,100.000000%,100.000000%);stroke: none;"></path>
  <path d="M39.719681 34.393753C39.719681 33.601059,39.404739 32.840912,38.844254 32.280441C38.283783 31.719955,37.523636 31.405014,36.730942 31.405014C35.938248 31.405014,35.178101 31.719955,34.617630 32.280441C34.057144 32.840912,33.742203 33.601059,33.742203 34.393753C33.742203 35.186447,34.057144 35.946594,34.617630 36.507065C35.178101 37.067551,35.938248 37.382492,36.730942 37.382492C37.523636 37.382492,38.283783 37.067551,38.844254 36.507065C39.404739 35.946594,39.719681 35.186447,39.719681 34.393753Z" style="fill: rgb(100.000000%,100.000000%,100.000000%);stroke: none;"></path>
  <path d="M33.713943 60.029312C33.713943 59.236618,33.399002 58.476471,32.838516 57.916000C32.278046 57.355515,31.517899 57.040573,30.725204 57.040573C29.932510 57.040573,29.172363 57.355515,28.611893 57.916000C28.051407 58.476471,27.736465 59.236618,27.736465 60.029312C27.736465 60.822006,28.051407 61.582153,28.611893 62.142624C29.172363 62.703110,29.932510 63.018051,30.725204 63.018051C31.517899 63.018051,32.278046 62.703110,32.838516 62.142624C33.399002 61.582153,33.713943 60.822006,33.713943 60.029312Z" style="fill: rgb(100.000000%,100.000000%,100.000000%);stroke: none;"></path>
  <path d="M84.943039 9.840118C84.943039 9.047424,84.628098 8.287277,84.067612 7.726807C83.507141 7.166321,82.746994 6.851379,81.954300 6.851379C81.161606 6.851379,80.401459 7.166321,79.840988 7.726807C79.280502 8.287277,78.965561 9.047424,78.965561 9.840118C78.965561 10.632812,79.280502 11.392960,79.840988 11.953430C80.401459 12.513916,81.161606 12.828857,81.954300 12.828857C82.746994 12.828857,83.507141 12.513916,84.067612 11.953430C84.628098 11.392960,84.943039 10.632812,84.943039 9.840118Z" style="fill: rgb(100.000000%,100.000000%,100.000000%);stroke: none;"></path>
  <path d="M54.191040 24.266266C54.191040 23.473572,53.876099 22.713425,53.315613 22.152954C52.755142 21.592468,51.994995 21.277527,51.202301 21.277527C50.409607 21.277527,49.649460 21.592468,49.088989 22.152954C48.528503 22.713425,48.213562 23.473572,48.213562 24.266266C48.213562 25.058960,48.528503 25.819107,49.088989 26.379578C49.649460 26.940063,50.409607 27.255005,51.202301 27.255005C51.994995 27.255005,52.755142 26.940063,53.315613 26.379578C53.876099 25.819107,54.191040 25.058960,54.191040 24.266266Z" style="fill: rgb(100.000000%,100.000000%,100.000000%);stroke: none;"></path>
  <path d="M126.999466 26.260147C126.999466 25.467453,126.684525 24.707306,126.124039 24.146835C125.563568 23.586349,124.803421 23.271408,124.010727 23.271408C123.218033 23.271408,122.457886 23.586349,121.897415 24.146835C121.336929 24.707306,121.021988 25.467453,121.021988 26.260147C121.021988 27.052841,121.336929 27.812988,121.897415 28.373459C122.457886 28.933945,123.218033 29.248886,124.010727 29.248886C124.803421 29.248886,125.563568 28.933945,126.124039 28.373459C126.684525 27.812988,126.999466 27.052841,126.999466 26.260147Z" style="fill: rgb(100.000000%,100.000000%,100.000000%);stroke: none;"></path>
  <path d="M103.405502 5.785614C103.405502 4.992920,103.090561 4.232773,102.530075 3.672302C101.969604 3.111816,101.209457 2.796875,100.416763 2.796875C99.624069 2.796875,98.863922 3.111816,98.303452 3.672302C97.742966 4.232773,97.428024 4.992920,97.428024 5.785614C97.428024 6.578308,97.742966 7.338455,98.303452 7.898926C98.863922 8.459412,99.624069 8.774353,100.416763 8.774353C101.209457 8.774353,101.969604 8.459412,102.530075 7.898926C103.090561 7.338455,103.405502 6.578308,103.405502 5.785614Z" style="fill: rgb(100.000000%,100.000000%,100.000000%);stroke: none;"></path>
  <path d="M141.172638 59.275604C141.172638 58.482910,140.857697 57.722763,140.297211 57.162292C139.736740 56.601807,138.976593 56.286865,138.183899 56.286865C137.391205 56.286865,136.631058 56.601807,136.070587 57.162292C135.510101 57.722763,135.195160 58.482910,135.195160 59.275604C135.195160 60.068298,135.510101 60.828445,136.070587 61.388916C136.631058 61.949402,137.391205 62.264343,138.183899 62.264343C138.976593 62.264343,139.736740 61.949402,140.297211 61.388916C140.857697 60.828445,141.172638 60.068298,141.172638 59.275604Z" style="fill: rgb(100.000000%,100.000000%,100.000000%);stroke: none;"></path>
  <path d="M127.073151 42.974228C127.073151 42.181534,126.758209 41.421387,126.197723 40.860916C125.637253 40.300430,124.877106 39.985489,124.084412 39.985489C123.291718 39.985489,122.531570 40.300430,121.971100 40.860916C121.410614 41.421387,121.095673 42.181534,121.095673 42.974228C121.095673 43.766922,121.410614 44.527069,121.971100 45.087540C122.531570 45.648026,123.291718 45.962967,124.084412 45.962967C124.877106 45.962967,125.637253 45.648026,126.197723 45.087540C126.758209 44.527069,127.073151 43.766922,127.073151 42.974228Z" style="fill: rgb(100.000000%,100.000000%,100.000000%);stroke: none;"></path>
  <path d="M157.607452 68.379745C157.607452 67.587051,157.292511 66.826904,156.732025 66.266434C156.171555 65.705948,155.411407 65.391006,154.618713 65.391006C153.826019 65.391006,153.065872 65.705948,152.505402 66.266434C151.944916 66.826904,151.629974 67.587051,151.629974 68.379745C151.629974 69.172440,151.944916 69.932587,152.505402 70.493057C153.065872 71.053543,153.826019 71.368484,154.618713 71.368484C155.411407 71.368484,156.171555 71.053543,156.732025 70.493057C157.292511 69.932587,157.607452 69.172440,157.607452 68.379745Z" style="fill: rgb(100.000000%,100.000000%,100.000000%);stroke: none;"></path>
  <path d="M147.757629 62.597961C147.757629 61.805267,147.442688 61.045120,146.882202 60.484650C146.321732 59.924164,145.561584 59.609222,144.768890 59.609222C143.976196 59.609222,143.216049 59.924164,142.655579 60.484650C142.095093 61.045120,141.780151 61.805267,141.780151 62.597961C141.780151 63.390656,142.095093 64.150803,142.655579 64.711273C143.216049 65.271759,143.976196 65.586700,144.768890 65.586700C145.561584 65.586700,146.321732 65.271759,146.882202 64.711273C147.442688 64.150803,147.757629 63.390656,147.757629 62.597961Z" style="fill: rgb(100.000000%,100.000000%,100.000000%);stroke: none;"></path>
  <path d="M174.596512 70.047745C174.596512 69.255051,174.281570 68.494904,173.721085 67.934433C173.160614 67.373947,172.400467 67.059006,171.607773 67.059006C170.815079 67.059006,170.054932 67.373947,169.494461 67.934433C168.933975 68.494904,168.619034 69.255051,168.619034 70.047745C168.619034 70.840439,168.933975 71.600586,169.494461 72.161057C170.054932 72.721542,170.815079 73.036484,171.607773 73.036484C172.400467 73.036484,173.160614 72.721542,173.721085 72.161057C174.281570 71.600586,174.596512 70.840439,174.596512 70.047745Z" style="fill: rgb(100.000000%,100.000000%,100.000000%);stroke: none;"></path>
  <path d="M161.343353 70.685684C161.343353 69.892990,161.028412 69.132843,160.467926 68.572372C159.907455 68.011887,159.147308 67.696945,158.354614 67.696945C157.561920 67.696945,156.801773 68.011887,156.241302 68.572372C155.680817 69.132843,155.365875 69.892990,155.365875 70.685684C155.365875 71.478378,155.680817 72.238525,156.241302 72.798996C156.801773 73.359482,157.561920 73.674423,158.354614 73.674423C159.147308 73.674423,159.907455 73.359482,160.467926 72.798996C161.028412 72.238525,161.343353 71.478378,161.343353 70.685684Z" style="fill: rgb(100.000000%,100.000000%,100.000000%);stroke: none;"></path>
  <path d="M180.517319 33.877762C180.517319 33.085068,180.202377 32.324921,179.641891 31.764450C179.081421 31.203964,178.321274 30.889023,177.528580 30.889023C176.735886 30.889023,175.975739 31.203964,175.415268 31.764450C174.854782 32.324921,174.539841 33.085068,174.539841 33.877762C174.539841 34.670456,174.854782 35.430603,175.415268 35.991074C175.975739 36.551559,176.735886 36.866501,177.528580 36.866501C178.321274 36.866501,179.081421 36.551559,179.641891 35.991074C180.202377 35.430603,180.517319 34.670456,180.517319 33.877762Z" style="fill: rgb(100.000000%,100.000000%,100.000000%);stroke: none;"></path>
  <path d="M179.362839 60.331055C179.362839 59.538361,179.047897 58.778214,178.487411 58.217743C177.926941 57.657257,177.166794 57.342316,176.374100 57.342316C175.581406 57.342316,174.821259 57.657257,174.260788 58.217743C173.700302 58.778214,173.385361 59.538361,173.385361 60.331055C173.385361 61.123749,173.700302 61.883896,174.260788 62.444366C174.821259 63.004852,175.581406 63.319794,176.374100 63.319794C177.166794 63.319794,177.926941 63.004852,178.487411 62.444366C179.047897 61.883896,179.362839 61.123749,179.362839 60.331055Z" style="fill: rgb(100.000000%,100.000000%,100.000000%);stroke: none;"></path>
  <path d="M144.357544 2.586487C144.357544 1.793793,144.042603 1.033646,143.482117 0.473175C142.921646 -0.087311,142.161499 -0.402252,141.368805 -0.402252C140.576111 -0.402252,139.815964 -0.087311,139.255493 0.473175C138.695007 1.033646,138.380066 1.793793,138.380066 2.586487C138.380066 3.379181,138.695007 4.139328,139.255493 4.699799C139.815964 5.260284,140.576111 5.575226,141.368805 5.575226C142.161499 5.575226,142.921646 5.260284,143.482117 4.699799C144.042603 4.139328,144.357544 3.379181,144.357544 2.586487Z" style="fill: rgb(100.000000%,100.000000%,100.000000%);stroke: none;"></path>
  <path d="M173.025467 17.688644C173.025467 16.895950,172.710526 16.135803,172.150040 15.575333C171.589569 15.014847,170.829422 14.699905,170.036728 14.699905C169.244034 14.699905,168.483887 15.014847,167.923416 15.575333C167.362930 16.135803,167.047989 16.895950,167.047989 17.688644C167.047989 18.481339,167.362930 19.241486,167.923416 19.801956C168.483887 20.362442,169.244034 20.677383,170.036728 20.677383C170.829422 20.677383,171.589569 20.362442,172.150040 19.801956C172.710526 19.241486,173.025467 18.481339,173.025467 17.688644Z" style="fill: rgb(100.000000%,100.000000%,100.000000%);stroke: none;"></path>
  <path d="M104.010849 29.584778C104.010849 28.792084,103.695908 28.031937,103.135422 27.471466C102.574951 26.910980,101.814804 26.596039,101.022110 26.596039C100.229416 26.596039,99.469269 26.910980,98.908798 27.471466C98.348312 28.031937,98.033371 28.792084,98.033371 29.584778C98.033371 30.377472,98.348312 31.137619,98.908798 31.698090C99.469269 32.258575,100.229416 32.573517,101.022110 32.573517C101.814804 32.573517,102.574951 32.258575,103.135422 31.698090C103.695908 31.137619,104.010849 30.377472,104.010849 29.584778Z" style="fill: rgb(100.000000%,100.000000%,100.000000%);stroke: none;"></path>
  <path d="M127.008957 5.225357C127.008957 4.432663,126.694016 3.672516,126.133530 3.112045C125.573059 2.551559,124.812912 2.236618,124.020218 2.236618C123.227524 2.236618,122.467377 2.551559,121.906906 3.112045C121.346420 3.672516,121.031479 4.432663,121.031479 5.225357C121.031479 6.018051,121.346420 6.778198,121.906906 7.338669C122.467377 7.899155,123.227524 8.214096,124.020218 8.214096C124.812912 8.214096,125.573059 7.899155,126.133530 7.338669C126.694016 6.778198,127.008957 6.018051,127.008957 5.225357Z" style="fill: rgb(100.000000%,100.000000%,100.000000%);stroke: none;"></path>
  <path d="M99.850021 77.829636C99.850021 77.036942,99.535080 76.276794,98.974594 75.716324C98.414124 75.155838,97.653976 74.840897,96.861282 74.840897C96.068588 74.840897,95.308441 75.155838,94.747971 75.716324C94.187485 76.276794,93.872543 77.036942,93.872543 77.829636C93.872543 78.622330,94.187485 79.382477,94.747971 79.942947C95.308441 80.503433,96.068588 80.818375,96.861282 80.818375C97.653976 80.818375,98.414124 80.503433,98.974594 79.942947C99.535080 79.382477,99.850021 78.622330,99.850021 77.829636Z" style="fill: rgb(100.000000%,100.000000%,100.000000%);stroke: none;"></path>
  <path d="M104.119888 48.463593C104.119888 47.670898,103.804947 46.910751,103.244461 46.350281C102.683990 45.789795,101.923843 45.474854,101.131149 45.474854C100.338455 45.474854,99.578308 45.789795,99.017838 46.350281C98.457352 46.910751,98.142410 47.670898,98.142410 48.463593C98.142410 49.256287,98.457352 50.016434,99.017838 50.576904C99.578308 51.137390,100.338455 51.452332,101.131149 51.452332C101.923843 51.452332,102.683990 51.137390,103.244461 50.576904C103.804947 50.016434,104.119888 49.256287,104.119888 48.463593Z" style="fill: rgb(100.000000%,100.000000%,100.000000%);stroke: none;"></path>
  <path d="M87.658539 111.328796C87.658539 110.536102,87.343597 109.775955,86.783112 109.215485C86.222641 108.654999,85.462494 108.340057,84.669800 108.340057C83.877106 108.340057,83.116959 108.654999,82.556488 109.215485C81.996002 109.775955,81.681061 110.536102,81.681061 111.328796C81.681061 112.121490,81.996002 112.881638,82.556488 113.442108C83.116959 114.002594,83.877106 114.317535,84.669800 114.317535C85.462494 114.317535,86.222641 114.002594,86.783112 113.442108C87.343597 112.881638,87.658539 112.121490,87.658539 111.328796Z" style="fill: rgb(100.000000%,100.000000%,100.000000%);stroke: none;"></path>
  <path d="M96.539322 89.584152C96.539322 88.791458,96.224380 88.031311,95.663895 87.470840C95.103424 86.910355,94.343277 86.595413,93.550583 86.595413C92.757889 86.595413,91.997742 86.910355,91.437271 87.470840C90.876785 88.031311,90.561844 88.791458,90.561844 89.584152C90.561844 90.376846,90.876785 91.136993,91.437271 91.697464C91.997742 92.257950,92.757889 92.572891,93.550583 92.572891C94.343277 92.572891,95.103424 92.257950,95.663895 91.697464C96.224380 91.136993,96.539322 90.376846,96.539322 89.584152Z" style="fill: rgb(100.000000%,100.000000%,100.000000%);stroke: none;"></path>
  <path d="M74.775223 148.289703C74.775223 147.497009,74.460281 146.736862,73.899796 146.176392C73.339325 145.615906,72.579178 145.300964,71.786484 145.300964C70.993790 145.300964,70.233643 145.615906,69.673172 146.176392C69.112686 146.736862,68.797745 147.497009,68.797745 148.289703C68.797745 149.082397,69.112686 149.842545,69.673172 150.403015C70.233643 150.963501,70.993790 151.278442,71.786484 151.278442C72.579178 151.278442,73.339325 150.963501,73.899796 150.403015C74.460281 149.842545,74.775223 149.082397,74.775223 148.289703Z" style="fill: rgb(100.000000%,100.000000%,100.000000%);stroke: none;"></path>
  <path d="M82.263046 121.383835C82.263046 120.591141,81.948105 119.830994,81.387619 119.270523C80.827148 118.710037,80.067001 118.395096,79.274307 118.395096C78.481613 118.395096,77.721466 118.710037,77.160995 119.270523C76.600510 119.830994,76.285568 120.591141,76.285568 121.383835C76.285568 122.176529,76.600510 122.936676,77.160995 123.497147C77.721466 124.057632,78.481613 124.372574,79.274307 124.372574C80.067001 124.372574,80.827148 124.057632,81.387619 123.497147C81.948105 122.936676,82.263046 122.176529,82.263046 121.383835Z" style="fill: rgb(100.000000%,100.000000%,100.000000%);stroke: none;"></path>
  <path d="M48.346176 183.907578C48.346176 183.114883,48.031235 182.354736,47.470749 181.794266C46.910278 181.233780,46.150131 180.918839,45.357437 180.918839C44.564743 180.918839,43.804596 181.233780,43.244125 181.794266C42.683640 182.354736,42.368698 183.114883,42.368698 183.907578C42.368698 184.700272,42.683640 185.460419,43.244125 186.020889C43.804596 186.581375,44.564743 186.896317,45.357437 186.896317C46.150131 186.896317,46.910278 186.581375,47.470749 186.020889C48.031235 185.460419,48.346176 184.700272,48.346176 183.907578Z" style="fill: rgb(100.000000%,100.000000%,100.000000%);stroke: none;"></path>
  <path d="M74.277512 167.028549C74.277512 166.235855,73.962570 165.475708,73.402084 164.915237C72.841614 164.354752,72.081467 164.039810,71.288773 164.039810C70.496078 164.039810,69.735931 164.354752,69.175461 164.915237C68.614975 165.475708,68.300034 166.235855,68.300034 167.028549C68.300034 167.821243,68.614975 168.581390,69.175461 169.141861C69.735931 169.702347,70.496078 170.017288,71.288773 170.017288C72.081467 170.017288,72.841614 169.702347,73.402084 169.141861C73.962570 168.581390,74.277512 167.821243,74.277512 167.028549Z" style="fill: rgb(100.000000%,100.000000%,100.000000%);stroke: none;"></path>
  <path d="M11.445602 157.933334C11.445602 157.140640,11.130661 156.380493,10.570175 155.820023C10.009705 155.259537,9.249557 154.944595,8.456863 154.944595C7.664169 154.944595,6.904022 155.259537,6.343552 155.820023C5.783066 156.380493,5.468124 157.140640,5.468124 157.933334C5.468124 158.726028,5.783066 159.486176,6.343552 160.046646C6.904022 160.607132,7.664169 160.922073,8.456863 160.922073C9.249557 160.922073,10.009705 160.607132,10.570175 160.046646C11.130661 159.486176,11.445602 158.726028,11.445602 157.933334Z" style="fill: rgb(100.000000%,100.000000%,100.000000%);stroke: none;"></path>
  <path d="M32.629822 180.571854C32.629822 179.779160,32.314880 179.019012,31.754395 178.458542C31.193924 177.898056,30.433777 177.583115,29.641083 177.583115C28.848389 177.583115,28.088242 177.898056,27.527771 178.458542C26.967285 179.019012,26.652344 179.779160,26.652344 180.571854C26.652344 181.364548,26.967285 182.124695,27.527771 182.685165C28.088242 183.245651,28.848389 183.560593,29.641083 183.560593C30.433777 183.560593,31.193924 183.245651,31.754395 182.685165C32.314880 182.124695,32.629822 181.364548,32.629822 180.571854Z" style="fill: rgb(100.000000%,100.000000%,100.000000%);stroke: none;"></path>
  <path d="M23.407288 117.544220C23.407288 116.751526,23.092346 115.991379,22.531860 115.430908C21.971390 114.870422,21.211243 114.555481,20.418549 114.555481C19.625854 114.555481,18.865707 114.870422,18.305237 115.430908C17.744751 115.991379,17.429810 116.751526,17.429810 117.544220C17.429810 118.336914,17.744751 119.097061,18.305237 119.657532C18.865707 120.218018,19.625854 120.532959,20.418549 120.532959C21.211243 120.532959,21.971390 120.218018,22.531860 119.657532C23.092346 119.097061,23.407288 118.336914,23.407288 117.544220Z" style="fill: rgb(100.000000%,100.000000%,100.000000%);stroke: none;"></path>
  <path d="M9.821091 139.818237C9.821091 139.025543,9.506149 138.265396,8.945663 137.704926C8.385193 137.144440,7.625046 136.829498,6.832352 136.829498C6.039658 136.829498,5.279510 137.144440,4.719040 137.704926C4.158554 138.265396,3.843613 139.025543,3.843613 139.818237C3.843613 140.610931,4.158554 141.371078,4.719040 141.931549C5.279510 142.492035,6.039658 142.806976,6.832352 142.806976C7.625046 142.806976,8.385193 142.492035,8.945663 141.931549C9.506149 141.371078,9.821091 140.610931,9.821091 139.818237Z" style="fill: rgb(100.000000%,100.000000%,100.000000%);stroke: none;"></path>
  <path d="M40.730759 100.270752C40.730759 99.478058,40.415817 98.717911,39.855331 98.157440C39.294861 97.596954,38.534714 97.282013,37.742020 97.282013C36.949326 97.282013,36.189178 97.596954,35.628708 98.157440C35.068222 98.717911,34.753281 99.478058,34.753281 100.270752C34.753281 101.063446,35.068222 101.823593,35.628708 102.384064C36.189178 102.944550,36.949326 103.259491,37.742020 103.259491C38.534714 103.259491,39.294861 102.944550,39.855331 102.384064C40.415817 101.823593,40.730759 101.063446,40.730759 100.270752Z" style="fill: rgb(100.000000%,100.000000%,100.000000%);stroke: none;"></path>
  <path d="M31.401382 111.808853C31.401382 111.016159,31.086441 110.256012,30.525955 109.695541C29.965485 109.135056,29.205338 108.820114,28.412643 108.820114C27.619949 108.820114,26.859802 109.135056,26.299332 109.695541C25.738846 110.256012,25.423904 111.016159,25.423904 111.808853C25.423904 112.601547,25.738846 113.361694,26.299332 113.922165C26.859802 114.482651,27.619949 114.797592,28.412643 114.797592C29.205338 114.797592,29.965485 114.482651,30.525955 113.922165C31.086441 113.361694,31.401382 112.601547,31.401382 111.808853Z" style="fill: rgb(100.000000%,100.000000%,100.000000%);stroke: none;"></path>
  <path d="M46.140152 88.961105C46.140152 88.168411,45.825211 87.408264,45.264725 86.847794C44.704254 86.287308,43.944107 85.972366,43.151413 85.972366C42.358719 85.972366,41.598572 86.287308,41.038101 86.847794C40.477615 87.408264,40.162674 88.168411,40.162674 88.961105C40.162674 89.753799,40.477615 90.513947,41.038101 91.074417C41.598572 91.634903,42.358719 91.949844,43.151413 91.949844C43.944107 91.949844,44.704254 91.634903,45.264725 91.074417C45.825211 90.513947,46.140152 89.753799,46.140152 88.961105Z" style="fill: rgb(100.000000%,100.000000%,100.000000%);stroke: none;"></path>
  <path d="M43.412476 95.678101C43.412476 94.885406,43.097534 94.125259,42.537048 93.564789C41.976578 93.004303,41.216431 92.689362,40.423737 92.689362C39.631042 92.689362,38.870895 93.004303,38.310425 93.564789C37.749939 94.125259,37.434998 94.885406,37.434998 95.678101C37.434998 96.470795,37.749939 97.230942,38.310425 97.791412C38.870895 98.351898,39.631042 98.666840,40.423737 98.666840C41.216431 98.666840,41.976578 98.351898,42.537048 97.791412C43.097534 97.230942,43.412476 96.470795,43.412476 95.678101Z" style="fill: rgb(100.000000%,100.000000%,100.000000%);stroke: none;"></path>
  <path d="M50.451828 86.981827C50.451828 86.189133,50.136887 85.428986,49.576401 84.868515C49.015930 84.308029,48.255783 83.993088,47.463089 83.993088C46.670395 83.993088,45.910248 84.308029,45.349777 84.868515C44.789291 85.428986,44.474350 86.189133,44.474350 86.981827C44.474350 87.774521,44.789291 88.534668,45.349777 89.095139C45.910248 89.655624,46.670395 89.970566,47.463089 89.970566C48.255783 89.970566,49.015930 89.655624,49.576401 89.095139C50.136887 88.534668,50.451828 87.774521,50.451828 86.981827Z" style="fill: rgb(100.000000%,100.000000%,100.000000%);stroke: none;"></path>
  <path d="M47.128845 87.017258C47.128845 86.224564,46.813904 85.464417,46.253418 84.903946C45.692947 84.343460,44.932800 84.028519,44.140106 84.028519C43.347412 84.028519,42.587265 84.343460,42.026794 84.903946C41.466309 85.464417,41.151367 86.224564,41.151367 87.017258C41.151367 87.809952,41.466309 88.570099,42.026794 89.130569C42.587265 89.691055,43.347412 90.005997,44.140106 90.005997C44.932800 90.005997,45.692947 89.691055,46.253418 89.130569C46.813904 88.570099,47.128845 87.809952,47.128845 87.017258Z" style="fill: rgb(100.000000%,100.000000%,100.000000%);stroke: none;"></path>
  <path d="M53.532791 90.958084C53.532791 90.165390,53.217850 89.405243,52.657364 88.844772C52.096893 88.284286,51.336746 87.969345,50.544052 87.969345C49.751358 87.969345,48.991211 88.284286,48.430740 88.844772C47.870255 89.405243,47.555313 90.165390,47.555313 90.958084C47.555313 91.750778,47.870255 92.510925,48.430740 93.071396C48.991211 93.631882,49.751358 93.946823,50.544052 93.946823C51.336746 93.946823,52.096893 93.631882,52.657364 93.071396C53.217850 92.510925,53.532791 91.750778,53.532791 90.958084Z" style="fill: rgb(100.000000%,100.000000%,100.000000%);stroke: none;"></path>
  <path d="M51.462341 88.217575C51.462341 87.424881,51.147400 86.664734,50.586914 86.104263C50.026443 85.543777,49.266296 85.228836,48.473602 85.228836C47.680908 85.228836,46.920761 85.543777,46.360291 86.104263C45.799805 86.664734,45.484863 87.424881,45.484863 88.217575C45.484863 89.010269,45.799805 89.770416,46.360291 90.330887C46.920761 90.891373,47.680908 91.206314,48.473602 91.206314C49.266296 91.206314,50.026443 90.891373,50.586914 90.330887C51.147400 89.770416,51.462341 89.010269,51.462341 88.217575Z" style="fill: rgb(100.000000%,100.000000%,100.000000%);stroke: none;"></path>
  <path d="M59.722595 91.303024C59.722595 90.510330,59.407654 89.750183,58.847168 89.189713C58.286697 88.629227,57.526550 88.314285,56.733856 88.314285C55.941162 88.314285,55.181015 88.629227,54.620544 89.189713C54.060059 89.750183,53.745117 90.510330,53.745117 91.303024C53.745117 92.095718,54.060059 92.855865,54.620544 93.416336C55.181015 93.976822,55.941162 94.291763,56.733856 94.291763C57.526550 94.291763,58.286697 93.976822,58.847168 93.416336C59.407654 92.855865,59.722595 92.095718,59.722595 91.303024Z" style="fill: rgb(100.000000%,100.000000%,100.000000%);stroke: none;"></path>
  <path d="M55.079712 92.478775C55.079712 91.686081,54.764771 90.925934,54.204285 90.365463C53.643814 89.804977,52.883667 89.490036,52.090973 89.490036C51.298279 89.490036,50.538132 89.804977,49.977661 90.365463C49.417175 90.925934,49.102234 91.686081,49.102234 92.478775C49.102234 93.271469,49.417175 94.031616,49.977661 94.592087C50.538132 95.152573,51.298279 95.467514,52.090973 95.467514C52.883667 95.467514,53.643814 95.152573,54.204285 94.592087C54.764771 94.031616,55.079712 93.271469,55.079712 92.478775Z" style="fill: rgb(100.000000%,100.000000%,100.000000%);stroke: none;"></path>
  <path d="M57.513687 78.602005C57.513687 77.809311,57.198746 77.049164,56.638260 76.488693C56.077789 75.928207,55.317642 75.613266,54.524948 75.613266C53.732254 75.613266,52.972107 75.928207,52.411636 76.488693C51.851151 77.049164,51.536209 77.809311,51.536209 78.602005C51.536209 79.394699,51.851151 80.154846,52.411636 80.715317C52.972107 81.275803,53.732254 81.590744,54.524948 81.590744C55.317642 81.590744,56.077789 81.275803,56.638260 80.715317C57.198746 80.154846,57.513687 79.394699,57.513687 78.602005Z" style="fill: rgb(100.000000%,100.000000%,100.000000%);stroke: none;"></path>
  <path d="M59.521637 87.613739C59.521637 86.821045,59.206696 86.060898,58.646210 85.500427C58.085739 84.939941,57.325592 84.625000,56.532898 84.625000C55.740204 84.625000,54.980057 84.939941,54.419586 85.500427C53.859100 86.060898,53.544159 86.821045,53.544159 87.613739C53.544159 88.406433,53.859100 89.166580,54.419586 89.727051C54.980057 90.287537,55.740204 90.602478,56.532898 90.602478C57.325592 90.602478,58.085739 90.287537,58.646210 89.727051C59.206696 89.166580,59.521637 88.406433,59.521637 87.613739Z" style="fill: rgb(100.000000%,100.000000%,100.000000%);stroke: none;"></path>
  <path d="M54.489853 56.920486C54.489853 56.127792,54.174911 55.367645,53.614426 54.807175C53.053955 54.246689,52.293808 53.931747,51.501114 53.931747C50.708420 53.931747,49.948273 54.246689,49.387802 54.807175C48.827316 55.367645,48.512375 56.127792,48.512375 56.920486C48.512375 57.713181,48.827316 58.473328,49.387802 59.033798C49.948273 59.594284,50.708420 59.909225,51.501114 59.909225C52.293808 59.909225,53.053955 59.594284,53.614426 59.033798C54.174911 58.473328,54.489853 57.713181,54.489853 56.920486Z" style="fill: rgb(100.000000%,100.000000%,100.000000%);stroke: none;"></path>
  <path d="M58.333405 72.561783C58.333405 71.769089,58.018463 71.008942,57.457977 70.448471C56.897507 69.887985,56.137360 69.573044,55.344666 69.573044C54.551971 69.573044,53.791824 69.887985,53.231354 70.448471C52.670868 71.008942,52.355927 71.769089,52.355927 72.561783C52.355927 73.354477,52.670868 74.114624,53.231354 74.675095C53.791824 75.235580,54.551971 75.550522,55.344666 75.550522C56.137360 75.550522,56.897507 75.235580,57.457977 74.675095C58.018463 74.114624,58.333405 73.354477,58.333405 72.561783Z" style="fill: rgb(100.000000%,100.000000%,100.000000%);stroke: none;"></path>
  <path d="M21.930557 51.679977C21.930557 50.887283,21.615616 50.127136,21.055130 49.566666C20.494659 49.006180,19.734512 48.691238,18.941818 48.691238C18.149124 48.691238,17.388977 49.006180,16.828506 49.566666C16.268021 50.127136,15.953079 50.887283,15.953079 51.679977C15.953079 52.472672,16.268021 53.232819,16.828506 53.793289C17.388977 54.353775,18.149124 54.668716,18.941818 54.668716C19.734512 54.668716,20.494659 54.353775,21.055130 53.793289C21.615616 53.232819,21.930557 52.472672,21.930557 51.679977Z" style="fill: rgb(100.000000%,100.000000%,100.000000%);stroke: none;"></path>
  <path d="M45.907593 49.531143C45.907593 48.738449,45.592651 47.978302,45.032166 47.417831C44.471695 46.857346,43.711548 46.542404,42.918854 46.542404C42.126160 46.542404,41.366013 46.857346,40.805542 47.417831C40.245056 47.978302,39.930115 48.738449,39.930115 49.531143C39.930115 50.323837,40.245056 51.083984,40.805542 51.644455C41.366013 52.204941,42.126160 52.519882,42.918854 52.519882C43.711548 52.519882,44.471695 52.204941,45.032166 51.644455C45.592651 51.083984,45.907593 50.323837,45.907593 49.531143Z" style="fill: rgb(100.000000%,100.000000%,100.000000%);stroke: none;"></path>
  <path d="M7.710327 97.688034C7.710327 96.895340,7.395386 96.135193,6.834900 95.574722C6.274429 95.014236,5.514282 94.699295,4.721588 94.699295C3.928894 94.699295,3.168747 95.014236,2.608276 95.574722C2.047791 96.135193,1.732849 96.895340,1.732849 97.688034C1.732849 98.480728,2.047791 99.240875,2.608276 99.801346C3.168747 100.361832,3.928894 100.676773,4.721588 100.676773C5.514282 100.676773,6.274429 100.361832,6.834900 99.801346C7.395386 99.240875,7.710327 98.480728,7.710327 97.688034Z" style="fill: rgb(100.000000%,100.000000%,100.000000%);stroke: none;"></path>
  <path d="M15.725281 66.913879C15.725281 66.121185,15.410339 65.361038,14.849854 64.800568C14.289383 64.240082,13.529236 63.925140,12.736542 63.925140C11.943848 63.925140,11.183701 64.240082,10.623230 64.800568C10.062744 65.361038,9.747803 66.121185,9.747803 66.913879C9.747803 67.706573,10.062744 68.466721,10.623230 69.027191C11.183701 69.587677,11.943848 69.902618,12.736542 69.902618C13.529236 69.902618,14.289383 69.587677,14.849854 69.027191C15.410339 68.466721,15.725281 67.706573,15.725281 66.913879Z" style="fill: rgb(100.000000%,100.000000%,100.000000%);stroke: none;"></path>
  <path d="M26.505508 131.472824C26.505508 130.680130,26.190567 129.919983,25.630081 129.359512C25.069611 128.799026,24.309464 128.484085,23.516769 128.484085C22.724075 128.484085,21.963928 128.799026,21.403458 129.359512C20.842972 129.919983,20.528030 130.680130,20.528030 131.472824C20.528030 132.265518,20.842972 133.025665,21.403458 133.586136C21.963928 134.146622,22.724075 134.461563,23.516769 134.461563C24.309464 134.461563,25.069611 134.146622,25.630081 133.586136C26.190567 133.025665,26.505508 132.265518,26.505508 131.472824Z" style="fill: rgb(100.000000%,100.000000%,100.000000%);stroke: none;"></path>
  <path d="M5.260178 116.325790C5.260178 115.533096,4.945236 114.772949,4.384750 114.212479C3.824280 113.651993,3.064133 113.337051,2.271439 113.337051C1.478745 113.337051,0.718597 113.651993,0.158127 114.212479C-0.402359 114.772949,-0.717300 115.533096,-0.717300 116.325790C-0.717300 117.118484,-0.402359 117.878632,0.158127 118.439102C0.718597 118.999588,1.478745 119.314529,2.271439 119.314529C3.064133 119.314529,3.824280 118.999588,4.384750 118.439102C4.945236 117.878632,5.260178 117.118484,5.260178 116.325790Z" style="fill: rgb(100.000000%,100.000000%,100.000000%);stroke: none;"></path>
  <path d="M57.070038 146.045761C57.070038 145.253067,56.755096 144.492920,56.194611 143.932449C55.634140 143.371964,54.873993 143.057022,54.081299 143.057022C53.288605 143.057022,52.528458 143.371964,51.967987 143.932449C51.407501 144.492920,51.092560 145.253067,51.092560 146.045761C51.092560 146.838455,51.407501 147.598602,51.967987 148.159073C52.528458 148.719559,53.288605 149.034500,54.081299 149.034500C54.873993 149.034500,55.634140 148.719559,56.194611 148.159073C56.755096 147.598602,57.070038 146.838455,57.070038 146.045761Z" style="fill: rgb(100.000000%,100.000000%,100.000000%);stroke: none;"></path>
  <path d="M37.933182 130.187103C37.933182 129.394409,37.618240 128.634262,37.057755 128.073792C36.497284 127.513306,35.737137 127.198364,34.944443 127.198364C34.151749 127.198364,33.391602 127.513306,32.831131 128.073792C32.270645 128.634262,31.955704 129.394409,31.955704 130.187103C31.955704 130.979797,32.270645 131.739944,32.831131 132.300415C33.391602 132.860901,34.151749 133.175842,34.944443 133.175842C35.737137 133.175842,36.497284 132.860901,37.057755 132.300415C37.618240 131.739944,37.933182 130.979797,37.933182 130.187103Z" style="fill: rgb(100.000000%,100.000000%,100.000000%);stroke: none;"></path>
  <path d="M70.246796 192.260925C70.246796 191.468231,69.931854 190.708084,69.371368 190.147614C68.810898 189.587128,68.050751 189.272186,67.258057 189.272186C66.465363 189.272186,65.705215 189.587128,65.144745 190.147614C64.584259 190.708084,64.269318 191.468231,64.269318 192.260925C64.269318 193.053619,64.584259 193.813766,65.144745 194.374237C65.705215 194.934723,66.465363 195.249664,67.258057 195.249664C68.050751 195.249664,68.810898 194.934723,69.371368 194.374237C69.931854 193.813766,70.246796 193.053619,70.246796 192.260925Z" style="fill: rgb(100.000000%,100.000000%,100.000000%);stroke: none;"></path>
  <path d="M52.686523 163.906586C52.686523 163.113892,52.371582 162.353745,51.811096 161.793274C51.250626 161.232788,50.490479 160.917847,49.697784 160.917847C48.905090 160.917847,48.144943 161.232788,47.584473 161.793274C47.023987 162.353745,46.709045 163.113892,46.709045 163.906586C46.709045 164.699280,47.023987 165.459427,47.584473 166.019897C48.144943 166.580383,48.905090 166.895325,49.697784 166.895325C50.490479 166.895325,51.250626 166.580383,51.811096 166.019897C52.371582 165.459427,52.686523 164.699280,52.686523 163.906586Z" style="fill: rgb(100.000000%,100.000000%,100.000000%);stroke: none;"></path>
  <path d="M108.556915 188.545624C131.736923 184.658752,149.262360 165.439316,151.000000 142.000000C152.232697 125.372040,144.777008 109.278244,145.740814 92.640182C146.260986 83.660538,149.222992 75.062454,151.000000 66.255585C152.021011 61.195435,152.783066 55.830704,156.346451 52.073425C161.557159 46.579193,170.084610 46.545868,176.804779 50.462692C193.053391 59.933121,192.462769 81.905853,187.524185 101.263687C182.222076 122.046463,170.896439 142.750992,151.000000 142.000000C135.331665 141.408600,125.992172 126.392212,114.081696 116.495300C106.469818 110.170273,97.425400 105.937912,88.950592 100.847260C82.788513 97.145828,76.899612 92.971558,70.441528 89.808243C65.756607 87.513458,60.825607 85.777161,55.807068 84.356186C54.114487 83.876938,52.252792 83.495163,50.856323 84.533127C49.417450 85.602600,49.272659 87.566803,49.356369 89.386032C49.468277 91.818115,49.191971 94.516327,47.026352 95.028778C44.795868 95.556580,43.328705 93.148727,42.413925 90.777191C40.855377 86.736679,38.793945 82.914871,37.045959 78.953552C33.062500 69.926132,30.725204 60.029312,32.975891 50.422241C36.730942 34.393753,51.202301 24.266266,66.235977 17.213776C81.954300 9.840118,100.416763 5.785614,113.100006 16.791962C124.010727 26.260147,124.084412 42.974228,133.445938 53.797729C138.183899 59.275604,144.768890 62.597961,151.000000 66.255585C154.618713 68.379745,158.354614 70.685684,162.555862 70.483459C171.607773 70.047745,176.374100 60.331055,176.804779 50.462692C177.528580 33.877762,170.036728 17.688644,155.476334 10.018280C141.368805 2.586487,124.020218 5.225357,113.100006 16.791962C101.022110 29.584778,101.131149 48.463593,98.611984 65.789154C96.861282 77.829636,93.550583 89.584152,88.950592 100.847260C84.669800 111.328796,79.274307 121.383835,76.236496 132.299545C71.786484 148.289703,71.288773 167.028549,57.278915 176.147736C45.357437 183.907578,29.641083 180.571854,19.721237 169.971008C8.456863 157.933334,6.832352 139.818237,15.436569 125.711975C20.418549 117.544220,28.412643 111.808853,34.416061 104.384125C37.742020 100.270752,40.423737 95.678101,42.413925 90.777191C43.151413 88.961105,44.140106 87.017258,46.017151 86.997238C47.463089 86.981827,48.473602 88.217575,49.356369 89.386032C50.544052 90.958084,52.090973 92.478775,53.924957 92.014343C56.733856 91.303024,56.532898 87.613739,55.807068 84.356186C54.524948 78.602005,55.344666 72.561783,53.937317 66.834610C51.501114 56.920486,42.918854 49.531143,32.975891 50.422241C18.941818 51.679977,12.736542 66.913879,8.996841 81.272812C4.721588 97.688034,2.271439 116.325790,15.436569 125.711975C23.516769 131.472824,34.944443 130.187103,42.621353 136.548935C54.081299 146.045761,49.697784 163.906586,57.278915 176.147736C67.258057 192.260925,89.052277 191.816193,108.556915 188.545624" style="stroke:rgb(0.000000%,0.000000%,0.000000%); stroke-width: 0.498138;stroke-linecap: round;stroke-linejoin: round;stroke-miterlimit: 10.000000;fill: none;"></path>
  <path d="M108.556915 188.545624C131.736923 184.658752,149.262360 165.439316,151.000000 142.000000C152.232697 125.372040,144.777008 109.278244,145.740814 92.640182C146.260986 83.660538,149.222992 75.062454,151.000000 66.255585" style="stroke:rgb(0.000000%,0.000000%,0.000000%); stroke-width: 1.494400;stroke-linecap: round;stroke-linejoin: round;stroke-miterlimit: 10.000000;fill: none;"></path>
  <path d="M57.278915 176.147736C67.258057 192.260925,89.052277 191.816193,108.556915 188.545624" style="stroke:rgb(0.000000%,0.000000%,0.000000%); stroke-width: 1.494400;stroke-linecap: round;stroke-linejoin: round;stroke-miterlimit: 10.000000;fill: none;"></path>
  <path d="M153.988739 142.000000C153.988739 141.207306,153.673798 140.447159,153.113312 139.886688C152.552841 139.326202,151.792694 139.011261,151.000000 139.011261C150.207306 139.011261,149.447159 139.326202,148.886688 139.886688C148.326202 140.447159,148.011261 141.207306,148.011261 142.000000C148.011261 142.792694,148.326202 143.552841,148.886688 144.113312C149.447159 144.673798,150.207306 144.988739,151.000000 144.988739C151.792694 144.988739,152.552841 144.673798,153.113312 144.113312C153.673798 143.552841,153.988739 142.792694,153.988739 142.000000Z" style="fill: rgb(100.000000%,100.000000%,100.000000%);stroke: none;"></path>
  <path d="M137.819351 172.604965C145.315414 164.384338,150.131180 153.719650,151.000000 142.000000C151.616348 133.686020,150.060593 125.505569,148.471237 117.323868" style="stroke:rgb(0.000000%,0.000000%,0.000000%); stroke-width: 1.494400;stroke-linecap: round;stroke-linejoin: round;stroke-miterlimit: 10.000000;fill: none;"></path>
  <path d="M179.793518 50.462692C179.793518 49.669998,179.478577 48.909851,178.918091 48.349380C178.357620 47.788895,177.597473 47.473953,176.804779 47.473953C176.012085 47.473953,175.251938 47.788895,174.691467 48.349380C174.130981 48.909851,173.816040 49.669998,173.816040 50.462692C173.816040 51.255386,174.130981 52.015533,174.691467 52.576004C175.251938 53.136490,176.012085 53.451431,176.804779 53.451431C177.597473 53.451431,178.357620 53.136490,178.918091 52.576004C179.478577 52.015533,179.793518 51.255386,179.793518 50.462692Z" style="fill: rgb(100.000000%,100.000000%,100.000000%);stroke: none;"></path>
  <path d="M166.009583 47.738907C169.632797 47.533417,173.444702 48.504288,176.804779 50.462692C184.929092 55.197906,188.843582 63.058701,190.109680 72.155426" style="stroke:rgb(0.000000%,0.000000%,0.000000%); stroke-width: 0.498138;stroke-linecap: round;stroke-linejoin: round;stroke-miterlimit: 10.000000;fill: none;"></path>
  <path d="M91.939331 100.847260C91.939331 100.054565,91.624390 99.294418,91.063904 98.733948C90.503433 98.173462,89.743286 97.858521,88.950592 97.858521C88.157898 97.858521,87.397751 98.173462,86.837280 98.733948C86.276794 99.294418,85.961853 100.054565,85.961853 100.847260C85.961853 101.639954,86.276794 102.400101,86.837280 102.960571C87.397751 103.521057,88.157898 103.835999,88.950592 103.835999C89.743286 103.835999,90.503433 103.521057,91.063904 102.960571C91.624390 102.400101,91.939331 101.639954,91.939331 100.847260Z" style="fill: rgb(100.000000%,100.000000%,100.000000%);stroke: none;"></path>
  <path d="M101.839737 108.208374C97.567795 105.723328,93.187988 103.392578,88.950592 100.847260C85.869553 98.996536,82.856796 97.027603,79.807053 95.125946" style="stroke:rgb(0.000000%,0.000000%,0.000000%); stroke-width: 0.498138;stroke-linecap: round;stroke-linejoin: round;stroke-miterlimit: 10.000000;fill: none;"></path>
  <path d="M52.345108 89.386032C52.345108 88.593338,52.030167 87.833191,51.469681 87.272720C50.909210 86.712234,50.149063 86.397293,49.356369 86.397293C48.563675 86.397293,47.803528 86.712234,47.243057 87.272720C46.682571 87.833191,46.367630 88.593338,46.367630 89.386032C46.367630 90.178726,46.682571 90.938873,47.243057 91.499344C47.803528 92.059830,48.563675 92.374771,49.356369 92.374771C50.149063 92.374771,50.909210 92.059830,51.469681 91.499344C52.030167 90.938873,52.345108 90.178726,52.345108 89.386032Z" style="fill: rgb(100.000000%,100.000000%,100.000000%);stroke: none;"></path>
  <path d="M49.535370 86.678436C49.329773 87.530563,49.314514 88.476425,49.356369 89.386032C49.412323 90.602081,49.371216 91.884659,49.045425 92.927277" style="stroke:rgb(0.000000%,0.000000%,0.000000%); stroke-width: 0.498138;stroke-linecap: round;stroke-linejoin: round;stroke-miterlimit: 10.000000;fill: none;"></path>
  <path d="M35.964630 50.422241C35.964630 49.629547,35.649689 48.869400,35.089203 48.308929C34.528732 47.748444,33.768585 47.433502,32.975891 47.433502C32.183197 47.433502,31.423050 47.748444,30.862579 48.308929C30.302094 48.869400,29.987152 49.629547,29.987152 50.422241C29.987152 51.214935,30.302094 51.975082,30.862579 52.535553C31.423050 53.096039,32.183197 53.410980,32.975891 53.410980C33.768585 53.410980,34.528732 53.096039,35.089203 52.535553C35.649689 51.975082,35.964630 51.214935,35.964630 50.422241Z" style="fill: rgb(100.000000%,100.000000%,100.000000%);stroke: none;"></path>
  <path d="M32.673111 64.905258C31.872192 60.101746,31.850555 55.225769,32.975891 50.422241C34.853424 42.407990,39.410034 35.868988,45.376465 30.451996" style="stroke:rgb(0.000000%,0.000000%,0.000000%); stroke-width: 0.498138;stroke-linecap: round;stroke-linejoin: round;stroke-miterlimit: 10.000000;fill: none;"></path>
  <path d="M153.988739 66.255585C153.988739 65.462891,153.673798 64.702744,153.113312 64.142273C152.552841 63.581787,151.792694 63.266846,151.000000 63.266846C150.207306 63.266846,149.447159 63.581787,148.886688 64.142273C148.326202 64.702744,148.011261 65.462891,148.011261 66.255585C148.011261 67.048279,148.326202 67.808426,148.886688 68.368896C149.447159 68.929382,150.207306 69.244324,151.000000 69.244324C151.792694 69.244324,152.552841 68.929382,153.113312 68.368896C153.673798 67.808426,153.988739 67.048279,153.988739 66.255585Z" style="fill: rgb(100.000000%,100.000000%,100.000000%);stroke: none;"></path>
  <path d="M141.663040 60.709259C144.680420 62.681778,147.884445 64.426773,151.000000 66.255585C152.809357 67.317673,154.648010 68.425201,156.559494 69.241928" style="stroke:rgb(0.000000%,0.000000%,0.000000%); stroke-width: 0.498138;stroke-linecap: round;stroke-linejoin: round;stroke-miterlimit: 10.000000;fill: none;"></path>
  <path d="M116.088745 16.791962C116.088745 15.999268,115.773804 15.239120,115.213318 14.678650C114.652847 14.118164,113.892700 13.803223,113.100006 13.803223C112.307312 13.803223,111.547165 14.118164,110.986694 14.678650C110.426208 15.239120,110.111267 15.999268,110.111267 16.791962C110.111267 17.584656,110.426208 18.344803,110.986694 18.905273C111.547165 19.465759,112.307312 19.780701,113.100006 19.780701C113.892700 19.780701,114.652847 19.465759,115.213318 18.905273C115.773804 18.344803,116.088745 17.584656,116.088745 16.791962Z" style="fill: rgb(100.000000%,100.000000%,100.000000%);stroke: none;"></path>
  <path d="M133.092911 6.280731C125.627304 7.457306,118.560104 11.008667,113.100006 16.791962C107.061050 23.188370,104.068832 31.106277,102.271454 39.590790" style="stroke:rgb(0.000000%,0.000000%,0.000000%); stroke-width: 0.498138;stroke-linecap: round;stroke-linejoin: round;stroke-miterlimit: 10.000000;fill: none;"></path>
  <path d="M60.267654 176.147736C60.267654 175.355042,59.952713 174.594894,59.392227 174.034424C58.831757 173.473938,58.071609 173.158997,57.278915 173.158997C56.486221 173.158997,55.726074 173.473938,55.165604 174.034424C54.605118 174.594894,54.290176 175.355042,54.290176 176.147736C54.290176 176.940430,54.605118 177.700577,55.165604 178.261047C55.726074 178.821533,56.486221 179.136475,57.278915 179.136475C58.071609 179.136475,58.831757 178.821533,59.392227 178.261047C59.952713 177.700577,60.267654 176.940430,60.267654 176.147736Z" style="fill: rgb(100.000000%,100.000000%,100.000000%);stroke: none;"></path>
  <path d="M70.342636 156.800262C67.910736 164.623642,64.283844 171.588150,57.278915 176.147736C51.318176 180.027664,44.408707 181.133698,37.749451 179.944626" style="stroke:rgb(0.000000%,0.000000%,0.000000%); stroke-width: 0.498138;stroke-linecap: round;stroke-linejoin: round;stroke-miterlimit: 10.000000;fill: none;"></path>
  <path d="M45.402664 90.777191C45.402664 89.984497,45.087723 89.224350,44.527237 88.663879C43.966766 88.103394,43.206619 87.788452,42.413925 87.788452C41.621231 87.788452,40.861084 88.103394,40.300613 88.663879C39.740128 89.224350,39.425186 89.984497,39.425186 90.777191C39.425186 91.569885,39.740128 92.330032,40.300613 92.890503C40.861084 93.450989,41.621231 93.765930,42.413925 93.765930C43.206619 93.765930,43.966766 93.450989,44.527237 92.890503C45.087723 92.330032,45.402664 91.569885,45.402664 90.777191Z" style="fill: rgb(100.000000%,100.000000%,100.000000%);stroke: none;"></path>
  <path d="M38.915924 97.875977C40.250870 95.601028,41.418839 93.227646,42.413925 90.777191C42.782669 89.869141,43.214218 88.929153,43.788208 88.213684" style="stroke:rgb(0.000000%,0.000000%,0.000000%); stroke-width: 0.498138;stroke-linecap: round;stroke-linejoin: round;stroke-miterlimit: 10.000000;fill: none;"></path>
  <path d="M58.795807 84.356186C58.795807 83.563492,58.480865 82.803345,57.920380 82.242874C57.359909 81.682388,56.599762 81.367447,55.807068 81.367447C55.014374 81.367447,54.254227 81.682388,53.693756 82.242874C53.133270 82.803345,52.818329 83.563492,52.818329 84.356186C52.818329 85.148880,53.133270 85.909027,53.693756 86.469498C54.254227 87.029984,55.014374 87.344925,55.807068 87.344925C56.599762 87.344925,57.359909 87.029984,57.920380 86.469498C58.480865 85.909027,58.795807 85.148880,58.795807 84.356186Z" style="fill: rgb(100.000000%,100.000000%,100.000000%);stroke: none;"></path>
  <path d="M56.191544 89.140091C56.401672 87.721664,56.169983 85.984955,55.807068 84.356186C55.166000 81.479095,55.050400 78.530487,54.919144 75.585266" style="stroke:rgb(0.000000%,0.000000%,0.000000%); stroke-width: 0.498138;stroke-linecap: round;stroke-linejoin: round;stroke-miterlimit: 10.000000;fill: none;"></path>
  <path d="M18.425308 125.711975C18.425308 124.919281,18.110367 124.159134,17.549881 123.598663C16.989410 123.038177,16.229263 122.723236,15.436569 122.723236C14.643875 122.723236,13.883728 123.038177,13.323257 123.598663C12.762772 124.159134,12.447830 124.919281,12.447830 125.711975C12.447830 126.504669,12.762772 127.264816,13.323257 127.825287C13.883728 128.385773,14.643875 128.700714,15.436569 128.700714C16.229263 128.700714,16.989410 128.385773,17.549881 127.825287C18.110367 127.264816,18.425308 126.504669,18.425308 125.711975Z" style="fill: rgb(100.000000%,100.000000%,100.000000%);stroke: none;"></path>
  <path d="M5.676559 106.128296C6.175262 114.012909,8.854004 121.018890,15.436569 125.711975C19.476669 128.592407,24.353638 129.711182,29.180206 130.905090" style="stroke:rgb(0.000000%,0.000000%,0.000000%); stroke-width: 0.498138;stroke-linecap: round;stroke-linejoin: round;stroke-miterlimit: 10.000000;fill: none;"></path>
  <path d="M145.740814 92.640182C146.156952 85.456436,148.135880 78.516891,149.820633 71.519287" style="stroke:rgb(0.000000%,0.000000%,0.000000%); stroke-width: 0.498138;stroke-linecap: round;stroke-linejoin: round;stroke-miterlimit: 10.000000;fill: none;"></path>
  <path d="M150.575073 76.462173C150.324203 74.814957,150.080307 73.165543,149.820633 71.519287C148.840134 72.866959,147.846268 74.205734,146.858887 75.547867Z" style="stroke:rgb(0.000000%,0.000000%,0.000000%); stroke-width: 0.498138;fill: rgb(0.000000%,0.000000%,0.000000%);"></path>
  <path d="M145.740814 92.640182C146.156952 85.456436,148.135880 78.516891,149.820633 71.519287" style="stroke:rgb(0.000000%,0.000000%,0.000000%); stroke-width: 0.498138;stroke-linecap: round;stroke-linejoin: round;stroke-miterlimit: 10.000000;fill: none;"></path>
  <path d="M150.275864 74.484467C150.126526 73.495712,149.976425 72.506927,149.820633 71.519287C149.232407 72.327789,148.639374 73.133102,148.045792 73.937866Z" style="stroke:rgb(0.000000%,0.000000%,0.000000%); stroke-width: 0.498138;fill: rgb(0.000000%,0.000000%,0.000000%);"></path>
  <path d="M156.346451 52.073425C160.515030 47.678024,166.806351 46.777634,172.596863 48.598724" style="stroke:rgb(0.000000%,0.000000%,0.000000%); stroke-width: 0.498138;stroke-linecap: round;stroke-linejoin: round;stroke-miterlimit: 10.000000;fill: none;"></path>
  <path d="M169.637207 49.088943C170.599335 48.851410,171.590073 48.687561,172.596863 48.598724C171.822159 47.949615,171.005737 47.364899,170.157471 46.852524Z" style="stroke:rgb(0.000000%,0.000000%,0.000000%); stroke-width: 0.498138;fill: rgb(0.000000%,0.000000%,0.000000%);"></path>
  <path d="M70.441528 89.808243C66.693573 87.972412,62.788132 86.494019,58.806381 85.248535" style="stroke:rgb(0.000000%,0.000000%,0.000000%); stroke-width: 0.498138;stroke-linecap: round;stroke-linejoin: round;stroke-miterlimit: 10.000000;fill: none;"></path>
  <path d="M61.798050 85.024338C60.800003 85.083679,59.802643 85.159073,58.806381 85.248535C59.574097 85.889755,60.332626 86.541687,61.080307 87.205460Z" style="stroke:rgb(0.000000%,0.000000%,0.000000%); stroke-width: 0.498138;fill: rgb(0.000000%,0.000000%,0.000000%);"></path>
  <path d="M47.026352 95.028778C45.241959 95.451019,43.946091 93.994431,43.030762 92.180679" style="stroke:rgb(0.000000%,0.000000%,0.000000%); stroke-width: 0.498138;stroke-linecap: round;stroke-linejoin: round;stroke-miterlimit: 10.000000;fill: none;"></path>
  <path d="M45.628235 93.681732C44.750336 93.469513,43.859421 92.893967,43.030762 92.180679C43.112320 93.271011,43.335297 94.307953,43.806000 95.078796Z" style="stroke:rgb(0.000000%,0.000000%,0.000000%); stroke-width: 0.498138;fill: rgb(0.000000%,0.000000%,0.000000%);"></path>
  <path d="M37.045959 78.953552C33.859177 71.731583,31.725952 63.953201,32.152512 56.211884" style="stroke:rgb(0.000000%,0.000000%,0.000000%); stroke-width: 0.498138;stroke-linecap: round;stroke-linejoin: round;stroke-miterlimit: 10.000000;fill: none;"></path>
  <path d="M33.263077 58.998611C32.855530 58.085434,32.484192 57.156555,32.152512 56.211884C31.719055 57.114380,31.324799 58.033768,30.967239 58.967667Z" style="stroke:rgb(0.000000%,0.000000%,0.000000%); stroke-width: 0.498138;fill: rgb(0.000000%,0.000000%,0.000000%);"></path>
  <path d="M162.555862 70.483459C169.797424 70.134888,174.296188 63.846451,176.026520 56.292389" style="stroke:rgb(0.000000%,0.000000%,0.000000%); stroke-width: 0.498138;stroke-linecap: round;stroke-linejoin: round;stroke-miterlimit: 10.000000;fill: none;"></path>
  <path d="M176.373322 59.272308C176.312286 58.287308,176.195358 57.290787,176.026520 56.292389C175.439926 57.117752,174.817932 57.905045,174.164581 58.644714Z" style="stroke:rgb(0.000000%,0.000000%,0.000000%); stroke-width: 0.498138;fill: rgb(0.000000%,0.000000%,0.000000%);"></path>
  <path d="M155.476334 10.018280C144.190262 4.072830,130.829910 4.572632,120.346054 10.932541" style="stroke:rgb(0.000000%,0.000000%,0.000000%); stroke-width: 0.498138;stroke-linecap: round;stroke-linejoin: round;stroke-miterlimit: 10.000000;fill: none;"></path>
  <path d="M122.223190 8.592239C121.566208 9.342545,120.939713 10.123077,120.346054 10.932541C121.338211 10.779968,122.333145 10.671066,123.328232 10.605087Z" style="stroke:rgb(0.000000%,0.000000%,0.000000%); stroke-width: 0.498138;fill: rgb(0.000000%,0.000000%,0.000000%);"></path>
  <path d="M19.721237 169.971008C10.709702 160.340836,7.867722 146.821075,11.496826 134.575958" style="stroke:rgb(0.000000%,0.000000%,0.000000%); stroke-width: 0.498138;stroke-linecap: round;stroke-linejoin: round;stroke-miterlimit: 10.000000;fill: none;"></path>
  <path d="M11.929947 137.544647C11.746353 136.564606,11.601608 135.574295,11.496826 134.575958C10.864975 135.355972,10.267044 136.158569,9.703873 136.981354Z" style="stroke:rgb(0.000000%,0.000000%,0.000000%); stroke-width: 0.498138;fill: rgb(0.000000%,0.000000%,0.000000%);"></path>
  <path d="M46.017151 86.997238C47.173904 86.984909,48.051987 87.773331,48.808929 88.687439" style="stroke:rgb(0.000000%,0.000000%,0.000000%); stroke-width: 0.498138;stroke-linecap: round;stroke-linejoin: round;stroke-miterlimit: 10.000000;fill: none;"></path>
  <path d="M45.868484 88.092560C46.844757 87.811462,47.853317 88.182053,48.808929 88.687439C48.490585 87.654343,48.039490 86.679138,47.150406 86.187561Z" style="stroke:rgb(0.000000%,0.000000%,0.000000%); stroke-width: 0.498138;fill: rgb(0.000000%,0.000000%,0.000000%);"></path>
  <path d="M53.924957 92.014343C56.172089 91.445282,56.492889 88.970306,56.159698 86.335220" style="stroke:rgb(0.000000%,0.000000%,0.000000%); stroke-width: 0.498138;stroke-linecap: round;stroke-linejoin: round;stroke-miterlimit: 10.000000;fill: none;"></path>
  <path d="M57.307526 89.106888C57.114532 88.215775,56.691406 87.267136,56.159698 86.335220C55.876678 87.370163,55.505066 88.340134,55.011414 89.106705Z" style="stroke:rgb(0.000000%,0.000000%,0.000000%); stroke-width: 0.498138;fill: rgb(0.000000%,0.000000%,0.000000%);"></path>
  <path d="M42.621353 136.548935C51.789337 144.146423,50.817444 157.096909,53.943573 168.240677" style="stroke:rgb(0.000000%,0.000000%,0.000000%); stroke-width: 0.498138;stroke-linecap: round;stroke-linejoin: round;stroke-miterlimit: 10.000000;fill: none;"></path>
  <path d="M52.159927 165.828552C52.736008 166.651443,53.328339 167.458038,53.943573 168.240677C54.061951 167.252228,54.213486 166.263046,54.388016 165.273834Z" style="stroke:rgb(0.000000%,0.000000%,0.000000%); stroke-width: 0.498138;fill: rgb(0.000000%,0.000000%,0.000000%);"></path>
  <path d="M105.566269 191.255829L111.547562 191.255829L111.547562 183.835434L105.566269 183.835434Z" style="fill: rgb(100.000000%,100.000000%,100.000000%);stroke: none;"></path>
  <path d="M105.566269 193.255829L111.547562 193.255829L111.547562 185.835434L105.566269 185.835434Z" style="fill: rgb(100.000000%,100.000000%,100.000000%);stroke: none;"></path>
  <g transform="translate(106.066269 191.755829)" style="fill: rgb(0.000000%,0.000000%,0.000000%);">
    <use xlink:href="#GLYPHcmr10_49"></use>
  </g>
  <path d="M184.533539 103.973892L190.514832 103.973892L190.514832 96.553497L184.533539 96.553497Z" style="fill: rgb(100.000000%,100.000000%,100.000000%);stroke: none;"></path>
  <path d="M184.533539 105.973892L190.514832 105.973892L190.514832 98.553497L184.533539 98.553497Z" style="fill: rgb(100.000000%,100.000000%,100.000000%);stroke: none;"></path>
  <g transform="translate(185.033539 104.473892)" style="fill: rgb(0.000000%,0.000000%,0.000000%);">
    <use xlink:href="#GLYPHcmr10_50"></use>
  </g>
  <path d="M111.091049 119.205505L117.072342 119.205505L117.072342 111.785110L111.091049 111.785110Z" style="fill: rgb(100.000000%,100.000000%,100.000000%);stroke: none;"></path>
  <path d="M111.091049 121.205505L117.072342 121.205505L117.072342 113.785110L111.091049 113.785110Z" style="fill: rgb(100.000000%,100.000000%,100.000000%);stroke: none;"></path>
  <g transform="translate(111.591049 119.705505)" style="fill: rgb(0.000000%,0.000000%,0.000000%);">
    <use xlink:href="#GLYPHcmr10_51"></use>
  </g>
  <path d="M47.865677 87.243332L53.846970 87.243332L53.846970 79.822937L47.865677 79.822937Z" style="fill: rgb(100.000000%,100.000000%,100.000000%);stroke: none;"></path>
  <path d="M47.865677 89.243332L53.846970 89.243332L53.846970 81.822937L47.865677 81.822937Z" style="fill: rgb(100.000000%,100.000000%,100.000000%);stroke: none;"></path>
  <g transform="translate(48.365677 87.743332)" style="fill: rgb(0.000000%,0.000000%,0.000000%);">
    <use xlink:href="#GLYPHcmr10_52"></use>
  </g>
  <path d="M63.245331 19.923981L69.226624 19.923981L69.226624 12.503586L63.245331 12.503586Z" style="fill: rgb(100.000000%,100.000000%,100.000000%);stroke: none;"></path>
  <path d="M63.245331 21.923981L69.226624 21.923981L69.226624 14.503586L63.245331 14.503586Z" style="fill: rgb(100.000000%,100.000000%,100.000000%);stroke: none;"></path>
  <g transform="translate(63.745331 20.423981)" style="fill: rgb(0.000000%,0.000000%,0.000000%);">
    <use xlink:href="#GLYPHcmr10_53"></use>
  </g>
  <path d="M130.455292 56.507935L136.436584 56.507935L136.436584 49.087540L130.455292 49.087540Z" style="fill: rgb(100.000000%,100.000000%,100.000000%);stroke: none;"></path>
  <path d="M130.455292 58.507935L136.436584 58.507935L136.436584 51.087540L130.455292 51.087540Z" style="fill: rgb(100.000000%,100.000000%,100.000000%);stroke: none;"></path>
  <g transform="translate(130.955292 57.007935)" style="fill: rgb(0.000000%,0.000000%,0.000000%);">
    <use xlink:href="#GLYPHcmr10_54"></use>
  </g>
  <path d="M95.621338 68.499359L101.602631 68.499359L101.602631 61.078964L95.621338 61.078964Z" style="fill: rgb(100.000000%,100.000000%,100.000000%);stroke: none;"></path>
  <path d="M95.621338 70.499359L101.602631 70.499359L101.602631 63.078964L95.621338 63.078964Z" style="fill: rgb(100.000000%,100.000000%,100.000000%);stroke: none;"></path>
  <g transform="translate(96.121338 68.999359)" style="fill: rgb(0.000000%,0.000000%,0.000000%);">
    <use xlink:href="#GLYPHcmr10_55"></use>
  </g>
  <path d="M73.245850 135.009750L79.227142 135.009750L79.227142 127.589355L73.245850 127.589355Z" style="fill: rgb(100.000000%,100.000000%,100.000000%);stroke: none;"></path>
  <path d="M73.245850 137.009750L79.227142 137.009750L79.227142 129.589355L73.245850 129.589355Z" style="fill: rgb(100.000000%,100.000000%,100.000000%);stroke: none;"></path>
  <g transform="translate(73.745850 135.509750)" style="fill: rgb(0.000000%,0.000000%,0.000000%);">
    <use xlink:href="#GLYPHcmr10_56"></use>
  </g>
  <path d="M31.425415 107.094330L37.406708 107.094330L37.406708 99.673935L31.425415 99.673935Z" style="fill: rgb(100.000000%,100.000000%,100.000000%);stroke: none;"></path>
  <path d="M31.425415 109.094330L37.406708 109.094330L37.406708 101.673935L31.425415 101.673935Z" style="fill: rgb(100.000000%,100.000000%,100.000000%);stroke: none;"></path>
  <g transform="translate(31.925415 107.594330)" style="fill: rgb(0.000000%,0.000000%,0.000000%);">
    <use xlink:href="#GLYPHcmr10_57"></use>
  </g>
  <path d="M48.455963 69.544815L59.418671 69.544815L59.418671 62.124420L48.455963 62.124420Z" style="fill: rgb(100.000000%,100.000000%,100.000000%);stroke: none;"></path>
  <path d="M48.455963 71.544815L59.418671 71.544815L59.418671 64.124420L48.455963 64.124420Z" style="fill: rgb(100.000000%,100.000000%,100.000000%);stroke: none;"></path>
  <g transform="translate(48.955963 70.044815)" style="fill: rgb(0.000000%,0.000000%,0.000000%);">
    <use xlink:href="#GLYPHcmr10_49"></use>
    <use xlink:href="#GLYPHcmr10_48" x="5.000095"></use>
  </g>
  <path d="M3.515488 83.983017L14.478195 83.983017L14.478195 76.562622L3.515488 76.562622Z" style="fill: rgb(100.000000%,100.000000%,100.000000%);stroke: none;"></path>
  <path d="M3.515488 85.983017L14.478195 85.983017L14.478195 78.562622L3.515488 78.562622Z" style="fill: rgb(100.000000%,100.000000%,100.000000%);stroke: none;"></path>
  <g transform="translate(4.015488 84.483017)" style="fill: rgb(0.000000%,0.000000%,0.000000%);">
    <use xlink:href="#GLYPHcmr10_49"></use>
    <use xlink:href="#GLYPHcmr10_49" x="5.000095"></use>
  </g>
</svg>
