<?xml version="1.0"?>
<!-- Created by MetaPost 1.999 on 2021.07.06:0004 -->
<svg version="1.1" xmlns="http://www.w3.org/2000/svg" xmlns:xlink="http://www.w3.org/1999/xlink" width="200.437851" height="201.674744" viewBox="0 0 200.437851 201.674744">
<!-- Original BoundingBox: -143.932556 -125.406845 56.505295 76.267899 -->
  <defs>
    <g transform="scale(0.009963,0.009963)" id="GLYPHcmr10_48">
      <path style="fill-rule: evenodd;" d="M460.000000 -320.000000C460.000000 -400.000000,455.000000 -480.000000,420.000000 -554.000000C374.000000 -650.000000,292.000000 -666.000000,250.000000 -666.000000C190.000000 -666.000000,117.000000 -640.000000,76.000000 -547.000000C44.000000 -478.000000,39.000000 -400.000000,39.000000 -320.000000C39.000000 -245.000000,43.000000 -155.000000,84.000000 -79.000000C127.000000 2.000000,200.000000 22.000000,249.000000 22.000000C303.000000 22.000000,379.000000 1.000000,423.000000 -94.000000C455.000000 -163.000000,460.000000 -241.000000,460.000000 -320.000000M249.000000 -0.000000C210.000000 -0.000000,151.000000 -25.000000,133.000000 -121.000000C122.000000 -181.000000,122.000000 -273.000000,122.000000 -332.000000C122.000000 -396.000000,122.000000 -462.000000,130.000000 -516.000000C149.000000 -635.000000,224.000000 -644.000000,249.000000 -644.000000C282.000000 -644.000000,348.000000 -626.000000,367.000000 -527.000000C377.000000 -471.000000,377.000000 -395.000000,377.000000 -332.000000C377.000000 -257.000000,377.000000 -189.000000,366.000000 -125.000000C351.000000 -30.000000,294.000000 -0.000000,249.000000 -0.000000"></path>
    </g>
    <g transform="scale(0.009963,0.009963)" id="GLYPHcmr10_49">
      <path style="fill-rule: evenodd;" d="M294.000000 -640.000000C294.000000 -664.000000,294.000000 -666.000000,271.000000 -666.000000C209.000000 -602.000000,121.000000 -602.000000,89.000000 -602.000000L89.000000 -571.000000C109.000000 -571.000000,168.000000 -571.000000,220.000000 -597.000000L220.000000 -79.000000C220.000000 -43.000000,217.000000 -31.000000,127.000000 -31.000000L95.000000 -31.000000L95.000000 -0.000000L257.000000 -0.000000L130.000000 -3.000000L217.000000 -3.000000L257.000000 -3.000000L297.000000 -3.000000L384.000000 -3.000000L419.000000 -0.000000L419.000000 -31.000000L387.000000 -31.000000C297.000000 -31.000000,294.000000 -42.000000,294.000000 -79.000000"></path>
    </g>
    <g transform="scale(0.009963,0.009963)" id="GLYPHcmr10_50">
      <path style="fill-rule: evenodd;" d="M127.000000 -77.000000L233.000000 -180.000000C389.000000 -318.000000,449.000000 -372.000000,449.000000 -472.000000C449.000000 -586.000000,359.000000 -666.000000,237.000000 -666.000000C124.000000 -666.000000,50.000000 -574.000000,50.000000 -485.000000C50.000000 -429.000000,100.000000 -429.000000,103.000000 -429.000000C120.000000 -429.000000,155.000000 -441.000000,155.000000 -482.000000C155.000000 -508.000000,137.000000 -534.000000,102.000000 -534.000000C94.000000 -534.000000,92.000000 -534.000000,89.000000 -533.000000C112.000000 -598.000000,166.000000 -635.000000,224.000000 -635.000000C315.000000 -635.000000,358.000000 -554.000000,358.000000 -472.000000C358.000000 -392.000000,308.000000 -313.000000,253.000000 -251.000000L61.000000 -37.000000C50.000000 -26.000000,50.000000 -24.000000,50.000000 -0.000000L421.000000 -0.000000L449.000000 -174.000000L424.000000 -174.000000C419.000000 -144.000000,412.000000 -100.000000,402.000000 -85.000000C395.000000 -77.000000,329.000000 -77.000000,307.000000 -77.000000"></path>
    </g>
    <g transform="scale(0.009963,0.009963)" id="GLYPHcmr10_51">
      <path style="fill-rule: evenodd;" d="M290.000000 -352.000000C372.000000 -379.000000,430.000000 -449.000000,430.000000 -528.000000C430.000000 -610.000000,342.000000 -666.000000,246.000000 -666.000000C145.000000 -666.000000,69.000000 -606.000000,69.000000 -530.000000C69.000000 -497.000000,91.000000 -478.000000,120.000000 -478.000000C151.000000 -478.000000,171.000000 -500.000000,171.000000 -529.000000C171.000000 -579.000000,124.000000 -579.000000,109.000000 -579.000000C140.000000 -628.000000,206.000000 -641.000000,242.000000 -641.000000C283.000000 -641.000000,338.000000 -619.000000,338.000000 -529.000000C338.000000 -517.000000,336.000000 -459.000000,310.000000 -415.000000C280.000000 -367.000000,246.000000 -364.000000,221.000000 -363.000000C213.000000 -362.000000,189.000000 -360.000000,182.000000 -360.000000C174.000000 -359.000000,167.000000 -358.000000,167.000000 -348.000000C167.000000 -337.000000,174.000000 -337.000000,191.000000 -337.000000L235.000000 -337.000000C317.000000 -337.000000,354.000000 -269.000000,354.000000 -171.000000C354.000000 -35.000000,285.000000 -6.000000,241.000000 -6.000000C198.000000 -6.000000,123.000000 -23.000000,88.000000 -82.000000C123.000000 -77.000000,154.000000 -99.000000,154.000000 -137.000000C154.000000 -173.000000,127.000000 -193.000000,98.000000 -193.000000C74.000000 -193.000000,42.000000 -179.000000,42.000000 -135.000000C42.000000 -44.000000,135.000000 22.000000,244.000000 22.000000C366.000000 22.000000,457.000000 -69.000000,457.000000 -171.000000C457.000000 -253.000000,394.000000 -331.000000,290.000000 -352.000000"></path>
    </g>
    <g transform="scale(0.009963,0.009963)" id="GLYPHcmr10_52">
      <path style="fill-rule: evenodd;" d="M294.000000 -165.000000L294.000000 -78.000000C294.000000 -42.000000,292.000000 -31.000000,218.000000 -31.000000L197.000000 -31.000000L197.000000 -0.000000L332.000000 -0.000000L238.000000 -3.000000L290.000000 -3.000000L332.000000 -3.000000L374.000000 -3.000000L427.000000 -3.000000L468.000000 -0.000000L468.000000 -31.000000L447.000000 -31.000000C373.000000 -31.000000,371.000000 -42.000000,371.000000 -78.000000L371.000000 -165.000000L471.000000 -165.000000L471.000000 -196.000000L371.000000 -196.000000L371.000000 -651.000000C371.000000 -671.000000,371.000000 -677.000000,355.000000 -677.000000C346.000000 -677.000000,343.000000 -677.000000,335.000000 -665.000000L28.000000 -196.000000L28.000000 -165.000000M300.000000 -196.000000L56.000000 -196.000000L300.000000 -569.000000"></path>
    </g>
    <g transform="scale(0.009963,0.009963)" id="GLYPHcmr10_53">
      <path style="fill-rule: evenodd;" d="M449.000000 -201.000000C449.000000 -320.000000,367.000000 -420.000000,259.000000 -420.000000C211.000000 -420.000000,168.000000 -404.000000,132.000000 -369.000000L132.000000 -564.000000C152.000000 -558.000000,185.000000 -551.000000,217.000000 -551.000000C340.000000 -551.000000,410.000000 -642.000000,410.000000 -655.000000C410.000000 -661.000000,407.000000 -666.000000,400.000000 -666.000000C399.000000 -666.000000,397.000000 -666.000000,392.000000 -663.000000C372.000000 -654.000000,323.000000 -634.000000,256.000000 -634.000000C216.000000 -634.000000,170.000000 -641.000000,123.000000 -662.000000C115.000000 -665.000000,113.000000 -665.000000,111.000000 -665.000000C101.000000 -665.000000,101.000000 -657.000000,101.000000 -641.000000L101.000000 -345.000000C101.000000 -327.000000,101.000000 -319.000000,115.000000 -319.000000C122.000000 -319.000000,124.000000 -322.000000,128.000000 -328.000000C139.000000 -344.000000,176.000000 -398.000000,257.000000 -398.000000C309.000000 -398.000000,334.000000 -352.000000,342.000000 -334.000000C358.000000 -297.000000,360.000000 -258.000000,360.000000 -208.000000C360.000000 -173.000000,360.000000 -113.000000,336.000000 -71.000000C312.000000 -32.000000,275.000000 -6.000000,229.000000 -6.000000C156.000000 -6.000000,99.000000 -59.000000,82.000000 -118.000000C85.000000 -117.000000,88.000000 -116.000000,99.000000 -116.000000C132.000000 -116.000000,149.000000 -141.000000,149.000000 -165.000000C149.000000 -189.000000,132.000000 -214.000000,99.000000 -214.000000C85.000000 -214.000000,50.000000 -207.000000,50.000000 -161.000000C50.000000 -75.000000,119.000000 22.000000,231.000000 22.000000C347.000000 22.000000,449.000000 -74.000000,449.000000 -201.000000"></path>
    </g>
    <g transform="scale(0.009963,0.009963)" id="GLYPHcmr10_54">
      <path style="fill-rule: evenodd;" d="M132.000000 -328.000000L132.000000 -352.000000C132.000000 -605.000000,256.000000 -641.000000,307.000000 -641.000000C331.000000 -641.000000,373.000000 -635.000000,395.000000 -601.000000C380.000000 -601.000000,340.000000 -601.000000,340.000000 -556.000000C340.000000 -525.000000,364.000000 -510.000000,386.000000 -510.000000C402.000000 -510.000000,432.000000 -519.000000,432.000000 -558.000000C432.000000 -618.000000,388.000000 -666.000000,305.000000 -666.000000C177.000000 -666.000000,42.000000 -537.000000,42.000000 -316.000000C42.000000 -49.000000,158.000000 22.000000,251.000000 22.000000C362.000000 22.000000,457.000000 -72.000000,457.000000 -204.000000C457.000000 -331.000000,368.000000 -427.000000,257.000000 -427.000000C189.000000 -427.000000,152.000000 -376.000000,132.000000 -328.000000M251.000000 -6.000000C188.000000 -6.000000,158.000000 -66.000000,152.000000 -81.000000C134.000000 -128.000000,134.000000 -208.000000,134.000000 -226.000000C134.000000 -304.000000,166.000000 -404.000000,256.000000 -404.000000C272.000000 -404.000000,318.000000 -404.000000,349.000000 -342.000000C367.000000 -305.000000,367.000000 -254.000000,367.000000 -205.000000C367.000000 -157.000000,367.000000 -107.000000,350.000000 -71.000000C320.000000 -11.000000,274.000000 -6.000000,251.000000 -6.000000"></path>
    </g>
    <g transform="scale(0.009963,0.009963)" id="GLYPHcmr10_55">
      <path style="fill-rule: evenodd;" d="M476.000000 -609.000000C485.000000 -621.000000,485.000000 -623.000000,485.000000 -644.000000L242.000000 -644.000000C120.000000 -644.000000,118.000000 -657.000000,114.000000 -676.000000L89.000000 -676.000000L56.000000 -470.000000L81.000000 -470.000000C84.000000 -486.000000,93.000000 -549.000000,106.000000 -561.000000C113.000000 -567.000000,191.000000 -567.000000,204.000000 -567.000000L411.000000 -567.000000C400.000000 -551.000000,321.000000 -442.000000,299.000000 -409.000000C209.000000 -274.000000,176.000000 -135.000000,176.000000 -33.000000C176.000000 -23.000000,176.000000 22.000000,222.000000 22.000000C268.000000 22.000000,268.000000 -23.000000,268.000000 -33.000000L268.000000 -84.000000C268.000000 -139.000000,271.000000 -194.000000,279.000000 -248.000000C283.000000 -271.000000,297.000000 -357.000000,341.000000 -419.000000"></path>
    </g>
    <g transform="scale(0.009963,0.009963)" id="GLYPHcmr10_56">
      <path style="fill-rule: evenodd;" d="M163.000000 -457.000000C117.000000 -487.000000,113.000000 -521.000000,113.000000 -538.000000C113.000000 -599.000000,178.000000 -641.000000,249.000000 -641.000000C322.000000 -641.000000,386.000000 -589.000000,386.000000 -517.000000C386.000000 -460.000000,347.000000 -412.000000,287.000000 -377.000000M309.000000 -362.000000C381.000000 -399.000000,430.000000 -451.000000,430.000000 -517.000000C430.000000 -609.000000,341.000000 -666.000000,250.000000 -666.000000C150.000000 -666.000000,69.000000 -592.000000,69.000000 -499.000000C69.000000 -481.000000,71.000000 -436.000000,113.000000 -389.000000C124.000000 -377.000000,161.000000 -352.000000,186.000000 -335.000000C128.000000 -306.000000,42.000000 -250.000000,42.000000 -151.000000C42.000000 -45.000000,144.000000 22.000000,249.000000 22.000000C362.000000 22.000000,457.000000 -61.000000,457.000000 -168.000000C457.000000 -204.000000,446.000000 -249.000000,408.000000 -291.000000C389.000000 -312.000000,373.000000 -322.000000,309.000000 -362.000000M209.000000 -320.000000L332.000000 -242.000000C360.000000 -223.000000,407.000000 -193.000000,407.000000 -132.000000C407.000000 -58.000000,332.000000 -6.000000,250.000000 -6.000000C164.000000 -6.000000,92.000000 -68.000000,92.000000 -151.000000C92.000000 -209.000000,124.000000 -273.000000,209.000000 -320.000000"></path>
    </g>
    <g transform="scale(0.009963,0.009963)" id="GLYPHcmr10_57">
      <path style="fill-rule: evenodd;" d="M367.000000 -318.000000L367.000000 -286.000000C367.000000 -52.000000,263.000000 -6.000000,205.000000 -6.000000C188.000000 -6.000000,134.000000 -8.000000,107.000000 -42.000000C151.000000 -42.000000,159.000000 -71.000000,159.000000 -88.000000C159.000000 -119.000000,135.000000 -134.000000,113.000000 -134.000000C97.000000 -134.000000,67.000000 -125.000000,67.000000 -86.000000C67.000000 -19.000000,121.000000 22.000000,206.000000 22.000000C335.000000 22.000000,457.000000 -114.000000,457.000000 -329.000000C457.000000 -598.000000,342.000000 -666.000000,253.000000 -666.000000C198.000000 -666.000000,149.000000 -648.000000,106.000000 -603.000000C65.000000 -558.000000,42.000000 -516.000000,42.000000 -441.000000C42.000000 -316.000000,130.000000 -218.000000,242.000000 -218.000000C303.000000 -218.000000,344.000000 -260.000000,367.000000 -318.000000M243.000000 -241.000000C227.000000 -241.000000,181.000000 -241.000000,150.000000 -304.000000C132.000000 -341.000000,132.000000 -391.000000,132.000000 -440.000000C132.000000 -494.000000,132.000000 -541.000000,153.000000 -578.000000C180.000000 -628.000000,218.000000 -641.000000,253.000000 -641.000000C299.000000 -641.000000,332.000000 -607.000000,349.000000 -562.000000C361.000000 -530.000000,365.000000 -467.000000,365.000000 -421.000000C365.000000 -338.000000,331.000000 -241.000000,243.000000 -241.000000"></path>
    </g>
  </defs>
  <path d="M153.898468 84.945465C153.898468 84.152771,153.583527 83.392624,153.023041 82.832153C152.462570 82.271667,151.702423 81.956726,150.909729 81.956726C150.117035 81.956726,149.356888 82.271667,148.796417 82.832153C148.235931 83.392624,147.920990 84.152771,147.920990 84.945465C147.920990 85.738159,148.235931 86.498306,148.796417 87.058777C149.356888 87.619263,150.117035 87.934204,150.909729 87.934204C151.702423 87.934204,152.462570 87.619263,153.023041 87.058777C153.583527 86.498306,153.898468 85.738159,153.898468 84.945465Z" style="fill: rgb(100.000000%,100.000000%,100.000000%);stroke: none;"></path>
  <path d="M157.480637 89.721893C157.480637 88.929199,157.165695 88.169052,156.605209 87.608582C156.044739 87.048096,155.284592 86.733154,154.491898 86.733154C153.699203 86.733154,152.939056 87.048096,152.378586 87.608582C151.818100 88.169052,151.503159 88.929199,151.503159 89.721893C151.503159 90.514587,151.818100 91.274734,152.378586 91.835205C152.939056 92.395691,153.699203 92.710632,154.491898 92.710632C155.284592 92.710632,156.044739 92.395691,156.605209 91.835205C157.165695 91.274734,157.480637 90.514587,157.480637 89.721893Z" style="fill: rgb(100.000000%,100.000000%,100.000000%);stroke: none;"></path>
  <path d="M143.359894 73.183167C143.359894 72.390472,143.044952 71.630325,142.484467 71.069855C141.923996 70.509369,141.163849 70.194427,140.371155 70.194427C139.578461 70.194427,138.818314 70.509369,138.257843 71.069855C137.697357 71.630325,137.382416 72.390472,137.382416 73.183167C137.382416 73.975861,137.697357 74.736008,138.257843 75.296478C138.818314 75.856964,139.578461 76.171906,140.371155 76.171906C141.163849 76.171906,141.923996 75.856964,142.484467 75.296478C143.044952 74.736008,143.359894 73.975861,143.359894 73.183167Z" style="fill: rgb(100.000000%,100.000000%,100.000000%);stroke: none;"></path>
  <path d="M150.062302 80.364899C150.062302 79.572205,149.747360 78.812057,149.186874 78.251587C148.626404 77.691101,147.866257 77.376160,147.073563 77.376160C146.280869 77.376160,145.520721 77.691101,144.960251 78.251587C144.399765 78.812057,144.084824 79.572205,144.084824 80.364899C144.084824 81.157593,144.399765 81.917740,144.960251 82.478210C145.520721 83.038696,146.280869 83.353638,147.073563 83.353638C147.866257 83.353638,148.626404 83.038696,149.186874 82.478210C149.747360 81.917740,150.062302 81.157593,150.062302 80.364899Z" style="fill: rgb(100.000000%,100.000000%,100.000000%);stroke: none;"></path>
  <path d="M141.744568 63.511490C141.744568 62.718796,141.429626 61.958649,140.869141 61.398178C140.308670 60.837692,139.548523 60.522751,138.755829 60.522751C137.963135 60.522751,137.202988 60.837692,136.642517 61.398178C136.082031 61.958649,135.767090 62.718796,135.767090 63.511490C135.767090 64.304184,136.082031 65.064331,136.642517 65.624802C137.202988 66.185287,137.963135 66.500229,138.755829 66.500229C139.548523 66.500229,140.308670 66.185287,140.869141 65.624802C141.429626 65.064331,141.744568 64.304184,141.744568 63.511490Z" style="fill: rgb(100.000000%,100.000000%,100.000000%);stroke: none;"></path>
  <path d="M140.591293 70.023895C140.591293 69.231201,140.276352 68.471054,139.715866 67.910583C139.155396 67.350098,138.395248 67.035156,137.602554 67.035156C136.809860 67.035156,136.049713 67.350098,135.489243 67.910583C134.928757 68.471054,134.613815 69.231201,134.613815 70.023895C134.613815 70.816589,134.928757 71.576736,135.489243 72.137207C136.049713 72.697693,136.809860 73.012634,137.602554 73.012634C138.395248 73.012634,139.155396 72.697693,139.715866 72.137207C140.276352 71.576736,140.591293 70.816589,140.591293 70.023895Z" style="fill: rgb(100.000000%,100.000000%,100.000000%);stroke: none;"></path>
  <path d="M146.794128 58.790634C146.794128 57.997940,146.479187 57.237793,145.918701 56.677322C145.358231 56.116837,144.598083 55.801895,143.805389 55.801895C143.012695 55.801895,142.252548 56.116837,141.692078 56.677322C141.131592 57.237793,140.816650 57.997940,140.816650 58.790634C140.816650 59.583328,141.131592 60.343475,141.692078 60.903946C142.252548 61.464432,143.012695 61.779373,143.805389 61.779373C144.598083 61.779373,145.358231 61.464432,145.918701 60.903946C146.479187 60.343475,146.794128 59.583328,146.794128 58.790634Z" style="fill: rgb(100.000000%,100.000000%,100.000000%);stroke: none;"></path>
  <path d="M144.027390 61.602524C144.027390 60.809830,143.712448 60.049683,143.151962 59.489212C142.591492 58.928726,141.831345 58.613785,141.038651 58.613785C140.245956 58.613785,139.485809 58.928726,138.925339 59.489212C138.364853 60.049683,138.049911 60.809830,138.049911 61.602524C138.049911 62.395218,138.364853 63.155365,138.925339 63.715836C139.485809 64.276321,140.245956 64.591263,141.038651 64.591263C141.831345 64.591263,142.591492 64.276321,143.151962 63.715836C143.712448 63.155365,144.027390 62.395218,144.027390 61.602524Z" style="fill: rgb(100.000000%,100.000000%,100.000000%);stroke: none;"></path>
  <path d="M150.005798 58.555496C150.005798 57.762802,149.690857 57.002655,149.130371 56.442184C148.569901 55.881699,147.809753 55.566757,147.017059 55.566757C146.224365 55.566757,145.464218 55.881699,144.903748 56.442184C144.343262 57.002655,144.028320 57.762802,144.028320 58.555496C144.028320 59.348190,144.343262 60.108337,144.903748 60.668808C145.464218 61.229294,146.224365 61.544235,147.017059 61.544235C147.809753 61.544235,148.569901 61.229294,149.130371 60.668808C149.690857 60.108337,150.005798 59.348190,150.005798 58.555496Z" style="fill: rgb(100.000000%,100.000000%,100.000000%);stroke: none;"></path>
  <path d="M147.729813 57.931992C147.729813 57.139297,147.414871 56.379150,146.854385 55.818680C146.293915 55.258194,145.533768 54.943253,144.741074 54.943253C143.948380 54.943253,143.188232 55.258194,142.627762 55.818680C142.067276 56.379150,141.752335 57.139297,141.752335 57.931992C141.752335 58.724686,142.067276 59.484833,142.627762 60.045303C143.188232 60.605789,143.948380 60.920731,144.741074 60.920731C145.533768 60.920731,146.293915 60.605789,146.854385 60.045303C147.414871 59.484833,147.729813 58.724686,147.729813 57.931992Z" style="fill: rgb(100.000000%,100.000000%,100.000000%);stroke: none;"></path>
  <path d="M151.070496 63.755936C151.070496 62.963242,150.755554 62.203094,150.195068 61.642624C149.634598 61.082138,148.874451 60.767197,148.081757 60.767197C147.289062 60.767197,146.528915 61.082138,145.968445 61.642624C145.407959 62.203094,145.093018 62.963242,145.093018 63.755936C145.093018 64.548630,145.407959 65.308777,145.968445 65.869247C146.528915 66.429733,147.289062 66.744675,148.081757 66.744675C148.874451 66.744675,149.634598 66.429733,150.195068 65.869247C150.755554 65.308777,151.070496 64.548630,151.070496 63.755936Z" style="fill: rgb(100.000000%,100.000000%,100.000000%);stroke: none;"></path>
  <path d="M150.299850 59.963760C150.299850 59.171066,149.984909 58.410919,149.424423 57.850449C148.863953 57.289963,148.103806 56.975021,147.311111 56.975021C146.518417 56.975021,145.758270 57.289963,145.197800 57.850449C144.637314 58.410919,144.322372 59.171066,144.322372 59.963760C144.322372 60.756454,144.637314 61.516602,145.197800 62.077072C145.758270 62.637558,146.518417 62.952499,147.311111 62.952499C148.103806 62.952499,148.863953 62.637558,149.424423 62.077072C149.984909 61.516602,150.299850 60.756454,150.299850 59.963760Z" style="fill: rgb(100.000000%,100.000000%,100.000000%);stroke: none;"></path>
  <path d="M151.304962 71.971954C151.304962 71.179260,150.990021 70.419113,150.429535 69.858643C149.869064 69.298157,149.108917 68.983215,148.316223 68.983215C147.523529 68.983215,146.763382 69.298157,146.202911 69.858643C145.642426 70.419113,145.327484 71.179260,145.327484 71.971954C145.327484 72.764648,145.642426 73.524796,146.202911 74.085266C146.763382 74.645752,147.523529 74.960693,148.316223 74.960693C149.108917 74.960693,149.869064 74.645752,150.429535 74.085266C150.990021 73.524796,151.304962 72.764648,151.304962 71.971954Z" style="fill: rgb(100.000000%,100.000000%,100.000000%);stroke: none;"></path>
  <path d="M152.259186 66.224518C152.259186 65.431824,151.944244 64.671677,151.383759 64.111206C150.823288 63.550720,150.063141 63.235779,149.270447 63.235779C148.477753 63.235779,147.717606 63.550720,147.157135 64.111206C146.596649 64.671677,146.281708 65.431824,146.281708 66.224518C146.281708 67.017212,146.596649 67.777359,147.157135 68.337830C147.717606 68.898315,148.477753 69.213257,149.270447 69.213257C150.063141 69.213257,150.823288 68.898315,151.383759 68.337830C151.944244 67.777359,152.259186 67.017212,152.259186 66.224518Z" style="fill: rgb(100.000000%,100.000000%,100.000000%);stroke: none;"></path>
  <path d="M141.557144 79.142563C141.557144 78.349869,141.242203 77.589722,140.681717 77.029251C140.121246 76.468765,139.361099 76.153824,138.568405 76.153824C137.775711 76.153824,137.015564 76.468765,136.455093 77.029251C135.894608 77.589722,135.579666 78.349869,135.579666 79.142563C135.579666 79.935257,135.894608 80.695404,136.455093 81.255875C137.015564 81.816360,137.775711 82.131302,138.568405 82.131302C139.361099 82.131302,140.121246 81.816360,140.681717 81.255875C141.242203 80.695404,141.557144 79.935257,141.557144 79.142563Z" style="fill: rgb(100.000000%,100.000000%,100.000000%);stroke: none;"></path>
  <path d="M148.626541 74.129471C148.626541 73.336777,148.311600 72.576630,147.751114 72.016159C147.190643 71.455673,146.430496 71.140732,145.637802 71.140732C144.845108 71.140732,144.084961 71.455673,143.524490 72.016159C142.964005 72.576630,142.649063 73.336777,142.649063 74.129471C142.649063 74.922165,142.964005 75.682312,143.524490 76.242783C144.084961 76.803268,144.845108 77.118210,145.637802 77.118210C146.430496 77.118210,147.190643 76.803268,147.751114 76.242783C148.311600 75.682312,148.626541 74.922165,148.626541 74.129471Z" style="fill: rgb(100.000000%,100.000000%,100.000000%);stroke: none;"></path>
  <path d="M128.189392 91.497223C128.189392 90.704529,127.874451 89.944382,127.313965 89.383911C126.753494 88.823425,125.993347 88.508484,125.200653 88.508484C124.407959 88.508484,123.647812 88.823425,123.087341 89.383911C122.526855 89.944382,122.211914 90.704529,122.211914 91.497223C122.211914 92.289917,122.526855 93.050064,123.087341 93.610535C123.647812 94.171021,124.407959 94.485962,125.200653 94.485962C125.993347 94.485962,126.753494 94.171021,127.313965 93.610535C127.874451 93.050064,128.189392 92.289917,128.189392 91.497223Z" style="fill: rgb(100.000000%,100.000000%,100.000000%);stroke: none;"></path>
  <path d="M136.937134 82.091843C136.937134 81.299149,136.622192 80.539001,136.061707 79.978531C135.501236 79.418045,134.741089 79.103104,133.948395 79.103104C133.155701 79.103104,132.395554 79.418045,131.835083 79.978531C131.274597 80.539001,130.959656 81.299149,130.959656 82.091843C130.959656 82.884537,131.274597 83.644684,131.835083 84.205154C132.395554 84.765640,133.155701 85.080582,133.948395 85.080582C134.741089 85.080582,135.501236 84.765640,136.061707 84.205154C136.622192 83.644684,136.937134 82.884537,136.937134 82.091843Z" style="fill: rgb(100.000000%,100.000000%,100.000000%);stroke: none;"></path>
  <path d="M116.919144 114.763046C116.919144 113.970352,116.604202 113.210205,116.043716 112.649734C115.483246 112.089249,114.723099 111.774307,113.930405 111.774307C113.137711 111.774307,112.377563 112.089249,111.817093 112.649734C111.256607 113.210205,110.941666 113.970352,110.941666 114.763046C110.941666 115.555740,111.256607 116.315887,111.817093 116.876358C112.377563 117.436844,113.137711 117.751785,113.930405 117.751785C114.723099 117.751785,115.483246 117.436844,116.043716 116.876358C116.604202 116.315887,116.919144 115.555740,116.919144 114.763046Z" style="fill: rgb(100.000000%,100.000000%,100.000000%);stroke: none;"></path>
  <path d="M125.219788 98.396194C125.219788 97.603500,124.904846 96.843353,124.344360 96.282883C123.783890 95.722397,123.023743 95.407455,122.231049 95.407455C121.438354 95.407455,120.678207 95.722397,120.117737 96.282883C119.557251 96.843353,119.242310 97.603500,119.242310 98.396194C119.242310 99.188889,119.557251 99.949036,120.117737 100.509506C120.678207 101.069992,121.438354 101.384933,122.231049 101.384933C123.023743 101.384933,123.783890 101.069992,124.344360 100.509506C124.904846 99.949036,125.219788 99.188889,125.219788 98.396194Z" style="fill: rgb(100.000000%,100.000000%,100.000000%);stroke: none;"></path>
  <path d="M102.570953 151.499954C102.570953 150.707260,102.256012 149.947113,101.695526 149.386642C101.135056 148.826157,100.374908 148.511215,99.582214 148.511215C98.789520 148.511215,98.029373 148.826157,97.468903 149.386642C96.908417 149.947113,96.593475 150.707260,96.593475 151.499954C96.593475 152.292648,96.908417 153.052795,97.468903 153.613266C98.029373 154.173752,98.789520 154.488693,99.582214 154.488693C100.374908 154.488693,101.135056 154.173752,101.695526 153.613266C102.256012 153.052795,102.570953 152.292648,102.570953 151.499954Z" style="fill: rgb(100.000000%,100.000000%,100.000000%);stroke: none;"></path>
  <path d="M110.981110 124.115173C110.981110 123.322479,110.666168 122.562332,110.105682 122.001862C109.545212 121.441376,108.785065 121.126434,107.992371 121.126434C107.199677 121.126434,106.439529 121.441376,105.879059 122.001862C105.318573 122.562332,105.003632 123.322479,105.003632 124.115173C105.003632 124.907867,105.318573 125.668015,105.879059 126.228485C106.439529 126.788971,107.199677 127.103912,107.992371 127.103912C108.785065 127.103912,109.545212 126.788971,110.105682 126.228485C110.666168 125.668015,110.981110 124.907867,110.981110 124.115173Z" style="fill: rgb(100.000000%,100.000000%,100.000000%);stroke: none;"></path>
  <path d="M78.078430 196.937881C78.078430 196.145187,77.763489 195.385040,77.203003 194.824570C76.642532 194.264084,75.882385 193.949142,75.089691 193.949142C74.296997 193.949142,73.536850 194.264084,72.976379 194.824570C72.415894 195.385040,72.100952 196.145187,72.100952 196.937881C72.100952 197.730576,72.415894 198.490723,72.976379 199.051193C73.536850 199.611679,74.296997 199.926620,75.089691 199.926620C75.882385 199.926620,76.642532 199.611679,77.203003 199.051193C77.763489 198.490723,78.078430 197.730576,78.078430 196.937881Z" style="fill: rgb(100.000000%,100.000000%,100.000000%);stroke: none;"></path>
  <path d="M104.139130 171.302383C104.139130 170.509689,103.824188 169.749542,103.263702 169.189072C102.703232 168.628586,101.943085 168.313644,101.150391 168.313644C100.357697 168.313644,99.597549 168.628586,99.037079 169.189072C98.476593 169.749542,98.161652 170.509689,98.161652 171.302383C98.161652 172.095078,98.476593 172.855225,99.037079 173.415695C99.597549 173.976181,100.357697 174.291122,101.150391 174.291122C101.943085 174.291122,102.703232 173.976181,103.263702 173.415695C103.824188 172.855225,104.139130 172.095078,104.139130 171.302383Z" style="fill: rgb(100.000000%,100.000000%,100.000000%);stroke: none;"></path>
  <path d="M26.079636 174.803558C26.079636 174.010864,25.764694 173.250717,25.204208 172.690247C24.643738 172.129761,23.883591 171.814819,23.090897 171.814819C22.298203 171.814819,21.538055 172.129761,20.977585 172.690247C20.417099 173.250717,20.102158 174.010864,20.102158 174.803558C20.102158 175.596252,20.417099 176.356400,20.977585 176.916870C21.538055 177.477356,22.298203 177.792297,23.090897 177.792297C23.883591 177.792297,24.643738 177.477356,25.204208 176.916870C25.764694 176.356400,26.079636 175.596252,26.079636 174.803558Z" style="fill: rgb(100.000000%,100.000000%,100.000000%);stroke: none;"></path>
  <path d="M56.969620 195.755005C56.969620 194.962311,56.654678 194.202164,56.094193 193.641693C55.533722 193.081207,54.773575 192.766266,53.980881 192.766266C53.188187 192.766266,52.428040 193.081207,51.867569 193.641693C51.307083 194.202164,50.992142 194.962311,50.992142 195.755005C50.992142 196.547699,51.307083 197.307846,51.867569 197.868317C52.428040 198.428802,53.188187 198.743744,53.980881 198.743744C54.773575 198.743744,55.533722 198.428802,56.094193 197.868317C56.654678 197.307846,56.969620 196.547699,56.969620 195.755005Z" style="fill: rgb(100.000000%,100.000000%,100.000000%);stroke: none;"></path>
  <path d="M21.446762 130.668045C21.446762 129.875351,21.131821 129.115204,20.571335 128.554733C20.010864 127.994247,19.250717 127.679306,18.458023 127.679306C17.665329 127.679306,16.905182 127.994247,16.344711 128.554733C15.784225 129.115204,15.469284 129.875351,15.469284 130.668045C15.469284 131.460739,15.784225 132.220886,16.344711 132.781357C16.905182 133.341843,17.665329 133.656784,18.458023 133.656784C19.250717 133.656784,20.010864 133.341843,20.571335 132.781357C21.131821 132.220886,21.446762 131.460739,21.446762 130.668045Z" style="fill: rgb(100.000000%,100.000000%,100.000000%);stroke: none;"></path>
  <path d="M17.052872 157.564209C17.052872 156.771515,16.737930 156.011368,16.177444 155.450897C15.616974 154.890411,14.856827 154.575470,14.064133 154.575470C13.271439 154.575470,12.511292 154.890411,11.950821 155.450897C11.390335 156.011368,11.075394 156.771515,11.075394 157.564209C11.075394 158.356903,11.390335 159.117050,11.950821 159.677521C12.511292 160.238007,13.271439 160.552948,14.064133 160.552948C14.856827 160.552948,15.616974 160.238007,16.177444 159.677521C16.737930 159.117050,17.052872 158.356903,17.052872 157.564209Z" style="fill: rgb(100.000000%,100.000000%,100.000000%);stroke: none;"></path>
  <path d="M39.087616 125.339172C39.087616 124.546478,38.772675 123.786331,38.212189 123.225861C37.651718 122.665375,36.891571 122.350433,36.098877 122.350433C35.306183 122.350433,34.546036 122.665375,33.985565 123.225861C33.425079 123.786331,33.110138 124.546478,33.110138 125.339172C33.110138 126.131866,33.425079 126.892014,33.985565 127.452484C34.546036 128.012970,35.306183 128.327911,36.098877 128.327911C36.891571 128.327911,37.651718 128.012970,38.212189 127.452484C38.772675 126.892014,39.087616 126.131866,39.087616 125.339172Z" style="fill: rgb(100.000000%,100.000000%,100.000000%);stroke: none;"></path>
  <path d="M27.802872 122.724396C27.802872 121.931702,27.487930 121.171555,26.927444 120.611084C26.366974 120.050598,25.606827 119.735657,24.814133 119.735657C24.021439 119.735657,23.261292 120.050598,22.700821 120.611084C22.140335 121.171555,21.825394 121.931702,21.825394 122.724396C21.825394 123.517090,22.140335 124.277237,22.700821 124.837708C23.261292 125.398193,24.021439 125.713135,24.814133 125.713135C25.606827 125.713135,26.366974 125.398193,26.927444 124.837708C27.487930 124.277237,27.802872 123.517090,27.802872 122.724396Z" style="fill: rgb(100.000000%,100.000000%,100.000000%);stroke: none;"></path>
  <path d="M45.458496 132.488190C45.458496 131.695496,45.143555 130.935349,44.583069 130.374878C44.022598 129.814392,43.262451 129.499451,42.469757 129.499451C41.677063 129.499451,40.916916 129.814392,40.356445 130.374878C39.795959 130.935349,39.481018 131.695496,39.481018 132.488190C39.481018 133.280884,39.795959 134.041031,40.356445 134.601501C40.916916 135.161987,41.677063 135.476929,42.469757 135.476929C43.262451 135.476929,44.022598 135.161987,44.583069 134.601501C45.143555 134.041031,45.458496 133.280884,45.458496 132.488190Z" style="fill: rgb(100.000000%,100.000000%,100.000000%);stroke: none;"></path>
  <path d="M41.498215 127.865524C41.498215 127.072830,41.183273 126.312683,40.622787 125.752213C40.062317 125.191727,39.302170 124.876785,38.509476 124.876785C37.716782 124.876785,36.956635 125.191727,36.396164 125.752213C35.835678 126.312683,35.520737 127.072830,35.520737 127.865524C35.520737 128.658218,35.835678 129.418365,36.396164 129.978836C36.956635 130.539322,37.716782 130.854263,38.509476 130.854263C39.302170 130.854263,40.062317 130.539322,40.622787 129.978836C41.183273 129.418365,41.498215 128.658218,41.498215 127.865524Z" style="fill: rgb(100.000000%,100.000000%,100.000000%);stroke: none;"></path>
  <path d="M53.664124 133.690399C53.664124 132.897705,53.349182 132.137558,52.788696 131.577087C52.228226 131.016602,51.468079 130.701660,50.675385 130.701660C49.882690 130.701660,49.122543 131.016602,48.562073 131.577087C48.001587 132.137558,47.686646 132.897705,47.686646 133.690399C47.686646 134.483093,48.001587 135.243240,48.562073 135.803711C49.122543 136.364197,49.882690 136.679138,50.675385 136.679138C51.468079 136.679138,52.228226 136.364197,52.788696 135.803711C53.349182 135.243240,53.664124 134.483093,53.664124 133.690399Z" style="fill: rgb(100.000000%,100.000000%,100.000000%);stroke: none;"></path>
  <path d="M47.539337 134.662979C47.539337 133.870285,47.224396 133.110138,46.663910 132.549667C46.103439 131.989182,45.343292 131.674240,44.550598 131.674240C43.757904 131.674240,42.997757 131.989182,42.437286 132.549667C41.876801 133.110138,41.561859 133.870285,41.561859 134.662979C41.561859 135.455673,41.876801 136.215820,42.437286 136.776291C42.997757 137.336777,43.757904 137.651718,44.550598 137.651718C45.343292 137.651718,46.103439 137.336777,46.663910 136.776291C47.224396 136.215820,47.539337 135.455673,47.539337 134.662979Z" style="fill: rgb(100.000000%,100.000000%,100.000000%);stroke: none;"></path>
  <path d="M56.603928 117.405380C56.603928 116.612686,56.288986 115.852539,55.728500 115.292068C55.168030 114.731583,54.407883 114.416641,53.615189 114.416641C52.822495 114.416641,52.062347 114.731583,51.501877 115.292068C50.941391 115.852539,50.626450 116.612686,50.626450 117.405380C50.626450 118.198074,50.941391 118.958221,51.501877 119.518692C52.062347 120.079178,52.822495 120.394119,53.615189 120.394119C54.407883 120.394119,55.168030 120.079178,55.728500 119.518692C56.288986 118.958221,56.603928 118.198074,56.603928 117.405380Z" style="fill: rgb(100.000000%,100.000000%,100.000000%);stroke: none;"></path>
  <path d="M54.636734 129.612762C54.636734 128.820068,54.321793 128.059921,53.761307 127.499451C53.200836 126.938965,52.440689 126.624023,51.647995 126.624023C50.855301 126.624023,50.095154 126.938965,49.534683 127.499451C48.974197 128.059921,48.659256 128.820068,48.659256 129.612762C48.659256 130.405457,48.974197 131.165604,49.534683 131.726074C50.095154 132.286560,50.855301 132.601501,51.647995 132.601501C52.440689 132.601501,53.200836 132.286560,53.761307 131.726074C54.321793 131.165604,54.636734 130.405457,54.636734 129.612762Z" style="fill: rgb(100.000000%,100.000000%,100.000000%);stroke: none;"></path>
  <path d="M63.613708 83.763306C63.613708 82.970612,63.298767 82.210464,62.738281 81.649994C62.177811 81.089508,61.417664 80.774567,60.624969 80.774567C59.832275 80.774567,59.072128 81.089508,58.511658 81.649994C57.951172 82.210464,57.636230 82.970612,57.636230 83.763306C57.636230 84.556000,57.951172 85.316147,58.511658 85.876617C59.072128 86.437103,59.832275 86.752045,60.624969 86.752045C61.417664 86.752045,62.177811 86.437103,62.738281 85.876617C63.298767 85.316147,63.613708 84.556000,63.613708 83.763306Z" style="fill: rgb(100.000000%,100.000000%,100.000000%);stroke: none;"></path>
  <path d="M60.156601 109.367325C60.156601 108.574631,59.841660 107.814484,59.281174 107.254013C58.720703 106.693527,57.960556 106.378586,57.167862 106.378586C56.375168 106.378586,55.615021 106.693527,55.054550 107.254013C54.494064 107.814484,54.179123 108.574631,54.179123 109.367325C54.179123 110.160019,54.494064 110.920166,55.054550 111.480637C55.615021 112.041122,56.375168 112.356064,57.167862 112.356064C57.960556 112.356064,58.720703 112.041122,59.281174 111.480637C59.841660 110.920166,60.156601 110.160019,60.156601 109.367325Z" style="fill: rgb(100.000000%,100.000000%,100.000000%);stroke: none;"></path>
  <path d="M63.973068 26.284836C63.973068 25.492142,63.658127 24.731995,63.097641 24.171524C62.537170 23.611038,61.777023 23.296097,60.984329 23.296097C60.191635 23.296097,59.431488 23.611038,58.871017 24.171524C58.310532 24.731995,57.995590 25.492142,57.995590 26.284836C57.995590 27.077530,58.310532 27.837677,58.871017 28.398148C59.431488 28.958633,60.191635 29.273575,60.984329 29.273575C61.777023 29.273575,62.537170 28.958633,63.097641 28.398148C63.658127 27.837677,63.973068 27.077530,63.973068 26.284836Z" style="fill: rgb(100.000000%,100.000000%,100.000000%);stroke: none;"></path>
  <path d="M56.267609 66.621643C56.267609 65.828949,55.952667 65.068802,55.392181 64.508331C54.831711 63.947845,54.071564 63.632904,53.278870 63.632904C52.486176 63.632904,51.726028 63.947845,51.165558 64.508331C50.605072 65.068802,50.290131 65.828949,50.290131 66.621643C50.290131 67.414337,50.605072 68.174484,51.165558 68.734955C51.726028 69.295441,52.486176 69.610382,53.278870 69.610382C54.071564 69.610382,54.831711 69.295441,55.392181 68.734955C55.952667 68.174484,56.267609 67.414337,56.267609 66.621643Z" style="fill: rgb(100.000000%,100.000000%,100.000000%);stroke: none;"></path>
  <path d="M129.217453 2.720840C129.217453 1.928146,128.902512 1.167999,128.342026 0.607529C127.781555 0.047043,127.021408 -0.267899,126.228714 -0.267899C125.436020 -0.267899,124.675873 0.047043,124.115402 0.607529C123.554916 1.167999,123.239975 1.928146,123.239975 2.720840C123.239975 3.513535,123.554916 4.273682,124.115402 4.834152C124.675873 5.394638,125.436020 5.709579,126.228714 5.709579C127.021408 5.709579,127.781555 5.394638,128.342026 4.834152C128.902512 4.273682,129.217453 3.513535,129.217453 2.720840Z" style="fill: rgb(100.000000%,100.000000%,100.000000%);stroke: none;"></path>
  <path d="M85.219193 10.837646C85.219193 10.044952,84.904251 9.284805,84.343765 8.724335C83.783295 8.163849,83.023148 7.848907,82.230453 7.848907C81.437759 7.848907,80.677612 8.163849,80.117142 8.724335C79.556656 9.284805,79.241714 10.044952,79.241714 10.837646C79.241714 11.630341,79.556656 12.390488,80.117142 12.950958C80.677612 13.511444,81.437759 13.826385,82.230453 13.826385C83.023148 13.826385,83.783295 13.511444,84.343765 12.950958C84.904251 12.390488,85.219193 11.630341,85.219193 10.837646Z" style="fill: rgb(100.000000%,100.000000%,100.000000%);stroke: none;"></path>
  <path d="M165.349808 34.777328C165.349808 33.984634,165.034866 33.224487,164.474380 32.664017C163.913910 32.103531,163.153763 31.788589,162.361069 31.788589C161.568375 31.788589,160.808228 32.103531,160.247757 32.664017C159.687271 33.224487,159.372330 33.984634,159.372330 34.777328C159.372330 35.570023,159.687271 36.330170,160.247757 36.890640C160.808228 37.451126,161.568375 37.766068,162.361069 37.766068C163.153763 37.766068,163.913910 37.451126,164.474380 36.890640C165.034866 36.330170,165.349808 35.570023,165.349808 34.777328Z" style="fill: rgb(100.000000%,100.000000%,100.000000%);stroke: none;"></path>
  <path d="M150.905777 7.650650C150.905777 6.857956,150.590836 6.097809,150.030350 5.537338C149.469879 4.976852,148.709732 4.661911,147.917038 4.661911C147.124344 4.661911,146.364197 4.976852,145.803726 5.537338C145.243240 6.097809,144.928299 6.857956,144.928299 7.650650C144.928299 8.443344,145.243240 9.203491,145.803726 9.763962C146.364197 10.324448,147.124344 10.639389,147.917038 10.639389C148.709732 10.639389,149.469879 10.324448,150.030350 9.763962C150.590836 9.203491,150.905777 8.443344,150.905777 7.650650Z" style="fill: rgb(100.000000%,100.000000%,100.000000%);stroke: none;"></path>
  <path d="M155.672043 57.295151C155.672043 56.502457,155.357101 55.742310,154.796616 55.181839C154.236145 54.621353,153.475998 54.306412,152.683304 54.306412C151.890610 54.306412,151.130463 54.621353,150.569992 55.181839C150.009506 55.742310,149.694565 56.502457,149.694565 57.295151C149.694565 58.087845,150.009506 58.847992,150.569992 59.408463C151.130463 59.968948,151.890610 60.283890,152.683304 60.283890C153.475998 60.283890,154.236145 59.968948,154.796616 59.408463C155.357101 58.847992,155.672043 58.087845,155.672043 57.295151Z" style="fill: rgb(100.000000%,100.000000%,100.000000%);stroke: none;"></path>
  <path d="M164.872772 46.642517C164.872772 45.849823,164.557831 45.089676,163.997345 44.529205C163.436874 43.968719,162.676727 43.653778,161.884033 43.653778C161.091339 43.653778,160.331192 43.968719,159.770721 44.529205C159.210236 45.089676,158.895294 45.849823,158.895294 46.642517C158.895294 47.435211,159.210236 48.195358,159.770721 48.755829C160.331192 49.316315,161.091339 49.631256,161.884033 49.631256C162.676727 49.631256,163.436874 49.316315,163.997345 48.755829C164.557831 48.195358,164.872772 47.435211,164.872772 46.642517Z" style="fill: rgb(100.000000%,100.000000%,100.000000%);stroke: none;"></path>
  <path d="M149.766800 61.847595C149.766800 61.054901,149.451859 60.294754,148.891373 59.734283C148.330902 59.173798,147.570755 58.858856,146.778061 58.858856C145.985367 58.858856,145.225220 59.173798,144.664749 59.734283C144.104263 60.294754,143.789322 61.054901,143.789322 61.847595C143.789322 62.640289,144.104263 63.400436,144.664749 63.960907C145.225220 64.521393,145.985367 64.836334,146.778061 64.836334C147.570755 64.836334,148.330902 64.521393,148.891373 63.960907C149.451859 63.400436,149.766800 62.640289,149.766800 61.847595Z" style="fill: rgb(100.000000%,100.000000%,100.000000%);stroke: none;"></path>
  <path d="M153.069443 59.217896C153.069443 58.425201,152.754501 57.665054,152.194016 57.104584C151.633545 56.544098,150.873398 56.229156,150.080704 56.229156C149.288010 56.229156,148.527863 56.544098,147.967392 57.104584C147.406906 57.665054,147.091965 58.425201,147.091965 59.217896C147.091965 60.010590,147.406906 60.770737,147.967392 61.331207C148.527863 61.891693,149.288010 62.206635,150.080704 62.206635C150.873398 62.206635,151.633545 61.891693,152.194016 61.331207C152.754501 60.770737,153.069443 60.010590,153.069443 59.217896Z" style="fill: rgb(100.000000%,100.000000%,100.000000%);stroke: none;"></path>
  <path d="M146.788376 61.965439C146.788376 61.172745,146.473434 60.412598,145.912949 59.852127C145.352478 59.291641,144.592331 58.976700,143.799637 58.976700C143.006943 58.976700,142.246796 59.291641,141.686325 59.852127C141.125839 60.412598,140.810898 61.172745,140.810898 61.965439C140.810898 62.758133,141.125839 63.518280,141.686325 64.078751C142.246796 64.639236,143.006943 64.954178,143.799637 64.954178C144.592331 64.954178,145.352478 64.639236,145.912949 64.078751C146.473434 63.518280,146.788376 62.758133,146.788376 61.965439Z" style="fill: rgb(100.000000%,100.000000%,100.000000%);stroke: none;"></path>
  <path d="M148.879501 62.487289C148.879501 61.694595,148.564560 60.934448,148.004074 60.373978C147.443604 59.813492,146.683456 59.498550,145.890762 59.498550C145.098068 59.498550,144.337921 59.813492,143.777451 60.373978C143.216965 60.934448,142.902023 61.694595,142.902023 62.487289C142.902023 63.279984,143.216965 64.040131,143.777451 64.600601C144.337921 65.161087,145.098068 65.476028,145.890762 65.476028C146.683456 65.476028,147.443604 65.161087,148.004074 64.600601C148.564560 64.040131,148.879501 63.279984,148.879501 62.487289Z" style="fill: rgb(100.000000%,100.000000%,100.000000%);stroke: none;"></path>
  <path d="M144.689545 55.511353C144.689545 54.718658,144.374603 53.958511,143.814117 53.398041C143.253647 52.837555,142.493500 52.522614,141.700806 52.522614C140.908112 52.522614,140.147964 52.837555,139.587494 53.398041C139.027008 53.958511,138.712067 54.718658,138.712067 55.511353C138.712067 56.304047,139.027008 57.064194,139.587494 57.624664C140.147964 58.185150,140.908112 58.500092,141.700806 58.500092C142.493500 58.500092,143.253647 58.185150,143.814117 57.624664C144.374603 57.064194,144.689545 56.304047,144.689545 55.511353Z" style="fill: rgb(100.000000%,100.000000%,100.000000%);stroke: none;"></path>
  <path d="M146.346436 60.737350C146.346436 59.944656,146.031494 59.184509,145.471008 58.624039C144.910538 58.063553,144.150391 57.748611,143.357697 57.748611C142.565002 57.748611,141.804855 58.063553,141.244385 58.624039C140.683899 59.184509,140.368958 59.944656,140.368958 60.737350C140.368958 61.530045,140.683899 62.290192,141.244385 62.850662C141.804855 63.411148,142.565002 63.726089,143.357697 63.726089C144.150391 63.726089,144.910538 63.411148,145.471008 62.850662C146.031494 62.290192,146.346436 61.530045,146.346436 60.737350Z" style="fill: rgb(100.000000%,100.000000%,100.000000%);stroke: none;"></path>
  <path d="M140.641174 36.249008C140.641174 35.456314,140.326233 34.696167,139.765747 34.135696C139.205276 33.575211,138.445129 33.260269,137.652435 33.260269C136.859741 33.260269,136.099594 33.575211,135.539124 34.135696C134.978638 34.696167,134.663696 35.456314,134.663696 36.249008C134.663696 37.041702,134.978638 37.801849,135.539124 38.362320C136.099594 38.922806,136.859741 39.237747,137.652435 39.237747C138.445129 39.237747,139.205276 38.922806,139.765747 38.362320C140.326233 37.801849,140.641174 37.041702,140.641174 36.249008Z" style="fill: rgb(100.000000%,100.000000%,100.000000%);stroke: none;"></path>
  <path d="M142.592361 51.646149C142.592361 50.853455,142.277420 50.093307,141.716934 49.532837C141.156464 48.972351,140.396317 48.657410,139.603622 48.657410C138.810928 48.657410,138.050781 48.972351,137.490311 49.532837C136.929825 50.093307,136.614883 50.853455,136.614883 51.646149C136.614883 52.438843,136.929825 53.198990,137.490311 53.759460C138.050781 54.319946,138.810928 54.634888,139.603622 54.634888C140.396317 54.634888,141.156464 54.319946,141.716934 53.759460C142.277420 53.198990,142.592361 52.438843,142.592361 51.646149Z" style="fill: rgb(100.000000%,100.000000%,100.000000%);stroke: none;"></path>
  <path d="M179.088669 23.112900C179.088669 22.320206,178.773727 21.560059,178.213242 20.999588C177.652771 20.439102,176.892624 20.124161,176.099930 20.124161C175.307236 20.124161,174.547089 20.439102,173.986618 20.999588C173.426132 21.560059,173.111191 22.320206,173.111191 23.112900C173.111191 23.905594,173.426132 24.665741,173.986618 25.226212C174.547089 25.786697,175.307236 26.101639,176.099930 26.101639C176.892624 26.101639,177.652771 25.786697,178.213242 25.226212C178.773727 24.665741,179.088669 23.905594,179.088669 23.112900Z" style="fill: rgb(100.000000%,100.000000%,100.000000%);stroke: none;"></path>
  <path d="M148.937897 26.291977C148.937897 25.499283,148.622955 24.739136,148.062469 24.178665C147.501999 23.618179,146.741852 23.303238,145.949158 23.303238C145.156464 23.303238,144.396317 23.618179,143.835846 24.178665C143.275360 24.739136,142.960419 25.499283,142.960419 26.291977C142.960419 27.084671,143.275360 27.844818,143.835846 28.405289C144.396317 28.965775,145.156464 29.280716,145.949158 29.280716C146.741852 29.280716,147.501999 28.965775,148.062469 28.405289C148.622955 27.844818,148.937897 27.084671,148.937897 26.291977Z" style="fill: rgb(100.000000%,100.000000%,100.000000%);stroke: none;"></path>
  <path d="M199.505295 87.106827C199.505295 86.314133,199.190353 85.553986,198.629868 84.993515C198.069397 84.433029,197.309250 84.118088,196.516556 84.118088C195.723862 84.118088,194.963715 84.433029,194.403244 84.993515C193.842758 85.553986,193.527817 86.314133,193.527817 87.106827C193.527817 87.899521,193.842758 88.659668,194.403244 89.220139C194.963715 89.780624,195.723862 90.095566,196.516556 90.095566C197.309250 90.095566,198.069397 89.780624,198.629868 89.220139C199.190353 88.659668,199.505295 87.899521,199.505295 87.106827Z" style="fill: rgb(100.000000%,100.000000%,100.000000%);stroke: none;"></path>
  <path d="M190.592590 43.065796C190.592590 42.273102,190.277649 41.512955,189.717163 40.952484C189.156693 40.391998,188.396545 40.077057,187.603851 40.077057C186.811157 40.077057,186.051010 40.391998,185.490540 40.952484C184.930054 41.512955,184.615112 42.273102,184.615112 43.065796C184.615112 43.858490,184.930054 44.618637,185.490540 45.179108C186.051010 45.739594,186.811157 46.054535,187.603851 46.054535C188.396545 46.054535,189.156693 45.739594,189.717163 45.179108C190.277649 44.618637,190.592590 43.858490,190.592590 43.065796Z" style="fill: rgb(100.000000%,100.000000%,100.000000%);stroke: none;"></path>
  <path d="M165.658768 127.980072C165.658768 127.187378,165.343826 126.427231,164.783340 125.866760C164.222870 125.306274,163.462723 124.991333,162.670029 124.991333C161.877335 124.991333,161.117188 125.306274,160.556717 125.866760C159.996231 126.427231,159.681290 127.187378,159.681290 127.980072C159.681290 128.772766,159.996231 129.532913,160.556717 130.093384C161.117188 130.653870,161.877335 130.968811,162.670029 130.968811C163.462723 130.968811,164.222870 130.653870,164.783340 130.093384C165.343826 129.532913,165.658768 128.772766,165.658768 127.980072Z" style="fill: rgb(100.000000%,100.000000%,100.000000%);stroke: none;"></path>
  <path d="M197.347900 113.252213C197.347900 112.459518,197.032959 111.699371,196.472473 111.138901C195.912003 110.578415,195.151855 110.263474,194.359161 110.263474C193.566467 110.263474,192.806320 110.578415,192.245850 111.138901C191.685364 111.699371,191.370422 112.459518,191.370422 113.252213C191.370422 114.044907,191.685364 114.805054,192.245850 115.365524C192.806320 115.926010,193.566467 116.240952,194.359161 116.240952C195.151855 116.240952,195.912003 115.926010,196.472473 115.365524C197.032959 114.805054,197.347900 114.044907,197.347900 113.252213Z" style="fill: rgb(100.000000%,100.000000%,100.000000%);stroke: none;"></path>
  <path d="M134.421524 115.143692C134.421524 114.350998,134.106583 113.590851,133.546097 113.030380C132.985626 112.469894,132.225479 112.154953,131.432785 112.154953C130.640091 112.154953,129.879944 112.469894,129.319473 113.030380C128.758987 113.590851,128.444046 114.350998,128.444046 115.143692C128.444046 115.936386,128.758987 116.696533,129.319473 117.257004C129.879944 117.817490,130.640091 118.132431,131.432785 118.132431C132.225479 118.132431,132.985626 117.817490,133.546097 117.257004C134.106583 116.696533,134.421524 115.936386,134.421524 115.143692Z" style="fill: rgb(100.000000%,100.000000%,100.000000%);stroke: none;"></path>
  <path d="M152.650040 124.930206C152.650040 124.137512,152.335098 123.377365,151.774612 122.816895C151.214142 122.256409,150.453995 121.941467,149.661301 121.941467C148.868607 121.941467,148.108459 122.256409,147.547989 122.816895C146.987503 123.377365,146.672562 124.137512,146.672562 124.930206C146.672562 125.722900,146.987503 126.483047,147.547989 127.043518C148.108459 127.604004,148.868607 127.918945,149.661301 127.918945C150.453995 127.918945,151.214142 127.604004,151.774612 127.043518C152.335098 126.483047,152.650040 125.722900,152.650040 124.930206Z" style="fill: rgb(100.000000%,100.000000%,100.000000%);stroke: none;"></path>
  <path d="M113.411102 97.714172C113.411102 96.921478,113.096161 96.161331,112.535675 95.600861C111.975204 95.040375,111.215057 94.725433,110.422363 94.725433C109.629669 94.725433,108.869522 95.040375,108.309052 95.600861C107.748566 96.161331,107.433624 96.921478,107.433624 97.714172C107.433624 98.506866,107.748566 99.267014,108.309052 99.827484C108.869522 100.387970,109.629669 100.702911,110.422363 100.702911C111.215057 100.702911,111.975204 100.387970,112.535675 99.827484C113.096161 99.267014,113.411102 98.506866,113.411102 97.714172Z" style="fill: rgb(100.000000%,100.000000%,100.000000%);stroke: none;"></path>
  <path d="M127.988647 110.239990C127.988647 109.447296,127.673706 108.687149,127.113220 108.126678C126.552750 107.566193,125.792603 107.251251,124.999908 107.251251C124.207214 107.251251,123.447067 107.566193,122.886597 108.126678C122.326111 108.687149,122.011169 109.447296,122.011169 110.239990C122.011169 111.032684,122.326111 111.792831,122.886597 112.353302C123.447067 112.913788,124.207214 113.228729,124.999908 113.228729C125.792603 113.228729,126.552750 112.913788,127.113220 112.353302C127.673706 111.792831,127.988647 111.032684,127.988647 110.239990Z" style="fill: rgb(100.000000%,100.000000%,100.000000%);stroke: none;"></path>
  <path d="M87.585587 67.305862C87.585587 66.513168,87.270645 65.753021,86.710159 65.192551C86.149689 64.632065,85.389542 64.317123,84.596848 64.317123C83.804153 64.317123,83.044006 64.632065,82.483536 65.192551C81.923050 65.753021,81.608109 66.513168,81.608109 67.305862C81.608109 68.098557,81.923050 68.858704,82.483536 69.419174C83.044006 69.979660,83.804153 70.294601,84.596848 70.294601C85.389542 70.294601,86.149689 69.979660,86.710159 69.419174C87.270645 68.858704,87.585587 68.098557,87.585587 67.305862Z" style="fill: rgb(100.000000%,100.000000%,100.000000%);stroke: none;"></path>
  <path d="M105.542557 89.762909C105.542557 88.970215,105.227615 88.210068,104.667130 87.649597C104.106659 87.089111,103.346512 86.774170,102.553818 86.774170C101.761124 86.774170,101.000977 87.089111,100.440506 87.649597C99.880020 88.210068,99.565079 88.970215,99.565079 89.762909C99.565079 90.555603,99.880020 91.315750,100.440506 91.876221C101.000977 92.436707,101.761124 92.751648,102.553818 92.751648C103.346512 92.751648,104.106659 92.436707,104.667130 91.876221C105.227615 91.315750,105.542557 90.555603,105.542557 89.762909Z" style="fill: rgb(100.000000%,100.000000%,100.000000%);stroke: none;"></path>
  <path d="M38.984131 48.090836C38.984131 47.298141,38.669189 46.537994,38.108704 45.977524C37.548233 45.417038,36.788086 45.102097,35.995392 45.102097C35.202698 45.102097,34.442551 45.417038,33.882080 45.977524C33.321594 46.537994,33.006653 47.298141,33.006653 48.090836C33.006653 48.883530,33.321594 49.643677,33.882080 50.204147C34.442551 50.764633,35.202698 51.079575,35.995392 51.079575C36.788086 51.079575,37.548233 50.764633,38.108704 50.204147C38.669189 49.643677,38.984131 48.883530,38.984131 48.090836Z" style="fill: rgb(100.000000%,100.000000%,100.000000%);stroke: none;"></path>
  <path d="M76.992661 51.053467C76.992661 50.260773,76.677719 49.500626,76.117233 48.940155C75.556763 48.379669,74.796616 48.064728,74.003922 48.064728C73.211227 48.064728,72.451080 48.379669,71.890610 48.940155C71.330124 49.500626,71.015182 50.260773,71.015182 51.053467C71.015182 51.846161,71.330124 52.606308,71.890610 53.166779C72.451080 53.727264,73.211227 54.042206,74.003922 54.042206C74.796616 54.042206,75.556763 53.727264,76.117233 53.166779C76.677719 52.606308,76.992661 51.846161,76.992661 51.053467Z" style="fill: rgb(100.000000%,100.000000%,100.000000%);stroke: none;"></path>
  <path d="M8.283279 105.527649C8.283279 104.734955,7.968338 103.974808,7.407852 103.414337C6.847382 102.853851,6.087234 102.538910,5.294540 102.538910C4.501846 102.538910,3.741699 102.853851,3.181229 103.414337C2.620743 103.974808,2.305801 104.734955,2.305801 105.527649C2.305801 106.320343,2.620743 107.080490,3.181229 107.640961C3.741699 108.201447,4.501846 108.516388,5.294540 108.516388C6.087234 108.516388,6.847382 108.201447,7.407852 107.640961C7.968338 107.080490,8.283279 106.320343,8.283279 105.527649Z" style="fill: rgb(100.000000%,100.000000%,100.000000%);stroke: none;"></path>
  <path d="M24.661636 66.888168C24.661636 66.095474,24.346695 65.335327,23.786209 64.774857C23.225739 64.214371,22.465591 63.899429,21.672897 63.899429C20.880203 63.899429,20.120056 64.214371,19.559586 64.774857C18.999100 65.335327,18.684158 66.095474,18.684158 66.888168C18.684158 67.680862,18.999100 68.441010,19.559586 69.001480C20.120056 69.561966,20.880203 69.876907,21.672897 69.876907C22.465591 69.876907,23.225739 69.561966,23.786209 69.001480C24.346695 68.441010,24.661636 67.680862,24.661636 66.888168Z" style="fill: rgb(100.000000%,100.000000%,100.000000%);stroke: none;"></path>
  <path d="M26.048874 144.849533C26.048874 144.056839,25.733932 143.296692,25.173447 142.736221C24.612976 142.175735,23.852829 141.860794,23.060135 141.860794C22.267441 141.860794,21.507294 142.175735,20.946823 142.736221C20.386337 143.296692,20.071396 144.056839,20.071396 144.849533C20.071396 145.642227,20.386337 146.402374,20.946823 146.962845C21.507294 147.523331,22.267441 147.838272,23.060135 147.838272C23.852829 147.838272,24.612976 147.523331,25.173447 146.962845C25.733932 146.402374,26.048874 145.642227,26.048874 144.849533Z" style="fill: rgb(100.000000%,100.000000%,100.000000%);stroke: none;"></path>
  <path d="M5.044922 127.629196C5.044922 126.836502,4.729980 126.076355,4.169495 125.515884C3.609024 124.955399,2.848877 124.640457,2.056183 124.640457C1.263489 124.640457,0.503342 124.955399,-0.057129 125.515884C-0.617615 126.076355,-0.932556 126.836502,-0.932556 127.629196C-0.932556 128.421890,-0.617615 129.182037,-0.057129 129.742508C0.503342 130.302994,1.263489 130.617935,2.056183 130.617935C2.848877 130.617935,3.609024 130.302994,4.169495 129.742508C4.729980 129.182037,5.044922 128.421890,5.044922 127.629196Z" style="fill: rgb(100.000000%,100.000000%,100.000000%);stroke: none;"></path>
  <path d="M42.518784 138.069061C42.518784 137.276367,42.203842 136.516220,41.643356 135.955750C41.082886 135.395264,40.322739 135.080322,39.530045 135.080322C38.737350 135.080322,37.977203 135.395264,37.416733 135.955750C36.856247 136.516220,36.541306 137.276367,36.541306 138.069061C36.541306 138.861755,36.856247 139.621902,37.416733 140.182373C37.977203 140.742859,38.737350 141.057800,39.530045 141.057800C40.322739 141.057800,41.082886 140.742859,41.643356 140.182373C42.203842 139.621902,42.518784 138.861755,42.518784 138.069061Z" style="fill: rgb(100.000000%,100.000000%,100.000000%);stroke: none;"></path>
  <path d="M34.665192 146.119843C34.665192 145.327148,34.350250 144.567001,33.789764 144.006531C33.229294 143.446045,32.469147 143.131104,31.676453 143.131104C30.883759 143.131104,30.123611 143.446045,29.563141 144.006531C29.002655 144.567001,28.687714 145.327148,28.687714 146.119843C28.687714 146.912537,29.002655 147.672684,29.563141 148.233154C30.123611 148.793640,30.883759 149.108582,31.676453 149.108582C32.469147 149.108582,33.229294 148.793640,33.789764 148.233154C34.350250 147.672684,34.665192 146.912537,34.665192 146.119843Z" style="fill: rgb(100.000000%,100.000000%,100.000000%);stroke: none;"></path>
  <path d="M43.972672 127.224564C43.972672 126.431870,43.657730 125.671722,43.097244 125.111252C42.536774 124.550766,41.776627 124.235825,40.983932 124.235825C40.191238 124.235825,39.431091 124.550766,38.870621 125.111252C38.310135 125.671722,37.995193 126.431870,37.995193 127.224564C37.995193 128.017258,38.310135 128.777405,38.870621 129.337875C39.431091 129.898361,40.191238 130.213303,40.983932 130.213303C41.776627 130.213303,42.536774 129.898361,43.097244 129.337875C43.657730 128.777405,43.972672 128.017258,43.972672 127.224564Z" style="fill: rgb(100.000000%,100.000000%,100.000000%);stroke: none;"></path>
  <path d="M43.326065 134.194244C43.326065 133.401550,43.011124 132.641403,42.450638 132.080933C41.890167 131.520447,41.130020 131.205505,40.337326 131.205505C39.544632 131.205505,38.784485 131.520447,38.224014 132.080933C37.663528 132.641403,37.348587 133.401550,37.348587 134.194244C37.348587 134.986938,37.663528 135.747086,38.224014 136.307556C38.784485 136.868042,39.544632 137.182983,40.337326 137.182983C41.130020 137.182983,41.890167 136.868042,42.450638 136.307556C43.011124 135.747086,43.326065 134.986938,43.326065 134.194244Z" style="fill: rgb(100.000000%,100.000000%,100.000000%);stroke: none;"></path>
  <path d="M50.199173 121.461792C50.199173 120.669098,49.884232 119.908951,49.323746 119.348480C48.763275 118.787994,48.003128 118.473053,47.210434 118.473053C46.417740 118.473053,45.657593 118.787994,45.097122 119.348480C44.536636 119.908951,44.221695 120.669098,44.221695 121.461792C44.221695 122.254486,44.536636 123.014633,45.097122 123.575104C45.657593 124.135590,46.417740 124.450531,47.210434 124.450531C48.003128 124.450531,48.763275 124.135590,49.323746 123.575104C49.884232 123.014633,50.199173 122.254486,50.199173 121.461792Z" style="fill: rgb(100.000000%,100.000000%,100.000000%);stroke: none;"></path>
  <path d="M44.447220 123.692261C44.447220 122.899567,44.132278 122.139420,43.571793 121.578949C43.011322 121.018463,42.251175 120.703522,41.458481 120.703522C40.665787 120.703522,39.905640 121.018463,39.345169 121.578949C38.784683 122.139420,38.469742 122.899567,38.469742 123.692261C38.469742 124.484955,38.784683 125.245102,39.345169 125.805573C39.905640 126.366058,40.665787 126.681000,41.458481 126.681000C42.251175 126.681000,43.011322 126.366058,43.571793 125.805573C44.132278 125.245102,44.447220 124.484955,44.447220 123.692261Z" style="fill: rgb(100.000000%,100.000000%,100.000000%);stroke: none;"></path>
  <path d="M60.676804 131.180634C60.676804 130.387939,60.361862 129.627792,59.801376 129.067322C59.240906 128.506836,58.480759 128.191895,57.688065 128.191895C56.895370 128.191895,56.135223 128.506836,55.574753 129.067322C55.014267 129.627792,54.699326 130.387939,54.699326 131.180634C54.699326 131.973328,55.014267 132.733475,55.574753 133.293945C56.135223 133.854431,56.895370 134.169373,57.688065 134.169373C58.480759 134.169373,59.240906 133.854431,59.801376 133.293945C60.361862 132.733475,60.676804 131.973328,60.676804 131.180634Z" style="fill: rgb(100.000000%,100.000000%,100.000000%);stroke: none;"></path>
  <path d="M52.935165 123.708496C52.935165 122.915802,52.620224 122.155655,52.059738 121.595184C51.499268 121.034698,50.739120 120.719757,49.946426 120.719757C49.153732 120.719757,48.393585 121.034698,47.833115 121.595184C47.272629 122.155655,46.957687 122.915802,46.957687 123.708496C46.957687 124.501190,47.272629 125.261337,47.833115 125.821808C48.393585 126.382294,49.153732 126.697235,49.946426 126.697235C50.739120 126.697235,51.499268 126.382294,52.059738 125.821808C52.620224 125.261337,52.935165 124.501190,52.935165 123.708496Z" style="fill: rgb(100.000000%,100.000000%,100.000000%);stroke: none;"></path>
  <path d="M79.755219 155.161346C79.755219 154.368652,79.440277 153.608505,78.879791 153.048035C78.319321 152.487549,77.559174 152.172607,76.766479 152.172607C75.973785 152.172607,75.213638 152.487549,74.653168 153.048035C74.092682 153.608505,73.777740 154.368652,73.777740 155.161346C73.777740 155.954041,74.092682 156.714188,74.653168 157.274658C75.213638 157.835144,75.973785 158.150085,76.766479 158.150085C77.559174 158.150085,78.319321 157.835144,78.879791 157.274658C79.440277 156.714188,79.755219 155.954041,79.755219 155.161346Z" style="fill: rgb(100.000000%,100.000000%,100.000000%);stroke: none;"></path>
  <path d="M66.696121 135.937881C66.696121 135.145187,66.381180 134.385040,65.820694 133.824570C65.260223 133.264084,64.500076 132.949142,63.707382 132.949142C62.914688 132.949142,62.154541 133.264084,61.594070 133.824570C61.033585 134.385040,60.718643 135.145187,60.718643 135.937881C60.718643 136.730576,61.033585 137.490723,61.594070 138.051193C62.154541 138.611679,62.914688 138.926620,63.707382 138.926620C64.500076 138.926620,65.260223 138.611679,65.820694 138.051193C66.381180 137.490723,66.696121 136.730576,66.696121 135.937881Z" style="fill: rgb(100.000000%,100.000000%,100.000000%);stroke: none;"></path>
  <path d="M106.438782 198.418106C106.438782 197.625412,106.123840 196.865265,105.563354 196.304794C105.002884 195.744308,104.242737 195.429367,103.450043 195.429367C102.657349 195.429367,101.897202 195.744308,101.336731 196.304794C100.776245 196.865265,100.461304 197.625412,100.461304 198.418106C100.461304 199.210800,100.776245 199.970947,101.336731 200.531418C101.897202 201.091904,102.657349 201.406845,103.450043 201.406845C104.242737 201.406845,105.002884 201.091904,105.563354 200.531418C106.123840 199.970947,106.438782 199.210800,106.438782 198.418106Z" style="fill: rgb(100.000000%,100.000000%,100.000000%);stroke: none;"></path>
  <path d="M79.988510 172.880920C79.988510 172.088226,79.673569 171.328079,79.113083 170.767609C78.552612 170.207123,77.792465 169.892181,76.999771 169.892181C76.207077 169.892181,75.446930 170.207123,74.886459 170.767609C74.325974 171.328079,74.011032 172.088226,74.011032 172.880920C74.011032 173.673615,74.325974 174.433762,74.886459 174.994232C75.446930 175.554718,76.207077 175.869659,76.999771 175.869659C77.792465 175.869659,78.552612 175.554718,79.113083 174.994232C79.673569 174.433762,79.988510 173.673615,79.988510 172.880920Z" style="fill: rgb(100.000000%,100.000000%,100.000000%);stroke: none;"></path>
  <path d="M168.817566 168.600815C168.817566 167.808121,168.502625 167.047974,167.942139 166.487503C167.381668 165.927017,166.621521 165.612076,165.828827 165.612076C165.036133 165.612076,164.275986 165.927017,163.715515 166.487503C163.155029 167.047974,162.840088 167.808121,162.840088 168.600815C162.840088 169.393509,163.155029 170.153656,163.715515 170.714127C164.275986 171.274612,165.036133 171.589554,165.828827 171.589554C166.621521 171.589554,167.381668 171.274612,167.942139 170.714127C168.502625 170.153656,168.817566 169.393509,168.817566 168.600815Z" style="fill: rgb(100.000000%,100.000000%,100.000000%);stroke: none;"></path>
  <path d="M130.197510 194.517334C130.197510 193.724640,129.882568 192.964493,129.322083 192.404022C128.761612 191.843536,128.001465 191.528595,127.208771 191.528595C126.416077 191.528595,125.655930 191.843536,125.095459 192.404022C124.534973 192.964493,124.220032 193.724640,124.220032 194.517334C124.220032 195.310028,124.534973 196.070175,125.095459 196.630646C125.655930 197.191132,126.416077 197.506073,127.208771 197.506073C128.001465 197.506073,128.761612 197.191132,129.322083 196.630646C129.882568 196.070175,130.197510 195.310028,130.197510 194.517334Z" style="fill: rgb(100.000000%,100.000000%,100.000000%);stroke: none;"></path>
  <path d="M173.968430 110.105560C173.968430 109.312866,173.653488 108.552719,173.093002 107.992249C172.532532 107.431763,171.772385 107.116821,170.979691 107.116821C170.186996 107.116821,169.426849 107.431763,168.866379 107.992249C168.305893 108.552719,167.990952 109.312866,167.990952 110.105560C167.990952 110.898254,168.305893 111.658401,168.866379 112.218872C169.426849 112.779358,170.186996 113.094299,170.979691 113.094299C171.772385 113.094299,172.532532 112.779358,173.093002 112.218872C173.653488 111.658401,173.968430 110.898254,173.968430 110.105560Z" style="fill: rgb(100.000000%,100.000000%,100.000000%);stroke: none;"></path>
  <path d="M182.658447 145.959778C182.658447 145.167084,182.343506 144.406937,181.783020 143.846466C181.222549 143.285980,180.462402 142.971039,179.669708 142.971039C178.877014 142.971039,178.116867 143.285980,177.556396 143.846466C176.995911 144.406937,176.680969 145.167084,176.680969 145.959778C176.680969 146.752472,176.995911 147.512619,177.556396 148.073090C178.116867 148.633575,178.877014 148.948517,179.669708 148.948517C180.462402 148.948517,181.222549 148.633575,181.783020 148.073090C182.343506 147.512619,182.658447 146.752472,182.658447 145.959778Z" style="fill: rgb(100.000000%,100.000000%,100.000000%);stroke: none;"></path>
  <path d="M154.491898 89.721893C150.909729 84.945465,147.073563 80.364899,143.000000 76.000000C140.371155 73.183167,137.602554 70.023895,138.266434 66.275040C138.755829 63.511490,141.038651 61.602524,143.000000 59.609161C143.805389 58.790634,144.741074 57.931992,145.819977 58.227554C147.017059 58.555496,147.311111 59.963760,147.566391 61.219894C148.081757 63.755936,149.270447 66.224518,148.843979 68.793152C148.316223 71.971954,145.637802 74.129471,143.000000 76.000000C138.568405 79.142563,133.948395 82.091843,130.244263 86.074448C125.200653 91.497223,122.231049 98.396194,118.887848 104.988174C113.930405 114.763046,107.992371 124.115173,104.770844 134.604980C99.582214 151.499954,101.150391 171.302383,88.378006 183.866379C75.089691 196.937881,53.980881 195.755005,38.063187 184.958664C23.090897 174.803558,14.064133 157.564209,16.958496 139.847031C18.458023 130.668045,24.814133 122.724396,32.833481 124.582550C36.098877 125.339172,38.509476 127.865524,40.688492 130.408997C42.469757 132.488190,44.550598 134.662979,47.198166 134.242554C50.675385 133.690399,51.647995 129.612762,52.242355 125.924500C53.615189 117.405380,57.167862 109.367325,58.322845 100.813309C60.624969 83.763306,53.278870 66.621643,56.513260 49.690125C60.984329 26.284836,82.230453 10.837646,106.115570 6.431320C126.228714 2.720840,147.917038 7.650650,157.210663 25.104568C162.361069 34.777328,161.884033 46.642517,154.785995 54.860641C152.683304 57.295151,150.080704 59.217896,147.566391 61.219894C146.778061 61.847595,145.890762 62.487289,144.923950 62.246017C143.799637 61.965439,143.357697 60.737350,143.000000 59.609161C141.700806 55.511353,139.603622 51.646149,139.062042 47.372467C137.652435 36.249008,145.949158 26.291977,157.210663 25.104568C176.099930 23.112900,187.603851 43.065796,191.772629 63.665268C196.516556 87.106827,194.359161 113.252213,174.032074 122.699448C162.670029 127.980072,149.661301 124.930206,138.535416 118.956940C131.432785 115.143692,124.999908 110.239990,118.887848 104.988174C110.422363 97.714172,102.553818 89.762909,95.582855 81.044998C84.596848 67.305862,74.003922 51.053467,56.513260 49.690125C35.995392 48.090836,21.672897 66.888168,13.245285 86.770416C5.294540 105.527649,2.056183 127.629196,16.958496 139.847031C23.060135 144.849533,31.676453 146.119843,36.876450 140.789291C39.530045 138.069061,40.337326 134.194244,40.688492 130.408997C40.983932 127.224564,41.458481 123.692261,44.343521 122.573517C47.210434 121.461792,49.946426 123.708496,52.242355 125.924500C57.688065 131.180634,63.707382 135.937881,67.967102 142.208344C76.766479 155.161346,76.999771 172.880920,88.378006 183.866379C103.450043 198.418106,127.208771 194.517334,145.487030 182.251465C165.828827 168.600815,179.669708 145.959778,174.032074 122.699448C170.979691 110.105560,162.242340 100.056244,154.491898 89.721893" style="stroke:rgb(0.000000%,0.000000%,0.000000%); stroke-width: 0.498138;stroke-linecap: round;stroke-linejoin: round;stroke-miterlimit: 10.000000;fill: none;"></path>
  <path d="M154.491898 89.721893C150.909729 84.945465,147.073563 80.364899,143.000000 76.000000C140.371155 73.183167,137.602554 70.023895,138.266434 66.275040C138.755829 63.511490,141.038651 61.602524,143.000000 59.609161" style="stroke:rgb(0.000000%,0.000000%,0.000000%); stroke-width: 1.494400;stroke-linecap: round;stroke-linejoin: round;stroke-miterlimit: 10.000000;fill: none;"></path>
  <path d="M174.032074 122.699448C170.979691 110.105560,162.242340 100.056244,154.491898 89.721893" style="stroke:rgb(0.000000%,0.000000%,0.000000%); stroke-width: 1.494400;stroke-linecap: round;stroke-linejoin: round;stroke-miterlimit: 10.000000;fill: none;"></path>
  <path d="M145.988739 76.000000C145.988739 75.207306,145.673798 74.447159,145.113312 73.886688C144.552841 73.326202,143.792694 73.011261,143.000000 73.011261C142.207306 73.011261,141.447159 73.326202,140.886688 73.886688C140.326202 74.447159,140.011261 75.207306,140.011261 76.000000C140.011261 76.792694,140.326202 77.552841,140.886688 78.113312C141.447159 78.673798,142.207306 78.988739,143.000000 78.988739C143.792694 78.988739,144.552841 78.673798,145.113312 78.113312C145.673798 77.552841,145.988739 76.792694,145.988739 76.000000Z" style="fill: rgb(100.000000%,100.000000%,100.000000%);stroke: none;"></path>
  <path d="M148.930206 82.706619C147.014206 80.418808,145.036774 78.182449,143.000000 76.000000C141.685577 74.591583,140.336212 73.097549,139.398438 71.487015" style="stroke:rgb(0.000000%,0.000000%,0.000000%); stroke-width: 1.494400;stroke-linecap: round;stroke-linejoin: round;stroke-miterlimit: 10.000000;fill: none;"></path>
  <path d="M150.555130 61.219894C150.555130 60.427200,150.240189 59.667053,149.679703 59.106583C149.119232 58.546097,148.359085 58.231155,147.566391 58.231155C146.773697 58.231155,146.013550 58.546097,145.453079 59.106583C144.892593 59.667053,144.577652 60.427200,144.577652 61.219894C144.577652 62.012589,144.892593 62.772736,145.453079 63.333206C146.013550 63.893692,146.773697 64.208633,147.566391 64.208633C148.359085 64.208633,149.119232 63.893692,149.679703 63.333206C150.240189 62.772736,150.555130 62.012589,150.555130 61.219894Z" style="fill: rgb(100.000000%,100.000000%,100.000000%);stroke: none;"></path>
  <path d="M147.046371 59.375656C147.301422 59.925735,147.438751 60.591827,147.566391 61.219894C147.824081 62.487915,148.250092 63.739075,148.558380 64.994308" style="stroke:rgb(0.000000%,0.000000%,0.000000%); stroke-width: 0.498138;stroke-linecap: round;stroke-linejoin: round;stroke-miterlimit: 10.000000;fill: none;"></path>
  <path d="M121.876587 104.988174C121.876587 104.195480,121.561646 103.435333,121.001160 102.874863C120.440689 102.314377,119.680542 101.999435,118.887848 101.999435C118.095154 101.999435,117.335007 102.314377,116.774536 102.874863C116.214050 103.435333,115.899109 104.195480,115.899109 104.988174C115.899109 105.780869,116.214050 106.541016,116.774536 107.101486C117.335007 107.661972,118.095154 107.976913,118.887848 107.976913C119.680542 107.976913,120.440689 107.661972,121.001160 107.101486C121.561646 106.541016,121.876587 105.780869,121.876587 104.988174Z" style="fill: rgb(100.000000%,100.000000%,100.000000%);stroke: none;"></path>
  <path d="M123.928391 95.092880C122.137650 98.319458,120.559448 101.692184,118.887848 104.988174C116.409119 109.875610,113.685242 114.657364,111.178360 119.528488" style="stroke:rgb(0.000000%,0.000000%,0.000000%); stroke-width: 0.498138;stroke-linecap: round;stroke-linejoin: round;stroke-miterlimit: 10.000000;fill: none;"></path>
  <path d="M19.947235 139.847031C19.947235 139.054337,19.632294 138.294189,19.071808 137.733719C18.511337 137.173233,17.751190 136.858292,16.958496 136.858292C16.165802 136.858292,15.405655 137.173233,14.845184 137.733719C14.284698 138.294189,13.969757 139.054337,13.969757 139.847031C13.969757 140.639725,14.284698 141.399872,14.845184 141.960342C15.405655 142.520828,16.165802 142.835770,16.958496 142.835770C17.751190 142.835770,18.511337 142.520828,19.071808 141.960342C19.632294 141.399872,19.947235 140.639725,19.947235 139.847031Z" style="fill: rgb(100.000000%,100.000000%,100.000000%);stroke: none;"></path>
  <path d="M20.810837 165.238617C17.044418 157.444748,15.511322 148.705612,16.958496 139.847031C17.708267 135.257538,19.672180 130.976868,22.451065 128.075851" style="stroke:rgb(0.000000%,0.000000%,0.000000%); stroke-width: 0.498138;stroke-linecap: round;stroke-linejoin: round;stroke-miterlimit: 10.000000;fill: none;"></path>
  <path d="M55.231094 125.924500C55.231094 125.131805,54.916153 124.371658,54.355667 123.811188C53.795197 123.250702,53.035049 122.935760,52.242355 122.935760C51.449661 122.935760,50.689514 123.250702,50.129044 123.811188C49.568558 124.371658,49.253616 125.131805,49.253616 125.924500C49.253616 126.717194,49.568558 127.477341,50.129044 128.037811C50.689514 128.598297,51.449661 128.913239,52.242355 128.913239C53.035049 128.913239,53.795197 128.598297,54.355667 128.037811C54.916153 127.477341,55.231094 126.717194,55.231094 125.924500Z" style="fill: rgb(100.000000%,100.000000%,100.000000%);stroke: none;"></path>
  <path d="M50.801346 131.259552C51.553436 129.710098,51.945175 127.768631,52.242355 125.924500C52.928772 121.664932,54.160156 117.525635,55.364304 113.381973" style="stroke:rgb(0.000000%,0.000000%,0.000000%); stroke-width: 0.498138;stroke-linecap: round;stroke-linejoin: round;stroke-miterlimit: 10.000000;fill: none;"></path>
  <path d="M160.199402 25.104568C160.199402 24.311874,159.884460 23.551727,159.323975 22.991257C158.763504 22.430771,158.003357 22.115829,157.210663 22.115829C156.417969 22.115829,155.657822 22.430771,155.097351 22.991257C154.536865 23.551727,154.221924 24.311874,154.221924 25.104568C154.221924 25.897263,154.536865 26.657410,155.097351 27.217880C155.657822 27.778366,156.417969 28.093307,157.210663 28.093307C158.003357 28.093307,158.763504 27.778366,159.323975 27.217880C159.884460 26.657410,160.199402 25.897263,160.199402 25.104568Z" style="fill: rgb(100.000000%,100.000000%,100.000000%);stroke: none;"></path>
  <path d="M135.720444 7.831299C144.818375 10.781677,152.563858 16.377609,157.210663 25.104568C159.785873 29.940948,160.954208 35.325439,160.591492 40.528107" style="stroke:rgb(0.000000%,0.000000%,0.000000%); stroke-width: 0.498138;stroke-linecap: round;stroke-linejoin: round;stroke-miterlimit: 10.000000;fill: none;"></path>
  <path d="M145.988739 59.609161C145.988739 58.816467,145.673798 58.056320,145.113312 57.495850C144.552841 56.935364,143.792694 56.620422,143.000000 56.620422C142.207306 56.620422,141.447159 56.935364,140.886688 57.495850C140.326202 58.056320,140.011261 58.816467,140.011261 59.609161C140.011261 60.401855,140.326202 61.162003,140.886688 61.722473C141.447159 62.282959,142.207306 62.597900,143.000000 62.597900C143.792694 62.597900,144.552841 62.282959,145.113312 61.722473C145.673798 61.162003,145.988739 60.401855,145.988739 59.609161Z" style="fill: rgb(100.000000%,100.000000%,100.000000%);stroke: none;"></path>
  <path d="M143.674484 61.245438C143.378754 60.762314,143.178848 60.173248,143.000000 59.609161C142.350403 57.560257,141.501297 55.569504,140.746902 53.556763" style="stroke:rgb(0.000000%,0.000000%,0.000000%); stroke-width: 0.498138;stroke-linecap: round;stroke-linejoin: round;stroke-miterlimit: 10.000000;fill: none;"></path>
  <path d="M177.020813 122.699448C177.020813 121.906754,176.705872 121.146606,176.145386 120.586136C175.584915 120.025650,174.824768 119.710709,174.032074 119.710709C173.239380 119.710709,172.479233 120.025650,171.918762 120.586136C171.358276 121.146606,171.043335 121.906754,171.043335 122.699448C171.043335 123.492142,171.358276 124.252289,171.918762 124.812759C172.479233 125.373245,173.239380 125.688187,174.032074 125.688187C174.824768 125.688187,175.584915 125.373245,176.145386 124.812759C176.705872 124.252289,177.020813 123.492142,177.020813 122.699448Z" style="fill: rgb(100.000000%,100.000000%,100.000000%);stroke: none;"></path>
  <path d="M192.303970 98.430237C189.816727 109.077682,184.195618 117.975830,174.032074 122.699448C168.351044 125.339767,162.258347 125.897461,156.195175 125.048401" style="stroke:rgb(0.000000%,0.000000%,0.000000%); stroke-width: 0.498138;stroke-linecap: round;stroke-linejoin: round;stroke-miterlimit: 10.000000;fill: none;"></path>
  <path d="M59.501999 49.690125C59.501999 48.897430,59.187057 48.137283,58.626572 47.576813C58.066101 47.016327,57.305954 46.701385,56.513260 46.701385C55.720566 46.701385,54.960419 47.016327,54.399948 47.576813C53.839462 48.137283,53.524521 48.897430,53.524521 49.690125C53.524521 50.482819,53.839462 51.242966,54.399948 51.803436C54.960419 52.363922,55.720566 52.678864,56.513260 52.678864C57.305954 52.678864,58.066101 52.363922,58.626572 51.803436C59.187057 51.242966,59.501999 50.482819,59.501999 49.690125Z" style="fill: rgb(100.000000%,100.000000%,100.000000%);stroke: none;"></path>
  <path d="M78.487289 60.726624C72.279480 54.775726,65.258591 50.371796,56.513260 49.690125C46.254318 48.890472,37.544220 53.189987,30.345413 60.174698" style="stroke:rgb(0.000000%,0.000000%,0.000000%); stroke-width: 0.498138;stroke-linecap: round;stroke-linejoin: round;stroke-miterlimit: 10.000000;fill: none;"></path>
  <path d="M43.677231 130.408997C43.677231 129.616302,43.362289 128.856155,42.801804 128.295685C42.241333 127.735199,41.481186 127.420258,40.688492 127.420258C39.895798 127.420258,39.135651 127.735199,38.575180 128.295685C38.014694 128.856155,37.699753 129.616302,37.699753 130.408997C37.699753 131.201691,38.014694 131.961838,38.575180 132.522308C39.135651 133.082794,39.895798 133.397736,40.688492 133.397736C41.481186 133.397736,42.241333 133.082794,42.801804 132.522308C43.362289 131.961838,43.677231 131.201691,43.677231 130.408997Z" style="fill: rgb(100.000000%,100.000000%,100.000000%);stroke: none;"></path>
  <path d="M39.645889 135.998520C40.223297 134.216629,40.512909 132.301620,40.688492 130.408997C40.836212 128.816772,41.028717 127.137589,41.544922 125.716614" style="stroke:rgb(0.000000%,0.000000%,0.000000%); stroke-width: 0.498138;stroke-linecap: round;stroke-linejoin: round;stroke-miterlimit: 10.000000;fill: none;"></path>
  <path d="M91.366745 183.866379C91.366745 183.073685,91.051804 182.313538,90.491318 181.753067C89.930847 181.192581,89.170700 180.877640,88.378006 180.877640C87.585312 180.877640,86.825165 181.192581,86.264694 181.753067C85.704208 182.313538,85.389267 183.073685,85.389267 183.866379C85.389267 184.659073,85.704208 185.419220,86.264694 185.979691C86.825165 186.540176,87.585312 186.855118,88.378006 186.855118C89.170700 186.855118,89.930847 186.540176,90.491318 185.979691C91.051804 185.419220,91.366745 184.659073,91.366745 183.866379Z" style="fill: rgb(100.000000%,100.000000%,100.000000%);stroke: none;"></path>
  <path d="M77.205490 163.775208C79.786011 171.197403,82.688889 178.373657,88.378006 183.866379C95.914032 191.142242,105.621719 193.804977,115.730194 193.115509" style="stroke:rgb(0.000000%,0.000000%,0.000000%); stroke-width: 0.498138;stroke-linecap: round;stroke-linejoin: round;stroke-miterlimit: 10.000000;fill: none;"></path>
  <path d="M138.266434 66.275040C138.657944 64.064194,140.197266 62.400284,141.801559 60.802551" style="stroke:rgb(0.000000%,0.000000%,0.000000%); stroke-width: 0.498138;stroke-linecap: round;stroke-linejoin: round;stroke-miterlimit: 10.000000;fill: none;"></path>
  <path d="M140.484604 65.626038C140.531769 63.988800,141.142181 62.385269,141.801559 60.802551C140.216156 61.455429,138.650635 62.157623,137.459579 63.281982Z" style="stroke:rgb(0.000000%,0.000000%,0.000000%); stroke-width: 0.498138;fill: rgb(0.000000%,0.000000%,0.000000%);"></path>
  <path d="M138.266434 66.275040C138.657944 64.064194,140.197266 62.400284,141.801559 60.802551" style="stroke:rgb(0.000000%,0.000000%,0.000000%); stroke-width: 0.498138;stroke-linecap: round;stroke-linejoin: round;stroke-miterlimit: 10.000000;fill: none;"></path>
  <path d="M140.791458 63.627411C141.040787 62.676788,141.412659 61.736053,141.801559 60.802551C140.866486 61.187622,139.938309 61.589844,139.089798 62.085724Z" style="stroke:rgb(0.000000%,0.000000%,0.000000%); stroke-width: 0.498138;fill: rgb(0.000000%,0.000000%,0.000000%);"></path>
  <path d="M145.819977 58.227554C146.777649 58.489914,147.157379 59.443680,147.401657 60.457825" style="stroke:rgb(0.000000%,0.000000%,0.000000%); stroke-width: 0.498138;stroke-linecap: round;stroke-linejoin: round;stroke-miterlimit: 10.000000;fill: none;"></path>
  <path d="M147.401657 60.457825Z" style="stroke:rgb(0.000000%,0.000000%,0.000000%); stroke-width: 0.498138;fill: rgb(0.000000%,0.000000%,0.000000%);"></path>
  <path d="M130.244263 86.074448C126.209366 90.412689,123.501831 95.695694,120.868484 101.010468" style="stroke:rgb(0.000000%,0.000000%,0.000000%); stroke-width: 0.498138;stroke-linecap: round;stroke-linejoin: round;stroke-miterlimit: 10.000000;fill: none;"></path>
  <path d="M121.084442 98.018280C121.005341 99.014496,120.935760 100.012466,120.868484 101.010468C121.621765 100.352371,122.376648 99.695892,123.137024 99.047424Z" style="stroke:rgb(0.000000%,0.000000%,0.000000%); stroke-width: 0.498138;fill: rgb(0.000000%,0.000000%,0.000000%);"></path>
  <path d="M32.833481 124.582550C35.445801 125.187851,37.511063 126.925781,39.348328 128.899017" style="stroke:rgb(0.000000%,0.000000%,0.000000%); stroke-width: 0.498138;stroke-linecap: round;stroke-linejoin: round;stroke-miterlimit: 10.000000;fill: none;"></path>
  <path d="M36.549042 127.820221C37.497299 128.104065,38.431259 128.480240,39.348328 128.899017C38.995987 127.954422,38.601608 127.028015,38.131805 126.156769Z" style="stroke:rgb(0.000000%,0.000000%,0.000000%); stroke-width: 0.498138;fill: rgb(0.000000%,0.000000%,0.000000%);"></path>
  <path d="M47.198166 134.242554C49.979950 133.800827,51.158768 131.102783,51.823349 128.152832" style="stroke:rgb(0.000000%,0.000000%,0.000000%); stroke-width: 0.498138;stroke-linecap: round;stroke-linejoin: round;stroke-miterlimit: 10.000000;fill: none;"></path>
  <path d="M52.080154 131.141876C52.108871 130.188080,51.999588 129.172562,51.823349 128.152832C51.226883 128.998489,50.586075 129.793854,49.891342 130.447968Z" style="stroke:rgb(0.000000%,0.000000%,0.000000%); stroke-width: 0.498138;fill: rgb(0.000000%,0.000000%,0.000000%);"></path>
  <path d="M154.785995 54.860641C153.103836 56.808258,151.101730 58.428345,149.080841 60.023499" style="stroke:rgb(0.000000%,0.000000%,0.000000%); stroke-width: 0.498138;stroke-linecap: round;stroke-linejoin: round;stroke-miterlimit: 10.000000;fill: none;"></path>
  <path d="M150.510880 57.386215C150.053696 58.274139,149.569305 59.150009,149.080841 60.023499C150.043884 59.751266,151.005753 59.474457,151.956894 59.169907Z" style="stroke:rgb(0.000000%,0.000000%,0.000000%); stroke-width: 0.498138;fill: rgb(0.000000%,0.000000%,0.000000%);"></path>
  <path d="M144.923950 62.246017C144.024490 62.021561,143.561768 61.190689,143.229507 60.289673" style="stroke:rgb(0.000000%,0.000000%,0.000000%); stroke-width: 0.498138;stroke-linecap: round;stroke-linejoin: round;stroke-miterlimit: 10.000000;fill: none;"></path>
  <path d="M143.229507 60.289673Z" style="stroke:rgb(0.000000%,0.000000%,0.000000%); stroke-width: 0.498138;fill: rgb(0.000000%,0.000000%,0.000000%);"></path>
  <path d="M138.535416 118.956940C132.853287 115.906326,127.599808 112.157822,122.596329 108.091507" style="stroke:rgb(0.000000%,0.000000%,0.000000%); stroke-width: 0.498138;stroke-linecap: round;stroke-linejoin: round;stroke-miterlimit: 10.000000;fill: none;"></path>
  <path d="M125.479935 108.919113C124.516052 108.653656,123.554855 108.377274,122.596329 108.091507C123.072037 108.971359,123.556244 109.846466,124.050095 110.715744Z" style="stroke:rgb(0.000000%,0.000000%,0.000000%); stroke-width: 0.498138;fill: rgb(0.000000%,0.000000%,0.000000%);"></path>
  <path d="M95.582855 81.044998C86.794022 70.053650,78.256744 57.453796,66.238113 52.155533" style="stroke:rgb(0.000000%,0.000000%,0.000000%); stroke-width: 0.498138;stroke-linecap: round;stroke-linejoin: round;stroke-miterlimit: 10.000000;fill: none;"></path>
  <path d="M69.230911 52.359344C68.235748 52.247406,67.238159 52.178040,66.238113 52.155533C66.929321 52.878601,67.585663 53.633057,68.210190 54.415894Z" style="stroke:rgb(0.000000%,0.000000%,0.000000%); stroke-width: 0.498138;fill: rgb(0.000000%,0.000000%,0.000000%);"></path>
  <path d="M44.343521 122.573517C46.637054 121.684128,48.846802 122.944153,50.814484 124.618347" style="stroke:rgb(0.000000%,0.000000%,0.000000%); stroke-width: 0.498138;stroke-linecap: round;stroke-linejoin: round;stroke-miterlimit: 10.000000;fill: none;"></path>
  <path d="M47.880447 123.992432C48.834183 124.058685,49.829559 124.300385,50.814484 124.618347C50.342896 123.697052,49.809982 122.822296,49.182449 122.101044Z" style="stroke:rgb(0.000000%,0.000000%,0.000000%); stroke-width: 0.498138;fill: rgb(0.000000%,0.000000%,0.000000%);"></path>
  <path d="M67.967102 142.208344C75.006638 152.570786,76.563828 165.983856,82.730835 176.559143" style="stroke:rgb(0.000000%,0.000000%,0.000000%); stroke-width: 0.498138;stroke-linecap: round;stroke-linejoin: round;stroke-miterlimit: 10.000000;fill: none;"></path>
  <path d="M80.405640 174.663223C81.162140 175.321030,81.935944 175.954681,82.730835 176.559143C82.596191 175.569641,82.497131 174.574417,82.427338 173.574356Z" style="stroke:rgb(0.000000%,0.000000%,0.000000%); stroke-width: 0.498138;fill: rgb(0.000000%,0.000000%,0.000000%);"></path>
  <path d="M151.501251 92.432098L157.482544 92.432098L157.482544 85.011703L151.501251 85.011703Z" style="fill: rgb(100.000000%,100.000000%,100.000000%);stroke: none;"></path>
  <path d="M151.501251 94.432098L157.482544 94.432098L157.482544 87.011703L151.501251 87.011703Z" style="fill: rgb(100.000000%,100.000000%,100.000000%);stroke: none;"></path>
  <g transform="translate(152.001251 92.932098)" style="fill: rgb(0.000000%,0.000000%,0.000000%);">
    <use xlink:href="#GLYPHcmr10_49"></use>
  </g>
  <path d="M145.853333 71.503357L151.834625 71.503357L151.834625 64.082962L145.853333 64.082962Z" style="fill: rgb(100.000000%,100.000000%,100.000000%);stroke: none;"></path>
  <path d="M145.853333 73.503357L151.834625 73.503357L151.834625 66.082962L145.853333 66.082962Z" style="fill: rgb(100.000000%,100.000000%,100.000000%);stroke: none;"></path>
  <g transform="translate(146.353333 72.003357)" style="fill: rgb(0.000000%,0.000000%,0.000000%);">
    <use xlink:href="#GLYPHcmr10_50"></use>
  </g>
  <path d="M101.780197 137.315186L107.761490 137.315186L107.761490 129.894791L101.780197 129.894791Z" style="fill: rgb(100.000000%,100.000000%,100.000000%);stroke: none;"></path>
  <path d="M101.780197 139.315186L107.761490 139.315186L107.761490 131.894791L101.780197 131.894791Z" style="fill: rgb(100.000000%,100.000000%,100.000000%);stroke: none;"></path>
  <g transform="translate(102.280197 137.815186)" style="fill: rgb(0.000000%,0.000000%,0.000000%);">
    <use xlink:href="#GLYPHcmr10_51"></use>
  </g>
  <path d="M35.072540 187.668869L41.053833 187.668869L41.053833 180.248474L35.072540 180.248474Z" style="fill: rgb(100.000000%,100.000000%,100.000000%);stroke: none;"></path>
  <path d="M35.072540 189.668869L41.053833 189.668869L41.053833 182.248474L35.072540 182.248474Z" style="fill: rgb(100.000000%,100.000000%,100.000000%);stroke: none;"></path>
  <g transform="translate(35.572540 188.168869)" style="fill: rgb(0.000000%,0.000000%,0.000000%);">
    <use xlink:href="#GLYPHcmr10_52"></use>
  </g>
  <path d="M55.332199 103.523514L61.313492 103.523514L61.313492 96.103119L55.332199 96.103119Z" style="fill: rgb(100.000000%,100.000000%,100.000000%);stroke: none;"></path>
  <path d="M55.332199 105.523514L61.313492 105.523514L61.313492 98.103119L55.332199 98.103119Z" style="fill: rgb(100.000000%,100.000000%,100.000000%);stroke: none;"></path>
  <g transform="translate(55.832199 104.023514)" style="fill: rgb(0.000000%,0.000000%,0.000000%);">
    <use xlink:href="#GLYPHcmr10_53"></use>
  </g>
  <path d="M103.124924 9.141525L109.106216 9.141525L109.106216 1.721130L103.124924 1.721130Z" style="fill: rgb(100.000000%,100.000000%,100.000000%);stroke: none;"></path>
  <path d="M103.124924 11.141525L109.106216 11.141525L109.106216 3.721130L103.124924 3.721130Z" style="fill: rgb(100.000000%,100.000000%,100.000000%);stroke: none;"></path>
  <g transform="translate(103.624924 9.641525)" style="fill: rgb(0.000000%,0.000000%,0.000000%);">
    <use xlink:href="#GLYPHcmr10_54"></use>
  </g>
  <path d="M136.071396 50.082672L142.052689 50.082672L142.052689 42.662277L136.071396 42.662277Z" style="fill: rgb(100.000000%,100.000000%,100.000000%);stroke: none;"></path>
  <path d="M136.071396 52.082672L142.052689 52.082672L142.052689 44.662277L136.071396 44.662277Z" style="fill: rgb(100.000000%,100.000000%,100.000000%);stroke: none;"></path>
  <g transform="translate(136.571396 50.582672)" style="fill: rgb(0.000000%,0.000000%,0.000000%);">
    <use xlink:href="#GLYPHcmr10_55"></use>
  </g>
  <path d="M188.781982 66.375473L194.763275 66.375473L194.763275 58.955078L188.781982 58.955078Z" style="fill: rgb(100.000000%,100.000000%,100.000000%);stroke: none;"></path>
  <path d="M188.781982 68.375473L194.763275 68.375473L194.763275 60.955078L188.781982 60.955078Z" style="fill: rgb(100.000000%,100.000000%,100.000000%);stroke: none;"></path>
  <g transform="translate(189.281982 66.875473)" style="fill: rgb(0.000000%,0.000000%,0.000000%);">
    <use xlink:href="#GLYPHcmr10_56"></use>
  </g>
  <path d="M10.254639 89.480621L16.235931 89.480621L16.235931 82.060226L10.254639 82.060226Z" style="fill: rgb(100.000000%,100.000000%,100.000000%);stroke: none;"></path>
  <path d="M10.254639 91.480621L16.235931 91.480621L16.235931 84.060226L10.254639 84.060226Z" style="fill: rgb(100.000000%,100.000000%,100.000000%);stroke: none;"></path>
  <g transform="translate(10.754639 89.980621)" style="fill: rgb(0.000000%,0.000000%,0.000000%);">
    <use xlink:href="#GLYPHcmr10_57"></use>
  </g>
  <path d="M31.395096 143.499496L42.357803 143.499496L42.357803 136.079102L31.395096 136.079102Z" style="fill: rgb(100.000000%,100.000000%,100.000000%);stroke: none;"></path>
  <path d="M31.395096 145.499496L42.357803 145.499496L42.357803 138.079102L31.395096 138.079102Z" style="fill: rgb(100.000000%,100.000000%,100.000000%);stroke: none;"></path>
  <g transform="translate(31.895096 143.999496)" style="fill: rgb(0.000000%,0.000000%,0.000000%);">
    <use xlink:href="#GLYPHcmr10_49"></use>
    <use xlink:href="#GLYPHcmr10_48" x="5.000095"></use>
  </g>
  <path d="M140.005676 184.961670L150.968384 184.961670L150.968384 177.541275L140.005676 177.541275Z" style="fill: rgb(100.000000%,100.000000%,100.000000%);stroke: none;"></path>
  <path d="M140.005676 186.961670L150.968384 186.961670L150.968384 179.541275L140.005676 179.541275Z" style="fill: rgb(100.000000%,100.000000%,100.000000%);stroke: none;"></path>
  <g transform="translate(140.505676 185.461670)" style="fill: rgb(0.000000%,0.000000%,0.000000%);">
    <use xlink:href="#GLYPHcmr10_49"></use>
    <use xlink:href="#GLYPHcmr10_49" x="5.000095"></use>
  </g>
</svg>
