<?xml version="1.0"?>
<!-- Created by MetaPost 1.999 on 2021.07.06:0010 -->
<svg version="1.1" xmlns="http://www.w3.org/2000/svg" xmlns:xlink="http://www.w3.org/1999/xlink" width="188.632706" height="187.947739" viewBox="0 0 188.632706 187.947739">
<!-- Original BoundingBox: -143.224701 -129.593674 45.408005 58.354065 -->
  <defs>
    <g transform="scale(0.009963,0.009963)" id="GLYPHcmr10_48">
      <path style="fill-rule: evenodd;" d="M460.000000 -320.000000C460.000000 -400.000000,455.000000 -480.000000,420.000000 -554.000000C374.000000 -650.000000,292.000000 -666.000000,250.000000 -666.000000C190.000000 -666.000000,117.000000 -640.000000,76.000000 -547.000000C44.000000 -478.000000,39.000000 -400.000000,39.000000 -320.000000C39.000000 -245.000000,43.000000 -155.000000,84.000000 -79.000000C127.000000 2.000000,200.000000 22.000000,249.000000 22.000000C303.000000 22.000000,379.000000 1.000000,423.000000 -94.000000C455.000000 -163.000000,460.000000 -241.000000,460.000000 -320.000000M249.000000 -0.000000C210.000000 -0.000000,151.000000 -25.000000,133.000000 -121.000000C122.000000 -181.000000,122.000000 -273.000000,122.000000 -332.000000C122.000000 -396.000000,122.000000 -462.000000,130.000000 -516.000000C149.000000 -635.000000,224.000000 -644.000000,249.000000 -644.000000C282.000000 -644.000000,348.000000 -626.000000,367.000000 -527.000000C377.000000 -471.000000,377.000000 -395.000000,377.000000 -332.000000C377.000000 -257.000000,377.000000 -189.000000,366.000000 -125.000000C351.000000 -30.000000,294.000000 -0.000000,249.000000 -0.000000"></path>
    </g>
    <g transform="scale(0.009963,0.009963)" id="GLYPHcmr10_49">
      <path style="fill-rule: evenodd;" d="M294.000000 -640.000000C294.000000 -664.000000,294.000000 -666.000000,271.000000 -666.000000C209.000000 -602.000000,121.000000 -602.000000,89.000000 -602.000000L89.000000 -571.000000C109.000000 -571.000000,168.000000 -571.000000,220.000000 -597.000000L220.000000 -79.000000C220.000000 -43.000000,217.000000 -31.000000,127.000000 -31.000000L95.000000 -31.000000L95.000000 -0.000000L257.000000 -0.000000L130.000000 -3.000000L217.000000 -3.000000L257.000000 -3.000000L297.000000 -3.000000L384.000000 -3.000000L419.000000 -0.000000L419.000000 -31.000000L387.000000 -31.000000C297.000000 -31.000000,294.000000 -42.000000,294.000000 -79.000000"></path>
    </g>
    <g transform="scale(0.009963,0.009963)" id="GLYPHcmr10_50">
      <path style="fill-rule: evenodd;" d="M127.000000 -77.000000L233.000000 -180.000000C389.000000 -318.000000,449.000000 -372.000000,449.000000 -472.000000C449.000000 -586.000000,359.000000 -666.000000,237.000000 -666.000000C124.000000 -666.000000,50.000000 -574.000000,50.000000 -485.000000C50.000000 -429.000000,100.000000 -429.000000,103.000000 -429.000000C120.000000 -429.000000,155.000000 -441.000000,155.000000 -482.000000C155.000000 -508.000000,137.000000 -534.000000,102.000000 -534.000000C94.000000 -534.000000,92.000000 -534.000000,89.000000 -533.000000C112.000000 -598.000000,166.000000 -635.000000,224.000000 -635.000000C315.000000 -635.000000,358.000000 -554.000000,358.000000 -472.000000C358.000000 -392.000000,308.000000 -313.000000,253.000000 -251.000000L61.000000 -37.000000C50.000000 -26.000000,50.000000 -24.000000,50.000000 -0.000000L421.000000 -0.000000L449.000000 -174.000000L424.000000 -174.000000C419.000000 -144.000000,412.000000 -100.000000,402.000000 -85.000000C395.000000 -77.000000,329.000000 -77.000000,307.000000 -77.000000"></path>
    </g>
    <g transform="scale(0.009963,0.009963)" id="GLYPHcmr10_51">
      <path style="fill-rule: evenodd;" d="M290.000000 -352.000000C372.000000 -379.000000,430.000000 -449.000000,430.000000 -528.000000C430.000000 -610.000000,342.000000 -666.000000,246.000000 -666.000000C145.000000 -666.000000,69.000000 -606.000000,69.000000 -530.000000C69.000000 -497.000000,91.000000 -478.000000,120.000000 -478.000000C151.000000 -478.000000,171.000000 -500.000000,171.000000 -529.000000C171.000000 -579.000000,124.000000 -579.000000,109.000000 -579.000000C140.000000 -628.000000,206.000000 -641.000000,242.000000 -641.000000C283.000000 -641.000000,338.000000 -619.000000,338.000000 -529.000000C338.000000 -517.000000,336.000000 -459.000000,310.000000 -415.000000C280.000000 -367.000000,246.000000 -364.000000,221.000000 -363.000000C213.000000 -362.000000,189.000000 -360.000000,182.000000 -360.000000C174.000000 -359.000000,167.000000 -358.000000,167.000000 -348.000000C167.000000 -337.000000,174.000000 -337.000000,191.000000 -337.000000L235.000000 -337.000000C317.000000 -337.000000,354.000000 -269.000000,354.000000 -171.000000C354.000000 -35.000000,285.000000 -6.000000,241.000000 -6.000000C198.000000 -6.000000,123.000000 -23.000000,88.000000 -82.000000C123.000000 -77.000000,154.000000 -99.000000,154.000000 -137.000000C154.000000 -173.000000,127.000000 -193.000000,98.000000 -193.000000C74.000000 -193.000000,42.000000 -179.000000,42.000000 -135.000000C42.000000 -44.000000,135.000000 22.000000,244.000000 22.000000C366.000000 22.000000,457.000000 -69.000000,457.000000 -171.000000C457.000000 -253.000000,394.000000 -331.000000,290.000000 -352.000000"></path>
    </g>
    <g transform="scale(0.009963,0.009963)" id="GLYPHcmr10_52">
      <path style="fill-rule: evenodd;" d="M294.000000 -165.000000L294.000000 -78.000000C294.000000 -42.000000,292.000000 -31.000000,218.000000 -31.000000L197.000000 -31.000000L197.000000 -0.000000L332.000000 -0.000000L238.000000 -3.000000L290.000000 -3.000000L332.000000 -3.000000L374.000000 -3.000000L427.000000 -3.000000L468.000000 -0.000000L468.000000 -31.000000L447.000000 -31.000000C373.000000 -31.000000,371.000000 -42.000000,371.000000 -78.000000L371.000000 -165.000000L471.000000 -165.000000L471.000000 -196.000000L371.000000 -196.000000L371.000000 -651.000000C371.000000 -671.000000,371.000000 -677.000000,355.000000 -677.000000C346.000000 -677.000000,343.000000 -677.000000,335.000000 -665.000000L28.000000 -196.000000L28.000000 -165.000000M300.000000 -196.000000L56.000000 -196.000000L300.000000 -569.000000"></path>
    </g>
    <g transform="scale(0.009963,0.009963)" id="GLYPHcmr10_53">
      <path style="fill-rule: evenodd;" d="M449.000000 -201.000000C449.000000 -320.000000,367.000000 -420.000000,259.000000 -420.000000C211.000000 -420.000000,168.000000 -404.000000,132.000000 -369.000000L132.000000 -564.000000C152.000000 -558.000000,185.000000 -551.000000,217.000000 -551.000000C340.000000 -551.000000,410.000000 -642.000000,410.000000 -655.000000C410.000000 -661.000000,407.000000 -666.000000,400.000000 -666.000000C399.000000 -666.000000,397.000000 -666.000000,392.000000 -663.000000C372.000000 -654.000000,323.000000 -634.000000,256.000000 -634.000000C216.000000 -634.000000,170.000000 -641.000000,123.000000 -662.000000C115.000000 -665.000000,113.000000 -665.000000,111.000000 -665.000000C101.000000 -665.000000,101.000000 -657.000000,101.000000 -641.000000L101.000000 -345.000000C101.000000 -327.000000,101.000000 -319.000000,115.000000 -319.000000C122.000000 -319.000000,124.000000 -322.000000,128.000000 -328.000000C139.000000 -344.000000,176.000000 -398.000000,257.000000 -398.000000C309.000000 -398.000000,334.000000 -352.000000,342.000000 -334.000000C358.000000 -297.000000,360.000000 -258.000000,360.000000 -208.000000C360.000000 -173.000000,360.000000 -113.000000,336.000000 -71.000000C312.000000 -32.000000,275.000000 -6.000000,229.000000 -6.000000C156.000000 -6.000000,99.000000 -59.000000,82.000000 -118.000000C85.000000 -117.000000,88.000000 -116.000000,99.000000 -116.000000C132.000000 -116.000000,149.000000 -141.000000,149.000000 -165.000000C149.000000 -189.000000,132.000000 -214.000000,99.000000 -214.000000C85.000000 -214.000000,50.000000 -207.000000,50.000000 -161.000000C50.000000 -75.000000,119.000000 22.000000,231.000000 22.000000C347.000000 22.000000,449.000000 -74.000000,449.000000 -201.000000"></path>
    </g>
    <g transform="scale(0.009963,0.009963)" id="GLYPHcmr10_54">
      <path style="fill-rule: evenodd;" d="M132.000000 -328.000000L132.000000 -352.000000C132.000000 -605.000000,256.000000 -641.000000,307.000000 -641.000000C331.000000 -641.000000,373.000000 -635.000000,395.000000 -601.000000C380.000000 -601.000000,340.000000 -601.000000,340.000000 -556.000000C340.000000 -525.000000,364.000000 -510.000000,386.000000 -510.000000C402.000000 -510.000000,432.000000 -519.000000,432.000000 -558.000000C432.000000 -618.000000,388.000000 -666.000000,305.000000 -666.000000C177.000000 -666.000000,42.000000 -537.000000,42.000000 -316.000000C42.000000 -49.000000,158.000000 22.000000,251.000000 22.000000C362.000000 22.000000,457.000000 -72.000000,457.000000 -204.000000C457.000000 -331.000000,368.000000 -427.000000,257.000000 -427.000000C189.000000 -427.000000,152.000000 -376.000000,132.000000 -328.000000M251.000000 -6.000000C188.000000 -6.000000,158.000000 -66.000000,152.000000 -81.000000C134.000000 -128.000000,134.000000 -208.000000,134.000000 -226.000000C134.000000 -304.000000,166.000000 -404.000000,256.000000 -404.000000C272.000000 -404.000000,318.000000 -404.000000,349.000000 -342.000000C367.000000 -305.000000,367.000000 -254.000000,367.000000 -205.000000C367.000000 -157.000000,367.000000 -107.000000,350.000000 -71.000000C320.000000 -11.000000,274.000000 -6.000000,251.000000 -6.000000"></path>
    </g>
    <g transform="scale(0.009963,0.009963)" id="GLYPHcmr10_55">
      <path style="fill-rule: evenodd;" d="M476.000000 -609.000000C485.000000 -621.000000,485.000000 -623.000000,485.000000 -644.000000L242.000000 -644.000000C120.000000 -644.000000,118.000000 -657.000000,114.000000 -676.000000L89.000000 -676.000000L56.000000 -470.000000L81.000000 -470.000000C84.000000 -486.000000,93.000000 -549.000000,106.000000 -561.000000C113.000000 -567.000000,191.000000 -567.000000,204.000000 -567.000000L411.000000 -567.000000C400.000000 -551.000000,321.000000 -442.000000,299.000000 -409.000000C209.000000 -274.000000,176.000000 -135.000000,176.000000 -33.000000C176.000000 -23.000000,176.000000 22.000000,222.000000 22.000000C268.000000 22.000000,268.000000 -23.000000,268.000000 -33.000000L268.000000 -84.000000C268.000000 -139.000000,271.000000 -194.000000,279.000000 -248.000000C283.000000 -271.000000,297.000000 -357.000000,341.000000 -419.000000"></path>
    </g>
    <g transform="scale(0.009963,0.009963)" id="GLYPHcmr10_56">
      <path style="fill-rule: evenodd;" d="M163.000000 -457.000000C117.000000 -487.000000,113.000000 -521.000000,113.000000 -538.000000C113.000000 -599.000000,178.000000 -641.000000,249.000000 -641.000000C322.000000 -641.000000,386.000000 -589.000000,386.000000 -517.000000C386.000000 -460.000000,347.000000 -412.000000,287.000000 -377.000000M309.000000 -362.000000C381.000000 -399.000000,430.000000 -451.000000,430.000000 -517.000000C430.000000 -609.000000,341.000000 -666.000000,250.000000 -666.000000C150.000000 -666.000000,69.000000 -592.000000,69.000000 -499.000000C69.000000 -481.000000,71.000000 -436.000000,113.000000 -389.000000C124.000000 -377.000000,161.000000 -352.000000,186.000000 -335.000000C128.000000 -306.000000,42.000000 -250.000000,42.000000 -151.000000C42.000000 -45.000000,144.000000 22.000000,249.000000 22.000000C362.000000 22.000000,457.000000 -61.000000,457.000000 -168.000000C457.000000 -204.000000,446.000000 -249.000000,408.000000 -291.000000C389.000000 -312.000000,373.000000 -322.000000,309.000000 -362.000000M209.000000 -320.000000L332.000000 -242.000000C360.000000 -223.000000,407.000000 -193.000000,407.000000 -132.000000C407.000000 -58.000000,332.000000 -6.000000,250.000000 -6.000000C164.000000 -6.000000,92.000000 -68.000000,92.000000 -151.000000C92.000000 -209.000000,124.000000 -273.000000,209.000000 -320.000000"></path>
    </g>
    <g transform="scale(0.009963,0.009963)" id="GLYPHcmr10_57">
      <path style="fill-rule: evenodd;" d="M367.000000 -318.000000L367.000000 -286.000000C367.000000 -52.000000,263.000000 -6.000000,205.000000 -6.000000C188.000000 -6.000000,134.000000 -8.000000,107.000000 -42.000000C151.000000 -42.000000,159.000000 -71.000000,159.000000 -88.000000C159.000000 -119.000000,135.000000 -134.000000,113.000000 -134.000000C97.000000 -134.000000,67.000000 -125.000000,67.000000 -86.000000C67.000000 -19.000000,121.000000 22.000000,206.000000 22.000000C335.000000 22.000000,457.000000 -114.000000,457.000000 -329.000000C457.000000 -598.000000,342.000000 -666.000000,253.000000 -666.000000C198.000000 -666.000000,149.000000 -648.000000,106.000000 -603.000000C65.000000 -558.000000,42.000000 -516.000000,42.000000 -441.000000C42.000000 -316.000000,130.000000 -218.000000,242.000000 -218.000000C303.000000 -218.000000,344.000000 -260.000000,367.000000 -318.000000M243.000000 -241.000000C227.000000 -241.000000,181.000000 -241.000000,150.000000 -304.000000C132.000000 -341.000000,132.000000 -391.000000,132.000000 -440.000000C132.000000 -494.000000,132.000000 -541.000000,153.000000 -578.000000C180.000000 -628.000000,218.000000 -641.000000,253.000000 -641.000000C299.000000 -641.000000,332.000000 -607.000000,349.000000 -562.000000C361.000000 -530.000000,365.000000 -467.000000,365.000000 -421.000000C365.000000 -338.000000,331.000000 -241.000000,243.000000 -241.000000"></path>
    </g>
  </defs>
  <path d="M152.827011 64.552658C152.827011 63.759964,152.512070 62.999817,151.951584 62.439346C151.391113 61.878860,150.630966 61.563919,149.838272 61.563919C149.045578 61.563919,148.285431 61.878860,147.724960 62.439346C147.164474 62.999817,146.849533 63.759964,146.849533 64.552658C146.849533 65.345352,147.164474 66.105499,147.724960 66.665970C148.285431 67.226456,149.045578 67.541397,149.838272 67.541397C150.630966 67.541397,151.391113 67.226456,151.951584 66.665970C152.512070 66.105499,152.827011 65.345352,152.827011 64.552658Z" style="fill: rgb(100.000000%,100.000000%,100.000000%);stroke: none;"></path>
  <path d="M155.960968 68.102737C155.960968 67.310043,155.646027 66.549896,155.085541 65.989426C154.525070 65.428940,153.764923 65.113998,152.972229 65.113998C152.179535 65.113998,151.419388 65.428940,150.858917 65.989426C150.298431 66.549896,149.983490 67.310043,149.983490 68.102737C149.983490 68.895432,150.298431 69.655579,150.858917 70.216049C151.419388 70.776535,152.179535 71.091476,152.972229 71.091476C153.764923 71.091476,154.525070 70.776535,155.085541 70.216049C155.646027 69.655579,155.960968 68.895432,155.960968 68.102737Z" style="fill: rgb(100.000000%,100.000000%,100.000000%);stroke: none;"></path>
  <path d="M143.688492 55.915527C143.688492 55.122833,143.373550 54.362686,142.813065 53.802216C142.252594 53.241730,141.492447 52.926788,140.699753 52.926788C139.907059 52.926788,139.146912 53.241730,138.586441 53.802216C138.025955 54.362686,137.711014 55.122833,137.711014 55.915527C137.711014 56.708221,138.025955 57.468369,138.586441 58.028839C139.146912 58.589325,139.907059 58.904266,140.699753 58.904266C141.492447 58.904266,142.252594 58.589325,142.813065 58.028839C143.373550 57.468369,143.688492 56.708221,143.688492 55.915527Z" style="fill: rgb(100.000000%,100.000000%,100.000000%);stroke: none;"></path>
  <path d="M149.497772 61.179855C149.497772 60.387161,149.182831 59.627014,148.622345 59.066544C148.061874 58.506058,147.301727 58.191116,146.509033 58.191116C145.716339 58.191116,144.956192 58.506058,144.395721 59.066544C143.835236 59.627014,143.520294 60.387161,143.520294 61.179855C143.520294 61.972549,143.835236 62.732697,144.395721 63.293167C144.956192 63.853653,145.716339 64.168594,146.509033 64.168594C147.301727 64.168594,148.061874 63.853653,148.622345 63.293167C149.182831 62.732697,149.497772 61.972549,149.497772 61.179855Z" style="fill: rgb(100.000000%,100.000000%,100.000000%);stroke: none;"></path>
  <path d="M142.293808 48.293350C142.293808 47.500656,141.978867 46.740509,141.418381 46.180038C140.857910 45.619553,140.097763 45.304611,139.305069 45.304611C138.512375 45.304611,137.752228 45.619553,137.191757 46.180038C136.631271 46.740509,136.316330 47.500656,136.316330 48.293350C136.316330 49.086044,136.631271 49.846191,137.191757 50.406662C137.752228 50.967148,138.512375 51.282089,139.305069 51.282089C140.097763 51.282089,140.857910 50.967148,141.418381 50.406662C141.978867 49.846191,142.293808 49.086044,142.293808 48.293350Z" style="fill: rgb(100.000000%,100.000000%,100.000000%);stroke: none;"></path>
  <path d="M141.282150 53.489761C141.282150 52.697067,140.967209 51.936920,140.406723 51.376450C139.846252 50.815964,139.086105 50.501022,138.293411 50.501022C137.500717 50.501022,136.740570 50.815964,136.180099 51.376450C135.619614 51.936920,135.304672 52.697067,135.304672 53.489761C135.304672 54.282455,135.619614 55.042603,136.180099 55.603073C136.740570 56.163559,137.500717 56.478500,138.293411 56.478500C139.086105 56.478500,139.846252 56.163559,140.406723 55.603073C140.967209 55.042603,141.282150 54.282455,141.282150 53.489761Z" style="fill: rgb(100.000000%,100.000000%,100.000000%);stroke: none;"></path>
  <path d="M146.692108 44.827682C146.692108 44.034988,146.377167 43.274841,145.816681 42.714371C145.256210 42.153885,144.496063 41.838943,143.703369 41.838943C142.910675 41.838943,142.150528 42.153885,141.590057 42.714371C141.029572 43.274841,140.714630 44.034988,140.714630 44.827682C140.714630 45.620377,141.029572 46.380524,141.590057 46.940994C142.150528 47.501480,142.910675 47.816422,143.703369 47.816422C144.496063 47.816422,145.256210 47.501480,145.816681 46.940994C146.377167 46.380524,146.692108 45.620377,146.692108 44.827682Z" style="fill: rgb(100.000000%,100.000000%,100.000000%);stroke: none;"></path>
  <path d="M144.291367 46.916763C144.291367 46.124069,143.976425 45.363922,143.415939 44.803452C142.855469 44.242966,142.095322 43.928024,141.302628 43.928024C140.509933 43.928024,139.749786 44.242966,139.189316 44.803452C138.628830 45.363922,138.313889 46.124069,138.313889 46.916763C138.313889 47.709457,138.628830 48.469604,139.189316 49.030075C139.749786 49.590561,140.509933 49.905502,141.302628 49.905502C142.095322 49.905502,142.855469 49.590561,143.415939 49.030075C143.976425 48.469604,144.291367 47.709457,144.291367 46.916763Z" style="fill: rgb(100.000000%,100.000000%,100.000000%);stroke: none;"></path>
  <path d="M149.273651 44.715836C149.273651 43.923141,148.958710 43.162994,148.398224 42.602524C147.837753 42.042038,147.077606 41.727097,146.284912 41.727097C145.492218 41.727097,144.732071 42.042038,144.171600 42.602524C143.611115 43.162994,143.296173 43.923141,143.296173 44.715836C143.296173 45.508530,143.611115 46.268677,144.171600 46.829147C144.732071 47.389633,145.492218 47.704575,146.284912 47.704575C147.077606 47.704575,147.837753 47.389633,148.398224 46.829147C148.958710 46.268677,149.273651 45.508530,149.273651 44.715836Z" style="fill: rgb(100.000000%,100.000000%,100.000000%);stroke: none;"></path>
  <path d="M147.487442 44.174789C147.487442 43.382095,147.172501 42.621948,146.612015 42.061478C146.051544 41.500992,145.291397 41.186050,144.498703 41.186050C143.706009 41.186050,142.945862 41.500992,142.385391 42.061478C141.824905 42.621948,141.509964 43.382095,141.509964 44.174789C141.509964 44.967484,141.824905 45.727631,142.385391 46.288101C142.945862 46.848587,143.706009 47.163528,144.498703 47.163528C145.291397 47.163528,146.051544 46.848587,146.612015 46.288101C147.172501 45.727631,147.487442 44.967484,147.487442 44.174789Z" style="fill: rgb(100.000000%,100.000000%,100.000000%);stroke: none;"></path>
  <path d="M150.303314 48.599167C150.303314 47.806473,149.988373 47.046326,149.427887 46.485855C148.867416 45.925369,148.107269 45.610428,147.314575 45.610428C146.521881 45.610428,145.761734 45.925369,145.201263 46.485855C144.640778 47.046326,144.325836 47.806473,144.325836 48.599167C144.325836 49.391861,144.640778 50.152008,145.201263 50.712479C145.761734 51.272964,146.521881 51.587906,147.314575 51.587906C148.107269 51.587906,148.867416 51.272964,149.427887 50.712479C149.988373 50.152008,150.303314 49.391861,150.303314 48.599167Z" style="fill: rgb(100.000000%,100.000000%,100.000000%);stroke: none;"></path>
  <path d="M149.551895 45.760239C149.551895 44.967545,149.236954 44.207397,148.676468 43.646927C148.115997 43.086441,147.355850 42.771500,146.563156 42.771500C145.770462 42.771500,145.010315 43.086441,144.449844 43.646927C143.889359 44.207397,143.574417 44.967545,143.574417 45.760239C143.574417 46.552933,143.889359 47.313080,144.449844 47.873550C145.010315 48.434036,145.770462 48.748978,146.563156 48.748978C147.355850 48.748978,148.115997 48.434036,148.676468 47.873550C149.236954 47.313080,149.551895 46.552933,149.551895 45.760239Z" style="fill: rgb(100.000000%,100.000000%,100.000000%);stroke: none;"></path>
  <path d="M150.417953 54.960052C150.417953 54.167358,150.103012 53.407211,149.542526 52.846741C148.982056 52.286255,148.221909 51.971313,147.429214 51.971313C146.636520 51.971313,145.876373 52.286255,145.315903 52.846741C144.755417 53.407211,144.440475 54.167358,144.440475 54.960052C144.440475 55.752747,144.755417 56.512894,145.315903 57.073364C145.876373 57.633850,146.636520 57.948792,147.429214 57.948792C148.221909 57.948792,148.982056 57.633850,149.542526 57.073364C150.103012 56.512894,150.417953 55.752747,150.417953 54.960052Z" style="fill: rgb(100.000000%,100.000000%,100.000000%);stroke: none;"></path>
  <path d="M151.196976 50.469528C151.196976 49.676834,150.882034 48.916687,150.321548 48.356216C149.761078 47.795731,149.000931 47.480789,148.208237 47.480789C147.415543 47.480789,146.655396 47.795731,146.094925 48.356216C145.534439 48.916687,145.219498 49.676834,145.219498 50.469528C145.219498 51.262222,145.534439 52.022369,146.094925 52.582840C146.655396 53.143326,147.415543 53.458267,148.208237 53.458267C149.000931 53.458267,149.761078 53.143326,150.321548 52.582840C150.882034 52.022369,151.196976 51.262222,151.196976 50.469528Z" style="fill: rgb(100.000000%,100.000000%,100.000000%);stroke: none;"></path>
  <path d="M142.024811 60.548370C142.024811 59.755676,141.709869 58.995529,141.149384 58.435059C140.588913 57.874573,139.828766 57.559631,139.036072 57.559631C138.243378 57.559631,137.483231 57.874573,136.922760 58.435059C136.362274 58.995529,136.047333 59.755676,136.047333 60.548370C136.047333 61.341064,136.362274 62.101212,136.922760 62.661682C137.483231 63.222168,138.243378 63.537109,139.036072 63.537109C139.828766 63.537109,140.588913 63.222168,141.149384 62.661682C141.709869 62.101212,142.024811 61.341064,142.024811 60.548370Z" style="fill: rgb(100.000000%,100.000000%,100.000000%);stroke: none;"></path>
  <path d="M148.172821 56.595871C148.172821 55.803177,147.857880 55.043030,147.297394 54.482559C146.736923 53.922073,145.976776 53.607132,145.184082 53.607132C144.391388 53.607132,143.631241 53.922073,143.070770 54.482559C142.510284 55.043030,142.195343 55.803177,142.195343 56.595871C142.195343 57.388565,142.510284 58.148712,143.070770 58.709183C143.631241 59.269669,144.391388 59.584610,145.184082 59.584610C145.976776 59.584610,146.736923 59.269669,147.297394 58.709183C147.857880 58.148712,148.172821 57.388565,148.172821 56.595871Z" style="fill: rgb(100.000000%,100.000000%,100.000000%);stroke: none;"></path>
  <path d="M130.249771 71.095718C130.249771 70.303024,129.934830 69.542877,129.374344 68.982407C128.813873 68.421921,128.053726 68.106979,127.261032 68.106979C126.468338 68.106979,125.708191 68.421921,125.147720 68.982407C124.587234 69.542877,124.272293 70.303024,124.272293 71.095718C124.272293 71.888412,124.587234 72.648560,125.147720 73.209030C125.708191 73.769516,126.468338 74.084457,127.261032 74.084457C128.053726 74.084457,128.813873 73.769516,129.374344 73.209030C129.934830 72.648560,130.249771 71.888412,130.249771 71.095718Z" style="fill: rgb(100.000000%,100.000000%,100.000000%);stroke: none;"></path>
  <path d="M137.933212 62.982910C137.933212 62.190216,137.618271 61.430069,137.057785 60.869598C136.497314 60.309113,135.737167 59.994171,134.944473 59.994171C134.151779 59.994171,133.391632 60.309113,132.831161 60.869598C132.270676 61.430069,131.955734 62.190216,131.955734 62.982910C131.955734 63.775604,132.270676 64.535751,132.831161 65.096222C133.391632 65.656708,134.151779 65.971649,134.944473 65.971649C135.737167 65.971649,136.497314 65.656708,137.057785 65.096222C137.618271 64.535751,137.933212 63.775604,137.933212 62.982910Z" style="fill: rgb(100.000000%,100.000000%,100.000000%);stroke: none;"></path>
  <path d="M120.225525 92.609528C120.225525 91.816833,119.910583 91.056686,119.350098 90.496216C118.789627 89.935730,118.029480 89.620789,117.236786 89.620789C116.444092 89.620789,115.683945 89.935730,115.123474 90.496216C114.562988 91.056686,114.248047 91.816833,114.248047 92.609528C114.248047 93.402222,114.562988 94.162369,115.123474 94.722839C115.683945 95.283325,116.444092 95.598267,117.236786 95.598267C118.029480 95.598267,118.789627 95.283325,119.350098 94.722839C119.910583 94.162369,120.225525 93.402222,120.225525 92.609528Z" style="fill: rgb(100.000000%,100.000000%,100.000000%);stroke: none;"></path>
  <path d="M127.791412 77.183289C127.791412 76.390594,127.476471 75.630447,126.915985 75.069977C126.355515 74.509491,125.595367 74.194550,124.802673 74.194550C124.009979 74.194550,123.249832 74.509491,122.689362 75.069977C122.128876 75.630447,121.813934 76.390594,121.813934 77.183289C121.813934 77.975983,122.128876 78.736130,122.689362 79.296600C123.249832 79.857086,124.009979 80.172028,124.802673 80.172028C125.595367 80.172028,126.355515 79.857086,126.915985 79.296600C127.476471 78.736130,127.791412 77.975983,127.791412 77.183289Z" style="fill: rgb(100.000000%,100.000000%,100.000000%);stroke: none;"></path>
  <path d="M110.960999 127.835831C110.960999 127.043137,110.646057 126.282990,110.085571 125.722519C109.525101 125.162033,108.764954 124.847092,107.972260 124.847092C107.179565 124.847092,106.419418 125.162033,105.858948 125.722519C105.298462 126.282990,104.983521 127.043137,104.983521 127.835831C104.983521 128.628525,105.298462 129.388672,105.858948 129.949142C106.419418 130.509628,107.179565 130.824570,107.972260 130.824570C108.764954 130.824570,109.525101 130.509628,110.085571 129.949142C110.646057 129.388672,110.960999 128.628525,110.960999 127.835831Z" style="fill: rgb(100.000000%,100.000000%,100.000000%);stroke: none;"></path>
  <path d="M114.206894 101.880402C114.206894 101.087708,113.891953 100.327560,113.331467 99.767090C112.770996 99.206604,112.010849 98.891663,111.218155 98.891663C110.425461 98.891663,109.665314 99.206604,109.104843 99.767090C108.544357 100.327560,108.229416 101.087708,108.229416 101.880402C108.229416 102.673096,108.544357 103.433243,109.104843 103.993713C109.665314 104.554199,110.425461 104.869141,111.218155 104.869141C112.010849 104.869141,112.770996 104.554199,113.331467 103.993713C113.891953 103.433243,114.206894 102.673096,114.206894 101.880402Z" style="fill: rgb(100.000000%,100.000000%,100.000000%);stroke: none;"></path>
  <path d="M112.158249 172.025162C112.158249 171.232468,111.843307 170.472321,111.282822 169.911850C110.722351 169.351364,109.962204 169.036423,109.169510 169.036423C108.376816 169.036423,107.616669 169.351364,107.056198 169.911850C106.495712 170.472321,106.180771 171.232468,106.180771 172.025162C106.180771 172.817856,106.495712 173.578003,107.056198 174.138474C107.616669 174.698959,108.376816 175.013901,109.169510 175.013901C109.962204 175.013901,110.722351 174.698959,111.282822 174.138474C111.843307 173.578003,112.158249 172.817856,112.158249 172.025162Z" style="fill: rgb(100.000000%,100.000000%,100.000000%);stroke: none;"></path>
  <path d="M119.035950 143.047241C119.035950 142.254547,118.721008 141.494400,118.160522 140.933929C117.600052 140.373444,116.839905 140.058502,116.047211 140.058502C115.254517 140.058502,114.494370 140.373444,113.933899 140.933929C113.373413 141.494400,113.058472 142.254547,113.058472 143.047241C113.058472 143.839935,113.373413 144.600082,113.933899 145.160553C114.494370 145.721039,115.254517 146.035980,116.047211 146.035980C116.839905 146.035980,117.600052 145.721039,118.160522 145.160553C118.721008 144.600082,119.035950 143.839935,119.035950 143.047241Z" style="fill: rgb(100.000000%,100.000000%,100.000000%);stroke: none;"></path>
  <path d="M72.879333 183.603790C72.879333 182.811096,72.564392 182.050949,72.003906 181.490479C71.443436 180.929993,70.683289 180.615051,69.890594 180.615051C69.097900 180.615051,68.337753 180.929993,67.777283 181.490479C67.216797 182.050949,66.901855 182.811096,66.901855 183.603790C66.901855 184.396484,67.216797 185.156631,67.777283 185.717102C68.337753 186.277588,69.097900 186.592529,69.890594 186.592529C70.683289 186.592529,71.443436 186.277588,72.003906 185.717102C72.564392 185.156631,72.879333 184.396484,72.879333 183.603790Z" style="fill: rgb(100.000000%,100.000000%,100.000000%);stroke: none;"></path>
  <path d="M100.038651 182.081314C100.038651 181.288620,99.723709 180.528473,99.163223 179.968002C98.602753 179.407516,97.842606 179.092575,97.049911 179.092575C96.257217 179.092575,95.497070 179.407516,94.936600 179.968002C94.376114 180.528473,94.061172 181.288620,94.061172 182.081314C94.061172 182.874008,94.376114 183.634155,94.936600 184.194626C95.497070 184.755112,96.257217 185.070053,97.049911 185.070053C97.842606 185.070053,98.602753 184.755112,99.163223 184.194626C99.723709 183.634155,100.038651 182.874008,100.038651 182.081314Z" style="fill: rgb(100.000000%,100.000000%,100.000000%);stroke: none;"></path>
  <path d="M53.841888 152.963989C53.841888 152.171295,53.526947 151.411148,52.966461 150.850677C52.405991 150.290192,51.645844 149.975250,50.853149 149.975250C50.060455 149.975250,49.300308 150.290192,48.739838 150.850677C48.179352 151.411148,47.864410 152.171295,47.864410 152.963989C47.864410 153.756683,48.179352 154.516830,48.739838 155.077301C49.300308 155.637787,50.060455 155.952728,50.853149 155.952728C51.645844 155.952728,52.405991 155.637787,52.966461 155.077301C53.526947 154.516830,53.841888 153.756683,53.841888 152.963989Z" style="fill: rgb(100.000000%,100.000000%,100.000000%);stroke: none;"></path>
  <path d="M60.691788 176.383499C60.691788 175.590805,60.376846 174.830658,59.816360 174.270187C59.255890 173.709702,58.495743 173.394760,57.703049 173.394760C56.910355 173.394760,56.150208 173.709702,55.589737 174.270187C55.029251 174.830658,54.714310 175.590805,54.714310 176.383499C54.714310 177.176193,55.029251 177.936340,55.589737 178.496811C56.150208 179.057297,56.910355 179.372238,57.703049 179.372238C58.495743 179.372238,59.255890 179.057297,59.816360 178.496811C60.376846 177.936340,60.691788 177.176193,60.691788 176.383499Z" style="fill: rgb(100.000000%,100.000000%,100.000000%);stroke: none;"></path>
  <path d="M42.229080 123.972961C42.229080 123.180267,41.914139 122.420120,41.353653 121.859650C40.793182 121.299164,40.033035 120.984222,39.240341 120.984222C38.447647 120.984222,37.687500 121.299164,37.127029 121.859650C36.566544 122.420120,36.251602 123.180267,36.251602 123.972961C36.251602 124.765656,36.566544 125.525803,37.127029 126.086273C37.687500 126.646759,38.447647 126.961700,39.240341 126.961700C40.033035 126.961700,40.793182 126.646759,41.353653 126.086273C41.914139 125.525803,42.229080 124.765656,42.229080 123.972961Z" style="fill: rgb(100.000000%,100.000000%,100.000000%);stroke: none;"></path>
  <path d="M59.144089 138.921829C59.144089 138.129135,58.829147 137.368988,58.268661 136.808517C57.708191 136.248032,56.948044 135.933090,56.155350 135.933090C55.362656 135.933090,54.602509 136.248032,54.042038 136.808517C53.481552 137.368988,53.166611 138.129135,53.166611 138.921829C53.166611 139.714523,53.481552 140.474670,54.042038 141.035141C54.602509 141.595627,55.362656 141.910568,56.155350 141.910568C56.948044 141.910568,57.708191 141.595627,58.268661 141.035141C58.829147 140.474670,59.144089 139.714523,59.144089 138.921829Z" style="fill: rgb(100.000000%,100.000000%,100.000000%);stroke: none;"></path>
  <path d="M10.264465 119.969009C10.264465 119.176315,9.949524 118.416168,9.389038 117.855698C8.828568 117.295212,8.068420 116.980270,7.275726 116.980270C6.483032 116.980270,5.722885 117.295212,5.162415 117.855698C4.601929 118.416168,4.286987 119.176315,4.286987 119.969009C4.286987 120.761703,4.601929 121.521851,5.162415 122.082321C5.722885 122.642807,6.483032 122.957748,7.275726 122.957748C8.068420 122.957748,8.828568 122.642807,9.389038 122.082321C9.949524 121.521851,10.264465 120.761703,10.264465 119.969009Z" style="fill: rgb(100.000000%,100.000000%,100.000000%);stroke: none;"></path>
  <path d="M30.490265 128.056290C30.490265 127.263596,30.175323 126.503448,29.614838 125.942978C29.054367 125.382492,28.294220 125.067551,27.501526 125.067551C26.708832 125.067551,25.948685 125.382492,25.388214 125.942978C24.827728 126.503448,24.512787 127.263596,24.512787 128.056290C24.512787 128.848984,24.827728 129.609131,25.388214 130.169601C25.948685 130.730087,26.708832 131.045029,27.501526 131.045029C28.294220 131.045029,29.054367 130.730087,29.614838 130.169601C30.175323 129.609131,30.490265 128.848984,30.490265 128.056290Z" style="fill: rgb(100.000000%,100.000000%,100.000000%);stroke: none;"></path>
  <path d="M5.913254 82.886475C5.913254 82.093781,5.598312 81.333633,5.037827 80.773163C4.477356 80.212677,3.717209 79.897736,2.924515 79.897736C2.131821 79.897736,1.371674 80.212677,0.811203 80.773163C0.250717 81.333633,-0.064224 82.093781,-0.064224 82.886475C-0.064224 83.679169,0.250717 84.439316,0.811203 84.999786C1.371674 85.560272,2.131821 85.875214,2.924515 85.875214C3.717209 85.875214,4.477356 85.560272,5.037827 84.999786C5.598312 84.439316,5.913254 83.679169,5.913254 82.886475Z" style="fill: rgb(100.000000%,100.000000%,100.000000%);stroke: none;"></path>
  <path d="M5.752777 107.703857C5.752777 106.911163,5.437836 106.151016,4.877350 105.590546C4.316879 105.030060,3.556732 104.715118,2.764038 104.715118C1.971344 104.715118,1.211197 105.030060,0.650726 105.590546C0.090240 106.151016,-0.224701 106.911163,-0.224701 107.703857C-0.224701 108.496552,0.090240 109.256699,0.650726 109.817169C1.211197 110.377655,1.971344 110.692596,2.764038 110.692596C3.556732 110.692596,4.316879 110.377655,4.877350 109.817169C5.437836 109.256699,5.752777 108.496552,5.752777 107.703857Z" style="fill: rgb(100.000000%,100.000000%,100.000000%);stroke: none;"></path>
  <path d="M33.661652 62.332184C33.661652 61.539490,33.346710 60.779343,32.786224 60.218872C32.225754 59.658386,31.465607 59.343445,30.672913 59.343445C29.880219 59.343445,29.120071 59.658386,28.559601 60.218872C27.999115 60.779343,27.684174 61.539490,27.684174 62.332184C27.684174 63.124878,27.999115 63.885025,28.559601 64.445496C29.120071 65.005981,29.880219 65.320923,30.672913 65.320923C31.465607 65.320923,32.225754 65.005981,32.786224 64.445496C33.346710 63.885025,33.661652 63.124878,33.661652 62.332184Z" style="fill: rgb(100.000000%,100.000000%,100.000000%);stroke: none;"></path>
  <path d="M11.112564 70.063171C11.112564 69.270477,10.797623 68.510330,10.237137 67.949860C9.676666 67.389374,8.916519 67.074432,8.123825 67.074432C7.331131 67.074432,6.570984 67.389374,6.010513 67.949860C5.450027 68.510330,5.135086 69.270477,5.135086 70.063171C5.135086 70.855865,5.450027 71.616013,6.010513 72.176483C6.570984 72.736969,7.331131 73.051910,8.123825 73.051910C8.916519 73.051910,9.676666 72.736969,10.237137 72.176483C10.797623 71.616013,11.112564 70.855865,11.112564 70.063171Z" style="fill: rgb(100.000000%,100.000000%,100.000000%);stroke: none;"></path>
  <path d="M69.625839 54.930862C69.625839 54.138168,69.310898 53.378021,68.750412 52.817551C68.189941 52.257065,67.429794 51.942123,66.637100 51.942123C65.844406 51.942123,65.084259 52.257065,64.523788 52.817551C63.963303 53.378021,63.648361 54.138168,63.648361 54.930862C63.648361 55.723557,63.963303 56.483704,64.523788 57.044174C65.084259 57.604660,65.844406 57.919601,66.637100 57.919601C67.429794 57.919601,68.189941 57.604660,68.750412 57.044174C69.310898 56.483704,69.625839 55.723557,69.625839 54.930862Z" style="fill: rgb(100.000000%,100.000000%,100.000000%);stroke: none;"></path>
  <path d="M46.316208 68.889587C46.316208 68.096893,46.001266 67.336746,45.440781 66.776276C44.880310 66.215790,44.120163 65.900848,43.327469 65.900848C42.534775 65.900848,41.774628 66.215790,41.214157 66.776276C40.653671 67.336746,40.338730 68.096893,40.338730 68.889587C40.338730 69.682281,40.653671 70.442429,41.214157 71.002899C41.774628 71.563385,42.534775 71.878326,43.327469 71.878326C44.120163 71.878326,44.880310 71.563385,45.440781 71.002899C46.001266 70.442429,46.316208 69.682281,46.316208 68.889587Z" style="fill: rgb(100.000000%,100.000000%,100.000000%);stroke: none;"></path>
  <path d="M80.170944 7.240906C80.170944 6.448212,79.856003 5.688065,79.295517 5.127594C78.735046 4.567108,77.974899 4.252167,77.182205 4.252167C76.389511 4.252167,75.629364 4.567108,75.068893 5.127594C74.508408 5.688065,74.193466 6.448212,74.193466 7.240906C74.193466 8.033600,74.508408 8.793747,75.068893 9.354218C75.629364 9.914703,76.389511 10.229645,77.182205 10.229645C77.974899 10.229645,78.735046 9.914703,79.295517 9.354218C79.856003 8.793747,80.170944 8.033600,80.170944 7.240906Z" style="fill: rgb(100.000000%,100.000000%,100.000000%);stroke: none;"></path>
  <path d="M65.148651 36.074280C65.148651 35.281586,64.833710 34.521439,64.273224 33.960968C63.712753 33.400482,62.952606 33.085541,62.159912 33.085541C61.367218 33.085541,60.607071 33.400482,60.046600 33.960968C59.486115 34.521439,59.171173 35.281586,59.171173 36.074280C59.171173 36.866974,59.486115 37.627121,60.046600 38.187592C60.607071 38.748077,61.367218 39.063019,62.159912 39.063019C62.952606 39.063019,63.712753 38.748077,64.273224 38.187592C64.833710 37.627121,65.148651 36.866974,65.148651 36.074280Z" style="fill: rgb(100.000000%,100.000000%,100.000000%);stroke: none;"></path>
  <path d="M134.075226 4.479538C134.075226 3.686844,133.760284 2.926697,133.199799 2.366226C132.639328 1.805740,131.879181 1.490799,131.086487 1.490799C130.293793 1.490799,129.533646 1.805740,128.973175 2.366226C128.412689 2.926697,128.097748 3.686844,128.097748 4.479538C128.097748 5.272232,128.412689 6.032379,128.973175 6.592850C129.533646 7.153336,130.293793 7.468277,131.086487 7.468277C131.879181 7.468277,132.639328 7.153336,133.199799 6.592850C133.760284 6.032379,134.075226 5.272232,134.075226 4.479538Z" style="fill: rgb(100.000000%,100.000000%,100.000000%);stroke: none;"></path>
  <path d="M99.963013 4.212387C99.963013 3.419693,99.648071 2.659546,99.087585 2.099075C98.527115 1.538589,97.766968 1.223648,96.974274 1.223648C96.181580 1.223648,95.421432 1.538589,94.860962 2.099075C94.300476 2.659546,93.985535 3.419693,93.985535 4.212387C93.985535 5.005081,94.300476 5.765228,94.860962 6.325699C95.421432 6.886185,96.181580 7.201126,96.974274 7.201126C97.766968 7.201126,98.527115 6.886185,99.087585 6.325699C99.648071 5.765228,99.963013 5.005081,99.963013 4.212387Z" style="fill: rgb(100.000000%,100.000000%,100.000000%);stroke: none;"></path>
  <path d="M161.594528 27.847992C161.594528 27.055298,161.279587 26.295151,160.719101 25.734680C160.158630 25.174194,159.398483 24.859253,158.605789 24.859253C157.813095 24.859253,157.052948 25.174194,156.492477 25.734680C155.931992 26.295151,155.617050 27.055298,155.617050 27.847992C155.617050 28.640686,155.931992 29.400833,156.492477 29.961304C157.052948 30.521790,157.813095 30.836731,158.605789 30.836731C159.398483 30.836731,160.158630 30.521790,160.719101 29.961304C161.279587 29.400833,161.594528 28.640686,161.594528 27.847992Z" style="fill: rgb(100.000000%,100.000000%,100.000000%);stroke: none;"></path>
  <path d="M151.065781 7.174896C151.065781 6.382202,150.750839 5.622055,150.190353 5.061584C149.629883 4.501099,148.869736 4.186157,148.077042 4.186157C147.284348 4.186157,146.524200 4.501099,145.963730 5.061584C145.403244 5.622055,145.088303 6.382202,145.088303 7.174896C145.088303 7.967590,145.403244 8.727737,145.963730 9.288208C146.524200 9.848694,147.284348 10.163635,148.077042 10.163635C148.869736 10.163635,149.629883 9.848694,150.190353 9.288208C150.750839 8.727737,151.065781 7.967590,151.065781 7.174896Z" style="fill: rgb(100.000000%,100.000000%,100.000000%);stroke: none;"></path>
  <path d="M153.995590 43.891113C153.995590 43.098419,153.680649 42.338272,153.120163 41.777802C152.559692 41.217316,151.799545 40.902374,151.006851 40.902374C150.214157 40.902374,149.454010 41.217316,148.893539 41.777802C148.333054 42.338272,148.018112 43.098419,148.018112 43.891113C148.018112 44.683807,148.333054 45.443954,148.893539 46.004425C149.454010 46.564911,150.214157 46.879852,151.006851 46.879852C151.799545 46.879852,152.559692 46.564911,153.120163 46.004425C153.680649 45.443954,153.995590 44.683807,153.995590 43.891113Z" style="fill: rgb(100.000000%,100.000000%,100.000000%);stroke: none;"></path>
  <path d="M161.061325 36.387375C161.061325 35.594681,160.746384 34.834534,160.185898 34.274063C159.625427 33.713577,158.865280 33.398636,158.072586 33.398636C157.279892 33.398636,156.519745 33.713577,155.959274 34.274063C155.398788 34.834534,155.083847 35.594681,155.083847 36.387375C155.083847 37.180069,155.398788 37.940216,155.959274 38.500687C156.519745 39.061172,157.279892 39.376114,158.072586 39.376114C158.865280 39.376114,159.625427 39.061172,160.185898 38.500687C160.746384 37.940216,161.061325 37.180069,161.061325 36.387375Z" style="fill: rgb(100.000000%,100.000000%,100.000000%);stroke: none;"></path>
  <path d="M149.125275 47.178970C149.125275 46.386276,148.810333 45.626129,148.249847 45.065659C147.689377 44.505173,146.929230 44.190231,146.136536 44.190231C145.343842 44.190231,144.583694 44.505173,144.023224 45.065659C143.462738 45.626129,143.147797 46.386276,143.147797 47.178970C143.147797 47.971664,143.462738 48.731812,144.023224 49.292282C144.583694 49.852768,145.343842 50.167709,146.136536 50.167709C146.929230 50.167709,147.689377 49.852768,148.249847 49.292282C148.810333 48.731812,149.125275 47.971664,149.125275 47.178970Z" style="fill: rgb(100.000000%,100.000000%,100.000000%);stroke: none;"></path>
  <path d="M151.852524 45.247528C151.852524 44.454834,151.537582 43.694687,150.977097 43.134216C150.416626 42.573730,149.656479 42.258789,148.863785 42.258789C148.071091 42.258789,147.310944 42.573730,146.750473 43.134216C146.189987 43.694687,145.875046 44.454834,145.875046 45.247528C145.875046 46.040222,146.189987 46.800369,146.750473 47.360840C147.310944 47.921326,148.071091 48.236267,148.863785 48.236267C149.656479 48.236267,150.416626 47.921326,150.977097 47.360840C151.537582 46.800369,151.852524 46.040222,151.852524 45.247528Z" style="fill: rgb(100.000000%,100.000000%,100.000000%);stroke: none;"></path>
  <path d="M146.707428 47.223877C146.707428 46.431183,146.392487 45.671036,145.832001 45.110565C145.271530 44.550079,144.511383 44.235138,143.718689 44.235138C142.925995 44.235138,142.165848 44.550079,141.605377 45.110565C141.044891 45.671036,140.729950 46.431183,140.729950 47.223877C140.729950 48.016571,141.044891 48.776718,141.605377 49.337189C142.165848 49.897675,142.925995 50.212616,143.718689 50.212616C144.511383 50.212616,145.271530 49.897675,145.832001 49.337189C146.392487 48.776718,146.707428 48.016571,146.707428 47.223877Z" style="fill: rgb(100.000000%,100.000000%,100.000000%);stroke: none;"></path>
  <path d="M148.376572 47.670151C148.376572 46.877457,148.061630 46.117310,147.501144 45.556839C146.940674 44.996353,146.180527 44.681412,145.387833 44.681412C144.595139 44.681412,143.834991 44.996353,143.274521 45.556839C142.714035 46.117310,142.399094 46.877457,142.399094 47.670151C142.399094 48.462845,142.714035 49.222992,143.274521 49.783463C143.834991 50.343948,144.595139 50.658890,145.387833 50.658890C146.180527 50.658890,146.940674 50.343948,147.501144 49.783463C148.061630 49.222992,148.376572 48.462845,148.376572 47.670151Z" style="fill: rgb(100.000000%,100.000000%,100.000000%);stroke: none;"></path>
  <path d="M144.809067 42.384506C144.809067 41.591812,144.494125 40.831665,143.933640 40.271194C143.373169 39.710709,142.613022 39.395767,141.820328 39.395767C141.027634 39.395767,140.267487 39.710709,139.707016 40.271194C139.146530 40.831665,138.831589 41.591812,138.831589 42.384506C138.831589 43.177200,139.146530 43.937347,139.707016 44.497818C140.267487 45.058304,141.027634 45.373245,141.820328 45.373245C142.613022 45.373245,143.373169 45.058304,143.933640 44.497818C144.494125 43.937347,144.809067 43.177200,144.809067 42.384506Z" style="fill: rgb(100.000000%,100.000000%,100.000000%);stroke: none;"></path>
  <path d="M146.319733 46.296982C146.319733 45.504288,146.004791 44.744141,145.444305 44.183670C144.883835 43.623184,144.123688 43.308243,143.330994 43.308243C142.538300 43.308243,141.778152 43.623184,141.217682 44.183670C140.657196 44.744141,140.342255 45.504288,140.342255 46.296982C140.342255 47.089676,140.657196 47.849823,141.217682 48.410294C141.778152 48.970779,142.538300 49.285721,143.330994 49.285721C144.123688 49.285721,144.883835 48.970779,145.444305 48.410294C146.004791 47.849823,146.319733 47.089676,146.319733 46.296982Z" style="fill: rgb(100.000000%,100.000000%,100.000000%);stroke: none;"></path>
  <path d="M142.171036 27.860641C142.171036 27.067947,141.856094 26.307800,141.295609 25.747330C140.735138 25.186844,139.974991 24.871902,139.182297 24.871902C138.389603 24.871902,137.629456 25.186844,137.068985 25.747330C136.508499 26.307800,136.193558 27.067947,136.193558 27.860641C136.193558 28.653336,136.508499 29.413483,137.068985 29.973953C137.629456 30.534439,138.389603 30.849380,139.182297 30.849380C139.974991 30.849380,140.735138 30.534439,141.295609 29.973953C141.856094 29.413483,142.171036 28.653336,142.171036 27.860641Z" style="fill: rgb(100.000000%,100.000000%,100.000000%);stroke: none;"></path>
  <path d="M143.147537 39.457062C143.147537 38.664368,142.832596 37.904221,142.272110 37.343750C141.711639 36.783264,140.951492 36.468323,140.158798 36.468323C139.366104 36.468323,138.605957 36.783264,138.045486 37.343750C137.485001 37.904221,137.170059 38.664368,137.170059 39.457062C137.170059 40.249756,137.485001 41.009903,138.045486 41.570374C138.605957 42.130859,139.366104 42.445801,140.158798 42.445801C140.951492 42.445801,141.711639 42.130859,142.272110 41.570374C142.832596 41.009903,143.147537 40.249756,143.147537 39.457062Z" style="fill: rgb(100.000000%,100.000000%,100.000000%);stroke: none;"></path>
  <path d="M171.803467 20.361206C171.803467 19.568512,171.488525 18.808365,170.928040 18.247894C170.367569 17.687408,169.607422 17.372467,168.814728 17.372467C168.022034 17.372467,167.261887 17.687408,166.701416 18.247894C166.140930 18.808365,165.825989 19.568512,165.825989 20.361206C165.825989 21.153900,166.140930 21.914047,166.701416 22.474518C167.261887 23.035004,168.022034 23.349945,168.814728 23.349945C169.607422 23.349945,170.367569 23.035004,170.928040 22.474518C171.488525 21.914047,171.803467 21.153900,171.803467 20.361206Z" style="fill: rgb(100.000000%,100.000000%,100.000000%);stroke: none;"></path>
  <path d="M149.344681 21.124161C149.344681 20.331467,149.029739 19.571320,148.469254 19.010849C147.908783 18.450363,147.148636 18.135422,146.355942 18.135422C145.563248 18.135422,144.803101 18.450363,144.242630 19.010849C143.682144 19.571320,143.367203 20.331467,143.367203 21.124161C143.367203 21.916855,143.682144 22.677002,144.242630 23.237473C144.803101 23.797958,145.563248 24.112900,146.355942 24.112900C147.148636 24.112900,147.908783 23.797958,148.469254 23.237473C149.029739 22.677002,149.344681 21.916855,149.344681 21.124161Z" style="fill: rgb(100.000000%,100.000000%,100.000000%);stroke: none;"></path>
  <path d="M188.408005 63.875244C188.408005 63.082550,188.093063 62.322403,187.532578 61.761932C186.972107 61.201447,186.211960 60.886505,185.419266 60.886505C184.626572 60.886505,183.866425 61.201447,183.305954 61.761932C182.745468 62.322403,182.430527 63.082550,182.430527 63.875244C182.430527 64.667938,182.745468 65.428085,183.305954 65.988556C183.866425 66.549042,184.626572 66.863983,185.419266 66.863983C186.211960 66.863983,186.972107 66.549042,187.532578 65.988556C188.093063 65.428085,188.408005 64.667938,188.408005 63.875244Z" style="fill: rgb(100.000000%,100.000000%,100.000000%);stroke: none;"></path>
  <path d="M180.741837 33.714035C180.741837 32.921341,180.426895 32.161194,179.866409 31.600723C179.305939 31.040237,178.545792 30.725296,177.753098 30.725296C176.960403 30.725296,176.200256 31.040237,175.639786 31.600723C175.079300 32.161194,174.764359 32.921341,174.764359 33.714035C174.764359 34.506729,175.079300 35.266876,175.639786 35.827347C176.200256 36.387833,176.960403 36.702774,177.753098 36.702774C178.545792 36.702774,179.305939 36.387833,179.866409 35.827347C180.426895 35.266876,180.741837 34.506729,180.741837 33.714035Z" style="fill: rgb(100.000000%,100.000000%,100.000000%);stroke: none;"></path>
  <path d="M165.118195 96.361603C165.118195 95.568909,164.803253 94.808762,164.242767 94.248291C163.682297 93.687805,162.922150 93.372864,162.129456 93.372864C161.336761 93.372864,160.576614 93.687805,160.016144 94.248291C159.455658 94.808762,159.140717 95.568909,159.140717 96.361603C159.140717 97.154297,159.455658 97.914444,160.016144 98.474915C160.576614 99.035400,161.336761 99.350342,162.129456 99.350342C162.922150 99.350342,163.682297 99.035400,164.242767 98.474915C164.803253 97.914444,165.118195 97.154297,165.118195 96.361603Z" style="fill: rgb(100.000000%,100.000000%,100.000000%);stroke: none;"></path>
  <path d="M187.004944 81.691742C187.004944 80.899048,186.690002 80.138901,186.129517 79.578430C185.569046 79.017944,184.808899 78.703003,184.016205 78.703003C183.223511 78.703003,182.463364 79.017944,181.902893 79.578430C181.342407 80.138901,181.027466 80.899048,181.027466 81.691742C181.027466 82.484436,181.342407 83.244583,181.902893 83.805054C182.463364 84.365540,183.223511 84.680481,184.016205 84.680481C184.808899 84.680481,185.569046 84.365540,186.129517 83.805054C186.690002 83.244583,187.004944 82.484436,187.004944 81.691742Z" style="fill: rgb(100.000000%,100.000000%,100.000000%);stroke: none;"></path>
  <path d="M137.244843 90.024048C137.244843 89.231354,136.929901 88.471207,136.369415 87.910736C135.808945 87.350250,135.048798 87.035309,134.256104 87.035309C133.463409 87.035309,132.703262 87.350250,132.142792 87.910736C131.582306 88.471207,131.267365 89.231354,131.267365 90.024048C131.267365 90.816742,131.582306 91.576889,132.142792 92.137360C132.703262 92.697845,133.463409 93.012787,134.256104 93.012787C135.048798 93.012787,135.808945 92.697845,136.369415 92.137360C136.929901 91.576889,137.244843 90.816742,137.244843 90.024048Z" style="fill: rgb(100.000000%,100.000000%,100.000000%);stroke: none;"></path>
  <path d="M153.959549 95.714981C153.959549 94.922287,153.644608 94.162140,153.084122 93.601669C152.523651 93.041183,151.763504 92.726242,150.970810 92.726242C150.178116 92.726242,149.417969 93.041183,148.857498 93.601669C148.297012 94.162140,147.982071 94.922287,147.982071 95.714981C147.982071 96.507675,148.297012 97.267822,148.857498 97.828293C149.417969 98.388779,150.178116 98.703720,150.970810 98.703720C151.763504 98.703720,152.523651 98.388779,153.084122 97.828293C153.644608 97.267822,153.959549 96.507675,153.959549 95.714981Z" style="fill: rgb(100.000000%,100.000000%,100.000000%);stroke: none;"></path>
  <path d="M115.485504 77.269196C115.485504 76.476501,115.170563 75.716354,114.610077 75.155884C114.049606 74.595398,113.289459 74.280457,112.496765 74.280457C111.704071 74.280457,110.943924 74.595398,110.383453 75.155884C109.822968 75.716354,109.508026 76.476501,109.508026 77.269196C109.508026 78.061890,109.822968 78.822037,110.383453 79.382507C110.943924 79.942993,111.704071 80.257935,112.496765 80.257935C113.289459 80.257935,114.049606 79.942993,114.610077 79.382507C115.170563 78.822037,115.485504 78.061890,115.485504 77.269196Z" style="fill: rgb(100.000000%,100.000000%,100.000000%);stroke: none;"></path>
  <path d="M131.016052 86.611465C131.016052 85.818771,130.701111 85.058624,130.140625 84.498154C129.580154 83.937668,128.820007 83.622726,128.027313 83.622726C127.234619 83.622726,126.474472 83.937668,125.914001 84.498154C125.353516 85.058624,125.038574 85.818771,125.038574 86.611465C125.038574 87.404160,125.353516 88.164307,125.914001 88.724777C126.474472 89.285263,127.234619 89.600204,128.027313 89.600204C128.820007 89.600204,129.580154 89.285263,130.140625 88.724777C130.701111 88.164307,131.016052 87.404160,131.016052 86.611465Z" style="fill: rgb(100.000000%,100.000000%,100.000000%);stroke: none;"></path>
  <path d="M89.949509 49.051743C89.949509 48.259048,89.634567 47.498901,89.074081 46.938431C88.513611 46.377945,87.753464 46.063004,86.960770 46.063004C86.168076 46.063004,85.407928 46.377945,84.847458 46.938431C84.286972 47.498901,83.972031 48.259048,83.972031 49.051743C83.972031 49.844437,84.286972 50.604584,84.847458 51.165054C85.407928 51.725540,86.168076 52.040482,86.960770 52.040482C87.753464 52.040482,88.513611 51.725540,89.074081 51.165054C89.634567 50.604584,89.949509 49.844437,89.949509 49.051743Z" style="fill: rgb(100.000000%,100.000000%,100.000000%);stroke: none;"></path>
  <path d="M106.274185 70.884720C106.274185 70.092026,105.959244 69.331879,105.398758 68.771408C104.838287 68.210922,104.078140 67.895981,103.285446 67.895981C102.492752 67.895981,101.732605 68.210922,101.172134 68.771408C100.611649 69.331879,100.296707 70.092026,100.296707 70.884720C100.296707 71.677414,100.611649 72.437561,101.172134 72.998032C101.732605 73.558517,102.492752 73.873459,103.285446 73.873459C104.078140 73.873459,104.838287 73.558517,105.398758 72.998032C105.959244 72.437561,106.274185 71.677414,106.274185 70.884720Z" style="fill: rgb(100.000000%,100.000000%,100.000000%);stroke: none;"></path>
  <path d="M59.416763 15.790344C59.416763 14.997650,59.101822 14.237503,58.541336 13.677032C57.980865 13.116547,57.220718 12.801605,56.428024 12.801605C55.635330 12.801605,54.875183 13.116547,54.314713 13.677032C53.754227 14.237503,53.439285 14.997650,53.439285 15.790344C53.439285 16.583038,53.754227 17.343185,54.314713 17.903656C54.875183 18.464142,55.635330 18.779083,56.428024 18.779083C57.220718 18.779083,57.980865 18.464142,58.541336 17.903656C59.101822 17.343185,59.416763 16.583038,59.416763 15.790344Z" style="fill: rgb(100.000000%,100.000000%,100.000000%);stroke: none;"></path>
  <path d="M86.119324 31.308502C86.119324 30.515808,85.804382 29.755661,85.243896 29.195190C84.683426 28.634705,83.923279 28.319763,83.130585 28.319763C82.337891 28.319763,81.577744 28.634705,81.017273 29.195190C80.456787 29.755661,80.141846 30.515808,80.141846 31.308502C80.141846 32.101196,80.456787 32.861343,81.017273 33.421814C81.577744 33.982300,82.337891 34.297241,83.130585 34.297241C83.923279 34.297241,84.683426 33.982300,85.243896 33.421814C85.804382 32.861343,86.119324 32.101196,86.119324 31.308502Z" style="fill: rgb(100.000000%,100.000000%,100.000000%);stroke: none;"></path>
  <path d="M21.820236 37.811096C21.820236 37.018402,21.505295 36.258255,20.944809 35.697784C20.384338 35.137299,19.624191 34.822357,18.831497 34.822357C18.038803 34.822357,17.278656 35.137299,16.718185 35.697784C16.157700 36.258255,15.842758 37.018402,15.842758 37.811096C15.842758 38.603790,16.157700 39.363937,16.718185 39.924408C17.278656 40.484894,18.038803 40.799835,18.831497 40.799835C19.624191 40.799835,20.384338 40.484894,20.944809 39.924408C21.505295 39.363937,21.820236 38.603790,21.820236 37.811096Z" style="fill: rgb(100.000000%,100.000000%,100.000000%);stroke: none;"></path>
  <path d="M43.717682 18.553802C43.717682 17.761108,43.402740 17.000961,42.842255 16.440491C42.281784 15.880005,41.521637 15.565063,40.728943 15.565063C39.936249 15.565063,39.176102 15.880005,38.615631 16.440491C38.055145 17.000961,37.740204 17.761108,37.740204 18.553802C37.740204 19.346497,38.055145 20.106644,38.615631 20.667114C39.176102 21.227600,39.936249 21.542542,40.728943 21.542542C41.521637 21.542542,42.281784 21.227600,42.842255 20.667114C43.402740 20.106644,43.717682 19.346497,43.717682 18.553802Z" style="fill: rgb(100.000000%,100.000000%,100.000000%);stroke: none;"></path>
  <path d="M27.474075 76.825256C27.474075 76.032562,27.159134 75.272415,26.598648 74.711945C26.038177 74.151459,25.278030 73.836517,24.485336 73.836517C23.692642 73.836517,22.932495 74.151459,22.372025 74.711945C21.811539 75.272415,21.496597 76.032562,21.496597 76.825256C21.496597 77.617950,21.811539 78.378098,22.372025 78.938568C22.932495 79.499054,23.692642 79.813995,24.485336 79.813995C25.278030 79.813995,26.038177 79.499054,26.598648 78.938568C27.159134 78.378098,27.474075 77.617950,27.474075 76.825256Z" style="fill: rgb(100.000000%,100.000000%,100.000000%);stroke: none;"></path>
  <path d="M17.071655 52.914810C17.071655 52.122116,16.756714 51.361969,16.196228 50.801498C15.635757 50.241013,14.875610 49.926071,14.082916 49.926071C13.290222 49.926071,12.530075 50.241013,11.969604 50.801498C11.409119 51.361969,11.094177 52.122116,11.094177 52.914810C11.094177 53.707504,11.409119 54.467651,11.969604 55.028122C12.530075 55.588608,13.290222 55.903549,14.082916 55.903549C14.875610 55.903549,15.635757 55.588608,16.196228 55.028122C16.756714 54.467651,17.071655 53.707504,17.071655 52.914810Z" style="fill: rgb(100.000000%,100.000000%,100.000000%);stroke: none;"></path>
  <path d="M37.321213 108.018799C37.321213 107.226105,37.006271 106.465958,36.445786 105.905487C35.885315 105.345001,35.125168 105.030060,34.332474 105.030060C33.539780 105.030060,32.779633 105.345001,32.219162 105.905487C31.658676 106.465958,31.343735 107.226105,31.343735 108.018799C31.343735 108.811493,31.658676 109.571640,32.219162 110.132111C32.779633 110.692596,33.539780 111.007538,34.332474 111.007538C35.125168 111.007538,35.885315 110.692596,36.445786 110.132111C37.006271 109.571640,37.321213 108.811493,37.321213 108.018799Z" style="fill: rgb(100.000000%,100.000000%,100.000000%);stroke: none;"></path>
  <path d="M39.150330 84.786270C39.150330 83.993576,38.835388 83.233429,38.274902 82.672958C37.714432 82.112473,36.954285 81.797531,36.161591 81.797531C35.368896 81.797531,34.608749 82.112473,34.048279 82.672958C33.487793 83.233429,33.172852 83.993576,33.172852 84.786270C33.172852 85.578964,33.487793 86.339111,34.048279 86.899582C34.608749 87.460068,35.368896 87.775009,36.161591 87.775009C36.954285 87.775009,37.714432 87.460068,38.274902 86.899582C38.835388 86.339111,39.150330 85.578964,39.150330 84.786270Z" style="fill: rgb(100.000000%,100.000000%,100.000000%);stroke: none;"></path>
  <path d="M16.162277 135.134674C16.162277 134.341980,15.847336 133.581833,15.286850 133.021362C14.726379 132.460876,13.966232 132.145935,13.173538 132.145935C12.380844 132.145935,11.620697 132.460876,11.060226 133.021362C10.499741 133.581833,10.184799 134.341980,10.184799 135.134674C10.184799 135.927368,10.499741 136.687515,11.060226 137.247986C11.620697 137.808472,12.380844 138.123413,13.173538 138.123413C13.966232 138.123413,14.726379 137.808472,15.286850 137.247986C15.847336 136.687515,16.162277 135.927368,16.162277 135.134674Z" style="fill: rgb(100.000000%,100.000000%,100.000000%);stroke: none;"></path>
  <path d="M25.768555 114.344727C25.768555 113.552032,25.453613 112.791885,24.893127 112.231415C24.332657 111.670929,23.572510 111.355988,22.779816 111.355988C21.987122 111.355988,21.226974 111.670929,20.666504 112.231415C20.106018 112.791885,19.791077 113.552032,19.791077 114.344727C19.791077 115.137421,20.106018 115.897568,20.666504 116.458038C21.226974 117.018524,21.987122 117.333466,22.779816 117.333466C23.572510 117.333466,24.332657 117.018524,24.893127 116.458038C25.453613 115.897568,25.768555 115.137421,25.768555 114.344727Z" style="fill: rgb(100.000000%,100.000000%,100.000000%);stroke: none;"></path>
  <path d="M35.545990 165.071411C35.545990 164.278717,35.231049 163.518570,34.670563 162.958099C34.110092 162.397614,33.349945 162.082672,32.557251 162.082672C31.764557 162.082672,31.004410 162.397614,30.443939 162.958099C29.883453 163.518570,29.568512 164.278717,29.568512 165.071411C29.568512 165.864105,29.883453 166.624252,30.443939 167.184723C31.004410 167.745209,31.764557 168.060150,32.557251 168.060150C33.349945 168.060150,34.110092 167.745209,34.670563 167.184723C35.231049 166.624252,35.545990 165.864105,35.545990 165.071411Z" style="fill: rgb(100.000000%,100.000000%,100.000000%);stroke: none;"></path>
  <path d="M19.635330 147.686676C19.635330 146.893982,19.320389 146.133835,18.759903 145.573364C18.199432 145.012878,17.439285 144.697937,16.646591 144.697937C15.853897 144.697937,15.093750 145.012878,14.533279 145.573364C13.972794 146.133835,13.657852 146.893982,13.657852 147.686676C13.657852 148.479370,13.972794 149.239517,14.533279 149.799988C15.093750 150.360474,15.853897 150.675415,16.646591 150.675415C17.439285 150.675415,18.199432 150.360474,18.759903 149.799988C19.320389 149.239517,19.635330 148.479370,19.635330 147.686676Z" style="fill: rgb(100.000000%,100.000000%,100.000000%);stroke: none;"></path>
  <path d="M67.366287 158.784668C67.366287 157.991974,67.051346 157.231827,66.490860 156.671356C65.930389 156.110870,65.170242 155.795929,64.377548 155.795929C63.584854 155.795929,62.824707 156.110870,62.264236 156.671356C61.703751 157.231827,61.388809 157.991974,61.388809 158.784668C61.388809 159.577362,61.703751 160.337509,62.264236 160.897980C62.824707 161.458466,63.584854 161.773407,64.377548 161.773407C65.170242 161.773407,65.930389 161.458466,66.490860 160.897980C67.051346 160.337509,67.366287 159.577362,67.366287 158.784668Z" style="fill: rgb(100.000000%,100.000000%,100.000000%);stroke: none;"></path>
  <path d="M47.317444 169.448578C47.317444 168.655884,47.002502 167.895737,46.442017 167.335266C45.881546 166.774780,45.121399 166.459839,44.328705 166.459839C43.536011 166.459839,42.775864 166.774780,42.215393 167.335266C41.654907 167.895737,41.339966 168.655884,41.339966 169.448578C41.339966 170.241272,41.654907 171.001419,42.215393 171.561890C42.775864 172.122375,43.536011 172.437317,44.328705 172.437317C45.121399 172.437317,45.881546 172.122375,46.442017 171.561890C47.002502 171.001419,47.317444 170.241272,47.317444 169.448578Z" style="fill: rgb(100.000000%,100.000000%,100.000000%);stroke: none;"></path>
  <path d="M95.522980 139.104019C95.522980 138.311325,95.208038 137.551178,94.647552 136.990707C94.087082 136.430222,93.326935 136.115280,92.534241 136.115280C91.741547 136.115280,90.981400 136.430222,90.420929 136.990707C89.860443 137.551178,89.545502 138.311325,89.545502 139.104019C89.545502 139.896713,89.860443 140.656860,90.420929 141.217331C90.981400 141.777817,91.741547 142.092758,92.534241 142.092758C93.326935 142.092758,94.087082 141.777817,94.647552 141.217331C95.208038 140.656860,95.522980 139.896713,95.522980 139.104019Z" style="fill: rgb(100.000000%,100.000000%,100.000000%);stroke: none;"></path>
  <path d="M70.614487 143.921585C70.614487 143.128891,70.299545 142.368744,69.739059 141.808273C69.178589 141.247787,68.418442 140.932846,67.625748 140.932846C66.833054 140.932846,66.072906 141.247787,65.512436 141.808273C64.951950 142.368744,64.637009 143.128891,64.637009 143.921585C64.637009 144.714279,64.951950 145.474426,65.512436 146.034897C66.072906 146.595383,66.833054 146.910324,67.625748 146.910324C68.418442 146.910324,69.178589 146.595383,69.739059 146.034897C70.299545 145.474426,70.614487 144.714279,70.614487 143.921585Z" style="fill: rgb(100.000000%,100.000000%,100.000000%);stroke: none;"></path>
  <path d="M131.562973 163.670761C131.562973 162.878067,131.248032 162.117920,130.687546 161.557449C130.127075 160.996964,129.366928 160.682022,128.574234 160.682022C127.781540 160.682022,127.021393 160.996964,126.460922 161.557449C125.900436 162.117920,125.585495 162.878067,125.585495 163.670761C125.585495 164.463455,125.900436 165.223602,126.460922 165.784073C127.021393 166.344559,127.781540 166.659500,128.574234 166.659500C129.366928 166.659500,130.127075 166.344559,130.687546 165.784073C131.248032 165.223602,131.562973 164.463455,131.562973 163.670761Z" style="fill: rgb(100.000000%,100.000000%,100.000000%);stroke: none;"></path>
  <path d="M103.503616 153.943802C103.503616 153.151108,103.188675 152.390961,102.628189 151.830490C102.067719 151.270004,101.307571 150.955063,100.514877 150.955063C99.722183 150.955063,98.962036 151.270004,98.401566 151.830490C97.841080 152.390961,97.526138 153.151108,97.526138 153.943802C97.526138 154.736496,97.841080 155.496643,98.401566 156.057114C98.962036 156.617599,99.722183 156.932541,100.514877 156.932541C101.307571 156.932541,102.067719 156.617599,102.628189 156.057114C103.188675 155.496643,103.503616 154.736496,103.503616 153.943802Z" style="fill: rgb(100.000000%,100.000000%,100.000000%);stroke: none;"></path>
  <path d="M169.395233 123.386215C169.395233 122.593521,169.080292 121.833374,168.519806 121.272903C167.959335 120.712418,167.199188 120.397476,166.406494 120.397476C165.613800 120.397476,164.853653 120.712418,164.293182 121.272903C163.732697 121.833374,163.417755 122.593521,163.417755 123.386215C163.417755 124.178909,163.732697 124.939056,164.293182 125.499527C164.853653 126.060013,165.613800 126.374954,166.406494 126.374954C167.199188 126.374954,167.959335 126.060013,168.519806 125.499527C169.080292 124.939056,169.395233 124.178909,169.395233 123.386215Z" style="fill: rgb(100.000000%,100.000000%,100.000000%);stroke: none;"></path>
  <path d="M146.486984 150.872864C146.486984 150.080170,146.172043 149.320023,145.611557 148.759552C145.051086 148.199066,144.290939 147.884125,143.498245 147.884125C142.705551 147.884125,141.945404 148.199066,141.384933 148.759552C140.824448 149.320023,140.509506 150.080170,140.509506 150.872864C140.509506 151.665558,140.824448 152.425705,141.384933 152.986176C141.945404 153.546661,142.705551 153.861603,143.498245 153.861603C144.290939 153.861603,145.051086 153.546661,145.611557 152.986176C146.172043 152.425705,146.486984 151.665558,146.486984 150.872864Z" style="fill: rgb(100.000000%,100.000000%,100.000000%);stroke: none;"></path>
  <path d="M170.459000 81.416168C170.459000 80.623474,170.144058 79.863327,169.583572 79.302856C169.023102 78.742371,168.262955 78.427429,167.470261 78.427429C166.677567 78.427429,165.917419 78.742371,165.356949 79.302856C164.796463 79.863327,164.481522 80.623474,164.481522 81.416168C164.481522 82.208862,164.796463 82.969009,165.356949 83.529480C165.917419 84.089966,166.677567 84.404907,167.470261 84.404907C168.262955 84.404907,169.023102 84.089966,169.583572 83.529480C170.144058 82.969009,170.459000 82.208862,170.459000 81.416168Z" style="fill: rgb(100.000000%,100.000000%,100.000000%);stroke: none;"></path>
  <path d="M179.956299 106.926193C179.956299 106.133499,179.641357 105.373352,179.080872 104.812881C178.520401 104.252396,177.760254 103.937454,176.967560 103.937454C176.174866 103.937454,175.414719 104.252396,174.854248 104.812881C174.293762 105.373352,173.978821 106.133499,173.978821 106.926193C173.978821 107.718887,174.293762 108.479034,174.854248 109.039505C175.414719 109.599991,176.174866 109.914932,176.967560 109.914932C177.760254 109.914932,178.520401 109.599991,179.080872 109.039505C179.641357 108.479034,179.956299 107.718887,179.956299 106.926193Z" style="fill: rgb(100.000000%,100.000000%,100.000000%);stroke: none;"></path>
  <path d="M152.972229 68.102737C149.838272 64.552658,146.509033 61.179855,143.000000 58.000000C140.699753 55.915527,138.293411 53.489761,138.873749 50.508820C139.305069 48.293350,141.302628 46.916763,143.000000 45.439728C143.703369 44.827682,144.498703 44.174789,145.373260 44.439697C146.284912 44.715836,146.563156 45.760239,146.812042 46.700577C147.314575 48.599167,148.208237 50.469528,147.870651 52.415436C147.429214 54.960052,145.184082 56.595871,143.000000 58.000000C139.036072 60.548370,134.944473 62.982910,131.699783 66.408920C127.261032 71.095718,124.802673 77.183289,121.966644 82.965729C117.236786 92.609528,111.218155 101.880402,109.880981 112.572983C107.972260 127.835831,116.047211 143.047241,112.476807 158.090485C109.169510 172.025162,97.049911 182.081314,82.740448 182.883469C69.890594 183.603790,57.703049 176.383499,54.147186 164.226166C50.853149 152.963989,56.155350 138.921829,46.986160 130.818436C39.240341 123.972961,27.501526 128.056290,18.168533 124.324493C7.275726 119.969009,2.764038 107.703857,2.842087 95.634003C2.924515 82.886475,8.123825 70.063171,19.801590 66.059433C30.672913 62.332184,43.327469 68.889587,53.385452 62.866470C66.637100 54.930862,62.159912 36.074280,68.939636 23.061447C77.182205 7.240906,96.974274 4.212387,115.328262 4.356125C131.086487 4.479538,148.077042 7.174896,155.031265 20.829453C158.605789 27.847992,158.072586 36.387375,152.732330 42.058670C151.006851 43.891113,148.863785 45.247528,146.812042 46.700577C146.136536 47.178970,145.387833 47.670151,144.594788 47.458115C143.718689 47.223877,143.330994 46.296982,143.000000 45.439728C141.820328 42.384506,140.158798 39.457062,139.883148 36.183594C139.182297 27.860641,146.355942 21.124161,155.031265 20.829453C168.814728 20.361206,177.753098 33.714035,181.369431 47.941895C185.419266 63.875244,184.016205 81.691742,170.856644 90.512100C162.129456 96.361603,150.970810 95.714981,140.954712 92.304749C134.256104 90.024048,128.027313 86.611465,121.966644 82.965729C112.496765 77.269196,103.285446 70.884720,96.659210 62.022644C86.960770 49.051743,83.130585 31.308502,68.939636 23.061447C56.428024 15.790344,40.728943 18.553802,29.737747 28.219803C18.831497 37.811096,14.082916 52.914810,19.801590 66.059433C24.485336 76.825256,36.161591 84.786270,35.215317 96.805389C34.332474 108.018799,22.779816 114.344727,18.168533 124.324493C13.173538 135.134674,16.646591 147.686676,24.794373 156.589340C32.557251 165.071411,44.328705 169.448578,54.147186 164.226166C64.377548 158.784668,67.625748 143.921585,79.426132 141.639267C92.534241 139.104019,100.514877 153.943802,112.476807 158.090485C128.574234 163.670761,143.498245 150.872864,154.925873 137.161331C166.406494 123.386215,176.967560 106.926193,170.856644 90.512100C167.470261 81.416168,159.362442 75.341431,152.972229 68.102737" style="stroke:rgb(0.000000%,0.000000%,0.000000%); stroke-width: 0.498138;stroke-linecap: round;stroke-linejoin: round;stroke-miterlimit: 10.000000;fill: none;"></path>
  <path d="M152.972229 68.102737C149.838272 64.552658,146.509033 61.179855,143.000000 58.000000C140.699753 55.915527,138.293411 53.489761,138.873749 50.508820C139.305069 48.293350,141.302628 46.916763,143.000000 45.439728" style="stroke:rgb(0.000000%,0.000000%,0.000000%); stroke-width: 1.494400;stroke-linecap: round;stroke-linejoin: round;stroke-miterlimit: 10.000000;fill: none;"></path>
  <path d="M170.856644 90.512100C167.470261 81.416168,159.362442 75.341431,152.972229 68.102737" style="stroke:rgb(0.000000%,0.000000%,0.000000%); stroke-width: 1.494400;stroke-linecap: round;stroke-linejoin: round;stroke-miterlimit: 10.000000;fill: none;"></path>
  <path d="M145.988739 58.000000C145.988739 57.207306,145.673798 56.447159,145.113312 55.886688C144.552841 55.326202,143.792694 55.011261,143.000000 55.011261C142.207306 55.011261,141.447159 55.326202,140.886688 55.886688C140.326202 56.447159,140.011261 57.207306,140.011261 58.000000C140.011261 58.792694,140.326202 59.552841,140.886688 60.113312C141.447159 60.673798,142.207306 60.988739,143.000000 60.988739C143.792694 60.988739,144.552841 60.673798,145.113312 60.113312C145.673798 59.552841,145.988739 58.792694,145.988739 58.000000Z" style="fill: rgb(100.000000%,100.000000%,100.000000%);stroke: none;"></path>
  <path d="M148.126755 62.912521C146.464081 61.228088,144.754517 59.589920,143.000000 58.000000C141.849869 56.957764,140.673218 55.830200,139.856644 54.590576" style="stroke:rgb(0.000000%,0.000000%,0.000000%); stroke-width: 1.494400;stroke-linecap: round;stroke-linejoin: round;stroke-miterlimit: 10.000000;fill: none;"></path>
  <path d="M149.800781 46.700577C149.800781 45.907883,149.485840 45.147736,148.925354 44.587265C148.364883 44.026779,147.604736 43.711838,146.812042 43.711838C146.019348 43.711838,145.259201 44.026779,144.698730 44.587265C144.138245 45.147736,143.823303 45.907883,143.823303 46.700577C143.823303 47.493271,144.138245 48.253418,144.698730 48.813889C145.259201 49.374374,146.019348 49.689316,146.812042 49.689316C147.604736 49.689316,148.364883 49.374374,148.925354 48.813889C149.485840 48.253418,149.800781 47.493271,149.800781 46.700577Z" style="fill: rgb(100.000000%,100.000000%,100.000000%);stroke: none;"></path>
  <path d="M146.341202 45.321075C146.555832 45.734222,146.687607 46.230408,146.812042 46.700577C147.063309 47.649872,147.412369 48.592117,147.656403 49.540268" style="stroke:rgb(0.000000%,0.000000%,0.000000%); stroke-width: 0.498138;stroke-linecap: round;stroke-linejoin: round;stroke-miterlimit: 10.000000;fill: none;"></path>
  <path d="M124.955383 82.965729C124.955383 82.173035,124.640442 81.412888,124.079956 80.852417C123.519485 80.291931,122.759338 79.976990,121.966644 79.976990C121.173950 79.976990,120.413803 80.291931,119.853333 80.852417C119.292847 81.412888,118.977905 82.173035,118.977905 82.965729C118.977905 83.758423,119.292847 84.518570,119.853333 85.079041C120.413803 85.639526,121.173950 85.954468,121.966644 85.954468C122.759338 85.954468,123.519485 85.639526,124.079956 85.079041C124.640442 84.518570,124.955383 83.758423,124.955383 82.965729Z" style="fill: rgb(100.000000%,100.000000%,100.000000%);stroke: none;"></path>
  <path d="M126.232178 74.276474C124.708252 77.107010,123.384659 80.074509,121.966644 82.965729C119.601715 87.787628,116.914581 92.516296,114.651535 97.376068" style="stroke:rgb(0.000000%,0.000000%,0.000000%); stroke-width: 0.498138;stroke-linecap: round;stroke-linejoin: round;stroke-miterlimit: 10.000000;fill: none;"></path>
  <path d="M57.135925 164.226166C57.135925 163.433472,56.820984 162.673325,56.260498 162.112854C55.700027 161.552368,54.939880 161.237427,54.147186 161.237427C53.354492 161.237427,52.594345 161.552368,52.033875 162.112854C51.473389 162.673325,51.158447 163.433472,51.158447 164.226166C51.158447 165.018860,51.473389 165.779007,52.033875 166.339478C52.594345 166.899963,53.354492 167.214905,54.147186 167.214905C54.939880 167.214905,55.700027 166.899963,56.260498 166.339478C56.820984 165.779007,57.135925 165.018860,57.135925 164.226166Z" style="fill: rgb(100.000000%,100.000000%,100.000000%);stroke: none;"></path>
  <path d="M64.958557 178.383926C59.860962 175.149231,55.925110 170.304825,54.147186 164.226166C52.500168 158.595078,53.002213 152.268982,52.769852 146.337738" style="stroke:rgb(0.000000%,0.000000%,0.000000%); stroke-width: 0.498138;stroke-linecap: round;stroke-linejoin: round;stroke-miterlimit: 10.000000;fill: none;"></path>
  <path d="M22.790329 66.059433C22.790329 65.266739,22.475388 64.506592,21.914902 63.946121C21.354431 63.385635,20.594284 63.070694,19.801590 63.070694C19.008896 63.070694,18.248749 63.385635,17.688278 63.946121C17.127792 64.506592,16.812851 65.266739,16.812851 66.059433C16.812851 66.852127,17.127792 67.612274,17.688278 68.172745C18.248749 68.733231,19.008896 69.048172,19.801590 69.048172C20.594284 69.048172,21.354431 68.733231,21.914902 68.172745C22.475388 67.612274,22.790329 66.852127,22.790329 66.059433Z" style="fill: rgb(100.000000%,100.000000%,100.000000%);stroke: none;"></path>
  <path d="M6.973587 77.567780C9.743439 72.268051,13.962708 68.061295,19.801590 66.059433C25.237259 64.195801,31.118729 64.903351,36.898529 65.323914" style="stroke:rgb(0.000000%,0.000000%,0.000000%); stroke-width: 0.498138;stroke-linecap: round;stroke-linejoin: round;stroke-miterlimit: 10.000000;fill: none;"></path>
  <path d="M158.020004 20.829453C158.020004 20.036758,157.705063 19.276611,157.144577 18.716141C156.584106 18.155655,155.823959 17.840714,155.031265 17.840714C154.238571 17.840714,153.478424 18.155655,152.917953 18.716141C152.357468 19.276611,152.042526 20.036758,152.042526 20.829453C152.042526 21.622147,152.357468 22.382294,152.917953 22.942764C153.478424 23.503250,154.238571 23.818192,155.031265 23.818192C155.823959 23.818192,156.584106 23.503250,157.144577 22.942764C157.705063 22.382294,158.020004 21.622147,158.020004 20.829453Z" style="fill: rgb(100.000000%,100.000000%,100.000000%);stroke: none;"></path>
  <path d="M138.481277 7.518616C145.567963 9.914703,151.554153 14.002182,155.031265 20.829453C156.818527 24.338730,157.578857 28.228210,157.224838 31.949295" style="stroke:rgb(0.000000%,0.000000%,0.000000%); stroke-width: 0.498138;stroke-linecap: round;stroke-linejoin: round;stroke-miterlimit: 10.000000;fill: none;"></path>
  <path d="M145.988739 45.439728C145.988739 44.647034,145.673798 43.886887,145.113312 43.326416C144.552841 42.765930,143.792694 42.450989,143.000000 42.450989C142.207306 42.450989,141.447159 42.765930,140.886688 43.326416C140.326202 43.886887,140.011261 44.647034,140.011261 45.439728C140.011261 46.232422,140.326202 46.992569,140.886688 47.553040C141.447159 48.113525,142.207306 48.428467,143.000000 48.428467C143.792694 48.428467,144.552841 48.113525,145.113312 47.553040C145.673798 46.992569,145.988739 46.232422,145.988739 45.439728Z" style="fill: rgb(100.000000%,100.000000%,100.000000%);stroke: none;"></path>
  <path d="M143.592972 46.682541C143.345169 46.314377,143.165497 45.868347,143.000000 45.439728C142.410156 43.912109,141.699860 42.416443,141.102554 40.893494" style="stroke:rgb(0.000000%,0.000000%,0.000000%); stroke-width: 0.498138;stroke-linecap: round;stroke-linejoin: round;stroke-miterlimit: 10.000000;fill: none;"></path>
  <path d="M173.845383 90.512100C173.845383 89.719406,173.530441 88.959259,172.969955 88.398788C172.409485 87.838303,171.649338 87.523361,170.856644 87.523361C170.063950 87.523361,169.303802 87.838303,168.743332 88.398788C168.182846 88.959259,167.867905 89.719406,167.867905 90.512100C167.867905 91.304794,168.182846 92.064941,168.743332 92.625412C169.303802 93.185898,170.063950 93.500839,170.856644 93.500839C171.649338 93.500839,172.409485 93.185898,172.969955 92.625412C173.530441 92.064941,173.845383 91.304794,173.845383 90.512100Z" style="fill: rgb(100.000000%,100.000000%,100.000000%);stroke: none;"></path>
  <path d="M182.566559 71.894379C181.077072 79.442719,177.436417 86.101929,170.856644 90.512100C166.493042 93.436859,161.521576 94.737579,156.389008 94.880829" style="stroke:rgb(0.000000%,0.000000%,0.000000%); stroke-width: 0.498138;stroke-linecap: round;stroke-linejoin: round;stroke-miterlimit: 10.000000;fill: none;"></path>
  <path d="M71.928375 23.061447C71.928375 22.268753,71.613434 21.508606,71.052948 20.948135C70.492477 20.387650,69.732330 20.072708,68.939636 20.072708C68.146942 20.072708,67.386795 20.387650,66.826324 20.948135C66.265839 21.508606,65.950897 22.268753,65.950897 23.061447C65.950897 23.854141,66.265839 24.614288,66.826324 25.174759C67.386795 25.735245,68.146942 26.050186,68.939636 26.050186C69.732330 26.050186,70.492477 25.735245,71.052948 25.174759C71.613434 24.614288,71.928375 23.854141,71.928375 23.061447Z" style="fill: rgb(100.000000%,100.000000%,100.000000%);stroke: none;"></path>
  <path d="M84.484100 40.770584C80.540390 33.682541,76.035110 27.184967,68.939636 23.061447C62.683823 19.425888,55.631149 18.298981,48.768524 19.289215" style="stroke:rgb(0.000000%,0.000000%,0.000000%); stroke-width: 0.498138;stroke-linecap: round;stroke-linejoin: round;stroke-miterlimit: 10.000000;fill: none;"></path>
  <path d="M21.157272 124.324493C21.157272 123.531799,20.842331 122.771652,20.281845 122.211182C19.721375 121.650696,18.961227 121.335754,18.168533 121.335754C17.375839 121.335754,16.615692 121.650696,16.055222 122.211182C15.494736 122.771652,15.179794 123.531799,15.179794 124.324493C15.179794 125.117188,15.494736 125.877335,16.055222 126.437805C16.615692 126.998291,17.375839 127.313232,18.168533 127.313232C18.961227 127.313232,19.721375 126.998291,20.281845 126.437805C20.842331 125.877335,21.157272 125.117188,21.157272 124.324493Z" style="fill: rgb(100.000000%,100.000000%,100.000000%);stroke: none;"></path>
  <path d="M28.090073 111.027573C24.515152 115.258194,20.474167 119.334610,18.168533 124.324493C15.671036 129.729584,15.290543 135.570129,16.552917 141.172241" style="stroke:rgb(0.000000%,0.000000%,0.000000%); stroke-width: 0.498138;stroke-linecap: round;stroke-linejoin: round;stroke-miterlimit: 10.000000;fill: none;"></path>
  <path d="M115.465546 158.090485C115.465546 157.297791,115.150604 156.537643,114.590118 155.977173C114.029648 155.416687,113.269501 155.101746,112.476807 155.101746C111.684113 155.101746,110.923965 155.416687,110.363495 155.977173C109.803009 156.537643,109.488068 157.297791,109.488068 158.090485C109.488068 158.883179,109.803009 159.643326,110.363495 160.203796C110.923965 160.764282,111.684113 161.079224,112.476807 161.079224C113.269501 161.079224,114.029648 160.764282,114.590118 160.203796C115.150604 159.643326,115.465546 158.883179,115.465546 158.090485Z" style="fill: rgb(100.000000%,100.000000%,100.000000%);stroke: none;"></path>
  <path d="M96.381302 147.359161C101.510208 151.270538,106.495850 156.017151,112.476807 158.090485C120.525528 160.880630,128.280884 159.076218,135.452530 154.860321" style="stroke:rgb(0.000000%,0.000000%,0.000000%); stroke-width: 0.498138;stroke-linecap: round;stroke-linejoin: round;stroke-miterlimit: 10.000000;fill: none;"></path>
  <path d="M138.873749 50.508820C139.218811 48.736435,140.566269 47.500946,141.960510 46.321396" style="stroke:rgb(0.000000%,0.000000%,0.000000%); stroke-width: 0.498138;stroke-linecap: round;stroke-linejoin: round;stroke-miterlimit: 10.000000;fill: none;"></path>
  <path d="M140.672379 51.152618C140.415649 49.464981,141.158371 47.877655,141.960510 46.321396C140.292862 46.854614,138.645264 47.451797,137.633438 48.826660Z" style="stroke:rgb(0.000000%,0.000000%,0.000000%); stroke-width: 0.498138;fill: rgb(0.000000%,0.000000%,0.000000%);"></path>
  <path d="M138.873749 50.508820C139.218811 48.736435,140.566269 47.500946,141.960510 46.321396" style="stroke:rgb(0.000000%,0.000000%,0.000000%); stroke-width: 0.498138;stroke-linecap: round;stroke-linejoin: round;stroke-miterlimit: 10.000000;fill: none;"></path>
  <path d="M140.804199 49.089584C141.045120 48.147141,141.492722 47.228989,141.960510 46.321396C140.987961 46.632370,140.022232 46.965073,139.185455 47.461105Z" style="stroke:rgb(0.000000%,0.000000%,0.000000%); stroke-width: 0.498138;fill: rgb(0.000000%,0.000000%,0.000000%);"></path>
  <path d="M145.373260 44.439697C146.102585 44.660614,146.426529 45.373215,146.654358 46.130875" style="stroke:rgb(0.000000%,0.000000%,0.000000%); stroke-width: 0.498138;stroke-linecap: round;stroke-linejoin: round;stroke-miterlimit: 10.000000;fill: none;"></path>
  <path d="M146.654358 46.130875Z" style="stroke:rgb(0.000000%,0.000000%,0.000000%); stroke-width: 0.498138;fill: rgb(0.000000%,0.000000%,0.000000%);"></path>
  <path d="M131.699783 66.408920C128.148773 70.158371,125.865219 74.804321,123.641785 79.473358" style="stroke:rgb(0.000000%,0.000000%,0.000000%); stroke-width: 0.498138;stroke-linecap: round;stroke-linejoin: round;stroke-miterlimit: 10.000000;fill: none;"></path>
  <path d="M123.814682 76.478439C123.747650 77.475143,123.693512 78.474274,123.641785 79.473358C124.384827 78.803497,125.129608 78.135300,125.881790 77.477921Z" style="stroke:rgb(0.000000%,0.000000%,0.000000%); stroke-width: 0.498138;fill: rgb(0.000000%,0.000000%,0.000000%);"></path>
  <path d="M46.986160 130.818436C40.789474 125.342041,32.037262 126.860123,24.005753 125.775696" style="stroke:rgb(0.000000%,0.000000%,0.000000%); stroke-width: 0.498138;stroke-linecap: round;stroke-linejoin: round;stroke-miterlimit: 10.000000;fill: none;"></path>
  <path d="M26.878189 124.910065C25.924896 125.226517,24.967804 125.521317,24.005753 125.775696C24.865906 126.276108,25.751099 126.744431,26.648941 127.194763Z" style="stroke:rgb(0.000000%,0.000000%,0.000000%); stroke-width: 0.498138;fill: rgb(0.000000%,0.000000%,0.000000%);"></path>
  <path d="M2.842087 95.634003C2.908035 85.435944,6.248810 75.189377,13.561539 69.448792" style="stroke:rgb(0.000000%,0.000000%,0.000000%); stroke-width: 0.498138;stroke-linecap: round;stroke-linejoin: round;stroke-miterlimit: 10.000000;fill: none;"></path>
  <path d="M12.271652 72.157471C12.640869 71.227127,13.069839 70.322586,13.561539 69.448792C12.595993 69.718948,11.653046 70.055222,10.734116 70.451996Z" style="stroke:rgb(0.000000%,0.000000%,0.000000%); stroke-width: 0.498138;fill: rgb(0.000000%,0.000000%,0.000000%);"></path>
  <path d="M152.732330 42.058670C151.351944 43.524628,149.704300 44.685928,148.049957 45.835770" style="stroke:rgb(0.000000%,0.000000%,0.000000%); stroke-width: 0.498138;stroke-linecap: round;stroke-linejoin: round;stroke-miterlimit: 10.000000;fill: none;"></path>
  <path d="M149.621811 43.280502C149.129379 44.148254,148.590973 44.993011,148.049957 45.835770C149.028442 45.622437,150.006485 45.405823,150.968277 45.140457Z" style="stroke:rgb(0.000000%,0.000000%,0.000000%); stroke-width: 0.498138;fill: rgb(0.000000%,0.000000%,0.000000%);"></path>
  <path d="M144.594788 47.458115C143.893906 47.270721,143.505615 46.640030,143.208847 45.956329" style="stroke:rgb(0.000000%,0.000000%,0.000000%); stroke-width: 0.498138;stroke-linecap: round;stroke-linejoin: round;stroke-miterlimit: 10.000000;fill: none;"></path>
  <path d="M143.208847 45.956329Z" style="stroke:rgb(0.000000%,0.000000%,0.000000%); stroke-width: 0.498138;fill: rgb(0.000000%,0.000000%,0.000000%);"></path>
  <path d="M140.954712 92.304749C135.595810 90.480179,130.537582 87.931213,125.625580 85.117966" style="stroke:rgb(0.000000%,0.000000%,0.000000%); stroke-width: 0.498138;stroke-linecap: round;stroke-linejoin: round;stroke-miterlimit: 10.000000;fill: none;"></path>
  <path d="M128.605118 85.468506C127.610992 85.362808,126.617752 85.245071,125.625580 85.117966C126.237259 85.909439,126.856323 86.695023,127.484512 87.472717Z" style="stroke:rgb(0.000000%,0.000000%,0.000000%); stroke-width: 0.498138;fill: rgb(0.000000%,0.000000%,0.000000%);"></path>
  <path d="M29.737747 28.219803C21.012711 35.892868,16.228622 47.093918,17.591995 57.997467" style="stroke:rgb(0.000000%,0.000000%,0.000000%); stroke-width: 0.498138;stroke-linecap: round;stroke-linejoin: round;stroke-miterlimit: 10.000000;fill: none;"></path>
  <path d="M16.242523 55.318161C16.646225 56.230957,17.095886 57.125168,17.591995 57.997467C17.858032 57.029861,18.172379 56.079590,18.532379 55.148697Z" style="stroke:rgb(0.000000%,0.000000%,0.000000%); stroke-width: 0.498138;fill: rgb(0.000000%,0.000000%,0.000000%);"></path>
  <path d="M24.794373 156.589340C31.004700 163.375015,39.780533 167.533539,48.069534 166.251602" style="stroke:rgb(0.000000%,0.000000%,0.000000%); stroke-width: 0.498138;stroke-linecap: round;stroke-linejoin: round;stroke-miterlimit: 10.000000;fill: none;"></path>
  <path d="M45.394531 167.610031C46.317993 167.224884,47.211884 166.772903,48.069534 166.251602C47.094482 166.013748,46.142792 165.701263,45.217468 165.320602Z" style="stroke:rgb(0.000000%,0.000000%,0.000000%); stroke-width: 0.498138;fill: rgb(0.000000%,0.000000%,0.000000%);"></path>
  <path d="M79.426132 141.639267C89.912659 139.611053,97.117584 148.702957,105.704636 154.543915" style="stroke:rgb(0.000000%,0.000000%,0.000000%); stroke-width: 0.498138;stroke-linecap: round;stroke-linejoin: round;stroke-miterlimit: 10.000000;fill: none;"></path>
  <path d="M102.785233 153.853729C103.757355 154.107361,104.730850 154.341843,105.704636 154.543915C105.158981 153.712448,104.636414 152.858276,104.128372 151.991516Z" style="stroke:rgb(0.000000%,0.000000%,0.000000%); stroke-width: 0.498138;fill: rgb(0.000000%,0.000000%,0.000000%);"></path>
  <path d="M149.981583 70.812943L155.962875 70.812943L155.962875 63.392548L149.981583 63.392548Z" style="fill: rgb(100.000000%,100.000000%,100.000000%);stroke: none;"></path>
  <path d="M149.981583 72.812943L155.962875 72.812943L155.962875 65.392548L149.981583 65.392548Z" style="fill: rgb(100.000000%,100.000000%,100.000000%);stroke: none;"></path>
  <g transform="translate(150.481583 71.312943)" style="fill: rgb(0.000000%,0.000000%,0.000000%);">
    <use xlink:href="#GLYPHcmr10_49"></use>
  </g>
  <path d="M144.880005 55.125641L150.861298 55.125641L150.861298 47.705246L144.880005 47.705246Z" style="fill: rgb(100.000000%,100.000000%,100.000000%);stroke: none;"></path>
  <path d="M144.880005 57.125641L150.861298 57.125641L150.861298 49.705246L144.880005 49.705246Z" style="fill: rgb(100.000000%,100.000000%,100.000000%);stroke: none;"></path>
  <g transform="translate(145.380005 55.625641)" style="fill: rgb(0.000000%,0.000000%,0.000000%);">
    <use xlink:href="#GLYPHcmr10_50"></use>
  </g>
  <path d="M106.890335 115.283188L112.871628 115.283188L112.871628 107.862793L106.890335 107.862793Z" style="fill: rgb(100.000000%,100.000000%,100.000000%);stroke: none;"></path>
  <path d="M106.890335 117.283188L112.871628 117.283188L112.871628 109.862793L106.890335 109.862793Z" style="fill: rgb(100.000000%,100.000000%,100.000000%);stroke: none;"></path>
  <g transform="translate(107.390335 115.783188)" style="fill: rgb(0.000000%,0.000000%,0.000000%);">
    <use xlink:href="#GLYPHcmr10_51"></use>
  </g>
  <path d="M79.749802 185.593674L85.731094 185.593674L85.731094 178.173279L79.749802 178.173279Z" style="fill: rgb(100.000000%,100.000000%,100.000000%);stroke: none;"></path>
  <path d="M79.749802 187.593674L85.731094 187.593674L85.731094 180.173279L79.749802 180.173279Z" style="fill: rgb(100.000000%,100.000000%,100.000000%);stroke: none;"></path>
  <g transform="translate(80.249802 186.093674)" style="fill: rgb(0.000000%,0.000000%,0.000000%);">
    <use xlink:href="#GLYPHcmr10_52"></use>
  </g>
  <path d="M50.394806 65.576675L56.376099 65.576675L56.376099 58.156281L50.394806 58.156281Z" style="fill: rgb(100.000000%,100.000000%,100.000000%);stroke: none;"></path>
  <path d="M50.394806 67.576675L56.376099 67.576675L56.376099 60.156281L50.394806 60.156281Z" style="fill: rgb(100.000000%,100.000000%,100.000000%);stroke: none;"></path>
  <g transform="translate(50.894806 66.076675)" style="fill: rgb(0.000000%,0.000000%,0.000000%);">
    <use xlink:href="#GLYPHcmr10_53"></use>
  </g>
  <path d="M112.337616 7.066330L118.318909 7.066330L118.318909 -0.354065L112.337616 -0.354065Z" style="fill: rgb(100.000000%,100.000000%,100.000000%);stroke: none;"></path>
  <path d="M112.337616 9.066330L118.318909 9.066330L118.318909 1.645935L112.337616 1.645935Z" style="fill: rgb(100.000000%,100.000000%,100.000000%);stroke: none;"></path>
  <g transform="translate(112.837616 7.566330)" style="fill: rgb(0.000000%,0.000000%,0.000000%);">
    <use xlink:href="#GLYPHcmr10_54"></use>
  </g>
  <path d="M136.892502 38.893799L142.873795 38.893799L142.873795 31.473404L136.892502 31.473404Z" style="fill: rgb(100.000000%,100.000000%,100.000000%);stroke: none;"></path>
  <path d="M136.892502 40.893799L142.873795 40.893799L142.873795 33.473404L136.892502 33.473404Z" style="fill: rgb(100.000000%,100.000000%,100.000000%);stroke: none;"></path>
  <g transform="translate(137.392502 39.393799)" style="fill: rgb(0.000000%,0.000000%,0.000000%);">
    <use xlink:href="#GLYPHcmr10_55"></use>
  </g>
  <path d="M178.378784 50.652100L184.360077 50.652100L184.360077 43.231705L178.378784 43.231705Z" style="fill: rgb(100.000000%,100.000000%,100.000000%);stroke: none;"></path>
  <path d="M178.378784 52.652100L184.360077 52.652100L184.360077 45.231705L178.378784 45.231705Z" style="fill: rgb(100.000000%,100.000000%,100.000000%);stroke: none;"></path>
  <g transform="translate(178.878784 51.152100)" style="fill: rgb(0.000000%,0.000000%,0.000000%);">
    <use xlink:href="#GLYPHcmr10_56"></use>
  </g>
  <path d="M93.668564 64.732849L99.649857 64.732849L99.649857 57.312454L93.668564 57.312454Z" style="fill: rgb(100.000000%,100.000000%,100.000000%);stroke: none;"></path>
  <path d="M93.668564 66.732849L99.649857 66.732849L99.649857 59.312454L93.668564 59.312454Z" style="fill: rgb(100.000000%,100.000000%,100.000000%);stroke: none;"></path>
  <g transform="translate(94.168564 65.232849)" style="fill: rgb(0.000000%,0.000000%,0.000000%);">
    <use xlink:href="#GLYPHcmr10_57"></use>
  </g>
  <path d="M29.733963 99.515594L40.696671 99.515594L40.696671 92.095200L29.733963 92.095200Z" style="fill: rgb(100.000000%,100.000000%,100.000000%);stroke: none;"></path>
  <path d="M29.733963 101.515594L40.696671 101.515594L40.696671 94.095200L29.733963 94.095200Z" style="fill: rgb(100.000000%,100.000000%,100.000000%);stroke: none;"></path>
  <g transform="translate(30.233963 100.015594)" style="fill: rgb(0.000000%,0.000000%,0.000000%);">
    <use xlink:href="#GLYPHcmr10_49"></use>
    <use xlink:href="#GLYPHcmr10_48" x="5.000095"></use>
  </g>
  <path d="M149.444519 139.871536L160.407227 139.871536L160.407227 132.451141L149.444519 132.451141Z" style="fill: rgb(100.000000%,100.000000%,100.000000%);stroke: none;"></path>
  <path d="M149.444519 141.871536L160.407227 141.871536L160.407227 134.451141L149.444519 134.451141Z" style="fill: rgb(100.000000%,100.000000%,100.000000%);stroke: none;"></path>
  <g transform="translate(149.944519 140.371536)" style="fill: rgb(0.000000%,0.000000%,0.000000%);">
    <use xlink:href="#GLYPHcmr10_49"></use>
    <use xlink:href="#GLYPHcmr10_49" x="5.000095"></use>
  </g>
</svg>
