<?xml version="1.0"?>
<!-- Created by MetaPost 1.999 on 2021.07.05:2355 -->
<svg version="1.1" xmlns="http://www.w3.org/2000/svg" xmlns:xlink="http://www.w3.org/1999/xlink" width="202.793106" height="197.290878" viewBox="0 0 202.793106 197.290878">
<!-- Original BoundingBox: -124.550171 -110.346191 78.242935 86.944687 -->
  <defs>
    <g transform="scale(0.009963,0.009963)" id="GLYPHcmr10_48">
      <path style="fill-rule: evenodd;" d="M460.000000 -320.000000C460.000000 -400.000000,455.000000 -480.000000,420.000000 -554.000000C374.000000 -650.000000,292.000000 -666.000000,250.000000 -666.000000C190.000000 -666.000000,117.000000 -640.000000,76.000000 -547.000000C44.000000 -478.000000,39.000000 -400.000000,39.000000 -320.000000C39.000000 -245.000000,43.000000 -155.000000,84.000000 -79.000000C127.000000 2.000000,200.000000 22.000000,249.000000 22.000000C303.000000 22.000000,379.000000 1.000000,423.000000 -94.000000C455.000000 -163.000000,460.000000 -241.000000,460.000000 -320.000000M249.000000 -0.000000C210.000000 -0.000000,151.000000 -25.000000,133.000000 -121.000000C122.000000 -181.000000,122.000000 -273.000000,122.000000 -332.000000C122.000000 -396.000000,122.000000 -462.000000,130.000000 -516.000000C149.000000 -635.000000,224.000000 -644.000000,249.000000 -644.000000C282.000000 -644.000000,348.000000 -626.000000,367.000000 -527.000000C377.000000 -471.000000,377.000000 -395.000000,377.000000 -332.000000C377.000000 -257.000000,377.000000 -189.000000,366.000000 -125.000000C351.000000 -30.000000,294.000000 -0.000000,249.000000 -0.000000"></path>
    </g>
    <g transform="scale(0.009963,0.009963)" id="GLYPHcmr10_49">
      <path style="fill-rule: evenodd;" d="M294.000000 -640.000000C294.000000 -664.000000,294.000000 -666.000000,271.000000 -666.000000C209.000000 -602.000000,121.000000 -602.000000,89.000000 -602.000000L89.000000 -571.000000C109.000000 -571.000000,168.000000 -571.000000,220.000000 -597.000000L220.000000 -79.000000C220.000000 -43.000000,217.000000 -31.000000,127.000000 -31.000000L95.000000 -31.000000L95.000000 -0.000000L257.000000 -0.000000L130.000000 -3.000000L217.000000 -3.000000L257.000000 -3.000000L297.000000 -3.000000L384.000000 -3.000000L419.000000 -0.000000L419.000000 -31.000000L387.000000 -31.000000C297.000000 -31.000000,294.000000 -42.000000,294.000000 -79.000000"></path>
    </g>
    <g transform="scale(0.009963,0.009963)" id="GLYPHcmr10_50">
      <path style="fill-rule: evenodd;" d="M127.000000 -77.000000L233.000000 -180.000000C389.000000 -318.000000,449.000000 -372.000000,449.000000 -472.000000C449.000000 -586.000000,359.000000 -666.000000,237.000000 -666.000000C124.000000 -666.000000,50.000000 -574.000000,50.000000 -485.000000C50.000000 -429.000000,100.000000 -429.000000,103.000000 -429.000000C120.000000 -429.000000,155.000000 -441.000000,155.000000 -482.000000C155.000000 -508.000000,137.000000 -534.000000,102.000000 -534.000000C94.000000 -534.000000,92.000000 -534.000000,89.000000 -533.000000C112.000000 -598.000000,166.000000 -635.000000,224.000000 -635.000000C315.000000 -635.000000,358.000000 -554.000000,358.000000 -472.000000C358.000000 -392.000000,308.000000 -313.000000,253.000000 -251.000000L61.000000 -37.000000C50.000000 -26.000000,50.000000 -24.000000,50.000000 -0.000000L421.000000 -0.000000L449.000000 -174.000000L424.000000 -174.000000C419.000000 -144.000000,412.000000 -100.000000,402.000000 -85.000000C395.000000 -77.000000,329.000000 -77.000000,307.000000 -77.000000"></path>
    </g>
    <g transform="scale(0.009963,0.009963)" id="GLYPHcmr10_51">
      <path style="fill-rule: evenodd;" d="M290.000000 -352.000000C372.000000 -379.000000,430.000000 -449.000000,430.000000 -528.000000C430.000000 -610.000000,342.000000 -666.000000,246.000000 -666.000000C145.000000 -666.000000,69.000000 -606.000000,69.000000 -530.000000C69.000000 -497.000000,91.000000 -478.000000,120.000000 -478.000000C151.000000 -478.000000,171.000000 -500.000000,171.000000 -529.000000C171.000000 -579.000000,124.000000 -579.000000,109.000000 -579.000000C140.000000 -628.000000,206.000000 -641.000000,242.000000 -641.000000C283.000000 -641.000000,338.000000 -619.000000,338.000000 -529.000000C338.000000 -517.000000,336.000000 -459.000000,310.000000 -415.000000C280.000000 -367.000000,246.000000 -364.000000,221.000000 -363.000000C213.000000 -362.000000,189.000000 -360.000000,182.000000 -360.000000C174.000000 -359.000000,167.000000 -358.000000,167.000000 -348.000000C167.000000 -337.000000,174.000000 -337.000000,191.000000 -337.000000L235.000000 -337.000000C317.000000 -337.000000,354.000000 -269.000000,354.000000 -171.000000C354.000000 -35.000000,285.000000 -6.000000,241.000000 -6.000000C198.000000 -6.000000,123.000000 -23.000000,88.000000 -82.000000C123.000000 -77.000000,154.000000 -99.000000,154.000000 -137.000000C154.000000 -173.000000,127.000000 -193.000000,98.000000 -193.000000C74.000000 -193.000000,42.000000 -179.000000,42.000000 -135.000000C42.000000 -44.000000,135.000000 22.000000,244.000000 22.000000C366.000000 22.000000,457.000000 -69.000000,457.000000 -171.000000C457.000000 -253.000000,394.000000 -331.000000,290.000000 -352.000000"></path>
    </g>
    <g transform="scale(0.009963,0.009963)" id="GLYPHcmr10_52">
      <path style="fill-rule: evenodd;" d="M294.000000 -165.000000L294.000000 -78.000000C294.000000 -42.000000,292.000000 -31.000000,218.000000 -31.000000L197.000000 -31.000000L197.000000 -0.000000L332.000000 -0.000000L238.000000 -3.000000L290.000000 -3.000000L332.000000 -3.000000L374.000000 -3.000000L427.000000 -3.000000L468.000000 -0.000000L468.000000 -31.000000L447.000000 -31.000000C373.000000 -31.000000,371.000000 -42.000000,371.000000 -78.000000L371.000000 -165.000000L471.000000 -165.000000L471.000000 -196.000000L371.000000 -196.000000L371.000000 -651.000000C371.000000 -671.000000,371.000000 -677.000000,355.000000 -677.000000C346.000000 -677.000000,343.000000 -677.000000,335.000000 -665.000000L28.000000 -196.000000L28.000000 -165.000000M300.000000 -196.000000L56.000000 -196.000000L300.000000 -569.000000"></path>
    </g>
    <g transform="scale(0.009963,0.009963)" id="GLYPHcmr10_53">
      <path style="fill-rule: evenodd;" d="M449.000000 -201.000000C449.000000 -320.000000,367.000000 -420.000000,259.000000 -420.000000C211.000000 -420.000000,168.000000 -404.000000,132.000000 -369.000000L132.000000 -564.000000C152.000000 -558.000000,185.000000 -551.000000,217.000000 -551.000000C340.000000 -551.000000,410.000000 -642.000000,410.000000 -655.000000C410.000000 -661.000000,407.000000 -666.000000,400.000000 -666.000000C399.000000 -666.000000,397.000000 -666.000000,392.000000 -663.000000C372.000000 -654.000000,323.000000 -634.000000,256.000000 -634.000000C216.000000 -634.000000,170.000000 -641.000000,123.000000 -662.000000C115.000000 -665.000000,113.000000 -665.000000,111.000000 -665.000000C101.000000 -665.000000,101.000000 -657.000000,101.000000 -641.000000L101.000000 -345.000000C101.000000 -327.000000,101.000000 -319.000000,115.000000 -319.000000C122.000000 -319.000000,124.000000 -322.000000,128.000000 -328.000000C139.000000 -344.000000,176.000000 -398.000000,257.000000 -398.000000C309.000000 -398.000000,334.000000 -352.000000,342.000000 -334.000000C358.000000 -297.000000,360.000000 -258.000000,360.000000 -208.000000C360.000000 -173.000000,360.000000 -113.000000,336.000000 -71.000000C312.000000 -32.000000,275.000000 -6.000000,229.000000 -6.000000C156.000000 -6.000000,99.000000 -59.000000,82.000000 -118.000000C85.000000 -117.000000,88.000000 -116.000000,99.000000 -116.000000C132.000000 -116.000000,149.000000 -141.000000,149.000000 -165.000000C149.000000 -189.000000,132.000000 -214.000000,99.000000 -214.000000C85.000000 -214.000000,50.000000 -207.000000,50.000000 -161.000000C50.000000 -75.000000,119.000000 22.000000,231.000000 22.000000C347.000000 22.000000,449.000000 -74.000000,449.000000 -201.000000"></path>
    </g>
    <g transform="scale(0.009963,0.009963)" id="GLYPHcmr10_54">
      <path style="fill-rule: evenodd;" d="M132.000000 -328.000000L132.000000 -352.000000C132.000000 -605.000000,256.000000 -641.000000,307.000000 -641.000000C331.000000 -641.000000,373.000000 -635.000000,395.000000 -601.000000C380.000000 -601.000000,340.000000 -601.000000,340.000000 -556.000000C340.000000 -525.000000,364.000000 -510.000000,386.000000 -510.000000C402.000000 -510.000000,432.000000 -519.000000,432.000000 -558.000000C432.000000 -618.000000,388.000000 -666.000000,305.000000 -666.000000C177.000000 -666.000000,42.000000 -537.000000,42.000000 -316.000000C42.000000 -49.000000,158.000000 22.000000,251.000000 22.000000C362.000000 22.000000,457.000000 -72.000000,457.000000 -204.000000C457.000000 -331.000000,368.000000 -427.000000,257.000000 -427.000000C189.000000 -427.000000,152.000000 -376.000000,132.000000 -328.000000M251.000000 -6.000000C188.000000 -6.000000,158.000000 -66.000000,152.000000 -81.000000C134.000000 -128.000000,134.000000 -208.000000,134.000000 -226.000000C134.000000 -304.000000,166.000000 -404.000000,256.000000 -404.000000C272.000000 -404.000000,318.000000 -404.000000,349.000000 -342.000000C367.000000 -305.000000,367.000000 -254.000000,367.000000 -205.000000C367.000000 -157.000000,367.000000 -107.000000,350.000000 -71.000000C320.000000 -11.000000,274.000000 -6.000000,251.000000 -6.000000"></path>
    </g>
    <g transform="scale(0.009963,0.009963)" id="GLYPHcmr10_55">
      <path style="fill-rule: evenodd;" d="M476.000000 -609.000000C485.000000 -621.000000,485.000000 -623.000000,485.000000 -644.000000L242.000000 -644.000000C120.000000 -644.000000,118.000000 -657.000000,114.000000 -676.000000L89.000000 -676.000000L56.000000 -470.000000L81.000000 -470.000000C84.000000 -486.000000,93.000000 -549.000000,106.000000 -561.000000C113.000000 -567.000000,191.000000 -567.000000,204.000000 -567.000000L411.000000 -567.000000C400.000000 -551.000000,321.000000 -442.000000,299.000000 -409.000000C209.000000 -274.000000,176.000000 -135.000000,176.000000 -33.000000C176.000000 -23.000000,176.000000 22.000000,222.000000 22.000000C268.000000 22.000000,268.000000 -23.000000,268.000000 -33.000000L268.000000 -84.000000C268.000000 -139.000000,271.000000 -194.000000,279.000000 -248.000000C283.000000 -271.000000,297.000000 -357.000000,341.000000 -419.000000"></path>
    </g>
    <g transform="scale(0.009963,0.009963)" id="GLYPHcmr10_56">
      <path style="fill-rule: evenodd;" d="M163.000000 -457.000000C117.000000 -487.000000,113.000000 -521.000000,113.000000 -538.000000C113.000000 -599.000000,178.000000 -641.000000,249.000000 -641.000000C322.000000 -641.000000,386.000000 -589.000000,386.000000 -517.000000C386.000000 -460.000000,347.000000 -412.000000,287.000000 -377.000000M309.000000 -362.000000C381.000000 -399.000000,430.000000 -451.000000,430.000000 -517.000000C430.000000 -609.000000,341.000000 -666.000000,250.000000 -666.000000C150.000000 -666.000000,69.000000 -592.000000,69.000000 -499.000000C69.000000 -481.000000,71.000000 -436.000000,113.000000 -389.000000C124.000000 -377.000000,161.000000 -352.000000,186.000000 -335.000000C128.000000 -306.000000,42.000000 -250.000000,42.000000 -151.000000C42.000000 -45.000000,144.000000 22.000000,249.000000 22.000000C362.000000 22.000000,457.000000 -61.000000,457.000000 -168.000000C457.000000 -204.000000,446.000000 -249.000000,408.000000 -291.000000C389.000000 -312.000000,373.000000 -322.000000,309.000000 -362.000000M209.000000 -320.000000L332.000000 -242.000000C360.000000 -223.000000,407.000000 -193.000000,407.000000 -132.000000C407.000000 -58.000000,332.000000 -6.000000,250.000000 -6.000000C164.000000 -6.000000,92.000000 -68.000000,92.000000 -151.000000C92.000000 -209.000000,124.000000 -273.000000,209.000000 -320.000000"></path>
    </g>
    <g transform="scale(0.009963,0.009963)" id="GLYPHcmr10_57">
      <path style="fill-rule: evenodd;" d="M367.000000 -318.000000L367.000000 -286.000000C367.000000 -52.000000,263.000000 -6.000000,205.000000 -6.000000C188.000000 -6.000000,134.000000 -8.000000,107.000000 -42.000000C151.000000 -42.000000,159.000000 -71.000000,159.000000 -88.000000C159.000000 -119.000000,135.000000 -134.000000,113.000000 -134.000000C97.000000 -134.000000,67.000000 -125.000000,67.000000 -86.000000C67.000000 -19.000000,121.000000 22.000000,206.000000 22.000000C335.000000 22.000000,457.000000 -114.000000,457.000000 -329.000000C457.000000 -598.000000,342.000000 -666.000000,253.000000 -666.000000C198.000000 -666.000000,149.000000 -648.000000,106.000000 -603.000000C65.000000 -558.000000,42.000000 -516.000000,42.000000 -441.000000C42.000000 -316.000000,130.000000 -218.000000,242.000000 -218.000000C303.000000 -218.000000,344.000000 -260.000000,367.000000 -318.000000M243.000000 -241.000000C227.000000 -241.000000,181.000000 -241.000000,150.000000 -304.000000C132.000000 -341.000000,132.000000 -391.000000,132.000000 -440.000000C132.000000 -494.000000,132.000000 -541.000000,153.000000 -578.000000C180.000000 -628.000000,218.000000 -641.000000,253.000000 -641.000000C299.000000 -641.000000,332.000000 -607.000000,349.000000 -562.000000C361.000000 -530.000000,365.000000 -467.000000,365.000000 -421.000000C365.000000 -338.000000,331.000000 -241.000000,243.000000 -241.000000"></path>
    </g>
  </defs>
  <path d="M129.127106 97.233810C129.127106 96.441116,128.812164 95.680969,128.251678 95.120499C127.691208 94.560013,126.931061 94.245071,126.138367 94.245071C125.345673 94.245071,124.585526 94.560013,124.025055 95.120499C123.464569 95.680969,123.149628 96.441116,123.149628 97.233810C123.149628 98.026505,123.464569 98.786652,124.025055 99.347122C124.585526 99.907608,125.345673 100.222549,126.138367 100.222549C126.931061 100.222549,127.691208 99.907608,128.251678 99.347122C128.812164 98.786652,129.127106 98.026505,129.127106 97.233810Z" style="fill: rgb(100.000000%,100.000000%,100.000000%);stroke: none;"></path>
  <path d="M129.255997 102.950134C129.255997 102.157440,128.941055 101.397293,128.380569 100.836823C127.820099 100.276337,127.059952 99.961395,126.267258 99.961395C125.474564 99.961395,124.714417 100.276337,124.153946 100.836823C123.593460 101.397293,123.278519 102.157440,123.278519 102.950134C123.278519 103.742828,123.593460 104.502975,124.153946 105.063446C124.714417 105.623932,125.474564 105.938873,126.267258 105.938873C127.059952 105.938873,127.820099 105.623932,128.380569 105.063446C128.941055 104.502975,129.255997 103.742828,129.255997 102.950134Z" style="fill: rgb(100.000000%,100.000000%,100.000000%);stroke: none;"></path>
  <path d="M124.928528 77.703415C124.928528 76.910721,124.613586 76.150574,124.053101 75.590103C123.492630 75.029617,122.732483 74.714676,121.939789 74.714676C121.147095 74.714676,120.386948 75.029617,119.826477 75.590103C119.265991 76.150574,118.951050 76.910721,118.951050 77.703415C118.951050 78.496109,119.265991 79.256256,119.826477 79.816727C120.386948 80.377213,121.147095 80.692154,121.939789 80.692154C122.732483 80.692154,123.492630 80.377213,124.053101 79.816727C124.613586 79.256256,124.928528 78.496109,124.928528 77.703415Z" style="fill: rgb(100.000000%,100.000000%,100.000000%);stroke: none;"></path>
  <path d="M128.366730 91.549255C128.366730 90.756561,128.051788 89.996414,127.491302 89.435944C126.930832 88.875458,126.170685 88.560516,125.377991 88.560516C124.585297 88.560516,123.825150 88.875458,123.264679 89.435944C122.704193 89.996414,122.389252 90.756561,122.389252 91.549255C122.389252 92.341949,122.704193 93.102097,123.264679 93.662567C123.825150 94.223053,124.585297 94.537994,125.377991 94.537994C126.170685 94.537994,126.930832 94.223053,127.491302 93.662567C128.051788 93.102097,128.366730 92.341949,128.366730 91.549255Z" style="fill: rgb(100.000000%,100.000000%,100.000000%);stroke: none;"></path>
  <path d="M116.026062 46.757553C116.026062 45.964859,115.711121 45.204712,115.150635 44.644241C114.590164 44.083755,113.830017 43.768814,113.037323 43.768814C112.244629 43.768814,111.484482 44.083755,110.924011 44.644241C110.363525 45.204712,110.048584 45.964859,110.048584 46.757553C110.048584 47.550247,110.363525 48.310394,110.924011 48.870865C111.484482 49.431351,112.244629 49.746292,113.037323 49.746292C113.830017 49.746292,114.590164 49.431351,115.150635 48.870865C115.711121 48.310394,116.026062 47.550247,116.026062 46.757553Z" style="fill: rgb(100.000000%,100.000000%,100.000000%);stroke: none;"></path>
  <path d="M121.510239 69.800385C121.510239 69.007690,121.195297 68.247543,120.634811 67.687073C120.074341 67.126587,119.314194 66.811646,118.521500 66.811646C117.728806 66.811646,116.968658 67.126587,116.408188 67.687073C115.847702 68.247543,115.532761 69.007690,115.532761 69.800385C115.532761 70.593079,115.847702 71.353226,116.408188 71.913696C116.968658 72.474182,117.728806 72.789124,118.521500 72.789124C119.314194 72.789124,120.074341 72.474182,120.634811 71.913696C121.195297 71.353226,121.510239 70.593079,121.510239 69.800385Z" style="fill: rgb(100.000000%,100.000000%,100.000000%);stroke: none;"></path>
  <path d="M139.184219 4.840454C139.184219 4.047760,138.869278 3.287613,138.308792 2.727142C137.748322 2.166656,136.988174 1.851715,136.195480 1.851715C135.402786 1.851715,134.642639 2.166656,134.082169 2.727142C133.521683 3.287613,133.206741 4.047760,133.206741 4.840454C133.206741 5.633148,133.521683 6.393295,134.082169 6.953766C134.642639 7.514252,135.402786 7.829193,136.195480 7.829193C136.988174 7.829193,137.748322 7.514252,138.308792 6.953766C138.869278 6.393295,139.184219 5.633148,139.184219 4.840454Z" style="fill: rgb(100.000000%,100.000000%,100.000000%);stroke: none;"></path>
  <path d="M117.300690 30.830429C117.300690 30.037735,116.985748 29.277588,116.425262 28.717117C115.864792 28.156631,115.104645 27.841690,114.311951 27.841690C113.519257 27.841690,112.759109 28.156631,112.198639 28.717117C111.638153 29.277588,111.323212 30.037735,111.323212 30.830429C111.323212 31.623123,111.638153 32.383270,112.198639 32.943741C112.759109 33.504227,113.519257 33.819168,114.311951 33.819168C115.104645 33.819168,115.864792 33.504227,116.425262 32.943741C116.985748 32.383270,117.300690 31.623123,117.300690 30.830429Z" style="fill: rgb(100.000000%,100.000000%,100.000000%);stroke: none;"></path>
  <path d="M191.638168 24.599197C191.638168 23.806503,191.323227 23.046356,190.762741 22.485886C190.202271 21.925400,189.442123 21.610458,188.649429 21.610458C187.856735 21.610458,187.096588 21.925400,186.536118 22.485886C185.975632 23.046356,185.660690 23.806503,185.660690 24.599197C185.660690 25.391891,185.975632 26.152039,186.536118 26.712509C187.096588 27.272995,187.856735 27.587936,188.649429 27.587936C189.442123 27.587936,190.202271 27.272995,190.762741 26.712509C191.323227 26.152039,191.638168 25.391891,191.638168 24.599197Z" style="fill: rgb(100.000000%,100.000000%,100.000000%);stroke: none;"></path>
  <path d="M160.438324 2.044052C160.438324 1.251358,160.123383 0.491211,159.562897 -0.069260C159.002426 -0.629745,158.242279 -0.944687,157.449585 -0.944687C156.656891 -0.944687,155.896744 -0.629745,155.336273 -0.069260C154.775787 0.491211,154.460846 1.251358,154.460846 2.044052C154.460846 2.836746,154.775787 3.596893,155.336273 4.157364C155.896744 4.717850,156.656891 5.032791,157.449585 5.032791C158.242279 5.032791,159.002426 4.717850,159.562897 4.157364C160.123383 3.596893,160.438324 2.836746,160.438324 2.044052Z" style="fill: rgb(100.000000%,100.000000%,100.000000%);stroke: none;"></path>
  <path d="M176.680023 74.313583C176.680023 73.520889,176.365082 72.760742,175.804596 72.200272C175.244125 71.639786,174.483978 71.324844,173.691284 71.324844C172.898590 71.324844,172.138443 71.639786,171.577972 72.200272C171.017487 72.760742,170.702545 73.520889,170.702545 74.313583C170.702545 75.106277,171.017487 75.866425,171.577972 76.426895C172.138443 76.987381,172.898590 77.302322,173.691284 77.302322C174.483978 77.302322,175.244125 76.987381,175.804596 76.426895C176.365082 75.866425,176.680023 75.106277,176.680023 74.313583Z" style="fill: rgb(100.000000%,100.000000%,100.000000%);stroke: none;"></path>
  <path d="M195.344650 46.702759C195.344650 45.910065,195.029709 45.149918,194.469223 44.589447C193.908752 44.028961,193.148605 43.714020,192.355911 43.714020C191.563217 43.714020,190.803070 44.028961,190.242599 44.589447C189.682114 45.149918,189.367172 45.910065,189.367172 46.702759C189.367172 47.495453,189.682114 48.255600,190.242599 48.816071C190.803070 49.376556,191.563217 49.691498,192.355911 49.691498C193.148605 49.691498,193.908752 49.376556,194.469223 48.816071C195.029709 48.255600,195.344650 47.495453,195.344650 46.702759Z" style="fill: rgb(100.000000%,100.000000%,100.000000%);stroke: none;"></path>
  <path d="M142.496460 84.250290C142.496460 83.457596,142.181519 82.697449,141.621033 82.136978C141.060562 81.576492,140.300415 81.261551,139.507721 81.261551C138.715027 81.261551,137.954880 81.576492,137.394409 82.136978C136.833923 82.697449,136.518982 83.457596,136.518982 84.250290C136.518982 85.042984,136.833923 85.803131,137.394409 86.363602C137.954880 86.924088,138.715027 87.239029,139.507721 87.239029C140.300415 87.239029,141.060562 86.924088,141.621033 86.363602C142.181519 85.803131,142.496460 85.042984,142.496460 84.250290Z" style="fill: rgb(100.000000%,100.000000%,100.000000%);stroke: none;"></path>
  <path d="M163.542404 79.930328C163.542404 79.137634,163.227463 78.377487,162.666977 77.817017C162.106506 77.256531,161.346359 76.941589,160.553665 76.941589C159.760971 76.941589,159.000824 77.256531,158.440353 77.817017C157.879868 78.377487,157.564926 79.137634,157.564926 79.930328C157.564926 80.723022,157.879868 81.483170,158.440353 82.043640C159.000824 82.604126,159.760971 82.919067,160.553665 82.919067C161.346359 82.919067,162.106506 82.604126,162.666977 82.043640C163.227463 81.483170,163.542404 80.723022,163.542404 79.930328Z" style="fill: rgb(100.000000%,100.000000%,100.000000%);stroke: none;"></path>
  <path d="M121.701126 86.703125C121.701126 85.910431,121.386185 85.150284,120.825699 84.589813C120.265228 84.029327,119.505081 83.714386,118.712387 83.714386C117.919693 83.714386,117.159546 84.029327,116.599075 84.589813C116.038589 85.150284,115.723648 85.910431,115.723648 86.703125C115.723648 87.495819,116.038589 88.255966,116.599075 88.816437C117.159546 89.376923,117.919693 89.691864,118.712387 89.691864C119.505081 89.691864,120.265228 89.376923,120.825699 88.816437C121.386185 88.255966,121.701126 87.495819,121.701126 86.703125Z" style="fill: rgb(100.000000%,100.000000%,100.000000%);stroke: none;"></path>
  <path d="M134.718231 84.972153C134.718231 84.179459,134.403290 83.419312,133.842804 82.858841C133.282333 82.298355,132.522186 81.983414,131.729492 81.983414C130.936798 81.983414,130.176651 82.298355,129.616180 82.858841C129.055695 83.419312,128.740753 84.179459,128.740753 84.972153C128.740753 85.764847,129.055695 86.524994,129.616180 87.085464C130.176651 87.645950,130.936798 87.960892,131.729492 87.960892C132.522186 87.960892,133.282333 87.645950,133.842804 87.085464C134.403290 86.524994,134.718231 85.764847,134.718231 84.972153Z" style="fill: rgb(100.000000%,100.000000%,100.000000%);stroke: none;"></path>
  <path d="M108.373184 93.544189C108.373184 92.751495,108.058243 91.991348,107.497757 91.430878C106.937286 90.870392,106.177139 90.555450,105.384445 90.555450C104.591751 90.555450,103.831604 90.870392,103.271133 91.430878C102.710648 91.991348,102.395706 92.751495,102.395706 93.544189C102.395706 94.336884,102.710648 95.097031,103.271133 95.657501C103.831604 96.217987,104.591751 96.532928,105.384445 96.532928C106.177139 96.532928,106.937286 96.217987,107.497757 95.657501C108.058243 95.097031,108.373184 94.336884,108.373184 93.544189Z" style="fill: rgb(100.000000%,100.000000%,100.000000%);stroke: none;"></path>
  <path d="M116.287125 87.616455C116.287125 86.823761,115.972183 86.063614,115.411697 85.503143C114.851227 84.942657,114.091080 84.627716,113.298386 84.627716C112.505692 84.627716,111.745544 84.942657,111.185074 85.503143C110.624588 86.063614,110.309647 86.823761,110.309647 87.616455C110.309647 88.409149,110.624588 89.169296,111.185074 89.729767C111.745544 90.290253,112.505692 90.605194,113.298386 90.605194C114.091080 90.605194,114.851227 90.290253,115.411697 89.729767C115.972183 89.169296,116.287125 88.409149,116.287125 87.616455Z" style="fill: rgb(100.000000%,100.000000%,100.000000%);stroke: none;"></path>
  <path d="M103.255051 104.493256C103.255051 103.700562,102.940109 102.940414,102.379623 102.379944C101.819153 101.819458,101.059006 101.504517,100.266312 101.504517C99.473618 101.504517,98.713470 101.819458,98.153000 102.379944C97.592514 102.940414,97.277573 103.700562,97.277573 104.493256C97.277573 105.285950,97.592514 106.046097,98.153000 106.606567C98.713470 107.167053,99.473618 107.481995,100.266312 107.481995C101.059006 107.481995,101.819153 107.167053,102.379623 106.606567C102.940109 106.046097,103.255051 105.285950,103.255051 104.493256Z" style="fill: rgb(100.000000%,100.000000%,100.000000%);stroke: none;"></path>
  <path d="M106.057404 97.570770C106.057404 96.778076,105.742462 96.017929,105.181976 95.457458C104.621506 94.896973,103.861359 94.582031,103.068665 94.582031C102.275970 94.582031,101.515823 94.896973,100.955353 95.457458C100.394867 96.017929,100.079926 96.778076,100.079926 97.570770C100.079926 98.363464,100.394867 99.123611,100.955353 99.684082C101.515823 100.244568,102.275970 100.559509,103.068665 100.559509C103.861359 100.559509,104.621506 100.244568,105.181976 99.684082C105.742462 99.123611,106.057404 98.363464,106.057404 97.570770Z" style="fill: rgb(100.000000%,100.000000%,100.000000%);stroke: none;"></path>
  <path d="M96.446472 109.280350C96.446472 108.487656,96.131531 107.727509,95.571045 107.167038C95.010574 106.606552,94.250427 106.291611,93.457733 106.291611C92.665039 106.291611,91.904892 106.606552,91.344421 107.167038C90.783936 107.727509,90.468994 108.487656,90.468994 109.280350C90.468994 110.073044,90.783936 110.833191,91.344421 111.393661C91.904892 111.954147,92.665039 112.269089,93.457733 112.269089C94.250427 112.269089,95.010574 111.954147,95.571045 111.393661C96.131531 110.833191,96.446472 110.073044,96.446472 109.280350Z" style="fill: rgb(100.000000%,100.000000%,100.000000%);stroke: none;"></path>
  <path d="M102.112045 107.486649C102.112045 106.693954,101.797104 105.933807,101.236618 105.373337C100.676147 104.812851,99.916000 104.497910,99.123306 104.497910C98.330612 104.497910,97.570465 104.812851,97.009995 105.373337C96.449509 105.933807,96.134567 106.693954,96.134567 107.486649C96.134567 108.279343,96.449509 109.039490,97.009995 109.599960C97.570465 110.160446,98.330612 110.475388,99.123306 110.475388C99.916000 110.475388,100.676147 110.160446,101.236618 109.599960C101.797104 109.039490,102.112045 108.279343,102.112045 107.486649Z" style="fill: rgb(100.000000%,100.000000%,100.000000%);stroke: none;"></path>
  <path d="M85.214447 101.416656C85.214447 100.623962,84.899506 99.863815,84.339020 99.303345C83.778549 98.742859,83.018402 98.427917,82.225708 98.427917C81.433014 98.427917,80.672867 98.742859,80.112396 99.303345C79.551910 99.863815,79.236969 100.623962,79.236969 101.416656C79.236969 102.209351,79.551910 102.969498,80.112396 103.529968C80.672867 104.090454,81.433014 104.405396,82.225708 104.405396C83.018402 104.405396,83.778549 104.090454,84.339020 103.529968C84.899506 102.969498,85.214447 102.209351,85.214447 101.416656Z" style="fill: rgb(100.000000%,100.000000%,100.000000%);stroke: none;"></path>
  <path d="M93.710434 107.304352C93.710434 106.511658,93.395493 105.751511,92.835007 105.191040C92.274536 104.630554,91.514389 104.315613,90.721695 104.315613C89.929001 104.315613,89.168854 104.630554,88.608383 105.191040C88.047897 105.751511,87.732956 106.511658,87.732956 107.304352C87.732956 108.097046,88.047897 108.857193,88.608383 109.417664C89.168854 109.978149,89.929001 110.293091,90.721695 110.293091C91.514389 110.293091,92.274536 109.978149,92.835007 109.417664C93.395493 108.857193,93.710434 108.097046,93.710434 107.304352Z" style="fill: rgb(100.000000%,100.000000%,100.000000%);stroke: none;"></path>
  <path d="M58.852631 91.002075C58.852631 90.209381,58.537689 89.449234,57.977203 88.888763C57.416733 88.328278,56.656586 88.013336,55.863892 88.013336C55.071198 88.013336,54.311050 88.328278,53.750580 88.888763C53.190094 89.449234,52.875153 90.209381,52.875153 91.002075C52.875153 91.794769,53.190094 92.554916,53.750580 93.115387C54.311050 93.675873,55.071198 93.990814,55.863892 93.990814C56.656586 93.990814,57.416733 93.675873,57.977203 93.115387C58.537689 92.554916,58.852631 91.794769,58.852631 91.002075Z" style="fill: rgb(100.000000%,100.000000%,100.000000%);stroke: none;"></path>
  <path d="M78.431671 98.692184C78.431671 97.899490,78.116730 97.139343,77.556244 96.578873C76.995773 96.018387,76.235626 95.703445,75.442932 95.703445C74.650238 95.703445,73.890091 96.018387,73.329620 96.578873C72.769135 97.139343,72.454193 97.899490,72.454193 98.692184C72.454193 99.484879,72.769135 100.245026,73.329620 100.805496C73.890091 101.365982,74.650238 101.680923,75.442932 101.680923C76.235626 101.680923,76.995773 101.365982,77.556244 100.805496C78.116730 100.245026,78.431671 99.484879,78.431671 98.692184Z" style="fill: rgb(100.000000%,100.000000%,100.000000%);stroke: none;"></path>
  <path d="M14.221222 96.809738C14.221222 96.017044,13.906281 95.256897,13.345795 94.696426C12.785324 94.135941,12.025177 93.820999,11.232483 93.820999C10.439789 93.820999,9.679642 94.135941,9.119171 94.696426C8.558685 95.256897,8.243744 96.017044,8.243744 96.809738C8.243744 97.602432,8.558685 98.362579,9.119171 98.923050C9.679642 99.483536,10.439789 99.798477,11.232483 99.798477C12.025177 99.798477,12.785324 99.483536,13.345795 98.923050C13.906281 98.362579,14.221222 97.602432,14.221222 96.809738Z" style="fill: rgb(100.000000%,100.000000%,100.000000%);stroke: none;"></path>
  <path d="M45.139481 86.192841C45.139481 85.400146,44.824539 84.639999,44.264053 84.079529C43.703583 83.519043,42.943436 83.204102,42.150742 83.204102C41.358047 83.204102,40.597900 83.519043,40.037430 84.079529C39.476944 84.639999,39.162003 85.400146,39.162003 86.192841C39.162003 86.985535,39.476944 87.745682,40.037430 88.306152C40.597900 88.866638,41.358047 89.181580,42.150742 89.181580C42.943436 89.181580,43.703583 88.866638,44.264053 88.306152C44.824539 87.745682,45.139481 86.985535,45.139481 86.192841Z" style="fill: rgb(100.000000%,100.000000%,100.000000%);stroke: none;"></path>
  <path d="M14.574615 153.458694C14.574615 152.666000,14.259674 151.905853,13.699188 151.345383C13.138718 150.784897,12.378571 150.469955,11.585876 150.469955C10.793182 150.469955,10.033035 150.784897,9.472565 151.345383C8.912079 151.905853,8.597137 152.666000,8.597137 153.458694C8.597137 154.251389,8.912079 155.011536,9.472565 155.572006C10.033035 156.132492,10.793182 156.447433,11.585876 156.447433C12.378571 156.447433,13.138718 156.132492,13.699188 155.572006C14.259674 155.011536,14.574615 154.251389,14.574615 153.458694Z" style="fill: rgb(100.000000%,100.000000%,100.000000%);stroke: none;"></path>
  <path d="M5.427307 116.624863C5.427307 115.832169,5.112366 115.072021,4.551880 114.511551C3.991409 113.951065,3.231262 113.636124,2.438568 113.636124C1.645874 113.636124,0.885727 113.951065,0.325256 114.511551C-0.235229 115.072021,-0.550171 115.832169,-0.550171 116.624863C-0.550171 117.417557,-0.235229 118.177704,0.325256 118.738174C0.885727 119.298660,1.645874 119.613602,2.438568 119.613602C3.231262 119.613602,3.991409 119.298660,4.551880 118.738174C5.112366 118.177704,5.427307 117.417557,5.427307 116.624863Z" style="fill: rgb(100.000000%,100.000000%,100.000000%);stroke: none;"></path>
  <path d="M60.292755 160.414215C60.292755 159.621521,59.977814 158.861374,59.417328 158.300903C58.856857 157.740417,58.096710 157.425476,57.304016 157.425476C56.511322 157.425476,55.751175 157.740417,55.190704 158.300903C54.630219 158.861374,54.315277 159.621521,54.315277 160.414215C54.315277 161.206909,54.630219 161.967056,55.190704 162.527527C55.751175 163.088013,56.511322 163.402954,57.304016 163.402954C58.096710 163.402954,58.856857 163.088013,59.417328 162.527527C59.977814 161.967056,60.292755 161.206909,60.292755 160.414215Z" style="fill: rgb(100.000000%,100.000000%,100.000000%);stroke: none;"></path>
  <path d="M30.774521 166.476425C30.774521 165.683731,30.459579 164.923584,29.899094 164.363113C29.338623 163.802628,28.578476 163.487686,27.785782 163.487686C26.993088 163.487686,26.232941 163.802628,25.672470 164.363113C25.111984 164.923584,24.797043 165.683731,24.797043 166.476425C24.797043 167.269119,25.111984 168.029266,25.672470 168.589737C26.232941 169.150223,26.993088 169.465164,27.785782 169.465164C28.578476 169.465164,29.338623 169.150223,29.899094 168.589737C30.459579 168.029266,30.774521 167.269119,30.774521 166.476425Z" style="fill: rgb(100.000000%,100.000000%,100.000000%);stroke: none;"></path>
  <path d="M83.065887 138.961411C83.065887 138.168716,82.750946 137.408569,82.190460 136.848099C81.629990 136.287613,80.869843 135.972672,80.077148 135.972672C79.284454 135.972672,78.524307 136.287613,77.963837 136.848099C77.403351 137.408569,77.088409 138.168716,77.088409 138.961411C77.088409 139.754105,77.403351 140.514252,77.963837 141.074722C78.524307 141.635208,79.284454 141.950150,80.077148 141.950150C80.869843 141.950150,81.629990 141.635208,82.190460 141.074722C82.750946 140.514252,83.065887 139.754105,83.065887 138.961411Z" style="fill: rgb(100.000000%,100.000000%,100.000000%);stroke: none;"></path>
  <path d="M68.396835 150.167847C68.396835 149.375153,68.081894 148.615005,67.521408 148.054535C66.960938 147.494049,66.200790 147.179108,65.408096 147.179108C64.615402 147.179108,63.855255 147.494049,63.294785 148.054535C62.734299 148.615005,62.419357 149.375153,62.419357 150.167847C62.419357 150.960541,62.734299 151.720688,63.294785 152.281158C63.855255 152.841644,64.615402 153.156586,65.408096 153.156586C66.200790 153.156586,66.960938 152.841644,67.521408 152.281158C68.081894 151.720688,68.396835 150.960541,68.396835 150.167847Z" style="fill: rgb(100.000000%,100.000000%,100.000000%);stroke: none;"></path>
  <path d="M95.398483 129.555420C95.398483 128.762726,95.083542 128.002579,94.523056 127.442108C93.962585 126.881622,93.202438 126.566681,92.409744 126.566681C91.617050 126.566681,90.856903 126.881622,90.296432 127.442108C89.735947 128.002579,89.421005 128.762726,89.421005 129.555420C89.421005 130.348114,89.735947 131.108261,90.296432 131.668732C90.856903 132.229218,91.617050 132.544159,92.409744 132.544159C93.202438 132.544159,93.962585 132.229218,94.523056 131.668732C95.083542 131.108261,95.398483 130.348114,95.398483 129.555420Z" style="fill: rgb(100.000000%,100.000000%,100.000000%);stroke: none;"></path>
  <path d="M88.616119 135.858932C88.616119 135.066238,88.301178 134.306091,87.740692 133.745621C87.180222 133.185135,86.420074 132.870193,85.627380 132.870193C84.834686 132.870193,84.074539 133.185135,83.514069 133.745621C82.953583 134.306091,82.638641 135.066238,82.638641 135.858932C82.638641 136.651627,82.953583 137.411774,83.514069 137.972244C84.074539 138.532730,84.834686 138.847672,85.627380 138.847672C86.420074 138.847672,87.180222 138.532730,87.740692 137.972244C88.301178 137.411774,88.616119 136.651627,88.616119 135.858932Z" style="fill: rgb(100.000000%,100.000000%,100.000000%);stroke: none;"></path>
  <path d="M103.424881 128.403305C103.424881 127.610611,103.109940 126.850464,102.549454 126.289993C101.988983 125.729507,101.228836 125.414566,100.436142 125.414566C99.643448 125.414566,98.883301 125.729507,98.322830 126.289993C97.762344 126.850464,97.447403 127.610611,97.447403 128.403305C97.447403 129.195999,97.762344 129.956146,98.322830 130.516617C98.883301 131.077103,99.643448 131.392044,100.436142 131.392044C101.228836 131.392044,101.988983 131.077103,102.549454 130.516617C103.109940 129.956146,103.424881 129.195999,103.424881 128.403305Z" style="fill: rgb(100.000000%,100.000000%,100.000000%);stroke: none;"></path>
  <path d="M97.740128 127.266037C97.740128 126.473343,97.425186 125.713196,96.864700 125.152725C96.304230 124.592239,95.544083 124.277298,94.751389 124.277298C93.958694 124.277298,93.198547 124.592239,92.638077 125.152725C92.077591 125.713196,91.762650 126.473343,91.762650 127.266037C91.762650 128.058731,92.077591 128.818878,92.638077 129.379349C93.198547 129.939835,93.958694 130.254776,94.751389 130.254776C95.544083 130.254776,96.304230 129.939835,96.864700 129.379349C97.425186 128.818878,97.740128 128.058731,97.740128 127.266037Z" style="fill: rgb(100.000000%,100.000000%,100.000000%);stroke: none;"></path>
  <path d="M108.293976 138.827911C108.293976 138.035217,107.979034 137.275070,107.418549 136.714600C106.858078 136.154114,106.097931 135.839172,105.305237 135.839172C104.512543 135.839172,103.752396 136.154114,103.191925 136.714600C102.631439 137.275070,102.316498 138.035217,102.316498 138.827911C102.316498 139.620605,102.631439 140.380753,103.191925 140.941223C103.752396 141.501709,104.512543 141.816650,105.305237 141.816650C106.097931 141.816650,106.858078 141.501709,107.418549 140.941223C107.979034 140.380753,108.293976 139.620605,108.293976 138.827911Z" style="fill: rgb(100.000000%,100.000000%,100.000000%);stroke: none;"></path>
  <path d="M104.714417 131.350449C104.714417 130.557755,104.399475 129.797607,103.838989 129.237137C103.278519 128.676651,102.518372 128.361710,101.725677 128.361710C100.932983 128.361710,100.172836 128.676651,99.612366 129.237137C99.051880 129.797607,98.736938 130.557755,98.736938 131.350449C98.736938 132.143143,99.051880 132.903290,99.612366 133.463760C100.172836 134.024246,100.932983 134.339188,101.725677 134.339188C102.518372 134.339188,103.278519 134.024246,103.838989 133.463760C104.399475 132.903290,104.714417 132.143143,104.714417 131.350449Z" style="fill: rgb(100.000000%,100.000000%,100.000000%);stroke: none;"></path>
  <path d="M122.916153 155.937973C122.916153 155.145279,122.601212 154.385132,122.040726 153.824661C121.480255 153.264175,120.720108 152.949234,119.927414 152.949234C119.134720 152.949234,118.374573 153.264175,117.814102 153.824661C117.253616 154.385132,116.938675 155.145279,116.938675 155.937973C116.938675 156.730667,117.253616 157.490814,117.814102 158.051285C118.374573 158.611771,119.134720 158.926712,119.927414 158.926712C120.720108 158.926712,121.480255 158.611771,122.040726 158.051285C122.601212 157.490814,122.916153 156.730667,122.916153 155.937973Z" style="fill: rgb(100.000000%,100.000000%,100.000000%);stroke: none;"></path>
  <path d="M111.626007 143.092484C111.626007 142.299789,111.311066 141.539642,110.750580 140.979172C110.190109 140.418686,109.429962 140.103745,108.637268 140.103745C107.844574 140.103745,107.084427 140.418686,106.523956 140.979172C105.963470 141.539642,105.648529 142.299789,105.648529 143.092484C105.648529 143.885178,105.963470 144.645325,106.523956 145.205795C107.084427 145.766281,107.844574 146.081223,108.637268 146.081223C109.429962 146.081223,110.190109 145.766281,110.750580 145.205795C111.311066 144.645325,111.626007 143.885178,111.626007 143.092484Z" style="fill: rgb(100.000000%,100.000000%,100.000000%);stroke: none;"></path>
  <path d="M165.498184 166.419571C165.498184 165.626877,165.183243 164.866730,164.622757 164.306259C164.062286 163.745773,163.302139 163.430832,162.509445 163.430832C161.716751 163.430832,160.956604 163.745773,160.396133 164.306259C159.835648 164.866730,159.520706 165.626877,159.520706 166.419571C159.520706 167.212265,159.835648 167.972412,160.396133 168.532883C160.956604 169.093369,161.716751 169.408310,162.509445 169.408310C163.302139 169.408310,164.062286 169.093369,164.622757 168.532883C165.183243 167.972412,165.498184 167.212265,165.498184 166.419571Z" style="fill: rgb(100.000000%,100.000000%,100.000000%);stroke: none;"></path>
  <path d="M132.272766 163.944168C132.272766 163.151474,131.957825 162.391327,131.397339 161.830856C130.836868 161.270370,130.076721 160.955429,129.284027 160.955429C128.491333 160.955429,127.731186 161.270370,127.170715 161.830856C126.610229 162.391327,126.295288 163.151474,126.295288 163.944168C126.295288 164.736862,126.610229 165.497009,127.170715 166.057480C127.731186 166.617966,128.491333 166.932907,129.284027 166.932907C130.076721 166.932907,130.836868 166.617966,131.397339 166.057480C131.957825 165.497009,132.272766 164.736862,132.272766 163.944168Z" style="fill: rgb(100.000000%,100.000000%,100.000000%);stroke: none;"></path>
  <path d="M197.966553 102.761032C197.966553 101.968338,197.651611 101.208191,197.091125 100.647720C196.530655 100.087234,195.770508 99.772293,194.977814 99.772293C194.185120 99.772293,193.424973 100.087234,192.864502 100.647720C192.304016 101.208191,191.989075 101.968338,191.989075 102.761032C191.989075 103.553726,192.304016 104.313873,192.864502 104.874344C193.424973 105.434830,194.185120 105.749771,194.977814 105.749771C195.770508 105.749771,196.530655 105.434830,197.091125 104.874344C197.651611 104.313873,197.966553 103.553726,197.966553 102.761032Z" style="fill: rgb(100.000000%,100.000000%,100.000000%);stroke: none;"></path>
  <path d="M179.784012 145.893051C179.784012 145.100357,179.469070 144.340210,178.908585 143.779739C178.348114 143.219254,177.587967 142.904312,176.795273 142.904312C176.002579 142.904312,175.242432 143.219254,174.681961 143.779739C174.121475 144.340210,173.806534 145.100357,173.806534 145.893051C173.806534 146.685745,174.121475 147.445892,174.681961 148.006363C175.242432 148.566849,176.002579 148.881790,176.795273 148.881790C177.587967 148.881790,178.348114 148.566849,178.908585 148.006363C179.469070 147.445892,179.784012 146.685745,179.784012 145.893051Z" style="fill: rgb(100.000000%,100.000000%,100.000000%);stroke: none;"></path>
  <path d="M174.549103 55.553253C174.549103 54.760559,174.234161 54.000412,173.673676 53.439941C173.113205 52.879456,172.353058 52.564514,171.560364 52.564514C170.767670 52.564514,170.007523 52.879456,169.447052 53.439941C168.886566 54.000412,168.571625 54.760559,168.571625 55.553253C168.571625 56.345947,168.886566 57.106094,169.447052 57.666565C170.007523 58.227051,170.767670 58.541992,171.560364 58.541992C172.353058 58.541992,173.113205 58.227051,173.673676 57.666565C174.234161 57.106094,174.549103 56.345947,174.549103 55.553253Z" style="fill: rgb(100.000000%,100.000000%,100.000000%);stroke: none;"></path>
  <path d="M202.242935 76.654068C202.242935 75.861374,201.927994 75.101227,201.367508 74.540756C200.807037 73.980270,200.046890 73.665329,199.254196 73.665329C198.461502 73.665329,197.701355 73.980270,197.140884 74.540756C196.580399 75.101227,196.265457 75.861374,196.265457 76.654068C196.265457 77.446762,196.580399 78.206909,197.140884 78.767380C197.701355 79.327866,198.461502 79.642807,199.254196 79.642807C200.046890 79.642807,200.807037 79.327866,201.367508 78.767380C201.927994 78.206909,202.242935 77.446762,202.242935 76.654068Z" style="fill: rgb(100.000000%,100.000000%,100.000000%);stroke: none;"></path>
  <path d="M140.732590 40.887543C140.732590 40.094849,140.417648 39.334702,139.857162 38.774231C139.296692 38.213745,138.536545 37.898804,137.743851 37.898804C136.951157 37.898804,136.191010 38.213745,135.630539 38.774231C135.070053 39.334702,134.755112 40.094849,134.755112 40.887543C134.755112 41.680237,135.070053 42.440384,135.630539 43.000854C136.191010 43.561340,136.951157 43.876282,137.743851 43.876282C138.536545 43.876282,139.296692 43.561340,139.857162 43.000854C140.417648 42.440384,140.732590 41.680237,140.732590 40.887543Z" style="fill: rgb(100.000000%,100.000000%,100.000000%);stroke: none;"></path>
  <path d="M160.794983 55.954254C160.794983 55.161560,160.480042 54.401413,159.919556 53.840942C159.359085 53.280457,158.598938 52.965515,157.806244 52.965515C157.013550 52.965515,156.253403 53.280457,155.692932 53.840942C155.132446 54.401413,154.817505 55.161560,154.817505 55.954254C154.817505 56.746948,155.132446 57.507095,155.692932 58.067566C156.253403 58.628052,157.013550 58.942993,157.806244 58.942993C158.598938 58.942993,159.359085 58.628052,159.919556 58.067566C160.480042 57.507095,160.794983 56.746948,160.794983 55.954254Z" style="fill: rgb(100.000000%,100.000000%,100.000000%);stroke: none;"></path>
  <path d="M108.254166 5.946808C108.254166 5.154114,107.939224 4.393967,107.378738 3.833496C106.818268 3.273010,106.058121 2.958069,105.265427 2.958069C104.472733 2.958069,103.712585 3.273010,103.152115 3.833496C102.591629 4.393967,102.276688 5.154114,102.276688 5.946808C102.276688 6.739502,102.591629 7.499649,103.152115 8.060120C103.712585 8.620605,104.472733 8.935547,105.265427 8.935547C106.058121 8.935547,106.818268 8.620605,107.378738 8.060120C107.939224 7.499649,108.254166 6.739502,108.254166 5.946808Z" style="fill: rgb(100.000000%,100.000000%,100.000000%);stroke: none;"></path>
  <path d="M137.421432 26.773987C137.421432 25.981293,137.106491 25.221146,136.546005 24.660675C135.985535 24.100189,135.225388 23.785248,134.432693 23.785248C133.639999 23.785248,132.879852 24.100189,132.319382 24.660675C131.758896 25.221146,131.443954 25.981293,131.443954 26.773987C131.443954 27.566681,131.758896 28.326828,132.319382 28.887299C132.879852 29.447784,133.639999 29.762726,134.432693 29.762726C135.225388 29.762726,135.985535 29.447784,136.546005 28.887299C137.106491 28.326828,137.421432 27.566681,137.421432 26.773987Z" style="fill: rgb(100.000000%,100.000000%,100.000000%);stroke: none;"></path>
  <path d="M45.227158 48.984390C45.227158 48.191696,44.912216 47.431549,44.351730 46.871078C43.791260 46.310593,43.031113 45.995651,42.238419 45.995651C41.445724 45.995651,40.685577 46.310593,40.125107 46.871078C39.564621 47.431549,39.249680 48.191696,39.249680 48.984390C39.249680 49.777084,39.564621 50.537231,40.125107 51.097702C40.685577 51.658188,41.445724 51.973129,42.238419 51.973129C43.031113 51.973129,43.791260 51.658188,44.351730 51.097702C44.912216 50.537231,45.227158 49.777084,45.227158 48.984390Z" style="fill: rgb(100.000000%,100.000000%,100.000000%);stroke: none;"></path>
  <path d="M84.575989 19.278015C84.575989 18.485321,84.261047 17.725174,83.700562 17.164703C83.140091 16.604218,82.379944 16.289276,81.587250 16.289276C80.794556 16.289276,80.034409 16.604218,79.473938 17.164703C78.913452 17.725174,78.598511 18.485321,78.598511 19.278015C78.598511 20.070709,78.913452 20.830856,79.473938 21.391327C80.034409 21.951813,80.794556 22.266754,81.587250 22.266754C82.379944 22.266754,83.140091 21.951813,83.700562 21.391327C84.261047 20.830856,84.575989 20.070709,84.575989 19.278015Z" style="fill: rgb(100.000000%,100.000000%,100.000000%);stroke: none;"></path>
  <path d="M35.985031 103.426086C35.985031 102.633392,35.670090 101.873245,35.109604 101.312775C34.549133 100.752289,33.788986 100.437347,32.996292 100.437347C32.203598 100.437347,31.443451 100.752289,30.882980 101.312775C30.322495 101.873245,30.007553 102.633392,30.007553 103.426086C30.007553 104.218781,30.322495 104.978928,30.882980 105.539398C31.443451 106.099884,32.203598 106.414825,32.996292 106.414825C33.788986 106.414825,34.549133 106.099884,35.109604 105.539398C35.670090 104.978928,35.985031 104.218781,35.985031 103.426086Z" style="fill: rgb(100.000000%,100.000000%,100.000000%);stroke: none;"></path>
  <path d="M25.266953 68.054642C25.266953 67.261948,24.952011 66.501801,24.391525 65.941330C23.831055 65.380844,23.070908 65.065903,22.278214 65.065903C21.485519 65.065903,20.725372 65.380844,20.164902 65.941330C19.604416 66.501801,19.289474 67.261948,19.289474 68.054642C19.289474 68.847336,19.604416 69.607483,20.164902 70.167953C20.725372 70.728439,21.485519 71.043381,22.278214 71.043381C23.070908 71.043381,23.831055 70.728439,24.391525 70.167953C24.952011 69.607483,25.266953 68.847336,25.266953 68.054642Z" style="fill: rgb(100.000000%,100.000000%,100.000000%);stroke: none;"></path>
  <path d="M53.940842 137.667328C53.940842 136.874634,53.625900 136.114487,53.065414 135.554016C52.504944 134.993530,51.744797 134.678589,50.952103 134.678589C50.159409 134.678589,49.399261 134.993530,48.838791 135.554016C48.278305 136.114487,47.963364 136.874634,47.963364 137.667328C47.963364 138.460022,48.278305 139.220169,48.838791 139.780640C49.399261 140.341125,50.159409 140.656067,50.952103 140.656067C51.744797 140.656067,52.504944 140.341125,53.065414 139.780640C53.625900 139.220169,53.940842 138.460022,53.940842 137.667328Z" style="fill: rgb(100.000000%,100.000000%,100.000000%);stroke: none;"></path>
  <path d="M48.762573 111.867401C48.762573 111.074707,48.447632 110.314560,47.887146 109.754089C47.326675 109.193604,46.566528 108.878662,45.773834 108.878662C44.981140 108.878662,44.220993 109.193604,43.660522 109.754089C43.100037 110.314560,42.785095 111.074707,42.785095 111.867401C42.785095 112.660095,43.100037 113.420242,43.660522 113.980713C44.220993 114.541199,44.981140 114.856140,45.773834 114.856140C46.566528 114.856140,47.326675 114.541199,47.887146 113.980713C48.447632 113.420242,48.762573 112.660095,48.762573 111.867401Z" style="fill: rgb(100.000000%,100.000000%,100.000000%);stroke: none;"></path>
  <path d="M51.738739 182.788605C51.738739 181.995911,51.423798 181.235764,50.863312 180.675293C50.302841 180.114807,49.542694 179.799866,48.750000 179.799866C47.957306 179.799866,47.197159 180.114807,46.636688 180.675293C46.076202 181.235764,45.761261 181.995911,45.761261 182.788605C45.761261 183.581299,46.076202 184.341446,46.636688 184.901917C47.197159 185.462402,47.957306 185.777344,48.750000 185.777344C49.542694 185.777344,50.302841 185.462402,50.863312 184.901917C51.423798 184.341446,51.738739 183.581299,51.738739 182.788605Z" style="fill: rgb(100.000000%,100.000000%,100.000000%);stroke: none;"></path>
  <path d="M46.085770 150.187027C46.085770 149.394333,45.770828 148.634186,45.210342 148.073715C44.649872 147.513229,43.889725 147.198288,43.097031 147.198288C42.304337 147.198288,41.544189 147.513229,40.983719 148.073715C40.423233 148.634186,40.108292 149.394333,40.108292 150.187027C40.108292 150.979721,40.423233 151.739868,40.983719 152.300339C41.544189 152.860825,42.304337 153.175766,43.097031 153.175766C43.889725 153.175766,44.649872 152.860825,45.210342 152.300339C45.770828 151.739868,46.085770 150.979721,46.085770 150.187027Z" style="fill: rgb(100.000000%,100.000000%,100.000000%);stroke: none;"></path>
  <path d="M115.979828 191.474213C115.979828 190.681519,115.664886 189.921371,115.104401 189.360901C114.543930 188.800415,113.783783 188.485474,112.991089 188.485474C112.198395 188.485474,111.438248 188.800415,110.877777 189.360901C110.317291 189.921371,110.002350 190.681519,110.002350 191.474213C110.002350 192.266907,110.317291 193.027054,110.877777 193.587524C111.438248 194.148010,112.198395 194.462952,112.991089 194.462952C113.783783 194.462952,114.543930 194.148010,115.104401 193.587524C115.664886 193.027054,115.979828 192.266907,115.979828 191.474213Z" style="fill: rgb(100.000000%,100.000000%,100.000000%);stroke: none;"></path>
  <path d="M73.612976 191.804276C73.612976 191.011581,73.298035 190.251434,72.737549 189.690964C72.177078 189.130478,71.416931 188.815536,70.624237 188.815536C69.831543 188.815536,69.071396 189.130478,68.510925 189.690964C67.950439 190.251434,67.635498 191.011581,67.635498 191.804276C67.635498 192.596970,67.950439 193.357117,68.510925 193.917587C69.071396 194.478073,69.831543 194.793015,70.624237 194.793015C71.416931 194.793015,72.177078 194.478073,72.737549 193.917587C73.298035 193.357117,73.612976 192.596970,73.612976 191.804276Z" style="fill: rgb(100.000000%,100.000000%,100.000000%);stroke: none;"></path>
  <path d="M148.394821 152.398041C148.394821 151.605347,148.079880 150.845200,147.519394 150.284729C146.958923 149.724243,146.198776 149.409302,145.406082 149.409302C144.613388 149.409302,143.853241 149.724243,143.292770 150.284729C142.732285 150.845200,142.417343 151.605347,142.417343 152.398041C142.417343 153.190735,142.732285 153.950882,143.292770 154.511353C143.853241 155.071838,144.613388 155.386780,145.406082 155.386780C146.198776 155.386780,146.958923 155.071838,147.519394 154.511353C148.079880 153.950882,148.394821 153.190735,148.394821 152.398041Z" style="fill: rgb(100.000000%,100.000000%,100.000000%);stroke: none;"></path>
  <path d="M137.138992 183.713287C137.138992 182.920593,136.824051 182.160446,136.263565 181.599976C135.703094 181.039490,134.942947 180.724548,134.150253 180.724548C133.357559 180.724548,132.597412 181.039490,132.036942 181.599976C131.476456 182.160446,131.161514 182.920593,131.161514 183.713287C131.161514 184.505981,131.476456 185.266129,132.036942 185.826599C132.597412 186.387085,133.357559 186.702026,134.150253 186.702026C134.942947 186.702026,135.703094 186.387085,136.263565 185.826599C136.824051 185.266129,137.138992 184.505981,137.138992 183.713287Z" style="fill: rgb(100.000000%,100.000000%,100.000000%);stroke: none;"></path>
  <path d="M131.902252 123.740997C131.902252 122.948303,131.587311 122.188156,131.026825 121.627686C130.466354 121.067200,129.706207 120.752258,128.913513 120.752258C128.120819 120.752258,127.360672 121.067200,126.800201 121.627686C126.239716 122.188156,125.924774 122.948303,125.924774 123.740997C125.924774 124.533691,126.239716 125.293839,126.800201 125.854309C127.360672 126.414795,128.120819 126.729736,128.913513 126.729736C129.706207 126.729736,130.466354 126.414795,131.026825 125.854309C131.587311 125.293839,131.902252 124.533691,131.902252 123.740997Z" style="fill: rgb(100.000000%,100.000000%,100.000000%);stroke: none;"></path>
  <path d="M144.615845 138.764801C144.615845 137.972107,144.300903 137.211960,143.740417 136.651489C143.179947 136.091003,142.419800 135.776062,141.627106 135.776062C140.834412 135.776062,140.074265 136.091003,139.513794 136.651489C138.953308 137.211960,138.638367 137.972107,138.638367 138.764801C138.638367 139.557495,138.953308 140.317642,139.513794 140.878113C140.074265 141.438599,140.834412 141.753540,141.627106 141.753540C142.419800 141.753540,143.179947 141.438599,143.740417 140.878113C144.300903 140.317642,144.615845 139.557495,144.615845 138.764801Z" style="fill: rgb(100.000000%,100.000000%,100.000000%);stroke: none;"></path>
  <path d="M118.348831 113.887634C118.348831 113.094940,118.033890 112.334793,117.473404 111.774323C116.912933 111.213837,116.152786 110.898895,115.360092 110.898895C114.567398 110.898895,113.807251 111.213837,113.246780 111.774323C112.686295 112.334793,112.371353 113.094940,112.371353 113.887634C112.371353 114.680328,112.686295 115.440475,113.246780 116.000946C113.807251 116.561432,114.567398 116.876373,115.360092 116.876373C116.152786 116.876373,116.912933 116.561432,117.473404 116.000946C118.033890 115.440475,118.348831 114.680328,118.348831 113.887634Z" style="fill: rgb(100.000000%,100.000000%,100.000000%);stroke: none;"></path>
  <path d="M126.797226 119.820053C126.797226 119.027359,126.482285 118.267212,125.921799 117.706741C125.361328 117.146255,124.601181 116.831314,123.808487 116.831314C123.015793 116.831314,122.255646 117.146255,121.695175 117.706741C121.134689 118.267212,120.819748 119.027359,120.819748 119.820053C120.819748 120.612747,121.134689 121.372894,121.695175 121.933365C122.255646 122.493851,123.015793 122.808792,123.808487 122.808792C124.601181 122.808792,125.361328 122.493851,125.921799 121.933365C126.482285 121.372894,126.797226 120.612747,126.797226 119.820053Z" style="fill: rgb(100.000000%,100.000000%,100.000000%);stroke: none;"></path>
  <path d="M109.198212 107.041840C109.198212 106.249146,108.883270 105.488998,108.322784 104.928528C107.762314 104.368042,107.002167 104.053101,106.209473 104.053101C105.416779 104.053101,104.656631 104.368042,104.096161 104.928528C103.535675 105.488998,103.220734 106.249146,103.220734 107.041840C103.220734 107.834534,103.535675 108.594681,104.096161 109.155151C104.656631 109.715637,105.416779 110.030579,106.209473 110.030579C107.002167 110.030579,107.762314 109.715637,108.322784 109.155151C108.883270 108.594681,109.198212 107.834534,109.198212 107.041840Z" style="fill: rgb(100.000000%,100.000000%,100.000000%);stroke: none;"></path>
  <path d="M115.074738 111.712814C115.074738 110.920120,114.759796 110.159973,114.199310 109.599503C113.638840 109.039017,112.878693 108.724075,112.085999 108.724075C111.293304 108.724075,110.533157 109.039017,109.972687 109.599503C109.412201 110.159973,109.097260 110.920120,109.097260 111.712814C109.097260 112.505508,109.412201 113.265656,109.972687 113.826126C110.533157 114.386612,111.293304 114.701553,112.085999 114.701553C112.878693 114.701553,113.638840 114.386612,114.199310 113.826126C114.759796 113.265656,115.074738 112.505508,115.074738 111.712814Z" style="fill: rgb(100.000000%,100.000000%,100.000000%);stroke: none;"></path>
  <path d="M102.147720 98.971985C102.147720 98.179291,101.832779 97.419144,101.272293 96.858673C100.711823 96.298187,99.951675 95.983246,99.158981 95.983246C98.366287 95.983246,97.606140 96.298187,97.045670 96.858673C96.485184 97.419144,96.170242 98.179291,96.170242 98.971985C96.170242 99.764679,96.485184 100.524826,97.045670 101.085297C97.606140 101.645782,98.366287 101.960724,99.158981 101.960724C99.951675 101.960724,100.711823 101.645782,101.272293 101.085297C101.832779 100.524826,102.147720 99.764679,102.147720 98.971985Z" style="fill: rgb(100.000000%,100.000000%,100.000000%);stroke: none;"></path>
  <path d="M106.567108 104.593750C106.567108 103.801056,106.252167 103.040909,105.691681 102.480438C105.131210 101.919952,104.371063 101.605011,103.578369 101.605011C102.785675 101.605011,102.025528 101.919952,101.465057 102.480438C100.904572 103.040909,100.589630 103.801056,100.589630 104.593750C100.589630 105.386444,100.904572 106.146591,101.465057 106.707062C102.025528 107.267548,102.785675 107.582489,103.578369 107.582489C104.371063 107.582489,105.131210 107.267548,105.691681 106.707062C106.252167 106.146591,106.567108 105.386444,106.567108 104.593750Z" style="fill: rgb(100.000000%,100.000000%,100.000000%);stroke: none;"></path>
  <path d="M92.646835 97.326538C92.646835 96.533844,92.331894 95.773697,91.771408 95.213226C91.210938 94.652740,90.450790 94.337799,89.658096 94.337799C88.865402 94.337799,88.105255 94.652740,87.544785 95.213226C86.984299 95.773697,86.669357 96.533844,86.669357 97.326538C86.669357 98.119232,86.984299 98.879379,87.544785 99.439850C88.105255 100.000336,88.865402 100.315277,89.658096 100.315277C90.450790 100.315277,91.210938 100.000336,91.771408 99.439850C92.331894 98.879379,92.646835 98.119232,92.646835 97.326538Z" style="fill: rgb(100.000000%,100.000000%,100.000000%);stroke: none;"></path>
  <path d="M99.677353 95.795166C99.677353 95.002472,99.362411 94.242325,98.801926 93.681854C98.241455 93.121368,97.481308 92.806427,96.688614 92.806427C95.895920 92.806427,95.135773 93.121368,94.575302 93.681854C94.014816 94.242325,93.699875 95.002472,93.699875 95.795166C93.699875 96.587860,94.014816 97.348007,94.575302 97.908478C95.135773 98.468964,95.895920 98.783905,96.688614 98.783905C97.481308 98.783905,98.241455 98.468964,98.801926 97.908478C99.362411 97.348007,99.677353 96.587860,99.677353 95.795166Z" style="fill: rgb(100.000000%,100.000000%,100.000000%);stroke: none;"></path>
  <path d="M90.297043 110.069458C90.297043 109.276764,89.982101 108.516617,89.421616 107.956146C88.861145 107.395660,88.100998 107.080719,87.308304 107.080719C86.515610 107.080719,85.755463 107.395660,85.194992 107.956146C84.634506 108.516617,84.319565 109.276764,84.319565 110.069458C84.319565 110.862152,84.634506 111.622299,85.194992 112.182770C85.755463 112.743256,86.515610 113.058197,87.308304 113.058197C88.100998 113.058197,88.861145 112.743256,89.421616 112.182770C89.982101 111.622299,90.297043 110.862152,90.297043 110.069458Z" style="fill: rgb(100.000000%,100.000000%,100.000000%);stroke: none;"></path>
  <path d="M91.942947 101.726166C91.942947 100.933472,91.628006 100.173325,91.067520 99.612854C90.507050 99.052368,89.746902 98.737427,88.954208 98.737427C88.161514 98.737427,87.401367 99.052368,86.840897 99.612854C86.280411 100.173325,85.965469 100.933472,85.965469 101.726166C85.965469 102.518860,86.280411 103.279007,86.840897 103.839478C87.401367 104.399963,88.161514 104.714905,88.954208 104.714905C89.746902 104.714905,90.507050 104.399963,91.067520 103.839478C91.628006 103.279007,91.942947 102.518860,91.942947 101.726166Z" style="fill: rgb(100.000000%,100.000000%,100.000000%);stroke: none;"></path>
  <path d="M89.003738 123.508224C89.003738 122.715530,88.688797 121.955383,88.128311 121.394913C87.567841 120.834427,86.807693 120.519485,86.014999 120.519485C85.222305 120.519485,84.462158 120.834427,83.901688 121.394913C83.341202 121.955383,83.026260 122.715530,83.026260 123.508224C83.026260 124.300919,83.341202 125.061066,83.901688 125.621536C84.462158 126.182022,85.222305 126.496964,86.014999 126.496964C86.807693 126.496964,87.567841 126.182022,88.128311 125.621536C88.688797 125.061066,89.003738 124.300919,89.003738 123.508224Z" style="fill: rgb(100.000000%,100.000000%,100.000000%);stroke: none;"></path>
  <path d="M88.225128 114.412552C88.225128 113.619858,87.910187 112.859711,87.349701 112.299240C86.789230 111.738754,86.029083 111.423813,85.236389 111.423813C84.443695 111.423813,83.683548 111.738754,83.123077 112.299240C82.562592 112.859711,82.247650 113.619858,82.247650 114.412552C82.247650 115.205246,82.562592 115.965393,83.123077 116.525864C83.683548 117.086349,84.443695 117.401291,85.236389 117.401291C86.029083 117.401291,86.789230 117.086349,87.349701 116.525864C87.910187 115.965393,88.225128 115.205246,88.225128 114.412552Z" style="fill: rgb(100.000000%,100.000000%,100.000000%);stroke: none;"></path>
  <path d="M94.394440 134.692062C94.394440 133.899368,94.079498 133.139221,93.519012 132.578751C92.958542 132.018265,92.198395 131.703323,91.405701 131.703323C90.613007 131.703323,89.852859 132.018265,89.292389 132.578751C88.731903 133.139221,88.416962 133.899368,88.416962 134.692062C88.416962 135.484756,88.731903 136.244904,89.292389 136.805374C89.852859 137.365860,90.613007 137.680801,91.405701 137.680801C92.198395 137.680801,92.958542 137.365860,93.519012 136.805374C94.079498 136.244904,94.394440 135.484756,94.394440 134.692062Z" style="fill: rgb(100.000000%,100.000000%,100.000000%);stroke: none;"></path>
  <path d="M91.662781 127.365402C91.662781 126.572708,91.347839 125.812561,90.787354 125.252090C90.226883 124.691605,89.466736 124.376663,88.674042 124.376663C87.881348 124.376663,87.121201 124.691605,86.560730 125.252090C86.000244 125.812561,85.685303 126.572708,85.685303 127.365402C85.685303 128.158096,86.000244 128.918243,86.560730 129.478714C87.121201 130.039200,87.881348 130.354141,88.674042 130.354141C89.466736 130.354141,90.226883 130.039200,90.787354 129.478714C91.347839 128.918243,91.662781 128.158096,91.662781 127.365402Z" style="fill: rgb(100.000000%,100.000000%,100.000000%);stroke: none;"></path>
  <path d="M101.799637 139.306870C101.799637 138.514175,101.484695 137.754028,100.924210 137.193558C100.363739 136.633072,99.603592 136.318130,98.810898 136.318130C98.018204 136.318130,97.258057 136.633072,96.697586 137.193558C96.137100 137.754028,95.822159 138.514175,95.822159 139.306870C95.822159 140.099564,96.137100 140.859711,96.697586 141.420181C97.258057 141.980667,98.018204 142.295609,98.810898 142.295609C99.603592 142.295609,100.363739 141.980667,100.924210 141.420181C101.484695 140.859711,101.799637 140.099564,101.799637 139.306870Z" style="fill: rgb(100.000000%,100.000000%,100.000000%);stroke: none;"></path>
  <path d="M95.520844 138.288879C95.520844 137.496185,95.205902 136.736038,94.645416 136.175568C94.084946 135.615082,93.324799 135.300140,92.532104 135.300140C91.739410 135.300140,90.979263 135.615082,90.418793 136.175568C89.858307 136.736038,89.543365 137.496185,89.543365 138.288879C89.543365 139.081573,89.858307 139.841721,90.418793 140.402191C90.979263 140.962677,91.739410 141.277618,92.532104 141.277618C93.324799 141.277618,94.084946 140.962677,94.645416 140.402191C95.205902 139.841721,95.520844 139.081573,95.520844 138.288879Z" style="fill: rgb(100.000000%,100.000000%,100.000000%);stroke: none;"></path>
  <path d="M108.275436 131.001312C108.275436 130.208618,107.960495 129.448471,107.400009 128.888000C106.839539 128.327515,106.079391 128.012573,105.286697 128.012573C104.494003 128.012573,103.733856 128.327515,103.173386 128.888000C102.612900 129.448471,102.297958 130.208618,102.297958 131.001312C102.297958 131.794006,102.612900 132.554153,103.173386 133.114624C103.733856 133.675110,104.494003 133.990051,105.286697 133.990051C106.079391 133.990051,106.839539 133.675110,107.400009 133.114624C107.960495 132.554153,108.275436 131.794006,108.275436 131.001312Z" style="fill: rgb(100.000000%,100.000000%,100.000000%);stroke: none;"></path>
  <path d="M104.012527 136.502533C104.012527 135.709839,103.697586 134.949692,103.137100 134.389221C102.576630 133.828735,101.816483 133.513794,101.023788 133.513794C100.231094 133.513794,99.470947 133.828735,98.910477 134.389221C98.349991 134.949692,98.035049 135.709839,98.035049 136.502533C98.035049 137.295227,98.349991 138.055374,98.910477 138.615845C99.470947 139.176331,100.231094 139.491272,101.023788 139.491272C101.816483 139.491272,102.576630 139.176331,103.137100 138.615845C103.697586 138.055374,104.012527 137.295227,104.012527 136.502533Z" style="fill: rgb(100.000000%,100.000000%,100.000000%);stroke: none;"></path>
  <path d="M116.220688 122.460663C116.220688 121.667969,115.905746 120.907822,115.345261 120.347351C114.784790 119.786865,114.024643 119.471924,113.231949 119.471924C112.439255 119.471924,111.679108 119.786865,111.118637 120.347351C110.558151 120.907822,110.243210 121.667969,110.243210 122.460663C110.243210 123.253357,110.558151 124.013504,111.118637 124.573975C111.679108 125.134460,112.439255 125.449402,113.231949 125.449402C114.024643 125.449402,114.784790 125.134460,115.345261 124.573975C115.905746 124.013504,116.220688 123.253357,116.220688 122.460663Z" style="fill: rgb(100.000000%,100.000000%,100.000000%);stroke: none;"></path>
  <path d="M110.963791 128.355087C110.963791 127.562393,110.648849 126.802246,110.088364 126.241776C109.527893 125.681290,108.767746 125.366348,107.975052 125.366348C107.182358 125.366348,106.422211 125.681290,105.861740 126.241776C105.301254 126.802246,104.986313 127.562393,104.986313 128.355087C104.986313 129.147781,105.301254 129.907928,105.861740 130.468399C106.422211 131.028885,107.182358 131.343826,107.975052 131.343826C108.767746 131.343826,109.527893 131.028885,110.088364 130.468399C110.648849 129.907928,110.963791 129.147781,110.963791 128.355087Z" style="fill: rgb(100.000000%,100.000000%,100.000000%);stroke: none;"></path>
  <path d="M125.179855 112.239777C125.179855 111.447083,124.864914 110.686935,124.304428 110.126465C123.743958 109.565979,122.983810 109.251038,122.191116 109.251038C121.398422 109.251038,120.638275 109.565979,120.077805 110.126465C119.517319 110.686935,119.202377 111.447083,119.202377 112.239777C119.202377 113.032471,119.517319 113.792618,120.077805 114.353088C120.638275 114.913574,121.398422 115.228516,122.191116 115.228516C122.983810 115.228516,123.743958 114.913574,124.304428 114.353088C124.864914 113.792618,125.179855 113.032471,125.179855 112.239777Z" style="fill: rgb(100.000000%,100.000000%,100.000000%);stroke: none;"></path>
  <path d="M118.750351 119.178604C118.750351 118.385910,118.435410 117.625763,117.874924 117.065292C117.314453 116.504807,116.554306 116.189865,115.761612 116.189865C114.968918 116.189865,114.208771 116.504807,113.648300 117.065292C113.087814 117.625763,112.772873 118.385910,112.772873 119.178604C112.772873 119.971298,113.087814 120.731445,113.648300 121.291916C114.208771 121.852402,114.968918 122.167343,115.761612 122.167343C116.554306 122.167343,117.314453 121.852402,117.874924 121.291916C118.435410 120.731445,118.750351 119.971298,118.750351 119.178604Z" style="fill: rgb(100.000000%,100.000000%,100.000000%);stroke: none;"></path>
  <path d="M126.267258 102.950134C126.138367 97.233810,125.377991 91.549255,124.000000 86.000000C121.939789 77.703415,118.521500 69.800385,116.542099 61.483566C113.037323 46.757553,114.311951 30.830429,124.000000 19.324417C136.195480 4.840454,157.449585 2.044052,172.754898 13.108643C188.649429 24.599197,192.355911 46.702759,181.337357 63.002655C173.691284 74.313583,160.553665 79.930328,147.147583 82.682098C139.507721 84.250290,131.729492 84.972153,124.000000 86.000000C118.712387 86.703125,113.298386 87.616455,109.020844 90.820435C105.384445 93.544189,103.068665 97.570770,101.365280 101.778549C100.266312 104.493256,99.123306 107.486649,96.353561 108.363541C93.457733 109.280350,90.721695 107.304352,88.198700 105.555923C82.225708 101.416656,75.442932 98.692184,68.684814 96.037781C55.863892 91.002075,42.150742 86.192841,29.129257 90.664230C11.232483 96.809738,2.438568 116.624863,7.109421 135.433151C11.585876 153.458694,27.785782 166.476425,45.297928 162.879929C57.304016 160.414215,65.408096 150.167847,75.074936 142.782852C80.077148 138.961411,85.627380 135.858932,90.241791 131.570297C92.409744 129.555420,94.751389 127.266037,97.615219 127.838959C100.436142 128.403305,101.725677 131.350449,102.982193 133.975235C105.305237 138.827911,108.637268 143.092484,112.186508 147.130676C119.927414 155.937973,129.284027 163.944168,140.943756 164.812851C162.509445 166.419571,176.795273 145.893051,185.636765 124.919556C194.977814 102.761032,199.254196 76.654068,181.337357 63.002655C171.560364 55.553253,157.806244 55.954254,147.981049 48.575607C137.743851 40.887543,134.432693 26.773987,124.000000 19.324417C105.265427 5.946808,81.587250 19.278015,62.073532 34.009888C42.238419 48.984390,22.278214 68.054642,29.129257 90.664230C32.996292 103.426086,45.773834 111.867401,48.412994 125.016586C50.952103 137.667328,43.097031 150.187027,45.297928 162.879929C48.750000 182.788605,70.624237 191.804276,92.225525 191.635986C112.991089 191.474213,134.150253 183.713287,140.943756 164.812851C145.406082 152.398041,141.627106 138.764801,133.048706 128.627594C128.913513 123.740997,123.808487 119.820053,118.573441 116.144028C115.360092 113.887634,112.085999 111.712814,109.011871 109.269333C106.209473 107.041840,103.578369 104.593750,101.365280 101.778549C99.158981 98.971985,96.688614 95.795166,93.319000 96.529129C89.658096 97.326538,88.954208 101.726166,88.198700 105.555923C87.308304 110.069458,85.236389 114.412552,85.630569 119.017395C86.014999 123.508224,88.674042 127.365402,90.241791 131.570297C91.405701 134.692062,92.532104 138.288879,95.741470 138.809219C98.810898 139.306870,101.023788 136.502533,102.982193 133.975235C105.286697 131.001312,107.975052 128.355087,110.478546 125.547989C113.231949 122.460663,115.761612 119.178604,118.573441 116.144028C122.191116 112.239777,126.387085 108.264923,126.267258 102.950134" style="stroke:rgb(0.000000%,0.000000%,0.000000%); stroke-width: 0.498138;stroke-linecap: round;stroke-linejoin: round;stroke-miterlimit: 10.000000;fill: none;"></path>
  <path d="M126.267258 102.950134C126.138367 97.233810,125.377991 91.549255,124.000000 86.000000C121.939789 77.703415,118.521500 69.800385,116.542099 61.483566C113.037323 46.757553,114.311951 30.830429,124.000000 19.324417" style="stroke:rgb(0.000000%,0.000000%,0.000000%); stroke-width: 1.494400;stroke-linecap: round;stroke-linejoin: round;stroke-miterlimit: 10.000000;fill: none;"></path>
  <path d="M118.573441 116.144028C122.191116 112.239777,126.387085 108.264923,126.267258 102.950134" style="stroke:rgb(0.000000%,0.000000%,0.000000%); stroke-width: 1.494400;stroke-linecap: round;stroke-linejoin: round;stroke-miterlimit: 10.000000;fill: none;"></path>
  <path d="M126.988739 86.000000C126.988739 85.207306,126.673798 84.447159,126.113312 83.886688C125.552841 83.326202,124.792694 83.011261,124.000000 83.011261C123.207306 83.011261,122.447159 83.326202,121.886688 83.886688C121.326202 84.447159,121.011261 85.207306,121.011261 86.000000C121.011261 86.792694,121.326202 87.552841,121.886688 88.113312C122.447159 88.673798,123.207306 88.988739,124.000000 88.988739C124.792694 88.988739,125.552841 88.673798,126.113312 88.113312C126.673798 87.552841,126.988739 86.792694,126.988739 86.000000Z" style="fill: rgb(100.000000%,100.000000%,100.000000%);stroke: none;"></path>
  <path d="M125.602036 94.412399C125.223587 91.583069,124.688995 88.774628,124.000000 86.000000C122.969894 81.851700,121.600266 77.801788,120.240738 73.749359" style="stroke:rgb(0.000000%,0.000000%,0.000000%); stroke-width: 1.494400;stroke-linecap: round;stroke-linejoin: round;stroke-miterlimit: 10.000000;fill: none;"></path>
  <path d="M184.326096 63.002655C184.326096 62.209961,184.011154 61.449814,183.450668 60.889343C182.890198 60.328857,182.130051 60.013916,181.337357 60.013916C180.544662 60.013916,179.784515 60.328857,179.224045 60.889343C178.663559 61.449814,178.348618 62.209961,178.348618 63.002655C178.348618 63.795349,178.663559 64.555496,179.224045 65.115967C179.784515 65.676453,180.544662 65.991394,181.337357 65.991394C182.130051 65.991394,182.890198 65.676453,183.450668 65.115967C184.011154 64.555496,184.326096 63.795349,184.326096 63.002655Z" style="fill: rgb(100.000000%,100.000000%,100.000000%);stroke: none;"></path>
  <path d="M187.138535 36.252151C188.674652 45.251846,186.846634 54.852707,181.337357 63.002655C177.514313 68.658127,172.318390 72.890045,166.402466 76.052078" style="stroke:rgb(0.000000%,0.000000%,0.000000%); stroke-width: 0.498138;stroke-linecap: round;stroke-linejoin: round;stroke-miterlimit: 10.000000;fill: none;"></path>
  <path d="M104.354019 101.778549C104.354019 100.985855,104.039078 100.225708,103.478592 99.665237C102.918121 99.104752,102.157974 98.789810,101.365280 98.789810C100.572586 98.789810,99.812439 99.104752,99.251968 99.665237C98.691483 100.225708,98.376541 100.985855,98.376541 101.778549C98.376541 102.571243,98.691483 103.331390,99.251968 103.891861C99.812439 104.452347,100.572586 104.767288,101.365280 104.767288C102.157974 104.767288,102.918121 104.452347,103.478592 103.891861C104.039078 103.331390,104.354019 102.571243,104.354019 101.778549Z" style="fill: rgb(100.000000%,100.000000%,100.000000%);stroke: none;"></path>
  <path d="M104.468170 95.742996C103.221756 97.616074,102.216965 99.674667,101.365280 101.778549C100.815796 103.135910,100.255295 104.562943,99.485947 105.760239" style="stroke:rgb(0.000000%,0.000000%,0.000000%); stroke-width: 0.498138;stroke-linecap: round;stroke-linejoin: round;stroke-miterlimit: 10.000000;fill: none;"></path>
  <path d="M32.117996 90.664230C32.117996 89.871536,31.803055 89.111389,31.242569 88.550919C30.682098 87.990433,29.921951 87.675491,29.129257 87.675491C28.336563 87.675491,27.576416 87.990433,27.015945 88.550919C26.455460 89.111389,26.140518 89.871536,26.140518 90.664230C26.140518 91.456924,26.455460 92.217072,27.015945 92.777542C27.576416 93.338028,28.336563 93.652969,29.129257 93.652969C29.921951 93.652969,30.682098 93.338028,31.242569 92.777542C31.803055 92.217072,32.117996 91.456924,32.117996 90.664230Z" style="fill: rgb(100.000000%,100.000000%,100.000000%);stroke: none;"></path>
  <path d="M48.982239 89.785843C42.323654 88.513000,35.639999 88.428543,29.129257 90.664230C20.180862 93.736984,13.508194 100.227142,9.656479 108.300156" style="stroke:rgb(0.000000%,0.000000%,0.000000%); stroke-width: 0.498138;stroke-linecap: round;stroke-linejoin: round;stroke-miterlimit: 10.000000;fill: none;"></path>
  <path d="M93.230530 131.570297C93.230530 130.777603,92.915588 130.017456,92.355103 129.456985C91.794632 128.896500,91.034485 128.581558,90.241791 128.581558C89.449097 128.581558,88.688950 128.896500,88.128479 129.456985C87.567993 130.017456,87.253052 130.777603,87.253052 131.570297C87.253052 132.362991,87.567993 133.123138,88.128479 133.683609C88.688950 134.244095,89.449097 134.559036,90.241791 134.559036C91.034485 134.559036,91.794632 134.244095,92.355103 133.683609C92.915588 133.123138,93.230530 132.362991,93.230530 131.570297Z" style="fill: rgb(100.000000%,100.000000%,100.000000%);stroke: none;"></path>
  <path d="M82.803802 137.351761C85.393433 135.562393,87.934586 133.714615,90.241791 131.570297C91.325775 130.562851,92.453171 129.486786,93.667557 128.734192" style="stroke:rgb(0.000000%,0.000000%,0.000000%); stroke-width: 0.498138;stroke-linecap: round;stroke-linejoin: round;stroke-miterlimit: 10.000000;fill: none;"></path>
  <path d="M143.932495 164.812851C143.932495 164.020157,143.617554 163.260010,143.057068 162.699539C142.496597 162.139053,141.736450 161.824112,140.943756 161.824112C140.151062 161.824112,139.390915 162.139053,138.830444 162.699539C138.269958 163.260010,137.955017 164.020157,137.955017 164.812851C137.955017 165.605545,138.269958 166.365692,138.830444 166.926163C139.390915 167.486649,140.151062 167.801590,140.943756 167.801590C141.736450 167.801590,142.496597 167.486649,143.057068 166.926163C143.617554 166.365692,143.932495 165.605545,143.932495 164.812851Z" style="fill: rgb(100.000000%,100.000000%,100.000000%);stroke: none;"></path>
  <path d="M125.095581 158.948746C129.859818 162.159790,135.113892 164.378510,140.943756 164.812851C151.726608 165.616211,160.689484 160.886261,168.061844 153.333771" style="stroke:rgb(0.000000%,0.000000%,0.000000%); stroke-width: 0.498138;stroke-linecap: round;stroke-linejoin: round;stroke-miterlimit: 10.000000;fill: none;"></path>
  <path d="M126.988739 19.324417C126.988739 18.531723,126.673798 17.771576,126.113312 17.211105C125.552841 16.650620,124.792694 16.335678,124.000000 16.335678C123.207306 16.335678,122.447159 16.650620,121.886688 17.211105C121.326202 17.771576,121.011261 18.531723,121.011261 19.324417C121.011261 20.117111,121.326202 20.877258,121.886688 21.437729C122.447159 21.998215,123.207306 22.313156,124.000000 22.313156C124.792694 22.313156,125.552841 21.998215,126.113312 21.437729C126.673798 20.877258,126.988739 20.117111,126.988739 19.324417Z" style="fill: rgb(100.000000%,100.000000%,100.000000%);stroke: none;"></path>
  <path d="M136.063828 33.860565C132.652298 28.439972,129.216339 23.049194,124.000000 19.324417C114.632706 12.635605,104.029510 12.624008,93.328934 16.126099" style="stroke:rgb(0.000000%,0.000000%,0.000000%); stroke-width: 0.498138;stroke-linecap: round;stroke-linejoin: round;stroke-miterlimit: 10.000000;fill: none;"></path>
  <path d="M48.286667 162.879929C48.286667 162.087234,47.971725 161.327087,47.411240 160.766617C46.850769 160.206131,46.090622 159.891190,45.297928 159.891190C44.505234 159.891190,43.745087 160.206131,43.184616 160.766617C42.624130 161.327087,42.309189 162.087234,42.309189 162.879929C42.309189 163.672623,42.624130 164.432770,43.184616 164.993240C43.745087 165.553726,44.505234 165.868668,45.297928 165.868668C46.090622 165.868668,46.850769 165.553726,47.411240 164.993240C47.971725 164.432770,48.286667 163.672623,48.286667 162.879929Z" style="fill: rgb(100.000000%,100.000000%,100.000000%);stroke: none;"></path>
  <path d="M46.982285 143.932465C45.611023 150.230331,44.197479 156.533478,45.297928 162.879929C47.023972 172.834274,53.355545 180.065369,61.955780 184.786835" style="stroke:rgb(0.000000%,0.000000%,0.000000%); stroke-width: 0.498138;stroke-linecap: round;stroke-linejoin: round;stroke-miterlimit: 10.000000;fill: none;"></path>
  <path d="M121.562180 116.144028C121.562180 115.351334,121.247238 114.591187,120.686752 114.030716C120.126282 113.470230,119.366135 113.155289,118.573441 113.155289C117.780746 113.155289,117.020599 113.470230,116.460129 114.030716C115.899643 114.591187,115.584702 115.351334,115.584702 116.144028C115.584702 116.936722,115.899643 117.696869,116.460129 118.257339C117.020599 118.817825,117.780746 119.132767,118.573441 119.132767C119.366135 119.132767,120.126282 118.817825,120.686752 118.257339C121.247238 117.696869,121.562180 116.936722,121.562180 116.144028Z" style="fill: rgb(100.000000%,100.000000%,100.000000%);stroke: none;"></path>
  <path d="M126.223511 121.931839C123.775970 119.881271,121.190964 117.982040,118.573441 116.144028C116.966766 115.015823,115.344894 113.908020,113.740433 112.776825" style="stroke:rgb(0.000000%,0.000000%,0.000000%); stroke-width: 0.498138;stroke-linecap: round;stroke-linejoin: round;stroke-miterlimit: 10.000000;fill: none;"></path>
  <path d="M91.187439 105.555923C91.187439 104.763229,90.872498 104.003082,90.312012 103.442612C89.751541 102.882126,88.991394 102.567184,88.198700 102.567184C87.406006 102.567184,86.645859 102.882126,86.085388 103.442612C85.524902 104.003082,85.209961 104.763229,85.209961 105.555923C85.209961 106.348618,85.524902 107.108765,86.085388 107.669235C86.645859 108.229721,87.406006 108.544662,88.198700 108.544662C88.991394 108.544662,89.751541 108.229721,90.312012 107.669235C90.872498 107.108765,91.187439 106.348618,91.187439 105.555923Z" style="fill: rgb(100.000000%,100.000000%,100.000000%);stroke: none;"></path>
  <path d="M89.669312 99.905411C88.941299 101.583710,88.576447 103.641052,88.198700 105.555923C87.753494 107.812698,87.012909 110.026855,86.432907 112.252426" style="stroke:rgb(0.000000%,0.000000%,0.000000%); stroke-width: 0.498138;stroke-linecap: round;stroke-linejoin: round;stroke-miterlimit: 10.000000;fill: none;"></path>
  <path d="M105.970932 133.975235C105.970932 133.182541,105.655991 132.422394,105.095505 131.861923C104.535034 131.301437,103.774887 130.986496,102.982193 130.986496C102.189499 130.986496,101.429352 131.301437,100.868881 131.861923C100.308395 132.422394,99.993454 133.182541,99.993454 133.975235C99.993454 134.767929,100.308395 135.528076,100.868881 136.088547C101.429352 136.649033,102.189499 136.963974,102.982193 136.963974C103.774887 136.963974,104.535034 136.649033,105.095505 136.088547C105.655991 135.528076,105.970932 134.767929,105.970932 133.975235Z" style="fill: rgb(100.000000%,100.000000%,100.000000%);stroke: none;"></path>
  <path d="M99.778473 137.526566C100.960175 136.571777,102.002991 135.238876,102.982193 133.975235C104.134445 132.488266,105.382660 131.083221,106.655762 129.699036" style="stroke:rgb(0.000000%,0.000000%,0.000000%); stroke-width: 0.498138;stroke-linecap: round;stroke-linejoin: round;stroke-miterlimit: 10.000000;fill: none;"></path>
  <path d="M126.267258 102.950134C126.164139 98.377060,125.656876 93.824310,124.752548 89.344910" style="stroke:rgb(0.000000%,0.000000%,0.000000%); stroke-width: 0.498138;stroke-linecap: round;stroke-linejoin: round;stroke-miterlimit: 10.000000;fill: none;"></path>
  <path d="M127.407181 93.582062C126.568283 92.141907,125.682983 90.728790,124.752548 89.344910C124.431885 90.981354,124.058640 92.606598,123.633469 94.218109Z" style="stroke:rgb(0.000000%,0.000000%,0.000000%); stroke-width: 0.498138;fill: rgb(0.000000%,0.000000%,0.000000%);"></path>
  <path d="M126.267258 102.950134C126.164139 98.377060,125.656876 93.824310,124.752548 89.344910" style="stroke:rgb(0.000000%,0.000000%,0.000000%); stroke-width: 0.498138;stroke-linecap: round;stroke-linejoin: round;stroke-miterlimit: 10.000000;fill: none;"></path>
  <path d="M126.377975 91.866455C125.852600 91.015747,125.310669 90.175049,124.752548 89.344910C124.560181 90.326569,124.348907 91.304199,124.118851 92.277252Z" style="stroke:rgb(0.000000%,0.000000%,0.000000%); stroke-width: 0.498138;fill: rgb(0.000000%,0.000000%,0.000000%);"></path>
  <path d="M147.147583 82.682098C141.035675 83.936661,134.835205 84.649567,128.641968 85.410797" style="stroke:rgb(0.000000%,0.000000%,0.000000%); stroke-width: 0.498138;stroke-linecap: round;stroke-linejoin: round;stroke-miterlimit: 10.000000;fill: none;"></path>
  <path d="M131.253525 83.934265L128.641968 85.410797L131.532669 86.213440Z" style="stroke:rgb(0.000000%,0.000000%,0.000000%); stroke-width: 0.498138;fill: rgb(0.000000%,0.000000%,0.000000%);"></path>
  <path d="M96.353561 108.363541C94.036896 109.096985,91.822479 107.979019,89.737610 106.607315" style="stroke:rgb(0.000000%,0.000000%,0.000000%); stroke-width: 0.498138;stroke-linecap: round;stroke-linejoin: round;stroke-miterlimit: 10.000000;fill: none;"></path>
  <path d="M92.719025 106.940475C91.750656 106.944397,90.742233 106.799713,89.737610 106.607315C90.311935 107.453735,90.922653 108.269135,91.610168 108.951096Z" style="stroke:rgb(0.000000%,0.000000%,0.000000%); stroke-width: 0.498138;fill: rgb(0.000000%,0.000000%,0.000000%);"></path>
  <path d="M68.684814 96.037781C58.428040 92.009201,47.600220 88.125565,37.012360 89.022644" style="stroke:rgb(0.000000%,0.000000%,0.000000%); stroke-width: 0.498138;stroke-linecap: round;stroke-linejoin: round;stroke-miterlimit: 10.000000;fill: none;"></path>
  <path d="M39.731506 87.755447C38.808350 88.141693,37.901245 88.563004,37.012360 89.022644C37.965912 89.326187,38.905212 89.669708,39.831116 90.049393Z" style="stroke:rgb(0.000000%,0.000000%,0.000000%); stroke-width: 0.498138;fill: rgb(0.000000%,0.000000%,0.000000%);"></path>
  <path d="M97.615219 127.838959C99.871964 128.290436,101.148621 130.266922,102.212341 132.383347" style="stroke:rgb(0.000000%,0.000000%,0.000000%); stroke-width: 0.498138;stroke-linecap: round;stroke-linejoin: round;stroke-miterlimit: 10.000000;fill: none;"></path>
  <path d="M99.787033 130.617569C100.632034 131.081299,101.435623 131.712540,102.212341 132.383347C102.137466 131.359787,102.015610 130.345215,101.746017 129.419785Z" style="stroke:rgb(0.000000%,0.000000%,0.000000%); stroke-width: 0.498138;fill: rgb(0.000000%,0.000000%,0.000000%);"></path>
  <path d="M112.186508 147.130676C118.379257 154.176544,125.606064 160.709702,134.218887 163.485855" style="stroke:rgb(0.000000%,0.000000%,0.000000%); stroke-width: 0.498138;stroke-linecap: round;stroke-linejoin: round;stroke-miterlimit: 10.000000;fill: none;"></path>
  <path d="M131.220520 163.585876C132.221069 163.598679,133.220932 163.566757,134.218887 163.485855C133.456039 162.837387,132.726471 162.152939,132.028046 161.436371Z" style="stroke:rgb(0.000000%,0.000000%,0.000000%); stroke-width: 0.498138;fill: rgb(0.000000%,0.000000%,0.000000%);"></path>
  <path d="M147.981049 48.575607C139.791260 42.425125,136.034164 32.162308,129.517334 24.489029" style="stroke:rgb(0.000000%,0.000000%,0.000000%); stroke-width: 0.498138;stroke-linecap: round;stroke-linejoin: round;stroke-miterlimit: 10.000000;fill: none;"></path>
  <path d="M132.138519 25.948181C131.277451 25.433731,130.405060 24.944443,129.517334 24.489029C129.822998 25.438766,130.093887 26.401627,130.338959 27.374268Z" style="stroke:rgb(0.000000%,0.000000%,0.000000%); stroke-width: 0.498138;fill: rgb(0.000000%,0.000000%,0.000000%);"></path>
  <path d="M48.412994 125.016586C50.444290 135.137222,45.823257 145.173981,45.020493 155.282654" style="stroke:rgb(0.000000%,0.000000%,0.000000%); stroke-width: 0.498138;stroke-linecap: round;stroke-linejoin: round;stroke-miterlimit: 10.000000;fill: none;"></path>
  <path d="M44.191757 152.399460C44.439789 153.371552,44.712952 154.333847,45.020493 155.282654C45.473938 154.394272,45.961243 153.520691,46.473251 152.657944Z" style="stroke:rgb(0.000000%,0.000000%,0.000000%); stroke-width: 0.498138;fill: rgb(0.000000%,0.000000%,0.000000%);"></path>
  <path d="M109.011871 109.269333C106.769943 107.487335,104.637650 105.564148,102.741302 103.424759" style="stroke:rgb(0.000000%,0.000000%,0.000000%); stroke-width: 0.498138;stroke-linecap: round;stroke-linejoin: round;stroke-miterlimit: 10.000000;fill: none;"></path>
  <path d="M105.485794 104.636307C104.556915 104.264603,103.640839 103.862427,102.741302 103.424759C103.067871 104.370300,103.431244 105.302475,103.825211 106.222122Z" style="stroke:rgb(0.000000%,0.000000%,0.000000%); stroke-width: 0.498138;fill: rgb(0.000000%,0.000000%,0.000000%);"></path>
  <path d="M93.319000 96.529129C90.390259 97.167053,89.354034 100.110428,88.669861 103.223099" style="stroke:rgb(0.000000%,0.000000%,0.000000%); stroke-width: 0.498138;stroke-linecap: round;stroke-linejoin: round;stroke-miterlimit: 10.000000;fill: none;"></path>
  <path d="M88.325836 100.242950C88.350037 101.203217,88.489685 102.212036,88.669861 103.223099C89.257416 102.380768,89.872009 101.568695,90.533936 100.872589Z" style="stroke:rgb(0.000000%,0.000000%,0.000000%); stroke-width: 0.498138;fill: rgb(0.000000%,0.000000%,0.000000%);"></path>
  <path d="M95.741470 138.809219C98.197021 139.207336,100.104385 137.492172,101.771805 135.496201" style="stroke:rgb(0.000000%,0.000000%,0.000000%); stroke-width: 0.498138;stroke-linecap: round;stroke-linejoin: round;stroke-miterlimit: 10.000000;fill: none;"></path>
  <path d="M100.631500 138.271088C101.104294 137.437881,101.463913 136.480209,101.771805 135.496201C100.858292 135.974258,99.926804 136.397141,99.003326 136.651978Z" style="stroke:rgb(0.000000%,0.000000%,0.000000%); stroke-width: 0.498138;fill: rgb(0.000000%,0.000000%,0.000000%);"></path>
  <path d="M113.551453 64.193771L119.532745 64.193771L119.532745 56.773376L113.551453 56.773376Z" style="fill: rgb(100.000000%,100.000000%,100.000000%);stroke: none;"></path>
  <path d="M113.551453 66.193771L119.532745 66.193771L119.532745 58.773376L113.551453 58.773376Z" style="fill: rgb(100.000000%,100.000000%,100.000000%);stroke: none;"></path>
  <g transform="translate(114.051453 64.693771)" style="fill: rgb(0.000000%,0.000000%,0.000000%);">
    <use xlink:href="#GLYPHcmr10_49"></use>
  </g>
  <path d="M169.764252 15.818848L175.745544 15.818848L175.745544 8.398453L169.764252 8.398453Z" style="fill: rgb(100.000000%,100.000000%,100.000000%);stroke: none;"></path>
  <path d="M169.764252 17.818848L175.745544 17.818848L175.745544 10.398453L169.764252 10.398453Z" style="fill: rgb(100.000000%,100.000000%,100.000000%);stroke: none;"></path>
  <g transform="translate(170.264252 16.318848)" style="fill: rgb(0.000000%,0.000000%,0.000000%);">
    <use xlink:href="#GLYPHcmr10_50"></use>
  </g>
  <path d="M106.030197 93.530640L112.011490 93.530640L112.011490 86.110245L106.030197 86.110245Z" style="fill: rgb(100.000000%,100.000000%,100.000000%);stroke: none;"></path>
  <path d="M106.030197 95.530640L112.011490 95.530640L112.011490 88.110245L106.030197 88.110245Z" style="fill: rgb(100.000000%,100.000000%,100.000000%);stroke: none;"></path>
  <g transform="translate(106.530197 94.030640)" style="fill: rgb(0.000000%,0.000000%,0.000000%);">
    <use xlink:href="#GLYPHcmr10_51"></use>
  </g>
  <path d="M4.118774 138.143356L10.100067 138.143356L10.100067 130.722961L4.118774 130.722961Z" style="fill: rgb(100.000000%,100.000000%,100.000000%);stroke: none;"></path>
  <path d="M4.118774 140.143356L10.100067 140.143356L10.100067 132.722961L4.118774 132.722961Z" style="fill: rgb(100.000000%,100.000000%,100.000000%);stroke: none;"></path>
  <g transform="translate(4.618774 138.643356)" style="fill: rgb(0.000000%,0.000000%,0.000000%);">
    <use xlink:href="#GLYPHcmr10_52"></use>
  </g>
  <path d="M72.084290 145.493057L78.065582 145.493057L78.065582 138.072662L72.084290 138.072662Z" style="fill: rgb(100.000000%,100.000000%,100.000000%);stroke: none;"></path>
  <path d="M72.084290 147.493057L78.065582 147.493057L78.065582 140.072662L72.084290 140.072662Z" style="fill: rgb(100.000000%,100.000000%,100.000000%);stroke: none;"></path>
  <g transform="translate(72.584290 145.993057)" style="fill: rgb(0.000000%,0.000000%,0.000000%);">
    <use xlink:href="#GLYPHcmr10_53"></use>
  </g>
  <path d="M182.646118 127.629761L188.627411 127.629761L188.627411 120.209366L182.646118 120.209366Z" style="fill: rgb(100.000000%,100.000000%,100.000000%);stroke: none;"></path>
  <path d="M182.646118 129.629761L188.627411 129.629761L188.627411 122.209366L182.646118 122.209366Z" style="fill: rgb(100.000000%,100.000000%,100.000000%);stroke: none;"></path>
  <g transform="translate(183.146118 128.129761)" style="fill: rgb(0.000000%,0.000000%,0.000000%);">
    <use xlink:href="#GLYPHcmr10_54"></use>
  </g>
  <path d="M59.082886 36.720093L65.064178 36.720093L65.064178 29.299698L59.082886 29.299698Z" style="fill: rgb(100.000000%,100.000000%,100.000000%);stroke: none;"></path>
  <path d="M59.082886 38.720093L65.064178 38.720093L65.064178 31.299698L59.082886 31.299698Z" style="fill: rgb(100.000000%,100.000000%,100.000000%);stroke: none;"></path>
  <g transform="translate(59.582886 37.220093)" style="fill: rgb(0.000000%,0.000000%,0.000000%);">
    <use xlink:href="#GLYPHcmr10_55"></use>
  </g>
  <path d="M89.234879 194.346191L95.216171 194.346191L95.216171 186.925797L89.234879 186.925797Z" style="fill: rgb(100.000000%,100.000000%,100.000000%);stroke: none;"></path>
  <path d="M89.234879 196.346191L95.216171 196.346191L95.216171 188.925797L89.234879 188.925797Z" style="fill: rgb(100.000000%,100.000000%,100.000000%);stroke: none;"></path>
  <g transform="translate(89.734879 194.846191)" style="fill: rgb(0.000000%,0.000000%,0.000000%);">
    <use xlink:href="#GLYPHcmr10_56"></use>
  </g>
  <path d="M130.058060 131.337799L136.039352 131.337799L136.039352 123.917404L130.058060 123.917404Z" style="fill: rgb(100.000000%,100.000000%,100.000000%);stroke: none;"></path>
  <path d="M130.058060 133.337799L136.039352 133.337799L136.039352 125.917404L130.058060 125.917404Z" style="fill: rgb(100.000000%,100.000000%,100.000000%);stroke: none;"></path>
  <g transform="translate(130.558060 131.837799)" style="fill: rgb(0.000000%,0.000000%,0.000000%);">
    <use xlink:href="#GLYPHcmr10_57"></use>
  </g>
  <path d="M80.149216 121.727600L91.111923 121.727600L91.111923 114.307205L80.149216 114.307205Z" style="fill: rgb(100.000000%,100.000000%,100.000000%);stroke: none;"></path>
  <path d="M80.149216 123.727600L91.111923 123.727600L91.111923 116.307205L80.149216 116.307205Z" style="fill: rgb(100.000000%,100.000000%,100.000000%);stroke: none;"></path>
  <g transform="translate(80.649216 122.227600)" style="fill: rgb(0.000000%,0.000000%,0.000000%);">
    <use xlink:href="#GLYPHcmr10_49"></use>
    <use xlink:href="#GLYPHcmr10_48" x="5.000095"></use>
  </g>
  <path d="M104.997192 128.258194L115.959900 128.258194L115.959900 120.837799L104.997192 120.837799Z" style="fill: rgb(100.000000%,100.000000%,100.000000%);stroke: none;"></path>
  <path d="M104.997192 130.258194L115.959900 130.258194L115.959900 122.837799L104.997192 122.837799Z" style="fill: rgb(100.000000%,100.000000%,100.000000%);stroke: none;"></path>
  <g transform="translate(105.497192 128.758194)" style="fill: rgb(0.000000%,0.000000%,0.000000%);">
    <use xlink:href="#GLYPHcmr10_49"></use>
    <use xlink:href="#GLYPHcmr10_49" x="5.000095"></use>
  </g>
</svg>
