<?xml version="1.0"?>
<!-- Created by MetaPost 1.999 on 2021.07.06:0011 -->
<svg version="1.1" xmlns="http://www.w3.org/2000/svg" xmlns:xlink="http://www.w3.org/1999/xlink" width="198.941406" height="197.424911" viewBox="0 0 198.941406 197.424911">
<!-- Original BoundingBox: -108.369217 -105.840164 90.572189 91.584747 -->
  <defs>
    <g transform="scale(0.009963,0.009963)" id="GLYPHcmr10_48">
      <path style="fill-rule: evenodd;" d="M460.000000 -320.000000C460.000000 -400.000000,455.000000 -480.000000,420.000000 -554.000000C374.000000 -650.000000,292.000000 -666.000000,250.000000 -666.000000C190.000000 -666.000000,117.000000 -640.000000,76.000000 -547.000000C44.000000 -478.000000,39.000000 -400.000000,39.000000 -320.000000C39.000000 -245.000000,43.000000 -155.000000,84.000000 -79.000000C127.000000 2.000000,200.000000 22.000000,249.000000 22.000000C303.000000 22.000000,379.000000 1.000000,423.000000 -94.000000C455.000000 -163.000000,460.000000 -241.000000,460.000000 -320.000000M249.000000 -0.000000C210.000000 -0.000000,151.000000 -25.000000,133.000000 -121.000000C122.000000 -181.000000,122.000000 -273.000000,122.000000 -332.000000C122.000000 -396.000000,122.000000 -462.000000,130.000000 -516.000000C149.000000 -635.000000,224.000000 -644.000000,249.000000 -644.000000C282.000000 -644.000000,348.000000 -626.000000,367.000000 -527.000000C377.000000 -471.000000,377.000000 -395.000000,377.000000 -332.000000C377.000000 -257.000000,377.000000 -189.000000,366.000000 -125.000000C351.000000 -30.000000,294.000000 -0.000000,249.000000 -0.000000"></path>
    </g>
    <g transform="scale(0.009963,0.009963)" id="GLYPHcmr10_49">
      <path style="fill-rule: evenodd;" d="M294.000000 -640.000000C294.000000 -664.000000,294.000000 -666.000000,271.000000 -666.000000C209.000000 -602.000000,121.000000 -602.000000,89.000000 -602.000000L89.000000 -571.000000C109.000000 -571.000000,168.000000 -571.000000,220.000000 -597.000000L220.000000 -79.000000C220.000000 -43.000000,217.000000 -31.000000,127.000000 -31.000000L95.000000 -31.000000L95.000000 -0.000000L257.000000 -0.000000L130.000000 -3.000000L217.000000 -3.000000L257.000000 -3.000000L297.000000 -3.000000L384.000000 -3.000000L419.000000 -0.000000L419.000000 -31.000000L387.000000 -31.000000C297.000000 -31.000000,294.000000 -42.000000,294.000000 -79.000000"></path>
    </g>
    <g transform="scale(0.009963,0.009963)" id="GLYPHcmr10_50">
      <path style="fill-rule: evenodd;" d="M127.000000 -77.000000L233.000000 -180.000000C389.000000 -318.000000,449.000000 -372.000000,449.000000 -472.000000C449.000000 -586.000000,359.000000 -666.000000,237.000000 -666.000000C124.000000 -666.000000,50.000000 -574.000000,50.000000 -485.000000C50.000000 -429.000000,100.000000 -429.000000,103.000000 -429.000000C120.000000 -429.000000,155.000000 -441.000000,155.000000 -482.000000C155.000000 -508.000000,137.000000 -534.000000,102.000000 -534.000000C94.000000 -534.000000,92.000000 -534.000000,89.000000 -533.000000C112.000000 -598.000000,166.000000 -635.000000,224.000000 -635.000000C315.000000 -635.000000,358.000000 -554.000000,358.000000 -472.000000C358.000000 -392.000000,308.000000 -313.000000,253.000000 -251.000000L61.000000 -37.000000C50.000000 -26.000000,50.000000 -24.000000,50.000000 -0.000000L421.000000 -0.000000L449.000000 -174.000000L424.000000 -174.000000C419.000000 -144.000000,412.000000 -100.000000,402.000000 -85.000000C395.000000 -77.000000,329.000000 -77.000000,307.000000 -77.000000"></path>
    </g>
    <g transform="scale(0.009963,0.009963)" id="GLYPHcmr10_51">
      <path style="fill-rule: evenodd;" d="M290.000000 -352.000000C372.000000 -379.000000,430.000000 -449.000000,430.000000 -528.000000C430.000000 -610.000000,342.000000 -666.000000,246.000000 -666.000000C145.000000 -666.000000,69.000000 -606.000000,69.000000 -530.000000C69.000000 -497.000000,91.000000 -478.000000,120.000000 -478.000000C151.000000 -478.000000,171.000000 -500.000000,171.000000 -529.000000C171.000000 -579.000000,124.000000 -579.000000,109.000000 -579.000000C140.000000 -628.000000,206.000000 -641.000000,242.000000 -641.000000C283.000000 -641.000000,338.000000 -619.000000,338.000000 -529.000000C338.000000 -517.000000,336.000000 -459.000000,310.000000 -415.000000C280.000000 -367.000000,246.000000 -364.000000,221.000000 -363.000000C213.000000 -362.000000,189.000000 -360.000000,182.000000 -360.000000C174.000000 -359.000000,167.000000 -358.000000,167.000000 -348.000000C167.000000 -337.000000,174.000000 -337.000000,191.000000 -337.000000L235.000000 -337.000000C317.000000 -337.000000,354.000000 -269.000000,354.000000 -171.000000C354.000000 -35.000000,285.000000 -6.000000,241.000000 -6.000000C198.000000 -6.000000,123.000000 -23.000000,88.000000 -82.000000C123.000000 -77.000000,154.000000 -99.000000,154.000000 -137.000000C154.000000 -173.000000,127.000000 -193.000000,98.000000 -193.000000C74.000000 -193.000000,42.000000 -179.000000,42.000000 -135.000000C42.000000 -44.000000,135.000000 22.000000,244.000000 22.000000C366.000000 22.000000,457.000000 -69.000000,457.000000 -171.000000C457.000000 -253.000000,394.000000 -331.000000,290.000000 -352.000000"></path>
    </g>
    <g transform="scale(0.009963,0.009963)" id="GLYPHcmr10_52">
      <path style="fill-rule: evenodd;" d="M294.000000 -165.000000L294.000000 -78.000000C294.000000 -42.000000,292.000000 -31.000000,218.000000 -31.000000L197.000000 -31.000000L197.000000 -0.000000L332.000000 -0.000000L238.000000 -3.000000L290.000000 -3.000000L332.000000 -3.000000L374.000000 -3.000000L427.000000 -3.000000L468.000000 -0.000000L468.000000 -31.000000L447.000000 -31.000000C373.000000 -31.000000,371.000000 -42.000000,371.000000 -78.000000L371.000000 -165.000000L471.000000 -165.000000L471.000000 -196.000000L371.000000 -196.000000L371.000000 -651.000000C371.000000 -671.000000,371.000000 -677.000000,355.000000 -677.000000C346.000000 -677.000000,343.000000 -677.000000,335.000000 -665.000000L28.000000 -196.000000L28.000000 -165.000000M300.000000 -196.000000L56.000000 -196.000000L300.000000 -569.000000"></path>
    </g>
    <g transform="scale(0.009963,0.009963)" id="GLYPHcmr10_53">
      <path style="fill-rule: evenodd;" d="M449.000000 -201.000000C449.000000 -320.000000,367.000000 -420.000000,259.000000 -420.000000C211.000000 -420.000000,168.000000 -404.000000,132.000000 -369.000000L132.000000 -564.000000C152.000000 -558.000000,185.000000 -551.000000,217.000000 -551.000000C340.000000 -551.000000,410.000000 -642.000000,410.000000 -655.000000C410.000000 -661.000000,407.000000 -666.000000,400.000000 -666.000000C399.000000 -666.000000,397.000000 -666.000000,392.000000 -663.000000C372.000000 -654.000000,323.000000 -634.000000,256.000000 -634.000000C216.000000 -634.000000,170.000000 -641.000000,123.000000 -662.000000C115.000000 -665.000000,113.000000 -665.000000,111.000000 -665.000000C101.000000 -665.000000,101.000000 -657.000000,101.000000 -641.000000L101.000000 -345.000000C101.000000 -327.000000,101.000000 -319.000000,115.000000 -319.000000C122.000000 -319.000000,124.000000 -322.000000,128.000000 -328.000000C139.000000 -344.000000,176.000000 -398.000000,257.000000 -398.000000C309.000000 -398.000000,334.000000 -352.000000,342.000000 -334.000000C358.000000 -297.000000,360.000000 -258.000000,360.000000 -208.000000C360.000000 -173.000000,360.000000 -113.000000,336.000000 -71.000000C312.000000 -32.000000,275.000000 -6.000000,229.000000 -6.000000C156.000000 -6.000000,99.000000 -59.000000,82.000000 -118.000000C85.000000 -117.000000,88.000000 -116.000000,99.000000 -116.000000C132.000000 -116.000000,149.000000 -141.000000,149.000000 -165.000000C149.000000 -189.000000,132.000000 -214.000000,99.000000 -214.000000C85.000000 -214.000000,50.000000 -207.000000,50.000000 -161.000000C50.000000 -75.000000,119.000000 22.000000,231.000000 22.000000C347.000000 22.000000,449.000000 -74.000000,449.000000 -201.000000"></path>
    </g>
    <g transform="scale(0.009963,0.009963)" id="GLYPHcmr10_54">
      <path style="fill-rule: evenodd;" d="M132.000000 -328.000000L132.000000 -352.000000C132.000000 -605.000000,256.000000 -641.000000,307.000000 -641.000000C331.000000 -641.000000,373.000000 -635.000000,395.000000 -601.000000C380.000000 -601.000000,340.000000 -601.000000,340.000000 -556.000000C340.000000 -525.000000,364.000000 -510.000000,386.000000 -510.000000C402.000000 -510.000000,432.000000 -519.000000,432.000000 -558.000000C432.000000 -618.000000,388.000000 -666.000000,305.000000 -666.000000C177.000000 -666.000000,42.000000 -537.000000,42.000000 -316.000000C42.000000 -49.000000,158.000000 22.000000,251.000000 22.000000C362.000000 22.000000,457.000000 -72.000000,457.000000 -204.000000C457.000000 -331.000000,368.000000 -427.000000,257.000000 -427.000000C189.000000 -427.000000,152.000000 -376.000000,132.000000 -328.000000M251.000000 -6.000000C188.000000 -6.000000,158.000000 -66.000000,152.000000 -81.000000C134.000000 -128.000000,134.000000 -208.000000,134.000000 -226.000000C134.000000 -304.000000,166.000000 -404.000000,256.000000 -404.000000C272.000000 -404.000000,318.000000 -404.000000,349.000000 -342.000000C367.000000 -305.000000,367.000000 -254.000000,367.000000 -205.000000C367.000000 -157.000000,367.000000 -107.000000,350.000000 -71.000000C320.000000 -11.000000,274.000000 -6.000000,251.000000 -6.000000"></path>
    </g>
    <g transform="scale(0.009963,0.009963)" id="GLYPHcmr10_55">
      <path style="fill-rule: evenodd;" d="M476.000000 -609.000000C485.000000 -621.000000,485.000000 -623.000000,485.000000 -644.000000L242.000000 -644.000000C120.000000 -644.000000,118.000000 -657.000000,114.000000 -676.000000L89.000000 -676.000000L56.000000 -470.000000L81.000000 -470.000000C84.000000 -486.000000,93.000000 -549.000000,106.000000 -561.000000C113.000000 -567.000000,191.000000 -567.000000,204.000000 -567.000000L411.000000 -567.000000C400.000000 -551.000000,321.000000 -442.000000,299.000000 -409.000000C209.000000 -274.000000,176.000000 -135.000000,176.000000 -33.000000C176.000000 -23.000000,176.000000 22.000000,222.000000 22.000000C268.000000 22.000000,268.000000 -23.000000,268.000000 -33.000000L268.000000 -84.000000C268.000000 -139.000000,271.000000 -194.000000,279.000000 -248.000000C283.000000 -271.000000,297.000000 -357.000000,341.000000 -419.000000"></path>
    </g>
    <g transform="scale(0.009963,0.009963)" id="GLYPHcmr10_56">
      <path style="fill-rule: evenodd;" d="M163.000000 -457.000000C117.000000 -487.000000,113.000000 -521.000000,113.000000 -538.000000C113.000000 -599.000000,178.000000 -641.000000,249.000000 -641.000000C322.000000 -641.000000,386.000000 -589.000000,386.000000 -517.000000C386.000000 -460.000000,347.000000 -412.000000,287.000000 -377.000000M309.000000 -362.000000C381.000000 -399.000000,430.000000 -451.000000,430.000000 -517.000000C430.000000 -609.000000,341.000000 -666.000000,250.000000 -666.000000C150.000000 -666.000000,69.000000 -592.000000,69.000000 -499.000000C69.000000 -481.000000,71.000000 -436.000000,113.000000 -389.000000C124.000000 -377.000000,161.000000 -352.000000,186.000000 -335.000000C128.000000 -306.000000,42.000000 -250.000000,42.000000 -151.000000C42.000000 -45.000000,144.000000 22.000000,249.000000 22.000000C362.000000 22.000000,457.000000 -61.000000,457.000000 -168.000000C457.000000 -204.000000,446.000000 -249.000000,408.000000 -291.000000C389.000000 -312.000000,373.000000 -322.000000,309.000000 -362.000000M209.000000 -320.000000L332.000000 -242.000000C360.000000 -223.000000,407.000000 -193.000000,407.000000 -132.000000C407.000000 -58.000000,332.000000 -6.000000,250.000000 -6.000000C164.000000 -6.000000,92.000000 -68.000000,92.000000 -151.000000C92.000000 -209.000000,124.000000 -273.000000,209.000000 -320.000000"></path>
    </g>
    <g transform="scale(0.009963,0.009963)" id="GLYPHcmr10_57">
      <path style="fill-rule: evenodd;" d="M367.000000 -318.000000L367.000000 -286.000000C367.000000 -52.000000,263.000000 -6.000000,205.000000 -6.000000C188.000000 -6.000000,134.000000 -8.000000,107.000000 -42.000000C151.000000 -42.000000,159.000000 -71.000000,159.000000 -88.000000C159.000000 -119.000000,135.000000 -134.000000,113.000000 -134.000000C97.000000 -134.000000,67.000000 -125.000000,67.000000 -86.000000C67.000000 -19.000000,121.000000 22.000000,206.000000 22.000000C335.000000 22.000000,457.000000 -114.000000,457.000000 -329.000000C457.000000 -598.000000,342.000000 -666.000000,253.000000 -666.000000C198.000000 -666.000000,149.000000 -648.000000,106.000000 -603.000000C65.000000 -558.000000,42.000000 -516.000000,42.000000 -441.000000C42.000000 -316.000000,130.000000 -218.000000,242.000000 -218.000000C303.000000 -218.000000,344.000000 -260.000000,367.000000 -318.000000M243.000000 -241.000000C227.000000 -241.000000,181.000000 -241.000000,150.000000 -304.000000C132.000000 -341.000000,132.000000 -391.000000,132.000000 -440.000000C132.000000 -494.000000,132.000000 -541.000000,153.000000 -578.000000C180.000000 -628.000000,218.000000 -641.000000,253.000000 -641.000000C299.000000 -641.000000,332.000000 -607.000000,349.000000 -562.000000C361.000000 -530.000000,365.000000 -467.000000,365.000000 -421.000000C365.000000 -338.000000,331.000000 -241.000000,243.000000 -241.000000"></path>
    </g>
  </defs>
  <path d="M114.091736 104.498245C114.091736 103.705551,113.776794 102.945404,113.216309 102.384933C112.655838 101.824448,111.895691 101.509506,111.102997 101.509506C110.310303 101.509506,109.550156 101.824448,108.989685 102.384933C108.429199 102.945404,108.114258 103.705551,108.114258 104.498245C108.114258 105.290939,108.429199 106.051086,108.989685 106.611557C109.550156 107.172043,110.310303 107.486984,111.102997 107.486984C111.895691 107.486984,112.655838 107.172043,113.216309 106.611557C113.776794 106.051086,114.091736 105.290939,114.091736 104.498245Z" style="fill: rgb(100.000000%,100.000000%,100.000000%);stroke: none;"></path>
  <path d="M114.589569 111.405518C114.589569 110.612823,114.274628 109.852676,113.714142 109.292206C113.153671 108.731720,112.393524 108.416779,111.600830 108.416779C110.808136 108.416779,110.047989 108.731720,109.487518 109.292206C108.927032 109.852676,108.612091 110.612823,108.612091 111.405518C108.612091 112.198212,108.927032 112.958359,109.487518 113.518829C110.047989 114.079315,110.808136 114.394257,111.600830 114.394257C112.393524 114.394257,113.153671 114.079315,113.714142 113.518829C114.274628 112.958359,114.589569 112.198212,114.589569 111.405518Z" style="fill: rgb(100.000000%,100.000000%,100.000000%);stroke: none;"></path>
  <path d="M108.461075 82.122330C108.461075 81.329636,108.146133 80.569489,107.585648 80.009018C107.025177 79.448532,106.265030 79.133591,105.472336 79.133591C104.679642 79.133591,103.919495 79.448532,103.359024 80.009018C102.798538 80.569489,102.483597 81.329636,102.483597 82.122330C102.483597 82.915024,102.798538 83.675171,103.359024 84.235641C103.919495 84.796127,104.679642 85.111069,105.472336 85.111069C106.265030 85.111069,107.025177 84.796127,107.585648 84.235641C108.146133 83.675171,108.461075 82.915024,108.461075 82.122330Z" style="fill: rgb(100.000000%,100.000000%,100.000000%);stroke: none;"></path>
  <path d="M112.885117 97.660477C112.885117 96.867783,112.570175 96.107635,112.009689 95.547165C111.449219 94.986679,110.689072 94.671738,109.896378 94.671738C109.103683 94.671738,108.343536 94.986679,107.783066 95.547165C107.222580 96.107635,106.907639 96.867783,106.907639 97.660477C106.907639 98.453171,107.222580 99.213318,107.783066 99.773788C108.343536 100.334274,109.103683 100.649216,109.896378 100.649216C110.689072 100.649216,111.449219 100.334274,112.009689 99.773788C112.570175 99.213318,112.885117 98.453171,112.885117 97.660477Z" style="fill: rgb(100.000000%,100.000000%,100.000000%);stroke: none;"></path>
  <path d="M99.630829 49.802902C99.630829 49.010208,99.315887 48.250061,98.755402 47.689590C98.194931 47.129105,97.434784 46.814163,96.642090 46.814163C95.849396 46.814163,95.089249 47.129105,94.528778 47.689590C93.968292 48.250061,93.653351 49.010208,93.653351 49.802902C93.653351 50.595596,93.968292 51.355743,94.528778 51.916214C95.089249 52.476700,95.849396 52.791641,96.642090 52.791641C97.434784 52.791641,98.194931 52.476700,98.755402 51.916214C99.315887 51.355743,99.630829 50.595596,99.630829 49.802902Z" style="fill: rgb(100.000000%,100.000000%,100.000000%);stroke: none;"></path>
  <path d="M104.720688 73.605560C104.720688 72.812866,104.405746 72.052719,103.845261 71.492249C103.284790 70.931763,102.524643 70.616821,101.731949 70.616821C100.939255 70.616821,100.179108 70.931763,99.618637 71.492249C99.058151 72.052719,98.743210 72.812866,98.743210 73.605560C98.743210 74.398254,99.058151 75.158401,99.618637 75.718872C100.179108 76.279358,100.939255 76.594299,101.731949 76.594299C102.524643 76.594299,103.284790 76.279358,103.845261 75.718872C104.405746 75.158401,104.720688 74.398254,104.720688 73.605560Z" style="fill: rgb(100.000000%,100.000000%,100.000000%);stroke: none;"></path>
  <path d="M124.004303 6.255936C124.004303 5.463242,123.689362 4.703094,123.128876 4.142624C122.568405 3.582138,121.808258 3.267197,121.015564 3.267197C120.222870 3.267197,119.462723 3.582138,118.902252 4.142624C118.341766 4.703094,118.026825 5.463242,118.026825 6.255936C118.026825 7.048630,118.341766 7.808777,118.902252 8.369247C119.462723 8.929733,120.222870 9.244675,121.015564 9.244675C121.808258 9.244675,122.568405 8.929733,123.128876 8.369247C123.689362 7.808777,124.004303 7.048630,124.004303 6.255936Z" style="fill: rgb(100.000000%,100.000000%,100.000000%);stroke: none;"></path>
  <path d="M101.527969 34.058197C101.527969 33.265503,101.213028 32.505356,100.652542 31.944885C100.092072 31.384399,99.331924 31.069458,98.539230 31.069458C97.746536 31.069458,96.986389 31.384399,96.425919 31.944885C95.865433 32.505356,95.550491 33.265503,95.550491 34.058197C95.550491 34.850891,95.865433 35.611038,96.425919 36.171509C96.986389 36.731995,97.746536 37.046936,98.539230 37.046936C99.331924 37.046936,100.092072 36.731995,100.652542 36.171509C101.213028 35.611038,101.527969 34.850891,101.527969 34.058197Z" style="fill: rgb(100.000000%,100.000000%,100.000000%);stroke: none;"></path>
  <path d="M180.594131 24.058273C180.594131 23.265579,180.279190 22.505432,179.718704 21.944962C179.158234 21.384476,178.398087 21.069534,177.605392 21.069534C176.812698 21.069534,176.052551 21.384476,175.492081 21.944962C174.931595 22.505432,174.616653 23.265579,174.616653 24.058273C174.616653 24.850967,174.931595 25.611115,175.492081 26.171585C176.052551 26.732071,176.812698 27.047012,177.605392 27.047012C178.398087 27.047012,179.158234 26.732071,179.718704 26.171585C180.279190 25.611115,180.594131 24.850967,180.594131 24.058273Z" style="fill: rgb(100.000000%,100.000000%,100.000000%);stroke: none;"></path>
  <path d="M147.015289 2.403992C147.015289 1.611298,146.700348 0.851151,146.139862 0.290680C145.579391 -0.269806,144.819244 -0.584747,144.026550 -0.584747C143.233856 -0.584747,142.473709 -0.269806,141.913239 0.290680C141.352753 0.851151,141.037811 1.611298,141.037811 2.403992C141.037811 3.196686,141.352753 3.956833,141.913239 4.517303C142.473709 5.077789,143.233856 5.392731,144.026550 5.392731C144.819244 5.392731,145.579391 5.077789,146.139862 4.517303C146.700348 3.956833,147.015289 3.196686,147.015289 2.403992Z" style="fill: rgb(100.000000%,100.000000%,100.000000%);stroke: none;"></path>
  <path d="M171.326019 76.180801C171.326019 75.388107,171.011078 74.627960,170.450592 74.067490C169.890121 73.507004,169.129974 73.192062,168.337280 73.192062C167.544586 73.192062,166.784439 73.507004,166.223969 74.067490C165.663483 74.627960,165.348541 75.388107,165.348541 76.180801C165.348541 76.973495,165.663483 77.733643,166.223969 78.294113C166.784439 78.854599,167.544586 79.169540,168.337280 79.169540C169.129974 79.169540,169.890121 78.854599,170.450592 78.294113C171.011078 77.733643,171.326019 76.973495,171.326019 76.180801Z" style="fill: rgb(100.000000%,100.000000%,100.000000%);stroke: none;"></path>
  <path d="M186.886856 44.793182C186.886856 44.000488,186.571915 43.240341,186.011429 42.679871C185.450958 42.119385,184.690811 41.804443,183.898117 41.804443C183.105423 41.804443,182.345276 42.119385,181.784805 42.679871C181.224319 43.240341,180.909378 44.000488,180.909378 44.793182C180.909378 45.585876,181.224319 46.346024,181.784805 46.906494C182.345276 47.466980,183.105423 47.781921,183.898117 47.781921C184.690811 47.781921,185.450958 47.466980,186.011429 46.906494C186.571915 46.346024,186.886856 45.585876,186.886856 44.793182Z" style="fill: rgb(100.000000%,100.000000%,100.000000%);stroke: none;"></path>
  <path d="M130.685104 88.656845C130.685104 87.864151,130.370163 87.104004,129.809677 86.543533C129.249207 85.983047,128.489059 85.668106,127.696365 85.668106C126.903671 85.668106,126.143524 85.983047,125.583054 86.543533C125.022568 87.104004,124.707626 87.864151,124.707626 88.656845C124.707626 89.449539,125.022568 90.209686,125.583054 90.770157C126.143524 91.330643,126.903671 91.645584,127.696365 91.645584C128.489059 91.645584,129.249207 91.330643,129.809677 90.770157C130.370163 90.209686,130.685104 89.449539,130.685104 88.656845Z" style="fill: rgb(100.000000%,100.000000%,100.000000%);stroke: none;"></path>
  <path d="M156.072266 83.478577C156.072266 82.685883,155.757324 81.925735,155.196838 81.365265C154.636368 80.804779,153.876221 80.489838,153.083527 80.489838C152.290833 80.489838,151.530685 80.804779,150.970215 81.365265C150.409729 81.925735,150.094788 82.685883,150.094788 83.478577C150.094788 84.271271,150.409729 85.031418,150.970215 85.591888C151.530685 86.152374,152.290833 86.467316,153.083527 86.467316C153.876221 86.467316,154.636368 86.152374,155.196838 85.591888C155.757324 85.031418,156.072266 84.271271,156.072266 83.478577Z" style="fill: rgb(100.000000%,100.000000%,100.000000%);stroke: none;"></path>
  <path d="M103.671753 92.321030C103.671753 91.528336,103.356812 90.768188,102.796326 90.207718C102.235855 89.647232,101.475708 89.332291,100.683014 89.332291C99.890320 89.332291,99.130173 89.647232,98.569702 90.207718C98.009216 90.768188,97.694275 91.528336,97.694275 92.321030C97.694275 93.113724,98.009216 93.873871,98.569702 94.434341C99.130173 94.994827,99.890320 95.309769,100.683014 95.309769C101.475708 95.309769,102.235855 94.994827,102.796326 94.434341C103.356812 93.873871,103.671753 93.113724,103.671753 92.321030Z" style="fill: rgb(100.000000%,100.000000%,100.000000%);stroke: none;"></path>
  <path d="M120.744659 89.238647C120.744659 88.445953,120.429718 87.685806,119.869232 87.125336C119.308762 86.564850,118.548615 86.249908,117.755920 86.249908C116.963226 86.249908,116.203079 86.564850,115.642609 87.125336C115.082123 87.685806,114.767181 88.445953,114.767181 89.238647C114.767181 90.031342,115.082123 90.791489,115.642609 91.351959C116.203079 91.912445,116.963226 92.227386,117.755920 92.227386C118.548615 92.227386,119.308762 91.912445,119.869232 91.351959C120.429718 90.791489,120.744659 90.031342,120.744659 89.238647Z" style="fill: rgb(100.000000%,100.000000%,100.000000%);stroke: none;"></path>
  <path d="M83.487640 98.580002C83.487640 97.787308,83.172699 97.027161,82.612213 96.466690C82.051743 95.906204,81.291595 95.591263,80.498901 95.591263C79.706207 95.591263,78.946060 95.906204,78.385590 96.466690C77.825104 97.027161,77.510162 97.787308,77.510162 98.580002C77.510162 99.372696,77.825104 100.132843,78.385590 100.693314C78.946060 101.253799,79.706207 101.568741,80.498901 101.568741C81.291595 101.568741,82.051743 101.253799,82.612213 100.693314C83.172699 100.132843,83.487640 99.372696,83.487640 98.580002Z" style="fill: rgb(100.000000%,100.000000%,100.000000%);stroke: none;"></path>
  <path d="M96.494492 94.298462C96.494492 93.505768,96.179550 92.745621,95.619064 92.185150C95.058594 91.624664,94.298447 91.309723,93.505753 91.309723C92.713058 91.309723,91.952911 91.624664,91.392441 92.185150C90.831955 92.745621,90.517014 93.505768,90.517014 94.298462C90.517014 95.091156,90.831955 95.851303,91.392441 96.411774C91.952911 96.972260,92.713058 97.287201,93.505753 97.287201C94.298447 97.287201,95.058594 96.972260,95.619064 96.411774C96.179550 95.851303,96.494492 95.091156,96.494492 94.298462Z" style="fill: rgb(100.000000%,100.000000%,100.000000%);stroke: none;"></path>
  <path d="M68.824615 106.053223C68.824615 105.260529,68.509674 104.500381,67.949188 103.939911C67.388718 103.379425,66.628571 103.064484,65.835876 103.064484C65.043182 103.064484,64.283035 103.379425,63.722565 103.939911C63.162079 104.500381,62.847137 105.260529,62.847137 106.053223C62.847137 106.845917,63.162079 107.606064,63.722565 108.166534C64.283035 108.727020,65.043182 109.041962,65.835876 109.041962C66.628571 109.041962,67.388718 108.727020,67.949188 108.166534C68.509674 107.606064,68.824615 106.845917,68.824615 106.053223Z" style="fill: rgb(100.000000%,100.000000%,100.000000%);stroke: none;"></path>
  <path d="M77.602631 100.793060C77.602631 100.000366,77.287689 99.240219,76.727203 98.679749C76.166733 98.119263,75.406586 97.804321,74.613892 97.804321C73.821198 97.804321,73.061050 98.119263,72.500580 98.679749C71.940094 99.240219,71.625153 100.000366,71.625153 100.793060C71.625153 101.585754,71.940094 102.345901,72.500580 102.906372C73.061050 103.466858,73.821198 103.781799,74.613892 103.781799C75.406586 103.781799,76.166733 103.466858,76.727203 102.906372C77.287689 102.345901,77.602631 101.585754,77.602631 100.793060Z" style="fill: rgb(100.000000%,100.000000%,100.000000%);stroke: none;"></path>
  <path d="M58.283783 105.324524C58.283783 104.531830,57.968842 103.771683,57.408356 103.211212C56.847885 102.650726,56.087738 102.335785,55.295044 102.335785C54.502350 102.335785,53.742203 102.650726,53.181732 103.211212C52.621246 103.771683,52.306305 104.531830,52.306305 105.324524C52.306305 106.117218,52.621246 106.877365,53.181732 107.437836C53.742203 107.998322,54.502350 108.313263,55.295044 108.313263C56.087738 108.313263,56.847885 107.998322,57.408356 107.437836C57.968842 106.877365,58.283783 106.117218,58.283783 105.324524Z" style="fill: rgb(100.000000%,100.000000%,100.000000%);stroke: none;"></path>
  <path d="M65.099838 108.399796C65.099838 107.607101,64.784897 106.846954,64.224411 106.286484C63.663940 105.725998,62.903793 105.411057,62.111099 105.411057C61.318405 105.411057,60.558258 105.725998,59.997787 106.286484C59.437302 106.846954,59.122360 107.607101,59.122360 108.399796C59.122360 109.192490,59.437302 109.952637,59.997787 110.513107C60.558258 111.073593,61.318405 111.388535,62.111099 111.388535C62.903793 111.388535,63.663940 111.073593,64.224411 110.513107C64.784897 109.952637,65.099838 109.192490,65.099838 108.399796Z" style="fill: rgb(100.000000%,100.000000%,100.000000%);stroke: none;"></path>
  <path d="M55.725021 93.172882C55.725021 92.380188,55.410080 91.620041,54.849594 91.059570C54.289124 90.499084,53.528976 90.184143,52.736282 90.184143C51.943588 90.184143,51.183441 90.499084,50.622971 91.059570C50.062485 91.620041,49.747543 92.380188,49.747543 93.172882C49.747543 93.965576,50.062485 94.725723,50.622971 95.286194C51.183441 95.846680,51.943588 96.161621,52.736282 96.161621C53.528976 96.161621,54.289124 95.846680,54.849594 95.286194C55.410080 94.725723,55.725021 93.965576,55.725021 93.172882Z" style="fill: rgb(100.000000%,100.000000%,100.000000%);stroke: none;"></path>
  <path d="M57.358505 101.484619C57.358505 100.691925,57.043564 99.931778,56.483078 99.371307C55.922607 98.810822,55.162460 98.495880,54.369766 98.495880C53.577072 98.495880,52.816925 98.810822,52.256454 99.371307C51.695969 99.931778,51.381027 100.691925,51.381027 101.484619C51.381027 102.277313,51.695969 103.037460,52.256454 103.597931C52.816925 104.158417,53.577072 104.473358,54.369766 104.473358C55.162460 104.473358,55.922607 104.158417,56.483078 103.597931C57.043564 103.037460,57.358505 102.277313,57.358505 101.484619Z" style="fill: rgb(100.000000%,100.000000%,100.000000%);stroke: none;"></path>
  <path d="M43.389389 75.824768C43.389389 75.032074,43.074448 74.271927,42.513962 73.711456C41.953491 73.150970,41.193344 72.836029,40.400650 72.836029C39.607956 72.836029,38.847809 73.150970,38.287338 73.711456C37.726852 74.271927,37.411911 75.032074,37.411911 75.824768C37.411911 76.617462,37.726852 77.377609,38.287338 77.938080C38.847809 78.498566,39.607956 78.813507,40.400650 78.813507C41.193344 78.813507,41.953491 78.498566,42.513962 77.938080C43.074448 77.377609,43.389389 76.617462,43.389389 75.824768Z" style="fill: rgb(100.000000%,100.000000%,100.000000%);stroke: none;"></path>
  <path d="M54.537186 88.312027C54.537186 87.519333,54.222244 86.759186,53.661758 86.198715C53.101288 85.638229,52.341141 85.323288,51.548447 85.323288C50.755753 85.323288,49.995605 85.638229,49.435135 86.198715C48.874649 86.759186,48.559708 87.519333,48.559708 88.312027C48.559708 89.104721,48.874649 89.864868,49.435135 90.425339C49.995605 90.985825,50.755753 91.300766,51.548447 91.300766C52.341141 91.300766,53.101288 90.985825,53.661758 90.425339C54.222244 89.864868,54.537186 89.104721,54.537186 88.312027Z" style="fill: rgb(100.000000%,100.000000%,100.000000%);stroke: none;"></path>
  <path d="M6.477280 99.024261C6.477280 98.231567,6.162338 97.471420,5.601852 96.910950C5.041382 96.350464,4.281235 96.035522,3.488541 96.035522C2.695847 96.035522,1.935699 96.350464,1.375229 96.910950C0.814743 97.471420,0.499802 98.231567,0.499802 99.024261C0.499802 99.816956,0.814743 100.577103,1.375229 101.137573C1.935699 101.698059,2.695847 102.013000,3.488541 102.013000C4.281235 102.013000,5.041382 101.698059,5.601852 101.137573C6.162338 100.577103,6.477280 99.816956,6.477280 99.024261Z" style="fill: rgb(100.000000%,100.000000%,100.000000%);stroke: none;"></path>
  <path d="M29.352020 77.648346C29.352020 76.855652,29.037079 76.095505,28.476593 75.535034C27.916122 74.974548,27.155975 74.659607,26.363281 74.659607C25.570587 74.659607,24.810440 74.974548,24.249969 75.535034C23.689484 76.095505,23.374542 76.855652,23.374542 77.648346C23.374542 78.441040,23.689484 79.201187,24.249969 79.761658C24.810440 80.322144,25.570587 80.637085,26.363281 80.637085C27.155975 80.637085,27.916122 80.322144,28.476593 79.761658C29.037079 79.201187,29.352020 78.441040,29.352020 77.648346Z" style="fill: rgb(100.000000%,100.000000%,100.000000%);stroke: none;"></path>
  <path d="M21.290390 154.876434C21.290390 154.083740,20.975449 153.323593,20.414963 152.763123C19.854492 152.202637,19.094345 151.887695,18.301651 151.887695C17.508957 151.887695,16.748810 152.202637,16.188339 152.763123C15.627853 153.323593,15.312912 154.083740,15.312912 154.876434C15.312912 155.669128,15.627853 156.429276,16.188339 156.989746C16.748810 157.550232,17.508957 157.865173,18.301651 157.865173C19.094345 157.865173,19.854492 157.550232,20.414963 156.989746C20.975449 156.429276,21.290390 155.669128,21.290390 154.876434Z" style="fill: rgb(100.000000%,100.000000%,100.000000%);stroke: none;"></path>
  <path d="M5.608261 119.651581C5.608261 118.858887,5.293320 118.098740,4.732834 117.538269C4.172363 116.977783,3.412216 116.662842,2.619522 116.662842C1.826828 116.662842,1.066681 116.977783,0.506210 117.538269C-0.054276 118.098740,-0.369217 118.858887,-0.369217 119.651581C-0.369217 120.444275,-0.054276 121.204422,0.506210 121.764893C1.066681 122.325378,1.826828 122.640320,2.619522 122.640320C3.412216 122.640320,4.172363 122.325378,4.732834 121.764893C5.293320 121.204422,5.608261 120.444275,5.608261 119.651581Z" style="fill: rgb(100.000000%,100.000000%,100.000000%);stroke: none;"></path>
  <path d="M69.813904 170.793060C69.813904 170.000366,69.498962 169.240219,68.938477 168.679749C68.378006 168.119263,67.617859 167.804321,66.825165 167.804321C66.032471 167.804321,65.272324 168.119263,64.711853 168.679749C64.151367 169.240219,63.836426 170.000366,63.836426 170.793060C63.836426 171.585754,64.151367 172.345901,64.711853 172.906372C65.272324 173.466858,66.032471 173.781799,66.825165 173.781799C67.617859 173.781799,68.378006 173.466858,68.938477 172.906372C69.498962 172.345901,69.813904 171.585754,69.813904 170.793060Z" style="fill: rgb(100.000000%,100.000000%,100.000000%);stroke: none;"></path>
  <path d="M37.299927 168.265854C37.299927 167.473160,36.984985 166.713013,36.424500 166.152542C35.864029 165.592056,35.103882 165.277115,34.311188 165.277115C33.518494 165.277115,32.758347 165.592056,32.197876 166.152542C31.637390 166.713013,31.322449 167.473160,31.322449 168.265854C31.322449 169.058548,31.637390 169.818695,32.197876 170.379166C32.758347 170.939651,33.518494 171.254593,34.311188 171.254593C35.103882 171.254593,35.864029 170.939651,36.424500 170.379166C36.984985 169.818695,37.299927 169.058548,37.299927 168.265854Z" style="fill: rgb(100.000000%,100.000000%,100.000000%);stroke: none;"></path>
  <path d="M84.838058 146.561325C84.838058 145.768631,84.523117 145.008484,83.962631 144.448013C83.402161 143.887527,82.642014 143.572586,81.849319 143.572586C81.056625 143.572586,80.296478 143.887527,79.736008 144.448013C79.175522 145.008484,78.860580 145.768631,78.860580 146.561325C78.860580 147.354019,79.175522 148.114166,79.736008 148.674637C80.296478 149.235123,81.056625 149.550064,81.849319 149.550064C82.642014 149.550064,83.402161 149.235123,83.962631 148.674637C84.523117 148.114166,84.838058 147.354019,84.838058 146.561325Z" style="fill: rgb(100.000000%,100.000000%,100.000000%);stroke: none;"></path>
  <path d="M82.921326 164.473358C82.921326 163.680664,82.606384 162.920517,82.045898 162.360046C81.485428 161.799561,80.725281 161.484619,79.932587 161.484619C79.139893 161.484619,78.379745 161.799561,77.819275 162.360046C77.258789 162.920517,76.943848 163.680664,76.943848 164.473358C76.943848 165.266052,77.258789 166.026199,77.819275 166.586670C78.379745 167.147156,79.139893 167.462097,79.932587 167.462097C80.725281 167.462097,81.485428 167.147156,82.045898 166.586670C82.606384 166.026199,82.921326 165.266052,82.921326 164.473358Z" style="fill: rgb(100.000000%,100.000000%,100.000000%);stroke: none;"></path>
  <path d="M78.386246 130.322113C78.386246 129.529419,78.071304 128.769272,77.510818 128.208801C76.950348 127.648315,76.190201 127.333374,75.397507 127.333374C74.604813 127.333374,73.844666 127.648315,73.284195 128.208801C72.723709 128.769272,72.408768 129.529419,72.408768 130.322113C72.408768 131.114807,72.723709 131.874954,73.284195 132.435425C73.844666 132.995911,74.604813 133.310852,75.397507 133.310852C76.190201 133.310852,76.950348 132.995911,77.510818 132.435425C78.071304 131.874954,78.386246 131.114807,78.386246 130.322113Z" style="fill: rgb(100.000000%,100.000000%,100.000000%);stroke: none;"></path>
  <path d="M81.980957 141.186417C81.980957 140.393723,81.666016 139.633575,81.105530 139.073105C80.545059 138.512619,79.784912 138.197678,78.992218 138.197678C78.199524 138.197678,77.439377 138.512619,76.878906 139.073105C76.318420 139.633575,76.003479 140.393723,76.003479 141.186417C76.003479 141.979111,76.318420 142.739258,76.878906 143.299728C77.439377 143.860214,78.199524 144.175156,78.992218 144.175156C79.784912 144.175156,80.545059 143.860214,81.105530 143.299728C81.666016 142.739258,81.980957 141.979111,81.980957 141.186417Z" style="fill: rgb(100.000000%,100.000000%,100.000000%);stroke: none;"></path>
  <path d="M74.989151 114.122009C74.989151 113.329315,74.674210 112.569168,74.113724 112.008698C73.553253 111.448212,72.793106 111.133270,72.000412 111.133270C71.207718 111.133270,70.447571 111.448212,69.887100 112.008698C69.326614 112.569168,69.011673 113.329315,69.011673 114.122009C69.011673 114.914703,69.326614 115.674850,69.887100 116.235321C70.447571 116.795807,71.207718 117.110748,72.000412 117.110748C72.793106 117.110748,73.553253 116.795807,74.113724 116.235321C74.674210 115.674850,74.989151 114.914703,74.989151 114.122009Z" style="fill: rgb(100.000000%,100.000000%,100.000000%);stroke: none;"></path>
  <path d="M77.603210 124.695282C77.603210 123.902588,77.288269 123.142441,76.727783 122.581970C76.167313 122.021484,75.407166 121.706543,74.614471 121.706543C73.821777 121.706543,73.061630 122.021484,72.501160 122.581970C71.940674 123.142441,71.625732 123.902588,71.625732 124.695282C71.625732 125.487976,71.940674 126.248123,72.501160 126.808594C73.061630 127.369080,73.821777 127.684021,74.614471 127.684021C75.407166 127.684021,76.167313 127.369080,76.727783 126.808594C77.288269 126.248123,77.603210 125.487976,77.603210 124.695282Z" style="fill: rgb(100.000000%,100.000000%,100.000000%);stroke: none;"></path>
  <path d="M71.482773 100.187836C71.482773 99.395142,71.167831 98.634995,70.607346 98.074524C70.046875 97.514038,69.286728 97.199097,68.494034 97.199097C67.701340 97.199097,66.941193 97.514038,66.380722 98.074524C65.820236 98.634995,65.505295 99.395142,65.505295 100.187836C65.505295 100.980530,65.820236 101.740677,66.380722 102.301147C66.941193 102.861633,67.701340 103.176575,68.494034 103.176575C69.286728 103.176575,70.046875 102.861633,70.607346 102.301147C71.167831 101.740677,71.482773 100.980530,71.482773 100.187836Z" style="fill: rgb(100.000000%,100.000000%,100.000000%);stroke: none;"></path>
  <path d="M73.237885 109.158386C73.237885 108.365692,72.922943 107.605545,72.362457 107.045074C71.801987 106.484589,71.041840 106.169647,70.249146 106.169647C69.456451 106.169647,68.696304 106.484589,68.135834 107.045074C67.575348 107.605545,67.260406 108.365692,67.260406 109.158386C67.260406 109.951080,67.575348 110.711227,68.135834 111.271698C68.696304 111.832184,69.456451 112.147125,70.249146 112.147125C71.041840 112.147125,71.801987 111.832184,72.362457 111.271698C72.922943 110.711227,73.237885 109.951080,73.237885 109.158386Z" style="fill: rgb(100.000000%,100.000000%,100.000000%);stroke: none;"></path>
  <path d="M63.544174 92.915359C63.544174 92.122665,63.229233 91.362518,62.668747 90.802048C62.108276 90.241562,61.348129 89.926620,60.555435 89.926620C59.762741 89.926620,59.002594 90.241562,58.442123 90.802048C57.881638 91.362518,57.566696 92.122665,57.566696 92.915359C57.566696 93.708054,57.881638 94.468201,58.442123 95.028671C59.002594 95.589157,59.762741 95.904099,60.555435 95.904099C61.348129 95.904099,62.108276 95.589157,62.668747 95.028671C63.229233 94.468201,63.544174 93.708054,63.544174 92.915359Z" style="fill: rgb(100.000000%,100.000000%,100.000000%);stroke: none;"></path>
  <path d="M70.711548 95.936478C70.711548 95.143784,70.396606 94.383636,69.836121 93.823166C69.275650 93.262680,68.515503 92.947739,67.722809 92.947739C66.930115 92.947739,66.169968 93.262680,65.609497 93.823166C65.049011 94.383636,64.734070 95.143784,64.734070 95.936478C64.734070 96.729172,65.049011 97.489319,65.609497 98.049789C66.169968 98.610275,66.930115 98.925217,67.722809 98.925217C68.515503 98.925217,69.275650 98.610275,69.836121 98.049789C70.396606 97.489319,70.711548 96.729172,70.711548 95.936478Z" style="fill: rgb(100.000000%,100.000000%,100.000000%);stroke: none;"></path>
  <path d="M52.770706 100.908676C52.770706 100.115982,52.455765 99.355835,51.895279 98.795364C51.334808 98.234879,50.574661 97.919937,49.781967 97.919937C48.989273 97.919937,48.229126 98.234879,47.668655 98.795364C47.108170 99.355835,46.793228 100.115982,46.793228 100.908676C46.793228 101.701370,47.108170 102.461517,47.668655 103.021988C48.229126 103.582474,48.989273 103.897415,49.781967 103.897415C50.574661 103.897415,51.334808 103.582474,51.895279 103.021988C52.455765 102.461517,52.770706 101.701370,52.770706 100.908676Z" style="fill: rgb(100.000000%,100.000000%,100.000000%);stroke: none;"></path>
  <path d="M59.875275 95.479340C59.875275 94.686646,59.560333 93.926498,58.999847 93.366028C58.439377 92.805542,57.679230 92.490601,56.886536 92.490601C56.093842 92.490601,55.333694 92.805542,54.773224 93.366028C54.212738 93.926498,53.897797 94.686646,53.897797 95.479340C53.897797 96.272034,54.212738 97.032181,54.773224 97.592651C55.333694 98.153137,56.093842 98.468079,56.886536 98.468079C57.679230 98.468079,58.439377 98.153137,58.999847 97.592651C59.560333 97.032181,59.875275 96.272034,59.875275 95.479340Z" style="fill: rgb(100.000000%,100.000000%,100.000000%);stroke: none;"></path>
  <path d="M32.634201 105.881882C32.634201 105.089188,32.319260 104.329041,31.758774 103.768570C31.198303 103.208084,30.438156 102.893143,29.645462 102.893143C28.852768 102.893143,28.092621 103.208084,27.532150 103.768570C26.971664 104.329041,26.656723 105.089188,26.656723 105.881882C26.656723 106.674576,26.971664 107.434723,27.532150 107.995193C28.092621 108.555679,28.852768 108.870621,29.645462 108.870621C30.438156 108.870621,31.198303 108.555679,31.758774 107.995193C32.319260 107.434723,32.634201 106.674576,32.634201 105.881882Z" style="fill: rgb(100.000000%,100.000000%,100.000000%);stroke: none;"></path>
  <path d="M48.559723 103.639526C48.559723 102.846832,48.244781 102.086685,47.684296 101.526215C47.123825 100.965729,46.363678 100.650787,45.570984 100.650787C44.778290 100.650787,44.018143 100.965729,43.457672 101.526215C42.897186 102.086685,42.582245 102.846832,42.582245 103.639526C42.582245 104.432220,42.897186 105.192368,43.457672 105.752838C44.018143 106.313324,44.778290 106.628265,45.570984 106.628265C46.363678 106.628265,47.123825 106.313324,47.684296 105.752838C48.244781 105.192368,48.559723 104.432220,48.559723 103.639526Z" style="fill: rgb(100.000000%,100.000000%,100.000000%);stroke: none;"></path>
  <path d="M15.059891 66.449142C15.059891 65.656448,14.744949 64.896301,14.184464 64.335831C13.623993 63.775345,12.863846 63.460403,12.071152 63.460403C11.278458 63.460403,10.518311 63.775345,9.957840 64.335831C9.397354 64.896301,9.082413 65.656448,9.082413 66.449142C9.082413 67.241837,9.397354 68.001984,9.957840 68.562454C10.518311 69.122940,11.278458 69.437881,12.071152 69.437881C12.863846 69.437881,13.623993 69.122940,14.184464 68.562454C14.744949 68.001984,15.059891 67.241837,15.059891 66.449142Z" style="fill: rgb(100.000000%,100.000000%,100.000000%);stroke: none;"></path>
  <path d="M22.892319 97.522446C22.892319 96.729752,22.577377 95.969604,22.016891 95.409134C21.456421 94.848648,20.696274 94.533707,19.903580 94.533707C19.110886 94.533707,18.350739 94.848648,17.790268 95.409134C17.229782 95.969604,16.914841 96.729752,16.914841 97.522446C16.914841 98.315140,17.229782 99.075287,17.790268 99.635757C18.350739 100.196243,19.110886 100.511185,19.903580 100.511185C20.696274 100.511185,21.456421 100.196243,22.016891 99.635757C22.577377 99.075287,22.892319 98.315140,22.892319 97.522446Z" style="fill: rgb(100.000000%,100.000000%,100.000000%);stroke: none;"></path>
  <path d="M66.782867 21.069092C66.782867 20.276398,66.467926 19.516251,65.907440 18.955780C65.346970 18.395294,64.586823 18.080353,63.794128 18.080353C63.001434 18.080353,62.241287 18.395294,61.680817 18.955780C61.120331 19.516251,60.805389 20.276398,60.805389 21.069092C60.805389 21.861786,61.120331 22.621933,61.680817 23.182404C62.241287 23.742889,63.001434 24.057831,63.794128 24.057831C64.586823 24.057831,65.346970 23.742889,65.907440 23.182404C66.467926 22.621933,66.782867 21.861786,66.782867 21.069092Z" style="fill: rgb(100.000000%,100.000000%,100.000000%);stroke: none;"></path>
  <path d="M30.447830 49.026505C30.447830 48.233810,30.132889 47.473663,29.572403 46.913193C29.011932 46.352707,28.251785 46.037766,27.459091 46.037766C26.666397 46.037766,25.906250 46.352707,25.345779 46.913193C24.785294 47.473663,24.470352 48.233810,24.470352 49.026505C24.470352 49.819199,24.785294 50.579346,25.345779 51.139816C25.906250 51.700302,26.666397 52.015244,27.459091 52.015244C28.251785 52.015244,29.011932 51.700302,29.572403 51.139816C30.132889 50.579346,30.447830 49.819199,30.447830 49.026505Z" style="fill: rgb(100.000000%,100.000000%,100.000000%);stroke: none;"></path>
  <path d="M122.256927 29.562805C122.256927 28.770111,121.941986 28.009964,121.381500 27.449493C120.821030 26.889008,120.060883 26.574066,119.268188 26.574066C118.475494 26.574066,117.715347 26.889008,117.154877 27.449493C116.594391 28.009964,116.279449 28.770111,116.279449 29.562805C116.279449 30.355499,116.594391 31.115646,117.154877 31.676117C117.715347 32.236603,118.475494 32.551544,119.268188 32.551544C120.060883 32.551544,120.821030 32.236603,121.381500 31.676117C121.941986 31.115646,122.256927 30.355499,122.256927 29.562805Z" style="fill: rgb(100.000000%,100.000000%,100.000000%);stroke: none;"></path>
  <path d="M91.207870 9.703751C91.207870 8.911057,90.892929 8.150909,90.332443 7.590439C89.771973 7.029953,89.011826 6.715012,88.219131 6.715012C87.426437 6.715012,86.666290 7.029953,86.105820 7.590439C85.545334 8.150909,85.230392 8.911057,85.230392 9.703751C85.230392 10.496445,85.545334 11.256592,86.105820 11.817062C86.666290 12.377548,87.426437 12.692490,88.219131 12.692490C89.011826 12.692490,89.771973 12.377548,90.332443 11.817062C90.892929 11.256592,91.207870 10.496445,91.207870 9.703751Z" style="fill: rgb(100.000000%,100.000000%,100.000000%);stroke: none;"></path>
  <path d="M151.004761 57.377258C151.004761 56.584564,150.689819 55.824417,150.129333 55.263947C149.568863 54.703461,148.808716 54.388519,148.016022 54.388519C147.223328 54.388519,146.463181 54.703461,145.902710 55.263947C145.342224 55.824417,145.027283 56.584564,145.027283 57.377258C145.027283 58.169952,145.342224 58.930099,145.902710 59.490570C146.463181 60.051056,147.223328 60.365997,148.016022 60.365997C148.808716 60.365997,149.568863 60.051056,150.129333 59.490570C150.689819 58.930099,151.004761 58.169952,151.004761 57.377258Z" style="fill: rgb(100.000000%,100.000000%,100.000000%);stroke: none;"></path>
  <path d="M127.510727 43.512680C127.510727 42.719986,127.195786 41.959839,126.635300 41.399368C126.074829 40.838882,125.314682 40.523941,124.521988 40.523941C123.729294 40.523941,122.969147 40.838882,122.408676 41.399368C121.848190 41.959839,121.533249 42.719986,121.533249 43.512680C121.533249 44.305374,121.848190 45.065521,122.408676 45.625992C122.969147 46.186478,123.729294 46.501419,124.521988 46.501419C125.314682 46.501419,126.074829 46.186478,126.635300 45.625992C127.195786 45.065521,127.510727 44.305374,127.510727 43.512680Z" style="fill: rgb(100.000000%,100.000000%,100.000000%);stroke: none;"></path>
  <path d="M197.326950 73.248734C197.326950 72.456039,197.012009 71.695892,196.451523 71.135422C195.891052 70.574936,195.130905 70.259995,194.338211 70.259995C193.545517 70.259995,192.785370 70.574936,192.224899 71.135422C191.664413 71.695892,191.349472 72.456039,191.349472 73.248734C191.349472 74.041428,191.664413 74.801575,192.224899 75.362045C192.785370 75.922531,193.545517 76.237473,194.338211 76.237473C195.130905 76.237473,195.891052 75.922531,196.451523 75.362045C197.012009 74.801575,197.326950 74.041428,197.326950 73.248734Z" style="fill: rgb(100.000000%,100.000000%,100.000000%);stroke: none;"></path>
  <path d="M166.452133 54.845688C166.452133 54.052994,166.137192 53.292847,165.576706 52.732376C165.016235 52.171890,164.256088 51.856949,163.463394 51.856949C162.670700 51.856949,161.910553 52.171890,161.350082 52.732376C160.789597 53.292847,160.474655 54.052994,160.474655 54.845688C160.474655 55.638382,160.789597 56.398529,161.350082 56.959000C161.910553 57.519485,162.670700 57.834427,163.463394 57.834427C164.256088 57.834427,165.016235 57.519485,165.576706 56.959000C166.137192 56.398529,166.452133 55.638382,166.452133 54.845688Z" style="fill: rgb(100.000000%,100.000000%,100.000000%);stroke: none;"></path>
  <path d="M185.852798 141.071960C185.852798 140.279266,185.537857 139.519119,184.977371 138.958649C184.416901 138.398163,183.656754 138.083221,182.864059 138.083221C182.071365 138.083221,181.311218 138.398163,180.750748 138.958649C180.190262 139.519119,179.875320 140.279266,179.875320 141.071960C179.875320 141.864655,180.190262 142.624802,180.750748 143.185272C181.311218 143.745758,182.071365 144.060699,182.864059 144.060699C183.656754 144.060699,184.416901 143.745758,184.977371 143.185272C185.537857 142.624802,185.852798 141.864655,185.852798 141.071960Z" style="fill: rgb(100.000000%,100.000000%,100.000000%);stroke: none;"></path>
  <path d="M198.572189 98.694839C198.572189 97.902145,198.257248 97.141998,197.696762 96.581528C197.136292 96.021042,196.376144 95.706100,195.583450 95.706100C194.790756 95.706100,194.030609 96.021042,193.470139 96.581528C192.909653 97.141998,192.594711 97.902145,192.594711 98.694839C192.594711 99.487534,192.909653 100.247681,193.470139 100.808151C194.030609 101.368637,194.790756 101.683578,195.583450 101.683578C196.376144 101.683578,197.136292 101.368637,197.696762 100.808151C198.257248 100.247681,198.572189 99.487534,198.572189 98.694839Z" style="fill: rgb(100.000000%,100.000000%,100.000000%);stroke: none;"></path>
  <path d="M142.268280 167.927292C142.268280 167.134598,141.953339 166.374451,141.392853 165.813980C140.832382 165.253494,140.072235 164.938553,139.279541 164.938553C138.486847 164.938553,137.726700 165.253494,137.166229 165.813980C136.605743 166.374451,136.290802 167.134598,136.290802 167.927292C136.290802 168.719986,136.605743 169.480133,137.166229 170.040604C137.726700 170.601089,138.486847 170.916031,139.279541 170.916031C140.072235 170.916031,140.832382 170.601089,141.392853 170.040604C141.953339 169.480133,142.268280 168.719986,142.268280 167.927292Z" style="fill: rgb(100.000000%,100.000000%,100.000000%);stroke: none;"></path>
  <path d="M174.057556 160.167511C174.057556 159.374817,173.742615 158.614670,173.182129 158.054199C172.621658 157.493713,171.861511 157.178772,171.068817 157.178772C170.276123 157.178772,169.515976 157.493713,168.955505 158.054199C168.395020 158.614670,168.080078 159.374817,168.080078 160.167511C168.080078 160.960205,168.395020 161.720352,168.955505 162.280823C169.515976 162.841309,170.276123 163.156250,171.068817 163.156250C171.861511 163.156250,172.621658 162.841309,173.182129 162.280823C173.742615 161.720352,174.057556 160.960205,174.057556 160.167511Z" style="fill: rgb(100.000000%,100.000000%,100.000000%);stroke: none;"></path>
  <path d="M125.101837 148.474411C125.101837 147.681717,124.786896 146.921570,124.226410 146.361099C123.665939 145.800613,122.905792 145.485672,122.113098 145.485672C121.320404 145.485672,120.560257 145.800613,119.999786 146.361099C119.439301 146.921570,119.124359 147.681717,119.124359 148.474411C119.124359 149.267105,119.439301 150.027252,119.999786 150.587723C120.560257 151.148209,121.320404 151.463150,122.113098 151.463150C122.905792 151.463150,123.665939 151.148209,124.226410 150.587723C124.786896 150.027252,125.101837 149.267105,125.101837 148.474411Z" style="fill: rgb(100.000000%,100.000000%,100.000000%);stroke: none;"></path>
  <path d="M129.517609 163.790344C129.517609 162.997650,129.202667 162.237503,128.642181 161.677032C128.081711 161.116547,127.321564 160.801605,126.528870 160.801605C125.736176 160.801605,124.976028 161.116547,124.415558 161.677032C123.855072 162.237503,123.540131 162.997650,123.540131 163.790344C123.540131 164.583038,123.855072 165.343185,124.415558 165.903656C124.976028 166.464142,125.736176 166.779083,126.528870 166.779083C127.321564 166.779083,128.081711 166.464142,128.642181 165.903656C129.202667 165.343185,129.517609 164.583038,129.517609 163.790344Z" style="fill: rgb(100.000000%,100.000000%,100.000000%);stroke: none;"></path>
  <path d="M128.070007 135.713806C128.070007 134.921112,127.755066 134.160965,127.194580 133.600494C126.634109 133.040009,125.873962 132.725067,125.081268 132.725067C124.288574 132.725067,123.528427 133.040009,122.967957 133.600494C122.407471 134.160965,122.092529 134.921112,122.092529 135.713806C122.092529 136.506500,122.407471 137.266647,122.967957 137.827118C123.528427 138.387604,124.288574 138.702545,125.081268 138.702545C125.873962 138.702545,126.634109 138.387604,127.194580 137.827118C127.755066 137.266647,128.070007 136.506500,128.070007 135.713806Z" style="fill: rgb(100.000000%,100.000000%,100.000000%);stroke: none;"></path>
  <path d="M126.062637 143.832260C126.062637 143.039566,125.747696 142.279419,125.187210 141.718948C124.626740 141.158463,123.866592 140.843521,123.073898 140.843521C122.281204 140.843521,121.521057 141.158463,120.960587 141.718948C120.400101 142.279419,120.085159 143.039566,120.085159 143.832260C120.085159 144.624954,120.400101 145.385101,120.960587 145.945572C121.521057 146.506058,122.281204 146.820999,123.073898 146.820999C123.866592 146.820999,124.626740 146.506058,125.187210 145.945572C125.747696 145.385101,126.062637 144.624954,126.062637 143.832260Z" style="fill: rgb(100.000000%,100.000000%,100.000000%);stroke: none;"></path>
  <path d="M123.169632 126.244095C123.169632 125.451401,122.854691 124.691254,122.294205 124.130783C121.733734 123.570297,120.973587 123.255356,120.180893 123.255356C119.388199 123.255356,118.628052 123.570297,118.067581 124.130783C117.507095 124.691254,117.192154 125.451401,117.192154 126.244095C117.192154 127.036789,117.507095 127.796936,118.067581 128.357407C118.628052 128.917892,119.388199 129.232834,120.180893 129.232834C120.973587 129.232834,121.733734 128.917892,122.294205 128.357407C122.854691 127.796936,123.169632 127.036789,123.169632 126.244095Z" style="fill: rgb(100.000000%,100.000000%,100.000000%);stroke: none;"></path>
  <path d="M128.789902 131.635727C128.789902 130.843033,128.474960 130.082886,127.914474 129.522415C127.354004 128.961929,126.593857 128.646988,125.801163 128.646988C125.008469 128.646988,124.248322 128.961929,123.687851 129.522415C123.127365 130.082886,122.812424 130.843033,122.812424 131.635727C122.812424 132.428421,123.127365 133.188568,123.687851 133.749039C124.248322 134.309525,125.008469 134.624466,125.801163 134.624466C126.593857 134.624466,127.354004 134.309525,127.914474 133.749039C128.474960 133.188568,128.789902 132.428421,128.789902 131.635727Z" style="fill: rgb(100.000000%,100.000000%,100.000000%);stroke: none;"></path>
  <path d="M109.200897 130.513885C109.200897 129.721191,108.885956 128.961044,108.325470 128.400574C107.764999 127.840088,107.004852 127.525146,106.212158 127.525146C105.419464 127.525146,104.659317 127.840088,104.098846 128.400574C103.538361 128.961044,103.223419 129.721191,103.223419 130.513885C103.223419 131.306580,103.538361 132.066727,104.098846 132.627197C104.659317 133.187683,105.419464 133.502625,106.212158 133.502625C107.004852 133.502625,107.764999 133.187683,108.325470 132.627197C108.885956 132.066727,109.200897 131.306580,109.200897 130.513885Z" style="fill: rgb(100.000000%,100.000000%,100.000000%);stroke: none;"></path>
  <path d="M118.661133 127.722198C118.661133 126.929504,118.346191 126.169357,117.785706 125.608887C117.225235 125.048401,116.465088 124.733459,115.672394 124.733459C114.879700 124.733459,114.119553 125.048401,113.559082 125.608887C112.998596 126.169357,112.683655 126.929504,112.683655 127.722198C112.683655 128.514893,112.998596 129.275040,113.559082 129.835510C114.119553 130.395996,114.879700 130.710938,115.672394 130.710938C116.465088 130.710938,117.225235 130.395996,117.785706 129.835510C118.346191 129.275040,118.661133 128.514893,118.661133 127.722198Z" style="fill: rgb(100.000000%,100.000000%,100.000000%);stroke: none;"></path>
  <path d="M92.023361 133.115005C92.023361 132.322311,91.708420 131.562164,91.147934 131.001694C90.587463 130.441208,89.827316 130.126266,89.034622 130.126266C88.241928 130.126266,87.481781 130.441208,86.921310 131.001694C86.360825 131.562164,86.045883 132.322311,86.045883 133.115005C86.045883 133.907700,86.360825 134.667847,86.921310 135.228317C87.481781 135.788803,88.241928 136.103745,89.034622 136.103745C89.827316 136.103745,90.587463 135.788803,91.147934 135.228317C91.708420 134.667847,92.023361 133.907700,92.023361 133.115005Z" style="fill: rgb(100.000000%,100.000000%,100.000000%);stroke: none;"></path>
  <path d="M103.535080 130.943863C103.535080 130.151169,103.220139 129.391022,102.659653 128.830551C102.099182 128.270065,101.339035 127.955124,100.546341 127.955124C99.753647 127.955124,98.993500 128.270065,98.433029 128.830551C97.872543 129.391022,97.557602 130.151169,97.557602 130.943863C97.557602 131.736557,97.872543 132.496704,98.433029 133.057175C98.993500 133.617661,99.753647 133.932602,100.546341 133.932602C101.339035 133.932602,102.099182 133.617661,102.659653 133.057175C103.220139 132.496704,103.535080 131.736557,103.535080 130.943863Z" style="fill: rgb(100.000000%,100.000000%,100.000000%);stroke: none;"></path>
  <path d="M73.978363 136.437271C73.978363 135.644577,73.663422 134.884430,73.102936 134.323959C72.542465 133.763474,71.782318 133.448532,70.989624 133.448532C70.196930 133.448532,69.436783 133.763474,68.876312 134.323959C68.315826 134.884430,68.000885 135.644577,68.000885 136.437271C68.000885 137.229965,68.315826 137.990112,68.876312 138.550583C69.436783 139.111069,70.196930 139.426010,70.989624 139.426010C71.782318 139.426010,72.542465 139.111069,73.102936 138.550583C73.663422 137.990112,73.978363 137.229965,73.978363 136.437271Z" style="fill: rgb(100.000000%,100.000000%,100.000000%);stroke: none;"></path>
  <path d="M86.194321 134.955795C86.194321 134.163101,85.879379 133.402954,85.318893 132.842484C84.758423 132.281998,83.998276 131.967056,83.205582 131.967056C82.412888 131.967056,81.652740 132.281998,81.092270 132.842484C80.531784 133.402954,80.216843 134.163101,80.216843 134.955795C80.216843 135.748489,80.531784 136.508636,81.092270 137.069107C81.652740 137.629593,82.412888 137.944534,83.205582 137.944534C83.998276 137.944534,84.758423 137.629593,85.318893 137.069107C85.879379 136.508636,86.194321 135.748489,86.194321 134.955795Z" style="fill: rgb(100.000000%,100.000000%,100.000000%);stroke: none;"></path>
  <path d="M52.142700 145.382660C52.142700 144.589966,51.827759 143.829819,51.267273 143.269348C50.706802 142.708862,49.946655 142.393921,49.153961 142.393921C48.361267 142.393921,47.601120 142.708862,47.040649 143.269348C46.480164 143.829819,46.165222 144.589966,46.165222 145.382660C46.165222 146.175354,46.480164 146.935501,47.040649 147.495972C47.601120 148.056458,48.361267 148.371399,49.153961 148.371399C49.946655 148.371399,50.706802 148.056458,51.267273 147.495972C51.827759 146.935501,52.142700 146.175354,52.142700 145.382660Z" style="fill: rgb(100.000000%,100.000000%,100.000000%);stroke: none;"></path>
  <path d="M67.437836 136.095581C67.437836 135.302887,67.122894 134.542740,66.562408 133.982269C66.001938 133.421783,65.241791 133.106842,64.449097 133.106842C63.656403 133.106842,62.896255 133.421783,62.335785 133.982269C61.775299 134.542740,61.460358 135.302887,61.460358 136.095581C61.460358 136.888275,61.775299 137.648422,62.335785 138.208893C62.896255 138.769379,63.656403 139.084320,64.449097 139.084320C65.241791 139.084320,66.001938 138.769379,66.562408 138.208893C67.122894 137.648422,67.437836 136.888275,67.437836 136.095581Z" style="fill: rgb(100.000000%,100.000000%,100.000000%);stroke: none;"></path>
  <path d="M65.967209 187.147400C65.967209 186.354706,65.652267 185.594559,65.091782 185.034088C64.531311 184.473602,63.771164 184.158661,62.978470 184.158661C62.185776 184.158661,61.425629 184.473602,60.865158 185.034088C60.304672 185.594559,59.989731 186.354706,59.989731 187.147400C59.989731 187.940094,60.304672 188.700241,60.865158 189.260712C61.425629 189.821198,62.185776 190.136139,62.978470 190.136139C63.771164 190.136139,64.531311 189.821198,65.091782 189.260712C65.652267 188.700241,65.967209 187.940094,65.967209 187.147400Z" style="fill: rgb(100.000000%,100.000000%,100.000000%);stroke: none;"></path>
  <path d="M50.845688 158.946930C50.845688 158.154236,50.530746 157.394089,49.970261 156.833618C49.409790 156.273132,48.649643 155.958191,47.856949 155.958191C47.064255 155.958191,46.304108 156.273132,45.743637 156.833618C45.183151 157.394089,44.868210 158.154236,44.868210 158.946930C44.868210 159.739624,45.183151 160.499771,45.743637 161.060242C46.304108 161.620728,47.064255 161.935669,47.856949 161.935669C48.649643 161.935669,49.409790 161.620728,49.970261 161.060242C50.530746 160.499771,50.845688 159.739624,50.845688 158.946930Z" style="fill: rgb(100.000000%,100.000000%,100.000000%);stroke: none;"></path>
  <path d="M127.517593 191.493546C127.517593 190.700851,127.202652 189.940704,126.642166 189.380234C126.081696 188.819748,125.321548 188.504807,124.528854 188.504807C123.736160 188.504807,122.976013 188.819748,122.415543 189.380234C121.855057 189.940704,121.540115 190.700851,121.540115 191.493546C121.540115 192.286240,121.855057 193.046387,122.415543 193.606857C122.976013 194.167343,123.736160 194.482285,124.528854 194.482285C125.321548 194.482285,126.081696 194.167343,126.642166 193.606857C127.202652 193.046387,127.517593 192.286240,127.517593 191.493546Z" style="fill: rgb(100.000000%,100.000000%,100.000000%);stroke: none;"></path>
  <path d="M86.959167 192.758682C86.959167 191.965988,86.644226 191.205841,86.083740 190.645370C85.523270 190.084885,84.763123 189.769943,83.970428 189.769943C83.177734 189.769943,82.417587 190.084885,81.857117 190.645370C81.296631 191.205841,80.981689 191.965988,80.981689 192.758682C80.981689 193.551376,81.296631 194.311523,81.857117 194.871994C82.417587 195.432480,83.177734 195.747421,83.970428 195.747421C84.763123 195.747421,85.523270 195.432480,86.083740 194.871994C86.644226 194.311523,86.959167 193.551376,86.959167 192.758682Z" style="fill: rgb(100.000000%,100.000000%,100.000000%);stroke: none;"></path>
  <path d="M157.437622 153.864807C157.437622 153.072113,157.122681 152.311966,156.562195 151.751495C156.001724 151.191010,155.241577 150.876068,154.448883 150.876068C153.656189 150.876068,152.896042 151.191010,152.335571 151.751495C151.775085 152.311966,151.460144 153.072113,151.460144 153.864807C151.460144 154.657501,151.775085 155.417648,152.335571 155.978119C152.896042 156.538605,153.656189 156.853546,154.448883 156.853546C155.241577 156.853546,156.001724 156.538605,156.562195 155.978119C157.122681 155.417648,157.437622 154.657501,157.437622 153.864807Z" style="fill: rgb(100.000000%,100.000000%,100.000000%);stroke: none;"></path>
  <path d="M148.371063 183.809906C148.371063 183.017212,148.056122 182.257065,147.495636 181.696594C146.935165 181.136108,146.175018 180.821167,145.382324 180.821167C144.589630 180.821167,143.829483 181.136108,143.269012 181.696594C142.708527 182.257065,142.393585 183.017212,142.393585 183.809906C142.393585 184.602600,142.708527 185.362747,143.269012 185.923218C143.829483 186.483704,144.589630 186.798645,145.382324 186.798645C146.175018 186.798645,146.935165 186.483704,147.495636 185.923218C148.056122 185.362747,148.371063 184.602600,148.371063 183.809906Z" style="fill: rgb(100.000000%,100.000000%,100.000000%);stroke: none;"></path>
  <path d="M137.451385 136.674637C137.451385 135.881943,137.136444 135.121796,136.575958 134.561325C136.015488 134.000839,135.255341 133.685898,134.462646 133.685898C133.669952 133.685898,132.909805 134.000839,132.349335 134.561325C131.788849 135.121796,131.473907 135.881943,131.473907 136.674637C131.473907 137.467331,131.788849 138.227478,132.349335 138.787949C132.909805 139.348434,133.669952 139.663376,134.462646 139.663376C135.255341 139.663376,136.015488 139.348434,136.575958 138.787949C137.136444 138.227478,137.451385 137.467331,137.451385 136.674637Z" style="fill: rgb(100.000000%,100.000000%,100.000000%);stroke: none;"></path>
  <path d="M153.039322 141.569550C153.039322 140.776855,152.724380 140.016708,152.163895 139.456238C151.603424 138.895752,150.843277 138.580811,150.050583 138.580811C149.257889 138.580811,148.497742 138.895752,147.937271 139.456238C147.376785 140.016708,147.061844 140.776855,147.061844 141.569550C147.061844 142.362244,147.376785 143.122391,147.937271 143.682861C148.497742 144.243347,149.257889 144.558289,150.050583 144.558289C150.843277 144.558289,151.603424 144.243347,152.163895 143.682861C152.724380 143.122391,153.039322 142.362244,153.039322 141.569550Z" style="fill: rgb(100.000000%,100.000000%,100.000000%);stroke: none;"></path>
  <path d="M123.426453 140.512146C123.426453 139.719452,123.111511 138.959305,122.551025 138.398834C121.990555 137.838348,121.230408 137.523407,120.437714 137.523407C119.645020 137.523407,118.884872 137.838348,118.324402 138.398834C117.763916 138.959305,117.448975 139.719452,117.448975 140.512146C117.448975 141.304840,117.763916 142.064987,118.324402 142.625458C118.884872 143.185944,119.645020 143.500885,120.437714 143.500885C121.230408 143.500885,121.990555 143.185944,122.551025 142.625458C123.111511 142.064987,123.426453 141.304840,123.426453 140.512146Z" style="fill: rgb(100.000000%,100.000000%,100.000000%);stroke: none;"></path>
  <path d="M132.166168 137.834122C132.166168 137.041428,131.851227 136.281281,131.290741 135.720810C130.730270 135.160324,129.970123 134.845383,129.177429 134.845383C128.384735 134.845383,127.624588 135.160324,127.064117 135.720810C126.503632 136.281281,126.188690 137.041428,126.188690 137.834122C126.188690 138.626816,126.503632 139.386963,127.064117 139.947433C127.624588 140.507919,128.384735 140.822861,129.177429 140.822861C129.970123 140.822861,130.730270 140.507919,131.290741 139.947433C131.851227 139.386963,132.166168 138.626816,132.166168 137.834122Z" style="fill: rgb(100.000000%,100.000000%,100.000000%);stroke: none;"></path>
  <path d="M113.719467 136.602188C113.719467 135.809494,113.404526 135.049347,112.844040 134.488876C112.283569 133.928391,111.523422 133.613449,110.730728 133.613449C109.938034 133.613449,109.177887 133.928391,108.617416 134.488876C108.056931 135.049347,107.741989 135.809494,107.741989 136.602188C107.741989 137.394882,108.056931 138.155029,108.617416 138.715500C109.177887 139.275986,109.938034 139.590927,110.730728 139.590927C111.523422 139.590927,112.283569 139.275986,112.844040 138.715500C113.404526 138.155029,113.719467 137.394882,113.719467 136.602188Z" style="fill: rgb(100.000000%,100.000000%,100.000000%);stroke: none;"></path>
  <path d="M119.247635 141.603821C119.247635 140.811127,118.932693 140.050980,118.372208 139.490509C117.811737 138.930023,117.051590 138.615082,116.258896 138.615082C115.466202 138.615082,114.706055 138.930023,114.145584 139.490509C113.585098 140.050980,113.270157 140.811127,113.270157 141.603821C113.270157 142.396515,113.585098 143.156662,114.145584 143.717133C114.706055 144.277618,115.466202 144.592560,116.258896 144.592560C117.051590 144.592560,117.811737 144.277618,118.372208 143.717133C118.932693 143.156662,119.247635 142.396515,119.247635 141.603821Z" style="fill: rgb(100.000000%,100.000000%,100.000000%);stroke: none;"></path>
  <path d="M115.253647 123.100815C115.253647 122.308121,114.938705 121.547974,114.378220 120.987503C113.817749 120.427017,113.057602 120.112076,112.264908 120.112076C111.472214 120.112076,110.712067 120.427017,110.151596 120.987503C109.591110 121.547974,109.276169 122.308121,109.276169 123.100815C109.276169 123.893509,109.591110 124.653656,110.151596 125.214127C110.712067 125.774612,111.472214 126.089554,112.264908 126.089554C113.057602 126.089554,113.817749 125.774612,114.378220 125.214127C114.938705 124.653656,115.253647 123.893509,115.253647 123.100815Z" style="fill: rgb(100.000000%,100.000000%,100.000000%);stroke: none;"></path>
  <path d="M114.211533 132.573853C114.211533 131.781158,113.896591 131.021011,113.336105 130.460541C112.775635 129.900055,112.015488 129.585114,111.222794 129.585114C110.430099 129.585114,109.669952 129.900055,109.109482 130.460541C108.548996 131.021011,108.234055 131.781158,108.234055 132.573853C108.234055 133.366547,108.548996 134.126694,109.109482 134.687164C109.669952 135.247650,110.430099 135.562592,111.222794 135.562592C112.015488 135.562592,112.775635 135.247650,113.336105 134.687164C113.896591 134.126694,114.211533 133.366547,114.211533 132.573853Z" style="fill: rgb(100.000000%,100.000000%,100.000000%);stroke: none;"></path>
  <path d="M111.600830 111.405518C111.102997 104.498245,109.896378 97.660477,108.000000 91.000000C105.472336 82.122330,101.731949 73.605560,99.800888 64.574966C96.642090 49.802902,98.539230 34.058197,108.000000 22.355637C121.015564 6.255936,144.026550 2.403992,161.392029 13.602615C177.605392 24.058273,183.898117 44.793182,175.390091 61.954636C168.337280 76.180801,153.083527 83.478577,137.411179 86.675293C127.696365 88.656845,117.755920 89.238647,108.000000 91.000000C100.683014 92.321030,93.505753 94.298462,86.444016 96.623016C80.498901 98.580002,74.613892 100.793060,69.242233 104.011978C65.835876 106.053223,62.111099 108.399796,58.545135 106.790909C55.295044 105.324524,54.369766 101.484619,53.672302 97.935669C52.736282 93.172882,51.548447 88.312027,48.310303 84.684799C40.400650 75.824768,26.363281 77.648346,17.080566 86.322830C3.488541 99.024261,2.619522 119.651581,10.356308 137.029770C18.301651 154.876434,34.311188 168.265854,53.660339 169.769806C66.825165 170.793060,79.932587 164.473358,81.229858 152.350250C81.849319 146.561325,78.992218 141.186417,77.172745 135.687424C75.397507 130.322113,74.614471 124.695282,73.258698 119.211502C72.000412 114.122009,70.249146 109.158386,69.242233 104.011978C68.494034 100.187836,67.722809 95.936478,64.191071 94.447815C60.555435 92.915359,56.886536 95.479340,53.672302 97.935669C49.781967 100.908676,45.570984 103.639526,40.715515 104.323196C29.645462 105.881882,19.903580 97.522446,17.080566 86.322830C12.071152 66.449142,27.459091 49.026505,44.307983 36.062393C63.794128 21.069092,88.219131 9.703751,108.000000 22.355637C119.268188 29.562805,124.521988 43.512680,136.061066 50.322266C148.016022 57.377258,163.463394 54.845688,175.390091 61.954636C194.338211 73.248734,195.583450 98.694839,188.883652 121.016510C182.864059 141.071960,171.068817 160.167511,151.061951 165.051193C139.279541 167.927292,126.528870 163.790344,123.390015 152.903366C122.113098 148.474411,123.073898 143.832260,124.178238 139.365967C125.081268 135.713806,125.801163 131.635727,123.151718 129.094070C120.180893 126.244095,115.672394 127.722198,111.625137 128.916534C106.212158 130.513885,100.546341 130.943863,95.003967 131.989166C89.034622 133.115005,83.205582 134.955795,77.172745 135.687424C70.989624 136.437271,64.449097 136.095581,59.097458 139.345047C49.153961 145.382660,47.856949 158.946930,53.660339 169.769806C62.978470 187.147400,83.970428 192.758682,104.126389 192.129959C124.528854 191.493546,145.382324 183.809906,151.061951 165.051193C154.448883 153.864807,150.050583 141.569550,139.455872 138.242599C134.462646 136.674637,129.177429 137.834122,124.178238 139.365967C120.437714 140.512146,116.258896 141.603821,113.422974 139.038010C110.730728 136.602188,111.222794 132.573853,111.625137 128.916534C112.264908 123.100815,112.021255 117.238861,111.600830 111.405518" style="stroke:rgb(0.000000%,0.000000%,0.000000%); stroke-width: 0.498138;stroke-linecap: round;stroke-linejoin: round;stroke-miterlimit: 10.000000;fill: none;"></path>
  <path d="M111.600830 111.405518C111.102997 104.498245,109.896378 97.660477,108.000000 91.000000C105.472336 82.122330,101.731949 73.605560,99.800888 64.574966C96.642090 49.802902,98.539230 34.058197,108.000000 22.355637" style="stroke:rgb(0.000000%,0.000000%,0.000000%); stroke-width: 1.494400;stroke-linecap: round;stroke-linejoin: round;stroke-miterlimit: 10.000000;fill: none;"></path>
  <path d="M111.625137 128.916534C112.264908 123.100815,112.021255 117.238861,111.600830 111.405518" style="stroke:rgb(0.000000%,0.000000%,0.000000%); stroke-width: 1.494400;stroke-linecap: round;stroke-linejoin: round;stroke-miterlimit: 10.000000;fill: none;"></path>
  <path d="M110.988739 91.000000C110.988739 90.207306,110.673798 89.447159,110.113312 88.886688C109.552841 88.326202,108.792694 88.011261,108.000000 88.011261C107.207306 88.011261,106.447159 88.326202,105.886688 88.886688C105.326202 89.447159,105.011261 90.207306,105.011261 91.000000C105.011261 91.792694,105.326202 92.552841,105.886688 93.113312C106.447159 93.673798,107.207306 93.988739,108.000000 93.988739C108.792694 93.988739,109.552841 93.673798,110.113312 93.113312C110.673798 92.552841,110.988739 91.792694,110.988739 91.000000Z" style="fill: rgb(100.000000%,100.000000%,100.000000%);stroke: none;"></path>
  <path d="M110.324860 101.110199C109.723923 97.704788,108.948181 94.330231,108.000000 91.000000C106.736160 86.561157,105.169144 82.212540,103.676712 77.844818" style="stroke:rgb(0.000000%,0.000000%,0.000000%); stroke-width: 1.494400;stroke-linecap: round;stroke-linejoin: round;stroke-miterlimit: 10.000000;fill: none;"></path>
  <path d="M178.378830 61.954636C178.378830 61.161942,178.063889 60.401794,177.503403 59.841324C176.942932 59.280838,176.182785 58.965897,175.390091 58.965897C174.597397 58.965897,173.837250 59.280838,173.276779 59.841324C172.716293 60.401794,172.401352 61.161942,172.401352 61.954636C172.401352 62.747330,172.716293 63.507477,173.276779 64.067947C173.837250 64.628433,174.597397 64.943375,175.390091 64.943375C176.182785 64.943375,176.942932 64.628433,177.503403 64.067947C178.063889 63.507477,178.378830 62.747330,178.378830 61.954636Z" style="fill: rgb(100.000000%,100.000000%,100.000000%);stroke: none;"></path>
  <path d="M177.661591 35.263962C180.197922 43.899826,179.644104 53.373917,175.390091 61.954636C171.863678 69.067719,166.287033 74.448715,159.632950 78.451019" style="stroke:rgb(0.000000%,0.000000%,0.000000%); stroke-width: 0.498138;stroke-linecap: round;stroke-linejoin: round;stroke-miterlimit: 10.000000;fill: none;"></path>
  <path d="M72.230972 104.011978C72.230972 103.219284,71.916031 102.459137,71.355545 101.898666C70.795074 101.338181,70.034927 101.023239,69.242233 101.023239C68.449539 101.023239,67.689392 101.338181,67.128922 101.898666C66.568436 102.459137,66.253494 103.219284,66.253494 104.011978C66.253494 104.804672,66.568436 105.564819,67.128922 106.125290C67.689392 106.685776,68.449539 107.000717,69.242233 107.000717C70.034927 107.000717,70.795074 106.685776,71.355545 106.125290C71.916031 105.564819,72.230972 104.804672,72.230972 104.011978Z" style="fill: rgb(100.000000%,100.000000%,100.000000%);stroke: none;"></path>
  <path d="M77.628067 99.844284C74.742218 101.044540,71.928055 102.402527,69.242233 104.011978C67.539047 105.032608,65.756256 106.129562,63.953522 106.770248" style="stroke:rgb(0.000000%,0.000000%,0.000000%); stroke-width: 0.498138;stroke-linecap: round;stroke-linejoin: round;stroke-miterlimit: 10.000000;fill: none;"></path>
  <path d="M20.069305 86.322830C20.069305 85.530136,19.754364 84.769989,19.193878 84.209518C18.633408 83.649033,17.873260 83.334091,17.080566 83.334091C16.287872 83.334091,15.527725 83.649033,14.967255 84.209518C14.406769 84.769989,14.091827 85.530136,14.091827 86.322830C14.091827 87.115524,14.406769 87.875671,14.967255 88.436142C15.527725 88.996628,16.287872 89.311569,17.080566 89.311569C17.873260 89.311569,18.633408 88.996628,19.193878 88.436142C19.754364 87.875671,20.069305 87.115524,20.069305 86.322830Z" style="fill: rgb(100.000000%,100.000000%,100.000000%);stroke: none;"></path>
  <path d="M33.210327 78.928375C27.551941 79.361084,21.721924 81.985596,17.080566 86.322830C10.284546 92.673553,6.669281 101.005737,5.720123 109.922531" style="stroke:rgb(0.000000%,0.000000%,0.000000%); stroke-width: 0.498138;stroke-linecap: round;stroke-linejoin: round;stroke-miterlimit: 10.000000;fill: none;"></path>
  <path d="M80.161484 135.687424C80.161484 134.894730,79.846542 134.134583,79.286057 133.574112C78.725586 133.013626,77.965439 132.698685,77.172745 132.698685C76.380051 132.698685,75.619904 133.013626,75.059433 133.574112C74.498947 134.134583,74.184006 134.894730,74.184006 135.687424C74.184006 136.480118,74.498947 137.240265,75.059433 137.800735C75.619904 138.361221,76.380051 138.676163,77.172745 138.676163C77.965439 138.676163,78.725586 138.361221,79.286057 137.800735C79.846542 137.240265,80.161484 136.480118,80.161484 135.687424Z" style="fill: rgb(100.000000%,100.000000%,100.000000%);stroke: none;"></path>
  <path d="M80.115891 143.910110C79.251617 141.155396,78.082474 138.436920,77.172745 135.687424C76.285126 133.004761,75.645554 130.256729,75.058411 127.493881" style="stroke:rgb(0.000000%,0.000000%,0.000000%); stroke-width: 0.498138;stroke-linecap: round;stroke-linejoin: round;stroke-miterlimit: 10.000000;fill: none;"></path>
  <path d="M56.661041 97.935669C56.661041 97.142975,56.346100 96.382828,55.785614 95.822357C55.225143 95.261871,54.464996 94.946930,53.672302 94.946930C52.879608 94.946930,52.119461 95.261871,51.558990 95.822357C50.998505 96.382828,50.683563 97.142975,50.683563 97.935669C50.683563 98.728363,50.998505 99.488510,51.558990 100.048981C52.119461 100.609467,52.879608 100.924408,53.672302 100.924408C54.464996 100.924408,55.225143 100.609467,55.785614 100.048981C56.346100 99.488510,56.661041 98.728363,56.661041 97.935669Z" style="fill: rgb(100.000000%,100.000000%,100.000000%);stroke: none;"></path>
  <path d="M58.773651 94.695953C57.000198 95.452438,55.279419 96.707504,53.672302 97.935669C51.727127 99.422180,49.701797 100.848145,47.555817 101.987946" style="stroke:rgb(0.000000%,0.000000%,0.000000%); stroke-width: 0.498138;stroke-linecap: round;stroke-linejoin: round;stroke-miterlimit: 10.000000;fill: none;"></path>
  <path d="M110.988739 22.355637C110.988739 21.562943,110.673798 20.802795,110.113312 20.242325C109.552841 19.681839,108.792694 19.366898,108.000000 19.366898C107.207306 19.366898,106.447159 19.681839,105.886688 20.242325C105.326202 20.802795,105.011261 21.562943,105.011261 22.355637C105.011261 23.148331,105.326202 23.908478,105.886688 24.468948C106.447159 25.029434,107.207306 25.344376,108.000000 25.344376C108.792694 25.344376,109.552841 25.029434,110.113312 24.468948C110.673798 23.908478,110.988739 23.148331,110.988739 22.355637Z" style="fill: rgb(100.000000%,100.000000%,100.000000%);stroke: none;"></path>
  <path d="M76.043488 18.842056C87.058105 15.708054,98.109573 16.029694,108.000000 22.355637C113.634094 25.959229,117.764603 31.248489,121.928970 36.488052" style="stroke:rgb(0.000000%,0.000000%,0.000000%); stroke-width: 0.498138;stroke-linecap: round;stroke-linejoin: round;stroke-miterlimit: 10.000000;fill: none;"></path>
  <path d="M154.050690 165.051193C154.050690 164.258499,153.735748 163.498352,153.175262 162.937881C152.614792 162.377396,151.854645 162.062454,151.061951 162.062454C150.269257 162.062454,149.509109 162.377396,148.948639 162.937881C148.388153 163.498352,148.073212 164.258499,148.073212 165.051193C148.073212 165.843887,148.388153 166.604034,148.948639 167.164505C149.509109 167.724991,150.269257 168.039932,151.061951 168.039932C151.854645 168.039932,152.614792 167.724991,153.175262 167.164505C153.735748 166.604034,154.050690 165.843887,154.050690 165.051193Z" style="fill: rgb(100.000000%,100.000000%,100.000000%);stroke: none;"></path>
  <path d="M175.218018 148.723267C169.015900 156.614548,161.065384 162.609360,151.061951 165.051193C145.170746 166.489243,139.037476 166.174026,133.984650 164.138428" style="stroke:rgb(0.000000%,0.000000%,0.000000%); stroke-width: 0.498138;stroke-linecap: round;stroke-linejoin: round;stroke-miterlimit: 10.000000;fill: none;"></path>
  <path d="M114.613876 128.916534C114.613876 128.123840,114.298935 127.363693,113.738449 126.803223C113.177979 126.242737,112.417831 125.927795,111.625137 125.927795C110.832443 125.927795,110.072296 126.242737,109.511826 126.803223C108.951340 127.363693,108.636398 128.123840,108.636398 128.916534C108.636398 129.709229,108.951340 130.469376,109.511826 131.029846C110.072296 131.590332,110.832443 131.905273,111.625137 131.905273C112.417831 131.905273,113.177979 131.590332,113.738449 131.029846C114.298935 130.469376,114.613876 129.709229,114.613876 128.916534Z" style="fill: rgb(100.000000%,100.000000%,100.000000%);stroke: none;"></path>
  <path d="M117.792068 127.488693C115.787689 127.651260,113.648758 128.319366,111.625137 128.916534C108.918640 129.715210,106.148941 130.222046,103.363068 130.659882" style="stroke:rgb(0.000000%,0.000000%,0.000000%); stroke-width: 0.498138;stroke-linecap: round;stroke-linejoin: round;stroke-miterlimit: 10.000000;fill: none;"></path>
  <path d="M56.649078 169.769806C56.649078 168.977112,56.334137 168.216965,55.773651 167.656494C55.213181 167.096008,54.453033 166.781067,53.660339 166.781067C52.867645 166.781067,52.107498 167.096008,51.547028 167.656494C50.986542 168.216965,50.671600 168.977112,50.671600 169.769806C50.671600 170.562500,50.986542 171.322647,51.547028 171.883118C52.107498 172.443604,52.867645 172.758545,53.660339 172.758545C54.453033 172.758545,55.213181 172.443604,55.773651 171.883118C56.334137 171.322647,56.649078 170.562500,56.649078 169.769806Z" style="fill: rgb(100.000000%,100.000000%,100.000000%);stroke: none;"></path>
  <path d="M50.473801 152.762955C49.632050 158.261581,50.758652 164.358368,53.660339 169.769806C58.319412 178.458603,65.896942 184.205826,74.829193 187.702255" style="stroke:rgb(0.000000%,0.000000%,0.000000%); stroke-width: 0.498138;stroke-linecap: round;stroke-linejoin: round;stroke-miterlimit: 10.000000;fill: none;"></path>
  <path d="M127.166977 139.365967C127.166977 138.573273,126.852036 137.813126,126.291550 137.252655C125.731079 136.692169,124.970932 136.377228,124.178238 136.377228C123.385544 136.377228,122.625397 136.692169,122.064926 137.252655C121.504440 137.813126,121.189499 138.573273,121.189499 139.365967C121.189499 140.158661,121.504440 140.918808,122.064926 141.479279C122.625397 142.039764,123.385544 142.354706,124.178238 142.354706C124.970932 142.354706,125.731079 142.039764,126.291550 141.479279C126.852036 140.918808,127.166977 140.158661,127.166977 139.365967Z" style="fill: rgb(100.000000%,100.000000%,100.000000%);stroke: none;"></path>
  <path d="M131.819290 137.641861C129.248932 137.927216,126.677826 138.600052,124.178238 139.365967C122.307968 139.939056,120.328125 140.498520,118.461365 140.593979" style="stroke:rgb(0.000000%,0.000000%,0.000000%); stroke-width: 0.498138;stroke-linecap: round;stroke-linejoin: round;stroke-miterlimit: 10.000000;fill: none;"></path>
  <path d="M111.600830 111.405518C111.202560 105.879684,110.350662 100.398331,109.054886 95.016647" style="stroke:rgb(0.000000%,0.000000%,0.000000%); stroke-width: 0.498138;stroke-linecap: round;stroke-linejoin: round;stroke-miterlimit: 10.000000;fill: none;"></path>
  <path d="M111.895615 99.131393C110.983002 97.736893,110.035828 96.364883,109.054886 95.016647C108.795135 96.663620,108.494720 98.303513,108.153946 99.934891Z" style="stroke:rgb(0.000000%,0.000000%,0.000000%); stroke-width: 0.498138;fill: rgb(0.000000%,0.000000%,0.000000%);"></path>
  <path d="M111.600830 111.405518C111.202560 105.879684,110.350662 100.398331,109.054886 95.016647" style="stroke:rgb(0.000000%,0.000000%,0.000000%); stroke-width: 0.498138;stroke-linecap: round;stroke-linejoin: round;stroke-miterlimit: 10.000000;fill: none;"></path>
  <path d="M110.783661 97.468445C110.219666 96.642822,109.643356 95.825455,109.054886 95.016647C108.899063 96.004654,108.728607 96.990143,108.543579 97.972748Z" style="stroke:rgb(0.000000%,0.000000%,0.000000%); stroke-width: 0.498138;fill: rgb(0.000000%,0.000000%,0.000000%);"></path>
  <path d="M137.411179 86.675293C129.639297 88.260544,121.723007 88.949936,113.872314 90.064117" style="stroke:rgb(0.000000%,0.000000%,0.000000%); stroke-width: 0.498138;stroke-linecap: round;stroke-linejoin: round;stroke-miterlimit: 10.000000;fill: none;"></path>
  <path d="M116.464050 88.553406C115.597519 89.052658,114.733139 89.555466,113.872314 90.064117C114.840683 90.313156,115.807419 90.568832,116.773163 90.828552Z" style="stroke:rgb(0.000000%,0.000000%,0.000000%); stroke-width: 0.498138;fill: rgb(0.000000%,0.000000%,0.000000%);"></path>
  <path d="M58.545135 106.790909C55.945053 105.617798,54.832870 102.925629,54.134888 100.078613" style="stroke:rgb(0.000000%,0.000000%,0.000000%); stroke-width: 0.498138;stroke-linecap: round;stroke-linejoin: round;stroke-miterlimit: 10.000000;fill: none;"></path>
  <path d="M56.079788 102.362762C55.379288 101.684555,54.737564 100.899780,54.134888 100.078613C53.980362 101.085419,53.879196 102.094101,53.894943 103.069000Z" style="stroke:rgb(0.000000%,0.000000%,0.000000%); stroke-width: 0.498138;fill: rgb(0.000000%,0.000000%,0.000000%);"></path>
  <path d="M48.310303 84.684799C41.982559 77.596741,31.733047 77.346252,23.133606 81.970963" style="stroke:rgb(0.000000%,0.000000%,0.000000%); stroke-width: 0.498138;stroke-linecap: round;stroke-linejoin: round;stroke-miterlimit: 10.000000;fill: none;"></path>
  <path d="M25.153442 79.752823C24.447159 80.447861,23.772247 81.188705,23.133606 81.970963C24.138336 81.869431,25.139420 81.822830,26.130310 81.830795Z" style="stroke:rgb(0.000000%,0.000000%,0.000000%); stroke-width: 0.498138;fill: rgb(0.000000%,0.000000%,0.000000%);"></path>
  <path d="M73.258698 119.211502C72.252060 115.139893,70.929916 111.148834,69.925797 107.080307" style="stroke:rgb(0.000000%,0.000000%,0.000000%); stroke-width: 0.498138;stroke-linecap: round;stroke-linejoin: round;stroke-miterlimit: 10.000000;fill: none;"></path>
  <path d="M71.742188 109.467941C71.126434 108.679535,70.518600 107.885422,69.925797 107.080307C69.775650 108.068771,69.643921 109.060120,69.521820 110.052994Z" style="stroke:rgb(0.000000%,0.000000%,0.000000%); stroke-width: 0.498138;fill: rgb(0.000000%,0.000000%,0.000000%);"></path>
  <path d="M64.191071 94.447815C61.282547 93.221848,58.352737 94.617615,55.651474 96.482605" style="stroke:rgb(0.000000%,0.000000%,0.000000%); stroke-width: 0.498138;stroke-linecap: round;stroke-linejoin: round;stroke-miterlimit: 10.000000;fill: none;"></path>
  <path d="M57.442947 94.076187C56.796234 94.803299,56.205002 95.626251,55.651474 96.482605C56.648422 96.268494,57.648407 96.104660,58.619827 96.047836Z" style="stroke:rgb(0.000000%,0.000000%,0.000000%); stroke-width: 0.498138;fill: rgb(0.000000%,0.000000%,0.000000%);"></path>
  <path d="M136.061066 50.322266C145.625061 55.966278,157.424225 55.474838,167.867813 58.692337" style="stroke:rgb(0.000000%,0.000000%,0.000000%); stroke-width: 0.498138;stroke-linecap: round;stroke-linejoin: round;stroke-miterlimit: 10.000000;fill: none;"></path>
  <path d="M164.890869 59.063629C165.882019 58.912292,166.874222 58.785858,167.867813 58.692337C167.099106 58.055878,166.308136 57.443665,165.500275 56.849823Z" style="stroke:rgb(0.000000%,0.000000%,0.000000%); stroke-width: 0.498138;fill: rgb(0.000000%,0.000000%,0.000000%);"></path>
  <path d="M123.390015 152.903366C122.368484 149.360184,122.779099 145.680573,123.549622 142.063705" style="stroke:rgb(0.000000%,0.000000%,0.000000%); stroke-width: 0.498138;stroke-linecap: round;stroke-linejoin: round;stroke-miterlimit: 10.000000;fill: none;"></path>
  <path d="M124.193741 144.993729C123.940628 144.030853,123.732010 143.050201,123.549622 142.063705C122.981003 142.890228,122.435104 143.731140,121.933182 144.590988Z" style="stroke:rgb(0.000000%,0.000000%,0.000000%); stroke-width: 0.498138;fill: rgb(0.000000%,0.000000%,0.000000%);"></path>
  <path d="M123.151718 129.094070C120.775055 126.814087,117.414261 127.304077,114.092819 128.202789" style="stroke:rgb(0.000000%,0.000000%,0.000000%); stroke-width: 0.498138;stroke-linecap: round;stroke-linejoin: round;stroke-miterlimit: 10.000000;fill: none;"></path>
  <path d="M116.561951 126.498764C115.722748 126.990524,114.899338 127.580765,114.092819 128.202789C115.102951 128.333267,116.102539 128.498154,117.043671 128.743851Z" style="stroke:rgb(0.000000%,0.000000%,0.000000%); stroke-width: 0.498138;fill: rgb(0.000000%,0.000000%,0.000000%);"></path>
  <path d="M59.097458 139.345047C51.142624 144.175156,48.721588 153.822357,51.042755 163.029358" style="stroke:rgb(0.000000%,0.000000%,0.000000%); stroke-width: 0.498138;stroke-linecap: round;stroke-linejoin: round;stroke-miterlimit: 10.000000;fill: none;"></path>
  <path d="M49.381897 160.531097C49.885757 161.385300,50.440475 162.219864,51.042755 163.029358C51.189285 162.031082,51.387192 161.048721,51.634918 160.088440Z" style="stroke:rgb(0.000000%,0.000000%,0.000000%); stroke-width: 0.498138;fill: rgb(0.000000%,0.000000%,0.000000%);"></path>
  <path d="M113.422974 139.038010C111.269165 137.089340,111.153336 134.121460,111.399155 131.139694" style="stroke:rgb(0.000000%,0.000000%,0.000000%); stroke-width: 0.498138;stroke-linecap: round;stroke-linejoin: round;stroke-miterlimit: 10.000000;fill: none;"></path>
  <path d="M112.492249 133.933426C112.059235 133.060928,111.710144 132.109070,111.399155 131.139694C110.933594 132.045044,110.507355 132.964951,110.196564 133.888077Z" style="stroke:rgb(0.000000%,0.000000%,0.000000%); stroke-width: 0.498138;fill: rgb(0.000000%,0.000000%,0.000000%);"></path>
  <path d="M96.810242 67.285172L102.791534 67.285172L102.791534 59.864777L96.810242 59.864777Z" style="fill: rgb(100.000000%,100.000000%,100.000000%);stroke: none;"></path>
  <path d="M96.810242 69.285172L102.791534 69.285172L102.791534 61.864777L96.810242 61.864777Z" style="fill: rgb(100.000000%,100.000000%,100.000000%);stroke: none;"></path>
  <g transform="translate(97.310242 67.785172)" style="fill: rgb(0.000000%,0.000000%,0.000000%);">
    <use xlink:href="#GLYPHcmr10_49"></use>
  </g>
  <path d="M158.401382 16.312820L164.382675 16.312820L164.382675 8.892426L158.401382 8.892426Z" style="fill: rgb(100.000000%,100.000000%,100.000000%);stroke: none;"></path>
  <path d="M158.401382 18.312820L164.382675 18.312820L164.382675 10.892426L158.401382 10.892426Z" style="fill: rgb(100.000000%,100.000000%,100.000000%);stroke: none;"></path>
  <g transform="translate(158.901382 16.812820)" style="fill: rgb(0.000000%,0.000000%,0.000000%);">
    <use xlink:href="#GLYPHcmr10_50"></use>
  </g>
  <path d="M83.453369 99.333221L89.434662 99.333221L89.434662 91.912827L83.453369 91.912827Z" style="fill: rgb(100.000000%,100.000000%,100.000000%);stroke: none;"></path>
  <path d="M83.453369 101.333221L89.434662 101.333221L89.434662 93.912827L83.453369 93.912827Z" style="fill: rgb(100.000000%,100.000000%,100.000000%);stroke: none;"></path>
  <g transform="translate(83.953369 99.833221)" style="fill: rgb(0.000000%,0.000000%,0.000000%);">
    <use xlink:href="#GLYPHcmr10_51"></use>
  </g>
  <path d="M7.365662 139.739975L13.346954 139.739975L13.346954 132.319580L7.365662 132.319580Z" style="fill: rgb(100.000000%,100.000000%,100.000000%);stroke: none;"></path>
  <path d="M7.365662 141.739975L13.346954 141.739975L13.346954 134.319580L7.365662 134.319580Z" style="fill: rgb(100.000000%,100.000000%,100.000000%);stroke: none;"></path>
  <g transform="translate(7.865662 140.239975)" style="fill: rgb(0.000000%,0.000000%,0.000000%);">
    <use xlink:href="#GLYPHcmr10_52"></use>
  </g>
  <path d="M78.239212 155.060455L84.220505 155.060455L84.220505 147.640060L78.239212 147.640060Z" style="fill: rgb(100.000000%,100.000000%,100.000000%);stroke: none;"></path>
  <path d="M78.239212 157.060455L84.220505 157.060455L84.220505 149.640060L78.239212 149.640060Z" style="fill: rgb(100.000000%,100.000000%,100.000000%);stroke: none;"></path>
  <g transform="translate(78.739212 155.560455)" style="fill: rgb(0.000000%,0.000000%,0.000000%);">
    <use xlink:href="#GLYPHcmr10_53"></use>
  </g>
  <path d="M37.724869 107.033401L43.706161 107.033401L43.706161 99.613007L37.724869 99.613007Z" style="fill: rgb(100.000000%,100.000000%,100.000000%);stroke: none;"></path>
  <path d="M37.724869 109.033401L43.706161 109.033401L43.706161 101.613007L37.724869 101.613007Z" style="fill: rgb(100.000000%,100.000000%,100.000000%);stroke: none;"></path>
  <g transform="translate(38.224869 107.533401)" style="fill: rgb(0.000000%,0.000000%,0.000000%);">
    <use xlink:href="#GLYPHcmr10_54"></use>
  </g>
  <path d="M41.317337 38.772598L47.298630 38.772598L47.298630 31.352203L41.317337 31.352203Z" style="fill: rgb(100.000000%,100.000000%,100.000000%);stroke: none;"></path>
  <path d="M41.317337 40.772598L47.298630 40.772598L47.298630 33.352203L41.317337 33.352203Z" style="fill: rgb(100.000000%,100.000000%,100.000000%);stroke: none;"></path>
  <g transform="translate(41.817337 39.272598)" style="fill: rgb(0.000000%,0.000000%,0.000000%);">
    <use xlink:href="#GLYPHcmr10_55"></use>
  </g>
  <path d="M185.893005 123.726715L191.874298 123.726715L191.874298 116.306320L185.893005 116.306320Z" style="fill: rgb(100.000000%,100.000000%,100.000000%);stroke: none;"></path>
  <path d="M185.893005 125.726715L191.874298 125.726715L191.874298 118.306320L185.893005 118.306320Z" style="fill: rgb(100.000000%,100.000000%,100.000000%);stroke: none;"></path>
  <g transform="translate(186.393005 124.226715)" style="fill: rgb(0.000000%,0.000000%,0.000000%);">
    <use xlink:href="#GLYPHcmr10_56"></use>
  </g>
  <path d="M92.013321 134.699371L97.994614 134.699371L97.994614 127.278976L92.013321 127.278976Z" style="fill: rgb(100.000000%,100.000000%,100.000000%);stroke: none;"></path>
  <path d="M92.013321 136.699371L97.994614 136.699371L97.994614 129.278976L92.013321 129.278976Z" style="fill: rgb(100.000000%,100.000000%,100.000000%);stroke: none;"></path>
  <g transform="translate(92.513321 135.199371)" style="fill: rgb(0.000000%,0.000000%,0.000000%);">
    <use xlink:href="#GLYPHcmr10_57"></use>
  </g>
  <path d="M98.645035 194.840164L109.607742 194.840164L109.607742 187.419769L98.645035 187.419769Z" style="fill: rgb(100.000000%,100.000000%,100.000000%);stroke: none;"></path>
  <path d="M98.645035 196.840164L109.607742 196.840164L109.607742 189.419769L98.645035 189.419769Z" style="fill: rgb(100.000000%,100.000000%,100.000000%);stroke: none;"></path>
  <g transform="translate(99.145035 195.340164)" style="fill: rgb(0.000000%,0.000000%,0.000000%);">
    <use xlink:href="#GLYPHcmr10_49"></use>
    <use xlink:href="#GLYPHcmr10_48" x="5.000095"></use>
  </g>
  <path d="M133.974518 140.952805L144.937225 140.952805L144.937225 133.532410L133.974518 133.532410Z" style="fill: rgb(100.000000%,100.000000%,100.000000%);stroke: none;"></path>
  <path d="M133.974518 142.952805L144.937225 142.952805L144.937225 135.532410L133.974518 135.532410Z" style="fill: rgb(100.000000%,100.000000%,100.000000%);stroke: none;"></path>
  <g transform="translate(134.474518 141.452805)" style="fill: rgb(0.000000%,0.000000%,0.000000%);">
    <use xlink:href="#GLYPHcmr10_49"></use>
    <use xlink:href="#GLYPHcmr10_49" x="5.000095"></use>
  </g>
</svg>
