<?xml version="1.0"?>
<!-- Created by MetaPost 1.999 on 2021.07.06:0007 -->
<svg version="1.1" xmlns="http://www.w3.org/2000/svg" xmlns:xlink="http://www.w3.org/1999/xlink" width="187.059006" height="195.544159" viewBox="0 0 187.059006 195.544159">
<!-- Original BoundingBox: -32.106430 -74.081772 154.952576 121.462387 -->
  <defs>
    <g transform="scale(0.009963,0.009963)" id="GLYPHcmr10_48">
      <path style="fill-rule: evenodd;" d="M460.000000 -320.000000C460.000000 -400.000000,455.000000 -480.000000,420.000000 -554.000000C374.000000 -650.000000,292.000000 -666.000000,250.000000 -666.000000C190.000000 -666.000000,117.000000 -640.000000,76.000000 -547.000000C44.000000 -478.000000,39.000000 -400.000000,39.000000 -320.000000C39.000000 -245.000000,43.000000 -155.000000,84.000000 -79.000000C127.000000 2.000000,200.000000 22.000000,249.000000 22.000000C303.000000 22.000000,379.000000 1.000000,423.000000 -94.000000C455.000000 -163.000000,460.000000 -241.000000,460.000000 -320.000000M249.000000 -0.000000C210.000000 -0.000000,151.000000 -25.000000,133.000000 -121.000000C122.000000 -181.000000,122.000000 -273.000000,122.000000 -332.000000C122.000000 -396.000000,122.000000 -462.000000,130.000000 -516.000000C149.000000 -635.000000,224.000000 -644.000000,249.000000 -644.000000C282.000000 -644.000000,348.000000 -626.000000,367.000000 -527.000000C377.000000 -471.000000,377.000000 -395.000000,377.000000 -332.000000C377.000000 -257.000000,377.000000 -189.000000,366.000000 -125.000000C351.000000 -30.000000,294.000000 -0.000000,249.000000 -0.000000"></path>
    </g>
    <g transform="scale(0.009963,0.009963)" id="GLYPHcmr10_49">
      <path style="fill-rule: evenodd;" d="M294.000000 -640.000000C294.000000 -664.000000,294.000000 -666.000000,271.000000 -666.000000C209.000000 -602.000000,121.000000 -602.000000,89.000000 -602.000000L89.000000 -571.000000C109.000000 -571.000000,168.000000 -571.000000,220.000000 -597.000000L220.000000 -79.000000C220.000000 -43.000000,217.000000 -31.000000,127.000000 -31.000000L95.000000 -31.000000L95.000000 -0.000000L257.000000 -0.000000L130.000000 -3.000000L217.000000 -3.000000L257.000000 -3.000000L297.000000 -3.000000L384.000000 -3.000000L419.000000 -0.000000L419.000000 -31.000000L387.000000 -31.000000C297.000000 -31.000000,294.000000 -42.000000,294.000000 -79.000000"></path>
    </g>
    <g transform="scale(0.009963,0.009963)" id="GLYPHcmr10_50">
      <path style="fill-rule: evenodd;" d="M127.000000 -77.000000L233.000000 -180.000000C389.000000 -318.000000,449.000000 -372.000000,449.000000 -472.000000C449.000000 -586.000000,359.000000 -666.000000,237.000000 -666.000000C124.000000 -666.000000,50.000000 -574.000000,50.000000 -485.000000C50.000000 -429.000000,100.000000 -429.000000,103.000000 -429.000000C120.000000 -429.000000,155.000000 -441.000000,155.000000 -482.000000C155.000000 -508.000000,137.000000 -534.000000,102.000000 -534.000000C94.000000 -534.000000,92.000000 -534.000000,89.000000 -533.000000C112.000000 -598.000000,166.000000 -635.000000,224.000000 -635.000000C315.000000 -635.000000,358.000000 -554.000000,358.000000 -472.000000C358.000000 -392.000000,308.000000 -313.000000,253.000000 -251.000000L61.000000 -37.000000C50.000000 -26.000000,50.000000 -24.000000,50.000000 -0.000000L421.000000 -0.000000L449.000000 -174.000000L424.000000 -174.000000C419.000000 -144.000000,412.000000 -100.000000,402.000000 -85.000000C395.000000 -77.000000,329.000000 -77.000000,307.000000 -77.000000"></path>
    </g>
    <g transform="scale(0.009963,0.009963)" id="GLYPHcmr10_51">
      <path style="fill-rule: evenodd;" d="M290.000000 -352.000000C372.000000 -379.000000,430.000000 -449.000000,430.000000 -528.000000C430.000000 -610.000000,342.000000 -666.000000,246.000000 -666.000000C145.000000 -666.000000,69.000000 -606.000000,69.000000 -530.000000C69.000000 -497.000000,91.000000 -478.000000,120.000000 -478.000000C151.000000 -478.000000,171.000000 -500.000000,171.000000 -529.000000C171.000000 -579.000000,124.000000 -579.000000,109.000000 -579.000000C140.000000 -628.000000,206.000000 -641.000000,242.000000 -641.000000C283.000000 -641.000000,338.000000 -619.000000,338.000000 -529.000000C338.000000 -517.000000,336.000000 -459.000000,310.000000 -415.000000C280.000000 -367.000000,246.000000 -364.000000,221.000000 -363.000000C213.000000 -362.000000,189.000000 -360.000000,182.000000 -360.000000C174.000000 -359.000000,167.000000 -358.000000,167.000000 -348.000000C167.000000 -337.000000,174.000000 -337.000000,191.000000 -337.000000L235.000000 -337.000000C317.000000 -337.000000,354.000000 -269.000000,354.000000 -171.000000C354.000000 -35.000000,285.000000 -6.000000,241.000000 -6.000000C198.000000 -6.000000,123.000000 -23.000000,88.000000 -82.000000C123.000000 -77.000000,154.000000 -99.000000,154.000000 -137.000000C154.000000 -173.000000,127.000000 -193.000000,98.000000 -193.000000C74.000000 -193.000000,42.000000 -179.000000,42.000000 -135.000000C42.000000 -44.000000,135.000000 22.000000,244.000000 22.000000C366.000000 22.000000,457.000000 -69.000000,457.000000 -171.000000C457.000000 -253.000000,394.000000 -331.000000,290.000000 -352.000000"></path>
    </g>
    <g transform="scale(0.009963,0.009963)" id="GLYPHcmr10_52">
      <path style="fill-rule: evenodd;" d="M294.000000 -165.000000L294.000000 -78.000000C294.000000 -42.000000,292.000000 -31.000000,218.000000 -31.000000L197.000000 -31.000000L197.000000 -0.000000L332.000000 -0.000000L238.000000 -3.000000L290.000000 -3.000000L332.000000 -3.000000L374.000000 -3.000000L427.000000 -3.000000L468.000000 -0.000000L468.000000 -31.000000L447.000000 -31.000000C373.000000 -31.000000,371.000000 -42.000000,371.000000 -78.000000L371.000000 -165.000000L471.000000 -165.000000L471.000000 -196.000000L371.000000 -196.000000L371.000000 -651.000000C371.000000 -671.000000,371.000000 -677.000000,355.000000 -677.000000C346.000000 -677.000000,343.000000 -677.000000,335.000000 -665.000000L28.000000 -196.000000L28.000000 -165.000000M300.000000 -196.000000L56.000000 -196.000000L300.000000 -569.000000"></path>
    </g>
    <g transform="scale(0.009963,0.009963)" id="GLYPHcmr10_53">
      <path style="fill-rule: evenodd;" d="M449.000000 -201.000000C449.000000 -320.000000,367.000000 -420.000000,259.000000 -420.000000C211.000000 -420.000000,168.000000 -404.000000,132.000000 -369.000000L132.000000 -564.000000C152.000000 -558.000000,185.000000 -551.000000,217.000000 -551.000000C340.000000 -551.000000,410.000000 -642.000000,410.000000 -655.000000C410.000000 -661.000000,407.000000 -666.000000,400.000000 -666.000000C399.000000 -666.000000,397.000000 -666.000000,392.000000 -663.000000C372.000000 -654.000000,323.000000 -634.000000,256.000000 -634.000000C216.000000 -634.000000,170.000000 -641.000000,123.000000 -662.000000C115.000000 -665.000000,113.000000 -665.000000,111.000000 -665.000000C101.000000 -665.000000,101.000000 -657.000000,101.000000 -641.000000L101.000000 -345.000000C101.000000 -327.000000,101.000000 -319.000000,115.000000 -319.000000C122.000000 -319.000000,124.000000 -322.000000,128.000000 -328.000000C139.000000 -344.000000,176.000000 -398.000000,257.000000 -398.000000C309.000000 -398.000000,334.000000 -352.000000,342.000000 -334.000000C358.000000 -297.000000,360.000000 -258.000000,360.000000 -208.000000C360.000000 -173.000000,360.000000 -113.000000,336.000000 -71.000000C312.000000 -32.000000,275.000000 -6.000000,229.000000 -6.000000C156.000000 -6.000000,99.000000 -59.000000,82.000000 -118.000000C85.000000 -117.000000,88.000000 -116.000000,99.000000 -116.000000C132.000000 -116.000000,149.000000 -141.000000,149.000000 -165.000000C149.000000 -189.000000,132.000000 -214.000000,99.000000 -214.000000C85.000000 -214.000000,50.000000 -207.000000,50.000000 -161.000000C50.000000 -75.000000,119.000000 22.000000,231.000000 22.000000C347.000000 22.000000,449.000000 -74.000000,449.000000 -201.000000"></path>
    </g>
    <g transform="scale(0.009963,0.009963)" id="GLYPHcmr10_54">
      <path style="fill-rule: evenodd;" d="M132.000000 -328.000000L132.000000 -352.000000C132.000000 -605.000000,256.000000 -641.000000,307.000000 -641.000000C331.000000 -641.000000,373.000000 -635.000000,395.000000 -601.000000C380.000000 -601.000000,340.000000 -601.000000,340.000000 -556.000000C340.000000 -525.000000,364.000000 -510.000000,386.000000 -510.000000C402.000000 -510.000000,432.000000 -519.000000,432.000000 -558.000000C432.000000 -618.000000,388.000000 -666.000000,305.000000 -666.000000C177.000000 -666.000000,42.000000 -537.000000,42.000000 -316.000000C42.000000 -49.000000,158.000000 22.000000,251.000000 22.000000C362.000000 22.000000,457.000000 -72.000000,457.000000 -204.000000C457.000000 -331.000000,368.000000 -427.000000,257.000000 -427.000000C189.000000 -427.000000,152.000000 -376.000000,132.000000 -328.000000M251.000000 -6.000000C188.000000 -6.000000,158.000000 -66.000000,152.000000 -81.000000C134.000000 -128.000000,134.000000 -208.000000,134.000000 -226.000000C134.000000 -304.000000,166.000000 -404.000000,256.000000 -404.000000C272.000000 -404.000000,318.000000 -404.000000,349.000000 -342.000000C367.000000 -305.000000,367.000000 -254.000000,367.000000 -205.000000C367.000000 -157.000000,367.000000 -107.000000,350.000000 -71.000000C320.000000 -11.000000,274.000000 -6.000000,251.000000 -6.000000"></path>
    </g>
    <g transform="scale(0.009963,0.009963)" id="GLYPHcmr10_55">
      <path style="fill-rule: evenodd;" d="M476.000000 -609.000000C485.000000 -621.000000,485.000000 -623.000000,485.000000 -644.000000L242.000000 -644.000000C120.000000 -644.000000,118.000000 -657.000000,114.000000 -676.000000L89.000000 -676.000000L56.000000 -470.000000L81.000000 -470.000000C84.000000 -486.000000,93.000000 -549.000000,106.000000 -561.000000C113.000000 -567.000000,191.000000 -567.000000,204.000000 -567.000000L411.000000 -567.000000C400.000000 -551.000000,321.000000 -442.000000,299.000000 -409.000000C209.000000 -274.000000,176.000000 -135.000000,176.000000 -33.000000C176.000000 -23.000000,176.000000 22.000000,222.000000 22.000000C268.000000 22.000000,268.000000 -23.000000,268.000000 -33.000000L268.000000 -84.000000C268.000000 -139.000000,271.000000 -194.000000,279.000000 -248.000000C283.000000 -271.000000,297.000000 -357.000000,341.000000 -419.000000"></path>
    </g>
    <g transform="scale(0.009963,0.009963)" id="GLYPHcmr10_56">
      <path style="fill-rule: evenodd;" d="M163.000000 -457.000000C117.000000 -487.000000,113.000000 -521.000000,113.000000 -538.000000C113.000000 -599.000000,178.000000 -641.000000,249.000000 -641.000000C322.000000 -641.000000,386.000000 -589.000000,386.000000 -517.000000C386.000000 -460.000000,347.000000 -412.000000,287.000000 -377.000000M309.000000 -362.000000C381.000000 -399.000000,430.000000 -451.000000,430.000000 -517.000000C430.000000 -609.000000,341.000000 -666.000000,250.000000 -666.000000C150.000000 -666.000000,69.000000 -592.000000,69.000000 -499.000000C69.000000 -481.000000,71.000000 -436.000000,113.000000 -389.000000C124.000000 -377.000000,161.000000 -352.000000,186.000000 -335.000000C128.000000 -306.000000,42.000000 -250.000000,42.000000 -151.000000C42.000000 -45.000000,144.000000 22.000000,249.000000 22.000000C362.000000 22.000000,457.000000 -61.000000,457.000000 -168.000000C457.000000 -204.000000,446.000000 -249.000000,408.000000 -291.000000C389.000000 -312.000000,373.000000 -322.000000,309.000000 -362.000000M209.000000 -320.000000L332.000000 -242.000000C360.000000 -223.000000,407.000000 -193.000000,407.000000 -132.000000C407.000000 -58.000000,332.000000 -6.000000,250.000000 -6.000000C164.000000 -6.000000,92.000000 -68.000000,92.000000 -151.000000C92.000000 -209.000000,124.000000 -273.000000,209.000000 -320.000000"></path>
    </g>
    <g transform="scale(0.009963,0.009963)" id="GLYPHcmr10_57">
      <path style="fill-rule: evenodd;" d="M367.000000 -318.000000L367.000000 -286.000000C367.000000 -52.000000,263.000000 -6.000000,205.000000 -6.000000C188.000000 -6.000000,134.000000 -8.000000,107.000000 -42.000000C151.000000 -42.000000,159.000000 -71.000000,159.000000 -88.000000C159.000000 -119.000000,135.000000 -134.000000,113.000000 -134.000000C97.000000 -134.000000,67.000000 -125.000000,67.000000 -86.000000C67.000000 -19.000000,121.000000 22.000000,206.000000 22.000000C335.000000 22.000000,457.000000 -114.000000,457.000000 -329.000000C457.000000 -598.000000,342.000000 -666.000000,253.000000 -666.000000C198.000000 -666.000000,149.000000 -648.000000,106.000000 -603.000000C65.000000 -558.000000,42.000000 -516.000000,42.000000 -441.000000C42.000000 -316.000000,130.000000 -218.000000,242.000000 -218.000000C303.000000 -218.000000,344.000000 -260.000000,367.000000 -318.000000M243.000000 -241.000000C227.000000 -241.000000,181.000000 -241.000000,150.000000 -304.000000C132.000000 -341.000000,132.000000 -391.000000,132.000000 -440.000000C132.000000 -494.000000,132.000000 -541.000000,153.000000 -578.000000C180.000000 -628.000000,218.000000 -641.000000,253.000000 -641.000000C299.000000 -641.000000,332.000000 -607.000000,349.000000 -562.000000C361.000000 -530.000000,365.000000 -467.000000,365.000000 -421.000000C365.000000 -338.000000,331.000000 -241.000000,243.000000 -241.000000"></path>
    </g>
  </defs>
  <path d="M45.834457 168.775681C45.834457 167.982986,45.519516 167.222839,44.959030 166.662369C44.398560 166.101883,43.638412 165.786942,42.845718 165.786942C42.053024 165.786942,41.292877 166.101883,40.732407 166.662369C40.171921 167.222839,39.856979 167.982986,39.856979 168.775681C39.856979 169.568375,40.171921 170.328522,40.732407 170.888992C41.292877 171.449478,42.053024 171.764420,42.845718 171.764420C43.638412 171.764420,44.398560 171.449478,44.959030 170.888992C45.519516 170.328522,45.834457 169.568375,45.834457 168.775681Z" style="fill: rgb(100.000000%,100.000000%,100.000000%);stroke: none;"></path>
  <path d="M70.467667 171.361450C70.467667 170.568756,70.152725 169.808609,69.592239 169.248138C69.031769 168.687653,68.271622 168.372711,67.478928 168.372711C66.686234 168.372711,65.926086 168.687653,65.365616 169.248138C64.805130 169.808609,64.490189 170.568756,64.490189 171.361450C64.490189 172.154144,64.805130 172.914291,65.365616 173.474762C65.926086 174.035248,66.686234 174.350189,67.478928 174.350189C68.271622 174.350189,69.031769 174.035248,69.592239 173.474762C70.152725 172.914291,70.467667 172.154144,70.467667 171.361450Z" style="fill: rgb(100.000000%,100.000000%,100.000000%);stroke: none;"></path>
  <path d="M38.473541 106.682236C38.473541 105.889542,38.158600 105.129395,37.598114 104.568924C37.037643 104.008438,36.277496 103.693497,35.484802 103.693497C34.692108 103.693497,33.931961 104.008438,33.371490 104.568924C32.811005 105.129395,32.496063 105.889542,32.496063 106.682236C32.496063 107.474930,32.811005 108.235077,33.371490 108.795547C33.931961 109.356033,34.692108 109.670975,35.484802 109.670975C36.277496 109.670975,37.037643 109.356033,37.598114 108.795547C38.158600 108.235077,38.473541 107.474930,38.473541 106.682236Z" style="fill: rgb(100.000000%,100.000000%,100.000000%);stroke: none;"></path>
  <path d="M29.131317 145.065994C29.131317 144.273300,28.816376 143.513153,28.255890 142.952682C27.695419 142.392197,26.935272 142.077255,26.142578 142.077255C25.349884 142.077255,24.589737 142.392197,24.029266 142.952682C23.468781 143.513153,23.153839 144.273300,23.153839 145.065994C23.153839 145.858688,23.468781 146.618835,24.029266 147.179306C24.589737 147.739792,25.349884 148.054733,26.142578 148.054733C26.935272 148.054733,27.695419 147.739792,28.255890 147.179306C28.816376 146.618835,29.131317 145.858688,29.131317 145.065994Z" style="fill: rgb(100.000000%,100.000000%,100.000000%);stroke: none;"></path>
  <path d="M48.748428 66.318726C48.748428 65.526031,48.433487 64.765884,47.873001 64.205414C47.312531 63.644928,46.552383 63.329987,45.759689 63.329987C44.966995 63.329987,44.206848 63.644928,43.646378 64.205414C43.085892 64.765884,42.770950 65.526031,42.770950 66.318726C42.770950 67.111420,43.085892 67.871567,43.646378 68.432037C44.206848 68.992523,44.966995 69.307465,45.759689 69.307465C46.552383 69.307465,47.312531 68.992523,47.873001 68.432037C48.433487 67.871567,48.748428 67.111420,48.748428 66.318726Z" style="fill: rgb(100.000000%,100.000000%,100.000000%);stroke: none;"></path>
  <path d="M50.426880 94.837494C50.426880 94.044800,50.111938 93.284653,49.551453 92.724182C48.990982 92.163696,48.230835 91.848755,47.438141 91.848755C46.645447 91.848755,45.885300 92.163696,45.324829 92.724182C44.764343 93.284653,44.449402 94.044800,44.449402 94.837494C44.449402 95.630188,44.764343 96.390335,45.324829 96.950806C45.885300 97.511292,46.645447 97.826233,47.438141 97.826233C48.230835 97.826233,48.990982 97.511292,49.551453 96.950806C50.111938 96.390335,50.426880 95.630188,50.426880 94.837494Z" style="fill: rgb(100.000000%,100.000000%,100.000000%);stroke: none;"></path>
  <path d="M32.098938 25.918518C32.098938 25.125824,31.783997 24.365677,31.223511 23.805206C30.663040 23.244720,29.902893 22.929779,29.110199 22.929779C28.317505 22.929779,27.557358 23.244720,26.996887 23.805206C26.436401 24.365677,26.121460 25.125824,26.121460 25.918518C26.121460 26.711212,26.436401 27.471359,26.996887 28.031830C27.557358 28.592316,28.317505 28.907257,29.110199 28.907257C29.902893 28.907257,30.663040 28.592316,31.223511 28.031830C31.783997 27.471359,32.098938 26.711212,32.098938 25.918518Z" style="fill: rgb(100.000000%,100.000000%,100.000000%);stroke: none;"></path>
  <path d="M37.297440 55.957230C37.297440 55.164536,36.982498 54.404388,36.422012 53.843918C35.861542 53.283432,35.101395 52.968491,34.308701 52.968491C33.516006 52.968491,32.755859 53.283432,32.195389 53.843918C31.634903 54.404388,31.319962 55.164536,31.319962 55.957230C31.319962 56.749924,31.634903 57.510071,32.195389 58.070541C32.755859 58.631027,33.516006 58.945969,34.308701 58.945969C35.101395 58.945969,35.861542 58.631027,36.422012 58.070541C36.982498 57.510071,37.297440 56.749924,37.297440 55.957230Z" style="fill: rgb(100.000000%,100.000000%,100.000000%);stroke: none;"></path>
  <path d="M74.667145 2.526352C74.667145 1.733658,74.352203 0.973511,73.791718 0.413040C73.231247 -0.147446,72.471100 -0.462387,71.678406 -0.462387C70.885712 -0.462387,70.125565 -0.147446,69.565094 0.413040C69.004608 0.973511,68.689667 1.733658,68.689667 2.526352C68.689667 3.319046,69.004608 4.079193,69.565094 4.639664C70.125565 5.200150,70.885712 5.515091,71.678406 5.515091C72.471100 5.515091,73.231247 5.200150,73.791718 4.639664C74.352203 4.079193,74.667145 3.319046,74.667145 2.526352Z" style="fill: rgb(100.000000%,100.000000%,100.000000%);stroke: none;"></path>
  <path d="M43.065430 10.023468C43.065430 9.230774,42.750488 8.470627,42.190002 7.910156C41.629532 7.349670,40.869385 7.034729,40.076691 7.034729C39.283997 7.034729,38.523849 7.349670,37.963379 7.910156C37.402893 8.470627,37.087952 9.230774,37.087952 10.023468C37.087952 10.816162,37.402893 11.576309,37.963379 12.136780C38.523849 12.697266,39.283997 13.012207,40.076691 13.012207C40.869385 13.012207,41.629532 12.697266,42.190002 12.136780C42.750488 11.576309,43.065430 10.816162,43.065430 10.023468Z" style="fill: rgb(100.000000%,100.000000%,100.000000%);stroke: none;"></path>
  <path d="M103.638229 35.317154C103.638229 34.524460,103.323288 33.764313,102.762802 33.203842C102.202332 32.643356,101.442184 32.328415,100.649490 32.328415C99.856796 32.328415,99.096649 32.643356,98.536179 33.203842C97.975693 33.764313,97.660751 34.524460,97.660751 35.317154C97.660751 36.109848,97.975693 36.869995,98.536179 37.430466C99.096649 37.990952,99.856796 38.305893,100.649490 38.305893C101.442184 38.305893,102.202332 37.990952,102.762802 37.430466C103.323288 36.869995,103.638229 36.109848,103.638229 35.317154Z" style="fill: rgb(100.000000%,100.000000%,100.000000%);stroke: none;"></path>
  <path d="M90.089813 9.806808C90.089813 9.014114,89.774872 8.253967,89.214386 7.693497C88.653915 7.133011,87.893768 6.818069,87.101074 6.818069C86.308380 6.818069,85.548233 7.133011,84.987762 7.693497C84.427277 8.253967,84.112335 9.014114,84.112335 9.806808C84.112335 10.599503,84.427277 11.359650,84.987762 11.920120C85.548233 12.480606,86.308380 12.795547,87.101074 12.795547C87.893768 12.795547,88.653915 12.480606,89.214386 11.920120C89.774872 11.359650,90.089813 10.599503,90.089813 9.806808Z" style="fill: rgb(100.000000%,100.000000%,100.000000%);stroke: none;"></path>
  <path d="M101.893829 70.383118C101.893829 69.590424,101.578888 68.830276,101.018402 68.269806C100.457932 67.709320,99.697784 67.394379,98.905090 67.394379C98.112396 67.394379,97.352249 67.709320,96.791779 68.269806C96.231293 68.830276,95.916351 69.590424,95.916351 70.383118C95.916351 71.175812,96.231293 71.935959,96.791779 72.496429C97.352249 73.056915,98.112396 73.371857,98.905090 73.371857C99.697784 73.371857,100.457932 73.056915,101.018402 72.496429C101.578888 71.935959,101.893829 71.175812,101.893829 70.383118Z" style="fill: rgb(100.000000%,100.000000%,100.000000%);stroke: none;"></path>
  <path d="M102.232300 49.233047C102.232300 48.440353,101.917358 47.680206,101.356873 47.119736C100.796402 46.559250,100.036255 46.244308,99.243561 46.244308C98.450867 46.244308,97.690720 46.559250,97.130249 47.119736C96.569763 47.680206,96.254822 48.440353,96.254822 49.233047C96.254822 50.025742,96.569763 50.785889,97.130249 51.346359C97.690720 51.906845,98.450867 52.221786,99.243561 52.221786C100.036255 52.221786,100.796402 51.906845,101.356873 51.346359C101.917358 50.785889,102.232300 50.025742,102.232300 49.233047Z" style="fill: rgb(100.000000%,100.000000%,100.000000%);stroke: none;"></path>
  <path d="M105.044815 89.187225C105.044815 88.394531,104.729874 87.634384,104.169388 87.073914C103.608917 86.513428,102.848770 86.198486,102.056076 86.198486C101.263382 86.198486,100.503235 86.513428,99.942764 87.073914C99.382278 87.634384,99.067337 88.394531,99.067337 89.187225C99.067337 89.979919,99.382278 90.740067,99.942764 91.300537C100.503235 91.861023,101.263382 92.175964,102.056076 92.175964C102.848770 92.175964,103.608917 91.861023,104.169388 91.300537C104.729874 90.740067,105.044815 89.979919,105.044815 89.187225Z" style="fill: rgb(100.000000%,100.000000%,100.000000%);stroke: none;"></path>
  <path d="M102.233429 78.207962C102.233429 77.415268,101.918488 76.655121,101.358002 76.094650C100.797531 75.534164,100.037384 75.219223,99.244690 75.219223C98.451996 75.219223,97.691849 75.534164,97.131378 76.094650C96.570892 76.655121,96.255951 77.415268,96.255951 78.207962C96.255951 79.000656,96.570892 79.760803,97.131378 80.321274C97.691849 80.881760,98.451996 81.196701,99.244690 81.196701C100.037384 81.196701,100.797531 80.881760,101.358002 80.321274C101.918488 79.760803,102.233429 79.000656,102.233429 78.207962Z" style="fill: rgb(100.000000%,100.000000%,100.000000%);stroke: none;"></path>
  <path d="M102.771774 98.806351C102.771774 98.013657,102.456833 97.253510,101.896347 96.693039C101.335876 96.132553,100.575729 95.817612,99.783035 95.817612C98.990341 95.817612,98.230194 96.132553,97.669724 96.693039C97.109238 97.253510,96.794296 98.013657,96.794296 98.806351C96.794296 99.599045,97.109238 100.359192,97.669724 100.919662C98.230194 101.480148,98.990341 101.795090,99.783035 101.795090C100.575729 101.795090,101.335876 101.480148,101.896347 100.919662C102.456833 100.359192,102.771774 99.599045,102.771774 98.806351Z" style="fill: rgb(100.000000%,100.000000%,100.000000%);stroke: none;"></path>
  <path d="M106.169617 92.851547C106.169617 92.058853,105.854675 91.298706,105.294189 90.738235C104.733719 90.177750,103.973572 89.862808,103.180878 89.862808C102.388184 89.862808,101.628036 90.177750,101.067566 90.738235C100.507080 91.298706,100.192139 92.058853,100.192139 92.851547C100.192139 93.644241,100.507080 94.404388,101.067566 94.964859C101.628036 95.525345,102.388184 95.840286,103.180878 95.840286C103.973572 95.840286,104.733719 95.525345,105.294189 94.964859C105.854675 94.404388,106.169617 93.644241,106.169617 92.851547Z" style="fill: rgb(100.000000%,100.000000%,100.000000%);stroke: none;"></path>
  <path d="M88.723297 103.179489C88.723297 102.386795,88.408356 101.626648,87.847870 101.066177C87.287399 100.505692,86.527252 100.190750,85.734558 100.190750C84.941864 100.190750,84.181717 100.505692,83.621246 101.066177C83.060760 101.626648,82.745819 102.386795,82.745819 103.179489C82.745819 103.972183,83.060760 104.732330,83.621246 105.292801C84.181717 105.853287,84.941864 106.168228,85.734558 106.168228C86.527252 106.168228,87.287399 105.853287,87.847870 105.292801C88.408356 104.732330,88.723297 103.972183,88.723297 103.179489Z" style="fill: rgb(100.000000%,100.000000%,100.000000%);stroke: none;"></path>
  <path d="M99.347443 99.792252C99.347443 98.999557,99.032501 98.239410,98.472015 97.678940C97.911545 97.118454,97.151398 96.803513,96.358704 96.803513C95.566010 96.803513,94.805862 97.118454,94.245392 97.678940C93.684906 98.239410,93.369965 98.999557,93.369965 99.792252C93.369965 100.584946,93.684906 101.345093,94.245392 101.905563C94.805862 102.466049,95.566010 102.780991,96.358704 102.780991C97.151398 102.780991,97.911545 102.466049,98.472015 101.905563C99.032501 101.345093,99.347443 100.584946,99.347443 99.792252Z" style="fill: rgb(100.000000%,100.000000%,100.000000%);stroke: none;"></path>
  <path d="M62.210083 116.967392C62.210083 116.174698,61.895142 115.414551,61.334656 114.854080C60.774185 114.293594,60.014038 113.978653,59.221344 113.978653C58.428650 113.978653,57.668503 114.293594,57.108032 114.854080C56.547546 115.414551,56.232605 116.174698,56.232605 116.967392C56.232605 117.760086,56.547546 118.520233,57.108032 119.080704C57.668503 119.641190,58.428650 119.956131,59.221344 119.956131C60.014038 119.956131,60.774185 119.641190,61.334656 119.080704C61.895142 118.520233,62.210083 117.760086,62.210083 116.967392Z" style="fill: rgb(100.000000%,100.000000%,100.000000%);stroke: none;"></path>
  <path d="M81.715057 106.724533C81.715057 105.931839,81.400116 105.171692,80.839630 104.611221C80.279160 104.050735,79.519012 103.735794,78.726318 103.735794C77.933624 103.735794,77.173477 104.050735,76.613007 104.611221C76.052521 105.171692,75.737579 105.931839,75.737579 106.724533C75.737579 107.517227,76.052521 108.277374,76.613007 108.837845C77.173477 109.398331,77.933624 109.713272,78.726318 109.713272C79.519012 109.713272,80.279160 109.398331,80.839630 108.837845C81.400116 108.277374,81.715057 107.517227,81.715057 106.724533Z" style="fill: rgb(100.000000%,100.000000%,100.000000%);stroke: none;"></path>
  <path d="M16.669495 117.096970C16.669495 116.304276,16.354553 115.544128,15.794067 114.983658C15.233597 114.423172,14.473450 114.108231,13.680756 114.108231C12.888062 114.108231,12.127914 114.423172,11.567444 114.983658C11.006958 115.544128,10.692017 116.304276,10.692017 117.096970C10.692017 117.889664,11.006958 118.649811,11.567444 119.210281C12.127914 119.770767,12.888062 120.085709,13.680756 120.085709C14.473450 120.085709,15.233597 119.770767,15.794067 119.210281C16.354553 118.649811,16.669495 117.889664,16.669495 117.096970Z" style="fill: rgb(100.000000%,100.000000%,100.000000%);stroke: none;"></path>
  <path d="M48.883911 123.960464C48.883911 123.167770,48.568970 122.407623,48.008484 121.847153C47.448013 121.286667,46.687866 120.971725,45.895172 120.971725C45.102478 120.971725,44.342331 121.286667,43.781860 121.847153C43.221375 122.407623,42.906433 123.167770,42.906433 123.960464C42.906433 124.753159,43.221375 125.513306,43.781860 126.073776C44.342331 126.634262,45.102478 126.949203,45.895172 126.949203C46.687866 126.949203,47.448013 126.634262,48.008484 126.073776C48.568970 125.513306,48.883911 124.753159,48.883911 123.960464Z" style="fill: rgb(100.000000%,100.000000%,100.000000%);stroke: none;"></path>
  <path d="M5.992966 60.624908C5.992966 59.832214,5.678024 59.072067,5.117538 58.511597C4.557068 57.951111,3.796921 57.636169,3.004227 57.636169C2.211533 57.636169,1.451385 57.951111,0.890915 58.511597C0.330429 59.072067,0.015488 59.832214,0.015488 60.624908C0.015488 61.417603,0.330429 62.177750,0.890915 62.738220C1.451385 63.298706,2.211533 63.613647,3.004227 63.613647C3.796921 63.613647,4.557068 63.298706,5.117538 62.738220C5.678024 62.177750,5.992966 61.417603,5.992966 60.624908Z" style="fill: rgb(100.000000%,100.000000%,100.000000%);stroke: none;"></path>
  <path d="M5.871048 98.849060C5.871048 98.056366,5.556107 97.296219,4.995621 96.735748C4.435150 96.175262,3.675003 95.860321,2.882309 95.860321C2.089615 95.860321,1.329468 96.175262,0.768997 96.735748C0.208511 97.296219,-0.106430 98.056366,-0.106430 98.849060C-0.106430 99.641754,0.208511 100.401901,0.768997 100.962372C1.329468 101.522858,2.089615 101.837799,2.882309 101.837799C3.675003 101.837799,4.435150 101.522858,4.995621 100.962372C5.556107 100.401901,5.871048 99.641754,5.871048 98.849060Z" style="fill: rgb(100.000000%,100.000000%,100.000000%);stroke: none;"></path>
  <path d="M47.111664 42.345749C47.111664 41.553055,46.796722 40.792908,46.236237 40.232437C45.675766 39.671951,44.915619 39.357010,44.122925 39.357010C43.330231 39.357010,42.570084 39.671951,42.009613 40.232437C41.449127 40.792908,41.134186 41.553055,41.134186 42.345749C41.134186 43.138443,41.449127 43.898590,42.009613 44.459061C42.570084 45.019547,43.330231 45.334488,44.122925 45.334488C44.915619 45.334488,45.675766 45.019547,46.236237 44.459061C46.796722 43.898590,47.111664 43.138443,47.111664 42.345749Z" style="fill: rgb(100.000000%,100.000000%,100.000000%);stroke: none;"></path>
  <path d="M17.327148 43.011520C17.327148 42.218826,17.012207 41.458679,16.451721 40.898209C15.891251 40.337723,15.131104 40.022781,14.338409 40.022781C13.545715 40.022781,12.785568 40.337723,12.225098 40.898209C11.664612 41.458679,11.349670 42.218826,11.349670 43.011520C11.349670 43.804214,11.664612 44.564362,12.225098 45.124832C12.785568 45.685318,13.545715 46.000259,14.338409 46.000259C15.131104 46.000259,15.891251 45.685318,16.451721 45.124832C17.012207 44.564362,17.327148 43.804214,17.327148 43.011520Z" style="fill: rgb(100.000000%,100.000000%,100.000000%);stroke: none;"></path>
  <path d="M82.455383 44.681442C82.455383 43.888748,82.140442 43.128601,81.579956 42.568130C81.019485 42.007645,80.259338 41.692703,79.466644 41.692703C78.673950 41.692703,77.913803 42.007645,77.353333 42.568130C76.792847 43.128601,76.477905 43.888748,76.477905 44.681442C76.477905 45.474136,76.792847 46.234283,77.353333 46.794754C77.913803 47.355240,78.673950 47.670181,79.466644 47.670181C80.259338 47.670181,81.019485 47.355240,81.579956 46.794754C82.140442 46.234283,82.455383 45.474136,82.455383 44.681442Z" style="fill: rgb(100.000000%,100.000000%,100.000000%);stroke: none;"></path>
  <path d="M58.319702 52.087418C58.319702 51.294724,58.004761 50.534576,57.444275 49.974106C56.883804 49.413620,56.123657 49.098679,55.330963 49.098679C54.538269 49.098679,53.778122 49.413620,53.217651 49.974106C52.657166 50.534576,52.342224 51.294724,52.342224 52.087418C52.342224 52.880112,52.657166 53.640259,53.217651 54.200729C53.778122 54.761215,54.538269 55.076157,55.330963 55.076157C56.123657 55.076157,56.883804 54.761215,57.444275 54.200729C58.004761 53.640259,58.319702 52.880112,58.319702 52.087418Z" style="fill: rgb(100.000000%,100.000000%,100.000000%);stroke: none;"></path>
  <path d="M112.220901 15.603241C112.220901 14.810547,111.905960 14.050400,111.345474 13.489929C110.785004 12.929443,110.024857 12.614502,109.232162 12.614502C108.439468 12.614502,107.679321 12.929443,107.118851 13.489929C106.558365 14.050400,106.243423 14.810547,106.243423 15.603241C106.243423 16.395935,106.558365 17.156082,107.118851 17.716553C107.679321 18.277039,108.439468 18.591980,109.232162 18.591980C110.024857 18.591980,110.785004 18.277039,111.345474 17.716553C111.905960 17.156082,112.220901 16.395935,112.220901 15.603241Z" style="fill: rgb(100.000000%,100.000000%,100.000000%);stroke: none;"></path>
  <path d="M86.209274 29.351288C86.209274 28.558594,85.894333 27.798447,85.333847 27.237976C84.773376 26.677490,84.013229 26.362549,83.220535 26.362549C82.427841 26.362549,81.667694 26.677490,81.107224 27.237976C80.546738 27.798447,80.231796 28.558594,80.231796 29.351288C80.231796 30.143982,80.546738 30.904129,81.107224 31.464600C81.667694 32.025085,82.427841 32.340027,83.220535 32.340027C84.013229 32.340027,84.773376 32.025085,85.333847 31.464600C85.894333 30.904129,86.209274 30.143982,86.209274 29.351288Z" style="fill: rgb(100.000000%,100.000000%,100.000000%);stroke: none;"></path>
  <path d="M153.941452 49.057770C153.941452 48.265076,153.626511 47.504929,153.066025 46.944458C152.505554 46.383972,151.745407 46.069031,150.952713 46.069031C150.160019 46.069031,149.399872 46.383972,148.839401 46.944458C148.278915 47.504929,147.963974 48.265076,147.963974 49.057770C147.963974 49.850464,148.278915 50.610611,148.839401 51.171082C149.399872 51.731567,150.160019 52.046509,150.952713 52.046509C151.745407 52.046509,152.505554 51.731567,153.066025 51.171082C153.626511 50.610611,153.941452 49.850464,153.941452 49.057770Z" style="fill: rgb(100.000000%,100.000000%,100.000000%);stroke: none;"></path>
  <path d="M128.418137 26.577484C128.418137 25.784790,128.103195 25.024643,127.542709 24.464172C126.982239 23.903687,126.222092 23.588745,125.429398 23.588745C124.636703 23.588745,123.876556 23.903687,123.316086 24.464172C122.755600 25.024643,122.440659 25.784790,122.440659 26.577484C122.440659 27.370178,122.755600 28.130325,123.316086 28.690796C123.876556 29.251282,124.636703 29.566223,125.429398 29.566223C126.222092 29.566223,126.982239 29.251282,127.542709 28.690796C128.103195 28.130325,128.418137 27.370178,128.418137 26.577484Z" style="fill: rgb(100.000000%,100.000000%,100.000000%);stroke: none;"></path>
  <path d="M165.269165 86.934097C165.269165 86.141403,164.954224 85.381256,164.393738 84.820786C163.833267 84.260300,163.073120 83.945358,162.280426 83.945358C161.487732 83.945358,160.727585 84.260300,160.167114 84.820786C159.606628 85.381256,159.291687 86.141403,159.291687 86.934097C159.291687 87.726791,159.606628 88.486938,160.167114 89.047409C160.727585 89.607895,161.487732 89.922836,162.280426 89.922836C163.073120 89.922836,163.833267 89.607895,164.393738 89.047409C164.954224 88.486938,165.269165 87.726791,165.269165 86.934097Z" style="fill: rgb(100.000000%,100.000000%,100.000000%);stroke: none;"></path>
  <path d="M166.660126 61.390030C166.660126 60.597336,166.345184 59.837189,165.784698 59.276718C165.224228 58.716232,164.464081 58.401291,163.671387 58.401291C162.878693 58.401291,162.118546 58.716232,161.558075 59.276718C160.997589 59.837189,160.682648 60.597336,160.682648 61.390030C160.682648 62.182724,160.997589 62.942871,161.558075 63.503342C162.118546 64.063828,162.878693 64.378769,163.671387 64.378769C164.464081 64.378769,165.224228 64.063828,165.784698 63.503342C166.345184 62.942871,166.660126 62.182724,166.660126 61.390030Z" style="fill: rgb(100.000000%,100.000000%,100.000000%);stroke: none;"></path>
  <path d="M150.323441 105.825150C150.323441 105.032455,150.008499 104.272308,149.448013 103.711838C148.887543 103.151352,148.127396 102.836411,147.334702 102.836411C146.542007 102.836411,145.781860 103.151352,145.221390 103.711838C144.660904 104.272308,144.345963 105.032455,144.345963 105.825150C144.345963 106.617844,144.660904 107.377991,145.221390 107.938461C145.781860 108.498947,146.542007 108.813889,147.334702 108.813889C148.127396 108.813889,148.887543 108.498947,149.448013 107.938461C150.008499 107.377991,150.323441 106.617844,150.323441 105.825150Z" style="fill: rgb(100.000000%,100.000000%,100.000000%);stroke: none;"></path>
  <path d="M159.906525 95.069489C159.906525 94.276794,159.591583 93.516647,159.031097 92.956177C158.470627 92.395691,157.710480 92.080750,156.917786 92.080750C156.125092 92.080750,155.364944 92.395691,154.804474 92.956177C154.243988 93.516647,153.929047 94.276794,153.929047 95.069489C153.929047 95.862183,154.243988 96.622330,154.804474 97.182800C155.364944 97.743286,156.125092 98.058228,156.917786 98.058228C157.710480 98.058228,158.470627 97.743286,159.031097 97.182800C159.591583 96.622330,159.906525 95.862183,159.906525 95.069489Z" style="fill: rgb(100.000000%,100.000000%,100.000000%);stroke: none;"></path>
  <path d="M140.092331 116.104523C140.092331 115.311829,139.777390 114.551682,139.216904 113.991211C138.656433 113.430725,137.896286 113.115784,137.103592 113.115784C136.310898 113.115784,135.550751 113.430725,134.990280 113.991211C134.429794 114.551682,134.114853 115.311829,134.114853 116.104523C134.114853 116.897217,134.429794 117.657364,134.990280 118.217834C135.550751 118.778320,136.310898 119.093262,137.103592 119.093262C137.896286 119.093262,138.656433 118.778320,139.216904 118.217834C139.777390 117.657364,140.092331 116.897217,140.092331 116.104523Z" style="fill: rgb(100.000000%,100.000000%,100.000000%);stroke: none;"></path>
  <path d="M146.725220 109.314545C146.725220 108.521851,146.410278 107.761703,145.849792 107.201233C145.289322 106.640747,144.529175 106.325806,143.736481 106.325806C142.943787 106.325806,142.183640 106.640747,141.623169 107.201233C141.062683 107.761703,140.747742 108.521851,140.747742 109.314545C140.747742 110.107239,141.062683 110.867386,141.623169 111.427856C142.183640 111.988342,142.943787 112.303284,143.736481 112.303284C144.529175 112.303284,145.289322 111.988342,145.849792 111.427856C146.410278 110.867386,146.725220 110.107239,146.725220 109.314545Z" style="fill: rgb(100.000000%,100.000000%,100.000000%);stroke: none;"></path>
  <path d="M128.159012 121.672440C128.159012 120.879745,127.844070 120.119598,127.283585 119.559128C126.723114 118.998642,125.962967 118.683701,125.170273 118.683701C124.377579 118.683701,123.617432 118.998642,123.056961 119.559128C122.496475 120.119598,122.181534 120.879745,122.181534 121.672440C122.181534 122.465134,122.496475 123.225281,123.056961 123.785751C123.617432 124.346237,124.377579 124.661179,125.170273 124.661179C125.962967 124.661179,126.723114 124.346237,127.283585 123.785751C127.844070 123.225281,128.159012 122.465134,128.159012 121.672440Z" style="fill: rgb(100.000000%,100.000000%,100.000000%);stroke: none;"></path>
  <path d="M136.867722 119.475296C136.867722 118.682602,136.552780 117.922455,135.992294 117.361984C135.431824 116.801498,134.671677 116.486557,133.878983 116.486557C133.086288 116.486557,132.326141 116.801498,131.765671 117.361984C131.205185 117.922455,130.890244 118.682602,130.890244 119.475296C130.890244 120.267990,131.205185 121.028137,131.765671 121.588608C132.326141 122.149094,133.086288 122.464035,133.878983 122.464035C134.671677 122.464035,135.431824 122.149094,135.992294 121.588608C136.552780 121.028137,136.867722 120.267990,136.867722 119.475296Z" style="fill: rgb(100.000000%,100.000000%,100.000000%);stroke: none;"></path>
  <path d="M114.269226 118.110458C114.269226 117.317764,113.954285 116.557617,113.393799 115.997147C112.833328 115.436661,112.073181 115.121719,111.280487 115.121719C110.487793 115.121719,109.727646 115.436661,109.167175 115.997147C108.606689 116.557617,108.291748 117.317764,108.291748 118.110458C108.291748 118.903152,108.606689 119.663300,109.167175 120.223770C109.727646 120.784256,110.487793 121.099197,111.280487 121.099197C112.073181 121.099197,112.833328 120.784256,113.393799 120.223770C113.954285 119.663300,114.269226 118.903152,114.269226 118.110458Z" style="fill: rgb(100.000000%,100.000000%,100.000000%);stroke: none;"></path>
  <path d="M123.727676 120.228485C123.727676 119.435791,123.412735 118.675644,122.852249 118.115173C122.291779 117.554688,121.531631 117.239746,120.738937 117.239746C119.946243 117.239746,119.186096 117.554688,118.625626 118.115173C118.065140 118.675644,117.750198 119.435791,117.750198 120.228485C117.750198 121.021179,118.065140 121.781326,118.625626 122.341797C119.186096 122.902283,119.946243 123.217224,120.738937 123.217224C121.531631 123.217224,122.291779 122.902283,122.852249 122.341797C123.412735 121.781326,123.727676 121.021179,123.727676 120.228485Z" style="fill: rgb(100.000000%,100.000000%,100.000000%);stroke: none;"></path>
  <path d="M100.605057 110.792496C100.605057 109.999802,100.290115 109.239655,99.729630 108.679184C99.169159 108.118698,98.409012 107.803757,97.616318 107.803757C96.823624 107.803757,96.063477 108.118698,95.503006 108.679184C94.942520 109.239655,94.627579 109.999802,94.627579 110.792496C94.627579 111.585190,94.942520 112.345337,95.503006 112.905807C96.063477 113.466293,96.823624 113.781235,97.616318 113.781235C98.409012 113.781235,99.169159 113.466293,99.729630 112.905807C100.290115 112.345337,100.605057 111.585190,100.605057 110.792496Z" style="fill: rgb(100.000000%,100.000000%,100.000000%);stroke: none;"></path>
  <path d="M108.840912 117.519592C108.840912 116.726898,108.525970 115.966751,107.965485 115.406281C107.405014 114.845795,106.644867 114.530853,105.852173 114.530853C105.059479 114.530853,104.299332 114.845795,103.738861 115.406281C103.178375 115.966751,102.863434 116.726898,102.863434 117.519592C102.863434 118.312286,103.178375 119.072433,103.738861 119.632904C104.299332 120.193390,105.059479 120.508331,105.852173 120.508331C106.644867 120.508331,107.405014 120.193390,107.965485 119.632904C108.525970 119.072433,108.840912 118.312286,108.840912 117.519592Z" style="fill: rgb(100.000000%,100.000000%,100.000000%);stroke: none;"></path>
  <path d="M93.718643 96.760468C93.718643 95.967773,93.403702 95.207626,92.843216 94.647156C92.282745 94.086670,91.522598 93.771729,90.729904 93.771729C89.937210 93.771729,89.177063 94.086670,88.616592 94.647156C88.056107 95.207626,87.741165 95.967773,87.741165 96.760468C87.741165 97.553162,88.056107 98.313309,88.616592 98.873779C89.177063 99.434265,89.937210 99.749207,90.729904 99.749207C91.522598 99.749207,92.282745 99.434265,92.843216 98.873779C93.403702 98.313309,93.718643 97.553162,93.718643 96.760468Z" style="fill: rgb(100.000000%,100.000000%,100.000000%);stroke: none;"></path>
  <path d="M98.974319 105.374695C98.974319 104.582001,98.659378 103.821854,98.098892 103.261383C97.538422 102.700897,96.778275 102.385956,95.985580 102.385956C95.192886 102.385956,94.432739 102.700897,93.872269 103.261383C93.311783 103.821854,92.996841 104.582001,92.996841 105.374695C92.996841 106.167389,93.311783 106.927536,93.872269 107.488007C94.432739 108.048492,95.192886 108.363434,95.985580 108.363434C96.778275 108.363434,97.538422 108.048492,98.098892 107.488007C98.659378 106.927536,98.974319 106.167389,98.974319 105.374695Z" style="fill: rgb(100.000000%,100.000000%,100.000000%);stroke: none;"></path>
  <path d="M95.307053 85.061050C95.307053 84.268356,94.992111 83.508209,94.431625 82.947739C93.871155 82.387253,93.111008 82.072311,92.318314 82.072311C91.525620 82.072311,90.765472 82.387253,90.205002 82.947739C89.644516 83.508209,89.329575 84.268356,89.329575 85.061050C89.329575 85.853745,89.644516 86.613892,90.205002 87.174362C90.765472 87.734848,91.525620 88.049789,92.318314 88.049789C93.111008 88.049789,93.871155 87.734848,94.431625 87.174362C94.992111 86.613892,95.307053 85.853745,95.307053 85.061050Z" style="fill: rgb(100.000000%,100.000000%,100.000000%);stroke: none;"></path>
  <path d="M90.608231 92.324738C90.608231 91.532043,90.293289 90.771896,89.732803 90.211426C89.172333 89.650940,88.412186 89.335999,87.619492 89.335999C86.826797 89.335999,86.066650 89.650940,85.506180 90.211426C84.945694 90.771896,84.630753 91.532043,84.630753 92.324738C84.630753 93.117432,84.945694 93.877579,85.506180 94.438049C86.066650 94.998535,86.826797 95.313477,87.619492 95.313477C88.412186 95.313477,89.172333 94.998535,89.732803 94.438049C90.293289 93.877579,90.608231 93.117432,90.608231 92.324738Z" style="fill: rgb(100.000000%,100.000000%,100.000000%);stroke: none;"></path>
  <path d="M108.697845 86.057999C108.697845 85.265305,108.382904 84.505157,107.822418 83.944687C107.261948 83.384201,106.501801 83.069260,105.709106 83.069260C104.916412 83.069260,104.156265 83.384201,103.595795 83.944687C103.035309 84.505157,102.720367 85.265305,102.720367 86.057999C102.720367 86.850693,103.035309 87.610840,103.595795 88.171310C104.156265 88.731796,104.916412 89.046738,105.709106 89.046738C106.501801 89.046738,107.261948 88.731796,107.822418 88.171310C108.382904 87.610840,108.697845 86.850693,108.697845 86.057999Z" style="fill: rgb(100.000000%,100.000000%,100.000000%);stroke: none;"></path>
  <path d="M99.990860 85.473953C99.990860 84.681259,99.675919 83.921112,99.115433 83.360641C98.554962 82.800156,97.794815 82.485214,97.002121 82.485214C96.209427 82.485214,95.449280 82.800156,94.888809 83.360641C94.328323 83.921112,94.013382 84.681259,94.013382 85.473953C94.013382 86.266647,94.328323 87.026794,94.888809 87.587265C95.449280 88.147751,96.209427 88.462692,97.002121 88.462692C97.794815 88.462692,98.554962 88.147751,99.115433 87.587265C99.675919 87.026794,99.990860 86.266647,99.990860 85.473953Z" style="fill: rgb(100.000000%,100.000000%,100.000000%);stroke: none;"></path>
  <path d="M122.050110 88.942780C122.050110 88.150085,121.735168 87.389938,121.174683 86.829468C120.614212 86.268982,119.854065 85.954041,119.061371 85.954041C118.268677 85.954041,117.508530 86.268982,116.948059 86.829468C116.387573 87.389938,116.072632 88.150085,116.072632 88.942780C116.072632 89.735474,116.387573 90.495621,116.948059 91.056091C117.508530 91.616577,118.268677 91.931519,119.061371 91.931519C119.854065 91.931519,120.614212 91.616577,121.174683 91.056091C121.735168 90.495621,122.050110 89.735474,122.050110 88.942780Z" style="fill: rgb(100.000000%,100.000000%,100.000000%);stroke: none;"></path>
  <path d="M113.360641 85.637344C113.360641 84.844650,113.045700 84.084503,112.485214 83.524033C111.924744 82.963547,111.164597 82.648605,110.371902 82.648605C109.579208 82.648605,108.819061 82.963547,108.258591 83.524033C107.698105 84.084503,107.383163 84.844650,107.383163 85.637344C107.383163 86.430038,107.698105 87.190186,108.258591 87.750656C108.819061 88.311142,109.579208 88.626083,110.371902 88.626083C111.164597 88.626083,111.924744 88.311142,112.485214 87.750656C113.045700 87.190186,113.360641 86.430038,113.360641 85.637344Z" style="fill: rgb(100.000000%,100.000000%,100.000000%);stroke: none;"></path>
  <path d="M131.300766 98.448273C131.300766 97.655579,130.985825 96.895432,130.425339 96.334961C129.864868 95.774475,129.104721 95.459534,128.312027 95.459534C127.519333 95.459534,126.759186 95.774475,126.198715 96.334961C125.638229 96.895432,125.323288 97.655579,125.323288 98.448273C125.323288 99.240967,125.638229 100.001114,126.198715 100.561584C126.759186 101.122070,127.519333 101.437012,128.312027 101.437012C129.104721 101.437012,129.864868 101.122070,130.425339 100.561584C130.985825 100.001114,131.300766 99.240967,131.300766 98.448273Z" style="fill: rgb(100.000000%,100.000000%,100.000000%);stroke: none;"></path>
  <path d="M125.324265 92.540115C125.324265 91.747421,125.009323 90.987274,124.448837 90.426804C123.888367 89.866318,123.128220 89.551376,122.335526 89.551376C121.542831 89.551376,120.782684 89.866318,120.222214 90.426804C119.661728 90.987274,119.346786 91.747421,119.346786 92.540115C119.346786 93.332809,119.661728 94.092957,120.222214 94.653427C120.782684 95.213913,121.542831 95.528854,122.335526 95.528854C123.128220 95.528854,123.888367 95.213913,124.448837 94.653427C125.009323 94.092957,125.324265 93.332809,125.324265 92.540115Z" style="fill: rgb(100.000000%,100.000000%,100.000000%);stroke: none;"></path>
  <path d="M139.001602 106.532913C139.001602 105.740219,138.686661 104.980072,138.126175 104.419601C137.565704 103.859116,136.805557 103.544174,136.012863 103.544174C135.220169 103.544174,134.460022 103.859116,133.899551 104.419601C133.339066 104.980072,133.024124 105.740219,133.024124 106.532913C133.024124 107.325607,133.339066 108.085754,133.899551 108.646225C134.460022 109.206711,135.220169 109.521652,136.012863 109.521652C136.805557 109.521652,137.565704 109.206711,138.126175 108.646225C138.686661 108.085754,139.001602 107.325607,139.001602 106.532913Z" style="fill: rgb(100.000000%,100.000000%,100.000000%);stroke: none;"></path>
  <path d="M134.041412 100.912903C134.041412 100.120209,133.726471 99.360062,133.165985 98.799591C132.605515 98.239105,131.845367 97.924164,131.052673 97.924164C130.259979 97.924164,129.499832 98.239105,128.939362 98.799591C128.378876 99.360062,128.063934 100.120209,128.063934 100.912903C128.063934 101.705597,128.378876 102.465744,128.939362 103.026215C129.499832 103.586700,130.259979 103.901642,131.052673 103.901642C131.845367 103.901642,132.605515 103.586700,133.165985 103.026215C133.726471 102.465744,134.041412 101.705597,134.041412 100.912903Z" style="fill: rgb(100.000000%,100.000000%,100.000000%);stroke: none;"></path>
  <path d="M146.373154 117.827576C146.373154 117.034882,146.058212 116.274734,145.497726 115.714264C144.937256 115.153778,144.177109 114.838837,143.384415 114.838837C142.591721 114.838837,141.831573 115.153778,141.271103 115.714264C140.710617 116.274734,140.395676 117.034882,140.395676 117.827576C140.395676 118.620270,140.710617 119.380417,141.271103 119.940887C141.831573 120.501373,142.591721 120.816315,143.384415 120.816315C144.177109 120.816315,144.937256 120.501373,145.497726 119.940887C146.058212 119.380417,146.373154 118.620270,146.373154 117.827576Z" style="fill: rgb(100.000000%,100.000000%,100.000000%);stroke: none;"></path>
  <path d="M141.172211 109.680817C141.172211 108.888123,140.857269 108.127975,140.296783 107.567505C139.736313 107.007019,138.976166 106.692078,138.183472 106.692078C137.390778 106.692078,136.630630 107.007019,136.070160 107.567505C135.509674 108.127975,135.194733 108.888123,135.194733 109.680817C135.194733 110.473511,135.509674 111.233658,136.070160 111.794128C136.630630 112.354614,137.390778 112.669556,138.183472 112.669556C138.976166 112.669556,139.736313 112.354614,140.296783 111.794128C140.857269 111.233658,141.172211 110.473511,141.172211 109.680817Z" style="fill: rgb(100.000000%,100.000000%,100.000000%);stroke: none;"></path>
  <path d="M158.962952 134.910446C158.962952 134.117752,158.648010 133.357605,158.087524 132.797134C157.527054 132.236649,156.766907 131.921707,155.974213 131.921707C155.181519 131.921707,154.421371 132.236649,153.860901 132.797134C153.300415 133.357605,152.985474 134.117752,152.985474 134.910446C152.985474 135.703140,153.300415 136.463287,153.860901 137.023758C154.421371 137.584244,155.181519 137.899185,155.974213 137.899185C156.766907 137.899185,157.527054 137.584244,158.087524 137.023758C158.648010 136.463287,158.962952 135.703140,158.962952 134.910446Z" style="fill: rgb(100.000000%,100.000000%,100.000000%);stroke: none;"></path>
  <path d="M149.262146 122.941391C149.262146 122.148697,148.947205 121.388550,148.386719 120.828079C147.826248 120.267593,147.066101 119.952652,146.273407 119.952652C145.480713 119.952652,144.720566 120.267593,144.160095 120.828079C143.599609 121.388550,143.284668 122.148697,143.284668 122.941391C143.284668 123.734085,143.599609 124.494232,144.160095 125.054703C144.720566 125.615189,145.480713 125.930130,146.273407 125.930130C147.066101 125.930130,147.826248 125.615189,148.386719 125.054703C148.947205 124.494232,149.262146 123.734085,149.262146 122.941391Z" style="fill: rgb(100.000000%,100.000000%,100.000000%);stroke: none;"></path>
  <path d="M176.255295 162.375198C176.255295 161.582504,175.940353 160.822357,175.379868 160.261887C174.819397 159.701401,174.059250 159.386459,173.266556 159.386459C172.473862 159.386459,171.713715 159.701401,171.153244 160.261887C170.592758 160.822357,170.277817 161.582504,170.277817 162.375198C170.277817 163.167892,170.592758 163.928040,171.153244 164.488510C171.713715 165.048996,172.473862 165.363937,173.266556 165.363937C174.059250 165.363937,174.819397 165.048996,175.379868 164.488510C175.940353 163.928040,176.255295 163.167892,176.255295 162.375198Z" style="fill: rgb(100.000000%,100.000000%,100.000000%);stroke: none;"></path>
  <path d="M167.051666 140.806320C167.051666 140.013626,166.736725 139.253479,166.176239 138.693008C165.615768 138.132523,164.855621 137.817581,164.062927 137.817581C163.270233 137.817581,162.510086 138.132523,161.949615 138.693008C161.389130 139.253479,161.074188 140.013626,161.074188 140.806320C161.074188 141.599014,161.389130 142.359161,161.949615 142.919632C162.510086 143.480118,163.270233 143.795059,164.062927 143.795059C164.855621 143.795059,165.615768 143.480118,166.176239 142.919632C166.736725 142.359161,167.051666 141.599014,167.051666 140.806320Z" style="fill: rgb(100.000000%,100.000000%,100.000000%);stroke: none;"></path>
  <path d="M148.196198 192.093033C148.196198 191.300339,147.881256 190.540192,147.320770 189.979721C146.760300 189.419235,146.000153 189.104294,145.207458 189.104294C144.414764 189.104294,143.654617 189.419235,143.094147 189.979721C142.533661 190.540192,142.218719 191.300339,142.218719 192.093033C142.218719 192.885727,142.533661 193.645874,143.094147 194.206345C143.654617 194.766830,144.414764 195.081772,145.207458 195.081772C146.000153 195.081772,146.760300 194.766830,147.320770 194.206345C147.881256 193.645874,148.196198 192.885727,148.196198 192.093033Z" style="fill: rgb(100.000000%,100.000000%,100.000000%);stroke: none;"></path>
  <path d="M171.637695 177.171356C171.637695 176.378662,171.322754 175.618515,170.762268 175.058044C170.201797 174.497559,169.441650 174.182617,168.648956 174.182617C167.856262 174.182617,167.096115 174.497559,166.535645 175.058044C165.975159 175.618515,165.660217 176.378662,165.660217 177.171356C165.660217 177.964050,165.975159 178.724197,166.535645 179.284668C167.096115 179.845154,167.856262 180.160095,168.648956 180.160095C169.441650 180.160095,170.201797 179.845154,170.762268 179.284668C171.322754 178.724197,171.637695 177.964050,171.637695 177.171356Z" style="fill: rgb(100.000000%,100.000000%,100.000000%);stroke: none;"></path>
  <path d="M114.730011 169.618805C114.730011 168.826111,114.415070 168.065964,113.854584 167.505493C113.294113 166.945007,112.533966 166.630066,111.741272 166.630066C110.948578 166.630066,110.188431 166.945007,109.627960 167.505493C109.067474 168.065964,108.752533 168.826111,108.752533 169.618805C108.752533 170.411499,109.067474 171.171646,109.627960 171.732117C110.188431 172.292603,110.948578 172.607544,111.741272 172.607544C112.533966 172.607544,113.294113 172.292603,113.854584 171.732117C114.415070 171.171646,114.730011 170.411499,114.730011 169.618805Z" style="fill: rgb(100.000000%,100.000000%,100.000000%);stroke: none;"></path>
  <path d="M132.751434 189.957230C132.751434 189.164536,132.436493 188.404388,131.876007 187.843918C131.315536 187.283432,130.555389 186.968491,129.762695 186.968491C128.970001 186.968491,128.209854 187.283432,127.649384 187.843918C127.088898 188.404388,126.773956 189.164536,126.773956 189.957230C126.773956 190.749924,127.088898 191.510071,127.649384 192.070541C128.209854 192.631027,128.970001 192.945969,129.762695 192.945969C130.555389 192.945969,131.315536 192.631027,131.876007 192.070541C132.436493 191.510071,132.751434 190.749924,132.751434 189.957230Z" style="fill: rgb(100.000000%,100.000000%,100.000000%);stroke: none;"></path>
  <path d="M116.941223 134.569382C116.941223 133.776688,116.626282 133.016541,116.065796 132.456070C115.505325 131.895584,114.745178 131.580643,113.952484 131.580643C113.159790 131.580643,112.399643 131.895584,111.839172 132.456070C111.278687 133.016541,110.963745 133.776688,110.963745 134.569382C110.963745 135.362076,111.278687 136.122223,111.839172 136.682693C112.399643 137.243179,113.159790 137.558121,113.952484 137.558121C114.745178 137.558121,115.505325 137.243179,116.065796 136.682693C116.626282 136.122223,116.941223 135.362076,116.941223 134.569382Z" style="fill: rgb(100.000000%,100.000000%,100.000000%);stroke: none;"></path>
  <path d="M114.405594 155.499542C114.405594 154.706848,114.090652 153.946701,113.530167 153.386230C112.969696 152.825745,112.209549 152.510803,111.416855 152.510803C110.624161 152.510803,109.864014 152.825745,109.303543 153.386230C108.743057 153.946701,108.428116 154.706848,108.428116 155.499542C108.428116 156.292236,108.743057 157.052383,109.303543 157.612854C109.864014 158.173340,110.624161 158.488281,111.416855 158.488281C112.209549 158.488281,112.969696 158.173340,113.530167 157.612854C114.090652 157.052383,114.405594 156.292236,114.405594 155.499542Z" style="fill: rgb(100.000000%,100.000000%,100.000000%);stroke: none;"></path>
  <path d="M119.921280 114.818466C119.921280 114.025772,119.606339 113.265625,119.045853 112.705154C118.485382 112.144669,117.725235 111.829727,116.932541 111.829727C116.139847 111.829727,115.379700 112.144669,114.819229 112.705154C114.258743 113.265625,113.943802 114.025772,113.943802 114.818466C113.943802 115.611160,114.258743 116.371307,114.819229 116.931778C115.379700 117.492264,116.139847 117.807205,116.932541 117.807205C117.725235 117.807205,118.485382 117.492264,119.045853 116.931778C119.606339 116.371307,119.921280 115.611160,119.921280 114.818466Z" style="fill: rgb(100.000000%,100.000000%,100.000000%);stroke: none;"></path>
  <path d="M118.402420 126.945572C118.402420 126.152878,118.087479 125.392731,117.526993 124.832260C116.966522 124.271774,116.206375 123.956833,115.413681 123.956833C114.620987 123.956833,113.860840 124.271774,113.300369 124.832260C112.739883 125.392731,112.424942 126.152878,112.424942 126.945572C112.424942 127.738266,112.739883 128.498413,113.300369 129.058884C113.860840 129.619370,114.620987 129.934311,115.413681 129.934311C116.206375 129.934311,116.966522 129.619370,117.526993 129.058884C118.087479 128.498413,118.402420 127.738266,118.402420 126.945572Z" style="fill: rgb(100.000000%,100.000000%,100.000000%);stroke: none;"></path>
  <path d="M123.649216 102.396667C123.649216 101.603973,123.334274 100.843826,122.773788 100.283356C122.213318 99.722870,121.453171 99.407928,120.660477 99.407928C119.867783 99.407928,119.107635 99.722870,118.547165 100.283356C117.986679 100.843826,117.671738 101.603973,117.671738 102.396667C117.671738 103.189362,117.986679 103.949509,118.547165 104.509979C119.107635 105.070465,119.867783 105.385406,120.660477 105.385406C121.453171 105.385406,122.213318 105.070465,122.773788 104.509979C123.334274 103.949509,123.649216 103.189362,123.649216 102.396667Z" style="fill: rgb(100.000000%,100.000000%,100.000000%);stroke: none;"></path>
  <path d="M120.325623 110.311264C120.325623 109.518570,120.010681 108.758423,119.450195 108.197952C118.889725 107.637466,118.129578 107.322525,117.336884 107.322525C116.544189 107.322525,115.784042 107.637466,115.223572 108.197952C114.663086 108.758423,114.348145 109.518570,114.348145 110.311264C114.348145 111.103958,114.663086 111.864105,115.223572 112.424576C115.784042 112.985062,116.544189 113.300003,117.336884 113.300003C118.129578 113.300003,118.889725 112.985062,119.450195 112.424576C120.010681 111.864105,120.325623 111.103958,120.325623 110.311264Z" style="fill: rgb(100.000000%,100.000000%,100.000000%);stroke: none;"></path>
  <path d="M132.002380 91.328888C132.002380 90.536194,131.687439 89.776047,131.126953 89.215576C130.566483 88.655090,129.806335 88.340149,129.013641 88.340149C128.220947 88.340149,127.460800 88.655090,126.900330 89.215576C126.339844 89.776047,126.024902 90.536194,126.024902 91.328888C126.024902 92.121582,126.339844 92.881729,126.900330 93.442200C127.460800 94.002686,128.220947 94.317627,129.013641 94.317627C129.806335 94.317627,130.566483 94.002686,131.126953 93.442200C131.687439 92.881729,132.002380 92.121582,132.002380 91.328888Z" style="fill: rgb(100.000000%,100.000000%,100.000000%);stroke: none;"></path>
  <path d="M126.261688 99.173721C126.261688 98.381027,125.946747 97.620880,125.386261 97.060410C124.825790 96.499924,124.065643 96.184982,123.272949 96.184982C122.480255 96.184982,121.720108 96.499924,121.159637 97.060410C120.599152 97.620880,120.284210 98.381027,120.284210 99.173721C120.284210 99.966415,120.599152 100.726562,121.159637 101.287033C121.720108 101.847519,122.480255 102.162460,123.272949 102.162460C124.065643 102.162460,124.825790 101.847519,125.386261 101.287033C125.946747 100.726562,126.261688 99.966415,126.261688 99.173721Z" style="fill: rgb(100.000000%,100.000000%,100.000000%);stroke: none;"></path>
  <path d="M146.605759 76.313553C146.605759 75.520859,146.290817 74.760712,145.730331 74.200241C145.169861 73.639755,144.409714 73.324814,143.617020 73.324814C142.824326 73.324814,142.064178 73.639755,141.503708 74.200241C140.943222 74.760712,140.628281 75.520859,140.628281 76.313553C140.628281 77.106247,140.943222 77.866394,141.503708 78.426865C142.064178 78.987350,142.824326 79.302292,143.617020 79.302292C144.409714 79.302292,145.169861 78.987350,145.730331 78.426865C146.290817 77.866394,146.605759 77.106247,146.605759 76.313553Z" style="fill: rgb(100.000000%,100.000000%,100.000000%);stroke: none;"></path>
  <path d="M135.037064 86.525558C135.037064 85.732864,134.722122 84.972717,134.161636 84.412247C133.601166 83.851761,132.841019 83.536819,132.048325 83.536819C131.255630 83.536819,130.495483 83.851761,129.935013 84.412247C129.374527 84.972717,129.059586 85.732864,129.059586 86.525558C129.059586 87.318253,129.374527 88.078400,129.935013 88.638870C130.495483 89.199356,131.255630 89.514297,132.048325 89.514297C132.841019 89.514297,133.601166 89.199356,134.161636 88.638870C134.722122 88.078400,135.037064 87.318253,135.037064 86.525558Z" style="fill: rgb(100.000000%,100.000000%,100.000000%);stroke: none;"></path>
  <path d="M178.758057 83.048401C178.758057 82.255707,178.443115 81.495560,177.882629 80.935089C177.322159 80.374603,176.562012 80.059662,175.769318 80.059662C174.976624 80.059662,174.216476 80.374603,173.656006 80.935089C173.095520 81.495560,172.780579 82.255707,172.780579 83.048401C172.780579 83.841095,173.095520 84.601242,173.656006 85.161713C174.216476 85.722198,174.976624 86.037140,175.769318 86.037140C176.562012 86.037140,177.322159 85.722198,177.882629 85.161713C178.443115 84.601242,178.758057 83.841095,178.758057 83.048401Z" style="fill: rgb(100.000000%,100.000000%,100.000000%);stroke: none;"></path>
  <path d="M156.822830 73.762085C156.822830 72.969391,156.507889 72.209244,155.947403 71.648773C155.386932 71.088287,154.626785 70.773346,153.834091 70.773346C153.041397 70.773346,152.281250 71.088287,151.720779 71.648773C151.160294 72.209244,150.845352 72.969391,150.845352 73.762085C150.845352 74.554779,151.160294 75.314926,151.720779 75.875397C152.281250 76.435883,153.041397 76.750824,153.834091 76.750824C154.626785 76.750824,155.386932 76.435883,155.947403 75.875397C156.507889 75.314926,156.822830 74.554779,156.822830 73.762085Z" style="fill: rgb(100.000000%,100.000000%,100.000000%);stroke: none;"></path>
  <path d="M186.042908 127.572006C186.042908 126.779312,185.727966 126.019165,185.167480 125.458694C184.607010 124.898209,183.846863 124.583267,183.054169 124.583267C182.261475 124.583267,181.501328 124.898209,180.940857 125.458694C180.380371 126.019165,180.065430 126.779312,180.065430 127.572006C180.065430 128.364700,180.380371 129.124847,180.940857 129.685318C181.501328 130.245804,182.261475 130.560745,183.054169 130.560745C183.846863 130.560745,184.607010 130.245804,185.167480 129.685318C185.727966 129.124847,186.042908 128.364700,186.042908 127.572006Z" style="fill: rgb(100.000000%,100.000000%,100.000000%);stroke: none;"></path>
  <path d="M182.951462 98.152496C182.951462 97.359802,182.636520 96.599655,182.076035 96.039185C181.515564 95.478699,180.755417 95.163757,179.962723 95.163757C179.170029 95.163757,178.409882 95.478699,177.849411 96.039185C177.288925 96.599655,176.973984 97.359802,176.973984 98.152496C176.973984 98.945190,177.288925 99.705338,177.849411 100.265808C178.409882 100.826294,179.170029 101.141235,179.962723 101.141235C180.755417 101.141235,181.515564 100.826294,182.076035 100.265808C182.636520 99.705338,182.951462 98.945190,182.951462 98.152496Z" style="fill: rgb(100.000000%,100.000000%,100.000000%);stroke: none;"></path>
  <path d="M162.253357 153.233109C162.253357 152.440414,161.938416 151.680267,161.377930 151.119797C160.817459 150.559311,160.057312 150.244370,159.264618 150.244370C158.471924 150.244370,157.711777 150.559311,157.151306 151.119797C156.590820 151.680267,156.275879 152.440414,156.275879 153.233109C156.275879 154.025803,156.590820 154.785950,157.151306 155.346420C157.711777 155.906906,158.471924 156.221848,159.264618 156.221848C160.057312 156.221848,160.817459 155.906906,161.377930 155.346420C161.938416 154.785950,162.253357 154.025803,162.253357 153.233109Z" style="fill: rgb(100.000000%,100.000000%,100.000000%);stroke: none;"></path>
  <path d="M184.015671 144.093048C184.015671 143.300354,183.700729 142.540207,183.140244 141.979736C182.579773 141.419250,181.819626 141.104309,181.026932 141.104309C180.234238 141.104309,179.474091 141.419250,178.913620 141.979736C178.353134 142.540207,178.038193 143.300354,178.038193 144.093048C178.038193 144.885742,178.353134 145.645889,178.913620 146.206360C179.474091 146.766846,180.234238 147.081787,181.026932 147.081787C181.819626 147.081787,182.579773 146.766846,183.140244 146.206360C183.700729 145.645889,184.015671 144.885742,184.015671 144.093048Z" style="fill: rgb(100.000000%,100.000000%,100.000000%);stroke: none;"></path>
  <path d="M133.838333 159.274170C133.838333 158.481476,133.523392 157.721329,132.962906 157.160858C132.402435 156.600372,131.642288 156.285431,130.849594 156.285431C130.056900 156.285431,129.296753 156.600372,128.736282 157.160858C128.175797 157.721329,127.860855 158.481476,127.860855 159.274170C127.860855 160.066864,128.175797 160.827011,128.736282 161.387482C129.296753 161.947968,130.056900 162.262909,130.849594 162.262909C131.642288 162.262909,132.402435 161.947968,132.962906 161.387482C133.523392 160.827011,133.838333 160.066864,133.838333 159.274170Z" style="fill: rgb(100.000000%,100.000000%,100.000000%);stroke: none;"></path>
  <path d="M152.016815 149.462265C152.016815 148.669571,151.701874 147.909424,151.141388 147.348953C150.580917 146.788467,149.820770 146.473526,149.028076 146.473526C148.235382 146.473526,147.475235 146.788467,146.914764 147.348953C146.354279 147.909424,146.039337 148.669571,146.039337 149.462265C146.039337 150.254959,146.354279 151.015106,146.914764 151.575577C147.475235 152.136063,148.235382 152.451004,149.028076 152.451004C149.820770 152.451004,150.580917 152.136063,151.141388 151.575577C151.701874 151.015106,152.016815 150.254959,152.016815 149.462265Z" style="fill: rgb(100.000000%,100.000000%,100.000000%);stroke: none;"></path>
  <path d="M107.344467 191.082718C107.344467 190.290024,107.029526 189.529877,106.469040 188.969406C105.908569 188.408920,105.148422 188.093979,104.355728 188.093979C103.563034 188.093979,102.802887 188.408920,102.242416 188.969406C101.681931 189.529877,101.366989 190.290024,101.366989 191.082718C101.366989 191.875412,101.681931 192.635559,102.242416 193.196030C102.802887 193.756516,103.563034 194.071457,104.355728 194.071457C105.148422 194.071457,105.908569 193.756516,106.469040 193.196030C107.029526 192.635559,107.344467 191.875412,107.344467 191.082718Z" style="fill: rgb(100.000000%,100.000000%,100.000000%);stroke: none;"></path>
  <path d="M132.602219 173.052048C132.602219 172.259354,132.287277 171.499207,131.726791 170.938736C131.166321 170.378250,130.406174 170.063309,129.613480 170.063309C128.820786 170.063309,128.060638 170.378250,127.500168 170.938736C126.939682 171.499207,126.624741 172.259354,126.624741 173.052048C126.624741 173.844742,126.939682 174.604889,127.500168 175.165359C128.060638 175.725845,128.820786 176.040787,129.613480 176.040787C130.406174 176.040787,131.166321 175.725845,131.726791 175.165359C132.287277 174.604889,132.602219 173.844742,132.602219 173.052048Z" style="fill: rgb(100.000000%,100.000000%,100.000000%);stroke: none;"></path>
  <path d="M67.478928 171.361450C42.845718 168.775681,26.142578 145.065994,32.000000 121.000000C35.484802 106.682236,47.438141 94.837494,46.560135 79.919189C45.759689 66.318726,34.308701 55.957230,32.000000 42.616730C29.110199 25.918518,40.076691 10.023468,56.674835 6.085770C71.678406 2.526352,87.101074 9.806808,94.355453 23.466095C100.649490 35.317154,99.243561 49.233047,99.029648 62.599640C98.905090 70.383118,99.244690 78.207962,101.176956 85.753998C102.056076 89.187225,103.180878 92.851547,101.427216 95.924881C99.783035 98.806351,96.358704 99.792252,93.195038 100.800903C85.734558 103.179489,78.726318 106.724533,71.796844 110.363480C59.221344 116.967392,45.895172 123.960464,32.000000 121.000000C13.680756 117.096970,2.882309 98.849060,2.943878 79.545792C3.004227 60.624908,14.338409 43.011520,32.000000 42.616730C44.122925 42.345749,55.330963 52.087418,67.189804 48.448563C79.466644 44.681442,83.220535 29.351288,94.355453 23.466095C109.232162 15.603241,125.429398 26.577484,138.681046 38.249191C150.952713 49.057770,163.671387 61.390030,162.791199 77.554092C162.280426 86.934097,156.917786 95.069489,150.666687 102.085464C147.334702 105.825150,143.736481 109.314545,140.236786 112.897125C137.103592 116.104523,133.878983 119.475296,129.520966 120.574799C125.170273 121.672440,120.738937 120.228485,116.377289 119.251785C111.280487 118.110458,105.852173 117.519592,101.790039 114.201614C97.616318 110.792496,95.985580 105.374695,93.195038 100.800903C90.729904 96.760468,87.619492 92.324738,90.104874 88.482712C92.318314 85.061050,97.002121 85.473953,101.176956 85.753998C105.709106 86.057999,110.371902 85.637344,114.631653 87.257736C119.061371 88.942780,122.335526 92.540115,125.696167 95.862320C128.312027 98.448273,131.052673 100.912903,133.487213 103.671295C136.012863 106.532913,138.183472 109.680817,140.236786 112.897125C143.384415 117.827576,146.273407 122.941391,149.958359 127.487961C155.974213 134.910446,164.062927 140.806320,167.830414 149.635513C173.266556 162.375198,168.648956 177.171356,156.958176 184.613113C145.207458 192.093033,129.762695 189.957230,120.529434 179.536850C111.741272 169.618805,111.416855 155.499542,113.019928 142.267075C113.952484 134.569382,115.413681 126.945572,116.377289 119.251785C116.932541 114.818466,117.336884 110.311264,119.069534 106.185226C120.660477 102.396667,123.272949 99.173721,125.696167 95.862320C129.013641 91.328888,132.048325 86.525558,136.265747 82.802719C143.617020 76.313553,153.834091 73.762085,162.791199 77.554092C175.769318 83.048401,179.962723 98.152496,181.471222 112.507996C183.054169 127.572006,181.026932 144.093048,167.830414 149.635513C159.264618 153.233109,149.028076 149.462265,140.795883 153.905624C130.849594 159.274170,129.613480 173.052048,120.529434 179.536850C104.355728 191.082718,86.058701 173.311783,67.478928 171.361450" style="stroke:rgb(0.000000%,0.000000%,0.000000%); stroke-width: 0.498138;stroke-linecap: round;stroke-linejoin: round;stroke-miterlimit: 10.000000;fill: none;"></path>
  <path d="M67.478928 171.361450C42.845718 168.775681,26.142578 145.065994,32.000000 121.000000C35.484802 106.682236,47.438141 94.837494,46.560135 79.919189C45.759689 66.318726,34.308701 55.957230,32.000000 42.616730" style="stroke:rgb(0.000000%,0.000000%,0.000000%); stroke-width: 1.494400;stroke-linecap: round;stroke-linejoin: round;stroke-miterlimit: 10.000000;fill: none;"></path>
  <path d="M120.529434 179.536850C104.355728 191.082718,86.058701 173.311783,67.478928 171.361450" style="stroke:rgb(0.000000%,0.000000%,0.000000%); stroke-width: 1.494400;stroke-linecap: round;stroke-linejoin: round;stroke-miterlimit: 10.000000;fill: none;"></path>
  <path d="M34.988739 121.000000C34.988739 120.207306,34.673798 119.447159,34.113312 118.886688C33.552841 118.326202,32.792694 118.011261,32.000000 118.011261C31.207306 118.011261,30.447159 118.326202,29.886688 118.886688C29.326202 119.447159,29.011261 120.207306,29.011261 121.000000C29.011261 121.792694,29.326202 122.552841,29.886688 123.113312C30.447159 123.673798,31.207306 123.988739,32.000000 123.988739C32.792694 123.988739,33.552841 123.673798,34.113312 123.113312C34.673798 122.552841,34.988739 121.792694,34.988739 121.000000Z" style="fill: rgb(100.000000%,100.000000%,100.000000%);stroke: none;"></path>
  <path d="M38.305466 154.235794C31.782715 144.976913,29.071289 133.032990,32.000000 121.000000C33.742401 113.841110,37.601944 107.300476,40.916122 100.684784" style="stroke:rgb(0.000000%,0.000000%,0.000000%); stroke-width: 1.494400;stroke-linecap: round;stroke-linejoin: round;stroke-miterlimit: 10.000000;fill: none;"></path>
  <path d="M97.344193 23.466095C97.344193 22.673401,97.029251 21.913254,96.468765 21.352783C95.908295 20.792297,95.148148 20.477356,94.355453 20.477356C93.562759 20.477356,92.802612 20.792297,92.242142 21.352783C91.681656 21.913254,91.366714 22.673401,91.366714 23.466095C91.366714 24.258789,91.681656 25.018936,92.242142 25.579407C92.802612 26.139893,93.562759 26.454834,94.355453 26.454834C95.148148 26.454834,95.908295 26.139893,96.468765 25.579407C97.029251 25.018936,97.344193 24.258789,97.344193 23.466095Z" style="fill: rgb(100.000000%,100.000000%,100.000000%);stroke: none;"></path>
  <path d="M78.421097 8.318924C85.059006 11.401520,90.728271 16.636459,94.355453 23.466095C97.502472 29.391632,98.724503 35.833374,99.133026 42.464554" style="stroke:rgb(0.000000%,0.000000%,0.000000%); stroke-width: 0.498138;stroke-linecap: round;stroke-linejoin: round;stroke-miterlimit: 10.000000;fill: none;"></path>
  <path d="M96.183777 100.800903C96.183777 100.008209,95.868835 99.248062,95.308350 98.687592C94.747879 98.127106,93.987732 97.812164,93.195038 97.812164C92.402344 97.812164,91.642197 98.127106,91.081726 98.687592C90.521240 99.248062,90.206299 100.008209,90.206299 100.800903C90.206299 101.593597,90.521240 102.353745,91.081726 102.914215C91.642197 103.474701,92.402344 103.789642,93.195038 103.789642C93.987732 103.789642,94.747879 103.474701,95.308350 102.914215C95.868835 102.353745,96.183777 101.593597,96.183777 100.800903Z" style="fill: rgb(100.000000%,100.000000%,100.000000%);stroke: none;"></path>
  <path d="M97.880920 99.065201C96.423859 99.797943,94.776871 100.296585,93.195038 100.800903C89.464798 101.990204,85.847610 103.471115,82.296799 105.109573" style="stroke:rgb(0.000000%,0.000000%,0.000000%); stroke-width: 0.498138;stroke-linecap: round;stroke-linejoin: round;stroke-miterlimit: 10.000000;fill: none;"></path>
  <path d="M34.988739 42.616730C34.988739 41.824036,34.673798 41.063889,34.113312 40.503418C33.552841 39.942932,32.792694 39.627991,32.000000 39.627991C31.207306 39.627991,30.447159 39.942932,29.886688 40.503418C29.326202 41.063889,29.011261 41.824036,29.011261 42.616730C29.011261 43.409424,29.326202 44.169571,29.886688 44.730042C30.447159 45.290527,31.207306 45.605469,32.000000 45.605469C32.792694 45.605469,33.552841 45.290527,34.113312 44.730042C34.673798 44.169571,34.988739 43.409424,34.988739 42.616730Z" style="fill: rgb(100.000000%,100.000000%,100.000000%);stroke: none;"></path>
  <path d="M10.871490 54.133957C15.920273 47.316162,23.169205 42.814117,32.000000 42.616730C38.061462 42.481232,43.894211 44.848907,49.693939 46.795609" style="stroke:rgb(0.000000%,0.000000%,0.000000%); stroke-width: 0.498138;stroke-linecap: round;stroke-linejoin: round;stroke-miterlimit: 10.000000;fill: none;"></path>
  <path d="M165.779938 77.554092C165.779938 76.761398,165.464996 76.001251,164.904510 75.440781C164.344040 74.880295,163.583893 74.565353,162.791199 74.565353C161.998505 74.565353,161.238358 74.880295,160.677887 75.440781C160.117401 76.001251,159.802460 76.761398,159.802460 77.554092C159.802460 78.346786,160.117401 79.106934,160.677887 79.667404C161.238358 80.227890,161.998505 80.542831,162.791199 80.542831C163.583893 80.542831,164.344040 80.227890,164.904510 79.667404C165.464996 79.106934,165.779938 78.346786,165.779938 77.554092Z" style="fill: rgb(100.000000%,100.000000%,100.000000%);stroke: none;"></path>
  <path d="M155.668076 55.893356C160.271683 62.347992,163.231293 69.472061,162.791199 77.554092C162.535812 82.244095,161.067459 86.622955,158.881561 90.706299" style="stroke:rgb(0.000000%,0.000000%,0.000000%); stroke-width: 0.498138;stroke-linecap: round;stroke-linejoin: round;stroke-miterlimit: 10.000000;fill: none;"></path>
  <path d="M119.366028 119.251785C119.366028 118.459091,119.051086 117.698944,118.490601 117.138474C117.930130 116.577988,117.169983 116.263046,116.377289 116.263046C115.584595 116.263046,114.824448 116.577988,114.263977 117.138474C113.703491 117.698944,113.388550 118.459091,113.388550 119.251785C113.388550 120.044479,113.703491 120.804626,114.263977 121.365097C114.824448 121.925583,115.584595 122.240524,116.377289 122.240524C117.169983 122.240524,117.930130 121.925583,118.490601 121.365097C119.051086 120.804626,119.366028 120.044479,119.366028 119.251785Z" style="fill: rgb(100.000000%,100.000000%,100.000000%);stroke: none;"></path>
  <path d="M122.953217 120.691162C120.756348 120.345291,118.558105 119.740128,116.377289 119.251785C113.828888 118.681122,111.197601 118.248062,108.695648 117.542923" style="stroke:rgb(0.000000%,0.000000%,0.000000%); stroke-width: 0.498138;stroke-linecap: round;stroke-linejoin: round;stroke-miterlimit: 10.000000;fill: none;"></path>
  <path d="M104.165695 85.753998C104.165695 84.961304,103.850754 84.201157,103.290268 83.640686C102.729797 83.080200,101.969650 82.765259,101.176956 82.765259C100.384262 82.765259,99.624115 83.080200,99.063644 83.640686C98.503159 84.201157,98.188217 84.961304,98.188217 85.753998C98.188217 86.546692,98.503159 87.306839,99.063644 87.867310C99.624115 88.427795,100.384262 88.742737,101.176956 88.742737C101.969650 88.742737,102.729797 88.427795,103.290268 87.867310C103.850754 87.306839,104.165695 86.546692,104.165695 85.753998Z" style="fill: rgb(100.000000%,100.000000%,100.000000%);stroke: none;"></path>
  <path d="M94.905396 85.730209C96.874878 85.440750,99.089539 85.613983,101.176956 85.753998C103.443039 85.906006,105.741776 85.876831,108.006470 86.012222" style="stroke:rgb(0.000000%,0.000000%,0.000000%); stroke-width: 0.498138;stroke-linecap: round;stroke-linejoin: round;stroke-miterlimit: 10.000000;fill: none;"></path>
  <path d="M143.225525 112.897125C143.225525 112.104431,142.910583 111.344284,142.350098 110.783813C141.789627 110.223328,141.029480 109.908386,140.236786 109.908386C139.444092 109.908386,138.683945 110.223328,138.123474 110.783813C137.562988 111.344284,137.248047 112.104431,137.248047 112.897125C137.248047 113.689819,137.562988 114.449966,138.123474 115.010437C138.683945 115.570923,139.444092 115.885864,140.236786 115.885864C141.029480 115.885864,141.789627 115.570923,142.350098 115.010437C142.910583 114.449966,143.225525 113.689819,143.225525 112.897125Z" style="fill: rgb(100.000000%,100.000000%,100.000000%);stroke: none;"></path>
  <path d="M137.039139 108.151215C138.154160 109.697922,139.210129 111.288971,140.236786 112.897125C141.810608 115.362350,143.319763 117.873428,144.896088 120.336517" style="stroke:rgb(0.000000%,0.000000%,0.000000%); stroke-width: 0.498138;stroke-linecap: round;stroke-linejoin: round;stroke-miterlimit: 10.000000;fill: none;"></path>
  <path d="M123.518173 179.536850C123.518173 178.744156,123.203232 177.984009,122.642746 177.423538C122.082275 176.863052,121.322128 176.548111,120.529434 176.548111C119.736740 176.548111,118.976593 176.863052,118.416122 177.423538C117.855637 177.984009,117.540695 178.744156,117.540695 179.536850C117.540695 180.329544,117.855637 181.089691,118.416122 181.650162C118.976593 182.210648,119.736740 182.525589,120.529434 182.525589C121.322128 182.525589,122.082275 182.210648,122.642746 181.650162C123.203232 181.089691,123.518173 180.329544,123.518173 179.536850Z" style="fill: rgb(100.000000%,100.000000%,100.000000%);stroke: none;"></path>
  <path d="M137.799744 188.787582C131.315567 187.886078,125.146057 184.747040,120.529434 179.536850C116.135345 174.577820,113.857193 168.568497,112.877960 162.144867" style="stroke:rgb(0.000000%,0.000000%,0.000000%); stroke-width: 0.498138;stroke-linecap: round;stroke-linejoin: round;stroke-miterlimit: 10.000000;fill: none;"></path>
  <path d="M128.684906 95.862320C128.684906 95.069626,128.369965 94.309479,127.809479 93.749008C127.249008 93.188522,126.488861 92.873581,125.696167 92.873581C124.903473 92.873581,124.143326 93.188522,123.582855 93.749008C123.022369 94.309479,122.707428 95.069626,122.707428 95.862320C122.707428 96.655014,123.022369 97.415161,123.582855 97.975632C124.143326 98.536118,124.903473 98.851059,125.696167 98.851059C126.488861 98.851059,127.249008 98.536118,127.809479 97.975632C128.369965 97.415161,128.684906 96.655014,128.684906 95.862320Z" style="fill: rgb(100.000000%,100.000000%,100.000000%);stroke: none;"></path>
  <path d="M122.070755 100.844818C123.225647 99.151596,124.484558 97.518021,125.696167 95.862320C127.354904 93.595596,128.942947 91.261398,130.643494 89.028534" style="stroke:rgb(0.000000%,0.000000%,0.000000%); stroke-width: 0.498138;stroke-linecap: round;stroke-linejoin: round;stroke-miterlimit: 10.000000;fill: none;"></path>
  <path d="M170.819153 149.635513C170.819153 148.842819,170.504211 148.082672,169.943726 147.522202C169.383255 146.961716,168.623108 146.646774,167.830414 146.646774C167.037720 146.646774,166.277573 146.961716,165.717102 147.522202C165.156616 148.082672,164.841675 148.842819,164.841675 149.635513C164.841675 150.428207,165.156616 151.188354,165.717102 151.748825C166.277573 152.309311,167.037720 152.624252,167.830414 152.624252C168.623108 152.624252,169.383255 152.309311,169.943726 151.748825C170.504211 151.188354,170.819153 150.428207,170.819153 149.635513Z" style="fill: rgb(100.000000%,100.000000%,100.000000%);stroke: none;"></path>
  <path d="M180.193100 134.642349C178.234604 141.348419,174.428665 146.864288,167.830414 149.635513C163.547516 151.434311,158.846924 151.390991,154.188034 151.453415" style="stroke:rgb(0.000000%,0.000000%,0.000000%); stroke-width: 0.498138;stroke-linecap: round;stroke-linejoin: round;stroke-miterlimit: 10.000000;fill: none;"></path>
  <path d="M46.560135 79.919189C45.919769 69.038773,38.463013 60.231323,34.323898 50.313187" style="stroke:rgb(0.000000%,0.000000%,0.000000%); stroke-width: 0.498138;stroke-linecap: round;stroke-linejoin: round;stroke-miterlimit: 10.000000;fill: none;"></path>
  <path d="M38.014496 53.686752C36.741302 52.600266,35.501099 51.484116,34.323898 50.313187C34.328308 51.973557,34.415985 53.639755,34.547974 55.308304Z" style="stroke:rgb(0.000000%,0.000000%,0.000000%); stroke-width: 0.498138;fill: rgb(0.000000%,0.000000%,0.000000%);"></path>
  <path d="M46.560135 79.919189C45.919769 69.038773,38.463013 60.231323,34.323898 50.313187" style="stroke:rgb(0.000000%,0.000000%,0.000000%); stroke-width: 0.498138;stroke-linecap: round;stroke-linejoin: round;stroke-miterlimit: 10.000000;fill: none;"></path>
  <path d="M36.507721 52.370102C35.761368 51.700623,35.031250 51.016785,34.323898 50.313187C34.326538 51.310883,34.359238 52.310699,34.413574 53.311844Z" style="stroke:rgb(0.000000%,0.000000%,0.000000%); stroke-width: 0.498138;fill: rgb(0.000000%,0.000000%,0.000000%);"></path>
  <path d="M99.029648 62.599640C98.930008 68.826447,99.127426 75.079727,100.199707 81.195541" style="stroke:rgb(0.000000%,0.000000%,0.000000%); stroke-width: 0.498138;stroke-linecap: round;stroke-linejoin: round;stroke-miterlimit: 10.000000;fill: none;"></path>
  <path d="M98.646637 78.628662C99.146011 79.495224,99.663055 80.351379,100.199707 81.195541C100.417175 80.219177,100.656967 79.248184,100.916626 78.282318Z" style="stroke:rgb(0.000000%,0.000000%,0.000000%); stroke-width: 0.498138;fill: rgb(0.000000%,0.000000%,0.000000%);"></path>
  <path d="M101.427216 95.924881C100.111862 98.230072,97.657211 99.322083,95.108170 100.183105" style="stroke:rgb(0.000000%,0.000000%,0.000000%); stroke-width: 0.498138;stroke-linecap: round;stroke-linejoin: round;stroke-miterlimit: 10.000000;fill: none;"></path>
  <path d="M97.248810 98.081345C96.607803 98.825073,95.870422 99.516647,95.108170 100.183105C96.118408 100.250870,97.128830 100.283264,98.108002 100.210648Z" style="stroke:rgb(0.000000%,0.000000%,0.000000%); stroke-width: 0.498138;fill: rgb(0.000000%,0.000000%,0.000000%);"></path>
  <path d="M67.189804 48.448563C77.011307 45.434860,81.378098 35.020752,88.433075 27.962463" style="stroke:rgb(0.000000%,0.000000%,0.000000%); stroke-width: 0.498138;stroke-linecap: round;stroke-linejoin: round;stroke-miterlimit: 10.000000;fill: none;"></path>
  <path d="M87.392136 30.775909C87.709351 29.822006,88.052490 28.881943,88.433075 27.962463C87.513794 28.343491,86.606415 28.765579,85.707596 29.215790Z" style="stroke:rgb(0.000000%,0.000000%,0.000000%); stroke-width: 0.498138;fill: rgb(0.000000%,0.000000%,0.000000%);"></path>
  <path d="M150.666687 102.085464C148.001083 105.077225,145.165100 107.908798,142.345490 110.756042" style="stroke:rgb(0.000000%,0.000000%,0.000000%); stroke-width: 0.498138;stroke-linecap: round;stroke-linejoin: round;stroke-miterlimit: 10.000000;fill: none;"></path>
  <path d="M143.480225 107.978928C143.103149 108.905060,142.723648 109.830292,142.345490 110.756042C143.267502 110.368866,144.190094 109.982971,145.111603 109.594742Z" style="stroke:rgb(0.000000%,0.000000%,0.000000%); stroke-width: 0.498138;fill: rgb(0.000000%,0.000000%,0.000000%);"></path>
  <path d="M129.520966 120.574799C126.040405 121.452911,122.508224 120.704391,119.001404 119.869797" style="stroke:rgb(0.000000%,0.000000%,0.000000%); stroke-width: 0.498138;stroke-linecap: round;stroke-linejoin: round;stroke-miterlimit: 10.000000;fill: none;"></path>
  <path d="M121.954697 119.342728C120.980469 119.545303,119.991302 119.710999,119.001404 119.869797C119.813660 120.457489,120.630249 121.039780,121.462357 121.585434Z" style="stroke:rgb(0.000000%,0.000000%,0.000000%); stroke-width: 0.498138;fill: rgb(0.000000%,0.000000%,0.000000%);"></path>
  <path d="M90.104874 88.482712C91.875626 85.745377,95.227432 85.462173,98.634842 85.601761" style="stroke:rgb(0.000000%,0.000000%,0.000000%); stroke-width: 0.498138;stroke-linecap: round;stroke-linejoin: round;stroke-miterlimit: 10.000000;fill: none;"></path>
  <path d="M95.879730 86.788879C96.740143 86.337158,97.677979 85.952957,98.634842 85.601761C97.709900 85.173477,96.775085 84.781982,95.847290 84.492981Z" style="stroke:rgb(0.000000%,0.000000%,0.000000%); stroke-width: 0.498138;fill: rgb(0.000000%,0.000000%,0.000000%);"></path>
  <path d="M133.487213 103.671295C135.507736 105.960602,137.301041 108.433121,138.988846 110.977325" style="stroke:rgb(0.000000%,0.000000%,0.000000%); stroke-width: 0.498138;stroke-linecap: round;stroke-linejoin: round;stroke-miterlimit: 10.000000;fill: none;"></path>
  <path d="M136.474152 109.341415C137.321533 109.871780,138.158951 110.418839,138.988846 110.977325C138.796951 109.995590,138.591644 109.016617,138.367493 108.042404Z" style="stroke:rgb(0.000000%,0.000000%,0.000000%); stroke-width: 0.498138;fill: rgb(0.000000%,0.000000%,0.000000%);"></path>
  <path d="M156.958176 184.613113C147.557571 190.597076,135.792755 190.426926,126.735428 184.784210" style="stroke:rgb(0.000000%,0.000000%,0.000000%); stroke-width: 0.498138;stroke-linecap: round;stroke-linejoin: round;stroke-miterlimit: 10.000000;fill: none;"></path>
  <path d="M129.716888 185.116806C128.722214 185.059250,127.727020 184.948746,126.735428 184.784210C127.320221 185.601730,127.945786 186.383591,128.608429 187.127640Z" style="stroke:rgb(0.000000%,0.000000%,0.000000%); stroke-width: 0.498138;fill: rgb(0.000000%,0.000000%,0.000000%);"></path>
  <path d="M119.069534 106.185226C120.342300 103.154373,122.268829 100.485504,124.229233 97.843765" style="stroke:rgb(0.000000%,0.000000%,0.000000%); stroke-width: 0.498138;stroke-linecap: round;stroke-linejoin: round;stroke-miterlimit: 10.000000;fill: none;"></path>
  <path d="M123.530228 100.761261C123.746216 99.786301,123.985794 98.814468,124.229233 97.843765C123.370682 98.358017,122.514099 98.875778,121.671951 99.412445Z" style="stroke:rgb(0.000000%,0.000000%,0.000000%); stroke-width: 0.498138;fill: rgb(0.000000%,0.000000%,0.000000%);"></path>
  <path d="M140.795883 153.905624C132.838821 158.200470,130.456314 167.877335,125.170517 174.896500" style="stroke:rgb(0.000000%,0.000000%,0.000000%); stroke-width: 0.498138;stroke-linecap: round;stroke-linejoin: round;stroke-miterlimit: 10.000000;fill: none;"></path>
  <path d="M125.790405 171.961151C125.620651 172.952789,125.419296 173.933258,125.170517 174.896500C126.027542 174.391327,126.863235 173.840424,127.684479 173.259277Z" style="stroke:rgb(0.000000%,0.000000%,0.000000%); stroke-width: 0.498138;fill: rgb(0.000000%,0.000000%,0.000000%);"></path>
  <path d="M64.488281 174.071655L70.469574 174.071655L70.469574 166.651260L64.488281 166.651260Z" style="fill: rgb(100.000000%,100.000000%,100.000000%);stroke: none;"></path>
  <path d="M64.488281 176.071655L70.469574 176.071655L70.469574 168.651260L64.488281 168.651260Z" style="fill: rgb(100.000000%,100.000000%,100.000000%);stroke: none;"></path>
  <g transform="translate(64.988281 174.571655)" style="fill: rgb(0.000000%,0.000000%,0.000000%);">
    <use xlink:href="#GLYPHcmr10_49"></use>
  </g>
  <path d="M53.684189 8.795975L59.665482 8.795975L59.665482 1.375580L53.684189 1.375580Z" style="fill: rgb(100.000000%,100.000000%,100.000000%);stroke: none;"></path>
  <path d="M53.684189 10.795975L59.665482 10.795975L59.665482 3.375580L53.684189 3.375580Z" style="fill: rgb(100.000000%,100.000000%,100.000000%);stroke: none;"></path>
  <g transform="translate(54.184189 9.295975)" style="fill: rgb(0.000000%,0.000000%,0.000000%);">
    <use xlink:href="#GLYPHcmr10_50"></use>
  </g>
  <path d="M68.806198 113.073685L74.787491 113.073685L74.787491 105.653290L68.806198 105.653290Z" style="fill: rgb(100.000000%,100.000000%,100.000000%);stroke: none;"></path>
  <path d="M68.806198 115.073685L74.787491 115.073685L74.787491 107.653290L68.806198 107.653290Z" style="fill: rgb(100.000000%,100.000000%,100.000000%);stroke: none;"></path>
  <g transform="translate(69.306198 113.573685)" style="fill: rgb(0.000000%,0.000000%,0.000000%);">
    <use xlink:href="#GLYPHcmr10_51"></use>
  </g>
  <path d="M-0.046768 82.255997L5.934525 82.255997L5.934525 74.835602L-0.046768 74.835602Z" style="fill: rgb(100.000000%,100.000000%,100.000000%);stroke: none;"></path>
  <path d="M-0.046768 84.255997L5.934525 84.255997L5.934525 76.835602L-0.046768 76.835602Z" style="fill: rgb(100.000000%,100.000000%,100.000000%);stroke: none;"></path>
  <g transform="translate(0.453232 82.755997)" style="fill: rgb(0.000000%,0.000000%,0.000000%);">
    <use xlink:href="#GLYPHcmr10_52"></use>
  </g>
  <path d="M135.690399 40.959396L141.671692 40.959396L141.671692 33.539001L135.690399 33.539001Z" style="fill: rgb(100.000000%,100.000000%,100.000000%);stroke: none;"></path>
  <path d="M135.690399 42.959396L141.671692 42.959396L141.671692 35.539001L135.690399 35.539001Z" style="fill: rgb(100.000000%,100.000000%,100.000000%);stroke: none;"></path>
  <g transform="translate(136.190399 41.459396)" style="fill: rgb(0.000000%,0.000000%,0.000000%);">
    <use xlink:href="#GLYPHcmr10_53"></use>
  </g>
  <path d="M98.799393 116.911819L104.780685 116.911819L104.780685 109.491425L98.799393 109.491425Z" style="fill: rgb(100.000000%,100.000000%,100.000000%);stroke: none;"></path>
  <path d="M98.799393 118.911819L104.780685 118.911819L104.780685 111.491425L98.799393 111.491425Z" style="fill: rgb(100.000000%,100.000000%,100.000000%);stroke: none;"></path>
  <g transform="translate(99.299393 117.411819)" style="fill: rgb(0.000000%,0.000000%,0.000000%);">
    <use xlink:href="#GLYPHcmr10_54"></use>
  </g>
  <path d="M111.641006 89.967941L117.622299 89.967941L117.622299 82.547546L111.641006 82.547546Z" style="fill: rgb(100.000000%,100.000000%,100.000000%);stroke: none;"></path>
  <path d="M111.641006 91.967941L117.622299 91.967941L117.622299 84.547546L111.641006 84.547546Z" style="fill: rgb(100.000000%,100.000000%,100.000000%);stroke: none;"></path>
  <g transform="translate(112.141006 90.467941)" style="fill: rgb(0.000000%,0.000000%,0.000000%);">
    <use xlink:href="#GLYPHcmr10_55"></use>
  </g>
  <path d="M146.967712 130.198166L152.949005 130.198166L152.949005 122.777771L146.967712 122.777771Z" style="fill: rgb(100.000000%,100.000000%,100.000000%);stroke: none;"></path>
  <path d="M146.967712 132.198166L152.949005 132.198166L152.949005 124.777771L146.967712 124.777771Z" style="fill: rgb(100.000000%,100.000000%,100.000000%);stroke: none;"></path>
  <g transform="translate(147.467712 130.698166)" style="fill: rgb(0.000000%,0.000000%,0.000000%);">
    <use xlink:href="#GLYPHcmr10_56"></use>
  </g>
  <path d="M110.029282 144.977280L116.010574 144.977280L116.010574 137.556885L110.029282 137.556885Z" style="fill: rgb(100.000000%,100.000000%,100.000000%);stroke: none;"></path>
  <path d="M110.029282 146.977280L116.010574 146.977280L116.010574 139.556885L110.029282 139.556885Z" style="fill: rgb(100.000000%,100.000000%,100.000000%);stroke: none;"></path>
  <g transform="translate(110.529282 145.477280)" style="fill: rgb(0.000000%,0.000000%,0.000000%);">
    <use xlink:href="#GLYPHcmr10_57"></use>
  </g>
  <path d="M130.784393 85.512924L141.747101 85.512924L141.747101 78.092529L130.784393 78.092529Z" style="fill: rgb(100.000000%,100.000000%,100.000000%);stroke: none;"></path>
  <path d="M130.784393 87.512924L141.747101 87.512924L141.747101 80.092529L130.784393 80.092529Z" style="fill: rgb(100.000000%,100.000000%,100.000000%);stroke: none;"></path>
  <g transform="translate(131.284393 86.012924)" style="fill: rgb(0.000000%,0.000000%,0.000000%);">
    <use xlink:href="#GLYPHcmr10_49"></use>
    <use xlink:href="#GLYPHcmr10_48" x="5.000095"></use>
  </g>
  <path d="M175.989868 115.218201L186.952576 115.218201L186.952576 107.797806L175.989868 107.797806Z" style="fill: rgb(100.000000%,100.000000%,100.000000%);stroke: none;"></path>
  <path d="M175.989868 117.218201L186.952576 117.218201L186.952576 109.797806L175.989868 109.797806Z" style="fill: rgb(100.000000%,100.000000%,100.000000%);stroke: none;"></path>
  <g transform="translate(176.489868 115.718201)" style="fill: rgb(0.000000%,0.000000%,0.000000%);">
    <use xlink:href="#GLYPHcmr10_49"></use>
    <use xlink:href="#GLYPHcmr10_49" x="5.000095"></use>
  </g>
</svg>
