<?xml version="1.0"?>
<!-- Created by MetaPost 1.999 on 2021.07.06:0014 -->
<svg version="1.1" xmlns="http://www.w3.org/2000/svg" xmlns:xlink="http://www.w3.org/1999/xlink" width="198.689041" height="199.203644" viewBox="0 0 198.689041 199.203644">
<!-- Original BoundingBox: -69.818451 -122.864960 128.870590 76.338684 -->
  <defs>
    <g transform="scale(0.009963,0.009963)" id="GLYPHcmr10_48">
      <path style="fill-rule: evenodd;" d="M460.000000 -320.000000C460.000000 -400.000000,455.000000 -480.000000,420.000000 -554.000000C374.000000 -650.000000,292.000000 -666.000000,250.000000 -666.000000C190.000000 -666.000000,117.000000 -640.000000,76.000000 -547.000000C44.000000 -478.000000,39.000000 -400.000000,39.000000 -320.000000C39.000000 -245.000000,43.000000 -155.000000,84.000000 -79.000000C127.000000 2.000000,200.000000 22.000000,249.000000 22.000000C303.000000 22.000000,379.000000 1.000000,423.000000 -94.000000C455.000000 -163.000000,460.000000 -241.000000,460.000000 -320.000000M249.000000 -0.000000C210.000000 -0.000000,151.000000 -25.000000,133.000000 -121.000000C122.000000 -181.000000,122.000000 -273.000000,122.000000 -332.000000C122.000000 -396.000000,122.000000 -462.000000,130.000000 -516.000000C149.000000 -635.000000,224.000000 -644.000000,249.000000 -644.000000C282.000000 -644.000000,348.000000 -626.000000,367.000000 -527.000000C377.000000 -471.000000,377.000000 -395.000000,377.000000 -332.000000C377.000000 -257.000000,377.000000 -189.000000,366.000000 -125.000000C351.000000 -30.000000,294.000000 -0.000000,249.000000 -0.000000"></path>
    </g>
    <g transform="scale(0.009963,0.009963)" id="GLYPHcmr10_49">
      <path style="fill-rule: evenodd;" d="M294.000000 -640.000000C294.000000 -664.000000,294.000000 -666.000000,271.000000 -666.000000C209.000000 -602.000000,121.000000 -602.000000,89.000000 -602.000000L89.000000 -571.000000C109.000000 -571.000000,168.000000 -571.000000,220.000000 -597.000000L220.000000 -79.000000C220.000000 -43.000000,217.000000 -31.000000,127.000000 -31.000000L95.000000 -31.000000L95.000000 -0.000000L257.000000 -0.000000L130.000000 -3.000000L217.000000 -3.000000L257.000000 -3.000000L297.000000 -3.000000L384.000000 -3.000000L419.000000 -0.000000L419.000000 -31.000000L387.000000 -31.000000C297.000000 -31.000000,294.000000 -42.000000,294.000000 -79.000000"></path>
    </g>
    <g transform="scale(0.009963,0.009963)" id="GLYPHcmr10_50">
      <path style="fill-rule: evenodd;" d="M127.000000 -77.000000L233.000000 -180.000000C389.000000 -318.000000,449.000000 -372.000000,449.000000 -472.000000C449.000000 -586.000000,359.000000 -666.000000,237.000000 -666.000000C124.000000 -666.000000,50.000000 -574.000000,50.000000 -485.000000C50.000000 -429.000000,100.000000 -429.000000,103.000000 -429.000000C120.000000 -429.000000,155.000000 -441.000000,155.000000 -482.000000C155.000000 -508.000000,137.000000 -534.000000,102.000000 -534.000000C94.000000 -534.000000,92.000000 -534.000000,89.000000 -533.000000C112.000000 -598.000000,166.000000 -635.000000,224.000000 -635.000000C315.000000 -635.000000,358.000000 -554.000000,358.000000 -472.000000C358.000000 -392.000000,308.000000 -313.000000,253.000000 -251.000000L61.000000 -37.000000C50.000000 -26.000000,50.000000 -24.000000,50.000000 -0.000000L421.000000 -0.000000L449.000000 -174.000000L424.000000 -174.000000C419.000000 -144.000000,412.000000 -100.000000,402.000000 -85.000000C395.000000 -77.000000,329.000000 -77.000000,307.000000 -77.000000"></path>
    </g>
    <g transform="scale(0.009963,0.009963)" id="GLYPHcmr10_51">
      <path style="fill-rule: evenodd;" d="M290.000000 -352.000000C372.000000 -379.000000,430.000000 -449.000000,430.000000 -528.000000C430.000000 -610.000000,342.000000 -666.000000,246.000000 -666.000000C145.000000 -666.000000,69.000000 -606.000000,69.000000 -530.000000C69.000000 -497.000000,91.000000 -478.000000,120.000000 -478.000000C151.000000 -478.000000,171.000000 -500.000000,171.000000 -529.000000C171.000000 -579.000000,124.000000 -579.000000,109.000000 -579.000000C140.000000 -628.000000,206.000000 -641.000000,242.000000 -641.000000C283.000000 -641.000000,338.000000 -619.000000,338.000000 -529.000000C338.000000 -517.000000,336.000000 -459.000000,310.000000 -415.000000C280.000000 -367.000000,246.000000 -364.000000,221.000000 -363.000000C213.000000 -362.000000,189.000000 -360.000000,182.000000 -360.000000C174.000000 -359.000000,167.000000 -358.000000,167.000000 -348.000000C167.000000 -337.000000,174.000000 -337.000000,191.000000 -337.000000L235.000000 -337.000000C317.000000 -337.000000,354.000000 -269.000000,354.000000 -171.000000C354.000000 -35.000000,285.000000 -6.000000,241.000000 -6.000000C198.000000 -6.000000,123.000000 -23.000000,88.000000 -82.000000C123.000000 -77.000000,154.000000 -99.000000,154.000000 -137.000000C154.000000 -173.000000,127.000000 -193.000000,98.000000 -193.000000C74.000000 -193.000000,42.000000 -179.000000,42.000000 -135.000000C42.000000 -44.000000,135.000000 22.000000,244.000000 22.000000C366.000000 22.000000,457.000000 -69.000000,457.000000 -171.000000C457.000000 -253.000000,394.000000 -331.000000,290.000000 -352.000000"></path>
    </g>
    <g transform="scale(0.009963,0.009963)" id="GLYPHcmr10_52">
      <path style="fill-rule: evenodd;" d="M294.000000 -165.000000L294.000000 -78.000000C294.000000 -42.000000,292.000000 -31.000000,218.000000 -31.000000L197.000000 -31.000000L197.000000 -0.000000L332.000000 -0.000000L238.000000 -3.000000L290.000000 -3.000000L332.000000 -3.000000L374.000000 -3.000000L427.000000 -3.000000L468.000000 -0.000000L468.000000 -31.000000L447.000000 -31.000000C373.000000 -31.000000,371.000000 -42.000000,371.000000 -78.000000L371.000000 -165.000000L471.000000 -165.000000L471.000000 -196.000000L371.000000 -196.000000L371.000000 -651.000000C371.000000 -671.000000,371.000000 -677.000000,355.000000 -677.000000C346.000000 -677.000000,343.000000 -677.000000,335.000000 -665.000000L28.000000 -196.000000L28.000000 -165.000000M300.000000 -196.000000L56.000000 -196.000000L300.000000 -569.000000"></path>
    </g>
    <g transform="scale(0.009963,0.009963)" id="GLYPHcmr10_53">
      <path style="fill-rule: evenodd;" d="M449.000000 -201.000000C449.000000 -320.000000,367.000000 -420.000000,259.000000 -420.000000C211.000000 -420.000000,168.000000 -404.000000,132.000000 -369.000000L132.000000 -564.000000C152.000000 -558.000000,185.000000 -551.000000,217.000000 -551.000000C340.000000 -551.000000,410.000000 -642.000000,410.000000 -655.000000C410.000000 -661.000000,407.000000 -666.000000,400.000000 -666.000000C399.000000 -666.000000,397.000000 -666.000000,392.000000 -663.000000C372.000000 -654.000000,323.000000 -634.000000,256.000000 -634.000000C216.000000 -634.000000,170.000000 -641.000000,123.000000 -662.000000C115.000000 -665.000000,113.000000 -665.000000,111.000000 -665.000000C101.000000 -665.000000,101.000000 -657.000000,101.000000 -641.000000L101.000000 -345.000000C101.000000 -327.000000,101.000000 -319.000000,115.000000 -319.000000C122.000000 -319.000000,124.000000 -322.000000,128.000000 -328.000000C139.000000 -344.000000,176.000000 -398.000000,257.000000 -398.000000C309.000000 -398.000000,334.000000 -352.000000,342.000000 -334.000000C358.000000 -297.000000,360.000000 -258.000000,360.000000 -208.000000C360.000000 -173.000000,360.000000 -113.000000,336.000000 -71.000000C312.000000 -32.000000,275.000000 -6.000000,229.000000 -6.000000C156.000000 -6.000000,99.000000 -59.000000,82.000000 -118.000000C85.000000 -117.000000,88.000000 -116.000000,99.000000 -116.000000C132.000000 -116.000000,149.000000 -141.000000,149.000000 -165.000000C149.000000 -189.000000,132.000000 -214.000000,99.000000 -214.000000C85.000000 -214.000000,50.000000 -207.000000,50.000000 -161.000000C50.000000 -75.000000,119.000000 22.000000,231.000000 22.000000C347.000000 22.000000,449.000000 -74.000000,449.000000 -201.000000"></path>
    </g>
    <g transform="scale(0.009963,0.009963)" id="GLYPHcmr10_54">
      <path style="fill-rule: evenodd;" d="M132.000000 -328.000000L132.000000 -352.000000C132.000000 -605.000000,256.000000 -641.000000,307.000000 -641.000000C331.000000 -641.000000,373.000000 -635.000000,395.000000 -601.000000C380.000000 -601.000000,340.000000 -601.000000,340.000000 -556.000000C340.000000 -525.000000,364.000000 -510.000000,386.000000 -510.000000C402.000000 -510.000000,432.000000 -519.000000,432.000000 -558.000000C432.000000 -618.000000,388.000000 -666.000000,305.000000 -666.000000C177.000000 -666.000000,42.000000 -537.000000,42.000000 -316.000000C42.000000 -49.000000,158.000000 22.000000,251.000000 22.000000C362.000000 22.000000,457.000000 -72.000000,457.000000 -204.000000C457.000000 -331.000000,368.000000 -427.000000,257.000000 -427.000000C189.000000 -427.000000,152.000000 -376.000000,132.000000 -328.000000M251.000000 -6.000000C188.000000 -6.000000,158.000000 -66.000000,152.000000 -81.000000C134.000000 -128.000000,134.000000 -208.000000,134.000000 -226.000000C134.000000 -304.000000,166.000000 -404.000000,256.000000 -404.000000C272.000000 -404.000000,318.000000 -404.000000,349.000000 -342.000000C367.000000 -305.000000,367.000000 -254.000000,367.000000 -205.000000C367.000000 -157.000000,367.000000 -107.000000,350.000000 -71.000000C320.000000 -11.000000,274.000000 -6.000000,251.000000 -6.000000"></path>
    </g>
    <g transform="scale(0.009963,0.009963)" id="GLYPHcmr10_55">
      <path style="fill-rule: evenodd;" d="M476.000000 -609.000000C485.000000 -621.000000,485.000000 -623.000000,485.000000 -644.000000L242.000000 -644.000000C120.000000 -644.000000,118.000000 -657.000000,114.000000 -676.000000L89.000000 -676.000000L56.000000 -470.000000L81.000000 -470.000000C84.000000 -486.000000,93.000000 -549.000000,106.000000 -561.000000C113.000000 -567.000000,191.000000 -567.000000,204.000000 -567.000000L411.000000 -567.000000C400.000000 -551.000000,321.000000 -442.000000,299.000000 -409.000000C209.000000 -274.000000,176.000000 -135.000000,176.000000 -33.000000C176.000000 -23.000000,176.000000 22.000000,222.000000 22.000000C268.000000 22.000000,268.000000 -23.000000,268.000000 -33.000000L268.000000 -84.000000C268.000000 -139.000000,271.000000 -194.000000,279.000000 -248.000000C283.000000 -271.000000,297.000000 -357.000000,341.000000 -419.000000"></path>
    </g>
    <g transform="scale(0.009963,0.009963)" id="GLYPHcmr10_56">
      <path style="fill-rule: evenodd;" d="M163.000000 -457.000000C117.000000 -487.000000,113.000000 -521.000000,113.000000 -538.000000C113.000000 -599.000000,178.000000 -641.000000,249.000000 -641.000000C322.000000 -641.000000,386.000000 -589.000000,386.000000 -517.000000C386.000000 -460.000000,347.000000 -412.000000,287.000000 -377.000000M309.000000 -362.000000C381.000000 -399.000000,430.000000 -451.000000,430.000000 -517.000000C430.000000 -609.000000,341.000000 -666.000000,250.000000 -666.000000C150.000000 -666.000000,69.000000 -592.000000,69.000000 -499.000000C69.000000 -481.000000,71.000000 -436.000000,113.000000 -389.000000C124.000000 -377.000000,161.000000 -352.000000,186.000000 -335.000000C128.000000 -306.000000,42.000000 -250.000000,42.000000 -151.000000C42.000000 -45.000000,144.000000 22.000000,249.000000 22.000000C362.000000 22.000000,457.000000 -61.000000,457.000000 -168.000000C457.000000 -204.000000,446.000000 -249.000000,408.000000 -291.000000C389.000000 -312.000000,373.000000 -322.000000,309.000000 -362.000000M209.000000 -320.000000L332.000000 -242.000000C360.000000 -223.000000,407.000000 -193.000000,407.000000 -132.000000C407.000000 -58.000000,332.000000 -6.000000,250.000000 -6.000000C164.000000 -6.000000,92.000000 -68.000000,92.000000 -151.000000C92.000000 -209.000000,124.000000 -273.000000,209.000000 -320.000000"></path>
    </g>
    <g transform="scale(0.009963,0.009963)" id="GLYPHcmr10_57">
      <path style="fill-rule: evenodd;" d="M367.000000 -318.000000L367.000000 -286.000000C367.000000 -52.000000,263.000000 -6.000000,205.000000 -6.000000C188.000000 -6.000000,134.000000 -8.000000,107.000000 -42.000000C151.000000 -42.000000,159.000000 -71.000000,159.000000 -88.000000C159.000000 -119.000000,135.000000 -134.000000,113.000000 -134.000000C97.000000 -134.000000,67.000000 -125.000000,67.000000 -86.000000C67.000000 -19.000000,121.000000 22.000000,206.000000 22.000000C335.000000 22.000000,457.000000 -114.000000,457.000000 -329.000000C457.000000 -598.000000,342.000000 -666.000000,253.000000 -666.000000C198.000000 -666.000000,149.000000 -648.000000,106.000000 -603.000000C65.000000 -558.000000,42.000000 -516.000000,42.000000 -441.000000C42.000000 -316.000000,130.000000 -218.000000,242.000000 -218.000000C303.000000 -218.000000,344.000000 -260.000000,367.000000 -318.000000M243.000000 -241.000000C227.000000 -241.000000,181.000000 -241.000000,150.000000 -304.000000C132.000000 -341.000000,132.000000 -391.000000,132.000000 -440.000000C132.000000 -494.000000,132.000000 -541.000000,153.000000 -578.000000C180.000000 -628.000000,218.000000 -641.000000,253.000000 -641.000000C299.000000 -641.000000,332.000000 -607.000000,349.000000 -562.000000C361.000000 -530.000000,365.000000 -467.000000,365.000000 -421.000000C365.000000 -338.000000,331.000000 -241.000000,243.000000 -241.000000"></path>
    </g>
  </defs>
  <path d="M74.970963 86.188858C74.970963 85.396164,74.656021 84.636017,74.095535 84.075546C73.535065 83.515060,72.774918 83.200119,71.982224 83.200119C71.189529 83.200119,70.429382 83.515060,69.868912 84.075546C69.308426 84.636017,68.993484 85.396164,68.993484 86.188858C68.993484 86.981552,69.308426 87.741699,69.868912 88.302170C70.429382 88.862656,71.189529 89.177597,71.982224 89.177597C72.774918 89.177597,73.535065 88.862656,74.095535 88.302170C74.656021 87.741699,74.970963 86.981552,74.970963 86.188858Z" style="fill: rgb(100.000000%,100.000000%,100.000000%);stroke: none;"></path>
  <path d="M76.821930 91.163864C76.821930 90.371170,76.506989 89.611023,75.946503 89.050552C75.386032 88.490067,74.625885 88.175125,73.833191 88.175125C73.040497 88.175125,72.280350 88.490067,71.719879 89.050552C71.159393 89.611023,70.844452 90.371170,70.844452 91.163864C70.844452 91.956558,71.159393 92.716705,71.719879 93.277176C72.280350 93.837662,73.040497 94.152603,73.833191 94.152603C74.625885 94.152603,75.386032 93.837662,75.946503 93.277176C76.506989 92.716705,76.821930 91.956558,76.821930 91.163864Z" style="fill: rgb(100.000000%,100.000000%,100.000000%);stroke: none;"></path>
  <path d="M70.344696 69.842621C70.344696 69.049927,70.029755 68.289780,69.469269 67.729309C68.908798 67.168823,68.148651 66.853882,67.355957 66.853882C66.563263 66.853882,65.803116 67.168823,65.242645 67.729309C64.682159 68.289780,64.367218 69.049927,64.367218 69.842621C64.367218 70.635315,64.682159 71.395462,65.242645 71.955933C65.803116 72.516418,66.563263 72.831360,67.355957 72.831360C68.148651 72.831360,68.908798 72.516418,69.469269 71.955933C70.029755 71.395462,70.344696 70.635315,70.344696 69.842621Z" style="fill: rgb(100.000000%,100.000000%,100.000000%);stroke: none;"></path>
  <path d="M73.358078 81.128510C73.358078 80.335815,73.043137 79.575668,72.482651 79.015198C71.922180 78.454712,71.162033 78.139771,70.369339 78.139771C69.576645 78.139771,68.816498 78.454712,68.256027 79.015198C67.695541 79.575668,67.380600 80.335815,67.380600 81.128510C67.380600 81.921204,67.695541 82.681351,68.256027 83.241821C68.816498 83.802307,69.576645 84.117249,70.369339 84.117249C71.162033 84.117249,71.922180 83.802307,72.482651 83.241821C73.043137 82.681351,73.358078 81.921204,73.358078 81.128510Z" style="fill: rgb(100.000000%,100.000000%,100.000000%);stroke: none;"></path>
  <path d="M66.188889 45.326477C66.188889 44.533783,65.873947 43.773636,65.313461 43.213165C64.752991 42.652679,63.992844 42.337738,63.200150 42.337738C62.407455 42.337738,61.647308 42.652679,61.086838 43.213165C60.526352 43.773636,60.211411 44.533783,60.211411 45.326477C60.211411 46.119171,60.526352 46.879318,61.086838 47.439789C61.647308 48.000275,62.407455 48.315216,63.200150 48.315216C63.992844 48.315216,64.752991 48.000275,65.313461 47.439789C65.873947 46.879318,66.188889 46.119171,66.188889 45.326477Z" style="fill: rgb(100.000000%,100.000000%,100.000000%);stroke: none;"></path>
  <path d="M69.054337 63.597061C69.054337 62.804367,68.739395 62.044220,68.178909 61.483749C67.618439 60.923264,66.858292 60.608322,66.065598 60.608322C65.272903 60.608322,64.512756 60.923264,63.952286 61.483749C63.391800 62.044220,63.076859 62.804367,63.076859 63.597061C63.076859 64.389755,63.391800 65.149902,63.952286 65.710373C64.512756 66.270859,65.272903 66.585800,66.065598 66.585800C66.858292 66.585800,67.618439 66.270859,68.178909 65.710373C68.739395 65.149902,69.054337 64.389755,69.054337 63.597061Z" style="fill: rgb(100.000000%,100.000000%,100.000000%);stroke: none;"></path>
  <path d="M83.452133 4.031357C83.452133 3.238663,83.137192 2.478516,82.576706 1.918045C82.016235 1.357559,81.256088 1.042618,80.463394 1.042618C79.670700 1.042618,78.910553 1.357559,78.350082 1.918045C77.789597 2.478516,77.474655 3.238663,77.474655 4.031357C77.474655 4.824051,77.789597 5.584198,78.350082 6.144669C78.910553 6.705154,79.670700 7.020096,80.463394 7.020096C81.256088 7.020096,82.016235 6.705154,82.576706 6.144669C83.137192 5.584198,83.452133 4.824051,83.452133 4.031357Z" style="fill: rgb(100.000000%,100.000000%,100.000000%);stroke: none;"></path>
  <path d="M65.575912 32.660446C65.575912 31.867752,65.260971 31.107605,64.700485 30.547134C64.140015 29.986649,63.379868 29.671707,62.587173 29.671707C61.794479 29.671707,61.034332 29.986649,60.473862 30.547134C59.913376 31.107605,59.598434 31.867752,59.598434 32.660446C59.598434 33.453140,59.913376 34.213287,60.473862 34.773758C61.034332 35.334244,61.794479 35.649185,62.587173 35.649185C63.379868 35.649185,64.140015 35.334244,64.700485 34.773758C65.260971 34.213287,65.575912 33.453140,65.575912 32.660446Z" style="fill: rgb(100.000000%,100.000000%,100.000000%);stroke: none;"></path>
  <path d="M149.814468 14.358749C149.814468 13.566055,149.499527 12.805908,148.939041 12.245438C148.378571 11.684952,147.618423 11.370010,146.825729 11.370010C146.033035 11.370010,145.272888 11.684952,144.712418 12.245438C144.151932 12.805908,143.836990 13.566055,143.836990 14.358749C143.836990 15.151443,144.151932 15.911591,144.712418 16.472061C145.272888 17.032547,146.033035 17.347488,146.825729 17.347488C147.618423 17.347488,148.378571 17.032547,148.939041 16.472061C149.499527 15.911591,149.814468 15.151443,149.814468 14.358749Z" style="fill: rgb(100.000000%,100.000000%,100.000000%);stroke: none;"></path>
  <path d="M108.193283 2.650055C108.193283 1.857361,107.878342 1.097214,107.317856 0.536743C106.757385 -0.023743,105.997238 -0.338684,105.204544 -0.338684C104.411850 -0.338684,103.651703 -0.023743,103.091232 0.536743C102.530746 1.097214,102.215805 1.857361,102.215805 2.650055C102.215805 3.442749,102.530746 4.202896,103.091232 4.763367C103.651703 5.323853,104.411850 5.638794,105.204544 5.638794C105.997238 5.638794,106.757385 5.323853,107.317856 4.763367C107.878342 4.202896,108.193283 3.442749,108.193283 2.650055Z" style="fill: rgb(100.000000%,100.000000%,100.000000%);stroke: none;"></path>
  <path d="M171.396759 57.721100C171.396759 56.928406,171.081818 56.168259,170.521332 55.607788C169.960861 55.047302,169.200714 54.732361,168.408020 54.732361C167.615326 54.732361,166.855179 55.047302,166.294708 55.607788C165.734222 56.168259,165.419281 56.928406,165.419281 57.721100C165.419281 58.513794,165.734222 59.273941,166.294708 59.834412C166.855179 60.394897,167.615326 60.709839,168.408020 60.709839C169.200714 60.709839,169.960861 60.394897,170.521332 59.834412C171.081818 59.273941,171.396759 58.513794,171.396759 57.721100Z" style="fill: rgb(100.000000%,100.000000%,100.000000%);stroke: none;"></path>
  <path d="M168.630814 26.374115C168.630814 25.581421,168.315872 24.821274,167.755386 24.260803C167.194916 23.700317,166.434769 23.385376,165.642075 23.385376C164.849380 23.385376,164.089233 23.700317,163.528763 24.260803C162.968277 24.821274,162.653336 25.581421,162.653336 26.374115C162.653336 27.166809,162.968277 27.926956,163.528763 28.487427C164.089233 29.047913,164.849380 29.362854,165.642075 29.362854C166.434769 29.362854,167.194916 29.047913,167.755386 28.487427C168.315872 27.926956,168.630814 27.166809,168.630814 26.374115Z" style="fill: rgb(100.000000%,100.000000%,100.000000%);stroke: none;"></path>
  <path d="M148.293411 71.921005C148.293411 71.128311,147.978470 70.368164,147.417984 69.807693C146.857513 69.247208,146.097366 68.932266,145.304672 68.932266C144.511978 68.932266,143.751831 69.247208,143.191360 69.807693C142.630875 70.368164,142.315933 71.128311,142.315933 71.921005C142.315933 72.713699,142.630875 73.473846,143.191360 74.034317C143.751831 74.594803,144.511978 74.909744,145.304672 74.909744C146.097366 74.909744,146.857513 74.594803,147.417984 74.034317C147.978470 73.473846,148.293411 72.713699,148.293411 71.921005Z" style="fill: rgb(100.000000%,100.000000%,100.000000%);stroke: none;"></path>
  <path d="M164.896210 68.962875C164.896210 68.170181,164.581268 67.410034,164.020782 66.849564C163.460312 66.289078,162.700165 65.974136,161.907471 65.974136C161.114777 65.974136,160.354630 66.289078,159.794159 66.849564C159.233673 67.410034,158.918732 68.170181,158.918732 68.962875C158.918732 69.755569,159.233673 70.515717,159.794159 71.076187C160.354630 71.636673,161.114777 71.951614,161.907471 71.951614C162.700165 71.951614,163.460312 71.636673,164.020782 71.076187C164.581268 70.515717,164.896210 69.755569,164.896210 68.962875Z" style="fill: rgb(100.000000%,100.000000%,100.000000%);stroke: none;"></path>
  <path d="M131.857864 67.272156C131.857864 66.479462,131.542923 65.719315,130.982437 65.158844C130.421967 64.598358,129.661819 64.283417,128.869125 64.283417C128.076431 64.283417,127.316284 64.598358,126.755814 65.158844C126.195328 65.719315,125.880386 66.479462,125.880386 67.272156C125.880386 68.064850,126.195328 68.824997,126.755814 69.385468C127.316284 69.945953,128.076431 70.260895,128.869125 70.260895C129.661819 70.260895,130.421967 69.945953,130.982437 69.385468C131.542923 68.824997,131.857864 68.064850,131.857864 67.272156Z" style="fill: rgb(100.000000%,100.000000%,100.000000%);stroke: none;"></path>
  <path d="M142.819702 70.011154C142.819702 69.218460,142.504761 68.458313,141.944275 67.897842C141.383804 67.337357,140.623657 67.022415,139.830963 67.022415C139.038269 67.022415,138.278122 67.337357,137.717651 67.897842C137.157166 68.458313,136.842224 69.218460,136.842224 70.011154C136.842224 70.803848,137.157166 71.563995,137.717651 72.124466C138.278122 72.684952,139.038269 72.999893,139.830963 72.999893C140.623657 72.999893,141.383804 72.684952,141.944275 72.124466C142.504761 71.563995,142.819702 70.803848,142.819702 70.011154Z" style="fill: rgb(100.000000%,100.000000%,100.000000%);stroke: none;"></path>
  <path d="M114.737244 66.517899C114.737244 65.725204,114.422302 64.965057,113.861816 64.404587C113.301346 63.844101,112.541199 63.529160,111.748505 63.529160C110.955811 63.529160,110.195663 63.844101,109.635193 64.404587C109.074707 64.965057,108.759766 65.725204,108.759766 66.517899C108.759766 67.310593,109.074707 68.070740,109.635193 68.631210C110.195663 69.191696,110.955811 69.506638,111.748505 69.506638C112.541199 69.506638,113.301346 69.191696,113.861816 68.631210C114.422302 68.070740,114.737244 67.310593,114.737244 66.517899Z" style="fill: rgb(100.000000%,100.000000%,100.000000%);stroke: none;"></path>
  <path d="M126.190277 66.464386C126.190277 65.671692,125.875336 64.911545,125.314850 64.351074C124.754379 63.790588,123.994232 63.475647,123.201538 63.475647C122.408844 63.475647,121.648697 63.790588,121.088226 64.351074C120.527740 64.911545,120.212799 65.671692,120.212799 66.464386C120.212799 67.257080,120.527740 68.017227,121.088226 68.577698C121.648697 69.138184,122.408844 69.453125,123.201538 69.453125C123.994232 69.453125,124.754379 69.138184,125.314850 68.577698C125.875336 68.017227,126.190277 67.257080,126.190277 66.464386Z" style="fill: rgb(100.000000%,100.000000%,100.000000%);stroke: none;"></path>
  <path d="M98.285385 70.023514C98.285385 69.230820,97.970444 68.470673,97.409958 67.910202C96.849487 67.349716,96.089340 67.034775,95.296646 67.034775C94.503952 67.034775,93.743805 67.349716,93.183334 67.910202C92.622849 68.470673,92.307907 69.230820,92.307907 70.023514C92.307907 70.816208,92.622849 71.576355,93.183334 72.136826C93.743805 72.697311,94.503952 73.012253,95.296646 73.012253C96.089340 73.012253,96.849487 72.697311,97.409958 72.136826C97.970444 71.576355,98.285385 70.816208,98.285385 70.023514Z" style="fill: rgb(100.000000%,100.000000%,100.000000%);stroke: none;"></path>
  <path d="M109.032806 67.392685C109.032806 66.599991,108.717865 65.839844,108.157379 65.279373C107.596909 64.718887,106.836761 64.403946,106.044067 64.403946C105.251373 64.403946,104.491226 64.718887,103.930756 65.279373C103.370270 65.839844,103.055328 66.599991,103.055328 67.392685C103.055328 68.185379,103.370270 68.945526,103.930756 69.505997C104.491226 70.066483,105.251373 70.381424,106.044067 70.381424C106.836761 70.381424,107.596909 70.066483,108.157379 69.505997C108.717865 68.945526,109.032806 68.185379,109.032806 67.392685Z" style="fill: rgb(100.000000%,100.000000%,100.000000%);stroke: none;"></path>
  <path d="M82.744873 74.159119C82.744873 73.366425,82.429932 72.606277,81.869446 72.045807C81.308975 71.485321,80.548828 71.170380,79.756134 71.170380C78.963440 71.170380,78.203293 71.485321,77.642822 72.045807C77.082336 72.606277,76.767395 73.366425,76.767395 74.159119C76.767395 74.951813,77.082336 75.711960,77.642822 76.272430C78.203293 76.832916,78.963440 77.147858,79.756134 77.147858C80.548828 77.147858,81.308975 76.832916,81.869446 76.272430C82.429932 75.711960,82.744873 74.951813,82.744873 74.159119Z" style="fill: rgb(100.000000%,100.000000%,100.000000%);stroke: none;"></path>
  <path d="M93.232468 71.705490C93.232468 70.912796,92.917526 70.152649,92.357040 69.592178C91.796570 69.031693,91.036423 68.716751,90.243729 68.716751C89.451035 68.716751,88.690887 69.031693,88.130417 69.592178C87.569931 70.152649,87.254990 70.912796,87.254990 71.705490C87.254990 72.498184,87.569931 73.258331,88.130417 73.818802C88.690887 74.379288,89.451035 74.694229,90.243729 74.694229C91.036423 74.694229,91.796570 74.379288,92.357040 73.818802C92.917526 73.258331,93.232468 72.498184,93.232468 71.705490Z" style="fill: rgb(100.000000%,100.000000%,100.000000%);stroke: none;"></path>
  <path d="M65.291260 77.379761C65.291260 76.587067,64.976318 75.826920,64.415833 75.266449C63.855362 74.705963,63.095215 74.391022,62.302521 74.391022C61.509827 74.391022,60.749680 74.705963,60.189209 75.266449C59.628723 75.826920,59.313782 76.587067,59.313782 77.379761C59.313782 78.172455,59.628723 78.932602,60.189209 79.493073C60.749680 80.053558,61.509827 80.368500,62.302521 80.368500C63.095215 80.368500,63.855362 80.053558,64.415833 79.493073C64.976318 78.932602,65.291260 78.172455,65.291260 77.379761Z" style="fill: rgb(100.000000%,100.000000%,100.000000%);stroke: none;"></path>
  <path d="M77.331238 74.899384C77.331238 74.106689,77.016296 73.346542,76.455811 72.786072C75.895340 72.225586,75.135193 71.910645,74.342499 71.910645C73.549805 71.910645,72.789658 72.225586,72.229187 72.786072C71.668701 73.346542,71.353760 74.106689,71.353760 74.899384C71.353760 75.692078,71.668701 76.452225,72.229187 77.012695C72.789658 77.573181,73.549805 77.888123,74.342499 77.888123C75.135193 77.888123,75.895340 77.573181,76.455811 77.012695C77.016296 76.452225,77.331238 75.692078,77.331238 74.899384Z" style="fill: rgb(100.000000%,100.000000%,100.000000%);stroke: none;"></path>
  <path d="M39.847275 84.984711C39.847275 84.192017,39.532333 83.431870,38.971848 82.871399C38.411377 82.310913,37.651230 81.995972,36.858536 81.995972C36.065842 81.995972,35.305695 82.310913,34.745224 82.871399C34.184738 83.431870,33.869797 84.192017,33.869797 84.984711C33.869797 85.777405,34.184738 86.537552,34.745224 87.098022C35.305695 87.658508,36.065842 87.973450,36.858536 87.973450C37.651230 87.973450,38.411377 87.658508,38.971848 87.098022C39.532333 86.537552,39.847275 85.777405,39.847275 84.984711Z" style="fill: rgb(100.000000%,100.000000%,100.000000%);stroke: none;"></path>
  <path d="M58.728439 79.320450C58.728439 78.527756,58.413498 77.767609,57.853012 77.207138C57.292542 76.646652,56.532394 76.331711,55.739700 76.331711C54.947006 76.331711,54.186859 76.646652,53.626389 77.207138C53.065903 77.767609,52.750961 78.527756,52.750961 79.320450C52.750961 80.113144,53.065903 80.873291,53.626389 81.433762C54.186859 81.994247,54.947006 82.309189,55.739700 82.309189C56.532394 82.309189,57.292542 81.994247,57.853012 81.433762C58.413498 80.873291,58.728439 80.113144,58.728439 79.320450Z" style="fill: rgb(100.000000%,100.000000%,100.000000%);stroke: none;"></path>
  <path d="M8.883255 117.750381C8.883255 116.957687,8.568314 116.197540,8.007828 115.637070C7.447357 115.076584,6.687210 114.761642,5.894516 114.761642C5.101822 114.761642,4.341675 115.076584,3.781204 115.637070C3.220718 116.197540,2.905777 116.957687,2.905777 117.750381C2.905777 118.543076,3.220718 119.303223,3.781204 119.863693C4.341675 120.424179,5.101822 120.739120,5.894516 120.739120C6.687210 120.739120,7.447357 120.424179,8.007828 119.863693C8.568314 119.303223,8.883255 118.543076,8.883255 117.750381Z" style="fill: rgb(100.000000%,100.000000%,100.000000%);stroke: none;"></path>
  <path d="M26.948257 89.319901C26.948257 88.527206,26.633316 87.767059,26.072830 87.206589C25.512360 86.646103,24.752213 86.331161,23.959518 86.331161C23.166824 86.331161,22.406677 86.646103,21.846207 87.206589C21.285721 87.767059,20.970779 88.527206,20.970779 89.319901C20.970779 90.112595,21.285721 90.872742,21.846207 91.433212C22.406677 91.993698,23.166824 92.308640,23.959518 92.308640C24.752213 92.308640,25.512360 91.993698,26.072830 91.433212C26.633316 90.872742,26.948257 90.112595,26.948257 89.319901Z" style="fill: rgb(100.000000%,100.000000%,100.000000%);stroke: none;"></path>
  <path d="M49.898407 173.146500C49.898407 172.353806,49.583466 171.593658,49.022980 171.033188C48.462509 170.472702,47.702362 170.157761,46.909668 170.157761C46.116974 170.157761,45.356827 170.472702,44.796356 171.033188C44.235870 171.593658,43.920929 172.353806,43.920929 173.146500C43.920929 173.939194,44.235870 174.699341,44.796356 175.259811C45.356827 175.820297,46.116974 176.135239,46.909668 176.135239C47.702362 176.135239,48.462509 175.820297,49.022980 175.259811C49.583466 174.699341,49.898407 173.939194,49.898407 173.146500Z" style="fill: rgb(100.000000%,100.000000%,100.000000%);stroke: none;"></path>
  <path d="M18.329590 139.798233C18.329590 139.005539,18.014648 138.245392,17.454163 137.684921C16.893692 137.124435,16.133545 136.809494,15.340851 136.809494C14.548157 136.809494,13.788010 137.124435,13.227539 137.684921C12.667053 138.245392,12.352112 139.005539,12.352112 139.798233C12.352112 140.590927,12.667053 141.351074,13.227539 141.911545C13.788010 142.472031,14.548157 142.786972,15.340851 142.786972C16.133545 142.786972,16.893692 142.472031,17.454163 141.911545C18.014648 141.351074,18.329590 140.590927,18.329590 139.798233Z" style="fill: rgb(100.000000%,100.000000%,100.000000%);stroke: none;"></path>
  <path d="M105.770065 165.496567C105.770065 164.703873,105.455124 163.943726,104.894638 163.383255C104.334167 162.822769,103.574020 162.507828,102.781326 162.507828C101.988632 162.507828,101.228485 162.822769,100.668015 163.383255C100.107529 163.943726,99.792587 164.703873,99.792587 165.496567C99.792587 166.289261,100.107529 167.049408,100.668015 167.609879C101.228485 168.170364,101.988632 168.485306,102.781326 168.485306C103.574020 168.485306,104.334167 168.170364,104.894638 167.609879C105.455124 167.049408,105.770065 166.289261,105.770065 165.496567Z" style="fill: rgb(100.000000%,100.000000%,100.000000%);stroke: none;"></path>
  <path d="M73.618820 184.268585C73.618820 183.475891,73.303879 182.715744,72.743393 182.155273C72.182922 181.594788,71.422775 181.279846,70.630081 181.279846C69.837387 181.279846,69.077240 181.594788,68.516769 182.155273C67.956284 182.715744,67.641342 183.475891,67.641342 184.268585C67.641342 185.061279,67.956284 185.821426,68.516769 186.381897C69.077240 186.942383,69.837387 187.257324,70.630081 187.257324C71.422775 187.257324,72.182922 186.942383,72.743393 186.381897C73.303879 185.821426,73.618820 185.061279,73.618820 184.268585Z" style="fill: rgb(100.000000%,100.000000%,100.000000%);stroke: none;"></path>
  <path d="M139.327271 139.026505C139.327271 138.233810,139.012329 137.473663,138.451843 136.913193C137.891373 136.352707,137.131226 136.037766,136.338531 136.037766C135.545837 136.037766,134.785690 136.352707,134.225220 136.913193C133.664734 137.473663,133.349792 138.233810,133.349792 139.026505C133.349792 139.819199,133.664734 140.579346,134.225220 141.139816C134.785690 141.700302,135.545837 142.015244,136.338531 142.015244C137.131226 142.015244,137.891373 141.700302,138.451843 141.139816C139.012329 140.579346,139.327271 139.819199,139.327271 139.026505Z" style="fill: rgb(100.000000%,100.000000%,100.000000%);stroke: none;"></path>
  <path d="M111.705292 149.719315C111.705292 148.926620,111.390350 148.166473,110.829865 147.606003C110.269394 147.045517,109.509247 146.730576,108.716553 146.730576C107.923859 146.730576,107.163712 147.045517,106.603241 147.606003C106.042755 148.166473,105.727814 148.926620,105.727814 149.719315C105.727814 150.512009,106.042755 151.272156,106.603241 151.832626C107.163712 152.393112,107.923859 152.708054,108.716553 152.708054C109.509247 152.708054,110.269394 152.393112,110.829865 151.832626C111.390350 151.272156,111.705292 150.512009,111.705292 149.719315Z" style="fill: rgb(100.000000%,100.000000%,100.000000%);stroke: none;"></path>
  <path d="M189.399887 137.904404C189.399887 137.111710,189.084946 136.351562,188.524460 135.791092C187.963989 135.230606,187.203842 134.915665,186.411148 134.915665C185.618454 134.915665,184.858307 135.230606,184.297836 135.791092C183.737350 136.351562,183.422409 137.111710,183.422409 137.904404C183.422409 138.697098,183.737350 139.457245,184.297836 140.017715C184.858307 140.578201,185.618454 140.893143,186.411148 140.893143C187.203842 140.893143,187.963989 140.578201,188.524460 140.017715C189.084946 139.457245,189.399887 138.697098,189.399887 137.904404Z" style="fill: rgb(100.000000%,100.000000%,100.000000%);stroke: none;"></path>
  <path d="M154.757004 147.100510C154.757004 146.307816,154.442062 145.547668,153.881577 144.987198C153.321106 144.426712,152.560959 144.111771,151.768265 144.111771C150.975571 144.111771,150.215424 144.426712,149.654953 144.987198C149.094467 145.547668,148.779526 146.307816,148.779526 147.100510C148.779526 147.893204,149.094467 148.653351,149.654953 149.213821C150.215424 149.774307,150.975571 150.089249,151.768265 150.089249C152.560959 150.089249,153.321106 149.774307,153.881577 149.213821C154.442062 148.653351,154.757004 147.893204,154.757004 147.100510Z" style="fill: rgb(100.000000%,100.000000%,100.000000%);stroke: none;"></path>
  <path d="M195.679657 73.512604C195.679657 72.719910,195.364716 71.959763,194.804230 71.399292C194.243759 70.838806,193.483612 70.523865,192.690918 70.523865C191.898224 70.523865,191.138077 70.838806,190.577606 71.399292C190.017120 71.959763,189.702179 72.719910,189.702179 73.512604C189.702179 74.305298,190.017120 75.065445,190.577606 75.625916C191.138077 76.186401,191.898224 76.501343,192.690918 76.501343C193.483612 76.501343,194.243759 76.186401,194.804230 75.625916C195.364716 75.065445,195.679657 74.305298,195.679657 73.512604Z" style="fill: rgb(100.000000%,100.000000%,100.000000%);stroke: none;"></path>
  <path d="M197.870590 115.185806C197.870590 114.393112,197.555649 113.632965,196.995163 113.072495C196.434692 112.512009,195.674545 112.197067,194.881851 112.197067C194.089157 112.197067,193.329010 112.512009,192.768539 113.072495C192.208054 113.632965,191.893112 114.393112,191.893112 115.185806C191.893112 115.978500,192.208054 116.738647,192.768539 117.299118C193.329010 117.859604,194.089157 118.174545,194.881851 118.174545C195.674545 118.174545,196.434692 117.859604,196.995163 117.299118C197.555649 116.738647,197.870590 115.978500,197.870590 115.185806Z" style="fill: rgb(100.000000%,100.000000%,100.000000%);stroke: none;"></path>
  <path d="M159.034821 40.952545C159.034821 40.159851,158.719879 39.399704,158.159393 38.839233C157.598923 38.278748,156.838776 37.963806,156.046082 37.963806C155.253387 37.963806,154.493240 38.278748,153.932770 38.839233C153.372284 39.399704,153.057343 40.159851,153.057343 40.952545C153.057343 41.745239,153.372284 42.505386,153.932770 43.065857C154.493240 43.626343,155.253387 43.941284,156.046082 43.941284C156.838776 43.941284,157.598923 43.626343,158.159393 43.065857C158.719879 42.505386,159.034821 41.745239,159.034821 40.952545Z" style="fill: rgb(100.000000%,100.000000%,100.000000%);stroke: none;"></path>
  <path d="M187.874893 54.017120C187.874893 53.224426,187.559952 52.464279,186.999466 51.903809C186.438995 51.343323,185.678848 51.028381,184.886154 51.028381C184.093460 51.028381,183.333313 51.343323,182.772842 51.903809C182.212357 52.464279,181.897415 53.224426,181.897415 54.017120C181.897415 54.809814,182.212357 55.569962,182.772842 56.130432C183.333313 56.690918,184.093460 57.005859,184.886154 57.005859C185.678848 57.005859,186.438995 56.690918,186.999466 56.130432C187.559952 55.569962,187.874893 54.809814,187.874893 54.017120Z" style="fill: rgb(100.000000%,100.000000%,100.000000%);stroke: none;"></path>
  <path d="M137.367874 57.992203C137.367874 57.199509,137.052933 56.439362,136.492447 55.878891C135.931976 55.318405,135.171829 55.003464,134.379135 55.003464C133.586441 55.003464,132.826294 55.318405,132.265823 55.878891C131.705338 56.439362,131.390396 57.199509,131.390396 57.992203C131.390396 58.784897,131.705338 59.545044,132.265823 60.105515C132.826294 60.666000,133.586441 60.980942,134.379135 60.980942C135.171829 60.980942,135.931976 60.666000,136.492447 60.105515C137.052933 59.545044,137.367874 58.784897,137.367874 57.992203Z" style="fill: rgb(100.000000%,100.000000%,100.000000%);stroke: none;"></path>
  <path d="M145.400711 42.968567C145.400711 42.175873,145.085770 41.415726,144.525284 40.855255C143.964813 40.294769,143.204666 39.979828,142.411972 39.979828C141.619278 39.979828,140.859131 40.294769,140.298660 40.855255C139.738174 41.415726,139.423233 42.175873,139.423233 42.968567C139.423233 43.761261,139.738174 44.521408,140.298660 45.081879C140.859131 45.642365,141.619278 45.957306,142.411972 45.957306C143.204666 45.957306,143.964813 45.642365,144.525284 45.081879C145.085770 44.521408,145.400711 43.761261,145.400711 42.968567Z" style="fill: rgb(100.000000%,100.000000%,100.000000%);stroke: none;"></path>
  <path d="M137.358124 73.730698C137.358124 72.938004,137.043182 72.177856,136.482697 71.617386C135.922226 71.056900,135.162079 70.741959,134.369385 70.741959C133.576691 70.741959,132.816544 71.056900,132.256073 71.617386C131.695587 72.177856,131.380646 72.938004,131.380646 73.730698C131.380646 74.523392,131.695587 75.283539,132.256073 75.844009C132.816544 76.404495,133.576691 76.719437,134.369385 76.719437C135.162079 76.719437,135.922226 76.404495,136.482697 75.844009C137.043182 75.283539,137.358124 74.523392,137.358124 73.730698Z" style="fill: rgb(100.000000%,100.000000%,100.000000%);stroke: none;"></path>
  <path d="M137.421570 63.408875C137.421570 62.616180,137.106628 61.856033,136.546143 61.295563C135.985672 60.735077,135.225525 60.420135,134.432831 60.420135C133.640137 60.420135,132.879990 60.735077,132.319519 61.295563C131.759033 61.856033,131.444092 62.616180,131.444092 63.408875C131.444092 64.201569,131.759033 64.961716,132.319519 65.522186C132.879990 66.082672,133.640137 66.397614,134.432831 66.397614C135.225525 66.397614,135.985672 66.082672,136.546143 65.522186C137.106628 64.961716,137.421570 64.201569,137.421570 63.408875Z" style="fill: rgb(100.000000%,100.000000%,100.000000%);stroke: none;"></path>
  <path d="M133.257294 88.009232C133.257294 87.216537,132.942352 86.456390,132.381866 85.895920C131.821396 85.335434,131.061249 85.020493,130.268555 85.020493C129.475861 85.020493,128.715714 85.335434,128.155243 85.895920C127.594757 86.456390,127.279816 87.216537,127.279816 88.009232C127.279816 88.801926,127.594757 89.562073,128.155243 90.122543C128.715714 90.683029,129.475861 90.997971,130.268555 90.997971C131.061249 90.997971,131.821396 90.683029,132.381866 90.122543C132.942352 89.562073,133.257294 88.801926,133.257294 88.009232Z" style="fill: rgb(100.000000%,100.000000%,100.000000%);stroke: none;"></path>
  <path d="M137.179382 78.896744C137.179382 78.104050,136.864441 77.343903,136.303955 76.783432C135.743484 76.222946,134.983337 75.908005,134.190643 75.908005C133.397949 75.908005,132.637802 76.222946,132.077332 76.783432C131.516846 77.343903,131.201904 78.104050,131.201904 78.896744C131.201904 79.689438,131.516846 80.449585,132.077332 81.010056C132.637802 81.570541,133.397949 81.885483,134.190643 81.885483C134.983337 81.885483,135.743484 81.570541,136.303955 81.010056C136.864441 80.449585,137.179382 79.689438,137.179382 78.896744Z" style="fill: rgb(100.000000%,100.000000%,100.000000%);stroke: none;"></path>
  <path d="M124.791016 98.837128C124.791016 98.044434,124.476074 97.284286,123.915588 96.723816C123.355118 96.163330,122.594971 95.848389,121.802277 95.848389C121.009583 95.848389,120.249435 96.163330,119.688965 96.723816C119.128479 97.284286,118.813538 98.044434,118.813538 98.837128C118.813538 99.629822,119.128479 100.389969,119.688965 100.950439C120.249435 101.510925,121.009583 101.825867,121.802277 101.825867C122.594971 101.825867,123.355118 101.510925,123.915588 100.950439C124.476074 100.389969,124.791016 99.629822,124.791016 98.837128Z" style="fill: rgb(100.000000%,100.000000%,100.000000%);stroke: none;"></path>
  <path d="M129.857407 91.567856C129.857407 90.775162,129.542465 90.015015,128.981979 89.454544C128.421509 88.894058,127.661362 88.579117,126.868668 88.579117C126.075974 88.579117,125.315826 88.894058,124.755356 89.454544C124.194870 90.015015,123.879929 90.775162,123.879929 91.567856C123.879929 92.360550,124.194870 93.120697,124.755356 93.681168C125.315826 94.241653,126.075974 94.556595,126.868668 94.556595C127.661362 94.556595,128.421509 94.241653,128.981979 93.681168C129.542465 93.120697,129.857407 92.360550,129.857407 91.567856Z" style="fill: rgb(100.000000%,100.000000%,100.000000%);stroke: none;"></path>
  <path d="M114.681992 101.384506C114.681992 100.591812,114.367050 99.831665,113.806564 99.271194C113.246094 98.710709,112.485947 98.395767,111.693253 98.395767C110.900558 98.395767,110.140411 98.710709,109.579941 99.271194C109.019455 99.831665,108.704514 100.591812,108.704514 101.384506C108.704514 102.177200,109.019455 102.937347,109.579941 103.497818C110.140411 104.058304,110.900558 104.373245,111.693253 104.373245C112.485947 104.373245,113.246094 104.058304,113.806564 103.497818C114.367050 102.937347,114.681992 102.177200,114.681992 101.384506Z" style="fill: rgb(100.000000%,100.000000%,100.000000%);stroke: none;"></path>
  <path d="M122.165161 102.529022C122.165161 101.736328,121.850220 100.976181,121.289734 100.415710C120.729263 99.855225,119.969116 99.540283,119.176422 99.540283C118.383728 99.540283,117.623581 99.855225,117.063110 100.415710C116.502625 100.976181,116.187683 101.736328,116.187683 102.529022C116.187683 103.321716,116.502625 104.081863,117.063110 104.642334C117.623581 105.202820,118.383728 105.517761,119.176422 105.517761C119.969116 105.517761,120.729263 105.202820,121.289734 104.642334C121.850220 104.081863,122.165161 103.321716,122.165161 102.529022Z" style="fill: rgb(100.000000%,100.000000%,100.000000%);stroke: none;"></path>
  <path d="M110.161118 90.065628C110.161118 89.272934,109.846176 88.512787,109.285690 87.952316C108.725220 87.391830,107.965073 87.076889,107.172379 87.076889C106.379684 87.076889,105.619537 87.391830,105.059067 87.952316C104.498581 88.512787,104.183640 89.272934,104.183640 90.065628C104.183640 90.858322,104.498581 91.618469,105.059067 92.178940C105.619537 92.739426,106.379684 93.054367,107.172379 93.054367C107.965073 93.054367,108.725220 92.739426,109.285690 92.178940C109.846176 91.618469,110.161118 90.858322,110.161118 90.065628Z" style="fill: rgb(100.000000%,100.000000%,100.000000%);stroke: none;"></path>
  <path d="M113.203201 97.448227C113.203201 96.655533,112.888260 95.895386,112.327774 95.334915C111.767303 94.774429,111.007156 94.459488,110.214462 94.459488C109.421768 94.459488,108.661621 94.774429,108.101151 95.334915C107.540665 95.895386,107.225723 96.655533,107.225723 97.448227C107.225723 98.240921,107.540665 99.001068,108.101151 99.561539C108.661621 100.122025,109.421768 100.436966,110.214462 100.436966C111.007156 100.436966,111.767303 100.122025,112.327774 99.561539C112.888260 99.001068,113.203201 98.240921,113.203201 97.448227Z" style="fill: rgb(100.000000%,100.000000%,100.000000%);stroke: none;"></path>
  <path d="M104.786728 78.073853C104.786728 77.281158,104.471786 76.521011,103.911301 75.960541C103.350830 75.400055,102.590683 75.085114,101.797989 75.085114C101.005295 75.085114,100.245148 75.400055,99.684677 75.960541C99.124191 76.521011,98.809250 77.281158,98.809250 78.073853C98.809250 78.866547,99.124191 79.626694,99.684677 80.187164C100.245148 80.747650,101.005295 81.062592,101.797989 81.062592C102.590683 81.062592,103.350830 80.747650,103.911301 80.187164C104.471786 79.626694,104.786728 78.866547,104.786728 78.073853Z" style="fill: rgb(100.000000%,100.000000%,100.000000%);stroke: none;"></path>
  <path d="M107.889893 86.446365C107.889893 85.653671,107.574951 84.893524,107.014465 84.333054C106.453995 83.772568,105.693848 83.457626,104.901154 83.457626C104.108459 83.457626,103.348312 83.772568,102.787842 84.333054C102.227356 84.893524,101.912415 85.653671,101.912415 86.446365C101.912415 87.239059,102.227356 87.999207,102.787842 88.559677C103.348312 89.120163,104.108459 89.435104,104.901154 89.435104C105.693848 89.435104,106.453995 89.120163,107.014465 88.559677C107.574951 87.999207,107.889893 87.239059,107.889893 86.446365Z" style="fill: rgb(100.000000%,100.000000%,100.000000%);stroke: none;"></path>
  <path d="M102.389969 62.113892C102.389969 61.321198,102.075027 60.561050,101.514542 60.000580C100.954071 59.440094,100.193924 59.125153,99.401230 59.125153C98.608536 59.125153,97.848389 59.440094,97.287918 60.000580C96.727432 60.561050,96.412491 61.321198,96.412491 62.113892C96.412491 62.906586,96.727432 63.666733,97.287918 64.227203C97.848389 64.787689,98.608536 65.102631,99.401230 65.102631C100.193924 65.102631,100.954071 64.787689,101.514542 64.227203C102.075027 63.666733,102.389969 62.906586,102.389969 62.113892Z" style="fill: rgb(100.000000%,100.000000%,100.000000%);stroke: none;"></path>
  <path d="M104.185913 73.390259C104.185913 72.597565,103.870972 71.837418,103.310486 71.276947C102.750015 70.716461,101.989868 70.401520,101.197174 70.401520C100.404480 70.401520,99.644333 70.716461,99.083862 71.276947C98.523376 71.837418,98.208435 72.597565,98.208435 73.390259C98.208435 74.182953,98.523376 74.943100,99.083862 75.503571C99.644333 76.064056,100.404480 76.378998,101.197174 76.378998C101.989868 76.378998,102.750015 76.064056,103.310486 75.503571C103.870972 74.943100,104.185913 74.182953,104.185913 73.390259Z" style="fill: rgb(100.000000%,100.000000%,100.000000%);stroke: none;"></path>
  <path d="M93.652344 36.941284C93.652344 36.148590,93.337402 35.388443,92.776917 34.827972C92.216446 34.267487,91.456299 33.952545,90.663605 33.952545C89.870911 33.952545,89.110764 34.267487,88.550293 34.827972C87.989807 35.388443,87.674866 36.148590,87.674866 36.941284C87.674866 37.733978,87.989807 38.494125,88.550293 39.054596C89.110764 39.615082,89.870911 39.930023,90.663605 39.930023C91.456299 39.930023,92.216446 39.615082,92.776917 39.054596C93.337402 38.494125,93.652344 37.733978,93.652344 36.941284Z" style="fill: rgb(100.000000%,100.000000%,100.000000%);stroke: none;"></path>
  <path d="M101.027191 55.493942C101.027191 54.701248,100.712250 53.941101,100.151764 53.380630C99.591293 52.820145,98.831146 52.505203,98.038452 52.505203C97.245758 52.505203,96.485611 52.820145,95.925140 53.380630C95.364655 53.941101,95.049713 54.701248,95.049713 55.493942C95.049713 56.286636,95.364655 57.046783,95.925140 57.607254C96.485611 58.167740,97.245758 58.482681,98.038452 58.482681C98.831146 58.482681,99.591293 58.167740,100.151764 57.607254C100.712250 57.046783,101.027191 56.286636,101.027191 55.493942Z" style="fill: rgb(100.000000%,100.000000%,100.000000%);stroke: none;"></path>
  <path d="M51.587692 15.685593C51.587692 14.892899,51.272751 14.132751,50.712265 13.572281C50.151794 13.011795,49.391647 12.696854,48.598953 12.696854C47.806259 12.696854,47.046112 13.011795,46.485641 13.572281C45.925156 14.132751,45.610214 14.892899,45.610214 15.685593C45.610214 16.478287,45.925156 17.238434,46.485641 17.798904C47.046112 18.359390,47.806259 18.674332,48.598953 18.674332C49.391647 18.674332,50.151794 18.359390,50.712265 17.798904C51.272751 17.238434,51.587692 16.478287,51.587692 15.685593Z" style="fill: rgb(100.000000%,100.000000%,100.000000%);stroke: none;"></path>
  <path d="M84.521957 26.509109C84.521957 25.716415,84.207016 24.956268,83.646530 24.395798C83.086060 23.835312,82.325912 23.520370,81.533218 23.520370C80.740524 23.520370,79.980377 23.835312,79.419907 24.395798C78.859421 24.956268,78.544479 25.716415,78.544479 26.509109C78.544479 27.301804,78.859421 28.061951,79.419907 28.622421C79.980377 29.182907,80.740524 29.497849,81.533218 29.497849C82.325912 29.497849,83.086060 29.182907,83.646530 28.622421C84.207016 28.061951,84.521957 27.301804,84.521957 26.509109Z" style="fill: rgb(100.000000%,100.000000%,100.000000%);stroke: none;"></path>
  <path d="M6.574020 62.958557C6.574020 62.165863,6.259079 61.405716,5.698593 60.845245C5.138123 60.284760,4.377975 59.969818,3.585281 59.969818C2.792587 59.969818,2.032440 60.284760,1.471970 60.845245C0.911484 61.405716,0.596542 62.165863,0.596542 62.958557C0.596542 63.751251,0.911484 64.511398,1.471970 65.071869C2.032440 65.632355,2.792587 65.947296,3.585281 65.947296C4.377975 65.947296,5.138123 65.632355,5.698593 65.071869C6.259079 64.511398,6.574020 63.751251,6.574020 62.958557Z" style="fill: rgb(100.000000%,100.000000%,100.000000%);stroke: none;"></path>
  <path d="M30.209473 26.736343C30.209473 25.943649,29.894531 25.183502,29.334045 24.623032C28.773575 24.062546,28.013428 23.747604,27.220734 23.747604C26.428040 23.747604,25.667892 24.062546,25.107422 24.623032C24.546936 25.183502,24.231995 25.943649,24.231995 26.736343C24.231995 27.529037,24.546936 28.289185,25.107422 28.849655C25.667892 29.410141,26.428040 29.725082,27.220734 29.725082C28.013428 29.725082,28.773575 29.410141,29.334045 28.849655C29.894531 28.289185,30.209473 27.529037,30.209473 26.736343Z" style="fill: rgb(100.000000%,100.000000%,100.000000%);stroke: none;"></path>
  <path d="M29.925903 109.415955C29.925903 108.623260,29.610962 107.863113,29.050476 107.302643C28.490005 106.742157,27.729858 106.427216,26.937164 106.427216C26.144470 106.427216,25.384323 106.742157,24.823853 107.302643C24.263367 107.863113,23.948425 108.623260,23.948425 109.415955C23.948425 110.208649,24.263367 110.968796,24.823853 111.529266C25.384323 112.089752,26.144470 112.404694,26.937164 112.404694C27.729858 112.404694,28.490005 112.089752,29.050476 111.529266C29.610962 110.968796,29.925903 110.208649,29.925903 109.415955Z" style="fill: rgb(100.000000%,100.000000%,100.000000%);stroke: none;"></path>
  <path d="M5.159027 86.258255C5.159027 85.465561,4.844086 84.705414,4.283600 84.144943C3.723129 83.584457,2.962982 83.269516,2.170288 83.269516C1.377594 83.269516,0.617447 83.584457,0.056976 84.144943C-0.503510 84.705414,-0.818451 85.465561,-0.818451 86.258255C-0.818451 87.050949,-0.503510 87.811096,0.056976 88.371567C0.617447 88.932053,1.377594 89.246994,2.170288 89.246994C2.962982 89.246994,3.723129 88.932053,4.283600 88.371567C4.844086 87.811096,5.159027 87.050949,5.159027 86.258255Z" style="fill: rgb(100.000000%,100.000000%,100.000000%);stroke: none;"></path>
  <path d="M65.191360 109.718643C65.191360 108.925949,64.876419 108.165802,64.315933 107.605331C63.755463 107.044846,62.995316 106.729904,62.202621 106.729904C61.409927 106.729904,60.649780 107.044846,60.089310 107.605331C59.528824 108.165802,59.213882 108.925949,59.213882 109.718643C59.213882 110.511337,59.528824 111.271484,60.089310 111.831955C60.649780 112.392441,61.409927 112.707382,62.202621 112.707382C62.995316 112.707382,63.755463 112.392441,64.315933 111.831955C64.876419 111.271484,65.191360 110.511337,65.191360 109.718643Z" style="fill: rgb(100.000000%,100.000000%,100.000000%);stroke: none;"></path>
  <path d="M44.152893 110.820602C44.152893 110.027908,43.837952 109.267761,43.277466 108.707291C42.716995 108.146805,41.956848 107.831863,41.164154 107.831863C40.371460 107.831863,39.611313 108.146805,39.050842 108.707291C38.490356 109.267761,38.175415 110.027908,38.175415 110.820602C38.175415 111.613297,38.490356 112.373444,39.050842 112.933914C39.611313 113.494400,40.371460 113.809341,41.164154 113.809341C41.956848 113.809341,42.716995 113.494400,43.277466 112.933914C43.837952 112.373444,44.152893 111.613297,44.152893 110.820602Z" style="fill: rgb(100.000000%,100.000000%,100.000000%);stroke: none;"></path>
  <path d="M86.195999 106.246078C86.195999 105.453384,85.881058 104.693237,85.320572 104.132767C84.760101 103.572281,83.999954 103.257339,83.207260 103.257339C82.414566 103.257339,81.654419 103.572281,81.093948 104.132767C80.533463 104.693237,80.218521 105.453384,80.218521 106.246078C80.218521 107.038773,80.533463 107.798920,81.093948 108.359390C81.654419 108.919876,82.414566 109.234818,83.207260 109.234818C83.999954 109.234818,84.760101 108.919876,85.320572 108.359390C85.881058 107.798920,86.195999 107.038773,86.195999 106.246078Z" style="fill: rgb(100.000000%,100.000000%,100.000000%);stroke: none;"></path>
  <path d="M72.632034 108.783051C72.632034 107.990356,72.317093 107.230209,71.756607 106.669739C71.196136 106.109253,70.435989 105.794312,69.643295 105.794312C68.850601 105.794312,68.090454 106.109253,67.529984 106.669739C66.969498 107.230209,66.654556 107.990356,66.654556 108.783051C66.654556 109.575745,66.969498 110.335892,67.529984 110.896362C68.090454 111.456848,68.850601 111.771790,69.643295 111.771790C70.435989 111.771790,71.196136 111.456848,71.756607 110.896362C72.317093 110.335892,72.632034 109.575745,72.632034 108.783051Z" style="fill: rgb(100.000000%,100.000000%,100.000000%);stroke: none;"></path>
  <path d="M103.068237 100.178329C103.068237 99.385635,102.753296 98.625488,102.192810 98.065018C101.632339 97.504532,100.872192 97.189590,100.079498 97.189590C99.286804 97.189590,98.526657 97.504532,97.966187 98.065018C97.405701 98.625488,97.090759 99.385635,97.090759 100.178329C97.090759 100.971024,97.405701 101.731171,97.966187 102.291641C98.526657 102.852127,99.286804 103.167068,100.079498 103.167068C100.872192 103.167068,101.632339 102.852127,102.192810 102.291641C102.753296 101.731171,103.068237 100.971024,103.068237 100.178329Z" style="fill: rgb(100.000000%,100.000000%,100.000000%);stroke: none;"></path>
  <path d="M92.355515 104.768005C92.355515 103.975311,92.040573 103.215164,91.480087 102.654694C90.919617 102.094208,90.159470 101.779266,89.366776 101.779266C88.574081 101.779266,87.813934 102.094208,87.253464 102.654694C86.692978 103.215164,86.378036 103.975311,86.378036 104.768005C86.378036 105.560699,86.692978 106.320847,87.253464 106.881317C87.813934 107.441803,88.574081 107.756744,89.366776 107.756744C90.159470 107.756744,90.919617 107.441803,91.480087 106.881317C92.040573 106.320847,92.355515 105.560699,92.355515 104.768005Z" style="fill: rgb(100.000000%,100.000000%,100.000000%);stroke: none;"></path>
  <path d="M114.164734 92.009979C114.164734 91.217285,113.849792 90.457138,113.289307 89.896667C112.728836 89.336182,111.968689 89.021240,111.175995 89.021240C110.383301 89.021240,109.623154 89.336182,109.062683 89.896667C108.502197 90.457138,108.187256 91.217285,108.187256 92.009979C108.187256 92.802673,108.502197 93.562820,109.062683 94.123291C109.623154 94.683777,110.383301 94.998718,111.175995 94.998718C111.968689 94.998718,112.728836 94.683777,113.289307 94.123291C113.849792 93.562820,114.164734 92.802673,114.164734 92.009979Z" style="fill: rgb(100.000000%,100.000000%,100.000000%);stroke: none;"></path>
  <path d="M107.651840 97.380035C107.651840 96.587341,107.336899 95.827194,106.776413 95.266724C106.215942 94.706238,105.455795 94.391296,104.663101 94.391296C103.870407 94.391296,103.110260 94.706238,102.549789 95.266724C101.989304 95.827194,101.674362 96.587341,101.674362 97.380035C101.674362 98.172729,101.989304 98.932877,102.549789 99.493347C103.110260 100.053833,103.870407 100.368774,104.663101 100.368774C105.455795 100.368774,106.215942 100.053833,106.776413 99.493347C107.336899 98.932877,107.651840 98.172729,107.651840 97.380035Z" style="fill: rgb(100.000000%,100.000000%,100.000000%);stroke: none;"></path>
  <path d="M122.936981 90.292526C122.936981 89.499832,122.622040 88.739685,122.061554 88.179214C121.501083 87.618729,120.740936 87.303787,119.948242 87.303787C119.155548 87.303787,118.395401 87.618729,117.834930 88.179214C117.274445 88.739685,116.959503 89.499832,116.959503 90.292526C116.959503 91.085220,117.274445 91.845367,117.834930 92.405838C118.395401 92.966324,119.155548 93.281265,119.948242 93.281265C120.740936 93.281265,121.501083 92.966324,122.061554 92.405838C122.622040 91.845367,122.936981 91.085220,122.936981 90.292526Z" style="fill: rgb(100.000000%,100.000000%,100.000000%);stroke: none;"></path>
  <path d="M116.665054 89.790222C116.665054 88.997528,116.350113 88.237381,115.789627 87.676910C115.229156 87.116425,114.469009 86.801483,113.676315 86.801483C112.883621 86.801483,112.123474 87.116425,111.563004 87.676910C111.002518 88.237381,110.687576 88.997528,110.687576 89.790222C110.687576 90.582916,111.002518 91.343063,111.563004 91.903534C112.123474 92.464020,112.883621 92.778961,113.676315 92.778961C114.469009 92.778961,115.229156 92.464020,115.789627 91.903534C116.350113 91.343063,116.665054 90.582916,116.665054 89.790222Z" style="fill: rgb(100.000000%,100.000000%,100.000000%);stroke: none;"></path>
  <path d="M131.855392 101.395721C131.855392 100.603027,131.540451 99.842880,130.979965 99.282410C130.419495 98.721924,129.659348 98.406982,128.866653 98.406982C128.073959 98.406982,127.313812 98.721924,126.753342 99.282410C126.192856 99.842880,125.877914 100.603027,125.877914 101.395721C125.877914 102.188416,126.192856 102.948563,126.753342 103.509033C127.313812 104.069519,128.073959 104.384460,128.866653 104.384460C129.659348 104.384460,130.419495 104.069519,130.979965 103.509033C131.540451 102.948563,131.855392 102.188416,131.855392 101.395721Z" style="fill: rgb(100.000000%,100.000000%,100.000000%);stroke: none;"></path>
  <path d="M125.075882 93.031464C125.075882 92.238770,124.760941 91.478622,124.200455 90.918152C123.639984 90.357666,122.879837 90.042725,122.087143 90.042725C121.294449 90.042725,120.534302 90.357666,119.973831 90.918152C119.413345 91.478622,119.098404 92.238770,119.098404 93.031464C119.098404 93.824158,119.413345 94.584305,119.973831 95.144775C120.534302 95.705261,121.294449 96.020203,122.087143 96.020203C122.879837 96.020203,123.639984 95.705261,124.200455 95.144775C124.760941 94.584305,125.075882 93.824158,125.075882 93.031464Z" style="fill: rgb(100.000000%,100.000000%,100.000000%);stroke: none;"></path>
  <path d="M154.066498 120.374298C154.066498 119.581604,153.751556 118.821457,153.191071 118.260986C152.630600 117.700500,151.870453 117.385559,151.077759 117.385559C150.285065 117.385559,149.524918 117.700500,148.964447 118.260986C148.403961 118.821457,148.089020 119.581604,148.089020 120.374298C148.089020 121.166992,148.403961 121.927139,148.964447 122.487610C149.524918 123.048096,150.285065 123.363037,151.077759 123.363037C151.870453 123.363037,152.630600 123.048096,153.191071 122.487610C153.751556 121.927139,154.066498 121.166992,154.066498 120.374298Z" style="fill: rgb(100.000000%,100.000000%,100.000000%);stroke: none;"></path>
  <path d="M137.505341 106.446304C137.505341 105.653610,137.190399 104.893463,136.629913 104.332993C136.069443 103.772507,135.309296 103.457565,134.516602 103.457565C133.723907 103.457565,132.963760 103.772507,132.403290 104.332993C131.842804 104.893463,131.527863 105.653610,131.527863 106.446304C131.527863 107.238998,131.842804 107.999146,132.403290 108.559616C132.963760 109.120102,133.723907 109.435043,134.516602 109.435043C135.309296 109.435043,136.069443 109.120102,136.629913 108.559616C137.190399 107.999146,137.505341 107.238998,137.505341 106.446304Z" style="fill: rgb(100.000000%,100.000000%,100.000000%);stroke: none;"></path>
  <path d="M173.546844 161.506454C173.546844 160.713760,173.231903 159.953613,172.671417 159.393143C172.110947 158.832657,171.350800 158.517715,170.558105 158.517715C169.765411 158.517715,169.005264 158.832657,168.444794 159.393143C167.884308 159.953613,167.569366 160.713760,167.569366 161.506454C167.569366 162.299149,167.884308 163.059296,168.444794 163.619766C169.005264 164.180252,169.765411 164.495193,170.558105 164.495193C171.350800 164.495193,172.110947 164.180252,172.671417 163.619766C173.231903 163.059296,173.546844 162.299149,173.546844 161.506454Z" style="fill: rgb(100.000000%,100.000000%,100.000000%);stroke: none;"></path>
  <path d="M165.749756 129.581528C165.749756 128.788834,165.434814 128.028687,164.874329 127.468216C164.313858 126.907730,163.553711 126.592789,162.761017 126.592789C161.968323 126.592789,161.208176 126.907730,160.647705 127.468216C160.087219 128.028687,159.772278 128.788834,159.772278 129.581528C159.772278 130.374222,160.087219 131.134369,160.647705 131.694839C161.208176 132.255325,161.968323 132.570267,162.761017 132.570267C163.553711 132.570267,164.313858 132.255325,164.874329 131.694839C165.434814 131.134369,165.749756 130.374222,165.749756 129.581528Z" style="fill: rgb(100.000000%,100.000000%,100.000000%);stroke: none;"></path>
  <path d="M125.698196 195.876221C125.698196 195.083527,125.383255 194.323380,124.822769 193.762909C124.262299 193.202423,123.502151 192.887482,122.709457 192.887482C121.916763 192.887482,121.156616 193.202423,120.596146 193.762909C120.035660 194.323380,119.720718 195.083527,119.720718 195.876221C119.720718 196.668915,120.035660 197.429062,120.596146 197.989532C121.156616 198.550018,121.916763 198.864960,122.709457 198.864960C123.502151 198.864960,124.262299 198.550018,124.822769 197.989532C125.383255 197.429062,125.698196 196.668915,125.698196 195.876221Z" style="fill: rgb(100.000000%,100.000000%,100.000000%);stroke: none;"></path>
  <path d="M162.347839 179.499466C162.347839 178.706772,162.032898 177.946625,161.472412 177.386154C160.911942 176.825668,160.151794 176.510727,159.359100 176.510727C158.566406 176.510727,157.806259 176.825668,157.245789 177.386154C156.685303 177.946625,156.370361 178.706772,156.370361 179.499466C156.370361 180.292160,156.685303 181.052307,157.245789 181.612778C157.806259 182.173264,158.566406 182.488205,159.359100 182.488205C160.151794 182.488205,160.911942 182.173264,161.472412 181.612778C162.032898 181.052307,162.347839 180.292160,162.347839 179.499466Z" style="fill: rgb(100.000000%,100.000000%,100.000000%);stroke: none;"></path>
  <path d="M86.499039 160.356094C86.499039 159.563400,86.184097 158.803253,85.623611 158.242783C85.063141 157.682297,84.302994 157.367355,83.510300 157.367355C82.717606 157.367355,81.957458 157.682297,81.396988 158.242783C80.836502 158.803253,80.521561 159.563400,80.521561 160.356094C80.521561 161.148788,80.836502 161.908936,81.396988 162.469406C81.957458 163.029892,82.717606 163.344833,83.510300 163.344833C84.302994 163.344833,85.063141 163.029892,85.623611 162.469406C86.184097 161.908936,86.499039 161.148788,86.499039 160.356094Z" style="fill: rgb(100.000000%,100.000000%,100.000000%);stroke: none;"></path>
  <path d="M102.876602 190.683960C102.876602 189.891266,102.561661 189.131119,102.001175 188.570648C101.440704 188.010162,100.680557 187.695221,99.887863 187.695221C99.095169 187.695221,98.335022 188.010162,97.774551 188.570648C97.214066 189.131119,96.899124 189.891266,96.899124 190.683960C96.899124 191.476654,97.214066 192.236801,97.774551 192.797272C98.335022 193.357758,99.095169 193.672699,99.887863 193.672699C100.680557 193.672699,101.440704 193.357758,102.001175 192.797272C102.561661 192.236801,102.876602 191.476654,102.876602 190.683960Z" style="fill: rgb(100.000000%,100.000000%,100.000000%);stroke: none;"></path>
  <path d="M85.119125 123.379501C85.119125 122.586807,84.804184 121.826660,84.243698 121.266190C83.683228 120.705704,82.923080 120.390762,82.130386 120.390762C81.337692 120.390762,80.577545 120.705704,80.017075 121.266190C79.456589 121.826660,79.141647 122.586807,79.141647 123.379501C79.141647 124.172195,79.456589 124.932343,80.017075 125.492813C80.577545 126.053299,81.337692 126.368240,82.130386 126.368240C82.923080 126.368240,83.683228 126.053299,84.243698 125.492813C84.804184 124.932343,85.119125 124.172195,85.119125 123.379501Z" style="fill: rgb(100.000000%,100.000000%,100.000000%);stroke: none;"></path>
  <path d="M89.332962 145.417267C89.332962 144.624573,89.018021 143.864426,88.457535 143.303955C87.897064 142.743469,87.136917 142.428528,86.344223 142.428528C85.551529 142.428528,84.791382 142.743469,84.230911 143.303955C83.670425 143.864426,83.355484 144.624573,83.355484 145.417267C83.355484 146.209961,83.670425 146.970108,84.230911 147.530579C84.791382 148.091064,85.551529 148.406006,86.344223 148.406006C87.136917 148.406006,87.897064 148.091064,88.457535 147.530579C89.018021 146.970108,89.332962 146.209961,89.332962 145.417267Z" style="fill: rgb(100.000000%,100.000000%,100.000000%);stroke: none;"></path>
  <path d="M78.948547 101.975464C78.948547 101.182770,78.633606 100.422623,78.073120 99.862152C77.512650 99.301666,76.752502 98.986725,75.959808 98.986725C75.167114 98.986725,74.406967 99.301666,73.846497 99.862152C73.286011 100.422623,72.971069 101.182770,72.971069 101.975464C72.971069 102.768158,73.286011 103.528305,73.846497 104.088776C74.406967 104.649261,75.167114 104.964203,75.959808 104.964203C76.752502 104.964203,77.512650 104.649261,78.073120 104.088776C78.633606 103.528305,78.948547 102.768158,78.948547 101.975464Z" style="fill: rgb(100.000000%,100.000000%,100.000000%);stroke: none;"></path>
  <path d="M81.582474 115.641571C81.582474 114.848877,81.267532 114.088730,80.707047 113.528259C80.146576 112.967773,79.386429 112.652832,78.593735 112.652832C77.801041 112.652832,77.040894 112.967773,76.480423 113.528259C75.919937 114.088730,75.604996 114.848877,75.604996 115.641571C75.604996 116.434265,75.919937 117.194412,76.480423 117.754883C77.040894 118.315369,77.801041 118.630310,78.593735 118.630310C79.386429 118.630310,80.146576 118.315369,80.707047 117.754883C81.267532 117.194412,81.582474 116.434265,81.582474 115.641571Z" style="fill: rgb(100.000000%,100.000000%,100.000000%);stroke: none;"></path>
  <path d="M73.833191 91.163864C71.982224 86.188858,70.369339 81.128510,69.000000 76.000000C67.355957 69.842621,66.065598 63.597061,65.078171 57.301056C63.200150 45.326477,62.587173 32.660446,69.000000 22.390198C80.463394 4.031357,105.204544 2.650055,127.061630 8.798798C146.825729 14.358749,165.642075 26.374115,167.381516 46.087509C168.408020 57.721100,161.907471 68.962875,150.834869 70.935684C145.304672 71.921005,139.830963 70.011154,134.400589 68.654282C128.869125 67.272156,123.201538 66.464386,117.499069 66.491028C111.748505 66.517899,106.044067 67.392685,100.459671 68.759674C95.296646 70.023514,90.243729 71.705490,85.067856 72.916412C79.756134 74.159119,74.342499 74.899384,69.000000 76.000000C62.302521 77.379761,55.739700 79.320450,49.190842 81.285080C36.858536 84.984711,23.959518 89.319901,17.059097 100.179703C5.894516 117.750381,15.340851 139.798233,30.432114 155.740158C46.909668 173.146500,70.630081 184.268585,90.240372 172.818802C102.781326 165.496567,108.716553 149.719315,122.394028 144.424591C136.338531 139.026505,151.768265 147.100510,166.109909 143.293457C186.411148 137.904404,194.881851 115.185806,193.718094 93.050354C192.690918 73.512604,184.886154 54.017120,167.381516 46.087509C156.046082 40.952545,142.411972 42.968567,136.858917 53.354324C134.379135 57.992203,134.432831 63.408875,134.400589 68.654282C134.369385 73.730698,134.190643 78.896744,132.180145 83.567886C130.268555 88.009232,126.868668 91.567856,124.109558 95.526627C121.802277 98.837128,119.176422 102.529022,115.320480 101.939270C111.693253 101.384506,110.214462 97.448227,108.785690 93.980850C107.172379 90.065628,104.901154 86.446365,103.429077 82.474609C101.797989 78.073853,101.197174 73.390259,100.459671 68.759674C99.401230 62.113892,98.038452 55.493942,95.551361 49.237244C90.663605 36.941284,81.533218 26.509109,69.000000 22.390198C48.598953 15.685593,27.220734 26.736343,15.190750 45.172745C3.585281 62.958557,2.170288 86.258255,17.059097 100.179703C26.937164 109.415955,41.164154 110.820602,54.721802 110.110474C62.202621 109.718643,69.643295 108.783051,77.006439 107.405869C83.207260 106.246078,89.366776 104.768005,95.167999 102.282578C100.079498 100.178329,104.663101 97.380035,108.785690 93.980850C111.175995 92.009979,113.676315 89.790222,116.759048 90.037109C119.948242 90.292526,122.087143 93.031464,124.109558 95.526627C128.866653 101.395721,134.516602 106.446304,140.295975 111.306778C151.077759 120.374298,162.761017 129.581528,166.109909 143.293457C170.558105 161.506454,159.359100 179.499466,141.843735 187.326141C122.709457 195.876221,99.887863 190.683960,90.240372 172.818802C83.510300 160.356094,86.344223 145.417267,83.705597 131.617645C82.130386 123.379501,78.593735 115.641571,77.006439 107.405869C75.959808 101.975464,75.764709 96.355377,73.833191 91.163864" style="stroke:rgb(0.000000%,0.000000%,0.000000%); stroke-width: 0.498138;stroke-linecap: round;stroke-linejoin: round;stroke-miterlimit: 10.000000;fill: none;"></path>
  <path d="M73.833191 91.163864C71.982224 86.188858,70.369339 81.128510,69.000000 76.000000C67.355957 69.842621,66.065598 63.597061,65.078171 57.301056C63.200150 45.326477,62.587173 32.660446,69.000000 22.390198" style="stroke:rgb(0.000000%,0.000000%,0.000000%); stroke-width: 1.494400;stroke-linecap: round;stroke-linejoin: round;stroke-miterlimit: 10.000000;fill: none;"></path>
  <path d="M77.006439 107.405869C75.959808 101.975464,75.764709 96.355377,73.833191 91.163864" style="stroke:rgb(0.000000%,0.000000%,0.000000%); stroke-width: 1.494400;stroke-linecap: round;stroke-linejoin: round;stroke-miterlimit: 10.000000;fill: none;"></path>
  <path d="M71.988739 76.000000C71.988739 75.207306,71.673798 74.447159,71.113312 73.886688C70.552841 73.326202,69.792694 73.011261,69.000000 73.011261C68.207306 73.011261,67.447159 73.326202,66.886688 73.886688C66.326202 74.447159,66.011261 75.207306,66.011261 76.000000C66.011261 76.792694,66.326202 77.552841,66.886688 78.113312C67.447159 78.673798,68.207306 78.988739,69.000000 78.988739C69.792694 78.988739,70.552841 78.673798,71.113312 78.113312C71.673798 77.552841,71.988739 76.792694,71.988739 76.000000Z" style="fill: rgb(100.000000%,100.000000%,100.000000%);stroke: none;"></path>
  <path d="M71.235977 83.639481C70.430222 81.111465,69.684662 78.564255,69.000000 76.000000C68.177979 72.921310,67.444366 69.820572,66.792847 66.702499" style="stroke:rgb(0.000000%,0.000000%,0.000000%); stroke-width: 1.494400;stroke-linecap: round;stroke-linejoin: round;stroke-miterlimit: 10.000000;fill: none;"></path>
  <path d="M170.370255 46.087509C170.370255 45.294815,170.055313 44.534668,169.494827 43.974197C168.934357 43.413712,168.174210 43.098770,167.381516 43.098770C166.588821 43.098770,165.828674 43.413712,165.268204 43.974197C164.707718 44.534668,164.392776 45.294815,164.392776 46.087509C164.392776 46.880203,164.707718 47.640350,165.268204 48.200821C165.828674 48.761307,166.588821 49.076248,167.381516 49.076248C168.174210 49.076248,168.934357 48.761307,169.494827 48.200821C170.055313 47.640350,170.370255 46.880203,170.370255 46.087509Z" style="fill: rgb(100.000000%,100.000000%,100.000000%);stroke: none;"></path>
  <path d="M153.980820 22.135620C161.372849 28.298630,166.511795 36.230820,167.381516 46.087509C167.894775 51.904312,166.526260 57.623154,163.645355 62.134399" style="stroke:rgb(0.000000%,0.000000%,0.000000%); stroke-width: 0.498138;stroke-linecap: round;stroke-linejoin: round;stroke-miterlimit: 10.000000;fill: none;"></path>
  <path d="M103.448410 68.759674C103.448410 67.966980,103.133469 67.206833,102.572983 66.646362C102.012512 66.085876,101.252365 65.770935,100.459671 65.770935C99.666977 65.770935,98.906830 66.085876,98.346359 66.646362C97.785873 67.206833,97.470932 67.966980,97.470932 68.759674C97.470932 69.552368,97.785873 70.312515,98.346359 70.872986C98.906830 71.433472,99.666977 71.748413,100.459671 71.748413C101.252365 71.748413,102.012512 71.433472,102.572983 70.872986C103.133469 70.312515,103.448410 69.552368,103.448410 68.759674Z" style="fill: rgb(100.000000%,100.000000%,100.000000%);stroke: none;"></path>
  <path d="M108.917038 67.122818C106.074066 67.515747,103.251862 68.076187,100.459671 68.759674C97.878159 69.391602,95.324173 70.128052,92.768570 70.857895" style="stroke:rgb(0.000000%,0.000000%,0.000000%); stroke-width: 0.498138;stroke-linecap: round;stroke-linejoin: round;stroke-miterlimit: 10.000000;fill: none;"></path>
  <path d="M20.047836 100.179703C20.047836 99.387009,19.732895 98.626862,19.172409 98.066391C18.611938 97.505905,17.851791 97.190964,17.059097 97.190964C16.266403 97.190964,15.506256 97.505905,14.945786 98.066391C14.385300 98.626862,14.070358 99.387009,14.070358 100.179703C14.070358 100.972397,14.385300 101.732544,14.945786 102.293015C15.506256 102.853500,16.266403 103.168442,17.059097 103.168442C17.851791 103.168442,18.611938 102.853500,19.172409 102.293015C19.732895 101.732544,20.047836 100.972397,20.047836 100.179703Z" style="fill: rgb(100.000000%,100.000000%,100.000000%);stroke: none;"></path>
  <path d="M31.088013 88.047348C25.459167 90.951065,20.509308 94.749802,17.059097 100.179703C11.476807 108.965042,11.047241 118.869675,13.899673 128.570724" style="stroke:rgb(0.000000%,0.000000%,0.000000%); stroke-width: 0.498138;stroke-linecap: round;stroke-linejoin: round;stroke-miterlimit: 10.000000;fill: none;"></path>
  <path d="M169.098648 143.293457C169.098648 142.500763,168.783707 141.740616,168.223221 141.180145C167.662750 140.619659,166.902603 140.304718,166.109909 140.304718C165.317215 140.304718,164.557068 140.619659,163.996597 141.180145C163.436111 141.740616,163.121170 142.500763,163.121170 143.293457C163.121170 144.086151,163.436111 144.846298,163.996597 145.406769C164.557068 145.967255,165.317215 146.282196,166.109909 146.282196C166.902603 146.282196,167.662750 145.967255,168.223221 145.406769C168.783707 144.846298,169.098648 144.086151,169.098648 143.293457Z" style="fill: rgb(100.000000%,100.000000%,100.000000%);stroke: none;"></path>
  <path d="M144.103058 143.262390C151.496246 144.130249,158.939087 145.196976,166.109909 143.293457C176.260529 140.598923,183.453522 133.572006,187.963379 124.451797" style="stroke:rgb(0.000000%,0.000000%,0.000000%); stroke-width: 0.498138;stroke-linecap: round;stroke-linejoin: round;stroke-miterlimit: 10.000000;fill: none;"></path>
  <path d="M137.389328 68.654282C137.389328 67.861588,137.074387 67.101440,136.513901 66.540970C135.953430 65.980484,135.193283 65.665543,134.400589 65.665543C133.607895 65.665543,132.847748 65.980484,132.287277 66.540970C131.726791 67.101440,131.411850 67.861588,131.411850 68.654282C131.411850 69.446976,131.726791 70.207123,132.287277 70.767593C132.847748 71.328079,133.607895 71.643021,134.400589 71.643021C135.193283 71.643021,135.953430 71.328079,136.513901 70.767593C137.074387 70.207123,137.389328 69.446976,137.389328 68.654282Z" style="fill: rgb(100.000000%,100.000000%,100.000000%);stroke: none;"></path>
  <path d="M134.711914 60.776489C134.411346 63.366074,134.416702 66.031586,134.400589 68.654282C134.384979 71.192490,134.332489 73.753113,134.032593 76.263077" style="stroke:rgb(0.000000%,0.000000%,0.000000%); stroke-width: 0.498138;stroke-linecap: round;stroke-linejoin: round;stroke-miterlimit: 10.000000;fill: none;"></path>
  <path d="M111.774429 93.980850C111.774429 93.188156,111.459488 92.428009,110.899002 91.867538C110.338531 91.307053,109.578384 90.992111,108.785690 90.992111C107.992996 90.992111,107.232849 91.307053,106.672379 91.867538C106.111893 92.428009,105.796951 93.188156,105.796951 93.980850C105.796951 94.773544,106.111893 95.533691,106.672379 96.094162C107.232849 96.654648,107.992996 96.969589,108.785690 96.969589C109.578384 96.969589,110.338531 96.654648,110.899002 96.094162C111.459488 95.533691,111.774429 94.773544,111.774429 93.980850Z" style="fill: rgb(100.000000%,100.000000%,100.000000%);stroke: none;"></path>
  <path d="M111.228653 99.052277C110.226959 97.565445,109.500076 95.714539,108.785690 93.980850C107.979034 92.023239,107.007889 90.139618,106.054413 88.248917" style="stroke:rgb(0.000000%,0.000000%,0.000000%); stroke-width: 0.498138;stroke-linecap: round;stroke-linejoin: round;stroke-miterlimit: 10.000000;fill: none;"></path>
  <path d="M71.988739 22.390198C71.988739 21.597504,71.673798 20.837357,71.113312 20.276886C70.552841 19.716400,69.792694 19.401459,69.000000 19.401459C68.207306 19.401459,67.447159 19.716400,66.886688 20.276886C66.326202 20.837357,66.011261 21.597504,66.011261 22.390198C66.011261 23.182892,66.326202 23.943039,66.886688 24.503510C67.447159 25.063995,68.207306 25.378937,69.000000 25.378937C69.792694 25.378937,70.552841 25.063995,71.113312 24.503510C71.673798 23.943039,71.988739 23.182892,71.988739 22.390198Z" style="fill: rgb(100.000000%,100.000000%,100.000000%);stroke: none;"></path>
  <path d="M85.142715 32.747314C80.682495 28.087418,75.266602 24.449646,69.000000 22.390198C58.799469 19.037888,48.354645 20.124435,38.956207 24.353607" style="stroke:rgb(0.000000%,0.000000%,0.000000%); stroke-width: 0.498138;stroke-linecap: round;stroke-linejoin: round;stroke-miterlimit: 10.000000;fill: none;"></path>
  <path d="M79.995178 107.405869C79.995178 106.613174,79.680237 105.853027,79.119751 105.292557C78.559280 104.732071,77.799133 104.417130,77.006439 104.417130C76.213745 104.417130,75.453598 104.732071,74.893127 105.292557C74.332642 105.853027,74.017700 106.613174,74.017700 107.405869C74.017700 108.198563,74.332642 108.958710,74.893127 109.519180C75.453598 110.079666,76.213745 110.394608,77.006439 110.394608C77.799133 110.394608,78.559280 110.079666,79.119751 109.519180C79.680237 108.958710,79.995178 108.198563,79.995178 107.405869Z" style="fill: rgb(100.000000%,100.000000%,100.000000%);stroke: none;"></path>
  <path d="M65.908264 109.127655C69.623917 108.672638,73.324875 108.094452,77.006439 107.405869C80.106857 106.825974,83.196945 106.166504,86.237076 105.341324" style="stroke:rgb(0.000000%,0.000000%,0.000000%); stroke-width: 0.498138;stroke-linecap: round;stroke-linejoin: round;stroke-miterlimit: 10.000000;fill: none;"></path>
  <path d="M127.098297 95.526627C127.098297 94.733932,126.783356 93.973785,126.222870 93.413315C125.662399 92.852829,124.902252 92.537888,124.109558 92.537888C123.316864 92.537888,122.556717 92.852829,121.996246 93.413315C121.435760 93.973785,121.120819 94.733932,121.120819 95.526627C121.120819 96.319321,121.435760 97.079468,121.996246 97.639938C122.556717 98.200424,123.316864 98.515366,124.109558 98.515366C124.902252 98.515366,125.662399 98.200424,126.222870 97.639938C126.783356 97.079468,127.098297 96.319321,127.098297 95.526627Z" style="fill: rgb(100.000000%,100.000000%,100.000000%);stroke: none;"></path>
  <path d="M120.871857 91.941986C122.058029 92.970535,123.098358 94.279053,124.109558 95.526627C126.488113 98.461182,129.089874 101.191101,131.819427 103.794952" style="stroke:rgb(0.000000%,0.000000%,0.000000%); stroke-width: 0.498138;stroke-linecap: round;stroke-linejoin: round;stroke-miterlimit: 10.000000;fill: none;"></path>
  <path d="M93.229111 172.818802C93.229111 172.026108,92.914169 171.265961,92.353683 170.705490C91.793213 170.145004,91.033066 169.830063,90.240372 169.830063C89.447678 169.830063,88.687531 170.145004,88.127060 170.705490C87.566574 171.265961,87.251633 172.026108,87.251633 172.818802C87.251633 173.611496,87.566574 174.371643,88.127060 174.932114C88.687531 175.492599,89.447678 175.807541,90.240372 175.807541C91.033066 175.807541,91.793213 175.492599,92.353683 174.932114C92.914169 174.371643,93.229111 173.611496,93.229111 172.818802Z" style="fill: rgb(100.000000%,100.000000%,100.000000%);stroke: none;"></path>
  <path d="M112.484497 189.978180C103.181381 187.515732,95.064117 181.751373,90.240372 172.818802C86.875336 166.587448,85.901291 159.737061,85.438690 152.719559" style="stroke:rgb(0.000000%,0.000000%,0.000000%); stroke-width: 0.498138;stroke-linecap: round;stroke-linejoin: round;stroke-miterlimit: 10.000000;fill: none;"></path>
  <path d="M73.833191 91.163864C72.352417 87.183838,71.024002 83.149200,69.850769 79.068741" style="stroke:rgb(0.000000%,0.000000%,0.000000%); stroke-width: 0.498138;stroke-linecap: round;stroke-linejoin: round;stroke-miterlimit: 10.000000;fill: none;"></path>
  <path d="M73.024384 82.932510C71.947357 81.660538,70.889359 80.372482,69.850769 79.068741C69.663254 80.725021,69.500549 82.383926,69.362671 84.044907Z" style="stroke:rgb(0.000000%,0.000000%,0.000000%); stroke-width: 0.498138;fill: rgb(0.000000%,0.000000%,0.000000%);"></path>
  <path d="M73.833191 91.163864C72.352417 87.183838,71.024002 83.149200,69.850769 79.068741" style="stroke:rgb(0.000000%,0.000000%,0.000000%); stroke-width: 0.498138;stroke-linecap: round;stroke-linejoin: round;stroke-miterlimit: 10.000000;fill: none;"></path>
  <path d="M71.741058 81.398392C71.104050 80.627548,70.473907 79.850967,69.850769 79.068741C69.738251 80.062485,69.634689 81.057175,69.540039 82.052689Z" style="stroke:rgb(0.000000%,0.000000%,0.000000%); stroke-width: 0.498138;fill: rgb(0.000000%,0.000000%,0.000000%);"></path>
  <path d="M150.834869 70.935684C146.410690 71.723938,142.022675 70.659271,137.664078 69.507172" style="stroke:rgb(0.000000%,0.000000%,0.000000%); stroke-width: 0.498138;stroke-linecap: round;stroke-linejoin: round;stroke-miterlimit: 10.000000;fill: none;"></path>
  <path d="M140.632523 69.073486C139.648239 69.234512,138.656311 69.373123,137.664078 69.507172C138.460480 70.113998,139.259872 70.717422,140.069717 71.299561Z" style="stroke:rgb(0.000000%,0.000000%,0.000000%); stroke-width: 0.498138;fill: rgb(0.000000%,0.000000%,0.000000%);"></path>
  <path d="M85.067856 72.916412C80.818466 73.910583,76.503845 74.583176,72.212601 75.375977" style="stroke:rgb(0.000000%,0.000000%,0.000000%); stroke-width: 0.498138;stroke-linecap: round;stroke-linejoin: round;stroke-miterlimit: 10.000000;fill: none;"></path>
  <path d="M74.737015 73.755157C73.893997 74.293076,73.051529 74.831848,72.212601 75.375977C73.190567 75.584442,74.167252 75.799210,75.143723 76.014954Z" style="stroke:rgb(0.000000%,0.000000%,0.000000%); stroke-width: 0.498138;fill: rgb(0.000000%,0.000000%,0.000000%);"></path>
  <path d="M49.190842 81.285080C39.324966 84.244797,29.096375 87.611282,21.866577 94.399750" style="stroke:rgb(0.000000%,0.000000%,0.000000%); stroke-width: 0.498138;stroke-linecap: round;stroke-linejoin: round;stroke-miterlimit: 10.000000;fill: none;"></path>
  <path d="M23.222397 91.723602C22.731827 92.596176,22.278427 93.487701,21.866577 94.399750C22.802719 94.046082,23.753738 93.736282,24.717606 93.466187Z" style="stroke:rgb(0.000000%,0.000000%,0.000000%); stroke-width: 0.498138;fill: rgb(0.000000%,0.000000%,0.000000%);"></path>
  <path d="M122.394028 144.424591C133.549667 140.106110,145.655869 144.409821,157.395081 144.354797" style="stroke:rgb(0.000000%,0.000000%,0.000000%); stroke-width: 0.498138;stroke-linecap: round;stroke-linejoin: round;stroke-miterlimit: 10.000000;fill: none;"></path>
  <path d="M154.596420 145.435684C155.541260 145.098740,156.475418 144.740799,157.395081 144.354797C156.471848 143.977432,155.558197 143.569962,154.651840 143.140091Z" style="stroke:rgb(0.000000%,0.000000%,0.000000%); stroke-width: 0.498138;fill: rgb(0.000000%,0.000000%,0.000000%);"></path>
  <path d="M132.180145 83.567886C130.650864 87.120972,128.169067 90.109116,125.824860 93.189148" style="stroke:rgb(0.000000%,0.000000%,0.000000%); stroke-width: 0.498138;stroke-linecap: round;stroke-linejoin: round;stroke-miterlimit: 10.000000;fill: none;"></path>
  <path d="M126.600739 90.291290C126.345749 91.257278,126.079880 92.222122,125.824860 93.189148C126.688980 92.685715,127.559250 92.191452,128.422607 91.688721Z" style="stroke:rgb(0.000000%,0.000000%,0.000000%); stroke-width: 0.498138;fill: rgb(0.000000%,0.000000%,0.000000%);"></path>
  <path d="M115.320480 101.939270C112.418686 101.495453,110.891907 98.887466,109.665726 96.086716" style="stroke:rgb(0.000000%,0.000000%,0.000000%); stroke-width: 0.498138;stroke-linecap: round;stroke-linejoin: round;stroke-miterlimit: 10.000000;fill: none;"></path>
  <path d="M111.952576 98.028412C111.161591 97.469406,110.402267 96.794418,109.665726 96.086716C109.686111 97.107956,109.745728 98.122177,109.909729 99.076752Z" style="stroke:rgb(0.000000%,0.000000%,0.000000%); stroke-width: 0.498138;fill: rgb(0.000000%,0.000000%,0.000000%);"></path>
  <path d="M95.551361 49.237244C91.641144 39.400436,85.015625 30.756470,76.104782 25.583496" style="stroke:rgb(0.000000%,0.000000%,0.000000%); stroke-width: 0.498138;stroke-linecap: round;stroke-linejoin: round;stroke-miterlimit: 10.000000;fill: none;"></path>
  <path d="M79.060608 26.096909C78.083527 25.888367,77.097855 25.716614,76.104782 25.583496C76.712845 26.379852,77.288361 27.198273,77.831787 28.036636Z" style="stroke:rgb(0.000000%,0.000000%,0.000000%); stroke-width: 0.498138;fill: rgb(0.000000%,0.000000%,0.000000%);"></path>
  <path d="M95.167999 102.282578C99.097214 100.599167,102.816574 98.471573,106.257919 95.947479" style="stroke:rgb(0.000000%,0.000000%,0.000000%); stroke-width: 0.498138;stroke-linecap: round;stroke-linejoin: round;stroke-miterlimit: 10.000000;fill: none;"></path>
  <path d="M104.634293 98.470200C105.197586 97.644180,105.738983 96.802979,106.257919 95.947479C105.286041 96.185455,104.308395 96.397415,103.326004 96.583176Z" style="stroke:rgb(0.000000%,0.000000%,0.000000%); stroke-width: 0.498138;fill: rgb(0.000000%,0.000000%,0.000000%);"></path>
  <path d="M116.759048 90.037109C119.310410 90.241440,121.189575 92.035248,122.874680 94.022125" style="stroke:rgb(0.000000%,0.000000%,0.000000%); stroke-width: 0.498138;stroke-linecap: round;stroke-linejoin: round;stroke-miterlimit: 10.000000;fill: none;"></path>
  <path d="M120.120972 92.831604C121.051239 93.131760,121.970978 93.557724,122.874680 94.022125C122.564056 93.054733,122.214935 92.103165,121.769379 91.233124Z" style="stroke:rgb(0.000000%,0.000000%,0.000000%); stroke-width: 0.498138;fill: rgb(0.000000%,0.000000%,0.000000%);"></path>
  <path d="M83.705597 131.617645C82.445419 125.027100,79.929916 118.756699,78.161438 112.295471" style="stroke:rgb(0.000000%,0.000000%,0.000000%); stroke-width: 0.498138;stroke-linecap: round;stroke-linejoin: round;stroke-miterlimit: 10.000000;fill: none;"></path>
  <path d="M80.035614 114.638153C79.400818 113.864807,78.774261 113.085297,78.161438 112.295471C78.036255 113.287292,77.928101 114.281525,77.830109 115.277252Z" style="stroke:rgb(0.000000%,0.000000%,0.000000%); stroke-width: 0.498138;fill: rgb(0.000000%,0.000000%,0.000000%);"></path>
  <path d="M62.087524 60.011261L68.068817 60.011261L68.068817 52.590866L62.087524 52.590866Z" style="fill: rgb(100.000000%,100.000000%,100.000000%);stroke: none;"></path>
  <path d="M62.087524 62.011261L68.068817 62.011261L68.068817 54.590866L62.087524 54.590866Z" style="fill: rgb(100.000000%,100.000000%,100.000000%);stroke: none;"></path>
  <g transform="translate(62.587524 60.511261)" style="fill: rgb(0.000000%,0.000000%,0.000000%);">
    <use xlink:href="#GLYPHcmr10_49"></use>
  </g>
  <path d="M124.070984 11.509003L130.052277 11.509003L130.052277 4.088608L124.070984 4.088608Z" style="fill: rgb(100.000000%,100.000000%,100.000000%);stroke: none;"></path>
  <path d="M124.070984 13.509003L130.052277 13.509003L130.052277 6.088608L124.070984 6.088608Z" style="fill: rgb(100.000000%,100.000000%,100.000000%);stroke: none;"></path>
  <g transform="translate(124.570984 12.009003)" style="fill: rgb(0.000000%,0.000000%,0.000000%);">
    <use xlink:href="#GLYPHcmr10_50"></use>
  </g>
  <path d="M114.508423 69.201233L120.489716 69.201233L120.489716 61.780838L114.508423 61.780838Z" style="fill: rgb(100.000000%,100.000000%,100.000000%);stroke: none;"></path>
  <path d="M114.508423 71.201233L120.489716 71.201233L120.489716 63.780838L114.508423 63.780838Z" style="fill: rgb(100.000000%,100.000000%,100.000000%);stroke: none;"></path>
  <g transform="translate(115.008423 69.701233)" style="fill: rgb(0.000000%,0.000000%,0.000000%);">
    <use xlink:href="#GLYPHcmr10_51"></use>
  </g>
  <path d="M27.441467 158.450363L33.422760 158.450363L33.422760 151.029968L27.441467 151.029968Z" style="fill: rgb(100.000000%,100.000000%,100.000000%);stroke: none;"></path>
  <path d="M27.441467 160.450363L33.422760 160.450363L33.422760 153.029968L27.441467 153.029968Z" style="fill: rgb(100.000000%,100.000000%,100.000000%);stroke: none;"></path>
  <g transform="translate(27.941467 158.950363)" style="fill: rgb(0.000000%,0.000000%,0.000000%);">
    <use xlink:href="#GLYPHcmr10_52"></use>
  </g>
  <path d="M190.727448 95.760559L196.708740 95.760559L196.708740 88.340164L190.727448 88.340164Z" style="fill: rgb(100.000000%,100.000000%,100.000000%);stroke: none;"></path>
  <path d="M190.727448 97.760559L196.708740 97.760559L196.708740 90.340164L190.727448 90.340164Z" style="fill: rgb(100.000000%,100.000000%,100.000000%);stroke: none;"></path>
  <g transform="translate(191.227448 96.260559)" style="fill: rgb(0.000000%,0.000000%,0.000000%);">
    <use xlink:href="#GLYPHcmr10_53"></use>
  </g>
  <path d="M133.868271 56.064529L139.849564 56.064529L139.849564 48.644135L133.868271 48.644135Z" style="fill: rgb(100.000000%,100.000000%,100.000000%);stroke: none;"></path>
  <path d="M133.868271 58.064529L139.849564 58.064529L139.849564 50.644135L133.868271 50.644135Z" style="fill: rgb(100.000000%,100.000000%,100.000000%);stroke: none;"></path>
  <g transform="translate(134.368271 56.564529)" style="fill: rgb(0.000000%,0.000000%,0.000000%);">
    <use xlink:href="#GLYPHcmr10_54"></use>
  </g>
  <path d="M100.438431 85.184814L106.419724 85.184814L106.419724 77.764420L100.438431 77.764420Z" style="fill: rgb(100.000000%,100.000000%,100.000000%);stroke: none;"></path>
  <path d="M100.438431 87.184814L106.419724 87.184814L106.419724 79.764420L100.438431 79.764420Z" style="fill: rgb(100.000000%,100.000000%,100.000000%);stroke: none;"></path>
  <g transform="translate(100.938431 85.684814)" style="fill: rgb(0.000000%,0.000000%,0.000000%);">
    <use xlink:href="#GLYPHcmr10_55"></use>
  </g>
  <path d="M12.200104 47.882950L18.181396 47.882950L18.181396 40.462555L12.200104 40.462555Z" style="fill: rgb(100.000000%,100.000000%,100.000000%);stroke: none;"></path>
  <path d="M12.200104 49.882950L18.181396 49.882950L18.181396 42.462555L12.200104 42.462555Z" style="fill: rgb(100.000000%,100.000000%,100.000000%);stroke: none;"></path>
  <g transform="translate(12.700104 48.382950)" style="fill: rgb(0.000000%,0.000000%,0.000000%);">
    <use xlink:href="#GLYPHcmr10_56"></use>
  </g>
  <path d="M51.731155 112.820679L57.712448 112.820679L57.712448 105.400284L51.731155 105.400284Z" style="fill: rgb(100.000000%,100.000000%,100.000000%);stroke: none;"></path>
  <path d="M51.731155 114.820679L57.712448 114.820679L57.712448 107.400284L51.731155 107.400284Z" style="fill: rgb(100.000000%,100.000000%,100.000000%);stroke: none;"></path>
  <g transform="translate(52.231155 113.320679)" style="fill: rgb(0.000000%,0.000000%,0.000000%);">
    <use xlink:href="#GLYPHcmr10_57"></use>
  </g>
  <path d="M134.814621 114.016983L145.777328 114.016983L145.777328 106.596588L134.814621 106.596588Z" style="fill: rgb(100.000000%,100.000000%,100.000000%);stroke: none;"></path>
  <path d="M134.814621 116.016983L145.777328 116.016983L145.777328 108.596588L134.814621 108.596588Z" style="fill: rgb(100.000000%,100.000000%,100.000000%);stroke: none;"></path>
  <g transform="translate(135.314621 114.516983)" style="fill: rgb(0.000000%,0.000000%,0.000000%);">
    <use xlink:href="#GLYPHcmr10_49"></use>
    <use xlink:href="#GLYPHcmr10_48" x="5.000095"></use>
  </g>
  <path d="M136.362381 190.036346L147.325089 190.036346L147.325089 182.615952L136.362381 182.615952Z" style="fill: rgb(100.000000%,100.000000%,100.000000%);stroke: none;"></path>
  <path d="M136.362381 192.036346L147.325089 192.036346L147.325089 184.615952L136.362381 184.615952Z" style="fill: rgb(100.000000%,100.000000%,100.000000%);stroke: none;"></path>
  <g transform="translate(136.862381 190.536346)" style="fill: rgb(0.000000%,0.000000%,0.000000%);">
    <use xlink:href="#GLYPHcmr10_49"></use>
    <use xlink:href="#GLYPHcmr10_49" x="5.000095"></use>
  </g>
</svg>
