<?xml version="1.0"?>
<!-- Created by MetaPost 1.999 on 2021.07.05:2359 -->
<svg version="1.1" xmlns="http://www.w3.org/2000/svg" xmlns:xlink="http://www.w3.org/1999/xlink" width="193.376328" height="195.233658" viewBox="0 0 193.376328 195.233658">
<!-- Original BoundingBox: -158.641281 -50.973785 34.735046 144.259872 -->
  <defs>
    <g transform="scale(0.009963,0.009963)" id="GLYPHcmr10_48">
      <path style="fill-rule: evenodd;" d="M460.000000 -320.000000C460.000000 -400.000000,455.000000 -480.000000,420.000000 -554.000000C374.000000 -650.000000,292.000000 -666.000000,250.000000 -666.000000C190.000000 -666.000000,117.000000 -640.000000,76.000000 -547.000000C44.000000 -478.000000,39.000000 -400.000000,39.000000 -320.000000C39.000000 -245.000000,43.000000 -155.000000,84.000000 -79.000000C127.000000 2.000000,200.000000 22.000000,249.000000 22.000000C303.000000 22.000000,379.000000 1.000000,423.000000 -94.000000C455.000000 -163.000000,460.000000 -241.000000,460.000000 -320.000000M249.000000 -0.000000C210.000000 -0.000000,151.000000 -25.000000,133.000000 -121.000000C122.000000 -181.000000,122.000000 -273.000000,122.000000 -332.000000C122.000000 -396.000000,122.000000 -462.000000,130.000000 -516.000000C149.000000 -635.000000,224.000000 -644.000000,249.000000 -644.000000C282.000000 -644.000000,348.000000 -626.000000,367.000000 -527.000000C377.000000 -471.000000,377.000000 -395.000000,377.000000 -332.000000C377.000000 -257.000000,377.000000 -189.000000,366.000000 -125.000000C351.000000 -30.000000,294.000000 -0.000000,249.000000 -0.000000"></path>
    </g>
    <g transform="scale(0.009963,0.009963)" id="GLYPHcmr10_49">
      <path style="fill-rule: evenodd;" d="M294.000000 -640.000000C294.000000 -664.000000,294.000000 -666.000000,271.000000 -666.000000C209.000000 -602.000000,121.000000 -602.000000,89.000000 -602.000000L89.000000 -571.000000C109.000000 -571.000000,168.000000 -571.000000,220.000000 -597.000000L220.000000 -79.000000C220.000000 -43.000000,217.000000 -31.000000,127.000000 -31.000000L95.000000 -31.000000L95.000000 -0.000000L257.000000 -0.000000L130.000000 -3.000000L217.000000 -3.000000L257.000000 -3.000000L297.000000 -3.000000L384.000000 -3.000000L419.000000 -0.000000L419.000000 -31.000000L387.000000 -31.000000C297.000000 -31.000000,294.000000 -42.000000,294.000000 -79.000000"></path>
    </g>
    <g transform="scale(0.009963,0.009963)" id="GLYPHcmr10_50">
      <path style="fill-rule: evenodd;" d="M127.000000 -77.000000L233.000000 -180.000000C389.000000 -318.000000,449.000000 -372.000000,449.000000 -472.000000C449.000000 -586.000000,359.000000 -666.000000,237.000000 -666.000000C124.000000 -666.000000,50.000000 -574.000000,50.000000 -485.000000C50.000000 -429.000000,100.000000 -429.000000,103.000000 -429.000000C120.000000 -429.000000,155.000000 -441.000000,155.000000 -482.000000C155.000000 -508.000000,137.000000 -534.000000,102.000000 -534.000000C94.000000 -534.000000,92.000000 -534.000000,89.000000 -533.000000C112.000000 -598.000000,166.000000 -635.000000,224.000000 -635.000000C315.000000 -635.000000,358.000000 -554.000000,358.000000 -472.000000C358.000000 -392.000000,308.000000 -313.000000,253.000000 -251.000000L61.000000 -37.000000C50.000000 -26.000000,50.000000 -24.000000,50.000000 -0.000000L421.000000 -0.000000L449.000000 -174.000000L424.000000 -174.000000C419.000000 -144.000000,412.000000 -100.000000,402.000000 -85.000000C395.000000 -77.000000,329.000000 -77.000000,307.000000 -77.000000"></path>
    </g>
    <g transform="scale(0.009963,0.009963)" id="GLYPHcmr10_51">
      <path style="fill-rule: evenodd;" d="M290.000000 -352.000000C372.000000 -379.000000,430.000000 -449.000000,430.000000 -528.000000C430.000000 -610.000000,342.000000 -666.000000,246.000000 -666.000000C145.000000 -666.000000,69.000000 -606.000000,69.000000 -530.000000C69.000000 -497.000000,91.000000 -478.000000,120.000000 -478.000000C151.000000 -478.000000,171.000000 -500.000000,171.000000 -529.000000C171.000000 -579.000000,124.000000 -579.000000,109.000000 -579.000000C140.000000 -628.000000,206.000000 -641.000000,242.000000 -641.000000C283.000000 -641.000000,338.000000 -619.000000,338.000000 -529.000000C338.000000 -517.000000,336.000000 -459.000000,310.000000 -415.000000C280.000000 -367.000000,246.000000 -364.000000,221.000000 -363.000000C213.000000 -362.000000,189.000000 -360.000000,182.000000 -360.000000C174.000000 -359.000000,167.000000 -358.000000,167.000000 -348.000000C167.000000 -337.000000,174.000000 -337.000000,191.000000 -337.000000L235.000000 -337.000000C317.000000 -337.000000,354.000000 -269.000000,354.000000 -171.000000C354.000000 -35.000000,285.000000 -6.000000,241.000000 -6.000000C198.000000 -6.000000,123.000000 -23.000000,88.000000 -82.000000C123.000000 -77.000000,154.000000 -99.000000,154.000000 -137.000000C154.000000 -173.000000,127.000000 -193.000000,98.000000 -193.000000C74.000000 -193.000000,42.000000 -179.000000,42.000000 -135.000000C42.000000 -44.000000,135.000000 22.000000,244.000000 22.000000C366.000000 22.000000,457.000000 -69.000000,457.000000 -171.000000C457.000000 -253.000000,394.000000 -331.000000,290.000000 -352.000000"></path>
    </g>
    <g transform="scale(0.009963,0.009963)" id="GLYPHcmr10_52">
      <path style="fill-rule: evenodd;" d="M294.000000 -165.000000L294.000000 -78.000000C294.000000 -42.000000,292.000000 -31.000000,218.000000 -31.000000L197.000000 -31.000000L197.000000 -0.000000L332.000000 -0.000000L238.000000 -3.000000L290.000000 -3.000000L332.000000 -3.000000L374.000000 -3.000000L427.000000 -3.000000L468.000000 -0.000000L468.000000 -31.000000L447.000000 -31.000000C373.000000 -31.000000,371.000000 -42.000000,371.000000 -78.000000L371.000000 -165.000000L471.000000 -165.000000L471.000000 -196.000000L371.000000 -196.000000L371.000000 -651.000000C371.000000 -671.000000,371.000000 -677.000000,355.000000 -677.000000C346.000000 -677.000000,343.000000 -677.000000,335.000000 -665.000000L28.000000 -196.000000L28.000000 -165.000000M300.000000 -196.000000L56.000000 -196.000000L300.000000 -569.000000"></path>
    </g>
    <g transform="scale(0.009963,0.009963)" id="GLYPHcmr10_53">
      <path style="fill-rule: evenodd;" d="M449.000000 -201.000000C449.000000 -320.000000,367.000000 -420.000000,259.000000 -420.000000C211.000000 -420.000000,168.000000 -404.000000,132.000000 -369.000000L132.000000 -564.000000C152.000000 -558.000000,185.000000 -551.000000,217.000000 -551.000000C340.000000 -551.000000,410.000000 -642.000000,410.000000 -655.000000C410.000000 -661.000000,407.000000 -666.000000,400.000000 -666.000000C399.000000 -666.000000,397.000000 -666.000000,392.000000 -663.000000C372.000000 -654.000000,323.000000 -634.000000,256.000000 -634.000000C216.000000 -634.000000,170.000000 -641.000000,123.000000 -662.000000C115.000000 -665.000000,113.000000 -665.000000,111.000000 -665.000000C101.000000 -665.000000,101.000000 -657.000000,101.000000 -641.000000L101.000000 -345.000000C101.000000 -327.000000,101.000000 -319.000000,115.000000 -319.000000C122.000000 -319.000000,124.000000 -322.000000,128.000000 -328.000000C139.000000 -344.000000,176.000000 -398.000000,257.000000 -398.000000C309.000000 -398.000000,334.000000 -352.000000,342.000000 -334.000000C358.000000 -297.000000,360.000000 -258.000000,360.000000 -208.000000C360.000000 -173.000000,360.000000 -113.000000,336.000000 -71.000000C312.000000 -32.000000,275.000000 -6.000000,229.000000 -6.000000C156.000000 -6.000000,99.000000 -59.000000,82.000000 -118.000000C85.000000 -117.000000,88.000000 -116.000000,99.000000 -116.000000C132.000000 -116.000000,149.000000 -141.000000,149.000000 -165.000000C149.000000 -189.000000,132.000000 -214.000000,99.000000 -214.000000C85.000000 -214.000000,50.000000 -207.000000,50.000000 -161.000000C50.000000 -75.000000,119.000000 22.000000,231.000000 22.000000C347.000000 22.000000,449.000000 -74.000000,449.000000 -201.000000"></path>
    </g>
    <g transform="scale(0.009963,0.009963)" id="GLYPHcmr10_54">
      <path style="fill-rule: evenodd;" d="M132.000000 -328.000000L132.000000 -352.000000C132.000000 -605.000000,256.000000 -641.000000,307.000000 -641.000000C331.000000 -641.000000,373.000000 -635.000000,395.000000 -601.000000C380.000000 -601.000000,340.000000 -601.000000,340.000000 -556.000000C340.000000 -525.000000,364.000000 -510.000000,386.000000 -510.000000C402.000000 -510.000000,432.000000 -519.000000,432.000000 -558.000000C432.000000 -618.000000,388.000000 -666.000000,305.000000 -666.000000C177.000000 -666.000000,42.000000 -537.000000,42.000000 -316.000000C42.000000 -49.000000,158.000000 22.000000,251.000000 22.000000C362.000000 22.000000,457.000000 -72.000000,457.000000 -204.000000C457.000000 -331.000000,368.000000 -427.000000,257.000000 -427.000000C189.000000 -427.000000,152.000000 -376.000000,132.000000 -328.000000M251.000000 -6.000000C188.000000 -6.000000,158.000000 -66.000000,152.000000 -81.000000C134.000000 -128.000000,134.000000 -208.000000,134.000000 -226.000000C134.000000 -304.000000,166.000000 -404.000000,256.000000 -404.000000C272.000000 -404.000000,318.000000 -404.000000,349.000000 -342.000000C367.000000 -305.000000,367.000000 -254.000000,367.000000 -205.000000C367.000000 -157.000000,367.000000 -107.000000,350.000000 -71.000000C320.000000 -11.000000,274.000000 -6.000000,251.000000 -6.000000"></path>
    </g>
    <g transform="scale(0.009963,0.009963)" id="GLYPHcmr10_55">
      <path style="fill-rule: evenodd;" d="M476.000000 -609.000000C485.000000 -621.000000,485.000000 -623.000000,485.000000 -644.000000L242.000000 -644.000000C120.000000 -644.000000,118.000000 -657.000000,114.000000 -676.000000L89.000000 -676.000000L56.000000 -470.000000L81.000000 -470.000000C84.000000 -486.000000,93.000000 -549.000000,106.000000 -561.000000C113.000000 -567.000000,191.000000 -567.000000,204.000000 -567.000000L411.000000 -567.000000C400.000000 -551.000000,321.000000 -442.000000,299.000000 -409.000000C209.000000 -274.000000,176.000000 -135.000000,176.000000 -33.000000C176.000000 -23.000000,176.000000 22.000000,222.000000 22.000000C268.000000 22.000000,268.000000 -23.000000,268.000000 -33.000000L268.000000 -84.000000C268.000000 -139.000000,271.000000 -194.000000,279.000000 -248.000000C283.000000 -271.000000,297.000000 -357.000000,341.000000 -419.000000"></path>
    </g>
    <g transform="scale(0.009963,0.009963)" id="GLYPHcmr10_56">
      <path style="fill-rule: evenodd;" d="M163.000000 -457.000000C117.000000 -487.000000,113.000000 -521.000000,113.000000 -538.000000C113.000000 -599.000000,178.000000 -641.000000,249.000000 -641.000000C322.000000 -641.000000,386.000000 -589.000000,386.000000 -517.000000C386.000000 -460.000000,347.000000 -412.000000,287.000000 -377.000000M309.000000 -362.000000C381.000000 -399.000000,430.000000 -451.000000,430.000000 -517.000000C430.000000 -609.000000,341.000000 -666.000000,250.000000 -666.000000C150.000000 -666.000000,69.000000 -592.000000,69.000000 -499.000000C69.000000 -481.000000,71.000000 -436.000000,113.000000 -389.000000C124.000000 -377.000000,161.000000 -352.000000,186.000000 -335.000000C128.000000 -306.000000,42.000000 -250.000000,42.000000 -151.000000C42.000000 -45.000000,144.000000 22.000000,249.000000 22.000000C362.000000 22.000000,457.000000 -61.000000,457.000000 -168.000000C457.000000 -204.000000,446.000000 -249.000000,408.000000 -291.000000C389.000000 -312.000000,373.000000 -322.000000,309.000000 -362.000000M209.000000 -320.000000L332.000000 -242.000000C360.000000 -223.000000,407.000000 -193.000000,407.000000 -132.000000C407.000000 -58.000000,332.000000 -6.000000,250.000000 -6.000000C164.000000 -6.000000,92.000000 -68.000000,92.000000 -151.000000C92.000000 -209.000000,124.000000 -273.000000,209.000000 -320.000000"></path>
    </g>
    <g transform="scale(0.009963,0.009963)" id="GLYPHcmr10_57">
      <path style="fill-rule: evenodd;" d="M367.000000 -318.000000L367.000000 -286.000000C367.000000 -52.000000,263.000000 -6.000000,205.000000 -6.000000C188.000000 -6.000000,134.000000 -8.000000,107.000000 -42.000000C151.000000 -42.000000,159.000000 -71.000000,159.000000 -88.000000C159.000000 -119.000000,135.000000 -134.000000,113.000000 -134.000000C97.000000 -134.000000,67.000000 -125.000000,67.000000 -86.000000C67.000000 -19.000000,121.000000 22.000000,206.000000 22.000000C335.000000 22.000000,457.000000 -114.000000,457.000000 -329.000000C457.000000 -598.000000,342.000000 -666.000000,253.000000 -666.000000C198.000000 -666.000000,149.000000 -648.000000,106.000000 -603.000000C65.000000 -558.000000,42.000000 -516.000000,42.000000 -441.000000C42.000000 -316.000000,130.000000 -218.000000,242.000000 -218.000000C303.000000 -218.000000,344.000000 -260.000000,367.000000 -318.000000M243.000000 -241.000000C227.000000 -241.000000,181.000000 -241.000000,150.000000 -304.000000C132.000000 -341.000000,132.000000 -391.000000,132.000000 -440.000000C132.000000 -494.000000,132.000000 -541.000000,153.000000 -578.000000C180.000000 -628.000000,218.000000 -641.000000,253.000000 -641.000000C299.000000 -641.000000,332.000000 -607.000000,349.000000 -562.000000C361.000000 -530.000000,365.000000 -467.000000,365.000000 -421.000000C365.000000 -338.000000,331.000000 -241.000000,243.000000 -241.000000"></path>
    </g>
  </defs>
  <path d="M133.223358 146.154404C133.223358 145.361710,132.908417 144.601562,132.347931 144.041092C131.787460 143.480606,131.027313 143.165665,130.234619 143.165665C129.441925 143.165665,128.681778 143.480606,128.121307 144.041092C127.560822 144.601562,127.245880 145.361710,127.245880 146.154404C127.245880 146.947098,127.560822 147.707245,128.121307 148.267715C128.681778 148.828201,129.441925 149.143143,130.234619 149.143143C131.027313 149.143143,131.787460 148.828201,132.347931 148.267715C132.908417 147.707245,133.223358 146.947098,133.223358 146.154404Z" style="fill: rgb(100.000000%,100.000000%,100.000000%);stroke: none;"></path>
  <path d="M122.764954 136.921280C122.764954 136.128586,122.450012 135.368439,121.889526 134.807968C121.329056 134.247482,120.568909 133.932541,119.776215 133.932541C118.983521 133.932541,118.223373 134.247482,117.662903 134.807968C117.102417 135.368439,116.787476 136.128586,116.787476 136.921280C116.787476 137.713974,117.102417 138.474121,117.662903 139.034592C118.223373 139.595078,118.983521 139.910019,119.776215 139.910019C120.568909 139.910019,121.329056 139.595078,121.889526 139.034592C122.450012 138.474121,122.764954 137.713974,122.764954 136.921280Z" style="fill: rgb(100.000000%,100.000000%,100.000000%);stroke: none;"></path>
  <path d="M181.145996 136.481247C181.145996 135.688553,180.831055 134.928406,180.270569 134.367935C179.710098 133.807449,178.949951 133.492508,178.157257 133.492508C177.364563 133.492508,176.604416 133.807449,176.043945 134.367935C175.483459 134.928406,175.168518 135.688553,175.168518 136.481247C175.168518 137.273941,175.483459 138.034088,176.043945 138.594559C176.604416 139.155045,177.364563 139.469986,178.157257 139.469986C178.949951 139.469986,179.710098 139.155045,180.270569 138.594559C180.831055 138.034088,181.145996 137.273941,181.145996 136.481247Z" style="fill: rgb(100.000000%,100.000000%,100.000000%);stroke: none;"></path>
  <path d="M147.917511 148.875626C147.917511 148.082932,147.602570 147.322784,147.042084 146.762314C146.481613 146.201828,145.721466 145.886887,144.928772 145.886887C144.136078 145.886887,143.375931 146.201828,142.815460 146.762314C142.254974 147.322784,141.940033 148.082932,141.940033 148.875626C141.940033 149.668320,142.254974 150.428467,142.815460 150.988937C143.375931 151.549423,144.136078 151.864365,144.928772 151.864365C145.721466 151.864365,146.481613 151.549423,147.042084 150.988937C147.602570 150.428467,147.917511 149.668320,147.917511 148.875626Z" style="fill: rgb(100.000000%,100.000000%,100.000000%);stroke: none;"></path>
  <path d="M192.735046 69.976471C192.735046 69.183777,192.420105 68.423630,191.859619 67.863159C191.299149 67.302673,190.539001 66.987732,189.746307 66.987732C188.953613 66.987732,188.193466 67.302673,187.632996 67.863159C187.072510 68.423630,186.757568 69.183777,186.757568 69.976471C186.757568 70.769165,187.072510 71.529312,187.632996 72.089783C188.193466 72.650269,188.953613 72.965210,189.746307 72.965210C190.539001 72.965210,191.299149 72.650269,191.859619 72.089783C192.420105 71.529312,192.735046 70.769165,192.735046 69.976471Z" style="fill: rgb(100.000000%,100.000000%,100.000000%);stroke: none;"></path>
  <path d="M191.123413 114.938858C191.123413 114.146164,190.808472 113.386017,190.247986 112.825546C189.687515 112.265060,188.927368 111.950119,188.134674 111.950119C187.341980 111.950119,186.581833 112.265060,186.021362 112.825546C185.460876 113.386017,185.145935 114.146164,185.145935 114.938858C185.145935 115.731552,185.460876 116.491699,186.021362 117.052170C186.581833 117.612656,187.341980 117.927597,188.134674 117.927597C188.927368 117.927597,189.687515 117.612656,190.247986 117.052170C190.808472 116.491699,191.123413 115.731552,191.123413 114.938858Z" style="fill: rgb(100.000000%,100.000000%,100.000000%);stroke: none;"></path>
  <path d="M148.022003 41.207306C148.022003 40.414612,147.707062 39.654465,147.146576 39.093994C146.586105 38.533508,145.825958 38.218567,145.033264 38.218567C144.240570 38.218567,143.480423 38.533508,142.919952 39.093994C142.359467 39.654465,142.044525 40.414612,142.044525 41.207306C142.044525 42.000000,142.359467 42.760147,142.919952 43.320618C143.480423 43.881104,144.240570 44.196045,145.033264 44.196045C145.825958 44.196045,146.586105 43.881104,147.146576 43.320618C147.707062 42.760147,148.022003 42.000000,148.022003 41.207306Z" style="fill: rgb(100.000000%,100.000000%,100.000000%);stroke: none;"></path>
  <path d="M182.279037 46.995087C182.279037 46.202393,181.964096 45.442245,181.403610 44.881775C180.843140 44.321289,180.082993 44.006348,179.290298 44.006348C178.497604 44.006348,177.737457 44.321289,177.176987 44.881775C176.616501 45.442245,176.301559 46.202393,176.301559 46.995087C176.301559 47.787781,176.616501 48.547928,177.176987 49.108398C177.737457 49.668884,178.497604 49.983826,179.290298 49.983826C180.082993 49.983826,180.843140 49.668884,181.403610 49.108398C181.964096 48.547928,182.279037 47.787781,182.279037 46.995087Z" style="fill: rgb(100.000000%,100.000000%,100.000000%);stroke: none;"></path>
  <path d="M109.938034 42.429108C109.938034 41.636414,109.623093 40.876266,109.062607 40.315796C108.502136 39.755310,107.741989 39.440369,106.949295 39.440369C106.156601 39.440369,105.396454 39.755310,104.835983 40.315796C104.275497 40.876266,103.960556 41.636414,103.960556 42.429108C103.960556 43.221802,104.275497 43.981949,104.835983 44.542419C105.396454 45.102905,106.156601 45.417847,106.949295 45.417847C107.741989 45.417847,108.502136 45.102905,109.062607 44.542419C109.623093 43.981949,109.938034 43.221802,109.938034 42.429108Z" style="fill: rgb(100.000000%,100.000000%,100.000000%);stroke: none;"></path>
  <path d="M134.990540 48.553864C134.990540 47.761169,134.675598 47.001022,134.115112 46.440552C133.554642 45.880066,132.794495 45.565125,132.001801 45.565125C131.209106 45.565125,130.448959 45.880066,129.888489 46.440552C129.328003 47.001022,129.013062 47.761169,129.013062 48.553864C129.013062 49.346558,129.328003 50.106705,129.888489 50.667175C130.448959 51.227661,131.209106 51.542603,132.001801 51.542603C132.794495 51.542603,133.554642 51.227661,134.115112 50.667175C134.675598 50.106705,134.990540 49.346558,134.990540 48.553864Z" style="fill: rgb(100.000000%,100.000000%,100.000000%);stroke: none;"></path>
  <path d="M69.652695 21.555954C69.652695 20.763260,69.337753 20.003113,68.777267 19.442642C68.216797 18.882156,67.456650 18.567215,66.663956 18.567215C65.871262 18.567215,65.111115 18.882156,64.550644 19.442642C63.990158 20.003113,63.675217 20.763260,63.675217 21.555954C63.675217 22.348648,63.990158 23.108795,64.550644 23.669266C65.111115 24.229752,65.871262 24.544693,66.663956 24.544693C67.456650 24.544693,68.216797 24.229752,68.777267 23.669266C69.337753 23.108795,69.652695 22.348648,69.652695 21.555954Z" style="fill: rgb(100.000000%,100.000000%,100.000000%);stroke: none;"></path>
  <path d="M101.804672 30.799194C101.804672 30.006500,101.489731 29.246353,100.929245 28.685883C100.368774 28.125397,99.608627 27.810455,98.815933 27.810455C98.023239 27.810455,97.263092 28.125397,96.702621 28.685883C96.142136 29.246353,95.827194 30.006500,95.827194 30.799194C95.827194 31.591888,96.142136 32.352036,96.702621 32.912506C97.263092 33.472992,98.023239 33.787933,98.815933 33.787933C99.608627 33.787933,100.368774 33.472992,100.929245 32.912506C101.489731 32.352036,101.804672 31.591888,101.804672 30.799194Z" style="fill: rgb(100.000000%,100.000000%,100.000000%);stroke: none;"></path>
  <path d="M24.697159 71.008163C24.697159 70.215469,24.382217 69.455322,23.821732 68.894852C23.261261 68.334366,22.501114 68.019424,21.708420 68.019424C20.915726 68.019424,20.155579 68.334366,19.595108 68.894852C19.034622 69.455322,18.719681 70.215469,18.719681 71.008163C18.719681 71.800858,19.034622 72.561005,19.595108 73.121475C20.155579 73.681961,20.915726 73.996902,21.708420 73.996902C22.501114 73.996902,23.261261 73.681961,23.821732 73.121475C24.382217 72.561005,24.697159 71.800858,24.697159 71.008163Z" style="fill: rgb(100.000000%,100.000000%,100.000000%);stroke: none;"></path>
  <path d="M52.084534 37.830994C52.084534 37.038300,51.769592 36.278152,51.209106 35.717682C50.648636 35.157196,49.888489 34.842255,49.095795 34.842255C48.303101 34.842255,47.542953 35.157196,46.982483 35.717682C46.421997 36.278152,46.107056 37.038300,46.107056 37.830994C46.107056 38.623688,46.421997 39.383835,46.982483 39.944305C47.542953 40.504791,48.303101 40.819733,49.095795 40.819733C49.888489 40.819733,50.648636 40.504791,51.209106 39.944305C51.769592 39.383835,52.084534 38.623688,52.084534 37.830994Z" style="fill: rgb(100.000000%,100.000000%,100.000000%);stroke: none;"></path>
  <path d="M31.811234 118.922821C31.811234 118.130127,31.496292 117.369980,30.935806 116.809509C30.375336 116.249023,29.615189 115.934082,28.822495 115.934082C28.029800 115.934082,27.269653 116.249023,26.709183 116.809509C26.148697 117.369980,25.833755 118.130127,25.833755 118.922821C25.833755 119.715515,26.148697 120.475662,26.709183 121.036133C27.269653 121.596619,28.029800 121.911560,28.822495 121.911560C29.615189 121.911560,30.375336 121.596619,30.935806 121.036133C31.496292 120.475662,31.811234 119.715515,31.811234 118.922821Z" style="fill: rgb(100.000000%,100.000000%,100.000000%);stroke: none;"></path>
  <path d="M13.112320 91.510071C13.112320 90.717377,12.797379 89.957230,12.236893 89.396759C11.676422 88.836273,10.916275 88.521332,10.123581 88.521332C9.330887 88.521332,8.570740 88.836273,8.010269 89.396759C7.449783 89.957230,7.134842 90.717377,7.134842 91.510071C7.134842 92.302765,7.449783 93.062912,8.010269 93.623383C8.570740 94.183868,9.330887 94.498810,10.123581 94.498810C10.916275 94.498810,11.676422 94.183868,12.236893 93.623383C12.797379 93.062912,13.112320 92.302765,13.112320 91.510071Z" style="fill: rgb(100.000000%,100.000000%,100.000000%);stroke: none;"></path>
  <path d="M60.613098 143.680191C60.613098 142.887497,60.298157 142.127350,59.737671 141.566879C59.177200 141.006393,58.417053 140.691452,57.624359 140.691452C56.831665 140.691452,56.071518 141.006393,55.511047 141.566879C54.950562 142.127350,54.635620 142.887497,54.635620 143.680191C54.635620 144.472885,54.950562 145.233032,55.511047 145.793503C56.071518 146.353989,56.831665 146.668930,57.624359 146.668930C58.417053 146.668930,59.177200 146.353989,59.737671 145.793503C60.298157 145.233032,60.613098 144.472885,60.613098 143.680191Z" style="fill: rgb(100.000000%,100.000000%,100.000000%);stroke: none;"></path>
  <path d="M47.320663 121.460175C47.320663 120.667480,47.005722 119.907333,46.445236 119.346863C45.884766 118.786377,45.124619 118.471436,44.331924 118.471436C43.539230 118.471436,42.779083 118.786377,42.218613 119.346863C41.658127 119.907333,41.343185 120.667480,41.343185 121.460175C41.343185 122.252869,41.658127 123.013016,42.218613 123.573486C42.779083 124.133972,43.539230 124.448914,44.331924 124.448914C45.124619 124.448914,45.884766 124.133972,46.445236 123.573486C47.005722 123.013016,47.320663 122.252869,47.320663 121.460175Z" style="fill: rgb(100.000000%,100.000000%,100.000000%);stroke: none;"></path>
  <path d="M69.720230 189.627792C69.720230 188.835098,69.405289 188.074951,68.844803 187.514481C68.284332 186.953995,67.524185 186.639053,66.731491 186.639053C65.938797 186.639053,65.178650 186.953995,64.618179 187.514481C64.057693 188.074951,63.742752 188.835098,63.742752 189.627792C63.742752 190.420486,64.057693 191.180634,64.618179 191.741104C65.178650 192.301590,65.938797 192.616531,66.731491 192.616531C67.524185 192.616531,68.284332 192.301590,68.844803 191.741104C69.405289 191.180634,69.720230 190.420486,69.720230 189.627792Z" style="fill: rgb(100.000000%,100.000000%,100.000000%);stroke: none;"></path>
  <path d="M56.248184 157.593475C56.248184 156.800781,55.933243 156.040634,55.372757 155.480164C54.812286 154.919678,54.052139 154.604736,53.259445 154.604736C52.466751 154.604736,51.706604 154.919678,51.146133 155.480164C50.585648 156.040634,50.270706 156.800781,50.270706 157.593475C50.270706 158.386169,50.585648 159.146317,51.146133 159.706787C51.706604 160.267273,52.466751 160.582214,53.259445 160.582214C54.052139 160.582214,54.812286 160.267273,55.372757 159.706787C55.933243 159.146317,56.248184 158.386169,56.248184 157.593475Z" style="fill: rgb(100.000000%,100.000000%,100.000000%);stroke: none;"></path>
  <path d="M141.252335 179.222183C141.252335 178.429489,140.937393 177.669342,140.376907 177.108871C139.816437 176.548386,139.056290 176.233444,138.263596 176.233444C137.470901 176.233444,136.710754 176.548386,136.150284 177.108871C135.589798 177.669342,135.274857 178.429489,135.274857 179.222183C135.274857 180.014877,135.589798 180.775024,136.150284 181.335495C136.710754 181.895981,137.470901 182.210922,138.263596 182.210922C139.056290 182.210922,139.816437 181.895981,140.376907 181.335495C140.937393 180.775024,141.252335 180.014877,141.252335 179.222183Z" style="fill: rgb(100.000000%,100.000000%,100.000000%);stroke: none;"></path>
  <path d="M96.134232 191.985046C96.134232 191.192352,95.819290 190.432205,95.258804 189.871735C94.698334 189.311249,93.938187 188.996307,93.145493 188.996307C92.352798 188.996307,91.592651 189.311249,91.032181 189.871735C90.471695 190.432205,90.156754 191.192352,90.156754 191.985046C90.156754 192.777740,90.471695 193.537888,91.032181 194.098358C91.592651 194.658844,92.352798 194.973785,93.145493 194.973785C93.938187 194.973785,94.698334 194.658844,95.258804 194.098358C95.819290 193.537888,96.134232 192.777740,96.134232 191.985046Z" style="fill: rgb(100.000000%,100.000000%,100.000000%);stroke: none;"></path>
  <path d="M160.478256 131.172928C160.478256 130.380234,160.163315 129.620087,159.602829 129.059616C159.042358 128.499130,158.282211 128.184189,157.489517 128.184189C156.696823 128.184189,155.936676 128.499130,155.376205 129.059616C154.815720 129.620087,154.500778 130.380234,154.500778 131.172928C154.500778 131.965622,154.815720 132.725769,155.376205 133.286240C155.936676 133.846725,156.696823 134.161667,157.489517 134.161667C158.282211 134.161667,159.042358 133.846725,159.602829 133.286240C160.163315 132.725769,160.478256 131.965622,160.478256 131.172928Z" style="fill: rgb(100.000000%,100.000000%,100.000000%);stroke: none;"></path>
  <path d="M161.837921 165.337418C161.837921 164.544724,161.522980 163.784576,160.962494 163.224106C160.402023 162.663620,159.641876 162.348679,158.849182 162.348679C158.056488 162.348679,157.296341 162.663620,156.735870 163.224106C156.175385 163.784576,155.860443 164.544724,155.860443 165.337418C155.860443 166.130112,156.175385 166.890259,156.735870 167.450729C157.296341 168.011215,158.056488 168.326157,158.849182 168.326157C159.641876 168.326157,160.402023 168.011215,160.962494 167.450729C161.522980 166.890259,161.837921 166.130112,161.837921 165.337418Z" style="fill: rgb(100.000000%,100.000000%,100.000000%);stroke: none;"></path>
  <path d="M135.084610 110.448059C135.084610 109.655365,134.769669 108.895218,134.209183 108.334747C133.648712 107.774261,132.888565 107.459320,132.095871 107.459320C131.303177 107.459320,130.543030 107.774261,129.982559 108.334747C129.422073 108.895218,129.107132 109.655365,129.107132 110.448059C129.107132 111.240753,129.422073 112.000900,129.982559 112.561371C130.543030 113.121857,131.303177 113.436798,132.095871 113.436798C132.888565 113.436798,133.648712 113.121857,134.209183 112.561371C134.769669 112.000900,135.084610 111.240753,135.084610 110.448059Z" style="fill: rgb(100.000000%,100.000000%,100.000000%);stroke: none;"></path>
  <path d="M151.387711 120.856583C151.387711 120.063889,151.072769 119.303741,150.512283 118.743271C149.951813 118.182785,149.191666 117.867844,148.398972 117.867844C147.606277 117.867844,146.846130 118.182785,146.285660 118.743271C145.725174 119.303741,145.410233 120.063889,145.410233 120.856583C145.410233 121.649277,145.725174 122.409424,146.285660 122.969894C146.846130 123.530380,147.606277 123.845322,148.398972 123.845322C149.191666 123.845322,149.951813 123.530380,150.512283 122.969894C151.072769 122.409424,151.387711 121.649277,151.387711 120.856583Z" style="fill: rgb(100.000000%,100.000000%,100.000000%);stroke: none;"></path>
  <path d="M120.162750 104.020645C120.162750 103.227951,119.847809 102.467804,119.287323 101.907333C118.726852 101.346848,117.966705 101.031906,117.174011 101.031906C116.381317 101.031906,115.621170 101.346848,115.060699 101.907333C114.500214 102.467804,114.185272 103.227951,114.185272 104.020645C114.185272 104.813339,114.500214 105.573486,115.060699 106.133957C115.621170 106.694443,116.381317 107.009384,117.174011 107.009384C117.966705 107.009384,118.726852 106.694443,119.287323 106.133957C119.847809 105.573486,120.162750 104.813339,120.162750 104.020645Z" style="fill: rgb(100.000000%,100.000000%,100.000000%);stroke: none;"></path>
  <path d="M129.287460 107.739700C129.287460 106.947006,128.972519 106.186859,128.412033 105.626389C127.851562 105.065903,127.091415 104.750961,126.298721 104.750961C125.506027 104.750961,124.745880 105.065903,124.185410 105.626389C123.624924 106.186859,123.309982 106.947006,123.309982 107.739700C123.309982 108.532394,123.624924 109.292542,124.185410 109.853012C124.745880 110.413498,125.506027 110.728439,126.298721 110.728439C127.091415 110.728439,127.851562 110.413498,128.412033 109.853012C128.972519 109.292542,129.287460 108.532394,129.287460 107.739700Z" style="fill: rgb(100.000000%,100.000000%,100.000000%);stroke: none;"></path>
  <path d="M112.079834 98.597534C112.079834 97.804840,111.764893 97.044693,111.204407 96.484222C110.643936 95.923737,109.883789 95.608795,109.091095 95.608795C108.298401 95.608795,107.538254 95.923737,106.977783 96.484222C106.417297 97.044693,106.102356 97.804840,106.102356 98.597534C106.102356 99.390228,106.417297 100.150375,106.977783 100.710846C107.538254 101.271332,108.298401 101.586273,109.091095 101.586273C109.883789 101.586273,110.643936 101.271332,111.204407 100.710846C111.764893 100.150375,112.079834 99.390228,112.079834 98.597534Z" style="fill: rgb(100.000000%,100.000000%,100.000000%);stroke: none;"></path>
  <path d="M116.863525 102.766876C116.863525 101.974182,116.548584 101.214035,115.988098 100.653564C115.427628 100.093079,114.667480 99.778137,113.874786 99.778137C113.082092 99.778137,112.321945 100.093079,111.761475 100.653564C111.200989 101.214035,110.886047 101.974182,110.886047 102.766876C110.886047 103.559570,111.200989 104.319717,111.761475 104.880188C112.321945 105.440674,113.082092 105.755615,113.874786 105.755615C114.667480 105.755615,115.427628 105.440674,115.988098 104.880188C116.548584 104.319717,116.863525 103.559570,116.863525 102.766876Z" style="fill: rgb(100.000000%,100.000000%,100.000000%);stroke: none;"></path>
  <path d="M107.595657 91.750229C107.595657 90.957535,107.280716 90.197388,106.720230 89.636917C106.159760 89.076431,105.399612 88.761490,104.606918 88.761490C103.814224 88.761490,103.054077 89.076431,102.493607 89.636917C101.933121 90.197388,101.618179 90.957535,101.618179 91.750229C101.618179 92.542923,101.933121 93.303070,102.493607 93.863541C103.054077 94.424026,103.814224 94.738968,104.606918 94.738968C105.399612 94.738968,106.159760 94.424026,106.720230 93.863541C107.280716 93.303070,107.595657 92.542923,107.595657 91.750229Z" style="fill: rgb(100.000000%,100.000000%,100.000000%);stroke: none;"></path>
  <path d="M110.539795 96.144379C110.539795 95.351685,110.224854 94.591537,109.664368 94.031067C109.103897 93.470581,108.343750 93.155640,107.551056 93.155640C106.758362 93.155640,105.998215 93.470581,105.437744 94.031067C104.877258 94.591537,104.562317 95.351685,104.562317 96.144379C104.562317 96.937073,104.877258 97.697220,105.437744 98.257690C105.998215 98.818176,106.758362 99.133118,107.551056 99.133118C108.343750 99.133118,109.103897 98.818176,109.664368 98.257690C110.224854 97.697220,110.539795 96.937073,110.539795 96.144379Z" style="fill: rgb(100.000000%,100.000000%,100.000000%);stroke: none;"></path>
  <path d="M103.573547 85.261993C103.573547 84.469299,103.258606 83.709152,102.698120 83.148682C102.137650 82.588196,101.377502 82.273254,100.584808 82.273254C99.792114 82.273254,99.031967 82.588196,98.471497 83.148682C97.911011 83.709152,97.596069 84.469299,97.596069 85.261993C97.596069 86.054688,97.911011 86.814835,98.471497 87.375305C99.031967 87.935791,99.792114 88.250732,100.584808 88.250732C101.377502 88.250732,102.137650 87.935791,102.698120 87.375305C103.258606 86.814835,103.573547 86.054688,103.573547 85.261993Z" style="fill: rgb(100.000000%,100.000000%,100.000000%);stroke: none;"></path>
  <path d="M106.190216 89.769226C106.190216 88.976532,105.875275 88.216385,105.314789 87.655914C104.754318 87.095428,103.994171 86.780487,103.201477 86.780487C102.408783 86.780487,101.648636 87.095428,101.088165 87.655914C100.527679 88.216385,100.212738 88.976532,100.212738 89.769226C100.212738 90.561920,100.527679 91.322067,101.088165 91.882538C101.648636 92.443024,102.408783 92.757965,103.201477 92.757965C103.994171 92.757965,104.754318 92.443024,105.314789 91.882538C105.875275 91.322067,106.190216 90.561920,106.190216 89.769226Z" style="fill: rgb(100.000000%,100.000000%,100.000000%);stroke: none;"></path>
  <path d="M98.599823 74.257263C98.599823 73.464569,98.284882 72.704422,97.724396 72.143951C97.163925 71.583466,96.403778 71.268524,95.611084 71.268524C94.818390 71.268524,94.058243 71.583466,93.497772 72.143951C92.937286 72.704422,92.622345 73.464569,92.622345 74.257263C92.622345 75.049957,92.937286 75.810104,93.497772 76.370575C94.058243 76.931061,94.818390 77.246002,95.611084 77.246002C96.403778 77.246002,97.163925 76.931061,97.724396 76.370575C98.284882 75.810104,98.599823 75.049957,98.599823 74.257263Z" style="fill: rgb(100.000000%,100.000000%,100.000000%);stroke: none;"></path>
  <path d="M102.432449 82.717270C102.432449 81.924576,102.117508 81.164429,101.557022 80.603958C100.996552 80.043472,100.236404 79.728531,99.443710 79.728531C98.651016 79.728531,97.890869 80.043472,97.330399 80.603958C96.769913 81.164429,96.454971 81.924576,96.454971 82.717270C96.454971 83.509964,96.769913 84.270111,97.330399 84.830582C97.890869 85.391068,98.651016 85.706009,99.443710 85.706009C100.236404 85.706009,100.996552 85.391068,101.557022 84.830582C102.117508 84.270111,102.432449 83.509964,102.432449 82.717270Z" style="fill: rgb(100.000000%,100.000000%,100.000000%);stroke: none;"></path>
  <path d="M88.890564 51.029861C88.890564 50.237167,88.575623 49.477020,88.015137 48.916550C87.454666 48.356064,86.694519 48.041122,85.901825 48.041122C85.109131 48.041122,84.348984 48.356064,83.788513 48.916550C83.228027 49.477020,82.913086 50.237167,82.913086 51.029861C82.913086 51.822556,83.228027 52.582703,83.788513 53.143173C84.348984 53.703659,85.109131 54.018600,85.901825 54.018600C86.694519 54.018600,87.454666 53.703659,88.015137 53.143173C88.575623 52.582703,88.890564 51.822556,88.890564 51.029861Z" style="fill: rgb(100.000000%,100.000000%,100.000000%);stroke: none;"></path>
  <path d="M95.861359 68.356400C95.861359 67.563705,95.546417 66.803558,94.985931 66.243088C94.425461 65.682602,93.665314 65.367661,92.872620 65.367661C92.079926 65.367661,91.319778 65.682602,90.759308 66.243088C90.198822 66.803558,89.883881 67.563705,89.883881 68.356400C89.883881 69.149094,90.198822 69.909241,90.759308 70.469711C91.319778 71.030197,92.079926 71.345139,92.872620 71.345139C93.665314 71.345139,94.425461 71.030197,94.985931 70.469711C95.546417 69.909241,95.861359 69.149094,95.861359 68.356400Z" style="fill: rgb(100.000000%,100.000000%,100.000000%);stroke: none;"></path>
  <path d="M95.954193 10.556732C95.954193 9.764038,95.639252 9.003891,95.078766 8.443420C94.518295 7.882935,93.758148 7.567993,92.965454 7.567993C92.172760 7.567993,91.412613 7.882935,90.852142 8.443420C90.291656 9.003891,89.976715 9.764038,89.976715 10.556732C89.976715 11.349426,90.291656 12.109573,90.852142 12.670044C91.412613 13.230530,92.172760 13.545471,92.965454 13.545471C93.758148 13.545471,94.518295 13.230530,95.078766 12.670044C95.639252 12.109573,95.954193 11.349426,95.954193 10.556732Z" style="fill: rgb(100.000000%,100.000000%,100.000000%);stroke: none;"></path>
  <path d="M85.508209 38.722626C85.508209 37.929932,85.193268 37.169785,84.632782 36.609314C84.072311 36.048828,83.312164 35.733887,82.519470 35.733887C81.726776 35.733887,80.966629 36.048828,80.406158 36.609314C79.845673 37.169785,79.530731 37.929932,79.530731 38.722626C79.530731 39.515320,79.845673 40.275467,80.406158 40.835938C80.966629 41.396423,81.726776 41.711365,82.519470 41.711365C83.312164 41.711365,84.072311 41.396423,84.632782 40.835938C85.193268 40.275467,85.508209 39.515320,85.508209 38.722626Z" style="fill: rgb(100.000000%,100.000000%,100.000000%);stroke: none;"></path>
  <path d="M150.364685 10.955719C150.364685 10.163025,150.049744 9.402878,149.489258 8.842407C148.928787 8.281921,148.168640 7.966980,147.375946 7.966980C146.583252 7.966980,145.823105 8.281921,145.262634 8.842407C144.702148 9.402878,144.387207 10.163025,144.387207 10.955719C144.387207 11.748413,144.702148 12.508560,145.262634 13.069031C145.823105 13.629517,146.583252 13.944458,147.375946 13.944458C148.168640 13.944458,148.928787 13.629517,149.489258 13.069031C150.049744 12.508560,150.364685 11.748413,150.364685 10.955719Z" style="fill: rgb(100.000000%,100.000000%,100.000000%);stroke: none;"></path>
  <path d="M114.802780 2.728867C114.802780 1.936172,114.487839 1.176025,113.927353 0.615555C113.366882 0.055069,112.606735 -0.259872,111.814041 -0.259872C111.021347 -0.259872,110.261200 0.055069,109.700729 0.615555C109.140244 1.176025,108.825302 1.936172,108.825302 2.728867C108.825302 3.521561,109.140244 4.281708,109.700729 4.842178C110.261200 5.402664,111.021347 5.717606,111.814041 5.717606C112.606735 5.717606,113.366882 5.402664,113.927353 4.842178C114.487839 4.281708,114.802780 3.521561,114.802780 2.728867Z" style="fill: rgb(100.000000%,100.000000%,100.000000%);stroke: none;"></path>
  <path d="M159.015320 56.075150C159.015320 55.282455,158.700378 54.522308,158.139893 53.961838C157.579422 53.401352,156.819275 53.086411,156.026581 53.086411C155.233887 53.086411,154.473740 53.401352,153.913269 53.961838C153.352783 54.522308,153.037842 55.282455,153.037842 56.075150C153.037842 56.867844,153.352783 57.627991,153.913269 58.188461C154.473740 58.748947,155.233887 59.063889,156.026581 59.063889C156.819275 59.063889,157.579422 58.748947,158.139893 58.188461C158.700378 57.627991,159.015320 56.867844,159.015320 56.075150Z" style="fill: rgb(100.000000%,100.000000%,100.000000%);stroke: none;"></path>
  <path d="M163.673523 26.151154C163.673523 25.358459,163.358582 24.598312,162.798096 24.037842C162.237625 23.477356,161.477478 23.162415,160.684784 23.162415C159.892090 23.162415,159.131943 23.477356,158.571472 24.037842C158.010986 24.598312,157.696045 25.358459,157.696045 26.151154C157.696045 26.943848,158.010986 27.703995,158.571472 28.264465C159.131943 28.824951,159.892090 29.139893,160.684784 29.139893C161.477478 29.139893,162.237625 28.824951,162.798096 28.264465C163.358582 27.703995,163.673523 26.943848,163.673523 26.151154Z" style="fill: rgb(100.000000%,100.000000%,100.000000%);stroke: none;"></path>
  <path d="M132.900681 76.664230C132.900681 75.871536,132.585739 75.111389,132.025253 74.550919C131.464783 73.990433,130.704636 73.675491,129.911942 73.675491C129.119247 73.675491,128.359100 73.990433,127.798630 74.550919C127.238144 75.111389,126.923203 75.871536,126.923203 76.664230C126.923203 77.456924,127.238144 78.217072,127.798630 78.777542C128.359100 79.338028,129.119247 79.652969,129.911942 79.652969C130.704636 79.652969,131.464783 79.338028,132.025253 78.777542C132.585739 78.217072,132.900681 77.456924,132.900681 76.664230Z" style="fill: rgb(100.000000%,100.000000%,100.000000%);stroke: none;"></path>
  <path d="M148.498413 64.814362C148.498413 64.021667,148.183472 63.261520,147.622986 62.701050C147.062515 62.140564,146.302368 61.825623,145.509674 61.825623C144.716980 61.825623,143.956833 62.140564,143.396362 62.701050C142.835876 63.261520,142.520935 64.021667,142.520935 64.814362C142.520935 65.607056,142.835876 66.367203,143.396362 66.927673C143.956833 67.488159,144.716980 67.803101,145.509674 67.803101C146.302368 67.803101,147.062515 67.488159,147.622986 66.927673C148.183472 66.367203,148.498413 65.607056,148.498413 64.814362Z" style="fill: rgb(100.000000%,100.000000%,100.000000%);stroke: none;"></path>
  <path d="M119.904694 86.492737C119.904694 85.700043,119.589752 84.939896,119.029266 84.379425C118.468796 83.818939,117.708649 83.503998,116.915955 83.503998C116.123260 83.503998,115.363113 83.818939,114.802643 84.379425C114.242157 84.939896,113.927216 85.700043,113.927216 86.492737C113.927216 87.285431,114.242157 88.045578,114.802643 88.606049C115.363113 89.166534,116.123260 89.481476,116.915955 89.481476C117.708649 89.481476,118.468796 89.166534,119.029266 88.606049C119.589752 88.045578,119.904694 87.285431,119.904694 86.492737Z" style="fill: rgb(100.000000%,100.000000%,100.000000%);stroke: none;"></path>
  <path d="M127.518127 80.698044C127.518127 79.905350,127.203186 79.145203,126.642700 78.584732C126.082230 78.024246,125.322083 77.709305,124.529388 77.709305C123.736694 77.709305,122.976547 78.024246,122.416077 78.584732C121.855591 79.145203,121.540649 79.905350,121.540649 80.698044C121.540649 81.490738,121.855591 82.250885,122.416077 82.811356C122.976547 83.371841,123.736694 83.686783,124.529388 83.686783C125.322083 83.686783,126.082230 83.371841,126.642700 82.811356C127.203186 82.250885,127.518127 81.490738,127.518127 80.698044Z" style="fill: rgb(100.000000%,100.000000%,100.000000%);stroke: none;"></path>
  <path d="M113.207108 91.177521C113.207108 90.384827,112.892166 89.624680,112.331680 89.064209C111.771210 88.503723,111.011063 88.188782,110.218369 88.188782C109.425674 88.188782,108.665527 88.503723,108.105057 89.064209C107.544571 89.624680,107.229630 90.384827,107.229630 91.177521C107.229630 91.970215,107.544571 92.730362,108.105057 93.290833C108.665527 93.851318,109.425674 94.166260,110.218369 94.166260C111.011063 94.166260,111.771210 93.851318,112.331680 93.290833C112.892166 92.730362,113.207108 91.970215,113.207108 91.177521Z" style="fill: rgb(100.000000%,100.000000%,100.000000%);stroke: none;"></path>
  <path d="M117.647598 88.221786C117.647598 87.429092,117.332657 86.668945,116.772171 86.108475C116.211700 85.547989,115.451553 85.233047,114.658859 85.233047C113.866165 85.233047,113.106018 85.547989,112.545547 86.108475C111.985062 86.668945,111.670120 87.429092,111.670120 88.221786C111.670120 89.014481,111.985062 89.774628,112.545547 90.335098C113.106018 90.895584,113.866165 91.210526,114.658859 91.210526C115.451553 91.210526,116.211700 90.895584,116.772171 90.335098C117.332657 89.774628,117.647598 89.014481,117.647598 88.221786Z" style="fill: rgb(100.000000%,100.000000%,100.000000%);stroke: none;"></path>
  <path d="M106.318146 95.422989C106.318146 94.630295,106.003204 93.870148,105.442719 93.309677C104.882248 92.749191,104.122101 92.434250,103.329407 92.434250C102.536713 92.434250,101.776566 92.749191,101.216095 93.309677C100.655609 93.870148,100.340668 94.630295,100.340668 95.422989C100.340668 96.215683,100.655609 96.975830,101.216095 97.536301C101.776566 98.096786,102.536713 98.411728,103.329407 98.411728C104.122101 98.411728,104.882248 98.096786,105.442719 97.536301C106.003204 96.975830,106.318146 96.215683,106.318146 95.422989Z" style="fill: rgb(100.000000%,100.000000%,100.000000%);stroke: none;"></path>
  <path d="M111.054169 92.436142C111.054169 91.643448,110.739227 90.883301,110.178741 90.322830C109.618271 89.762344,108.858124 89.447403,108.065430 89.447403C107.272736 89.447403,106.512589 89.762344,105.952118 90.322830C105.391632 90.883301,105.076691 91.643448,105.076691 92.436142C105.076691 93.228836,105.391632 93.988983,105.952118 94.549454C106.512589 95.109940,107.272736 95.424881,108.065430 95.424881C108.858124 95.424881,109.618271 95.109940,110.178741 94.549454C110.739227 93.988983,111.054169 93.228836,111.054169 92.436142Z" style="fill: rgb(100.000000%,100.000000%,100.000000%);stroke: none;"></path>
  <path d="M97.110336 99.462845C97.110336 98.670151,96.795395 97.910004,96.234909 97.349533C95.674438 96.789047,94.914291 96.474106,94.121597 96.474106C93.328903 96.474106,92.568756 96.789047,92.008286 97.349533C91.447800 97.910004,91.132858 98.670151,91.132858 99.462845C91.132858 100.255539,91.447800 101.015686,92.008286 101.576157C92.568756 102.136642,93.328903 102.451584,94.121597 102.451584C94.914291 102.451584,95.674438 102.136642,96.234909 101.576157C96.795395 101.015686,97.110336 100.255539,97.110336 99.462845Z" style="fill: rgb(100.000000%,100.000000%,100.000000%);stroke: none;"></path>
  <path d="M103.733002 97.203125C103.733002 96.410431,103.418060 95.650284,102.857574 95.089813C102.297104 94.529327,101.536957 94.214386,100.744263 94.214386C99.951569 94.214386,99.191422 94.529327,98.630951 95.089813C98.070465 95.650284,97.755524 96.410431,97.755524 97.203125C97.755524 97.995819,98.070465 98.755966,98.630951 99.316437C99.191422 99.876923,99.951569 100.191864,100.744263 100.191864C101.536957 100.191864,102.297104 99.876923,102.857574 99.316437C103.418060 98.755966,103.733002 97.995819,103.733002 97.203125Z" style="fill: rgb(100.000000%,100.000000%,100.000000%);stroke: none;"></path>
  <path d="M81.317429 99.650742C81.317429 98.858047,81.002487 98.097900,80.442001 97.537430C79.881531 96.976944,79.121384 96.662003,78.328690 96.662003C77.535995 96.662003,76.775848 96.976944,76.215378 97.537430C75.654892 98.097900,75.339951 98.858047,75.339951 99.650742C75.339951 100.443436,75.654892 101.203583,76.215378 101.764053C76.775848 102.324539,77.535995 102.639481,78.328690 102.639481C79.121384 102.639481,79.881531 102.324539,80.442001 101.764053C81.002487 101.203583,81.317429 100.443436,81.317429 99.650742Z" style="fill: rgb(100.000000%,100.000000%,100.000000%);stroke: none;"></path>
  <path d="M93.170776 99.416718C93.170776 98.624023,92.855835 97.863876,92.295349 97.303406C91.734879 96.742920,90.974731 96.427979,90.182037 96.427979C89.389343 96.427979,88.629196 96.742920,88.068726 97.303406C87.508240 97.863876,87.193298 98.624023,87.193298 99.416718C87.193298 100.209412,87.508240 100.969559,88.068726 101.530029C88.629196 102.090515,89.389343 102.405457,90.182037 102.405457C90.974731 102.405457,91.734879 102.090515,92.295349 101.530029C92.855835 100.969559,93.170776 100.209412,93.170776 99.416718Z" style="fill: rgb(100.000000%,100.000000%,100.000000%);stroke: none;"></path>
  <path d="M51.182510 100.964996C51.182510 100.172302,50.867569 99.412155,50.307083 98.851685C49.746613 98.291199,48.986465 97.976257,48.193771 97.976257C47.401077 97.976257,46.640930 98.291199,46.080460 98.851685C45.519974 99.412155,45.205032 100.172302,45.205032 100.964996C45.205032 101.757690,45.519974 102.517838,46.080460 103.078308C46.640930 103.638794,47.401077 103.953735,48.193771 103.953735C48.986465 103.953735,49.746613 103.638794,50.307083 103.078308C50.867569 102.517838,51.182510 101.757690,51.182510 100.964996Z" style="fill: rgb(100.000000%,100.000000%,100.000000%);stroke: none;"></path>
  <path d="M73.364929 100.372360C73.364929 99.579666,73.049988 98.819519,72.489502 98.259048C71.929031 97.698563,71.168884 97.383621,70.376190 97.383621C69.583496 97.383621,68.823349 97.698563,68.262878 98.259048C67.702393 98.819519,67.387451 99.579666,67.387451 100.372360C67.387451 101.165054,67.702393 101.925201,68.262878 102.485672C68.823349 103.046158,69.583496 103.361099,70.376190 103.361099C71.168884 103.361099,71.929031 103.046158,72.489502 102.485672C73.049988 101.925201,73.364929 101.165054,73.364929 100.372360Z" style="fill: rgb(100.000000%,100.000000%,100.000000%);stroke: none;"></path>
  <path d="M9.873550 117.863373C9.873550 117.070679,9.558609 116.310532,8.998123 115.750061C8.437653 115.189575,7.677505 114.874634,6.884811 114.874634C6.092117 114.874634,5.331970 115.189575,4.771500 115.750061C4.211014 116.310532,3.896072 117.070679,3.896072 117.863373C3.896072 118.656067,4.211014 119.416214,4.771500 119.976685C5.331970 120.537170,6.092117 120.852112,6.884811 120.852112C7.677505 120.852112,8.437653 120.537170,8.998123 119.976685C9.558609 119.416214,9.873550 118.656067,9.873550 117.863373Z" style="fill: rgb(100.000000%,100.000000%,100.000000%);stroke: none;"></path>
  <path d="M36.183990 100.015274C36.183990 99.222580,35.869049 98.462433,35.308563 97.901962C34.748093 97.341476,33.987946 97.026535,33.195251 97.026535C32.402557 97.026535,31.642410 97.341476,31.081940 97.901962C30.521454 98.462433,30.206512 99.222580,30.206512 100.015274C30.206512 100.807968,30.521454 101.568115,31.081940 102.128586C31.642410 102.689072,32.402557 103.004013,33.195251 103.004013C33.987946 103.004013,34.748093 102.689072,35.308563 102.128586C35.869049 101.568115,36.183990 100.807968,36.183990 100.015274Z" style="fill: rgb(100.000000%,100.000000%,100.000000%);stroke: none;"></path>
  <path d="M22.324829 170.192474C22.324829 169.399780,22.009888 168.639633,21.449402 168.079163C20.888931 167.518677,20.128784 167.203735,19.336090 167.203735C18.543396 167.203735,17.783249 167.518677,17.222778 168.079163C16.662292 168.639633,16.347351 169.399780,16.347351 170.192474C16.347351 170.985168,16.662292 171.745316,17.222778 172.305786C17.783249 172.866272,18.543396 173.181213,19.336090 173.181213C20.128784 173.181213,20.888931 172.866272,21.449402 172.305786C22.009888 171.745316,22.324829 170.985168,22.324829 170.192474Z" style="fill: rgb(100.000000%,100.000000%,100.000000%);stroke: none;"></path>
  <path d="M5.336197 137.114166C5.336197 136.321472,5.021255 135.561325,4.460770 135.000854C3.900299 134.440369,3.140152 134.125427,2.347458 134.125427C1.554764 134.125427,0.794617 134.440369,0.234146 135.000854C-0.326340 135.561325,-0.641281 136.321472,-0.641281 137.114166C-0.641281 137.906860,-0.326340 138.667007,0.234146 139.227478C0.794617 139.787964,1.554764 140.102905,2.347458 140.102905C3.140152 140.102905,3.900299 139.787964,4.460770 139.227478C5.021255 138.667007,5.336197 137.906860,5.336197 137.114166Z" style="fill: rgb(100.000000%,100.000000%,100.000000%);stroke: none;"></path>
  <path d="M73.114075 163.487183C73.114075 162.694489,72.799133 161.934341,72.238647 161.373871C71.678177 160.813385,70.918030 160.498444,70.125336 160.498444C69.332642 160.498444,68.572495 160.813385,68.012024 161.373871C67.451538 161.934341,67.136597 162.694489,67.136597 163.487183C67.136597 164.279877,67.451538 165.040024,68.012024 165.600494C68.572495 166.160980,69.332642 166.475922,70.125336 166.475922C70.918030 166.475922,71.678177 166.160980,72.238647 165.600494C72.799133 165.040024,73.114075 164.279877,73.114075 163.487183Z" style="fill: rgb(100.000000%,100.000000%,100.000000%);stroke: none;"></path>
  <path d="M43.413467 177.456741C43.413467 176.664047,43.098526 175.903900,42.538040 175.343430C41.977570 174.782944,41.217422 174.468002,40.424728 174.468002C39.632034 174.468002,38.871887 174.782944,38.311417 175.343430C37.750931 175.903900,37.435989 176.664047,37.435989 177.456741C37.435989 178.249435,37.750931 179.009583,38.311417 179.570053C38.871887 180.130539,39.632034 180.445480,40.424728 180.445480C41.217422 180.445480,41.977570 180.130539,42.538040 179.570053C43.098526 179.009583,43.413467 178.249435,43.413467 177.456741Z" style="fill: rgb(100.000000%,100.000000%,100.000000%);stroke: none;"></path>
  <path d="M94.424088 136.311996C94.424088 135.519302,94.109146 134.759155,93.548660 134.198685C92.988190 133.638199,92.228043 133.323257,91.435349 133.323257C90.642654 133.323257,89.882507 133.638199,89.322037 134.198685C88.761551 134.759155,88.446609 135.519302,88.446609 136.311996C88.446609 137.104691,88.761551 137.864838,89.322037 138.425308C89.882507 138.985794,90.642654 139.300735,91.435349 139.300735C92.228043 139.300735,92.988190 138.985794,93.548660 138.425308C94.109146 137.864838,94.424088 137.104691,94.424088 136.311996Z" style="fill: rgb(100.000000%,100.000000%,100.000000%);stroke: none;"></path>
  <path d="M80.309189 151.618423C80.309189 150.825729,79.994247 150.065582,79.433762 149.505112C78.873291 148.944626,78.113144 148.629684,77.320450 148.629684C76.527756 148.629684,75.767609 148.944626,75.207138 149.505112C74.646652 150.065582,74.331711 150.825729,74.331711 151.618423C74.331711 152.411118,74.646652 153.171265,75.207138 153.731735C75.767609 154.292221,76.527756 154.607162,77.320450 154.607162C78.113144 154.607162,78.873291 154.292221,79.433762 153.731735C79.994247 153.171265,80.309189 152.411118,80.309189 151.618423Z" style="fill: rgb(100.000000%,100.000000%,100.000000%);stroke: none;"></path>
  <path d="M108.971436 122.528381C108.971436 121.735687,108.656494 120.975540,108.096008 120.415070C107.535538 119.854584,106.775391 119.539642,105.982697 119.539642C105.190002 119.539642,104.429855 119.854584,103.869385 120.415070C103.308899 120.975540,102.993958 121.735687,102.993958 122.528381C102.993958 123.321075,103.308899 124.081223,103.869385 124.641693C104.429855 125.202179,105.190002 125.517120,105.982697 125.517120C106.775391 125.517120,107.535538 125.202179,108.096008 124.641693C108.656494 124.081223,108.971436 123.321075,108.971436 122.528381Z" style="fill: rgb(100.000000%,100.000000%,100.000000%);stroke: none;"></path>
  <path d="M100.262772 131.383453C100.262772 130.590759,99.947830 129.830612,99.387344 129.270142C98.826874 128.709656,98.066727 128.394714,97.274033 128.394714C96.481339 128.394714,95.721191 128.709656,95.160721 129.270142C94.600235 129.830612,94.285294 130.590759,94.285294 131.383453C94.285294 132.176147,94.600235 132.936295,95.160721 133.496765C95.721191 134.057251,96.481339 134.372192,97.274033 134.372192C98.066727 134.372192,98.826874 134.057251,99.387344 133.496765C99.947830 132.936295,100.262772 132.176147,100.262772 131.383453Z" style="fill: rgb(100.000000%,100.000000%,100.000000%);stroke: none;"></path>
  <path d="M117.964355 111.952072C117.964355 111.159378,117.649414 110.399231,117.088928 109.838760C116.528458 109.278275,115.768311 108.963333,114.975616 108.963333C114.182922 108.963333,113.422775 109.278275,112.862305 109.838760C112.301819 110.399231,111.986877 111.159378,111.986877 111.952072C111.986877 112.744766,112.301819 113.504913,112.862305 114.065384C113.422775 114.625870,114.182922 114.940811,114.975616 114.940811C115.768311 114.940811,116.528458 114.625870,117.088928 114.065384C117.649414 113.504913,117.964355 112.744766,117.964355 111.952072Z" style="fill: rgb(100.000000%,100.000000%,100.000000%);stroke: none;"></path>
  <path d="M112.134460 118.911407C112.134460 118.118713,111.819519 117.358566,111.259033 116.798096C110.698563 116.237610,109.938416 115.922668,109.145721 115.922668C108.353027 115.922668,107.592880 116.237610,107.032410 116.798096C106.471924 117.358566,106.156982 118.118713,106.156982 118.911407C106.156982 119.704102,106.471924 120.464249,107.032410 121.024719C107.592880 121.585205,108.353027 121.900146,109.145721 121.900146C109.938416 121.900146,110.698563 121.585205,111.259033 121.024719C111.819519 120.464249,112.134460 119.704102,112.134460 118.911407Z" style="fill: rgb(100.000000%,100.000000%,100.000000%);stroke: none;"></path>
  <path d="M126.007080 102.159546C126.007080 101.366852,125.692139 100.606705,125.131653 100.046234C124.571182 99.485748,123.811035 99.170807,123.018341 99.170807C122.225647 99.170807,121.465500 99.485748,120.905029 100.046234C120.344543 100.606705,120.029602 101.366852,120.029602 102.159546C120.029602 102.952240,120.344543 103.712387,120.905029 104.272858C121.465500 104.833344,122.225647 105.148285,123.018341 105.148285C123.811035 105.148285,124.571182 104.833344,125.131653 104.272858C125.692139 103.712387,126.007080 102.952240,126.007080 102.159546Z" style="fill: rgb(100.000000%,100.000000%,100.000000%);stroke: none;"></path>
  <path d="M120.648056 108.622604C120.648056 107.829910,120.333115 107.069763,119.772629 106.509293C119.212158 105.948807,118.452011 105.633865,117.659317 105.633865C116.866623 105.633865,116.106476 105.948807,115.546005 106.509293C114.985519 107.069763,114.670578 107.829910,114.670578 108.622604C114.670578 109.415298,114.985519 110.175446,115.546005 110.735916C116.106476 111.296402,116.866623 111.611343,117.659317 111.611343C118.452011 111.611343,119.212158 111.296402,119.772629 110.735916C120.333115 110.175446,120.648056 109.415298,120.648056 108.622604Z" style="fill: rgb(100.000000%,100.000000%,100.000000%);stroke: none;"></path>
  <path d="M128.051529 90.612228C128.051529 89.819534,127.736588 89.059387,127.176102 88.498917C126.615631 87.938431,125.855484 87.623489,125.062790 87.623489C124.270096 87.623489,123.509949 87.938431,122.949478 88.498917C122.388992 89.059387,122.074051 89.819534,122.074051 90.612228C122.074051 91.404922,122.388992 92.165070,122.949478 92.725540C123.509949 93.286026,124.270096 93.600967,125.062790 93.600967C125.855484 93.600967,126.615631 93.286026,127.176102 92.725540C127.736588 92.165070,128.051529 91.404922,128.051529 90.612228Z" style="fill: rgb(100.000000%,100.000000%,100.000000%);stroke: none;"></path>
  <path d="M128.738144 98.707825C128.738144 97.915131,128.423203 97.154984,127.862717 96.594513C127.302246 96.034027,126.542099 95.719086,125.749405 95.719086C124.956711 95.719086,124.196564 96.034027,123.636093 96.594513C123.075607 97.154984,122.760666 97.915131,122.760666 98.707825C122.760666 99.500519,123.075607 100.260666,123.636093 100.821136C124.196564 101.381622,124.956711 101.696564,125.749405 101.696564C126.542099 101.696564,127.302246 101.381622,127.862717 100.821136C128.423203 100.260666,128.738144 99.500519,128.738144 98.707825Z" style="fill: rgb(100.000000%,100.000000%,100.000000%);stroke: none;"></path>
  <path d="M119.489441 81.871948C119.489441 81.079254,119.174500 80.319107,118.614014 79.758636C118.053543 79.198151,117.293396 78.883209,116.500702 78.883209C115.708008 78.883209,114.947861 79.198151,114.387390 79.758636C113.826904 80.319107,113.511963 81.079254,113.511963 81.871948C113.511963 82.664642,113.826904 83.424789,114.387390 83.985260C114.947861 84.545746,115.708008 84.860687,116.500702 84.860687C117.293396 84.860687,118.053543 84.545746,118.614014 83.985260C119.174500 83.424789,119.489441 82.664642,119.489441 81.871948Z" style="fill: rgb(100.000000%,100.000000%,100.000000%);stroke: none;"></path>
  <path d="M124.883179 87.715973C124.883179 86.923279,124.568237 86.163132,124.007751 85.602661C123.447281 85.042175,122.687134 84.727234,121.894440 84.727234C121.101746 84.727234,120.341599 85.042175,119.781128 85.602661C119.220642 86.163132,118.905701 86.923279,118.905701 87.715973C118.905701 88.508667,119.220642 89.268814,119.781128 89.829285C120.341599 90.389771,121.101746 90.704712,121.894440 90.704712C122.687134 90.704712,123.447281 90.389771,124.007751 89.829285C124.568237 89.268814,124.883179 88.508667,124.883179 87.715973Z" style="fill: rgb(100.000000%,100.000000%,100.000000%);stroke: none;"></path>
  <path d="M109.053757 76.677353C109.053757 75.884659,108.738815 75.124512,108.178329 74.564041C107.617859 74.003555,106.857712 73.688614,106.065018 73.688614C105.272324 73.688614,104.512177 74.003555,103.951706 74.564041C103.391220 75.124512,103.076279 75.884659,103.076279 76.677353C103.076279 77.470047,103.391220 78.230194,103.951706 78.790665C104.512177 79.351151,105.272324 79.666092,106.065018 79.666092C106.857712 79.666092,107.617859 79.351151,108.178329 78.790665C108.738815 78.230194,109.053757 77.470047,109.053757 76.677353Z" style="fill: rgb(100.000000%,100.000000%,100.000000%);stroke: none;"></path>
  <path d="M116.942291 78.546906C116.942291 77.754211,116.627350 76.994064,116.066864 76.433594C115.506393 75.873108,114.746246 75.558167,113.953552 75.558167C113.160858 75.558167,112.400711 75.873108,111.840240 76.433594C111.279755 76.994064,110.964813 77.754211,110.964813 78.546906C110.964813 79.339600,111.279755 80.099747,111.840240 80.660217C112.400711 81.220703,113.160858 81.535645,113.953552 81.535645C114.746246 81.535645,115.506393 81.220703,116.066864 80.660217C116.627350 80.099747,116.942291 79.339600,116.942291 78.546906Z" style="fill: rgb(100.000000%,100.000000%,100.000000%);stroke: none;"></path>
  <path d="M97.102707 81.764130C97.102707 80.971436,96.787766 80.211288,96.227280 79.650818C95.666809 79.090332,94.906662 78.775391,94.113968 78.775391C93.321274 78.775391,92.561127 79.090332,92.000656 79.650818C91.440170 80.211288,91.125229 80.971436,91.125229 81.764130C91.125229 82.556824,91.440170 83.316971,92.000656 83.877441C92.561127 84.437927,93.321274 84.752869,94.113968 84.752869C94.906662 84.752869,95.666809 84.437927,96.227280 83.877441C96.787766 83.316971,97.102707 82.556824,97.102707 81.764130Z" style="fill: rgb(100.000000%,100.000000%,100.000000%);stroke: none;"></path>
  <path d="M105.145050 78.717957C105.145050 77.925262,104.830109 77.165115,104.269623 76.604645C103.709152 76.044159,102.949005 75.729218,102.156311 75.729218C101.363617 75.729218,100.603470 76.044159,100.042999 76.604645C99.482513 77.165115,99.167572 77.925262,99.167572 78.717957C99.167572 79.510651,99.482513 80.270798,100.042999 80.831268C100.603470 81.391754,101.363617 81.706696,102.156311 81.706696C102.949005 81.706696,103.709152 81.391754,104.269623 80.831268C104.830109 80.270798,105.145050 79.510651,105.145050 78.717957Z" style="fill: rgb(100.000000%,100.000000%,100.000000%);stroke: none;"></path>
  <path d="M87.639282 90.441910C87.639282 89.649216,87.324341 88.889069,86.763855 88.328598C86.203384 87.768112,85.443237 87.453171,84.650543 87.453171C83.857849 87.453171,83.097702 87.768112,82.537231 88.328598C81.976746 88.889069,81.661804 89.649216,81.661804 90.441910C81.661804 91.234604,81.976746 91.994751,82.537231 92.555222C83.097702 93.115707,83.857849 93.430649,84.650543 93.430649C85.443237 93.430649,86.203384 93.115707,86.763855 92.555222C87.324341 91.994751,87.639282 91.234604,87.639282 90.441910Z" style="fill: rgb(100.000000%,100.000000%,100.000000%);stroke: none;"></path>
  <path d="M92.422882 82.902466C92.422882 82.109772,92.107941 81.349625,91.547455 80.789154C90.986984 80.228668,90.226837 79.913727,89.434143 79.913727C88.641449 79.913727,87.881302 80.228668,87.320831 80.789154C86.760345 81.349625,86.445404 82.109772,86.445404 82.902466C86.445404 83.695160,86.760345 84.455307,87.320831 85.015778C87.881302 85.576263,88.641449 85.891205,89.434143 85.891205C90.226837 85.891205,90.986984 85.576263,91.547455 85.015778C92.107941 84.455307,92.422882 83.695160,92.422882 82.902466Z" style="fill: rgb(100.000000%,100.000000%,100.000000%);stroke: none;"></path>
  <path d="M90.169815 104.560242C90.169815 103.767548,89.854874 103.007401,89.294388 102.446930C88.733917 101.886444,87.973770 101.571503,87.181076 101.571503C86.388382 101.571503,85.628235 101.886444,85.067764 102.446930C84.507278 103.007401,84.192337 103.767548,84.192337 104.560242C84.192337 105.352936,84.507278 106.113083,85.067764 106.673553C85.628235 107.234039,86.388382 107.548981,87.181076 107.548981C87.973770 107.548981,88.733917 107.234039,89.294388 106.673553C89.854874 106.113083,90.169815 105.352936,90.169815 104.560242Z" style="fill: rgb(100.000000%,100.000000%,100.000000%);stroke: none;"></path>
  <path d="M88.533310 95.113052C88.533310 94.320358,88.218369 93.560211,87.657883 92.999741C87.097412 92.439255,86.337265 92.124313,85.544571 92.124313C84.751877 92.124313,83.991730 92.439255,83.431259 92.999741C82.870773 93.560211,82.555832 94.320358,82.555832 95.113052C82.555832 95.905746,82.870773 96.665894,83.431259 97.226364C83.991730 97.786850,84.751877 98.101791,85.544571 98.101791C86.337265 98.101791,87.097412 97.786850,87.657883 97.226364C88.218369 96.665894,88.533310 95.905746,88.533310 95.113052Z" style="fill: rgb(100.000000%,100.000000%,100.000000%);stroke: none;"></path>
  <path d="M95.974884 119.377426C95.974884 118.584732,95.659943 117.824585,95.099457 117.264114C94.538986 116.703629,93.778839 116.388687,92.986145 116.388687C92.193451 116.388687,91.433304 116.703629,90.872833 117.264114C90.312347 117.824585,89.997406 118.584732,89.997406 119.377426C89.997406 120.170120,90.312347 120.930267,90.872833 121.490738C91.433304 122.051224,92.193451 122.366165,92.986145 122.366165C93.778839 122.366165,94.538986 122.051224,95.099457 121.490738C95.659943 120.930267,95.974884 120.170120,95.974884 119.377426Z" style="fill: rgb(100.000000%,100.000000%,100.000000%);stroke: none;"></path>
  <path d="M90.762115 109.772308C90.762115 108.979614,90.447174 108.219467,89.886688 107.658997C89.326218 107.098511,88.566071 106.783569,87.773376 106.783569C86.980682 106.783569,86.220535 107.098511,85.660065 107.658997C85.099579 108.219467,84.784637 108.979614,84.784637 109.772308C84.784637 110.565002,85.099579 111.325150,85.660065 111.885620C86.220535 112.446106,86.980682 112.761047,87.773376 112.761047C88.566071 112.761047,89.326218 112.446106,89.886688 111.885620C90.447174 111.325150,90.762115 110.565002,90.762115 109.772308Z" style="fill: rgb(100.000000%,100.000000%,100.000000%);stroke: none;"></path>
  <path d="M111.411682 129.499054C111.411682 128.706360,111.096741 127.946213,110.536255 127.385742C109.975784 126.825256,109.215637 126.510315,108.422943 126.510315C107.630249 126.510315,106.870102 126.825256,106.309631 127.385742C105.749146 127.946213,105.434204 128.706360,105.434204 129.499054C105.434204 130.291748,105.749146 131.051895,106.309631 131.612366C106.870102 132.172852,107.630249 132.487793,108.422943 132.487793C109.215637 132.487793,109.975784 132.172852,110.536255 131.612366C111.096741 131.051895,111.411682 130.291748,111.411682 129.499054Z" style="fill: rgb(100.000000%,100.000000%,100.000000%);stroke: none;"></path>
  <path d="M100.681702 122.947021C100.681702 122.154327,100.366760 121.394180,99.806274 120.833710C99.245804 120.273224,98.485657 119.958282,97.692963 119.958282C96.900269 119.958282,96.140121 120.273224,95.579651 120.833710C95.019165 121.394180,94.704224 122.154327,94.704224 122.947021C94.704224 123.739716,95.019165 124.499863,95.579651 125.060333C96.140121 125.620819,96.900269 125.935760,97.692963 125.935760C98.485657 125.935760,99.245804 125.620819,99.806274 125.060333C100.366760 124.499863,100.681702 123.739716,100.681702 122.947021Z" style="fill: rgb(100.000000%,100.000000%,100.000000%);stroke: none;"></path>
  <path d="M119.776215 136.921280C130.234619 146.154404,144.928772 148.875626,158.000000 144.000000C178.157257 136.481247,188.134674 114.938858,188.922287 92.965683C189.746307 69.976471,179.290298 46.995087,158.000000 43.398056C145.033264 41.207306,132.001801 48.553864,119.175888 45.418228C106.949295 42.429108,98.815933 30.799194,86.745071 27.328995C66.663956 21.555954,49.095795 37.830994,35.261856 54.589478C21.708420 71.008163,10.123581 91.510071,21.388519 108.024551C28.822495 118.922821,44.331924 121.460175,51.136841 132.835464C57.624359 143.680191,53.259445 157.593475,58.113953 169.136688C66.731491 189.627792,93.145493 191.985046,116.436996 185.396423C138.263596 179.222183,158.849182 165.337418,158.000000 144.000000C157.489517 131.172928,148.398972 120.856583,137.476532 113.883270C132.095871 110.448059,126.298721 107.739700,120.388718 105.330902C117.174011 104.020645,113.874786 102.766876,111.252731 100.481567C109.091095 98.597534,107.551056 96.144379,105.957291 93.765671C104.606918 91.750229,103.201477 89.769226,101.983261 87.670837C100.584808 85.261993,99.443710 82.717270,98.294556 80.180664C95.611084 74.257263,92.872620 68.356400,90.445328 62.323135C85.901825 51.029861,82.519470 38.722626,86.745071 27.328995C92.965454 10.556732,111.814041 2.728867,129.710785 6.869080C147.375946 10.955719,160.684784 26.151154,158.000000 43.398056C156.026581 56.075150,145.509674 64.814362,135.267853 72.595245C129.911942 76.664230,124.529388 80.698044,119.177078 84.771759C116.915955 86.492737,114.658859 88.221786,112.293213 89.796432C110.218369 91.177521,108.065430 92.436142,105.957291 93.765671C103.329407 95.422989,100.744263 97.203125,97.800018 98.207733C94.121597 99.462845,90.182037 99.416718,86.303345 99.493301C78.328690 99.650742,70.376190 100.372360,62.402985 100.585373C48.193771 100.964996,33.195251 100.015274,21.388519 108.024551C6.884811 117.863373,2.347458 137.114166,10.394943 152.783310C19.336090 170.192474,40.424728 177.456741,58.113953 169.136688C70.125336 163.487183,77.320450 151.618423,86.270859 141.912460C91.435349 136.311996,97.274033 131.383453,102.615082 125.952606C105.982697 122.528381,109.145721 118.911407,112.229660 115.229996C114.975616 111.952072,117.659317 108.622604,120.388718 105.330902C123.018341 102.159546,125.749405 98.707825,125.402222 94.614273C125.062790 90.612228,121.894440 87.715973,119.177078 84.771759C116.500702 81.871948,113.953552 78.546906,110.100082 77.633652C106.065018 76.677353,102.156311 78.717957,98.294556 80.180664C94.113968 81.764130,89.434143 82.902466,87.030197 86.691330C84.650543 90.441910,85.544571 95.113052,86.303345 99.493301C87.181076 104.560242,87.773376 109.772308,90.231934 114.302490C92.986145 119.377426,97.692963 122.947021,102.615082 125.952606C108.422943 129.499054,114.667847 132.411392,119.776215 136.921280" style="stroke:rgb(0.000000%,0.000000%,0.000000%); stroke-width: 0.498138;stroke-linecap: round;stroke-linejoin: round;stroke-miterlimit: 10.000000;fill: none;"></path>
  <path d="M119.776215 136.921280C130.234619 146.154404,144.928772 148.875626,158.000000 144.000000C178.157257 136.481247,188.134674 114.938858,188.922287 92.965683C189.746307 69.976471,179.290298 46.995087,158.000000 43.398056" style="stroke:rgb(0.000000%,0.000000%,0.000000%); stroke-width: 1.494400;stroke-linecap: round;stroke-linejoin: round;stroke-miterlimit: 10.000000;fill: none;"></path>
  <path d="M102.615082 125.952606C108.422943 129.499054,114.667847 132.411392,119.776215 136.921280" style="stroke:rgb(0.000000%,0.000000%,0.000000%); stroke-width: 1.494400;stroke-linecap: round;stroke-linejoin: round;stroke-miterlimit: 10.000000;fill: none;"></path>
  <path d="M160.988739 144.000000C160.988739 143.207306,160.673798 142.447159,160.113312 141.886688C159.552841 141.326202,158.792694 141.011261,158.000000 141.011261C157.207306 141.011261,156.447159 141.326202,155.886688 141.886688C155.326202 142.447159,155.011261 143.207306,155.011261 144.000000C155.011261 144.792694,155.326202 145.552841,155.886688 146.113312C156.447159 146.673798,157.207306 146.988739,158.000000 146.988739C158.792694 146.988739,159.552841 146.673798,160.113312 146.113312C160.673798 145.552841,160.988739 144.792694,160.988739 144.000000Z" style="fill: rgb(100.000000%,100.000000%,100.000000%);stroke: none;"></path>
  <path d="M137.908310 145.751419C144.523041 146.976410,151.464386 146.437805,158.000000 144.000000C168.078629 140.240616,175.612305 132.975327,180.724777 123.903244" style="stroke:rgb(0.000000%,0.000000%,0.000000%); stroke-width: 1.494400;stroke-linecap: round;stroke-linejoin: round;stroke-miterlimit: 10.000000;fill: none;"></path>
  <path d="M89.733810 27.328995C89.733810 26.536301,89.418869 25.776154,88.858383 25.215683C88.297913 24.655197,87.537766 24.340256,86.745071 24.340256C85.952377 24.340256,85.192230 24.655197,84.631760 25.215683C84.071274 25.776154,83.756332 26.536301,83.756332 27.328995C83.756332 28.121689,84.071274 28.881836,84.631760 29.442307C85.192230 30.002792,85.952377 30.317734,86.745071 30.317734C87.537766 30.317734,88.297913 30.002792,88.858383 29.442307C89.418869 28.881836,89.733810 28.121689,89.733810 27.328995Z" style="fill: rgb(100.000000%,100.000000%,100.000000%);stroke: none;"></path>
  <path d="M102.902069 36.554001C97.831558 32.839111,92.780502 29.064087,86.745071 27.328995C76.704514 24.442474,67.292191 27.067978,58.660767 32.509918" style="stroke:rgb(0.000000%,0.000000%,0.000000%); stroke-width: 0.498138;stroke-linecap: round;stroke-linejoin: round;stroke-miterlimit: 10.000000;fill: none;"></path>
  <path d="M61.102692 169.136688C61.102692 168.343994,60.787750 167.583847,60.227264 167.023376C59.666794 166.462891,58.906647 166.147949,58.113953 166.147949C57.321259 166.147949,56.561111 166.462891,56.000641 167.023376C55.440155 167.583847,55.125214 168.343994,55.125214 169.136688C55.125214 169.929382,55.440155 170.689529,56.000641 171.250000C56.561111 171.810486,57.321259 172.125427,58.113953 172.125427C58.906647 172.125427,59.666794 171.810486,60.227264 171.250000C60.787750 170.689529,61.102692 169.929382,61.102692 169.136688Z" style="fill: rgb(100.000000%,100.000000%,100.000000%);stroke: none;"></path>
  <path d="M55.237778 150.724152C55.564301 157.000961,55.686707 163.365082,58.113953 169.136688C62.422729 179.382248,71.180618 185.094345,81.772751 187.421463" style="stroke:rgb(0.000000%,0.000000%,0.000000%); stroke-width: 0.498138;stroke-linecap: round;stroke-linejoin: round;stroke-miterlimit: 10.000000;fill: none;"></path>
  <path d="M123.377457 105.330902C123.377457 104.538208,123.062515 103.778061,122.502029 103.217590C121.941559 102.657104,121.181412 102.342163,120.388718 102.342163C119.596024 102.342163,118.835876 102.657104,118.275406 103.217590C117.714920 103.778061,117.399979 104.538208,117.399979 105.330902C117.399979 106.123596,117.714920 106.883743,118.275406 107.444214C118.835876 108.004700,119.596024 108.319641,120.388718 108.319641C121.181412 108.319641,121.941559 108.004700,122.502029 107.444214C123.062515 106.883743,123.377457 106.123596,123.377457 105.330902Z" style="fill: rgb(100.000000%,100.000000%,100.000000%);stroke: none;"></path>
  <path d="M129.131119 109.222168C126.270508 107.814575,123.343719 106.535294,120.388718 105.330902C118.781357 104.675766,117.152878 104.034760,115.598465 103.271866" style="stroke:rgb(0.000000%,0.000000%,0.000000%); stroke-width: 0.498138;stroke-linecap: round;stroke-linejoin: round;stroke-miterlimit: 10.000000;fill: none;"></path>
  <path d="M101.283295 80.180664C101.283295 79.387970,100.968353 78.627823,100.407867 78.067352C99.847397 77.506866,99.087250 77.191925,98.294556 77.191925C97.501862 77.191925,96.741714 77.506866,96.181244 78.067352C95.620758 78.627823,95.305817 79.387970,95.305817 80.180664C95.305817 80.973358,95.620758 81.733505,96.181244 82.293976C96.741714 82.854462,97.501862 83.169403,98.294556 83.169403C99.087250 83.169403,99.847397 82.854462,100.407867 82.293976C100.968353 81.733505,101.283295 80.973358,101.283295 80.180664Z" style="fill: rgb(100.000000%,100.000000%,100.000000%);stroke: none;"></path>
  <path d="M100.045410 83.973648C99.441681 82.719284,98.869125 81.448959,98.294556 80.180664C96.952820 77.218964,95.597336 74.262894,94.273865 71.293091" style="stroke:rgb(0.000000%,0.000000%,0.000000%); stroke-width: 0.498138;stroke-linecap: round;stroke-linejoin: round;stroke-miterlimit: 10.000000;fill: none;"></path>
  <path d="M160.988739 43.398056C160.988739 42.605362,160.673798 41.845215,160.113312 41.284744C159.552841 40.724258,158.792694 40.409317,158.000000 40.409317C157.207306 40.409317,156.447159 40.724258,155.886688 41.284744C155.326202 41.845215,155.011261 42.605362,155.011261 43.398056C155.011261 44.190750,155.326202 44.950897,155.886688 45.511368C156.447159 46.071854,157.207306 46.386795,158.000000 46.386795C158.792694 46.386795,159.552841 46.071854,160.113312 45.511368C160.673798 44.950897,160.988739 44.190750,160.988739 43.398056Z" style="fill: rgb(100.000000%,100.000000%,100.000000%);stroke: none;"></path>
  <path d="M151.486633 20.198486C156.686386 26.664032,159.342392 34.774612,158.000000 43.398056C157.013290 49.736603,153.890701 55.090683,149.734573 59.832733" style="stroke:rgb(0.000000%,0.000000%,0.000000%); stroke-width: 0.498138;stroke-linecap: round;stroke-linejoin: round;stroke-miterlimit: 10.000000;fill: none;"></path>
  <path d="M108.946030 93.765671C108.946030 92.972977,108.631088 92.212830,108.070602 91.652359C107.510132 91.091873,106.749985 90.776932,105.957291 90.776932C105.164597 90.776932,104.404449 91.091873,103.843979 91.652359C103.283493 92.212830,102.968552 92.972977,102.968552 93.765671C102.968552 94.558365,103.283493 95.318512,103.843979 95.878983C104.404449 96.439468,105.164597 96.754410,105.957291 96.754410C106.749985 96.754410,107.510132 96.439468,108.070602 95.878983C108.631088 95.318512,108.946030 94.558365,108.946030 93.765671Z" style="fill: rgb(100.000000%,100.000000%,100.000000%);stroke: none;"></path>
  <path d="M109.137726 91.800400C108.076614 92.453873,107.011353 93.100906,105.957291 93.765671C104.643341 94.594330,103.340088 95.453705,101.997284 96.231476" style="stroke:rgb(0.000000%,0.000000%,0.000000%); stroke-width: 0.498138;stroke-linecap: round;stroke-linejoin: round;stroke-miterlimit: 10.000000;fill: none;"></path>
  <path d="M24.377258 108.024551C24.377258 107.231857,24.062317 106.471710,23.501831 105.911240C22.941360 105.350754,22.181213 105.035812,21.388519 105.035812C20.595825 105.035812,19.835678 105.350754,19.275208 105.911240C18.714722 106.471710,18.399780 107.231857,18.399780 108.024551C18.399780 108.817245,18.714722 109.577393,19.275208 110.137863C19.835678 110.698349,20.595825 111.013290,21.388519 111.013290C22.181213 111.013290,22.941360 110.698349,23.501831 110.137863C24.062317 109.577393,24.377258 108.817245,24.377258 108.024551Z" style="fill: rgb(100.000000%,100.000000%,100.000000%);stroke: none;"></path>
  <path d="M40.994812 101.443848C33.993195 102.255020,27.291885 104.019913,21.388519 108.024551C14.136658 112.943970,9.376389 120.216370,7.435028 128.217575" style="stroke:rgb(0.000000%,0.000000%,0.000000%); stroke-width: 0.498138;stroke-linecap: round;stroke-linejoin: round;stroke-miterlimit: 10.000000;fill: none;"></path>
  <path d="M105.603821 125.952606C105.603821 125.159912,105.288879 124.399765,104.728394 123.839294C104.167923 123.278809,103.407776 122.963867,102.615082 122.963867C101.822388 122.963867,101.062241 123.278809,100.501770 123.839294C99.941284 124.399765,99.626343 125.159912,99.626343 125.952606C99.626343 126.745300,99.941284 127.505447,100.501770 128.065918C101.062241 128.626404,101.822388 128.941345,102.615082 128.941345C103.407776 128.941345,104.167923 128.626404,104.728394 128.065918C105.288879 127.505447,105.603821 126.745300,105.603821 125.952606Z" style="fill: rgb(100.000000%,100.000000%,100.000000%);stroke: none;"></path>
  <path d="M94.376770 133.868912C97.149628 131.257874,99.944565 128.668030,102.615082 125.952606C104.298889 124.240494,105.931549 122.480194,107.528763 120.687744" style="stroke:rgb(0.000000%,0.000000%,0.000000%); stroke-width: 0.498138;stroke-linecap: round;stroke-linejoin: round;stroke-miterlimit: 10.000000;fill: none;"></path>
  <path d="M122.165817 84.771759C122.165817 83.979065,121.850876 83.218918,121.290390 82.658447C120.729919 82.097961,119.969772 81.783020,119.177078 81.783020C118.384384 81.783020,117.624237 82.097961,117.063766 82.658447C116.503281 83.218918,116.188339 83.979065,116.188339 84.771759C116.188339 85.564453,116.503281 86.324600,117.063766 86.885071C117.624237 87.445557,118.384384 87.760498,119.177078 87.760498C119.969772 87.760498,120.729919 87.445557,121.290390 86.885071C121.850876 86.324600,122.165817 85.564453,122.165817 84.771759Z" style="fill: rgb(100.000000%,100.000000%,100.000000%);stroke: none;"></path>
  <path d="M123.181351 89.296326C122.007172 87.703979,120.535751 86.243866,119.177078 84.771759C117.838882 83.321854,116.533005 81.765640,115.079987 80.457733" style="stroke:rgb(0.000000%,0.000000%,0.000000%); stroke-width: 0.498138;stroke-linecap: round;stroke-linejoin: round;stroke-miterlimit: 10.000000;fill: none;"></path>
  <path d="M89.292084 99.493301C89.292084 98.700607,88.977142 97.940460,88.416656 97.379990C87.856186 96.819504,87.096039 96.504562,86.303345 96.504562C85.510651 96.504562,84.750504 96.819504,84.190033 97.379990C83.629547 97.940460,83.314606 98.700607,83.314606 99.493301C83.314606 100.285995,83.629547 101.046143,84.190033 101.606613C84.750504 102.167099,85.510651 102.482040,86.303345 102.482040C87.096039 102.482040,87.856186 102.167099,88.416656 101.606613C88.977142 101.046143,89.292084 100.285995,89.292084 99.493301Z" style="fill: rgb(100.000000%,100.000000%,100.000000%);stroke: none;"></path>
  <path d="M85.489868 92.856201C85.510773 95.040329,85.923965 97.303177,86.303345 99.493301C86.742218 102.026779,87.109726 104.596527,87.674835 107.099182" style="stroke:rgb(0.000000%,0.000000%,0.000000%); stroke-width: 0.498138;stroke-linecap: round;stroke-linejoin: round;stroke-miterlimit: 10.000000;fill: none;"></path>
  <path d="M119.776215 136.921280C128.142975 144.307800,139.220627 147.526688,150.009491 146.022415" style="stroke:rgb(0.000000%,0.000000%,0.000000%); stroke-width: 0.498138;stroke-linecap: round;stroke-linejoin: round;stroke-miterlimit: 10.000000;fill: none;"></path>
  <path d="M145.540390 148.264267C147.071899 147.619095,148.565231 146.871048,150.009491 146.022415C148.388168 145.601212,146.803284 145.074203,145.264145 144.447433Z" style="stroke:rgb(0.000000%,0.000000%,0.000000%); stroke-width: 0.498138;fill: rgb(0.000000%,0.000000%,0.000000%);"></path>
  <path d="M119.776215 136.921280C128.142975 144.307800,139.220627 147.526688,150.009491 146.022415" style="stroke:rgb(0.000000%,0.000000%,0.000000%); stroke-width: 0.498138;stroke-linecap: round;stroke-linejoin: round;stroke-miterlimit: 10.000000;fill: none;"></path>
  <path d="M147.364456 147.438263C148.262161 147.002716,149.144623 146.530594,150.009491 146.022415C149.038605 145.770187,148.080765 145.480011,147.138016 145.153198Z" style="stroke:rgb(0.000000%,0.000000%,0.000000%); stroke-width: 0.498138;fill: rgb(0.000000%,0.000000%,0.000000%);"></path>
  <path d="M119.175888 45.418228C109.394577 43.026917,102.232956 35.105469,93.579239 30.255814" style="stroke:rgb(0.000000%,0.000000%,0.000000%); stroke-width: 0.498138;stroke-linecap: round;stroke-linejoin: round;stroke-miterlimit: 10.000000;fill: none;"></path>
  <path d="M96.545731 30.702194C95.558609 30.525360,94.569946 30.373352,93.579239 30.255814C94.196655 31.039490,94.788223 31.846069,95.361191 32.669113Z" style="stroke:rgb(0.000000%,0.000000%,0.000000%); stroke-width: 0.498138;fill: rgb(0.000000%,0.000000%,0.000000%);"></path>
  <path d="M51.136841 132.835464C56.326874 141.511276,54.571304 152.150986,56.147018 161.969971" style="stroke:rgb(0.000000%,0.000000%,0.000000%); stroke-width: 0.498138;stroke-linecap: round;stroke-linejoin: round;stroke-miterlimit: 10.000000;fill: none;"></path>
  <path d="M54.653702 159.367920C55.129349 160.251343,55.624283 161.120865,56.147018 161.969971C56.377823 160.999954,56.642715 160.035126,56.931076 159.074127Z" style="stroke:rgb(0.000000%,0.000000%,0.000000%); stroke-width: 0.498138;fill: rgb(0.000000%,0.000000%,0.000000%);"></path>
  <path d="M111.252731 100.481567C109.523422 98.974335,108.191925 97.102875,106.912491 95.196671" style="stroke:rgb(0.000000%,0.000000%,0.000000%); stroke-width: 0.498138;stroke-linecap: round;stroke-linejoin: round;stroke-miterlimit: 10.000000;fill: none;"></path>
  <path d="M109.451096 96.795319C108.587555 96.296539,107.746704 95.751556,106.912491 95.196671C107.109985 96.178925,107.319183 97.158844,107.577103 98.122162Z" style="stroke:rgb(0.000000%,0.000000%,0.000000%); stroke-width: 0.498138;fill: rgb(0.000000%,0.000000%,0.000000%);"></path>
  <path d="M101.983261 87.670837C100.864502 85.743759,99.910431 83.729706,98.985199 81.702423" style="stroke:rgb(0.000000%,0.000000%,0.000000%); stroke-width: 0.498138;stroke-linecap: round;stroke-linejoin: round;stroke-miterlimit: 10.000000;fill: none;"></path>
  <path d="M101.202850 83.722824C100.453415 83.061279,99.717148 82.384201,98.985199 81.702423C99.020645 82.702072,99.062485 83.701477,99.124634 84.699173Z" style="stroke:rgb(0.000000%,0.000000%,0.000000%); stroke-width: 0.498138;fill: rgb(0.000000%,0.000000%,0.000000%);"></path>
  <path d="M135.267853 72.595245C130.983109 75.850449,126.681305 79.083145,122.391586 82.331757" style="stroke:rgb(0.000000%,0.000000%,0.000000%); stroke-width: 0.498138;stroke-linecap: round;stroke-linejoin: round;stroke-miterlimit: 10.000000;fill: none;"></path>
  <path d="M123.909500 79.744156L122.391586 82.331757L125.294632 81.575424Z" style="stroke:rgb(0.000000%,0.000000%,0.000000%); stroke-width: 0.498138;fill: rgb(0.000000%,0.000000%,0.000000%);"></path>
  <path d="M112.293213 89.796432C110.633331 90.901306,108.923477 91.927795,107.226547 92.974930" style="stroke:rgb(0.000000%,0.000000%,0.000000%); stroke-width: 0.498138;stroke-linecap: round;stroke-linejoin: round;stroke-miterlimit: 10.000000;fill: none;"></path>
  <path d="M108.985275 90.544449C108.402115 91.356735,107.811844 92.164047,107.226547 92.974930C108.213791 92.815445,109.202042 92.661972,110.188766 92.499985Z" style="stroke:rgb(0.000000%,0.000000%,0.000000%); stroke-width: 0.498138;fill: rgb(0.000000%,0.000000%,0.000000%);"></path>
  <path d="M62.402985 100.585373C51.035568 100.889069,39.162994 100.341980,28.823608 104.211792" style="stroke:rgb(0.000000%,0.000000%,0.000000%); stroke-width: 0.498138;stroke-linecap: round;stroke-linejoin: round;stroke-miterlimit: 10.000000;fill: none;"></path>
  <path d="M31.091171 102.247452C30.311752 102.875580,29.554916 103.529343,28.823608 104.211792C29.823288 104.246353,30.820724 104.319244,31.816025 104.426254Z" style="stroke:rgb(0.000000%,0.000000%,0.000000%); stroke-width: 0.498138;fill: rgb(0.000000%,0.000000%,0.000000%);"></path>
  <path d="M112.229660 115.229996C114.426437 112.607651,116.583374 109.952301,118.755737 107.309708" style="stroke:rgb(0.000000%,0.000000%,0.000000%); stroke-width: 0.498138;stroke-linecap: round;stroke-linejoin: round;stroke-miterlimit: 10.000000;fill: none;"></path>
  <path d="M117.885727 110.180847L118.755737 107.309708L116.110306 108.724670Z" style="stroke:rgb(0.000000%,0.000000%,0.000000%); stroke-width: 0.498138;fill: rgb(0.000000%,0.000000%,0.000000%);"></path>
  <path d="M125.402222 94.614273C125.130676 91.412628,123.048615 88.918686,120.835342 86.541733" style="stroke:rgb(0.000000%,0.000000%,0.000000%); stroke-width: 0.498138;stroke-linecap: round;stroke-linejoin: round;stroke-miterlimit: 10.000000;fill: none;"></path>
  <path d="M123.521545 87.877411C122.659821 87.393356,121.751251 86.959961,120.835342 86.541733C121.187256 87.485107,121.523224 88.434036,121.790253 89.385651Z" style="stroke:rgb(0.000000%,0.000000%,0.000000%); stroke-width: 0.498138;fill: rgb(0.000000%,0.000000%,0.000000%);"></path>
  <path d="M87.030197 86.691330C85.126465 89.691803,85.317902 93.281433,85.859131 96.839966" style="stroke:rgb(0.000000%,0.000000%,0.000000%); stroke-width: 0.498138;stroke-linecap: round;stroke-linejoin: round;stroke-miterlimit: 10.000000;fill: none;"></path>
  <path d="M84.409622 94.213333C84.841400 95.102997,85.338074 95.977859,85.859131 96.839966C86.100311 95.861923,86.367737 94.892090,86.691544 93.957718Z" style="stroke:rgb(0.000000%,0.000000%,0.000000%); stroke-width: 0.498138;fill: rgb(0.000000%,0.000000%,0.000000%);"></path>
  <path d="M185.931641 95.675888L191.912933 95.675888L191.912933 88.255493L185.931641 88.255493Z" style="fill: rgb(100.000000%,100.000000%,100.000000%);stroke: none;"></path>
  <path d="M185.931641 97.675888L191.912933 97.675888L191.912933 90.255493L185.931641 90.255493Z" style="fill: rgb(100.000000%,100.000000%,100.000000%);stroke: none;"></path>
  <g transform="translate(186.431641 96.175888)" style="fill: rgb(0.000000%,0.000000%,0.000000%);">
    <use xlink:href="#GLYPHcmr10_49"></use>
  </g>
  <path d="M32.271210 57.299683L38.252502 57.299683L38.252502 49.879288L32.271210 49.879288Z" style="fill: rgb(100.000000%,100.000000%,100.000000%);stroke: none;"></path>
  <path d="M32.271210 59.299683L38.252502 59.299683L38.252502 51.879288L32.271210 51.879288Z" style="fill: rgb(100.000000%,100.000000%,100.000000%);stroke: none;"></path>
  <g transform="translate(32.771210 57.799683)" style="fill: rgb(0.000000%,0.000000%,0.000000%);">
    <use xlink:href="#GLYPHcmr10_50"></use>
  </g>
  <path d="M113.446350 188.106628L119.427643 188.106628L119.427643 180.686234L113.446350 180.686234Z" style="fill: rgb(100.000000%,100.000000%,100.000000%);stroke: none;"></path>
  <path d="M113.446350 190.106628L119.427643 190.106628L119.427643 182.686234L113.446350 182.686234Z" style="fill: rgb(100.000000%,100.000000%,100.000000%);stroke: none;"></path>
  <g transform="translate(113.946350 188.606628)" style="fill: rgb(0.000000%,0.000000%,0.000000%);">
    <use xlink:href="#GLYPHcmr10_51"></use>
  </g>
  <path d="M134.485886 116.593475L140.467178 116.593475L140.467178 109.173080L134.485886 109.173080Z" style="fill: rgb(100.000000%,100.000000%,100.000000%);stroke: none;"></path>
  <path d="M134.485886 118.593475L140.467178 118.593475L140.467178 111.173080L134.485886 111.173080Z" style="fill: rgb(100.000000%,100.000000%,100.000000%);stroke: none;"></path>
  <g transform="translate(134.985886 117.093475)" style="fill: rgb(0.000000%,0.000000%,0.000000%);">
    <use xlink:href="#GLYPHcmr10_52"></use>
  </g>
  <path d="M87.454681 65.033340L93.435974 65.033340L93.435974 57.612946L87.454681 57.612946Z" style="fill: rgb(100.000000%,100.000000%,100.000000%);stroke: none;"></path>
  <path d="M87.454681 67.033340L93.435974 67.033340L93.435974 59.612946L87.454681 59.612946Z" style="fill: rgb(100.000000%,100.000000%,100.000000%);stroke: none;"></path>
  <g transform="translate(87.954681 65.533340)" style="fill: rgb(0.000000%,0.000000%,0.000000%);">
    <use xlink:href="#GLYPHcmr10_53"></use>
  </g>
  <path d="M126.720139 9.579285L132.701431 9.579285L132.701431 2.158890L126.720139 2.158890Z" style="fill: rgb(100.000000%,100.000000%,100.000000%);stroke: none;"></path>
  <path d="M126.720139 11.579285L132.701431 11.579285L132.701431 4.158890L126.720139 4.158890Z" style="fill: rgb(100.000000%,100.000000%,100.000000%);stroke: none;"></path>
  <g transform="translate(127.220139 10.079285)" style="fill: rgb(0.000000%,0.000000%,0.000000%);">
    <use xlink:href="#GLYPHcmr10_54"></use>
  </g>
  <path d="M94.809372 100.917938L100.790665 100.917938L100.790665 93.497543L94.809372 93.497543Z" style="fill: rgb(100.000000%,100.000000%,100.000000%);stroke: none;"></path>
  <path d="M94.809372 102.917938L100.790665 102.917938L100.790665 95.497543L94.809372 95.497543Z" style="fill: rgb(100.000000%,100.000000%,100.000000%);stroke: none;"></path>
  <g transform="translate(95.309372 101.417938)" style="fill: rgb(0.000000%,0.000000%,0.000000%);">
    <use xlink:href="#GLYPHcmr10_55"></use>
  </g>
  <path d="M7.404297 155.493515L13.385590 155.493515L13.385590 148.073120L7.404297 148.073120Z" style="fill: rgb(100.000000%,100.000000%,100.000000%);stroke: none;"></path>
  <path d="M7.404297 157.493515L13.385590 157.493515L13.385590 150.073120L7.404297 150.073120Z" style="fill: rgb(100.000000%,100.000000%,100.000000%);stroke: none;"></path>
  <g transform="translate(7.904297 155.993515)" style="fill: rgb(0.000000%,0.000000%,0.000000%);">
    <use xlink:href="#GLYPHcmr10_56"></use>
  </g>
  <path d="M83.280212 144.622665L89.261505 144.622665L89.261505 137.202271L83.280212 137.202271Z" style="fill: rgb(100.000000%,100.000000%,100.000000%);stroke: none;"></path>
  <path d="M83.280212 146.622665L89.261505 146.622665L89.261505 139.202271L83.280212 139.202271Z" style="fill: rgb(100.000000%,100.000000%,100.000000%);stroke: none;"></path>
  <g transform="translate(83.780212 145.122665)" style="fill: rgb(0.000000%,0.000000%,0.000000%);">
    <use xlink:href="#GLYPHcmr10_57"></use>
  </g>
  <path d="M104.618729 80.343857L115.581436 80.343857L115.581436 72.923462L104.618729 72.923462Z" style="fill: rgb(100.000000%,100.000000%,100.000000%);stroke: none;"></path>
  <path d="M104.618729 82.343857L115.581436 82.343857L115.581436 74.923462L104.618729 74.923462Z" style="fill: rgb(100.000000%,100.000000%,100.000000%);stroke: none;"></path>
  <g transform="translate(105.118729 80.843857)" style="fill: rgb(0.000000%,0.000000%,0.000000%);">
    <use xlink:href="#GLYPHcmr10_49"></use>
    <use xlink:href="#GLYPHcmr10_48" x="5.000095"></use>
  </g>
  <path d="M84.750580 117.012695L95.713287 117.012695L95.713287 109.592300L84.750580 109.592300Z" style="fill: rgb(100.000000%,100.000000%,100.000000%);stroke: none;"></path>
  <path d="M84.750580 119.012695L95.713287 119.012695L95.713287 111.592300L84.750580 111.592300Z" style="fill: rgb(100.000000%,100.000000%,100.000000%);stroke: none;"></path>
  <g transform="translate(85.250580 117.512695)" style="fill: rgb(0.000000%,0.000000%,0.000000%);">
    <use xlink:href="#GLYPHcmr10_49"></use>
    <use xlink:href="#GLYPHcmr10_49" x="5.000095"></use>
  </g>
</svg>
