<?xml version="1.0"?>
<!-- Created by MetaPost 1.999 on 2021.07.06:0013 -->
<svg version="1.1" xmlns="http://www.w3.org/2000/svg" xmlns:xlink="http://www.w3.org/1999/xlink" width="205.223251" height="204.740662" viewBox="0 0 205.223251 204.740662">
<!-- Original BoundingBox: -131.636871 -45.797897 73.586380 158.942764 -->
  <defs>
    <g transform="scale(0.009963,0.009963)" id="GLYPHcmr10_48">
      <path style="fill-rule: evenodd;" d="M460.000000 -320.000000C460.000000 -400.000000,455.000000 -480.000000,420.000000 -554.000000C374.000000 -650.000000,292.000000 -666.000000,250.000000 -666.000000C190.000000 -666.000000,117.000000 -640.000000,76.000000 -547.000000C44.000000 -478.000000,39.000000 -400.000000,39.000000 -320.000000C39.000000 -245.000000,43.000000 -155.000000,84.000000 -79.000000C127.000000 2.000000,200.000000 22.000000,249.000000 22.000000C303.000000 22.000000,379.000000 1.000000,423.000000 -94.000000C455.000000 -163.000000,460.000000 -241.000000,460.000000 -320.000000M249.000000 -0.000000C210.000000 -0.000000,151.000000 -25.000000,133.000000 -121.000000C122.000000 -181.000000,122.000000 -273.000000,122.000000 -332.000000C122.000000 -396.000000,122.000000 -462.000000,130.000000 -516.000000C149.000000 -635.000000,224.000000 -644.000000,249.000000 -644.000000C282.000000 -644.000000,348.000000 -626.000000,367.000000 -527.000000C377.000000 -471.000000,377.000000 -395.000000,377.000000 -332.000000C377.000000 -257.000000,377.000000 -189.000000,366.000000 -125.000000C351.000000 -30.000000,294.000000 -0.000000,249.000000 -0.000000"></path>
    </g>
    <g transform="scale(0.009963,0.009963)" id="GLYPHcmr10_49">
      <path style="fill-rule: evenodd;" d="M294.000000 -640.000000C294.000000 -664.000000,294.000000 -666.000000,271.000000 -666.000000C209.000000 -602.000000,121.000000 -602.000000,89.000000 -602.000000L89.000000 -571.000000C109.000000 -571.000000,168.000000 -571.000000,220.000000 -597.000000L220.000000 -79.000000C220.000000 -43.000000,217.000000 -31.000000,127.000000 -31.000000L95.000000 -31.000000L95.000000 -0.000000L257.000000 -0.000000L130.000000 -3.000000L217.000000 -3.000000L257.000000 -3.000000L297.000000 -3.000000L384.000000 -3.000000L419.000000 -0.000000L419.000000 -31.000000L387.000000 -31.000000C297.000000 -31.000000,294.000000 -42.000000,294.000000 -79.000000"></path>
    </g>
    <g transform="scale(0.009963,0.009963)" id="GLYPHcmr10_50">
      <path style="fill-rule: evenodd;" d="M127.000000 -77.000000L233.000000 -180.000000C389.000000 -318.000000,449.000000 -372.000000,449.000000 -472.000000C449.000000 -586.000000,359.000000 -666.000000,237.000000 -666.000000C124.000000 -666.000000,50.000000 -574.000000,50.000000 -485.000000C50.000000 -429.000000,100.000000 -429.000000,103.000000 -429.000000C120.000000 -429.000000,155.000000 -441.000000,155.000000 -482.000000C155.000000 -508.000000,137.000000 -534.000000,102.000000 -534.000000C94.000000 -534.000000,92.000000 -534.000000,89.000000 -533.000000C112.000000 -598.000000,166.000000 -635.000000,224.000000 -635.000000C315.000000 -635.000000,358.000000 -554.000000,358.000000 -472.000000C358.000000 -392.000000,308.000000 -313.000000,253.000000 -251.000000L61.000000 -37.000000C50.000000 -26.000000,50.000000 -24.000000,50.000000 -0.000000L421.000000 -0.000000L449.000000 -174.000000L424.000000 -174.000000C419.000000 -144.000000,412.000000 -100.000000,402.000000 -85.000000C395.000000 -77.000000,329.000000 -77.000000,307.000000 -77.000000"></path>
    </g>
    <g transform="scale(0.009963,0.009963)" id="GLYPHcmr10_51">
      <path style="fill-rule: evenodd;" d="M290.000000 -352.000000C372.000000 -379.000000,430.000000 -449.000000,430.000000 -528.000000C430.000000 -610.000000,342.000000 -666.000000,246.000000 -666.000000C145.000000 -666.000000,69.000000 -606.000000,69.000000 -530.000000C69.000000 -497.000000,91.000000 -478.000000,120.000000 -478.000000C151.000000 -478.000000,171.000000 -500.000000,171.000000 -529.000000C171.000000 -579.000000,124.000000 -579.000000,109.000000 -579.000000C140.000000 -628.000000,206.000000 -641.000000,242.000000 -641.000000C283.000000 -641.000000,338.000000 -619.000000,338.000000 -529.000000C338.000000 -517.000000,336.000000 -459.000000,310.000000 -415.000000C280.000000 -367.000000,246.000000 -364.000000,221.000000 -363.000000C213.000000 -362.000000,189.000000 -360.000000,182.000000 -360.000000C174.000000 -359.000000,167.000000 -358.000000,167.000000 -348.000000C167.000000 -337.000000,174.000000 -337.000000,191.000000 -337.000000L235.000000 -337.000000C317.000000 -337.000000,354.000000 -269.000000,354.000000 -171.000000C354.000000 -35.000000,285.000000 -6.000000,241.000000 -6.000000C198.000000 -6.000000,123.000000 -23.000000,88.000000 -82.000000C123.000000 -77.000000,154.000000 -99.000000,154.000000 -137.000000C154.000000 -173.000000,127.000000 -193.000000,98.000000 -193.000000C74.000000 -193.000000,42.000000 -179.000000,42.000000 -135.000000C42.000000 -44.000000,135.000000 22.000000,244.000000 22.000000C366.000000 22.000000,457.000000 -69.000000,457.000000 -171.000000C457.000000 -253.000000,394.000000 -331.000000,290.000000 -352.000000"></path>
    </g>
    <g transform="scale(0.009963,0.009963)" id="GLYPHcmr10_52">
      <path style="fill-rule: evenodd;" d="M294.000000 -165.000000L294.000000 -78.000000C294.000000 -42.000000,292.000000 -31.000000,218.000000 -31.000000L197.000000 -31.000000L197.000000 -0.000000L332.000000 -0.000000L238.000000 -3.000000L290.000000 -3.000000L332.000000 -3.000000L374.000000 -3.000000L427.000000 -3.000000L468.000000 -0.000000L468.000000 -31.000000L447.000000 -31.000000C373.000000 -31.000000,371.000000 -42.000000,371.000000 -78.000000L371.000000 -165.000000L471.000000 -165.000000L471.000000 -196.000000L371.000000 -196.000000L371.000000 -651.000000C371.000000 -671.000000,371.000000 -677.000000,355.000000 -677.000000C346.000000 -677.000000,343.000000 -677.000000,335.000000 -665.000000L28.000000 -196.000000L28.000000 -165.000000M300.000000 -196.000000L56.000000 -196.000000L300.000000 -569.000000"></path>
    </g>
    <g transform="scale(0.009963,0.009963)" id="GLYPHcmr10_53">
      <path style="fill-rule: evenodd;" d="M449.000000 -201.000000C449.000000 -320.000000,367.000000 -420.000000,259.000000 -420.000000C211.000000 -420.000000,168.000000 -404.000000,132.000000 -369.000000L132.000000 -564.000000C152.000000 -558.000000,185.000000 -551.000000,217.000000 -551.000000C340.000000 -551.000000,410.000000 -642.000000,410.000000 -655.000000C410.000000 -661.000000,407.000000 -666.000000,400.000000 -666.000000C399.000000 -666.000000,397.000000 -666.000000,392.000000 -663.000000C372.000000 -654.000000,323.000000 -634.000000,256.000000 -634.000000C216.000000 -634.000000,170.000000 -641.000000,123.000000 -662.000000C115.000000 -665.000000,113.000000 -665.000000,111.000000 -665.000000C101.000000 -665.000000,101.000000 -657.000000,101.000000 -641.000000L101.000000 -345.000000C101.000000 -327.000000,101.000000 -319.000000,115.000000 -319.000000C122.000000 -319.000000,124.000000 -322.000000,128.000000 -328.000000C139.000000 -344.000000,176.000000 -398.000000,257.000000 -398.000000C309.000000 -398.000000,334.000000 -352.000000,342.000000 -334.000000C358.000000 -297.000000,360.000000 -258.000000,360.000000 -208.000000C360.000000 -173.000000,360.000000 -113.000000,336.000000 -71.000000C312.000000 -32.000000,275.000000 -6.000000,229.000000 -6.000000C156.000000 -6.000000,99.000000 -59.000000,82.000000 -118.000000C85.000000 -117.000000,88.000000 -116.000000,99.000000 -116.000000C132.000000 -116.000000,149.000000 -141.000000,149.000000 -165.000000C149.000000 -189.000000,132.000000 -214.000000,99.000000 -214.000000C85.000000 -214.000000,50.000000 -207.000000,50.000000 -161.000000C50.000000 -75.000000,119.000000 22.000000,231.000000 22.000000C347.000000 22.000000,449.000000 -74.000000,449.000000 -201.000000"></path>
    </g>
    <g transform="scale(0.009963,0.009963)" id="GLYPHcmr10_54">
      <path style="fill-rule: evenodd;" d="M132.000000 -328.000000L132.000000 -352.000000C132.000000 -605.000000,256.000000 -641.000000,307.000000 -641.000000C331.000000 -641.000000,373.000000 -635.000000,395.000000 -601.000000C380.000000 -601.000000,340.000000 -601.000000,340.000000 -556.000000C340.000000 -525.000000,364.000000 -510.000000,386.000000 -510.000000C402.000000 -510.000000,432.000000 -519.000000,432.000000 -558.000000C432.000000 -618.000000,388.000000 -666.000000,305.000000 -666.000000C177.000000 -666.000000,42.000000 -537.000000,42.000000 -316.000000C42.000000 -49.000000,158.000000 22.000000,251.000000 22.000000C362.000000 22.000000,457.000000 -72.000000,457.000000 -204.000000C457.000000 -331.000000,368.000000 -427.000000,257.000000 -427.000000C189.000000 -427.000000,152.000000 -376.000000,132.000000 -328.000000M251.000000 -6.000000C188.000000 -6.000000,158.000000 -66.000000,152.000000 -81.000000C134.000000 -128.000000,134.000000 -208.000000,134.000000 -226.000000C134.000000 -304.000000,166.000000 -404.000000,256.000000 -404.000000C272.000000 -404.000000,318.000000 -404.000000,349.000000 -342.000000C367.000000 -305.000000,367.000000 -254.000000,367.000000 -205.000000C367.000000 -157.000000,367.000000 -107.000000,350.000000 -71.000000C320.000000 -11.000000,274.000000 -6.000000,251.000000 -6.000000"></path>
    </g>
    <g transform="scale(0.009963,0.009963)" id="GLYPHcmr10_55">
      <path style="fill-rule: evenodd;" d="M476.000000 -609.000000C485.000000 -621.000000,485.000000 -623.000000,485.000000 -644.000000L242.000000 -644.000000C120.000000 -644.000000,118.000000 -657.000000,114.000000 -676.000000L89.000000 -676.000000L56.000000 -470.000000L81.000000 -470.000000C84.000000 -486.000000,93.000000 -549.000000,106.000000 -561.000000C113.000000 -567.000000,191.000000 -567.000000,204.000000 -567.000000L411.000000 -567.000000C400.000000 -551.000000,321.000000 -442.000000,299.000000 -409.000000C209.000000 -274.000000,176.000000 -135.000000,176.000000 -33.000000C176.000000 -23.000000,176.000000 22.000000,222.000000 22.000000C268.000000 22.000000,268.000000 -23.000000,268.000000 -33.000000L268.000000 -84.000000C268.000000 -139.000000,271.000000 -194.000000,279.000000 -248.000000C283.000000 -271.000000,297.000000 -357.000000,341.000000 -419.000000"></path>
    </g>
    <g transform="scale(0.009963,0.009963)" id="GLYPHcmr10_56">
      <path style="fill-rule: evenodd;" d="M163.000000 -457.000000C117.000000 -487.000000,113.000000 -521.000000,113.000000 -538.000000C113.000000 -599.000000,178.000000 -641.000000,249.000000 -641.000000C322.000000 -641.000000,386.000000 -589.000000,386.000000 -517.000000C386.000000 -460.000000,347.000000 -412.000000,287.000000 -377.000000M309.000000 -362.000000C381.000000 -399.000000,430.000000 -451.000000,430.000000 -517.000000C430.000000 -609.000000,341.000000 -666.000000,250.000000 -666.000000C150.000000 -666.000000,69.000000 -592.000000,69.000000 -499.000000C69.000000 -481.000000,71.000000 -436.000000,113.000000 -389.000000C124.000000 -377.000000,161.000000 -352.000000,186.000000 -335.000000C128.000000 -306.000000,42.000000 -250.000000,42.000000 -151.000000C42.000000 -45.000000,144.000000 22.000000,249.000000 22.000000C362.000000 22.000000,457.000000 -61.000000,457.000000 -168.000000C457.000000 -204.000000,446.000000 -249.000000,408.000000 -291.000000C389.000000 -312.000000,373.000000 -322.000000,309.000000 -362.000000M209.000000 -320.000000L332.000000 -242.000000C360.000000 -223.000000,407.000000 -193.000000,407.000000 -132.000000C407.000000 -58.000000,332.000000 -6.000000,250.000000 -6.000000C164.000000 -6.000000,92.000000 -68.000000,92.000000 -151.000000C92.000000 -209.000000,124.000000 -273.000000,209.000000 -320.000000"></path>
    </g>
    <g transform="scale(0.009963,0.009963)" id="GLYPHcmr10_57">
      <path style="fill-rule: evenodd;" d="M367.000000 -318.000000L367.000000 -286.000000C367.000000 -52.000000,263.000000 -6.000000,205.000000 -6.000000C188.000000 -6.000000,134.000000 -8.000000,107.000000 -42.000000C151.000000 -42.000000,159.000000 -71.000000,159.000000 -88.000000C159.000000 -119.000000,135.000000 -134.000000,113.000000 -134.000000C97.000000 -134.000000,67.000000 -125.000000,67.000000 -86.000000C67.000000 -19.000000,121.000000 22.000000,206.000000 22.000000C335.000000 22.000000,457.000000 -114.000000,457.000000 -329.000000C457.000000 -598.000000,342.000000 -666.000000,253.000000 -666.000000C198.000000 -666.000000,149.000000 -648.000000,106.000000 -603.000000C65.000000 -558.000000,42.000000 -516.000000,42.000000 -441.000000C42.000000 -316.000000,130.000000 -218.000000,242.000000 -218.000000C303.000000 -218.000000,344.000000 -260.000000,367.000000 -318.000000M243.000000 -241.000000C227.000000 -241.000000,181.000000 -241.000000,150.000000 -304.000000C132.000000 -341.000000,132.000000 -391.000000,132.000000 -440.000000C132.000000 -494.000000,132.000000 -541.000000,153.000000 -578.000000C180.000000 -628.000000,218.000000 -641.000000,253.000000 -641.000000C299.000000 -641.000000,332.000000 -607.000000,349.000000 -562.000000C361.000000 -530.000000,365.000000 -467.000000,365.000000 -421.000000C365.000000 -338.000000,331.000000 -241.000000,243.000000 -241.000000"></path>
    </g>
  </defs>
  <path d="M93.113022 200.809158C93.113022 200.016464,92.798080 199.256317,92.237595 198.695847C91.677124 198.135361,90.916977 197.820419,90.124283 197.820419C89.331589 197.820419,88.571442 198.135361,88.010971 198.695847C87.450485 199.256317,87.135544 200.016464,87.135544 200.809158C87.135544 201.601852,87.450485 202.362000,88.010971 202.922470C88.571442 203.482956,89.331589 203.797897,90.124283 203.797897C90.916977 203.797897,91.677124 203.482956,92.237595 202.922470C92.798080 202.362000,93.113022 201.601852,93.113022 200.809158Z" style="fill: rgb(100.000000%,100.000000%,100.000000%);stroke: none;"></path>
  <path d="M66.820023 186.355164C66.820023 185.562469,66.505081 184.802322,65.944595 184.241852C65.384125 183.681366,64.623978 183.366425,63.831284 183.366425C63.038589 183.366425,62.278442 183.681366,61.717972 184.241852C61.157486 184.802322,60.842545 185.562469,60.842545 186.355164C60.842545 187.147858,61.157486 187.908005,61.717972 188.468475C62.278442 189.028961,63.038589 189.343903,63.831284 189.343903C64.623978 189.343903,65.384125 189.028961,65.944595 188.468475C66.505081 187.908005,66.820023 187.147858,66.820023 186.355164Z" style="fill: rgb(100.000000%,100.000000%,100.000000%);stroke: none;"></path>
  <path d="M138.695953 140.942245C138.695953 140.149551,138.381012 139.389404,137.820526 138.828934C137.260056 138.268448,136.499908 137.953506,135.707214 137.953506C134.914520 137.953506,134.154373 138.268448,133.593903 138.828934C133.033417 139.389404,132.718475 140.149551,132.718475 140.942245C132.718475 141.734940,133.033417 142.495087,133.593903 143.055557C134.154373 143.616043,134.914520 143.930984,135.707214 143.930984C136.499908 143.930984,137.260056 143.616043,137.820526 143.055557C138.381012 142.495087,138.695953 141.734940,138.695953 140.942245Z" style="fill: rgb(100.000000%,100.000000%,100.000000%);stroke: none;"></path>
  <path d="M126.007233 186.922913C126.007233 186.130219,125.692291 185.370071,125.131805 184.809601C124.571335 184.249115,123.811188 183.934174,123.018494 183.934174C122.225800 183.934174,121.465652 184.249115,120.905182 184.809601C120.344696 185.370071,120.029755 186.130219,120.029755 186.922913C120.029755 187.715607,120.344696 188.475754,120.905182 189.036224C121.465652 189.596710,122.225800 189.911652,123.018494 189.911652C123.811188 189.911652,124.571335 189.596710,125.131805 189.036224C125.692291 188.475754,126.007233 187.715607,126.007233 186.922913Z" style="fill: rgb(100.000000%,100.000000%,100.000000%);stroke: none;"></path>
  <path d="M131.948654 97.143295C131.948654 96.350601,131.633713 95.590454,131.073227 95.029984C130.512756 94.469498,129.752609 94.154556,128.959915 94.154556C128.167221 94.154556,127.407074 94.469498,126.846603 95.029984C126.286118 95.590454,125.971176 96.350601,125.971176 97.143295C125.971176 97.935989,126.286118 98.696136,126.846603 99.256607C127.407074 99.817093,128.167221 100.132034,128.959915 100.132034C129.752609 100.132034,130.512756 99.817093,131.073227 99.256607C131.633713 98.696136,131.948654 97.935989,131.948654 97.143295Z" style="fill: rgb(100.000000%,100.000000%,100.000000%);stroke: none;"></path>
  <path d="M132.100708 123.331879C132.100708 122.539185,131.785767 121.779037,131.225281 121.218567C130.664810 120.658081,129.904663 120.343140,129.111969 120.343140C128.319275 120.343140,127.559128 120.658081,126.998657 121.218567C126.438171 121.779037,126.123230 122.539185,126.123230 123.331879C126.123230 124.124573,126.438171 124.884720,126.998657 125.445190C127.559128 126.005676,128.319275 126.320618,129.111969 126.320618C129.904663 126.320618,130.664810 126.005676,131.225281 125.445190C131.785767 124.884720,132.100708 124.124573,132.100708 123.331879Z" style="fill: rgb(100.000000%,100.000000%,100.000000%);stroke: none;"></path>
  <path d="M134.197128 76.546875C134.197128 75.754181,133.882187 74.994034,133.321701 74.433563C132.761230 73.873077,132.001083 73.558136,131.208389 73.558136C130.415695 73.558136,129.655548 73.873077,129.095078 74.433563C128.534592 74.994034,128.219650 75.754181,128.219650 76.546875C128.219650 77.339569,128.534592 78.099716,129.095078 78.660187C129.655548 79.220673,130.415695 79.535614,131.208389 79.535614C132.001083 79.535614,132.761230 79.220673,133.321701 78.660187C133.882187 78.099716,134.197128 77.339569,134.197128 76.546875Z" style="fill: rgb(100.000000%,100.000000%,100.000000%);stroke: none;"></path>
  <path d="M133.474731 88.620285C133.474731 87.827591,133.159790 87.067444,132.599304 86.506973C132.038834 85.946487,131.278687 85.631546,130.485992 85.631546C129.693298 85.631546,128.933151 85.946487,128.372681 86.506973C127.812195 87.067444,127.497253 87.827591,127.497253 88.620285C127.497253 89.412979,127.812195 90.173126,128.372681 90.733597C128.933151 91.294083,129.693298 91.609024,130.485992 91.609024C131.278687 91.609024,132.038834 91.294083,132.599304 90.733597C133.159790 90.173126,133.474731 89.412979,133.474731 88.620285Z" style="fill: rgb(100.000000%,100.000000%,100.000000%);stroke: none;"></path>
  <path d="M140.347687 71.115845C140.347687 70.323151,140.032745 69.563004,139.472260 69.002533C138.911789 68.442047,138.151642 68.127106,137.358948 68.127106C136.566254 68.127106,135.806107 68.442047,135.245636 69.002533C134.685150 69.563004,134.370209 70.323151,134.370209 71.115845C134.370209 71.908539,134.685150 72.668686,135.245636 73.229156C135.806107 73.789642,136.566254 74.104584,137.358948 74.104584C138.151642 74.104584,138.911789 73.789642,139.472260 73.229156C140.032745 72.668686,140.347687 71.908539,140.347687 71.115845Z" style="fill: rgb(100.000000%,100.000000%,100.000000%);stroke: none;"></path>
  <path d="M134.842636 72.716537C134.842636 71.923843,134.527695 71.163696,133.967209 70.603226C133.406738 70.042740,132.646591 69.727798,131.853897 69.727798C131.061203 69.727798,130.301056 70.042740,129.740585 70.603226C129.180099 71.163696,128.865158 71.923843,128.865158 72.716537C128.865158 73.509232,129.180099 74.269379,129.740585 74.829849C130.301056 75.390335,131.061203 75.705276,131.853897 75.705276C132.646591 75.705276,133.406738 75.390335,133.967209 74.829849C134.527695 74.269379,134.842636 73.509232,134.842636 72.716537Z" style="fill: rgb(100.000000%,100.000000%,100.000000%);stroke: none;"></path>
  <path d="M146.252670 75.425064C146.252670 74.632370,145.937729 73.872223,145.377243 73.311752C144.816772 72.751266,144.056625 72.436325,143.263931 72.436325C142.471237 72.436325,141.711090 72.751266,141.150620 73.311752C140.590134 73.872223,140.275192 74.632370,140.275192 75.425064C140.275192 76.217758,140.590134 76.977905,141.150620 77.538376C141.711090 78.098862,142.471237 78.413803,143.263931 78.413803C144.056625 78.413803,144.816772 78.098862,145.377243 77.538376C145.937729 76.977905,146.252670 76.217758,146.252670 75.425064Z" style="fill: rgb(100.000000%,100.000000%,100.000000%);stroke: none;"></path>
  <path d="M142.541580 72.641785C142.541580 71.849091,142.226639 71.088943,141.666153 70.528473C141.105682 69.967987,140.345535 69.653046,139.552841 69.653046C138.760147 69.653046,138.000000 69.967987,137.439529 70.528473C136.879044 71.088943,136.564102 71.849091,136.564102 72.641785C136.564102 73.434479,136.879044 74.194626,137.439529 74.755096C138.000000 75.315582,138.760147 75.630524,139.552841 75.630524C140.345535 75.630524,141.105682 75.315582,141.666153 74.755096C142.226639 74.194626,142.541580 73.434479,142.541580 72.641785Z" style="fill: rgb(100.000000%,100.000000%,100.000000%);stroke: none;"></path>
  <path d="M152.495926 74.789352C152.495926 73.996658,152.180984 73.236511,151.620499 72.676041C151.060028 72.115555,150.299881 71.800613,149.507187 71.800613C148.714493 71.800613,147.954346 72.115555,147.393875 72.676041C146.833389 73.236511,146.518448 73.996658,146.518448 74.789352C146.518448 75.582047,146.833389 76.342194,147.393875 76.902664C147.954346 77.463150,148.714493 77.778091,149.507187 77.778091C150.299881 77.778091,151.060028 77.463150,151.620499 76.902664C152.180984 76.342194,152.495926 75.582047,152.495926 74.789352Z" style="fill: rgb(100.000000%,100.000000%,100.000000%);stroke: none;"></path>
  <path d="M148.310791 76.644836C148.310791 75.852142,147.995850 75.091995,147.435364 74.531525C146.874893 73.971039,146.114746 73.656097,145.322052 73.656097C144.529358 73.656097,143.769211 73.971039,143.208740 74.531525C142.648254 75.091995,142.333313 75.852142,142.333313 76.644836C142.333313 77.437531,142.648254 78.197678,143.208740 78.758148C143.769211 79.318634,144.529358 79.633575,145.322052 79.633575C146.114746 79.633575,146.874893 79.318634,147.435364 78.758148C147.995850 78.197678,148.310791 77.437531,148.310791 76.644836Z" style="fill: rgb(100.000000%,100.000000%,100.000000%);stroke: none;"></path>
  <path d="M152.719009 65.526993C152.719009 64.734299,152.404068 63.974152,151.843582 63.413681C151.283112 62.853195,150.522964 62.538254,149.730270 62.538254C148.937576 62.538254,148.177429 62.853195,147.616959 63.413681C147.056473 63.974152,146.741531 64.734299,146.741531 65.526993C146.741531 66.319687,147.056473 67.079834,147.616959 67.640305C148.177429 68.200790,148.937576 68.515732,149.730270 68.515732C150.522964 68.515732,151.283112 68.200790,151.843582 67.640305C152.404068 67.079834,152.719009 66.319687,152.719009 65.526993Z" style="fill: rgb(100.000000%,100.000000%,100.000000%);stroke: none;"></path>
  <path d="M152.763367 71.980331C152.763367 71.187637,152.448425 70.427490,151.887939 69.867020C151.327469 69.306534,150.567322 68.991592,149.774628 68.991592C148.981934 68.991592,148.221786 69.306534,147.661316 69.867020C147.100830 70.427490,146.785889 71.187637,146.785889 71.980331C146.785889 72.773026,147.100830 73.533173,147.661316 74.093643C148.221786 74.654129,148.981934 74.969070,149.774628 74.969070C150.567322 74.969070,151.327469 74.654129,151.887939 74.093643C152.448425 73.533173,152.763367 72.773026,152.763367 71.980331Z" style="fill: rgb(100.000000%,100.000000%,100.000000%);stroke: none;"></path>
  <path d="M159.542175 48.899277C159.542175 48.106583,159.227234 47.346436,158.666748 46.785965C158.106277 46.225479,157.346130 45.910538,156.553436 45.910538C155.760742 45.910538,155.000595 46.225479,154.440125 46.785965C153.879639 47.346436,153.564697 48.106583,153.564697 48.899277C153.564697 49.691971,153.879639 50.452118,154.440125 51.012589C155.000595 51.573074,155.760742 51.888016,156.553436 51.888016C157.346130 51.888016,158.106277 51.573074,158.666748 51.012589C159.227234 50.452118,159.542175 49.691971,159.542175 48.899277Z" style="fill: rgb(100.000000%,100.000000%,100.000000%);stroke: none;"></path>
  <path d="M152.853333 61.518326C152.853333 60.725632,152.538391 59.965485,151.977905 59.405014C151.417435 58.844528,150.657288 58.529587,149.864594 58.529587C149.071899 58.529587,148.311752 58.844528,147.751282 59.405014C147.190796 59.965485,146.875854 60.725632,146.875854 61.518326C146.875854 62.311020,147.190796 63.071167,147.751282 63.631638C148.311752 64.192123,149.071899 64.507065,149.864594 64.507065C150.657288 64.507065,151.417435 64.192123,151.977905 63.631638C152.538391 63.071167,152.853333 62.311020,152.853333 61.518326Z" style="fill: rgb(100.000000%,100.000000%,100.000000%);stroke: none;"></path>
  <path d="M202.946167 64.342941C202.946167 63.550247,202.631226 62.790100,202.070740 62.229630C201.510269 61.669144,200.750122 61.354202,199.957428 61.354202C199.164734 61.354202,198.404587 61.669144,197.844116 62.229630C197.283630 62.790100,196.968689 63.550247,196.968689 64.342941C196.968689 65.135635,197.283630 65.895782,197.844116 66.456253C198.404587 67.016739,199.164734 67.331680,199.957428 67.331680C200.750122 67.331680,201.510269 67.016739,202.070740 66.456253C202.631226 65.895782,202.946167 65.135635,202.946167 64.342941Z" style="fill: rgb(100.000000%,100.000000%,100.000000%);stroke: none;"></path>
  <path d="M171.807510 47.549973C171.807510 46.757278,171.492569 45.997131,170.932083 45.436661C170.371613 44.876175,169.611465 44.561234,168.818771 44.561234C168.026077 44.561234,167.265930 44.876175,166.705460 45.436661C166.144974 45.997131,165.830032 46.757278,165.830032 47.549973C165.830032 48.342667,166.144974 49.102814,166.705460 49.663284C167.265930 50.223770,168.026077 50.538712,168.818771 50.538712C169.611465 50.538712,170.371613 50.223770,170.932083 49.663284C171.492569 49.102814,171.807510 48.342667,171.807510 47.549973Z" style="fill: rgb(100.000000%,100.000000%,100.000000%);stroke: none;"></path>
  <path d="M184.193069 144.578232C184.193069 143.785538,183.878128 143.025391,183.317642 142.464920C182.757172 141.904434,181.997025 141.589493,181.204330 141.589493C180.411636 141.589493,179.651489 141.904434,179.091019 142.464920C178.530533 143.025391,178.215591 143.785538,178.215591 144.578232C178.215591 145.370926,178.530533 146.131073,179.091019 146.691544C179.651489 147.252029,180.411636 147.566971,181.204330 147.566971C181.997025 147.566971,182.757172 147.252029,183.317642 146.691544C183.878128 146.131073,184.193069 145.370926,184.193069 144.578232Z" style="fill: rgb(100.000000%,100.000000%,100.000000%);stroke: none;"></path>
  <path d="M204.586380 92.941101C204.586380 92.148407,204.271439 91.388260,203.710953 90.827789C203.150482 90.267303,202.390335 89.952362,201.597641 89.952362C200.804947 89.952362,200.044800 90.267303,199.484329 90.827789C198.923843 91.388260,198.608902 92.148407,198.608902 92.941101C198.608902 93.733795,198.923843 94.493942,199.484329 95.054413C200.044800 95.614899,200.804947 95.929840,201.597641 95.929840C202.390335 95.929840,203.150482 95.614899,203.710953 95.054413C204.271439 94.493942,204.586380 93.733795,204.586380 92.941101Z" style="fill: rgb(100.000000%,100.000000%,100.000000%);stroke: none;"></path>
  <path d="M117.500534 152.958252C117.500534 152.165558,117.185593 151.405411,116.625107 150.844940C116.064636 150.284454,115.304489 149.969513,114.511795 149.969513C113.719101 149.969513,112.958954 150.284454,112.398483 150.844940C111.837997 151.405411,111.523056 152.165558,111.523056 152.958252C111.523056 153.750946,111.837997 154.511093,112.398483 155.071564C112.958954 155.632050,113.719101 155.946991,114.511795 155.946991C115.304489 155.946991,116.064636 155.632050,116.625107 155.071564C117.185593 154.511093,117.500534 153.750946,117.500534 152.958252Z" style="fill: rgb(100.000000%,100.000000%,100.000000%);stroke: none;"></path>
  <path d="M160.006439 165.955673C160.006439 165.162979,159.691498 164.402832,159.131012 163.842361C158.570541 163.281876,157.810394 162.966934,157.017700 162.966934C156.225006 162.966934,155.464859 163.281876,154.904388 163.842361C154.343903 164.402832,154.028961 165.162979,154.028961 165.955673C154.028961 166.748367,154.343903 167.508514,154.904388 168.068985C155.464859 168.629471,156.225006 168.944412,157.017700 168.944412C157.810394 168.944412,158.570541 168.629471,159.131012 168.068985C159.691498 167.508514,160.006439 166.748367,160.006439 165.955673Z" style="fill: rgb(100.000000%,100.000000%,100.000000%);stroke: none;"></path>
  <path d="M89.190170 120.252991C89.190170 119.460297,88.875229 118.700150,88.314743 118.139679C87.754272 117.579193,86.994125 117.264252,86.201431 117.264252C85.408737 117.264252,84.648590 117.579193,84.088120 118.139679C83.527634 118.700150,83.212692 119.460297,83.212692 120.252991C83.212692 121.045685,83.527634 121.805832,84.088120 122.366302C84.648590 122.926788,85.408737 123.241730,86.201431 123.241730C86.994125 123.241730,87.754272 122.926788,88.314743 122.366302C88.875229 121.805832,89.190170 121.045685,89.190170 120.252991Z" style="fill: rgb(100.000000%,100.000000%,100.000000%);stroke: none;"></path>
  <path d="M108.415771 136.573944C108.415771 135.781250,108.100830 135.021103,107.540344 134.460632C106.979874 133.900146,106.219727 133.585205,105.427032 133.585205C104.634338 133.585205,103.874191 133.900146,103.313721 134.460632C102.753235 135.021103,102.438293 135.781250,102.438293 136.573944C102.438293 137.366638,102.753235 138.126785,103.313721 138.687256C103.874191 139.247742,104.634338 139.562683,105.427032 139.562683C106.219727 139.562683,106.979874 139.247742,107.540344 138.687256C108.100830 138.126785,108.415771 137.366638,108.415771 136.573944Z" style="fill: rgb(100.000000%,100.000000%,100.000000%);stroke: none;"></path>
  <path d="M72.542252 110.375031C72.542252 109.582336,72.227310 108.822189,71.666824 108.261719C71.106354 107.701233,70.346207 107.386292,69.553513 107.386292C68.760818 107.386292,68.000671 107.701233,67.440201 108.261719C66.879715 108.822189,66.564774 109.582336,66.564774 110.375031C66.564774 111.167725,66.879715 111.927872,67.440201 112.488342C68.000671 113.048828,68.760818 113.363770,69.553513 113.363770C70.346207 113.363770,71.106354 113.048828,71.666824 112.488342C72.227310 111.927872,72.542252 111.167725,72.542252 110.375031Z" style="fill: rgb(100.000000%,100.000000%,100.000000%);stroke: none;"></path>
  <path d="M82.052750 116.228806C82.052750 115.436111,81.737808 114.675964,81.177322 114.115494C80.616852 113.555008,79.856705 113.240067,79.064011 113.240067C78.271317 113.240067,77.511169 113.555008,76.950699 114.115494C76.390213 114.675964,76.075272 115.436111,76.075272 116.228806C76.075272 117.021500,76.390213 117.781647,76.950699 118.342117C77.511169 118.902603,78.271317 119.217545,79.064011 119.217545C79.856705 119.217545,80.616852 118.902603,81.177322 118.342117C81.737808 117.781647,82.052750 117.021500,82.052750 116.228806Z" style="fill: rgb(100.000000%,100.000000%,100.000000%);stroke: none;"></path>
  <path d="M65.594788 112.216660C65.594788 111.423965,65.279846 110.663818,64.719360 110.103348C64.158890 109.542862,63.398743 109.227921,62.606049 109.227921C61.813354 109.227921,61.053207 109.542862,60.492737 110.103348C59.932251 110.663818,59.617310 111.423965,59.617310 112.216660C59.617310 113.009354,59.932251 113.769501,60.492737 114.329971C61.053207 114.890457,61.813354 115.205399,62.606049 115.205399C63.398743 115.205399,64.158890 114.890457,64.719360 114.329971C65.279846 113.769501,65.594788 113.009354,65.594788 112.216660Z" style="fill: rgb(100.000000%,100.000000%,100.000000%);stroke: none;"></path>
  <path d="M69.485229 109.017426C69.485229 108.224731,69.170288 107.464584,68.609802 106.904114C68.049332 106.343628,67.289185 106.028687,66.496490 106.028687C65.703796 106.028687,64.943649 106.343628,64.383179 106.904114C63.822693 107.464584,63.507751 108.224731,63.507751 109.017426C63.507751 109.810120,63.822693 110.570267,64.383179 111.130737C64.943649 111.691223,65.703796 112.006165,66.496490 112.006165C67.289185 112.006165,68.049332 111.691223,68.609802 111.130737C69.170288 110.570267,69.485229 109.810120,69.485229 109.017426Z" style="fill: rgb(100.000000%,100.000000%,100.000000%);stroke: none;"></path>
  <path d="M65.843521 118.528931C65.843521 117.736237,65.528580 116.976089,64.968094 116.415619C64.407623 115.855133,63.647476 115.540192,62.854782 115.540192C62.062088 115.540192,61.301941 115.855133,60.741470 116.415619C60.180984 116.976089,59.866043 117.736237,59.866043 118.528931C59.866043 119.321625,60.180984 120.081772,60.741470 120.642242C61.301941 121.202728,62.062088 121.517670,62.854782 121.517670C63.647476 121.517670,64.407623 121.202728,64.968094 120.642242C65.528580 120.081772,65.843521 119.321625,65.843521 118.528931Z" style="fill: rgb(100.000000%,100.000000%,100.000000%);stroke: none;"></path>
  <path d="M65.669052 114.631149C65.669052 113.838455,65.354111 113.078308,64.793625 112.517838C64.233154 111.957352,63.473007 111.642410,62.680313 111.642410C61.887619 111.642410,61.127472 111.957352,60.567001 112.517838C60.006516 113.078308,59.691574 113.838455,59.691574 114.631149C59.691574 115.423843,60.006516 116.183990,60.567001 116.744461C61.127472 117.304947,61.887619 117.619888,62.680313 117.619888C63.473007 117.619888,64.233154 117.304947,64.793625 116.744461C65.354111 116.183990,65.669052 115.423843,65.669052 114.631149Z" style="fill: rgb(100.000000%,100.000000%,100.000000%);stroke: none;"></path>
  <path d="M62.784348 121.582047C62.784348 120.789352,62.469406 120.029205,61.908920 119.468735C61.348450 118.908249,60.588303 118.593307,59.795609 118.593307C59.002914 118.593307,58.242767 118.908249,57.682297 119.468735C57.121811 120.029205,56.806870 120.789352,56.806870 121.582047C56.806870 122.374741,57.121811 123.134888,57.682297 123.695358C58.242767 124.255844,59.002914 124.570786,59.795609 124.570786C60.588303 124.570786,61.348450 124.255844,61.908920 123.695358C62.469406 123.134888,62.784348 122.374741,62.784348 121.582047Z" style="fill: rgb(100.000000%,100.000000%,100.000000%);stroke: none;"></path>
  <path d="M65.620056 120.382751C65.620056 119.590057,65.305115 118.829910,64.744629 118.269440C64.184158 117.708954,63.424011 117.394012,62.631317 117.394012C61.838623 117.394012,61.078476 117.708954,60.518005 118.269440C59.957520 118.829910,59.642578 119.590057,59.642578 120.382751C59.642578 121.175446,59.957520 121.935593,60.518005 122.496063C61.078476 123.056549,61.838623 123.371490,62.631317 123.371490C63.424011 123.371490,64.184158 123.056549,64.744629 122.496063C65.305115 121.935593,65.620056 121.175446,65.620056 120.382751Z" style="fill: rgb(100.000000%,100.000000%,100.000000%);stroke: none;"></path>
  <path d="M58.976151 118.628067C58.976151 117.835373,58.661209 117.075226,58.100723 116.514755C57.540253 115.954269,56.780106 115.639328,55.987411 115.639328C55.194717 115.639328,54.434570 115.954269,53.874100 116.514755C53.313614 117.075226,52.998672 117.835373,52.998672 118.628067C52.998672 119.420761,53.313614 120.180908,53.874100 120.741379C54.434570 121.301865,55.194717 121.616806,55.987411 121.616806C56.780106 121.616806,57.540253 121.301865,58.100723 120.741379C58.661209 120.180908,58.976151 119.420761,58.976151 118.628067Z" style="fill: rgb(100.000000%,100.000000%,100.000000%);stroke: none;"></path>
  <path d="M61.400009 120.672211C61.400009 119.879517,61.085068 119.119370,60.524582 118.558899C59.964111 117.998413,59.203964 117.683472,58.411270 117.683472C57.618576 117.683472,56.858429 117.998413,56.297958 118.558899C55.737473 119.119370,55.422531 119.879517,55.422531 120.672211C55.422531 121.464905,55.737473 122.225052,56.297958 122.785522C56.858429 123.346008,57.618576 123.660950,58.411270 123.660950C59.203964 123.660950,59.964111 123.346008,60.524582 122.785522C61.085068 122.225052,61.400009 121.464905,61.400009 120.672211Z" style="fill: rgb(100.000000%,100.000000%,100.000000%);stroke: none;"></path>
  <path d="M54.019394 118.611328C54.019394 117.818634,53.704453 117.058487,53.143967 116.498016C52.583496 115.937531,51.823349 115.622589,51.030655 115.622589C50.237961 115.622589,49.477814 115.937531,48.917343 116.498016C48.356857 117.058487,48.041916 117.818634,48.041916 118.611328C48.041916 119.404022,48.356857 120.164169,48.917343 120.724640C49.477814 121.285126,50.237961 121.600067,51.030655 121.600067C51.823349 121.600067,52.583496 121.285126,53.143967 120.724640C53.704453 120.164169,54.019394 119.404022,54.019394 118.611328Z" style="fill: rgb(100.000000%,100.000000%,100.000000%);stroke: none;"></path>
  <path d="M57.523041 117.527084C57.523041 116.734390,57.208099 115.974243,56.647614 115.413773C56.087143 114.853287,55.326996 114.538345,54.534302 114.538345C53.741608 114.538345,52.981461 114.853287,52.420990 115.413773C51.860504 115.974243,51.545563 116.734390,51.545563 117.527084C51.545563 118.319778,51.860504 119.079926,52.420990 119.640396C52.981461 120.200882,53.741608 120.515823,54.534302 120.515823C55.326996 120.515823,56.087143 120.200882,56.647614 119.640396C57.208099 119.079926,57.523041 118.319778,57.523041 117.527084Z" style="fill: rgb(100.000000%,100.000000%,100.000000%);stroke: none;"></path>
  <path d="M53.525314 126.814835C53.525314 126.022141,53.210373 125.261993,52.649887 124.701523C52.089417 124.141037,51.329269 123.826096,50.536575 123.826096C49.743881 123.826096,48.983734 124.141037,48.423264 124.701523C47.862778 125.261993,47.547836 126.022141,47.547836 126.814835C47.547836 127.607529,47.862778 128.367676,48.423264 128.928146C48.983734 129.488632,49.743881 129.803574,50.536575 129.803574C51.329269 129.803574,52.089417 129.488632,52.649887 128.928146C53.210373 128.367676,53.525314 127.607529,53.525314 126.814835Z" style="fill: rgb(100.000000%,100.000000%,100.000000%);stroke: none;"></path>
  <path d="M53.636734 120.970947C53.636734 120.178253,53.321793 119.418106,52.761307 118.857635C52.200836 118.297150,51.440689 117.982208,50.647995 117.982208C49.855301 117.982208,49.095154 118.297150,48.534683 118.857635C47.974197 119.418106,47.659256 120.178253,47.659256 120.970947C47.659256 121.763641,47.974197 122.523788,48.534683 123.084259C49.095154 123.644745,49.855301 123.959686,50.647995 123.959686C51.440689 123.959686,52.200836 123.644745,52.761307 123.084259C53.321793 122.523788,53.636734 121.763641,53.636734 120.970947Z" style="fill: rgb(100.000000%,100.000000%,100.000000%);stroke: none;"></path>
  <path d="M46.694458 142.792343C46.694458 141.999649,46.379517 141.239502,45.819031 140.679031C45.258560 140.118546,44.498413 139.803604,43.705719 139.803604C42.913025 139.803604,42.152878 140.118546,41.592407 140.679031C41.031921 141.239502,40.716980 141.999649,40.716980 142.792343C40.716980 143.585037,41.031921 144.345184,41.592407 144.905655C42.152878 145.466141,42.913025 145.781082,43.705719 145.781082C44.498413 145.781082,45.258560 145.466141,45.819031 144.905655C46.379517 144.345184,46.694458 143.585037,46.694458 142.792343Z" style="fill: rgb(100.000000%,100.000000%,100.000000%);stroke: none;"></path>
  <path d="M53.369415 130.602310C53.369415 129.809616,53.054474 129.049469,52.493988 128.488998C51.933517 127.928513,51.173370 127.613571,50.380676 127.613571C49.587982 127.613571,48.827835 127.928513,48.267365 128.488998C47.706879 129.049469,47.391937 129.809616,47.391937 130.602310C47.391937 131.395004,47.706879 132.155151,48.267365 132.715622C48.827835 133.276108,49.587982 133.591049,50.380676 133.591049C51.173370 133.591049,51.933517 133.276108,52.493988 132.715622C53.054474 132.155151,53.369415 131.395004,53.369415 130.602310Z" style="fill: rgb(100.000000%,100.000000%,100.000000%);stroke: none;"></path>
  <path d="M5.340607 124.986313C5.340607 124.193619,5.025665 123.433472,4.465179 122.873001C3.904709 122.312515,3.144562 121.997574,2.351868 121.997574C1.559174 121.997574,0.799026 122.312515,0.238556 122.873001C-0.321930 123.433472,-0.636871 124.193619,-0.636871 124.986313C-0.636871 125.779007,-0.321930 126.539154,0.238556 127.099625C0.799026 127.660110,1.559174 127.975052,2.351868 127.975052C3.144562 127.975052,3.904709 127.660110,4.465179 127.099625C5.025665 126.539154,5.340607 125.779007,5.340607 124.986313Z" style="fill: rgb(100.000000%,100.000000%,100.000000%);stroke: none;"></path>
  <path d="M34.399780 143.571213C34.399780 142.778519,34.084839 142.018372,33.524353 141.457901C32.963882 140.897415,32.203735 140.582474,31.411041 140.582474C30.618347 140.582474,29.858200 140.897415,29.297729 141.457901C28.737244 142.018372,28.422302 142.778519,28.422302 143.571213C28.422302 144.363907,28.737244 145.124054,29.297729 145.684525C29.858200 146.245010,30.618347 146.559952,31.411041 146.559952C32.203735 146.559952,32.963882 146.245010,33.524353 145.684525C34.084839 145.124054,34.399780 144.363907,34.399780 143.571213Z" style="fill: rgb(100.000000%,100.000000%,100.000000%);stroke: none;"></path>
  <path d="M27.931473 49.170517C27.931473 48.377823,27.616531 47.617676,27.056046 47.057205C26.495575 46.496719,25.735428 46.181778,24.942734 46.181778C24.150040 46.181778,23.389893 46.496719,22.829422 47.057205C22.268936 47.617676,21.953995 48.377823,21.953995 49.170517C21.953995 49.963211,22.268936 50.723358,22.829422 51.283829C23.389893 51.844315,24.150040 52.159256,24.942734 52.159256C25.735428 52.159256,26.495575 51.844315,27.056046 51.283829C27.616531 50.723358,27.931473 49.963211,27.931473 49.170517Z" style="fill: rgb(100.000000%,100.000000%,100.000000%);stroke: none;"></path>
  <path d="M6.051102 97.389694C6.051102 96.597000,5.736160 95.836853,5.175674 95.276382C4.615204 94.715897,3.855057 94.400955,3.062363 94.400955C2.269669 94.400955,1.509521 94.715897,0.949051 95.276382C0.388565 95.836853,0.073624 96.597000,0.073624 97.389694C0.073624 98.182388,0.388565 98.942535,0.949051 99.503006C1.509521 100.063492,2.269669 100.378433,3.062363 100.378433C3.855057 100.378433,4.615204 100.063492,5.175674 99.503006C5.736160 98.942535,6.051102 98.182388,6.051102 97.389694Z" style="fill: rgb(100.000000%,100.000000%,100.000000%);stroke: none;"></path>
  <path d="M91.405914 41.336838C91.405914 40.544144,91.090973 39.783997,90.530487 39.223526C89.970016 38.663040,89.209869 38.348099,88.417175 38.348099C87.624481 38.348099,86.864334 38.663040,86.303864 39.223526C85.743378 39.783997,85.428436 40.544144,85.428436 41.336838C85.428436 42.129532,85.743378 42.889679,86.303864 43.450150C86.864334 44.010635,87.624481 44.325577,88.417175 44.325577C89.209869 44.325577,89.970016 44.010635,90.530487 43.450150C91.090973 42.889679,91.405914 42.129532,91.405914 41.336838Z" style="fill: rgb(100.000000%,100.000000%,100.000000%);stroke: none;"></path>
  <path d="M50.746368 29.048172C50.746368 28.255478,50.431427 27.495331,49.870941 26.934860C49.310471 26.374374,48.550323 26.059433,47.757629 26.059433C46.964935 26.059433,46.204788 26.374374,45.644318 26.934860C45.083832 27.495331,44.768890 28.255478,44.768890 29.048172C44.768890 29.840866,45.083832 30.601013,45.644318 31.161484C46.204788 31.721970,46.964935 32.036911,47.757629 32.036911C48.550323 32.036911,49.310471 31.721970,49.870941 31.161484C50.431427 30.601013,50.746368 29.840866,50.746368 29.048172Z" style="fill: rgb(100.000000%,100.000000%,100.000000%);stroke: none;"></path>
  <path d="M119.541443 72.427338C119.541443 71.634644,119.226501 70.874496,118.666016 70.314026C118.105545 69.753540,117.345398 69.438599,116.552704 69.438599C115.760010 69.438599,114.999863 69.753540,114.439392 70.314026C113.878906 70.874496,113.563965 71.634644,113.563965 72.427338C113.563965 73.220032,113.878906 73.980179,114.439392 74.540649C114.999863 75.101135,115.760010 75.416077,116.552704 75.416077C117.345398 75.416077,118.105545 75.101135,118.666016 74.540649C119.226501 73.980179,119.541443 73.220032,119.541443 72.427338Z" style="fill: rgb(100.000000%,100.000000%,100.000000%);stroke: none;"></path>
  <path d="M100.248810 57.160339C100.248810 56.367645,99.933868 55.607498,99.373383 55.047028C98.812912 54.486542,98.052765 54.171600,97.260071 54.171600C96.467377 54.171600,95.707230 54.486542,95.146759 55.047028C94.586273 55.607498,94.271332 56.367645,94.271332 57.160339C94.271332 57.953033,94.586273 58.713181,95.146759 59.273651C95.707230 59.834137,96.467377 60.149078,97.260071 60.149078C98.052765 60.149078,98.812912 59.834137,99.373383 59.273651C99.933868 58.713181,100.248810 57.953033,100.248810 57.160339Z" style="fill: rgb(100.000000%,100.000000%,100.000000%);stroke: none;"></path>
  <path d="M136.859100 81.643631C136.859100 80.850937,136.544159 80.090790,135.983673 79.530319C135.423203 78.969833,134.663055 78.654892,133.870361 78.654892C133.077667 78.654892,132.317520 78.969833,131.757050 79.530319C131.196564 80.090790,130.881622 80.850937,130.881622 81.643631C130.881622 82.436325,131.196564 83.196472,131.757050 83.756943C132.317520 84.317429,133.077667 84.632370,133.870361 84.632370C134.663055 84.632370,135.423203 84.317429,135.983673 83.756943C136.544159 83.196472,136.859100 82.436325,136.859100 81.643631Z" style="fill: rgb(100.000000%,100.000000%,100.000000%);stroke: none;"></path>
  <path d="M126.893677 76.040558C126.893677 75.247864,126.578735 74.487717,126.018250 73.927246C125.457779 73.366760,124.697632 73.051819,123.904938 73.051819C123.112244 73.051819,122.352097 73.366760,121.791626 73.927246C121.231140 74.487717,120.916199 75.247864,120.916199 76.040558C120.916199 76.833252,121.231140 77.593399,121.791626 78.153870C122.352097 78.714355,123.112244 79.029297,123.904938 79.029297C124.697632 79.029297,125.457779 78.714355,126.018250 78.153870C126.578735 77.593399,126.893677 76.833252,126.893677 76.040558Z" style="fill: rgb(100.000000%,100.000000%,100.000000%);stroke: none;"></path>
  <path d="M144.709808 79.554504C144.709808 78.761810,144.394867 78.001663,143.834381 77.441193C143.273911 76.880707,142.513763 76.565765,141.721069 76.565765C140.928375 76.565765,140.168228 76.880707,139.607758 77.441193C139.047272 78.001663,138.732330 78.761810,138.732330 79.554504C138.732330 80.347198,139.047272 81.107346,139.607758 81.667816C140.168228 82.228302,140.928375 82.543243,141.721069 82.543243C142.513763 82.543243,143.273911 82.228302,143.834381 81.667816C144.394867 81.107346,144.709808 80.347198,144.709808 79.554504Z" style="fill: rgb(100.000000%,100.000000%,100.000000%);stroke: none;"></path>
  <path d="M140.213852 83.083069C140.213852 82.290375,139.898911 81.530228,139.338425 80.969757C138.777954 80.409271,138.017807 80.094330,137.225113 80.094330C136.432419 80.094330,135.672272 80.409271,135.111801 80.969757C134.551315 81.530228,134.236374 82.290375,134.236374 83.083069C134.236374 83.875763,134.551315 84.635910,135.111801 85.196381C135.672272 85.756866,136.432419 86.071808,137.225113 86.071808C138.017807 86.071808,138.777954 85.756866,139.338425 85.196381C139.898911 84.635910,140.213852 83.875763,140.213852 83.083069Z" style="fill: rgb(100.000000%,100.000000%,100.000000%);stroke: none;"></path>
  <path d="M144.355469 71.810577C144.355469 71.017883,144.040527 70.257736,143.480042 69.697266C142.919571 69.136780,142.159424 68.821838,141.366730 68.821838C140.574036 68.821838,139.813889 69.136780,139.253418 69.697266C138.692932 70.257736,138.377991 71.017883,138.377991 71.810577C138.377991 72.603271,138.692932 73.363419,139.253418 73.923889C139.813889 74.484375,140.574036 74.799316,141.366730 74.799316C142.159424 74.799316,142.919571 74.484375,143.480042 73.923889C144.040527 73.363419,144.355469 72.603271,144.355469 71.810577Z" style="fill: rgb(100.000000%,100.000000%,100.000000%);stroke: none;"></path>
  <path d="M144.671738 76.710709C144.671738 75.918015,144.356796 75.157867,143.796310 74.597397C143.235840 74.036911,142.475693 73.721970,141.682999 73.721970C140.890305 73.721970,140.130157 74.036911,139.569687 74.597397C139.009201 75.157867,138.694260 75.918015,138.694260 76.710709C138.694260 77.503403,139.009201 78.263550,139.569687 78.824020C140.130157 79.384506,140.890305 79.699448,141.682999 79.699448C142.475693 79.699448,143.235840 79.384506,143.796310 78.824020C144.356796 78.263550,144.671738 77.503403,144.671738 76.710709Z" style="fill: rgb(100.000000%,100.000000%,100.000000%);stroke: none;"></path>
  <path d="M148.384460 66.934067C148.384460 66.141373,148.069519 65.381226,147.509033 64.820755C146.948563 64.260269,146.188416 63.945328,145.395721 63.945328C144.603027 63.945328,143.842880 64.260269,143.282410 64.820755C142.721924 65.381226,142.406982 66.141373,142.406982 66.934067C142.406982 67.726761,142.721924 68.486908,143.282410 69.047379C143.842880 69.607864,144.603027 69.922806,145.395721 69.922806C146.188416 69.922806,146.948563 69.607864,147.509033 69.047379C148.069519 68.486908,148.384460 67.726761,148.384460 66.934067Z" style="fill: rgb(100.000000%,100.000000%,100.000000%);stroke: none;"></path>
  <path d="M144.476212 69.278824C144.476212 68.486130,144.161270 67.725983,143.600784 67.165512C143.040314 66.605026,142.280167 66.290085,141.487473 66.290085C140.694778 66.290085,139.934631 66.605026,139.374161 67.165512C138.813675 67.725983,138.498734 68.486130,138.498734 69.278824C138.498734 70.071518,138.813675 70.831665,139.374161 71.392136C139.934631 71.952621,140.694778 72.267563,141.487473 72.267563C142.280167 72.267563,143.040314 71.952621,143.600784 71.392136C144.161270 70.831665,144.476212 70.071518,144.476212 69.278824Z" style="fill: rgb(100.000000%,100.000000%,100.000000%);stroke: none;"></path>
  <path d="M155.876907 71.473602C155.876907 70.680908,155.561966 69.920761,155.001480 69.360291C154.441010 68.799805,153.680862 68.484863,152.888168 68.484863C152.095474 68.484863,151.335327 68.799805,150.774857 69.360291C150.214371 69.920761,149.899429 70.680908,149.899429 71.473602C149.899429 72.266296,150.214371 73.026443,150.774857 73.586914C151.335327 74.147400,152.095474 74.462341,152.888168 74.462341C153.680862 74.462341,154.441010 74.147400,155.001480 73.586914C155.561966 73.026443,155.876907 72.266296,155.876907 71.473602Z" style="fill: rgb(100.000000%,100.000000%,100.000000%);stroke: none;"></path>
  <path d="M150.738998 68.125244C150.738998 67.332550,150.424057 66.572403,149.863571 66.011932C149.303101 65.451447,148.542953 65.136505,147.750259 65.136505C146.957565 65.136505,146.197418 65.451447,145.636948 66.011932C145.076462 66.572403,144.761520 67.332550,144.761520 68.125244C144.761520 68.917938,145.076462 69.678085,145.636948 70.238556C146.197418 70.799042,146.957565 71.113983,147.750259 71.113983C148.542953 71.113983,149.303101 70.799042,149.863571 70.238556C150.424057 69.678085,150.738998 68.917938,150.738998 68.125244Z" style="fill: rgb(100.000000%,100.000000%,100.000000%);stroke: none;"></path>
  <path d="M173.490799 75.203506C173.490799 74.410812,173.175858 73.650665,172.615372 73.090195C172.054901 72.529709,171.294754 72.214767,170.502060 72.214767C169.709366 72.214767,168.949219 72.529709,168.388748 73.090195C167.828262 73.650665,167.513321 74.410812,167.513321 75.203506C167.513321 75.996201,167.828262 76.756348,168.388748 77.316818C168.949219 77.877304,169.709366 78.192245,170.502060 78.192245C171.294754 78.192245,172.054901 77.877304,172.615372 77.316818C173.175858 76.756348,173.490799 75.996201,173.490799 75.203506Z" style="fill: rgb(100.000000%,100.000000%,100.000000%);stroke: none;"></path>
  <path d="M159.092575 73.579132C159.092575 72.786438,158.777634 72.026291,158.217148 71.465820C157.656677 70.905334,156.896530 70.590393,156.103836 70.590393C155.311142 70.590393,154.550995 70.905334,153.990524 71.465820C153.430038 72.026291,153.115097 72.786438,153.115097 73.579132C153.115097 74.371826,153.430038 75.131973,153.990524 75.692444C154.550995 76.252930,155.311142 76.567871,156.103836 76.567871C156.896530 76.567871,157.656677 76.252930,158.217148 75.692444C158.777634 75.131973,159.092575 74.371826,159.092575 73.579132Z" style="fill: rgb(100.000000%,100.000000%,100.000000%);stroke: none;"></path>
  <path d="M182.131958 29.901779C182.131958 29.109085,181.817017 28.348938,181.256531 27.788467C180.696060 27.227982,179.935913 26.913040,179.143219 26.913040C178.350525 26.913040,177.590378 27.227982,177.029907 27.788467C176.469421 28.348938,176.154480 29.109085,176.154480 29.901779C176.154480 30.694473,176.469421 31.454620,177.029907 32.015091C177.590378 32.575577,178.350525 32.890518,179.143219 32.890518C179.935913 32.890518,180.696060 32.575577,181.256531 32.015091C181.817017 31.454620,182.131958 30.694473,182.131958 29.901779Z" style="fill: rgb(100.000000%,100.000000%,100.000000%);stroke: none;"></path>
  <path d="M181.292892 64.653900C181.292892 63.861206,180.977951 63.101059,180.417465 62.540588C179.856995 61.980103,179.096848 61.665161,178.304153 61.665161C177.511459 61.665161,176.751312 61.980103,176.190842 62.540588C175.630356 63.101059,175.315414 63.861206,175.315414 64.653900C175.315414 65.446594,175.630356 66.206741,176.190842 66.767212C176.751312 67.327698,177.511459 67.642639,178.304153 67.642639C179.096848 67.642639,179.856995 67.327698,180.417465 66.767212C180.977951 66.206741,181.292892 65.446594,181.292892 64.653900Z" style="fill: rgb(100.000000%,100.000000%,100.000000%);stroke: none;"></path>
  <path d="M112.105072 2.045975C112.105072 1.253281,111.790131 0.493134,111.229645 -0.067337C110.669174 -0.627823,109.909027 -0.942764,109.116333 -0.942764C108.323639 -0.942764,107.563492 -0.627823,107.003021 -0.067337C106.442535 0.493134,106.127594 1.253281,106.127594 2.045975C106.127594 2.838669,106.442535 3.598816,107.003021 4.159286C107.563492 4.719772,108.323639 5.034714,109.116333 5.034714C109.909027 5.034714,110.669174 4.719772,111.229645 4.159286C111.790131 3.598816,112.105072 2.838669,112.105072 2.045975Z" style="fill: rgb(100.000000%,100.000000%,100.000000%);stroke: none;"></path>
  <path d="M162.130630 12.903839C162.130630 12.111145,161.815689 11.350998,161.255203 10.790527C160.694733 10.230042,159.934586 9.915100,159.141891 9.915100C158.349197 9.915100,157.589050 10.230042,157.028580 10.790527C156.468094 11.350998,156.153152 12.111145,156.153152 12.903839C156.153152 13.696533,156.468094 14.456680,157.028580 15.017151C157.589050 15.577637,158.349197 15.892578,159.141891 15.892578C159.934586 15.892578,160.694733 15.577637,161.255203 15.017151C161.815689 14.456680,162.130630 13.696533,162.130630 12.903839Z" style="fill: rgb(100.000000%,100.000000%,100.000000%);stroke: none;"></path>
  <path d="M70.063049 52.799606C70.063049 52.006912,69.748108 51.246765,69.187622 50.686295C68.627151 50.125809,67.867004 49.810867,67.074310 49.810867C66.281616 49.810867,65.521469 50.125809,64.960999 50.686295C64.400513 51.246765,64.085571 52.006912,64.085571 52.799606C64.085571 53.592300,64.400513 54.352448,64.960999 54.912918C65.521469 55.473404,66.281616 55.788345,67.074310 55.788345C67.867004 55.788345,68.627151 55.473404,69.187622 54.912918C69.748108 54.352448,70.063049 53.592300,70.063049 52.799606Z" style="fill: rgb(100.000000%,100.000000%,100.000000%);stroke: none;"></path>
  <path d="M83.673431 11.921448C83.673431 11.128754,83.358490 10.368607,82.798004 9.808136C82.237534 9.247650,81.477386 8.932709,80.684692 8.932709C79.891998 8.932709,79.131851 9.247650,78.571381 9.808136C78.010895 10.368607,77.695953 11.128754,77.695953 11.921448C77.695953 12.714142,78.010895 13.474289,78.571381 14.034760C79.131851 14.595245,79.891998 14.910187,80.684692 14.910187C81.477386 14.910187,82.237534 14.595245,82.798004 14.034760C83.358490 13.474289,83.673431 12.714142,83.673431 11.921448Z" style="fill: rgb(100.000000%,100.000000%,100.000000%);stroke: none;"></path>
  <path d="M77.271912 95.311478C77.271912 94.518784,76.956970 93.758636,76.396484 93.198166C75.836014 92.637680,75.075867 92.322739,74.283173 92.322739C73.490479 92.322739,72.730331 92.637680,72.169861 93.198166C71.609375 93.758636,71.294434 94.518784,71.294434 95.311478C71.294434 96.104172,71.609375 96.864319,72.169861 97.424789C72.730331 97.985275,73.490479 98.300217,74.283173 98.300217C75.075867 98.300217,75.836014 97.985275,76.396484 97.424789C76.956970 96.864319,77.271912 96.104172,77.271912 95.311478Z" style="fill: rgb(100.000000%,100.000000%,100.000000%);stroke: none;"></path>
  <path d="M76.969955 69.927704C76.969955 69.135010,76.655014 68.374863,76.094528 67.814392C75.534058 67.253906,74.773911 66.938965,73.981216 66.938965C73.188522 66.938965,72.428375 67.253906,71.867905 67.814392C71.307419 68.374863,70.992477 69.135010,70.992477 69.927704C70.992477 70.720398,71.307419 71.480545,71.867905 72.041016C72.428375 72.601501,73.188522 72.916443,73.981216 72.916443C74.773911 72.916443,75.534058 72.601501,76.094528 72.041016C76.655014 71.480545,76.969955 70.720398,76.969955 69.927704Z" style="fill: rgb(100.000000%,100.000000%,100.000000%);stroke: none;"></path>
  <path d="M74.877960 115.162872C74.877960 114.370178,74.563019 113.610031,74.002533 113.049561C73.442062 112.489075,72.681915 112.174133,71.889221 112.174133C71.096527 112.174133,70.336380 112.489075,69.775909 113.049561C69.215424 113.610031,68.900482 114.370178,68.900482 115.162872C68.900482 115.955566,69.215424 116.715714,69.775909 117.276184C70.336380 117.836670,71.096527 118.151611,71.889221 118.151611C72.681915 118.151611,73.442062 117.836670,74.002533 117.276184C74.563019 116.715714,74.877960 115.955566,74.877960 115.162872Z" style="fill: rgb(100.000000%,100.000000%,100.000000%);stroke: none;"></path>
  <path d="M75.714417 103.600235C75.714417 102.807541,75.399475 102.047394,74.838989 101.486923C74.278519 100.926437,73.518372 100.611496,72.725677 100.611496C71.932983 100.611496,71.172836 100.926437,70.612366 101.486923C70.051880 102.047394,69.736938 102.807541,69.736938 103.600235C69.736938 104.392929,70.051880 105.153076,70.612366 105.713547C71.172836 106.274033,71.932983 106.588974,72.725677 106.588974C73.518372 106.588974,74.278519 106.274033,74.838989 105.713547C75.399475 105.153076,75.714417 104.392929,75.714417 103.600235Z" style="fill: rgb(100.000000%,100.000000%,100.000000%);stroke: none;"></path>
  <path d="M69.142456 119.654037C69.142456 118.861343,68.827515 118.101196,68.267029 117.540726C67.706558 116.980240,66.946411 116.665298,66.153717 116.665298C65.361023 116.665298,64.600876 116.980240,64.040405 117.540726C63.479919 118.101196,63.164978 118.861343,63.164978 119.654037C63.164978 120.446732,63.479919 121.206879,64.040405 121.767349C64.600876 122.327835,65.361023 122.642776,66.153717 122.642776C66.946411 122.642776,67.706558 122.327835,68.267029 121.767349C68.827515 121.206879,69.142456 120.446732,69.142456 119.654037Z" style="fill: rgb(100.000000%,100.000000%,100.000000%);stroke: none;"></path>
  <path d="M74.130249 118.662430C74.130249 117.869736,73.815308 117.109589,73.254822 116.549118C72.694351 115.988632,71.934204 115.673691,71.141510 115.673691C70.348816 115.673691,69.588669 115.988632,69.028198 116.549118C68.467712 117.109589,68.152771 117.869736,68.152771 118.662430C68.152771 119.455124,68.467712 120.215271,69.028198 120.775742C69.588669 121.336227,70.348816 121.651169,71.141510 121.651169C71.934204 121.651169,72.694351 121.336227,73.254822 120.775742C73.815308 120.215271,74.130249 119.455124,74.130249 118.662430Z" style="fill: rgb(100.000000%,100.000000%,100.000000%);stroke: none;"></path>
  <path d="M64.536499 115.821411C64.536499 115.028717,64.221558 114.268570,63.661072 113.708099C63.100601 113.147614,62.340454 112.832672,61.547760 112.832672C60.755066 112.832672,59.994919 113.147614,59.434448 113.708099C58.873962 114.268570,58.559021 115.028717,58.559021 115.821411C58.559021 116.614105,58.873962 117.374252,59.434448 117.934723C59.994919 118.495209,60.755066 118.810150,61.547760 118.810150C62.340454 118.810150,63.100601 118.495209,63.661072 117.934723C64.221558 117.374252,64.536499 116.614105,64.536499 115.821411Z" style="fill: rgb(100.000000%,100.000000%,100.000000%);stroke: none;"></path>
  <path d="M67.388184 118.172836C67.388184 117.380142,67.073242 116.619995,66.512756 116.059525C65.952286 115.499039,65.192139 115.184097,64.399445 115.184097C63.606750 115.184097,62.846603 115.499039,62.286133 116.059525C61.725647 116.619995,61.410706 117.380142,61.410706 118.172836C61.410706 118.965530,61.725647 119.725677,62.286133 120.286148C62.846603 120.846634,63.606750 121.161575,64.399445 121.161575C65.192139 121.161575,65.952286 120.846634,66.512756 120.286148C67.073242 119.725677,67.388184 118.965530,67.388184 118.172836Z" style="fill: rgb(100.000000%,100.000000%,100.000000%);stroke: none;"></path>
  <path d="M60.299377 116.358826C60.299377 115.566132,59.984436 114.805984,59.423950 114.245514C58.863480 113.685028,58.103333 113.370087,57.310638 113.370087C56.517944 113.370087,55.757797 113.685028,55.197327 114.245514C54.636841 114.805984,54.321899 115.566132,54.321899 116.358826C54.321899 117.151520,54.636841 117.911667,55.197327 118.472137C55.757797 119.032623,56.517944 119.347565,57.310638 119.347565C58.103333 119.347565,58.863480 119.032623,59.423950 118.472137C59.984436 117.911667,60.299377 117.151520,60.299377 116.358826Z" style="fill: rgb(100.000000%,100.000000%,100.000000%);stroke: none;"></path>
  <path d="M63.021851 114.938812C63.021851 114.146118,62.706909 113.385971,62.146423 112.825500C61.585953 112.265015,60.825806 111.950073,60.033112 111.950073C59.240417 111.950073,58.480270 112.265015,57.919800 112.825500C57.359314 113.385971,57.044373 114.146118,57.044373 114.938812C57.044373 115.731506,57.359314 116.491653,57.919800 117.052124C58.480270 117.612610,59.240417 117.927551,60.033112 117.927551C60.825806 117.927551,61.585953 117.612610,62.146423 117.052124C62.706909 116.491653,63.021851 115.731506,63.021851 114.938812Z" style="fill: rgb(100.000000%,100.000000%,100.000000%);stroke: none;"></path>
  <path d="M60.334213 121.455902C60.334213 120.663208,60.019272 119.903061,59.458786 119.342590C58.898315 118.782104,58.138168 118.467163,57.345474 118.467163C56.552780 118.467163,55.792633 118.782104,55.232162 119.342590C54.671677 119.903061,54.356735 120.663208,54.356735 121.455902C54.356735 122.248596,54.671677 123.008743,55.232162 123.569214C55.792633 124.129700,56.552780 124.444641,57.345474 124.444641C58.138168 124.444641,58.898315 124.129700,59.458786 123.569214C60.019272 123.008743,60.334213 122.248596,60.334213 121.455902Z" style="fill: rgb(100.000000%,100.000000%,100.000000%);stroke: none;"></path>
  <path d="M60.166824 118.108139C60.166824 117.315445,59.851883 116.555298,59.291397 115.994827C58.730927 115.434341,57.970779 115.119400,57.178085 115.119400C56.385391 115.119400,55.625244 115.434341,55.064774 115.994827C54.504288 116.555298,54.189346 117.315445,54.189346 118.108139C54.189346 118.900833,54.504288 119.660980,55.064774 120.221451C55.625244 120.781937,56.385391 121.096878,57.178085 121.096878C57.970779 121.096878,58.730927 120.781937,59.291397 120.221451C59.851883 119.660980,60.166824 118.900833,60.166824 118.108139Z" style="fill: rgb(100.000000%,100.000000%,100.000000%);stroke: none;"></path>
  <path d="M57.228271 125.383148C57.228271 124.590454,56.913330 123.830307,56.352844 123.269836C55.792374 122.709351,55.032227 122.394409,54.239532 122.394409C53.446838 122.394409,52.686691 122.709351,52.126221 123.269836C51.565735 123.830307,51.250793 124.590454,51.250793 125.383148C51.250793 126.175842,51.565735 126.935989,52.126221 127.496460C52.686691 128.056946,53.446838 128.371887,54.239532 128.371887C55.032227 128.371887,55.792374 128.056946,56.352844 127.496460C56.913330 126.935989,57.228271 126.175842,57.228271 125.383148Z" style="fill: rgb(100.000000%,100.000000%,100.000000%);stroke: none;"></path>
  <path d="M60.298599 123.390457C60.298599 122.597763,59.983658 121.837616,59.423172 121.277145C58.862701 120.716660,58.102554 120.401718,57.309860 120.401718C56.517166 120.401718,55.757019 120.716660,55.196548 121.277145C54.636063 121.837616,54.321121 122.597763,54.321121 123.390457C54.321121 124.183151,54.636063 124.943298,55.196548 125.503769C55.757019 126.064255,56.517166 126.379196,57.309860 126.379196C58.102554 126.379196,58.862701 126.064255,59.423172 125.503769C59.983658 124.943298,60.298599 124.183151,60.298599 123.390457Z" style="fill: rgb(100.000000%,100.000000%,100.000000%);stroke: none;"></path>
  <path d="M50.770477 121.055374C50.770477 120.262680,50.455536 119.502533,49.895050 118.942062C49.334579 118.381577,48.574432 118.066635,47.781738 118.066635C46.989044 118.066635,46.228897 118.381577,45.668427 118.942062C45.107941 119.502533,44.792999 120.262680,44.792999 121.055374C44.792999 121.848068,45.107941 122.608215,45.668427 123.168686C46.228897 123.729172,46.989044 124.044113,47.781738 124.044113C48.574432 124.044113,49.334579 123.729172,49.895050 123.168686C50.455536 122.608215,50.770477 121.848068,50.770477 121.055374Z" style="fill: rgb(100.000000%,100.000000%,100.000000%);stroke: none;"></path>
  <path d="M55.238907 124.330673C55.238907 123.537979,54.923965 122.777832,54.363480 122.217361C53.803009 121.656876,53.042862 121.341934,52.250168 121.341934C51.457474 121.341934,50.697327 121.656876,50.136856 122.217361C49.576370 122.777832,49.261429 123.537979,49.261429 124.330673C49.261429 125.123367,49.576370 125.883514,50.136856 126.443985C50.697327 127.004471,51.457474 127.319412,52.250168 127.319412C53.042862 127.319412,53.803009 127.004471,54.363480 126.443985C54.923965 125.883514,55.238907 125.123367,55.238907 124.330673Z" style="fill: rgb(100.000000%,100.000000%,100.000000%);stroke: none;"></path>
  <path d="M34.144012 116.066437C34.144012 115.273743,33.829071 114.513596,33.268585 113.953125C32.708115 113.392639,31.947968 113.077698,31.155273 113.077698C30.362579 113.077698,29.602432 113.392639,29.041962 113.953125C28.481476 114.513596,28.166534 115.273743,28.166534 116.066437C28.166534 116.859131,28.481476 117.619278,29.041962 118.179749C29.602432 118.740234,30.362579 119.055176,31.155273 119.055176C31.947968 119.055176,32.708115 118.740234,33.268585 118.179749C33.829071 117.619278,34.144012 116.859131,34.144012 116.066437Z" style="fill: rgb(100.000000%,100.000000%,100.000000%);stroke: none;"></path>
  <path d="M47.923569 118.851746C47.923569 118.059052,47.608627 117.298904,47.048141 116.738434C46.487671 116.177948,45.727524 115.863007,44.934830 115.863007C44.142136 115.863007,43.381989 116.177948,42.821518 116.738434C42.261032 117.298904,41.946091 118.059052,41.946091 118.851746C41.946091 119.644440,42.261032 120.404587,42.821518 120.965057C43.381989 121.525543,44.142136 121.840485,44.934830 121.840485C45.727524 121.840485,46.487671 121.525543,47.048141 120.965057C47.608627 120.404587,47.923569 119.644440,47.923569 118.851746Z" style="fill: rgb(100.000000%,100.000000%,100.000000%);stroke: none;"></path>
  <path d="M24.045670 160.539352C24.045670 159.746658,23.730728 158.986511,23.170242 158.426041C22.609772 157.865555,21.849625 157.550613,21.056931 157.550613C20.264236 157.550613,19.504089 157.865555,18.943619 158.426041C18.383133 158.986511,18.068192 159.746658,18.068192 160.539352C18.068192 161.332047,18.383133 162.092194,18.943619 162.652664C19.504089 163.213150,20.264236 163.528091,21.056931 163.528091C21.849625 163.528091,22.609772 163.213150,23.170242 162.652664C23.730728 162.092194,24.045670 161.332047,24.045670 160.539352Z" style="fill: rgb(100.000000%,100.000000%,100.000000%);stroke: none;"></path>
  <path d="M25.612228 125.924881C25.612228 125.132187,25.297287 124.372040,24.736801 123.811569C24.176331 123.251083,23.416183 122.936142,22.623489 122.936142C21.830795 122.936142,21.070648 123.251083,20.510178 123.811569C19.949692 124.372040,19.634750 125.132187,19.634750 125.924881C19.634750 126.717575,19.949692 127.477722,20.510178 128.038193C21.070648 128.598679,21.830795 128.913620,22.623489 128.913620C23.416183 128.913620,24.176331 128.598679,24.736801 128.038193C25.297287 127.477722,25.612228 126.717575,25.612228 125.924881Z" style="fill: rgb(100.000000%,100.000000%,100.000000%);stroke: none;"></path>
  <path d="M63.831284 186.355164C90.124283 200.809158,123.018494 186.922913,131.000000 158.000000C135.707214 140.942245,129.111969 123.331879,129.009903 105.752457C128.959915 97.143295,130.485992 88.620285,131.000000 80.029770C131.208389 76.546875,131.853897 72.716537,135.031418 71.792618C137.358948 71.115845,139.552841 72.641785,141.515381 74.113663C143.263931 75.425064,145.322052 76.644836,147.270493 75.780991C149.507187 74.789352,149.774628 71.980331,149.757126 69.433105C149.730270 65.526993,149.864594 61.518326,151.697418 58.060547C156.553436 48.899277,168.818771 47.549973,178.589890 52.819504C199.957428 64.342941,201.597641 92.941101,192.001556 117.238983C181.204330 144.578232,157.017700 165.955673,131.000000 158.000000C114.511795 152.958252,105.427032 136.573944,92.420563 125.532532C86.201431 120.252991,79.064011 116.228806,72.121246 111.955490C69.553513 110.375031,66.496490 109.017426,64.290939 110.831116C62.606049 112.216660,62.680313 114.631149,62.779037 116.836700C62.854782 118.528931,62.631317 120.382751,61.144012 121.011765C59.795609 121.582047,58.411270 120.672211,57.257645 119.699310C55.987411 118.628067,54.534302 117.527084,52.976776 118.009079C51.030655 118.611328,50.647995 120.970947,50.606903 123.126190C50.536575 126.814835,50.380676 130.602310,48.605057 133.845016C43.705719 142.792343,31.411041 143.571213,22.094528 137.612808C2.351868 124.986313,3.062363 97.389694,13.474213 74.444427C24.942734 49.170517,47.757629 29.048172,72.493240 36.524094C88.417175 41.336838,97.260071 57.160339,110.164703 67.372269C116.552704 72.427338,123.904938 76.040558,131.000000 80.029770C133.870361 81.643631,137.225113 83.083069,139.705994 81.136002C141.721069 79.554504,141.682999 76.710709,141.515381 74.113663C141.366730 71.810577,141.487473 69.278824,143.408646 68.126221C145.395721 66.934067,147.750259 68.125244,149.757126 69.433105C152.888168 71.473602,156.103836 73.579132,159.826385 73.999100C170.502060 75.203506,178.304153 64.653900,178.589890 52.819504C179.143219 29.901779,159.141891 12.903839,135.755081 7.827820C109.116333 2.045975,80.684692 11.921448,72.493240 36.524094C67.074310 52.799606,73.981216 69.927704,74.183472 86.930573C74.283173 95.311478,72.725677 103.600235,72.121246 111.955490C71.889221 115.162872,71.141510 118.662430,68.196030 119.248016C66.153717 119.654037,64.399445 118.172836,62.779037 116.836700C61.547760 115.821411,60.033112 114.938812,58.673111 115.648178C57.310638 116.358826,57.178085 118.108139,57.257645 119.699310C57.345474 121.455902,57.309860 123.390457,55.869476 124.325287C54.239532 125.383148,52.250168 124.330673,50.606903 123.126190C47.781738 121.055374,44.934830 118.851746,41.492447 118.155930C31.155273 116.066437,22.623489 125.924881,22.094528 137.612808C21.056931 160.539352,43.039551 174.925369,63.831284 186.355164" style="stroke:rgb(0.000000%,0.000000%,0.000000%); stroke-width: 0.498138;stroke-linecap: round;stroke-linejoin: round;stroke-miterlimit: 10.000000;fill: none;"></path>
  <path d="M63.831284 186.355164C90.124283 200.809158,123.018494 186.922913,131.000000 158.000000C135.707214 140.942245,129.111969 123.331879,129.009903 105.752457C128.959915 97.143295,130.485992 88.620285,131.000000 80.029770" style="stroke:rgb(0.000000%,0.000000%,0.000000%); stroke-width: 1.494400;stroke-linecap: round;stroke-linejoin: round;stroke-miterlimit: 10.000000;fill: none;"></path>
  <path d="M22.094528 137.612808C21.056931 160.539352,43.039551 174.925369,63.831284 186.355164" style="stroke:rgb(0.000000%,0.000000%,0.000000%); stroke-width: 1.494400;stroke-linecap: round;stroke-linejoin: round;stroke-miterlimit: 10.000000;fill: none;"></path>
  <path d="M133.988739 158.000000C133.988739 157.207306,133.673798 156.447159,133.113312 155.886688C132.552841 155.326202,131.792694 155.011261,131.000000 155.011261C130.207306 155.011261,129.447159 155.326202,128.886688 155.886688C128.326202 156.447159,128.011261 157.207306,128.011261 158.000000C128.011261 158.792694,128.326202 159.552841,128.886688 160.113312C129.447159 160.673798,130.207306 160.988739,131.000000 160.988739C131.792694 160.988739,132.552841 160.673798,133.113312 160.113312C133.673798 159.552841,133.988739 158.792694,133.988739 158.000000Z" style="fill: rgb(100.000000%,100.000000%,100.000000%);stroke: none;"></path>
  <path d="M104.282471 188.443924C116.790329 183.163742,127.009247 172.461456,131.000000 158.000000C133.353607 149.471115,132.881592 140.804077,131.808426 132.071838" style="stroke:rgb(0.000000%,0.000000%,0.000000%); stroke-width: 1.494400;stroke-linecap: round;stroke-linejoin: round;stroke-miterlimit: 10.000000;fill: none;"></path>
  <path d="M144.504120 74.113663C144.504120 73.320969,144.189178 72.560822,143.628693 72.000351C143.068222 71.439865,142.308075 71.124924,141.515381 71.124924C140.722687 71.124924,139.962540 71.439865,139.402069 72.000351C138.841583 72.560822,138.526642 73.320969,138.526642 74.113663C138.526642 74.906357,138.841583 75.666504,139.402069 76.226974C139.962540 76.787460,140.722687 77.102402,141.515381 77.102402C142.308075 77.102402,143.068222 76.787460,143.628693 76.226974C144.189178 75.666504,144.504120 74.906357,144.504120 74.113663Z" style="fill: rgb(100.000000%,100.000000%,100.000000%);stroke: none;"></path>
  <path d="M138.410278 72.147400C139.495010 72.628281,140.534119 73.377731,141.515381 74.113663C142.389664 74.769363,143.341339 75.402161,144.317993 75.763046" style="stroke:rgb(0.000000%,0.000000%,0.000000%); stroke-width: 0.498138;stroke-linecap: round;stroke-linejoin: round;stroke-miterlimit: 10.000000;fill: none;"></path>
  <path d="M181.578629 52.819504C181.578629 52.026810,181.263687 51.266663,180.703201 50.706192C180.142731 50.145706,179.382584 49.830765,178.589890 49.830765C177.797195 49.830765,177.037048 50.145706,176.476578 50.706192C175.916092 51.266663,175.601151 52.026810,175.601151 52.819504C175.601151 53.612198,175.916092 54.372345,176.476578 54.932816C177.037048 55.493301,177.797195 55.808243,178.589890 55.808243C179.382584 55.808243,180.142731 55.493301,180.703201 54.932816C181.263687 54.372345,181.578629 53.612198,181.578629 52.819504Z" style="fill: rgb(100.000000%,100.000000%,100.000000%);stroke: none;"></path>
  <path d="M163.300507 50.028473C168.195221 49.204681,173.704330 50.184738,178.589890 52.819504C189.273666 58.581223,195.025604 68.611633,196.907089 80.238846" style="stroke:rgb(0.000000%,0.000000%,0.000000%); stroke-width: 0.498138;stroke-linecap: round;stroke-linejoin: round;stroke-miterlimit: 10.000000;fill: none;"></path>
  <path d="M75.109985 111.955490C75.109985 111.162796,74.795044 110.402649,74.234558 109.842178C73.674088 109.281693,72.913940 108.966751,72.121246 108.966751C71.328552 108.966751,70.568405 109.281693,70.007935 109.842178C69.447449 110.402649,69.132507 111.162796,69.132507 111.955490C69.132507 112.748184,69.447449 113.508331,70.007935 114.068802C70.568405 114.629288,71.328552 114.944229,72.121246 114.944229C72.913940 114.944229,73.674088 114.629288,74.234558 114.068802C74.795044 113.508331,75.109985 112.748184,75.109985 111.955490Z" style="fill: rgb(100.000000%,100.000000%,100.000000%);stroke: none;"></path>
  <path d="M82.542252 118.366669C79.112671 116.166519,75.592621 114.092148,72.121246 111.955490C70.837372 111.165253,69.431183 110.430740,68.070267 110.120499" style="stroke:rgb(0.000000%,0.000000%,0.000000%); stroke-width: 0.498138;stroke-linecap: round;stroke-linejoin: round;stroke-miterlimit: 10.000000;fill: none;"></path>
  <path d="M60.246384 119.699310C60.246384 118.906616,59.931442 118.146469,59.370956 117.585999C58.810486 117.025513,58.050339 116.710571,57.257645 116.710571C56.464951 116.710571,55.704803 117.025513,55.144333 117.585999C54.583847 118.146469,54.268906 118.906616,54.268906 119.699310C54.268906 120.492004,54.583847 121.252151,55.144333 121.812622C55.704803 122.373108,56.464951 122.688049,57.257645 122.688049C58.050339 122.688049,58.810486 122.373108,59.370956 121.812622C59.931442 121.252151,60.246384 120.492004,60.246384 119.699310Z" style="fill: rgb(100.000000%,100.000000%,100.000000%);stroke: none;"></path>
  <path d="M59.127777 120.934219C58.468948 120.656433,57.834457 120.185760,57.257645 119.699310C56.622528 119.163681,55.941681 118.620621,55.224930 118.271713" style="stroke:rgb(0.000000%,0.000000%,0.000000%); stroke-width: 0.498138;stroke-linecap: round;stroke-linejoin: round;stroke-miterlimit: 10.000000;fill: none;"></path>
  <path d="M25.083267 137.612808C25.083267 136.820114,24.768326 136.059967,24.207840 135.499496C23.647369 134.939011,22.887222 134.624069,22.094528 134.624069C21.301834 134.624069,20.541687 134.939011,19.981216 135.499496C19.420731 136.059967,19.105789 136.820114,19.105789 137.612808C19.105789 138.405502,19.420731 139.165649,19.981216 139.726120C20.541687 140.286606,21.301834 140.601547,22.094528 140.601547C22.887222 140.601547,23.647369 140.286606,24.207840 139.726120C24.768326 139.165649,25.083267 138.405502,25.083267 137.612808Z" style="fill: rgb(100.000000%,100.000000%,100.000000%);stroke: none;"></path>
  <path d="M37.006226 141.318558C32.155579 141.886887,26.752777 140.592010,22.094528 137.612808C12.223190 131.299561,7.465149 121.243774,6.476425 109.898148" style="stroke:rgb(0.000000%,0.000000%,0.000000%); stroke-width: 0.498138;stroke-linecap: round;stroke-linejoin: round;stroke-miterlimit: 10.000000;fill: none;"></path>
  <path d="M133.988739 80.029770C133.988739 79.237076,133.673798 78.476929,133.113312 77.916458C132.552841 77.355972,131.792694 77.041031,131.000000 77.041031C130.207306 77.041031,129.447159 77.355972,128.886688 77.916458C128.326202 78.476929,128.011261 79.237076,128.011261 80.029770C128.011261 80.822464,128.326202 81.582611,128.886688 82.143082C129.447159 82.703568,130.207306 83.018509,131.000000 83.018509C131.792694 83.018509,132.552841 82.703568,133.113312 82.143082C133.673798 81.582611,133.988739 80.822464,133.988739 80.029770Z" style="fill: rgb(100.000000%,100.000000%,100.000000%);stroke: none;"></path>
  <path d="M120.317215 74.100723C123.840652 76.134567,127.452469 78.035172,131.000000 80.029770C132.435181 80.836700,133.991470 81.600037,135.499069 81.918243" style="stroke:rgb(0.000000%,0.000000%,0.000000%); stroke-width: 0.498138;stroke-linecap: round;stroke-linejoin: round;stroke-miterlimit: 10.000000;fill: none;"></path>
  <path d="M152.745865 69.433105C152.745865 68.640411,152.430923 67.880264,151.870438 67.319794C151.309967 66.759308,150.549820 66.444366,149.757126 66.444366C148.964432 66.444366,148.204285 66.759308,147.643814 67.319794C147.083328 67.880264,146.768387 68.640411,146.768387 69.433105C146.768387 70.225800,147.083328 70.985947,147.643814 71.546417C148.204285 72.106903,148.964432 72.421844,149.757126 72.421844C150.549820 72.421844,151.309967 72.106903,151.870438 71.546417C152.430923 70.985947,152.745865 70.225800,152.745865 69.433105Z" style="fill: rgb(100.000000%,100.000000%,100.000000%);stroke: none;"></path>
  <path d="M146.575470 67.842163C147.663345 68.154419,148.753693 68.779175,149.757126 69.433105C151.322647 70.453354,152.909332 71.489868,154.569946 72.323807" style="stroke:rgb(0.000000%,0.000000%,0.000000%); stroke-width: 0.498138;stroke-linecap: round;stroke-linejoin: round;stroke-miterlimit: 10.000000;fill: none;"></path>
  <path d="M75.481979 36.524094C75.481979 35.731400,75.167038 34.971252,74.606552 34.410782C74.046082 33.850296,73.285934 33.535355,72.493240 33.535355C71.700546 33.535355,70.940399 33.850296,70.379929 34.410782C69.819443 34.971252,69.504501 35.731400,69.504501 36.524094C69.504501 37.316788,69.819443 38.076935,70.379929 38.637405C70.940399 39.197891,71.700546 39.512833,72.493240 39.512833C73.285934 39.512833,74.046082 39.197891,74.606552 38.637405C75.167038 38.076935,75.481979 37.316788,75.481979 36.524094Z" style="fill: rgb(100.000000%,100.000000%,100.000000%);stroke: none;"></path>
  <path d="M97.206421 10.781784C85.744736 15.603256,76.588959 24.222778,72.493240 36.524094C69.783768 44.661850,70.155777 53.012756,71.230423 61.454590" style="stroke:rgb(0.000000%,0.000000%,0.000000%); stroke-width: 0.498138;stroke-linecap: round;stroke-linejoin: round;stroke-miterlimit: 10.000000;fill: none;"></path>
  <path d="M65.767776 116.836700C65.767776 116.044006,65.452835 115.283859,64.892349 114.723389C64.331879 114.162903,63.571732 113.847961,62.779037 113.847961C61.986343 113.847961,61.226196 114.162903,60.665726 114.723389C60.105240 115.283859,59.790298 116.044006,59.790298 116.836700C59.790298 117.629395,60.105240 118.389542,60.665726 118.950012C61.226196 119.510498,61.986343 119.825439,62.779037 119.825439C63.571732 119.825439,64.331879 119.510498,64.892349 118.950012C65.452835 118.389542,65.767776 117.629395,65.767776 116.836700Z" style="fill: rgb(100.000000%,100.000000%,100.000000%);stroke: none;"></path>
  <path d="M65.329315 118.695663C64.432907 118.209091,63.589233 117.504761,62.779037 116.836700C62.163391 116.329056,61.476913 115.854584,60.774338 115.595688" style="stroke:rgb(0.000000%,0.000000%,0.000000%); stroke-width: 0.498138;stroke-linecap: round;stroke-linejoin: round;stroke-miterlimit: 10.000000;fill: none;"></path>
  <path d="M53.595642 123.126190C53.595642 122.333496,53.280701 121.573349,52.720215 121.012878C52.159744 120.452393,51.399597 120.137451,50.606903 120.137451C49.814209 120.137451,49.054062 120.452393,48.493591 121.012878C47.933105 121.573349,47.618164 122.333496,47.618164 123.126190C47.618164 123.918884,47.933105 124.679031,48.493591 125.239502C49.054062 125.799988,49.814209 126.114929,50.606903 126.114929C51.399597 126.114929,52.159744 125.799988,52.720215 125.239502C53.280701 124.679031,53.595642 123.918884,53.595642 123.126190Z" style="fill: rgb(100.000000%,100.000000%,100.000000%);stroke: none;"></path>
  <path d="M53.243179 124.574112C52.336685 124.292664,51.428528 123.728424,50.606903 123.126190C49.194321 122.090775,47.776291 121.022156,46.281113 120.125412" style="stroke:rgb(0.000000%,0.000000%,0.000000%); stroke-width: 0.498138;stroke-linecap: round;stroke-linejoin: round;stroke-miterlimit: 10.000000;fill: none;"></path>
  <path d="M129.009903 105.752457C128.969910 98.865097,129.938614 92.032883,130.590866 85.177124" style="stroke:rgb(0.000000%,0.000000%,0.000000%); stroke-width: 0.498138;stroke-linecap: round;stroke-linejoin: round;stroke-miterlimit: 10.000000;fill: none;"></path>
  <path d="M132.022903 89.967804C131.551346 88.369186,131.079926 86.770248,130.590866 85.177124C129.810150 86.649429,129.012833 88.113388,128.215866 89.577209Z" style="stroke:rgb(0.000000%,0.000000%,0.000000%); stroke-width: 0.498138;fill: rgb(0.000000%,0.000000%,0.000000%);"></path>
  <path d="M129.009903 105.752457C128.969910 98.865097,129.938614 92.032883,130.590866 85.177124" style="stroke:rgb(0.000000%,0.000000%,0.000000%); stroke-width: 0.498138;stroke-linecap: round;stroke-linejoin: round;stroke-miterlimit: 10.000000;fill: none;"></path>
  <path d="M131.455933 88.049591C131.171371 87.090897,130.884293 86.132965,130.590866 85.177124C130.122452 86.060486,129.648087 86.940842,129.171387 87.819946Z" style="stroke:rgb(0.000000%,0.000000%,0.000000%); stroke-width: 0.498138;fill: rgb(0.000000%,0.000000%,0.000000%);"></path>
  <path d="M147.270493 75.780991C149.059860 74.987671,149.588898 73.031235,149.719971 70.976196" style="stroke:rgb(0.000000%,0.000000%,0.000000%); stroke-width: 0.498138;stroke-linecap: round;stroke-linejoin: round;stroke-miterlimit: 10.000000;fill: none;"></path>
  <path d="M150.261627 73.926849C150.294510 72.985550,150.060257 71.972870,149.719971 70.976196C149.255814 71.921570,148.705368 72.803268,148.016510 73.445587Z" style="stroke:rgb(0.000000%,0.000000%,0.000000%); stroke-width: 0.498138;fill: rgb(0.000000%,0.000000%,0.000000%);"></path>
  <path d="M151.697418 58.060547C155.582245 50.731506,164.209076 48.402145,172.507233 50.461609" style="stroke:rgb(0.000000%,0.000000%,0.000000%); stroke-width: 0.498138;stroke-linecap: round;stroke-linejoin: round;stroke-miterlimit: 10.000000;fill: none;"></path>
  <path d="M169.572952 51.086517C170.526367 50.821228,171.507172 50.612167,172.507233 50.461609C171.693634 49.860916,170.852264 49.315186,169.990524 48.828583Z" style="stroke:rgb(0.000000%,0.000000%,0.000000%); stroke-width: 0.498138;fill: rgb(0.000000%,0.000000%,0.000000%);"></path>
  <path d="M64.290939 110.831116C62.943024 111.939560,62.720978 113.706528,62.736618 115.498215" style="stroke:rgb(0.000000%,0.000000%,0.000000%); stroke-width: 0.498138;stroke-linecap: round;stroke-linejoin: round;stroke-miterlimit: 10.000000;fill: none;"></path>
  <path d="M61.956726 112.601334C62.000107 113.557816,62.329651 114.539520,62.736618 115.498215C63.126770 114.532562,63.587936 113.605362,64.233612 112.898361Z" style="stroke:rgb(0.000000%,0.000000%,0.000000%); stroke-width: 0.498138;fill: rgb(0.000000%,0.000000%,0.000000%);"></path>
  <path d="M61.144012 121.011765C60.065292 121.467987,58.963562 120.976929,57.975357 120.264130" style="stroke:rgb(0.000000%,0.000000%,0.000000%); stroke-width: 0.498138;stroke-linecap: round;stroke-linejoin: round;stroke-miterlimit: 10.000000;fill: none;"></path>
  <path d="M60.958481 119.946487C60.150497 120.568787,59.054642 120.519318,57.975357 120.264130C58.558060 121.207733,59.297958 122.017639,60.309341 122.148941Z" style="stroke:rgb(0.000000%,0.000000%,0.000000%); stroke-width: 0.498138;fill: rgb(0.000000%,0.000000%,0.000000%);"></path>
  <path d="M48.605057 133.845016C44.685577 141.002899,36.033035 142.932938,27.958740 140.367905" style="stroke:rgb(0.000000%,0.000000%,0.000000%); stroke-width: 0.498138;stroke-linecap: round;stroke-linejoin: round;stroke-miterlimit: 10.000000;fill: none;"></path>
  <path d="M30.925797 139.924530C29.959625 140.133270,28.967651 140.281815,27.958740 140.367905C28.733002 141.020462,29.539459 141.616852,30.370255 142.152466Z" style="stroke:rgb(0.000000%,0.000000%,0.000000%); stroke-width: 0.498138;fill: rgb(0.000000%,0.000000%,0.000000%);"></path>
  <path d="M139.705994 81.136002C141.318054 79.870804,141.616104 77.797729,141.585007 75.689392" style="stroke:rgb(0.000000%,0.000000%,0.000000%); stroke-width: 0.498138;stroke-linecap: round;stroke-linejoin: round;stroke-miterlimit: 10.000000;fill: none;"></path>
  <path d="M142.442871 78.564133C142.327911 77.609909,141.994629 76.638443,141.585007 75.689392C141.203552 76.650101,140.752289 77.572708,140.158813 78.328720Z" style="stroke:rgb(0.000000%,0.000000%,0.000000%); stroke-width: 0.498138;fill: rgb(0.000000%,0.000000%,0.000000%);"></path>
  <path d="M143.408646 68.126221C144.998306 67.172501,146.823151 67.744110,148.517029 68.680542" style="stroke:rgb(0.000000%,0.000000%,0.000000%); stroke-width: 0.498138;stroke-linecap: round;stroke-linejoin: round;stroke-miterlimit: 10.000000;fill: none;"></path>
  <path d="M145.520294 68.820450C146.429672 68.559113,147.470596 68.562531,148.517029 68.680542C147.860550 67.857147,147.126938 67.118683,146.299133 66.660416Z" style="stroke:rgb(0.000000%,0.000000%,0.000000%); stroke-width: 0.498138;fill: rgb(0.000000%,0.000000%,0.000000%);"></path>
  <path d="M74.183472 86.930573C74.263229 93.635315,73.282379 100.281097,72.577377 106.949127" style="stroke:rgb(0.000000%,0.000000%,0.000000%); stroke-width: 0.498138;stroke-linecap: round;stroke-linejoin: round;stroke-miterlimit: 10.000000;fill: none;"></path>
  <path d="M71.740555 104.068207C72.016418 105.029434,72.293961 105.990219,72.577377 106.949127C73.055038 106.070694,73.538177 105.195053,74.022812 104.320312Z" style="stroke:rgb(0.000000%,0.000000%,0.000000%); stroke-width: 0.498138;fill: rgb(0.000000%,0.000000%,0.000000%);"></path>
  <path d="M58.673111 115.648178C57.583130 116.216705,57.280304 117.449982,57.243500 118.735229" style="stroke:rgb(0.000000%,0.000000%,0.000000%); stroke-width: 0.498138;stroke-linecap: round;stroke-linejoin: round;stroke-miterlimit: 10.000000;fill: none;"></path>
  <path d="M57.112915 115.738083C56.650818 116.619781,56.848068 117.697571,57.243500 118.735229C57.697647 117.721893,58.320282 116.820312,59.270508 116.523636Z" style="stroke:rgb(0.000000%,0.000000%,0.000000%); stroke-width: 0.498138;fill: rgb(0.000000%,0.000000%,0.000000%);"></path>
  <path d="M55.869476 124.325287C54.565521 125.171585,53.031525 124.667252,51.628738 123.814972" style="stroke:rgb(0.000000%,0.000000%,0.000000%); stroke-width: 0.498138;stroke-linecap: round;stroke-linejoin: round;stroke-miterlimit: 10.000000;fill: none;"></path>
  <path d="M54.620895 123.597855C53.766586 123.983826,52.700256 123.980469,51.628738 123.814972C52.269379 124.689697,53.021011 125.446075,53.897995 125.777267Z" style="stroke:rgb(0.000000%,0.000000%,0.000000%); stroke-width: 0.498138;fill: rgb(0.000000%,0.000000%,0.000000%);"></path>
  <path d="M60.840637 189.065369L66.821930 189.065369L66.821930 181.644974L60.840637 181.644974Z" style="fill: rgb(100.000000%,100.000000%,100.000000%);stroke: none;"></path>
  <path d="M60.840637 191.065369L66.821930 191.065369L66.821930 183.644974L60.840637 183.644974Z" style="fill: rgb(100.000000%,100.000000%,100.000000%);stroke: none;"></path>
  <g transform="translate(61.340637 189.565369)" style="fill: rgb(0.000000%,0.000000%,0.000000%);">
    <use xlink:href="#GLYPHcmr10_49"></use>
  </g>
  <path d="M132.040771 74.502823L138.022064 74.502823L138.022064 67.082428L132.040771 67.082428Z" style="fill: rgb(100.000000%,100.000000%,100.000000%);stroke: none;"></path>
  <path d="M132.040771 76.502823L138.022064 76.502823L138.022064 69.082428L132.040771 69.082428Z" style="fill: rgb(100.000000%,100.000000%,100.000000%);stroke: none;"></path>
  <g transform="translate(132.540771 75.002823)" style="fill: rgb(0.000000%,0.000000%,0.000000%);">
    <use xlink:href="#GLYPHcmr10_50"></use>
  </g>
  <path d="M189.010910 119.949188L194.992203 119.949188L194.992203 112.528793L189.010910 112.528793Z" style="fill: rgb(100.000000%,100.000000%,100.000000%);stroke: none;"></path>
  <path d="M189.010910 121.949188L194.992203 121.949188L194.992203 114.528793L189.010910 114.528793Z" style="fill: rgb(100.000000%,100.000000%,100.000000%);stroke: none;"></path>
  <g transform="translate(189.510910 120.449188)" style="fill: rgb(0.000000%,0.000000%,0.000000%);">
    <use xlink:href="#GLYPHcmr10_51"></use>
  </g>
  <path d="M89.429916 128.242737L95.411209 128.242737L95.411209 120.822342L89.429916 120.822342Z" style="fill: rgb(100.000000%,100.000000%,100.000000%);stroke: none;"></path>
  <path d="M89.429916 130.242737L95.411209 130.242737L95.411209 122.822342L89.429916 122.822342Z" style="fill: rgb(100.000000%,100.000000%,100.000000%);stroke: none;"></path>
  <g transform="translate(89.929916 128.742737)" style="fill: rgb(0.000000%,0.000000%,0.000000%);">
    <use xlink:href="#GLYPHcmr10_52"></use>
  </g>
  <path d="M49.986130 120.719284L55.967422 120.719284L55.967422 113.298889L49.986130 113.298889Z" style="fill: rgb(100.000000%,100.000000%,100.000000%);stroke: none;"></path>
  <path d="M49.986130 122.719284L55.967422 122.719284L55.967422 115.298889L49.986130 115.298889Z" style="fill: rgb(100.000000%,100.000000%,100.000000%);stroke: none;"></path>
  <g transform="translate(50.486130 121.219284)" style="fill: rgb(0.000000%,0.000000%,0.000000%);">
    <use xlink:href="#GLYPHcmr10_53"></use>
  </g>
  <path d="M10.483566 77.154633L16.464859 77.154633L16.464859 69.734238L10.483566 69.734238Z" style="fill: rgb(100.000000%,100.000000%,100.000000%);stroke: none;"></path>
  <path d="M10.483566 79.154633L16.464859 79.154633L16.464859 71.734238L10.483566 71.734238Z" style="fill: rgb(100.000000%,100.000000%,100.000000%);stroke: none;"></path>
  <g transform="translate(10.983566 77.654633)" style="fill: rgb(0.000000%,0.000000%,0.000000%);">
    <use xlink:href="#GLYPHcmr10_54"></use>
  </g>
  <path d="M107.174057 70.082474L113.155350 70.082474L113.155350 62.662079L107.174057 62.662079Z" style="fill: rgb(100.000000%,100.000000%,100.000000%);stroke: none;"></path>
  <path d="M107.174057 72.082474L113.155350 72.082474L113.155350 64.662079L107.174057 64.662079Z" style="fill: rgb(100.000000%,100.000000%,100.000000%);stroke: none;"></path>
  <g transform="translate(107.674057 70.582474)" style="fill: rgb(0.000000%,0.000000%,0.000000%);">
    <use xlink:href="#GLYPHcmr10_55"></use>
  </g>
  <path d="M156.835739 76.709305L162.817032 76.709305L162.817032 69.288910L156.835739 69.288910Z" style="fill: rgb(100.000000%,100.000000%,100.000000%);stroke: none;"></path>
  <path d="M156.835739 78.709305L162.817032 78.709305L162.817032 71.288910L156.835739 71.288910Z" style="fill: rgb(100.000000%,100.000000%,100.000000%);stroke: none;"></path>
  <g transform="translate(157.335739 77.209305)" style="fill: rgb(0.000000%,0.000000%,0.000000%);">
    <use xlink:href="#GLYPHcmr10_56"></use>
  </g>
  <path d="M132.764435 10.538025L138.745728 10.538025L138.745728 3.117630L132.764435 3.117630Z" style="fill: rgb(100.000000%,100.000000%,100.000000%);stroke: none;"></path>
  <path d="M132.764435 12.538025L138.745728 12.538025L138.745728 5.117630L132.764435 5.117630Z" style="fill: rgb(100.000000%,100.000000%,100.000000%);stroke: none;"></path>
  <g transform="translate(133.264435 11.038025)" style="fill: rgb(0.000000%,0.000000%,0.000000%);">
    <use xlink:href="#GLYPHcmr10_57"></use>
  </g>
  <path d="M62.714676 121.958221L73.677383 121.958221L73.677383 114.537827L62.714676 114.537827Z" style="fill: rgb(100.000000%,100.000000%,100.000000%);stroke: none;"></path>
  <path d="M62.714676 123.958221L73.677383 123.958221L73.677383 116.537827L62.714676 116.537827Z" style="fill: rgb(100.000000%,100.000000%,100.000000%);stroke: none;"></path>
  <g transform="translate(63.214676 122.458221)" style="fill: rgb(0.000000%,0.000000%,0.000000%);">
    <use xlink:href="#GLYPHcmr10_49"></use>
    <use xlink:href="#GLYPHcmr10_48" x="5.000095"></use>
  </g>
  <path d="M36.011093 120.866135L46.973801 120.866135L46.973801 113.445740L36.011093 113.445740Z" style="fill: rgb(100.000000%,100.000000%,100.000000%);stroke: none;"></path>
  <path d="M36.011093 122.866135L46.973801 122.866135L46.973801 115.445740L36.011093 115.445740Z" style="fill: rgb(100.000000%,100.000000%,100.000000%);stroke: none;"></path>
  <g transform="translate(36.511093 121.366135)" style="fill: rgb(0.000000%,0.000000%,0.000000%);">
    <use xlink:href="#GLYPHcmr10_49"></use>
    <use xlink:href="#GLYPHcmr10_49" x="5.000095"></use>
  </g>
</svg>
