<?xml version="1.0"?>
<!-- Created by MetaPost 1.999 on 2021.07.06:0006 -->
<svg version="1.1" xmlns="http://www.w3.org/2000/svg" xmlns:xlink="http://www.w3.org/1999/xlink" width="194.834366" height="188.470825" viewBox="0 0 194.834366 188.470825">
<!-- Original BoundingBox: -144.351501 -40.370239 50.482864 148.100586 -->
  <defs>
    <g transform="scale(0.009963,0.009963)" id="GLYPHcmr10_48">
      <path style="fill-rule: evenodd;" d="M460.000000 -320.000000C460.000000 -400.000000,455.000000 -480.000000,420.000000 -554.000000C374.000000 -650.000000,292.000000 -666.000000,250.000000 -666.000000C190.000000 -666.000000,117.000000 -640.000000,76.000000 -547.000000C44.000000 -478.000000,39.000000 -400.000000,39.000000 -320.000000C39.000000 -245.000000,43.000000 -155.000000,84.000000 -79.000000C127.000000 2.000000,200.000000 22.000000,249.000000 22.000000C303.000000 22.000000,379.000000 1.000000,423.000000 -94.000000C455.000000 -163.000000,460.000000 -241.000000,460.000000 -320.000000M249.000000 -0.000000C210.000000 -0.000000,151.000000 -25.000000,133.000000 -121.000000C122.000000 -181.000000,122.000000 -273.000000,122.000000 -332.000000C122.000000 -396.000000,122.000000 -462.000000,130.000000 -516.000000C149.000000 -635.000000,224.000000 -644.000000,249.000000 -644.000000C282.000000 -644.000000,348.000000 -626.000000,367.000000 -527.000000C377.000000 -471.000000,377.000000 -395.000000,377.000000 -332.000000C377.000000 -257.000000,377.000000 -189.000000,366.000000 -125.000000C351.000000 -30.000000,294.000000 -0.000000,249.000000 -0.000000"></path>
    </g>
    <g transform="scale(0.009963,0.009963)" id="GLYPHcmr10_49">
      <path style="fill-rule: evenodd;" d="M294.000000 -640.000000C294.000000 -664.000000,294.000000 -666.000000,271.000000 -666.000000C209.000000 -602.000000,121.000000 -602.000000,89.000000 -602.000000L89.000000 -571.000000C109.000000 -571.000000,168.000000 -571.000000,220.000000 -597.000000L220.000000 -79.000000C220.000000 -43.000000,217.000000 -31.000000,127.000000 -31.000000L95.000000 -31.000000L95.000000 -0.000000L257.000000 -0.000000L130.000000 -3.000000L217.000000 -3.000000L257.000000 -3.000000L297.000000 -3.000000L384.000000 -3.000000L419.000000 -0.000000L419.000000 -31.000000L387.000000 -31.000000C297.000000 -31.000000,294.000000 -42.000000,294.000000 -79.000000"></path>
    </g>
    <g transform="scale(0.009963,0.009963)" id="GLYPHcmr10_50">
      <path style="fill-rule: evenodd;" d="M127.000000 -77.000000L233.000000 -180.000000C389.000000 -318.000000,449.000000 -372.000000,449.000000 -472.000000C449.000000 -586.000000,359.000000 -666.000000,237.000000 -666.000000C124.000000 -666.000000,50.000000 -574.000000,50.000000 -485.000000C50.000000 -429.000000,100.000000 -429.000000,103.000000 -429.000000C120.000000 -429.000000,155.000000 -441.000000,155.000000 -482.000000C155.000000 -508.000000,137.000000 -534.000000,102.000000 -534.000000C94.000000 -534.000000,92.000000 -534.000000,89.000000 -533.000000C112.000000 -598.000000,166.000000 -635.000000,224.000000 -635.000000C315.000000 -635.000000,358.000000 -554.000000,358.000000 -472.000000C358.000000 -392.000000,308.000000 -313.000000,253.000000 -251.000000L61.000000 -37.000000C50.000000 -26.000000,50.000000 -24.000000,50.000000 -0.000000L421.000000 -0.000000L449.000000 -174.000000L424.000000 -174.000000C419.000000 -144.000000,412.000000 -100.000000,402.000000 -85.000000C395.000000 -77.000000,329.000000 -77.000000,307.000000 -77.000000"></path>
    </g>
    <g transform="scale(0.009963,0.009963)" id="GLYPHcmr10_51">
      <path style="fill-rule: evenodd;" d="M290.000000 -352.000000C372.000000 -379.000000,430.000000 -449.000000,430.000000 -528.000000C430.000000 -610.000000,342.000000 -666.000000,246.000000 -666.000000C145.000000 -666.000000,69.000000 -606.000000,69.000000 -530.000000C69.000000 -497.000000,91.000000 -478.000000,120.000000 -478.000000C151.000000 -478.000000,171.000000 -500.000000,171.000000 -529.000000C171.000000 -579.000000,124.000000 -579.000000,109.000000 -579.000000C140.000000 -628.000000,206.000000 -641.000000,242.000000 -641.000000C283.000000 -641.000000,338.000000 -619.000000,338.000000 -529.000000C338.000000 -517.000000,336.000000 -459.000000,310.000000 -415.000000C280.000000 -367.000000,246.000000 -364.000000,221.000000 -363.000000C213.000000 -362.000000,189.000000 -360.000000,182.000000 -360.000000C174.000000 -359.000000,167.000000 -358.000000,167.000000 -348.000000C167.000000 -337.000000,174.000000 -337.000000,191.000000 -337.000000L235.000000 -337.000000C317.000000 -337.000000,354.000000 -269.000000,354.000000 -171.000000C354.000000 -35.000000,285.000000 -6.000000,241.000000 -6.000000C198.000000 -6.000000,123.000000 -23.000000,88.000000 -82.000000C123.000000 -77.000000,154.000000 -99.000000,154.000000 -137.000000C154.000000 -173.000000,127.000000 -193.000000,98.000000 -193.000000C74.000000 -193.000000,42.000000 -179.000000,42.000000 -135.000000C42.000000 -44.000000,135.000000 22.000000,244.000000 22.000000C366.000000 22.000000,457.000000 -69.000000,457.000000 -171.000000C457.000000 -253.000000,394.000000 -331.000000,290.000000 -352.000000"></path>
    </g>
    <g transform="scale(0.009963,0.009963)" id="GLYPHcmr10_52">
      <path style="fill-rule: evenodd;" d="M294.000000 -165.000000L294.000000 -78.000000C294.000000 -42.000000,292.000000 -31.000000,218.000000 -31.000000L197.000000 -31.000000L197.000000 -0.000000L332.000000 -0.000000L238.000000 -3.000000L290.000000 -3.000000L332.000000 -3.000000L374.000000 -3.000000L427.000000 -3.000000L468.000000 -0.000000L468.000000 -31.000000L447.000000 -31.000000C373.000000 -31.000000,371.000000 -42.000000,371.000000 -78.000000L371.000000 -165.000000L471.000000 -165.000000L471.000000 -196.000000L371.000000 -196.000000L371.000000 -651.000000C371.000000 -671.000000,371.000000 -677.000000,355.000000 -677.000000C346.000000 -677.000000,343.000000 -677.000000,335.000000 -665.000000L28.000000 -196.000000L28.000000 -165.000000M300.000000 -196.000000L56.000000 -196.000000L300.000000 -569.000000"></path>
    </g>
    <g transform="scale(0.009963,0.009963)" id="GLYPHcmr10_53">
      <path style="fill-rule: evenodd;" d="M449.000000 -201.000000C449.000000 -320.000000,367.000000 -420.000000,259.000000 -420.000000C211.000000 -420.000000,168.000000 -404.000000,132.000000 -369.000000L132.000000 -564.000000C152.000000 -558.000000,185.000000 -551.000000,217.000000 -551.000000C340.000000 -551.000000,410.000000 -642.000000,410.000000 -655.000000C410.000000 -661.000000,407.000000 -666.000000,400.000000 -666.000000C399.000000 -666.000000,397.000000 -666.000000,392.000000 -663.000000C372.000000 -654.000000,323.000000 -634.000000,256.000000 -634.000000C216.000000 -634.000000,170.000000 -641.000000,123.000000 -662.000000C115.000000 -665.000000,113.000000 -665.000000,111.000000 -665.000000C101.000000 -665.000000,101.000000 -657.000000,101.000000 -641.000000L101.000000 -345.000000C101.000000 -327.000000,101.000000 -319.000000,115.000000 -319.000000C122.000000 -319.000000,124.000000 -322.000000,128.000000 -328.000000C139.000000 -344.000000,176.000000 -398.000000,257.000000 -398.000000C309.000000 -398.000000,334.000000 -352.000000,342.000000 -334.000000C358.000000 -297.000000,360.000000 -258.000000,360.000000 -208.000000C360.000000 -173.000000,360.000000 -113.000000,336.000000 -71.000000C312.000000 -32.000000,275.000000 -6.000000,229.000000 -6.000000C156.000000 -6.000000,99.000000 -59.000000,82.000000 -118.000000C85.000000 -117.000000,88.000000 -116.000000,99.000000 -116.000000C132.000000 -116.000000,149.000000 -141.000000,149.000000 -165.000000C149.000000 -189.000000,132.000000 -214.000000,99.000000 -214.000000C85.000000 -214.000000,50.000000 -207.000000,50.000000 -161.000000C50.000000 -75.000000,119.000000 22.000000,231.000000 22.000000C347.000000 22.000000,449.000000 -74.000000,449.000000 -201.000000"></path>
    </g>
    <g transform="scale(0.009963,0.009963)" id="GLYPHcmr10_54">
      <path style="fill-rule: evenodd;" d="M132.000000 -328.000000L132.000000 -352.000000C132.000000 -605.000000,256.000000 -641.000000,307.000000 -641.000000C331.000000 -641.000000,373.000000 -635.000000,395.000000 -601.000000C380.000000 -601.000000,340.000000 -601.000000,340.000000 -556.000000C340.000000 -525.000000,364.000000 -510.000000,386.000000 -510.000000C402.000000 -510.000000,432.000000 -519.000000,432.000000 -558.000000C432.000000 -618.000000,388.000000 -666.000000,305.000000 -666.000000C177.000000 -666.000000,42.000000 -537.000000,42.000000 -316.000000C42.000000 -49.000000,158.000000 22.000000,251.000000 22.000000C362.000000 22.000000,457.000000 -72.000000,457.000000 -204.000000C457.000000 -331.000000,368.000000 -427.000000,257.000000 -427.000000C189.000000 -427.000000,152.000000 -376.000000,132.000000 -328.000000M251.000000 -6.000000C188.000000 -6.000000,158.000000 -66.000000,152.000000 -81.000000C134.000000 -128.000000,134.000000 -208.000000,134.000000 -226.000000C134.000000 -304.000000,166.000000 -404.000000,256.000000 -404.000000C272.000000 -404.000000,318.000000 -404.000000,349.000000 -342.000000C367.000000 -305.000000,367.000000 -254.000000,367.000000 -205.000000C367.000000 -157.000000,367.000000 -107.000000,350.000000 -71.000000C320.000000 -11.000000,274.000000 -6.000000,251.000000 -6.000000"></path>
    </g>
    <g transform="scale(0.009963,0.009963)" id="GLYPHcmr10_55">
      <path style="fill-rule: evenodd;" d="M476.000000 -609.000000C485.000000 -621.000000,485.000000 -623.000000,485.000000 -644.000000L242.000000 -644.000000C120.000000 -644.000000,118.000000 -657.000000,114.000000 -676.000000L89.000000 -676.000000L56.000000 -470.000000L81.000000 -470.000000C84.000000 -486.000000,93.000000 -549.000000,106.000000 -561.000000C113.000000 -567.000000,191.000000 -567.000000,204.000000 -567.000000L411.000000 -567.000000C400.000000 -551.000000,321.000000 -442.000000,299.000000 -409.000000C209.000000 -274.000000,176.000000 -135.000000,176.000000 -33.000000C176.000000 -23.000000,176.000000 22.000000,222.000000 22.000000C268.000000 22.000000,268.000000 -23.000000,268.000000 -33.000000L268.000000 -84.000000C268.000000 -139.000000,271.000000 -194.000000,279.000000 -248.000000C283.000000 -271.000000,297.000000 -357.000000,341.000000 -419.000000"></path>
    </g>
    <g transform="scale(0.009963,0.009963)" id="GLYPHcmr10_56">
      <path style="fill-rule: evenodd;" d="M163.000000 -457.000000C117.000000 -487.000000,113.000000 -521.000000,113.000000 -538.000000C113.000000 -599.000000,178.000000 -641.000000,249.000000 -641.000000C322.000000 -641.000000,386.000000 -589.000000,386.000000 -517.000000C386.000000 -460.000000,347.000000 -412.000000,287.000000 -377.000000M309.000000 -362.000000C381.000000 -399.000000,430.000000 -451.000000,430.000000 -517.000000C430.000000 -609.000000,341.000000 -666.000000,250.000000 -666.000000C150.000000 -666.000000,69.000000 -592.000000,69.000000 -499.000000C69.000000 -481.000000,71.000000 -436.000000,113.000000 -389.000000C124.000000 -377.000000,161.000000 -352.000000,186.000000 -335.000000C128.000000 -306.000000,42.000000 -250.000000,42.000000 -151.000000C42.000000 -45.000000,144.000000 22.000000,249.000000 22.000000C362.000000 22.000000,457.000000 -61.000000,457.000000 -168.000000C457.000000 -204.000000,446.000000 -249.000000,408.000000 -291.000000C389.000000 -312.000000,373.000000 -322.000000,309.000000 -362.000000M209.000000 -320.000000L332.000000 -242.000000C360.000000 -223.000000,407.000000 -193.000000,407.000000 -132.000000C407.000000 -58.000000,332.000000 -6.000000,250.000000 -6.000000C164.000000 -6.000000,92.000000 -68.000000,92.000000 -151.000000C92.000000 -209.000000,124.000000 -273.000000,209.000000 -320.000000"></path>
    </g>
    <g transform="scale(0.009963,0.009963)" id="GLYPHcmr10_57">
      <path style="fill-rule: evenodd;" d="M367.000000 -318.000000L367.000000 -286.000000C367.000000 -52.000000,263.000000 -6.000000,205.000000 -6.000000C188.000000 -6.000000,134.000000 -8.000000,107.000000 -42.000000C151.000000 -42.000000,159.000000 -71.000000,159.000000 -88.000000C159.000000 -119.000000,135.000000 -134.000000,113.000000 -134.000000C97.000000 -134.000000,67.000000 -125.000000,67.000000 -86.000000C67.000000 -19.000000,121.000000 22.000000,206.000000 22.000000C335.000000 22.000000,457.000000 -114.000000,457.000000 -329.000000C457.000000 -598.000000,342.000000 -666.000000,253.000000 -666.000000C198.000000 -666.000000,149.000000 -648.000000,106.000000 -603.000000C65.000000 -558.000000,42.000000 -516.000000,42.000000 -441.000000C42.000000 -316.000000,130.000000 -218.000000,242.000000 -218.000000C303.000000 -218.000000,344.000000 -260.000000,367.000000 -318.000000M243.000000 -241.000000C227.000000 -241.000000,181.000000 -241.000000,150.000000 -304.000000C132.000000 -341.000000,132.000000 -391.000000,132.000000 -440.000000C132.000000 -494.000000,132.000000 -541.000000,153.000000 -578.000000C180.000000 -628.000000,218.000000 -641.000000,253.000000 -641.000000C299.000000 -641.000000,332.000000 -607.000000,349.000000 -562.000000C361.000000 -530.000000,365.000000 -467.000000,365.000000 -421.000000C365.000000 -338.000000,331.000000 -241.000000,243.000000 -241.000000"></path>
    </g>
  </defs>
  <path d="M134.717468 182.102127C134.717468 181.309433,134.402527 180.549286,133.842041 179.988815C133.281570 179.428329,132.521423 179.113388,131.728729 179.113388C130.936035 179.113388,130.175888 179.428329,129.615417 179.988815C129.054932 180.549286,128.739990 181.309433,128.739990 182.102127C128.739990 182.894821,129.054932 183.654968,129.615417 184.215439C130.175888 184.775925,130.936035 185.090866,131.728729 185.090866C132.521423 185.090866,133.281570 184.775925,133.842041 184.215439C134.402527 183.654968,134.717468 182.894821,134.717468 182.102127Z" style="fill: rgb(100.000000%,100.000000%,100.000000%);stroke: none;"></path>
  <path d="M116.520142 183.660034C116.520142 182.867340,116.205200 182.107193,115.644714 181.546722C115.084244 180.986237,114.324097 180.671295,113.531403 180.671295C112.738708 180.671295,111.978561 180.986237,111.418091 181.546722C110.857605 182.107193,110.542664 182.867340,110.542664 183.660034C110.542664 184.452728,110.857605 185.212875,111.418091 185.773346C111.978561 186.333832,112.738708 186.648773,113.531403 186.648773C114.324097 186.648773,115.084244 186.333832,115.644714 185.773346C116.205200 185.212875,116.520142 184.452728,116.520142 183.660034Z" style="fill: rgb(100.000000%,100.000000%,100.000000%);stroke: none;"></path>
  <path d="M145.931671 133.196381C145.931671 132.403687,145.616730 131.643539,145.056244 131.083069C144.495773 130.522583,143.735626 130.207642,142.942932 130.207642C142.150238 130.207642,141.390091 130.522583,140.829620 131.083069C140.269135 131.643539,139.954193 132.403687,139.954193 133.196381C139.954193 133.989075,140.269135 134.749222,140.829620 135.309692C141.390091 135.870178,142.150238 136.185120,142.942932 136.185120C143.735626 136.185120,144.495773 135.870178,145.056244 135.309692C145.616730 134.749222,145.931671 133.989075,145.931671 133.196381Z" style="fill: rgb(100.000000%,100.000000%,100.000000%);stroke: none;"></path>
  <path d="M148.289597 166.217514C148.289597 165.424820,147.974655 164.664673,147.414169 164.104202C146.853699 163.543716,146.093552 163.228775,145.300858 163.228775C144.508163 163.228775,143.748016 163.543716,143.187546 164.104202C142.627060 164.664673,142.312119 165.424820,142.312119 166.217514C142.312119 167.010208,142.627060 167.770355,143.187546 168.330826C143.748016 168.891312,144.508163 169.206253,145.300858 169.206253C146.093552 169.206253,146.853699 168.891312,147.414169 168.330826C147.974655 167.770355,148.289597 167.010208,148.289597 166.217514Z" style="fill: rgb(100.000000%,100.000000%,100.000000%);stroke: none;"></path>
  <path d="M137.421417 96.932388C137.421417 96.139694,137.106476 95.379547,136.545990 94.819077C135.985519 94.258591,135.225372 93.943649,134.432678 93.943649C133.639984 93.943649,132.879837 94.258591,132.319366 94.819077C131.758881 95.379547,131.443939 96.139694,131.443939 96.932388C131.443939 97.725082,131.758881 98.485229,132.319366 99.045700C132.879837 99.606186,133.639984 99.921127,134.432678 99.921127C135.225372 99.921127,135.985519 99.606186,136.545990 99.045700C137.106476 98.485229,137.421417 97.725082,137.421417 96.932388Z" style="fill: rgb(100.000000%,100.000000%,100.000000%);stroke: none;"></path>
  <path d="M134.333008 120.379837C134.333008 119.587143,134.018066 118.826996,133.457581 118.266525C132.897110 117.706039,132.136963 117.391098,131.344269 117.391098C130.551575 117.391098,129.791428 117.706039,129.230957 118.266525C128.670471 118.826996,128.355530 119.587143,128.355530 120.379837C128.355530 121.172531,128.670471 121.932678,129.230957 122.493149C129.791428 123.053635,130.551575 123.368576,131.344269 123.368576C132.136963 123.368576,132.897110 123.053635,133.457581 122.493149C134.018066 121.932678,134.333008 121.172531,134.333008 120.379837Z" style="fill: rgb(100.000000%,100.000000%,100.000000%);stroke: none;"></path>
  <path d="M148.334167 79.831192C148.334167 79.038498,148.019226 78.278351,147.458740 77.717880C146.898270 77.157394,146.138123 76.842453,145.345428 76.842453C144.552734 76.842453,143.792587 77.157394,143.232117 77.717880C142.671631 78.278351,142.356689 79.038498,142.356689 79.831192C142.356689 80.623886,142.671631 81.384033,143.232117 81.944504C143.792587 82.504990,144.552734 82.819931,145.345428 82.819931C146.138123 82.819931,146.898270 82.504990,147.458740 81.944504C148.019226 81.384033,148.334167 80.623886,148.334167 79.831192Z" style="fill: rgb(100.000000%,100.000000%,100.000000%);stroke: none;"></path>
  <path d="M142.911133 89.878448C142.911133 89.085754,142.596191 88.325607,142.035706 87.765137C141.475235 87.204651,140.715088 86.889709,139.922394 86.889709C139.129700 86.889709,138.369553 87.204651,137.809082 87.765137C137.248596 88.325607,136.933655 89.085754,136.933655 89.878448C136.933655 90.671143,137.248596 91.431290,137.809082 91.991760C138.369553 92.552246,139.129700 92.867188,139.922394 92.867188C140.715088 92.867188,141.475235 92.552246,142.035706 91.991760C142.596191 91.431290,142.911133 90.671143,142.911133 89.878448Z" style="fill: rgb(100.000000%,100.000000%,100.000000%);stroke: none;"></path>
  <path d="M154.722137 77.674057C154.722137 76.881363,154.407196 76.121216,153.846710 75.560745C153.286240 75.000259,152.526093 74.685318,151.733398 74.685318C150.940704 74.685318,150.180557 75.000259,149.620087 75.560745C149.059601 76.121216,148.744659 76.881363,148.744659 77.674057C148.744659 78.466751,149.059601 79.226898,149.620087 79.787369C150.180557 80.347855,150.940704 80.662796,151.733398 80.662796C152.526093 80.662796,153.286240 80.347855,153.846710 79.787369C154.407196 79.226898,154.722137 78.466751,154.722137 77.674057Z" style="fill: rgb(100.000000%,100.000000%,100.000000%);stroke: none;"></path>
  <path d="M150.056213 77.188385C150.056213 76.395691,149.741272 75.635544,149.180786 75.075073C148.620316 74.514587,147.860168 74.199646,147.067474 74.199646C146.274780 74.199646,145.514633 74.514587,144.954163 75.075073C144.393677 75.635544,144.078735 76.395691,144.078735 77.188385C144.078735 77.981079,144.393677 78.741226,144.954163 79.301697C145.514633 79.862183,146.274780 80.177124,147.067474 80.177124C147.860168 80.177124,148.620316 79.862183,149.180786 79.301697C149.741272 78.741226,150.056213 77.981079,150.056213 77.188385Z" style="fill: rgb(100.000000%,100.000000%,100.000000%);stroke: none;"></path>
  <path d="M157.979279 82.586166C157.979279 81.793472,157.664337 81.033325,157.103851 80.472855C156.543381 79.912369,155.783234 79.597427,154.990540 79.597427C154.197845 79.597427,153.437698 79.912369,152.877228 80.472855C152.316742 81.033325,152.001801 81.793472,152.001801 82.586166C152.001801 83.378860,152.316742 84.139008,152.877228 84.699478C153.437698 85.259964,154.197845 85.574905,154.990540 85.574905C155.783234 85.574905,156.543381 85.259964,157.103851 84.699478C157.664337 84.139008,157.979279 83.378860,157.979279 82.586166Z" style="fill: rgb(100.000000%,100.000000%,100.000000%);stroke: none;"></path>
  <path d="M155.949890 79.465302C155.949890 78.672607,155.634949 77.912460,155.074463 77.351990C154.513992 76.791504,153.753845 76.476562,152.961151 76.476562C152.168457 76.476562,151.408310 76.791504,150.847839 77.351990C150.287354 77.912460,149.972412 78.672607,149.972412 79.465302C149.972412 80.257996,150.287354 81.018143,150.847839 81.578613C151.408310 82.139099,152.168457 82.454041,152.961151 82.454041C153.753845 82.454041,154.513992 82.139099,155.074463 81.578613C155.634949 81.018143,155.949890 80.257996,155.949890 79.465302Z" style="fill: rgb(100.000000%,100.000000%,100.000000%);stroke: none;"></path>
  <path d="M162.627472 83.704865C162.627472 82.912170,162.312531 82.152023,161.752045 81.591553C161.191574 81.031067,160.431427 80.716125,159.638733 80.716125C158.846039 80.716125,158.085892 81.031067,157.525421 81.591553C156.964935 82.152023,156.649994 82.912170,156.649994 83.704865C156.649994 84.497559,156.964935 85.257706,157.525421 85.818176C158.085892 86.378662,158.846039 86.693604,159.638733 86.693604C160.431427 86.693604,161.191574 86.378662,161.752045 85.818176C162.312531 85.257706,162.627472 84.497559,162.627472 83.704865Z" style="fill: rgb(100.000000%,100.000000%,100.000000%);stroke: none;"></path>
  <path d="M159.189865 84.037033C159.189865 83.244339,158.874924 82.484192,158.314438 81.923721C157.753967 81.363235,156.993820 81.048294,156.201126 81.048294C155.408432 81.048294,154.648285 81.363235,154.087814 81.923721C153.527328 82.484192,153.212387 83.244339,153.212387 84.037033C153.212387 84.829727,153.527328 85.589874,154.087814 86.150345C154.648285 86.710831,155.408432 87.025772,156.201126 87.025772C156.993820 87.025772,157.753967 86.710831,158.314438 86.150345C158.874924 85.589874,159.189865 84.829727,159.189865 84.037033Z" style="fill: rgb(100.000000%,100.000000%,100.000000%);stroke: none;"></path>
  <path d="M165.086288 77.703308C165.086288 76.910614,164.771347 76.150467,164.210861 75.589996C163.650391 75.029510,162.890244 74.714569,162.097549 74.714569C161.304855 74.714569,160.544708 75.029510,159.984238 75.589996C159.423752 76.150467,159.108810 76.910614,159.108810 77.703308C159.108810 78.496002,159.423752 79.256149,159.984238 79.816620C160.544708 80.377106,161.304855 80.692047,162.097549 80.692047C162.890244 80.692047,163.650391 80.377106,164.210861 79.816620C164.771347 79.256149,165.086288 78.496002,165.086288 77.703308Z" style="fill: rgb(100.000000%,100.000000%,100.000000%);stroke: none;"></path>
  <path d="M163.516983 81.879227C163.516983 81.086533,163.202042 80.326385,162.641556 79.765915C162.081085 79.205429,161.320938 78.890488,160.528244 78.890488C159.735550 78.890488,158.975403 79.205429,158.414932 79.765915C157.854446 80.326385,157.539505 81.086533,157.539505 81.879227C157.539505 82.671921,157.854446 83.432068,158.414932 83.992538C158.975403 84.553024,159.735550 84.867966,160.528244 84.867966C161.320938 84.867966,162.081085 84.553024,162.641556 83.992538C163.202042 83.432068,163.516983 82.671921,163.516983 81.879227Z" style="fill: rgb(100.000000%,100.000000%,100.000000%);stroke: none;"></path>
  <path d="M173.104355 69.268936C173.104355 68.476242,172.789413 67.716095,172.228928 67.155624C171.668457 66.595139,170.908310 66.280197,170.115616 66.280197C169.322922 66.280197,168.562775 66.595139,168.002304 67.155624C167.441818 67.716095,167.126877 68.476242,167.126877 69.268936C167.126877 70.061630,167.441818 70.821777,168.002304 71.382248C168.562775 71.942734,169.322922 72.257675,170.115616 72.257675C170.908310 72.257675,171.668457 71.942734,172.228928 71.382248C172.789413 70.821777,173.104355 70.061630,173.104355 69.268936Z" style="fill: rgb(100.000000%,100.000000%,100.000000%);stroke: none;"></path>
  <path d="M166.105713 75.203217C166.105713 74.410522,165.790771 73.650375,165.230286 73.089905C164.669815 72.529419,163.909668 72.214478,163.116974 72.214478C162.324280 72.214478,161.564133 72.529419,161.003662 73.089905C160.443176 73.650375,160.128235 74.410522,160.128235 75.203217C160.128235 75.995911,160.443176 76.756058,161.003662 77.316528C161.564133 77.877014,162.324280 78.191956,163.116974 78.191956C163.909668 78.191956,164.669815 77.877014,165.230286 77.316528C165.790771 76.756058,166.105713 75.995911,166.105713 75.203217Z" style="fill: rgb(100.000000%,100.000000%,100.000000%);stroke: none;"></path>
  <path d="M194.482864 87.323303C194.482864 86.530609,194.167923 85.770462,193.607437 85.209991C193.046967 84.649506,192.286819 84.334564,191.494125 84.334564C190.701431 84.334564,189.941284 84.649506,189.380814 85.209991C188.820328 85.770462,188.505386 86.530609,188.505386 87.323303C188.505386 88.115997,188.820328 88.876144,189.380814 89.436615C189.941284 89.997101,190.701431 90.312042,191.494125 90.312042C192.286819 90.312042,193.046967 89.997101,193.607437 89.436615C194.167923 88.876144,194.482864 88.115997,194.482864 87.323303Z" style="fill: rgb(100.000000%,100.000000%,100.000000%);stroke: none;"></path>
  <path d="M180.594040 71.358154C180.594040 70.565460,180.279099 69.805313,179.718613 69.244843C179.158142 68.684357,178.397995 68.369415,177.605301 68.369415C176.812607 68.369415,176.052460 68.684357,175.491989 69.244843C174.931503 69.805313,174.616562 70.565460,174.616562 71.358154C174.616562 72.150848,174.931503 72.910995,175.491989 73.471466C176.052460 74.031952,176.812607 74.346893,177.605301 74.346893C178.397995 74.346893,179.158142 74.031952,179.718613 73.471466C180.279099 72.910995,180.594040 72.150848,180.594040 71.358154Z" style="fill: rgb(100.000000%,100.000000%,100.000000%);stroke: none;"></path>
  <path d="M176.926468 132.915894C176.926468 132.123199,176.611526 131.363052,176.051041 130.802582C175.490570 130.242096,174.730423 129.927155,173.937729 129.927155C173.145035 129.927155,172.384888 130.242096,171.824417 130.802582C171.263931 131.363052,170.948990 132.123199,170.948990 132.915894C170.948990 133.708588,171.263931 134.468735,171.824417 135.029205C172.384888 135.589691,173.145035 135.904633,173.937729 135.904633C174.730423 135.904633,175.490570 135.589691,176.051041 135.029205C176.611526 134.468735,176.926468 133.708588,176.926468 132.915894Z" style="fill: rgb(100.000000%,100.000000%,100.000000%);stroke: none;"></path>
  <path d="M190.707642 102.850937C190.707642 102.058243,190.392700 101.298096,189.832214 100.737625C189.271744 100.177139,188.511597 99.862198,187.718903 99.862198C186.926208 99.862198,186.166061 100.177139,185.605591 100.737625C185.045105 101.298096,184.730164 102.058243,184.730164 102.850937C184.730164 103.643631,185.045105 104.403778,185.605591 104.964249C186.166061 105.524734,186.926208 105.839676,187.718903 105.839676C188.511597 105.839676,189.271744 105.524734,189.832214 104.964249C190.392700 104.403778,190.707642 103.643631,190.707642 102.850937Z" style="fill: rgb(100.000000%,100.000000%,100.000000%);stroke: none;"></path>
  <path d="M131.892044 147.225388C131.892044 146.432693,131.577103 145.672546,131.016617 145.112076C130.456146 144.551590,129.695999 144.236649,128.903305 144.236649C128.110611 144.236649,127.350464 144.551590,126.789993 145.112076C126.229507 145.672546,125.914566 146.432693,125.914566 147.225388C125.914566 148.018082,126.229507 148.778229,126.789993 149.338699C127.350464 149.899185,128.110611 150.214127,128.903305 150.214127C129.695999 150.214127,130.456146 149.899185,131.016617 149.338699C131.577103 148.778229,131.892044 148.018082,131.892044 147.225388Z" style="fill: rgb(100.000000%,100.000000%,100.000000%);stroke: none;"></path>
  <path d="M164.683563 148.907928C164.683563 148.115234,164.368622 147.355087,163.808136 146.794617C163.247665 146.234131,162.487518 145.919189,161.694824 145.919189C160.902130 145.919189,160.141983 146.234131,159.581512 146.794617C159.021027 147.355087,158.706085 148.115234,158.706085 148.907928C158.706085 149.700623,159.021027 150.460770,159.581512 151.021240C160.141983 151.581726,160.902130 151.896667,161.694824 151.896667C162.487518 151.896667,163.247665 151.581726,163.808136 151.021240C164.368622 150.460770,164.683563 149.700623,164.683563 148.907928Z" style="fill: rgb(100.000000%,100.000000%,100.000000%);stroke: none;"></path>
  <path d="M89.946411 141.207306C89.946411 140.414612,89.631470 139.654465,89.070984 139.093994C88.510513 138.533508,87.750366 138.218567,86.957672 138.218567C86.164978 138.218567,85.404831 138.533508,84.844360 139.093994C84.283875 139.654465,83.968933 140.414612,83.968933 141.207306C83.968933 142.000000,84.283875 142.760147,84.844360 143.320618C85.404831 143.881104,86.164978 144.196045,86.957672 144.196045C87.750366 144.196045,88.510513 143.881104,89.070984 143.320618C89.631470 142.760147,89.946411 142.000000,89.946411 141.207306Z" style="fill: rgb(100.000000%,100.000000%,100.000000%);stroke: none;"></path>
  <path d="M119.160873 132.221085C119.160873 131.428391,118.845932 130.668243,118.285446 130.107773C117.724976 129.547287,116.964828 129.232346,116.172134 129.232346C115.379440 129.232346,114.619293 129.547287,114.058823 130.107773C113.498337 130.668243,113.183395 131.428391,113.183395 132.221085C113.183395 133.013779,113.498337 133.773926,114.058823 134.334396C114.619293 134.894882,115.379440 135.209824,116.172134 135.209824C116.964828 135.209824,117.724976 134.894882,118.285446 134.334396C118.845932 133.773926,119.160873 133.013779,119.160873 132.221085Z" style="fill: rgb(100.000000%,100.000000%,100.000000%);stroke: none;"></path>
  <path d="M63.329559 175.779144C63.329559 174.986450,63.014618 174.226303,62.454132 173.665833C61.893661 173.105347,61.133514 172.790405,60.340820 172.790405C59.548126 172.790405,58.787979 173.105347,58.227509 173.665833C57.667023 174.226303,57.352081 174.986450,57.352081 175.779144C57.352081 176.571838,57.667023 177.331985,58.227509 177.892456C58.787979 178.452942,59.548126 178.767883,60.340820 178.767883C61.133514 178.767883,61.893661 178.452942,62.454132 177.892456C63.014618 177.331985,63.329559 176.571838,63.329559 175.779144Z" style="fill: rgb(100.000000%,100.000000%,100.000000%);stroke: none;"></path>
  <path d="M87.091263 159.384918C87.091263 158.592224,86.776321 157.832077,86.215836 157.271606C85.655365 156.711121,84.895218 156.396179,84.102524 156.396179C83.309830 156.396179,82.549683 156.711121,81.989212 157.271606C81.428726 157.832077,81.113785 158.592224,81.113785 159.384918C81.113785 160.177612,81.428726 160.937759,81.989212 161.498230C82.549683 162.058716,83.309830 162.373657,84.102524 162.373657C84.895218 162.373657,85.655365 162.058716,86.215836 161.498230C86.776321 160.937759,87.091263 160.177612,87.091263 159.384918Z" style="fill: rgb(100.000000%,100.000000%,100.000000%);stroke: none;"></path>
  <path d="M26.011215 153.528580C26.011215 152.735886,25.696274 151.975739,25.135788 151.415268C24.575317 150.854782,23.815170 150.539841,23.022476 150.539841C22.229782 150.539841,21.469635 150.854782,20.909164 151.415268C20.348679 151.975739,20.033737 152.735886,20.033737 153.528580C20.033737 154.321274,20.348679 155.081421,20.909164 155.641891C21.469635 156.202377,22.229782 156.517319,23.022476 156.517319C23.815170 156.517319,24.575317 156.202377,25.135788 155.641891C25.696274 155.081421,26.011215 154.321274,26.011215 153.528580Z" style="fill: rgb(100.000000%,100.000000%,100.000000%);stroke: none;"></path>
  <path d="M47.398590 172.248703C47.398590 171.456009,47.083649 170.695862,46.523163 170.135391C45.962692 169.574905,45.202545 169.259964,44.409851 169.259964C43.617157 169.259964,42.857010 169.574905,42.296539 170.135391C41.736053 170.695862,41.421112 171.456009,41.421112 172.248703C41.421112 173.041397,41.736053 173.801544,42.296539 174.362015C42.857010 174.922501,43.617157 175.237442,44.409851 175.237442C45.202545 175.237442,45.962692 174.922501,46.523163 174.362015C47.083649 173.801544,47.398590 173.041397,47.398590 172.248703Z" style="fill: rgb(100.000000%,100.000000%,100.000000%);stroke: none;"></path>
  <path d="M29.941513 117.106567C29.941513 116.313873,29.626572 115.553726,29.066086 114.993256C28.505615 114.432770,27.745468 114.117828,26.952774 114.117828C26.160080 114.117828,25.399933 114.432770,24.839462 114.993256C24.278976 115.553726,23.964035 116.313873,23.964035 117.106567C23.964035 117.899261,24.278976 118.659409,24.839462 119.219879C25.399933 119.780365,26.160080 120.095306,26.952774 120.095306C27.745468 120.095306,28.505615 119.780365,29.066086 119.219879C29.626572 118.659409,29.941513 117.899261,29.941513 117.106567Z" style="fill: rgb(100.000000%,100.000000%,100.000000%);stroke: none;"></path>
  <path d="M20.373093 139.991318C20.373093 139.198624,20.058151 138.438477,19.497665 137.878006C18.937195 137.317520,18.177048 137.002579,17.384354 137.002579C16.591660 137.002579,15.831512 137.317520,15.271042 137.878006C14.710556 138.438477,14.395615 139.198624,14.395615 139.991318C14.395615 140.784012,14.710556 141.544159,15.271042 142.104630C15.831512 142.665115,16.591660 142.980057,17.384354 142.980057C18.177048 142.980057,18.937195 142.665115,19.497665 142.104630C20.058151 141.544159,20.373093 140.784012,20.373093 139.991318Z" style="fill: rgb(100.000000%,100.000000%,100.000000%);stroke: none;"></path>
  <path d="M37.997131 86.712189C37.997131 85.919495,37.682190 85.159348,37.121704 84.598877C36.561234 84.038391,35.801086 83.723450,35.008392 83.723450C34.215698 83.723450,33.455551 84.038391,32.895081 84.598877C32.334595 85.159348,32.019653 85.919495,32.019653 86.712189C32.019653 87.504883,32.334595 88.265030,32.895081 88.825500C33.455551 89.385986,34.215698 89.700928,35.008392 89.700928C35.801086 89.700928,36.561234 89.385986,37.121704 88.825500C37.682190 88.265030,37.997131 87.504883,37.997131 86.712189Z" style="fill: rgb(100.000000%,100.000000%,100.000000%);stroke: none;"></path>
  <path d="M42.832886 109.416443C42.832886 108.623749,42.517944 107.863602,41.957458 107.303131C41.396988 106.742645,40.636841 106.427704,39.844147 106.427704C39.051453 106.427704,38.291306 106.742645,37.730835 107.303131C37.170349 107.863602,36.855408 108.623749,36.855408 109.416443C36.855408 110.209137,37.170349 110.969284,37.730835 111.529755C38.291306 112.090240,39.051453 112.405182,39.844147 112.405182C40.636841 112.405182,41.396988 112.090240,41.957458 111.529755C42.517944 110.969284,42.832886 110.209137,42.832886 109.416443Z" style="fill: rgb(100.000000%,100.000000%,100.000000%);stroke: none;"></path>
  <path d="M12.796906 67.175262C12.796906 66.382568,12.481964 65.622421,11.921478 65.061951C11.361008 64.501465,10.600861 64.186523,9.808167 64.186523C9.015472 64.186523,8.255325 64.501465,7.694855 65.061951C7.134369 65.622421,6.819427 66.382568,6.819427 67.175262C6.819427 67.967957,7.134369 68.728104,7.694855 69.288574C8.255325 69.849060,9.015472 70.164001,9.808167 70.164001C10.600861 70.164001,11.361008 69.849060,11.921478 69.288574C12.481964 68.728104,12.796906 67.967957,12.796906 67.175262Z" style="fill: rgb(100.000000%,100.000000%,100.000000%);stroke: none;"></path>
  <path d="M24.667206 83.900543C24.667206 83.107849,24.352264 82.347702,23.791779 81.787231C23.231308 81.226746,22.471161 80.911804,21.678467 80.911804C20.885773 80.911804,20.125626 81.226746,19.565155 81.787231C19.004669 82.347702,18.689728 83.107849,18.689728 83.900543C18.689728 84.693237,19.004669 85.453384,19.565155 86.013855C20.125626 86.574341,20.885773 86.889282,21.678467 86.889282C22.471161 86.889282,23.231308 86.574341,23.791779 86.013855C24.352264 85.453384,24.667206 84.693237,24.667206 83.900543Z" style="fill: rgb(100.000000%,100.000000%,100.000000%);stroke: none;"></path>
  <path d="M24.014908 39.444168C24.014908 38.651474,23.699966 37.891327,23.139481 37.330856C22.579010 36.770370,21.818863 36.455429,21.026169 36.455429C20.233475 36.455429,19.473328 36.770370,18.912857 37.330856C18.352371 37.891327,18.037430 38.651474,18.037430 39.444168C18.037430 40.236862,18.352371 40.997009,18.912857 41.557480C19.473328 42.117966,20.233475 42.432907,21.026169 42.432907C21.818863 42.432907,22.579010 42.117966,23.139481 41.557480C23.699966 40.997009,24.014908 40.236862,24.014908 39.444168Z" style="fill: rgb(100.000000%,100.000000%,100.000000%);stroke: none;"></path>
  <path d="M14.051590 56.449432C14.051590 55.656738,13.736649 54.896591,13.176163 54.336121C12.615692 53.775635,11.855545 53.460693,11.062851 53.460693C10.270157 53.460693,9.510010 53.775635,8.949539 54.336121C8.389053 54.896591,8.074112 55.656738,8.074112 56.449432C8.074112 57.242126,8.389053 58.002274,8.949539 58.562744C9.510010 59.123230,10.270157 59.438171,11.062851 59.438171C11.855545 59.438171,12.615692 59.123230,13.176163 58.562744C13.736649 58.002274,14.051590 57.242126,14.051590 56.449432Z" style="fill: rgb(100.000000%,100.000000%,100.000000%);stroke: none;"></path>
  <path d="M51.658661 35.315948C51.658661 34.523254,51.343719 33.763107,50.783234 33.202637C50.222763 32.642151,49.462616 32.327209,48.669922 32.327209C47.877228 32.327209,47.117081 32.642151,46.556610 33.202637C45.996124 33.763107,45.681183 34.523254,45.681183 35.315948C45.681183 36.108643,45.996124 36.868790,46.556610 37.429260C47.117081 37.989746,47.877228 38.304688,48.669922 38.304688C49.462616 38.304688,50.222763 37.989746,50.783234 37.429260C51.343719 36.868790,51.658661 36.108643,51.658661 35.315948Z" style="fill: rgb(100.000000%,100.000000%,100.000000%);stroke: none;"></path>
  <path d="M32.382141 33.238632C32.382141 32.445938,32.067200 31.685791,31.506714 31.125320C30.946243 30.564835,30.186096 30.249893,29.393402 30.249893C28.600708 30.249893,27.840561 30.564835,27.280090 31.125320C26.719604 31.685791,26.404663 32.445938,26.404663 33.238632C26.404663 34.031326,26.719604 34.791473,27.280090 35.351944C27.840561 35.912430,28.600708 36.227371,29.393402 36.227371C30.186096 36.227371,30.946243 35.912430,31.506714 35.351944C32.067200 34.791473,32.382141 34.031326,32.382141 33.238632Z" style="fill: rgb(100.000000%,100.000000%,100.000000%);stroke: none;"></path>
  <path d="M79.965179 36.585083C79.965179 35.792389,79.650238 35.032242,79.089752 34.471771C78.529282 33.911285,77.769135 33.596344,76.976440 33.596344C76.183746 33.596344,75.423599 33.911285,74.863129 34.471771C74.302643 35.032242,73.987701 35.792389,73.987701 36.585083C73.987701 37.377777,74.302643 38.137924,74.863129 38.698395C75.423599 39.258881,76.183746 39.573822,76.976440 39.573822C77.769135 39.573822,78.529282 39.258881,79.089752 38.698395C79.650238 38.137924,79.965179 37.377777,79.965179 36.585083Z" style="fill: rgb(100.000000%,100.000000%,100.000000%);stroke: none;"></path>
  <path d="M60.406845 44.704224C60.406845 43.911530,60.091904 43.151382,59.531418 42.590912C58.970947 42.030426,58.210800 41.715485,57.418106 41.715485C56.625412 41.715485,55.865265 42.030426,55.304794 42.590912C54.744308 43.151382,54.429367 43.911530,54.429367 44.704224C54.429367 45.496918,54.744308 46.257065,55.304794 46.817535C55.865265 47.378021,56.625412 47.692963,57.418106 47.692963C58.210800 47.692963,58.970947 47.378021,59.531418 46.817535C60.091904 46.257065,60.406845 45.496918,60.406845 44.704224Z" style="fill: rgb(100.000000%,100.000000%,100.000000%);stroke: none;"></path>
  <path d="M90.416351 5.559113C90.416351 4.766418,90.101410 4.006271,89.540924 3.445801C88.980453 2.885315,88.220306 2.570374,87.427612 2.570374C86.634918 2.570374,85.874771 2.885315,85.314301 3.445801C84.753815 4.006271,84.438873 4.766418,84.438873 5.559113C84.438873 6.351807,84.753815 7.111954,85.314301 7.672424C85.874771 8.232910,86.634918 8.547852,87.427612 8.547852C88.220306 8.547852,88.980453 8.232910,89.540924 7.672424C90.101410 7.111954,90.416351 6.351807,90.416351 5.559113Z" style="fill: rgb(100.000000%,100.000000%,100.000000%);stroke: none;"></path>
  <path d="M78.869278 23.153275C78.869278 22.360580,78.554337 21.600433,77.993851 21.039963C77.433380 20.479477,76.673233 20.164536,75.880539 20.164536C75.087845 20.164536,74.327698 20.479477,73.767227 21.039963C73.206741 21.600433,72.891800 22.360580,72.891800 23.153275C72.891800 23.945969,73.206741 24.706116,73.767227 25.266586C74.327698 25.827072,75.087845 26.142014,75.880539 26.142014C76.673233 26.142014,77.433380 25.827072,77.993851 25.266586C78.554337 24.706116,78.869278 23.945969,78.869278 23.153275Z" style="fill: rgb(100.000000%,100.000000%,100.000000%);stroke: none;"></path>
  <path d="M124.384949 7.598770C124.384949 6.806076,124.070007 6.045929,123.509521 5.485458C122.949051 4.924973,122.188904 4.610031,121.396210 4.610031C120.603516 4.610031,119.843369 4.924973,119.282898 5.485458C118.722412 6.045929,118.407471 6.806076,118.407471 7.598770C118.407471 8.391464,118.722412 9.151611,119.282898 9.712082C119.843369 10.272568,120.603516 10.587509,121.396210 10.587509C122.188904 10.587509,122.949051 10.272568,123.509521 9.712082C124.070007 9.151611,124.384949 8.391464,124.384949 7.598770Z" style="fill: rgb(100.000000%,100.000000%,100.000000%);stroke: none;"></path>
  <path d="M101.930649 2.888153C101.930649 2.095459,101.615707 1.335312,101.055222 0.774841C100.494751 0.214355,99.734604 -0.100586,98.941910 -0.100586C98.149216 -0.100586,97.389069 0.214355,96.828598 0.774841C96.268112 1.335312,95.953171 2.095459,95.953171 2.888153C95.953171 3.680847,96.268112 4.440994,96.828598 5.001465C97.389069 5.561951,98.149216 5.876892,98.941910 5.876892C99.734604 5.876892,100.494751 5.561951,101.055222 5.001465C101.615707 4.440994,101.930649 3.680847,101.930649 2.888153Z" style="fill: rgb(100.000000%,100.000000%,100.000000%);stroke: none;"></path>
  <path d="M138.438858 39.509537C138.438858 38.716843,138.123917 37.956696,137.563431 37.396225C137.002960 36.835739,136.242813 36.520798,135.450119 36.520798C134.657425 36.520798,133.897278 36.835739,133.336807 37.396225C132.776321 37.956696,132.461380 38.716843,132.461380 39.509537C132.461380 40.302231,132.776321 41.062378,133.336807 41.622849C133.897278 42.183334,134.657425 42.498276,135.450119 42.498276C136.242813 42.498276,137.002960 42.183334,137.563431 41.622849C138.123917 41.062378,138.438858 40.302231,138.438858 39.509537Z" style="fill: rgb(100.000000%,100.000000%,100.000000%);stroke: none;"></path>
  <path d="M134.545120 15.700638C134.545120 14.907944,134.230179 14.147797,133.669693 13.587326C133.109222 13.026840,132.349075 12.711899,131.556381 12.711899C130.763687 12.711899,130.003540 13.026840,129.443069 13.587326C128.882584 14.147797,128.567642 14.907944,128.567642 15.700638C128.567642 16.493332,128.882584 17.253479,129.443069 17.813950C130.003540 18.374435,130.763687 18.689377,131.556381 18.689377C132.349075 18.689377,133.109222 18.374435,133.669693 17.813950C134.230179 17.253479,134.545120 16.493332,134.545120 15.700638Z" style="fill: rgb(100.000000%,100.000000%,100.000000%);stroke: none;"></path>
  <path d="M135.436569 71.074997C135.436569 70.282303,135.121628 69.522156,134.561142 68.961685C134.000671 68.401199,133.240524 68.086258,132.447830 68.086258C131.655136 68.086258,130.894989 68.401199,130.334518 68.961685C129.774033 69.522156,129.459091 70.282303,129.459091 71.074997C129.459091 71.867691,129.774033 72.627838,130.334518 73.188309C130.894989 73.748795,131.655136 74.063736,132.447830 74.063736C133.240524 74.063736,134.000671 73.748795,134.561142 73.188309C135.121628 72.627838,135.436569 71.867691,135.436569 71.074997Z" style="fill: rgb(100.000000%,100.000000%,100.000000%);stroke: none;"></path>
  <path d="M129.948395 51.481659C129.948395 50.688965,129.633453 49.928818,129.072968 49.368347C128.512497 48.807861,127.752350 48.492920,126.959656 48.492920C126.166962 48.492920,125.406815 48.807861,124.846344 49.368347C124.285858 49.928818,123.970917 50.688965,123.970917 51.481659C123.970917 52.274353,124.285858 53.034500,124.846344 53.594971C125.406815 54.155457,126.166962 54.470398,126.959656 54.470398C127.752350 54.470398,128.512497 54.155457,129.072968 53.594971C129.633453 53.034500,129.948395 52.274353,129.948395 51.481659Z" style="fill: rgb(100.000000%,100.000000%,100.000000%);stroke: none;"></path>
  <path d="M148.863205 84.496887C148.863205 83.704193,148.548264 82.944046,147.987778 82.383575C147.427307 81.823090,146.667160 81.508148,145.874466 81.508148C145.081772 81.508148,144.321625 81.823090,143.761154 82.383575C143.200668 82.944046,142.885727 83.704193,142.885727 84.496887C142.885727 85.289581,143.200668 86.049728,143.761154 86.610199C144.321625 87.170685,145.081772 87.485626,145.874466 87.485626C146.667160 87.485626,147.427307 87.170685,147.987778 86.610199C148.548264 86.049728,148.863205 85.289581,148.863205 84.496887Z" style="fill: rgb(100.000000%,100.000000%,100.000000%);stroke: none;"></path>
  <path d="M141.840225 76.355255C141.840225 75.562561,141.525284 74.802414,140.964798 74.241943C140.404327 73.681458,139.644180 73.366516,138.851486 73.366516C138.058792 73.366516,137.298645 73.681458,136.738174 74.241943C136.177689 74.802414,135.862747 75.562561,135.862747 76.355255C135.862747 77.147949,136.177689 77.908096,136.738174 78.468567C137.298645 79.029053,138.058792 79.343994,138.851486 79.343994C139.644180 79.343994,140.404327 79.029053,140.964798 78.468567C141.525284 77.908096,141.840225 77.147949,141.840225 76.355255Z" style="fill: rgb(100.000000%,100.000000%,100.000000%);stroke: none;"></path>
  <path d="M155.637207 85.174179C155.637207 84.381485,155.322266 83.621338,154.761780 83.060867C154.201309 82.500381,153.441162 82.185440,152.648468 82.185440C151.855774 82.185440,151.095627 82.500381,150.535156 83.060867C149.974670 83.621338,149.659729 84.381485,149.659729 85.174179C149.659729 85.966873,149.974670 86.727020,150.535156 87.287491C151.095627 87.847977,151.855774 88.162918,152.648468 88.162918C153.441162 88.162918,154.201309 87.847977,154.761780 87.287491C155.322266 86.727020,155.637207 85.966873,155.637207 85.174179Z" style="fill: rgb(100.000000%,100.000000%,100.000000%);stroke: none;"></path>
  <path d="M151.144058 86.742706C151.144058 85.950012,150.829117 85.189865,150.268631 84.629395C149.708160 84.068909,148.948013 83.753967,148.155319 83.753967C147.362625 83.753967,146.602478 84.068909,146.042007 84.629395C145.481522 85.189865,145.166580 85.950012,145.166580 86.742706C145.166580 87.535400,145.481522 88.295547,146.042007 88.856018C146.602478 89.416504,147.362625 89.731445,148.155319 89.731445C148.948013 89.731445,149.708160 89.416504,150.268631 88.856018C150.829117 88.295547,151.144058 87.535400,151.144058 86.742706Z" style="fill: rgb(100.000000%,100.000000%,100.000000%);stroke: none;"></path>
  <path d="M157.577927 79.522842C157.577927 78.730148,157.262985 77.970001,156.702499 77.409531C156.142029 76.849045,155.381882 76.534103,154.589188 76.534103C153.796494 76.534103,153.036346 76.849045,152.475876 77.409531C151.915390 77.970001,151.600449 78.730148,151.600449 79.522842C151.600449 80.315536,151.915390 81.075684,152.475876 81.636154C153.036346 82.196640,153.796494 82.511581,154.589188 82.511581C155.381882 82.511581,156.142029 82.196640,156.702499 81.636154C157.262985 81.075684,157.577927 80.315536,157.577927 79.522842Z" style="fill: rgb(100.000000%,100.000000%,100.000000%);stroke: none;"></path>
  <path d="M156.395218 83.080872C156.395218 82.288177,156.080276 81.528030,155.519791 80.967560C154.959320 80.407074,154.199173 80.092133,153.406479 80.092133C152.613785 80.092133,151.853638 80.407074,151.293167 80.967560C150.732681 81.528030,150.417740 82.288177,150.417740 83.080872C150.417740 83.873566,150.732681 84.633713,151.293167 85.194183C151.853638 85.754669,152.613785 86.069611,153.406479 86.069611C154.199173 86.069611,154.959320 85.754669,155.519791 85.194183C156.080276 84.633713,156.395218 83.873566,156.395218 83.080872Z" style="fill: rgb(100.000000%,100.000000%,100.000000%);stroke: none;"></path>
  <path d="M161.731918 77.245209C161.731918 76.452515,161.416977 75.692368,160.856491 75.131897C160.296021 74.571411,159.535873 74.256470,158.743179 74.256470C157.950485 74.256470,157.190338 74.571411,156.629868 75.131897C156.069382 75.692368,155.754440 76.452515,155.754440 77.245209C155.754440 78.037903,156.069382 78.798050,156.629868 79.358521C157.190338 79.919006,157.950485 80.233948,158.743179 80.233948C159.535873 80.233948,160.296021 79.919006,160.856491 79.358521C161.416977 78.798050,161.731918 78.037903,161.731918 77.245209Z" style="fill: rgb(100.000000%,100.000000%,100.000000%);stroke: none;"></path>
  <path d="M158.369614 77.830597C158.369614 77.037903,158.054672 76.277756,157.494186 75.717285C156.933716 75.156799,156.173569 74.841858,155.380875 74.841858C154.588181 74.841858,153.828033 75.156799,153.267563 75.717285C152.707077 76.277756,152.392136 77.037903,152.392136 77.830597C152.392136 78.623291,152.707077 79.383438,153.267563 79.943909C153.828033 80.504395,154.588181 80.819336,155.380875 80.819336C156.173569 80.819336,156.933716 80.504395,157.494186 79.943909C158.054672 79.383438,158.369614 78.623291,158.369614 77.830597Z" style="fill: rgb(100.000000%,100.000000%,100.000000%);stroke: none;"></path>
  <path d="M165.781326 82.288498C165.781326 81.495804,165.466385 80.735657,164.905899 80.175186C164.345428 79.614700,163.585281 79.299759,162.792587 79.299759C161.999893 79.299759,161.239746 79.614700,160.679276 80.175186C160.118790 80.735657,159.803848 81.495804,159.803848 82.288498C159.803848 83.081192,160.118790 83.841339,160.679276 84.401810C161.239746 84.962296,161.999893 85.277237,162.792587 85.277237C163.585281 85.277237,164.345428 84.962296,164.905899 84.401810C165.466385 83.841339,165.781326 83.081192,165.781326 82.288498Z" style="fill: rgb(100.000000%,100.000000%,100.000000%);stroke: none;"></path>
  <path d="M163.071976 78.718460C163.071976 77.925766,162.757034 77.165619,162.196548 76.605148C161.636078 76.044662,160.875931 75.729721,160.083237 75.729721C159.290543 75.729721,158.530396 76.044662,157.969925 76.605148C157.409439 77.165619,157.094498 77.925766,157.094498 78.718460C157.094498 79.511154,157.409439 80.271301,157.969925 80.831772C158.530396 81.392258,159.290543 81.707199,160.083237 81.707199C160.875931 81.707199,161.636078 81.392258,162.196548 80.831772C162.757034 80.271301,163.071976 79.511154,163.071976 78.718460Z" style="fill: rgb(100.000000%,100.000000%,100.000000%);stroke: none;"></path>
  <path d="M176.187332 88.107254C176.187332 87.314560,175.872391 86.554413,175.311905 85.993942C174.751434 85.433456,173.991287 85.118515,173.198593 85.118515C172.405899 85.118515,171.645752 85.433456,171.085281 85.993942C170.524796 86.554413,170.209854 87.314560,170.209854 88.107254C170.209854 88.899948,170.524796 89.660095,171.085281 90.220566C171.645752 90.781052,172.405899 91.095993,173.198593 91.095993C173.991287 91.095993,174.751434 90.781052,175.311905 90.220566C175.872391 89.660095,176.187332 88.899948,176.187332 88.107254Z" style="fill: rgb(100.000000%,100.000000%,100.000000%);stroke: none;"></path>
  <path d="M167.509079 84.440414C167.509079 83.647720,167.194138 82.887573,166.633652 82.327103C166.073181 81.766617,165.313034 81.451675,164.520340 81.451675C163.727646 81.451675,162.967499 81.766617,162.407028 82.327103C161.846542 82.887573,161.531601 83.647720,161.531601 84.440414C161.531601 85.233109,161.846542 85.993256,162.407028 86.553726C162.967499 87.114212,163.727646 87.429153,164.520340 87.429153C165.313034 87.429153,166.073181 87.114212,166.633652 86.553726C167.194138 85.993256,167.509079 85.233109,167.509079 84.440414Z" style="fill: rgb(100.000000%,100.000000%,100.000000%);stroke: none;"></path>
  <path d="M189.084351 64.821518C189.084351 64.028824,188.769409 63.268677,188.208923 62.708206C187.648453 62.147720,186.888306 61.832779,186.095612 61.832779C185.302917 61.832779,184.542770 62.147720,183.982300 62.708206C183.421814 63.268677,183.106873 64.028824,183.106873 64.821518C183.106873 65.614212,183.421814 66.374359,183.982300 66.934830C184.542770 67.495316,185.302917 67.810257,186.095612 67.810257C186.888306 67.810257,187.648453 67.495316,188.208923 66.934830C188.769409 66.374359,189.084351 65.614212,189.084351 64.821518Z" style="fill: rgb(100.000000%,100.000000%,100.000000%);stroke: none;"></path>
  <path d="M182.927628 83.555237C182.927628 82.762543,182.612686 82.002396,182.052200 81.441925C181.491730 80.881439,180.731583 80.566498,179.938889 80.566498C179.146194 80.566498,178.386047 80.881439,177.825577 81.441925C177.265091 82.002396,176.950150 82.762543,176.950150 83.555237C176.950150 84.347931,177.265091 85.108078,177.825577 85.668549C178.386047 86.229034,179.146194 86.543976,179.938889 86.543976C180.731583 86.543976,181.491730 86.229034,182.052200 85.668549C182.612686 85.108078,182.927628 84.347931,182.927628 83.555237Z" style="fill: rgb(100.000000%,100.000000%,100.000000%);stroke: none;"></path>
  <path d="M161.960739 34.063248C161.960739 33.270554,161.645798 32.510406,161.085312 31.949936C160.524841 31.389450,159.764694 31.074509,158.972000 31.074509C158.179306 31.074509,157.419159 31.389450,156.858688 31.949936C156.298203 32.510406,155.983261 33.270554,155.983261 34.063248C155.983261 34.855942,156.298203 35.616089,156.858688 36.176559C157.419159 36.737045,158.179306 37.051987,158.972000 37.051987C159.764694 37.051987,160.524841 36.737045,161.085312 36.176559C161.645798 35.616089,161.960739 34.855942,161.960739 34.063248Z" style="fill: rgb(100.000000%,100.000000%,100.000000%);stroke: none;"></path>
  <path d="M180.665985 53.613953C180.665985 52.821259,180.351044 52.061111,179.790558 51.500641C179.230087 50.940155,178.469940 50.625214,177.677246 50.625214C176.884552 50.625214,176.124405 50.940155,175.563934 51.500641C175.003448 52.061111,174.688507 52.821259,174.688507 53.613953C174.688507 54.406647,175.003448 55.166794,175.563934 55.727264C176.124405 56.287750,176.884552 56.602692,177.677246 56.602692C178.469940 56.602692,179.230087 56.287750,179.790558 55.727264C180.351044 55.166794,180.665985 54.406647,180.665985 53.613953Z" style="fill: rgb(100.000000%,100.000000%,100.000000%);stroke: none;"></path>
  <path d="M125.081085 30.086166C125.081085 29.293472,124.766144 28.533325,124.205658 27.972855C123.645187 27.412369,122.885040 27.097427,122.092346 27.097427C121.299652 27.097427,120.539505 27.412369,119.979034 27.972855C119.418549 28.533325,119.103607 29.293472,119.103607 30.086166C119.103607 30.878860,119.418549 31.639008,119.979034 32.199478C120.539505 32.759964,121.299652 33.074905,122.092346 33.074905C122.885040 33.074905,123.645187 32.759964,124.205658 32.199478C124.766144 31.639008,125.081085 30.878860,125.081085 30.086166Z" style="fill: rgb(100.000000%,100.000000%,100.000000%);stroke: none;"></path>
  <path d="M150.002808 24.099243C150.002808 23.306549,149.687866 22.546402,149.127380 21.985931C148.566910 21.425446,147.806763 21.110504,147.014069 21.110504C146.221375 21.110504,145.461227 21.425446,144.900757 21.985931C144.340271 22.546402,144.025330 23.306549,144.025330 24.099243C144.025330 24.891937,144.340271 25.652084,144.900757 26.212555C145.461227 26.773041,146.221375 27.087982,147.014069 27.087982C147.806763 27.087982,148.566910 26.773041,149.127380 26.212555C149.687866 25.652084,150.002808 24.891937,150.002808 24.099243Z" style="fill: rgb(100.000000%,100.000000%,100.000000%);stroke: none;"></path>
  <path d="M93.755539 35.447708C93.755539 34.655014,93.440598 33.894867,92.880112 33.334396C92.319641 32.773911,91.559494 32.458969,90.766800 32.458969C89.974106 32.458969,89.213959 32.773911,88.653488 33.334396C88.093002 33.894867,87.778061 34.655014,87.778061 35.447708C87.778061 36.240402,88.093002 37.000549,88.653488 37.561020C89.213959 38.121506,89.974106 38.436447,90.766800 38.436447C91.559494 38.436447,92.319641 38.121506,92.880112 37.561020C93.440598 37.000549,93.755539 36.240402,93.755539 35.447708Z" style="fill: rgb(100.000000%,100.000000%,100.000000%);stroke: none;"></path>
  <path d="M116.110138 42.656540C116.110138 41.863846,115.795197 41.103699,115.234711 40.543228C114.674240 39.982742,113.914093 39.667801,113.121399 39.667801C112.328705 39.667801,111.568558 39.982742,111.008087 40.543228C110.447601 41.103699,110.132660 41.863846,110.132660 42.656540C110.132660 43.449234,110.447601 44.209381,111.008087 44.769852C111.568558 45.330338,112.328705 45.645279,113.121399 45.645279C113.914093 45.645279,114.674240 45.330338,115.234711 44.769852C115.795197 44.209381,116.110138 43.449234,116.110138 42.656540Z" style="fill: rgb(100.000000%,100.000000%,100.000000%);stroke: none;"></path>
  <path d="M77.151337 7.994797C77.151337 7.202103,76.836395 6.441956,76.275909 5.881485C75.715439 5.320999,74.955292 5.006058,74.162598 5.006058C73.369904 5.006058,72.609756 5.320999,72.049286 5.881485C71.488800 6.441956,71.173859 7.202103,71.173859 7.994797C71.173859 8.787491,71.488800 9.547638,72.049286 10.108109C72.609756 10.668594,73.369904 10.983536,74.162598 10.983536C74.955292 10.983536,75.715439 10.668594,76.275909 10.108109C76.836395 9.547638,77.151337 8.787491,77.151337 7.994797Z" style="fill: rgb(100.000000%,100.000000%,100.000000%);stroke: none;"></path>
  <path d="M92.581741 21.619873C92.581741 20.827179,92.266800 20.067032,91.706314 19.506561C91.145844 18.946075,90.385696 18.631134,89.593002 18.631134C88.800308 18.631134,88.040161 18.946075,87.479691 19.506561C86.919205 20.067032,86.604263 20.827179,86.604263 21.619873C86.604263 22.412567,86.919205 23.172714,87.479691 23.733185C88.040161 24.293671,88.800308 24.608612,89.593002 24.608612C90.385696 24.608612,91.145844 24.293671,91.706314 23.733185C92.266800 23.172714,92.581741 22.412567,92.581741 21.619873Z" style="fill: rgb(100.000000%,100.000000%,100.000000%);stroke: none;"></path>
  <path d="M48.493057 16.740784C48.493057 15.948090,48.178116 15.187943,47.617630 14.627472C47.057159 14.066986,46.297012 13.752045,45.504318 13.752045C44.711624 13.752045,43.951477 14.066986,43.391006 14.627472C42.830521 15.187943,42.515579 15.948090,42.515579 16.740784C42.515579 17.533478,42.830521 18.293625,43.391006 18.854095C43.951477 19.414581,44.711624 19.729523,45.504318 19.729523C46.297012 19.729523,47.057159 19.414581,47.617630 18.854095C48.178116 18.293625,48.493057 17.533478,48.493057 16.740784Z" style="fill: rgb(100.000000%,100.000000%,100.000000%);stroke: none;"></path>
  <path d="M66.335754 8.219925C66.335754 7.427231,66.020813 6.667084,65.460327 6.106613C64.899857 5.546127,64.139709 5.231186,63.347015 5.231186C62.554321 5.231186,61.794174 5.546127,61.233704 6.106613C60.673218 6.667084,60.358276 7.427231,60.358276 8.219925C60.358276 9.012619,60.673218 9.772766,61.233704 10.333237C61.794174 10.893723,62.554321 11.208664,63.347015 11.208664C64.139709 11.208664,64.899857 10.893723,65.460327 10.333237C66.020813 9.772766,66.335754 9.012619,66.335754 8.219925Z" style="fill: rgb(100.000000%,100.000000%,100.000000%);stroke: none;"></path>
  <path d="M42.034271 44.240509C42.034271 43.447815,41.719330 42.687668,41.158844 42.127197C40.598373 41.566711,39.838226 41.251770,39.045532 41.251770C38.252838 41.251770,37.492691 41.566711,36.932220 42.127197C36.371735 42.687668,36.056793 43.447815,36.056793 44.240509C36.056793 45.033203,36.371735 45.793350,36.932220 46.353821C37.492691 46.914307,38.252838 47.229248,39.045532 47.229248C39.838226 47.229248,40.598373 46.914307,41.158844 46.353821C41.719330 45.793350,42.034271 45.033203,42.034271 44.240509Z" style="fill: rgb(100.000000%,100.000000%,100.000000%);stroke: none;"></path>
  <path d="M41.640884 24.675598C41.640884 23.882904,41.325943 23.122757,40.765457 22.562286C40.204987 22.001801,39.444839 21.686859,38.652145 21.686859C37.859451 21.686859,37.099304 22.001801,36.538834 22.562286C35.978348 23.122757,35.663406 23.882904,35.663406 24.675598C35.663406 25.468292,35.978348 26.228439,36.538834 26.788910C37.099304 27.349396,37.859451 27.664337,38.652145 27.664337C39.444839 27.664337,40.204987 27.349396,40.765457 26.788910C41.325943 26.228439,41.640884 25.468292,41.640884 24.675598Z" style="fill: rgb(100.000000%,100.000000%,100.000000%);stroke: none;"></path>
  <path d="M40.448105 72.511414C40.448105 71.718719,40.133163 70.958572,39.572678 70.398102C39.012207 69.837616,38.252060 69.522675,37.459366 69.522675C36.666672 69.522675,35.906525 69.837616,35.346054 70.398102C34.785568 70.958572,34.470627 71.718719,34.470627 72.511414C34.470627 73.304108,34.785568 74.064255,35.346054 74.624725C35.906525 75.185211,36.666672 75.500153,37.459366 75.500153C38.252060 75.500153,39.012207 75.185211,39.572678 74.624725C40.133163 74.064255,40.448105 73.304108,40.448105 72.511414Z" style="fill: rgb(100.000000%,100.000000%,100.000000%);stroke: none;"></path>
  <path d="M50.546234 53.986832C50.546234 53.194138,50.231293 52.433990,49.670807 51.873520C49.110336 51.313034,48.350189 50.998093,47.557495 50.998093C46.764801 50.998093,46.004654 51.313034,45.444183 51.873520C44.883698 52.433990,44.568756 53.194138,44.568756 53.986832C44.568756 54.779526,44.883698 55.539673,45.444183 56.100143C46.004654 56.660629,46.764801 56.975571,47.557495 56.975571C48.350189 56.975571,49.110336 56.660629,49.670807 56.100143C50.231293 55.539673,50.546234 54.779526,50.546234 53.986832Z" style="fill: rgb(100.000000%,100.000000%,100.000000%);stroke: none;"></path>
  <path d="M9.195816 80.295395C9.195816 79.502701,8.880875 78.742554,8.320389 78.182083C7.759918 77.621597,6.999771 77.306656,6.207077 77.306656C5.414383 77.306656,4.654236 77.621597,4.093765 78.182083C3.533279 78.742554,3.218338 79.502701,3.218338 80.295395C3.218338 81.088089,3.533279 81.848236,4.093765 82.408707C4.654236 82.969193,5.414383 83.284134,6.207077 83.284134C6.999771 83.284134,7.759918 82.969193,8.320389 82.408707C8.880875 81.848236,9.195816 81.088089,9.195816 80.295395Z" style="fill: rgb(100.000000%,100.000000%,100.000000%);stroke: none;"></path>
  <path d="M27.445312 70.354889C27.445312 69.562195,27.130371 68.802048,26.569885 68.241577C26.009415 67.681091,25.249268 67.366150,24.456573 67.366150C23.663879 67.366150,22.903732 67.681091,22.343262 68.241577C21.782776 68.802048,21.467834 69.562195,21.467834 70.354889C21.467834 71.147583,21.782776 71.907730,22.343262 72.468201C22.903732 73.028687,23.663879 73.343628,24.456573 73.343628C25.249268 73.343628,26.009415 73.028687,26.569885 72.468201C27.130371 71.907730,27.445312 71.147583,27.445312 70.354889Z" style="fill: rgb(100.000000%,100.000000%,100.000000%);stroke: none;"></path>
  <path d="M7.806778 113.888519C7.806778 113.095825,7.491837 112.335678,6.931351 111.775208C6.370880 111.214722,5.610733 110.899780,4.818039 110.899780C4.025345 110.899780,3.265198 111.214722,2.704727 111.775208C2.144241 112.335678,1.829300 113.095825,1.829300 113.888519C1.829300 114.681213,2.144241 115.441360,2.704727 116.001831C3.265198 116.562317,4.025345 116.877258,4.818039 116.877258C5.610733 116.877258,6.370880 116.562317,6.931351 116.001831C7.491837 115.441360,7.806778 114.681213,7.806778 113.888519Z" style="fill: rgb(100.000000%,100.000000%,100.000000%);stroke: none;"></path>
  <path d="M5.625977 91.400604C5.625977 90.607910,5.311035 89.847763,4.750549 89.287292C4.190079 88.726807,3.429932 88.411865,2.637238 88.411865C1.844543 88.411865,1.084396 88.726807,0.523926 89.287292C-0.036560 89.847763,-0.351501 90.607910,-0.351501 91.400604C-0.351501 92.193298,-0.036560 92.953445,0.523926 93.513916C1.084396 94.074402,1.844543 94.389343,2.637238 94.389343C3.429932 94.389343,4.190079 94.074402,4.750549 93.513916C5.311035 92.953445,5.625977 92.193298,5.625977 91.400604Z" style="fill: rgb(100.000000%,100.000000%,100.000000%);stroke: none;"></path>
  <path d="M37.321091 131.007751C37.321091 130.215057,37.006149 129.454910,36.445663 128.894440C35.885193 128.333954,35.125046 128.019012,34.332352 128.019012C33.539658 128.019012,32.779510 128.333954,32.219040 128.894440C31.658554 129.454910,31.343613 130.215057,31.343613 131.007751C31.343613 131.800446,31.658554 132.560593,32.219040 133.121063C32.779510 133.681549,33.539658 133.996490,34.332352 133.996490C35.125046 133.996490,35.885193 133.681549,36.445663 133.121063C37.006149 132.560593,37.321091 131.800446,37.321091 131.007751Z" style="fill: rgb(100.000000%,100.000000%,100.000000%);stroke: none;"></path>
  <path d="M14.321106 124.853271C14.321106 124.060577,14.006165 123.300430,13.445679 122.739960C12.885208 122.179474,12.125061 121.864532,11.332367 121.864532C10.539673 121.864532,9.779526 122.179474,9.219055 122.739960C8.658569 123.300430,8.343628 124.060577,8.343628 124.853271C8.343628 125.645966,8.658569 126.406113,9.219055 126.966583C9.779526 127.527069,10.539673 127.842010,11.332367 127.842010C12.125061 127.842010,12.885208 127.527069,13.445679 126.966583C14.006165 126.406113,14.321106 125.645966,14.321106 124.853271Z" style="fill: rgb(100.000000%,100.000000%,100.000000%);stroke: none;"></path>
  <path d="M73.409592 137.940643C73.409592 137.147949,73.094650 136.387802,72.534164 135.827332C71.973694 135.266846,71.213547 134.951904,70.420853 134.951904C69.628159 134.951904,68.868011 135.266846,68.307541 135.827332C67.747055 136.387802,67.432114 137.147949,67.432114 137.940643C67.432114 138.733337,67.747055 139.493484,68.307541 140.053955C68.868011 140.614441,69.628159 140.929382,70.420853 140.929382C71.213547 140.929382,71.973694 140.614441,72.534164 140.053955C73.094650 139.493484,73.409592 138.733337,73.409592 137.940643Z" style="fill: rgb(100.000000%,100.000000%,100.000000%);stroke: none;"></path>
  <path d="M50.819672 122.976562C50.819672 122.183868,50.504730 121.423721,49.944244 120.863251C49.383774 120.302765,48.623627 119.987823,47.830933 119.987823C47.038239 119.987823,46.278091 120.302765,45.717621 120.863251C45.157135 121.423721,44.842194 122.183868,44.842194 122.976562C44.842194 123.769257,45.157135 124.529404,45.717621 125.089874C46.278091 125.650360,47.038239 125.965302,47.830933 125.965302C48.623627 125.965302,49.383774 125.650360,49.944244 125.089874C50.504730 124.529404,50.819672 123.769257,50.819672 122.976562Z" style="fill: rgb(100.000000%,100.000000%,100.000000%);stroke: none;"></path>
  <path d="M82.600815 181.668472C82.600815 180.875778,82.285873 180.115631,81.725388 179.555161C81.164917 178.994675,80.404770 178.679733,79.612076 178.679733C78.819382 178.679733,78.059235 178.994675,77.498764 179.555161C76.938278 180.115631,76.623337 180.875778,76.623337 181.668472C76.623337 182.461166,76.938278 183.221313,77.498764 183.781784C78.059235 184.342270,78.819382 184.657211,79.612076 184.657211C80.404770 184.657211,81.164917 184.342270,81.725388 183.781784C82.285873 183.221313,82.600815 182.461166,82.600815 181.668472Z" style="fill: rgb(100.000000%,100.000000%,100.000000%);stroke: none;"></path>
  <path d="M68.923889 155.385941C68.923889 154.593246,68.608948 153.833099,68.048462 153.272629C67.487991 152.712143,66.727844 152.397202,65.935150 152.397202C65.142456 152.397202,64.382309 152.712143,63.821838 153.272629C63.261353 153.833099,62.946411 154.593246,62.946411 155.385941C62.946411 156.178635,63.261353 156.938782,63.821838 157.499252C64.382309 158.059738,65.142456 158.374680,65.935150 158.374680C66.727844 158.374680,67.487991 158.059738,68.048462 157.499252C68.608948 156.938782,68.923889 156.178635,68.923889 155.385941Z" style="fill: rgb(100.000000%,100.000000%,100.000000%);stroke: none;"></path>
  <path d="M113.531403 183.660034C131.728729 182.102127,145.300858 166.217514,144.000000 148.000000C142.942932 133.196381,131.344269 120.379837,133.306686 105.481003C134.432678 96.932388,139.922394 89.878448,144.000000 82.323853C145.345428 79.831192,147.067474 77.188385,149.762894 77.468948C151.733398 77.674057,152.961151 79.465302,154.051132 81.141510C154.990540 82.586166,156.201126 84.037033,157.867554 83.876007C159.638733 83.704865,160.528244 81.879227,161.175293 80.157425C162.097549 77.703308,163.116974 75.203217,165.120621 73.504288C170.115616 69.268936,177.605301 71.358154,182.208435 76.649429C191.494125 87.323303,187.718903 102.850937,181.619858 116.156586C173.937729 132.915894,161.694824 148.907928,144.000000 148.000000C128.903305 147.225388,116.172134 132.221085,101.151840 136.841248C86.957672 141.207306,84.102524 159.384918,72.265884 167.551529C60.340820 175.779144,44.409851 172.248703,33.181747 162.420868C23.022476 153.528580,17.384354 139.991318,22.467911 127.832993C26.952774 117.106567,39.844147 109.416443,37.311783 97.526779C35.008392 86.712189,21.678467 83.900543,15.519684 75.222809C9.808167 67.175262,11.062851 56.449432,16.134766 47.792755C21.026169 39.444168,29.393402 33.238632,38.844803 34.257156C48.669922 35.315948,57.418106 44.704224,66.968246 40.739731C76.976440 36.585083,75.880539 23.153275,81.548706 14.516739C87.427612 5.559113,98.941910 2.888153,109.641052 5.132690C121.396210 7.598770,131.556381 15.700638,133.462311 27.354767C135.450119 39.509537,126.959656 51.481659,130.310577 63.444794C132.447830 71.074997,138.851486 76.355255,144.000000 82.323853C145.874466 84.496887,148.155319 86.742706,150.740005 85.840408C152.648468 85.174179,153.406479 83.080872,154.051132 81.141510C154.589188 79.522842,155.380875 77.830597,157.016357 77.545853C158.743179 77.245209,160.083237 78.718460,161.175293 80.157425C162.792587 82.288498,164.520340 84.440414,166.989578 85.483749C173.198593 88.107254,179.938889 83.555237,182.208435 76.649429C186.095612 64.821518,177.677246 53.613953,168.830048 44.366867C158.972000 34.063248,147.014069 24.099243,133.462311 27.354767C122.092346 30.086166,113.121399 42.656540,101.407089 38.878952C90.766800 35.447708,89.593002 21.619873,81.548706 14.516739C74.162598 7.994797,63.347015 8.219925,54.295395 12.542572C45.504318 16.740784,38.652145 24.675598,38.844803 34.257156C39.045532 44.240509,47.557495 53.986832,42.557419 63.159256C37.459366 72.511414,24.456573 70.354889,15.519684 75.222809C6.207077 80.295395,2.637238 91.400604,3.681091 102.164505C4.818039 113.888519,11.332367 124.853271,22.467911 127.832993C34.332352 131.007751,47.830933 122.976562,58.417068 129.989059C70.420853 137.940643,65.935150 155.385941,72.265884 167.551529C79.612076 181.668472,97.143875 185.063004,113.531403 183.660034" style="stroke:rgb(0.000000%,0.000000%,0.000000%); stroke-width: 0.498138;stroke-linecap: round;stroke-linejoin: round;stroke-miterlimit: 10.000000;fill: none;"></path>
  <path d="M113.531403 183.660034C131.728729 182.102127,145.300858 166.217514,144.000000 148.000000C142.942932 133.196381,131.344269 120.379837,133.306686 105.481003C134.432678 96.932388,139.922394 89.878448,144.000000 82.323853" style="stroke:rgb(0.000000%,0.000000%,0.000000%); stroke-width: 1.494400;stroke-linecap: round;stroke-linejoin: round;stroke-miterlimit: 10.000000;fill: none;"></path>
  <path d="M72.265884 167.551529C79.612076 181.668472,97.143875 185.063004,113.531403 183.660034" style="stroke:rgb(0.000000%,0.000000%,0.000000%); stroke-width: 1.494400;stroke-linecap: round;stroke-linejoin: round;stroke-miterlimit: 10.000000;fill: none;"></path>
  <path d="M146.988739 148.000000C146.988739 147.207306,146.673798 146.447159,146.113312 145.886688C145.552841 145.326202,144.792694 145.011261,144.000000 145.011261C143.207306 145.011261,142.447159 145.326202,141.886688 145.886688C141.326202 146.447159,141.011261 147.207306,141.011261 148.000000C141.011261 148.792694,141.326202 149.552841,141.886688 150.113312C142.447159 150.673798,143.207306 150.988739,144.000000 150.988739C144.792694 150.988739,145.552841 150.673798,146.113312 150.113312C146.673798 149.552841,146.988739 148.792694,146.988739 148.000000Z" style="fill: rgb(100.000000%,100.000000%,100.000000%);stroke: none;"></path>
  <path d="M136.077530 172.077362C141.582611 165.634277,144.650421 157.108749,144.000000 148.000000C143.471466 140.598190,140.307526 133.693146,137.521027 126.776199" style="stroke:rgb(0.000000%,0.000000%,0.000000%); stroke-width: 1.494400;stroke-linecap: round;stroke-linejoin: round;stroke-miterlimit: 10.000000;fill: none;"></path>
  <path d="M157.039871 81.141510C157.039871 80.348816,156.724930 79.588669,156.164444 79.028198C155.603973 78.467712,154.843826 78.152771,154.051132 78.152771C153.258438 78.152771,152.498291 78.467712,151.937820 79.028198C151.377335 79.588669,151.062393 80.348816,151.062393 81.141510C151.062393 81.934204,151.377335 82.694351,151.937820 83.254822C152.498291 83.815308,153.258438 84.130249,154.051132 84.130249C154.843826 84.130249,155.603973 83.815308,156.164444 83.254822C156.724930 82.694351,157.039871 81.934204,157.039871 81.141510Z" style="fill: rgb(100.000000%,100.000000%,100.000000%);stroke: none;"></path>
  <path d="M152.237213 78.753586C152.926712 79.436554,153.506149 80.303406,154.051132 81.141510C154.520844 81.863846,155.058350 82.587723,155.686722 83.110901" style="stroke:rgb(0.000000%,0.000000%,0.000000%); stroke-width: 0.498138;stroke-linecap: round;stroke-linejoin: round;stroke-miterlimit: 10.000000;fill: none;"></path>
  <path d="M185.197174 76.649429C185.197174 75.856735,184.882233 75.096588,184.321747 74.536118C183.761276 73.975632,183.001129 73.660690,182.208435 73.660690C181.415741 73.660690,180.655594 73.975632,180.095123 74.536118C179.534637 75.096588,179.219696 75.856735,179.219696 76.649429C179.219696 77.442123,179.534637 78.202271,180.095123 78.762741C180.655594 79.323227,181.415741 79.638168,182.208435 79.638168C183.001129 79.638168,183.761276 79.323227,184.321747 78.762741C184.882233 78.202271,185.197174 77.442123,185.197174 76.649429Z" style="fill: rgb(100.000000%,100.000000%,100.000000%);stroke: none;"></path>
  <path d="M173.811478 71.504379C176.883667 72.158676,179.906876 74.003799,182.208435 76.649429C186.851288 81.986374,188.228897 88.536758,187.683411 95.416107" style="stroke:rgb(0.000000%,0.000000%,0.000000%); stroke-width: 0.498138;stroke-linecap: round;stroke-linejoin: round;stroke-miterlimit: 10.000000;fill: none;"></path>
  <path d="M75.254623 167.551529C75.254623 166.758835,74.939682 165.998688,74.379196 165.438217C73.818726 164.877731,73.058578 164.562790,72.265884 164.562790C71.473190 164.562790,70.713043 164.877731,70.152573 165.438217C69.592087 165.998688,69.277145 166.758835,69.277145 167.551529C69.277145 168.344223,69.592087 169.104370,70.152573 169.664841C70.713043 170.225327,71.473190 170.540268,72.265884 170.540268C73.058578 170.540268,73.818726 170.225327,74.379196 169.664841C74.939682 169.104370,75.254623 168.344223,75.254623 167.551529Z" style="fill: rgb(100.000000%,100.000000%,100.000000%);stroke: none;"></path>
  <path d="M85.824783 150.771194C81.857147 156.882172,78.184204 163.468231,72.265884 167.551529C66.303345 171.665344,59.339340 172.839630,52.462448 171.756989" style="stroke:rgb(0.000000%,0.000000%,0.000000%); stroke-width: 0.498138;stroke-linecap: round;stroke-linejoin: round;stroke-miterlimit: 10.000000;fill: none;"></path>
  <path d="M18.508423 75.222809C18.508423 74.430115,18.193481 73.669968,17.632996 73.109497C17.072525 72.549011,16.312378 72.234070,15.519684 72.234070C14.726990 72.234070,13.966843 72.549011,13.406372 73.109497C12.845886 73.669968,12.530945 74.430115,12.530945 75.222809C12.530945 76.015503,12.845886 76.775650,13.406372 77.336121C13.966843 77.896606,14.726990 78.211548,15.519684 78.211548C16.312378 78.211548,17.072525 77.896606,17.632996 77.336121C18.193481 76.775650,18.508423 76.015503,18.508423 75.222809Z" style="fill: rgb(100.000000%,100.000000%,100.000000%);stroke: none;"></path>
  <path d="M27.861496 85.573471C23.471252 82.434021,18.599075 79.561676,15.519684 75.222809C12.663925 71.199036,11.549713 66.505692,11.783447 61.736206" style="stroke:rgb(0.000000%,0.000000%,0.000000%); stroke-width: 0.498138;stroke-linecap: round;stroke-linejoin: round;stroke-miterlimit: 10.000000;fill: none;"></path>
  <path d="M84.537445 14.516739C84.537445 13.724045,84.222504 12.963898,83.662018 12.403427C83.101547 11.842941,82.341400 11.528000,81.548706 11.528000C80.756012 11.528000,79.995865 11.842941,79.435394 12.403427C78.874908 12.963898,78.559967 13.724045,78.559967 14.516739C78.559967 15.309433,78.874908 16.069580,79.435394 16.630051C79.995865 17.190536,80.756012 17.505478,81.548706 17.505478C82.341400 17.505478,83.101547 17.190536,83.662018 16.630051C84.222504 16.069580,84.537445 15.309433,84.537445 14.516739Z" style="fill: rgb(100.000000%,100.000000%,100.000000%);stroke: none;"></path>
  <path d="M75.886002 29.308929C77.571564 24.352081,78.714630 18.835007,81.548706 14.516739C84.488159 10.037918,88.836472 7.130768,93.787308 5.623886" style="stroke:rgb(0.000000%,0.000000%,0.000000%); stroke-width: 0.498138;stroke-linecap: round;stroke-linejoin: round;stroke-miterlimit: 10.000000;fill: none;"></path>
  <path d="M146.988739 82.323853C146.988739 81.531158,146.673798 80.771011,146.113312 80.210541C145.552841 79.650055,144.792694 79.335114,144.000000 79.335114C143.207306 79.335114,142.447159 79.650055,141.886688 80.210541C141.326202 80.771011,141.011261 81.531158,141.011261 82.323853C141.011261 83.116547,141.326202 83.876694,141.886688 84.437164C142.447159 84.997650,143.207306 85.312592,144.000000 85.312592C144.792694 85.312592,145.552841 84.997650,146.113312 84.437164C146.673798 83.876694,146.988739 83.116547,146.988739 82.323853Z" style="fill: rgb(100.000000%,100.000000%,100.000000%);stroke: none;"></path>
  <path d="M136.026077 73.507431C138.537704 76.527344,141.425751 79.339554,144.000000 82.323853C144.937241 83.410370,145.976074 84.515091,147.103683 85.235382" style="stroke:rgb(0.000000%,0.000000%,0.000000%); stroke-width: 0.498138;stroke-linecap: round;stroke-linejoin: round;stroke-miterlimit: 10.000000;fill: none;"></path>
  <path d="M164.164032 80.157425C164.164032 79.364731,163.849091 78.604584,163.288605 78.044113C162.728134 77.483627,161.967987 77.168686,161.175293 77.168686C160.382599 77.168686,159.622452 77.483627,159.061981 78.044113C158.501495 78.604584,158.186554 79.364731,158.186554 80.157425C158.186554 80.950119,158.501495 81.710266,159.061981 82.270737C159.622452 82.831223,160.382599 83.146164,161.175293 83.146164C161.967987 83.146164,162.728134 82.831223,163.288605 82.270737C163.849091 81.710266,164.164032 80.950119,164.164032 80.157425Z" style="fill: rgb(100.000000%,100.000000%,100.000000%);stroke: none;"></path>
  <path d="M159.333878 78.199295C160.021240 78.709900,160.629272 79.437943,161.175293 80.157425C161.983948 81.222961,162.820206 82.293716,163.762970 83.228500" style="stroke:rgb(0.000000%,0.000000%,0.000000%); stroke-width: 0.498138;stroke-linecap: round;stroke-linejoin: round;stroke-miterlimit: 10.000000;fill: none;"></path>
  <path d="M136.451050 27.354767C136.451050 26.562073,136.136108 25.801926,135.575623 25.241455C135.015152 24.680969,134.255005 24.366028,133.462311 24.366028C132.669617 24.366028,131.909470 24.680969,131.348999 25.241455C130.788513 25.801926,130.473572 26.562073,130.473572 27.354767C130.473572 28.147461,130.788513 28.907608,131.348999 29.468079C131.909470 30.028564,132.669617 30.343506,133.462311 30.343506C134.255005 30.343506,135.015152 30.028564,135.575623 29.468079C136.136108 28.907608,136.451050 28.147461,136.451050 27.354767Z" style="fill: rgb(100.000000%,100.000000%,100.000000%);stroke: none;"></path>
  <path d="M152.531311 30.776123C146.615601 27.404114,140.238190 25.727005,133.462311 27.354767C127.777328 28.720474,122.692093 32.545914,117.563812 35.557739" style="stroke:rgb(0.000000%,0.000000%,0.000000%); stroke-width: 0.498138;stroke-linecap: round;stroke-linejoin: round;stroke-miterlimit: 10.000000;fill: none;"></path>
  <path d="M41.833542 34.257156C41.833542 33.464462,41.518600 32.704315,40.958115 32.143845C40.397644 31.583359,39.637497 31.268417,38.844803 31.268417C38.052109 31.268417,37.291962 31.583359,36.731491 32.143845C36.171005 32.704315,35.856064 33.464462,35.856064 34.257156C35.856064 35.049850,36.171005 35.809998,36.731491 36.370468C37.291962 36.930954,38.052109 37.245895,38.844803 37.245895C39.637497 37.245895,40.397644 36.930954,40.958115 36.370468C41.518600 35.809998,41.833542 35.049850,41.833542 34.257156Z" style="fill: rgb(100.000000%,100.000000%,100.000000%);stroke: none;"></path>
  <path d="M43.201187 21.381119C40.413345 25.087296,38.748474 29.466385,38.844803 34.257156C38.945175 39.248840,41.123352 44.181259,42.651428 49.012314" style="stroke:rgb(0.000000%,0.000000%,0.000000%); stroke-width: 0.498138;stroke-linecap: round;stroke-linejoin: round;stroke-miterlimit: 10.000000;fill: none;"></path>
  <path d="M25.456650 127.832993C25.456650 127.040298,25.141708 126.280151,24.581223 125.719681C24.020752 125.159195,23.260605 124.844254,22.467911 124.844254C21.675217 124.844254,20.915070 125.159195,20.354599 125.719681C19.794113 126.280151,19.479172 127.040298,19.479172 127.832993C19.479172 128.625687,19.794113 129.385834,20.354599 129.946304C20.915070 130.506790,21.675217 130.821732,22.467911 130.821732C23.260605 130.821732,24.020752 130.506790,24.581223 129.946304C25.141708 129.385834,25.456650 128.625687,25.456650 127.832993Z" style="fill: rgb(100.000000%,100.000000%,100.000000%);stroke: none;"></path>
  <path d="M9.325043 118.277878C12.487686 122.857025,16.900146 126.343140,22.467911 127.832993C28.400131 129.420380,34.740891 128.206268,40.921860 127.471878" style="stroke:rgb(0.000000%,0.000000%,0.000000%); stroke-width: 0.498138;stroke-linecap: round;stroke-linejoin: round;stroke-miterlimit: 10.000000;fill: none;"></path>
  <path d="M133.306686 105.481003C134.207489 98.642090,137.901077 92.759766,141.430222 86.812424" style="stroke:rgb(0.000000%,0.000000%,0.000000%); stroke-width: 0.498138;stroke-linecap: round;stroke-linejoin: round;stroke-miterlimit: 10.000000;fill: none;"></path>
  <path d="M140.730820 91.763351C140.945038 90.114655,141.192780 88.463440,141.430222 86.812424C140.094849 87.811951,138.752075 88.804321,137.434769 89.818649Z" style="stroke:rgb(0.000000%,0.000000%,0.000000%); stroke-width: 0.498138;fill: rgb(0.000000%,0.000000%,0.000000%);"></path>
  <path d="M133.306686 105.481003C134.207489 98.642090,137.901077 92.759766,141.430222 86.812424" style="stroke:rgb(0.000000%,0.000000%,0.000000%); stroke-width: 0.498138;stroke-linecap: round;stroke-linejoin: round;stroke-miterlimit: 10.000000;fill: none;"></path>
  <path d="M141.001480 89.781616C141.141785 88.792206,141.287857 87.802277,141.430222 86.812424C140.629593 87.411682,139.826324 88.008362,139.027481 88.608765Z" style="stroke:rgb(0.000000%,0.000000%,0.000000%); stroke-width: 0.498138;fill: rgb(0.000000%,0.000000%,0.000000%);"></path>
  <path d="M157.867554 83.876007C159.284500 83.739090,160.137177 82.543304,160.752869 81.188889" style="stroke:rgb(0.000000%,0.000000%,0.000000%); stroke-width: 0.498138;stroke-linecap: round;stroke-linejoin: round;stroke-miterlimit: 10.000000;fill: none;"></path>
  <path d="M159.945786 84.078293C160.530579 83.327377,160.716049 82.272964,160.752869 81.188889C159.960251 81.929398,159.083527 82.543839,158.139023 82.661270Z" style="stroke:rgb(0.000000%,0.000000%,0.000000%); stroke-width: 0.498138;fill: rgb(0.000000%,0.000000%,0.000000%);"></path>
  <path d="M165.120621 73.504288C169.116638 70.115997,174.709259 70.775467,179.143280 73.883926" style="stroke:rgb(0.000000%,0.000000%,0.000000%); stroke-width: 0.498138;stroke-linecap: round;stroke-linejoin: round;stroke-miterlimit: 10.000000;fill: none;"></path>
  <path d="M176.166611 73.510925C177.149521 73.537598,178.148773 73.662872,179.143280 73.883926C178.596375 73.024384,177.978409 72.229218,177.302261 71.515320Z" style="stroke:rgb(0.000000%,0.000000%,0.000000%); stroke-width: 0.498138;fill: rgb(0.000000%,0.000000%,0.000000%);"></path>
  <path d="M33.181747 162.420868C25.054306 155.307007,19.820404 145.220352,20.654785 135.245163" style="stroke:rgb(0.000000%,0.000000%,0.000000%); stroke-width: 0.498138;stroke-linecap: round;stroke-linejoin: round;stroke-miterlimit: 10.000000;fill: none;"></path>
  <path d="M21.736649 138.043030C21.322067 137.133789,20.960068 136.200623,20.654785 135.245163C20.195023 136.136627,19.791122 137.052460,19.441330 137.988525Z" style="stroke:rgb(0.000000%,0.000000%,0.000000%); stroke-width: 0.498138;fill: rgb(0.000000%,0.000000%,0.000000%);"></path>
  <path d="M16.134766 47.792755C20.047897 41.113861,26.185593 35.806534,33.323273 34.472260" style="stroke:rgb(0.000000%,0.000000%,0.000000%); stroke-width: 0.498138;stroke-linecap: round;stroke-linejoin: round;stroke-miterlimit: 10.000000;fill: none;"></path>
  <path d="M30.941650 36.296387C31.688614 35.630615,32.482605 35.020050,33.323273 34.472260C32.341492 34.265137,31.348312 34.135437,30.349365 34.078003Z" style="stroke:rgb(0.000000%,0.000000%,0.000000%); stroke-width: 0.498138;fill: rgb(0.000000%,0.000000%,0.000000%);"></path>
  <path d="M66.968246 40.739731C74.974838 37.416000,75.874741 28.154846,78.816574 20.161423" style="stroke:rgb(0.000000%,0.000000%,0.000000%); stroke-width: 0.498138;stroke-linecap: round;stroke-linejoin: round;stroke-miterlimit: 10.000000;fill: none;"></path>
  <path d="M79.015305 23.154663C78.928619 22.154953,78.856415 21.155533,78.816574 20.161423C78.141785 20.892532,77.486145 21.650253,76.840530 22.418457Z" style="stroke:rgb(0.000000%,0.000000%,0.000000%); stroke-width: 0.498138;fill: rgb(0.000000%,0.000000%,0.000000%);"></path>
  <path d="M150.740005 85.840408C152.266785 85.307419,153.057266 83.861099,153.642456 82.310928" style="stroke:rgb(0.000000%,0.000000%,0.000000%); stroke-width: 0.498138;stroke-linecap: round;stroke-linejoin: round;stroke-miterlimit: 10.000000;fill: none;"></path>
  <path d="M153.267303 85.287354C153.617538 84.393250,153.675629 83.355560,153.642456 82.310928C152.927246 83.073029,152.152390 83.765717,151.272491 84.150269Z" style="stroke:rgb(0.000000%,0.000000%,0.000000%); stroke-width: 0.498138;fill: rgb(0.000000%,0.000000%,0.000000%);"></path>
  <path d="M157.016357 77.545853C158.397827 77.305344,159.531754 78.200119,160.489197 79.304413" style="stroke:rgb(0.000000%,0.000000%,0.000000%); stroke-width: 0.498138;stroke-linecap: round;stroke-linejoin: round;stroke-miterlimit: 10.000000;fill: none;"></path>
  <path d="M157.563629 78.640244C158.505997 78.478653,159.520340 78.819809,160.489197 79.304413C160.146805 78.276657,159.670792 77.318161,158.890198 76.766068Z" style="stroke:rgb(0.000000%,0.000000%,0.000000%); stroke-width: 0.498138;fill: rgb(0.000000%,0.000000%,0.000000%);"></path>
  <path d="M101.407089 38.878952C92.894821 36.133942,90.441162 26.735062,85.681458 19.448532" style="stroke:rgb(0.000000%,0.000000%,0.000000%); stroke-width: 0.498138;stroke-linecap: round;stroke-linejoin: round;stroke-miterlimit: 10.000000;fill: none;"></path>
  <path d="M88.098679 21.225296C87.305832 20.607300,86.502289 20.009430,85.681458 19.448532C85.865234 20.425568,86.010666 21.416534,86.134262 22.414139Z" style="stroke:rgb(0.000000%,0.000000%,0.000000%); stroke-width: 0.498138;fill: rgb(0.000000%,0.000000%,0.000000%);"></path>
  <path d="M54.295395 12.542572C47.262512 15.901154,41.470520 21.651169,39.533722 28.722626" style="stroke:rgb(0.000000%,0.000000%,0.000000%); stroke-width: 0.498138;stroke-linecap: round;stroke-linejoin: round;stroke-miterlimit: 10.000000;fill: none;"></path>
  <path d="M39.380707 25.726486C39.358948 26.726562,39.408234 27.726990,39.533722 28.722626C40.149017 27.929871,40.821594 27.187622,41.544159 26.495865Z" style="stroke:rgb(0.000000%,0.000000%,0.000000%); stroke-width: 0.498138;fill: rgb(0.000000%,0.000000%,0.000000%);"></path>
  <path d="M3.681091 102.164505C4.590652 111.543747,8.941772 120.437073,16.347260 125.144821" style="stroke:rgb(0.000000%,0.000000%,0.000000%); stroke-width: 0.498138;stroke-linecap: round;stroke-linejoin: round;stroke-miterlimit: 10.000000;fill: none;"></path>
  <path d="M13.433075 124.432449C14.386749 124.732483,15.359039 124.971558,16.347260 125.144821C15.770996 124.323517,15.252563 123.466949,14.790375 122.580429Z" style="stroke:rgb(0.000000%,0.000000%,0.000000%); stroke-width: 0.498138;fill: rgb(0.000000%,0.000000%,0.000000%);"></path>
  <path d="M110.540756 186.370239L116.522049 186.370239L116.522049 178.949844L110.540756 178.949844Z" style="fill: rgb(100.000000%,100.000000%,100.000000%);stroke: none;"></path>
  <path d="M110.540756 188.370239L116.522049 188.370239L116.522049 180.949844L110.540756 180.949844Z" style="fill: rgb(100.000000%,100.000000%,100.000000%);stroke: none;"></path>
  <g transform="translate(111.040756 186.870239)" style="fill: rgb(0.000000%,0.000000%,0.000000%);">
    <use xlink:href="#GLYPHcmr10_49"></use>
  </g>
  <path d="M146.772247 80.179153L152.753540 80.179153L152.753540 72.758759L146.772247 72.758759Z" style="fill: rgb(100.000000%,100.000000%,100.000000%);stroke: none;"></path>
  <path d="M146.772247 82.179153L152.753540 82.179153L152.753540 74.758759L146.772247 74.758759Z" style="fill: rgb(100.000000%,100.000000%,100.000000%);stroke: none;"></path>
  <g transform="translate(147.272247 80.679153)" style="fill: rgb(0.000000%,0.000000%,0.000000%);">
    <use xlink:href="#GLYPHcmr10_50"></use>
  </g>
  <path d="M178.629211 118.866791L184.610504 118.866791L184.610504 111.446396L178.629211 111.446396Z" style="fill: rgb(100.000000%,100.000000%,100.000000%);stroke: none;"></path>
  <path d="M178.629211 120.866791L184.610504 120.866791L184.610504 113.446396L178.629211 113.446396Z" style="fill: rgb(100.000000%,100.000000%,100.000000%);stroke: none;"></path>
  <g transform="translate(179.129211 119.366791)" style="fill: rgb(0.000000%,0.000000%,0.000000%);">
    <use xlink:href="#GLYPHcmr10_51"></use>
  </g>
  <path d="M98.161194 139.551453L104.142487 139.551453L104.142487 132.131058L98.161194 132.131058Z" style="fill: rgb(100.000000%,100.000000%,100.000000%);stroke: none;"></path>
  <path d="M98.161194 141.551453L104.142487 141.551453L104.142487 134.131058L98.161194 134.131058Z" style="fill: rgb(100.000000%,100.000000%,100.000000%);stroke: none;"></path>
  <g transform="translate(98.661194 140.051453)" style="fill: rgb(0.000000%,0.000000%,0.000000%);">
    <use xlink:href="#GLYPHcmr10_52"></use>
  </g>
  <path d="M34.321136 100.236984L40.302429 100.236984L40.302429 92.816589L34.321136 92.816589Z" style="fill: rgb(100.000000%,100.000000%,100.000000%);stroke: none;"></path>
  <path d="M34.321136 102.236984L40.302429 102.236984L40.302429 94.816589L34.321136 94.816589Z" style="fill: rgb(100.000000%,100.000000%,100.000000%);stroke: none;"></path>
  <g transform="translate(34.821136 100.736984)" style="fill: rgb(0.000000%,0.000000%,0.000000%);">
    <use xlink:href="#GLYPHcmr10_53"></use>
  </g>
  <path d="M106.650406 7.842896L112.631699 7.842896L112.631699 0.422501L106.650406 0.422501Z" style="fill: rgb(100.000000%,100.000000%,100.000000%);stroke: none;"></path>
  <path d="M106.650406 9.842896L112.631699 9.842896L112.631699 2.422501L106.650406 2.422501Z" style="fill: rgb(100.000000%,100.000000%,100.000000%);stroke: none;"></path>
  <g transform="translate(107.150406 8.342896)" style="fill: rgb(0.000000%,0.000000%,0.000000%);">
    <use xlink:href="#GLYPHcmr10_54"></use>
  </g>
  <path d="M127.319931 66.154999L133.301224 66.154999L133.301224 58.734604L127.319931 58.734604Z" style="fill: rgb(100.000000%,100.000000%,100.000000%);stroke: none;"></path>
  <path d="M127.319931 68.154999L133.301224 68.154999L133.301224 60.734604L127.319931 60.734604Z" style="fill: rgb(100.000000%,100.000000%,100.000000%);stroke: none;"></path>
  <g transform="translate(127.819931 66.654999)" style="fill: rgb(0.000000%,0.000000%,0.000000%);">
    <use xlink:href="#GLYPHcmr10_55"></use>
  </g>
  <path d="M163.998932 88.193954L169.980225 88.193954L169.980225 80.773560L163.998932 80.773560Z" style="fill: rgb(100.000000%,100.000000%,100.000000%);stroke: none;"></path>
  <path d="M163.998932 90.193954L169.980225 90.193954L169.980225 82.773560L163.998932 82.773560Z" style="fill: rgb(100.000000%,100.000000%,100.000000%);stroke: none;"></path>
  <g transform="translate(164.498932 88.693954)" style="fill: rgb(0.000000%,0.000000%,0.000000%);">
    <use xlink:href="#GLYPHcmr10_56"></use>
  </g>
  <path d="M165.839401 47.077072L171.820694 47.077072L171.820694 39.656677L165.839401 39.656677Z" style="fill: rgb(100.000000%,100.000000%,100.000000%);stroke: none;"></path>
  <path d="M165.839401 49.077072L171.820694 49.077072L171.820694 41.656677L165.839401 41.656677Z" style="fill: rgb(100.000000%,100.000000%,100.000000%);stroke: none;"></path>
  <g transform="translate(166.339401 47.577072)" style="fill: rgb(0.000000%,0.000000%,0.000000%);">
    <use xlink:href="#GLYPHcmr10_57"></use>
  </g>
  <path d="M37.076065 65.869461L48.038773 65.869461L48.038773 58.449066L37.076065 58.449066Z" style="fill: rgb(100.000000%,100.000000%,100.000000%);stroke: none;"></path>
  <path d="M37.076065 67.869461L48.038773 67.869461L48.038773 60.449066L37.076065 60.449066Z" style="fill: rgb(100.000000%,100.000000%,100.000000%);stroke: none;"></path>
  <g transform="translate(37.576065 66.369461)" style="fill: rgb(0.000000%,0.000000%,0.000000%);">
    <use xlink:href="#GLYPHcmr10_49"></use>
    <use xlink:href="#GLYPHcmr10_48" x="5.000095"></use>
  </g>
  <path d="M52.935715 132.699265L63.898422 132.699265L63.898422 125.278870L52.935715 125.278870Z" style="fill: rgb(100.000000%,100.000000%,100.000000%);stroke: none;"></path>
  <path d="M52.935715 134.699265L63.898422 134.699265L63.898422 127.278870L52.935715 127.278870Z" style="fill: rgb(100.000000%,100.000000%,100.000000%);stroke: none;"></path>
  <g transform="translate(53.435715 133.199265)" style="fill: rgb(0.000000%,0.000000%,0.000000%);">
    <use xlink:href="#GLYPHcmr10_49"></use>
    <use xlink:href="#GLYPHcmr10_49" x="5.000095"></use>
  </g>
</svg>
