<?xml version="1.0"?>
<!-- Created by MetaPost 1.999 on 2021.07.06:0014 -->
<svg version="1.1" xmlns="http://www.w3.org/2000/svg" xmlns:xlink="http://www.w3.org/1999/xlink" width="197.611633" height="198.544464" viewBox="0 0 197.611633 198.544464">
<!-- Original BoundingBox: -69.132385 -108.064392 128.479248 90.480072 -->
  <defs>
    <g transform="scale(0.009963,0.009963)" id="GLYPHcmr10_48">
      <path style="fill-rule: evenodd;" d="M460.000000 -320.000000C460.000000 -400.000000,455.000000 -480.000000,420.000000 -554.000000C374.000000 -650.000000,292.000000 -666.000000,250.000000 -666.000000C190.000000 -666.000000,117.000000 -640.000000,76.000000 -547.000000C44.000000 -478.000000,39.000000 -400.000000,39.000000 -320.000000C39.000000 -245.000000,43.000000 -155.000000,84.000000 -79.000000C127.000000 2.000000,200.000000 22.000000,249.000000 22.000000C303.000000 22.000000,379.000000 1.000000,423.000000 -94.000000C455.000000 -163.000000,460.000000 -241.000000,460.000000 -320.000000M249.000000 -0.000000C210.000000 -0.000000,151.000000 -25.000000,133.000000 -121.000000C122.000000 -181.000000,122.000000 -273.000000,122.000000 -332.000000C122.000000 -396.000000,122.000000 -462.000000,130.000000 -516.000000C149.000000 -635.000000,224.000000 -644.000000,249.000000 -644.000000C282.000000 -644.000000,348.000000 -626.000000,367.000000 -527.000000C377.000000 -471.000000,377.000000 -395.000000,377.000000 -332.000000C377.000000 -257.000000,377.000000 -189.000000,366.000000 -125.000000C351.000000 -30.000000,294.000000 -0.000000,249.000000 -0.000000"></path>
    </g>
    <g transform="scale(0.009963,0.009963)" id="GLYPHcmr10_49">
      <path style="fill-rule: evenodd;" d="M294.000000 -640.000000C294.000000 -664.000000,294.000000 -666.000000,271.000000 -666.000000C209.000000 -602.000000,121.000000 -602.000000,89.000000 -602.000000L89.000000 -571.000000C109.000000 -571.000000,168.000000 -571.000000,220.000000 -597.000000L220.000000 -79.000000C220.000000 -43.000000,217.000000 -31.000000,127.000000 -31.000000L95.000000 -31.000000L95.000000 -0.000000L257.000000 -0.000000L130.000000 -3.000000L217.000000 -3.000000L257.000000 -3.000000L297.000000 -3.000000L384.000000 -3.000000L419.000000 -0.000000L419.000000 -31.000000L387.000000 -31.000000C297.000000 -31.000000,294.000000 -42.000000,294.000000 -79.000000"></path>
    </g>
    <g transform="scale(0.009963,0.009963)" id="GLYPHcmr10_50">
      <path style="fill-rule: evenodd;" d="M127.000000 -77.000000L233.000000 -180.000000C389.000000 -318.000000,449.000000 -372.000000,449.000000 -472.000000C449.000000 -586.000000,359.000000 -666.000000,237.000000 -666.000000C124.000000 -666.000000,50.000000 -574.000000,50.000000 -485.000000C50.000000 -429.000000,100.000000 -429.000000,103.000000 -429.000000C120.000000 -429.000000,155.000000 -441.000000,155.000000 -482.000000C155.000000 -508.000000,137.000000 -534.000000,102.000000 -534.000000C94.000000 -534.000000,92.000000 -534.000000,89.000000 -533.000000C112.000000 -598.000000,166.000000 -635.000000,224.000000 -635.000000C315.000000 -635.000000,358.000000 -554.000000,358.000000 -472.000000C358.000000 -392.000000,308.000000 -313.000000,253.000000 -251.000000L61.000000 -37.000000C50.000000 -26.000000,50.000000 -24.000000,50.000000 -0.000000L421.000000 -0.000000L449.000000 -174.000000L424.000000 -174.000000C419.000000 -144.000000,412.000000 -100.000000,402.000000 -85.000000C395.000000 -77.000000,329.000000 -77.000000,307.000000 -77.000000"></path>
    </g>
    <g transform="scale(0.009963,0.009963)" id="GLYPHcmr10_51">
      <path style="fill-rule: evenodd;" d="M290.000000 -352.000000C372.000000 -379.000000,430.000000 -449.000000,430.000000 -528.000000C430.000000 -610.000000,342.000000 -666.000000,246.000000 -666.000000C145.000000 -666.000000,69.000000 -606.000000,69.000000 -530.000000C69.000000 -497.000000,91.000000 -478.000000,120.000000 -478.000000C151.000000 -478.000000,171.000000 -500.000000,171.000000 -529.000000C171.000000 -579.000000,124.000000 -579.000000,109.000000 -579.000000C140.000000 -628.000000,206.000000 -641.000000,242.000000 -641.000000C283.000000 -641.000000,338.000000 -619.000000,338.000000 -529.000000C338.000000 -517.000000,336.000000 -459.000000,310.000000 -415.000000C280.000000 -367.000000,246.000000 -364.000000,221.000000 -363.000000C213.000000 -362.000000,189.000000 -360.000000,182.000000 -360.000000C174.000000 -359.000000,167.000000 -358.000000,167.000000 -348.000000C167.000000 -337.000000,174.000000 -337.000000,191.000000 -337.000000L235.000000 -337.000000C317.000000 -337.000000,354.000000 -269.000000,354.000000 -171.000000C354.000000 -35.000000,285.000000 -6.000000,241.000000 -6.000000C198.000000 -6.000000,123.000000 -23.000000,88.000000 -82.000000C123.000000 -77.000000,154.000000 -99.000000,154.000000 -137.000000C154.000000 -173.000000,127.000000 -193.000000,98.000000 -193.000000C74.000000 -193.000000,42.000000 -179.000000,42.000000 -135.000000C42.000000 -44.000000,135.000000 22.000000,244.000000 22.000000C366.000000 22.000000,457.000000 -69.000000,457.000000 -171.000000C457.000000 -253.000000,394.000000 -331.000000,290.000000 -352.000000"></path>
    </g>
    <g transform="scale(0.009963,0.009963)" id="GLYPHcmr10_52">
      <path style="fill-rule: evenodd;" d="M294.000000 -165.000000L294.000000 -78.000000C294.000000 -42.000000,292.000000 -31.000000,218.000000 -31.000000L197.000000 -31.000000L197.000000 -0.000000L332.000000 -0.000000L238.000000 -3.000000L290.000000 -3.000000L332.000000 -3.000000L374.000000 -3.000000L427.000000 -3.000000L468.000000 -0.000000L468.000000 -31.000000L447.000000 -31.000000C373.000000 -31.000000,371.000000 -42.000000,371.000000 -78.000000L371.000000 -165.000000L471.000000 -165.000000L471.000000 -196.000000L371.000000 -196.000000L371.000000 -651.000000C371.000000 -671.000000,371.000000 -677.000000,355.000000 -677.000000C346.000000 -677.000000,343.000000 -677.000000,335.000000 -665.000000L28.000000 -196.000000L28.000000 -165.000000M300.000000 -196.000000L56.000000 -196.000000L300.000000 -569.000000"></path>
    </g>
    <g transform="scale(0.009963,0.009963)" id="GLYPHcmr10_53">
      <path style="fill-rule: evenodd;" d="M449.000000 -201.000000C449.000000 -320.000000,367.000000 -420.000000,259.000000 -420.000000C211.000000 -420.000000,168.000000 -404.000000,132.000000 -369.000000L132.000000 -564.000000C152.000000 -558.000000,185.000000 -551.000000,217.000000 -551.000000C340.000000 -551.000000,410.000000 -642.000000,410.000000 -655.000000C410.000000 -661.000000,407.000000 -666.000000,400.000000 -666.000000C399.000000 -666.000000,397.000000 -666.000000,392.000000 -663.000000C372.000000 -654.000000,323.000000 -634.000000,256.000000 -634.000000C216.000000 -634.000000,170.000000 -641.000000,123.000000 -662.000000C115.000000 -665.000000,113.000000 -665.000000,111.000000 -665.000000C101.000000 -665.000000,101.000000 -657.000000,101.000000 -641.000000L101.000000 -345.000000C101.000000 -327.000000,101.000000 -319.000000,115.000000 -319.000000C122.000000 -319.000000,124.000000 -322.000000,128.000000 -328.000000C139.000000 -344.000000,176.000000 -398.000000,257.000000 -398.000000C309.000000 -398.000000,334.000000 -352.000000,342.000000 -334.000000C358.000000 -297.000000,360.000000 -258.000000,360.000000 -208.000000C360.000000 -173.000000,360.000000 -113.000000,336.000000 -71.000000C312.000000 -32.000000,275.000000 -6.000000,229.000000 -6.000000C156.000000 -6.000000,99.000000 -59.000000,82.000000 -118.000000C85.000000 -117.000000,88.000000 -116.000000,99.000000 -116.000000C132.000000 -116.000000,149.000000 -141.000000,149.000000 -165.000000C149.000000 -189.000000,132.000000 -214.000000,99.000000 -214.000000C85.000000 -214.000000,50.000000 -207.000000,50.000000 -161.000000C50.000000 -75.000000,119.000000 22.000000,231.000000 22.000000C347.000000 22.000000,449.000000 -74.000000,449.000000 -201.000000"></path>
    </g>
    <g transform="scale(0.009963,0.009963)" id="GLYPHcmr10_54">
      <path style="fill-rule: evenodd;" d="M132.000000 -328.000000L132.000000 -352.000000C132.000000 -605.000000,256.000000 -641.000000,307.000000 -641.000000C331.000000 -641.000000,373.000000 -635.000000,395.000000 -601.000000C380.000000 -601.000000,340.000000 -601.000000,340.000000 -556.000000C340.000000 -525.000000,364.000000 -510.000000,386.000000 -510.000000C402.000000 -510.000000,432.000000 -519.000000,432.000000 -558.000000C432.000000 -618.000000,388.000000 -666.000000,305.000000 -666.000000C177.000000 -666.000000,42.000000 -537.000000,42.000000 -316.000000C42.000000 -49.000000,158.000000 22.000000,251.000000 22.000000C362.000000 22.000000,457.000000 -72.000000,457.000000 -204.000000C457.000000 -331.000000,368.000000 -427.000000,257.000000 -427.000000C189.000000 -427.000000,152.000000 -376.000000,132.000000 -328.000000M251.000000 -6.000000C188.000000 -6.000000,158.000000 -66.000000,152.000000 -81.000000C134.000000 -128.000000,134.000000 -208.000000,134.000000 -226.000000C134.000000 -304.000000,166.000000 -404.000000,256.000000 -404.000000C272.000000 -404.000000,318.000000 -404.000000,349.000000 -342.000000C367.000000 -305.000000,367.000000 -254.000000,367.000000 -205.000000C367.000000 -157.000000,367.000000 -107.000000,350.000000 -71.000000C320.000000 -11.000000,274.000000 -6.000000,251.000000 -6.000000"></path>
    </g>
    <g transform="scale(0.009963,0.009963)" id="GLYPHcmr10_55">
      <path style="fill-rule: evenodd;" d="M476.000000 -609.000000C485.000000 -621.000000,485.000000 -623.000000,485.000000 -644.000000L242.000000 -644.000000C120.000000 -644.000000,118.000000 -657.000000,114.000000 -676.000000L89.000000 -676.000000L56.000000 -470.000000L81.000000 -470.000000C84.000000 -486.000000,93.000000 -549.000000,106.000000 -561.000000C113.000000 -567.000000,191.000000 -567.000000,204.000000 -567.000000L411.000000 -567.000000C400.000000 -551.000000,321.000000 -442.000000,299.000000 -409.000000C209.000000 -274.000000,176.000000 -135.000000,176.000000 -33.000000C176.000000 -23.000000,176.000000 22.000000,222.000000 22.000000C268.000000 22.000000,268.000000 -23.000000,268.000000 -33.000000L268.000000 -84.000000C268.000000 -139.000000,271.000000 -194.000000,279.000000 -248.000000C283.000000 -271.000000,297.000000 -357.000000,341.000000 -419.000000"></path>
    </g>
    <g transform="scale(0.009963,0.009963)" id="GLYPHcmr10_56">
      <path style="fill-rule: evenodd;" d="M163.000000 -457.000000C117.000000 -487.000000,113.000000 -521.000000,113.000000 -538.000000C113.000000 -599.000000,178.000000 -641.000000,249.000000 -641.000000C322.000000 -641.000000,386.000000 -589.000000,386.000000 -517.000000C386.000000 -460.000000,347.000000 -412.000000,287.000000 -377.000000M309.000000 -362.000000C381.000000 -399.000000,430.000000 -451.000000,430.000000 -517.000000C430.000000 -609.000000,341.000000 -666.000000,250.000000 -666.000000C150.000000 -666.000000,69.000000 -592.000000,69.000000 -499.000000C69.000000 -481.000000,71.000000 -436.000000,113.000000 -389.000000C124.000000 -377.000000,161.000000 -352.000000,186.000000 -335.000000C128.000000 -306.000000,42.000000 -250.000000,42.000000 -151.000000C42.000000 -45.000000,144.000000 22.000000,249.000000 22.000000C362.000000 22.000000,457.000000 -61.000000,457.000000 -168.000000C457.000000 -204.000000,446.000000 -249.000000,408.000000 -291.000000C389.000000 -312.000000,373.000000 -322.000000,309.000000 -362.000000M209.000000 -320.000000L332.000000 -242.000000C360.000000 -223.000000,407.000000 -193.000000,407.000000 -132.000000C407.000000 -58.000000,332.000000 -6.000000,250.000000 -6.000000C164.000000 -6.000000,92.000000 -68.000000,92.000000 -151.000000C92.000000 -209.000000,124.000000 -273.000000,209.000000 -320.000000"></path>
    </g>
    <g transform="scale(0.009963,0.009963)" id="GLYPHcmr10_57">
      <path style="fill-rule: evenodd;" d="M367.000000 -318.000000L367.000000 -286.000000C367.000000 -52.000000,263.000000 -6.000000,205.000000 -6.000000C188.000000 -6.000000,134.000000 -8.000000,107.000000 -42.000000C151.000000 -42.000000,159.000000 -71.000000,159.000000 -88.000000C159.000000 -119.000000,135.000000 -134.000000,113.000000 -134.000000C97.000000 -134.000000,67.000000 -125.000000,67.000000 -86.000000C67.000000 -19.000000,121.000000 22.000000,206.000000 22.000000C335.000000 22.000000,457.000000 -114.000000,457.000000 -329.000000C457.000000 -598.000000,342.000000 -666.000000,253.000000 -666.000000C198.000000 -666.000000,149.000000 -648.000000,106.000000 -603.000000C65.000000 -558.000000,42.000000 -516.000000,42.000000 -441.000000C42.000000 -316.000000,130.000000 -218.000000,242.000000 -218.000000C303.000000 -218.000000,344.000000 -260.000000,367.000000 -318.000000M243.000000 -241.000000C227.000000 -241.000000,181.000000 -241.000000,150.000000 -304.000000C132.000000 -341.000000,132.000000 -391.000000,132.000000 -440.000000C132.000000 -494.000000,132.000000 -541.000000,153.000000 -578.000000C180.000000 -628.000000,218.000000 -641.000000,253.000000 -641.000000C299.000000 -641.000000,332.000000 -607.000000,349.000000 -562.000000C361.000000 -530.000000,365.000000 -467.000000,365.000000 -421.000000C365.000000 -338.000000,331.000000 -241.000000,243.000000 -241.000000"></path>
    </g>
  </defs>
  <path d="M72.515442 107.531845C72.515442 106.739151,72.200500 105.979004,71.640015 105.418533C71.079544 104.858047,70.319397 104.543106,69.526703 104.543106C68.734009 104.543106,67.973862 104.858047,67.413391 105.418533C66.852905 105.979004,66.537964 106.739151,66.537964 107.531845C66.537964 108.324539,66.852905 109.084686,67.413391 109.645157C67.973862 110.205643,68.734009 110.520584,69.526703 110.520584C70.319397 110.520584,71.079544 110.205643,71.640015 109.645157C72.200500 109.084686,72.515442 108.324539,72.515442 107.531845Z" style="fill: rgb(100.000000%,100.000000%,100.000000%);stroke: none;"></path>
  <path d="M72.984985 116.289154C72.984985 115.496460,72.670044 114.736313,72.109558 114.175842C71.549088 113.615356,70.788940 113.300415,69.996246 113.300415C69.203552 113.300415,68.443405 113.615356,67.882935 114.175842C67.322449 114.736313,67.007507 115.496460,67.007507 116.289154C67.007507 117.081848,67.322449 117.841995,67.882935 118.402466C68.443405 118.962952,69.203552 119.277893,69.996246 119.277893C70.788940 119.277893,71.549088 118.962952,72.109558 118.402466C72.670044 117.841995,72.984985 117.081848,72.984985 116.289154Z" style="fill: rgb(100.000000%,100.000000%,100.000000%);stroke: none;"></path>
  <path d="M71.884979 85.324966C71.884979 84.532272,71.570038 83.772125,71.009552 83.211655C70.449081 82.651169,69.688934 82.336227,68.896240 82.336227C68.103546 82.336227,67.343399 82.651169,66.782928 83.211655C66.222443 83.772125,65.907501 84.532272,65.907501 85.324966C65.907501 86.117661,66.222443 86.877808,66.782928 87.438278C67.343399 87.998764,68.103546 88.313705,68.896240 88.313705C69.688934 88.313705,70.449081 87.998764,71.009552 87.438278C71.570038 86.877808,71.884979 86.117661,71.884979 85.324966Z" style="fill: rgb(100.000000%,100.000000%,100.000000%);stroke: none;"></path>
  <path d="M72.183319 98.767715C72.183319 97.975021,71.868378 97.214874,71.307892 96.654404C70.747421 96.093918,69.987274 95.778976,69.194580 95.778976C68.401886 95.778976,67.641739 96.093918,67.081268 96.654404C66.520782 97.214874,66.205841 97.975021,66.205841 98.767715C66.205841 99.560410,66.520782 100.320557,67.081268 100.881027C67.641739 101.441513,68.401886 101.756454,69.194580 101.756454C69.987274 101.756454,70.747421 101.441513,71.307892 100.881027C71.868378 100.320557,72.183319 99.560410,72.183319 98.767715Z" style="fill: rgb(100.000000%,100.000000%,100.000000%);stroke: none;"></path>
  <path d="M71.826599 72.093887C71.826599 71.301193,71.511658 70.541046,70.951172 69.980576C70.390701 69.420090,69.630554 69.105148,68.837860 69.105148C68.045166 69.105148,67.285019 69.420090,66.724548 69.980576C66.164062 70.541046,65.849121 71.301193,65.849121 72.093887C65.849121 72.886581,66.164062 73.646729,66.724548 74.207199C67.285019 74.767685,68.045166 75.082626,68.837860 75.082626C69.630554 75.082626,70.390701 74.767685,70.951172 74.207199C71.511658 73.646729,71.826599 72.886581,71.826599 72.093887Z" style="fill: rgb(100.000000%,100.000000%,100.000000%);stroke: none;"></path>
  <path d="M71.820343 80.649048C71.820343 79.856354,71.505402 79.096207,70.944916 78.535736C70.384445 77.975250,69.624298 77.660309,68.831604 77.660309C68.038910 77.660309,67.278763 77.975250,66.718292 78.535736C66.157806 79.096207,65.842865 79.856354,65.842865 80.649048C65.842865 81.441742,66.157806 82.201889,66.718292 82.762360C67.278763 83.322845,68.038910 83.637787,68.831604 83.637787C69.624298 83.637787,70.384445 83.322845,70.944916 82.762360C71.505402 82.201889,71.820343 81.441742,71.820343 80.649048Z" style="fill: rgb(100.000000%,100.000000%,100.000000%);stroke: none;"></path>
  <path d="M72.082764 61.096069C72.082764 60.303375,71.767822 59.543228,71.207336 58.982758C70.646866 58.422272,69.886719 58.107330,69.094025 58.107330C68.301331 58.107330,67.541183 58.422272,66.980713 58.982758C66.420227 59.543228,66.105286 60.303375,66.105286 61.096069C66.105286 61.888763,66.420227 62.648911,66.980713 63.209381C67.541183 63.769867,68.301331 64.084808,69.094025 64.084808C69.886719 64.084808,70.646866 63.769867,71.207336 63.209381C71.767822 62.648911,72.082764 61.888763,72.082764 61.096069Z" style="fill: rgb(100.000000%,100.000000%,100.000000%);stroke: none;"></path>
  <path d="M71.876282 68.215042C71.876282 67.422348,71.561340 66.662201,71.000854 66.101730C70.440384 65.541245,69.680237 65.226303,68.887543 65.226303C68.094849 65.226303,67.334702 65.541245,66.774231 66.101730C66.213745 66.662201,65.898804 67.422348,65.898804 68.215042C65.898804 69.007736,66.213745 69.767883,66.774231 70.328354C67.334702 70.888840,68.094849 71.203781,68.887543 71.203781C69.680237 71.203781,70.440384 70.888840,71.000854 70.328354C71.561340 69.767883,71.876282 69.007736,71.876282 68.215042Z" style="fill: rgb(100.000000%,100.000000%,100.000000%);stroke: none;"></path>
  <path d="M76.634521 53.150650C76.634521 52.357956,76.319580 51.597809,75.759094 51.037338C75.198624 50.476852,74.438477 50.161911,73.645782 50.161911C72.853088 50.161911,72.092941 50.476852,71.532471 51.037338C70.971985 51.597809,70.657043 52.357956,70.657043 53.150650C70.657043 53.943344,70.971985 54.703491,71.532471 55.263962C72.092941 55.824448,72.853088 56.139389,73.645782 56.139389C74.438477 56.139389,75.198624 55.824448,75.759094 55.263962C76.319580 54.703491,76.634521 53.943344,76.634521 53.150650Z" style="fill: rgb(100.000000%,100.000000%,100.000000%);stroke: none;"></path>
  <path d="M72.320847 57.671371C72.320847 56.878677,72.005905 56.118530,71.445419 55.558060C70.884949 54.997574,70.124802 54.682632,69.332108 54.682632C68.539413 54.682632,67.779266 54.997574,67.218796 55.558060C66.658310 56.118530,66.343369 56.878677,66.343369 57.671371C66.343369 58.464066,66.658310 59.224213,67.218796 59.784683C67.779266 60.345169,68.539413 60.660110,69.332108 60.660110C70.124802 60.660110,70.884949 60.345169,71.445419 59.784683C72.005905 59.224213,72.320847 58.464066,72.320847 57.671371Z" style="fill: rgb(100.000000%,100.000000%,100.000000%);stroke: none;"></path>
  <path d="M84.920090 51.619583C84.920090 50.826889,84.605148 50.066742,84.044662 49.506271C83.484192 48.945786,82.724045 48.630844,81.931351 48.630844C81.138657 48.630844,80.378510 48.945786,79.818039 49.506271C79.257553 50.066742,78.942612 50.826889,78.942612 51.619583C78.942612 52.412277,79.257553 53.172424,79.818039 53.732895C80.378510 54.293381,81.138657 54.608322,81.931351 54.608322C82.724045 54.608322,83.484192 54.293381,84.044662 53.732895C84.605148 53.172424,84.920090 52.412277,84.920090 51.619583Z" style="fill: rgb(100.000000%,100.000000%,100.000000%);stroke: none;"></path>
  <path d="M79.762909 52.660233C79.762909 51.867538,79.447968 51.107391,78.887482 50.546921C78.327011 49.986435,77.566864 49.671494,76.774170 49.671494C75.981476 49.671494,75.221329 49.986435,74.660858 50.546921C74.100372 51.107391,73.785431 51.867538,73.785431 52.660233C73.785431 53.452927,74.100372 54.213074,74.660858 54.773544C75.221329 55.334030,75.981476 55.648972,76.774170 55.648972C77.566864 55.648972,78.327011 55.334030,78.887482 54.773544C79.447968 54.213074,79.762909 53.452927,79.762909 52.660233Z" style="fill: rgb(100.000000%,100.000000%,100.000000%);stroke: none;"></path>
  <path d="M91.661407 51.847656C91.661407 51.054962,91.346466 50.294815,90.785980 49.734344C90.225510 49.173859,89.465363 48.858917,88.672668 48.858917C87.879974 48.858917,87.119827 49.173859,86.559357 49.734344C85.998871 50.294815,85.683929 51.054962,85.683929 51.847656C85.683929 52.640350,85.998871 53.400497,86.559357 53.960968C87.119827 54.521454,87.879974 54.836395,88.672668 54.836395C89.465363 54.836395,90.225510 54.521454,90.785980 53.960968C91.346466 53.400497,91.661407 52.640350,91.661407 51.847656Z" style="fill: rgb(100.000000%,100.000000%,100.000000%);stroke: none;"></path>
  <path d="M87.162872 51.062195C87.162872 50.269501,86.847931 49.509354,86.287445 48.948883C85.726974 48.388397,84.966827 48.073456,84.174133 48.073456C83.381439 48.073456,82.621292 48.388397,82.060822 48.948883C81.500336 49.509354,81.185394 50.269501,81.185394 51.062195C81.185394 51.854889,81.500336 52.615036,82.060822 53.175507C82.621292 53.735992,83.381439 54.050934,84.174133 54.050934C84.966827 54.050934,85.726974 53.735992,86.287445 53.175507C86.847931 52.615036,87.162872 51.854889,87.162872 51.062195Z" style="fill: rgb(100.000000%,100.000000%,100.000000%);stroke: none;"></path>
  <path d="M98.535873 56.163010C98.535873 55.370316,98.220932 54.610168,97.660446 54.049698C97.099976 53.489212,96.339828 53.174271,95.547134 53.174271C94.754440 53.174271,93.994293 53.489212,93.433823 54.049698C92.873337 54.610168,92.558395 55.370316,92.558395 56.163010C92.558395 56.955704,92.873337 57.715851,93.433823 58.276321C93.994293 58.836807,94.754440 59.151749,95.547134 59.151749C96.339828 59.151749,97.099976 58.836807,97.660446 58.276321C98.220932 57.715851,98.535873 56.955704,98.535873 56.163010Z" style="fill: rgb(100.000000%,100.000000%,100.000000%);stroke: none;"></path>
  <path d="M93.607468 53.167877C93.607468 52.375183,93.292526 51.615036,92.732040 51.054565C92.171570 50.494080,91.411423 50.179138,90.618729 50.179138C89.826035 50.179138,89.065887 50.494080,88.505417 51.054565C87.944931 51.615036,87.629990 52.375183,87.629990 53.167877C87.629990 53.960571,87.944931 54.720718,88.505417 55.281189C89.065887 55.841675,89.826035 56.156616,90.618729 56.156616C91.411423 56.156616,92.171570 55.841675,92.732040 55.281189C93.292526 54.720718,93.607468 53.960571,93.607468 53.167877Z" style="fill: rgb(100.000000%,100.000000%,100.000000%);stroke: none;"></path>
  <path d="M104.357651 64.976334C104.357651 64.183640,104.042709 63.423492,103.482224 62.863022C102.921753 62.302536,102.161606 61.987595,101.368912 61.987595C100.576218 61.987595,99.816071 62.302536,99.255600 62.863022C98.695114 63.423492,98.380173 64.183640,98.380173 64.976334C98.380173 65.769028,98.695114 66.529175,99.255600 67.089645C99.816071 67.650131,100.576218 67.965073,101.368912 67.965073C102.161606 67.965073,102.921753 67.650131,103.482224 67.089645C104.042709 66.529175,104.357651 65.769028,104.357651 64.976334Z" style="fill: rgb(100.000000%,100.000000%,100.000000%);stroke: none;"></path>
  <path d="M101.795517 57.919891C101.795517 57.127197,101.480576 56.367050,100.920090 55.806580C100.359619 55.246094,99.599472 54.931152,98.806778 54.931152C98.014084 54.931152,97.253937 55.246094,96.693466 55.806580C96.132980 56.367050,95.818039 57.127197,95.818039 57.919891C95.818039 58.712585,96.132980 59.472733,96.693466 60.033203C97.253937 60.593689,98.014084 60.908630,98.806778 60.908630C99.599472 60.908630,100.359619 60.593689,100.920090 60.033203C101.480576 59.472733,101.795517 58.712585,101.795517 57.919891Z" style="fill: rgb(100.000000%,100.000000%,100.000000%);stroke: none;"></path>
  <path d="M98.107376 77.870117C98.107376 77.077423,97.792435 76.317276,97.231949 75.756805C96.671478 75.196320,95.911331 74.881378,95.118637 74.881378C94.325943 74.881378,93.565796 75.196320,93.005325 75.756805C92.444839 76.317276,92.129898 77.077423,92.129898 77.870117C92.129898 78.662811,92.444839 79.422958,93.005325 79.983429C93.565796 80.543915,94.325943 80.858856,95.118637 80.858856C95.911331 80.858856,96.671478 80.543915,97.231949 79.983429C97.792435 79.422958,98.107376 78.662811,98.107376 77.870117Z" style="fill: rgb(100.000000%,100.000000%,100.000000%);stroke: none;"></path>
  <path d="M102.349457 68.863510C102.349457 68.070816,102.034515 67.310669,101.474030 66.750198C100.913559 66.189713,100.153412 65.874771,99.360718 65.874771C98.568024 65.874771,97.807877 66.189713,97.247406 66.750198C96.686920 67.310669,96.371979 68.070816,96.371979 68.863510C96.371979 69.656204,96.686920 70.416351,97.247406 70.976822C97.807877 71.537308,98.568024 71.852249,99.360718 71.852249C100.153412 71.852249,100.913559 71.537308,101.474030 70.976822C102.034515 70.416351,102.349457 69.656204,102.349457 68.863510Z" style="fill: rgb(100.000000%,100.000000%,100.000000%);stroke: none;"></path>
  <path d="M85.735458 91.023758C85.735458 90.231064,85.420517 89.470917,84.860031 88.910446C84.299561 88.349960,83.539413 88.035019,82.746719 88.035019C81.954025 88.035019,81.193878 88.349960,80.633408 88.910446C80.072922 89.470917,79.757980 90.231064,79.757980 91.023758C79.757980 91.816452,80.072922 92.576599,80.633408 93.137070C81.193878 93.697556,81.954025 94.012497,82.746719 94.012497C83.539413 94.012497,84.299561 93.697556,84.860031 93.137070C85.420517 92.576599,85.735458 91.816452,85.735458 91.023758Z" style="fill: rgb(100.000000%,100.000000%,100.000000%);stroke: none;"></path>
  <path d="M96.068527 83.750076C96.068527 82.957382,95.753586 82.197235,95.193100 81.636765C94.632629 81.076279,93.872482 80.761337,93.079788 80.761337C92.287094 80.761337,91.526947 81.076279,90.966476 81.636765C90.405991 82.197235,90.091049 82.957382,90.091049 83.750076C90.091049 84.542770,90.405991 85.302917,90.966476 85.863388C91.526947 86.423874,92.287094 86.738815,93.079788 86.738815C93.872482 86.738815,94.632629 86.423874,95.193100 85.863388C95.753586 85.302917,96.068527 84.542770,96.068527 83.750076Z" style="fill: rgb(100.000000%,100.000000%,100.000000%);stroke: none;"></path>
  <path d="M65.106064 89.501312C65.106064 88.708618,64.791122 87.948471,64.230637 87.388000C63.670166 86.827515,62.910019 86.512573,62.117325 86.512573C61.324631 86.512573,60.564484 86.827515,60.004013 87.388000C59.443527 87.948471,59.128586 88.708618,59.128586 89.501312C59.128586 90.294006,59.443527 91.054153,60.004013 91.614624C60.564484 92.175110,61.324631 92.490051,62.117325 92.490051C62.910019 92.490051,63.670166 92.175110,64.230637 91.614624C64.791122 91.054153,65.106064 90.294006,65.106064 89.501312Z" style="fill: rgb(100.000000%,100.000000%,100.000000%);stroke: none;"></path>
  <path d="M78.665878 90.483795C78.665878 89.691101,78.350937 88.930954,77.790451 88.370483C77.229980 87.809998,76.469833 87.495056,75.677139 87.495056C74.884445 87.495056,74.124298 87.809998,73.563828 88.370483C73.003342 88.930954,72.688400 89.691101,72.688400 90.483795C72.688400 91.276489,73.003342 92.036636,73.563828 92.597107C74.124298 93.157593,74.884445 93.472534,75.677139 93.472534C76.469833 93.472534,77.229980 93.157593,77.790451 92.597107C78.350937 92.036636,78.665878 91.276489,78.665878 90.483795Z" style="fill: rgb(100.000000%,100.000000%,100.000000%);stroke: none;"></path>
  <path d="M39.051773 85.362915C39.051773 84.570221,38.736832 83.810074,38.176346 83.249603C37.615875 82.689117,36.855728 82.374176,36.063034 82.374176C35.270340 82.374176,34.510193 82.689117,33.949722 83.249603C33.389236 83.810074,33.074295 84.570221,33.074295 85.362915C33.074295 86.155609,33.389236 86.915756,33.949722 87.476227C34.510193 88.036713,35.270340 88.351654,36.063034 88.351654C36.855728 88.351654,37.615875 88.036713,38.176346 87.476227C38.736832 86.915756,39.051773 86.155609,39.051773 85.362915Z" style="fill: rgb(100.000000%,100.000000%,100.000000%);stroke: none;"></path>
  <path d="M58.187042 89.219482C58.187042 88.426788,57.872101 87.666641,57.311615 87.106171C56.751144 86.545685,55.990997 86.230743,55.198303 86.230743C54.405609 86.230743,53.645462 86.545685,53.084991 87.106171C52.524506 87.666641,52.209564 88.426788,52.209564 89.219482C52.209564 90.012177,52.524506 90.772324,53.084991 91.332794C53.645462 91.893280,54.405609 92.208221,55.198303 92.208221C55.990997 92.208221,56.751144 91.893280,57.311615 91.332794C57.872101 90.772324,58.187042 90.012177,58.187042 89.219482Z" style="fill: rgb(100.000000%,100.000000%,100.000000%);stroke: none;"></path>
  <path d="M14.628555 49.814331C14.628555 49.021637,14.313614 48.261490,13.753128 47.701019C13.192657 47.140533,12.432510 46.825592,11.639816 46.825592C10.847122 46.825592,10.086975 47.140533,9.526505 47.701019C8.966019 48.261490,8.651077 49.021637,8.651077 49.814331C8.651077 50.607025,8.966019 51.367172,9.526505 51.927643C10.086975 52.488129,10.847122 52.803070,11.639816 52.803070C12.432510 52.803070,13.192657 52.488129,13.753128 51.927643C14.313614 51.367172,14.628555 50.607025,14.628555 49.814331Z" style="fill: rgb(100.000000%,100.000000%,100.000000%);stroke: none;"></path>
  <path d="M27.304291 78.979370C27.304291 78.186676,26.989349 77.426529,26.428864 76.866058C25.868393 76.305573,25.108246 75.990631,24.315552 75.990631C23.522858 75.990631,22.762711 76.305573,22.202240 76.866058C21.641754 77.426529,21.326813 78.186676,21.326813 78.979370C21.326813 79.772064,21.641754 80.532211,22.202240 81.092682C22.762711 81.653168,23.522858 81.968109,24.315552 81.968109C25.108246 81.968109,25.868393 81.653168,26.428864 81.092682C26.989349 80.532211,27.304291 79.772064,27.304291 78.979370Z" style="fill: rgb(100.000000%,100.000000%,100.000000%);stroke: none;"></path>
  <path d="M58.164734 6.978058C58.164734 6.185364,57.849792 5.425217,57.289307 4.864746C56.728836 4.304260,55.968689 3.989319,55.175995 3.989319C54.383301 3.989319,53.623154 4.304260,53.062683 4.864746C52.502197 5.425217,52.187256 6.185364,52.187256 6.978058C52.187256 7.770752,52.502197 8.530899,53.062683 9.091370C53.623154 9.651855,54.383301 9.966797,55.175995 9.966797C55.968689 9.966797,56.728836 9.651855,57.289307 9.091370C57.849792 8.530899,58.164734 7.770752,58.164734 6.978058Z" style="fill: rgb(100.000000%,100.000000%,100.000000%);stroke: none;"></path>
  <path d="M25.545334 30.548691C25.545334 29.755997,25.230392 28.995850,24.669907 28.435379C24.109436 27.874893,23.349289 27.559952,22.556595 27.559952C21.763901 27.559952,21.003754 27.874893,20.443283 28.435379C19.882797 28.995850,19.567856 29.755997,19.567856 30.548691C19.567856 31.341385,19.882797 32.101532,20.443283 32.662003C21.003754 33.222488,21.763901 33.537430,22.556595 33.537430C23.349289 33.537430,24.109436 33.222488,24.669907 32.662003C25.230392 32.101532,25.545334 31.341385,25.545334 30.548691Z" style="fill: rgb(100.000000%,100.000000%,100.000000%);stroke: none;"></path>
  <path d="M102.347916 21.679535C102.347916 20.886841,102.032974 20.126694,101.472488 19.566223C100.912018 19.005737,100.151871 18.690796,99.359177 18.690796C98.566483 18.690796,97.806335 19.005737,97.245865 19.566223C96.685379 20.126694,96.370438 20.886841,96.370438 21.679535C96.370438 22.472229,96.685379 23.232376,97.245865 23.792847C97.806335 24.353333,98.566483 24.668274,99.359177 24.668274C100.151871 24.668274,100.912018 24.353333,101.472488 23.792847C102.032974 23.232376,102.347916 22.472229,102.347916 21.679535Z" style="fill: rgb(100.000000%,100.000000%,100.000000%);stroke: none;"></path>
  <path d="M79.533615 2.508667C79.533615 1.715973,79.218674 0.955826,78.658188 0.395355C78.097717 -0.165131,77.337570 -0.480072,76.544876 -0.480072C75.752182 -0.480072,74.992035 -0.165131,74.431564 0.395355C73.871078 0.955826,73.556137 1.715973,73.556137 2.508667C73.556137 3.301361,73.871078 4.061508,74.431564 4.621979C74.992035 5.182465,75.752182 5.497406,76.544876 5.497406C77.337570 5.497406,78.097717 5.182465,78.658188 4.621979C79.218674 4.061508,79.533615 3.301361,79.533615 2.508667Z" style="fill: rgb(100.000000%,100.000000%,100.000000%);stroke: none;"></path>
  <path d="M100.955078 47.004395C100.955078 46.211700,100.640137 45.451553,100.079651 44.891083C99.519180 44.330597,98.759033 44.015656,97.966339 44.015656C97.173645 44.015656,96.413498 44.330597,95.853027 44.891083C95.292542 45.451553,94.977600 46.211700,94.977600 47.004395C94.977600 47.797089,95.292542 48.557236,95.853027 49.117706C96.413498 49.678192,97.173645 49.993134,97.966339 49.993134C98.759033 49.993134,99.519180 49.678192,100.079651 49.117706C100.640137 48.557236,100.955078 47.797089,100.955078 47.004395Z" style="fill: rgb(100.000000%,100.000000%,100.000000%);stroke: none;"></path>
  <path d="M105.872406 32.689606C105.872406 31.896912,105.557465 31.136765,104.996979 30.576294C104.436508 30.015808,103.676361 29.700867,102.883667 29.700867C102.090973 29.700867,101.330826 30.015808,100.770355 30.576294C100.209869 31.136765,99.894928 31.896912,99.894928 32.689606C99.894928 33.482300,100.209869 34.242447,100.770355 34.802917C101.330826 35.363403,102.090973 35.678345,102.883667 35.678345C103.676361 35.678345,104.436508 35.363403,104.996979 34.802917C105.557465 34.242447,105.872406 33.482300,105.872406 32.689606Z" style="fill: rgb(100.000000%,100.000000%,100.000000%);stroke: none;"></path>
  <path d="M94.368042 56.001617C94.368042 55.208923,94.053101 54.448776,93.492615 53.888306C92.932144 53.327820,92.171997 53.012878,91.379303 53.012878C90.586609 53.012878,89.826462 53.327820,89.265991 53.888306C88.705505 54.448776,88.390564 55.208923,88.390564 56.001617C88.390564 56.794312,88.705505 57.554459,89.265991 58.114929C89.826462 58.675415,90.586609 58.990356,91.379303 58.990356C92.171997 58.990356,92.932144 58.675415,93.492615 58.114929C94.053101 57.554459,94.368042 56.794312,94.368042 56.001617Z" style="fill: rgb(100.000000%,100.000000%,100.000000%);stroke: none;"></path>
  <path d="M98.246979 50.704910C98.246979 49.912216,97.932037 49.152069,97.371552 48.591599C96.811081 48.031113,96.050934 47.716171,95.258240 47.716171C94.465546 47.716171,93.705399 48.031113,93.144928 48.591599C92.584442 49.152069,92.269501 49.912216,92.269501 50.704910C92.269501 51.497604,92.584442 52.257751,93.144928 52.818222C93.705399 53.378708,94.465546 53.693649,95.258240 53.693649C96.050934 53.693649,96.811081 53.378708,97.371552 52.818222C97.932037 52.257751,98.246979 51.497604,98.246979 50.704910Z" style="fill: rgb(100.000000%,100.000000%,100.000000%);stroke: none;"></path>
  <path d="M90.213821 60.205780C90.213821 59.413086,89.898880 58.652939,89.338394 58.092468C88.777924 57.531982,88.017776 57.217041,87.225082 57.217041C86.432388 57.217041,85.672241 57.531982,85.111771 58.092468C84.551285 58.652939,84.236343 59.413086,84.236343 60.205780C84.236343 60.998474,84.551285 61.758621,85.111771 62.319092C85.672241 62.879578,86.432388 63.194519,87.225082 63.194519C88.017776 63.194519,88.777924 62.879578,89.338394 62.319092C89.898880 61.758621,90.213821 60.998474,90.213821 60.205780Z" style="fill: rgb(100.000000%,100.000000%,100.000000%);stroke: none;"></path>
  <path d="M93.157990 57.653702C93.157990 56.861008,92.843048 56.100861,92.282562 55.540390C91.722092 54.979904,90.961945 54.664963,90.169250 54.664963C89.376556 54.664963,88.616409 54.979904,88.055939 55.540390C87.495453 56.100861,87.180511 56.861008,87.180511 57.653702C87.180511 58.446396,87.495453 59.206543,88.055939 59.767014C88.616409 60.327499,89.376556 60.642441,90.169250 60.642441C90.961945 60.642441,91.722092 60.327499,92.282562 59.767014C92.843048 59.206543,93.157990 58.446396,93.157990 57.653702Z" style="fill: rgb(100.000000%,100.000000%,100.000000%);stroke: none;"></path>
  <path d="M84.929871 63.314423C84.929871 62.521729,84.614929 61.761581,84.054443 61.201111C83.493973 60.640625,82.733826 60.325684,81.941132 60.325684C81.148438 60.325684,80.388290 60.640625,79.827820 61.201111C79.267334 61.761581,78.952393 62.521729,78.952393 63.314423C78.952393 64.107117,79.267334 64.867264,79.827820 65.427734C80.388290 65.988220,81.148438 66.303162,81.941132 66.303162C82.733826 66.303162,83.493973 65.988220,84.054443 65.427734C84.614929 64.867264,84.929871 64.107117,84.929871 63.314423Z" style="fill: rgb(100.000000%,100.000000%,100.000000%);stroke: none;"></path>
  <path d="M88.580811 61.116409C88.580811 60.323715,88.265869 59.563568,87.705383 59.003098C87.144913 58.442612,86.384766 58.127670,85.592072 58.127670C84.799377 58.127670,84.039230 58.442612,83.478760 59.003098C82.918274 59.563568,82.603333 60.323715,82.603333 61.116409C82.603333 61.909103,82.918274 62.669250,83.478760 63.229721C84.039230 63.790207,84.799377 64.105148,85.592072 64.105148C86.384766 64.105148,87.144913 63.790207,87.705383 63.229721C88.265869 62.669250,88.580811 61.909103,88.580811 61.116409Z" style="fill: rgb(100.000000%,100.000000%,100.000000%);stroke: none;"></path>
  <path d="M77.684814 65.733917C77.684814 64.941223,77.369873 64.181076,76.809387 63.620605C76.248917 63.060120,75.488770 62.745178,74.696075 62.745178C73.903381 62.745178,73.143234 63.060120,72.582764 63.620605C72.022278 64.181076,71.707336 64.941223,71.707336 65.733917C71.707336 66.526611,72.022278 67.286758,72.582764 67.847229C73.143234 68.407715,73.903381 68.722656,74.696075 68.722656C75.488770 68.722656,76.248917 68.407715,76.809387 67.847229C77.369873 67.286758,77.684814 66.526611,77.684814 65.733917Z" style="fill: rgb(100.000000%,100.000000%,100.000000%);stroke: none;"></path>
  <path d="M82.883804 64.659576C82.883804 63.866882,82.568863 63.106735,82.008377 62.546265C81.447906 61.985779,80.687759 61.670837,79.895065 61.670837C79.102371 61.670837,78.342224 61.985779,77.781754 62.546265C77.221268 63.106735,76.906326 63.866882,76.906326 64.659576C76.906326 65.452271,77.221268 66.212418,77.781754 66.772888C78.342224 67.333374,79.102371 67.648315,79.895065 67.648315C80.687759 67.648315,81.447906 67.333374,82.008377 66.772888C82.568863 66.212418,82.883804 65.452271,82.883804 64.659576Z" style="fill: rgb(100.000000%,100.000000%,100.000000%);stroke: none;"></path>
  <path d="M66.686630 63.075607C66.686630 62.282913,66.371689 61.522766,65.811203 60.962296C65.250732 60.401810,64.490585 60.086868,63.697891 60.086868C62.905197 60.086868,62.145050 60.401810,61.584579 60.962296C61.024094 61.522766,60.709152 62.282913,60.709152 63.075607C60.709152 63.868301,61.024094 64.628448,61.584579 65.188919C62.145050 65.749405,62.905197 66.064346,63.697891 66.064346C64.490585 66.064346,65.250732 65.749405,65.811203 65.188919C66.371689 64.628448,66.686630 63.868301,66.686630 63.075607Z" style="fill: rgb(100.000000%,100.000000%,100.000000%);stroke: none;"></path>
  <path d="M74.803955 65.007812C74.803955 64.215118,74.489014 63.454971,73.928528 62.894501C73.368057 62.334015,72.607910 62.019073,71.815216 62.019073C71.022522 62.019073,70.262375 62.334015,69.701904 62.894501C69.141418 63.454971,68.826477 64.215118,68.826477 65.007812C68.826477 65.800507,69.141418 66.560654,69.701904 67.121124C70.262375 67.681610,71.022522 67.996552,71.815216 67.996552C72.607910 67.996552,73.368057 67.681610,73.928528 67.121124C74.489014 66.560654,74.803955 65.800507,74.803955 65.007812Z" style="fill: rgb(100.000000%,100.000000%,100.000000%);stroke: none;"></path>
  <path d="M44.166595 59.870499C44.166595 59.077805,43.851654 58.317657,43.291168 57.757187C42.730698 57.196701,41.970551 56.881760,41.177856 56.881760C40.385162 56.881760,39.625015 57.196701,39.064545 57.757187C38.504059 58.317657,38.189117 59.077805,38.189117 59.870499C38.189117 60.663193,38.504059 61.423340,39.064545 61.983810C39.625015 62.544296,40.385162 62.859238,41.177856 62.859238C41.970551 62.859238,42.730698 62.544296,43.291168 61.983810C43.851654 61.423340,44.166595 60.663193,44.166595 59.870499Z" style="fill: rgb(100.000000%,100.000000%,100.000000%);stroke: none;"></path>
  <path d="M61.335892 62.014633C61.335892 61.221939,61.020950 60.461792,60.460464 59.901321C59.899994 59.340836,59.139847 59.025894,58.347153 59.025894C57.554459 59.025894,56.794312 59.340836,56.233841 59.901321C55.673355 60.461792,55.358414 61.221939,55.358414 62.014633C55.358414 62.807327,55.673355 63.567474,56.233841 64.127945C56.794312 64.688431,57.554459 65.003372,58.347153 65.003372C59.139847 65.003372,59.899994 64.688431,60.460464 64.127945C61.020950 63.567474,61.335892 62.807327,61.335892 62.014633Z" style="fill: rgb(100.000000%,100.000000%,100.000000%);stroke: none;"></path>
  <path d="M5.859634 79.850342C5.859634 79.057648,5.544693 78.297501,4.984207 77.737030C4.423737 77.176544,3.663589 76.861603,2.870895 76.861603C2.078201 76.861603,1.318054 77.176544,0.757584 77.737030C0.197098 78.297501,-0.117844 79.057648,-0.117844 79.850342C-0.117844 80.643036,0.197098 81.403183,0.757584 81.963654C1.318054 82.524139,2.078201 82.839081,2.870895 82.839081C3.663589 82.839081,4.423737 82.524139,4.984207 81.963654C5.544693 81.403183,5.859634 80.643036,5.859634 79.850342Z" style="fill: rgb(100.000000%,100.000000%,100.000000%);stroke: none;"></path>
  <path d="M31.777161 60.414642C31.777161 59.621948,31.462219 58.861801,30.901733 58.301331C30.341263 57.740845,29.581116 57.425903,28.788422 57.425903C27.995728 57.425903,27.235580 57.740845,26.675110 58.301331C26.114624 58.861801,25.799683 59.621948,25.799683 60.414642C25.799683 61.207336,26.114624 61.967484,26.675110 62.527954C27.235580 63.088440,27.995728 63.403381,28.788422 63.403381C29.581116 63.403381,30.341263 63.088440,30.901733 62.527954C31.462219 61.967484,31.777161 61.207336,31.777161 60.414642Z" style="fill: rgb(100.000000%,100.000000%,100.000000%);stroke: none;"></path>
  <path d="M22.552338 145.629700C22.552338 144.837006,22.237396 144.076859,21.676910 143.516388C21.116440 142.955902,20.356293 142.640961,19.563599 142.640961C18.770905 142.640961,18.010757 142.955902,17.450287 143.516388C16.889801 144.076859,16.574860 144.837006,16.574860 145.629700C16.574860 146.422394,16.889801 147.182541,17.450287 147.743011C18.010757 148.303497,18.770905 148.618439,19.563599 148.618439C20.356293 148.618439,21.116440 148.303497,21.676910 147.743011C22.237396 147.182541,22.552338 146.422394,22.552338 145.629700Z" style="fill: rgb(100.000000%,100.000000%,100.000000%);stroke: none;"></path>
  <path d="M5.845093 103.331268C5.845093 102.538574,5.530151 101.778427,4.969666 101.217957C4.409195 100.657471,3.649048 100.342529,2.856354 100.342529C2.063660 100.342529,1.303513 100.657471,0.743042 101.217957C0.182556 101.778427,-0.132385 102.538574,-0.132385 103.331268C-0.132385 104.123962,0.182556 104.884109,0.743042 105.444580C1.303513 106.005066,2.063660 106.320007,2.856354 106.320007C3.649048 106.320007,4.409195 106.005066,4.969666 105.444580C5.530151 104.884109,5.845093 104.123962,5.845093 103.331268Z" style="fill: rgb(100.000000%,100.000000%,100.000000%);stroke: none;"></path>
  <path d="M79.205429 157.327835C79.205429 156.535141,78.890488 155.774994,78.330002 155.214523C77.769531 154.654037,77.009384 154.339096,76.216690 154.339096C75.423996 154.339096,74.663849 154.654037,74.103378 155.214523C73.542892 155.774994,73.227951 156.535141,73.227951 157.327835C73.227951 158.120529,73.542892 158.880676,74.103378 159.441147C74.663849 160.001633,75.423996 160.316574,76.216690 160.316574C77.009384 160.316574,77.769531 160.001633,78.330002 159.441147C78.890488 158.880676,79.205429 158.120529,79.205429 157.327835Z" style="fill: rgb(100.000000%,100.000000%,100.000000%);stroke: none;"></path>
  <path d="M41.216644 164.027222C41.216644 163.234528,40.901703 162.474380,40.341217 161.913910C39.780746 161.353424,39.020599 161.038483,38.227905 161.038483C37.435211 161.038483,36.675064 161.353424,36.114594 161.913910C35.554108 162.474380,35.239166 163.234528,35.239166 164.027222C35.239166 164.819916,35.554108 165.580063,36.114594 166.140533C36.675064 166.701019,37.435211 167.015961,38.227905 167.015961C39.020599 167.015961,39.780746 166.701019,40.341217 166.140533C40.901703 165.580063,41.216644 164.819916,41.216644 164.027222Z" style="fill: rgb(100.000000%,100.000000%,100.000000%);stroke: none;"></path>
  <path d="M122.556610 142.979813C122.556610 142.187119,122.241669 141.426971,121.681183 140.866501C121.120712 140.306015,120.360565 139.991074,119.567871 139.991074C118.775177 139.991074,118.015030 140.306015,117.454559 140.866501C116.894073 141.426971,116.579132 142.187119,116.579132 142.979813C116.579132 143.772507,116.894073 144.532654,117.454559 145.093124C118.015030 145.653610,118.775177 145.968552,119.567871 145.968552C120.360565 145.968552,121.120712 145.653610,121.681183 145.093124C122.241669 144.532654,122.556610 143.772507,122.556610 142.979813Z" style="fill: rgb(100.000000%,100.000000%,100.000000%);stroke: none;"></path>
  <path d="M90.949448 142.540375C90.949448 141.747681,90.634506 140.987534,90.074020 140.427063C89.513550 139.866577,88.753403 139.551636,87.960709 139.551636C87.168015 139.551636,86.407867 139.866577,85.847397 140.427063C85.286911 140.987534,84.971970 141.747681,84.971970 142.540375C84.971970 143.333069,85.286911 144.093216,85.847397 144.653687C86.407867 145.214172,87.168015 145.529114,87.960709 145.529114C88.753403 145.529114,89.513550 145.214172,90.074020 144.653687C90.634506 144.093216,90.949448 143.333069,90.949448 142.540375Z" style="fill: rgb(100.000000%,100.000000%,100.000000%);stroke: none;"></path>
  <path d="M168.382019 164.264038C168.382019 163.471344,168.067078 162.711197,167.506592 162.150726C166.946121 161.590240,166.185974 161.275299,165.393280 161.275299C164.600586 161.275299,163.840439 161.590240,163.279968 162.150726C162.719482 162.711197,162.404541 163.471344,162.404541 164.264038C162.404541 165.056732,162.719482 165.816879,163.279968 166.377350C163.840439 166.937836,164.600586 167.252777,165.393280 167.252777C166.185974 167.252777,166.946121 166.937836,167.506592 166.377350C168.067078 165.816879,168.382019 165.056732,168.382019 164.264038Z" style="fill: rgb(100.000000%,100.000000%,100.000000%);stroke: none;"></path>
  <path d="M133.742111 157.095520C133.742111 156.302826,133.427170 155.542679,132.866684 154.982208C132.306213 154.421722,131.546066 154.106781,130.753372 154.106781C129.960678 154.106781,129.200531 154.421722,128.640060 154.982208C128.079575 155.542679,127.764633 156.302826,127.764633 157.095520C127.764633 157.888214,128.079575 158.648361,128.640060 159.208832C129.200531 159.769318,129.960678 160.084259,130.753372 160.084259C131.546066 160.084259,132.306213 159.769318,132.866684 159.208832C133.427170 158.648361,133.742111 157.888214,133.742111 157.095520Z" style="fill: rgb(100.000000%,100.000000%,100.000000%);stroke: none;"></path>
  <path d="M197.479248 111.130295C197.479248 110.337601,197.164307 109.577454,196.603821 109.016983C196.043350 108.456497,195.283203 108.141556,194.490509 108.141556C193.697815 108.141556,192.937668 108.456497,192.377197 109.016983C191.816711 109.577454,191.501770 110.337601,191.501770 111.130295C191.501770 111.922989,191.816711 112.683136,192.377197 113.243607C192.937668 113.804092,193.697815 114.119034,194.490509 114.119034C195.283203 114.119034,196.043350 113.804092,196.603821 113.243607C197.164307 112.683136,197.479248 111.922989,197.479248 111.130295Z" style="fill: rgb(100.000000%,100.000000%,100.000000%);stroke: none;"></path>
  <path d="M186.941406 150.457764C186.941406 149.665070,186.626465 148.904922,186.065979 148.344452C185.505508 147.783966,184.745361 147.469025,183.952667 147.469025C183.159973 147.469025,182.399826 147.783966,181.839355 148.344452C181.278870 148.904922,180.963928 149.665070,180.963928 150.457764C180.963928 151.250458,181.278870 152.010605,181.839355 152.571075C182.399826 153.131561,183.159973 153.446503,183.952667 153.446503C184.745361 153.446503,185.505508 153.131561,186.065979 152.571075C186.626465 152.010605,186.941406 151.250458,186.941406 150.457764Z" style="fill: rgb(100.000000%,100.000000%,100.000000%);stroke: none;"></path>
  <path d="M156.622726 76.579880C156.622726 75.787186,156.307785 75.027039,155.747299 74.466568C155.186829 73.906082,154.426682 73.591141,153.633987 73.591141C152.841293 73.591141,152.081146 73.906082,151.520676 74.466568C150.960190 75.027039,150.645248 75.787186,150.645248 76.579880C150.645248 77.372574,150.960190 78.132721,151.520676 78.693192C152.081146 79.253677,152.841293 79.568619,153.633987 79.568619C154.426682 79.568619,155.186829 79.253677,155.747299 78.693192C156.307785 78.132721,156.622726 77.372574,156.622726 76.579880Z" style="fill: rgb(100.000000%,100.000000%,100.000000%);stroke: none;"></path>
  <path d="M189.054703 90.412216C189.054703 89.619522,188.739761 88.859375,188.179276 88.298904C187.618805 87.738419,186.858658 87.423477,186.065964 87.423477C185.273270 87.423477,184.513123 87.738419,183.952652 88.298904C183.392166 88.859375,183.077225 89.619522,183.077225 90.412216C183.077225 91.204910,183.392166 91.965057,183.952652 92.525528C184.513123 93.086014,185.273270 93.400955,186.065964 93.400955C186.858658 93.400955,187.618805 93.086014,188.179276 92.525528C188.739761 91.965057,189.054703 91.204910,189.054703 90.412216Z" style="fill: rgb(100.000000%,100.000000%,100.000000%);stroke: none;"></path>
  <path d="M116.832977 78.078354C116.832977 77.285660,116.518036 76.525513,115.957550 75.965042C115.397079 75.404556,114.636932 75.089615,113.844238 75.089615C113.051544 75.089615,112.291397 75.404556,111.730927 75.965042C111.170441 76.525513,110.855499 77.285660,110.855499 78.078354C110.855499 78.871048,111.170441 79.631195,111.730927 80.191666C112.291397 80.752151,113.051544 81.067093,113.844238 81.067093C114.636932 81.067093,115.397079 80.752151,115.957550 80.191666C116.518036 79.631195,116.832977 78.871048,116.832977 78.078354Z" style="fill: rgb(100.000000%,100.000000%,100.000000%);stroke: none;"></path>
  <path d="M140.562683 81.195663C140.562683 80.402969,140.247742 79.642822,139.687256 79.082352C139.126785 78.521866,138.366638 78.206924,137.573944 78.206924C136.781250 78.206924,136.021103 78.521866,135.460632 79.082352C134.900146 79.642822,134.585205 80.402969,134.585205 81.195663C134.585205 81.988358,134.900146 82.748505,135.460632 83.308975C136.021103 83.869461,136.781250 84.184402,137.573944 84.184402C138.366638 84.184402,139.126785 83.869461,139.687256 83.308975C140.247742 82.748505,140.562683 81.988358,140.562683 81.195663Z" style="fill: rgb(100.000000%,100.000000%,100.000000%);stroke: none;"></path>
  <path d="M97.332108 71.547852C97.332108 70.755157,97.017166 69.995010,96.456680 69.434540C95.896210 68.874054,95.136063 68.559113,94.343369 68.559113C93.550674 68.559113,92.790527 68.874054,92.230057 69.434540C91.669571 69.995010,91.354630 70.755157,91.354630 71.547852C91.354630 72.340546,91.669571 73.100693,92.230057 73.661163C92.790527 74.221649,93.550674 74.536591,94.343369 74.536591C95.136063 74.536591,95.896210 74.221649,96.456680 73.661163C97.017166 73.100693,97.332108 72.340546,97.332108 71.547852Z" style="fill: rgb(100.000000%,100.000000%,100.000000%);stroke: none;"></path>
  <path d="M108.814850 74.935806C108.814850 74.143112,108.499908 73.382965,107.939423 72.822495C107.378952 72.262009,106.618805 71.947067,105.826111 71.947067C105.033417 71.947067,104.273270 72.262009,103.712799 72.822495C103.152313 73.382965,102.837372 74.143112,102.837372 74.935806C102.837372 75.728500,103.152313 76.488647,103.712799 77.049118C104.273270 77.609604,105.033417 77.924545,105.826111 77.924545C106.618805 77.924545,107.378952 77.609604,107.939423 77.049118C108.499908 76.488647,108.814850 75.728500,108.814850 74.935806Z" style="fill: rgb(100.000000%,100.000000%,100.000000%);stroke: none;"></path>
  <path d="M89.465454 66.599350C89.465454 65.806656,89.150513 65.046509,88.590027 64.486038C88.029556 63.925552,87.269409 63.610611,86.476715 63.610611C85.684021 63.610611,84.923874 63.925552,84.363403 64.486038C83.802917 65.046509,83.487976 65.806656,83.487976 66.599350C83.487976 67.392044,83.802917 68.152191,84.363403 68.712662C84.923874 69.273148,85.684021 69.588089,86.476715 69.588089C87.269409 69.588089,88.029556 69.273148,88.590027 68.712662C89.150513 68.152191,89.465454 67.392044,89.465454 66.599350Z" style="fill: rgb(100.000000%,100.000000%,100.000000%);stroke: none;"></path>
  <path d="M93.912628 70.638275C93.912628 69.845581,93.597687 69.085434,93.037201 68.524963C92.476730 67.964478,91.716583 67.649536,90.923889 67.649536C90.131195 67.649536,89.371048 67.964478,88.810577 68.524963C88.250092 69.085434,87.935150 69.845581,87.935150 70.638275C87.935150 71.430969,88.250092 72.191116,88.810577 72.751587C89.371048 73.312073,90.131195 73.627014,90.923889 73.627014C91.716583 73.627014,92.476730 73.312073,93.037201 72.751587C93.597687 72.191116,93.912628 71.430969,93.912628 70.638275Z" style="fill: rgb(100.000000%,100.000000%,100.000000%);stroke: none;"></path>
  <path d="M86.098740 60.555511C86.098740 59.762817,85.783798 59.002670,85.223312 58.442200C84.662842 57.881714,83.902695 57.566772,83.110001 57.566772C82.317307 57.566772,81.557159 57.881714,80.996689 58.442200C80.436203 59.002670,80.121262 59.762817,80.121262 60.555511C80.121262 61.348206,80.436203 62.108353,80.996689 62.668823C81.557159 63.229309,82.317307 63.544250,83.110001 63.544250C83.902695 63.544250,84.662842 63.229309,85.223312 62.668823C85.783798 62.108353,86.098740 61.348206,86.098740 60.555511Z" style="fill: rgb(100.000000%,100.000000%,100.000000%);stroke: none;"></path>
  <path d="M88.280029 64.282272C88.280029 63.489578,87.965088 62.729431,87.404602 62.168961C86.844131 61.608475,86.083984 61.293533,85.291290 61.293533C84.498596 61.293533,83.738449 61.608475,83.177979 62.168961C82.617493 62.729431,82.302551 63.489578,82.302551 64.282272C82.302551 65.074966,82.617493 65.835114,83.177979 66.395584C83.738449 66.956070,84.498596 67.271011,85.291290 67.271011C86.083984 67.271011,86.844131 66.956070,87.404602 66.395584C87.965088 65.835114,88.280029 65.074966,88.280029 64.282272Z" style="fill: rgb(100.000000%,100.000000%,100.000000%);stroke: none;"></path>
  <path d="M83.662704 55.730240C83.662704 54.937546,83.347763 54.177399,82.787277 53.616928C82.226807 53.056442,81.466660 52.741501,80.673965 52.741501C79.881271 52.741501,79.121124 53.056442,78.560654 53.616928C78.000168 54.177399,77.685226 54.937546,77.685226 55.730240C77.685226 56.522934,78.000168 57.283081,78.560654 57.843552C79.121124 58.404037,79.881271 58.718979,80.673965 58.718979C81.466660 58.718979,82.226807 58.404037,82.787277 57.843552C83.347763 57.283081,83.662704 56.522934,83.662704 55.730240Z" style="fill: rgb(100.000000%,100.000000%,100.000000%);stroke: none;"></path>
  <path d="M85.144165 59.068802C85.144165 58.276108,84.829224 57.515961,84.268738 56.955490C83.708267 56.395004,82.948120 56.080063,82.155426 56.080063C81.362732 56.080063,80.602585 56.395004,80.042114 56.955490C79.481628 57.515961,79.166687 58.276108,79.166687 59.068802C79.166687 59.861496,79.481628 60.621643,80.042114 61.182114C80.602585 61.742599,81.362732 62.057541,82.155426 62.057541C82.948120 62.057541,83.708267 61.742599,84.268738 61.182114C84.829224 60.621643,85.144165 59.861496,85.144165 59.068802Z" style="fill: rgb(100.000000%,100.000000%,100.000000%);stroke: none;"></path>
  <path d="M81.643692 48.029114C81.643692 47.236420,81.328751 46.476273,80.768265 45.915802C80.207794 45.355316,79.447647 45.040375,78.654953 45.040375C77.862259 45.040375,77.102112 45.355316,76.541641 45.915802C75.981155 46.476273,75.666214 47.236420,75.666214 48.029114C75.666214 48.821808,75.981155 49.581955,76.541641 50.142426C77.102112 50.702911,77.862259 51.017853,78.654953 51.017853C79.447647 51.017853,80.207794 50.702911,80.768265 50.142426C81.328751 49.581955,81.643692 48.821808,81.643692 48.029114Z" style="fill: rgb(100.000000%,100.000000%,100.000000%);stroke: none;"></path>
  <path d="M83.187149 53.894043C83.187149 53.101349,82.872208 52.341202,82.311722 51.780731C81.751251 51.220245,80.991104 50.905304,80.198410 50.905304C79.405716 50.905304,78.645569 51.220245,78.085098 51.780731C77.524612 52.341202,77.209671 53.101349,77.209671 53.894043C77.209671 54.686737,77.524612 55.446884,78.085098 56.007355C78.645569 56.567841,79.405716 56.882782,80.198410 56.882782C80.991104 56.882782,81.751251 56.567841,82.311722 56.007355C82.872208 55.446884,83.187149 54.686737,83.187149 53.894043Z" style="fill: rgb(100.000000%,100.000000%,100.000000%);stroke: none;"></path>
  <path d="M80.069321 29.567413C80.069321 28.774719,79.754379 28.014572,79.193893 27.454102C78.633423 26.893616,77.873276 26.578674,77.080582 26.578674C76.287888 26.578674,75.527740 26.893616,74.967270 27.454102C74.406784 28.014572,74.091843 28.774719,74.091843 29.567413C74.091843 30.360107,74.406784 31.120255,74.967270 31.680725C75.527740 32.241211,76.287888 32.556152,77.080582 32.556152C77.873276 32.556152,78.633423 32.241211,79.193893 31.680725C79.754379 31.120255,80.069321 30.360107,80.069321 29.567413Z" style="fill: rgb(100.000000%,100.000000%,100.000000%);stroke: none;"></path>
  <path d="M80.539307 43.971634C80.539307 43.178940,80.224365 42.418793,79.663879 41.858322C79.103409 41.297836,78.343262 40.982895,77.550568 40.982895C76.757874 40.982895,75.997726 41.297836,75.437256 41.858322C74.876770 42.418793,74.561829 43.178940,74.561829 43.971634C74.561829 44.764328,74.876770 45.524475,75.437256 46.084946C75.997726 46.645432,76.757874 46.960373,77.550568 46.960373C78.343262 46.960373,79.103409 46.645432,79.663879 46.084946C80.224365 45.524475,80.539307 44.764328,80.539307 43.971634Z" style="fill: rgb(100.000000%,100.000000%,100.000000%);stroke: none;"></path>
  <path d="M111.610580 4.706223C111.610580 3.913528,111.295639 3.153381,110.735153 2.592911C110.174683 2.032425,109.414536 1.717484,108.621841 1.717484C107.829147 1.717484,107.069000 2.032425,106.508530 2.592911C105.948044 3.153381,105.633102 3.913528,105.633102 4.706223C105.633102 5.498917,105.948044 6.259064,106.508530 6.819534C107.069000 7.380020,107.829147 7.694962,108.621841 7.694962C109.414536 7.694962,110.174683 7.380020,110.735153 6.819534C111.295639 6.259064,111.610580 5.498917,111.610580 4.706223Z" style="fill: rgb(100.000000%,100.000000%,100.000000%);stroke: none;"></path>
  <path d="M85.347260 19.966629C85.347260 19.173935,85.032318 18.413788,84.471832 17.853317C83.911362 17.292831,83.151215 16.977890,82.358521 16.977890C81.565826 16.977890,80.805679 17.292831,80.245209 17.853317C79.684723 18.413788,79.369781 19.173935,79.369781 19.966629C79.369781 20.759323,79.684723 21.519470,80.245209 22.079941C80.805679 22.640427,81.565826 22.955368,82.358521 22.955368C83.151215 22.955368,83.911362 22.640427,84.471832 22.079941C85.032318 21.519470,85.347260 20.759323,85.347260 19.966629Z" style="fill: rgb(100.000000%,100.000000%,100.000000%);stroke: none;"></path>
  <path d="M166.420319 42.290253C166.420319 41.497559,166.105377 40.737411,165.544891 40.176941C164.984421 39.616455,164.224274 39.301514,163.431580 39.301514C162.638885 39.301514,161.878738 39.616455,161.318268 40.176941C160.757782 40.737411,160.442841 41.497559,160.442841 42.290253C160.442841 43.082947,160.757782 43.843094,161.318268 44.403564C161.878738 44.964050,162.638885 45.278992,163.431580 45.278992C164.224274 45.278992,164.984421 44.964050,165.544891 44.403564C166.105377 43.843094,166.420319 43.082947,166.420319 42.290253Z" style="fill: rgb(100.000000%,100.000000%,100.000000%);stroke: none;"></path>
  <path d="M132.376907 14.402939C132.376907 13.610245,132.061966 12.850098,131.501480 12.289627C130.941010 11.729141,130.180862 11.414200,129.388168 11.414200C128.595474 11.414200,127.835327 11.729141,127.274857 12.289627C126.714371 12.850098,126.399429 13.610245,126.399429 14.402939C126.399429 15.195633,126.714371 15.955780,127.274857 16.516251C127.835327 17.076736,128.595474 17.391678,129.388168 17.391678C130.180862 17.391678,130.941010 17.076736,131.501480 16.516251C132.061966 15.955780,132.376907 15.195633,132.376907 14.402939Z" style="fill: rgb(100.000000%,100.000000%,100.000000%);stroke: none;"></path>
  <path d="M164.140976 96.431107C164.140976 95.638412,163.826035 94.878265,163.265549 94.317795C162.705078 93.757309,161.944931 93.442368,161.152237 93.442368C160.359543 93.442368,159.599396 93.757309,159.038925 94.317795C158.478439 94.878265,158.163498 95.638412,158.163498 96.431107C158.163498 97.223801,158.478439 97.983948,159.038925 98.544418C159.599396 99.104904,160.359543 99.419846,161.152237 99.419846C161.944931 99.419846,162.705078 99.104904,163.265549 98.544418C163.826035 97.983948,164.140976 97.223801,164.140976 96.431107Z" style="fill: rgb(100.000000%,100.000000%,100.000000%);stroke: none;"></path>
  <path d="M180.389862 63.289536C180.389862 62.496841,180.074921 61.736694,179.514435 61.176224C178.953964 60.615738,178.193817 60.300797,177.401123 60.300797C176.608429 60.300797,175.848282 60.615738,175.287811 61.176224C174.727325 61.736694,174.412384 62.496841,174.412384 63.289536C174.412384 64.082230,174.727325 64.842377,175.287811 65.402847C175.848282 65.963333,176.608429 66.278275,177.401123 66.278275C178.193817 66.278275,178.953964 65.963333,179.514435 65.402847C180.074921 64.842377,180.389862 64.082230,180.389862 63.289536Z" style="fill: rgb(100.000000%,100.000000%,100.000000%);stroke: none;"></path>
  <path d="M138.204056 131.790283C138.204056 130.997589,137.889114 130.237442,137.328629 129.676971C136.768158 129.116486,136.008011 128.801544,135.215317 128.801544C134.422623 128.801544,133.662476 129.116486,133.102005 129.676971C132.541519 130.237442,132.226578 130.997589,132.226578 131.790283C132.226578 132.582977,132.541519 133.343124,133.102005 133.903595C133.662476 134.464081,134.422623 134.779022,135.215317 134.779022C136.008011 134.779022,136.768158 134.464081,137.328629 133.903595C137.889114 133.343124,138.204056 132.582977,138.204056 131.790283Z" style="fill: rgb(100.000000%,100.000000%,100.000000%);stroke: none;"></path>
  <path d="M146.262009 102.292892C146.262009 101.500198,145.947067 100.740051,145.386581 100.179581C144.826111 99.619095,144.065964 99.304153,143.273270 99.304153C142.480576 99.304153,141.720428 99.619095,141.159958 100.179581C140.599472 100.740051,140.284531 101.500198,140.284531 102.292892C140.284531 103.085587,140.599472 103.845734,141.159958 104.406204C141.720428 104.966690,142.480576 105.281631,143.273270 105.281631C144.065964 105.281631,144.826111 104.966690,145.386581 104.406204C145.947067 103.845734,146.262009 103.085587,146.262009 102.292892Z" style="fill: rgb(100.000000%,100.000000%,100.000000%);stroke: none;"></path>
  <path d="M147.620880 180.129181C147.620880 179.336487,147.305939 178.576340,146.745453 178.015869C146.184982 177.455383,145.424835 177.140442,144.632141 177.140442C143.839447 177.140442,143.079300 177.455383,142.518829 178.015869C141.958344 178.576340,141.643402 179.336487,141.643402 180.129181C141.643402 180.921875,141.958344 181.682022,142.518829 182.242493C143.079300 182.802979,143.839447 183.117920,144.632141 183.117920C145.424835 183.117920,146.184982 182.802979,146.745453 182.242493C147.305939 181.682022,147.620880 180.921875,147.620880 180.129181Z" style="fill: rgb(100.000000%,100.000000%,100.000000%);stroke: none;"></path>
  <path d="M149.563080 145.489822C149.563080 144.697128,149.248138 143.936981,148.687653 143.376511C148.127182 142.816025,147.367035 142.501083,146.574341 142.501083C145.781647 142.501083,145.021500 142.816025,144.461029 143.376511C143.900543 143.936981,143.585602 144.697128,143.585602 145.489822C143.585602 146.282516,143.900543 147.042664,144.461029 147.603134C145.021500 148.163620,145.781647 148.478561,146.574341 148.478561C147.367035 148.478561,148.127182 148.163620,148.687653 147.603134C149.248138 147.042664,149.563080 146.282516,149.563080 145.489822Z" style="fill: rgb(100.000000%,100.000000%,100.000000%);stroke: none;"></path>
  <path d="M85.388809 193.675644C85.388809 192.882950,85.073868 192.122803,84.513382 191.562332C83.952911 191.001846,83.192764 190.686905,82.400070 190.686905C81.607376 190.686905,80.847229 191.001846,80.286758 191.562332C79.726273 192.122803,79.411331 192.882950,79.411331 193.675644C79.411331 194.468338,79.726273 195.228485,80.286758 195.788956C80.847229 196.349442,81.607376 196.664383,82.400070 196.664383C83.192764 196.664383,83.952911 196.349442,84.513382 195.788956C85.073868 195.228485,85.388809 194.468338,85.388809 193.675644Z" style="fill: rgb(100.000000%,100.000000%,100.000000%);stroke: none;"></path>
  <path d="M128.196365 193.042877C128.196365 192.250183,127.881424 191.490036,127.320938 190.929565C126.760468 190.369080,126.000320 190.054138,125.207626 190.054138C124.414932 190.054138,123.654785 190.369080,123.094315 190.929565C122.533829 191.490036,122.218887 192.250183,122.218887 193.042877C122.218887 193.835571,122.533829 194.595718,123.094315 195.156189C123.654785 195.716675,124.414932 196.031616,125.207626 196.031616C126.000320 196.031616,126.760468 195.716675,127.320938 195.156189C127.881424 194.595718,128.196365 193.835571,128.196365 193.042877Z" style="fill: rgb(100.000000%,100.000000%,100.000000%);stroke: none;"></path>
  <path d="M62.447174 144.897354C62.447174 144.104660,62.132233 143.344513,61.571747 142.784042C61.011276 142.223557,60.251129 141.908615,59.458435 141.908615C58.665741 141.908615,57.905594 142.223557,57.345123 142.784042C56.784637 143.344513,56.469696 144.104660,56.469696 144.897354C56.469696 145.690048,56.784637 146.450195,57.345123 147.010666C57.905594 147.571152,58.665741 147.886093,59.458435 147.886093C60.251129 147.886093,61.011276 147.571152,61.571747 147.010666C62.132233 146.450195,62.447174 145.690048,62.447174 144.897354Z" style="fill: rgb(100.000000%,100.000000%,100.000000%);stroke: none;"></path>
  <path d="M65.082855 180.649872C65.082855 179.857178,64.767914 179.097031,64.207428 178.536560C63.646957 177.976074,62.886810 177.661133,62.094116 177.661133C61.301422 177.661133,60.541275 177.976074,59.980804 178.536560C59.420319 179.097031,59.105377 179.857178,59.105377 180.649872C59.105377 181.442566,59.420319 182.202713,59.980804 182.763184C60.541275 183.323669,61.301422 183.638611,62.094116 183.638611C62.886810 183.638611,63.646957 183.323669,64.207428 182.763184C64.767914 182.202713,65.082855 181.442566,65.082855 180.649872Z" style="fill: rgb(100.000000%,100.000000%,100.000000%);stroke: none;"></path>
  <path d="M69.996246 116.289154C69.526703 107.531845,69.194580 98.767715,69.000000 90.000000C68.896240 85.324966,68.831604 80.649048,68.835022 75.972855C68.837860 72.093887,68.887543 68.215042,69.000000 64.337692C69.094025 61.096069,69.332108 57.671371,71.567932 55.328232C73.645782 53.150650,76.774170 52.660233,79.717422 52.066330C81.931351 51.619583,84.174133 51.062195,86.404617 51.451645C88.672668 51.847656,90.618729 53.167877,92.581146 54.360489C95.547134 56.163010,98.806778 57.919891,99.993027 61.186966C101.368912 64.976334,99.360718 68.863510,97.638489 72.520065C95.118637 77.870117,93.079788 83.750076,88.223572 87.168472C82.746719 91.023758,75.677139 90.483795,69.000000 90.000000C62.117325 89.501312,55.198303 89.219482,48.430496 87.855484C36.063034 85.362915,24.315552 78.979370,19.329742 67.507751C11.639816 49.814331,22.556595 30.548691,38.968552 18.689484C55.175995 6.978058,76.544876 2.508667,91.204132 14.826843C99.359177 21.679535,102.883667 32.689606,99.440506 42.712967C97.966339 47.004395,95.258240 50.704910,92.581146 54.360489C91.379303 56.001617,90.169250 57.653702,88.630829 58.987244C87.225082 60.205780,85.592072 61.116409,83.999481 62.075211C81.941132 63.314423,79.895065 64.659576,77.537033 65.146851C74.696075 65.733917,71.815216 65.007812,69.000000 64.337692C63.697891 63.075607,58.347153 62.014633,52.938522 61.339188C41.177856 59.870499,28.788422 60.414642,19.329742 67.507751C2.870895 79.850342,2.856354 103.331268,10.764221 123.351944C19.563599 145.629700,38.227905 164.027222,60.578125 160.085724C76.216690 157.327835,87.960709 142.540375,104.058701 142.764191C119.567871 142.979813,130.753372 157.095520,145.749619 160.198898C165.393280 164.264038,183.952667 150.457764,189.291565 130.532883C194.490509 111.130295,186.065964 90.412216,167.901566 82.665039C153.633987 76.579880,137.573944 81.195663,122.316513 79.191330C113.844238 78.078354,105.826111 74.935806,97.638489 72.520065C94.343369 71.547852,90.923889 70.638275,88.373795 68.322281C86.476715 66.599350,85.291290 64.282272,83.999481 62.075211C83.110001 60.555511,82.155426 59.068802,81.440918 57.458603C80.673965 55.730240,80.198410 53.894043,79.717422 52.066330C78.654953 48.029114,77.550568 43.971634,77.414291 39.795166C77.080582 29.567413,82.358521 19.966629,91.204132 14.826843C108.621841 4.706223,129.388168 14.402939,145.630676 27.708298C163.431580 42.290253,177.401123 63.289536,167.901566 82.665039C161.152237 96.431107,143.273270 102.292892,139.163437 117.337601C135.215317 131.790283,146.574341 145.489822,145.749619 160.198898C144.632141 180.129181,125.207626 193.042877,104.147369 193.354187C82.400070 193.675644,62.094116 180.649872,60.578125 160.085724C59.458435 144.897354,70.810593 131.477188,69.996246 116.289154" style="stroke:rgb(0.000000%,0.000000%,0.000000%); stroke-width: 0.498138;stroke-linecap: round;stroke-linejoin: round;stroke-miterlimit: 10.000000;fill: none;"></path>
  <path d="M69.996246 116.289154C69.526703 107.531845,69.194580 98.767715,69.000000 90.000000C68.896240 85.324966,68.831604 80.649048,68.835022 75.972855C68.837860 72.093887,68.887543 68.215042,69.000000 64.337692" style="stroke:rgb(0.000000%,0.000000%,0.000000%); stroke-width: 1.494400;stroke-linecap: round;stroke-linejoin: round;stroke-miterlimit: 10.000000;fill: none;"></path>
  <path d="M60.578125 160.085724C59.458435 144.897354,70.810593 131.477188,69.996246 116.289154" style="stroke:rgb(0.000000%,0.000000%,0.000000%); stroke-width: 1.494400;stroke-linecap: round;stroke-linejoin: round;stroke-miterlimit: 10.000000;fill: none;"></path>
  <path d="M71.988739 90.000000C71.988739 89.207306,71.673798 88.447159,71.113312 87.886688C70.552841 87.326202,69.792694 87.011261,69.000000 87.011261C68.207306 87.011261,67.447159 87.326202,66.886688 87.886688C66.326202 88.447159,66.011261 89.207306,66.011261 90.000000C66.011261 90.792694,66.326202 91.552841,66.886688 92.113312C67.447159 92.673798,68.207306 92.988739,69.000000 92.988739C69.792694 92.988739,70.552841 92.673798,71.113312 92.113312C71.673798 91.552841,71.988739 90.792694,71.988739 90.000000Z" style="fill: rgb(100.000000%,100.000000%,100.000000%);stroke: none;"></path>
  <path d="M69.395004 103.148468C69.228958 98.766815,69.097290 94.383850,69.000000 90.000000C68.948120 87.662476,68.906021 85.324738,68.877319 82.986847" style="stroke:rgb(0.000000%,0.000000%,0.000000%); stroke-width: 1.494400;stroke-linecap: round;stroke-linejoin: round;stroke-miterlimit: 10.000000;fill: none;"></path>
  <path d="M82.706161 52.066330C82.706161 51.273636,82.391220 50.513489,81.830734 49.953018C81.270264 49.392532,80.510117 49.077591,79.717422 49.077591C78.924728 49.077591,78.164581 49.392532,77.604111 49.953018C77.043625 50.513489,76.728683 51.273636,76.728683 52.066330C76.728683 52.859024,77.043625 53.619171,77.604111 54.179642C78.164581 54.740128,78.924728 55.055069,79.717422 55.055069C80.510117 55.055069,81.270264 54.740128,81.830734 54.179642C82.391220 53.619171,82.706161 52.859024,82.706161 52.066330Z" style="fill: rgb(100.000000%,100.000000%,100.000000%);stroke: none;"></path>
  <path d="M75.318161 53.103394C76.727890 52.634354,78.245804 52.363281,79.717422 52.066330C80.824387 51.842957,81.938568 51.591919,83.054825 51.445404" style="stroke:rgb(0.000000%,0.000000%,0.000000%); stroke-width: 0.498138;stroke-linecap: round;stroke-linejoin: round;stroke-miterlimit: 10.000000;fill: none;"></path>
  <path d="M100.627228 72.520065C100.627228 71.727371,100.312286 70.967224,99.751801 70.406754C99.191330 69.846268,98.431183 69.531326,97.638489 69.531326C96.845795 69.531326,96.085648 69.846268,95.525177 70.406754C94.964691 70.967224,94.649750 71.727371,94.649750 72.520065C94.649750 73.312759,94.964691 74.072906,95.525177 74.633377C96.085648 75.193863,96.845795 75.508804,97.638489 75.508804C98.431183 75.508804,99.191330 75.193863,99.751801 74.633377C100.312286 74.072906,100.627228 73.312759,100.627228 72.520065Z" style="fill: rgb(100.000000%,100.000000%,100.000000%);stroke: none;"></path>
  <path d="M99.977539 66.903336C99.432205 68.805862,98.499603 70.691788,97.638489 72.520065C96.378555 75.195099,95.238876 78.002609,93.807159 80.568649" style="stroke:rgb(0.000000%,0.000000%,0.000000%); stroke-width: 0.498138;stroke-linecap: round;stroke-linejoin: round;stroke-miterlimit: 10.000000;fill: none;"></path>
  <path d="M22.318481 67.507751C22.318481 66.715057,22.003540 65.954910,21.443054 65.394440C20.882584 64.833954,20.122437 64.519012,19.329742 64.519012C18.537048 64.519012,17.776901 64.833954,17.216431 65.394440C16.655945 65.954910,16.341003 66.715057,16.341003 67.507751C16.341003 68.300446,16.655945 69.060593,17.216431 69.621063C17.776901 70.181549,18.537048 70.496490,19.329742 70.496490C20.122437 70.496490,20.882584 70.181549,21.443054 69.621063C22.003540 69.060593,22.318481 68.300446,22.318481 67.507751Z" style="fill: rgb(100.000000%,100.000000%,100.000000%);stroke: none;"></path>
  <path d="M31.111984 81.048752C26.005966 77.707352,21.822647 73.243561,19.329742 67.507751C15.484772 58.661041,16.291489 49.421265,20.110947 40.910767" style="stroke:rgb(0.000000%,0.000000%,0.000000%); stroke-width: 0.498138;stroke-linecap: round;stroke-linejoin: round;stroke-miterlimit: 10.000000;fill: none;"></path>
  <path d="M95.569885 54.360489C95.569885 53.567795,95.254944 52.807648,94.694458 52.247177C94.133987 51.686691,93.373840 51.371750,92.581146 51.371750C91.788452 51.371750,91.028305 51.686691,90.467834 52.247177C89.907349 52.807648,89.592407 53.567795,89.592407 54.360489C89.592407 55.153183,89.907349 55.913330,90.467834 56.473801C91.028305 57.034286,91.788452 57.349228,92.581146 57.349228C93.373840 57.349228,94.133987 57.034286,94.694458 56.473801C95.254944 55.913330,95.569885 55.153183,95.569885 54.360489Z" style="fill: rgb(100.000000%,100.000000%,100.000000%);stroke: none;"></path>
  <path d="M96.461914 48.775177C95.265991 50.693680,93.919693 52.532700,92.581146 54.360489C91.980225 55.181061,91.377243 56.004364,90.732193 56.789230" style="stroke:rgb(0.000000%,0.000000%,0.000000%); stroke-width: 0.498138;stroke-linecap: round;stroke-linejoin: round;stroke-miterlimit: 10.000000;fill: none;"></path>
  <path d="M71.988739 64.337692C71.988739 63.544998,71.673798 62.784851,71.113312 62.224380C70.552841 61.663895,69.792694 61.348953,69.000000 61.348953C68.207306 61.348953,67.447159 61.663895,66.886688 62.224380C66.326202 62.784851,66.011261 63.544998,66.011261 64.337692C66.011261 65.130386,66.326202 65.890533,66.886688 66.451004C67.447159 67.011490,68.207306 67.326431,69.000000 67.326431C69.792694 67.326431,70.552841 67.011490,71.113312 66.451004C71.673798 65.890533,71.988739 65.130386,71.988739 64.337692Z" style="fill: rgb(100.000000%,100.000000%,100.000000%);stroke: none;"></path>
  <path d="M73.258850 65.213715C71.831619 65.021805,70.407608 64.672745,69.000000 64.337692C66.348938 63.706650,63.685730 63.125885,61.009201 62.618439" style="stroke:rgb(0.000000%,0.000000%,0.000000%); stroke-width: 0.498138;stroke-linecap: round;stroke-linejoin: round;stroke-miterlimit: 10.000000;fill: none;"></path>
  <path d="M63.566864 160.085724C63.566864 159.293030,63.251923 158.532883,62.691437 157.972412C62.130966 157.411926,61.370819 157.096985,60.578125 157.096985C59.785431 157.096985,59.025284 157.411926,58.464813 157.972412C57.904327 158.532883,57.589386 159.293030,57.589386 160.085724C57.589386 160.878418,57.904327 161.638565,58.464813 162.199036C59.025284 162.759521,59.785431 163.074463,60.578125 163.074463C61.370819 163.074463,62.130966 162.759521,62.691437 162.199036C63.251923 161.638565,63.566864 160.878418,63.566864 160.085724Z" style="fill: rgb(100.000000%,100.000000%,100.000000%);stroke: none;"></path>
  <path d="M30.589615 151.551071C39.149384 158.442474,49.403015 162.056473,60.578125 160.085724C68.397415 158.706772,75.243057 154.320435,82.146133 150.306808" style="stroke:rgb(0.000000%,0.000000%,0.000000%); stroke-width: 0.498138;stroke-linecap: round;stroke-linejoin: round;stroke-miterlimit: 10.000000;fill: none;"></path>
  <path d="M170.890305 82.665039C170.890305 81.872345,170.575363 81.112198,170.014877 80.551727C169.454407 79.991241,168.694260 79.676300,167.901566 79.676300C167.108871 79.676300,166.348724 79.991241,165.788254 80.551727C165.227768 81.112198,164.912827 81.872345,164.912827 82.665039C164.912827 83.457733,165.227768 84.217880,165.788254 84.778351C166.348724 85.338837,167.108871 85.653778,167.901566 85.653778C168.694260 85.653778,169.454407 85.338837,170.014877 84.778351C170.575363 84.217880,170.890305 83.457733,170.890305 82.665039Z" style="fill: rgb(100.000000%,100.000000%,100.000000%);stroke: none;"></path>
  <path d="M187.357803 102.228180C183.630997 93.654938,176.983765 86.538620,167.901566 82.665039C160.767776 79.622452,153.185867 79.255112,145.480225 79.397873" style="stroke:rgb(0.000000%,0.000000%,0.000000%); stroke-width: 0.498138;stroke-linecap: round;stroke-linejoin: round;stroke-miterlimit: 10.000000;fill: none;"></path>
  <path d="M86.988220 62.075211C86.988220 61.282516,86.673279 60.522369,86.112793 59.961899C85.552322 59.401413,84.792175 59.086472,83.999481 59.086472C83.206787 59.086472,82.446640 59.401413,81.886169 59.961899C81.325684 60.522369,81.010742 61.282516,81.010742 62.075211C81.010742 62.867905,81.325684 63.628052,81.886169 64.188522C82.446640 64.749008,83.206787 65.063950,83.999481 65.063950C84.792175 65.063950,85.552322 64.749008,86.112793 64.188522C86.673279 63.628052,86.988220 62.867905,86.988220 62.075211Z" style="fill: rgb(100.000000%,100.000000%,100.000000%);stroke: none;"></path>
  <path d="M85.959656 65.380280C85.264694 64.309769,84.645386 63.178741,83.999481 62.075211C83.554733 61.315353,83.093719 60.563751,82.654572 59.800827" style="stroke:rgb(0.000000%,0.000000%,0.000000%); stroke-width: 0.498138;stroke-linecap: round;stroke-linejoin: round;stroke-miterlimit: 10.000000;fill: none;"></path>
  <path d="M94.192871 14.826843C94.192871 14.034149,93.877930 13.274002,93.317444 12.713531C92.756973 12.153046,91.996826 11.838104,91.204132 11.838104C90.411438 11.838104,89.651291 12.153046,89.090820 12.713531C88.530334 13.274002,88.215393 14.034149,88.215393 14.826843C88.215393 15.619537,88.530334 16.379684,89.090820 16.940155C89.651291 17.500641,90.411438 17.815582,91.204132 17.815582C91.996826 17.815582,92.756973 17.500641,93.317444 16.940155C93.877930 16.379684,94.192871 15.619537,94.192871 14.826843Z" style="fill: rgb(100.000000%,100.000000%,100.000000%);stroke: none;"></path>
  <path d="M80.866974 25.403000C83.250443 21.081863,86.781326 17.396729,91.204132 14.826843C99.912994 9.766525,109.459000 9.660553,118.858109 12.482834" style="stroke:rgb(0.000000%,0.000000%,0.000000%); stroke-width: 0.498138;stroke-linecap: round;stroke-linejoin: round;stroke-miterlimit: 10.000000;fill: none;"></path>
  <path d="M148.738358 160.198898C148.738358 159.406204,148.423416 158.646057,147.862930 158.085587C147.302460 157.525101,146.542313 157.210159,145.749619 157.210159C144.956924 157.210159,144.196777 157.525101,143.636307 158.085587C143.075821 158.646057,142.760880 159.406204,142.760880 160.198898C142.760880 160.991592,143.075821 161.751740,143.636307 162.312210C144.196777 162.872696,144.956924 163.187637,145.749619 163.187637C146.542313 163.187637,147.302460 162.872696,147.862930 162.312210C148.423416 161.751740,148.738358 160.991592,148.738358 160.198898Z" style="fill: rgb(100.000000%,100.000000%,100.000000%);stroke: none;"></path>
  <path d="M141.285263 138.672119C143.528412 145.742218,146.161972 152.844360,145.749619 160.198898C145.190872 170.164047,140.055374 178.375046,132.427017 184.133667" style="stroke:rgb(0.000000%,0.000000%,0.000000%); stroke-width: 0.498138;stroke-linecap: round;stroke-linejoin: round;stroke-miterlimit: 10.000000;fill: none;"></path>
  <path d="M68.835022 75.972855C68.837296 72.869675,68.869553 69.766556,68.939941 66.664230" style="stroke:rgb(0.000000%,0.000000%,0.000000%); stroke-width: 0.498138;stroke-linecap: round;stroke-linejoin: round;stroke-miterlimit: 10.000000;fill: none;"></path>
  <path d="M70.777664 71.314224C70.155655 69.767960,69.542664 68.218094,68.939941 66.664230C68.267365 68.189163,67.604843 69.718521,66.951309 71.251694Z" style="stroke:rgb(0.000000%,0.000000%,0.000000%); stroke-width: 0.498138;fill: rgb(0.000000%,0.000000%,0.000000%);"></path>
  <path d="M68.835022 75.972855C68.837296 72.869675,68.869553 69.766556,68.939941 66.664230" style="stroke:rgb(0.000000%,0.000000%,0.000000%); stroke-width: 0.498138;stroke-linecap: round;stroke-linejoin: round;stroke-miterlimit: 10.000000;fill: none;"></path>
  <path d="M70.035645 69.456894C69.666885 68.527390,69.301559 67.596527,68.939941 66.664230C68.536392 67.579163,68.136490 68.495682,67.739960 69.413681Z" style="stroke:rgb(0.000000%,0.000000%,0.000000%); stroke-width: 0.498138;fill: rgb(0.000000%,0.000000%,0.000000%);"></path>
  <path d="M86.404617 51.451645C88.219070 51.768448,89.827438 52.676758,91.402969 53.638031" style="stroke:rgb(0.000000%,0.000000%,0.000000%); stroke-width: 0.498138;stroke-linecap: round;stroke-linejoin: round;stroke-miterlimit: 10.000000;fill: none;"></path>
  <path d="M88.420090 53.317886C89.412399 53.345474,90.409195 53.482620,91.402969 53.638031C90.810165 52.825424,90.202316 52.023605,89.520187 51.302414Z" style="stroke:rgb(0.000000%,0.000000%,0.000000%); stroke-width: 0.498138;fill: rgb(0.000000%,0.000000%,0.000000%);"></path>
  <path d="M99.993027 61.186966C101.093735 64.218475,100.028625 67.312576,98.676758 70.301132" style="stroke:rgb(0.000000%,0.000000%,0.000000%); stroke-width: 0.498138;stroke-linecap: round;stroke-linejoin: round;stroke-miterlimit: 10.000000;fill: none;"></path>
  <path d="M98.638321 67.301376C98.712631 68.283112,98.709167 69.291550,98.676758 70.301132C99.413574 69.610184,100.129105 68.899567,100.770767 68.152847Z" style="stroke:rgb(0.000000%,0.000000%,0.000000%); stroke-width: 0.498138;fill: rgb(0.000000%,0.000000%,0.000000%);"></path>
  <path d="M48.430496 87.855484C38.536484 85.861420,29.039261 81.377106,23.083435 73.789658" style="stroke:rgb(0.000000%,0.000000%,0.000000%); stroke-width: 0.498138;stroke-linecap: round;stroke-linejoin: round;stroke-miterlimit: 10.000000;fill: none;"></path>
  <path d="M25.767639 75.129227C24.852402 74.726929,23.956665 74.281082,23.083435 73.789658C23.353394 74.754623,23.671494 75.703278,24.034180 76.634903Z" style="stroke:rgb(0.000000%,0.000000%,0.000000%); stroke-width: 0.498138;fill: rgb(0.000000%,0.000000%,0.000000%);"></path>
  <path d="M88.630829 58.987244C87.506226 59.962082,86.236176 60.739838,84.957733 61.502869" style="stroke:rgb(0.000000%,0.000000%,0.000000%); stroke-width: 0.498138;stroke-linecap: round;stroke-linejoin: round;stroke-miterlimit: 10.000000;fill: none;"></path>
  <path d="M86.674591 59.042648C86.148254 59.890991,85.556015 60.699280,84.957733 61.502869C85.949020 61.357727,86.939331 61.204956,87.911377 60.977280Z" style="stroke:rgb(0.000000%,0.000000%,0.000000%); stroke-width: 0.498138;fill: rgb(0.000000%,0.000000%,0.000000%);"></path>
  <path d="M77.537033 65.146851C75.264252 65.616501,72.965942 65.245728,70.696136 64.735519" style="stroke:rgb(0.000000%,0.000000%,0.000000%); stroke-width: 0.498138;stroke-linecap: round;stroke-linejoin: round;stroke-miterlimit: 10.000000;fill: none;"></path>
  <path d="M73.626282 64.091843C72.671722 64.366180,71.686447 64.563889,70.696136 64.735519C71.517746 65.314438,72.354218 65.871338,73.223175 66.352341Z" style="stroke:rgb(0.000000%,0.000000%,0.000000%); stroke-width: 0.498138;fill: rgb(0.000000%,0.000000%,0.000000%);"></path>
  <path d="M104.058701 142.764191C116.466080 142.936691,126.106308 152.005310,137.144211 157.214752" style="stroke:rgb(0.000000%,0.000000%,0.000000%); stroke-width: 0.498138;stroke-linecap: round;stroke-linejoin: round;stroke-miterlimit: 10.000000;fill: none;"></path>
  <path d="M134.152039 156.995529C135.150284 157.091125,136.147858 157.166626,137.144211 157.214752C136.473724 156.476196,135.821732 155.717407,135.183472 154.943924Z" style="stroke:rgb(0.000000%,0.000000%,0.000000%); stroke-width: 0.498138;fill: rgb(0.000000%,0.000000%,0.000000%);"></path>
  <path d="M122.316513 79.191330C115.538666 78.300949,109.051483 76.111618,102.535645 74.034637" style="stroke:rgb(0.000000%,0.000000%,0.000000%); stroke-width: 0.498138;stroke-linecap: round;stroke-linejoin: round;stroke-miterlimit: 10.000000;fill: none;"></path>
  <path d="M105.525360 73.785446C104.528931 73.869034,103.532120 73.950607,102.535645 74.034637L104.825867 75.972519Z" style="stroke:rgb(0.000000%,0.000000%,0.000000%); stroke-width: 0.498138;fill: rgb(0.000000%,0.000000%,0.000000%);"></path>
  <path d="M81.440918 57.458603C80.827347 56.075912,80.400284 54.624191,80.007736 53.163025" style="stroke:rgb(0.000000%,0.000000%,0.000000%); stroke-width: 0.498138;stroke-linecap: round;stroke-linejoin: round;stroke-miterlimit: 10.000000;fill: none;"></path>
  <path d="M81.909286 55.483398C81.240311 54.741425,80.617844 53.957031,80.007736 53.163025C79.877670 54.155884,79.763168 55.150696,79.711533 56.148376Z" style="stroke:rgb(0.000000%,0.000000%,0.000000%); stroke-width: 0.498138;fill: rgb(0.000000%,0.000000%,0.000000%);"></path>
  <path d="M77.414291 39.795166C77.147324 31.612930,80.471832 23.831955,86.341309 18.415298" style="stroke:rgb(0.000000%,0.000000%,0.000000%); stroke-width: 0.498138;stroke-linecap: round;stroke-linejoin: round;stroke-miterlimit: 10.000000;fill: none;"></path>
  <path d="M85.232758 21.202835C85.550522 20.257462,85.920181 19.326828,86.341309 18.415298C85.398972 18.762039,84.479507 19.158707,83.586334 19.602463Z" style="stroke:rgb(0.000000%,0.000000%,0.000000%); stroke-width: 0.498138;fill: rgb(0.000000%,0.000000%,0.000000%);"></path>
  <path d="M139.163437 117.337601C136.004929 128.899796,142.643066 139.979965,145.002365 151.480637" style="stroke:rgb(0.000000%,0.000000%,0.000000%); stroke-width: 0.498138;stroke-linecap: round;stroke-linejoin: round;stroke-miterlimit: 10.000000;fill: none;"></path>
  <path d="M143.251968 149.044357C143.857590 149.844391,144.443649 150.655212,145.002365 151.480637C145.190964 150.501892,145.349930 149.514160,145.487411 148.520218Z" style="stroke:rgb(0.000000%,0.000000%,0.000000%); stroke-width: 0.498138;fill: rgb(0.000000%,0.000000%,0.000000%);"></path>
  <path d="M67.005600 118.999359L72.986893 118.999359L72.986893 111.578964L67.005600 111.578964Z" style="fill: rgb(100.000000%,100.000000%,100.000000%);stroke: none;"></path>
  <path d="M67.005600 120.999359L72.986893 120.999359L72.986893 113.578964L67.005600 113.578964Z" style="fill: rgb(100.000000%,100.000000%,100.000000%);stroke: none;"></path>
  <g transform="translate(67.505600 119.499359)" style="fill: rgb(0.000000%,0.000000%,0.000000%);">
    <use xlink:href="#GLYPHcmr10_49"></use>
  </g>
  <path d="M68.577286 58.038437L74.558578 58.038437L74.558578 50.618042L68.577286 50.618042Z" style="fill: rgb(100.000000%,100.000000%,100.000000%);stroke: none;"></path>
  <path d="M68.577286 60.038437L74.558578 60.038437L74.558578 52.618042L68.577286 52.618042Z" style="fill: rgb(100.000000%,100.000000%,100.000000%);stroke: none;"></path>
  <g transform="translate(69.077286 58.538437)" style="fill: rgb(0.000000%,0.000000%,0.000000%);">
    <use xlink:href="#GLYPHcmr10_50"></use>
  </g>
  <path d="M85.232925 89.878677L91.214218 89.878677L91.214218 82.458282L85.232925 82.458282Z" style="fill: rgb(100.000000%,100.000000%,100.000000%);stroke: none;"></path>
  <path d="M85.232925 91.878677L91.214218 91.878677L91.214218 84.458282L85.232925 84.458282Z" style="fill: rgb(100.000000%,100.000000%,100.000000%);stroke: none;"></path>
  <g transform="translate(85.732925 90.378677)" style="fill: rgb(0.000000%,0.000000%,0.000000%);">
    <use xlink:href="#GLYPHcmr10_51"></use>
  </g>
  <path d="M35.977905 21.399689L41.959198 21.399689L41.959198 13.979294L35.977905 13.979294Z" style="fill: rgb(100.000000%,100.000000%,100.000000%);stroke: none;"></path>
  <path d="M35.977905 23.399689L41.959198 23.399689L41.959198 15.979294L35.977905 15.979294Z" style="fill: rgb(100.000000%,100.000000%,100.000000%);stroke: none;"></path>
  <g transform="translate(36.477905 21.899689)" style="fill: rgb(0.000000%,0.000000%,0.000000%);">
    <use xlink:href="#GLYPHcmr10_52"></use>
  </g>
  <path d="M96.449860 45.423172L102.431152 45.423172L102.431152 38.002777L96.449860 38.002777Z" style="fill: rgb(100.000000%,100.000000%,100.000000%);stroke: none;"></path>
  <path d="M96.449860 47.423172L102.431152 47.423172L102.431152 40.002777L96.449860 40.002777Z" style="fill: rgb(100.000000%,100.000000%,100.000000%);stroke: none;"></path>
  <g transform="translate(96.949860 45.923172)" style="fill: rgb(0.000000%,0.000000%,0.000000%);">
    <use xlink:href="#GLYPHcmr10_53"></use>
  </g>
  <path d="M49.947876 64.049393L55.929169 64.049393L55.929169 56.628998L49.947876 56.628998Z" style="fill: rgb(100.000000%,100.000000%,100.000000%);stroke: none;"></path>
  <path d="M49.947876 66.049393L55.929169 66.049393L55.929169 58.628998L49.947876 58.628998Z" style="fill: rgb(100.000000%,100.000000%,100.000000%);stroke: none;"></path>
  <g transform="translate(50.447876 64.549393)" style="fill: rgb(0.000000%,0.000000%,0.000000%);">
    <use xlink:href="#GLYPHcmr10_54"></use>
  </g>
  <path d="M7.773575 126.062149L13.754868 126.062149L13.754868 118.641754L7.773575 118.641754Z" style="fill: rgb(100.000000%,100.000000%,100.000000%);stroke: none;"></path>
  <path d="M7.773575 128.062149L13.754868 128.062149L13.754868 120.641754L7.773575 120.641754Z" style="fill: rgb(100.000000%,100.000000%,100.000000%);stroke: none;"></path>
  <g transform="translate(8.273575 126.562149)" style="fill: rgb(0.000000%,0.000000%,0.000000%);">
    <use xlink:href="#GLYPHcmr10_55"></use>
  </g>
  <path d="M186.300919 133.243088L192.282211 133.243088L192.282211 125.822693L186.300919 125.822693Z" style="fill: rgb(100.000000%,100.000000%,100.000000%);stroke: none;"></path>
  <path d="M186.300919 135.243088L192.282211 135.243088L192.282211 127.822693L186.300919 127.822693Z" style="fill: rgb(100.000000%,100.000000%,100.000000%);stroke: none;"></path>
  <g transform="translate(186.800919 133.743088)" style="fill: rgb(0.000000%,0.000000%,0.000000%);">
    <use xlink:href="#GLYPHcmr10_56"></use>
  </g>
  <path d="M85.383148 71.032486L91.364441 71.032486L91.364441 63.612091L85.383148 63.612091Z" style="fill: rgb(100.000000%,100.000000%,100.000000%);stroke: none;"></path>
  <path d="M85.383148 73.032486L91.364441 73.032486L91.364441 65.612091L85.383148 65.612091Z" style="fill: rgb(100.000000%,100.000000%,100.000000%);stroke: none;"></path>
  <g transform="translate(85.883148 71.532486)" style="fill: rgb(0.000000%,0.000000%,0.000000%);">
    <use xlink:href="#GLYPHcmr10_57"></use>
  </g>
  <path d="M140.149323 30.418503L151.112030 30.418503L151.112030 22.998108L140.149323 22.998108Z" style="fill: rgb(100.000000%,100.000000%,100.000000%);stroke: none;"></path>
  <path d="M140.149323 32.418503L151.112030 32.418503L151.112030 24.998108L140.149323 24.998108Z" style="fill: rgb(100.000000%,100.000000%,100.000000%);stroke: none;"></path>
  <g transform="translate(140.649323 30.918503)" style="fill: rgb(0.000000%,0.000000%,0.000000%);">
    <use xlink:href="#GLYPHcmr10_49"></use>
    <use xlink:href="#GLYPHcmr10_48" x="5.000095"></use>
  </g>
  <path d="M98.666016 196.064392L109.628723 196.064392L109.628723 188.643997L98.666016 188.643997Z" style="fill: rgb(100.000000%,100.000000%,100.000000%);stroke: none;"></path>
  <path d="M98.666016 198.064392L109.628723 198.064392L109.628723 190.643997L98.666016 190.643997Z" style="fill: rgb(100.000000%,100.000000%,100.000000%);stroke: none;"></path>
  <g transform="translate(99.166016 196.564392)" style="fill: rgb(0.000000%,0.000000%,0.000000%);">
    <use xlink:href="#GLYPHcmr10_49"></use>
    <use xlink:href="#GLYPHcmr10_49" x="5.000095"></use>
  </g>
</svg>
