<?xml version="1.0"?>
<!-- Created by MetaPost 1.999 on 2021.07.06:0007 -->
<svg version="1.1" xmlns="http://www.w3.org/2000/svg" xmlns:xlink="http://www.w3.org/1999/xlink" width="187.962570" height="204.334763" viewBox="0 0 187.962570 204.334763">
<!-- Original BoundingBox: -34.035751 -59.178421 153.926819 145.156342 -->
  <defs>
    <g transform="scale(0.009963,0.009963)" id="GLYPHcmr10_48">
      <path style="fill-rule: evenodd;" d="M460.000000 -320.000000C460.000000 -400.000000,455.000000 -480.000000,420.000000 -554.000000C374.000000 -650.000000,292.000000 -666.000000,250.000000 -666.000000C190.000000 -666.000000,117.000000 -640.000000,76.000000 -547.000000C44.000000 -478.000000,39.000000 -400.000000,39.000000 -320.000000C39.000000 -245.000000,43.000000 -155.000000,84.000000 -79.000000C127.000000 2.000000,200.000000 22.000000,249.000000 22.000000C303.000000 22.000000,379.000000 1.000000,423.000000 -94.000000C455.000000 -163.000000,460.000000 -241.000000,460.000000 -320.000000M249.000000 -0.000000C210.000000 -0.000000,151.000000 -25.000000,133.000000 -121.000000C122.000000 -181.000000,122.000000 -273.000000,122.000000 -332.000000C122.000000 -396.000000,122.000000 -462.000000,130.000000 -516.000000C149.000000 -635.000000,224.000000 -644.000000,249.000000 -644.000000C282.000000 -644.000000,348.000000 -626.000000,367.000000 -527.000000C377.000000 -471.000000,377.000000 -395.000000,377.000000 -332.000000C377.000000 -257.000000,377.000000 -189.000000,366.000000 -125.000000C351.000000 -30.000000,294.000000 -0.000000,249.000000 -0.000000"></path>
    </g>
    <g transform="scale(0.009963,0.009963)" id="GLYPHcmr10_49">
      <path style="fill-rule: evenodd;" d="M294.000000 -640.000000C294.000000 -664.000000,294.000000 -666.000000,271.000000 -666.000000C209.000000 -602.000000,121.000000 -602.000000,89.000000 -602.000000L89.000000 -571.000000C109.000000 -571.000000,168.000000 -571.000000,220.000000 -597.000000L220.000000 -79.000000C220.000000 -43.000000,217.000000 -31.000000,127.000000 -31.000000L95.000000 -31.000000L95.000000 -0.000000L257.000000 -0.000000L130.000000 -3.000000L217.000000 -3.000000L257.000000 -3.000000L297.000000 -3.000000L384.000000 -3.000000L419.000000 -0.000000L419.000000 -31.000000L387.000000 -31.000000C297.000000 -31.000000,294.000000 -42.000000,294.000000 -79.000000"></path>
    </g>
    <g transform="scale(0.009963,0.009963)" id="GLYPHcmr10_50">
      <path style="fill-rule: evenodd;" d="M127.000000 -77.000000L233.000000 -180.000000C389.000000 -318.000000,449.000000 -372.000000,449.000000 -472.000000C449.000000 -586.000000,359.000000 -666.000000,237.000000 -666.000000C124.000000 -666.000000,50.000000 -574.000000,50.000000 -485.000000C50.000000 -429.000000,100.000000 -429.000000,103.000000 -429.000000C120.000000 -429.000000,155.000000 -441.000000,155.000000 -482.000000C155.000000 -508.000000,137.000000 -534.000000,102.000000 -534.000000C94.000000 -534.000000,92.000000 -534.000000,89.000000 -533.000000C112.000000 -598.000000,166.000000 -635.000000,224.000000 -635.000000C315.000000 -635.000000,358.000000 -554.000000,358.000000 -472.000000C358.000000 -392.000000,308.000000 -313.000000,253.000000 -251.000000L61.000000 -37.000000C50.000000 -26.000000,50.000000 -24.000000,50.000000 -0.000000L421.000000 -0.000000L449.000000 -174.000000L424.000000 -174.000000C419.000000 -144.000000,412.000000 -100.000000,402.000000 -85.000000C395.000000 -77.000000,329.000000 -77.000000,307.000000 -77.000000"></path>
    </g>
    <g transform="scale(0.009963,0.009963)" id="GLYPHcmr10_51">
      <path style="fill-rule: evenodd;" d="M290.000000 -352.000000C372.000000 -379.000000,430.000000 -449.000000,430.000000 -528.000000C430.000000 -610.000000,342.000000 -666.000000,246.000000 -666.000000C145.000000 -666.000000,69.000000 -606.000000,69.000000 -530.000000C69.000000 -497.000000,91.000000 -478.000000,120.000000 -478.000000C151.000000 -478.000000,171.000000 -500.000000,171.000000 -529.000000C171.000000 -579.000000,124.000000 -579.000000,109.000000 -579.000000C140.000000 -628.000000,206.000000 -641.000000,242.000000 -641.000000C283.000000 -641.000000,338.000000 -619.000000,338.000000 -529.000000C338.000000 -517.000000,336.000000 -459.000000,310.000000 -415.000000C280.000000 -367.000000,246.000000 -364.000000,221.000000 -363.000000C213.000000 -362.000000,189.000000 -360.000000,182.000000 -360.000000C174.000000 -359.000000,167.000000 -358.000000,167.000000 -348.000000C167.000000 -337.000000,174.000000 -337.000000,191.000000 -337.000000L235.000000 -337.000000C317.000000 -337.000000,354.000000 -269.000000,354.000000 -171.000000C354.000000 -35.000000,285.000000 -6.000000,241.000000 -6.000000C198.000000 -6.000000,123.000000 -23.000000,88.000000 -82.000000C123.000000 -77.000000,154.000000 -99.000000,154.000000 -137.000000C154.000000 -173.000000,127.000000 -193.000000,98.000000 -193.000000C74.000000 -193.000000,42.000000 -179.000000,42.000000 -135.000000C42.000000 -44.000000,135.000000 22.000000,244.000000 22.000000C366.000000 22.000000,457.000000 -69.000000,457.000000 -171.000000C457.000000 -253.000000,394.000000 -331.000000,290.000000 -352.000000"></path>
    </g>
    <g transform="scale(0.009963,0.009963)" id="GLYPHcmr10_52">
      <path style="fill-rule: evenodd;" d="M294.000000 -165.000000L294.000000 -78.000000C294.000000 -42.000000,292.000000 -31.000000,218.000000 -31.000000L197.000000 -31.000000L197.000000 -0.000000L332.000000 -0.000000L238.000000 -3.000000L290.000000 -3.000000L332.000000 -3.000000L374.000000 -3.000000L427.000000 -3.000000L468.000000 -0.000000L468.000000 -31.000000L447.000000 -31.000000C373.000000 -31.000000,371.000000 -42.000000,371.000000 -78.000000L371.000000 -165.000000L471.000000 -165.000000L471.000000 -196.000000L371.000000 -196.000000L371.000000 -651.000000C371.000000 -671.000000,371.000000 -677.000000,355.000000 -677.000000C346.000000 -677.000000,343.000000 -677.000000,335.000000 -665.000000L28.000000 -196.000000L28.000000 -165.000000M300.000000 -196.000000L56.000000 -196.000000L300.000000 -569.000000"></path>
    </g>
    <g transform="scale(0.009963,0.009963)" id="GLYPHcmr10_53">
      <path style="fill-rule: evenodd;" d="M449.000000 -201.000000C449.000000 -320.000000,367.000000 -420.000000,259.000000 -420.000000C211.000000 -420.000000,168.000000 -404.000000,132.000000 -369.000000L132.000000 -564.000000C152.000000 -558.000000,185.000000 -551.000000,217.000000 -551.000000C340.000000 -551.000000,410.000000 -642.000000,410.000000 -655.000000C410.000000 -661.000000,407.000000 -666.000000,400.000000 -666.000000C399.000000 -666.000000,397.000000 -666.000000,392.000000 -663.000000C372.000000 -654.000000,323.000000 -634.000000,256.000000 -634.000000C216.000000 -634.000000,170.000000 -641.000000,123.000000 -662.000000C115.000000 -665.000000,113.000000 -665.000000,111.000000 -665.000000C101.000000 -665.000000,101.000000 -657.000000,101.000000 -641.000000L101.000000 -345.000000C101.000000 -327.000000,101.000000 -319.000000,115.000000 -319.000000C122.000000 -319.000000,124.000000 -322.000000,128.000000 -328.000000C139.000000 -344.000000,176.000000 -398.000000,257.000000 -398.000000C309.000000 -398.000000,334.000000 -352.000000,342.000000 -334.000000C358.000000 -297.000000,360.000000 -258.000000,360.000000 -208.000000C360.000000 -173.000000,360.000000 -113.000000,336.000000 -71.000000C312.000000 -32.000000,275.000000 -6.000000,229.000000 -6.000000C156.000000 -6.000000,99.000000 -59.000000,82.000000 -118.000000C85.000000 -117.000000,88.000000 -116.000000,99.000000 -116.000000C132.000000 -116.000000,149.000000 -141.000000,149.000000 -165.000000C149.000000 -189.000000,132.000000 -214.000000,99.000000 -214.000000C85.000000 -214.000000,50.000000 -207.000000,50.000000 -161.000000C50.000000 -75.000000,119.000000 22.000000,231.000000 22.000000C347.000000 22.000000,449.000000 -74.000000,449.000000 -201.000000"></path>
    </g>
    <g transform="scale(0.009963,0.009963)" id="GLYPHcmr10_54">
      <path style="fill-rule: evenodd;" d="M132.000000 -328.000000L132.000000 -352.000000C132.000000 -605.000000,256.000000 -641.000000,307.000000 -641.000000C331.000000 -641.000000,373.000000 -635.000000,395.000000 -601.000000C380.000000 -601.000000,340.000000 -601.000000,340.000000 -556.000000C340.000000 -525.000000,364.000000 -510.000000,386.000000 -510.000000C402.000000 -510.000000,432.000000 -519.000000,432.000000 -558.000000C432.000000 -618.000000,388.000000 -666.000000,305.000000 -666.000000C177.000000 -666.000000,42.000000 -537.000000,42.000000 -316.000000C42.000000 -49.000000,158.000000 22.000000,251.000000 22.000000C362.000000 22.000000,457.000000 -72.000000,457.000000 -204.000000C457.000000 -331.000000,368.000000 -427.000000,257.000000 -427.000000C189.000000 -427.000000,152.000000 -376.000000,132.000000 -328.000000M251.000000 -6.000000C188.000000 -6.000000,158.000000 -66.000000,152.000000 -81.000000C134.000000 -128.000000,134.000000 -208.000000,134.000000 -226.000000C134.000000 -304.000000,166.000000 -404.000000,256.000000 -404.000000C272.000000 -404.000000,318.000000 -404.000000,349.000000 -342.000000C367.000000 -305.000000,367.000000 -254.000000,367.000000 -205.000000C367.000000 -157.000000,367.000000 -107.000000,350.000000 -71.000000C320.000000 -11.000000,274.000000 -6.000000,251.000000 -6.000000"></path>
    </g>
    <g transform="scale(0.009963,0.009963)" id="GLYPHcmr10_55">
      <path style="fill-rule: evenodd;" d="M476.000000 -609.000000C485.000000 -621.000000,485.000000 -623.000000,485.000000 -644.000000L242.000000 -644.000000C120.000000 -644.000000,118.000000 -657.000000,114.000000 -676.000000L89.000000 -676.000000L56.000000 -470.000000L81.000000 -470.000000C84.000000 -486.000000,93.000000 -549.000000,106.000000 -561.000000C113.000000 -567.000000,191.000000 -567.000000,204.000000 -567.000000L411.000000 -567.000000C400.000000 -551.000000,321.000000 -442.000000,299.000000 -409.000000C209.000000 -274.000000,176.000000 -135.000000,176.000000 -33.000000C176.000000 -23.000000,176.000000 22.000000,222.000000 22.000000C268.000000 22.000000,268.000000 -23.000000,268.000000 -33.000000L268.000000 -84.000000C268.000000 -139.000000,271.000000 -194.000000,279.000000 -248.000000C283.000000 -271.000000,297.000000 -357.000000,341.000000 -419.000000"></path>
    </g>
    <g transform="scale(0.009963,0.009963)" id="GLYPHcmr10_56">
      <path style="fill-rule: evenodd;" d="M163.000000 -457.000000C117.000000 -487.000000,113.000000 -521.000000,113.000000 -538.000000C113.000000 -599.000000,178.000000 -641.000000,249.000000 -641.000000C322.000000 -641.000000,386.000000 -589.000000,386.000000 -517.000000C386.000000 -460.000000,347.000000 -412.000000,287.000000 -377.000000M309.000000 -362.000000C381.000000 -399.000000,430.000000 -451.000000,430.000000 -517.000000C430.000000 -609.000000,341.000000 -666.000000,250.000000 -666.000000C150.000000 -666.000000,69.000000 -592.000000,69.000000 -499.000000C69.000000 -481.000000,71.000000 -436.000000,113.000000 -389.000000C124.000000 -377.000000,161.000000 -352.000000,186.000000 -335.000000C128.000000 -306.000000,42.000000 -250.000000,42.000000 -151.000000C42.000000 -45.000000,144.000000 22.000000,249.000000 22.000000C362.000000 22.000000,457.000000 -61.000000,457.000000 -168.000000C457.000000 -204.000000,446.000000 -249.000000,408.000000 -291.000000C389.000000 -312.000000,373.000000 -322.000000,309.000000 -362.000000M209.000000 -320.000000L332.000000 -242.000000C360.000000 -223.000000,407.000000 -193.000000,407.000000 -132.000000C407.000000 -58.000000,332.000000 -6.000000,250.000000 -6.000000C164.000000 -6.000000,92.000000 -68.000000,92.000000 -151.000000C92.000000 -209.000000,124.000000 -273.000000,209.000000 -320.000000"></path>
    </g>
    <g transform="scale(0.009963,0.009963)" id="GLYPHcmr10_57">
      <path style="fill-rule: evenodd;" d="M367.000000 -318.000000L367.000000 -286.000000C367.000000 -52.000000,263.000000 -6.000000,205.000000 -6.000000C188.000000 -6.000000,134.000000 -8.000000,107.000000 -42.000000C151.000000 -42.000000,159.000000 -71.000000,159.000000 -88.000000C159.000000 -119.000000,135.000000 -134.000000,113.000000 -134.000000C97.000000 -134.000000,67.000000 -125.000000,67.000000 -86.000000C67.000000 -19.000000,121.000000 22.000000,206.000000 22.000000C335.000000 22.000000,457.000000 -114.000000,457.000000 -329.000000C457.000000 -598.000000,342.000000 -666.000000,253.000000 -666.000000C198.000000 -666.000000,149.000000 -648.000000,106.000000 -603.000000C65.000000 -558.000000,42.000000 -516.000000,42.000000 -441.000000C42.000000 -316.000000,130.000000 -218.000000,242.000000 -218.000000C303.000000 -218.000000,344.000000 -260.000000,367.000000 -318.000000M243.000000 -241.000000C227.000000 -241.000000,181.000000 -241.000000,150.000000 -304.000000C132.000000 -341.000000,132.000000 -391.000000,132.000000 -440.000000C132.000000 -494.000000,132.000000 -541.000000,153.000000 -578.000000C180.000000 -628.000000,218.000000 -641.000000,253.000000 -641.000000C299.000000 -641.000000,332.000000 -607.000000,349.000000 -562.000000C361.000000 -530.000000,365.000000 -467.000000,365.000000 -421.000000C365.000000 -338.000000,331.000000 -241.000000,243.000000 -241.000000"></path>
    </g>
  </defs>
  <path d="M70.304764 154.840179C70.304764 154.047485,69.989822 153.287338,69.429337 152.726868C68.868866 152.166382,68.108719 151.851440,67.316025 151.851440C66.523331 151.851440,65.763184 152.166382,65.202713 152.726868C64.642227 153.287338,64.327286 154.047485,64.327286 154.840179C64.327286 155.632874,64.642227 156.393021,65.202713 156.953491C65.763184 157.513977,66.523331 157.828918,67.316025 157.828918C68.108719 157.828918,68.868866 157.513977,69.429337 156.953491C69.989822 156.393021,70.304764 155.632874,70.304764 154.840179Z" style="fill: rgb(100.000000%,100.000000%,100.000000%);stroke: none;"></path>
  <path d="M86.715973 149.113907C86.715973 148.321213,86.401031 147.561066,85.840546 147.000595C85.280075 146.440109,84.519928 146.125168,83.727234 146.125168C82.934540 146.125168,82.174393 146.440109,81.613922 147.000595C81.053436 147.561066,80.738495 148.321213,80.738495 149.113907C80.738495 149.906601,81.053436 150.666748,81.613922 151.227219C82.174393 151.787704,82.934540 152.102646,83.727234 152.102646C84.519928 152.102646,85.280075 151.787704,85.840546 151.227219C86.401031 150.666748,86.715973 149.906601,86.715973 149.113907Z" style="fill: rgb(100.000000%,100.000000%,100.000000%);stroke: none;"></path>
  <path d="M18.917328 135.108765C18.917328 134.316071,18.602386 133.555923,18.041901 132.995453C17.481430 132.434967,16.721283 132.120026,15.928589 132.120026C15.135895 132.120026,14.375748 132.434967,13.815277 132.995453C13.254791 133.555923,12.939850 134.316071,12.939850 135.108765C12.939850 135.901459,13.254791 136.661606,13.815277 137.222076C14.375748 137.782562,15.135895 138.097504,15.928589 138.097504C16.721283 138.097504,17.481430 137.782562,18.041901 137.222076C18.602386 136.661606,18.917328 135.901459,18.917328 135.108765Z" style="fill: rgb(100.000000%,100.000000%,100.000000%);stroke: none;"></path>
  <path d="M52.235809 153.345352C52.235809 152.552658,51.920868 151.792511,51.360382 151.232040C50.799911 150.671555,50.039764 150.356613,49.247070 150.356613C48.454376 150.356613,47.694229 150.671555,47.133759 151.232040C46.573273 151.792511,46.258331 152.552658,46.258331 153.345352C46.258331 154.138046,46.573273 154.898193,47.133759 155.458664C47.694229 156.019150,48.454376 156.334091,49.247070 156.334091C50.039764 156.334091,50.799911 156.019150,51.360382 155.458664C51.920868 154.898193,52.235809 154.138046,52.235809 153.345352Z" style="fill: rgb(100.000000%,100.000000%,100.000000%);stroke: none;"></path>
  <path d="M5.941727 75.612289C5.941727 74.819595,5.626785 74.059448,5.066299 73.498978C4.505829 72.938492,3.745682 72.623550,2.952988 72.623550C2.160294 72.623550,1.400146 72.938492,0.839676 73.498978C0.279190 74.059448,-0.035751 74.819595,-0.035751 75.612289C-0.035751 76.404984,0.279190 77.165131,0.839676 77.725601C1.400146 78.286087,2.160294 78.601028,2.952988 78.601028C3.745682 78.601028,4.505829 78.286087,5.066299 77.725601C5.626785 77.165131,5.941727 76.404984,5.941727 75.612289Z" style="fill: rgb(100.000000%,100.000000%,100.000000%);stroke: none;"></path>
  <path d="M6.865479 116.751465C6.865479 115.958771,6.550537 115.198624,5.990051 114.638153C5.429581 114.077667,4.669434 113.762726,3.876740 113.762726C3.084045 113.762726,2.323898 114.077667,1.763428 114.638153C1.202942 115.198624,0.888000 115.958771,0.888000 116.751465C0.888000 117.544159,1.202942 118.304306,1.763428 118.864777C2.323898 119.425262,3.084045 119.740204,3.876740 119.740204C4.669434 119.740204,5.429581 119.425262,5.990051 118.864777C6.550537 118.304306,6.865479 117.544159,6.865479 116.751465Z" style="fill: rgb(100.000000%,100.000000%,100.000000%);stroke: none;"></path>
  <path d="M50.944107 45.649033C50.944107 44.856339,50.629166 44.096191,50.068680 43.535721C49.508209 42.975235,48.748062 42.660294,47.955368 42.660294C47.162674 42.660294,46.402527 42.975235,45.842056 43.535721C45.281570 44.096191,44.966629 44.856339,44.966629 45.649033C44.966629 46.441727,45.281570 47.201874,45.842056 47.762344C46.402527 48.322830,47.162674 48.637772,47.955368 48.637772C48.748062 48.637772,49.508209 48.322830,50.068680 47.762344C50.629166 47.201874,50.944107 46.441727,50.944107 45.649033Z" style="fill: rgb(100.000000%,100.000000%,100.000000%);stroke: none;"></path>
  <path d="M17.613693 56.343704C17.613693 55.551010,17.298752 54.790863,16.738266 54.230392C16.177795 53.669907,15.417648 53.354965,14.624954 53.354965C13.832260 53.354965,13.072113 53.669907,12.511642 54.230392C11.951157 54.790863,11.636215 55.551010,11.636215 56.343704C11.636215 57.136398,11.951157 57.896545,12.511642 58.457016C13.072113 59.017502,13.832260 59.332443,14.624954 59.332443C15.417648 59.332443,16.177795 59.017502,16.738266 58.457016C17.298752 57.896545,17.613693 57.136398,17.613693 56.343704Z" style="fill: rgb(100.000000%,100.000000%,100.000000%);stroke: none;"></path>
  <path d="M86.717010 42.768616C86.717010 41.975922,86.402069 41.215775,85.841583 40.655304C85.281113 40.094818,84.520966 39.779877,83.728271 39.779877C82.935577 39.779877,82.175430 40.094818,81.614960 40.655304C81.054474 41.215775,80.739532 41.975922,80.739532 42.768616C80.739532 43.561310,81.054474 44.321457,81.614960 44.881927C82.175430 45.442413,82.935577 45.757355,83.728271 45.757355C84.520966 45.757355,85.281113 45.442413,85.841583 44.881927C86.402069 44.321457,86.717010 43.561310,86.717010 42.768616Z" style="fill: rgb(100.000000%,100.000000%,100.000000%);stroke: none;"></path>
  <path d="M66.319809 49.553131C66.319809 48.760437,66.004868 48.000290,65.444382 47.439819C64.883911 46.879333,64.123764 46.564392,63.331070 46.564392C62.538376 46.564392,61.778229 46.879333,61.217758 47.439819C60.657272 48.000290,60.342331 48.760437,60.342331 49.553131C60.342331 50.345825,60.657272 51.105972,61.217758 51.666443C61.778229 52.226929,62.538376 52.541870,63.331070 52.541870C64.123764 52.541870,64.883911 52.226929,65.444382 51.666443C66.004868 51.105972,66.319809 50.345825,66.319809 49.553131Z" style="fill: rgb(100.000000%,100.000000%,100.000000%);stroke: none;"></path>
  <path d="M101.404999 35.466690C101.404999 34.673996,101.090057 33.913849,100.529572 33.353378C99.969101 32.792892,99.208954 32.477951,98.416260 32.477951C97.623566 32.477951,96.863419 32.792892,96.302948 33.353378C95.742462 33.913849,95.427521 34.673996,95.427521 35.466690C95.427521 36.259384,95.742462 37.019531,96.302948 37.580002C96.863419 38.140488,97.623566 38.455429,98.416260 38.455429C99.208954 38.455429,99.969101 38.140488,100.529572 37.580002C101.090057 37.019531,101.404999 36.259384,101.404999 35.466690Z" style="fill: rgb(100.000000%,100.000000%,100.000000%);stroke: none;"></path>
  <path d="M92.458862 38.859756C92.458862 38.067062,92.143921 37.306915,91.583435 36.746445C91.022964 36.185959,90.262817 35.871017,89.470123 35.871017C88.677429 35.871017,87.917282 36.185959,87.356812 36.746445C86.796326 37.306915,86.481384 38.067062,86.481384 38.859756C86.481384 39.652451,86.796326 40.412598,87.356812 40.973068C87.917282 41.533554,88.677429 41.848495,89.470123 41.848495C90.262817 41.848495,91.022964 41.533554,91.583435 40.973068C92.143921 40.412598,92.458862 39.652451,92.458862 38.859756Z" style="fill: rgb(100.000000%,100.000000%,100.000000%);stroke: none;"></path>
  <path d="M103.713196 29.333527C103.713196 28.540833,103.398254 27.780685,102.837769 27.220215C102.277298 26.659729,101.517151 26.344788,100.724457 26.344788C99.931763 26.344788,99.171616 26.659729,98.611145 27.220215C98.050659 27.780685,97.735718 28.540833,97.735718 29.333527C97.735718 30.126221,98.050659 30.886368,98.611145 31.446838C99.171616 32.007324,99.931763 32.322266,100.724457 32.322266C101.517151 32.322266,102.277298 32.007324,102.837769 31.446838C103.398254 30.886368,103.713196 30.126221,103.713196 29.333527Z" style="fill: rgb(100.000000%,100.000000%,100.000000%);stroke: none;"></path>
  <path d="M104.140686 34.090195C104.140686 33.297501,103.825745 32.537354,103.265259 31.976883C102.704788 31.416397,101.944641 31.101456,101.151947 31.101456C100.359253 31.101456,99.599106 31.416397,99.038635 31.976883C98.478149 32.537354,98.163208 33.297501,98.163208 34.090195C98.163208 34.882889,98.478149 35.643036,99.038635 36.203506C99.599106 36.763992,100.359253 37.078934,101.151947 37.078934C101.944641 37.078934,102.704788 36.763992,103.265259 36.203506C103.825745 35.643036,104.140686 34.882889,104.140686 34.090195Z" style="fill: rgb(100.000000%,100.000000%,100.000000%);stroke: none;"></path>
  <path d="M96.517761 26.721710C96.517761 25.929016,96.202820 25.168869,95.642334 24.608398C95.081863 24.047913,94.321716 23.732971,93.529022 23.732971C92.736328 23.732971,91.976181 24.047913,91.415710 24.608398C90.855225 25.168869,90.540283 25.929016,90.540283 26.721710C90.540283 27.514404,90.855225 28.274551,91.415710 28.835022C91.976181 29.395508,92.736328 29.710449,93.529022 29.710449C94.321716 29.710449,95.081863 29.395508,95.642334 28.835022C96.202820 28.274551,96.517761 27.514404,96.517761 26.721710Z" style="fill: rgb(100.000000%,100.000000%,100.000000%);stroke: none;"></path>
  <path d="M101.339798 28.336914C101.339798 27.544220,101.024857 26.784073,100.464371 26.223602C99.903900 25.663116,99.143753 25.348175,98.351059 25.348175C97.558365 25.348175,96.798218 25.663116,96.237747 26.223602C95.677261 26.784073,95.362320 27.544220,95.362320 28.336914C95.362320 29.129608,95.677261 29.889755,96.237747 30.450226C96.798218 31.010712,97.558365 31.325653,98.351059 31.325653C99.143753 31.325653,99.903900 31.010712,100.464371 30.450226C101.024857 29.889755,101.339798 29.129608,101.339798 28.336914Z" style="fill: rgb(100.000000%,100.000000%,100.000000%);stroke: none;"></path>
  <path d="M90.133789 18.078583C90.133789 17.285889,89.818848 16.525742,89.258362 15.965271C88.697891 15.404785,87.937744 15.089844,87.145050 15.089844C86.352356 15.089844,85.592209 15.404785,85.031738 15.965271C84.471252 16.525742,84.156311 17.285889,84.156311 18.078583C84.156311 18.871277,84.471252 19.631424,85.031738 20.191895C85.592209 20.752380,86.352356 21.067322,87.145050 21.067322C87.937744 21.067322,88.697891 20.752380,89.258362 20.191895C89.818848 19.631424,90.133789 18.871277,90.133789 18.078583Z" style="fill: rgb(100.000000%,100.000000%,100.000000%);stroke: none;"></path>
  <path d="M93.841370 25.524796C93.841370 24.732101,93.526428 23.971954,92.965942 23.411484C92.405472 22.850998,91.645325 22.536057,90.852631 22.536057C90.059937 22.536057,89.299789 22.850998,88.739319 23.411484C88.178833 23.971954,87.863892 24.732101,87.863892 25.524796C87.863892 26.317490,88.178833 27.077637,88.739319 27.638107C89.299789 28.198593,90.059937 28.513535,90.852631 28.513535C91.645325 28.513535,92.405472 28.198593,92.965942 27.638107C93.526428 27.077637,93.841370 26.317490,93.841370 25.524796Z" style="fill: rgb(100.000000%,100.000000%,100.000000%);stroke: none;"></path>
  <path d="M112.693848 4.855179C112.693848 4.062485,112.378906 3.302338,111.818420 2.741867C111.257950 2.181381,110.497803 1.866440,109.705109 1.866440C108.912415 1.866440,108.152267 2.181381,107.591797 2.741867C107.031311 3.302338,106.716370 4.062485,106.716370 4.855179C106.716370 5.647873,107.031311 6.408020,107.591797 6.968491C108.152267 7.528976,108.912415 7.843918,109.705109 7.843918C110.497803 7.843918,111.257950 7.528976,111.818420 6.968491C112.378906 6.408020,112.693848 5.647873,112.693848 4.855179Z" style="fill: rgb(100.000000%,100.000000%,100.000000%);stroke: none;"></path>
  <path d="M94.324692 12.654663C94.324692 11.861969,94.009750 11.101822,93.449265 10.541351C92.888794 9.980865,92.128647 9.665924,91.335953 9.665924C90.543259 9.665924,89.783112 9.980865,89.222641 10.541351C88.662155 11.101822,88.347214 11.861969,88.347214 12.654663C88.347214 13.447357,88.662155 14.207504,89.222641 14.767975C89.783112 15.328461,90.543259 15.643402,91.335953 15.643402C92.128647 15.643402,92.888794 15.328461,93.449265 14.767975C94.009750 14.207504,94.324692 13.447357,94.324692 12.654663Z" style="fill: rgb(100.000000%,100.000000%,100.000000%);stroke: none;"></path>
  <path d="M150.089630 25.014359C150.089630 24.221664,149.774689 23.461517,149.214203 22.901047C148.653732 22.340561,147.893585 22.025620,147.100891 22.025620C146.308197 22.025620,145.548050 22.340561,144.987579 22.901047C144.427094 23.461517,144.112152 24.221664,144.112152 25.014359C144.112152 25.807053,144.427094 26.567200,144.987579 27.127670C145.548050 27.688156,146.308197 28.003098,147.100891 28.003098C147.893585 28.003098,148.653732 27.688156,149.214203 27.127670C149.774689 26.567200,150.089630 25.807053,150.089630 25.014359Z" style="fill: rgb(100.000000%,100.000000%,100.000000%);stroke: none;"></path>
  <path d="M126.669632 9.631165C126.669632 8.838470,126.354691 8.078323,125.794205 7.517853C125.233734 6.957367,124.473587 6.642426,123.680893 6.642426C122.888199 6.642426,122.128052 6.957367,121.567581 7.517853C121.007095 8.078323,120.692154 8.838470,120.692154 9.631165C120.692154 10.423859,121.007095 11.184006,121.567581 11.744476C122.128052 12.304962,122.888199 12.619904,123.680893 12.619904C124.473587 12.619904,125.233734 12.304962,125.794205 11.744476C126.354691 11.184006,126.669632 10.423859,126.669632 9.631165Z" style="fill: rgb(100.000000%,100.000000%,100.000000%);stroke: none;"></path>
  <path d="M152.630829 63.967178C152.630829 63.174484,152.315887 62.414337,151.755402 61.853867C151.194931 61.293381,150.434784 60.978439,149.642090 60.978439C148.849396 60.978439,148.089249 61.293381,147.528778 61.853867C146.968292 62.414337,146.653351 63.174484,146.653351 63.967178C146.653351 64.759872,146.968292 65.520020,147.528778 66.080490C148.089249 66.640976,148.849396 66.955917,149.642090 66.955917C150.434784 66.955917,151.194931 66.640976,151.755402 66.080490C152.315887 65.520020,152.630829 64.759872,152.630829 63.967178Z" style="fill: rgb(100.000000%,100.000000%,100.000000%);stroke: none;"></path>
  <path d="M159.852020 36.975815C159.852020 36.183121,159.537079 35.422974,158.976593 34.862503C158.416122 34.302017,157.655975 33.987076,156.863281 33.987076C156.070587 33.987076,155.310440 34.302017,154.749969 34.862503C154.189484 35.422974,153.874542 36.183121,153.874542 36.975815C153.874542 37.768509,154.189484 38.528656,154.749969 39.089127C155.310440 39.649612,156.070587 39.964554,156.863281 39.964554C157.655975 39.964554,158.416122 39.649612,158.976593 39.089127C159.537079 38.528656,159.852020 37.768509,159.852020 36.975815Z" style="fill: rgb(100.000000%,100.000000%,100.000000%);stroke: none;"></path>
  <path d="M115.376602 80.253159C115.376602 79.460464,115.061661 78.700317,114.501175 78.139847C113.940704 77.579361,113.180557 77.264420,112.387863 77.264420C111.595169 77.264420,110.835022 77.579361,110.274551 78.139847C109.714066 78.700317,109.399124 79.460464,109.399124 80.253159C109.399124 81.045853,109.714066 81.806000,110.274551 82.366470C110.835022 82.926956,111.595169 83.241898,112.387863 83.241898C113.180557 83.241898,113.940704 82.926956,114.501175 82.366470C115.061661 81.806000,115.376602 81.045853,115.376602 80.253159Z" style="fill: rgb(100.000000%,100.000000%,100.000000%);stroke: none;"></path>
  <path d="M136.762543 68.219147C136.762543 67.426453,136.447601 66.666306,135.887115 66.105835C135.326645 65.545349,134.566498 65.230408,133.773804 65.230408C132.981110 65.230408,132.220963 65.545349,131.660492 66.105835C131.100006 66.666306,130.785065 67.426453,130.785065 68.219147C130.785065 69.011841,131.100006 69.771988,131.660492 70.332458C132.220963 70.892944,132.981110 71.207886,133.773804 71.207886C134.566498 71.207886,135.326645 70.892944,135.887115 70.332458C136.447601 69.771988,136.762543 69.011841,136.762543 68.219147Z" style="fill: rgb(100.000000%,100.000000%,100.000000%);stroke: none;"></path>
  <path d="M92.598724 102.042999C92.598724 101.250305,92.283783 100.490158,91.723297 99.929688C91.162827 99.369202,90.402679 99.054260,89.609985 99.054260C88.817291 99.054260,88.057144 99.369202,87.496674 99.929688C86.936188 100.490158,86.621246 101.250305,86.621246 102.042999C86.621246 102.835693,86.936188 103.595840,87.496674 104.156311C88.057144 104.716797,88.817291 105.031738,89.609985 105.031738C90.402679 105.031738,91.162827 104.716797,91.723297 104.156311C92.283783 103.595840,92.598724 102.835693,92.598724 102.042999Z" style="fill: rgb(100.000000%,100.000000%,100.000000%);stroke: none;"></path>
  <path d="M107.936752 87.393906C107.936752 86.601212,107.621811 85.841064,107.061325 85.280594C106.500854 84.720108,105.740707 84.405167,104.948013 84.405167C104.155319 84.405167,103.395172 84.720108,102.834702 85.280594C102.274216 85.841064,101.959274 86.601212,101.959274 87.393906C101.959274 88.186600,102.274216 88.946747,102.834702 89.507217C103.395172 90.067703,104.155319 90.382645,104.948013 90.382645C105.740707 90.382645,106.500854 90.067703,107.061325 89.507217C107.621811 88.946747,107.936752 88.186600,107.936752 87.393906Z" style="fill: rgb(100.000000%,100.000000%,100.000000%);stroke: none;"></path>
  <path d="M60.314240 123.554520C60.314240 122.761826,59.999298 122.001678,59.438812 121.441208C58.878342 120.880722,58.118195 120.565781,57.325500 120.565781C56.532806 120.565781,55.772659 120.880722,55.212189 121.441208C54.651703 122.001678,54.336761 122.761826,54.336761 123.554520C54.336761 124.347214,54.651703 125.107361,55.212189 125.667831C55.772659 126.228317,56.532806 126.543259,57.325500 126.543259C58.118195 126.543259,58.878342 126.228317,59.438812 125.667831C59.999298 125.107361,60.314240 124.347214,60.314240 123.554520Z" style="fill: rgb(100.000000%,100.000000%,100.000000%);stroke: none;"></path>
  <path d="M84.559036 109.648239C84.559036 108.855545,84.244095 108.095398,83.683609 107.534927C83.123138 106.974442,82.362991 106.659500,81.570297 106.659500C80.777603 106.659500,80.017456 106.974442,79.456985 107.534927C78.896500 108.095398,78.581558 108.855545,78.581558 109.648239C78.581558 110.440933,78.896500 111.201080,79.456985 111.761551C80.017456 112.322037,80.777603 112.636978,81.570297 112.636978C82.362991 112.636978,83.123138 112.322037,83.683609 111.761551C84.244095 111.201080,84.559036 110.440933,84.559036 109.648239Z" style="fill: rgb(100.000000%,100.000000%,100.000000%);stroke: none;"></path>
  <path d="M32.183777 162.760269C32.183777 161.967575,31.868835 161.207428,31.308350 160.646957C30.747879 160.086472,29.987732 159.771530,29.195038 159.771530C28.402344 159.771530,27.642197 160.086472,27.081726 160.646957C26.521240 161.207428,26.206299 161.967575,26.206299 162.760269C26.206299 163.552963,26.521240 164.313110,27.081726 164.873581C27.642197 165.434067,28.402344 165.749008,29.195038 165.749008C29.987732 165.749008,30.747879 165.434067,31.308350 164.873581C31.868835 164.313110,32.183777 163.552963,32.183777 162.760269Z" style="fill: rgb(100.000000%,100.000000%,100.000000%);stroke: none;"></path>
  <path d="M41.445938 128.525116C41.445938 127.732422,41.130997 126.972275,40.570511 126.411804C40.010040 125.851318,39.249893 125.536377,38.457199 125.536377C37.664505 125.536377,36.904358 125.851318,36.343887 126.411804C35.783401 126.972275,35.468460 127.732422,35.468460 128.525116C35.468460 129.317810,35.783401 130.077957,36.343887 130.638428C36.904358 131.198914,37.664505 131.513855,38.457199 131.513855C39.249893 131.513855,40.010040 131.198914,40.570511 130.638428C41.130997 130.077957,41.445938 129.317810,41.445938 128.525116Z" style="fill: rgb(100.000000%,100.000000%,100.000000%);stroke: none;"></path>
  <path d="M82.078278 196.427002C82.078278 195.634308,81.763336 194.874161,81.202850 194.313690C80.642380 193.753204,79.882233 193.438263,79.089539 193.438263C78.296844 193.438263,77.536697 193.753204,76.976227 194.313690C76.415741 194.874161,76.100800 195.634308,76.100800 196.427002C76.100800 197.219696,76.415741 197.979843,76.976227 198.540314C77.536697 199.100800,78.296844 199.415741,79.089539 199.415741C79.882233 199.415741,80.642380 199.100800,81.202850 198.540314C81.763336 197.979843,82.078278 197.219696,82.078278 196.427002Z" style="fill: rgb(100.000000%,100.000000%,100.000000%);stroke: none;"></path>
  <path d="M47.346176 178.050842C47.346176 177.258148,47.031235 176.498001,46.470749 175.937531C45.910278 175.377045,45.150131 175.062103,44.357437 175.062103C43.564743 175.062103,42.804596 175.377045,42.244125 175.937531C41.683640 176.498001,41.368698 177.258148,41.368698 178.050842C41.368698 178.843536,41.683640 179.603683,42.244125 180.164154C42.804596 180.724640,43.564743 181.039581,44.357437 181.039581C45.150131 181.039581,45.910278 180.724640,46.470749 180.164154C47.031235 179.603683,47.346176 178.843536,47.346176 178.050842Z" style="fill: rgb(100.000000%,100.000000%,100.000000%);stroke: none;"></path>
  <path d="M122.471344 184.072144C122.471344 183.279449,122.156403 182.519302,121.595917 181.958832C121.035446 181.398346,120.275299 181.083405,119.482605 181.083405C118.689911 181.083405,117.929764 181.398346,117.369293 181.958832C116.808807 182.519302,116.493866 183.279449,116.493866 184.072144C116.493866 184.864838,116.808807 185.624985,117.369293 186.185455C117.929764 186.745941,118.689911 187.060883,119.482605 187.060883C120.275299 187.060883,121.035446 186.745941,121.595917 186.185455C122.156403 185.624985,122.471344 184.864838,122.471344 184.072144Z" style="fill: rgb(100.000000%,100.000000%,100.000000%);stroke: none;"></path>
  <path d="M102.953201 201.189682C102.953201 200.396988,102.638260 199.636841,102.077774 199.076370C101.517303 198.515884,100.757156 198.200943,99.964462 198.200943C99.171768 198.200943,98.411621 198.515884,97.851151 199.076370C97.290665 199.636841,96.975723 200.396988,96.975723 201.189682C96.975723 201.982376,97.290665 202.742523,97.851151 203.302994C98.411621 203.863480,99.171768 204.178421,99.964462 204.178421C100.757156 204.178421,101.517303 203.863480,102.077774 203.302994C102.638260 202.742523,102.953201 201.982376,102.953201 201.189682Z" style="fill: rgb(100.000000%,100.000000%,100.000000%);stroke: none;"></path>
  <path d="M119.045670 168.829132C119.045670 168.036438,118.730728 167.276291,118.170242 166.715820C117.609772 166.155334,116.849625 165.840393,116.056931 165.840393C115.264236 165.840393,114.504089 166.155334,113.943619 166.715820C113.383133 167.276291,113.068192 168.036438,113.068192 168.829132C113.068192 169.621826,113.383133 170.381973,113.943619 170.942444C114.504089 171.502930,115.264236 171.817871,116.056931 171.817871C116.849625 171.817871,117.609772 171.502930,118.170242 170.942444C118.730728 170.381973,119.045670 169.621826,119.045670 168.829132Z" style="fill: rgb(100.000000%,100.000000%,100.000000%);stroke: none;"></path>
  <path d="M125.197372 176.792282C125.197372 175.999588,124.882431 175.239441,124.321945 174.678970C123.761475 174.118484,123.001328 173.803543,122.208633 173.803543C121.415939 173.803543,120.655792 174.118484,120.095322 174.678970C119.534836 175.239441,119.219894 175.999588,119.219894 176.792282C119.219894 177.584976,119.534836 178.345123,120.095322 178.905594C120.655792 179.466080,121.415939 179.781021,122.208633 179.781021C123.001328 179.781021,123.761475 179.466080,124.321945 178.905594C124.882431 178.345123,125.197372 177.584976,125.197372 176.792282Z" style="fill: rgb(100.000000%,100.000000%,100.000000%);stroke: none;"></path>
  <path d="M109.002747 166.927078C109.002747 166.134384,108.687805 165.374237,108.127319 164.813766C107.566849 164.253281,106.806702 163.938339,106.014008 163.938339C105.221313 163.938339,104.461166 164.253281,103.900696 164.813766C103.340210 165.374237,103.025269 166.134384,103.025269 166.927078C103.025269 167.719772,103.340210 168.479919,103.900696 169.040390C104.461166 169.600876,105.221313 169.915817,106.014008 169.915817C106.806702 169.915817,107.566849 169.600876,108.127319 169.040390C108.687805 168.479919,109.002747 167.719772,109.002747 166.927078Z" style="fill: rgb(100.000000%,100.000000%,100.000000%);stroke: none;"></path>
  <path d="M115.462341 167.854126C115.462341 167.061432,115.147400 166.301285,114.586914 165.740814C114.026443 165.180328,113.266296 164.865387,112.473602 164.865387C111.680908 164.865387,110.920761 165.180328,110.360291 165.740814C109.799805 166.301285,109.484863 167.061432,109.484863 167.854126C109.484863 168.646820,109.799805 169.406967,110.360291 169.967438C110.920761 170.527924,111.680908 170.842865,112.473602 170.842865C113.266296 170.842865,114.026443 170.527924,114.586914 169.967438C115.147400 169.406967,115.462341 168.646820,115.462341 167.854126Z" style="fill: rgb(100.000000%,100.000000%,100.000000%);stroke: none;"></path>
  <path d="M104.473557 160.634735C104.473557 159.842041,104.158615 159.081894,103.598129 158.521423C103.037659 157.960938,102.277512 157.645996,101.484818 157.645996C100.692123 157.645996,99.931976 157.960938,99.371506 158.521423C98.811020 159.081894,98.496078 159.842041,98.496078 160.634735C98.496078 161.427429,98.811020 162.187576,99.371506 162.748047C99.931976 163.308533,100.692123 163.623474,101.484818 163.623474C102.277512 163.623474,103.037659 163.308533,103.598129 162.748047C104.158615 162.187576,104.473557 161.427429,104.473557 160.634735Z" style="fill: rgb(100.000000%,100.000000%,100.000000%);stroke: none;"></path>
  <path d="M105.729675 166.212769C105.729675 165.420074,105.414734 164.659927,104.854248 164.099457C104.293777 163.538971,103.533630 163.224030,102.740936 163.224030C101.948242 163.224030,101.188095 163.538971,100.627625 164.099457C100.067139 164.659927,99.752197 165.420074,99.752197 166.212769C99.752197 167.005463,100.067139 167.765610,100.627625 168.326080C101.188095 168.886566,101.948242 169.201508,102.740936 169.201508C103.533630 169.201508,104.293777 168.886566,104.854248 168.326080C105.414734 167.765610,105.729675 167.005463,105.729675 166.212769Z" style="fill: rgb(100.000000%,100.000000%,100.000000%);stroke: none;"></path>
  <path d="M115.854156 153.076202C115.854156 152.283508,115.539215 151.523361,114.978729 150.962891C114.418259 150.402405,113.658112 150.087463,112.865417 150.087463C112.072723 150.087463,111.312576 150.402405,110.752106 150.962891C110.191620 151.523361,109.876678 152.283508,109.876678 153.076202C109.876678 153.868896,110.191620 154.629044,110.752106 155.189514C111.312576 155.750000,112.072723 156.064941,112.865417 156.064941C113.658112 156.064941,114.418259 155.750000,114.978729 155.189514C115.539215 154.629044,115.854156 153.868896,115.854156 153.076202Z" style="fill: rgb(100.000000%,100.000000%,100.000000%);stroke: none;"></path>
  <path d="M107.150131 158.575455C107.150131 157.782761,106.835190 157.022614,106.274704 156.462143C105.714233 155.901657,104.954086 155.586716,104.161392 155.586716C103.368698 155.586716,102.608551 155.901657,102.048080 156.462143C101.487595 157.022614,101.172653 157.782761,101.172653 158.575455C101.172653 159.368149,101.487595 160.128296,102.048080 160.688766C102.608551 161.249252,103.368698 161.564194,104.161392 161.564194C104.954086 161.564194,105.714233 161.249252,106.274704 160.688766C106.835190 160.128296,107.150131 159.368149,107.150131 158.575455Z" style="fill: rgb(100.000000%,100.000000%,100.000000%);stroke: none;"></path>
  <path d="M141.566071 139.011368C141.566071 138.218674,141.251129 137.458527,140.690643 136.898056C140.130173 136.337570,139.370026 136.022629,138.577332 136.022629C137.784637 136.022629,137.024490 136.337570,136.464020 136.898056C135.903534 137.458527,135.588593 138.218674,135.588593 139.011368C135.588593 139.804062,135.903534 140.564209,136.464020 141.124680C137.024490 141.685165,137.784637 142.000107,138.577332 142.000107C139.370026 142.000107,140.130173 141.685165,140.690643 141.124680C141.251129 140.564209,141.566071 139.804062,141.566071 139.011368Z" style="fill: rgb(100.000000%,100.000000%,100.000000%);stroke: none;"></path>
  <path d="M121.355835 148.147781C121.355835 147.355087,121.040894 146.594940,120.480408 146.034470C119.919937 145.473984,119.159790 145.159042,118.367096 145.159042C117.574402 145.159042,116.814255 145.473984,116.253784 146.034470C115.693298 146.594940,115.378357 147.355087,115.378357 148.147781C115.378357 148.940475,115.693298 149.700623,116.253784 150.261093C116.814255 150.821579,117.574402 151.136520,118.367096 151.136520C119.159790 151.136520,119.919937 150.821579,120.480408 150.261093C121.040894 149.700623,121.355835 148.940475,121.355835 148.147781Z" style="fill: rgb(100.000000%,100.000000%,100.000000%);stroke: none;"></path>
  <path d="M184.464859 123.868866C184.464859 123.076172,184.149918 122.316025,183.589432 121.755554C183.028961 121.195068,182.268814 120.880127,181.476120 120.880127C180.683426 120.880127,179.923279 121.195068,179.362808 121.755554C178.802322 122.316025,178.487381 123.076172,178.487381 123.868866C178.487381 124.661560,178.802322 125.421707,179.362808 125.982178C179.923279 126.542664,180.683426 126.857605,181.476120 126.857605C182.268814 126.857605,183.028961 126.542664,183.589432 125.982178C184.149918 125.421707,184.464859 124.661560,184.464859 123.868866Z" style="fill: rgb(100.000000%,100.000000%,100.000000%);stroke: none;"></path>
  <path d="M158.082001 141.661484C158.082001 140.868790,157.767059 140.108643,157.206573 139.548172C156.646103 138.987686,155.885956 138.672745,155.093262 138.672745C154.300568 138.672745,153.540421 138.987686,152.979950 139.548172C152.419464 140.108643,152.104523 140.868790,152.104523 141.661484C152.104523 142.454178,152.419464 143.214325,152.979950 143.774796C153.540421 144.335281,154.300568 144.650223,155.093262 144.650223C155.885956 144.650223,156.646103 144.335281,157.206573 143.774796C157.767059 143.214325,158.082001 142.454178,158.082001 141.661484Z" style="fill: rgb(100.000000%,100.000000%,100.000000%);stroke: none;"></path>
  <path d="M181.905914 71.671127C181.905914 70.878433,181.590973 70.118286,181.030487 69.557816C180.470016 68.997330,179.709869 68.682388,178.917175 68.682388C178.124481 68.682388,177.364334 68.997330,176.803864 69.557816C176.243378 70.118286,175.928436 70.878433,175.928436 71.671127C175.928436 72.463821,176.243378 73.223969,176.803864 73.784439C177.364334 74.344925,178.124481 74.659866,178.917175 74.659866C179.709869 74.659866,180.470016 74.344925,181.030487 73.784439C181.590973 73.223969,181.905914 72.463821,181.905914 71.671127Z" style="fill: rgb(100.000000%,100.000000%,100.000000%);stroke: none;"></path>
  <path d="M187.926819 105.673553C187.926819 104.880859,187.611877 104.120712,187.051392 103.560242C186.490921 102.999756,185.730774 102.684814,184.938080 102.684814C184.145386 102.684814,183.385239 102.999756,182.824768 103.560242C182.264282 104.120712,181.949341 104.880859,181.949341 105.673553C181.949341 106.466248,182.264282 107.226395,182.824768 107.786865C183.385239 108.347351,184.145386 108.662292,184.938080 108.662292C185.730774 108.662292,186.490921 108.347351,187.051392 107.786865C187.611877 107.226395,187.926819 106.466248,187.926819 105.673553Z" style="fill: rgb(100.000000%,100.000000%,100.000000%);stroke: none;"></path>
  <path d="M143.571579 45.660431C143.571579 44.867737,143.256638 44.107590,142.696152 43.547119C142.135681 42.986633,141.375534 42.671692,140.582840 42.671692C139.790146 42.671692,139.029999 42.986633,138.469528 43.547119C137.909042 44.107590,137.594101 44.867737,137.594101 45.660431C137.594101 46.453125,137.909042 47.213272,138.469528 47.773743C139.029999 48.334229,139.790146 48.649170,140.582840 48.649170C141.375534 48.649170,142.135681 48.334229,142.696152 47.773743C143.256638 47.213272,143.571579 46.453125,143.571579 45.660431Z" style="fill: rgb(100.000000%,100.000000%,100.000000%);stroke: none;"></path>
  <path d="M172.534012 55.668686C172.534012 54.875992,172.219070 54.115845,171.658585 53.555374C171.098114 52.994888,170.337967 52.679947,169.545273 52.679947C168.752579 52.679947,167.992432 52.994888,167.431961 53.555374C166.871475 54.115845,166.556534 54.875992,166.556534 55.668686C166.556534 56.461380,166.871475 57.221527,167.431961 57.781998C167.992432 58.342484,168.752579 58.657425,169.545273 58.657425C170.337967 58.657425,171.098114 58.342484,171.658585 57.781998C172.219070 57.221527,172.534012 56.461380,172.534012 55.668686Z" style="fill: rgb(100.000000%,100.000000%,100.000000%);stroke: none;"></path>
  <path d="M110.304428 42.973541C110.304428 42.180847,109.989487 41.420700,109.429001 40.860229C108.868530 40.299744,108.108383 39.984802,107.315689 39.984802C106.522995 39.984802,105.762848 40.299744,105.202377 40.860229C104.641891 41.420700,104.326950 42.180847,104.326950 42.973541C104.326950 43.766235,104.641891 44.526382,105.202377 45.086853C105.762848 45.647339,106.522995 45.962280,107.315689 45.962280C108.108383 45.962280,108.868530 45.647339,109.429001 45.086853C109.989487 44.526382,110.304428 43.766235,110.304428 42.973541Z" style="fill: rgb(100.000000%,100.000000%,100.000000%);stroke: none;"></path>
  <path d="M129.334076 49.436935C129.334076 48.644241,129.019135 47.884094,128.458649 47.323624C127.898178 46.763138,127.138031 46.448196,126.345337 46.448196C125.552643 46.448196,124.792496 46.763138,124.232025 47.323624C123.671539 47.884094,123.356598 48.644241,123.356598 49.436935C123.356598 50.229630,123.671539 50.989777,124.232025 51.550247C124.792496 52.110733,125.552643 52.425674,126.345337 52.425674C127.138031 52.425674,127.898178 52.110733,128.458649 51.550247C129.019135 50.989777,129.334076 50.229630,129.334076 49.436935Z" style="fill: rgb(100.000000%,100.000000%,100.000000%);stroke: none;"></path>
  <path d="M96.363037 35.362320C96.363037 34.569626,96.048096 33.809479,95.487610 33.249008C94.927139 32.688522,94.166992 32.373581,93.374298 32.373581C92.581604 32.373581,91.821457 32.688522,91.260986 33.249008C90.700500 33.809479,90.385559 34.569626,90.385559 35.362320C90.385559 36.155014,90.700500 36.915161,91.260986 37.475632C91.821457 38.036118,92.581604 38.351059,93.374298 38.351059C94.166992 38.351059,94.927139 38.036118,95.487610 37.475632C96.048096 36.915161,96.363037 36.155014,96.363037 35.362320Z" style="fill: rgb(100.000000%,100.000000%,100.000000%);stroke: none;"></path>
  <path d="M104.881760 39.050110C104.881760 38.257416,104.566818 37.497269,104.006332 36.936798C103.445862 36.376312,102.685715 36.061371,101.893021 36.061371C101.100327 36.061371,100.340179 36.376312,99.779709 36.936798C99.219223 37.497269,98.904282 38.257416,98.904282 39.050110C98.904282 39.842804,99.219223 40.602951,99.779709 41.163422C100.340179 41.723907,101.100327 42.038849,101.893021 42.038849C102.685715 42.038849,103.445862 41.723907,104.006332 41.163422C104.566818 40.602951,104.881760 39.842804,104.881760 39.050110Z" style="fill: rgb(100.000000%,100.000000%,100.000000%);stroke: none;"></path>
  <path d="M94.333099 29.106613C94.333099 28.313919,94.018158 27.553772,93.457672 26.993301C92.897202 26.432816,92.137054 26.117874,91.344360 26.117874C90.551666 26.117874,89.791519 26.432816,89.231049 26.993301C88.670563 27.553772,88.355621 28.313919,88.355621 29.106613C88.355621 29.899307,88.670563 30.659454,89.231049 31.219925C89.791519 31.780411,90.551666 32.095352,91.344360 32.095352C92.137054 32.095352,92.897202 31.780411,93.457672 31.219925C94.018158 30.659454,94.333099 29.899307,94.333099 29.106613Z" style="fill: rgb(100.000000%,100.000000%,100.000000%);stroke: none;"></path>
  <path d="M93.723648 33.880920C93.723648 33.088226,93.408707 32.328079,92.848221 31.767609C92.287750 31.207123,91.527603 30.892181,90.734909 30.892181C89.942215 30.892181,89.182068 31.207123,88.621597 31.767609C88.061111 32.328079,87.746170 33.088226,87.746170 33.880920C87.746170 34.673615,88.061111 35.433762,88.621597 35.994232C89.182068 36.554718,89.942215 36.869659,90.734909 36.869659C91.527603 36.869659,92.287750 36.554718,92.848221 35.994232C93.408707 35.433762,93.723648 34.673615,93.723648 33.880920Z" style="fill: rgb(100.000000%,100.000000%,100.000000%);stroke: none;"></path>
  <path d="M101.849915 26.875183C101.849915 26.082489,101.534973 25.322342,100.974487 24.761871C100.414017 24.201385,99.653870 23.886444,98.861176 23.886444C98.068481 23.886444,97.308334 24.201385,96.747864 24.761871C96.187378 25.322342,95.872437 26.082489,95.872437 26.875183C95.872437 27.667877,96.187378 28.428024,96.747864 28.988495C97.308334 29.548981,98.068481 29.863922,98.861176 29.863922C99.653870 29.863922,100.414017 29.548981,100.974487 28.988495C101.534973 28.428024,101.849915 27.667877,101.849915 26.875183Z" style="fill: rgb(100.000000%,100.000000%,100.000000%);stroke: none;"></path>
  <path d="M96.842545 28.222137C96.842545 27.429443,96.527603 26.669296,95.967117 26.108826C95.406647 25.548340,94.646500 25.233398,93.853806 25.233398C93.061111 25.233398,92.300964 25.548340,91.740494 26.108826C91.180008 26.669296,90.865067 27.429443,90.865067 28.222137C90.865067 29.014832,91.180008 29.774979,91.740494 30.335449C92.300964 30.895935,93.061111 31.210876,93.853806 31.210876C94.646500 31.210876,95.406647 30.895935,95.967117 30.335449C96.527603 29.774979,96.842545 29.014832,96.842545 28.222137Z" style="fill: rgb(100.000000%,100.000000%,100.000000%);stroke: none;"></path>
  <path d="M108.699631 18.738052C108.699631 17.945358,108.384689 17.185211,107.824203 16.624741C107.263733 16.064255,106.503586 15.749313,105.710892 15.749313C104.918198 15.749313,104.158051 16.064255,103.597580 16.624741C103.037094 17.185211,102.722153 17.945358,102.722153 18.738052C102.722153 19.530746,103.037094 20.290894,103.597580 20.851364C104.158051 21.411850,104.918198 21.726791,105.710892 21.726791C106.503586 21.726791,107.263733 21.411850,107.824203 20.851364C108.384689 20.290894,108.699631 19.530746,108.699631 18.738052Z" style="fill: rgb(100.000000%,100.000000%,100.000000%);stroke: none;"></path>
  <path d="M104.608994 25.813110C104.608994 25.020416,104.294052 24.260269,103.733566 23.699799C103.173096 23.139313,102.412949 22.824371,101.620255 22.824371C100.827560 22.824371,100.067413 23.139313,99.506943 23.699799C98.946457 24.260269,98.631516 25.020416,98.631516 25.813110C98.631516 26.605804,98.946457 27.365952,99.506943 27.926422C100.067413 28.486908,100.827560 28.801849,101.620255 28.801849C102.412949 28.801849,103.173096 28.486908,103.733566 27.926422C104.294052 27.365952,104.608994 26.605804,104.608994 25.813110Z" style="fill: rgb(100.000000%,100.000000%,100.000000%);stroke: none;"></path>
  <path d="M87.408966 2.832397C87.408966 2.039703,87.094025 1.279556,86.533539 0.719086C85.973068 0.158600,85.212921 -0.156342,84.420227 -0.156342C83.627533 -0.156342,82.867386 0.158600,82.306915 0.719086C81.746429 1.279556,81.431488 2.039703,81.431488 2.832397C81.431488 3.625092,81.746429 4.385239,82.306915 4.945709C82.867386 5.506195,83.627533 5.821136,84.420227 5.821136C85.212921 5.821136,85.973068 5.506195,86.533539 4.945709C87.094025 4.385239,87.408966 3.625092,87.408966 2.832397Z" style="fill: rgb(100.000000%,100.000000%,100.000000%);stroke: none;"></path>
  <path d="M105.238815 13.200073C105.238815 12.407379,104.923874 11.647232,104.363388 11.086761C103.802917 10.526276,103.042770 10.211334,102.250076 10.211334C101.457382 10.211334,100.697235 10.526276,100.136765 11.086761C99.576279 11.647232,99.261337 12.407379,99.261337 13.200073C99.261337 13.992767,99.576279 14.752914,100.136765 15.313385C100.697235 15.873871,101.457382 16.188812,102.250076 16.188812C103.042770 16.188812,103.802917 15.873871,104.363388 15.313385C104.923874 14.752914,105.238815 13.992767,105.238815 13.200073Z" style="fill: rgb(100.000000%,100.000000%,100.000000%);stroke: none;"></path>
  <path d="M45.108231 22.557709C45.108231 21.765015,44.793289 21.004868,44.232803 20.444397C43.672333 19.883911,42.912186 19.568970,42.119492 19.568970C41.326797 19.568970,40.566650 19.883911,40.006180 20.444397C39.445694 21.004868,39.130753 21.765015,39.130753 22.557709C39.130753 23.350403,39.445694 24.110550,40.006180 24.671021C40.566650 25.231506,41.326797 25.546448,42.119492 25.546448C42.912186 25.546448,43.672333 25.231506,44.232803 24.671021C44.793289 24.110550,45.108231 23.350403,45.108231 22.557709Z" style="fill: rgb(100.000000%,100.000000%,100.000000%);stroke: none;"></path>
  <path d="M71.969376 7.220078C71.969376 6.427383,71.654434 5.667236,71.093948 5.106766C70.533478 4.546280,69.773331 4.231339,68.980637 4.231339C68.187943 4.231339,67.427795 4.546280,66.867325 5.106766C66.306839 5.667236,65.991898 6.427383,65.991898 7.220078C65.991898 8.012772,66.306839 8.772919,66.867325 9.333389C67.427795 9.893875,68.187943 10.208817,68.980637 10.208817C69.773331 10.208817,70.533478 9.893875,71.093948 9.333389C71.654434 8.772919,71.969376 8.012772,71.969376 7.220078Z" style="fill: rgb(100.000000%,100.000000%,100.000000%);stroke: none;"></path>
  <path d="M40.883301 65.528305C40.883301 64.735611,40.568359 63.975464,40.007874 63.414993C39.447403 62.854507,38.687256 62.539566,37.894562 62.539566C37.101868 62.539566,36.341721 62.854507,35.781250 63.414993C35.220764 63.975464,34.905823 64.735611,34.905823 65.528305C34.905823 66.320999,35.220764 67.081146,35.781250 67.641617C36.341721 68.202103,37.101868 68.517044,37.894562 68.517044C38.687256 68.517044,39.447403 68.202103,40.007874 67.641617C40.568359 67.081146,40.883301 66.320999,40.883301 65.528305Z" style="fill: rgb(100.000000%,100.000000%,100.000000%);stroke: none;"></path>
  <path d="M33.271500 35.426651C33.271500 34.633957,32.956558 33.873810,32.396072 33.313339C31.835602 32.752853,31.075455 32.437912,30.282761 32.437912C29.490067 32.437912,28.729919 32.752853,28.169449 33.313339C27.608963 33.873810,27.294022 34.633957,27.294022 35.426651C27.294022 36.219345,27.608963 36.979492,28.169449 37.539963C28.729919 38.100449,29.490067 38.415390,30.282761 38.415390C31.075455 38.415390,31.835602 38.100449,32.396072 37.539963C32.956558 36.979492,33.271500 36.219345,33.271500 35.426651Z" style="fill: rgb(100.000000%,100.000000%,100.000000%);stroke: none;"></path>
  <path d="M83.040237 81.171555C83.040237 80.378860,82.725296 79.618713,82.164810 79.058243C81.604340 78.497757,80.844193 78.182816,80.051498 78.182816C79.258804 78.182816,78.498657 78.497757,77.938187 79.058243C77.377701 79.618713,77.062759 80.378860,77.062759 81.171555C77.062759 81.964249,77.377701 82.724396,77.938187 83.284866C78.498657 83.845352,79.258804 84.160294,80.051498 84.160294C80.844193 84.160294,81.604340 83.845352,82.164810 83.284866C82.725296 82.724396,83.040237 81.964249,83.040237 81.171555Z" style="fill: rgb(100.000000%,100.000000%,100.000000%);stroke: none;"></path>
  <path d="M58.668365 69.824585C58.668365 69.031891,58.353424 68.271744,57.792938 67.711273C57.232468 67.150787,56.472321 66.835846,55.679626 66.835846C54.886932 66.835846,54.126785 67.150787,53.566315 67.711273C53.005829 68.271744,52.690887 69.031891,52.690887 69.824585C52.690887 70.617279,53.005829 71.377426,53.566315 71.937897C54.126785 72.498383,54.886932 72.813324,55.679626 72.813324C56.472321 72.813324,57.232468 72.498383,57.792938 71.937897C58.353424 71.377426,58.668365 70.617279,58.668365 69.824585Z" style="fill: rgb(100.000000%,100.000000%,100.000000%);stroke: none;"></path>
  <path d="M109.390640 101.097656C109.390640 100.304962,109.075699 99.544815,108.515213 98.984344C107.954742 98.423859,107.194595 98.108917,106.401901 98.108917C105.609207 98.108917,104.849060 98.423859,104.288589 98.984344C103.728104 99.544815,103.413162 100.304962,103.413162 101.097656C103.413162 101.890350,103.728104 102.650497,104.288589 103.210968C104.849060 103.771454,105.609207 104.086395,106.401901 104.086395C107.194595 104.086395,107.954742 103.771454,108.515213 103.210968C109.075699 102.650497,109.390640 101.890350,109.390640 101.097656Z" style="fill: rgb(100.000000%,100.000000%,100.000000%);stroke: none;"></path>
  <path d="M91.783676 87.882187C91.783676 87.089493,91.468735 86.329346,90.908249 85.768875C90.347778 85.208389,89.587631 84.893448,88.794937 84.893448C88.002243 84.893448,87.242096 85.208389,86.681625 85.768875C86.121140 86.329346,85.806198 87.089493,85.806198 87.882187C85.806198 88.674881,86.121140 89.435028,86.681625 89.995499C87.242096 90.555984,88.002243 90.870926,88.794937 90.870926C89.587631 90.870926,90.347778 90.555984,90.908249 89.995499C91.468735 89.435028,91.783676 88.674881,91.783676 87.882187Z" style="fill: rgb(100.000000%,100.000000%,100.000000%);stroke: none;"></path>
  <path d="M143.781494 117.742249C143.781494 116.949554,143.466553 116.189407,142.906067 115.628937C142.345596 115.068451,141.585449 114.753510,140.792755 114.753510C140.000061 114.753510,139.239914 115.068451,138.679443 115.628937C138.118958 116.189407,137.804016 116.949554,137.804016 117.742249C137.804016 118.534943,138.118958 119.295090,138.679443 119.855560C139.239914 120.416046,140.000061 120.730988,140.792755 120.730988C141.585449 120.730988,142.345596 120.416046,142.906067 119.855560C143.466553 119.295090,143.781494 118.534943,143.781494 117.742249Z" style="fill: rgb(100.000000%,100.000000%,100.000000%);stroke: none;"></path>
  <path d="M118.399658 107.682144C118.399658 106.889450,118.084717 106.129303,117.524231 105.568832C116.963760 105.008347,116.203613 104.693405,115.410919 104.693405C114.618225 104.693405,113.858078 105.008347,113.297607 105.568832C112.737122 106.129303,112.422180 106.889450,112.422180 107.682144C112.422180 108.474838,112.737122 109.234985,113.297607 109.795456C113.858078 110.355942,114.618225 110.670883,115.410919 110.670883C116.203613 110.670883,116.963760 110.355942,117.524231 109.795456C118.084717 109.234985,118.399658 108.474838,118.399658 107.682144Z" style="fill: rgb(100.000000%,100.000000%,100.000000%);stroke: none;"></path>
  <path d="M178.438812 146.505051C178.438812 145.712357,178.123871 144.952209,177.563385 144.391739C177.002914 143.831253,176.242767 143.516312,175.450073 143.516312C174.657379 143.516312,173.897232 143.831253,173.336761 144.391739C172.776276 144.952209,172.461334 145.712357,172.461334 146.505051C172.461334 147.297745,172.776276 148.057892,173.336761 148.618362C173.897232 149.178848,174.657379 149.493790,175.450073 149.493790C176.242767 149.493790,177.002914 149.178848,177.563385 148.618362C178.123871 148.057892,178.438812 147.297745,178.438812 146.505051Z" style="fill: rgb(100.000000%,100.000000%,100.000000%);stroke: none;"></path>
  <path d="M162.119171 119.178162C162.119171 118.385468,161.804230 117.625320,161.243744 117.064850C160.683273 116.504364,159.923126 116.189423,159.130432 116.189423C158.337738 116.189423,157.577591 116.504364,157.017120 117.064850C156.456635 117.625320,156.141693 118.385468,156.141693 119.178162C156.141693 119.970856,156.456635 120.731003,157.017120 121.291473C157.577591 121.851959,158.337738 122.166901,159.130432 122.166901C159.923126 122.166901,160.683273 121.851959,161.243744 121.291473C161.804230 120.731003,162.119171 119.970856,162.119171 119.178162Z" style="fill: rgb(100.000000%,100.000000%,100.000000%);stroke: none;"></path>
  <path d="M150.391571 186.745819C150.391571 185.953125,150.076630 185.192978,149.516144 184.632507C148.955673 184.072021,148.195526 183.757080,147.402832 183.757080C146.610138 183.757080,145.849991 184.072021,145.289520 184.632507C144.729034 185.192978,144.414093 185.953125,144.414093 186.745819C144.414093 187.538513,144.729034 188.298660,145.289520 188.859131C145.849991 189.419617,146.610138 189.734558,147.402832 189.734558C148.195526 189.734558,148.955673 189.419617,149.516144 188.859131C150.076630 188.298660,150.391571 187.538513,150.391571 186.745819Z" style="fill: rgb(100.000000%,100.000000%,100.000000%);stroke: none;"></path>
  <path d="M173.189850 163.084137C173.189850 162.291443,172.874908 161.531296,172.314423 160.970825C171.753952 160.410339,170.993805 160.095398,170.201111 160.095398C169.408417 160.095398,168.648270 160.410339,168.087799 160.970825C167.527313 161.531296,167.212372 162.291443,167.212372 163.084137C167.212372 163.876831,167.527313 164.636978,168.087799 165.197449C168.648270 165.757935,169.408417 166.072876,170.201111 166.072876C170.993805 166.072876,171.753952 165.757935,172.314423 165.197449C172.874908 164.636978,173.189850 163.876831,173.189850 163.084137Z" style="fill: rgb(100.000000%,100.000000%,100.000000%);stroke: none;"></path>
  <path d="M109.063141 186.646790C109.063141 185.854095,108.748199 185.093948,108.187714 184.533478C107.627243 183.972992,106.867096 183.658051,106.074402 183.658051C105.281708 183.658051,104.521561 183.972992,103.961090 184.533478C103.400604 185.093948,103.085663 185.854095,103.085663 186.646790C103.085663 187.439484,103.400604 188.199631,103.961090 188.760101C104.521561 189.320587,105.281708 189.635529,106.074402 189.635529C106.867096 189.635529,107.627243 189.320587,108.187714 188.760101C108.748199 188.199631,109.063141 187.439484,109.063141 186.646790Z" style="fill: rgb(100.000000%,100.000000%,100.000000%);stroke: none;"></path>
  <path d="M133.446304 192.934967C133.446304 192.142273,133.131363 191.382126,132.570877 190.821655C132.010406 190.261169,131.250259 189.946228,130.457565 189.946228C129.664871 189.946228,128.904724 190.261169,128.344254 190.821655C127.783768 191.382126,127.468826 192.142273,127.468826 192.934967C127.468826 193.727661,127.783768 194.487808,128.344254 195.048279C128.904724 195.608765,129.664871 195.923706,130.457565 195.923706C131.250259 195.923706,132.010406 195.608765,132.570877 195.048279C133.131363 194.487808,133.446304 193.727661,133.446304 192.934967Z" style="fill: rgb(100.000000%,100.000000%,100.000000%);stroke: none;"></path>
  <path d="M106.187531 170.571701C106.187531 169.779007,105.872589 169.018860,105.312103 168.458389C104.751633 167.897903,103.991486 167.582962,103.198792 167.582962C102.406097 167.582962,101.645950 167.897903,101.085480 168.458389C100.524994 169.018860,100.210052 169.779007,100.210052 170.571701C100.210052 171.364395,100.524994 172.124542,101.085480 172.685013C101.645950 173.245499,102.406097 173.560440,103.198792 173.560440C103.991486 173.560440,104.751633 173.245499,105.312103 172.685013C105.872589 172.124542,106.187531 171.364395,106.187531 170.571701Z" style="fill: rgb(100.000000%,100.000000%,100.000000%);stroke: none;"></path>
  <path d="M102.493011 180.359283C102.493011 179.566589,102.178070 178.806442,101.617584 178.245972C101.057114 177.685486,100.296967 177.370544,99.504272 177.370544C98.711578 177.370544,97.951431 177.685486,97.390961 178.245972C96.830475 178.806442,96.515533 179.566589,96.515533 180.359283C96.515533 181.151978,96.830475 181.912125,97.390961 182.472595C97.951431 183.033081,98.711578 183.348022,99.504272 183.348022C100.296967 183.348022,101.057114 183.033081,101.617584 182.472595C102.178070 181.912125,102.493011 181.151978,102.493011 180.359283Z" style="fill: rgb(100.000000%,100.000000%,100.000000%);stroke: none;"></path>
  <path d="M114.323883 166.172272C114.323883 165.379578,114.008942 164.619431,113.448456 164.058960C112.887985 163.498474,112.127838 163.183533,111.335144 163.183533C110.542450 163.183533,109.782303 163.498474,109.221832 164.058960C108.661346 164.619431,108.346405 165.379578,108.346405 166.172272C108.346405 166.964966,108.661346 167.725113,109.221832 168.285583C109.782303 168.846069,110.542450 169.161011,111.335144 169.161011C112.127838 169.161011,112.887985 168.846069,113.448456 168.285583C114.008942 167.725113,114.323883 166.964966,114.323883 166.172272Z" style="fill: rgb(100.000000%,100.000000%,100.000000%);stroke: none;"></path>
  <path d="M109.084351 168.796906C109.084351 168.004211,108.769409 167.244064,108.208923 166.683594C107.648453 166.123108,106.888306 165.808167,106.095612 165.808167C105.302917 165.808167,104.542770 166.123108,103.982300 166.683594C103.421814 167.244064,103.106873 168.004211,103.106873 168.796906C103.106873 169.589600,103.421814 170.349747,103.982300 170.910217C104.542770 171.470703,105.302917 171.785645,106.095612 171.785645C106.888306 171.785645,107.648453 171.470703,108.208923 170.910217C108.769409 170.349747,109.084351 169.589600,109.084351 168.796906Z" style="fill: rgb(100.000000%,100.000000%,100.000000%);stroke: none;"></path>
  <path d="M116.610138 158.961700C116.610138 158.169006,116.295197 157.408859,115.734711 156.848389C115.174240 156.287903,114.414093 155.972961,113.621399 155.972961C112.828705 155.972961,112.068558 156.287903,111.508087 156.848389C110.947601 157.408859,110.632660 158.169006,110.632660 158.961700C110.632660 159.754395,110.947601 160.514542,111.508087 161.075012C112.068558 161.635498,112.828705 161.950439,113.621399 161.950439C114.414093 161.950439,115.174240 161.635498,115.734711 161.075012C116.295197 160.514542,116.610138 159.754395,116.610138 158.961700Z" style="fill: rgb(100.000000%,100.000000%,100.000000%);stroke: none;"></path>
  <path d="M116.834610 164.665009C116.834610 163.872314,116.519669 163.112167,115.959183 162.551697C115.398712 161.991211,114.638565 161.676270,113.845871 161.676270C113.053177 161.676270,112.293030 161.991211,111.732559 162.551697C111.172073 163.112167,110.857132 163.872314,110.857132 164.665009C110.857132 165.457703,111.172073 166.217850,111.732559 166.778320C112.293030 167.338806,113.053177 167.653748,113.845871 167.653748C114.638565 167.653748,115.398712 167.338806,115.959183 166.778320C116.519669 166.217850,116.834610 165.457703,116.834610 164.665009Z" style="fill: rgb(100.000000%,100.000000%,100.000000%);stroke: none;"></path>
  <path d="M101.714386 154.385818C101.714386 153.593124,101.399445 152.832977,100.838959 152.272507C100.278488 151.712021,99.518341 151.397079,98.725647 151.397079C97.932953 151.397079,97.172806 151.712021,96.612335 152.272507C96.051849 152.832977,95.736908 153.593124,95.736908 154.385818C95.736908 155.178513,96.051849 155.938660,96.612335 156.499130C97.172806 157.059616,97.932953 157.374557,98.725647 157.374557C99.518341 157.374557,100.278488 157.059616,100.838959 156.499130C101.399445 155.938660,101.714386 155.178513,101.714386 154.385818Z" style="fill: rgb(100.000000%,100.000000%,100.000000%);stroke: none;"></path>
  <path d="M112.884903 157.982513C112.884903 157.189819,112.569962 156.429672,112.009476 155.869202C111.449005 155.308716,110.688858 154.993774,109.896164 154.993774C109.103470 154.993774,108.343323 155.308716,107.782852 155.869202C107.222366 156.429672,106.907425 157.189819,106.907425 157.982513C106.907425 158.775208,107.222366 159.535355,107.782852 160.095825C108.343323 160.656311,109.103470 160.971252,109.896164 160.971252C110.688858 160.971252,111.449005 160.656311,112.009476 160.095825C112.569962 159.535355,112.884903 158.775208,112.884903 157.982513Z" style="fill: rgb(100.000000%,100.000000%,100.000000%);stroke: none;"></path>
  <path d="M83.727234 149.113907C67.316025 154.840179,49.247070 153.345352,34.000000 145.000000C15.928589 135.108765,3.876740 116.751465,3.415436 96.207245C2.952988 75.612289,14.624954 56.343704,34.000000 50.126862C47.955368 45.649033,63.331070 49.553131,77.243271 44.925659C83.728271 42.768616,89.470123 38.859756,95.857330 36.437241C98.416260 35.466690,101.151947 34.090195,100.923248 31.545471C100.724457 29.333527,98.351059 28.336914,96.158005 27.602325C93.529022 26.721710,90.852631 25.524796,89.621033 23.051285C87.145050 18.078583,91.335953 12.654663,97.101837 10.206482C109.705109 4.855179,123.680893 9.631165,135.263657 17.239182C147.100891 25.014359,156.863281 36.975815,153.358688 50.075256C149.642090 63.967178,133.773804 68.219147,121.308838 75.233261C112.387863 80.253159,104.948013 87.393906,97.553543 94.456238C89.609985 102.042999,81.570297 109.648239,72.032700 115.118790C57.325500 123.554520,38.457199 128.525116,34.000000 145.000000C29.195038 162.760269,44.357437 178.050842,61.723343 187.238846C79.089539 196.427002,99.964462 201.189682,114.167145 188.733826C119.482605 184.072144,122.208633 176.792282,118.209320 171.615326C116.056931 168.829132,112.473602 167.854126,108.978897 167.352585C106.014008 166.927078,102.740936 166.212769,102.114761 163.432144C101.484818 160.634735,104.161392 158.575455,106.719009 156.959534C112.865417 153.076202,118.367096 148.147781,125.000931 145.148834C138.577332 139.011368,155.093262 141.661484,167.543228 133.265213C181.476120 123.868866,184.938080 105.673553,181.942780 88.757904C178.917175 71.671127,169.545273 55.668686,153.358688 50.075256C140.582840 45.660431,126.345337 49.436935,113.548874 45.090637C107.315689 42.973541,101.893021 39.050110,95.857330 36.437241C93.374298 35.362320,90.734909 33.880920,91.055420 31.370132C91.344360 29.106613,93.853806 28.222137,96.158005 27.602325C98.861176 26.875183,101.620255 25.813110,103.016754 23.397766C105.710892 18.738052,102.250076 13.200073,97.101837 10.206482C84.420227 2.832397,68.980637 7.220078,56.007278 14.627823C42.119492 22.557709,30.282761 35.426651,34.000000 50.126862C37.894562 65.528305,55.679626 69.824585,70.114929 76.545319C80.051498 81.171555,88.794937 87.882187,97.553543 94.456238C106.401901 101.097656,115.410919 107.682144,125.707062 111.763031C140.792755 117.742249,159.130432 119.178162,167.543228 133.265213C175.450073 146.505051,170.201111 163.084137,159.140900 174.563217C147.402832 186.745819,130.457565 192.934967,114.167145 188.733826C106.074402 186.646790,99.504272 180.359283,102.062149 173.582901C103.198792 170.571701,106.095612 168.796906,108.978897 167.352585C111.335144 166.172272,113.845871 164.665009,113.746140 162.131058C113.621399 158.961700,109.896164 157.982513,106.719009 156.959534C98.725647 154.385818,91.953964 146.243408,83.727234 149.113907" style="stroke:rgb(0.000000%,0.000000%,0.000000%); stroke-width: 0.498138;stroke-linecap: round;stroke-linejoin: round;stroke-miterlimit: 10.000000;fill: none;"></path>
  <path d="M83.727234 149.113907C67.316025 154.840179,49.247070 153.345352,34.000000 145.000000C15.928589 135.108765,3.876740 116.751465,3.415436 96.207245C2.952988 75.612289,14.624954 56.343704,34.000000 50.126862" style="stroke:rgb(0.000000%,0.000000%,0.000000%); stroke-width: 1.494400;stroke-linecap: round;stroke-linejoin: round;stroke-miterlimit: 10.000000;fill: none;"></path>
  <path d="M106.719009 156.959534C98.725647 154.385818,91.953964 146.243408,83.727234 149.113907" style="stroke:rgb(0.000000%,0.000000%,0.000000%); stroke-width: 1.494400;stroke-linecap: round;stroke-linejoin: round;stroke-miterlimit: 10.000000;fill: none;"></path>
  <path d="M36.988739 145.000000C36.988739 144.207306,36.673798 143.447159,36.113312 142.886688C35.552841 142.326202,34.792694 142.011261,34.000000 142.011261C33.207306 142.011261,32.447159 142.326202,31.886688 142.886688C31.326202 143.447159,31.011261 144.207306,31.011261 145.000000C31.011261 145.792694,31.326202 146.552841,31.886688 147.113312C32.447159 147.673798,33.207306 147.988739,34.000000 147.988739C34.792694 147.988739,35.552841 147.673798,36.113312 147.113312C36.673798 146.552841,36.988739 145.792694,36.988739 145.000000Z" style="fill: rgb(100.000000%,100.000000%,100.000000%);stroke: none;"></path>
  <path d="M58.427048 152.333801C49.952530 151.632706,41.623535 149.172668,34.000000 145.000000C24.964294 140.054382,17.433472 132.992249,12.103912 124.598480" style="stroke:rgb(0.000000%,0.000000%,0.000000%); stroke-width: 1.494400;stroke-linecap: round;stroke-linejoin: round;stroke-miterlimit: 10.000000;fill: none;"></path>
  <path d="M98.846069 36.437241C98.846069 35.644547,98.531128 34.884399,97.970642 34.323929C97.410172 33.763443,96.650024 33.448502,95.857330 33.448502C95.064636 33.448502,94.304489 33.763443,93.744019 34.323929C93.183533 34.884399,92.868591 35.644547,92.868591 36.437241C92.868591 37.229935,93.183533 37.990082,93.744019 38.550552C94.304489 39.111038,95.064636 39.425980,95.857330 39.425980C96.650024 39.425980,97.410172 39.111038,97.970642 38.550552C98.531128 37.990082,98.846069 37.229935,98.846069 36.437241Z" style="fill: rgb(100.000000%,100.000000%,100.000000%);stroke: none;"></path>
  <path d="M86.586990 40.780991C89.631470 39.231339,92.663727 37.648499,95.857330 36.437241C97.136795 35.951965,98.460449 35.365204,99.435654 34.581665" style="stroke:rgb(0.000000%,0.000000%,0.000000%); stroke-width: 0.498138;stroke-linecap: round;stroke-linejoin: round;stroke-miterlimit: 10.000000;fill: none;"></path>
  <path d="M100.090576 10.206482C100.090576 9.413788,99.775635 8.653641,99.215149 8.093170C98.654678 7.532684,97.894531 7.217743,97.101837 7.217743C96.309143 7.217743,95.548996 7.532684,94.988525 8.093170C94.428040 8.653641,94.113098 9.413788,94.113098 10.206482C94.113098 10.999176,94.428040 11.759323,94.988525 12.319794C95.548996 12.880280,96.309143 13.195221,97.101837 13.195221C97.894531 13.195221,98.654678 12.880280,99.215149 12.319794C99.775635 11.759323,100.090576 10.999176,100.090576 10.206482Z" style="fill: rgb(100.000000%,100.000000%,100.000000%);stroke: none;"></path>
  <path d="M90.270752 15.682175C91.729706 13.398590,94.218903 11.430573,97.101837 10.206482C103.403473 7.530823,110.048248 7.386993,116.565445 8.863098" style="stroke:rgb(0.000000%,0.000000%,0.000000%); stroke-width: 0.498138;stroke-linecap: round;stroke-linejoin: round;stroke-miterlimit: 10.000000;fill: none;"></path>
  <path d="M100.542282 94.456238C100.542282 93.663544,100.227341 92.903397,99.666855 92.342926C99.106384 91.782440,98.346237 91.467499,97.553543 91.467499C96.760849 91.467499,96.000702 91.782440,95.440231 92.342926C94.879745 92.903397,94.564804 93.663544,94.564804 94.456238C94.564804 95.248932,94.879745 96.009079,95.440231 96.569550C96.000702 97.130035,96.760849 97.444977,97.553543 97.444977C98.346237 97.444977,99.106384 97.130035,99.666855 96.569550C100.227341 96.009079,100.542282 95.248932,100.542282 94.456238Z" style="fill: rgb(100.000000%,100.000000%,100.000000%);stroke: none;"></path>
  <path d="M108.858734 84.078842C104.959351 87.374313,101.250778 90.925079,97.553543 94.456238C93.581757 98.249619,89.585938 102.047623,85.390869 105.581100" style="stroke:rgb(0.000000%,0.000000%,0.000000%); stroke-width: 0.498138;stroke-linecap: round;stroke-linejoin: round;stroke-miterlimit: 10.000000;fill: none;"></path>
  <path d="M117.155884 188.733826C117.155884 187.941132,116.840942 187.180984,116.280457 186.620514C115.719986 186.060028,114.959839 185.745087,114.167145 185.745087C113.374451 185.745087,112.614304 186.060028,112.053833 186.620514C111.493347 187.180984,111.178406 187.941132,111.178406 188.733826C111.178406 189.526520,111.493347 190.286667,112.053833 190.847137C112.614304 191.407623,113.374451 191.722565,114.167145 191.722565C114.959839 191.722565,115.719986 191.407623,116.280457 190.847137C116.840942 190.286667,117.155884 189.526520,117.155884 188.733826Z" style="fill: rgb(100.000000%,100.000000%,100.000000%);stroke: none;"></path>
  <path d="M89.131577 196.102844C98.296417 196.885040,107.065811 194.961746,114.167145 188.733826C116.824875 186.402985,118.835251 183.417587,119.681274 180.367783" style="stroke:rgb(0.000000%,0.000000%,0.000000%); stroke-width: 0.498138;stroke-linecap: round;stroke-linejoin: round;stroke-miterlimit: 10.000000;fill: none;"></path>
  <path d="M109.707748 156.959534C109.707748 156.166840,109.392807 155.406693,108.832321 154.846222C108.271851 154.285736,107.511703 153.970795,106.719009 153.970795C105.926315 153.970795,105.166168 154.285736,104.605698 154.846222C104.045212 155.406693,103.730270 156.166840,103.730270 156.959534C103.730270 157.752228,104.045212 158.512375,104.605698 159.072845C105.166168 159.633331,105.926315 159.948273,106.719009 159.948273C107.511703 159.948273,108.271851 159.633331,108.832321 159.072845C109.392807 158.512375,109.707748 157.752228,109.707748 156.959534Z" style="fill: rgb(100.000000%,100.000000%,100.000000%);stroke: none;"></path>
  <path d="M103.221558 159.752762C104.131653 158.686279,105.440201 157.767487,106.719009 156.959534C109.792221 155.017868,112.704239 152.814926,115.677200 150.722534" style="stroke:rgb(0.000000%,0.000000%,0.000000%); stroke-width: 0.498138;stroke-linecap: round;stroke-linejoin: round;stroke-miterlimit: 10.000000;fill: none;"></path>
  <path d="M156.347427 50.075256C156.347427 49.282562,156.032486 48.522415,155.472000 47.961945C154.911530 47.401459,154.151382 47.086517,153.358688 47.086517C152.565994 47.086517,151.805847 47.401459,151.245377 47.961945C150.684891 48.522415,150.369949 49.282562,150.369949 50.075256C150.369949 50.867950,150.684891 51.628098,151.245377 52.188568C151.805847 52.749054,152.565994 53.063995,153.358688 53.063995C154.151382 53.063995,154.911530 52.749054,155.472000 52.188568C156.032486 51.628098,156.347427 50.867950,156.347427 50.075256Z" style="fill: rgb(100.000000%,100.000000%,100.000000%);stroke: none;"></path>
  <path d="M172.586090 65.106567C167.841599 58.270935,161.451981 52.871964,153.358688 50.075256C146.970764 47.867844,140.217422 47.708267,133.461502 47.557251" style="stroke:rgb(0.000000%,0.000000%,0.000000%); stroke-width: 0.498138;stroke-linecap: round;stroke-linejoin: round;stroke-miterlimit: 10.000000;fill: none;"></path>
  <path d="M99.146744 27.602325C99.146744 26.809631,98.831802 26.049484,98.271317 25.489014C97.710846 24.928528,96.950699 24.613586,96.158005 24.613586C95.365311 24.613586,94.605164 24.928528,94.044693 25.489014C93.484207 26.049484,93.169266 26.809631,93.169266 27.602325C93.169266 28.395020,93.484207 29.155167,94.044693 29.715637C94.605164 30.276123,95.365311 30.591064,96.158005 30.591064C96.950699 30.591064,97.710846 30.276123,98.271317 29.715637C98.831802 29.155167,99.146744 28.395020,99.146744 27.602325Z" style="fill: rgb(100.000000%,100.000000%,100.000000%);stroke: none;"></path>
  <path d="M92.850998 28.869827C93.802505 28.288300,95.005905 27.912231,96.158005 27.602325C97.509598 27.238754,98.875168 26.791443,100.077393 26.133118" style="stroke:rgb(0.000000%,0.000000%,0.000000%); stroke-width: 0.498138;stroke-linecap: round;stroke-linejoin: round;stroke-miterlimit: 10.000000;fill: none;"></path>
  <path d="M36.988739 50.126862C36.988739 49.334167,36.673798 48.574020,36.113312 48.013550C35.552841 47.453064,34.792694 47.138123,34.000000 47.138123C33.207306 47.138123,32.447159 47.453064,31.886688 48.013550C31.326202 48.574020,31.011261 49.334167,31.011261 50.126862C31.011261 50.919556,31.326202 51.679703,31.886688 52.240173C32.447159 52.800659,33.207306 53.115601,34.000000 53.115601C34.792694 53.115601,35.552841 52.800659,36.113312 52.240173C36.673798 51.679703,36.988739 50.919556,36.988739 50.126862Z" style="fill: rgb(100.000000%,100.000000%,100.000000%);stroke: none;"></path>
  <path d="M38.401749 29.838486C34.171249 35.884476,32.141388 42.776764,34.000000 50.126862C35.947281 57.827591,41.367188 62.752029,48.104691 66.591370" style="stroke:rgb(0.000000%,0.000000%,0.000000%); stroke-width: 0.498138;stroke-linecap: round;stroke-linejoin: round;stroke-miterlimit: 10.000000;fill: none;"></path>
  <path d="M170.531967 133.265213C170.531967 132.472519,170.217026 131.712372,169.656540 131.151901C169.096069 130.591415,168.335922 130.276474,167.543228 130.276474C166.750534 130.276474,165.990387 130.591415,165.429916 131.151901C164.869431 131.712372,164.554489 132.472519,164.554489 133.265213C164.554489 134.057907,164.869431 134.818054,165.429916 135.378525C165.990387 135.939011,166.750534 136.253952,167.543228 136.253952C168.335922 136.253952,169.096069 135.939011,169.656540 135.378525C170.217026 134.818054,170.531967 134.057907,170.531967 133.265213Z" style="fill: rgb(100.000000%,100.000000%,100.000000%);stroke: none;"></path>
  <path d="M149.127487 119.473694C156.649216 122.340958,163.336838 126.221695,167.543228 133.265213C171.496658 139.885132,172.161133 147.339874,170.454712 154.574509" style="stroke:rgb(0.000000%,0.000000%,0.000000%); stroke-width: 0.498138;stroke-linecap: round;stroke-linejoin: round;stroke-miterlimit: 10.000000;fill: none;"></path>
  <path d="M111.967636 167.352585C111.967636 166.559891,111.652695 165.799744,111.092209 165.239273C110.531738 164.678787,109.771591 164.363846,108.978897 164.363846C108.186203 164.363846,107.426056 164.678787,106.865585 165.239273C106.305099 165.799744,105.990158 166.559891,105.990158 167.352585C105.990158 168.145279,106.305099 168.905426,106.865585 169.465897C107.426056 170.026382,108.186203 170.341324,108.978897 170.341324C109.771591 170.341324,110.531738 170.026382,111.092209 169.465897C111.652695 168.905426,111.967636 168.145279,111.967636 167.352585Z" style="fill: rgb(100.000000%,100.000000%,100.000000%);stroke: none;"></path>
  <path d="M104.865540 169.880157C106.092239 168.879517,107.537262 168.074738,108.978897 167.352585C110.157028 166.762421,111.373779 166.090530,112.283524 165.249420" style="stroke:rgb(0.000000%,0.000000%,0.000000%); stroke-width: 0.498138;stroke-linecap: round;stroke-linejoin: round;stroke-miterlimit: 10.000000;fill: none;"></path>
  <path d="M83.727234 149.113907C70.598221 153.694946,56.408234 153.654449,43.450882 149.182144" style="stroke:rgb(0.000000%,0.000000%,0.000000%); stroke-width: 0.498138;stroke-linecap: round;stroke-linejoin: round;stroke-miterlimit: 10.000000;fill: none;"></path>
  <path d="M48.425232 148.677567C46.778046 148.912750,45.118607 149.081360,43.450882 149.182144C44.701370 150.290161,45.993988 151.344360,47.325012 152.342819Z" style="stroke:rgb(0.000000%,0.000000%,0.000000%); stroke-width: 0.498138;fill: rgb(0.000000%,0.000000%,0.000000%);"></path>
  <path d="M83.727234 149.113907C70.598221 153.694946,56.408234 153.654449,43.450882 149.182144" style="stroke:rgb(0.000000%,0.000000%,0.000000%); stroke-width: 0.498138;stroke-linecap: round;stroke-linejoin: round;stroke-miterlimit: 10.000000;fill: none;"></path>
  <path d="M46.439987 148.928070C45.447159 149.036957,44.450516 149.121735,43.450882 149.182144C44.200424 149.846283,44.965103 150.491089,45.744125 151.116150Z" style="stroke:rgb(0.000000%,0.000000%,0.000000%); stroke-width: 0.498138;fill: rgb(0.000000%,0.000000%,0.000000%);"></path>
  <path d="M100.923248 31.545471C100.764221 29.775909,99.213425 28.784164,97.476608 28.082138" style="stroke:rgb(0.000000%,0.000000%,0.000000%); stroke-width: 0.498138;stroke-linecap: round;stroke-linejoin: round;stroke-miterlimit: 10.000000;fill: none;"></path>
  <path d="M100.439957 28.550003C99.585144 28.173218,98.540726 28.072998,97.476608 28.082138C98.235489 28.828125,98.903137 29.637512,99.241135 30.508408Z" style="stroke:rgb(0.000000%,0.000000%,0.000000%); stroke-width: 0.498138;fill: rgb(0.000000%,0.000000%,0.000000%);"></path>
  <path d="M89.621033 23.051285C87.640244 19.073105,89.926285 14.806152,93.872086 12.005035" style="stroke:rgb(0.000000%,0.000000%,0.000000%); stroke-width: 0.498138;stroke-linecap: round;stroke-linejoin: round;stroke-miterlimit: 10.000000;fill: none;"></path>
  <path d="M92.532166 14.689056C92.873169 13.778671,93.325363 12.875626,93.872086 12.005035C92.869888 12.234024,91.911591 12.552811,91.026703 12.955414Z" style="stroke:rgb(0.000000%,0.000000%,0.000000%); stroke-width: 0.498138;fill: rgb(0.000000%,0.000000%,0.000000%);"></path>
  <path d="M121.308838 75.233261C114.172028 79.249191,107.983154 84.622482,102.007080 90.227081" style="stroke:rgb(0.000000%,0.000000%,0.000000%); stroke-width: 0.498138;stroke-linecap: round;stroke-linejoin: round;stroke-miterlimit: 10.000000;fill: none;"></path>
  <path d="M103.258286 87.500626C102.835617 88.406555,102.419220 89.315826,102.007080 90.227081C102.942871 89.874176,103.880264 89.525665,104.819717 89.183975Z" style="stroke:rgb(0.000000%,0.000000%,0.000000%); stroke-width: 0.498138;fill: rgb(0.000000%,0.000000%,0.000000%);"></path>
  <path d="M118.209320 171.615326C116.487396 169.386368,113.849686 168.316559,111.074158 167.721024" style="stroke:rgb(0.000000%,0.000000%,0.000000%); stroke-width: 0.498138;stroke-linecap: round;stroke-linejoin: round;stroke-miterlimit: 10.000000;fill: none;"></path>
  <path d="M114.057205 167.402847C113.069748 167.418625,112.068512 167.538696,111.074158 167.721024C111.906189 168.295227,112.699051 168.918320,113.408432 169.605423Z" style="stroke:rgb(0.000000%,0.000000%,0.000000%); stroke-width: 0.498138;fill: rgb(0.000000%,0.000000%,0.000000%);"></path>
  <path d="M102.114761 163.432144C101.610809 161.194214,103.223038 159.428680,105.197586 157.984634" style="stroke:rgb(0.000000%,0.000000%,0.000000%); stroke-width: 0.498138;stroke-linecap: round;stroke-linejoin: round;stroke-miterlimit: 10.000000;fill: none;"></path>
  <path d="M103.948273 160.712112C104.193314 159.801727,104.653549 158.878693,105.197586 157.984634C104.180710 158.232117,103.202560 158.559357,102.385559 159.029800Z" style="stroke:rgb(0.000000%,0.000000%,0.000000%); stroke-width: 0.498138;fill: rgb(0.000000%,0.000000%,0.000000%);"></path>
  <path d="M113.548874 45.090637C108.562302 43.396957,104.094467 40.547195,99.416519 38.137268" style="stroke:rgb(0.000000%,0.000000%,0.000000%); stroke-width: 0.498138;stroke-linecap: round;stroke-linejoin: round;stroke-miterlimit: 10.000000;fill: none;"></path>
  <path d="M102.402603 38.426544C101.407883 38.320557,100.412674 38.220139,99.416519 38.137268C100.062302 38.900253,100.694992 39.675018,101.323410 40.453339Z" style="stroke:rgb(0.000000%,0.000000%,0.000000%); stroke-width: 0.498138;fill: rgb(0.000000%,0.000000%,0.000000%);"></path>
  <path d="M91.055420 31.370132C91.286575 29.559311,92.938858 28.631088,94.770279 28.014893" style="stroke:rgb(0.000000%,0.000000%,0.000000%); stroke-width: 0.498138;stroke-linecap: round;stroke-linejoin: round;stroke-miterlimit: 10.000000;fill: none;"></path>
  <path d="M92.852020 30.321472C93.253052 29.480240,93.968475 28.714249,94.770279 28.014893C93.708801 27.942429,92.661285 27.978165,91.782867 28.289429Z" style="stroke:rgb(0.000000%,0.000000%,0.000000%); stroke-width: 0.498138;fill: rgb(0.000000%,0.000000%,0.000000%);"></path>
  <path d="M56.007278 14.627823C44.897003 20.971756,35.099426 30.476715,33.528091 41.551483" style="stroke:rgb(0.000000%,0.000000%,0.000000%); stroke-width: 0.498138;stroke-linecap: round;stroke-linejoin: round;stroke-miterlimit: 10.000000;fill: none;"></path>
  <path d="M32.972626 38.603165C33.094772 39.597580,33.278549 40.581345,33.528091 41.551483C34.037643 40.689041,34.603348 39.863480,35.220123 39.073959Z" style="stroke:rgb(0.000000%,0.000000%,0.000000%); stroke-width: 0.498138;fill: rgb(0.000000%,0.000000%,0.000000%);"></path>
  <path d="M159.140900 174.563217C149.750412 184.309341,137.027298 190.219620,123.972946 190.042847" style="stroke:rgb(0.000000%,0.000000%,0.000000%); stroke-width: 0.498138;stroke-linecap: round;stroke-linejoin: round;stroke-miterlimit: 10.000000;fill: none;"></path>
  <path d="M126.718628 188.834198C125.819504 189.268494,124.903976 189.671860,123.972946 190.042847C124.893600 190.438889,125.826187 190.801056,126.769073 191.129730Z" style="stroke:rgb(0.000000%,0.000000%,0.000000%); stroke-width: 0.498138;fill: rgb(0.000000%,0.000000%,0.000000%);"></path>
  <path d="M113.746140 162.131058C113.646347 159.595566,111.242218 158.461792,108.657852 157.585922" style="stroke:rgb(0.000000%,0.000000%,0.000000%); stroke-width: 0.498138;stroke-linecap: round;stroke-linejoin: round;stroke-miterlimit: 10.000000;fill: none;"></path>
  <path d="M111.657715 157.617813C110.723923 157.493469,109.695816 157.517380,108.657852 157.585922C109.440262 158.271408,110.184128 158.981506,110.756500 159.729721Z" style="stroke:rgb(0.000000%,0.000000%,0.000000%); stroke-width: 0.498138;fill: rgb(0.000000%,0.000000%,0.000000%);"></path>
  <path d="M0.424789 98.917450L6.406082 98.917450L6.406082 91.497055L0.424789 91.497055Z" style="fill: rgb(100.000000%,100.000000%,100.000000%);stroke: none;"></path>
  <path d="M0.424789 100.917450L6.406082 100.917450L6.406082 93.497055L0.424789 93.497055Z" style="fill: rgb(100.000000%,100.000000%,100.000000%);stroke: none;"></path>
  <g transform="translate(0.924789 99.417450)" style="fill: rgb(0.000000%,0.000000%,0.000000%);">
    <use xlink:href="#GLYPHcmr10_49"></use>
  </g>
  <path d="M74.252625 47.635864L80.233917 47.635864L80.233917 40.215469L74.252625 40.215469Z" style="fill: rgb(100.000000%,100.000000%,100.000000%);stroke: none;"></path>
  <path d="M74.252625 49.635864L80.233917 49.635864L80.233917 42.215469L74.252625 42.215469Z" style="fill: rgb(100.000000%,100.000000%,100.000000%);stroke: none;"></path>
  <g transform="translate(74.752625 48.135864)" style="fill: rgb(0.000000%,0.000000%,0.000000%);">
    <use xlink:href="#GLYPHcmr10_50"></use>
  </g>
  <path d="M132.273010 19.949387L138.254303 19.949387L138.254303 12.528992L132.273010 12.528992Z" style="fill: rgb(100.000000%,100.000000%,100.000000%);stroke: none;"></path>
  <path d="M132.273010 21.949387L138.254303 21.949387L138.254303 14.528992L132.273010 14.528992Z" style="fill: rgb(100.000000%,100.000000%,100.000000%);stroke: none;"></path>
  <g transform="translate(132.773010 20.449387)" style="fill: rgb(0.000000%,0.000000%,0.000000%);">
    <use xlink:href="#GLYPHcmr10_51"></use>
  </g>
  <path d="M69.042053 117.828995L75.023346 117.828995L75.023346 110.408600L69.042053 110.408600Z" style="fill: rgb(100.000000%,100.000000%,100.000000%);stroke: none;"></path>
  <path d="M69.042053 119.828995L75.023346 119.828995L75.023346 112.408600L69.042053 112.408600Z" style="fill: rgb(100.000000%,100.000000%,100.000000%);stroke: none;"></path>
  <g transform="translate(69.542053 118.328995)" style="fill: rgb(0.000000%,0.000000%,0.000000%);">
    <use xlink:href="#GLYPHcmr10_52"></use>
  </g>
  <path d="M58.732697 189.949051L64.713989 189.949051L64.713989 182.528656L58.732697 182.528656Z" style="fill: rgb(100.000000%,100.000000%,100.000000%);stroke: none;"></path>
  <path d="M58.732697 191.949051L64.713989 191.949051L64.713989 184.528656L58.732697 184.528656Z" style="fill: rgb(100.000000%,100.000000%,100.000000%);stroke: none;"></path>
  <g transform="translate(59.232697 190.449051)" style="fill: rgb(0.000000%,0.000000%,0.000000%);">
    <use xlink:href="#GLYPHcmr10_53"></use>
  </g>
  <path d="M122.010284 147.859039L127.991577 147.859039L127.991577 140.438644L122.010284 140.438644Z" style="fill: rgb(100.000000%,100.000000%,100.000000%);stroke: none;"></path>
  <path d="M122.010284 149.859039L127.991577 149.859039L127.991577 142.438644L122.010284 142.438644Z" style="fill: rgb(100.000000%,100.000000%,100.000000%);stroke: none;"></path>
  <g transform="translate(122.510284 148.359039)" style="fill: rgb(0.000000%,0.000000%,0.000000%);">
    <use xlink:href="#GLYPHcmr10_54"></use>
  </g>
  <path d="M178.952133 91.468109L184.933426 91.468109L184.933426 84.047714L178.952133 84.047714Z" style="fill: rgb(100.000000%,100.000000%,100.000000%);stroke: none;"></path>
  <path d="M178.952133 93.468109L184.933426 93.468109L184.933426 86.047714L178.952133 86.047714Z" style="fill: rgb(100.000000%,100.000000%,100.000000%);stroke: none;"></path>
  <g transform="translate(179.452133 91.968109)" style="fill: rgb(0.000000%,0.000000%,0.000000%);">
    <use xlink:href="#GLYPHcmr10_55"></use>
  </g>
  <path d="M100.026108 26.107971L106.007401 26.107971L106.007401 18.687576L100.026108 18.687576Z" style="fill: rgb(100.000000%,100.000000%,100.000000%);stroke: none;"></path>
  <path d="M100.026108 28.107971L106.007401 28.107971L106.007401 20.687576L100.026108 20.687576Z" style="fill: rgb(100.000000%,100.000000%,100.000000%);stroke: none;"></path>
  <g transform="translate(100.526108 26.607971)" style="fill: rgb(0.000000%,0.000000%,0.000000%);">
    <use xlink:href="#GLYPHcmr10_56"></use>
  </g>
  <path d="M67.124283 79.255524L73.105576 79.255524L73.105576 71.835129L67.124283 71.835129Z" style="fill: rgb(100.000000%,100.000000%,100.000000%);stroke: none;"></path>
  <path d="M67.124283 81.255524L73.105576 81.255524L73.105576 73.835129L67.124283 73.835129Z" style="fill: rgb(100.000000%,100.000000%,100.000000%);stroke: none;"></path>
  <g transform="translate(67.624283 79.755524)" style="fill: rgb(0.000000%,0.000000%,0.000000%);">
    <use xlink:href="#GLYPHcmr10_57"></use>
  </g>
  <path d="M120.225708 114.473236L131.188416 114.473236L131.188416 107.052841L120.225708 107.052841Z" style="fill: rgb(100.000000%,100.000000%,100.000000%);stroke: none;"></path>
  <path d="M120.225708 116.473236L131.188416 116.473236L131.188416 109.052841L120.225708 109.052841Z" style="fill: rgb(100.000000%,100.000000%,100.000000%);stroke: none;"></path>
  <g transform="translate(120.725708 114.973236)" style="fill: rgb(0.000000%,0.000000%,0.000000%);">
    <use xlink:href="#GLYPHcmr10_49"></use>
    <use xlink:href="#GLYPHcmr10_48" x="5.000095"></use>
  </g>
  <path d="M96.580795 176.293106L107.543503 176.293106L107.543503 168.872711L96.580795 168.872711Z" style="fill: rgb(100.000000%,100.000000%,100.000000%);stroke: none;"></path>
  <path d="M96.580795 178.293106L107.543503 178.293106L107.543503 170.872711L96.580795 170.872711Z" style="fill: rgb(100.000000%,100.000000%,100.000000%);stroke: none;"></path>
  <g transform="translate(97.080795 176.793106)" style="fill: rgb(0.000000%,0.000000%,0.000000%);">
    <use xlink:href="#GLYPHcmr10_49"></use>
    <use xlink:href="#GLYPHcmr10_49" x="5.000095"></use>
  </g>
</svg>
