<?xml version="1.0"?>
<!-- Created by MetaPost 1.999 on 2021.07.06:0005 -->
<svg version="1.1" xmlns="http://www.w3.org/2000/svg" xmlns:xlink="http://www.w3.org/1999/xlink" width="195.729446" height="201.310242" viewBox="0 0 195.729446 201.310242">
<!-- Original BoundingBox: -143.218109 -37.706314 52.511337 163.603928 -->
  <defs>
    <g transform="scale(0.009963,0.009963)" id="GLYPHcmr10_48">
      <path style="fill-rule: evenodd;" d="M460.000000 -320.000000C460.000000 -400.000000,455.000000 -480.000000,420.000000 -554.000000C374.000000 -650.000000,292.000000 -666.000000,250.000000 -666.000000C190.000000 -666.000000,117.000000 -640.000000,76.000000 -547.000000C44.000000 -478.000000,39.000000 -400.000000,39.000000 -320.000000C39.000000 -245.000000,43.000000 -155.000000,84.000000 -79.000000C127.000000 2.000000,200.000000 22.000000,249.000000 22.000000C303.000000 22.000000,379.000000 1.000000,423.000000 -94.000000C455.000000 -163.000000,460.000000 -241.000000,460.000000 -320.000000M249.000000 -0.000000C210.000000 -0.000000,151.000000 -25.000000,133.000000 -121.000000C122.000000 -181.000000,122.000000 -273.000000,122.000000 -332.000000C122.000000 -396.000000,122.000000 -462.000000,130.000000 -516.000000C149.000000 -635.000000,224.000000 -644.000000,249.000000 -644.000000C282.000000 -644.000000,348.000000 -626.000000,367.000000 -527.000000C377.000000 -471.000000,377.000000 -395.000000,377.000000 -332.000000C377.000000 -257.000000,377.000000 -189.000000,366.000000 -125.000000C351.000000 -30.000000,294.000000 -0.000000,249.000000 -0.000000"></path>
    </g>
    <g transform="scale(0.009963,0.009963)" id="GLYPHcmr10_49">
      <path style="fill-rule: evenodd;" d="M294.000000 -640.000000C294.000000 -664.000000,294.000000 -666.000000,271.000000 -666.000000C209.000000 -602.000000,121.000000 -602.000000,89.000000 -602.000000L89.000000 -571.000000C109.000000 -571.000000,168.000000 -571.000000,220.000000 -597.000000L220.000000 -79.000000C220.000000 -43.000000,217.000000 -31.000000,127.000000 -31.000000L95.000000 -31.000000L95.000000 -0.000000L257.000000 -0.000000L130.000000 -3.000000L217.000000 -3.000000L257.000000 -3.000000L297.000000 -3.000000L384.000000 -3.000000L419.000000 -0.000000L419.000000 -31.000000L387.000000 -31.000000C297.000000 -31.000000,294.000000 -42.000000,294.000000 -79.000000"></path>
    </g>
    <g transform="scale(0.009963,0.009963)" id="GLYPHcmr10_50">
      <path style="fill-rule: evenodd;" d="M127.000000 -77.000000L233.000000 -180.000000C389.000000 -318.000000,449.000000 -372.000000,449.000000 -472.000000C449.000000 -586.000000,359.000000 -666.000000,237.000000 -666.000000C124.000000 -666.000000,50.000000 -574.000000,50.000000 -485.000000C50.000000 -429.000000,100.000000 -429.000000,103.000000 -429.000000C120.000000 -429.000000,155.000000 -441.000000,155.000000 -482.000000C155.000000 -508.000000,137.000000 -534.000000,102.000000 -534.000000C94.000000 -534.000000,92.000000 -534.000000,89.000000 -533.000000C112.000000 -598.000000,166.000000 -635.000000,224.000000 -635.000000C315.000000 -635.000000,358.000000 -554.000000,358.000000 -472.000000C358.000000 -392.000000,308.000000 -313.000000,253.000000 -251.000000L61.000000 -37.000000C50.000000 -26.000000,50.000000 -24.000000,50.000000 -0.000000L421.000000 -0.000000L449.000000 -174.000000L424.000000 -174.000000C419.000000 -144.000000,412.000000 -100.000000,402.000000 -85.000000C395.000000 -77.000000,329.000000 -77.000000,307.000000 -77.000000"></path>
    </g>
    <g transform="scale(0.009963,0.009963)" id="GLYPHcmr10_51">
      <path style="fill-rule: evenodd;" d="M290.000000 -352.000000C372.000000 -379.000000,430.000000 -449.000000,430.000000 -528.000000C430.000000 -610.000000,342.000000 -666.000000,246.000000 -666.000000C145.000000 -666.000000,69.000000 -606.000000,69.000000 -530.000000C69.000000 -497.000000,91.000000 -478.000000,120.000000 -478.000000C151.000000 -478.000000,171.000000 -500.000000,171.000000 -529.000000C171.000000 -579.000000,124.000000 -579.000000,109.000000 -579.000000C140.000000 -628.000000,206.000000 -641.000000,242.000000 -641.000000C283.000000 -641.000000,338.000000 -619.000000,338.000000 -529.000000C338.000000 -517.000000,336.000000 -459.000000,310.000000 -415.000000C280.000000 -367.000000,246.000000 -364.000000,221.000000 -363.000000C213.000000 -362.000000,189.000000 -360.000000,182.000000 -360.000000C174.000000 -359.000000,167.000000 -358.000000,167.000000 -348.000000C167.000000 -337.000000,174.000000 -337.000000,191.000000 -337.000000L235.000000 -337.000000C317.000000 -337.000000,354.000000 -269.000000,354.000000 -171.000000C354.000000 -35.000000,285.000000 -6.000000,241.000000 -6.000000C198.000000 -6.000000,123.000000 -23.000000,88.000000 -82.000000C123.000000 -77.000000,154.000000 -99.000000,154.000000 -137.000000C154.000000 -173.000000,127.000000 -193.000000,98.000000 -193.000000C74.000000 -193.000000,42.000000 -179.000000,42.000000 -135.000000C42.000000 -44.000000,135.000000 22.000000,244.000000 22.000000C366.000000 22.000000,457.000000 -69.000000,457.000000 -171.000000C457.000000 -253.000000,394.000000 -331.000000,290.000000 -352.000000"></path>
    </g>
    <g transform="scale(0.009963,0.009963)" id="GLYPHcmr10_52">
      <path style="fill-rule: evenodd;" d="M294.000000 -165.000000L294.000000 -78.000000C294.000000 -42.000000,292.000000 -31.000000,218.000000 -31.000000L197.000000 -31.000000L197.000000 -0.000000L332.000000 -0.000000L238.000000 -3.000000L290.000000 -3.000000L332.000000 -3.000000L374.000000 -3.000000L427.000000 -3.000000L468.000000 -0.000000L468.000000 -31.000000L447.000000 -31.000000C373.000000 -31.000000,371.000000 -42.000000,371.000000 -78.000000L371.000000 -165.000000L471.000000 -165.000000L471.000000 -196.000000L371.000000 -196.000000L371.000000 -651.000000C371.000000 -671.000000,371.000000 -677.000000,355.000000 -677.000000C346.000000 -677.000000,343.000000 -677.000000,335.000000 -665.000000L28.000000 -196.000000L28.000000 -165.000000M300.000000 -196.000000L56.000000 -196.000000L300.000000 -569.000000"></path>
    </g>
    <g transform="scale(0.009963,0.009963)" id="GLYPHcmr10_53">
      <path style="fill-rule: evenodd;" d="M449.000000 -201.000000C449.000000 -320.000000,367.000000 -420.000000,259.000000 -420.000000C211.000000 -420.000000,168.000000 -404.000000,132.000000 -369.000000L132.000000 -564.000000C152.000000 -558.000000,185.000000 -551.000000,217.000000 -551.000000C340.000000 -551.000000,410.000000 -642.000000,410.000000 -655.000000C410.000000 -661.000000,407.000000 -666.000000,400.000000 -666.000000C399.000000 -666.000000,397.000000 -666.000000,392.000000 -663.000000C372.000000 -654.000000,323.000000 -634.000000,256.000000 -634.000000C216.000000 -634.000000,170.000000 -641.000000,123.000000 -662.000000C115.000000 -665.000000,113.000000 -665.000000,111.000000 -665.000000C101.000000 -665.000000,101.000000 -657.000000,101.000000 -641.000000L101.000000 -345.000000C101.000000 -327.000000,101.000000 -319.000000,115.000000 -319.000000C122.000000 -319.000000,124.000000 -322.000000,128.000000 -328.000000C139.000000 -344.000000,176.000000 -398.000000,257.000000 -398.000000C309.000000 -398.000000,334.000000 -352.000000,342.000000 -334.000000C358.000000 -297.000000,360.000000 -258.000000,360.000000 -208.000000C360.000000 -173.000000,360.000000 -113.000000,336.000000 -71.000000C312.000000 -32.000000,275.000000 -6.000000,229.000000 -6.000000C156.000000 -6.000000,99.000000 -59.000000,82.000000 -118.000000C85.000000 -117.000000,88.000000 -116.000000,99.000000 -116.000000C132.000000 -116.000000,149.000000 -141.000000,149.000000 -165.000000C149.000000 -189.000000,132.000000 -214.000000,99.000000 -214.000000C85.000000 -214.000000,50.000000 -207.000000,50.000000 -161.000000C50.000000 -75.000000,119.000000 22.000000,231.000000 22.000000C347.000000 22.000000,449.000000 -74.000000,449.000000 -201.000000"></path>
    </g>
    <g transform="scale(0.009963,0.009963)" id="GLYPHcmr10_54">
      <path style="fill-rule: evenodd;" d="M132.000000 -328.000000L132.000000 -352.000000C132.000000 -605.000000,256.000000 -641.000000,307.000000 -641.000000C331.000000 -641.000000,373.000000 -635.000000,395.000000 -601.000000C380.000000 -601.000000,340.000000 -601.000000,340.000000 -556.000000C340.000000 -525.000000,364.000000 -510.000000,386.000000 -510.000000C402.000000 -510.000000,432.000000 -519.000000,432.000000 -558.000000C432.000000 -618.000000,388.000000 -666.000000,305.000000 -666.000000C177.000000 -666.000000,42.000000 -537.000000,42.000000 -316.000000C42.000000 -49.000000,158.000000 22.000000,251.000000 22.000000C362.000000 22.000000,457.000000 -72.000000,457.000000 -204.000000C457.000000 -331.000000,368.000000 -427.000000,257.000000 -427.000000C189.000000 -427.000000,152.000000 -376.000000,132.000000 -328.000000M251.000000 -6.000000C188.000000 -6.000000,158.000000 -66.000000,152.000000 -81.000000C134.000000 -128.000000,134.000000 -208.000000,134.000000 -226.000000C134.000000 -304.000000,166.000000 -404.000000,256.000000 -404.000000C272.000000 -404.000000,318.000000 -404.000000,349.000000 -342.000000C367.000000 -305.000000,367.000000 -254.000000,367.000000 -205.000000C367.000000 -157.000000,367.000000 -107.000000,350.000000 -71.000000C320.000000 -11.000000,274.000000 -6.000000,251.000000 -6.000000"></path>
    </g>
    <g transform="scale(0.009963,0.009963)" id="GLYPHcmr10_55">
      <path style="fill-rule: evenodd;" d="M476.000000 -609.000000C485.000000 -621.000000,485.000000 -623.000000,485.000000 -644.000000L242.000000 -644.000000C120.000000 -644.000000,118.000000 -657.000000,114.000000 -676.000000L89.000000 -676.000000L56.000000 -470.000000L81.000000 -470.000000C84.000000 -486.000000,93.000000 -549.000000,106.000000 -561.000000C113.000000 -567.000000,191.000000 -567.000000,204.000000 -567.000000L411.000000 -567.000000C400.000000 -551.000000,321.000000 -442.000000,299.000000 -409.000000C209.000000 -274.000000,176.000000 -135.000000,176.000000 -33.000000C176.000000 -23.000000,176.000000 22.000000,222.000000 22.000000C268.000000 22.000000,268.000000 -23.000000,268.000000 -33.000000L268.000000 -84.000000C268.000000 -139.000000,271.000000 -194.000000,279.000000 -248.000000C283.000000 -271.000000,297.000000 -357.000000,341.000000 -419.000000"></path>
    </g>
    <g transform="scale(0.009963,0.009963)" id="GLYPHcmr10_56">
      <path style="fill-rule: evenodd;" d="M163.000000 -457.000000C117.000000 -487.000000,113.000000 -521.000000,113.000000 -538.000000C113.000000 -599.000000,178.000000 -641.000000,249.000000 -641.000000C322.000000 -641.000000,386.000000 -589.000000,386.000000 -517.000000C386.000000 -460.000000,347.000000 -412.000000,287.000000 -377.000000M309.000000 -362.000000C381.000000 -399.000000,430.000000 -451.000000,430.000000 -517.000000C430.000000 -609.000000,341.000000 -666.000000,250.000000 -666.000000C150.000000 -666.000000,69.000000 -592.000000,69.000000 -499.000000C69.000000 -481.000000,71.000000 -436.000000,113.000000 -389.000000C124.000000 -377.000000,161.000000 -352.000000,186.000000 -335.000000C128.000000 -306.000000,42.000000 -250.000000,42.000000 -151.000000C42.000000 -45.000000,144.000000 22.000000,249.000000 22.000000C362.000000 22.000000,457.000000 -61.000000,457.000000 -168.000000C457.000000 -204.000000,446.000000 -249.000000,408.000000 -291.000000C389.000000 -312.000000,373.000000 -322.000000,309.000000 -362.000000M209.000000 -320.000000L332.000000 -242.000000C360.000000 -223.000000,407.000000 -193.000000,407.000000 -132.000000C407.000000 -58.000000,332.000000 -6.000000,250.000000 -6.000000C164.000000 -6.000000,92.000000 -68.000000,92.000000 -151.000000C92.000000 -209.000000,124.000000 -273.000000,209.000000 -320.000000"></path>
    </g>
    <g transform="scale(0.009963,0.009963)" id="GLYPHcmr10_57">
      <path style="fill-rule: evenodd;" d="M367.000000 -318.000000L367.000000 -286.000000C367.000000 -52.000000,263.000000 -6.000000,205.000000 -6.000000C188.000000 -6.000000,134.000000 -8.000000,107.000000 -42.000000C151.000000 -42.000000,159.000000 -71.000000,159.000000 -88.000000C159.000000 -119.000000,135.000000 -134.000000,113.000000 -134.000000C97.000000 -134.000000,67.000000 -125.000000,67.000000 -86.000000C67.000000 -19.000000,121.000000 22.000000,206.000000 22.000000C335.000000 22.000000,457.000000 -114.000000,457.000000 -329.000000C457.000000 -598.000000,342.000000 -666.000000,253.000000 -666.000000C198.000000 -666.000000,149.000000 -648.000000,106.000000 -603.000000C65.000000 -558.000000,42.000000 -516.000000,42.000000 -441.000000C42.000000 -316.000000,130.000000 -218.000000,242.000000 -218.000000C303.000000 -218.000000,344.000000 -260.000000,367.000000 -318.000000M243.000000 -241.000000C227.000000 -241.000000,181.000000 -241.000000,150.000000 -304.000000C132.000000 -341.000000,132.000000 -391.000000,132.000000 -440.000000C132.000000 -494.000000,132.000000 -541.000000,153.000000 -578.000000C180.000000 -628.000000,218.000000 -641.000000,253.000000 -641.000000C299.000000 -641.000000,332.000000 -607.000000,349.000000 -562.000000C361.000000 -530.000000,365.000000 -467.000000,365.000000 -421.000000C365.000000 -338.000000,331.000000 -241.000000,243.000000 -241.000000"></path>
    </g>
  </defs>
  <path d="M114.477417 197.717575C114.477417 196.924881,114.162476 196.164734,113.601990 195.604263C113.041519 195.043777,112.281372 194.728836,111.488678 194.728836C110.695984 194.728836,109.935837 195.043777,109.375366 195.604263C108.814880 196.164734,108.499939 196.924881,108.499939 197.717575C108.499939 198.510269,108.814880 199.270416,109.375366 199.830887C109.935837 200.391373,110.695984 200.706314,111.488678 200.706314C112.281372 200.706314,113.041519 200.391373,113.601990 199.830887C114.162476 199.270416,114.477417 198.510269,114.477417 197.717575Z" style="fill: rgb(100.000000%,100.000000%,100.000000%);stroke: none;"></path>
  <path d="M91.928223 190.669144C91.928223 189.876450,91.613281 189.116302,91.052795 188.555832C90.492325 187.995346,89.732178 187.680405,88.939484 187.680405C88.146790 187.680405,87.386642 187.995346,86.826172 188.555832C86.265686 189.116302,85.950745 189.876450,85.950745 190.669144C85.950745 191.461838,86.265686 192.221985,86.826172 192.782455C87.386642 193.342941,88.146790 193.657883,88.939484 193.657883C89.732178 193.657883,90.492325 193.342941,91.052795 192.782455C91.613281 192.221985,91.928223 191.461838,91.928223 190.669144Z" style="fill: rgb(100.000000%,100.000000%,100.000000%);stroke: none;"></path>
  <path d="M150.652664 149.006943C150.652664 148.214249,150.337723 147.454102,149.777237 146.893631C149.216766 146.333145,148.456619 146.018204,147.663925 146.018204C146.871231 146.018204,146.111084 146.333145,145.550613 146.893631C144.990128 147.454102,144.675186 148.214249,144.675186 149.006943C144.675186 149.799637,144.990128 150.559784,145.550613 151.120255C146.111084 151.680740,146.871231 151.995682,147.663925 151.995682C148.456619 151.995682,149.216766 151.680740,149.777237 151.120255C150.337723 150.559784,150.652664 149.799637,150.652664 149.006943Z" style="fill: rgb(100.000000%,100.000000%,100.000000%);stroke: none;"></path>
  <path d="M138.518433 185.412949C138.518433 184.620255,138.203491 183.860107,137.643005 183.299637C137.082535 182.739151,136.322388 182.424210,135.529694 182.424210C134.737000 182.424210,133.976852 182.739151,133.416382 183.299637C132.855896 183.860107,132.540955 184.620255,132.540955 185.412949C132.540955 186.205643,132.855896 186.965790,133.416382 187.526260C133.976852 188.086746,134.737000 188.401688,135.529694 188.401688C136.322388 188.401688,137.082535 188.086746,137.643005 187.526260C138.203491 186.965790,138.518433 186.205643,138.518433 185.412949Z" style="fill: rgb(100.000000%,100.000000%,100.000000%);stroke: none;"></path>
  <path d="M146.318100 111.807892C146.318100 111.015198,146.003159 110.255051,145.442673 109.694580C144.882202 109.134094,144.122055 108.819153,143.329361 108.819153C142.536667 108.819153,141.776520 109.134094,141.216049 109.694580C140.655563 110.255051,140.340622 111.015198,140.340622 111.807892C140.340622 112.600586,140.655563 113.360733,141.216049 113.921204C141.776520 114.481689,142.536667 114.796631,143.329361 114.796631C144.122055 114.796631,144.882202 114.481689,145.442673 113.921204C146.003159 113.360733,146.318100 112.600586,146.318100 111.807892Z" style="fill: rgb(100.000000%,100.000000%,100.000000%);stroke: none;"></path>
  <path d="M147.247040 134.060364C147.247040 133.267670,146.932098 132.507523,146.371613 131.947052C145.811142 131.386566,145.050995 131.071625,144.258301 131.071625C143.465607 131.071625,142.705460 131.386566,142.144989 131.947052C141.584503 132.507523,141.269562 133.267670,141.269562 134.060364C141.269562 134.853058,141.584503 135.613205,142.144989 136.173676C142.705460 136.734161,143.465607 137.049103,144.258301 137.049103C145.050995 137.049103,145.811142 136.734161,146.371613 136.173676C146.932098 135.613205,147.247040 134.853058,147.247040 134.060364Z" style="fill: rgb(100.000000%,100.000000%,100.000000%);stroke: none;"></path>
  <path d="M145.248199 89.468307C145.248199 88.675613,144.933258 87.915466,144.372772 87.354996C143.812302 86.794510,143.052155 86.479568,142.259460 86.479568C141.466766 86.479568,140.706619 86.794510,140.146149 87.354996C139.585663 87.915466,139.270721 88.675613,139.270721 89.468307C139.270721 90.261002,139.585663 91.021149,140.146149 91.581619C140.706619 92.142105,141.466766 92.457047,142.259460 92.457047C143.052155 92.457047,143.812302 92.142105,144.372772 91.581619C144.933258 91.021149,145.248199 90.261002,145.248199 89.468307Z" style="fill: rgb(100.000000%,100.000000%,100.000000%);stroke: none;"></path>
  <path d="M146.768509 104.194565C146.768509 103.401871,146.453568 102.641724,145.893082 102.081253C145.332611 101.520767,144.572464 101.205826,143.779770 101.205826C142.987076 101.205826,142.226929 101.520767,141.666458 102.081253C141.105972 102.641724,140.791031 103.401871,140.791031 104.194565C140.791031 104.987259,141.105972 105.747406,141.666458 106.307877C142.226929 106.868362,142.987076 107.183304,143.779770 107.183304C144.572464 107.183304,145.332611 106.868362,145.893082 106.307877C146.453568 105.747406,146.768509 104.987259,146.768509 104.194565Z" style="fill: rgb(100.000000%,100.000000%,100.000000%);stroke: none;"></path>
  <path d="M152.704681 66.234802C152.704681 65.442108,152.389740 64.681961,151.829254 64.121490C151.268784 63.561005,150.508636 63.246063,149.715942 63.246063C148.923248 63.246063,148.163101 63.561005,147.602631 64.121490C147.042145 64.681961,146.727203 65.442108,146.727203 66.234802C146.727203 67.027496,147.042145 67.787643,147.602631 68.348114C148.163101 68.908600,148.923248 69.223541,149.715942 69.223541C150.508636 69.223541,151.268784 68.908600,151.829254 68.348114C152.389740 67.787643,152.704681 67.027496,152.704681 66.234802Z" style="fill: rgb(100.000000%,100.000000%,100.000000%);stroke: none;"></path>
  <path d="M143.549240 81.912109C143.549240 81.119415,143.234299 80.359268,142.673813 79.798798C142.113342 79.238312,141.353195 78.923370,140.560501 78.923370C139.767807 78.923370,139.007660 79.238312,138.447189 79.798798C137.886703 80.359268,137.571762 81.119415,137.571762 81.912109C137.571762 82.704803,137.886703 83.464951,138.447189 84.025421C139.007660 84.585907,139.767807 84.900848,140.560501 84.900848C141.353195 84.900848,142.113342 84.585907,142.673813 84.025421C143.234299 83.464951,143.549240 82.704803,143.549240 81.912109Z" style="fill: rgb(100.000000%,100.000000%,100.000000%);stroke: none;"></path>
  <path d="M193.864792 82.313339C193.864792 81.520645,193.549850 80.760498,192.989365 80.200027C192.428894 79.639542,191.668747 79.324600,190.876053 79.324600C190.083359 79.324600,189.323212 79.639542,188.762741 80.200027C188.202255 80.760498,187.887314 81.520645,187.887314 82.313339C187.887314 83.106033,188.202255 83.866180,188.762741 84.426651C189.323212 84.987137,190.083359 85.302078,190.876053 85.302078C191.668747 85.302078,192.428894 84.987137,192.989365 84.426651C193.549850 83.866180,193.864792 83.106033,193.864792 82.313339Z" style="fill: rgb(100.000000%,100.000000%,100.000000%);stroke: none;"></path>
  <path d="M165.625092 65.136826C165.625092 64.344131,165.310150 63.583984,164.749664 63.023514C164.189194 62.463028,163.429047 62.148087,162.636353 62.148087C161.843658 62.148087,161.083511 62.463028,160.523041 63.023514C159.962555 63.583984,159.647614 64.344131,159.647614 65.136826C159.647614 65.929520,159.962555 66.689667,160.523041 67.250137C161.083511 67.810623,161.843658 68.125565,162.636353 68.125565C163.429047 68.125565,164.189194 67.810623,164.749664 67.250137C165.310150 66.689667,165.625092 65.929520,165.625092 65.136826Z" style="fill: rgb(100.000000%,100.000000%,100.000000%);stroke: none;"></path>
  <path d="M181.677475 149.168747C181.677475 148.376053,181.362534 147.615906,180.802048 147.055435C180.241577 146.494949,179.481430 146.180008,178.688736 146.180008C177.896042 146.180008,177.135895 146.494949,176.575424 147.055435C176.014938 147.615906,175.699997 148.376053,175.699997 149.168747C175.699997 149.961441,176.014938 150.721588,176.575424 151.282059C177.135895 151.842545,177.896042 152.157486,178.688736 152.157486C179.481430 152.157486,180.241577 151.842545,180.802048 151.282059C181.362534 150.721588,181.677475 149.961441,181.677475 149.168747Z" style="fill: rgb(100.000000%,100.000000%,100.000000%);stroke: none;"></path>
  <path d="M195.511337 106.946350C195.511337 106.153656,195.196396 105.393509,194.635910 104.833038C194.075439 104.272552,193.315292 103.957611,192.522598 103.957611C191.729904 103.957611,190.969757 104.272552,190.409286 104.833038C189.848801 105.393509,189.533859 106.153656,189.533859 106.946350C189.533859 107.739044,189.848801 108.499191,190.409286 109.059662C190.969757 109.620148,191.729904 109.935089,192.522598 109.935089C193.315292 109.935089,194.075439 109.620148,194.635910 109.059662C195.196396 108.499191,195.511337 107.739044,195.511337 106.946350Z" style="fill: rgb(100.000000%,100.000000%,100.000000%);stroke: none;"></path>
  <path d="M131.180679 159.970779C131.180679 159.178085,130.865738 158.417938,130.305252 157.857468C129.744781 157.296982,128.984634 156.982040,128.191940 156.982040C127.399246 156.982040,126.639099 157.296982,126.078629 157.857468C125.518143 158.417938,125.203201 159.178085,125.203201 159.970779C125.203201 160.763474,125.518143 161.523621,126.078629 162.084091C126.639099 162.644577,127.399246 162.959518,128.191940 162.959518C128.984634 162.959518,129.744781 162.644577,130.305252 162.084091C130.865738 161.523621,131.180679 160.763474,131.180679 159.970779Z" style="fill: rgb(100.000000%,100.000000%,100.000000%);stroke: none;"></path>
  <path d="M165.761124 167.044769C165.761124 166.252075,165.446182 165.491928,164.885696 164.931458C164.325226 164.370972,163.565079 164.056030,162.772385 164.056030C161.979691 164.056030,161.219543 164.370972,160.659073 164.931458C160.098587 165.491928,159.783646 166.252075,159.783646 167.044769C159.783646 167.837463,160.098587 168.597610,160.659073 169.158081C161.219543 169.718567,161.979691 170.033508,162.772385 170.033508C163.565079 170.033508,164.325226 169.718567,164.885696 169.158081C165.446182 168.597610,165.761124 167.837463,165.761124 167.044769Z" style="fill: rgb(100.000000%,100.000000%,100.000000%);stroke: none;"></path>
  <path d="M115.790680 121.770905C115.790680 120.978210,115.475739 120.218063,114.915253 119.657593C114.354782 119.097107,113.594635 118.782166,112.801941 118.782166C112.009247 118.782166,111.249100 119.097107,110.688629 119.657593C110.128143 120.218063,109.813202 120.978210,109.813202 121.770905C109.813202 122.563599,110.128143 123.323746,110.688629 123.884216C111.249100 124.444702,112.009247 124.759644,112.801941 124.759644C113.594635 124.759644,114.354782 124.444702,114.915253 123.884216C115.475739 123.323746,115.790680 122.563599,115.790680 121.770905Z" style="fill: rgb(100.000000%,100.000000%,100.000000%);stroke: none;"></path>
  <path d="M123.095428 145.338516C123.095428 144.545822,122.780487 143.785675,122.220001 143.225204C121.659531 142.664719,120.899384 142.349777,120.106689 142.349777C119.313995 142.349777,118.553848 142.664719,117.993378 143.225204C117.432892 143.785675,117.117950 144.545822,117.117950 145.338516C117.117950 146.131210,117.432892 146.891357,117.993378 147.451828C118.553848 148.012314,119.313995 148.327255,120.106689 148.327255C120.899384 148.327255,121.659531 148.012314,122.220001 147.451828C122.780487 146.891357,123.095428 146.131210,123.095428 145.338516Z" style="fill: rgb(100.000000%,100.000000%,100.000000%);stroke: none;"></path>
  <path d="M110.543762 96.141022C110.543762 95.348328,110.228821 94.588181,109.668335 94.027710C109.107864 93.467224,108.347717 93.152283,107.555023 93.152283C106.762329 93.152283,106.002182 93.467224,105.441711 94.027710C104.881226 94.588181,104.566284 95.348328,104.566284 96.141022C104.566284 96.933716,104.881226 97.693863,105.441711 98.254333C106.002182 98.814819,106.762329 99.129761,107.555023 99.129761C108.347717 99.129761,109.107864 98.814819,109.668335 98.254333C110.228821 97.693863,110.543762 96.933716,110.543762 96.141022Z" style="fill: rgb(100.000000%,100.000000%,100.000000%);stroke: none;"></path>
  <path d="M113.861526 112.753052C113.861526 111.960358,113.546585 111.200211,112.986099 110.639740C112.425629 110.079254,111.665482 109.764313,110.872787 109.764313C110.080093 109.764313,109.319946 110.079254,108.759476 110.639740C108.198990 111.200211,107.884048 111.960358,107.884048 112.753052C107.884048 113.545746,108.198990 114.305893,108.759476 114.866364C109.319946 115.426849,110.080093 115.741791,110.872787 115.741791C111.665482 115.741791,112.425629 115.426849,112.986099 114.866364C113.546585 114.305893,113.861526 113.545746,113.861526 112.753052Z" style="fill: rgb(100.000000%,100.000000%,100.000000%);stroke: none;"></path>
  <path d="M103.403900 74.805405C103.403900 74.012711,103.088959 73.252563,102.528473 72.692093C101.968002 72.131607,101.207855 71.816666,100.415161 71.816666C99.622467 71.816666,98.862320 72.131607,98.301849 72.692093C97.741364 73.252563,97.426422 74.012711,97.426422 74.805405C97.426422 75.598099,97.741364 76.358246,98.301849 76.918716C98.862320 77.479202,99.622467 77.794144,100.415161 77.794144C101.207855 77.794144,101.968002 77.479202,102.528473 76.918716C103.088959 76.358246,103.403900 75.598099,103.403900 74.805405Z" style="fill: rgb(100.000000%,100.000000%,100.000000%);stroke: none;"></path>
  <path d="M109.103302 88.502319C109.103302 87.709625,108.788361 86.949478,108.227875 86.389008C107.667404 85.828522,106.907257 85.513580,106.114563 85.513580C105.321869 85.513580,104.561722 85.828522,104.001251 86.389008C103.440765 86.949478,103.125824 87.709625,103.125824 88.502319C103.125824 89.295013,103.440765 90.055161,104.001251 90.615631C104.561722 91.176117,105.321869 91.491058,106.114563 91.491058C106.907257 91.491058,107.667404 91.176117,108.227875 90.615631C108.788361 90.055161,109.103302 89.295013,109.103302 88.502319Z" style="fill: rgb(100.000000%,100.000000%,100.000000%);stroke: none;"></path>
  <path d="M90.864639 58.153854C90.864639 57.361160,90.549698 56.601013,89.989212 56.040543C89.428741 55.480057,88.668594 55.165115,87.875900 55.165115C87.083206 55.165115,86.323059 55.480057,85.762589 56.040543C85.202103 56.601013,84.887161 57.361160,84.887161 58.153854C84.887161 58.946548,85.202103 59.706696,85.762589 60.267166C86.323059 60.827652,87.083206 61.142593,87.875900 61.142593C88.668594 61.142593,89.428741 60.827652,89.989212 60.267166C90.549698 59.706696,90.864639 58.946548,90.864639 58.153854Z" style="fill: rgb(100.000000%,100.000000%,100.000000%);stroke: none;"></path>
  <path d="M99.462128 68.853226C99.462128 68.060532,99.147186 67.300385,98.586700 66.739914C98.026230 66.179428,97.266083 65.864487,96.473389 65.864487C95.680695 65.864487,94.920547 66.179428,94.360077 66.739914C93.799591 67.300385,93.484650 68.060532,93.484650 68.853226C93.484650 69.645920,93.799591 70.406067,94.360077 70.966537C94.920547 71.527023,95.680695 71.841965,96.473389 71.841965C97.266083 71.841965,98.026230 71.527023,98.586700 70.966537C99.147186 70.406067,99.462128 69.645920,99.462128 68.853226Z" style="fill: rgb(100.000000%,100.000000%,100.000000%);stroke: none;"></path>
  <path d="M78.986588 34.021133C78.986588 33.228439,78.671646 32.468292,78.111160 31.907822C77.550690 31.347336,76.790543 31.032394,75.997849 31.032394C75.205154 31.032394,74.445007 31.347336,73.884537 31.907822C73.324051 32.468292,73.009109 33.228439,73.009109 34.021133C73.009109 34.813828,73.324051 35.573975,73.884537 36.134445C74.445007 36.694931,75.205154 37.009872,75.997849 37.009872C76.790543 37.009872,77.550690 36.694931,78.111160 36.134445C78.671646 35.573975,78.986588 34.813828,78.986588 34.021133Z" style="fill: rgb(100.000000%,100.000000%,100.000000%);stroke: none;"></path>
  <path d="M86.209106 53.233856C86.209106 52.441162,85.894165 51.681015,85.333679 51.120544C84.773209 50.560059,84.013062 50.245117,83.220367 50.245117C82.427673 50.245117,81.667526 50.560059,81.107056 51.120544C80.546570 51.681015,80.231628 52.441162,80.231628 53.233856C80.231628 54.026550,80.546570 54.786697,81.107056 55.347168C81.667526 55.907654,82.427673 56.222595,83.220367 56.222595C84.013062 56.222595,84.773209 55.907654,85.333679 55.347168C85.894165 54.786697,86.209106 54.026550,86.209106 53.233856Z" style="fill: rgb(100.000000%,100.000000%,100.000000%);stroke: none;"></path>
  <path d="M112.249969 2.384811C112.249969 1.592117,111.935028 0.831970,111.374542 0.271500C110.814072 -0.288986,110.053925 -0.603928,109.261230 -0.603928C108.468536 -0.603928,107.708389 -0.288986,107.147919 0.271500C106.587433 0.831970,106.272491 1.592117,106.272491 2.384811C106.272491 3.177505,106.587433 3.937653,107.147919 4.498123C107.708389 5.058609,108.468536 5.373550,109.261230 5.373550C110.053925 5.373550,110.814072 5.058609,111.374542 4.498123C111.935028 3.937653,112.249969 3.177505,112.249969 2.384811Z" style="fill: rgb(100.000000%,100.000000%,100.000000%);stroke: none;"></path>
  <path d="M84.703690 19.569092C84.703690 18.776398,84.388748 18.016251,83.828262 17.455780C83.267792 16.895294,82.507645 16.580353,81.714951 16.580353C80.922256 16.580353,80.162109 16.895294,79.601639 17.455780C79.041153 18.016251,78.726212 18.776398,78.726212 19.569092C78.726212 20.361786,79.041153 21.121933,79.601639 21.682404C80.162109 22.242889,80.922256 22.557831,81.714951 22.557831C82.507645 22.557831,83.267792 22.242889,83.828262 21.682404C84.388748 21.121933,84.703690 20.361786,84.703690 19.569092Z" style="fill: rgb(100.000000%,100.000000%,100.000000%);stroke: none;"></path>
  <path d="M164.776398 30.603851C164.776398 29.811157,164.461456 29.051010,163.900970 28.490540C163.340500 27.930054,162.580353 27.615112,161.787659 27.615112C160.994965 27.615112,160.234818 27.930054,159.674347 28.490540C159.113861 29.051010,158.798920 29.811157,158.798920 30.603851C158.798920 31.396545,159.113861 32.156693,159.674347 32.717163C160.234818 33.277649,160.994965 33.592590,161.787659 33.592590C162.580353 33.592590,163.340500 33.277649,163.900970 32.717163C164.461456 32.156693,164.776398 31.396545,164.776398 30.603851Z" style="fill: rgb(100.000000%,100.000000%,100.000000%);stroke: none;"></path>
  <path d="M132.060989 7.182831C132.060989 6.390137,131.746048 5.629990,131.185562 5.069519C130.625092 4.509033,129.864944 4.194092,129.072250 4.194092C128.279556 4.194092,127.519409 4.509033,126.958939 5.069519C126.398453 5.629990,126.083511 6.390137,126.083511 7.182831C126.083511 7.975525,126.398453 8.735672,126.958939 9.296143C127.519409 9.856628,128.279556 10.171570,129.072250 10.171570C129.864944 10.171570,130.625092 9.856628,131.185562 9.296143C131.746048 8.735672,132.060989 7.975525,132.060989 7.182831Z" style="fill: rgb(100.000000%,100.000000%,100.000000%);stroke: none;"></path>
  <path d="M175.025726 82.510529C175.025726 81.717834,174.710785 80.957687,174.150299 80.397217C173.589828 79.836731,172.829681 79.521790,172.036987 79.521790C171.244293 79.521790,170.484146 79.836731,169.923676 80.397217C169.363190 80.957687,169.048248 81.717834,169.048248 82.510529C169.048248 83.303223,169.363190 84.063370,169.923676 84.623840C170.484146 85.184326,171.244293 85.499268,172.036987 85.499268C172.829681 85.499268,173.589828 85.184326,174.150299 84.623840C174.710785 84.063370,175.025726 83.303223,175.025726 82.510529Z" style="fill: rgb(100.000000%,100.000000%,100.000000%);stroke: none;"></path>
  <path d="M176.541321 49.950546C176.541321 49.157852,176.226379 48.397705,175.665894 47.837234C175.105423 47.276749,174.345276 46.961807,173.552582 46.961807C172.759888 46.961807,171.999741 47.276749,171.439270 47.837234C170.878784 48.397705,170.563843 49.157852,170.563843 49.950546C170.563843 50.743240,170.878784 51.503387,171.439270 52.063858C171.999741 52.624344,172.759888 52.939285,173.552582 52.939285C174.345276 52.939285,175.105423 52.624344,175.665894 52.063858C176.226379 51.503387,176.541321 50.743240,176.541321 49.950546Z" style="fill: rgb(100.000000%,100.000000%,100.000000%);stroke: none;"></path>
  <path d="M155.018555 97.954346C155.018555 97.161652,154.703613 96.401505,154.143127 95.841034C153.582657 95.280548,152.822510 94.965607,152.029816 94.965607C151.237122 94.965607,150.476974 95.280548,149.916504 95.841034C149.356018 96.401505,149.041077 97.161652,149.041077 97.954346C149.041077 98.747040,149.356018 99.507187,149.916504 100.067657C150.476974 100.628143,151.237122 100.943085,152.029816 100.943085C152.822510 100.943085,153.582657 100.628143,154.143127 100.067657C154.703613 99.507187,155.018555 98.747040,155.018555 97.954346Z" style="fill: rgb(100.000000%,100.000000%,100.000000%);stroke: none;"></path>
  <path d="M169.918640 93.733292C169.918640 92.940598,169.603699 92.180450,169.043213 91.619980C168.482742 91.059494,167.722595 90.744553,166.929901 90.744553C166.137207 90.744553,165.377060 91.059494,164.816589 91.619980C164.256104 92.180450,163.941162 92.940598,163.941162 93.733292C163.941162 94.525986,164.256104 95.286133,164.816589 95.846603C165.377060 96.407089,166.137207 96.722031,166.929901 96.722031C167.722595 96.722031,168.482742 96.407089,169.043213 95.846603C169.603699 95.286133,169.918640 94.525986,169.918640 93.733292Z" style="fill: rgb(100.000000%,100.000000%,100.000000%);stroke: none;"></path>
  <path d="M140.303162 95.762177C140.303162 94.969482,139.988220 94.209335,139.427734 93.648865C138.867264 93.088379,138.107117 92.773438,137.314423 92.773438C136.521729 92.773438,135.761581 93.088379,135.201111 93.648865C134.640625 94.209335,134.325684 94.969482,134.325684 95.762177C134.325684 96.554871,134.640625 97.315018,135.201111 97.875488C135.761581 98.435974,136.521729 98.750916,137.314423 98.750916C138.107117 98.750916,138.867264 98.435974,139.427734 97.875488C139.988220 97.315018,140.303162 96.554871,140.303162 95.762177Z" style="fill: rgb(100.000000%,100.000000%,100.000000%);stroke: none;"></path>
  <path d="M150.448196 97.331085C150.448196 96.538391,150.133255 95.778244,149.572769 95.217773C149.012299 94.657288,148.252151 94.342346,147.459457 94.342346C146.666763 94.342346,145.906616 94.657288,145.346146 95.217773C144.785660 95.778244,144.470718 96.538391,144.470718 97.331085C144.470718 98.123779,144.785660 98.883926,145.346146 99.444397C145.906616 100.004883,146.666763 100.319824,147.459457 100.319824C148.252151 100.319824,149.012299 100.004883,149.572769 99.444397C150.133255 98.883926,150.448196 98.123779,150.448196 97.331085Z" style="fill: rgb(100.000000%,100.000000%,100.000000%);stroke: none;"></path>
  <path d="M122.737747 97.055740C122.737747 96.263046,122.422806 95.502899,121.862320 94.942429C121.301849 94.381943,120.541702 94.067001,119.749008 94.067001C118.956314 94.067001,118.196167 94.381943,117.635696 94.942429C117.075211 95.502899,116.760269 96.263046,116.760269 97.055740C116.760269 97.848434,117.075211 98.608582,117.635696 99.169052C118.196167 99.729538,118.956314 100.044479,119.749008 100.044479C120.541702 100.044479,121.301849 99.729538,121.862320 99.169052C122.422806 98.608582,122.737747 97.848434,122.737747 97.055740Z" style="fill: rgb(100.000000%,100.000000%,100.000000%);stroke: none;"></path>
  <path d="M134.534088 94.792343C134.534088 93.999649,134.219147 93.239502,133.658661 92.679031C133.098190 92.118546,132.338043 91.803604,131.545349 91.803604C130.752655 91.803604,129.992508 92.118546,129.432037 92.679031C128.871552 93.239502,128.556610 93.999649,128.556610 94.792343C128.556610 95.585037,128.871552 96.345184,129.432037 96.905655C129.992508 97.466141,130.752655 97.781082,131.545349 97.781082C132.338043 97.781082,133.098190 97.466141,133.658661 96.905655C134.219147 96.345184,134.534088 95.585037,134.534088 94.792343Z" style="fill: rgb(100.000000%,100.000000%,100.000000%);stroke: none;"></path>
  <path d="M107.049240 106.726425C107.049240 105.933731,106.734299 105.173584,106.173813 104.613113C105.613342 104.052628,104.853195 103.737686,104.060501 103.737686C103.267807 103.737686,102.507660 104.052628,101.947189 104.613113C101.386703 105.173584,101.071762 105.933731,101.071762 106.726425C101.071762 107.519119,101.386703 108.279266,101.947189 108.839737C102.507660 109.400223,103.267807 109.715164,104.060501 109.715164C104.853195 109.715164,105.613342 109.400223,106.173813 108.839737C106.734299 108.279266,107.049240 107.519119,107.049240 106.726425Z" style="fill: rgb(100.000000%,100.000000%,100.000000%);stroke: none;"></path>
  <path d="M117.401779 100.511215C117.401779 99.718521,117.086838 98.958374,116.526352 98.397903C115.965881 97.837418,115.205734 97.522476,114.413040 97.522476C113.620346 97.522476,112.860199 97.837418,112.299728 98.397903C111.739243 98.958374,111.424301 99.718521,111.424301 100.511215C111.424301 101.303909,111.739243 102.064056,112.299728 102.624527C112.860199 103.185013,113.620346 103.499954,114.413040 103.499954C115.205734 103.499954,115.965881 103.185013,116.526352 102.624527C117.086838 102.064056,117.401779 101.303909,117.401779 100.511215Z" style="fill: rgb(100.000000%,100.000000%,100.000000%);stroke: none;"></path>
  <path d="M90.953598 109.888992C90.953598 109.096298,90.638657 108.336151,90.078171 107.775681C89.517700 107.215195,88.757553 106.900253,87.964859 106.900253C87.172165 106.900253,86.412018 107.215195,85.851547 107.775681C85.291061 108.336151,84.976120 109.096298,84.976120 109.888992C84.976120 110.681686,85.291061 111.441833,85.851547 112.002304C86.412018 112.562790,87.172165 112.877731,87.964859 112.877731C88.757553 112.877731,89.517700 112.562790,90.078171 112.002304C90.638657 111.441833,90.953598 110.681686,90.953598 109.888992Z" style="fill: rgb(100.000000%,100.000000%,100.000000%);stroke: none;"></path>
  <path d="M101.768616 109.593689C101.768616 108.800995,101.453674 108.040848,100.893188 107.480377C100.332718 106.919891,99.572571 106.604950,98.779877 106.604950C97.987183 106.604950,97.227036 106.919891,96.666565 107.480377C96.106079 108.040848,95.791138 108.800995,95.791138 109.593689C95.791138 110.386383,96.106079 111.146530,96.666565 111.707001C97.227036 112.267487,97.987183 112.582428,98.779877 112.582428C99.572571 112.582428,100.332718 112.267487,100.893188 111.707001C101.453674 111.146530,101.768616 110.386383,101.768616 109.593689Z" style="fill: rgb(100.000000%,100.000000%,100.000000%);stroke: none;"></path>
  <path d="M78.552704 105.449966C78.552704 104.657272,78.237762 103.897125,77.677277 103.336655C77.116806 102.776169,76.356659 102.461227,75.563965 102.461227C74.771271 102.461227,74.011124 102.776169,73.450653 103.336655C72.890167 103.897125,72.575226 104.657272,72.575226 105.449966C72.575226 106.242661,72.890167 107.002808,73.450653 107.563278C74.011124 108.123764,74.771271 108.438705,75.563965 108.438705C76.356659 108.438705,77.116806 108.123764,77.677277 107.563278C78.237762 107.002808,78.552704 106.242661,78.552704 105.449966Z" style="fill: rgb(100.000000%,100.000000%,100.000000%);stroke: none;"></path>
  <path d="M86.245285 108.023788C86.245285 107.231094,85.930344 106.470947,85.369858 105.910477C84.809387 105.349991,84.049240 105.035049,83.256546 105.035049C82.463852 105.035049,81.703705 105.349991,81.143234 105.910477C80.582748 106.470947,80.267807 107.231094,80.267807 108.023788C80.267807 108.816483,80.582748 109.576630,81.143234 110.137100C81.703705 110.697586,82.463852 111.012527,83.256546 111.012527C84.049240 111.012527,84.809387 110.697586,85.369858 110.137100C85.930344 109.576630,86.245285 108.816483,86.245285 108.023788Z" style="fill: rgb(100.000000%,100.000000%,100.000000%);stroke: none;"></path>
  <path d="M72.696991 98.102386C72.696991 97.309692,72.382050 96.549545,71.821564 95.989075C71.261093 95.428589,70.500946 95.113647,69.708252 95.113647C68.915558 95.113647,68.155411 95.428589,67.594940 95.989075C67.034454 96.549545,66.719513 97.309692,66.719513 98.102386C66.719513 98.895081,67.034454 99.655228,67.594940 100.215698C68.155411 100.776184,68.915558 101.091125,69.708252 101.091125C70.500946 101.091125,71.261093 100.776184,71.821564 100.215698C72.382050 99.655228,72.696991 98.895081,72.696991 98.102386Z" style="fill: rgb(100.000000%,100.000000%,100.000000%);stroke: none;"></path>
  <path d="M75.330093 104.322754C75.330093 103.530060,75.015152 102.769913,74.454666 102.209442C73.894196 101.648956,73.134048 101.334015,72.341354 101.334015C71.548660 101.334015,70.788513 101.648956,70.228043 102.209442C69.667557 102.769913,69.352615 103.530060,69.352615 104.322754C69.352615 105.115448,69.667557 105.875595,70.228043 106.436066C70.788513 106.996552,71.548660 107.311493,72.341354 107.311493C73.134048 107.311493,73.894196 106.996552,74.454666 106.436066C75.015152 105.875595,75.330093 105.115448,75.330093 104.322754Z" style="fill: rgb(100.000000%,100.000000%,100.000000%);stroke: none;"></path>
  <path d="M78.869308 86.400894C78.869308 85.608200,78.554367 84.848053,77.993881 84.287582C77.433411 83.727097,76.673264 83.412155,75.880569 83.412155C75.087875 83.412155,74.327728 83.727097,73.767258 84.287582C73.206772 84.848053,72.891830 85.608200,72.891830 86.400894C72.891830 87.193588,73.206772 87.953735,73.767258 88.514206C74.327728 89.074692,75.087875 89.389633,75.880569 89.389633C76.673264 89.389633,77.433411 89.074692,77.993881 88.514206C78.554367 87.953735,78.869308 87.193588,78.869308 86.400894Z" style="fill: rgb(100.000000%,100.000000%,100.000000%);stroke: none;"></path>
  <path d="M74.780655 94.656830C74.780655 93.864136,74.465714 93.103989,73.905228 92.543518C73.344757 91.983032,72.584610 91.668091,71.791916 91.668091C70.999222 91.668091,70.239075 91.983032,69.678604 92.543518C69.118118 93.103989,68.803177 93.864136,68.803177 94.656830C68.803177 95.449524,69.118118 96.209671,69.678604 96.770142C70.239075 97.330627,70.999222 97.645569,71.791916 97.645569C72.584610 97.645569,73.344757 97.330627,73.905228 96.770142C74.465714 96.209671,74.780655 95.449524,74.780655 94.656830Z" style="fill: rgb(100.000000%,100.000000%,100.000000%);stroke: none;"></path>
  <path d="M85.921494 70.952789C85.921494 70.160095,85.606552 69.399948,85.046066 68.839478C84.485596 68.278992,83.725449 67.964050,82.932755 67.964050C82.140060 67.964050,81.379913 68.278992,80.819443 68.839478C80.258957 69.399948,79.944016 70.160095,79.944016 70.952789C79.944016 71.745483,80.258957 72.505630,80.819443 73.066101C81.379913 73.626587,82.140060 73.941528,82.932755 73.941528C83.725449 73.941528,84.485596 73.626587,85.046066 73.066101C85.606552 72.505630,85.921494 71.745483,85.921494 70.952789Z" style="fill: rgb(100.000000%,100.000000%,100.000000%);stroke: none;"></path>
  <path d="M80.081711 80.839844C80.081711 80.047150,79.766769 79.287003,79.206284 78.726532C78.645813 78.166046,77.885666 77.851105,77.092972 77.851105C76.300278 77.851105,75.540131 78.166046,74.979660 78.726532C74.419174 79.287003,74.104233 80.047150,74.104233 80.839844C74.104233 81.632538,74.419174 82.392685,74.979660 82.953156C75.540131 83.513641,76.300278 83.828583,77.092972 83.828583C77.885666 83.828583,78.645813 83.513641,79.206284 82.953156C79.766769 82.392685,80.081711 81.632538,80.081711 80.839844Z" style="fill: rgb(100.000000%,100.000000%,100.000000%);stroke: none;"></path>
  <path d="M100.168015 59.026123C100.168015 58.233429,99.853073 57.473282,99.292587 56.912811C98.732117 56.352325,97.971970 56.037384,97.179276 56.037384C96.386581 56.037384,95.626434 56.352325,95.065964 56.912811C94.505478 57.473282,94.190536 58.233429,94.190536 59.026123C94.190536 59.818817,94.505478 60.578964,95.065964 61.139435C95.626434 61.699921,96.386581 62.014862,97.179276 62.014862C97.971970 62.014862,98.732117 61.699921,99.292587 61.139435C99.853073 60.578964,100.168015 59.818817,100.168015 59.026123Z" style="fill: rgb(100.000000%,100.000000%,100.000000%);stroke: none;"></path>
  <path d="M90.489899 67.093231C90.489899 66.300537,90.174957 65.540390,89.614471 64.979919C89.054001 64.419434,88.293854 64.104492,87.501160 64.104492C86.708466 64.104492,85.948318 64.419434,85.387848 64.979919C84.827362 65.540390,84.512421 66.300537,84.512421 67.093231C84.512421 67.885925,84.827362 68.646072,85.387848 69.206543C85.948318 69.767029,86.708466 70.081970,87.501160 70.081970C88.293854 70.081970,89.054001 69.767029,89.614471 69.206543C90.174957 68.646072,90.489899 67.885925,90.489899 67.093231Z" style="fill: rgb(100.000000%,100.000000%,100.000000%);stroke: none;"></path>
  <path d="M114.770370 35.492844C114.770370 34.700150,114.455429 33.940002,113.894943 33.379532C113.334473 32.819046,112.574326 32.504105,111.781631 32.504105C110.988937 32.504105,110.228790 32.819046,109.668320 33.379532C109.107834 33.940002,108.792892 34.700150,108.792892 35.492844C108.792892 36.285538,109.107834 37.045685,109.668320 37.606155C110.228790 38.166641,110.988937 38.481583,111.781631 38.481583C112.574326 38.481583,113.334473 38.166641,113.894943 37.606155C114.455429 37.045685,114.770370 36.285538,114.770370 35.492844Z" style="fill: rgb(100.000000%,100.000000%,100.000000%);stroke: none;"></path>
  <path d="M105.435074 54.626648C105.435074 53.833954,105.120132 53.073807,104.559647 52.513336C103.999176 51.952850,103.239029 51.637909,102.446335 51.637909C101.653641 51.637909,100.893494 51.952850,100.333023 52.513336C99.772537 53.073807,99.457596 53.833954,99.457596 54.626648C99.457596 55.419342,99.772537 56.179489,100.333023 56.739960C100.893494 57.300446,101.653641 57.615387,102.446335 57.615387C103.239029 57.615387,103.999176 57.300446,104.559647 56.739960C105.120132 56.179489,105.435074 55.419342,105.435074 54.626648Z" style="fill: rgb(100.000000%,100.000000%,100.000000%);stroke: none;"></path>
  <path d="M81.894409 3.189423C81.894409 2.396729,81.579468 1.636581,81.018982 1.076111C80.458511 0.515625,79.698364 0.200684,78.905670 0.200684C78.112976 0.200684,77.352829 0.515625,76.792358 1.076111C76.231873 1.636581,75.916931 2.396729,75.916931 3.189423C75.916931 3.982117,76.231873 4.742264,76.792358 5.302734C77.352829 5.863220,78.112976 6.178162,78.905670 6.178162C79.698364 6.178162,80.458511 5.863220,81.018982 5.302734C81.579468 4.742264,81.894409 3.982117,81.894409 3.189423Z" style="fill: rgb(100.000000%,100.000000%,100.000000%);stroke: none;"></path>
  <path d="M109.252411 19.833405C109.252411 19.040710,108.937469 18.280563,108.376984 17.720093C107.816513 17.159607,107.056366 16.844666,106.263672 16.844666C105.470978 16.844666,104.710831 17.159607,104.150360 17.720093C103.589874 18.280563,103.274933 19.040710,103.274933 19.833405C103.274933 20.626099,103.589874 21.386246,104.150360 21.946716C104.710831 22.507202,105.470978 22.822144,106.263672 22.822144C107.056366 22.822144,107.816513 22.507202,108.376984 21.946716C108.937469 21.386246,109.252411 20.626099,109.252411 19.833405Z" style="fill: rgb(100.000000%,100.000000%,100.000000%);stroke: none;"></path>
  <path d="M33.690033 28.573914C33.690033 27.781219,33.375092 27.021072,32.814606 26.460602C32.254135 25.900116,31.493988 25.585175,30.701294 25.585175C29.908600 25.585175,29.148453 25.900116,28.587982 26.460602C28.027496 27.021072,27.712555 27.781219,27.712555 28.573914C27.712555 29.366608,28.027496 30.126755,28.587982 30.687225C29.148453 31.247711,29.908600 31.562653,30.701294 31.562653C31.493988 31.562653,32.254135 31.247711,32.814606 30.687225C33.375092 30.126755,33.690033 29.366608,33.690033 28.573914Z" style="fill: rgb(100.000000%,100.000000%,100.000000%);stroke: none;"></path>
  <path d="M63.413940 7.457794C63.413940 6.665100,63.098999 5.904953,62.538513 5.344482C61.978043 4.783997,61.217896 4.469055,60.425201 4.469055C59.632507 4.469055,58.872360 4.783997,58.311890 5.344482C57.751404 5.904953,57.436462 6.665100,57.436462 7.457794C57.436462 8.250488,57.751404 9.010635,58.311890 9.571106C58.872360 10.131592,59.632507 10.446533,60.425201 10.446533C61.217896 10.446533,61.978043 10.131592,62.538513 9.571106C63.098999 9.010635,63.413940 8.250488,63.413940 7.457794Z" style="fill: rgb(100.000000%,100.000000%,100.000000%);stroke: none;"></path>
  <path d="M23.502411 74.395035C23.502411 73.602341,23.187469 72.842194,22.626984 72.281723C22.066513 71.721237,21.306366 71.406296,20.513672 71.406296C19.720978 71.406296,18.960831 71.721237,18.400360 72.281723C17.839874 72.842194,17.524933 73.602341,17.524933 74.395035C17.524933 75.187729,17.839874 75.947876,18.400360 76.508347C18.960831 77.068832,19.720978 77.383774,20.513672 77.383774C21.306366 77.383774,22.066513 77.068832,22.626984 76.508347C23.187469 75.947876,23.502411 75.187729,23.502411 74.395035Z" style="fill: rgb(100.000000%,100.000000%,100.000000%);stroke: none;"></path>
  <path d="M23.125595 45.490036C23.125595 44.697342,22.810654 43.937195,22.250168 43.376724C21.689697 42.816238,20.929550 42.501297,20.136856 42.501297C19.344162 42.501297,18.584015 42.816238,18.023544 43.376724C17.463058 43.937195,17.148117 44.697342,17.148117 45.490036C17.148117 46.282730,17.463058 47.042877,18.023544 47.603348C18.584015 48.163834,19.344162 48.478775,20.136856 48.478775C20.929550 48.478775,21.689697 48.163834,22.250168 47.603348C22.810654 47.042877,23.125595 46.282730,23.125595 45.490036Z" style="fill: rgb(100.000000%,100.000000%,100.000000%);stroke: none;"></path>
  <path d="M40.830261 88.827255C40.830261 88.034561,40.515320 87.274414,39.954834 86.713943C39.394363 86.153458,38.634216 85.838516,37.841522 85.838516C37.048828 85.838516,36.288681 86.153458,35.728210 86.713943C35.167725 87.274414,34.852783 88.034561,34.852783 88.827255C34.852783 89.619949,35.167725 90.380096,35.728210 90.940567C36.288681 91.501053,37.048828 91.815994,37.841522 91.815994C38.634216 91.815994,39.394363 91.501053,39.954834 90.940567C40.515320 90.380096,40.830261 89.619949,40.830261 88.827255Z" style="fill: rgb(100.000000%,100.000000%,100.000000%);stroke: none;"></path>
  <path d="M27.631180 84.583481C27.631180 83.790787,27.316238 83.030640,26.755753 82.470169C26.195282 81.909683,25.435135 81.594742,24.642441 81.594742C23.849747 81.594742,23.089600 81.909683,22.529129 82.470169C21.968643 83.030640,21.653702 83.790787,21.653702 84.583481C21.653702 85.376175,21.968643 86.136322,22.529129 86.696793C23.089600 87.257278,23.849747 87.572220,24.642441 87.572220C25.435135 87.572220,26.195282 87.257278,26.755753 86.696793C27.316238 86.136322,27.631180 85.376175,27.631180 84.583481Z" style="fill: rgb(100.000000%,100.000000%,100.000000%);stroke: none;"></path>
  <path d="M53.862640 86.932953C53.862640 86.140259,53.547699 85.380112,52.987213 84.819641C52.426743 84.259155,51.666595 83.944214,50.873901 83.944214C50.081207 83.944214,49.321060 84.259155,48.760590 84.819641C48.200104 85.380112,47.885162 86.140259,47.885162 86.932953C47.885162 87.725647,48.200104 88.485794,48.760590 89.046265C49.321060 89.606750,50.081207 89.921692,50.873901 89.921692C51.666595 89.921692,52.426743 89.606750,52.987213 89.046265C53.547699 88.485794,53.862640 87.725647,53.862640 86.932953Z" style="fill: rgb(100.000000%,100.000000%,100.000000%);stroke: none;"></path>
  <path d="M44.990128 88.367081C44.990128 87.574387,44.675186 86.814240,44.114700 86.253769C43.554230 85.693283,42.794083 85.378342,42.001389 85.378342C41.208694 85.378342,40.448547 85.693283,39.888077 86.253769C39.327591 86.814240,39.012650 87.574387,39.012650 88.367081C39.012650 89.159775,39.327591 89.919922,39.888077 90.480392C40.448547 91.040878,41.208694 91.355820,42.001389 91.355820C42.794083 91.355820,43.554230 91.040878,44.114700 90.480392C44.675186 89.919922,44.990128 89.159775,44.990128 88.367081Z" style="fill: rgb(100.000000%,100.000000%,100.000000%);stroke: none;"></path>
  <path d="M68.100952 87.425827C68.100952 86.633133,67.786011 85.872986,67.225525 85.312515C66.665054 84.752029,65.904907 84.437088,65.112213 84.437088C64.319519 84.437088,63.559372 84.752029,62.998901 85.312515C62.438416 85.872986,62.123474 86.633133,62.123474 87.425827C62.123474 88.218521,62.438416 88.978668,62.998901 89.539139C63.559372 90.099625,64.319519 90.414566,65.112213 90.414566C65.904907 90.414566,66.665054 90.099625,67.225525 89.539139C67.786011 88.978668,68.100952 88.218521,68.100952 87.425827Z" style="fill: rgb(100.000000%,100.000000%,100.000000%);stroke: none;"></path>
  <path d="M58.742630 85.891663C58.742630 85.098969,58.427689 84.338821,57.867203 83.778351C57.306732 83.217865,56.546585 82.902924,55.753891 82.902924C54.961197 82.902924,54.201050 83.217865,53.640579 83.778351C53.080093 84.338821,52.765152 85.098969,52.765152 85.891663C52.765152 86.684357,53.080093 87.444504,53.640579 88.004974C54.201050 88.565460,54.961197 88.880402,55.753891 88.880402C56.546585 88.880402,57.306732 88.565460,57.867203 88.004974C58.427689 87.444504,58.742630 86.684357,58.742630 85.891663Z" style="fill: rgb(100.000000%,100.000000%,100.000000%);stroke: none;"></path>
  <path d="M79.124741 92.489120C79.124741 91.696426,78.809799 90.936279,78.249313 90.375809C77.688843 89.815323,76.928696 89.500381,76.136002 89.500381C75.343307 89.500381,74.583160 89.815323,74.022690 90.375809C73.462204 90.936279,73.147263 91.696426,73.147263 92.489120C73.147263 93.281815,73.462204 94.041962,74.022690 94.602432C74.583160 95.162918,75.343307 95.477859,76.136002 95.477859C76.928696 95.477859,77.688843 95.162918,78.249313 94.602432C78.809799 94.041962,79.124741 93.281815,79.124741 92.489120Z" style="fill: rgb(100.000000%,100.000000%,100.000000%);stroke: none;"></path>
  <path d="M72.155899 89.701523C72.155899 88.908829,71.840958 88.148682,71.280472 87.588211C70.720001 87.027725,69.959854 86.712784,69.167160 86.712784C68.374466 86.712784,67.614319 87.027725,67.053848 87.588211C66.493362 88.148682,66.178421 88.908829,66.178421 89.701523C66.178421 90.494217,66.493362 91.254364,67.053848 91.814835C67.614319 92.375320,68.374466 92.690262,69.167160 92.690262C69.959854 92.690262,70.720001 92.375320,71.280472 91.814835C71.840958 91.254364,72.155899 90.494217,72.155899 89.701523Z" style="fill: rgb(100.000000%,100.000000%,100.000000%);stroke: none;"></path>
  <path d="M85.044052 99.463669C85.044052 98.670975,84.729111 97.910828,84.168625 97.350357C83.608154 96.789871,82.848007 96.474930,82.055313 96.474930C81.262619 96.474930,80.502472 96.789871,79.942001 97.350357C79.381516 97.910828,79.066574 98.670975,79.066574 99.463669C79.066574 100.256363,79.381516 101.016510,79.942001 101.576981C80.502472 102.137466,81.262619 102.452408,82.055313 102.452408C82.848007 102.452408,83.608154 102.137466,84.168625 101.576981C84.729111 101.016510,85.044052 100.256363,85.044052 99.463669Z" style="fill: rgb(100.000000%,100.000000%,100.000000%);stroke: none;"></path>
  <path d="M82.109573 93.526810C82.109573 92.734116,81.794632 91.973969,81.234146 91.413498C80.673676 90.853012,79.913528 90.538071,79.120834 90.538071C78.328140 90.538071,77.567993 90.853012,77.007523 91.413498C76.447037 91.973969,76.132095 92.734116,76.132095 93.526810C76.132095 94.319504,76.447037 95.079651,77.007523 95.640121C77.567993 96.200607,78.328140 96.515549,79.120834 96.515549C79.913528 96.515549,80.673676 96.200607,81.234146 95.640121C81.794632 95.079651,82.109573 94.319504,82.109573 93.526810Z" style="fill: rgb(100.000000%,100.000000%,100.000000%);stroke: none;"></path>
  <path d="M78.243637 113.253189C78.243637 112.460495,77.928696 111.700348,77.368210 111.139877C76.807739 110.579391,76.047592 110.264450,75.254898 110.264450C74.462204 110.264450,73.702057 110.579391,73.141586 111.139877C72.581100 111.700348,72.266159 112.460495,72.266159 113.253189C72.266159 114.045883,72.581100 114.806030,73.141586 115.366501C73.702057 115.926987,74.462204 116.241928,75.254898 116.241928C76.047592 116.241928,76.807739 115.926987,77.368210 115.366501C77.928696 114.806030,78.243637 114.045883,78.243637 113.253189Z" style="fill: rgb(100.000000%,100.000000%,100.000000%);stroke: none;"></path>
  <path d="M83.172104 103.104202C83.172104 102.311508,82.857162 101.551361,82.296677 100.990891C81.736206 100.430405,80.976059 100.115463,80.183365 100.115463C79.390671 100.115463,78.630524 100.430405,78.070053 100.990891C77.509567 101.551361,77.194626 102.311508,77.194626 103.104202C77.194626 103.896896,77.509567 104.657043,78.070053 105.217514C78.630524 105.778000,79.390671 106.092941,80.183365 106.092941C80.976059 106.092941,81.736206 105.778000,82.296677 105.217514C82.857162 104.657043,83.172104 103.896896,83.172104 103.104202Z" style="fill: rgb(100.000000%,100.000000%,100.000000%);stroke: none;"></path>
  <path d="M67.735596 140.216675C67.735596 139.423981,67.420654 138.663834,66.860168 138.103363C66.299698 137.542877,65.539551 137.227936,64.746857 137.227936C63.954163 137.227936,63.194016 137.542877,62.633545 138.103363C62.073059 138.663834,61.758118 139.423981,61.758118 140.216675C61.758118 141.009369,62.073059 141.769516,62.633545 142.329987C63.194016 142.890472,63.954163 143.205414,64.746857 143.205414C65.539551 143.205414,66.299698 142.890472,66.860168 142.329987C67.420654 141.769516,67.735596 141.009369,67.735596 140.216675Z" style="fill: rgb(100.000000%,100.000000%,100.000000%);stroke: none;"></path>
  <path d="M76.347244 120.636902C76.347244 119.844208,76.032303 119.084061,75.471817 118.523590C74.911346 117.963104,74.151199 117.648163,73.358505 117.648163C72.565811 117.648163,71.805664 117.963104,71.245193 118.523590C70.684708 119.084061,70.369766 119.844208,70.369766 120.636902C70.369766 121.429596,70.684708 122.189743,71.245193 122.750214C71.805664 123.310699,72.565811 123.625641,73.358505 123.625641C74.151199 123.625641,74.911346 123.310699,75.471817 122.750214C76.032303 122.189743,76.347244 121.429596,76.347244 120.636902Z" style="fill: rgb(100.000000%,100.000000%,100.000000%);stroke: none;"></path>
  <path d="M25.495575 151.567535C25.495575 150.774841,25.180634 150.014694,24.620148 149.454224C24.059677 148.893738,23.299530 148.578796,22.506836 148.578796C21.714142 148.578796,20.953995 148.893738,20.393524 149.454224C19.833038 150.014694,19.518097 150.774841,19.518097 151.567535C19.518097 152.360229,19.833038 153.120377,20.393524 153.680847C20.953995 154.241333,21.714142 154.556274,22.506836 154.556274C23.299530 154.556274,24.059677 154.241333,24.620148 153.680847C25.180634 153.120377,25.495575 152.360229,25.495575 151.567535Z" style="fill: rgb(100.000000%,100.000000%,100.000000%);stroke: none;"></path>
  <path d="M57.628067 151.194214C57.628067 150.401520,57.313126 149.641373,56.752640 149.080902C56.192169 148.520416,55.432022 148.205475,54.639328 148.205475C53.846634 148.205475,53.086487 148.520416,52.526016 149.080902C51.965530 149.641373,51.650589 150.401520,51.650589 151.194214C51.650589 151.986908,51.965530 152.747055,52.526016 153.307526C53.086487 153.868011,53.846634 154.182953,54.639328 154.182953C55.432022 154.182953,56.192169 153.868011,56.752640 153.307526C57.313126 152.747055,57.628067 151.986908,57.628067 151.194214Z" style="fill: rgb(100.000000%,100.000000%,100.000000%);stroke: none;"></path>
  <path d="M5.759369 94.474106C5.759369 93.681412,5.444427 92.921265,4.883942 92.360794C4.323471 91.800308,3.563324 91.485367,2.770630 91.485367C1.977936 91.485367,1.217789 91.800308,0.657318 92.360794C0.096832 92.921265,-0.218109 93.681412,-0.218109 94.474106C-0.218109 95.266800,0.096832 96.026947,0.657318 96.587418C1.217789 97.147903,1.977936 97.462845,2.770630 97.462845C3.563324 97.462845,4.323471 97.147903,4.883942 96.587418C5.444427 96.026947,5.759369 95.266800,5.759369 94.474106Z" style="fill: rgb(100.000000%,100.000000%,100.000000%);stroke: none;"></path>
  <path d="M14.260406 132.848557C14.260406 132.055862,13.945465 131.295715,13.384979 130.735245C12.824509 130.174759,12.064362 129.859818,11.271667 129.859818C10.478973 129.859818,9.718826 130.174759,9.158356 130.735245C8.597870 131.295715,8.282928 132.055862,8.282928 132.848557C8.282928 133.641251,8.597870 134.401398,9.158356 134.961868C9.718826 135.522354,10.478973 135.837296,11.271667 135.837296C12.064362 135.837296,12.824509 135.522354,13.384979 134.961868C13.945465 134.401398,14.260406 133.641251,14.260406 132.848557Z" style="fill: rgb(100.000000%,100.000000%,100.000000%);stroke: none;"></path>
  <path d="M32.201660 59.286957C32.201660 58.494263,31.886719 57.734116,31.326233 57.173645C30.765762 56.613159,30.005615 56.298218,29.212921 56.298218C28.420227 56.298218,27.660080 56.613159,27.099609 57.173645C26.539124 57.734116,26.224182 58.494263,26.224182 59.286957C26.224182 60.079651,26.539124 60.839798,27.099609 61.400269C27.660080 61.960754,28.420227 62.275696,29.212921 62.275696C30.005615 62.275696,30.765762 61.960754,31.326233 61.400269C31.886719 60.839798,32.201660 60.079651,32.201660 59.286957Z" style="fill: rgb(100.000000%,100.000000%,100.000000%);stroke: none;"></path>
  <path d="M7.318130 73.355774C7.318130 72.563080,7.003189 71.802933,6.442703 71.242462C5.882233 70.681976,5.122086 70.367035,4.329391 70.367035C3.536697 70.367035,2.776550 70.681976,2.216080 71.242462C1.655594 71.802933,1.340652 72.563080,1.340652 73.355774C1.340652 74.148468,1.655594 74.908615,2.216080 75.469086C2.776550 76.029572,3.536697 76.344513,4.329391 76.344513C5.122086 76.344513,5.882233 76.029572,6.442703 75.469086C7.003189 74.908615,7.318130 74.148468,7.318130 73.355774Z" style="fill: rgb(100.000000%,100.000000%,100.000000%);stroke: none;"></path>
  <path d="M51.187653 74.707855C51.187653 73.915161,50.872711 73.155014,50.312225 72.594543C49.751755 72.034058,48.991608 71.719116,48.198914 71.719116C47.406219 71.719116,46.646072 72.034058,46.085602 72.594543C45.525116 73.155014,45.210175 73.915161,45.210175 74.707855C45.210175 75.500549,45.525116 76.260696,46.085602 76.821167C46.646072 77.381653,47.406219 77.696594,48.198914 77.696594C48.991608 77.696594,49.751755 77.381653,50.312225 76.821167C50.872711 76.260696,51.187653 75.500549,51.187653 74.707855Z" style="fill: rgb(100.000000%,100.000000%,100.000000%);stroke: none;"></path>
  <path d="M43.450439 60.710129C43.450439 59.917435,43.135498 59.157288,42.575012 58.596817C42.014542 58.036331,41.254395 57.721390,40.461700 57.721390C39.669006 57.721390,38.908859 58.036331,38.348389 58.596817C37.787903 59.157288,37.472961 59.917435,37.472961 60.710129C37.472961 61.502823,37.787903 62.262970,38.348389 62.823441C38.908859 63.383926,39.669006 63.698868,40.461700 63.698868C41.254395 63.698868,42.014542 63.383926,42.575012 62.823441C43.135498 62.262970,43.450439 61.502823,43.450439 60.710129Z" style="fill: rgb(100.000000%,100.000000%,100.000000%);stroke: none;"></path>
  <path d="M48.362946 95.104889C48.362946 94.312195,48.048004 93.552048,47.487518 92.991577C46.927048 92.431091,46.166901 92.116150,45.374207 92.116150C44.581512 92.116150,43.821365 92.431091,43.260895 92.991577C42.700409 93.552048,42.385468 94.312195,42.385468 95.104889C42.385468 95.897583,42.700409 96.657730,43.260895 97.218201C43.821365 97.778687,44.581512 98.093628,45.374207 98.093628C46.166901 98.093628,46.927048 97.778687,47.487518 97.218201C48.048004 96.657730,48.362946 95.897583,48.362946 95.104889Z" style="fill: rgb(100.000000%,100.000000%,100.000000%);stroke: none;"></path>
  <path d="M49.598709 81.365540C49.598709 80.572845,49.283768 79.812698,48.723282 79.252228C48.162811 78.691742,47.402664 78.376801,46.609970 78.376801C45.817276 78.376801,45.057129 78.691742,44.496658 79.252228C43.936172 79.812698,43.621231 80.572845,43.621231 81.365540C43.621231 82.158234,43.936172 82.918381,44.496658 83.478851C45.057129 84.039337,45.817276 84.354279,46.609970 84.354279C47.402664 84.354279,48.162811 84.039337,48.723282 83.478851C49.283768 82.918381,49.598709 82.158234,49.598709 81.365540Z" style="fill: rgb(100.000000%,100.000000%,100.000000%);stroke: none;"></path>
  <path d="M47.534531 123.909454C47.534531 123.116760,47.219589 122.356613,46.659103 121.796143C46.098633 121.235657,45.338486 120.920715,44.545792 120.920715C43.753098 120.920715,42.992950 121.235657,42.432480 121.796143C41.871994 122.356613,41.557053 123.116760,41.557053 123.909454C41.557053 124.702148,41.871994 125.462296,42.432480 126.022766C42.992950 126.583252,43.753098 126.898193,44.545792 126.898193C45.338486 126.898193,46.098633 126.583252,46.659103 126.022766C47.219589 125.462296,47.534531 124.702148,47.534531 123.909454Z" style="fill: rgb(100.000000%,100.000000%,100.000000%);stroke: none;"></path>
  <path d="M49.239731 102.549393C49.239731 101.756699,48.924789 100.996552,48.364304 100.436081C47.803833 99.875595,47.043686 99.560654,46.250992 99.560654C45.458298 99.560654,44.698151 99.875595,44.137680 100.436081C43.577194 100.996552,43.262253 101.756699,43.262253 102.549393C43.262253 103.342087,43.577194 104.102234,44.137680 104.662704C44.698151 105.223190,45.458298 105.538132,46.250992 105.538132C47.043686 105.538132,47.803833 105.223190,48.364304 104.662704C48.924789 104.102234,49.239731 103.342087,49.239731 102.549393Z" style="fill: rgb(100.000000%,100.000000%,100.000000%);stroke: none;"></path>
  <path d="M48.577408 172.903214C48.577408 172.110519,48.262466 171.350372,47.701981 170.789902C47.141510 170.229416,46.381363 169.914474,45.588669 169.914474C44.795975 169.914474,44.035828 170.229416,43.475357 170.789902C42.914871 171.350372,42.599930 172.110519,42.599930 172.903214C42.599930 173.695908,42.914871 174.456055,43.475357 175.016525C44.035828 175.577011,44.795975 175.891953,45.588669 175.891953C46.381363 175.891953,47.141510 175.577011,47.701981 175.016525C48.262466 174.456055,48.577408 173.695908,48.577408 172.903214Z" style="fill: rgb(100.000000%,100.000000%,100.000000%);stroke: none;"></path>
  <path d="M41.272232 137.539368C41.272232 136.746674,40.957291 135.986526,40.396805 135.426056C39.836334 134.865570,39.076187 134.550629,38.283493 134.550629C37.490799 134.550629,36.730652 134.865570,36.170181 135.426056C35.609695 135.986526,35.294754 136.746674,35.294754 137.539368C35.294754 138.332062,35.609695 139.092209,36.170181 139.652679C36.730652 140.213165,37.490799 140.528107,38.283493 140.528107C39.076187 140.528107,39.836334 140.213165,40.396805 139.652679C40.957291 139.092209,41.272232 138.332062,41.272232 137.539368Z" style="fill: rgb(100.000000%,100.000000%,100.000000%);stroke: none;"></path>
  <path d="M88.939484 190.669144C111.488678 197.717575,135.529694 185.412949,143.000000 163.000000C147.663925 149.006943,144.258301 134.060364,143.645966 119.392105C143.329361 111.807892,143.779770 104.194565,143.000000 96.641434C142.259460 89.468307,140.560501 81.912109,144.210831 75.661469C149.715942 66.234802,162.636353 65.136826,172.564606 71.175583C190.876053 82.313339,192.522598 106.946350,185.489105 128.413315C178.688736 149.168747,162.772385 167.044769,143.000000 163.000000C128.191940 159.970779,120.106689 145.338516,115.529510 130.570984C112.801941 121.770905,110.872787 112.753052,109.068649 103.719757C107.555023 96.141022,106.114563 88.502319,103.143173 81.361404C100.415161 74.805405,96.473389 68.853226,92.027451 63.320374C87.875900 58.153854,83.220367 53.233856,80.882248 47.014206C75.997849 34.021133,81.714951 19.569092,93.620850 12.141800C109.261230 2.384811,129.072250 7.182831,144.416061 18.167496C161.787659 30.603851,173.552582 49.950546,172.564606 71.175583C172.036987 82.510529,166.929901 93.733292,156.380188 96.721924C152.029816 97.954346,147.459457 97.331085,143.000000 96.641434C137.314423 95.762177,131.545349 94.792343,125.884491 95.878510C119.749008 97.055740,114.413040 100.511215,109.068649 103.719757C104.060501 106.726425,98.779877 109.593689,92.930054 109.753418C87.964859 109.888992,83.256546 108.023788,78.557800 106.451660C75.563965 105.449966,72.341354 104.322754,71.118439 101.433777C69.708252 98.102386,71.791916 94.656830,73.406219 91.397186C75.880569 86.400894,77.092972 80.839844,79.931030 76.034866C82.932755 70.952789,87.501160 67.093231,92.027451 63.320374C97.179276 59.026123,102.446335 54.626648,105.393692 48.585693C111.781631 35.492844,106.263672 19.833405,93.620850 12.141800C78.905670 3.189423,60.425201 7.457794,46.088547 17.642685C30.701294 28.573914,20.136856 45.490036,20.381805 64.279953C20.513672 74.395035,24.642441 84.583481,33.941116 87.573196C37.841522 88.827255,42.001389 88.367081,46.038925 87.714462C50.873901 86.932953,55.753891 85.891663,60.597672 86.685730C65.112213 87.425827,69.167160 89.701523,73.406219 91.397186C76.136002 92.489120,79.120834 93.526810,80.423370 96.162033C82.055313 99.463669,80.183365 103.104202,78.557800 106.451660C75.254898 113.253189,73.358505 120.636902,70.315262 127.556152C64.746857 140.216675,54.639328 151.194214,41.136597 151.351089C22.506836 151.567535,11.271667 132.848557,6.961761 113.393311C2.770630 94.474106,4.329391 73.355774,20.381805 64.279953C29.212921 59.286957,40.461700 60.710129,45.100067 69.101593C48.198914 74.707855,46.609970 81.365540,46.038925 87.714462C45.374207 95.104889,46.250992 102.549393,45.660553 109.945496C44.545792 123.909454,38.283493 137.539368,41.136597 151.351089C45.588669 172.903214,67.429062 183.945419,88.939484 190.669144" style="stroke:rgb(0.000000%,0.000000%,0.000000%); stroke-width: 0.498138;stroke-linecap: round;stroke-linejoin: round;stroke-miterlimit: 10.000000;fill: none;"></path>
  <path d="M88.939484 190.669144C111.488678 197.717575,135.529694 185.412949,143.000000 163.000000C147.663925 149.006943,144.258301 134.060364,143.645966 119.392105C143.329361 111.807892,143.779770 104.194565,143.000000 96.641434" style="stroke:rgb(0.000000%,0.000000%,0.000000%); stroke-width: 1.494400;stroke-linecap: round;stroke-linejoin: round;stroke-miterlimit: 10.000000;fill: none;"></path>
  <path d="M41.136597 151.351089C45.588669 172.903214,67.429062 183.945419,88.939484 190.669144" style="stroke:rgb(0.000000%,0.000000%,0.000000%); stroke-width: 1.494400;stroke-linecap: round;stroke-linejoin: round;stroke-miterlimit: 10.000000;fill: none;"></path>
  <path d="M145.988739 163.000000C145.988739 162.207306,145.673798 161.447159,145.113312 160.886688C144.552841 160.326202,143.792694 160.011261,143.000000 160.011261C142.207306 160.011261,141.447159 160.326202,140.886688 160.886688C140.326202 161.447159,140.011261 162.207306,140.011261 163.000000C140.011261 163.792694,140.326202 164.552841,140.886688 165.113312C141.447159 165.673798,142.207306 165.988739,143.000000 165.988739C143.792694 165.988739,144.552841 165.673798,145.113312 165.113312C145.673798 164.552841,145.988739 163.792694,145.988739 163.000000Z" style="fill: rgb(100.000000%,100.000000%,100.000000%);stroke: none;"></path>
  <path d="M121.624329 187.882584C131.387024 182.885864,139.264847 174.206467,143.000000 163.000000C145.331970 156.003464,145.646545 148.768555,145.301575 141.449234" style="stroke:rgb(0.000000%,0.000000%,0.000000%); stroke-width: 1.494400;stroke-linecap: round;stroke-linejoin: round;stroke-miterlimit: 10.000000;fill: none;"></path>
  <path d="M175.553345 71.175583C175.553345 70.382889,175.238403 69.622742,174.677917 69.062271C174.117447 68.501785,173.357300 68.186844,172.564606 68.186844C171.771912 68.186844,171.011765 68.501785,170.451294 69.062271C169.890808 69.622742,169.575867 70.382889,169.575867 71.175583C169.575867 71.968277,169.890808 72.728424,170.451294 73.288895C171.011765 73.849380,171.771912 74.164322,172.564606 74.164322C173.357300 74.164322,174.117447 73.849380,174.677917 73.288895C175.238403 72.728424,175.553345 71.968277,175.553345 71.175583Z" style="fill: rgb(100.000000%,100.000000%,100.000000%);stroke: none;"></path>
  <path d="M156.729050 67.618988C161.888321 66.921005,167.600479 68.156204,172.564606 71.175583C181.720337 76.744461,186.709839 85.687164,188.531219 95.921005" style="stroke:rgb(0.000000%,0.000000%,0.000000%); stroke-width: 0.498138;stroke-linecap: round;stroke-linejoin: round;stroke-miterlimit: 10.000000;fill: none;"></path>
  <path d="M112.057388 103.719757C112.057388 102.927063,111.742447 102.166916,111.181961 101.606445C110.621490 101.045959,109.861343 100.731018,109.068649 100.731018C108.275955 100.731018,107.515808 101.045959,106.955338 101.606445C106.394852 102.166916,106.079910 102.927063,106.079910 103.719757C106.079910 104.512451,106.394852 105.272598,106.955338 105.833069C107.515808 106.393555,108.275955 106.708496,109.068649 106.708496C109.861343 106.708496,110.621490 106.393555,111.181961 105.833069C111.742447 105.272598,112.057388 104.512451,112.057388 103.719757Z" style="fill: rgb(100.000000%,100.000000%,100.000000%);stroke: none;"></path>
  <path d="M111.952789 117.232819C110.904037 112.749191,109.970718 108.236404,109.068649 103.719757C108.311829 99.930389,107.573303 96.126022,106.652557 92.376389" style="stroke:rgb(0.000000%,0.000000%,0.000000%); stroke-width: 0.498138;stroke-linecap: round;stroke-linejoin: round;stroke-miterlimit: 10.000000;fill: none;"></path>
  <path d="M96.609589 12.141800C96.609589 11.349106,96.294647 10.588959,95.734161 10.028488C95.173691 9.468002,94.413544 9.153061,93.620850 9.153061C92.828156 9.153061,92.068008 9.468002,91.507538 10.028488C90.947052 10.588959,90.632111 11.349106,90.632111 12.141800C90.632111 12.934494,90.947052 13.694641,91.507538 14.255112C92.068008 14.815598,92.828156 15.130539,93.620850 15.130539C94.413544 15.130539,95.173691 14.815598,95.734161 14.255112C96.294647 13.694641,96.609589 12.934494,96.609589 12.141800Z" style="fill: rgb(100.000000%,100.000000%,100.000000%);stroke: none;"></path>
  <path d="M80.955200 27.490829C83.262161 21.325272,87.667908 15.855438,93.620850 12.141800C101.441040 7.263306,110.303894 6.023560,119.129684 7.376541" style="stroke:rgb(0.000000%,0.000000%,0.000000%); stroke-width: 0.498138;stroke-linecap: round;stroke-linejoin: round;stroke-miterlimit: 10.000000;fill: none;"></path>
  <path d="M145.988739 96.641434C145.988739 95.848740,145.673798 95.088593,145.113312 94.528122C144.552841 93.967636,143.792694 93.652695,143.000000 93.652695C142.207306 93.652695,141.447159 93.967636,140.886688 94.528122C140.326202 95.088593,140.011261 95.848740,140.011261 96.641434C140.011261 97.434128,140.326202 98.194275,140.886688 98.754745C141.447159 99.315231,142.207306 99.630173,143.000000 99.630173C143.792694 99.630173,144.552841 99.315231,145.113312 98.754745C145.673798 98.194275,145.988739 97.434128,145.988739 96.641434Z" style="fill: rgb(100.000000%,100.000000%,100.000000%);stroke: none;"></path>
  <path d="M149.730988 97.402451C147.487167 97.314484,145.229721 96.986252,143.000000 96.641434C140.157211 96.201797,137.293549 95.739517,134.432968 95.522934" style="stroke:rgb(0.000000%,0.000000%,0.000000%); stroke-width: 0.498138;stroke-linecap: round;stroke-linejoin: round;stroke-miterlimit: 10.000000;fill: none;"></path>
  <path d="M81.546539 106.451660C81.546539 105.658966,81.231598 104.898819,80.671112 104.338348C80.110641 103.777863,79.350494 103.462921,78.557800 103.462921C77.765106 103.462921,77.004959 103.777863,76.444489 104.338348C75.884003 104.898819,75.569061 105.658966,75.569061 106.451660C75.569061 107.244354,75.884003 108.004501,76.444489 108.564972C77.004959 109.125458,77.765106 109.440399,78.557800 109.440399C79.350494 109.440399,80.110641 109.125458,80.671112 108.564972C81.231598 108.004501,81.546539 107.244354,81.546539 106.451660Z" style="fill: rgb(100.000000%,100.000000%,100.000000%);stroke: none;"></path>
  <path d="M80.712143 101.289673C80.244949 103.030945,79.370575 104.777939,78.557800 106.451660C76.906342 109.852432,75.606522 113.398743,74.339157 116.959778" style="stroke:rgb(0.000000%,0.000000%,0.000000%); stroke-width: 0.498138;stroke-linecap: round;stroke-linejoin: round;stroke-miterlimit: 10.000000;fill: none;"></path>
  <path d="M95.016190 63.320374C95.016190 62.527679,94.701248 61.767532,94.140762 61.207062C93.580292 60.646576,92.820145 60.331635,92.027451 60.331635C91.234756 60.331635,90.474609 60.646576,89.914139 61.207062C89.353653 61.767532,89.038712 62.527679,89.038712 63.320374C89.038712 64.113068,89.353653 64.873215,89.914139 65.433685C90.474609 65.994171,91.234756 66.309113,92.027451 66.309113C92.820145 66.309113,93.580292 65.994171,94.140762 65.433685C94.701248 64.873215,95.016190 64.113068,95.016190 63.320374Z" style="fill: rgb(100.000000%,100.000000%,100.000000%);stroke: none;"></path>
  <path d="M85.407547 69.186646C87.490646 67.114899,89.764313 65.206802,92.027451 63.320374C94.603363 61.173248,97.208084 58.999817,99.537247 56.608047" style="stroke:rgb(0.000000%,0.000000%,0.000000%); stroke-width: 0.498138;stroke-linecap: round;stroke-linejoin: round;stroke-miterlimit: 10.000000;fill: none;"></path>
  <path d="M23.370544 64.279953C23.370544 63.487259,23.055603 62.727112,22.495117 62.166641C21.934647 61.606155,21.174500 61.291214,20.381805 61.291214C19.589111 61.291214,18.828964 61.606155,18.268494 62.166641C17.708008 62.727112,17.393066 63.487259,17.393066 64.279953C17.393066 65.072647,17.708008 65.832794,18.268494 66.393265C18.828964 66.953751,19.589111 67.268692,20.381805 67.268692C21.174500 67.268692,21.934647 66.953751,22.495117 66.393265C23.055603 65.832794,23.370544 65.072647,23.370544 64.279953Z" style="fill: rgb(100.000000%,100.000000%,100.000000%);stroke: none;"></path>
  <path d="M27.373093 38.014328C22.839203 45.958496,20.259338 54.884995,20.381805 64.279953C20.447739 69.337494,21.512909 74.413376,23.723923 78.598587" style="stroke:rgb(0.000000%,0.000000%,0.000000%); stroke-width: 0.498138;stroke-linecap: round;stroke-linejoin: round;stroke-miterlimit: 10.000000;fill: none;"></path>
  <path d="M76.394958 91.397186C76.394958 90.604492,76.080017 89.844345,75.519531 89.283875C74.959061 88.723389,74.198914 88.408447,73.406219 88.408447C72.613525 88.408447,71.853378 88.723389,71.292908 89.283875C70.732422 89.844345,70.417480 90.604492,70.417480 91.397186C70.417480 92.189880,70.732422 92.950027,71.292908 93.510498C71.853378 94.070984,72.613525 94.385925,73.406219 94.385925C74.198914 94.385925,74.959061 94.070984,75.519531 93.510498C76.080017 92.950027,76.394958 92.189880,76.394958 91.397186Z" style="fill: rgb(100.000000%,100.000000%,100.000000%);stroke: none;"></path>
  <path d="M71.128159 96.388565C71.674591 94.703308,72.599075 93.027008,73.406219 91.397186C74.643402 88.899033,75.565094 86.259689,76.532242 83.644272" style="stroke:rgb(0.000000%,0.000000%,0.000000%); stroke-width: 0.498138;stroke-linecap: round;stroke-linejoin: round;stroke-miterlimit: 10.000000;fill: none;"></path>
  <path d="M44.125336 151.351089C44.125336 150.558395,43.810394 149.798248,43.249908 149.237778C42.689438 148.677292,41.929291 148.362350,41.136597 148.362350C40.343903 148.362350,39.583755 148.677292,39.023285 149.237778C38.462799 149.798248,38.147858 150.558395,38.147858 151.351089C38.147858 152.143784,38.462799 152.903931,39.023285 153.464401C39.583755 154.024887,40.343903 154.339828,41.136597 154.339828C41.929291 154.339828,42.689438 154.024887,43.249908 153.464401C43.810394 152.903931,44.125336 152.143784,44.125336 151.351089Z" style="fill: rgb(100.000000%,100.000000%,100.000000%);stroke: none;"></path>
  <path d="M58.701279 144.142502C53.790512 148.489059,47.887955 151.272659,41.136597 151.351089C31.821716 151.459320,24.355484 146.833679,18.679230 139.749069" style="stroke:rgb(0.000000%,0.000000%,0.000000%); stroke-width: 0.498138;stroke-linecap: round;stroke-linejoin: round;stroke-miterlimit: 10.000000;fill: none;"></path>
  <path d="M49.027664 87.714462C49.027664 86.921768,48.712723 86.161621,48.152237 85.601151C47.591766 85.040665,46.831619 84.725723,46.038925 84.725723C45.246231 84.725723,44.486084 85.040665,43.925613 85.601151C43.365128 86.161621,43.050186 86.921768,43.050186 87.714462C43.050186 88.507156,43.365128 89.267303,43.925613 89.827774C44.486084 90.388260,45.246231 90.703201,46.038925 90.703201C46.831619 90.703201,47.591766 90.388260,48.152237 89.827774C48.712723 89.267303,49.027664 88.507156,49.027664 87.714462Z" style="fill: rgb(100.000000%,100.000000%,100.000000%);stroke: none;"></path>
  <path d="M46.945694 78.129547C46.864441 81.288361,46.324448 84.540009,46.038925 87.714462C45.706558 91.409683,45.759583 95.118423,45.821884 98.827866" style="stroke:rgb(0.000000%,0.000000%,0.000000%); stroke-width: 0.498138;stroke-linecap: round;stroke-linejoin: round;stroke-miterlimit: 10.000000;fill: none;"></path>
  <path d="M143.645966 119.392105C143.392685 113.324707,143.630280 107.238678,143.336212 101.179749" style="stroke:rgb(0.000000%,0.000000%,0.000000%); stroke-width: 0.498138;stroke-linecap: round;stroke-linejoin: round;stroke-miterlimit: 10.000000;fill: none;"></path>
  <path d="M145.381134 105.742371C144.722961 104.210236,144.047729 102.686371,143.336212 101.179749C142.773956 102.748199,142.173859 104.303192,141.555847 105.851959Z" style="stroke:rgb(0.000000%,0.000000%,0.000000%); stroke-width: 0.498138;fill: rgb(0.000000%,0.000000%,0.000000%);"></path>
  <path d="M143.645966 119.392105C143.392685 113.324707,143.630280 107.238678,143.336212 101.179749" style="stroke:rgb(0.000000%,0.000000%,0.000000%); stroke-width: 0.498138;stroke-linecap: round;stroke-linejoin: round;stroke-miterlimit: 10.000000;fill: none;"></path>
  <path d="M144.582062 103.908707C144.177078 102.994156,143.763184 102.083847,143.336212 101.179749C142.998810 102.120956,142.647781 103.057297,142.287445 103.990341Z" style="stroke:rgb(0.000000%,0.000000%,0.000000%); stroke-width: 0.498138;fill: rgb(0.000000%,0.000000%,0.000000%);"></path>
  <path d="M144.210831 75.661469C148.614944 68.120102,157.764862 65.909149,166.331955 68.418304" style="stroke:rgb(0.000000%,0.000000%,0.000000%); stroke-width: 0.498138;stroke-linecap: round;stroke-linejoin: round;stroke-miterlimit: 10.000000;fill: none;"></path>
  <path d="M163.374054 68.918579C164.338776 68.694489,165.327240 68.527023,166.331955 68.418304C165.544647 67.784744,164.727295 67.204193,163.886688 66.680450Z" style="stroke:rgb(0.000000%,0.000000%,0.000000%); stroke-width: 0.498138;fill: rgb(0.000000%,0.000000%,0.000000%);"></path>
  <path d="M103.143173 81.361404C100.960754 76.116577,98.001526 71.258209,94.628799 66.691818" style="stroke:rgb(0.000000%,0.000000%,0.000000%); stroke-width: 0.498138;stroke-linecap: round;stroke-linejoin: round;stroke-miterlimit: 10.000000;fill: none;"></path>
  <path d="M97.173386 68.281052C96.334671 67.737198,95.485947 67.207855,94.628799 66.691818C94.869980 67.662811,95.095810 68.637253,95.304276 69.614883Z" style="stroke:rgb(0.000000%,0.000000%,0.000000%); stroke-width: 0.498138;fill: rgb(0.000000%,0.000000%,0.000000%);"></path>
  <path d="M80.882248 47.014206C76.974716 36.619705,79.852188 25.291458,87.255356 17.373184" style="stroke:rgb(0.000000%,0.000000%,0.000000%); stroke-width: 0.498138;stroke-linecap: round;stroke-linejoin: round;stroke-miterlimit: 10.000000;fill: none;"></path>
  <path d="M86.337402 20.229523C86.595978 19.267792,86.902069 18.314392,87.255356 17.373184C86.339996 17.788879,85.449402 18.246582,84.586517 18.743774Z" style="stroke:rgb(0.000000%,0.000000%,0.000000%); stroke-width: 0.498138;fill: rgb(0.000000%,0.000000%,0.000000%);"></path>
  <path d="M125.884491 95.878510C120.976089 96.820297,116.579376 99.220169,112.280685 101.785233" style="stroke:rgb(0.000000%,0.000000%,0.000000%); stroke-width: 0.498138;stroke-linecap: round;stroke-linejoin: round;stroke-miterlimit: 10.000000;fill: none;"></path>
  <path d="M114.099304 99.399353C113.482269 100.184540,112.878418 100.982574,112.280685 101.785233C113.270905 101.640350,114.262207 101.503052,115.253723 101.384186Z" style="stroke:rgb(0.000000%,0.000000%,0.000000%); stroke-width: 0.498138;fill: rgb(0.000000%,0.000000%,0.000000%);"></path>
  <path d="M79.931030 76.034866C82.332413 71.969193,85.736496 68.685928,89.319534 65.603546" style="stroke:rgb(0.000000%,0.000000%,0.000000%); stroke-width: 0.498138;stroke-linecap: round;stroke-linejoin: round;stroke-miterlimit: 10.000000;fill: none;"></path>
  <path d="M88.007874 68.301620C88.428009 67.395615,88.868332 66.496948,89.319534 65.603546C88.368759 65.916229,87.421936 66.240280,86.484192 66.583847Z" style="stroke:rgb(0.000000%,0.000000%,0.000000%); stroke-width: 0.498138;fill: rgb(0.000000%,0.000000%,0.000000%);"></path>
  <path d="M33.941116 87.573196C37.061447 88.576447,40.347855 88.482590,43.604813 88.070755" style="stroke:rgb(0.000000%,0.000000%,0.000000%); stroke-width: 0.498138;stroke-linecap: round;stroke-linejoin: round;stroke-miterlimit: 10.000000;fill: none;"></path>
  <path d="M40.945938 89.460281C41.848358 89.038605,42.733536 88.567856,43.604813 88.070755C42.637222 87.806168,41.678467 87.513092,40.742172 87.173141Z" style="stroke:rgb(0.000000%,0.000000%,0.000000%); stroke-width: 0.498138;fill: rgb(0.000000%,0.000000%,0.000000%);"></path>
  <path d="M70.315262 127.556152C65.860519 137.684616,58.500717 146.735947,48.821548 150.031631" style="stroke:rgb(0.000000%,0.000000%,0.000000%); stroke-width: 0.498138;stroke-linecap: round;stroke-linejoin: round;stroke-miterlimit: 10.000000;fill: none;"></path>
  <path d="M50.956223 147.923599C50.285629 148.665970,49.574478 149.370102,48.821548 150.031631C49.821732 150.096268,50.822464 150.101273,51.821609 150.050522Z" style="stroke:rgb(0.000000%,0.000000%,0.000000%); stroke-width: 0.498138;fill: rgb(0.000000%,0.000000%,0.000000%);"></path>
  <path d="M45.100067 69.101593C47.579147 73.586624,47.058029 78.744568,46.458054 83.878998" style="stroke:rgb(0.000000%,0.000000%,0.000000%); stroke-width: 0.498138;stroke-linecap: round;stroke-linejoin: round;stroke-miterlimit: 10.000000;fill: none;"></path>
  <path d="M45.610931 81.001114C45.908188 81.951538,46.184662 82.915115,46.458054 83.878998C46.946320 83.004105,47.432175 82.127289,47.894073 81.245041Z" style="stroke:rgb(0.000000%,0.000000%,0.000000%); stroke-width: 0.498138;fill: rgb(0.000000%,0.000000%,0.000000%);"></path>
  <path d="M85.948837 193.379349L91.930130 193.379349L91.930130 185.958954L85.948837 185.958954Z" style="fill: rgb(100.000000%,100.000000%,100.000000%);stroke: none;"></path>
  <path d="M85.948837 195.379349L91.930130 195.379349L91.930130 187.958954L85.948837 187.958954Z" style="fill: rgb(100.000000%,100.000000%,100.000000%);stroke: none;"></path>
  <g transform="translate(86.448837 193.879349)" style="fill: rgb(0.000000%,0.000000%,0.000000%);">
    <use xlink:href="#GLYPHcmr10_49"></use>
  </g>
  <path d="M182.498459 131.123520L188.479752 131.123520L188.479752 123.703125L182.498459 123.703125Z" style="fill: rgb(100.000000%,100.000000%,100.000000%);stroke: none;"></path>
  <path d="M182.498459 133.123520L188.479752 133.123520L188.479752 125.703125L182.498459 125.703125Z" style="fill: rgb(100.000000%,100.000000%,100.000000%);stroke: none;"></path>
  <g transform="translate(182.998459 131.623520)" style="fill: rgb(0.000000%,0.000000%,0.000000%);">
    <use xlink:href="#GLYPHcmr10_50"></use>
  </g>
  <path d="M112.538864 133.281189L118.520157 133.281189L118.520157 125.860794L112.538864 125.860794Z" style="fill: rgb(100.000000%,100.000000%,100.000000%);stroke: none;"></path>
  <path d="M112.538864 135.281189L118.520157 135.281189L118.520157 127.860794L112.538864 127.860794Z" style="fill: rgb(100.000000%,100.000000%,100.000000%);stroke: none;"></path>
  <g transform="translate(113.038864 133.781189)" style="fill: rgb(0.000000%,0.000000%,0.000000%);">
    <use xlink:href="#GLYPHcmr10_51"></use>
  </g>
  <path d="M141.425415 20.877701L147.406708 20.877701L147.406708 13.457306L141.425415 13.457306Z" style="fill: rgb(100.000000%,100.000000%,100.000000%);stroke: none;"></path>
  <path d="M141.425415 22.877701L147.406708 22.877701L147.406708 15.457306L141.425415 15.457306Z" style="fill: rgb(100.000000%,100.000000%,100.000000%);stroke: none;"></path>
  <g transform="translate(141.925415 21.377701)" style="fill: rgb(0.000000%,0.000000%,0.000000%);">
    <use xlink:href="#GLYPHcmr10_52"></use>
  </g>
  <path d="M153.389542 99.432129L159.370834 99.432129L159.370834 92.011734L153.389542 92.011734Z" style="fill: rgb(100.000000%,100.000000%,100.000000%);stroke: none;"></path>
  <path d="M153.389542 101.432129L159.370834 101.432129L159.370834 94.011734L153.389542 94.011734Z" style="fill: rgb(100.000000%,100.000000%,100.000000%);stroke: none;"></path>
  <g transform="translate(153.889542 99.932129)" style="fill: rgb(0.000000%,0.000000%,0.000000%);">
    <use xlink:href="#GLYPHcmr10_53"></use>
  </g>
  <path d="M89.939407 112.463623L95.920700 112.463623L95.920700 105.043228L89.939407 105.043228Z" style="fill: rgb(100.000000%,100.000000%,100.000000%);stroke: none;"></path>
  <path d="M89.939407 114.463623L95.920700 114.463623L95.920700 107.043228L89.939407 107.043228Z" style="fill: rgb(100.000000%,100.000000%,100.000000%);stroke: none;"></path>
  <g transform="translate(90.439407 112.963623)" style="fill: rgb(0.000000%,0.000000%,0.000000%);">
    <use xlink:href="#GLYPHcmr10_54"></use>
  </g>
  <path d="M102.403046 51.295898L108.384338 51.295898L108.384338 43.875504L102.403046 43.875504Z" style="fill: rgb(100.000000%,100.000000%,100.000000%);stroke: none;"></path>
  <path d="M102.403046 53.295898L108.384338 53.295898L108.384338 45.875504L102.403046 45.875504Z" style="fill: rgb(100.000000%,100.000000%,100.000000%);stroke: none;"></path>
  <g transform="translate(102.903046 51.795898)" style="fill: rgb(0.000000%,0.000000%,0.000000%);">
    <use xlink:href="#GLYPHcmr10_55"></use>
  </g>
  <path d="M43.097900 20.352890L49.079193 20.352890L49.079193 12.932495L43.097900 12.932495Z" style="fill: rgb(100.000000%,100.000000%,100.000000%);stroke: none;"></path>
  <path d="M43.097900 22.352890L49.079193 22.352890L49.079193 14.932495L43.097900 14.932495Z" style="fill: rgb(100.000000%,100.000000%,100.000000%);stroke: none;"></path>
  <g transform="translate(43.597900 20.852890)" style="fill: rgb(0.000000%,0.000000%,0.000000%);">
    <use xlink:href="#GLYPHcmr10_56"></use>
  </g>
  <path d="M57.607025 89.395935L63.588318 89.395935L63.588318 81.975540L57.607025 81.975540Z" style="fill: rgb(100.000000%,100.000000%,100.000000%);stroke: none;"></path>
  <path d="M57.607025 91.395935L63.588318 91.395935L63.588318 83.975540L57.607025 83.975540Z" style="fill: rgb(100.000000%,100.000000%,100.000000%);stroke: none;"></path>
  <g transform="translate(58.107025 89.895935)" style="fill: rgb(0.000000%,0.000000%,0.000000%);">
    <use xlink:href="#GLYPHcmr10_57"></use>
  </g>
  <path d="M1.480408 116.103516L12.443115 116.103516L12.443115 108.683121L1.480408 108.683121Z" style="fill: rgb(100.000000%,100.000000%,100.000000%);stroke: none;"></path>
  <path d="M1.480408 118.103516L12.443115 118.103516L12.443115 110.683121L1.480408 110.683121Z" style="fill: rgb(100.000000%,100.000000%,100.000000%);stroke: none;"></path>
  <g transform="translate(1.980408 116.603516)" style="fill: rgb(0.000000%,0.000000%,0.000000%);">
    <use xlink:href="#GLYPHcmr10_49"></use>
    <use xlink:href="#GLYPHcmr10_48" x="5.000095"></use>
  </g>
  <path d="M40.179199 112.655701L51.141907 112.655701L51.141907 105.235306L40.179199 105.235306Z" style="fill: rgb(100.000000%,100.000000%,100.000000%);stroke: none;"></path>
  <path d="M40.179199 114.655701L51.141907 114.655701L51.141907 107.235306L40.179199 107.235306Z" style="fill: rgb(100.000000%,100.000000%,100.000000%);stroke: none;"></path>
  <g transform="translate(40.679199 113.155701)" style="fill: rgb(0.000000%,0.000000%,0.000000%);">
    <use xlink:href="#GLYPHcmr10_49"></use>
    <use xlink:href="#GLYPHcmr10_49" x="5.000095"></use>
  </g>
</svg>
