<?xml version="1.0"?>
<!-- Created by MetaPost 1.999 on 2021.07.06:0013 -->
<svg version="1.1" xmlns="http://www.w3.org/2000/svg" xmlns:xlink="http://www.w3.org/1999/xlink" width="196.917068" height="207.410843" viewBox="0 0 196.917068 207.410843">
<!-- Original BoundingBox: -123.471802 -37.151154 73.445267 170.259689 -->
  <defs>
    <g transform="scale(0.009963,0.009963)" id="GLYPHcmr10_49">
      <path style="fill-rule: evenodd;" d="M294.000000 -640.000000C294.000000 -664.000000,294.000000 -666.000000,271.000000 -666.000000C209.000000 -602.000000,121.000000 -602.000000,89.000000 -602.000000L89.000000 -571.000000C109.000000 -571.000000,168.000000 -571.000000,220.000000 -597.000000L220.000000 -79.000000C220.000000 -43.000000,217.000000 -31.000000,127.000000 -31.000000L95.000000 -31.000000L95.000000 -0.000000L257.000000 -0.000000L130.000000 -3.000000L217.000000 -3.000000L257.000000 -3.000000L297.000000 -3.000000L384.000000 -3.000000L419.000000 -0.000000L419.000000 -31.000000L387.000000 -31.000000C297.000000 -31.000000,294.000000 -42.000000,294.000000 -79.000000"></path>
    </g>
    <g transform="scale(0.009963,0.009963)" id="GLYPHcmr10_50">
      <path style="fill-rule: evenodd;" d="M127.000000 -77.000000L233.000000 -180.000000C389.000000 -318.000000,449.000000 -372.000000,449.000000 -472.000000C449.000000 -586.000000,359.000000 -666.000000,237.000000 -666.000000C124.000000 -666.000000,50.000000 -574.000000,50.000000 -485.000000C50.000000 -429.000000,100.000000 -429.000000,103.000000 -429.000000C120.000000 -429.000000,155.000000 -441.000000,155.000000 -482.000000C155.000000 -508.000000,137.000000 -534.000000,102.000000 -534.000000C94.000000 -534.000000,92.000000 -534.000000,89.000000 -533.000000C112.000000 -598.000000,166.000000 -635.000000,224.000000 -635.000000C315.000000 -635.000000,358.000000 -554.000000,358.000000 -472.000000C358.000000 -392.000000,308.000000 -313.000000,253.000000 -251.000000L61.000000 -37.000000C50.000000 -26.000000,50.000000 -24.000000,50.000000 -0.000000L421.000000 -0.000000L449.000000 -174.000000L424.000000 -174.000000C419.000000 -144.000000,412.000000 -100.000000,402.000000 -85.000000C395.000000 -77.000000,329.000000 -77.000000,307.000000 -77.000000"></path>
    </g>
    <g transform="scale(0.009963,0.009963)" id="GLYPHcmr10_51">
      <path style="fill-rule: evenodd;" d="M290.000000 -352.000000C372.000000 -379.000000,430.000000 -449.000000,430.000000 -528.000000C430.000000 -610.000000,342.000000 -666.000000,246.000000 -666.000000C145.000000 -666.000000,69.000000 -606.000000,69.000000 -530.000000C69.000000 -497.000000,91.000000 -478.000000,120.000000 -478.000000C151.000000 -478.000000,171.000000 -500.000000,171.000000 -529.000000C171.000000 -579.000000,124.000000 -579.000000,109.000000 -579.000000C140.000000 -628.000000,206.000000 -641.000000,242.000000 -641.000000C283.000000 -641.000000,338.000000 -619.000000,338.000000 -529.000000C338.000000 -517.000000,336.000000 -459.000000,310.000000 -415.000000C280.000000 -367.000000,246.000000 -364.000000,221.000000 -363.000000C213.000000 -362.000000,189.000000 -360.000000,182.000000 -360.000000C174.000000 -359.000000,167.000000 -358.000000,167.000000 -348.000000C167.000000 -337.000000,174.000000 -337.000000,191.000000 -337.000000L235.000000 -337.000000C317.000000 -337.000000,354.000000 -269.000000,354.000000 -171.000000C354.000000 -35.000000,285.000000 -6.000000,241.000000 -6.000000C198.000000 -6.000000,123.000000 -23.000000,88.000000 -82.000000C123.000000 -77.000000,154.000000 -99.000000,154.000000 -137.000000C154.000000 -173.000000,127.000000 -193.000000,98.000000 -193.000000C74.000000 -193.000000,42.000000 -179.000000,42.000000 -135.000000C42.000000 -44.000000,135.000000 22.000000,244.000000 22.000000C366.000000 22.000000,457.000000 -69.000000,457.000000 -171.000000C457.000000 -253.000000,394.000000 -331.000000,290.000000 -352.000000"></path>
    </g>
    <g transform="scale(0.009963,0.009963)" id="GLYPHcmr10_52">
      <path style="fill-rule: evenodd;" d="M294.000000 -165.000000L294.000000 -78.000000C294.000000 -42.000000,292.000000 -31.000000,218.000000 -31.000000L197.000000 -31.000000L197.000000 -0.000000L332.000000 -0.000000L238.000000 -3.000000L290.000000 -3.000000L332.000000 -3.000000L374.000000 -3.000000L427.000000 -3.000000L468.000000 -0.000000L468.000000 -31.000000L447.000000 -31.000000C373.000000 -31.000000,371.000000 -42.000000,371.000000 -78.000000L371.000000 -165.000000L471.000000 -165.000000L471.000000 -196.000000L371.000000 -196.000000L371.000000 -651.000000C371.000000 -671.000000,371.000000 -677.000000,355.000000 -677.000000C346.000000 -677.000000,343.000000 -677.000000,335.000000 -665.000000L28.000000 -196.000000L28.000000 -165.000000M300.000000 -196.000000L56.000000 -196.000000L300.000000 -569.000000"></path>
    </g>
    <g transform="scale(0.009963,0.009963)" id="GLYPHcmr10_53">
      <path style="fill-rule: evenodd;" d="M449.000000 -201.000000C449.000000 -320.000000,367.000000 -420.000000,259.000000 -420.000000C211.000000 -420.000000,168.000000 -404.000000,132.000000 -369.000000L132.000000 -564.000000C152.000000 -558.000000,185.000000 -551.000000,217.000000 -551.000000C340.000000 -551.000000,410.000000 -642.000000,410.000000 -655.000000C410.000000 -661.000000,407.000000 -666.000000,400.000000 -666.000000C399.000000 -666.000000,397.000000 -666.000000,392.000000 -663.000000C372.000000 -654.000000,323.000000 -634.000000,256.000000 -634.000000C216.000000 -634.000000,170.000000 -641.000000,123.000000 -662.000000C115.000000 -665.000000,113.000000 -665.000000,111.000000 -665.000000C101.000000 -665.000000,101.000000 -657.000000,101.000000 -641.000000L101.000000 -345.000000C101.000000 -327.000000,101.000000 -319.000000,115.000000 -319.000000C122.000000 -319.000000,124.000000 -322.000000,128.000000 -328.000000C139.000000 -344.000000,176.000000 -398.000000,257.000000 -398.000000C309.000000 -398.000000,334.000000 -352.000000,342.000000 -334.000000C358.000000 -297.000000,360.000000 -258.000000,360.000000 -208.000000C360.000000 -173.000000,360.000000 -113.000000,336.000000 -71.000000C312.000000 -32.000000,275.000000 -6.000000,229.000000 -6.000000C156.000000 -6.000000,99.000000 -59.000000,82.000000 -118.000000C85.000000 -117.000000,88.000000 -116.000000,99.000000 -116.000000C132.000000 -116.000000,149.000000 -141.000000,149.000000 -165.000000C149.000000 -189.000000,132.000000 -214.000000,99.000000 -214.000000C85.000000 -214.000000,50.000000 -207.000000,50.000000 -161.000000C50.000000 -75.000000,119.000000 22.000000,231.000000 22.000000C347.000000 22.000000,449.000000 -74.000000,449.000000 -201.000000"></path>
    </g>
    <g transform="scale(0.009963,0.009963)" id="GLYPHcmr10_54">
      <path style="fill-rule: evenodd;" d="M132.000000 -328.000000L132.000000 -352.000000C132.000000 -605.000000,256.000000 -641.000000,307.000000 -641.000000C331.000000 -641.000000,373.000000 -635.000000,395.000000 -601.000000C380.000000 -601.000000,340.000000 -601.000000,340.000000 -556.000000C340.000000 -525.000000,364.000000 -510.000000,386.000000 -510.000000C402.000000 -510.000000,432.000000 -519.000000,432.000000 -558.000000C432.000000 -618.000000,388.000000 -666.000000,305.000000 -666.000000C177.000000 -666.000000,42.000000 -537.000000,42.000000 -316.000000C42.000000 -49.000000,158.000000 22.000000,251.000000 22.000000C362.000000 22.000000,457.000000 -72.000000,457.000000 -204.000000C457.000000 -331.000000,368.000000 -427.000000,257.000000 -427.000000C189.000000 -427.000000,152.000000 -376.000000,132.000000 -328.000000M251.000000 -6.000000C188.000000 -6.000000,158.000000 -66.000000,152.000000 -81.000000C134.000000 -128.000000,134.000000 -208.000000,134.000000 -226.000000C134.000000 -304.000000,166.000000 -404.000000,256.000000 -404.000000C272.000000 -404.000000,318.000000 -404.000000,349.000000 -342.000000C367.000000 -305.000000,367.000000 -254.000000,367.000000 -205.000000C367.000000 -157.000000,367.000000 -107.000000,350.000000 -71.000000C320.000000 -11.000000,274.000000 -6.000000,251.000000 -6.000000"></path>
    </g>
    <g transform="scale(0.009963,0.009963)" id="GLYPHcmr10_55">
      <path style="fill-rule: evenodd;" d="M476.000000 -609.000000C485.000000 -621.000000,485.000000 -623.000000,485.000000 -644.000000L242.000000 -644.000000C120.000000 -644.000000,118.000000 -657.000000,114.000000 -676.000000L89.000000 -676.000000L56.000000 -470.000000L81.000000 -470.000000C84.000000 -486.000000,93.000000 -549.000000,106.000000 -561.000000C113.000000 -567.000000,191.000000 -567.000000,204.000000 -567.000000L411.000000 -567.000000C400.000000 -551.000000,321.000000 -442.000000,299.000000 -409.000000C209.000000 -274.000000,176.000000 -135.000000,176.000000 -33.000000C176.000000 -23.000000,176.000000 22.000000,222.000000 22.000000C268.000000 22.000000,268.000000 -23.000000,268.000000 -33.000000L268.000000 -84.000000C268.000000 -139.000000,271.000000 -194.000000,279.000000 -248.000000C283.000000 -271.000000,297.000000 -357.000000,341.000000 -419.000000"></path>
    </g>
    <g transform="scale(0.009963,0.009963)" id="GLYPHcmr10_56">
      <path style="fill-rule: evenodd;" d="M163.000000 -457.000000C117.000000 -487.000000,113.000000 -521.000000,113.000000 -538.000000C113.000000 -599.000000,178.000000 -641.000000,249.000000 -641.000000C322.000000 -641.000000,386.000000 -589.000000,386.000000 -517.000000C386.000000 -460.000000,347.000000 -412.000000,287.000000 -377.000000M309.000000 -362.000000C381.000000 -399.000000,430.000000 -451.000000,430.000000 -517.000000C430.000000 -609.000000,341.000000 -666.000000,250.000000 -666.000000C150.000000 -666.000000,69.000000 -592.000000,69.000000 -499.000000C69.000000 -481.000000,71.000000 -436.000000,113.000000 -389.000000C124.000000 -377.000000,161.000000 -352.000000,186.000000 -335.000000C128.000000 -306.000000,42.000000 -250.000000,42.000000 -151.000000C42.000000 -45.000000,144.000000 22.000000,249.000000 22.000000C362.000000 22.000000,457.000000 -61.000000,457.000000 -168.000000C457.000000 -204.000000,446.000000 -249.000000,408.000000 -291.000000C389.000000 -312.000000,373.000000 -322.000000,309.000000 -362.000000M209.000000 -320.000000L332.000000 -242.000000C360.000000 -223.000000,407.000000 -193.000000,407.000000 -132.000000C407.000000 -58.000000,332.000000 -6.000000,250.000000 -6.000000C164.000000 -6.000000,92.000000 -68.000000,92.000000 -151.000000C92.000000 -209.000000,124.000000 -273.000000,209.000000 -320.000000"></path>
    </g>
    <g transform="scale(0.009963,0.009963)" id="GLYPHcmr10_57">
      <path style="fill-rule: evenodd;" d="M367.000000 -318.000000L367.000000 -286.000000C367.000000 -52.000000,263.000000 -6.000000,205.000000 -6.000000C188.000000 -6.000000,134.000000 -8.000000,107.000000 -42.000000C151.000000 -42.000000,159.000000 -71.000000,159.000000 -88.000000C159.000000 -119.000000,135.000000 -134.000000,113.000000 -134.000000C97.000000 -134.000000,67.000000 -125.000000,67.000000 -86.000000C67.000000 -19.000000,121.000000 22.000000,206.000000 22.000000C335.000000 22.000000,457.000000 -114.000000,457.000000 -329.000000C457.000000 -598.000000,342.000000 -666.000000,253.000000 -666.000000C198.000000 -666.000000,149.000000 -648.000000,106.000000 -603.000000C65.000000 -558.000000,42.000000 -516.000000,42.000000 -441.000000C42.000000 -316.000000,130.000000 -218.000000,242.000000 -218.000000C303.000000 -218.000000,344.000000 -260.000000,367.000000 -318.000000M243.000000 -241.000000C227.000000 -241.000000,181.000000 -241.000000,150.000000 -304.000000C132.000000 -341.000000,132.000000 -391.000000,132.000000 -440.000000C132.000000 -494.000000,132.000000 -541.000000,153.000000 -578.000000C180.000000 -628.000000,218.000000 -641.000000,253.000000 -641.000000C299.000000 -641.000000,332.000000 -607.000000,349.000000 -562.000000C361.000000 -530.000000,365.000000 -467.000000,365.000000 -421.000000C365.000000 -338.000000,331.000000 -241.000000,243.000000 -241.000000"></path>
    </g>
  </defs>
  <path d="M87.743729 204.162415C87.743729 203.369720,87.428787 202.609573,86.868301 202.049103C86.307831 201.488617,85.547684 201.173676,84.754990 201.173676C83.962296 201.173676,83.202148 201.488617,82.641678 202.049103C82.081192 202.609573,81.766251 203.369720,81.766251 204.162415C81.766251 204.955109,82.081192 205.715256,82.641678 206.275726C83.202148 206.836212,83.962296 207.151154,84.754990 207.151154C85.547684 207.151154,86.307831 206.836212,86.868301 206.275726C87.428787 205.715256,87.743729 204.955109,87.743729 204.162415Z" style="fill: rgb(100.000000%,100.000000%,100.000000%);stroke: none;"></path>
  <path d="M66.492310 189.125534C66.492310 188.332840,66.177368 187.572693,65.616882 187.012222C65.056412 186.451736,64.296265 186.136795,63.503571 186.136795C62.710876 186.136795,61.950729 186.451736,61.390259 187.012222C60.829773 187.572693,60.514832 188.332840,60.514832 189.125534C60.514832 189.918228,60.829773 190.678375,61.390259 191.238846C61.950729 191.799332,62.710876 192.114273,63.503571 192.114273C64.296265 192.114273,65.056412 191.799332,65.616882 191.238846C66.177368 190.678375,66.492310 189.918228,66.492310 189.125534Z" style="fill: rgb(100.000000%,100.000000%,100.000000%);stroke: none;"></path>
  <path d="M130.372391 157.324432C130.372391 156.531738,130.057449 155.771591,129.496964 155.211121C128.936493 154.650635,128.176346 154.335693,127.383652 154.335693C126.590958 154.335693,125.830811 154.650635,125.270340 155.211121C124.709854 155.771591,124.394913 156.531738,124.394913 157.324432C124.394913 158.117126,124.709854 158.877274,125.270340 159.437744C125.830811 159.998230,126.590958 160.313171,127.383652 160.313171C128.176346 160.313171,128.936493 159.998230,129.496964 159.437744C130.057449 158.877274,130.372391 158.117126,130.372391 157.324432Z" style="fill: rgb(100.000000%,100.000000%,100.000000%);stroke: none;"></path>
  <path d="M117.479996 194.603485C117.479996 193.810791,117.165054 193.050644,116.604568 192.490173C116.044098 191.929688,115.283951 191.614746,114.491257 191.614746C113.698563 191.614746,112.938416 191.929688,112.377945 192.490173C111.817459 193.050644,111.502518 193.810791,111.502518 194.603485C111.502518 195.396179,111.817459 196.156326,112.377945 196.716797C112.938416 197.277283,113.698563 197.592224,114.491257 197.592224C115.283951 197.592224,116.044098 197.277283,116.604568 196.716797C117.165054 196.156326,117.479996 195.396179,117.479996 194.603485Z" style="fill: rgb(100.000000%,100.000000%,100.000000%);stroke: none;"></path>
  <path d="M125.830521 123.028214C125.830521 122.235519,125.515579 121.475372,124.955093 120.914902C124.394623 120.354416,123.634476 120.039474,122.841782 120.039474C122.049088 120.039474,121.288940 120.354416,120.728470 120.914902C120.167984 121.475372,119.853043 122.235519,119.853043 123.028214C119.853043 123.820908,120.167984 124.581055,120.728470 125.141525C121.288940 125.702011,122.049088 126.016953,122.841782 126.016953C123.634476 126.016953,124.394623 125.702011,124.955093 125.141525C125.515579 124.581055,125.830521 123.820908,125.830521 123.028214Z" style="fill: rgb(100.000000%,100.000000%,100.000000%);stroke: none;"></path>
  <path d="M127.037613 143.737946C127.037613 142.945251,126.722672 142.185104,126.162186 141.624634C125.601715 141.064148,124.841568 140.749207,124.048874 140.749207C123.256180 140.749207,122.496033 141.064148,121.935562 141.624634C121.375076 142.185104,121.060135 142.945251,121.060135 143.737946C121.060135 144.530640,121.375076 145.290787,121.935562 145.851257C122.496033 146.411743,123.256180 146.726685,124.048874 146.726685C124.841568 146.726685,125.601715 146.411743,126.162186 145.851257C126.722672 145.290787,127.037613 144.530640,127.037613 143.737946Z" style="fill: rgb(100.000000%,100.000000%,100.000000%);stroke: none;"></path>
  <path d="M125.845276 103.474899C125.845276 102.682205,125.530334 101.922058,124.969849 101.361588C124.409378 100.801102,123.649231 100.486160,122.856537 100.486160C122.063843 100.486160,121.303696 100.801102,120.743225 101.361588C120.182739 101.922058,119.867798 102.682205,119.867798 103.474899C119.867798 104.267593,120.182739 105.027740,120.743225 105.588211C121.303696 106.148697,122.063843 106.463638,122.856537 106.463638C123.649231 106.463638,124.409378 106.148697,124.969849 105.588211C125.530334 105.027740,125.845276 104.267593,125.845276 103.474899Z" style="fill: rgb(100.000000%,100.000000%,100.000000%);stroke: none;"></path>
  <path d="M126.212112 115.621063C126.212112 114.828369,125.897171 114.068222,125.336685 113.507751C124.776215 112.947266,124.016068 112.632324,123.223373 112.632324C122.430679 112.632324,121.670532 112.947266,121.110062 113.507751C120.549576 114.068222,120.234634 114.828369,120.234634 115.621063C120.234634 116.413757,120.549576 117.173904,121.110062 117.734375C121.670532 118.294861,122.430679 118.609802,123.223373 118.609802C124.016068 118.609802,124.776215 118.294861,125.336685 117.734375C125.897171 117.173904,126.212112 116.413757,126.212112 115.621063Z" style="fill: rgb(100.000000%,100.000000%,100.000000%);stroke: none;"></path>
  <path d="M124.144501 89.300735C124.144501 88.508041,123.829559 87.747894,123.269073 87.187424C122.708603 86.626938,121.948456 86.311996,121.155762 86.311996C120.363068 86.311996,119.602921 86.626938,119.042450 87.187424C118.481964 87.747894,118.167023 88.508041,118.167023 89.300735C118.167023 90.093430,118.481964 90.853577,119.042450 91.414047C119.602921 91.974533,120.363068 92.289474,121.155762 92.289474C121.948456 92.289474,122.708603 91.974533,123.269073 91.414047C123.829559 90.853577,124.144501 90.093430,124.144501 89.300735Z" style="fill: rgb(100.000000%,100.000000%,100.000000%);stroke: none;"></path>
  <path d="M125.452423 98.735275C125.452423 97.942581,125.137482 97.182434,124.576996 96.621964C124.016525 96.061478,123.256378 95.746536,122.463684 95.746536C121.670990 95.746536,120.910843 96.061478,120.350372 96.621964C119.789886 97.182434,119.474945 97.942581,119.474945 98.735275C119.474945 99.527969,119.789886 100.288116,120.350372 100.848587C120.910843 101.409073,121.670990 101.724014,122.463684 101.724014C123.256378 101.724014,124.016525 101.409073,124.576996 100.848587C125.137482 100.288116,125.452423 99.527969,125.452423 98.735275Z" style="fill: rgb(100.000000%,100.000000%,100.000000%);stroke: none;"></path>
  <path d="M120.277084 72.885406C120.277084 72.092712,119.962143 71.332565,119.401657 70.772095C118.841187 70.211609,118.081039 69.896667,117.288345 69.896667C116.495651 69.896667,115.735504 70.211609,115.175034 70.772095C114.614548 71.332565,114.299606 72.092712,114.299606 72.885406C114.299606 73.678101,114.614548 74.438248,115.175034 74.998718C115.735504 75.559204,116.495651 75.874146,117.288345 75.874146C118.081039 75.874146,118.841187 75.559204,119.401657 74.998718C119.962143 74.438248,120.277084 73.678101,120.277084 72.885406Z" style="fill: rgb(100.000000%,100.000000%,100.000000%);stroke: none;"></path>
  <path d="M123.228287 84.613586C123.228287 83.820892,122.913345 83.060745,122.352859 82.500275C121.792389 81.939789,121.032242 81.624847,120.239548 81.624847C119.446854 81.624847,118.686707 81.939789,118.126236 82.500275C117.565750 83.060745,117.250809 83.820892,117.250809 84.613586C117.250809 85.406281,117.565750 86.166428,118.126236 86.726898C118.686707 87.287384,119.446854 87.602325,120.239548 87.602325C121.032242 87.602325,121.792389 87.287384,122.352859 86.726898C122.913345 86.166428,123.228287 85.406281,123.228287 84.613586Z" style="fill: rgb(100.000000%,100.000000%,100.000000%);stroke: none;"></path>
  <path d="M114.864258 46.589569C114.864258 45.796875,114.549316 45.036728,113.988831 44.476257C113.428360 43.915771,112.668213 43.600830,111.875519 43.600830C111.082825 43.600830,110.322678 43.915771,109.762207 44.476257C109.201721 45.036728,108.886780 45.796875,108.886780 46.589569C108.886780 47.382263,109.201721 48.142410,109.762207 48.702881C110.322678 49.263367,111.082825 49.578308,111.875519 49.578308C112.668213 49.578308,113.428360 49.263367,113.988831 48.702881C114.549316 48.142410,114.864258 47.382263,114.864258 46.589569Z" style="fill: rgb(100.000000%,100.000000%,100.000000%);stroke: none;"></path>
  <path d="M117.905960 65.921600C117.905960 65.128906,117.591019 64.368759,117.030533 63.808289C116.470062 63.247803,115.709915 62.932861,114.917221 62.932861C114.124527 62.932861,113.364380 63.247803,112.803909 63.808289C112.243423 64.368759,111.928482 65.128906,111.928482 65.921600C111.928482 66.714294,112.243423 67.474442,112.803909 68.034912C113.364380 68.595398,114.124527 68.910339,114.917221 68.910339C115.709915 68.910339,116.470062 68.595398,117.030533 68.034912C117.591019 67.474442,117.905960 66.714294,117.905960 65.921600Z" style="fill: rgb(100.000000%,100.000000%,100.000000%);stroke: none;"></path>
  <path d="M100.457886 6.713150C100.457886 5.920456,100.142944 5.160309,99.582458 4.599838C99.021988 4.039352,98.261841 3.724411,97.469147 3.724411C96.676453 3.724411,95.916306 4.039352,95.355835 4.599838C94.795349 5.160309,94.480408 5.920456,94.480408 6.713150C94.480408 7.505844,94.795349 8.265991,95.355835 8.826462C95.916306 9.386948,96.676453 9.701889,97.469147 9.701889C98.261841 9.701889,99.021988 9.386948,99.582458 8.826462C100.142944 8.265991,100.457886 7.505844,100.457886 6.713150Z" style="fill: rgb(100.000000%,100.000000%,100.000000%);stroke: none;"></path>
  <path d="M116.297455 33.628265C116.297455 32.835571,115.982513 32.075424,115.422028 31.514954C114.861557 30.954468,114.101410 30.639526,113.308716 30.639526C112.516022 30.639526,111.755875 30.954468,111.195404 31.514954C110.634918 32.075424,110.319977 32.835571,110.319977 33.628265C110.319977 34.420959,110.634918 35.181107,111.195404 35.741577C111.755875 36.302063,112.516022 36.617004,113.308716 36.617004C114.101410 36.617004,114.861557 36.302063,115.422028 35.741577C115.982513 35.181107,116.297455 34.420959,116.297455 33.628265Z" style="fill: rgb(100.000000%,100.000000%,100.000000%);stroke: none;"></path>
  <path d="M44.814194 17.805542C44.814194 17.012848,44.499252 16.252701,43.938766 15.692230C43.378296 15.131744,42.618149 14.816803,41.825455 14.816803C41.032761 14.816803,40.272614 15.131744,39.712143 15.692230C39.151657 16.252701,38.836716 17.012848,38.836716 17.805542C38.836716 18.598236,39.151657 19.358383,39.712143 19.918854C40.272614 20.479340,41.032761 20.794281,41.825455 20.794281C42.618149 20.794281,43.378296 20.479340,43.938766 19.918854C44.499252 19.358383,44.814194 18.598236,44.814194 17.805542Z" style="fill: rgb(100.000000%,100.000000%,100.000000%);stroke: none;"></path>
  <path d="M79.130478 2.729050C79.130478 1.936356,78.815536 1.176208,78.255051 0.615738C77.694580 0.055252,76.934433 -0.259689,76.141739 -0.259689C75.349045 -0.259689,74.588898 0.055252,74.028427 0.615738C73.467941 1.176208,73.153000 1.936356,73.153000 2.729050C73.153000 3.521744,73.467941 4.281891,74.028427 4.842361C74.588898 5.402847,75.349045 5.717789,76.141739 5.717789C76.934433 5.717789,77.694580 5.402847,78.255051 4.842361C78.815536 4.281891,79.130478 3.521744,79.130478 2.729050Z" style="fill: rgb(100.000000%,100.000000%,100.000000%);stroke: none;"></path>
  <path d="M40.498932 65.801529C40.498932 65.008835,40.183990 64.248688,39.623505 63.688217C39.063034 63.127731,38.302887 62.812790,37.510193 62.812790C36.717499 62.812790,35.957352 63.127731,35.396881 63.688217C34.836395 64.248688,34.521454 65.008835,34.521454 65.801529C34.521454 66.594223,34.836395 67.354370,35.396881 67.914841C35.957352 68.475327,36.717499 68.790268,37.510193 68.790268C38.302887 68.790268,39.063034 68.475327,39.623505 67.914841C40.183990 67.354370,40.498932 66.594223,40.498932 65.801529Z" style="fill: rgb(100.000000%,100.000000%,100.000000%);stroke: none;"></path>
  <path d="M33.626312 34.031052C33.626312 33.238358,33.311371 32.478210,32.750885 31.917740C32.190414 31.357254,31.430267 31.042313,30.637573 31.042313C29.844879 31.042313,29.084732 31.357254,28.524261 31.917740C27.963776 32.478210,27.648834 33.238358,27.648834 34.031052C27.648834 34.823746,27.963776 35.583893,28.524261 36.144363C29.084732 36.704849,29.844879 37.019791,30.637573 37.019791C31.430267 37.019791,32.190414 36.704849,32.750885 36.144363C33.311371 35.583893,33.626312 34.823746,33.626312 34.031052Z" style="fill: rgb(100.000000%,100.000000%,100.000000%);stroke: none;"></path>
  <path d="M74.802643 87.819092C74.802643 87.026398,74.487701 86.266251,73.927216 85.705780C73.366745 85.145294,72.606598 84.830353,71.813904 84.830353C71.021210 84.830353,70.261063 85.145294,69.700592 85.705780C69.140106 86.266251,68.825165 87.026398,68.825165 87.819092C68.825165 88.611786,69.140106 89.371933,69.700592 89.932404C70.261063 90.492889,71.021210 90.807831,71.813904 90.807831C72.606598 90.807831,73.366745 90.492889,73.927216 89.932404C74.487701 89.371933,74.802643 88.611786,74.802643 87.819092Z" style="fill: rgb(100.000000%,100.000000%,100.000000%);stroke: none;"></path>
  <path d="M53.933594 74.851105C53.933594 74.058411,53.618652 73.298264,53.058167 72.737793C52.497696 72.177307,51.737549 71.862366,50.944855 71.862366C50.152161 71.862366,49.392014 72.177307,48.831543 72.737793C48.271057 73.298264,47.956116 74.058411,47.956116 74.851105C47.956116 75.643799,48.271057 76.403946,48.831543 76.964417C49.392014 77.524902,50.152161 77.839844,50.944855 77.839844C51.737549 77.839844,52.497696 77.524902,53.058167 76.964417C53.618652 76.403946,53.933594 75.643799,53.933594 74.851105Z" style="fill: rgb(100.000000%,100.000000%,100.000000%);stroke: none;"></path>
  <path d="M95.764053 101.811386C95.764053 101.018692,95.449112 100.258545,94.888626 99.698074C94.328156 99.137589,93.568008 98.822647,92.775314 98.822647C91.982620 98.822647,91.222473 99.137589,90.662003 99.698074C90.101517 100.258545,89.786575 101.018692,89.786575 101.811386C89.786575 102.604080,90.101517 103.364227,90.662003 103.924698C91.222473 104.485184,91.982620 104.800125,92.775314 104.800125C93.568008 104.800125,94.328156 104.485184,94.888626 103.924698C95.449112 103.364227,95.764053 102.604080,95.764053 101.811386Z" style="fill: rgb(100.000000%,100.000000%,100.000000%);stroke: none;"></path>
  <path d="M82.809067 92.802383C82.809067 92.009689,82.494125 91.249542,81.933640 90.689072C81.373169 90.128586,80.613022 89.813644,79.820328 89.813644C79.027634 89.813644,78.267487 90.128586,77.707016 90.689072C77.146530 91.249542,76.831589 92.009689,76.831589 92.802383C76.831589 93.595078,77.146530 94.355225,77.707016 94.915695C78.267487 95.476181,79.027634 95.791122,79.820328 95.791122C80.613022 95.791122,81.373169 95.476181,81.933640 94.915695C82.494125 94.355225,82.809067 93.595078,82.809067 92.802383Z" style="fill: rgb(100.000000%,100.000000%,100.000000%);stroke: none;"></path>
  <path d="M113.183472 109.235870C113.183472 108.443176,112.868530 107.683029,112.308044 107.122559C111.747574 106.562073,110.987427 106.247131,110.194733 106.247131C109.402039 106.247131,108.641891 106.562073,108.081421 107.122559C107.520935 107.683029,107.205994 108.443176,107.205994 109.235870C107.205994 110.028564,107.520935 110.788712,108.081421 111.349182C108.641891 111.909668,109.402039 112.224609,110.194733 112.224609C110.987427 112.224609,111.747574 111.909668,112.308044 111.349182C112.868530 110.788712,113.183472 110.028564,113.183472 109.235870Z" style="fill: rgb(100.000000%,100.000000%,100.000000%);stroke: none;"></path>
  <path d="M100.949921 105.660995C100.949921 104.868301,100.634979 104.108154,100.074493 103.547684C99.514023 102.987198,98.753876 102.672256,97.961182 102.672256C97.168488 102.672256,96.408340 102.987198,95.847870 103.547684C95.287384 104.108154,94.972443 104.868301,94.972443 105.660995C94.972443 106.453690,95.287384 107.213837,95.847870 107.774307C96.408340 108.334793,97.168488 108.649734,97.961182 108.649734C98.753876 108.649734,99.514023 108.334793,100.074493 107.774307C100.634979 107.213837,100.949921 106.453690,100.949921 105.660995Z" style="fill: rgb(100.000000%,100.000000%,100.000000%);stroke: none;"></path>
  <path d="M133.292603 107.584564C133.292603 106.791870,132.977661 106.031723,132.417175 105.471252C131.856705 104.910767,131.096558 104.595825,130.303864 104.595825C129.511169 104.595825,128.751022 104.910767,128.190552 105.471252C127.630066 106.031723,127.315125 106.791870,127.315125 107.584564C127.315125 108.377258,127.630066 109.137405,128.190552 109.697876C128.751022 110.258362,129.511169 110.573303,130.303864 110.573303C131.096558 110.573303,131.856705 110.258362,132.417175 109.697876C132.977661 109.137405,133.292603 108.377258,133.292603 107.584564Z" style="fill: rgb(100.000000%,100.000000%,100.000000%);stroke: none;"></path>
  <path d="M119.643188 108.781708C119.643188 107.989014,119.328247 107.228867,118.767761 106.668396C118.207291 106.107910,117.447144 105.792969,116.654449 105.792969C115.861755 105.792969,115.101608 106.107910,114.541138 106.668396C113.980652 107.228867,113.665710 107.989014,113.665710 108.781708C113.665710 109.574402,113.980652 110.334549,114.541138 110.895020C115.101608 111.455505,115.861755 111.770447,116.654449 111.770447C117.447144 111.770447,118.207291 111.455505,118.767761 110.895020C119.328247 110.334549,119.643188 109.574402,119.643188 108.781708Z" style="fill: rgb(100.000000%,100.000000%,100.000000%);stroke: none;"></path>
  <path d="M161.047546 103.447632C161.047546 102.654938,160.732605 101.894791,160.172119 101.334320C159.611649 100.773834,158.851501 100.458893,158.058807 100.458893C157.266113 100.458893,156.505966 100.773834,155.945496 101.334320C155.385010 101.894791,155.070068 102.654938,155.070068 103.447632C155.070068 104.240326,155.385010 105.000473,155.945496 105.560944C156.505966 106.121429,157.266113 106.436371,158.058807 106.436371C158.851501 106.436371,159.611649 106.121429,160.172119 105.560944C160.732605 105.000473,161.047546 104.240326,161.047546 103.447632Z" style="fill: rgb(100.000000%,100.000000%,100.000000%);stroke: none;"></path>
  <path d="M140.588776 106.824402C140.588776 106.031708,140.273834 105.271561,139.713348 104.711090C139.152878 104.150604,138.392731 103.835663,137.600037 103.835663C136.807343 103.835663,136.047195 104.150604,135.486725 104.711090C134.926239 105.271561,134.611298 106.031708,134.611298 106.824402C134.611298 107.617096,134.926239 108.377243,135.486725 108.937714C136.047195 109.498199,136.807343 109.813141,137.600037 109.813141C138.392731 109.813141,139.152878 109.498199,139.713348 108.937714C140.273834 108.377243,140.588776 107.617096,140.588776 106.824402Z" style="fill: rgb(100.000000%,100.000000%,100.000000%);stroke: none;"></path>
  <path d="M190.829453 71.084854C190.829453 70.292160,190.514511 69.532013,189.954025 68.971542C189.393555 68.411057,188.633408 68.096115,187.840714 68.096115C187.048019 68.096115,186.287872 68.411057,185.727402 68.971542C185.166916 69.532013,184.851974 70.292160,184.851974 71.084854C184.851974 71.877548,185.166916 72.637695,185.727402 73.198166C186.287872 73.758652,187.048019 74.073593,187.840714 74.073593C188.633408 74.073593,189.393555 73.758652,189.954025 73.198166C190.514511 72.637695,190.829453 71.877548,190.829453 71.084854Z" style="fill: rgb(100.000000%,100.000000%,100.000000%);stroke: none;"></path>
  <path d="M174.669678 99.166336C174.669678 98.373642,174.354736 97.613495,173.794250 97.053024C173.233780 96.492538,172.473633 96.177597,171.680939 96.177597C170.888245 96.177597,170.128098 96.492538,169.567627 97.053024C169.007141 97.613495,168.692200 98.373642,168.692200 99.166336C168.692200 99.959030,169.007141 100.719177,169.567627 101.279648C170.128098 101.840134,170.888245 102.155075,171.680939 102.155075C172.473633 102.155075,173.233780 101.840134,173.794250 101.279648C174.354736 100.719177,174.669678 99.959030,174.669678 99.166336Z" style="fill: rgb(100.000000%,100.000000%,100.000000%);stroke: none;"></path>
  <path d="M150.846100 21.826736C150.846100 21.034042,150.531158 20.273895,149.970673 19.713425C149.410202 19.152939,148.650055 18.837997,147.857361 18.837997C147.064667 18.837997,146.304520 19.152939,145.744049 19.713425C145.183563 20.273895,144.868622 21.034042,144.868622 21.826736C144.868622 22.619431,145.183563 23.379578,145.744049 23.940048C146.304520 24.500534,147.064667 24.815475,147.857361 24.815475C148.650055 24.815475,149.410202 24.500534,149.970673 23.940048C150.531158 23.379578,150.846100 22.619431,150.846100 21.826736Z" style="fill: rgb(100.000000%,100.000000%,100.000000%);stroke: none;"></path>
  <path d="M181.350739 51.226135C181.350739 50.433441,181.035797 49.673294,180.475311 49.112823C179.914841 48.552338,179.154694 48.237396,178.362000 48.237396C177.569305 48.237396,176.809158 48.552338,176.248688 49.112823C175.688202 49.673294,175.373260 50.433441,175.373260 51.226135C175.373260 52.018829,175.688202 52.778976,176.248688 53.339447C176.809158 53.899933,177.569305 54.214874,178.362000 54.214874C179.154694 54.214874,179.914841 53.899933,180.475311 53.339447C181.035797 52.778976,181.350739 52.018829,181.350739 51.226135Z" style="fill: rgb(100.000000%,100.000000%,100.000000%);stroke: none;"></path>
  <path d="M98.620789 29.543884C98.620789 28.751190,98.305847 27.991043,97.745361 27.430573C97.184891 26.870087,96.424744 26.555145,95.632050 26.555145C94.839355 26.555145,94.079208 26.870087,93.518738 27.430573C92.958252 27.991043,92.643311 28.751190,92.643311 29.543884C92.643311 30.336578,92.958252 31.096725,93.518738 31.657196C94.079208 32.217682,94.839355 32.532623,95.632050 32.532623C96.424744 32.532623,97.184891 32.217682,97.745361 31.657196C98.305847 31.096725,98.620789 30.336578,98.620789 29.543884Z" style="fill: rgb(100.000000%,100.000000%,100.000000%);stroke: none;"></path>
  <path d="M128.520447 12.425034C128.520447 11.632339,128.205505 10.872192,127.645020 10.311722C127.084549 9.751236,126.324402 9.436295,125.531708 9.436295C124.739014 9.436295,123.978867 9.751236,123.418396 10.311722C122.857910 10.872192,122.542969 11.632339,122.542969 12.425034C122.542969 13.217728,122.857910 13.977875,123.418396 14.538345C123.978867 15.098831,124.739014 15.413773,125.531708 15.413773C126.324402 15.413773,127.084549 15.098831,127.645020 14.538345C128.205505 13.977875,128.520447 13.217728,128.520447 12.425034Z" style="fill: rgb(100.000000%,100.000000%,100.000000%);stroke: none;"></path>
  <path d="M66.825653 54.071228C66.825653 53.278534,66.510712 52.518387,65.950226 51.957916C65.389755 51.397430,64.629608 51.082489,63.836914 51.082489C63.044220 51.082489,62.284073 51.397430,61.723602 51.957916C61.163116 52.518387,60.848175 53.278534,60.848175 54.071228C60.848175 54.863922,61.163116 55.624069,61.723602 56.184540C62.284073 56.745026,63.044220 57.059967,63.836914 57.059967C64.629608 57.059967,65.389755 56.745026,65.950226 56.184540C66.510712 55.624069,66.825653 54.863922,66.825653 54.071228Z" style="fill: rgb(100.000000%,100.000000%,100.000000%);stroke: none;"></path>
  <path d="M92.537231 43.080429C92.537231 42.287735,92.222290 41.527588,91.661804 40.967117C91.101334 40.406631,90.341187 40.091690,89.548492 40.091690C88.755798 40.091690,87.995651 40.406631,87.435181 40.967117C86.874695 41.527588,86.559753 42.287735,86.559753 43.080429C86.559753 43.873123,86.874695 44.633270,87.435181 45.193741C87.995651 45.754227,88.755798 46.069168,89.548492 46.069168C90.341187 46.069168,91.101334 45.754227,91.661804 45.193741C92.222290 44.633270,92.537231 43.873123,92.537231 43.080429Z" style="fill: rgb(100.000000%,100.000000%,100.000000%);stroke: none;"></path>
  <path d="M16.812500 56.464447C16.812500 55.671753,16.497559 54.911606,15.937073 54.351135C15.376602 53.790649,14.616455 53.475708,13.823761 53.475708C13.031067 53.475708,12.270920 53.790649,11.710449 54.351135C11.149963 54.911606,10.835022 55.671753,10.835022 56.464447C10.835022 57.257141,11.149963 58.017288,11.710449 58.577759C12.270920 59.138245,13.031067 59.453186,13.823761 59.453186C14.616455 59.453186,15.376602 59.138245,15.937073 58.577759C16.497559 58.017288,16.812500 57.257141,16.812500 56.464447Z" style="fill: rgb(100.000000%,100.000000%,100.000000%);stroke: none;"></path>
  <path d="M51.422821 47.339203C51.422821 46.546509,51.107880 45.786362,50.547394 45.225891C49.986923 44.665405,49.226776 44.350464,48.434082 44.350464C47.641388 44.350464,46.881241 44.665405,46.320770 45.225891C45.760284 45.786362,45.445343 46.546509,45.445343 47.339203C45.445343 48.131897,45.760284 48.892044,46.320770 49.452515C46.881241 50.013000,47.641388 50.327942,48.434082 50.327942C49.226776 50.327942,49.986923 50.013000,50.547394 49.452515C51.107880 48.892044,51.422821 48.131897,51.422821 47.339203Z" style="fill: rgb(100.000000%,100.000000%,100.000000%);stroke: none;"></path>
  <path d="M5.505676 120.494461C5.505676 119.701767,5.190735 118.941620,4.630249 118.381149C4.069778 117.820663,3.309631 117.505722,2.516937 117.505722C1.724243 117.505722,0.964096 117.820663,0.403625 118.381149C-0.156860 118.941620,-0.471802 119.701767,-0.471802 120.494461C-0.471802 121.287155,-0.156860 122.047302,0.403625 122.607773C0.964096 123.168259,1.724243 123.483200,2.516937 123.483200C3.309631 123.483200,4.069778 123.168259,4.630249 122.607773C5.190735 122.047302,5.505676 121.287155,5.505676 120.494461Z" style="fill: rgb(100.000000%,100.000000%,100.000000%);stroke: none;"></path>
  <path d="M7.131866 78.437759C7.131866 77.645065,6.816925 76.884918,6.256439 76.324448C5.695969 75.763962,4.935822 75.449020,4.143127 75.449020C3.350433 75.449020,2.590286 75.763962,2.029816 76.324448C1.469330 76.884918,1.154388 77.645065,1.154388 78.437759C1.154388 79.230453,1.469330 79.990601,2.029816 80.551071C2.590286 81.111557,3.350433 81.426498,4.143127 81.426498C4.935822 81.426498,5.695969 81.111557,6.256439 80.551071C6.816925 79.990601,7.131866 79.230453,7.131866 78.437759Z" style="fill: rgb(100.000000%,100.000000%,100.000000%);stroke: none;"></path>
  <path d="M39.551483 155.802048C39.551483 155.009354,39.236542 154.249207,38.676056 153.688736C38.115585 153.128250,37.355438 152.813309,36.562744 152.813309C35.770050 152.813309,35.009903 153.128250,34.449432 153.688736C33.888947 154.249207,33.574005 155.009354,33.574005 155.802048C33.574005 156.594742,33.888947 157.354889,34.449432 157.915359C35.009903 158.475845,35.770050 158.790787,36.562744 158.790787C37.355438 158.790787,38.115585 158.475845,38.676056 157.915359C39.236542 157.354889,39.551483 156.594742,39.551483 155.802048Z" style="fill: rgb(100.000000%,100.000000%,100.000000%);stroke: none;"></path>
  <path d="M11.651932 141.180420C11.651932 140.387726,11.336990 139.627579,10.776505 139.067108C10.216034 138.506622,9.455887 138.191681,8.663193 138.191681C7.870499 138.191681,7.110352 138.506622,6.549881 139.067108C5.989395 139.627579,5.674454 140.387726,5.674454 141.180420C5.674454 141.973114,5.989395 142.733261,6.549881 143.293732C7.110352 143.854218,7.870499 144.169159,8.663193 144.169159C9.455887 144.169159,10.216034 143.854218,10.776505 143.293732C11.336990 142.733261,11.651932 141.973114,11.651932 141.180420Z" style="fill: rgb(100.000000%,100.000000%,100.000000%);stroke: none;"></path>
  <path d="M64.836075 143.530853C64.836075 142.738159,64.521133 141.978012,63.960648 141.417542C63.400177 140.857056,62.640030 140.542114,61.847336 140.542114C61.054642 140.542114,60.294495 140.857056,59.734024 141.417542C59.173538 141.978012,58.858597 142.738159,58.858597 143.530853C58.858597 144.323547,59.173538 145.083694,59.734024 145.644165C60.294495 146.204651,61.054642 146.519592,61.847336 146.519592C62.640030 146.519592,63.400177 146.204651,63.960648 145.644165C64.521133 145.083694,64.836075 144.323547,64.836075 143.530853Z" style="fill: rgb(100.000000%,100.000000%,100.000000%);stroke: none;"></path>
  <path d="M52.474945 155.214478C52.474945 154.421783,52.160004 153.661636,51.599518 153.101166C51.039047 152.540680,50.278900 152.225739,49.486206 152.225739C48.693512 152.225739,47.933365 152.540680,47.372894 153.101166C46.812408 153.661636,46.497467 154.421783,46.497467 155.214478C46.497467 156.007172,46.812408 156.767319,47.372894 157.327789C47.933365 157.888275,48.693512 158.203217,49.486206 158.203217C50.278900 158.203217,51.039047 157.888275,51.599518 157.327789C52.160004 156.767319,52.474945 156.007172,52.474945 155.214478Z" style="fill: rgb(100.000000%,100.000000%,100.000000%);stroke: none;"></path>
  <path d="M72.420380 127.843979C72.420380 127.051285,72.105438 126.291138,71.544952 125.730667C70.984482 125.170181,70.224335 124.855240,69.431641 124.855240C68.638947 124.855240,67.878799 125.170181,67.318329 125.730667C66.757843 126.291138,66.442902 127.051285,66.442902 127.843979C66.442902 128.636673,66.757843 129.396820,67.318329 129.957291C67.878799 130.517776,68.638947 130.832718,69.431641 130.832718C70.224335 130.832718,70.984482 130.517776,71.544952 129.957291C72.105438 129.396820,72.420380 128.636673,72.420380 127.843979Z" style="fill: rgb(100.000000%,100.000000%,100.000000%);stroke: none;"></path>
  <path d="M67.195969 138.732285C67.195969 137.939590,66.881027 137.179443,66.320541 136.618973C65.760071 136.058487,64.999924 135.743546,64.207230 135.743546C63.414536 135.743546,62.654388 136.058487,62.093918 136.618973C61.533432 137.179443,61.218491 137.939590,61.218491 138.732285C61.218491 139.524979,61.533432 140.285126,62.093918 140.845596C62.654388 141.406082,63.414536 141.721024,64.207230 141.721024C64.999924 141.721024,65.760071 141.406082,66.320541 140.845596C66.881027 140.285126,67.195969 139.524979,67.195969 138.732285Z" style="fill: rgb(100.000000%,100.000000%,100.000000%);stroke: none;"></path>
  <path d="M82.336945 109.686920C82.336945 108.894226,82.022003 108.134079,81.461517 107.573608C80.901047 107.013123,80.140900 106.698181,79.348206 106.698181C78.555511 106.698181,77.795364 107.013123,77.234894 107.573608C76.674408 108.134079,76.359467 108.894226,76.359467 109.686920C76.359467 110.479614,76.674408 111.239761,77.234894 111.800232C77.795364 112.360718,78.555511 112.675659,79.348206 112.675659C80.140900 112.675659,80.901047 112.360718,81.461517 111.800232C82.022003 111.239761,82.336945 110.479614,82.336945 109.686920Z" style="fill: rgb(100.000000%,100.000000%,100.000000%);stroke: none;"></path>
  <path d="M75.321640 121.666077C75.321640 120.873383,75.006699 120.113235,74.446213 119.552765C73.885742 118.992279,73.125595 118.677338,72.332901 118.677338C71.540207 118.677338,70.780060 118.992279,70.219589 119.552765C69.659103 120.113235,69.344162 120.873383,69.344162 121.666077C69.344162 122.458771,69.659103 123.218918,70.219589 123.779388C70.780060 124.339874,71.540207 124.654816,72.332901 124.654816C73.125595 124.654816,73.885742 124.339874,74.446213 123.779388C75.006699 123.218918,75.321640 122.458771,75.321640 121.666077Z" style="fill: rgb(100.000000%,100.000000%,100.000000%);stroke: none;"></path>
  <path d="M94.180206 93.059433C94.180206 92.266739,93.865265 91.506592,93.304779 90.946121C92.744308 90.385635,91.984161 90.070694,91.191467 90.070694C90.398773 90.070694,89.638626 90.385635,89.078156 90.946121C88.517670 91.506592,88.202728 92.266739,88.202728 93.059433C88.202728 93.852127,88.517670 94.612274,89.078156 95.172745C89.638626 95.733231,90.398773 96.048172,91.191467 96.048172C91.984161 96.048172,92.744308 95.733231,93.304779 95.172745C93.865265 94.612274,94.180206 93.852127,94.180206 93.059433Z" style="fill: rgb(100.000000%,100.000000%,100.000000%);stroke: none;"></path>
  <path d="M86.466919 103.947769C86.466919 103.155075,86.151978 102.394928,85.591492 101.834457C85.031021 101.273972,84.270874 100.959030,83.478180 100.959030C82.685486 100.959030,81.925339 101.273972,81.364868 101.834457C80.804382 102.394928,80.489441 103.155075,80.489441 103.947769C80.489441 104.740463,80.804382 105.500610,81.364868 106.061081C81.925339 106.621567,82.685486 106.936508,83.478180 106.936508C84.270874 106.936508,85.031021 106.621567,85.591492 106.061081C86.151978 105.500610,86.466919 104.740463,86.466919 103.947769Z" style="fill: rgb(100.000000%,100.000000%,100.000000%);stroke: none;"></path>
  <path d="M108.931488 81.282211C108.931488 80.489517,108.616547 79.729370,108.056061 79.168900C107.495590 78.608414,106.735443 78.293472,105.942749 78.293472C105.150055 78.293472,104.389908 78.608414,103.829437 79.168900C103.268951 79.729370,102.954010 80.489517,102.954010 81.282211C102.954010 82.074905,103.268951 82.835052,103.829437 83.395523C104.389908 83.956009,105.150055 84.270950,105.942749 84.270950C106.735443 84.270950,107.495590 83.956009,108.056061 83.395523C108.616547 82.835052,108.931488 82.074905,108.931488 81.282211Z" style="fill: rgb(100.000000%,100.000000%,100.000000%);stroke: none;"></path>
  <path d="M97.889969 87.810196C97.889969 87.017502,97.575027 86.257355,97.014542 85.696884C96.454071 85.136398,95.693924 84.821457,94.901230 84.821457C94.108536 84.821457,93.348389 85.136398,92.787918 85.696884C92.227432 86.257355,91.912491 87.017502,91.912491 87.810196C91.912491 88.602890,92.227432 89.363037,92.787918 89.923508C93.348389 90.483994,94.108536 90.798935,94.901230 90.798935C95.693924 90.798935,96.454071 90.483994,97.014542 89.923508C97.575027 89.363037,97.889969 88.602890,97.889969 87.810196Z" style="fill: rgb(100.000000%,100.000000%,100.000000%);stroke: none;"></path>
  <path d="M129.282852 79.264297C129.282852 78.471603,128.967911 77.711456,128.407425 77.150986C127.846954 76.590500,127.086807 76.275558,126.294113 76.275558C125.501419 76.275558,124.741272 76.590500,124.180801 77.150986C123.620316 77.711456,123.305374 78.471603,123.305374 79.264297C123.305374 80.056992,123.620316 80.817139,124.180801 81.377609C124.741272 81.938095,125.501419 82.253036,126.294113 82.253036C127.086807 82.253036,127.846954 81.938095,128.407425 81.377609C128.967911 80.817139,129.282852 80.056992,129.282852 79.264297Z" style="fill: rgb(100.000000%,100.000000%,100.000000%);stroke: none;"></path>
  <path d="M115.579300 80.633408C115.579300 79.840714,115.264359 79.080566,114.703873 78.520096C114.143402 77.959610,113.383255 77.644669,112.590561 77.644669C111.797867 77.644669,111.037720 77.959610,110.477249 78.520096C109.916763 79.080566,109.601822 79.840714,109.601822 80.633408C109.601822 81.426102,109.916763 82.186249,110.477249 82.746719C111.037720 83.307205,111.797867 83.622147,112.590561 83.622147C113.383255 83.622147,114.143402 83.307205,114.703873 82.746719C115.264359 82.186249,115.579300 81.426102,115.579300 80.633408Z" style="fill: rgb(100.000000%,100.000000%,100.000000%);stroke: none;"></path>
  <path d="M157.199921 77.473145C157.199921 76.680450,156.884979 75.920303,156.324493 75.359833C155.764023 74.799347,155.003876 74.484406,154.211182 74.484406C153.418488 74.484406,152.658340 74.799347,152.097870 75.359833C151.537384 75.920303,151.222443 76.680450,151.222443 77.473145C151.222443 78.265839,151.537384 79.025986,152.097870 79.586456C152.658340 80.146942,153.418488 80.461884,154.211182 80.461884C155.003876 80.461884,155.764023 80.146942,156.324493 79.586456C156.884979 79.025986,157.199921 78.265839,157.199921 77.473145Z" style="fill: rgb(100.000000%,100.000000%,100.000000%);stroke: none;"></path>
  <path d="M136.498520 78.474548C136.498520 77.681854,136.183578 76.921707,135.623093 76.361237C135.062622 75.800751,134.302475 75.485809,133.509781 75.485809C132.717087 75.485809,131.956940 75.800751,131.396469 76.361237C130.835983 76.921707,130.521042 77.681854,130.521042 78.474548C130.521042 79.267242,130.835983 80.027390,131.396469 80.587860C131.956940 81.148346,132.717087 81.463287,133.509781 81.463287C134.302475 81.463287,135.062622 81.148346,135.623093 80.587860C136.183578 80.027390,136.498520 79.267242,136.498520 78.474548Z" style="fill: rgb(100.000000%,100.000000%,100.000000%);stroke: none;"></path>
  <path d="M196.445267 101.288406C196.445267 100.495712,196.130325 99.735565,195.569839 99.175095C195.009369 98.614609,194.249222 98.299667,193.456528 98.299667C192.663834 98.299667,191.903687 98.614609,191.343216 99.175095C190.782730 99.735565,190.467789 100.495712,190.467789 101.288406C190.467789 102.081100,190.782730 102.841248,191.343216 103.401718C191.903687 103.962204,192.663834 104.277145,193.456528 104.277145C194.249222 104.277145,195.009369 103.962204,195.569839 103.401718C196.130325 102.841248,196.445267 102.081100,196.445267 101.288406Z" style="fill: rgb(100.000000%,100.000000%,100.000000%);stroke: none;"></path>
  <path d="M171.324875 78.655121C171.324875 77.862427,171.009933 77.102280,170.449448 76.541809C169.888977 75.981323,169.128830 75.666382,168.336136 75.666382C167.543442 75.666382,166.783295 75.981323,166.222824 76.541809C165.662338 77.102280,165.347397 77.862427,165.347397 78.655121C165.347397 79.447815,165.662338 80.207962,166.222824 80.768433C166.783295 81.328918,167.543442 81.643860,168.336136 81.643860C169.128830 81.643860,169.888977 81.328918,170.449448 80.768433C171.009933 80.207962,171.324875 79.447815,171.324875 78.655121Z" style="fill: rgb(100.000000%,100.000000%,100.000000%);stroke: none;"></path>
  <path d="M172.402603 164.516739C172.402603 163.724045,172.087662 162.963898,171.527176 162.403427C170.966705 161.842941,170.206558 161.528000,169.413864 161.528000C168.621170 161.528000,167.861023 161.842941,167.300552 162.403427C166.740067 162.963898,166.425125 163.724045,166.425125 164.516739C166.425125 165.309433,166.740067 166.069580,167.300552 166.630051C167.861023 167.190536,168.621170 167.505478,169.413864 167.505478C170.206558 167.505478,170.966705 167.190536,171.527176 166.630051C172.087662 166.069580,172.402603 165.309433,172.402603 164.516739Z" style="fill: rgb(100.000000%,100.000000%,100.000000%);stroke: none;"></path>
  <path d="M195.388672 124.518616C195.388672 123.725922,195.073730 122.965775,194.513245 122.405304C193.952774 121.844818,193.192627 121.529877,192.399933 121.529877C191.607239 121.529877,190.847092 121.844818,190.286621 122.405304C189.726135 122.965775,189.411194 123.725922,189.411194 124.518616C189.411194 125.311310,189.726135 126.071457,190.286621 126.631927C190.847092 127.192413,191.607239 127.507355,192.399933 127.507355C193.192627 127.507355,193.952774 127.192413,194.513245 126.631927C195.073730 126.071457,195.388672 125.311310,195.388672 124.518616Z" style="fill: rgb(100.000000%,100.000000%,100.000000%);stroke: none;"></path>
  <path d="M112.385223 165.158127C112.385223 164.365433,112.070282 163.605286,111.509796 163.044815C110.949326 162.484329,110.189178 162.169388,109.396484 162.169388C108.603790 162.169388,107.843643 162.484329,107.283173 163.044815C106.722687 163.605286,106.407745 164.365433,106.407745 165.158127C106.407745 165.950821,106.722687 166.710968,107.283173 167.271439C107.843643 167.831924,108.603790 168.146866,109.396484 168.146866C110.189178 168.146866,110.949326 167.831924,111.509796 167.271439C112.070282 166.710968,112.385223 165.950821,112.385223 165.158127Z" style="fill: rgb(100.000000%,100.000000%,100.000000%);stroke: none;"></path>
  <path d="M148.599930 178.047943C148.599930 177.255249,148.284988 176.495102,147.724503 175.934631C147.164032 175.374146,146.403885 175.059204,145.611191 175.059204C144.818497 175.059204,144.058350 175.374146,143.497879 175.934631C142.937393 176.495102,142.622452 177.255249,142.622452 178.047943C142.622452 178.840637,142.937393 179.600784,143.497879 180.161255C144.058350 180.721741,144.818497 181.036682,145.611191 181.036682C146.403885 181.036682,147.164032 180.721741,147.724503 180.161255C148.284988 179.600784,148.599930 178.840637,148.599930 178.047943Z" style="fill: rgb(100.000000%,100.000000%,100.000000%);stroke: none;"></path>
  <path d="M84.440033 140.575241C84.440033 139.782547,84.125092 139.022400,83.564606 138.461929C83.004135 137.901443,82.243988 137.586502,81.451294 137.586502C80.658600 137.586502,79.898453 137.901443,79.337982 138.461929C78.777496 139.022400,78.462555 139.782547,78.462555 140.575241C78.462555 141.367935,78.777496 142.128082,79.337982 142.688553C79.898453 143.249039,80.658600 143.563980,81.451294 143.563980C82.243988 143.563980,83.004135 143.249039,83.564606 142.688553C84.125092 142.128082,84.440033 141.367935,84.440033 140.575241Z" style="fill: rgb(100.000000%,100.000000%,100.000000%);stroke: none;"></path>
  <path d="M103.339844 152.824890C103.339844 152.032196,103.024902 151.272049,102.464417 150.711578C101.903946 150.151093,101.143799 149.836151,100.351105 149.836151C99.558411 149.836151,98.798264 150.151093,98.237793 150.711578C97.677307 151.272049,97.362366 152.032196,97.362366 152.824890C97.362366 153.617584,97.677307 154.377731,98.237793 154.938202C98.798264 155.498688,99.558411 155.813629,100.351105 155.813629C101.143799 155.813629,101.903946 155.498688,102.464417 154.938202C103.024902 154.377731,103.339844 153.617584,103.339844 152.824890Z" style="fill: rgb(100.000000%,100.000000%,100.000000%);stroke: none;"></path>
  <path d="M63.620407 131.013245C63.620407 130.220551,63.305466 129.460403,62.744980 128.899933C62.184509 128.339447,61.424362 128.024506,60.631668 128.024506C59.838974 128.024506,59.078827 128.339447,58.518356 128.899933C57.957870 129.460403,57.642929 130.220551,57.642929 131.013245C57.642929 131.805939,57.957870 132.566086,58.518356 133.126556C59.078827 133.687042,59.838974 134.001984,60.631668 134.001984C61.424362 134.001984,62.184509 133.687042,62.744980 133.126556C63.305466 132.566086,63.620407 131.805939,63.620407 131.013245Z" style="fill: rgb(100.000000%,100.000000%,100.000000%);stroke: none;"></path>
  <path d="M76.741440 137.690582C76.741440 136.897888,76.426498 136.137741,75.866013 135.577271C75.305542 135.016785,74.545395 134.701843,73.752701 134.701843C72.960007 134.701843,72.199860 135.016785,71.639389 135.577271C71.078903 136.137741,70.763962 136.897888,70.763962 137.690582C70.763962 138.483276,71.078903 139.243423,71.639389 139.803894C72.199860 140.364380,72.960007 140.679321,73.752701 140.679321C74.545395 140.679321,75.305542 140.364380,75.866013 139.803894C76.426498 139.243423,76.741440 138.483276,76.741440 137.690582Z" style="fill: rgb(100.000000%,100.000000%,100.000000%);stroke: none;"></path>
  <path d="M38.664764 126.849716C38.664764 126.057022,38.349823 125.296875,37.789337 124.736404C37.228867 124.175919,36.468719 123.860977,35.676025 123.860977C34.883331 123.860977,34.123184 124.175919,33.562714 124.736404C33.002228 125.296875,32.687286 126.057022,32.687286 126.849716C32.687286 127.642410,33.002228 128.402557,33.562714 128.963028C34.123184 129.523514,34.883331 129.838455,35.676025 129.838455C36.468719 129.838455,37.228867 129.523514,37.789337 128.963028C38.349823 128.402557,38.664764 127.642410,38.664764 126.849716Z" style="fill: rgb(100.000000%,100.000000%,100.000000%);stroke: none;"></path>
  <path d="M57.822525 127.453964C57.822525 126.661270,57.507584 125.901123,56.947098 125.340652C56.386627 124.780167,55.626480 124.465225,54.833786 124.465225C54.041092 124.465225,53.280945 124.780167,52.720474 125.340652C52.159988 125.901123,51.845047 126.661270,51.845047 127.453964C51.845047 128.246658,52.159988 129.006805,52.720474 129.567276C53.280945 130.127762,54.041092 130.442703,54.833786 130.442703C55.626480 130.442703,56.386627 130.127762,56.947098 129.567276C57.507584 129.006805,57.822525 128.246658,57.822525 127.453964Z" style="fill: rgb(100.000000%,100.000000%,100.000000%);stroke: none;"></path>
  <path d="M29.612228 169.581085C29.612228 168.788391,29.297287 168.028244,28.736801 167.467773C28.176331 166.907288,27.416183 166.592346,26.623489 166.592346C25.830795 166.592346,25.070648 166.907288,24.510178 167.467773C23.949692 168.028244,23.634750 168.788391,23.634750 169.581085C23.634750 170.373779,23.949692 171.133926,24.510178 171.694397C25.070648 172.254883,25.830795 172.569824,26.623489 172.569824C27.416183 172.569824,28.176331 172.254883,28.736801 171.694397C29.297287 171.133926,29.612228 170.373779,29.612228 169.581085Z" style="fill: rgb(100.000000%,100.000000%,100.000000%);stroke: none;"></path>
  <path d="M28.618759 137.531860C28.618759 136.739166,28.303818 135.979019,27.743332 135.418549C27.182861 134.858063,26.422714 134.543121,25.630020 134.543121C24.837326 134.543121,24.077179 134.858063,23.516708 135.418549C22.956223 135.979019,22.641281 136.739166,22.641281 137.531860C22.641281 138.324554,22.956223 139.084702,23.516708 139.645172C24.077179 140.205658,24.837326 140.520599,25.630020 140.520599C26.422714 140.520599,27.182861 140.205658,27.743332 139.645172C28.303818 139.084702,28.618759 138.324554,28.618759 137.531860Z" style="fill: rgb(100.000000%,100.000000%,100.000000%);stroke: none;"></path>
  <path d="M63.503571 189.125534C84.754990 204.162415,114.491257 194.603485,123.000000 170.000000C127.383652 157.324432,124.048874 143.737946,123.272369 130.415741C122.841782 123.028214,123.223373 115.621063,123.000000 108.225159C122.856537 103.474899,122.463684 98.735275,121.811081 94.027847C121.155762 89.300735,120.239548 84.613586,119.074982 79.985550C117.288345 72.885406,114.917221 65.921600,113.778748 58.685806C111.875519 46.589569,113.308716 33.628265,107.055878 23.003250C97.469147 6.713150,76.141739 2.729050,58.230438 10.598190C41.825455 17.805542,30.637573 34.031052,34.321320 51.060135C37.510193 65.801529,50.944855 74.851105,63.806625 82.843384C71.813904 87.819092,79.820328 92.802383,87.560532 98.184982C92.775314 101.811386,97.961182 105.660995,104.069931 107.446091C110.194733 109.235870,116.654449 108.781708,123.000000 108.225159C130.303864 107.584564,137.600037 106.824402,144.834534 105.630325C158.058807 103.447632,171.680939 99.166336,178.311996 87.643295C187.840714 71.084854,178.362000 51.226135,163.860840 37.250381C147.857361 21.826736,125.531708 12.425034,107.055878 23.003250C95.632050 29.543884,89.548492 43.080429,77.373505 48.284805C63.836914 54.071228,48.434082 47.339203,34.321320 51.060135C13.823761 56.464447,4.143127 78.437759,3.291046 100.474365C2.516937 120.494461,8.663193 141.180420,26.025177 150.279510C36.562744 155.802048,49.486206 155.214478,58.018433 147.149902C61.847336 143.530853,64.207230 138.732285,66.482346 133.990677C69.431641 127.843979,72.332901 121.666077,75.778717 115.782089C79.348206 109.686920,83.478180 103.947769,87.560532 98.184982C91.191467 93.059433,94.901230 87.810196,100.320251 84.606354C105.942749 81.282211,112.590561 80.633408,119.074982 79.985550C126.294113 79.264297,133.509781 78.474548,140.756897 78.123978C154.211182 77.473145,168.336136 78.655121,178.311996 87.643295C193.456528 101.288406,192.399933 124.518616,181.818390 142.931595C169.413864 164.516739,145.611191 178.047943,123.000000 170.000000C109.396484 165.158127,100.351105 152.824890,88.301544 145.015137C81.451294 140.575241,73.752701 137.690582,66.482346 133.990677C60.631668 131.013245,54.833786 127.453964,48.249451 127.246292C35.676025 126.849716,25.630020 137.531860,26.025177 150.279510C26.623489 169.581085,47.709167 177.949875,63.503571 189.125534" style="stroke:rgb(0.000000%,0.000000%,0.000000%); stroke-width: 0.498138;stroke-linecap: round;stroke-linejoin: round;stroke-miterlimit: 10.000000;fill: none;"></path>
  <path d="M63.503571 189.125534C84.754990 204.162415,114.491257 194.603485,123.000000 170.000000C127.383652 157.324432,124.048874 143.737946,123.272369 130.415741C122.841782 123.028214,123.223373 115.621063,123.000000 108.225159" style="stroke:rgb(0.000000%,0.000000%,0.000000%); stroke-width: 1.494400;stroke-linecap: round;stroke-linejoin: round;stroke-miterlimit: 10.000000;fill: none;"></path>
  <path d="M26.025177 150.279510C26.623489 169.581085,47.709167 177.949875,63.503571 189.125534" style="stroke:rgb(0.000000%,0.000000%,0.000000%); stroke-width: 1.494400;stroke-linecap: round;stroke-linejoin: round;stroke-miterlimit: 10.000000;fill: none;"></path>
  <path d="M125.988739 170.000000C125.988739 169.207306,125.673798 168.447159,125.113312 167.886688C124.552841 167.326202,123.792694 167.011261,123.000000 167.011261C122.207306 167.011261,121.447159 167.326202,120.886688 167.886688C120.326202 168.447159,120.011261 169.207306,120.011261 170.000000C120.011261 170.792694,120.326202 171.552841,120.886688 172.113312C121.447159 172.673798,122.207306 172.988739,123.000000 172.988739C123.792694 172.988739,124.552841 172.673798,125.113312 172.113312C125.673798 171.552841,125.988739 170.792694,125.988739 170.000000Z" style="fill: rgb(100.000000%,100.000000%,100.000000%);stroke: none;"></path>
  <path d="M98.030304 194.427902C109.184387 190.842346,118.745636 182.301743,123.000000 170.000000C125.191833 163.662216,125.454056 157.096695,125.071243 150.450348" style="stroke:rgb(0.000000%,0.000000%,0.000000%); stroke-width: 1.494400;stroke-linecap: round;stroke-linejoin: round;stroke-miterlimit: 10.000000;fill: none;"></path>
  <path d="M122.063721 79.985550C122.063721 79.192856,121.748779 78.432709,121.188293 77.872238C120.627823 77.311752,119.867676 76.996811,119.074982 76.996811C118.282288 76.996811,117.522141 77.311752,116.961670 77.872238C116.401184 78.432709,116.086243 79.192856,116.086243 79.985550C116.086243 80.778244,116.401184 81.538391,116.961670 82.098862C117.522141 82.659348,118.282288 82.974289,119.074982 82.974289C119.867676 82.974289,120.627823 82.659348,121.188293 82.098862C121.748779 81.538391,122.063721 80.778244,122.063721 79.985550Z" style="fill: rgb(100.000000%,100.000000%,100.000000%);stroke: none;"></path>
  <path d="M120.633987 86.969528C120.177444 84.628357,119.657257 82.299561,119.074982 79.985550C118.181656 76.435471,117.142212 72.919479,116.183792 69.386536" style="stroke:rgb(0.000000%,0.000000%,0.000000%); stroke-width: 0.498138;stroke-linecap: round;stroke-linejoin: round;stroke-miterlimit: 10.000000;fill: none;"></path>
  <path d="M37.310059 51.060135C37.310059 50.267441,36.995117 49.507294,36.434631 48.946823C35.874161 48.386337,35.114014 48.071396,34.321320 48.071396C33.528625 48.071396,32.768478 48.386337,32.208008 48.946823C31.647522 49.507294,31.332581 50.267441,31.332581 51.060135C31.332581 51.852829,31.647522 52.612976,32.208008 53.173447C32.768478 53.733932,33.528625 54.048874,34.321320 54.048874C35.114014 54.048874,35.874161 53.733932,36.434631 53.173447C36.995117 52.612976,37.310059 51.852829,37.310059 51.060135Z" style="fill: rgb(100.000000%,100.000000%,100.000000%);stroke: none;"></path>
  <path d="M38.742584 27.146027C34.355469 34.231949,32.479446 42.545593,34.321320 51.060135C35.915756 58.430832,40.071640 64.378586,45.436646 69.482697" style="stroke:rgb(0.000000%,0.000000%,0.000000%); stroke-width: 0.498138;stroke-linecap: round;stroke-linejoin: round;stroke-miterlimit: 10.000000;fill: none;"></path>
  <path d="M125.988739 108.225159C125.988739 107.432465,125.673798 106.672318,125.113312 106.111847C124.552841 105.551361,123.792694 105.236420,123.000000 105.236420C122.207306 105.236420,121.447159 105.551361,120.886688 106.111847C120.326202 106.672318,120.011261 107.432465,120.011261 108.225159C120.011261 109.017853,120.326202 109.778000,120.886688 110.338470C121.447159 110.898956,122.207306 111.213898,123.000000 111.213898C123.792694 111.213898,124.552841 110.898956,125.113312 110.338470C125.673798 109.778000,125.988739 109.017853,125.988739 108.225159Z" style="fill: rgb(100.000000%,100.000000%,100.000000%);stroke: none;"></path>
  <path d="M113.452194 108.715500C116.625916 108.756104,119.827225 108.503433,123.000000 108.225159C126.651932 107.904861,130.301941 107.554672,133.943283 107.135284" style="stroke:rgb(0.000000%,0.000000%,0.000000%); stroke-width: 0.498138;stroke-linecap: round;stroke-linejoin: round;stroke-miterlimit: 10.000000;fill: none;"></path>
  <path d="M110.044617 23.003250C110.044617 22.210556,109.729675 21.450409,109.169189 20.889938C108.608719 20.329453,107.848572 20.014511,107.055878 20.014511C106.263184 20.014511,105.503036 20.329453,104.942566 20.889938C104.382080 21.450409,104.067139 22.210556,104.067139 23.003250C104.067139 23.795944,104.382080 24.556091,104.942566 25.116562C105.503036 25.677048,106.263184 25.991989,107.055878 25.991989C107.848572 25.991989,108.608719 25.677048,109.169189 25.116562C109.729675 24.556091,110.044617 23.795944,110.044617 23.003250Z" style="fill: rgb(100.000000%,100.000000%,100.000000%);stroke: none;"></path>
  <path d="M136.385483 20.376114C126.494156 17.420013,116.293793 17.714142,107.055878 23.003250C101.343964 26.273575,96.967117 31.292877,92.496368 36.145142" style="stroke:rgb(0.000000%,0.000000%,0.000000%); stroke-width: 0.498138;stroke-linecap: round;stroke-linejoin: round;stroke-miterlimit: 10.000000;fill: none;"></path>
  <path d="M29.013916 150.279510C29.013916 149.486816,28.698975 148.726669,28.138489 148.166199C27.578018 147.605713,26.817871 147.290771,26.025177 147.290771C25.232483 147.290771,24.472336 147.605713,23.911865 148.166199C23.351379 148.726669,23.036438 149.486816,23.036438 150.279510C23.036438 151.072205,23.351379 151.832352,23.911865 152.392822C24.472336 152.953308,25.232483 153.268250,26.025177 153.268250C26.817871 153.268250,27.578018 152.953308,28.138489 152.392822C28.698975 151.832352,29.013916 151.072205,29.013916 150.279510Z" style="fill: rgb(100.000000%,100.000000%,100.000000%);stroke: none;"></path>
  <path d="M7.857086 129.472321C11.467133 138.283707,17.344193 145.729965,26.025177 150.279510C31.293961 153.040787,37.159225 154.274521,42.773819 153.809860" style="stroke:rgb(0.000000%,0.000000%,0.000000%); stroke-width: 0.498138;stroke-linecap: round;stroke-linejoin: round;stroke-miterlimit: 10.000000;fill: none;"></path>
  <path d="M90.549271 98.184982C90.549271 97.392288,90.234329 96.632141,89.673843 96.071671C89.113373 95.511185,88.353226 95.196243,87.560532 95.196243C86.767838 95.196243,86.007690 95.511185,85.447220 96.071671C84.886734 96.632141,84.571793 97.392288,84.571793 98.184982C84.571793 98.977676,84.886734 99.737823,85.447220 100.298294C86.007690 100.858780,86.767838 101.173721,87.560532 101.173721C88.353226 101.173721,89.113373 100.858780,89.673843 100.298294C90.234329 99.737823,90.549271 98.977676,90.549271 98.184982Z" style="fill: rgb(100.000000%,100.000000%,100.000000%);stroke: none;"></path>
  <path d="M81.477310 106.858871C83.466278 103.941849,85.519363 101.066376,87.560532 98.184982C89.376007 95.622208,91.211182 93.028503,93.269867 90.675018" style="stroke:rgb(0.000000%,0.000000%,0.000000%); stroke-width: 0.498138;stroke-linecap: round;stroke-linejoin: round;stroke-miterlimit: 10.000000;fill: none;"></path>
  <path d="M181.300735 87.643295C181.300735 86.850601,180.985794 86.090454,180.425308 85.529984C179.864838 84.969498,179.104691 84.654556,178.311996 84.654556C177.519302 84.654556,176.759155 84.969498,176.198685 85.529984C175.638199 86.090454,175.323257 86.850601,175.323257 87.643295C175.323257 88.435989,175.638199 89.196136,176.198685 89.756607C176.759155 90.317093,177.519302 90.632034,178.311996 90.632034C179.104691 90.632034,179.864838 90.317093,180.425308 89.756607C180.985794 89.196136,181.300735 88.435989,181.300735 87.643295Z" style="fill: rgb(100.000000%,100.000000%,100.000000%);stroke: none;"></path>
  <path d="M160.838867 79.269012C167.298874 80.606674,173.324066 83.149216,178.311996 87.643295C185.884262 94.465851,189.406250 103.684692,189.712479 113.499512" style="stroke:rgb(0.000000%,0.000000%,0.000000%); stroke-width: 0.498138;stroke-linecap: round;stroke-linejoin: round;stroke-miterlimit: 10.000000;fill: none;"></path>
  <path d="M69.471085 133.990677C69.471085 133.197983,69.156143 132.437836,68.595657 131.877365C68.035187 131.316879,67.275040 131.001938,66.482346 131.001938C65.689651 131.001938,64.929504 131.316879,64.369034 131.877365C63.808548 132.437836,63.493607 133.197983,63.493607 133.990677C63.493607 134.783371,63.808548 135.543518,64.369034 136.103989C64.929504 136.664474,65.689651 136.979416,66.482346 136.979416C67.275040 136.979416,68.035187 136.664474,68.595657 136.103989C69.156143 135.543518,69.471085 134.783371,69.471085 133.990677Z" style="fill: rgb(100.000000%,100.000000%,100.000000%);stroke: none;"></path>
  <path d="M77.549469 139.225388C73.859756 137.486755,70.117523 135.840622,66.482346 133.990677C63.557007 132.501953,60.644867 130.867767,57.641006 129.579803" style="stroke:rgb(0.000000%,0.000000%,0.000000%); stroke-width: 0.498138;stroke-linecap: round;stroke-linejoin: round;stroke-miterlimit: 10.000000;fill: none;"></path>
  <path d="M123.272369 130.415741C122.927902 124.505692,123.103226 118.583099,123.072769 112.663742" style="stroke:rgb(0.000000%,0.000000%,0.000000%); stroke-width: 0.498138;stroke-linecap: round;stroke-linejoin: round;stroke-miterlimit: 10.000000;fill: none;"></path>
  <path d="M124.979736 117.285812C124.349182 115.742996,123.718460 114.200134,123.072769 112.663742C122.442917 114.206696,121.797913 115.743637,121.152832 117.280441Z" style="stroke:rgb(0.000000%,0.000000%,0.000000%); stroke-width: 0.498138;fill: rgb(0.000000%,0.000000%,0.000000%);"></path>
  <path d="M123.272369 130.415741C122.927902 124.505692,123.103226 118.583099,123.072769 112.663742" style="stroke:rgb(0.000000%,0.000000%,0.000000%); stroke-width: 0.498138;stroke-linecap: round;stroke-linejoin: round;stroke-miterlimit: 10.000000;fill: none;"></path>
  <path d="M124.222076 115.434921C123.842224 114.509796,123.460190 113.585602,123.072769 112.663742C122.694839 113.589539,122.311462 114.513184,121.925873 115.435928Z" style="stroke:rgb(0.000000%,0.000000%,0.000000%); stroke-width: 0.498138;fill: rgb(0.000000%,0.000000%,0.000000%);"></path>
  <path d="M121.811081 94.027847C121.286819 90.246140,120.595596 86.490005,119.743805 82.769257" style="stroke:rgb(0.000000%,0.000000%,0.000000%); stroke-width: 0.498138;stroke-linecap: round;stroke-linejoin: round;stroke-miterlimit: 10.000000;fill: none;"></path>
  <path d="M121.453644 85.234268C120.893066 84.406219,120.323074 83.584503,119.743805 82.769257C119.576920 83.755310,119.398926 84.739410,119.209778 85.721329Z" style="stroke:rgb(0.000000%,0.000000%,0.000000%); stroke-width: 0.498138;fill: rgb(0.000000%,0.000000%,0.000000%);"></path>
  <path d="M63.806625 82.843384C70.212479 86.823959,76.617783 90.809402,82.886658 95.000244" style="stroke:rgb(0.000000%,0.000000%,0.000000%); stroke-width: 0.498138;stroke-linecap: round;stroke-linejoin: round;stroke-miterlimit: 10.000000;fill: none;"></path>
  <path d="M79.942047 94.426514C80.924332 94.613861,81.905914 94.804932,82.886658 95.000244C82.331299 94.168640,81.772324 93.339447,81.210236 92.512360Z" style="stroke:rgb(0.000000%,0.000000%,0.000000%); stroke-width: 0.498138;fill: rgb(0.000000%,0.000000%,0.000000%);"></path>
  <path d="M104.069931 107.446091C108.969788 108.877914,114.083984 108.873611,119.182617 108.529663" style="stroke:rgb(0.000000%,0.000000%,0.000000%); stroke-width: 0.498138;stroke-linecap: round;stroke-linejoin: round;stroke-miterlimit: 10.000000;fill: none;"></path>
  <path d="M116.473984 109.819168C117.383423 109.406662,118.285797 108.974075,119.182617 108.529663C118.234222 108.209732,117.290283 107.877548,116.355515 107.526138Z" style="stroke:rgb(0.000000%,0.000000%,0.000000%); stroke-width: 0.498138;fill: rgb(0.000000%,0.000000%,0.000000%);"></path>
  <path d="M77.373505 48.284805C66.544189 52.913956,54.520477 49.531250,42.918411 49.898163" style="stroke:rgb(0.000000%,0.000000%,0.000000%); stroke-width: 0.498138;stroke-linecap: round;stroke-linejoin: round;stroke-miterlimit: 10.000000;fill: none;"></path>
  <path d="M45.682770 48.732574C44.750381 49.101028,43.827652 49.487396,42.918411 49.898163C43.851791 50.250641,44.777451 50.629929,45.697296 51.028717Z" style="stroke:rgb(0.000000%,0.000000%,0.000000%); stroke-width: 0.498138;fill: rgb(0.000000%,0.000000%,0.000000%);"></path>
  <path d="M58.018433 147.149902C61.081573 144.254654,63.204529 140.604507,65.096054 136.832550" style="stroke:rgb(0.000000%,0.000000%,0.000000%); stroke-width: 0.498138;stroke-linecap: round;stroke-linejoin: round;stroke-miterlimit: 10.000000;fill: none;"></path>
  <path d="M64.823669 139.820145C64.937119 138.828430,65.023911 137.831161,65.096054 136.832550C64.338913 137.487656,63.572342 138.131439,62.790863 138.752457Z" style="stroke:rgb(0.000000%,0.000000%,0.000000%); stroke-width: 0.498138;fill: rgb(0.000000%,0.000000%,0.000000%);"></path>
  <path d="M100.320251 84.606354C104.818268 81.947037,109.972488 80.999939,115.174286 80.395767" style="stroke:rgb(0.000000%,0.000000%,0.000000%); stroke-width: 0.498138;stroke-linecap: round;stroke-linejoin: round;stroke-miterlimit: 10.000000;fill: none;"></path>
  <path d="M112.577194 81.897690C113.431442 81.381332,114.299652 80.883087,115.174286 80.395767C114.211243 80.121887,113.245010 79.860245,112.275864 79.621323Z" style="stroke:rgb(0.000000%,0.000000%,0.000000%); stroke-width: 0.498138;fill: rgb(0.000000%,0.000000%,0.000000%);"></path>
  <path d="M140.756897 78.123978C151.520370 77.603302,162.713058 78.255646,171.867249 83.139404" style="stroke:rgb(0.000000%,0.000000%,0.000000%); stroke-width: 0.498138;stroke-linecap: round;stroke-linejoin: round;stroke-miterlimit: 10.000000;fill: none;"></path>
  <path d="M168.871994 82.975006C169.872208 82.988388,170.870956 83.042084,171.867249 83.139404C171.231583 82.366089,170.563339 81.621902,169.865585 80.905151Z" style="stroke:rgb(0.000000%,0.000000%,0.000000%); stroke-width: 0.498138;fill: rgb(0.000000%,0.000000%,0.000000%);"></path>
  <path d="M48.249451 127.246292C38.190674 126.929031,29.749451 133.702194,26.977692 142.951004" style="stroke:rgb(0.000000%,0.000000%,0.000000%); stroke-width: 0.498138;stroke-linecap: round;stroke-linejoin: round;stroke-miterlimit: 10.000000;fill: none;"></path>
  <path d="M26.871170 139.953033C26.840744 140.946655,26.875504 141.948196,26.977692 142.951004C27.614548 142.169662,28.298172 141.436920,29.022293 140.755829Z" style="stroke:rgb(0.000000%,0.000000%,0.000000%); stroke-width: 0.498138;fill: rgb(0.000000%,0.000000%,0.000000%);"></path>
  <path d="M60.512924 191.835739L66.494217 191.835739L66.494217 184.415344L60.512924 184.415344Z" style="fill: rgb(100.000000%,100.000000%,100.000000%);stroke: none;"></path>
  <path d="M60.512924 193.835739L66.494217 193.835739L66.494217 186.415344L60.512924 186.415344Z" style="fill: rgb(100.000000%,100.000000%,100.000000%);stroke: none;"></path>
  <g transform="translate(61.012924 192.335739)" style="fill: rgb(0.000000%,0.000000%,0.000000%);">
    <use xlink:href="#GLYPHcmr10_49"></use>
  </g>
  <path d="M110.788101 61.396011L116.769394 61.396011L116.769394 53.975616L110.788101 53.975616Z" style="fill: rgb(100.000000%,100.000000%,100.000000%);stroke: none;"></path>
  <path d="M110.788101 63.396011L116.769394 63.396011L116.769394 55.975616L110.788101 55.975616Z" style="fill: rgb(100.000000%,100.000000%,100.000000%);stroke: none;"></path>
  <g transform="translate(111.288101 61.896011)" style="fill: rgb(0.000000%,0.000000%,0.000000%);">
    <use xlink:href="#GLYPHcmr10_50"></use>
  </g>
  <path d="M55.239792 13.308395L61.221085 13.308395L61.221085 5.888000L55.239792 5.888000Z" style="fill: rgb(100.000000%,100.000000%,100.000000%);stroke: none;"></path>
  <path d="M55.239792 15.308395L61.221085 15.308395L61.221085 7.888000L55.239792 7.888000Z" style="fill: rgb(100.000000%,100.000000%,100.000000%);stroke: none;"></path>
  <g transform="translate(55.739792 13.808395)" style="fill: rgb(0.000000%,0.000000%,0.000000%);">
    <use xlink:href="#GLYPHcmr10_51"></use>
  </g>
  <path d="M141.843887 108.340530L147.825180 108.340530L147.825180 100.920135L141.843887 100.920135Z" style="fill: rgb(100.000000%,100.000000%,100.000000%);stroke: none;"></path>
  <path d="M141.843887 110.340530L147.825180 110.340530L147.825180 102.920135L141.843887 102.920135Z" style="fill: rgb(100.000000%,100.000000%,100.000000%);stroke: none;"></path>
  <g transform="translate(142.343887 108.840530)" style="fill: rgb(0.000000%,0.000000%,0.000000%);">
    <use xlink:href="#GLYPHcmr10_52"></use>
  </g>
  <path d="M160.870193 39.960587L166.851486 39.960587L166.851486 32.540192L160.870193 32.540192Z" style="fill: rgb(100.000000%,100.000000%,100.000000%);stroke: none;"></path>
  <path d="M160.870193 41.960587L166.851486 41.960587L166.851486 34.540192L160.870193 34.540192Z" style="fill: rgb(100.000000%,100.000000%,100.000000%);stroke: none;"></path>
  <g transform="translate(161.370193 40.460587)" style="fill: rgb(0.000000%,0.000000%,0.000000%);">
    <use xlink:href="#GLYPHcmr10_53"></use>
  </g>
  <path d="M0.300400 103.184570L6.281693 103.184570L6.281693 95.764175L0.300400 95.764175Z" style="fill: rgb(100.000000%,100.000000%,100.000000%);stroke: none;"></path>
  <path d="M0.300400 105.184570L6.281693 105.184570L6.281693 97.764175L0.300400 97.764175Z" style="fill: rgb(100.000000%,100.000000%,100.000000%);stroke: none;"></path>
  <g transform="translate(0.800400 103.684570)" style="fill: rgb(0.000000%,0.000000%,0.000000%);">
    <use xlink:href="#GLYPHcmr10_54"></use>
  </g>
  <path d="M72.788071 118.492294L78.769363 118.492294L78.769363 111.071899L72.788071 111.071899Z" style="fill: rgb(100.000000%,100.000000%,100.000000%);stroke: none;"></path>
  <path d="M72.788071 120.492294L78.769363 120.492294L78.769363 113.071899L72.788071 113.071899Z" style="fill: rgb(100.000000%,100.000000%,100.000000%);stroke: none;"></path>
  <g transform="translate(73.288071 118.992294)" style="fill: rgb(0.000000%,0.000000%,0.000000%);">
    <use xlink:href="#GLYPHcmr10_55"></use>
  </g>
  <path d="M178.827744 145.641800L184.809036 145.641800L184.809036 138.221405L178.827744 138.221405Z" style="fill: rgb(100.000000%,100.000000%,100.000000%);stroke: none;"></path>
  <path d="M178.827744 147.641800L184.809036 147.641800L184.809036 140.221405L178.827744 140.221405Z" style="fill: rgb(100.000000%,100.000000%,100.000000%);stroke: none;"></path>
  <g transform="translate(179.327744 146.141800)" style="fill: rgb(0.000000%,0.000000%,0.000000%);">
    <use xlink:href="#GLYPHcmr10_56"></use>
  </g>
  <path d="M85.310898 147.725342L91.292191 147.725342L91.292191 140.304947L85.310898 140.304947Z" style="fill: rgb(100.000000%,100.000000%,100.000000%);stroke: none;"></path>
  <path d="M85.310898 149.725342L91.292191 149.725342L91.292191 142.304947L85.310898 142.304947Z" style="fill: rgb(100.000000%,100.000000%,100.000000%);stroke: none;"></path>
  <g transform="translate(85.810898 148.225342)" style="fill: rgb(0.000000%,0.000000%,0.000000%);">
    <use xlink:href="#GLYPHcmr10_57"></use>
  </g>
</svg>
