<?xml version="1.0"?>
<!-- Created by MetaPost 1.999 on 2021.07.05:2359 -->
<svg version="1.1" xmlns="http://www.w3.org/2000/svg" xmlns:xlink="http://www.w3.org/1999/xlink" width="189.954315" height="202.744598" viewBox="0 0 189.954315 202.744598">
<!-- Original BoundingBox: -111.207794 -128.352280 78.746521 74.392319 -->
  <defs>
    <g transform="scale(0.009963,0.009963)" id="GLYPHcmr10_48">
      <path style="fill-rule: evenodd;" d="M460.000000 -320.000000C460.000000 -400.000000,455.000000 -480.000000,420.000000 -554.000000C374.000000 -650.000000,292.000000 -666.000000,250.000000 -666.000000C190.000000 -666.000000,117.000000 -640.000000,76.000000 -547.000000C44.000000 -478.000000,39.000000 -400.000000,39.000000 -320.000000C39.000000 -245.000000,43.000000 -155.000000,84.000000 -79.000000C127.000000 2.000000,200.000000 22.000000,249.000000 22.000000C303.000000 22.000000,379.000000 1.000000,423.000000 -94.000000C455.000000 -163.000000,460.000000 -241.000000,460.000000 -320.000000M249.000000 -0.000000C210.000000 -0.000000,151.000000 -25.000000,133.000000 -121.000000C122.000000 -181.000000,122.000000 -273.000000,122.000000 -332.000000C122.000000 -396.000000,122.000000 -462.000000,130.000000 -516.000000C149.000000 -635.000000,224.000000 -644.000000,249.000000 -644.000000C282.000000 -644.000000,348.000000 -626.000000,367.000000 -527.000000C377.000000 -471.000000,377.000000 -395.000000,377.000000 -332.000000C377.000000 -257.000000,377.000000 -189.000000,366.000000 -125.000000C351.000000 -30.000000,294.000000 -0.000000,249.000000 -0.000000"></path>
    </g>
    <g transform="scale(0.009963,0.009963)" id="GLYPHcmr10_49">
      <path style="fill-rule: evenodd;" d="M294.000000 -640.000000C294.000000 -664.000000,294.000000 -666.000000,271.000000 -666.000000C209.000000 -602.000000,121.000000 -602.000000,89.000000 -602.000000L89.000000 -571.000000C109.000000 -571.000000,168.000000 -571.000000,220.000000 -597.000000L220.000000 -79.000000C220.000000 -43.000000,217.000000 -31.000000,127.000000 -31.000000L95.000000 -31.000000L95.000000 -0.000000L257.000000 -0.000000L130.000000 -3.000000L217.000000 -3.000000L257.000000 -3.000000L297.000000 -3.000000L384.000000 -3.000000L419.000000 -0.000000L419.000000 -31.000000L387.000000 -31.000000C297.000000 -31.000000,294.000000 -42.000000,294.000000 -79.000000"></path>
    </g>
    <g transform="scale(0.009963,0.009963)" id="GLYPHcmr10_50">
      <path style="fill-rule: evenodd;" d="M127.000000 -77.000000L233.000000 -180.000000C389.000000 -318.000000,449.000000 -372.000000,449.000000 -472.000000C449.000000 -586.000000,359.000000 -666.000000,237.000000 -666.000000C124.000000 -666.000000,50.000000 -574.000000,50.000000 -485.000000C50.000000 -429.000000,100.000000 -429.000000,103.000000 -429.000000C120.000000 -429.000000,155.000000 -441.000000,155.000000 -482.000000C155.000000 -508.000000,137.000000 -534.000000,102.000000 -534.000000C94.000000 -534.000000,92.000000 -534.000000,89.000000 -533.000000C112.000000 -598.000000,166.000000 -635.000000,224.000000 -635.000000C315.000000 -635.000000,358.000000 -554.000000,358.000000 -472.000000C358.000000 -392.000000,308.000000 -313.000000,253.000000 -251.000000L61.000000 -37.000000C50.000000 -26.000000,50.000000 -24.000000,50.000000 -0.000000L421.000000 -0.000000L449.000000 -174.000000L424.000000 -174.000000C419.000000 -144.000000,412.000000 -100.000000,402.000000 -85.000000C395.000000 -77.000000,329.000000 -77.000000,307.000000 -77.000000"></path>
    </g>
    <g transform="scale(0.009963,0.009963)" id="GLYPHcmr10_51">
      <path style="fill-rule: evenodd;" d="M290.000000 -352.000000C372.000000 -379.000000,430.000000 -449.000000,430.000000 -528.000000C430.000000 -610.000000,342.000000 -666.000000,246.000000 -666.000000C145.000000 -666.000000,69.000000 -606.000000,69.000000 -530.000000C69.000000 -497.000000,91.000000 -478.000000,120.000000 -478.000000C151.000000 -478.000000,171.000000 -500.000000,171.000000 -529.000000C171.000000 -579.000000,124.000000 -579.000000,109.000000 -579.000000C140.000000 -628.000000,206.000000 -641.000000,242.000000 -641.000000C283.000000 -641.000000,338.000000 -619.000000,338.000000 -529.000000C338.000000 -517.000000,336.000000 -459.000000,310.000000 -415.000000C280.000000 -367.000000,246.000000 -364.000000,221.000000 -363.000000C213.000000 -362.000000,189.000000 -360.000000,182.000000 -360.000000C174.000000 -359.000000,167.000000 -358.000000,167.000000 -348.000000C167.000000 -337.000000,174.000000 -337.000000,191.000000 -337.000000L235.000000 -337.000000C317.000000 -337.000000,354.000000 -269.000000,354.000000 -171.000000C354.000000 -35.000000,285.000000 -6.000000,241.000000 -6.000000C198.000000 -6.000000,123.000000 -23.000000,88.000000 -82.000000C123.000000 -77.000000,154.000000 -99.000000,154.000000 -137.000000C154.000000 -173.000000,127.000000 -193.000000,98.000000 -193.000000C74.000000 -193.000000,42.000000 -179.000000,42.000000 -135.000000C42.000000 -44.000000,135.000000 22.000000,244.000000 22.000000C366.000000 22.000000,457.000000 -69.000000,457.000000 -171.000000C457.000000 -253.000000,394.000000 -331.000000,290.000000 -352.000000"></path>
    </g>
    <g transform="scale(0.009963,0.009963)" id="GLYPHcmr10_52">
      <path style="fill-rule: evenodd;" d="M294.000000 -165.000000L294.000000 -78.000000C294.000000 -42.000000,292.000000 -31.000000,218.000000 -31.000000L197.000000 -31.000000L197.000000 -0.000000L332.000000 -0.000000L238.000000 -3.000000L290.000000 -3.000000L332.000000 -3.000000L374.000000 -3.000000L427.000000 -3.000000L468.000000 -0.000000L468.000000 -31.000000L447.000000 -31.000000C373.000000 -31.000000,371.000000 -42.000000,371.000000 -78.000000L371.000000 -165.000000L471.000000 -165.000000L471.000000 -196.000000L371.000000 -196.000000L371.000000 -651.000000C371.000000 -671.000000,371.000000 -677.000000,355.000000 -677.000000C346.000000 -677.000000,343.000000 -677.000000,335.000000 -665.000000L28.000000 -196.000000L28.000000 -165.000000M300.000000 -196.000000L56.000000 -196.000000L300.000000 -569.000000"></path>
    </g>
    <g transform="scale(0.009963,0.009963)" id="GLYPHcmr10_53">
      <path style="fill-rule: evenodd;" d="M449.000000 -201.000000C449.000000 -320.000000,367.000000 -420.000000,259.000000 -420.000000C211.000000 -420.000000,168.000000 -404.000000,132.000000 -369.000000L132.000000 -564.000000C152.000000 -558.000000,185.000000 -551.000000,217.000000 -551.000000C340.000000 -551.000000,410.000000 -642.000000,410.000000 -655.000000C410.000000 -661.000000,407.000000 -666.000000,400.000000 -666.000000C399.000000 -666.000000,397.000000 -666.000000,392.000000 -663.000000C372.000000 -654.000000,323.000000 -634.000000,256.000000 -634.000000C216.000000 -634.000000,170.000000 -641.000000,123.000000 -662.000000C115.000000 -665.000000,113.000000 -665.000000,111.000000 -665.000000C101.000000 -665.000000,101.000000 -657.000000,101.000000 -641.000000L101.000000 -345.000000C101.000000 -327.000000,101.000000 -319.000000,115.000000 -319.000000C122.000000 -319.000000,124.000000 -322.000000,128.000000 -328.000000C139.000000 -344.000000,176.000000 -398.000000,257.000000 -398.000000C309.000000 -398.000000,334.000000 -352.000000,342.000000 -334.000000C358.000000 -297.000000,360.000000 -258.000000,360.000000 -208.000000C360.000000 -173.000000,360.000000 -113.000000,336.000000 -71.000000C312.000000 -32.000000,275.000000 -6.000000,229.000000 -6.000000C156.000000 -6.000000,99.000000 -59.000000,82.000000 -118.000000C85.000000 -117.000000,88.000000 -116.000000,99.000000 -116.000000C132.000000 -116.000000,149.000000 -141.000000,149.000000 -165.000000C149.000000 -189.000000,132.000000 -214.000000,99.000000 -214.000000C85.000000 -214.000000,50.000000 -207.000000,50.000000 -161.000000C50.000000 -75.000000,119.000000 22.000000,231.000000 22.000000C347.000000 22.000000,449.000000 -74.000000,449.000000 -201.000000"></path>
    </g>
    <g transform="scale(0.009963,0.009963)" id="GLYPHcmr10_54">
      <path style="fill-rule: evenodd;" d="M132.000000 -328.000000L132.000000 -352.000000C132.000000 -605.000000,256.000000 -641.000000,307.000000 -641.000000C331.000000 -641.000000,373.000000 -635.000000,395.000000 -601.000000C380.000000 -601.000000,340.000000 -601.000000,340.000000 -556.000000C340.000000 -525.000000,364.000000 -510.000000,386.000000 -510.000000C402.000000 -510.000000,432.000000 -519.000000,432.000000 -558.000000C432.000000 -618.000000,388.000000 -666.000000,305.000000 -666.000000C177.000000 -666.000000,42.000000 -537.000000,42.000000 -316.000000C42.000000 -49.000000,158.000000 22.000000,251.000000 22.000000C362.000000 22.000000,457.000000 -72.000000,457.000000 -204.000000C457.000000 -331.000000,368.000000 -427.000000,257.000000 -427.000000C189.000000 -427.000000,152.000000 -376.000000,132.000000 -328.000000M251.000000 -6.000000C188.000000 -6.000000,158.000000 -66.000000,152.000000 -81.000000C134.000000 -128.000000,134.000000 -208.000000,134.000000 -226.000000C134.000000 -304.000000,166.000000 -404.000000,256.000000 -404.000000C272.000000 -404.000000,318.000000 -404.000000,349.000000 -342.000000C367.000000 -305.000000,367.000000 -254.000000,367.000000 -205.000000C367.000000 -157.000000,367.000000 -107.000000,350.000000 -71.000000C320.000000 -11.000000,274.000000 -6.000000,251.000000 -6.000000"></path>
    </g>
    <g transform="scale(0.009963,0.009963)" id="GLYPHcmr10_55">
      <path style="fill-rule: evenodd;" d="M476.000000 -609.000000C485.000000 -621.000000,485.000000 -623.000000,485.000000 -644.000000L242.000000 -644.000000C120.000000 -644.000000,118.000000 -657.000000,114.000000 -676.000000L89.000000 -676.000000L56.000000 -470.000000L81.000000 -470.000000C84.000000 -486.000000,93.000000 -549.000000,106.000000 -561.000000C113.000000 -567.000000,191.000000 -567.000000,204.000000 -567.000000L411.000000 -567.000000C400.000000 -551.000000,321.000000 -442.000000,299.000000 -409.000000C209.000000 -274.000000,176.000000 -135.000000,176.000000 -33.000000C176.000000 -23.000000,176.000000 22.000000,222.000000 22.000000C268.000000 22.000000,268.000000 -23.000000,268.000000 -33.000000L268.000000 -84.000000C268.000000 -139.000000,271.000000 -194.000000,279.000000 -248.000000C283.000000 -271.000000,297.000000 -357.000000,341.000000 -419.000000"></path>
    </g>
    <g transform="scale(0.009963,0.009963)" id="GLYPHcmr10_56">
      <path style="fill-rule: evenodd;" d="M163.000000 -457.000000C117.000000 -487.000000,113.000000 -521.000000,113.000000 -538.000000C113.000000 -599.000000,178.000000 -641.000000,249.000000 -641.000000C322.000000 -641.000000,386.000000 -589.000000,386.000000 -517.000000C386.000000 -460.000000,347.000000 -412.000000,287.000000 -377.000000M309.000000 -362.000000C381.000000 -399.000000,430.000000 -451.000000,430.000000 -517.000000C430.000000 -609.000000,341.000000 -666.000000,250.000000 -666.000000C150.000000 -666.000000,69.000000 -592.000000,69.000000 -499.000000C69.000000 -481.000000,71.000000 -436.000000,113.000000 -389.000000C124.000000 -377.000000,161.000000 -352.000000,186.000000 -335.000000C128.000000 -306.000000,42.000000 -250.000000,42.000000 -151.000000C42.000000 -45.000000,144.000000 22.000000,249.000000 22.000000C362.000000 22.000000,457.000000 -61.000000,457.000000 -168.000000C457.000000 -204.000000,446.000000 -249.000000,408.000000 -291.000000C389.000000 -312.000000,373.000000 -322.000000,309.000000 -362.000000M209.000000 -320.000000L332.000000 -242.000000C360.000000 -223.000000,407.000000 -193.000000,407.000000 -132.000000C407.000000 -58.000000,332.000000 -6.000000,250.000000 -6.000000C164.000000 -6.000000,92.000000 -68.000000,92.000000 -151.000000C92.000000 -209.000000,124.000000 -273.000000,209.000000 -320.000000"></path>
    </g>
    <g transform="scale(0.009963,0.009963)" id="GLYPHcmr10_57">
      <path style="fill-rule: evenodd;" d="M367.000000 -318.000000L367.000000 -286.000000C367.000000 -52.000000,263.000000 -6.000000,205.000000 -6.000000C188.000000 -6.000000,134.000000 -8.000000,107.000000 -42.000000C151.000000 -42.000000,159.000000 -71.000000,159.000000 -88.000000C159.000000 -119.000000,135.000000 -134.000000,113.000000 -134.000000C97.000000 -134.000000,67.000000 -125.000000,67.000000 -86.000000C67.000000 -19.000000,121.000000 22.000000,206.000000 22.000000C335.000000 22.000000,457.000000 -114.000000,457.000000 -329.000000C457.000000 -598.000000,342.000000 -666.000000,253.000000 -666.000000C198.000000 -666.000000,149.000000 -648.000000,106.000000 -603.000000C65.000000 -558.000000,42.000000 -516.000000,42.000000 -441.000000C42.000000 -316.000000,130.000000 -218.000000,242.000000 -218.000000C303.000000 -218.000000,344.000000 -260.000000,367.000000 -318.000000M243.000000 -241.000000C227.000000 -241.000000,181.000000 -241.000000,150.000000 -304.000000C132.000000 -341.000000,132.000000 -391.000000,132.000000 -440.000000C132.000000 -494.000000,132.000000 -541.000000,153.000000 -578.000000C180.000000 -628.000000,218.000000 -641.000000,253.000000 -641.000000C299.000000 -641.000000,332.000000 -607.000000,349.000000 -562.000000C361.000000 -530.000000,365.000000 -467.000000,365.000000 -421.000000C365.000000 -338.000000,331.000000 -241.000000,243.000000 -241.000000"></path>
    </g>
  </defs>
  <path d="M116.615555 84.862946C116.615555 84.070251,116.300613 83.310104,115.740128 82.749634C115.179657 82.189148,114.419510 81.874207,113.626816 81.874207C112.834122 81.874207,112.073975 82.189148,111.513504 82.749634C110.953018 83.310104,110.638077 84.070251,110.638077 84.862946C110.638077 85.655640,110.953018 86.415787,111.513504 86.976257C112.073975 87.536743,112.834122 87.851685,113.626816 87.851685C114.419510 87.851685,115.179657 87.536743,115.740128 86.976257C116.300613 86.415787,116.615555 85.655640,116.615555 84.862946Z" style="fill: rgb(100.000000%,100.000000%,100.000000%);stroke: none;"></path>
  <path d="M116.820663 90.447235C116.820663 89.654541,116.505722 88.894394,115.945236 88.333923C115.384766 87.773438,114.624619 87.458496,113.831924 87.458496C113.039230 87.458496,112.279083 87.773438,111.718613 88.333923C111.158127 88.894394,110.843185 89.654541,110.843185 90.447235C110.843185 91.239929,111.158127 92.000076,111.718613 92.560547C112.279083 93.121033,113.039230 93.435974,113.831924 93.435974C114.624619 93.435974,115.384766 93.121033,115.945236 92.560547C116.505722 92.000076,116.820663 91.239929,116.820663 90.447235Z" style="fill: rgb(100.000000%,100.000000%,100.000000%);stroke: none;"></path>
  <path d="M111.728149 66.802109C111.728149 66.009415,111.413208 65.249268,110.852722 64.688797C110.292252 64.128311,109.532104 63.813370,108.739410 63.813370C107.946716 63.813370,107.186569 64.128311,106.626099 64.688797C106.065613 65.249268,105.750671 66.009415,105.750671 66.802109C105.750671 67.594803,106.065613 68.354950,106.626099 68.915421C107.186569 69.475906,107.946716 69.790848,108.739410 69.790848C109.532104 69.790848,110.292252 69.475906,110.852722 68.915421C111.413208 68.354950,111.728149 67.594803,111.728149 66.802109Z" style="fill: rgb(100.000000%,100.000000%,100.000000%);stroke: none;"></path>
  <path d="M115.663101 79.331314C115.663101 78.538620,115.348160 77.778473,114.787674 77.218002C114.227203 76.657516,113.467056 76.342575,112.674362 76.342575C111.881668 76.342575,111.121521 76.657516,110.561050 77.218002C110.000565 77.778473,109.685623 78.538620,109.685623 79.331314C109.685623 80.124008,110.000565 80.884155,110.561050 81.444626C111.121521 82.005112,111.881668 82.320053,112.674362 82.320053C113.467056 82.320053,114.227203 82.005112,114.787674 81.444626C115.348160 80.884155,115.663101 80.124008,115.663101 79.331314Z" style="fill: rgb(100.000000%,100.000000%,100.000000%);stroke: none;"></path>
  <path d="M103.652328 40.666214C103.652328 39.873520,103.337387 39.113373,102.776901 38.552902C102.216431 37.992416,101.456284 37.677475,100.663589 37.677475C99.870895 37.677475,99.110748 37.992416,98.550278 38.552902C97.989792 39.113373,97.674850 39.873520,97.674850 40.666214C97.674850 41.458908,97.989792 42.219055,98.550278 42.779526C99.110748 43.340012,99.870895 43.654953,100.663589 43.654953C101.456284 43.654953,102.216431 43.340012,102.776901 42.779526C103.337387 42.219055,103.652328 41.458908,103.652328 40.666214Z" style="fill: rgb(100.000000%,100.000000%,100.000000%);stroke: none;"></path>
  <path d="M108.173065 60.040482C108.173065 59.247787,107.858124 58.487640,107.297638 57.927170C106.737167 57.366684,105.977020 57.051743,105.184326 57.051743C104.391632 57.051743,103.631485 57.366684,103.071014 57.927170C102.510529 58.487640,102.195587 59.247787,102.195587 60.040482C102.195587 60.833176,102.510529 61.593323,103.071014 62.153793C103.631485 62.714279,104.391632 63.029221,105.184326 63.029221C105.977020 63.029221,106.737167 62.714279,107.297638 62.153793C107.858124 61.593323,108.173065 60.833176,108.173065 60.040482Z" style="fill: rgb(100.000000%,100.000000%,100.000000%);stroke: none;"></path>
  <path d="M125.442383 5.318771C125.442383 4.526077,125.127441 3.765930,124.566956 3.205460C124.006485 2.644974,123.246338 2.330032,122.453644 2.330032C121.660950 2.330032,120.900803 2.644974,120.340332 3.205460C119.779846 3.765930,119.464905 4.526077,119.464905 5.318771C119.464905 6.111465,119.779846 6.871613,120.340332 7.432083C120.900803 7.992569,121.660950 8.307510,122.453644 8.307510C123.246338 8.307510,124.006485 7.992569,124.566956 7.432083C125.127441 6.871613,125.442383 6.111465,125.442383 5.318771Z" style="fill: rgb(100.000000%,100.000000%,100.000000%);stroke: none;"></path>
  <path d="M105.933029 27.856491C105.933029 27.063797,105.618088 26.303650,105.057602 25.743179C104.497131 25.182693,103.736984 24.867752,102.944290 24.867752C102.151596 24.867752,101.391449 25.182693,100.830978 25.743179C100.270493 26.303650,99.955551 27.063797,99.955551 27.856491C99.955551 28.649185,100.270493 29.409332,100.830978 29.969803C101.391449 30.530289,102.151596 30.845230,102.944290 30.845230C103.736984 30.845230,104.497131 30.530289,105.057602 29.969803C105.618088 29.409332,105.933029 28.649185,105.933029 27.856491Z" style="fill: rgb(100.000000%,100.000000%,100.000000%);stroke: none;"></path>
  <path d="M173.129868 20.182022C173.129868 19.389328,172.814926 18.629181,172.254440 18.068710C171.693970 17.508224,170.933823 17.193283,170.141129 17.193283C169.348434 17.193283,168.588287 17.508224,168.027817 18.068710C167.467331 18.629181,167.152390 19.389328,167.152390 20.182022C167.152390 20.974716,167.467331 21.734863,168.027817 22.295334C168.588287 22.855820,169.348434 23.170761,170.141129 23.170761C170.933823 23.170761,171.693970 22.855820,172.254440 22.295334C172.814926 21.734863,173.129868 20.974716,173.129868 20.182022Z" style="fill: rgb(100.000000%,100.000000%,100.000000%);stroke: none;"></path>
  <path d="M144.877411 2.596420C144.877411 1.803726,144.562469 1.043579,144.001984 0.483109C143.441513 -0.077377,142.681366 -0.392319,141.888672 -0.392319C141.095978 -0.392319,140.335831 -0.077377,139.775360 0.483109C139.214874 1.043579,138.899933 1.803726,138.899933 2.596420C138.899933 3.389114,139.214874 4.149261,139.775360 4.709732C140.335831 5.270218,141.095978 5.585159,141.888672 5.585159C142.681366 5.585159,143.441513 5.270218,144.001984 4.709732C144.562469 4.149261,144.877411 3.389114,144.877411 2.596420Z" style="fill: rgb(100.000000%,100.000000%,100.000000%);stroke: none;"></path>
  <path d="M166.829865 62.738647C166.829865 61.945953,166.514923 61.185806,165.954437 60.625336C165.393967 60.064850,164.633820 59.749908,163.841125 59.749908C163.048431 59.749908,162.288284 60.064850,161.727814 60.625336C161.167328 61.185806,160.852386 61.945953,160.852386 62.738647C160.852386 63.531342,161.167328 64.291489,161.727814 64.851959C162.288284 65.412445,163.048431 65.727386,163.841125 65.727386C164.633820 65.727386,165.393967 65.412445,165.954437 64.851959C166.514923 64.291489,166.829865 63.531342,166.829865 62.738647Z" style="fill: rgb(100.000000%,100.000000%,100.000000%);stroke: none;"></path>
  <path d="M179.395233 36.576050C179.395233 35.783356,179.080292 35.023209,178.519806 34.462738C177.959335 33.902252,177.199188 33.587311,176.406494 33.587311C175.613800 33.587311,174.853653 33.902252,174.293182 34.462738C173.732697 35.023209,173.417755 35.783356,173.417755 36.576050C173.417755 37.368744,173.732697 38.128891,174.293182 38.689362C174.853653 39.249847,175.613800 39.564789,176.406494 39.564789C177.199188 39.564789,177.959335 39.249847,178.519806 38.689362C179.080292 38.128891,179.395233 37.368744,179.395233 36.576050Z" style="fill: rgb(100.000000%,100.000000%,100.000000%);stroke: none;"></path>
  <path d="M131.050461 72.238480C131.050461 71.445786,130.735519 70.685638,130.175034 70.125168C129.614563 69.564682,128.854416 69.249741,128.061722 69.249741C127.269028 69.249741,126.508881 69.564682,125.948410 70.125168C125.387924 70.685638,125.072983 71.445786,125.072983 72.238480C125.072983 73.031174,125.387924 73.791321,125.948410 74.351791C126.508881 74.912277,127.269028 75.227219,128.061722 75.227219C128.854416 75.227219,129.614563 74.912277,130.175034 74.351791C130.735519 73.791321,131.050461 73.031174,131.050461 72.238480Z" style="fill: rgb(100.000000%,100.000000%,100.000000%);stroke: none;"></path>
  <path d="M152.972763 67.793594C152.972763 67.000900,152.657822 66.240753,152.097336 65.680283C151.536865 65.119797,150.776718 64.804855,149.984024 64.804855C149.191330 64.804855,148.431183 65.119797,147.870712 65.680283C147.310226 66.240753,146.995285 67.000900,146.995285 67.793594C146.995285 68.586288,147.310226 69.346436,147.870712 69.906906C148.431183 70.467392,149.191330 70.782333,149.984024 70.782333C150.776718 70.782333,151.536865 70.467392,152.097336 69.906906C152.657822 69.346436,152.972763 68.586288,152.972763 67.793594Z" style="fill: rgb(100.000000%,100.000000%,100.000000%);stroke: none;"></path>
  <path d="M107.894043 74.465012C107.894043 73.672318,107.579102 72.912170,107.018616 72.351700C106.458145 71.791214,105.697998 71.476273,104.905304 71.476273C104.112610 71.476273,103.352463 71.791214,102.791992 72.351700C102.231506 72.912170,101.916565 73.672318,101.916565 74.465012C101.916565 75.257706,102.231506 76.017853,102.791992 76.578323C103.352463 77.138809,104.112610 77.453751,104.905304 77.453751C105.697998 77.453751,106.458145 77.138809,107.018616 76.578323C107.579102 76.017853,107.894043 75.257706,107.894043 74.465012Z" style="fill: rgb(100.000000%,100.000000%,100.000000%);stroke: none;"></path>
  <path d="M122.538879 73.347656C122.538879 72.554962,122.223938 71.794815,121.663452 71.234344C121.102982 70.673859,120.342834 70.358917,119.550140 70.358917C118.757446 70.358917,117.997299 70.673859,117.436829 71.234344C116.876343 71.794815,116.561401 72.554962,116.561401 73.347656C116.561401 74.140350,116.876343 74.900497,117.436829 75.460968C117.997299 76.021454,118.757446 76.336395,119.550140 76.336395C120.342834 76.336395,121.102982 76.021454,121.663452 75.460968C122.223938 74.900497,122.538879 74.140350,122.538879 73.347656Z" style="fill: rgb(100.000000%,100.000000%,100.000000%);stroke: none;"></path>
  <path d="M92.521942 80.913391C92.521942 80.120697,92.207001 79.360550,91.646515 78.800079C91.086044 78.239594,90.325897 77.924652,89.533203 77.924652C88.740509 77.924652,87.980362 78.239594,87.419891 78.800079C86.859406 79.360550,86.544464 80.120697,86.544464 80.913391C86.544464 81.706085,86.859406 82.466232,87.419891 83.026703C87.980362 83.587189,88.740509 83.902130,89.533203 83.902130C90.325897 83.902130,91.086044 83.587189,91.646515 83.026703C92.207001 82.466232,92.521942 81.706085,92.521942 80.913391Z" style="fill: rgb(100.000000%,100.000000%,100.000000%);stroke: none;"></path>
  <path d="M101.554138 74.787277C101.554138 73.994583,101.239197 73.234436,100.678711 72.673965C100.118240 72.113480,99.358093 71.798538,98.565399 71.798538C97.772705 71.798538,97.012558 72.113480,96.452087 72.673965C95.891602 73.234436,95.576660 73.994583,95.576660 74.787277C95.576660 75.579971,95.891602 76.340118,96.452087 76.900589C97.012558 77.461075,97.772705 77.776016,98.565399 77.776016C99.358093 77.776016,100.118240 77.461075,100.678711 76.900589C101.239197 76.340118,101.554138 75.579971,101.554138 74.787277Z" style="fill: rgb(100.000000%,100.000000%,100.000000%);stroke: none;"></path>
  <path d="M85.410416 91.818527C85.410416 91.025833,85.095474 90.265686,84.534988 89.705215C83.974518 89.144730,83.214371 88.829788,82.421677 88.829788C81.628983 88.829788,80.868835 89.144730,80.308365 89.705215C79.747879 90.265686,79.432938 91.025833,79.432938 91.818527C79.432938 92.611221,79.747879 93.371368,80.308365 93.931839C80.868835 94.492325,81.628983 94.807266,82.421677 94.807266C83.214371 94.807266,83.974518 94.492325,84.534988 93.931839C85.095474 93.371368,85.410416 92.611221,85.410416 91.818527Z" style="fill: rgb(100.000000%,100.000000%,100.000000%);stroke: none;"></path>
  <path d="M89.999451 85.105270C89.999451 84.312576,89.684509 83.552429,89.124023 82.991959C88.563553 82.431473,87.803406 82.116531,87.010712 82.116531C86.218018 82.116531,85.457870 82.431473,84.897400 82.991959C84.336914 83.552429,84.021973 84.312576,84.021973 85.105270C84.021973 85.897964,84.336914 86.658112,84.897400 87.218582C85.457870 87.779068,86.218018 88.094009,87.010712 88.094009C87.803406 88.094009,88.563553 87.779068,89.124023 87.218582C89.684509 86.658112,89.999451 85.897964,89.999451 85.105270Z" style="fill: rgb(100.000000%,100.000000%,100.000000%);stroke: none;"></path>
  <path d="M79.315521 100.225037C79.315521 99.432343,79.000580 98.672195,78.440094 98.111725C77.879623 97.551239,77.119476 97.236298,76.326782 97.236298C75.534088 97.236298,74.773941 97.551239,74.213470 98.111725C73.652985 98.672195,73.338043 99.432343,73.338043 100.225037C73.338043 101.017731,73.652985 101.777878,74.213470 102.338348C74.773941 102.898834,75.534088 103.213776,76.326782 103.213776C77.119476 103.213776,77.879623 102.898834,78.440094 102.338348C79.000580 101.777878,79.315521 101.017731,79.315521 100.225037Z" style="fill: rgb(100.000000%,100.000000%,100.000000%);stroke: none;"></path>
  <path d="M83.389969 94.504807C83.389969 93.712112,83.075027 92.951965,82.514542 92.391495C81.954071 91.831009,81.193924 91.516068,80.401230 91.516068C79.608536 91.516068,78.848389 91.831009,78.287918 92.391495C77.727432 92.951965,77.412491 93.712112,77.412491 94.504807C77.412491 95.297501,77.727432 96.057648,78.287918 96.618118C78.848389 97.178604,79.608536 97.493546,80.401230 97.493546C81.193924 97.493546,81.954071 97.178604,82.514542 96.618118C83.075027 96.057648,83.389969 95.297501,83.389969 94.504807Z" style="fill: rgb(100.000000%,100.000000%,100.000000%);stroke: none;"></path>
  <path d="M70.858826 112.823349C70.858826 112.030655,70.543884 111.270508,69.983398 110.710037C69.422928 110.149551,68.662781 109.834610,67.870087 109.834610C67.077393 109.834610,66.317245 110.149551,65.756775 110.710037C65.196289 111.270508,64.881348 112.030655,64.881348 112.823349C64.881348 113.616043,65.196289 114.376190,65.756775 114.936661C66.317245 115.497147,67.077393 115.812088,67.870087 115.812088C68.662781 115.812088,69.422928 115.497147,69.983398 114.936661C70.543884 114.376190,70.858826 113.616043,70.858826 112.823349Z" style="fill: rgb(100.000000%,100.000000%,100.000000%);stroke: none;"></path>
  <path d="M77.275497 103.267639C77.275497 102.474945,76.960556 101.714798,76.400070 101.154327C75.839600 100.593842,75.079453 100.278900,74.286758 100.278900C73.494064 100.278900,72.733917 100.593842,72.173447 101.154327C71.612961 101.714798,71.298019 102.474945,71.298019 103.267639C71.298019 104.060333,71.612961 104.820480,72.173447 105.380951C72.733917 105.941437,73.494064 106.256378,74.286758 106.256378C75.079453 106.256378,75.839600 105.941437,76.400070 105.380951C76.960556 104.820480,77.275497 104.060333,77.275497 103.267639Z" style="fill: rgb(100.000000%,100.000000%,100.000000%);stroke: none;"></path>
  <path d="M51.125122 133.898621C51.125122 133.105927,50.810181 132.345779,50.249695 131.785309C49.689224 131.224823,48.929077 130.909882,48.136383 130.909882C47.343689 130.909882,46.583542 131.224823,46.023071 131.785309C45.462585 132.345779,45.147644 133.105927,45.147644 133.898621C45.147644 134.691315,45.462585 135.451462,46.023071 136.011932C46.583542 136.572418,47.343689 136.887360,48.136383 136.887360C48.929077 136.887360,49.689224 136.572418,50.249695 136.011932C50.810181 135.451462,51.125122 134.691315,51.125122 133.898621Z" style="fill: rgb(100.000000%,100.000000%,100.000000%);stroke: none;"></path>
  <path d="M66.441605 119.369934C66.441605 118.577240,66.126663 117.817093,65.566177 117.256622C65.005707 116.696136,64.245560 116.381195,63.452866 116.381195C62.660172 116.381195,61.900024 116.696136,61.339554 117.256622C60.779068 117.817093,60.464127 118.577240,60.464127 119.369934C60.464127 120.162628,60.779068 120.922775,61.339554 121.483246C61.900024 122.043732,62.660172 122.358673,63.452866 122.358673C64.245560 122.358673,65.005707 122.043732,65.566177 121.483246C66.126663 120.922775,66.441605 120.162628,66.441605 119.369934Z" style="fill: rgb(100.000000%,100.000000%,100.000000%);stroke: none;"></path>
  <path d="M29.002472 166.857117C29.002472 166.064423,28.687531 165.304276,28.127045 164.743805C27.566574 164.183319,26.806427 163.868378,26.013733 163.868378C25.221039 163.868378,24.460892 164.183319,23.900421 164.743805C23.339935 165.304276,23.024994 166.064423,23.024994 166.857117C23.024994 167.649811,23.339935 168.409958,23.900421 168.970428C24.460892 169.530914,25.221039 169.845856,26.013733 169.845856C26.806427 169.845856,27.566574 169.530914,28.127045 168.970428C28.687531 168.409958,29.002472 167.649811,29.002472 166.857117Z" style="fill: rgb(100.000000%,100.000000%,100.000000%);stroke: none;"></path>
  <path d="M37.842453 140.071182C37.842453 139.278488,37.527512 138.518341,36.967026 137.957870C36.406555 137.397385,35.646408 137.082443,34.853714 137.082443C34.061020 137.082443,33.300873 137.397385,32.740402 137.957870C32.179916 138.518341,31.864975 139.278488,31.864975 140.071182C31.864975 140.863876,32.179916 141.624023,32.740402 142.184494C33.300873 142.744980,34.061020 143.059921,34.853714 143.059921C35.646408 143.059921,36.406555 142.744980,36.967026 142.184494C37.527512 141.624023,37.842453 140.863876,37.842453 140.071182Z" style="fill: rgb(100.000000%,100.000000%,100.000000%);stroke: none;"></path>
  <path d="M64.326111 198.527969C64.326111 197.735275,64.011169 196.975128,63.450684 196.414658C62.890213 195.854172,62.130066 195.539230,61.337372 195.539230C60.544678 195.539230,59.784531 195.854172,59.224060 196.414658C58.663574 196.975128,58.348633 197.735275,58.348633 198.527969C58.348633 199.320663,58.663574 200.080811,59.224060 200.641281C59.784531 201.201767,60.544678 201.516708,61.337372 201.516708C62.130066 201.516708,62.890213 201.201767,63.450684 200.641281C64.011169 200.080811,64.326111 199.320663,64.326111 198.527969Z" style="fill: rgb(100.000000%,100.000000%,100.000000%);stroke: none;"></path>
  <path d="M37.096786 181.455002C37.096786 180.662308,36.781845 179.902161,36.221359 179.341690C35.660889 178.781204,34.900742 178.466263,34.108047 178.466263C33.315353 178.466263,32.555206 178.781204,31.994736 179.341690C31.434250 179.902161,31.119308 180.662308,31.119308 181.455002C31.119308 182.247696,31.434250 183.007843,31.994736 183.568314C32.555206 184.128799,33.315353 184.443741,34.108047 184.443741C34.900742 184.443741,35.660889 184.128799,36.221359 183.568314C36.781845 183.007843,37.096786 182.247696,37.096786 181.455002Z" style="fill: rgb(100.000000%,100.000000%,100.000000%);stroke: none;"></path>
  <path d="M102.683167 178.188690C102.683167 177.395996,102.368225 176.635849,101.807739 176.075378C101.247269 175.514893,100.487122 175.199951,99.694427 175.199951C98.901733 175.199951,98.141586 175.514893,97.581116 176.075378C97.020630 176.635849,96.705688 177.395996,96.705688 178.188690C96.705688 178.981384,97.020630 179.741531,97.581116 180.302002C98.141586 180.862488,98.901733 181.177429,99.694427 181.177429C100.487122 181.177429,101.247269 180.862488,101.807739 180.302002C102.368225 179.741531,102.683167 178.981384,102.683167 178.188690Z" style="fill: rgb(100.000000%,100.000000%,100.000000%);stroke: none;"></path>
  <path d="M82.880768 198.799500C82.880768 198.006805,82.565826 197.246658,82.005341 196.686188C81.444870 196.125702,80.684723 195.810760,79.892029 195.810760C79.099335 195.810760,78.339188 196.125702,77.778717 196.686188C77.218231 197.246658,76.903290 198.006805,76.903290 198.799500C76.903290 199.592194,77.218231 200.352341,77.778717 200.912811C78.339188 201.473297,79.099335 201.788239,79.892029 201.788239C80.684723 201.788239,81.444870 201.473297,82.005341 200.912811C82.565826 200.352341,82.880768 199.592194,82.880768 198.799500Z" style="fill: rgb(100.000000%,100.000000%,100.000000%);stroke: none;"></path>
  <path d="M126.931152 148.451004C126.931152 147.658310,126.616211 146.898163,126.055725 146.337692C125.495255 145.777206,124.735107 145.462265,123.942413 145.462265C123.149719 145.462265,122.389572 145.777206,121.829102 146.337692C121.268616 146.898163,120.953674 147.658310,120.953674 148.451004C120.953674 149.243698,121.268616 150.003845,121.829102 150.564316C122.389572 151.124802,123.149719 151.439743,123.942413 151.439743C124.735107 151.439743,125.495255 151.124802,126.055725 150.564316C126.616211 150.003845,126.931152 149.243698,126.931152 148.451004Z" style="fill: rgb(100.000000%,100.000000%,100.000000%);stroke: none;"></path>
  <path d="M104.284958 164.179016C104.284958 163.386322,103.970016 162.626175,103.409531 162.065704C102.849060 161.505219,102.088913 161.190277,101.296219 161.190277C100.503525 161.190277,99.743378 161.505219,99.182907 162.065704C98.622421 162.626175,98.307480 163.386322,98.307480 164.179016C98.307480 164.971710,98.622421 165.731857,99.182907 166.292328C99.743378 166.852814,100.503525 167.167755,101.296219 167.167755C102.088913 167.167755,102.849060 166.852814,103.409531 166.292328C103.970016 165.731857,104.284958 164.971710,104.284958 164.179016Z" style="fill: rgb(100.000000%,100.000000%,100.000000%);stroke: none;"></path>
  <path d="M177.141296 144.742310C177.141296 143.949615,176.826355 143.189468,176.265869 142.628998C175.705399 142.068512,174.945251 141.753571,174.152557 141.753571C173.359863 141.753571,172.599716 142.068512,172.039246 142.628998C171.478760 143.189468,171.163818 143.949615,171.163818 144.742310C171.163818 145.535004,171.478760 146.295151,172.039246 146.855621C172.599716 147.416107,173.359863 147.731049,174.152557 147.731049C174.945251 147.731049,175.705399 147.416107,176.265869 146.855621C176.826355 146.295151,177.141296 145.535004,177.141296 144.742310Z" style="fill: rgb(100.000000%,100.000000%,100.000000%);stroke: none;"></path>
  <path d="M143.647949 155.632980C143.647949 154.840286,143.333008 154.080139,142.772522 153.519669C142.212051 152.959183,141.451904 152.644241,140.659210 152.644241C139.866516 152.644241,139.106369 152.959183,138.545898 153.519669C137.985413 154.080139,137.670471 154.840286,137.670471 155.632980C137.670471 156.425674,137.985413 157.185822,138.545898 157.746292C139.106369 158.306778,139.866516 158.621719,140.659210 158.621719C141.451904 158.621719,142.212051 158.306778,142.772522 157.746292C143.333008 157.185822,143.647949 156.425674,143.647949 155.632980Z" style="fill: rgb(100.000000%,100.000000%,100.000000%);stroke: none;"></path>
  <path d="M189.746521 82.174835C189.746521 81.382141,189.431580 80.621994,188.871094 80.061523C188.310623 79.501038,187.550476 79.186096,186.757782 79.186096C185.965088 79.186096,185.204941 79.501038,184.644470 80.061523C184.083984 80.621994,183.769043 81.382141,183.769043 82.174835C183.769043 82.967529,184.083984 83.727676,184.644470 84.288147C185.204941 84.848633,185.965088 85.163574,186.757782 85.163574C187.550476 85.163574,188.310623 84.848633,188.871094 84.288147C189.431580 83.727676,189.746521 82.967529,189.746521 82.174835Z" style="fill: rgb(100.000000%,100.000000%,100.000000%);stroke: none;"></path>
  <path d="M183.705353 122.765076C183.705353 121.972382,183.390411 121.212234,182.829926 120.651764C182.269455 120.091278,181.509308 119.776337,180.716614 119.776337C179.923920 119.776337,179.163773 120.091278,178.603302 120.651764C178.042816 121.212234,177.727875 121.972382,177.727875 122.765076C177.727875 123.557770,178.042816 124.317917,178.603302 124.878387C179.163773 125.438873,179.923920 125.753815,180.716614 125.753815C181.509308 125.753815,182.269455 125.438873,182.829926 124.878387C183.390411 124.317917,183.705353 123.557770,183.705353 122.765076Z" style="fill: rgb(100.000000%,100.000000%,100.000000%);stroke: none;"></path>
  <path d="M162.256104 44.360916C162.256104 43.568222,161.941162 42.808075,161.380676 42.247604C160.820206 41.687119,160.060059 41.372177,159.267365 41.372177C158.474670 41.372177,157.714523 41.687119,157.154053 42.247604C156.593567 42.808075,156.278625 43.568222,156.278625 44.360916C156.278625 45.153610,156.593567 45.913757,157.154053 46.474228C157.714523 47.034714,158.474670 47.349655,159.267365 47.349655C160.060059 47.349655,160.820206 47.034714,161.380676 46.474228C161.941162 45.913757,162.256104 45.153610,162.256104 44.360916Z" style="fill: rgb(100.000000%,100.000000%,100.000000%);stroke: none;"></path>
  <path d="M189.375900 60.076675C189.375900 59.283981,189.060959 58.523834,188.500473 57.963364C187.940002 57.402878,187.179855 57.087936,186.387161 57.087936C185.594467 57.087936,184.834320 57.402878,184.273849 57.963364C183.713364 58.523834,183.398422 59.283981,183.398422 60.076675C183.398422 60.869370,183.713364 61.629517,184.273849 62.189987C184.834320 62.750473,185.594467 63.065414,186.387161 63.065414C187.179855 63.065414,187.940002 62.750473,188.500473 62.189987C189.060959 61.629517,189.375900 60.869370,189.375900 60.076675Z" style="fill: rgb(100.000000%,100.000000%,100.000000%);stroke: none;"></path>
  <path d="M128.404892 35.757584C128.404892 34.964890,128.089951 34.204742,127.529465 33.644272C126.968994 33.083786,126.208847 32.768845,125.416153 32.768845C124.623459 32.768845,123.863312 33.083786,123.302841 33.644272C122.742355 34.204742,122.427414 34.964890,122.427414 35.757584C122.427414 36.550278,122.742355 37.310425,123.302841 37.870895C123.863312 38.431381,124.623459 38.746323,125.416153 38.746323C126.208847 38.746323,126.968994 38.431381,127.529465 37.870895C128.089951 37.310425,128.404892 36.550278,128.404892 35.757584Z" style="fill: rgb(100.000000%,100.000000%,100.000000%);stroke: none;"></path>
  <path d="M148.812973 46.992477C148.812973 46.199783,148.498032 45.439636,147.937546 44.879166C147.377075 44.318680,146.616928 44.003738,145.824234 44.003738C145.031540 44.003738,144.271393 44.318680,143.710922 44.879166C143.150436 45.439636,142.835495 46.199783,142.835495 46.992477C142.835495 47.785172,143.150436 48.545319,143.710922 49.105789C144.271393 49.666275,145.031540 49.981216,145.824234 49.981216C146.616928 49.981216,147.377075 49.666275,147.937546 49.105789C148.498032 48.545319,148.812973 47.785172,148.812973 46.992477Z" style="fill: rgb(100.000000%,100.000000%,100.000000%);stroke: none;"></path>
  <path d="M96.525818 7.683884C96.525818 6.891190,96.210876 6.131042,95.650391 5.570572C95.089920 5.010086,94.329773 4.695145,93.537079 4.695145C92.744385 4.695145,91.984238 5.010086,91.423767 5.570572C90.863281 6.131042,90.548340 6.891190,90.548340 7.683884C90.548340 8.476578,90.863281 9.236725,91.423767 9.797195C91.984238 10.357681,92.744385 10.672623,93.537079 10.672623C94.329773 10.672623,95.089920 10.357681,95.650391 9.797195C96.210876 9.236725,96.525818 8.476578,96.525818 7.683884Z" style="fill: rgb(100.000000%,100.000000%,100.000000%);stroke: none;"></path>
  <path d="M123.472137 24.451447C123.472137 23.658752,123.157196 22.898605,122.596710 22.338135C122.036240 21.777649,121.276093 21.462708,120.483398 21.462708C119.690704 21.462708,118.930557 21.777649,118.370087 22.338135C117.809601 22.898605,117.494659 23.658752,117.494659 24.451447C117.494659 25.244141,117.809601 26.004288,118.370087 26.564758C118.930557 27.125244,119.690704 27.440186,120.483398 27.440186C121.276093 27.440186,122.036240 27.125244,122.596710 26.564758C123.157196 26.004288,123.472137 25.244141,123.472137 24.451447Z" style="fill: rgb(100.000000%,100.000000%,100.000000%);stroke: none;"></path>
  <path d="M41.191757 38.201874C41.191757 37.409180,40.876816 36.649033,40.316330 36.088562C39.755859 35.528076,38.995712 35.213135,38.203018 35.213135C37.410324 35.213135,36.650177 35.528076,36.089706 36.088562C35.529221 36.649033,35.214279 37.409180,35.214279 38.201874C35.214279 38.994568,35.529221 39.754715,36.089706 40.315186C36.650177 40.875671,37.410324 41.190613,38.203018 41.190613C38.995712 41.190613,39.755859 40.875671,40.316330 40.315186C40.876816 39.754715,41.191757 38.994568,41.191757 38.201874Z" style="fill: rgb(100.000000%,100.000000%,100.000000%);stroke: none;"></path>
  <path d="M75.475739 17.840424C75.475739 17.047729,75.160797 16.287582,74.600311 15.727112C74.039841 15.166626,73.279694 14.851685,72.487000 14.851685C71.694305 14.851685,70.934158 15.166626,70.373688 15.727112C69.813202 16.287582,69.498260 17.047729,69.498260 17.840424C69.498260 18.633118,69.813202 19.393265,70.373688 19.953735C70.934158 20.514221,71.694305 20.829163,72.487000 20.829163C73.279694 20.829163,74.039841 20.514221,74.600311 19.953735C75.160797 19.393265,75.475739 18.633118,75.475739 17.840424Z" style="fill: rgb(100.000000%,100.000000%,100.000000%);stroke: none;"></path>
  <path d="M26.949432 78.809219C26.949432 78.016525,26.634491 77.256378,26.074005 76.695908C25.513535 76.135422,24.753387 75.820480,23.960693 75.820480C23.167999 75.820480,22.407852 76.135422,21.847382 76.695908C21.286896 77.256378,20.971954 78.016525,20.971954 78.809219C20.971954 79.601913,21.286896 80.362061,21.847382 80.922531C22.407852 81.483017,23.167999 81.797958,23.960693 81.797958C24.753387 81.797958,25.513535 81.483017,26.074005 80.922531C26.634491 80.362061,26.949432 79.601913,26.949432 78.809219Z" style="fill: rgb(100.000000%,100.000000%,100.000000%);stroke: none;"></path>
  <path d="M24.538376 50.377518C24.538376 49.584824,24.223434 48.824677,23.662949 48.264206C23.102478 47.703720,22.342331 47.388779,21.549637 47.388779C20.756943 47.388779,19.996796 47.703720,19.436325 48.264206C18.875839 48.824677,18.560898 49.584824,18.560898 50.377518C18.560898 51.170212,18.875839 51.930359,19.436325 52.490829C19.996796 53.051315,20.756943 53.366257,21.549637 53.366257C22.342331 53.366257,23.102478 53.051315,23.662949 52.490829C24.223434 51.930359,24.538376 51.170212,24.538376 50.377518Z" style="fill: rgb(100.000000%,100.000000%,100.000000%);stroke: none;"></path>
  <path d="M50.263351 88.900238C50.263351 88.107544,49.948410 87.347397,49.387924 86.786926C48.827454 86.226440,48.067307 85.911499,47.274612 85.911499C46.481918 85.911499,45.721771 86.226440,45.161301 86.786926C44.600815 87.347397,44.285873 88.107544,44.285873 88.900238C44.285873 89.692932,44.600815 90.453079,45.161301 91.013550C45.721771 91.574036,46.481918 91.888977,47.274612 91.888977C48.067307 91.888977,48.827454 91.574036,49.387924 91.013550C49.948410 90.453079,50.263351 89.692932,50.263351 88.900238Z" style="fill: rgb(100.000000%,100.000000%,100.000000%);stroke: none;"></path>
  <path d="M34.675049 87.499451C34.675049 86.706757,34.360107 85.946609,33.799622 85.386139C33.239151 84.825653,32.479004 84.510712,31.686310 84.510712C30.893616 84.510712,30.133469 84.825653,29.572998 85.386139C29.012512 85.946609,28.697571 86.706757,28.697571 87.499451C28.697571 88.292145,29.012512 89.052292,29.572998 89.612762C30.133469 90.173248,30.893616 90.488190,31.686310 90.488190C32.479004 90.488190,33.239151 90.173248,33.799622 89.612762C34.360107 89.052292,34.675049 88.292145,34.675049 87.499451Z" style="fill: rgb(100.000000%,100.000000%,100.000000%);stroke: none;"></path>
  <path d="M65.142502 83.685699C65.142502 82.893005,64.827560 82.132858,64.267075 81.572388C63.706604 81.011902,62.946457 80.696960,62.153763 80.696960C61.361069 80.696960,60.600922 81.011902,60.040451 81.572388C59.479965 82.132858,59.165024 82.893005,59.165024 83.685699C59.165024 84.478394,59.479965 85.238541,60.040451 85.799011C60.600922 86.359497,61.361069 86.674438,62.153763 86.674438C62.946457 86.674438,63.706604 86.359497,64.267075 85.799011C64.827560 85.238541,65.142502 84.478394,65.142502 83.685699Z" style="fill: rgb(100.000000%,100.000000%,100.000000%);stroke: none;"></path>
  <path d="M55.371124 87.043671C55.371124 86.250977,55.056183 85.490829,54.495697 84.930359C53.935226 84.369873,53.175079 84.054932,52.382385 84.054932C51.589691 84.054932,50.829544 84.369873,50.269073 84.930359C49.708588 85.490829,49.393646 86.250977,49.393646 87.043671C49.393646 87.836365,49.708588 88.596512,50.269073 89.156982C50.829544 89.717468,51.589691 90.032410,52.382385 90.032410C53.175079 90.032410,53.935226 89.717468,54.495697 89.156982C55.056183 88.596512,55.371124 87.836365,55.371124 87.043671Z" style="fill: rgb(100.000000%,100.000000%,100.000000%);stroke: none;"></path>
  <path d="M79.592270 83.833679C79.592270 83.040985,79.277328 82.280838,78.716843 81.720367C78.156372 81.159882,77.396225 80.844940,76.603531 80.844940C75.810837 80.844940,75.050690 81.159882,74.490219 81.720367C73.929733 82.280838,73.614792 83.040985,73.614792 83.833679C73.614792 84.626373,73.929733 85.386520,74.490219 85.946991C75.050690 86.507477,75.810837 86.822418,76.603531 86.822418C77.396225 86.822418,78.156372 86.507477,78.716843 85.946991C79.277328 85.386520,79.592270 84.626373,79.592270 83.833679Z" style="fill: rgb(100.000000%,100.000000%,100.000000%);stroke: none;"></path>
  <path d="M70.089371 82.152939C70.089371 81.360245,69.774429 80.600098,69.213943 80.039627C68.653473 79.479141,67.893326 79.164200,67.100632 79.164200C66.307938 79.164200,65.547791 79.479141,64.987320 80.039627C64.426834 80.600098,64.111893 81.360245,64.111893 82.152939C64.111893 82.945633,64.426834 83.705780,64.987320 84.266251C65.547791 84.826736,66.307938 85.141678,67.100632 85.141678C67.893326 85.141678,68.653473 84.826736,69.213943 84.266251C69.774429 83.705780,70.089371 82.945633,70.089371 82.152939Z" style="fill: rgb(100.000000%,100.000000%,100.000000%);stroke: none;"></path>
  <path d="M90.420837 91.058304C90.420837 90.265610,90.105896 89.505463,89.545410 88.944992C88.984940 88.384506,88.224792 88.069565,87.432098 88.069565C86.639404 88.069565,85.879257 88.384506,85.318787 88.944992C84.758301 89.505463,84.443359 90.265610,84.443359 91.058304C84.443359 91.850998,84.758301 92.611145,85.318787 93.171616C85.879257 93.732101,86.639404 94.047043,87.432098 94.047043C88.224792 94.047043,88.984940 93.732101,89.545410 93.171616C90.105896 92.611145,90.420837 91.850998,90.420837 91.058304Z" style="fill: rgb(100.000000%,100.000000%,100.000000%);stroke: none;"></path>
  <path d="M83.446625 86.548386C83.446625 85.755692,83.131683 84.995544,82.571198 84.435074C82.010727 83.874588,81.250580 83.559647,80.457886 83.559647C79.665192 83.559647,78.905045 83.874588,78.344574 84.435074C77.784088 84.995544,77.469147 85.755692,77.469147 86.548386C77.469147 87.341080,77.784088 88.101227,78.344574 88.661697C78.905045 89.222183,79.665192 89.537125,80.457886 89.537125C81.250580 89.537125,82.010727 89.222183,82.571198 88.661697C83.131683 88.101227,83.446625 87.341080,83.446625 86.548386Z" style="fill: rgb(100.000000%,100.000000%,100.000000%);stroke: none;"></path>
  <path d="M99.929504 97.587219C99.929504 96.794525,99.614563 96.034378,99.054077 95.473907C98.493607 94.913422,97.733459 94.598480,96.940765 94.598480C96.148071 94.598480,95.387924 94.913422,94.827454 95.473907C94.266968 96.034378,93.952026 96.794525,93.952026 97.587219C93.952026 98.379913,94.266968 99.140060,94.827454 99.700531C95.387924 100.261017,96.148071 100.575958,96.940765 100.575958C97.733459 100.575958,98.493607 100.261017,99.054077 99.700531C99.614563 99.140060,99.929504 98.379913,99.929504 97.587219Z" style="fill: rgb(100.000000%,100.000000%,100.000000%);stroke: none;"></path>
  <path d="M93.612045 92.957703C93.612045 92.165009,93.297104 91.404861,92.736618 90.844391C92.176147 90.283905,91.416000 89.968964,90.623306 89.968964C89.830612 89.968964,89.070465 90.283905,88.509995 90.844391C87.949509 91.404861,87.634567 92.165009,87.634567 92.957703C87.634567 93.750397,87.949509 94.510544,88.509995 95.071014C89.070465 95.631500,89.830612 95.946442,90.623306 95.946442C91.416000 95.946442,92.176147 95.631500,92.736618 95.071014C93.297104 94.510544,93.612045 93.750397,93.612045 92.957703Z" style="fill: rgb(100.000000%,100.000000%,100.000000%);stroke: none;"></path>
  <path d="M112.621872 109.276642C112.621872 108.483948,112.306931 107.723801,111.746445 107.163330C111.185974 106.602844,110.425827 106.287903,109.633133 106.287903C108.840439 106.287903,108.080292 106.602844,107.519821 107.163330C106.959335 107.723801,106.644394 108.483948,106.644394 109.276642C106.644394 110.069336,106.959335 110.829483,107.519821 111.389954C108.080292 111.950439,108.840439 112.265381,109.633133 112.265381C110.425827 112.265381,111.185974 111.950439,111.746445 111.389954C112.306931 110.829483,112.621872 110.069336,112.621872 109.276642Z" style="fill: rgb(100.000000%,100.000000%,100.000000%);stroke: none;"></path>
  <path d="M102.982315 100.366470C102.982315 99.573776,102.667374 98.813629,102.106888 98.253159C101.546417 97.692673,100.786270 97.377731,99.993576 97.377731C99.200882 97.377731,98.440735 97.692673,97.880264 98.253159C97.319778 98.813629,97.004837 99.573776,97.004837 100.366470C97.004837 101.159164,97.319778 101.919312,97.880264 102.479782C98.440735 103.040268,99.200882 103.355209,99.993576 103.355209C100.786270 103.355209,101.546417 103.040268,102.106888 102.479782C102.667374 101.919312,102.982315 101.159164,102.982315 100.366470Z" style="fill: rgb(100.000000%,100.000000%,100.000000%);stroke: none;"></path>
  <path d="M138.608231 129.557129C138.608231 128.764435,138.293289 128.004288,137.732803 127.443817C137.172333 126.883331,136.412186 126.568390,135.619492 126.568390C134.826797 126.568390,134.066650 126.883331,133.506180 127.443817C132.945694 128.004288,132.630753 128.764435,132.630753 129.557129C132.630753 130.349823,132.945694 131.109970,133.506180 131.670441C134.066650 132.230927,134.826797 132.545868,135.619492 132.545868C136.412186 132.545868,137.172333 132.230927,137.732803 131.670441C138.293289 131.109970,138.608231 130.349823,138.608231 129.557129Z" style="fill: rgb(100.000000%,100.000000%,100.000000%);stroke: none;"></path>
  <path d="M119.151291 115.510788C119.151291 114.718094,118.836349 113.957947,118.275864 113.397476C117.715393 112.836990,116.955246 112.522049,116.162552 112.522049C115.369858 112.522049,114.609711 112.836990,114.049240 113.397476C113.488754 113.957947,113.173813 114.718094,113.173813 115.510788C113.173813 116.303482,113.488754 117.063629,114.049240 117.624100C114.609711 118.184586,115.369858 118.499527,116.162552 118.499527C116.955246 118.499527,117.715393 118.184586,118.275864 117.624100C118.836349 117.063629,119.151291 116.303482,119.151291 115.510788Z" style="fill: rgb(100.000000%,100.000000%,100.000000%);stroke: none;"></path>
  <path d="M162.509354 166.279221C162.509354 165.486526,162.194412 164.726379,161.633926 164.165909C161.073456 163.605423,160.313309 163.290482,159.520615 163.290482C158.727921 163.290482,157.967773 163.605423,157.407303 164.165909C156.846817 164.726379,156.531876 165.486526,156.531876 166.279221C156.531876 167.071915,156.846817 167.832062,157.407303 168.392532C157.967773 168.953018,158.727921 169.267960,159.520615 169.267960C160.313309 169.267960,161.073456 168.953018,161.633926 168.392532C162.194412 167.832062,162.509354 167.071915,162.509354 166.279221Z" style="fill: rgb(100.000000%,100.000000%,100.000000%);stroke: none;"></path>
  <path d="M153.387924 136.619797C153.387924 135.827103,153.072983 135.066956,152.512497 134.506485C151.952026 133.945999,151.191879 133.631058,150.399185 133.631058C149.606491 133.631058,148.846344 133.945999,148.285873 134.506485C147.725388 135.066956,147.410446 135.827103,147.410446 136.619797C147.410446 137.412491,147.725388 138.172638,148.285873 138.733109C148.846344 139.293594,149.606491 139.608536,150.399185 139.608536C151.191879 139.608536,151.952026 139.293594,152.512497 138.733109C153.072983 138.172638,153.387924 137.412491,153.387924 136.619797Z" style="fill: rgb(100.000000%,100.000000%,100.000000%);stroke: none;"></path>
  <path d="M124.786316 199.363541C124.786316 198.570847,124.471375 197.810699,123.910889 197.250229C123.350418 196.689743,122.590271 196.374802,121.797577 196.374802C121.004883 196.374802,120.244736 196.689743,119.684265 197.250229C119.123779 197.810699,118.808838 198.570847,118.808838 199.363541C118.808838 200.156235,119.123779 200.916382,119.684265 201.476852C120.244736 202.037338,121.004883 202.352280,121.797577 202.352280C122.590271 202.352280,123.350418 202.037338,123.910889 201.476852C124.471375 200.916382,124.786316 200.156235,124.786316 199.363541Z" style="fill: rgb(100.000000%,100.000000%,100.000000%);stroke: none;"></path>
  <path d="M153.714539 181.930740C153.714539 181.138046,153.399597 180.377899,152.839111 179.817429C152.278641 179.256943,151.518494 178.942001,150.725800 178.942001C149.933105 178.942001,149.172958 179.256943,148.612488 179.817429C148.052002 180.377899,147.737061 181.138046,147.737061 181.930740C147.737061 182.723434,148.052002 183.483582,148.612488 184.044052C149.172958 184.604538,149.933105 184.919479,150.725800 184.919479C151.518494 184.919479,152.278641 184.604538,152.839111 184.044052C153.399597 183.483582,153.714539 182.723434,153.714539 181.930740Z" style="fill: rgb(100.000000%,100.000000%,100.000000%);stroke: none;"></path>
  <path d="M86.126526 178.185562C86.126526 177.392868,85.811584 176.632721,85.251099 176.072250C84.690628 175.511765,83.930481 175.196823,83.137787 175.196823C82.345093 175.196823,81.584946 175.511765,81.024475 176.072250C80.463989 176.632721,80.149048 177.392868,80.149048 178.185562C80.149048 178.978256,80.463989 179.738403,81.024475 180.298874C81.584946 180.859360,82.345093 181.174301,83.137787 181.174301C83.930481 181.174301,84.690628 180.859360,85.251099 180.298874C85.811584 179.738403,86.126526 178.978256,86.126526 178.185562Z" style="fill: rgb(100.000000%,100.000000%,100.000000%);stroke: none;"></path>
  <path d="M105.694153 199.354782C105.694153 198.562088,105.379211 197.801941,104.818726 197.241470C104.258255 196.680984,103.498108 196.366043,102.705414 196.366043C101.912720 196.366043,101.152573 196.680984,100.592102 197.241470C100.031616 197.801941,99.716675 198.562088,99.716675 199.354782C99.716675 200.147476,100.031616 200.907623,100.592102 201.468094C101.152573 202.028580,101.912720 202.343521,102.705414 202.343521C103.498108 202.343521,104.258255 202.028580,104.818726 201.468094C105.379211 200.907623,105.694153 200.147476,105.694153 199.354782Z" style="fill: rgb(100.000000%,100.000000%,100.000000%);stroke: none;"></path>
  <path d="M62.360443 150.057007C62.360443 149.264313,62.045502 148.504166,61.485016 147.943695C60.924545 147.383209,60.164398 147.068268,59.371704 147.068268C58.579010 147.068268,57.818863 147.383209,57.258392 147.943695C56.697906 148.504166,56.382965 149.264313,56.382965 150.057007C56.382965 150.849701,56.697906 151.609848,57.258392 152.170319C57.818863 152.730804,58.579010 153.045746,59.371704 153.045746C60.164398 153.045746,60.924545 152.730804,61.485016 152.170319C62.045502 151.609848,62.360443 150.849701,62.360443 150.057007Z" style="fill: rgb(100.000000%,100.000000%,100.000000%);stroke: none;"></path>
  <path d="M84.430695 164.421249C84.430695 163.628555,84.115753 162.868408,83.555267 162.307938C82.994797 161.747452,82.234650 161.432510,81.441956 161.432510C80.649261 161.432510,79.889114 161.747452,79.328644 162.307938C78.768158 162.868408,78.453217 163.628555,78.453217 164.421249C78.453217 165.213943,78.768158 165.974091,79.328644 166.534561C79.889114 167.095047,80.649261 167.409988,81.441956 167.409988C82.234650 167.409988,82.994797 167.095047,83.555267 166.534561C84.115753 165.974091,84.430695 165.213943,84.430695 164.421249Z" style="fill: rgb(100.000000%,100.000000%,100.000000%);stroke: none;"></path>
  <path d="M16.609741 147.674179C16.609741 146.881485,16.294800 146.121338,15.734314 145.560867C15.173843 145.000381,14.413696 144.685440,13.621002 144.685440C12.828308 144.685440,12.068161 145.000381,11.507690 145.560867C10.947205 146.121338,10.632263 146.881485,10.632263 147.674179C10.632263 148.466873,10.947205 149.227020,11.507690 149.787491C12.068161 150.347977,12.828308 150.662918,13.621002 150.662918C14.413696 150.662918,15.173843 150.347977,15.734314 149.787491C16.294800 149.227020,16.609741 148.466873,16.609741 147.674179Z" style="fill: rgb(100.000000%,100.000000%,100.000000%);stroke: none;"></path>
  <path d="M46.951874 156.804398C46.951874 156.011703,46.636932 155.251556,46.076447 154.691086C45.515976 154.130600,44.755829 153.815659,43.963135 153.815659C43.170441 153.815659,42.410294 154.130600,41.849823 154.691086C41.289337 155.251556,40.974396 156.011703,40.974396 156.804398C40.974396 157.597092,41.289337 158.357239,41.849823 158.917709C42.410294 159.478195,43.170441 159.793137,43.963135 159.793137C44.755829 159.793137,45.515976 159.478195,46.076447 158.917709C46.636932 158.357239,46.951874 157.597092,46.951874 156.804398Z" style="fill: rgb(100.000000%,100.000000%,100.000000%);stroke: none;"></path>
  <path d="M7.836121 94.422546C7.836121 93.629852,7.521179 92.869705,6.960693 92.309235C6.400223 91.748749,5.640076 91.433807,4.847382 91.433807C4.054688 91.433807,3.294540 91.748749,2.734070 92.309235C2.173584 92.869705,1.858643 93.629852,1.858643 94.422546C1.858643 95.215240,2.173584 95.975388,2.734070 96.535858C3.294540 97.096344,4.054688 97.411285,4.847382 97.411285C5.640076 97.411285,6.400223 97.096344,6.960693 96.535858C7.521179 95.975388,7.836121 95.215240,7.836121 94.422546Z" style="fill: rgb(100.000000%,100.000000%,100.000000%);stroke: none;"></path>
  <path d="M8.740692 129.253555C8.740692 128.460861,8.425751 127.700714,7.865265 127.140244C7.304794 126.579758,6.544647 126.264816,5.751953 126.264816C4.959259 126.264816,4.199112 126.579758,3.638641 127.140244C3.078156 127.700714,2.763214 128.460861,2.763214 129.253555C2.763214 130.046249,3.078156 130.806396,3.638641 131.366867C4.199112 131.927353,4.959259 132.242294,5.751953 132.242294C6.544647 132.242294,7.304794 131.927353,7.865265 131.366867C8.425751 130.806396,8.740692 130.046249,8.740692 129.253555Z" style="fill: rgb(100.000000%,100.000000%,100.000000%);stroke: none;"></path>
  <path d="M36.540207 61.040436C36.540207 60.247742,36.225266 59.487595,35.664780 58.927124C35.104309 58.366638,34.344162 58.051697,33.551468 58.051697C32.758774 58.051697,31.998627 58.366638,31.438156 58.927124C30.877670 59.487595,30.562729 60.247742,30.562729 61.040436C30.562729 61.833130,30.877670 62.593277,31.438156 63.153748C31.998627 63.714233,32.758774 64.029175,33.551468 64.029175C34.344162 64.029175,35.104309 63.714233,35.664780 63.153748C36.225266 62.593277,36.540207 61.833130,36.540207 61.040436Z" style="fill: rgb(100.000000%,100.000000%,100.000000%);stroke: none;"></path>
  <path d="M12.744690 77.696198C12.744690 76.903503,12.429749 76.143356,11.869263 75.582886C11.308792 75.022400,10.548645 74.707458,9.755951 74.707458C8.963257 74.707458,8.203110 75.022400,7.642639 75.582886C7.082153 76.143356,6.767212 76.903503,6.767212 77.696198C6.767212 78.488892,7.082153 79.249039,7.642639 79.809509C8.203110 80.369995,8.963257 80.684937,9.755951 80.684937C10.548645 80.684937,11.308792 80.369995,11.869263 79.809509C12.429749 79.249039,12.744690 78.488892,12.744690 77.696198Z" style="fill: rgb(100.000000%,100.000000%,100.000000%);stroke: none;"></path>
  <path d="M59.822815 75.225983C59.822815 74.433289,59.507874 73.673141,58.947388 73.112671C58.386917 72.552185,57.626770 72.237244,56.834076 72.237244C56.041382 72.237244,55.281235 72.552185,54.720764 73.112671C54.160278 73.673141,53.845337 74.433289,53.845337 75.225983C53.845337 76.018677,54.160278 76.778824,54.720764 77.339294C55.281235 77.899780,56.041382 78.214722,56.834076 78.214722C57.626770 78.214722,58.386917 77.899780,58.947388 77.339294C59.507874 76.778824,59.822815 76.018677,59.822815 75.225983Z" style="fill: rgb(100.000000%,100.000000%,100.000000%);stroke: none;"></path>
  <path d="M50.755508 61.068375C50.755508 60.275681,50.440567 59.515533,49.880081 58.955063C49.319611 58.394577,48.559464 58.079636,47.766769 58.079636C46.974075 58.079636,46.213928 58.394577,45.653458 58.955063C45.092972 59.515533,44.778030 60.275681,44.778030 61.068375C44.778030 61.861069,45.092972 62.621216,45.653458 63.181686C46.213928 63.742172,46.974075 64.057114,47.766769 64.057114C48.559464 64.057114,49.319611 63.742172,49.880081 63.181686C50.440567 62.621216,50.755508 61.861069,50.755508 61.068375Z" style="fill: rgb(100.000000%,100.000000%,100.000000%);stroke: none;"></path>
  <path d="M60.668427 89.710236C60.668427 88.917542,60.353485 88.157394,59.792999 87.596924C59.232529 87.036438,58.472382 86.721497,57.679688 86.721497C56.886993 86.721497,56.126846 87.036438,55.566376 87.596924C55.005890 88.157394,54.690948 88.917542,54.690948 89.710236C54.690948 90.502930,55.005890 91.263077,55.566376 91.823547C56.126846 92.384033,56.886993 92.698975,57.679688 92.698975C58.472382 92.698975,59.232529 92.384033,59.792999 91.823547C60.353485 91.263077,60.668427 90.502930,60.668427 89.710236Z" style="fill: rgb(100.000000%,100.000000%,100.000000%);stroke: none;"></path>
  <path d="M60.063034 80.364014C60.063034 79.571320,59.748093 78.811172,59.187607 78.250702C58.627136 77.690216,57.866989 77.375275,57.074295 77.375275C56.281601 77.375275,55.521454 77.690216,54.960983 78.250702C54.400497 78.811172,54.085556 79.571320,54.085556 80.364014C54.085556 81.156708,54.400497 81.916855,54.960983 82.477325C55.521454 83.037811,56.281601 83.352753,57.074295 83.352753C57.866989 83.352753,58.627136 83.037811,59.187607 82.477325C59.748093 81.916855,60.063034 81.156708,60.063034 80.364014Z" style="fill: rgb(100.000000%,100.000000%,100.000000%);stroke: none;"></path>
  <path d="M66.386917 101.870331C66.386917 101.077637,66.071976 100.317490,65.511490 99.757019C64.951019 99.196533,64.190872 98.881592,63.398178 98.881592C62.605484 98.881592,61.845337 99.196533,61.284866 99.757019C60.724380 100.317490,60.409439 101.077637,60.409439 101.870331C60.409439 102.663025,60.724380 103.423172,61.284866 103.983643C61.845337 104.544128,62.605484 104.859070,63.398178 104.859070C64.190872 104.859070,64.951019 104.544128,65.511490 103.983643C66.071976 103.423172,66.386917 102.663025,66.386917 101.870331Z" style="fill: rgb(100.000000%,100.000000%,100.000000%);stroke: none;"></path>
  <path d="M61.120712 94.229828C61.120712 93.437134,60.805771 92.676987,60.245285 92.116516C59.684814 91.556030,58.924667 91.241089,58.131973 91.241089C57.339279 91.241089,56.579132 91.556030,56.018661 92.116516C55.458176 92.676987,55.143234 93.437134,55.143234 94.229828C55.143234 95.022522,55.458176 95.782669,56.018661 96.343140C56.579132 96.903625,57.339279 97.218567,58.131973 97.218567C58.924667 97.218567,59.684814 96.903625,60.245285 96.343140C60.805771 95.782669,61.120712 95.022522,61.120712 94.229828Z" style="fill: rgb(100.000000%,100.000000%,100.000000%);stroke: none;"></path>
  <path d="M80.366913 109.262543C80.366913 108.469849,80.051971 107.709702,79.491486 107.149231C78.931015 106.588745,78.170868 106.273804,77.378174 106.273804C76.585480 106.273804,75.825333 106.588745,75.264862 107.149231C74.704376 107.709702,74.389435 108.469849,74.389435 109.262543C74.389435 110.055237,74.704376 110.815384,75.264862 111.375854C75.825333 111.936340,76.585480 112.251282,77.378174 112.251282C78.170868 112.251282,78.931015 111.936340,79.491486 111.375854C80.051971 110.815384,80.366913 110.055237,80.366913 109.262543Z" style="fill: rgb(100.000000%,100.000000%,100.000000%);stroke: none;"></path>
  <path d="M71.027298 103.887924C71.027298 103.095230,70.712357 102.335083,70.151871 101.774612C69.591400 101.214127,68.831253 100.899185,68.038559 100.899185C67.245865 100.899185,66.485718 101.214127,65.925247 101.774612C65.364761 102.335083,65.049820 103.095230,65.049820 103.887924C65.049820 104.680618,65.364761 105.440765,65.925247 106.001236C66.485718 106.561722,67.245865 106.876663,68.038559 106.876663C68.831253 106.876663,69.591400 106.561722,70.151871 106.001236C70.712357 105.440765,71.027298 104.680618,71.027298 103.887924Z" style="fill: rgb(100.000000%,100.000000%,100.000000%);stroke: none;"></path>
  <path d="M97.257065 111.592377C97.257065 110.799683,96.942123 110.039536,96.381638 109.479065C95.821167 108.918579,95.061020 108.603638,94.268326 108.603638C93.475632 108.603638,92.715485 108.918579,92.155014 109.479065C91.594528 110.039536,91.279587 110.799683,91.279587 111.592377C91.279587 112.385071,91.594528 113.145218,92.155014 113.705688C92.715485 114.266174,93.475632 114.581116,94.268326 114.581116C95.061020 114.581116,95.821167 114.266174,96.381638 113.705688C96.942123 113.145218,97.257065 112.385071,97.257065 111.592377Z" style="fill: rgb(100.000000%,100.000000%,100.000000%);stroke: none;"></path>
  <path d="M85.485794 113.059036C85.485794 112.266342,85.170853 111.506195,84.610367 110.945724C84.049896 110.385239,83.289749 110.070297,82.497055 110.070297C81.704361 110.070297,80.944214 110.385239,80.383743 110.945724C79.823257 111.506195,79.508316 112.266342,79.508316 113.059036C79.508316 113.851730,79.823257 114.611877,80.383743 115.172348C80.944214 115.732834,81.704361 116.047775,82.497055 116.047775C83.289749 116.047775,84.049896 115.732834,84.610367 115.172348C85.170853 114.611877,85.485794 113.851730,85.485794 113.059036Z" style="fill: rgb(100.000000%,100.000000%,100.000000%);stroke: none;"></path>
  <path d="M110.868195 99.591354C110.868195 98.798660,110.553253 98.038513,109.992767 97.478043C109.432297 96.917557,108.672150 96.602615,107.879456 96.602615C107.086761 96.602615,106.326614 96.917557,105.766144 97.478043C105.205658 98.038513,104.890717 98.798660,104.890717 99.591354C104.890717 100.384048,105.205658 101.144196,105.766144 101.704666C106.326614 102.265152,107.086761 102.580093,107.879456 102.580093C108.672150 102.580093,109.432297 102.265152,109.992767 101.704666C110.553253 101.144196,110.868195 100.384048,110.868195 99.591354Z" style="fill: rgb(100.000000%,100.000000%,100.000000%);stroke: none;"></path>
  <path d="M101.280823 106.641891C101.280823 105.849197,100.965881 105.089050,100.405396 104.528580C99.844925 103.968094,99.084778 103.653152,98.292084 103.653152C97.499390 103.653152,96.739243 103.968094,96.178772 104.528580C95.618286 105.089050,95.303345 105.849197,95.303345 106.641891C95.303345 107.434586,95.618286 108.194733,96.178772 108.755203C96.739243 109.315689,97.499390 109.630630,98.292084 109.630630C99.084778 109.630630,99.844925 109.315689,100.405396 108.755203C100.965881 108.194733,101.280823 107.434586,101.280823 106.641891Z" style="fill: rgb(100.000000%,100.000000%,100.000000%);stroke: none;"></path>
  <path d="M113.831924 90.447235C113.626816 84.862946,112.674362 79.331314,111.000000 74.000000C108.739410 66.802109,105.184326 60.040482,103.468781 52.688293C100.663589 40.666214,102.944290 27.856491,111.000000 18.550323C122.453644 5.318771,141.888672 2.596420,156.786484 11.869492C170.141129 20.182022,176.406494 36.576050,169.750046 50.435577C163.841125 62.738647,149.984024 67.793594,136.466049 70.534454C128.061722 72.238480,119.550140 73.347656,111.000000 74.000000C104.905304 74.465012,98.565399 74.787277,93.492966 78.227676C89.533203 80.913391,87.010712 85.105270,84.317932 89.044510C82.421677 91.818527,80.401230 94.504807,78.451828 97.241623C76.326782 100.225037,74.286758 103.267639,72.244827 106.308472C67.870087 112.823349,63.452866 119.369934,57.754623 124.775085C48.136383 133.898621,34.853714 140.071182,30.653137 152.799301C26.013733 166.857117,34.108047 181.455002,47.032608 189.558792C61.337372 198.527969,79.892029 198.799500,91.257584 186.969955C99.694427 178.188690,101.296219 164.179016,111.416031 157.150711C123.942413 148.451004,140.659210 155.632980,154.829468 151.025391C174.152557 144.742310,180.716614 122.765076,183.800903 102.041946C186.757782 82.174835,186.387161 60.076675,169.750046 50.435577C159.267365 44.360916,145.824234 46.992477,135.223328 41.156555C125.416153 35.757584,120.483398 24.451447,111.000000 18.550323C93.537079 7.683884,72.487000 17.840424,54.264572 28.662827C38.203018 38.201874,21.549637 50.377518,23.075684 68.373001C23.960693 78.809219,31.686310 87.499451,41.982239 88.424652C47.274612 88.900238,52.382385 87.043671,57.395370 85.320938C62.153763 83.685699,67.100632 82.152939,72.065094 83.030975C76.603531 83.833679,80.457886 86.548386,84.317932 89.044510C87.432098 91.058304,90.623306 92.957703,93.615097 95.150116C96.940765 97.587219,99.993576 100.366470,103.020660 103.164505C109.633133 109.276642,116.162552 115.510788,123.466034 120.783325C135.619492 129.557129,150.399185 136.619797,154.829468 151.025391C159.520615 166.279221,150.725800 181.930740,136.677048 190.396835C121.797577 199.363541,102.705414 199.354782,91.257584 186.969955C83.137787 178.185562,81.441956 164.421249,71.273880 157.803436C59.371704 150.057007,43.963135 156.804398,30.653137 152.799301C13.621002 147.674179,5.751953 129.253555,5.273560 110.832825C4.847382 94.422546,9.755951 77.696198,23.075684 68.373001C33.551468 61.040436,47.766769 61.068375,54.148010 71.031982C56.834076 75.225983,57.074295 80.364014,57.395370 85.320938C57.679688 89.710236,58.131973 94.229828,60.632767 97.858109C63.398178 101.870331,68.038559 103.887924,72.244827 106.308472C77.378174 109.262543,82.497055 113.059036,88.394775 112.324203C94.268326 111.592377,98.292084 106.641891,103.020660 103.164505C107.879456 99.591354,114.050797 96.406097,113.831924 90.447235" style="stroke:rgb(0.000000%,0.000000%,0.000000%); stroke-width: 0.498138;stroke-linecap: round;stroke-linejoin: round;stroke-miterlimit: 10.000000;fill: none;"></path>
  <path d="M113.831924 90.447235C113.626816 84.862946,112.674362 79.331314,111.000000 74.000000C108.739410 66.802109,105.184326 60.040482,103.468781 52.688293C100.663589 40.666214,102.944290 27.856491,111.000000 18.550323" style="stroke:rgb(0.000000%,0.000000%,0.000000%); stroke-width: 1.494400;stroke-linecap: round;stroke-linejoin: round;stroke-miterlimit: 10.000000;fill: none;"></path>
  <path d="M72.244827 106.308472C77.378174 109.262543,82.497055 113.059036,88.394775 112.324203C94.268326 111.592377,98.292084 106.641891,103.020660 103.164505C107.879456 99.591354,114.050797 96.406097,113.831924 90.447235" style="stroke:rgb(0.000000%,0.000000%,0.000000%); stroke-width: 1.494400;stroke-linecap: round;stroke-linejoin: round;stroke-miterlimit: 10.000000;fill: none;"></path>
  <path d="M113.988739 74.000000C113.988739 73.207306,113.673798 72.447159,113.113312 71.886688C112.552841 71.326202,111.792694 71.011261,111.000000 71.011261C110.207306 71.011261,109.447159 71.326202,108.886688 71.886688C108.326202 72.447159,108.011261 73.207306,108.011261 74.000000C108.011261 74.792694,108.326202 75.552841,108.886688 76.113312C109.447159 76.673798,110.207306 76.988739,111.000000 76.988739C111.792694 76.988739,112.552841 76.673798,113.113312 76.113312C113.673798 75.552841,113.988739 74.792694,113.988739 74.000000Z" style="fill: rgb(100.000000%,100.000000%,100.000000%);stroke: none;"></path>
  <path d="M112.966919 82.128738C112.493881 79.381378,111.837173 76.665649,111.000000 74.000000C109.869705 70.401047,108.415787 66.911163,107.029999 63.401993" style="stroke:rgb(0.000000%,0.000000%,0.000000%); stroke-width: 1.494400;stroke-linecap: round;stroke-linejoin: round;stroke-miterlimit: 10.000000;fill: none;"></path>
  <path d="M172.738785 50.435577C172.738785 49.642883,172.423843 48.882736,171.863358 48.322266C171.302887 47.761780,170.542740 47.446838,169.750046 47.446838C168.957352 47.446838,168.197205 47.761780,167.636734 48.322266C167.076248 48.882736,166.761307 49.642883,166.761307 50.435577C166.761307 51.228271,167.076248 51.988419,167.636734 52.548889C168.197205 53.109375,168.957352 53.424316,169.750046 53.424316C170.542740 53.424316,171.302887 53.109375,171.863358 52.548889C172.423843 51.988419,172.738785 51.228271,172.738785 50.435577Z" style="fill: rgb(100.000000%,100.000000%,100.000000%);stroke: none;"></path>
  <path d="M170.772430 29.072418C173.176041 35.942429,173.078262 43.505814,169.750046 50.435577C166.795578 56.587112,161.854065 60.926620,155.961426 64.070862" style="stroke:rgb(0.000000%,0.000000%,0.000000%); stroke-width: 0.498138;stroke-linecap: round;stroke-linejoin: round;stroke-miterlimit: 10.000000;fill: none;"></path>
  <path d="M87.306671 89.044510C87.306671 88.251816,86.991730 87.491669,86.431244 86.931198C85.870773 86.370712,85.110626 86.055771,84.317932 86.055771C83.525238 86.055771,82.765091 86.370712,82.204620 86.931198C81.644135 87.491669,81.329193 88.251816,81.329193 89.044510C81.329193 89.837204,81.644135 90.597351,82.204620 91.157822C82.765091 91.718307,83.525238 92.033249,84.317932 92.033249C85.110626 92.033249,85.870773 91.718307,86.431244 91.157822C86.991730 90.597351,87.306671 89.837204,87.306671 89.044510Z" style="fill: rgb(100.000000%,100.000000%,100.000000%);stroke: none;"></path>
  <path d="M78.445923 85.402725C80.459320 86.493744,82.387909 87.796448,84.317932 89.044510C85.875015 90.051407,87.451370 91.029709,89.012421 92.030334" style="stroke:rgb(0.000000%,0.000000%,0.000000%); stroke-width: 0.498138;stroke-linecap: round;stroke-linejoin: round;stroke-miterlimit: 10.000000;fill: none;"></path>
  <path d="M33.641876 152.799301C33.641876 152.006607,33.326935 151.246460,32.766449 150.685989C32.205978 150.125504,31.445831 149.810562,30.653137 149.810562C29.860443 149.810562,29.100296 150.125504,28.539825 150.685989C27.979340 151.246460,27.664398 152.006607,27.664398 152.799301C27.664398 153.591995,27.979340 154.352142,28.539825 154.912613C29.100296 155.473099,29.860443 155.788040,30.653137 155.788040C31.445831 155.788040,32.205978 155.473099,32.766449 154.912613C33.326935 154.352142,33.641876 153.591995,33.641876 152.799301Z" style="fill: rgb(100.000000%,100.000000%,100.000000%);stroke: none;"></path>
  <path d="M51.491440 153.898376C44.487778 154.116287,37.308136 154.801849,30.653137 152.799301C22.137070 150.236740,15.911774 144.350296,11.755692 136.801910" style="stroke:rgb(0.000000%,0.000000%,0.000000%); stroke-width: 0.498138;stroke-linecap: round;stroke-linejoin: round;stroke-miterlimit: 10.000000;fill: none;"></path>
  <path d="M157.818207 151.025391C157.818207 150.232697,157.503265 149.472549,156.942780 148.912079C156.382309 148.351593,155.622162 148.036652,154.829468 148.036652C154.036774 148.036652,153.276627 148.351593,152.716156 148.912079C152.155670 149.472549,151.840729 150.232697,151.840729 151.025391C151.840729 151.818085,152.155670 152.578232,152.716156 153.138702C153.276627 153.699188,154.036774 154.014130,154.829468 154.014130C155.622162 154.014130,156.382309 153.699188,156.942780 153.138702C157.503265 152.578232,157.818207 151.818085,157.818207 151.025391Z" style="fill: rgb(100.000000%,100.000000%,100.000000%);stroke: none;"></path>
  <path d="M142.043961 133.792450C147.811844 138.455536,152.614334 143.822601,154.829468 151.025391C157.175049 158.652313,156.149124 166.378647,152.780716 173.256516" style="stroke:rgb(0.000000%,0.000000%,0.000000%); stroke-width: 0.498138;stroke-linecap: round;stroke-linejoin: round;stroke-miterlimit: 10.000000;fill: none;"></path>
  <path d="M113.988739 18.550323C113.988739 17.757629,113.673798 16.997482,113.113312 16.437012C112.552841 15.876526,111.792694 15.561584,111.000000 15.561584C110.207306 15.561584,109.447159 15.876526,108.886688 16.437012C108.326202 16.997482,108.011261 17.757629,108.011261 18.550323C108.011261 19.343018,108.326202 20.103165,108.886688 20.663635C109.447159 21.224121,110.207306 21.539062,111.000000 21.539062C111.792694 21.539062,112.552841 21.224121,113.113312 20.663635C113.673798 20.103165,113.988739 19.343018,113.988739 18.550323Z" style="fill: rgb(100.000000%,100.000000%,100.000000%);stroke: none;"></path>
  <path d="M122.990234 30.041733C119.345734 25.802689,115.741699 21.500885,111.000000 18.550323C102.268539 13.117096,92.640289 12.939621,82.917099 15.473267" style="stroke:rgb(0.000000%,0.000000%,0.000000%); stroke-width: 0.498138;stroke-linecap: round;stroke-linejoin: round;stroke-miterlimit: 10.000000;fill: none;"></path>
  <path d="M60.384109 85.320938C60.384109 84.528244,60.069168 83.768097,59.508682 83.207626C58.948212 82.647141,58.188065 82.332199,57.395370 82.332199C56.602676 82.332199,55.842529 82.647141,55.282059 83.207626C54.721573 83.768097,54.406631 84.528244,54.406631 85.320938C54.406631 86.113632,54.721573 86.873779,55.282059 87.434250C55.842529 87.994736,56.602676 88.309677,57.395370 88.309677C58.188065 88.309677,58.948212 87.994736,59.508682 87.434250C60.069168 86.873779,60.384109 86.113632,60.384109 85.320938Z" style="fill: rgb(100.000000%,100.000000%,100.000000%);stroke: none;"></path>
  <path d="M49.793594 87.697159C52.358704 87.077118,54.888885 86.182297,57.395370 85.320938C59.774567 84.503311,62.200882 83.711304,64.652969 83.233459" style="stroke:rgb(0.000000%,0.000000%,0.000000%); stroke-width: 0.498138;stroke-linecap: round;stroke-linejoin: round;stroke-miterlimit: 10.000000;fill: none;"></path>
  <path d="M106.009399 103.164505C106.009399 102.371811,105.694458 101.611664,105.133972 101.051193C104.573502 100.490707,103.813354 100.175766,103.020660 100.175766C102.227966 100.175766,101.467819 100.490707,100.907349 101.051193C100.346863 101.611664,100.031921 102.371811,100.031921 103.164505C100.031921 103.957199,100.346863 104.717346,100.907349 105.277817C101.467819 105.838303,102.227966 106.153244,103.020660 106.153244C103.813354 106.153244,104.573502 105.838303,105.133972 105.277817C105.694458 104.717346,106.009399 103.957199,106.009399 103.164505Z" style="fill: rgb(100.000000%,100.000000%,100.000000%);stroke: none;"></path>
  <path d="M96.137100 108.773926C98.468292 107.010162,100.656372 104.903198,103.020660 103.164505C105.450058 101.377930,108.207596 99.688324,110.330429 97.700500" style="stroke:rgb(0.000000%,0.000000%,0.000000%); stroke-width: 1.494400;stroke-linecap: round;stroke-linejoin: round;stroke-miterlimit: 10.000000;fill: none;"></path>
  <path d="M94.246323 186.969955C94.246323 186.177261,93.931381 185.417114,93.370895 184.856644C92.810425 184.296158,92.050278 183.981216,91.257584 183.981216C90.464890 183.981216,89.704742 184.296158,89.144272 184.856644C88.583786 185.417114,88.268845 186.177261,88.268845 186.969955C88.268845 187.762650,88.583786 188.522797,89.144272 189.083267C89.704742 189.643753,90.464890 189.958694,91.257584 189.958694C92.050278 189.958694,92.810425 189.643753,93.370895 189.083267C93.931381 188.522797,94.246323 187.762650,94.246323 186.969955Z" style="fill: rgb(100.000000%,100.000000%,100.000000%);stroke: none;"></path>
  <path d="M70.247314 196.063889C78.094757 195.774231,85.574814 192.884720,91.257584 186.969955C95.476013 182.579315,97.985672 176.881577,100.705704 171.402954" style="stroke:rgb(0.000000%,0.000000%,0.000000%); stroke-width: 0.498138;stroke-linecap: round;stroke-linejoin: round;stroke-miterlimit: 10.000000;fill: none;"></path>
  <path d="M26.064423 68.373001C26.064423 67.580307,25.749481 66.820160,25.188995 66.259689C24.628525 65.699203,23.868378 65.384262,23.075684 65.384262C22.282990 65.384262,21.522842 65.699203,20.962372 66.259689C20.401886 66.820160,20.086945 67.580307,20.086945 68.373001C20.086945 69.165695,20.401886 69.925842,20.962372 70.486313C21.522842 71.046799,22.282990 71.361740,23.075684 71.361740C23.868378 71.361740,24.628525 71.046799,25.188995 70.486313C25.749481 69.925842,26.064423 69.165695,26.064423 68.373001Z" style="fill: rgb(100.000000%,100.000000%,100.000000%);stroke: none;"></path>
  <path d="M9.019913 86.945251C11.858749 79.546982,16.415817 73.034592,23.075684 68.373001C28.313583 64.706711,34.486359 62.880554,40.147308 63.216431" style="stroke:rgb(0.000000%,0.000000%,0.000000%); stroke-width: 0.498138;stroke-linecap: round;stroke-linejoin: round;stroke-miterlimit: 10.000000;fill: none;"></path>
  <path d="M75.233566 106.308472C75.233566 105.515778,74.918625 104.755630,74.358139 104.195160C73.797668 103.634674,73.037521 103.319733,72.244827 103.319733C71.452133 103.319733,70.691986 103.634674,70.131516 104.195160C69.571030 104.755630,69.256088 105.515778,69.256088 106.308472C69.256088 107.101166,69.571030 107.861313,70.131516 108.421783C70.691986 108.982269,71.452133 109.297211,72.244827 109.297211C73.037521 109.297211,73.797668 108.982269,74.358139 108.421783C74.918625 107.861313,75.233566 107.101166,75.233566 106.308472Z" style="fill: rgb(100.000000%,100.000000%,100.000000%);stroke: none;"></path>
  <path d="M75.317139 101.753525C74.286270 103.267197,73.265793 104.788055,72.244827 106.308472C70.057449 109.565918,67.859451 112.831284,65.496017 115.957932" style="stroke:rgb(0.000000%,0.000000%,0.000000%); stroke-width: 0.498138;stroke-linecap: round;stroke-linejoin: round;stroke-miterlimit: 10.000000;fill: none;"></path>
  <path d="M88.394775 112.324203C93.093628 111.738739,96.608612 108.453308,100.247696 105.382141" style="stroke:rgb(0.000000%,0.000000%,0.000000%); stroke-width: 0.498138;stroke-linecap: round;stroke-linejoin: round;stroke-miterlimit: 10.000000;fill: none;"></path>
  <path d="M97.913406 109.803864C98.734497 108.374847,99.478943 106.869202,100.247696 105.382141C98.652588 105.890045,97.061523 106.428253,95.470444 106.858093Z" style="stroke:rgb(0.000000%,0.000000%,0.000000%); stroke-width: 0.498138;fill: rgb(0.000000%,0.000000%,0.000000%);"></path>
  <path d="M88.394775 112.324203C93.093628 111.738739,96.608612 108.453308,100.247696 105.382141" style="stroke:rgb(0.000000%,0.000000%,0.000000%); stroke-width: 0.498138;stroke-linecap: round;stroke-linejoin: round;stroke-miterlimit: 10.000000;fill: none;"></path>
  <path d="M98.873398 108.048859C99.337189 107.166870,99.788101 106.271179,100.247696 105.382141C99.294052 105.685791,98.341858 106.000275,97.390244 106.295959Z" style="stroke:rgb(0.000000%,0.000000%,0.000000%); stroke-width: 0.498138;fill: rgb(0.000000%,0.000000%,0.000000%);"></path>
  <path d="M136.466049 70.534454C129.742569 71.897675,122.950424 72.880203,116.124817 73.552673" style="stroke:rgb(0.000000%,0.000000%,0.000000%); stroke-width: 0.498138;stroke-linecap: round;stroke-linejoin: round;stroke-miterlimit: 10.000000;fill: none;"></path>
  <path d="M118.761017 72.120651C117.885590 72.603912,117.006805 73.081207,116.124817 73.552673C117.081848 73.842957,118.040741 74.126892,119.001465 74.404190Z" style="stroke:rgb(0.000000%,0.000000%,0.000000%); stroke-width: 0.498138;fill: rgb(0.000000%,0.000000%,0.000000%);"></path>
  <path d="M78.451828 97.241623C76.751785 99.628357,75.106155 102.052994,73.470444 104.484283" style="stroke:rgb(0.000000%,0.000000%,0.000000%); stroke-width: 0.498138;stroke-linecap: round;stroke-linejoin: round;stroke-miterlimit: 10.000000;fill: none;"></path>
  <path d="M74.071213 101.545059C73.868179 102.524216,73.668640 103.504105,73.470444 104.484283C74.303680 103.931351,75.137680 103.379593,75.973618 102.830795Z" style="stroke:rgb(0.000000%,0.000000%,0.000000%); stroke-width: 0.498138;fill: rgb(0.000000%,0.000000%,0.000000%);"></path>
  <path d="M47.032608 189.558792C58.476456 196.734161,72.640274 198.342987,83.667191 192.642715" style="stroke:rgb(0.000000%,0.000000%,0.000000%); stroke-width: 0.498138;stroke-linecap: round;stroke-linejoin: round;stroke-miterlimit: 10.000000;fill: none;"></path>
  <path d="M81.617905 194.833389C82.336060 194.139648,83.020218 193.409317,83.667191 192.642715C82.667648 192.727280,81.667450 192.759918,80.669083 192.742630Z" style="stroke:rgb(0.000000%,0.000000%,0.000000%); stroke-width: 0.498138;fill: rgb(0.000000%,0.000000%,0.000000%);"></path>
  <path d="M135.223328 41.156555C127.377563 36.837357,122.651443 28.737564,116.219284 22.649033" style="stroke:rgb(0.000000%,0.000000%,0.000000%); stroke-width: 0.498138;stroke-linecap: round;stroke-linejoin: round;stroke-miterlimit: 10.000000;fill: none;"></path>
  <path d="M118.988007 23.803665C118.073196 23.393784,117.151352 23.005478,116.219284 22.649033C116.626297 23.560165,117.003555 24.486588,117.360565 25.423294Z" style="stroke:rgb(0.000000%,0.000000%,0.000000%); stroke-width: 0.498138;fill: rgb(0.000000%,0.000000%,0.000000%);"></path>
  <path d="M72.065094 83.030975C75.695862 83.673141,78.888809 85.538986,81.997101 87.537659" style="stroke:rgb(0.000000%,0.000000%,0.000000%); stroke-width: 0.498138;stroke-linecap: round;stroke-linejoin: round;stroke-miterlimit: 10.000000;fill: none;"></path>
  <path d="M79.035233 87.060287C80.023331 87.192825,81.011230 87.359543,81.997101 87.537659C81.425934 86.714584,80.845291 85.898148,80.240341 85.105728Z" style="stroke:rgb(0.000000%,0.000000%,0.000000%); stroke-width: 0.498138;fill: rgb(0.000000%,0.000000%,0.000000%);"></path>
  <path d="M123.466034 120.783325C133.188843 127.802399,144.592453 133.726334,151.033249 143.190857" style="stroke:rgb(0.000000%,0.000000%,0.000000%); stroke-width: 0.498138;stroke-linecap: round;stroke-linejoin: round;stroke-miterlimit: 10.000000;fill: none;"></path>
  <path d="M148.453552 141.659088C149.336151 142.133255,150.197021 142.642334,151.033249 143.190857C150.829834 142.211700,150.581085 141.242996,150.292297 140.283600Z" style="stroke:rgb(0.000000%,0.000000%,0.000000%); stroke-width: 0.498138;fill: rgb(0.000000%,0.000000%,0.000000%);"></path>
  <path d="M71.273880 157.803436C61.752106 151.606262,49.986221 154.685211,38.845993 154.114029" style="stroke:rgb(0.000000%,0.000000%,0.000000%); stroke-width: 0.498138;stroke-linecap: round;stroke-linejoin: round;stroke-miterlimit: 10.000000;fill: none;"></path>
  <path d="M41.645615 153.035431C40.717850 153.417603,39.785187 153.780228,38.845993 154.114029C39.746124 154.542130,40.662033 154.945221,41.588272 155.331024Z" style="stroke:rgb(0.000000%,0.000000%,0.000000%); stroke-width: 0.498138;fill: rgb(0.000000%,0.000000%,0.000000%);"></path>
  <path d="M100.478134 55.398499L106.459427 55.398499L106.459427 47.978104L100.478134 47.978104Z" style="fill: rgb(100.000000%,100.000000%,100.000000%);stroke: none;"></path>
  <path d="M100.478134 57.398499L106.459427 57.398499L106.459427 49.978104L100.478134 49.978104Z" style="fill: rgb(100.000000%,100.000000%,100.000000%);stroke: none;"></path>
  <g transform="translate(100.978134 55.898499)" style="fill: rgb(0.000000%,0.000000%,0.000000%);">
    <use xlink:href="#GLYPHcmr10_49"></use>
  </g>
  <path d="M153.795837 14.579697L159.777130 14.579697L159.777130 7.159302L153.795837 7.159302Z" style="fill: rgb(100.000000%,100.000000%,100.000000%);stroke: none;"></path>
  <path d="M153.795837 16.579697L159.777130 16.579697L159.777130 9.159302L153.795837 9.159302Z" style="fill: rgb(100.000000%,100.000000%,100.000000%);stroke: none;"></path>
  <g transform="translate(154.295837 15.079697)" style="fill: rgb(0.000000%,0.000000%,0.000000%);">
    <use xlink:href="#GLYPHcmr10_50"></use>
  </g>
  <path d="M90.502319 80.937881L96.483612 80.937881L96.483612 73.517487L90.502319 73.517487Z" style="fill: rgb(100.000000%,100.000000%,100.000000%);stroke: none;"></path>
  <path d="M90.502319 82.937881L96.483612 82.937881L96.483612 75.517487L90.502319 75.517487Z" style="fill: rgb(100.000000%,100.000000%,100.000000%);stroke: none;"></path>
  <g transform="translate(91.002319 81.437881)" style="fill: rgb(0.000000%,0.000000%,0.000000%);">
    <use xlink:href="#GLYPHcmr10_51"></use>
  </g>
  <path d="M54.763977 127.485291L60.745270 127.485291L60.745270 120.064896L54.763977 120.064896Z" style="fill: rgb(100.000000%,100.000000%,100.000000%);stroke: none;"></path>
  <path d="M54.763977 129.485291L60.745270 129.485291L60.745270 122.064896L54.763977 122.064896Z" style="fill: rgb(100.000000%,100.000000%,100.000000%);stroke: none;"></path>
  <g transform="translate(55.263977 127.985291)" style="fill: rgb(0.000000%,0.000000%,0.000000%);">
    <use xlink:href="#GLYPHcmr10_52"></use>
  </g>
  <path d="M108.425385 159.860916L114.406677 159.860916L114.406677 152.440521L108.425385 152.440521Z" style="fill: rgb(100.000000%,100.000000%,100.000000%);stroke: none;"></path>
  <path d="M108.425385 161.860916L114.406677 161.860916L114.406677 154.440521L108.425385 154.440521Z" style="fill: rgb(100.000000%,100.000000%,100.000000%);stroke: none;"></path>
  <g transform="translate(108.925385 160.360916)" style="fill: rgb(0.000000%,0.000000%,0.000000%);">
    <use xlink:href="#GLYPHcmr10_53"></use>
  </g>
  <path d="M180.810257 104.752151L186.791550 104.752151L186.791550 97.331757L180.810257 97.331757Z" style="fill: rgb(100.000000%,100.000000%,100.000000%);stroke: none;"></path>
  <path d="M180.810257 106.752151L186.791550 106.752151L186.791550 99.331757L180.810257 99.331757Z" style="fill: rgb(100.000000%,100.000000%,100.000000%);stroke: none;"></path>
  <g transform="translate(181.310257 105.252151)" style="fill: rgb(0.000000%,0.000000%,0.000000%);">
    <use xlink:href="#GLYPHcmr10_54"></use>
  </g>
  <path d="M51.273926 31.373032L57.255219 31.373032L57.255219 23.952637L51.273926 23.952637Z" style="fill: rgb(100.000000%,100.000000%,100.000000%);stroke: none;"></path>
  <path d="M51.273926 33.373032L57.255219 33.373032L57.255219 25.952637L51.273926 25.952637Z" style="fill: rgb(100.000000%,100.000000%,100.000000%);stroke: none;"></path>
  <g transform="translate(51.773926 31.873032)" style="fill: rgb(0.000000%,0.000000%,0.000000%);">
    <use xlink:href="#GLYPHcmr10_55"></use>
  </g>
  <path d="M38.991592 91.134857L44.972885 91.134857L44.972885 83.714462L38.991592 83.714462Z" style="fill: rgb(100.000000%,100.000000%,100.000000%);stroke: none;"></path>
  <path d="M38.991592 93.134857L44.972885 93.134857L44.972885 85.714462L38.991592 85.714462Z" style="fill: rgb(100.000000%,100.000000%,100.000000%);stroke: none;"></path>
  <g transform="translate(39.491592 91.634857)" style="fill: rgb(0.000000%,0.000000%,0.000000%);">
    <use xlink:href="#GLYPHcmr10_56"></use>
  </g>
  <path d="M133.686401 193.107040L139.667694 193.107040L139.667694 185.686646L133.686401 185.686646Z" style="fill: rgb(100.000000%,100.000000%,100.000000%);stroke: none;"></path>
  <path d="M133.686401 195.107040L139.667694 195.107040L139.667694 187.686646L133.686401 187.686646Z" style="fill: rgb(100.000000%,100.000000%,100.000000%);stroke: none;"></path>
  <g transform="translate(134.186401 193.607040)" style="fill: rgb(0.000000%,0.000000%,0.000000%);">
    <use xlink:href="#GLYPHcmr10_57"></use>
  </g>
  <path d="M-0.207794 113.543030L10.754913 113.543030L10.754913 106.122635L-0.207794 106.122635Z" style="fill: rgb(100.000000%,100.000000%,100.000000%);stroke: none;"></path>
  <path d="M-0.207794 115.543030L10.754913 115.543030L10.754913 108.122635L-0.207794 108.122635Z" style="fill: rgb(100.000000%,100.000000%,100.000000%);stroke: none;"></path>
  <g transform="translate(0.292206 114.043030)" style="fill: rgb(0.000000%,0.000000%,0.000000%);">
    <use xlink:href="#GLYPHcmr10_49"></use>
    <use xlink:href="#GLYPHcmr10_48" x="5.000095"></use>
  </g>
  <path d="M55.151413 100.568314L66.114120 100.568314L66.114120 93.147919L55.151413 93.147919Z" style="fill: rgb(100.000000%,100.000000%,100.000000%);stroke: none;"></path>
  <path d="M55.151413 102.568314L66.114120 102.568314L66.114120 95.147919L55.151413 95.147919Z" style="fill: rgb(100.000000%,100.000000%,100.000000%);stroke: none;"></path>
  <g transform="translate(55.651413 101.068314)" style="fill: rgb(0.000000%,0.000000%,0.000000%);">
    <use xlink:href="#GLYPHcmr10_49"></use>
    <use xlink:href="#GLYPHcmr10_49" x="5.000095"></use>
  </g>
</svg>
