<?xml version="1.0"?>
<!-- Created by MetaPost 1.999 on 2021.07.06:0001 -->
<svg version="1.1" xmlns="http://www.w3.org/2000/svg" xmlns:xlink="http://www.w3.org/1999/xlink" width="195.757050" height="206.803970" viewBox="0 0 195.757050 206.803970">
<!-- Original BoundingBox: -134.511459 -24.686569 61.245590 182.117401 -->
  <defs>
    <g transform="scale(0.009963,0.009963)" id="GLYPHcmr10_49">
      <path style="fill-rule: evenodd;" d="M294.000000 -640.000000C294.000000 -664.000000,294.000000 -666.000000,271.000000 -666.000000C209.000000 -602.000000,121.000000 -602.000000,89.000000 -602.000000L89.000000 -571.000000C109.000000 -571.000000,168.000000 -571.000000,220.000000 -597.000000L220.000000 -79.000000C220.000000 -43.000000,217.000000 -31.000000,127.000000 -31.000000L95.000000 -31.000000L95.000000 -0.000000L257.000000 -0.000000L130.000000 -3.000000L217.000000 -3.000000L257.000000 -3.000000L297.000000 -3.000000L384.000000 -3.000000L419.000000 -0.000000L419.000000 -31.000000L387.000000 -31.000000C297.000000 -31.000000,294.000000 -42.000000,294.000000 -79.000000"></path>
    </g>
    <g transform="scale(0.009963,0.009963)" id="GLYPHcmr10_50">
      <path style="fill-rule: evenodd;" d="M127.000000 -77.000000L233.000000 -180.000000C389.000000 -318.000000,449.000000 -372.000000,449.000000 -472.000000C449.000000 -586.000000,359.000000 -666.000000,237.000000 -666.000000C124.000000 -666.000000,50.000000 -574.000000,50.000000 -485.000000C50.000000 -429.000000,100.000000 -429.000000,103.000000 -429.000000C120.000000 -429.000000,155.000000 -441.000000,155.000000 -482.000000C155.000000 -508.000000,137.000000 -534.000000,102.000000 -534.000000C94.000000 -534.000000,92.000000 -534.000000,89.000000 -533.000000C112.000000 -598.000000,166.000000 -635.000000,224.000000 -635.000000C315.000000 -635.000000,358.000000 -554.000000,358.000000 -472.000000C358.000000 -392.000000,308.000000 -313.000000,253.000000 -251.000000L61.000000 -37.000000C50.000000 -26.000000,50.000000 -24.000000,50.000000 -0.000000L421.000000 -0.000000L449.000000 -174.000000L424.000000 -174.000000C419.000000 -144.000000,412.000000 -100.000000,402.000000 -85.000000C395.000000 -77.000000,329.000000 -77.000000,307.000000 -77.000000"></path>
    </g>
    <g transform="scale(0.009963,0.009963)" id="GLYPHcmr10_51">
      <path style="fill-rule: evenodd;" d="M290.000000 -352.000000C372.000000 -379.000000,430.000000 -449.000000,430.000000 -528.000000C430.000000 -610.000000,342.000000 -666.000000,246.000000 -666.000000C145.000000 -666.000000,69.000000 -606.000000,69.000000 -530.000000C69.000000 -497.000000,91.000000 -478.000000,120.000000 -478.000000C151.000000 -478.000000,171.000000 -500.000000,171.000000 -529.000000C171.000000 -579.000000,124.000000 -579.000000,109.000000 -579.000000C140.000000 -628.000000,206.000000 -641.000000,242.000000 -641.000000C283.000000 -641.000000,338.000000 -619.000000,338.000000 -529.000000C338.000000 -517.000000,336.000000 -459.000000,310.000000 -415.000000C280.000000 -367.000000,246.000000 -364.000000,221.000000 -363.000000C213.000000 -362.000000,189.000000 -360.000000,182.000000 -360.000000C174.000000 -359.000000,167.000000 -358.000000,167.000000 -348.000000C167.000000 -337.000000,174.000000 -337.000000,191.000000 -337.000000L235.000000 -337.000000C317.000000 -337.000000,354.000000 -269.000000,354.000000 -171.000000C354.000000 -35.000000,285.000000 -6.000000,241.000000 -6.000000C198.000000 -6.000000,123.000000 -23.000000,88.000000 -82.000000C123.000000 -77.000000,154.000000 -99.000000,154.000000 -137.000000C154.000000 -173.000000,127.000000 -193.000000,98.000000 -193.000000C74.000000 -193.000000,42.000000 -179.000000,42.000000 -135.000000C42.000000 -44.000000,135.000000 22.000000,244.000000 22.000000C366.000000 22.000000,457.000000 -69.000000,457.000000 -171.000000C457.000000 -253.000000,394.000000 -331.000000,290.000000 -352.000000"></path>
    </g>
    <g transform="scale(0.009963,0.009963)" id="GLYPHcmr10_52">
      <path style="fill-rule: evenodd;" d="M294.000000 -165.000000L294.000000 -78.000000C294.000000 -42.000000,292.000000 -31.000000,218.000000 -31.000000L197.000000 -31.000000L197.000000 -0.000000L332.000000 -0.000000L238.000000 -3.000000L290.000000 -3.000000L332.000000 -3.000000L374.000000 -3.000000L427.000000 -3.000000L468.000000 -0.000000L468.000000 -31.000000L447.000000 -31.000000C373.000000 -31.000000,371.000000 -42.000000,371.000000 -78.000000L371.000000 -165.000000L471.000000 -165.000000L471.000000 -196.000000L371.000000 -196.000000L371.000000 -651.000000C371.000000 -671.000000,371.000000 -677.000000,355.000000 -677.000000C346.000000 -677.000000,343.000000 -677.000000,335.000000 -665.000000L28.000000 -196.000000L28.000000 -165.000000M300.000000 -196.000000L56.000000 -196.000000L300.000000 -569.000000"></path>
    </g>
    <g transform="scale(0.009963,0.009963)" id="GLYPHcmr10_53">
      <path style="fill-rule: evenodd;" d="M449.000000 -201.000000C449.000000 -320.000000,367.000000 -420.000000,259.000000 -420.000000C211.000000 -420.000000,168.000000 -404.000000,132.000000 -369.000000L132.000000 -564.000000C152.000000 -558.000000,185.000000 -551.000000,217.000000 -551.000000C340.000000 -551.000000,410.000000 -642.000000,410.000000 -655.000000C410.000000 -661.000000,407.000000 -666.000000,400.000000 -666.000000C399.000000 -666.000000,397.000000 -666.000000,392.000000 -663.000000C372.000000 -654.000000,323.000000 -634.000000,256.000000 -634.000000C216.000000 -634.000000,170.000000 -641.000000,123.000000 -662.000000C115.000000 -665.000000,113.000000 -665.000000,111.000000 -665.000000C101.000000 -665.000000,101.000000 -657.000000,101.000000 -641.000000L101.000000 -345.000000C101.000000 -327.000000,101.000000 -319.000000,115.000000 -319.000000C122.000000 -319.000000,124.000000 -322.000000,128.000000 -328.000000C139.000000 -344.000000,176.000000 -398.000000,257.000000 -398.000000C309.000000 -398.000000,334.000000 -352.000000,342.000000 -334.000000C358.000000 -297.000000,360.000000 -258.000000,360.000000 -208.000000C360.000000 -173.000000,360.000000 -113.000000,336.000000 -71.000000C312.000000 -32.000000,275.000000 -6.000000,229.000000 -6.000000C156.000000 -6.000000,99.000000 -59.000000,82.000000 -118.000000C85.000000 -117.000000,88.000000 -116.000000,99.000000 -116.000000C132.000000 -116.000000,149.000000 -141.000000,149.000000 -165.000000C149.000000 -189.000000,132.000000 -214.000000,99.000000 -214.000000C85.000000 -214.000000,50.000000 -207.000000,50.000000 -161.000000C50.000000 -75.000000,119.000000 22.000000,231.000000 22.000000C347.000000 22.000000,449.000000 -74.000000,449.000000 -201.000000"></path>
    </g>
    <g transform="scale(0.009963,0.009963)" id="GLYPHcmr10_54">
      <path style="fill-rule: evenodd;" d="M132.000000 -328.000000L132.000000 -352.000000C132.000000 -605.000000,256.000000 -641.000000,307.000000 -641.000000C331.000000 -641.000000,373.000000 -635.000000,395.000000 -601.000000C380.000000 -601.000000,340.000000 -601.000000,340.000000 -556.000000C340.000000 -525.000000,364.000000 -510.000000,386.000000 -510.000000C402.000000 -510.000000,432.000000 -519.000000,432.000000 -558.000000C432.000000 -618.000000,388.000000 -666.000000,305.000000 -666.000000C177.000000 -666.000000,42.000000 -537.000000,42.000000 -316.000000C42.000000 -49.000000,158.000000 22.000000,251.000000 22.000000C362.000000 22.000000,457.000000 -72.000000,457.000000 -204.000000C457.000000 -331.000000,368.000000 -427.000000,257.000000 -427.000000C189.000000 -427.000000,152.000000 -376.000000,132.000000 -328.000000M251.000000 -6.000000C188.000000 -6.000000,158.000000 -66.000000,152.000000 -81.000000C134.000000 -128.000000,134.000000 -208.000000,134.000000 -226.000000C134.000000 -304.000000,166.000000 -404.000000,256.000000 -404.000000C272.000000 -404.000000,318.000000 -404.000000,349.000000 -342.000000C367.000000 -305.000000,367.000000 -254.000000,367.000000 -205.000000C367.000000 -157.000000,367.000000 -107.000000,350.000000 -71.000000C320.000000 -11.000000,274.000000 -6.000000,251.000000 -6.000000"></path>
    </g>
    <g transform="scale(0.009963,0.009963)" id="GLYPHcmr10_55">
      <path style="fill-rule: evenodd;" d="M476.000000 -609.000000C485.000000 -621.000000,485.000000 -623.000000,485.000000 -644.000000L242.000000 -644.000000C120.000000 -644.000000,118.000000 -657.000000,114.000000 -676.000000L89.000000 -676.000000L56.000000 -470.000000L81.000000 -470.000000C84.000000 -486.000000,93.000000 -549.000000,106.000000 -561.000000C113.000000 -567.000000,191.000000 -567.000000,204.000000 -567.000000L411.000000 -567.000000C400.000000 -551.000000,321.000000 -442.000000,299.000000 -409.000000C209.000000 -274.000000,176.000000 -135.000000,176.000000 -33.000000C176.000000 -23.000000,176.000000 22.000000,222.000000 22.000000C268.000000 22.000000,268.000000 -23.000000,268.000000 -33.000000L268.000000 -84.000000C268.000000 -139.000000,271.000000 -194.000000,279.000000 -248.000000C283.000000 -271.000000,297.000000 -357.000000,341.000000 -419.000000"></path>
    </g>
    <g transform="scale(0.009963,0.009963)" id="GLYPHcmr10_56">
      <path style="fill-rule: evenodd;" d="M163.000000 -457.000000C117.000000 -487.000000,113.000000 -521.000000,113.000000 -538.000000C113.000000 -599.000000,178.000000 -641.000000,249.000000 -641.000000C322.000000 -641.000000,386.000000 -589.000000,386.000000 -517.000000C386.000000 -460.000000,347.000000 -412.000000,287.000000 -377.000000M309.000000 -362.000000C381.000000 -399.000000,430.000000 -451.000000,430.000000 -517.000000C430.000000 -609.000000,341.000000 -666.000000,250.000000 -666.000000C150.000000 -666.000000,69.000000 -592.000000,69.000000 -499.000000C69.000000 -481.000000,71.000000 -436.000000,113.000000 -389.000000C124.000000 -377.000000,161.000000 -352.000000,186.000000 -335.000000C128.000000 -306.000000,42.000000 -250.000000,42.000000 -151.000000C42.000000 -45.000000,144.000000 22.000000,249.000000 22.000000C362.000000 22.000000,457.000000 -61.000000,457.000000 -168.000000C457.000000 -204.000000,446.000000 -249.000000,408.000000 -291.000000C389.000000 -312.000000,373.000000 -322.000000,309.000000 -362.000000M209.000000 -320.000000L332.000000 -242.000000C360.000000 -223.000000,407.000000 -193.000000,407.000000 -132.000000C407.000000 -58.000000,332.000000 -6.000000,250.000000 -6.000000C164.000000 -6.000000,92.000000 -68.000000,92.000000 -151.000000C92.000000 -209.000000,124.000000 -273.000000,209.000000 -320.000000"></path>
    </g>
    <g transform="scale(0.009963,0.009963)" id="GLYPHcmr10_57">
      <path style="fill-rule: evenodd;" d="M367.000000 -318.000000L367.000000 -286.000000C367.000000 -52.000000,263.000000 -6.000000,205.000000 -6.000000C188.000000 -6.000000,134.000000 -8.000000,107.000000 -42.000000C151.000000 -42.000000,159.000000 -71.000000,159.000000 -88.000000C159.000000 -119.000000,135.000000 -134.000000,113.000000 -134.000000C97.000000 -134.000000,67.000000 -125.000000,67.000000 -86.000000C67.000000 -19.000000,121.000000 22.000000,206.000000 22.000000C335.000000 22.000000,457.000000 -114.000000,457.000000 -329.000000C457.000000 -598.000000,342.000000 -666.000000,253.000000 -666.000000C198.000000 -666.000000,149.000000 -648.000000,106.000000 -603.000000C65.000000 -558.000000,42.000000 -516.000000,42.000000 -441.000000C42.000000 -316.000000,130.000000 -218.000000,242.000000 -218.000000C303.000000 -218.000000,344.000000 -260.000000,367.000000 -318.000000M243.000000 -241.000000C227.000000 -241.000000,181.000000 -241.000000,150.000000 -304.000000C132.000000 -341.000000,132.000000 -391.000000,132.000000 -440.000000C132.000000 -494.000000,132.000000 -541.000000,153.000000 -578.000000C180.000000 -628.000000,218.000000 -641.000000,253.000000 -641.000000C299.000000 -641.000000,332.000000 -607.000000,349.000000 -562.000000C361.000000 -530.000000,365.000000 -467.000000,365.000000 -421.000000C365.000000 -338.000000,331.000000 -241.000000,243.000000 -241.000000"></path>
    </g>
  </defs>
  <path d="M94.910446 203.697830C94.910446 202.905136,94.595505 202.144989,94.035019 201.584518C93.474548 201.024033,92.714401 200.709091,91.921707 200.709091C91.129013 200.709091,90.368866 201.024033,89.808395 201.584518C89.247910 202.144989,88.932968 202.905136,88.932968 203.697830C88.932968 204.490524,89.247910 205.250671,89.808395 205.811142C90.368866 206.371628,91.129013 206.686569,91.921707 206.686569C92.714401 206.686569,93.474548 206.371628,94.035019 205.811142C94.595505 205.250671,94.910446 204.490524,94.910446 203.697830Z" style="fill: rgb(100.000000%,100.000000%,100.000000%);stroke: none;"></path>
  <path d="M77.851364 186.894760C77.851364 186.102066,77.536423 185.341919,76.975937 184.781448C76.415466 184.220963,75.655319 183.906021,74.862625 183.906021C74.069931 183.906021,73.309784 184.220963,72.749313 184.781448C72.188828 185.341919,71.873886 186.102066,71.873886 186.894760C71.873886 187.687454,72.188828 188.447601,72.749313 189.008072C73.309784 189.568558,74.069931 189.883499,74.862625 189.883499C75.655319 189.883499,76.415466 189.568558,76.975937 189.008072C77.536423 188.447601,77.851364 187.687454,77.851364 186.894760Z" style="fill: rgb(100.000000%,100.000000%,100.000000%);stroke: none;"></path>
  <path d="M143.558105 172.948105C143.558105 172.155411,143.243164 171.395264,142.682678 170.834793C142.122208 170.274307,141.362061 169.959366,140.569366 169.959366C139.776672 169.959366,139.016525 170.274307,138.456055 170.834793C137.895569 171.395264,137.580627 172.155411,137.580627 172.948105C137.580627 173.740799,137.895569 174.500946,138.456055 175.061417C139.016525 175.621902,139.776672 175.936844,140.569366 175.936844C141.362061 175.936844,142.122208 175.621902,142.682678 175.061417C143.243164 174.500946,143.558105 173.740799,143.558105 172.948105Z" style="fill: rgb(100.000000%,100.000000%,100.000000%);stroke: none;"></path>
  <path d="M122.924438 201.379135C122.924438 200.586441,122.609497 199.826294,122.049011 199.265823C121.488541 198.705338,120.728394 198.390396,119.935699 198.390396C119.143005 198.390396,118.382858 198.705338,117.822388 199.265823C117.261902 199.826294,116.946960 200.586441,116.946960 201.379135C116.946960 202.171829,117.261902 202.931976,117.822388 203.492447C118.382858 204.052933,119.143005 204.367874,119.935699 204.367874C120.728394 204.367874,121.488541 204.052933,122.049011 203.492447C122.609497 202.931976,122.924438 202.171829,122.924438 201.379135Z" style="fill: rgb(100.000000%,100.000000%,100.000000%);stroke: none;"></path>
  <path d="M140.938675 146.165543C140.938675 145.372849,140.623734 144.612701,140.063248 144.052231C139.502777 143.491745,138.742630 143.176804,137.949936 143.176804C137.157242 143.176804,136.397095 143.491745,135.836624 144.052231C135.276138 144.612701,134.961197 145.372849,134.961197 146.165543C134.961197 146.958237,135.276138 147.718384,135.836624 148.278854C136.397095 148.839340,137.157242 149.154282,137.949936 149.154282C138.742630 149.154282,139.502777 148.839340,140.063248 148.278854C140.623734 147.718384,140.938675 146.958237,140.938675 146.165543Z" style="fill: rgb(100.000000%,100.000000%,100.000000%);stroke: none;"></path>
  <path d="M145.510376 161.344727C145.510376 160.552032,145.195435 159.791885,144.634949 159.231415C144.074478 158.670929,143.314331 158.355988,142.521637 158.355988C141.728943 158.355988,140.968796 158.670929,140.408325 159.231415C139.847839 159.791885,139.532898 160.552032,139.532898 161.344727C139.532898 162.137421,139.847839 162.897568,140.408325 163.458038C140.968796 164.018524,141.728943 164.333466,142.521637 164.333466C143.314331 164.333466,144.074478 164.018524,144.634949 163.458038C145.195435 162.897568,145.510376 162.137421,145.510376 161.344727Z" style="fill: rgb(100.000000%,100.000000%,100.000000%);stroke: none;"></path>
  <path d="M135.766861 134.620224C135.766861 133.827530,135.451920 133.067383,134.891434 132.506912C134.330963 131.946426,133.570816 131.631485,132.778122 131.631485C131.985428 131.631485,131.225281 131.946426,130.664810 132.506912C130.104324 133.067383,129.789383 133.827530,129.789383 134.620224C129.789383 135.412918,130.104324 136.173065,130.664810 136.733536C131.225281 137.294022,131.985428 137.608963,132.778122 137.608963C133.570816 137.608963,134.330963 137.294022,134.891434 136.733536C135.451920 136.173065,135.766861 135.412918,135.766861 134.620224Z" style="fill: rgb(100.000000%,100.000000%,100.000000%);stroke: none;"></path>
  <path d="M138.712296 142.028687C138.712296 141.235992,138.397354 140.475845,137.836868 139.915375C137.276398 139.354889,136.516251 139.039948,135.723557 139.039948C134.930862 139.039948,134.170715 139.354889,133.610245 139.915375C133.049759 140.475845,132.734818 141.235992,132.734818 142.028687C132.734818 142.821381,133.049759 143.581528,133.610245 144.141998C134.170715 144.702484,134.930862 145.017426,135.723557 145.017426C136.516251 145.017426,137.276398 144.702484,137.836868 144.141998C138.397354 143.581528,138.712296 142.821381,138.712296 142.028687Z" style="fill: rgb(100.000000%,100.000000%,100.000000%);stroke: none;"></path>
  <path d="M127.845337 131.554352C127.845337 130.761658,127.530396 130.001511,126.969910 129.441040C126.409439 128.880554,125.649292 128.565613,124.856598 128.565613C124.063904 128.565613,123.303757 128.880554,122.743286 129.441040C122.182800 130.001511,121.867859 130.761658,121.867859 131.554352C121.867859 132.347046,122.182800 133.107193,122.743286 133.667664C123.303757 134.228149,124.063904 134.543091,124.856598 134.543091C125.649292 134.543091,126.409439 134.228149,126.969910 133.667664C127.530396 133.107193,127.845337 132.347046,127.845337 131.554352Z" style="fill: rgb(100.000000%,100.000000%,100.000000%);stroke: none;"></path>
  <path d="M134.113297 131.313370C134.113297 130.520676,133.798355 129.760529,133.237869 129.200058C132.677399 128.639572,131.917252 128.324631,131.124557 128.324631C130.331863 128.324631,129.571716 128.639572,129.011246 129.200058C128.450760 129.760529,128.135818 130.520676,128.135818 131.313370C128.135818 132.106064,128.450760 132.866211,129.011246 133.426682C129.571716 133.987167,130.331863 134.302109,131.124557 134.302109C131.917252 134.302109,132.677399 133.987167,133.237869 133.426682C133.798355 132.866211,134.113297 132.106064,134.113297 131.313370Z" style="fill: rgb(100.000000%,100.000000%,100.000000%);stroke: none;"></path>
  <path d="M123.558350 143.221283C123.558350 142.428589,123.243408 141.668442,122.682922 141.107971C122.122452 140.547485,121.362305 140.232544,120.569611 140.232544C119.776917 140.232544,119.016769 140.547485,118.456299 141.107971C117.895813 141.668442,117.580872 142.428589,117.580872 143.221283C117.580872 144.013977,117.895813 144.774124,118.456299 145.334595C119.016769 145.895081,119.776917 146.210022,120.569611 146.210022C121.362305 146.210022,122.122452 145.895081,122.682922 145.334595C123.243408 144.774124,123.558350 144.013977,123.558350 143.221283Z" style="fill: rgb(100.000000%,100.000000%,100.000000%);stroke: none;"></path>
  <path d="M126.478195 134.995270C126.478195 134.202576,126.163254 133.442429,125.602768 132.881958C125.042297 132.321472,124.282150 132.006531,123.489456 132.006531C122.696762 132.006531,121.936615 132.321472,121.376144 132.881958C120.815659 133.442429,120.500717 134.202576,120.500717 134.995270C120.500717 135.787964,120.815659 136.548111,121.376144 137.108582C121.936615 137.669067,122.696762 137.984009,123.489456 137.984009C124.282150 137.984009,125.042297 137.669067,125.602768 137.108582C126.163254 136.548111,126.478195 135.787964,126.478195 134.995270Z" style="fill: rgb(100.000000%,100.000000%,100.000000%);stroke: none;"></path>
  <path d="M117.346680 165.708801C117.346680 164.916107,117.031738 164.155960,116.471252 163.595490C115.910782 163.035004,115.150635 162.720062,114.357941 162.720062C113.565247 162.720062,112.805099 163.035004,112.244629 163.595490C111.684143 164.155960,111.369202 164.916107,111.369202 165.708801C111.369202 166.501495,111.684143 167.261642,112.244629 167.822113C112.805099 168.382599,113.565247 168.697540,114.357941 168.697540C115.150635 168.697540,115.910782 168.382599,116.471252 167.822113C117.031738 167.261642,117.346680 166.501495,117.346680 165.708801Z" style="fill: rgb(100.000000%,100.000000%,100.000000%);stroke: none;"></path>
  <path d="M120.627167 147.956375C120.627167 147.163681,120.312225 146.403534,119.751740 145.843063C119.191269 145.282578,118.431122 144.967636,117.638428 144.967636C116.845734 144.967636,116.085587 145.282578,115.525116 145.843063C114.964630 146.403534,114.649689 147.163681,114.649689 147.956375C114.649689 148.749069,114.964630 149.509216,115.525116 150.069687C116.085587 150.630173,116.845734 150.945114,117.638428 150.945114C118.431122 150.945114,119.191269 150.630173,119.751740 150.069687C120.312225 149.509216,120.627167 148.749069,120.627167 147.956375Z" style="fill: rgb(100.000000%,100.000000%,100.000000%);stroke: none;"></path>
  <path d="M155.262482 188.619858C155.262482 187.827164,154.947540 187.067017,154.387054 186.506546C153.826584 185.946060,153.066437 185.631119,152.273743 185.631119C151.481049 185.631119,150.720901 185.946060,150.160431 186.506546C149.599945 187.067017,149.285004 187.827164,149.285004 188.619858C149.285004 189.412552,149.599945 190.172699,150.160431 190.733170C150.720901 191.293655,151.481049 191.608597,152.273743 191.608597C153.066437 191.608597,153.826584 191.293655,154.387054 190.733170C154.947540 190.172699,155.262482 189.412552,155.262482 188.619858Z" style="fill: rgb(100.000000%,100.000000%,100.000000%);stroke: none;"></path>
  <path d="M124.996994 177.655869C124.996994 176.863174,124.682053 176.103027,124.121567 175.542557C123.561096 174.982071,122.800949 174.667130,122.008255 174.667130C121.215561 174.667130,120.455414 174.982071,119.894943 175.542557C119.334457 176.103027,119.019516 176.863174,119.019516 177.655869C119.019516 178.448563,119.334457 179.208710,119.894943 179.769180C120.455414 180.329666,121.215561 180.644608,122.008255 180.644608C122.800949 180.644608,123.561096 180.329666,124.121567 179.769180C124.682053 179.208710,124.996994 178.448563,124.996994 177.655869Z" style="fill: rgb(100.000000%,100.000000%,100.000000%);stroke: none;"></path>
  <path d="M195.245590 139.588715C195.245590 138.796021,194.930649 138.035873,194.370163 137.475403C193.809692 136.914917,193.049545 136.599976,192.256851 136.599976C191.464157 136.599976,190.704010 136.914917,190.143539 137.475403C189.583054 138.035873,189.268112 138.796021,189.268112 139.588715C189.268112 140.381409,189.583054 141.141556,190.143539 141.702026C190.704010 142.262512,191.464157 142.577454,192.256851 142.577454C193.049545 142.577454,193.809692 142.262512,194.370163 141.702026C194.930649 141.141556,195.245590 140.381409,195.245590 139.588715Z" style="fill: rgb(100.000000%,100.000000%,100.000000%);stroke: none;"></path>
  <path d="M174.272263 176.852127C174.272263 176.059433,173.957321 175.299286,173.396835 174.738815C172.836365 174.178329,172.076218 173.863388,171.283524 173.863388C170.490829 173.863388,169.730682 174.178329,169.170212 174.738815C168.609726 175.299286,168.294785 176.059433,168.294785 176.852127C168.294785 177.644821,168.609726 178.404968,169.170212 178.965439C169.730682 179.525925,170.490829 179.840866,171.283524 179.840866C172.076218 179.840866,172.836365 179.525925,173.396835 178.965439C173.957321 178.404968,174.272263 177.644821,174.272263 176.852127Z" style="fill: rgb(100.000000%,100.000000%,100.000000%);stroke: none;"></path>
  <path d="M166.753082 94.224960C166.753082 93.432266,166.438141 92.672119,165.877655 92.111649C165.317184 91.551163,164.557037 91.236221,163.764343 91.236221C162.971649 91.236221,162.211502 91.551163,161.651031 92.111649C161.090546 92.672119,160.775604 93.432266,160.775604 94.224960C160.775604 95.017654,161.090546 95.777802,161.651031 96.338272C162.211502 96.898758,162.971649 97.213699,163.764343 97.213699C164.557037 97.213699,165.317184 96.898758,165.877655 96.338272C166.438141 95.777802,166.753082 95.017654,166.753082 94.224960Z" style="fill: rgb(100.000000%,100.000000%,100.000000%);stroke: none;"></path>
  <path d="M194.522629 114.879623C194.522629 114.086929,194.207687 113.326782,193.647202 112.766312C193.086731 112.205826,192.326584 111.890884,191.533890 111.890884C190.741196 111.890884,189.981049 112.205826,189.420578 112.766312C188.860092 113.326782,188.545151 114.086929,188.545151 114.879623C188.545151 115.672318,188.860092 116.432465,189.420578 116.992935C189.981049 117.553421,190.741196 117.868362,191.533890 117.868362C192.326584 117.868362,193.086731 117.553421,193.647202 116.992935C194.207687 116.432465,194.522629 115.672318,194.522629 114.879623Z" style="fill: rgb(100.000000%,100.000000%,100.000000%);stroke: none;"></path>
  <path d="M132.337769 94.793930C132.337769 94.001236,132.022827 93.241089,131.462341 92.680618C130.901871 92.120132,130.141724 91.805191,129.349030 91.805191C128.556335 91.805191,127.796188 92.120132,127.235718 92.680618C126.675232 93.241089,126.360291 94.001236,126.360291 94.793930C126.360291 95.586624,126.675232 96.346771,127.235718 96.907242C127.796188 97.467728,128.556335 97.782669,129.349030 97.782669C130.141724 97.782669,130.901871 97.467728,131.462341 96.907242C132.022827 96.346771,132.337769 95.586624,132.337769 94.793930Z" style="fill: rgb(100.000000%,100.000000%,100.000000%);stroke: none;"></path>
  <path d="M152.867249 94.243988C152.867249 93.451294,152.552307 92.691147,151.991821 92.130676C151.431351 91.570190,150.671204 91.255249,149.878510 91.255249C149.085815 91.255249,148.325668 91.570190,147.765198 92.130676C147.204712 92.691147,146.889771 93.451294,146.889771 94.243988C146.889771 95.036682,147.204712 95.796829,147.765198 96.357300C148.325668 96.917786,149.085815 97.232727,149.878510 97.232727C150.671204 97.232727,151.431351 96.917786,151.991821 96.357300C152.552307 95.796829,152.867249 95.036682,152.867249 94.243988Z" style="fill: rgb(100.000000%,100.000000%,100.000000%);stroke: none;"></path>
  <path d="M112.351349 94.114548C112.351349 93.321854,112.036407 92.561707,111.475922 92.001236C110.915451 91.440750,110.155304 91.125809,109.362610 91.125809C108.569916 91.125809,107.809769 91.440750,107.249298 92.001236C106.688812 92.561707,106.373871 93.321854,106.373871 94.114548C106.373871 94.907242,106.688812 95.667389,107.249298 96.227859C107.809769 96.788345,108.569916 97.103287,109.362610 97.103287C110.155304 97.103287,110.915451 96.788345,111.475922 96.227859C112.036407 95.667389,112.351349 94.907242,112.351349 94.114548Z" style="fill: rgb(100.000000%,100.000000%,100.000000%);stroke: none;"></path>
  <path d="M125.003952 95.008301C125.003952 94.215607,124.689011 93.455460,124.128525 92.894989C123.568054 92.334503,122.807907 92.019562,122.015213 92.019562C121.222519 92.019562,120.462372 92.334503,119.901901 92.894989C119.341415 93.455460,119.026474 94.215607,119.026474 95.008301C119.026474 95.800995,119.341415 96.561142,119.901901 97.121613C120.462372 97.682098,121.222519 97.997040,122.015213 97.997040C122.807907 97.997040,123.568054 97.682098,124.128525 97.121613C124.689011 96.561142,125.003952 95.800995,125.003952 95.008301Z" style="fill: rgb(100.000000%,100.000000%,100.000000%);stroke: none;"></path>
  <path d="M101.012848 103.037491C101.012848 102.244797,100.697906 101.484650,100.137421 100.924179C99.576950 100.363693,98.816803 100.048752,98.024109 100.048752C97.231415 100.048752,96.471268 100.363693,95.910797 100.924179C95.350311 101.484650,95.035370 102.244797,95.035370 103.037491C95.035370 103.830185,95.350311 104.590332,95.910797 105.150803C96.471268 105.711288,97.231415 106.026230,98.024109 106.026230C98.816803 106.026230,99.576950 105.711288,100.137421 105.150803C100.697906 104.590332,101.012848 103.830185,101.012848 103.037491Z" style="fill: rgb(100.000000%,100.000000%,100.000000%);stroke: none;"></path>
  <path d="M106.395752 93.983093C106.395752 93.190399,106.080811 92.430252,105.520325 91.869781C104.959854 91.309296,104.199707 90.994354,103.407013 90.994354C102.614319 90.994354,101.854172 91.309296,101.293701 91.869781C100.733215 92.430252,100.418274 93.190399,100.418274 93.983093C100.418274 94.775787,100.733215 95.535934,101.293701 96.096405C101.854172 96.656891,102.614319 96.971832,103.407013 96.971832C104.199707 96.971832,104.959854 96.656891,105.520325 96.096405C106.080811 95.535934,106.395752 94.775787,106.395752 93.983093Z" style="fill: rgb(100.000000%,100.000000%,100.000000%);stroke: none;"></path>
  <path d="M109.332642 118.202301C109.332642 117.409607,109.017700 116.649460,108.457214 116.088989C107.896744 115.528503,107.136597 115.213562,106.343903 115.213562C105.551208 115.213562,104.791061 115.528503,104.230591 116.088989C103.670105 116.649460,103.355164 117.409607,103.355164 118.202301C103.355164 118.994995,103.670105 119.755142,104.230591 120.315613C104.791061 120.876099,105.551208 121.191040,106.343903 121.191040C107.136597 121.191040,107.896744 120.876099,108.457214 120.315613C109.017700 119.755142,109.332642 118.994995,109.332642 118.202301Z" style="fill: rgb(100.000000%,100.000000%,100.000000%);stroke: none;"></path>
  <path d="M104.299606 108.270508C104.299606 107.477814,103.984665 106.717667,103.424179 106.157196C102.863708 105.596710,102.103561 105.281769,101.310867 105.281769C100.518173 105.281769,99.758026 105.596710,99.197556 106.157196C98.637070 106.717667,98.322128 107.477814,98.322128 108.270508C98.322128 109.063202,98.637070 109.823349,99.197556 110.383820C99.758026 110.944305,100.518173 111.259247,101.310867 111.259247C102.103561 111.259247,102.863708 110.944305,103.424179 110.383820C103.984665 109.823349,104.299606 109.063202,104.299606 108.270508Z" style="fill: rgb(100.000000%,100.000000%,100.000000%);stroke: none;"></path>
  <path d="M117.308472 132.281372C117.308472 131.488678,116.993530 130.728531,116.433044 130.168060C115.872574 129.607574,115.112427 129.292633,114.319733 129.292633C113.527039 129.292633,112.766891 129.607574,112.206421 130.168060C111.645935 130.728531,111.330994 131.488678,111.330994 132.281372C111.330994 133.074066,111.645935 133.834213,112.206421 134.394684C112.766891 134.955170,113.527039 135.270111,114.319733 135.270111C115.112427 135.270111,115.872574 134.955170,116.433044 134.394684C116.993530 133.834213,117.308472 133.074066,117.308472 132.281372Z" style="fill: rgb(100.000000%,100.000000%,100.000000%);stroke: none;"></path>
  <path d="M110.736328 123.895721C110.736328 123.103027,110.421387 122.342880,109.860901 121.782410C109.300430 121.221924,108.540283 120.906982,107.747589 120.906982C106.954895 120.906982,106.194748 121.221924,105.634277 121.782410C105.073792 122.342880,104.758850 123.103027,104.758850 123.895721C104.758850 124.688416,105.073792 125.448563,105.634277 126.009033C106.194748 126.569519,106.954895 126.884460,107.747589 126.884460C108.540283 126.884460,109.300430 126.569519,109.860901 126.009033C110.421387 125.448563,110.736328 124.688416,110.736328 123.895721Z" style="fill: rgb(100.000000%,100.000000%,100.000000%);stroke: none;"></path>
  <path d="M127.137711 139.620880C127.137711 138.828186,126.822769 138.068039,126.262283 137.507568C125.701813 136.947083,124.941666 136.632141,124.148972 136.632141C123.356277 136.632141,122.596130 136.947083,122.035660 137.507568C121.475174 138.068039,121.160233 138.828186,121.160233 139.620880C121.160233 140.413574,121.475174 141.173721,122.035660 141.734192C122.596130 142.294678,123.356277 142.609619,124.148972 142.609619C124.941666 142.609619,125.701813 142.294678,126.262283 141.734192C126.822769 141.173721,127.137711 140.413574,127.137711 139.620880Z" style="fill: rgb(100.000000%,100.000000%,100.000000%);stroke: none;"></path>
  <path d="M121.644073 134.864822C121.644073 134.072128,121.329132 133.311981,120.768646 132.751511C120.208176 132.191025,119.448029 131.876083,118.655334 131.876083C117.862640 131.876083,117.102493 132.191025,116.542023 132.751511C115.981537 133.311981,115.666595 134.072128,115.666595 134.864822C115.666595 135.657516,115.981537 136.417664,116.542023 136.978134C117.102493 137.538620,117.862640 137.853561,118.655334 137.853561C119.448029 137.853561,120.208176 137.538620,120.768646 136.978134C121.329132 136.417664,121.644073 135.657516,121.644073 134.864822Z" style="fill: rgb(100.000000%,100.000000%,100.000000%);stroke: none;"></path>
  <path d="M133.629715 141.236679C133.629715 140.443985,133.314774 139.683838,132.754288 139.123367C132.193817 138.562881,131.433670 138.247940,130.640976 138.247940C129.848282 138.247940,129.088135 138.562881,128.527664 139.123367C127.967178 139.683838,127.652237 140.443985,127.652237 141.236679C127.652237 142.029373,127.967178 142.789520,128.527664 143.349991C129.088135 143.910477,129.848282 144.225418,130.640976 144.225418C131.433670 144.225418,132.193817 143.910477,132.754288 143.349991C133.314774 142.789520,133.629715 142.029373,133.629715 141.236679Z" style="fill: rgb(100.000000%,100.000000%,100.000000%);stroke: none;"></path>
  <path d="M128.956589 141.341263C128.956589 140.548569,128.641647 139.788422,128.081161 139.227951C127.520691 138.667465,126.760544 138.352524,125.967850 138.352524C125.175156 138.352524,124.415009 138.667465,123.854538 139.227951C123.294052 139.788422,122.979111 140.548569,122.979111 141.341263C122.979111 142.133957,123.294052 142.894104,123.854538 143.454575C124.415009 144.015060,125.175156 144.330002,125.967850 144.330002C126.760544 144.330002,127.520691 144.015060,128.081161 143.454575C128.641647 142.894104,128.956589 142.133957,128.956589 141.341263Z" style="fill: rgb(100.000000%,100.000000%,100.000000%);stroke: none;"></path>
  <path d="M140.953506 133.436188C140.953506 132.643494,140.638565 131.883347,140.078079 131.322876C139.517609 130.762390,138.757462 130.447449,137.964767 130.447449C137.172073 130.447449,136.411926 130.762390,135.851456 131.322876C135.290970 131.883347,134.976028 132.643494,134.976028 133.436188C134.976028 134.228882,135.290970 134.989029,135.851456 135.549500C136.411926 136.109985,137.172073 136.424927,137.964767 136.424927C138.757462 136.424927,139.517609 136.109985,140.078079 135.549500C140.638565 134.989029,140.953506 134.228882,140.953506 133.436188Z" style="fill: rgb(100.000000%,100.000000%,100.000000%);stroke: none;"></path>
  <path d="M135.383499 139.417236C135.383499 138.624542,135.068558 137.864395,134.508072 137.303925C133.947601 136.743439,133.187454 136.428497,132.394760 136.428497C131.602066 136.428497,130.841919 136.743439,130.281448 137.303925C129.720963 137.864395,129.406021 138.624542,129.406021 139.417236C129.406021 140.209930,129.720963 140.970078,130.281448 141.530548C130.841919 142.091034,131.602066 142.405975,132.394760 142.405975C133.187454 142.405975,133.947601 142.091034,134.508072 141.530548C135.068558 140.970078,135.383499 140.209930,135.383499 139.417236Z" style="fill: rgb(100.000000%,100.000000%,100.000000%);stroke: none;"></path>
  <path d="M159.570892 118.432938C159.570892 117.640244,159.255951 116.880096,158.695465 116.319626C158.134995 115.759140,157.374847 115.444199,156.582153 115.444199C155.789459 115.444199,155.029312 115.759140,154.468842 116.319626C153.908356 116.880096,153.593414 117.640244,153.593414 118.432938C153.593414 119.225632,153.908356 119.985779,154.468842 120.546249C155.029312 121.106735,155.789459 121.421677,156.582153 121.421677C157.374847 121.421677,158.134995 121.106735,158.695465 120.546249C159.255951 119.985779,159.570892 119.225632,159.570892 118.432938Z" style="fill: rgb(100.000000%,100.000000%,100.000000%);stroke: none;"></path>
  <path d="M145.170746 129.411545C145.170746 128.618851,144.855804 127.858704,144.295319 127.298233C143.734848 126.737747,142.974701 126.422806,142.182007 126.422806C141.389313 126.422806,140.629166 126.737747,140.068695 127.298233C139.508209 127.858704,139.193268 128.618851,139.193268 129.411545C139.193268 130.204239,139.508209 130.964386,140.068695 131.524857C140.629166 132.085342,141.389313 132.400284,142.182007 132.400284C142.974701 132.400284,143.734848 132.085342,144.295319 131.524857C144.855804 130.964386,145.170746 130.204239,145.170746 129.411545Z" style="fill: rgb(100.000000%,100.000000%,100.000000%);stroke: none;"></path>
  <path d="M187.954224 83.040344C187.954224 82.247650,187.639282 81.487503,187.078796 80.927032C186.518326 80.366547,185.758179 80.051605,184.965485 80.051605C184.172791 80.051605,183.412643 80.366547,182.852173 80.927032C182.291687 81.487503,181.976746 82.247650,181.976746 83.040344C181.976746 83.833038,182.291687 84.593185,182.852173 85.153656C183.412643 85.714142,184.172791 86.029083,184.965485 86.029083C185.758179 86.029083,186.518326 85.714142,187.078796 85.153656C187.639282 84.593185,187.954224 83.833038,187.954224 83.040344Z" style="fill: rgb(100.000000%,100.000000%,100.000000%);stroke: none;"></path>
  <path d="M171.353592 112.920410C171.353592 112.127716,171.038651 111.367569,170.478165 110.807098C169.917694 110.246613,169.157547 109.931671,168.364853 109.931671C167.572159 109.931671,166.812012 110.246613,166.251541 110.807098C165.691055 111.367569,165.376114 112.127716,165.376114 112.920410C165.376114 113.713104,165.691055 114.473251,166.251541 115.033722C166.812012 115.594208,167.572159 115.909149,168.364853 115.909149C169.157547 115.909149,169.917694 115.594208,170.478165 115.033722C171.038651 114.473251,171.353592 113.713104,171.353592 112.920410Z" style="fill: rgb(100.000000%,100.000000%,100.000000%);stroke: none;"></path>
  <path d="M146.504013 27.207062C146.504013 26.414368,146.189072 25.654221,145.628586 25.093750C145.068115 24.533264,144.307968 24.218323,143.515274 24.218323C142.722580 24.218323,141.962433 24.533264,141.401962 25.093750C140.841476 25.654221,140.526535 26.414368,140.526535 27.207062C140.526535 27.999756,140.841476 28.759903,141.401962 29.320374C141.962433 29.880859,142.722580 30.195801,143.515274 30.195801C144.307968 30.195801,145.068115 29.880859,145.628586 29.320374C146.189072 28.759903,146.504013 27.999756,146.504013 27.207062Z" style="fill: rgb(100.000000%,100.000000%,100.000000%);stroke: none;"></path>
  <path d="M176.957855 60.694977C176.957855 59.902283,176.642914 59.142136,176.082428 58.581665C175.521957 58.021179,174.761810 57.706238,173.969116 57.706238C173.176422 57.706238,172.416275 58.021179,171.855804 58.581665C171.295319 59.142136,170.980377 59.902283,170.980377 60.694977C170.980377 61.487671,171.295319 62.247818,171.855804 62.808289C172.416275 63.368774,173.176422 63.683716,173.969116 63.683716C174.761810 63.683716,175.521957 63.368774,176.082428 62.808289C176.642914 62.247818,176.957855 61.487671,176.957855 60.694977Z" style="fill: rgb(100.000000%,100.000000%,100.000000%);stroke: none;"></path>
  <path d="M94.636841 32.944260C94.636841 32.151566,94.321899 31.391418,93.761414 30.830948C93.200943 30.270462,92.440796 29.955521,91.648102 29.955521C90.855408 29.955521,90.095261 30.270462,89.534790 30.830948C88.974304 31.391418,88.659363 32.151566,88.659363 32.944260C88.659363 33.736954,88.974304 34.497101,89.534790 35.057571C90.095261 35.618057,90.855408 35.932999,91.648102 35.932999C92.440796 35.932999,93.200943 35.618057,93.761414 35.057571C94.321899 34.497101,94.636841 33.736954,94.636841 32.944260Z" style="fill: rgb(100.000000%,100.000000%,100.000000%);stroke: none;"></path>
  <path d="M125.140015 15.006744C125.140015 14.214050,124.825073 13.453903,124.264587 12.893433C123.704117 12.332947,122.943970 12.018005,122.151276 12.018005C121.358582 12.018005,120.598434 12.332947,120.037964 12.893433C119.477478 13.453903,119.162537 14.214050,119.162537 15.006744C119.162537 15.799438,119.477478 16.559586,120.037964 17.120056C120.598434 17.680542,121.358582 17.995483,122.151276 17.995483C122.943970 17.995483,123.704117 17.680542,124.264587 17.120056C124.825073 16.559586,125.140015 15.799438,125.140015 15.006744Z" style="fill: rgb(100.000000%,100.000000%,100.000000%);stroke: none;"></path>
  <path d="M62.928879 58.807068C62.928879 58.014374,62.613937 57.254227,62.053452 56.693756C61.492981 56.133270,60.732834 55.818329,59.940140 55.818329C59.147446 55.818329,58.387299 56.133270,57.826828 56.693756C57.266342 57.254227,56.951401 58.014374,56.951401 58.807068C56.951401 59.599762,57.266342 60.359909,57.826828 60.920380C58.387299 61.480865,59.147446 61.795807,59.940140 61.795807C60.732834 61.795807,61.492981 61.480865,62.053452 60.920380C62.613937 60.359909,62.928879 59.599762,62.928879 58.807068Z" style="fill: rgb(100.000000%,100.000000%,100.000000%);stroke: none;"></path>
  <path d="M90.112762 50.087219C90.112762 49.294525,89.797821 48.534378,89.237335 47.973907C88.676865 47.413422,87.916718 47.098480,87.124023 47.098480C86.331329 47.098480,85.571182 47.413422,85.010712 47.973907C84.450226 48.534378,84.135284 49.294525,84.135284 50.087219C84.135284 50.879913,84.450226 51.640060,85.010712 52.200531C85.571182 52.761017,86.331329 53.075958,87.124023 53.075958C87.916718 53.075958,88.676865 52.761017,89.237335 52.200531C89.797821 51.640060,90.112762 50.879913,90.112762 50.087219Z" style="fill: rgb(100.000000%,100.000000%,100.000000%);stroke: none;"></path>
  <path d="M17.391342 51.490784C17.391342 50.698090,17.076401 49.937943,16.515915 49.377472C15.955444 48.816986,15.195297 48.502045,14.402603 48.502045C13.609909 48.502045,12.849762 48.816986,12.289291 49.377472C11.728806 49.937943,11.413864 50.698090,11.413864 51.490784C11.413864 52.283478,11.728806 53.043625,12.289291 53.604095C12.849762 54.164581,13.609909 54.479523,14.402603 54.479523C15.195297 54.479523,15.955444 54.164581,16.515915 53.604095C17.076401 53.043625,17.391342 52.283478,17.391342 51.490784Z" style="fill: rgb(100.000000%,100.000000%,100.000000%);stroke: none;"></path>
  <path d="M49.876450 48.951370C49.876450 48.158676,49.561508 47.398529,49.001022 46.838058C48.440552 46.277573,47.680405 45.962631,46.887711 45.962631C46.095016 45.962631,45.334869 46.277573,44.774399 46.838058C44.213913 47.398529,43.898972 48.158676,43.898972 48.951370C43.898972 49.744064,44.213913 50.504211,44.774399 51.064682C45.334869 51.625168,46.095016 51.940109,46.887711 51.940109C47.680405 51.940109,48.440552 51.625168,49.001022 51.064682C49.561508 50.504211,49.876450 49.744064,49.876450 48.951370Z" style="fill: rgb(100.000000%,100.000000%,100.000000%);stroke: none;"></path>
  <path d="M5.992767 110.817413C5.992767 110.024719,5.677826 109.264572,5.117340 108.704102C4.556870 108.143616,3.796722 107.828674,3.004028 107.828674C2.211334 107.828674,1.451187 108.143616,0.890717 108.704102C0.330231 109.264572,0.015289 110.024719,0.015289 110.817413C0.015289 111.610107,0.330231 112.370255,0.890717 112.930725C1.451187 113.491211,2.211334 113.806152,3.004028 113.806152C3.796722 113.806152,4.556870 113.491211,5.117340 112.930725C5.677826 112.370255,5.992767 111.610107,5.992767 110.817413Z" style="fill: rgb(100.000000%,100.000000%,100.000000%);stroke: none;"></path>
  <path d="M5.466019 70.209183C5.466019 69.416489,5.151077 68.656342,4.590591 68.095871C4.030121 67.535385,3.269974 67.220444,2.477280 67.220444C1.684586 67.220444,0.924438 67.535385,0.363968 68.095871C-0.196518 68.656342,-0.511459 69.416489,-0.511459 70.209183C-0.511459 71.001877,-0.196518 71.762024,0.363968 72.322495C0.924438 72.882980,1.684586 73.197922,2.477280 73.197922C3.269974 73.197922,4.030121 72.882980,4.590591 72.322495C5.151077 71.762024,5.466019 71.001877,5.466019 70.209183Z" style="fill: rgb(100.000000%,100.000000%,100.000000%);stroke: none;"></path>
  <path d="M53.495300 136.425186C53.495300 135.632492,53.180359 134.872345,52.619873 134.311874C52.059402 133.751389,51.299255 133.436447,50.506561 133.436447C49.713867 133.436447,48.953720 133.751389,48.393250 134.311874C47.832764 134.872345,47.517822 135.632492,47.517822 136.425186C47.517822 137.217880,47.832764 137.978027,48.393250 138.538498C48.953720 139.098984,49.713867 139.413925,50.506561 139.413925C51.299255 139.413925,52.059402 139.098984,52.619873 138.538498C53.180359 137.978027,53.495300 137.217880,53.495300 136.425186Z" style="fill: rgb(100.000000%,100.000000%,100.000000%);stroke: none;"></path>
  <path d="M18.408401 129.784409C18.408401 128.991714,18.093460 128.231567,17.532974 127.671097C16.972504 127.110611,16.212357 126.795670,15.419662 126.795670C14.626968 126.795670,13.866821 127.110611,13.306351 127.671097C12.745865 128.231567,12.430923 128.991714,12.430923 129.784409C12.430923 130.577103,12.745865 131.337250,13.306351 131.897720C13.866821 132.458206,14.626968 132.773148,15.419662 132.773148C16.212357 132.773148,16.972504 132.458206,17.532974 131.897720C18.093460 131.337250,18.408401 130.577103,18.408401 129.784409Z" style="fill: rgb(100.000000%,100.000000%,100.000000%);stroke: none;"></path>
  <path d="M89.977295 117.958099C89.977295 117.165405,89.662354 116.405258,89.101868 115.844788C88.541397 115.284302,87.781250 114.969360,86.988556 114.969360C86.195862 114.969360,85.435715 115.284302,84.875244 115.844788C84.314758 116.405258,83.999817 117.165405,83.999817 117.958099C83.999817 118.750793,84.314758 119.510941,84.875244 120.071411C85.435715 120.631897,86.195862 120.946838,86.988556 120.946838C87.781250 120.946838,88.541397 120.631897,89.101868 120.071411C89.662354 119.510941,89.977295 118.750793,89.977295 117.958099Z" style="fill: rgb(100.000000%,100.000000%,100.000000%);stroke: none;"></path>
  <path d="M67.984085 128.414505C67.984085 127.621811,67.669144 126.861664,67.108658 126.301193C66.548187 125.740707,65.788040 125.425766,64.995346 125.425766C64.202652 125.425766,63.442505 125.740707,62.882034 126.301193C62.321548 126.861664,62.006607 127.621811,62.006607 128.414505C62.006607 129.207199,62.321548 129.967346,62.882034 130.527817C63.442505 131.088303,64.202652 131.403244,64.995346 131.403244C65.788040 131.403244,66.548187 131.088303,67.108658 130.527817C67.669144 129.967346,67.984085 129.207199,67.984085 128.414505Z" style="fill: rgb(100.000000%,100.000000%,100.000000%);stroke: none;"></path>
  <path d="M111.120270 112.393219C111.120270 111.600525,110.805328 110.840378,110.244843 110.279907C109.684372 109.719421,108.924225 109.404480,108.131531 109.404480C107.338837 109.404480,106.578690 109.719421,106.018219 110.279907C105.457733 110.840378,105.142792 111.600525,105.142792 112.393219C105.142792 113.185913,105.457733 113.946060,106.018219 114.506531C106.578690 115.067017,107.338837 115.381958,108.131531 115.381958C108.924225 115.381958,109.684372 115.067017,110.244843 114.506531C110.805328 113.946060,111.120270 113.185913,111.120270 112.393219Z" style="fill: rgb(100.000000%,100.000000%,100.000000%);stroke: none;"></path>
  <path d="M98.120789 114.579636C98.120789 113.786942,97.805847 113.026794,97.245361 112.466324C96.684891 111.905838,95.924744 111.590897,95.132050 111.590897C94.339355 111.590897,93.579208 111.905838,93.018738 112.466324C92.458252 113.026794,92.143311 113.786942,92.143311 114.579636C92.143311 115.372330,92.458252 116.132477,93.018738 116.692947C93.579208 117.253433,94.339355 117.568375,95.132050 117.568375C95.924744 117.568375,96.684891 117.253433,97.245361 116.692947C97.805847 116.132477,98.120789 115.372330,98.120789 114.579636Z" style="fill: rgb(100.000000%,100.000000%,100.000000%);stroke: none;"></path>
  <path d="M121.102066 104.204071C121.102066 103.411377,120.787125 102.651230,120.226639 102.090759C119.666168 101.530273,118.906021 101.215332,118.113327 101.215332C117.320633 101.215332,116.560486 101.530273,116.000015 102.090759C115.439529 102.651230,115.124588 103.411377,115.124588 104.204071C115.124588 104.996765,115.439529 105.756912,116.000015 106.317383C116.560486 106.877869,117.320633 107.192810,118.113327 107.192810C118.906021 107.192810,119.666168 106.877869,120.226639 106.317383C120.787125 105.756912,121.102066 104.996765,121.102066 104.204071Z" style="fill: rgb(100.000000%,100.000000%,100.000000%);stroke: none;"></path>
  <path d="M115.913681 111.865372C115.913681 111.072678,115.598740 110.312531,115.038254 109.752060C114.477783 109.191574,113.717636 108.876633,112.924942 108.876633C112.132248 108.876633,111.372101 109.191574,110.811630 109.752060C110.251144 110.312531,109.936203 111.072678,109.936203 111.865372C109.936203 112.658066,110.251144 113.418213,110.811630 113.978683C111.372101 114.539169,112.132248 114.854111,112.924942 114.854111C113.717636 114.854111,114.477783 114.539169,115.038254 113.978683C115.598740 113.418213,115.913681 112.658066,115.913681 111.865372Z" style="fill: rgb(100.000000%,100.000000%,100.000000%);stroke: none;"></path>
  <path d="M114.791199 86.314484C114.791199 85.521790,114.476257 84.761642,113.915771 84.201172C113.355301 83.640686,112.595154 83.325745,111.802460 83.325745C111.009766 83.325745,110.249619 83.640686,109.689148 84.201172C109.128662 84.761642,108.813721 85.521790,108.813721 86.314484C108.813721 87.107178,109.128662 87.867325,109.689148 88.427795C110.249619 88.988281,111.009766 89.303223,111.802460 89.303223C112.595154 89.303223,113.355301 88.988281,113.915771 88.427795C114.476257 87.867325,114.791199 87.107178,114.791199 86.314484Z" style="fill: rgb(100.000000%,100.000000%,100.000000%);stroke: none;"></path>
  <path d="M119.335281 99.117157C119.335281 98.324463,119.020340 97.564316,118.459854 97.003845C117.899384 96.443359,117.139236 96.128418,116.346542 96.128418C115.553848 96.128418,114.793701 96.443359,114.233231 97.003845C113.672745 97.564316,113.357803 98.324463,113.357803 99.117157C113.357803 99.909851,113.672745 100.669998,114.233231 101.230469C114.793701 101.790955,115.553848 102.105896,116.346542 102.105896C117.139236 102.105896,117.899384 101.790955,118.459854 101.230469C119.020340 100.669998,119.335281 99.909851,119.335281 99.117157Z" style="fill: rgb(100.000000%,100.000000%,100.000000%);stroke: none;"></path>
  <path d="M111.349457 54.360931C111.349457 53.568237,111.034515 52.808090,110.474030 52.247620C109.913559 51.687134,109.153412 51.372192,108.360718 51.372192C107.568024 51.372192,106.807877 51.687134,106.247406 52.247620C105.686920 52.808090,105.371979 53.568237,105.371979 54.360931C105.371979 55.153625,105.686920 55.913773,106.247406 56.474243C106.807877 57.034729,107.568024 57.349670,108.360718 57.349670C109.153412 57.349670,109.913559 57.034729,110.474030 56.474243C111.034515 55.913773,111.349457 55.153625,111.349457 54.360931Z" style="fill: rgb(100.000000%,100.000000%,100.000000%);stroke: none;"></path>
  <path d="M112.888000 77.805115C112.888000 77.012421,112.573059 76.252274,112.012573 75.691803C111.452103 75.131317,110.691956 74.816376,109.899261 74.816376C109.106567 74.816376,108.346420 75.131317,107.785950 75.691803C107.225464 76.252274,106.910522 77.012421,106.910522 77.805115C106.910522 78.597809,107.225464 79.357956,107.785950 79.918427C108.346420 80.478912,109.106567 80.793854,109.899261 80.793854C110.691956 80.793854,111.452103 80.478912,112.012573 79.918427C112.573059 79.357956,112.888000 78.597809,112.888000 77.805115Z" style="fill: rgb(100.000000%,100.000000%,100.000000%);stroke: none;"></path>
  <path d="M98.551788 9.691513C98.551788 8.898819,98.236847 8.138672,97.676361 7.578201C97.115891 7.017715,96.355743 6.702774,95.563049 6.702774C94.770355 6.702774,94.010208 7.017715,93.449738 7.578201C92.889252 8.138672,92.574310 8.898819,92.574310 9.691513C92.574310 10.484207,92.889252 11.244354,93.449738 11.804825C94.010208 12.365311,94.770355 12.680252,95.563049 12.680252C96.355743 12.680252,97.115891 12.365311,97.676361 11.804825C98.236847 11.244354,98.551788 10.484207,98.551788 9.691513Z" style="fill: rgb(100.000000%,100.000000%,100.000000%);stroke: none;"></path>
  <path d="M114.100723 38.791092C114.100723 37.998398,113.785782 37.238251,113.225296 36.677780C112.664825 36.117294,111.904678 35.802353,111.111984 35.802353C110.319290 35.802353,109.559143 36.117294,108.998672 36.677780C108.438187 37.238251,108.123245 37.998398,108.123245 38.791092C108.123245 39.583786,108.438187 40.343933,108.998672 40.904404C109.559143 41.464890,110.319290 41.779831,111.111984 41.779831C111.904678 41.779831,112.664825 41.464890,113.225296 40.904404C113.785782 40.343933,114.100723 39.583786,114.100723 38.791092Z" style="fill: rgb(100.000000%,100.000000%,100.000000%);stroke: none;"></path>
  <path d="M43.918365 14.095840C43.918365 13.303146,43.603424 12.542999,43.042938 11.982529C42.482468 11.422043,41.722321 11.107101,40.929626 11.107101C40.136932 11.107101,39.376785 11.422043,38.816315 11.982529C38.255829 12.542999,37.940887 13.303146,37.940887 14.095840C37.940887 14.888535,38.255829 15.648682,38.816315 16.209152C39.376785 16.769638,40.136932 17.084579,40.929626 17.084579C41.722321 17.084579,42.482468 16.769638,43.042938 16.209152C43.603424 15.648682,43.918365 14.888535,43.918365 14.095840Z" style="fill: rgb(100.000000%,100.000000%,100.000000%);stroke: none;"></path>
  <path d="M79.469803 2.871338C79.469803 2.078644,79.154861 1.318497,78.594376 0.758026C78.033905 0.197540,77.273758 -0.117401,76.481064 -0.117401C75.688370 -0.117401,74.928223 0.197540,74.367752 0.758026C73.807266 1.318497,73.492325 2.078644,73.492325 2.871338C73.492325 3.664032,73.807266 4.424179,74.367752 4.984650C74.928223 5.545135,75.688370 5.860077,76.481064 5.860077C77.273758 5.860077,78.033905 5.545135,78.594376 4.984650C79.154861 4.424179,79.469803 3.664032,79.469803 2.871338Z" style="fill: rgb(100.000000%,100.000000%,100.000000%);stroke: none;"></path>
  <path d="M39.630569 64.216293C39.630569 63.423599,39.315628 62.663452,38.755142 62.102982C38.194672 61.542496,37.434525 61.227554,36.641830 61.227554C35.849136 61.227554,35.088989 61.542496,34.528519 62.102982C33.968033 62.663452,33.653091 63.423599,33.653091 64.216293C33.653091 65.008987,33.968033 65.769135,34.528519 66.329605C35.088989 66.890091,35.849136 67.205032,36.641830 67.205032C37.434525 67.205032,38.194672 66.890091,38.755142 66.329605C39.315628 65.769135,39.630569 65.008987,39.630569 64.216293Z" style="fill: rgb(100.000000%,100.000000%,100.000000%);stroke: none;"></path>
  <path d="M32.096832 31.865875C32.096832 31.073181,31.781891 30.313034,31.221405 29.752563C30.660934 29.192078,29.900787 28.877136,29.108093 28.877136C28.315399 28.877136,27.555252 29.192078,26.994781 29.752563C26.434296 30.313034,26.119354 31.073181,26.119354 31.865875C26.119354 32.658569,26.434296 33.418716,26.994781 33.979187C27.555252 34.539673,28.315399 34.854614,29.108093 34.854614C29.900787 34.854614,30.660934 34.539673,31.221405 33.979187C31.781891 33.418716,32.096832 32.658569,32.096832 31.865875Z" style="fill: rgb(100.000000%,100.000000%,100.000000%);stroke: none;"></path>
  <path d="M54.372284 105.487823C54.372284 104.695129,54.057343 103.934982,53.496857 103.374512C52.936386 102.814026,52.176239 102.499084,51.383545 102.499084C50.590851 102.499084,49.830704 102.814026,49.270233 103.374512C48.709747 103.934982,48.394806 104.695129,48.394806 105.487823C48.394806 106.280518,48.709747 107.040665,49.270233 107.601135C49.830704 108.161621,50.590851 108.476562,51.383545 108.476562C52.176239 108.476562,52.936386 108.161621,53.496857 107.601135C54.057343 107.040665,54.372284 106.280518,54.372284 105.487823Z" style="fill: rgb(100.000000%,100.000000%,100.000000%);stroke: none;"></path>
  <path d="M53.138107 74.645981C53.138107 73.853287,52.823166 73.093140,52.262680 72.532669C51.702209 71.972183,50.942062 71.657242,50.149368 71.657242C49.356674 71.657242,48.596527 71.972183,48.036057 72.532669C47.475571 73.093140,47.160629 73.853287,47.160629 74.645981C47.160629 75.438675,47.475571 76.198822,48.036057 76.759293C48.596527 77.319778,49.356674 77.634720,50.149368 77.634720C50.942062 77.634720,51.702209 77.319778,52.262680 76.759293C52.823166 76.198822,53.138107 75.438675,53.138107 74.645981Z" style="fill: rgb(100.000000%,100.000000%,100.000000%);stroke: none;"></path>
  <path d="M36.266998 157.223831C36.266998 156.431137,35.952057 155.670990,35.391571 155.110519C34.831100 154.550034,34.070953 154.235092,33.278259 154.235092C32.485565 154.235092,31.725418 154.550034,31.164948 155.110519C30.604462 155.670990,30.289520 156.431137,30.289520 157.223831C30.289520 158.016525,30.604462 158.776672,31.164948 159.337143C31.725418 159.897629,32.485565 160.212570,33.278259 160.212570C34.070953 160.212570,34.831100 159.897629,35.391571 159.337143C35.952057 158.776672,36.266998 158.016525,36.266998 157.223831Z" style="fill: rgb(100.000000%,100.000000%,100.000000%);stroke: none;"></path>
  <path d="M39.380630 117.628845C39.380630 116.836151,39.065689 116.076004,38.505203 115.515533C37.944733 114.955048,37.184586 114.640106,36.391891 114.640106C35.599197 114.640106,34.839050 114.955048,34.278580 115.515533C33.718094 116.076004,33.403152 116.836151,33.403152 117.628845C33.403152 118.421539,33.718094 119.181686,34.278580 119.742157C34.839050 120.302643,35.599197 120.617584,36.391891 120.617584C37.184586 120.617584,37.944733 120.302643,38.505203 119.742157C39.065689 119.181686,39.380630 118.421539,39.380630 117.628845Z" style="fill: rgb(100.000000%,100.000000%,100.000000%);stroke: none;"></path>
  <path d="M74.862625 186.894760C91.921707 203.697830,119.935699 201.379135,134.000000 182.000000C140.569366 172.948105,142.521637 161.344727,139.296051 150.634979C137.949936 146.165543,135.723557 142.028687,134.000000 137.693542C132.778122 134.620224,131.124557 131.313370,127.994034 131.433731C124.856598 131.554352,123.489456 134.995270,122.388550 138.096817C120.569611 143.221283,117.638428 147.956375,116.648376 153.314087C114.357941 165.708801,122.008255 177.655869,134.000000 182.000000C152.273743 188.619858,171.283524 176.852127,181.264313 159.119202C192.256851 139.588715,191.533890 114.879623,174.369293 102.112793C163.764343 94.224960,149.878510 94.243988,136.673523 94.597717C129.349030 94.793930,122.015213 95.008301,114.704895 94.491913C109.362610 94.114548,103.407013 93.983093,100.757446 98.439835C98.024109 103.037491,101.310867 108.270508,103.771698 113.126511C106.343903 118.202301,107.747589 123.895721,111.267258 128.386612C114.319733 132.281372,118.655334 134.864822,122.388550 138.096817C124.148972 139.620880,125.967850 141.341263,128.294891 141.289185C130.640976 141.236679,132.394760 139.417236,134.000000 137.693542C137.964767 133.436188,142.182007 129.411545,146.809143 125.883835C156.582153 118.432938,168.364853 112.920410,174.369293 102.112793C184.965485 83.040344,173.969116 60.694977,158.617645 43.814056C143.515274 27.207062,122.151276 15.006744,104.081131 25.632965C91.648102 32.944260,87.124023 50.087219,73.116989 54.580292C59.940140 58.807068,46.887711 48.951370,33.333694 50.010910C14.402603 51.490784,2.477280 70.209183,2.736969 90.229370C3.004028 110.817413,15.419662 129.784409,35.142471 133.517273C50.506561 136.425186,64.995346 128.414505,79.082520 121.716934C86.988556 117.958099,95.132050 114.579636,103.771698 113.126511C108.131531 112.393219,112.924942 111.865372,115.396103 108.216400C118.113327 104.204071,116.346542 99.117157,114.704895 94.491913C111.802460 86.314484,109.899261 77.805115,109.330948 69.145218C108.360718 54.360931,111.111984 38.791092,104.081131 25.632965C95.563049 9.691513,76.481064 2.871338,59.073303 8.367416C40.929626 14.095840,29.108093 31.865875,33.333694 50.010910C36.641830 64.216293,50.149368 74.645981,50.739716 89.398697C51.383545 105.487823,36.391891 117.628845,35.142471 133.517273C33.278259 157.223831,58.016357 170.301315,74.862625 186.894760" style="stroke:rgb(0.000000%,0.000000%,0.000000%); stroke-width: 0.498138;stroke-linecap: round;stroke-linejoin: round;stroke-miterlimit: 10.000000;fill: none;"></path>
  <path d="M74.862625 186.894760C91.921707 203.697830,119.935699 201.379135,134.000000 182.000000" style="stroke:rgb(0.000000%,0.000000%,0.000000%); stroke-width: 1.494400;stroke-linecap: round;stroke-linejoin: round;stroke-miterlimit: 10.000000;fill: none;"></path>
  <path d="M35.142471 133.517273C33.278259 157.223831,58.016357 170.301315,74.862625 186.894760" style="stroke:rgb(0.000000%,0.000000%,0.000000%); stroke-width: 1.494400;stroke-linecap: round;stroke-linejoin: round;stroke-miterlimit: 10.000000;fill: none;"></path>
  <path d="M136.988739 182.000000C136.988739 181.207306,136.673798 180.447159,136.113312 179.886688C135.552841 179.326202,134.792694 179.011261,134.000000 179.011261C133.207306 179.011261,132.447159 179.326202,131.886688 179.886688C131.326202 180.447159,131.011261 181.207306,131.011261 182.000000C131.011261 182.792694,131.326202 183.552841,131.886688 184.113312C132.447159 184.673798,133.207306 184.988739,134.000000 184.988739C134.792694 184.988739,135.552841 184.673798,136.113312 184.113312C136.673798 183.552841,136.988739 182.792694,136.988739 182.000000Z" style="fill: rgb(100.000000%,100.000000%,100.000000%);stroke: none;"></path>
  <path d="M119.968384 170.676025C123.093628 175.755142,128.004135 179.827942,134.000000 182.000000C143.136871 185.309937,152.457764 184.022964,160.742035 179.691895" style="stroke:rgb(0.000000%,0.000000%,0.000000%); stroke-width: 0.498138;stroke-linecap: round;stroke-linejoin: round;stroke-miterlimit: 10.000000;fill: none;"></path>
  <path d="M125.377289 138.096817C125.377289 137.304123,125.062347 136.543976,124.501862 135.983505C123.941391 135.423019,123.181244 135.108078,122.388550 135.108078C121.595856 135.108078,120.835709 135.423019,120.275238 135.983505C119.714752 136.543976,119.399811 137.304123,119.399811 138.096817C119.399811 138.889511,119.714752 139.649658,120.275238 140.210129C120.835709 140.770615,121.595856 141.085556,122.388550 141.085556C123.181244 141.085556,123.941391 140.770615,124.501862 140.210129C125.062347 139.649658,125.377289 138.889511,125.377289 138.096817Z" style="fill: rgb(100.000000%,100.000000%,100.000000%);stroke: none;"></path>
  <path d="M116.572632 133.490265C118.504745 135.026962,120.521942 136.480820,122.388550 138.096817C123.268768 138.858856,124.163589 139.669968,125.129242 140.284058" style="stroke:rgb(0.000000%,0.000000%,0.000000%); stroke-width: 0.498138;stroke-linecap: round;stroke-linejoin: round;stroke-miterlimit: 10.000000;fill: none;"></path>
  <path d="M177.358032 102.112793C177.358032 101.320099,177.043091 100.559952,176.482605 99.999481C175.922134 99.438995,175.161987 99.124054,174.369293 99.124054C173.576599 99.124054,172.816452 99.438995,172.255981 99.999481C171.695496 100.559952,171.380554 101.320099,171.380554 102.112793C171.380554 102.905487,171.695496 103.665634,172.255981 104.226105C172.816452 104.786591,173.576599 105.101532,174.369293 105.101532C175.161987 105.101532,175.922134 104.786591,176.482605 104.226105C177.043091 103.665634,177.358032 102.905487,177.358032 102.112793Z" style="fill: rgb(100.000000%,100.000000%,100.000000%);stroke: none;"></path>
  <path d="M162.002441 115.257080C166.920303 111.596634,171.367081 107.516602,174.369293 102.112793C179.667389 92.576569,179.567337 82.222107,176.223831 72.141586" style="stroke:rgb(0.000000%,0.000000%,0.000000%); stroke-width: 0.498138;stroke-linecap: round;stroke-linejoin: round;stroke-miterlimit: 10.000000;fill: none;"></path>
  <path d="M106.760437 113.126511C106.760437 112.333817,106.445496 111.573669,105.885010 111.013199C105.324539 110.452713,104.564392 110.137772,103.771698 110.137772C102.979004 110.137772,102.218857 110.452713,101.658386 111.013199C101.097900 111.573669,100.782959 112.333817,100.782959 113.126511C100.782959 113.919205,101.097900 114.679352,101.658386 115.239822C102.218857 115.800308,102.979004 116.115250,103.771698 116.115250C104.564392 116.115250,105.324539 115.800308,105.885010 115.239822C106.445496 114.679352,106.760437 113.919205,106.760437 113.126511Z" style="fill: rgb(100.000000%,100.000000%,100.000000%);stroke: none;"></path>
  <path d="M100.316772 105.686310C101.104401 108.176270,102.541290 110.698517,103.771698 113.126511C105.057800 115.664413,106.051773 118.356720,107.164185 120.975906" style="stroke:rgb(0.000000%,0.000000%,0.000000%); stroke-width: 0.498138;stroke-linecap: round;stroke-linejoin: round;stroke-miterlimit: 10.000000;fill: none;"></path>
  <path d="M136.988739 137.693542C136.988739 136.900848,136.673798 136.140701,136.113312 135.580231C135.552841 135.019745,134.792694 134.704803,134.000000 134.704803C133.207306 134.704803,132.447159 135.019745,131.886688 135.580231C131.326202 136.140701,131.011261 136.900848,131.011261 137.693542C131.011261 138.486237,131.326202 139.246384,131.886688 139.806854C132.447159 140.367340,133.207306 140.682281,134.000000 140.682281C134.792694 140.682281,135.552841 140.367340,136.113312 139.806854C136.673798 139.246384,136.988739 138.486237,136.988739 137.693542Z" style="fill: rgb(100.000000%,100.000000%,100.000000%);stroke: none;"></path>
  <path d="M136.789551 144.113892C135.849258 141.979111,134.861771 139.861115,134.000000 137.693542C133.389053 136.156876,132.670197 134.561829,131.712753 133.365997" style="stroke:rgb(0.000000%,0.000000%,0.000000%); stroke-width: 0.498138;stroke-linecap: round;stroke-linejoin: round;stroke-miterlimit: 10.000000;fill: none;"></path>
  <path d="M107.069870 25.632965C107.069870 24.840271,106.754929 24.080124,106.194443 23.519653C105.633972 22.959167,104.873825 22.644226,104.081131 22.644226C103.288437 22.644226,102.528290 22.959167,101.967819 23.519653C101.407333 24.080124,101.092392 24.840271,101.092392 25.632965C101.092392 26.425659,101.407333 27.185806,101.967819 27.746277C102.528290 28.306763,103.288437 28.621704,104.081131 28.621704C104.873825 28.621704,105.633972 28.306763,106.194443 27.746277C106.754929 27.185806,107.069870 26.425659,107.069870 25.632965Z" style="fill: rgb(100.000000%,100.000000%,100.000000%);stroke: none;"></path>
  <path d="M132.462296 24.511047C122.974731 20.713379,113.116196 20.319855,104.081131 25.632965C97.864609 29.288620,93.625336 35.402191,89.189301 41.163483" style="stroke:rgb(0.000000%,0.000000%,0.000000%); stroke-width: 0.498138;stroke-linecap: round;stroke-linejoin: round;stroke-miterlimit: 10.000000;fill: none;"></path>
  <path d="M38.131210 133.517273C38.131210 132.724579,37.816269 131.964432,37.255783 131.403961C36.695312 130.843475,35.935165 130.528534,35.142471 130.528534C34.349777 130.528534,33.589630 130.843475,33.029160 131.403961C32.468674 131.964432,32.153732 132.724579,32.153732 133.517273C32.153732 134.309967,32.468674 135.070114,33.029160 135.630585C33.589630 136.191071,34.349777 136.506012,35.142471 136.506012C35.935165 136.506012,36.695312 136.191071,37.255783 135.630585C37.816269 135.070114,38.131210 134.309967,38.131210 133.517273Z" style="fill: rgb(100.000000%,100.000000%,100.000000%);stroke: none;"></path>
  <path d="M11.643829 118.194031C17.246460 125.975891,25.281067 131.650848,35.142471 133.517273C42.824524 134.971237,50.287750 133.695541,57.591354 131.219162" style="stroke:rgb(0.000000%,0.000000%,0.000000%); stroke-width: 0.498138;stroke-linecap: round;stroke-linejoin: round;stroke-miterlimit: 10.000000;fill: none;"></path>
  <path d="M117.693634 94.491913C117.693634 93.699219,117.378693 92.939072,116.818207 92.378601C116.257736 91.818115,115.497589 91.503174,114.704895 91.503174C113.912201 91.503174,113.152054 91.818115,112.591583 92.378601C112.031097 92.939072,111.716156 93.699219,111.716156 94.491913C111.716156 95.284607,112.031097 96.044754,112.591583 96.605225C113.152054 97.165710,113.912201 97.480652,114.704895 97.480652C115.497589 97.480652,116.257736 97.165710,116.818207 96.605225C117.378693 96.044754,117.693634 95.284607,117.693634 94.491913Z" style="fill: rgb(100.000000%,100.000000%,100.000000%);stroke: none;"></path>
  <path d="M116.685074 101.584000C116.377823 99.232574,115.525711 96.804535,114.704895 94.491913C113.253677 90.403198,112.052261 86.231491,111.142609 81.999481" style="stroke:rgb(0.000000%,0.000000%,0.000000%); stroke-width: 0.498138;stroke-linecap: round;stroke-linejoin: round;stroke-miterlimit: 10.000000;fill: none;"></path>
  <path d="M36.322433 50.010910C36.322433 49.218216,36.007492 48.458069,35.447006 47.897598C34.886536 47.337112,34.126389 47.022171,33.333694 47.022171C32.541000 47.022171,31.780853 47.337112,31.220383 47.897598C30.659897 48.458069,30.344955 49.218216,30.344955 50.010910C30.344955 50.803604,30.659897 51.563751,31.220383 52.124222C31.780853 52.684708,32.541000 52.999649,33.333694 52.999649C34.126389 52.999649,34.886536 52.684708,35.447006 52.124222C36.007492 51.563751,36.322433 50.803604,36.322433 50.010910Z" style="fill: rgb(100.000000%,100.000000%,100.000000%);stroke: none;"></path>
  <path d="M37.815018 24.532944C33.119873 31.959641,31.220901 40.938400,33.333694 50.010910C34.987762 57.113602,39.191681 63.272369,43.055878 69.499557" style="stroke:rgb(0.000000%,0.000000%,0.000000%); stroke-width: 0.498138;stroke-linecap: round;stroke-linejoin: round;stroke-miterlimit: 10.000000;fill: none;"></path>
  <path d="M127.994034 131.433731C125.484070 131.530228,124.107117 133.751740,123.093063 136.224472" style="stroke:rgb(0.000000%,0.000000%,0.000000%); stroke-width: 0.498138;stroke-linecap: round;stroke-linejoin: round;stroke-miterlimit: 10.000000;fill: none;"></path>
  <path d="M123.361084 133.236450C123.150818 134.162277,123.089401 135.186340,123.093063 136.224472C123.824570 135.487823,124.592133 134.807144,125.395477 134.301178Z" style="stroke:rgb(0.000000%,0.000000%,0.000000%); stroke-width: 0.498138;fill: rgb(0.000000%,0.000000%,0.000000%);"></path>
  <path d="M116.648376 153.314087C114.816025 163.229889,119.345795 172.859207,127.370819 178.538483" style="stroke:rgb(0.000000%,0.000000%,0.000000%); stroke-width: 0.498138;stroke-linecap: round;stroke-linejoin: round;stroke-miterlimit: 10.000000;fill: none;"></path>
  <path d="M124.485550 177.716217C125.426407 178.040909,126.389618 178.315811,127.370819 178.538483C126.834473 177.687210,126.347794 176.811722,125.912094 175.916840Z" style="stroke:rgb(0.000000%,0.000000%,0.000000%); stroke-width: 0.498138;fill: rgb(0.000000%,0.000000%,0.000000%);"></path>
  <path d="M100.757446 98.439835C98.570770 102.117981,100.236969 106.202744,102.250885 110.175812" style="stroke:rgb(0.000000%,0.000000%,0.000000%); stroke-width: 0.498138;stroke-linecap: round;stroke-linejoin: round;stroke-miterlimit: 10.000000;fill: none;"></path>
  <path d="M100.033005 108.155731C100.731216 108.847946,101.483871 109.517960,102.250885 110.175812C102.173721 109.168289,102.115280 108.162308,102.111069 107.179108Z" style="stroke:rgb(0.000000%,0.000000%,0.000000%); stroke-width: 0.498138;fill: rgb(0.000000%,0.000000%,0.000000%);"></path>
  <path d="M73.116989 54.580292C62.575470 57.961731,52.113571 52.330307,41.410797 50.485016" style="stroke:rgb(0.000000%,0.000000%,0.000000%); stroke-width: 0.498138;stroke-linecap: round;stroke-linejoin: round;stroke-miterlimit: 10.000000;fill: none;"></path>
  <path d="M44.354797 49.908234C43.365509 50.076416,42.382980 50.265610,41.410797 50.485016C42.253372 51.017319,43.081879 51.578308,43.900330 52.158936Z" style="stroke:rgb(0.000000%,0.000000%,0.000000%); stroke-width: 0.498138;fill: rgb(0.000000%,0.000000%,0.000000%);"></path>
  <path d="M79.082520 121.716934C85.407379 118.709854,91.884201 115.946228,98.645462 114.217041" style="stroke:rgb(0.000000%,0.000000%,0.000000%); stroke-width: 0.498138;stroke-linecap: round;stroke-linejoin: round;stroke-miterlimit: 10.000000;fill: none;"></path>
  <path d="M96.283463 116.066696C97.058075 115.434082,97.845016 114.816864,98.645462 114.217041C97.655319 114.075165,96.662445 113.955139,95.667374 113.854691Z" style="stroke:rgb(0.000000%,0.000000%,0.000000%); stroke-width: 0.498138;fill: rgb(0.000000%,0.000000%,0.000000%);"></path>
  <path d="M115.396103 108.216400C117.569885 105.006531,116.873886 101.108902,115.668015 97.310120" style="stroke:rgb(0.000000%,0.000000%,0.000000%); stroke-width: 0.498138;stroke-linecap: round;stroke-linejoin: round;stroke-miterlimit: 10.000000;fill: none;"></path>
  <path d="M117.497772 99.687576C116.942703 98.874741,116.319290 98.083206,115.668015 97.310120C115.581863 98.317307,115.462967 99.317825,115.280670 100.285049Z" style="stroke:rgb(0.000000%,0.000000%,0.000000%); stroke-width: 0.498138;fill: rgb(0.000000%,0.000000%,0.000000%);"></path>
  <path d="M59.073303 8.367416C44.558304 12.950180,34.089508 25.239624,32.646164 39.262390" style="stroke:rgb(0.000000%,0.000000%,0.000000%); stroke-width: 0.498138;stroke-linecap: round;stroke-linejoin: round;stroke-miterlimit: 10.000000;fill: none;"></path>
  <path d="M31.920700 36.351151C32.117432 37.329163,32.358963 38.300476,32.646164 39.262390C33.123276 38.379150,33.639313 37.521545,34.191788 36.690872Z" style="stroke:rgb(0.000000%,0.000000%,0.000000%); stroke-width: 0.498138;fill: rgb(0.000000%,0.000000%,0.000000%);"></path>
  <path d="M71.871979 189.604965L77.853271 189.604965L77.853271 182.184570L71.871979 182.184570Z" style="fill: rgb(100.000000%,100.000000%,100.000000%);stroke: none;"></path>
  <path d="M71.871979 191.604965L77.853271 191.604965L77.853271 184.184570L71.871979 184.184570Z" style="fill: rgb(100.000000%,100.000000%,100.000000%);stroke: none;"></path>
  <g transform="translate(72.371979 190.104965)" style="fill: rgb(0.000000%,0.000000%,0.000000%);">
    <use xlink:href="#GLYPHcmr10_49"></use>
  </g>
  <path d="M136.305405 153.345184L142.286697 153.345184L142.286697 145.924789L136.305405 145.924789Z" style="fill: rgb(100.000000%,100.000000%,100.000000%);stroke: none;"></path>
  <path d="M136.305405 155.345184L142.286697 155.345184L142.286697 147.924789L136.305405 147.924789Z" style="fill: rgb(100.000000%,100.000000%,100.000000%);stroke: none;"></path>
  <g transform="translate(136.805405 153.845184)" style="fill: rgb(0.000000%,0.000000%,0.000000%);">
    <use xlink:href="#GLYPHcmr10_50"></use>
  </g>
  <path d="M178.273666 161.829407L184.254959 161.829407L184.254959 154.409012L178.273666 154.409012Z" style="fill: rgb(100.000000%,100.000000%,100.000000%);stroke: none;"></path>
  <path d="M178.273666 163.829407L184.254959 163.829407L184.254959 156.409012L178.273666 156.409012Z" style="fill: rgb(100.000000%,100.000000%,100.000000%);stroke: none;"></path>
  <g transform="translate(178.773666 162.329407)" style="fill: rgb(0.000000%,0.000000%,0.000000%);">
    <use xlink:href="#GLYPHcmr10_51"></use>
  </g>
  <path d="M133.682877 97.307922L139.664169 97.307922L139.664169 89.887527L133.682877 89.887527Z" style="fill: rgb(100.000000%,100.000000%,100.000000%);stroke: none;"></path>
  <path d="M133.682877 99.307922L139.664169 99.307922L139.664169 91.887527L133.682877 91.887527Z" style="fill: rgb(100.000000%,100.000000%,100.000000%);stroke: none;"></path>
  <g transform="translate(134.182877 97.807922)" style="fill: rgb(0.000000%,0.000000%,0.000000%);">
    <use xlink:href="#GLYPHcmr10_52"></use>
  </g>
  <path d="M108.276611 131.096817L114.257904 131.096817L114.257904 123.676422L108.276611 123.676422Z" style="fill: rgb(100.000000%,100.000000%,100.000000%);stroke: none;"></path>
  <path d="M108.276611 133.096817L114.257904 133.096817L114.257904 125.676422L108.276611 125.676422Z" style="fill: rgb(100.000000%,100.000000%,100.000000%);stroke: none;"></path>
  <g transform="translate(108.776611 131.596817)" style="fill: rgb(0.000000%,0.000000%,0.000000%);">
    <use xlink:href="#GLYPHcmr10_53"></use>
  </g>
  <path d="M155.626999 46.524261L161.608292 46.524261L161.608292 39.103867L155.626999 39.103867Z" style="fill: rgb(100.000000%,100.000000%,100.000000%);stroke: none;"></path>
  <path d="M155.626999 48.524261L161.608292 48.524261L161.608292 41.103867L155.626999 41.103867Z" style="fill: rgb(100.000000%,100.000000%,100.000000%);stroke: none;"></path>
  <g transform="translate(156.126999 47.024261)" style="fill: rgb(0.000000%,0.000000%,0.000000%);">
    <use xlink:href="#GLYPHcmr10_54"></use>
  </g>
  <path d="M-0.253677 92.939575L5.727615 92.939575L5.727615 85.519180L-0.253677 85.519180Z" style="fill: rgb(100.000000%,100.000000%,100.000000%);stroke: none;"></path>
  <path d="M-0.253677 94.939575L5.727615 94.939575L5.727615 87.519180L-0.253677 87.519180Z" style="fill: rgb(100.000000%,100.000000%,100.000000%);stroke: none;"></path>
  <g transform="translate(0.246323 93.439575)" style="fill: rgb(0.000000%,0.000000%,0.000000%);">
    <use xlink:href="#GLYPHcmr10_55"></use>
  </g>
  <path d="M106.340302 71.855423L112.321594 71.855423L112.321594 64.435028L106.340302 64.435028Z" style="fill: rgb(100.000000%,100.000000%,100.000000%);stroke: none;"></path>
  <path d="M106.340302 73.855423L112.321594 73.855423L112.321594 66.435028L106.340302 66.435028Z" style="fill: rgb(100.000000%,100.000000%,100.000000%);stroke: none;"></path>
  <g transform="translate(106.840302 72.355423)" style="fill: rgb(0.000000%,0.000000%,0.000000%);">
    <use xlink:href="#GLYPHcmr10_56"></use>
  </g>
  <path d="M47.749069 92.108902L53.730362 92.108902L53.730362 84.688507L47.749069 84.688507Z" style="fill: rgb(100.000000%,100.000000%,100.000000%);stroke: none;"></path>
  <path d="M47.749069 94.108902L53.730362 94.108902L53.730362 86.688507L47.749069 86.688507Z" style="fill: rgb(100.000000%,100.000000%,100.000000%);stroke: none;"></path>
  <g transform="translate(48.249069 92.608902)" style="fill: rgb(0.000000%,0.000000%,0.000000%);">
    <use xlink:href="#GLYPHcmr10_57"></use>
  </g>
</svg>
