<?xml version="1.0"?>
<!-- Created by MetaPost 1.999 on 2021.07.06:0010 -->
<svg version="1.1" xmlns="http://www.w3.org/2000/svg" xmlns:xlink="http://www.w3.org/1999/xlink" width="193.767365" height="195.096054" viewBox="0 0 193.767365 195.096054">
<!-- Original BoundingBox: -158.693542 -50.796600 35.073822 144.299454 -->
  <defs>
    <g transform="scale(0.009963,0.009963)" id="GLYPHcmr10_48">
      <path style="fill-rule: evenodd;" d="M460.000000 -320.000000C460.000000 -400.000000,455.000000 -480.000000,420.000000 -554.000000C374.000000 -650.000000,292.000000 -666.000000,250.000000 -666.000000C190.000000 -666.000000,117.000000 -640.000000,76.000000 -547.000000C44.000000 -478.000000,39.000000 -400.000000,39.000000 -320.000000C39.000000 -245.000000,43.000000 -155.000000,84.000000 -79.000000C127.000000 2.000000,200.000000 22.000000,249.000000 22.000000C303.000000 22.000000,379.000000 1.000000,423.000000 -94.000000C455.000000 -163.000000,460.000000 -241.000000,460.000000 -320.000000M249.000000 -0.000000C210.000000 -0.000000,151.000000 -25.000000,133.000000 -121.000000C122.000000 -181.000000,122.000000 -273.000000,122.000000 -332.000000C122.000000 -396.000000,122.000000 -462.000000,130.000000 -516.000000C149.000000 -635.000000,224.000000 -644.000000,249.000000 -644.000000C282.000000 -644.000000,348.000000 -626.000000,367.000000 -527.000000C377.000000 -471.000000,377.000000 -395.000000,377.000000 -332.000000C377.000000 -257.000000,377.000000 -189.000000,366.000000 -125.000000C351.000000 -30.000000,294.000000 -0.000000,249.000000 -0.000000"></path>
    </g>
    <g transform="scale(0.009963,0.009963)" id="GLYPHcmr10_49">
      <path style="fill-rule: evenodd;" d="M294.000000 -640.000000C294.000000 -664.000000,294.000000 -666.000000,271.000000 -666.000000C209.000000 -602.000000,121.000000 -602.000000,89.000000 -602.000000L89.000000 -571.000000C109.000000 -571.000000,168.000000 -571.000000,220.000000 -597.000000L220.000000 -79.000000C220.000000 -43.000000,217.000000 -31.000000,127.000000 -31.000000L95.000000 -31.000000L95.000000 -0.000000L257.000000 -0.000000L130.000000 -3.000000L217.000000 -3.000000L257.000000 -3.000000L297.000000 -3.000000L384.000000 -3.000000L419.000000 -0.000000L419.000000 -31.000000L387.000000 -31.000000C297.000000 -31.000000,294.000000 -42.000000,294.000000 -79.000000"></path>
    </g>
    <g transform="scale(0.009963,0.009963)" id="GLYPHcmr10_50">
      <path style="fill-rule: evenodd;" d="M127.000000 -77.000000L233.000000 -180.000000C389.000000 -318.000000,449.000000 -372.000000,449.000000 -472.000000C449.000000 -586.000000,359.000000 -666.000000,237.000000 -666.000000C124.000000 -666.000000,50.000000 -574.000000,50.000000 -485.000000C50.000000 -429.000000,100.000000 -429.000000,103.000000 -429.000000C120.000000 -429.000000,155.000000 -441.000000,155.000000 -482.000000C155.000000 -508.000000,137.000000 -534.000000,102.000000 -534.000000C94.000000 -534.000000,92.000000 -534.000000,89.000000 -533.000000C112.000000 -598.000000,166.000000 -635.000000,224.000000 -635.000000C315.000000 -635.000000,358.000000 -554.000000,358.000000 -472.000000C358.000000 -392.000000,308.000000 -313.000000,253.000000 -251.000000L61.000000 -37.000000C50.000000 -26.000000,50.000000 -24.000000,50.000000 -0.000000L421.000000 -0.000000L449.000000 -174.000000L424.000000 -174.000000C419.000000 -144.000000,412.000000 -100.000000,402.000000 -85.000000C395.000000 -77.000000,329.000000 -77.000000,307.000000 -77.000000"></path>
    </g>
    <g transform="scale(0.009963,0.009963)" id="GLYPHcmr10_51">
      <path style="fill-rule: evenodd;" d="M290.000000 -352.000000C372.000000 -379.000000,430.000000 -449.000000,430.000000 -528.000000C430.000000 -610.000000,342.000000 -666.000000,246.000000 -666.000000C145.000000 -666.000000,69.000000 -606.000000,69.000000 -530.000000C69.000000 -497.000000,91.000000 -478.000000,120.000000 -478.000000C151.000000 -478.000000,171.000000 -500.000000,171.000000 -529.000000C171.000000 -579.000000,124.000000 -579.000000,109.000000 -579.000000C140.000000 -628.000000,206.000000 -641.000000,242.000000 -641.000000C283.000000 -641.000000,338.000000 -619.000000,338.000000 -529.000000C338.000000 -517.000000,336.000000 -459.000000,310.000000 -415.000000C280.000000 -367.000000,246.000000 -364.000000,221.000000 -363.000000C213.000000 -362.000000,189.000000 -360.000000,182.000000 -360.000000C174.000000 -359.000000,167.000000 -358.000000,167.000000 -348.000000C167.000000 -337.000000,174.000000 -337.000000,191.000000 -337.000000L235.000000 -337.000000C317.000000 -337.000000,354.000000 -269.000000,354.000000 -171.000000C354.000000 -35.000000,285.000000 -6.000000,241.000000 -6.000000C198.000000 -6.000000,123.000000 -23.000000,88.000000 -82.000000C123.000000 -77.000000,154.000000 -99.000000,154.000000 -137.000000C154.000000 -173.000000,127.000000 -193.000000,98.000000 -193.000000C74.000000 -193.000000,42.000000 -179.000000,42.000000 -135.000000C42.000000 -44.000000,135.000000 22.000000,244.000000 22.000000C366.000000 22.000000,457.000000 -69.000000,457.000000 -171.000000C457.000000 -253.000000,394.000000 -331.000000,290.000000 -352.000000"></path>
    </g>
    <g transform="scale(0.009963,0.009963)" id="GLYPHcmr10_52">
      <path style="fill-rule: evenodd;" d="M294.000000 -165.000000L294.000000 -78.000000C294.000000 -42.000000,292.000000 -31.000000,218.000000 -31.000000L197.000000 -31.000000L197.000000 -0.000000L332.000000 -0.000000L238.000000 -3.000000L290.000000 -3.000000L332.000000 -3.000000L374.000000 -3.000000L427.000000 -3.000000L468.000000 -0.000000L468.000000 -31.000000L447.000000 -31.000000C373.000000 -31.000000,371.000000 -42.000000,371.000000 -78.000000L371.000000 -165.000000L471.000000 -165.000000L471.000000 -196.000000L371.000000 -196.000000L371.000000 -651.000000C371.000000 -671.000000,371.000000 -677.000000,355.000000 -677.000000C346.000000 -677.000000,343.000000 -677.000000,335.000000 -665.000000L28.000000 -196.000000L28.000000 -165.000000M300.000000 -196.000000L56.000000 -196.000000L300.000000 -569.000000"></path>
    </g>
    <g transform="scale(0.009963,0.009963)" id="GLYPHcmr10_53">
      <path style="fill-rule: evenodd;" d="M449.000000 -201.000000C449.000000 -320.000000,367.000000 -420.000000,259.000000 -420.000000C211.000000 -420.000000,168.000000 -404.000000,132.000000 -369.000000L132.000000 -564.000000C152.000000 -558.000000,185.000000 -551.000000,217.000000 -551.000000C340.000000 -551.000000,410.000000 -642.000000,410.000000 -655.000000C410.000000 -661.000000,407.000000 -666.000000,400.000000 -666.000000C399.000000 -666.000000,397.000000 -666.000000,392.000000 -663.000000C372.000000 -654.000000,323.000000 -634.000000,256.000000 -634.000000C216.000000 -634.000000,170.000000 -641.000000,123.000000 -662.000000C115.000000 -665.000000,113.000000 -665.000000,111.000000 -665.000000C101.000000 -665.000000,101.000000 -657.000000,101.000000 -641.000000L101.000000 -345.000000C101.000000 -327.000000,101.000000 -319.000000,115.000000 -319.000000C122.000000 -319.000000,124.000000 -322.000000,128.000000 -328.000000C139.000000 -344.000000,176.000000 -398.000000,257.000000 -398.000000C309.000000 -398.000000,334.000000 -352.000000,342.000000 -334.000000C358.000000 -297.000000,360.000000 -258.000000,360.000000 -208.000000C360.000000 -173.000000,360.000000 -113.000000,336.000000 -71.000000C312.000000 -32.000000,275.000000 -6.000000,229.000000 -6.000000C156.000000 -6.000000,99.000000 -59.000000,82.000000 -118.000000C85.000000 -117.000000,88.000000 -116.000000,99.000000 -116.000000C132.000000 -116.000000,149.000000 -141.000000,149.000000 -165.000000C149.000000 -189.000000,132.000000 -214.000000,99.000000 -214.000000C85.000000 -214.000000,50.000000 -207.000000,50.000000 -161.000000C50.000000 -75.000000,119.000000 22.000000,231.000000 22.000000C347.000000 22.000000,449.000000 -74.000000,449.000000 -201.000000"></path>
    </g>
    <g transform="scale(0.009963,0.009963)" id="GLYPHcmr10_54">
      <path style="fill-rule: evenodd;" d="M132.000000 -328.000000L132.000000 -352.000000C132.000000 -605.000000,256.000000 -641.000000,307.000000 -641.000000C331.000000 -641.000000,373.000000 -635.000000,395.000000 -601.000000C380.000000 -601.000000,340.000000 -601.000000,340.000000 -556.000000C340.000000 -525.000000,364.000000 -510.000000,386.000000 -510.000000C402.000000 -510.000000,432.000000 -519.000000,432.000000 -558.000000C432.000000 -618.000000,388.000000 -666.000000,305.000000 -666.000000C177.000000 -666.000000,42.000000 -537.000000,42.000000 -316.000000C42.000000 -49.000000,158.000000 22.000000,251.000000 22.000000C362.000000 22.000000,457.000000 -72.000000,457.000000 -204.000000C457.000000 -331.000000,368.000000 -427.000000,257.000000 -427.000000C189.000000 -427.000000,152.000000 -376.000000,132.000000 -328.000000M251.000000 -6.000000C188.000000 -6.000000,158.000000 -66.000000,152.000000 -81.000000C134.000000 -128.000000,134.000000 -208.000000,134.000000 -226.000000C134.000000 -304.000000,166.000000 -404.000000,256.000000 -404.000000C272.000000 -404.000000,318.000000 -404.000000,349.000000 -342.000000C367.000000 -305.000000,367.000000 -254.000000,367.000000 -205.000000C367.000000 -157.000000,367.000000 -107.000000,350.000000 -71.000000C320.000000 -11.000000,274.000000 -6.000000,251.000000 -6.000000"></path>
    </g>
    <g transform="scale(0.009963,0.009963)" id="GLYPHcmr10_55">
      <path style="fill-rule: evenodd;" d="M476.000000 -609.000000C485.000000 -621.000000,485.000000 -623.000000,485.000000 -644.000000L242.000000 -644.000000C120.000000 -644.000000,118.000000 -657.000000,114.000000 -676.000000L89.000000 -676.000000L56.000000 -470.000000L81.000000 -470.000000C84.000000 -486.000000,93.000000 -549.000000,106.000000 -561.000000C113.000000 -567.000000,191.000000 -567.000000,204.000000 -567.000000L411.000000 -567.000000C400.000000 -551.000000,321.000000 -442.000000,299.000000 -409.000000C209.000000 -274.000000,176.000000 -135.000000,176.000000 -33.000000C176.000000 -23.000000,176.000000 22.000000,222.000000 22.000000C268.000000 22.000000,268.000000 -23.000000,268.000000 -33.000000L268.000000 -84.000000C268.000000 -139.000000,271.000000 -194.000000,279.000000 -248.000000C283.000000 -271.000000,297.000000 -357.000000,341.000000 -419.000000"></path>
    </g>
    <g transform="scale(0.009963,0.009963)" id="GLYPHcmr10_56">
      <path style="fill-rule: evenodd;" d="M163.000000 -457.000000C117.000000 -487.000000,113.000000 -521.000000,113.000000 -538.000000C113.000000 -599.000000,178.000000 -641.000000,249.000000 -641.000000C322.000000 -641.000000,386.000000 -589.000000,386.000000 -517.000000C386.000000 -460.000000,347.000000 -412.000000,287.000000 -377.000000M309.000000 -362.000000C381.000000 -399.000000,430.000000 -451.000000,430.000000 -517.000000C430.000000 -609.000000,341.000000 -666.000000,250.000000 -666.000000C150.000000 -666.000000,69.000000 -592.000000,69.000000 -499.000000C69.000000 -481.000000,71.000000 -436.000000,113.000000 -389.000000C124.000000 -377.000000,161.000000 -352.000000,186.000000 -335.000000C128.000000 -306.000000,42.000000 -250.000000,42.000000 -151.000000C42.000000 -45.000000,144.000000 22.000000,249.000000 22.000000C362.000000 22.000000,457.000000 -61.000000,457.000000 -168.000000C457.000000 -204.000000,446.000000 -249.000000,408.000000 -291.000000C389.000000 -312.000000,373.000000 -322.000000,309.000000 -362.000000M209.000000 -320.000000L332.000000 -242.000000C360.000000 -223.000000,407.000000 -193.000000,407.000000 -132.000000C407.000000 -58.000000,332.000000 -6.000000,250.000000 -6.000000C164.000000 -6.000000,92.000000 -68.000000,92.000000 -151.000000C92.000000 -209.000000,124.000000 -273.000000,209.000000 -320.000000"></path>
    </g>
    <g transform="scale(0.009963,0.009963)" id="GLYPHcmr10_57">
      <path style="fill-rule: evenodd;" d="M367.000000 -318.000000L367.000000 -286.000000C367.000000 -52.000000,263.000000 -6.000000,205.000000 -6.000000C188.000000 -6.000000,134.000000 -8.000000,107.000000 -42.000000C151.000000 -42.000000,159.000000 -71.000000,159.000000 -88.000000C159.000000 -119.000000,135.000000 -134.000000,113.000000 -134.000000C97.000000 -134.000000,67.000000 -125.000000,67.000000 -86.000000C67.000000 -19.000000,121.000000 22.000000,206.000000 22.000000C335.000000 22.000000,457.000000 -114.000000,457.000000 -329.000000C457.000000 -598.000000,342.000000 -666.000000,253.000000 -666.000000C198.000000 -666.000000,149.000000 -648.000000,106.000000 -603.000000C65.000000 -558.000000,42.000000 -516.000000,42.000000 -441.000000C42.000000 -316.000000,130.000000 -218.000000,242.000000 -218.000000C303.000000 -218.000000,344.000000 -260.000000,367.000000 -318.000000M243.000000 -241.000000C227.000000 -241.000000,181.000000 -241.000000,150.000000 -304.000000C132.000000 -341.000000,132.000000 -391.000000,132.000000 -440.000000C132.000000 -494.000000,132.000000 -541.000000,153.000000 -578.000000C180.000000 -628.000000,218.000000 -641.000000,253.000000 -641.000000C299.000000 -641.000000,332.000000 -607.000000,349.000000 -562.000000C361.000000 -530.000000,365.000000 -467.000000,365.000000 -421.000000C365.000000 -338.000000,331.000000 -241.000000,243.000000 -241.000000"></path>
    </g>
  </defs>
  <path d="M133.154160 146.360031C133.154160 145.567337,132.839218 144.807190,132.278732 144.246719C131.718262 143.686234,130.958115 143.371292,130.165421 143.371292C129.372726 143.371292,128.612579 143.686234,128.052109 144.246719C127.491623 144.807190,127.176682 145.567337,127.176682 146.360031C127.176682 147.152725,127.491623 147.912872,128.052109 148.473343C128.612579 149.033829,129.372726 149.348770,130.165421 149.348770C130.958115 149.348770,131.718262 149.033829,132.278732 148.473343C132.839218 147.912872,133.154160 147.152725,133.154160 146.360031Z" style="fill: rgb(100.000000%,100.000000%,100.000000%);stroke: none;"></path>
  <path d="M122.471863 137.323151C122.471863 136.530457,122.156921 135.770309,121.596436 135.209839C121.035965 134.649353,120.275818 134.334412,119.483124 134.334412C118.690430 134.334412,117.930283 134.649353,117.369812 135.209839C116.809326 135.770309,116.494385 136.530457,116.494385 137.323151C116.494385 138.115845,116.809326 138.875992,117.369812 139.436462C117.930283 139.996948,118.690430 140.311890,119.483124 140.311890C120.275818 140.311890,121.035965 139.996948,121.596436 139.436462C122.156921 138.875992,122.471863 138.115845,122.471863 137.323151Z" style="fill: rgb(100.000000%,100.000000%,100.000000%);stroke: none;"></path>
  <path d="M181.155228 136.435471C181.155228 135.642776,180.840286 134.882629,180.279800 134.322159C179.719330 133.761673,178.959183 133.446732,178.166489 133.446732C177.373795 133.446732,176.613647 133.761673,176.053177 134.322159C175.492691 134.882629,175.177750 135.642776,175.177750 136.435471C175.177750 137.228165,175.492691 137.988312,176.053177 138.548782C176.613647 139.109268,177.373795 139.424210,178.166489 139.424210C178.959183 139.424210,179.719330 139.109268,180.279800 138.548782C180.840286 137.988312,181.155228 137.228165,181.155228 136.435471Z" style="fill: rgb(100.000000%,100.000000%,100.000000%);stroke: none;"></path>
  <path d="M147.888046 148.914124C147.888046 148.121429,147.573105 147.361282,147.012619 146.800812C146.452148 146.240326,145.692001 145.925385,144.899307 145.925385C144.106613 145.925385,143.346466 146.240326,142.785995 146.800812C142.225510 147.361282,141.910568 148.121429,141.910568 148.914124C141.910568 149.706818,142.225510 150.466965,142.785995 151.027435C143.346466 151.587921,144.106613 151.902863,144.899307 151.902863C145.692001 151.902863,146.452148 151.587921,147.012619 151.027435C147.573105 150.466965,147.888046 149.706818,147.888046 148.914124Z" style="fill: rgb(100.000000%,100.000000%,100.000000%);stroke: none;"></path>
  <path d="M193.073822 70.063690C193.073822 69.270996,192.758881 68.510849,192.198395 67.950378C191.637924 67.389893,190.877777 67.074951,190.085083 67.074951C189.292389 67.074951,188.532242 67.389893,187.971771 67.950378C187.411285 68.510849,187.096344 69.270996,187.096344 70.063690C187.096344 70.856384,187.411285 71.616531,187.971771 72.177002C188.532242 72.737488,189.292389 73.052429,190.085083 73.052429C190.877777 73.052429,191.637924 72.737488,192.198395 72.177002C192.758881 71.616531,193.073822 70.856384,193.073822 70.063690Z" style="fill: rgb(100.000000%,100.000000%,100.000000%);stroke: none;"></path>
  <path d="M191.400055 115.043991C191.400055 114.251297,191.085114 113.491150,190.524628 112.930679C189.964157 112.370193,189.204010 112.055252,188.411316 112.055252C187.618622 112.055252,186.858475 112.370193,186.298004 112.930679C185.737518 113.491150,185.422577 114.251297,185.422577 115.043991C185.422577 115.836685,185.737518 116.596832,186.298004 117.157303C186.858475 117.717789,187.618622 118.032730,188.411316 118.032730C189.204010 118.032730,189.964157 117.717789,190.524628 117.157303C191.085114 116.596832,191.400055 115.836685,191.400055 115.043991Z" style="fill: rgb(100.000000%,100.000000%,100.000000%);stroke: none;"></path>
  <path d="M147.842789 41.498306C147.842789 40.705612,147.527847 39.945465,146.967361 39.384995C146.406891 38.824509,145.646744 38.509567,144.854050 38.509567C144.061356 38.509567,143.301208 38.824509,142.740738 39.384995C142.180252 39.945465,141.865311 40.705612,141.865311 41.498306C141.865311 42.291000,142.180252 43.051147,142.740738 43.611618C143.301208 44.172104,144.061356 44.487045,144.854050 44.487045C145.646744 44.487045,146.406891 44.172104,146.967361 43.611618C147.527847 43.051147,147.842789 42.291000,147.842789 41.498306Z" style="fill: rgb(100.000000%,100.000000%,100.000000%);stroke: none;"></path>
  <path d="M182.344208 47.153015C182.344208 46.360321,182.029266 45.600174,181.468781 45.039703C180.908310 44.479218,180.148163 44.164276,179.355469 44.164276C178.562775 44.164276,177.802628 44.479218,177.242157 45.039703C176.681671 45.600174,176.366730 46.360321,176.366730 47.153015C176.366730 47.945709,176.681671 48.705856,177.242157 49.266327C177.802628 49.826813,178.562775 50.141754,179.355469 50.141754C180.148163 50.141754,180.908310 49.826813,181.468781 49.266327C182.029266 48.705856,182.344208 47.945709,182.344208 47.153015Z" style="fill: rgb(100.000000%,100.000000%,100.000000%);stroke: none;"></path>
  <path d="M109.346573 42.724091C109.346573 41.931396,109.031631 41.171249,108.471146 40.610779C107.910675 40.050293,107.150528 39.735352,106.357834 39.735352C105.565140 39.735352,104.804993 40.050293,104.244522 40.610779C103.684036 41.171249,103.369095 41.931396,103.369095 42.724091C103.369095 43.516785,103.684036 44.276932,104.244522 44.837402C104.804993 45.397888,105.565140 45.712830,106.357834 45.712830C107.150528 45.712830,107.910675 45.397888,108.471146 44.837402C109.031631 44.276932,109.346573 43.516785,109.346573 42.724091Z" style="fill: rgb(100.000000%,100.000000%,100.000000%);stroke: none;"></path>
  <path d="M134.655243 49.045334C134.655243 48.252640,134.340302 47.492493,133.779816 46.932022C133.219345 46.371536,132.459198 46.056595,131.666504 46.056595C130.873810 46.056595,130.113663 46.371536,129.553192 46.932022C128.992706 47.492493,128.677765 48.252640,128.677765 49.045334C128.677765 49.838028,128.992706 50.598175,129.553192 51.158646C130.113663 51.719131,130.873810 52.034073,131.666504 52.034073C132.459198 52.034073,133.219345 51.719131,133.779816 51.158646C134.340302 50.598175,134.655243 49.838028,134.655243 49.045334Z" style="fill: rgb(100.000000%,100.000000%,100.000000%);stroke: none;"></path>
  <path d="M69.230728 21.240097C69.230728 20.447403,68.915787 19.687256,68.355301 19.126785C67.794830 18.566299,67.034683 18.251358,66.241989 18.251358C65.449295 18.251358,64.689148 18.566299,64.128677 19.126785C63.568192 19.687256,63.253250 20.447403,63.253250 21.240097C63.253250 22.032791,63.568192 22.792938,64.128677 23.353409C64.689148 23.913895,65.449295 24.228836,66.241989 24.228836C67.034683 24.228836,67.794830 23.913895,68.355301 23.353409C68.915787 22.792938,69.230728 22.032791,69.230728 21.240097Z" style="fill: rgb(100.000000%,100.000000%,100.000000%);stroke: none;"></path>
  <path d="M101.281403 30.863113C101.281403 30.070419,100.966461 29.310272,100.405975 28.749802C99.845505 28.189316,99.085358 27.874374,98.292664 27.874374C97.499969 27.874374,96.739822 28.189316,96.179352 28.749802C95.618866 29.310272,95.303925 30.070419,95.303925 30.863113C95.303925 31.655807,95.618866 32.415955,96.179352 32.976425C96.739822 33.536911,97.499969 33.851852,98.292664 33.851852C99.085358 33.851852,99.845505 33.536911,100.405975 32.976425C100.966461 32.415955,101.281403 31.655807,101.281403 30.863113Z" style="fill: rgb(100.000000%,100.000000%,100.000000%);stroke: none;"></path>
  <path d="M24.063995 70.047562C24.063995 69.254868,23.749054 68.494720,23.188568 67.934250C22.628098 67.373764,21.867950 67.058823,21.075256 67.058823C20.282562 67.058823,19.522415 67.373764,18.961945 67.934250C18.401459 68.494720,18.086517 69.254868,18.086517 70.047562C18.086517 70.840256,18.401459 71.600403,18.961945 72.160873C19.522415 72.721359,20.282562 73.036301,21.075256 73.036301C21.867950 73.036301,22.628098 72.721359,23.188568 72.160873C23.749054 71.600403,24.063995 70.840256,24.063995 70.047562Z" style="fill: rgb(100.000000%,100.000000%,100.000000%);stroke: none;"></path>
  <path d="M51.413315 37.023056C51.413315 36.230362,51.098373 35.470215,50.537888 34.909744C49.977417 34.349258,49.217270 34.034317,48.424576 34.034317C47.631882 34.034317,46.871735 34.349258,46.311264 34.909744C45.750778 35.470215,45.435837 36.230362,45.435837 37.023056C45.435837 37.815750,45.750778 38.575897,46.311264 39.136368C46.871735 39.696854,47.631882 40.011795,48.424576 40.011795C49.217270 40.011795,49.977417 39.696854,50.537888 39.136368C51.098373 38.575897,51.413315 37.815750,51.413315 37.023056Z" style="fill: rgb(100.000000%,100.000000%,100.000000%);stroke: none;"></path>
  <path d="M32.418533 117.946274C32.418533 117.153580,32.103592 116.393433,31.543106 115.832962C30.982635 115.272476,30.222488 114.957535,29.429794 114.957535C28.637100 114.957535,27.876953 115.272476,27.316483 115.832962C26.755997 116.393433,26.441055 117.153580,26.441055 117.946274C26.441055 118.738968,26.755997 119.499115,27.316483 120.059586C27.876953 120.620071,28.637100 120.935013,29.429794 120.935013C30.222488 120.935013,30.982635 120.620071,31.543106 120.059586C32.103592 119.499115,32.418533 118.738968,32.418533 117.946274Z" style="fill: rgb(100.000000%,100.000000%,100.000000%);stroke: none;"></path>
  <path d="M12.996536 90.713608C12.996536 89.920914,12.681595 89.160767,12.121109 88.600296C11.560638 88.039810,10.800491 87.724869,10.007797 87.724869C9.215103 87.724869,8.454956 88.039810,7.894485 88.600296C7.334000 89.160767,7.019058 89.920914,7.019058 90.713608C7.019058 91.506302,7.334000 92.266449,7.894485 92.826920C8.454956 93.387405,9.215103 93.702347,10.007797 93.702347C10.800491 93.702347,11.560638 93.387405,12.121109 92.826920C12.681595 92.266449,12.996536 91.506302,12.996536 90.713608Z" style="fill: rgb(100.000000%,100.000000%,100.000000%);stroke: none;"></path>
  <path d="M62.209976 142.879288C62.209976 142.086594,61.895035 141.326447,61.334549 140.765976C60.774078 140.205490,60.013931 139.890549,59.221237 139.890549C58.428543 139.890549,57.668396 140.205490,57.107925 140.765976C56.547440 141.326447,56.232498 142.086594,56.232498 142.879288C56.232498 143.671982,56.547440 144.432129,57.107925 144.992599C57.668396 145.553085,58.428543 145.868027,59.221237 145.868027C60.013931 145.868027,60.774078 145.553085,61.334549 144.992599C61.895035 144.432129,62.209976 143.671982,62.209976 142.879288Z" style="fill: rgb(100.000000%,100.000000%,100.000000%);stroke: none;"></path>
  <path d="M48.757858 119.909058C48.757858 119.116364,48.442917 118.356216,47.882431 117.795746C47.321960 117.235260,46.561813 116.920319,45.769119 116.920319C44.976425 116.920319,44.216278 117.235260,43.655807 117.795746C43.095322 118.356216,42.780380 119.116364,42.780380 119.909058C42.780380 120.701752,43.095322 121.461899,43.655807 122.022369C44.216278 122.582855,44.976425 122.897797,45.769119 122.897797C46.561813 122.897797,47.321960 122.582855,47.882431 122.022369C48.442917 121.461899,48.757858 120.701752,48.757858 119.909058Z" style="fill: rgb(100.000000%,100.000000%,100.000000%);stroke: none;"></path>
  <path d="M69.800720 189.538605C69.800720 188.745911,69.485779 187.985764,68.925293 187.425293C68.364822 186.864807,67.604675 186.549866,66.811981 186.549866C66.019287 186.549866,65.259140 186.864807,64.698669 187.425293C64.138184 187.985764,63.823242 188.745911,63.823242 189.538605C63.823242 190.331299,64.138184 191.091446,64.698669 191.651917C65.259140 192.212402,66.019287 192.527344,66.811981 192.527344C67.604675 192.527344,68.364822 192.212402,68.925293 191.651917C69.485779 191.091446,69.800720 190.331299,69.800720 189.538605Z" style="fill: rgb(100.000000%,100.000000%,100.000000%);stroke: none;"></path>
  <path d="M56.944351 157.045593C56.944351 156.252899,56.629410 155.492752,56.068924 154.932281C55.508453 154.371796,54.748306 154.056854,53.955612 154.056854C53.162918 154.056854,52.402771 154.371796,51.842300 154.932281C51.281815 155.492752,50.966873 156.252899,50.966873 157.045593C50.966873 157.838287,51.281815 158.598434,51.842300 159.158905C52.402771 159.719391,53.162918 160.034332,53.955612 160.034332C54.748306 160.034332,55.508453 159.719391,56.068924 159.158905C56.629410 158.598434,56.944351 157.838287,56.944351 157.045593Z" style="fill: rgb(100.000000%,100.000000%,100.000000%);stroke: none;"></path>
  <path d="M142.127258 179.460205C142.127258 178.667511,141.812317 177.907364,141.251831 177.346893C140.691360 176.786407,139.931213 176.471466,139.138519 176.471466C138.345825 176.471466,137.585678 176.786407,137.025208 177.346893C136.464722 177.907364,136.149780 178.667511,136.149780 179.460205C136.149780 180.252899,136.464722 181.013046,137.025208 181.573517C137.585678 182.134003,138.345825 182.448944,139.138519 182.448944C139.931213 182.448944,140.691360 182.134003,141.251831 181.573517C141.812317 181.013046,142.127258 180.252899,142.127258 179.460205Z" style="fill: rgb(100.000000%,100.000000%,100.000000%);stroke: none;"></path>
  <path d="M96.287689 191.807861C96.287689 191.015167,95.972748 190.255020,95.412262 189.694550C94.851791 189.134064,94.091644 188.819122,93.298950 188.819122C92.506256 188.819122,91.746109 189.134064,91.185638 189.694550C90.625153 190.255020,90.310211 191.015167,90.310211 191.807861C90.310211 192.600555,90.625153 193.360703,91.185638 193.921173C91.746109 194.481659,92.506256 194.796600,93.298950 194.796600C94.091644 194.796600,94.851791 194.481659,95.412262 193.921173C95.972748 193.360703,96.287689 192.600555,96.287689 191.807861Z" style="fill: rgb(100.000000%,100.000000%,100.000000%);stroke: none;"></path>
  <path d="M159.622528 131.230209C159.622528 130.437515,159.307587 129.677368,158.747101 129.116898C158.186630 128.556412,157.426483 128.241470,156.633789 128.241470C155.841095 128.241470,155.080948 128.556412,154.520477 129.116898C153.959991 129.677368,153.645050 130.437515,153.645050 131.230209C153.645050 132.022903,153.959991 132.783051,154.520477 133.343521C155.080948 133.904007,155.841095 134.218948,156.633789 134.218948C157.426483 134.218948,158.186630 133.904007,158.747101 133.343521C159.307587 132.783051,159.622528 132.022903,159.622528 131.230209Z" style="fill: rgb(100.000000%,100.000000%,100.000000%);stroke: none;"></path>
  <path d="M163.266678 165.291656C163.266678 164.498962,162.951736 163.738815,162.391251 163.178345C161.830780 162.617859,161.070633 162.302917,160.277939 162.302917C159.485245 162.302917,158.725098 162.617859,158.164627 163.178345C157.604141 163.738815,157.289200 164.498962,157.289200 165.291656C157.289200 166.084351,157.604141 166.844498,158.164627 167.404968C158.725098 167.965454,159.485245 168.280396,160.277939 168.280396C161.070633 168.280396,161.830780 167.965454,162.391251 167.404968C162.951736 166.844498,163.266678 166.084351,163.266678 165.291656Z" style="fill: rgb(100.000000%,100.000000%,100.000000%);stroke: none;"></path>
  <path d="M135.270889 109.119049C135.270889 108.326355,134.955948 107.566208,134.395462 107.005737C133.834991 106.445251,133.074844 106.130310,132.282150 106.130310C131.489456 106.130310,130.729309 106.445251,130.168839 107.005737C129.608353 107.566208,129.293411 108.326355,129.293411 109.119049C129.293411 109.911743,129.608353 110.671890,130.168839 111.232361C130.729309 111.792847,131.489456 112.107788,132.282150 112.107788C133.074844 112.107788,133.834991 111.792847,134.395462 111.232361C134.955948 110.671890,135.270889 109.911743,135.270889 109.119049Z" style="fill: rgb(100.000000%,100.000000%,100.000000%);stroke: none;"></path>
  <path d="M149.124939 122.328995C149.124939 121.536301,148.809998 120.776154,148.249512 120.215683C147.689041 119.655197,146.928894 119.340256,146.136200 119.340256C145.343506 119.340256,144.583359 119.655197,144.022888 120.215683C143.462402 120.776154,143.147461 121.536301,143.147461 122.328995C143.147461 123.121689,143.462402 123.881836,144.022888 124.442307C144.583359 125.002792,145.343506 125.317734,146.136200 125.317734C146.928894 125.317734,147.689041 125.002792,148.249512 124.442307C148.809998 123.881836,149.124939 123.121689,149.124939 122.328995Z" style="fill: rgb(100.000000%,100.000000%,100.000000%);stroke: none;"></path>
  <path d="M122.616379 99.692673C122.616379 98.899979,122.301437 98.139832,121.740952 97.579361C121.180481 97.018875,120.420334 96.703934,119.627640 96.703934C118.834946 96.703934,118.074799 97.018875,117.514328 97.579361C116.953842 98.139832,116.638901 98.899979,116.638901 99.692673C116.638901 100.485367,116.953842 101.245514,117.514328 101.805984C118.074799 102.366470,118.834946 102.681412,119.627640 102.681412C120.420334 102.681412,121.180481 102.366470,121.740952 101.805984C122.301437 101.245514,122.616379 100.485367,122.616379 99.692673Z" style="fill: rgb(100.000000%,100.000000%,100.000000%);stroke: none;"></path>
  <path d="M130.860092 104.511078C130.860092 103.718384,130.545151 102.958237,129.984665 102.397766C129.424194 101.837280,128.664047 101.522339,127.871353 101.522339C127.078659 101.522339,126.318512 101.837280,125.758041 102.397766C125.197556 102.958237,124.882614 103.718384,124.882614 104.511078C124.882614 105.303772,125.197556 106.063919,125.758041 106.624390C126.318512 107.184875,127.078659 107.499817,127.871353 107.499817C128.664047 107.499817,129.424194 107.184875,129.984665 106.624390C130.545151 106.063919,130.860092 105.303772,130.860092 104.511078Z" style="fill: rgb(100.000000%,100.000000%,100.000000%);stroke: none;"></path>
  <path d="M118.929901 91.658401C118.929901 90.865707,118.614960 90.105560,118.054474 89.545090C117.494003 88.984604,116.733856 88.669662,115.941162 88.669662C115.148468 88.669662,114.388321 88.984604,113.827850 89.545090C113.267365 90.105560,112.952423 90.865707,112.952423 91.658401C112.952423 92.451096,113.267365 93.211243,113.827850 93.771713C114.388321 94.332199,115.148468 94.647141,115.941162 94.647141C116.733856 94.647141,117.494003 94.332199,118.054474 93.771713C118.614960 93.211243,118.929901 92.451096,118.929901 91.658401Z" style="fill: rgb(100.000000%,100.000000%,100.000000%);stroke: none;"></path>
  <path d="M119.433426 98.017105C119.433426 97.224411,119.118484 96.464264,118.557999 95.903793C117.997528 95.343307,117.237381 95.028366,116.444687 95.028366C115.651993 95.028366,114.891846 95.343307,114.331375 95.903793C113.770889 96.464264,113.455948 97.224411,113.455948 98.017105C113.455948 98.809799,113.770889 99.569946,114.331375 100.130417C114.891846 100.690903,115.651993 101.005844,116.444687 101.005844C117.237381 101.005844,117.997528 100.690903,118.557999 100.130417C119.118484 99.569946,119.433426 98.809799,119.433426 98.017105Z" style="fill: rgb(100.000000%,100.000000%,100.000000%);stroke: none;"></path>
  <path d="M129.628418 83.324219C129.628418 82.531525,129.313477 81.771378,128.752991 81.210907C128.192520 80.650421,127.432373 80.335480,126.639679 80.335480C125.846985 80.335480,125.086838 80.650421,124.526367 81.210907C123.965881 81.771378,123.650940 82.531525,123.650940 83.324219C123.650940 84.116913,123.965881 84.877060,124.526367 85.437531C125.086838 85.998016,125.846985 86.312958,126.639679 86.312958C127.432373 86.312958,128.192520 85.998016,128.752991 85.437531C129.313477 84.877060,129.628418 84.116913,129.628418 83.324219Z" style="fill: rgb(100.000000%,100.000000%,100.000000%);stroke: none;"></path>
  <path d="M121.830383 89.496902C121.830383 88.704208,121.515442 87.944061,120.954956 87.383591C120.394485 86.823105,119.634338 86.508163,118.841644 86.508163C118.048950 86.508163,117.288803 86.823105,116.728333 87.383591C116.167847 87.944061,115.852905 88.704208,115.852905 89.496902C115.852905 90.289597,116.167847 91.049744,116.728333 91.610214C117.288803 92.170700,118.048950 92.485641,118.841644 92.485641C119.634338 92.485641,120.394485 92.170700,120.954956 91.610214C121.515442 91.049744,121.830383 90.289597,121.830383 89.496902Z" style="fill: rgb(100.000000%,100.000000%,100.000000%);stroke: none;"></path>
  <path d="M147.102798 63.926483C147.102798 63.133789,146.787857 62.373642,146.227371 61.813171C145.666901 61.252686,144.906754 60.937744,144.114059 60.937744C143.321365 60.937744,142.561218 61.252686,142.000748 61.813171C141.440262 62.373642,141.125320 63.133789,141.125320 63.926483C141.125320 64.719177,141.440262 65.479324,142.000748 66.039795C142.561218 66.600281,143.321365 66.915222,144.114059 66.915222C144.906754 66.915222,145.666901 66.600281,146.227371 66.039795C146.787857 65.479324,147.102798 64.719177,147.102798 63.926483Z" style="fill: rgb(100.000000%,100.000000%,100.000000%);stroke: none;"></path>
  <path d="M133.648346 77.882996C133.648346 77.090302,133.333405 76.330154,132.772919 75.769684C132.212448 75.209198,131.452301 74.894257,130.659607 74.894257C129.866913 74.894257,129.106766 75.209198,128.546295 75.769684C127.985809 76.330154,127.670868 77.090302,127.670868 77.882996C127.670868 78.675690,127.985809 79.435837,128.546295 79.996307C129.106766 80.556793,129.866913 80.871735,130.659607 80.871735C131.452301 80.871735,132.212448 80.556793,132.772919 79.996307C133.333405 79.435837,133.648346 78.675690,133.648346 77.882996Z" style="fill: rgb(100.000000%,100.000000%,100.000000%);stroke: none;"></path>
  <path d="M164.340637 26.440399C164.340637 25.647705,164.025696 24.887558,163.465210 24.327087C162.904739 23.766602,162.144592 23.451660,161.351898 23.451660C160.559204 23.451660,159.799057 23.766602,159.238586 24.327087C158.678101 24.887558,158.363159 25.647705,158.363159 26.440399C158.363159 27.233093,158.678101 27.993240,159.238586 28.553711C159.799057 29.114197,160.559204 29.429138,161.351898 29.429138C162.144592 29.429138,162.904739 29.114197,163.465210 28.553711C164.025696 27.993240,164.340637 27.233093,164.340637 26.440399Z" style="fill: rgb(100.000000%,100.000000%,100.000000%);stroke: none;"></path>
  <path d="M158.544495 56.204483C158.544495 55.411789,158.229553 54.651642,157.669067 54.091171C157.108597 53.530685,156.348450 53.215744,155.555756 53.215744C154.763062 53.215744,154.002914 53.530685,153.442444 54.091171C152.881958 54.651642,152.567017 55.411789,152.567017 56.204483C152.567017 56.997177,152.881958 57.757324,153.442444 58.317795C154.002914 58.878281,154.763062 59.193222,155.555756 59.193222C156.348450 59.193222,157.108597 58.878281,157.669067 58.317795C158.229553 57.757324,158.544495 56.997177,158.544495 56.204483Z" style="fill: rgb(100.000000%,100.000000%,100.000000%);stroke: none;"></path>
  <path d="M114.262970 2.689285C114.262970 1.896591,113.948029 1.136444,113.387543 0.575974C112.827072 0.015488,112.066925 -0.299454,111.274231 -0.299454C110.481537 -0.299454,109.721390 0.015488,109.160919 0.575974C108.600433 1.136444,108.285492 1.896591,108.285492 2.689285C108.285492 3.481979,108.600433 4.242126,109.160919 4.802597C109.721390 5.363083,110.481537 5.678024,111.274231 5.678024C112.066925 5.678024,112.827072 5.363083,113.387543 4.802597C113.948029 4.242126,114.262970 3.481979,114.262970 2.689285Z" style="fill: rgb(100.000000%,100.000000%,100.000000%);stroke: none;"></path>
  <path d="M150.522583 11.196442C150.522583 10.403748,150.207642 9.643600,149.647156 9.083130C149.086685 8.522644,148.326538 8.207703,147.533844 8.207703C146.741150 8.207703,145.981003 8.522644,145.420532 9.083130C144.860046 9.643600,144.545105 10.403748,144.545105 11.196442C144.545105 11.989136,144.860046 12.749283,145.420532 13.309753C145.981003 13.870239,146.741150 14.185181,147.533844 14.185181C148.326538 14.185181,149.086685 13.870239,149.647156 13.309753C150.207642 12.749283,150.522583 11.989136,150.522583 11.196442Z" style="fill: rgb(100.000000%,100.000000%,100.000000%);stroke: none;"></path>
  <path d="M85.339844 38.610275C85.339844 37.817581,85.024902 37.057434,84.464417 36.496964C83.903946 35.936478,83.143799 35.621536,82.351105 35.621536C81.558411 35.621536,80.798264 35.936478,80.237793 36.496964C79.677307 37.057434,79.362366 37.817581,79.362366 38.610275C79.362366 39.402969,79.677307 40.163116,80.237793 40.723587C80.798264 41.284073,81.558411 41.599014,82.351105 41.599014C83.143799 41.599014,83.903946 41.284073,84.464417 40.723587C85.024902 40.163116,85.339844 39.402969,85.339844 38.610275Z" style="fill: rgb(100.000000%,100.000000%,100.000000%);stroke: none;"></path>
  <path d="M94.848099 10.156601C94.848099 9.363907,94.533157 8.603760,93.972672 8.043289C93.412201 7.482803,92.652054 7.167862,91.859360 7.167862C91.066666 7.167862,90.306519 7.482803,89.746048 8.043289C89.185562 8.603760,88.870621 9.363907,88.870621 10.156601C88.870621 10.949295,89.185562 11.709442,89.746048 12.269913C90.306519 12.830399,91.066666 13.145340,91.859360 13.145340C92.652054 13.145340,93.412201 12.830399,93.972672 12.269913C94.533157 11.709442,94.848099 10.949295,94.848099 10.156601Z" style="fill: rgb(100.000000%,100.000000%,100.000000%);stroke: none;"></path>
  <path d="M93.566513 68.536072C93.566513 67.743378,93.251572 66.983231,92.691086 66.422760C92.130615 65.862274,91.370468 65.547333,90.577774 65.547333C89.785080 65.547333,89.024933 65.862274,88.464462 66.422760C87.903976 66.983231,87.589035 67.743378,87.589035 68.536072C87.589035 69.328766,87.903976 70.088913,88.464462 70.649384C89.024933 71.209869,89.785080 71.524811,90.577774 71.524811C91.370468 71.524811,92.130615 71.209869,92.691086 70.649384C93.251572 70.088913,93.566513 69.328766,93.566513 68.536072Z" style="fill: rgb(100.000000%,100.000000%,100.000000%);stroke: none;"></path>
  <path d="M89.769119 50.517990C89.769119 49.725296,89.454178 48.965149,88.893692 48.404678C88.333221 47.844193,87.573074 47.529251,86.780380 47.529251C85.987686 47.529251,85.227539 47.844193,84.667068 48.404678C84.106583 48.965149,83.791641 49.725296,83.791641 50.517990C83.791641 51.310684,84.106583 52.070831,84.667068 52.631302C85.227539 53.191788,85.987686 53.506729,86.780380 53.506729C87.573074 53.506729,88.333221 53.191788,88.893692 52.631302C89.454178 52.070831,89.769119 51.310684,89.769119 50.517990Z" style="fill: rgb(100.000000%,100.000000%,100.000000%);stroke: none;"></path>
  <path d="M97.523010 84.190125C97.523010 83.397430,97.208069 82.637283,96.647583 82.076813C96.087112 81.516327,95.326965 81.201385,94.534271 81.201385C93.741577 81.201385,92.981430 81.516327,92.420959 82.076813C91.860474 82.637283,91.545532 83.397430,91.545532 84.190125C91.545532 84.982819,91.860474 85.742966,92.420959 86.303436C92.981430 86.863922,93.741577 87.178864,94.534271 87.178864C95.326965 87.178864,96.087112 86.863922,96.647583 86.303436C97.208069 85.742966,97.523010 84.982819,97.523010 84.190125Z" style="fill: rgb(100.000000%,100.000000%,100.000000%);stroke: none;"></path>
  <path d="M94.308807 75.009796C94.308807 74.217102,93.993866 73.456955,93.433380 72.896484C92.872910 72.335999,92.112762 72.021057,91.320068 72.021057C90.527374 72.021057,89.767227 72.335999,89.206757 72.896484C88.646271 73.456955,88.331329 74.217102,88.331329 75.009796C88.331329 75.802490,88.646271 76.562637,89.206757 77.123108C89.767227 77.683594,90.527374 77.998535,91.320068 77.998535C92.112762 77.998535,92.872910 77.683594,93.433380 77.123108C93.993866 76.562637,94.308807 75.802490,94.308807 75.009796Z" style="fill: rgb(100.000000%,100.000000%,100.000000%);stroke: none;"></path>
  <path d="M95.278061 93.335999C95.278061 92.543304,94.963120 91.783157,94.402634 91.222687C93.842163 90.662201,93.082016 90.347260,92.289322 90.347260C91.496628 90.347260,90.736481 90.662201,90.176010 91.222687C89.615524 91.783157,89.300583 92.543304,89.300583 93.335999C89.300583 94.128693,89.615524 94.888840,90.176010 95.449310C90.736481 96.009796,91.496628 96.324738,92.289322 96.324738C93.082016 96.324738,93.842163 96.009796,94.402634 95.449310C94.963120 94.888840,95.278061 94.128693,95.278061 93.335999Z" style="fill: rgb(100.000000%,100.000000%,100.000000%);stroke: none;"></path>
  <path d="M98.836868 87.520294C98.836868 86.727600,98.521927 85.967453,97.961441 85.406982C97.400970 84.846497,96.640823 84.531555,95.848129 84.531555C95.055435 84.531555,94.295288 84.846497,93.734818 85.406982C93.174332 85.967453,92.859390 86.727600,92.859390 87.520294C92.859390 88.312988,93.174332 89.073135,93.734818 89.633606C94.295288 90.194092,95.055435 90.509033,95.848129 90.509033C96.640823 90.509033,97.400970 90.194092,97.961441 89.633606C98.521927 89.073135,98.836868 88.312988,98.836868 87.520294Z" style="fill: rgb(100.000000%,100.000000%,100.000000%);stroke: none;"></path>
  <path d="M79.945709 94.164001C79.945709 93.371307,79.630768 92.611160,79.070282 92.050690C78.509811 91.490204,77.749664 91.175262,76.956970 91.175262C76.164276 91.175262,75.404129 91.490204,74.843658 92.050690C74.283173 92.611160,73.968231 93.371307,73.968231 94.164001C73.968231 94.956696,74.283173 95.716843,74.843658 96.277313C75.404129 96.837799,76.164276 97.152740,76.956970 97.152740C77.749664 97.152740,78.509811 96.837799,79.070282 96.277313C79.630768 95.716843,79.945709 94.956696,79.945709 94.164001Z" style="fill: rgb(100.000000%,100.000000%,100.000000%);stroke: none;"></path>
  <path d="M91.221832 93.396454C91.221832 92.603760,90.906891 91.843613,90.346405 91.283142C89.785934 90.722656,89.025787 90.407715,88.233093 90.407715C87.440399 90.407715,86.680252 90.722656,86.119781 91.283142C85.559296 91.843613,85.244354 92.603760,85.244354 93.396454C85.244354 94.189148,85.559296 94.949295,86.119781 95.509766C86.680252 96.070251,87.440399 96.385193,88.233093 96.385193C89.025787 96.385193,89.785934 96.070251,90.346405 95.509766C90.906891 94.949295,91.221832 94.189148,91.221832 93.396454Z" style="fill: rgb(100.000000%,100.000000%,100.000000%);stroke: none;"></path>
  <path d="M51.458237 101.254013C51.458237 100.461319,51.143295 99.701172,50.582809 99.140701C50.022339 98.580215,49.262192 98.265274,48.469498 98.265274C47.676804 98.265274,46.916656 98.580215,46.356186 99.140701C45.795700 99.701172,45.480759 100.461319,45.480759 101.254013C45.480759 102.046707,45.795700 102.806854,46.356186 103.367325C46.916656 103.927811,47.676804 104.242752,48.469498 104.242752C49.262192 104.242752,50.022339 103.927811,50.582809 103.367325C51.143295 102.806854,51.458237 102.046707,51.458237 101.254013Z" style="fill: rgb(100.000000%,100.000000%,100.000000%);stroke: none;"></path>
  <path d="M72.723557 97.083755C72.723557 96.291061,72.408615 95.530914,71.848129 94.970444C71.287659 94.409958,70.527512 94.095016,69.734818 94.095016C68.942123 94.095016,68.181976 94.409958,67.621506 94.970444C67.061020 95.530914,66.746078 96.291061,66.746078 97.083755C66.746078 97.876450,67.061020 98.636597,67.621506 99.197067C68.181976 99.757553,68.942123 100.072495,69.734818 100.072495C70.527512 100.072495,71.287659 99.757553,71.848129 99.197067C72.408615 98.636597,72.723557 97.876450,72.723557 97.083755Z" style="fill: rgb(100.000000%,100.000000%,100.000000%);stroke: none;"></path>
  <path d="M9.589340 116.433624C9.589340 115.640930,9.274399 114.880783,8.713913 114.320312C8.153442 113.759827,7.393295 113.444885,6.600601 113.444885C5.807907 113.444885,5.047760 113.759827,4.487289 114.320312C3.926804 114.880783,3.611862 115.640930,3.611862 116.433624C3.611862 117.226318,3.926804 117.986465,4.487289 118.546936C5.047760 119.107422,5.807907 119.422363,6.600601 119.422363C7.393295 119.422363,8.153442 119.107422,8.713913 118.546936C9.274399 117.986465,9.589340 117.226318,9.589340 116.433624Z" style="fill: rgb(100.000000%,100.000000%,100.000000%);stroke: none;"></path>
  <path d="M36.442871 99.276001C36.442871 98.483307,36.127930 97.723160,35.567444 97.162689C35.006973 96.602203,34.246826 96.287262,33.454132 96.287262C32.661438 96.287262,31.901291 96.602203,31.340820 97.162689C30.780334 97.723160,30.465393 98.483307,30.465393 99.276001C30.465393 100.068695,30.780334 100.828842,31.340820 101.389313C31.901291 101.949799,32.661438 102.264740,33.454132 102.264740C34.246826 102.264740,35.006973 101.949799,35.567444 101.389313C36.127930 100.828842,36.442871 100.068695,36.442871 99.276001Z" style="fill: rgb(100.000000%,100.000000%,100.000000%);stroke: none;"></path>
  <path d="M22.842148 169.340500C22.842148 168.547806,22.527206 167.787659,21.966721 167.227188C21.406250 166.666702,20.646103 166.351761,19.853409 166.351761C19.060715 166.351761,18.300568 166.666702,17.740097 167.227188C17.179611 167.787659,16.864670 168.547806,16.864670 169.340500C16.864670 170.133194,17.179611 170.893341,17.740097 171.453812C18.300568 172.014297,19.060715 172.329239,19.853409 172.329239C20.646103 172.329239,21.406250 172.014297,21.966721 171.453812C22.527206 170.893341,22.842148 170.133194,22.842148 169.340500Z" style="fill: rgb(100.000000%,100.000000%,100.000000%);stroke: none;"></path>
  <path d="M5.283936 136.181641C5.283936 135.388947,4.968994 134.628799,4.408508 134.068329C3.848038 133.507843,3.087891 133.192902,2.295197 133.192902C1.502502 133.192902,0.742355 133.507843,0.181885 134.068329C-0.378601 134.628799,-0.693542 135.388947,-0.693542 136.181641C-0.693542 136.974335,-0.378601 137.734482,0.181885 138.294952C0.742355 138.855438,1.502502 139.170380,2.295197 139.170380C3.087891 139.170380,3.848038 138.855438,4.408508 138.294952C4.968994 137.734482,5.283936 136.974335,5.283936 136.181641Z" style="fill: rgb(100.000000%,100.000000%,100.000000%);stroke: none;"></path>
  <path d="M73.587387 163.746353C73.587387 162.953659,73.272446 162.193512,72.711960 161.633041C72.151489 161.072556,71.391342 160.757614,70.598648 160.757614C69.805954 160.757614,69.045807 161.072556,68.485336 161.633041C67.924850 162.193512,67.609909 162.953659,67.609909 163.746353C67.609909 164.539047,67.924850 165.299194,68.485336 165.859665C69.045807 166.420151,69.805954 166.735092,70.598648 166.735092C71.391342 166.735092,72.151489 166.420151,72.711960 165.859665C73.272446 165.299194,73.587387 164.539047,73.587387 163.746353Z" style="fill: rgb(100.000000%,100.000000%,100.000000%);stroke: none;"></path>
  <path d="M43.726883 176.722794C43.726883 175.930099,43.411942 175.169952,42.851456 174.609482C42.290985 174.048996,41.530838 173.734055,40.738144 173.734055C39.945450 173.734055,39.185303 174.048996,38.624832 174.609482C38.064346 175.169952,37.749405 175.930099,37.749405 176.722794C37.749405 177.515488,38.064346 178.275635,38.624832 178.836105C39.185303 179.396591,39.945450 179.711533,40.738144 179.711533C41.530838 179.711533,42.290985 179.396591,42.851456 178.836105C43.411942 178.275635,43.726883 177.515488,43.726883 176.722794Z" style="fill: rgb(100.000000%,100.000000%,100.000000%);stroke: none;"></path>
  <path d="M94.659134 137.971649C94.659134 137.178955,94.344193 136.418808,93.783707 135.858337C93.223236 135.297852,92.463089 134.982910,91.670395 134.982910C90.877701 134.982910,90.117554 135.297852,89.557083 135.858337C88.996597 136.418808,88.681656 137.178955,88.681656 137.971649C88.681656 138.764343,88.996597 139.524490,89.557083 140.084961C90.117554 140.645447,90.877701 140.960388,91.670395 140.960388C92.463089 140.960388,93.223236 140.645447,93.783707 140.084961C94.344193 139.524490,94.659134 138.764343,94.659134 137.971649Z" style="fill: rgb(100.000000%,100.000000%,100.000000%);stroke: none;"></path>
  <path d="M81.284317 152.628845C81.284317 151.836151,80.969376 151.076004,80.408890 150.515533C79.848419 149.955048,79.088272 149.640106,78.295578 149.640106C77.502884 149.640106,76.742737 149.955048,76.182266 150.515533C75.621780 151.076004,75.306839 151.836151,75.306839 152.628845C75.306839 153.421539,75.621780 154.181686,76.182266 154.742157C76.742737 155.302643,77.502884 155.617584,78.295578 155.617584C79.088272 155.617584,79.848419 155.302643,80.408890 154.742157C80.969376 154.181686,81.284317 153.421539,81.284317 152.628845Z" style="fill: rgb(100.000000%,100.000000%,100.000000%);stroke: none;"></path>
  <path d="M107.871262 127.086456C107.871262 126.293762,107.556320 125.533615,106.995834 124.973145C106.435364 124.412659,105.675217 124.097717,104.882523 124.097717C104.089828 124.097717,103.329681 124.412659,102.769211 124.973145C102.208725 125.533615,101.893784 126.293762,101.893784 127.086456C101.893784 127.879150,102.208725 128.639297,102.769211 129.199768C103.329681 129.760254,104.089828 130.075195,104.882523 130.075195C105.675217 130.075195,106.435364 129.760254,106.995834 129.199768C107.556320 128.639297,107.871262 127.879150,107.871262 127.086456Z" style="fill: rgb(100.000000%,100.000000%,100.000000%);stroke: none;"></path>
  <path d="M99.693146 133.257599C99.693146 132.464905,99.378204 131.704758,98.817719 131.144287C98.257248 130.583801,97.497101 130.268860,96.704407 130.268860C95.911713 130.268860,95.151566 130.583801,94.591095 131.144287C94.030609 131.704758,93.715668 132.464905,93.715668 133.257599C93.715668 134.050293,94.030609 134.810440,94.591095 135.370911C95.151566 135.931396,95.911713 136.246338,96.704407 136.246338C97.497101 136.246338,98.257248 135.931396,98.817719 135.370911C99.378204 134.810440,99.693146 134.050293,99.693146 133.257599Z" style="fill: rgb(100.000000%,100.000000%,100.000000%);stroke: none;"></path>
  <path d="M110.079681 118.412476C110.079681 117.619781,109.764740 116.859634,109.204254 116.299164C108.643784 115.738678,107.883636 115.423737,107.090942 115.423737C106.298248 115.423737,105.538101 115.738678,104.977631 116.299164C104.417145 116.859634,104.102203 117.619781,104.102203 118.412476C104.102203 119.205170,104.417145 119.965317,104.977631 120.525787C105.538101 121.086273,106.298248 121.401215,107.090942 121.401215C107.883636 121.401215,108.643784 121.086273,109.204254 120.525787C109.764740 119.965317,110.079681 119.205170,110.079681 118.412476Z" style="fill: rgb(100.000000%,100.000000%,100.000000%);stroke: none;"></path>
  <path d="M110.737061 124.729263C110.737061 123.936569,110.422119 123.176422,109.861633 122.615952C109.301163 122.055466,108.541016 121.740524,107.748322 121.740524C106.955627 121.740524,106.195480 122.055466,105.635010 122.615952C105.074524 123.176422,104.759583 123.936569,104.759583 124.729263C104.759583 125.521957,105.074524 126.282104,105.635010 126.842575C106.195480 127.403061,106.955627 127.718002,107.748322 127.718002C108.541016 127.718002,109.301163 127.403061,109.861633 126.842575C110.422119 126.282104,110.737061 125.521957,110.737061 124.729263Z" style="fill: rgb(100.000000%,100.000000%,100.000000%);stroke: none;"></path>
  <path d="M100.584198 112.613129C100.584198 111.820435,100.269257 111.060287,99.708771 110.499817C99.148300 109.939331,98.388153 109.624390,97.595459 109.624390C96.802765 109.624390,96.042618 109.939331,95.482147 110.499817C94.921661 111.060287,94.606720 111.820435,94.606720 112.613129C94.606720 113.405823,94.921661 114.165970,95.482147 114.726440C96.042618 115.286926,96.802765 115.601868,97.595459 115.601868C98.388153 115.601868,99.148300 115.286926,99.708771 114.726440C100.269257 114.165970,100.584198 113.405823,100.584198 112.613129Z" style="fill: rgb(100.000000%,100.000000%,100.000000%);stroke: none;"></path>
  <path d="M107.138153 116.695557C107.138153 115.902863,106.823212 115.142715,106.262726 114.582245C105.702255 114.021759,104.942108 113.706818,104.149414 113.706818C103.356720 113.706818,102.596573 114.021759,102.036102 114.582245C101.475616 115.142715,101.160675 115.902863,101.160675 116.695557C101.160675 117.488251,101.475616 118.248398,102.036102 118.808868C102.596573 119.369354,103.356720 119.684296,104.149414 119.684296C104.942108 119.684296,105.702255 119.369354,106.262726 118.808868C106.823212 118.248398,107.138153 117.488251,107.138153 116.695557Z" style="fill: rgb(100.000000%,100.000000%,100.000000%);stroke: none;"></path>
  <path d="M91.642548 102.017410C91.642548 101.224716,91.327606 100.464569,90.767120 99.904099C90.206650 99.343613,89.446503 99.028671,88.653809 99.028671C87.861115 99.028671,87.100967 99.343613,86.540497 99.904099C85.980011 100.464569,85.665070 101.224716,85.665070 102.017410C85.665070 102.810104,85.980011 103.570251,86.540497 104.130722C87.100967 104.691208,87.861115 105.006149,88.653809 105.006149C89.446503 105.006149,90.206650 104.691208,90.767120 104.130722C91.327606 103.570251,91.642548 102.810104,91.642548 102.017410Z" style="fill: rgb(100.000000%,100.000000%,100.000000%);stroke: none;"></path>
  <path d="M97.055740 109.546097C97.055740 108.753403,96.740799 107.993256,96.180313 107.432785C95.619843 106.872299,94.859695 106.557358,94.067001 106.557358C93.274307 106.557358,92.514160 106.872299,91.953690 107.432785C91.393204 107.993256,91.078262 108.753403,91.078262 109.546097C91.078262 110.338791,91.393204 111.098938,91.953690 111.659409C92.514160 112.219894,93.274307 112.534836,94.067001 112.534836C94.859695 112.534836,95.619843 112.219894,96.180313 111.659409C96.740799 111.098938,97.055740 110.338791,97.055740 109.546097Z" style="fill: rgb(100.000000%,100.000000%,100.000000%);stroke: none;"></path>
  <path d="M85.777725 90.417068C85.777725 89.624374,85.462784 88.864227,84.902298 88.303757C84.341827 87.743271,83.581680 87.428329,82.788986 87.428329C81.996292 87.428329,81.236145 87.743271,80.675674 88.303757C80.115189 88.864227,79.800247 89.624374,79.800247 90.417068C79.800247 91.209763,80.115189 91.969910,80.675674 92.530380C81.236145 93.090866,81.996292 93.405807,82.788986 93.405807C83.581680 93.405807,84.341827 93.090866,84.902298 92.530380C85.462784 91.969910,85.777725 91.209763,85.777725 90.417068Z" style="fill: rgb(100.000000%,100.000000%,100.000000%);stroke: none;"></path>
  <path d="M89.865326 97.686829C89.865326 96.894135,89.550385 96.133987,88.989899 95.573517C88.429428 95.013031,87.669281 94.698090,86.876587 94.698090C86.083893 94.698090,85.323746 95.013031,84.763275 95.573517C84.202789 96.133987,83.887848 96.894135,83.887848 97.686829C83.887848 98.479523,84.202789 99.239670,84.763275 99.800140C85.323746 100.360626,86.083893 100.675568,86.876587 100.675568C87.669281 100.675568,88.429428 100.360626,88.989899 99.800140C89.550385 99.239670,89.865326 98.479523,89.865326 97.686829Z" style="fill: rgb(100.000000%,100.000000%,100.000000%);stroke: none;"></path>
  <path d="M87.815704 80.368912C87.815704 79.576218,87.500763 78.816071,86.940277 78.255600C86.379807 77.695114,85.619659 77.380173,84.826965 77.380173C84.034271 77.380173,83.274124 77.695114,82.713654 78.255600C82.153168 78.816071,81.838226 79.576218,81.838226 80.368912C81.838226 81.161606,82.153168 81.921753,82.713654 82.482224C83.274124 83.042709,84.034271 83.357651,84.826965 83.357651C85.619659 83.357651,86.379807 83.042709,86.940277 82.482224C87.500763 81.921753,87.815704 81.161606,87.815704 80.368912Z" style="fill: rgb(100.000000%,100.000000%,100.000000%);stroke: none;"></path>
  <path d="M83.824051 86.784241C83.824051 85.991547,83.509109 85.231400,82.948624 84.670929C82.388153 84.110443,81.628006 83.795502,80.835312 83.795502C80.042618 83.795502,79.282471 84.110443,78.722000 84.670929C78.161514 85.231400,77.846573 85.991547,77.846573 86.784241C77.846573 87.576935,78.161514 88.337082,78.722000 88.897552C79.282471 89.458038,80.042618 89.772980,80.835312 89.772980C81.628006 89.772980,82.388153 89.458038,82.948624 88.897552C83.509109 88.337082,83.824051 87.576935,83.824051 86.784241Z" style="fill: rgb(100.000000%,100.000000%,100.000000%);stroke: none;"></path>
  <path d="M101.424469 81.344391C101.424469 80.551697,101.109528 79.791550,100.549042 79.231079C99.988571 78.670593,99.228424 78.355652,98.435730 78.355652C97.643036 78.355652,96.882889 78.670593,96.322418 79.231079C95.761932 79.791550,95.446991 80.551697,95.446991 81.344391C95.446991 82.137085,95.761932 82.897232,96.322418 83.457703C96.882889 84.018188,97.643036 84.333130,98.435730 84.333130C99.228424 84.333130,99.988571 84.018188,100.549042 83.457703C101.109528 82.897232,101.424469 82.137085,101.424469 81.344391Z" style="fill: rgb(100.000000%,100.000000%,100.000000%);stroke: none;"></path>
  <path d="M92.398895 80.933380C92.398895 80.140686,92.083954 79.380539,91.523468 78.820068C90.962997 78.259583,90.202850 77.944641,89.410156 77.944641C88.617462 77.944641,87.857315 78.259583,87.296844 78.820068C86.736359 79.380539,86.421417 80.140686,86.421417 80.933380C86.421417 81.726074,86.736359 82.486221,87.296844 83.046692C87.857315 83.607178,88.617462 83.922119,89.410156 83.922119C90.202850 83.922119,90.962997 83.607178,91.523468 83.046692C92.083954 82.486221,92.398895 81.726074,92.398895 80.933380Z" style="fill: rgb(100.000000%,100.000000%,100.000000%);stroke: none;"></path>
  <path d="M116.047836 82.410553C116.047836 81.617859,115.732895 80.857712,115.172409 80.297241C114.611938 79.736755,113.851791 79.421814,113.059097 79.421814C112.266403 79.421814,111.506256 79.736755,110.945786 80.297241C110.385300 80.857712,110.070358 81.617859,110.070358 82.410553C110.070358 83.203247,110.385300 83.963394,110.945786 84.523865C111.506256 85.084351,112.266403 85.399292,113.059097 85.399292C113.851791 85.399292,114.611938 85.084351,115.172409 84.523865C115.732895 83.963394,116.047836 83.203247,116.047836 82.410553Z" style="fill: rgb(100.000000%,100.000000%,100.000000%);stroke: none;"></path>
  <path d="M106.459488 80.184860C106.459488 79.392166,106.144547 78.632019,105.584061 78.071548C105.023590 77.511063,104.263443 77.196121,103.470749 77.196121C102.678055 77.196121,101.917908 77.511063,101.357437 78.071548C100.796951 78.632019,100.482010 79.392166,100.482010 80.184860C100.482010 80.977554,100.796951 81.737701,101.357437 82.298172C101.917908 82.858658,102.678055 83.173599,103.470749 83.173599C104.263443 83.173599,105.023590 82.858658,105.584061 82.298172C106.144547 81.737701,106.459488 80.977554,106.459488 80.184860Z" style="fill: rgb(100.000000%,100.000000%,100.000000%);stroke: none;"></path>
  <path d="M127.748611 88.983200C127.748611 88.190506,127.433670 87.430359,126.873184 86.869888C126.312714 86.309402,125.552567 85.994461,124.759872 85.994461C123.967178 85.994461,123.207031 86.309402,122.646561 86.869888C122.086075 87.430359,121.771133 88.190506,121.771133 88.983200C121.771133 89.775894,122.086075 90.536041,122.646561 91.096512C123.207031 91.656998,123.967178 91.971939,124.759872 91.971939C125.552567 91.971939,126.312714 91.656998,126.873184 91.096512C127.433670 90.536041,127.748611 89.775894,127.748611 88.983200Z" style="fill: rgb(100.000000%,100.000000%,100.000000%);stroke: none;"></path>
  <path d="M119.965836 85.511032C119.965836 84.718338,119.650894 83.958191,119.090408 83.397720C118.529938 82.837234,117.769791 82.522293,116.977097 82.522293C116.184402 82.522293,115.424255 82.837234,114.863785 83.397720C114.303299 83.958191,113.988358 84.718338,113.988358 85.511032C113.988358 86.303726,114.303299 87.063873,114.863785 87.624344C115.424255 88.184830,116.184402 88.499771,116.977097 88.499771C117.769791 88.499771,118.529938 88.184830,119.090408 87.624344C119.650894 87.063873,119.965836 86.303726,119.965836 85.511032Z" style="fill: rgb(100.000000%,100.000000%,100.000000%);stroke: none;"></path>
  <path d="M132.077682 97.566101C132.077682 96.773407,131.762741 96.013260,131.202255 95.452789C130.641785 94.892303,129.881638 94.577362,129.088943 94.577362C128.296249 94.577362,127.536102 94.892303,126.975632 95.452789C126.415146 96.013260,126.100204 96.773407,126.100204 97.566101C126.100204 98.358795,126.415146 99.118942,126.975632 99.679413C127.536102 100.239899,128.296249 100.554840,129.088943 100.554840C129.881638 100.554840,130.641785 100.239899,131.202255 99.679413C131.762741 99.118942,132.077682 98.358795,132.077682 97.566101Z" style="fill: rgb(100.000000%,100.000000%,100.000000%);stroke: none;"></path>
  <path d="M131.642563 90.516739C131.642563 89.724045,131.327621 88.963898,130.767136 88.403427C130.206665 87.842941,129.446518 87.528000,128.653824 87.528000C127.861130 87.528000,127.100983 87.842941,126.540512 88.403427C125.980026 88.963898,125.665085 89.724045,125.665085 90.516739C125.665085 91.309433,125.980026 92.069580,126.540512 92.630051C127.100983 93.190536,127.861130 93.505478,128.653824 93.505478C129.446518 93.505478,130.206665 93.190536,130.767136 92.630051C131.327621 92.069580,131.642563 91.309433,131.642563 90.516739Z" style="fill: rgb(100.000000%,100.000000%,100.000000%);stroke: none;"></path>
  <path d="M121.686035 103.303085C121.686035 102.510391,121.371094 101.750244,120.810608 101.189774C120.250137 100.629288,119.489990 100.314346,118.697296 100.314346C117.904602 100.314346,117.144455 100.629288,116.583984 101.189774C116.023499 101.750244,115.708557 102.510391,115.708557 103.303085C115.708557 104.095779,116.023499 104.855927,116.583984 105.416397C117.144455 105.976883,117.904602 106.291824,118.697296 106.291824C119.489990 106.291824,120.250137 105.976883,120.810608 105.416397C121.371094 104.855927,121.686035 104.095779,121.686035 103.303085Z" style="fill: rgb(100.000000%,100.000000%,100.000000%);stroke: none;"></path>
  <path d="M128.595108 99.620911C128.595108 98.828217,128.280167 98.068069,127.719681 97.507599C127.159210 96.947113,126.399063 96.632172,125.606369 96.632172C124.813675 96.632172,124.053528 96.947113,123.493057 97.507599C122.932571 98.068069,122.617630 98.828217,122.617630 99.620911C122.617630 100.413605,122.932571 101.173752,123.493057 101.734222C124.053528 102.294708,124.813675 102.609650,125.606369 102.609650C126.399063 102.609650,127.159210 102.294708,127.719681 101.734222C128.280167 101.173752,128.595108 100.413605,128.595108 99.620911Z" style="fill: rgb(100.000000%,100.000000%,100.000000%);stroke: none;"></path>
  <path d="M111.480255 110.631973C111.480255 109.839279,111.165314 109.079132,110.604828 108.518661C110.044357 107.958176,109.284210 107.643234,108.491516 107.643234C107.698822 107.643234,106.938675 107.958176,106.378204 108.518661C105.817719 109.079132,105.502777 109.839279,105.502777 110.631973C105.502777 111.424667,105.817719 112.184814,106.378204 112.745285C106.938675 113.305771,107.698822 113.620712,108.491516 113.620712C109.284210 113.620712,110.044357 113.305771,110.604828 112.745285C111.165314 112.184814,111.480255 111.424667,111.480255 110.631973Z" style="fill: rgb(100.000000%,100.000000%,100.000000%);stroke: none;"></path>
  <path d="M118.210663 105.695709C118.210663 104.903015,117.895721 104.142868,117.335236 103.582397C116.774765 103.021912,116.014618 102.706970,115.221924 102.706970C114.429230 102.706970,113.669083 103.021912,113.108612 103.582397C112.548126 104.142868,112.233185 104.903015,112.233185 105.695709C112.233185 106.488403,112.548126 107.248550,113.108612 107.809021C113.669083 108.369507,114.429230 108.684448,115.221924 108.684448C116.014618 108.684448,116.774765 108.369507,117.335236 107.809021C117.895721 107.248550,118.210663 106.488403,118.210663 105.695709Z" style="fill: rgb(100.000000%,100.000000%,100.000000%);stroke: none;"></path>
  <path d="M101.304062 116.692307C101.304062 115.899612,100.989120 115.139465,100.428635 114.578995C99.868164 114.018509,99.108017 113.703568,98.315323 113.703568C97.522629 113.703568,96.762482 114.018509,96.202011 114.578995C95.641525 115.139465,95.326584 115.899612,95.326584 116.692307C95.326584 117.485001,95.641525 118.245148,96.202011 118.805618C96.762482 119.366104,97.522629 119.681046,98.315323 119.681046C99.108017 119.681046,99.868164 119.366104,100.428635 118.805618C100.989120 118.245148,101.304062 117.485001,101.304062 116.692307Z" style="fill: rgb(100.000000%,100.000000%,100.000000%);stroke: none;"></path>
  <path d="M108.201324 113.184937C108.201324 112.392242,107.886383 111.632095,107.325897 111.071625C106.765427 110.511139,106.005280 110.196198,105.212585 110.196198C104.419891 110.196198,103.659744 110.511139,103.099274 111.071625C102.538788 111.632095,102.223846 112.392242,102.223846 113.184937C102.223846 113.977631,102.538788 114.737778,103.099274 115.298248C103.659744 115.858734,104.419891 116.173676,105.212585 116.173676C106.005280 116.173676,106.765427 115.858734,107.325897 115.298248C107.886383 114.737778,108.201324 113.977631,108.201324 113.184937Z" style="fill: rgb(100.000000%,100.000000%,100.000000%);stroke: none;"></path>
  <path d="M97.295059 125.732224C97.295059 124.939529,96.980118 124.179382,96.419632 123.618912C95.859161 123.058426,95.099014 122.743484,94.306320 122.743484C93.513626 122.743484,92.753479 123.058426,92.193008 123.618912C91.632523 124.179382,91.317581 124.939529,91.317581 125.732224C91.317581 126.524918,91.632523 127.285065,92.193008 127.845535C92.753479 128.406021,93.513626 128.720963,94.306320 128.720963C95.099014 128.720963,95.859161 128.406021,96.419632 127.845535C96.980118 127.285065,97.295059 126.524918,97.295059 125.732224Z" style="fill: rgb(100.000000%,100.000000%,100.000000%);stroke: none;"></path>
  <path d="M97.628021 118.403183C97.628021 117.610489,97.313080 116.850342,96.752594 116.289871C96.192123 115.729385,95.431976 115.414444,94.639282 115.414444C93.846588 115.414444,93.086441 115.729385,92.525970 116.289871C91.965485 116.850342,91.650543 117.610489,91.650543 118.403183C91.650543 119.195877,91.965485 119.956024,92.525970 120.516495C93.086441 121.076981,93.846588 121.391922,94.639282 121.391922C95.431976 121.391922,96.192123 121.076981,96.752594 120.516495C97.313080 119.956024,97.628021 119.195877,97.628021 118.403183Z" style="fill: rgb(100.000000%,100.000000%,100.000000%);stroke: none;"></path>
  <path d="M111.305161 131.117508C111.305161 130.324814,110.990219 129.564667,110.429733 129.004196C109.869263 128.443710,109.109116 128.128769,108.316422 128.128769C107.523727 128.128769,106.763580 128.443710,106.203110 129.004196C105.642624 129.564667,105.327682 130.324814,105.327682 131.117508C105.327682 131.910202,105.642624 132.670349,106.203110 133.230820C106.763580 133.791306,107.523727 134.106247,108.316422 134.106247C109.109116 134.106247,109.869263 133.791306,110.429733 133.230820C110.990219 132.670349,111.305161 131.910202,111.305161 131.117508Z" style="fill: rgb(100.000000%,100.000000%,100.000000%);stroke: none;"></path>
  <path d="M101.302902 127.839508C101.302902 127.046814,100.987961 126.286667,100.427475 125.726196C99.867004 125.165710,99.106857 124.850769,98.314163 124.850769C97.521469 124.850769,96.761322 125.165710,96.200851 125.726196C95.640366 126.286667,95.325424 127.046814,95.325424 127.839508C95.325424 128.632202,95.640366 129.392349,96.200851 129.952820C96.761322 130.513306,97.521469 130.828247,98.314163 130.828247C99.106857 130.828247,99.867004 130.513306,100.427475 129.952820C100.987961 129.392349,101.302902 128.632202,101.302902 127.839508Z" style="fill: rgb(100.000000%,100.000000%,100.000000%);stroke: none;"></path>
  <path d="M119.483124 137.323151C130.165421 146.360031,144.899307 148.914124,158.000000 144.000000C178.166489 136.435471,188.411316 115.043991,189.228531 93.082245C190.085083 70.063690,179.355469 47.153015,158.000000 43.652893C144.854050 41.498306,131.666504 49.045334,118.681747 45.802185C106.357834 42.724091,98.292664 30.863113,86.157486 27.219604C66.241989 21.240097,48.424576 37.023056,34.619278 53.693054C21.075256 70.047562,10.007797 90.713608,21.542343 106.886841C29.429794 117.946274,45.769119 119.909058,52.688599 131.724457C59.221237 142.879288,53.955612 157.045593,58.659698 168.934647C66.811981 189.538605,93.298950 191.807861,116.726517 185.497253C139.138519 179.460205,160.277939 165.291656,158.000000 144.000000C156.633789 131.230209,146.136200 122.328995,136.850082 113.474609C132.282150 109.119049,127.871353 104.511078,122.414886 101.321808C119.627640 99.692673,116.444687 98.017105,116.193512 94.845200C115.941162 91.658401,118.841644 89.496902,121.389938 87.479752C126.639679 83.324219,130.659607 77.882996,135.301529 73.067856C144.114059 63.926483,155.555756 56.204483,158.000000 43.652893C161.351898 26.440399,147.533844 11.196442,129.519302 6.969910C111.274231 2.689285,91.859360 10.156601,86.157486 27.219604C82.351105 38.610275,86.780380 50.517990,89.244263 62.208771C90.577774 68.536072,91.320068 75.009796,93.458572 81.117737C94.534271 84.190125,95.848129 87.520294,94.162918 90.274231C92.289322 93.335999,88.233093 93.396454,84.603149 93.643539C76.956970 94.164001,69.734818 97.083755,62.224258 98.556625C48.469498 101.254013,33.454132 99.276001,21.542343 106.886841C6.600601 116.433624,2.295197 136.181641,10.701187 152.056442C19.853409 169.340500,40.738144 176.722794,58.659698 168.934647C70.598648 163.746353,78.295578 152.628845,87.031998 143.054764C91.670395 137.971649,96.704407 133.257599,102.197845 129.112289C104.882523 127.086456,107.748322 124.729263,107.407822 121.457336C107.090942 118.412476,104.149414 116.695557,101.524384 115.060440C97.595459 112.613129,94.067001 109.546097,91.363876 105.786575C88.653809 102.017410,86.876587 97.686829,84.603149 93.643539C82.788986 90.417068,80.835312 86.784241,82.737976 83.726303C84.826965 80.368912,89.410156 80.933380,93.458572 81.117737C98.435730 81.344391,103.470749 80.184860,108.338516 81.314789C113.059097 82.410553,116.977097 85.511032,121.389938 87.479752C124.759872 88.983200,128.653824 90.516739,128.874542 94.092636C129.088943 97.566101,125.606369 99.620911,122.414886 101.321808C118.697296 103.303085,115.221924 105.695709,111.825775 108.186539C108.491516 110.631973,105.212585 113.184937,101.524384 115.060440C98.315323 116.692307,94.639282 118.403183,94.479935 121.910629C94.306320 125.732224,98.314163 127.839508,102.197845 129.112289C108.316422 131.117508,114.557388 133.156143,119.483124 137.323151" style="stroke:rgb(0.000000%,0.000000%,0.000000%); stroke-width: 0.498138;stroke-linecap: round;stroke-linejoin: round;stroke-miterlimit: 10.000000;fill: none;"></path>
  <path d="M119.483124 137.323151C130.165421 146.360031,144.899307 148.914124,158.000000 144.000000C178.166489 136.435471,188.411316 115.043991,189.228531 93.082245C190.085083 70.063690,179.355469 47.153015,158.000000 43.652893" style="stroke:rgb(0.000000%,0.000000%,0.000000%); stroke-width: 1.494400;stroke-linecap: round;stroke-linejoin: round;stroke-miterlimit: 10.000000;fill: none;"></path>
  <path d="M102.197845 129.112289C108.316422 131.117508,114.557388 133.156143,119.483124 137.323151" style="stroke:rgb(0.000000%,0.000000%,0.000000%); stroke-width: 1.494400;stroke-linecap: round;stroke-linejoin: round;stroke-miterlimit: 10.000000;fill: none;"></path>
  <path d="M160.988739 144.000000C160.988739 143.207306,160.673798 142.447159,160.113312 141.886688C159.552841 141.326202,158.792694 141.011261,158.000000 141.011261C157.207306 141.011261,156.447159 141.326202,155.886688 141.886688C155.326202 142.447159,155.011261 143.207306,155.011261 144.000000C155.011261 144.792694,155.326202 145.552841,155.886688 146.113312C156.447159 146.673798,157.207306 146.988739,158.000000 146.988739C158.792694 146.988739,159.552841 146.673798,160.113312 146.113312C160.673798 145.552841,160.988739 144.792694,160.988739 144.000000Z" style="fill: rgb(100.000000%,100.000000%,100.000000%);stroke: none;"></path>
  <path d="M137.834671 145.893219C144.491013 147.047073,151.449661 146.457062,158.000000 144.000000C168.083252 140.217728,175.686081 132.978729,180.870255 123.940063" style="stroke:rgb(0.000000%,0.000000%,0.000000%); stroke-width: 1.494400;stroke-linecap: round;stroke-linejoin: round;stroke-miterlimit: 10.000000;fill: none;"></path>
  <path d="M89.146225 27.219604C89.146225 26.426910,88.831284 25.666763,88.270798 25.106293C87.710327 24.545807,86.950180 24.230865,86.157486 24.230865C85.364792 24.230865,84.604645 24.545807,84.044174 25.106293C83.483688 25.666763,83.168747 26.426910,83.168747 27.219604C83.168747 28.012299,83.483688 28.772446,84.044174 29.332916C84.604645 29.893402,85.364792 30.208344,86.157486 30.208344C86.950180 30.208344,87.710327 29.893402,88.270798 29.332916C88.831284 28.772446,89.146225 28.012299,89.146225 27.219604Z" style="fill: rgb(100.000000%,100.000000%,100.000000%);stroke: none;"></path>
  <path d="M102.348831 36.722916C97.275146 32.917465,92.225067 29.041351,86.157486 27.219604C76.199738 24.229843,66.766510 26.680710,58.097046 31.962769" style="stroke:rgb(0.000000%,0.000000%,0.000000%); stroke-width: 0.498138;stroke-linecap: round;stroke-linejoin: round;stroke-miterlimit: 10.000000;fill: none;"></path>
  <path d="M61.648438 168.934647C61.648438 168.141953,61.333496 167.381805,60.773010 166.821335C60.212540 166.260849,59.452393 165.945908,58.659698 165.945908C57.867004 165.945908,57.106857 166.260849,56.546387 166.821335C55.985901 167.381805,55.670959 168.141953,55.670959 168.934647C55.670959 169.727341,55.985901 170.487488,56.546387 171.047958C57.106857 171.608444,57.867004 171.923386,58.659698 171.923386C59.452393 171.923386,60.212540 171.608444,60.773010 171.047958C61.333496 170.487488,61.648438 169.727341,61.648438 168.934647Z" style="fill: rgb(100.000000%,100.000000%,100.000000%);stroke: none;"></path>
  <path d="M56.359863 150.054230C56.448044 156.476288,56.307663 162.990128,58.659698 168.934647C62.735840 179.236633,71.395660 184.954941,81.964890 187.308914" style="stroke:rgb(0.000000%,0.000000%,0.000000%); stroke-width: 0.498138;stroke-linecap: round;stroke-linejoin: round;stroke-miterlimit: 10.000000;fill: none;"></path>
  <path d="M125.403625 101.321808C125.403625 100.529114,125.088684 99.768967,124.528198 99.208496C123.967728 98.648010,123.207581 98.333069,122.414886 98.333069C121.622192 98.333069,120.862045 98.648010,120.301575 99.208496C119.741089 99.768967,119.426147 100.529114,119.426147 101.321808C119.426147 102.114502,119.741089 102.874649,120.301575 103.435120C120.862045 103.995605,121.622192 104.310547,122.414886 104.310547C123.207581 104.310547,123.967728 103.995605,124.528198 103.435120C125.088684 102.874649,125.403625 102.114502,125.403625 101.321808Z" style="fill: rgb(100.000000%,100.000000%,100.000000%);stroke: none;"></path>
  <path d="M129.965668 106.960846C127.609924 104.865753,125.143112 102.916443,122.414886 101.321808C121.021255 100.507233,119.528702 99.681061,118.353165 98.662033" style="stroke:rgb(0.000000%,0.000000%,0.000000%); stroke-width: 0.498138;stroke-linecap: round;stroke-linejoin: round;stroke-miterlimit: 10.000000;fill: none;"></path>
  <path d="M160.988739 43.652893C160.988739 42.860199,160.673798 42.100052,160.113312 41.539581C159.552841 40.979095,158.792694 40.664154,158.000000 40.664154C157.207306 40.664154,156.447159 40.979095,155.886688 41.539581C155.326202 42.100052,155.011261 42.860199,155.011261 43.652893C155.011261 44.445587,155.326202 45.205734,155.886688 45.766205C156.447159 46.326691,157.207306 46.641632,158.000000 46.641632C158.792694 46.641632,159.552841 46.326691,160.113312 45.766205C160.673798 45.205734,160.988739 44.445587,160.988739 43.652893Z" style="fill: rgb(100.000000%,100.000000%,100.000000%);stroke: none;"></path>
  <path d="M149.038879 59.639191C153.306396 54.997070,156.777878 49.928680,158.000000 43.652893C159.675949 35.046646,157.059402 26.932526,151.772049 20.441650" style="stroke:rgb(0.000000%,0.000000%,0.000000%); stroke-width: 0.498138;stroke-linecap: round;stroke-linejoin: round;stroke-miterlimit: 10.000000;fill: none;"></path>
  <path d="M96.447311 81.117737C96.447311 80.325043,96.132370 79.564896,95.571884 79.004425C95.011414 78.443939,94.251266 78.128998,93.458572 78.128998C92.665878 78.128998,91.905731 78.443939,91.345261 79.004425C90.784775 79.564896,90.469833 80.325043,90.469833 81.117737C90.469833 81.910431,90.784775 82.670578,91.345261 83.231049C91.905731 83.791534,92.665878 84.106476,93.458572 84.106476C94.251266 84.106476,95.011414 83.791534,95.571884 83.231049C96.132370 82.670578,96.447311 81.910431,96.447311 81.117737Z" style="fill: rgb(100.000000%,100.000000%,100.000000%);stroke: none;"></path>
  <path d="M87.363495 81.093872C89.276474 80.838364,91.434372 81.025558,93.458572 81.117737C95.947159 81.231064,98.450211 80.997833,100.939575 80.877518" style="stroke:rgb(0.000000%,0.000000%,0.000000%); stroke-width: 0.498138;stroke-linecap: round;stroke-linejoin: round;stroke-miterlimit: 10.000000;fill: none;"></path>
  <path d="M24.531082 106.886841C24.531082 106.094147,24.216141 105.334000,23.655655 104.773529C23.095184 104.213043,22.335037 103.898102,21.542343 103.898102C20.749649 103.898102,19.989502 104.213043,19.429031 104.773529C18.868546 105.334000,18.553604 106.094147,18.553604 106.886841C18.553604 107.679535,18.868546 108.439682,19.429031 109.000153C19.989502 109.560638,20.749649 109.875580,21.542343 109.875580C22.335037 109.875580,23.095184 109.560638,23.655655 109.000153C24.216141 108.439682,24.531082 107.679535,24.531082 106.886841Z" style="fill: rgb(100.000000%,100.000000%,100.000000%);stroke: none;"></path>
  <path d="M41.192169 100.879196C34.230011 101.673218,27.498230 103.081421,21.542343 106.886841C14.071472 111.660233,9.259674 118.983932,7.366364 127.098648" style="stroke:rgb(0.000000%,0.000000%,0.000000%); stroke-width: 0.498138;stroke-linecap: round;stroke-linejoin: round;stroke-miterlimit: 10.000000;fill: none;"></path>
  <path d="M105.186584 129.112289C105.186584 128.319595,104.871643 127.559448,104.311157 126.998978C103.750687 126.438492,102.990540 126.123550,102.197845 126.123550C101.405151 126.123550,100.645004 126.438492,100.084534 126.998978C99.524048 127.559448,99.209106 128.319595,99.209106 129.112289C99.209106 129.904984,99.524048 130.665131,100.084534 131.225601C100.645004 131.786087,101.405151 132.101028,102.197845 132.101028C102.990540 132.101028,103.750687 131.786087,104.311157 131.225601C104.871643 130.665131,105.186584 129.904984,105.186584 129.112289Z" style="fill: rgb(100.000000%,100.000000%,100.000000%);stroke: none;"></path>
  <path d="M94.294296 135.731842C96.819275 133.399780,99.451126 131.184937,102.197845 129.112289C103.540192 128.099365,104.927811 127.003601,105.937286 125.752075" style="stroke:rgb(0.000000%,0.000000%,0.000000%); stroke-width: 0.498138;stroke-linecap: round;stroke-linejoin: round;stroke-miterlimit: 10.000000;fill: none;"></path>
  <path d="M87.591888 93.643539C87.591888 92.850845,87.276947 92.090698,86.716461 91.530228C86.155991 90.969742,85.395844 90.654800,84.603149 90.654800C83.810455 90.654800,83.050308 90.969742,82.489838 91.530228C81.929352 92.090698,81.614410 92.850845,81.614410 93.643539C81.614410 94.436234,81.929352 95.196381,82.489838 95.756851C83.050308 96.317337,83.810455 96.632278,84.603149 96.632278C85.395844 96.632278,86.155991 96.317337,86.716461 95.756851C87.276947 95.196381,87.591888 94.436234,87.591888 93.643539Z" style="fill: rgb(100.000000%,100.000000%,100.000000%);stroke: none;"></path>
  <path d="M90.041656 93.014404C88.339661 93.443115,86.418121 93.520004,84.603149 93.643539C80.780060 93.903778,77.062973 94.763840,73.362839 95.742950" style="stroke:rgb(0.000000%,0.000000%,0.000000%); stroke-width: 0.498138;stroke-linecap: round;stroke-linejoin: round;stroke-miterlimit: 10.000000;fill: none;"></path>
  <path d="M124.378677 87.479752C124.378677 86.687057,124.063736 85.926910,123.503250 85.366440C122.942780 84.805954,122.182632 84.491013,121.389938 84.491013C120.597244 84.491013,119.837097 84.805954,119.276627 85.366440C118.716141 85.926910,118.401199 86.687057,118.401199 87.479752C118.401199 88.272446,118.716141 89.032593,119.276627 89.593063C119.837097 90.153549,120.597244 90.468491,121.389938 90.468491C122.182632 90.468491,122.942780 90.153549,123.503250 89.593063C124.063736 89.032593,124.378677 88.272446,124.378677 87.479752Z" style="fill: rgb(100.000000%,100.000000%,100.000000%);stroke: none;"></path>
  <path d="M114.979645 84.069931C117.100815 85.228104,119.183517 86.495392,121.389938 87.479752C123.074905 88.231476,124.890884 88.990723,126.313202 90.009033" style="stroke:rgb(0.000000%,0.000000%,0.000000%); stroke-width: 0.498138;stroke-linecap: round;stroke-linejoin: round;stroke-miterlimit: 10.000000;fill: none;"></path>
  <path d="M104.513123 115.060440C104.513123 114.267746,104.198181 113.507599,103.637695 112.947128C103.077225 112.386642,102.317078 112.071701,101.524384 112.071701C100.731689 112.071701,99.971542 112.386642,99.411072 112.947128C98.850586 113.507599,98.535645 114.267746,98.535645 115.060440C98.535645 115.853134,98.850586 116.613281,99.411072 117.173752C99.971542 117.734238,100.731689 118.049179,101.524384 118.049179C102.317078 118.049179,103.077225 117.734238,103.637695 117.173752C104.198181 116.613281,104.513123 115.853134,104.513123 115.060440Z" style="fill: rgb(100.000000%,100.000000%,100.000000%);stroke: none;"></path>
  <path d="M106.807800 111.837219C105.110260 113.015579,103.368484 114.122696,101.524384 115.060440C99.919846 115.876373,98.198563 116.712067,96.858505 117.782196" style="stroke:rgb(0.000000%,0.000000%,0.000000%); stroke-width: 0.498138;stroke-linecap: round;stroke-linejoin: round;stroke-miterlimit: 10.000000;fill: none;"></path>
  <path d="M119.483124 137.323151C128.028992 144.552689,139.167908 147.633209,149.989197 146.060150" style="stroke:rgb(0.000000%,0.000000%,0.000000%); stroke-width: 0.498138;stroke-linecap: round;stroke-linejoin: round;stroke-miterlimit: 10.000000;fill: none;"></path>
  <path d="M145.536316 148.334488C147.062363 147.675934,148.550110 146.917038,149.989197 146.060150C148.365692 145.648453,146.777084 145.133057,145.232361 144.519608Z" style="stroke:rgb(0.000000%,0.000000%,0.000000%); stroke-width: 0.498138;fill: rgb(0.000000%,0.000000%,0.000000%);"></path>
  <path d="M119.483124 137.323151C128.028992 144.552689,139.167908 147.633209,149.989197 146.060150" style="stroke:rgb(0.000000%,0.000000%,0.000000%); stroke-width: 0.498138;stroke-linecap: round;stroke-linejoin: round;stroke-miterlimit: 10.000000;fill: none;"></path>
  <path d="M147.353775 147.493607C148.248215 147.051285,149.127441 146.573288,149.989197 146.060150C149.016998 145.813614,148.057327 145.529892,147.112076 145.210190Z" style="stroke:rgb(0.000000%,0.000000%,0.000000%); stroke-width: 0.498138;fill: rgb(0.000000%,0.000000%,0.000000%);"></path>
  <path d="M118.681747 45.802185C108.822586 43.339706,101.689026 35.256134,93.016724 30.255753" style="stroke:rgb(0.000000%,0.000000%,0.000000%); stroke-width: 0.498138;stroke-linecap: round;stroke-linejoin: round;stroke-miterlimit: 10.000000;fill: none;"></path>
  <path d="M95.977570 30.737518C94.992615 30.549164,94.005875 30.385391,93.016724 30.255753C93.624466 31.046860,94.206390 31.860413,94.769653 32.690063Z" style="stroke:rgb(0.000000%,0.000000%,0.000000%); stroke-width: 0.498138;fill: rgb(0.000000%,0.000000%,0.000000%);"></path>
  <path d="M52.688599 131.724457C57.914734 140.648361,55.589920 151.499619,56.859497 161.570374" style="stroke:rgb(0.000000%,0.000000%,0.000000%); stroke-width: 0.498138;stroke-linecap: round;stroke-linejoin: round;stroke-miterlimit: 10.000000;fill: none;"></path>
  <path d="M55.457153 158.918106C55.901306 159.818146,56.365829 160.704376,56.859497 161.570374C57.122787 160.608948,57.420990 159.653839,57.743378 158.703354Z" style="stroke:rgb(0.000000%,0.000000%,0.000000%); stroke-width: 0.498138;fill: rgb(0.000000%,0.000000%,0.000000%);"></path>
  <path d="M116.193512 94.845200C115.991638 92.295746,117.807571 90.402496,119.846771 88.714386" style="stroke:rgb(0.000000%,0.000000%,0.000000%); stroke-width: 0.498138;stroke-linecap: round;stroke-linejoin: round;stroke-miterlimit: 10.000000;fill: none;"></path>
  <path d="M118.643478 91.462509C118.931168 90.541306,119.367645 89.620041,119.846771 88.714386C118.867584 89.015976,117.907486 89.358749,117.052689 89.806717Z" style="stroke:rgb(0.000000%,0.000000%,0.000000%); stroke-width: 0.498138;fill: rgb(0.000000%,0.000000%,0.000000%);"></path>
  <path d="M135.301529 73.067856C142.351578 65.754730,151.084320 59.350006,155.546829 50.654190" style="stroke:rgb(0.000000%,0.000000%,0.000000%); stroke-width: 0.498138;stroke-linecap: round;stroke-linejoin: round;stroke-miterlimit: 10.000000;fill: none;"></path>
  <path d="M155.158752 53.628876C155.333755 52.641876,155.465515 51.650558,155.546829 50.654190C154.784790 51.301224,153.990646 51.908997,153.168976 52.483154Z" style="stroke:rgb(0.000000%,0.000000%,0.000000%); stroke-width: 0.498138;fill: rgb(0.000000%,0.000000%,0.000000%);"></path>
  <path d="M62.224258 98.556625C51.220413 100.714539,39.409760 99.880188,29.026810 103.356934" style="stroke:rgb(0.000000%,0.000000%,0.000000%); stroke-width: 0.498138;stroke-linecap: round;stroke-linejoin: round;stroke-miterlimit: 10.000000;fill: none;"></path>
  <path d="M31.359756 101.470703C30.559814 102.073792,29.780960 102.701050,29.026810 103.356934C30.023849 103.426422,31.018127 103.533661,32.010208 103.672852Z" style="stroke:rgb(0.000000%,0.000000%,0.000000%); stroke-width: 0.498138;fill: rgb(0.000000%,0.000000%,0.000000%);"></path>
  <path d="M107.407822 121.457336C107.154312 119.021439,105.221024 117.435440,103.113831 116.061279" style="stroke:rgb(0.000000%,0.000000%,0.000000%); stroke-width: 0.498138;stroke-linecap: round;stroke-linejoin: round;stroke-miterlimit: 10.000000;fill: none;"></path>
  <path d="M106.012589 116.834351C105.110840 116.481125,104.118927 116.249527,103.113831 116.061279C103.691406 116.905106,104.229034 117.770279,104.616867 118.657684Z" style="stroke:rgb(0.000000%,0.000000%,0.000000%); stroke-width: 0.498138;fill: rgb(0.000000%,0.000000%,0.000000%);"></path>
  <path d="M82.737976 83.726303C84.409180 81.040375,87.676666 80.864471,90.989624 80.995926" style="stroke:rgb(0.000000%,0.000000%,0.000000%); stroke-width: 0.498138;stroke-linecap: round;stroke-linejoin: round;stroke-miterlimit: 10.000000;fill: none;"></path>
  <path d="M88.229614 82.171768C89.090317 81.726578,90.032410 81.348633,90.989624 80.995926C90.063385 80.568481,89.129959 80.169540,88.206573 79.875717Z" style="stroke:rgb(0.000000%,0.000000%,0.000000%); stroke-width: 0.498138;fill: rgb(0.000000%,0.000000%,0.000000%);"></path>
  <path d="M94.479935 121.910629C94.341049 124.967911,96.878296 126.928040,99.887222 128.241455" style="stroke:rgb(0.000000%,0.000000%,0.000000%); stroke-width: 0.498138;stroke-linecap: round;stroke-linejoin: round;stroke-miterlimit: 10.000000;fill: none;"></path>
  <path d="M96.905289 127.913239C97.842041 128.125626,98.855331 128.221985,99.887222 128.241455C99.171341 127.498016,98.523010 126.713364,98.010788 125.900787Z" style="stroke:rgb(0.000000%,0.000000%,0.000000%); stroke-width: 0.498138;fill: rgb(0.000000%,0.000000%,0.000000%);"></path>
  <path d="M186.237885 95.792450L192.219177 95.792450L192.219177 88.372055L186.237885 88.372055Z" style="fill: rgb(100.000000%,100.000000%,100.000000%);stroke: none;"></path>
  <path d="M186.237885 97.792450L192.219177 97.792450L192.219177 90.372055L186.237885 90.372055Z" style="fill: rgb(100.000000%,100.000000%,100.000000%);stroke: none;"></path>
  <g transform="translate(186.737885 96.292450)" style="fill: rgb(0.000000%,0.000000%,0.000000%);">
    <use xlink:href="#GLYPHcmr10_49"></use>
  </g>
  <path d="M31.628632 56.403259L37.609924 56.403259L37.609924 48.982864L31.628632 48.982864Z" style="fill: rgb(100.000000%,100.000000%,100.000000%);stroke: none;"></path>
  <path d="M31.628632 58.403259L37.609924 58.403259L37.609924 50.982864L31.628632 50.982864Z" style="fill: rgb(100.000000%,100.000000%,100.000000%);stroke: none;"></path>
  <g transform="translate(32.128632 56.903259)" style="fill: rgb(0.000000%,0.000000%,0.000000%);">
    <use xlink:href="#GLYPHcmr10_50"></use>
  </g>
  <path d="M113.735870 188.207458L119.717163 188.207458L119.717163 180.787064L113.735870 180.787064Z" style="fill: rgb(100.000000%,100.000000%,100.000000%);stroke: none;"></path>
  <path d="M113.735870 190.207458L119.717163 190.207458L119.717163 182.787064L113.735870 182.787064Z" style="fill: rgb(100.000000%,100.000000%,100.000000%);stroke: none;"></path>
  <g transform="translate(114.235870 188.707458)" style="fill: rgb(0.000000%,0.000000%,0.000000%);">
    <use xlink:href="#GLYPHcmr10_51"></use>
  </g>
  <path d="M133.859436 116.184814L139.840729 116.184814L139.840729 108.764420L133.859436 108.764420Z" style="fill: rgb(100.000000%,100.000000%,100.000000%);stroke: none;"></path>
  <path d="M133.859436 118.184814L139.840729 118.184814L139.840729 110.764420L133.859436 110.764420Z" style="fill: rgb(100.000000%,100.000000%,100.000000%);stroke: none;"></path>
  <g transform="translate(134.359436 116.684814)" style="fill: rgb(0.000000%,0.000000%,0.000000%);">
    <use xlink:href="#GLYPHcmr10_52"></use>
  </g>
  <path d="M126.528656 9.680115L132.509949 9.680115L132.509949 2.259720L126.528656 2.259720Z" style="fill: rgb(100.000000%,100.000000%,100.000000%);stroke: none;"></path>
  <path d="M126.528656 11.680115L132.509949 11.680115L132.509949 4.259720L126.528656 4.259720Z" style="fill: rgb(100.000000%,100.000000%,100.000000%);stroke: none;"></path>
  <g transform="translate(127.028656 10.180115)" style="fill: rgb(0.000000%,0.000000%,0.000000%);">
    <use xlink:href="#GLYPHcmr10_53"></use>
  </g>
  <path d="M86.253616 64.918976L92.234909 64.918976L92.234909 57.498581L86.253616 57.498581Z" style="fill: rgb(100.000000%,100.000000%,100.000000%);stroke: none;"></path>
  <path d="M86.253616 66.918976L92.234909 66.918976L92.234909 59.498581L86.253616 59.498581Z" style="fill: rgb(100.000000%,100.000000%,100.000000%);stroke: none;"></path>
  <g transform="translate(86.753616 65.418976)" style="fill: rgb(0.000000%,0.000000%,0.000000%);">
    <use xlink:href="#GLYPHcmr10_54"></use>
  </g>
  <path d="M7.710541 154.766647L13.691833 154.766647L13.691833 147.346252L7.710541 147.346252Z" style="fill: rgb(100.000000%,100.000000%,100.000000%);stroke: none;"></path>
  <path d="M7.710541 156.766647L13.691833 156.766647L13.691833 149.346252L7.710541 149.346252Z" style="fill: rgb(100.000000%,100.000000%,100.000000%);stroke: none;"></path>
  <g transform="translate(8.210541 155.266647)" style="fill: rgb(0.000000%,0.000000%,0.000000%);">
    <use xlink:href="#GLYPHcmr10_55"></use>
  </g>
  <path d="M84.041351 145.764969L90.022644 145.764969L90.022644 138.344574L84.041351 138.344574Z" style="fill: rgb(100.000000%,100.000000%,100.000000%);stroke: none;"></path>
  <path d="M84.041351 147.764969L90.022644 147.764969L90.022644 140.344574L84.041351 140.344574Z" style="fill: rgb(100.000000%,100.000000%,100.000000%);stroke: none;"></path>
  <g transform="translate(84.541351 146.264969)" style="fill: rgb(0.000000%,0.000000%,0.000000%);">
    <use xlink:href="#GLYPHcmr10_56"></use>
  </g>
  <path d="M88.373230 108.496780L94.354523 108.496780L94.354523 101.076385L88.373230 101.076385Z" style="fill: rgb(100.000000%,100.000000%,100.000000%);stroke: none;"></path>
  <path d="M88.373230 110.496780L94.354523 110.496780L94.354523 103.076385L88.373230 103.076385Z" style="fill: rgb(100.000000%,100.000000%,100.000000%);stroke: none;"></path>
  <g transform="translate(88.873230 108.996780)" style="fill: rgb(0.000000%,0.000000%,0.000000%);">
    <use xlink:href="#GLYPHcmr10_57"></use>
  </g>
  <path d="M102.857162 84.024994L113.819870 84.024994L113.819870 76.604599L102.857162 76.604599Z" style="fill: rgb(100.000000%,100.000000%,100.000000%);stroke: none;"></path>
  <path d="M102.857162 86.024994L113.819870 86.024994L113.819870 78.604599L102.857162 78.604599Z" style="fill: rgb(100.000000%,100.000000%,100.000000%);stroke: none;"></path>
  <g transform="translate(103.357162 84.524994)" style="fill: rgb(0.000000%,0.000000%,0.000000%);">
    <use xlink:href="#GLYPHcmr10_49"></use>
    <use xlink:href="#GLYPHcmr10_48" x="5.000095"></use>
  </g>
  <path d="M106.344421 110.896744L117.307129 110.896744L117.307129 103.476349L106.344421 103.476349Z" style="fill: rgb(100.000000%,100.000000%,100.000000%);stroke: none;"></path>
  <path d="M106.344421 112.896744L117.307129 112.896744L117.307129 105.476349L106.344421 105.476349Z" style="fill: rgb(100.000000%,100.000000%,100.000000%);stroke: none;"></path>
  <g transform="translate(106.844421 111.396744)" style="fill: rgb(0.000000%,0.000000%,0.000000%);">
    <use xlink:href="#GLYPHcmr10_49"></use>
    <use xlink:href="#GLYPHcmr10_49" x="5.000095"></use>
  </g>
</svg>
