<?xml version="1.0"?>
<!-- Created by MetaPost 1.999 on 2021.07.06:0004 -->
<svg version="1.1" xmlns="http://www.w3.org/2000/svg" xmlns:xlink="http://www.w3.org/1999/xlink" width="197.209335" height="193.872391" viewBox="0 0 197.209335 193.872391">
<!-- Original BoundingBox: -45.733612 -38.880692 151.475723 154.991699 -->
  <defs>
    <g transform="scale(0.009963,0.009963)" id="GLYPHcmr10_48">
      <path style="fill-rule: evenodd;" d="M460.000000 -320.000000C460.000000 -400.000000,455.000000 -480.000000,420.000000 -554.000000C374.000000 -650.000000,292.000000 -666.000000,250.000000 -666.000000C190.000000 -666.000000,117.000000 -640.000000,76.000000 -547.000000C44.000000 -478.000000,39.000000 -400.000000,39.000000 -320.000000C39.000000 -245.000000,43.000000 -155.000000,84.000000 -79.000000C127.000000 2.000000,200.000000 22.000000,249.000000 22.000000C303.000000 22.000000,379.000000 1.000000,423.000000 -94.000000C455.000000 -163.000000,460.000000 -241.000000,460.000000 -320.000000M249.000000 -0.000000C210.000000 -0.000000,151.000000 -25.000000,133.000000 -121.000000C122.000000 -181.000000,122.000000 -273.000000,122.000000 -332.000000C122.000000 -396.000000,122.000000 -462.000000,130.000000 -516.000000C149.000000 -635.000000,224.000000 -644.000000,249.000000 -644.000000C282.000000 -644.000000,348.000000 -626.000000,367.000000 -527.000000C377.000000 -471.000000,377.000000 -395.000000,377.000000 -332.000000C377.000000 -257.000000,377.000000 -189.000000,366.000000 -125.000000C351.000000 -30.000000,294.000000 -0.000000,249.000000 -0.000000"></path>
    </g>
    <g transform="scale(0.009963,0.009963)" id="GLYPHcmr10_49">
      <path style="fill-rule: evenodd;" d="M294.000000 -640.000000C294.000000 -664.000000,294.000000 -666.000000,271.000000 -666.000000C209.000000 -602.000000,121.000000 -602.000000,89.000000 -602.000000L89.000000 -571.000000C109.000000 -571.000000,168.000000 -571.000000,220.000000 -597.000000L220.000000 -79.000000C220.000000 -43.000000,217.000000 -31.000000,127.000000 -31.000000L95.000000 -31.000000L95.000000 -0.000000L257.000000 -0.000000L130.000000 -3.000000L217.000000 -3.000000L257.000000 -3.000000L297.000000 -3.000000L384.000000 -3.000000L419.000000 -0.000000L419.000000 -31.000000L387.000000 -31.000000C297.000000 -31.000000,294.000000 -42.000000,294.000000 -79.000000"></path>
    </g>
    <g transform="scale(0.009963,0.009963)" id="GLYPHcmr10_50">
      <path style="fill-rule: evenodd;" d="M127.000000 -77.000000L233.000000 -180.000000C389.000000 -318.000000,449.000000 -372.000000,449.000000 -472.000000C449.000000 -586.000000,359.000000 -666.000000,237.000000 -666.000000C124.000000 -666.000000,50.000000 -574.000000,50.000000 -485.000000C50.000000 -429.000000,100.000000 -429.000000,103.000000 -429.000000C120.000000 -429.000000,155.000000 -441.000000,155.000000 -482.000000C155.000000 -508.000000,137.000000 -534.000000,102.000000 -534.000000C94.000000 -534.000000,92.000000 -534.000000,89.000000 -533.000000C112.000000 -598.000000,166.000000 -635.000000,224.000000 -635.000000C315.000000 -635.000000,358.000000 -554.000000,358.000000 -472.000000C358.000000 -392.000000,308.000000 -313.000000,253.000000 -251.000000L61.000000 -37.000000C50.000000 -26.000000,50.000000 -24.000000,50.000000 -0.000000L421.000000 -0.000000L449.000000 -174.000000L424.000000 -174.000000C419.000000 -144.000000,412.000000 -100.000000,402.000000 -85.000000C395.000000 -77.000000,329.000000 -77.000000,307.000000 -77.000000"></path>
    </g>
    <g transform="scale(0.009963,0.009963)" id="GLYPHcmr10_51">
      <path style="fill-rule: evenodd;" d="M290.000000 -352.000000C372.000000 -379.000000,430.000000 -449.000000,430.000000 -528.000000C430.000000 -610.000000,342.000000 -666.000000,246.000000 -666.000000C145.000000 -666.000000,69.000000 -606.000000,69.000000 -530.000000C69.000000 -497.000000,91.000000 -478.000000,120.000000 -478.000000C151.000000 -478.000000,171.000000 -500.000000,171.000000 -529.000000C171.000000 -579.000000,124.000000 -579.000000,109.000000 -579.000000C140.000000 -628.000000,206.000000 -641.000000,242.000000 -641.000000C283.000000 -641.000000,338.000000 -619.000000,338.000000 -529.000000C338.000000 -517.000000,336.000000 -459.000000,310.000000 -415.000000C280.000000 -367.000000,246.000000 -364.000000,221.000000 -363.000000C213.000000 -362.000000,189.000000 -360.000000,182.000000 -360.000000C174.000000 -359.000000,167.000000 -358.000000,167.000000 -348.000000C167.000000 -337.000000,174.000000 -337.000000,191.000000 -337.000000L235.000000 -337.000000C317.000000 -337.000000,354.000000 -269.000000,354.000000 -171.000000C354.000000 -35.000000,285.000000 -6.000000,241.000000 -6.000000C198.000000 -6.000000,123.000000 -23.000000,88.000000 -82.000000C123.000000 -77.000000,154.000000 -99.000000,154.000000 -137.000000C154.000000 -173.000000,127.000000 -193.000000,98.000000 -193.000000C74.000000 -193.000000,42.000000 -179.000000,42.000000 -135.000000C42.000000 -44.000000,135.000000 22.000000,244.000000 22.000000C366.000000 22.000000,457.000000 -69.000000,457.000000 -171.000000C457.000000 -253.000000,394.000000 -331.000000,290.000000 -352.000000"></path>
    </g>
    <g transform="scale(0.009963,0.009963)" id="GLYPHcmr10_52">
      <path style="fill-rule: evenodd;" d="M294.000000 -165.000000L294.000000 -78.000000C294.000000 -42.000000,292.000000 -31.000000,218.000000 -31.000000L197.000000 -31.000000L197.000000 -0.000000L332.000000 -0.000000L238.000000 -3.000000L290.000000 -3.000000L332.000000 -3.000000L374.000000 -3.000000L427.000000 -3.000000L468.000000 -0.000000L468.000000 -31.000000L447.000000 -31.000000C373.000000 -31.000000,371.000000 -42.000000,371.000000 -78.000000L371.000000 -165.000000L471.000000 -165.000000L471.000000 -196.000000L371.000000 -196.000000L371.000000 -651.000000C371.000000 -671.000000,371.000000 -677.000000,355.000000 -677.000000C346.000000 -677.000000,343.000000 -677.000000,335.000000 -665.000000L28.000000 -196.000000L28.000000 -165.000000M300.000000 -196.000000L56.000000 -196.000000L300.000000 -569.000000"></path>
    </g>
    <g transform="scale(0.009963,0.009963)" id="GLYPHcmr10_53">
      <path style="fill-rule: evenodd;" d="M449.000000 -201.000000C449.000000 -320.000000,367.000000 -420.000000,259.000000 -420.000000C211.000000 -420.000000,168.000000 -404.000000,132.000000 -369.000000L132.000000 -564.000000C152.000000 -558.000000,185.000000 -551.000000,217.000000 -551.000000C340.000000 -551.000000,410.000000 -642.000000,410.000000 -655.000000C410.000000 -661.000000,407.000000 -666.000000,400.000000 -666.000000C399.000000 -666.000000,397.000000 -666.000000,392.000000 -663.000000C372.000000 -654.000000,323.000000 -634.000000,256.000000 -634.000000C216.000000 -634.000000,170.000000 -641.000000,123.000000 -662.000000C115.000000 -665.000000,113.000000 -665.000000,111.000000 -665.000000C101.000000 -665.000000,101.000000 -657.000000,101.000000 -641.000000L101.000000 -345.000000C101.000000 -327.000000,101.000000 -319.000000,115.000000 -319.000000C122.000000 -319.000000,124.000000 -322.000000,128.000000 -328.000000C139.000000 -344.000000,176.000000 -398.000000,257.000000 -398.000000C309.000000 -398.000000,334.000000 -352.000000,342.000000 -334.000000C358.000000 -297.000000,360.000000 -258.000000,360.000000 -208.000000C360.000000 -173.000000,360.000000 -113.000000,336.000000 -71.000000C312.000000 -32.000000,275.000000 -6.000000,229.000000 -6.000000C156.000000 -6.000000,99.000000 -59.000000,82.000000 -118.000000C85.000000 -117.000000,88.000000 -116.000000,99.000000 -116.000000C132.000000 -116.000000,149.000000 -141.000000,149.000000 -165.000000C149.000000 -189.000000,132.000000 -214.000000,99.000000 -214.000000C85.000000 -214.000000,50.000000 -207.000000,50.000000 -161.000000C50.000000 -75.000000,119.000000 22.000000,231.000000 22.000000C347.000000 22.000000,449.000000 -74.000000,449.000000 -201.000000"></path>
    </g>
    <g transform="scale(0.009963,0.009963)" id="GLYPHcmr10_54">
      <path style="fill-rule: evenodd;" d="M132.000000 -328.000000L132.000000 -352.000000C132.000000 -605.000000,256.000000 -641.000000,307.000000 -641.000000C331.000000 -641.000000,373.000000 -635.000000,395.000000 -601.000000C380.000000 -601.000000,340.000000 -601.000000,340.000000 -556.000000C340.000000 -525.000000,364.000000 -510.000000,386.000000 -510.000000C402.000000 -510.000000,432.000000 -519.000000,432.000000 -558.000000C432.000000 -618.000000,388.000000 -666.000000,305.000000 -666.000000C177.000000 -666.000000,42.000000 -537.000000,42.000000 -316.000000C42.000000 -49.000000,158.000000 22.000000,251.000000 22.000000C362.000000 22.000000,457.000000 -72.000000,457.000000 -204.000000C457.000000 -331.000000,368.000000 -427.000000,257.000000 -427.000000C189.000000 -427.000000,152.000000 -376.000000,132.000000 -328.000000M251.000000 -6.000000C188.000000 -6.000000,158.000000 -66.000000,152.000000 -81.000000C134.000000 -128.000000,134.000000 -208.000000,134.000000 -226.000000C134.000000 -304.000000,166.000000 -404.000000,256.000000 -404.000000C272.000000 -404.000000,318.000000 -404.000000,349.000000 -342.000000C367.000000 -305.000000,367.000000 -254.000000,367.000000 -205.000000C367.000000 -157.000000,367.000000 -107.000000,350.000000 -71.000000C320.000000 -11.000000,274.000000 -6.000000,251.000000 -6.000000"></path>
    </g>
    <g transform="scale(0.009963,0.009963)" id="GLYPHcmr10_55">
      <path style="fill-rule: evenodd;" d="M476.000000 -609.000000C485.000000 -621.000000,485.000000 -623.000000,485.000000 -644.000000L242.000000 -644.000000C120.000000 -644.000000,118.000000 -657.000000,114.000000 -676.000000L89.000000 -676.000000L56.000000 -470.000000L81.000000 -470.000000C84.000000 -486.000000,93.000000 -549.000000,106.000000 -561.000000C113.000000 -567.000000,191.000000 -567.000000,204.000000 -567.000000L411.000000 -567.000000C400.000000 -551.000000,321.000000 -442.000000,299.000000 -409.000000C209.000000 -274.000000,176.000000 -135.000000,176.000000 -33.000000C176.000000 -23.000000,176.000000 22.000000,222.000000 22.000000C268.000000 22.000000,268.000000 -23.000000,268.000000 -33.000000L268.000000 -84.000000C268.000000 -139.000000,271.000000 -194.000000,279.000000 -248.000000C283.000000 -271.000000,297.000000 -357.000000,341.000000 -419.000000"></path>
    </g>
    <g transform="scale(0.009963,0.009963)" id="GLYPHcmr10_56">
      <path style="fill-rule: evenodd;" d="M163.000000 -457.000000C117.000000 -487.000000,113.000000 -521.000000,113.000000 -538.000000C113.000000 -599.000000,178.000000 -641.000000,249.000000 -641.000000C322.000000 -641.000000,386.000000 -589.000000,386.000000 -517.000000C386.000000 -460.000000,347.000000 -412.000000,287.000000 -377.000000M309.000000 -362.000000C381.000000 -399.000000,430.000000 -451.000000,430.000000 -517.000000C430.000000 -609.000000,341.000000 -666.000000,250.000000 -666.000000C150.000000 -666.000000,69.000000 -592.000000,69.000000 -499.000000C69.000000 -481.000000,71.000000 -436.000000,113.000000 -389.000000C124.000000 -377.000000,161.000000 -352.000000,186.000000 -335.000000C128.000000 -306.000000,42.000000 -250.000000,42.000000 -151.000000C42.000000 -45.000000,144.000000 22.000000,249.000000 22.000000C362.000000 22.000000,457.000000 -61.000000,457.000000 -168.000000C457.000000 -204.000000,446.000000 -249.000000,408.000000 -291.000000C389.000000 -312.000000,373.000000 -322.000000,309.000000 -362.000000M209.000000 -320.000000L332.000000 -242.000000C360.000000 -223.000000,407.000000 -193.000000,407.000000 -132.000000C407.000000 -58.000000,332.000000 -6.000000,250.000000 -6.000000C164.000000 -6.000000,92.000000 -68.000000,92.000000 -151.000000C92.000000 -209.000000,124.000000 -273.000000,209.000000 -320.000000"></path>
    </g>
    <g transform="scale(0.009963,0.009963)" id="GLYPHcmr10_57">
      <path style="fill-rule: evenodd;" d="M367.000000 -318.000000L367.000000 -286.000000C367.000000 -52.000000,263.000000 -6.000000,205.000000 -6.000000C188.000000 -6.000000,134.000000 -8.000000,107.000000 -42.000000C151.000000 -42.000000,159.000000 -71.000000,159.000000 -88.000000C159.000000 -119.000000,135.000000 -134.000000,113.000000 -134.000000C97.000000 -134.000000,67.000000 -125.000000,67.000000 -86.000000C67.000000 -19.000000,121.000000 22.000000,206.000000 22.000000C335.000000 22.000000,457.000000 -114.000000,457.000000 -329.000000C457.000000 -598.000000,342.000000 -666.000000,253.000000 -666.000000C198.000000 -666.000000,149.000000 -648.000000,106.000000 -603.000000C65.000000 -558.000000,42.000000 -516.000000,42.000000 -441.000000C42.000000 -316.000000,130.000000 -218.000000,242.000000 -218.000000C303.000000 -218.000000,344.000000 -260.000000,367.000000 -318.000000M243.000000 -241.000000C227.000000 -241.000000,181.000000 -241.000000,150.000000 -304.000000C132.000000 -341.000000,132.000000 -391.000000,132.000000 -440.000000C132.000000 -494.000000,132.000000 -541.000000,153.000000 -578.000000C180.000000 -628.000000,218.000000 -641.000000,253.000000 -641.000000C299.000000 -641.000000,332.000000 -607.000000,349.000000 -562.000000C361.000000 -530.000000,365.000000 -467.000000,365.000000 -421.000000C365.000000 -338.000000,331.000000 -241.000000,243.000000 -241.000000"></path>
    </g>
  </defs>
  <path d="M73.980301 189.891953C73.980301 189.099258,73.665359 188.339111,73.104874 187.778641C72.544403 187.218155,71.784256 186.903214,70.991562 186.903214C70.198868 186.903214,69.438721 187.218155,68.878250 187.778641C68.317764 188.339111,68.002823 189.099258,68.002823 189.891953C68.002823 190.684647,68.317764 191.444794,68.878250 192.005264C69.438721 192.565750,70.198868 192.880692,70.991562 192.880692C71.784256 192.880692,72.544403 192.565750,73.104874 192.005264C73.665359 191.444794,73.980301 190.684647,73.980301 189.891953Z" style="fill: rgb(100.000000%,100.000000%,100.000000%);stroke: none;"></path>
  <path d="M95.960587 186.020157C95.960587 185.227463,95.645645 184.467316,95.085159 183.906845C94.524689 183.346359,93.764542 183.031418,92.971848 183.031418C92.179153 183.031418,91.419006 183.346359,90.858536 183.906845C90.298050 184.467316,89.983109 185.227463,89.983109 186.020157C89.983109 186.812851,90.298050 187.572998,90.858536 188.133469C91.419006 188.693954,92.179153 189.008896,92.971848 189.008896C93.764542 189.008896,94.524689 188.693954,95.085159 188.133469C95.645645 187.572998,95.960587 186.812851,95.960587 186.020157Z" style="fill: rgb(100.000000%,100.000000%,100.000000%);stroke: none;"></path>
  <path d="M44.919769 140.231201C44.919769 139.438507,44.604828 138.678360,44.044342 138.117889C43.483871 137.557404,42.723724 137.242462,41.931030 137.242462C41.138336 137.242462,40.378189 137.557404,39.817719 138.117889C39.257233 138.678360,38.942291 139.438507,38.942291 140.231201C38.942291 141.023895,39.257233 141.784042,39.817719 142.344513C40.378189 142.904999,41.138336 143.219940,41.931030 143.219940C42.723724 143.219940,43.483871 142.904999,44.044342 142.344513C44.604828 141.784042,44.919769 141.023895,44.919769 140.231201Z" style="fill: rgb(100.000000%,100.000000%,100.000000%);stroke: none;"></path>
  <path d="M52.844269 175.784119C52.844269 174.991425,52.529327 174.231277,51.968842 173.670807C51.408371 173.110321,50.648224 172.795380,49.855530 172.795380C49.062836 172.795380,48.302689 173.110321,47.742218 173.670807C47.181732 174.231277,46.866791 174.991425,46.866791 175.784119C46.866791 176.576813,47.181732 177.336960,47.742218 177.897430C48.302689 178.457916,49.062836 178.772858,49.855530 178.772858C50.648224 178.772858,51.408371 178.457916,51.968842 177.897430C52.529327 177.336960,52.844269 176.576813,52.844269 175.784119Z" style="fill: rgb(100.000000%,100.000000%,100.000000%);stroke: none;"></path>
  <path d="M49.339844 104.661957C49.339844 103.869263,49.024902 103.109116,48.464417 102.548645C47.903946 101.988159,47.143799 101.673218,46.351105 101.673218C45.558411 101.673218,44.798264 101.988159,44.237793 102.548645C43.677307 103.109116,43.362366 103.869263,43.362366 104.661957C43.362366 105.454651,43.677307 106.214798,44.237793 106.775269C44.798264 107.335754,45.558411 107.650696,46.351105 107.650696C47.143799 107.650696,47.903946 107.335754,48.464417 106.775269C49.024902 106.214798,49.339844 105.454651,49.339844 104.661957Z" style="fill: rgb(100.000000%,100.000000%,100.000000%);stroke: none;"></path>
  <path d="M49.599442 126.190796C49.599442 125.398102,49.284500 124.637955,48.724014 124.077484C48.163544 123.516998,47.403397 123.202057,46.610703 123.202057C45.818008 123.202057,45.057861 123.516998,44.497391 124.077484C43.936905 124.637955,43.621964 125.398102,43.621964 126.190796C43.621964 126.983490,43.936905 127.743637,44.497391 128.304108C45.057861 128.864594,45.818008 129.179535,46.610703 129.179535C47.403397 129.179535,48.163544 128.864594,48.724014 128.304108C49.284500 127.743637,49.599442 126.983490,49.599442 126.190796Z" style="fill: rgb(100.000000%,100.000000%,100.000000%);stroke: none;"></path>
  <path d="M48.096054 83.423615C48.096054 82.630920,47.781113 81.870773,47.220627 81.310303C46.660156 80.749817,45.900009 80.434875,45.107315 80.434875C44.314621 80.434875,43.554474 80.749817,42.994003 81.310303C42.433517 81.870773,42.118576 82.630920,42.118576 83.423615C42.118576 84.216309,42.433517 84.976456,42.994003 85.536926C43.554474 86.097412,44.314621 86.412354,45.107315 86.412354C45.900009 86.412354,46.660156 86.097412,47.220627 85.536926C47.781113 84.976456,48.096054 84.216309,48.096054 83.423615Z" style="fill: rgb(100.000000%,100.000000%,100.000000%);stroke: none;"></path>
  <path d="M47.861969 97.246658C47.861969 96.453964,47.547028 95.693817,46.986542 95.133347C46.426071 94.572861,45.665924 94.257919,44.873230 94.257919C44.080536 94.257919,43.320389 94.572861,42.759918 95.133347C42.199432 95.693817,41.884491 96.453964,41.884491 97.246658C41.884491 98.039352,42.199432 98.799500,42.759918 99.359970C43.320389 99.920456,44.080536 100.235397,44.873230 100.235397C45.665924 100.235397,46.426071 99.920456,46.986542 99.359970C47.547028 98.799500,47.861969 98.039352,47.861969 97.246658Z" style="fill: rgb(100.000000%,100.000000%,100.000000%);stroke: none;"></path>
  <path d="M40.060196 63.911865C40.060196 63.119171,39.745255 62.359024,39.184769 61.798553C38.624298 61.238068,37.864151 60.923126,37.071457 60.923126C36.278763 60.923126,35.518616 61.238068,34.958145 61.798553C34.397659 62.359024,34.082718 63.119171,34.082718 63.911865C34.082718 64.704559,34.397659 65.464706,34.958145 66.025177C35.518616 66.585663,36.278763 66.900604,37.071457 66.900604C37.864151 66.900604,38.624298 66.585663,39.184769 66.025177C39.745255 65.464706,40.060196 64.704559,40.060196 63.911865Z" style="fill: rgb(100.000000%,100.000000%,100.000000%);stroke: none;"></path>
  <path d="M49.175537 76.659332C49.175537 75.866638,48.860596 75.106491,48.300110 74.546021C47.739639 73.985535,46.979492 73.670593,46.186798 73.670593C45.394104 73.670593,44.633957 73.985535,44.073486 74.546021C43.513000 75.106491,43.198059 75.866638,43.198059 76.659332C43.198059 77.452026,43.513000 78.212173,44.073486 78.772644C44.633957 79.333130,45.394104 79.648071,46.186798 79.648071C46.979492 79.648071,47.739639 79.333130,48.300110 78.772644C48.860596 78.212173,49.175537 77.452026,49.175537 76.659332Z" style="fill: rgb(100.000000%,100.000000%,100.000000%);stroke: none;"></path>
  <path d="M5.710312 80.787949C5.710312 79.995255,5.395370 79.235107,4.834885 78.674637C4.274414 78.114151,3.514267 77.799210,2.721573 77.799210C1.928879 77.799210,1.168732 78.114151,0.608261 78.674637C0.047775 79.235107,-0.267166 79.995255,-0.267166 80.787949C-0.267166 81.580643,0.047775 82.340790,0.608261 82.901260C1.168732 83.461746,1.928879 83.776688,2.721573 83.776688C3.514267 83.776688,4.274414 83.461746,4.834885 82.901260C5.395370 82.340790,5.710312 81.580643,5.710312 80.787949Z" style="fill: rgb(100.000000%,100.000000%,100.000000%);stroke: none;"></path>
  <path d="M29.009521 64.111115C29.009521 63.318420,28.694580 62.558273,28.134094 61.997803C27.573624 61.437317,26.813477 61.122375,26.020782 61.122375C25.228088 61.122375,24.467941 61.437317,23.907471 61.997803C23.346985 62.558273,23.032043 63.318420,23.032043 64.111115C23.032043 64.903809,23.346985 65.663956,23.907471 66.224426C24.467941 66.784912,25.228088 67.099854,26.020782 67.099854C26.813477 67.099854,27.573624 66.784912,28.134094 66.224426C28.694580 65.663956,29.009521 64.903809,29.009521 64.111115Z" style="fill: rgb(100.000000%,100.000000%,100.000000%);stroke: none;"></path>
  <path d="M16.857147 139.173447C16.857147 138.380753,16.542206 137.620605,15.981720 137.060135C15.421249 136.499649,14.661102 136.184708,13.868408 136.184708C13.075714 136.184708,12.315567 136.499649,11.755096 137.060135C11.194611 137.620605,10.879669 138.380753,10.879669 139.173447C10.879669 139.966141,11.194611 140.726288,11.755096 141.286758C12.315567 141.847244,13.075714 142.162186,13.868408 142.162186C14.661102 142.162186,15.421249 141.847244,15.981720 141.286758C16.542206 140.726288,16.857147 139.966141,16.857147 139.173447Z" style="fill: rgb(100.000000%,100.000000%,100.000000%);stroke: none;"></path>
  <path d="M5.243866 102.024734C5.243866 101.232040,4.928925 100.471893,4.368439 99.911423C3.807968 99.350937,3.047821 99.035995,2.255127 99.035995C1.462433 99.035995,0.702286 99.350937,0.141815 99.911423C-0.418671 100.471893,-0.733612 101.232040,-0.733612 102.024734C-0.733612 102.817429,-0.418671 103.577576,0.141815 104.138046C0.702286 104.698532,1.462433 105.013474,2.255127 105.013474C3.047821 105.013474,3.807968 104.698532,4.368439 104.138046C4.928925 103.577576,5.243866 102.817429,5.243866 102.024734Z" style="fill: rgb(100.000000%,100.000000%,100.000000%);stroke: none;"></path>
  <path d="M61.657837 152.519318C61.657837 151.726624,61.342896 150.966476,60.782410 150.406006C60.221939 149.845520,59.461792 149.530579,58.669098 149.530579C57.876404 149.530579,57.116257 149.845520,56.555786 150.406006C55.995300 150.966476,55.680359 151.726624,55.680359 152.519318C55.680359 153.312012,55.995300 154.072159,56.555786 154.632629C57.116257 155.193115,57.876404 155.508057,58.669098 155.508057C59.461792 155.508057,60.221939 155.193115,60.782410 154.632629C61.342896 154.072159,61.657837 153.312012,61.657837 152.519318Z" style="fill: rgb(100.000000%,100.000000%,100.000000%);stroke: none;"></path>
  <path d="M29.901367 155.959290C29.901367 155.166595,29.586426 154.406448,29.025940 153.845978C28.465469 153.285492,27.705322 152.970551,26.912628 152.970551C26.119934 152.970551,25.359787 153.285492,24.799316 153.845978C24.238831 154.406448,23.923889 155.166595,23.923889 155.959290C23.923889 156.751984,24.238831 157.512131,24.799316 158.072601C25.359787 158.633087,26.119934 158.948029,26.912628 158.948029C27.705322 158.948029,28.465469 158.633087,29.025940 158.072601C29.586426 157.512131,29.901367 156.751984,29.901367 155.959290Z" style="fill: rgb(100.000000%,100.000000%,100.000000%);stroke: none;"></path>
  <path d="M77.855225 119.623230C77.855225 118.830536,77.540283 118.070389,76.979797 117.509918C76.419327 116.949432,75.659180 116.634491,74.866486 116.634491C74.073792 116.634491,73.313644 116.949432,72.753174 117.509918C72.192688 118.070389,71.877747 118.830536,71.877747 119.623230C71.877747 120.415924,72.192688 121.176071,72.753174 121.736542C73.313644 122.297028,74.073792 122.611969,74.866486 122.611969C75.659180 122.611969,76.419327 122.297028,76.979797 121.736542C77.540283 121.176071,77.855225 120.415924,77.855225 119.623230Z" style="fill: rgb(100.000000%,100.000000%,100.000000%);stroke: none;"></path>
  <path d="M70.660324 140.272980C70.660324 139.480286,70.345383 138.720139,69.784897 138.159668C69.224426 137.599182,68.464279 137.284241,67.671585 137.284241C66.878891 137.284241,66.118744 137.599182,65.558273 138.159668C64.997787 138.720139,64.682846 139.480286,64.682846 140.272980C64.682846 141.065674,64.997787 141.825821,65.558273 142.386292C66.118744 142.946777,66.878891 143.261719,67.671585 143.261719C68.464279 143.261719,69.224426 142.946777,69.784897 142.386292C70.345383 141.825821,70.660324 141.065674,70.660324 140.272980Z" style="fill: rgb(100.000000%,100.000000%,100.000000%);stroke: none;"></path>
  <path d="M84.446396 101.007416C84.446396 100.214722,84.131454 99.454575,83.570969 98.894104C83.010498 98.333618,82.250351 98.018677,81.457657 98.018677C80.664963 98.018677,79.904816 98.333618,79.344345 98.894104C78.783859 99.454575,78.468918 100.214722,78.468918 101.007416C78.468918 101.800110,78.783859 102.560257,79.344345 103.120728C79.904816 103.681213,80.664963 103.996155,81.457657 103.996155C82.250351 103.996155,83.010498 103.681213,83.570969 103.120728C84.131454 102.560257,84.446396 101.800110,84.446396 101.007416Z" style="fill: rgb(100.000000%,100.000000%,100.000000%);stroke: none;"></path>
  <path d="M79.355469 111.904785C79.355469 111.112091,79.040527 110.351944,78.480042 109.791473C77.919571 109.230988,77.159424 108.916046,76.366730 108.916046C75.574036 108.916046,74.813889 109.230988,74.253418 109.791473C73.692932 110.351944,73.377991 111.112091,73.377991 111.904785C73.377991 112.697479,73.692932 113.457626,74.253418 114.018097C74.813889 114.578583,75.574036 114.893524,76.366730 114.893524C77.159424 114.893524,77.919571 114.578583,78.480042 114.018097C79.040527 113.457626,79.355469 112.697479,79.355469 111.904785Z" style="fill: rgb(100.000000%,100.000000%,100.000000%);stroke: none;"></path>
  <path d="M82.645447 90.532288C82.645447 89.739594,82.330505 88.979446,81.770020 88.418976C81.209549 87.858490,80.449402 87.543549,79.656708 87.543549C78.864014 87.543549,78.103867 87.858490,77.543396 88.418976C76.982910 88.979446,76.667969 89.739594,76.667969 90.532288C76.667969 91.324982,76.982910 92.085129,77.543396 92.645599C78.103867 93.206085,78.864014 93.521027,79.656708 93.521027C80.449402 93.521027,81.209549 93.206085,81.770020 92.645599C82.330505 92.085129,82.645447 91.324982,82.645447 90.532288Z" style="fill: rgb(100.000000%,100.000000%,100.000000%);stroke: none;"></path>
  <path d="M86.567444 96.779327C86.567444 95.986633,86.252502 95.226486,85.692017 94.666016C85.131546 94.105530,84.371399 93.790588,83.578705 93.790588C82.786011 93.790588,82.025864 94.105530,81.465393 94.666016C80.904907 95.226486,80.589966 95.986633,80.589966 96.779327C80.589966 97.572021,80.904907 98.332169,81.465393 98.892639C82.025864 99.453125,82.786011 99.768066,83.578705 99.768066C84.371399 99.768066,85.131546 99.453125,85.692017 98.892639C86.252502 98.332169,86.567444 97.572021,86.567444 96.779327Z" style="fill: rgb(100.000000%,100.000000%,100.000000%);stroke: none;"></path>
  <path d="M71.555649 88.236908C71.555649 87.444214,71.240707 86.684067,70.680222 86.123596C70.119751 85.563110,69.359604 85.248169,68.566910 85.248169C67.774216 85.248169,67.014069 85.563110,66.453598 86.123596C65.893112 86.684067,65.578171 87.444214,65.578171 88.236908C65.578171 89.029602,65.893112 89.789749,66.453598 90.350220C67.014069 90.910706,67.774216 91.225647,68.566910 91.225647C69.359604 91.225647,70.119751 90.910706,70.680222 90.350220C71.240707 89.789749,71.555649 89.029602,71.555649 88.236908Z" style="fill: rgb(100.000000%,100.000000%,100.000000%);stroke: none;"></path>
  <path d="M79.205658 89.922424C79.205658 89.129730,78.890717 88.369583,78.330231 87.809113C77.769760 87.248627,77.009613 86.933685,76.216919 86.933685C75.424225 86.933685,74.664078 87.248627,74.103607 87.809113C73.543121 88.369583,73.228180 89.129730,73.228180 89.922424C73.228180 90.715118,73.543121 91.475266,74.103607 92.035736C74.664078 92.596222,75.424225 92.911163,76.216919 92.911163C77.009613 92.911163,77.769760 92.596222,78.330231 92.035736C78.890717 91.475266,79.205658 90.715118,79.205658 89.922424Z" style="fill: rgb(100.000000%,100.000000%,100.000000%);stroke: none;"></path>
  <path d="M57.522949 86.527481C57.522949 85.734787,57.208008 84.974640,56.647522 84.414169C56.087051 83.853683,55.326904 83.538742,54.534210 83.538742C53.741516 83.538742,52.981369 83.853683,52.420898 84.414169C51.860413 84.974640,51.545471 85.734787,51.545471 86.527481C51.545471 87.320175,51.860413 88.080322,52.420898 88.640793C52.981369 89.201279,53.741516 89.516220,54.534210 89.516220C55.326904 89.516220,56.087051 89.201279,56.647522 88.640793C57.208008 88.080322,57.522949 87.320175,57.522949 86.527481Z" style="fill: rgb(100.000000%,100.000000%,100.000000%);stroke: none;"></path>
  <path d="M67.144135 86.641617C67.144135 85.848923,66.829193 85.088776,66.268707 84.528305C65.708237 83.967819,64.948090 83.652878,64.155396 83.652878C63.362701 83.652878,62.602554 83.967819,62.042084 84.528305C61.481598 85.088776,61.166656 85.848923,61.166656 86.641617C61.166656 87.434311,61.481598 88.194458,62.042084 88.754929C62.602554 89.315414,63.362701 89.630356,64.155396 89.630356C64.948090 89.630356,65.708237 89.315414,66.268707 88.754929C66.829193 88.194458,67.144135 87.434311,67.144135 86.641617Z" style="fill: rgb(100.000000%,100.000000%,100.000000%);stroke: none;"></path>
  <path d="M44.085419 90.986252C44.085419 90.193558,43.770477 89.433411,43.209991 88.872940C42.649521 88.312454,41.889374 87.997513,41.096680 87.997513C40.303986 87.997513,39.543839 88.312454,38.983368 88.872940C38.422882 89.433411,38.107941 90.193558,38.107941 90.986252C38.107941 91.778946,38.422882 92.539093,38.983368 93.099564C39.543839 93.660049,40.303986 93.974991,41.096680 93.974991C41.889374 93.974991,42.649521 93.660049,43.209991 93.099564C43.770477 92.539093,44.085419 91.778946,44.085419 90.986252Z" style="fill: rgb(100.000000%,100.000000%,100.000000%);stroke: none;"></path>
  <path d="M52.750565 88.265457C52.750565 87.472763,52.435623 86.712616,51.875137 86.152145C51.314667 85.591660,50.554520 85.276718,49.761826 85.276718C48.969131 85.276718,48.208984 85.591660,47.648514 86.152145C47.088028 86.712616,46.773087 87.472763,46.773087 88.265457C46.773087 89.058151,47.088028 89.818298,47.648514 90.378769C48.208984 90.939255,48.969131 91.254196,49.761826 91.254196C50.554520 91.254196,51.314667 90.939255,51.875137 90.378769C52.435623 89.818298,52.750565 89.058151,52.750565 88.265457Z" style="fill: rgb(100.000000%,100.000000%,100.000000%);stroke: none;"></path>
  <path d="M26.643066 89.451752C26.643066 88.659058,26.328125 87.898911,25.767639 87.338440C25.207169 86.777954,24.447021 86.463013,23.654327 86.463013C22.861633 86.463013,22.101486 86.777954,21.541016 87.338440C20.980530 87.898911,20.665588 88.659058,20.665588 89.451752C20.665588 90.244446,20.980530 91.004593,21.541016 91.565063C22.101486 92.125549,22.861633 92.440491,23.654327 92.440491C24.447021 92.440491,25.207169 92.125549,25.767639 91.565063C26.328125 91.004593,26.643066 90.244446,26.643066 89.451752Z" style="fill: rgb(100.000000%,100.000000%,100.000000%);stroke: none;"></path>
  <path d="M40.025101 92.058060C40.025101 91.265366,39.710159 90.505219,39.149673 89.944748C38.589203 89.384262,37.829056 89.069321,37.036362 89.069321C36.243668 89.069321,35.483521 89.384262,34.923050 89.944748C34.362564 90.505219,34.047623 91.265366,34.047623 92.058060C34.047623 92.850754,34.362564 93.610901,34.923050 94.171371C35.483521 94.731857,36.243668 95.046799,37.036362 95.046799C37.829056 95.046799,38.589203 94.731857,39.149673 94.171371C39.710159 93.610901,40.025101 92.850754,40.025101 92.058060Z" style="fill: rgb(100.000000%,100.000000%,100.000000%);stroke: none;"></path>
  <path d="M19.553452 51.994217C19.553452 51.201523,19.238510 50.441376,18.678024 49.880905C18.117554 49.320419,17.357407 49.005478,16.564713 49.005478C15.772018 49.005478,15.011871 49.320419,14.451401 49.880905C13.890915 50.441376,13.575974 51.201523,13.575974 51.994217C13.575974 52.786911,13.890915 53.547058,14.451401 54.107529C15.011871 54.668015,15.772018 54.982956,16.564713 54.982956C17.357407 54.982956,18.117554 54.668015,18.678024 54.107529C19.238510 53.547058,19.553452 52.786911,19.553452 51.994217Z" style="fill: rgb(100.000000%,100.000000%,100.000000%);stroke: none;"></path>
  <path d="M21.682388 79.812164C21.682388 79.019470,21.367447 78.259323,20.806961 77.698853C20.246490 77.138367,19.486343 76.823425,18.693649 76.823425C17.900955 76.823425,17.140808 77.138367,16.580338 77.698853C16.019852 78.259323,15.704910 79.019470,15.704910 79.812164C15.704910 80.604858,16.019852 81.365005,16.580338 81.925476C17.140808 82.485962,17.900955 82.800903,18.693649 82.800903C19.486343 82.800903,20.246490 82.485962,20.806961 81.925476C21.367447 81.365005,21.682388 80.604858,21.682388 79.812164Z" style="fill: rgb(100.000000%,100.000000%,100.000000%);stroke: none;"></path>
  <path d="M53.733124 12.152390C53.733124 11.359695,53.418182 10.599548,52.857697 10.039078C52.297226 9.478592,51.537079 9.163651,50.744385 9.163651C49.951691 9.163651,49.191544 9.478592,48.631073 10.039078C48.070587 10.599548,47.755646 11.359695,47.755646 12.152390C47.755646 12.945084,48.070587 13.705231,48.631073 14.265701C49.191544 14.826187,49.951691 15.141129,50.744385 15.141129C51.537079 15.141129,52.297226 14.826187,52.857697 14.265701C53.418182 13.705231,53.733124 12.945084,53.733124 12.152390Z" style="fill: rgb(100.000000%,100.000000%,100.000000%);stroke: none;"></path>
  <path d="M28.940598 35.506378C28.940598 34.713684,28.625656 33.953537,28.065170 33.393066C27.504700 32.832581,26.744553 32.517639,25.951859 32.517639C25.159164 32.517639,24.399017 32.832581,23.838547 33.393066C23.278061 33.953537,22.963120 34.713684,22.963120 35.506378C22.963120 36.299072,23.278061 37.059219,23.838547 37.619690C24.399017 38.180176,25.159164 38.495117,25.951859 38.495117C26.744553 38.495117,27.504700 38.180176,28.065170 37.619690C28.625656 37.059219,28.940598 36.299072,28.940598 35.506378Z" style="fill: rgb(100.000000%,100.000000%,100.000000%);stroke: none;"></path>
  <path d="M93.991852 15.909210C93.991852 15.116516,93.676910 14.356369,93.116425 13.795898C92.555954 13.235413,91.795807 12.920471,91.003113 12.920471C90.210419 12.920471,89.450272 13.235413,88.889801 13.795898C88.329315 14.356369,88.014374 15.116516,88.014374 15.909210C88.014374 16.701904,88.329315 17.462051,88.889801 18.022522C89.450272 18.583008,90.210419 18.897949,91.003113 18.897949C91.795807 18.897949,92.555954 18.583008,93.116425 18.022522C93.676910 17.462051,93.991852 16.701904,93.991852 15.909210Z" style="fill: rgb(100.000000%,100.000000%,100.000000%);stroke: none;"></path>
  <path d="M69.395874 4.661102C69.395874 3.868408,69.080933 3.108261,68.520447 2.547791C67.959976 1.987305,67.199829 1.672363,66.407135 1.672363C65.614441 1.672363,64.854294 1.987305,64.293823 2.547791C63.733337 3.108261,63.418396 3.868408,63.418396 4.661102C63.418396 5.453796,63.733337 6.213943,64.293823 6.774414C64.854294 7.334900,65.614441 7.649841,66.407135 7.649841C67.199829 7.649841,67.959976 7.334900,68.520447 6.774414C69.080933 6.213943,69.395874 5.453796,69.395874 4.661102Z" style="fill: rgb(100.000000%,100.000000%,100.000000%);stroke: none;"></path>
  <path d="M96.162842 44.539642C96.162842 43.746948,95.847900 42.986801,95.287415 42.426331C94.726944 41.865845,93.966797 41.550903,93.174103 41.550903C92.381409 41.550903,91.621262 41.865845,91.060791 42.426331C90.500305 42.986801,90.185364 43.746948,90.185364 44.539642C90.185364 45.332336,90.500305 46.092484,91.060791 46.652954C91.621262 47.213440,92.381409 47.528381,93.174103 47.528381C93.966797 47.528381,94.726944 47.213440,95.287415 46.652954C95.847900 46.092484,96.162842 45.332336,96.162842 44.539642Z" style="fill: rgb(100.000000%,100.000000%,100.000000%);stroke: none;"></path>
  <path d="M99.728394 27.337708C99.728394 26.545013,99.413452 25.784866,98.852966 25.224396C98.292496 24.663910,97.532349 24.348969,96.739655 24.348969C95.946960 24.348969,95.186813 24.663910,94.626343 25.224396C94.065857 25.784866,93.750916 26.545013,93.750916 27.337708C93.750916 28.130402,94.065857 28.890549,94.626343 29.451019C95.186813 30.011505,95.946960 30.326447,96.739655 30.326447C97.532349 30.326447,98.292496 30.011505,98.852966 29.451019C99.413452 28.890549,99.728394 28.130402,99.728394 27.337708Z" style="fill: rgb(100.000000%,100.000000%,100.000000%);stroke: none;"></path>
  <path d="M86.189240 60.164749C86.189240 59.372055,85.874298 58.611908,85.313812 58.051437C84.753342 57.490952,83.993195 57.176010,83.200500 57.176010C82.407806 57.176010,81.647659 57.490952,81.087189 58.051437C80.526703 58.611908,80.211761 59.372055,80.211761 60.164749C80.211761 60.957443,80.526703 61.717590,81.087189 62.278061C81.647659 62.838547,82.407806 63.153488,83.200500 63.153488C83.993195 63.153488,84.753342 62.838547,85.313812 62.278061C85.874298 61.717590,86.189240 60.957443,86.189240 60.164749Z" style="fill: rgb(100.000000%,100.000000%,100.000000%);stroke: none;"></path>
  <path d="M92.753159 49.644730C92.753159 48.852036,92.438217 48.091888,91.877731 47.531418C91.317261 46.970932,90.557114 46.655991,89.764420 46.655991C88.971725 46.655991,88.211578 46.970932,87.651108 47.531418C87.090622 48.091888,86.775681 48.852036,86.775681 49.644730C86.775681 50.437424,87.090622 51.197571,87.651108 51.758041C88.211578 52.318527,88.971725 52.633469,89.764420 52.633469C90.557114 52.633469,91.317261 52.318527,91.877731 51.758041C92.438217 51.197571,92.753159 50.437424,92.753159 49.644730Z" style="fill: rgb(100.000000%,100.000000%,100.000000%);stroke: none;"></path>
  <path d="M79.086517 77.531082C79.086517 76.738388,78.771576 75.978241,78.211090 75.417770C77.650620 74.857285,76.890472 74.542343,76.097778 74.542343C75.305084 74.542343,74.544937 74.857285,73.984467 75.417770C73.423981 75.978241,73.109039 76.738388,73.109039 77.531082C73.109039 78.323776,73.423981 79.083923,73.984467 79.644394C74.544937 80.204880,75.305084 80.519821,76.097778 80.519821C76.890472 80.519821,77.650620 80.204880,78.211090 79.644394C78.771576 79.083923,79.086517 78.323776,79.086517 77.531082Z" style="fill: rgb(100.000000%,100.000000%,100.000000%);stroke: none;"></path>
  <path d="M83.002228 65.731522C83.002228 64.938828,82.687286 64.178680,82.126801 63.618210C81.566330 63.057724,80.806183 62.742783,80.013489 62.742783C79.220795 62.742783,78.460648 63.057724,77.900177 63.618210C77.339691 64.178680,77.024750 64.938828,77.024750 65.731522C77.024750 66.524216,77.339691 67.284363,77.900177 67.844833C78.460648 68.405319,79.220795 68.720261,80.013489 68.720261C80.806183 68.720261,81.566330 68.405319,82.126801 67.844833C82.687286 67.284363,83.002228 66.524216,83.002228 65.731522Z" style="fill: rgb(100.000000%,100.000000%,100.000000%);stroke: none;"></path>
  <path d="M74.616714 92.882462C74.616714 92.089767,74.301773 91.329620,73.741287 90.769150C73.180817 90.208664,72.420670 89.893723,71.627975 89.893723C70.835281 89.893723,70.075134 90.208664,69.514664 90.769150C68.954178 91.329620,68.639236 92.089767,68.639236 92.882462C68.639236 93.675156,68.954178 94.435303,69.514664 94.995773C70.075134 95.556259,70.835281 95.871201,71.627975 95.871201C72.420670 95.871201,73.180817 95.556259,73.741287 94.995773C74.301773 94.435303,74.616714 93.675156,74.616714 92.882462Z" style="fill: rgb(100.000000%,100.000000%,100.000000%);stroke: none;"></path>
  <path d="M78.282608 83.600677C78.282608 82.807983,77.967667 82.047836,77.407181 81.487366C76.846710 80.926880,76.086563 80.611938,75.293869 80.611938C74.501175 80.611938,73.741028 80.926880,73.180557 81.487366C72.620071 82.047836,72.305130 82.807983,72.305130 83.600677C72.305130 84.393372,72.620071 85.153519,73.180557 85.713989C73.741028 86.274475,74.501175 86.589417,75.293869 86.589417C76.086563 86.589417,76.846710 86.274475,77.407181 85.713989C77.967667 85.153519,78.282608 84.393372,78.282608 83.600677Z" style="fill: rgb(100.000000%,100.000000%,100.000000%);stroke: none;"></path>
  <path d="M76.133224 103.059677C76.133224 102.266983,75.818283 101.506836,75.257797 100.946365C74.697327 100.385880,73.937180 100.070938,73.144485 100.070938C72.351791 100.070938,71.591644 100.385880,71.031174 100.946365C70.470688 101.506836,70.155746 102.266983,70.155746 103.059677C70.155746 103.852371,70.470688 104.612518,71.031174 105.172989C71.591644 105.733475,72.351791 106.048416,73.144485 106.048416C73.937180 106.048416,74.697327 105.733475,75.257797 105.172989C75.818283 104.612518,76.133224 103.852371,76.133224 103.059677Z" style="fill: rgb(100.000000%,100.000000%,100.000000%);stroke: none;"></path>
  <path d="M72.705429 96.794098C72.705429 96.001404,72.390488 95.241257,71.830002 94.680786C71.269531 94.120300,70.509384 93.805359,69.716690 93.805359C68.923996 93.805359,68.163849 94.120300,67.603378 94.680786C67.042892 95.241257,66.727951 96.001404,66.727951 96.794098C66.727951 97.586792,67.042892 98.346939,67.603378 98.907410C68.163849 99.467896,68.923996 99.782837,69.716690 99.782837C70.509384 99.782837,71.269531 99.467896,71.830002 98.907410C72.390488 98.346939,72.705429 97.586792,72.705429 96.794098Z" style="fill: rgb(100.000000%,100.000000%,100.000000%);stroke: none;"></path>
  <path d="M87.376785 106.232483C87.376785 105.439789,87.061844 104.679642,86.501358 104.119171C85.940887 103.558685,85.180740 103.243744,84.388046 103.243744C83.595352 103.243744,82.835205 103.558685,82.274734 104.119171C81.714249 104.679642,81.399307 105.439789,81.399307 106.232483C81.399307 107.025177,81.714249 107.785324,82.274734 108.345795C82.835205 108.906281,83.595352 109.221222,84.388046 109.221222C85.180740 109.221222,85.940887 108.906281,86.501358 108.345795C87.061844 107.785324,87.376785 107.025177,87.376785 106.232483Z" style="fill: rgb(100.000000%,100.000000%,100.000000%);stroke: none;"></path>
  <path d="M79.533722 103.936813C79.533722 103.144119,79.218781 102.383972,78.658295 101.823502C78.097824 101.263016,77.337677 100.948074,76.544983 100.948074C75.752289 100.948074,74.992142 101.263016,74.431671 101.823502C73.871185 102.383972,73.556244 103.144119,73.556244 103.936813C73.556244 104.729507,73.871185 105.489655,74.431671 106.050125C74.992142 106.610611,75.752289 106.925552,76.544983 106.925552C77.337677 106.925552,78.097824 106.610611,78.658295 106.050125C79.218781 105.489655,79.533722 104.729507,79.533722 103.936813Z" style="fill: rgb(100.000000%,100.000000%,100.000000%);stroke: none;"></path>
  <path d="M102.288193 107.124924C102.288193 106.332230,101.973251 105.572083,101.412766 105.011612C100.852295 104.451126,100.092148 104.136185,99.299454 104.136185C98.506760 104.136185,97.746613 104.451126,97.186142 105.011612C96.625656 105.572083,96.310715 106.332230,96.310715 107.124924C96.310715 107.917618,96.625656 108.677765,97.186142 109.238235C97.746613 109.798721,98.506760 110.113663,99.299454 110.113663C100.092148 110.113663,100.852295 109.798721,101.412766 109.238235C101.973251 108.677765,102.288193 107.917618,102.288193 107.124924Z" style="fill: rgb(100.000000%,100.000000%,100.000000%);stroke: none;"></path>
  <path d="M92.077286 108.201019C92.077286 107.408325,91.762344 106.648178,91.201859 106.087708C90.641388 105.527222,89.881241 105.212280,89.088547 105.212280C88.295853 105.212280,87.535706 105.527222,86.975235 106.087708C86.414749 106.648178,86.099808 107.408325,86.099808 108.201019C86.099808 108.993713,86.414749 109.753860,86.975235 110.314331C87.535706 110.874817,88.295853 111.189758,89.088547 111.189758C89.881241 111.189758,90.641388 110.874817,91.201859 110.314331C91.762344 109.753860,92.077286 108.993713,92.077286 108.201019Z" style="fill: rgb(100.000000%,100.000000%,100.000000%);stroke: none;"></path>
  <path d="M115.481812 99.031067C115.481812 98.238373,115.166870 97.478226,114.606384 96.917755C114.045914 96.357269,113.285767 96.042328,112.493073 96.042328C111.700378 96.042328,110.940231 96.357269,110.379761 96.917755C109.819275 97.478226,109.504333 98.238373,109.504333 99.031067C109.504333 99.823761,109.819275 100.583908,110.379761 101.144379C110.940231 101.704865,111.700378 102.019806,112.493073 102.019806C113.285767 102.019806,114.045914 101.704865,114.606384 101.144379C115.166870 100.583908,115.481812 99.823761,115.481812 99.031067Z" style="fill: rgb(100.000000%,100.000000%,100.000000%);stroke: none;"></path>
  <path d="M106.705917 103.811600C106.705917 103.018906,106.390976 102.258759,105.830490 101.698288C105.270020 101.137802,104.509872 100.822861,103.717178 100.822861C102.924484 100.822861,102.164337 101.137802,101.603867 101.698288C101.043381 102.258759,100.728439 103.018906,100.728439 103.811600C100.728439 104.604294,101.043381 105.364441,101.603867 105.924911C102.164337 106.485397,102.924484 106.800339,103.717178 106.800339C104.509872 106.800339,105.270020 106.485397,105.830490 105.924911C106.390976 105.364441,106.705917 104.604294,106.705917 103.811600Z" style="fill: rgb(100.000000%,100.000000%,100.000000%);stroke: none;"></path>
  <path d="M122.319702 87.278290C122.319702 86.485596,122.004761 85.725449,121.444275 85.164978C120.883804 84.604492,120.123657 84.289551,119.330963 84.289551C118.538269 84.289551,117.778122 84.604492,117.217651 85.164978C116.657166 85.725449,116.342224 86.485596,116.342224 87.278290C116.342224 88.070984,116.657166 88.831131,117.217651 89.391602C117.778122 89.952087,118.538269 90.267029,119.330963 90.267029C120.123657 90.267029,120.883804 89.952087,121.444275 89.391602C122.004761 88.831131,122.319702 88.070984,122.319702 87.278290Z" style="fill: rgb(100.000000%,100.000000%,100.000000%);stroke: none;"></path>
  <path d="M120.173782 96.872498C120.173782 96.079803,119.858841 95.319656,119.298355 94.759186C118.737885 94.198700,117.977737 93.883759,117.185043 93.883759C116.392349 93.883759,115.632202 94.198700,115.071732 94.759186C114.511246 95.319656,114.196304 96.079803,114.196304 96.872498C114.196304 97.665192,114.511246 98.425339,115.071732 98.985809C115.632202 99.546295,116.392349 99.861237,117.185043 99.861237C117.977737 99.861237,118.737885 99.546295,119.298355 98.985809C119.858841 98.425339,120.173782 97.665192,120.173782 96.872498Z" style="fill: rgb(100.000000%,100.000000%,100.000000%);stroke: none;"></path>
  <path d="M110.681198 74.897278C110.681198 74.104584,110.366257 73.344437,109.805771 72.783966C109.245300 72.223480,108.485153 71.908539,107.692459 71.908539C106.899765 71.908539,106.139618 72.223480,105.579147 72.783966C105.018661 73.344437,104.703720 74.104584,104.703720 74.897278C104.703720 75.689972,105.018661 76.450119,105.579147 77.010590C106.139618 77.571075,106.899765 77.886017,107.692459 77.886017C108.485153 77.886017,109.245300 77.571075,109.805771 77.010590C110.366257 76.450119,110.681198 75.689972,110.681198 74.897278Z" style="fill: rgb(100.000000%,100.000000%,100.000000%);stroke: none;"></path>
  <path d="M118.253311 83.111221C118.253311 82.318527,117.938370 81.558380,117.377884 80.997910C116.817413 80.437424,116.057266 80.122482,115.264572 80.122482C114.471878 80.122482,113.711731 80.437424,113.151260 80.997910C112.590775 81.558380,112.275833 82.318527,112.275833 83.111221C112.275833 83.903915,112.590775 84.664062,113.151260 85.224533C113.711731 85.785019,114.471878 86.099960,115.264572 86.099960C116.057266 86.099960,116.817413 85.785019,117.377884 85.224533C117.938370 84.664062,118.253311 83.903915,118.253311 83.111221Z" style="fill: rgb(100.000000%,100.000000%,100.000000%);stroke: none;"></path>
  <path d="M99.103638 61.531982C99.103638 60.739288,98.788696 59.979141,98.228210 59.418671C97.667740 58.858185,96.907593 58.543243,96.114899 58.543243C95.322205 58.543243,94.562057 58.858185,94.001587 59.418671C93.441101 59.979141,93.126160 60.739288,93.126160 61.531982C93.126160 62.324677,93.441101 63.084824,94.001587 63.645294C94.562057 64.205780,95.322205 64.520721,96.114899 64.520721C96.907593 64.520721,97.667740 64.205780,98.228210 63.645294C98.788696 63.084824,99.103638 62.324677,99.103638 61.531982Z" style="fill: rgb(100.000000%,100.000000%,100.000000%);stroke: none;"></path>
  <path d="M107.285568 69.996689C107.285568 69.203995,106.970627 68.443848,106.410141 67.883377C105.849670 67.322891,105.089523 67.007950,104.296829 67.007950C103.504135 67.007950,102.743988 67.322891,102.183517 67.883377C101.623032 68.443848,101.308090 69.203995,101.308090 69.996689C101.308090 70.789383,101.623032 71.549530,102.183517 72.110001C102.743988 72.670486,103.504135 72.985428,104.296829 72.985428C105.089523 72.985428,105.849670 72.670486,106.410141 72.110001C106.970627 71.549530,107.285568 70.789383,107.285568 69.996689Z" style="fill: rgb(100.000000%,100.000000%,100.000000%);stroke: none;"></path>
  <path d="M84.850342 51.571396C84.850342 50.778702,84.535400 50.018555,83.974915 49.458084C83.414444 48.897598,82.654297 48.582657,81.861603 48.582657C81.068909 48.582657,80.308762 48.897598,79.748291 49.458084C79.187805 50.018555,78.872864 50.778702,78.872864 51.571396C78.872864 52.364090,79.187805 53.124237,79.748291 53.684708C80.308762 54.245193,81.068909 54.560135,81.861603 54.560135C82.654297 54.560135,83.414444 54.245193,83.974915 53.684708C84.535400 53.124237,84.850342 52.364090,84.850342 51.571396Z" style="fill: rgb(100.000000%,100.000000%,100.000000%);stroke: none;"></path>
  <path d="M94.409256 58.018997C94.409256 57.226303,94.094315 56.466156,93.533829 55.905685C92.973358 55.345200,92.213211 55.030258,91.420517 55.030258C90.627823 55.030258,89.867676 55.345200,89.307205 55.905685C88.746719 56.466156,88.431778 57.226303,88.431778 58.018997C88.431778 58.811691,88.746719 59.571838,89.307205 60.132309C89.867676 60.692795,90.627823 61.007736,91.420517 61.007736C92.213211 61.007736,92.973358 60.692795,93.533829 60.132309C94.094315 59.571838,94.409256 58.811691,94.409256 58.018997Z" style="fill: rgb(100.000000%,100.000000%,100.000000%);stroke: none;"></path>
  <path d="M69.815826 33.192520C69.815826 32.399826,69.500885 31.639679,68.940399 31.079208C68.379929 30.518723,67.619781 30.203781,66.827087 30.203781C66.034393 30.203781,65.274246 30.518723,64.713776 31.079208C64.153290 31.639679,63.838348 32.399826,63.838348 33.192520C63.838348 33.985214,64.153290 34.745361,64.713776 35.305832C65.274246 35.866318,66.034393 36.181259,66.827087 36.181259C67.619781 36.181259,68.379929 35.866318,68.940399 35.305832C69.500885 34.745361,69.815826 33.985214,69.815826 33.192520Z" style="fill: rgb(100.000000%,100.000000%,100.000000%);stroke: none;"></path>
  <path d="M79.884415 48.511108C79.884415 47.718414,79.569473 46.958267,79.008987 46.397797C78.448517 45.837311,77.688370 45.522369,76.895676 45.522369C76.102982 45.522369,75.342834 45.837311,74.782364 46.397797C74.221878 46.958267,73.906937 47.718414,73.906937 48.511108C73.906937 49.303802,74.221878 50.063950,74.782364 50.624420C75.342834 51.184906,76.102982 51.499847,76.895676 51.499847C77.688370 51.499847,78.448517 51.184906,79.008987 50.624420C79.569473 50.063950,79.884415 49.303802,79.884415 48.511108Z" style="fill: rgb(100.000000%,100.000000%,100.000000%);stroke: none;"></path>
  <path d="M95.043671 1.997040C95.043671 1.204346,94.728729 0.444199,94.168243 -0.116272C93.607773 -0.676758,92.847626 -0.991699,92.054932 -0.991699C91.262238 -0.991699,90.502090 -0.676758,89.941620 -0.116272C89.381134 0.444199,89.066193 1.204346,89.066193 1.997040C89.066193 2.789734,89.381134 3.549881,89.941620 4.110352C90.502090 4.670837,91.262238 4.985779,92.054932 4.985779C92.847626 4.985779,93.607773 4.670837,94.168243 4.110352C94.728729 3.549881,95.043671 2.789734,95.043671 1.997040Z" style="fill: rgb(100.000000%,100.000000%,100.000000%);stroke: none;"></path>
  <path d="M73.348343 19.149872C73.348343 18.357178,73.033401 17.597031,72.472916 17.036560C71.912445 16.476074,71.152298 16.161133,70.359604 16.161133C69.566910 16.161133,68.806763 16.476074,68.246292 17.036560C67.685806 17.597031,67.370865 18.357178,67.370865 19.149872C67.370865 19.942566,67.685806 20.702713,68.246292 21.263184C68.806763 21.823669,69.566910 22.138611,70.359604 22.138611C71.152298 22.138611,71.912445 21.823669,72.472916 21.263184C73.033401 20.702713,73.348343 19.942566,73.348343 19.149872Z" style="fill: rgb(100.000000%,100.000000%,100.000000%);stroke: none;"></path>
  <path d="M141.403061 12.829834C141.403061 12.037140,141.088120 11.276993,140.527634 10.716522C139.967163 10.156036,139.207016 9.841095,138.414322 9.841095C137.621628 9.841095,136.861481 10.156036,136.301010 10.716522C135.740524 11.276993,135.425583 12.037140,135.425583 12.829834C135.425583 13.622528,135.740524 14.382675,136.301010 14.943146C136.861481 15.503632,137.621628 15.818573,138.414322 15.818573C139.207016 15.818573,139.967163 15.503632,140.527634 14.943146C141.088120 14.382675,141.403061 13.622528,141.403061 12.829834Z" style="fill: rgb(100.000000%,100.000000%,100.000000%);stroke: none;"></path>
  <path d="M110.868362 2.885788C110.868362 2.093094,110.553421 1.332947,109.992935 0.772476C109.432465 0.211990,108.672318 -0.102951,107.879623 -0.102951C107.086929 -0.102951,106.326782 0.211990,105.766312 0.772476C105.205826 1.332947,104.890884 2.093094,104.890884 2.885788C104.890884 3.678482,105.205826 4.438629,105.766312 4.999100C106.326782 5.559586,107.086929 5.874527,107.879623 5.874527C108.672318 5.874527,109.432465 5.559586,109.992935 4.999100C110.553421 4.438629,110.868362 3.678482,110.868362 2.885788Z" style="fill: rgb(100.000000%,100.000000%,100.000000%);stroke: none;"></path>
  <path d="M161.498245 53.705780C161.498245 52.913086,161.183304 52.152939,160.622818 51.592468C160.062347 51.031982,159.302200 50.717041,158.509506 50.717041C157.716812 50.717041,156.956665 51.031982,156.396194 51.592468C155.835709 52.152939,155.520767 52.913086,155.520767 53.705780C155.520767 54.498474,155.835709 55.258621,156.396194 55.819092C156.956665 56.379578,157.716812 56.694519,158.509506 56.694519C159.302200 56.694519,160.062347 56.379578,160.622818 55.819092C161.183304 55.258621,161.498245 54.498474,161.498245 53.705780Z" style="fill: rgb(100.000000%,100.000000%,100.000000%);stroke: none;"></path>
  <path d="M156.502655 23.559753C156.502655 22.767059,156.187714 22.006912,155.627228 21.446442C155.066757 20.885956,154.306610 20.571014,153.513916 20.571014C152.721222 20.571014,151.961075 20.885956,151.400604 21.446442C150.840118 22.006912,150.525177 22.767059,150.525177 23.559753C150.525177 24.352448,150.840118 25.112595,151.400604 25.673065C151.961075 26.233551,152.721222 26.548492,153.513916 26.548492C154.306610 26.548492,155.066757 26.233551,155.627228 25.673065C156.187714 25.112595,156.502655 24.352448,156.502655 23.559753Z" style="fill: rgb(100.000000%,100.000000%,100.000000%);stroke: none;"></path>
  <path d="M165.135391 90.725769C165.135391 89.933075,164.820450 89.172928,164.259964 88.612457C163.699493 88.051971,162.939346 87.737030,162.146652 87.737030C161.353958 87.737030,160.593811 88.051971,160.033340 88.612457C159.472855 89.172928,159.157913 89.933075,159.157913 90.725769C159.157913 91.518463,159.472855 92.278610,160.033340 92.839081C160.593811 93.399567,161.353958 93.714508,162.146652 93.714508C162.939346 93.714508,163.699493 93.399567,164.259964 92.839081C164.820450 92.278610,165.135391 91.518463,165.135391 90.725769Z" style="fill: rgb(100.000000%,100.000000%,100.000000%);stroke: none;"></path>
  <path d="M154.087967 68.012756C154.087967 67.220062,153.773026 66.459915,153.212540 65.899445C152.652069 65.338959,151.891922 65.024017,151.099228 65.024017C150.306534 65.024017,149.546387 65.338959,148.985916 65.899445C148.425430 66.459915,148.110489 67.220062,148.110489 68.012756C148.110489 68.805450,148.425430 69.565598,148.985916 70.126068C149.546387 70.686554,150.306534 71.001495,151.099228 71.001495C151.891922 71.001495,152.652069 70.686554,153.212540 70.126068C153.773026 69.565598,154.087967 68.805450,154.087967 68.012756Z" style="fill: rgb(100.000000%,100.000000%,100.000000%);stroke: none;"></path>
  <path d="M195.338669 116.227997C195.338669 115.435303,195.023727 114.675156,194.463242 114.114685C193.902771 113.554199,193.142624 113.239258,192.349930 113.239258C191.557236 113.239258,190.797089 113.554199,190.236618 114.114685C189.676132 114.675156,189.361191 115.435303,189.361191 116.227997C189.361191 117.020691,189.676132 117.780838,190.236618 118.341309C190.797089 118.901794,191.557236 119.216736,192.349930 119.216736C193.142624 119.216736,193.902771 118.901794,194.463242 118.341309C195.023727 117.780838,195.338669 117.020691,195.338669 116.227997Z" style="fill: rgb(100.000000%,100.000000%,100.000000%);stroke: none;"></path>
  <path d="M177.058090 94.842209C177.058090 94.049515,176.743149 93.289368,176.182663 92.728897C175.622192 92.168411,174.862045 91.853470,174.069351 91.853470C173.276657 91.853470,172.516510 92.168411,171.956039 92.728897C171.395554 93.289368,171.080612 94.049515,171.080612 94.842209C171.080612 95.634903,171.395554 96.395050,171.956039 96.955521C172.516510 97.516006,173.276657 97.830948,174.069351 97.830948C174.862045 97.830948,175.622192 97.516006,176.182663 96.955521C176.743149 96.395050,177.058090 95.634903,177.058090 94.842209Z" style="fill: rgb(100.000000%,100.000000%,100.000000%);stroke: none;"></path>
  <path d="M175.874435 161.786240C175.874435 160.993546,175.559494 160.233398,174.999008 159.672928C174.438538 159.112442,173.678391 158.797501,172.885696 158.797501C172.093002 158.797501,171.332855 159.112442,170.772385 159.672928C170.211899 160.233398,169.896957 160.993546,169.896957 161.786240C169.896957 162.578934,170.211899 163.339081,170.772385 163.899551C171.332855 164.460037,172.093002 164.774979,172.885696 164.774979C173.678391 164.774979,174.438538 164.460037,174.999008 163.899551C175.559494 163.339081,175.874435 162.578934,175.874435 161.786240Z" style="fill: rgb(100.000000%,100.000000%,100.000000%);stroke: none;"></path>
  <path d="M194.448532 135.065598C194.448532 134.272903,194.133591 133.512756,193.573105 132.952286C193.012634 132.391800,192.252487 132.076859,191.459793 132.076859C190.667099 132.076859,189.906952 132.391800,189.346481 132.952286C188.785995 133.512756,188.471054 134.272903,188.471054 135.065598C188.471054 135.858292,188.785995 136.618439,189.346481 137.178909C189.906952 137.739395,190.667099 138.054337,191.459793 138.054337C192.252487 138.054337,193.012634 137.739395,193.573105 137.178909C194.133591 136.618439,194.448532 135.858292,194.448532 135.065598Z" style="fill: rgb(100.000000%,100.000000%,100.000000%);stroke: none;"></path>
  <path d="M132.472443 157.649918C132.472443 156.857224,132.157501 156.097076,131.597015 155.536606C131.036545 154.976120,130.276398 154.661179,129.483704 154.661179C128.691010 154.661179,127.930862 154.976120,127.370392 155.536606C126.809906 156.097076,126.494965 156.857224,126.494965 157.649918C126.494965 158.442612,126.809906 159.202759,127.370392 159.763229C127.930862 160.323715,128.691010 160.638657,129.483704 160.638657C130.276398 160.638657,131.036545 160.323715,131.597015 159.763229C132.157501 159.202759,132.472443 158.442612,132.472443 157.649918Z" style="fill: rgb(100.000000%,100.000000%,100.000000%);stroke: none;"></path>
  <path d="M160.681305 168.981537C160.681305 168.188843,160.366364 167.428696,159.805878 166.868225C159.245407 166.307739,158.485260 165.992798,157.692566 165.992798C156.899872 165.992798,156.139725 166.307739,155.579254 166.868225C155.018768 167.428696,154.703827 168.188843,154.703827 168.981537C154.703827 169.774231,155.018768 170.534378,155.579254 171.094849C156.139725 171.655334,156.899872 171.970276,157.692566 171.970276C158.485260 171.970276,159.245407 171.655334,159.805878 171.094849C160.366364 170.534378,160.681305 169.774231,160.681305 168.981537Z" style="fill: rgb(100.000000%,100.000000%,100.000000%);stroke: none;"></path>
  <path d="M119.769928 117.661316C119.769928 116.868622,119.454987 116.108475,118.894501 115.548004C118.334030 114.987518,117.573883 114.672577,116.781189 114.672577C115.988495 114.672577,115.228348 114.987518,114.667877 115.548004C114.107391 116.108475,113.792450 116.868622,113.792450 117.661316C113.792450 118.454010,114.107391 119.214157,114.667877 119.774628C115.228348 120.335114,115.988495 120.650055,116.781189 120.650055C117.573883 120.650055,118.334030 120.335114,118.894501 119.774628C119.454987 119.214157,119.769928 118.454010,119.769928 117.661316Z" style="fill: rgb(100.000000%,100.000000%,100.000000%);stroke: none;"></path>
  <path d="M127.674469 141.210556C127.674469 140.417862,127.359528 139.657715,126.799042 139.097244C126.238571 138.536758,125.478424 138.221817,124.685730 138.221817C123.893036 138.221817,123.132889 138.536758,122.572418 139.097244C122.011932 139.657715,121.696991 140.417862,121.696991 141.210556C121.696991 142.003250,122.011932 142.763397,122.572418 143.323868C123.132889 143.884354,123.893036 144.199295,124.685730 144.199295C125.478424 144.199295,126.238571 143.884354,126.799042 143.323868C127.359528 142.763397,127.674469 142.003250,127.674469 141.210556Z" style="fill: rgb(100.000000%,100.000000%,100.000000%);stroke: none;"></path>
  <path d="M108.896851 97.347351C108.896851 96.554657,108.581909 95.794510,108.021423 95.234039C107.460953 94.673553,106.700806 94.358612,105.908112 94.358612C105.115417 94.358612,104.355270 94.673553,103.794800 95.234039C103.234314 95.794510,102.919373 96.554657,102.919373 97.347351C102.919373 98.140045,103.234314 98.900192,103.794800 99.460663C104.355270 100.021149,105.115417 100.336090,105.908112 100.336090C106.700806 100.336090,107.460953 100.021149,108.021423 99.460663C108.581909 98.900192,108.896851 98.140045,108.896851 97.347351Z" style="fill: rgb(100.000000%,100.000000%,100.000000%);stroke: none;"></path>
  <path d="M116.267838 109.087250C116.267838 108.294556,115.952896 107.534409,115.392410 106.973938C114.831940 106.413452,114.071793 106.098511,113.279099 106.098511C112.486404 106.098511,111.726257 106.413452,111.165787 106.973938C110.605301 107.534409,110.290359 108.294556,110.290359 109.087250C110.290359 109.879944,110.605301 110.640091,111.165787 111.200562C111.726257 111.761047,112.486404 112.075989,113.279099 112.075989C114.071793 112.075989,114.831940 111.761047,115.392410 111.200562C115.952896 110.640091,116.267838 109.879944,116.267838 109.087250Z" style="fill: rgb(100.000000%,100.000000%,100.000000%);stroke: none;"></path>
  <path d="M107.768082 84.546326C107.768082 83.753632,107.453140 82.993484,106.892654 82.433014C106.332184 81.872528,105.572037 81.557587,104.779343 81.557587C103.986649 81.557587,103.226501 81.872528,102.666031 82.433014C102.105545 82.993484,101.790604 83.753632,101.790604 84.546326C101.790604 85.339020,102.105545 86.099167,102.666031 86.659637C103.226501 87.220123,103.986649 87.535065,104.779343 87.535065C105.572037 87.535065,106.332184 87.220123,106.892654 86.659637C107.453140 86.099167,107.768082 85.339020,107.768082 84.546326Z" style="fill: rgb(100.000000%,100.000000%,100.000000%);stroke: none;"></path>
  <path d="M106.058365 93.230927C106.058365 92.438232,105.743423 91.678085,105.182938 91.117615C104.622467 90.557129,103.862320 90.242188,103.069626 90.242188C102.276932 90.242188,101.516785 90.557129,100.956314 91.117615C100.395828 91.678085,100.080887 92.438232,100.080887 93.230927C100.080887 94.023621,100.395828 94.783768,100.956314 95.344238C101.516785 95.904724,102.276932 96.219666,103.069626 96.219666C103.862320 96.219666,104.622467 95.904724,105.182938 95.344238C105.743423 94.783768,106.058365 94.023621,106.058365 93.230927Z" style="fill: rgb(100.000000%,100.000000%,100.000000%);stroke: none;"></path>
  <path d="M120.829651 74.457748C120.829651 73.665054,120.514709 72.904907,119.954224 72.344437C119.393753 71.783951,118.633606 71.469009,117.840912 71.469009C117.048218 71.469009,116.288071 71.783951,115.727600 72.344437C115.167114 72.904907,114.852173 73.665054,114.852173 74.457748C114.852173 75.250443,115.167114 76.010590,115.727600 76.571060C116.288071 77.131546,117.048218 77.446487,117.840912 77.446487C118.633606 77.446487,119.393753 77.131546,119.954224 76.571060C120.514709 76.010590,120.829651 75.250443,120.829651 74.457748Z" style="fill: rgb(100.000000%,100.000000%,100.000000%);stroke: none;"></path>
  <path d="M111.376724 81.855621C111.376724 81.062927,111.061783 80.302780,110.501297 79.742310C109.940826 79.181824,109.180679 78.866882,108.387985 78.866882C107.595291 78.866882,106.835144 79.181824,106.274673 79.742310C105.714188 80.302780,105.399246 81.062927,105.399246 81.855621C105.399246 82.648315,105.714188 83.408463,106.274673 83.968933C106.835144 84.529419,107.595291 84.844360,108.387985 84.844360C109.180679 84.844360,109.940826 84.529419,110.501297 83.968933C111.061783 83.408463,111.376724 82.648315,111.376724 81.855621Z" style="fill: rgb(100.000000%,100.000000%,100.000000%);stroke: none;"></path>
  <path d="M139.404175 53.405899C139.404175 52.613205,139.089233 51.853058,138.528748 51.292587C137.968277 50.732101,137.208130 50.417160,136.415436 50.417160C135.622742 50.417160,134.862595 50.732101,134.302124 51.292587C133.741638 51.853058,133.426697 52.613205,133.426697 53.405899C133.426697 54.198593,133.741638 54.958740,134.302124 55.519211C134.862595 56.079697,135.622742 56.394638,136.415436 56.394638C137.208130 56.394638,137.968277 56.079697,138.528748 55.519211C139.089233 54.958740,139.404175 54.198593,139.404175 53.405899Z" style="fill: rgb(100.000000%,100.000000%,100.000000%);stroke: none;"></path>
  <path d="M126.439270 69.027771C126.439270 68.235077,126.124329 67.474930,125.563843 66.914459C125.003372 66.353973,124.243225 66.039032,123.450531 66.039032C122.657837 66.039032,121.897690 66.353973,121.337219 66.914459C120.776733 67.474930,120.461792 68.235077,120.461792 69.027771C120.461792 69.820465,120.776733 70.580612,121.337219 71.141083C121.897690 71.701569,122.657837 72.016510,123.450531 72.016510C124.243225 72.016510,125.003372 71.701569,125.563843 71.141083C126.124329 70.580612,126.439270 69.820465,126.439270 69.027771Z" style="fill: rgb(100.000000%,100.000000%,100.000000%);stroke: none;"></path>
  <path d="M172.486435 38.457764C172.486435 37.665070,172.171494 36.904922,171.611008 36.344452C171.050537 35.783966,170.290390 35.469025,169.497696 35.469025C168.705002 35.469025,167.944855 35.783966,167.384384 36.344452C166.823898 36.904922,166.508957 37.665070,166.508957 38.457764C166.508957 39.250458,166.823898 40.010605,167.384384 40.571075C167.944855 41.131561,168.705002 41.446503,169.497696 41.446503C170.290390 41.446503,171.050537 41.131561,171.611008 40.571075C172.171494 40.010605,172.486435 39.250458,172.486435 38.457764Z" style="fill: rgb(100.000000%,100.000000%,100.000000%);stroke: none;"></path>
  <path d="M146.847198 41.900986C146.847198 41.108292,146.532257 40.348145,145.971771 39.787674C145.411301 39.227188,144.651154 38.912247,143.858459 38.912247C143.065765 38.912247,142.305618 39.227188,141.745148 39.787674C141.184662 40.348145,140.869720 41.108292,140.869720 41.900986C140.869720 42.693680,141.184662 43.453827,141.745148 44.014297C142.305618 44.574783,143.065765 44.889725,143.858459 44.889725C144.651154 44.889725,145.411301 44.574783,145.971771 44.014297C146.532257 43.453827,146.847198 42.693680,146.847198 41.900986Z" style="fill: rgb(100.000000%,100.000000%,100.000000%);stroke: none;"></path>
  <path d="M196.475723 75.527832C196.475723 74.735138,196.160782 73.974991,195.600296 73.414520C195.039825 72.854034,194.279678 72.539093,193.486984 72.539093C192.694290 72.539093,191.934143 72.854034,191.373672 73.414520C190.813187 73.974991,190.498245 74.735138,190.498245 75.527832C190.498245 76.320526,190.813187 77.080673,191.373672 77.641144C191.934143 78.201630,192.694290 78.516571,193.486984 78.516571C194.279678 78.516571,195.039825 78.201630,195.600296 77.641144C196.160782 77.080673,196.475723 76.320526,196.475723 75.527832Z" style="fill: rgb(100.000000%,100.000000%,100.000000%);stroke: none;"></path>
  <path d="M183.714203 48.414795C183.714203 47.622101,183.399261 46.861954,182.838776 46.301483C182.278305 45.740997,181.518158 45.426056,180.725464 45.426056C179.932770 45.426056,179.172623 45.740997,178.612152 46.301483C178.051666 46.861954,177.736725 47.622101,177.736725 48.414795C177.736725 49.207489,178.051666 49.967636,178.612152 50.528107C179.172623 51.088593,179.932770 51.403534,180.725464 51.403534C181.518158 51.403534,182.278305 51.088593,182.838776 50.528107C183.399261 49.967636,183.714203 49.207489,183.714203 48.414795Z" style="fill: rgb(100.000000%,100.000000%,100.000000%);stroke: none;"></path>
  <path d="M176.038040 110.558319C176.038040 109.765625,175.723099 109.005478,175.162613 108.445007C174.602142 107.884521,173.841995 107.569580,173.049301 107.569580C172.256607 107.569580,171.496460 107.884521,170.935989 108.445007C170.375504 109.005478,170.060562 109.765625,170.060562 110.558319C170.060562 111.351013,170.375504 112.111160,170.935989 112.671631C171.496460 113.232117,172.256607 113.547058,173.049301 113.547058C173.841995 113.547058,174.602142 113.232117,175.162613 112.671631C175.723099 112.111160,176.038040 111.351013,176.038040 110.558319Z" style="fill: rgb(100.000000%,100.000000%,100.000000%);stroke: none;"></path>
  <path d="M196.199417 93.153458C196.199417 92.360764,195.884476 91.600616,195.323990 91.040146C194.763519 90.479660,194.003372 90.164719,193.210678 90.164719C192.417984 90.164719,191.657837 90.479660,191.097366 91.040146C190.536880 91.600616,190.221939 92.360764,190.221939 93.153458C190.221939 93.946152,190.536880 94.706299,191.097366 95.266769C191.657837 95.827255,192.417984 96.142197,193.210678 96.142197C194.003372 96.142197,194.763519 95.827255,195.323990 95.266769C195.884476 94.706299,196.199417 93.946152,196.199417 93.153458Z" style="fill: rgb(100.000000%,100.000000%,100.000000%);stroke: none;"></path>
  <path d="M146.566833 132.015045C146.566833 131.222351,146.251892 130.462204,145.691406 129.901733C145.130936 129.341248,144.370789 129.026306,143.578094 129.026306C142.785400 129.026306,142.025253 129.341248,141.464783 129.901733C140.904297 130.462204,140.589355 131.222351,140.589355 132.015045C140.589355 132.807739,140.904297 133.567886,141.464783 134.128357C142.025253 134.688843,142.785400 135.003784,143.578094 135.003784C144.370789 135.003784,145.130936 134.688843,145.691406 134.128357C146.251892 133.567886,146.566833 132.807739,146.566833 132.015045Z" style="fill: rgb(100.000000%,100.000000%,100.000000%);stroke: none;"></path>
  <path d="M163.498840 111.487228C163.498840 110.694534,163.183899 109.934387,162.623413 109.373917C162.062943 108.813431,161.302795 108.498489,160.510101 108.498489C159.717407 108.498489,158.957260 108.813431,158.396790 109.373917C157.836304 109.934387,157.521362 110.694534,157.521362 111.487228C157.521362 112.279922,157.836304 113.040070,158.396790 113.600540C158.957260 114.161026,159.717407 114.475967,160.510101 114.475967C161.302795 114.475967,162.062943 114.161026,162.623413 113.600540C163.183899 113.040070,163.498840 112.279922,163.498840 111.487228Z" style="fill: rgb(100.000000%,100.000000%,100.000000%);stroke: none;"></path>
  <path d="M138.312317 181.276001C138.312317 180.483307,137.997375 179.723160,137.436890 179.162689C136.876419 178.602203,136.116272 178.287262,135.323578 178.287262C134.530884 178.287262,133.770737 178.602203,133.210266 179.162689C132.649780 179.723160,132.334839 180.483307,132.334839 181.276001C132.334839 182.068695,132.649780 182.828842,133.210266 183.389313C133.770737 183.949799,134.530884 184.264740,135.323578 184.264740C136.116272 184.264740,136.876419 183.949799,137.436890 183.389313C137.997375 182.828842,138.312317 182.068695,138.312317 181.276001Z" style="fill: rgb(100.000000%,100.000000%,100.000000%);stroke: none;"></path>
  <path d="M153.418488 149.775543C153.418488 148.982849,153.103546 148.222702,152.543060 147.662231C151.982590 147.101746,151.222443 146.786804,150.429749 146.786804C149.637054 146.786804,148.876907 147.101746,148.316437 147.662231C147.755951 148.222702,147.441010 148.982849,147.441010 149.775543C147.441010 150.568237,147.755951 151.328384,148.316437 151.888855C148.876907 152.449341,149.637054 152.764282,150.429749 152.764282C151.222443 152.764282,151.982590 152.449341,152.543060 151.888855C153.103546 151.328384,153.418488 150.568237,153.418488 149.775543Z" style="fill: rgb(100.000000%,100.000000%,100.000000%);stroke: none;"></path>
  <path d="M92.971848 186.020157C70.991562 189.891953,49.855530 175.784119,45.000000 154.000000C41.931030 140.231201,46.610703 126.190796,46.441360 112.146698C46.351105 104.661957,44.873230 97.246658,45.000000 89.760635C45.107315 83.423615,46.186798 76.659332,42.484283 71.481506C37.071457 63.911865,26.020782 64.111115,17.934967 69.898682C2.721573 80.787949,2.255127 102.024734,8.074524 120.639893C13.868408 139.173447,26.912628 155.959290,45.000000 154.000000C58.669098 152.519318,67.671585 140.272980,72.306320 126.971039C74.866486 119.623230,76.366730 111.904785,79.662796 104.849396C81.457657 101.007416,83.578705 96.779327,81.364990 93.253281C79.656708 90.532288,76.216919 89.922424,73.070831 89.229248C68.566910 88.236908,64.155396 86.641617,59.535233 86.586807C54.534210 86.527481,49.761826 88.265457,45.000000 89.760635C41.096680 90.986252,37.036362 92.058060,33.013367 91.274536C23.654327 89.451752,18.693649 79.812164,17.934967 69.898682C16.564713 51.994217,25.951859 35.506378,39.086685 23.133682C50.744385 12.152390,66.407135 4.661102,80.521362 11.115753C91.003113 15.909210,96.739655 27.337708,94.398682 38.631683C93.174103 44.539642,89.764420 49.644730,86.577545 54.752350C83.200500 60.164749,80.013489 65.731522,78.002853 71.790344C76.097778 77.531082,75.293869 83.600677,73.070831 89.229248C71.627975 92.882462,69.716690 96.794098,71.589218 100.216843C73.144485 103.059677,76.544983 103.936813,79.662796 104.849396C84.388046 106.232483,89.088547 108.201019,94.002960 107.683105C99.299454 107.124924,103.717178 103.811600,108.374023 101.274857C112.493073 99.031067,117.185043 96.872498,118.203384 92.319595C119.330963 87.278290,115.264572 83.111221,111.710251 79.255615C107.692459 74.897278,104.296829 69.996689,100.176498 65.733963C96.114899 61.531982,91.420517 58.018997,86.577545 54.752350C81.861603 51.571396,76.895676 48.511108,73.763031 43.745026C66.827087 33.192520,70.359604 19.149872,80.521362 11.115753C92.054932 1.997040,107.879623 2.885788,122.026184 7.492813C138.414322 12.829834,153.513916 23.559753,156.276932 40.233246C158.509506 53.705780,151.099228 68.012756,157.180923 80.516464C162.146652 90.725769,174.069351 94.842209,181.366196 103.378525C192.349930 116.227997,191.459793 135.065598,181.639175 149.193512C172.885696 161.786240,157.692566 168.981537,143.880234 163.433060C129.483704 157.649918,124.685730 141.210556,119.715286 126.402588C116.781189 117.661316,113.279099 109.087250,108.374023 101.274857C105.908112 97.347351,103.069626 93.230927,103.964432 88.685684C104.779343 84.546326,108.387985 81.855621,111.710251 79.255615C117.840912 74.457748,123.450531 69.027771,128.422287 63.037125C136.415436 53.405899,143.858459 41.900986,156.276932 40.233246C169.497696 38.457764,180.725464 48.414795,186.602066 60.900177C193.486984 75.527832,193.210678 93.153458,181.366196 103.378525C173.049301 110.558319,160.510101 111.487228,153.453568 120.042343C143.578094 132.015045,150.429749 149.775543,143.880234 163.433060C135.323578 181.276001,112.678116 182.548920,92.971848 186.020157" style="stroke:rgb(0.000000%,0.000000%,0.000000%); stroke-width: 0.498138;stroke-linecap: round;stroke-linejoin: round;stroke-miterlimit: 10.000000;fill: none;"></path>
  <path d="M92.971848 186.020157C70.991562 189.891953,49.855530 175.784119,45.000000 154.000000" style="stroke:rgb(0.000000%,0.000000%,0.000000%); stroke-width: 1.494400;stroke-linecap: round;stroke-linejoin: round;stroke-miterlimit: 10.000000;fill: none;"></path>
  <path d="M181.366196 103.378525C173.049301 110.558319,160.510101 111.487228,153.453568 120.042343C143.578094 132.015045,150.429749 149.775543,143.880234 163.433060C135.323578 181.276001,112.678116 182.548920,92.971848 186.020157" style="stroke:rgb(0.000000%,0.000000%,0.000000%); stroke-width: 1.494400;stroke-linecap: round;stroke-linejoin: round;stroke-miterlimit: 10.000000;fill: none;"></path>
  <path d="M47.988739 154.000000C47.988739 153.207306,47.673798 152.447159,47.113312 151.886688C46.552841 151.326202,45.792694 151.011261,45.000000 151.011261C44.207306 151.011261,43.447159 151.326202,42.886688 151.886688C42.326202 152.447159,42.011261 153.207306,42.011261 154.000000C42.011261 154.792694,42.326202 155.552841,42.886688 156.113312C43.447159 156.673798,44.207306 156.988739,45.000000 156.988739C45.792694 156.988739,46.552841 156.673798,47.113312 156.113312C47.673798 155.552841,47.988739 154.792694,47.988739 154.000000Z" style="fill: rgb(100.000000%,100.000000%,100.000000%);stroke: none;"></path>
  <path d="M21.927216 145.004776C28.173416 151.273010,35.956314 154.979645,45.000000 154.000000C51.834549 153.259659,57.502457 149.827896,62.041061 144.918488" style="stroke:rgb(0.000000%,0.000000%,0.000000%); stroke-width: 0.498138;stroke-linecap: round;stroke-linejoin: round;stroke-miterlimit: 10.000000;fill: none;"></path>
  <path d="M20.923706 69.898682C20.923706 69.105988,20.608765 68.345840,20.048279 67.785370C19.487808 67.224884,18.727661 66.909943,17.934967 66.909943C17.142273 66.909943,16.382126 67.224884,15.821655 67.785370C15.261169 68.345840,14.946228 69.105988,14.946228 69.898682C14.946228 70.691376,15.261169 71.451523,15.821655 72.011993C16.382126 72.572479,17.142273 72.887421,17.934967 72.887421C18.727661 72.887421,19.487808 72.572479,20.048279 72.011993C20.608765 71.451523,20.923706 70.691376,20.923706 69.898682Z" style="fill: rgb(100.000000%,100.000000%,100.000000%);stroke: none;"></path>
  <path d="M22.249023 83.620605C19.744141 79.743683,18.314301 74.855423,17.934967 69.898682C17.249832 60.946442,19.254059 52.348358,23.071426 44.441757" style="stroke:rgb(0.000000%,0.000000%,0.000000%); stroke-width: 0.498138;stroke-linecap: round;stroke-linejoin: round;stroke-miterlimit: 10.000000;fill: none;"></path>
  <path d="M82.651535 104.849396C82.651535 104.056702,82.336594 103.296555,81.776108 102.736084C81.215637 102.175598,80.455490 101.860657,79.662796 101.860657C78.870102 101.860657,78.109955 102.175598,77.549484 102.736084C76.988998 103.296555,76.674057 104.056702,76.674057 104.849396C76.674057 105.642090,76.988998 106.402237,77.549484 106.962708C78.109955 107.523193,78.870102 107.838135,79.662796 107.838135C80.455490 107.838135,81.215637 107.523193,81.776108 106.962708C82.336594 106.402237,82.651535 105.642090,82.651535 104.849396Z" style="fill: rgb(100.000000%,100.000000%,100.000000%);stroke: none;"></path>
  <path d="M75.040070 103.256973C76.474319 103.945679,78.103897 104.393112,79.662796 104.849396C82.025421 105.540939,84.381866 106.378845,86.761948 106.979126" style="stroke:rgb(0.000000%,0.000000%,0.000000%); stroke-width: 0.498138;stroke-linecap: round;stroke-linejoin: round;stroke-miterlimit: 10.000000;fill: none;"></path>
  <path d="M47.988739 89.760635C47.988739 88.967941,47.673798 88.207794,47.113312 87.647324C46.552841 87.086838,45.792694 86.771896,45.000000 86.771896C44.207306 86.771896,43.447159 87.086838,42.886688 87.647324C42.326202 88.207794,42.011261 88.967941,42.011261 89.760635C42.011261 90.553329,42.326202 91.313477,42.886688 91.873947C43.447159 92.434433,44.207306 92.749374,45.000000 92.749374C45.792694 92.749374,46.552841 92.434433,47.113312 91.873947C47.673798 91.313477,47.988739 90.553329,47.988739 89.760635Z" style="fill: rgb(100.000000%,100.000000%,100.000000%);stroke: none;"></path>
  <path d="M45.639282 100.954132C45.274384 97.228973,44.936615 93.503647,45.000000 89.760635C45.053665 86.592117,45.350372 83.316788,45.170837 80.186356" style="stroke:rgb(0.000000%,0.000000%,0.000000%); stroke-width: 0.498138;stroke-linecap: round;stroke-linejoin: round;stroke-miterlimit: 10.000000;fill: none;"></path>
  <path d="M83.510101 11.115753C83.510101 10.323059,83.195160 9.562912,82.634674 9.002441C82.074203 8.441956,81.314056 8.127014,80.521362 8.127014C79.728668 8.127014,78.968521 8.441956,78.408051 9.002441C77.847565 9.562912,77.532623 10.323059,77.532623 11.115753C77.532623 11.908447,77.847565 12.668594,78.408051 13.229065C78.968521 13.789551,79.728668 14.104492,80.521362 14.104492C81.314056 14.104492,82.074203 13.789551,82.634674 13.229065C83.195160 12.668594,83.510101 11.908447,83.510101 11.115753Z" style="fill: rgb(100.000000%,100.000000%,100.000000%);stroke: none;"></path>
  <path d="M70.730560 26.485977C72.016922 20.651993,75.440491 15.132812,80.521362 11.115753C86.288147 6.556396,93.127716 4.498901,100.293915 4.157135" style="stroke:rgb(0.000000%,0.000000%,0.000000%); stroke-width: 0.498138;stroke-linecap: round;stroke-linejoin: round;stroke-miterlimit: 10.000000;fill: none;"></path>
  <path d="M76.059570 89.229248C76.059570 88.436554,75.744629 87.676407,75.184143 87.115936C74.623672 86.555450,73.863525 86.240509,73.070831 86.240509C72.278137 86.240509,71.517990 86.555450,70.957520 87.115936C70.397034 87.676407,70.082092 88.436554,70.082092 89.229248C70.082092 90.021942,70.397034 90.782089,70.957520 91.342560C71.517990 91.903046,72.278137 92.217987,73.070831 92.217987C73.863525 92.217987,74.623672 91.903046,75.184143 91.342560C75.744629 90.782089,76.059570 90.021942,76.059570 89.229248Z" style="fill: rgb(100.000000%,100.000000%,100.000000%);stroke: none;"></path>
  <path d="M77.757080 90.480820C76.290344 89.901596,74.643875 89.575836,73.070831 89.229248C70.818863 88.733078,68.589996 88.086166,66.346603 87.556442" style="stroke:rgb(0.000000%,0.000000%,0.000000%); stroke-width: 0.498138;stroke-linecap: round;stroke-linejoin: round;stroke-miterlimit: 10.000000;fill: none;"></path>
  <path d="M111.362762 101.274857C111.362762 100.482162,111.047821 99.722015,110.487335 99.161545C109.926865 98.601059,109.166718 98.286118,108.374023 98.286118C107.581329 98.286118,106.821182 98.601059,106.260712 99.161545C105.700226 99.722015,105.385284 100.482162,105.385284 101.274857C105.385284 102.067551,105.700226 102.827698,106.260712 103.388168C106.821182 103.948654,107.581329 104.263596,108.374023 104.263596C109.166718 104.263596,109.926865 103.948654,110.487335 103.388168C111.047821 102.827698,111.362762 102.067551,111.362762 101.274857Z" style="fill: rgb(100.000000%,100.000000%,100.000000%);stroke: none;"></path>
  <path d="M114.783752 113.490387C112.928345 109.277664,110.826553 105.181046,108.374023 101.274857C107.141068 99.311096,105.814957 97.300110,104.908951 95.211914" style="stroke:rgb(0.000000%,0.000000%,0.000000%); stroke-width: 0.498138;stroke-linecap: round;stroke-linejoin: round;stroke-miterlimit: 10.000000;fill: none;"></path>
  <path d="M89.566284 54.752350C89.566284 53.959656,89.251343 53.199509,88.690857 52.639038C88.130386 52.078552,87.370239 51.763611,86.577545 51.763611C85.784851 51.763611,85.024704 52.078552,84.464233 52.639038C83.903748 53.199509,83.588806 53.959656,83.588806 54.752350C83.588806 55.545044,83.903748 56.305191,84.464233 56.865662C85.024704 57.426147,85.784851 57.741089,86.577545 57.741089C87.370239 57.741089,88.130386 57.426147,88.690857 56.865662C89.251343 56.305191,89.566284 55.545044,89.566284 54.752350Z" style="fill: rgb(100.000000%,100.000000%,100.000000%);stroke: none;"></path>
  <path d="M91.223969 46.992157C89.820114 49.645370,88.170975 52.198547,86.577545 54.752350C84.889023 57.458557,83.248001 60.203354,81.777786 63.028946" style="stroke:rgb(0.000000%,0.000000%,0.000000%); stroke-width: 0.498138;stroke-linecap: round;stroke-linejoin: round;stroke-miterlimit: 10.000000;fill: none;"></path>
  <path d="M159.265671 40.233246C159.265671 39.440552,158.950729 38.680405,158.390244 38.119934C157.829773 37.559448,157.069626 37.244507,156.276932 37.244507C155.484238 37.244507,154.724091 37.559448,154.163620 38.119934C153.603134 38.680405,153.288193 39.440552,153.288193 40.233246C153.288193 41.025940,153.603134 41.786087,154.163620 42.346558C154.724091 42.907043,155.484238 43.221985,156.276932 43.221985C157.069626 43.221985,157.829773 42.907043,158.390244 42.346558C158.950729 41.786087,159.265671 41.025940,159.265671 40.233246Z" style="fill: rgb(100.000000%,100.000000%,100.000000%);stroke: none;"></path>
  <path d="M140.690125 48.648865C145.102325 44.360275,150.067703 41.067108,156.276932 40.233246C162.887314 39.345505,168.999451 41.390900,174.193573 45.218903" style="stroke:rgb(0.000000%,0.000000%,0.000000%); stroke-width: 0.498138;stroke-linecap: round;stroke-linejoin: round;stroke-miterlimit: 10.000000;fill: none;"></path>
  <path d="M146.868973 163.433060C146.868973 162.640366,146.554031 161.880219,145.993546 161.319748C145.433075 160.759262,144.672928 160.444321,143.880234 160.444321C143.087540 160.444321,142.327393 160.759262,141.766922 161.319748C141.206436 161.880219,140.891495 162.640366,140.891495 163.433060C140.891495 164.225754,141.206436 164.985901,141.766922 165.546371C142.327393 166.106857,143.087540 166.421799,143.880234 166.421799C144.672928 166.421799,145.433075 166.106857,145.993546 165.546371C146.554031 164.985901,146.868973 164.225754,146.868973 163.433060Z" style="fill: rgb(100.000000%,100.000000%,100.000000%);stroke: none;"></path>
  <path d="M147.419662 141.105911C147.079453 148.749802,147.154984 156.604309,143.880234 163.433060C139.601898 172.354538,131.801361 177.133499,122.607132 180.116013" style="stroke:rgb(0.000000%,0.000000%,0.000000%); stroke-width: 1.494400;stroke-linecap: round;stroke-linejoin: round;stroke-miterlimit: 10.000000;fill: none;"></path>
  <path d="M114.698990 79.255615C114.698990 78.462921,114.384048 77.702774,113.823563 77.142303C113.263092 76.581818,112.502945 76.266876,111.710251 76.266876C110.917557 76.266876,110.157410 76.581818,109.596939 77.142303C109.036453 77.702774,108.721512 78.462921,108.721512 79.255615C108.721512 80.048309,109.036453 80.808456,109.596939 81.368927C110.157410 81.929413,110.917557 82.244354,111.710251 82.244354C112.502945 82.244354,113.263092 81.929413,113.823563 81.368927C114.384048 80.808456,114.698990 80.048309,114.698990 79.255615Z" style="fill: rgb(100.000000%,100.000000%,100.000000%);stroke: none;"></path>
  <path d="M116.712524 85.342957C115.392578 83.189072,113.487411 81.183411,111.710251 79.255615C109.701355 77.076447,107.847992 74.761703,105.981812 72.458923" style="stroke:rgb(0.000000%,0.000000%,0.000000%); stroke-width: 0.498138;stroke-linecap: round;stroke-linejoin: round;stroke-miterlimit: 10.000000;fill: none;"></path>
  <path d="M184.354935 103.378525C184.354935 102.585831,184.039993 101.825684,183.479507 101.265213C182.919037 100.704727,182.158890 100.389786,181.366196 100.389786C180.573502 100.389786,179.813354 100.704727,179.252884 101.265213C178.692398 101.825684,178.377457 102.585831,178.377457 103.378525C178.377457 104.171219,178.692398 104.931366,179.252884 105.491837C179.813354 106.052322,180.573502 106.367264,181.366196 106.367264C182.158890 106.367264,182.919037 106.052322,183.479507 105.491837C184.039993 104.931366,184.354935 104.171219,184.354935 103.378525Z" style="fill: rgb(100.000000%,100.000000%,100.000000%);stroke: none;"></path>
  <path d="M168.399399 92.574875C172.912888 95.947189,177.717773 99.110367,181.366196 103.378525C186.858063 109.803268,189.381470 117.725037,189.304321 125.806610" style="stroke:rgb(0.000000%,0.000000%,0.000000%); stroke-width: 0.498138;stroke-linecap: round;stroke-linejoin: round;stroke-miterlimit: 10.000000;fill: none;"></path>
  <path d="M153.453568 120.042343C145.553162 129.620544,148.358185 142.902954,146.442795 154.825455" style="stroke:rgb(0.000000%,0.000000%,0.000000%); stroke-width: 0.498138;stroke-linecap: round;stroke-linejoin: round;stroke-miterlimit: 10.000000;fill: none;"></path>
  <path d="M145.060120 150.020340C145.584976 151.613800,146.059784 153.214447,146.442795 154.825455C147.311157 153.415497,148.107254 151.947937,148.862915 150.450058Z" style="stroke:rgb(0.000000%,0.000000%,0.000000%); stroke-width: 0.498138;fill: rgb(0.000000%,0.000000%,0.000000%);"></path>
  <path d="M153.453568 120.042343C145.553162 129.620544,148.358185 142.902954,146.442795 154.825455" style="stroke:rgb(0.000000%,0.000000%,0.000000%); stroke-width: 0.498138;stroke-linecap: round;stroke-linejoin: round;stroke-miterlimit: 10.000000;fill: none;"></path>
  <path d="M145.661209 151.929321C145.948883 152.891418,146.212448 153.856567,146.442795 154.825455C146.965042 153.977478,147.461151 153.108643,147.938034 152.224945Z" style="stroke:rgb(0.000000%,0.000000%,0.000000%); stroke-width: 0.498138;fill: rgb(0.000000%,0.000000%,0.000000%);"></path>
  <path d="M42.484283 71.481506C38.154007 65.425766,30.215469 64.342163,23.073334 67.114212" style="stroke:rgb(0.000000%,0.000000%,0.000000%); stroke-width: 0.498138;stroke-linecap: round;stroke-linejoin: round;stroke-miterlimit: 10.000000;fill: none;"></path>
  <path d="M25.376556 65.191971C24.575790 65.771637,23.805237 66.414474,23.073334 67.114212C24.085663 67.136978,25.085068 67.227295,26.061188 67.383652Z" style="stroke:rgb(0.000000%,0.000000%,0.000000%); stroke-width: 0.498138;fill: rgb(0.000000%,0.000000%,0.000000%);"></path>
  <path d="M72.306320 126.971039C74.354462 121.092773,75.724243 114.977295,77.877823 109.153854" style="stroke:rgb(0.000000%,0.000000%,0.000000%); stroke-width: 0.498138;stroke-linecap: round;stroke-linejoin: round;stroke-miterlimit: 10.000000;fill: none;"></path>
  <path d="M78.051758 112.148682C77.976440 111.150986,77.916290 110.152817,77.877823 109.153854C77.198639 109.887405,76.535339 110.635727,75.883118 111.394470Z" style="stroke:rgb(0.000000%,0.000000%,0.000000%); stroke-width: 0.498138;fill: rgb(0.000000%,0.000000%,0.000000%);"></path>
  <path d="M81.364990 93.253281C79.998352 91.076477,77.523544 90.250809,74.977509 89.652695" style="stroke:rgb(0.000000%,0.000000%,0.000000%); stroke-width: 0.498138;stroke-linecap: round;stroke-linejoin: round;stroke-miterlimit: 10.000000;fill: none;"></path>
  <path d="M77.962540 89.352814C76.984909 89.360992,75.979599 89.488953,74.977509 89.652695C75.801865 90.245514,76.603195 90.865906,77.300247 91.551422Z" style="stroke:rgb(0.000000%,0.000000%,0.000000%); stroke-width: 0.498138;fill: rgb(0.000000%,0.000000%,0.000000%);"></path>
  <path d="M33.013367 91.274536C25.526108 89.816299,20.853821 83.355270,18.895966 75.753464" style="stroke:rgb(0.000000%,0.000000%,0.000000%); stroke-width: 0.498138;stroke-linecap: round;stroke-linejoin: round;stroke-miterlimit: 10.000000;fill: none;"></path>
  <path d="M20.814056 78.060349C20.142471 77.331039,19.502121 76.559509,18.895966 75.753464C18.754593 76.752045,18.661850 77.750381,18.621002 78.740982Z" style="stroke:rgb(0.000000%,0.000000%,0.000000%); stroke-width: 0.498138;fill: rgb(0.000000%,0.000000%,0.000000%);"></path>
  <path d="M78.002853 71.790344C76.478790 76.382950,75.659470 81.186035,74.254501 85.805389" style="stroke:rgb(0.000000%,0.000000%,0.000000%); stroke-width: 0.498138;stroke-linecap: round;stroke-linejoin: round;stroke-miterlimit: 10.000000;fill: none;"></path>
  <path d="M73.896057 82.826874C74.033783 83.818146,74.157242 84.810608,74.254501 85.805389C74.889175 85.033203,75.503662 84.244141,76.107208 83.445831Z" style="stroke:rgb(0.000000%,0.000000%,0.000000%); stroke-width: 0.498138;fill: rgb(0.000000%,0.000000%,0.000000%);"></path>
  <path d="M71.589218 100.216843C72.833435 102.491119,75.258621 103.507339,77.775238 104.290100" style="stroke:rgb(0.000000%,0.000000%,0.000000%); stroke-width: 0.498138;stroke-linecap: round;stroke-linejoin: round;stroke-miterlimit: 10.000000;fill: none;"></path>
  <path d="M74.776535 104.377914C75.753448 104.437683,76.764694 104.382492,77.775238 104.290100C76.995377 103.640854,76.241272 102.964813,75.592789 102.231766Z" style="stroke:rgb(0.000000%,0.000000%,0.000000%); stroke-width: 0.498138;fill: rgb(0.000000%,0.000000%,0.000000%);"></path>
  <path d="M118.203384 92.319595C119.105453 88.286530,116.683350 84.812988,113.858612 81.610809" style="stroke:rgb(0.000000%,0.000000%,0.000000%); stroke-width: 0.498138;stroke-linecap: round;stroke-linejoin: round;stroke-miterlimit: 10.000000;fill: none;"></path>
  <path d="M116.501816 83.029907C115.658630 82.521973,114.766129 82.055069,113.858612 81.610809C114.186172 82.566666,114.487091 83.527924,114.724136 84.483307Z" style="stroke:rgb(0.000000%,0.000000%,0.000000%); stroke-width: 0.498138;fill: rgb(0.000000%,0.000000%,0.000000%);"></path>
  <path d="M73.763031 43.745026C68.214249 35.302994,69.365341 24.627243,75.250595 16.581161" style="stroke:rgb(0.000000%,0.000000%,0.000000%); stroke-width: 0.498138;stroke-linecap: round;stroke-linejoin: round;stroke-miterlimit: 10.000000;fill: none;"></path>
  <path d="M74.700592 19.530289C74.829041 18.544540,75.012360 17.559708,75.250595 16.581161C74.390198 17.104630,73.564178 17.671371,72.776306 18.277542Z" style="stroke:rgb(0.000000%,0.000000%,0.000000%); stroke-width: 0.498138;fill: rgb(0.000000%,0.000000%,0.000000%);"></path>
  <path d="M157.180923 80.516464C161.153519 88.683945,169.578613 92.951950,176.525726 98.703094" style="stroke:rgb(0.000000%,0.000000%,0.000000%); stroke-width: 0.498138;stroke-linecap: round;stroke-linejoin: round;stroke-miterlimit: 10.000000;fill: none;"></path>
  <path d="M173.639755 97.883118C174.608429 98.139267,175.571960 98.409332,176.525726 98.703094C176.059052 97.820953,175.568695 96.948654,175.064896 96.082550Z" style="stroke:rgb(0.000000%,0.000000%,0.000000%); stroke-width: 0.498138;fill: rgb(0.000000%,0.000000%,0.000000%);"></path>
  <path d="M103.964432 88.685684C104.616364 85.374191,107.056305 82.989838,109.707199 80.837341" style="stroke:rgb(0.000000%,0.000000%,0.000000%); stroke-width: 0.498138;stroke-linecap: round;stroke-linejoin: round;stroke-miterlimit: 10.000000;fill: none;"></path>
  <path d="M108.386932 83.531204C108.772827 82.620972,109.227676 81.723358,109.707199 80.837341C108.741623 81.124756,107.785278 81.437836,106.868774 81.808578Z" style="stroke:rgb(0.000000%,0.000000%,0.000000%); stroke-width: 0.498138;fill: rgb(0.000000%,0.000000%,0.000000%);"></path>
  <path d="M128.422287 63.037125C134.816833 55.332108,140.859283 46.427933,149.378784 42.320618" style="stroke:rgb(0.000000%,0.000000%,0.000000%); stroke-width: 0.498138;stroke-linecap: round;stroke-linejoin: round;stroke-miterlimit: 10.000000;fill: none;"></path>
  <path d="M147.513306 44.669907C148.092911 43.851379,148.712784 43.066528,149.378784 42.320618C148.380417 42.377106,147.387100 42.493744,146.398499 42.662674Z" style="stroke:rgb(0.000000%,0.000000%,0.000000%); stroke-width: 0.498138;fill: rgb(0.000000%,0.000000%,0.000000%);"></path>
  <path d="M89.981201 188.730362L95.962494 188.730362L95.962494 181.309967L89.981201 181.309967Z" style="fill: rgb(100.000000%,100.000000%,100.000000%);stroke: none;"></path>
  <path d="M89.981201 190.730362L95.962494 190.730362L95.962494 183.309967L89.981201 183.309967Z" style="fill: rgb(100.000000%,100.000000%,100.000000%);stroke: none;"></path>
  <g transform="translate(90.481201 189.230362)" style="fill: rgb(0.000000%,0.000000%,0.000000%);">
    <use xlink:href="#GLYPHcmr10_49"></use>
  </g>
  <path d="M43.450714 114.856903L49.432007 114.856903L49.432007 107.436508L43.450714 107.436508Z" style="fill: rgb(100.000000%,100.000000%,100.000000%);stroke: none;"></path>
  <path d="M43.450714 116.856903L49.432007 116.856903L49.432007 109.436508L43.450714 109.436508Z" style="fill: rgb(100.000000%,100.000000%,100.000000%);stroke: none;"></path>
  <g transform="translate(43.950714 115.356903)" style="fill: rgb(0.000000%,0.000000%,0.000000%);">
    <use xlink:href="#GLYPHcmr10_50"></use>
  </g>
  <path d="M5.083878 123.350098L11.065170 123.350098L11.065170 115.929703L5.083878 115.929703Z" style="fill: rgb(100.000000%,100.000000%,100.000000%);stroke: none;"></path>
  <path d="M5.083878 125.350098L11.065170 125.350098L11.065170 117.929703L5.083878 117.929703Z" style="fill: rgb(100.000000%,100.000000%,100.000000%);stroke: none;"></path>
  <g transform="translate(5.583878 123.850098)" style="fill: rgb(0.000000%,0.000000%,0.000000%);">
    <use xlink:href="#GLYPHcmr10_51"></use>
  </g>
  <path d="M56.544586 89.297012L62.525879 89.297012L62.525879 81.876617L56.544586 81.876617Z" style="fill: rgb(100.000000%,100.000000%,100.000000%);stroke: none;"></path>
  <path d="M56.544586 91.297012L62.525879 91.297012L62.525879 83.876617L56.544586 83.876617Z" style="fill: rgb(100.000000%,100.000000%,100.000000%);stroke: none;"></path>
  <g transform="translate(57.044586 89.797012)" style="fill: rgb(0.000000%,0.000000%,0.000000%);">
    <use xlink:href="#GLYPHcmr10_52"></use>
  </g>
  <path d="M36.096039 25.843887L42.077332 25.843887L42.077332 18.423492L36.096039 18.423492Z" style="fill: rgb(100.000000%,100.000000%,100.000000%);stroke: none;"></path>
  <path d="M36.096039 27.843887L42.077332 27.843887L42.077332 20.423492L36.096039 20.423492Z" style="fill: rgb(100.000000%,100.000000%,100.000000%);stroke: none;"></path>
  <g transform="translate(36.596039 26.343887)" style="fill: rgb(0.000000%,0.000000%,0.000000%);">
    <use xlink:href="#GLYPHcmr10_53"></use>
  </g>
  <path d="M91.408035 41.341888L97.389328 41.341888L97.389328 33.921494L91.408035 33.921494Z" style="fill: rgb(100.000000%,100.000000%,100.000000%);stroke: none;"></path>
  <path d="M91.408035 43.341888L97.389328 43.341888L97.389328 35.921494L91.408035 35.921494Z" style="fill: rgb(100.000000%,100.000000%,100.000000%);stroke: none;"></path>
  <g transform="translate(91.908035 41.841888)" style="fill: rgb(0.000000%,0.000000%,0.000000%);">
    <use xlink:href="#GLYPHcmr10_54"></use>
  </g>
  <path d="M91.012314 110.393311L96.993607 110.393311L96.993607 102.972916L91.012314 102.972916Z" style="fill: rgb(100.000000%,100.000000%,100.000000%);stroke: none;"></path>
  <path d="M91.012314 112.393311L96.993607 112.393311L96.993607 104.972916L91.012314 104.972916Z" style="fill: rgb(100.000000%,100.000000%,100.000000%);stroke: none;"></path>
  <g transform="translate(91.512314 110.893311)" style="fill: rgb(0.000000%,0.000000%,0.000000%);">
    <use xlink:href="#GLYPHcmr10_55"></use>
  </g>
  <path d="M97.185852 68.444168L103.167145 68.444168L103.167145 61.023773L97.185852 61.023773Z" style="fill: rgb(100.000000%,100.000000%,100.000000%);stroke: none;"></path>
  <path d="M97.185852 70.444168L103.167145 70.444168L103.167145 63.023773L97.185852 63.023773Z" style="fill: rgb(100.000000%,100.000000%,100.000000%);stroke: none;"></path>
  <g transform="translate(97.685852 68.944168)" style="fill: rgb(0.000000%,0.000000%,0.000000%);">
    <use xlink:href="#GLYPHcmr10_56"></use>
  </g>
  <path d="M119.035538 10.203018L125.016830 10.203018L125.016830 2.782623L119.035538 2.782623Z" style="fill: rgb(100.000000%,100.000000%,100.000000%);stroke: none;"></path>
  <path d="M119.035538 12.203018L125.016830 12.203018L125.016830 4.782623L119.035538 4.782623Z" style="fill: rgb(100.000000%,100.000000%,100.000000%);stroke: none;"></path>
  <g transform="translate(119.535538 10.703018)" style="fill: rgb(0.000000%,0.000000%,0.000000%);">
    <use xlink:href="#GLYPHcmr10_57"></use>
  </g>
  <path d="M176.157822 151.903717L187.120529 151.903717L187.120529 144.483322L176.157822 144.483322Z" style="fill: rgb(100.000000%,100.000000%,100.000000%);stroke: none;"></path>
  <path d="M176.157822 153.903717L187.120529 153.903717L187.120529 146.483322L176.157822 146.483322Z" style="fill: rgb(100.000000%,100.000000%,100.000000%);stroke: none;"></path>
  <g transform="translate(176.657822 152.403717)" style="fill: rgb(0.000000%,0.000000%,0.000000%);">
    <use xlink:href="#GLYPHcmr10_49"></use>
    <use xlink:href="#GLYPHcmr10_48" x="5.000095"></use>
  </g>
  <path d="M114.233932 129.112793L125.196640 129.112793L125.196640 121.692398L114.233932 121.692398Z" style="fill: rgb(100.000000%,100.000000%,100.000000%);stroke: none;"></path>
  <path d="M114.233932 131.112793L125.196640 131.112793L125.196640 123.692398L114.233932 123.692398Z" style="fill: rgb(100.000000%,100.000000%,100.000000%);stroke: none;"></path>
  <g transform="translate(114.733932 129.612793)" style="fill: rgb(0.000000%,0.000000%,0.000000%);">
    <use xlink:href="#GLYPHcmr10_49"></use>
    <use xlink:href="#GLYPHcmr10_49" x="5.000095"></use>
  </g>
  <path d="M181.120712 63.610382L192.083420 63.610382L192.083420 56.189987L181.120712 56.189987Z" style="fill: rgb(100.000000%,100.000000%,100.000000%);stroke: none;"></path>
  <path d="M181.120712 65.610382L192.083420 65.610382L192.083420 58.189987L181.120712 58.189987Z" style="fill: rgb(100.000000%,100.000000%,100.000000%);stroke: none;"></path>
  <g transform="translate(181.620712 64.110382)" style="fill: rgb(0.000000%,0.000000%,0.000000%);">
    <use xlink:href="#GLYPHcmr10_49"></use>
    <use xlink:href="#GLYPHcmr10_50" x="5.000095"></use>
  </g>
</svg>
