<?xml version="1.0"?>
<!-- Created by MetaPost 1.999 on 2021.07.06:0017 -->
<svg version="1.1" xmlns="http://www.w3.org/2000/svg" xmlns:xlink="http://www.w3.org/1999/xlink" width="196.347595" height="195.051834" viewBox="0 0 196.347595 195.051834">
<!-- Original BoundingBox: -44.673660 -43.476349 151.673935 151.575485 -->
  <defs>
    <g transform="scale(0.009963,0.009963)" id="GLYPHcmr10_48">
      <path style="fill-rule: evenodd;" d="M460.000000 -320.000000C460.000000 -400.000000,455.000000 -480.000000,420.000000 -554.000000C374.000000 -650.000000,292.000000 -666.000000,250.000000 -666.000000C190.000000 -666.000000,117.000000 -640.000000,76.000000 -547.000000C44.000000 -478.000000,39.000000 -400.000000,39.000000 -320.000000C39.000000 -245.000000,43.000000 -155.000000,84.000000 -79.000000C127.000000 2.000000,200.000000 22.000000,249.000000 22.000000C303.000000 22.000000,379.000000 1.000000,423.000000 -94.000000C455.000000 -163.000000,460.000000 -241.000000,460.000000 -320.000000M249.000000 -0.000000C210.000000 -0.000000,151.000000 -25.000000,133.000000 -121.000000C122.000000 -181.000000,122.000000 -273.000000,122.000000 -332.000000C122.000000 -396.000000,122.000000 -462.000000,130.000000 -516.000000C149.000000 -635.000000,224.000000 -644.000000,249.000000 -644.000000C282.000000 -644.000000,348.000000 -626.000000,367.000000 -527.000000C377.000000 -471.000000,377.000000 -395.000000,377.000000 -332.000000C377.000000 -257.000000,377.000000 -189.000000,366.000000 -125.000000C351.000000 -30.000000,294.000000 -0.000000,249.000000 -0.000000"></path>
    </g>
    <g transform="scale(0.009963,0.009963)" id="GLYPHcmr10_49">
      <path style="fill-rule: evenodd;" d="M294.000000 -640.000000C294.000000 -664.000000,294.000000 -666.000000,271.000000 -666.000000C209.000000 -602.000000,121.000000 -602.000000,89.000000 -602.000000L89.000000 -571.000000C109.000000 -571.000000,168.000000 -571.000000,220.000000 -597.000000L220.000000 -79.000000C220.000000 -43.000000,217.000000 -31.000000,127.000000 -31.000000L95.000000 -31.000000L95.000000 -0.000000L257.000000 -0.000000L130.000000 -3.000000L217.000000 -3.000000L257.000000 -3.000000L297.000000 -3.000000L384.000000 -3.000000L419.000000 -0.000000L419.000000 -31.000000L387.000000 -31.000000C297.000000 -31.000000,294.000000 -42.000000,294.000000 -79.000000"></path>
    </g>
    <g transform="scale(0.009963,0.009963)" id="GLYPHcmr10_50">
      <path style="fill-rule: evenodd;" d="M127.000000 -77.000000L233.000000 -180.000000C389.000000 -318.000000,449.000000 -372.000000,449.000000 -472.000000C449.000000 -586.000000,359.000000 -666.000000,237.000000 -666.000000C124.000000 -666.000000,50.000000 -574.000000,50.000000 -485.000000C50.000000 -429.000000,100.000000 -429.000000,103.000000 -429.000000C120.000000 -429.000000,155.000000 -441.000000,155.000000 -482.000000C155.000000 -508.000000,137.000000 -534.000000,102.000000 -534.000000C94.000000 -534.000000,92.000000 -534.000000,89.000000 -533.000000C112.000000 -598.000000,166.000000 -635.000000,224.000000 -635.000000C315.000000 -635.000000,358.000000 -554.000000,358.000000 -472.000000C358.000000 -392.000000,308.000000 -313.000000,253.000000 -251.000000L61.000000 -37.000000C50.000000 -26.000000,50.000000 -24.000000,50.000000 -0.000000L421.000000 -0.000000L449.000000 -174.000000L424.000000 -174.000000C419.000000 -144.000000,412.000000 -100.000000,402.000000 -85.000000C395.000000 -77.000000,329.000000 -77.000000,307.000000 -77.000000"></path>
    </g>
    <g transform="scale(0.009963,0.009963)" id="GLYPHcmr10_51">
      <path style="fill-rule: evenodd;" d="M290.000000 -352.000000C372.000000 -379.000000,430.000000 -449.000000,430.000000 -528.000000C430.000000 -610.000000,342.000000 -666.000000,246.000000 -666.000000C145.000000 -666.000000,69.000000 -606.000000,69.000000 -530.000000C69.000000 -497.000000,91.000000 -478.000000,120.000000 -478.000000C151.000000 -478.000000,171.000000 -500.000000,171.000000 -529.000000C171.000000 -579.000000,124.000000 -579.000000,109.000000 -579.000000C140.000000 -628.000000,206.000000 -641.000000,242.000000 -641.000000C283.000000 -641.000000,338.000000 -619.000000,338.000000 -529.000000C338.000000 -517.000000,336.000000 -459.000000,310.000000 -415.000000C280.000000 -367.000000,246.000000 -364.000000,221.000000 -363.000000C213.000000 -362.000000,189.000000 -360.000000,182.000000 -360.000000C174.000000 -359.000000,167.000000 -358.000000,167.000000 -348.000000C167.000000 -337.000000,174.000000 -337.000000,191.000000 -337.000000L235.000000 -337.000000C317.000000 -337.000000,354.000000 -269.000000,354.000000 -171.000000C354.000000 -35.000000,285.000000 -6.000000,241.000000 -6.000000C198.000000 -6.000000,123.000000 -23.000000,88.000000 -82.000000C123.000000 -77.000000,154.000000 -99.000000,154.000000 -137.000000C154.000000 -173.000000,127.000000 -193.000000,98.000000 -193.000000C74.000000 -193.000000,42.000000 -179.000000,42.000000 -135.000000C42.000000 -44.000000,135.000000 22.000000,244.000000 22.000000C366.000000 22.000000,457.000000 -69.000000,457.000000 -171.000000C457.000000 -253.000000,394.000000 -331.000000,290.000000 -352.000000"></path>
    </g>
    <g transform="scale(0.009963,0.009963)" id="GLYPHcmr10_52">
      <path style="fill-rule: evenodd;" d="M294.000000 -165.000000L294.000000 -78.000000C294.000000 -42.000000,292.000000 -31.000000,218.000000 -31.000000L197.000000 -31.000000L197.000000 -0.000000L332.000000 -0.000000L238.000000 -3.000000L290.000000 -3.000000L332.000000 -3.000000L374.000000 -3.000000L427.000000 -3.000000L468.000000 -0.000000L468.000000 -31.000000L447.000000 -31.000000C373.000000 -31.000000,371.000000 -42.000000,371.000000 -78.000000L371.000000 -165.000000L471.000000 -165.000000L471.000000 -196.000000L371.000000 -196.000000L371.000000 -651.000000C371.000000 -671.000000,371.000000 -677.000000,355.000000 -677.000000C346.000000 -677.000000,343.000000 -677.000000,335.000000 -665.000000L28.000000 -196.000000L28.000000 -165.000000M300.000000 -196.000000L56.000000 -196.000000L300.000000 -569.000000"></path>
    </g>
    <g transform="scale(0.009963,0.009963)" id="GLYPHcmr10_53">
      <path style="fill-rule: evenodd;" d="M449.000000 -201.000000C449.000000 -320.000000,367.000000 -420.000000,259.000000 -420.000000C211.000000 -420.000000,168.000000 -404.000000,132.000000 -369.000000L132.000000 -564.000000C152.000000 -558.000000,185.000000 -551.000000,217.000000 -551.000000C340.000000 -551.000000,410.000000 -642.000000,410.000000 -655.000000C410.000000 -661.000000,407.000000 -666.000000,400.000000 -666.000000C399.000000 -666.000000,397.000000 -666.000000,392.000000 -663.000000C372.000000 -654.000000,323.000000 -634.000000,256.000000 -634.000000C216.000000 -634.000000,170.000000 -641.000000,123.000000 -662.000000C115.000000 -665.000000,113.000000 -665.000000,111.000000 -665.000000C101.000000 -665.000000,101.000000 -657.000000,101.000000 -641.000000L101.000000 -345.000000C101.000000 -327.000000,101.000000 -319.000000,115.000000 -319.000000C122.000000 -319.000000,124.000000 -322.000000,128.000000 -328.000000C139.000000 -344.000000,176.000000 -398.000000,257.000000 -398.000000C309.000000 -398.000000,334.000000 -352.000000,342.000000 -334.000000C358.000000 -297.000000,360.000000 -258.000000,360.000000 -208.000000C360.000000 -173.000000,360.000000 -113.000000,336.000000 -71.000000C312.000000 -32.000000,275.000000 -6.000000,229.000000 -6.000000C156.000000 -6.000000,99.000000 -59.000000,82.000000 -118.000000C85.000000 -117.000000,88.000000 -116.000000,99.000000 -116.000000C132.000000 -116.000000,149.000000 -141.000000,149.000000 -165.000000C149.000000 -189.000000,132.000000 -214.000000,99.000000 -214.000000C85.000000 -214.000000,50.000000 -207.000000,50.000000 -161.000000C50.000000 -75.000000,119.000000 22.000000,231.000000 22.000000C347.000000 22.000000,449.000000 -74.000000,449.000000 -201.000000"></path>
    </g>
    <g transform="scale(0.009963,0.009963)" id="GLYPHcmr10_54">
      <path style="fill-rule: evenodd;" d="M132.000000 -328.000000L132.000000 -352.000000C132.000000 -605.000000,256.000000 -641.000000,307.000000 -641.000000C331.000000 -641.000000,373.000000 -635.000000,395.000000 -601.000000C380.000000 -601.000000,340.000000 -601.000000,340.000000 -556.000000C340.000000 -525.000000,364.000000 -510.000000,386.000000 -510.000000C402.000000 -510.000000,432.000000 -519.000000,432.000000 -558.000000C432.000000 -618.000000,388.000000 -666.000000,305.000000 -666.000000C177.000000 -666.000000,42.000000 -537.000000,42.000000 -316.000000C42.000000 -49.000000,158.000000 22.000000,251.000000 22.000000C362.000000 22.000000,457.000000 -72.000000,457.000000 -204.000000C457.000000 -331.000000,368.000000 -427.000000,257.000000 -427.000000C189.000000 -427.000000,152.000000 -376.000000,132.000000 -328.000000M251.000000 -6.000000C188.000000 -6.000000,158.000000 -66.000000,152.000000 -81.000000C134.000000 -128.000000,134.000000 -208.000000,134.000000 -226.000000C134.000000 -304.000000,166.000000 -404.000000,256.000000 -404.000000C272.000000 -404.000000,318.000000 -404.000000,349.000000 -342.000000C367.000000 -305.000000,367.000000 -254.000000,367.000000 -205.000000C367.000000 -157.000000,367.000000 -107.000000,350.000000 -71.000000C320.000000 -11.000000,274.000000 -6.000000,251.000000 -6.000000"></path>
    </g>
    <g transform="scale(0.009963,0.009963)" id="GLYPHcmr10_55">
      <path style="fill-rule: evenodd;" d="M476.000000 -609.000000C485.000000 -621.000000,485.000000 -623.000000,485.000000 -644.000000L242.000000 -644.000000C120.000000 -644.000000,118.000000 -657.000000,114.000000 -676.000000L89.000000 -676.000000L56.000000 -470.000000L81.000000 -470.000000C84.000000 -486.000000,93.000000 -549.000000,106.000000 -561.000000C113.000000 -567.000000,191.000000 -567.000000,204.000000 -567.000000L411.000000 -567.000000C400.000000 -551.000000,321.000000 -442.000000,299.000000 -409.000000C209.000000 -274.000000,176.000000 -135.000000,176.000000 -33.000000C176.000000 -23.000000,176.000000 22.000000,222.000000 22.000000C268.000000 22.000000,268.000000 -23.000000,268.000000 -33.000000L268.000000 -84.000000C268.000000 -139.000000,271.000000 -194.000000,279.000000 -248.000000C283.000000 -271.000000,297.000000 -357.000000,341.000000 -419.000000"></path>
    </g>
    <g transform="scale(0.009963,0.009963)" id="GLYPHcmr10_56">
      <path style="fill-rule: evenodd;" d="M163.000000 -457.000000C117.000000 -487.000000,113.000000 -521.000000,113.000000 -538.000000C113.000000 -599.000000,178.000000 -641.000000,249.000000 -641.000000C322.000000 -641.000000,386.000000 -589.000000,386.000000 -517.000000C386.000000 -460.000000,347.000000 -412.000000,287.000000 -377.000000M309.000000 -362.000000C381.000000 -399.000000,430.000000 -451.000000,430.000000 -517.000000C430.000000 -609.000000,341.000000 -666.000000,250.000000 -666.000000C150.000000 -666.000000,69.000000 -592.000000,69.000000 -499.000000C69.000000 -481.000000,71.000000 -436.000000,113.000000 -389.000000C124.000000 -377.000000,161.000000 -352.000000,186.000000 -335.000000C128.000000 -306.000000,42.000000 -250.000000,42.000000 -151.000000C42.000000 -45.000000,144.000000 22.000000,249.000000 22.000000C362.000000 22.000000,457.000000 -61.000000,457.000000 -168.000000C457.000000 -204.000000,446.000000 -249.000000,408.000000 -291.000000C389.000000 -312.000000,373.000000 -322.000000,309.000000 -362.000000M209.000000 -320.000000L332.000000 -242.000000C360.000000 -223.000000,407.000000 -193.000000,407.000000 -132.000000C407.000000 -58.000000,332.000000 -6.000000,250.000000 -6.000000C164.000000 -6.000000,92.000000 -68.000000,92.000000 -151.000000C92.000000 -209.000000,124.000000 -273.000000,209.000000 -320.000000"></path>
    </g>
    <g transform="scale(0.009963,0.009963)" id="GLYPHcmr10_57">
      <path style="fill-rule: evenodd;" d="M367.000000 -318.000000L367.000000 -286.000000C367.000000 -52.000000,263.000000 -6.000000,205.000000 -6.000000C188.000000 -6.000000,134.000000 -8.000000,107.000000 -42.000000C151.000000 -42.000000,159.000000 -71.000000,159.000000 -88.000000C159.000000 -119.000000,135.000000 -134.000000,113.000000 -134.000000C97.000000 -134.000000,67.000000 -125.000000,67.000000 -86.000000C67.000000 -19.000000,121.000000 22.000000,206.000000 22.000000C335.000000 22.000000,457.000000 -114.000000,457.000000 -329.000000C457.000000 -598.000000,342.000000 -666.000000,253.000000 -666.000000C198.000000 -666.000000,149.000000 -648.000000,106.000000 -603.000000C65.000000 -558.000000,42.000000 -516.000000,42.000000 -441.000000C42.000000 -316.000000,130.000000 -218.000000,242.000000 -218.000000C303.000000 -218.000000,344.000000 -260.000000,367.000000 -318.000000M243.000000 -241.000000C227.000000 -241.000000,181.000000 -241.000000,150.000000 -304.000000C132.000000 -341.000000,132.000000 -391.000000,132.000000 -440.000000C132.000000 -494.000000,132.000000 -541.000000,153.000000 -578.000000C180.000000 -628.000000,218.000000 -641.000000,253.000000 -641.000000C299.000000 -641.000000,332.000000 -607.000000,349.000000 -562.000000C361.000000 -530.000000,365.000000 -467.000000,365.000000 -421.000000C365.000000 -338.000000,331.000000 -241.000000,243.000000 -241.000000"></path>
    </g>
  </defs>
  <path d="M70.201797 189.716080C70.201797 188.923386,69.886856 188.163239,69.326370 187.602768C68.765900 187.042282,68.005753 186.727341,67.213058 186.727341C66.420364 186.727341,65.660217 187.042282,65.099747 187.602768C64.539261 188.163239,64.224319 188.923386,64.224319 189.716080C64.224319 190.508774,64.539261 191.268921,65.099747 191.829391C65.660217 192.389877,66.420364 192.704819,67.213058 192.704819C68.005753 192.704819,68.765900 192.389877,69.326370 191.829391C69.886856 191.268921,70.201797 190.508774,70.201797 189.716080Z" style="fill: rgb(100.000000%,100.000000%,100.000000%);stroke: none;"></path>
  <path d="M92.889999 189.766144C92.889999 188.973450,92.575058 188.213303,92.014572 187.652832C91.454102 187.092346,90.693954 186.777405,89.901260 186.777405C89.108566 186.777405,88.348419 187.092346,87.787949 187.652832C87.227463 188.213303,86.912521 188.973450,86.912521 189.766144C86.912521 190.558838,87.227463 191.318985,87.787949 191.879456C88.348419 192.439941,89.108566 192.754883,89.901260 192.754883C90.693954 192.754883,91.454102 192.439941,92.014572 191.879456C92.575058 191.318985,92.889999 190.558838,92.889999 189.766144Z" style="fill: rgb(100.000000%,100.000000%,100.000000%);stroke: none;"></path>
  <path d="M44.386185 135.870743C44.386185 135.078049,44.071243 134.317902,43.510757 133.757431C42.950287 133.196945,42.190140 132.882004,41.397446 132.882004C40.604752 132.882004,39.844604 133.196945,39.284134 133.757431C38.723648 134.317902,38.408707 135.078049,38.408707 135.870743C38.408707 136.663437,38.723648 137.423584,39.284134 137.984055C39.844604 138.544540,40.604752 138.859482,41.397446 138.859482C42.190140 138.859482,42.950287 138.544540,43.510757 137.984055C44.071243 137.423584,44.386185 136.663437,44.386185 135.870743Z" style="fill: rgb(100.000000%,100.000000%,100.000000%);stroke: none;"></path>
  <path d="M50.835098 173.359833C50.835098 172.567139,50.520157 171.806992,49.959671 171.246521C49.399200 170.686035,48.639053 170.371094,47.846359 170.371094C47.053665 170.371094,46.293518 170.686035,45.733047 171.246521C45.172562 171.806992,44.857620 172.567139,44.857620 173.359833C44.857620 174.152527,45.172562 174.912674,45.733047 175.473145C46.293518 176.033630,47.053665 176.348572,47.846359 176.348572C48.639053 176.348572,49.399200 176.033630,49.959671 175.473145C50.520157 174.912674,50.835098 174.152527,50.835098 173.359833Z" style="fill: rgb(100.000000%,100.000000%,100.000000%);stroke: none;"></path>
  <path d="M49.140381 97.339050C49.140381 96.546356,48.825439 95.786209,48.264954 95.225739C47.704483 94.665253,46.944336 94.350311,46.151642 94.350311C45.358948 94.350311,44.598801 94.665253,44.038330 95.225739C43.477844 95.786209,43.162903 96.546356,43.162903 97.339050C43.162903 98.131744,43.477844 98.891891,44.038330 99.452362C44.598801 100.012848,45.358948 100.327789,46.151642 100.327789C46.944336 100.327789,47.704483 100.012848,48.264954 99.452362C48.825439 98.891891,49.140381 98.131744,49.140381 97.339050Z" style="fill: rgb(100.000000%,100.000000%,100.000000%);stroke: none;"></path>
  <path d="M49.889893 120.703888C49.889893 119.911194,49.574951 119.151047,49.014465 118.590576C48.453995 118.030090,47.693848 117.715149,46.901154 117.715149C46.108459 117.715149,45.348312 118.030090,44.787842 118.590576C44.227356 119.151047,43.912415 119.911194,43.912415 120.703888C43.912415 121.496582,44.227356 122.256729,44.787842 122.817200C45.348312 123.377686,46.108459 123.692627,46.901154 123.692627C47.693848 123.692627,48.453995 123.377686,49.014465 122.817200C49.574951 122.256729,49.889893 121.496582,49.889893 120.703888Z" style="fill: rgb(100.000000%,100.000000%,100.000000%);stroke: none;"></path>
  <path d="M46.826553 75.336990C46.826553 74.544296,46.511612 73.784149,45.951126 73.223679C45.390656 72.663193,44.630508 72.348251,43.837814 72.348251C43.045120 72.348251,42.284973 72.663193,41.724503 73.223679C41.164017 73.784149,40.849075 74.544296,40.849075 75.336990C40.849075 76.129684,41.164017 76.889832,41.724503 77.450302C42.284973 78.010788,43.045120 78.325729,43.837814 78.325729C44.630508 78.325729,45.390656 78.010788,45.951126 77.450302C46.511612 76.889832,46.826553 76.129684,46.826553 75.336990Z" style="fill: rgb(100.000000%,100.000000%,100.000000%);stroke: none;"></path>
  <path d="M47.206955 89.407776C47.206955 88.615082,46.892014 87.854935,46.331528 87.294464C45.771057 86.733978,45.010910 86.419037,44.218216 86.419037C43.425522 86.419037,42.665375 86.733978,42.104904 87.294464C41.544418 87.854935,41.229477 88.615082,41.229477 89.407776C41.229477 90.200470,41.544418 90.960617,42.104904 91.521088C42.665375 92.081573,43.425522 92.396515,44.218216 92.396515C45.010910 92.396515,45.771057 92.081573,46.331528 91.521088C46.892014 90.960617,47.206955 90.200470,47.206955 89.407776Z" style="fill: rgb(100.000000%,100.000000%,100.000000%);stroke: none;"></path>
  <path d="M38.783707 57.436493C38.783707 56.643799,38.468765 55.883652,37.908279 55.323181C37.347809 54.762695,36.587662 54.447754,35.794968 54.447754C35.002274 54.447754,34.242126 54.762695,33.681656 55.323181C33.121170 55.883652,32.806229 56.643799,32.806229 57.436493C32.806229 58.229187,33.121170 58.989334,33.681656 59.549805C34.242126 60.110291,35.002274 60.425232,35.794968 60.425232C36.587662 60.425232,37.347809 60.110291,37.908279 59.549805C38.468765 58.989334,38.783707 58.229187,38.783707 57.436493Z" style="fill: rgb(100.000000%,100.000000%,100.000000%);stroke: none;"></path>
  <path d="M47.448730 68.927078C47.448730 68.134384,47.133789 67.374237,46.573303 66.813766C46.012833 66.253281,45.252686 65.938339,44.459991 65.938339C43.667297 65.938339,42.907150 66.253281,42.346680 66.813766C41.786194 67.374237,41.471252 68.134384,41.471252 68.927078C41.471252 69.719772,41.786194 70.479919,42.346680 71.040390C42.907150 71.600876,43.667297 71.915817,44.459991 71.915817C45.252686 71.915817,46.012833 71.600876,46.573303 71.040390C47.133789 70.479919,47.448730 69.719772,47.448730 68.927078Z" style="fill: rgb(100.000000%,100.000000%,100.000000%);stroke: none;"></path>
  <path d="M5.303818 71.930115C5.303818 71.137421,4.988876 70.377274,4.428391 69.816803C3.867920 69.256317,3.107773 68.941376,2.315079 68.941376C1.522385 68.941376,0.762238 69.256317,0.201767 69.816803C-0.358719 70.377274,-0.673660 71.137421,-0.673660 71.930115C-0.673660 72.722809,-0.358719 73.482956,0.201767 74.043427C0.762238 74.603912,1.522385 74.918854,2.315079 74.918854C3.107773 74.918854,3.867920 74.603912,4.428391 74.043427C4.988876 73.482956,5.303818 72.722809,5.303818 71.930115Z" style="fill: rgb(100.000000%,100.000000%,100.000000%);stroke: none;"></path>
  <path d="M29.080826 57.205811C29.080826 56.413116,28.765884 55.652969,28.205399 55.092499C27.644928 54.532013,26.884781 54.217072,26.092087 54.217072C25.299393 54.217072,24.539246 54.532013,23.978775 55.092499C23.418289 55.652969,23.103348 56.413116,23.103348 57.205811C23.103348 57.998505,23.418289 58.758652,23.978775 59.319122C24.539246 59.879608,25.299393 60.194550,26.092087 60.194550C26.884781 60.194550,27.644928 59.879608,28.205399 59.319122C28.765884 58.758652,29.080826 57.998505,29.080826 57.205811Z" style="fill: rgb(100.000000%,100.000000%,100.000000%);stroke: none;"></path>
  <path d="M16.645523 133.449432C16.645523 132.656738,16.330582 131.896591,15.770096 131.336121C15.209625 130.775635,14.449478 130.460693,13.656784 130.460693C12.864090 130.460693,12.103943 130.775635,11.543472 131.336121C10.982986 131.896591,10.668045 132.656738,10.668045 133.449432C10.668045 134.242126,10.982986 135.002274,11.543472 135.562744C12.103943 136.123230,12.864090 136.438171,13.656784 136.438171C14.449478 136.438171,15.209625 136.123230,15.770096 135.562744C16.330582 135.002274,16.645523 134.242126,16.645523 133.449432Z" style="fill: rgb(100.000000%,100.000000%,100.000000%);stroke: none;"></path>
  <path d="M5.872040 94.233032C5.872040 93.440338,5.557098 92.680191,4.996613 92.119720C4.436142 91.559235,3.675995 91.244293,2.883301 91.244293C2.090607 91.244293,1.330460 91.559235,0.769989 92.119720C0.209503 92.680191,-0.105438 93.440338,-0.105438 94.233032C-0.105438 95.025726,0.209503 95.785873,0.769989 96.346344C1.330460 96.906830,2.090607 97.221771,2.883301 97.221771C3.675995 97.221771,4.436142 96.906830,4.996613 96.346344C5.557098 95.785873,5.872040 95.025726,5.872040 94.233032Z" style="fill: rgb(100.000000%,100.000000%,100.000000%);stroke: none;"></path>
  <path d="M61.442352 149.802322C61.442352 149.009628,61.127411 148.249481,60.566925 147.689011C60.006454 147.128525,59.246307 146.813583,58.453613 146.813583C57.660919 146.813583,56.900772 147.128525,56.340302 147.689011C55.779816 148.249481,55.464874 149.009628,55.464874 149.802322C55.464874 150.595016,55.779816 151.355164,56.340302 151.915634C56.900772 152.476120,57.660919 152.791061,58.453613 152.791061C59.246307 152.791061,60.006454 152.476120,60.566925 151.915634C61.127411 151.355164,61.442352 150.595016,61.442352 149.802322Z" style="fill: rgb(100.000000%,100.000000%,100.000000%);stroke: none;"></path>
  <path d="M28.250671 152.552719C28.250671 151.760025,27.935730 150.999878,27.375244 150.439407C26.814774 149.878922,26.054626 149.563980,25.261932 149.563980C24.469238 149.563980,23.709091 149.878922,23.148621 150.439407C22.588135 150.999878,22.273193 151.760025,22.273193 152.552719C22.273193 153.345413,22.588135 154.105560,23.148621 154.666031C23.709091 155.226517,24.469238 155.541458,25.261932 155.541458C26.054626 155.541458,26.814774 155.226517,27.375244 154.666031C27.935730 154.105560,28.250671 153.345413,28.250671 152.552719Z" style="fill: rgb(100.000000%,100.000000%,100.000000%);stroke: none;"></path>
  <path d="M80.489059 114.898285C80.489059 114.105591,80.174118 113.345444,79.613632 112.784973C79.053162 112.224487,78.293015 111.909546,77.500320 111.909546C76.707626 111.909546,75.947479 112.224487,75.387009 112.784973C74.826523 113.345444,74.511581 114.105591,74.511581 114.898285C74.511581 115.690979,74.826523 116.451126,75.387009 117.011597C75.947479 117.572083,76.707626 117.887024,77.500320 117.887024C78.293015 117.887024,79.053162 117.572083,79.613632 117.011597C80.174118 116.451126,80.489059 115.690979,80.489059 114.898285Z" style="fill: rgb(100.000000%,100.000000%,100.000000%);stroke: none;"></path>
  <path d="M69.947830 136.020493C69.947830 135.227798,69.632889 134.467651,69.072403 133.907181C68.511932 133.346695,67.751785 133.031754,66.959091 133.031754C66.166397 133.031754,65.406250 133.346695,64.845779 133.907181C64.285294 134.467651,63.970352 135.227798,63.970352 136.020493C63.970352 136.813187,64.285294 137.573334,64.845779 138.133804C65.406250 138.694290,66.166397 139.009232,66.959091 139.009232C67.751785 139.009232,68.511932 138.694290,69.072403 138.133804C69.632889 137.573334,69.947830 136.813187,69.947830 136.020493Z" style="fill: rgb(100.000000%,100.000000%,100.000000%);stroke: none;"></path>
  <path d="M90.776093 94.690613C90.776093 93.897919,90.461151 93.137772,89.900665 92.577301C89.340195 92.016815,88.580048 91.701874,87.787354 91.701874C86.994659 91.701874,86.234512 92.016815,85.674042 92.577301C85.113556 93.137772,84.798615 93.897919,84.798615 94.690613C84.798615 95.483307,85.113556 96.243454,85.674042 96.803925C86.234512 97.364410,86.994659 97.679352,87.787354 97.679352C88.580048 97.679352,89.340195 97.364410,89.900665 96.803925C90.461151 96.243454,90.776093 95.483307,90.776093 94.690613Z" style="fill: rgb(100.000000%,100.000000%,100.000000%);stroke: none;"></path>
  <path d="M84.355515 107.001251C84.355515 106.208557,84.040573 105.448410,83.480087 104.887939C82.919617 104.327454,82.159470 104.012512,81.366776 104.012512C80.574081 104.012512,79.813934 104.327454,79.253464 104.887939C78.692978 105.448410,78.378036 106.208557,78.378036 107.001251C78.378036 107.793945,78.692978 108.554092,79.253464 109.114563C79.813934 109.675049,80.574081 109.989990,81.366776 109.989990C82.159470 109.989990,82.919617 109.675049,83.480087 109.114563C84.040573 108.554092,84.355515 107.793945,84.355515 107.001251Z" style="fill: rgb(100.000000%,100.000000%,100.000000%);stroke: none;"></path>
  <path d="M95.996811 80.282806C95.996811 79.490112,95.681870 78.729965,95.121384 78.169495C94.560913 77.609009,93.800766 77.294067,93.008072 77.294067C92.215378 77.294067,91.455231 77.609009,90.894760 78.169495C90.334274 78.729965,90.019333 79.490112,90.019333 80.282806C90.019333 81.075500,90.334274 81.835648,90.894760 82.396118C91.455231 82.956604,92.215378 83.271545,93.008072 83.271545C93.800766 83.271545,94.560913 82.956604,95.121384 82.396118C95.681870 81.835648,95.996811 81.075500,95.996811 80.282806Z" style="fill: rgb(100.000000%,100.000000%,100.000000%);stroke: none;"></path>
  <path d="M93.209488 90.179550C93.209488 89.386856,92.894547 88.626709,92.334061 88.066238C91.773590 87.505753,91.013443 87.190811,90.220749 87.190811C89.428055 87.190811,88.667908 87.505753,88.107437 88.066238C87.546951 88.626709,87.232010 89.386856,87.232010 90.179550C87.232010 90.972244,87.546951 91.732391,88.107437 92.292862C88.667908 92.853348,89.428055 93.168289,90.220749 93.168289C91.013443 93.168289,91.773590 92.853348,92.334061 92.292862C92.894547 91.732391,93.209488 90.972244,93.209488 90.179550Z" style="fill: rgb(100.000000%,100.000000%,100.000000%);stroke: none;"></path>
  <path d="M97.188049 62.430450C97.188049 61.637756,96.873108 60.877609,96.312622 60.317139C95.752151 59.756653,94.992004 59.441711,94.199310 59.441711C93.406616 59.441711,92.646469 59.756653,92.085999 60.317139C91.525513 60.877609,91.210571 61.637756,91.210571 62.430450C91.210571 63.223145,91.525513 63.983292,92.085999 64.543762C92.646469 65.104248,93.406616 65.419189,94.199310 65.419189C94.992004 65.419189,95.752151 65.104248,96.312622 64.543762C96.873108 63.983292,97.188049 63.223145,97.188049 62.430450Z" style="fill: rgb(100.000000%,100.000000%,100.000000%);stroke: none;"></path>
  <path d="M96.260406 75.073990C96.260406 74.281296,95.945465 73.521149,95.384979 72.960678C94.824509 72.400192,94.064362 72.085251,93.271667 72.085251C92.478973 72.085251,91.718826 72.400192,91.158356 72.960678C90.597870 73.521149,90.282928 74.281296,90.282928 75.073990C90.282928 75.866684,90.597870 76.626831,91.158356 77.187302C91.718826 77.747787,92.478973 78.062729,93.271667 78.062729C94.064362 78.062729,94.824509 77.747787,95.384979 77.187302C95.945465 76.626831,96.260406 75.866684,96.260406 75.073990Z" style="fill: rgb(100.000000%,100.000000%,100.000000%);stroke: none;"></path>
  <path d="M98.238525 33.986908C98.238525 33.194214,97.923584 32.434067,97.363098 31.873596C96.802628 31.313110,96.042480 30.998169,95.249786 30.998169C94.457092 30.998169,93.696945 31.313110,93.136475 31.873596C92.575989 32.434067,92.261047 33.194214,92.261047 33.986908C92.261047 34.779602,92.575989 35.539749,93.136475 36.100220C93.696945 36.660706,94.457092 36.975647,95.249786 36.975647C96.042480 36.975647,96.802628 36.660706,97.363098 36.100220C97.923584 35.539749,98.238525 34.779602,98.238525 33.986908Z" style="fill: rgb(100.000000%,100.000000%,100.000000%);stroke: none;"></path>
  <path d="M97.991272 54.966141C97.991272 54.173447,97.676331 53.413300,97.115845 52.852829C96.555374 52.292343,95.795227 51.977402,95.002533 51.977402C94.209839 51.977402,93.449692 52.292343,92.889221 52.852829C92.328735 53.413300,92.013794 54.173447,92.013794 54.966141C92.013794 55.758835,92.328735 56.518982,92.889221 57.079453C93.449692 57.639938,94.209839 57.954880,95.002533 57.954880C95.795227 57.954880,96.555374 57.639938,97.115845 57.079453C97.676331 56.518982,97.991272 55.758835,97.991272 54.966141Z" style="fill: rgb(100.000000%,100.000000%,100.000000%);stroke: none;"></path>
  <path d="M72.240036 3.281662C72.240036 2.488968,71.925095 1.728821,71.364609 1.168350C70.804138 0.607864,70.043991 0.292923,69.251297 0.292923C68.458603 0.292923,67.698456 0.607864,67.137985 1.168350C66.577499 1.728821,66.262558 2.488968,66.262558 3.281662C66.262558 4.074356,66.577499 4.834503,67.137985 5.394974C67.698456 5.955460,68.458603 6.270401,69.251297 6.270401C70.043991 6.270401,70.804138 5.955460,71.364609 5.394974C71.925095 4.834503,72.240036 4.074356,72.240036 3.281662Z" style="fill: rgb(100.000000%,100.000000%,100.000000%);stroke: none;"></path>
  <path d="M95.502548 19.846771C95.502548 19.054077,95.187607 18.293930,94.627121 17.733459C94.066650 17.172974,93.306503 16.858032,92.513809 16.858032C91.721115 16.858032,90.960968 17.172974,90.400497 17.733459C89.840012 18.293930,89.525070 19.054077,89.525070 19.846771C89.525070 20.639465,89.840012 21.399612,90.400497 21.960083C90.960968 22.520569,91.721115 22.835510,92.513809 22.835510C93.306503 22.835510,94.066650 22.520569,94.627121 21.960083C95.187607 21.399612,95.502548 20.639465,95.502548 19.846771Z" style="fill: rgb(100.000000%,100.000000%,100.000000%);stroke: none;"></path>
  <path d="M29.127167 27.266373C29.127167 26.473679,28.812225 25.713531,28.251740 25.153061C27.691269 24.592575,26.931122 24.277634,26.138428 24.277634C25.345734 24.277634,24.585587 24.592575,24.025116 25.153061C23.464630 25.713531,23.149689 26.473679,23.149689 27.266373C23.149689 28.059067,23.464630 28.819214,24.025116 29.379684C24.585587 29.940170,25.345734 30.255112,26.138428 30.255112C26.931122 30.255112,27.691269 29.940170,28.251740 29.379684C28.812225 28.819214,29.127167 28.059067,29.127167 27.266373Z" style="fill: rgb(100.000000%,100.000000%,100.000000%);stroke: none;"></path>
  <path d="M55.513626 6.800537C55.513626 6.007843,55.198685 5.247696,54.638199 4.687225C54.077728 4.126740,53.317581 3.811798,52.524887 3.811798C51.732193 3.811798,50.972046 4.126740,50.411575 4.687225C49.851089 5.247696,49.536148 6.007843,49.536148 6.800537C49.536148 7.593231,49.851089 8.353378,50.411575 8.913849C50.972046 9.474335,51.732193 9.789276,52.524887 9.789276C53.317581 9.789276,54.077728 9.474335,54.638199 8.913849C55.198685 8.353378,55.513626 7.593231,55.513626 6.800537Z" style="fill: rgb(100.000000%,100.000000%,100.000000%);stroke: none;"></path>
  <path d="M21.897705 71.958725C21.897705 71.166031,21.582764 70.405884,21.022278 69.845413C20.461807 69.284927,19.701660 68.969986,18.908966 68.969986C18.116272 68.969986,17.356125 69.284927,16.795654 69.845413C16.235168 70.405884,15.920227 71.166031,15.920227 71.958725C15.920227 72.751419,16.235168 73.511566,16.795654 74.072037C17.356125 74.632523,18.116272 74.947464,18.908966 74.947464C19.701660 74.947464,20.461807 74.632523,21.022278 74.072037C21.582764 73.511566,21.897705 72.751419,21.897705 71.958725Z" style="fill: rgb(100.000000%,100.000000%,100.000000%);stroke: none;"></path>
  <path d="M21.167633 44.130325C21.167633 43.337631,20.852692 42.577484,20.292206 42.017014C19.731735 41.456528,18.971588 41.141586,18.178894 41.141586C17.386200 41.141586,16.626053 41.456528,16.065582 42.017014C15.505096 42.577484,15.190155 43.337631,15.190155 44.130325C15.190155 44.923019,15.505096 45.683167,16.065582 46.243637C16.626053 46.804123,17.386200 47.119064,18.178894 47.119064C18.971588 47.119064,19.731735 46.804123,20.292206 46.243637C20.852692 45.683167,21.167633 44.923019,21.167633 44.130325Z" style="fill: rgb(100.000000%,100.000000%,100.000000%);stroke: none;"></path>
  <path d="M39.524887 84.138870C39.524887 83.346176,39.209946 82.586029,38.649460 82.025558C38.088989 81.465073,37.328842 81.150131,36.536148 81.150131C35.743454 81.150131,34.983307 81.465073,34.422836 82.025558C33.862350 82.586029,33.547409 83.346176,33.547409 84.138870C33.547409 84.931564,33.862350 85.691711,34.422836 86.252182C34.983307 86.812668,35.743454 87.127609,36.536148 87.127609C37.328842 87.127609,38.088989 86.812668,38.649460 86.252182C39.209946 85.691711,39.524887 84.931564,39.524887 84.138870Z" style="fill: rgb(100.000000%,100.000000%,100.000000%);stroke: none;"></path>
  <path d="M26.261353 82.173264C26.261353 81.380569,25.946411 80.620422,25.385925 80.059952C24.825455 79.499466,24.065308 79.184525,23.272614 79.184525C22.479919 79.184525,21.719772 79.499466,21.159302 80.059952C20.598816 80.620422,20.283875 81.380569,20.283875 82.173264C20.283875 82.965958,20.598816 83.726105,21.159302 84.286575C21.719772 84.847061,22.479919 85.162003,23.272614 85.162003C24.065308 85.162003,24.825455 84.847061,25.385925 84.286575C25.946411 83.726105,26.261353 82.965958,26.261353 82.173264Z" style="fill: rgb(100.000000%,100.000000%,100.000000%);stroke: none;"></path>
  <path d="M51.713760 79.569153C51.713760 78.776459,51.398819 78.016312,50.838333 77.455841C50.277863 76.895355,49.517715 76.580414,48.725021 76.580414C47.932327 76.580414,47.172180 76.895355,46.611710 77.455841C46.051224 78.016312,45.736282 78.776459,45.736282 79.569153C45.736282 80.361847,46.051224 81.121994,46.611710 81.682465C47.172180 82.242950,47.932327 82.557892,48.725021 82.557892C49.517715 82.557892,50.277863 82.242950,50.838333 81.682465C51.398819 81.121994,51.713760 80.361847,51.713760 79.569153Z" style="fill: rgb(100.000000%,100.000000%,100.000000%);stroke: none;"></path>
  <path d="M43.316162 82.709442C43.316162 81.916748,43.001221 81.156601,42.440735 80.596130C41.880264 80.035645,41.120117 79.720703,40.327423 79.720703C39.534729 79.720703,38.774582 80.035645,38.214111 80.596130C37.653625 81.156601,37.338684 81.916748,37.338684 82.709442C37.338684 83.502136,37.653625 84.262283,38.214111 84.822754C38.774582 85.383240,39.534729 85.698181,40.327423 85.698181C41.120117 85.698181,41.880264 85.383240,42.440735 84.822754C43.001221 84.262283,43.316162 83.502136,43.316162 82.709442Z" style="fill: rgb(100.000000%,100.000000%,100.000000%);stroke: none;"></path>
  <path d="M65.881653 74.416199C65.881653 73.623505,65.566711 72.863358,65.006226 72.302887C64.445755 71.742401,63.685608 71.427460,62.892914 71.427460C62.100220 71.427460,61.340073 71.742401,60.779602 72.302887C60.219116 72.863358,59.904175 73.623505,59.904175 74.416199C59.904175 75.208893,60.219116 75.969040,60.779602 76.529510C61.340073 77.089996,62.100220 77.404938,62.892914 77.404938C63.685608 77.404938,64.445755 77.089996,65.006226 76.529510C65.566711 75.969040,65.881653 75.208893,65.881653 74.416199Z" style="fill: rgb(100.000000%,100.000000%,100.000000%);stroke: none;"></path>
  <path d="M56.467209 77.879517C56.467209 77.086823,56.152267 76.326675,55.591782 75.766205C55.031311 75.205719,54.271164 74.890778,53.478470 74.890778C52.685776 74.890778,51.925629 75.205719,51.365158 75.766205C50.804672 76.326675,50.489731 77.086823,50.489731 77.879517C50.489731 78.672211,50.804672 79.432358,51.365158 79.992828C51.925629 80.553314,52.685776 80.868256,53.478470 80.868256C54.271164 80.868256,55.031311 80.553314,55.591782 79.992828C56.152267 79.432358,56.467209 78.672211,56.467209 77.879517Z" style="fill: rgb(100.000000%,100.000000%,100.000000%);stroke: none;"></path>
  <path d="M78.791611 69.995880C78.791611 69.203186,78.476669 68.443039,77.916183 67.882568C77.355713 67.322083,76.595566 67.007141,75.802872 67.007141C75.010178 67.007141,74.250031 67.322083,73.689560 67.882568C73.129074 68.443039,72.814133 69.203186,72.814133 69.995880C72.814133 70.788574,73.129074 71.548721,73.689560 72.109192C74.250031 72.669678,75.010178 72.984619,75.802872 72.984619C76.595566 72.984619,77.355713 72.669678,77.916183 72.109192C78.476669 71.548721,78.791611 70.788574,78.791611 69.995880Z" style="fill: rgb(100.000000%,100.000000%,100.000000%);stroke: none;"></path>
  <path d="M70.544571 72.643173C70.544571 71.850479,70.229630 71.090332,69.669144 70.529861C69.108673 69.969376,68.348526 69.654434,67.555832 69.654434C66.763138 69.654434,66.002991 69.969376,65.442520 70.529861C64.882034 71.090332,64.567093 71.850479,64.567093 72.643173C64.567093 73.435867,64.882034 74.196014,65.442520 74.756485C66.002991 75.316971,66.763138 75.631912,67.555832 75.631912C68.348526 75.631912,69.108673 75.316971,69.669144 74.756485C70.229630 74.196014,70.544571 73.435867,70.544571 72.643173Z" style="fill: rgb(100.000000%,100.000000%,100.000000%);stroke: none;"></path>
  <path d="M89.594009 68.712585C89.594009 67.919891,89.279068 67.159744,88.718582 66.599274C88.158112 66.038788,87.397964 65.723846,86.605270 65.723846C85.812576 65.723846,85.052429 66.038788,84.491959 66.599274C83.931473 67.159744,83.616531 67.919891,83.616531 68.712585C83.616531 69.505280,83.931473 70.265427,84.491959 70.825897C85.052429 71.386383,85.812576 71.701324,86.605270 71.701324C87.397964 71.701324,88.158112 71.386383,88.718582 70.825897C89.279068 70.265427,89.594009 69.505280,89.594009 68.712585Z" style="fill: rgb(100.000000%,100.000000%,100.000000%);stroke: none;"></path>
  <path d="M82.357758 69.004990C82.357758 68.212296,82.042816 67.452148,81.482330 66.891678C80.921860 66.331192,80.161713 66.016251,79.369019 66.016251C78.576324 66.016251,77.816177 66.331192,77.255707 66.891678C76.695221 67.452148,76.380280 68.212296,76.380280 69.004990C76.380280 69.797684,76.695221 70.557831,77.255707 71.118301C77.816177 71.678787,78.576324 71.993729,79.369019 71.993729C80.161713 71.993729,80.921860 71.678787,81.482330 71.118301C82.042816 70.557831,82.357758 69.797684,82.357758 69.004990Z" style="fill: rgb(100.000000%,100.000000%,100.000000%);stroke: none;"></path>
  <path d="M101.106995 70.592926C101.106995 69.800232,100.792053 69.040085,100.231567 68.479614C99.671097 67.919128,98.910950 67.604187,98.118256 67.604187C97.325562 67.604187,96.565414 67.919128,96.004944 68.479614C95.444458 69.040085,95.129517 69.800232,95.129517 70.592926C95.129517 71.385620,95.444458 72.145767,96.004944 72.706238C96.565414 73.266724,97.325562 73.581665,98.118256 73.581665C98.910950 73.581665,99.671097 73.266724,100.231567 72.706238C100.792053 72.145767,101.106995 71.385620,101.106995 70.592926Z" style="fill: rgb(100.000000%,100.000000%,100.000000%);stroke: none;"></path>
  <path d="M93.119385 69.367508C93.119385 68.574814,92.804443 67.814667,92.243958 67.254196C91.683487 66.693710,90.923340 66.378769,90.130646 66.378769C89.337952 66.378769,88.577805 66.693710,88.017334 67.254196C87.456848 67.814667,87.141907 68.574814,87.141907 69.367508C87.141907 70.160202,87.456848 70.920349,88.017334 71.480820C88.577805 72.041306,89.337952 72.356247,90.130646 72.356247C90.923340 72.356247,91.683487 72.041306,92.243958 71.480820C92.804443 70.920349,93.119385 70.160202,93.119385 69.367508Z" style="fill: rgb(100.000000%,100.000000%,100.000000%);stroke: none;"></path>
  <path d="M113.766418 76.608200C113.766418 75.815506,113.451477 75.055359,112.890991 74.494888C112.330521 73.934402,111.570374 73.619461,110.777679 73.619461C109.984985 73.619461,109.224838 73.934402,108.664368 74.494888C108.103882 75.055359,107.788940 75.815506,107.788940 76.608200C107.788940 77.400894,108.103882 78.161041,108.664368 78.721512C109.224838 79.281998,109.984985 79.596939,110.777679 79.596939C111.570374 79.596939,112.330521 79.281998,112.890991 78.721512C113.451477 78.161041,113.766418 77.400894,113.766418 76.608200Z" style="fill: rgb(100.000000%,100.000000%,100.000000%);stroke: none;"></path>
  <path d="M105.728973 71.148605C105.728973 70.355911,105.414032 69.595764,104.853546 69.035294C104.293076 68.474808,103.532928 68.159866,102.740234 68.159866C101.947540 68.159866,101.187393 68.474808,100.626923 69.035294C100.066437 69.595764,99.751495 70.355911,99.751495 71.148605C99.751495 71.941299,100.066437 72.701447,100.626923 73.261917C101.187393 73.822403,101.947540 74.137344,102.740234 74.137344C103.532928 74.137344,104.293076 73.822403,104.853546 73.261917C105.414032 72.701447,105.728973 71.941299,105.728973 71.148605Z" style="fill: rgb(100.000000%,100.000000%,100.000000%);stroke: none;"></path>
  <path d="M122.045242 89.510757C122.045242 88.718063,121.730301 87.957916,121.169815 87.397446C120.609344 86.836960,119.849197 86.522018,119.056503 86.522018C118.263809 86.522018,117.503662 86.836960,116.943192 87.397446C116.382706 87.957916,116.067764 88.718063,116.067764 89.510757C116.067764 90.303452,116.382706 91.063599,116.943192 91.624069C117.503662 92.184555,118.263809 92.499496,119.056503 92.499496C119.849197 92.499496,120.609344 92.184555,121.169815 91.624069C121.730301 91.063599,122.045242 90.303452,122.045242 89.510757Z" style="fill: rgb(100.000000%,100.000000%,100.000000%);stroke: none;"></path>
  <path d="M116.014740 81.513351C116.014740 80.720657,115.699799 79.960510,115.139313 79.400040C114.578842 78.839554,113.818695 78.524612,113.026001 78.524612C112.233307 78.524612,111.473160 78.839554,110.912689 79.400040C110.352203 79.960510,110.037262 80.720657,110.037262 81.513351C110.037262 82.306046,110.352203 83.066193,110.912689 83.626663C111.473160 84.187149,112.233307 84.502090,113.026001 84.502090C113.818695 84.502090,114.578842 84.187149,115.139313 83.626663C115.699799 83.066193,116.014740 82.306046,116.014740 81.513351Z" style="fill: rgb(100.000000%,100.000000%,100.000000%);stroke: none;"></path>
  <path d="M123.244293 102.036636C123.244293 101.243942,122.929352 100.483795,122.368866 99.923325C121.808395 99.362839,121.048248 99.047897,120.255554 99.047897C119.462860 99.047897,118.702713 99.362839,118.142242 99.923325C117.581757 100.483795,117.266815 101.243942,117.266815 102.036636C117.266815 102.829330,117.581757 103.589478,118.142242 104.149948C118.702713 104.710434,119.462860 105.025375,120.255554 105.025375C121.048248 105.025375,121.808395 104.710434,122.368866 104.149948C122.929352 103.589478,123.244293 102.829330,123.244293 102.036636Z" style="fill: rgb(100.000000%,100.000000%,100.000000%);stroke: none;"></path>
  <path d="M125.789368 93.506973C125.789368 92.714279,125.474426 91.954132,124.913940 91.393661C124.353470 90.833176,123.593323 90.518234,122.800629 90.518234C122.007935 90.518234,121.247787 90.833176,120.687317 91.393661C120.126831 91.954132,119.811890 92.714279,119.811890 93.506973C119.811890 94.299667,120.126831 95.059814,120.687317 95.620285C121.247787 96.180771,122.007935 96.495712,122.800629 96.495712C123.593323 96.495712,124.353470 96.180771,124.913940 95.620285C125.474426 95.059814,125.789368 94.299667,125.789368 93.506973Z" style="fill: rgb(100.000000%,100.000000%,100.000000%);stroke: none;"></path>
  <path d="M110.718857 107.021545C110.718857 106.228851,110.403915 105.468704,109.843430 104.908234C109.282959 104.347748,108.522812 104.032806,107.730118 104.032806C106.937424 104.032806,106.177277 104.347748,105.616806 104.908234C105.056320 105.468704,104.741379 106.228851,104.741379 107.021545C104.741379 107.814240,105.056320 108.574387,105.616806 109.134857C106.177277 109.695343,106.937424 110.010284,107.730118 110.010284C108.522812 110.010284,109.282959 109.695343,109.843430 109.134857C110.403915 108.574387,110.718857 107.814240,110.718857 107.021545Z" style="fill: rgb(100.000000%,100.000000%,100.000000%);stroke: none;"></path>
  <path d="M119.020050 103.669937C119.020050 102.877243,118.705109 102.117096,118.144623 101.556625C117.584152 100.996140,116.824005 100.681198,116.031311 100.681198C115.238617 100.681198,114.478470 100.996140,113.917999 101.556625C113.357513 102.117096,113.042572 102.877243,113.042572 103.669937C113.042572 104.462631,113.357513 105.222778,113.917999 105.783249C114.478470 106.343735,115.238617 106.658676,116.031311 106.658676C116.824005 106.658676,117.584152 106.343735,118.144623 105.783249C118.705109 105.222778,119.020050 104.462631,119.020050 103.669937Z" style="fill: rgb(100.000000%,100.000000%,100.000000%);stroke: none;"></path>
  <path d="M96.007538 107.545258C96.007538 106.752563,95.692596 105.992416,95.132111 105.431946C94.571640 104.871460,93.811493 104.556519,93.018799 104.556519C92.226105 104.556519,91.465958 104.871460,90.905487 105.431946C90.345001 105.992416,90.030060 106.752563,90.030060 107.545258C90.030060 108.337952,90.345001 109.098099,90.905487 109.658569C91.465958 110.219055,92.226105 110.533997,93.018799 110.533997C93.811493 110.533997,94.571640 110.219055,95.132111 109.658569C95.692596 109.098099,96.007538 108.337952,96.007538 107.545258Z" style="fill: rgb(100.000000%,100.000000%,100.000000%);stroke: none;"></path>
  <path d="M106.179138 109.283554C106.179138 108.490860,105.864197 107.730713,105.303711 107.170242C104.743240 106.609756,103.983093 106.294815,103.190399 106.294815C102.397705 106.294815,101.637558 106.609756,101.077087 107.170242C100.516602 107.730713,100.201660 108.490860,100.201660 109.283554C100.201660 110.076248,100.516602 110.836395,101.077087 111.396866C101.637558 111.957352,102.397705 112.272293,103.190399 112.272293C103.983093 112.272293,104.743240 111.957352,105.303711 111.396866C105.864197 110.836395,106.179138 110.076248,106.179138 109.283554Z" style="fill: rgb(100.000000%,100.000000%,100.000000%);stroke: none;"></path>
  <path d="M84.866943 95.640732C84.866943 94.848038,84.552002 94.087891,83.991516 93.527420C83.431046 92.966934,82.670898 92.651993,81.878204 92.651993C81.085510 92.651993,80.325363 92.966934,79.764893 93.527420C79.204407 94.087891,78.889465 94.848038,78.889465 95.640732C78.889465 96.433426,79.204407 97.193573,79.764893 97.754044C80.325363 98.314529,81.085510 98.629471,81.878204 98.629471C82.670898 98.629471,83.431046 98.314529,83.991516 97.754044C84.552002 97.193573,84.866943 96.433426,84.866943 95.640732Z" style="fill: rgb(100.000000%,100.000000%,100.000000%);stroke: none;"></path>
  <path d="M92.279755 103.075928C92.279755 102.283234,91.964813 101.523087,91.404327 100.962616C90.843857 100.402130,90.083710 100.087189,89.291016 100.087189C88.498322 100.087189,87.738174 100.402130,87.177704 100.962616C86.617218 101.523087,86.302277 102.283234,86.302277 103.075928C86.302277 103.868622,86.617218 104.628769,87.177704 105.189240C87.738174 105.749725,88.498322 106.064667,89.291016 106.064667C90.083710 106.064667,90.843857 105.749725,91.404327 105.189240C91.964813 104.628769,92.279755 103.868622,92.279755 103.075928Z" style="fill: rgb(100.000000%,100.000000%,100.000000%);stroke: none;"></path>
  <path d="M75.846649 82.795914C75.846649 82.003220,75.531708 81.243073,74.971222 80.682602C74.410751 80.122116,73.650604 79.807175,72.857910 79.807175C72.065216 79.807175,71.305069 80.122116,70.744598 80.682602C70.184113 81.243073,69.869171 82.003220,69.869171 82.795914C69.869171 83.588608,70.184113 84.348755,70.744598 84.909225C71.305069 85.469711,72.065216 85.784653,72.857910 85.784653C73.650604 85.784653,74.410751 85.469711,74.971222 84.909225C75.531708 84.348755,75.846649 83.588608,75.846649 82.795914Z" style="fill: rgb(100.000000%,100.000000%,100.000000%);stroke: none;"></path>
  <path d="M80.871597 92.388931C80.871597 91.596237,80.556656 90.836090,79.996170 90.275620C79.435699 89.715134,78.675552 89.400192,77.882858 89.400192C77.090164 89.400192,76.330017 89.715134,75.769547 90.275620C75.209061 90.836090,74.894119 91.596237,74.894119 92.388931C74.894119 93.181625,75.209061 93.941772,75.769547 94.502243C76.330017 95.062729,77.090164 95.377670,77.882858 95.377670C78.675552 95.377670,79.435699 95.062729,79.996170 94.502243C80.556656 93.941772,80.871597 93.181625,80.871597 92.388931Z" style="fill: rgb(100.000000%,100.000000%,100.000000%);stroke: none;"></path>
  <path d="M74.742752 63.601929C74.742752 62.809235,74.427811 62.049088,73.867325 61.488617C73.306854 60.928131,72.546707 60.613190,71.754013 60.613190C70.961319 60.613190,70.201172 60.928131,69.640701 61.488617C69.080215 62.049088,68.765274 62.809235,68.765274 63.601929C68.765274 64.394623,69.080215 65.154770,69.640701 65.715240C70.201172 66.275726,70.961319 66.590668,71.754013 66.590668C72.546707 66.590668,73.306854 66.275726,73.867325 65.715240C74.427811 65.154770,74.742752 64.394623,74.742752 63.601929Z" style="fill: rgb(100.000000%,100.000000%,100.000000%);stroke: none;"></path>
  <path d="M75.713715 76.869034C75.713715 76.076340,75.398773 75.316193,74.838287 74.755722C74.277817 74.195236,73.517670 73.880295,72.724976 73.880295C71.932281 73.880295,71.172134 74.195236,70.611664 74.755722C70.051178 75.316193,69.736237 76.076340,69.736237 76.869034C69.736237 77.661728,70.051178 78.421875,70.611664 78.982346C71.172134 79.542831,71.932281 79.857773,72.724976 79.857773C73.517670 79.857773,74.277817 79.542831,74.838287 78.982346C75.398773 78.421875,75.713715 77.661728,75.713715 76.869034Z" style="fill: rgb(100.000000%,100.000000%,100.000000%);stroke: none;"></path>
  <path d="M72.338577 35.028107C72.338577 34.235413,72.023636 33.475266,71.463150 32.914795C70.902679 32.354309,70.142532 32.039368,69.349838 32.039368C68.557144 32.039368,67.796997 32.354309,67.236526 32.914795C66.676041 33.475266,66.361099 34.235413,66.361099 35.028107C66.361099 35.820801,66.676041 36.580948,67.236526 37.141418C67.796997 37.701904,68.557144 38.016846,69.349838 38.016846C70.142532 38.016846,70.902679 37.701904,71.463150 37.141418C72.023636 36.580948,72.338577 35.820801,72.338577 35.028107Z" style="fill: rgb(100.000000%,100.000000%,100.000000%);stroke: none;"></path>
  <path d="M73.621033 56.135574C73.621033 55.342880,73.306091 54.582733,72.745605 54.022263C72.185135 53.461777,71.424988 53.146835,70.632294 53.146835C69.839600 53.146835,69.079453 53.461777,68.518982 54.022263C67.958496 54.582733,67.643555 55.342880,67.643555 56.135574C67.643555 56.928268,67.958496 57.688416,68.518982 58.248886C69.079453 58.809372,69.839600 59.124313,70.632294 59.124313C71.424988 59.124313,72.185135 58.809372,72.745605 58.248886C73.306091 57.688416,73.621033 56.928268,73.621033 56.135574Z" style="fill: rgb(100.000000%,100.000000%,100.000000%);stroke: none;"></path>
  <path d="M96.562134 2.413254C96.562134 1.620560,96.247192 0.860413,95.686707 0.299942C95.126236 -0.260544,94.366089 -0.575485,93.573395 -0.575485C92.780701 -0.575485,92.020554 -0.260544,91.460083 0.299942C90.899597 0.860413,90.584656 1.620560,90.584656 2.413254C90.584656 3.205948,90.899597 3.966095,91.460083 4.526566C92.020554 5.087051,92.780701 5.401993,93.573395 5.401993C94.366089 5.401993,95.126236 5.087051,95.686707 4.526566C96.247192 3.966095,96.562134 3.205948,96.562134 2.413254Z" style="fill: rgb(100.000000%,100.000000%,100.000000%);stroke: none;"></path>
  <path d="M74.226303 20.624146C74.226303 19.831451,73.911362 19.071304,73.350876 18.510834C72.790405 17.950348,72.030258 17.635406,71.237564 17.635406C70.444870 17.635406,69.684723 17.950348,69.124252 18.510834C68.563766 19.071304,68.248825 19.831451,68.248825 20.624146C68.248825 21.416840,68.563766 22.176987,69.124252 22.737457C69.684723 23.297943,70.444870 23.612885,71.237564 23.612885C72.030258 23.612885,72.790405 23.297943,73.350876 22.737457C73.911362 22.176987,74.226303 21.416840,74.226303 20.624146Z" style="fill: rgb(100.000000%,100.000000%,100.000000%);stroke: none;"></path>
  <path d="M144.104507 18.307816C144.104507 17.515121,143.789566 16.754974,143.229080 16.194504C142.668610 15.634018,141.908463 15.319077,141.115768 15.319077C140.323074 15.319077,139.562927 15.634018,139.002457 16.194504C138.441971 16.754974,138.127029 17.515121,138.127029 18.307816C138.127029 19.100510,138.441971 19.860657,139.002457 20.421127C139.562927 20.981613,140.323074 21.296555,141.115768 21.296555C141.908463 21.296555,142.668610 20.981613,143.229080 20.421127C143.789566 19.860657,144.104507 19.100510,144.104507 18.307816Z" style="fill: rgb(100.000000%,100.000000%,100.000000%);stroke: none;"></path>
  <path d="M113.317123 5.004242C113.317123 4.211548,113.002182 3.451401,112.441696 2.890930C111.881226 2.330444,111.121078 2.015503,110.328384 2.015503C109.535690 2.015503,108.775543 2.330444,108.215073 2.890930C107.654587 3.451401,107.339645 4.211548,107.339645 5.004242C107.339645 5.796936,107.654587 6.557083,108.215073 7.117554C108.775543 7.678040,109.535690 7.992981,110.328384 7.992981C111.121078 7.992981,111.881226 7.678040,112.441696 7.117554C113.002182 6.557083,113.317123 5.796936,113.317123 5.004242Z" style="fill: rgb(100.000000%,100.000000%,100.000000%);stroke: none;"></path>
  <path d="M163.152756 61.528610C163.152756 60.735916,162.837814 59.975769,162.277328 59.415298C161.716858 58.854813,160.956711 58.539871,160.164017 58.539871C159.371323 58.539871,158.611176 58.854813,158.050705 59.415298C157.490219 59.975769,157.175278 60.735916,157.175278 61.528610C157.175278 62.321304,157.490219 63.081451,158.050705 63.641922C158.611176 64.202408,159.371323 64.517349,160.164017 64.517349C160.956711 64.517349,161.716858 64.202408,162.277328 63.641922C162.837814 63.081451,163.152756 62.321304,163.152756 61.528610Z" style="fill: rgb(100.000000%,100.000000%,100.000000%);stroke: none;"></path>
  <path d="M159.004990 30.219940C159.004990 29.427246,158.690048 28.667099,158.129562 28.106628C157.569092 27.546143,156.808945 27.231201,156.016251 27.231201C155.223557 27.231201,154.463409 27.546143,153.902939 28.106628C153.342453 28.667099,153.027512 29.427246,153.027512 30.219940C153.027512 31.012634,153.342453 31.772781,153.902939 32.333252C154.463409 32.893738,155.223557 33.208679,156.016251 33.208679C156.808945 33.208679,157.569092 32.893738,158.129562 32.333252C158.690048 31.772781,159.004990 31.012634,159.004990 30.219940Z" style="fill: rgb(100.000000%,100.000000%,100.000000%);stroke: none;"></path>
  <path d="M165.119537 99.664307C165.119537 98.871613,164.804596 98.111465,164.244110 97.550995C163.683640 96.990509,162.923492 96.675568,162.130798 96.675568C161.338104 96.675568,160.577957 96.990509,160.017487 97.550995C159.457001 98.111465,159.142059 98.871613,159.142059 99.664307C159.142059 100.457001,159.457001 101.217148,160.017487 101.777618C160.577957 102.338104,161.338104 102.653046,162.130798 102.653046C162.923492 102.653046,163.683640 102.338104,164.244110 101.777618C164.804596 101.217148,165.119537 100.457001,165.119537 99.664307Z" style="fill: rgb(100.000000%,100.000000%,100.000000%);stroke: none;"></path>
  <path d="M155.547440 75.894882C155.547440 75.102188,155.232498 74.342041,154.672012 73.781570C154.111542 73.221085,153.351395 72.906143,152.558701 72.906143C151.766006 72.906143,151.005859 73.221085,150.445389 73.781570C149.884903 74.342041,149.569962 75.102188,149.569962 75.894882C149.569962 76.687576,149.884903 77.447723,150.445389 78.008194C151.005859 78.568680,151.766006 78.883621,152.558701 78.883621C153.351395 78.883621,154.111542 78.568680,154.672012 78.008194C155.232498 77.447723,155.547440 76.687576,155.547440 75.894882Z" style="fill: rgb(100.000000%,100.000000%,100.000000%);stroke: none;"></path>
  <path d="M193.041519 128.514877C193.041519 127.722183,192.726578 126.962036,192.166092 126.401566C191.605621 125.841080,190.845474 125.526138,190.052780 125.526138C189.260086 125.526138,188.499939 125.841080,187.939468 126.401566C187.378983 126.962036,187.064041 127.722183,187.064041 128.514877C187.064041 129.307571,187.378983 130.067719,187.939468 130.628189C188.499939 131.188675,189.260086 131.503616,190.052780 131.503616C190.845474 131.503616,191.605621 131.188675,192.166092 130.628189C192.726578 130.067719,193.041519 129.307571,193.041519 128.514877Z" style="fill: rgb(100.000000%,100.000000%,100.000000%);stroke: none;"></path>
  <path d="M176.208740 105.278778C176.208740 104.486084,175.893799 103.725937,175.333313 103.165466C174.772842 102.604980,174.012695 102.290039,173.220001 102.290039C172.427307 102.290039,171.667160 102.604980,171.106689 103.165466C170.546204 103.725937,170.231262 104.486084,170.231262 105.278778C170.231262 106.071472,170.546204 106.831619,171.106689 107.392090C171.667160 107.952576,172.427307 108.267517,173.220001 108.267517C174.012695 108.267517,174.772842 107.952576,175.333313 107.392090C175.893799 106.831619,176.208740 106.071472,176.208740 105.278778Z" style="fill: rgb(100.000000%,100.000000%,100.000000%);stroke: none;"></path>
  <path d="M171.642639 172.844666C171.642639 172.051971,171.327698 171.291824,170.767212 170.731354C170.206741 170.170868,169.446594 169.855927,168.653900 169.855927C167.861206 169.855927,167.101059 170.170868,166.540588 170.731354C165.980103 171.291824,165.665161 172.051971,165.665161 172.844666C165.665161 173.637360,165.980103 174.397507,166.540588 174.957977C167.101059 175.518463,167.861206 175.833405,168.653900 175.833405C169.446594 175.833405,170.206741 175.518463,170.767212 174.957977C171.327698 174.397507,171.642639 173.637360,171.642639 172.844666Z" style="fill: rgb(100.000000%,100.000000%,100.000000%);stroke: none;"></path>
  <path d="M191.713440 147.730438C191.713440 146.937744,191.398499 146.177597,190.838013 145.617126C190.277542 145.056641,189.517395 144.741699,188.724701 144.741699C187.932007 144.741699,187.171860 145.056641,186.611389 145.617126C186.050903 146.177597,185.735962 146.937744,185.735962 147.730438C185.735962 148.523132,186.050903 149.283279,186.611389 149.843750C187.171860 150.404236,187.932007 150.719177,188.724701 150.719177C189.517395 150.719177,190.277542 150.404236,190.838013 149.843750C191.398499 149.283279,191.713440 148.523132,191.713440 147.730438Z" style="fill: rgb(100.000000%,100.000000%,100.000000%);stroke: none;"></path>
  <path d="M129.557419 165.222107C129.557419 164.429413,129.242477 163.669266,128.681992 163.108795C128.121521 162.548309,127.361374 162.233368,126.568680 162.233368C125.775986 162.233368,125.015839 162.548309,124.455368 163.108795C123.894882 163.669266,123.579941 164.429413,123.579941 165.222107C123.579941 166.014801,123.894882 166.774948,124.455368 167.335419C125.015839 167.895905,125.775986 168.210846,126.568680 168.210846C127.361374 168.210846,128.121521 167.895905,128.681992 167.335419C129.242477 166.774948,129.557419 166.014801,129.557419 165.222107Z" style="fill: rgb(100.000000%,100.000000%,100.000000%);stroke: none;"></path>
  <path d="M156.639694 178.499100C156.639694 177.706406,156.324753 176.946259,155.764267 176.385788C155.203796 175.825302,154.443649 175.510361,153.650955 175.510361C152.858261 175.510361,152.098114 175.825302,151.537643 176.385788C150.977158 176.946259,150.662216 177.706406,150.662216 178.499100C150.662216 179.291794,150.977158 180.051941,151.537643 180.612411C152.098114 181.172897,152.858261 181.487839,153.650955 181.487839C154.443649 181.487839,155.203796 181.172897,155.764267 180.612411C156.324753 180.051941,156.639694 179.291794,156.639694 178.499100Z" style="fill: rgb(100.000000%,100.000000%,100.000000%);stroke: none;"></path>
  <path d="M121.505493 122.738647C121.505493 121.945953,121.190552 121.185806,120.630066 120.625336C120.069595 120.064850,119.309448 119.749908,118.516754 119.749908C117.724060 119.749908,116.963913 120.064850,116.403442 120.625336C115.842957 121.185806,115.528015 121.945953,115.528015 122.738647C115.528015 123.531342,115.842957 124.291489,116.403442 124.851959C116.963913 125.412445,117.724060 125.727386,118.516754 125.727386C119.309448 125.727386,120.069595 125.412445,120.630066 124.851959C121.190552 124.291489,121.505493 123.531342,121.505493 122.738647Z" style="fill: rgb(100.000000%,100.000000%,100.000000%);stroke: none;"></path>
  <path d="M126.679306 147.646774C126.679306 146.854080,126.364365 146.093933,125.803879 145.533463C125.243408 144.972977,124.483261 144.658035,123.690567 144.658035C122.897873 144.658035,122.137726 144.972977,121.577255 145.533463C121.016769 146.093933,120.701828 146.854080,120.701828 147.646774C120.701828 148.439468,121.016769 149.199615,121.577255 149.760086C122.137726 150.320572,122.897873 150.635513,123.690567 150.635513C124.483261 150.635513,125.243408 150.320572,125.803879 149.760086C126.364365 149.199615,126.679306 148.439468,126.679306 147.646774Z" style="fill: rgb(100.000000%,100.000000%,100.000000%);stroke: none;"></path>
  <path d="M113.531555 101.467377C113.531555 100.674683,113.216614 99.914536,112.656128 99.354065C112.095657 98.793579,111.335510 98.478638,110.542816 98.478638C109.750122 98.478638,108.989975 98.793579,108.429504 99.354065C107.869019 99.914536,107.554077 100.674683,107.554077 101.467377C107.554077 102.260071,107.869019 103.020218,108.429504 103.580688C108.989975 104.141174,109.750122 104.456116,110.542816 104.456116C111.335510 104.456116,112.095657 104.141174,112.656128 103.580688C113.216614 103.020218,113.531555 102.260071,113.531555 101.467377Z" style="fill: rgb(100.000000%,100.000000%,100.000000%);stroke: none;"></path>
  <path d="M118.953339 113.744553C118.953339 112.951859,118.638397 112.191711,118.077911 111.631241C117.517441 111.070755,116.757294 110.755814,115.964600 110.755814C115.171906 110.755814,114.411758 111.070755,113.851288 111.631241C113.290802 112.191711,112.975861 112.951859,112.975861 113.744553C112.975861 114.537247,113.290802 115.297394,113.851288 115.857864C114.411758 116.418350,115.171906 116.733292,115.964600 116.733292C116.757294 116.733292,117.517441 116.418350,118.077911 115.857864C118.638397 115.297394,118.953339 114.537247,118.953339 113.744553Z" style="fill: rgb(100.000000%,100.000000%,100.000000%);stroke: none;"></path>
  <path d="M113.647858 90.209808C113.647858 89.417114,113.332916 88.656967,112.772430 88.096497C112.211960 87.536011,111.451813 87.221069,110.659119 87.221069C109.866425 87.221069,109.106277 87.536011,108.545807 88.096497C107.985321 88.656967,107.670380 89.417114,107.670380 90.209808C107.670380 91.002502,107.985321 91.762650,108.545807 92.323120C109.106277 92.883606,109.866425 93.198547,110.659119 93.198547C111.451813 93.198547,112.211960 92.883606,112.772430 92.323120C113.332916 91.762650,113.647858 91.002502,113.647858 90.209808Z" style="fill: rgb(100.000000%,100.000000%,100.000000%);stroke: none;"></path>
  <path d="M111.647202 97.535141C111.647202 96.742447,111.332260 95.982300,110.771774 95.421829C110.211304 94.861343,109.451157 94.546402,108.658463 94.546402C107.865768 94.546402,107.105621 94.861343,106.545151 95.421829C105.984665 95.982300,105.669724 96.742447,105.669724 97.535141C105.669724 98.327835,105.984665 99.087982,106.545151 99.648453C107.105621 100.208939,107.865768 100.523880,108.658463 100.523880C109.451157 100.523880,110.211304 100.208939,110.771774 99.648453C111.332260 99.087982,111.647202 98.327835,111.647202 97.535141Z" style="fill: rgb(100.000000%,100.000000%,100.000000%);stroke: none;"></path>
  <path d="M124.711014 80.855118C124.711014 80.062424,124.396072 79.302277,123.835587 78.741806C123.275116 78.181320,122.514969 77.866379,121.722275 77.866379C120.929581 77.866379,120.169434 78.181320,119.608963 78.741806C119.048477 79.302277,118.733536 80.062424,118.733536 80.855118C118.733536 81.647812,119.048477 82.407959,119.608963 82.968430C120.169434 83.528915,120.929581 83.843857,121.722275 83.843857C122.514969 83.843857,123.275116 83.528915,123.835587 82.968430C124.396072 82.407959,124.711014 81.647812,124.711014 80.855118Z" style="fill: rgb(100.000000%,100.000000%,100.000000%);stroke: none;"></path>
  <path d="M116.473373 87.895462C116.473373 87.102768,116.158432 86.342621,115.597946 85.782150C115.037476 85.221664,114.277328 84.906723,113.484634 84.906723C112.691940 84.906723,111.931793 85.221664,111.371323 85.782150C110.810837 86.342621,110.495895 87.102768,110.495895 87.895462C110.495895 88.688156,110.810837 89.448303,111.371323 90.008774C111.931793 90.569260,112.691940 90.884201,113.484634 90.884201C114.277328 90.884201,115.037476 90.569260,115.597946 90.008774C116.158432 89.448303,116.473373 88.688156,116.473373 87.895462Z" style="fill: rgb(100.000000%,100.000000%,100.000000%);stroke: none;"></path>
  <path d="M142.025955 60.234482C142.025955 59.441788,141.711014 58.681641,141.150528 58.121170C140.590057 57.560684,139.829910 57.245743,139.037216 57.245743C138.244522 57.245743,137.484375 57.560684,136.923904 58.121170C136.363419 58.681641,136.048477 59.441788,136.048477 60.234482C136.048477 61.027176,136.363419 61.787323,136.923904 62.347794C137.484375 62.908279,138.244522 63.223221,139.037216 63.223221C139.829910 63.223221,140.590057 62.908279,141.150528 62.347794C141.711014 61.787323,142.025955 61.027176,142.025955 60.234482Z" style="fill: rgb(100.000000%,100.000000%,100.000000%);stroke: none;"></path>
  <path d="M129.892487 75.611542C129.892487 74.818848,129.577545 74.058701,129.017059 73.498230C128.456589 72.937744,127.696442 72.622803,126.903748 72.622803C126.111053 72.622803,125.350906 72.937744,124.790436 73.498230C124.229950 74.058701,123.915009 74.818848,123.915009 75.611542C123.915009 76.404236,124.229950 77.164383,124.790436 77.724854C125.350906 78.285339,126.111053 78.600281,126.903748 78.600281C127.696442 78.600281,128.456589 78.285339,129.017059 77.724854C129.577545 77.164383,129.892487 76.404236,129.892487 75.611542Z" style="fill: rgb(100.000000%,100.000000%,100.000000%);stroke: none;"></path>
  <path d="M174.677338 46.387512C174.677338 45.594818,174.362396 44.834671,173.801910 44.274200C173.241440 43.713715,172.481293 43.398773,171.688599 43.398773C170.895905 43.398773,170.135757 43.713715,169.575287 44.274200C169.014801 44.834671,168.699860 45.594818,168.699860 46.387512C168.699860 47.180206,169.014801 47.940353,169.575287 48.500824C170.135757 49.061310,170.895905 49.376251,171.688599 49.376251C172.481293 49.376251,173.241440 49.061310,173.801910 48.500824C174.362396 47.940353,174.677338 47.180206,174.677338 46.387512Z" style="fill: rgb(100.000000%,100.000000%,100.000000%);stroke: none;"></path>
  <path d="M149.149521 48.730286C149.149521 47.937592,148.834579 47.177444,148.274094 46.616974C147.713623 46.056488,146.953476 45.741547,146.160782 45.741547C145.368088 45.741547,144.607941 46.056488,144.047470 46.616974C143.486984 47.177444,143.172043 47.937592,143.172043 48.730286C143.172043 49.522980,143.486984 50.283127,144.047470 50.843597C144.607941 51.404083,145.368088 51.719025,146.160782 51.719025C146.953476 51.719025,147.713623 51.404083,148.274094 50.843597C148.834579 50.283127,149.149521 49.522980,149.149521 48.730286Z" style="fill: rgb(100.000000%,100.000000%,100.000000%);stroke: none;"></path>
  <path d="M195.673935 86.579086C195.673935 85.786392,195.358994 85.026245,194.798508 84.465775C194.238037 83.905289,193.477890 83.590347,192.685196 83.590347C191.892502 83.590347,191.132355 83.905289,190.571884 84.465775C190.011398 85.026245,189.696457 85.786392,189.696457 86.579086C189.696457 87.371780,190.011398 88.131927,190.571884 88.692398C191.132355 89.252884,191.892502 89.567825,192.685196 89.567825C193.477890 89.567825,194.238037 89.252884,194.798508 88.692398C195.358994 88.131927,195.673935 87.371780,195.673935 86.579086Z" style="fill: rgb(100.000000%,100.000000%,100.000000%);stroke: none;"></path>
  <path d="M184.773956 57.960266C184.773956 57.167572,184.459015 56.407425,183.898529 55.846954C183.338058 55.286469,182.577911 54.971527,181.785217 54.971527C180.992523 54.971527,180.232376 55.286469,179.671906 55.846954C179.111420 56.407425,178.796478 57.167572,178.796478 57.960266C178.796478 58.752960,179.111420 59.513107,179.671906 60.073578C180.232376 60.634064,180.992523 60.949005,181.785217 60.949005C182.577911 60.949005,183.338058 60.634064,183.898529 60.073578C184.459015 59.513107,184.773956 58.752960,184.773956 57.960266Z" style="fill: rgb(100.000000%,100.000000%,100.000000%);stroke: none;"></path>
  <path d="M174.604904 120.880081C174.604904 120.087387,174.289963 119.327240,173.729477 118.766769C173.169006 118.206284,172.408859 117.891342,171.616165 117.891342C170.823471 117.891342,170.063324 118.206284,169.502853 118.766769C168.942368 119.327240,168.627426 120.087387,168.627426 120.880081C168.627426 121.672775,168.942368 122.432922,169.502853 122.993393C170.063324 123.553879,170.823471 123.868820,171.616165 123.868820C172.408859 123.868820,173.169006 123.553879,173.729477 122.993393C174.289963 122.432922,174.604904 121.672775,174.604904 120.880081Z" style="fill: rgb(100.000000%,100.000000%,100.000000%);stroke: none;"></path>
  <path d="M195.366226 104.586777C195.366226 103.794083,195.051285 103.033936,194.490799 102.473465C193.930328 101.912979,193.170181 101.598038,192.377487 101.598038C191.584793 101.598038,190.824646 101.912979,190.264175 102.473465C189.703690 103.033936,189.388748 103.794083,189.388748 104.586777C189.388748 105.379471,189.703690 106.139618,190.264175 106.700089C190.824646 107.260574,191.584793 107.575516,192.377487 107.575516C193.170181 107.575516,193.930328 107.260574,194.490799 106.700089C195.051285 106.139618,195.366226 105.379471,195.366226 104.586777Z" style="fill: rgb(100.000000%,100.000000%,100.000000%);stroke: none;"></path>
  <path d="M144.770065 140.436905C144.770065 139.644211,144.455124 138.884064,143.894638 138.323593C143.334167 137.763107,142.574020 137.448166,141.781326 137.448166C140.988632 137.448166,140.228485 137.763107,139.668015 138.323593C139.107529 138.884064,138.792587 139.644211,138.792587 140.436905C138.792587 141.229599,139.107529 141.989746,139.668015 142.550217C140.228485 143.110703,140.988632 143.425644,141.781326 143.425644C142.574020 143.425644,143.334167 143.110703,143.894638 142.550217C144.455124 141.989746,144.770065 141.229599,144.770065 140.436905Z" style="fill: rgb(100.000000%,100.000000%,100.000000%);stroke: none;"></path>
  <path d="M162.697723 121.249207C162.697723 120.456512,162.382782 119.696365,161.822296 119.135895C161.261826 118.575409,160.501678 118.260468,159.708984 118.260468C158.916290 118.260468,158.156143 118.575409,157.595673 119.135895C157.035187 119.696365,156.720245 120.456512,156.720245 121.249207C156.720245 122.041901,157.035187 122.802048,157.595673 123.362518C158.156143 123.923004,158.916290 124.237946,159.708984 124.237946C160.501678 124.237946,161.261826 123.923004,161.822296 123.362518C162.382782 122.802048,162.697723 122.041901,162.697723 121.249207Z" style="fill: rgb(100.000000%,100.000000%,100.000000%);stroke: none;"></path>
  <path d="M134.716019 189.171570C134.716019 188.378876,134.401077 187.618729,133.840591 187.058258C133.280121 186.497772,132.519974 186.182831,131.727280 186.182831C130.934586 186.182831,130.174438 186.497772,129.613968 187.058258C129.053482 187.618729,128.738541 188.378876,128.738541 189.171570C128.738541 189.964264,129.053482 190.724411,129.613968 191.284882C130.174438 191.845367,130.934586 192.160309,131.727280 192.160309C132.519974 192.160309,133.280121 191.845367,133.840591 191.284882C134.401077 190.724411,134.716019 189.964264,134.716019 189.171570Z" style="fill: rgb(100.000000%,100.000000%,100.000000%);stroke: none;"></path>
  <path d="M151.175003 158.802826C151.175003 158.010132,150.860062 157.249985,150.299576 156.689514C149.739105 156.129028,148.978958 155.814087,148.186264 155.814087C147.393570 155.814087,146.633423 156.129028,146.072952 156.689514C145.512466 157.249985,145.197525 158.010132,145.197525 158.802826C145.197525 159.595520,145.512466 160.355667,146.072952 160.916138C146.633423 161.476624,147.393570 161.791565,148.186264 161.791565C148.978958 161.791565,149.739105 161.476624,150.299576 160.916138C150.860062 160.355667,151.175003 159.595520,151.175003 158.802826Z" style="fill: rgb(100.000000%,100.000000%,100.000000%);stroke: none;"></path>
  <path d="M89.901260 189.766144C67.213058 189.716080,47.846359 173.359833,44.000000 151.000000C41.397446 135.870743,46.901154 120.703888,46.410522 105.409180C46.151642 97.339050,44.218216 89.407776,44.000000 81.336075C43.837814 75.336990,44.459991 68.927078,40.831940 64.115967C35.794968 57.436493,26.092087 57.205811,18.642944 61.818817C2.315079 71.930115,2.883301 94.233032,8.267624 113.832443C13.656784 133.449432,25.261932 152.552719,44.000000 151.000000C58.453613 149.802322,66.959091 136.020493,73.574371 122.764984C77.500320 114.898285,81.366776 107.001251,85.432495 99.205750C87.787354 94.690613,90.220749 90.179550,91.602448 85.273651C93.008072 80.282806,93.271667 75.073990,93.650726 69.907547C94.199310 62.430450,95.002533 54.966141,95.090897 47.468292C95.249786 33.986908,92.513809 19.846771,81.665680 12.121872C69.251297 3.281662,52.524887 6.800537,40.119415 16.422455C26.138428 27.266373,18.178894 44.130325,18.642944 61.818817C18.908966 71.958725,23.272614 82.173264,32.648163 83.562683C36.536148 84.138870,40.327423 82.709442,44.000000 81.336075C48.725021 79.569153,53.478470 77.879517,58.212845 76.137863C62.892914 74.416199,67.555832 72.643173,72.304153 71.118973C75.802872 69.995880,79.369019 69.004990,83.043686 68.856506C86.605270 68.712585,90.130646 69.367508,93.650726 69.907547C98.118256 70.592926,102.740234 71.148605,106.489349 73.695267C110.777679 76.608200,113.026001 81.513351,116.132217 85.632690C119.056503 89.510757,122.800629 93.506973,121.426270 98.113068C120.255554 102.036636,116.031311 103.669937,112.198837 105.217300C107.730118 107.021545,103.190399 109.283554,98.423141 108.468842C93.018799 107.545258,89.291016 103.075928,85.432495 99.205750C81.878204 95.640732,77.882858 92.388931,75.540756 87.917679C72.857910 82.795914,72.724976 76.869034,72.304153 71.118973C71.754013 63.601929,70.632294 56.135574,70.175171 48.611984C69.349838 35.028107,71.237564 20.624146,81.665680 12.121872C93.573395 2.413254,110.328384 5.004242,124.756531 11.238800C141.115768 18.307816,156.016251 30.219940,158.320663 47.614334C160.164017 61.528610,152.558701 75.894882,157.876328 89.099625C162.130798 99.664307,173.220001 105.278778,179.844162 114.422821C190.052780 128.514877,188.724701 147.730438,177.773972 161.432892C168.653900 172.844666,153.650955 178.499100,140.899506 172.247742C126.568680 165.222107,123.690567 147.646774,120.412094 131.863297C118.516754 122.738647,115.964600 113.744553,112.198837 105.217300C110.542816 101.467377,108.658463 97.535141,109.739502 93.576950C110.659119 90.209808,113.484634 87.895462,116.132217 85.632690C121.722275 80.855118,126.903748 75.611542,131.459274 69.838196C139.037216 60.234482,146.160782 48.730286,158.320663 47.614334C171.688599 46.387512,181.785217 57.960266,186.794968 71.113800C192.685196 86.579086,192.377487 104.586777,179.844162 114.422821C171.616165 120.880081,159.708984 121.249207,152.509354 128.954865C141.781326 140.436905,148.186264 158.802826,140.899506 172.247742C131.727280 189.171570,109.705170 189.809845,89.901260 189.766144" style="stroke:rgb(0.000000%,0.000000%,0.000000%); stroke-width: 0.498138;stroke-linecap: round;stroke-linejoin: round;stroke-miterlimit: 10.000000;fill: none;"></path>
  <path d="M89.901260 189.766144C67.213058 189.716080,47.846359 173.359833,44.000000 151.000000" style="stroke:rgb(0.000000%,0.000000%,0.000000%); stroke-width: 1.494400;stroke-linecap: round;stroke-linejoin: round;stroke-miterlimit: 10.000000;fill: none;"></path>
  <path d="M179.844162 114.422821C171.616165 120.880081,159.708984 121.249207,152.509354 128.954865C141.781326 140.436905,148.186264 158.802826,140.899506 172.247742C131.727280 189.171570,109.705170 189.809845,89.901260 189.766144" style="stroke:rgb(0.000000%,0.000000%,0.000000%); stroke-width: 1.494400;stroke-linecap: round;stroke-linejoin: round;stroke-miterlimit: 10.000000;fill: none;"></path>
  <path d="M46.988739 151.000000C46.988739 150.207306,46.673798 149.447159,46.113312 148.886688C45.552841 148.326202,44.792694 148.011261,44.000000 148.011261C43.207306 148.011261,42.447159 148.326202,41.886688 148.886688C41.326202 149.447159,41.011261 150.207306,41.011261 151.000000C41.011261 151.792694,41.326202 152.552841,41.886688 153.113312C42.447159 153.673798,43.207306 153.988739,44.000000 153.988739C44.792694 153.988739,45.552841 153.673798,46.113312 153.113312C46.673798 152.552841,46.988739 151.792694,46.988739 151.000000Z" style="fill: rgb(100.000000%,100.000000%,100.000000%);stroke: none;"></path>
  <path d="M21.127975 140.354874C27.045166 147.388718,34.630966 151.776352,44.000000 151.000000C51.226807 150.401154,56.966583 146.656281,61.726578 141.404175" style="stroke:rgb(0.000000%,0.000000%,0.000000%); stroke-width: 0.498138;stroke-linecap: round;stroke-linejoin: round;stroke-miterlimit: 10.000000;fill: none;"></path>
  <path d="M21.631683 61.818817C21.631683 61.026123,21.316742 60.265976,20.756256 59.705505C20.195786 59.145020,19.435638 58.830078,18.642944 58.830078C17.850250 58.830078,17.090103 59.145020,16.529633 59.705505C15.969147 60.265976,15.654205 61.026123,15.654205 61.818817C15.654205 62.611511,15.969147 63.371658,16.529633 63.932129C17.090103 64.492615,17.850250 64.807556,18.642944 64.807556C19.435638 64.807556,20.195786 64.492615,20.756256 63.932129C21.316742 63.371658,21.631683 62.611511,21.631683 61.818817Z" style="fill: rgb(100.000000%,100.000000%,100.000000%);stroke: none;"></path>
  <path d="M23.964279 36.553940C20.284790 44.336472,18.410919 52.974579,18.642944 61.818817C18.775955 66.888779,19.933380 71.977386,22.229492 75.972198" style="stroke:rgb(0.000000%,0.000000%,0.000000%); stroke-width: 0.498138;stroke-linecap: round;stroke-linejoin: round;stroke-miterlimit: 10.000000;fill: none;"></path>
  <path d="M88.421234 99.205750C88.421234 98.413055,88.106293 97.652908,87.545807 97.092438C86.985336 96.531952,86.225189 96.217010,85.432495 96.217010C84.639801 96.217010,83.879654 96.531952,83.319183 97.092438C82.758698 97.652908,82.443756 98.413055,82.443756 99.205750C82.443756 99.998444,82.758698 100.758591,83.319183 101.319061C83.879654 101.879547,84.639801 102.194489,85.432495 102.194489C86.225189 102.194489,86.985336 101.879547,87.545807 101.319061C88.106293 100.758591,88.421234 99.998444,88.421234 99.205750Z" style="fill: rgb(100.000000%,100.000000%,100.000000%);stroke: none;"></path>
  <path d="M91.348129 104.942261C89.258331 103.225708,87.361755 101.140839,85.432495 99.205750C83.655350 97.423233,81.767929 95.719025,80.032043 93.901535" style="stroke:rgb(0.000000%,0.000000%,0.000000%); stroke-width: 0.498138;stroke-linecap: round;stroke-linejoin: round;stroke-miterlimit: 10.000000;fill: none;"></path>
  <path d="M84.654419 12.121872C84.654419 11.329178,84.339478 10.569031,83.778992 10.008560C83.218521 9.448074,82.458374 9.133133,81.665680 9.133133C80.872986 9.133133,80.112839 9.448074,79.552368 10.008560C78.991882 10.569031,78.676941 11.329178,78.676941 12.121872C78.676941 12.914566,78.991882 13.674713,79.552368 14.235184C80.112839 14.795670,80.872986 15.110611,81.665680 15.110611C82.458374 15.110611,83.218521 14.795670,83.778992 14.235184C84.339478 13.674713,84.654419 12.914566,84.654419 12.121872Z" style="fill: rgb(100.000000%,100.000000%,100.000000%);stroke: none;"></path>
  <path d="M71.700394 28.461319C73.372665 22.099564,76.451630 16.373001,81.665680 12.121872C87.619537 7.267563,94.785217 5.488159,102.265961 5.701660" style="stroke:rgb(0.000000%,0.000000%,0.000000%); stroke-width: 0.498138;stroke-linecap: round;stroke-linejoin: round;stroke-miterlimit: 10.000000;fill: none;"></path>
  <path d="M46.988739 81.336075C46.988739 80.543381,46.673798 79.783234,46.113312 79.222763C45.552841 78.662277,44.792694 78.347336,44.000000 78.347336C43.207306 78.347336,42.447159 78.662277,41.886688 79.222763C41.326202 79.783234,41.011261 80.543381,41.011261 81.336075C41.011261 82.128769,41.326202 82.888916,41.886688 83.449387C42.447159 84.009872,43.207306 84.324814,44.000000 84.324814C44.792694 84.324814,45.552841 84.009872,46.113312 83.449387C46.673798 82.888916,46.988739 82.128769,46.988739 81.336075Z" style="fill: rgb(100.000000%,100.000000%,100.000000%);stroke: none;"></path>
  <path d="M45.190002 93.373215C44.647003 89.372665,44.109100 85.371918,44.000000 81.336075C43.918900 78.336533,44.033905 75.234283,43.715668 72.280518" style="stroke:rgb(0.000000%,0.000000%,0.000000%); stroke-width: 0.498138;stroke-linecap: round;stroke-linejoin: round;stroke-miterlimit: 10.000000;fill: none;"></path>
  <path d="M96.639465 69.907547C96.639465 69.114853,96.324524 68.354706,95.764038 67.794235C95.203568 67.233749,94.443420 66.918808,93.650726 66.918808C92.858032 66.918808,92.097885 67.233749,91.537415 67.794235C90.976929 68.354706,90.661987 69.114853,90.661987 69.907547C90.661987 70.700241,90.976929 71.460388,91.537415 72.020859C92.097885 72.581345,92.858032 72.896286,93.650726 72.896286C94.443420 72.896286,95.203568 72.581345,95.764038 72.020859C96.324524 71.460388,96.639465 70.700241,96.639465 69.907547Z" style="fill: rgb(100.000000%,100.000000%,100.000000%);stroke: none;"></path>
  <path d="M93.011566 77.656433C93.300537 75.084579,93.461197 72.490768,93.650726 69.907547C93.925018 66.168991,94.262970 62.433640,94.543396 58.695694" style="stroke:rgb(0.000000%,0.000000%,0.000000%); stroke-width: 0.498138;stroke-linecap: round;stroke-linejoin: round;stroke-miterlimit: 10.000000;fill: none;"></path>
  <path d="M115.187576 105.217300C115.187576 104.424606,114.872635 103.664459,114.312149 103.103989C113.751678 102.543503,112.991531 102.228561,112.198837 102.228561C111.406143 102.228561,110.645996 102.543503,110.085526 103.103989C109.525040 103.664459,109.210098 104.424606,109.210098 105.217300C109.210098 106.009995,109.525040 106.770142,110.085526 107.330612C110.645996 107.891098,111.406143 108.206039,112.198837 108.206039C112.991531 108.206039,113.751678 107.891098,114.312149 107.330612C114.872635 106.770142,115.187576 106.009995,115.187576 105.217300Z" style="fill: rgb(100.000000%,100.000000%,100.000000%);stroke: none;"></path>
  <path d="M117.006866 118.316254C115.661194 113.861252,114.081711 109.480927,112.198837 105.217300C111.370819 103.342331,110.485718 101.421783,109.942764 99.475204" style="stroke:rgb(0.000000%,0.000000%,0.000000%); stroke-width: 0.498138;stroke-linecap: round;stroke-linejoin: round;stroke-miterlimit: 10.000000;fill: none;"></path>
  <path d="M75.292892 71.118973C75.292892 70.326279,74.977951 69.566132,74.417465 69.005661C73.856995 68.445175,73.096848 68.130234,72.304153 68.130234C71.511459 68.130234,70.751312 68.445175,70.190842 69.005661C69.630356 69.566132,69.315414 70.326279,69.315414 71.118973C69.315414 71.911667,69.630356 72.671814,70.190842 73.232285C70.751312 73.792770,71.511459 74.107712,72.304153 74.107712C73.096848 74.107712,73.856995 73.792770,74.417465 73.232285C74.977951 72.671814,75.292892 71.911667,75.292892 71.118973Z" style="fill: rgb(100.000000%,100.000000%,100.000000%);stroke: none;"></path>
  <path d="M65.232925 73.554352C67.577194 72.705368,69.929993 71.881073,72.304153 71.118973C74.053513 70.557419,75.819733 70.028915,77.607956 69.622238" style="stroke:rgb(0.000000%,0.000000%,0.000000%); stroke-width: 0.498138;stroke-linecap: round;stroke-linejoin: round;stroke-miterlimit: 10.000000;fill: none;"></path>
  <path d="M161.309402 47.614334C161.309402 46.821640,160.994461 46.061493,160.433975 45.501022C159.873505 44.940536,159.113358 44.625595,158.320663 44.625595C157.527969 44.625595,156.767822 44.940536,156.207352 45.501022C155.646866 46.061493,155.331924 46.821640,155.331924 47.614334C155.331924 48.407028,155.646866 49.167175,156.207352 49.727646C156.767822 50.288132,157.527969 50.603073,158.320663 50.603073C159.113358 50.603073,159.873505 50.288132,160.433975 49.727646C160.994461 49.167175,161.309402 48.407028,161.309402 47.614334Z" style="fill: rgb(100.000000%,100.000000%,100.000000%);stroke: none;"></path>
  <path d="M143.171753 55.543335C147.419861 51.327332,152.240723 48.172302,158.320663 47.614334C165.004639 47.000916,170.870773 49.587402,175.692139 53.971436" style="stroke:rgb(0.000000%,0.000000%,0.000000%); stroke-width: 0.498138;stroke-linecap: round;stroke-linejoin: round;stroke-miterlimit: 10.000000;fill: none;"></path>
  <path d="M143.888245 172.247742C143.888245 171.455048,143.573303 170.694901,143.012817 170.134430C142.452347 169.573944,141.692200 169.259003,140.899506 169.259003C140.106812 169.259003,139.346664 169.573944,138.786194 170.134430C138.225708 170.694901,137.910767 171.455048,137.910767 172.247742C137.910767 173.040436,138.225708 173.800583,138.786194 174.361053C139.346664 174.921539,140.106812 175.236481,140.899506 175.236481C141.692200 175.236481,142.452347 174.921539,143.012817 174.361053C143.573303 173.800583,143.888245 173.040436,143.888245 172.247742Z" style="fill: rgb(100.000000%,100.000000%,100.000000%);stroke: none;"></path>
  <path d="M145.413940 149.865234C144.763336 157.572586,144.542877 165.525284,140.899506 172.247742C136.313385 180.709656,128.514801 185.100189,119.387253 187.369781" style="stroke:rgb(0.000000%,0.000000%,0.000000%); stroke-width: 1.494400;stroke-linecap: round;stroke-linejoin: round;stroke-miterlimit: 10.000000;fill: none;"></path>
  <path d="M119.120956 85.632690C119.120956 84.839996,118.806015 84.079849,118.245529 83.519379C117.685059 82.958893,116.924911 82.643951,116.132217 82.643951C115.339523 82.643951,114.579376 82.958893,114.018906 83.519379C113.458420 84.079849,113.143478 84.839996,113.143478 85.632690C113.143478 86.425385,113.458420 87.185532,114.018906 87.746002C114.579376 88.306488,115.339523 88.621429,116.132217 88.621429C116.924911 88.621429,117.685059 88.306488,118.245529 87.746002C118.806015 87.185532,119.120956 86.425385,119.120956 85.632690Z" style="fill: rgb(100.000000%,100.000000%,100.000000%);stroke: none;"></path>
  <path d="M111.754089 79.211594C113.240479 81.316910,114.579117 83.573029,116.132217 85.632690C117.594360 87.571732,119.261475 89.540298,120.391251 91.599884" style="stroke:rgb(0.000000%,0.000000%,0.000000%); stroke-width: 0.498138;stroke-linecap: round;stroke-linejoin: round;stroke-miterlimit: 10.000000;fill: none;"></path>
  <path d="M182.832901 114.422821C182.832901 113.630127,182.517960 112.869980,181.957474 112.309509C181.397003 111.749023,180.636856 111.434082,179.844162 111.434082C179.051468 111.434082,178.291321 111.749023,177.730850 112.309509C177.170364 112.869980,176.855423 113.630127,176.855423 114.422821C176.855423 115.215515,177.170364 115.975662,177.730850 116.536133C178.291321 117.096619,179.051468 117.411560,179.844162 117.411560C180.636856 117.411560,181.397003 117.096619,181.957474 116.536133C182.517960 115.975662,182.832901 115.215515,182.832901 114.422821Z" style="fill: rgb(100.000000%,100.000000%,100.000000%);stroke: none;"></path>
  <path d="M167.971619 102.293976C172.103745 106.161179,176.532089 109.850800,179.844162 114.422821C184.948471 121.468857,187.168610 129.795761,186.743820 138.073975" style="stroke:rgb(0.000000%,0.000000%,0.000000%); stroke-width: 0.498138;stroke-linecap: round;stroke-linejoin: round;stroke-miterlimit: 10.000000;fill: none;"></path>
  <path d="M152.509354 128.954865C143.926895 138.140533,146.309616 151.731918,143.875122 163.684845" style="stroke:rgb(0.000000%,0.000000%,0.000000%); stroke-width: 0.498138;stroke-linecap: round;stroke-linejoin: round;stroke-miterlimit: 10.000000;fill: none;"></path>
  <path d="M142.690323 158.827164C143.150604 160.441086,143.559616 162.059937,143.875122 163.684845C144.801041 162.312775,145.656555 160.878891,146.472305 159.412216Z" style="stroke:rgb(0.000000%,0.000000%,0.000000%); stroke-width: 0.498138;fill: rgb(0.000000%,0.000000%,0.000000%);"></path>
  <path d="M152.509354 128.954865C143.926895 138.140533,146.309616 151.731918,143.875122 163.684845" style="stroke:rgb(0.000000%,0.000000%,0.000000%); stroke-width: 0.498138;stroke-linecap: round;stroke-linejoin: round;stroke-miterlimit: 10.000000;fill: none;"></path>
  <path d="M143.213379 160.758545C143.461670 161.731949,143.685318 162.707291,143.875122 163.684845C144.432144 162.859421,144.963715 162.011612,145.476440 161.147736Z" style="stroke:rgb(0.000000%,0.000000%,0.000000%); stroke-width: 0.498138;fill: rgb(0.000000%,0.000000%,0.000000%);"></path>
  <path d="M40.831940 64.115967C36.802353 58.772369,29.786560 57.556030,23.327454 59.645126" style="stroke:rgb(0.000000%,0.000000%,0.000000%); stroke-width: 0.498138;stroke-linecap: round;stroke-linejoin: round;stroke-miterlimit: 10.000000;fill: none;"></path>
  <path d="M25.747818 57.872696C24.908005 58.395676,24.097961 58.988831,23.327454 59.645126C24.336365 59.725891,25.328568 59.879288,26.292191 60.103317Z" style="stroke:rgb(0.000000%,0.000000%,0.000000%); stroke-width: 0.498138;fill: rgb(0.000000%,0.000000%,0.000000%);"></path>
  <path d="M73.574371 122.764984C76.715149 116.471603,79.817841 110.158798,83.014954 103.894119" style="stroke:rgb(0.000000%,0.000000%,0.000000%); stroke-width: 0.498138;stroke-linecap: round;stroke-linejoin: round;stroke-miterlimit: 10.000000;fill: none;"></path>
  <path d="M82.783646 106.885208C82.858887 105.888046,82.935852 104.890991,83.014954 103.894119L80.736343 105.845535Z" style="stroke:rgb(0.000000%,0.000000%,0.000000%); stroke-width: 0.498138;fill: rgb(0.000000%,0.000000%,0.000000%);"></path>
  <path d="M91.602448 85.273651C92.726944 81.280960,93.120544 77.148773,93.427094 73.010376" style="stroke:rgb(0.000000%,0.000000%,0.000000%); stroke-width: 0.498138;stroke-linecap: round;stroke-linejoin: round;stroke-miterlimit: 10.000000;fill: none;"></path>
  <path d="M94.344116 75.866714C94.049286 74.911835,93.740601 73.960297,93.427094 73.010376C92.977051 73.903748,92.522491 74.794861,92.055756 75.678513Z" style="stroke:rgb(0.000000%,0.000000%,0.000000%); stroke-width: 0.498138;fill: rgb(0.000000%,0.000000%,0.000000%);"></path>
  <path d="M32.648163 83.562683C35.758560 84.023636,38.807068 83.200989,41.782425 82.150330" style="stroke:rgb(0.000000%,0.000000%,0.000000%); stroke-width: 0.498138;stroke-linecap: round;stroke-linejoin: round;stroke-miterlimit: 10.000000;fill: none;"></path>
  <path d="M39.482666 84.076721C40.273376 83.474106,41.035736 82.821457,41.782425 82.150330C40.779877 82.096878,39.779327 82.019302,38.794098 81.886261Z" style="stroke:rgb(0.000000%,0.000000%,0.000000%); stroke-width: 0.498138;fill: rgb(0.000000%,0.000000%,0.000000%);"></path>
  <path d="M83.043686 68.856506C85.892960 68.741364,88.719070 69.137497,91.537827 69.577057" style="stroke:rgb(0.000000%,0.000000%,0.000000%); stroke-width: 0.498138;stroke-linecap: round;stroke-linejoin: round;stroke-miterlimit: 10.000000;fill: none;"></path>
  <path d="M88.631134 70.319626C89.594086 70.054214,90.565353 69.812988,91.537827 69.577057C90.683365 69.056213,89.826019 68.539993,88.957428 68.046738Z" style="stroke:rgb(0.000000%,0.000000%,0.000000%); stroke-width: 0.498138;fill: rgb(0.000000%,0.000000%,0.000000%);"></path>
  <path d="M121.426270 98.113068C120.489700 101.251938,117.598846 102.925018,114.517731 104.260956" style="stroke:rgb(0.000000%,0.000000%,0.000000%); stroke-width: 0.498138;stroke-linecap: round;stroke-linejoin: round;stroke-miterlimit: 10.000000;fill: none;"></path>
  <path d="M116.491364 102.001633C115.898972 102.783188,115.222229 103.532944,114.517731 104.260956C115.530670 104.244339,116.539352 104.192734,117.510895 104.059006Z" style="stroke:rgb(0.000000%,0.000000%,0.000000%); stroke-width: 0.498138;fill: rgb(0.000000%,0.000000%,0.000000%);"></path>
  <path d="M98.423141 108.468842C94.099655 107.729965,90.849167 104.721817,87.746353 101.566559" style="stroke:rgb(0.000000%,0.000000%,0.000000%); stroke-width: 0.498138;stroke-linecap: round;stroke-linejoin: round;stroke-miterlimit: 10.000000;fill: none;"></path>
  <path d="M90.530182 102.684952C89.597794 102.340027,88.670013 101.958237,87.746353 101.566559C88.122498 102.496658,88.508560 103.422668,88.923950 104.325882Z" style="stroke:rgb(0.000000%,0.000000%,0.000000%); stroke-width: 0.498138;fill: rgb(0.000000%,0.000000%,0.000000%);"></path>
  <path d="M70.175171 48.611984C69.514908 37.744843,70.591003 26.352844,76.387100 17.877563" style="stroke:rgb(0.000000%,0.000000%,0.000000%); stroke-width: 0.498138;stroke-linecap: round;stroke-linejoin: round;stroke-miterlimit: 10.000000;fill: none;"></path>
  <path d="M75.921799 20.841156C76.027313 19.846085,76.181152 18.857605,76.387100 17.877563C75.548462 18.424927,74.740723 19.015091,73.962479 19.644073Z" style="stroke:rgb(0.000000%,0.000000%,0.000000%); stroke-width: 0.498138;fill: rgb(0.000000%,0.000000%,0.000000%);"></path>
  <path d="M177.773972 161.432892C170.477890 170.562347,159.416733 176.007065,148.755356 174.619034" style="stroke:rgb(0.000000%,0.000000%,0.000000%); stroke-width: 0.498138;stroke-linecap: round;stroke-linejoin: round;stroke-miterlimit: 10.000000;fill: none;"></path>
  <path d="M151.601334 173.670334C150.673676 174.040451,149.724289 174.357910,148.755356 174.619034C149.625137 175.119568,150.520905 175.566391,151.438583 175.960648Z" style="stroke:rgb(0.000000%,0.000000%,0.000000%); stroke-width: 0.498138;fill: rgb(0.000000%,0.000000%,0.000000%);"></path>
  <path d="M109.739502 93.576950C110.475204 90.883224,112.430679 88.863297,114.539017 87.004532" style="stroke:rgb(0.000000%,0.000000%,0.000000%); stroke-width: 0.498138;stroke-linecap: round;stroke-linejoin: round;stroke-miterlimit: 10.000000;fill: none;"></path>
  <path d="M113.342392 89.755569C113.678970 88.824936,114.095978 87.908936,114.539017 87.004532C113.586212 87.330750,112.643631 87.683578,111.747574 88.103622Z" style="stroke:rgb(0.000000%,0.000000%,0.000000%); stroke-width: 0.498138;fill: rgb(0.000000%,0.000000%,0.000000%);"></path>
  <path d="M131.459274 69.838196C137.521652 62.155197,143.293213 53.255875,151.585251 49.432144" style="stroke:rgb(0.000000%,0.000000%,0.000000%); stroke-width: 0.498138;stroke-linecap: round;stroke-linejoin: round;stroke-miterlimit: 10.000000;fill: none;"></path>
  <path d="M149.696472 51.762726C150.279236 50.945358,150.906647 50.166428,151.585251 49.432144C150.586182 49.471481,149.591766 49.578629,148.601715 49.744507Z" style="stroke:rgb(0.000000%,0.000000%,0.000000%); stroke-width: 0.498138;fill: rgb(0.000000%,0.000000%,0.000000%);"></path>
  <path d="M86.910614 192.476349L92.891907 192.476349L92.891907 185.055954L86.910614 185.055954Z" style="fill: rgb(100.000000%,100.000000%,100.000000%);stroke: none;"></path>
  <path d="M86.910614 194.476349L92.891907 194.476349L92.891907 187.055954L86.910614 187.055954Z" style="fill: rgb(100.000000%,100.000000%,100.000000%);stroke: none;"></path>
  <g transform="translate(87.410614 192.976349)" style="fill: rgb(0.000000%,0.000000%,0.000000%);">
    <use xlink:href="#GLYPHcmr10_49"></use>
  </g>
  <path d="M43.419876 108.119385L49.401169 108.119385L49.401169 100.698990L43.419876 100.698990Z" style="fill: rgb(100.000000%,100.000000%,100.000000%);stroke: none;"></path>
  <path d="M43.419876 110.119385L49.401169 110.119385L49.401169 102.698990L43.419876 102.698990Z" style="fill: rgb(100.000000%,100.000000%,100.000000%);stroke: none;"></path>
  <g transform="translate(43.919876 108.619385)" style="fill: rgb(0.000000%,0.000000%,0.000000%);">
    <use xlink:href="#GLYPHcmr10_50"></use>
  </g>
  <path d="M5.276978 116.542648L11.258270 116.542648L11.258270 109.122253L5.276978 109.122253Z" style="fill: rgb(100.000000%,100.000000%,100.000000%);stroke: none;"></path>
  <path d="M5.276978 118.542648L11.258270 118.542648L11.258270 111.122253L5.276978 111.122253Z" style="fill: rgb(100.000000%,100.000000%,100.000000%);stroke: none;"></path>
  <g transform="translate(5.776978 117.042648)" style="fill: rgb(0.000000%,0.000000%,0.000000%);">
    <use xlink:href="#GLYPHcmr10_51"></use>
  </g>
  <path d="M92.100250 50.178497L98.081543 50.178497L98.081543 42.758102L92.100250 42.758102Z" style="fill: rgb(100.000000%,100.000000%,100.000000%);stroke: none;"></path>
  <path d="M92.100250 52.178497L98.081543 52.178497L98.081543 44.758102L92.100250 44.758102Z" style="fill: rgb(100.000000%,100.000000%,100.000000%);stroke: none;"></path>
  <g transform="translate(92.600250 50.678497)" style="fill: rgb(0.000000%,0.000000%,0.000000%);">
    <use xlink:href="#GLYPHcmr10_52"></use>
  </g>
  <path d="M37.128769 19.132660L43.110062 19.132660L43.110062 11.712265L37.128769 11.712265Z" style="fill: rgb(100.000000%,100.000000%,100.000000%);stroke: none;"></path>
  <path d="M37.128769 21.132660L43.110062 21.132660L43.110062 13.712265L37.128769 13.712265Z" style="fill: rgb(100.000000%,100.000000%,100.000000%);stroke: none;"></path>
  <g transform="translate(37.628769 19.632660)" style="fill: rgb(0.000000%,0.000000%,0.000000%);">
    <use xlink:href="#GLYPHcmr10_53"></use>
  </g>
  <path d="M55.222198 78.848068L61.203491 78.848068L61.203491 71.427673L55.222198 71.427673Z" style="fill: rgb(100.000000%,100.000000%,100.000000%);stroke: none;"></path>
  <path d="M55.222198 80.848068L61.203491 80.848068L61.203491 73.427673L55.222198 73.427673Z" style="fill: rgb(100.000000%,100.000000%,100.000000%);stroke: none;"></path>
  <g transform="translate(55.722198 79.348068)" style="fill: rgb(0.000000%,0.000000%,0.000000%);">
    <use xlink:href="#GLYPHcmr10_54"></use>
  </g>
  <path d="M103.498703 76.405472L109.479996 76.405472L109.479996 68.985077L103.498703 68.985077Z" style="fill: rgb(100.000000%,100.000000%,100.000000%);stroke: none;"></path>
  <path d="M103.498703 78.405472L109.479996 78.405472L109.479996 70.985077L103.498703 70.985077Z" style="fill: rgb(100.000000%,100.000000%,100.000000%);stroke: none;"></path>
  <g transform="translate(103.998703 76.905472)" style="fill: rgb(0.000000%,0.000000%,0.000000%);">
    <use xlink:href="#GLYPHcmr10_55"></use>
  </g>
  <path d="M72.550110 90.627884L78.531403 90.627884L78.531403 83.207489L72.550110 83.207489Z" style="fill: rgb(100.000000%,100.000000%,100.000000%);stroke: none;"></path>
  <path d="M72.550110 92.627884L78.531403 92.627884L78.531403 85.207489L72.550110 85.207489Z" style="fill: rgb(100.000000%,100.000000%,100.000000%);stroke: none;"></path>
  <g transform="translate(73.050110 91.127884)" style="fill: rgb(0.000000%,0.000000%,0.000000%);">
    <use xlink:href="#GLYPHcmr10_56"></use>
  </g>
  <path d="M121.765884 13.949005L127.747177 13.949005L127.747177 6.528610L121.765884 6.528610Z" style="fill: rgb(100.000000%,100.000000%,100.000000%);stroke: none;"></path>
  <path d="M121.765884 15.949005L127.747177 15.949005L127.747177 8.528610L121.765884 8.528610Z" style="fill: rgb(100.000000%,100.000000%,100.000000%);stroke: none;"></path>
  <g transform="translate(122.265884 14.449005)" style="fill: rgb(0.000000%,0.000000%,0.000000%);">
    <use xlink:href="#GLYPHcmr10_57"></use>
  </g>
  <path d="M152.394974 91.809830L163.357681 91.809830L163.357681 84.389435L152.394974 84.389435Z" style="fill: rgb(100.000000%,100.000000%,100.000000%);stroke: none;"></path>
  <path d="M152.394974 93.809830L163.357681 93.809830L163.357681 86.389435L152.394974 86.389435Z" style="fill: rgb(100.000000%,100.000000%,100.000000%);stroke: none;"></path>
  <g transform="translate(152.894974 92.309830)" style="fill: rgb(0.000000%,0.000000%,0.000000%);">
    <use xlink:href="#GLYPHcmr10_49"></use>
    <use xlink:href="#GLYPHcmr10_48" x="5.000095"></use>
  </g>
  <path d="M114.930740 134.573502L125.893448 134.573502L125.893448 127.153107L114.930740 127.153107Z" style="fill: rgb(100.000000%,100.000000%,100.000000%);stroke: none;"></path>
  <path d="M114.930740 136.573502L125.893448 136.573502L125.893448 129.153107L114.930740 129.153107Z" style="fill: rgb(100.000000%,100.000000%,100.000000%);stroke: none;"></path>
  <g transform="translate(115.430740 135.073502)" style="fill: rgb(0.000000%,0.000000%,0.000000%);">
    <use xlink:href="#GLYPHcmr10_49"></use>
    <use xlink:href="#GLYPHcmr10_49" x="5.000095"></use>
  </g>
  <path d="M181.313614 73.824005L192.276321 73.824005L192.276321 66.403610L181.313614 66.403610Z" style="fill: rgb(100.000000%,100.000000%,100.000000%);stroke: none;"></path>
  <path d="M181.313614 75.824005L192.276321 75.824005L192.276321 68.403610L181.313614 68.403610Z" style="fill: rgb(100.000000%,100.000000%,100.000000%);stroke: none;"></path>
  <g transform="translate(181.813614 74.324005)" style="fill: rgb(0.000000%,0.000000%,0.000000%);">
    <use xlink:href="#GLYPHcmr10_49"></use>
    <use xlink:href="#GLYPHcmr10_50" x="5.000095"></use>
  </g>
</svg>
